G04 #@! TF.GenerationSoftware,KiCad,Pcbnew,(5.1.10)-1*
G04 #@! TF.CreationDate,2021-08-28T07:27:22+02:00*
G04 #@! TF.ProjectId,Haraldswerk NGF-E LFO Main,48617261-6c64-4737-9765-726b204e4746,rev?*
G04 #@! TF.SameCoordinates,Original*
G04 #@! TF.FileFunction,Soldermask,Bot*
G04 #@! TF.FilePolarity,Negative*
%FSLAX46Y46*%
G04 Gerber Fmt 4.6, Leading zero omitted, Abs format (unit mm)*
G04 Created by KiCad (PCBNEW (5.1.10)-1) date 2021-08-28 07:27:22*
%MOMM*%
%LPD*%
G01*
G04 APERTURE LIST*
%ADD10O,1.700000X1.700000*%
%ADD11R,1.700000X1.700000*%
%ADD12C,1.600000*%
%ADD13O,1.600000X1.600000*%
%ADD14C,1.550000*%
%ADD15R,1.550000X1.550000*%
%ADD16C,1.800000*%
%ADD17O,2.000000X3.900000*%
%ADD18O,2.400000X1.600000*%
%ADD19R,2.400000X1.600000*%
%ADD20O,2.200000X2.200000*%
%ADD21R,2.200000X2.200000*%
%ADD22R,1.500000X1.050000*%
%ADD23O,1.500000X1.050000*%
%ADD24R,1.800000X1.800000*%
%ADD25C,1.200000*%
%ADD26R,1.200000X1.200000*%
G04 APERTURE END LIST*
D10*
G04 #@! TO.C,J6*
X12065000Y-7620000D03*
X9525000Y-7620000D03*
X12065000Y-5080000D03*
X9525000Y-5080000D03*
X12065000Y-2540000D03*
D11*
X9525000Y-2540000D03*
G04 #@! TD*
D12*
G04 #@! TO.C,C11*
X24765000Y-1985000D03*
X24765000Y-6985000D03*
G04 #@! TD*
G04 #@! TO.C,C10*
X15320000Y-2540000D03*
X20320000Y-2540000D03*
G04 #@! TD*
D13*
G04 #@! TO.C,R16*
X10795000Y-67945000D03*
D12*
X8255000Y-67945000D03*
G04 #@! TD*
D14*
G04 #@! TO.C,T1*
X10715000Y-44490000D03*
D15*
X5715000Y-46990000D03*
D14*
X5715000Y-41990000D03*
G04 #@! TD*
D16*
G04 #@! TO.C,RV1*
X5080000Y-9525000D03*
X5080000Y-12025000D03*
X5080000Y-14525000D03*
G04 #@! TD*
D17*
G04 #@! TO.C,J4*
X12800000Y-62230000D03*
X7000000Y-62230000D03*
X1700000Y-62230000D03*
G04 #@! TD*
G04 #@! TO.C,J3*
X12800000Y-73660000D03*
X7000000Y-73660000D03*
X1700000Y-73660000D03*
G04 #@! TD*
G04 #@! TO.C,J2*
X12800000Y-85090000D03*
X7000000Y-85090000D03*
X1700000Y-85090000D03*
G04 #@! TD*
G04 #@! TO.C,J1*
X12800000Y-96520000D03*
X7000000Y-96520000D03*
X1700000Y-96520000D03*
G04 #@! TD*
D18*
G04 #@! TO.C,U3*
X23495000Y-53975000D03*
X15875000Y-61595000D03*
X23495000Y-56515000D03*
X15875000Y-59055000D03*
X23495000Y-59055000D03*
X15875000Y-56515000D03*
X23495000Y-61595000D03*
D19*
X15875000Y-53975000D03*
G04 #@! TD*
D18*
G04 #@! TO.C,U2*
X22860000Y-36830000D03*
X15240000Y-44450000D03*
X22860000Y-39370000D03*
X15240000Y-41910000D03*
X22860000Y-41910000D03*
X15240000Y-39370000D03*
X22860000Y-44450000D03*
D19*
X15240000Y-36830000D03*
G04 #@! TD*
D18*
G04 #@! TO.C,U1*
X22860000Y-9525000D03*
X15240000Y-17145000D03*
X22860000Y-12065000D03*
X15240000Y-14605000D03*
X22860000Y-14605000D03*
X15240000Y-12065000D03*
X22860000Y-17145000D03*
D19*
X15240000Y-9525000D03*
G04 #@! TD*
D13*
G04 #@! TO.C,R18*
X25400000Y-65405000D03*
D12*
X25400000Y-67945000D03*
G04 #@! TD*
D13*
G04 #@! TO.C,R17*
X12700000Y-53975000D03*
D12*
X12700000Y-56515000D03*
G04 #@! TD*
D13*
G04 #@! TO.C,R15*
X10795000Y-79375000D03*
D12*
X8255000Y-79375000D03*
G04 #@! TD*
D13*
G04 #@! TO.C,R14*
X22225000Y-27940000D03*
D12*
X22225000Y-30480000D03*
G04 #@! TD*
D13*
G04 #@! TO.C,R13*
X15875000Y-30480000D03*
D12*
X15875000Y-27940000D03*
G04 #@! TD*
D13*
G04 #@! TO.C,R12*
X10795000Y-90805000D03*
D12*
X8255000Y-90805000D03*
G04 #@! TD*
D13*
G04 #@! TO.C,R11*
X12700000Y-27940000D03*
D12*
X12700000Y-30480000D03*
G04 #@! TD*
D13*
G04 #@! TO.C,R10*
X6350000Y-27940000D03*
D12*
X6350000Y-30480000D03*
G04 #@! TD*
D13*
G04 #@! TO.C,R9*
X9525000Y-30480000D03*
D12*
X9525000Y-27940000D03*
G04 #@! TD*
D13*
G04 #@! TO.C,R8*
X3175000Y-27940000D03*
D12*
X3175000Y-30480000D03*
G04 #@! TD*
D13*
G04 #@! TO.C,R7*
X5715000Y-49530000D03*
D12*
X3175000Y-49530000D03*
G04 #@! TD*
D13*
G04 #@! TO.C,R6*
X3175000Y-39370000D03*
D12*
X5715000Y-39370000D03*
G04 #@! TD*
D13*
G04 #@! TO.C,R5*
X26035000Y-17145000D03*
D12*
X26035000Y-19685000D03*
G04 #@! TD*
D13*
G04 #@! TO.C,R4*
X26035000Y-11430000D03*
D12*
X26035000Y-13970000D03*
G04 #@! TD*
D13*
G04 #@! TO.C,R3*
X11430000Y-18415000D03*
D12*
X8890000Y-18415000D03*
G04 #@! TD*
D13*
G04 #@! TO.C,R2*
X8890000Y-12065000D03*
D12*
X11430000Y-12065000D03*
G04 #@! TD*
D13*
G04 #@! TO.C,R1*
X8890000Y-15240000D03*
D12*
X11430000Y-15240000D03*
G04 #@! TD*
D20*
G04 #@! TO.C,D4*
X20320000Y-76835000D03*
D21*
X20320000Y-84455000D03*
G04 #@! TD*
D20*
G04 #@! TO.C,D3*
X25400000Y-84455000D03*
D21*
X25400000Y-76835000D03*
G04 #@! TD*
D12*
G04 #@! TO.C,C9*
X17225000Y-64770000D03*
X22225000Y-64770000D03*
G04 #@! TD*
G04 #@! TO.C,C8*
X17225000Y-50800000D03*
X22225000Y-50800000D03*
G04 #@! TD*
G04 #@! TO.C,C7*
X16590000Y-47625000D03*
X21590000Y-47625000D03*
G04 #@! TD*
G04 #@! TO.C,C6*
X16590000Y-6350000D03*
X21590000Y-6350000D03*
G04 #@! TD*
G04 #@! TO.C,C5*
X16590000Y-20320000D03*
X21590000Y-20320000D03*
G04 #@! TD*
G04 #@! TO.C,C4*
X16590000Y-33655000D03*
X21590000Y-33655000D03*
G04 #@! TD*
G04 #@! TO.C,C1*
X1350000Y-3175000D03*
X6350000Y-3175000D03*
G04 #@! TD*
D22*
G04 #@! TO.C,Q1*
X6350000Y-33655000D03*
D23*
X6350000Y-36195000D03*
X6350000Y-34925000D03*
G04 #@! TD*
D10*
G04 #@! TO.C,J5*
X25400000Y-99060000D03*
X22860000Y-99060000D03*
X25400000Y-96520000D03*
X22860000Y-96520000D03*
X25400000Y-93980000D03*
X22860000Y-93980000D03*
X25400000Y-91440000D03*
X22860000Y-91440000D03*
X25400000Y-88900000D03*
D11*
X22860000Y-88900000D03*
G04 #@! TD*
D16*
G04 #@! TO.C,D2*
X2540000Y-55245000D03*
D24*
X2540000Y-52705000D03*
G04 #@! TD*
D16*
G04 #@! TO.C,D1*
X6985000Y-52705000D03*
D24*
X6985000Y-55245000D03*
G04 #@! TD*
D25*
G04 #@! TO.C,C3*
X20320000Y-73255000D03*
D26*
X20320000Y-71755000D03*
G04 #@! TD*
D25*
G04 #@! TO.C,C2*
X25400000Y-71755000D03*
D26*
X25400000Y-73255000D03*
G04 #@! TD*
M02*
