M48
; DRILL file {KiCad (5.1.10)-1} date 08/28/21 07:27:24
; FORMAT={-:-/ absolute / metric / decimal}
; #@! TF.CreationDate,2021-08-28T07:27:24+02:00
; #@! TF.GenerationSoftware,Kicad,Pcbnew,(5.1.10)-1
; #@! TF.FileFunction,Plated,1,2,PTH
FMAT,2
METRIC
T1C0.400
T2C0.600
T3C0.750
T4C0.800
T5C0.900
T6C1.000
T7C1.100
%
G90
G05
T1
X1.27Y-9.525
X1.27Y-39.37
X1.27Y-41.91
X3.175Y-7.62
X3.175Y-24.765
X3.175Y-34.925
X3.81Y-1.905
X4.445Y-53.975
X6.35Y-26.035
X6.985Y-57.785
X10.795Y-46.355
X11.43Y-39.37
X12.7Y-33.655
X12.7Y-41.91
X12.7Y-45.085
X12.7Y-59.055
X19.05Y-3.81
X19.05Y-10.16
X19.05Y-26.035
X19.05Y-33.655
X19.05Y-36.83
X19.05Y-46.355
X19.05Y-48.26
X19.685Y-52.705
X19.685Y-60.325
X24.765Y-30.48
X24.765Y-39.37
X26.035Y-24.765
X26.035Y-43.18
X26.035Y-57.785
X27.305Y-27.94
X27.305Y-41.91
T2
X20.32Y-71.755
X20.32Y-73.255
X25.4Y-71.755
X25.4Y-73.255
T3
X6.35Y-33.655
X6.35Y-34.925
X6.35Y-36.195
T4
X1.35Y-3.175
X3.175Y-27.94
X3.175Y-30.48
X3.175Y-39.37
X3.175Y-49.53
X5.715Y-39.37
X5.715Y-49.53
X6.35Y-3.175
X6.35Y-27.94
X6.35Y-30.48
X8.255Y-67.945
X8.255Y-79.375
X8.255Y-90.805
X8.89Y-12.065
X8.89Y-15.24
X8.89Y-18.415
X9.525Y-27.94
X9.525Y-30.48
X10.795Y-67.945
X10.795Y-79.375
X10.795Y-90.805
X11.43Y-12.065
X11.43Y-15.24
X11.43Y-18.415
X12.7Y-27.94
X12.7Y-30.48
X12.7Y-53.975
X12.7Y-56.515
X15.24Y-9.525
X15.24Y-12.065
X15.24Y-14.605
X15.24Y-17.145
X15.24Y-36.83
X15.24Y-39.37
X15.24Y-41.91
X15.24Y-44.45
X15.32Y-2.54
X15.875Y-27.94
X15.875Y-30.48
X15.875Y-53.975
X15.875Y-56.515
X15.875Y-59.055
X15.875Y-61.595
X16.59Y-6.35
X16.59Y-20.32
X16.59Y-33.655
X16.59Y-47.625
X17.225Y-50.8
X17.225Y-64.77
X20.32Y-2.54
X21.59Y-6.35
X21.59Y-20.32
X21.59Y-33.655
X21.59Y-47.625
X22.225Y-27.94
X22.225Y-30.48
X22.225Y-50.8
X22.225Y-64.77
X22.86Y-9.525
X22.86Y-12.065
X22.86Y-14.605
X22.86Y-17.145
X22.86Y-36.83
X22.86Y-39.37
X22.86Y-41.91
X22.86Y-44.45
X23.495Y-53.975
X23.495Y-56.515
X23.495Y-59.055
X23.495Y-61.595
X24.765Y-1.985
X24.765Y-6.985
X25.4Y-65.405
X25.4Y-67.945
X26.035Y-11.43
X26.035Y-13.97
X26.035Y-17.145
X26.035Y-19.685
T5
X2.54Y-52.705
X2.54Y-55.245
X6.985Y-52.705
X6.985Y-55.245
T6
X5.08Y-9.525
X5.08Y-12.025
X5.08Y-14.525
X5.715Y-41.99
X5.715Y-46.99
X9.525Y-2.54
X9.525Y-5.08
X9.525Y-7.62
X10.715Y-44.49
X12.065Y-2.54
X12.065Y-5.08
X12.065Y-7.62
X22.86Y-88.9
X22.86Y-91.44
X22.86Y-93.98
X22.86Y-96.52
X22.86Y-99.06
X25.4Y-88.9
X25.4Y-91.44
X25.4Y-93.98
X25.4Y-96.52
X25.4Y-99.06
T7
X20.32Y-76.835
X20.32Y-84.455
X25.4Y-76.835
X25.4Y-84.455
T6
G00X1.7Y-61.28
M15
G01X1.7Y-63.18
M16
G05
G00X1.7Y-72.71
M15
G01X1.7Y-74.61
M16
G05
G00X1.7Y-84.14
M15
G01X1.7Y-86.04
M16
G05
G00X1.7Y-95.57
M15
G01X1.7Y-97.47
M16
G05
G00X7.0Y-61.28
M15
G01X7.0Y-63.18
M16
G05
G00X7.0Y-72.71
M15
G01X7.0Y-74.61
M16
G05
G00X7.0Y-84.14
M15
G01X7.0Y-86.04
M16
G05
G00X7.0Y-95.57
M15
G01X7.0Y-97.47
M16
G05
G00X12.8Y-61.28
M15
G01X12.8Y-63.18
M16
G05
G00X12.8Y-72.71
M15
G01X12.8Y-74.61
M16
G05
G00X12.8Y-84.14
M15
G01X12.8Y-86.04
M16
G05
G00X12.8Y-95.57
M15
G01X12.8Y-97.47
M16
G05
T0
M30
