G04 #@! TF.GenerationSoftware,KiCad,Pcbnew,(5.1.10)-1*
G04 #@! TF.CreationDate,2021-08-28T07:27:22+02:00*
G04 #@! TF.ProjectId,Haraldswerk NGF-E LFO Main,48617261-6c64-4737-9765-726b204e4746,rev?*
G04 #@! TF.SameCoordinates,Original*
G04 #@! TF.FileFunction,Legend,Top*
G04 #@! TF.FilePolarity,Positive*
%FSLAX46Y46*%
G04 Gerber Fmt 4.6, Leading zero omitted, Abs format (unit mm)*
G04 Created by KiCad (PCBNEW (5.1.10)-1) date 2021-08-28 07:27:22*
%MOMM*%
%LPD*%
G01*
G04 APERTURE LIST*
%ADD10C,0.100000*%
%ADD11C,0.120000*%
%ADD12C,0.010000*%
%ADD13C,0.080000*%
%ADD14C,0.150000*%
G04 APERTURE END LIST*
D10*
X7240476Y-21286904D02*
X7240476Y-20486904D01*
X7240476Y-20867857D02*
X7697619Y-20867857D01*
X7697619Y-21286904D02*
X7697619Y-20486904D01*
X8421428Y-21286904D02*
X8421428Y-20867857D01*
X8383333Y-20791666D01*
X8307142Y-20753571D01*
X8154761Y-20753571D01*
X8078571Y-20791666D01*
X8421428Y-21248809D02*
X8345238Y-21286904D01*
X8154761Y-21286904D01*
X8078571Y-21248809D01*
X8040476Y-21172619D01*
X8040476Y-21096428D01*
X8078571Y-21020238D01*
X8154761Y-20982142D01*
X8345238Y-20982142D01*
X8421428Y-20944047D01*
X8802380Y-21286904D02*
X8802380Y-20753571D01*
X8802380Y-20905952D02*
X8840476Y-20829761D01*
X8878571Y-20791666D01*
X8954761Y-20753571D01*
X9030952Y-20753571D01*
X9640476Y-21286904D02*
X9640476Y-20867857D01*
X9602380Y-20791666D01*
X9526190Y-20753571D01*
X9373809Y-20753571D01*
X9297619Y-20791666D01*
X9640476Y-21248809D02*
X9564285Y-21286904D01*
X9373809Y-21286904D01*
X9297619Y-21248809D01*
X9259523Y-21172619D01*
X9259523Y-21096428D01*
X9297619Y-21020238D01*
X9373809Y-20982142D01*
X9564285Y-20982142D01*
X9640476Y-20944047D01*
X10135714Y-21286904D02*
X10059523Y-21248809D01*
X10021428Y-21172619D01*
X10021428Y-20486904D01*
X10783333Y-21286904D02*
X10783333Y-20486904D01*
X10783333Y-21248809D02*
X10707142Y-21286904D01*
X10554761Y-21286904D01*
X10478571Y-21248809D01*
X10440476Y-21210714D01*
X10402380Y-21134523D01*
X10402380Y-20905952D01*
X10440476Y-20829761D01*
X10478571Y-20791666D01*
X10554761Y-20753571D01*
X10707142Y-20753571D01*
X10783333Y-20791666D01*
X11126190Y-21248809D02*
X11202380Y-21286904D01*
X11354761Y-21286904D01*
X11430952Y-21248809D01*
X11469047Y-21172619D01*
X11469047Y-21134523D01*
X11430952Y-21058333D01*
X11354761Y-21020238D01*
X11240476Y-21020238D01*
X11164285Y-20982142D01*
X11126190Y-20905952D01*
X11126190Y-20867857D01*
X11164285Y-20791666D01*
X11240476Y-20753571D01*
X11354761Y-20753571D01*
X11430952Y-20791666D01*
X11735714Y-20753571D02*
X11888095Y-21286904D01*
X12040476Y-20905952D01*
X12192857Y-21286904D01*
X12345238Y-20753571D01*
X12954761Y-21248809D02*
X12878571Y-21286904D01*
X12726190Y-21286904D01*
X12650000Y-21248809D01*
X12611904Y-21172619D01*
X12611904Y-20867857D01*
X12650000Y-20791666D01*
X12726190Y-20753571D01*
X12878571Y-20753571D01*
X12954761Y-20791666D01*
X12992857Y-20867857D01*
X12992857Y-20944047D01*
X12611904Y-21020238D01*
X13335714Y-21286904D02*
X13335714Y-20753571D01*
X13335714Y-20905952D02*
X13373809Y-20829761D01*
X13411904Y-20791666D01*
X13488095Y-20753571D01*
X13564285Y-20753571D01*
X13830952Y-21286904D02*
X13830952Y-20486904D01*
X13907142Y-20982142D02*
X14135714Y-21286904D01*
X14135714Y-20753571D02*
X13830952Y-21058333D01*
X7240476Y-22586904D02*
X7240476Y-21786904D01*
X7697619Y-22586904D01*
X7697619Y-21786904D01*
X8497619Y-21825000D02*
X8421428Y-21786904D01*
X8307142Y-21786904D01*
X8192857Y-21825000D01*
X8116666Y-21901190D01*
X8078571Y-21977380D01*
X8040476Y-22129761D01*
X8040476Y-22244047D01*
X8078571Y-22396428D01*
X8116666Y-22472619D01*
X8192857Y-22548809D01*
X8307142Y-22586904D01*
X8383333Y-22586904D01*
X8497619Y-22548809D01*
X8535714Y-22510714D01*
X8535714Y-22244047D01*
X8383333Y-22244047D01*
X9145238Y-22167857D02*
X8878571Y-22167857D01*
X8878571Y-22586904D02*
X8878571Y-21786904D01*
X9259523Y-21786904D01*
X9564285Y-22282142D02*
X10173809Y-22282142D01*
X10554761Y-22167857D02*
X10821428Y-22167857D01*
X10935714Y-22586904D02*
X10554761Y-22586904D01*
X10554761Y-21786904D01*
X10935714Y-21786904D01*
X12269047Y-22586904D02*
X11888095Y-22586904D01*
X11888095Y-21786904D01*
X12802380Y-22167857D02*
X12535714Y-22167857D01*
X12535714Y-22586904D02*
X12535714Y-21786904D01*
X12916666Y-21786904D01*
X13373809Y-21786904D02*
X13526190Y-21786904D01*
X13602380Y-21825000D01*
X13678571Y-21901190D01*
X13716666Y-22053571D01*
X13716666Y-22320238D01*
X13678571Y-22472619D01*
X13602380Y-22548809D01*
X13526190Y-22586904D01*
X13373809Y-22586904D01*
X13297619Y-22548809D01*
X13221428Y-22472619D01*
X13183333Y-22320238D01*
X13183333Y-22053571D01*
X13221428Y-21901190D01*
X13297619Y-21825000D01*
X13373809Y-21786904D01*
X7240476Y-23886904D02*
X7240476Y-23086904D01*
X7507142Y-23658333D01*
X7773809Y-23086904D01*
X7773809Y-23886904D01*
X8497619Y-23886904D02*
X8497619Y-23467857D01*
X8459523Y-23391666D01*
X8383333Y-23353571D01*
X8230952Y-23353571D01*
X8154761Y-23391666D01*
X8497619Y-23848809D02*
X8421428Y-23886904D01*
X8230952Y-23886904D01*
X8154761Y-23848809D01*
X8116666Y-23772619D01*
X8116666Y-23696428D01*
X8154761Y-23620238D01*
X8230952Y-23582142D01*
X8421428Y-23582142D01*
X8497619Y-23544047D01*
X8878571Y-23886904D02*
X8878571Y-23353571D01*
X8878571Y-23086904D02*
X8840476Y-23125000D01*
X8878571Y-23163095D01*
X8916666Y-23125000D01*
X8878571Y-23086904D01*
X8878571Y-23163095D01*
X9259523Y-23353571D02*
X9259523Y-23886904D01*
X9259523Y-23429761D02*
X9297619Y-23391666D01*
X9373809Y-23353571D01*
X9488095Y-23353571D01*
X9564285Y-23391666D01*
X9602380Y-23467857D01*
X9602380Y-23886904D01*
X11050000Y-23886904D02*
X10783333Y-23505952D01*
X10592857Y-23886904D02*
X10592857Y-23086904D01*
X10897619Y-23086904D01*
X10973809Y-23125000D01*
X11011904Y-23163095D01*
X11050000Y-23239285D01*
X11050000Y-23353571D01*
X11011904Y-23429761D01*
X10973809Y-23467857D01*
X10897619Y-23505952D01*
X10592857Y-23505952D01*
X11697619Y-23848809D02*
X11621428Y-23886904D01*
X11469047Y-23886904D01*
X11392857Y-23848809D01*
X11354761Y-23772619D01*
X11354761Y-23467857D01*
X11392857Y-23391666D01*
X11469047Y-23353571D01*
X11621428Y-23353571D01*
X11697619Y-23391666D01*
X11735714Y-23467857D01*
X11735714Y-23544047D01*
X11354761Y-23620238D01*
X12002380Y-23353571D02*
X12192857Y-23886904D01*
X12383333Y-23353571D01*
X13450000Y-23086904D02*
X13526190Y-23086904D01*
X13602380Y-23125000D01*
X13640476Y-23163095D01*
X13678571Y-23239285D01*
X13716666Y-23391666D01*
X13716666Y-23582142D01*
X13678571Y-23734523D01*
X13640476Y-23810714D01*
X13602380Y-23848809D01*
X13526190Y-23886904D01*
X13450000Y-23886904D01*
X13373809Y-23848809D01*
X13335714Y-23810714D01*
X13297619Y-23734523D01*
X13259523Y-23582142D01*
X13259523Y-23391666D01*
X13297619Y-23239285D01*
X13335714Y-23163095D01*
X13373809Y-23125000D01*
X13450000Y-23086904D01*
X13983333Y-23086904D02*
X14478571Y-23086904D01*
X14211904Y-23391666D01*
X14326190Y-23391666D01*
X14402380Y-23429761D01*
X14440476Y-23467857D01*
X14478571Y-23544047D01*
X14478571Y-23734523D01*
X14440476Y-23810714D01*
X14402380Y-23848809D01*
X14326190Y-23886904D01*
X14097619Y-23886904D01*
X14021428Y-23848809D01*
X13983333Y-23810714D01*
X14783333Y-23163095D02*
X14821428Y-23125000D01*
X14897619Y-23086904D01*
X15088095Y-23086904D01*
X15164285Y-23125000D01*
X15202380Y-23163095D01*
X15240476Y-23239285D01*
X15240476Y-23315476D01*
X15202380Y-23429761D01*
X14745238Y-23886904D01*
X15240476Y-23886904D01*
X16002380Y-23886904D02*
X15545238Y-23886904D01*
X15773809Y-23886904D02*
X15773809Y-23086904D01*
X15697619Y-23201190D01*
X15621428Y-23277380D01*
X15545238Y-23315476D01*
X16497619Y-23086904D02*
X16573809Y-23086904D01*
X16650000Y-23125000D01*
X16688095Y-23163095D01*
X16726190Y-23239285D01*
X16764285Y-23391666D01*
X16764285Y-23582142D01*
X16726190Y-23734523D01*
X16688095Y-23810714D01*
X16650000Y-23848809D01*
X16573809Y-23886904D01*
X16497619Y-23886904D01*
X16421428Y-23848809D01*
X16383333Y-23810714D01*
X16345238Y-23734523D01*
X16307142Y-23582142D01*
X16307142Y-23391666D01*
X16345238Y-23239285D01*
X16383333Y-23163095D01*
X16421428Y-23125000D01*
X16497619Y-23086904D01*
X17221428Y-23429761D02*
X17145238Y-23391666D01*
X17107142Y-23353571D01*
X17069047Y-23277380D01*
X17069047Y-23239285D01*
X17107142Y-23163095D01*
X17145238Y-23125000D01*
X17221428Y-23086904D01*
X17373809Y-23086904D01*
X17450000Y-23125000D01*
X17488095Y-23163095D01*
X17526190Y-23239285D01*
X17526190Y-23277380D01*
X17488095Y-23353571D01*
X17450000Y-23391666D01*
X17373809Y-23429761D01*
X17221428Y-23429761D01*
X17145238Y-23467857D01*
X17107142Y-23505952D01*
X17069047Y-23582142D01*
X17069047Y-23734523D01*
X17107142Y-23810714D01*
X17145238Y-23848809D01*
X17221428Y-23886904D01*
X17373809Y-23886904D01*
X17450000Y-23848809D01*
X17488095Y-23810714D01*
X17526190Y-23734523D01*
X17526190Y-23582142D01*
X17488095Y-23505952D01*
X17450000Y-23467857D01*
X17373809Y-23429761D01*
D11*
G04 #@! TO.C,J6*
X8195000Y-8950000D02*
X13395000Y-8950000D01*
X8195000Y-3810000D02*
X8195000Y-8950000D01*
X13395000Y-1210000D02*
X13395000Y-8950000D01*
X8195000Y-3810000D02*
X10795000Y-3810000D01*
X10795000Y-3810000D02*
X10795000Y-1210000D01*
X10795000Y-1210000D02*
X13395000Y-1210000D01*
X8195000Y-2540000D02*
X8195000Y-1210000D01*
X8195000Y-1210000D02*
X9525000Y-1210000D01*
G04 #@! TO.C,C11*
X23395000Y-6955000D02*
X23395000Y-2015000D01*
X26135000Y-6955000D02*
X26135000Y-2015000D01*
X23395000Y-6955000D02*
X23710000Y-6955000D01*
X25820000Y-6955000D02*
X26135000Y-6955000D01*
X23395000Y-2015000D02*
X23710000Y-2015000D01*
X25820000Y-2015000D02*
X26135000Y-2015000D01*
G04 #@! TO.C,C10*
X20290000Y-3910000D02*
X15350000Y-3910000D01*
X20290000Y-1170000D02*
X15350000Y-1170000D01*
X20290000Y-3910000D02*
X20290000Y-3595000D01*
X20290000Y-1485000D02*
X20290000Y-1170000D01*
X15350000Y-3910000D02*
X15350000Y-3595000D01*
X15350000Y-1485000D02*
X15350000Y-1170000D01*
D12*
G04 #@! TO.C,G\u002A\u002A\u002A*
G36*
X18168089Y-85496229D02*
G01*
X18183741Y-85617829D01*
X18181837Y-85821949D01*
X18181052Y-85927181D01*
X18174100Y-86216033D01*
X18151688Y-86386612D01*
X18111483Y-86453681D01*
X18097500Y-86455971D01*
X18006195Y-86418371D01*
X17837628Y-86322277D01*
X17623766Y-86186273D01*
X17559907Y-86143426D01*
X17105867Y-85835174D01*
X17493065Y-85674704D01*
X17797368Y-85546385D01*
X17996744Y-85468522D01*
X18113037Y-85449132D01*
X18168089Y-85496229D01*
G37*
X18168089Y-85496229D02*
X18183741Y-85617829D01*
X18181837Y-85821949D01*
X18181052Y-85927181D01*
X18174100Y-86216033D01*
X18151688Y-86386612D01*
X18111483Y-86453681D01*
X18097500Y-86455971D01*
X18006195Y-86418371D01*
X17837628Y-86322277D01*
X17623766Y-86186273D01*
X17559907Y-86143426D01*
X17105867Y-85835174D01*
X17493065Y-85674704D01*
X17797368Y-85546385D01*
X17996744Y-85468522D01*
X18113037Y-85449132D01*
X18168089Y-85496229D01*
G36*
X14947294Y-85565838D02*
G01*
X15179355Y-85650666D01*
X15226297Y-85669997D01*
X15451716Y-85771489D01*
X15616523Y-85859463D01*
X15692519Y-85918415D01*
X15694192Y-85927244D01*
X15636342Y-85985770D01*
X15502196Y-86096610D01*
X15323839Y-86235540D01*
X15133356Y-86378341D01*
X14962832Y-86500791D01*
X14844350Y-86578670D01*
X14811041Y-86593947D01*
X14792104Y-86532774D01*
X14767203Y-86371047D01*
X14741214Y-86141456D01*
X14737035Y-86097978D01*
X14717508Y-85848432D01*
X14709029Y-85649343D01*
X14713140Y-85539507D01*
X14714621Y-85533973D01*
X14783675Y-85524626D01*
X14947294Y-85565838D01*
G37*
X14947294Y-85565838D02*
X15179355Y-85650666D01*
X15226297Y-85669997D01*
X15451716Y-85771489D01*
X15616523Y-85859463D01*
X15692519Y-85918415D01*
X15694192Y-85927244D01*
X15636342Y-85985770D01*
X15502196Y-86096610D01*
X15323839Y-86235540D01*
X15133356Y-86378341D01*
X14962832Y-86500791D01*
X14844350Y-86578670D01*
X14811041Y-86593947D01*
X14792104Y-86532774D01*
X14767203Y-86371047D01*
X14741214Y-86141456D01*
X14737035Y-86097978D01*
X14717508Y-85848432D01*
X14709029Y-85649343D01*
X14713140Y-85539507D01*
X14714621Y-85533973D01*
X14783675Y-85524626D01*
X14947294Y-85565838D01*
G36*
X16966975Y-85975533D02*
G01*
X17354529Y-86124561D01*
X17701874Y-86387268D01*
X17735458Y-86420178D01*
X17974055Y-86697088D01*
X18124725Y-86980374D01*
X18207509Y-87316590D01*
X18233932Y-87578159D01*
X18244654Y-87853677D01*
X18226742Y-88055634D01*
X18169670Y-88242923D01*
X18079921Y-88439864D01*
X17894587Y-88818673D01*
X18164200Y-89042629D01*
X18513462Y-89413667D01*
X18787837Y-89870043D01*
X18971494Y-90377167D01*
X19048602Y-90900445D01*
X19050000Y-90978282D01*
X18989094Y-91506320D01*
X18816737Y-92004219D01*
X18548466Y-92455702D01*
X18199822Y-92844491D01*
X17786342Y-93154310D01*
X17323566Y-93368880D01*
X16827032Y-93471923D01*
X16663071Y-93478684D01*
X16475332Y-93488029D01*
X16369696Y-93537592D01*
X16294815Y-93659664D01*
X16264853Y-93729124D01*
X16181088Y-94097435D01*
X16211622Y-94507429D01*
X16351393Y-94940591D01*
X16595336Y-95378404D01*
X16784598Y-95629623D01*
X16953260Y-95850034D01*
X17030470Y-96006237D01*
X17024114Y-96123485D01*
X16964526Y-96205842D01*
X16834072Y-96279092D01*
X16683517Y-96245022D01*
X16498972Y-96098000D01*
X16379337Y-95968553D01*
X16029002Y-95482667D01*
X15796051Y-94975772D01*
X15687200Y-94463744D01*
X15679776Y-94314211D01*
X15684742Y-94042845D01*
X15702931Y-93795606D01*
X15727845Y-93638508D01*
X15750402Y-93523381D01*
X15729438Y-93443134D01*
X15641350Y-93369707D01*
X15462535Y-93275041D01*
X15393634Y-93241221D01*
X14960674Y-92964047D01*
X14571572Y-92589867D01*
X14262301Y-92155126D01*
X14194123Y-92025895D01*
X14105392Y-91829189D01*
X14049836Y-91653821D01*
X14019911Y-91457432D01*
X14008077Y-91197661D01*
X14006513Y-90972105D01*
X14010439Y-90648856D01*
X14027416Y-90416295D01*
X14065242Y-90231526D01*
X14131716Y-90051658D01*
X14200954Y-89902632D01*
X14366006Y-89624538D01*
X14586785Y-89332723D01*
X14754765Y-89149758D01*
X15114137Y-88797937D01*
X14985820Y-88615021D01*
X14792922Y-88225417D01*
X14716035Y-87778652D01*
X14722869Y-87531863D01*
X14827282Y-87058612D01*
X15040150Y-86651640D01*
X15347542Y-86323451D01*
X15735521Y-86086544D01*
X16190156Y-85953421D01*
X16510000Y-85928462D01*
X16966975Y-85975533D01*
G37*
X16966975Y-85975533D02*
X17354529Y-86124561D01*
X17701874Y-86387268D01*
X17735458Y-86420178D01*
X17974055Y-86697088D01*
X18124725Y-86980374D01*
X18207509Y-87316590D01*
X18233932Y-87578159D01*
X18244654Y-87853677D01*
X18226742Y-88055634D01*
X18169670Y-88242923D01*
X18079921Y-88439864D01*
X17894587Y-88818673D01*
X18164200Y-89042629D01*
X18513462Y-89413667D01*
X18787837Y-89870043D01*
X18971494Y-90377167D01*
X19048602Y-90900445D01*
X19050000Y-90978282D01*
X18989094Y-91506320D01*
X18816737Y-92004219D01*
X18548466Y-92455702D01*
X18199822Y-92844491D01*
X17786342Y-93154310D01*
X17323566Y-93368880D01*
X16827032Y-93471923D01*
X16663071Y-93478684D01*
X16475332Y-93488029D01*
X16369696Y-93537592D01*
X16294815Y-93659664D01*
X16264853Y-93729124D01*
X16181088Y-94097435D01*
X16211622Y-94507429D01*
X16351393Y-94940591D01*
X16595336Y-95378404D01*
X16784598Y-95629623D01*
X16953260Y-95850034D01*
X17030470Y-96006237D01*
X17024114Y-96123485D01*
X16964526Y-96205842D01*
X16834072Y-96279092D01*
X16683517Y-96245022D01*
X16498972Y-96098000D01*
X16379337Y-95968553D01*
X16029002Y-95482667D01*
X15796051Y-94975772D01*
X15687200Y-94463744D01*
X15679776Y-94314211D01*
X15684742Y-94042845D01*
X15702931Y-93795606D01*
X15727845Y-93638508D01*
X15750402Y-93523381D01*
X15729438Y-93443134D01*
X15641350Y-93369707D01*
X15462535Y-93275041D01*
X15393634Y-93241221D01*
X14960674Y-92964047D01*
X14571572Y-92589867D01*
X14262301Y-92155126D01*
X14194123Y-92025895D01*
X14105392Y-91829189D01*
X14049836Y-91653821D01*
X14019911Y-91457432D01*
X14008077Y-91197661D01*
X14006513Y-90972105D01*
X14010439Y-90648856D01*
X14027416Y-90416295D01*
X14065242Y-90231526D01*
X14131716Y-90051658D01*
X14200954Y-89902632D01*
X14366006Y-89624538D01*
X14586785Y-89332723D01*
X14754765Y-89149758D01*
X15114137Y-88797937D01*
X14985820Y-88615021D01*
X14792922Y-88225417D01*
X14716035Y-87778652D01*
X14722869Y-87531863D01*
X14827282Y-87058612D01*
X15040150Y-86651640D01*
X15347542Y-86323451D01*
X15735521Y-86086544D01*
X16190156Y-85953421D01*
X16510000Y-85928462D01*
X16966975Y-85975533D01*
D11*
G04 #@! TO.C,R16*
X9625000Y-67945000D02*
G75*
G03*
X9625000Y-67945000I-1370000J0D01*
G01*
X9625000Y-67945000D02*
X9695000Y-67945000D01*
G04 #@! TO.C,T1*
X4505000Y-41180000D02*
X5195000Y-41180000D01*
X4505000Y-41280000D02*
X4505000Y-41180000D01*
X4505000Y-47800000D02*
X4755000Y-47800000D01*
X4505000Y-47700000D02*
X4505000Y-47800000D01*
X4305000Y-47700000D02*
X4505000Y-47700000D01*
X4505000Y-46280000D02*
X4305000Y-46280000D01*
X11525000Y-42490000D02*
X11525000Y-43980000D01*
X6235000Y-41180000D02*
X10215000Y-41180000D01*
X10215000Y-47800000D02*
X6675000Y-47800000D01*
X11525000Y-45000000D02*
X11525000Y-46490000D01*
X4305000Y-41280000D02*
X4505000Y-41280000D01*
X4305000Y-42700000D02*
X4305000Y-41280000D01*
X4505000Y-42700000D02*
X4305000Y-42700000D01*
X4505000Y-46280000D02*
X4505000Y-42700000D01*
X4305000Y-47700000D02*
X4305000Y-46280000D01*
X11525000Y-46490000D02*
G75*
G02*
X10215000Y-47800000I-1310000J0D01*
G01*
X10215000Y-41180000D02*
G75*
G02*
X11525000Y-42490000I0J-1310000D01*
G01*
G04 #@! TO.C,RV1*
X7250000Y-16895000D02*
X-40000Y-16895000D01*
X7250000Y-7155000D02*
X-40000Y-7155000D01*
X7250000Y-16895000D02*
X7250000Y-7155000D01*
X-40000Y-16895000D02*
X-40000Y-7155000D01*
X-40000Y-15645000D02*
X-5040000Y-15645000D01*
X-40000Y-8405000D02*
X-5040000Y-8405000D01*
X-40000Y-15645000D02*
X-40000Y-8405000D01*
X-5040000Y-15645000D02*
X-5040000Y-8405000D01*
X-5040000Y-15145000D02*
X-15040000Y-15145000D01*
X-5040000Y-8905000D02*
X-15040000Y-8905000D01*
X-5040000Y-15145000D02*
X-5040000Y-8905000D01*
X-15040000Y-15145000D02*
X-15040000Y-8905000D01*
D10*
G04 #@! TO.C,J4*
X0Y-58630000D02*
X0Y-59630000D01*
X0Y-58630000D02*
X1000000Y-58630000D01*
X0Y-64830000D02*
X0Y-65830000D01*
X0Y-65830000D02*
X1000000Y-65830000D01*
X13000000Y-58630000D02*
X14000000Y-58630000D01*
X14000000Y-58630000D02*
X14000000Y-59630000D01*
X13000000Y-65830000D02*
X14000000Y-65830000D01*
X14000000Y-64830000D02*
X14000000Y-65830000D01*
G04 #@! TO.C,J3*
X0Y-70060000D02*
X0Y-71060000D01*
X0Y-70060000D02*
X1000000Y-70060000D01*
X0Y-76260000D02*
X0Y-77260000D01*
X0Y-77260000D02*
X1000000Y-77260000D01*
X13000000Y-70060000D02*
X14000000Y-70060000D01*
X14000000Y-70060000D02*
X14000000Y-71060000D01*
X13000000Y-77260000D02*
X14000000Y-77260000D01*
X14000000Y-76260000D02*
X14000000Y-77260000D01*
G04 #@! TO.C,J2*
X0Y-81490000D02*
X0Y-82490000D01*
X0Y-81490000D02*
X1000000Y-81490000D01*
X0Y-87690000D02*
X0Y-88690000D01*
X0Y-88690000D02*
X1000000Y-88690000D01*
X13000000Y-81490000D02*
X14000000Y-81490000D01*
X14000000Y-81490000D02*
X14000000Y-82490000D01*
X13000000Y-88690000D02*
X14000000Y-88690000D01*
X14000000Y-87690000D02*
X14000000Y-88690000D01*
G04 #@! TO.C,J1*
X0Y-92920000D02*
X0Y-93920000D01*
X0Y-92920000D02*
X1000000Y-92920000D01*
X0Y-99120000D02*
X0Y-100120000D01*
X0Y-100120000D02*
X1000000Y-100120000D01*
X13000000Y-92920000D02*
X14000000Y-92920000D01*
X14000000Y-92920000D02*
X14000000Y-93920000D01*
X13000000Y-100120000D02*
X14000000Y-100120000D01*
X14000000Y-99120000D02*
X14000000Y-100120000D01*
D11*
G04 #@! TO.C,U3*
X18685000Y-52645000D02*
X17435000Y-52645000D01*
X17435000Y-52645000D02*
X17435000Y-62925000D01*
X17435000Y-62925000D02*
X21935000Y-62925000D01*
X21935000Y-62925000D02*
X21935000Y-52645000D01*
X21935000Y-52645000D02*
X20685000Y-52645000D01*
X20685000Y-52645000D02*
G75*
G02*
X18685000Y-52645000I-1000000J0D01*
G01*
G04 #@! TO.C,U2*
X18050000Y-35500000D02*
X16800000Y-35500000D01*
X16800000Y-35500000D02*
X16800000Y-45780000D01*
X16800000Y-45780000D02*
X21300000Y-45780000D01*
X21300000Y-45780000D02*
X21300000Y-35500000D01*
X21300000Y-35500000D02*
X20050000Y-35500000D01*
X20050000Y-35500000D02*
G75*
G02*
X18050000Y-35500000I-1000000J0D01*
G01*
G04 #@! TO.C,U1*
X18050000Y-8195000D02*
X16800000Y-8195000D01*
X16800000Y-8195000D02*
X16800000Y-18475000D01*
X16800000Y-18475000D02*
X21300000Y-18475000D01*
X21300000Y-18475000D02*
X21300000Y-8195000D01*
X21300000Y-8195000D02*
X20050000Y-8195000D01*
X20050000Y-8195000D02*
G75*
G02*
X18050000Y-8195000I-1000000J0D01*
G01*
G04 #@! TO.C,R18*
X26770000Y-67945000D02*
G75*
G03*
X26770000Y-67945000I-1370000J0D01*
G01*
X25400000Y-66575000D02*
X25400000Y-66505000D01*
G04 #@! TO.C,R17*
X14070000Y-56515000D02*
G75*
G03*
X14070000Y-56515000I-1370000J0D01*
G01*
X12700000Y-55145000D02*
X12700000Y-55075000D01*
G04 #@! TO.C,R15*
X9625000Y-79375000D02*
G75*
G03*
X9625000Y-79375000I-1370000J0D01*
G01*
X9625000Y-79375000D02*
X9695000Y-79375000D01*
G04 #@! TO.C,R14*
X23595000Y-30480000D02*
G75*
G03*
X23595000Y-30480000I-1370000J0D01*
G01*
X22225000Y-29110000D02*
X22225000Y-29040000D01*
G04 #@! TO.C,R13*
X17245000Y-27940000D02*
G75*
G03*
X17245000Y-27940000I-1370000J0D01*
G01*
X15875000Y-29310000D02*
X15875000Y-29380000D01*
G04 #@! TO.C,R12*
X9625000Y-90805000D02*
G75*
G03*
X9625000Y-90805000I-1370000J0D01*
G01*
X9625000Y-90805000D02*
X9695000Y-90805000D01*
G04 #@! TO.C,R11*
X14070000Y-30480000D02*
G75*
G03*
X14070000Y-30480000I-1370000J0D01*
G01*
X12700000Y-29110000D02*
X12700000Y-29040000D01*
G04 #@! TO.C,R10*
X7720000Y-30480000D02*
G75*
G03*
X7720000Y-30480000I-1370000J0D01*
G01*
X6350000Y-29110000D02*
X6350000Y-29040000D01*
G04 #@! TO.C,R9*
X10895000Y-27940000D02*
G75*
G03*
X10895000Y-27940000I-1370000J0D01*
G01*
X9525000Y-29310000D02*
X9525000Y-29380000D01*
G04 #@! TO.C,R8*
X4545000Y-30480000D02*
G75*
G03*
X4545000Y-30480000I-1370000J0D01*
G01*
X3175000Y-29110000D02*
X3175000Y-29040000D01*
G04 #@! TO.C,R7*
X4545000Y-49530000D02*
G75*
G03*
X4545000Y-49530000I-1370000J0D01*
G01*
X4545000Y-49530000D02*
X4615000Y-49530000D01*
G04 #@! TO.C,R6*
X7085000Y-39370000D02*
G75*
G03*
X7085000Y-39370000I-1370000J0D01*
G01*
X4345000Y-39370000D02*
X4275000Y-39370000D01*
G04 #@! TO.C,R5*
X27405000Y-19685000D02*
G75*
G03*
X27405000Y-19685000I-1370000J0D01*
G01*
X26035000Y-18315000D02*
X26035000Y-18245000D01*
G04 #@! TO.C,R4*
X27405000Y-13970000D02*
G75*
G03*
X27405000Y-13970000I-1370000J0D01*
G01*
X26035000Y-12600000D02*
X26035000Y-12530000D01*
G04 #@! TO.C,R3*
X10260000Y-18415000D02*
G75*
G03*
X10260000Y-18415000I-1370000J0D01*
G01*
X10260000Y-18415000D02*
X10330000Y-18415000D01*
G04 #@! TO.C,R2*
X12800000Y-12065000D02*
G75*
G03*
X12800000Y-12065000I-1370000J0D01*
G01*
X10060000Y-12065000D02*
X9990000Y-12065000D01*
G04 #@! TO.C,R1*
X12800000Y-15240000D02*
G75*
G03*
X12800000Y-15240000I-1370000J0D01*
G01*
X10060000Y-15240000D02*
X9990000Y-15240000D01*
G04 #@! TO.C,D4*
X18980000Y-83365000D02*
X18850000Y-83365000D01*
X18850000Y-83365000D02*
X18850000Y-77925000D01*
X18850000Y-77925000D02*
X18980000Y-77925000D01*
X21660000Y-83365000D02*
X21790000Y-83365000D01*
X21790000Y-83365000D02*
X21790000Y-77925000D01*
X21790000Y-77925000D02*
X21660000Y-77925000D01*
X18850000Y-82465000D02*
X21790000Y-82465000D01*
X18850000Y-82345000D02*
X21790000Y-82345000D01*
X18850000Y-82585000D02*
X21790000Y-82585000D01*
G04 #@! TO.C,D3*
X26740000Y-77925000D02*
X26870000Y-77925000D01*
X26870000Y-77925000D02*
X26870000Y-83365000D01*
X26870000Y-83365000D02*
X26740000Y-83365000D01*
X24060000Y-77925000D02*
X23930000Y-77925000D01*
X23930000Y-77925000D02*
X23930000Y-83365000D01*
X23930000Y-83365000D02*
X24060000Y-83365000D01*
X26870000Y-78825000D02*
X23930000Y-78825000D01*
X26870000Y-78945000D02*
X23930000Y-78945000D01*
X26870000Y-78705000D02*
X23930000Y-78705000D01*
G04 #@! TO.C,C9*
X22195000Y-66140000D02*
X17255000Y-66140000D01*
X22195000Y-63400000D02*
X17255000Y-63400000D01*
X22195000Y-66140000D02*
X22195000Y-65825000D01*
X22195000Y-63715000D02*
X22195000Y-63400000D01*
X17255000Y-66140000D02*
X17255000Y-65825000D01*
X17255000Y-63715000D02*
X17255000Y-63400000D01*
G04 #@! TO.C,C8*
X22195000Y-52170000D02*
X17255000Y-52170000D01*
X22195000Y-49430000D02*
X17255000Y-49430000D01*
X22195000Y-52170000D02*
X22195000Y-51855000D01*
X22195000Y-49745000D02*
X22195000Y-49430000D01*
X17255000Y-52170000D02*
X17255000Y-51855000D01*
X17255000Y-49745000D02*
X17255000Y-49430000D01*
G04 #@! TO.C,C7*
X21560000Y-48995000D02*
X16620000Y-48995000D01*
X21560000Y-46255000D02*
X16620000Y-46255000D01*
X21560000Y-48995000D02*
X21560000Y-48680000D01*
X21560000Y-46570000D02*
X21560000Y-46255000D01*
X16620000Y-48995000D02*
X16620000Y-48680000D01*
X16620000Y-46570000D02*
X16620000Y-46255000D01*
G04 #@! TO.C,C6*
X21560000Y-7720000D02*
X16620000Y-7720000D01*
X21560000Y-4980000D02*
X16620000Y-4980000D01*
X21560000Y-7720000D02*
X21560000Y-7405000D01*
X21560000Y-5295000D02*
X21560000Y-4980000D01*
X16620000Y-7720000D02*
X16620000Y-7405000D01*
X16620000Y-5295000D02*
X16620000Y-4980000D01*
G04 #@! TO.C,C5*
X21560000Y-21690000D02*
X16620000Y-21690000D01*
X21560000Y-18950000D02*
X16620000Y-18950000D01*
X21560000Y-21690000D02*
X21560000Y-21375000D01*
X21560000Y-19265000D02*
X21560000Y-18950000D01*
X16620000Y-21690000D02*
X16620000Y-21375000D01*
X16620000Y-19265000D02*
X16620000Y-18950000D01*
G04 #@! TO.C,C4*
X21560000Y-35025000D02*
X16620000Y-35025000D01*
X21560000Y-32285000D02*
X16620000Y-32285000D01*
X21560000Y-35025000D02*
X21560000Y-34710000D01*
X21560000Y-32600000D02*
X21560000Y-32285000D01*
X16620000Y-35025000D02*
X16620000Y-34710000D01*
X16620000Y-32600000D02*
X16620000Y-32285000D01*
G04 #@! TO.C,C1*
X6320000Y-4545000D02*
X1380000Y-4545000D01*
X6320000Y-1805000D02*
X1380000Y-1805000D01*
X6320000Y-4545000D02*
X6320000Y-4230000D01*
X6320000Y-2120000D02*
X6320000Y-1805000D01*
X1380000Y-4545000D02*
X1380000Y-4230000D01*
X1380000Y-2120000D02*
X1380000Y-1805000D01*
G04 #@! TO.C,Q1*
X4500000Y-33125000D02*
X4500000Y-36725000D01*
X4511522Y-36763478D02*
G75*
G03*
X8950000Y-34925000I1838478J1838478D01*
G01*
X4511522Y-33086522D02*
G75*
G02*
X8950000Y-34925000I1838478J-1838478D01*
G01*
D10*
G04 #@! TO.C,J5*
G36*
X27940000Y-100330000D02*
G01*
X20320000Y-100330000D01*
X20320000Y-97790000D01*
X27940000Y-97790000D01*
X27940000Y-100330000D01*
G37*
X27940000Y-100330000D02*
X20320000Y-100330000D01*
X20320000Y-97790000D01*
X27940000Y-97790000D01*
X27940000Y-100330000D01*
D11*
X21530000Y-100390000D02*
X26730000Y-100390000D01*
G04 #@! TO.C,D2*
X1460000Y-52415000D02*
X1304000Y-52415000D01*
X3776000Y-52415000D02*
X3620000Y-52415000D01*
X1460163Y-55016130D02*
G75*
G02*
X1460000Y-52934039I1079837J1041130D01*
G01*
X3619837Y-55016130D02*
G75*
G03*
X3620000Y-52934039I-1079837J1041130D01*
G01*
X1461392Y-55647335D02*
G75*
G02*
X1304484Y-52415000I1078608J1672335D01*
G01*
X3618608Y-55647335D02*
G75*
G03*
X3775516Y-52415000I-1078608J1672335D01*
G01*
G04 #@! TO.C,D1*
X8065000Y-55535000D02*
X8221000Y-55535000D01*
X5749000Y-55535000D02*
X5905000Y-55535000D01*
X8064837Y-52933870D02*
G75*
G02*
X8065000Y-55015961I-1079837J-1041130D01*
G01*
X5905163Y-52933870D02*
G75*
G03*
X5905000Y-55015961I1079837J-1041130D01*
G01*
X8063608Y-52302665D02*
G75*
G02*
X8220516Y-55535000I-1078608J-1672335D01*
G01*
X5906392Y-52302665D02*
G75*
G03*
X5749484Y-55535000I1078608J-1672335D01*
G01*
G04 #@! TO.C,C3*
X21715000Y-70435199D02*
X21315000Y-70435199D01*
X21515000Y-70235199D02*
X21515000Y-70635199D01*
X20690000Y-74586000D02*
X19950000Y-74586000D01*
X20857000Y-74546000D02*
X19783000Y-74546000D01*
X20984000Y-74506000D02*
X19656000Y-74506000D01*
X21088000Y-74466000D02*
X19552000Y-74466000D01*
X21179000Y-74426000D02*
X19461000Y-74426000D01*
X21260000Y-74386000D02*
X19380000Y-74386000D01*
X21333000Y-74346000D02*
X19307000Y-74346000D01*
X21400000Y-74306000D02*
X19240000Y-74306000D01*
X21462000Y-74266000D02*
X19178000Y-74266000D01*
X21520000Y-74226000D02*
X19120000Y-74226000D01*
X21574000Y-74186000D02*
X19066000Y-74186000D01*
X21624000Y-74146000D02*
X19016000Y-74146000D01*
X21671000Y-74106000D02*
X18969000Y-74106000D01*
X19480000Y-74066000D02*
X18924000Y-74066000D01*
X21716000Y-74066000D02*
X21160000Y-74066000D01*
X19480000Y-74026000D02*
X18882000Y-74026000D01*
X21758000Y-74026000D02*
X21160000Y-74026000D01*
X19480000Y-73986000D02*
X18842000Y-73986000D01*
X21798000Y-73986000D02*
X21160000Y-73986000D01*
X19480000Y-73946000D02*
X18804000Y-73946000D01*
X21836000Y-73946000D02*
X21160000Y-73946000D01*
X19480000Y-73906000D02*
X18768000Y-73906000D01*
X21872000Y-73906000D02*
X21160000Y-73906000D01*
X19480000Y-73866000D02*
X18733000Y-73866000D01*
X21907000Y-73866000D02*
X21160000Y-73866000D01*
X19480000Y-73826000D02*
X18701000Y-73826000D01*
X21939000Y-73826000D02*
X21160000Y-73826000D01*
X19480000Y-73786000D02*
X18670000Y-73786000D01*
X21970000Y-73786000D02*
X21160000Y-73786000D01*
X19480000Y-73746000D02*
X18640000Y-73746000D01*
X22000000Y-73746000D02*
X21160000Y-73746000D01*
X19480000Y-73706000D02*
X18612000Y-73706000D01*
X22028000Y-73706000D02*
X21160000Y-73706000D01*
X19480000Y-73666000D02*
X18585000Y-73666000D01*
X22055000Y-73666000D02*
X21160000Y-73666000D01*
X19480000Y-73626000D02*
X18560000Y-73626000D01*
X22080000Y-73626000D02*
X21160000Y-73626000D01*
X19480000Y-73586000D02*
X18535000Y-73586000D01*
X22105000Y-73586000D02*
X21160000Y-73586000D01*
X19480000Y-73546000D02*
X18512000Y-73546000D01*
X22128000Y-73546000D02*
X21160000Y-73546000D01*
X19480000Y-73506000D02*
X18490000Y-73506000D01*
X22150000Y-73506000D02*
X21160000Y-73506000D01*
X19480000Y-73466000D02*
X18469000Y-73466000D01*
X22171000Y-73466000D02*
X21160000Y-73466000D01*
X19480000Y-73426000D02*
X18450000Y-73426000D01*
X22190000Y-73426000D02*
X21160000Y-73426000D01*
X19480000Y-73386000D02*
X18431000Y-73386000D01*
X22209000Y-73386000D02*
X21160000Y-73386000D01*
X19480000Y-73346000D02*
X18413000Y-73346000D01*
X22227000Y-73346000D02*
X21160000Y-73346000D01*
X19480000Y-73306000D02*
X18396000Y-73306000D01*
X22244000Y-73306000D02*
X21160000Y-73306000D01*
X19480000Y-73266000D02*
X18380000Y-73266000D01*
X22260000Y-73266000D02*
X21160000Y-73266000D01*
X19480000Y-73226000D02*
X18366000Y-73226000D01*
X22274000Y-73226000D02*
X21160000Y-73226000D01*
X19480000Y-73185000D02*
X18352000Y-73185000D01*
X22288000Y-73185000D02*
X21160000Y-73185000D01*
X19480000Y-73145000D02*
X18338000Y-73145000D01*
X22302000Y-73145000D02*
X21160000Y-73145000D01*
X19480000Y-73105000D02*
X18326000Y-73105000D01*
X22314000Y-73105000D02*
X21160000Y-73105000D01*
X19480000Y-73065000D02*
X18315000Y-73065000D01*
X22325000Y-73065000D02*
X21160000Y-73065000D01*
X19480000Y-73025000D02*
X18304000Y-73025000D01*
X22336000Y-73025000D02*
X21160000Y-73025000D01*
X19480000Y-72985000D02*
X18295000Y-72985000D01*
X22345000Y-72985000D02*
X21160000Y-72985000D01*
X19480000Y-72945000D02*
X18286000Y-72945000D01*
X22354000Y-72945000D02*
X21160000Y-72945000D01*
X19480000Y-72905000D02*
X18278000Y-72905000D01*
X22362000Y-72905000D02*
X21160000Y-72905000D01*
X19480000Y-72865000D02*
X18270000Y-72865000D01*
X22370000Y-72865000D02*
X21160000Y-72865000D01*
X19480000Y-72825000D02*
X18264000Y-72825000D01*
X22376000Y-72825000D02*
X21160000Y-72825000D01*
X19480000Y-72785000D02*
X18258000Y-72785000D01*
X22382000Y-72785000D02*
X21160000Y-72785000D01*
X19480000Y-72745000D02*
X18253000Y-72745000D01*
X22387000Y-72745000D02*
X21160000Y-72745000D01*
X19480000Y-72705000D02*
X18249000Y-72705000D01*
X22391000Y-72705000D02*
X21160000Y-72705000D01*
X19480000Y-72665000D02*
X18246000Y-72665000D01*
X22394000Y-72665000D02*
X21160000Y-72665000D01*
X19480000Y-72625000D02*
X18243000Y-72625000D01*
X22397000Y-72625000D02*
X21160000Y-72625000D01*
X22399000Y-72585000D02*
X21160000Y-72585000D01*
X19480000Y-72585000D02*
X18241000Y-72585000D01*
X22400000Y-72545000D02*
X21160000Y-72545000D01*
X19480000Y-72545000D02*
X18240000Y-72545000D01*
X22400000Y-72505000D02*
X21160000Y-72505000D01*
X19480000Y-72505000D02*
X18240000Y-72505000D01*
X22440000Y-72505000D02*
G75*
G03*
X22440000Y-72505000I-2120000J0D01*
G01*
G04 #@! TO.C,C2*
X24005000Y-74574801D02*
X24405000Y-74574801D01*
X24205000Y-74774801D02*
X24205000Y-74374801D01*
X25030000Y-70424000D02*
X25770000Y-70424000D01*
X24863000Y-70464000D02*
X25937000Y-70464000D01*
X24736000Y-70504000D02*
X26064000Y-70504000D01*
X24632000Y-70544000D02*
X26168000Y-70544000D01*
X24541000Y-70584000D02*
X26259000Y-70584000D01*
X24460000Y-70624000D02*
X26340000Y-70624000D01*
X24387000Y-70664000D02*
X26413000Y-70664000D01*
X24320000Y-70704000D02*
X26480000Y-70704000D01*
X24258000Y-70744000D02*
X26542000Y-70744000D01*
X24200000Y-70784000D02*
X26600000Y-70784000D01*
X24146000Y-70824000D02*
X26654000Y-70824000D01*
X24096000Y-70864000D02*
X26704000Y-70864000D01*
X24049000Y-70904000D02*
X26751000Y-70904000D01*
X26240000Y-70944000D02*
X26796000Y-70944000D01*
X24004000Y-70944000D02*
X24560000Y-70944000D01*
X26240000Y-70984000D02*
X26838000Y-70984000D01*
X23962000Y-70984000D02*
X24560000Y-70984000D01*
X26240000Y-71024000D02*
X26878000Y-71024000D01*
X23922000Y-71024000D02*
X24560000Y-71024000D01*
X26240000Y-71064000D02*
X26916000Y-71064000D01*
X23884000Y-71064000D02*
X24560000Y-71064000D01*
X26240000Y-71104000D02*
X26952000Y-71104000D01*
X23848000Y-71104000D02*
X24560000Y-71104000D01*
X26240000Y-71144000D02*
X26987000Y-71144000D01*
X23813000Y-71144000D02*
X24560000Y-71144000D01*
X26240000Y-71184000D02*
X27019000Y-71184000D01*
X23781000Y-71184000D02*
X24560000Y-71184000D01*
X26240000Y-71224000D02*
X27050000Y-71224000D01*
X23750000Y-71224000D02*
X24560000Y-71224000D01*
X26240000Y-71264000D02*
X27080000Y-71264000D01*
X23720000Y-71264000D02*
X24560000Y-71264000D01*
X26240000Y-71304000D02*
X27108000Y-71304000D01*
X23692000Y-71304000D02*
X24560000Y-71304000D01*
X26240000Y-71344000D02*
X27135000Y-71344000D01*
X23665000Y-71344000D02*
X24560000Y-71344000D01*
X26240000Y-71384000D02*
X27160000Y-71384000D01*
X23640000Y-71384000D02*
X24560000Y-71384000D01*
X26240000Y-71424000D02*
X27185000Y-71424000D01*
X23615000Y-71424000D02*
X24560000Y-71424000D01*
X26240000Y-71464000D02*
X27208000Y-71464000D01*
X23592000Y-71464000D02*
X24560000Y-71464000D01*
X26240000Y-71504000D02*
X27230000Y-71504000D01*
X23570000Y-71504000D02*
X24560000Y-71504000D01*
X26240000Y-71544000D02*
X27251000Y-71544000D01*
X23549000Y-71544000D02*
X24560000Y-71544000D01*
X26240000Y-71584000D02*
X27270000Y-71584000D01*
X23530000Y-71584000D02*
X24560000Y-71584000D01*
X26240000Y-71624000D02*
X27289000Y-71624000D01*
X23511000Y-71624000D02*
X24560000Y-71624000D01*
X26240000Y-71664000D02*
X27307000Y-71664000D01*
X23493000Y-71664000D02*
X24560000Y-71664000D01*
X26240000Y-71704000D02*
X27324000Y-71704000D01*
X23476000Y-71704000D02*
X24560000Y-71704000D01*
X26240000Y-71744000D02*
X27340000Y-71744000D01*
X23460000Y-71744000D02*
X24560000Y-71744000D01*
X26240000Y-71784000D02*
X27354000Y-71784000D01*
X23446000Y-71784000D02*
X24560000Y-71784000D01*
X26240000Y-71825000D02*
X27368000Y-71825000D01*
X23432000Y-71825000D02*
X24560000Y-71825000D01*
X26240000Y-71865000D02*
X27382000Y-71865000D01*
X23418000Y-71865000D02*
X24560000Y-71865000D01*
X26240000Y-71905000D02*
X27394000Y-71905000D01*
X23406000Y-71905000D02*
X24560000Y-71905000D01*
X26240000Y-71945000D02*
X27405000Y-71945000D01*
X23395000Y-71945000D02*
X24560000Y-71945000D01*
X26240000Y-71985000D02*
X27416000Y-71985000D01*
X23384000Y-71985000D02*
X24560000Y-71985000D01*
X26240000Y-72025000D02*
X27425000Y-72025000D01*
X23375000Y-72025000D02*
X24560000Y-72025000D01*
X26240000Y-72065000D02*
X27434000Y-72065000D01*
X23366000Y-72065000D02*
X24560000Y-72065000D01*
X26240000Y-72105000D02*
X27442000Y-72105000D01*
X23358000Y-72105000D02*
X24560000Y-72105000D01*
X26240000Y-72145000D02*
X27450000Y-72145000D01*
X23350000Y-72145000D02*
X24560000Y-72145000D01*
X26240000Y-72185000D02*
X27456000Y-72185000D01*
X23344000Y-72185000D02*
X24560000Y-72185000D01*
X26240000Y-72225000D02*
X27462000Y-72225000D01*
X23338000Y-72225000D02*
X24560000Y-72225000D01*
X26240000Y-72265000D02*
X27467000Y-72265000D01*
X23333000Y-72265000D02*
X24560000Y-72265000D01*
X26240000Y-72305000D02*
X27471000Y-72305000D01*
X23329000Y-72305000D02*
X24560000Y-72305000D01*
X26240000Y-72345000D02*
X27474000Y-72345000D01*
X23326000Y-72345000D02*
X24560000Y-72345000D01*
X26240000Y-72385000D02*
X27477000Y-72385000D01*
X23323000Y-72385000D02*
X24560000Y-72385000D01*
X23321000Y-72425000D02*
X24560000Y-72425000D01*
X26240000Y-72425000D02*
X27479000Y-72425000D01*
X23320000Y-72465000D02*
X24560000Y-72465000D01*
X26240000Y-72465000D02*
X27480000Y-72465000D01*
X23320000Y-72505000D02*
X24560000Y-72505000D01*
X26240000Y-72505000D02*
X27480000Y-72505000D01*
X27520000Y-72505000D02*
G75*
G03*
X27520000Y-72505000I-2120000J0D01*
G01*
G04 #@! TO.C,J6*
D10*
X4012142Y-6038809D02*
X4126428Y-6076904D01*
X4316904Y-6076904D01*
X4393095Y-6038809D01*
X4431190Y-6000714D01*
X4469285Y-5924523D01*
X4469285Y-5848333D01*
X4431190Y-5772142D01*
X4393095Y-5734047D01*
X4316904Y-5695952D01*
X4164523Y-5657857D01*
X4088333Y-5619761D01*
X4050238Y-5581666D01*
X4012142Y-5505476D01*
X4012142Y-5429285D01*
X4050238Y-5353095D01*
X4088333Y-5315000D01*
X4164523Y-5276904D01*
X4355000Y-5276904D01*
X4469285Y-5315000D01*
X5116904Y-6038809D02*
X5040714Y-6076904D01*
X4888333Y-6076904D01*
X4812142Y-6038809D01*
X4774047Y-5962619D01*
X4774047Y-5657857D01*
X4812142Y-5581666D01*
X4888333Y-5543571D01*
X5040714Y-5543571D01*
X5116904Y-5581666D01*
X5155000Y-5657857D01*
X5155000Y-5734047D01*
X4774047Y-5810238D01*
X5612142Y-6076904D02*
X5535952Y-6038809D01*
X5497857Y-5962619D01*
X5497857Y-5276904D01*
X6221666Y-6038809D02*
X6145476Y-6076904D01*
X5993095Y-6076904D01*
X5916904Y-6038809D01*
X5878809Y-5962619D01*
X5878809Y-5657857D01*
X5916904Y-5581666D01*
X5993095Y-5543571D01*
X6145476Y-5543571D01*
X6221666Y-5581666D01*
X6259761Y-5657857D01*
X6259761Y-5734047D01*
X5878809Y-5810238D01*
X6945476Y-6038809D02*
X6869285Y-6076904D01*
X6716904Y-6076904D01*
X6640714Y-6038809D01*
X6602619Y-6000714D01*
X6564523Y-5924523D01*
X6564523Y-5695952D01*
X6602619Y-5619761D01*
X6640714Y-5581666D01*
X6716904Y-5543571D01*
X6869285Y-5543571D01*
X6945476Y-5581666D01*
X7174047Y-5543571D02*
X7478809Y-5543571D01*
X7288333Y-5276904D02*
X7288333Y-5962619D01*
X7326428Y-6038809D01*
X7402619Y-6076904D01*
X7478809Y-6076904D01*
G04 #@! TO.C,C11*
X24403095Y-6006904D02*
X24365000Y-5968809D01*
X24326904Y-5892619D01*
X24326904Y-5702142D01*
X24365000Y-5625952D01*
X24403095Y-5587857D01*
X24479285Y-5549761D01*
X24555476Y-5549761D01*
X24669761Y-5587857D01*
X25126904Y-6045000D01*
X25126904Y-5549761D01*
X25050714Y-5206904D02*
X25088809Y-5168809D01*
X25126904Y-5206904D01*
X25088809Y-5245000D01*
X25050714Y-5206904D01*
X25126904Y-5206904D01*
X24403095Y-4864047D02*
X24365000Y-4825952D01*
X24326904Y-4749761D01*
X24326904Y-4559285D01*
X24365000Y-4483095D01*
X24403095Y-4445000D01*
X24479285Y-4406904D01*
X24555476Y-4406904D01*
X24669761Y-4445000D01*
X25126904Y-4902142D01*
X25126904Y-4406904D01*
X24593571Y-4064047D02*
X25393571Y-4064047D01*
X25012619Y-3683095D02*
X25088809Y-3645000D01*
X25126904Y-3568809D01*
X25012619Y-4064047D02*
X25088809Y-4025952D01*
X25126904Y-3949761D01*
X25126904Y-3797380D01*
X25088809Y-3721190D01*
X25012619Y-3683095D01*
X24593571Y-3683095D01*
X24707857Y-2959285D02*
X24707857Y-3225952D01*
X25126904Y-3225952D02*
X24326904Y-3225952D01*
X24326904Y-2845000D01*
G04 #@! TO.C,C10*
X16865714Y-2901904D02*
X16408571Y-2901904D01*
X16637142Y-2901904D02*
X16637142Y-2101904D01*
X16560952Y-2216190D01*
X16484761Y-2292380D01*
X16408571Y-2330476D01*
X17360952Y-2101904D02*
X17437142Y-2101904D01*
X17513333Y-2140000D01*
X17551428Y-2178095D01*
X17589523Y-2254285D01*
X17627619Y-2406666D01*
X17627619Y-2597142D01*
X17589523Y-2749523D01*
X17551428Y-2825714D01*
X17513333Y-2863809D01*
X17437142Y-2901904D01*
X17360952Y-2901904D01*
X17284761Y-2863809D01*
X17246666Y-2825714D01*
X17208571Y-2749523D01*
X17170476Y-2597142D01*
X17170476Y-2406666D01*
X17208571Y-2254285D01*
X17246666Y-2178095D01*
X17284761Y-2140000D01*
X17360952Y-2101904D01*
X17970476Y-2368571D02*
X17970476Y-3168571D01*
X18351428Y-2787619D02*
X18389523Y-2863809D01*
X18465714Y-2901904D01*
X17970476Y-2787619D02*
X18008571Y-2863809D01*
X18084761Y-2901904D01*
X18237142Y-2901904D01*
X18313333Y-2863809D01*
X18351428Y-2787619D01*
X18351428Y-2368571D01*
X19075238Y-2482857D02*
X18808571Y-2482857D01*
X18808571Y-2901904D02*
X18808571Y-2101904D01*
X19189523Y-2101904D01*
G04 #@! TO.C,R16*
D13*
X12926190Y-68004523D02*
X12926190Y-68290238D01*
X12926190Y-68147380D02*
X12426190Y-68147380D01*
X12497619Y-68195000D01*
X12545238Y-68242619D01*
X12569047Y-68290238D01*
X12926190Y-67790238D02*
X12426190Y-67790238D01*
X12735714Y-67742619D02*
X12926190Y-67599761D01*
X12592857Y-67599761D02*
X12783333Y-67790238D01*
G04 #@! TO.C,T1*
D10*
X8119761Y-44851904D02*
X7662619Y-44851904D01*
X7891190Y-44851904D02*
X7891190Y-44051904D01*
X7815000Y-44166190D01*
X7738809Y-44242380D01*
X7662619Y-44280476D01*
X8462619Y-44851904D02*
X8462619Y-44051904D01*
X8538809Y-44547142D02*
X8767380Y-44851904D01*
X8767380Y-44318571D02*
X8462619Y-44623333D01*
G04 #@! TO.C,RV1*
D14*
X3341666Y-14136428D02*
X3341666Y-13660238D01*
X3627380Y-14231666D02*
X2627380Y-13898333D01*
X3627380Y-13565000D01*
X3627380Y-12707857D02*
X3627380Y-13279285D01*
X3627380Y-12993571D02*
X2627380Y-12993571D01*
X2770238Y-13088809D01*
X2865476Y-13184047D01*
X2913095Y-13279285D01*
X2627380Y-12088809D02*
X2627380Y-11993571D01*
X2675000Y-11898333D01*
X2722619Y-11850714D01*
X2817857Y-11803095D01*
X3008333Y-11755476D01*
X3246428Y-11755476D01*
X3436904Y-11803095D01*
X3532142Y-11850714D01*
X3579761Y-11898333D01*
X3627380Y-11993571D01*
X3627380Y-12088809D01*
X3579761Y-12184047D01*
X3532142Y-12231666D01*
X3436904Y-12279285D01*
X3246428Y-12326904D01*
X3008333Y-12326904D01*
X2817857Y-12279285D01*
X2722619Y-12231666D01*
X2675000Y-12184047D01*
X2627380Y-12088809D01*
X2627380Y-11136428D02*
X2627380Y-11041190D01*
X2675000Y-10945952D01*
X2722619Y-10898333D01*
X2817857Y-10850714D01*
X3008333Y-10803095D01*
X3246428Y-10803095D01*
X3436904Y-10850714D01*
X3532142Y-10898333D01*
X3579761Y-10945952D01*
X3627380Y-11041190D01*
X3627380Y-11136428D01*
X3579761Y-11231666D01*
X3532142Y-11279285D01*
X3436904Y-11326904D01*
X3246428Y-11374523D01*
X3008333Y-11374523D01*
X2817857Y-11326904D01*
X2722619Y-11279285D01*
X2675000Y-11231666D01*
X2627380Y-11136428D01*
X3627380Y-10374523D02*
X2627380Y-10374523D01*
X3246428Y-10279285D02*
X3627380Y-9993571D01*
X2960714Y-9993571D02*
X3341666Y-10374523D01*
G04 #@! TO.C,J4*
D10*
X217380Y-58108809D02*
X331666Y-58146904D01*
X522142Y-58146904D01*
X598333Y-58108809D01*
X636428Y-58070714D01*
X674523Y-57994523D01*
X674523Y-57918333D01*
X636428Y-57842142D01*
X598333Y-57804047D01*
X522142Y-57765952D01*
X369761Y-57727857D01*
X293571Y-57689761D01*
X255476Y-57651666D01*
X217380Y-57575476D01*
X217380Y-57499285D01*
X255476Y-57423095D01*
X293571Y-57385000D01*
X369761Y-57346904D01*
X560238Y-57346904D01*
X674523Y-57385000D01*
X1550714Y-58223095D02*
X1474523Y-58185000D01*
X1398333Y-58108809D01*
X1284047Y-57994523D01*
X1207857Y-57956428D01*
X1131666Y-57956428D01*
X1169761Y-58146904D02*
X1093571Y-58108809D01*
X1017380Y-58032619D01*
X979285Y-57880238D01*
X979285Y-57613571D01*
X1017380Y-57461190D01*
X1093571Y-57385000D01*
X1169761Y-57346904D01*
X1322142Y-57346904D01*
X1398333Y-57385000D01*
X1474523Y-57461190D01*
X1512619Y-57613571D01*
X1512619Y-57880238D01*
X1474523Y-58032619D01*
X1398333Y-58108809D01*
X1322142Y-58146904D01*
X1169761Y-58146904D01*
X1855476Y-57346904D02*
X1855476Y-57994523D01*
X1893571Y-58070714D01*
X1931666Y-58108809D01*
X2007857Y-58146904D01*
X2160238Y-58146904D01*
X2236428Y-58108809D01*
X2274523Y-58070714D01*
X2312619Y-57994523D01*
X2312619Y-57346904D01*
X2655476Y-57918333D02*
X3036428Y-57918333D01*
X2579285Y-58146904D02*
X2845952Y-57346904D01*
X3112619Y-58146904D01*
X3836428Y-58146904D02*
X3569761Y-57765952D01*
X3379285Y-58146904D02*
X3379285Y-57346904D01*
X3684047Y-57346904D01*
X3760238Y-57385000D01*
X3798333Y-57423095D01*
X3836428Y-57499285D01*
X3836428Y-57613571D01*
X3798333Y-57689761D01*
X3760238Y-57727857D01*
X3684047Y-57765952D01*
X3379285Y-57765952D01*
X4179285Y-57727857D02*
X4445952Y-57727857D01*
X4560238Y-58146904D02*
X4179285Y-58146904D01*
X4179285Y-57346904D01*
X4560238Y-57346904D01*
G04 #@! TO.C,J3*
X141190Y-68776904D02*
X598333Y-68776904D01*
X369761Y-69576904D02*
X369761Y-68776904D01*
X1322142Y-69576904D02*
X1055476Y-69195952D01*
X864999Y-69576904D02*
X864999Y-68776904D01*
X1169761Y-68776904D01*
X1245952Y-68815000D01*
X1284047Y-68853095D01*
X1322142Y-68929285D01*
X1322142Y-69043571D01*
X1284047Y-69119761D01*
X1245952Y-69157857D01*
X1169761Y-69195952D01*
X864999Y-69195952D01*
X1664999Y-69576904D02*
X1664999Y-68776904D01*
X2007857Y-69348333D02*
X2388809Y-69348333D01*
X1931666Y-69576904D02*
X2198333Y-68776904D01*
X2465000Y-69576904D01*
X2731666Y-69576904D02*
X2731666Y-68776904D01*
X3188809Y-69576904D01*
X3188809Y-68776904D01*
X3988809Y-68815000D02*
X3912619Y-68776904D01*
X3798333Y-68776904D01*
X3684047Y-68815000D01*
X3607857Y-68891190D01*
X3569761Y-68967380D01*
X3531666Y-69119761D01*
X3531666Y-69234047D01*
X3569761Y-69386428D01*
X3607857Y-69462619D01*
X3684047Y-69538809D01*
X3798333Y-69576904D01*
X3874523Y-69576904D01*
X3988809Y-69538809D01*
X4026904Y-69500714D01*
X4026904Y-69234047D01*
X3874523Y-69234047D01*
X4750714Y-69576904D02*
X4369761Y-69576904D01*
X4369761Y-68776904D01*
X5017380Y-69157857D02*
X5284047Y-69157857D01*
X5398333Y-69576904D02*
X5017380Y-69576904D01*
X5017380Y-68776904D01*
X5398333Y-68776904D01*
G04 #@! TO.C,J2*
X217380Y-80968809D02*
X331666Y-81006904D01*
X522142Y-81006904D01*
X598333Y-80968809D01*
X636428Y-80930714D01*
X674523Y-80854523D01*
X674523Y-80778333D01*
X636428Y-80702142D01*
X598333Y-80664047D01*
X522142Y-80625952D01*
X369761Y-80587857D01*
X293571Y-80549761D01*
X255476Y-80511666D01*
X217380Y-80435476D01*
X217380Y-80359285D01*
X255476Y-80283095D01*
X293571Y-80245000D01*
X369761Y-80206904D01*
X560238Y-80206904D01*
X674523Y-80245000D01*
X979285Y-80778333D02*
X1360238Y-80778333D01*
X903095Y-81006904D02*
X1169761Y-80206904D01*
X1436428Y-81006904D01*
X1626904Y-80206904D02*
X1817380Y-81006904D01*
X1969761Y-80435476D01*
X2122142Y-81006904D01*
X2312619Y-80206904D01*
X2426904Y-81083095D02*
X3036428Y-81083095D01*
X3226904Y-81006904D02*
X3226904Y-80206904D01*
X3417380Y-80206904D01*
X3531666Y-80245000D01*
X3607857Y-80321190D01*
X3645952Y-80397380D01*
X3684047Y-80549761D01*
X3684047Y-80664047D01*
X3645952Y-80816428D01*
X3607857Y-80892619D01*
X3531666Y-80968809D01*
X3417380Y-81006904D01*
X3226904Y-81006904D01*
X4179285Y-80206904D02*
X4331666Y-80206904D01*
X4407857Y-80245000D01*
X4484047Y-80321190D01*
X4522142Y-80473571D01*
X4522142Y-80740238D01*
X4484047Y-80892619D01*
X4407857Y-80968809D01*
X4331666Y-81006904D01*
X4179285Y-81006904D01*
X4103095Y-80968809D01*
X4026904Y-80892619D01*
X3988809Y-80740238D01*
X3988809Y-80473571D01*
X4026904Y-80321190D01*
X4103095Y-80245000D01*
X4179285Y-80206904D01*
X4788809Y-80206904D02*
X4979285Y-81006904D01*
X5131666Y-80435476D01*
X5284047Y-81006904D01*
X5474523Y-80206904D01*
X5779285Y-81006904D02*
X5779285Y-80206904D01*
X6236428Y-81006904D01*
X6236428Y-80206904D01*
G04 #@! TO.C,J1*
X217380Y-92398809D02*
X331666Y-92436904D01*
X522142Y-92436904D01*
X598333Y-92398809D01*
X636428Y-92360714D01*
X674523Y-92284523D01*
X674523Y-92208333D01*
X636428Y-92132142D01*
X598333Y-92094047D01*
X522142Y-92055952D01*
X369761Y-92017857D01*
X293571Y-91979761D01*
X255476Y-91941666D01*
X217380Y-91865476D01*
X217380Y-91789285D01*
X255476Y-91713095D01*
X293571Y-91675000D01*
X369761Y-91636904D01*
X560238Y-91636904D01*
X674523Y-91675000D01*
X979285Y-92208333D02*
X1360238Y-92208333D01*
X903095Y-92436904D02*
X1169761Y-91636904D01*
X1436428Y-92436904D01*
X1626904Y-91636904D02*
X1817380Y-92436904D01*
X1969761Y-91865476D01*
X2122142Y-92436904D01*
X2312619Y-91636904D01*
X2426904Y-92513095D02*
X3036428Y-92513095D01*
X3226904Y-91636904D02*
X3226904Y-92284523D01*
X3264999Y-92360714D01*
X3303095Y-92398809D01*
X3379285Y-92436904D01*
X3531666Y-92436904D01*
X3607857Y-92398809D01*
X3645952Y-92360714D01*
X3684047Y-92284523D01*
X3684047Y-91636904D01*
X4064999Y-92436904D02*
X4064999Y-91636904D01*
X4369761Y-91636904D01*
X4445952Y-91675000D01*
X4484047Y-91713095D01*
X4522142Y-91789285D01*
X4522142Y-91903571D01*
X4484047Y-91979761D01*
X4445952Y-92017857D01*
X4369761Y-92055952D01*
X4064999Y-92055952D01*
G04 #@! TO.C,U3*
D14*
X19137380Y-59904047D02*
X19137380Y-59332619D01*
X20137380Y-59618333D02*
X19137380Y-59618333D01*
X20137380Y-58523095D02*
X20137380Y-58999285D01*
X19137380Y-58999285D01*
X19137380Y-57999285D02*
X19137380Y-57904047D01*
X19185000Y-57808809D01*
X19232619Y-57761190D01*
X19327857Y-57713571D01*
X19518333Y-57665952D01*
X19756428Y-57665952D01*
X19946904Y-57713571D01*
X20042142Y-57761190D01*
X20089761Y-57808809D01*
X20137380Y-57904047D01*
X20137380Y-57999285D01*
X20089761Y-58094523D01*
X20042142Y-58142142D01*
X19946904Y-58189761D01*
X19756428Y-58237380D01*
X19518333Y-58237380D01*
X19327857Y-58189761D01*
X19232619Y-58142142D01*
X19185000Y-58094523D01*
X19137380Y-57999285D01*
X19137380Y-57332619D02*
X19137380Y-56665952D01*
X20137380Y-57094523D01*
X19232619Y-56332619D02*
X19185000Y-56285000D01*
X19137380Y-56189761D01*
X19137380Y-55951666D01*
X19185000Y-55856428D01*
X19232619Y-55808809D01*
X19327857Y-55761190D01*
X19423095Y-55761190D01*
X19565952Y-55808809D01*
X20137380Y-56380238D01*
X20137380Y-55761190D01*
G04 #@! TO.C,U2*
X18502380Y-42759047D02*
X18502380Y-42187619D01*
X19502380Y-42473333D02*
X18502380Y-42473333D01*
X19502380Y-41378095D02*
X19502380Y-41854285D01*
X18502380Y-41854285D01*
X18502380Y-40854285D02*
X18502380Y-40759047D01*
X18550000Y-40663809D01*
X18597619Y-40616190D01*
X18692857Y-40568571D01*
X18883333Y-40520952D01*
X19121428Y-40520952D01*
X19311904Y-40568571D01*
X19407142Y-40616190D01*
X19454761Y-40663809D01*
X19502380Y-40759047D01*
X19502380Y-40854285D01*
X19454761Y-40949523D01*
X19407142Y-40997142D01*
X19311904Y-41044761D01*
X19121428Y-41092380D01*
X18883333Y-41092380D01*
X18692857Y-41044761D01*
X18597619Y-40997142D01*
X18550000Y-40949523D01*
X18502380Y-40854285D01*
X18502380Y-40187619D02*
X18502380Y-39520952D01*
X19502380Y-39949523D01*
X18597619Y-39187619D02*
X18550000Y-39140000D01*
X18502380Y-39044761D01*
X18502380Y-38806666D01*
X18550000Y-38711428D01*
X18597619Y-38663809D01*
X18692857Y-38616190D01*
X18788095Y-38616190D01*
X18930952Y-38663809D01*
X19502380Y-39235238D01*
X19502380Y-38616190D01*
G04 #@! TO.C,U1*
X18502380Y-15454047D02*
X18502380Y-14882619D01*
X19502380Y-15168333D02*
X18502380Y-15168333D01*
X19502380Y-14073095D02*
X19502380Y-14549285D01*
X18502380Y-14549285D01*
X18502380Y-13549285D02*
X18502380Y-13454047D01*
X18550000Y-13358809D01*
X18597619Y-13311190D01*
X18692857Y-13263571D01*
X18883333Y-13215952D01*
X19121428Y-13215952D01*
X19311904Y-13263571D01*
X19407142Y-13311190D01*
X19454761Y-13358809D01*
X19502380Y-13454047D01*
X19502380Y-13549285D01*
X19454761Y-13644523D01*
X19407142Y-13692142D01*
X19311904Y-13739761D01*
X19121428Y-13787380D01*
X18883333Y-13787380D01*
X18692857Y-13739761D01*
X18597619Y-13692142D01*
X18550000Y-13644523D01*
X18502380Y-13549285D01*
X18502380Y-12882619D02*
X18502380Y-12215952D01*
X19502380Y-12644523D01*
X18597619Y-11882619D02*
X18550000Y-11835000D01*
X18502380Y-11739761D01*
X18502380Y-11501666D01*
X18550000Y-11406428D01*
X18597619Y-11358809D01*
X18692857Y-11311190D01*
X18788095Y-11311190D01*
X18930952Y-11358809D01*
X19502380Y-11930238D01*
X19502380Y-11311190D01*
G04 #@! TO.C,R18*
D13*
X24816666Y-63273809D02*
X24840476Y-63250000D01*
X24888095Y-63226190D01*
X25007142Y-63226190D01*
X25054761Y-63250000D01*
X25078571Y-63273809D01*
X25102380Y-63321428D01*
X25102380Y-63369047D01*
X25078571Y-63440476D01*
X24792857Y-63726190D01*
X25102380Y-63726190D01*
X25316666Y-63726190D02*
X25316666Y-63226190D01*
X25364285Y-63535714D02*
X25507142Y-63726190D01*
X25507142Y-63392857D02*
X25316666Y-63583333D01*
X25673809Y-63226190D02*
X26007142Y-63226190D01*
X25792857Y-63726190D01*
G04 #@! TO.C,R17*
X12640476Y-52296190D02*
X12354761Y-52296190D01*
X12497619Y-52296190D02*
X12497619Y-51796190D01*
X12450000Y-51867619D01*
X12402380Y-51915238D01*
X12354761Y-51939047D01*
X12854761Y-52296190D02*
X12854761Y-51796190D01*
X12902380Y-52105714D02*
X13045238Y-52296190D01*
X13045238Y-51962857D02*
X12854761Y-52153333D01*
G04 #@! TO.C,R15*
X12926190Y-79434523D02*
X12926190Y-79720238D01*
X12926190Y-79577380D02*
X12426190Y-79577380D01*
X12497619Y-79625000D01*
X12545238Y-79672619D01*
X12569047Y-79720238D01*
X12926190Y-79220238D02*
X12426190Y-79220238D01*
X12735714Y-79172619D02*
X12926190Y-79029761D01*
X12592857Y-79029761D02*
X12783333Y-79220238D01*
G04 #@! TO.C,R14*
X21927380Y-26261190D02*
X21641666Y-26261190D01*
X21784523Y-26261190D02*
X21784523Y-25761190D01*
X21736904Y-25832619D01*
X21689285Y-25880238D01*
X21641666Y-25904047D01*
X22236904Y-25761190D02*
X22284523Y-25761190D01*
X22332142Y-25785000D01*
X22355952Y-25808809D01*
X22379761Y-25856428D01*
X22403571Y-25951666D01*
X22403571Y-26070714D01*
X22379761Y-26165952D01*
X22355952Y-26213571D01*
X22332142Y-26237380D01*
X22284523Y-26261190D01*
X22236904Y-26261190D01*
X22189285Y-26237380D01*
X22165476Y-26213571D01*
X22141666Y-26165952D01*
X22117857Y-26070714D01*
X22117857Y-25951666D01*
X22141666Y-25856428D01*
X22165476Y-25808809D01*
X22189285Y-25785000D01*
X22236904Y-25761190D01*
X22617857Y-26261190D02*
X22617857Y-25761190D01*
X22665476Y-26070714D02*
X22808333Y-26261190D01*
X22808333Y-25927857D02*
X22617857Y-26118333D01*
G04 #@! TO.C,R13*
X15577380Y-26261190D02*
X15291666Y-26261190D01*
X15434523Y-26261190D02*
X15434523Y-25761190D01*
X15386904Y-25832619D01*
X15339285Y-25880238D01*
X15291666Y-25904047D01*
X15886904Y-25761190D02*
X15934523Y-25761190D01*
X15982142Y-25785000D01*
X16005952Y-25808809D01*
X16029761Y-25856428D01*
X16053571Y-25951666D01*
X16053571Y-26070714D01*
X16029761Y-26165952D01*
X16005952Y-26213571D01*
X15982142Y-26237380D01*
X15934523Y-26261190D01*
X15886904Y-26261190D01*
X15839285Y-26237380D01*
X15815476Y-26213571D01*
X15791666Y-26165952D01*
X15767857Y-26070714D01*
X15767857Y-25951666D01*
X15791666Y-25856428D01*
X15815476Y-25808809D01*
X15839285Y-25785000D01*
X15886904Y-25761190D01*
X16267857Y-26261190D02*
X16267857Y-25761190D01*
X16315476Y-26070714D02*
X16458333Y-26261190D01*
X16458333Y-25927857D02*
X16267857Y-26118333D01*
G04 #@! TO.C,R12*
X12926190Y-90864523D02*
X12926190Y-91150238D01*
X12926190Y-91007380D02*
X12426190Y-91007380D01*
X12497619Y-91055000D01*
X12545238Y-91102619D01*
X12569047Y-91150238D01*
X12926190Y-90650238D02*
X12426190Y-90650238D01*
X12735714Y-90602619D02*
X12926190Y-90459761D01*
X12592857Y-90459761D02*
X12783333Y-90650238D01*
G04 #@! TO.C,R11*
X12164285Y-26261190D02*
X11878571Y-26261190D01*
X12021428Y-26261190D02*
X12021428Y-25761190D01*
X11973809Y-25832619D01*
X11926190Y-25880238D01*
X11878571Y-25904047D01*
X12473809Y-25761190D02*
X12521428Y-25761190D01*
X12569047Y-25785000D01*
X12592857Y-25808809D01*
X12616666Y-25856428D01*
X12640476Y-25951666D01*
X12640476Y-26070714D01*
X12616666Y-26165952D01*
X12592857Y-26213571D01*
X12569047Y-26237380D01*
X12521428Y-26261190D01*
X12473809Y-26261190D01*
X12426190Y-26237380D01*
X12402380Y-26213571D01*
X12378571Y-26165952D01*
X12354761Y-26070714D01*
X12354761Y-25951666D01*
X12378571Y-25856428D01*
X12402380Y-25808809D01*
X12426190Y-25785000D01*
X12473809Y-25761190D01*
X12950000Y-25761190D02*
X12997619Y-25761190D01*
X13045238Y-25785000D01*
X13069047Y-25808809D01*
X13092857Y-25856428D01*
X13116666Y-25951666D01*
X13116666Y-26070714D01*
X13092857Y-26165952D01*
X13069047Y-26213571D01*
X13045238Y-26237380D01*
X12997619Y-26261190D01*
X12950000Y-26261190D01*
X12902380Y-26237380D01*
X12878571Y-26213571D01*
X12854761Y-26165952D01*
X12830952Y-26070714D01*
X12830952Y-25951666D01*
X12854761Y-25856428D01*
X12878571Y-25808809D01*
X12902380Y-25785000D01*
X12950000Y-25761190D01*
X13330952Y-26261190D02*
X13330952Y-25761190D01*
X13378571Y-26070714D02*
X13521428Y-26261190D01*
X13521428Y-25927857D02*
X13330952Y-26118333D01*
G04 #@! TO.C,R10*
X5814285Y-26261190D02*
X5528571Y-26261190D01*
X5671428Y-26261190D02*
X5671428Y-25761190D01*
X5623809Y-25832619D01*
X5576190Y-25880238D01*
X5528571Y-25904047D01*
X6123809Y-25761190D02*
X6171428Y-25761190D01*
X6219047Y-25785000D01*
X6242857Y-25808809D01*
X6266666Y-25856428D01*
X6290476Y-25951666D01*
X6290476Y-26070714D01*
X6266666Y-26165952D01*
X6242857Y-26213571D01*
X6219047Y-26237380D01*
X6171428Y-26261190D01*
X6123809Y-26261190D01*
X6076190Y-26237380D01*
X6052380Y-26213571D01*
X6028571Y-26165952D01*
X6004761Y-26070714D01*
X6004761Y-25951666D01*
X6028571Y-25856428D01*
X6052380Y-25808809D01*
X6076190Y-25785000D01*
X6123809Y-25761190D01*
X6600000Y-25761190D02*
X6647619Y-25761190D01*
X6695238Y-25785000D01*
X6719047Y-25808809D01*
X6742857Y-25856428D01*
X6766666Y-25951666D01*
X6766666Y-26070714D01*
X6742857Y-26165952D01*
X6719047Y-26213571D01*
X6695238Y-26237380D01*
X6647619Y-26261190D01*
X6600000Y-26261190D01*
X6552380Y-26237380D01*
X6528571Y-26213571D01*
X6504761Y-26165952D01*
X6480952Y-26070714D01*
X6480952Y-25951666D01*
X6504761Y-25856428D01*
X6528571Y-25808809D01*
X6552380Y-25785000D01*
X6600000Y-25761190D01*
X6980952Y-26261190D02*
X6980952Y-25761190D01*
X7028571Y-26070714D02*
X7171428Y-26261190D01*
X7171428Y-25927857D02*
X6980952Y-26118333D01*
G04 #@! TO.C,R9*
X8989285Y-26261190D02*
X8703571Y-26261190D01*
X8846428Y-26261190D02*
X8846428Y-25761190D01*
X8798809Y-25832619D01*
X8751190Y-25880238D01*
X8703571Y-25904047D01*
X9298809Y-25761190D02*
X9346428Y-25761190D01*
X9394047Y-25785000D01*
X9417857Y-25808809D01*
X9441666Y-25856428D01*
X9465476Y-25951666D01*
X9465476Y-26070714D01*
X9441666Y-26165952D01*
X9417857Y-26213571D01*
X9394047Y-26237380D01*
X9346428Y-26261190D01*
X9298809Y-26261190D01*
X9251190Y-26237380D01*
X9227380Y-26213571D01*
X9203571Y-26165952D01*
X9179761Y-26070714D01*
X9179761Y-25951666D01*
X9203571Y-25856428D01*
X9227380Y-25808809D01*
X9251190Y-25785000D01*
X9298809Y-25761190D01*
X9775000Y-25761190D02*
X9822619Y-25761190D01*
X9870238Y-25785000D01*
X9894047Y-25808809D01*
X9917857Y-25856428D01*
X9941666Y-25951666D01*
X9941666Y-26070714D01*
X9917857Y-26165952D01*
X9894047Y-26213571D01*
X9870238Y-26237380D01*
X9822619Y-26261190D01*
X9775000Y-26261190D01*
X9727380Y-26237380D01*
X9703571Y-26213571D01*
X9679761Y-26165952D01*
X9655952Y-26070714D01*
X9655952Y-25951666D01*
X9679761Y-25856428D01*
X9703571Y-25808809D01*
X9727380Y-25785000D01*
X9775000Y-25761190D01*
X10155952Y-26261190D02*
X10155952Y-25761190D01*
X10203571Y-26070714D02*
X10346428Y-26261190D01*
X10346428Y-25927857D02*
X10155952Y-26118333D01*
G04 #@! TO.C,R8*
X2829761Y-25927857D02*
X2829761Y-26261190D01*
X2710714Y-25737380D02*
X2591666Y-26094523D01*
X2901190Y-26094523D01*
X3044047Y-25761190D02*
X3377380Y-25761190D01*
X3163095Y-26261190D01*
X3567857Y-26261190D02*
X3567857Y-25761190D01*
X3615476Y-26070714D02*
X3758333Y-26261190D01*
X3758333Y-25927857D02*
X3567857Y-26118333D01*
G04 #@! TO.C,R7*
X7393809Y-49875238D02*
X7370000Y-49851428D01*
X7346190Y-49803809D01*
X7346190Y-49684761D01*
X7370000Y-49637142D01*
X7393809Y-49613333D01*
X7441428Y-49589523D01*
X7489047Y-49589523D01*
X7560476Y-49613333D01*
X7846190Y-49899047D01*
X7846190Y-49589523D01*
X7846190Y-49375238D02*
X7346190Y-49375238D01*
X7655714Y-49327619D02*
X7846190Y-49184761D01*
X7512857Y-49184761D02*
X7703333Y-49375238D01*
G04 #@! TO.C,R6*
X7393809Y-39715238D02*
X7370000Y-39691428D01*
X7346190Y-39643809D01*
X7346190Y-39524761D01*
X7370000Y-39477142D01*
X7393809Y-39453333D01*
X7441428Y-39429523D01*
X7489047Y-39429523D01*
X7560476Y-39453333D01*
X7846190Y-39739047D01*
X7846190Y-39429523D01*
X7846190Y-39215238D02*
X7346190Y-39215238D01*
X7655714Y-39167619D02*
X7846190Y-39024761D01*
X7512857Y-39024761D02*
X7703333Y-39215238D01*
G04 #@! TO.C,R5*
X25499285Y-21816190D02*
X25213571Y-21816190D01*
X25356428Y-21816190D02*
X25356428Y-21316190D01*
X25308809Y-21387619D01*
X25261190Y-21435238D01*
X25213571Y-21459047D01*
X25808809Y-21316190D02*
X25856428Y-21316190D01*
X25904047Y-21340000D01*
X25927857Y-21363809D01*
X25951666Y-21411428D01*
X25975476Y-21506666D01*
X25975476Y-21625714D01*
X25951666Y-21720952D01*
X25927857Y-21768571D01*
X25904047Y-21792380D01*
X25856428Y-21816190D01*
X25808809Y-21816190D01*
X25761190Y-21792380D01*
X25737380Y-21768571D01*
X25713571Y-21720952D01*
X25689761Y-21625714D01*
X25689761Y-21506666D01*
X25713571Y-21411428D01*
X25737380Y-21363809D01*
X25761190Y-21340000D01*
X25808809Y-21316190D01*
X26285000Y-21316190D02*
X26332619Y-21316190D01*
X26380238Y-21340000D01*
X26404047Y-21363809D01*
X26427857Y-21411428D01*
X26451666Y-21506666D01*
X26451666Y-21625714D01*
X26427857Y-21720952D01*
X26404047Y-21768571D01*
X26380238Y-21792380D01*
X26332619Y-21816190D01*
X26285000Y-21816190D01*
X26237380Y-21792380D01*
X26213571Y-21768571D01*
X26189761Y-21720952D01*
X26165952Y-21625714D01*
X26165952Y-21506666D01*
X26189761Y-21411428D01*
X26213571Y-21363809D01*
X26237380Y-21340000D01*
X26285000Y-21316190D01*
X26665952Y-21816190D02*
X26665952Y-21316190D01*
X26713571Y-21625714D02*
X26856428Y-21816190D01*
X26856428Y-21482857D02*
X26665952Y-21673333D01*
G04 #@! TO.C,R4*
X25499285Y-16101190D02*
X25213571Y-16101190D01*
X25356428Y-16101190D02*
X25356428Y-15601190D01*
X25308809Y-15672619D01*
X25261190Y-15720238D01*
X25213571Y-15744047D01*
X25808809Y-15601190D02*
X25856428Y-15601190D01*
X25904047Y-15625000D01*
X25927857Y-15648809D01*
X25951666Y-15696428D01*
X25975476Y-15791666D01*
X25975476Y-15910714D01*
X25951666Y-16005952D01*
X25927857Y-16053571D01*
X25904047Y-16077380D01*
X25856428Y-16101190D01*
X25808809Y-16101190D01*
X25761190Y-16077380D01*
X25737380Y-16053571D01*
X25713571Y-16005952D01*
X25689761Y-15910714D01*
X25689761Y-15791666D01*
X25713571Y-15696428D01*
X25737380Y-15648809D01*
X25761190Y-15625000D01*
X25808809Y-15601190D01*
X26285000Y-15601190D02*
X26332619Y-15601190D01*
X26380238Y-15625000D01*
X26404047Y-15648809D01*
X26427857Y-15696428D01*
X26451666Y-15791666D01*
X26451666Y-15910714D01*
X26427857Y-16005952D01*
X26404047Y-16053571D01*
X26380238Y-16077380D01*
X26332619Y-16101190D01*
X26285000Y-16101190D01*
X26237380Y-16077380D01*
X26213571Y-16053571D01*
X26189761Y-16005952D01*
X26165952Y-15910714D01*
X26165952Y-15791666D01*
X26189761Y-15696428D01*
X26213571Y-15648809D01*
X26237380Y-15625000D01*
X26285000Y-15601190D01*
X26665952Y-16101190D02*
X26665952Y-15601190D01*
X26713571Y-15910714D02*
X26856428Y-16101190D01*
X26856428Y-15767857D02*
X26665952Y-15958333D01*
G04 #@! TO.C,R3*
X13061190Y-18760238D02*
X13061190Y-18855476D01*
X13085000Y-18903095D01*
X13108809Y-18926904D01*
X13180238Y-18974523D01*
X13275476Y-18998333D01*
X13465952Y-18998333D01*
X13513571Y-18974523D01*
X13537380Y-18950714D01*
X13561190Y-18903095D01*
X13561190Y-18807857D01*
X13537380Y-18760238D01*
X13513571Y-18736428D01*
X13465952Y-18712619D01*
X13346904Y-18712619D01*
X13299285Y-18736428D01*
X13275476Y-18760238D01*
X13251666Y-18807857D01*
X13251666Y-18903095D01*
X13275476Y-18950714D01*
X13299285Y-18974523D01*
X13346904Y-18998333D01*
X13275476Y-18426904D02*
X13251666Y-18474523D01*
X13227857Y-18498333D01*
X13180238Y-18522142D01*
X13156428Y-18522142D01*
X13108809Y-18498333D01*
X13085000Y-18474523D01*
X13061190Y-18426904D01*
X13061190Y-18331666D01*
X13085000Y-18284047D01*
X13108809Y-18260238D01*
X13156428Y-18236428D01*
X13180238Y-18236428D01*
X13227857Y-18260238D01*
X13251666Y-18284047D01*
X13275476Y-18331666D01*
X13275476Y-18426904D01*
X13299285Y-18474523D01*
X13323095Y-18498333D01*
X13370714Y-18522142D01*
X13465952Y-18522142D01*
X13513571Y-18498333D01*
X13537380Y-18474523D01*
X13561190Y-18426904D01*
X13561190Y-18331666D01*
X13537380Y-18284047D01*
X13513571Y-18260238D01*
X13465952Y-18236428D01*
X13370714Y-18236428D01*
X13323095Y-18260238D01*
X13299285Y-18284047D01*
X13275476Y-18331666D01*
X13561190Y-18022142D02*
X13061190Y-18022142D01*
X13370714Y-17974523D02*
X13561190Y-17831666D01*
X13227857Y-17831666D02*
X13418333Y-18022142D01*
G04 #@! TO.C,R2*
X13061190Y-12410238D02*
X13061190Y-12505476D01*
X13085000Y-12553095D01*
X13108809Y-12576904D01*
X13180238Y-12624523D01*
X13275476Y-12648333D01*
X13465952Y-12648333D01*
X13513571Y-12624523D01*
X13537380Y-12600714D01*
X13561190Y-12553095D01*
X13561190Y-12457857D01*
X13537380Y-12410238D01*
X13513571Y-12386428D01*
X13465952Y-12362619D01*
X13346904Y-12362619D01*
X13299285Y-12386428D01*
X13275476Y-12410238D01*
X13251666Y-12457857D01*
X13251666Y-12553095D01*
X13275476Y-12600714D01*
X13299285Y-12624523D01*
X13346904Y-12648333D01*
X13275476Y-12076904D02*
X13251666Y-12124523D01*
X13227857Y-12148333D01*
X13180238Y-12172142D01*
X13156428Y-12172142D01*
X13108809Y-12148333D01*
X13085000Y-12124523D01*
X13061190Y-12076904D01*
X13061190Y-11981666D01*
X13085000Y-11934047D01*
X13108809Y-11910238D01*
X13156428Y-11886428D01*
X13180238Y-11886428D01*
X13227857Y-11910238D01*
X13251666Y-11934047D01*
X13275476Y-11981666D01*
X13275476Y-12076904D01*
X13299285Y-12124523D01*
X13323095Y-12148333D01*
X13370714Y-12172142D01*
X13465952Y-12172142D01*
X13513571Y-12148333D01*
X13537380Y-12124523D01*
X13561190Y-12076904D01*
X13561190Y-11981666D01*
X13537380Y-11934047D01*
X13513571Y-11910238D01*
X13465952Y-11886428D01*
X13370714Y-11886428D01*
X13323095Y-11910238D01*
X13299285Y-11934047D01*
X13275476Y-11981666D01*
X13561190Y-11672142D02*
X13061190Y-11672142D01*
X13370714Y-11624523D02*
X13561190Y-11481666D01*
X13227857Y-11481666D02*
X13418333Y-11672142D01*
G04 #@! TO.C,R1*
X13227857Y-15382857D02*
X13561190Y-15382857D01*
X13037380Y-15501904D02*
X13394523Y-15620952D01*
X13394523Y-15311428D01*
X13061190Y-15168571D02*
X13061190Y-14835238D01*
X13561190Y-15049523D01*
G04 #@! TO.C,D4*
D10*
X17722857Y-82111666D02*
X17760952Y-81997380D01*
X17799047Y-81959285D01*
X17875238Y-81921190D01*
X17989523Y-81921190D01*
X18065714Y-81959285D01*
X18103809Y-81997380D01*
X18141904Y-82073571D01*
X18141904Y-82378333D01*
X17341904Y-82378333D01*
X17341904Y-82111666D01*
X17380000Y-82035476D01*
X17418095Y-81997380D01*
X17494285Y-81959285D01*
X17570476Y-81959285D01*
X17646666Y-81997380D01*
X17684761Y-82035476D01*
X17722857Y-82111666D01*
X17722857Y-82378333D01*
X17341904Y-81197380D02*
X17341904Y-81578333D01*
X17722857Y-81616428D01*
X17684761Y-81578333D01*
X17646666Y-81502142D01*
X17646666Y-81311666D01*
X17684761Y-81235476D01*
X17722857Y-81197380D01*
X17799047Y-81159285D01*
X17989523Y-81159285D01*
X18065714Y-81197380D01*
X18103809Y-81235476D01*
X18141904Y-81311666D01*
X18141904Y-81502142D01*
X18103809Y-81578333D01*
X18065714Y-81616428D01*
X17684761Y-80702142D02*
X17646666Y-80778333D01*
X17608571Y-80816428D01*
X17532380Y-80854523D01*
X17494285Y-80854523D01*
X17418095Y-80816428D01*
X17380000Y-80778333D01*
X17341904Y-80702142D01*
X17341904Y-80549761D01*
X17380000Y-80473571D01*
X17418095Y-80435476D01*
X17494285Y-80397380D01*
X17532380Y-80397380D01*
X17608571Y-80435476D01*
X17646666Y-80473571D01*
X17684761Y-80549761D01*
X17684761Y-80702142D01*
X17722857Y-80778333D01*
X17760952Y-80816428D01*
X17837142Y-80854523D01*
X17989523Y-80854523D01*
X18065714Y-80816428D01*
X18103809Y-80778333D01*
X18141904Y-80702142D01*
X18141904Y-80549761D01*
X18103809Y-80473571D01*
X18065714Y-80435476D01*
X17989523Y-80397380D01*
X17837142Y-80397380D01*
X17760952Y-80435476D01*
X17722857Y-80473571D01*
X17684761Y-80549761D01*
X18141904Y-79635476D02*
X18141904Y-80092619D01*
X18141904Y-79864047D02*
X17341904Y-79864047D01*
X17456190Y-79940238D01*
X17532380Y-80016428D01*
X17570476Y-80092619D01*
X18141904Y-79254523D02*
X18141904Y-79102142D01*
X18103809Y-79025952D01*
X18065714Y-78987857D01*
X17951428Y-78911666D01*
X17799047Y-78873571D01*
X17494285Y-78873571D01*
X17418095Y-78911666D01*
X17380000Y-78949761D01*
X17341904Y-79025952D01*
X17341904Y-79178333D01*
X17380000Y-79254523D01*
X17418095Y-79292619D01*
X17494285Y-79330714D01*
X17684761Y-79330714D01*
X17760952Y-79292619D01*
X17799047Y-79254523D01*
X17837142Y-79178333D01*
X17837142Y-79025952D01*
X17799047Y-78949761D01*
X17760952Y-78911666D01*
X17684761Y-78873571D01*
G04 #@! TO.C,D3*
X22872857Y-82111666D02*
X22910952Y-81997380D01*
X22949047Y-81959285D01*
X23025238Y-81921190D01*
X23139523Y-81921190D01*
X23215714Y-81959285D01*
X23253809Y-81997380D01*
X23291904Y-82073571D01*
X23291904Y-82378333D01*
X22491904Y-82378333D01*
X22491904Y-82111666D01*
X22530000Y-82035476D01*
X22568095Y-81997380D01*
X22644285Y-81959285D01*
X22720476Y-81959285D01*
X22796666Y-81997380D01*
X22834761Y-82035476D01*
X22872857Y-82111666D01*
X22872857Y-82378333D01*
X22491904Y-81197380D02*
X22491904Y-81578333D01*
X22872857Y-81616428D01*
X22834761Y-81578333D01*
X22796666Y-81502142D01*
X22796666Y-81311666D01*
X22834761Y-81235476D01*
X22872857Y-81197380D01*
X22949047Y-81159285D01*
X23139523Y-81159285D01*
X23215714Y-81197380D01*
X23253809Y-81235476D01*
X23291904Y-81311666D01*
X23291904Y-81502142D01*
X23253809Y-81578333D01*
X23215714Y-81616428D01*
X22834761Y-80702142D02*
X22796666Y-80778333D01*
X22758571Y-80816428D01*
X22682380Y-80854523D01*
X22644285Y-80854523D01*
X22568095Y-80816428D01*
X22530000Y-80778333D01*
X22491904Y-80702142D01*
X22491904Y-80549761D01*
X22530000Y-80473571D01*
X22568095Y-80435476D01*
X22644285Y-80397380D01*
X22682380Y-80397380D01*
X22758571Y-80435476D01*
X22796666Y-80473571D01*
X22834761Y-80549761D01*
X22834761Y-80702142D01*
X22872857Y-80778333D01*
X22910952Y-80816428D01*
X22987142Y-80854523D01*
X23139523Y-80854523D01*
X23215714Y-80816428D01*
X23253809Y-80778333D01*
X23291904Y-80702142D01*
X23291904Y-80549761D01*
X23253809Y-80473571D01*
X23215714Y-80435476D01*
X23139523Y-80397380D01*
X22987142Y-80397380D01*
X22910952Y-80435476D01*
X22872857Y-80473571D01*
X22834761Y-80549761D01*
X23291904Y-79635476D02*
X23291904Y-80092619D01*
X23291904Y-79864047D02*
X22491904Y-79864047D01*
X22606190Y-79940238D01*
X22682380Y-80016428D01*
X22720476Y-80092619D01*
X23291904Y-79254523D02*
X23291904Y-79102142D01*
X23253809Y-79025952D01*
X23215714Y-78987857D01*
X23101428Y-78911666D01*
X22949047Y-78873571D01*
X22644285Y-78873571D01*
X22568095Y-78911666D01*
X22530000Y-78949761D01*
X22491904Y-79025952D01*
X22491904Y-79178333D01*
X22530000Y-79254523D01*
X22568095Y-79292619D01*
X22644285Y-79330714D01*
X22834761Y-79330714D01*
X22910952Y-79292619D01*
X22949047Y-79254523D01*
X22987142Y-79178333D01*
X22987142Y-79025952D01*
X22949047Y-78949761D01*
X22910952Y-78911666D01*
X22834761Y-78873571D01*
G04 #@! TO.C,C9*
X18789761Y-65131904D02*
X18332619Y-65131904D01*
X18561190Y-65131904D02*
X18561190Y-64331904D01*
X18485000Y-64446190D01*
X18408809Y-64522380D01*
X18332619Y-64560476D01*
X19285000Y-64331904D02*
X19361190Y-64331904D01*
X19437380Y-64370000D01*
X19475476Y-64408095D01*
X19513571Y-64484285D01*
X19551666Y-64636666D01*
X19551666Y-64827142D01*
X19513571Y-64979523D01*
X19475476Y-65055714D01*
X19437380Y-65093809D01*
X19361190Y-65131904D01*
X19285000Y-65131904D01*
X19208809Y-65093809D01*
X19170714Y-65055714D01*
X19132619Y-64979523D01*
X19094523Y-64827142D01*
X19094523Y-64636666D01*
X19132619Y-64484285D01*
X19170714Y-64408095D01*
X19208809Y-64370000D01*
X19285000Y-64331904D01*
X20046904Y-64331904D02*
X20123095Y-64331904D01*
X20199285Y-64370000D01*
X20237380Y-64408095D01*
X20275476Y-64484285D01*
X20313571Y-64636666D01*
X20313571Y-64827142D01*
X20275476Y-64979523D01*
X20237380Y-65055714D01*
X20199285Y-65093809D01*
X20123095Y-65131904D01*
X20046904Y-65131904D01*
X19970714Y-65093809D01*
X19932619Y-65055714D01*
X19894523Y-64979523D01*
X19856428Y-64827142D01*
X19856428Y-64636666D01*
X19894523Y-64484285D01*
X19932619Y-64408095D01*
X19970714Y-64370000D01*
X20046904Y-64331904D01*
X20656428Y-64598571D02*
X20656428Y-65131904D01*
X20656428Y-64674761D02*
X20694523Y-64636666D01*
X20770714Y-64598571D01*
X20885000Y-64598571D01*
X20961190Y-64636666D01*
X20999285Y-64712857D01*
X20999285Y-65131904D01*
G04 #@! TO.C,C8*
X18789761Y-51161904D02*
X18332619Y-51161904D01*
X18561190Y-51161904D02*
X18561190Y-50361904D01*
X18485000Y-50476190D01*
X18408809Y-50552380D01*
X18332619Y-50590476D01*
X19285000Y-50361904D02*
X19361190Y-50361904D01*
X19437380Y-50400000D01*
X19475476Y-50438095D01*
X19513571Y-50514285D01*
X19551666Y-50666666D01*
X19551666Y-50857142D01*
X19513571Y-51009523D01*
X19475476Y-51085714D01*
X19437380Y-51123809D01*
X19361190Y-51161904D01*
X19285000Y-51161904D01*
X19208809Y-51123809D01*
X19170714Y-51085714D01*
X19132619Y-51009523D01*
X19094523Y-50857142D01*
X19094523Y-50666666D01*
X19132619Y-50514285D01*
X19170714Y-50438095D01*
X19208809Y-50400000D01*
X19285000Y-50361904D01*
X20046904Y-50361904D02*
X20123095Y-50361904D01*
X20199285Y-50400000D01*
X20237380Y-50438095D01*
X20275476Y-50514285D01*
X20313571Y-50666666D01*
X20313571Y-50857142D01*
X20275476Y-51009523D01*
X20237380Y-51085714D01*
X20199285Y-51123809D01*
X20123095Y-51161904D01*
X20046904Y-51161904D01*
X19970714Y-51123809D01*
X19932619Y-51085714D01*
X19894523Y-51009523D01*
X19856428Y-50857142D01*
X19856428Y-50666666D01*
X19894523Y-50514285D01*
X19932619Y-50438095D01*
X19970714Y-50400000D01*
X20046904Y-50361904D01*
X20656428Y-50628571D02*
X20656428Y-51161904D01*
X20656428Y-50704761D02*
X20694523Y-50666666D01*
X20770714Y-50628571D01*
X20885000Y-50628571D01*
X20961190Y-50666666D01*
X20999285Y-50742857D01*
X20999285Y-51161904D01*
G04 #@! TO.C,C7*
X18194761Y-47986904D02*
X17737619Y-47986904D01*
X17966190Y-47986904D02*
X17966190Y-47186904D01*
X17890000Y-47301190D01*
X17813809Y-47377380D01*
X17737619Y-47415476D01*
X18690000Y-47186904D02*
X18766190Y-47186904D01*
X18842380Y-47225000D01*
X18880476Y-47263095D01*
X18918571Y-47339285D01*
X18956666Y-47491666D01*
X18956666Y-47682142D01*
X18918571Y-47834523D01*
X18880476Y-47910714D01*
X18842380Y-47948809D01*
X18766190Y-47986904D01*
X18690000Y-47986904D01*
X18613809Y-47948809D01*
X18575714Y-47910714D01*
X18537619Y-47834523D01*
X18499523Y-47682142D01*
X18499523Y-47491666D01*
X18537619Y-47339285D01*
X18575714Y-47263095D01*
X18613809Y-47225000D01*
X18690000Y-47186904D01*
X19451904Y-47186904D02*
X19528095Y-47186904D01*
X19604285Y-47225000D01*
X19642380Y-47263095D01*
X19680476Y-47339285D01*
X19718571Y-47491666D01*
X19718571Y-47682142D01*
X19680476Y-47834523D01*
X19642380Y-47910714D01*
X19604285Y-47948809D01*
X19528095Y-47986904D01*
X19451904Y-47986904D01*
X19375714Y-47948809D01*
X19337619Y-47910714D01*
X19299523Y-47834523D01*
X19261428Y-47682142D01*
X19261428Y-47491666D01*
X19299523Y-47339285D01*
X19337619Y-47263095D01*
X19375714Y-47225000D01*
X19451904Y-47186904D01*
X20061428Y-47453571D02*
X20061428Y-47986904D01*
X20061428Y-47529761D02*
X20099523Y-47491666D01*
X20175714Y-47453571D01*
X20290000Y-47453571D01*
X20366190Y-47491666D01*
X20404285Y-47567857D01*
X20404285Y-47986904D01*
G04 #@! TO.C,C6*
X18154761Y-6711904D02*
X17697619Y-6711904D01*
X17926190Y-6711904D02*
X17926190Y-5911904D01*
X17850000Y-6026190D01*
X17773809Y-6102380D01*
X17697619Y-6140476D01*
X18650000Y-5911904D02*
X18726190Y-5911904D01*
X18802380Y-5950000D01*
X18840476Y-5988095D01*
X18878571Y-6064285D01*
X18916666Y-6216666D01*
X18916666Y-6407142D01*
X18878571Y-6559523D01*
X18840476Y-6635714D01*
X18802380Y-6673809D01*
X18726190Y-6711904D01*
X18650000Y-6711904D01*
X18573809Y-6673809D01*
X18535714Y-6635714D01*
X18497619Y-6559523D01*
X18459523Y-6407142D01*
X18459523Y-6216666D01*
X18497619Y-6064285D01*
X18535714Y-5988095D01*
X18573809Y-5950000D01*
X18650000Y-5911904D01*
X19411904Y-5911904D02*
X19488095Y-5911904D01*
X19564285Y-5950000D01*
X19602380Y-5988095D01*
X19640476Y-6064285D01*
X19678571Y-6216666D01*
X19678571Y-6407142D01*
X19640476Y-6559523D01*
X19602380Y-6635714D01*
X19564285Y-6673809D01*
X19488095Y-6711904D01*
X19411904Y-6711904D01*
X19335714Y-6673809D01*
X19297619Y-6635714D01*
X19259523Y-6559523D01*
X19221428Y-6407142D01*
X19221428Y-6216666D01*
X19259523Y-6064285D01*
X19297619Y-5988095D01*
X19335714Y-5950000D01*
X19411904Y-5911904D01*
X20021428Y-6178571D02*
X20021428Y-6711904D01*
X20021428Y-6254761D02*
X20059523Y-6216666D01*
X20135714Y-6178571D01*
X20250000Y-6178571D01*
X20326190Y-6216666D01*
X20364285Y-6292857D01*
X20364285Y-6711904D01*
G04 #@! TO.C,C5*
X18194761Y-20681904D02*
X17737619Y-20681904D01*
X17966190Y-20681904D02*
X17966190Y-19881904D01*
X17890000Y-19996190D01*
X17813809Y-20072380D01*
X17737619Y-20110476D01*
X18690000Y-19881904D02*
X18766190Y-19881904D01*
X18842380Y-19920000D01*
X18880476Y-19958095D01*
X18918571Y-20034285D01*
X18956666Y-20186666D01*
X18956666Y-20377142D01*
X18918571Y-20529523D01*
X18880476Y-20605714D01*
X18842380Y-20643809D01*
X18766190Y-20681904D01*
X18690000Y-20681904D01*
X18613809Y-20643809D01*
X18575714Y-20605714D01*
X18537619Y-20529523D01*
X18499523Y-20377142D01*
X18499523Y-20186666D01*
X18537619Y-20034285D01*
X18575714Y-19958095D01*
X18613809Y-19920000D01*
X18690000Y-19881904D01*
X19451904Y-19881904D02*
X19528095Y-19881904D01*
X19604285Y-19920000D01*
X19642380Y-19958095D01*
X19680476Y-20034285D01*
X19718571Y-20186666D01*
X19718571Y-20377142D01*
X19680476Y-20529523D01*
X19642380Y-20605714D01*
X19604285Y-20643809D01*
X19528095Y-20681904D01*
X19451904Y-20681904D01*
X19375714Y-20643809D01*
X19337619Y-20605714D01*
X19299523Y-20529523D01*
X19261428Y-20377142D01*
X19261428Y-20186666D01*
X19299523Y-20034285D01*
X19337619Y-19958095D01*
X19375714Y-19920000D01*
X19451904Y-19881904D01*
X20061428Y-20148571D02*
X20061428Y-20681904D01*
X20061428Y-20224761D02*
X20099523Y-20186666D01*
X20175714Y-20148571D01*
X20290000Y-20148571D01*
X20366190Y-20186666D01*
X20404285Y-20262857D01*
X20404285Y-20681904D01*
G04 #@! TO.C,C4*
X18154761Y-34016904D02*
X17697619Y-34016904D01*
X17926190Y-34016904D02*
X17926190Y-33216904D01*
X17850000Y-33331190D01*
X17773809Y-33407380D01*
X17697619Y-33445476D01*
X18650000Y-33216904D02*
X18726190Y-33216904D01*
X18802380Y-33255000D01*
X18840476Y-33293095D01*
X18878571Y-33369285D01*
X18916666Y-33521666D01*
X18916666Y-33712142D01*
X18878571Y-33864523D01*
X18840476Y-33940714D01*
X18802380Y-33978809D01*
X18726190Y-34016904D01*
X18650000Y-34016904D01*
X18573809Y-33978809D01*
X18535714Y-33940714D01*
X18497619Y-33864523D01*
X18459523Y-33712142D01*
X18459523Y-33521666D01*
X18497619Y-33369285D01*
X18535714Y-33293095D01*
X18573809Y-33255000D01*
X18650000Y-33216904D01*
X19411904Y-33216904D02*
X19488095Y-33216904D01*
X19564285Y-33255000D01*
X19602380Y-33293095D01*
X19640476Y-33369285D01*
X19678571Y-33521666D01*
X19678571Y-33712142D01*
X19640476Y-33864523D01*
X19602380Y-33940714D01*
X19564285Y-33978809D01*
X19488095Y-34016904D01*
X19411904Y-34016904D01*
X19335714Y-33978809D01*
X19297619Y-33940714D01*
X19259523Y-33864523D01*
X19221428Y-33712142D01*
X19221428Y-33521666D01*
X19259523Y-33369285D01*
X19297619Y-33293095D01*
X19335714Y-33255000D01*
X19411904Y-33216904D01*
X20021428Y-33483571D02*
X20021428Y-34016904D01*
X20021428Y-33559761D02*
X20059523Y-33521666D01*
X20135714Y-33483571D01*
X20250000Y-33483571D01*
X20326190Y-33521666D01*
X20364285Y-33597857D01*
X20364285Y-34016904D01*
G04 #@! TO.C,C1*
X3316666Y-3536904D02*
X2859523Y-3536904D01*
X3088095Y-3536904D02*
X3088095Y-2736904D01*
X3011904Y-2851190D01*
X2935714Y-2927380D01*
X2859523Y-2965476D01*
X3659523Y-3003571D02*
X3659523Y-3803571D01*
X4040476Y-3422619D02*
X4078571Y-3498809D01*
X4154761Y-3536904D01*
X3659523Y-3422619D02*
X3697619Y-3498809D01*
X3773809Y-3536904D01*
X3926190Y-3536904D01*
X4002380Y-3498809D01*
X4040476Y-3422619D01*
X4040476Y-3003571D01*
X4764285Y-3117857D02*
X4497619Y-3117857D01*
X4497619Y-3536904D02*
X4497619Y-2736904D01*
X4878571Y-2736904D01*
G04 #@! TO.C,Q1*
X3502857Y-36410714D02*
X3540952Y-36296428D01*
X3579047Y-36258333D01*
X3655238Y-36220238D01*
X3769523Y-36220238D01*
X3845714Y-36258333D01*
X3883809Y-36296428D01*
X3921904Y-36372619D01*
X3921904Y-36677380D01*
X3121904Y-36677380D01*
X3121904Y-36410714D01*
X3160000Y-36334523D01*
X3198095Y-36296428D01*
X3274285Y-36258333D01*
X3350476Y-36258333D01*
X3426666Y-36296428D01*
X3464761Y-36334523D01*
X3502857Y-36410714D01*
X3502857Y-36677380D01*
X3845714Y-35420238D02*
X3883809Y-35458333D01*
X3921904Y-35572619D01*
X3921904Y-35648809D01*
X3883809Y-35763095D01*
X3807619Y-35839285D01*
X3731428Y-35877380D01*
X3579047Y-35915476D01*
X3464761Y-35915476D01*
X3312380Y-35877380D01*
X3236190Y-35839285D01*
X3160000Y-35763095D01*
X3121904Y-35648809D01*
X3121904Y-35572619D01*
X3160000Y-35458333D01*
X3198095Y-35420238D01*
X3121904Y-34696428D02*
X3121904Y-35077380D01*
X3502857Y-35115476D01*
X3464761Y-35077380D01*
X3426666Y-35001190D01*
X3426666Y-34810714D01*
X3464761Y-34734523D01*
X3502857Y-34696428D01*
X3579047Y-34658333D01*
X3769523Y-34658333D01*
X3845714Y-34696428D01*
X3883809Y-34734523D01*
X3921904Y-34810714D01*
X3921904Y-35001190D01*
X3883809Y-35077380D01*
X3845714Y-35115476D01*
X3388571Y-33972619D02*
X3921904Y-33972619D01*
X3083809Y-34163095D02*
X3655238Y-34353571D01*
X3655238Y-33858333D01*
X3121904Y-33629761D02*
X3121904Y-33096428D01*
X3921904Y-33439285D01*
G04 #@! TO.C,J5*
D14*
X20772380Y-95956190D02*
X19772380Y-95956190D01*
X19772380Y-95575238D01*
X19820000Y-95480000D01*
X19867619Y-95432380D01*
X19962857Y-95384761D01*
X20105714Y-95384761D01*
X20200952Y-95432380D01*
X20248571Y-95480000D01*
X20296190Y-95575238D01*
X20296190Y-95956190D01*
X20772380Y-94813333D02*
X20724761Y-94908571D01*
X20677142Y-94956190D01*
X20581904Y-95003809D01*
X20296190Y-95003809D01*
X20200952Y-94956190D01*
X20153333Y-94908571D01*
X20105714Y-94813333D01*
X20105714Y-94670476D01*
X20153333Y-94575238D01*
X20200952Y-94527619D01*
X20296190Y-94480000D01*
X20581904Y-94480000D01*
X20677142Y-94527619D01*
X20724761Y-94575238D01*
X20772380Y-94670476D01*
X20772380Y-94813333D01*
X20105714Y-94146666D02*
X20772380Y-93956190D01*
X20296190Y-93765714D01*
X20772380Y-93575238D01*
X20105714Y-93384761D01*
X20724761Y-92622857D02*
X20772380Y-92718095D01*
X20772380Y-92908571D01*
X20724761Y-93003809D01*
X20629523Y-93051428D01*
X20248571Y-93051428D01*
X20153333Y-93003809D01*
X20105714Y-92908571D01*
X20105714Y-92718095D01*
X20153333Y-92622857D01*
X20248571Y-92575238D01*
X20343809Y-92575238D01*
X20439047Y-93051428D01*
X20772380Y-92146666D02*
X20105714Y-92146666D01*
X20296190Y-92146666D02*
X20200952Y-92099047D01*
X20153333Y-92051428D01*
X20105714Y-91956190D01*
X20105714Y-91860952D01*
D10*
X19323095Y-98602857D02*
X19704047Y-98336190D01*
X19323095Y-98145714D02*
X20123095Y-98145714D01*
X20123095Y-98450476D01*
X20085000Y-98526666D01*
X20046904Y-98564761D01*
X19970714Y-98602857D01*
X19856428Y-98602857D01*
X19780238Y-98564761D01*
X19742142Y-98526666D01*
X19704047Y-98450476D01*
X19704047Y-98145714D01*
X19361190Y-99250476D02*
X19323095Y-99174285D01*
X19323095Y-99021904D01*
X19361190Y-98945714D01*
X19437380Y-98907619D01*
X19742142Y-98907619D01*
X19818333Y-98945714D01*
X19856428Y-99021904D01*
X19856428Y-99174285D01*
X19818333Y-99250476D01*
X19742142Y-99288571D01*
X19665952Y-99288571D01*
X19589761Y-98907619D01*
X19323095Y-99974285D02*
X20123095Y-99974285D01*
X19361190Y-99974285D02*
X19323095Y-99898095D01*
X19323095Y-99745714D01*
X19361190Y-99669523D01*
X19399285Y-99631428D01*
X19475476Y-99593333D01*
X19704047Y-99593333D01*
X19780238Y-99631428D01*
X19818333Y-99669523D01*
X19856428Y-99745714D01*
X19856428Y-99898095D01*
X19818333Y-99974285D01*
X28213095Y-98602857D02*
X28594047Y-98336190D01*
X28213095Y-98145714D02*
X29013095Y-98145714D01*
X29013095Y-98450476D01*
X28975000Y-98526666D01*
X28936904Y-98564761D01*
X28860714Y-98602857D01*
X28746428Y-98602857D01*
X28670238Y-98564761D01*
X28632142Y-98526666D01*
X28594047Y-98450476D01*
X28594047Y-98145714D01*
X28251190Y-99250476D02*
X28213095Y-99174285D01*
X28213095Y-99021904D01*
X28251190Y-98945714D01*
X28327380Y-98907619D01*
X28632142Y-98907619D01*
X28708333Y-98945714D01*
X28746428Y-99021904D01*
X28746428Y-99174285D01*
X28708333Y-99250476D01*
X28632142Y-99288571D01*
X28555952Y-99288571D01*
X28479761Y-98907619D01*
X28213095Y-99974285D02*
X29013095Y-99974285D01*
X28251190Y-99974285D02*
X28213095Y-99898095D01*
X28213095Y-99745714D01*
X28251190Y-99669523D01*
X28289285Y-99631428D01*
X28365476Y-99593333D01*
X28594047Y-99593333D01*
X28670238Y-99631428D01*
X28708333Y-99669523D01*
X28746428Y-99745714D01*
X28746428Y-99898095D01*
X28708333Y-99974285D01*
G04 #@! TO.C,C3*
D13*
X19748571Y-70076190D02*
X19462857Y-70076190D01*
X19605714Y-70076190D02*
X19605714Y-69576190D01*
X19558095Y-69647619D01*
X19510476Y-69695238D01*
X19462857Y-69719047D01*
X20058095Y-69576190D02*
X20105714Y-69576190D01*
X20153333Y-69600000D01*
X20177142Y-69623809D01*
X20200952Y-69671428D01*
X20224761Y-69766666D01*
X20224761Y-69885714D01*
X20200952Y-69980952D01*
X20177142Y-70028571D01*
X20153333Y-70052380D01*
X20105714Y-70076190D01*
X20058095Y-70076190D01*
X20010476Y-70052380D01*
X19986666Y-70028571D01*
X19962857Y-69980952D01*
X19939047Y-69885714D01*
X19939047Y-69766666D01*
X19962857Y-69671428D01*
X19986666Y-69623809D01*
X20010476Y-69600000D01*
X20058095Y-69576190D01*
X20439047Y-69742857D02*
X20439047Y-70242857D01*
X20677142Y-70004761D02*
X20700952Y-70052380D01*
X20748571Y-70076190D01*
X20439047Y-70004761D02*
X20462857Y-70052380D01*
X20510476Y-70076190D01*
X20605714Y-70076190D01*
X20653333Y-70052380D01*
X20677142Y-70004761D01*
X20677142Y-69742857D01*
X21129523Y-69814285D02*
X20962857Y-69814285D01*
X20962857Y-70076190D02*
X20962857Y-69576190D01*
X21200952Y-69576190D01*
G04 #@! TO.C,C2*
X24828571Y-70076190D02*
X24542857Y-70076190D01*
X24685714Y-70076190D02*
X24685714Y-69576190D01*
X24638095Y-69647619D01*
X24590476Y-69695238D01*
X24542857Y-69719047D01*
X25138095Y-69576190D02*
X25185714Y-69576190D01*
X25233333Y-69600000D01*
X25257142Y-69623809D01*
X25280952Y-69671428D01*
X25304761Y-69766666D01*
X25304761Y-69885714D01*
X25280952Y-69980952D01*
X25257142Y-70028571D01*
X25233333Y-70052380D01*
X25185714Y-70076190D01*
X25138095Y-70076190D01*
X25090476Y-70052380D01*
X25066666Y-70028571D01*
X25042857Y-69980952D01*
X25019047Y-69885714D01*
X25019047Y-69766666D01*
X25042857Y-69671428D01*
X25066666Y-69623809D01*
X25090476Y-69600000D01*
X25138095Y-69576190D01*
X25519047Y-69742857D02*
X25519047Y-70242857D01*
X25757142Y-70004761D02*
X25780952Y-70052380D01*
X25828571Y-70076190D01*
X25519047Y-70004761D02*
X25542857Y-70052380D01*
X25590476Y-70076190D01*
X25685714Y-70076190D01*
X25733333Y-70052380D01*
X25757142Y-70004761D01*
X25757142Y-69742857D01*
X26209523Y-69814285D02*
X26042857Y-69814285D01*
X26042857Y-70076190D02*
X26042857Y-69576190D01*
X26280952Y-69576190D01*
G04 #@! TD*
M02*
