G04 #@! TF.GenerationSoftware,KiCad,Pcbnew,(5.1.10)-1*
G04 #@! TF.CreationDate,2021-08-28T07:27:22+02:00*
G04 #@! TF.ProjectId,Haraldswerk NGF-E LFO Main,48617261-6c64-4737-9765-726b204e4746,rev?*
G04 #@! TF.SameCoordinates,Original*
G04 #@! TF.FileFunction,Copper,L1,Top*
G04 #@! TF.FilePolarity,Positive*
%FSLAX46Y46*%
G04 Gerber Fmt 4.6, Leading zero omitted, Abs format (unit mm)*
G04 Created by KiCad (PCBNEW (5.1.10)-1) date 2021-08-28 07:27:22*
%MOMM*%
%LPD*%
G01*
G04 APERTURE LIST*
G04 #@! TA.AperFunction,ComponentPad*
%ADD10O,1.700000X1.700000*%
G04 #@! TD*
G04 #@! TA.AperFunction,ComponentPad*
%ADD11R,1.700000X1.700000*%
G04 #@! TD*
G04 #@! TA.AperFunction,ComponentPad*
%ADD12C,1.600000*%
G04 #@! TD*
G04 #@! TA.AperFunction,ComponentPad*
%ADD13O,1.600000X1.600000*%
G04 #@! TD*
G04 #@! TA.AperFunction,ComponentPad*
%ADD14C,1.550000*%
G04 #@! TD*
G04 #@! TA.AperFunction,ComponentPad*
%ADD15R,1.550000X1.550000*%
G04 #@! TD*
G04 #@! TA.AperFunction,ComponentPad*
%ADD16C,1.800000*%
G04 #@! TD*
G04 #@! TA.AperFunction,ComponentPad*
%ADD17O,2.000000X3.900000*%
G04 #@! TD*
G04 #@! TA.AperFunction,ComponentPad*
%ADD18O,2.400000X1.600000*%
G04 #@! TD*
G04 #@! TA.AperFunction,ComponentPad*
%ADD19R,2.400000X1.600000*%
G04 #@! TD*
G04 #@! TA.AperFunction,ComponentPad*
%ADD20O,2.200000X2.200000*%
G04 #@! TD*
G04 #@! TA.AperFunction,ComponentPad*
%ADD21R,2.200000X2.200000*%
G04 #@! TD*
G04 #@! TA.AperFunction,ComponentPad*
%ADD22R,1.500000X1.050000*%
G04 #@! TD*
G04 #@! TA.AperFunction,ComponentPad*
%ADD23O,1.500000X1.050000*%
G04 #@! TD*
G04 #@! TA.AperFunction,ComponentPad*
%ADD24R,1.800000X1.800000*%
G04 #@! TD*
G04 #@! TA.AperFunction,ComponentPad*
%ADD25C,1.200000*%
G04 #@! TD*
G04 #@! TA.AperFunction,ComponentPad*
%ADD26R,1.200000X1.200000*%
G04 #@! TD*
G04 #@! TA.AperFunction,ViaPad*
%ADD27C,0.800000*%
G04 #@! TD*
G04 #@! TA.AperFunction,Conductor*
%ADD28C,0.250000*%
G04 #@! TD*
G04 #@! TA.AperFunction,Conductor*
%ADD29C,0.400000*%
G04 #@! TD*
G04 #@! TA.AperFunction,Conductor*
%ADD30C,0.254000*%
G04 #@! TD*
G04 #@! TA.AperFunction,Conductor*
%ADD31C,0.100000*%
G04 #@! TD*
G04 APERTURE END LIST*
D10*
G04 #@! TO.P,J6,6*
G04 #@! TO.N,Net-(C1-Pad2)*
X12065000Y-7620000D03*
G04 #@! TO.P,J6,5*
G04 #@! TO.N,Net-(J6-Pad1)*
X9525000Y-7620000D03*
G04 #@! TO.P,J6,4*
G04 #@! TO.N,Net-(C11-Pad2)*
X12065000Y-5080000D03*
G04 #@! TO.P,J6,3*
G04 #@! TO.N,Net-(J6-Pad1)*
X9525000Y-5080000D03*
G04 #@! TO.P,J6,2*
G04 #@! TO.N,Net-(C10-Pad2)*
X12065000Y-2540000D03*
D11*
G04 #@! TO.P,J6,1*
G04 #@! TO.N,Net-(J6-Pad1)*
X9525000Y-2540000D03*
G04 #@! TD*
D12*
G04 #@! TO.P,C11,2*
G04 #@! TO.N,Net-(C11-Pad2)*
X24765000Y-1985000D03*
G04 #@! TO.P,C11,1*
G04 #@! TO.N,TRI*
X24765000Y-6985000D03*
G04 #@! TD*
G04 #@! TO.P,C10,2*
G04 #@! TO.N,Net-(C10-Pad2)*
X15320000Y-2540000D03*
G04 #@! TO.P,C10,1*
G04 #@! TO.N,TRI*
X20320000Y-2540000D03*
G04 #@! TD*
D13*
G04 #@! TO.P,R16,2*
G04 #@! TO.N,TRI*
X10795000Y-67945000D03*
D12*
G04 #@! TO.P,R16,1*
G04 #@! TO.N,Net-(J3-PadT)*
X8255000Y-67945000D03*
G04 #@! TD*
D14*
G04 #@! TO.P,T1,2*
G04 #@! TO.N,SQR*
X10715000Y-44490000D03*
D15*
G04 #@! TO.P,T1,1*
G04 #@! TO.N,Net-(R7-Pad2)*
X5715000Y-46990000D03*
D14*
G04 #@! TO.P,T1,3*
G04 #@! TO.N,Net-(R6-Pad1)*
X5715000Y-41990000D03*
G04 #@! TD*
D16*
G04 #@! TO.P,RV1,1*
G04 #@! TO.N,Net-(R6-Pad2)*
X5080000Y-9525000D03*
G04 #@! TO.P,RV1,2*
G04 #@! TO.N,Net-(R2-Pad2)*
X5080000Y-12025000D03*
G04 #@! TO.P,RV1,3*
G04 #@! TO.N,Net-(R1-Pad2)*
X5080000Y-14525000D03*
G04 #@! TD*
D17*
G04 #@! TO.P,J4,TN*
G04 #@! TO.N,N/C*
X12800000Y-62230000D03*
G04 #@! TO.P,J4,T*
G04 #@! TO.N,Net-(J4-PadT)*
X7000000Y-62230000D03*
G04 #@! TO.P,J4,S*
G04 #@! TO.N,GND*
X1700000Y-62230000D03*
G04 #@! TD*
G04 #@! TO.P,J3,TN*
G04 #@! TO.N,N/C*
X12800000Y-73660000D03*
G04 #@! TO.P,J3,T*
G04 #@! TO.N,Net-(J3-PadT)*
X7000000Y-73660000D03*
G04 #@! TO.P,J3,S*
G04 #@! TO.N,GND*
X1700000Y-73660000D03*
G04 #@! TD*
G04 #@! TO.P,J2,TN*
G04 #@! TO.N,N/C*
X12800000Y-85090000D03*
G04 #@! TO.P,J2,T*
G04 #@! TO.N,Net-(J2-PadT)*
X7000000Y-85090000D03*
G04 #@! TO.P,J2,S*
G04 #@! TO.N,GND*
X1700000Y-85090000D03*
G04 #@! TD*
G04 #@! TO.P,J1,TN*
G04 #@! TO.N,N/C*
X12800000Y-96520000D03*
G04 #@! TO.P,J1,T*
G04 #@! TO.N,Net-(J1-PadT)*
X7000000Y-96520000D03*
G04 #@! TO.P,J1,S*
G04 #@! TO.N,GND*
X1700000Y-96520000D03*
G04 #@! TD*
D18*
G04 #@! TO.P,U3,8*
G04 #@! TO.N,+12V*
X23495000Y-53975000D03*
G04 #@! TO.P,U3,4*
G04 #@! TO.N,-12V*
X15875000Y-61595000D03*
G04 #@! TO.P,U3,7*
G04 #@! TO.N,Net-(D1-Pad1)*
X23495000Y-56515000D03*
G04 #@! TO.P,U3,3*
G04 #@! TO.N,SQR*
X15875000Y-59055000D03*
G04 #@! TO.P,U3,6*
G04 #@! TO.N,Net-(D1-Pad2)*
X23495000Y-59055000D03*
G04 #@! TO.P,U3,2*
G04 #@! TO.N,Net-(R17-Pad2)*
X15875000Y-56515000D03*
G04 #@! TO.P,U3,5*
G04 #@! TO.N,GND*
X23495000Y-61595000D03*
D19*
G04 #@! TO.P,U3,1*
G04 #@! TO.N,Net-(R17-Pad2)*
X15875000Y-53975000D03*
G04 #@! TD*
D18*
G04 #@! TO.P,U2,8*
G04 #@! TO.N,+12V*
X22860000Y-36830000D03*
G04 #@! TO.P,U2,4*
G04 #@! TO.N,-12V*
X15240000Y-44450000D03*
G04 #@! TO.P,U2,7*
G04 #@! TO.N,Net-(R14-Pad1)*
X22860000Y-39370000D03*
G04 #@! TO.P,U2,3*
G04 #@! TO.N,Net-(Q1-Pad1)*
X15240000Y-41910000D03*
G04 #@! TO.P,U2,6*
G04 #@! TO.N,Net-(R13-Pad1)*
X22860000Y-41910000D03*
G04 #@! TO.P,U2,2*
G04 #@! TO.N,Net-(R11-Pad2)*
X15240000Y-39370000D03*
G04 #@! TO.P,U2,5*
G04 #@! TO.N,GND*
X22860000Y-44450000D03*
D19*
G04 #@! TO.P,U2,1*
G04 #@! TO.N,Net-(R11-Pad1)*
X15240000Y-36830000D03*
G04 #@! TD*
D18*
G04 #@! TO.P,U1,8*
G04 #@! TO.N,+12V*
X22860000Y-9525000D03*
G04 #@! TO.P,U1,4*
G04 #@! TO.N,-12V*
X15240000Y-17145000D03*
G04 #@! TO.P,U1,7*
G04 #@! TO.N,Net-(R6-Pad2)*
X22860000Y-12065000D03*
G04 #@! TO.P,U1,3*
G04 #@! TO.N,Net-(R3-Pad2)*
X15240000Y-14605000D03*
G04 #@! TO.P,U1,6*
G04 #@! TO.N,GND*
X22860000Y-14605000D03*
G04 #@! TO.P,U1,2*
G04 #@! TO.N,Net-(J6-Pad1)*
X15240000Y-12065000D03*
G04 #@! TO.P,U1,5*
G04 #@! TO.N,Net-(R4-Pad1)*
X22860000Y-17145000D03*
D19*
G04 #@! TO.P,U1,1*
G04 #@! TO.N,TRI*
X15240000Y-9525000D03*
G04 #@! TD*
D13*
G04 #@! TO.P,R18,2*
G04 #@! TO.N,Net-(D1-Pad2)*
X25400000Y-65405000D03*
D12*
G04 #@! TO.P,R18,1*
G04 #@! TO.N,TRI*
X25400000Y-67945000D03*
G04 #@! TD*
D13*
G04 #@! TO.P,R17,2*
G04 #@! TO.N,Net-(R17-Pad2)*
X12700000Y-53975000D03*
D12*
G04 #@! TO.P,R17,1*
G04 #@! TO.N,Net-(J4-PadT)*
X12700000Y-56515000D03*
G04 #@! TD*
D13*
G04 #@! TO.P,R15,2*
G04 #@! TO.N,Net-(R14-Pad1)*
X10795000Y-79375000D03*
D12*
G04 #@! TO.P,R15,1*
G04 #@! TO.N,Net-(J2-PadT)*
X8255000Y-79375000D03*
G04 #@! TD*
D13*
G04 #@! TO.P,R14,2*
G04 #@! TO.N,Net-(R13-Pad1)*
X22225000Y-27940000D03*
D12*
G04 #@! TO.P,R14,1*
G04 #@! TO.N,Net-(R14-Pad1)*
X22225000Y-30480000D03*
G04 #@! TD*
D13*
G04 #@! TO.P,R13,2*
G04 #@! TO.N,Net-(R11-Pad1)*
X15875000Y-30480000D03*
D12*
G04 #@! TO.P,R13,1*
G04 #@! TO.N,Net-(R13-Pad1)*
X15875000Y-27940000D03*
G04 #@! TD*
D13*
G04 #@! TO.P,R12,2*
G04 #@! TO.N,Net-(R11-Pad1)*
X10795000Y-90805000D03*
D12*
G04 #@! TO.P,R12,1*
G04 #@! TO.N,Net-(J1-PadT)*
X8255000Y-90805000D03*
G04 #@! TD*
D13*
G04 #@! TO.P,R11,2*
G04 #@! TO.N,Net-(R11-Pad2)*
X12700000Y-27940000D03*
D12*
G04 #@! TO.P,R11,1*
G04 #@! TO.N,Net-(R11-Pad1)*
X12700000Y-30480000D03*
G04 #@! TD*
D13*
G04 #@! TO.P,R10,2*
G04 #@! TO.N,TRI*
X6350000Y-27940000D03*
D12*
G04 #@! TO.P,R10,1*
G04 #@! TO.N,Net-(Q1-Pad1)*
X6350000Y-30480000D03*
G04 #@! TD*
D13*
G04 #@! TO.P,R9,2*
G04 #@! TO.N,TRI*
X9525000Y-30480000D03*
D12*
G04 #@! TO.P,R9,1*
G04 #@! TO.N,Net-(R11-Pad2)*
X9525000Y-27940000D03*
G04 #@! TD*
D13*
G04 #@! TO.P,R8,2*
G04 #@! TO.N,SQR*
X3175000Y-27940000D03*
D12*
G04 #@! TO.P,R8,1*
G04 #@! TO.N,Net-(Q1-Pad2)*
X3175000Y-30480000D03*
G04 #@! TD*
D13*
G04 #@! TO.P,R7,2*
G04 #@! TO.N,Net-(R7-Pad2)*
X5715000Y-49530000D03*
D12*
G04 #@! TO.P,R7,1*
G04 #@! TO.N,GND*
X3175000Y-49530000D03*
G04 #@! TD*
D13*
G04 #@! TO.P,R6,2*
G04 #@! TO.N,Net-(R6-Pad2)*
X3175000Y-39370000D03*
D12*
G04 #@! TO.P,R6,1*
G04 #@! TO.N,Net-(R6-Pad1)*
X5715000Y-39370000D03*
G04 #@! TD*
D13*
G04 #@! TO.P,R5,2*
G04 #@! TO.N,Net-(R4-Pad1)*
X26035000Y-17145000D03*
D12*
G04 #@! TO.P,R5,1*
G04 #@! TO.N,SQR*
X26035000Y-19685000D03*
G04 #@! TD*
D13*
G04 #@! TO.P,R4,2*
G04 #@! TO.N,TRI*
X26035000Y-11430000D03*
D12*
G04 #@! TO.P,R4,1*
G04 #@! TO.N,Net-(R4-Pad1)*
X26035000Y-13970000D03*
G04 #@! TD*
D13*
G04 #@! TO.P,R3,2*
G04 #@! TO.N,Net-(R3-Pad2)*
X11430000Y-18415000D03*
D12*
G04 #@! TO.P,R3,1*
G04 #@! TO.N,GND*
X8890000Y-18415000D03*
G04 #@! TD*
D13*
G04 #@! TO.P,R2,2*
G04 #@! TO.N,Net-(R2-Pad2)*
X8890000Y-12065000D03*
D12*
G04 #@! TO.P,R2,1*
G04 #@! TO.N,Net-(J6-Pad1)*
X11430000Y-12065000D03*
G04 #@! TD*
D13*
G04 #@! TO.P,R1,2*
G04 #@! TO.N,Net-(R1-Pad2)*
X8890000Y-15240000D03*
D12*
G04 #@! TO.P,R1,1*
G04 #@! TO.N,GND*
X11430000Y-15240000D03*
G04 #@! TD*
D20*
G04 #@! TO.P,D4,2*
G04 #@! TO.N,-12V*
X20320000Y-76835000D03*
D21*
G04 #@! TO.P,D4,1*
G04 #@! TO.N,-12VA*
X20320000Y-84455000D03*
G04 #@! TD*
D20*
G04 #@! TO.P,D3,2*
G04 #@! TO.N,+12VA*
X25400000Y-84455000D03*
D21*
G04 #@! TO.P,D3,1*
G04 #@! TO.N,+12V*
X25400000Y-76835000D03*
G04 #@! TD*
D12*
G04 #@! TO.P,C9,2*
G04 #@! TO.N,-12V*
X17225000Y-64770000D03*
G04 #@! TO.P,C9,1*
G04 #@! TO.N,GND*
X22225000Y-64770000D03*
G04 #@! TD*
G04 #@! TO.P,C8,2*
G04 #@! TO.N,GND*
X17225000Y-50800000D03*
G04 #@! TO.P,C8,1*
G04 #@! TO.N,+12V*
X22225000Y-50800000D03*
G04 #@! TD*
G04 #@! TO.P,C7,2*
G04 #@! TO.N,-12V*
X16590000Y-47625000D03*
G04 #@! TO.P,C7,1*
G04 #@! TO.N,GND*
X21590000Y-47625000D03*
G04 #@! TD*
G04 #@! TO.P,C6,2*
G04 #@! TO.N,GND*
X16590000Y-6350000D03*
G04 #@! TO.P,C6,1*
G04 #@! TO.N,+12V*
X21590000Y-6350000D03*
G04 #@! TD*
G04 #@! TO.P,C5,2*
G04 #@! TO.N,-12V*
X16590000Y-20320000D03*
G04 #@! TO.P,C5,1*
G04 #@! TO.N,GND*
X21590000Y-20320000D03*
G04 #@! TD*
G04 #@! TO.P,C4,2*
G04 #@! TO.N,GND*
X16590000Y-33655000D03*
G04 #@! TO.P,C4,1*
G04 #@! TO.N,+12V*
X21590000Y-33655000D03*
G04 #@! TD*
G04 #@! TO.P,C1,2*
G04 #@! TO.N,Net-(C1-Pad2)*
X1350000Y-3175000D03*
G04 #@! TO.P,C1,1*
G04 #@! TO.N,TRI*
X6350000Y-3175000D03*
G04 #@! TD*
D22*
G04 #@! TO.P,Q1,1*
G04 #@! TO.N,Net-(Q1-Pad1)*
X6350000Y-33655000D03*
D23*
G04 #@! TO.P,Q1,3*
G04 #@! TO.N,GND*
X6350000Y-36195000D03*
G04 #@! TO.P,Q1,2*
G04 #@! TO.N,Net-(Q1-Pad2)*
X6350000Y-34925000D03*
G04 #@! TD*
D10*
G04 #@! TO.P,J5,-12V*
G04 #@! TO.N,-12VA*
X25400000Y-99060000D03*
X22860000Y-99060000D03*
G04 #@! TO.P,J5,GND*
G04 #@! TO.N,GND*
X25400000Y-96520000D03*
X22860000Y-96520000D03*
X25400000Y-93980000D03*
X22860000Y-93980000D03*
X25400000Y-91440000D03*
X22860000Y-91440000D03*
G04 #@! TO.P,J5,+12V*
G04 #@! TO.N,+12VA*
X25400000Y-88900000D03*
D11*
X22860000Y-88900000D03*
G04 #@! TD*
D16*
G04 #@! TO.P,D2,2*
G04 #@! TO.N,Net-(D1-Pad1)*
X2540000Y-55245000D03*
D24*
G04 #@! TO.P,D2,1*
G04 #@! TO.N,Net-(D1-Pad2)*
X2540000Y-52705000D03*
G04 #@! TD*
D16*
G04 #@! TO.P,D1,2*
G04 #@! TO.N,Net-(D1-Pad2)*
X6985000Y-52705000D03*
D24*
G04 #@! TO.P,D1,1*
G04 #@! TO.N,Net-(D1-Pad1)*
X6985000Y-55245000D03*
G04 #@! TD*
D25*
G04 #@! TO.P,C3,2*
G04 #@! TO.N,-12V*
X20320000Y-73255000D03*
D26*
G04 #@! TO.P,C3,1*
G04 #@! TO.N,GND*
X20320000Y-71755000D03*
G04 #@! TD*
D25*
G04 #@! TO.P,C2,2*
G04 #@! TO.N,GND*
X25400000Y-71755000D03*
D26*
G04 #@! TO.P,C2,1*
G04 #@! TO.N,+12V*
X25400000Y-73255000D03*
G04 #@! TD*
D27*
G04 #@! TO.N,TRI*
X19050000Y-10160000D03*
X19050000Y-26035000D03*
X6350000Y-26035000D03*
X19050000Y-3810000D03*
G04 #@! TO.N,GND*
X19050000Y-33655000D03*
X19050000Y-48260000D03*
X12700000Y-59055000D03*
X3810000Y-1905000D03*
X3175000Y-7620000D03*
X12700000Y-45085000D03*
X4445000Y-53975000D03*
G04 #@! TO.N,Net-(D1-Pad2)*
X19685000Y-52705000D03*
G04 #@! TO.N,Net-(J4-PadT)*
X6985000Y-57785000D03*
G04 #@! TO.N,Net-(Q1-Pad1)*
X12700000Y-33655000D03*
X12700000Y-41910000D03*
G04 #@! TO.N,Net-(Q1-Pad2)*
X3175000Y-34925000D03*
G04 #@! TO.N,SQR*
X26035000Y-24765000D03*
X3175000Y-24765000D03*
X26035000Y-43180000D03*
X26035000Y-57785000D03*
G04 #@! TO.N,Net-(R6-Pad2)*
X1270000Y-9525000D03*
X1270000Y-39370000D03*
G04 #@! TO.N,Net-(R11-Pad2)*
X11430000Y-39370000D03*
G04 #@! TO.N,Net-(R11-Pad1)*
X19050000Y-36830000D03*
X19050000Y-46355000D03*
X10795000Y-46355000D03*
G04 #@! TO.N,Net-(R13-Pad1)*
X27305000Y-27940000D03*
X27305000Y-41910000D03*
G04 #@! TO.N,Net-(R14-Pad1)*
X24765000Y-30480000D03*
X24765000Y-39370000D03*
X1270000Y-41910000D03*
G04 #@! TO.N,Net-(D1-Pad2)*
X19685000Y-60325000D03*
G04 #@! TD*
D28*
G04 #@! TO.N,TRI*
X19050000Y-10160000D02*
X19050000Y-26035000D01*
X6350000Y-26035000D02*
X6350000Y-27940000D01*
X9525000Y-66675000D02*
X10795000Y-67945000D01*
X9525000Y-30480000D02*
X9525000Y-66675000D01*
X19050000Y-3810000D02*
X19050000Y-10160000D01*
X26035000Y-8255000D02*
X24765000Y-6985000D01*
X26035000Y-11430000D02*
X26035000Y-8255000D01*
D29*
G04 #@! TO.N,+12V*
X21590000Y-6350000D02*
X20320000Y-6350000D01*
X22860000Y-9525000D02*
X20320000Y-9525000D01*
X20320000Y-6350000D02*
X20320000Y-9525000D01*
X20320000Y-36830000D02*
X22860000Y-36830000D01*
X21590000Y-33655000D02*
X20320000Y-33655000D01*
X20320000Y-33655000D02*
X20320000Y-36830000D01*
X20320000Y-9525000D02*
X20320000Y-33655000D01*
X20955000Y-53975000D02*
X23495000Y-53975000D01*
X20320000Y-48895000D02*
X20955000Y-49530000D01*
X20320000Y-36830000D02*
X20320000Y-48895000D01*
X22225000Y-50800000D02*
X20955000Y-50800000D01*
X20955000Y-50800000D02*
X20955000Y-53975000D01*
X20955000Y-49530000D02*
X20955000Y-50800000D01*
X20955000Y-53975000D02*
X20955000Y-67310000D01*
X20955000Y-67310000D02*
X20955000Y-69215000D01*
X20955000Y-69215000D02*
X21590000Y-69850000D01*
X21590000Y-69850000D02*
X22860000Y-69850000D01*
X22860000Y-69850000D02*
X23495000Y-70485000D01*
X23495000Y-70485000D02*
X23495000Y-73025000D01*
X23725000Y-73255000D02*
X23495000Y-73025000D01*
X25400000Y-73255000D02*
X23725000Y-73255000D01*
X25400000Y-73255000D02*
X25400000Y-76835000D01*
G04 #@! TO.N,-12V*
X15240000Y-17145000D02*
X17780000Y-17145000D01*
X16590000Y-20320000D02*
X17780000Y-20320000D01*
X17780000Y-17145000D02*
X17780000Y-20320000D01*
X17780000Y-44450000D02*
X15240000Y-44450000D01*
X17790001Y-44439999D02*
X17780000Y-44450000D01*
X17780000Y-33068998D02*
X17790001Y-33078999D01*
X17790001Y-33078999D02*
X17790001Y-44439999D01*
X17780000Y-20320000D02*
X17780000Y-33068998D01*
X17790001Y-44439999D02*
X17790001Y-47614999D01*
X17780000Y-47625000D02*
X16590000Y-47625000D01*
X17790001Y-47614999D02*
X17780000Y-47625000D01*
X17790001Y-47614999D02*
X17790001Y-48884999D01*
X17790001Y-48884999D02*
X18415000Y-49509998D01*
X18415000Y-50213998D02*
X18425001Y-50223999D01*
X18415000Y-49509998D02*
X18415000Y-50213998D01*
X18415000Y-61595000D02*
X18425001Y-61605001D01*
X15875000Y-61595000D02*
X18415000Y-61595000D01*
X18425001Y-50223999D02*
X18425001Y-61605001D01*
X18415000Y-64770000D02*
X17225000Y-64770000D01*
X18425001Y-64759999D02*
X18415000Y-64770000D01*
X18425001Y-61605001D02*
X18425001Y-64759999D01*
X18425001Y-64759999D02*
X18415000Y-67310000D01*
X18415000Y-67310000D02*
X18415000Y-73025000D01*
X18645000Y-73255000D02*
X18415000Y-73025000D01*
X20320000Y-73255000D02*
X18645000Y-73255000D01*
X20320000Y-73255000D02*
X20320000Y-76835000D01*
G04 #@! TO.N,+12VA*
X25400000Y-84455000D02*
X25400000Y-88900000D01*
X22860000Y-88900000D02*
X25400000Y-88900000D01*
G04 #@! TO.N,-12VA*
X20320000Y-84455000D02*
X20320000Y-99060000D01*
X20320000Y-99060000D02*
X22860000Y-99060000D01*
X22860000Y-99060000D02*
X25400000Y-99060000D01*
D28*
G04 #@! TO.N,Net-(J1-PadT)*
X7000000Y-92060000D02*
X8255000Y-90805000D01*
X7000000Y-96520000D02*
X7000000Y-92060000D01*
G04 #@! TO.N,Net-(J2-PadT)*
X7000000Y-80630000D02*
X8255000Y-79375000D01*
X7000000Y-85090000D02*
X7000000Y-80630000D01*
G04 #@! TO.N,Net-(J3-PadT)*
X7000000Y-69200000D02*
X8255000Y-67945000D01*
X7000000Y-73660000D02*
X7000000Y-69200000D01*
G04 #@! TO.N,Net-(J4-PadT)*
X6985000Y-62230000D02*
X6985000Y-57785000D01*
X6985000Y-57785000D02*
X6985000Y-57785000D01*
G04 #@! TO.N,Net-(Q1-Pad1)*
X6350000Y-30480000D02*
X6350000Y-33655000D01*
X12700000Y-33655000D02*
X12700000Y-41910000D01*
X12700000Y-41910000D02*
X12700000Y-41910000D01*
G04 #@! TO.N,Net-(Q1-Pad2)*
X3175000Y-30480000D02*
X3175000Y-34925000D01*
X3175000Y-34925000D02*
X3175000Y-34925000D01*
G04 #@! TO.N,SQR*
X26035000Y-19685000D02*
X26035000Y-24765000D01*
X26035000Y-24765000D02*
X26035000Y-24765000D01*
X3175000Y-24765000D02*
X3175000Y-27940000D01*
X26035000Y-24765000D02*
X26035000Y-43180000D01*
X26035000Y-43180000D02*
X26035000Y-43180000D01*
X26035000Y-43180000D02*
X26035000Y-57785000D01*
X26035000Y-57785000D02*
X26035000Y-57785000D01*
G04 #@! TO.N,Net-(R6-Pad2)*
X1270000Y-9525000D02*
X1270000Y-39370000D01*
X1270000Y-39370000D02*
X1270000Y-39370000D01*
G04 #@! TO.N,Net-(R6-Pad1)*
X5715000Y-39370000D02*
X5715000Y-41990000D01*
G04 #@! TO.N,Net-(R7-Pad2)*
X5715000Y-46990000D02*
X5715000Y-49530000D01*
G04 #@! TO.N,Net-(R11-Pad2)*
X12700000Y-27940000D02*
X11430000Y-29210000D01*
X11430000Y-29210000D02*
X11430000Y-39370000D01*
X11430000Y-39370000D02*
X11430000Y-39370000D01*
G04 #@! TO.N,Net-(R11-Pad1)*
X15240000Y-31115000D02*
X15875000Y-30480000D01*
X15240000Y-36830000D02*
X15240000Y-31115000D01*
X19050000Y-36830000D02*
X19050000Y-46355000D01*
X19050000Y-46355000D02*
X19050000Y-46355000D01*
X15240000Y-90170000D02*
X14605000Y-90805000D01*
X14605000Y-65405000D02*
X15240000Y-66040000D01*
X11430000Y-65405000D02*
X14605000Y-65405000D01*
X15240000Y-66040000D02*
X15240000Y-90170000D01*
X10795000Y-64770000D02*
X11430000Y-65405000D01*
X14605000Y-90805000D02*
X10795000Y-90805000D01*
X10795000Y-46355000D02*
X10795000Y-64770000D01*
G04 #@! TO.N,Net-(R13-Pad1)*
X27305000Y-27940000D02*
X27305000Y-41910000D01*
G04 #@! TO.N,Net-(R14-Pad1)*
X24765000Y-30480000D02*
X24765000Y-39370000D01*
X10795000Y-77470000D02*
X10795000Y-79375000D01*
X3810000Y-76200000D02*
X4445000Y-76835000D01*
X3810000Y-58420000D02*
X3810000Y-76200000D01*
X4445000Y-76835000D02*
X10160000Y-76835000D01*
X3175000Y-57785000D02*
X3810000Y-58420000D01*
X1905000Y-57785000D02*
X3175000Y-57785000D01*
X10160000Y-76835000D02*
X10795000Y-77470000D01*
X1270000Y-57150000D02*
X1905000Y-57785000D01*
X1270000Y-41910000D02*
X1270000Y-57150000D01*
G04 #@! TO.N,Net-(R17-Pad2)*
X15875000Y-53975000D02*
X15875000Y-56515000D01*
G04 #@! TO.N,Net-(D1-Pad2)*
X25400000Y-65405000D02*
X25400000Y-59690000D01*
X25400000Y-59690000D02*
X24765000Y-59055000D01*
X24765000Y-59055000D02*
X23495000Y-59055000D01*
X19685000Y-60325000D02*
X19685000Y-52705000D01*
G04 #@! TO.N,Net-(J6-Pad1)*
X11430000Y-12065000D02*
X9525000Y-10160000D01*
X9525000Y-10160000D02*
X9525000Y-7620000D01*
X9525000Y-7620000D02*
X9525000Y-5080000D01*
X9525000Y-5080000D02*
X9525000Y-2540000D01*
G04 #@! TD*
D30*
G04 #@! TO.N,GND*
X27203061Y-42945000D02*
X27280001Y-42945000D01*
X27280000Y-100940000D01*
X660000Y-100940000D01*
X660000Y-98734304D01*
X897239Y-98900010D01*
X1191645Y-99029144D01*
X1319566Y-99060124D01*
X1573000Y-98940777D01*
X1573000Y-96647000D01*
X1827000Y-96647000D01*
X1827000Y-98940777D01*
X2080434Y-99060124D01*
X2208355Y-99029144D01*
X2502761Y-98900010D01*
X2766317Y-98715922D01*
X2988895Y-98483954D01*
X3161942Y-98213020D01*
X3278807Y-97913532D01*
X3335000Y-97597000D01*
X3335000Y-96647000D01*
X1827000Y-96647000D01*
X1573000Y-96647000D01*
X1553000Y-96647000D01*
X1553000Y-96393000D01*
X1573000Y-96393000D01*
X1573000Y-94099223D01*
X1827000Y-94099223D01*
X1827000Y-96393000D01*
X3335000Y-96393000D01*
X3335000Y-95443000D01*
X3278807Y-95126468D01*
X3161942Y-94826980D01*
X2988895Y-94556046D01*
X2766317Y-94324078D01*
X2502761Y-94139990D01*
X2208355Y-94010856D01*
X2080434Y-93979876D01*
X1827000Y-94099223D01*
X1573000Y-94099223D01*
X1319566Y-93979876D01*
X1191645Y-94010856D01*
X897239Y-94139990D01*
X660000Y-94305696D01*
X660000Y-87304304D01*
X897239Y-87470010D01*
X1191645Y-87599144D01*
X1319566Y-87630124D01*
X1573000Y-87510777D01*
X1573000Y-85217000D01*
X1827000Y-85217000D01*
X1827000Y-87510777D01*
X2080434Y-87630124D01*
X2208355Y-87599144D01*
X2502761Y-87470010D01*
X2766317Y-87285922D01*
X2988895Y-87053954D01*
X3161942Y-86783020D01*
X3278807Y-86483532D01*
X3335000Y-86167000D01*
X3335000Y-85217000D01*
X1827000Y-85217000D01*
X1573000Y-85217000D01*
X1553000Y-85217000D01*
X1553000Y-84963000D01*
X1573000Y-84963000D01*
X1573000Y-82669223D01*
X1827000Y-82669223D01*
X1827000Y-84963000D01*
X3335000Y-84963000D01*
X3335000Y-84013000D01*
X3278807Y-83696468D01*
X3161942Y-83396980D01*
X2988895Y-83126046D01*
X2766317Y-82894078D01*
X2502761Y-82709990D01*
X2208355Y-82580856D01*
X2080434Y-82549876D01*
X1827000Y-82669223D01*
X1573000Y-82669223D01*
X1319566Y-82549876D01*
X1191645Y-82580856D01*
X897239Y-82709990D01*
X660000Y-82875696D01*
X660000Y-75874304D01*
X897239Y-76040010D01*
X1191645Y-76169144D01*
X1319566Y-76200124D01*
X1573000Y-76080777D01*
X1573000Y-73787000D01*
X1553000Y-73787000D01*
X1553000Y-73533000D01*
X1573000Y-73533000D01*
X1573000Y-71239223D01*
X1319566Y-71119876D01*
X1191645Y-71150856D01*
X897239Y-71279990D01*
X660000Y-71445696D01*
X660000Y-64444304D01*
X897239Y-64610010D01*
X1191645Y-64739144D01*
X1319566Y-64770124D01*
X1573000Y-64650777D01*
X1573000Y-62357000D01*
X1553000Y-62357000D01*
X1553000Y-62103000D01*
X1573000Y-62103000D01*
X1573000Y-59809223D01*
X1319566Y-59689876D01*
X1191645Y-59720856D01*
X897239Y-59849990D01*
X660000Y-60015696D01*
X660000Y-57604707D01*
X689592Y-57640764D01*
X730000Y-57690001D01*
X758998Y-57713799D01*
X1341200Y-58296002D01*
X1364999Y-58325001D01*
X1480724Y-58419974D01*
X1612753Y-58490546D01*
X1756014Y-58534003D01*
X1905000Y-58548677D01*
X1942333Y-58545000D01*
X2860199Y-58545000D01*
X3050000Y-58734802D01*
X3050000Y-60361716D01*
X2988895Y-60266046D01*
X2766317Y-60034078D01*
X2502761Y-59849990D01*
X2208355Y-59720856D01*
X2080434Y-59689876D01*
X1827000Y-59809223D01*
X1827000Y-62103000D01*
X1847000Y-62103000D01*
X1847000Y-62357000D01*
X1827000Y-62357000D01*
X1827000Y-64650777D01*
X2080434Y-64770124D01*
X2208355Y-64739144D01*
X2502761Y-64610010D01*
X2766317Y-64425922D01*
X2988895Y-64193954D01*
X3050000Y-64098283D01*
X3050001Y-71791717D01*
X2988895Y-71696046D01*
X2766317Y-71464078D01*
X2502761Y-71279990D01*
X2208355Y-71150856D01*
X2080434Y-71119876D01*
X1827000Y-71239223D01*
X1827000Y-73533000D01*
X1847000Y-73533000D01*
X1847000Y-73787000D01*
X1827000Y-73787000D01*
X1827000Y-76080777D01*
X2080434Y-76200124D01*
X2208355Y-76169144D01*
X2502761Y-76040010D01*
X2766317Y-75855922D01*
X2988895Y-75623954D01*
X3050001Y-75528282D01*
X3050001Y-76162667D01*
X3046324Y-76200000D01*
X3060998Y-76348985D01*
X3104454Y-76492246D01*
X3175026Y-76624276D01*
X3242361Y-76706323D01*
X3270000Y-76740001D01*
X3298998Y-76763799D01*
X3881200Y-77346002D01*
X3904999Y-77375001D01*
X4020724Y-77469974D01*
X4152753Y-77540546D01*
X4296014Y-77584003D01*
X4445000Y-77598677D01*
X4482333Y-77595000D01*
X9845199Y-77595000D01*
X10035000Y-77784802D01*
X10035000Y-78156956D01*
X9880241Y-78260363D01*
X9680363Y-78460241D01*
X9525000Y-78692759D01*
X9369637Y-78460241D01*
X9169759Y-78260363D01*
X8934727Y-78103320D01*
X8673574Y-77995147D01*
X8396335Y-77940000D01*
X8113665Y-77940000D01*
X7836426Y-77995147D01*
X7575273Y-78103320D01*
X7340241Y-78260363D01*
X7140363Y-78460241D01*
X6983320Y-78695273D01*
X6875147Y-78956426D01*
X6820000Y-79233665D01*
X6820000Y-79516335D01*
X6856312Y-79698886D01*
X6488998Y-80066201D01*
X6460000Y-80089999D01*
X6436202Y-80118997D01*
X6436201Y-80118998D01*
X6365026Y-80205724D01*
X6294454Y-80337754D01*
X6250998Y-80481015D01*
X6236324Y-80630000D01*
X6240001Y-80667332D01*
X6240001Y-82692321D01*
X6087248Y-82773969D01*
X5838286Y-82978286D01*
X5633969Y-83227249D01*
X5482148Y-83511286D01*
X5388657Y-83819485D01*
X5365000Y-84059679D01*
X5365001Y-86120322D01*
X5388658Y-86360516D01*
X5482149Y-86668715D01*
X5633970Y-86952752D01*
X5838287Y-87201714D01*
X6087249Y-87406031D01*
X6371286Y-87557852D01*
X6679485Y-87651343D01*
X7000000Y-87682911D01*
X7320516Y-87651343D01*
X7628715Y-87557852D01*
X7912752Y-87406031D01*
X8161714Y-87201714D01*
X8366031Y-86952752D01*
X8517852Y-86668715D01*
X8611343Y-86360516D01*
X8635000Y-86120322D01*
X8635000Y-84059679D01*
X11165000Y-84059679D01*
X11165001Y-86120322D01*
X11188658Y-86360516D01*
X11282149Y-86668715D01*
X11433970Y-86952752D01*
X11638287Y-87201714D01*
X11887249Y-87406031D01*
X12171286Y-87557852D01*
X12479485Y-87651343D01*
X12800000Y-87682911D01*
X13120516Y-87651343D01*
X13428715Y-87557852D01*
X13712752Y-87406031D01*
X13961714Y-87201714D01*
X14166031Y-86952752D01*
X14317852Y-86668715D01*
X14411343Y-86360516D01*
X14435000Y-86120322D01*
X14435000Y-84059678D01*
X14411343Y-83819484D01*
X14317852Y-83511285D01*
X14166031Y-83227248D01*
X13961714Y-82978286D01*
X13712751Y-82773969D01*
X13428714Y-82622148D01*
X13120515Y-82528657D01*
X12800000Y-82497089D01*
X12479484Y-82528657D01*
X12171285Y-82622148D01*
X11887248Y-82773969D01*
X11638286Y-82978286D01*
X11433969Y-83227249D01*
X11282148Y-83511286D01*
X11188657Y-83819485D01*
X11165000Y-84059679D01*
X8635000Y-84059679D01*
X8635000Y-84059678D01*
X8611343Y-83819484D01*
X8517852Y-83511285D01*
X8366031Y-83227248D01*
X8161714Y-82978286D01*
X7912751Y-82773969D01*
X7760000Y-82692322D01*
X7760000Y-80944801D01*
X7931114Y-80773688D01*
X8113665Y-80810000D01*
X8396335Y-80810000D01*
X8673574Y-80754853D01*
X8934727Y-80646680D01*
X9169759Y-80489637D01*
X9369637Y-80289759D01*
X9525000Y-80057241D01*
X9680363Y-80289759D01*
X9880241Y-80489637D01*
X10115273Y-80646680D01*
X10376426Y-80754853D01*
X10653665Y-80810000D01*
X10936335Y-80810000D01*
X11213574Y-80754853D01*
X11474727Y-80646680D01*
X11709759Y-80489637D01*
X11909637Y-80289759D01*
X12066680Y-80054727D01*
X12174853Y-79793574D01*
X12230000Y-79516335D01*
X12230000Y-79233665D01*
X12174853Y-78956426D01*
X12066680Y-78695273D01*
X11909637Y-78460241D01*
X11709759Y-78260363D01*
X11555000Y-78156957D01*
X11555000Y-77507333D01*
X11558677Y-77470000D01*
X11544003Y-77321014D01*
X11500546Y-77177753D01*
X11429974Y-77045724D01*
X11358799Y-76958997D01*
X11335001Y-76929999D01*
X11306004Y-76906202D01*
X10723803Y-76324002D01*
X10700001Y-76294999D01*
X10584276Y-76200026D01*
X10452247Y-76129454D01*
X10308986Y-76085997D01*
X10197333Y-76075000D01*
X10197322Y-76075000D01*
X10160000Y-76071324D01*
X10122678Y-76075000D01*
X7727594Y-76075000D01*
X7912752Y-75976031D01*
X8161714Y-75771714D01*
X8366031Y-75522752D01*
X8517852Y-75238715D01*
X8611343Y-74930516D01*
X8635000Y-74690322D01*
X8635000Y-72629679D01*
X11165000Y-72629679D01*
X11165001Y-74690322D01*
X11188658Y-74930516D01*
X11282149Y-75238715D01*
X11433970Y-75522752D01*
X11638287Y-75771714D01*
X11887249Y-75976031D01*
X12171286Y-76127852D01*
X12479485Y-76221343D01*
X12800000Y-76252911D01*
X13120516Y-76221343D01*
X13428715Y-76127852D01*
X13712752Y-75976031D01*
X13961714Y-75771714D01*
X14166031Y-75522752D01*
X14317852Y-75238715D01*
X14411343Y-74930516D01*
X14435000Y-74690322D01*
X14435000Y-72629678D01*
X14411343Y-72389484D01*
X14317852Y-72081285D01*
X14166031Y-71797248D01*
X13961714Y-71548286D01*
X13712751Y-71343969D01*
X13428714Y-71192148D01*
X13120515Y-71098657D01*
X12800000Y-71067089D01*
X12479484Y-71098657D01*
X12171285Y-71192148D01*
X11887248Y-71343969D01*
X11638286Y-71548286D01*
X11433969Y-71797249D01*
X11282148Y-72081286D01*
X11188657Y-72389485D01*
X11165000Y-72629679D01*
X8635000Y-72629679D01*
X8635000Y-72629678D01*
X8611343Y-72389484D01*
X8517852Y-72081285D01*
X8366031Y-71797248D01*
X8161714Y-71548286D01*
X7912751Y-71343969D01*
X7760000Y-71262322D01*
X7760000Y-69514801D01*
X7931114Y-69343688D01*
X8113665Y-69380000D01*
X8396335Y-69380000D01*
X8673574Y-69324853D01*
X8934727Y-69216680D01*
X9169759Y-69059637D01*
X9369637Y-68859759D01*
X9525000Y-68627241D01*
X9680363Y-68859759D01*
X9880241Y-69059637D01*
X10115273Y-69216680D01*
X10376426Y-69324853D01*
X10653665Y-69380000D01*
X10936335Y-69380000D01*
X11213574Y-69324853D01*
X11474727Y-69216680D01*
X11709759Y-69059637D01*
X11909637Y-68859759D01*
X12066680Y-68624727D01*
X12174853Y-68363574D01*
X12230000Y-68086335D01*
X12230000Y-67803665D01*
X12174853Y-67526426D01*
X12066680Y-67265273D01*
X11909637Y-67030241D01*
X11709759Y-66830363D01*
X11474727Y-66673320D01*
X11213574Y-66565147D01*
X10936335Y-66510000D01*
X10653665Y-66510000D01*
X10471114Y-66546312D01*
X10285000Y-66360199D01*
X10285000Y-65334801D01*
X10866200Y-65916002D01*
X10889999Y-65945001D01*
X10965144Y-66006671D01*
X11005724Y-66039974D01*
X11137753Y-66110546D01*
X11281014Y-66154003D01*
X11430000Y-66168677D01*
X11467333Y-66165000D01*
X14290199Y-66165000D01*
X14480000Y-66354802D01*
X14480001Y-89855197D01*
X14290199Y-90045000D01*
X12013043Y-90045000D01*
X11909637Y-89890241D01*
X11709759Y-89690363D01*
X11474727Y-89533320D01*
X11213574Y-89425147D01*
X10936335Y-89370000D01*
X10653665Y-89370000D01*
X10376426Y-89425147D01*
X10115273Y-89533320D01*
X9880241Y-89690363D01*
X9680363Y-89890241D01*
X9525000Y-90122759D01*
X9369637Y-89890241D01*
X9169759Y-89690363D01*
X8934727Y-89533320D01*
X8673574Y-89425147D01*
X8396335Y-89370000D01*
X8113665Y-89370000D01*
X7836426Y-89425147D01*
X7575273Y-89533320D01*
X7340241Y-89690363D01*
X7140363Y-89890241D01*
X6983320Y-90125273D01*
X6875147Y-90386426D01*
X6820000Y-90663665D01*
X6820000Y-90946335D01*
X6856312Y-91128886D01*
X6488998Y-91496201D01*
X6460000Y-91519999D01*
X6436202Y-91548997D01*
X6436201Y-91548998D01*
X6365026Y-91635724D01*
X6294454Y-91767754D01*
X6250998Y-91911015D01*
X6236324Y-92060000D01*
X6240001Y-92097332D01*
X6240001Y-94122321D01*
X6087248Y-94203969D01*
X5838286Y-94408286D01*
X5633969Y-94657249D01*
X5482148Y-94941286D01*
X5388657Y-95249485D01*
X5365000Y-95489679D01*
X5365001Y-97550322D01*
X5388658Y-97790516D01*
X5482149Y-98098715D01*
X5633970Y-98382752D01*
X5838287Y-98631714D01*
X6087249Y-98836031D01*
X6371286Y-98987852D01*
X6679485Y-99081343D01*
X7000000Y-99112911D01*
X7320516Y-99081343D01*
X7628715Y-98987852D01*
X7912752Y-98836031D01*
X8161714Y-98631714D01*
X8366031Y-98382752D01*
X8517852Y-98098715D01*
X8611343Y-97790516D01*
X8635000Y-97550322D01*
X8635000Y-95489679D01*
X11165000Y-95489679D01*
X11165001Y-97550322D01*
X11188658Y-97790516D01*
X11282149Y-98098715D01*
X11433970Y-98382752D01*
X11638287Y-98631714D01*
X11887249Y-98836031D01*
X12171286Y-98987852D01*
X12479485Y-99081343D01*
X12800000Y-99112911D01*
X13120516Y-99081343D01*
X13428715Y-98987852D01*
X13712752Y-98836031D01*
X13961714Y-98631714D01*
X14166031Y-98382752D01*
X14317852Y-98098715D01*
X14411343Y-97790516D01*
X14435000Y-97550322D01*
X14435000Y-95489678D01*
X14411343Y-95249484D01*
X14317852Y-94941285D01*
X14166031Y-94657248D01*
X13961714Y-94408286D01*
X13712751Y-94203969D01*
X13428714Y-94052148D01*
X13120515Y-93958657D01*
X12800000Y-93927089D01*
X12479484Y-93958657D01*
X12171285Y-94052148D01*
X11887248Y-94203969D01*
X11638286Y-94408286D01*
X11433969Y-94657249D01*
X11282148Y-94941286D01*
X11188657Y-95249485D01*
X11165000Y-95489679D01*
X8635000Y-95489679D01*
X8635000Y-95489678D01*
X8611343Y-95249484D01*
X8517852Y-94941285D01*
X8366031Y-94657248D01*
X8161714Y-94408286D01*
X7912751Y-94203969D01*
X7760000Y-94122322D01*
X7760000Y-92374801D01*
X7931114Y-92203688D01*
X8113665Y-92240000D01*
X8396335Y-92240000D01*
X8673574Y-92184853D01*
X8934727Y-92076680D01*
X9169759Y-91919637D01*
X9369637Y-91719759D01*
X9525000Y-91487241D01*
X9680363Y-91719759D01*
X9880241Y-91919637D01*
X10115273Y-92076680D01*
X10376426Y-92184853D01*
X10653665Y-92240000D01*
X10936335Y-92240000D01*
X11213574Y-92184853D01*
X11474727Y-92076680D01*
X11709759Y-91919637D01*
X11909637Y-91719759D01*
X12013043Y-91565000D01*
X14567678Y-91565000D01*
X14605000Y-91568676D01*
X14642322Y-91565000D01*
X14642333Y-91565000D01*
X14753986Y-91554003D01*
X14897247Y-91510546D01*
X15029276Y-91439974D01*
X15145001Y-91345001D01*
X15168803Y-91315998D01*
X15751002Y-90733800D01*
X15780001Y-90710001D01*
X15874974Y-90594276D01*
X15945546Y-90462247D01*
X15989003Y-90318986D01*
X16000000Y-90207333D01*
X16003677Y-90170000D01*
X16000000Y-90132667D01*
X16000000Y-83355000D01*
X18581928Y-83355000D01*
X18581928Y-85555000D01*
X18594188Y-85679482D01*
X18630498Y-85799180D01*
X18689463Y-85909494D01*
X18768815Y-86006185D01*
X18865506Y-86085537D01*
X18975820Y-86144502D01*
X19095518Y-86180812D01*
X19220000Y-86193072D01*
X19485000Y-86193072D01*
X19485001Y-99018971D01*
X19480960Y-99060000D01*
X19497082Y-99223689D01*
X19544828Y-99381087D01*
X19622364Y-99526146D01*
X19726709Y-99653291D01*
X19853854Y-99757636D01*
X19998913Y-99835172D01*
X20156311Y-99882918D01*
X20278981Y-99895000D01*
X20278982Y-99895000D01*
X20320000Y-99899040D01*
X20361019Y-99895000D01*
X21631935Y-99895000D01*
X21706525Y-100006632D01*
X21913368Y-100213475D01*
X22156589Y-100375990D01*
X22426842Y-100487932D01*
X22713740Y-100545000D01*
X23006260Y-100545000D01*
X23293158Y-100487932D01*
X23563411Y-100375990D01*
X23806632Y-100213475D01*
X24013475Y-100006632D01*
X24088065Y-99895000D01*
X24171935Y-99895000D01*
X24246525Y-100006632D01*
X24453368Y-100213475D01*
X24696589Y-100375990D01*
X24966842Y-100487932D01*
X25253740Y-100545000D01*
X25546260Y-100545000D01*
X25833158Y-100487932D01*
X26103411Y-100375990D01*
X26346632Y-100213475D01*
X26553475Y-100006632D01*
X26715990Y-99763411D01*
X26827932Y-99493158D01*
X26885000Y-99206260D01*
X26885000Y-98913740D01*
X26827932Y-98626842D01*
X26715990Y-98356589D01*
X26553475Y-98113368D01*
X26346632Y-97906525D01*
X26164466Y-97784805D01*
X26281355Y-97715178D01*
X26497588Y-97520269D01*
X26671641Y-97286920D01*
X26796825Y-97024099D01*
X26841476Y-96876890D01*
X26720155Y-96647000D01*
X25527000Y-96647000D01*
X25527000Y-96667000D01*
X25273000Y-96667000D01*
X25273000Y-96647000D01*
X22987000Y-96647000D01*
X22987000Y-96667000D01*
X22733000Y-96667000D01*
X22733000Y-96647000D01*
X21539845Y-96647000D01*
X21418524Y-96876890D01*
X21463175Y-97024099D01*
X21588359Y-97286920D01*
X21762412Y-97520269D01*
X21978645Y-97715178D01*
X22095534Y-97784805D01*
X21913368Y-97906525D01*
X21706525Y-98113368D01*
X21631935Y-98225000D01*
X21155000Y-98225000D01*
X21155000Y-94336890D01*
X21418524Y-94336890D01*
X21463175Y-94484099D01*
X21588359Y-94746920D01*
X21762412Y-94980269D01*
X21978645Y-95175178D01*
X22104255Y-95250000D01*
X21978645Y-95324822D01*
X21762412Y-95519731D01*
X21588359Y-95753080D01*
X21463175Y-96015901D01*
X21418524Y-96163110D01*
X21539845Y-96393000D01*
X22733000Y-96393000D01*
X22733000Y-94107000D01*
X22987000Y-94107000D01*
X22987000Y-96393000D01*
X25273000Y-96393000D01*
X25273000Y-94107000D01*
X25527000Y-94107000D01*
X25527000Y-96393000D01*
X26720155Y-96393000D01*
X26841476Y-96163110D01*
X26796825Y-96015901D01*
X26671641Y-95753080D01*
X26497588Y-95519731D01*
X26281355Y-95324822D01*
X26155745Y-95250000D01*
X26281355Y-95175178D01*
X26497588Y-94980269D01*
X26671641Y-94746920D01*
X26796825Y-94484099D01*
X26841476Y-94336890D01*
X26720155Y-94107000D01*
X25527000Y-94107000D01*
X25273000Y-94107000D01*
X22987000Y-94107000D01*
X22733000Y-94107000D01*
X21539845Y-94107000D01*
X21418524Y-94336890D01*
X21155000Y-94336890D01*
X21155000Y-91796890D01*
X21418524Y-91796890D01*
X21463175Y-91944099D01*
X21588359Y-92206920D01*
X21762412Y-92440269D01*
X21978645Y-92635178D01*
X22104255Y-92710000D01*
X21978645Y-92784822D01*
X21762412Y-92979731D01*
X21588359Y-93213080D01*
X21463175Y-93475901D01*
X21418524Y-93623110D01*
X21539845Y-93853000D01*
X22733000Y-93853000D01*
X22733000Y-91567000D01*
X22987000Y-91567000D01*
X22987000Y-93853000D01*
X25273000Y-93853000D01*
X25273000Y-91567000D01*
X25527000Y-91567000D01*
X25527000Y-93853000D01*
X26720155Y-93853000D01*
X26841476Y-93623110D01*
X26796825Y-93475901D01*
X26671641Y-93213080D01*
X26497588Y-92979731D01*
X26281355Y-92784822D01*
X26155745Y-92710000D01*
X26281355Y-92635178D01*
X26497588Y-92440269D01*
X26671641Y-92206920D01*
X26796825Y-91944099D01*
X26841476Y-91796890D01*
X26720155Y-91567000D01*
X25527000Y-91567000D01*
X25273000Y-91567000D01*
X22987000Y-91567000D01*
X22733000Y-91567000D01*
X21539845Y-91567000D01*
X21418524Y-91796890D01*
X21155000Y-91796890D01*
X21155000Y-88050000D01*
X21371928Y-88050000D01*
X21371928Y-89750000D01*
X21384188Y-89874482D01*
X21420498Y-89994180D01*
X21479463Y-90104494D01*
X21558815Y-90201185D01*
X21655506Y-90280537D01*
X21765820Y-90339502D01*
X21846466Y-90363966D01*
X21762412Y-90439731D01*
X21588359Y-90673080D01*
X21463175Y-90935901D01*
X21418524Y-91083110D01*
X21539845Y-91313000D01*
X22733000Y-91313000D01*
X22733000Y-91293000D01*
X22987000Y-91293000D01*
X22987000Y-91313000D01*
X25273000Y-91313000D01*
X25273000Y-91293000D01*
X25527000Y-91293000D01*
X25527000Y-91313000D01*
X26720155Y-91313000D01*
X26841476Y-91083110D01*
X26796825Y-90935901D01*
X26671641Y-90673080D01*
X26497588Y-90439731D01*
X26281355Y-90244822D01*
X26164466Y-90175195D01*
X26346632Y-90053475D01*
X26553475Y-89846632D01*
X26715990Y-89603411D01*
X26827932Y-89333158D01*
X26885000Y-89046260D01*
X26885000Y-88753740D01*
X26827932Y-88466842D01*
X26715990Y-88196589D01*
X26553475Y-87953368D01*
X26346632Y-87746525D01*
X26235000Y-87671935D01*
X26235000Y-85983738D01*
X26505998Y-85802663D01*
X26747663Y-85560998D01*
X26937537Y-85276831D01*
X27068325Y-84961081D01*
X27135000Y-84625883D01*
X27135000Y-84284117D01*
X27068325Y-83948919D01*
X26937537Y-83633169D01*
X26747663Y-83349002D01*
X26505998Y-83107337D01*
X26221831Y-82917463D01*
X25906081Y-82786675D01*
X25570883Y-82720000D01*
X25229117Y-82720000D01*
X24893919Y-82786675D01*
X24578169Y-82917463D01*
X24294002Y-83107337D01*
X24052337Y-83349002D01*
X23862463Y-83633169D01*
X23731675Y-83948919D01*
X23665000Y-84284117D01*
X23665000Y-84625883D01*
X23731675Y-84961081D01*
X23862463Y-85276831D01*
X24052337Y-85560998D01*
X24294002Y-85802663D01*
X24565000Y-85983738D01*
X24565001Y-87671934D01*
X24453368Y-87746525D01*
X24321513Y-87878380D01*
X24299502Y-87805820D01*
X24240537Y-87695506D01*
X24161185Y-87598815D01*
X24064494Y-87519463D01*
X23954180Y-87460498D01*
X23834482Y-87424188D01*
X23710000Y-87411928D01*
X22010000Y-87411928D01*
X21885518Y-87424188D01*
X21765820Y-87460498D01*
X21655506Y-87519463D01*
X21558815Y-87598815D01*
X21479463Y-87695506D01*
X21420498Y-87805820D01*
X21384188Y-87925518D01*
X21371928Y-88050000D01*
X21155000Y-88050000D01*
X21155000Y-86193072D01*
X21420000Y-86193072D01*
X21544482Y-86180812D01*
X21664180Y-86144502D01*
X21774494Y-86085537D01*
X21871185Y-86006185D01*
X21950537Y-85909494D01*
X22009502Y-85799180D01*
X22045812Y-85679482D01*
X22058072Y-85555000D01*
X22058072Y-83355000D01*
X22045812Y-83230518D01*
X22009502Y-83110820D01*
X21950537Y-83000506D01*
X21871185Y-82903815D01*
X21774494Y-82824463D01*
X21664180Y-82765498D01*
X21544482Y-82729188D01*
X21420000Y-82716928D01*
X19220000Y-82716928D01*
X19095518Y-82729188D01*
X18975820Y-82765498D01*
X18865506Y-82824463D01*
X18768815Y-82903815D01*
X18689463Y-83000506D01*
X18630498Y-83110820D01*
X18594188Y-83230518D01*
X18581928Y-83355000D01*
X16000000Y-83355000D01*
X16000000Y-66077333D01*
X16003677Y-66040000D01*
X15989003Y-65891014D01*
X15945546Y-65747753D01*
X15874974Y-65615724D01*
X15818028Y-65546335D01*
X15780001Y-65499999D01*
X15751004Y-65476202D01*
X15168803Y-64894002D01*
X15145001Y-64864999D01*
X15029276Y-64770026D01*
X14897247Y-64699454D01*
X14753986Y-64655997D01*
X14642333Y-64645000D01*
X14642322Y-64645000D01*
X14605000Y-64641324D01*
X14567678Y-64645000D01*
X13527594Y-64645000D01*
X13712752Y-64546031D01*
X13961714Y-64341714D01*
X14166031Y-64092752D01*
X14317852Y-63808715D01*
X14411343Y-63500516D01*
X14435000Y-63260322D01*
X14435000Y-62589760D01*
X14455392Y-62614608D01*
X14673899Y-62793932D01*
X14923192Y-62927182D01*
X15193691Y-63009236D01*
X15404508Y-63030000D01*
X16345492Y-63030000D01*
X16556309Y-63009236D01*
X16826808Y-62927182D01*
X17076101Y-62793932D01*
X17294608Y-62614608D01*
X17446112Y-62430000D01*
X17590001Y-62430000D01*
X17590002Y-63379491D01*
X17366335Y-63335000D01*
X17083665Y-63335000D01*
X16806426Y-63390147D01*
X16545273Y-63498320D01*
X16310241Y-63655363D01*
X16110363Y-63855241D01*
X15953320Y-64090273D01*
X15845147Y-64351426D01*
X15790000Y-64628665D01*
X15790000Y-64911335D01*
X15845147Y-65188574D01*
X15953320Y-65449727D01*
X16110363Y-65684759D01*
X16310241Y-65884637D01*
X16545273Y-66041680D01*
X16806426Y-66149853D01*
X17083665Y-66205000D01*
X17366335Y-66205000D01*
X17584498Y-66161604D01*
X17580161Y-67267344D01*
X17580000Y-67268982D01*
X17580000Y-67308476D01*
X17579846Y-67347743D01*
X17580000Y-67349372D01*
X17580001Y-72983972D01*
X17575960Y-73025000D01*
X17592082Y-73188688D01*
X17639828Y-73346086D01*
X17717364Y-73491145D01*
X17717365Y-73491146D01*
X17821710Y-73618291D01*
X17853574Y-73644441D01*
X18025554Y-73816421D01*
X18051709Y-73848291D01*
X18178854Y-73952636D01*
X18323913Y-74030172D01*
X18481311Y-74077918D01*
X18644999Y-74094040D01*
X18686018Y-74090000D01*
X19408446Y-74090000D01*
X19485000Y-74166554D01*
X19485001Y-75306262D01*
X19214002Y-75487337D01*
X18972337Y-75729002D01*
X18782463Y-76013169D01*
X18651675Y-76328919D01*
X18585000Y-76664117D01*
X18585000Y-77005883D01*
X18651675Y-77341081D01*
X18782463Y-77656831D01*
X18972337Y-77940998D01*
X19214002Y-78182663D01*
X19498169Y-78372537D01*
X19813919Y-78503325D01*
X20149117Y-78570000D01*
X20490883Y-78570000D01*
X20826081Y-78503325D01*
X21141831Y-78372537D01*
X21425998Y-78182663D01*
X21667663Y-77940998D01*
X21857537Y-77656831D01*
X21988325Y-77341081D01*
X22055000Y-77005883D01*
X22055000Y-76664117D01*
X21988325Y-76328919D01*
X21857537Y-76013169D01*
X21667663Y-75729002D01*
X21425998Y-75487337D01*
X21155000Y-75306262D01*
X21155000Y-74166554D01*
X21279287Y-74042267D01*
X21414443Y-73839992D01*
X21507540Y-73615236D01*
X21555000Y-73376637D01*
X21555000Y-73133363D01*
X21507540Y-72894764D01*
X21437419Y-72725478D01*
X21450537Y-72709494D01*
X21509502Y-72599180D01*
X21545812Y-72479482D01*
X21558072Y-72355000D01*
X21555000Y-72040750D01*
X21396250Y-71882000D01*
X20447000Y-71882000D01*
X20447000Y-71902000D01*
X20193000Y-71902000D01*
X20193000Y-71882000D01*
X20173000Y-71882000D01*
X20173000Y-71628000D01*
X20193000Y-71628000D01*
X20193000Y-70678750D01*
X20034250Y-70520000D01*
X19720000Y-70516928D01*
X19595518Y-70529188D01*
X19475820Y-70565498D01*
X19365506Y-70624463D01*
X19268815Y-70703815D01*
X19250000Y-70726741D01*
X19250000Y-67311458D01*
X19259840Y-64802656D01*
X19260001Y-64801018D01*
X19260001Y-64801017D01*
X19264041Y-64759999D01*
X19260001Y-64718981D01*
X19260001Y-61646019D01*
X19264041Y-61605001D01*
X19260001Y-61563982D01*
X19260001Y-61269236D01*
X19383102Y-61320226D01*
X19583061Y-61360000D01*
X19786939Y-61360000D01*
X19986898Y-61320226D01*
X20120001Y-61265093D01*
X20120001Y-67268972D01*
X20120000Y-67268982D01*
X20120001Y-69173972D01*
X20115960Y-69215000D01*
X20132082Y-69378688D01*
X20179828Y-69536086D01*
X20257364Y-69681145D01*
X20280904Y-69709828D01*
X20361710Y-69808291D01*
X20393573Y-69834441D01*
X20970562Y-70411431D01*
X20996709Y-70443291D01*
X21028568Y-70469437D01*
X21028570Y-70469439D01*
X21086436Y-70516928D01*
X21123854Y-70547636D01*
X21148205Y-70560652D01*
X21044482Y-70529188D01*
X20920000Y-70516928D01*
X20605750Y-70520000D01*
X20447000Y-70678750D01*
X20447000Y-71628000D01*
X21396250Y-71628000D01*
X21555000Y-71469250D01*
X21558072Y-71155000D01*
X21545812Y-71030518D01*
X21509502Y-70910820D01*
X21450537Y-70800506D01*
X21371185Y-70703815D01*
X21279137Y-70628273D01*
X21426311Y-70672918D01*
X21548981Y-70685000D01*
X21548982Y-70685000D01*
X21590000Y-70689040D01*
X21631018Y-70685000D01*
X22514132Y-70685000D01*
X22660000Y-70830868D01*
X22660001Y-72983972D01*
X22655960Y-73025000D01*
X22672082Y-73188688D01*
X22719828Y-73346086D01*
X22797364Y-73491145D01*
X22797365Y-73491146D01*
X22901710Y-73618291D01*
X22933574Y-73644441D01*
X23105554Y-73816421D01*
X23131709Y-73848291D01*
X23258854Y-73952636D01*
X23403913Y-74030172D01*
X23561311Y-74077918D01*
X23724999Y-74094040D01*
X23766018Y-74090000D01*
X24207713Y-74090000D01*
X24210498Y-74099180D01*
X24269463Y-74209494D01*
X24348815Y-74306185D01*
X24445506Y-74385537D01*
X24555820Y-74444502D01*
X24565000Y-74447287D01*
X24565001Y-75096928D01*
X24300000Y-75096928D01*
X24175518Y-75109188D01*
X24055820Y-75145498D01*
X23945506Y-75204463D01*
X23848815Y-75283815D01*
X23769463Y-75380506D01*
X23710498Y-75490820D01*
X23674188Y-75610518D01*
X23661928Y-75735000D01*
X23661928Y-77935000D01*
X23674188Y-78059482D01*
X23710498Y-78179180D01*
X23769463Y-78289494D01*
X23848815Y-78386185D01*
X23945506Y-78465537D01*
X24055820Y-78524502D01*
X24175518Y-78560812D01*
X24300000Y-78573072D01*
X26500000Y-78573072D01*
X26624482Y-78560812D01*
X26744180Y-78524502D01*
X26854494Y-78465537D01*
X26951185Y-78386185D01*
X27030537Y-78289494D01*
X27089502Y-78179180D01*
X27125812Y-78059482D01*
X27138072Y-77935000D01*
X27138072Y-75735000D01*
X27125812Y-75610518D01*
X27089502Y-75490820D01*
X27030537Y-75380506D01*
X26951185Y-75283815D01*
X26854494Y-75204463D01*
X26744180Y-75145498D01*
X26624482Y-75109188D01*
X26500000Y-75096928D01*
X26235000Y-75096928D01*
X26235000Y-74447287D01*
X26244180Y-74444502D01*
X26354494Y-74385537D01*
X26451185Y-74306185D01*
X26530537Y-74209494D01*
X26589502Y-74099180D01*
X26625812Y-73979482D01*
X26638072Y-73855000D01*
X26638072Y-72655000D01*
X26625812Y-72530518D01*
X26589502Y-72410820D01*
X26530537Y-72300506D01*
X26516432Y-72283319D01*
X26574237Y-72156484D01*
X26630000Y-71919687D01*
X26638495Y-71676562D01*
X26599395Y-71436451D01*
X26514202Y-71208582D01*
X26473348Y-71132148D01*
X26249764Y-71084841D01*
X25579605Y-71755000D01*
X25593748Y-71769143D01*
X25414143Y-71948748D01*
X25400000Y-71934605D01*
X25385858Y-71948748D01*
X25206253Y-71769143D01*
X25220395Y-71755000D01*
X24550236Y-71084841D01*
X24330000Y-71131440D01*
X24330000Y-70905236D01*
X24729841Y-70905236D01*
X25400000Y-71575395D01*
X26070159Y-70905236D01*
X26022852Y-70681652D01*
X25801484Y-70580763D01*
X25564687Y-70525000D01*
X25321562Y-70516505D01*
X25081451Y-70555605D01*
X24853582Y-70640798D01*
X24777148Y-70681652D01*
X24729841Y-70905236D01*
X24330000Y-70905236D01*
X24330000Y-70526018D01*
X24334040Y-70485000D01*
X24317918Y-70321312D01*
X24270172Y-70163913D01*
X24192636Y-70018854D01*
X24114439Y-69923570D01*
X24114437Y-69923568D01*
X24088291Y-69891709D01*
X24056432Y-69865564D01*
X23479445Y-69288578D01*
X23453291Y-69256709D01*
X23326146Y-69152364D01*
X23181087Y-69074828D01*
X23023689Y-69027082D01*
X22901019Y-69015000D01*
X22901018Y-69015000D01*
X22860000Y-69010960D01*
X22818982Y-69015000D01*
X21935868Y-69015000D01*
X21790000Y-68869132D01*
X21790000Y-66140356D01*
X22013184Y-66196300D01*
X22295512Y-66210217D01*
X22575130Y-66168787D01*
X22841292Y-66073603D01*
X22966514Y-66006671D01*
X23038097Y-65762702D01*
X22225000Y-64949605D01*
X22210858Y-64963748D01*
X22031253Y-64784143D01*
X22045395Y-64770000D01*
X22404605Y-64770000D01*
X23217702Y-65583097D01*
X23461671Y-65511514D01*
X23582571Y-65256004D01*
X23651300Y-64981816D01*
X23665217Y-64699488D01*
X23623787Y-64419870D01*
X23528603Y-64153708D01*
X23461671Y-64028486D01*
X23217702Y-63956903D01*
X22404605Y-64770000D01*
X22045395Y-64770000D01*
X22031253Y-64755858D01*
X22210858Y-64576253D01*
X22225000Y-64590395D01*
X23038097Y-63777298D01*
X22966514Y-63533329D01*
X22711004Y-63412429D01*
X22436816Y-63343700D01*
X22154488Y-63329783D01*
X21874870Y-63371213D01*
X21790000Y-63401564D01*
X21790000Y-62189702D01*
X21831285Y-62286646D01*
X21990500Y-62519895D01*
X22192161Y-62717601D01*
X22428517Y-62872166D01*
X22690486Y-62977650D01*
X22968000Y-63030000D01*
X23368000Y-63030000D01*
X23368000Y-61722000D01*
X23348000Y-61722000D01*
X23348000Y-61468000D01*
X23368000Y-61468000D01*
X23368000Y-61448000D01*
X23622000Y-61448000D01*
X23622000Y-61468000D01*
X23642000Y-61468000D01*
X23642000Y-61722000D01*
X23622000Y-61722000D01*
X23622000Y-63030000D01*
X24022000Y-63030000D01*
X24299514Y-62977650D01*
X24561483Y-62872166D01*
X24640000Y-62820820D01*
X24640000Y-64186956D01*
X24485241Y-64290363D01*
X24285363Y-64490241D01*
X24128320Y-64725273D01*
X24020147Y-64986426D01*
X23965000Y-65263665D01*
X23965000Y-65546335D01*
X24020147Y-65823574D01*
X24128320Y-66084727D01*
X24285363Y-66319759D01*
X24485241Y-66519637D01*
X24717759Y-66675000D01*
X24485241Y-66830363D01*
X24285363Y-67030241D01*
X24128320Y-67265273D01*
X24020147Y-67526426D01*
X23965000Y-67803665D01*
X23965000Y-68086335D01*
X24020147Y-68363574D01*
X24128320Y-68624727D01*
X24285363Y-68859759D01*
X24485241Y-69059637D01*
X24720273Y-69216680D01*
X24981426Y-69324853D01*
X25258665Y-69380000D01*
X25541335Y-69380000D01*
X25818574Y-69324853D01*
X26079727Y-69216680D01*
X26314759Y-69059637D01*
X26514637Y-68859759D01*
X26671680Y-68624727D01*
X26779853Y-68363574D01*
X26835000Y-68086335D01*
X26835000Y-67803665D01*
X26779853Y-67526426D01*
X26671680Y-67265273D01*
X26514637Y-67030241D01*
X26314759Y-66830363D01*
X26082241Y-66675000D01*
X26314759Y-66519637D01*
X26514637Y-66319759D01*
X26671680Y-66084727D01*
X26779853Y-65823574D01*
X26835000Y-65546335D01*
X26835000Y-65263665D01*
X26779853Y-64986426D01*
X26671680Y-64725273D01*
X26514637Y-64490241D01*
X26314759Y-64290363D01*
X26160000Y-64186957D01*
X26160000Y-59727333D01*
X26163677Y-59690000D01*
X26149003Y-59541014D01*
X26105546Y-59397753D01*
X26034974Y-59265724D01*
X25963799Y-59178997D01*
X25940001Y-59149999D01*
X25911002Y-59126200D01*
X25328803Y-58544002D01*
X25321994Y-58535705D01*
X25375226Y-58588937D01*
X25544744Y-58702205D01*
X25733102Y-58780226D01*
X25933061Y-58820000D01*
X26136939Y-58820000D01*
X26336898Y-58780226D01*
X26525256Y-58702205D01*
X26694774Y-58588937D01*
X26838937Y-58444774D01*
X26952205Y-58275256D01*
X27030226Y-58086898D01*
X27070000Y-57886939D01*
X27070000Y-57683061D01*
X27030226Y-57483102D01*
X26952205Y-57294744D01*
X26838937Y-57125226D01*
X26795000Y-57081289D01*
X26795000Y-43883711D01*
X26838937Y-43839774D01*
X26952205Y-43670256D01*
X27030226Y-43481898D01*
X27070000Y-43281939D01*
X27070000Y-43078061D01*
X27036961Y-42911961D01*
X27203061Y-42945000D01*
G04 #@! TA.AperFunction,Conductor*
D31*
G36*
X27203061Y-42945000D02*
G01*
X27280001Y-42945000D01*
X27280000Y-100940000D01*
X660000Y-100940000D01*
X660000Y-98734304D01*
X897239Y-98900010D01*
X1191645Y-99029144D01*
X1319566Y-99060124D01*
X1573000Y-98940777D01*
X1573000Y-96647000D01*
X1827000Y-96647000D01*
X1827000Y-98940777D01*
X2080434Y-99060124D01*
X2208355Y-99029144D01*
X2502761Y-98900010D01*
X2766317Y-98715922D01*
X2988895Y-98483954D01*
X3161942Y-98213020D01*
X3278807Y-97913532D01*
X3335000Y-97597000D01*
X3335000Y-96647000D01*
X1827000Y-96647000D01*
X1573000Y-96647000D01*
X1553000Y-96647000D01*
X1553000Y-96393000D01*
X1573000Y-96393000D01*
X1573000Y-94099223D01*
X1827000Y-94099223D01*
X1827000Y-96393000D01*
X3335000Y-96393000D01*
X3335000Y-95443000D01*
X3278807Y-95126468D01*
X3161942Y-94826980D01*
X2988895Y-94556046D01*
X2766317Y-94324078D01*
X2502761Y-94139990D01*
X2208355Y-94010856D01*
X2080434Y-93979876D01*
X1827000Y-94099223D01*
X1573000Y-94099223D01*
X1319566Y-93979876D01*
X1191645Y-94010856D01*
X897239Y-94139990D01*
X660000Y-94305696D01*
X660000Y-87304304D01*
X897239Y-87470010D01*
X1191645Y-87599144D01*
X1319566Y-87630124D01*
X1573000Y-87510777D01*
X1573000Y-85217000D01*
X1827000Y-85217000D01*
X1827000Y-87510777D01*
X2080434Y-87630124D01*
X2208355Y-87599144D01*
X2502761Y-87470010D01*
X2766317Y-87285922D01*
X2988895Y-87053954D01*
X3161942Y-86783020D01*
X3278807Y-86483532D01*
X3335000Y-86167000D01*
X3335000Y-85217000D01*
X1827000Y-85217000D01*
X1573000Y-85217000D01*
X1553000Y-85217000D01*
X1553000Y-84963000D01*
X1573000Y-84963000D01*
X1573000Y-82669223D01*
X1827000Y-82669223D01*
X1827000Y-84963000D01*
X3335000Y-84963000D01*
X3335000Y-84013000D01*
X3278807Y-83696468D01*
X3161942Y-83396980D01*
X2988895Y-83126046D01*
X2766317Y-82894078D01*
X2502761Y-82709990D01*
X2208355Y-82580856D01*
X2080434Y-82549876D01*
X1827000Y-82669223D01*
X1573000Y-82669223D01*
X1319566Y-82549876D01*
X1191645Y-82580856D01*
X897239Y-82709990D01*
X660000Y-82875696D01*
X660000Y-75874304D01*
X897239Y-76040010D01*
X1191645Y-76169144D01*
X1319566Y-76200124D01*
X1573000Y-76080777D01*
X1573000Y-73787000D01*
X1553000Y-73787000D01*
X1553000Y-73533000D01*
X1573000Y-73533000D01*
X1573000Y-71239223D01*
X1319566Y-71119876D01*
X1191645Y-71150856D01*
X897239Y-71279990D01*
X660000Y-71445696D01*
X660000Y-64444304D01*
X897239Y-64610010D01*
X1191645Y-64739144D01*
X1319566Y-64770124D01*
X1573000Y-64650777D01*
X1573000Y-62357000D01*
X1553000Y-62357000D01*
X1553000Y-62103000D01*
X1573000Y-62103000D01*
X1573000Y-59809223D01*
X1319566Y-59689876D01*
X1191645Y-59720856D01*
X897239Y-59849990D01*
X660000Y-60015696D01*
X660000Y-57604707D01*
X689592Y-57640764D01*
X730000Y-57690001D01*
X758998Y-57713799D01*
X1341200Y-58296002D01*
X1364999Y-58325001D01*
X1480724Y-58419974D01*
X1612753Y-58490546D01*
X1756014Y-58534003D01*
X1905000Y-58548677D01*
X1942333Y-58545000D01*
X2860199Y-58545000D01*
X3050000Y-58734802D01*
X3050000Y-60361716D01*
X2988895Y-60266046D01*
X2766317Y-60034078D01*
X2502761Y-59849990D01*
X2208355Y-59720856D01*
X2080434Y-59689876D01*
X1827000Y-59809223D01*
X1827000Y-62103000D01*
X1847000Y-62103000D01*
X1847000Y-62357000D01*
X1827000Y-62357000D01*
X1827000Y-64650777D01*
X2080434Y-64770124D01*
X2208355Y-64739144D01*
X2502761Y-64610010D01*
X2766317Y-64425922D01*
X2988895Y-64193954D01*
X3050000Y-64098283D01*
X3050001Y-71791717D01*
X2988895Y-71696046D01*
X2766317Y-71464078D01*
X2502761Y-71279990D01*
X2208355Y-71150856D01*
X2080434Y-71119876D01*
X1827000Y-71239223D01*
X1827000Y-73533000D01*
X1847000Y-73533000D01*
X1847000Y-73787000D01*
X1827000Y-73787000D01*
X1827000Y-76080777D01*
X2080434Y-76200124D01*
X2208355Y-76169144D01*
X2502761Y-76040010D01*
X2766317Y-75855922D01*
X2988895Y-75623954D01*
X3050001Y-75528282D01*
X3050001Y-76162667D01*
X3046324Y-76200000D01*
X3060998Y-76348985D01*
X3104454Y-76492246D01*
X3175026Y-76624276D01*
X3242361Y-76706323D01*
X3270000Y-76740001D01*
X3298998Y-76763799D01*
X3881200Y-77346002D01*
X3904999Y-77375001D01*
X4020724Y-77469974D01*
X4152753Y-77540546D01*
X4296014Y-77584003D01*
X4445000Y-77598677D01*
X4482333Y-77595000D01*
X9845199Y-77595000D01*
X10035000Y-77784802D01*
X10035000Y-78156956D01*
X9880241Y-78260363D01*
X9680363Y-78460241D01*
X9525000Y-78692759D01*
X9369637Y-78460241D01*
X9169759Y-78260363D01*
X8934727Y-78103320D01*
X8673574Y-77995147D01*
X8396335Y-77940000D01*
X8113665Y-77940000D01*
X7836426Y-77995147D01*
X7575273Y-78103320D01*
X7340241Y-78260363D01*
X7140363Y-78460241D01*
X6983320Y-78695273D01*
X6875147Y-78956426D01*
X6820000Y-79233665D01*
X6820000Y-79516335D01*
X6856312Y-79698886D01*
X6488998Y-80066201D01*
X6460000Y-80089999D01*
X6436202Y-80118997D01*
X6436201Y-80118998D01*
X6365026Y-80205724D01*
X6294454Y-80337754D01*
X6250998Y-80481015D01*
X6236324Y-80630000D01*
X6240001Y-80667332D01*
X6240001Y-82692321D01*
X6087248Y-82773969D01*
X5838286Y-82978286D01*
X5633969Y-83227249D01*
X5482148Y-83511286D01*
X5388657Y-83819485D01*
X5365000Y-84059679D01*
X5365001Y-86120322D01*
X5388658Y-86360516D01*
X5482149Y-86668715D01*
X5633970Y-86952752D01*
X5838287Y-87201714D01*
X6087249Y-87406031D01*
X6371286Y-87557852D01*
X6679485Y-87651343D01*
X7000000Y-87682911D01*
X7320516Y-87651343D01*
X7628715Y-87557852D01*
X7912752Y-87406031D01*
X8161714Y-87201714D01*
X8366031Y-86952752D01*
X8517852Y-86668715D01*
X8611343Y-86360516D01*
X8635000Y-86120322D01*
X8635000Y-84059679D01*
X11165000Y-84059679D01*
X11165001Y-86120322D01*
X11188658Y-86360516D01*
X11282149Y-86668715D01*
X11433970Y-86952752D01*
X11638287Y-87201714D01*
X11887249Y-87406031D01*
X12171286Y-87557852D01*
X12479485Y-87651343D01*
X12800000Y-87682911D01*
X13120516Y-87651343D01*
X13428715Y-87557852D01*
X13712752Y-87406031D01*
X13961714Y-87201714D01*
X14166031Y-86952752D01*
X14317852Y-86668715D01*
X14411343Y-86360516D01*
X14435000Y-86120322D01*
X14435000Y-84059678D01*
X14411343Y-83819484D01*
X14317852Y-83511285D01*
X14166031Y-83227248D01*
X13961714Y-82978286D01*
X13712751Y-82773969D01*
X13428714Y-82622148D01*
X13120515Y-82528657D01*
X12800000Y-82497089D01*
X12479484Y-82528657D01*
X12171285Y-82622148D01*
X11887248Y-82773969D01*
X11638286Y-82978286D01*
X11433969Y-83227249D01*
X11282148Y-83511286D01*
X11188657Y-83819485D01*
X11165000Y-84059679D01*
X8635000Y-84059679D01*
X8635000Y-84059678D01*
X8611343Y-83819484D01*
X8517852Y-83511285D01*
X8366031Y-83227248D01*
X8161714Y-82978286D01*
X7912751Y-82773969D01*
X7760000Y-82692322D01*
X7760000Y-80944801D01*
X7931114Y-80773688D01*
X8113665Y-80810000D01*
X8396335Y-80810000D01*
X8673574Y-80754853D01*
X8934727Y-80646680D01*
X9169759Y-80489637D01*
X9369637Y-80289759D01*
X9525000Y-80057241D01*
X9680363Y-80289759D01*
X9880241Y-80489637D01*
X10115273Y-80646680D01*
X10376426Y-80754853D01*
X10653665Y-80810000D01*
X10936335Y-80810000D01*
X11213574Y-80754853D01*
X11474727Y-80646680D01*
X11709759Y-80489637D01*
X11909637Y-80289759D01*
X12066680Y-80054727D01*
X12174853Y-79793574D01*
X12230000Y-79516335D01*
X12230000Y-79233665D01*
X12174853Y-78956426D01*
X12066680Y-78695273D01*
X11909637Y-78460241D01*
X11709759Y-78260363D01*
X11555000Y-78156957D01*
X11555000Y-77507333D01*
X11558677Y-77470000D01*
X11544003Y-77321014D01*
X11500546Y-77177753D01*
X11429974Y-77045724D01*
X11358799Y-76958997D01*
X11335001Y-76929999D01*
X11306004Y-76906202D01*
X10723803Y-76324002D01*
X10700001Y-76294999D01*
X10584276Y-76200026D01*
X10452247Y-76129454D01*
X10308986Y-76085997D01*
X10197333Y-76075000D01*
X10197322Y-76075000D01*
X10160000Y-76071324D01*
X10122678Y-76075000D01*
X7727594Y-76075000D01*
X7912752Y-75976031D01*
X8161714Y-75771714D01*
X8366031Y-75522752D01*
X8517852Y-75238715D01*
X8611343Y-74930516D01*
X8635000Y-74690322D01*
X8635000Y-72629679D01*
X11165000Y-72629679D01*
X11165001Y-74690322D01*
X11188658Y-74930516D01*
X11282149Y-75238715D01*
X11433970Y-75522752D01*
X11638287Y-75771714D01*
X11887249Y-75976031D01*
X12171286Y-76127852D01*
X12479485Y-76221343D01*
X12800000Y-76252911D01*
X13120516Y-76221343D01*
X13428715Y-76127852D01*
X13712752Y-75976031D01*
X13961714Y-75771714D01*
X14166031Y-75522752D01*
X14317852Y-75238715D01*
X14411343Y-74930516D01*
X14435000Y-74690322D01*
X14435000Y-72629678D01*
X14411343Y-72389484D01*
X14317852Y-72081285D01*
X14166031Y-71797248D01*
X13961714Y-71548286D01*
X13712751Y-71343969D01*
X13428714Y-71192148D01*
X13120515Y-71098657D01*
X12800000Y-71067089D01*
X12479484Y-71098657D01*
X12171285Y-71192148D01*
X11887248Y-71343969D01*
X11638286Y-71548286D01*
X11433969Y-71797249D01*
X11282148Y-72081286D01*
X11188657Y-72389485D01*
X11165000Y-72629679D01*
X8635000Y-72629679D01*
X8635000Y-72629678D01*
X8611343Y-72389484D01*
X8517852Y-72081285D01*
X8366031Y-71797248D01*
X8161714Y-71548286D01*
X7912751Y-71343969D01*
X7760000Y-71262322D01*
X7760000Y-69514801D01*
X7931114Y-69343688D01*
X8113665Y-69380000D01*
X8396335Y-69380000D01*
X8673574Y-69324853D01*
X8934727Y-69216680D01*
X9169759Y-69059637D01*
X9369637Y-68859759D01*
X9525000Y-68627241D01*
X9680363Y-68859759D01*
X9880241Y-69059637D01*
X10115273Y-69216680D01*
X10376426Y-69324853D01*
X10653665Y-69380000D01*
X10936335Y-69380000D01*
X11213574Y-69324853D01*
X11474727Y-69216680D01*
X11709759Y-69059637D01*
X11909637Y-68859759D01*
X12066680Y-68624727D01*
X12174853Y-68363574D01*
X12230000Y-68086335D01*
X12230000Y-67803665D01*
X12174853Y-67526426D01*
X12066680Y-67265273D01*
X11909637Y-67030241D01*
X11709759Y-66830363D01*
X11474727Y-66673320D01*
X11213574Y-66565147D01*
X10936335Y-66510000D01*
X10653665Y-66510000D01*
X10471114Y-66546312D01*
X10285000Y-66360199D01*
X10285000Y-65334801D01*
X10866200Y-65916002D01*
X10889999Y-65945001D01*
X10965144Y-66006671D01*
X11005724Y-66039974D01*
X11137753Y-66110546D01*
X11281014Y-66154003D01*
X11430000Y-66168677D01*
X11467333Y-66165000D01*
X14290199Y-66165000D01*
X14480000Y-66354802D01*
X14480001Y-89855197D01*
X14290199Y-90045000D01*
X12013043Y-90045000D01*
X11909637Y-89890241D01*
X11709759Y-89690363D01*
X11474727Y-89533320D01*
X11213574Y-89425147D01*
X10936335Y-89370000D01*
X10653665Y-89370000D01*
X10376426Y-89425147D01*
X10115273Y-89533320D01*
X9880241Y-89690363D01*
X9680363Y-89890241D01*
X9525000Y-90122759D01*
X9369637Y-89890241D01*
X9169759Y-89690363D01*
X8934727Y-89533320D01*
X8673574Y-89425147D01*
X8396335Y-89370000D01*
X8113665Y-89370000D01*
X7836426Y-89425147D01*
X7575273Y-89533320D01*
X7340241Y-89690363D01*
X7140363Y-89890241D01*
X6983320Y-90125273D01*
X6875147Y-90386426D01*
X6820000Y-90663665D01*
X6820000Y-90946335D01*
X6856312Y-91128886D01*
X6488998Y-91496201D01*
X6460000Y-91519999D01*
X6436202Y-91548997D01*
X6436201Y-91548998D01*
X6365026Y-91635724D01*
X6294454Y-91767754D01*
X6250998Y-91911015D01*
X6236324Y-92060000D01*
X6240001Y-92097332D01*
X6240001Y-94122321D01*
X6087248Y-94203969D01*
X5838286Y-94408286D01*
X5633969Y-94657249D01*
X5482148Y-94941286D01*
X5388657Y-95249485D01*
X5365000Y-95489679D01*
X5365001Y-97550322D01*
X5388658Y-97790516D01*
X5482149Y-98098715D01*
X5633970Y-98382752D01*
X5838287Y-98631714D01*
X6087249Y-98836031D01*
X6371286Y-98987852D01*
X6679485Y-99081343D01*
X7000000Y-99112911D01*
X7320516Y-99081343D01*
X7628715Y-98987852D01*
X7912752Y-98836031D01*
X8161714Y-98631714D01*
X8366031Y-98382752D01*
X8517852Y-98098715D01*
X8611343Y-97790516D01*
X8635000Y-97550322D01*
X8635000Y-95489679D01*
X11165000Y-95489679D01*
X11165001Y-97550322D01*
X11188658Y-97790516D01*
X11282149Y-98098715D01*
X11433970Y-98382752D01*
X11638287Y-98631714D01*
X11887249Y-98836031D01*
X12171286Y-98987852D01*
X12479485Y-99081343D01*
X12800000Y-99112911D01*
X13120516Y-99081343D01*
X13428715Y-98987852D01*
X13712752Y-98836031D01*
X13961714Y-98631714D01*
X14166031Y-98382752D01*
X14317852Y-98098715D01*
X14411343Y-97790516D01*
X14435000Y-97550322D01*
X14435000Y-95489678D01*
X14411343Y-95249484D01*
X14317852Y-94941285D01*
X14166031Y-94657248D01*
X13961714Y-94408286D01*
X13712751Y-94203969D01*
X13428714Y-94052148D01*
X13120515Y-93958657D01*
X12800000Y-93927089D01*
X12479484Y-93958657D01*
X12171285Y-94052148D01*
X11887248Y-94203969D01*
X11638286Y-94408286D01*
X11433969Y-94657249D01*
X11282148Y-94941286D01*
X11188657Y-95249485D01*
X11165000Y-95489679D01*
X8635000Y-95489679D01*
X8635000Y-95489678D01*
X8611343Y-95249484D01*
X8517852Y-94941285D01*
X8366031Y-94657248D01*
X8161714Y-94408286D01*
X7912751Y-94203969D01*
X7760000Y-94122322D01*
X7760000Y-92374801D01*
X7931114Y-92203688D01*
X8113665Y-92240000D01*
X8396335Y-92240000D01*
X8673574Y-92184853D01*
X8934727Y-92076680D01*
X9169759Y-91919637D01*
X9369637Y-91719759D01*
X9525000Y-91487241D01*
X9680363Y-91719759D01*
X9880241Y-91919637D01*
X10115273Y-92076680D01*
X10376426Y-92184853D01*
X10653665Y-92240000D01*
X10936335Y-92240000D01*
X11213574Y-92184853D01*
X11474727Y-92076680D01*
X11709759Y-91919637D01*
X11909637Y-91719759D01*
X12013043Y-91565000D01*
X14567678Y-91565000D01*
X14605000Y-91568676D01*
X14642322Y-91565000D01*
X14642333Y-91565000D01*
X14753986Y-91554003D01*
X14897247Y-91510546D01*
X15029276Y-91439974D01*
X15145001Y-91345001D01*
X15168803Y-91315998D01*
X15751002Y-90733800D01*
X15780001Y-90710001D01*
X15874974Y-90594276D01*
X15945546Y-90462247D01*
X15989003Y-90318986D01*
X16000000Y-90207333D01*
X16003677Y-90170000D01*
X16000000Y-90132667D01*
X16000000Y-83355000D01*
X18581928Y-83355000D01*
X18581928Y-85555000D01*
X18594188Y-85679482D01*
X18630498Y-85799180D01*
X18689463Y-85909494D01*
X18768815Y-86006185D01*
X18865506Y-86085537D01*
X18975820Y-86144502D01*
X19095518Y-86180812D01*
X19220000Y-86193072D01*
X19485000Y-86193072D01*
X19485001Y-99018971D01*
X19480960Y-99060000D01*
X19497082Y-99223689D01*
X19544828Y-99381087D01*
X19622364Y-99526146D01*
X19726709Y-99653291D01*
X19853854Y-99757636D01*
X19998913Y-99835172D01*
X20156311Y-99882918D01*
X20278981Y-99895000D01*
X20278982Y-99895000D01*
X20320000Y-99899040D01*
X20361019Y-99895000D01*
X21631935Y-99895000D01*
X21706525Y-100006632D01*
X21913368Y-100213475D01*
X22156589Y-100375990D01*
X22426842Y-100487932D01*
X22713740Y-100545000D01*
X23006260Y-100545000D01*
X23293158Y-100487932D01*
X23563411Y-100375990D01*
X23806632Y-100213475D01*
X24013475Y-100006632D01*
X24088065Y-99895000D01*
X24171935Y-99895000D01*
X24246525Y-100006632D01*
X24453368Y-100213475D01*
X24696589Y-100375990D01*
X24966842Y-100487932D01*
X25253740Y-100545000D01*
X25546260Y-100545000D01*
X25833158Y-100487932D01*
X26103411Y-100375990D01*
X26346632Y-100213475D01*
X26553475Y-100006632D01*
X26715990Y-99763411D01*
X26827932Y-99493158D01*
X26885000Y-99206260D01*
X26885000Y-98913740D01*
X26827932Y-98626842D01*
X26715990Y-98356589D01*
X26553475Y-98113368D01*
X26346632Y-97906525D01*
X26164466Y-97784805D01*
X26281355Y-97715178D01*
X26497588Y-97520269D01*
X26671641Y-97286920D01*
X26796825Y-97024099D01*
X26841476Y-96876890D01*
X26720155Y-96647000D01*
X25527000Y-96647000D01*
X25527000Y-96667000D01*
X25273000Y-96667000D01*
X25273000Y-96647000D01*
X22987000Y-96647000D01*
X22987000Y-96667000D01*
X22733000Y-96667000D01*
X22733000Y-96647000D01*
X21539845Y-96647000D01*
X21418524Y-96876890D01*
X21463175Y-97024099D01*
X21588359Y-97286920D01*
X21762412Y-97520269D01*
X21978645Y-97715178D01*
X22095534Y-97784805D01*
X21913368Y-97906525D01*
X21706525Y-98113368D01*
X21631935Y-98225000D01*
X21155000Y-98225000D01*
X21155000Y-94336890D01*
X21418524Y-94336890D01*
X21463175Y-94484099D01*
X21588359Y-94746920D01*
X21762412Y-94980269D01*
X21978645Y-95175178D01*
X22104255Y-95250000D01*
X21978645Y-95324822D01*
X21762412Y-95519731D01*
X21588359Y-95753080D01*
X21463175Y-96015901D01*
X21418524Y-96163110D01*
X21539845Y-96393000D01*
X22733000Y-96393000D01*
X22733000Y-94107000D01*
X22987000Y-94107000D01*
X22987000Y-96393000D01*
X25273000Y-96393000D01*
X25273000Y-94107000D01*
X25527000Y-94107000D01*
X25527000Y-96393000D01*
X26720155Y-96393000D01*
X26841476Y-96163110D01*
X26796825Y-96015901D01*
X26671641Y-95753080D01*
X26497588Y-95519731D01*
X26281355Y-95324822D01*
X26155745Y-95250000D01*
X26281355Y-95175178D01*
X26497588Y-94980269D01*
X26671641Y-94746920D01*
X26796825Y-94484099D01*
X26841476Y-94336890D01*
X26720155Y-94107000D01*
X25527000Y-94107000D01*
X25273000Y-94107000D01*
X22987000Y-94107000D01*
X22733000Y-94107000D01*
X21539845Y-94107000D01*
X21418524Y-94336890D01*
X21155000Y-94336890D01*
X21155000Y-91796890D01*
X21418524Y-91796890D01*
X21463175Y-91944099D01*
X21588359Y-92206920D01*
X21762412Y-92440269D01*
X21978645Y-92635178D01*
X22104255Y-92710000D01*
X21978645Y-92784822D01*
X21762412Y-92979731D01*
X21588359Y-93213080D01*
X21463175Y-93475901D01*
X21418524Y-93623110D01*
X21539845Y-93853000D01*
X22733000Y-93853000D01*
X22733000Y-91567000D01*
X22987000Y-91567000D01*
X22987000Y-93853000D01*
X25273000Y-93853000D01*
X25273000Y-91567000D01*
X25527000Y-91567000D01*
X25527000Y-93853000D01*
X26720155Y-93853000D01*
X26841476Y-93623110D01*
X26796825Y-93475901D01*
X26671641Y-93213080D01*
X26497588Y-92979731D01*
X26281355Y-92784822D01*
X26155745Y-92710000D01*
X26281355Y-92635178D01*
X26497588Y-92440269D01*
X26671641Y-92206920D01*
X26796825Y-91944099D01*
X26841476Y-91796890D01*
X26720155Y-91567000D01*
X25527000Y-91567000D01*
X25273000Y-91567000D01*
X22987000Y-91567000D01*
X22733000Y-91567000D01*
X21539845Y-91567000D01*
X21418524Y-91796890D01*
X21155000Y-91796890D01*
X21155000Y-88050000D01*
X21371928Y-88050000D01*
X21371928Y-89750000D01*
X21384188Y-89874482D01*
X21420498Y-89994180D01*
X21479463Y-90104494D01*
X21558815Y-90201185D01*
X21655506Y-90280537D01*
X21765820Y-90339502D01*
X21846466Y-90363966D01*
X21762412Y-90439731D01*
X21588359Y-90673080D01*
X21463175Y-90935901D01*
X21418524Y-91083110D01*
X21539845Y-91313000D01*
X22733000Y-91313000D01*
X22733000Y-91293000D01*
X22987000Y-91293000D01*
X22987000Y-91313000D01*
X25273000Y-91313000D01*
X25273000Y-91293000D01*
X25527000Y-91293000D01*
X25527000Y-91313000D01*
X26720155Y-91313000D01*
X26841476Y-91083110D01*
X26796825Y-90935901D01*
X26671641Y-90673080D01*
X26497588Y-90439731D01*
X26281355Y-90244822D01*
X26164466Y-90175195D01*
X26346632Y-90053475D01*
X26553475Y-89846632D01*
X26715990Y-89603411D01*
X26827932Y-89333158D01*
X26885000Y-89046260D01*
X26885000Y-88753740D01*
X26827932Y-88466842D01*
X26715990Y-88196589D01*
X26553475Y-87953368D01*
X26346632Y-87746525D01*
X26235000Y-87671935D01*
X26235000Y-85983738D01*
X26505998Y-85802663D01*
X26747663Y-85560998D01*
X26937537Y-85276831D01*
X27068325Y-84961081D01*
X27135000Y-84625883D01*
X27135000Y-84284117D01*
X27068325Y-83948919D01*
X26937537Y-83633169D01*
X26747663Y-83349002D01*
X26505998Y-83107337D01*
X26221831Y-82917463D01*
X25906081Y-82786675D01*
X25570883Y-82720000D01*
X25229117Y-82720000D01*
X24893919Y-82786675D01*
X24578169Y-82917463D01*
X24294002Y-83107337D01*
X24052337Y-83349002D01*
X23862463Y-83633169D01*
X23731675Y-83948919D01*
X23665000Y-84284117D01*
X23665000Y-84625883D01*
X23731675Y-84961081D01*
X23862463Y-85276831D01*
X24052337Y-85560998D01*
X24294002Y-85802663D01*
X24565000Y-85983738D01*
X24565001Y-87671934D01*
X24453368Y-87746525D01*
X24321513Y-87878380D01*
X24299502Y-87805820D01*
X24240537Y-87695506D01*
X24161185Y-87598815D01*
X24064494Y-87519463D01*
X23954180Y-87460498D01*
X23834482Y-87424188D01*
X23710000Y-87411928D01*
X22010000Y-87411928D01*
X21885518Y-87424188D01*
X21765820Y-87460498D01*
X21655506Y-87519463D01*
X21558815Y-87598815D01*
X21479463Y-87695506D01*
X21420498Y-87805820D01*
X21384188Y-87925518D01*
X21371928Y-88050000D01*
X21155000Y-88050000D01*
X21155000Y-86193072D01*
X21420000Y-86193072D01*
X21544482Y-86180812D01*
X21664180Y-86144502D01*
X21774494Y-86085537D01*
X21871185Y-86006185D01*
X21950537Y-85909494D01*
X22009502Y-85799180D01*
X22045812Y-85679482D01*
X22058072Y-85555000D01*
X22058072Y-83355000D01*
X22045812Y-83230518D01*
X22009502Y-83110820D01*
X21950537Y-83000506D01*
X21871185Y-82903815D01*
X21774494Y-82824463D01*
X21664180Y-82765498D01*
X21544482Y-82729188D01*
X21420000Y-82716928D01*
X19220000Y-82716928D01*
X19095518Y-82729188D01*
X18975820Y-82765498D01*
X18865506Y-82824463D01*
X18768815Y-82903815D01*
X18689463Y-83000506D01*
X18630498Y-83110820D01*
X18594188Y-83230518D01*
X18581928Y-83355000D01*
X16000000Y-83355000D01*
X16000000Y-66077333D01*
X16003677Y-66040000D01*
X15989003Y-65891014D01*
X15945546Y-65747753D01*
X15874974Y-65615724D01*
X15818028Y-65546335D01*
X15780001Y-65499999D01*
X15751004Y-65476202D01*
X15168803Y-64894002D01*
X15145001Y-64864999D01*
X15029276Y-64770026D01*
X14897247Y-64699454D01*
X14753986Y-64655997D01*
X14642333Y-64645000D01*
X14642322Y-64645000D01*
X14605000Y-64641324D01*
X14567678Y-64645000D01*
X13527594Y-64645000D01*
X13712752Y-64546031D01*
X13961714Y-64341714D01*
X14166031Y-64092752D01*
X14317852Y-63808715D01*
X14411343Y-63500516D01*
X14435000Y-63260322D01*
X14435000Y-62589760D01*
X14455392Y-62614608D01*
X14673899Y-62793932D01*
X14923192Y-62927182D01*
X15193691Y-63009236D01*
X15404508Y-63030000D01*
X16345492Y-63030000D01*
X16556309Y-63009236D01*
X16826808Y-62927182D01*
X17076101Y-62793932D01*
X17294608Y-62614608D01*
X17446112Y-62430000D01*
X17590001Y-62430000D01*
X17590002Y-63379491D01*
X17366335Y-63335000D01*
X17083665Y-63335000D01*
X16806426Y-63390147D01*
X16545273Y-63498320D01*
X16310241Y-63655363D01*
X16110363Y-63855241D01*
X15953320Y-64090273D01*
X15845147Y-64351426D01*
X15790000Y-64628665D01*
X15790000Y-64911335D01*
X15845147Y-65188574D01*
X15953320Y-65449727D01*
X16110363Y-65684759D01*
X16310241Y-65884637D01*
X16545273Y-66041680D01*
X16806426Y-66149853D01*
X17083665Y-66205000D01*
X17366335Y-66205000D01*
X17584498Y-66161604D01*
X17580161Y-67267344D01*
X17580000Y-67268982D01*
X17580000Y-67308476D01*
X17579846Y-67347743D01*
X17580000Y-67349372D01*
X17580001Y-72983972D01*
X17575960Y-73025000D01*
X17592082Y-73188688D01*
X17639828Y-73346086D01*
X17717364Y-73491145D01*
X17717365Y-73491146D01*
X17821710Y-73618291D01*
X17853574Y-73644441D01*
X18025554Y-73816421D01*
X18051709Y-73848291D01*
X18178854Y-73952636D01*
X18323913Y-74030172D01*
X18481311Y-74077918D01*
X18644999Y-74094040D01*
X18686018Y-74090000D01*
X19408446Y-74090000D01*
X19485000Y-74166554D01*
X19485001Y-75306262D01*
X19214002Y-75487337D01*
X18972337Y-75729002D01*
X18782463Y-76013169D01*
X18651675Y-76328919D01*
X18585000Y-76664117D01*
X18585000Y-77005883D01*
X18651675Y-77341081D01*
X18782463Y-77656831D01*
X18972337Y-77940998D01*
X19214002Y-78182663D01*
X19498169Y-78372537D01*
X19813919Y-78503325D01*
X20149117Y-78570000D01*
X20490883Y-78570000D01*
X20826081Y-78503325D01*
X21141831Y-78372537D01*
X21425998Y-78182663D01*
X21667663Y-77940998D01*
X21857537Y-77656831D01*
X21988325Y-77341081D01*
X22055000Y-77005883D01*
X22055000Y-76664117D01*
X21988325Y-76328919D01*
X21857537Y-76013169D01*
X21667663Y-75729002D01*
X21425998Y-75487337D01*
X21155000Y-75306262D01*
X21155000Y-74166554D01*
X21279287Y-74042267D01*
X21414443Y-73839992D01*
X21507540Y-73615236D01*
X21555000Y-73376637D01*
X21555000Y-73133363D01*
X21507540Y-72894764D01*
X21437419Y-72725478D01*
X21450537Y-72709494D01*
X21509502Y-72599180D01*
X21545812Y-72479482D01*
X21558072Y-72355000D01*
X21555000Y-72040750D01*
X21396250Y-71882000D01*
X20447000Y-71882000D01*
X20447000Y-71902000D01*
X20193000Y-71902000D01*
X20193000Y-71882000D01*
X20173000Y-71882000D01*
X20173000Y-71628000D01*
X20193000Y-71628000D01*
X20193000Y-70678750D01*
X20034250Y-70520000D01*
X19720000Y-70516928D01*
X19595518Y-70529188D01*
X19475820Y-70565498D01*
X19365506Y-70624463D01*
X19268815Y-70703815D01*
X19250000Y-70726741D01*
X19250000Y-67311458D01*
X19259840Y-64802656D01*
X19260001Y-64801018D01*
X19260001Y-64801017D01*
X19264041Y-64759999D01*
X19260001Y-64718981D01*
X19260001Y-61646019D01*
X19264041Y-61605001D01*
X19260001Y-61563982D01*
X19260001Y-61269236D01*
X19383102Y-61320226D01*
X19583061Y-61360000D01*
X19786939Y-61360000D01*
X19986898Y-61320226D01*
X20120001Y-61265093D01*
X20120001Y-67268972D01*
X20120000Y-67268982D01*
X20120001Y-69173972D01*
X20115960Y-69215000D01*
X20132082Y-69378688D01*
X20179828Y-69536086D01*
X20257364Y-69681145D01*
X20280904Y-69709828D01*
X20361710Y-69808291D01*
X20393573Y-69834441D01*
X20970562Y-70411431D01*
X20996709Y-70443291D01*
X21028568Y-70469437D01*
X21028570Y-70469439D01*
X21086436Y-70516928D01*
X21123854Y-70547636D01*
X21148205Y-70560652D01*
X21044482Y-70529188D01*
X20920000Y-70516928D01*
X20605750Y-70520000D01*
X20447000Y-70678750D01*
X20447000Y-71628000D01*
X21396250Y-71628000D01*
X21555000Y-71469250D01*
X21558072Y-71155000D01*
X21545812Y-71030518D01*
X21509502Y-70910820D01*
X21450537Y-70800506D01*
X21371185Y-70703815D01*
X21279137Y-70628273D01*
X21426311Y-70672918D01*
X21548981Y-70685000D01*
X21548982Y-70685000D01*
X21590000Y-70689040D01*
X21631018Y-70685000D01*
X22514132Y-70685000D01*
X22660000Y-70830868D01*
X22660001Y-72983972D01*
X22655960Y-73025000D01*
X22672082Y-73188688D01*
X22719828Y-73346086D01*
X22797364Y-73491145D01*
X22797365Y-73491146D01*
X22901710Y-73618291D01*
X22933574Y-73644441D01*
X23105554Y-73816421D01*
X23131709Y-73848291D01*
X23258854Y-73952636D01*
X23403913Y-74030172D01*
X23561311Y-74077918D01*
X23724999Y-74094040D01*
X23766018Y-74090000D01*
X24207713Y-74090000D01*
X24210498Y-74099180D01*
X24269463Y-74209494D01*
X24348815Y-74306185D01*
X24445506Y-74385537D01*
X24555820Y-74444502D01*
X24565000Y-74447287D01*
X24565001Y-75096928D01*
X24300000Y-75096928D01*
X24175518Y-75109188D01*
X24055820Y-75145498D01*
X23945506Y-75204463D01*
X23848815Y-75283815D01*
X23769463Y-75380506D01*
X23710498Y-75490820D01*
X23674188Y-75610518D01*
X23661928Y-75735000D01*
X23661928Y-77935000D01*
X23674188Y-78059482D01*
X23710498Y-78179180D01*
X23769463Y-78289494D01*
X23848815Y-78386185D01*
X23945506Y-78465537D01*
X24055820Y-78524502D01*
X24175518Y-78560812D01*
X24300000Y-78573072D01*
X26500000Y-78573072D01*
X26624482Y-78560812D01*
X26744180Y-78524502D01*
X26854494Y-78465537D01*
X26951185Y-78386185D01*
X27030537Y-78289494D01*
X27089502Y-78179180D01*
X27125812Y-78059482D01*
X27138072Y-77935000D01*
X27138072Y-75735000D01*
X27125812Y-75610518D01*
X27089502Y-75490820D01*
X27030537Y-75380506D01*
X26951185Y-75283815D01*
X26854494Y-75204463D01*
X26744180Y-75145498D01*
X26624482Y-75109188D01*
X26500000Y-75096928D01*
X26235000Y-75096928D01*
X26235000Y-74447287D01*
X26244180Y-74444502D01*
X26354494Y-74385537D01*
X26451185Y-74306185D01*
X26530537Y-74209494D01*
X26589502Y-74099180D01*
X26625812Y-73979482D01*
X26638072Y-73855000D01*
X26638072Y-72655000D01*
X26625812Y-72530518D01*
X26589502Y-72410820D01*
X26530537Y-72300506D01*
X26516432Y-72283319D01*
X26574237Y-72156484D01*
X26630000Y-71919687D01*
X26638495Y-71676562D01*
X26599395Y-71436451D01*
X26514202Y-71208582D01*
X26473348Y-71132148D01*
X26249764Y-71084841D01*
X25579605Y-71755000D01*
X25593748Y-71769143D01*
X25414143Y-71948748D01*
X25400000Y-71934605D01*
X25385858Y-71948748D01*
X25206253Y-71769143D01*
X25220395Y-71755000D01*
X24550236Y-71084841D01*
X24330000Y-71131440D01*
X24330000Y-70905236D01*
X24729841Y-70905236D01*
X25400000Y-71575395D01*
X26070159Y-70905236D01*
X26022852Y-70681652D01*
X25801484Y-70580763D01*
X25564687Y-70525000D01*
X25321562Y-70516505D01*
X25081451Y-70555605D01*
X24853582Y-70640798D01*
X24777148Y-70681652D01*
X24729841Y-70905236D01*
X24330000Y-70905236D01*
X24330000Y-70526018D01*
X24334040Y-70485000D01*
X24317918Y-70321312D01*
X24270172Y-70163913D01*
X24192636Y-70018854D01*
X24114439Y-69923570D01*
X24114437Y-69923568D01*
X24088291Y-69891709D01*
X24056432Y-69865564D01*
X23479445Y-69288578D01*
X23453291Y-69256709D01*
X23326146Y-69152364D01*
X23181087Y-69074828D01*
X23023689Y-69027082D01*
X22901019Y-69015000D01*
X22901018Y-69015000D01*
X22860000Y-69010960D01*
X22818982Y-69015000D01*
X21935868Y-69015000D01*
X21790000Y-68869132D01*
X21790000Y-66140356D01*
X22013184Y-66196300D01*
X22295512Y-66210217D01*
X22575130Y-66168787D01*
X22841292Y-66073603D01*
X22966514Y-66006671D01*
X23038097Y-65762702D01*
X22225000Y-64949605D01*
X22210858Y-64963748D01*
X22031253Y-64784143D01*
X22045395Y-64770000D01*
X22404605Y-64770000D01*
X23217702Y-65583097D01*
X23461671Y-65511514D01*
X23582571Y-65256004D01*
X23651300Y-64981816D01*
X23665217Y-64699488D01*
X23623787Y-64419870D01*
X23528603Y-64153708D01*
X23461671Y-64028486D01*
X23217702Y-63956903D01*
X22404605Y-64770000D01*
X22045395Y-64770000D01*
X22031253Y-64755858D01*
X22210858Y-64576253D01*
X22225000Y-64590395D01*
X23038097Y-63777298D01*
X22966514Y-63533329D01*
X22711004Y-63412429D01*
X22436816Y-63343700D01*
X22154488Y-63329783D01*
X21874870Y-63371213D01*
X21790000Y-63401564D01*
X21790000Y-62189702D01*
X21831285Y-62286646D01*
X21990500Y-62519895D01*
X22192161Y-62717601D01*
X22428517Y-62872166D01*
X22690486Y-62977650D01*
X22968000Y-63030000D01*
X23368000Y-63030000D01*
X23368000Y-61722000D01*
X23348000Y-61722000D01*
X23348000Y-61468000D01*
X23368000Y-61468000D01*
X23368000Y-61448000D01*
X23622000Y-61448000D01*
X23622000Y-61468000D01*
X23642000Y-61468000D01*
X23642000Y-61722000D01*
X23622000Y-61722000D01*
X23622000Y-63030000D01*
X24022000Y-63030000D01*
X24299514Y-62977650D01*
X24561483Y-62872166D01*
X24640000Y-62820820D01*
X24640000Y-64186956D01*
X24485241Y-64290363D01*
X24285363Y-64490241D01*
X24128320Y-64725273D01*
X24020147Y-64986426D01*
X23965000Y-65263665D01*
X23965000Y-65546335D01*
X24020147Y-65823574D01*
X24128320Y-66084727D01*
X24285363Y-66319759D01*
X24485241Y-66519637D01*
X24717759Y-66675000D01*
X24485241Y-66830363D01*
X24285363Y-67030241D01*
X24128320Y-67265273D01*
X24020147Y-67526426D01*
X23965000Y-67803665D01*
X23965000Y-68086335D01*
X24020147Y-68363574D01*
X24128320Y-68624727D01*
X24285363Y-68859759D01*
X24485241Y-69059637D01*
X24720273Y-69216680D01*
X24981426Y-69324853D01*
X25258665Y-69380000D01*
X25541335Y-69380000D01*
X25818574Y-69324853D01*
X26079727Y-69216680D01*
X26314759Y-69059637D01*
X26514637Y-68859759D01*
X26671680Y-68624727D01*
X26779853Y-68363574D01*
X26835000Y-68086335D01*
X26835000Y-67803665D01*
X26779853Y-67526426D01*
X26671680Y-67265273D01*
X26514637Y-67030241D01*
X26314759Y-66830363D01*
X26082241Y-66675000D01*
X26314759Y-66519637D01*
X26514637Y-66319759D01*
X26671680Y-66084727D01*
X26779853Y-65823574D01*
X26835000Y-65546335D01*
X26835000Y-65263665D01*
X26779853Y-64986426D01*
X26671680Y-64725273D01*
X26514637Y-64490241D01*
X26314759Y-64290363D01*
X26160000Y-64186957D01*
X26160000Y-59727333D01*
X26163677Y-59690000D01*
X26149003Y-59541014D01*
X26105546Y-59397753D01*
X26034974Y-59265724D01*
X25963799Y-59178997D01*
X25940001Y-59149999D01*
X25911002Y-59126200D01*
X25328803Y-58544002D01*
X25321994Y-58535705D01*
X25375226Y-58588937D01*
X25544744Y-58702205D01*
X25733102Y-58780226D01*
X25933061Y-58820000D01*
X26136939Y-58820000D01*
X26336898Y-58780226D01*
X26525256Y-58702205D01*
X26694774Y-58588937D01*
X26838937Y-58444774D01*
X26952205Y-58275256D01*
X27030226Y-58086898D01*
X27070000Y-57886939D01*
X27070000Y-57683061D01*
X27030226Y-57483102D01*
X26952205Y-57294744D01*
X26838937Y-57125226D01*
X26795000Y-57081289D01*
X26795000Y-43883711D01*
X26838937Y-43839774D01*
X26952205Y-43670256D01*
X27030226Y-43481898D01*
X27070000Y-43281939D01*
X27070000Y-43078061D01*
X27036961Y-42911961D01*
X27203061Y-42945000D01*
G37*
G04 #@! TD.AperFunction*
D30*
X24085273Y-713320D02*
X23850241Y-870363D01*
X23650363Y-1070241D01*
X23493320Y-1305273D01*
X23385147Y-1566426D01*
X23330000Y-1843665D01*
X23330000Y-2126335D01*
X23385147Y-2403574D01*
X23493320Y-2664727D01*
X23650363Y-2899759D01*
X23850241Y-3099637D01*
X24085273Y-3256680D01*
X24346426Y-3364853D01*
X24623665Y-3420000D01*
X24906335Y-3420000D01*
X25183574Y-3364853D01*
X25444727Y-3256680D01*
X25679759Y-3099637D01*
X25879637Y-2899759D01*
X26036680Y-2664727D01*
X26144853Y-2403574D01*
X26200000Y-2126335D01*
X26200000Y-1843665D01*
X26144853Y-1566426D01*
X26036680Y-1305273D01*
X25879637Y-1070241D01*
X25679759Y-870363D01*
X25444727Y-713320D01*
X25316001Y-660000D01*
X27280001Y-660000D01*
X27280001Y-10710345D01*
X27149637Y-10515241D01*
X26949759Y-10315363D01*
X26795000Y-10211957D01*
X26795000Y-8292322D01*
X26798676Y-8254999D01*
X26795000Y-8217676D01*
X26795000Y-8217667D01*
X26784003Y-8106014D01*
X26740546Y-7962753D01*
X26669974Y-7830724D01*
X26575001Y-7714999D01*
X26546003Y-7691201D01*
X26163688Y-7308886D01*
X26200000Y-7126335D01*
X26200000Y-6843665D01*
X26144853Y-6566426D01*
X26036680Y-6305273D01*
X25879637Y-6070241D01*
X25679759Y-5870363D01*
X25444727Y-5713320D01*
X25183574Y-5605147D01*
X24906335Y-5550000D01*
X24623665Y-5550000D01*
X24346426Y-5605147D01*
X24085273Y-5713320D01*
X23850241Y-5870363D01*
X23650363Y-6070241D01*
X23493320Y-6305273D01*
X23385147Y-6566426D01*
X23330000Y-6843665D01*
X23330000Y-7126335D01*
X23385147Y-7403574D01*
X23493320Y-7664727D01*
X23650363Y-7899759D01*
X23850241Y-8099637D01*
X24085273Y-8256680D01*
X24346426Y-8364853D01*
X24623665Y-8420000D01*
X24906335Y-8420000D01*
X25088886Y-8383688D01*
X25275001Y-8569803D01*
X25275000Y-10211956D01*
X25120241Y-10315363D01*
X24920363Y-10515241D01*
X24763320Y-10750273D01*
X24655147Y-11011426D01*
X24600000Y-11288665D01*
X24600000Y-11538965D01*
X24592182Y-11513192D01*
X24458932Y-11263899D01*
X24279608Y-11045392D01*
X24061101Y-10866068D01*
X23928142Y-10795000D01*
X24061101Y-10723932D01*
X24279608Y-10544608D01*
X24458932Y-10326101D01*
X24592182Y-10076808D01*
X24674236Y-9806309D01*
X24701943Y-9525000D01*
X24674236Y-9243691D01*
X24592182Y-8973192D01*
X24458932Y-8723899D01*
X24279608Y-8505392D01*
X24061101Y-8326068D01*
X23811808Y-8192818D01*
X23541309Y-8110764D01*
X23330492Y-8090000D01*
X22389508Y-8090000D01*
X22178691Y-8110764D01*
X21908192Y-8192818D01*
X21658899Y-8326068D01*
X21440392Y-8505392D01*
X21288888Y-8690000D01*
X21155000Y-8690000D01*
X21155000Y-7723049D01*
X21171426Y-7729853D01*
X21448665Y-7785000D01*
X21731335Y-7785000D01*
X22008574Y-7729853D01*
X22269727Y-7621680D01*
X22504759Y-7464637D01*
X22704637Y-7264759D01*
X22861680Y-7029727D01*
X22969853Y-6768574D01*
X23025000Y-6491335D01*
X23025000Y-6208665D01*
X22969853Y-5931426D01*
X22861680Y-5670273D01*
X22704637Y-5435241D01*
X22504759Y-5235363D01*
X22269727Y-5078320D01*
X22008574Y-4970147D01*
X21731335Y-4915000D01*
X21448665Y-4915000D01*
X21171426Y-4970147D01*
X20910273Y-5078320D01*
X20675241Y-5235363D01*
X20475363Y-5435241D01*
X20422070Y-5515000D01*
X20361018Y-5515000D01*
X20320000Y-5510960D01*
X20278981Y-5515000D01*
X20156311Y-5527082D01*
X19998913Y-5574828D01*
X19853854Y-5652364D01*
X19810000Y-5688354D01*
X19810000Y-4513711D01*
X19853937Y-4469774D01*
X19967205Y-4300256D01*
X20045226Y-4111898D01*
X20076499Y-3954678D01*
X20178665Y-3975000D01*
X20461335Y-3975000D01*
X20738574Y-3919853D01*
X20999727Y-3811680D01*
X21234759Y-3654637D01*
X21434637Y-3454759D01*
X21591680Y-3219727D01*
X21699853Y-2958574D01*
X21755000Y-2681335D01*
X21755000Y-2398665D01*
X21699853Y-2121426D01*
X21591680Y-1860273D01*
X21434637Y-1625241D01*
X21234759Y-1425363D01*
X20999727Y-1268320D01*
X20738574Y-1160147D01*
X20461335Y-1105000D01*
X20178665Y-1105000D01*
X19901426Y-1160147D01*
X19640273Y-1268320D01*
X19405241Y-1425363D01*
X19205363Y-1625241D01*
X19048320Y-1860273D01*
X18940147Y-2121426D01*
X18885000Y-2398665D01*
X18885000Y-2681335D01*
X18905322Y-2783501D01*
X18748102Y-2814774D01*
X18559744Y-2892795D01*
X18390226Y-3006063D01*
X18246063Y-3150226D01*
X18132795Y-3319744D01*
X18054774Y-3508102D01*
X18015000Y-3708061D01*
X18015000Y-3911939D01*
X18054774Y-4111898D01*
X18132795Y-4300256D01*
X18246063Y-4469774D01*
X18290000Y-4513711D01*
X18290001Y-9456288D01*
X18246063Y-9500226D01*
X18132795Y-9669744D01*
X18054774Y-9858102D01*
X18015000Y-10058061D01*
X18015000Y-10261939D01*
X18054774Y-10461898D01*
X18132795Y-10650256D01*
X18246063Y-10819774D01*
X18290000Y-10863711D01*
X18290000Y-16483354D01*
X18246146Y-16447364D01*
X18101087Y-16369828D01*
X17943689Y-16322082D01*
X17821019Y-16310000D01*
X17821018Y-16310000D01*
X17780000Y-16305960D01*
X17738981Y-16310000D01*
X16811112Y-16310000D01*
X16659608Y-16125392D01*
X16441101Y-15946068D01*
X16308142Y-15875000D01*
X16441101Y-15803932D01*
X16659608Y-15624608D01*
X16838932Y-15406101D01*
X16972182Y-15156808D01*
X17054236Y-14886309D01*
X17081943Y-14605000D01*
X17054236Y-14323691D01*
X16972182Y-14053192D01*
X16838932Y-13803899D01*
X16659608Y-13585392D01*
X16441101Y-13406068D01*
X16308142Y-13335000D01*
X16441101Y-13263932D01*
X16659608Y-13084608D01*
X16838932Y-12866101D01*
X16972182Y-12616808D01*
X17054236Y-12346309D01*
X17081943Y-12065000D01*
X17054236Y-11783691D01*
X16972182Y-11513192D01*
X16838932Y-11263899D01*
X16659608Y-11045392D01*
X16546518Y-10952581D01*
X16564482Y-10950812D01*
X16684180Y-10914502D01*
X16794494Y-10855537D01*
X16891185Y-10776185D01*
X16970537Y-10679494D01*
X17029502Y-10569180D01*
X17065812Y-10449482D01*
X17078072Y-10325000D01*
X17078072Y-8725000D01*
X17065812Y-8600518D01*
X17029502Y-8480820D01*
X16970537Y-8370506D01*
X16891185Y-8273815D01*
X16794494Y-8194463D01*
X16684180Y-8135498D01*
X16564482Y-8099188D01*
X16440000Y-8086928D01*
X14040000Y-8086928D01*
X13915518Y-8099188D01*
X13795820Y-8135498D01*
X13685506Y-8194463D01*
X13588815Y-8273815D01*
X13509463Y-8370506D01*
X13450498Y-8480820D01*
X13414188Y-8600518D01*
X13401928Y-8725000D01*
X13401928Y-10325000D01*
X13414188Y-10449482D01*
X13450498Y-10569180D01*
X13509463Y-10679494D01*
X13588815Y-10776185D01*
X13685506Y-10855537D01*
X13795820Y-10914502D01*
X13915518Y-10950812D01*
X13933482Y-10952581D01*
X13820392Y-11045392D01*
X13641068Y-11263899D01*
X13507818Y-11513192D01*
X13425764Y-11783691D01*
X13398057Y-12065000D01*
X13425764Y-12346309D01*
X13507818Y-12616808D01*
X13641068Y-12866101D01*
X13820392Y-13084608D01*
X14038899Y-13263932D01*
X14171858Y-13335000D01*
X14038899Y-13406068D01*
X13820392Y-13585392D01*
X13641068Y-13803899D01*
X13507818Y-14053192D01*
X13425764Y-14323691D01*
X13398057Y-14605000D01*
X13425764Y-14886309D01*
X13507818Y-15156808D01*
X13641068Y-15406101D01*
X13820392Y-15624608D01*
X14038899Y-15803932D01*
X14171858Y-15875000D01*
X14038899Y-15946068D01*
X13820392Y-16125392D01*
X13641068Y-16343899D01*
X13507818Y-16593192D01*
X13425764Y-16863691D01*
X13398057Y-17145000D01*
X13425764Y-17426309D01*
X13507818Y-17696808D01*
X13641068Y-17946101D01*
X13820392Y-18164608D01*
X14038899Y-18343932D01*
X14288192Y-18477182D01*
X14558691Y-18559236D01*
X14769508Y-18580000D01*
X15710492Y-18580000D01*
X15921309Y-18559236D01*
X16191808Y-18477182D01*
X16441101Y-18343932D01*
X16659608Y-18164608D01*
X16811112Y-17980000D01*
X16945000Y-17980000D01*
X16945001Y-18927501D01*
X16731335Y-18885000D01*
X16448665Y-18885000D01*
X16171426Y-18940147D01*
X15910273Y-19048320D01*
X15675241Y-19205363D01*
X15475363Y-19405241D01*
X15318320Y-19640273D01*
X15210147Y-19901426D01*
X15155000Y-20178665D01*
X15155000Y-20461335D01*
X15210147Y-20738574D01*
X15318320Y-20999727D01*
X15475363Y-21234759D01*
X15675241Y-21434637D01*
X15910273Y-21591680D01*
X16171426Y-21699853D01*
X16448665Y-21755000D01*
X16731335Y-21755000D01*
X16945000Y-21712499D01*
X16945001Y-26980605D01*
X16789759Y-26825363D01*
X16554727Y-26668320D01*
X16293574Y-26560147D01*
X16016335Y-26505000D01*
X15733665Y-26505000D01*
X15456426Y-26560147D01*
X15195273Y-26668320D01*
X14960241Y-26825363D01*
X14760363Y-27025241D01*
X14603320Y-27260273D01*
X14495147Y-27521426D01*
X14440000Y-27798665D01*
X14440000Y-28081335D01*
X14495147Y-28358574D01*
X14603320Y-28619727D01*
X14760363Y-28854759D01*
X14960241Y-29054637D01*
X15192759Y-29210000D01*
X14960241Y-29365363D01*
X14760363Y-29565241D01*
X14603320Y-29800273D01*
X14495147Y-30061426D01*
X14440000Y-30338665D01*
X14440000Y-30621335D01*
X14495147Y-30898574D01*
X14504561Y-30921302D01*
X14490998Y-30966015D01*
X14476324Y-31115000D01*
X14480001Y-31152332D01*
X14480000Y-35391928D01*
X14040000Y-35391928D01*
X13915518Y-35404188D01*
X13795820Y-35440498D01*
X13685506Y-35499463D01*
X13588815Y-35578815D01*
X13509463Y-35675506D01*
X13460000Y-35768043D01*
X13460000Y-34358711D01*
X13503937Y-34314774D01*
X13617205Y-34145256D01*
X13695226Y-33956898D01*
X13735000Y-33756939D01*
X13735000Y-33553061D01*
X13695226Y-33353102D01*
X13617205Y-33164744D01*
X13503937Y-32995226D01*
X13359774Y-32851063D01*
X13190256Y-32737795D01*
X13001898Y-32659774D01*
X12801939Y-32620000D01*
X12598061Y-32620000D01*
X12398102Y-32659774D01*
X12209744Y-32737795D01*
X12190000Y-32750987D01*
X12190000Y-31821983D01*
X12281426Y-31859853D01*
X12558665Y-31915000D01*
X12841335Y-31915000D01*
X13118574Y-31859853D01*
X13379727Y-31751680D01*
X13614759Y-31594637D01*
X13814637Y-31394759D01*
X13971680Y-31159727D01*
X14079853Y-30898574D01*
X14135000Y-30621335D01*
X14135000Y-30338665D01*
X14079853Y-30061426D01*
X13971680Y-29800273D01*
X13814637Y-29565241D01*
X13614759Y-29365363D01*
X13382241Y-29210000D01*
X13614759Y-29054637D01*
X13814637Y-28854759D01*
X13971680Y-28619727D01*
X14079853Y-28358574D01*
X14135000Y-28081335D01*
X14135000Y-27798665D01*
X14079853Y-27521426D01*
X13971680Y-27260273D01*
X13814637Y-27025241D01*
X13614759Y-26825363D01*
X13379727Y-26668320D01*
X13118574Y-26560147D01*
X12841335Y-26505000D01*
X12558665Y-26505000D01*
X12281426Y-26560147D01*
X12020273Y-26668320D01*
X11785241Y-26825363D01*
X11585363Y-27025241D01*
X11428320Y-27260273D01*
X11320147Y-27521426D01*
X11265000Y-27798665D01*
X11265000Y-28081335D01*
X11301312Y-28263886D01*
X10919003Y-28646196D01*
X10889999Y-28669999D01*
X10834871Y-28737174D01*
X10795026Y-28785724D01*
X10724455Y-28917753D01*
X10724454Y-28917754D01*
X10680997Y-29061015D01*
X10670000Y-29172668D01*
X10670000Y-29172678D01*
X10666324Y-29210000D01*
X10670000Y-29247322D01*
X10670000Y-29610683D01*
X10639637Y-29565241D01*
X10439759Y-29365363D01*
X10207241Y-29210000D01*
X10439759Y-29054637D01*
X10639637Y-28854759D01*
X10796680Y-28619727D01*
X10904853Y-28358574D01*
X10960000Y-28081335D01*
X10960000Y-27798665D01*
X10904853Y-27521426D01*
X10796680Y-27260273D01*
X10639637Y-27025241D01*
X10439759Y-26825363D01*
X10204727Y-26668320D01*
X9943574Y-26560147D01*
X9666335Y-26505000D01*
X9383665Y-26505000D01*
X9106426Y-26560147D01*
X8845273Y-26668320D01*
X8610241Y-26825363D01*
X8410363Y-27025241D01*
X8253320Y-27260273D01*
X8145147Y-27521426D01*
X8090000Y-27798665D01*
X8090000Y-28081335D01*
X8145147Y-28358574D01*
X8253320Y-28619727D01*
X8410363Y-28854759D01*
X8610241Y-29054637D01*
X8842759Y-29210000D01*
X8610241Y-29365363D01*
X8410363Y-29565241D01*
X8253320Y-29800273D01*
X8145147Y-30061426D01*
X8090000Y-30338665D01*
X8090000Y-30621335D01*
X8145147Y-30898574D01*
X8253320Y-31159727D01*
X8410363Y-31394759D01*
X8610241Y-31594637D01*
X8765000Y-31698043D01*
X8765001Y-66603017D01*
X8673574Y-66565147D01*
X8396335Y-66510000D01*
X8113665Y-66510000D01*
X7836426Y-66565147D01*
X7575273Y-66673320D01*
X7340241Y-66830363D01*
X7140363Y-67030241D01*
X6983320Y-67265273D01*
X6875147Y-67526426D01*
X6820000Y-67803665D01*
X6820000Y-68086335D01*
X6856312Y-68268886D01*
X6488998Y-68636201D01*
X6460000Y-68659999D01*
X6436202Y-68688997D01*
X6436201Y-68688998D01*
X6365026Y-68775724D01*
X6294454Y-68907754D01*
X6264180Y-69007558D01*
X6250998Y-69051014D01*
X6241016Y-69152364D01*
X6236324Y-69200000D01*
X6240001Y-69237332D01*
X6240001Y-71262321D01*
X6087248Y-71343969D01*
X5838286Y-71548286D01*
X5633969Y-71797249D01*
X5482148Y-72081286D01*
X5388657Y-72389485D01*
X5365000Y-72629679D01*
X5365001Y-74690322D01*
X5388658Y-74930516D01*
X5482149Y-75238715D01*
X5633970Y-75522752D01*
X5838287Y-75771714D01*
X6087249Y-75976031D01*
X6272407Y-76075000D01*
X4759802Y-76075000D01*
X4570000Y-75885199D01*
X4570000Y-61199679D01*
X5365000Y-61199679D01*
X5365001Y-63260322D01*
X5388658Y-63500516D01*
X5482149Y-63808715D01*
X5633970Y-64092752D01*
X5838287Y-64341714D01*
X6087249Y-64546031D01*
X6371286Y-64697852D01*
X6679485Y-64791343D01*
X7000000Y-64822911D01*
X7320516Y-64791343D01*
X7628715Y-64697852D01*
X7912752Y-64546031D01*
X8161714Y-64341714D01*
X8366031Y-64092752D01*
X8517852Y-63808715D01*
X8611343Y-63500516D01*
X8635000Y-63260322D01*
X8635000Y-61199678D01*
X8611343Y-60959484D01*
X8517852Y-60651285D01*
X8366031Y-60367248D01*
X8161714Y-60118286D01*
X7912751Y-59913969D01*
X7745000Y-59824304D01*
X7745000Y-58488711D01*
X7788937Y-58444774D01*
X7902205Y-58275256D01*
X7980226Y-58086898D01*
X8020000Y-57886939D01*
X8020000Y-57683061D01*
X7980226Y-57483102D01*
X7902205Y-57294744D01*
X7788937Y-57125226D01*
X7644774Y-56981063D01*
X7475256Y-56867795D01*
X7286898Y-56789774D01*
X7253205Y-56783072D01*
X7885000Y-56783072D01*
X8009482Y-56770812D01*
X8129180Y-56734502D01*
X8239494Y-56675537D01*
X8336185Y-56596185D01*
X8415537Y-56499494D01*
X8474502Y-56389180D01*
X8510812Y-56269482D01*
X8523072Y-56145000D01*
X8523072Y-54345000D01*
X8510812Y-54220518D01*
X8474502Y-54100820D01*
X8415537Y-53990506D01*
X8336185Y-53893815D01*
X8239494Y-53814463D01*
X8129180Y-53755498D01*
X8110873Y-53749944D01*
X8177312Y-53683505D01*
X8345299Y-53432095D01*
X8461011Y-53152743D01*
X8520000Y-52856184D01*
X8520000Y-52553816D01*
X8461011Y-52257257D01*
X8345299Y-51977905D01*
X8177312Y-51726495D01*
X7963505Y-51512688D01*
X7712095Y-51344701D01*
X7432743Y-51228989D01*
X7136184Y-51170000D01*
X6833816Y-51170000D01*
X6537257Y-51228989D01*
X6257905Y-51344701D01*
X6006495Y-51512688D01*
X5792688Y-51726495D01*
X5624701Y-51977905D01*
X5508989Y-52257257D01*
X5450000Y-52553816D01*
X5450000Y-52856184D01*
X5508989Y-53152743D01*
X5624701Y-53432095D01*
X5792688Y-53683505D01*
X5859127Y-53749944D01*
X5840820Y-53755498D01*
X5730506Y-53814463D01*
X5633815Y-53893815D01*
X5554463Y-53990506D01*
X5495498Y-54100820D01*
X5459188Y-54220518D01*
X5446928Y-54345000D01*
X5446928Y-56145000D01*
X5459188Y-56269482D01*
X5495498Y-56389180D01*
X5554463Y-56499494D01*
X5633815Y-56596185D01*
X5730506Y-56675537D01*
X5840820Y-56734502D01*
X5960518Y-56770812D01*
X6085000Y-56783072D01*
X6716795Y-56783072D01*
X6683102Y-56789774D01*
X6494744Y-56867795D01*
X6325226Y-56981063D01*
X6181063Y-57125226D01*
X6067795Y-57294744D01*
X5989774Y-57483102D01*
X5950000Y-57683061D01*
X5950000Y-57886939D01*
X5989774Y-58086898D01*
X6067795Y-58275256D01*
X6181063Y-58444774D01*
X6225001Y-58488712D01*
X6225001Y-59840339D01*
X6087248Y-59913969D01*
X5838286Y-60118286D01*
X5633969Y-60367249D01*
X5482148Y-60651286D01*
X5388657Y-60959485D01*
X5365000Y-61199679D01*
X4570000Y-61199679D01*
X4570000Y-58457333D01*
X4573677Y-58420000D01*
X4559003Y-58271014D01*
X4515546Y-58127753D01*
X4444974Y-57995724D01*
X4373799Y-57908997D01*
X4350001Y-57879999D01*
X4321004Y-57856202D01*
X3738803Y-57274002D01*
X3715001Y-57244999D01*
X3599276Y-57150026D01*
X3467247Y-57079454D01*
X3323986Y-57035997D01*
X3212333Y-57025000D01*
X3212322Y-57025000D01*
X3175000Y-57021324D01*
X3137678Y-57025000D01*
X2219802Y-57025000D01*
X2030000Y-56835199D01*
X2030000Y-56695223D01*
X2092257Y-56721011D01*
X2388816Y-56780000D01*
X2691184Y-56780000D01*
X2987743Y-56721011D01*
X3267095Y-56605299D01*
X3518505Y-56437312D01*
X3732312Y-56223505D01*
X3900299Y-55972095D01*
X4016011Y-55692743D01*
X4075000Y-55396184D01*
X4075000Y-55093816D01*
X4016011Y-54797257D01*
X3900299Y-54517905D01*
X3732312Y-54266495D01*
X3665873Y-54200056D01*
X3684180Y-54194502D01*
X3794494Y-54135537D01*
X3891185Y-54056185D01*
X3970537Y-53959494D01*
X4029502Y-53849180D01*
X4065812Y-53729482D01*
X4078072Y-53605000D01*
X4078072Y-51805000D01*
X4065812Y-51680518D01*
X4029502Y-51560820D01*
X3970537Y-51450506D01*
X3891185Y-51353815D01*
X3794494Y-51274463D01*
X3684180Y-51215498D01*
X3564482Y-51179188D01*
X3440000Y-51166928D01*
X2030000Y-51166928D01*
X2030000Y-50522702D01*
X2361903Y-50522702D01*
X2433486Y-50766671D01*
X2688996Y-50887571D01*
X2963184Y-50956300D01*
X3245512Y-50970217D01*
X3525130Y-50928787D01*
X3791292Y-50833603D01*
X3916514Y-50766671D01*
X3988097Y-50522702D01*
X3175000Y-49709605D01*
X2361903Y-50522702D01*
X2030000Y-50522702D01*
X2030000Y-50298411D01*
X2182298Y-50343097D01*
X2995395Y-49530000D01*
X3354605Y-49530000D01*
X4167702Y-50343097D01*
X4411671Y-50271514D01*
X4442194Y-50207008D01*
X4443320Y-50209727D01*
X4600363Y-50444759D01*
X4800241Y-50644637D01*
X5035273Y-50801680D01*
X5296426Y-50909853D01*
X5573665Y-50965000D01*
X5856335Y-50965000D01*
X6133574Y-50909853D01*
X6394727Y-50801680D01*
X6629759Y-50644637D01*
X6829637Y-50444759D01*
X6986680Y-50209727D01*
X7094853Y-49948574D01*
X7150000Y-49671335D01*
X7150000Y-49388665D01*
X7094853Y-49111426D01*
X6986680Y-48850273D01*
X6829637Y-48615241D01*
X6629759Y-48415363D01*
X6595773Y-48392655D01*
X6614482Y-48390812D01*
X6734180Y-48354502D01*
X6844494Y-48295537D01*
X6941185Y-48216185D01*
X7020537Y-48119494D01*
X7079502Y-48009180D01*
X7115812Y-47889482D01*
X7128072Y-47765000D01*
X7128072Y-46215000D01*
X7115812Y-46090518D01*
X7079502Y-45970820D01*
X7020537Y-45860506D01*
X6941185Y-45763815D01*
X6844494Y-45684463D01*
X6734180Y-45625498D01*
X6614482Y-45589188D01*
X6490000Y-45576928D01*
X4940000Y-45576928D01*
X4815518Y-45589188D01*
X4695820Y-45625498D01*
X4585506Y-45684463D01*
X4488815Y-45763815D01*
X4409463Y-45860506D01*
X4350498Y-45970820D01*
X4314188Y-46090518D01*
X4301928Y-46215000D01*
X4301928Y-47765000D01*
X4314188Y-47889482D01*
X4350498Y-48009180D01*
X4409463Y-48119494D01*
X4488815Y-48216185D01*
X4585506Y-48295537D01*
X4695820Y-48354502D01*
X4815518Y-48390812D01*
X4834227Y-48392655D01*
X4800241Y-48415363D01*
X4600363Y-48615241D01*
X4444085Y-48849128D01*
X4411671Y-48788486D01*
X4167702Y-48716903D01*
X3354605Y-49530000D01*
X2995395Y-49530000D01*
X2182298Y-48716903D01*
X2030000Y-48761589D01*
X2030000Y-48537298D01*
X2361903Y-48537298D01*
X3175000Y-49350395D01*
X3988097Y-48537298D01*
X3916514Y-48293329D01*
X3661004Y-48172429D01*
X3386816Y-48103700D01*
X3104488Y-48089783D01*
X2824870Y-48131213D01*
X2558708Y-48226397D01*
X2433486Y-48293329D01*
X2361903Y-48537298D01*
X2030000Y-48537298D01*
X2030000Y-42613711D01*
X2073937Y-42569774D01*
X2187205Y-42400256D01*
X2265226Y-42211898D01*
X2305000Y-42011939D01*
X2305000Y-41808061D01*
X2265226Y-41608102D01*
X2187205Y-41419744D01*
X2073937Y-41250226D01*
X1929774Y-41106063D01*
X1760256Y-40992795D01*
X1571898Y-40914774D01*
X1371939Y-40875000D01*
X1168061Y-40875000D01*
X968102Y-40914774D01*
X779744Y-40992795D01*
X660000Y-41072805D01*
X660000Y-40207195D01*
X779744Y-40287205D01*
X968102Y-40365226D01*
X1168061Y-40405000D01*
X1371939Y-40405000D01*
X1571898Y-40365226D01*
X1760256Y-40287205D01*
X1929774Y-40173937D01*
X1963667Y-40140044D01*
X2060363Y-40284759D01*
X2260241Y-40484637D01*
X2495273Y-40641680D01*
X2756426Y-40749853D01*
X3033665Y-40805000D01*
X3316335Y-40805000D01*
X3593574Y-40749853D01*
X3854727Y-40641680D01*
X4089759Y-40484637D01*
X4289637Y-40284759D01*
X4445000Y-40052241D01*
X4600363Y-40284759D01*
X4800241Y-40484637D01*
X4955000Y-40588044D01*
X4955001Y-40802024D01*
X4816178Y-40894782D01*
X4619782Y-41091178D01*
X4465475Y-41322115D01*
X4359186Y-41578718D01*
X4305000Y-41851127D01*
X4305000Y-42128873D01*
X4359186Y-42401282D01*
X4465475Y-42657885D01*
X4619782Y-42888822D01*
X4816178Y-43085218D01*
X5047115Y-43239525D01*
X5303718Y-43345814D01*
X5576127Y-43400000D01*
X5853873Y-43400000D01*
X6126282Y-43345814D01*
X6382885Y-43239525D01*
X6613822Y-43085218D01*
X6810218Y-42888822D01*
X6964525Y-42657885D01*
X7070814Y-42401282D01*
X7125000Y-42128873D01*
X7125000Y-41851127D01*
X7070814Y-41578718D01*
X6964525Y-41322115D01*
X6810218Y-41091178D01*
X6613822Y-40894782D01*
X6475000Y-40802024D01*
X6475000Y-40588043D01*
X6629759Y-40484637D01*
X6829637Y-40284759D01*
X6986680Y-40049727D01*
X7094853Y-39788574D01*
X7150000Y-39511335D01*
X7150000Y-39228665D01*
X7094853Y-38951426D01*
X6986680Y-38690273D01*
X6829637Y-38455241D01*
X6629759Y-38255363D01*
X6394727Y-38098320D01*
X6133574Y-37990147D01*
X5856335Y-37935000D01*
X5573665Y-37935000D01*
X5296426Y-37990147D01*
X5035273Y-38098320D01*
X4800241Y-38255363D01*
X4600363Y-38455241D01*
X4445000Y-38687759D01*
X4289637Y-38455241D01*
X4089759Y-38255363D01*
X3854727Y-38098320D01*
X3593574Y-37990147D01*
X3316335Y-37935000D01*
X3033665Y-37935000D01*
X2756426Y-37990147D01*
X2495273Y-38098320D01*
X2260241Y-38255363D01*
X2060363Y-38455241D01*
X2030000Y-38500683D01*
X2030000Y-36500810D01*
X5006036Y-36500810D01*
X5014728Y-36562337D01*
X5107725Y-36771882D01*
X5239816Y-36959258D01*
X5405924Y-37117264D01*
X5599666Y-37239828D01*
X5813596Y-37322239D01*
X6039493Y-37361331D01*
X6223000Y-37201598D01*
X6223000Y-36322000D01*
X6477000Y-36322000D01*
X6477000Y-37201598D01*
X6660507Y-37361331D01*
X6886404Y-37322239D01*
X7100334Y-37239828D01*
X7294076Y-37117264D01*
X7460184Y-36959258D01*
X7592275Y-36771882D01*
X7685272Y-36562337D01*
X7693964Y-36500810D01*
X7568163Y-36322000D01*
X6477000Y-36322000D01*
X6223000Y-36322000D01*
X5131837Y-36322000D01*
X5006036Y-36500810D01*
X2030000Y-36500810D01*
X2030000Y-31349317D01*
X2060363Y-31394759D01*
X2260241Y-31594637D01*
X2415000Y-31698044D01*
X2415001Y-34221288D01*
X2371063Y-34265226D01*
X2257795Y-34434744D01*
X2179774Y-34623102D01*
X2140000Y-34823061D01*
X2140000Y-35026939D01*
X2179774Y-35226898D01*
X2257795Y-35415256D01*
X2371063Y-35584774D01*
X2515226Y-35728937D01*
X2684744Y-35842205D01*
X2873102Y-35920226D01*
X3073061Y-35960000D01*
X3276939Y-35960000D01*
X3476898Y-35920226D01*
X3665256Y-35842205D01*
X3834774Y-35728937D01*
X3978937Y-35584774D01*
X4092205Y-35415256D01*
X4170226Y-35226898D01*
X4210000Y-35026939D01*
X4210000Y-34823061D01*
X4170226Y-34623102D01*
X4092205Y-34434744D01*
X3978937Y-34265226D01*
X3935000Y-34221289D01*
X3935000Y-31698043D01*
X4089759Y-31594637D01*
X4289637Y-31394759D01*
X4446680Y-31159727D01*
X4554853Y-30898574D01*
X4610000Y-30621335D01*
X4610000Y-30338665D01*
X4554853Y-30061426D01*
X4446680Y-29800273D01*
X4289637Y-29565241D01*
X4089759Y-29365363D01*
X3857241Y-29210000D01*
X4089759Y-29054637D01*
X4289637Y-28854759D01*
X4446680Y-28619727D01*
X4554853Y-28358574D01*
X4610000Y-28081335D01*
X4610000Y-27798665D01*
X4915000Y-27798665D01*
X4915000Y-28081335D01*
X4970147Y-28358574D01*
X5078320Y-28619727D01*
X5235363Y-28854759D01*
X5435241Y-29054637D01*
X5667759Y-29210000D01*
X5435241Y-29365363D01*
X5235363Y-29565241D01*
X5078320Y-29800273D01*
X4970147Y-30061426D01*
X4915000Y-30338665D01*
X4915000Y-30621335D01*
X4970147Y-30898574D01*
X5078320Y-31159727D01*
X5235363Y-31394759D01*
X5435241Y-31594637D01*
X5590000Y-31698044D01*
X5590001Y-32492913D01*
X5475518Y-32504188D01*
X5355820Y-32540498D01*
X5245506Y-32599463D01*
X5148815Y-32678815D01*
X5069463Y-32775506D01*
X5010498Y-32885820D01*
X4974188Y-33005518D01*
X4961928Y-33130000D01*
X4961928Y-34180000D01*
X4974188Y-34304482D01*
X5010498Y-34424180D01*
X5045093Y-34488902D01*
X4981785Y-34697600D01*
X4959388Y-34925000D01*
X4981785Y-35152400D01*
X5048115Y-35371060D01*
X5148929Y-35559669D01*
X5107725Y-35618118D01*
X5014728Y-35827663D01*
X5006036Y-35889190D01*
X5131837Y-36068000D01*
X5896891Y-36068000D01*
X5897600Y-36068215D01*
X6068021Y-36085000D01*
X6631979Y-36085000D01*
X6802400Y-36068215D01*
X6803109Y-36068000D01*
X7568163Y-36068000D01*
X7693964Y-35889190D01*
X7685272Y-35827663D01*
X7592275Y-35618118D01*
X7551071Y-35559669D01*
X7651885Y-35371060D01*
X7718215Y-35152400D01*
X7740612Y-34925000D01*
X7718215Y-34697600D01*
X7654907Y-34488902D01*
X7689502Y-34424180D01*
X7725812Y-34304482D01*
X7738072Y-34180000D01*
X7738072Y-33130000D01*
X7725812Y-33005518D01*
X7689502Y-32885820D01*
X7630537Y-32775506D01*
X7551185Y-32678815D01*
X7454494Y-32599463D01*
X7344180Y-32540498D01*
X7224482Y-32504188D01*
X7110000Y-32492913D01*
X7110000Y-31698043D01*
X7264759Y-31594637D01*
X7464637Y-31394759D01*
X7621680Y-31159727D01*
X7729853Y-30898574D01*
X7785000Y-30621335D01*
X7785000Y-30338665D01*
X7729853Y-30061426D01*
X7621680Y-29800273D01*
X7464637Y-29565241D01*
X7264759Y-29365363D01*
X7032241Y-29210000D01*
X7264759Y-29054637D01*
X7464637Y-28854759D01*
X7621680Y-28619727D01*
X7729853Y-28358574D01*
X7785000Y-28081335D01*
X7785000Y-27798665D01*
X7729853Y-27521426D01*
X7621680Y-27260273D01*
X7464637Y-27025241D01*
X7264759Y-26825363D01*
X7120044Y-26728667D01*
X7153937Y-26694774D01*
X7267205Y-26525256D01*
X7345226Y-26336898D01*
X7385000Y-26136939D01*
X7385000Y-25933061D01*
X7345226Y-25733102D01*
X7267205Y-25544744D01*
X7153937Y-25375226D01*
X7009774Y-25231063D01*
X6840256Y-25117795D01*
X6651898Y-25039774D01*
X6451939Y-25000000D01*
X6248061Y-25000000D01*
X6048102Y-25039774D01*
X5859744Y-25117795D01*
X5690226Y-25231063D01*
X5546063Y-25375226D01*
X5432795Y-25544744D01*
X5354774Y-25733102D01*
X5315000Y-25933061D01*
X5315000Y-26136939D01*
X5354774Y-26336898D01*
X5432795Y-26525256D01*
X5546063Y-26694774D01*
X5579956Y-26728667D01*
X5435241Y-26825363D01*
X5235363Y-27025241D01*
X5078320Y-27260273D01*
X4970147Y-27521426D01*
X4915000Y-27798665D01*
X4610000Y-27798665D01*
X4554853Y-27521426D01*
X4446680Y-27260273D01*
X4289637Y-27025241D01*
X4089759Y-26825363D01*
X3935000Y-26721957D01*
X3935000Y-25468711D01*
X3978937Y-25424774D01*
X4092205Y-25255256D01*
X4170226Y-25066898D01*
X4210000Y-24866939D01*
X4210000Y-24663061D01*
X4170226Y-24463102D01*
X4092205Y-24274744D01*
X3978937Y-24105226D01*
X3834774Y-23961063D01*
X3665256Y-23847795D01*
X3476898Y-23769774D01*
X3276939Y-23730000D01*
X3073061Y-23730000D01*
X2873102Y-23769774D01*
X2684744Y-23847795D01*
X2515226Y-23961063D01*
X2371063Y-24105226D01*
X2257795Y-24274744D01*
X2179774Y-24463102D01*
X2140000Y-24663061D01*
X2140000Y-24866939D01*
X2179774Y-25066898D01*
X2257795Y-25255256D01*
X2371063Y-25424774D01*
X2415000Y-25468711D01*
X2415001Y-26721956D01*
X2260241Y-26825363D01*
X2060363Y-27025241D01*
X2030000Y-27070683D01*
X2030000Y-19407702D01*
X8076903Y-19407702D01*
X8148486Y-19651671D01*
X8403996Y-19772571D01*
X8678184Y-19841300D01*
X8960512Y-19855217D01*
X9240130Y-19813787D01*
X9506292Y-19718603D01*
X9631514Y-19651671D01*
X9703097Y-19407702D01*
X8890000Y-18594605D01*
X8076903Y-19407702D01*
X2030000Y-19407702D01*
X2030000Y-18485512D01*
X7449783Y-18485512D01*
X7491213Y-18765130D01*
X7586397Y-19031292D01*
X7653329Y-19156514D01*
X7897298Y-19228097D01*
X8710395Y-18415000D01*
X9069605Y-18415000D01*
X9882702Y-19228097D01*
X10126671Y-19156514D01*
X10157194Y-19092008D01*
X10158320Y-19094727D01*
X10315363Y-19329759D01*
X10515241Y-19529637D01*
X10750273Y-19686680D01*
X11011426Y-19794853D01*
X11288665Y-19850000D01*
X11571335Y-19850000D01*
X11848574Y-19794853D01*
X12109727Y-19686680D01*
X12344759Y-19529637D01*
X12544637Y-19329759D01*
X12701680Y-19094727D01*
X12809853Y-18833574D01*
X12865000Y-18556335D01*
X12865000Y-18273665D01*
X12809853Y-17996426D01*
X12701680Y-17735273D01*
X12544637Y-17500241D01*
X12344759Y-17300363D01*
X12109727Y-17143320D01*
X11848574Y-17035147D01*
X11571335Y-16980000D01*
X11288665Y-16980000D01*
X11011426Y-17035147D01*
X10750273Y-17143320D01*
X10515241Y-17300363D01*
X10315363Y-17500241D01*
X10159085Y-17734128D01*
X10126671Y-17673486D01*
X9882702Y-17601903D01*
X9069605Y-18415000D01*
X8710395Y-18415000D01*
X7897298Y-17601903D01*
X7653329Y-17673486D01*
X7532429Y-17928996D01*
X7463700Y-18203184D01*
X7449783Y-18485512D01*
X2030000Y-18485512D01*
X2030000Y-17422298D01*
X8076903Y-17422298D01*
X8890000Y-18235395D01*
X9703097Y-17422298D01*
X9631514Y-17178329D01*
X9376004Y-17057429D01*
X9101816Y-16988700D01*
X8819488Y-16974783D01*
X8539870Y-17016213D01*
X8273708Y-17111397D01*
X8148486Y-17178329D01*
X8076903Y-17422298D01*
X2030000Y-17422298D01*
X2030000Y-10228711D01*
X2073937Y-10184774D01*
X2187205Y-10015256D01*
X2265226Y-9826898D01*
X2305000Y-9626939D01*
X2305000Y-9423061D01*
X2295205Y-9373816D01*
X3545000Y-9373816D01*
X3545000Y-9676184D01*
X3603989Y-9972743D01*
X3719701Y-10252095D01*
X3887688Y-10503505D01*
X4101495Y-10717312D01*
X4187831Y-10775000D01*
X4101495Y-10832688D01*
X3887688Y-11046495D01*
X3719701Y-11297905D01*
X3603989Y-11577257D01*
X3545000Y-11873816D01*
X3545000Y-12176184D01*
X3603989Y-12472743D01*
X3719701Y-12752095D01*
X3887688Y-13003505D01*
X4101495Y-13217312D01*
X4187831Y-13275000D01*
X4101495Y-13332688D01*
X3887688Y-13546495D01*
X3719701Y-13797905D01*
X3603989Y-14077257D01*
X3545000Y-14373816D01*
X3545000Y-14676184D01*
X3603989Y-14972743D01*
X3719701Y-15252095D01*
X3887688Y-15503505D01*
X4101495Y-15717312D01*
X4352905Y-15885299D01*
X4632257Y-16001011D01*
X4928816Y-16060000D01*
X5231184Y-16060000D01*
X5527743Y-16001011D01*
X5807095Y-15885299D01*
X6058505Y-15717312D01*
X6272312Y-15503505D01*
X6440299Y-15252095D01*
X6503852Y-15098665D01*
X7455000Y-15098665D01*
X7455000Y-15381335D01*
X7510147Y-15658574D01*
X7618320Y-15919727D01*
X7775363Y-16154759D01*
X7975241Y-16354637D01*
X8210273Y-16511680D01*
X8471426Y-16619853D01*
X8748665Y-16675000D01*
X9031335Y-16675000D01*
X9308574Y-16619853D01*
X9569727Y-16511680D01*
X9804759Y-16354637D01*
X9926694Y-16232702D01*
X10616903Y-16232702D01*
X10688486Y-16476671D01*
X10943996Y-16597571D01*
X11218184Y-16666300D01*
X11500512Y-16680217D01*
X11780130Y-16638787D01*
X12046292Y-16543603D01*
X12171514Y-16476671D01*
X12243097Y-16232702D01*
X11430000Y-15419605D01*
X10616903Y-16232702D01*
X9926694Y-16232702D01*
X10004637Y-16154759D01*
X10160915Y-15920872D01*
X10193329Y-15981514D01*
X10437298Y-16053097D01*
X11250395Y-15240000D01*
X11609605Y-15240000D01*
X12422702Y-16053097D01*
X12666671Y-15981514D01*
X12787571Y-15726004D01*
X12856300Y-15451816D01*
X12870217Y-15169488D01*
X12828787Y-14889870D01*
X12733603Y-14623708D01*
X12666671Y-14498486D01*
X12422702Y-14426903D01*
X11609605Y-15240000D01*
X11250395Y-15240000D01*
X10437298Y-14426903D01*
X10193329Y-14498486D01*
X10162806Y-14562992D01*
X10161680Y-14560273D01*
X10004637Y-14325241D01*
X9926694Y-14247298D01*
X10616903Y-14247298D01*
X11430000Y-15060395D01*
X12243097Y-14247298D01*
X12171514Y-14003329D01*
X11916004Y-13882429D01*
X11641816Y-13813700D01*
X11359488Y-13799783D01*
X11079870Y-13841213D01*
X10813708Y-13936397D01*
X10688486Y-14003329D01*
X10616903Y-14247298D01*
X9926694Y-14247298D01*
X9804759Y-14125363D01*
X9569727Y-13968320D01*
X9308574Y-13860147D01*
X9031335Y-13805000D01*
X8748665Y-13805000D01*
X8471426Y-13860147D01*
X8210273Y-13968320D01*
X7975241Y-14125363D01*
X7775363Y-14325241D01*
X7618320Y-14560273D01*
X7510147Y-14821426D01*
X7455000Y-15098665D01*
X6503852Y-15098665D01*
X6556011Y-14972743D01*
X6615000Y-14676184D01*
X6615000Y-14373816D01*
X6556011Y-14077257D01*
X6440299Y-13797905D01*
X6272312Y-13546495D01*
X6058505Y-13332688D01*
X5972169Y-13275000D01*
X6058505Y-13217312D01*
X6272312Y-13003505D01*
X6440299Y-12752095D01*
X6556011Y-12472743D01*
X6615000Y-12176184D01*
X6615000Y-11923665D01*
X7455000Y-11923665D01*
X7455000Y-12206335D01*
X7510147Y-12483574D01*
X7618320Y-12744727D01*
X7775363Y-12979759D01*
X7975241Y-13179637D01*
X8210273Y-13336680D01*
X8471426Y-13444853D01*
X8748665Y-13500000D01*
X9031335Y-13500000D01*
X9308574Y-13444853D01*
X9569727Y-13336680D01*
X9804759Y-13179637D01*
X10004637Y-12979759D01*
X10160000Y-12747241D01*
X10315363Y-12979759D01*
X10515241Y-13179637D01*
X10750273Y-13336680D01*
X11011426Y-13444853D01*
X11288665Y-13500000D01*
X11571335Y-13500000D01*
X11848574Y-13444853D01*
X12109727Y-13336680D01*
X12344759Y-13179637D01*
X12544637Y-12979759D01*
X12701680Y-12744727D01*
X12809853Y-12483574D01*
X12865000Y-12206335D01*
X12865000Y-11923665D01*
X12809853Y-11646426D01*
X12701680Y-11385273D01*
X12544637Y-11150241D01*
X12344759Y-10950363D01*
X12109727Y-10793320D01*
X11848574Y-10685147D01*
X11571335Y-10630000D01*
X11288665Y-10630000D01*
X11106114Y-10666312D01*
X10285000Y-9845199D01*
X10285000Y-8898178D01*
X10471632Y-8773475D01*
X10678475Y-8566632D01*
X10795000Y-8392240D01*
X10911525Y-8566632D01*
X11118368Y-8773475D01*
X11361589Y-8935990D01*
X11631842Y-9047932D01*
X11918740Y-9105000D01*
X12211260Y-9105000D01*
X12498158Y-9047932D01*
X12768411Y-8935990D01*
X13011632Y-8773475D01*
X13218475Y-8566632D01*
X13380990Y-8323411D01*
X13492932Y-8053158D01*
X13550000Y-7766260D01*
X13550000Y-7473740D01*
X13523935Y-7342702D01*
X15776903Y-7342702D01*
X15848486Y-7586671D01*
X16103996Y-7707571D01*
X16378184Y-7776300D01*
X16660512Y-7790217D01*
X16940130Y-7748787D01*
X17206292Y-7653603D01*
X17331514Y-7586671D01*
X17403097Y-7342702D01*
X16590000Y-6529605D01*
X15776903Y-7342702D01*
X13523935Y-7342702D01*
X13492932Y-7186842D01*
X13380990Y-6916589D01*
X13218475Y-6673368D01*
X13011632Y-6466525D01*
X12942769Y-6420512D01*
X15149783Y-6420512D01*
X15191213Y-6700130D01*
X15286397Y-6966292D01*
X15353329Y-7091514D01*
X15597298Y-7163097D01*
X16410395Y-6350000D01*
X16769605Y-6350000D01*
X17582702Y-7163097D01*
X17826671Y-7091514D01*
X17947571Y-6836004D01*
X18016300Y-6561816D01*
X18030217Y-6279488D01*
X17988787Y-5999870D01*
X17893603Y-5733708D01*
X17826671Y-5608486D01*
X17582702Y-5536903D01*
X16769605Y-6350000D01*
X16410395Y-6350000D01*
X15597298Y-5536903D01*
X15353329Y-5608486D01*
X15232429Y-5863996D01*
X15163700Y-6138184D01*
X15149783Y-6420512D01*
X12942769Y-6420512D01*
X12837240Y-6350000D01*
X13011632Y-6233475D01*
X13218475Y-6026632D01*
X13380990Y-5783411D01*
X13492932Y-5513158D01*
X13523934Y-5357298D01*
X15776903Y-5357298D01*
X16590000Y-6170395D01*
X17403097Y-5357298D01*
X17331514Y-5113329D01*
X17076004Y-4992429D01*
X16801816Y-4923700D01*
X16519488Y-4909783D01*
X16239870Y-4951213D01*
X15973708Y-5046397D01*
X15848486Y-5113329D01*
X15776903Y-5357298D01*
X13523934Y-5357298D01*
X13550000Y-5226260D01*
X13550000Y-4933740D01*
X13492932Y-4646842D01*
X13380990Y-4376589D01*
X13218475Y-4133368D01*
X13011632Y-3926525D01*
X12837240Y-3810000D01*
X13011632Y-3693475D01*
X13218475Y-3486632D01*
X13380990Y-3243411D01*
X13492932Y-2973158D01*
X13550000Y-2686260D01*
X13550000Y-2398665D01*
X13885000Y-2398665D01*
X13885000Y-2681335D01*
X13940147Y-2958574D01*
X14048320Y-3219727D01*
X14205363Y-3454759D01*
X14405241Y-3654637D01*
X14640273Y-3811680D01*
X14901426Y-3919853D01*
X15178665Y-3975000D01*
X15461335Y-3975000D01*
X15738574Y-3919853D01*
X15999727Y-3811680D01*
X16234759Y-3654637D01*
X16434637Y-3454759D01*
X16591680Y-3219727D01*
X16699853Y-2958574D01*
X16755000Y-2681335D01*
X16755000Y-2398665D01*
X16699853Y-2121426D01*
X16591680Y-1860273D01*
X16434637Y-1625241D01*
X16234759Y-1425363D01*
X15999727Y-1268320D01*
X15738574Y-1160147D01*
X15461335Y-1105000D01*
X15178665Y-1105000D01*
X14901426Y-1160147D01*
X14640273Y-1268320D01*
X14405241Y-1425363D01*
X14205363Y-1625241D01*
X14048320Y-1860273D01*
X13940147Y-2121426D01*
X13885000Y-2398665D01*
X13550000Y-2398665D01*
X13550000Y-2393740D01*
X13492932Y-2106842D01*
X13380990Y-1836589D01*
X13218475Y-1593368D01*
X13011632Y-1386525D01*
X12768411Y-1224010D01*
X12498158Y-1112068D01*
X12211260Y-1055000D01*
X11918740Y-1055000D01*
X11631842Y-1112068D01*
X11361589Y-1224010D01*
X11118368Y-1386525D01*
X10986513Y-1518380D01*
X10964502Y-1445820D01*
X10905537Y-1335506D01*
X10826185Y-1238815D01*
X10729494Y-1159463D01*
X10619180Y-1100498D01*
X10499482Y-1064188D01*
X10375000Y-1051928D01*
X8675000Y-1051928D01*
X8550518Y-1064188D01*
X8430820Y-1100498D01*
X8320506Y-1159463D01*
X8223815Y-1238815D01*
X8144463Y-1335506D01*
X8085498Y-1445820D01*
X8049188Y-1565518D01*
X8036928Y-1690000D01*
X8036928Y-3390000D01*
X8049188Y-3514482D01*
X8085498Y-3634180D01*
X8144463Y-3744494D01*
X8223815Y-3841185D01*
X8320506Y-3920537D01*
X8430820Y-3979502D01*
X8503380Y-4001513D01*
X8371525Y-4133368D01*
X8209010Y-4376589D01*
X8097068Y-4646842D01*
X8040000Y-4933740D01*
X8040000Y-5226260D01*
X8097068Y-5513158D01*
X8209010Y-5783411D01*
X8371525Y-6026632D01*
X8578368Y-6233475D01*
X8752760Y-6350000D01*
X8578368Y-6466525D01*
X8371525Y-6673368D01*
X8209010Y-6916589D01*
X8097068Y-7186842D01*
X8040000Y-7473740D01*
X8040000Y-7766260D01*
X8097068Y-8053158D01*
X8209010Y-8323411D01*
X8371525Y-8566632D01*
X8578368Y-8773475D01*
X8765000Y-8898179D01*
X8765000Y-10122677D01*
X8761324Y-10160000D01*
X8765000Y-10197322D01*
X8765000Y-10197332D01*
X8775997Y-10308985D01*
X8816408Y-10442205D01*
X8819454Y-10452246D01*
X8890026Y-10584276D01*
X8927551Y-10630000D01*
X8748665Y-10630000D01*
X8471426Y-10685147D01*
X8210273Y-10793320D01*
X7975241Y-10950363D01*
X7775363Y-11150241D01*
X7618320Y-11385273D01*
X7510147Y-11646426D01*
X7455000Y-11923665D01*
X6615000Y-11923665D01*
X6615000Y-11873816D01*
X6556011Y-11577257D01*
X6440299Y-11297905D01*
X6272312Y-11046495D01*
X6058505Y-10832688D01*
X5972169Y-10775000D01*
X6058505Y-10717312D01*
X6272312Y-10503505D01*
X6440299Y-10252095D01*
X6556011Y-9972743D01*
X6615000Y-9676184D01*
X6615000Y-9373816D01*
X6556011Y-9077257D01*
X6440299Y-8797905D01*
X6272312Y-8546495D01*
X6058505Y-8332688D01*
X5807095Y-8164701D01*
X5527743Y-8048989D01*
X5231184Y-7990000D01*
X4928816Y-7990000D01*
X4632257Y-8048989D01*
X4352905Y-8164701D01*
X4101495Y-8332688D01*
X3887688Y-8546495D01*
X3719701Y-8797905D01*
X3603989Y-9077257D01*
X3545000Y-9373816D01*
X2295205Y-9373816D01*
X2265226Y-9223102D01*
X2187205Y-9034744D01*
X2073937Y-8865226D01*
X1929774Y-8721063D01*
X1760256Y-8607795D01*
X1571898Y-8529774D01*
X1371939Y-8490000D01*
X1168061Y-8490000D01*
X968102Y-8529774D01*
X779744Y-8607795D01*
X660000Y-8687805D01*
X660000Y-4439816D01*
X670273Y-4446680D01*
X931426Y-4554853D01*
X1208665Y-4610000D01*
X1491335Y-4610000D01*
X1768574Y-4554853D01*
X2029727Y-4446680D01*
X2264759Y-4289637D01*
X2464637Y-4089759D01*
X2621680Y-3854727D01*
X2729853Y-3593574D01*
X2785000Y-3316335D01*
X2785000Y-3033665D01*
X4915000Y-3033665D01*
X4915000Y-3316335D01*
X4970147Y-3593574D01*
X5078320Y-3854727D01*
X5235363Y-4089759D01*
X5435241Y-4289637D01*
X5670273Y-4446680D01*
X5931426Y-4554853D01*
X6208665Y-4610000D01*
X6491335Y-4610000D01*
X6768574Y-4554853D01*
X7029727Y-4446680D01*
X7264759Y-4289637D01*
X7464637Y-4089759D01*
X7621680Y-3854727D01*
X7729853Y-3593574D01*
X7785000Y-3316335D01*
X7785000Y-3033665D01*
X7729853Y-2756426D01*
X7621680Y-2495273D01*
X7464637Y-2260241D01*
X7264759Y-2060363D01*
X7029727Y-1903320D01*
X6768574Y-1795147D01*
X6491335Y-1740000D01*
X6208665Y-1740000D01*
X5931426Y-1795147D01*
X5670273Y-1903320D01*
X5435241Y-2060363D01*
X5235363Y-2260241D01*
X5078320Y-2495273D01*
X4970147Y-2756426D01*
X4915000Y-3033665D01*
X2785000Y-3033665D01*
X2729853Y-2756426D01*
X2621680Y-2495273D01*
X2464637Y-2260241D01*
X2264759Y-2060363D01*
X2029727Y-1903320D01*
X1768574Y-1795147D01*
X1491335Y-1740000D01*
X1208665Y-1740000D01*
X931426Y-1795147D01*
X670273Y-1903320D01*
X660000Y-1910184D01*
X660000Y-660000D01*
X24213999Y-660000D01*
X24085273Y-713320D01*
G04 #@! TA.AperFunction,Conductor*
D31*
G36*
X24085273Y-713320D02*
G01*
X23850241Y-870363D01*
X23650363Y-1070241D01*
X23493320Y-1305273D01*
X23385147Y-1566426D01*
X23330000Y-1843665D01*
X23330000Y-2126335D01*
X23385147Y-2403574D01*
X23493320Y-2664727D01*
X23650363Y-2899759D01*
X23850241Y-3099637D01*
X24085273Y-3256680D01*
X24346426Y-3364853D01*
X24623665Y-3420000D01*
X24906335Y-3420000D01*
X25183574Y-3364853D01*
X25444727Y-3256680D01*
X25679759Y-3099637D01*
X25879637Y-2899759D01*
X26036680Y-2664727D01*
X26144853Y-2403574D01*
X26200000Y-2126335D01*
X26200000Y-1843665D01*
X26144853Y-1566426D01*
X26036680Y-1305273D01*
X25879637Y-1070241D01*
X25679759Y-870363D01*
X25444727Y-713320D01*
X25316001Y-660000D01*
X27280001Y-660000D01*
X27280001Y-10710345D01*
X27149637Y-10515241D01*
X26949759Y-10315363D01*
X26795000Y-10211957D01*
X26795000Y-8292322D01*
X26798676Y-8254999D01*
X26795000Y-8217676D01*
X26795000Y-8217667D01*
X26784003Y-8106014D01*
X26740546Y-7962753D01*
X26669974Y-7830724D01*
X26575001Y-7714999D01*
X26546003Y-7691201D01*
X26163688Y-7308886D01*
X26200000Y-7126335D01*
X26200000Y-6843665D01*
X26144853Y-6566426D01*
X26036680Y-6305273D01*
X25879637Y-6070241D01*
X25679759Y-5870363D01*
X25444727Y-5713320D01*
X25183574Y-5605147D01*
X24906335Y-5550000D01*
X24623665Y-5550000D01*
X24346426Y-5605147D01*
X24085273Y-5713320D01*
X23850241Y-5870363D01*
X23650363Y-6070241D01*
X23493320Y-6305273D01*
X23385147Y-6566426D01*
X23330000Y-6843665D01*
X23330000Y-7126335D01*
X23385147Y-7403574D01*
X23493320Y-7664727D01*
X23650363Y-7899759D01*
X23850241Y-8099637D01*
X24085273Y-8256680D01*
X24346426Y-8364853D01*
X24623665Y-8420000D01*
X24906335Y-8420000D01*
X25088886Y-8383688D01*
X25275001Y-8569803D01*
X25275000Y-10211956D01*
X25120241Y-10315363D01*
X24920363Y-10515241D01*
X24763320Y-10750273D01*
X24655147Y-11011426D01*
X24600000Y-11288665D01*
X24600000Y-11538965D01*
X24592182Y-11513192D01*
X24458932Y-11263899D01*
X24279608Y-11045392D01*
X24061101Y-10866068D01*
X23928142Y-10795000D01*
X24061101Y-10723932D01*
X24279608Y-10544608D01*
X24458932Y-10326101D01*
X24592182Y-10076808D01*
X24674236Y-9806309D01*
X24701943Y-9525000D01*
X24674236Y-9243691D01*
X24592182Y-8973192D01*
X24458932Y-8723899D01*
X24279608Y-8505392D01*
X24061101Y-8326068D01*
X23811808Y-8192818D01*
X23541309Y-8110764D01*
X23330492Y-8090000D01*
X22389508Y-8090000D01*
X22178691Y-8110764D01*
X21908192Y-8192818D01*
X21658899Y-8326068D01*
X21440392Y-8505392D01*
X21288888Y-8690000D01*
X21155000Y-8690000D01*
X21155000Y-7723049D01*
X21171426Y-7729853D01*
X21448665Y-7785000D01*
X21731335Y-7785000D01*
X22008574Y-7729853D01*
X22269727Y-7621680D01*
X22504759Y-7464637D01*
X22704637Y-7264759D01*
X22861680Y-7029727D01*
X22969853Y-6768574D01*
X23025000Y-6491335D01*
X23025000Y-6208665D01*
X22969853Y-5931426D01*
X22861680Y-5670273D01*
X22704637Y-5435241D01*
X22504759Y-5235363D01*
X22269727Y-5078320D01*
X22008574Y-4970147D01*
X21731335Y-4915000D01*
X21448665Y-4915000D01*
X21171426Y-4970147D01*
X20910273Y-5078320D01*
X20675241Y-5235363D01*
X20475363Y-5435241D01*
X20422070Y-5515000D01*
X20361018Y-5515000D01*
X20320000Y-5510960D01*
X20278981Y-5515000D01*
X20156311Y-5527082D01*
X19998913Y-5574828D01*
X19853854Y-5652364D01*
X19810000Y-5688354D01*
X19810000Y-4513711D01*
X19853937Y-4469774D01*
X19967205Y-4300256D01*
X20045226Y-4111898D01*
X20076499Y-3954678D01*
X20178665Y-3975000D01*
X20461335Y-3975000D01*
X20738574Y-3919853D01*
X20999727Y-3811680D01*
X21234759Y-3654637D01*
X21434637Y-3454759D01*
X21591680Y-3219727D01*
X21699853Y-2958574D01*
X21755000Y-2681335D01*
X21755000Y-2398665D01*
X21699853Y-2121426D01*
X21591680Y-1860273D01*
X21434637Y-1625241D01*
X21234759Y-1425363D01*
X20999727Y-1268320D01*
X20738574Y-1160147D01*
X20461335Y-1105000D01*
X20178665Y-1105000D01*
X19901426Y-1160147D01*
X19640273Y-1268320D01*
X19405241Y-1425363D01*
X19205363Y-1625241D01*
X19048320Y-1860273D01*
X18940147Y-2121426D01*
X18885000Y-2398665D01*
X18885000Y-2681335D01*
X18905322Y-2783501D01*
X18748102Y-2814774D01*
X18559744Y-2892795D01*
X18390226Y-3006063D01*
X18246063Y-3150226D01*
X18132795Y-3319744D01*
X18054774Y-3508102D01*
X18015000Y-3708061D01*
X18015000Y-3911939D01*
X18054774Y-4111898D01*
X18132795Y-4300256D01*
X18246063Y-4469774D01*
X18290000Y-4513711D01*
X18290001Y-9456288D01*
X18246063Y-9500226D01*
X18132795Y-9669744D01*
X18054774Y-9858102D01*
X18015000Y-10058061D01*
X18015000Y-10261939D01*
X18054774Y-10461898D01*
X18132795Y-10650256D01*
X18246063Y-10819774D01*
X18290000Y-10863711D01*
X18290000Y-16483354D01*
X18246146Y-16447364D01*
X18101087Y-16369828D01*
X17943689Y-16322082D01*
X17821019Y-16310000D01*
X17821018Y-16310000D01*
X17780000Y-16305960D01*
X17738981Y-16310000D01*
X16811112Y-16310000D01*
X16659608Y-16125392D01*
X16441101Y-15946068D01*
X16308142Y-15875000D01*
X16441101Y-15803932D01*
X16659608Y-15624608D01*
X16838932Y-15406101D01*
X16972182Y-15156808D01*
X17054236Y-14886309D01*
X17081943Y-14605000D01*
X17054236Y-14323691D01*
X16972182Y-14053192D01*
X16838932Y-13803899D01*
X16659608Y-13585392D01*
X16441101Y-13406068D01*
X16308142Y-13335000D01*
X16441101Y-13263932D01*
X16659608Y-13084608D01*
X16838932Y-12866101D01*
X16972182Y-12616808D01*
X17054236Y-12346309D01*
X17081943Y-12065000D01*
X17054236Y-11783691D01*
X16972182Y-11513192D01*
X16838932Y-11263899D01*
X16659608Y-11045392D01*
X16546518Y-10952581D01*
X16564482Y-10950812D01*
X16684180Y-10914502D01*
X16794494Y-10855537D01*
X16891185Y-10776185D01*
X16970537Y-10679494D01*
X17029502Y-10569180D01*
X17065812Y-10449482D01*
X17078072Y-10325000D01*
X17078072Y-8725000D01*
X17065812Y-8600518D01*
X17029502Y-8480820D01*
X16970537Y-8370506D01*
X16891185Y-8273815D01*
X16794494Y-8194463D01*
X16684180Y-8135498D01*
X16564482Y-8099188D01*
X16440000Y-8086928D01*
X14040000Y-8086928D01*
X13915518Y-8099188D01*
X13795820Y-8135498D01*
X13685506Y-8194463D01*
X13588815Y-8273815D01*
X13509463Y-8370506D01*
X13450498Y-8480820D01*
X13414188Y-8600518D01*
X13401928Y-8725000D01*
X13401928Y-10325000D01*
X13414188Y-10449482D01*
X13450498Y-10569180D01*
X13509463Y-10679494D01*
X13588815Y-10776185D01*
X13685506Y-10855537D01*
X13795820Y-10914502D01*
X13915518Y-10950812D01*
X13933482Y-10952581D01*
X13820392Y-11045392D01*
X13641068Y-11263899D01*
X13507818Y-11513192D01*
X13425764Y-11783691D01*
X13398057Y-12065000D01*
X13425764Y-12346309D01*
X13507818Y-12616808D01*
X13641068Y-12866101D01*
X13820392Y-13084608D01*
X14038899Y-13263932D01*
X14171858Y-13335000D01*
X14038899Y-13406068D01*
X13820392Y-13585392D01*
X13641068Y-13803899D01*
X13507818Y-14053192D01*
X13425764Y-14323691D01*
X13398057Y-14605000D01*
X13425764Y-14886309D01*
X13507818Y-15156808D01*
X13641068Y-15406101D01*
X13820392Y-15624608D01*
X14038899Y-15803932D01*
X14171858Y-15875000D01*
X14038899Y-15946068D01*
X13820392Y-16125392D01*
X13641068Y-16343899D01*
X13507818Y-16593192D01*
X13425764Y-16863691D01*
X13398057Y-17145000D01*
X13425764Y-17426309D01*
X13507818Y-17696808D01*
X13641068Y-17946101D01*
X13820392Y-18164608D01*
X14038899Y-18343932D01*
X14288192Y-18477182D01*
X14558691Y-18559236D01*
X14769508Y-18580000D01*
X15710492Y-18580000D01*
X15921309Y-18559236D01*
X16191808Y-18477182D01*
X16441101Y-18343932D01*
X16659608Y-18164608D01*
X16811112Y-17980000D01*
X16945000Y-17980000D01*
X16945001Y-18927501D01*
X16731335Y-18885000D01*
X16448665Y-18885000D01*
X16171426Y-18940147D01*
X15910273Y-19048320D01*
X15675241Y-19205363D01*
X15475363Y-19405241D01*
X15318320Y-19640273D01*
X15210147Y-19901426D01*
X15155000Y-20178665D01*
X15155000Y-20461335D01*
X15210147Y-20738574D01*
X15318320Y-20999727D01*
X15475363Y-21234759D01*
X15675241Y-21434637D01*
X15910273Y-21591680D01*
X16171426Y-21699853D01*
X16448665Y-21755000D01*
X16731335Y-21755000D01*
X16945000Y-21712499D01*
X16945001Y-26980605D01*
X16789759Y-26825363D01*
X16554727Y-26668320D01*
X16293574Y-26560147D01*
X16016335Y-26505000D01*
X15733665Y-26505000D01*
X15456426Y-26560147D01*
X15195273Y-26668320D01*
X14960241Y-26825363D01*
X14760363Y-27025241D01*
X14603320Y-27260273D01*
X14495147Y-27521426D01*
X14440000Y-27798665D01*
X14440000Y-28081335D01*
X14495147Y-28358574D01*
X14603320Y-28619727D01*
X14760363Y-28854759D01*
X14960241Y-29054637D01*
X15192759Y-29210000D01*
X14960241Y-29365363D01*
X14760363Y-29565241D01*
X14603320Y-29800273D01*
X14495147Y-30061426D01*
X14440000Y-30338665D01*
X14440000Y-30621335D01*
X14495147Y-30898574D01*
X14504561Y-30921302D01*
X14490998Y-30966015D01*
X14476324Y-31115000D01*
X14480001Y-31152332D01*
X14480000Y-35391928D01*
X14040000Y-35391928D01*
X13915518Y-35404188D01*
X13795820Y-35440498D01*
X13685506Y-35499463D01*
X13588815Y-35578815D01*
X13509463Y-35675506D01*
X13460000Y-35768043D01*
X13460000Y-34358711D01*
X13503937Y-34314774D01*
X13617205Y-34145256D01*
X13695226Y-33956898D01*
X13735000Y-33756939D01*
X13735000Y-33553061D01*
X13695226Y-33353102D01*
X13617205Y-33164744D01*
X13503937Y-32995226D01*
X13359774Y-32851063D01*
X13190256Y-32737795D01*
X13001898Y-32659774D01*
X12801939Y-32620000D01*
X12598061Y-32620000D01*
X12398102Y-32659774D01*
X12209744Y-32737795D01*
X12190000Y-32750987D01*
X12190000Y-31821983D01*
X12281426Y-31859853D01*
X12558665Y-31915000D01*
X12841335Y-31915000D01*
X13118574Y-31859853D01*
X13379727Y-31751680D01*
X13614759Y-31594637D01*
X13814637Y-31394759D01*
X13971680Y-31159727D01*
X14079853Y-30898574D01*
X14135000Y-30621335D01*
X14135000Y-30338665D01*
X14079853Y-30061426D01*
X13971680Y-29800273D01*
X13814637Y-29565241D01*
X13614759Y-29365363D01*
X13382241Y-29210000D01*
X13614759Y-29054637D01*
X13814637Y-28854759D01*
X13971680Y-28619727D01*
X14079853Y-28358574D01*
X14135000Y-28081335D01*
X14135000Y-27798665D01*
X14079853Y-27521426D01*
X13971680Y-27260273D01*
X13814637Y-27025241D01*
X13614759Y-26825363D01*
X13379727Y-26668320D01*
X13118574Y-26560147D01*
X12841335Y-26505000D01*
X12558665Y-26505000D01*
X12281426Y-26560147D01*
X12020273Y-26668320D01*
X11785241Y-26825363D01*
X11585363Y-27025241D01*
X11428320Y-27260273D01*
X11320147Y-27521426D01*
X11265000Y-27798665D01*
X11265000Y-28081335D01*
X11301312Y-28263886D01*
X10919003Y-28646196D01*
X10889999Y-28669999D01*
X10834871Y-28737174D01*
X10795026Y-28785724D01*
X10724455Y-28917753D01*
X10724454Y-28917754D01*
X10680997Y-29061015D01*
X10670000Y-29172668D01*
X10670000Y-29172678D01*
X10666324Y-29210000D01*
X10670000Y-29247322D01*
X10670000Y-29610683D01*
X10639637Y-29565241D01*
X10439759Y-29365363D01*
X10207241Y-29210000D01*
X10439759Y-29054637D01*
X10639637Y-28854759D01*
X10796680Y-28619727D01*
X10904853Y-28358574D01*
X10960000Y-28081335D01*
X10960000Y-27798665D01*
X10904853Y-27521426D01*
X10796680Y-27260273D01*
X10639637Y-27025241D01*
X10439759Y-26825363D01*
X10204727Y-26668320D01*
X9943574Y-26560147D01*
X9666335Y-26505000D01*
X9383665Y-26505000D01*
X9106426Y-26560147D01*
X8845273Y-26668320D01*
X8610241Y-26825363D01*
X8410363Y-27025241D01*
X8253320Y-27260273D01*
X8145147Y-27521426D01*
X8090000Y-27798665D01*
X8090000Y-28081335D01*
X8145147Y-28358574D01*
X8253320Y-28619727D01*
X8410363Y-28854759D01*
X8610241Y-29054637D01*
X8842759Y-29210000D01*
X8610241Y-29365363D01*
X8410363Y-29565241D01*
X8253320Y-29800273D01*
X8145147Y-30061426D01*
X8090000Y-30338665D01*
X8090000Y-30621335D01*
X8145147Y-30898574D01*
X8253320Y-31159727D01*
X8410363Y-31394759D01*
X8610241Y-31594637D01*
X8765000Y-31698043D01*
X8765001Y-66603017D01*
X8673574Y-66565147D01*
X8396335Y-66510000D01*
X8113665Y-66510000D01*
X7836426Y-66565147D01*
X7575273Y-66673320D01*
X7340241Y-66830363D01*
X7140363Y-67030241D01*
X6983320Y-67265273D01*
X6875147Y-67526426D01*
X6820000Y-67803665D01*
X6820000Y-68086335D01*
X6856312Y-68268886D01*
X6488998Y-68636201D01*
X6460000Y-68659999D01*
X6436202Y-68688997D01*
X6436201Y-68688998D01*
X6365026Y-68775724D01*
X6294454Y-68907754D01*
X6264180Y-69007558D01*
X6250998Y-69051014D01*
X6241016Y-69152364D01*
X6236324Y-69200000D01*
X6240001Y-69237332D01*
X6240001Y-71262321D01*
X6087248Y-71343969D01*
X5838286Y-71548286D01*
X5633969Y-71797249D01*
X5482148Y-72081286D01*
X5388657Y-72389485D01*
X5365000Y-72629679D01*
X5365001Y-74690322D01*
X5388658Y-74930516D01*
X5482149Y-75238715D01*
X5633970Y-75522752D01*
X5838287Y-75771714D01*
X6087249Y-75976031D01*
X6272407Y-76075000D01*
X4759802Y-76075000D01*
X4570000Y-75885199D01*
X4570000Y-61199679D01*
X5365000Y-61199679D01*
X5365001Y-63260322D01*
X5388658Y-63500516D01*
X5482149Y-63808715D01*
X5633970Y-64092752D01*
X5838287Y-64341714D01*
X6087249Y-64546031D01*
X6371286Y-64697852D01*
X6679485Y-64791343D01*
X7000000Y-64822911D01*
X7320516Y-64791343D01*
X7628715Y-64697852D01*
X7912752Y-64546031D01*
X8161714Y-64341714D01*
X8366031Y-64092752D01*
X8517852Y-63808715D01*
X8611343Y-63500516D01*
X8635000Y-63260322D01*
X8635000Y-61199678D01*
X8611343Y-60959484D01*
X8517852Y-60651285D01*
X8366031Y-60367248D01*
X8161714Y-60118286D01*
X7912751Y-59913969D01*
X7745000Y-59824304D01*
X7745000Y-58488711D01*
X7788937Y-58444774D01*
X7902205Y-58275256D01*
X7980226Y-58086898D01*
X8020000Y-57886939D01*
X8020000Y-57683061D01*
X7980226Y-57483102D01*
X7902205Y-57294744D01*
X7788937Y-57125226D01*
X7644774Y-56981063D01*
X7475256Y-56867795D01*
X7286898Y-56789774D01*
X7253205Y-56783072D01*
X7885000Y-56783072D01*
X8009482Y-56770812D01*
X8129180Y-56734502D01*
X8239494Y-56675537D01*
X8336185Y-56596185D01*
X8415537Y-56499494D01*
X8474502Y-56389180D01*
X8510812Y-56269482D01*
X8523072Y-56145000D01*
X8523072Y-54345000D01*
X8510812Y-54220518D01*
X8474502Y-54100820D01*
X8415537Y-53990506D01*
X8336185Y-53893815D01*
X8239494Y-53814463D01*
X8129180Y-53755498D01*
X8110873Y-53749944D01*
X8177312Y-53683505D01*
X8345299Y-53432095D01*
X8461011Y-53152743D01*
X8520000Y-52856184D01*
X8520000Y-52553816D01*
X8461011Y-52257257D01*
X8345299Y-51977905D01*
X8177312Y-51726495D01*
X7963505Y-51512688D01*
X7712095Y-51344701D01*
X7432743Y-51228989D01*
X7136184Y-51170000D01*
X6833816Y-51170000D01*
X6537257Y-51228989D01*
X6257905Y-51344701D01*
X6006495Y-51512688D01*
X5792688Y-51726495D01*
X5624701Y-51977905D01*
X5508989Y-52257257D01*
X5450000Y-52553816D01*
X5450000Y-52856184D01*
X5508989Y-53152743D01*
X5624701Y-53432095D01*
X5792688Y-53683505D01*
X5859127Y-53749944D01*
X5840820Y-53755498D01*
X5730506Y-53814463D01*
X5633815Y-53893815D01*
X5554463Y-53990506D01*
X5495498Y-54100820D01*
X5459188Y-54220518D01*
X5446928Y-54345000D01*
X5446928Y-56145000D01*
X5459188Y-56269482D01*
X5495498Y-56389180D01*
X5554463Y-56499494D01*
X5633815Y-56596185D01*
X5730506Y-56675537D01*
X5840820Y-56734502D01*
X5960518Y-56770812D01*
X6085000Y-56783072D01*
X6716795Y-56783072D01*
X6683102Y-56789774D01*
X6494744Y-56867795D01*
X6325226Y-56981063D01*
X6181063Y-57125226D01*
X6067795Y-57294744D01*
X5989774Y-57483102D01*
X5950000Y-57683061D01*
X5950000Y-57886939D01*
X5989774Y-58086898D01*
X6067795Y-58275256D01*
X6181063Y-58444774D01*
X6225001Y-58488712D01*
X6225001Y-59840339D01*
X6087248Y-59913969D01*
X5838286Y-60118286D01*
X5633969Y-60367249D01*
X5482148Y-60651286D01*
X5388657Y-60959485D01*
X5365000Y-61199679D01*
X4570000Y-61199679D01*
X4570000Y-58457333D01*
X4573677Y-58420000D01*
X4559003Y-58271014D01*
X4515546Y-58127753D01*
X4444974Y-57995724D01*
X4373799Y-57908997D01*
X4350001Y-57879999D01*
X4321004Y-57856202D01*
X3738803Y-57274002D01*
X3715001Y-57244999D01*
X3599276Y-57150026D01*
X3467247Y-57079454D01*
X3323986Y-57035997D01*
X3212333Y-57025000D01*
X3212322Y-57025000D01*
X3175000Y-57021324D01*
X3137678Y-57025000D01*
X2219802Y-57025000D01*
X2030000Y-56835199D01*
X2030000Y-56695223D01*
X2092257Y-56721011D01*
X2388816Y-56780000D01*
X2691184Y-56780000D01*
X2987743Y-56721011D01*
X3267095Y-56605299D01*
X3518505Y-56437312D01*
X3732312Y-56223505D01*
X3900299Y-55972095D01*
X4016011Y-55692743D01*
X4075000Y-55396184D01*
X4075000Y-55093816D01*
X4016011Y-54797257D01*
X3900299Y-54517905D01*
X3732312Y-54266495D01*
X3665873Y-54200056D01*
X3684180Y-54194502D01*
X3794494Y-54135537D01*
X3891185Y-54056185D01*
X3970537Y-53959494D01*
X4029502Y-53849180D01*
X4065812Y-53729482D01*
X4078072Y-53605000D01*
X4078072Y-51805000D01*
X4065812Y-51680518D01*
X4029502Y-51560820D01*
X3970537Y-51450506D01*
X3891185Y-51353815D01*
X3794494Y-51274463D01*
X3684180Y-51215498D01*
X3564482Y-51179188D01*
X3440000Y-51166928D01*
X2030000Y-51166928D01*
X2030000Y-50522702D01*
X2361903Y-50522702D01*
X2433486Y-50766671D01*
X2688996Y-50887571D01*
X2963184Y-50956300D01*
X3245512Y-50970217D01*
X3525130Y-50928787D01*
X3791292Y-50833603D01*
X3916514Y-50766671D01*
X3988097Y-50522702D01*
X3175000Y-49709605D01*
X2361903Y-50522702D01*
X2030000Y-50522702D01*
X2030000Y-50298411D01*
X2182298Y-50343097D01*
X2995395Y-49530000D01*
X3354605Y-49530000D01*
X4167702Y-50343097D01*
X4411671Y-50271514D01*
X4442194Y-50207008D01*
X4443320Y-50209727D01*
X4600363Y-50444759D01*
X4800241Y-50644637D01*
X5035273Y-50801680D01*
X5296426Y-50909853D01*
X5573665Y-50965000D01*
X5856335Y-50965000D01*
X6133574Y-50909853D01*
X6394727Y-50801680D01*
X6629759Y-50644637D01*
X6829637Y-50444759D01*
X6986680Y-50209727D01*
X7094853Y-49948574D01*
X7150000Y-49671335D01*
X7150000Y-49388665D01*
X7094853Y-49111426D01*
X6986680Y-48850273D01*
X6829637Y-48615241D01*
X6629759Y-48415363D01*
X6595773Y-48392655D01*
X6614482Y-48390812D01*
X6734180Y-48354502D01*
X6844494Y-48295537D01*
X6941185Y-48216185D01*
X7020537Y-48119494D01*
X7079502Y-48009180D01*
X7115812Y-47889482D01*
X7128072Y-47765000D01*
X7128072Y-46215000D01*
X7115812Y-46090518D01*
X7079502Y-45970820D01*
X7020537Y-45860506D01*
X6941185Y-45763815D01*
X6844494Y-45684463D01*
X6734180Y-45625498D01*
X6614482Y-45589188D01*
X6490000Y-45576928D01*
X4940000Y-45576928D01*
X4815518Y-45589188D01*
X4695820Y-45625498D01*
X4585506Y-45684463D01*
X4488815Y-45763815D01*
X4409463Y-45860506D01*
X4350498Y-45970820D01*
X4314188Y-46090518D01*
X4301928Y-46215000D01*
X4301928Y-47765000D01*
X4314188Y-47889482D01*
X4350498Y-48009180D01*
X4409463Y-48119494D01*
X4488815Y-48216185D01*
X4585506Y-48295537D01*
X4695820Y-48354502D01*
X4815518Y-48390812D01*
X4834227Y-48392655D01*
X4800241Y-48415363D01*
X4600363Y-48615241D01*
X4444085Y-48849128D01*
X4411671Y-48788486D01*
X4167702Y-48716903D01*
X3354605Y-49530000D01*
X2995395Y-49530000D01*
X2182298Y-48716903D01*
X2030000Y-48761589D01*
X2030000Y-48537298D01*
X2361903Y-48537298D01*
X3175000Y-49350395D01*
X3988097Y-48537298D01*
X3916514Y-48293329D01*
X3661004Y-48172429D01*
X3386816Y-48103700D01*
X3104488Y-48089783D01*
X2824870Y-48131213D01*
X2558708Y-48226397D01*
X2433486Y-48293329D01*
X2361903Y-48537298D01*
X2030000Y-48537298D01*
X2030000Y-42613711D01*
X2073937Y-42569774D01*
X2187205Y-42400256D01*
X2265226Y-42211898D01*
X2305000Y-42011939D01*
X2305000Y-41808061D01*
X2265226Y-41608102D01*
X2187205Y-41419744D01*
X2073937Y-41250226D01*
X1929774Y-41106063D01*
X1760256Y-40992795D01*
X1571898Y-40914774D01*
X1371939Y-40875000D01*
X1168061Y-40875000D01*
X968102Y-40914774D01*
X779744Y-40992795D01*
X660000Y-41072805D01*
X660000Y-40207195D01*
X779744Y-40287205D01*
X968102Y-40365226D01*
X1168061Y-40405000D01*
X1371939Y-40405000D01*
X1571898Y-40365226D01*
X1760256Y-40287205D01*
X1929774Y-40173937D01*
X1963667Y-40140044D01*
X2060363Y-40284759D01*
X2260241Y-40484637D01*
X2495273Y-40641680D01*
X2756426Y-40749853D01*
X3033665Y-40805000D01*
X3316335Y-40805000D01*
X3593574Y-40749853D01*
X3854727Y-40641680D01*
X4089759Y-40484637D01*
X4289637Y-40284759D01*
X4445000Y-40052241D01*
X4600363Y-40284759D01*
X4800241Y-40484637D01*
X4955000Y-40588044D01*
X4955001Y-40802024D01*
X4816178Y-40894782D01*
X4619782Y-41091178D01*
X4465475Y-41322115D01*
X4359186Y-41578718D01*
X4305000Y-41851127D01*
X4305000Y-42128873D01*
X4359186Y-42401282D01*
X4465475Y-42657885D01*
X4619782Y-42888822D01*
X4816178Y-43085218D01*
X5047115Y-43239525D01*
X5303718Y-43345814D01*
X5576127Y-43400000D01*
X5853873Y-43400000D01*
X6126282Y-43345814D01*
X6382885Y-43239525D01*
X6613822Y-43085218D01*
X6810218Y-42888822D01*
X6964525Y-42657885D01*
X7070814Y-42401282D01*
X7125000Y-42128873D01*
X7125000Y-41851127D01*
X7070814Y-41578718D01*
X6964525Y-41322115D01*
X6810218Y-41091178D01*
X6613822Y-40894782D01*
X6475000Y-40802024D01*
X6475000Y-40588043D01*
X6629759Y-40484637D01*
X6829637Y-40284759D01*
X6986680Y-40049727D01*
X7094853Y-39788574D01*
X7150000Y-39511335D01*
X7150000Y-39228665D01*
X7094853Y-38951426D01*
X6986680Y-38690273D01*
X6829637Y-38455241D01*
X6629759Y-38255363D01*
X6394727Y-38098320D01*
X6133574Y-37990147D01*
X5856335Y-37935000D01*
X5573665Y-37935000D01*
X5296426Y-37990147D01*
X5035273Y-38098320D01*
X4800241Y-38255363D01*
X4600363Y-38455241D01*
X4445000Y-38687759D01*
X4289637Y-38455241D01*
X4089759Y-38255363D01*
X3854727Y-38098320D01*
X3593574Y-37990147D01*
X3316335Y-37935000D01*
X3033665Y-37935000D01*
X2756426Y-37990147D01*
X2495273Y-38098320D01*
X2260241Y-38255363D01*
X2060363Y-38455241D01*
X2030000Y-38500683D01*
X2030000Y-36500810D01*
X5006036Y-36500810D01*
X5014728Y-36562337D01*
X5107725Y-36771882D01*
X5239816Y-36959258D01*
X5405924Y-37117264D01*
X5599666Y-37239828D01*
X5813596Y-37322239D01*
X6039493Y-37361331D01*
X6223000Y-37201598D01*
X6223000Y-36322000D01*
X6477000Y-36322000D01*
X6477000Y-37201598D01*
X6660507Y-37361331D01*
X6886404Y-37322239D01*
X7100334Y-37239828D01*
X7294076Y-37117264D01*
X7460184Y-36959258D01*
X7592275Y-36771882D01*
X7685272Y-36562337D01*
X7693964Y-36500810D01*
X7568163Y-36322000D01*
X6477000Y-36322000D01*
X6223000Y-36322000D01*
X5131837Y-36322000D01*
X5006036Y-36500810D01*
X2030000Y-36500810D01*
X2030000Y-31349317D01*
X2060363Y-31394759D01*
X2260241Y-31594637D01*
X2415000Y-31698044D01*
X2415001Y-34221288D01*
X2371063Y-34265226D01*
X2257795Y-34434744D01*
X2179774Y-34623102D01*
X2140000Y-34823061D01*
X2140000Y-35026939D01*
X2179774Y-35226898D01*
X2257795Y-35415256D01*
X2371063Y-35584774D01*
X2515226Y-35728937D01*
X2684744Y-35842205D01*
X2873102Y-35920226D01*
X3073061Y-35960000D01*
X3276939Y-35960000D01*
X3476898Y-35920226D01*
X3665256Y-35842205D01*
X3834774Y-35728937D01*
X3978937Y-35584774D01*
X4092205Y-35415256D01*
X4170226Y-35226898D01*
X4210000Y-35026939D01*
X4210000Y-34823061D01*
X4170226Y-34623102D01*
X4092205Y-34434744D01*
X3978937Y-34265226D01*
X3935000Y-34221289D01*
X3935000Y-31698043D01*
X4089759Y-31594637D01*
X4289637Y-31394759D01*
X4446680Y-31159727D01*
X4554853Y-30898574D01*
X4610000Y-30621335D01*
X4610000Y-30338665D01*
X4554853Y-30061426D01*
X4446680Y-29800273D01*
X4289637Y-29565241D01*
X4089759Y-29365363D01*
X3857241Y-29210000D01*
X4089759Y-29054637D01*
X4289637Y-28854759D01*
X4446680Y-28619727D01*
X4554853Y-28358574D01*
X4610000Y-28081335D01*
X4610000Y-27798665D01*
X4915000Y-27798665D01*
X4915000Y-28081335D01*
X4970147Y-28358574D01*
X5078320Y-28619727D01*
X5235363Y-28854759D01*
X5435241Y-29054637D01*
X5667759Y-29210000D01*
X5435241Y-29365363D01*
X5235363Y-29565241D01*
X5078320Y-29800273D01*
X4970147Y-30061426D01*
X4915000Y-30338665D01*
X4915000Y-30621335D01*
X4970147Y-30898574D01*
X5078320Y-31159727D01*
X5235363Y-31394759D01*
X5435241Y-31594637D01*
X5590000Y-31698044D01*
X5590001Y-32492913D01*
X5475518Y-32504188D01*
X5355820Y-32540498D01*
X5245506Y-32599463D01*
X5148815Y-32678815D01*
X5069463Y-32775506D01*
X5010498Y-32885820D01*
X4974188Y-33005518D01*
X4961928Y-33130000D01*
X4961928Y-34180000D01*
X4974188Y-34304482D01*
X5010498Y-34424180D01*
X5045093Y-34488902D01*
X4981785Y-34697600D01*
X4959388Y-34925000D01*
X4981785Y-35152400D01*
X5048115Y-35371060D01*
X5148929Y-35559669D01*
X5107725Y-35618118D01*
X5014728Y-35827663D01*
X5006036Y-35889190D01*
X5131837Y-36068000D01*
X5896891Y-36068000D01*
X5897600Y-36068215D01*
X6068021Y-36085000D01*
X6631979Y-36085000D01*
X6802400Y-36068215D01*
X6803109Y-36068000D01*
X7568163Y-36068000D01*
X7693964Y-35889190D01*
X7685272Y-35827663D01*
X7592275Y-35618118D01*
X7551071Y-35559669D01*
X7651885Y-35371060D01*
X7718215Y-35152400D01*
X7740612Y-34925000D01*
X7718215Y-34697600D01*
X7654907Y-34488902D01*
X7689502Y-34424180D01*
X7725812Y-34304482D01*
X7738072Y-34180000D01*
X7738072Y-33130000D01*
X7725812Y-33005518D01*
X7689502Y-32885820D01*
X7630537Y-32775506D01*
X7551185Y-32678815D01*
X7454494Y-32599463D01*
X7344180Y-32540498D01*
X7224482Y-32504188D01*
X7110000Y-32492913D01*
X7110000Y-31698043D01*
X7264759Y-31594637D01*
X7464637Y-31394759D01*
X7621680Y-31159727D01*
X7729853Y-30898574D01*
X7785000Y-30621335D01*
X7785000Y-30338665D01*
X7729853Y-30061426D01*
X7621680Y-29800273D01*
X7464637Y-29565241D01*
X7264759Y-29365363D01*
X7032241Y-29210000D01*
X7264759Y-29054637D01*
X7464637Y-28854759D01*
X7621680Y-28619727D01*
X7729853Y-28358574D01*
X7785000Y-28081335D01*
X7785000Y-27798665D01*
X7729853Y-27521426D01*
X7621680Y-27260273D01*
X7464637Y-27025241D01*
X7264759Y-26825363D01*
X7120044Y-26728667D01*
X7153937Y-26694774D01*
X7267205Y-26525256D01*
X7345226Y-26336898D01*
X7385000Y-26136939D01*
X7385000Y-25933061D01*
X7345226Y-25733102D01*
X7267205Y-25544744D01*
X7153937Y-25375226D01*
X7009774Y-25231063D01*
X6840256Y-25117795D01*
X6651898Y-25039774D01*
X6451939Y-25000000D01*
X6248061Y-25000000D01*
X6048102Y-25039774D01*
X5859744Y-25117795D01*
X5690226Y-25231063D01*
X5546063Y-25375226D01*
X5432795Y-25544744D01*
X5354774Y-25733102D01*
X5315000Y-25933061D01*
X5315000Y-26136939D01*
X5354774Y-26336898D01*
X5432795Y-26525256D01*
X5546063Y-26694774D01*
X5579956Y-26728667D01*
X5435241Y-26825363D01*
X5235363Y-27025241D01*
X5078320Y-27260273D01*
X4970147Y-27521426D01*
X4915000Y-27798665D01*
X4610000Y-27798665D01*
X4554853Y-27521426D01*
X4446680Y-27260273D01*
X4289637Y-27025241D01*
X4089759Y-26825363D01*
X3935000Y-26721957D01*
X3935000Y-25468711D01*
X3978937Y-25424774D01*
X4092205Y-25255256D01*
X4170226Y-25066898D01*
X4210000Y-24866939D01*
X4210000Y-24663061D01*
X4170226Y-24463102D01*
X4092205Y-24274744D01*
X3978937Y-24105226D01*
X3834774Y-23961063D01*
X3665256Y-23847795D01*
X3476898Y-23769774D01*
X3276939Y-23730000D01*
X3073061Y-23730000D01*
X2873102Y-23769774D01*
X2684744Y-23847795D01*
X2515226Y-23961063D01*
X2371063Y-24105226D01*
X2257795Y-24274744D01*
X2179774Y-24463102D01*
X2140000Y-24663061D01*
X2140000Y-24866939D01*
X2179774Y-25066898D01*
X2257795Y-25255256D01*
X2371063Y-25424774D01*
X2415000Y-25468711D01*
X2415001Y-26721956D01*
X2260241Y-26825363D01*
X2060363Y-27025241D01*
X2030000Y-27070683D01*
X2030000Y-19407702D01*
X8076903Y-19407702D01*
X8148486Y-19651671D01*
X8403996Y-19772571D01*
X8678184Y-19841300D01*
X8960512Y-19855217D01*
X9240130Y-19813787D01*
X9506292Y-19718603D01*
X9631514Y-19651671D01*
X9703097Y-19407702D01*
X8890000Y-18594605D01*
X8076903Y-19407702D01*
X2030000Y-19407702D01*
X2030000Y-18485512D01*
X7449783Y-18485512D01*
X7491213Y-18765130D01*
X7586397Y-19031292D01*
X7653329Y-19156514D01*
X7897298Y-19228097D01*
X8710395Y-18415000D01*
X9069605Y-18415000D01*
X9882702Y-19228097D01*
X10126671Y-19156514D01*
X10157194Y-19092008D01*
X10158320Y-19094727D01*
X10315363Y-19329759D01*
X10515241Y-19529637D01*
X10750273Y-19686680D01*
X11011426Y-19794853D01*
X11288665Y-19850000D01*
X11571335Y-19850000D01*
X11848574Y-19794853D01*
X12109727Y-19686680D01*
X12344759Y-19529637D01*
X12544637Y-19329759D01*
X12701680Y-19094727D01*
X12809853Y-18833574D01*
X12865000Y-18556335D01*
X12865000Y-18273665D01*
X12809853Y-17996426D01*
X12701680Y-17735273D01*
X12544637Y-17500241D01*
X12344759Y-17300363D01*
X12109727Y-17143320D01*
X11848574Y-17035147D01*
X11571335Y-16980000D01*
X11288665Y-16980000D01*
X11011426Y-17035147D01*
X10750273Y-17143320D01*
X10515241Y-17300363D01*
X10315363Y-17500241D01*
X10159085Y-17734128D01*
X10126671Y-17673486D01*
X9882702Y-17601903D01*
X9069605Y-18415000D01*
X8710395Y-18415000D01*
X7897298Y-17601903D01*
X7653329Y-17673486D01*
X7532429Y-17928996D01*
X7463700Y-18203184D01*
X7449783Y-18485512D01*
X2030000Y-18485512D01*
X2030000Y-17422298D01*
X8076903Y-17422298D01*
X8890000Y-18235395D01*
X9703097Y-17422298D01*
X9631514Y-17178329D01*
X9376004Y-17057429D01*
X9101816Y-16988700D01*
X8819488Y-16974783D01*
X8539870Y-17016213D01*
X8273708Y-17111397D01*
X8148486Y-17178329D01*
X8076903Y-17422298D01*
X2030000Y-17422298D01*
X2030000Y-10228711D01*
X2073937Y-10184774D01*
X2187205Y-10015256D01*
X2265226Y-9826898D01*
X2305000Y-9626939D01*
X2305000Y-9423061D01*
X2295205Y-9373816D01*
X3545000Y-9373816D01*
X3545000Y-9676184D01*
X3603989Y-9972743D01*
X3719701Y-10252095D01*
X3887688Y-10503505D01*
X4101495Y-10717312D01*
X4187831Y-10775000D01*
X4101495Y-10832688D01*
X3887688Y-11046495D01*
X3719701Y-11297905D01*
X3603989Y-11577257D01*
X3545000Y-11873816D01*
X3545000Y-12176184D01*
X3603989Y-12472743D01*
X3719701Y-12752095D01*
X3887688Y-13003505D01*
X4101495Y-13217312D01*
X4187831Y-13275000D01*
X4101495Y-13332688D01*
X3887688Y-13546495D01*
X3719701Y-13797905D01*
X3603989Y-14077257D01*
X3545000Y-14373816D01*
X3545000Y-14676184D01*
X3603989Y-14972743D01*
X3719701Y-15252095D01*
X3887688Y-15503505D01*
X4101495Y-15717312D01*
X4352905Y-15885299D01*
X4632257Y-16001011D01*
X4928816Y-16060000D01*
X5231184Y-16060000D01*
X5527743Y-16001011D01*
X5807095Y-15885299D01*
X6058505Y-15717312D01*
X6272312Y-15503505D01*
X6440299Y-15252095D01*
X6503852Y-15098665D01*
X7455000Y-15098665D01*
X7455000Y-15381335D01*
X7510147Y-15658574D01*
X7618320Y-15919727D01*
X7775363Y-16154759D01*
X7975241Y-16354637D01*
X8210273Y-16511680D01*
X8471426Y-16619853D01*
X8748665Y-16675000D01*
X9031335Y-16675000D01*
X9308574Y-16619853D01*
X9569727Y-16511680D01*
X9804759Y-16354637D01*
X9926694Y-16232702D01*
X10616903Y-16232702D01*
X10688486Y-16476671D01*
X10943996Y-16597571D01*
X11218184Y-16666300D01*
X11500512Y-16680217D01*
X11780130Y-16638787D01*
X12046292Y-16543603D01*
X12171514Y-16476671D01*
X12243097Y-16232702D01*
X11430000Y-15419605D01*
X10616903Y-16232702D01*
X9926694Y-16232702D01*
X10004637Y-16154759D01*
X10160915Y-15920872D01*
X10193329Y-15981514D01*
X10437298Y-16053097D01*
X11250395Y-15240000D01*
X11609605Y-15240000D01*
X12422702Y-16053097D01*
X12666671Y-15981514D01*
X12787571Y-15726004D01*
X12856300Y-15451816D01*
X12870217Y-15169488D01*
X12828787Y-14889870D01*
X12733603Y-14623708D01*
X12666671Y-14498486D01*
X12422702Y-14426903D01*
X11609605Y-15240000D01*
X11250395Y-15240000D01*
X10437298Y-14426903D01*
X10193329Y-14498486D01*
X10162806Y-14562992D01*
X10161680Y-14560273D01*
X10004637Y-14325241D01*
X9926694Y-14247298D01*
X10616903Y-14247298D01*
X11430000Y-15060395D01*
X12243097Y-14247298D01*
X12171514Y-14003329D01*
X11916004Y-13882429D01*
X11641816Y-13813700D01*
X11359488Y-13799783D01*
X11079870Y-13841213D01*
X10813708Y-13936397D01*
X10688486Y-14003329D01*
X10616903Y-14247298D01*
X9926694Y-14247298D01*
X9804759Y-14125363D01*
X9569727Y-13968320D01*
X9308574Y-13860147D01*
X9031335Y-13805000D01*
X8748665Y-13805000D01*
X8471426Y-13860147D01*
X8210273Y-13968320D01*
X7975241Y-14125363D01*
X7775363Y-14325241D01*
X7618320Y-14560273D01*
X7510147Y-14821426D01*
X7455000Y-15098665D01*
X6503852Y-15098665D01*
X6556011Y-14972743D01*
X6615000Y-14676184D01*
X6615000Y-14373816D01*
X6556011Y-14077257D01*
X6440299Y-13797905D01*
X6272312Y-13546495D01*
X6058505Y-13332688D01*
X5972169Y-13275000D01*
X6058505Y-13217312D01*
X6272312Y-13003505D01*
X6440299Y-12752095D01*
X6556011Y-12472743D01*
X6615000Y-12176184D01*
X6615000Y-11923665D01*
X7455000Y-11923665D01*
X7455000Y-12206335D01*
X7510147Y-12483574D01*
X7618320Y-12744727D01*
X7775363Y-12979759D01*
X7975241Y-13179637D01*
X8210273Y-13336680D01*
X8471426Y-13444853D01*
X8748665Y-13500000D01*
X9031335Y-13500000D01*
X9308574Y-13444853D01*
X9569727Y-13336680D01*
X9804759Y-13179637D01*
X10004637Y-12979759D01*
X10160000Y-12747241D01*
X10315363Y-12979759D01*
X10515241Y-13179637D01*
X10750273Y-13336680D01*
X11011426Y-13444853D01*
X11288665Y-13500000D01*
X11571335Y-13500000D01*
X11848574Y-13444853D01*
X12109727Y-13336680D01*
X12344759Y-13179637D01*
X12544637Y-12979759D01*
X12701680Y-12744727D01*
X12809853Y-12483574D01*
X12865000Y-12206335D01*
X12865000Y-11923665D01*
X12809853Y-11646426D01*
X12701680Y-11385273D01*
X12544637Y-11150241D01*
X12344759Y-10950363D01*
X12109727Y-10793320D01*
X11848574Y-10685147D01*
X11571335Y-10630000D01*
X11288665Y-10630000D01*
X11106114Y-10666312D01*
X10285000Y-9845199D01*
X10285000Y-8898178D01*
X10471632Y-8773475D01*
X10678475Y-8566632D01*
X10795000Y-8392240D01*
X10911525Y-8566632D01*
X11118368Y-8773475D01*
X11361589Y-8935990D01*
X11631842Y-9047932D01*
X11918740Y-9105000D01*
X12211260Y-9105000D01*
X12498158Y-9047932D01*
X12768411Y-8935990D01*
X13011632Y-8773475D01*
X13218475Y-8566632D01*
X13380990Y-8323411D01*
X13492932Y-8053158D01*
X13550000Y-7766260D01*
X13550000Y-7473740D01*
X13523935Y-7342702D01*
X15776903Y-7342702D01*
X15848486Y-7586671D01*
X16103996Y-7707571D01*
X16378184Y-7776300D01*
X16660512Y-7790217D01*
X16940130Y-7748787D01*
X17206292Y-7653603D01*
X17331514Y-7586671D01*
X17403097Y-7342702D01*
X16590000Y-6529605D01*
X15776903Y-7342702D01*
X13523935Y-7342702D01*
X13492932Y-7186842D01*
X13380990Y-6916589D01*
X13218475Y-6673368D01*
X13011632Y-6466525D01*
X12942769Y-6420512D01*
X15149783Y-6420512D01*
X15191213Y-6700130D01*
X15286397Y-6966292D01*
X15353329Y-7091514D01*
X15597298Y-7163097D01*
X16410395Y-6350000D01*
X16769605Y-6350000D01*
X17582702Y-7163097D01*
X17826671Y-7091514D01*
X17947571Y-6836004D01*
X18016300Y-6561816D01*
X18030217Y-6279488D01*
X17988787Y-5999870D01*
X17893603Y-5733708D01*
X17826671Y-5608486D01*
X17582702Y-5536903D01*
X16769605Y-6350000D01*
X16410395Y-6350000D01*
X15597298Y-5536903D01*
X15353329Y-5608486D01*
X15232429Y-5863996D01*
X15163700Y-6138184D01*
X15149783Y-6420512D01*
X12942769Y-6420512D01*
X12837240Y-6350000D01*
X13011632Y-6233475D01*
X13218475Y-6026632D01*
X13380990Y-5783411D01*
X13492932Y-5513158D01*
X13523934Y-5357298D01*
X15776903Y-5357298D01*
X16590000Y-6170395D01*
X17403097Y-5357298D01*
X17331514Y-5113329D01*
X17076004Y-4992429D01*
X16801816Y-4923700D01*
X16519488Y-4909783D01*
X16239870Y-4951213D01*
X15973708Y-5046397D01*
X15848486Y-5113329D01*
X15776903Y-5357298D01*
X13523934Y-5357298D01*
X13550000Y-5226260D01*
X13550000Y-4933740D01*
X13492932Y-4646842D01*
X13380990Y-4376589D01*
X13218475Y-4133368D01*
X13011632Y-3926525D01*
X12837240Y-3810000D01*
X13011632Y-3693475D01*
X13218475Y-3486632D01*
X13380990Y-3243411D01*
X13492932Y-2973158D01*
X13550000Y-2686260D01*
X13550000Y-2398665D01*
X13885000Y-2398665D01*
X13885000Y-2681335D01*
X13940147Y-2958574D01*
X14048320Y-3219727D01*
X14205363Y-3454759D01*
X14405241Y-3654637D01*
X14640273Y-3811680D01*
X14901426Y-3919853D01*
X15178665Y-3975000D01*
X15461335Y-3975000D01*
X15738574Y-3919853D01*
X15999727Y-3811680D01*
X16234759Y-3654637D01*
X16434637Y-3454759D01*
X16591680Y-3219727D01*
X16699853Y-2958574D01*
X16755000Y-2681335D01*
X16755000Y-2398665D01*
X16699853Y-2121426D01*
X16591680Y-1860273D01*
X16434637Y-1625241D01*
X16234759Y-1425363D01*
X15999727Y-1268320D01*
X15738574Y-1160147D01*
X15461335Y-1105000D01*
X15178665Y-1105000D01*
X14901426Y-1160147D01*
X14640273Y-1268320D01*
X14405241Y-1425363D01*
X14205363Y-1625241D01*
X14048320Y-1860273D01*
X13940147Y-2121426D01*
X13885000Y-2398665D01*
X13550000Y-2398665D01*
X13550000Y-2393740D01*
X13492932Y-2106842D01*
X13380990Y-1836589D01*
X13218475Y-1593368D01*
X13011632Y-1386525D01*
X12768411Y-1224010D01*
X12498158Y-1112068D01*
X12211260Y-1055000D01*
X11918740Y-1055000D01*
X11631842Y-1112068D01*
X11361589Y-1224010D01*
X11118368Y-1386525D01*
X10986513Y-1518380D01*
X10964502Y-1445820D01*
X10905537Y-1335506D01*
X10826185Y-1238815D01*
X10729494Y-1159463D01*
X10619180Y-1100498D01*
X10499482Y-1064188D01*
X10375000Y-1051928D01*
X8675000Y-1051928D01*
X8550518Y-1064188D01*
X8430820Y-1100498D01*
X8320506Y-1159463D01*
X8223815Y-1238815D01*
X8144463Y-1335506D01*
X8085498Y-1445820D01*
X8049188Y-1565518D01*
X8036928Y-1690000D01*
X8036928Y-3390000D01*
X8049188Y-3514482D01*
X8085498Y-3634180D01*
X8144463Y-3744494D01*
X8223815Y-3841185D01*
X8320506Y-3920537D01*
X8430820Y-3979502D01*
X8503380Y-4001513D01*
X8371525Y-4133368D01*
X8209010Y-4376589D01*
X8097068Y-4646842D01*
X8040000Y-4933740D01*
X8040000Y-5226260D01*
X8097068Y-5513158D01*
X8209010Y-5783411D01*
X8371525Y-6026632D01*
X8578368Y-6233475D01*
X8752760Y-6350000D01*
X8578368Y-6466525D01*
X8371525Y-6673368D01*
X8209010Y-6916589D01*
X8097068Y-7186842D01*
X8040000Y-7473740D01*
X8040000Y-7766260D01*
X8097068Y-8053158D01*
X8209010Y-8323411D01*
X8371525Y-8566632D01*
X8578368Y-8773475D01*
X8765000Y-8898179D01*
X8765000Y-10122677D01*
X8761324Y-10160000D01*
X8765000Y-10197322D01*
X8765000Y-10197332D01*
X8775997Y-10308985D01*
X8816408Y-10442205D01*
X8819454Y-10452246D01*
X8890026Y-10584276D01*
X8927551Y-10630000D01*
X8748665Y-10630000D01*
X8471426Y-10685147D01*
X8210273Y-10793320D01*
X7975241Y-10950363D01*
X7775363Y-11150241D01*
X7618320Y-11385273D01*
X7510147Y-11646426D01*
X7455000Y-11923665D01*
X6615000Y-11923665D01*
X6615000Y-11873816D01*
X6556011Y-11577257D01*
X6440299Y-11297905D01*
X6272312Y-11046495D01*
X6058505Y-10832688D01*
X5972169Y-10775000D01*
X6058505Y-10717312D01*
X6272312Y-10503505D01*
X6440299Y-10252095D01*
X6556011Y-9972743D01*
X6615000Y-9676184D01*
X6615000Y-9373816D01*
X6556011Y-9077257D01*
X6440299Y-8797905D01*
X6272312Y-8546495D01*
X6058505Y-8332688D01*
X5807095Y-8164701D01*
X5527743Y-8048989D01*
X5231184Y-7990000D01*
X4928816Y-7990000D01*
X4632257Y-8048989D01*
X4352905Y-8164701D01*
X4101495Y-8332688D01*
X3887688Y-8546495D01*
X3719701Y-8797905D01*
X3603989Y-9077257D01*
X3545000Y-9373816D01*
X2295205Y-9373816D01*
X2265226Y-9223102D01*
X2187205Y-9034744D01*
X2073937Y-8865226D01*
X1929774Y-8721063D01*
X1760256Y-8607795D01*
X1571898Y-8529774D01*
X1371939Y-8490000D01*
X1168061Y-8490000D01*
X968102Y-8529774D01*
X779744Y-8607795D01*
X660000Y-8687805D01*
X660000Y-4439816D01*
X670273Y-4446680D01*
X931426Y-4554853D01*
X1208665Y-4610000D01*
X1491335Y-4610000D01*
X1768574Y-4554853D01*
X2029727Y-4446680D01*
X2264759Y-4289637D01*
X2464637Y-4089759D01*
X2621680Y-3854727D01*
X2729853Y-3593574D01*
X2785000Y-3316335D01*
X2785000Y-3033665D01*
X4915000Y-3033665D01*
X4915000Y-3316335D01*
X4970147Y-3593574D01*
X5078320Y-3854727D01*
X5235363Y-4089759D01*
X5435241Y-4289637D01*
X5670273Y-4446680D01*
X5931426Y-4554853D01*
X6208665Y-4610000D01*
X6491335Y-4610000D01*
X6768574Y-4554853D01*
X7029727Y-4446680D01*
X7264759Y-4289637D01*
X7464637Y-4089759D01*
X7621680Y-3854727D01*
X7729853Y-3593574D01*
X7785000Y-3316335D01*
X7785000Y-3033665D01*
X7729853Y-2756426D01*
X7621680Y-2495273D01*
X7464637Y-2260241D01*
X7264759Y-2060363D01*
X7029727Y-1903320D01*
X6768574Y-1795147D01*
X6491335Y-1740000D01*
X6208665Y-1740000D01*
X5931426Y-1795147D01*
X5670273Y-1903320D01*
X5435241Y-2060363D01*
X5235363Y-2260241D01*
X5078320Y-2495273D01*
X4970147Y-2756426D01*
X4915000Y-3033665D01*
X2785000Y-3033665D01*
X2729853Y-2756426D01*
X2621680Y-2495273D01*
X2464637Y-2260241D01*
X2264759Y-2060363D01*
X2029727Y-1903320D01*
X1768574Y-1795147D01*
X1491335Y-1740000D01*
X1208665Y-1740000D01*
X931426Y-1795147D01*
X670273Y-1903320D01*
X660000Y-1910184D01*
X660000Y-660000D01*
X24213999Y-660000D01*
X24085273Y-713320D01*
G37*
G04 #@! TD.AperFunction*
D30*
X14142818Y-57066808D02*
X14276068Y-57316101D01*
X14455392Y-57534608D01*
X14673899Y-57713932D01*
X14806858Y-57785000D01*
X14673899Y-57856068D01*
X14455392Y-58035392D01*
X14276068Y-58253899D01*
X14142818Y-58503192D01*
X14060764Y-58773691D01*
X14033057Y-59055000D01*
X14060764Y-59336309D01*
X14142818Y-59606808D01*
X14276068Y-59856101D01*
X14455392Y-60074608D01*
X14673899Y-60253932D01*
X14806858Y-60325000D01*
X14673899Y-60396068D01*
X14455392Y-60575392D01*
X14338162Y-60718237D01*
X14317852Y-60651285D01*
X14166031Y-60367248D01*
X13961714Y-60118286D01*
X13712751Y-59913969D01*
X13428714Y-59762148D01*
X13120515Y-59668657D01*
X12800000Y-59637089D01*
X12479484Y-59668657D01*
X12171285Y-59762148D01*
X11887248Y-59913969D01*
X11638286Y-60118286D01*
X11555000Y-60219771D01*
X11555000Y-57384317D01*
X11585363Y-57429759D01*
X11785241Y-57629637D01*
X12020273Y-57786680D01*
X12281426Y-57894853D01*
X12558665Y-57950000D01*
X12841335Y-57950000D01*
X13118574Y-57894853D01*
X13379727Y-57786680D01*
X13614759Y-57629637D01*
X13814637Y-57429759D01*
X13971680Y-57194727D01*
X14079853Y-56933574D01*
X14088783Y-56888678D01*
X14142818Y-57066808D01*
G04 #@! TA.AperFunction,Conductor*
D31*
G36*
X14142818Y-57066808D02*
G01*
X14276068Y-57316101D01*
X14455392Y-57534608D01*
X14673899Y-57713932D01*
X14806858Y-57785000D01*
X14673899Y-57856068D01*
X14455392Y-58035392D01*
X14276068Y-58253899D01*
X14142818Y-58503192D01*
X14060764Y-58773691D01*
X14033057Y-59055000D01*
X14060764Y-59336309D01*
X14142818Y-59606808D01*
X14276068Y-59856101D01*
X14455392Y-60074608D01*
X14673899Y-60253932D01*
X14806858Y-60325000D01*
X14673899Y-60396068D01*
X14455392Y-60575392D01*
X14338162Y-60718237D01*
X14317852Y-60651285D01*
X14166031Y-60367248D01*
X13961714Y-60118286D01*
X13712751Y-59913969D01*
X13428714Y-59762148D01*
X13120515Y-59668657D01*
X12800000Y-59637089D01*
X12479484Y-59668657D01*
X12171285Y-59762148D01*
X11887248Y-59913969D01*
X11638286Y-60118286D01*
X11555000Y-60219771D01*
X11555000Y-57384317D01*
X11585363Y-57429759D01*
X11785241Y-57629637D01*
X12020273Y-57786680D01*
X12281426Y-57894853D01*
X12558665Y-57950000D01*
X12841335Y-57950000D01*
X13118574Y-57894853D01*
X13379727Y-57786680D01*
X13614759Y-57629637D01*
X13814637Y-57429759D01*
X13971680Y-57194727D01*
X14079853Y-56933574D01*
X14088783Y-56888678D01*
X14142818Y-57066808D01*
G37*
G04 #@! TD.AperFunction*
D30*
X25275001Y-42476288D02*
X25231063Y-42520226D01*
X25117795Y-42689744D01*
X25039774Y-42878102D01*
X25000000Y-43078061D01*
X25000000Y-43281939D01*
X25039774Y-43481898D01*
X25117795Y-43670256D01*
X25231063Y-43839774D01*
X25275000Y-43883711D01*
X25275001Y-53580831D01*
X25227182Y-53423192D01*
X25093932Y-53173899D01*
X24914608Y-52955392D01*
X24696101Y-52776068D01*
X24446808Y-52642818D01*
X24176309Y-52560764D01*
X23965492Y-52540000D01*
X23024508Y-52540000D01*
X22813691Y-52560764D01*
X22543192Y-52642818D01*
X22293899Y-52776068D01*
X22075392Y-52955392D01*
X21923888Y-53140000D01*
X21790000Y-53140000D01*
X21790000Y-52173049D01*
X21806426Y-52179853D01*
X22083665Y-52235000D01*
X22366335Y-52235000D01*
X22643574Y-52179853D01*
X22904727Y-52071680D01*
X23139759Y-51914637D01*
X23339637Y-51714759D01*
X23496680Y-51479727D01*
X23604853Y-51218574D01*
X23660000Y-50941335D01*
X23660000Y-50658665D01*
X23604853Y-50381426D01*
X23496680Y-50120273D01*
X23339637Y-49885241D01*
X23139759Y-49685363D01*
X22904727Y-49528320D01*
X22643574Y-49420147D01*
X22366335Y-49365000D01*
X22083665Y-49365000D01*
X21806426Y-49420147D01*
X21784130Y-49429382D01*
X21783220Y-49420147D01*
X21777918Y-49366311D01*
X21730172Y-49208913D01*
X21653171Y-49064855D01*
X21660512Y-49065217D01*
X21940130Y-49023787D01*
X22206292Y-48928603D01*
X22331514Y-48861671D01*
X22403097Y-48617702D01*
X21590000Y-47804605D01*
X21575858Y-47818748D01*
X21396253Y-47639143D01*
X21410395Y-47625000D01*
X21769605Y-47625000D01*
X22582702Y-48438097D01*
X22826671Y-48366514D01*
X22947571Y-48111004D01*
X23016300Y-47836816D01*
X23030217Y-47554488D01*
X22988787Y-47274870D01*
X22893603Y-47008708D01*
X22826671Y-46883486D01*
X22582702Y-46811903D01*
X21769605Y-47625000D01*
X21410395Y-47625000D01*
X21396253Y-47610858D01*
X21575858Y-47431253D01*
X21590000Y-47445395D01*
X22403097Y-46632298D01*
X22331514Y-46388329D01*
X22076004Y-46267429D01*
X21801816Y-46198700D01*
X21519488Y-46184783D01*
X21239870Y-46226213D01*
X21155000Y-46256564D01*
X21155000Y-45044702D01*
X21196285Y-45141646D01*
X21355500Y-45374895D01*
X21557161Y-45572601D01*
X21793517Y-45727166D01*
X22055486Y-45832650D01*
X22333000Y-45885000D01*
X22733000Y-45885000D01*
X22733000Y-44577000D01*
X22987000Y-44577000D01*
X22987000Y-45885000D01*
X23387000Y-45885000D01*
X23664514Y-45832650D01*
X23926483Y-45727166D01*
X24162839Y-45572601D01*
X24364500Y-45374895D01*
X24523715Y-45141646D01*
X24634367Y-44881818D01*
X24651904Y-44799039D01*
X24529915Y-44577000D01*
X22987000Y-44577000D01*
X22733000Y-44577000D01*
X22713000Y-44577000D01*
X22713000Y-44323000D01*
X22733000Y-44323000D01*
X22733000Y-44303000D01*
X22987000Y-44303000D01*
X22987000Y-44323000D01*
X24529915Y-44323000D01*
X24651904Y-44100961D01*
X24634367Y-44018182D01*
X24523715Y-43758354D01*
X24364500Y-43525105D01*
X24162839Y-43327399D01*
X23933259Y-43177265D01*
X24061101Y-43108932D01*
X24279608Y-42929608D01*
X24458932Y-42711101D01*
X24592182Y-42461808D01*
X24674236Y-42191309D01*
X24701943Y-41910000D01*
X24674236Y-41628691D01*
X24592182Y-41358192D01*
X24458932Y-41108899D01*
X24279608Y-40890392D01*
X24061101Y-40711068D01*
X23928142Y-40640000D01*
X24061101Y-40568932D01*
X24279608Y-40389608D01*
X24341093Y-40314688D01*
X24463102Y-40365226D01*
X24663061Y-40405000D01*
X24866939Y-40405000D01*
X25066898Y-40365226D01*
X25255256Y-40287205D01*
X25275001Y-40274012D01*
X25275001Y-42476288D01*
G04 #@! TA.AperFunction,Conductor*
D31*
G36*
X25275001Y-42476288D02*
G01*
X25231063Y-42520226D01*
X25117795Y-42689744D01*
X25039774Y-42878102D01*
X25000000Y-43078061D01*
X25000000Y-43281939D01*
X25039774Y-43481898D01*
X25117795Y-43670256D01*
X25231063Y-43839774D01*
X25275000Y-43883711D01*
X25275001Y-53580831D01*
X25227182Y-53423192D01*
X25093932Y-53173899D01*
X24914608Y-52955392D01*
X24696101Y-52776068D01*
X24446808Y-52642818D01*
X24176309Y-52560764D01*
X23965492Y-52540000D01*
X23024508Y-52540000D01*
X22813691Y-52560764D01*
X22543192Y-52642818D01*
X22293899Y-52776068D01*
X22075392Y-52955392D01*
X21923888Y-53140000D01*
X21790000Y-53140000D01*
X21790000Y-52173049D01*
X21806426Y-52179853D01*
X22083665Y-52235000D01*
X22366335Y-52235000D01*
X22643574Y-52179853D01*
X22904727Y-52071680D01*
X23139759Y-51914637D01*
X23339637Y-51714759D01*
X23496680Y-51479727D01*
X23604853Y-51218574D01*
X23660000Y-50941335D01*
X23660000Y-50658665D01*
X23604853Y-50381426D01*
X23496680Y-50120273D01*
X23339637Y-49885241D01*
X23139759Y-49685363D01*
X22904727Y-49528320D01*
X22643574Y-49420147D01*
X22366335Y-49365000D01*
X22083665Y-49365000D01*
X21806426Y-49420147D01*
X21784130Y-49429382D01*
X21783220Y-49420147D01*
X21777918Y-49366311D01*
X21730172Y-49208913D01*
X21653171Y-49064855D01*
X21660512Y-49065217D01*
X21940130Y-49023787D01*
X22206292Y-48928603D01*
X22331514Y-48861671D01*
X22403097Y-48617702D01*
X21590000Y-47804605D01*
X21575858Y-47818748D01*
X21396253Y-47639143D01*
X21410395Y-47625000D01*
X21769605Y-47625000D01*
X22582702Y-48438097D01*
X22826671Y-48366514D01*
X22947571Y-48111004D01*
X23016300Y-47836816D01*
X23030217Y-47554488D01*
X22988787Y-47274870D01*
X22893603Y-47008708D01*
X22826671Y-46883486D01*
X22582702Y-46811903D01*
X21769605Y-47625000D01*
X21410395Y-47625000D01*
X21396253Y-47610858D01*
X21575858Y-47431253D01*
X21590000Y-47445395D01*
X22403097Y-46632298D01*
X22331514Y-46388329D01*
X22076004Y-46267429D01*
X21801816Y-46198700D01*
X21519488Y-46184783D01*
X21239870Y-46226213D01*
X21155000Y-46256564D01*
X21155000Y-45044702D01*
X21196285Y-45141646D01*
X21355500Y-45374895D01*
X21557161Y-45572601D01*
X21793517Y-45727166D01*
X22055486Y-45832650D01*
X22333000Y-45885000D01*
X22733000Y-45885000D01*
X22733000Y-44577000D01*
X22987000Y-44577000D01*
X22987000Y-45885000D01*
X23387000Y-45885000D01*
X23664514Y-45832650D01*
X23926483Y-45727166D01*
X24162839Y-45572601D01*
X24364500Y-45374895D01*
X24523715Y-45141646D01*
X24634367Y-44881818D01*
X24651904Y-44799039D01*
X24529915Y-44577000D01*
X22987000Y-44577000D01*
X22733000Y-44577000D01*
X22713000Y-44577000D01*
X22713000Y-44323000D01*
X22733000Y-44323000D01*
X22733000Y-44303000D01*
X22987000Y-44303000D01*
X22987000Y-44323000D01*
X24529915Y-44323000D01*
X24651904Y-44100961D01*
X24634367Y-44018182D01*
X24523715Y-43758354D01*
X24364500Y-43525105D01*
X24162839Y-43327399D01*
X23933259Y-43177265D01*
X24061101Y-43108932D01*
X24279608Y-42929608D01*
X24458932Y-42711101D01*
X24592182Y-42461808D01*
X24674236Y-42191309D01*
X24701943Y-41910000D01*
X24674236Y-41628691D01*
X24592182Y-41358192D01*
X24458932Y-41108899D01*
X24279608Y-40890392D01*
X24061101Y-40711068D01*
X23928142Y-40640000D01*
X24061101Y-40568932D01*
X24279608Y-40389608D01*
X24341093Y-40314688D01*
X24463102Y-40365226D01*
X24663061Y-40405000D01*
X24866939Y-40405000D01*
X25066898Y-40365226D01*
X25255256Y-40287205D01*
X25275001Y-40274012D01*
X25275001Y-42476288D01*
G37*
G04 #@! TD.AperFunction*
D30*
X10670001Y-38666288D02*
X10626063Y-38710226D01*
X10512795Y-38879744D01*
X10434774Y-39068102D01*
X10395000Y-39268061D01*
X10395000Y-39471939D01*
X10434774Y-39671898D01*
X10512795Y-39860256D01*
X10626063Y-40029774D01*
X10770226Y-40173937D01*
X10939744Y-40287205D01*
X11128102Y-40365226D01*
X11328061Y-40405000D01*
X11531939Y-40405000D01*
X11731898Y-40365226D01*
X11920256Y-40287205D01*
X11940001Y-40274012D01*
X11940001Y-41206288D01*
X11896063Y-41250226D01*
X11782795Y-41419744D01*
X11704774Y-41608102D01*
X11665000Y-41808061D01*
X11665000Y-42011939D01*
X11704774Y-42211898D01*
X11782795Y-42400256D01*
X11896063Y-42569774D01*
X12040226Y-42713937D01*
X12209744Y-42827205D01*
X12398102Y-42905226D01*
X12598061Y-42945000D01*
X12801939Y-42945000D01*
X13001898Y-42905226D01*
X13190256Y-42827205D01*
X13359774Y-42713937D01*
X13503937Y-42569774D01*
X13538155Y-42518564D01*
X13641068Y-42711101D01*
X13820392Y-42929608D01*
X14038899Y-43108932D01*
X14171858Y-43180000D01*
X14038899Y-43251068D01*
X13820392Y-43430392D01*
X13641068Y-43648899D01*
X13507818Y-43898192D01*
X13425764Y-44168691D01*
X13398057Y-44450000D01*
X13425764Y-44731309D01*
X13507818Y-45001808D01*
X13641068Y-45251101D01*
X13820392Y-45469608D01*
X14038899Y-45648932D01*
X14288192Y-45782182D01*
X14558691Y-45864236D01*
X14769508Y-45885000D01*
X15710492Y-45885000D01*
X15921309Y-45864236D01*
X16191808Y-45782182D01*
X16441101Y-45648932D01*
X16659608Y-45469608D01*
X16811112Y-45285000D01*
X16955001Y-45285000D01*
X16955002Y-46234491D01*
X16731335Y-46190000D01*
X16448665Y-46190000D01*
X16171426Y-46245147D01*
X15910273Y-46353320D01*
X15675241Y-46510363D01*
X15475363Y-46710241D01*
X15318320Y-46945273D01*
X15210147Y-47206426D01*
X15155000Y-47483665D01*
X15155000Y-47766335D01*
X15210147Y-48043574D01*
X15318320Y-48304727D01*
X15475363Y-48539759D01*
X15675241Y-48739637D01*
X15910273Y-48896680D01*
X16171426Y-49004853D01*
X16448665Y-49060000D01*
X16731335Y-49060000D01*
X16963646Y-49013790D01*
X16967083Y-49048687D01*
X17014829Y-49206085D01*
X17092365Y-49351144D01*
X17103736Y-49365000D01*
X17105421Y-49367053D01*
X16874870Y-49401213D01*
X16608708Y-49496397D01*
X16483486Y-49563329D01*
X16411903Y-49807298D01*
X17225000Y-50620395D01*
X17239143Y-50606253D01*
X17418748Y-50785858D01*
X17404605Y-50800000D01*
X17418748Y-50814143D01*
X17239143Y-50993748D01*
X17225000Y-50979605D01*
X16411903Y-51792702D01*
X16483486Y-52036671D01*
X16738996Y-52157571D01*
X17013184Y-52226300D01*
X17295512Y-52240217D01*
X17575130Y-52198787D01*
X17590001Y-52193469D01*
X17590001Y-52801576D01*
X17526185Y-52723815D01*
X17429494Y-52644463D01*
X17319180Y-52585498D01*
X17199482Y-52549188D01*
X17075000Y-52536928D01*
X14675000Y-52536928D01*
X14550518Y-52549188D01*
X14430820Y-52585498D01*
X14320506Y-52644463D01*
X14223815Y-52723815D01*
X14144463Y-52820506D01*
X14085498Y-52930820D01*
X14049188Y-53050518D01*
X14036928Y-53175000D01*
X14036928Y-53452796D01*
X13971680Y-53295273D01*
X13814637Y-53060241D01*
X13614759Y-52860363D01*
X13379727Y-52703320D01*
X13118574Y-52595147D01*
X12841335Y-52540000D01*
X12558665Y-52540000D01*
X12281426Y-52595147D01*
X12020273Y-52703320D01*
X11785241Y-52860363D01*
X11585363Y-53060241D01*
X11555000Y-53105683D01*
X11555000Y-50870512D01*
X15784783Y-50870512D01*
X15826213Y-51150130D01*
X15921397Y-51416292D01*
X15988329Y-51541514D01*
X16232298Y-51613097D01*
X17045395Y-50800000D01*
X16232298Y-49986903D01*
X15988329Y-50058486D01*
X15867429Y-50313996D01*
X15798700Y-50588184D01*
X15784783Y-50870512D01*
X11555000Y-50870512D01*
X11555000Y-47058711D01*
X11598937Y-47014774D01*
X11712205Y-46845256D01*
X11790226Y-46656898D01*
X11830000Y-46456939D01*
X11830000Y-46253061D01*
X11790226Y-46053102D01*
X11712205Y-45864744D01*
X11598937Y-45695226D01*
X11538954Y-45635243D01*
X11613822Y-45585218D01*
X11810218Y-45388822D01*
X11964525Y-45157885D01*
X12070814Y-44901282D01*
X12125000Y-44628873D01*
X12125000Y-44351127D01*
X12070814Y-44078718D01*
X11964525Y-43822115D01*
X11810218Y-43591178D01*
X11613822Y-43394782D01*
X11382885Y-43240475D01*
X11126282Y-43134186D01*
X10853873Y-43080000D01*
X10576127Y-43080000D01*
X10303718Y-43134186D01*
X10285000Y-43141939D01*
X10285000Y-31698043D01*
X10439759Y-31594637D01*
X10639637Y-31394759D01*
X10670000Y-31349317D01*
X10670001Y-38666288D01*
G04 #@! TA.AperFunction,Conductor*
D31*
G36*
X10670001Y-38666288D02*
G01*
X10626063Y-38710226D01*
X10512795Y-38879744D01*
X10434774Y-39068102D01*
X10395000Y-39268061D01*
X10395000Y-39471939D01*
X10434774Y-39671898D01*
X10512795Y-39860256D01*
X10626063Y-40029774D01*
X10770226Y-40173937D01*
X10939744Y-40287205D01*
X11128102Y-40365226D01*
X11328061Y-40405000D01*
X11531939Y-40405000D01*
X11731898Y-40365226D01*
X11920256Y-40287205D01*
X11940001Y-40274012D01*
X11940001Y-41206288D01*
X11896063Y-41250226D01*
X11782795Y-41419744D01*
X11704774Y-41608102D01*
X11665000Y-41808061D01*
X11665000Y-42011939D01*
X11704774Y-42211898D01*
X11782795Y-42400256D01*
X11896063Y-42569774D01*
X12040226Y-42713937D01*
X12209744Y-42827205D01*
X12398102Y-42905226D01*
X12598061Y-42945000D01*
X12801939Y-42945000D01*
X13001898Y-42905226D01*
X13190256Y-42827205D01*
X13359774Y-42713937D01*
X13503937Y-42569774D01*
X13538155Y-42518564D01*
X13641068Y-42711101D01*
X13820392Y-42929608D01*
X14038899Y-43108932D01*
X14171858Y-43180000D01*
X14038899Y-43251068D01*
X13820392Y-43430392D01*
X13641068Y-43648899D01*
X13507818Y-43898192D01*
X13425764Y-44168691D01*
X13398057Y-44450000D01*
X13425764Y-44731309D01*
X13507818Y-45001808D01*
X13641068Y-45251101D01*
X13820392Y-45469608D01*
X14038899Y-45648932D01*
X14288192Y-45782182D01*
X14558691Y-45864236D01*
X14769508Y-45885000D01*
X15710492Y-45885000D01*
X15921309Y-45864236D01*
X16191808Y-45782182D01*
X16441101Y-45648932D01*
X16659608Y-45469608D01*
X16811112Y-45285000D01*
X16955001Y-45285000D01*
X16955002Y-46234491D01*
X16731335Y-46190000D01*
X16448665Y-46190000D01*
X16171426Y-46245147D01*
X15910273Y-46353320D01*
X15675241Y-46510363D01*
X15475363Y-46710241D01*
X15318320Y-46945273D01*
X15210147Y-47206426D01*
X15155000Y-47483665D01*
X15155000Y-47766335D01*
X15210147Y-48043574D01*
X15318320Y-48304727D01*
X15475363Y-48539759D01*
X15675241Y-48739637D01*
X15910273Y-48896680D01*
X16171426Y-49004853D01*
X16448665Y-49060000D01*
X16731335Y-49060000D01*
X16963646Y-49013790D01*
X16967083Y-49048687D01*
X17014829Y-49206085D01*
X17092365Y-49351144D01*
X17103736Y-49365000D01*
X17105421Y-49367053D01*
X16874870Y-49401213D01*
X16608708Y-49496397D01*
X16483486Y-49563329D01*
X16411903Y-49807298D01*
X17225000Y-50620395D01*
X17239143Y-50606253D01*
X17418748Y-50785858D01*
X17404605Y-50800000D01*
X17418748Y-50814143D01*
X17239143Y-50993748D01*
X17225000Y-50979605D01*
X16411903Y-51792702D01*
X16483486Y-52036671D01*
X16738996Y-52157571D01*
X17013184Y-52226300D01*
X17295512Y-52240217D01*
X17575130Y-52198787D01*
X17590001Y-52193469D01*
X17590001Y-52801576D01*
X17526185Y-52723815D01*
X17429494Y-52644463D01*
X17319180Y-52585498D01*
X17199482Y-52549188D01*
X17075000Y-52536928D01*
X14675000Y-52536928D01*
X14550518Y-52549188D01*
X14430820Y-52585498D01*
X14320506Y-52644463D01*
X14223815Y-52723815D01*
X14144463Y-52820506D01*
X14085498Y-52930820D01*
X14049188Y-53050518D01*
X14036928Y-53175000D01*
X14036928Y-53452796D01*
X13971680Y-53295273D01*
X13814637Y-53060241D01*
X13614759Y-52860363D01*
X13379727Y-52703320D01*
X13118574Y-52595147D01*
X12841335Y-52540000D01*
X12558665Y-52540000D01*
X12281426Y-52595147D01*
X12020273Y-52703320D01*
X11785241Y-52860363D01*
X11585363Y-53060241D01*
X11555000Y-53105683D01*
X11555000Y-50870512D01*
X15784783Y-50870512D01*
X15826213Y-51150130D01*
X15921397Y-51416292D01*
X15988329Y-51541514D01*
X16232298Y-51613097D01*
X17045395Y-50800000D01*
X16232298Y-49986903D01*
X15988329Y-50058486D01*
X15867429Y-50313996D01*
X15798700Y-50588184D01*
X15784783Y-50870512D01*
X11555000Y-50870512D01*
X11555000Y-47058711D01*
X11598937Y-47014774D01*
X11712205Y-46845256D01*
X11790226Y-46656898D01*
X11830000Y-46456939D01*
X11830000Y-46253061D01*
X11790226Y-46053102D01*
X11712205Y-45864744D01*
X11598937Y-45695226D01*
X11538954Y-45635243D01*
X11613822Y-45585218D01*
X11810218Y-45388822D01*
X11964525Y-45157885D01*
X12070814Y-44901282D01*
X12125000Y-44628873D01*
X12125000Y-44351127D01*
X12070814Y-44078718D01*
X11964525Y-43822115D01*
X11810218Y-43591178D01*
X11613822Y-43394782D01*
X11382885Y-43240475D01*
X11126282Y-43134186D01*
X10853873Y-43080000D01*
X10576127Y-43080000D01*
X10303718Y-43134186D01*
X10285000Y-43141939D01*
X10285000Y-31698043D01*
X10439759Y-31594637D01*
X10639637Y-31394759D01*
X10670000Y-31349317D01*
X10670001Y-38666288D01*
G37*
G04 #@! TD.AperFunction*
D30*
X19485001Y-48853971D02*
X19480960Y-48895000D01*
X19497082Y-49058688D01*
X19544828Y-49216086D01*
X19622364Y-49361145D01*
X19632668Y-49373700D01*
X19726710Y-49488291D01*
X19758573Y-49514441D01*
X20120000Y-49875868D01*
X20120001Y-50758972D01*
X20115960Y-50800000D01*
X20120000Y-50841019D01*
X20120000Y-51764907D01*
X19986898Y-51709774D01*
X19786939Y-51670000D01*
X19583061Y-51670000D01*
X19383102Y-51709774D01*
X19260001Y-51760764D01*
X19260001Y-50265017D01*
X19264041Y-50223999D01*
X19260001Y-50182980D01*
X19250000Y-50081439D01*
X19250000Y-49551016D01*
X19254040Y-49509997D01*
X19237918Y-49346309D01*
X19190172Y-49188911D01*
X19112636Y-49043852D01*
X19062344Y-48982571D01*
X19008291Y-48916707D01*
X18976427Y-48890557D01*
X18625001Y-48539132D01*
X18625001Y-47656017D01*
X18629041Y-47614999D01*
X18625001Y-47573980D01*
X18625001Y-47299236D01*
X18748102Y-47350226D01*
X18948061Y-47390000D01*
X19151939Y-47390000D01*
X19351898Y-47350226D01*
X19485001Y-47295093D01*
X19485001Y-48853971D01*
G04 #@! TA.AperFunction,Conductor*
D31*
G36*
X19485001Y-48853971D02*
G01*
X19480960Y-48895000D01*
X19497082Y-49058688D01*
X19544828Y-49216086D01*
X19622364Y-49361145D01*
X19632668Y-49373700D01*
X19726710Y-49488291D01*
X19758573Y-49514441D01*
X20120000Y-49875868D01*
X20120001Y-50758972D01*
X20115960Y-50800000D01*
X20120000Y-50841019D01*
X20120000Y-51764907D01*
X19986898Y-51709774D01*
X19786939Y-51670000D01*
X19583061Y-51670000D01*
X19383102Y-51709774D01*
X19260001Y-51760764D01*
X19260001Y-50265017D01*
X19264041Y-50223999D01*
X19260001Y-50182980D01*
X19250000Y-50081439D01*
X19250000Y-49551016D01*
X19254040Y-49509997D01*
X19237918Y-49346309D01*
X19190172Y-49188911D01*
X19112636Y-49043852D01*
X19062344Y-48982571D01*
X19008291Y-48916707D01*
X18976427Y-48890557D01*
X18625001Y-48539132D01*
X18625001Y-47656017D01*
X18629041Y-47614999D01*
X18625001Y-47573980D01*
X18625001Y-47299236D01*
X18748102Y-47350226D01*
X18948061Y-47390000D01*
X19151939Y-47390000D01*
X19351898Y-47350226D01*
X19485001Y-47295093D01*
X19485001Y-48853971D01*
G37*
G04 #@! TD.AperFunction*
D30*
X24655147Y-17563574D02*
X24763320Y-17824727D01*
X24920363Y-18059759D01*
X25120241Y-18259637D01*
X25352759Y-18415000D01*
X25120241Y-18570363D01*
X24920363Y-18770241D01*
X24763320Y-19005273D01*
X24655147Y-19266426D01*
X24600000Y-19543665D01*
X24600000Y-19826335D01*
X24655147Y-20103574D01*
X24763320Y-20364727D01*
X24920363Y-20599759D01*
X25120241Y-20799637D01*
X25275000Y-20903044D01*
X25275001Y-24061288D01*
X25231063Y-24105226D01*
X25117795Y-24274744D01*
X25039774Y-24463102D01*
X25000000Y-24663061D01*
X25000000Y-24866939D01*
X25039774Y-25066898D01*
X25117795Y-25255256D01*
X25231063Y-25424774D01*
X25275000Y-25468711D01*
X25275000Y-29575988D01*
X25255256Y-29562795D01*
X25066898Y-29484774D01*
X24866939Y-29445000D01*
X24663061Y-29445000D01*
X24463102Y-29484774D01*
X24274744Y-29562795D01*
X24105226Y-29676063D01*
X23961063Y-29820226D01*
X23847795Y-29989744D01*
X23769774Y-30178102D01*
X23730000Y-30378061D01*
X23730000Y-30581939D01*
X23769774Y-30781898D01*
X23847795Y-30970256D01*
X23961063Y-31139774D01*
X24005000Y-31183711D01*
X24005001Y-35601082D01*
X23811808Y-35497818D01*
X23541309Y-35415764D01*
X23330492Y-35395000D01*
X22389508Y-35395000D01*
X22178691Y-35415764D01*
X21908192Y-35497818D01*
X21658899Y-35631068D01*
X21440392Y-35810392D01*
X21288888Y-35995000D01*
X21155000Y-35995000D01*
X21155000Y-35028049D01*
X21171426Y-35034853D01*
X21448665Y-35090000D01*
X21731335Y-35090000D01*
X22008574Y-35034853D01*
X22269727Y-34926680D01*
X22504759Y-34769637D01*
X22704637Y-34569759D01*
X22861680Y-34334727D01*
X22969853Y-34073574D01*
X23025000Y-33796335D01*
X23025000Y-33513665D01*
X22969853Y-33236426D01*
X22861680Y-32975273D01*
X22704637Y-32740241D01*
X22504759Y-32540363D01*
X22269727Y-32383320D01*
X22008574Y-32275147D01*
X21731335Y-32220000D01*
X21448665Y-32220000D01*
X21171426Y-32275147D01*
X21155000Y-32281951D01*
X21155000Y-31439396D01*
X21310241Y-31594637D01*
X21545273Y-31751680D01*
X21806426Y-31859853D01*
X22083665Y-31915000D01*
X22366335Y-31915000D01*
X22643574Y-31859853D01*
X22904727Y-31751680D01*
X23139759Y-31594637D01*
X23339637Y-31394759D01*
X23496680Y-31159727D01*
X23604853Y-30898574D01*
X23660000Y-30621335D01*
X23660000Y-30338665D01*
X23604853Y-30061426D01*
X23496680Y-29800273D01*
X23339637Y-29565241D01*
X23139759Y-29365363D01*
X22907241Y-29210000D01*
X23139759Y-29054637D01*
X23339637Y-28854759D01*
X23496680Y-28619727D01*
X23604853Y-28358574D01*
X23660000Y-28081335D01*
X23660000Y-27798665D01*
X23604853Y-27521426D01*
X23496680Y-27260273D01*
X23339637Y-27025241D01*
X23139759Y-26825363D01*
X22904727Y-26668320D01*
X22643574Y-26560147D01*
X22366335Y-26505000D01*
X22083665Y-26505000D01*
X21806426Y-26560147D01*
X21545273Y-26668320D01*
X21310241Y-26825363D01*
X21155000Y-26980604D01*
X21155000Y-21690356D01*
X21378184Y-21746300D01*
X21660512Y-21760217D01*
X21940130Y-21718787D01*
X22206292Y-21623603D01*
X22331514Y-21556671D01*
X22403097Y-21312702D01*
X21590000Y-20499605D01*
X21575858Y-20513748D01*
X21396253Y-20334143D01*
X21410395Y-20320000D01*
X21769605Y-20320000D01*
X22582702Y-21133097D01*
X22826671Y-21061514D01*
X22947571Y-20806004D01*
X23016300Y-20531816D01*
X23030217Y-20249488D01*
X22988787Y-19969870D01*
X22893603Y-19703708D01*
X22826671Y-19578486D01*
X22582702Y-19506903D01*
X21769605Y-20320000D01*
X21410395Y-20320000D01*
X21396253Y-20305858D01*
X21575858Y-20126253D01*
X21590000Y-20140395D01*
X22403097Y-19327298D01*
X22331514Y-19083329D01*
X22076004Y-18962429D01*
X21801816Y-18893700D01*
X21519488Y-18879783D01*
X21239870Y-18921213D01*
X21155000Y-18951564D01*
X21155000Y-17747662D01*
X21261068Y-17946101D01*
X21440392Y-18164608D01*
X21658899Y-18343932D01*
X21908192Y-18477182D01*
X22178691Y-18559236D01*
X22389508Y-18580000D01*
X23330492Y-18580000D01*
X23541309Y-18559236D01*
X23811808Y-18477182D01*
X24061101Y-18343932D01*
X24279608Y-18164608D01*
X24458932Y-17946101D01*
X24592182Y-17696808D01*
X24646217Y-17518678D01*
X24655147Y-17563574D01*
G04 #@! TA.AperFunction,Conductor*
D31*
G36*
X24655147Y-17563574D02*
G01*
X24763320Y-17824727D01*
X24920363Y-18059759D01*
X25120241Y-18259637D01*
X25352759Y-18415000D01*
X25120241Y-18570363D01*
X24920363Y-18770241D01*
X24763320Y-19005273D01*
X24655147Y-19266426D01*
X24600000Y-19543665D01*
X24600000Y-19826335D01*
X24655147Y-20103574D01*
X24763320Y-20364727D01*
X24920363Y-20599759D01*
X25120241Y-20799637D01*
X25275000Y-20903044D01*
X25275001Y-24061288D01*
X25231063Y-24105226D01*
X25117795Y-24274744D01*
X25039774Y-24463102D01*
X25000000Y-24663061D01*
X25000000Y-24866939D01*
X25039774Y-25066898D01*
X25117795Y-25255256D01*
X25231063Y-25424774D01*
X25275000Y-25468711D01*
X25275000Y-29575988D01*
X25255256Y-29562795D01*
X25066898Y-29484774D01*
X24866939Y-29445000D01*
X24663061Y-29445000D01*
X24463102Y-29484774D01*
X24274744Y-29562795D01*
X24105226Y-29676063D01*
X23961063Y-29820226D01*
X23847795Y-29989744D01*
X23769774Y-30178102D01*
X23730000Y-30378061D01*
X23730000Y-30581939D01*
X23769774Y-30781898D01*
X23847795Y-30970256D01*
X23961063Y-31139774D01*
X24005000Y-31183711D01*
X24005001Y-35601082D01*
X23811808Y-35497818D01*
X23541309Y-35415764D01*
X23330492Y-35395000D01*
X22389508Y-35395000D01*
X22178691Y-35415764D01*
X21908192Y-35497818D01*
X21658899Y-35631068D01*
X21440392Y-35810392D01*
X21288888Y-35995000D01*
X21155000Y-35995000D01*
X21155000Y-35028049D01*
X21171426Y-35034853D01*
X21448665Y-35090000D01*
X21731335Y-35090000D01*
X22008574Y-35034853D01*
X22269727Y-34926680D01*
X22504759Y-34769637D01*
X22704637Y-34569759D01*
X22861680Y-34334727D01*
X22969853Y-34073574D01*
X23025000Y-33796335D01*
X23025000Y-33513665D01*
X22969853Y-33236426D01*
X22861680Y-32975273D01*
X22704637Y-32740241D01*
X22504759Y-32540363D01*
X22269727Y-32383320D01*
X22008574Y-32275147D01*
X21731335Y-32220000D01*
X21448665Y-32220000D01*
X21171426Y-32275147D01*
X21155000Y-32281951D01*
X21155000Y-31439396D01*
X21310241Y-31594637D01*
X21545273Y-31751680D01*
X21806426Y-31859853D01*
X22083665Y-31915000D01*
X22366335Y-31915000D01*
X22643574Y-31859853D01*
X22904727Y-31751680D01*
X23139759Y-31594637D01*
X23339637Y-31394759D01*
X23496680Y-31159727D01*
X23604853Y-30898574D01*
X23660000Y-30621335D01*
X23660000Y-30338665D01*
X23604853Y-30061426D01*
X23496680Y-29800273D01*
X23339637Y-29565241D01*
X23139759Y-29365363D01*
X22907241Y-29210000D01*
X23139759Y-29054637D01*
X23339637Y-28854759D01*
X23496680Y-28619727D01*
X23604853Y-28358574D01*
X23660000Y-28081335D01*
X23660000Y-27798665D01*
X23604853Y-27521426D01*
X23496680Y-27260273D01*
X23339637Y-27025241D01*
X23139759Y-26825363D01*
X22904727Y-26668320D01*
X22643574Y-26560147D01*
X22366335Y-26505000D01*
X22083665Y-26505000D01*
X21806426Y-26560147D01*
X21545273Y-26668320D01*
X21310241Y-26825363D01*
X21155000Y-26980604D01*
X21155000Y-21690356D01*
X21378184Y-21746300D01*
X21660512Y-21760217D01*
X21940130Y-21718787D01*
X22206292Y-21623603D01*
X22331514Y-21556671D01*
X22403097Y-21312702D01*
X21590000Y-20499605D01*
X21575858Y-20513748D01*
X21396253Y-20334143D01*
X21410395Y-20320000D01*
X21769605Y-20320000D01*
X22582702Y-21133097D01*
X22826671Y-21061514D01*
X22947571Y-20806004D01*
X23016300Y-20531816D01*
X23030217Y-20249488D01*
X22988787Y-19969870D01*
X22893603Y-19703708D01*
X22826671Y-19578486D01*
X22582702Y-19506903D01*
X21769605Y-20320000D01*
X21410395Y-20320000D01*
X21396253Y-20305858D01*
X21575858Y-20126253D01*
X21590000Y-20140395D01*
X22403097Y-19327298D01*
X22331514Y-19083329D01*
X22076004Y-18962429D01*
X21801816Y-18893700D01*
X21519488Y-18879783D01*
X21239870Y-18921213D01*
X21155000Y-18951564D01*
X21155000Y-17747662D01*
X21261068Y-17946101D01*
X21440392Y-18164608D01*
X21658899Y-18343932D01*
X21908192Y-18477182D01*
X22178691Y-18559236D01*
X22389508Y-18580000D01*
X23330492Y-18580000D01*
X23541309Y-18559236D01*
X23811808Y-18477182D01*
X24061101Y-18343932D01*
X24279608Y-18164608D01*
X24458932Y-17946101D01*
X24592182Y-17696808D01*
X24646217Y-17518678D01*
X24655147Y-17563574D01*
G37*
G04 #@! TD.AperFunction*
D30*
X19485001Y-33613971D02*
X19480960Y-33655000D01*
X19485000Y-33696019D01*
X19485001Y-35889907D01*
X19351898Y-35834774D01*
X19151939Y-35795000D01*
X18948061Y-35795000D01*
X18748102Y-35834774D01*
X18625001Y-35885764D01*
X18625001Y-33120017D01*
X18629041Y-33078999D01*
X18615000Y-32936440D01*
X18615000Y-26975093D01*
X18748102Y-27030226D01*
X18948061Y-27070000D01*
X19151939Y-27070000D01*
X19351898Y-27030226D01*
X19485001Y-26975093D01*
X19485001Y-33613971D01*
G04 #@! TA.AperFunction,Conductor*
D31*
G36*
X19485001Y-33613971D02*
G01*
X19480960Y-33655000D01*
X19485000Y-33696019D01*
X19485001Y-35889907D01*
X19351898Y-35834774D01*
X19151939Y-35795000D01*
X18948061Y-35795000D01*
X18748102Y-35834774D01*
X18625001Y-35885764D01*
X18625001Y-33120017D01*
X18629041Y-33078999D01*
X18615000Y-32936440D01*
X18615000Y-26975093D01*
X18748102Y-27030226D01*
X18948061Y-27070000D01*
X19151939Y-27070000D01*
X19351898Y-27030226D01*
X19485001Y-26975093D01*
X19485001Y-33613971D01*
G37*
G04 #@! TD.AperFunction*
D30*
X16783748Y-33640858D02*
X16769605Y-33655000D01*
X16783748Y-33669143D01*
X16604143Y-33848748D01*
X16590000Y-33834605D01*
X16575858Y-33848748D01*
X16396253Y-33669143D01*
X16410395Y-33655000D01*
X16396253Y-33640858D01*
X16575858Y-33461253D01*
X16590000Y-33475395D01*
X16604143Y-33461253D01*
X16783748Y-33640858D01*
G04 #@! TA.AperFunction,Conductor*
D31*
G36*
X16783748Y-33640858D02*
G01*
X16769605Y-33655000D01*
X16783748Y-33669143D01*
X16604143Y-33848748D01*
X16590000Y-33834605D01*
X16575858Y-33848748D01*
X16396253Y-33669143D01*
X16410395Y-33655000D01*
X16396253Y-33640858D01*
X16575858Y-33461253D01*
X16590000Y-33475395D01*
X16604143Y-33461253D01*
X16783748Y-33640858D01*
G37*
G04 #@! TD.AperFunction*
D30*
X24655147Y-14388574D02*
X24763320Y-14649727D01*
X24920363Y-14884759D01*
X25120241Y-15084637D01*
X25355273Y-15241680D01*
X25616426Y-15349853D01*
X25893665Y-15405000D01*
X26176335Y-15405000D01*
X26453574Y-15349853D01*
X26714727Y-15241680D01*
X26949759Y-15084637D01*
X27149637Y-14884759D01*
X27280001Y-14689655D01*
X27280001Y-16425345D01*
X27149637Y-16230241D01*
X26949759Y-16030363D01*
X26714727Y-15873320D01*
X26453574Y-15765147D01*
X26176335Y-15710000D01*
X25893665Y-15710000D01*
X25616426Y-15765147D01*
X25355273Y-15873320D01*
X25120241Y-16030363D01*
X24920363Y-16230241D01*
X24763320Y-16465273D01*
X24655147Y-16726426D01*
X24646217Y-16771322D01*
X24592182Y-16593192D01*
X24458932Y-16343899D01*
X24279608Y-16125392D01*
X24061101Y-15946068D01*
X23933259Y-15877735D01*
X24162839Y-15727601D01*
X24364500Y-15529895D01*
X24523715Y-15296646D01*
X24634367Y-15036818D01*
X24651904Y-14954039D01*
X24529915Y-14732000D01*
X22987000Y-14732000D01*
X22987000Y-14752000D01*
X22733000Y-14752000D01*
X22733000Y-14732000D01*
X22713000Y-14732000D01*
X22713000Y-14478000D01*
X22733000Y-14478000D01*
X22733000Y-14458000D01*
X22987000Y-14458000D01*
X22987000Y-14478000D01*
X24529915Y-14478000D01*
X24634918Y-14286878D01*
X24655147Y-14388574D01*
G04 #@! TA.AperFunction,Conductor*
D31*
G36*
X24655147Y-14388574D02*
G01*
X24763320Y-14649727D01*
X24920363Y-14884759D01*
X25120241Y-15084637D01*
X25355273Y-15241680D01*
X25616426Y-15349853D01*
X25893665Y-15405000D01*
X26176335Y-15405000D01*
X26453574Y-15349853D01*
X26714727Y-15241680D01*
X26949759Y-15084637D01*
X27149637Y-14884759D01*
X27280001Y-14689655D01*
X27280001Y-16425345D01*
X27149637Y-16230241D01*
X26949759Y-16030363D01*
X26714727Y-15873320D01*
X26453574Y-15765147D01*
X26176335Y-15710000D01*
X25893665Y-15710000D01*
X25616426Y-15765147D01*
X25355273Y-15873320D01*
X25120241Y-16030363D01*
X24920363Y-16230241D01*
X24763320Y-16465273D01*
X24655147Y-16726426D01*
X24646217Y-16771322D01*
X24592182Y-16593192D01*
X24458932Y-16343899D01*
X24279608Y-16125392D01*
X24061101Y-15946068D01*
X23933259Y-15877735D01*
X24162839Y-15727601D01*
X24364500Y-15529895D01*
X24523715Y-15296646D01*
X24634367Y-15036818D01*
X24651904Y-14954039D01*
X24529915Y-14732000D01*
X22987000Y-14732000D01*
X22987000Y-14752000D01*
X22733000Y-14752000D01*
X22733000Y-14732000D01*
X22713000Y-14732000D01*
X22713000Y-14478000D01*
X22733000Y-14478000D01*
X22733000Y-14458000D01*
X22987000Y-14458000D01*
X22987000Y-14478000D01*
X24529915Y-14478000D01*
X24634918Y-14286878D01*
X24655147Y-14388574D01*
G37*
G04 #@! TD.AperFunction*
G04 #@! TD*
M02*
