999
"DXF R12 Output" (www.mydxf.blogspot.com)
 0 
SECTION
 2 
HEADER
 9 
$ACADVER
 1 
AC1009
 9 
$EXTMIN
 10 
 0 
 20 
 0 
 9 
$EXTMAX
 10 
 8.5 
 20 
 11 
 0 
ENDSEC
 0 
SECTION
 2 
ENTITIES
0
LINE
8
Layer 1
10
0.846666
20
137.914000
11
-0.846666
21
136.220000
0
LINE
8
Layer 1
10
0.000000
20
138.478000
11
0.000000
21
135.656000
0
LINE
8
Layer 1
10
2.257780
20
135.938000
11
1.128890
21
134.809110
0
LINE
8
Layer 1
10
1.693330
20
136.503000
11
0.564440
21
135.374110
0
LINE
8
Layer 1
10
1.128890
20
137.067000
11
0.000000
21
135.938110
0
LINE
8
0
10
109.601000
20
-103.307000
11
109.744459
21
-103.290547
0
LINE
8
0
10
109.744459
20
-103.290547
11
109.878636
21
-103.271553
0
LINE
8
0
10
109.878000
20
-103.272000
11
109.940027
21
-103.263985
0
LINE
8
0
10
109.940027
20
-103.263985
11
109.996144
21
-103.258086
0
LINE
8
0
10
109.996144
20
-103.258086
11
110.047201
21
-103.254700
0
LINE
8
0
10
110.047201
20
-103.254700
11
110.092768
21
-103.253571
0
LINE
8
0
10
110.093000
20
-103.253000
11
110.142369
21
-103.254129
0
LINE
8
0
10
110.142369
20
-103.254129
11
110.182030
21
-103.257939
0
LINE
8
0
10
110.182030
20
-103.257939
11
110.211144
21
-103.264261
0
LINE
8
0
10
110.211144
20
-103.264261
11
110.230561
21
-103.273122
0
LINE
8
0
10
110.230561
20
-103.273122
11
110.243233
21
-103.284948
0
LINE
8
0
10
110.243233
20
-103.284948
11
110.252094
21
-103.300554
0
LINE
8
0
10
110.252094
20
-103.300554
11
110.257569
21
-103.319971
0
LINE
8
0
10
110.257569
20
-103.319971
11
110.259263
21
-103.343170
0
LINE
8
0
10
110.259000
20
-103.344000
11
110.256460
21
-103.371432
0
LINE
8
0
10
110.256460
20
-103.371432
11
110.248868
21
-103.395054
0
LINE
8
0
10
110.248868
20
-103.395054
11
110.236196
21
-103.415741
0
LINE
8
0
10
110.236196
20
-103.415741
11
110.218473
21
-103.433041
0
LINE
8
0
10
110.218473
20
-103.433041
11
110.195698
21
-103.447378
0
LINE
8
0
10
110.195698
20
-103.447378
11
110.168266
21
-103.457933
0
LINE
8
0
10
110.168266
20
-103.457933
11
110.135353
21
-103.465525
0
LINE
8
0
10
110.135353
20
-103.465525
11
110.097380
21
-103.469730
0
LINE
8
0
10
110.098000
20
-103.469000
11
109.996313
21
-103.476168
0
LINE
8
0
10
109.996313
20
-103.476168
11
109.898845
21
-103.484607
0
LINE
8
0
10
109.898845
20
-103.484607
11
109.805173
21
-103.494315
0
LINE
8
0
10
109.805173
20
-103.494315
11
109.715722
21
-103.505294
0
LINE
8
0
10
109.715722
20
-103.505294
11
109.674794
21
-103.510769
0
LINE
8
0
10
109.674794
20
-103.510769
11
109.638506
21
-103.516244
0
LINE
8
0
10
109.638506
20
-103.516244
11
109.607705
21
-103.521296
0
LINE
8
0
10
109.607705
20
-103.521296
11
109.581543
21
-103.525924
0
LINE
8
0
10
109.581543
20
-103.525924
11
109.560856
21
-103.530553
0
LINE
8
0
10
109.560856
20
-103.530553
11
109.544826
21
-103.535181
0
LINE
8
0
10
109.544826
20
-103.535181
11
109.533847
21
-103.539414
0
LINE
8
0
10
109.533847
20
-103.539414
11
109.527949
21
-103.543224
0
LINE
8
0
10
109.527949
20
-103.543224
11
109.523744
21
-103.552086
0
LINE
8
0
10
109.523744
20
-103.552086
11
109.517422
21
-103.570233
0
LINE
8
0
10
109.517422
20
-103.570233
11
109.509407
21
-103.598503
0
LINE
8
0
10
109.509407
20
-103.598503
11
109.499698
21
-103.636479
0
LINE
8
0
10
109.499698
20
-103.636479
11
109.487873
21
-103.684158
0
LINE
8
0
10
109.487873
20
-103.684158
11
109.474383
21
-103.741965
0
LINE
8
0
10
109.474383
20
-103.741965
11
109.458776
21
-103.809052
0
LINE
8
0
10
109.458776
20
-103.809052
11
109.441476
21
-103.886268
0
LINE
8
0
10
109.441476
20
-103.886268
11
109.424176
21
-103.964748
0
LINE
8
0
10
109.424176
20
-103.964748
11
109.409415
21
-104.035634
0
LINE
8
0
10
109.409415
20
-104.035634
11
109.397167
21
-104.099769
0
LINE
8
0
10
109.397167
20
-104.099769
11
109.386612
21
-104.156733
0
LINE
8
0
10
109.386612
20
-104.156733
11
109.378597
21
-104.206522
0
LINE
8
0
10
109.378597
20
-104.206522
11
109.373122
21
-104.248714
0
LINE
8
0
10
109.373122
20
-104.248714
11
109.369735
21
-104.284159
0
LINE
8
0
10
109.369735
20
-104.284159
11
109.368606
21
-104.312429
0
LINE
8
0
10
109.368000
20
-104.313000
11
109.368847
21
-104.350973
0
LINE
8
0
10
109.368847
20
-104.350973
11
109.370540
21
-104.385573
0
LINE
8
0
10
109.370540
20
-104.385573
11
109.373927
21
-104.417219
0
LINE
8
0
10
109.373927
20
-104.417219
11
109.378583
21
-104.445074
0
LINE
8
0
10
109.378583
20
-104.445074
11
109.384058
21
-104.469966
0
LINE
8
0
10
109.384058
20
-104.469966
11
109.391227
21
-104.491472
0
LINE
8
0
10
109.391227
20
-104.491472
11
109.399665
21
-104.509619
0
LINE
8
0
10
109.399665
20
-104.509619
11
109.409374
21
-104.524379
0
LINE
8
0
10
109.409374
20
-104.524379
11
109.432996
21
-104.547154
0
LINE
8
0
10
109.432996
20
-104.547154
11
109.461686
21
-104.563608
0
LINE
8
0
10
109.461686
20
-104.563608
11
109.495443
21
-104.573316
0
LINE
8
0
10
109.495443
20
-104.573316
11
109.534683
21
-104.576703
0
LINE
8
0
10
109.535000
20
-104.576000
11
109.567489
21
-104.573037
0
LINE
8
0
10
109.567489
20
-104.573037
11
109.602510
21
-104.564175
0
LINE
8
0
10
109.602510
20
-104.564175
11
109.640907
21
-104.548991
0
LINE
8
0
10
109.640907
20
-104.548991
11
109.682258
21
-104.527881
0
LINE
8
0
10
109.682258
20
-104.527881
11
109.726561
21
-104.501296
0
LINE
8
0
10
109.726561
20
-104.501296
11
109.774240
21
-104.468383
0
LINE
8
0
10
109.774240
20
-104.468383
11
109.824453
21
-104.429143
0
LINE
8
0
10
109.824453
20
-104.429143
11
109.878038
21
-104.384417
0
LINE
8
0
10
109.878000
20
-104.385000
11
109.918084
21
-104.350823
0
LINE
8
0
10
109.918084
20
-104.350823
11
109.953105
21
-104.325931
0
LINE
8
0
10
109.953105
20
-104.325931
11
109.983486
21
-104.311594
0
LINE
8
0
10
109.983486
20
-104.311594
11
110.008801
21
-104.306542
0
LINE
8
0
10
110.009000
20
-104.306000
11
110.036009
21
-104.310205
0
LINE
8
0
10
110.036009
20
-104.310205
11
110.055425
21
-104.322849
0
LINE
8
0
10
110.055425
20
-104.322849
11
110.066827
21
-104.344354
0
LINE
8
0
10
110.066827
20
-104.344354
11
110.070637
21
-104.373891
0
LINE
8
0
10
110.070000
20
-104.374000
11
110.067037
21
-104.401855
0
LINE
8
0
10
110.067037
20
-104.401855
11
110.057752
21
-104.431393
0
LINE
8
0
10
110.057752
20
-104.431393
11
110.042145
21
-104.463038
0
LINE
8
0
10
110.042145
20
-104.463038
11
110.020639
21
-104.496371
0
LINE
8
0
10
110.020639
20
-104.496371
11
109.993207
21
-104.531813
0
LINE
8
0
10
109.993207
20
-104.531813
11
109.959030
21
-104.569365
0
LINE
8
0
10
109.959030
20
-104.569365
11
109.918943
21
-104.608605
0
LINE
8
0
10
109.918943
20
-104.608605
11
109.872953
21
-104.649957
0
LINE
8
0
10
109.872953
20
-104.649957
11
109.823586
21
-104.689620
0
LINE
8
0
10
109.823586
20
-104.689620
11
109.773797
21
-104.723797
0
LINE
8
0
10
109.773797
20
-104.723797
11
109.724007
21
-104.752911
0
LINE
8
0
10
109.724007
20
-104.752911
11
109.673376
21
-104.776957
0
LINE
8
0
10
109.673376
20
-104.776957
11
109.622743
21
-104.795527
0
LINE
8
0
10
109.622743
20
-104.795527
11
109.572110
21
-104.808622
0
LINE
8
0
10
109.572110
20
-104.808622
11
109.520632
21
-104.816637
0
LINE
8
0
10
109.520632
20
-104.816637
11
109.469155
21
-104.819177
0
LINE
8
0
10
109.469000
20
-104.819000
11
109.427228
21
-104.817307
0
LINE
8
0
10
109.427228
20
-104.817307
11
109.388411
21
-104.812678
0
LINE
8
0
10
109.388411
20
-104.812678
11
109.352123
21
-104.804240
0
LINE
8
0
10
109.352123
20
-104.804240
11
109.318370
21
-104.792838
0
LINE
8
0
10
109.318370
20
-104.792838
11
109.287568
21
-104.778501
0
LINE
8
0
10
109.287568
20
-104.778501
11
109.259298
21
-104.760354
0
LINE
8
0
10
109.259298
20
-104.760354
11
109.233559
21
-104.739244
0
LINE
8
0
10
109.233559
20
-104.739244
11
109.210784
21
-104.714775
0
LINE
8
0
10
109.210784
20
-104.714775
11
109.190520
21
-104.686920
0
LINE
8
0
10
109.190520
20
-104.686920
11
109.173220
21
-104.656121
0
LINE
8
0
10
109.173220
20
-104.656121
11
109.158460
21
-104.621941
0
LINE
8
0
10
109.158460
20
-104.621941
11
109.146212
21
-104.584389
0
LINE
8
0
10
109.146212
20
-104.584389
11
109.136926
21
-104.543884
0
LINE
8
0
10
109.136926
20
-104.543884
11
109.130181
21
-104.500002
0
LINE
8
0
10
109.130181
20
-104.500002
11
109.125976
21
-104.452743
0
LINE
8
0
10
109.125976
20
-104.452743
11
109.124847
21
-104.402113
0
LINE
8
0
10
109.125000
20
-104.403000
11
109.126129
21
-104.362913
0
LINE
8
0
10
109.126129
20
-104.362913
11
109.129092
21
-104.317346
0
LINE
8
0
10
109.129092
20
-104.317346
11
109.134567
21
-104.266712
0
LINE
8
0
10
109.134567
20
-104.266712
11
109.142159
21
-104.211016
0
LINE
8
0
10
109.142159
20
-104.211016
11
109.151444
21
-104.150256
0
LINE
8
0
10
109.151444
20
-104.150256
11
109.163269
21
-104.084434
0
LINE
8
0
10
109.163269
20
-104.084434
11
109.177183
21
-104.013125
0
LINE
8
0
10
109.177183
20
-104.013125
11
109.193213
21
-103.936755
0
LINE
8
0
10
109.193000
20
-103.936000
11
109.208607
21
-103.861316
0
LINE
8
0
10
109.208607
20
-103.861316
11
109.222097
21
-103.794649
0
LINE
8
0
10
109.222097
20
-103.794649
11
109.233499
21
-103.735577
0
LINE
8
0
10
109.233499
20
-103.735577
11
109.243207
21
-103.684523
0
LINE
8
0
10
109.243207
20
-103.684523
11
109.250376
21
-103.641484
0
LINE
8
0
10
109.250376
20
-103.641484
11
109.255428
21
-103.606043
0
LINE
8
0
10
109.255428
20
-103.606043
11
109.258814
21
-103.578611
0
LINE
8
0
10
109.258814
20
-103.578611
11
109.259661
21
-103.558771
0
LINE
8
0
10
109.260000
20
-103.559000
11
109.258024
21
-103.549292
0
LINE
8
0
10
109.258024
20
-103.549292
11
109.252126
21
-103.542546
0
LINE
8
0
10
109.252126
20
-103.542546
11
109.241571
21
-103.538341
0
LINE
8
0
10
109.241571
20
-103.538341
11
109.227234
21
-103.537212
0
LINE
8
0
10
109.227000
20
-103.537000
11
109.084478
21
-103.550264
0
LINE
8
0
10
109.085000
20
-103.550000
11
109.044072
21
-103.548024
0
LINE
8
0
10
109.044072
20
-103.548024
11
109.008207
21
-103.541703
0
LINE
8
0
10
109.008207
20
-103.541703
11
108.978249
21
-103.530724
0
LINE
8
0
10
108.978249
20
-103.530724
11
108.953357
21
-103.515541
0
LINE
8
0
10
108.953357
20
-103.515541
11
108.934364
21
-103.496547
0
LINE
8
0
10
108.934364
20
-103.496547
11
108.920451
21
-103.472925
0
LINE
8
0
10
108.920451
20
-103.472925
11
108.912435
21
-103.444652
0
LINE
8
0
10
108.912435
20
-103.444652
11
108.909472
21
-103.412586
0
LINE
8
0
10
108.909000
20
-103.413000
11
108.910129
21
-103.394430
0
LINE
8
0
10
108.910129
20
-103.394430
11
108.913939
21
-103.378823
0
LINE
8
0
10
108.913939
20
-103.378823
11
108.920684
21
-103.365333
0
LINE
8
0
10
108.920684
20
-103.365333
11
108.929969
21
-103.353931
0
LINE
8
0
10
108.929969
20
-103.353931
11
108.941371
21
-103.345492
0
LINE
8
0
10
108.941371
20
-103.345492
11
108.955708
21
-103.339594
0
LINE
8
0
10
108.955708
20
-103.339594
11
108.973008
21
-103.335784
0
LINE
8
0
10
108.973008
20
-103.335784
11
108.992425
21
-103.334655
0
LINE
8
0
10
108.993000
20
-103.334000
11
109.285000
21
-103.334000
0
LINE
8
0
10
109.285000
20
-103.334000
11
109.299337
21
-103.332307
0
LINE
8
0
10
109.299337
20
-103.332307
11
109.313250
21
-103.327255
0
LINE
8
0
10
109.313250
20
-103.327255
11
109.325894
21
-103.318393
0
LINE
8
0
10
109.325894
20
-103.318393
11
109.337719
21
-103.306568
0
LINE
8
0
10
109.337719
20
-103.306568
11
109.343617
21
-103.297706
0
LINE
8
0
10
109.343617
20
-103.297706
11
109.350363
21
-103.284611
0
LINE
8
0
10
109.350363
20
-103.284611
11
109.357954
21
-103.267734
0
LINE
8
0
10
109.357954
20
-103.267734
11
109.365969
21
-103.246652
0
LINE
8
0
10
109.365969
20
-103.246652
11
109.374408
21
-103.221337
0
LINE
8
0
10
109.374408
20
-103.221337
11
109.383693
21
-103.192226
0
LINE
8
0
10
109.383693
20
-103.192226
11
109.393825
21
-103.158890
0
LINE
8
0
10
109.393825
20
-103.158890
11
109.404380
21
-103.121761
0
LINE
8
0
10
109.404380
20
-103.121761
11
109.445731
21
-102.965221
0
LINE
8
0
10
109.445731
20
-102.965221
11
109.482440
21
-102.811212
0
LINE
8
0
10
109.483000
20
-102.811000
11
109.492708
21
-102.775135
0
LINE
8
0
10
109.492708
20
-102.775135
11
109.504110
21
-102.744334
0
LINE
8
0
10
109.504110
20
-102.744334
11
109.518024
21
-102.718172
0
LINE
8
0
10
109.518024
20
-102.718172
11
109.533631
21
-102.696666
0
LINE
8
0
10
109.533631
20
-102.696666
11
109.551354
21
-102.680213
0
LINE
8
0
10
109.551354
20
-102.680213
11
109.571194
21
-102.668388
0
LINE
8
0
10
109.571194
20
-102.668388
11
109.593123
21
-102.661219
0
LINE
8
0
10
109.593123
20
-102.661219
11
109.617168
21
-102.658679
0
LINE
8
0
10
109.617000
20
-102.659000
11
109.646114
21
-102.661963
0
LINE
8
0
10
109.646114
20
-102.661963
11
109.671429
21
-102.669978
0
LINE
8
0
10
109.671429
20
-102.669978
11
109.693781
21
-102.683892
0
LINE
8
0
10
109.693781
20
-102.683892
11
109.712352
21
-102.703309
0
LINE
8
0
10
109.712352
20
-102.703309
11
109.727112
21
-102.725266
0
LINE
8
0
10
109.727112
20
-102.725266
11
109.738090
21
-102.745953
0
LINE
8
0
10
109.738090
20
-102.745953
11
109.744412
21
-102.766640
0
LINE
8
0
10
109.744412
20
-102.766640
11
109.746387
21
-102.786056
0
LINE
8
0
10
109.746000
20
-102.786000
11
109.745153
21
-102.794015
0
LINE
8
0
10
109.745153
20
-102.794015
11
109.742613
21
-102.807082
0
LINE
8
0
10
109.742613
20
-102.807082
11
109.737957
21
-102.825229
0
LINE
8
0
10
109.737957
20
-102.825229
11
109.732058
21
-102.848851
0
LINE
8
0
10
109.732058
20
-102.848851
11
109.724043
21
-102.877965
0
LINE
8
0
10
109.724043
20
-102.877965
11
109.714758
21
-102.912565
0
LINE
8
0
10
109.714758
20
-102.912565
11
109.703356
21
-102.952226
0
LINE
8
0
10
109.703356
20
-102.952226
11
109.690289
21
-102.996953
0
LINE
8
0
10
109.691000
20
-102.997000
11
109.600971
21
-103.306880
0
LINE
8
0
10
109.224000
20
5.148970
11
109.214912
21
5.176204
0
LINE
8
0
10
109.214912
20
5.176204
11
109.207434
21
5.198105
0
LINE
8
0
10
109.207434
20
5.198105
11
109.201563
21
5.214135
0
LINE
8
0
10
109.201563
20
5.214135
11
109.197302
21
5.224831
0
LINE
8
0
10
109.197000
20
5.224730
11
108.681380
21
4.251629
0
LINE
8
0
10
108.681000
20
4.251530
11
108.796920
21
4.270213
0
LINE
8
0
10
108.796920
20
4.270213
11
108.914973
21
4.287316
0
LINE
8
0
10
108.915000
20
4.287320
11
108.939045
21
4.290537
0
LINE
8
0
10
108.939045
20
4.290537
11
108.970561
21
4.295335
0
LINE
8
0
10
108.970561
20
4.295335
11
109.009558
21
4.302278
0
LINE
8
0
10
109.009558
20
4.302278
11
109.056565
21
4.310829
0
LINE
8
0
10
109.056565
20
4.310829
11
109.111587
21
4.320989
0
LINE
8
0
10
109.111587
20
4.320989
11
109.173555
21
4.333266
0
LINE
8
0
10
109.173555
20
4.333266
11
109.243532
21
4.347151
0
LINE
8
0
10
109.243532
20
4.347151
11
109.321524
21
4.363181
0
LINE
8
0
10
109.322000
20
4.363180
11
109.402129
21
4.378674
0
LINE
8
0
10
109.402129
20
4.378674
11
109.481721
21
4.392023
0
LINE
8
0
10
109.482000
20
4.392020
11
109.476130
21
4.407514
0
LINE
8
0
10
109.476130
20
4.407514
11
109.468651
21
4.427269
0
LINE
8
0
10
109.468651
20
4.427269
11
109.459563
21
4.450779
0
LINE
8
0
10
109.459563
20
4.450779
11
109.449403
21
4.479091
0
LINE
8
0
10
109.449403
20
4.479091
11
109.438171
21
4.511677
0
LINE
8
0
10
109.438171
20
4.511677
11
109.425358
21
4.548535
0
LINE
8
0
10
109.425358
20
4.548535
11
109.410937
21
4.589132
0
LINE
8
0
10
109.410937
20
4.589132
11
109.395443
21
4.634539
0
LINE
8
0
10
109.395443
20
4.634539
11
109.378876
21
4.683685
0
LINE
8
0
10
109.378876
20
4.683685
11
109.360701
21
4.737637
0
LINE
8
0
10
109.360701
20
4.737637
11
109.340946
21
4.795329
0
LINE
8
0
10
109.340946
20
4.795329
11
109.320654
21
4.857830
0
LINE
8
0
10
109.320654
20
4.857830
11
109.298217
21
4.924068
0
LINE
8
0
10
109.298217
20
4.924068
11
109.274708
21
4.994581
0
LINE
8
0
10
109.274708
20
4.994581
11
109.250127
21
5.069900
0
LINE
8
0
10
109.250127
20
5.069900
11
109.223936
21
5.148962
0
LINE
8
0
10
108.438000
20
3.839140
11
108.428376
21
3.817240
0
LINE
8
0
10
108.428376
20
3.817240
11
108.414491
21
3.790005
0
LINE
8
0
10
108.414491
20
3.790005
11
108.396852
21
3.756886
0
LINE
8
0
10
108.396852
20
3.756886
11
108.374952
21
3.718425
0
LINE
8
0
10
108.374952
20
3.718425
11
108.349298
21
3.674088
0
LINE
8
0
10
108.349298
20
3.674088
11
108.319916
21
3.623875
0
LINE
8
0
10
108.319916
20
3.623875
11
108.286263
21
3.567784
0
LINE
8
0
10
108.286263
20
3.567784
11
108.248336
21
3.506352
0
LINE
8
0
10
108.248336
20
3.506352
11
108.210408
21
3.445454
0
LINE
8
0
10
108.210408
20
3.445454
11
108.175153
21
3.392035
0
LINE
8
0
10
108.175153
20
3.392035
11
108.143101
21
3.345029
0
LINE
8
0
10
108.143101
20
3.345029
11
108.114255
21
3.306031
0
LINE
8
0
10
108.114255
20
3.306031
11
108.088601
21
3.273446
0
LINE
8
0
10
108.088601
20
3.273446
11
108.065628
21
3.248328
0
LINE
8
0
10
108.065628
20
3.248328
11
108.045872
21
3.230181
0
LINE
8
0
10
108.045872
20
3.230181
11
108.028770
21
3.218949
0
LINE
8
0
10
108.028770
20
3.218949
11
107.998854
21
3.206136
0
LINE
8
0
10
107.998854
20
3.206136
11
107.971083
21
3.197048
0
LINE
8
0
10
107.971083
20
3.197048
11
107.944385
21
3.191178
0
LINE
8
0
10
107.944385
20
3.191178
11
107.919804
21
3.189485
0
LINE
8
0
10
107.920000
20
3.189570
11
107.885812
21
3.193832
0
LINE
8
0
10
107.885812
20
3.193832
11
107.848420
21
3.207181
0
LINE
8
0
10
107.848420
20
3.207181
11
107.807286
21
3.229081
0
LINE
8
0
10
107.807286
20
3.229081
11
107.763482
21
3.260063
0
LINE
8
0
10
107.763482
20
3.260063
11
107.723418
21
3.295855
0
LINE
8
0
10
107.723418
20
3.295855
11
107.695108
21
3.332180
0
LINE
8
0
10
107.695108
20
3.332180
11
107.678006
21
3.369038
0
LINE
8
0
10
107.678006
20
3.369038
11
107.672136
21
3.406432
0
LINE
8
0
10
107.672000
20
3.406450
11
107.673693
21
3.417654
0
LINE
8
0
10
107.673693
20
3.417654
11
107.679027
21
3.433684
0
LINE
8
0
10
107.679027
20
3.433684
11
107.688115
21
3.454512
0
LINE
8
0
10
107.688115
20
3.454512
11
107.700392
21
3.480138
0
LINE
8
0
10
107.700392
20
3.480138
11
107.716422
21
3.510587
0
LINE
8
0
10
107.716422
20
3.510587
11
107.736177
21
3.545845
0
LINE
8
0
10
107.736177
20
3.545845
11
107.759150
21
3.585909
0
LINE
8
0
10
107.759150
20
3.585909
11
107.785848
21
3.630780
0
LINE
8
0
10
107.785848
20
3.630780
11
107.815764
21
3.680459
0
LINE
8
0
10
107.815764
20
3.680459
11
107.849416
21
3.734948
0
LINE
8
0
10
107.849416
20
3.734948
11
107.886810
21
3.794243
0
LINE
8
0
10
107.886810
20
3.794243
11
107.927408
21
3.857810
0
LINE
8
0
10
107.927408
20
3.857810
11
107.971745
21
3.926720
0
LINE
8
0
10
107.971745
20
3.926720
11
108.019822
21
4.000437
0
LINE
8
0
10
108.019822
20
4.000437
11
108.071104
21
4.078962
0
LINE
8
0
10
108.071104
20
4.078962
11
108.126126
21
4.162297
0
LINE
8
0
10
108.126000
20
4.162320
11
108.247260
21
4.349286
0
LINE
8
0
10
108.247260
20
4.349286
11
108.363180
21
4.535716
0
LINE
8
0
10
108.363180
20
4.535716
11
108.473224
21
4.721079
0
LINE
8
0
10
108.473224
20
4.721079
11
108.578456
21
4.905373
0
LINE
8
0
10
108.579000
20
4.905380
11
108.629216
21
4.995660
0
LINE
8
0
10
108.629216
20
4.995660
11
108.676759
21
5.081128
0
LINE
8
0
10
108.676759
20
5.081128
11
108.721629
21
5.161790
0
LINE
8
0
10
108.721629
20
5.161790
11
108.764364
21
5.237646
0
LINE
8
0
10
108.764364
20
5.237646
11
108.804428
21
5.308692
0
LINE
8
0
10
108.804428
20
5.308692
11
108.842356
21
5.374932
0
LINE
8
0
10
108.842356
20
5.374932
11
108.877077
21
5.436364
0
LINE
8
0
10
108.877077
20
5.436364
11
108.910199
21
5.492453
0
LINE
8
0
10
108.910199
20
5.492453
11
108.940112
21
5.544269
0
LINE
8
0
10
108.940112
20
5.544269
11
108.967882
21
5.590745
0
LINE
8
0
10
108.967882
20
5.590745
11
108.993000
21
5.632946
0
LINE
8
0
10
108.993000
20
5.632946
11
109.015437
21
5.669804
0
LINE
8
0
10
109.015437
20
5.669804
11
109.035728
21
5.701856
0
LINE
8
0
10
109.035728
20
5.701856
11
109.053367
21
5.729090
0
LINE
8
0
10
109.053367
20
5.729090
11
109.068325
21
5.751527
0
LINE
8
0
10
109.068325
20
5.751527
11
109.081138
21
5.769166
0
LINE
8
0
10
109.081138
20
5.769166
11
109.127078
21
5.822051
0
LINE
8
0
10
109.127078
20
5.822051
11
109.173552
21
5.859976
0
LINE
8
0
10
109.173552
20
5.859976
11
109.220561
21
5.882949
0
LINE
8
0
10
109.220561
20
5.882949
11
109.268104
21
5.890428
0
LINE
8
0
10
109.268000
20
5.890420
11
109.339580
21
5.885622
0
LINE
8
0
10
109.339580
20
5.885622
11
109.400478
21
5.870664
0
LINE
8
0
10
109.400478
20
5.870664
11
109.451224
21
5.846083
0
LINE
8
0
10
109.451224
20
5.846083
11
109.490755
21
5.811361
0
LINE
8
0
10
109.491000
20
5.811360
11
109.505958
21
5.794257
0
LINE
8
0
10
109.505958
20
5.794257
11
109.516654
21
5.768603
0
LINE
8
0
10
109.516654
20
5.768603
11
109.523060
21
5.734415
0
LINE
8
0
10
109.523060
20
5.734415
11
109.525318
21
5.691145
0
LINE
8
0
10
109.525000
20
5.691170
11
109.521783
21
5.628136
0
LINE
8
0
10
109.521783
20
5.628136
11
109.512159
21
5.577923
0
LINE
8
0
10
109.512000
20
5.577920
11
109.553134
21
5.455057
0
LINE
8
0
10
109.553134
20
5.455057
11
109.592665
21
5.337001
0
LINE
8
0
10
109.592665
20
5.337001
11
109.631126
21
5.223220
0
LINE
8
0
10
109.631126
20
5.223220
11
109.669051
21
5.114246
0
LINE
8
0
10
109.669051
20
5.114246
11
109.705376
21
5.009544
0
LINE
8
0
10
109.705376
20
5.009544
11
109.740634
21
4.909651
0
LINE
8
0
10
109.740634
20
4.909651
11
109.774822
21
4.814032
0
LINE
8
0
10
109.774822
20
4.814032
11
109.807941
21
4.723218
0
LINE
8
0
10
109.807941
20
4.723218
11
109.839457
21
4.637214
0
LINE
8
0
10
109.839457
20
4.637214
11
109.870442
21
4.555485
0
LINE
8
0
10
109.870442
20
4.555485
11
109.899821
21
4.478027
0
LINE
8
0
10
109.899821
20
4.478027
11
109.928667
21
4.405911
0
LINE
8
0
10
109.928667
20
4.405911
11
109.955901
21
4.337537
0
LINE
8
0
10
109.955901
20
4.337537
11
109.982092
21
4.274502
0
LINE
8
0
10
109.982092
20
4.274502
11
110.007209
21
4.215741
0
LINE
8
0
10
110.007209
20
4.215741
11
110.031255
21
4.161252
0
LINE
8
0
10
110.031255
20
4.161252
11
110.078262
21
4.060826
0
LINE
8
0
10
110.078262
20
4.060826
11
110.125271
21
3.967877
0
LINE
8
0
10
110.125271
20
3.967877
11
110.172278
21
3.881872
0
LINE
8
0
10
110.172278
20
3.881872
11
110.219288
21
3.802814
0
LINE
8
0
10
110.219288
20
3.802814
11
110.266298
21
3.731234
0
LINE
8
0
10
110.266298
20
3.731234
11
110.313838
21
3.666596
0
LINE
8
0
10
110.313838
20
3.666596
11
110.360848
21
3.609438
0
LINE
8
0
10
110.360848
20
3.609438
11
110.407857
21
3.559225
0
LINE
8
0
10
110.408000
20
3.559220
11
110.450734
21
3.516483
0
LINE
8
0
10
110.450734
20
3.516483
11
110.484386
21
3.481228
0
LINE
8
0
10
110.484386
20
3.481228
11
110.508432
21
3.453457
0
LINE
8
0
10
110.508432
20
3.453457
11
110.523389
21
3.433165
0
LINE
8
0
10
110.523389
20
3.433165
11
110.538883
21
3.395771
0
LINE
8
0
10
110.538883
20
3.395771
11
110.544217
21
3.347695
0
LINE
8
0
10
110.544000
20
3.347680
11
110.539710
21
3.300137
0
LINE
8
0
10
110.539710
20
3.300137
11
110.525825
21
3.256869
0
LINE
8
0
10
110.525825
20
3.256869
11
110.503388
21
3.217339
0
LINE
8
0
10
110.503388
20
3.217339
11
110.471336
21
3.181547
0
LINE
8
0
10
110.471336
20
3.181547
11
110.433409
21
3.152168
0
LINE
8
0
10
110.433409
20
3.152168
11
110.392275
21
3.131340
0
LINE
8
0
10
110.392275
20
3.131340
11
110.347404
21
3.118527
0
LINE
8
0
10
110.347404
20
3.118527
11
110.299328
21
3.114265
0
LINE
8
0
10
110.300000
20
3.114240
11
110.265812
21
3.116780
0
LINE
8
0
10
110.265812
20
3.116780
11
110.231090
21
3.123723
0
LINE
8
0
10
110.231090
20
3.123723
11
110.196368
21
3.135999
0
LINE
8
0
10
110.196368
20
3.135999
11
110.161646
21
3.153638
0
LINE
8
0
10
110.161646
20
3.153638
11
110.126388
21
3.175539
0
LINE
8
0
10
110.126388
20
3.175539
11
110.091133
21
3.202773
0
LINE
8
0
10
110.091133
20
3.202773
11
110.055875
21
3.234822
0
LINE
8
0
10
110.055875
20
3.234822
11
110.020086
21
3.271683
0
LINE
8
0
10
110.020086
20
3.271683
11
109.950107
21
3.358221
0
LINE
8
0
10
109.950107
20
3.358221
11
109.882266
21
3.459183
0
LINE
8
0
10
109.882266
20
3.459183
11
109.816026
21
3.575100
0
LINE
8
0
10
109.816026
20
3.575100
11
109.751922
21
3.705978
0
LINE
8
0
10
109.751922
20
3.705978
11
109.722543
21
3.771149
0
LINE
8
0
10
109.722543
20
3.771149
11
109.696917
21
3.829374
0
LINE
8
0
10
109.696917
20
3.829374
11
109.675553
21
3.879587
0
LINE
8
0
10
109.675553
20
3.879587
11
109.657914
21
3.922324
0
LINE
8
0
10
109.657914
20
3.922324
11
109.644028
21
3.957045
0
LINE
8
0
10
109.644028
20
3.957045
11
109.634405
21
3.984816
0
LINE
8
0
10
109.634405
20
3.984816
11
109.628534
21
4.004571
0
LINE
8
0
10
109.628534
20
4.004571
11
109.626277
21
4.016848
0
LINE
8
0
10
109.626000
20
4.017020
11
109.623742
21
4.022354
0
LINE
8
0
10
109.623742
20
4.022354
11
109.616800
21
4.024047
0
LINE
8
0
10
109.617000
20
4.023970
11
109.588688
21
4.022841
0
LINE
8
0
10
109.588688
20
4.022841
11
109.552896
21
4.019624
0
LINE
8
0
10
109.552896
20
4.019624
11
109.510162
21
4.014290
0
LINE
8
0
10
109.510162
20
4.014290
11
109.459416
21
4.006811
0
LINE
8
0
10
109.459416
20
4.006811
11
109.401188
21
3.997187
0
LINE
8
0
10
109.401188
20
3.997187
11
109.335484
21
3.985447
0
LINE
8
0
10
109.335484
20
3.985447
11
109.262301
21
3.971561
0
LINE
8
0
10
109.262301
20
3.971561
11
109.181639
21
3.955531
0
LINE
8
0
10
109.181639
20
3.955531
11
109.021382
21
3.921876
0
LINE
8
0
10
109.021382
20
3.921876
11
108.877150
21
3.888757
0
LINE
8
0
10
108.877150
20
3.888757
11
108.750015
21
3.855639
0
LINE
8
0
10
108.750015
20
3.855639
11
108.639438
21
3.823053
0
LINE
8
0
10
108.639000
20
3.823110
11
108.589854
21
3.811370
0
LINE
8
0
10
108.589854
20
3.811370
11
108.546586
21
3.807080
0
LINE
8
0
10
108.547000
20
3.807090
11
108.513878
21
3.809348
0
LINE
8
0
10
108.513878
20
3.809348
11
108.484499
21
3.815218
0
LINE
8
0
10
108.484499
20
3.815218
11
108.459381
21
3.825378
0
LINE
8
0
10
108.459381
20
3.825378
11
108.438553
21
3.839263
0
LINE
8
0
10
105.544000
20
-104.603000
11
105.650330
21
-104.596678
0
LINE
8
0
10
105.650330
20
-104.596678
11
105.754549
21
-104.578531
0
LINE
8
0
10
105.754549
20
-104.578531
11
105.856660
21
-104.547730
0
LINE
8
0
10
105.856660
20
-104.547730
11
105.956660
21
-104.504694
0
LINE
8
0
10
105.956660
20
-104.504694
11
106.054128
21
-104.449418
0
LINE
8
0
10
106.054128
20
-104.449418
11
106.149908
21
-104.381907
0
LINE
8
0
10
106.149908
20
-104.381907
11
106.243157
21
-104.301739
0
LINE
8
0
10
106.243157
20
-104.301739
11
106.334295
21
-104.209755
0
LINE
8
0
10
106.334295
20
-104.209755
11
106.418685
21
-104.110602
0
LINE
8
0
10
106.418685
20
-104.110602
11
106.492103
21
-104.009756
0
LINE
8
0
10
106.492103
20
-104.009756
11
106.553706
21
-103.907648
0
LINE
8
0
10
106.553706
20
-103.907648
11
106.604760
21
-103.803850
0
LINE
8
0
10
106.604760
20
-103.803850
11
106.644000
21
-103.698787
0
LINE
8
0
10
106.644000
20
-103.698787
11
106.672270
21
-103.592037
0
LINE
8
0
10
106.672270
20
-103.592037
11
106.689147
21
-103.484019
0
LINE
8
0
10
106.689147
20
-103.484019
11
106.694622
21
-103.374314
0
LINE
8
0
10
106.695000
20
-103.375000
11
106.690795
21
-103.295255
0
LINE
8
0
10
106.690795
20
-103.295255
11
106.678546
21
-103.224370
0
LINE
8
0
10
106.678546
20
-103.224370
11
106.657860
21
-103.162766
0
LINE
8
0
10
106.657860
20
-103.162766
11
106.628746
21
-103.109601
0
LINE
8
0
10
106.628746
20
-103.109601
11
106.590773
21
-103.062767
0
LINE
8
0
10
106.590773
20
-103.062767
11
106.542247
21
-103.019728
0
LINE
8
0
10
106.542247
20
-103.019728
11
106.484022
21
-102.980064
0
LINE
8
0
10
106.484022
20
-102.980064
11
106.415665
21
-102.944199
0
LINE
8
0
10
106.415665
20
-102.944199
11
106.340140
21
-102.914241
0
LINE
8
0
10
106.340140
20
-102.914241
11
106.260392
21
-102.892736
0
LINE
8
0
10
106.260392
20
-102.892736
11
106.176005
21
-102.879669
0
LINE
8
0
10
106.176005
20
-102.879669
11
106.086975
21
-102.875464
0
LINE
8
0
10
106.087000
20
-102.875000
11
106.007253
21
-102.881745
0
LINE
8
0
10
106.007253
20
-102.881745
11
105.927505
21
-102.902009
0
LINE
8
0
10
105.927505
20
-102.902009
11
105.847760
21
-102.935342
0
LINE
8
0
10
105.847760
20
-102.935342
11
105.768013
21
-102.982600
0
LINE
8
0
10
105.768013
20
-102.982600
11
105.687845
21
-103.042936
0
LINE
8
0
10
105.687845
20
-103.042936
11
105.608097
21
-103.117197
0
LINE
8
0
10
105.608097
20
-103.117197
11
105.527929
21
-103.204539
0
LINE
8
0
10
105.527929
20
-103.204539
11
105.448182
21
-103.305383
0
LINE
8
0
10
105.448182
20
-103.305383
11
105.373498
21
-103.412557
0
LINE
8
0
10
105.373498
20
-103.412557
11
105.308519
21
-103.518887
0
LINE
8
0
10
105.308519
20
-103.518887
11
105.253666
21
-103.623950
0
LINE
8
0
10
105.253666
20
-103.623950
11
105.208519
21
-103.728589
0
LINE
8
0
10
105.208519
20
-103.728589
11
105.173498
21
-103.831967
0
LINE
8
0
10
105.173498
20
-103.831967
11
105.148606
21
-103.934919
0
LINE
8
0
10
105.148606
20
-103.934919
11
105.133846
21
-104.036606
0
LINE
8
0
10
105.133846
20
-104.036606
11
105.128794
21
-104.137450
0
LINE
8
0
10
105.129000
20
-104.138000
11
105.130976
21
-104.186102
0
LINE
8
0
10
105.130976
20
-104.186102
11
105.136874
21
-104.232516
0
LINE
8
0
10
105.136874
20
-104.232516
11
105.146582
21
-104.276819
0
LINE
8
0
10
105.146582
20
-104.276819
11
105.160073
21
-104.319435
0
LINE
8
0
10
105.160073
20
-104.319435
11
105.177796
21
-104.359942
0
LINE
8
0
10
105.177796
20
-104.359942
11
105.199330
21
-104.398338
0
LINE
8
0
10
105.199330
20
-104.398338
11
105.224645
21
-104.435047
0
LINE
8
0
10
105.224645
20
-104.435047
11
105.254182
21
-104.469647
0
LINE
8
0
10
105.254182
20
-104.469647
11
105.286248
21
-104.501293
0
LINE
8
0
10
105.286248
20
-104.501293
11
105.319161
21
-104.528302
0
LINE
8
0
10
105.319161
20
-104.528302
11
105.353759
21
-104.551500
0
LINE
8
0
10
105.353759
20
-104.551500
11
105.389624
21
-104.570070
0
LINE
8
0
10
105.389624
20
-104.570070
11
105.426335
21
-104.584831
0
LINE
8
0
10
105.426335
20
-104.584831
11
105.464308
21
-104.595386
0
LINE
8
0
10
105.464308
20
-104.595386
11
105.503971
21
-104.601707
0
LINE
8
0
10
105.503971
20
-104.601707
11
105.544476
21
-104.603683
0
LINE
8
0
10
105.445000
20
-104.846000
11
105.388460
21
-104.842613
0
LINE
8
0
10
105.388460
20
-104.842613
11
105.333607
21
-104.831635
0
LINE
8
0
10
105.333607
20
-104.831635
11
105.280442
21
-104.814335
0
LINE
8
0
10
105.280442
20
-104.814335
11
105.228544
21
-104.789443
0
LINE
8
0
10
105.228544
20
-104.789443
11
105.178334
21
-104.757797
0
LINE
8
0
10
105.178334
20
-104.757797
11
105.129809
21
-104.718554
0
LINE
8
0
10
105.129809
20
-104.718554
11
105.082974
21
-104.672987
0
LINE
8
0
10
105.082974
20
-104.672987
11
105.037404
21
-104.619822
0
LINE
8
0
10
105.037404
20
-104.619822
11
104.995632
21
-104.562861
0
LINE
8
0
10
104.995632
20
-104.562861
11
104.959347
21
-104.505476
0
LINE
8
0
10
104.959347
20
-104.505476
11
104.928545
21
-104.447669
0
LINE
8
0
10
104.928545
20
-104.447669
11
104.903653
21
-104.389020
0
LINE
8
0
10
104.903653
20
-104.389020
11
104.883813
21
-104.329948
0
LINE
8
0
10
104.883813
20
-104.329948
11
104.869899
21
-104.270456
0
LINE
8
0
10
104.869899
20
-104.270456
11
104.861884
21
-104.210540
0
LINE
8
0
10
104.861884
20
-104.210540
11
104.858921
21
-104.149781
0
LINE
8
0
10
106.085000
20
-102.659000
11
106.197657
21
-102.662810
0
LINE
8
0
10
106.197657
20
-102.662810
11
106.300188
21
-102.673365
0
LINE
8
0
10
106.300188
20
-102.673365
11
106.393016
21
-102.691512
0
LINE
8
0
10
106.393016
20
-102.691512
11
106.476136
21
-102.716827
0
LINE
8
0
10
106.476136
20
-102.716827
11
106.552088
21
-102.748893
0
LINE
8
0
10
106.552088
20
-102.748893
11
106.624238
21
-102.786869
0
LINE
8
0
10
106.624238
20
-102.786869
11
106.692592
21
-102.831593
0
LINE
8
0
10
106.692592
20
-102.831593
11
106.756727
21
-102.882650
0
LINE
8
0
10
106.756727
20
-102.882650
11
106.814111
21
-102.937079
0
LINE
8
0
10
106.814111
20
-102.937079
11
106.860949
21
-102.991932
0
LINE
8
0
10
106.860949
20
-102.991932
11
106.897234
21
-103.048049
0
LINE
8
0
10
106.897234
20
-103.048049
11
106.922973
21
-103.104589
0
LINE
8
0
10
106.922973
20
-103.104589
11
106.932681
21
-103.134547
0
LINE
8
0
10
106.932681
20
-103.134547
11
106.941120
21
-103.167036
0
LINE
8
0
10
106.941120
20
-103.167036
11
106.948288
21
-103.202901
0
LINE
8
0
10
106.948288
20
-103.202901
11
106.954187
21
-103.241298
0
LINE
8
0
10
106.954187
20
-103.241298
11
106.958815
21
-103.282649
0
LINE
8
0
10
106.958815
20
-103.282649
11
106.962202
21
-103.326531
0
LINE
8
0
10
106.962202
20
-103.326531
11
106.963895
21
-103.373787
0
LINE
8
0
10
106.963895
20
-103.373787
11
106.964742
21
-103.423576
0
LINE
8
0
10
106.965000
20
-103.424000
11
106.963307
21
-103.473369
0
LINE
8
0
10
106.963307
20
-103.473369
11
106.957832
21
-103.524844
0
LINE
8
0
10
106.957832
20
-103.524844
11
106.948546
21
-103.578432
0
LINE
8
0
10
106.948546
20
-103.578432
11
106.935480
21
-103.634128
0
LINE
8
0
10
106.935480
20
-103.634128
11
106.919026
21
-103.691933
0
LINE
8
0
10
106.919026
20
-103.691933
11
106.898763
21
-103.751426
0
LINE
8
0
10
106.898763
20
-103.751426
11
106.874717
21
-103.813452
0
LINE
8
0
10
106.874717
20
-103.813452
11
106.847285
21
-103.877164
0
LINE
8
0
10
106.847285
20
-103.877164
11
106.816060
21
-103.941722
0
LINE
8
0
10
106.816060
20
-103.941722
11
106.780619
21
-104.005857
0
LINE
8
0
10
106.780619
20
-104.005857
11
106.740955
21
-104.069569
0
LINE
8
0
10
106.740955
20
-104.069569
11
106.697073
21
-104.132860
0
LINE
8
0
10
106.697073
20
-104.132860
11
106.649394
21
-104.196151
0
LINE
8
0
10
106.649394
20
-104.196151
11
106.597496
21
-104.258598
0
LINE
8
0
10
106.597496
20
-104.258598
11
106.541379
21
-104.321046
0
LINE
8
0
10
106.541379
20
-104.321046
11
106.481461
21
-104.382649
0
LINE
8
0
10
106.481461
20
-104.382649
11
106.419860
21
-104.442144
0
LINE
8
0
10
106.419860
20
-104.442144
11
106.358677
21
-104.497417
0
LINE
8
0
10
106.358677
20
-104.497417
11
106.298761
21
-104.548051
0
LINE
8
0
10
106.298761
20
-104.548051
11
106.239690
21
-104.594465
0
LINE
8
0
10
106.239690
20
-104.594465
11
106.181041
21
-104.637080
0
LINE
8
0
10
106.181041
20
-104.637080
11
106.123233
21
-104.675053
0
LINE
8
0
10
106.123233
20
-104.675053
11
106.066693
21
-104.708387
0
LINE
8
0
10
106.066693
20
-104.708387
11
106.010576
21
-104.737924
0
LINE
8
0
10
106.010576
20
-104.737924
11
105.953192
21
-104.763239
0
LINE
8
0
10
105.953192
20
-104.763239
11
105.892012
21
-104.785591
0
LINE
8
0
10
105.892012
20
-104.785591
11
105.827033
21
-104.804162
0
LINE
8
0
10
105.827033
20
-104.804162
11
105.758255
21
-104.819345
0
LINE
8
0
10
105.758255
20
-104.819345
11
105.685682
21
-104.831565
0
LINE
8
0
10
105.685682
20
-104.831565
11
105.608889
21
-104.840004
0
LINE
8
0
10
105.608889
20
-104.840004
11
105.528721
21
-104.845084
0
LINE
8
0
10
105.528721
20
-104.845084
11
105.444755
21
-104.846777
0
LINE
8
0
10
104.858000
20
-104.150000
11
104.860963
21
-104.076580
0
LINE
8
0
10
104.860963
20
-104.076580
11
104.868978
21
-104.001054
0
LINE
8
0
10
104.868978
20
-104.001054
11
104.882892
21
-103.922574
0
LINE
8
0
10
104.882892
20
-103.922574
11
104.901885
21
-103.841983
0
LINE
8
0
10
104.901885
20
-103.841983
11
104.926777
21
-103.758440
0
LINE
8
0
10
104.926777
20
-103.758440
11
104.957156
21
-103.672785
0
LINE
8
0
10
104.957156
20
-103.672785
11
104.992600
21
-103.584176
0
LINE
8
0
10
104.992600
20
-103.584176
11
105.033948
21
-103.493459
0
LINE
8
0
10
105.033948
20
-103.493459
11
105.079519
21
-103.403585
0
LINE
8
0
10
105.079519
20
-103.403585
11
105.128885
21
-103.317510
0
LINE
8
0
10
105.128885
20
-103.317510
11
105.181206
21
-103.236075
0
LINE
8
0
10
105.181206
20
-103.236075
11
105.237323
21
-103.158438
0
LINE
8
0
10
105.237323
20
-103.158438
11
105.296395
21
-103.085442
0
LINE
8
0
10
105.296395
20
-103.085442
11
105.358842
21
-103.016667
0
LINE
8
0
10
105.358842
20
-103.016667
11
105.424665
21
-102.952109
0
LINE
8
0
10
105.424665
20
-102.952109
11
105.493863
21
-102.891773
0
LINE
8
0
10
105.493863
20
-102.891773
11
105.565172
21
-102.837343
0
LINE
8
0
10
105.565172
20
-102.837343
11
105.637325
21
-102.789662
0
LINE
8
0
10
105.637325
20
-102.789662
11
105.709898
21
-102.750001
0
LINE
8
0
10
105.709898
20
-102.750001
11
105.783739
21
-102.717088
0
LINE
8
0
10
105.783739
20
-102.717088
11
105.857577
21
-102.691773
0
LINE
8
0
10
105.857577
20
-102.691773
11
105.932682
21
-102.673203
0
LINE
8
0
10
105.932682
20
-102.673203
11
106.008210
21
-102.662648
0
LINE
8
0
10
106.008210
20
-102.662648
11
106.084582
21
-102.658838
0
LINE
8
0
10
107.084000
20
-63.639400
11
107.108892
21
-63.643605
0
LINE
8
0
10
107.108892
20
-63.643605
11
107.126615
21
-63.656672
0
LINE
8
0
10
107.126615
20
-63.656672
11
107.137171
21
-63.678177
0
LINE
8
0
10
107.137171
20
-63.678177
11
107.140557
21
-63.708559
0
LINE
8
0
10
107.140000
20
-63.708600
11
107.137460
21
-63.727593
0
LINE
8
0
10
107.137460
20
-63.727593
11
107.129868
21
-63.748280
0
LINE
8
0
10
107.129868
20
-63.748280
11
107.117225
21
-63.771056
0
LINE
8
0
10
107.117225
20
-63.771056
11
107.099925
21
-63.795948
0
LINE
8
0
10
107.099925
20
-63.795948
11
107.077149
21
-63.822533
0
LINE
8
0
10
107.077149
20
-63.822533
11
107.049717
21
-63.851227
0
LINE
8
0
10
107.049717
20
-63.851227
11
107.016807
21
-63.882028
0
LINE
8
0
10
107.016807
20
-63.882028
11
106.979255
21
-63.914518
0
LINE
8
0
10
106.979255
20
-63.914518
11
106.896132
21
-63.977809
0
LINE
8
0
10
106.896132
20
-63.977809
11
106.806258
21
-64.034770
0
LINE
8
0
10
106.806258
20
-64.034770
11
106.710478
21
-64.084559
0
LINE
8
0
10
106.710478
20
-64.084559
11
106.608367
21
-64.127598
0
LINE
8
0
10
106.608367
20
-64.127598
11
106.505415
21
-64.162196
0
LINE
8
0
10
106.505415
20
-64.162196
11
106.407103
21
-64.186664
0
LINE
8
0
10
106.407103
20
-64.186664
11
106.313010
21
-64.201425
0
LINE
8
0
10
106.313010
20
-64.201425
11
106.223557
21
-64.206505
0
LINE
8
0
10
106.224000
20
-64.206500
11
106.160709
21
-64.203960
0
LINE
8
0
10
106.160709
20
-64.203960
11
106.098685
21
-64.196368
0
LINE
8
0
10
106.098685
20
-64.196368
11
106.038349
21
-64.183301
0
LINE
8
0
10
106.038349
20
-64.183301
11
105.979277
21
-64.165154
0
LINE
8
0
10
105.979277
20
-64.165154
11
105.921469
21
-64.141956
0
LINE
8
0
10
105.921469
20
-64.141956
11
105.865352
21
-64.113686
0
LINE
8
0
10
105.865352
20
-64.113686
11
105.810500
21
-64.080352
0
LINE
8
0
10
105.810500
20
-64.080352
11
105.757335
21
-64.041533
0
LINE
8
0
10
105.757335
20
-64.041533
11
105.707968
21
-63.998073
0
LINE
8
0
10
105.707968
20
-63.998073
11
105.665353
21
-63.949974
0
LINE
8
0
10
105.665353
20
-63.949974
11
105.629488
21
-63.896809
0
LINE
8
0
10
105.629488
20
-63.896809
11
105.599951
21
-63.839425
0
LINE
8
0
10
105.599951
20
-63.839425
11
105.576752
21
-63.777398
0
LINE
8
0
10
105.576752
20
-63.777398
11
105.560299
21
-63.710732
0
LINE
8
0
10
105.560299
20
-63.710732
11
105.550590
21
-63.639426
0
LINE
8
0
10
105.550590
20
-63.639426
11
105.547204
21
-63.563474
0
LINE
8
0
10
105.547000
20
-63.563500
11
105.548976
21
-63.492194
0
LINE
8
0
10
105.548976
20
-63.492194
11
105.554874
21
-63.421308
0
LINE
8
0
10
105.554874
20
-63.421308
11
105.564582
21
-63.350422
0
LINE
8
0
10
105.564582
20
-63.350422
11
105.578496
21
-63.279957
0
LINE
8
0
10
105.578496
20
-63.279957
11
105.596219
21
-63.209492
0
LINE
8
0
10
105.596219
20
-63.209492
11
105.617753
21
-63.139450
0
LINE
8
0
10
105.617753
20
-63.139450
11
105.643492
21
-63.069832
0
LINE
8
0
10
105.643492
20
-63.069832
11
105.673026
21
-63.000210
0
LINE
8
0
10
105.673026
20
-63.000210
11
105.706359
21
-62.931012
0
LINE
8
0
10
105.706359
20
-62.931012
11
105.743912
21
-62.861814
0
LINE
8
0
10
105.743912
20
-62.861814
11
105.785263
21
-62.793037
0
LINE
8
0
10
105.785263
20
-62.793037
11
105.830833
21
-62.724262
0
LINE
8
0
10
105.830833
20
-62.724262
11
105.880200
21
-62.655908
0
LINE
8
0
10
105.880200
20
-62.655908
11
105.933365
21
-62.587554
0
LINE
8
0
10
105.933365
20
-62.587554
11
105.990326
21
-62.519620
0
LINE
8
0
10
105.990326
20
-62.519620
11
106.051508
21
-62.452110
0
LINE
8
0
10
106.051508
20
-62.452110
11
106.114376
21
-62.386710
0
LINE
8
0
10
106.114376
20
-62.386710
11
106.177247
21
-62.325527
0
LINE
8
0
10
106.177247
20
-62.325527
11
106.239694
21
-62.268143
0
LINE
8
0
10
106.239694
20
-62.268143
11
106.301718
21
-62.215402
0
LINE
8
0
10
106.301718
20
-62.215402
11
106.363745
21
-62.166876
0
LINE
8
0
10
106.363745
20
-62.166876
11
106.425348
21
-62.122573
0
LINE
8
0
10
106.425348
20
-62.122573
11
106.486528
21
-62.082489
0
LINE
8
0
10
106.486528
20
-62.082489
11
106.547288
21
-62.046204
0
LINE
8
0
10
106.547288
20
-62.046204
11
106.608048
21
-62.014558
0
LINE
8
0
10
106.608048
20
-62.014558
11
106.668384
21
-61.987126
0
LINE
8
0
10
106.668384
20
-61.987126
11
106.728723
21
-61.963928
0
LINE
8
0
10
106.728723
20
-61.963928
11
106.788639
21
-61.944934
0
LINE
8
0
10
106.788639
20
-61.944934
11
106.848131
21
-61.930174
0
LINE
8
0
10
106.848131
20
-61.930174
11
106.907203
21
-61.919619
0
LINE
8
0
10
106.907203
20
-61.919619
11
106.966275
21
-61.913297
0
LINE
8
0
10
106.966275
20
-61.913297
11
107.024926
21
-61.911322
0
LINE
8
0
10
107.025000
20
-61.911200
11
107.067616
21
-61.912893
0
LINE
8
0
10
107.067616
20
-61.912893
11
107.108120
21
-61.917522
0
LINE
8
0
10
107.108120
20
-61.917522
11
107.146519
21
-61.925960
0
LINE
8
0
10
107.146519
20
-61.925960
11
107.182804
21
-61.937362
0
LINE
8
0
10
107.182804
20
-61.937362
11
107.216561
21
-61.952122
0
LINE
8
0
10
107.216561
20
-61.952122
11
107.248207
21
-61.969846
0
LINE
8
0
10
107.248207
20
-61.969846
11
107.277741
21
-61.991351
0
LINE
8
0
10
107.277741
20
-61.991351
11
107.305173
21
-62.015820
0
LINE
8
0
10
107.305173
20
-62.015820
11
107.329642
21
-62.042405
0
LINE
8
0
10
107.329642
20
-62.042405
11
107.351175
21
-62.070260
0
LINE
8
0
10
107.351175
20
-62.070260
11
107.369322
21
-62.099371
0
LINE
8
0
10
107.369322
20
-62.099371
11
107.384082
21
-62.128909
0
LINE
8
0
10
107.384082
20
-62.128909
11
107.395484
21
-62.160131
0
LINE
8
0
10
107.395484
20
-62.160131
11
107.403499
21
-62.192200
0
LINE
8
0
10
107.403499
20
-62.192200
11
107.408551
21
-62.225533
0
LINE
8
0
10
107.408551
20
-62.225533
11
107.410244
21
-62.259710
0
LINE
8
0
10
107.410000
20
-62.259700
11
107.409153
21
-62.320880
0
LINE
8
0
10
107.409153
20
-62.320880
11
107.406190
21
-62.375312
0
LINE
8
0
10
107.406190
20
-62.375312
11
107.401138
21
-62.422570
0
LINE
8
0
10
107.401138
20
-62.422570
11
107.393970
21
-62.463498
0
LINE
8
0
10
107.393970
20
-62.463498
11
107.382145
21
-62.499363
0
LINE
8
0
10
107.382145
20
-62.499363
11
107.362304
21
-62.531852
0
LINE
8
0
10
107.362304
20
-62.531852
11
107.334449
21
-62.562231
0
LINE
8
0
10
107.334449
20
-62.562231
11
107.298584
21
-62.589239
0
LINE
8
0
10
107.298584
20
-62.589239
11
107.261032
21
-62.611591
0
LINE
8
0
10
107.261032
20
-62.611591
11
107.227278
21
-62.627622
0
LINE
8
0
10
107.227278
20
-62.627622
11
107.197320
21
-62.636907
0
LINE
8
0
10
107.197320
20
-62.636907
11
107.171582
21
-62.640293
0
LINE
8
0
10
107.172000
20
-62.640300
11
107.155123
21
-62.638607
0
LINE
8
0
10
107.155123
20
-62.638607
11
107.139516
21
-62.633132
0
LINE
8
0
10
107.139516
20
-62.633132
11
107.125179
21
-62.624270
0
LINE
8
0
10
107.125179
20
-62.624270
11
107.111689
21
-62.612021
0
LINE
8
0
10
107.111689
20
-62.612021
11
107.100711
21
-62.596414
0
LINE
8
0
10
107.100711
20
-62.596414
11
107.092696
21
-62.578268
0
LINE
8
0
10
107.092696
20
-62.578268
11
107.088039
21
-62.558004
0
LINE
8
0
10
107.088039
20
-62.558004
11
107.086346
21
-62.534805
0
LINE
8
0
10
107.086000
20
-62.534800
11
107.087693
21
-62.513690
0
LINE
8
0
10
107.087693
20
-62.513690
11
107.092745
21
-62.484152
0
LINE
8
0
10
107.092745
20
-62.484152
11
107.101184
21
-62.445336
0
LINE
8
0
10
107.101184
20
-62.445336
11
107.113009
21
-62.398077
0
LINE
8
0
10
107.113000
20
-62.398100
11
107.124825
21
-62.349998
0
LINE
8
0
10
107.124825
20
-62.349998
11
107.133264
21
-62.308650
0
LINE
8
0
10
107.133264
20
-62.308650
11
107.138315
21
-62.273629
0
LINE
8
0
10
107.138315
20
-62.273629
11
107.140009
21
-62.245359
0
LINE
8
0
10
107.140000
20
-62.245300
11
107.138024
21
-62.211123
0
LINE
8
0
10
107.138024
20
-62.211123
11
107.132126
21
-62.181585
0
LINE
8
0
10
107.132126
20
-62.181585
11
107.121994
21
-62.156693
0
LINE
8
0
10
107.121994
20
-62.156693
11
107.108081
21
-62.136430
0
LINE
8
0
10
107.108081
20
-62.136430
11
107.089934
21
-62.120400
0
LINE
8
0
10
107.089934
20
-62.120400
11
107.067977
21
-62.108998
0
LINE
8
0
10
107.067977
20
-62.108998
11
107.041815
21
-62.102253
0
LINE
8
0
10
107.041815
20
-62.102253
11
107.011857
21
-62.100277
0
LINE
8
0
10
107.012000
20
-62.100200
11
106.960946
21
-62.103587
0
LINE
8
0
10
106.960946
20
-62.103587
11
106.906514
21
-62.114142
0
LINE
8
0
10
106.906514
20
-62.114142
11
106.849553
21
-62.131865
0
LINE
8
0
10
106.849553
20
-62.131865
11
106.789637
21
-62.156757
0
LINE
8
0
10
106.789637
20
-62.156757
11
106.726346
21
-62.188403
0
LINE
8
0
10
106.726346
20
-62.188403
11
106.660523
21
-62.227222
0
LINE
8
0
10
106.660523
20
-62.227222
11
106.591325
21
-62.273213
0
LINE
8
0
10
106.591325
20
-62.273213
11
106.519596
21
-62.325955
0
LINE
8
0
10
106.519596
20
-62.325955
11
106.447864
21
-62.384183
0
LINE
8
0
10
106.447864
20
-62.384183
11
106.378666
21
-62.446210
0
LINE
8
0
10
106.378666
20
-62.446210
11
106.311999
21
-62.512453
0
LINE
8
0
10
106.311999
20
-62.512453
11
106.248708
21
-62.582074
0
LINE
8
0
10
106.248708
20
-62.582074
11
106.187528
21
-62.655491
0
LINE
8
0
10
106.187528
20
-62.655491
11
106.129720
21
-62.732707
0
LINE
8
0
10
106.129720
20
-62.732707
11
106.074447
21
-62.813719
0
LINE
8
0
10
106.074447
20
-62.813719
11
106.021706
21
-62.898530
0
LINE
8
0
10
106.021706
20
-62.898530
11
105.973604
21
-62.984184
0
LINE
8
0
10
105.973604
20
-62.984184
11
105.932252
21
-63.068571
0
LINE
8
0
10
105.932252
20
-63.068571
11
105.896811
21
-63.150850
0
LINE
8
0
10
105.896811
20
-63.150850
11
105.868118
21
-63.231441
0
LINE
8
0
10
105.868118
20
-63.231441
11
105.845766
21
-63.310766
0
LINE
8
0
10
105.845766
20
-63.310766
11
105.829735
21
-63.387981
0
LINE
8
0
10
105.829735
20
-63.387981
11
105.820450
21
-63.463507
0
LINE
8
0
10
105.820450
20
-63.463507
11
105.817064
21
-63.537347
0
LINE
8
0
10
105.817000
20
-63.537300
11
105.818693
21
-63.584979
0
LINE
8
0
10
105.818693
20
-63.584979
11
105.824168
21
-63.630972
0
LINE
8
0
10
105.824168
20
-63.630972
11
105.833454
21
-63.674432
0
LINE
8
0
10
105.833454
20
-63.674432
11
105.846520
21
-63.716203
0
LINE
8
0
10
105.846520
20
-63.716203
11
105.862974
21
-63.755443
0
LINE
8
0
10
105.862974
20
-63.755443
11
105.883237
21
-63.792996
0
LINE
8
0
10
105.883237
20
-63.792996
11
105.907283
21
-63.828440
0
LINE
8
0
10
105.907283
20
-63.828440
11
105.934715
21
-63.861773
0
LINE
8
0
10
105.934715
20
-63.861773
11
105.965516
21
-63.891731
0
LINE
8
0
10
105.965516
20
-63.891731
11
105.999694
21
-63.917893
0
LINE
8
0
10
105.999694
20
-63.917893
11
106.037249
21
-63.940245
0
LINE
8
0
10
106.037249
20
-63.940245
11
106.077753
21
-63.958392
0
LINE
8
0
10
106.077753
20
-63.958392
11
106.121213
21
-63.972306
0
LINE
8
0
10
106.121213
20
-63.972306
11
106.167627
21
-63.982438
0
LINE
8
0
10
106.167627
20
-63.982438
11
106.217417
21
-63.988336
0
LINE
8
0
10
106.217417
20
-63.988336
11
106.270582
21
-63.990312
0
LINE
8
0
10
106.271000
20
-63.990500
11
106.337243
21
-63.986295
0
LINE
8
0
10
106.337243
20
-63.986295
11
106.410240
21
-63.974046
0
LINE
8
0
10
106.410240
20
-63.974046
11
106.489987
21
-63.953783
0
LINE
8
0
10
106.489987
20
-63.953783
11
106.576483
21
-63.925092
0
LINE
8
0
10
106.576483
20
-63.925092
11
106.664669
21
-63.889227
0
LINE
8
0
10
106.664669
20
-63.889227
11
106.749059
21
-63.848297
0
LINE
8
0
10
106.749059
20
-63.848297
11
106.829647
21
-63.801462
0
LINE
8
0
10
106.829647
20
-63.801462
11
106.906442
21
-63.749564
0
LINE
8
0
10
106.906000
20
-63.749600
11
106.941441
21
-63.723861
0
LINE
8
0
10
106.941441
20
-63.723861
11
106.973510
21
-63.701509
0
LINE
8
0
10
106.973510
20
-63.701509
11
107.001366
21
-63.682516
0
LINE
8
0
10
107.001366
20
-63.682516
11
107.025411
21
-63.666909
0
LINE
8
0
10
107.025411
20
-63.666909
11
107.045674
21
-63.655084
0
LINE
8
0
10
107.045674
20
-63.655084
11
107.062128
21
-63.646222
0
LINE
8
0
10
107.062128
20
-63.646222
11
107.074771
21
-63.641170
0
LINE
8
0
10
107.074771
20
-63.641170
11
107.083633
21
-63.639477
0
LINE
8
0
10
107.668000
20
-22.909200
11
107.638886
21
-22.964476
0
LINE
8
0
10
107.638886
20
-22.964476
11
107.611031
21
-23.016374
0
LINE
8
0
10
107.611031
20
-23.016374
11
107.584022
21
-23.065320
0
LINE
8
0
10
107.584022
20
-23.065320
11
107.559130
21
-23.111310
0
LINE
8
0
10
107.559130
20
-23.111310
11
107.535085
21
-23.154349
0
LINE
8
0
10
107.535085
20
-23.154349
11
107.512310
21
-23.194010
0
LINE
8
0
10
107.512310
20
-23.194010
11
107.491227
21
-23.231142
0
LINE
8
0
10
107.491227
20
-23.231142
11
107.470964
21
-23.264896
0
LINE
8
0
10
107.470964
20
-23.264896
11
107.452394
21
-23.295697
0
LINE
8
0
10
107.452394
20
-23.295697
11
107.435094
21
-23.323129
0
LINE
8
0
10
107.435094
20
-23.323129
11
107.419063
21
-23.348021
0
LINE
8
0
10
107.419063
20
-23.348021
11
107.404303
21
-23.369527
0
LINE
8
0
10
107.404303
20
-23.369527
11
107.390785
21
-23.388097
0
LINE
8
0
10
107.390785
20
-23.388097
11
107.378960
21
-23.403280
0
LINE
8
0
10
107.378960
20
-23.403280
11
107.367981
21
-23.415952
0
LINE
8
0
10
107.367981
20
-23.415952
11
107.358696
21
-23.425237
0
LINE
8
0
10
107.358696
20
-23.425237
11
107.325363
21
-23.452669
0
LINE
8
0
10
107.325363
20
-23.452669
11
107.294982
21
-23.472086
0
LINE
8
0
10
107.294982
20
-23.472086
11
107.267550
21
-23.483911
0
LINE
8
0
10
107.267550
20
-23.483911
11
107.243081
21
-23.487721
0
LINE
8
0
10
107.243000
20
-23.487600
11
107.203336
21
-23.485060
0
LINE
8
0
10
107.203336
20
-23.485060
11
107.168739
21
-23.477468
0
LINE
8
0
10
107.168739
20
-23.477468
11
107.139201
21
-23.464796
0
LINE
8
0
10
107.139201
20
-23.464796
11
107.115579
21
-23.447073
0
LINE
8
0
10
107.115579
20
-23.447073
11
107.097009
21
-23.424298
0
LINE
8
0
10
107.097009
20
-23.424298
11
107.083519
21
-23.396027
0
LINE
8
0
10
107.083519
20
-23.396027
11
107.075504
21
-23.363115
0
LINE
8
0
10
107.075504
20
-23.363115
11
107.072964
21
-23.325142
0
LINE
8
0
10
107.073000
20
-23.325200
11
107.074693
21
-23.287647
0
LINE
8
0
10
107.074693
20
-23.287647
11
107.079322
21
-23.242498
0
LINE
8
0
10
107.079322
20
-23.242498
11
107.086914
21
-23.190600
0
LINE
8
0
10
107.086914
20
-23.190600
11
107.097469
21
-23.131528
0
LINE
8
0
10
107.097000
20
-23.131500
11
107.116417
21
-23.023062
0
LINE
8
0
10
107.116417
20
-23.023062
11
107.133717
21
-22.913357
0
LINE
8
0
10
107.133717
20
-22.913357
11
107.148054
21
-22.801543
0
LINE
8
0
10
107.148054
20
-22.801543
11
107.159879
21
-22.688462
0
LINE
8
0
10
107.159879
20
-22.688462
11
107.168741
21
-22.573694
0
LINE
8
0
10
107.168741
20
-22.573694
11
107.175486
21
-22.457241
0
LINE
8
0
10
107.175486
20
-22.457241
11
107.179268
21
-22.339518
0
LINE
8
0
10
107.179268
20
-22.339518
11
107.180397
21
-22.219687
0
LINE
8
0
10
107.181000
20
-22.219700
11
107.183963
21
-22.191009
0
LINE
8
0
10
107.183963
20
-22.191009
11
107.192402
21
-22.160628
0
LINE
8
0
10
107.192402
20
-22.160628
11
107.206739
21
-22.128982
0
LINE
8
0
10
107.206739
20
-22.128982
11
107.227002
21
-22.095649
0
LINE
8
0
10
107.227002
20
-22.095649
11
107.249777
21
-22.065694
0
LINE
8
0
10
107.249777
20
-22.065694
11
107.272129
21
-22.044161
0
LINE
8
0
10
107.272129
20
-22.044161
11
107.293663
21
-22.031489
0
LINE
8
0
10
107.293663
20
-22.031489
11
107.314745
21
-22.027284
0
LINE
8
0
10
107.315000
20
-22.027300
11
107.349177
21
-22.030687
0
LINE
8
0
10
107.349177
20
-22.030687
11
107.378291
21
-22.040818
0
LINE
8
0
10
107.378291
20
-22.040818
11
107.401913
21
-22.057695
0
LINE
8
0
10
107.401913
20
-22.057695
11
107.420060
21
-22.081317
0
LINE
8
0
10
107.420060
20
-22.081317
11
107.433578
21
-22.113386
0
LINE
8
0
10
107.433578
20
-22.113386
11
107.443710
21
-22.156422
0
LINE
8
0
10
107.443710
20
-22.156422
11
107.449185
21
-22.209587
0
LINE
8
0
10
107.449185
20
-22.209587
11
107.451161
21
-22.273302
0
LINE
8
0
10
107.451000
20
-22.273300
11
107.449307
21
-22.314228
0
LINE
8
0
10
107.449307
20
-22.314228
11
107.444650
21
-22.364438
0
LINE
8
0
10
107.444650
20
-22.364438
11
107.436635
21
-22.423933
0
LINE
8
0
10
107.436635
20
-22.423933
11
107.425657
21
-22.493131
0
LINE
8
0
10
107.425657
20
-22.493131
11
107.411320
21
-22.572032
0
LINE
8
0
10
107.411320
20
-22.572032
11
107.394019
21
-22.660641
0
LINE
8
0
10
107.394019
20
-22.660641
11
107.373333
21
-22.758530
0
LINE
8
0
10
107.373333
20
-22.758530
11
107.349711
21
-22.865704
0
LINE
8
0
10
107.350000
20
-22.865700
11
107.341985
21
-22.901144
0
LINE
8
0
10
107.341985
20
-22.901144
11
107.335240
21
-22.932790
0
LINE
8
0
10
107.335240
20
-22.932790
11
107.329341
21
-22.961481
0
LINE
8
0
10
107.329341
20
-22.961481
11
107.324713
21
-22.986796
0
LINE
8
0
10
107.324713
20
-22.986796
11
107.320903
21
-23.008753
0
LINE
8
0
10
107.320903
20
-23.008753
11
107.318363
21
-23.026900
0
LINE
8
0
10
107.318363
20
-23.026900
11
107.316670
21
-23.042083
0
LINE
8
0
10
107.316670
20
-23.042083
11
107.316387
21
-23.053908
0
LINE
8
0
10
107.316000
20
-23.053900
11
107.316847
21
-23.064032
0
LINE
8
0
10
107.316847
20
-23.064032
11
107.318822
21
-23.070777
0
LINE
8
0
10
107.318822
20
-23.070777
11
107.322209
21
-23.075405
0
LINE
8
0
10
107.322209
20
-23.075405
11
107.327261
21
-23.076534
0
LINE
8
0
10
107.327000
20
-23.076700
11
107.335438
21
-23.071225
0
LINE
8
0
10
107.335438
20
-23.071225
11
107.349775
21
-23.055618
0
LINE
8
0
10
107.349775
20
-23.055618
11
107.369192
21
-23.029033
0
LINE
8
0
10
107.369192
20
-23.029033
11
107.393661
21
-22.991480
0
LINE
8
0
10
107.393661
20
-22.991480
11
107.424042
21
-22.943802
0
LINE
8
0
10
107.424042
20
-22.943802
11
107.459483
21
-22.885150
0
LINE
8
0
10
107.459483
20
-22.885150
11
107.500414
21
-22.815952
0
LINE
8
0
10
107.500414
20
-22.815952
11
107.546826
21
-22.736205
0
LINE
8
0
10
107.547000
20
-22.736200
11
107.591303
21
-22.653080
0
LINE
8
0
10
107.591303
20
-22.653080
11
107.633921
21
-22.575864
0
LINE
8
0
10
107.633921
20
-22.575864
11
107.675693
21
-22.505399
0
LINE
8
0
10
107.675693
20
-22.505399
11
107.715777
21
-22.441264
0
LINE
8
0
10
107.715777
20
-22.441264
11
107.754173
21
-22.383880
0
LINE
8
0
10
107.754173
20
-22.383880
11
107.791305
21
-22.332405
0
LINE
8
0
10
107.791305
20
-22.332405
11
107.827170
21
-22.287679
0
LINE
8
0
10
107.827170
20
-22.287679
11
107.861768
21
-22.249282
0
LINE
8
0
10
107.861768
20
-22.249282
11
107.895945
21
-22.216370
0
LINE
8
0
10
107.895945
20
-22.216370
11
107.930966
21
-22.187679
0
LINE
8
0
10
107.930966
20
-22.187679
11
107.966831
21
-22.163211
0
LINE
8
0
10
107.966831
20
-22.163211
11
108.003539
21
-22.143370
0
LINE
8
0
10
108.003539
20
-22.143370
11
108.041092
21
-22.128187
0
LINE
8
0
10
108.041092
20
-22.128187
11
108.079911
21
-22.117208
0
LINE
8
0
10
108.079911
20
-22.117208
11
108.119151
21
-22.110463
0
LINE
8
0
10
108.119151
20
-22.110463
11
108.159235
21
-22.108488
0
LINE
8
0
10
108.159000
20
-22.108300
11
108.190646
21
-22.109993
0
LINE
8
0
10
108.190646
20
-22.109993
11
108.220604
21
-22.115468
0
LINE
8
0
10
108.220604
20
-22.115468
11
108.249297
21
-22.124754
0
LINE
8
0
10
108.249297
20
-22.124754
11
108.276306
21
-22.137002
0
LINE
8
0
10
108.276306
20
-22.137002
11
108.302044
21
-22.153455
0
LINE
8
0
10
108.302044
20
-22.153455
11
108.326090
21
-22.173296
0
LINE
8
0
10
108.326090
20
-22.173296
11
108.348442
21
-22.196918
0
LINE
8
0
10
108.348442
20
-22.196918
11
108.369524
21
-22.223926
0
LINE
8
0
10
108.369524
20
-22.223926
11
108.389364
21
-22.255569
0
LINE
8
0
10
108.389364
20
-22.255569
11
108.407511
21
-22.293545
0
LINE
8
0
10
108.407511
20
-22.293545
11
108.424388
21
-22.337004
0
LINE
8
0
10
108.424388
20
-22.337004
11
108.439994
21
-22.386370
0
LINE
8
0
10
108.439994
20
-22.386370
11
108.453908
21
-22.442067
0
LINE
8
0
10
108.453908
20
-22.442067
11
108.466580
21
-22.503670
0
LINE
8
0
10
108.466580
20
-22.503670
11
108.477982
21
-22.570760
0
LINE
8
0
10
108.477982
20
-22.570760
11
108.488113
21
-22.644177
0
LINE
8
0
10
108.488000
20
-22.644200
11
108.498132
21
-22.726900
0
LINE
8
0
10
108.498132
20
-22.726900
11
108.507840
21
-22.801584
0
LINE
8
0
10
108.507840
20
-22.801584
11
108.517125
21
-22.867830
0
LINE
8
0
10
108.517125
20
-22.867830
11
108.526410
21
-22.926055
0
LINE
8
0
10
108.526410
20
-22.926055
11
108.535272
21
-22.975845
0
LINE
8
0
10
108.535272
20
-22.975845
11
108.544134
21
-23.017616
0
LINE
8
0
10
108.544134
20
-23.017616
11
108.552572
21
-23.051373
0
LINE
8
0
10
108.552572
20
-23.051373
11
108.560588
21
-23.076688
0
LINE
8
0
10
108.560588
20
-23.076688
11
108.579158
21
-23.113820
0
LINE
8
0
10
108.579158
20
-23.113820
11
108.602780
21
-23.140405
0
LINE
8
0
10
108.602780
20
-23.140405
11
108.630635
21
-23.156012
0
LINE
8
0
10
108.630635
20
-23.156012
11
108.663545
21
-23.161488
0
LINE
8
0
10
108.664000
20
-23.161500
11
108.687622
21
-23.159524
0
LINE
8
0
10
108.687622
20
-23.159524
11
108.714631
21
-23.153626
0
LINE
8
0
10
108.714631
20
-23.153626
11
108.743745
21
-23.143918
0
LINE
8
0
10
108.743745
20
-23.143918
11
108.776234
21
-23.130004
0
LINE
8
0
10
108.776000
20
-23.129800
11
108.786132
21
-23.133187
0
LINE
8
0
10
108.786132
20
-23.133187
11
108.793300
21
-23.134316
0
LINE
8
0
10
108.793000
20
-23.134500
11
108.820009
21
-23.138705
0
LINE
8
0
10
108.820009
20
-23.138705
11
108.839426
21
-23.151800
0
LINE
8
0
10
108.839426
20
-23.151800
11
108.850827
21
-23.173729
0
LINE
8
0
10
108.850827
20
-23.173729
11
108.854637
21
-23.204531
0
LINE
8
0
10
108.855000
20
-23.204500
11
108.849525
21
-23.235722
0
LINE
8
0
10
108.849525
20
-23.235722
11
108.833918
21
-23.267791
0
LINE
8
0
10
108.833918
20
-23.267791
11
108.807333
21
-23.301124
0
LINE
8
0
10
108.807333
20
-23.301124
11
108.770201
21
-23.335301
0
LINE
8
0
10
108.770201
20
-23.335301
11
108.725474
21
-23.365680
0
LINE
8
0
10
108.725474
20
-23.365680
11
108.676531
21
-23.387213
0
LINE
8
0
10
108.676531
20
-23.387213
11
108.623366
21
-23.400280
0
LINE
8
0
10
108.623366
20
-23.400280
11
108.565559
21
-23.404485
0
LINE
8
0
10
108.566000
20
-23.404500
11
108.536466
21
-23.402807
0
LINE
8
0
10
108.536466
20
-23.402807
11
108.508195
21
-23.398602
0
LINE
8
0
10
108.508195
20
-23.398602
11
108.482033
21
-23.391010
0
LINE
8
0
10
108.482033
20
-23.391010
11
108.457565
21
-23.380455
0
LINE
8
0
10
108.457565
20
-23.380455
11
108.434789
21
-23.366964
0
LINE
8
0
10
108.434789
20
-23.366964
11
108.413679
21
-23.350511
0
LINE
8
0
10
108.413679
20
-23.350511
11
108.394262
21
-23.331094
0
LINE
8
0
10
108.394262
20
-23.331094
11
108.376539
21
-23.308742
0
LINE
8
0
10
108.376539
20
-23.308742
11
108.360509
21
-23.279628
0
LINE
8
0
10
108.360509
20
-23.279628
11
108.344902
21
-23.240808
0
LINE
8
0
10
108.344902
20
-23.240808
11
108.330565
21
-23.191442
0
LINE
8
0
10
108.330565
20
-23.191442
11
108.317075
21
-23.132370
0
LINE
8
0
10
108.317075
20
-23.132370
11
108.304008
21
-23.063596
0
LINE
8
0
10
108.304008
20
-23.063596
11
108.292183
21
-22.984269
0
LINE
8
0
10
108.292183
20
-22.984269
11
108.281204
21
-22.895242
0
LINE
8
0
10
108.281204
20
-22.895242
11
108.271072
21
-22.796083
0
LINE
8
0
10
108.271000
20
-22.796100
11
108.265525
21
-22.745469
0
LINE
8
0
10
108.265525
20
-22.745469
11
108.259626
21
-22.698211
0
LINE
8
0
10
108.259626
20
-22.698211
11
108.252881
21
-22.654329
0
LINE
8
0
10
108.252881
20
-22.654329
11
108.245290
21
-22.613401
0
LINE
8
0
10
108.245290
20
-22.613401
11
108.237274
21
-22.575848
0
LINE
8
0
10
108.237274
20
-22.575848
11
108.228413
21
-22.541671
0
LINE
8
0
10
108.228413
20
-22.541671
11
108.218704
21
-22.510446
0
LINE
8
0
10
108.218704
20
-22.510446
11
108.208572
21
-22.482591
0
LINE
8
0
10
108.208572
20
-22.482591
11
108.197594
21
-22.458122
0
LINE
8
0
10
108.197594
20
-22.458122
11
108.185769
21
-22.437012
0
LINE
8
0
10
108.185769
20
-22.437012
11
108.173521
21
-22.419289
0
LINE
8
0
10
108.173521
20
-22.419289
11
108.160425
21
-22.404528
0
LINE
8
0
10
108.160425
20
-22.404528
11
108.146935
21
-22.393127
0
LINE
8
0
10
108.146935
20
-22.393127
11
108.132175
21
-22.384688
0
LINE
8
0
10
108.132175
20
-22.384688
11
108.117415
21
-22.380032
0
LINE
8
0
10
108.117415
20
-22.380032
11
108.101385
21
-22.378338
0
LINE
8
0
10
108.101000
20
-22.378400
11
108.062604
21
-22.384298
0
LINE
8
0
10
108.062604
20
-22.384298
11
108.022520
21
-22.402445
0
LINE
8
0
10
108.022520
20
-22.402445
11
107.980748
21
-22.432824
0
LINE
8
0
10
107.980748
20
-22.432824
11
107.937289
21
-22.475439
0
LINE
8
0
10
107.937289
20
-22.475439
11
107.913667
21
-22.503295
0
LINE
8
0
10
107.913667
20
-22.503295
11
107.887505
21
-22.538736
0
LINE
8
0
10
107.887505
20
-22.538736
11
107.857970
21
-22.581775
0
LINE
8
0
10
107.857970
20
-22.581775
11
107.825901
21
-22.631985
0
LINE
8
0
10
107.825901
20
-22.631985
11
107.790460
21
-22.690213
0
LINE
8
0
10
107.790460
20
-22.690213
11
107.752484
21
-22.755615
0
LINE
8
0
10
107.752484
20
-22.755615
11
107.711556
21
-22.828609
0
LINE
8
0
10
107.711556
20
-22.828609
11
107.667674
21
-22.909200
0
LINE
8
0
10
105.431000
20
5.734440
11
105.429307
21
5.726961
0
LINE
8
0
10
105.429307
20
5.726961
11
105.423973
21
5.714684
0
LINE
8
0
10
105.423973
20
5.714684
11
105.413813
21
5.696001
0
LINE
8
0
10
105.413813
20
5.696001
11
105.399391
21
5.672492
0
LINE
8
0
10
105.399391
20
5.672492
11
105.380172
21
5.643113
0
LINE
8
0
10
105.380172
20
5.643113
11
105.357199
21
5.608925
0
LINE
8
0
10
105.357199
20
5.608925
11
105.329428
21
5.568327
0
LINE
8
0
10
105.329428
20
5.568327
11
105.297376
21
5.522920
0
LINE
8
0
10
105.297000
20
5.522900
11
105.197641
21
5.382410
0
LINE
8
0
10
105.197641
20
5.382410
11
105.108967
21
5.253672
0
LINE
8
0
10
105.108967
20
5.253672
11
105.031508
21
5.136149
0
LINE
8
0
10
105.031508
20
5.136149
11
104.964201
21
5.030914
0
LINE
8
0
10
104.964201
20
5.030914
11
104.930013
21
4.975359
0
LINE
8
0
10
104.930013
20
4.975359
11
104.889415
21
4.908585
0
LINE
8
0
10
104.889415
20
4.908585
11
104.841872
21
4.830593
0
LINE
8
0
10
104.841872
20
4.830593
11
104.787386
21
4.741385
0
LINE
8
0
10
104.787386
20
4.741385
11
104.726488
21
4.640423
0
LINE
8
0
10
104.726488
20
4.640423
11
104.659181
21
4.528243
0
LINE
8
0
10
104.659181
20
4.528243
11
104.584928
21
4.404847
0
LINE
8
0
10
104.584928
20
4.404847
11
104.503733
21
4.270230
0
LINE
8
0
10
104.504000
20
4.270230
11
104.454854
21
4.189035
0
LINE
8
0
10
104.454854
20
4.189035
11
104.409981
21
4.115315
0
LINE
8
0
10
104.409981
20
4.115315
11
104.369916
21
4.049078
0
LINE
8
0
10
104.369916
20
4.049078
11
104.334661
21
3.990850
0
LINE
8
0
10
104.334661
20
3.990850
11
104.303145
21
3.940637
0
LINE
8
0
10
104.303145
20
3.940637
11
104.276447
21
3.897903
0
LINE
8
0
10
104.276447
20
3.897903
11
104.254547
21
3.863181
0
LINE
8
0
10
104.254547
20
3.863181
11
104.236908
21
3.835947
0
LINE
8
0
10
104.237000
20
3.835930
11
104.196936
21
3.775568
0
LINE
8
0
10
104.196936
20
3.775568
11
104.160611
21
3.718410
0
LINE
8
0
10
104.160611
20
3.718410
11
104.129095
21
3.664991
0
LINE
8
0
10
104.129095
20
3.664991
11
104.101325
21
3.615312
0
LINE
8
0
10
104.101325
20
3.615312
11
104.078352
21
3.568838
0
LINE
8
0
10
104.078352
20
3.568838
11
104.059132
21
3.526101
0
LINE
8
0
10
104.059132
20
3.526101
11
104.044175
21
3.487107
0
LINE
8
0
10
104.044175
20
3.487107
11
104.033507
21
3.451851
0
LINE
8
0
10
103.675000
20
3.257940
11
103.645621
21
3.263810
0
LINE
8
0
10
103.645621
20
3.263810
11
103.617308
21
3.280377
0
LINE
8
0
10
103.617308
20
3.280377
11
103.589538
21
3.308689
0
LINE
8
0
10
103.589538
20
3.308689
11
103.562303
21
3.348220
0
LINE
8
0
10
103.562303
20
3.348220
11
103.548418
21
3.373338
0
LINE
8
0
10
103.548418
20
3.373338
11
103.533460
21
3.403250
0
LINE
8
0
10
103.533460
20
3.403250
11
103.517430
21
3.438508
0
LINE
8
0
10
103.517430
20
3.438508
11
103.500327
21
3.478573
0
LINE
8
0
10
103.500327
20
3.478573
11
103.481616
21
3.523443
0
LINE
8
0
10
103.481616
20
3.523443
11
103.461860
21
3.573656
0
LINE
8
0
10
103.461860
20
3.573656
11
103.441032
21
3.628678
0
LINE
8
0
10
103.441032
20
3.628678
11
103.419132
21
3.689043
0
LINE
8
0
10
103.419000
20
3.689030
11
103.389621
21
3.767555
0
LINE
8
0
10
103.389621
20
3.767555
11
103.357569
21
3.852490
0
LINE
8
0
10
103.357569
20
3.852490
11
103.322847
21
3.943303
0
LINE
8
0
10
103.322847
20
3.943303
11
103.285453
21
4.041060
0
LINE
8
0
10
103.285453
20
4.041060
11
103.244855
21
4.144692
0
LINE
8
0
10
103.244855
20
4.144692
11
103.201585
21
4.254733
0
LINE
8
0
10
103.201585
20
4.254733
11
103.155645
21
4.371186
0
LINE
8
0
10
103.155645
20
4.371186
11
103.107035
21
4.494049
0
LINE
8
0
10
103.107000
20
4.494050
11
103.056787
21
4.620119
0
LINE
8
0
10
103.056787
20
4.620119
11
103.009244
21
4.738709
0
LINE
8
0
10
103.009244
20
4.738709
11
102.965440
21
4.849286
0
LINE
8
0
10
102.965440
20
4.849286
11
102.924843
21
4.951851
0
LINE
8
0
10
102.924843
20
4.951851
11
102.887448
21
5.046401
0
LINE
8
0
10
102.887448
20
5.046401
11
102.853260
21
5.133475
0
LINE
8
0
10
102.853260
20
5.133475
11
102.822278
21
5.212534
0
LINE
8
0
10
102.822278
20
5.212534
11
102.795043
21
5.284114
0
LINE
8
0
10
102.795043
20
5.284114
11
102.770462
21
5.347148
0
LINE
8
0
10
102.770462
20
5.347148
11
102.749634
21
5.402704
0
LINE
8
0
10
102.749634
20
5.402704
11
102.731487
21
5.450247
0
LINE
8
0
10
102.731487
20
5.450247
11
102.717065
21
5.490311
0
LINE
8
0
10
102.717065
20
5.490311
11
102.705325
21
5.522363
0
LINE
8
0
10
102.705325
20
5.522363
11
102.697310
21
5.546408
0
LINE
8
0
10
102.697310
20
5.546408
11
102.692512
21
5.562438
0
LINE
8
0
10
102.692512
20
5.562438
11
102.690819
21
5.570990
0
LINE
8
0
10
102.691000
20
5.570970
11
102.694754
21
5.606228
0
LINE
8
0
10
102.694754
20
5.606228
11
102.706494
21
5.647359
0
LINE
8
0
10
102.706494
20
5.647359
11
102.725713
21
5.693833
0
LINE
8
0
10
102.725713
20
5.693833
11
102.752948
21
5.746185
0
LINE
8
0
10
102.752948
20
5.746185
11
102.787136
21
5.794261
0
LINE
8
0
10
102.787136
20
5.794261
11
102.827734
21
5.828983
0
LINE
8
0
10
102.827734
20
5.828983
11
102.875277
21
5.849275
0
LINE
8
0
10
102.875277
20
5.849275
11
102.928696
21
5.856217
0
LINE
8
0
10
102.928000
20
5.856230
11
102.971804
21
5.851968
0
LINE
8
0
10
102.971804
20
5.851968
11
103.013468
21
5.839692
0
LINE
8
0
10
103.013468
20
5.839692
11
103.051932
21
5.818864
0
LINE
8
0
10
103.051932
20
5.818864
11
103.088257
21
5.790018
0
LINE
8
0
10
103.088257
20
5.790018
11
103.105896
21
5.770262
0
LINE
8
0
10
103.105896
20
5.770262
11
103.122998
21
5.743028
0
LINE
8
0
10
103.122998
20
5.743028
11
103.139565
21
5.708840
0
LINE
8
0
10
103.139565
20
5.708840
11
103.155595
21
5.667709
0
LINE
8
0
10
103.155595
20
5.667709
11
103.171625
21
5.619099
0
LINE
8
0
10
103.171625
20
5.619099
11
103.187119
21
5.563540
0
LINE
8
0
10
103.187119
20
5.563540
11
103.202077
21
5.501042
0
LINE
8
0
10
103.202077
20
5.501042
11
103.216499
21
5.431596
0
LINE
8
0
10
103.217000
20
5.431550
11
103.229813
21
5.374394
0
LINE
8
0
10
103.229813
20
5.374394
11
103.247988
21
5.306018
0
LINE
8
0
10
103.247988
20
5.306018
11
103.271497
21
5.226423
0
LINE
8
0
10
103.271497
20
5.226423
11
103.300876
21
5.136145
0
LINE
8
0
10
103.300876
20
5.136145
11
103.336134
21
5.035183
0
LINE
8
0
10
103.336134
20
5.035183
11
103.376199
21
4.923005
0
LINE
8
0
10
103.376199
20
4.923005
11
103.422139
21
4.800140
0
LINE
8
0
10
103.422139
20
4.800140
11
103.473955
21
4.666059
0
LINE
8
0
10
103.473955
20
4.666059
11
103.526840
21
4.531445
0
LINE
8
0
10
103.526840
20
4.531445
11
103.576520
21
4.405376
0
LINE
8
0
10
103.576520
20
4.405376
11
103.623527
21
4.288923
0
LINE
8
0
10
103.623527
20
4.288923
11
103.667864
21
4.181552
0
LINE
8
0
10
103.667864
20
4.181552
11
103.708464
21
4.082727
0
LINE
8
0
10
103.708464
20
4.082727
11
103.746389
21
3.992986
0
LINE
8
0
10
103.746389
20
3.992986
11
103.781647
21
3.912857
0
LINE
8
0
10
103.781647
20
3.912857
11
103.813699
21
3.841274
0
LINE
8
0
10
103.813000
20
3.841270
11
103.821015
21
3.853010
0
LINE
8
0
10
103.821015
20
3.853010
11
103.831175
21
3.869577
0
LINE
8
0
10
103.831175
20
3.869577
11
103.842915
21
3.889332
0
LINE
8
0
10
103.842915
20
3.889332
11
103.857337
21
3.913914
0
LINE
8
0
10
103.857337
20
3.913914
11
103.873903
21
3.942226
0
LINE
8
0
10
103.873903
20
3.942226
11
103.892615
21
3.975345
0
LINE
8
0
10
103.892615
20
3.975345
11
103.912906
21
4.011670
0
LINE
8
0
10
103.912906
20
4.011670
11
103.935879
21
4.052804
0
LINE
8
0
10
103.936000
20
4.052810
11
103.954147
21
4.083792
0
LINE
8
0
10
103.954147
20
4.083792
11
103.964843
21
4.101431
0
LINE
8
0
10
103.965000
20
4.101420
11
104.084123
21
4.294796
0
LINE
8
0
10
104.084123
20
4.294796
11
104.193097
21
4.478023
0
LINE
8
0
10
104.193097
20
4.478023
11
104.291387
21
4.651098
0
LINE
8
0
10
104.291387
20
4.651098
11
104.379527
21
4.814028
0
LINE
8
0
10
104.380000
20
4.814030
11
104.454253
21
4.953987
0
LINE
8
0
10
104.454253
20
4.953987
11
104.525299
21
5.084328
0
LINE
8
0
10
104.525299
20
5.084328
11
104.593676
21
5.205588
0
LINE
8
0
10
104.593676
20
5.205588
11
104.658847
21
5.318302
0
LINE
8
0
10
104.658847
20
5.318302
11
104.720814
21
5.420867
0
LINE
8
0
10
104.720814
20
5.420867
11
104.780109
21
5.514884
0
LINE
8
0
10
104.780109
20
5.514884
11
104.836198
21
5.599818
0
LINE
8
0
10
104.836198
20
5.599818
11
104.889083
21
5.675140
0
LINE
8
0
10
104.889083
20
5.675140
11
104.939830
21
5.741378
0
LINE
8
0
10
104.939830
20
5.741378
11
104.987906
21
5.799070
0
LINE
8
0
10
104.987906
20
5.799070
11
105.034382
21
5.848216
0
LINE
8
0
10
105.034382
20
5.848216
11
105.078183
21
5.887747
0
LINE
8
0
10
105.078183
20
5.887747
11
105.120384
21
5.918729
0
LINE
8
0
10
105.120384
20
5.918729
11
105.159915
21
5.941166
0
LINE
8
0
10
105.159915
20
5.941166
11
105.197309
21
5.954515
0
LINE
8
0
10
105.197309
20
5.954515
11
105.232564
21
5.958776
0
LINE
8
0
10
105.432000
20
5.761240
11
105.432000
21
5.747130
0
LINE
8
0
10
105.433000
20
5.747250
11
105.432436
21
5.740307
0
LINE
8
0
10
105.432436
20
5.740307
11
105.431307
21
5.734437
0
LINE
8
0
10
105.232000
20
5.958790
11
105.279010
21
5.955573
0
LINE
8
0
10
105.279010
20
5.955573
11
105.319607
21
5.946485
0
LINE
8
0
10
105.319607
20
5.946485
11
105.354329
21
5.930991
0
LINE
8
0
10
105.354329
20
5.930991
11
105.382100
21
5.909627
0
LINE
8
0
10
105.382100
20
5.909627
11
105.404000
21
5.881317
0
LINE
8
0
10
105.404000
20
5.881317
11
105.420030
21
5.847662
0
LINE
8
0
10
105.420030
20
5.847662
11
105.429118
21
5.807598
0
LINE
8
0
10
105.429118
20
5.807598
11
105.432335
21
5.761125
0
LINE
8
0
10
104.034000
20
3.451850
11
104.015825
21
3.410716
0
LINE
8
0
10
104.015825
20
3.410716
11
103.989127
21
3.373858
0
LINE
8
0
10
103.989127
20
3.373858
11
103.953335
21
3.340739
0
LINE
8
0
10
103.953335
20
3.340739
11
103.908465
21
3.311893
0
LINE
8
0
10
103.908465
20
3.311893
11
103.857182
21
3.288384
0
LINE
8
0
10
103.857182
20
3.288384
11
103.801093
21
3.271281
0
LINE
8
0
10
103.801093
20
3.271281
11
103.740196
21
3.261121
0
LINE
8
0
10
103.740196
20
3.261121
11
103.675025
21
3.257904
0
LINE
8
0
10
108.261000
20
-104.115000
11
108.215009
21
-104.190525
0
LINE
8
0
10
108.215009
20
-104.190525
11
108.168595
21
-104.261411
0
LINE
8
0
10
108.168595
20
-104.261411
11
108.121760
21
-104.328078
0
LINE
8
0
10
108.121760
20
-104.328078
11
108.074925
21
-104.390104
0
LINE
8
0
10
108.074925
20
-104.390104
11
108.027667
21
-104.447909
0
LINE
8
0
10
108.027667
20
-104.447909
11
107.980409
21
-104.501497
0
LINE
8
0
10
107.980409
20
-104.501497
11
107.932731
21
-104.550440
0
LINE
8
0
10
107.932731
20
-104.550440
11
107.884629
21
-104.595167
0
LINE
8
0
10
107.884629
20
-104.595167
11
107.836950
21
-104.634830
0
LINE
8
0
10
107.836950
20
-104.634830
11
107.790115
21
-104.669428
0
LINE
8
0
10
107.790115
20
-104.669428
11
107.744122
21
-104.698965
0
LINE
8
0
10
107.744122
20
-104.698965
11
107.698975
21
-104.722587
0
LINE
8
0
10
107.698975
20
-104.722587
11
107.654671
21
-104.741157
0
LINE
8
0
10
107.654671
20
-104.741157
11
107.611212
21
-104.754676
0
LINE
8
0
10
107.611212
20
-104.754676
11
107.568597
21
-104.762691
0
LINE
8
0
10
107.568597
20
-104.762691
11
107.526822
21
-104.765231
0
LINE
8
0
10
107.526000
20
-104.765000
11
107.502378
21
-104.763307
0
LINE
8
0
10
107.502378
20
-104.763307
11
107.478333
21
-104.758255
0
LINE
8
0
10
107.478333
20
-104.758255
11
107.454287
21
-104.749393
0
LINE
8
0
10
107.454287
20
-104.749393
11
107.430242
21
-104.737568
0
LINE
8
0
10
107.430242
20
-104.737568
11
107.406197
21
-104.721961
0
LINE
8
0
10
107.406197
20
-104.721961
11
107.381728
21
-104.703391
0
LINE
8
0
10
107.381728
20
-104.703391
11
107.357260
21
-104.681039
0
LINE
8
0
10
107.357260
20
-104.681039
11
107.332791
21
-104.655300
0
LINE
8
0
10
107.332791
20
-104.655300
11
107.309592
21
-104.625766
0
LINE
8
0
10
107.309592
20
-104.625766
11
107.289752
21
-104.592856
0
LINE
8
0
10
107.289752
20
-104.592856
11
107.272875
21
-104.556147
0
LINE
8
0
10
107.272875
20
-104.556147
11
107.258962
21
-104.515640
0
LINE
8
0
10
107.258962
20
-104.515640
11
107.248407
21
-104.471337
0
LINE
8
0
10
107.248407
20
-104.471337
11
107.240815
21
-104.423235
0
LINE
8
0
10
107.240815
20
-104.423235
11
107.236186
21
-104.371758
0
LINE
8
0
10
107.236186
20
-104.371758
11
107.234493
21
-104.316484
0
LINE
8
0
10
107.235000
20
-104.317000
11
107.236129
21
-104.267631
0
LINE
8
0
10
107.236129
20
-104.267631
11
107.240362
21
-104.212358
0
LINE
8
0
10
107.240362
20
-104.212358
11
107.247107
21
-104.152021
0
LINE
8
0
10
107.247107
20
-104.152021
11
107.256816
21
-104.085775
0
LINE
8
0
10
107.256816
20
-104.085775
11
107.269459
21
-104.014046
0
LINE
8
0
10
107.269459
20
-104.014046
11
107.284643
21
-103.936830
0
LINE
8
0
10
107.284643
20
-103.936830
11
107.302366
21
-103.854131
0
LINE
8
0
10
107.302366
20
-103.854131
11
107.323053
21
-103.765945
0
LINE
8
0
10
107.323000
20
-103.766000
11
107.340300
21
-103.692583
0
LINE
8
0
10
107.340300
20
-103.692583
11
107.355484
21
-103.625073
0
LINE
8
0
10
107.355484
20
-103.625073
11
107.368127
21
-103.563469
0
LINE
8
0
10
107.368127
20
-103.563469
11
107.378259
21
-103.506929
0
LINE
8
0
10
107.378259
20
-103.506929
11
107.386274
21
-103.456719
0
LINE
8
0
10
107.386274
20
-103.456719
11
107.392173
21
-103.411569
0
LINE
8
0
10
107.392173
20
-103.411569
11
107.395559
21
-103.372329
0
LINE
8
0
10
107.395559
20
-103.372329
11
107.396688
21
-103.338995
0
LINE
8
0
10
107.397000
20
-103.339000
11
107.408402
21
-103.318736
0
LINE
8
0
10
107.408402
20
-103.318736
11
107.421469
21
-103.301436
0
LINE
8
0
10
107.421469
20
-103.301436
11
107.435806
21
-103.286676
0
LINE
8
0
10
107.435806
20
-103.286676
11
107.451836
21
-103.274851
0
LINE
8
0
10
107.451836
20
-103.274851
11
107.469559
21
-103.265566
0
LINE
8
0
10
107.469559
20
-103.265566
11
107.488553
21
-103.258821
0
LINE
8
0
10
107.488553
20
-103.258821
11
107.509240
21
-103.254616
0
LINE
8
0
10
107.509240
20
-103.254616
11
107.531168
21
-103.253487
0
LINE
8
0
10
107.531000
20
-103.253000
11
107.560535
21
-103.255540
0
LINE
8
0
10
107.560535
20
-103.255540
11
107.586697
21
-103.263555
0
LINE
8
0
10
107.586697
20
-103.263555
11
107.609895
21
-103.277045
0
LINE
8
0
10
107.609895
20
-103.277045
11
107.629735
21
-103.295615
0
LINE
8
0
10
107.629735
20
-103.295615
11
107.646189
21
-103.316698
0
LINE
8
0
10
107.646189
20
-103.316698
11
107.657591
21
-103.338626
0
LINE
8
0
10
107.657591
20
-103.338626
11
107.664759
21
-103.360583
0
LINE
8
0
10
107.664759
20
-103.360583
11
107.666735
21
-103.383358
0
LINE
8
0
10
107.667000
20
-103.384000
11
107.665871
21
-103.410585
0
LINE
8
0
10
107.665871
20
-103.410585
11
107.662484
21
-103.439699
0
LINE
8
0
10
107.662484
20
-103.439699
11
107.656586
21
-103.471345
0
LINE
8
0
10
107.656586
20
-103.471345
11
107.648571
21
-103.505522
0
LINE
8
0
10
107.648571
20
-103.505522
11
107.638016
21
-103.542654
0
LINE
8
0
10
107.638016
20
-103.542654
11
107.624921
21
-103.582315
0
LINE
8
0
10
107.624921
20
-103.582315
11
107.609737
21
-103.624510
0
LINE
8
0
10
107.609737
20
-103.624510
11
107.592437
21
-103.669657
0
LINE
8
0
10
107.592000
20
-103.669000
11
107.558667
21
-103.757186
0
LINE
8
0
10
107.558667
20
-103.757186
11
107.529976
21
-103.842417
0
LINE
8
0
10
107.529976
20
-103.842417
11
107.505931
21
-103.924696
0
LINE
8
0
10
107.505931
20
-103.924696
11
107.486091
21
-104.003599
0
LINE
8
0
10
107.486091
20
-104.003599
11
107.470484
21
-104.079128
0
LINE
8
0
10
107.470484
20
-104.079128
11
107.459505
21
-104.151701
0
LINE
8
0
10
107.459505
20
-104.151701
11
107.452760
21
-104.220899
0
LINE
8
0
10
107.452760
20
-104.220899
11
107.450785
21
-104.287142
0
LINE
8
0
10
107.451000
20
-104.287000
11
107.452693
21
-104.342276
0
LINE
8
0
10
107.452693
20
-104.342276
11
107.457745
21
-104.389955
0
LINE
8
0
10
107.457745
20
-104.389955
11
107.466607
21
-104.430039
0
LINE
8
0
10
107.466607
20
-104.430039
11
107.478432
21
-104.463372
0
LINE
8
0
10
107.478432
20
-104.463372
11
107.494039
21
-104.489110
0
LINE
8
0
10
107.494039
20
-104.489110
11
107.512609
21
-104.507257
0
LINE
8
0
10
107.512609
20
-104.507257
11
107.534961
21
-104.518236
0
LINE
8
0
10
107.534961
20
-104.518236
11
107.560700
21
-104.522046
0
LINE
8
0
10
107.561000
20
-104.522000
11
107.597288
21
-104.518190
0
LINE
8
0
10
107.597288
20
-104.518190
11
107.635684
21
-104.507212
0
LINE
8
0
10
107.635684
20
-104.507212
11
107.677036
21
-104.489065
0
LINE
8
0
10
107.677036
20
-104.489065
11
107.720495
21
-104.462903
0
LINE
8
0
10
107.720495
20
-104.462903
11
107.766065
21
-104.429990
0
LINE
8
0
10
107.766065
20
-104.429990
11
107.814167
21
-104.389483
0
LINE
8
0
10
107.814167
20
-104.389483
11
107.864798
21
-104.341804
0
LINE
8
0
10
107.864798
20
-104.341804
11
107.917963
21
-104.286531
0
LINE
8
0
10
107.917963
20
-104.286531
11
107.971128
21
-104.224928
0
LINE
8
0
10
107.971128
20
-104.224928
11
108.022605
21
-104.157417
0
LINE
8
0
10
108.022605
20
-104.157417
11
108.071972
21
-104.084000
0
LINE
8
0
10
108.071972
20
-104.084000
11
108.119230
21
-104.004673
0
LINE
8
0
10
108.119230
20
-104.004673
11
108.164797
21
-103.919863
0
LINE
8
0
10
108.164797
20
-103.919863
11
108.208259
21
-103.829148
0
LINE
8
0
10
108.208259
20
-103.829148
11
108.249608
21
-103.732521
0
LINE
8
0
10
108.249608
20
-103.732521
11
108.289271
21
-103.630413
0
LINE
8
0
10
108.289000
20
-103.631000
11
108.303760
21
-103.590916
0
LINE
8
0
10
108.303760
20
-103.590916
11
108.317674
21
-103.554207
0
LINE
8
0
10
108.317674
20
-103.554207
11
108.330769
21
-103.521295
0
LINE
8
0
10
108.330769
20
-103.521295
11
108.343412
21
-103.492181
0
LINE
8
0
10
108.343412
20
-103.492181
11
108.355237
21
-103.466442
0
LINE
8
0
10
108.355237
20
-103.466442
11
108.366216
21
-103.444514
0
LINE
8
0
10
108.366216
20
-103.444514
11
108.376771
21
-103.426367
0
LINE
8
0
10
108.376771
20
-103.426367
11
108.386479
21
-103.412030
0
LINE
8
0
10
108.386479
20
-103.412030
11
108.407166
21
-103.389678
0
LINE
8
0
10
108.407166
20
-103.389678
11
108.431212
21
-103.374071
0
LINE
8
0
10
108.431212
20
-103.374071
11
108.458220
21
-103.364362
0
LINE
8
0
10
108.458220
20
-103.364362
11
108.488601
21
-103.361399
0
LINE
8
0
10
108.488000
20
-103.361000
11
108.510775
21
-103.362976
0
LINE
8
0
10
108.510775
20
-103.362976
11
108.530192
21
-103.368874
0
LINE
8
0
10
108.530192
20
-103.368874
11
108.547069
21
-103.378582
0
LINE
8
0
10
108.547069
20
-103.378582
11
108.560559
21
-103.392496
0
LINE
8
0
10
108.560559
20
-103.392496
11
108.571114
21
-103.410643
0
LINE
8
0
10
108.571114
20
-103.410643
11
108.578706
21
-103.432148
0
LINE
8
0
10
108.578706
20
-103.432148
11
108.582940
21
-103.457887
0
LINE
8
0
10
108.582940
20
-103.457887
11
108.584633
21
-103.487845
0
LINE
8
0
10
108.585000
20
-103.488000
11
108.583307
21
-103.500248
0
LINE
8
0
10
108.583307
20
-103.500248
11
108.578678
21
-103.521359
0
LINE
8
0
10
108.578678
20
-103.521359
11
108.570240
21
-103.551316
0
LINE
8
0
10
108.570240
20
-103.551316
11
108.558838
21
-103.590557
0
LINE
8
0
10
108.559000
20
-103.591000
11
108.523135
21
-103.743321
0
LINE
8
0
10
108.523135
20
-103.743321
11
108.497820
21
-103.891420
0
LINE
8
0
10
108.497820
20
-103.891420
11
108.482213
21
-104.034882
0
LINE
8
0
10
108.482213
20
-104.034882
11
108.477161
21
-104.174542
0
LINE
8
0
10
108.477000
20
-104.174000
11
108.478693
21
-104.252904
0
LINE
8
0
10
108.478693
20
-104.252904
11
108.483745
21
-104.324213
0
LINE
8
0
10
108.483745
20
-104.324213
11
108.492607
21
-104.388768
0
LINE
8
0
10
108.492607
20
-104.388768
11
108.504432
21
-104.445732
0
LINE
8
0
10
108.504432
20
-104.445732
11
108.520039
21
-104.495519
0
LINE
8
0
10
108.520039
20
-104.495519
11
108.538609
21
-104.537714
0
LINE
8
0
10
108.538609
20
-104.537714
11
108.560961
21
-104.573158
0
LINE
8
0
10
108.560961
20
-104.573158
11
108.586700
21
-104.601013
0
LINE
8
0
10
108.587000
20
-104.601000
11
108.611892
21
-104.626315
0
LINE
8
0
10
108.611892
20
-104.626315
11
108.629615
21
-104.648667
0
LINE
8
0
10
108.629615
20
-104.648667
11
108.640594
21
-104.668931
0
LINE
8
0
10
108.640594
20
-104.668931
11
108.643981
21
-104.686654
0
LINE
8
0
10
108.644000
20
-104.687000
11
108.640190
21
-104.706417
0
LINE
8
0
10
108.640190
20
-104.706417
11
108.629635
21
-104.724987
0
LINE
8
0
10
108.629635
20
-104.724987
11
108.611488
21
-104.742711
0
LINE
8
0
10
108.611488
20
-104.742711
11
108.586173
21
-104.759587
0
LINE
8
0
10
108.586173
20
-104.759587
11
108.557902
21
-104.773924
0
LINE
8
0
10
108.557902
20
-104.773924
11
108.531317
21
-104.784056
0
LINE
8
0
10
108.531317
20
-104.784056
11
108.505579
21
-104.790378
0
LINE
8
0
10
108.505579
20
-104.790378
11
108.481533
21
-104.792354
0
LINE
8
0
10
108.481000
20
-104.792000
11
108.456531
21
-104.790024
0
LINE
8
0
10
108.456531
20
-104.790024
11
108.433756
21
-104.782856
0
LINE
8
0
10
108.433756
20
-104.782856
11
108.411827
21
-104.771454
0
LINE
8
0
10
108.411827
20
-104.771454
11
108.391141
21
-104.755001
0
LINE
8
0
10
108.391141
20
-104.755001
11
108.371300
21
-104.734314
0
LINE
8
0
10
108.371300
20
-104.734314
11
108.353153
21
-104.708999
0
LINE
8
0
10
108.353153
20
-104.708999
11
108.335853
21
-104.679041
0
LINE
8
0
10
108.335853
20
-104.679041
11
108.319823
21
-104.644440
0
LINE
8
0
10
108.319823
20
-104.644440
11
108.305486
21
-104.605200
0
LINE
8
0
10
108.305486
20
-104.605200
11
108.293238
21
-104.561741
0
LINE
8
0
10
108.293238
20
-104.561741
11
108.282683
21
-104.514062
0
LINE
8
0
10
108.282683
20
-104.514062
11
108.273821
21
-104.461741
0
LINE
8
0
10
108.273821
20
-104.461741
11
108.267076
21
-104.404780
0
LINE
8
0
10
108.267076
20
-104.404780
11
108.262419
21
-104.344021
0
LINE
8
0
10
108.262419
20
-104.344021
11
108.259456
21
-104.278618
0
LINE
8
0
10
108.259456
20
-104.278618
11
108.258609
21
-104.208577
0
LINE
8
0
10
108.259000
20
-104.209000
11
108.259000
21
-104.162000
0
LINE
8
0
10
108.259000
20
-104.162000
11
108.259282
21
-104.138801
0
LINE
8
0
10
108.259282
20
-104.138801
11
108.260411
21
-104.115179
0
LINE
8
0
10
107.599000
20
-62.245800
11
107.607015
21
-62.206560
0
LINE
8
0
10
107.607015
20
-62.206560
11
107.619235
21
-62.170275
0
LINE
8
0
10
107.619235
20
-62.170275
11
107.634842
21
-62.136518
0
LINE
8
0
10
107.634842
20
-62.136518
11
107.654259
21
-62.106137
0
LINE
8
0
10
107.654259
20
-62.106137
11
107.676611
21
-62.080821
0
LINE
8
0
10
107.676611
20
-62.080821
11
107.700656
21
-62.062251
0
LINE
8
0
10
107.700656
20
-62.062251
11
107.726395
21
-62.051696
0
LINE
8
0
10
107.726395
20
-62.051696
11
107.753827
21
-62.047886
0
LINE
8
0
10
107.754000
20
-62.047900
11
107.782270
21
-62.052105
0
LINE
8
0
10
107.782270
20
-62.052105
11
107.808432
21
-62.065595
0
LINE
8
0
10
107.808432
20
-62.065595
11
107.832054
21
-62.087524
0
LINE
8
0
10
107.832054
20
-62.087524
11
107.853560
21
-62.118326
0
LINE
8
0
10
107.853560
20
-62.118326
11
107.872553
21
-62.157989
0
LINE
8
0
10
107.872553
20
-62.157989
11
107.889430
21
-62.206512
0
LINE
8
0
10
107.889430
20
-62.206512
11
107.903767
21
-62.263472
0
LINE
8
0
10
107.903767
20
-62.263472
11
107.916015
21
-62.329718
0
LINE
8
0
10
107.916000
20
-62.329700
11
107.922745
21
-62.367252
0
LINE
8
0
10
107.922745
20
-62.367252
11
107.933300
21
-62.411979
0
LINE
8
0
10
107.933300
20
-62.411979
11
107.947637
21
-62.463033
0
LINE
8
0
10
107.947637
20
-62.463033
11
107.965361
21
-62.521261
0
LINE
8
0
10
107.965361
20
-62.521261
11
107.986443
21
-62.585819
0
LINE
8
0
10
107.986443
20
-62.585819
11
108.011335
21
-62.657126
0
LINE
8
0
10
108.011335
20
-62.657126
11
108.039605
21
-62.735606
0
LINE
8
0
10
108.039605
20
-62.735606
11
108.071671
21
-62.820416
0
LINE
8
0
10
108.071671
20
-62.820416
11
108.107115
21
-62.912401
0
LINE
8
0
10
108.107115
20
-62.912401
11
108.146355
21
-63.010713
0
LINE
8
0
10
108.146355
20
-63.010713
11
108.189394
21
-63.116196
0
LINE
8
0
10
108.189394
20
-63.116196
11
108.235808
21
-63.228012
0
LINE
8
0
10
108.235808
20
-63.228012
11
108.285595
21
-63.346997
0
LINE
8
0
10
108.285595
20
-63.346997
11
108.339184
21
-63.472315
0
LINE
8
0
10
108.339184
20
-63.472315
11
108.396144
21
-63.604804
0
LINE
8
0
10
108.396144
20
-63.604804
11
108.456904
21
-63.743623
0
LINE
8
0
10
108.457000
20
-63.743600
11
108.512696
21
-63.650771
0
LINE
8
0
10
108.512696
20
-63.650771
11
108.573033
21
-63.555835
0
LINE
8
0
10
108.573000
20
-63.555900
11
108.640934
21
-63.449150
0
LINE
8
0
10
108.640934
20
-63.449150
11
108.703381
21
-63.349150
0
LINE
8
0
10
108.703381
20
-63.349150
11
108.761186
21
-63.255058
0
LINE
8
0
10
108.761186
20
-63.255058
11
108.814351
21
-63.167715
0
LINE
8
0
10
108.814351
20
-63.167715
11
108.862029
21
-63.086704
0
LINE
8
0
10
108.862029
20
-63.086704
11
108.904648
21
-63.012019
0
LINE
8
0
10
108.904648
20
-63.012019
11
108.942621
21
-62.944088
0
LINE
8
0
10
108.942621
20
-62.944088
11
108.975533
21
-62.882062
0
LINE
8
0
10
109.625000
20
-61.965200
11
109.650315
21
-61.966893
0
LINE
8
0
10
109.650315
20
-61.966893
11
109.672244
21
-61.972792
0
LINE
8
0
10
109.672244
20
-61.972792
11
109.690391
21
-61.982077
0
LINE
8
0
10
109.690391
20
-61.982077
11
109.705574
21
-61.995567
0
LINE
8
0
10
109.705574
20
-61.995567
11
109.717399
21
-62.012444
0
LINE
8
0
10
109.717399
20
-62.012444
11
109.725838
21
-62.033526
0
LINE
8
0
10
109.725838
20
-62.033526
11
109.730890
21
-62.057995
0
LINE
8
0
10
109.730890
20
-62.057995
11
109.732583
21
-62.086685
0
LINE
8
0
10
109.733000
20
-62.086700
11
109.730460
21
-62.106963
0
LINE
8
0
10
109.730460
20
-62.106963
11
109.722445
21
-62.124687
0
LINE
8
0
10
109.722445
20
-62.124687
11
109.718635
21
-62.130162
0
LINE
8
0
10
109.718635
20
-62.130162
11
109.712736
21
-62.139024
0
LINE
8
0
10
109.712736
20
-62.139024
11
109.704298
21
-62.151272
0
LINE
8
0
10
109.704298
20
-62.151272
11
109.693743
21
-62.166879
0
LINE
8
0
10
109.693743
20
-62.166879
11
109.680676
21
-62.185449
0
LINE
8
0
10
109.680676
20
-62.185449
11
109.665493
21
-62.207378
0
LINE
8
0
10
109.665493
20
-62.207378
11
109.648192
21
-62.232693
0
LINE
8
0
10
109.648192
20
-62.232693
11
109.628352
21
-62.260961
0
LINE
8
0
10
109.628000
20
-62.260900
11
109.490448
21
-62.463010
0
LINE
8
0
10
109.490448
20
-62.463010
11
109.356271
21
-62.669760
0
LINE
8
0
10
109.356271
20
-62.669760
11
109.224202
21
-62.880309
0
LINE
8
0
10
109.224202
20
-62.880309
11
109.095512
21
-63.095500
0
LINE
8
0
10
109.096000
20
-63.095500
11
109.047054
21
-63.178620
0
LINE
8
0
10
109.047054
20
-63.178620
11
108.999796
21
-63.257524
0
LINE
8
0
10
108.999796
20
-63.257524
11
108.955070
21
-63.332208
0
LINE
8
0
10
108.955070
20
-63.332208
11
108.912454
21
-63.402250
0
LINE
8
0
10
108.912454
20
-63.402250
11
108.871950
21
-63.468493
0
LINE
8
0
10
108.871950
20
-63.468493
11
108.833974
21
-63.530520
0
LINE
8
0
10
108.833974
20
-63.530520
11
108.797686
21
-63.587904
0
LINE
8
0
10
108.797686
20
-63.587904
11
108.763932
21
-63.641489
0
LINE
8
0
10
108.764000
20
-63.641500
11
108.728979
21
-63.696353
0
LINE
8
0
10
108.728979
20
-63.696353
11
108.698177
21
-63.747407
0
LINE
8
0
10
108.698177
20
-63.747407
11
108.670745
21
-63.794665
0
LINE
8
0
10
108.670745
20
-63.794665
11
108.647123
21
-63.837704
0
LINE
8
0
10
108.647123
20
-63.837704
11
108.627283
21
-63.876944
0
LINE
8
0
10
108.627283
20
-63.876944
11
108.611253
21
-63.912385
0
LINE
8
0
10
108.611253
20
-63.912385
11
108.598581
21
-63.943610
0
LINE
8
0
10
108.598581
20
-63.943610
11
108.590143
21
-63.971042
0
LINE
8
0
10
108.590000
20
-63.971100
11
108.578175
21
-63.998109
0
LINE
8
0
10
108.578175
20
-63.998109
11
108.560875
21
-64.022154
0
LINE
8
0
10
108.560875
20
-64.022154
11
108.536829
21
-64.044111
0
LINE
8
0
10
108.536829
20
-64.044111
11
108.507295
21
-64.063104
0
LINE
8
0
10
108.507295
20
-64.063104
11
108.473118
21
-64.078711
0
LINE
8
0
10
108.473118
20
-64.078711
11
108.435565
21
-64.089690
0
LINE
8
0
10
108.435565
20
-64.089690
11
108.394638
21
-64.096435
0
LINE
8
0
10
108.394638
20
-64.096435
11
108.350755
21
-64.098410
0
LINE
8
0
10
108.350000
20
-64.098500
11
108.338598
21
-64.092602
0
LINE
8
0
10
108.338598
20
-64.092602
11
108.324685
21
-64.075725
0
LINE
8
0
10
108.324685
20
-64.075725
11
108.307384
21
-64.047031
0
LINE
8
0
10
108.307384
20
-64.047031
11
108.287544
21
-64.006947
0
LINE
8
0
10
108.287544
20
-64.006947
11
108.264346
21
-63.955470
0
LINE
8
0
10
108.264346
20
-63.955470
11
108.238184
21
-63.892602
0
LINE
8
0
10
108.238184
20
-63.892602
11
108.209490
21
-63.817918
0
LINE
8
0
10
108.209490
20
-63.817918
11
108.177424
21
-63.732263
0
LINE
8
0
10
108.178000
20
-63.732300
11
108.169562
21
-63.709525
0
LINE
8
0
10
108.169562
20
-63.709525
11
108.158583
21
-63.681255
0
LINE
8
0
10
108.158583
20
-63.681255
11
108.145940
21
-63.647921
0
LINE
8
0
10
108.145940
20
-63.647921
11
108.130756
21
-63.608681
0
LINE
8
0
10
108.130756
20
-63.608681
11
108.113456
21
-63.563955
0
LINE
8
0
10
108.113456
20
-63.563955
11
108.094039
21
-63.513745
0
LINE
8
0
10
108.094039
20
-63.513745
11
108.072506
21
-63.458469
0
LINE
8
0
10
108.072506
20
-63.458469
11
108.048884
21
-63.397288
0
LINE
8
0
10
108.048884
20
-63.397288
11
108.022722
21
-63.330622
0
LINE
8
0
10
108.022722
20
-63.330622
11
107.994451
21
-63.258469
0
LINE
8
0
10
107.994451
20
-63.258469
11
107.964073
21
-63.181253
0
LINE
8
0
10
107.964073
20
-63.181253
11
107.931584
21
-63.098133
0
LINE
8
0
10
107.931584
20
-63.098133
11
107.896983
21
-63.009524
0
LINE
8
0
10
107.896983
20
-63.009524
11
107.859854
21
-62.915431
0
LINE
8
0
10
107.859854
20
-62.915431
11
107.821034
21
-62.816275
0
LINE
8
0
10
107.821034
20
-62.816275
11
107.779683
21
-62.711212
0
LINE
8
0
10
107.780000
20
-62.711200
11
107.758071
21
-62.655927
0
LINE
8
0
10
107.758071
20
-62.655927
11
107.737808
21
-62.604026
0
LINE
8
0
10
107.737808
20
-62.604026
11
107.718814
21
-62.555504
0
LINE
8
0
10
107.718814
20
-62.555504
11
107.701091
21
-62.510777
0
LINE
8
0
10
107.701091
20
-62.510777
11
107.685061
21
-62.469429
0
LINE
8
0
10
107.685061
20
-62.469429
11
107.670301
21
-62.431453
0
LINE
8
0
10
107.670301
20
-62.431453
11
107.656810
21
-62.397276
0
LINE
8
0
10
107.656810
20
-62.397276
11
107.644985
21
-62.366474
0
LINE
8
0
10
107.644985
20
-62.366474
11
107.634430
21
-62.339042
0
LINE
8
0
10
107.634430
20
-62.339042
11
107.625145
21
-62.314997
0
LINE
8
0
10
107.625145
20
-62.314997
11
107.617553
21
-62.294734
0
LINE
8
0
10
107.617553
20
-62.294734
11
107.611231
21
-62.277857
0
LINE
8
0
10
107.611231
20
-62.277857
11
107.606180
21
-62.264790
0
LINE
8
0
10
107.606180
20
-62.264790
11
107.602793
21
-62.255081
0
LINE
8
0
10
107.602793
20
-62.255081
11
107.600817
21
-62.248760
0
LINE
8
0
10
107.600817
20
-62.248760
11
107.599971
21
-62.245796
0
LINE
8
0
10
108.976000
20
-62.882000
11
109.036336
21
-62.771030
0
LINE
8
0
10
109.036336
20
-62.771030
11
109.093720
21
-62.667232
0
LINE
8
0
10
109.093720
20
-62.667232
11
109.148573
21
-62.570608
0
LINE
8
0
10
109.148573
20
-62.570608
11
109.200894
21
-62.480734
0
LINE
8
0
10
109.200894
20
-62.480734
11
109.250681
21
-62.398458
0
LINE
8
0
10
109.250681
20
-62.398458
11
109.297939
21
-62.323350
0
LINE
8
0
10
109.297939
20
-62.323350
11
109.342242
21
-62.255419
0
LINE
8
0
10
109.342242
20
-62.255419
11
109.384437
21
-62.194237
0
LINE
8
0
10
109.384437
20
-62.194237
11
109.423677
21
-62.140651
0
LINE
8
0
10
109.423677
20
-62.140651
11
109.460386
21
-62.094237
0
LINE
8
0
10
109.460386
20
-62.094237
11
109.494143
21
-62.054576
0
LINE
8
0
10
109.494143
20
-62.054576
11
109.525788
21
-62.022507
0
LINE
8
0
10
109.525788
20
-62.022507
11
109.554479
21
-61.997192
0
LINE
8
0
10
109.554479
20
-61.997192
11
109.580641
21
-61.979468
0
LINE
8
0
10
109.580641
20
-61.979468
11
109.604263
21
-61.968490
0
LINE
8
0
10
109.604263
20
-61.968490
11
109.625345
21
-61.965103
0
LINE
8
0
10
107.228000
20
3.907510
11
107.260049
21
3.905252
0
LINE
8
0
10
107.260049
20
3.905252
11
107.287820
21
3.898846
0
LINE
8
0
10
107.287820
20
3.898846
11
107.310793
21
3.888686
0
LINE
8
0
10
107.310793
20
3.888686
11
107.330012
21
3.874264
0
LINE
8
0
10
107.330012
20
3.874264
11
107.344970
21
3.855045
0
LINE
8
0
10
107.344970
20
3.855045
11
107.355638
21
3.832072
0
LINE
8
0
10
107.355638
20
3.832072
11
107.362044
21
3.805374
0
LINE
8
0
10
107.362044
20
3.805374
11
107.364302
21
3.773855
0
LINE
8
0
10
107.365000
20
3.773970
11
107.358594
21
3.731236
0
LINE
8
0
10
107.358594
20
3.731236
11
107.339910
21
3.685829
0
LINE
8
0
10
107.339910
20
3.685829
11
107.308925
21
3.638286
0
LINE
8
0
10
107.308925
20
3.638286
11
107.265658
21
3.588073
0
LINE
8
0
10
107.265658
20
3.588073
11
107.209569
21
3.535724
0
LINE
8
0
10
107.209569
20
3.535724
11
107.140656
21
3.481235
0
LINE
8
0
10
107.140656
20
3.481235
11
107.059994
21
3.424077
0
LINE
8
0
10
107.059994
20
3.424077
11
106.966511
21
3.364249
0
LINE
8
0
10
106.966511
20
3.364249
11
106.867155
21
3.307090
0
LINE
8
0
10
106.867155
20
3.307090
11
106.768862
21
3.257944
0
LINE
8
0
10
106.768862
20
3.257944
11
106.671106
21
3.216280
0
LINE
8
0
10
106.671106
20
3.216280
11
106.574420
21
3.182091
0
LINE
8
0
10
106.574420
20
3.182091
11
106.478800
21
3.155393
0
LINE
8
0
10
106.478800
20
3.155393
11
106.383714
21
3.136174
0
LINE
8
0
10
106.383714
20
3.136174
11
106.289161
21
3.124970
0
LINE
8
0
10
106.289161
20
3.124970
11
106.195681
21
3.121216
0
LINE
8
0
10
106.195000
20
3.121190
11
106.113802
21
3.124407
0
LINE
8
0
10
106.113802
20
3.124407
11
106.033673
21
3.134567
0
LINE
8
0
10
106.033673
20
3.134567
11
105.955681
21
3.151134
0
LINE
8
0
10
105.955681
20
3.151134
11
105.879295
21
3.174643
0
LINE
8
0
10
105.879295
20
3.174643
11
105.803973
21
3.204556
0
LINE
8
0
10
105.803973
20
3.204556
11
105.730790
21
3.240880
0
LINE
8
0
10
105.730790
20
3.240880
11
105.659207
21
3.284151
0
LINE
8
0
10
105.659207
20
3.284151
11
105.589230
21
3.334364
0
LINE
8
0
10
105.589230
20
3.334364
11
105.524593
21
3.390989
0
LINE
8
0
10
105.524593
20
3.390989
11
105.468504
21
3.453489
0
LINE
8
0
10
105.468504
20
3.453489
11
105.420961
21
3.521863
0
LINE
8
0
10
105.420961
20
3.521863
11
105.381967
21
3.597186
0
LINE
8
0
10
105.381967
20
3.597186
11
105.352051
21
3.677847
0
LINE
8
0
10
105.352051
20
3.677847
11
105.330151
21
3.764919
0
LINE
8
0
10
105.330151
20
3.764919
11
105.317338
21
3.857868
0
LINE
8
0
10
105.317338
20
3.857868
11
105.313076
21
3.957227
0
LINE
8
0
10
105.313000
20
3.957190
11
105.317262
21
4.062425
0
LINE
8
0
10
105.317262
20
4.062425
11
105.331147
21
4.170866
0
LINE
8
0
10
105.331147
20
4.170866
11
105.353583
21
4.281977
0
LINE
8
0
10
105.353583
20
4.281977
11
105.385099
21
4.396291
0
LINE
8
0
10
105.385099
20
4.396291
11
105.425163
21
4.513280
0
LINE
8
0
10
105.425163
20
4.513280
11
105.474843
21
4.632936
0
LINE
8
0
10
105.474843
20
4.632936
11
105.533071
21
4.755265
0
LINE
8
0
10
105.533071
20
4.755265
11
105.600378
21
4.880800
0
LINE
8
0
10
105.600378
20
4.880800
11
105.674631
21
5.004729
0
LINE
8
0
10
105.674631
20
5.004729
11
105.753156
21
5.122785
0
LINE
8
0
10
105.753156
20
5.122785
11
105.835421
21
5.234965
0
LINE
8
0
10
105.835421
20
5.234965
11
105.922492
21
5.341803
0
LINE
8
0
10
105.922492
20
5.341803
11
106.013839
21
5.441696
0
LINE
8
0
10
106.013839
20
5.441696
11
106.109458
21
5.536246
0
LINE
8
0
10
106.109458
20
5.536246
11
106.209351
21
5.624920
0
LINE
8
0
10
106.209351
20
5.624920
11
106.313519
21
5.707721
0
LINE
8
0
10
106.313519
20
5.707721
11
106.419287
21
5.782507
0
LINE
8
0
10
106.419287
20
5.782507
11
106.525055
21
5.847678
0
LINE
8
0
10
106.525055
20
5.847678
11
106.629757
21
5.902163
0
LINE
8
0
10
106.629757
20
5.902163
11
106.733389
21
5.947570
0
LINE
8
0
10
106.733389
20
5.947570
11
106.837021
21
5.982292
0
LINE
8
0
10
106.837021
20
5.982292
11
106.939586
21
6.007410
0
LINE
8
0
10
106.939586
20
6.007410
11
107.041615
21
6.022367
0
LINE
8
0
10
107.041615
20
6.022367
11
107.143110
21
6.027165
0
LINE
8
0
10
107.144000
20
6.027170
11
107.202761
21
6.024912
0
LINE
8
0
10
107.202761
20
6.024912
11
107.258317
21
6.017970
0
LINE
8
0
10
107.258317
20
6.017970
11
107.311202
21
6.006765
0
LINE
8
0
10
107.311202
20
6.006765
11
107.360882
21
5.991271
0
LINE
8
0
10
107.360882
20
5.991271
11
107.407355
21
5.971516
0
LINE
8
0
10
107.407355
20
5.971516
11
107.450623
21
5.946934
0
LINE
8
0
10
107.450623
20
5.946934
11
107.491223
21
5.918088
0
LINE
8
0
10
107.491223
20
5.918088
11
107.528615
21
5.884433
0
LINE
8
0
10
107.528615
20
5.884433
11
107.562270
21
5.848109
0
LINE
8
0
10
107.562270
20
5.848109
11
107.591649
21
5.810181
0
LINE
8
0
10
107.591649
20
5.810181
11
107.616767
21
5.770653
0
LINE
8
0
10
107.616767
20
5.770653
11
107.637059
21
5.730055
0
LINE
8
0
10
107.637059
20
5.730055
11
107.652553
21
5.687318
0
LINE
8
0
10
107.652553
20
5.687318
11
107.663785
21
5.643515
0
LINE
8
0
10
107.663785
20
5.643515
11
107.670728
21
5.598111
0
LINE
8
0
10
107.670728
20
5.598111
11
107.672986
21
5.551101
0
LINE
8
0
10
107.329000
20
5.035720
11
107.295881
21
5.038909
0
LINE
8
0
10
107.295881
20
5.038909
11
107.264899
21
5.047997
0
LINE
8
0
10
107.264899
20
5.047997
11
107.236586
21
5.062954
0
LINE
8
0
10
107.236586
20
5.062954
11
107.209888
21
5.083782
0
LINE
8
0
10
107.209888
20
5.083782
11
107.187988
21
5.109944
0
LINE
8
0
10
107.187988
20
5.109944
11
107.172494
21
5.140393
0
LINE
8
0
10
107.172494
20
5.140393
11
107.162870
21
5.175115
0
LINE
8
0
10
107.162870
20
5.175115
11
107.159681
21
5.214113
0
LINE
8
0
10
107.160000
20
5.214140
11
107.162258
21
5.246192
0
LINE
8
0
10
107.162258
20
5.246192
11
107.169200
21
5.284117
0
LINE
8
0
10
107.169200
20
5.284117
11
107.179897
21
5.328990
0
LINE
8
0
10
107.179897
20
5.328990
11
107.195391
21
5.380273
0
LINE
8
0
10
107.195000
20
5.380270
11
107.209421
21
5.432619
0
LINE
8
0
10
107.209421
20
5.432619
11
107.220118
21
5.480163
0
LINE
8
0
10
107.220118
20
5.480163
11
107.225988
21
5.523433
0
LINE
8
0
10
107.225988
20
5.523433
11
107.228246
21
5.561894
0
LINE
8
0
10
107.228000
20
5.561890
11
107.226871
21
5.590736
0
LINE
8
0
10
107.226871
20
5.590736
11
107.222581
21
5.615854
0
LINE
8
0
10
107.222581
20
5.615854
11
107.216175
21
5.637218
0
LINE
8
0
10
107.216175
20
5.637218
11
107.207087
21
5.654321
0
LINE
8
0
10
107.207087
20
5.654321
11
107.195347
21
5.668206
0
LINE
8
0
10
107.195347
20
5.668206
11
107.180925
21
5.677830
0
LINE
8
0
10
107.180925
20
5.677830
11
107.163823
21
5.683164
0
LINE
8
0
10
107.163823
20
5.683164
11
107.144067
21
5.685421
0
LINE
8
0
10
107.144000
20
5.685290
11
107.078827
21
5.681028
0
LINE
8
0
10
107.078827
20
5.681028
11
107.011519
21
5.668216
0
LINE
8
0
10
107.011519
20
5.668216
11
106.942076
21
5.646315
0
LINE
8
0
10
106.942076
20
5.646315
11
106.871029
21
5.615866
0
LINE
8
0
10
106.871029
20
5.615866
11
106.797846
21
5.576869
0
LINE
8
0
10
106.797846
20
5.576869
11
106.723058
21
5.529329
0
LINE
8
0
10
106.723058
20
5.529329
11
106.646135
21
5.473237
0
LINE
8
0
10
106.646135
20
5.473237
11
106.567076
21
5.408066
0
LINE
8
0
10
106.567076
20
5.408066
11
106.488551
21
5.337020
0
LINE
8
0
10
106.488551
20
5.337020
11
106.413232
21
5.261164
0
LINE
8
0
10
106.413232
20
5.261164
11
106.340579
21
5.181572
0
LINE
8
0
10
106.340579
20
5.181572
11
106.270602
21
5.097704
0
LINE
8
0
10
106.270602
20
5.097704
11
106.203295
21
5.009563
0
LINE
8
0
10
106.203295
20
5.009563
11
106.139191
21
4.917147
0
LINE
8
0
10
106.139191
20
4.917147
11
106.077760
21
4.820994
0
LINE
8
0
10
106.077760
20
4.820994
11
106.019535
21
4.720032
0
LINE
8
0
10
106.019535
20
4.720032
11
105.966116
21
4.618539
0
LINE
8
0
10
105.966116
20
4.618539
11
105.920176
21
4.520246
0
LINE
8
0
10
105.920176
20
4.520246
11
105.880645
21
4.425160
0
LINE
8
0
10
105.880645
20
4.425160
11
105.849129
21
4.332747
0
LINE
8
0
10
105.849129
20
4.332747
11
105.824011
21
4.243536
0
LINE
8
0
10
105.824011
20
4.243536
11
105.806372
21
4.157532
0
LINE
8
0
10
105.806372
20
4.157532
11
105.795676
21
4.074200
0
LINE
8
0
10
105.795676
20
4.074200
11
105.791951
21
3.994072
0
LINE
8
0
10
105.792000
20
3.994050
11
105.794258
21
3.942767
0
LINE
8
0
10
105.794258
20
3.942767
11
105.799592
21
3.893624
0
LINE
8
0
10
105.799592
20
3.893624
11
105.809216
21
3.846614
0
LINE
8
0
10
105.809216
20
3.846614
11
105.822028
21
3.801208
0
LINE
8
0
10
105.822028
20
3.801208
11
105.839131
21
3.758474
0
LINE
8
0
10
105.839131
20
3.758474
11
105.859423
21
3.717340
0
LINE
8
0
10
105.859423
20
3.717340
11
105.884004
21
3.677812
0
LINE
8
0
10
105.884004
20
3.677812
11
105.911775
21
3.640951
0
LINE
8
0
10
105.911775
20
3.640951
11
105.943294
21
3.607299
0
LINE
8
0
10
105.943294
20
3.607299
11
105.978549
21
3.577919
0
LINE
8
0
10
105.978549
20
3.577919
11
106.017546
21
3.553338
0
LINE
8
0
10
106.017546
20
3.553338
11
106.059747
21
3.533046
0
LINE
8
0
10
106.059747
20
3.533046
11
106.105151
21
3.517552
0
LINE
8
0
10
106.105151
20
3.517552
11
106.154297
21
3.506348
0
LINE
8
0
10
106.154297
20
3.506348
11
106.206646
21
3.499405
0
LINE
8
0
10
106.206646
20
3.499405
11
106.262738
21
3.497147
0
LINE
8
0
10
106.263000
20
3.497260
11
106.335113
21
3.502058
0
LINE
8
0
10
106.335113
20
3.502058
11
106.416312
21
3.515943
0
LINE
8
0
10
106.416312
20
3.515943
11
106.506589
21
3.539452
0
LINE
8
0
10
106.506589
20
3.539452
11
106.605414
21
3.572574
0
LINE
8
0
10
106.605414
20
3.572574
11
106.706909
21
3.613705
0
LINE
8
0
10
106.706909
20
3.613705
11
106.804132
21
3.661248
0
LINE
8
0
10
106.804132
20
3.661248
11
106.897613
21
3.715736
0
LINE
8
0
10
106.897613
20
3.715736
11
106.987356
21
3.776631
0
LINE
8
0
10
106.987000
20
3.776640
11
107.029737
21
3.807089
0
LINE
8
0
10
107.029737
20
3.807089
11
107.068731
21
3.833787
0
LINE
8
0
10
107.068731
20
3.833787
11
107.103989
21
3.856224
0
LINE
8
0
10
107.103989
20
3.856224
11
107.136039
21
3.874907
0
LINE
8
0
10
107.136039
20
3.874907
11
107.164351
21
3.889328
0
LINE
8
0
10
107.164351
20
3.889328
11
107.189469
21
3.899488
0
LINE
8
0
10
107.189469
20
3.899488
11
107.210833
21
3.905359
0
LINE
8
0
10
107.210833
20
3.905359
11
107.228472
21
3.907616
0
LINE
8
0
10
107.672000
20
5.551210
11
107.669742
21
5.455057
0
LINE
8
0
10
107.669742
20
5.455057
11
107.663872
21
5.373325
0
LINE
8
0
10
107.663872
20
5.373325
11
107.653712
21
5.306018
0
LINE
8
0
10
107.653712
20
5.306018
11
107.639291
21
5.253669
0
LINE
8
0
10
107.639291
20
5.253669
11
107.618463
21
5.210399
0
LINE
8
0
10
107.618463
20
5.210399
11
107.588547
21
5.170335
0
LINE
8
0
10
107.588547
20
5.170335
11
107.549552
21
5.133476
0
LINE
8
0
10
107.549552
20
5.133476
11
107.500940
21
5.099821
0
LINE
8
0
10
107.500940
20
5.099821
11
107.450193
21
5.072051
0
LINE
8
0
10
107.450193
20
5.072051
11
107.404787
21
5.051759
0
LINE
8
0
10
107.404787
20
5.051759
11
107.364189
21
5.040019
0
LINE
8
0
10
107.364189
20
5.040019
11
107.328398
21
5.035757
0
LINE
8
0
10
106.776000
20
-21.572000
11
106.773037
21
-21.590570
0
LINE
8
0
10
106.773037
20
-21.590570
11
106.767562
21
-21.618002
0
LINE
8
0
10
106.767562
20
-21.618002
11
106.759546
21
-21.654287
0
LINE
8
0
10
106.759546
20
-21.654287
11
106.749415
21
-21.699437
0
LINE
8
0
10
106.749415
20
-21.699437
11
106.737194
21
-21.753867
0
LINE
8
0
10
106.737194
20
-21.753867
11
106.722434
21
-21.817158
0
LINE
8
0
10
106.722434
20
-21.817158
11
106.705134
21
-21.889311
0
LINE
8
0
10
106.705134
20
-21.889311
11
106.685717
21
-21.970743
0
LINE
8
0
10
106.685000
20
-21.970800
11
106.667276
21
-22.048439
0
LINE
8
0
10
106.667276
20
-22.048439
11
106.652516
21
-22.119325
0
LINE
8
0
10
106.652516
20
-22.119325
11
106.641538
21
-22.183881
0
LINE
8
0
10
106.641538
20
-22.183881
11
106.633523
21
-22.242109
0
LINE
8
0
10
106.634000
20
-22.242100
11
106.625138
21
-22.319736
0
LINE
8
0
10
106.625138
20
-22.319736
11
106.613736
21
-22.403703
0
LINE
8
0
10
106.614000
20
-22.403700
11
106.601328
21
-22.491465
0
LINE
8
0
10
106.601328
20
-22.491465
11
106.590350
21
-22.572054
0
LINE
8
0
10
106.590350
20
-22.572054
11
106.581065
21
-22.645474
0
LINE
8
0
10
106.581065
20
-22.645474
11
106.573473
21
-22.711717
0
LINE
8
0
10
106.573473
20
-22.711717
11
106.567574
21
-22.770369
0
LINE
8
0
10
106.567574
20
-22.770369
11
106.563369
21
-22.822266
0
LINE
8
0
10
106.563369
20
-22.822266
11
106.560829
21
-22.866570
0
LINE
8
0
10
106.560829
20
-22.866570
11
106.559983
21
-22.903701
0
LINE
8
0
10
106.560000
20
-22.903700
11
106.561693
21
-23.004120
0
LINE
8
0
10
106.561693
20
-23.004120
11
106.565898
21
-23.103276
0
LINE
8
0
10
106.565898
20
-23.103276
11
106.573490
21
-23.202011
0
LINE
8
0
10
106.573490
20
-23.202011
11
106.584045
21
-23.299480
0
LINE
8
0
10
106.584000
20
-23.299500
11
106.586963
21
-23.352242
0
LINE
8
0
10
106.586963
20
-23.352242
11
106.581065
21
-23.396968
0
LINE
8
0
10
106.581065
20
-23.396968
11
106.566305
21
-23.433677
0
LINE
8
0
10
106.566305
20
-23.433677
11
106.543106
21
-23.462791
0
LINE
8
0
10
106.543106
20
-23.462791
11
106.515251
21
-23.484719
0
LINE
8
0
10
106.515251
20
-23.484719
11
106.487819
21
-23.499903
0
LINE
8
0
10
106.487819
20
-23.499903
11
106.459549
21
-23.509611
0
LINE
8
0
10
106.459549
20
-23.509611
11
106.431693
21
-23.512575
0
LINE
8
0
10
106.431000
20
-23.512500
11
106.412007
21
-23.511371
0
LINE
8
0
10
106.412007
20
-23.511371
11
106.394283
21
-23.507166
0
LINE
8
0
10
106.394283
20
-23.507166
11
106.377830
21
-23.500421
0
LINE
8
0
10
106.377830
20
-23.500421
11
106.363493
21
-23.491136
0
LINE
8
0
10
106.363493
20
-23.491136
11
106.350397
21
-23.478887
0
LINE
8
0
10
106.350397
20
-23.478887
11
106.338572
21
-23.464127
0
LINE
8
0
10
106.338572
20
-23.464127
11
106.328441
21
-23.446404
0
LINE
8
0
10
106.328441
20
-23.446404
11
106.320002
21
-23.426140
0
LINE
8
0
10
106.320002
20
-23.426140
11
106.312834
21
-23.402942
0
LINE
8
0
10
106.312834
20
-23.402942
11
106.306512
21
-23.376356
0
LINE
8
0
10
106.306512
20
-23.376356
11
106.301460
21
-23.346398
0
LINE
8
0
10
106.301460
20
-23.346398
11
106.296832
21
-23.313065
0
LINE
8
0
10
106.296832
20
-23.313065
11
106.293445
21
-23.276357
0
LINE
8
0
10
106.293445
20
-23.276357
11
106.291470
21
-23.236693
0
LINE
8
0
10
106.291470
20
-23.236693
11
106.289776
21
-23.193234
0
LINE
8
0
10
106.289776
20
-23.193234
11
106.289212
21
-23.146819
0
LINE
8
0
10
106.290000
20
-23.146700
11
106.290847
21
-23.093958
0
LINE
8
0
10
106.290847
20
-23.093958
11
106.293810
21
-23.036574
0
LINE
8
0
10
106.293810
20
-23.036574
11
106.298015
21
-22.974127
0
LINE
8
0
10
106.298015
20
-22.974127
11
106.304337
21
-22.906617
0
LINE
8
0
10
106.304337
20
-22.906617
11
106.312775
21
-22.834464
0
LINE
8
0
10
106.312775
20
-22.834464
11
106.322484
21
-22.757671
0
LINE
8
0
10
106.322484
20
-22.757671
11
106.334309
21
-22.675815
0
LINE
8
0
10
106.334309
20
-22.675815
11
106.347799
21
-22.589317
0
LINE
8
0
10
106.347000
20
-22.589300
11
106.351628
21
-22.557234
0
LINE
8
0
10
106.351628
20
-22.557234
11
106.355862
21
-22.528964
0
LINE
8
0
10
106.355862
20
-22.528964
11
106.359644
21
-22.503648
0
LINE
8
0
10
106.359644
20
-22.503648
11
106.363030
21
-22.481720
0
LINE
8
0
10
106.363030
20
-22.481720
11
106.365570
21
-22.463573
0
LINE
8
0
10
106.365570
20
-22.463573
11
106.367546
21
-22.448389
0
LINE
8
0
10
106.367546
20
-22.448389
11
106.369239
21
-22.436564
0
LINE
8
0
10
106.369239
20
-22.436564
11
106.370086
21
-22.428126
0
LINE
8
0
10
106.371000
20
-22.428100
11
106.376052
21
-22.378731
0
LINE
8
0
10
106.376052
20
-22.378731
11
106.384490
21
-22.328100
0
LINE
8
0
10
106.384000
20
-22.328200
11
106.391592
21
-22.277987
0
LINE
8
0
10
106.391592
20
-22.277987
11
106.397490
21
-22.228200
0
LINE
8
0
10
106.398000
20
-22.228200
11
106.404322
21
-22.156468
0
LINE
8
0
10
106.404322
20
-22.156468
11
106.414877
21
-22.075035
0
LINE
8
0
10
106.414877
20
-22.075035
11
106.429214
21
-21.983051
0
LINE
8
0
10
106.429214
20
-21.983051
11
106.448207
21
-21.880943
0
LINE
8
0
10
106.448000
20
-21.880900
11
106.462337
21
-21.802417
0
LINE
8
0
10
106.462337
20
-21.802417
11
106.474557
21
-21.729000
0
LINE
8
0
10
106.474557
20
-21.729000
11
106.484689
21
-21.660225
0
LINE
8
0
10
106.484689
20
-21.660225
11
106.492704
21
-21.596511
0
LINE
8
0
10
106.493000
20
-21.596500
11
106.498052
21
-21.557260
0
LINE
8
0
10
106.498052
20
-21.557260
11
106.503527
21
-21.524770
0
LINE
8
0
10
106.503527
20
-21.524770
11
106.509002
21
-21.499455
0
LINE
8
0
10
106.509002
20
-21.499455
11
106.514900
21
-21.480885
0
LINE
8
0
10
106.514900
20
-21.480885
11
106.523762
21
-21.465278
0
LINE
8
0
10
106.523762
20
-21.465278
11
106.537676
21
-21.449248
0
LINE
8
0
10
106.537676
20
-21.449248
11
106.556246
21
-21.432371
0
LINE
8
0
10
106.556246
20
-21.432371
11
106.579868
21
-21.415071
0
LINE
8
0
10
106.579868
20
-21.415071
11
106.604337
21
-21.399464
0
LINE
8
0
10
106.604337
20
-21.399464
11
106.625870
21
-21.388062
0
LINE
8
0
10
106.625870
20
-21.388062
11
106.644017
21
-21.381317
0
LINE
8
0
10
106.644017
20
-21.381317
11
106.658777
21
-21.379341
0
LINE
8
0
10
106.658000
20
-21.379200
11
106.685432
21
-21.383010
0
LINE
8
0
10
106.685432
20
-21.383010
11
106.709477
21
-21.393565
0
LINE
8
0
10
106.709477
20
-21.393565
11
106.729318
21
-21.411712
0
LINE
8
0
10
106.729318
20
-21.411712
11
106.745771
21
-21.437027
0
LINE
8
0
10
106.745771
20
-21.437027
11
106.758838
21
-21.466985
0
LINE
8
0
10
106.758838
20
-21.466985
11
106.768123
21
-21.499475
0
LINE
8
0
10
106.768123
20
-21.499475
11
106.773598
21
-21.534496
0
LINE
8
0
10
106.773598
20
-21.534496
11
106.775291
21
-21.572048
0
LINE
8
0
10
106.086000
20
-121.165000
11
111.771000
21
-121.165000
0
LINE
8
0
10
111.771000
20
-120.632000
11
106.086000
21
-120.632000
0
LINE
8
0
10
111.771000
20
-121.165000
11
111.771000
21
-120.632000
0
LINE
8
0
10
106.086000
20
-120.632000
11
106.086000
21
-121.165000
0
LINE
8
0
10
101.606000
20
-120.632000
11
101.317000
21
-120.632000
0
LINE
8
0
10
101.606000
20
-121.165000
11
101.606000
21
-120.632000
0
LINE
8
0
10
101.317000
20
-121.165000
11
101.606000
21
-121.165000
0
LINE
8
0
10
101.317000
20
-120.632000
11
101.317000
21
-121.165000
0
LINE
8
0
10
101.606000
20
9.501530
11
101.606000
21
10.034600
0
LINE
8
0
10
101.606000
20
10.034600
11
101.317000
21
10.034600
0
LINE
8
0
10
101.317000
20
10.034600
11
101.317000
21
9.501530
0
LINE
8
0
10
101.317000
20
9.501530
11
101.606000
21
9.501530
0
LINE
8
0
10
106.086000
20
10.034600
11
106.086000
21
9.501530
0
LINE
8
0
10
111.771000
20
9.501530
11
111.771000
21
10.034600
0
LINE
8
0
10
106.086000
20
9.501530
11
111.771000
21
9.501530
0
LINE
8
0
10
111.771000
20
10.034600
11
106.086000
21
10.034600
 0 
ENDSEC
 0 
EOF