G04 #@! TF.GenerationSoftware,KiCad,Pcbnew,(5.1.9)-1*
G04 #@! TF.CreationDate,2021-03-02T09:30:42+01:00*
G04 #@! TF.ProjectId,Buffered Multiple Front,42756666-6572-4656-9420-4d756c746970,rev?*
G04 #@! TF.SameCoordinates,Original*
G04 #@! TF.FileFunction,Legend,Top*
G04 #@! TF.FilePolarity,Positive*
%FSLAX46Y46*%
G04 Gerber Fmt 4.6, Leading zero omitted, Abs format (unit mm)*
G04 Created by KiCad (PCBNEW (5.1.9)-1) date 2021-03-02 09:30:42*
%MOMM*%
%LPD*%
G01*
G04 APERTURE LIST*
%ADD10C,0.010000*%
G04 #@! TA.AperFunction,Profile*
%ADD11C,0.100000*%
G04 #@! TD*
G04 APERTURE END LIST*
D10*
G04 #@! TO.C,G\u002A\u002A\u002A*
G36*
X6141778Y-99308282D02*
G01*
X6035944Y-99288156D01*
X5705521Y-99237741D01*
X5406556Y-99219734D01*
X5124558Y-99233764D01*
X4942333Y-99260096D01*
X4834818Y-99279144D01*
X4749294Y-99293592D01*
X4700470Y-99300978D01*
X4695389Y-99301445D01*
X4693067Y-99273778D01*
X4690816Y-99192623D01*
X4688649Y-99060941D01*
X4686582Y-98881687D01*
X4684626Y-98657820D01*
X4682796Y-98392297D01*
X4681105Y-98088077D01*
X4679568Y-97748118D01*
X4678196Y-97375376D01*
X4677005Y-96972810D01*
X4676007Y-96543378D01*
X4675217Y-96090038D01*
X4674647Y-95615747D01*
X4674312Y-95123463D01*
X4674222Y-94698062D01*
X4674222Y-90094124D01*
X4794167Y-90112194D01*
X5086352Y-90150288D01*
X5339561Y-90169175D01*
X5567930Y-90168752D01*
X5785594Y-90148914D01*
X6006691Y-90109560D01*
X6035864Y-90103131D01*
X6141778Y-90079334D01*
X6141778Y-99308282D01*
G37*
X6141778Y-99308282D02*
X6035944Y-99288156D01*
X5705521Y-99237741D01*
X5406556Y-99219734D01*
X5124558Y-99233764D01*
X4942333Y-99260096D01*
X4834818Y-99279144D01*
X4749294Y-99293592D01*
X4700470Y-99300978D01*
X4695389Y-99301445D01*
X4693067Y-99273778D01*
X4690816Y-99192623D01*
X4688649Y-99060941D01*
X4686582Y-98881687D01*
X4684626Y-98657820D01*
X4682796Y-98392297D01*
X4681105Y-98088077D01*
X4679568Y-97748118D01*
X4678196Y-97375376D01*
X4677005Y-96972810D01*
X4676007Y-96543378D01*
X4675217Y-96090038D01*
X4674647Y-95615747D01*
X4674312Y-95123463D01*
X4674222Y-94698062D01*
X4674222Y-90094124D01*
X4794167Y-90112194D01*
X5086352Y-90150288D01*
X5339561Y-90169175D01*
X5567930Y-90168752D01*
X5785594Y-90148914D01*
X6006691Y-90109560D01*
X6035864Y-90103131D01*
X6141778Y-90079334D01*
X6141778Y-99308282D01*
G36*
X5890647Y-65886650D02*
G01*
X6317612Y-65886744D01*
X6694735Y-65886972D01*
X7025316Y-65887395D01*
X7312659Y-65888071D01*
X7560062Y-65889063D01*
X7770829Y-65890428D01*
X7948260Y-65892228D01*
X8095656Y-65894523D01*
X8216318Y-65897371D01*
X8313548Y-65900834D01*
X8390647Y-65904971D01*
X8450917Y-65909843D01*
X8497657Y-65915508D01*
X8534170Y-65922028D01*
X8563757Y-65929461D01*
X8589719Y-65937869D01*
X8608468Y-65944727D01*
X8784221Y-66037319D01*
X8945263Y-66172690D01*
X9076670Y-66337176D01*
X9120239Y-66413242D01*
X9203889Y-66578334D01*
X9203889Y-77161667D01*
X9142904Y-77293625D01*
X9053862Y-77441707D01*
X8932304Y-77583755D01*
X8795603Y-77701342D01*
X8707235Y-77755734D01*
X8640558Y-77786190D01*
X8567852Y-77811396D01*
X8483322Y-77831827D01*
X8381174Y-77847959D01*
X8255613Y-77860268D01*
X8100846Y-77869228D01*
X7911078Y-77875315D01*
X7680513Y-77879005D01*
X7403359Y-77880772D01*
X7178944Y-77881120D01*
X6141778Y-77881334D01*
X6141778Y-80985778D01*
X6141715Y-81399237D01*
X6141532Y-81796541D01*
X6141237Y-82174089D01*
X6140839Y-82528279D01*
X6140345Y-82855509D01*
X6139763Y-83152178D01*
X6139103Y-83414684D01*
X6138371Y-83639425D01*
X6137577Y-83822799D01*
X6136728Y-83961205D01*
X6135833Y-84051041D01*
X6134900Y-84088706D01*
X6134722Y-84089667D01*
X6105691Y-84084755D01*
X6034710Y-84072181D01*
X5935364Y-84054359D01*
X5901889Y-84048319D01*
X5763491Y-84029077D01*
X5599470Y-84014724D01*
X5440600Y-84007800D01*
X5408000Y-84007525D01*
X5254672Y-84012379D01*
X5089110Y-84025248D01*
X4942088Y-84043590D01*
X4914111Y-84048319D01*
X4808879Y-84067250D01*
X4727914Y-84081660D01*
X4684803Y-84089137D01*
X4681278Y-84089667D01*
X4680338Y-84062120D01*
X4679435Y-83981731D01*
X4678577Y-83852101D01*
X4677772Y-83676831D01*
X4677028Y-83459523D01*
X4676354Y-83203780D01*
X4675757Y-82913203D01*
X4675246Y-82591393D01*
X4674829Y-82241953D01*
X4674514Y-81868484D01*
X4674310Y-81474587D01*
X4674224Y-81063865D01*
X4674222Y-80985778D01*
X4674222Y-77881334D01*
X3637056Y-77880766D01*
X3392213Y-77879942D01*
X3158177Y-77877852D01*
X2942671Y-77874661D01*
X2753417Y-77870535D01*
X2598138Y-77865639D01*
X2484555Y-77860140D01*
X2423957Y-77854752D01*
X2195405Y-77795253D01*
X1996533Y-77689483D01*
X1831515Y-77541525D01*
X1704527Y-77355460D01*
X1619742Y-77135372D01*
X1600525Y-77049516D01*
X1596602Y-76999977D01*
X1592932Y-76897517D01*
X1589515Y-76745660D01*
X1586350Y-76547929D01*
X1583438Y-76307848D01*
X1580779Y-76028940D01*
X1578373Y-75714727D01*
X1576219Y-75368734D01*
X1574318Y-74994484D01*
X1572670Y-74595500D01*
X1571275Y-74175306D01*
X1570133Y-73737424D01*
X1569243Y-73285378D01*
X1568606Y-72822692D01*
X1568222Y-72352889D01*
X1568092Y-71885072D01*
X2388925Y-71885072D01*
X2408672Y-72188704D01*
X2456882Y-72479953D01*
X2566454Y-72879264D01*
X2725157Y-73254948D01*
X2929601Y-73603157D01*
X3176395Y-73920043D01*
X3462148Y-74201757D01*
X3783469Y-74444453D01*
X4136968Y-74644283D01*
X4490778Y-74787996D01*
X4806185Y-74878060D01*
X5107942Y-74928980D01*
X5415382Y-74942722D01*
X5747837Y-74921255D01*
X5772841Y-74918451D01*
X5902980Y-74897059D01*
X6062035Y-74861454D01*
X6226107Y-74817337D01*
X6323174Y-74787115D01*
X6702550Y-74631978D01*
X7052029Y-74430552D01*
X7368761Y-74186090D01*
X7649896Y-73901845D01*
X7892583Y-73581072D01*
X8093972Y-73227024D01*
X8251213Y-72842953D01*
X8353666Y-72469474D01*
X8403964Y-72188914D01*
X8425782Y-71935478D01*
X8419122Y-71687675D01*
X8383987Y-71424013D01*
X8353828Y-71270526D01*
X8240316Y-70867186D01*
X8079137Y-70488496D01*
X7873589Y-70138207D01*
X7626970Y-69820072D01*
X7342576Y-69537842D01*
X7023707Y-69295270D01*
X6673659Y-69096108D01*
X6314505Y-68950285D01*
X5932980Y-68851618D01*
X5550873Y-68806754D01*
X5172273Y-68813242D01*
X4801269Y-68868634D01*
X4441951Y-68970482D01*
X4098409Y-69116335D01*
X3774732Y-69303745D01*
X3475009Y-69530263D01*
X3203330Y-69793440D01*
X2963785Y-70090828D01*
X2760462Y-70419977D01*
X2597453Y-70778438D01*
X2478845Y-71163762D01*
X2457424Y-71260048D01*
X2405173Y-71582911D01*
X2388925Y-71885072D01*
X1568092Y-71885072D01*
X1568090Y-71879492D01*
X1568212Y-71406024D01*
X1568586Y-70936009D01*
X1569213Y-70472970D01*
X1570092Y-70020430D01*
X1571225Y-69581914D01*
X1572610Y-69160943D01*
X1574248Y-68761042D01*
X1576138Y-68385734D01*
X1578282Y-68038542D01*
X1580678Y-67722989D01*
X1583327Y-67442599D01*
X1586228Y-67200895D01*
X1589383Y-67001401D01*
X1592790Y-66847639D01*
X1596450Y-66743133D01*
X1600363Y-66691407D01*
X1600525Y-66690485D01*
X1668634Y-66457595D01*
X1780035Y-66260916D01*
X1934481Y-66100735D01*
X2131724Y-65977342D01*
X2254248Y-65926704D01*
X2279768Y-65920232D01*
X2319591Y-65914472D01*
X2376777Y-65909383D01*
X2454387Y-65904929D01*
X2555481Y-65901069D01*
X2683119Y-65897765D01*
X2840361Y-65894978D01*
X3030268Y-65892670D01*
X3255900Y-65890801D01*
X3520317Y-65889332D01*
X3826579Y-65888225D01*
X4177748Y-65887441D01*
X4576883Y-65886940D01*
X5027044Y-65886685D01*
X5410540Y-65886631D01*
X5890647Y-65886650D01*
G37*
X5890647Y-65886650D02*
X6317612Y-65886744D01*
X6694735Y-65886972D01*
X7025316Y-65887395D01*
X7312659Y-65888071D01*
X7560062Y-65889063D01*
X7770829Y-65890428D01*
X7948260Y-65892228D01*
X8095656Y-65894523D01*
X8216318Y-65897371D01*
X8313548Y-65900834D01*
X8390647Y-65904971D01*
X8450917Y-65909843D01*
X8497657Y-65915508D01*
X8534170Y-65922028D01*
X8563757Y-65929461D01*
X8589719Y-65937869D01*
X8608468Y-65944727D01*
X8784221Y-66037319D01*
X8945263Y-66172690D01*
X9076670Y-66337176D01*
X9120239Y-66413242D01*
X9203889Y-66578334D01*
X9203889Y-77161667D01*
X9142904Y-77293625D01*
X9053862Y-77441707D01*
X8932304Y-77583755D01*
X8795603Y-77701342D01*
X8707235Y-77755734D01*
X8640558Y-77786190D01*
X8567852Y-77811396D01*
X8483322Y-77831827D01*
X8381174Y-77847959D01*
X8255613Y-77860268D01*
X8100846Y-77869228D01*
X7911078Y-77875315D01*
X7680513Y-77879005D01*
X7403359Y-77880772D01*
X7178944Y-77881120D01*
X6141778Y-77881334D01*
X6141778Y-80985778D01*
X6141715Y-81399237D01*
X6141532Y-81796541D01*
X6141237Y-82174089D01*
X6140839Y-82528279D01*
X6140345Y-82855509D01*
X6139763Y-83152178D01*
X6139103Y-83414684D01*
X6138371Y-83639425D01*
X6137577Y-83822799D01*
X6136728Y-83961205D01*
X6135833Y-84051041D01*
X6134900Y-84088706D01*
X6134722Y-84089667D01*
X6105691Y-84084755D01*
X6034710Y-84072181D01*
X5935364Y-84054359D01*
X5901889Y-84048319D01*
X5763491Y-84029077D01*
X5599470Y-84014724D01*
X5440600Y-84007800D01*
X5408000Y-84007525D01*
X5254672Y-84012379D01*
X5089110Y-84025248D01*
X4942088Y-84043590D01*
X4914111Y-84048319D01*
X4808879Y-84067250D01*
X4727914Y-84081660D01*
X4684803Y-84089137D01*
X4681278Y-84089667D01*
X4680338Y-84062120D01*
X4679435Y-83981731D01*
X4678577Y-83852101D01*
X4677772Y-83676831D01*
X4677028Y-83459523D01*
X4676354Y-83203780D01*
X4675757Y-82913203D01*
X4675246Y-82591393D01*
X4674829Y-82241953D01*
X4674514Y-81868484D01*
X4674310Y-81474587D01*
X4674224Y-81063865D01*
X4674222Y-80985778D01*
X4674222Y-77881334D01*
X3637056Y-77880766D01*
X3392213Y-77879942D01*
X3158177Y-77877852D01*
X2942671Y-77874661D01*
X2753417Y-77870535D01*
X2598138Y-77865639D01*
X2484555Y-77860140D01*
X2423957Y-77854752D01*
X2195405Y-77795253D01*
X1996533Y-77689483D01*
X1831515Y-77541525D01*
X1704527Y-77355460D01*
X1619742Y-77135372D01*
X1600525Y-77049516D01*
X1596602Y-76999977D01*
X1592932Y-76897517D01*
X1589515Y-76745660D01*
X1586350Y-76547929D01*
X1583438Y-76307848D01*
X1580779Y-76028940D01*
X1578373Y-75714727D01*
X1576219Y-75368734D01*
X1574318Y-74994484D01*
X1572670Y-74595500D01*
X1571275Y-74175306D01*
X1570133Y-73737424D01*
X1569243Y-73285378D01*
X1568606Y-72822692D01*
X1568222Y-72352889D01*
X1568092Y-71885072D01*
X2388925Y-71885072D01*
X2408672Y-72188704D01*
X2456882Y-72479953D01*
X2566454Y-72879264D01*
X2725157Y-73254948D01*
X2929601Y-73603157D01*
X3176395Y-73920043D01*
X3462148Y-74201757D01*
X3783469Y-74444453D01*
X4136968Y-74644283D01*
X4490778Y-74787996D01*
X4806185Y-74878060D01*
X5107942Y-74928980D01*
X5415382Y-74942722D01*
X5747837Y-74921255D01*
X5772841Y-74918451D01*
X5902980Y-74897059D01*
X6062035Y-74861454D01*
X6226107Y-74817337D01*
X6323174Y-74787115D01*
X6702550Y-74631978D01*
X7052029Y-74430552D01*
X7368761Y-74186090D01*
X7649896Y-73901845D01*
X7892583Y-73581072D01*
X8093972Y-73227024D01*
X8251213Y-72842953D01*
X8353666Y-72469474D01*
X8403964Y-72188914D01*
X8425782Y-71935478D01*
X8419122Y-71687675D01*
X8383987Y-71424013D01*
X8353828Y-71270526D01*
X8240316Y-70867186D01*
X8079137Y-70488496D01*
X7873589Y-70138207D01*
X7626970Y-69820072D01*
X7342576Y-69537842D01*
X7023707Y-69295270D01*
X6673659Y-69096108D01*
X6314505Y-68950285D01*
X5932980Y-68851618D01*
X5550873Y-68806754D01*
X5172273Y-68813242D01*
X4801269Y-68868634D01*
X4441951Y-68970482D01*
X4098409Y-69116335D01*
X3774732Y-69303745D01*
X3475009Y-69530263D01*
X3203330Y-69793440D01*
X2963785Y-70090828D01*
X2760462Y-70419977D01*
X2597453Y-70778438D01*
X2478845Y-71163762D01*
X2457424Y-71260048D01*
X2405173Y-71582911D01*
X2388925Y-71885072D01*
X1568092Y-71885072D01*
X1568090Y-71879492D01*
X1568212Y-71406024D01*
X1568586Y-70936009D01*
X1569213Y-70472970D01*
X1570092Y-70020430D01*
X1571225Y-69581914D01*
X1572610Y-69160943D01*
X1574248Y-68761042D01*
X1576138Y-68385734D01*
X1578282Y-68038542D01*
X1580678Y-67722989D01*
X1583327Y-67442599D01*
X1586228Y-67200895D01*
X1589383Y-67001401D01*
X1592790Y-66847639D01*
X1596450Y-66743133D01*
X1600363Y-66691407D01*
X1600525Y-66690485D01*
X1668634Y-66457595D01*
X1780035Y-66260916D01*
X1934481Y-66100735D01*
X2131724Y-65977342D01*
X2254248Y-65926704D01*
X2279768Y-65920232D01*
X2319591Y-65914472D01*
X2376777Y-65909383D01*
X2454387Y-65904929D01*
X2555481Y-65901069D01*
X2683119Y-65897765D01*
X2840361Y-65894978D01*
X3030268Y-65892670D01*
X3255900Y-65890801D01*
X3520317Y-65889332D01*
X3826579Y-65888225D01*
X4177748Y-65887441D01*
X4576883Y-65886940D01*
X5027044Y-65886685D01*
X5410540Y-65886631D01*
X5890647Y-65886650D01*
G36*
X3827556Y-63728619D02*
G01*
X4230432Y-64130777D01*
X4633309Y-64532935D01*
X4772475Y-64391644D01*
X4843503Y-64324895D01*
X4899996Y-64281657D01*
X4930549Y-64270557D01*
X4931558Y-64271343D01*
X4943178Y-64302151D01*
X4966093Y-64378015D01*
X4998130Y-64490692D01*
X5037117Y-64631938D01*
X5080881Y-64793508D01*
X5127248Y-64967159D01*
X5174047Y-65144647D01*
X5219103Y-65317727D01*
X5260245Y-65478155D01*
X5295300Y-65617687D01*
X5322095Y-65728080D01*
X5338456Y-65801089D01*
X5342212Y-65828469D01*
X5341954Y-65828468D01*
X5314686Y-65820779D01*
X5239945Y-65800057D01*
X5124689Y-65768222D01*
X4975873Y-65727191D01*
X4800454Y-65678885D01*
X4605387Y-65625222D01*
X4578948Y-65617953D01*
X4381203Y-65563243D01*
X4201699Y-65512926D01*
X4047514Y-65469036D01*
X3925721Y-65433610D01*
X3843396Y-65408684D01*
X3807614Y-65396295D01*
X3806785Y-65395748D01*
X3818007Y-65370339D01*
X3860200Y-65315756D01*
X3924714Y-65243029D01*
X3936154Y-65230843D01*
X4079189Y-65079604D01*
X3572372Y-64573374D01*
X3065556Y-64067144D01*
X3065556Y-60891556D01*
X3827556Y-60891556D01*
X3827556Y-63728619D01*
G37*
X3827556Y-63728619D02*
X4230432Y-64130777D01*
X4633309Y-64532935D01*
X4772475Y-64391644D01*
X4843503Y-64324895D01*
X4899996Y-64281657D01*
X4930549Y-64270557D01*
X4931558Y-64271343D01*
X4943178Y-64302151D01*
X4966093Y-64378015D01*
X4998130Y-64490692D01*
X5037117Y-64631938D01*
X5080881Y-64793508D01*
X5127248Y-64967159D01*
X5174047Y-65144647D01*
X5219103Y-65317727D01*
X5260245Y-65478155D01*
X5295300Y-65617687D01*
X5322095Y-65728080D01*
X5338456Y-65801089D01*
X5342212Y-65828469D01*
X5341954Y-65828468D01*
X5314686Y-65820779D01*
X5239945Y-65800057D01*
X5124689Y-65768222D01*
X4975873Y-65727191D01*
X4800454Y-65678885D01*
X4605387Y-65625222D01*
X4578948Y-65617953D01*
X4381203Y-65563243D01*
X4201699Y-65512926D01*
X4047514Y-65469036D01*
X3925721Y-65433610D01*
X3843396Y-65408684D01*
X3807614Y-65396295D01*
X3806785Y-65395748D01*
X3818007Y-65370339D01*
X3860200Y-65315756D01*
X3924714Y-65243029D01*
X3936154Y-65230843D01*
X4079189Y-65079604D01*
X3572372Y-64573374D01*
X3065556Y-64067144D01*
X3065556Y-60891556D01*
X3827556Y-60891556D01*
X3827556Y-63728619D01*
G36*
X6135496Y-44466223D02*
G01*
X6136246Y-44547380D01*
X6136967Y-44679069D01*
X6137656Y-44858335D01*
X6138308Y-45082223D01*
X6138917Y-45347775D01*
X6139481Y-45652037D01*
X6139993Y-45992053D01*
X6140450Y-46364866D01*
X6140848Y-46767522D01*
X6141180Y-47197063D01*
X6141444Y-47650535D01*
X6141635Y-48124981D01*
X6141747Y-48617446D01*
X6141778Y-49048110D01*
X6141778Y-53658220D01*
X5937167Y-53621595D01*
X5779051Y-53601496D01*
X5587198Y-53589581D01*
X5379978Y-53585861D01*
X5175761Y-53590346D01*
X4992915Y-53603049D01*
X4864722Y-53620948D01*
X4674222Y-53657821D01*
X4674222Y-49047910D01*
X4674265Y-48542462D01*
X4674389Y-48052519D01*
X4674591Y-47581038D01*
X4674865Y-47130974D01*
X4675208Y-46705283D01*
X4675614Y-46306921D01*
X4676080Y-45938845D01*
X4676600Y-45604009D01*
X4677171Y-45305370D01*
X4677787Y-45045885D01*
X4678445Y-44828507D01*
X4679139Y-44656194D01*
X4679865Y-44531902D01*
X4680619Y-44458586D01*
X4681278Y-44438556D01*
X4710308Y-44443468D01*
X4781290Y-44456042D01*
X4880636Y-44473864D01*
X4914111Y-44479904D01*
X5165385Y-44510405D01*
X5440999Y-44518829D01*
X5713344Y-44505177D01*
X5901889Y-44479904D01*
X6007121Y-44460973D01*
X6088086Y-44446563D01*
X6131196Y-44439086D01*
X6134722Y-44438556D01*
X6135496Y-44466223D01*
G37*
X6135496Y-44466223D02*
X6136246Y-44547380D01*
X6136967Y-44679069D01*
X6137656Y-44858335D01*
X6138308Y-45082223D01*
X6138917Y-45347775D01*
X6139481Y-45652037D01*
X6139993Y-45992053D01*
X6140450Y-46364866D01*
X6140848Y-46767522D01*
X6141180Y-47197063D01*
X6141444Y-47650535D01*
X6141635Y-48124981D01*
X6141747Y-48617446D01*
X6141778Y-49048110D01*
X6141778Y-53658220D01*
X5937167Y-53621595D01*
X5779051Y-53601496D01*
X5587198Y-53589581D01*
X5379978Y-53585861D01*
X5175761Y-53590346D01*
X4992915Y-53603049D01*
X4864722Y-53620948D01*
X4674222Y-53657821D01*
X4674222Y-49047910D01*
X4674265Y-48542462D01*
X4674389Y-48052519D01*
X4674591Y-47581038D01*
X4674865Y-47130974D01*
X4675208Y-46705283D01*
X4675614Y-46306921D01*
X4676080Y-45938845D01*
X4676600Y-45604009D01*
X4677171Y-45305370D01*
X4677787Y-45045885D01*
X4678445Y-44828507D01*
X4679139Y-44656194D01*
X4679865Y-44531902D01*
X4680619Y-44458586D01*
X4681278Y-44438556D01*
X4710308Y-44443468D01*
X4781290Y-44456042D01*
X4880636Y-44473864D01*
X4914111Y-44479904D01*
X5165385Y-44510405D01*
X5440999Y-44518829D01*
X5713344Y-44505177D01*
X5901889Y-44479904D01*
X6007121Y-44460973D01*
X6088086Y-44446563D01*
X6131196Y-44439086D01*
X6134722Y-44438556D01*
X6135496Y-44466223D01*
G36*
X7046729Y-20226326D02*
G01*
X7363796Y-20227321D01*
X7635582Y-20228955D01*
X7864317Y-20231246D01*
X8052234Y-20234210D01*
X8201565Y-20237864D01*
X8314542Y-20242225D01*
X8393397Y-20247311D01*
X8436149Y-20252366D01*
X8650633Y-20316880D01*
X8841255Y-20429400D01*
X9001080Y-20584084D01*
X9123169Y-20775089D01*
X9160688Y-20862494D01*
X9167722Y-20881806D01*
X9174157Y-20902141D01*
X9180015Y-20925961D01*
X9185320Y-20955729D01*
X9190094Y-20993907D01*
X9194362Y-21042957D01*
X9198145Y-21105341D01*
X9201467Y-21183522D01*
X9204351Y-21279962D01*
X9206820Y-21397123D01*
X9208896Y-21537467D01*
X9210604Y-21703458D01*
X9211966Y-21897556D01*
X9213005Y-22122225D01*
X9213744Y-22379926D01*
X9214206Y-22673122D01*
X9214414Y-23004276D01*
X9214392Y-23375849D01*
X9214162Y-23790303D01*
X9213747Y-24250101D01*
X9213170Y-24757706D01*
X9212455Y-25315579D01*
X9211624Y-25926184D01*
X9211165Y-26257483D01*
X9203889Y-31498111D01*
X9129157Y-31657509D01*
X9008815Y-31849967D01*
X8846682Y-32011386D01*
X8657731Y-32128936D01*
X8498333Y-32203667D01*
X6155889Y-32231889D01*
X6127667Y-38443095D01*
X6028889Y-38422350D01*
X5805143Y-38382463D01*
X5591569Y-38360981D01*
X5373092Y-38357827D01*
X5134635Y-38372924D01*
X4861122Y-38406193D01*
X4794291Y-38416012D01*
X4674472Y-38434065D01*
X4667291Y-35332977D01*
X4660111Y-32231889D01*
X3488889Y-32216980D01*
X3167648Y-32212134D01*
X2889192Y-32206357D01*
X2655985Y-32199741D01*
X2470494Y-32192374D01*
X2335183Y-32184349D01*
X2252517Y-32175753D01*
X2230636Y-32170907D01*
X2038326Y-32073572D01*
X1867067Y-31931302D01*
X1727633Y-31754668D01*
X1647615Y-31599129D01*
X1583889Y-31441667D01*
X1576075Y-26383065D01*
X2397346Y-26383065D01*
X2443098Y-26765431D01*
X2536029Y-27136338D01*
X2673200Y-27491587D01*
X2851674Y-27826983D01*
X3068511Y-28138327D01*
X3320772Y-28421422D01*
X3605520Y-28672071D01*
X3919814Y-28886076D01*
X4260717Y-29059240D01*
X4625290Y-29187366D01*
X5010594Y-29266257D01*
X5027000Y-29268406D01*
X5170610Y-29286764D01*
X5274398Y-29298763D01*
X5354591Y-29304705D01*
X5427419Y-29304893D01*
X5509108Y-29299631D01*
X5615887Y-29289221D01*
X5696171Y-29280896D01*
X6089051Y-29212772D01*
X6464099Y-29093446D01*
X6817597Y-28926367D01*
X7145826Y-28714985D01*
X7445069Y-28462748D01*
X7711607Y-28173107D01*
X7941722Y-27849510D01*
X8131695Y-27495407D01*
X8277808Y-27114246D01*
X8356262Y-26813223D01*
X8404394Y-26538024D01*
X8424813Y-26287702D01*
X8417541Y-26040814D01*
X8382601Y-25775917D01*
X8357527Y-25643497D01*
X8247729Y-25239053D01*
X8089701Y-24859144D01*
X7886632Y-24507452D01*
X7641711Y-24187655D01*
X7358128Y-23903434D01*
X7039072Y-23658468D01*
X6687731Y-23456436D01*
X6335534Y-23310553D01*
X5954959Y-23208319D01*
X5573594Y-23159933D01*
X5195484Y-23163006D01*
X4824672Y-23215148D01*
X4465202Y-23313972D01*
X4121117Y-23457087D01*
X3796462Y-23642105D01*
X3495281Y-23866636D01*
X3221617Y-24128291D01*
X2979514Y-24424681D01*
X2773016Y-24753418D01*
X2606167Y-25112111D01*
X2483010Y-25498373D01*
X2459137Y-25600744D01*
X2401713Y-25993437D01*
X2397346Y-26383065D01*
X1576075Y-26383065D01*
X1576020Y-26347556D01*
X1575146Y-25680414D01*
X1574641Y-25052751D01*
X1574501Y-24465872D01*
X1574720Y-23921083D01*
X1575294Y-23419687D01*
X1576217Y-22962990D01*
X1577486Y-22552295D01*
X1579094Y-22188909D01*
X1581038Y-21874136D01*
X1583313Y-21609280D01*
X1585913Y-21395646D01*
X1588833Y-21234539D01*
X1592070Y-21127264D01*
X1595618Y-21075126D01*
X1595624Y-21075083D01*
X1657904Y-20841850D01*
X1766703Y-20637989D01*
X1918855Y-20467799D01*
X2111196Y-20335579D01*
X2156899Y-20312803D01*
X2317667Y-20237445D01*
X5281000Y-20228402D01*
X5801515Y-20227008D01*
X6267820Y-20226187D01*
X6682147Y-20225954D01*
X7046729Y-20226326D01*
G37*
X7046729Y-20226326D02*
X7363796Y-20227321D01*
X7635582Y-20228955D01*
X7864317Y-20231246D01*
X8052234Y-20234210D01*
X8201565Y-20237864D01*
X8314542Y-20242225D01*
X8393397Y-20247311D01*
X8436149Y-20252366D01*
X8650633Y-20316880D01*
X8841255Y-20429400D01*
X9001080Y-20584084D01*
X9123169Y-20775089D01*
X9160688Y-20862494D01*
X9167722Y-20881806D01*
X9174157Y-20902141D01*
X9180015Y-20925961D01*
X9185320Y-20955729D01*
X9190094Y-20993907D01*
X9194362Y-21042957D01*
X9198145Y-21105341D01*
X9201467Y-21183522D01*
X9204351Y-21279962D01*
X9206820Y-21397123D01*
X9208896Y-21537467D01*
X9210604Y-21703458D01*
X9211966Y-21897556D01*
X9213005Y-22122225D01*
X9213744Y-22379926D01*
X9214206Y-22673122D01*
X9214414Y-23004276D01*
X9214392Y-23375849D01*
X9214162Y-23790303D01*
X9213747Y-24250101D01*
X9213170Y-24757706D01*
X9212455Y-25315579D01*
X9211624Y-25926184D01*
X9211165Y-26257483D01*
X9203889Y-31498111D01*
X9129157Y-31657509D01*
X9008815Y-31849967D01*
X8846682Y-32011386D01*
X8657731Y-32128936D01*
X8498333Y-32203667D01*
X6155889Y-32231889D01*
X6127667Y-38443095D01*
X6028889Y-38422350D01*
X5805143Y-38382463D01*
X5591569Y-38360981D01*
X5373092Y-38357827D01*
X5134635Y-38372924D01*
X4861122Y-38406193D01*
X4794291Y-38416012D01*
X4674472Y-38434065D01*
X4667291Y-35332977D01*
X4660111Y-32231889D01*
X3488889Y-32216980D01*
X3167648Y-32212134D01*
X2889192Y-32206357D01*
X2655985Y-32199741D01*
X2470494Y-32192374D01*
X2335183Y-32184349D01*
X2252517Y-32175753D01*
X2230636Y-32170907D01*
X2038326Y-32073572D01*
X1867067Y-31931302D01*
X1727633Y-31754668D01*
X1647615Y-31599129D01*
X1583889Y-31441667D01*
X1576075Y-26383065D01*
X2397346Y-26383065D01*
X2443098Y-26765431D01*
X2536029Y-27136338D01*
X2673200Y-27491587D01*
X2851674Y-27826983D01*
X3068511Y-28138327D01*
X3320772Y-28421422D01*
X3605520Y-28672071D01*
X3919814Y-28886076D01*
X4260717Y-29059240D01*
X4625290Y-29187366D01*
X5010594Y-29266257D01*
X5027000Y-29268406D01*
X5170610Y-29286764D01*
X5274398Y-29298763D01*
X5354591Y-29304705D01*
X5427419Y-29304893D01*
X5509108Y-29299631D01*
X5615887Y-29289221D01*
X5696171Y-29280896D01*
X6089051Y-29212772D01*
X6464099Y-29093446D01*
X6817597Y-28926367D01*
X7145826Y-28714985D01*
X7445069Y-28462748D01*
X7711607Y-28173107D01*
X7941722Y-27849510D01*
X8131695Y-27495407D01*
X8277808Y-27114246D01*
X8356262Y-26813223D01*
X8404394Y-26538024D01*
X8424813Y-26287702D01*
X8417541Y-26040814D01*
X8382601Y-25775917D01*
X8357527Y-25643497D01*
X8247729Y-25239053D01*
X8089701Y-24859144D01*
X7886632Y-24507452D01*
X7641711Y-24187655D01*
X7358128Y-23903434D01*
X7039072Y-23658468D01*
X6687731Y-23456436D01*
X6335534Y-23310553D01*
X5954959Y-23208319D01*
X5573594Y-23159933D01*
X5195484Y-23163006D01*
X4824672Y-23215148D01*
X4465202Y-23313972D01*
X4121117Y-23457087D01*
X3796462Y-23642105D01*
X3495281Y-23866636D01*
X3221617Y-24128291D01*
X2979514Y-24424681D01*
X2773016Y-24753418D01*
X2606167Y-25112111D01*
X2483010Y-25498373D01*
X2459137Y-25600744D01*
X2401713Y-25993437D01*
X2397346Y-26383065D01*
X1576075Y-26383065D01*
X1576020Y-26347556D01*
X1575146Y-25680414D01*
X1574641Y-25052751D01*
X1574501Y-24465872D01*
X1574720Y-23921083D01*
X1575294Y-23419687D01*
X1576217Y-22962990D01*
X1577486Y-22552295D01*
X1579094Y-22188909D01*
X1581038Y-21874136D01*
X1583313Y-21609280D01*
X1585913Y-21395646D01*
X1588833Y-21234539D01*
X1592070Y-21127264D01*
X1595618Y-21075126D01*
X1595624Y-21075083D01*
X1657904Y-20841850D01*
X1766703Y-20637989D01*
X1918855Y-20467799D01*
X2111196Y-20335579D01*
X2156899Y-20312803D01*
X2317667Y-20237445D01*
X5281000Y-20228402D01*
X5801515Y-20227008D01*
X6267820Y-20226187D01*
X6682147Y-20225954D01*
X7046729Y-20226326D01*
G36*
X1822654Y-7470051D02*
G01*
X1880639Y-7619758D01*
X1951977Y-7806099D01*
X2030469Y-8012755D01*
X2109916Y-8223410D01*
X2180614Y-8412334D01*
X2248406Y-8594241D01*
X2314468Y-8771326D01*
X2374484Y-8932035D01*
X2424139Y-9064812D01*
X2459116Y-9158101D01*
X2463079Y-9168635D01*
X2501618Y-9260530D01*
X2536534Y-9325630D01*
X2560983Y-9351432D01*
X2563041Y-9351246D01*
X2577926Y-9336042D01*
X2601834Y-9295479D01*
X2636191Y-9226279D01*
X2682420Y-9125166D01*
X2741947Y-8988864D01*
X2816196Y-8814095D01*
X2906590Y-8597585D01*
X3014555Y-8336056D01*
X3141514Y-8026231D01*
X3179772Y-7932556D01*
X3513833Y-7114111D01*
X3982778Y-7114111D01*
X3982778Y-10096931D01*
X3749944Y-10095588D01*
X3638314Y-10094809D01*
X3547494Y-10093928D01*
X3493059Y-10093104D01*
X3486334Y-10092900D01*
X3477215Y-10073140D01*
X3470984Y-10012775D01*
X3467605Y-9908790D01*
X3467041Y-9758173D01*
X3469253Y-9557909D01*
X3474206Y-9304984D01*
X3475757Y-9237834D01*
X3480319Y-9025679D01*
X3483566Y-8833661D01*
X3485455Y-8668496D01*
X3485943Y-8536899D01*
X3484988Y-8445586D01*
X3482546Y-8401272D01*
X3481130Y-8398223D01*
X3465056Y-8428733D01*
X3431330Y-8503084D01*
X3383511Y-8612808D01*
X3325160Y-8749439D01*
X3259834Y-8904508D01*
X3191096Y-9069550D01*
X3122503Y-9236097D01*
X3057615Y-9395683D01*
X2999993Y-9539840D01*
X2982798Y-9583556D01*
X2928800Y-9719607D01*
X2875249Y-9851236D01*
X2829493Y-9960542D01*
X2806146Y-10013945D01*
X2745463Y-10148000D01*
X2301550Y-10148000D01*
X2251660Y-10028056D01*
X2228825Y-9970437D01*
X2189422Y-9868030D01*
X2136530Y-9728963D01*
X2073228Y-9561362D01*
X2002593Y-9373356D01*
X1927704Y-9173071D01*
X1921129Y-9155441D01*
X1848635Y-8962768D01*
X1782108Y-8789304D01*
X1724140Y-8641537D01*
X1677320Y-8525956D01*
X1644238Y-8449048D01*
X1627486Y-8417301D01*
X1626300Y-8416964D01*
X1623060Y-8447698D01*
X1620746Y-8527806D01*
X1619389Y-8650227D01*
X1619023Y-8807898D01*
X1619682Y-8993758D01*
X1621399Y-9200742D01*
X1622240Y-9275468D01*
X1632368Y-10119778D01*
X1090000Y-10119778D01*
X1090000Y-8639777D01*
X1090447Y-8356103D01*
X1091732Y-8089718D01*
X1093768Y-7845910D01*
X1096471Y-7629967D01*
X1099755Y-7447177D01*
X1103536Y-7302827D01*
X1107726Y-7202206D01*
X1112242Y-7150602D01*
X1114141Y-7144856D01*
X1151247Y-7136519D01*
X1230968Y-7126438D01*
X1339573Y-7116197D01*
X1406607Y-7111074D01*
X1674931Y-7092213D01*
X1822654Y-7470051D01*
G37*
X1822654Y-7470051D02*
X1880639Y-7619758D01*
X1951977Y-7806099D01*
X2030469Y-8012755D01*
X2109916Y-8223410D01*
X2180614Y-8412334D01*
X2248406Y-8594241D01*
X2314468Y-8771326D01*
X2374484Y-8932035D01*
X2424139Y-9064812D01*
X2459116Y-9158101D01*
X2463079Y-9168635D01*
X2501618Y-9260530D01*
X2536534Y-9325630D01*
X2560983Y-9351432D01*
X2563041Y-9351246D01*
X2577926Y-9336042D01*
X2601834Y-9295479D01*
X2636191Y-9226279D01*
X2682420Y-9125166D01*
X2741947Y-8988864D01*
X2816196Y-8814095D01*
X2906590Y-8597585D01*
X3014555Y-8336056D01*
X3141514Y-8026231D01*
X3179772Y-7932556D01*
X3513833Y-7114111D01*
X3982778Y-7114111D01*
X3982778Y-10096931D01*
X3749944Y-10095588D01*
X3638314Y-10094809D01*
X3547494Y-10093928D01*
X3493059Y-10093104D01*
X3486334Y-10092900D01*
X3477215Y-10073140D01*
X3470984Y-10012775D01*
X3467605Y-9908790D01*
X3467041Y-9758173D01*
X3469253Y-9557909D01*
X3474206Y-9304984D01*
X3475757Y-9237834D01*
X3480319Y-9025679D01*
X3483566Y-8833661D01*
X3485455Y-8668496D01*
X3485943Y-8536899D01*
X3484988Y-8445586D01*
X3482546Y-8401272D01*
X3481130Y-8398223D01*
X3465056Y-8428733D01*
X3431330Y-8503084D01*
X3383511Y-8612808D01*
X3325160Y-8749439D01*
X3259834Y-8904508D01*
X3191096Y-9069550D01*
X3122503Y-9236097D01*
X3057615Y-9395683D01*
X2999993Y-9539840D01*
X2982798Y-9583556D01*
X2928800Y-9719607D01*
X2875249Y-9851236D01*
X2829493Y-9960542D01*
X2806146Y-10013945D01*
X2745463Y-10148000D01*
X2301550Y-10148000D01*
X2251660Y-10028056D01*
X2228825Y-9970437D01*
X2189422Y-9868030D01*
X2136530Y-9728963D01*
X2073228Y-9561362D01*
X2002593Y-9373356D01*
X1927704Y-9173071D01*
X1921129Y-9155441D01*
X1848635Y-8962768D01*
X1782108Y-8789304D01*
X1724140Y-8641537D01*
X1677320Y-8525956D01*
X1644238Y-8449048D01*
X1627486Y-8417301D01*
X1626300Y-8416964D01*
X1623060Y-8447698D01*
X1620746Y-8527806D01*
X1619389Y-8650227D01*
X1619023Y-8807898D01*
X1619682Y-8993758D01*
X1621399Y-9200742D01*
X1622240Y-9275468D01*
X1632368Y-10119778D01*
X1090000Y-10119778D01*
X1090000Y-8639777D01*
X1090447Y-8356103D01*
X1091732Y-8089718D01*
X1093768Y-7845910D01*
X1096471Y-7629967D01*
X1099755Y-7447177D01*
X1103536Y-7302827D01*
X1107726Y-7202206D01*
X1112242Y-7150602D01*
X1114141Y-7144856D01*
X1151247Y-7136519D01*
X1230968Y-7126438D01*
X1339573Y-7116197D01*
X1406607Y-7111074D01*
X1674931Y-7092213D01*
X1822654Y-7470051D01*
G36*
X7956258Y-7357687D02*
G01*
X8061908Y-7374202D01*
X8097813Y-7381121D01*
X8190575Y-7398346D01*
X8255038Y-7412603D01*
X8295815Y-7433348D01*
X8317520Y-7470035D01*
X8324766Y-7532121D01*
X8322167Y-7629059D01*
X8314337Y-7770304D01*
X8311806Y-7819667D01*
X8300778Y-8045445D01*
X8602796Y-8053441D01*
X8904814Y-8061438D01*
X8894629Y-8307441D01*
X8887022Y-8433625D01*
X8875659Y-8512270D01*
X8858742Y-8552249D01*
X8843001Y-8561906D01*
X8797346Y-8561178D01*
X8712096Y-8551835D01*
X8603122Y-8535736D01*
X8565278Y-8529365D01*
X8457252Y-8511655D01*
X8373025Y-8499803D01*
X8325951Y-8495608D01*
X8320597Y-8496381D01*
X8305323Y-8537336D01*
X8290998Y-8622791D01*
X8278576Y-8740798D01*
X8269007Y-8879412D01*
X8263245Y-9026688D01*
X8262242Y-9170679D01*
X8263156Y-9216836D01*
X8268364Y-9363924D01*
X8275539Y-9465534D01*
X8286523Y-9532632D01*
X8303160Y-9576187D01*
X8327290Y-9607163D01*
X8329000Y-9608845D01*
X8377432Y-9646921D01*
X8433538Y-9666563D01*
X8510497Y-9668890D01*
X8621489Y-9655024D01*
X8703100Y-9640663D01*
X8804333Y-9624294D01*
X8882434Y-9616162D01*
X8922345Y-9617759D01*
X8923984Y-9618799D01*
X8929230Y-9652591D01*
X8928802Y-9727940D01*
X8922911Y-9830266D01*
X8920497Y-9859650D01*
X8900893Y-10084384D01*
X8708288Y-10116192D01*
X8517558Y-10138627D01*
X8334564Y-10143657D01*
X8178587Y-10131094D01*
X8130854Y-10121776D01*
X7991431Y-10063944D01*
X7892004Y-9966481D01*
X7848655Y-9882333D01*
X7833361Y-9833864D01*
X7822147Y-9774520D01*
X7814618Y-9696178D01*
X7810377Y-9590717D01*
X7809028Y-9450014D01*
X7810174Y-9265948D01*
X7811918Y-9129678D01*
X7821000Y-8497000D01*
X7703970Y-8488464D01*
X7629087Y-8479124D01*
X7593259Y-8456708D01*
X7579101Y-8407701D01*
X7576908Y-8389687D01*
X7574032Y-8294908D01*
X7581048Y-8200667D01*
X7595596Y-8136243D01*
X7626738Y-8104723D01*
X7692883Y-8089751D01*
X7708111Y-8087778D01*
X7821000Y-8073667D01*
X7811171Y-7724269D01*
X7808665Y-7556875D01*
X7812267Y-7441786D01*
X7822212Y-7375166D01*
X7833984Y-7354697D01*
X7875212Y-7350677D01*
X7956258Y-7357687D01*
G37*
X7956258Y-7357687D02*
X8061908Y-7374202D01*
X8097813Y-7381121D01*
X8190575Y-7398346D01*
X8255038Y-7412603D01*
X8295815Y-7433348D01*
X8317520Y-7470035D01*
X8324766Y-7532121D01*
X8322167Y-7629059D01*
X8314337Y-7770304D01*
X8311806Y-7819667D01*
X8300778Y-8045445D01*
X8602796Y-8053441D01*
X8904814Y-8061438D01*
X8894629Y-8307441D01*
X8887022Y-8433625D01*
X8875659Y-8512270D01*
X8858742Y-8552249D01*
X8843001Y-8561906D01*
X8797346Y-8561178D01*
X8712096Y-8551835D01*
X8603122Y-8535736D01*
X8565278Y-8529365D01*
X8457252Y-8511655D01*
X8373025Y-8499803D01*
X8325951Y-8495608D01*
X8320597Y-8496381D01*
X8305323Y-8537336D01*
X8290998Y-8622791D01*
X8278576Y-8740798D01*
X8269007Y-8879412D01*
X8263245Y-9026688D01*
X8262242Y-9170679D01*
X8263156Y-9216836D01*
X8268364Y-9363924D01*
X8275539Y-9465534D01*
X8286523Y-9532632D01*
X8303160Y-9576187D01*
X8327290Y-9607163D01*
X8329000Y-9608845D01*
X8377432Y-9646921D01*
X8433538Y-9666563D01*
X8510497Y-9668890D01*
X8621489Y-9655024D01*
X8703100Y-9640663D01*
X8804333Y-9624294D01*
X8882434Y-9616162D01*
X8922345Y-9617759D01*
X8923984Y-9618799D01*
X8929230Y-9652591D01*
X8928802Y-9727940D01*
X8922911Y-9830266D01*
X8920497Y-9859650D01*
X8900893Y-10084384D01*
X8708288Y-10116192D01*
X8517558Y-10138627D01*
X8334564Y-10143657D01*
X8178587Y-10131094D01*
X8130854Y-10121776D01*
X7991431Y-10063944D01*
X7892004Y-9966481D01*
X7848655Y-9882333D01*
X7833361Y-9833864D01*
X7822147Y-9774520D01*
X7814618Y-9696178D01*
X7810377Y-9590717D01*
X7809028Y-9450014D01*
X7810174Y-9265948D01*
X7811918Y-9129678D01*
X7821000Y-8497000D01*
X7703970Y-8488464D01*
X7629087Y-8479124D01*
X7593259Y-8456708D01*
X7579101Y-8407701D01*
X7576908Y-8389687D01*
X7574032Y-8294908D01*
X7581048Y-8200667D01*
X7595596Y-8136243D01*
X7626738Y-8104723D01*
X7692883Y-8089751D01*
X7708111Y-8087778D01*
X7821000Y-8073667D01*
X7811171Y-7724269D01*
X7808665Y-7556875D01*
X7812267Y-7441786D01*
X7822212Y-7375166D01*
X7833984Y-7354697D01*
X7875212Y-7350677D01*
X7956258Y-7357687D01*
G36*
X7094278Y-7105957D02*
G01*
X7341222Y-7114111D01*
X7341222Y-10096551D01*
X7106015Y-10101109D01*
X6996937Y-10101882D01*
X6911653Y-10099964D01*
X6864127Y-10095763D01*
X6859070Y-10093908D01*
X6856832Y-10064262D01*
X6854734Y-9983423D01*
X6852817Y-9856642D01*
X6851121Y-9689170D01*
X6849688Y-9486257D01*
X6848559Y-9253155D01*
X6847775Y-8995116D01*
X6847376Y-8717389D01*
X6847333Y-8589976D01*
X6847333Y-7097803D01*
X7094278Y-7105957D01*
G37*
X7094278Y-7105957D02*
X7341222Y-7114111D01*
X7341222Y-10096551D01*
X7106015Y-10101109D01*
X6996937Y-10101882D01*
X6911653Y-10099964D01*
X6864127Y-10095763D01*
X6859070Y-10093908D01*
X6856832Y-10064262D01*
X6854734Y-9983423D01*
X6852817Y-9856642D01*
X6851121Y-9689170D01*
X6849688Y-9486257D01*
X6848559Y-9253155D01*
X6847775Y-8995116D01*
X6847376Y-8717389D01*
X6847333Y-8589976D01*
X6847333Y-7097803D01*
X7094278Y-7105957D01*
G36*
X4803581Y-8062256D02*
G01*
X4930251Y-8069838D01*
X5005312Y-8084993D01*
X5032330Y-8105603D01*
X5034290Y-8147573D01*
X5028440Y-8232173D01*
X5015942Y-8346307D01*
X5001616Y-8452273D01*
X4970154Y-8728899D01*
X4960338Y-8975163D01*
X4971832Y-9185664D01*
X5004301Y-9355003D01*
X5057409Y-9477781D01*
X5066069Y-9490394D01*
X5127931Y-9545249D01*
X5219955Y-9596446D01*
X5316546Y-9631534D01*
X5373293Y-9639843D01*
X5505443Y-9616880D01*
X5643393Y-9555399D01*
X5750491Y-9477965D01*
X5812684Y-9419832D01*
X5859910Y-9366744D01*
X5894229Y-9309967D01*
X5917697Y-9240768D01*
X5932373Y-9150411D01*
X5940313Y-9030164D01*
X5943577Y-8871293D01*
X5944222Y-8665062D01*
X5944222Y-8655693D01*
X5943619Y-8458498D01*
X5944272Y-8310854D01*
X5949877Y-8205923D01*
X5964130Y-8136865D01*
X5990724Y-8096840D01*
X6033356Y-8079008D01*
X6095720Y-8076529D01*
X6181511Y-8082565D01*
X6251039Y-8087778D01*
X6466333Y-8101889D01*
X6452222Y-8468778D01*
X6448274Y-8612786D01*
X6445597Y-8797597D01*
X6444284Y-9007582D01*
X6444426Y-9227112D01*
X6446113Y-9440558D01*
X6446405Y-9463611D01*
X6454699Y-10091556D01*
X6202480Y-10091556D01*
X6073233Y-10089966D01*
X5990203Y-10080418D01*
X5943171Y-10055744D01*
X5921915Y-10008775D01*
X5916214Y-9932344D01*
X5916000Y-9890640D01*
X5916000Y-9779008D01*
X5739611Y-9898862D01*
X5540778Y-10011221D01*
X5344251Y-10072456D01*
X5137872Y-10084725D01*
X4909484Y-10050186D01*
X4900000Y-10047929D01*
X4768373Y-10001307D01*
X4669605Y-9928259D01*
X4597011Y-9820426D01*
X4543908Y-9669450D01*
X4522780Y-9576196D01*
X4497343Y-9397719D01*
X4482199Y-9181650D01*
X4477572Y-8945933D01*
X4483684Y-8708515D01*
X4500758Y-8487343D01*
X4508447Y-8423877D01*
X4528972Y-8274678D01*
X4548243Y-8172586D01*
X4573373Y-8108883D01*
X4611474Y-8074857D01*
X4669660Y-8061791D01*
X4755043Y-8060970D01*
X4803581Y-8062256D01*
G37*
X4803581Y-8062256D02*
X4930251Y-8069838D01*
X5005312Y-8084993D01*
X5032330Y-8105603D01*
X5034290Y-8147573D01*
X5028440Y-8232173D01*
X5015942Y-8346307D01*
X5001616Y-8452273D01*
X4970154Y-8728899D01*
X4960338Y-8975163D01*
X4971832Y-9185664D01*
X5004301Y-9355003D01*
X5057409Y-9477781D01*
X5066069Y-9490394D01*
X5127931Y-9545249D01*
X5219955Y-9596446D01*
X5316546Y-9631534D01*
X5373293Y-9639843D01*
X5505443Y-9616880D01*
X5643393Y-9555399D01*
X5750491Y-9477965D01*
X5812684Y-9419832D01*
X5859910Y-9366744D01*
X5894229Y-9309967D01*
X5917697Y-9240768D01*
X5932373Y-9150411D01*
X5940313Y-9030164D01*
X5943577Y-8871293D01*
X5944222Y-8665062D01*
X5944222Y-8655693D01*
X5943619Y-8458498D01*
X5944272Y-8310854D01*
X5949877Y-8205923D01*
X5964130Y-8136865D01*
X5990724Y-8096840D01*
X6033356Y-8079008D01*
X6095720Y-8076529D01*
X6181511Y-8082565D01*
X6251039Y-8087778D01*
X6466333Y-8101889D01*
X6452222Y-8468778D01*
X6448274Y-8612786D01*
X6445597Y-8797597D01*
X6444284Y-9007582D01*
X6444426Y-9227112D01*
X6446113Y-9440558D01*
X6446405Y-9463611D01*
X6454699Y-10091556D01*
X6202480Y-10091556D01*
X6073233Y-10089966D01*
X5990203Y-10080418D01*
X5943171Y-10055744D01*
X5921915Y-10008775D01*
X5916214Y-9932344D01*
X5916000Y-9890640D01*
X5916000Y-9779008D01*
X5739611Y-9898862D01*
X5540778Y-10011221D01*
X5344251Y-10072456D01*
X5137872Y-10084725D01*
X4909484Y-10050186D01*
X4900000Y-10047929D01*
X4768373Y-10001307D01*
X4669605Y-9928259D01*
X4597011Y-9820426D01*
X4543908Y-9669450D01*
X4522780Y-9576196D01*
X4497343Y-9397719D01*
X4482199Y-9181650D01*
X4477572Y-8945933D01*
X4483684Y-8708515D01*
X4500758Y-8487343D01*
X4508447Y-8423877D01*
X4528972Y-8274678D01*
X4548243Y-8172586D01*
X4573373Y-8108883D01*
X4611474Y-8074857D01*
X4669660Y-8061791D01*
X4755043Y-8060970D01*
X4803581Y-8062256D01*
D11*
G04 #@! TO.C,REF\u002A\u002A*
X0Y-128500000D02*
X0Y0D01*
X0Y-128500000D02*
X9800000Y-128500000D01*
X9800000Y0D02*
X9800000Y-128500000D01*
X0Y0D02*
X9800000Y0D01*
G04 #@! TD*
M02*
