G04 #@! TF.GenerationSoftware,KiCad,Pcbnew,(5.1.9)-1*
G04 #@! TF.CreationDate,2021-04-11T11:35:00+02:00*
G04 #@! TF.ProjectId,Sample&Hold Front,53616d70-6c65-4264-986f-6c642046726f,rev?*
G04 #@! TF.SameCoordinates,Original*
G04 #@! TF.FileFunction,Copper,L2,Bot*
G04 #@! TF.FilePolarity,Positive*
%FSLAX46Y46*%
G04 Gerber Fmt 4.6, Leading zero omitted, Abs format (unit mm)*
G04 Created by KiCad (PCBNEW (5.1.9)-1) date 2021-04-11 11:35:00*
%MOMM*%
%LPD*%
G01*
G04 APERTURE LIST*
G04 #@! TA.AperFunction,NonConductor*
%ADD10C,0.254000*%
G04 #@! TD*
G04 #@! TA.AperFunction,NonConductor*
%ADD11C,0.100000*%
G04 #@! TD*
G04 APERTURE END LIST*
D10*
X9115000Y-20601589D02*
X8991466Y-19980541D01*
X8709914Y-19300814D01*
X8301164Y-18689076D01*
X7780924Y-18168836D01*
X7169186Y-17760086D01*
X6489459Y-17478534D01*
X5767865Y-17335000D01*
X5032135Y-17335000D01*
X4310541Y-17478534D01*
X3630814Y-17760086D01*
X3019076Y-18168836D01*
X2498836Y-18689076D01*
X2090086Y-19300814D01*
X1808534Y-19980541D01*
X1665000Y-20702135D01*
X1665000Y-21437865D01*
X1808534Y-22159459D01*
X2090086Y-22839186D01*
X2498836Y-23450924D01*
X3019076Y-23971164D01*
X3630814Y-24379914D01*
X4310541Y-24661466D01*
X5032135Y-24805000D01*
X5767865Y-24805000D01*
X6489459Y-24661466D01*
X7169186Y-24379914D01*
X7780924Y-23971164D01*
X8301164Y-23450924D01*
X8709914Y-22839186D01*
X8991466Y-22159459D01*
X9115000Y-21538411D01*
X9115000Y-36476590D01*
X8991466Y-35855541D01*
X8709914Y-35175814D01*
X8301164Y-34564076D01*
X7780924Y-34043836D01*
X7169186Y-33635086D01*
X6489459Y-33353534D01*
X5767865Y-33210000D01*
X5032135Y-33210000D01*
X4310541Y-33353534D01*
X3630814Y-33635086D01*
X3019076Y-34043836D01*
X2498836Y-34564076D01*
X2090086Y-35175814D01*
X1808534Y-35855541D01*
X1665000Y-36577135D01*
X1665000Y-37312865D01*
X1808534Y-38034459D01*
X2090086Y-38714186D01*
X2498836Y-39325924D01*
X3019076Y-39846164D01*
X3630814Y-40254914D01*
X4310541Y-40536466D01*
X5032135Y-40680000D01*
X5767865Y-40680000D01*
X6489459Y-40536466D01*
X7169186Y-40254914D01*
X7780924Y-39846164D01*
X8301164Y-39325924D01*
X8709914Y-38714186D01*
X8991466Y-38034459D01*
X9115000Y-37413410D01*
X9115000Y-52351590D01*
X8991466Y-51730541D01*
X8709914Y-51050814D01*
X8301164Y-50439076D01*
X7780924Y-49918836D01*
X7169186Y-49510086D01*
X6489459Y-49228534D01*
X5767865Y-49085000D01*
X5032135Y-49085000D01*
X4310541Y-49228534D01*
X3630814Y-49510086D01*
X3019076Y-49918836D01*
X2498836Y-50439076D01*
X2090086Y-51050814D01*
X1808534Y-51730541D01*
X1665000Y-52452135D01*
X1665000Y-53187865D01*
X1808534Y-53909459D01*
X2090086Y-54589186D01*
X2498836Y-55200924D01*
X3019076Y-55721164D01*
X3630814Y-56129914D01*
X4310541Y-56411466D01*
X5032135Y-56555000D01*
X5767865Y-56555000D01*
X6489459Y-56411466D01*
X7169186Y-56129914D01*
X7780924Y-55721164D01*
X8301164Y-55200924D01*
X8709914Y-54589186D01*
X8991466Y-53909459D01*
X9115000Y-53288410D01*
X9115001Y-71401591D01*
X8991466Y-70780541D01*
X8709914Y-70100814D01*
X8301164Y-69489076D01*
X7780924Y-68968836D01*
X7169186Y-68560086D01*
X6489459Y-68278534D01*
X5767865Y-68135000D01*
X5032135Y-68135000D01*
X4310541Y-68278534D01*
X3630814Y-68560086D01*
X3019076Y-68968836D01*
X2498836Y-69489076D01*
X2090086Y-70100814D01*
X1808534Y-70780541D01*
X1665000Y-71502135D01*
X1665000Y-72237865D01*
X1808534Y-72959459D01*
X2090086Y-73639186D01*
X2498836Y-74250924D01*
X3019076Y-74771164D01*
X3630814Y-75179914D01*
X4310541Y-75461466D01*
X5032135Y-75605000D01*
X5767865Y-75605000D01*
X6489459Y-75461466D01*
X7169186Y-75179914D01*
X7780924Y-74771164D01*
X8301164Y-74250924D01*
X8709914Y-73639186D01*
X8991466Y-72959459D01*
X9115001Y-72338409D01*
X9115001Y-87276592D01*
X8991466Y-86655541D01*
X8709914Y-85975814D01*
X8301164Y-85364076D01*
X7780924Y-84843836D01*
X7169186Y-84435086D01*
X6489459Y-84153534D01*
X5767865Y-84010000D01*
X5032135Y-84010000D01*
X4310541Y-84153534D01*
X3630814Y-84435086D01*
X3019076Y-84843836D01*
X2498836Y-85364076D01*
X2090086Y-85975814D01*
X1808534Y-86655541D01*
X1665000Y-87377135D01*
X1665000Y-88112865D01*
X1808534Y-88834459D01*
X2090086Y-89514186D01*
X2498836Y-90125924D01*
X3019076Y-90646164D01*
X3630814Y-91054914D01*
X4310541Y-91336466D01*
X5032135Y-91480000D01*
X5767865Y-91480000D01*
X6489459Y-91336466D01*
X7169186Y-91054914D01*
X7780924Y-90646164D01*
X8301164Y-90125924D01*
X8709914Y-89514186D01*
X8991466Y-88834459D01*
X9115001Y-88213408D01*
X9115001Y-103151592D01*
X8991466Y-102530541D01*
X8709914Y-101850814D01*
X8301164Y-101239076D01*
X7780924Y-100718836D01*
X7169186Y-100310086D01*
X6489459Y-100028534D01*
X5767865Y-99885000D01*
X5032135Y-99885000D01*
X4310541Y-100028534D01*
X3630814Y-100310086D01*
X3019076Y-100718836D01*
X2498836Y-101239076D01*
X2090086Y-101850814D01*
X1808534Y-102530541D01*
X1665000Y-103252135D01*
X1665000Y-103987865D01*
X1808534Y-104709459D01*
X2090086Y-105389186D01*
X2498836Y-106000924D01*
X3019076Y-106521164D01*
X3630814Y-106929914D01*
X4310541Y-107211466D01*
X5032135Y-107355000D01*
X5767865Y-107355000D01*
X6489459Y-107211466D01*
X7169186Y-106929914D01*
X7780924Y-106521164D01*
X8301164Y-106000924D01*
X8709914Y-105389186D01*
X8991466Y-104709459D01*
X9115001Y-104088408D01*
X9115001Y-127815000D01*
X685000Y-127815000D01*
X685000Y-126925767D01*
X995271Y-127236038D01*
X1361331Y-127480631D01*
X1768075Y-127649110D01*
X2199872Y-127735000D01*
X2640128Y-127735000D01*
X3071925Y-127649110D01*
X3478669Y-127480631D01*
X3844729Y-127236038D01*
X4156038Y-126924729D01*
X4400631Y-126558669D01*
X4569110Y-126151925D01*
X4655000Y-125720128D01*
X4655000Y-125279872D01*
X4569110Y-124848075D01*
X4400631Y-124441331D01*
X4156038Y-124075271D01*
X3844729Y-123763962D01*
X3478669Y-123519369D01*
X3071925Y-123350890D01*
X2640128Y-123265000D01*
X2199872Y-123265000D01*
X1768075Y-123350890D01*
X1361331Y-123519369D01*
X995271Y-123763962D01*
X685000Y-124074233D01*
X685000Y-4425767D01*
X995271Y-4736038D01*
X1361331Y-4980631D01*
X1768075Y-5149110D01*
X2199872Y-5235000D01*
X2640128Y-5235000D01*
X3071925Y-5149110D01*
X3478669Y-4980631D01*
X3844729Y-4736038D01*
X4156038Y-4424729D01*
X4400631Y-4058669D01*
X4569110Y-3651925D01*
X4655000Y-3220128D01*
X4655000Y-2779872D01*
X4569110Y-2348075D01*
X4400631Y-1941331D01*
X4156038Y-1575271D01*
X3844729Y-1263962D01*
X3478669Y-1019369D01*
X3071925Y-850890D01*
X2640128Y-765000D01*
X2199872Y-765000D01*
X1768075Y-850890D01*
X1361331Y-1019369D01*
X995271Y-1263962D01*
X685000Y-1574233D01*
X685000Y-685000D01*
X9115000Y-685000D01*
X9115000Y-20601589D01*
G04 #@! TA.AperFunction,NonConductor*
D11*
G36*
X9115000Y-20601589D02*
G01*
X8991466Y-19980541D01*
X8709914Y-19300814D01*
X8301164Y-18689076D01*
X7780924Y-18168836D01*
X7169186Y-17760086D01*
X6489459Y-17478534D01*
X5767865Y-17335000D01*
X5032135Y-17335000D01*
X4310541Y-17478534D01*
X3630814Y-17760086D01*
X3019076Y-18168836D01*
X2498836Y-18689076D01*
X2090086Y-19300814D01*
X1808534Y-19980541D01*
X1665000Y-20702135D01*
X1665000Y-21437865D01*
X1808534Y-22159459D01*
X2090086Y-22839186D01*
X2498836Y-23450924D01*
X3019076Y-23971164D01*
X3630814Y-24379914D01*
X4310541Y-24661466D01*
X5032135Y-24805000D01*
X5767865Y-24805000D01*
X6489459Y-24661466D01*
X7169186Y-24379914D01*
X7780924Y-23971164D01*
X8301164Y-23450924D01*
X8709914Y-22839186D01*
X8991466Y-22159459D01*
X9115000Y-21538411D01*
X9115000Y-36476590D01*
X8991466Y-35855541D01*
X8709914Y-35175814D01*
X8301164Y-34564076D01*
X7780924Y-34043836D01*
X7169186Y-33635086D01*
X6489459Y-33353534D01*
X5767865Y-33210000D01*
X5032135Y-33210000D01*
X4310541Y-33353534D01*
X3630814Y-33635086D01*
X3019076Y-34043836D01*
X2498836Y-34564076D01*
X2090086Y-35175814D01*
X1808534Y-35855541D01*
X1665000Y-36577135D01*
X1665000Y-37312865D01*
X1808534Y-38034459D01*
X2090086Y-38714186D01*
X2498836Y-39325924D01*
X3019076Y-39846164D01*
X3630814Y-40254914D01*
X4310541Y-40536466D01*
X5032135Y-40680000D01*
X5767865Y-40680000D01*
X6489459Y-40536466D01*
X7169186Y-40254914D01*
X7780924Y-39846164D01*
X8301164Y-39325924D01*
X8709914Y-38714186D01*
X8991466Y-38034459D01*
X9115000Y-37413410D01*
X9115000Y-52351590D01*
X8991466Y-51730541D01*
X8709914Y-51050814D01*
X8301164Y-50439076D01*
X7780924Y-49918836D01*
X7169186Y-49510086D01*
X6489459Y-49228534D01*
X5767865Y-49085000D01*
X5032135Y-49085000D01*
X4310541Y-49228534D01*
X3630814Y-49510086D01*
X3019076Y-49918836D01*
X2498836Y-50439076D01*
X2090086Y-51050814D01*
X1808534Y-51730541D01*
X1665000Y-52452135D01*
X1665000Y-53187865D01*
X1808534Y-53909459D01*
X2090086Y-54589186D01*
X2498836Y-55200924D01*
X3019076Y-55721164D01*
X3630814Y-56129914D01*
X4310541Y-56411466D01*
X5032135Y-56555000D01*
X5767865Y-56555000D01*
X6489459Y-56411466D01*
X7169186Y-56129914D01*
X7780924Y-55721164D01*
X8301164Y-55200924D01*
X8709914Y-54589186D01*
X8991466Y-53909459D01*
X9115000Y-53288410D01*
X9115001Y-71401591D01*
X8991466Y-70780541D01*
X8709914Y-70100814D01*
X8301164Y-69489076D01*
X7780924Y-68968836D01*
X7169186Y-68560086D01*
X6489459Y-68278534D01*
X5767865Y-68135000D01*
X5032135Y-68135000D01*
X4310541Y-68278534D01*
X3630814Y-68560086D01*
X3019076Y-68968836D01*
X2498836Y-69489076D01*
X2090086Y-70100814D01*
X1808534Y-70780541D01*
X1665000Y-71502135D01*
X1665000Y-72237865D01*
X1808534Y-72959459D01*
X2090086Y-73639186D01*
X2498836Y-74250924D01*
X3019076Y-74771164D01*
X3630814Y-75179914D01*
X4310541Y-75461466D01*
X5032135Y-75605000D01*
X5767865Y-75605000D01*
X6489459Y-75461466D01*
X7169186Y-75179914D01*
X7780924Y-74771164D01*
X8301164Y-74250924D01*
X8709914Y-73639186D01*
X8991466Y-72959459D01*
X9115001Y-72338409D01*
X9115001Y-87276592D01*
X8991466Y-86655541D01*
X8709914Y-85975814D01*
X8301164Y-85364076D01*
X7780924Y-84843836D01*
X7169186Y-84435086D01*
X6489459Y-84153534D01*
X5767865Y-84010000D01*
X5032135Y-84010000D01*
X4310541Y-84153534D01*
X3630814Y-84435086D01*
X3019076Y-84843836D01*
X2498836Y-85364076D01*
X2090086Y-85975814D01*
X1808534Y-86655541D01*
X1665000Y-87377135D01*
X1665000Y-88112865D01*
X1808534Y-88834459D01*
X2090086Y-89514186D01*
X2498836Y-90125924D01*
X3019076Y-90646164D01*
X3630814Y-91054914D01*
X4310541Y-91336466D01*
X5032135Y-91480000D01*
X5767865Y-91480000D01*
X6489459Y-91336466D01*
X7169186Y-91054914D01*
X7780924Y-90646164D01*
X8301164Y-90125924D01*
X8709914Y-89514186D01*
X8991466Y-88834459D01*
X9115001Y-88213408D01*
X9115001Y-103151592D01*
X8991466Y-102530541D01*
X8709914Y-101850814D01*
X8301164Y-101239076D01*
X7780924Y-100718836D01*
X7169186Y-100310086D01*
X6489459Y-100028534D01*
X5767865Y-99885000D01*
X5032135Y-99885000D01*
X4310541Y-100028534D01*
X3630814Y-100310086D01*
X3019076Y-100718836D01*
X2498836Y-101239076D01*
X2090086Y-101850814D01*
X1808534Y-102530541D01*
X1665000Y-103252135D01*
X1665000Y-103987865D01*
X1808534Y-104709459D01*
X2090086Y-105389186D01*
X2498836Y-106000924D01*
X3019076Y-106521164D01*
X3630814Y-106929914D01*
X4310541Y-107211466D01*
X5032135Y-107355000D01*
X5767865Y-107355000D01*
X6489459Y-107211466D01*
X7169186Y-106929914D01*
X7780924Y-106521164D01*
X8301164Y-106000924D01*
X8709914Y-105389186D01*
X8991466Y-104709459D01*
X9115001Y-104088408D01*
X9115001Y-127815000D01*
X685000Y-127815000D01*
X685000Y-126925767D01*
X995271Y-127236038D01*
X1361331Y-127480631D01*
X1768075Y-127649110D01*
X2199872Y-127735000D01*
X2640128Y-127735000D01*
X3071925Y-127649110D01*
X3478669Y-127480631D01*
X3844729Y-127236038D01*
X4156038Y-126924729D01*
X4400631Y-126558669D01*
X4569110Y-126151925D01*
X4655000Y-125720128D01*
X4655000Y-125279872D01*
X4569110Y-124848075D01*
X4400631Y-124441331D01*
X4156038Y-124075271D01*
X3844729Y-123763962D01*
X3478669Y-123519369D01*
X3071925Y-123350890D01*
X2640128Y-123265000D01*
X2199872Y-123265000D01*
X1768075Y-123350890D01*
X1361331Y-123519369D01*
X995271Y-123763962D01*
X685000Y-124074233D01*
X685000Y-4425767D01*
X995271Y-4736038D01*
X1361331Y-4980631D01*
X1768075Y-5149110D01*
X2199872Y-5235000D01*
X2640128Y-5235000D01*
X3071925Y-5149110D01*
X3478669Y-4980631D01*
X3844729Y-4736038D01*
X4156038Y-4424729D01*
X4400631Y-4058669D01*
X4569110Y-3651925D01*
X4655000Y-3220128D01*
X4655000Y-2779872D01*
X4569110Y-2348075D01*
X4400631Y-1941331D01*
X4156038Y-1575271D01*
X3844729Y-1263962D01*
X3478669Y-1019369D01*
X3071925Y-850890D01*
X2640128Y-765000D01*
X2199872Y-765000D01*
X1768075Y-850890D01*
X1361331Y-1019369D01*
X995271Y-1263962D01*
X685000Y-1574233D01*
X685000Y-685000D01*
X9115000Y-685000D01*
X9115000Y-20601589D01*
G37*
G04 #@! TD.AperFunction*
M02*
