G04 #@! TF.GenerationSoftware,KiCad,Pcbnew,(5.1.9)-1*
G04 #@! TF.CreationDate,2021-03-02T09:30:42+01:00*
G04 #@! TF.ProjectId,Buffered Multiple Front,42756666-6572-4656-9420-4d756c746970,rev?*
G04 #@! TF.SameCoordinates,Original*
G04 #@! TF.FileFunction,Copper,L1,Top*
G04 #@! TF.FilePolarity,Positive*
%FSLAX46Y46*%
G04 Gerber Fmt 4.6, Leading zero omitted, Abs format (unit mm)*
G04 Created by KiCad (PCBNEW (5.1.9)-1) date 2021-03-02 09:30:42*
%MOMM*%
%LPD*%
G01*
G04 APERTURE LIST*
G04 #@! TA.AperFunction,EtchedComponent*
%ADD10C,0.100000*%
G04 #@! TD*
G04 #@! TA.AperFunction,NonConductor*
%ADD11C,0.254000*%
G04 #@! TD*
G04 #@! TA.AperFunction,NonConductor*
%ADD12C,0.100000*%
G04 #@! TD*
G04 APERTURE END LIST*
D10*
G04 #@! TO.C,REF\u002A\u002A*
X0Y-128500000D02*
X0Y0D01*
X0Y-128500000D02*
X9800000Y-128500000D01*
X9800000Y0D02*
X9800000Y-128500000D01*
X0Y0D02*
X9800000Y0D01*
G04 #@! TD*
D11*
X9115000Y-1454233D02*
X8924729Y-1263962D01*
X8558669Y-1019369D01*
X8151925Y-850890D01*
X7720128Y-765000D01*
X7279872Y-765000D01*
X6848075Y-850890D01*
X6441331Y-1019369D01*
X6075271Y-1263962D01*
X5763962Y-1575271D01*
X5519369Y-1941331D01*
X5350890Y-2348075D01*
X5265000Y-2779872D01*
X5265000Y-3220128D01*
X5350890Y-3651925D01*
X5519369Y-4058669D01*
X5763962Y-4424729D01*
X6075271Y-4736038D01*
X6441331Y-4980631D01*
X6848075Y-5149110D01*
X7279872Y-5235000D01*
X7720128Y-5235000D01*
X8151925Y-5149110D01*
X8558669Y-4980631D01*
X8924729Y-4736038D01*
X9115000Y-4545767D01*
X9115000Y-25681589D01*
X8991466Y-25060541D01*
X8709914Y-24380814D01*
X8301164Y-23769076D01*
X7780924Y-23248836D01*
X7169186Y-22840086D01*
X6489459Y-22558534D01*
X5767865Y-22415000D01*
X5032135Y-22415000D01*
X4310541Y-22558534D01*
X3630814Y-22840086D01*
X3019076Y-23248836D01*
X2498836Y-23769076D01*
X2090086Y-24380814D01*
X1808534Y-25060541D01*
X1665000Y-25782135D01*
X1665000Y-26517865D01*
X1808534Y-27239459D01*
X2090086Y-27919186D01*
X2498836Y-28530924D01*
X3019076Y-29051164D01*
X3630814Y-29459914D01*
X4310541Y-29741466D01*
X5032135Y-29885000D01*
X5767865Y-29885000D01*
X6489459Y-29741466D01*
X7169186Y-29459914D01*
X7780924Y-29051164D01*
X8301164Y-28530924D01*
X8709914Y-27919186D01*
X8991466Y-27239459D01*
X9115000Y-26618411D01*
X9115000Y-40921590D01*
X8991466Y-40300541D01*
X8709914Y-39620814D01*
X8301164Y-39009076D01*
X7780924Y-38488836D01*
X7169186Y-38080086D01*
X6489459Y-37798534D01*
X5767865Y-37655000D01*
X5032135Y-37655000D01*
X4310541Y-37798534D01*
X3630814Y-38080086D01*
X3019076Y-38488836D01*
X2498836Y-39009076D01*
X2090086Y-39620814D01*
X1808534Y-40300541D01*
X1665000Y-41022135D01*
X1665000Y-41757865D01*
X1808534Y-42479459D01*
X2090086Y-43159186D01*
X2498836Y-43770924D01*
X3019076Y-44291164D01*
X3630814Y-44699914D01*
X4310541Y-44981466D01*
X5032135Y-45125000D01*
X5767865Y-45125000D01*
X6489459Y-44981466D01*
X7169186Y-44699914D01*
X7780924Y-44291164D01*
X8301164Y-43770924D01*
X8709914Y-43159186D01*
X8991466Y-42479459D01*
X9115000Y-41858410D01*
X9115000Y-56161590D01*
X8991466Y-55540541D01*
X8709914Y-54860814D01*
X8301164Y-54249076D01*
X7780924Y-53728836D01*
X7169186Y-53320086D01*
X6489459Y-53038534D01*
X5767865Y-52895000D01*
X5032135Y-52895000D01*
X4310541Y-53038534D01*
X3630814Y-53320086D01*
X3019076Y-53728836D01*
X2498836Y-54249076D01*
X2090086Y-54860814D01*
X1808534Y-55540541D01*
X1665000Y-56262135D01*
X1665000Y-56997865D01*
X1808534Y-57719459D01*
X2090086Y-58399186D01*
X2498836Y-59010924D01*
X3019076Y-59531164D01*
X3630814Y-59939914D01*
X4310541Y-60221466D01*
X5032135Y-60365000D01*
X5767865Y-60365000D01*
X6489459Y-60221466D01*
X7169186Y-59939914D01*
X7780924Y-59531164D01*
X8301164Y-59010924D01*
X8709914Y-58399186D01*
X8991466Y-57719459D01*
X9115000Y-57098410D01*
X9115001Y-71401591D01*
X8991466Y-70780541D01*
X8709914Y-70100814D01*
X8301164Y-69489076D01*
X7780924Y-68968836D01*
X7169186Y-68560086D01*
X6489459Y-68278534D01*
X5767865Y-68135000D01*
X5032135Y-68135000D01*
X4310541Y-68278534D01*
X3630814Y-68560086D01*
X3019076Y-68968836D01*
X2498836Y-69489076D01*
X2090086Y-70100814D01*
X1808534Y-70780541D01*
X1665000Y-71502135D01*
X1665000Y-72237865D01*
X1808534Y-72959459D01*
X2090086Y-73639186D01*
X2498836Y-74250924D01*
X3019076Y-74771164D01*
X3630814Y-75179914D01*
X4310541Y-75461466D01*
X5032135Y-75605000D01*
X5767865Y-75605000D01*
X6489459Y-75461466D01*
X7169186Y-75179914D01*
X7780924Y-74771164D01*
X8301164Y-74250924D01*
X8709914Y-73639186D01*
X8991466Y-72959459D01*
X9115001Y-72338409D01*
X9115001Y-86641592D01*
X8991466Y-86020541D01*
X8709914Y-85340814D01*
X8301164Y-84729076D01*
X7780924Y-84208836D01*
X7169186Y-83800086D01*
X6489459Y-83518534D01*
X5767865Y-83375000D01*
X5032135Y-83375000D01*
X4310541Y-83518534D01*
X3630814Y-83800086D01*
X3019076Y-84208836D01*
X2498836Y-84729076D01*
X2090086Y-85340814D01*
X1808534Y-86020541D01*
X1665000Y-86742135D01*
X1665000Y-87477865D01*
X1808534Y-88199459D01*
X2090086Y-88879186D01*
X2498836Y-89490924D01*
X3019076Y-90011164D01*
X3630814Y-90419914D01*
X4310541Y-90701466D01*
X5032135Y-90845000D01*
X5767865Y-90845000D01*
X6489459Y-90701466D01*
X7169186Y-90419914D01*
X7780924Y-90011164D01*
X8301164Y-89490924D01*
X8709914Y-88879186D01*
X8991466Y-88199459D01*
X9115001Y-87578408D01*
X9115001Y-101881592D01*
X8991466Y-101260541D01*
X8709914Y-100580814D01*
X8301164Y-99969076D01*
X7780924Y-99448836D01*
X7169186Y-99040086D01*
X6489459Y-98758534D01*
X5767865Y-98615000D01*
X5032135Y-98615000D01*
X4310541Y-98758534D01*
X3630814Y-99040086D01*
X3019076Y-99448836D01*
X2498836Y-99969076D01*
X2090086Y-100580814D01*
X1808534Y-101260541D01*
X1665000Y-101982135D01*
X1665000Y-102717865D01*
X1808534Y-103439459D01*
X2090086Y-104119186D01*
X2498836Y-104730924D01*
X3019076Y-105251164D01*
X3630814Y-105659914D01*
X4310541Y-105941466D01*
X5032135Y-106085000D01*
X5767865Y-106085000D01*
X6489459Y-105941466D01*
X7169186Y-105659914D01*
X7780924Y-105251164D01*
X8301164Y-104730924D01*
X8709914Y-104119186D01*
X8991466Y-103439459D01*
X9115001Y-102818408D01*
X9115001Y-123954234D01*
X8924729Y-123763962D01*
X8558669Y-123519369D01*
X8151925Y-123350890D01*
X7720128Y-123265000D01*
X7279872Y-123265000D01*
X6848075Y-123350890D01*
X6441331Y-123519369D01*
X6075271Y-123763962D01*
X5763962Y-124075271D01*
X5519369Y-124441331D01*
X5350890Y-124848075D01*
X5265000Y-125279872D01*
X5265000Y-125720128D01*
X5350890Y-126151925D01*
X5519369Y-126558669D01*
X5763962Y-126924729D01*
X6075271Y-127236038D01*
X6441331Y-127480631D01*
X6848075Y-127649110D01*
X7279872Y-127735000D01*
X7720128Y-127735000D01*
X8151925Y-127649110D01*
X8558669Y-127480631D01*
X8924729Y-127236038D01*
X9115001Y-127045766D01*
X9115001Y-127815000D01*
X685000Y-127815000D01*
X685000Y-685000D01*
X9115000Y-685000D01*
X9115000Y-1454233D01*
G04 #@! TA.AperFunction,NonConductor*
D12*
G36*
X9115000Y-1454233D02*
G01*
X8924729Y-1263962D01*
X8558669Y-1019369D01*
X8151925Y-850890D01*
X7720128Y-765000D01*
X7279872Y-765000D01*
X6848075Y-850890D01*
X6441331Y-1019369D01*
X6075271Y-1263962D01*
X5763962Y-1575271D01*
X5519369Y-1941331D01*
X5350890Y-2348075D01*
X5265000Y-2779872D01*
X5265000Y-3220128D01*
X5350890Y-3651925D01*
X5519369Y-4058669D01*
X5763962Y-4424729D01*
X6075271Y-4736038D01*
X6441331Y-4980631D01*
X6848075Y-5149110D01*
X7279872Y-5235000D01*
X7720128Y-5235000D01*
X8151925Y-5149110D01*
X8558669Y-4980631D01*
X8924729Y-4736038D01*
X9115000Y-4545767D01*
X9115000Y-25681589D01*
X8991466Y-25060541D01*
X8709914Y-24380814D01*
X8301164Y-23769076D01*
X7780924Y-23248836D01*
X7169186Y-22840086D01*
X6489459Y-22558534D01*
X5767865Y-22415000D01*
X5032135Y-22415000D01*
X4310541Y-22558534D01*
X3630814Y-22840086D01*
X3019076Y-23248836D01*
X2498836Y-23769076D01*
X2090086Y-24380814D01*
X1808534Y-25060541D01*
X1665000Y-25782135D01*
X1665000Y-26517865D01*
X1808534Y-27239459D01*
X2090086Y-27919186D01*
X2498836Y-28530924D01*
X3019076Y-29051164D01*
X3630814Y-29459914D01*
X4310541Y-29741466D01*
X5032135Y-29885000D01*
X5767865Y-29885000D01*
X6489459Y-29741466D01*
X7169186Y-29459914D01*
X7780924Y-29051164D01*
X8301164Y-28530924D01*
X8709914Y-27919186D01*
X8991466Y-27239459D01*
X9115000Y-26618411D01*
X9115000Y-40921590D01*
X8991466Y-40300541D01*
X8709914Y-39620814D01*
X8301164Y-39009076D01*
X7780924Y-38488836D01*
X7169186Y-38080086D01*
X6489459Y-37798534D01*
X5767865Y-37655000D01*
X5032135Y-37655000D01*
X4310541Y-37798534D01*
X3630814Y-38080086D01*
X3019076Y-38488836D01*
X2498836Y-39009076D01*
X2090086Y-39620814D01*
X1808534Y-40300541D01*
X1665000Y-41022135D01*
X1665000Y-41757865D01*
X1808534Y-42479459D01*
X2090086Y-43159186D01*
X2498836Y-43770924D01*
X3019076Y-44291164D01*
X3630814Y-44699914D01*
X4310541Y-44981466D01*
X5032135Y-45125000D01*
X5767865Y-45125000D01*
X6489459Y-44981466D01*
X7169186Y-44699914D01*
X7780924Y-44291164D01*
X8301164Y-43770924D01*
X8709914Y-43159186D01*
X8991466Y-42479459D01*
X9115000Y-41858410D01*
X9115000Y-56161590D01*
X8991466Y-55540541D01*
X8709914Y-54860814D01*
X8301164Y-54249076D01*
X7780924Y-53728836D01*
X7169186Y-53320086D01*
X6489459Y-53038534D01*
X5767865Y-52895000D01*
X5032135Y-52895000D01*
X4310541Y-53038534D01*
X3630814Y-53320086D01*
X3019076Y-53728836D01*
X2498836Y-54249076D01*
X2090086Y-54860814D01*
X1808534Y-55540541D01*
X1665000Y-56262135D01*
X1665000Y-56997865D01*
X1808534Y-57719459D01*
X2090086Y-58399186D01*
X2498836Y-59010924D01*
X3019076Y-59531164D01*
X3630814Y-59939914D01*
X4310541Y-60221466D01*
X5032135Y-60365000D01*
X5767865Y-60365000D01*
X6489459Y-60221466D01*
X7169186Y-59939914D01*
X7780924Y-59531164D01*
X8301164Y-59010924D01*
X8709914Y-58399186D01*
X8991466Y-57719459D01*
X9115000Y-57098410D01*
X9115001Y-71401591D01*
X8991466Y-70780541D01*
X8709914Y-70100814D01*
X8301164Y-69489076D01*
X7780924Y-68968836D01*
X7169186Y-68560086D01*
X6489459Y-68278534D01*
X5767865Y-68135000D01*
X5032135Y-68135000D01*
X4310541Y-68278534D01*
X3630814Y-68560086D01*
X3019076Y-68968836D01*
X2498836Y-69489076D01*
X2090086Y-70100814D01*
X1808534Y-70780541D01*
X1665000Y-71502135D01*
X1665000Y-72237865D01*
X1808534Y-72959459D01*
X2090086Y-73639186D01*
X2498836Y-74250924D01*
X3019076Y-74771164D01*
X3630814Y-75179914D01*
X4310541Y-75461466D01*
X5032135Y-75605000D01*
X5767865Y-75605000D01*
X6489459Y-75461466D01*
X7169186Y-75179914D01*
X7780924Y-74771164D01*
X8301164Y-74250924D01*
X8709914Y-73639186D01*
X8991466Y-72959459D01*
X9115001Y-72338409D01*
X9115001Y-86641592D01*
X8991466Y-86020541D01*
X8709914Y-85340814D01*
X8301164Y-84729076D01*
X7780924Y-84208836D01*
X7169186Y-83800086D01*
X6489459Y-83518534D01*
X5767865Y-83375000D01*
X5032135Y-83375000D01*
X4310541Y-83518534D01*
X3630814Y-83800086D01*
X3019076Y-84208836D01*
X2498836Y-84729076D01*
X2090086Y-85340814D01*
X1808534Y-86020541D01*
X1665000Y-86742135D01*
X1665000Y-87477865D01*
X1808534Y-88199459D01*
X2090086Y-88879186D01*
X2498836Y-89490924D01*
X3019076Y-90011164D01*
X3630814Y-90419914D01*
X4310541Y-90701466D01*
X5032135Y-90845000D01*
X5767865Y-90845000D01*
X6489459Y-90701466D01*
X7169186Y-90419914D01*
X7780924Y-90011164D01*
X8301164Y-89490924D01*
X8709914Y-88879186D01*
X8991466Y-88199459D01*
X9115001Y-87578408D01*
X9115001Y-101881592D01*
X8991466Y-101260541D01*
X8709914Y-100580814D01*
X8301164Y-99969076D01*
X7780924Y-99448836D01*
X7169186Y-99040086D01*
X6489459Y-98758534D01*
X5767865Y-98615000D01*
X5032135Y-98615000D01*
X4310541Y-98758534D01*
X3630814Y-99040086D01*
X3019076Y-99448836D01*
X2498836Y-99969076D01*
X2090086Y-100580814D01*
X1808534Y-101260541D01*
X1665000Y-101982135D01*
X1665000Y-102717865D01*
X1808534Y-103439459D01*
X2090086Y-104119186D01*
X2498836Y-104730924D01*
X3019076Y-105251164D01*
X3630814Y-105659914D01*
X4310541Y-105941466D01*
X5032135Y-106085000D01*
X5767865Y-106085000D01*
X6489459Y-105941466D01*
X7169186Y-105659914D01*
X7780924Y-105251164D01*
X8301164Y-104730924D01*
X8709914Y-104119186D01*
X8991466Y-103439459D01*
X9115001Y-102818408D01*
X9115001Y-123954234D01*
X8924729Y-123763962D01*
X8558669Y-123519369D01*
X8151925Y-123350890D01*
X7720128Y-123265000D01*
X7279872Y-123265000D01*
X6848075Y-123350890D01*
X6441331Y-123519369D01*
X6075271Y-123763962D01*
X5763962Y-124075271D01*
X5519369Y-124441331D01*
X5350890Y-124848075D01*
X5265000Y-125279872D01*
X5265000Y-125720128D01*
X5350890Y-126151925D01*
X5519369Y-126558669D01*
X5763962Y-126924729D01*
X6075271Y-127236038D01*
X6441331Y-127480631D01*
X6848075Y-127649110D01*
X7279872Y-127735000D01*
X7720128Y-127735000D01*
X8151925Y-127649110D01*
X8558669Y-127480631D01*
X8924729Y-127236038D01*
X9115001Y-127045766D01*
X9115001Y-127815000D01*
X685000Y-127815000D01*
X685000Y-685000D01*
X9115000Y-685000D01*
X9115000Y-1454233D01*
G37*
G04 #@! TD.AperFunction*
M02*
