M48
; DRILL file {KiCad (5.1.9)-1} date 02/26/21 13:33:59
; FORMAT={-:-/ absolute / inch / decimal}
; #@! TF.CreationDate,2021-02-26T13:33:59+01:00
; #@! TF.GenerationSoftware,Kicad,Pcbnew,(5.1.9)-1
; #@! TF.FileFunction,Plated,1,2,PTH
FMAT,2
INCH
T1C0.0157
T2C0.0295
T3C0.0315
T4C0.0394
T5C0.1063
%
G90
G05
T1
X0.2Y-2.3
X0.2Y-2.65
X0.372Y-1.653
X0.425Y-1.05
X0.5Y-1.25
X0.5Y-1.55
X0.6Y-2.5
X0.6016Y-0.7984
X0.625Y-1.9
X0.747Y-1.653
X0.8Y-2.0
X0.8Y-2.45
X0.825Y-0.95
X0.825Y-1.45
X0.9Y-3.375
X1.0Y-1.05
X1.0Y-1.65
X1.0Y-1.9
X1.0484Y-0.7984
X1.05Y-1.55
X1.05Y-2.8
X1.05Y-3.15
X1.05Y-3.375
X1.1Y-0.75
X1.1Y-1.55
X1.1Y-2.125
X1.1Y-2.55
X1.1Y-2.8
X1.2Y-3.325
X1.3Y-2.0
X1.3Y-2.425
X1.425Y-1.45
X1.5Y-0.8
X1.525Y-2.5
X1.7Y-0.75
X1.725Y-1.55
X1.8Y-1.55
X1.8Y-2.5
X1.9Y-2.55
X1.95Y-2.3
X1.95Y-2.65
X2.05Y-0.8
X2.05Y-1.25
X2.1Y-0.75
X2.1Y-1.05
T2
X0.275Y-2.1
X0.322Y-1.7346
X0.325Y-2.1
X0.372Y-1.7346
X0.375Y-2.1
X0.422Y-1.7346
X1.55Y-1.55
X1.6Y-1.55
X1.65Y-1.55
X1.675Y-1.95
X1.725Y-1.95
X1.775Y-1.95
T3
X0.225Y-1.9
X0.3Y-0.95
X0.3Y-1.15
X0.3Y-1.35
X0.3Y-1.55
X0.3Y-3.375
X0.322Y-2.25
X0.322Y-2.55
X0.322Y-2.65
X0.322Y-2.95
X0.45Y-2.45
X0.45Y-2.75
X0.45Y-2.85
X0.45Y-3.15
X0.5Y-0.1
X0.5Y-0.4
X0.525Y-1.9
X0.6Y-0.95
X0.6Y-1.15
X0.6Y-1.35
X0.6Y-1.55
X0.6Y-2.6346
X0.6Y-2.9346
X0.6Y-3.375
X0.6016Y-0.6
X0.625Y-2.125
X0.697Y-3.375
X0.7Y-0.6
X0.7Y-0.95
X0.7Y-1.1
X0.7Y-2.0
X0.725Y-2.55
X0.725Y-2.85
X0.725Y-2.95
X0.725Y-3.25
X0.75Y-1.25
X0.75Y-1.75
X0.9Y-1.1
X0.9Y-1.25
X0.9Y-1.35
X0.9Y-1.45
X0.9Y-1.55
X0.9Y-1.65
X0.9Y-1.75
X0.9Y-1.85
X0.9Y-2.0
X0.9Y-2.3
X0.9Y-2.4
X0.9Y-2.5
X0.9Y-2.6
X0.9Y-2.7
X0.9Y-2.8
X0.9Y-2.9
X0.9Y-3.0
X0.925Y-2.125
X0.997Y-3.375
X1.0Y-0.95
X1.1Y-0.95
X1.15Y-3.375
X1.2Y-1.25
X1.2Y-1.35
X1.2Y-1.45
X1.2Y-1.55
X1.2Y-1.65
X1.2Y-1.75
X1.2Y-1.85
X1.2Y-2.0
X1.2Y-2.3
X1.2Y-2.4
X1.2Y-2.5
X1.2Y-2.6
X1.2Y-2.7
X1.2Y-2.8
X1.2Y-2.9
X1.2Y-3.0
X1.3Y-1.1
X1.35Y-1.25
X1.35Y-1.75
X1.375Y-2.55
X1.375Y-2.85
X1.375Y-2.95
X1.375Y-3.25
X1.4Y-0.95
X1.4Y-1.1
X1.4Y-2.0
X1.45Y-3.375
X1.5Y-0.95
X1.5Y-1.25
X1.5Y-1.35
X1.5Y-1.75
X1.525Y-1.875
X1.525Y-2.175
X1.525Y-2.625
X1.525Y-2.925
X1.55Y-3.375
X1.6016Y-0.6
X1.65Y-1.15
X1.65Y-1.35
X1.65Y-2.425
X1.65Y-2.725
X1.65Y-2.85
X1.65Y-3.15
X1.7Y-0.6
X1.8Y-0.1
X1.8Y-0.4
X1.8Y-0.95
X1.8Y-1.75
X1.8Y-2.625
X1.8Y-2.925
X1.85Y-3.375
X1.9Y-1.875
X1.9Y-2.175
X1.95Y-1.15
X1.95Y-1.35
T4
X0.1Y-1.05
X0.1Y-1.15
X0.1Y-1.25
X0.1Y-1.35
X0.1Y-1.45
X0.1Y-2.55
X0.1Y-2.65
X0.1Y-2.75
X0.1Y-2.85
X0.1Y-2.95
X0.1Y-3.05
X0.1Y-3.15
X0.8Y-0.2
X0.8Y-0.3
X0.9Y-0.2
X0.9Y-0.3
X1.0Y-0.2
X1.0Y-0.3
X1.1Y-0.2
X1.1Y-0.3
X1.2Y-0.2
X1.2Y-0.3
X1.3Y-0.2
X1.3Y-0.3
X1.4Y-0.2
X1.4Y-0.3
X1.5Y-0.2
X1.5Y-0.3
X2.2Y-1.05
X2.2Y-1.15
X2.2Y-1.25
X2.2Y-1.35
X2.2Y-1.45
X2.2Y-2.55
X2.2Y-2.65
X2.2Y-2.75
X2.2Y-2.85
X2.2Y-2.95
X2.2Y-3.05
X2.2Y-3.15
T5
X0.2Y-0.2
X0.2Y-3.8
X2.1Y-0.2
X2.1Y-3.8
T0
M30
