G04 #@! TF.GenerationSoftware,KiCad,Pcbnew,(5.1.9)-1*
G04 #@! TF.CreationDate,2021-03-14T12:27:11+01:00*
G04 #@! TF.ProjectId,Front,46726f6e-742e-46b6-9963-61645f706362,rev?*
G04 #@! TF.SameCoordinates,Original*
G04 #@! TF.FileFunction,Legend,Top*
G04 #@! TF.FilePolarity,Positive*
%FSLAX46Y46*%
G04 Gerber Fmt 4.6, Leading zero omitted, Abs format (unit mm)*
G04 Created by KiCad (PCBNEW (5.1.9)-1) date 2021-03-14 12:27:11*
%MOMM*%
%LPD*%
G01*
G04 APERTURE LIST*
%ADD10C,0.010000*%
G04 APERTURE END LIST*
D10*
G36*
X5781842Y-6459291D02*
G01*
X5868140Y-6496698D01*
X5882456Y-6508432D01*
X5913285Y-6539947D01*
X5932218Y-6572832D01*
X5939065Y-6617207D01*
X5933634Y-6683191D01*
X5915736Y-6780907D01*
X5885180Y-6920473D01*
X5873750Y-6970986D01*
X5846402Y-7094467D01*
X5825304Y-7195395D01*
X5812722Y-7262528D01*
X5810505Y-7284735D01*
X5839472Y-7284088D01*
X5913445Y-7278412D01*
X6021305Y-7268653D01*
X6151932Y-7255757D01*
X6154914Y-7255451D01*
X6307142Y-7241170D01*
X6415560Y-7234916D01*
X6492244Y-7236802D01*
X6549271Y-7246947D01*
X6585303Y-7259581D01*
X6654180Y-7301512D01*
X6677696Y-7356122D01*
X6678000Y-7365164D01*
X6681249Y-7406800D01*
X6701155Y-7418721D01*
X6752959Y-7405115D01*
X6783834Y-7394246D01*
X6865357Y-7375313D01*
X6979278Y-7361359D01*
X7101585Y-7355281D01*
X7107062Y-7355238D01*
X7324458Y-7354000D01*
X7351606Y-7255677D01*
X7370124Y-7187026D01*
X7398399Y-7080354D01*
X7432039Y-6952282D01*
X7455698Y-6861608D01*
X7501206Y-6699987D01*
X7543723Y-6586220D01*
X7589112Y-6512412D01*
X7643233Y-6470673D01*
X7711949Y-6453109D01*
X7760736Y-6450888D01*
X7874577Y-6472089D01*
X7957794Y-6530264D01*
X8000713Y-6617276D01*
X8004445Y-6655929D01*
X7995764Y-6754841D01*
X7973082Y-6882870D01*
X7941438Y-7016000D01*
X7905870Y-7130213D01*
X7903756Y-7135848D01*
X7878056Y-7208895D01*
X7864145Y-7258942D01*
X7863334Y-7265761D01*
X7880754Y-7276512D01*
X7936035Y-7279581D01*
X8033710Y-7274748D01*
X8178309Y-7261795D01*
X8364842Y-7241592D01*
X8524276Y-7231582D01*
X8634641Y-7243745D01*
X8654120Y-7249962D01*
X8708559Y-7277508D01*
X8732642Y-7318527D01*
X8738217Y-7393894D01*
X8738222Y-7398146D01*
X8723147Y-7503047D01*
X8688834Y-7556483D01*
X8644965Y-7575690D01*
X8556183Y-7601312D01*
X8433282Y-7630682D01*
X8287058Y-7661131D01*
X8196642Y-7678087D01*
X8043764Y-7706438D01*
X7909655Y-7732876D01*
X7804552Y-7755261D01*
X7738693Y-7771451D01*
X7722279Y-7777298D01*
X7704751Y-7812082D01*
X7681441Y-7892077D01*
X7654430Y-8006598D01*
X7625797Y-8144962D01*
X7597622Y-8296484D01*
X7571986Y-8450482D01*
X7550968Y-8596271D01*
X7536649Y-8723168D01*
X7535457Y-8736888D01*
X7527883Y-8847756D01*
X7529425Y-8917612D01*
X7542367Y-8961473D01*
X7568996Y-8994357D01*
X7575550Y-9000388D01*
X7650389Y-9032945D01*
X7751726Y-9032118D01*
X7863542Y-9001651D01*
X7969821Y-8945290D01*
X8030883Y-8893951D01*
X8113092Y-8829413D01*
X8214194Y-8777770D01*
X8315209Y-8746339D01*
X8397158Y-8742440D01*
X8412690Y-8746719D01*
X8445602Y-8787022D01*
X8454677Y-8863571D01*
X8439762Y-8961376D01*
X8415607Y-9032930D01*
X8351589Y-9138654D01*
X8251718Y-9250721D01*
X8132196Y-9353644D01*
X8009222Y-9431935D01*
X7986978Y-9442670D01*
X7824138Y-9493477D01*
X7641274Y-9513239D01*
X7458792Y-9501991D01*
X7297096Y-9459769D01*
X7256306Y-9441381D01*
X7164179Y-9388181D01*
X7098462Y-9330304D01*
X7055484Y-9257799D01*
X7031571Y-9160717D01*
X7023052Y-9029110D01*
X7026255Y-8853027D01*
X7027546Y-8821555D01*
X7037769Y-8643731D01*
X7053785Y-8472822D01*
X7077676Y-8292787D01*
X7111524Y-8087586D01*
X7149340Y-7883166D01*
X7154275Y-7830582D01*
X7131479Y-7809361D01*
X7069259Y-7805398D01*
X6909694Y-7788290D01*
X6788575Y-7739436D01*
X6710097Y-7661660D01*
X6678455Y-7557783D01*
X6678000Y-7542149D01*
X6678000Y-7460635D01*
X6625911Y-7524962D01*
X6595240Y-7552926D01*
X6546569Y-7577742D01*
X6470878Y-7602232D01*
X6359143Y-7629217D01*
X6202342Y-7661519D01*
X6167300Y-7668375D01*
X6018396Y-7697528D01*
X5885714Y-7723846D01*
X5780854Y-7745004D01*
X5715414Y-7758676D01*
X5703300Y-7761423D01*
X5667257Y-7780417D01*
X5635568Y-7822827D01*
X5606132Y-7895157D01*
X5576853Y-8003913D01*
X5545632Y-8155598D01*
X5510372Y-8356718D01*
X5509404Y-8362534D01*
X5476216Y-8588500D01*
X5460501Y-8764404D01*
X5462266Y-8893861D01*
X5481518Y-8980481D01*
X5510622Y-9022301D01*
X5571686Y-9040841D01*
X5664409Y-9032968D01*
X5773175Y-9003106D01*
X5882363Y-8955676D01*
X5976357Y-8895102D01*
X5984904Y-8887993D01*
X6074095Y-8823828D01*
X6169308Y-8773083D01*
X6205218Y-8759680D01*
X6299391Y-8746074D01*
X6359001Y-8768154D01*
X6386809Y-8819261D01*
X6385574Y-8892739D01*
X6358056Y-8981928D01*
X6307016Y-9080171D01*
X6235213Y-9180811D01*
X6145408Y-9277189D01*
X6040360Y-9362647D01*
X5928148Y-9428039D01*
X5764544Y-9484650D01*
X5584577Y-9513075D01*
X5411016Y-9511011D01*
X5307552Y-9490803D01*
X5147122Y-9417253D01*
X5028557Y-9307019D01*
X4954723Y-9163925D01*
X4928488Y-8991796D01*
X4928468Y-8985234D01*
X4935740Y-8807506D01*
X4955250Y-8596719D01*
X4984295Y-8372130D01*
X5020174Y-8152999D01*
X5060186Y-7958584D01*
X5087026Y-7854944D01*
X5086873Y-7822065D01*
X5052315Y-7807934D01*
X4996899Y-7805555D01*
X4844568Y-7791008D01*
X4730084Y-7749142D01*
X4659683Y-7682622D01*
X4647344Y-7656168D01*
X4618632Y-7549928D01*
X4621378Y-7472561D01*
X4660969Y-7419079D01*
X4742788Y-7384495D01*
X4872220Y-7363824D01*
X4971217Y-7356246D01*
X5247825Y-7339888D01*
X5351749Y-6951846D01*
X5392978Y-6807112D01*
X5434202Y-6678455D01*
X5471330Y-6577607D01*
X5500270Y-6516298D01*
X5506766Y-6507346D01*
X5578724Y-6464550D01*
X5677894Y-6448553D01*
X5781842Y-6459291D01*
G37*
X5781842Y-6459291D02*
X5868140Y-6496698D01*
X5882456Y-6508432D01*
X5913285Y-6539947D01*
X5932218Y-6572832D01*
X5939065Y-6617207D01*
X5933634Y-6683191D01*
X5915736Y-6780907D01*
X5885180Y-6920473D01*
X5873750Y-6970986D01*
X5846402Y-7094467D01*
X5825304Y-7195395D01*
X5812722Y-7262528D01*
X5810505Y-7284735D01*
X5839472Y-7284088D01*
X5913445Y-7278412D01*
X6021305Y-7268653D01*
X6151932Y-7255757D01*
X6154914Y-7255451D01*
X6307142Y-7241170D01*
X6415560Y-7234916D01*
X6492244Y-7236802D01*
X6549271Y-7246947D01*
X6585303Y-7259581D01*
X6654180Y-7301512D01*
X6677696Y-7356122D01*
X6678000Y-7365164D01*
X6681249Y-7406800D01*
X6701155Y-7418721D01*
X6752959Y-7405115D01*
X6783834Y-7394246D01*
X6865357Y-7375313D01*
X6979278Y-7361359D01*
X7101585Y-7355281D01*
X7107062Y-7355238D01*
X7324458Y-7354000D01*
X7351606Y-7255677D01*
X7370124Y-7187026D01*
X7398399Y-7080354D01*
X7432039Y-6952282D01*
X7455698Y-6861608D01*
X7501206Y-6699987D01*
X7543723Y-6586220D01*
X7589112Y-6512412D01*
X7643233Y-6470673D01*
X7711949Y-6453109D01*
X7760736Y-6450888D01*
X7874577Y-6472089D01*
X7957794Y-6530264D01*
X8000713Y-6617276D01*
X8004445Y-6655929D01*
X7995764Y-6754841D01*
X7973082Y-6882870D01*
X7941438Y-7016000D01*
X7905870Y-7130213D01*
X7903756Y-7135848D01*
X7878056Y-7208895D01*
X7864145Y-7258942D01*
X7863334Y-7265761D01*
X7880754Y-7276512D01*
X7936035Y-7279581D01*
X8033710Y-7274748D01*
X8178309Y-7261795D01*
X8364842Y-7241592D01*
X8524276Y-7231582D01*
X8634641Y-7243745D01*
X8654120Y-7249962D01*
X8708559Y-7277508D01*
X8732642Y-7318527D01*
X8738217Y-7393894D01*
X8738222Y-7398146D01*
X8723147Y-7503047D01*
X8688834Y-7556483D01*
X8644965Y-7575690D01*
X8556183Y-7601312D01*
X8433282Y-7630682D01*
X8287058Y-7661131D01*
X8196642Y-7678087D01*
X8043764Y-7706438D01*
X7909655Y-7732876D01*
X7804552Y-7755261D01*
X7738693Y-7771451D01*
X7722279Y-7777298D01*
X7704751Y-7812082D01*
X7681441Y-7892077D01*
X7654430Y-8006598D01*
X7625797Y-8144962D01*
X7597622Y-8296484D01*
X7571986Y-8450482D01*
X7550968Y-8596271D01*
X7536649Y-8723168D01*
X7535457Y-8736888D01*
X7527883Y-8847756D01*
X7529425Y-8917612D01*
X7542367Y-8961473D01*
X7568996Y-8994357D01*
X7575550Y-9000388D01*
X7650389Y-9032945D01*
X7751726Y-9032118D01*
X7863542Y-9001651D01*
X7969821Y-8945290D01*
X8030883Y-8893951D01*
X8113092Y-8829413D01*
X8214194Y-8777770D01*
X8315209Y-8746339D01*
X8397158Y-8742440D01*
X8412690Y-8746719D01*
X8445602Y-8787022D01*
X8454677Y-8863571D01*
X8439762Y-8961376D01*
X8415607Y-9032930D01*
X8351589Y-9138654D01*
X8251718Y-9250721D01*
X8132196Y-9353644D01*
X8009222Y-9431935D01*
X7986978Y-9442670D01*
X7824138Y-9493477D01*
X7641274Y-9513239D01*
X7458792Y-9501991D01*
X7297096Y-9459769D01*
X7256306Y-9441381D01*
X7164179Y-9388181D01*
X7098462Y-9330304D01*
X7055484Y-9257799D01*
X7031571Y-9160717D01*
X7023052Y-9029110D01*
X7026255Y-8853027D01*
X7027546Y-8821555D01*
X7037769Y-8643731D01*
X7053785Y-8472822D01*
X7077676Y-8292787D01*
X7111524Y-8087586D01*
X7149340Y-7883166D01*
X7154275Y-7830582D01*
X7131479Y-7809361D01*
X7069259Y-7805398D01*
X6909694Y-7788290D01*
X6788575Y-7739436D01*
X6710097Y-7661660D01*
X6678455Y-7557783D01*
X6678000Y-7542149D01*
X6678000Y-7460635D01*
X6625911Y-7524962D01*
X6595240Y-7552926D01*
X6546569Y-7577742D01*
X6470878Y-7602232D01*
X6359143Y-7629217D01*
X6202342Y-7661519D01*
X6167300Y-7668375D01*
X6018396Y-7697528D01*
X5885714Y-7723846D01*
X5780854Y-7745004D01*
X5715414Y-7758676D01*
X5703300Y-7761423D01*
X5667257Y-7780417D01*
X5635568Y-7822827D01*
X5606132Y-7895157D01*
X5576853Y-8003913D01*
X5545632Y-8155598D01*
X5510372Y-8356718D01*
X5509404Y-8362534D01*
X5476216Y-8588500D01*
X5460501Y-8764404D01*
X5462266Y-8893861D01*
X5481518Y-8980481D01*
X5510622Y-9022301D01*
X5571686Y-9040841D01*
X5664409Y-9032968D01*
X5773175Y-9003106D01*
X5882363Y-8955676D01*
X5976357Y-8895102D01*
X5984904Y-8887993D01*
X6074095Y-8823828D01*
X6169308Y-8773083D01*
X6205218Y-8759680D01*
X6299391Y-8746074D01*
X6359001Y-8768154D01*
X6386809Y-8819261D01*
X6385574Y-8892739D01*
X6358056Y-8981928D01*
X6307016Y-9080171D01*
X6235213Y-9180811D01*
X6145408Y-9277189D01*
X6040360Y-9362647D01*
X5928148Y-9428039D01*
X5764544Y-9484650D01*
X5584577Y-9513075D01*
X5411016Y-9511011D01*
X5307552Y-9490803D01*
X5147122Y-9417253D01*
X5028557Y-9307019D01*
X4954723Y-9163925D01*
X4928488Y-8991796D01*
X4928468Y-8985234D01*
X4935740Y-8807506D01*
X4955250Y-8596719D01*
X4984295Y-8372130D01*
X5020174Y-8152999D01*
X5060186Y-7958584D01*
X5087026Y-7854944D01*
X5086873Y-7822065D01*
X5052315Y-7807934D01*
X4996899Y-7805555D01*
X4844568Y-7791008D01*
X4730084Y-7749142D01*
X4659683Y-7682622D01*
X4647344Y-7656168D01*
X4618632Y-7549928D01*
X4621378Y-7472561D01*
X4660969Y-7419079D01*
X4742788Y-7384495D01*
X4872220Y-7363824D01*
X4971217Y-7356246D01*
X5247825Y-7339888D01*
X5351749Y-6951846D01*
X5392978Y-6807112D01*
X5434202Y-6678455D01*
X5471330Y-6577607D01*
X5500270Y-6516298D01*
X5506766Y-6507346D01*
X5578724Y-6464550D01*
X5677894Y-6448553D01*
X5781842Y-6459291D01*
G36*
X3101291Y-6458050D02*
G01*
X3196272Y-6492038D01*
X3200387Y-6494822D01*
X3240625Y-6535722D01*
X3259255Y-6596741D01*
X3263111Y-6676579D01*
X3269526Y-6742902D01*
X3289807Y-6837250D01*
X3325510Y-6964943D01*
X3378190Y-7131299D01*
X3449405Y-7341636D01*
X3499986Y-7486367D01*
X3570457Y-7684404D01*
X3640324Y-7877334D01*
X3705718Y-8054730D01*
X3762773Y-8206165D01*
X3807621Y-8321214D01*
X3827731Y-8370000D01*
X3893727Y-8505579D01*
X3979188Y-8655222D01*
X4074957Y-8805126D01*
X4171878Y-8941490D01*
X4260794Y-9050515D01*
X4315186Y-9104736D01*
X4373140Y-9167775D01*
X4397933Y-9241239D01*
X4402109Y-9298028D01*
X4396739Y-9386270D01*
X4367590Y-9446688D01*
X4326522Y-9487569D01*
X4221706Y-9542210D01*
X4093971Y-9552325D01*
X3956256Y-9516982D01*
X3950926Y-9514698D01*
X3882073Y-9465253D01*
X3797322Y-9374907D01*
X3703881Y-9254257D01*
X3608951Y-9113903D01*
X3519739Y-8964443D01*
X3443449Y-8816476D01*
X3390867Y-8690775D01*
X3338983Y-8545884D01*
X3223436Y-8558675D01*
X3148658Y-8570419D01*
X3033170Y-8592565D01*
X2891068Y-8622003D01*
X2736445Y-8655622D01*
X2583396Y-8690312D01*
X2446014Y-8722961D01*
X2338393Y-8750460D01*
X2287441Y-8765260D01*
X2195908Y-8786048D01*
X2117808Y-8793333D01*
X2075614Y-8798397D01*
X2038299Y-8819668D01*
X1997102Y-8866267D01*
X1943263Y-8947313D01*
X1897227Y-9022973D01*
X1785610Y-9193449D01*
X1676097Y-9331053D01*
X1574398Y-9429554D01*
X1486219Y-9482718D01*
X1472271Y-9486980D01*
X1379097Y-9483944D01*
X1288882Y-9438023D01*
X1218932Y-9360920D01*
X1191957Y-9297396D01*
X1182517Y-9242887D01*
X1187731Y-9191101D01*
X1212200Y-9127284D01*
X1260522Y-9036679D01*
X1288311Y-8988339D01*
X1350040Y-8885358D01*
X1433130Y-8751404D01*
X1527555Y-8602420D01*
X1623293Y-8454350D01*
X1641588Y-8426444D01*
X1745038Y-8265247D01*
X1750078Y-8257111D01*
X2330319Y-8257111D01*
X2411201Y-8257111D01*
X2477147Y-8250159D01*
X2577639Y-8231779D01*
X2692846Y-8205682D01*
X2712778Y-8200666D01*
X2829676Y-8173479D01*
X2936431Y-8153340D01*
X3012596Y-8144024D01*
X3020681Y-8143790D01*
X3094154Y-8140186D01*
X3139672Y-8124803D01*
X3158422Y-8089480D01*
X3151587Y-8026054D01*
X3120352Y-7926362D01*
X3071168Y-7795821D01*
X3022019Y-7663904D01*
X2979390Y-7540128D01*
X2948606Y-7440495D01*
X2936408Y-7390769D01*
X2920465Y-7315212D01*
X2905650Y-7264658D01*
X2903148Y-7259343D01*
X2885335Y-7273200D01*
X2846725Y-7328432D01*
X2792814Y-7416471D01*
X2729101Y-7528747D01*
X2722081Y-7541565D01*
X2643597Y-7685268D01*
X2561792Y-7834884D01*
X2487621Y-7970388D01*
X2442608Y-8052500D01*
X2330319Y-8257111D01*
X1750078Y-8257111D01*
X1856781Y-8084868D01*
X1963583Y-7907007D01*
X2052211Y-7753367D01*
X2054589Y-7749111D01*
X2219744Y-7454663D01*
X2360794Y-7206703D01*
X2479924Y-7001770D01*
X2579320Y-6836404D01*
X2661168Y-6707144D01*
X2727652Y-6610531D01*
X2780958Y-6543103D01*
X2823271Y-6501400D01*
X2854356Y-6482784D01*
X2980387Y-6454724D01*
X3101291Y-6458050D01*
G37*
X3101291Y-6458050D02*
X3196272Y-6492038D01*
X3200387Y-6494822D01*
X3240625Y-6535722D01*
X3259255Y-6596741D01*
X3263111Y-6676579D01*
X3269526Y-6742902D01*
X3289807Y-6837250D01*
X3325510Y-6964943D01*
X3378190Y-7131299D01*
X3449405Y-7341636D01*
X3499986Y-7486367D01*
X3570457Y-7684404D01*
X3640324Y-7877334D01*
X3705718Y-8054730D01*
X3762773Y-8206165D01*
X3807621Y-8321214D01*
X3827731Y-8370000D01*
X3893727Y-8505579D01*
X3979188Y-8655222D01*
X4074957Y-8805126D01*
X4171878Y-8941490D01*
X4260794Y-9050515D01*
X4315186Y-9104736D01*
X4373140Y-9167775D01*
X4397933Y-9241239D01*
X4402109Y-9298028D01*
X4396739Y-9386270D01*
X4367590Y-9446688D01*
X4326522Y-9487569D01*
X4221706Y-9542210D01*
X4093971Y-9552325D01*
X3956256Y-9516982D01*
X3950926Y-9514698D01*
X3882073Y-9465253D01*
X3797322Y-9374907D01*
X3703881Y-9254257D01*
X3608951Y-9113903D01*
X3519739Y-8964443D01*
X3443449Y-8816476D01*
X3390867Y-8690775D01*
X3338983Y-8545884D01*
X3223436Y-8558675D01*
X3148658Y-8570419D01*
X3033170Y-8592565D01*
X2891068Y-8622003D01*
X2736445Y-8655622D01*
X2583396Y-8690312D01*
X2446014Y-8722961D01*
X2338393Y-8750460D01*
X2287441Y-8765260D01*
X2195908Y-8786048D01*
X2117808Y-8793333D01*
X2075614Y-8798397D01*
X2038299Y-8819668D01*
X1997102Y-8866267D01*
X1943263Y-8947313D01*
X1897227Y-9022973D01*
X1785610Y-9193449D01*
X1676097Y-9331053D01*
X1574398Y-9429554D01*
X1486219Y-9482718D01*
X1472271Y-9486980D01*
X1379097Y-9483944D01*
X1288882Y-9438023D01*
X1218932Y-9360920D01*
X1191957Y-9297396D01*
X1182517Y-9242887D01*
X1187731Y-9191101D01*
X1212200Y-9127284D01*
X1260522Y-9036679D01*
X1288311Y-8988339D01*
X1350040Y-8885358D01*
X1433130Y-8751404D01*
X1527555Y-8602420D01*
X1623293Y-8454350D01*
X1641588Y-8426444D01*
X1745038Y-8265247D01*
X1750078Y-8257111D01*
X2330319Y-8257111D01*
X2411201Y-8257111D01*
X2477147Y-8250159D01*
X2577639Y-8231779D01*
X2692846Y-8205682D01*
X2712778Y-8200666D01*
X2829676Y-8173479D01*
X2936431Y-8153340D01*
X3012596Y-8144024D01*
X3020681Y-8143790D01*
X3094154Y-8140186D01*
X3139672Y-8124803D01*
X3158422Y-8089480D01*
X3151587Y-8026054D01*
X3120352Y-7926362D01*
X3071168Y-7795821D01*
X3022019Y-7663904D01*
X2979390Y-7540128D01*
X2948606Y-7440495D01*
X2936408Y-7390769D01*
X2920465Y-7315212D01*
X2905650Y-7264658D01*
X2903148Y-7259343D01*
X2885335Y-7273200D01*
X2846725Y-7328432D01*
X2792814Y-7416471D01*
X2729101Y-7528747D01*
X2722081Y-7541565D01*
X2643597Y-7685268D01*
X2561792Y-7834884D01*
X2487621Y-7970388D01*
X2442608Y-8052500D01*
X2330319Y-8257111D01*
X1750078Y-8257111D01*
X1856781Y-8084868D01*
X1963583Y-7907007D01*
X2052211Y-7753367D01*
X2054589Y-7749111D01*
X2219744Y-7454663D01*
X2360794Y-7206703D01*
X2479924Y-7001770D01*
X2579320Y-6836404D01*
X2661168Y-6707144D01*
X2727652Y-6610531D01*
X2780958Y-6543103D01*
X2823271Y-6501400D01*
X2854356Y-6482784D01*
X2980387Y-6454724D01*
X3101291Y-6458050D01*
G36*
X5060322Y-26380987D02*
G01*
X5106334Y-26437008D01*
X5109199Y-26446548D01*
X5107951Y-26503057D01*
X5089810Y-26601029D01*
X5057215Y-26728895D01*
X5030838Y-26818047D01*
X4965258Y-27049257D01*
X4925870Y-27235595D01*
X4912872Y-27375640D01*
X4926458Y-27467973D01*
X4937968Y-27489357D01*
X4969645Y-27520808D01*
X5011689Y-27524794D01*
X5078310Y-27506361D01*
X5190072Y-27442309D01*
X5307259Y-27322184D01*
X5429795Y-27146087D01*
X5557599Y-26914121D01*
X5604689Y-26817369D01*
X5676624Y-26668123D01*
X5732026Y-26564114D01*
X5777031Y-26498890D01*
X5817778Y-26465995D01*
X5860403Y-26458977D01*
X5911042Y-26471381D01*
X5927803Y-26477575D01*
X5958122Y-26514437D01*
X5972332Y-26577798D01*
X5967455Y-26639857D01*
X5948354Y-26669557D01*
X5933051Y-26704881D01*
X5917879Y-26783812D01*
X5904074Y-26893523D01*
X5892868Y-27021187D01*
X5885494Y-27153977D01*
X5883186Y-27279066D01*
X5884340Y-27335333D01*
X5892582Y-27445728D01*
X5910788Y-27518827D01*
X5944587Y-27573612D01*
X5960094Y-27590877D01*
X6011577Y-27662382D01*
X6028983Y-27726177D01*
X6008320Y-27767434D01*
X6007722Y-27767793D01*
X5967379Y-27781990D01*
X5899543Y-27798895D01*
X5898084Y-27799209D01*
X5829606Y-27804690D01*
X5779858Y-27776564D01*
X5749304Y-27741498D01*
X5711568Y-27688330D01*
X5685503Y-27633298D01*
X5666364Y-27560900D01*
X5649408Y-27455634D01*
X5640136Y-27384804D01*
X5619667Y-27222609D01*
X5464445Y-27426123D01*
X5346328Y-27569614D01*
X5241730Y-27669101D01*
X5140936Y-27732022D01*
X5034231Y-27765812D01*
X5016677Y-27768898D01*
X4910821Y-27776993D01*
X4840984Y-27755491D01*
X4791568Y-27697626D01*
X4774522Y-27663873D01*
X4724020Y-27537477D01*
X4696548Y-27419922D01*
X4690267Y-27292852D01*
X4703339Y-27137909D01*
X4714098Y-27060505D01*
X4735078Y-26932306D01*
X4757140Y-26817272D01*
X4776905Y-26732248D01*
X4785433Y-26704746D01*
X4805564Y-26622497D01*
X4815193Y-26525539D01*
X4815334Y-26514353D01*
X4821550Y-26437466D01*
X4847255Y-26395979D01*
X4887848Y-26375033D01*
X4982471Y-26358706D01*
X5060322Y-26380987D01*
G37*
X5060322Y-26380987D02*
X5106334Y-26437008D01*
X5109199Y-26446548D01*
X5107951Y-26503057D01*
X5089810Y-26601029D01*
X5057215Y-26728895D01*
X5030838Y-26818047D01*
X4965258Y-27049257D01*
X4925870Y-27235595D01*
X4912872Y-27375640D01*
X4926458Y-27467973D01*
X4937968Y-27489357D01*
X4969645Y-27520808D01*
X5011689Y-27524794D01*
X5078310Y-27506361D01*
X5190072Y-27442309D01*
X5307259Y-27322184D01*
X5429795Y-27146087D01*
X5557599Y-26914121D01*
X5604689Y-26817369D01*
X5676624Y-26668123D01*
X5732026Y-26564114D01*
X5777031Y-26498890D01*
X5817778Y-26465995D01*
X5860403Y-26458977D01*
X5911042Y-26471381D01*
X5927803Y-26477575D01*
X5958122Y-26514437D01*
X5972332Y-26577798D01*
X5967455Y-26639857D01*
X5948354Y-26669557D01*
X5933051Y-26704881D01*
X5917879Y-26783812D01*
X5904074Y-26893523D01*
X5892868Y-27021187D01*
X5885494Y-27153977D01*
X5883186Y-27279066D01*
X5884340Y-27335333D01*
X5892582Y-27445728D01*
X5910788Y-27518827D01*
X5944587Y-27573612D01*
X5960094Y-27590877D01*
X6011577Y-27662382D01*
X6028983Y-27726177D01*
X6008320Y-27767434D01*
X6007722Y-27767793D01*
X5967379Y-27781990D01*
X5899543Y-27798895D01*
X5898084Y-27799209D01*
X5829606Y-27804690D01*
X5779858Y-27776564D01*
X5749304Y-27741498D01*
X5711568Y-27688330D01*
X5685503Y-27633298D01*
X5666364Y-27560900D01*
X5649408Y-27455634D01*
X5640136Y-27384804D01*
X5619667Y-27222609D01*
X5464445Y-27426123D01*
X5346328Y-27569614D01*
X5241730Y-27669101D01*
X5140936Y-27732022D01*
X5034231Y-27765812D01*
X5016677Y-27768898D01*
X4910821Y-27776993D01*
X4840984Y-27755491D01*
X4791568Y-27697626D01*
X4774522Y-27663873D01*
X4724020Y-27537477D01*
X4696548Y-27419922D01*
X4690267Y-27292852D01*
X4703339Y-27137909D01*
X4714098Y-27060505D01*
X4735078Y-26932306D01*
X4757140Y-26817272D01*
X4776905Y-26732248D01*
X4785433Y-26704746D01*
X4805564Y-26622497D01*
X4815193Y-26525539D01*
X4815334Y-26514353D01*
X4821550Y-26437466D01*
X4847255Y-26395979D01*
X4887848Y-26375033D01*
X4982471Y-26358706D01*
X5060322Y-26380987D01*
G36*
X6990109Y-25812224D02*
G01*
X7024232Y-25843511D01*
X7038767Y-25896045D01*
X7033420Y-25978188D01*
X7007895Y-26098298D01*
X6975846Y-26216531D01*
X6952372Y-26304334D01*
X6938688Y-26366756D01*
X6937384Y-26388387D01*
X6967397Y-26388338D01*
X7040116Y-26382618D01*
X7142212Y-26372351D01*
X7189954Y-26367034D01*
X7332649Y-26353205D01*
X7428644Y-26351950D01*
X7486752Y-26365619D01*
X7515785Y-26396561D01*
X7524554Y-26447124D01*
X7524667Y-26456267D01*
X7520099Y-26501492D01*
X7500414Y-26533528D01*
X7456638Y-26555772D01*
X7379799Y-26571620D01*
X7260922Y-26584470D01*
X7165723Y-26592151D01*
X7024117Y-26607882D01*
X6930689Y-26630692D01*
X6880564Y-26659391D01*
X6839833Y-26723166D01*
X6799919Y-26832269D01*
X6763750Y-26975622D01*
X6734253Y-27142148D01*
X6718558Y-27272558D01*
X6710017Y-27384152D01*
X6711970Y-27455489D01*
X6726240Y-27502088D01*
X6749212Y-27533613D01*
X6818562Y-27581008D01*
X6899085Y-27578234D01*
X6995663Y-27524624D01*
X7032754Y-27494928D01*
X7151998Y-27400147D01*
X7237766Y-27348488D01*
X7292580Y-27339601D01*
X7318968Y-27373135D01*
X7319451Y-27448742D01*
X7318623Y-27455277D01*
X7276675Y-27571795D01*
X7191583Y-27674103D01*
X7076082Y-27755972D01*
X6942906Y-27811170D01*
X6804791Y-27833466D01*
X6674469Y-27816628D01*
X6623372Y-27795476D01*
X6545678Y-27737856D01*
X6492981Y-27656134D01*
X6464427Y-27544473D01*
X6459162Y-27397036D01*
X6476332Y-27207985D01*
X6508238Y-27008503D01*
X6530848Y-26882514D01*
X6549168Y-26777375D01*
X6561110Y-26705282D01*
X6564683Y-26679166D01*
X6539949Y-26665814D01*
X6477761Y-26658483D01*
X6454238Y-26658000D01*
X6347123Y-26639974D01*
X6280423Y-26588670D01*
X6259002Y-26508244D01*
X6260190Y-26492174D01*
X6268906Y-26451195D01*
X6292198Y-26428006D01*
X6343855Y-26416357D01*
X6437665Y-26409998D01*
X6441936Y-26409792D01*
X6559735Y-26397394D01*
X6636739Y-26366268D01*
X6686483Y-26304951D01*
X6722498Y-26201978D01*
X6731968Y-26164111D01*
X6767502Y-26018755D01*
X6794676Y-25919220D01*
X6817136Y-25856169D01*
X6838522Y-25820270D01*
X6862480Y-25802187D01*
X6875119Y-25797360D01*
X6942704Y-25796334D01*
X6990109Y-25812224D01*
G37*
X6990109Y-25812224D02*
X7024232Y-25843511D01*
X7038767Y-25896045D01*
X7033420Y-25978188D01*
X7007895Y-26098298D01*
X6975846Y-26216531D01*
X6952372Y-26304334D01*
X6938688Y-26366756D01*
X6937384Y-26388387D01*
X6967397Y-26388338D01*
X7040116Y-26382618D01*
X7142212Y-26372351D01*
X7189954Y-26367034D01*
X7332649Y-26353205D01*
X7428644Y-26351950D01*
X7486752Y-26365619D01*
X7515785Y-26396561D01*
X7524554Y-26447124D01*
X7524667Y-26456267D01*
X7520099Y-26501492D01*
X7500414Y-26533528D01*
X7456638Y-26555772D01*
X7379799Y-26571620D01*
X7260922Y-26584470D01*
X7165723Y-26592151D01*
X7024117Y-26607882D01*
X6930689Y-26630692D01*
X6880564Y-26659391D01*
X6839833Y-26723166D01*
X6799919Y-26832269D01*
X6763750Y-26975622D01*
X6734253Y-27142148D01*
X6718558Y-27272558D01*
X6710017Y-27384152D01*
X6711970Y-27455489D01*
X6726240Y-27502088D01*
X6749212Y-27533613D01*
X6818562Y-27581008D01*
X6899085Y-27578234D01*
X6995663Y-27524624D01*
X7032754Y-27494928D01*
X7151998Y-27400147D01*
X7237766Y-27348488D01*
X7292580Y-27339601D01*
X7318968Y-27373135D01*
X7319451Y-27448742D01*
X7318623Y-27455277D01*
X7276675Y-27571795D01*
X7191583Y-27674103D01*
X7076082Y-27755972D01*
X6942906Y-27811170D01*
X6804791Y-27833466D01*
X6674469Y-27816628D01*
X6623372Y-27795476D01*
X6545678Y-27737856D01*
X6492981Y-27656134D01*
X6464427Y-27544473D01*
X6459162Y-27397036D01*
X6476332Y-27207985D01*
X6508238Y-27008503D01*
X6530848Y-26882514D01*
X6549168Y-26777375D01*
X6561110Y-26705282D01*
X6564683Y-26679166D01*
X6539949Y-26665814D01*
X6477761Y-26658483D01*
X6454238Y-26658000D01*
X6347123Y-26639974D01*
X6280423Y-26588670D01*
X6259002Y-26508244D01*
X6260190Y-26492174D01*
X6268906Y-26451195D01*
X6292198Y-26428006D01*
X6343855Y-26416357D01*
X6437665Y-26409998D01*
X6441936Y-26409792D01*
X6559735Y-26397394D01*
X6636739Y-26366268D01*
X6686483Y-26304951D01*
X6722498Y-26201978D01*
X6731968Y-26164111D01*
X6767502Y-26018755D01*
X6794676Y-25919220D01*
X6817136Y-25856169D01*
X6838522Y-25820270D01*
X6862480Y-25802187D01*
X6875119Y-25797360D01*
X6942704Y-25796334D01*
X6990109Y-25812224D01*
G36*
X3761886Y-25803050D02*
G01*
X3791389Y-25809325D01*
X3908430Y-25842421D01*
X4025564Y-25887261D01*
X4078055Y-25912792D01*
X4155911Y-25952469D01*
X4215626Y-25977367D01*
X4233277Y-25981558D01*
X4272667Y-26007232D01*
X4319737Y-26072637D01*
X4366992Y-26163137D01*
X4406937Y-26264099D01*
X4432077Y-26360887D01*
X4434031Y-26373580D01*
X4434425Y-26572298D01*
X4386073Y-26783485D01*
X4293083Y-26999806D01*
X4159565Y-27213925D01*
X3989630Y-27418507D01*
X3787385Y-27606217D01*
X3709650Y-27666629D01*
X3596974Y-27743598D01*
X3498412Y-27792051D01*
X3388231Y-27823446D01*
X3333667Y-27834058D01*
X3165717Y-27859538D01*
X3039161Y-27866974D01*
X2941798Y-27856035D01*
X2861429Y-27826389D01*
X2851301Y-27820983D01*
X2679627Y-27701836D01*
X2560110Y-27562222D01*
X2491713Y-27400549D01*
X2472985Y-27240062D01*
X2474654Y-27223743D01*
X2739471Y-27223743D01*
X2753690Y-27316916D01*
X2800986Y-27407693D01*
X2874340Y-27492637D01*
X2960105Y-27560795D01*
X3044632Y-27601214D01*
X3111345Y-27603946D01*
X3152453Y-27591390D01*
X3231509Y-27567617D01*
X3332355Y-27537483D01*
X3345256Y-27533639D01*
X3452398Y-27497738D01*
X3538039Y-27456344D01*
X3620711Y-27398072D01*
X3718944Y-27311537D01*
X3742071Y-27289854D01*
X3906936Y-27119872D01*
X4025393Y-26962397D01*
X4103223Y-26808435D01*
X4143276Y-26665624D01*
X4160807Y-26481174D01*
X4136151Y-26332631D01*
X4067088Y-26216047D01*
X3951403Y-26127472D01*
X3808282Y-26069259D01*
X3633786Y-26015986D01*
X3478691Y-26079021D01*
X3283948Y-26179599D01*
X3122228Y-26312632D01*
X2986484Y-26485513D01*
X2869670Y-26705635D01*
X2859612Y-26728555D01*
X2791890Y-26911518D01*
X2751172Y-27080308D01*
X2739471Y-27223743D01*
X2474654Y-27223743D01*
X2489483Y-27078795D01*
X2534757Y-26891465D01*
X2602822Y-26696482D01*
X2687697Y-26512258D01*
X2738095Y-26424242D01*
X2900826Y-26198199D01*
X3075552Y-26024826D01*
X3265937Y-25900967D01*
X3416402Y-25840161D01*
X3529103Y-25806797D01*
X3610010Y-25790662D01*
X3680484Y-25789998D01*
X3761886Y-25803050D01*
G37*
X3761886Y-25803050D02*
X3791389Y-25809325D01*
X3908430Y-25842421D01*
X4025564Y-25887261D01*
X4078055Y-25912792D01*
X4155911Y-25952469D01*
X4215626Y-25977367D01*
X4233277Y-25981558D01*
X4272667Y-26007232D01*
X4319737Y-26072637D01*
X4366992Y-26163137D01*
X4406937Y-26264099D01*
X4432077Y-26360887D01*
X4434031Y-26373580D01*
X4434425Y-26572298D01*
X4386073Y-26783485D01*
X4293083Y-26999806D01*
X4159565Y-27213925D01*
X3989630Y-27418507D01*
X3787385Y-27606217D01*
X3709650Y-27666629D01*
X3596974Y-27743598D01*
X3498412Y-27792051D01*
X3388231Y-27823446D01*
X3333667Y-27834058D01*
X3165717Y-27859538D01*
X3039161Y-27866974D01*
X2941798Y-27856035D01*
X2861429Y-27826389D01*
X2851301Y-27820983D01*
X2679627Y-27701836D01*
X2560110Y-27562222D01*
X2491713Y-27400549D01*
X2472985Y-27240062D01*
X2474654Y-27223743D01*
X2739471Y-27223743D01*
X2753690Y-27316916D01*
X2800986Y-27407693D01*
X2874340Y-27492637D01*
X2960105Y-27560795D01*
X3044632Y-27601214D01*
X3111345Y-27603946D01*
X3152453Y-27591390D01*
X3231509Y-27567617D01*
X3332355Y-27537483D01*
X3345256Y-27533639D01*
X3452398Y-27497738D01*
X3538039Y-27456344D01*
X3620711Y-27398072D01*
X3718944Y-27311537D01*
X3742071Y-27289854D01*
X3906936Y-27119872D01*
X4025393Y-26962397D01*
X4103223Y-26808435D01*
X4143276Y-26665624D01*
X4160807Y-26481174D01*
X4136151Y-26332631D01*
X4067088Y-26216047D01*
X3951403Y-26127472D01*
X3808282Y-26069259D01*
X3633786Y-26015986D01*
X3478691Y-26079021D01*
X3283948Y-26179599D01*
X3122228Y-26312632D01*
X2986484Y-26485513D01*
X2869670Y-26705635D01*
X2859612Y-26728555D01*
X2791890Y-26911518D01*
X2751172Y-27080308D01*
X2739471Y-27223743D01*
X2474654Y-27223743D01*
X2489483Y-27078795D01*
X2534757Y-26891465D01*
X2602822Y-26696482D01*
X2687697Y-26512258D01*
X2738095Y-26424242D01*
X2900826Y-26198199D01*
X3075552Y-26024826D01*
X3265937Y-25900967D01*
X3416402Y-25840161D01*
X3529103Y-25806797D01*
X3610010Y-25790662D01*
X3680484Y-25789998D01*
X3761886Y-25803050D01*
G36*
X3404222Y-63810889D02*
G01*
X3404196Y-65600202D01*
X3404117Y-67333126D01*
X3403986Y-69009717D01*
X3403801Y-70630029D01*
X3403564Y-72194119D01*
X3403274Y-73702042D01*
X3402932Y-75153853D01*
X3402536Y-76549609D01*
X3402087Y-77889363D01*
X3401586Y-79173173D01*
X3401031Y-80401093D01*
X3400423Y-81573179D01*
X3399762Y-82689486D01*
X3399047Y-83750070D01*
X3398280Y-84754986D01*
X3397459Y-85704290D01*
X3396584Y-86598037D01*
X3395656Y-87436282D01*
X3394675Y-88219082D01*
X3393640Y-88946492D01*
X3392551Y-89618567D01*
X3391409Y-90235362D01*
X3390213Y-90796933D01*
X3388963Y-91303336D01*
X3387660Y-91754626D01*
X3386302Y-92150859D01*
X3384891Y-92492089D01*
X3383425Y-92778373D01*
X3381906Y-93009766D01*
X3380332Y-93186323D01*
X3378704Y-93308101D01*
X3377022Y-93375153D01*
X3375801Y-93389567D01*
X3343991Y-93384642D01*
X3336007Y-93370066D01*
X3334205Y-93340609D01*
X3329769Y-93256196D01*
X3322767Y-93118253D01*
X3313267Y-92928202D01*
X3301338Y-92687469D01*
X3287049Y-92397478D01*
X3270468Y-92059653D01*
X3251664Y-91675418D01*
X3230705Y-91246197D01*
X3207660Y-90773416D01*
X3182597Y-90258497D01*
X3155585Y-89702867D01*
X3126692Y-89107947D01*
X3095987Y-88475164D01*
X3063539Y-87805941D01*
X3029415Y-87101703D01*
X2993685Y-86363873D01*
X2956417Y-85593877D01*
X2917680Y-84793138D01*
X2877541Y-83963081D01*
X2836071Y-83105130D01*
X2793336Y-82220709D01*
X2749406Y-81311242D01*
X2704350Y-80378155D01*
X2658235Y-79422870D01*
X2611130Y-78446813D01*
X2563105Y-77451408D01*
X2514226Y-76438078D01*
X2464564Y-75408249D01*
X2414186Y-74363345D01*
X2363161Y-73304789D01*
X2311557Y-72234006D01*
X2259444Y-71152421D01*
X2206889Y-70061457D01*
X2153961Y-68962540D01*
X2100729Y-67857092D01*
X2047261Y-66746539D01*
X1993625Y-65632305D01*
X1939891Y-64515814D01*
X1886127Y-63398491D01*
X1832401Y-62281759D01*
X1778782Y-61167043D01*
X1725338Y-60055767D01*
X1672139Y-58949356D01*
X1619251Y-57849233D01*
X1566745Y-56756824D01*
X1514688Y-55673552D01*
X1463149Y-54600841D01*
X1412197Y-53540117D01*
X1361900Y-52492803D01*
X1312327Y-51460323D01*
X1263545Y-50444102D01*
X1215625Y-49445564D01*
X1168634Y-48466133D01*
X1122640Y-47507235D01*
X1077713Y-46570291D01*
X1033921Y-45656729D01*
X991332Y-44767970D01*
X950015Y-43905441D01*
X910039Y-43070564D01*
X871471Y-42264765D01*
X834381Y-41489467D01*
X798837Y-40746096D01*
X764908Y-40036074D01*
X732662Y-39360827D01*
X702168Y-38721779D01*
X673494Y-38120354D01*
X646708Y-37557976D01*
X621880Y-37036069D01*
X599077Y-36556059D01*
X578369Y-36119369D01*
X559824Y-35727423D01*
X543510Y-35381646D01*
X529497Y-35083462D01*
X517851Y-34834295D01*
X508643Y-34635570D01*
X501940Y-34488710D01*
X497812Y-34395141D01*
X496326Y-34356286D01*
X496323Y-34355611D01*
X497334Y-34249777D01*
X3404222Y-34249777D01*
X3404222Y-63810889D01*
G37*
X3404222Y-63810889D02*
X3404196Y-65600202D01*
X3404117Y-67333126D01*
X3403986Y-69009717D01*
X3403801Y-70630029D01*
X3403564Y-72194119D01*
X3403274Y-73702042D01*
X3402932Y-75153853D01*
X3402536Y-76549609D01*
X3402087Y-77889363D01*
X3401586Y-79173173D01*
X3401031Y-80401093D01*
X3400423Y-81573179D01*
X3399762Y-82689486D01*
X3399047Y-83750070D01*
X3398280Y-84754986D01*
X3397459Y-85704290D01*
X3396584Y-86598037D01*
X3395656Y-87436282D01*
X3394675Y-88219082D01*
X3393640Y-88946492D01*
X3392551Y-89618567D01*
X3391409Y-90235362D01*
X3390213Y-90796933D01*
X3388963Y-91303336D01*
X3387660Y-91754626D01*
X3386302Y-92150859D01*
X3384891Y-92492089D01*
X3383425Y-92778373D01*
X3381906Y-93009766D01*
X3380332Y-93186323D01*
X3378704Y-93308101D01*
X3377022Y-93375153D01*
X3375801Y-93389567D01*
X3343991Y-93384642D01*
X3336007Y-93370066D01*
X3334205Y-93340609D01*
X3329769Y-93256196D01*
X3322767Y-93118253D01*
X3313267Y-92928202D01*
X3301338Y-92687469D01*
X3287049Y-92397478D01*
X3270468Y-92059653D01*
X3251664Y-91675418D01*
X3230705Y-91246197D01*
X3207660Y-90773416D01*
X3182597Y-90258497D01*
X3155585Y-89702867D01*
X3126692Y-89107947D01*
X3095987Y-88475164D01*
X3063539Y-87805941D01*
X3029415Y-87101703D01*
X2993685Y-86363873D01*
X2956417Y-85593877D01*
X2917680Y-84793138D01*
X2877541Y-83963081D01*
X2836071Y-83105130D01*
X2793336Y-82220709D01*
X2749406Y-81311242D01*
X2704350Y-80378155D01*
X2658235Y-79422870D01*
X2611130Y-78446813D01*
X2563105Y-77451408D01*
X2514226Y-76438078D01*
X2464564Y-75408249D01*
X2414186Y-74363345D01*
X2363161Y-73304789D01*
X2311557Y-72234006D01*
X2259444Y-71152421D01*
X2206889Y-70061457D01*
X2153961Y-68962540D01*
X2100729Y-67857092D01*
X2047261Y-66746539D01*
X1993625Y-65632305D01*
X1939891Y-64515814D01*
X1886127Y-63398491D01*
X1832401Y-62281759D01*
X1778782Y-61167043D01*
X1725338Y-60055767D01*
X1672139Y-58949356D01*
X1619251Y-57849233D01*
X1566745Y-56756824D01*
X1514688Y-55673552D01*
X1463149Y-54600841D01*
X1412197Y-53540117D01*
X1361900Y-52492803D01*
X1312327Y-51460323D01*
X1263545Y-50444102D01*
X1215625Y-49445564D01*
X1168634Y-48466133D01*
X1122640Y-47507235D01*
X1077713Y-46570291D01*
X1033921Y-45656729D01*
X991332Y-44767970D01*
X950015Y-43905441D01*
X910039Y-43070564D01*
X871471Y-42264765D01*
X834381Y-41489467D01*
X798837Y-40746096D01*
X764908Y-40036074D01*
X732662Y-39360827D01*
X702168Y-38721779D01*
X673494Y-38120354D01*
X646708Y-37557976D01*
X621880Y-37036069D01*
X599077Y-36556059D01*
X578369Y-36119369D01*
X559824Y-35727423D01*
X543510Y-35381646D01*
X529497Y-35083462D01*
X517851Y-34834295D01*
X508643Y-34635570D01*
X501940Y-34488710D01*
X497812Y-34395141D01*
X496326Y-34356286D01*
X496323Y-34355611D01*
X497334Y-34249777D01*
X3404222Y-34249777D01*
X3404222Y-63810889D01*
G36*
X3368030Y-93721443D02*
G01*
X3372672Y-93804907D01*
X3367644Y-93862554D01*
X3361034Y-93873911D01*
X3356774Y-93836934D01*
X3355850Y-93784555D01*
X3357962Y-93720521D01*
X3363019Y-93701791D01*
X3368030Y-93721443D01*
G37*
X3368030Y-93721443D02*
X3372672Y-93804907D01*
X3367644Y-93862554D01*
X3361034Y-93873911D01*
X3356774Y-93836934D01*
X3355850Y-93784555D01*
X3357962Y-93720521D01*
X3363019Y-93701791D01*
X3368030Y-93721443D01*
G36*
X3404222Y-94010333D02*
G01*
X3390111Y-94024444D01*
X3376000Y-94010333D01*
X3390111Y-93996222D01*
X3404222Y-94010333D01*
G37*
X3404222Y-94010333D02*
X3390111Y-94024444D01*
X3376000Y-94010333D01*
X3390111Y-93996222D01*
X3404222Y-94010333D01*
G36*
X9303987Y-34341500D02*
G01*
X9302799Y-34382051D01*
X9298912Y-34477281D01*
X9292399Y-34625764D01*
X9283327Y-34826076D01*
X9271768Y-35076790D01*
X9257789Y-35376483D01*
X9241463Y-35723728D01*
X9222857Y-36117101D01*
X9202043Y-36555176D01*
X9179089Y-37036528D01*
X9154066Y-37559733D01*
X9127044Y-38123365D01*
X9098091Y-38725999D01*
X9067278Y-39366209D01*
X9034675Y-40042571D01*
X9000351Y-40753659D01*
X8964376Y-41498049D01*
X8926820Y-42274315D01*
X8887753Y-43081032D01*
X8847245Y-43916775D01*
X8805364Y-44780119D01*
X8762182Y-45669638D01*
X8717768Y-46583907D01*
X8672191Y-47521502D01*
X8625521Y-48480997D01*
X8577829Y-49460968D01*
X8529183Y-50459987D01*
X8479654Y-51476632D01*
X8429312Y-52509476D01*
X8378226Y-53557095D01*
X8326466Y-54618063D01*
X8274101Y-55690955D01*
X8221202Y-56774346D01*
X8167839Y-57866812D01*
X8114080Y-58966925D01*
X8059996Y-60073263D01*
X8005657Y-61184398D01*
X7951133Y-62298907D01*
X7896492Y-63415364D01*
X7841806Y-64532345D01*
X7787143Y-65648423D01*
X7732574Y-66762173D01*
X7678168Y-67872172D01*
X7623995Y-68976992D01*
X7570124Y-70075210D01*
X7516627Y-71165400D01*
X7463572Y-72246137D01*
X7411029Y-73315996D01*
X7359067Y-74373552D01*
X7307758Y-75417379D01*
X7257170Y-76446053D01*
X7207373Y-77458147D01*
X7158437Y-78452238D01*
X7110432Y-79426900D01*
X7063427Y-80380708D01*
X7017493Y-81312236D01*
X6972699Y-82220060D01*
X6929115Y-83102755D01*
X6886810Y-83958894D01*
X6845855Y-84787054D01*
X6806319Y-85585809D01*
X6768272Y-86353733D01*
X6731783Y-87089402D01*
X6696924Y-87791391D01*
X6663762Y-88458274D01*
X6632368Y-89088627D01*
X6602813Y-89681023D01*
X6575164Y-90234038D01*
X6549494Y-90746248D01*
X6525870Y-91216226D01*
X6504363Y-91642547D01*
X6485043Y-92023787D01*
X6467980Y-92358520D01*
X6453242Y-92645321D01*
X6440901Y-92882765D01*
X6431025Y-93069427D01*
X6423685Y-93203881D01*
X6418951Y-93284703D01*
X6416950Y-93310480D01*
X6402865Y-93373946D01*
X6399441Y-93466779D01*
X6402873Y-93522146D01*
X6407333Y-93614568D01*
X6407142Y-93743332D01*
X6402539Y-93888547D01*
X6397311Y-93982111D01*
X6396409Y-93967580D01*
X6395508Y-93897748D01*
X6394609Y-93773757D01*
X6393714Y-93596748D01*
X6392822Y-93367866D01*
X6391936Y-93088252D01*
X6391055Y-92759049D01*
X6390182Y-92381399D01*
X6389317Y-91956446D01*
X6388460Y-91485331D01*
X6387613Y-90969197D01*
X6386778Y-90409187D01*
X6385954Y-89806444D01*
X6385143Y-89162109D01*
X6384345Y-88477326D01*
X6383563Y-87753236D01*
X6382796Y-86990984D01*
X6382046Y-86191710D01*
X6381314Y-85356558D01*
X6380600Y-84486671D01*
X6379906Y-83583190D01*
X6379232Y-82647259D01*
X6378580Y-81680019D01*
X6377951Y-80682614D01*
X6377345Y-79656186D01*
X6376764Y-78601878D01*
X6376208Y-77520832D01*
X6375678Y-76414191D01*
X6375176Y-75283097D01*
X6374702Y-74128694D01*
X6374257Y-72952122D01*
X6373843Y-71754526D01*
X6373460Y-70537047D01*
X6373109Y-69300828D01*
X6372792Y-68047012D01*
X6372509Y-66776742D01*
X6372260Y-65491159D01*
X6372060Y-64271166D01*
X6367556Y-34249777D01*
X9302667Y-34249777D01*
X9303987Y-34341500D01*
G37*
X9303987Y-34341500D02*
X9302799Y-34382051D01*
X9298912Y-34477281D01*
X9292399Y-34625764D01*
X9283327Y-34826076D01*
X9271768Y-35076790D01*
X9257789Y-35376483D01*
X9241463Y-35723728D01*
X9222857Y-36117101D01*
X9202043Y-36555176D01*
X9179089Y-37036528D01*
X9154066Y-37559733D01*
X9127044Y-38123365D01*
X9098091Y-38725999D01*
X9067278Y-39366209D01*
X9034675Y-40042571D01*
X9000351Y-40753659D01*
X8964376Y-41498049D01*
X8926820Y-42274315D01*
X8887753Y-43081032D01*
X8847245Y-43916775D01*
X8805364Y-44780119D01*
X8762182Y-45669638D01*
X8717768Y-46583907D01*
X8672191Y-47521502D01*
X8625521Y-48480997D01*
X8577829Y-49460968D01*
X8529183Y-50459987D01*
X8479654Y-51476632D01*
X8429312Y-52509476D01*
X8378226Y-53557095D01*
X8326466Y-54618063D01*
X8274101Y-55690955D01*
X8221202Y-56774346D01*
X8167839Y-57866812D01*
X8114080Y-58966925D01*
X8059996Y-60073263D01*
X8005657Y-61184398D01*
X7951133Y-62298907D01*
X7896492Y-63415364D01*
X7841806Y-64532345D01*
X7787143Y-65648423D01*
X7732574Y-66762173D01*
X7678168Y-67872172D01*
X7623995Y-68976992D01*
X7570124Y-70075210D01*
X7516627Y-71165400D01*
X7463572Y-72246137D01*
X7411029Y-73315996D01*
X7359067Y-74373552D01*
X7307758Y-75417379D01*
X7257170Y-76446053D01*
X7207373Y-77458147D01*
X7158437Y-78452238D01*
X7110432Y-79426900D01*
X7063427Y-80380708D01*
X7017493Y-81312236D01*
X6972699Y-82220060D01*
X6929115Y-83102755D01*
X6886810Y-83958894D01*
X6845855Y-84787054D01*
X6806319Y-85585809D01*
X6768272Y-86353733D01*
X6731783Y-87089402D01*
X6696924Y-87791391D01*
X6663762Y-88458274D01*
X6632368Y-89088627D01*
X6602813Y-89681023D01*
X6575164Y-90234038D01*
X6549494Y-90746248D01*
X6525870Y-91216226D01*
X6504363Y-91642547D01*
X6485043Y-92023787D01*
X6467980Y-92358520D01*
X6453242Y-92645321D01*
X6440901Y-92882765D01*
X6431025Y-93069427D01*
X6423685Y-93203881D01*
X6418951Y-93284703D01*
X6416950Y-93310480D01*
X6402865Y-93373946D01*
X6399441Y-93466779D01*
X6402873Y-93522146D01*
X6407333Y-93614568D01*
X6407142Y-93743332D01*
X6402539Y-93888547D01*
X6397311Y-93982111D01*
X6396409Y-93967580D01*
X6395508Y-93897748D01*
X6394609Y-93773757D01*
X6393714Y-93596748D01*
X6392822Y-93367866D01*
X6391936Y-93088252D01*
X6391055Y-92759049D01*
X6390182Y-92381399D01*
X6389317Y-91956446D01*
X6388460Y-91485331D01*
X6387613Y-90969197D01*
X6386778Y-90409187D01*
X6385954Y-89806444D01*
X6385143Y-89162109D01*
X6384345Y-88477326D01*
X6383563Y-87753236D01*
X6382796Y-86990984D01*
X6382046Y-86191710D01*
X6381314Y-85356558D01*
X6380600Y-84486671D01*
X6379906Y-83583190D01*
X6379232Y-82647259D01*
X6378580Y-81680019D01*
X6377951Y-80682614D01*
X6377345Y-79656186D01*
X6376764Y-78601878D01*
X6376208Y-77520832D01*
X6375678Y-76414191D01*
X6375176Y-75283097D01*
X6374702Y-74128694D01*
X6374257Y-72952122D01*
X6373843Y-71754526D01*
X6373460Y-70537047D01*
X6373109Y-69300828D01*
X6372792Y-68047012D01*
X6372509Y-66776742D01*
X6372260Y-65491159D01*
X6372060Y-64271166D01*
X6367556Y-34249777D01*
X9302667Y-34249777D01*
X9303987Y-34341500D01*
G36*
X4893530Y-115379585D02*
G01*
X4931271Y-115406451D01*
X4953933Y-115464396D01*
X4964588Y-115571271D01*
X4965118Y-115678899D01*
X4960783Y-115905339D01*
X5045922Y-115756265D01*
X5105847Y-115662254D01*
X5169393Y-115579062D01*
X5206031Y-115540423D01*
X5282082Y-115490537D01*
X5383843Y-115445929D01*
X5491450Y-115413020D01*
X5585035Y-115398227D01*
X5632879Y-115402492D01*
X5705553Y-115454077D01*
X5773845Y-115560368D01*
X5837120Y-115719753D01*
X5894742Y-115930618D01*
X5946075Y-116191349D01*
X5947810Y-116201718D01*
X5982126Y-116407992D01*
X6087278Y-116390227D01*
X6171798Y-116385678D01*
X6212347Y-116412430D01*
X6213484Y-116476321D01*
X6198069Y-116532130D01*
X6141930Y-116635721D01*
X6053571Y-116695521D01*
X5927654Y-116715105D01*
X5924974Y-116715111D01*
X5831282Y-116704847D01*
X5762859Y-116666326D01*
X5733628Y-116637713D01*
X5680546Y-116568947D01*
X5643159Y-116488131D01*
X5617537Y-116382109D01*
X5599747Y-116237730D01*
X5594349Y-116171776D01*
X5579461Y-116044320D01*
X5556231Y-115926827D01*
X5528122Y-115831603D01*
X5498594Y-115770953D01*
X5477297Y-115755555D01*
X5444029Y-115770414D01*
X5387376Y-115806630D01*
X5381151Y-115811022D01*
X5338355Y-115852005D01*
X5282985Y-115924424D01*
X5212577Y-116032228D01*
X5124669Y-116179367D01*
X5016796Y-116369789D01*
X4900815Y-116581055D01*
X4836144Y-116693907D01*
X4783481Y-116762857D01*
X4731188Y-116795256D01*
X4667628Y-116798456D01*
X4584703Y-116780747D01*
X4542877Y-116742235D01*
X4520453Y-116660622D01*
X4518418Y-116546166D01*
X4537761Y-116409122D01*
X4545566Y-116374542D01*
X4564510Y-116274217D01*
X4583499Y-116135873D01*
X4600307Y-115977890D01*
X4612556Y-115821127D01*
X4625950Y-115649462D01*
X4641979Y-115518139D01*
X4659778Y-115433162D01*
X4672503Y-115404850D01*
X4732200Y-115370637D01*
X4814905Y-115362271D01*
X4893530Y-115379585D01*
G37*
X4893530Y-115379585D02*
X4931271Y-115406451D01*
X4953933Y-115464396D01*
X4964588Y-115571271D01*
X4965118Y-115678899D01*
X4960783Y-115905339D01*
X5045922Y-115756265D01*
X5105847Y-115662254D01*
X5169393Y-115579062D01*
X5206031Y-115540423D01*
X5282082Y-115490537D01*
X5383843Y-115445929D01*
X5491450Y-115413020D01*
X5585035Y-115398227D01*
X5632879Y-115402492D01*
X5705553Y-115454077D01*
X5773845Y-115560368D01*
X5837120Y-115719753D01*
X5894742Y-115930618D01*
X5946075Y-116191349D01*
X5947810Y-116201718D01*
X5982126Y-116407992D01*
X6087278Y-116390227D01*
X6171798Y-116385678D01*
X6212347Y-116412430D01*
X6213484Y-116476321D01*
X6198069Y-116532130D01*
X6141930Y-116635721D01*
X6053571Y-116695521D01*
X5927654Y-116715105D01*
X5924974Y-116715111D01*
X5831282Y-116704847D01*
X5762859Y-116666326D01*
X5733628Y-116637713D01*
X5680546Y-116568947D01*
X5643159Y-116488131D01*
X5617537Y-116382109D01*
X5599747Y-116237730D01*
X5594349Y-116171776D01*
X5579461Y-116044320D01*
X5556231Y-115926827D01*
X5528122Y-115831603D01*
X5498594Y-115770953D01*
X5477297Y-115755555D01*
X5444029Y-115770414D01*
X5387376Y-115806630D01*
X5381151Y-115811022D01*
X5338355Y-115852005D01*
X5282985Y-115924424D01*
X5212577Y-116032228D01*
X5124669Y-116179367D01*
X5016796Y-116369789D01*
X4900815Y-116581055D01*
X4836144Y-116693907D01*
X4783481Y-116762857D01*
X4731188Y-116795256D01*
X4667628Y-116798456D01*
X4584703Y-116780747D01*
X4542877Y-116742235D01*
X4520453Y-116660622D01*
X4518418Y-116546166D01*
X4537761Y-116409122D01*
X4545566Y-116374542D01*
X4564510Y-116274217D01*
X4583499Y-116135873D01*
X4600307Y-115977890D01*
X4612556Y-115821127D01*
X4625950Y-115649462D01*
X4641979Y-115518139D01*
X4659778Y-115433162D01*
X4672503Y-115404850D01*
X4732200Y-115370637D01*
X4814905Y-115362271D01*
X4893530Y-115379585D01*
G36*
X4196832Y-114822582D02*
G01*
X4263389Y-114880997D01*
X4282008Y-114915881D01*
X4296343Y-114961102D01*
X4300455Y-115012932D01*
X4293151Y-115083600D01*
X4273241Y-115185332D01*
X4243072Y-115315593D01*
X4199821Y-115500387D01*
X4168755Y-115647794D01*
X4147753Y-115775027D01*
X4134692Y-115899299D01*
X4127450Y-116037824D01*
X4123904Y-116207815D01*
X4123039Y-116289130D01*
X4121304Y-116448140D01*
X4118358Y-116560696D01*
X4112496Y-116636785D01*
X4102017Y-116686395D01*
X4085216Y-116719514D01*
X4060390Y-116746128D01*
X4042420Y-116761852D01*
X3949910Y-116819628D01*
X3870943Y-116824148D01*
X3808554Y-116775785D01*
X3783782Y-116730128D01*
X3762447Y-116650200D01*
X3747651Y-116539606D01*
X3742889Y-116437079D01*
X3747411Y-116313241D01*
X3759986Y-116156106D01*
X3779125Y-115975699D01*
X3803339Y-115782040D01*
X3831139Y-115585154D01*
X3861036Y-115395062D01*
X3891543Y-115221787D01*
X3921170Y-115075352D01*
X3948429Y-114965779D01*
X3970338Y-114905766D01*
X4034193Y-114834443D01*
X4115062Y-114806889D01*
X4196832Y-114822582D01*
G37*
X4196832Y-114822582D02*
X4263389Y-114880997D01*
X4282008Y-114915881D01*
X4296343Y-114961102D01*
X4300455Y-115012932D01*
X4293151Y-115083600D01*
X4273241Y-115185332D01*
X4243072Y-115315593D01*
X4199821Y-115500387D01*
X4168755Y-115647794D01*
X4147753Y-115775027D01*
X4134692Y-115899299D01*
X4127450Y-116037824D01*
X4123904Y-116207815D01*
X4123039Y-116289130D01*
X4121304Y-116448140D01*
X4118358Y-116560696D01*
X4112496Y-116636785D01*
X4102017Y-116686395D01*
X4085216Y-116719514D01*
X4060390Y-116746128D01*
X4042420Y-116761852D01*
X3949910Y-116819628D01*
X3870943Y-116824148D01*
X3808554Y-116775785D01*
X3783782Y-116730128D01*
X3762447Y-116650200D01*
X3747651Y-116539606D01*
X3742889Y-116437079D01*
X3747411Y-116313241D01*
X3759986Y-116156106D01*
X3779125Y-115975699D01*
X3803339Y-115782040D01*
X3831139Y-115585154D01*
X3861036Y-115395062D01*
X3891543Y-115221787D01*
X3921170Y-115075352D01*
X3948429Y-114965779D01*
X3970338Y-114905766D01*
X4034193Y-114834443D01*
X4115062Y-114806889D01*
X4196832Y-114822582D01*
G36*
X10494Y-1363833D02*
G01*
X18088Y-2753777D01*
X723111Y-2753777D01*
X723111Y-3261777D01*
X17556Y-3261777D01*
X17556Y-125238222D01*
X723111Y-125238222D01*
X723111Y-125774444D01*
X17556Y-125774444D01*
X17556Y-128512000D01*
X9782445Y-128512000D01*
X9782445Y-125774444D01*
X4109778Y-125774444D01*
X4109778Y-125238222D01*
X9782445Y-125238222D01*
X9782445Y-3261777D01*
X4109778Y-3261777D01*
X4109778Y-2753777D01*
X9781913Y-2753777D01*
X9789506Y-1363833D01*
X9789734Y-1350668D01*
X9789966Y-1393178D01*
X9790202Y-1490595D01*
X9790442Y-1642149D01*
X9790685Y-1847071D01*
X9790933Y-2104593D01*
X9791183Y-2413945D01*
X9791437Y-2774358D01*
X9791694Y-3185064D01*
X9791954Y-3645292D01*
X9792216Y-4154275D01*
X9792481Y-4711243D01*
X9792749Y-5315428D01*
X9793018Y-5966059D01*
X9793290Y-6662368D01*
X9793563Y-7403587D01*
X9793838Y-8188945D01*
X9794114Y-9017675D01*
X9794392Y-9889006D01*
X9794671Y-10802171D01*
X9794951Y-11756399D01*
X9795231Y-12750922D01*
X9795512Y-13784972D01*
X9795794Y-14857778D01*
X9796075Y-15968571D01*
X9796357Y-17116584D01*
X9796639Y-18301047D01*
X9796920Y-19521190D01*
X9797201Y-20776245D01*
X9797481Y-22065442D01*
X9797761Y-23388014D01*
X9798039Y-24743190D01*
X9798317Y-26130201D01*
X9798593Y-27548280D01*
X9798867Y-28996655D01*
X9799140Y-30474560D01*
X9799411Y-31981224D01*
X9799679Y-33515878D01*
X9799946Y-35077754D01*
X9800210Y-36666082D01*
X9800472Y-38280094D01*
X9800730Y-39919020D01*
X9800986Y-41582091D01*
X9801239Y-43268539D01*
X9801489Y-44977594D01*
X9801735Y-46708488D01*
X9801977Y-48460450D01*
X9802216Y-50232713D01*
X9802450Y-52024507D01*
X9802681Y-53835064D01*
X9802907Y-55663613D01*
X9803129Y-57509387D01*
X9803346Y-59371616D01*
X9803558Y-61249531D01*
X9803765Y-63142363D01*
X9803883Y-64257055D01*
X9810667Y-128540222D01*
X-10666Y-128540222D01*
X-3883Y-64257055D01*
X-3679Y-62355847D01*
X-3470Y-60469107D01*
X-3256Y-58597602D01*
X-3037Y-56742102D01*
X-2813Y-54903376D01*
X-2585Y-53082193D01*
X-2353Y-51279322D01*
X-2117Y-49495532D01*
X-1877Y-47731592D01*
X-1633Y-45988271D01*
X-1385Y-44266338D01*
X-1134Y-42566563D01*
X-880Y-40889713D01*
X-623Y-39236559D01*
X-363Y-37607869D01*
X-101Y-36004412D01*
X165Y-34426957D01*
X432Y-32876274D01*
X702Y-31353131D01*
X973Y-29858297D01*
X1247Y-28392542D01*
X1522Y-26956634D01*
X1798Y-25551342D01*
X2076Y-24177436D01*
X2355Y-22835685D01*
X2635Y-21526857D01*
X2916Y-20251721D01*
X3197Y-19011047D01*
X3478Y-17805603D01*
X3760Y-16636159D01*
X4042Y-15503484D01*
X4323Y-14408346D01*
X4605Y-13351515D01*
X4886Y-12333760D01*
X5166Y-11355849D01*
X5445Y-10418552D01*
X5724Y-9522638D01*
X6001Y-8668876D01*
X6277Y-7858034D01*
X6551Y-7090882D01*
X6824Y-6368190D01*
X7094Y-5690725D01*
X7363Y-5059257D01*
X7629Y-4474555D01*
X7893Y-3937388D01*
X8155Y-3448524D01*
X8413Y-3008734D01*
X8669Y-2618786D01*
X8921Y-2279449D01*
X9171Y-1991492D01*
X9416Y-1755685D01*
X9659Y-1572795D01*
X9897Y-1443593D01*
X10131Y-1368846D01*
X10361Y-1349325D01*
X10494Y-1363833D01*
G37*
X10494Y-1363833D02*
X18088Y-2753777D01*
X723111Y-2753777D01*
X723111Y-3261777D01*
X17556Y-3261777D01*
X17556Y-125238222D01*
X723111Y-125238222D01*
X723111Y-125774444D01*
X17556Y-125774444D01*
X17556Y-128512000D01*
X9782445Y-128512000D01*
X9782445Y-125774444D01*
X4109778Y-125774444D01*
X4109778Y-125238222D01*
X9782445Y-125238222D01*
X9782445Y-3261777D01*
X4109778Y-3261777D01*
X4109778Y-2753777D01*
X9781913Y-2753777D01*
X9789506Y-1363833D01*
X9789734Y-1350668D01*
X9789966Y-1393178D01*
X9790202Y-1490595D01*
X9790442Y-1642149D01*
X9790685Y-1847071D01*
X9790933Y-2104593D01*
X9791183Y-2413945D01*
X9791437Y-2774358D01*
X9791694Y-3185064D01*
X9791954Y-3645292D01*
X9792216Y-4154275D01*
X9792481Y-4711243D01*
X9792749Y-5315428D01*
X9793018Y-5966059D01*
X9793290Y-6662368D01*
X9793563Y-7403587D01*
X9793838Y-8188945D01*
X9794114Y-9017675D01*
X9794392Y-9889006D01*
X9794671Y-10802171D01*
X9794951Y-11756399D01*
X9795231Y-12750922D01*
X9795512Y-13784972D01*
X9795794Y-14857778D01*
X9796075Y-15968571D01*
X9796357Y-17116584D01*
X9796639Y-18301047D01*
X9796920Y-19521190D01*
X9797201Y-20776245D01*
X9797481Y-22065442D01*
X9797761Y-23388014D01*
X9798039Y-24743190D01*
X9798317Y-26130201D01*
X9798593Y-27548280D01*
X9798867Y-28996655D01*
X9799140Y-30474560D01*
X9799411Y-31981224D01*
X9799679Y-33515878D01*
X9799946Y-35077754D01*
X9800210Y-36666082D01*
X9800472Y-38280094D01*
X9800730Y-39919020D01*
X9800986Y-41582091D01*
X9801239Y-43268539D01*
X9801489Y-44977594D01*
X9801735Y-46708488D01*
X9801977Y-48460450D01*
X9802216Y-50232713D01*
X9802450Y-52024507D01*
X9802681Y-53835064D01*
X9802907Y-55663613D01*
X9803129Y-57509387D01*
X9803346Y-59371616D01*
X9803558Y-61249531D01*
X9803765Y-63142363D01*
X9803883Y-64257055D01*
X9810667Y-128540222D01*
X-10666Y-128540222D01*
X-3883Y-64257055D01*
X-3679Y-62355847D01*
X-3470Y-60469107D01*
X-3256Y-58597602D01*
X-3037Y-56742102D01*
X-2813Y-54903376D01*
X-2585Y-53082193D01*
X-2353Y-51279322D01*
X-2117Y-49495532D01*
X-1877Y-47731592D01*
X-1633Y-45988271D01*
X-1385Y-44266338D01*
X-1134Y-42566563D01*
X-880Y-40889713D01*
X-623Y-39236559D01*
X-363Y-37607869D01*
X-101Y-36004412D01*
X165Y-34426957D01*
X432Y-32876274D01*
X702Y-31353131D01*
X973Y-29858297D01*
X1247Y-28392542D01*
X1522Y-26956634D01*
X1798Y-25551342D01*
X2076Y-24177436D01*
X2355Y-22835685D01*
X2635Y-21526857D01*
X2916Y-20251721D01*
X3197Y-19011047D01*
X3478Y-17805603D01*
X3760Y-16636159D01*
X4042Y-15503484D01*
X4323Y-14408346D01*
X4605Y-13351515D01*
X4886Y-12333760D01*
X5166Y-11355849D01*
X5445Y-10418552D01*
X5724Y-9522638D01*
X6001Y-8668876D01*
X6277Y-7858034D01*
X6551Y-7090882D01*
X6824Y-6368190D01*
X7094Y-5690725D01*
X7363Y-5059257D01*
X7629Y-4474555D01*
X7893Y-3937388D01*
X8155Y-3448524D01*
X8413Y-3008734D01*
X8669Y-2618786D01*
X8921Y-2279449D01*
X9171Y-1991492D01*
X9416Y-1755685D01*
X9659Y-1572795D01*
X9897Y-1443593D01*
X10131Y-1368846D01*
X10361Y-1349325D01*
X10494Y-1363833D01*
M02*
