G04 #@! TF.GenerationSoftware,KiCad,Pcbnew,(5.1.9)-1*
G04 #@! TF.CreationDate,2021-04-09T10:44:14+02:00*
G04 #@! TF.ProjectId,Baby 8,42616279-2038-42e6-9b69-6361645f7063,rev?*
G04 #@! TF.SameCoordinates,Original*
G04 #@! TF.FileFunction,Soldermask,Bot*
G04 #@! TF.FilePolarity,Negative*
%FSLAX46Y46*%
G04 Gerber Fmt 4.6, Leading zero omitted, Abs format (unit mm)*
G04 Created by KiCad (PCBNEW (5.1.9)-1) date 2021-04-09 10:44:14*
%MOMM*%
%LPD*%
G01*
G04 APERTURE LIST*
%ADD10O,3.240000X2.720000*%
%ADD11C,1.800000*%
%ADD12R,1.800000X1.800000*%
%ADD13O,1.300000X2.300000*%
%ADD14C,3.500000*%
%ADD15O,1.600000X1.600000*%
%ADD16R,1.600000X1.600000*%
%ADD17C,1.600000*%
%ADD18C,1.700000*%
%ADD19O,2.400000X1.600000*%
%ADD20R,2.400000X1.600000*%
%ADD21O,2.000000X1.905000*%
%ADD22R,2.000000X1.905000*%
%ADD23C,2.000000*%
%ADD24O,2.600000X1.500000*%
G04 APERTURE END LIST*
D10*
G04 #@! TO.C,RV8*
X5835000Y-105130000D03*
X5835000Y-95530000D03*
D11*
X13335000Y-97830000D03*
X13335000Y-100330000D03*
D12*
X13335000Y-102830000D03*
G04 #@! TD*
D10*
G04 #@! TO.C,RV7*
X5835000Y-91795000D03*
X5835000Y-82195000D03*
D11*
X13335000Y-84495000D03*
X13335000Y-86995000D03*
D12*
X13335000Y-89495000D03*
G04 #@! TD*
D10*
G04 #@! TO.C,RV6*
X5835000Y-78460000D03*
X5835000Y-68860000D03*
D11*
X13335000Y-71160000D03*
X13335000Y-73660000D03*
D12*
X13335000Y-76160000D03*
G04 #@! TD*
D10*
G04 #@! TO.C,RV5*
X5835000Y-65125000D03*
X5835000Y-55525000D03*
D11*
X13335000Y-57825000D03*
X13335000Y-60325000D03*
D12*
X13335000Y-62825000D03*
G04 #@! TD*
D10*
G04 #@! TO.C,RV4*
X5835000Y-51790000D03*
X5835000Y-42190000D03*
D11*
X13335000Y-44490000D03*
X13335000Y-46990000D03*
D12*
X13335000Y-49490000D03*
G04 #@! TD*
D10*
G04 #@! TO.C,RV3*
X5835000Y-38455000D03*
X5835000Y-28855000D03*
D11*
X13335000Y-31155000D03*
X13335000Y-33655000D03*
D12*
X13335000Y-36155000D03*
G04 #@! TD*
D10*
G04 #@! TO.C,RV2*
X5835000Y-25120000D03*
X5835000Y-15520000D03*
D11*
X13335000Y-17820000D03*
X13335000Y-20320000D03*
D12*
X13335000Y-22820000D03*
G04 #@! TD*
D10*
G04 #@! TO.C,RV1*
X5835000Y-11785000D03*
X5835000Y-2185000D03*
D11*
X13335000Y-4485000D03*
X13335000Y-6985000D03*
D12*
X13335000Y-9485000D03*
G04 #@! TD*
D13*
G04 #@! TO.C,J5*
X21115000Y-6985000D03*
X29415000Y-6985000D03*
X32515000Y-6985000D03*
D14*
X26035000Y-6985000D03*
G04 #@! TD*
D13*
G04 #@! TO.C,J12*
X21115000Y-100330000D03*
X29415000Y-100330000D03*
X32515000Y-100330000D03*
D14*
X26035000Y-100330000D03*
G04 #@! TD*
D13*
G04 #@! TO.C,J11*
X21115000Y-86995000D03*
X29415000Y-86995000D03*
X32515000Y-86995000D03*
D14*
X26035000Y-86995000D03*
G04 #@! TD*
D13*
G04 #@! TO.C,J10*
X21115000Y-73660000D03*
X29415000Y-73660000D03*
X32515000Y-73660000D03*
D14*
X26035000Y-73660000D03*
G04 #@! TD*
D13*
G04 #@! TO.C,J9*
X21115000Y-60325000D03*
X29415000Y-60325000D03*
X32515000Y-60325000D03*
D14*
X26035000Y-60325000D03*
G04 #@! TD*
D13*
G04 #@! TO.C,J8*
X21115000Y-46990000D03*
X29415000Y-46990000D03*
X32515000Y-46990000D03*
D14*
X26035000Y-46990000D03*
G04 #@! TD*
D13*
G04 #@! TO.C,J7*
X21115000Y-33655000D03*
X29415000Y-33655000D03*
X32515000Y-33655000D03*
D14*
X26035000Y-33655000D03*
G04 #@! TD*
D13*
G04 #@! TO.C,J6*
X21115000Y-20320000D03*
X29415000Y-20320000D03*
X32515000Y-20320000D03*
D14*
X26035000Y-20320000D03*
G04 #@! TD*
D13*
G04 #@! TO.C,J4*
X55405000Y-60325000D03*
X63705000Y-60325000D03*
X66805000Y-60325000D03*
D14*
X60325000Y-60325000D03*
G04 #@! TD*
D13*
G04 #@! TO.C,J3*
X55405000Y-6985000D03*
X63705000Y-6985000D03*
X66805000Y-6985000D03*
D14*
X60325000Y-6985000D03*
G04 #@! TD*
D13*
G04 #@! TO.C,J2*
X55405000Y-100330000D03*
X63705000Y-100330000D03*
X66805000Y-100330000D03*
D14*
X60325000Y-100330000D03*
G04 #@! TD*
D15*
G04 #@! TO.C,D8*
X16256000Y-104140000D03*
D16*
X18796000Y-104140000D03*
G04 #@! TD*
D15*
G04 #@! TO.C,D7*
X16256000Y-90805000D03*
D16*
X18796000Y-90805000D03*
G04 #@! TD*
D15*
G04 #@! TO.C,D6*
X16256000Y-77470000D03*
D16*
X18796000Y-77470000D03*
G04 #@! TD*
D15*
G04 #@! TO.C,D5*
X16256000Y-64135000D03*
D16*
X18796000Y-64135000D03*
G04 #@! TD*
D15*
G04 #@! TO.C,D4*
X16256000Y-50800000D03*
D16*
X18796000Y-50800000D03*
G04 #@! TD*
D15*
G04 #@! TO.C,D3*
X16256000Y-37465000D03*
D16*
X18796000Y-37465000D03*
G04 #@! TD*
D15*
G04 #@! TO.C,D2*
X16256000Y-24130000D03*
D16*
X18796000Y-24130000D03*
G04 #@! TD*
D15*
G04 #@! TO.C,D1*
X16256000Y-10795000D03*
D16*
X18796000Y-10795000D03*
G04 #@! TD*
D15*
G04 #@! TO.C,R10*
X18796000Y-96012000D03*
D17*
X16256000Y-96012000D03*
G04 #@! TD*
D15*
G04 #@! TO.C,R9*
X18796000Y-82550000D03*
D17*
X16256000Y-82550000D03*
G04 #@! TD*
D15*
G04 #@! TO.C,R8*
X18796000Y-69088000D03*
D17*
X16256000Y-69088000D03*
G04 #@! TD*
D15*
G04 #@! TO.C,R7*
X18796000Y-55880000D03*
D17*
X16256000Y-55880000D03*
G04 #@! TD*
D15*
G04 #@! TO.C,R6*
X18840000Y-42545000D03*
D17*
X16300000Y-42545000D03*
G04 #@! TD*
D15*
G04 #@! TO.C,R5*
X18796000Y-29464000D03*
D17*
X16256000Y-29464000D03*
G04 #@! TD*
D15*
G04 #@! TO.C,R4*
X18796000Y-16256000D03*
D17*
X16256000Y-16256000D03*
G04 #@! TD*
D15*
G04 #@! TO.C,R3*
X18796000Y-2540000D03*
D17*
X16256000Y-2540000D03*
G04 #@! TD*
D18*
G04 #@! TO.C,J1*
X43180000Y-94615000D03*
X43180000Y-92075000D03*
X43180000Y-89535000D03*
X43180000Y-86995000D03*
X43180000Y-84455000D03*
X43180000Y-81915000D03*
X43180000Y-79375000D03*
X43180000Y-76835000D03*
X45720000Y-94615000D03*
X45720000Y-92075000D03*
X45720000Y-89535000D03*
X45720000Y-86995000D03*
X45720000Y-84455000D03*
X45720000Y-81915000D03*
X45720000Y-79375000D03*
G36*
G01*
X46570000Y-76235000D02*
X46570000Y-77435000D01*
G75*
G02*
X46320000Y-77685000I-250000J0D01*
G01*
X45120000Y-77685000D01*
G75*
G02*
X44870000Y-77435000I0J250000D01*
G01*
X44870000Y-76235000D01*
G75*
G02*
X45120000Y-75985000I250000J0D01*
G01*
X46320000Y-75985000D01*
G75*
G02*
X46570000Y-76235000I0J-250000D01*
G01*
G37*
G04 #@! TD*
D17*
G04 #@! TO.C,C9*
X61595000Y-79415000D03*
D16*
X61595000Y-81915000D03*
G04 #@! TD*
D17*
G04 #@! TO.C,C8*
X61595000Y-89495000D03*
D16*
X61595000Y-86995000D03*
G04 #@! TD*
D19*
G04 #@! TO.C,U3*
X48260000Y-29210000D03*
X40640000Y-46990000D03*
X48260000Y-31750000D03*
X40640000Y-44450000D03*
X48260000Y-34290000D03*
X40640000Y-41910000D03*
X48260000Y-36830000D03*
X40640000Y-39370000D03*
X48260000Y-39370000D03*
X40640000Y-36830000D03*
X48260000Y-41910000D03*
X40640000Y-34290000D03*
X48260000Y-44450000D03*
X40640000Y-31750000D03*
X48260000Y-46990000D03*
D20*
X40640000Y-29210000D03*
G04 #@! TD*
D17*
G04 #@! TO.C,C7*
X41990000Y-26035000D03*
X46990000Y-26035000D03*
G04 #@! TD*
G04 #@! TO.C,C6*
X41990000Y-69215000D03*
X46990000Y-69215000D03*
G04 #@! TD*
G04 #@! TO.C,C5*
X46910000Y-20955000D03*
X41910000Y-20955000D03*
G04 #@! TD*
D21*
G04 #@! TO.C,U4*
X54610000Y-81915000D03*
X54610000Y-84455000D03*
D22*
X54610000Y-86995000D03*
G04 #@! TD*
D17*
G04 #@! TO.C,C4*
X51435000Y-76915000D03*
X51435000Y-81915000D03*
G04 #@! TD*
G04 #@! TO.C,C3*
X51435000Y-91995000D03*
X51435000Y-86995000D03*
G04 #@! TD*
D11*
G04 #@! TO.C,D16*
X17145000Y-99060000D03*
D12*
X17145000Y-101600000D03*
G04 #@! TD*
D11*
G04 #@! TO.C,D15*
X17145000Y-85725000D03*
D12*
X17145000Y-88265000D03*
G04 #@! TD*
D11*
G04 #@! TO.C,D14*
X17145000Y-72390000D03*
D12*
X17145000Y-74930000D03*
G04 #@! TD*
D11*
G04 #@! TO.C,D13*
X17145000Y-59055000D03*
D12*
X17145000Y-61595000D03*
G04 #@! TD*
D11*
G04 #@! TO.C,D12*
X17145000Y-45720000D03*
D12*
X17145000Y-48260000D03*
G04 #@! TD*
D11*
G04 #@! TO.C,D11*
X17145000Y-32385000D03*
D12*
X17145000Y-34925000D03*
G04 #@! TD*
D11*
G04 #@! TO.C,D10*
X17145000Y-19050000D03*
D12*
X17145000Y-21590000D03*
G04 #@! TD*
D11*
G04 #@! TO.C,D9*
X17145000Y-5715000D03*
D12*
X17145000Y-8255000D03*
G04 #@! TD*
D19*
G04 #@! TO.C,U2*
X48260000Y-50800000D03*
X40640000Y-66040000D03*
X48260000Y-53340000D03*
X40640000Y-63500000D03*
X48260000Y-55880000D03*
X40640000Y-60960000D03*
X48260000Y-58420000D03*
X40640000Y-58420000D03*
X48260000Y-60960000D03*
X40640000Y-55880000D03*
X48260000Y-63500000D03*
X40640000Y-53340000D03*
X48260000Y-66040000D03*
D20*
X40640000Y-50800000D03*
G04 #@! TD*
D19*
G04 #@! TO.C,U1*
X40640000Y-17780000D03*
X48260000Y-2540000D03*
X40640000Y-15240000D03*
X48260000Y-5080000D03*
X40640000Y-12700000D03*
X48260000Y-7620000D03*
X40640000Y-10160000D03*
X48260000Y-10160000D03*
X40640000Y-7620000D03*
X48260000Y-12700000D03*
X40640000Y-5080000D03*
X48260000Y-15240000D03*
X40640000Y-2540000D03*
D20*
X48260000Y-17780000D03*
G04 #@! TD*
D23*
G04 #@! TO.C,SW3*
X63575000Y-44740000D03*
X63575000Y-49240000D03*
X57075000Y-44740000D03*
X57075000Y-49240000D03*
G04 #@! TD*
G04 #@! TO.C,SW2*
X63575000Y-18070000D03*
X63575000Y-22570000D03*
X57075000Y-18070000D03*
X57075000Y-22570000D03*
G04 #@! TD*
D24*
G04 #@! TO.C,SW1*
X60325000Y-31028000D03*
X60325000Y-36028000D03*
X60325000Y-33528000D03*
G04 #@! TD*
D15*
G04 #@! TO.C,R2*
X64770000Y-52705000D03*
D17*
X57150000Y-52705000D03*
G04 #@! TD*
D15*
G04 #@! TO.C,R1*
X64770000Y-25908000D03*
D17*
X57150000Y-25908000D03*
G04 #@! TD*
G04 #@! TO.C,C2*
X66675000Y-44530000D03*
X66675000Y-49530000D03*
G04 #@! TD*
G04 #@! TO.C,C1*
X66548000Y-17860000D03*
X66548000Y-22860000D03*
G04 #@! TD*
M02*
