M48
; DRILL file {KiCad (5.1.9)-1} date 04/09/21 10:44:16
; FORMAT={-:-/ absolute / metric / decimal}
; #@! TF.CreationDate,2021-04-09T10:44:16+02:00
; #@! TF.GenerationSoftware,Kicad,Pcbnew,(5.1.9)-1
; #@! TF.FileFunction,Plated,1,2,PTH
FMAT,2
METRIC
T1C0.400
T2C0.500
T3C0.700
T4C0.800
T5C0.900
T6C1.000
T7C1.100
%
G90
G05
T1
X22.86Y-10.795
X22.86Y-24.13
X22.86Y-37.465
X22.86Y-50.8
X22.86Y-64.135
X22.86Y-77.47
X22.86Y-90.805
X22.86Y-104.14
X34.29Y-31.115
X34.29Y-36.83
X34.29Y-41.91
X34.29Y-97.79
X35.56Y-17.78
X35.56Y-31.75
X35.56Y-39.37
X35.56Y-84.455
X36.83Y-4.445
X36.83Y-34.29
X36.83Y-45.72
X36.83Y-57.785
X38.1Y-29.21
X38.1Y-71.12
X43.18Y-10.16
X43.18Y-50.8
X45.72Y-10.16
X45.72Y-17.78
X50.8Y-3.81
X50.8Y-48.26
X52.07Y-6.35
X52.07Y-52.07
X53.34Y-7.62
X53.34Y-22.225
X53.34Y-34.29
X53.34Y-54.61
X54.61Y-15.24
X54.61Y-31.75
T4
X16.256Y-2.54
X16.256Y-10.795
X16.256Y-16.256
X16.256Y-24.13
X16.256Y-29.464
X16.256Y-37.465
X16.256Y-50.8
X16.256Y-55.88
X16.256Y-64.135
X16.256Y-69.088
X16.256Y-77.47
X16.256Y-82.55
X16.256Y-90.805
X16.256Y-96.012
X16.256Y-104.14
X16.3Y-42.545
X18.796Y-2.54
X18.796Y-10.795
X18.796Y-16.256
X18.796Y-24.13
X18.796Y-29.464
X18.796Y-37.465
X18.796Y-50.8
X18.796Y-55.88
X18.796Y-64.135
X18.796Y-69.088
X18.796Y-77.47
X18.796Y-82.55
X18.796Y-90.805
X18.796Y-96.012
X18.796Y-104.14
X18.84Y-42.545
X40.64Y-2.54
X40.64Y-5.08
X40.64Y-7.62
X40.64Y-10.16
X40.64Y-12.7
X40.64Y-15.24
X40.64Y-17.78
X40.64Y-29.21
X40.64Y-31.75
X40.64Y-34.29
X40.64Y-36.83
X40.64Y-39.37
X40.64Y-41.91
X40.64Y-44.45
X40.64Y-46.99
X40.64Y-50.8
X40.64Y-53.34
X40.64Y-55.88
X40.64Y-58.42
X40.64Y-60.96
X40.64Y-63.5
X40.64Y-66.04
X41.91Y-20.955
X41.99Y-26.035
X41.99Y-69.215
X46.91Y-20.955
X46.99Y-26.035
X46.99Y-69.215
X48.26Y-2.54
X48.26Y-5.08
X48.26Y-7.62
X48.26Y-10.16
X48.26Y-12.7
X48.26Y-15.24
X48.26Y-17.78
X48.26Y-29.21
X48.26Y-31.75
X48.26Y-34.29
X48.26Y-36.83
X48.26Y-39.37
X48.26Y-41.91
X48.26Y-44.45
X48.26Y-46.99
X48.26Y-50.8
X48.26Y-53.34
X48.26Y-55.88
X48.26Y-58.42
X48.26Y-60.96
X48.26Y-63.5
X48.26Y-66.04
X51.435Y-76.915
X51.435Y-81.915
X51.435Y-86.995
X51.435Y-91.995
X57.15Y-25.908
X57.15Y-52.705
X61.595Y-79.415
X61.595Y-81.915
X61.595Y-86.995
X61.595Y-89.495
X64.77Y-25.908
X64.77Y-52.705
X66.548Y-17.86
X66.548Y-22.86
X66.675Y-44.53
X66.675Y-49.53
T5
X17.145Y-5.715
X17.145Y-8.255
X17.145Y-19.05
X17.145Y-21.59
X17.145Y-32.385
X17.145Y-34.925
X17.145Y-45.72
X17.145Y-48.26
X17.145Y-59.055
X17.145Y-61.595
X17.145Y-72.39
X17.145Y-74.93
X17.145Y-85.725
X17.145Y-88.265
X17.145Y-99.06
X17.145Y-101.6
T6
X13.335Y-4.485
X13.335Y-6.985
X13.335Y-9.485
X13.335Y-17.82
X13.335Y-20.32
X13.335Y-22.82
X13.335Y-31.155
X13.335Y-33.655
X13.335Y-36.155
X13.335Y-44.49
X13.335Y-46.99
X13.335Y-49.49
X13.335Y-57.825
X13.335Y-60.325
X13.335Y-62.825
X13.335Y-71.16
X13.335Y-73.66
X13.335Y-76.16
X13.335Y-84.495
X13.335Y-86.995
X13.335Y-89.495
X13.335Y-97.83
X13.335Y-100.33
X13.335Y-102.83
X43.18Y-76.835
X43.18Y-79.375
X43.18Y-81.915
X43.18Y-84.455
X43.18Y-86.995
X43.18Y-89.535
X43.18Y-92.075
X43.18Y-94.615
X45.72Y-76.835
X45.72Y-79.375
X45.72Y-81.915
X45.72Y-84.455
X45.72Y-86.995
X45.72Y-89.535
X45.72Y-92.075
X45.72Y-94.615
T7
X54.61Y-81.915
X54.61Y-84.455
X54.61Y-86.995
X57.075Y-18.07
X57.075Y-22.57
X57.075Y-44.74
X57.075Y-49.24
X63.575Y-18.07
X63.575Y-22.57
X63.575Y-44.74
X63.575Y-49.24
T2
G00X21.115Y-7.485
M15
G01X21.115Y-6.485
M16
G05
G00X21.115Y-20.82
M15
G01X21.115Y-19.82
M16
G05
G00X21.115Y-34.155
M15
G01X21.115Y-33.155
M16
G05
G00X21.115Y-47.49
M15
G01X21.115Y-46.49
M16
G05
G00X21.115Y-60.825
M15
G01X21.115Y-59.825
M16
G05
G00X21.115Y-74.16
M15
G01X21.115Y-73.16
M16
G05
G00X21.115Y-87.495
M15
G01X21.115Y-86.495
M16
G05
G00X21.115Y-100.83
M15
G01X21.115Y-99.83
M16
G05
G00X29.415Y-7.485
M15
G01X29.415Y-6.485
M16
G05
G00X29.415Y-20.82
M15
G01X29.415Y-19.82
M16
G05
G00X29.415Y-34.155
M15
G01X29.415Y-33.155
M16
G05
G00X29.415Y-47.49
M15
G01X29.415Y-46.49
M16
G05
G00X29.415Y-60.825
M15
G01X29.415Y-59.825
M16
G05
G00X29.415Y-74.16
M15
G01X29.415Y-73.16
M16
G05
G00X29.415Y-87.495
M15
G01X29.415Y-86.495
M16
G05
G00X29.415Y-100.83
M15
G01X29.415Y-99.83
M16
G05
G00X32.515Y-7.485
M15
G01X32.515Y-6.485
M16
G05
G00X32.515Y-20.82
M15
G01X32.515Y-19.82
M16
G05
G00X32.515Y-34.155
M15
G01X32.515Y-33.155
M16
G05
G00X32.515Y-47.49
M15
G01X32.515Y-46.49
M16
G05
G00X32.515Y-60.825
M15
G01X32.515Y-59.825
M16
G05
G00X32.515Y-74.16
M15
G01X32.515Y-73.16
M16
G05
G00X32.515Y-87.495
M15
G01X32.515Y-86.495
M16
G05
G00X32.515Y-100.83
M15
G01X32.515Y-99.83
M16
G05
G00X55.405Y-7.485
M15
G01X55.405Y-6.485
M16
G05
G00X55.405Y-60.825
M15
G01X55.405Y-59.825
M16
G05
G00X55.405Y-100.83
M15
G01X55.405Y-99.83
M16
G05
G00X63.705Y-7.485
M15
G01X63.705Y-6.485
M16
G05
G00X63.705Y-60.825
M15
G01X63.705Y-59.825
M16
G05
G00X63.705Y-100.83
M15
G01X63.705Y-99.83
M16
G05
G00X66.805Y-7.485
M15
G01X66.805Y-6.485
M16
G05
G00X66.805Y-60.825
M15
G01X66.805Y-59.825
M16
G05
G00X66.805Y-100.83
M15
G01X66.805Y-99.83
M16
G05
T3
G00X59.775Y-31.028
M15
G01X60.875Y-31.028
M16
G05
G00X59.775Y-33.528
M15
G01X60.875Y-33.528
M16
G05
G00X59.775Y-36.028
M15
G01X60.875Y-36.028
M16
G05
T7
G00X6.185Y-2.185
M15
G01X5.485Y-2.185
M16
G05
G00X6.185Y-11.785
M15
G01X5.485Y-11.785
M16
G05
G00X6.185Y-15.52
M15
G01X5.485Y-15.52
M16
G05
G00X6.185Y-25.12
M15
G01X5.485Y-25.12
M16
G05
G00X6.185Y-28.855
M15
G01X5.485Y-28.855
M16
G05
G00X6.185Y-38.455
M15
G01X5.485Y-38.455
M16
G05
G00X6.185Y-42.19
M15
G01X5.485Y-42.19
M16
G05
G00X6.185Y-51.79
M15
G01X5.485Y-51.79
M16
G05
G00X6.185Y-55.525
M15
G01X5.485Y-55.525
M16
G05
G00X6.185Y-65.125
M15
G01X5.485Y-65.125
M16
G05
G00X6.185Y-68.86
M15
G01X5.485Y-68.86
M16
G05
G00X6.185Y-78.46
M15
G01X5.485Y-78.46
M16
G05
G00X6.185Y-82.195
M15
G01X5.485Y-82.195
M16
G05
G00X6.185Y-91.795
M15
G01X5.485Y-91.795
M16
G05
G00X6.185Y-95.53
M15
G01X5.485Y-95.53
M16
G05
G00X6.185Y-105.13
M15
G01X5.485Y-105.13
M16
G05
T0
M30
