G04 #@! TF.GenerationSoftware,KiCad,Pcbnew,(5.1.9)-1*
G04 #@! TF.CreationDate,2021-04-09T10:44:14+02:00*
G04 #@! TF.ProjectId,Baby 8,42616279-2038-42e6-9b69-6361645f7063,rev?*
G04 #@! TF.SameCoordinates,Original*
G04 #@! TF.FileFunction,Legend,Bot*
G04 #@! TF.FilePolarity,Positive*
%FSLAX46Y46*%
G04 Gerber Fmt 4.6, Leading zero omitted, Abs format (unit mm)*
G04 Created by KiCad (PCBNEW (5.1.9)-1) date 2021-04-09 10:44:14*
%MOMM*%
%LPD*%
G01*
G04 APERTURE LIST*
%ADD10C,0.120000*%
%ADD11C,0.150000*%
%ADD12C,0.254000*%
%ADD13C,0.100000*%
G04 APERTURE END LIST*
D10*
G04 #@! TO.C,J1*
X49010000Y-71625000D02*
X39890000Y-71625000D01*
X39890000Y-71625000D02*
X39890000Y-99825000D01*
X39890000Y-99825000D02*
X49010000Y-99825000D01*
X49010000Y-99825000D02*
X49010000Y-71625000D01*
X49010000Y-83675000D02*
X47700000Y-83675000D01*
X47700000Y-83675000D02*
X47700000Y-72925000D01*
X47700000Y-72925000D02*
X41200000Y-72925000D01*
X41200000Y-72925000D02*
X41200000Y-98525000D01*
X41200000Y-98525000D02*
X47700000Y-98525000D01*
X47700000Y-98525000D02*
X47700000Y-87775000D01*
X47700000Y-87775000D02*
X47700000Y-87775000D01*
X47700000Y-87775000D02*
X49010000Y-87775000D01*
X49400000Y-76835000D02*
X50400000Y-76335000D01*
X50400000Y-76335000D02*
X50400000Y-77335000D01*
X50400000Y-77335000D02*
X49400000Y-76835000D01*
G04 #@! TO.C,U4*
X57880000Y-82604000D02*
X56370000Y-82604000D01*
X57880000Y-86305000D02*
X56370000Y-86305000D01*
X56370000Y-89575000D02*
X56370000Y-79335000D01*
X57880000Y-79335000D02*
X53239000Y-79335000D01*
X57880000Y-89575000D02*
X53239000Y-89575000D01*
X53239000Y-89575000D02*
X53239000Y-79335000D01*
X57880000Y-89575000D02*
X57880000Y-79335000D01*
G04 #@! TO.C,J1*
D11*
X47541285Y-102405571D02*
X47541285Y-100905571D01*
X46969857Y-100905571D01*
X46827000Y-100977000D01*
X46755571Y-101048428D01*
X46684142Y-101191285D01*
X46684142Y-101405571D01*
X46755571Y-101548428D01*
X46827000Y-101619857D01*
X46969857Y-101691285D01*
X47541285Y-101691285D01*
X45827000Y-102405571D02*
X45969857Y-102334142D01*
X46041285Y-102262714D01*
X46112714Y-102119857D01*
X46112714Y-101691285D01*
X46041285Y-101548428D01*
X45969857Y-101477000D01*
X45827000Y-101405571D01*
X45612714Y-101405571D01*
X45469857Y-101477000D01*
X45398428Y-101548428D01*
X45327000Y-101691285D01*
X45327000Y-102119857D01*
X45398428Y-102262714D01*
X45469857Y-102334142D01*
X45612714Y-102405571D01*
X45827000Y-102405571D01*
X44827000Y-101405571D02*
X44541285Y-102405571D01*
X44255571Y-101691285D01*
X43969857Y-102405571D01*
X43684142Y-101405571D01*
X42541285Y-102334142D02*
X42684142Y-102405571D01*
X42969857Y-102405571D01*
X43112714Y-102334142D01*
X43184142Y-102191285D01*
X43184142Y-101619857D01*
X43112714Y-101477000D01*
X42969857Y-101405571D01*
X42684142Y-101405571D01*
X42541285Y-101477000D01*
X42469857Y-101619857D01*
X42469857Y-101762714D01*
X43184142Y-101905571D01*
X41827000Y-102405571D02*
X41827000Y-101405571D01*
X41827000Y-101691285D02*
X41755571Y-101548428D01*
X41684142Y-101477000D01*
X41541285Y-101405571D01*
X41398428Y-101405571D01*
G04 #@! TD*
D12*
X50038000Y-77978000D02*
X38227000Y-77978000D01*
X38227000Y-75692000D01*
X50038000Y-75692000D01*
X50038000Y-77978000D01*
D13*
G36*
X50038000Y-77978000D02*
G01*
X38227000Y-77978000D01*
X38227000Y-75692000D01*
X50038000Y-75692000D01*
X50038000Y-77978000D01*
G37*
M02*
