<?xml version="1.0" encoding="UTF-8" standalone="no"?>
<svg
   viewBox="0 0 37.039 485.66999"
   width="9.799902mm"
   height="128.50018mm"
   version="1.1"
   id="svg271"
   sodipodi:docname="Slimline Rectifier Front.svg"
   inkscape:export-filename="H:\+--- Sortierte Dokumente ---+\GitHub\CATs-Eurosynth\Modules\Slim Line\Rectifier\Mechanics\Slimline Rectifier Front.png"
   inkscape:export-xdpi="900"
   inkscape:export-ydpi="900"
   inkscape:version="1.1.1 (3bf5ae0d25, 2021-09-20)"
   xmlns:inkscape="http://www.inkscape.org/namespaces/inkscape"
   xmlns:sodipodi="http://sodipodi.sourceforge.net/DTD/sodipodi-0.dtd"
   xmlns="http://www.w3.org/2000/svg"
   xmlns:svg="http://www.w3.org/2000/svg">
  <sodipodi:namedview
     id="namedview273"
     pagecolor="#ffffff"
     bordercolor="#666666"
     borderopacity="1.0"
     inkscape:pageshadow="2"
     inkscape:pageopacity="0.0"
     inkscape:pagecheckerboard="0"
     showgrid="false"
     inkscape:document-units="mm"
     units="mm"
     fit-margin-top="0"
     fit-margin-left="0"
     fit-margin-right="0"
     fit-margin-bottom="0"
     inkscape:zoom="6.2145905"
     inkscape:cx="22.608087"
     inkscape:cy="437.2774"
     inkscape:window-width="1920"
     inkscape:window-height="1057"
     inkscape:window-x="-8"
     inkscape:window-y="-8"
     inkscape:window-maximized="1"
     inkscape:current-layer="g269" />
  <desc
     id="desc2">Slimline Rectifier Front.DXF - scale = 1.0, origin = (0.0, 0.0), method = manual</desc>
  <defs
     id="defs17">
    <marker
       id="DistanceX"
       orient="auto"
       refX="0"
       refY="0"
       style="overflow:visible">
      <path
         d="M 3,-3 -3,3 M 0,-5 V 5"
         style="stroke:#000000;stroke-width:0.5"
         id="path4" />
    </marker>
    <pattern
       id="Hatch"
       patternUnits="userSpaceOnUse"
       width="8"
       height="8"
       x="0"
       y="0">
      <path
         d="M8 4 l-4,4"
         stroke="#000000"
         stroke-width="0.25"
         linecap="square"
         id="path7" />
      <path
         d="M6 2 l-4,4"
         stroke="#000000"
         stroke-width="0.25"
         linecap="square"
         id="path9" />
      <path
         d="M4 0 l-4,4"
         stroke="#000000"
         stroke-width="0.25"
         linecap="square"
         id="path11" />
    </pattern>
    <symbol
       id="*MODEL_SPACE" />
    <symbol
       id="*PAPER_SPACE" />
    <symbol
       id="*PAPER_SPACE0" />
  </defs>
  <g
     inkscape:groupmode="layer"
     inkscape:label="0"
     id="g269"
     transform="translate(-386.949,-287.646)">
    <path
       style="vector-effect:non-scaling-stroke;fill:none;stroke:#000000;stroke-width:0.01;stroke-linecap:round;stroke-miterlimit:4;stroke-dasharray:none;-inkscape-stroke:hairline"
       d="m 392.69,310.19 -0.083,-0.147"
       id="path19" />
    <path
       d="m 392.60692,310.04271 c -0.0329,-0.0494 -0.0657,-0.0989 -0.0965,-0.14953 -0.025,-0.0412 -0.0487,-0.0832 -0.07,-0.12682 -0.017,-0.0348 -0.0326,-0.0706 -0.0416,-0.10789 -0.007,-0.0284 -0.0101,-0.0577 -0.0133,-0.0871"
       style="vector-effect:non-scaling-stroke;fill:none;stroke:#000000;stroke-width:0.01;stroke-linecap:round;stroke-miterlimit:4;stroke-dasharray:none;-inkscape-stroke:hairline"
       id="path21" />
    <path
       d="m 392.38547,309.5714 c 0.003,-0.0498 0.007,-0.0997 0.0189,-0.14764 0.0124,-0.0492 0.034,-0.0963 0.0606,-0.14006 0.0279,-0.046 0.0613,-0.0883 0.0984,-0.12682 0.0422,-0.0439 0.0892,-0.083 0.13817,-0.11925 0.0496,-0.0367 0.10136,-0.0705 0.15521,-0.10031 0.0476,-0.0264 0.0969,-0.0497 0.14764,-0.07 0.0461,-0.0185 0.0934,-0.0345 0.14196,-0.0435 0.0435,-0.008 0.088,-0.0107 0.1325,-0.0133"
       style="vector-effect:non-scaling-stroke;fill:none;stroke:#000000;stroke-width:0.01;stroke-linecap:round;stroke-miterlimit:4;stroke-dasharray:none;-inkscape-stroke:hairline"
       id="path23" />
    <path
       d="m 393.27887,308.8105 c 0.0442,6.4e-4 0.0884,0.001 0.13249,0.004 0.055,0.003 0.10984,0.009 0.16467,0.0152"
       style="vector-effect:non-scaling-stroke;fill:none;stroke:#000000;stroke-width:0.01;stroke-linecap:round;stroke-miterlimit:4;stroke-dasharray:none;-inkscape-stroke:hairline"
       id="path25" />
    <path
       d="m 393.57603,308.82943 c 0.0271,0.004 0.0542,0.008 0.0814,0.0113 0.0214,0.003 0.0429,0.005 0.0644,0.008 0.0151,0.002 0.0302,0.004 0.0454,0.006 0.009,8.7e-4 0.0189,10e-4 0.0284,0.002"
       style="vector-effect:non-scaling-stroke;fill:none;stroke:#000000;stroke-width:0.01;stroke-linecap:round;stroke-miterlimit:4;stroke-dasharray:none;-inkscape-stroke:hairline"
       id="path27" />
    <path
       d="m 393.7956,308.85593 c 0.15141,-0.0234 0.30282,-0.0469 0.45427,-0.07 0.13998,-0.0214 0.27999,-0.0426 0.4202,-0.0625 0.12793,-0.0181 0.25602,-0.0351 0.38423,-0.0511 0.11602,-0.0145 0.23213,-0.0281 0.34828,-0.0416 0.10465,-0.0122 0.20933,-0.0242 0.3142,-0.0341 0.0926,-0.009 0.18543,-0.0158 0.27824,-0.0227 0.0807,-0.006 0.16144,-0.012 0.24228,-0.0151 0.0693,-0.003 0.13878,-0.003 0.20821,-0.004"
       style="vector-effect:non-scaling-stroke;fill:none;stroke:#000000;stroke-width:0.01;stroke-linecap:round;stroke-miterlimit:4;stroke-dasharray:none;-inkscape-stroke:hairline"
       id="path29" />
    <path
       d="m 396.44551,308.55497 c 0.11617,0.002 0.23234,0.004 0.34827,0.0114 0.1101,0.007 0.21999,0.0175 0.32935,0.0322 0.10407,0.014 0.20766,0.0314 0.31041,0.053 0.0981,0.0206 0.19547,0.0449 0.29149,0.0738 0.0924,0.0278 0.18347,0.0597 0.27257,0.0965 0.0864,0.0357 0.1708,0.0759 0.25363,0.11924 0.081,0.0424 0.16041,0.0878 0.2366,0.13817 0.0748,0.0495 0.14655,0.10373 0.21578,0.16089 0.0676,0.0558 0.13275,0.11435 0.19496,0.17603 0.0593,0.0589 0.11595,0.12054 0.16845,0.1855 0.0509,0.0629 0.0979,0.1289 0.14196,0.19685 0.0428,0.066 0.0829,0.13383 0.11736,0.20442 0.0344,0.0704 0.0631,0.14356 0.089,0.21767 0.0258,0.074 0.0487,0.14896 0.0663,0.22524 0.0179,0.0779 0.0303,0.15706 0.0378,0.2366 0.008,0.0818 0.0105,0.16393 0.0132,0.24606"
       style="vector-effect:non-scaling-stroke;fill:none;stroke:#000000;stroke-width:0.01;stroke-linecap:round;stroke-miterlimit:4;stroke-dasharray:none;-inkscape-stroke:hairline"
       id="path31" />
    <path
       d="m 399.53265,310.92853 c -0.003,0.0796 -0.005,0.1593 -0.0132,0.2385 -0.008,0.0788 -0.0211,0.15718 -0.0378,0.2347 -0.017,0.0786 -0.0378,0.15633 -0.0625,0.23281 -0.0251,0.0777 -0.0543,0.15419 -0.0871,0.22903 -0.034,0.0776 -0.072,0.1534 -0.11357,0.22714 -0.0432,0.0765 -0.0904,0.15082 -0.14007,0.22335 -0.0515,0.0752 -0.10574,0.1485 -0.16278,0.21956 -0.0602,0.075 -0.12352,0.1475 -0.18928,0.21767 -0.0677,0.0723 -0.13807,0.14209 -0.2101,0.2101 -0.0738,0.0697 -0.14933,0.13743 -0.22713,0.20253 -0.0793,0.0663 -0.16091,0.12989 -0.24417,0.19117 -0.0854,0.0629 -0.1726,0.12338 -0.26121,0.18171 -0.0911,0.06 -0.18378,0.11771 -0.27824,0.17224 -0.0976,0.0563 -0.19703,0.10924 -0.29717,0.16089 -0.1031,0.0532 -0.20691,0.105 -0.31231,0.15332 -0.10865,0.0498 -0.219,0.0959 -0.32934,0.14196"
       style="vector-effect:non-scaling-stroke;fill:none;stroke:#000000;stroke-width:0.01;stroke-linecap:round;stroke-miterlimit:4;stroke-dasharray:none;-inkscape-stroke:hairline"
       id="path33" />
    <path
       d="m 396.56665,314.16521 c 0.18138,0.1493 0.36276,0.2986 0.54512,0.4467 0.16897,0.13721 0.33877,0.27339 0.50916,0.40884 0.15828,0.12583 0.31706,0.25104 0.47698,0.37477 0.14672,0.11352 0.29439,0.22579 0.44292,0.33692 0.1355,0.10138 0.27171,0.2018 0.40884,0.30095 0.12399,0.0897 0.24872,0.17827 0.37477,0.26499 0.11245,0.0774 0.22595,0.15325 0.34071,0.22714 0.10155,0.0654 0.20409,0.12923 0.30663,0.19307"
       style="vector-effect:non-scaling-stroke;fill:none;stroke:#000000;stroke-width:0.01;stroke-linecap:round;stroke-miterlimit:4;stroke-dasharray:none;-inkscape-stroke:hairline"
       id="path35" />
    <path
       d="m 399.97178,316.71859 c 0.0623,0.042 0.12458,0.0841 0.17981,0.13438 0.0482,0.0439 0.0911,0.0942 0.12682,0.14953 0.0341,0.0528 0.0617,0.11027 0.0776,0.17036 0.0159,0.0601 0.0203,0.12277 0.0246,0.18549"
       style="vector-effect:non-scaling-stroke;fill:none;stroke:#000000;stroke-width:0.01;stroke-linecap:round;stroke-miterlimit:4;stroke-dasharray:none;-inkscape-stroke:hairline"
       id="path37" />
    <path
       d="m 400.38062,317.35835 c -0.004,0.0427 -0.008,0.0855 -0.0189,0.12681 -0.0113,0.0449 -0.03,0.0882 -0.053,0.12871 -0.0258,0.0454 -0.057,0.0873 -0.0909,0.12682 -0.0392,0.0458 -0.0819,0.0885 -0.12682,0.12871 -0.0449,0.0402 -0.0921,0.078 -0.14195,0.11168 -0.044,0.0297 -0.0901,0.0563 -0.13818,0.0795 -0.0432,0.0208 -0.088,0.0389 -0.13439,0.0492 -0.0426,0.009 -0.0866,0.0123 -0.1306,0.0151"
       style="vector-effect:non-scaling-stroke;fill:none;stroke:#000000;stroke-width:0.01;stroke-linecap:round;stroke-miterlimit:4;stroke-dasharray:none;-inkscape-stroke:hairline"
       id="path39" />
    <path
       d="m 399.5459,318.12493 c -0.0641,-0.005 -0.12821,-0.009 -0.19117,-0.0208 -0.069,-0.0126 -0.13671,-0.0336 -0.20253,-0.0587 -0.0748,-0.0285 -0.14726,-0.0625 -0.21767,-0.10032 -0.0789,-0.0423 -0.1552,-0.0895 -0.22903,-0.14006 -0.0414,-0.0284 -0.0821,-0.0579 -0.12303,-0.0871 -0.0453,-0.0323 -0.091,-0.0641 -0.13628,-0.0965 -0.0503,-0.036 -0.10012,-0.0726 -0.14953,-0.10979 -0.0532,-0.0401 -0.10599,-0.0808 -0.159,-0.12113 -0.058,-0.0442 -0.11635,-0.088 -0.17413,-0.1325 -0.0616,-0.0474 -0.12259,-0.0957 -0.1836,-0.14385 -0.0656,-0.0518 -0.13119,-0.10353 -0.19685,-0.15521 -0.0702,-0.0553 -0.14052,-0.11049 -0.2101,-0.16657 -0.0677,-0.0546 -0.13484,-0.11 -0.20253,-0.16467 -0.0604,-0.0488 -0.12129,-0.097 -0.18171,-0.14574 -0.0527,-0.0425 -0.10501,-0.0855 -0.1571,-0.12871 -0.0455,-0.0378 -0.0908,-0.0758 -0.13628,-0.11357 -0.0372,-0.0309 -0.0745,-0.0618 -0.11168,-0.0928 -0.0306,-0.0255 -0.0611,-0.0511 -0.0908,-0.0776 -0.0223,-0.0199 -0.0442,-0.0403 -0.0663,-0.0606 -0.0151,-0.0139 -0.0303,-0.0278 -0.0454,-0.0416"
       style="vector-effect:non-scaling-stroke;fill:none;stroke:#000000;stroke-width:0.01;stroke-linecap:round;stroke-miterlimit:4;stroke-dasharray:none;-inkscape-stroke:hairline"
       id="path41" />
    <path
       d="m 396.38115,315.96715 c -0.0969,-0.0817 -0.19388,-0.16332 -0.29149,-0.24417 -0.0905,-0.0749 -0.1815,-0.14916 -0.27256,-0.22335 -0.0831,-0.0677 -0.16625,-0.13542 -0.24985,-0.20253 -0.0753,-0.0605 -0.15098,-0.12044 -0.22713,-0.17982 -0.0689,-0.0537 -0.13814,-0.10689 -0.20821,-0.15899 -0.062,-0.0461 -0.12459,-0.0913 -0.18739,-0.13628 -0.0545,-0.039 -0.10916,-0.0779 -0.16467,-0.11546 -0.0475,-0.0322 -0.0957,-0.0634 -0.14385,-0.0946"
       style="vector-effect:non-scaling-stroke;fill:none;stroke:#000000;stroke-width:0.01;stroke-linecap:round;stroke-miterlimit:4;stroke-dasharray:none;-inkscape-stroke:hairline"
       id="path43" />
    <path
       d="m 394.636,314.61191 c -0.0532,-0.002 -0.10632,-0.004 -0.159,-0.0114 -0.0461,-0.006 -0.0919,-0.0159 -0.13628,-0.0303 -0.0409,-0.0133 -0.0807,-0.0306 -0.11735,-0.053 -0.0345,-0.0211 -0.0662,-0.0468 -0.0946,-0.0757 -0.0281,-0.0286 -0.053,-0.0604 -0.0738,-0.0946 -0.0221,-0.0362 -0.0397,-0.0752 -0.053,-0.11546 -0.0148,-0.0449 -0.0243,-0.0914 -0.0303,-0.13818 -0.007,-0.0528 -0.009,-0.10587 -0.0114,-0.15899"
       style="vector-effect:non-scaling-stroke;fill:none;stroke:#000000;stroke-width:0.01;stroke-linecap:round;stroke-miterlimit:4;stroke-dasharray:none;-inkscape-stroke:hairline"
       id="path45" />
    <path
       d="m 393.96027,313.93429 c 0.003,-0.0518 0.007,-0.10353 0.0189,-0.15332 0.0122,-0.0495 0.0334,-0.0971 0.0587,-0.14196 0.0268,-0.0476 0.0583,-0.0922 0.0946,-0.13249 0.0401,-0.0444 0.0861,-0.0835 0.13439,-0.11925 0.0505,-0.0374 0.10349,-0.0712 0.159,-0.10032 0.0546,-0.0287 0.11163,-0.0528 0.17035,-0.0719 0.0586,-0.0191 0.11891,-0.0331 0.17982,-0.0417 0.0633,-0.009 0.12722,-0.012 0.19117,-0.0151"
       style="vector-effect:non-scaling-stroke;fill:none;stroke:#000000;stroke-width:0.01;stroke-linecap:round;stroke-miterlimit:4;stroke-dasharray:none;-inkscape-stroke:hairline"
       id="path47" />
    <path
       d="m 394.96724,313.15824 c 0.0393,0.001 0.0786,0.003 0.11735,0.008 0.042,0.005 0.0835,0.015 0.12492,0.0246"
       style="vector-effect:non-scaling-stroke;fill:none;stroke:#000000;stroke-width:0.01;stroke-linecap:round;stroke-miterlimit:4;stroke-dasharray:none;-inkscape-stroke:hairline"
       id="path49" />
    <path
       d="m 395.20951,313.19042 c 0.0351,0.0109 0.0701,0.0217 0.106,0.0284 0.0231,0.004 0.0466,0.007 0.07,0.009"
       style="vector-effect:non-scaling-stroke;fill:none;stroke:#000000;stroke-width:0.01;stroke-linecap:round;stroke-miterlimit:4;stroke-dasharray:none;-inkscape-stroke:hairline"
       id="path51" />
    <path
       d="m 395.38554,313.22828 c 0.0374,-0.003 0.0748,-0.005 0.11168,-0.0114 0.0448,-0.007 0.0889,-0.0189 0.13249,-0.0322 0.0518,-0.0157 0.10287,-0.0336 0.15332,-0.053 0.0588,-0.0226 0.11683,-0.0475 0.17414,-0.0738 0.0664,-0.0305 0.13191,-0.063 0.19685,-0.0965 0.0732,-0.0378 0.14578,-0.077 0.21767,-0.11735 0.0801,-0.045 0.15943,-0.0914 0.23849,-0.13817 0.0877,-0.0519 0.1751,-0.1044 0.26121,-0.159 0.0871,-0.0552 0.1728,-0.11261 0.25552,-0.17414 0.0759,-0.0565 0.14929,-0.1164 0.21957,-0.17981 0.0656,-0.0592 0.12854,-0.12144 0.18738,-0.18739 0.0551,-0.0617 0.10656,-0.1267 0.15332,-0.19496 0.0435,-0.0635 0.0829,-0.12989 0.11735,-0.19874 0.0333,-0.0666 0.0619,-0.1355 0.0852,-0.20631 0.0229,-0.0698 0.0406,-0.14139 0.0511,-0.21389 0.0105,-0.0726 0.0138,-0.14608 0.017,-0.21956"
       style="vector-effect:non-scaling-stroke;fill:none;stroke:#000000;stroke-width:0.01;stroke-linecap:round;stroke-miterlimit:4;stroke-dasharray:none;-inkscape-stroke:hairline"
       id="path53" />
    <path
       d="m 397.95785,310.97207 c -0.002,-0.0367 -0.003,-0.0733 -0.008,-0.10979 -0.004,-0.0358 -0.0111,-0.0713 -0.0208,-0.10599 -0.01,-0.0342 -0.022,-0.0676 -0.036,-0.10032 -0.0144,-0.0338 -0.0305,-0.0669 -0.0492,-0.0984 -0.0192,-0.0324 -0.0411,-0.0631 -0.0644,-0.0927 -0.0249,-0.0317 -0.0514,-0.0621 -0.0795,-0.0909 -0.0294,-0.03 -0.0605,-0.0582 -0.0927,-0.0852 -0.0342,-0.0286 -0.0695,-0.0558 -0.106,-0.0814 -0.0769,-0.0539 -0.15891,-0.10053 -0.24417,-0.14007 -0.0885,-0.041 -0.18044,-0.0744 -0.27445,-0.10032 -0.10043,-0.0277 -0.20322,-0.0469 -0.30663,-0.0587 -0.11182,-0.0127 -0.22437,-0.0168 -0.33692,-0.0208"
       style="vector-effect:non-scaling-stroke;fill:none;stroke:#000000;stroke-width:0.01;stroke-linecap:round;stroke-miterlimit:4;stroke-dasharray:none;-inkscape-stroke:hairline"
       id="path55" />
    <path
       d="m 396.33951,309.8875 c -0.13252,8e-4 -0.26505,0.002 -0.39749,0.006 -0.11935,0.004 -0.23863,0.01 -0.35773,0.0189 -0.10627,0.008 -0.21239,0.0181 -0.31799,0.0322 -0.0925,0.0124 -0.18466,0.0278 -0.27635,0.0454 -0.0405,0.008 -0.0809,0.0159 -0.12114,0.0246 -0.0353,0.008 -0.0706,0.0155 -0.106,0.0227 -0.0309,0.006 -0.062,0.0119 -0.0927,0.0189 -0.0254,0.006 -0.0505,0.0125 -0.0757,0.0189 -0.0215,0.005 -0.0431,0.0108 -0.0644,0.017 -0.0159,0.005 -0.0316,0.01 -0.0473,0.0151 -0.0115,0.004 -0.023,0.008 -0.0341,0.0133 -0.007,0.003 -0.0132,0.007 -0.0189,0.0114 -0.01,0.008 -0.0174,0.018 -0.0246,0.0284 -0.009,0.0136 -0.0183,0.0274 -0.0265,0.0416 -0.0109,0.019 -0.0207,0.0388 -0.0303,0.0587 -0.0114,0.0237 -0.0226,0.0475 -0.0322,0.0719 -0.007,0.018 -0.0134,0.0364 -0.0189,0.0549 -0.009,0.0287 -0.0156,0.0579 -0.0227,0.0871 -0.009,0.0385 -0.0193,0.0769 -0.0284,0.11546 -0.0115,0.049 -0.0218,0.0983 -0.0322,0.14764 -0.0126,0.0599 -0.0255,0.11983 -0.0379,0.17982 -0.0144,0.0699 -0.0282,0.13998 -0.0416,0.2101 -0.0154,0.0801 -0.0303,0.16025 -0.0454,0.24038 -0.017,0.0902 -0.0344,0.18039 -0.0511,0.27067 -0.0362,0.1952 -0.0697,0.39091 -0.10222,0.58677 -0.034,0.20486 -0.0669,0.4099 -0.0984,0.61515 -0.0329,0.21431 -0.0644,0.42885 -0.0946,0.64355 -0.0316,0.22381 -0.0619,0.44779 -0.0908,0.67194 -0.0143,0.11037 -0.0282,0.22077 -0.0417,0.33124 -0.0125,0.10279 -0.0245,0.20563 -0.036,0.30853 -0.0106,0.0952 -0.0208,0.19048 -0.0303,0.28581 -0.009,0.0876 -0.017,0.17534 -0.0246,0.2631 -0.007,0.0807 -0.0134,0.16146 -0.0189,0.24228 -0.005,0.0725 -0.009,0.14508 -0.0132,0.21767 -0.004,0.0656 -0.008,0.13119 -0.009,0.19685 -0.002,0.0574 -0.002,0.11481 -0.002,0.17224"
       style="vector-effect:non-scaling-stroke;fill:none;stroke:#000000;stroke-width:0.01;stroke-linecap:round;stroke-miterlimit:4;stroke-dasharray:none;-inkscape-stroke:hairline"
       id="path57" />
    <path
       d="m 393.47572,316.17346 c 0.003,0.13151 0.005,0.26303 0.017,0.3937 0.0107,0.11717 0.029,0.23367 0.0473,0.35017"
       style="vector-effect:non-scaling-stroke;fill:none;stroke:#000000;stroke-width:0.01;stroke-linecap:round;stroke-miterlimit:4;stroke-dasharray:none;-inkscape-stroke:hairline"
       id="path59" />
    <path
       d="m 393.54007,316.91733 c 0.017,0.1026 0.0341,0.2052 0.0435,0.30852 0.008,0.0874 0.0106,0.17523 0.0132,0.2631"
       style="vector-effect:non-scaling-stroke;fill:none;stroke:#000000;stroke-width:0.01;stroke-linecap:round;stroke-miterlimit:4;stroke-dasharray:none;-inkscape-stroke:hairline"
       id="path61" />
    <path
       d="m 393.59685,317.48895 c -0.003,0.0396 -0.007,0.0793 -0.017,0.11735 -0.0112,0.0425 -0.0305,0.0829 -0.053,0.12114 -0.0261,0.0443 -0.0564,0.0855 -0.089,0.12493 -0.0381,0.0461 -0.0793,0.0897 -0.12303,0.1306 -0.045,0.042 -0.0927,0.0812 -0.14385,0.11546 -0.0472,0.0316 -0.0972,0.0589 -0.14953,0.0814 -0.0506,0.0217 -0.10328,0.0389 -0.15711,0.0492 -0.0535,0.0102 -0.10814,0.0136 -0.16278,0.017"
       style="vector-effect:non-scaling-stroke;fill:none;stroke:#000000;stroke-width:0.01;stroke-linecap:round;stroke-miterlimit:4;stroke-dasharray:none;-inkscape-stroke:hairline"
       id="path63" />
    <path
       d="m 392.70156,318.24607 c -0.0724,-0.003 -0.14481,-0.006 -0.21577,-0.0189 -0.0643,-0.0117 -0.12747,-0.0316 -0.18739,-0.0587 -0.0568,-0.0256 -0.11064,-0.0576 -0.159,-0.0965 -0.0484,-0.0389 -0.0912,-0.0847 -0.12871,-0.13439 -0.0403,-0.0535 -0.0744,-0.11146 -0.10221,-0.17224 -0.031,-0.0679 -0.0541,-0.13938 -0.0719,-0.21199 -0.0201,-0.0822 -0.0334,-0.16582 -0.0416,-0.24985 -0.009,-0.0962 -0.0123,-0.1929 -0.0152,-0.2896"
       style="vector-effect:non-scaling-stroke;fill:none;stroke:#000000;stroke-width:0.01;stroke-linecap:round;stroke-miterlimit:4;stroke-dasharray:none;-inkscape-stroke:hairline"
       id="path65" />
    <path
       d="m 391.77977,317.01386 c 9.5e-4,-0.0877 0.002,-0.17541 0.004,-0.2631 0.002,-0.0959 0.005,-0.19184 0.009,-0.2877 0.005,-0.10416 0.0104,-0.20827 0.017,-0.31231 0.007,-0.11238 0.0154,-0.22469 0.0246,-0.33692 0.01,-0.12121 0.0209,-0.24233 0.0322,-0.36342 0.0121,-0.12939 0.0244,-0.25876 0.0379,-0.38802 0.0143,-0.13763 0.0298,-0.27514 0.0454,-0.41263 0.0166,-0.14579 0.0335,-0.29155 0.0511,-0.43723 0.0353,-0.2919 0.0735,-0.58346 0.11546,-0.87447 0.0394,-0.27362 0.0821,-0.54676 0.12682,-0.81958 0.0419,-0.25542 0.0856,-0.51055 0.13439,-0.76469 0.0456,-0.23718 0.0957,-0.47349 0.14574,-0.7098"
       style="vector-effect:non-scaling-stroke;fill:none;stroke:#000000;stroke-width:0.01;stroke-linecap:round;stroke-miterlimit:4;stroke-dasharray:none;-inkscape-stroke:hairline"
       id="path67" />
    <path
       d="m 392.52364,311.04399 c 0.014,-0.0694 0.0279,-0.13877 0.0416,-0.2082 0.0121,-0.0612 0.024,-0.12239 0.036,-0.18361"
       style="vector-effect:non-scaling-stroke;fill:none;stroke:#000000;stroke-width:0.01;stroke-linecap:round;stroke-miterlimit:4;stroke-dasharray:none;-inkscape-stroke:hairline"
       id="path69" />
    <path
       style="vector-effect:non-scaling-stroke;fill:none;stroke:#000000;stroke-width:0.01;stroke-linecap:round;stroke-miterlimit:4;stroke-dasharray:none;-inkscape-stroke:hairline"
       d="m 392.601,310.652 0.089,-0.462"
       id="path71" />
    <path
       d="m 405.22617,312.56769 c -0.001,-0.0342 -0.003,-0.0685 -0.008,-0.10221 -0.005,-0.0314 -0.0127,-0.0624 -0.0227,-0.0928 -0.01,-0.0294 -0.0211,-0.0582 -0.036,-0.0852 -0.0149,-0.027 -0.0331,-0.0521 -0.053,-0.0757 -0.019,-0.0226 -0.0396,-0.0439 -0.0625,-0.0625 -0.022,-0.0179 -0.0462,-0.0332 -0.0719,-0.0454 -0.0253,-0.012 -0.0521,-0.021 -0.0795,-0.0265 -0.0292,-0.006 -0.0591,-0.008 -0.089,-0.009"
       style="vector-effect:non-scaling-stroke;fill:none;stroke:#000000;stroke-width:0.01;stroke-linecap:round;stroke-miterlimit:4;stroke-dasharray:none;-inkscape-stroke:hairline"
       id="path73" />
    <path
       d="m 404.80408,312.06799 c -0.0469,0.003 -0.0938,0.006 -0.14007,0.0132 -0.0495,0.008 -0.0984,0.0211 -0.14574,0.0379 -0.0507,0.0179 -0.0997,0.0401 -0.14764,0.0643 -0.0528,0.0267 -0.10421,0.0561 -0.15332,0.089 -0.0539,0.036 -0.10498,0.0762 -0.15521,0.11735 -0.0551,0.0451 -0.10912,0.0913 -0.16088,0.14006 -0.0565,0.0532 -0.11032,0.10931 -0.16278,0.16657 -0.0577,0.063 -0.11385,0.12739 -0.16846,0.19307 -0.056,0.0673 -0.11044,0.13606 -0.16278,0.20631 -0.0512,0.0686 -0.10031,0.13876 -0.14764,0.2101 -0.0461,0.0695 -0.0904,0.14006 -0.1325,0.21199 -0.0418,0.0714 -0.0813,0.14414 -0.11924,0.21767 -0.0373,0.0722 -0.0731,0.14525 -0.106,0.21957 -0.0322,0.0727 -0.0616,0.14673 -0.089,0.22145 -0.0275,0.075 -0.0529,0.15066 -0.0757,0.22714 -0.0226,0.0758 -0.0425,0.15243 -0.0625,0.22903"
       style="vector-effect:non-scaling-stroke;fill:none;stroke:#000000;stroke-width:0.01;stroke-linecap:round;stroke-miterlimit:4;stroke-dasharray:none;-inkscape-stroke:hairline"
       id="path75" />
    <path
       d="m 402.67469,314.63273 c 0.0835,-0.0185 0.16709,-0.037 0.24984,-0.0587 0.0809,-0.0212 0.16107,-0.0453 0.24039,-0.0719 0.0791,-0.0265 0.15742,-0.0556 0.23471,-0.0871 0.0761,-0.031 0.15125,-0.0645 0.22524,-0.10032 0.0744,-0.0361 0.1477,-0.0745 0.21956,-0.11546 0.0721,-0.0411 0.14286,-0.0847 0.21199,-0.13061 0.069,-0.0458 0.13638,-0.094 0.20253,-0.14385 0.0671,-0.0505 0.13286,-0.10275 0.19685,-0.1571 0.0616,-0.0523 0.12161,-0.10665 0.17982,-0.16278 0.054,-0.052 0.1064,-0.10564 0.1571,-0.16089 0.046,-0.0501 0.0906,-0.10163 0.1325,-0.15521 0.0382,-0.0488 0.0742,-0.0994 0.10789,-0.15142 0.0309,-0.0477 0.0599,-0.0968 0.0852,-0.14764 0.0234,-0.0471 0.0436,-0.0958 0.0606,-0.14574 0.0156,-0.0457 0.0285,-0.0925 0.036,-0.14007 0.007,-0.045 0.009,-0.0906 0.0114,-0.13628"
       style="vector-effect:non-scaling-stroke;fill:none;stroke:#000000;stroke-width:0.01;stroke-linecap:round;stroke-miterlimit:4;stroke-dasharray:none;-inkscape-stroke:hairline"
       id="path77" />
    <path
       d="m 406.92211,315.76272 c -0.003,0.0565 -0.007,0.11308 -0.017,0.16846 -0.0111,0.0601 -0.0303,0.11891 -0.053,0.17603 -0.0251,0.0631 -0.0544,0.12424 -0.0871,0.1836 -0.0366,0.0666 -0.0773,0.13097 -0.12114,0.19307 -0.049,0.0694 -0.10193,0.136 -0.1571,0.20063 -0.0612,0.0717 -0.12514,0.14099 -0.19117,0.20821 -0.0729,0.0742 -0.14829,0.14583 -0.22524,0.21578 -0.0851,0.0773 -0.17206,0.15259 -0.26121,0.22524 -0.0915,0.0746 -0.18525,0.14636 -0.28203,0.21389 -0.0945,0.0659 -0.19177,0.12775 -0.29149,0.18549 -0.098,0.0567 -0.19826,0.10953 -0.30095,0.1571 -0.10143,0.047 -0.20521,0.0889 -0.31042,0.12682 -0.10461,0.0377 -0.21063,0.0715 -0.31799,0.10032 -0.10794,0.029 -0.21725,0.053 -0.32745,0.0719 -0.11159,0.0192 -0.22409,0.0331 -0.33692,0.0417 -0.11523,0.009 -0.2308,0.012 -0.34638,0.0151"
       style="vector-effect:non-scaling-stroke;fill:none;stroke:#000000;stroke-width:0.01;stroke-linecap:round;stroke-miterlimit:4;stroke-dasharray:none;-inkscape-stroke:hairline"
       id="path79" />
    <path
       d="m 403.29552,318.24607 c -0.0872,-0.002 -0.17434,-0.004 -0.2612,-0.0114 -0.0831,-0.007 -0.16587,-0.0175 -0.24796,-0.0322 -0.0784,-0.014 -0.15614,-0.0315 -0.23281,-0.053 -0.0738,-0.0207 -0.14661,-0.0451 -0.21767,-0.0738 -0.0699,-0.0282 -0.1381,-0.0607 -0.20442,-0.0965 -0.0658,-0.0356 -0.12977,-0.0746 -0.19118,-0.11735 -0.0613,-0.0426 -0.11999,-0.0888 -0.17603,-0.13817 -0.0566,-0.0499 -0.11052,-0.10287 -0.16088,-0.159 -0.0513,-0.0571 -0.0989,-0.11753 -0.14386,-0.17981 -0.0454,-0.0629 -0.0881,-0.12776 -0.12681,-0.19496 -0.0394,-0.0685 -0.0747,-0.1394 -0.106,-0.21199 -0.0322,-0.0748 -0.0602,-0.15146 -0.0852,-0.22903 -0.0261,-0.0811 -0.0489,-0.16315 -0.0681,-0.24606 -0.0202,-0.0869 -0.0365,-0.17476 -0.0492,-0.2631 -0.0133,-0.0923 -0.0227,-0.18519 -0.0284,-0.27824 -0.006,-0.0983 -0.008,-0.19679 -0.009,-0.29528"
       style="vector-effect:non-scaling-stroke;fill:none;stroke:#000000;stroke-width:0.01;stroke-linecap:round;stroke-miterlimit:4;stroke-dasharray:none;-inkscape-stroke:hairline"
       id="path81" />
    <path
       d="m 400.98632,315.66619 c 0.003,-0.1485 0.006,-0.297 0.0189,-0.4448 0.0124,-0.14655 0.0338,-0.29242 0.0606,-0.43724 0.0268,-0.14522 0.0589,-0.2894 0.0984,-0.43156 0.0399,-0.1434 0.0872,-0.28475 0.14006,-0.42398 0.0536,-0.1412 0.11281,-0.2802 0.17793,-0.41642 0.0666,-0.13932 0.13939,-0.27572 0.21767,-0.40884 0.081,-0.13777 0.16793,-0.27203 0.25931,-0.40316 0.0943,-0.13535 0.19341,-0.26737 0.29717,-0.3956 0.10212,-0.12621 0.20877,-0.24876 0.31988,-0.3672 0.10414,-0.111 0.2122,-0.21837 0.32556,-0.31988 0.10595,-0.0949 0.21653,-0.1846 0.33124,-0.26878 0.10842,-0.0795 0.22052,-0.15414 0.33692,-0.22145 0.10997,-0.0636 0.22378,-0.12069 0.3407,-0.17036 0.11337,-0.0482 0.22967,-0.0893 0.34827,-0.12303 0.11551,-0.0328 0.23321,-0.0586 0.35206,-0.0738 0.11848,-0.0152 0.23811,-0.0199 0.35774,-0.0246"
       style="vector-effect:non-scaling-stroke;fill:none;stroke:#000000;stroke-width:0.01;stroke-linecap:round;stroke-miterlimit:4;stroke-dasharray:none;-inkscape-stroke:hairline"
       id="path83" />
    <path
       d="m 404.96875,310.73547 c 0.0581,0.002 0.11619,0.003 0.17414,0.008 0.0558,0.004 0.11147,0.011 0.16656,0.0208 0.0529,0.009 0.10525,0.0217 0.15711,0.036 0.0506,0.0139 0.10082,0.0297 0.14953,0.0492 0.0479,0.0192 0.0944,0.0419 0.14006,0.0662 0.0447,0.0239 0.0886,0.0493 0.1306,0.0776 0.0422,0.0284 0.0825,0.0596 0.12114,0.0928 0.0397,0.034 0.0775,0.0701 0.11357,0.10788 0.0358,0.0376 0.0698,0.0769 0.10221,0.11736 0.0313,0.0391 0.0613,0.0794 0.089,0.12114 0.0275,0.0415 0.0528,0.0845 0.0757,0.12871 0.0223,0.0431 0.0424,0.0874 0.0606,0.13249 0.0186,0.0459 0.0352,0.0926 0.0492,0.14007 0.014,0.0473 0.0254,0.0953 0.0341,0.14385 0.009,0.0495 0.015,0.0994 0.0189,0.14953 0.004,0.0516 0.006,0.10343 0.008,0.15521"
       style="vector-effect:non-scaling-stroke;fill:none;stroke:#000000;stroke-width:0.01;stroke-linecap:round;stroke-miterlimit:4;stroke-dasharray:none;-inkscape-stroke:hairline"
       id="path85" />
    <path
       d="m 406.5587,312.28188 c -0.003,0.0929 -0.007,0.18589 -0.017,0.27824 -0.0101,0.093 -0.027,0.18537 -0.0492,0.27635 -0.0224,0.0918 -0.0504,0.18215 -0.0833,0.27067 -0.0341,0.0917 -0.0735,0.18134 -0.11736,0.26877 -0.0459,0.0915 -0.0966,0.18051 -0.15142,0.26689 -0.0571,0.0899 -0.11859,0.1769 -0.1836,0.2612 -0.0689,0.0894 -0.1418,0.17574 -0.21767,0.25931 -0.0801,0.0882 -0.16354,0.17338 -0.24985,0.25553 -0.0891,0.0848 -0.18118,0.16633 -0.27635,0.24417 -0.0956,0.0781 -0.19417,0.15254 -0.29527,0.22335 -0.10237,0.0717 -0.20728,0.13971 -0.31421,0.20442 -0.10829,0.0656 -0.21864,0.12771 -0.33124,0.1855 -0.11527,0.0592 -0.2329,0.11375 -0.35206,0.16467 -0.12219,0.0522 -0.24599,0.10059 -0.37098,0.14575 -0.12802,0.0462 -0.2573,0.0891 -0.38803,0.12681 -0.13525,0.039 -0.27204,0.0725 -0.40884,0.106"
       style="vector-effect:non-scaling-stroke;fill:none;stroke:#000000;stroke-width:0.01;stroke-linecap:round;stroke-miterlimit:4;stroke-dasharray:none;-inkscape-stroke:hairline"
       id="path87" />
    <path
       d="m 402.75229,315.81951 c -0.0285,0.009 -0.0569,0.0182 -0.0833,0.0322 -0.0227,0.012 -0.0439,0.0277 -0.0606,0.0473 -0.0167,0.0197 -0.0288,0.0434 -0.036,0.0682 -0.008,0.027 -0.01,0.0551 -0.0114,0.0833"
       style="vector-effect:non-scaling-stroke;fill:none;stroke:#000000;stroke-width:0.01;stroke-linecap:round;stroke-miterlimit:4;stroke-dasharray:none;-inkscape-stroke:hairline"
       id="path89" />
    <path
       d="m 402.56112,316.05043 c 0.003,0.0509 0.007,0.10186 0.017,0.15142 0.0108,0.0508 0.0291,0.10018 0.0511,0.14764 0.0236,0.051 0.0514,0.0998 0.0833,0.14574 0.0347,0.05 0.0743,0.0968 0.11736,0.14007 0.0447,0.0449 0.0931,0.0861 0.14574,0.12114 0.0526,0.035 0.10945,0.0638 0.16846,0.0871 0.0612,0.0241 0.12471,0.0423 0.18928,0.053 0.0705,0.0117 0.14218,0.0143 0.21388,0.017"
       style="vector-effect:non-scaling-stroke;fill:none;stroke:#000000;stroke-width:0.01;stroke-linecap:round;stroke-miterlimit:4;stroke-dasharray:none;-inkscape-stroke:hairline"
       id="path91" />
    <path
       d="m 403.54726,316.91354 c 0.10568,-0.004 0.21136,-0.008 0.3161,-0.0208 0.10653,-0.013 0.21209,-0.0351 0.3161,-0.0625 0.10723,-0.0283 0.2128,-0.0622 0.31609,-0.10221 0.10798,-0.0418 0.21346,-0.0902 0.3161,-0.14385 0.10784,-0.0564 0.21254,-0.11867 0.3142,-0.1855 0.10802,-0.071 0.21261,-0.14716 0.31421,-0.22713 0.10834,-0.0853 0.21329,-0.17492 0.3142,-0.26878 0.10714,-0.0997 0.20972,-0.20409 0.31231,-0.30852"
       style="vector-effect:non-scaling-stroke;fill:none;stroke:#000000;stroke-width:0.01;stroke-linecap:round;stroke-miterlimit:4;stroke-dasharray:none;-inkscape-stroke:hairline"
       id="path93" />
    <path
       d="m 406.06657,315.59427 c 0.0392,-0.0387 0.0784,-0.0774 0.12114,-0.11168 0.0372,-0.0298 0.0772,-0.0562 0.11925,-0.0795 0.0374,-0.0207 0.0764,-0.0389 0.11735,-0.0492 0.0375,-0.009 0.0765,-0.0123 0.11546,-0.0151"
       style="vector-effect:non-scaling-stroke;fill:none;stroke:#000000;stroke-width:0.01;stroke-linecap:round;stroke-miterlimit:4;stroke-dasharray:none;-inkscape-stroke:hairline"
       id="path95" />
    <path
       d="m 406.53977,315.33874 c 0.0298,5.6e-4 0.0597,0.001 0.089,0.006 0.0264,0.004 0.0524,0.0115 0.0776,0.0208 0.0231,0.009 0.0457,0.0188 0.0663,0.0322 0.0202,0.0131 0.0386,0.0293 0.0549,0.0473 0.0162,0.0179 0.0304,0.0375 0.0416,0.0587 0.0123,0.0233 0.0209,0.0484 0.0284,0.0738 0.008,0.028 0.015,0.0564 0.0189,0.0852 0.004,0.0331 0.005,0.0667 0.006,0.10031"
       style="vector-effect:non-scaling-stroke;fill:none;stroke:#000000;stroke-width:0.01;stroke-linecap:round;stroke-miterlimit:4;stroke-dasharray:none;-inkscape-stroke:hairline"
       id="path97" />
    <path
       d="m 417.2189,312.70397 c -0.006,0.007 -0.0121,0.0147 -0.017,0.0227 -0.0121,0.0197 -0.0169,0.0433 -0.0227,0.0662 -0.01,0.0381 -0.0219,0.0745 -0.0322,0.11168 -0.0141,0.0509 -0.0246,0.10322 -0.036,0.15521 -0.0146,0.0671 -0.0306,0.13373 -0.0454,0.20063 -0.0181,0.0817 -0.0345,0.16393 -0.0511,0.24607 -0.0195,0.0966 -0.0392,0.19306 -0.0587,0.28959 -0.0224,0.11097 -0.0447,0.22198 -0.0662,0.33314 -0.0219,0.11285 -0.043,0.22585 -0.0644,0.3388 -0.0191,0.10093 -0.0383,0.20182 -0.0568,0.30285 -0.0164,0.0895 -0.0322,0.17907 -0.0473,0.26878 -0.0131,0.0775 -0.0256,0.15515 -0.0379,0.23281 -0.0104,0.0656 -0.0206,0.13119 -0.0303,0.19685 -0.008,0.0542 -0.0158,0.10842 -0.0227,0.16278 -0.005,0.0428 -0.0104,0.0857 -0.0133,0.12871 -0.002,0.0309 -0.003,0.0618 -0.004,0.0928"
       style="vector-effect:non-scaling-stroke;fill:none;stroke:#000000;stroke-width:0.01;stroke-linecap:round;stroke-miterlimit:4;stroke-dasharray:none;-inkscape-stroke:hairline"
       id="path99" />
    <path
       d="m 416.61321,315.85358 c 0.001,0.0808 0.003,0.16164 0.008,0.24228 0.004,0.0677 0.0109,0.13532 0.0208,0.20252 0.008,0.0555 0.0184,0.11074 0.0341,0.16468 0.0123,0.0425 0.028,0.0842 0.0492,0.12303 0.018,0.0329 0.0401,0.0638 0.0663,0.0908 0.0245,0.0253 0.0525,0.0473 0.0833,0.0644 0.0319,0.0177 0.0667,0.0302 0.10222,0.0378 0.0391,0.008 0.0792,0.0108 0.11924,0.0132"
       style="vector-effect:non-scaling-stroke;fill:none;stroke:#000000;stroke-width:0.01;stroke-linecap:round;stroke-miterlimit:4;stroke-dasharray:none;-inkscape-stroke:hairline"
       id="path101" />
    <path
       d="m 417.09587,316.7924 c 0.06,-10e-4 0.12009,-0.002 0.17982,-0.008 0.0584,-0.005 0.1164,-0.0141 0.17413,-0.0246 0.0579,-0.0105 0.11547,-0.0226 0.17225,-0.0379 0.0565,-0.0152 0.11215,-0.0334 0.16656,-0.0549 0.0615,-0.0242 0.12133,-0.0525 0.17982,-0.0833 0.0706,-0.0372 0.13923,-0.078 0.20631,-0.12114 0.0789,-0.0508 0.15571,-0.10481 0.23092,-0.16089 0.0872,-0.065 0.17232,-0.13284 0.25742,-0.20064"
       style="vector-effect:non-scaling-stroke;fill:none;stroke:#000000;stroke-width:0.01;stroke-linecap:round;stroke-miterlimit:4;stroke-dasharray:none;-inkscape-stroke:hairline"
       id="path103" />
    <path
       d="m 418.6631,316.10153 c 0.0527,-0.0417 0.10545,-0.0834 0.16089,-0.12113 0.0472,-0.0321 0.0964,-0.0612 0.14764,-0.0871 0.0438,-0.022 0.0891,-0.0416 0.13628,-0.053 0.0395,-0.01 0.0803,-0.0133 0.12114,-0.017"
       style="vector-effect:non-scaling-stroke;fill:none;stroke:#000000;stroke-width:0.01;stroke-linecap:round;stroke-miterlimit:4;stroke-dasharray:none;-inkscape-stroke:hairline"
       id="path105" />
    <path
       d="m 419.22905,315.82329 c 0.0297,0.002 0.0594,0.003 0.089,0.008 0.027,0.004 0.054,0.009 0.0795,0.0189 0.0246,0.009 0.0479,0.0217 0.07,0.036 0.0216,0.014 0.042,0.0297 0.0606,0.0473 0.0181,0.0173 0.0345,0.0364 0.0492,0.0568 0.0138,0.0191 0.0263,0.0392 0.036,0.0606 0.01,0.0211 0.0165,0.0435 0.0208,0.0662 0.004,0.0231 0.006,0.0466 0.008,0.07"
       style="vector-effect:non-scaling-stroke;fill:none;stroke:#000000;stroke-width:0.01;stroke-linecap:round;stroke-miterlimit:4;stroke-dasharray:none;-inkscape-stroke:hairline"
       id="path107" />
    <path
       d="m 419.64168,316.18671 c -0.003,0.0495 -0.007,0.0989 -0.0152,0.14764 -0.009,0.0522 -0.0235,0.10344 -0.0416,0.15331 -0.0199,0.0548 -0.0442,0.10784 -0.0719,0.159 -0.0301,0.0556 -0.0642,0.10893 -0.10032,0.16089 -0.0404,0.0581 -0.0832,0.11444 -0.12871,0.16845 -0.0504,0.0597 -0.10408,0.1166 -0.159,0.17225 -0.0602,0.061 -0.12187,0.12054 -0.18549,0.17792 -0.0698,0.063 -0.14202,0.12335 -0.21578,0.18171 -0.0753,0.0596 -0.15229,0.11707 -0.23092,0.17224 -0.0758,0.0532 -0.15316,0.10422 -0.23281,0.15143 -0.0775,0.0459 -0.15713,0.0882 -0.23849,0.12681 -0.0787,0.0373 -0.15898,0.0712 -0.24039,0.10221 -0.0797,0.0303 -0.16039,0.0578 -0.24228,0.0814 -0.0816,0.0235 -0.16441,0.043 -0.24795,0.0587 -0.0827,0.0155 -0.1661,0.0271 -0.24985,0.0341 -0.0843,0.007 -0.16898,0.009 -0.25363,0.0114"
       style="vector-effect:non-scaling-stroke;fill:none;stroke:#000000;stroke-width:0.01;stroke-linecap:round;stroke-miterlimit:4;stroke-dasharray:none;-inkscape-stroke:hairline"
       id="path109" />
    <path
       d="m 416.78735,318.24607 c -0.0689,-10e-4 -0.13771,-0.002 -0.20632,-0.008 -0.0653,-0.005 -0.13037,-0.0134 -0.19496,-0.0246 -0.0611,-0.0106 -0.12183,-0.0236 -0.1817,-0.0397 -0.057,-0.0154 -0.11332,-0.0336 -0.16846,-0.0549 -0.053,-0.0204 -0.10493,-0.0437 -0.15521,-0.07 -0.0496,-0.0261 -0.0977,-0.0552 -0.14385,-0.0871 -0.0455,-0.0314 -0.0892,-0.0655 -0.13061,-0.10221 -0.0421,-0.0373 -0.0817,-0.0773 -0.11924,-0.11925 -0.0378,-0.0422 -0.0734,-0.0863 -0.106,-0.13249 -0.0333,-0.0472 -0.0636,-0.0967 -0.0908,-0.14764 -0.028,-0.0523 -0.0528,-0.10618 -0.0757,-0.16089 -0.0239,-0.0571 -0.0457,-0.11512 -0.0643,-0.17413 -0.0197,-0.0622 -0.0358,-0.12546 -0.0492,-0.18928 -0.0141,-0.067 -0.0251,-0.13464 -0.0341,-0.20253 -0.009,-0.0717 -0.0165,-0.14366 -0.0208,-0.21578 -0.005,-0.0762 -0.006,-0.15264 -0.008,-0.22903"
       style="vector-effect:non-scaling-stroke;fill:none;stroke:#000000;stroke-width:0.01;stroke-linecap:round;stroke-miterlimit:4;stroke-dasharray:none;-inkscape-stroke:hairline"
       id="path111" />
    <path
       d="m 415.03841,316.28892 c 2.6e-4,-0.0385 5.2e-4,-0.077 0.002,-0.11546 0.002,-0.0436 0.005,-0.0871 0.008,-0.1306 0.003,-0.048 0.007,-0.096 0.0114,-0.14386 0.005,-0.0524 0.0109,-0.10477 0.017,-0.1571 0.007,-0.0568 0.0133,-0.11364 0.0208,-0.17035 0.008,-0.0619 0.0173,-0.12371 0.0265,-0.18549 0.01,-0.0657 0.0197,-0.13132 0.0303,-0.19685 0.0114,-0.0707 0.0237,-0.14137 0.036,-0.21199 0.013,-0.0751 0.026,-0.15026 0.0398,-0.22525 0.0146,-0.0796 0.0301,-0.15904 0.0454,-0.23849 0.0162,-0.084 0.0324,-0.16791 0.0492,-0.25174 0.0178,-0.089 0.0364,-0.17796 0.0549,-0.26688 0.0194,-0.0934 0.0387,-0.18685 0.0587,-0.28014 0.021,-0.0979 0.0427,-0.19562 0.0643,-0.29338 0.0226,-0.10224 0.0451,-0.20451 0.0681,-0.30663 0.0241,-0.10674 0.049,-0.21331 0.0738,-0.31988"
       style="vector-effect:non-scaling-stroke;fill:none;stroke:#000000;stroke-width:0.01;stroke-linecap:round;stroke-miterlimit:4;stroke-dasharray:none;-inkscape-stroke:hairline"
       id="path113" />
    <path
       d="m 415.6441,312.79483 c -0.0618,0.006 -0.12368,0.0125 -0.18549,0.0189 -0.0517,0.005 -0.1034,0.011 -0.15521,0.0151 -0.041,0.003 -0.082,0.006 -0.12304,0.008 -0.0315,10e-4 -0.0631,0.003 -0.0946,0.004"
       style="vector-effect:non-scaling-stroke;fill:none;stroke:#000000;stroke-width:0.01;stroke-linecap:round;stroke-miterlimit:4;stroke-dasharray:none;-inkscape-stroke:hairline"
       id="path115" />
    <path
       style="vector-effect:non-scaling-stroke;fill:none;stroke:#000000;stroke-width:0.01;stroke-linecap:round;stroke-miterlimit:4;stroke-dasharray:none;-inkscape-stroke:hairline"
       d="m 415.086,312.84 h -0.133"
       id="path117" />
    <path
       d="m 414.95323,312.84025 c -0.0481,-0.003 -0.0963,-0.006 -0.14385,-0.0133 -0.0495,-0.008 -0.0983,-0.0198 -0.14575,-0.036 -0.0506,-0.0172 -0.0996,-0.0389 -0.14764,-0.0625 -0.0516,-0.0253 -0.10205,-0.0528 -0.14953,-0.0852 -0.0477,-0.0326 -0.0924,-0.0702 -0.1306,-0.11357 -0.0374,-0.0425 -0.0685,-0.0907 -0.0927,-0.14195 -0.0259,-0.0547 -0.0439,-0.11298 -0.0549,-0.17225 -0.0123,-0.0667 -0.0156,-0.13461 -0.0189,-0.20253"
       style="vector-effect:non-scaling-stroke;fill:none;stroke:#000000;stroke-width:0.01;stroke-linecap:round;stroke-miterlimit:4;stroke-dasharray:none;-inkscape-stroke:hairline"
       id="path119" />
    <path
       d="m 414.0693,312.0131 c 10e-4,-0.0432 0.003,-0.0863 0.009,-0.12871 0.006,-0.038 0.0166,-0.0754 0.0303,-0.11167 0.0125,-0.0332 0.0276,-0.0655 0.0473,-0.0946 0.0195,-0.0288 0.0436,-0.0546 0.07,-0.0776 0.0268,-0.0233 0.056,-0.0437 0.0871,-0.0606 0.0341,-0.0185 0.0706,-0.0327 0.10788,-0.0435 0.0415,-0.012 0.084,-0.0197 0.12682,-0.0246 0.0484,-0.006 0.0971,-0.007 0.14575,-0.009"
       style="vector-effect:non-scaling-stroke;fill:none;stroke:#000000;stroke-width:0.01;stroke-linecap:round;stroke-miterlimit:4;stroke-dasharray:none;-inkscape-stroke:hairline"
       id="path121" />
    <path
       style="vector-effect:non-scaling-stroke;fill:none;stroke:#000000;stroke-width:0.01;stroke-linecap:round;stroke-miterlimit:4;stroke-dasharray:none;-inkscape-stroke:hairline"
       d="m 414.694,311.462 h 1.404"
       id="path123" />
    <path
       d="m 416.62835,309.36319 c 0.0155,-0.0635 0.031,-0.12708 0.0511,-0.18927 0.0182,-0.0563 0.0401,-0.11152 0.0662,-0.16468 0.0236,-0.048 0.0507,-0.0944 0.0814,-0.13817 0.0283,-0.0404 0.0598,-0.0785 0.0946,-0.11357 0.0329,-0.0331 0.0689,-0.0634 0.10789,-0.089 0.0385,-0.0252 0.08,-0.0458 0.12303,-0.0625 0.0441,-0.0171 0.0898,-0.0301 0.13629,-0.0379 0.0499,-0.008 0.10067,-0.0108 0.15142,-0.0132"
       style="vector-effect:non-scaling-stroke;fill:none;stroke:#000000;stroke-width:0.01;stroke-linecap:round;stroke-miterlimit:4;stroke-dasharray:none;-inkscape-stroke:hairline"
       id="path125" />
    <path
       d="m 418.18801,309.25341 c -5.7e-4,0.006 -0.001,0.0126 -0.002,0.0189 -0.001,0.0114 -0.003,0.0228 -0.006,0.0341 -0.003,0.0165 -0.008,0.0328 -0.0114,0.0492 -0.005,0.0202 -0.009,0.0404 -0.0133,0.0606 -0.006,0.0254 -0.0127,0.0504 -0.0189,0.0757 -0.007,0.0302 -0.0137,0.0606 -0.0208,0.0909 -0.008,0.0349 -0.0175,0.0695 -0.0265,0.1041 -0.0102,0.0391 -0.0202,0.0782 -0.0303,0.11735 -0.0113,0.0436 -0.0228,0.0871 -0.0341,0.13061 -0.0126,0.0486 -0.0249,0.0972 -0.0379,0.14574 -0.0143,0.0537 -0.0293,0.1072 -0.0435,0.16089 -0.0154,0.058 -0.03,0.11617 -0.0454,0.17414 -0.0167,0.0626 -0.0343,0.12485 -0.0511,0.18738 -0.0181,0.0674 -0.0352,0.13507 -0.053,0.20253 -0.019,0.0721 -0.0389,0.1439 -0.0587,0.21578 -0.0209,0.0763 -0.0417,0.15267 -0.0625,0.22903"
       style="vector-effect:non-scaling-stroke;fill:none;stroke:#000000;stroke-width:0.01;stroke-linecap:round;stroke-miterlimit:4;stroke-dasharray:none;-inkscape-stroke:hairline"
       id="path127" />
    <path
       d="m 417.67317,311.25031 c 0.16151,-0.0122 0.32301,-0.0243 0.48456,-0.036 0.14195,-0.0102 0.28393,-0.02 0.42588,-0.0303 0.12302,-0.009 0.24603,-0.018 0.36909,-0.0265 0.10346,-0.007 0.20695,-0.0137 0.31042,-0.0208 0.0845,-0.006 0.16906,-0.0119 0.25363,-0.017 0.065,-0.004 0.12998,-0.007 0.19496,-0.0114 0.0454,-0.003 0.0908,-0.006 0.13628,-0.008 0.0265,-9.7e-4 0.053,-10e-4 0.0795,-0.002"
       style="vector-effect:non-scaling-stroke;fill:none;stroke:#000000;stroke-width:0.01;stroke-linecap:round;stroke-miterlimit:4;stroke-dasharray:none;-inkscape-stroke:hairline"
       id="path129" />
    <path
       d="m 419.92749,311.09888 c 0.0524,7.1e-4 0.10483,10e-4 0.1571,0.006 0.0426,0.003 0.0852,0.009 0.12682,0.0189 0.0336,0.008 0.0667,0.018 0.0984,0.0322 0.0253,0.0113 0.0497,0.0251 0.07,0.0435 0.019,0.0171 0.0343,0.0383 0.0473,0.0606 0.0153,0.0263 0.0274,0.0543 0.036,0.0833 0.0102,0.0344 0.0154,0.0702 0.0189,0.106 0.004,0.0429 0.006,0.0858 0.008,0.12871"
       style="vector-effect:non-scaling-stroke;fill:none;stroke:#000000;stroke-width:0.01;stroke-linecap:round;stroke-miterlimit:4;stroke-dasharray:none;-inkscape-stroke:hairline"
       id="path131" />
    <path
       d="m 420.48965,311.57776 c -0.003,0.0459 -0.005,0.0918 -0.0151,0.13628 -0.01,0.0428 -0.0262,0.0842 -0.0473,0.12303 -0.0215,0.0396 -0.0477,0.0763 -0.0776,0.10979 -0.0322,0.036 -0.0688,0.0682 -0.10789,0.0965 -0.044,0.0319 -0.0914,0.0591 -0.14006,0.0833 -0.0558,0.0277 -0.11342,0.0516 -0.17225,0.0719 -0.0663,0.0229 -0.13413,0.0412 -0.20253,0.0568 -0.0771,0.0175 -0.15497,0.0315 -0.23281,0.0454"
       style="vector-effect:non-scaling-stroke;fill:none;stroke:#000000;stroke-width:0.01;stroke-linecap:round;stroke-miterlimit:4;stroke-dasharray:none;-inkscape-stroke:hairline"
       id="path133" />
    <path
       style="vector-effect:non-scaling-stroke;fill:none;stroke:#000000;stroke-width:0.01;stroke-linecap:round;stroke-miterlimit:4;stroke-dasharray:none;-inkscape-stroke:hairline"
       d="m 419.494,312.301 -2.275,0.403"
       id="path135" />
    <path
       d="m 416.09837,311.4623 c 0.021,-0.0694 0.0419,-0.13873 0.0625,-0.20821 0.022,-0.0743 0.0436,-0.14871 0.0644,-0.22335 0.0221,-0.0793 0.0433,-0.15887 0.0643,-0.23849 0.0225,-0.0851 0.0447,-0.17022 0.0663,-0.25553 0.0226,-0.0894 0.0445,-0.1791 0.0662,-0.26877 0.0231,-0.0952 0.046,-0.1904 0.0681,-0.28581 0.0233,-0.10081 0.0457,-0.20183 0.0681,-0.30285 0.0233,-0.10537 0.0467,-0.21073 0.07,-0.3161"
       style="vector-effect:non-scaling-stroke;fill:none;stroke:#000000;stroke-width:0.01;stroke-linecap:round;stroke-miterlimit:4;stroke-dasharray:none;-inkscape-stroke:hairline"
       id="path137" />
    <path
       d="m 417.44036,308.55497 c 0.0558,0.002 0.11164,0.004 0.16656,0.0132 0.0504,0.008 0.10009,0.0224 0.14764,0.0416 0.0446,0.0181 0.0874,0.0407 0.12682,0.0681 0.0393,0.0274 0.0753,0.0595 0.10789,0.0946 0.0322,0.0346 0.0611,0.0722 0.0871,0.11168 0.0241,0.0366 0.0457,0.075 0.0625,0.11546 0.0166,0.0401 0.0285,0.0822 0.036,0.12492 0.007,0.0425 0.0103,0.0856 0.0133,0.12871"
       style="vector-effect:non-scaling-stroke;fill:none;stroke:#000000;stroke-width:0.01;stroke-linecap:round;stroke-miterlimit:4;stroke-dasharray:none;-inkscape-stroke:hairline"
       id="path139" />
    <path
       d="m 409.94112,318.24607 c -0.0859,-0.002 -0.17174,-0.004 -0.25742,-0.009 -0.0811,-0.005 -0.16196,-0.0141 -0.24228,-0.0265 -0.0763,-0.0118 -0.15215,-0.0269 -0.22714,-0.0454 -0.0709,-0.0175 -0.14116,-0.0382 -0.2101,-0.0625 -0.0657,-0.0231 -0.13016,-0.0496 -0.19306,-0.0795 -0.0618,-0.0293 -0.12197,-0.062 -0.17982,-0.0984 -0.0566,-0.0357 -0.11097,-0.075 -0.16278,-0.11735 -0.0512,-0.0419 -0.0999,-0.0868 -0.14574,-0.13439 -0.0457,-0.0474 -0.0885,-0.0974 -0.12871,-0.14953 -0.0408,-0.0528 -0.0789,-0.10769 -0.11357,-0.16467 -0.0349,-0.0574 -0.0664,-0.11694 -0.0946,-0.17792 -0.0292,-0.063 -0.055,-0.12749 -0.0776,-0.19307 -0.0234,-0.0678 -0.0435,-0.13668 -0.0606,-0.20631 -0.0178,-0.0725 -0.0324,-0.14577 -0.0435,-0.21957 -0.0117,-0.0778 -0.0196,-0.15619 -0.0246,-0.2347 -0.005,-0.0826 -0.007,-0.16526 -0.009,-0.24796"
       style="vector-effect:non-scaling-stroke;fill:none;stroke:#000000;stroke-width:0.01;stroke-linecap:round;stroke-miterlimit:4;stroke-dasharray:none;-inkscape-stroke:hairline"
       id="path141" />
    <path
       d="m 411.64084,310.73547 c 0.05,0.002 0.1,0.003 0.14953,0.009 0.0479,0.006 0.0953,0.0157 0.14196,0.0284 0.0471,0.0128 0.0933,0.0284 0.13818,0.0473 0.045,0.019 0.0885,0.0414 0.1306,0.0662 0.0439,0.0259 0.0862,0.0543 0.12682,0.0852 0.0424,0.0322 0.0829,0.067 0.12114,0.1041 0.0401,0.0389 0.0777,0.0803 0.11356,0.12303 0.0385,0.0458 0.075,0.0933 0.10978,0.14196 0.0694,0.097 0.13234,0.19886 0.18739,0.30474 0.0523,0.10063 0.0976,0.20489 0.13439,0.31231 0.0355,0.10356 0.0631,0.21005 0.0795,0.31799 0.0162,0.10694 0.0213,0.21531 0.0265,0.32367"
       style="vector-effect:non-scaling-stroke;fill:none;stroke:#000000;stroke-width:0.01;stroke-linecap:round;stroke-miterlimit:4;stroke-dasharray:none;-inkscape-stroke:hairline"
       id="path143" />
    <path
       d="m 413.10019,312.59987 c -9.5e-4,0.0492 -0.002,0.0984 -0.004,0.14764 -0.002,0.0449 -0.004,0.0898 -0.009,0.13438 -0.005,0.0406 -0.0118,0.0809 -0.0189,0.12114 -0.007,0.0368 -0.0133,0.0736 -0.0227,0.10978 -0.009,0.0334 -0.0198,0.0662 -0.0322,0.0984 -0.0112,0.0291 -0.0234,0.0577 -0.0379,0.0852 -0.0132,0.0251 -0.0283,0.0493 -0.0454,0.0719 -0.0162,0.0215 -0.0341,0.0416 -0.053,0.0606 -0.0339,0.034 -0.0711,0.0644 -0.10978,0.0928 -0.0344,0.0252 -0.0699,0.0487 -0.10789,0.0681 -0.0337,0.0173 -0.0693,0.0314 -0.106,0.0397 -0.0341,0.008 -0.0691,0.0105 -0.1041,0.0133"
       style="vector-effect:non-scaling-stroke;fill:none;stroke:#000000;stroke-width:0.01;stroke-linecap:round;stroke-miterlimit:4;stroke-dasharray:none;-inkscape-stroke:hairline"
       id="path145" />
    <path
       d="m 412.44907,313.6428 c -0.0483,-0.002 -0.0965,-0.005 -0.14386,-0.0133 -0.0441,-0.008 -0.0874,-0.0217 -0.12871,-0.0397 -0.0395,-0.0173 -0.0773,-0.0385 -0.11167,-0.0644 -0.0357,-0.0268 -0.0676,-0.0586 -0.0965,-0.0927 -0.0308,-0.0365 -0.0582,-0.0758 -0.0814,-0.11736 -0.0258,-0.0464 -0.0464,-0.0956 -0.0644,-0.14574 -0.0199,-0.0558 -0.0366,-0.11265 -0.0492,-0.17035 -0.0142,-0.0649 -0.0232,-0.13088 -0.0322,-0.19685"
       style="vector-effect:non-scaling-stroke;fill:none;stroke:#000000;stroke-width:0.01;stroke-linecap:round;stroke-miterlimit:4;stroke-dasharray:none;-inkscape-stroke:hairline"
       id="path147" />
    <path
       d="m 411.74116,312.8024 c -0.006,-0.0481 -0.0125,-0.0961 -0.0208,-0.14386 -0.007,-0.0419 -0.0162,-0.0836 -0.0265,-0.12492 -0.009,-0.0351 -0.0187,-0.0698 -0.0303,-0.1041 -0.0101,-0.0298 -0.0215,-0.0592 -0.036,-0.0871 -0.012,-0.0232 -0.026,-0.0453 -0.0416,-0.0662 -0.0134,-0.018 -0.028,-0.0351 -0.0454,-0.0492 -0.0152,-0.0124 -0.0326,-0.0224 -0.0511,-0.0284 -0.0176,-0.006 -0.0363,-0.008 -0.0549,-0.009"
       style="vector-effect:non-scaling-stroke;fill:none;stroke:#000000;stroke-width:0.01;stroke-linecap:round;stroke-miterlimit:4;stroke-dasharray:none;-inkscape-stroke:hairline"
       id="path149" />
    <path
       d="m 411.43453,312.18913 c -0.0429,0.005 -0.0858,0.0106 -0.12682,0.0227 -0.048,0.0141 -0.0934,0.0376 -0.13628,0.0643 -0.0519,0.0324 -0.1,0.0698 -0.14574,0.10978 -0.0554,0.0484 -0.10744,0.1008 -0.15711,0.15521 -0.0577,0.0632 -0.11226,0.12923 -0.16467,0.19685 -0.0611,0.0789 -0.1194,0.16004 -0.17603,0.24228 -0.0646,0.0938 -0.12713,0.18913 -0.18739,0.28581 -0.0675,0.10827 -0.13212,0.2183 -0.19495,0.32935 -0.0647,0.11426 -0.1274,0.22961 -0.18739,0.34638 -0.0567,0.11043 -0.11102,0.22213 -0.16278,0.33502 -0.0489,0.10666 -0.0955,0.21439 -0.13817,0.32367 -0.0404,0.10355 -0.0772,0.20849 -0.11168,0.3142 -0.0325,0.0995 -0.0629,0.19965 -0.089,0.30096 -0.0248,0.0962 -0.0457,0.19349 -0.0625,0.29149 -0.016,0.0935 -0.0283,0.18757 -0.036,0.28202 -0.007,0.0894 -0.0102,0.17909 -0.0132,0.26878"
       style="vector-effect:non-scaling-stroke;fill:none;stroke:#000000;stroke-width:0.01;stroke-linecap:round;stroke-miterlimit:4;stroke-dasharray:none;-inkscape-stroke:hairline"
       id="path151" />
    <path
       d="m 409.34489,316.058 c 0.003,0.0671 0.005,0.13428 0.0151,0.20064 0.009,0.0592 0.023,0.11778 0.0435,0.17413 0.0186,0.051 0.0423,0.10024 0.0719,0.14575 0.0289,0.0444 0.0633,0.0852 0.10221,0.12114 0.039,0.0359 0.0825,0.0669 0.12871,0.0927 0.0509,0.0285 0.10515,0.0508 0.16089,0.0681 0.0611,0.019 0.12401,0.0319 0.18738,0.0397 0.0721,0.009 0.14491,0.0111 0.21767,0.0133"
       style="vector-effect:non-scaling-stroke;fill:none;stroke:#000000;stroke-width:0.01;stroke-linecap:round;stroke-miterlimit:4;stroke-dasharray:none;-inkscape-stroke:hairline"
       id="path153" />
    <path
       d="m 410.27235,316.91354 c 0.0853,-0.002 0.17055,-0.005 0.25553,-0.0114 0.0863,-0.007 0.17226,-0.0184 0.25742,-0.0341 0.0866,-0.0159 0.17234,-0.036 0.25742,-0.0587 0.0874,-0.0233 0.17409,-0.0493 0.25931,-0.0795 0.0872,-0.0309 0.17295,-0.0662 0.25742,-0.1041 0.0878,-0.0394 0.17431,-0.0817 0.25932,-0.12682 0.0881,-0.0468 0.17468,-0.0967 0.25931,-0.14953 0.0885,-0.0553 0.17483,-0.11375 0.2612,-0.17224"
       style="vector-effect:non-scaling-stroke;fill:none;stroke:#000000;stroke-width:0.01;stroke-linecap:round;stroke-miterlimit:4;stroke-dasharray:none;-inkscape-stroke:hairline"
       id="path155" />
    <path
       d="m 412.33928,316.17725 c 0.0759,-0.0536 0.15177,-0.10709 0.23092,-0.15521 0.0665,-0.0404 0.13528,-0.077 0.20632,-0.10978 0.0588,-0.0271 0.11913,-0.0516 0.18171,-0.0663 0.0507,-0.0119 0.10298,-0.0173 0.15521,-0.0227"
       style="vector-effect:non-scaling-stroke;fill:none;stroke:#000000;stroke-width:0.01;stroke-linecap:round;stroke-miterlimit:4;stroke-dasharray:none;-inkscape-stroke:hairline"
       id="path157" />
    <path
       d="m 413.11344,315.82329 c 0.0272,9.4e-4 0.0545,0.002 0.0814,0.006 0.0244,0.003 0.0485,0.009 0.0719,0.017 0.021,0.007 0.0415,0.0154 0.0606,0.0265 0.018,0.0104 0.0347,0.023 0.0492,0.0379 0.0149,0.0152 0.0274,0.0326 0.0379,0.0511 0.0109,0.0192 0.0194,0.0396 0.0265,0.0606 0.008,0.0228 0.0136,0.0463 0.017,0.07 0.004,0.0275 0.005,0.0554 0.006,0.0833"
       style="vector-effect:non-scaling-stroke;fill:none;stroke:#000000;stroke-width:0.01;stroke-linecap:round;stroke-miterlimit:4;stroke-dasharray:none;-inkscape-stroke:hairline"
       id="path159" />
    <path
       d="m 413.4636,316.17535 c -0.004,0.0428 -0.007,0.0855 -0.017,0.12682 -0.0116,0.048 -0.0319,0.094 -0.0549,0.13817 -0.0264,0.0508 -0.0564,0.0991 -0.089,0.14575 -0.0378,0.0541 -0.0792,0.10578 -0.12303,0.15521 -0.051,0.0574 -0.1052,0.11183 -0.16088,0.16467 -0.0632,0.06 -0.1283,0.11802 -0.19496,0.17414 -0.0752,0.0633 -0.15251,0.12424 -0.23092,0.1836 -0.0876,0.0663 -0.17654,0.13062 -0.26689,0.19306 -0.0935,0.0646 -0.18836,0.12716 -0.28581,0.1855 -0.0945,0.0566 -0.19134,0.10917 -0.28959,0.15899 -0.0957,0.0485 -0.19272,0.0944 -0.29149,0.13628 -0.0974,0.0413 -0.19661,0.0787 -0.29717,0.11168 -0.0985,0.0323 -0.19836,0.0605 -0.29906,0.0852 -0.10075,0.0247 -0.20236,0.0458 -0.30474,0.0625 -0.10162,0.0165 -0.204,0.0285 -0.30664,0.036 -0.10329,0.007 -0.20685,0.0104 -0.31041,0.0132"
       style="vector-effect:non-scaling-stroke;fill:none;stroke:#000000;stroke-width:0.01;stroke-linecap:round;stroke-miterlimit:4;stroke-dasharray:none;-inkscape-stroke:hairline"
       id="path161" />
    <path
       d="m 407.77008,316.07882 c 0.004,-0.13522 0.009,-0.27045 0.0208,-0.40506 0.0126,-0.13903 0.0336,-0.2774 0.0606,-0.41452 0.0279,-0.14215 0.0622,-0.28295 0.10221,-0.42209 0.0419,-0.14575 0.0902,-0.28968 0.14386,-0.43156 0.0559,-0.14791 0.11753,-0.29359 0.1836,-0.43723 0.0696,-0.15128 0.14406,-0.3003 0.22335,-0.4467 0.0835,-0.15417 0.1723,-0.30544 0.26499,-0.45427 0.098,-0.15733 0.2003,-0.31192 0.30663,-0.46374 0.10426,-0.14885 0.21238,-0.29503 0.32556,-0.43723 0.10396,-0.13062 0.21219,-0.25788 0.32556,-0.38045 0.10272,-0.11107 0.20967,-0.2183 0.32178,-0.31988 0.10269,-0.0931 0.20973,-0.1814 0.32177,-0.2631 0.10233,-0.0746 0.20884,-0.14373 0.31988,-0.20442 0.10232,-0.0559 0.2085,-0.10472 0.31799,-0.14575 0.10335,-0.0387 0.20966,-0.0705 0.31799,-0.089 0.1035,-0.0176 0.20885,-0.023 0.3142,-0.0284"
       style="vector-effect:non-scaling-stroke;fill:none;stroke:#000000;stroke-width:0.01;stroke-linecap:round;stroke-miterlimit:4;stroke-dasharray:none;-inkscape-stroke:hairline"
       id="path163" />
    <path
       style="vector-effect:non-scaling-stroke;fill:none;stroke:#000000;stroke-width:0.01;stroke-linecap:round;stroke-miterlimit:4;stroke-dasharray:none;-inkscape-stroke:hairline"
       d="m 386.949,762.922 h 1.398"
       id="path165" />
    <path
       style="vector-effect:non-scaling-stroke;fill:none;stroke:#000000;stroke-width:0.01;stroke-linecap:round;stroke-miterlimit:4;stroke-dasharray:none;-inkscape-stroke:hairline"
       d="m 386.949,761.032 v 1.89"
       id="path167" />
    <path
       style="vector-effect:non-scaling-stroke;fill:none;stroke:#000000;stroke-width:0.01;stroke-linecap:round;stroke-miterlimit:4;stroke-dasharray:none;-inkscape-stroke:hairline"
       d="m 388.347,762.922 v -1.89"
       id="path169" />
    <path
       style="vector-effect:non-scaling-stroke;fill:none;stroke:#000000;stroke-width:0.01;stroke-linecap:round;stroke-miterlimit:4;stroke-dasharray:none;-inkscape-stroke:hairline"
       d="m 388.347,761.032 h -1.398"
       id="path171" />
    <path
       style="vector-effect:non-scaling-stroke;fill:none;stroke:#000000;stroke-width:0.01;stroke-linecap:round;stroke-miterlimit:4;stroke-dasharray:none;-inkscape-stroke:hairline"
       d="m 386.949,299.93 h 1.398"
       id="path173" />
    <path
       style="vector-effect:non-scaling-stroke;fill:none;stroke:#000000;stroke-width:0.01;stroke-linecap:round;stroke-miterlimit:4;stroke-dasharray:none;-inkscape-stroke:hairline"
       d="m 386.949,298.04 v 1.89"
       id="path175" />
    <path
       style="vector-effect:non-scaling-stroke;fill:none;stroke:#000000;stroke-width:0.01;stroke-linecap:round;stroke-miterlimit:4;stroke-dasharray:none;-inkscape-stroke:hairline"
       d="m 388.347,298.04 h -1.398"
       id="path177" />
    <path
       style="vector-effect:non-scaling-stroke;fill:none;stroke:#000000;stroke-width:0.01;stroke-linecap:round;stroke-miterlimit:4;stroke-dasharray:none;-inkscape-stroke:hairline"
       d="m 388.347,299.93 v -1.89"
       id="path179" />
    <path
       style="vector-effect:non-scaling-stroke;fill:none;stroke:#000000;stroke-width:0.01;stroke-linecap:round;stroke-miterlimit:4;stroke-dasharray:none;-inkscape-stroke:hairline"
       d="m 403.465,299.93 h 20.523"
       id="path181" />
    <path
       style="vector-effect:non-scaling-stroke;fill:none;stroke:#000000;stroke-width:0.01;stroke-linecap:round;stroke-miterlimit:4;stroke-dasharray:none;-inkscape-stroke:hairline"
       d="m 403.465,298.04 v 1.89"
       id="path183" />
    <path
       style="vector-effect:non-scaling-stroke;fill:none;stroke:#000000;stroke-width:0.01;stroke-linecap:round;stroke-miterlimit:4;stroke-dasharray:none;-inkscape-stroke:hairline"
       d="M 423.988,298.04 H 403.465"
       id="path185" />
    <path
       style="vector-effect:non-scaling-stroke;fill:none;stroke:#000000;stroke-width:0.01;stroke-linecap:round;stroke-miterlimit:4;stroke-dasharray:none;-inkscape-stroke:hairline"
       d="m 423.988,299.93 v -1.89"
       id="path187" />
    <path
       style="vector-effect:non-scaling-stroke;fill:none;stroke:#000000;stroke-width:0.01;stroke-linecap:round;stroke-miterlimit:4;stroke-dasharray:none;-inkscape-stroke:hairline"
       d="m 403.465,762.922 h 20.523"
       id="path189" />
    <path
       style="vector-effect:non-scaling-stroke;fill:none;stroke:#000000;stroke-width:0.01;stroke-linecap:round;stroke-miterlimit:4;stroke-dasharray:none;-inkscape-stroke:hairline"
       d="m 403.465,761.032 v 1.89"
       id="path191" />
    <path
       style="vector-effect:non-scaling-stroke;fill:none;stroke:#000000;stroke-width:0.01;stroke-linecap:round;stroke-miterlimit:4;stroke-dasharray:none;-inkscape-stroke:hairline"
       d="M 423.988,761.032 H 403.465"
       id="path193" />
    <path
       style="vector-effect:non-scaling-stroke;fill:none;stroke:#000000;stroke-width:0.01;stroke-linecap:round;stroke-miterlimit:4;stroke-dasharray:none;-inkscape-stroke:hairline"
       d="m 423.988,762.922 v -1.89"
       id="path195" />
    <path
       style="vector-effect:non-scaling-stroke;fill:none;stroke:#000000;stroke-width:0.01;stroke-linecap:round;stroke-miterlimit:4;stroke-dasharray:none;-inkscape-stroke:hairline"
       d="m 418.064,392.983 -1.002,-0.531"
       id="path197" />
    <path
       d="m 399.16611,392.98299 c 0.13693,-0.2581 0.25825,-0.48682 0.41208,-0.77362 0.15383,-0.2868 0.34019,-0.63168 0.50157,-0.923 0.16137,-0.29132 0.29778,-0.52907 0.45111,-0.78688 0.15333,-0.25782 0.32359,-0.53569 0.49666,-0.80162 0.34614,-0.53186 0.70352,-1.01594 1.09928,-1.40338 0.39576,-0.38743 0.8299,-0.6782 1.26288,-0.67949 0.43298,-0.001 0.86481,0.28692 1.26313,0.67982 0.39832,0.3929 0.76313,0.8905 1.10202,1.40854 0.3389,0.51803 0.65188,1.0565 0.95709,1.60606 0.30521,0.54957 0.60265,1.11025 0.90135,1.67353 0.29871,0.56329 0.59867,1.1292 0.9118,1.69277 0.31313,0.56358 0.63943,1.12482 0.99996,1.67701 0.36052,0.55219 0.75527,1.09533 1.25392,1.59408 0.24932,0.24937 0.52462,0.48765 0.87221,0.67694 0.34758,0.18929 0.76745,0.3296 1.1872,0.32968 0.41975,8e-5 0.83937,-0.14007 1.18714,-0.3296 0.34777,-0.18954 0.62369,-0.42846 0.87287,-0.6771 0.49834,-0.49728 0.8897,-1.03343 1.25452,-1.59441 0.1824,-0.28049 0.35818,-0.56719 0.51795,-0.83587 0.15977,-0.26868 0.30354,-0.51934 0.46948,-0.8188 0.16594,-0.29947 0.35405,-0.64772 0.50899,-0.93663 0.15494,-0.2889 0.27672,-0.51846 0.41443,-0.77803"
       style="vector-effect:non-scaling-stroke;fill:none;stroke:#000000;stroke-width:0.01;stroke-linecap:round;stroke-miterlimit:4;stroke-dasharray:none;-inkscape-stroke:hairline"
       id="path199" />
    <path
       d="m 417.06212,392.45161 c -0.13693,0.2581 -0.25824,0.48681 -0.41208,0.77361 -0.15383,0.2868 -0.34018,0.63169 -0.50156,0.923 -0.16138,0.29132 -0.29778,0.52908 -0.45111,0.78689 -0.15333,0.2578 -0.32358,0.53567 -0.49667,0.80162 -0.34617,0.5319 -0.70366,1.01614 -1.09939,1.40357 -0.39573,0.38743 -0.82968,0.67804 -1.26264,0.67927 -0.43295,10e-4 -0.8649,-0.28691 -1.26326,-0.67979 -0.39836,-0.39289 -0.76314,-0.89051 -1.10202,-1.40855 -0.33888,-0.51804 -0.65187,-1.05649 -0.95709,-1.60605 -0.30521,-0.54957 -0.60265,-1.11026 -0.90135,-1.67354 -0.2987,-0.56329 -0.59866,-1.12919 -0.91179,-1.69276 -0.31314,-0.56358 -0.63944,-1.12483 -0.99996,-1.67702 -0.36052,-0.55218 -0.75527,-1.0953 -1.25392,-1.59406 -0.24932,-0.24938 -0.52462,-0.48767 -0.87224,-0.67698 -0.34761,-0.18931 -0.76754,-0.32963 -1.18731,-0.32967 -0.41977,-5e-5 -0.83938,0.14019 -1.18713,0.32976 -0.34775,0.18957 -0.62363,0.42847 -0.87278,0.67708 -0.4983,0.49724 -0.88967,1.03333 -1.25449,1.59429 -0.1824,0.28048 -0.35817,0.56718 -0.51795,0.83586 -0.15977,0.26868 -0.30354,0.51935 -0.46948,0.81881 -0.16594,0.29946 -0.35404,0.64772 -0.50899,0.93662 -0.15494,0.28891 -0.27672,0.51846 -0.41443,0.77804"
       style="vector-effect:non-scaling-stroke;fill:none;stroke:#000000;stroke-width:0.01;stroke-linecap:round;stroke-miterlimit:4;stroke-dasharray:none;-inkscape-stroke:hairline"
       id="path201" />
    <path
       style="vector-effect:non-scaling-stroke;fill:none;stroke:#000000;stroke-width:0.01;stroke-linecap:round;stroke-miterlimit:4;stroke-dasharray:none;-inkscape-stroke:hairline"
       d="m 398.164,392.452 1.002,0.531"
       id="path203" />
    <path
       d="m 408.455,536.15037 c -0.15165,-0.28523 -0.29868,-0.56074 -0.45765,-0.85426 -0.15897,-0.29353 -0.32988,-0.60507 -0.48384,-0.87679 -0.15395,-0.27172 -0.29095,-0.50362 -0.45344,-0.76899 -0.16248,-0.26537 -0.35045,-0.56422 -0.53899,-0.84429 -0.37706,-0.56014 -0.75639,-1.04518 -1.27561,-1.5088 -0.25961,-0.2318 -0.5542,-0.45826 -0.91958,-0.6116 -0.36539,-0.15334 -0.80158,-0.23357 -1.20745,-0.18752 -0.40588,0.0461 -0.78145,0.21837 -1.09839,0.42369 -0.31693,0.20532 -0.57524,0.44363 -0.80801,0.68648 -0.46554,0.48568 -0.82895,0.98948 -1.18737,1.54995 -0.1792,0.28023 -0.35716,0.57464 -0.51194,0.83657 -0.15478,0.26192 -0.28638,0.49138 -0.44561,0.77929 -0.15923,0.28791 -0.3461,0.63427 -0.49836,0.91836 -0.15226,0.28408 -0.26992,0.50588 -0.40428,0.75915"
       style="vector-effect:non-scaling-stroke;fill:none;stroke:#000000;stroke-width:0.01;stroke-linecap:round;stroke-miterlimit:4;stroke-dasharray:none;-inkscape-stroke:hairline"
       id="path205" />
    <path
       style="vector-effect:non-scaling-stroke;fill:none;stroke:#000000;stroke-width:0.01;stroke-linecap:round;stroke-miterlimit:4;stroke-dasharray:none;-inkscape-stroke:hairline"
       d="m 417.563,536.15 h -9.108"
       id="path207" />
    <path
       style="vector-effect:non-scaling-stroke;fill:none;stroke:#000000;stroke-width:0.01;stroke-linecap:round;stroke-miterlimit:4;stroke-dasharray:none;-inkscape-stroke:hairline"
       d="m 407.773,537.284 h 9.79"
       id="path209" />
    <path
       style="vector-effect:non-scaling-stroke;fill:none;stroke:#000000;stroke-width:0.01;stroke-linecap:round;stroke-miterlimit:4;stroke-dasharray:none;-inkscape-stroke:hairline"
       d="m 398.164,536.452 1.002,0.531"
       id="path211" />
    <path
       style="vector-effect:non-scaling-stroke;fill:none;stroke:#000000;stroke-width:0.01;stroke-linecap:round;stroke-miterlimit:4;stroke-dasharray:none;-inkscape-stroke:hairline"
       d="M 417.563,537.284 V 536.15"
       id="path213" />
    <path
       d="m 399.16611,536.98299 c 0.14217,-0.26797 0.26821,-0.50557 0.42789,-0.80317 0.15969,-0.2976 0.35302,-0.65521 0.51525,-0.94691 0.16222,-0.29171 0.29335,-0.51752 0.45217,-0.78319 0.15883,-0.26567 0.34537,-0.57121 0.52491,-0.84361 0.17954,-0.2724 0.35208,-0.51165 0.53994,-0.7468 0.18785,-0.23515 0.39102,-0.46621 0.59958,-0.66009 0.41712,-0.38776 0.85583,-0.62686 1.29604,-0.5758 0.44021,0.0511 0.88193,0.39227 1.28847,0.83275 0.40653,0.44048 0.77789,0.98023 1.10885,1.50412 0.33097,0.5239 0.62156,1.03194 0.96161,1.65562 0.17003,0.31184 0.35242,0.65259 0.50035,0.93019 0.14793,0.27759 0.26139,0.49203 0.39194,0.73813"
       style="vector-effect:non-scaling-stroke;fill:none;stroke:#000000;stroke-width:0.01;stroke-linecap:round;stroke-miterlimit:4;stroke-dasharray:none;-inkscape-stroke:hairline"
       id="path215" />
    <path
       style="vector-effect:non-scaling-stroke;fill:none;stroke:#000000;stroke-width:0.01;stroke-linecap:round;stroke-miterlimit:4;stroke-dasharray:none;-inkscape-stroke:hairline"
       d="m 417.062,632.983 1.002,-0.531"
       id="path217" />
    <path
       d="m 408.45512,633.28423 c 0.13065,-0.24626 0.2441,-0.4607 0.39221,-0.73863 0.1481,-0.27794 0.33086,-0.61937 0.50166,-0.93266 0.34161,-0.62658 0.63541,-1.14061 0.96525,-1.66238 0.32984,-0.52178 0.69571,-1.05131 1.10094,-1.4893 0.40522,-0.438 0.84981,-0.78446 1.29128,-0.83785 0.44148,-0.0534 0.87984,0.18627 1.29909,0.57975 0.20963,0.19675 0.41448,0.43194 0.60161,0.66625 0.18713,0.23431 0.35654,0.46773 0.53448,0.73693 0.17794,0.26919 0.3644,0.57415 0.52363,0.84042 0.15922,0.26626 0.2912,0.49384 0.45398,0.78665 0.16279,0.29282 0.35639,0.65088 0.51595,0.94823 0.15956,0.29735 0.28508,0.53399 0.42692,0.80135"
       style="vector-effect:non-scaling-stroke;fill:none;stroke:#000000;stroke-width:0.01;stroke-linecap:round;stroke-miterlimit:4;stroke-dasharray:none;-inkscape-stroke:hairline"
       id="path219" />
    <path
       style="vector-effect:non-scaling-stroke;fill:none;stroke:#000000;stroke-width:0.01;stroke-linecap:round;stroke-miterlimit:4;stroke-dasharray:none;-inkscape-stroke:hairline"
       d="m 398.665,633.284 h 9.79"
       id="path221" />
    <path
       d="m 418.06375,632.45161 c -0.13407,-0.25273 -0.25162,-0.47432 -0.40343,-0.75755 -0.1518,-0.28322 -0.33785,-0.62808 -0.49839,-0.91843 -0.16054,-0.29035 -0.29557,-0.5262 -0.44927,-0.78616 -0.1537,-0.25996 -0.32608,-0.54402 -0.50355,-0.82088 -0.35496,-0.55371 -0.73032,-1.07859 -1.19711,-1.56657 -0.2334,-0.24399 -0.48966,-0.47876 -0.80554,-0.68224 -0.31589,-0.20348 -0.69139,-0.37568 -1.09693,-0.42169 -0.40554,-0.046 -0.84111,0.0342 -1.20612,0.18671 -0.36502,0.15255 -0.65947,0.37747 -0.91976,0.61018 -0.52057,0.46541 -0.90448,0.96193 -1.27921,1.5174 -0.18737,0.27773 -0.37244,0.5702 -0.53589,0.83708 -0.16345,0.26688 -0.30528,0.50816 -0.45522,0.77247 -0.29988,0.52862 -0.63221,1.14935 -0.9401,1.72844"
       style="vector-effect:non-scaling-stroke;fill:none;stroke:#000000;stroke-width:0.01;stroke-linecap:round;stroke-miterlimit:4;stroke-dasharray:none;-inkscape-stroke:hairline"
       id="path223" />
    <path
       style="vector-effect:non-scaling-stroke;fill:none;stroke:#000000;stroke-width:0.01;stroke-linecap:round;stroke-miterlimit:4;stroke-dasharray:none;-inkscape-stroke:hairline"
       d="m 398.665,632.15 v 1.134"
       id="path225" />
    <path
       style="vector-effect:non-scaling-stroke;fill:none;stroke:#000000;stroke-width:0.01;stroke-linecap:round;stroke-miterlimit:4;stroke-dasharray:none;-inkscape-stroke:hairline"
       d="m 407.773,632.15 h -9.108"
       id="path227" />
    <path
       d="m 399.16611,728.98299 c 0.15147,-0.28551 0.28804,-0.54292 0.45606,-0.85566 0.16802,-0.31275 0.3675,-0.68083 0.5393,-0.98791 0.17181,-0.30707 0.31594,-0.55315 0.48244,-0.82709 0.16651,-0.27393 0.35538,-0.57573 0.55038,-0.86369 0.38998,-0.5759 0.80444,-1.09643 1.24375,-1.43211 0.43931,-0.33569 0.90348,-0.48653 1.37031,-0.31841 0.46684,0.16811 0.93635,0.65518 1.3335,1.15037 0.19857,0.24759 0.37906,0.49721 0.5658,0.78041 0.18675,0.2832 0.37975,0.59998 0.54779,0.88316 0.16805,0.28317 0.31113,0.53274 0.48302,0.84414 0.1719,0.31139 0.3726,0.68462 0.54242,1.00195 0.33964,0.63467 0.55573,1.04577 0.83324,1.56885"
       style="vector-effect:non-scaling-stroke;fill:none;stroke:#000000;stroke-width:0.01;stroke-linecap:round;stroke-miterlimit:4;stroke-dasharray:none;-inkscape-stroke:hairline"
       id="path229" />
    <path
       style="vector-effect:non-scaling-stroke;fill:none;stroke:#000000;stroke-width:0.01;stroke-linecap:round;stroke-miterlimit:4;stroke-dasharray:none;-inkscape-stroke:hairline"
       d="m 399.166,728.983 -1.002,-0.531"
       id="path231" />
    <path
       d="m 408.11411,727.51263 c -0.15603,-0.29011 -0.32417,-0.59956 -0.47343,-0.86742 -0.14926,-0.26787 -0.27964,-0.49415 -0.42437,-0.73567 -0.28946,-0.48305 -0.63631,-1.02707 -1.01177,-1.54043 -0.37546,-0.51335 -0.77954,-0.99604 -1.36521,-1.39458 -0.29284,-0.19927 -0.63108,-0.3775 -1.01214,-0.44915 -0.38106,-0.0717 -0.80495,-0.0367 -1.16883,0.08 -0.36388,0.11671 -0.66775,0.31519 -0.93455,0.53041 -0.26681,0.21522 -0.49654,0.44717 -0.70738,0.68556 -0.4217,0.4768 -0.76789,0.97939 -1.09741,1.50404 -0.16476,0.26233 -0.32536,0.53017 -0.47038,0.7781 -0.14502,0.24794 -0.27447,0.47596 -0.42782,0.75453 -0.15336,0.27856 -0.33063,0.60766 -0.47466,0.87662 -0.14402,0.26896 -0.2548,0.47779 -0.38168,0.71696"
       style="vector-effect:non-scaling-stroke;fill:none;stroke:#000000;stroke-width:0.01;stroke-linecap:round;stroke-miterlimit:4;stroke-dasharray:none;-inkscape-stroke:hairline"
       id="path233" />
    <path
       d="m 418.06375,728.45161 c -0.12665,-0.23873 -0.23858,-0.44973 -0.38098,-0.71564 -0.1424,-0.26591 -0.31527,-0.58674 -0.47435,-0.87606 -0.31817,-0.57863 -0.58122,-1.03123 -0.89475,-1.52593 -0.31353,-0.49471 -0.67754,-1.03152 -1.10139,-1.51321 -0.21192,-0.24084 -0.4388,-0.4679 -0.70524,-0.68222 -0.26644,-0.21432 -0.57244,-0.41589 -0.93771,-0.53339 -0.36526,-0.11749 -0.78979,-0.1509 -1.17042,-0.0793 -0.38062,0.0716 -0.71735,0.24824 -1.01137,0.45049 -0.58804,0.40449 -1.00529,0.91147 -1.36634,1.3949 -0.18052,0.24171 -0.347,0.47753 -0.5176,0.74017 -0.17061,0.26263 -0.34533,0.55208 -0.49511,0.80433 -0.14978,0.25225 -0.27463,0.46729 -0.42184,0.73106 -0.14722,0.26376 -0.31681,0.57624 -0.47254,0.86581"
       style="vector-effect:non-scaling-stroke;fill:none;stroke:#000000;stroke-width:0.01;stroke-linecap:round;stroke-miterlimit:4;stroke-dasharray:none;-inkscape-stroke:hairline"
       id="path235" />
    <path
       style="vector-effect:non-scaling-stroke;fill:none;stroke:#000000;stroke-width:0.01;stroke-linecap:round;stroke-miterlimit:4;stroke-dasharray:none;-inkscape-stroke:hairline"
       d="m 418.064,728.452 -1.002,0.531"
       id="path237" />
    <path
       d="m 408.11412,729.927 c 0.13701,-0.25825 0.26897,-0.50687 0.40046,-0.75481 0.0666,-0.12563 0.13315,-0.2511 0.20346,-0.38342 0.0722,-0.13583 0.14835,-0.27888 0.23374,-0.43861 0.16637,-0.31119 0.36773,-0.68566 0.53889,-0.99565 0.17116,-0.30998 0.31212,-0.55548 0.47992,-0.83827 0.1678,-0.28279 0.36246,-0.60287 0.55078,-0.88944 0.18832,-0.28657 0.37032,-0.53963 0.56952,-0.78745 0.39839,-0.49562 0.86561,-0.97027 1.32771,-1.1409 0.4621,-0.17062 0.91907,-0.0372 1.36912,0.31667 0.22502,0.17695 0.44832,0.40902 0.65333,0.64865 0.20501,0.23964 0.39174,0.48683 0.58401,0.76935 0.19226,0.28252 0.39006,0.60036 0.55954,0.87965 0.16948,0.27929 0.31064,0.52003 0.48182,0.82602 0.17118,0.30599 0.37237,0.67722 0.54072,0.99056 0.16835,0.31335 0.30387,0.5688 0.45498,0.85364"
       style="vector-effect:non-scaling-stroke;fill:none;stroke:#000000;stroke-width:0.01;stroke-linecap:round;stroke-miterlimit:4;stroke-dasharray:none;-inkscape-stroke:hairline"
       id="path239" />
  </g>
</svg>
