999
"DXF R12 Output" (www.mydxf.blogspot.com)
 0 
SECTION
 2 
HEADER
 9 
$ACADVER
 1 
AC1009
 9 
$EXTMIN
 10 
 0 
 20 
 0 
 9 
$EXTMAX
 10 
 8.5 
 20 
 11 
 0 
ENDSEC
 0 
SECTION
 2 
ENTITIES
0
LINE
8
Layer 1
10
0.846666
20
137.914000
11
-0.846666
21
136.220000
0
LINE
8
Layer 1
10
0.000000
20
138.478000
11
0.000000
21
135.656000
0
LINE
8
Layer 1
10
2.257780
20
135.938000
11
1.128890
21
134.809110
0
LINE
8
Layer 1
10
1.693330
20
136.503000
11
0.564440
21
135.374110
0
LINE
8
Layer 1
10
1.128890
20
137.067000
11
0.000000
21
135.938110
0
LINE
8
0
10
110.826000
20
49.524600
11
110.802576
21
49.566087
0
LINE
8
0
10
110.802000
20
49.566100
11
110.774766
21
49.608301
0
LINE
8
0
10
110.774766
20
49.608301
11
110.755010
21
49.644092
0
LINE
8
0
10
110.755010
20
49.644092
11
110.743270
21
49.674541
0
LINE
8
0
10
110.743270
20
49.674541
11
110.739516
21
49.699123
0
LINE
8
0
10
110.740000
20
49.699100
11
110.745334
21
49.740767
0
LINE
8
0
10
110.745334
20
49.740767
11
110.762437
21
49.780295
0
LINE
8
0
10
110.762437
20
49.780295
11
110.790207
21
49.816087
0
LINE
8
0
10
110.790207
20
49.816087
11
110.829202
21
49.849742
0
LINE
8
0
10
110.829202
20
49.849742
11
110.873006
21
49.878051
0
LINE
8
0
10
110.873006
20
49.878051
11
110.914673
21
49.897807
0
LINE
8
0
10
110.914673
20
49.897807
11
110.954737
21
49.910084
0
LINE
8
0
10
110.954737
20
49.910084
11
110.992131
21
49.913837
0
LINE
8
0
10
110.992000
20
49.913900
11
111.029392
21
49.912771
0
LINE
8
0
10
111.029392
20
49.912771
11
111.075865
21
49.908481
0
LINE
8
0
10
111.076000
20
49.908500
11
111.098973
21
49.905311
0
LINE
8
0
10
111.098973
20
49.905311
11
111.117148
21
49.903053
0
LINE
8
0
10
111.117148
20
49.903053
11
111.129961
21
49.901360
0
LINE
8
0
10
111.129961
20
49.901360
11
111.137976
21
49.900795
0
LINE
8
0
10
111.138000
20
49.901100
11
111.266205
21
49.920856
0
LINE
8
0
10
111.266205
20
49.920856
11
111.384795
21
49.938494
0
LINE
8
0
10
111.384795
20
49.938494
11
111.493233
21
49.952916
0
LINE
8
0
10
111.493233
20
49.952916
11
111.591525
21
49.964656
0
LINE
8
0
10
111.591525
20
49.964656
11
111.680200
21
49.974280
0
LINE
8
0
10
111.680200
20
49.974280
11
111.758725
21
49.980687
0
LINE
8
0
10
111.758725
20
49.980687
11
111.827102
21
49.984948
0
LINE
8
0
10
111.827102
20
49.984948
11
111.885863
21
49.986077
0
LINE
8
0
10
111.886000
20
49.986000
11
111.984290
21
49.982783
0
LINE
8
0
10
111.984290
20
49.982783
11
112.077239
21
49.973695
0
LINE
8
0
10
112.077239
20
49.973695
11
112.164844
21
49.958737
0
LINE
8
0
10
112.164844
20
49.958737
11
112.247109
21
49.937909
0
LINE
8
0
10
112.247109
20
49.937909
11
112.324034
21
49.910675
0
LINE
8
0
10
112.324034
20
49.910675
11
112.395614
21
49.877023
0
LINE
8
0
10
112.395614
20
49.877023
11
112.462388
21
49.838028
0
LINE
8
0
10
112.462388
20
49.838028
11
112.523286
21
49.792621
0
LINE
8
0
10
112.523286
20
49.792621
11
112.578308
21
49.742942
0
LINE
8
0
10
112.578308
20
49.742942
11
112.625848
21
49.690590
0
LINE
8
0
10
112.625848
20
49.690590
11
112.665912
21
49.635034
0
LINE
8
0
10
112.665912
20
49.635034
11
112.699034
21
49.577343
0
LINE
8
0
10
112.699034
20
49.577343
11
112.724151
21
49.515911
0
LINE
8
0
10
112.724151
20
49.515911
11
112.742863
21
49.452344
0
LINE
8
0
10
112.742863
20
49.452344
11
112.753531
21
49.385570
0
LINE
8
0
10
112.753531
20
49.385570
11
112.757256
21
49.316126
0
LINE
8
0
10
112.757000
20
49.316100
11
112.753275
21
49.248790
0
LINE
8
0
10
112.753275
20
49.248790
11
112.742607
21
49.182553
0
LINE
8
0
10
112.742607
20
49.182553
11
112.724968
21
49.116849
0
LINE
8
0
10
112.724968
20
49.116849
11
112.700386
21
49.052211
0
LINE
8
0
10
112.700386
20
49.052211
11
112.668334
21
48.988107
0
LINE
8
0
10
112.668334
20
48.988107
11
112.628803
21
48.925073
0
LINE
8
0
10
112.628803
20
48.925073
11
112.582863
21
48.863108
0
LINE
8
0
10
112.582863
20
48.863108
11
112.529444
21
48.801677
0
LINE
8
0
10
112.529444
20
48.801677
11
112.470150
21
48.742382
0
LINE
8
0
10
112.470150
20
48.742382
11
112.406048
21
48.685224
0
LINE
8
0
10
112.406048
20
48.685224
11
112.337138
21
48.631271
0
LINE
8
0
10
112.337138
20
48.631271
11
112.263419
21
48.579989
0
LINE
8
0
10
112.263419
20
48.579989
11
112.184894
21
48.531379
0
LINE
8
0
10
112.184894
20
48.531379
11
112.101026
21
48.485972
0
LINE
8
0
10
112.101026
20
48.485972
11
112.012885
21
48.442702
0
LINE
8
0
10
112.012885
20
48.442702
11
111.919938
21
48.402638
0
LINE
8
0
10
111.920000
20
48.402700
11
112.073845
21
48.276631
0
LINE
8
0
10
112.073845
20
48.276631
11
112.217541
21
48.161247
0
LINE
8
0
10
112.217541
20
48.161247
11
112.352155
21
48.055479
0
LINE
8
0
10
112.352155
20
48.055479
11
112.477157
21
47.960393
0
LINE
8
0
10
112.477157
20
47.960393
11
112.592541
21
47.875458
0
LINE
8
0
10
112.592541
20
47.875458
11
112.698309
21
47.800672
0
LINE
8
0
10
112.698309
20
47.800672
11
112.794465
21
47.736568
0
LINE
8
0
10
112.794465
20
47.736568
11
112.881003
21
47.682080
0
LINE
8
0
10
112.881000
20
47.682000
11
112.931746
21
47.644075
0
LINE
8
0
10
112.931746
20
47.644075
11
112.967538
21
47.601874
0
LINE
8
0
10
112.967538
20
47.601874
11
112.989438
21
47.553795
0
LINE
8
0
10
112.989438
20
47.553795
11
112.996381
21
47.501446
0
LINE
8
0
10
112.996000
20
47.501500
11
112.990666
21
47.465711
0
LINE
8
0
10
112.990666
20
47.465711
11
112.975708
21
47.429387
0
LINE
8
0
10
112.975708
20
47.429387
11
112.950054
21
47.393595
0
LINE
8
0
10
112.950054
20
47.393595
11
112.914263
21
47.357270
0
LINE
8
0
10
112.914263
20
47.357270
11
112.874201
21
47.325752
0
LINE
8
0
10
112.874201
20
47.325752
11
112.835204
21
47.303315
0
LINE
8
0
10
112.835204
20
47.303315
11
112.797276
21
47.289430
0
LINE
8
0
10
112.797276
20
47.289430
11
112.760418
21
47.285168
0
LINE
8
0
10
112.761000
20
47.285100
11
112.707048
21
47.290970
0
LINE
8
0
10
112.707048
20
47.290970
11
112.649889
21
47.307537
0
LINE
8
0
10
112.649889
20
47.307537
11
112.588458
21
47.335849
0
LINE
8
0
10
112.588458
20
47.335849
11
112.523821
21
47.375377
0
LINE
8
0
10
112.523821
20
47.375377
11
112.489099
21
47.399959
0
LINE
8
0
10
112.489099
20
47.399959
11
112.450638
21
47.427193
0
LINE
8
0
10
112.450638
20
47.427193
11
112.408437
21
47.458178
0
LINE
8
0
10
112.408437
20
47.458178
11
112.363564
21
47.492364
0
LINE
8
0
10
112.363564
20
47.492364
11
112.314420
21
47.529758
0
LINE
8
0
10
112.314420
20
47.529758
11
112.262604
21
47.570356
0
LINE
8
0
10
112.262604
20
47.570356
11
112.207049
21
47.614160
0
LINE
8
0
10
112.207049
20
47.614160
11
112.147754
21
47.661169
0
LINE
8
0
10
112.147754
20
47.661169
11
112.090596
21
47.707643
0
LINE
8
0
10
112.090596
20
47.707643
11
112.039313
21
47.748774
0
LINE
8
0
10
112.039313
20
47.748774
11
111.994976
21
47.785099
0
LINE
8
0
10
111.994976
20
47.785099
11
111.956515
21
47.817151
0
LINE
8
0
10
111.956515
20
47.817151
11
111.924996
21
47.843341
0
LINE
8
0
10
111.924996
20
47.843341
11
111.899370
21
47.865241
0
LINE
8
0
10
111.899370
20
47.865241
11
111.880659
21
47.882344
0
LINE
8
0
10
111.880659
20
47.882344
11
111.867846
21
47.894084
0
LINE
8
0
10
111.867000
20
47.894100
11
111.784735
21
47.963010
0
LINE
8
0
10
111.784735
20
47.963010
11
111.707813
21
48.026044
0
LINE
8
0
10
111.707813
20
48.026044
11
111.637300
21
48.083203
0
LINE
8
0
10
111.637300
20
48.083203
11
111.573198
21
48.133952
0
LINE
8
0
10
111.573198
20
48.133952
11
111.514437
21
48.178822
0
LINE
8
0
10
111.514437
20
48.178822
11
111.461551
21
48.217284
0
LINE
8
0
10
111.461551
20
48.217284
11
111.415078
21
48.249869
0
LINE
8
0
10
111.415078
20
48.249869
11
111.374480
21
48.276567
0
LINE
8
0
10
111.375000
20
48.276600
11
111.330127
21
48.279817
0
LINE
8
0
10
111.330127
20
48.279817
11
111.291665
21
48.288369
0
LINE
8
0
10
111.291665
20
48.288369
11
111.258547
21
48.303326
0
LINE
8
0
10
111.258547
20
48.303326
11
111.231848
21
48.324691
0
LINE
8
0
10
111.231848
20
48.324691
11
111.211021
21
48.351389
0
LINE
8
0
10
111.211021
20
48.351389
11
111.196063
21
48.383974
0
LINE
8
0
10
111.196063
20
48.383974
11
111.187511
21
48.422972
0
LINE
8
0
10
111.187511
20
48.422972
11
111.184294
21
48.467842
0
LINE
8
0
10
111.184000
20
48.467800
11
111.189334
21
48.511070
0
LINE
8
0
10
111.189334
20
48.511070
11
111.205900
21
48.551135
0
LINE
8
0
10
111.205900
20
48.551135
11
111.232599
21
48.588526
0
LINE
8
0
10
111.232599
20
48.588526
11
111.270526
21
48.622181
0
LINE
8
0
10
111.270526
20
48.622181
11
111.315400
21
48.650494
0
LINE
8
0
10
111.315400
20
48.650494
11
111.363476
21
48.670785
0
LINE
8
0
10
111.363476
20
48.670785
11
111.414225
21
48.682554
0
LINE
8
0
10
111.414225
20
48.682554
11
111.468178
21
48.686816
0
LINE
8
0
10
111.468000
20
48.686900
11
111.501119
21
48.684642
0
LINE
8
0
10
111.501119
20
48.684642
11
111.536374
21
48.677700
0
LINE
8
0
10
111.537000
20
48.677800
11
111.566916
21
48.669785
0
LINE
8
0
10
111.566916
20
48.669785
11
111.586671
21
48.667245
0
LINE
8
0
10
111.586000
20
48.667100
11
111.617519
21
48.670317
0
LINE
8
0
10
111.617519
20
48.670317
11
111.654910
21
48.679405
0
LINE
8
0
10
111.654910
20
48.679405
11
111.698181
21
48.694363
0
LINE
8
0
10
111.698181
20
48.694363
11
111.747327
21
48.715191
0
LINE
8
0
10
111.747327
20
48.715191
11
111.802882
21
48.742425
0
LINE
8
0
10
111.802882
20
48.742425
11
111.864313
21
48.775544
0
LINE
8
0
10
111.864313
20
48.775544
11
111.931620
21
48.814538
0
LINE
8
0
10
111.931620
20
48.814538
11
112.005340
21
48.859412
0
LINE
8
0
10
112.005340
20
48.859412
11
112.077453
21
48.908558
0
LINE
8
0
10
112.077453
20
48.908558
11
112.139420
21
48.959304
0
LINE
8
0
10
112.139420
20
48.959304
11
112.192303
21
49.012190
0
LINE
8
0
10
112.192303
20
49.012190
11
112.235574
21
49.067212
0
LINE
8
0
10
112.235574
20
49.067212
11
112.268692
21
49.123301
0
LINE
8
0
10
112.268692
20
49.123301
11
112.292738
21
49.181526
0
LINE
8
0
10
112.292738
20
49.181526
11
112.307159
21
49.241890
0
LINE
8
0
10
112.307159
20
49.241890
11
112.311957
21
49.303855
0
LINE
8
0
10
112.312000
20
49.303800
11
112.309742
21
49.334785
0
LINE
8
0
10
112.309742
20
49.334785
11
112.303872
21
49.364698
0
LINE
8
0
10
112.303872
20
49.364698
11
112.293712
21
49.393010
0
LINE
8
0
10
112.293712
20
49.393010
11
112.279827
21
49.420781
0
LINE
8
0
10
112.279827
20
49.420781
11
112.261652
21
49.446943
0
LINE
8
0
10
112.261652
20
49.446943
11
112.239215
21
49.472597
0
LINE
8
0
10
112.239215
20
49.472597
11
112.213053
21
49.496642
0
LINE
8
0
10
112.213053
20
49.496642
11
112.183138
21
49.519615
0
LINE
8
0
10
112.183138
20
49.519615
11
112.114227
21
49.559146
0
LINE
8
0
10
112.114227
20
49.559146
11
112.036772
21
49.587458
0
LINE
8
0
10
112.036772
20
49.587458
11
111.950234
21
49.604025
0
LINE
8
0
10
111.950234
20
49.604025
11
111.855148
21
49.609895
0
LINE
8
0
10
111.856000
20
49.609900
11
111.743820
21
49.608207
0
LINE
8
0
10
111.743820
20
49.608207
11
111.642861
21
49.602873
0
LINE
8
0
10
111.642861
20
49.602873
11
111.553117
21
49.593785
0
LINE
8
0
10
111.553117
20
49.593785
11
111.475125
21
49.580972
0
LINE
8
0
10
111.475125
20
49.580972
11
111.440937
21
49.574030
0
LINE
8
0
10
111.440937
20
49.574030
11
111.411021
21
49.567623
0
LINE
8
0
10
111.411021
20
49.567623
11
111.384859
21
49.562289
0
LINE
8
0
10
111.384859
20
49.562289
11
111.363495
21
49.556955
0
LINE
8
0
10
111.363495
20
49.556955
11
111.345320
21
49.552157
0
LINE
8
0
10
111.345320
20
49.552157
11
111.331971
21
49.547896
0
LINE
8
0
10
111.331971
20
49.547896
11
111.322347
21
49.544142
0
LINE
8
0
10
111.322347
20
49.544142
11
111.317013
21
49.540925
0
LINE
8
0
10
111.317013
20
49.540925
11
111.310070
21
49.532910
0
LINE
8
0
10
111.310070
20
49.532910
11
111.302592
21
49.521169
0
LINE
8
0
10
111.302592
20
49.521169
11
111.294040
21
49.504603
0
LINE
8
0
10
111.294040
20
49.504603
11
111.284953
21
49.484311
0
LINE
8
0
10
111.284953
20
49.484311
11
111.279619
21
49.468817
0
LINE
8
0
10
111.279619
20
49.468817
11
111.273212
21
49.444236
0
LINE
8
0
10
111.273212
20
49.444236
11
111.265197
21
49.411650
0
LINE
8
0
10
111.265197
20
49.411650
11
111.256110
21
49.369983
0
LINE
8
0
10
111.256110
20
49.369983
11
111.245413
21
49.319234
0
LINE
8
0
10
111.245413
20
49.319234
11
111.233673
21
49.259939
0
LINE
8
0
10
111.233673
20
49.259939
11
111.220860
21
49.192099
0
LINE
8
0
10
111.220860
20
49.192099
11
111.206439
21
49.115710
0
LINE
8
0
10
111.206439
20
49.115710
11
111.177590
21
48.950111
0
LINE
8
0
10
111.177590
20
48.950111
11
111.149819
21
48.776502
0
LINE
8
0
10
111.149819
20
48.776502
11
111.123121
21
48.594878
0
LINE
8
0
10
111.123121
20
48.594878
11
111.097495
21
48.405242
0
LINE
8
0
10
111.097495
20
48.405242
11
111.085727
21
48.311758
0
LINE
8
0
10
111.085727
20
48.311758
11
111.075567
21
48.224684
0
LINE
8
0
10
111.075567
20
48.224684
11
111.067015
21
48.144022
0
LINE
8
0
10
111.067015
20
48.144022
11
111.060073
21
48.069770
0
LINE
8
0
10
111.060073
20
48.069770
11
111.054739
21
48.001393
0
LINE
8
0
10
111.054739
20
48.001393
11
111.051013
21
47.939962
0
LINE
8
0
10
111.051013
20
47.939962
11
111.048473
21
47.884406
0
LINE
8
0
10
111.048473
20
47.884406
11
111.047909
21
47.835797
0
LINE
8
0
10
111.048000
20
47.835900
11
111.052798
21
47.724789
0
LINE
8
0
10
111.052798
20
47.724789
11
111.066147
21
47.625963
0
LINE
8
0
10
111.066000
20
47.626000
11
111.078277
21
47.538929
0
LINE
8
0
10
111.078277
20
47.538929
11
111.082002
21
47.464676
0
LINE
8
0
10
111.082000
20
47.464600
11
111.077202
21
47.431481
0
LINE
8
0
10
111.077202
20
47.431481
11
111.062244
21
47.397293
0
LINE
8
0
10
111.062244
20
47.397293
11
111.037127
21
47.362035
0
LINE
8
0
10
111.037127
20
47.362035
11
111.002405
21
47.325177
0
LINE
8
0
10
111.002405
20
47.325177
11
110.961807
21
47.292591
0
LINE
8
0
10
110.961807
20
47.292591
11
110.919607
21
47.269618
0
LINE
8
0
10
110.919607
20
47.269618
11
110.875267
21
47.255733
0
LINE
8
0
10
110.875267
20
47.255733
11
110.829327
21
47.250935
0
LINE
8
0
10
110.829000
20
47.251000
11
110.768105
21
47.256334
0
LINE
8
0
10
110.768105
20
47.256334
11
110.715219
21
47.272900
0
LINE
8
0
10
110.715219
20
47.272900
11
110.670346
21
47.300135
0
LINE
8
0
10
110.670346
20
47.300135
11
110.634021
21
47.338063
0
LINE
8
0
10
110.634021
20
47.338063
11
110.605175
21
47.386672
0
LINE
8
0
10
110.605175
20
47.386672
11
110.584884
21
47.446501
0
LINE
8
0
10
110.584884
20
47.446501
11
110.573143
21
47.517014
0
LINE
8
0
10
110.573143
20
47.517014
11
110.568853
21
47.598745
0
LINE
8
0
10
110.569000
20
47.598700
11
110.570129
21
47.672953
0
LINE
8
0
10
110.570129
20
47.672953
11
110.572669
21
47.754148
0
LINE
8
0
10
110.572669
20
47.754148
11
110.577467
21
47.842289
0
LINE
8
0
10
110.577467
20
47.842289
11
110.584409
21
47.937375
0
LINE
8
0
10
110.584409
20
47.937375
11
110.593497
21
48.039940
0
LINE
8
0
10
110.593497
20
48.039940
11
110.604193
21
48.149448
0
LINE
8
0
10
110.604193
20
48.149448
11
110.617006
21
48.265901
0
LINE
8
0
10
110.617006
20
48.265901
11
110.631427
21
48.389297
0
LINE
8
0
10
110.631427
20
48.389297
11
110.664013
21
48.636092
0
LINE
8
0
10
110.664013
20
48.636092
11
110.699804
21
48.867396
0
LINE
8
0
10
110.699804
20
48.867396
11
110.737732
21
49.083208
0
LINE
8
0
10
110.737732
20
49.083208
11
110.778863
21
49.283529
0
LINE
8
0
10
110.779000
20
49.283500
11
110.790740
21
49.342259
0
LINE
8
0
10
110.790740
20
49.342259
11
110.800900
21
49.394077
0
LINE
8
0
10
110.801000
20
49.394200
11
110.826118
21
49.524587
0
LINE
8
0
10
114.364000
20
48.853500
11
114.361742
21
48.882346
0
LINE
8
0
10
114.361742
20
48.882346
11
114.355336
21
48.908536
0
LINE
8
0
10
114.355336
20
48.908536
11
114.345176
21
48.932581
0
LINE
8
0
10
114.345176
20
48.932581
11
114.330218
21
48.953946
0
LINE
8
0
10
114.330218
20
48.953946
11
114.312579
21
48.971584
0
LINE
8
0
10
114.312579
20
48.971584
11
114.292287
21
48.984397
0
LINE
8
0
10
114.292287
20
48.984397
11
114.269851
21
48.991876
0
LINE
8
0
10
114.269851
20
48.991876
11
114.244733
21
48.994416
0
LINE
8
0
10
114.245000
20
48.994500
11
114.205469
21
48.990775
0
LINE
8
0
10
114.205469
20
48.990775
11
114.164338
21
48.980078
0
LINE
8
0
10
114.164338
20
48.980078
11
114.122671
21
48.961932
0
LINE
8
0
10
114.122671
20
48.961932
11
114.079401
21
48.936814
0
LINE
8
0
10
114.079401
20
48.936814
11
114.035597
21
48.903695
0
LINE
8
0
10
114.035597
20
48.903695
11
113.990193
21
48.864167
0
LINE
8
0
10
113.990193
20
48.864167
11
113.944253
21
48.817157
0
LINE
8
0
10
113.944253
20
48.817157
11
113.896710
21
48.762669
0
LINE
8
0
10
113.896710
20
48.762669
11
113.850770
21
48.704443
0
LINE
8
0
10
113.850770
20
48.704443
11
113.809102
21
48.645149
0
LINE
8
0
10
113.809102
20
48.645149
11
113.771708
21
48.585320
0
LINE
8
0
10
113.771708
20
48.585320
11
113.738056
21
48.523889
0
LINE
8
0
10
113.738056
20
48.523889
11
113.708140
21
48.461922
0
LINE
8
0
10
113.708140
20
48.461922
11
113.683023
21
48.399424
0
LINE
8
0
10
113.683023
20
48.399424
11
113.661658
21
48.335320
0
LINE
8
0
10
113.661658
20
48.335320
11
113.644019
21
48.270682
0
LINE
8
0
10
113.644000
20
48.270700
11
113.714510
21
48.287266
0
LINE
8
0
10
113.714510
20
48.287266
11
113.782354
21
48.307558
0
LINE
8
0
10
113.782354
20
48.307558
11
113.848594
21
48.332140
0
LINE
8
0
10
113.848594
20
48.332140
11
113.912162
21
48.360452
0
LINE
8
0
10
113.912162
20
48.360452
11
113.974126
21
48.393038
0
LINE
8
0
10
113.974126
20
48.393038
11
114.033955
21
48.429899
0
LINE
8
0
10
114.033955
20
48.429899
11
114.091113
21
48.470496
0
LINE
8
0
10
114.091113
20
48.470496
11
114.146668
21
48.514833
0
LINE
8
0
10
114.146668
20
48.514833
11
114.197418
21
48.560773
0
LINE
8
0
10
114.197418
20
48.560773
11
114.241755
21
48.606180
0
LINE
8
0
10
114.241755
20
48.606180
11
114.279149
21
48.649984
0
LINE
8
0
10
114.279149
20
48.649984
11
114.309598
21
48.692718
0
LINE
8
0
10
114.309598
20
48.692718
11
114.333643
21
48.734385
0
LINE
8
0
10
114.333643
20
48.734385
11
114.350746
21
48.775516
0
LINE
8
0
10
114.350746
20
48.775516
11
114.360906
21
48.815047
0
LINE
8
0
10
114.360906
20
48.815047
11
114.364123
21
48.853508
0
LINE
8
0
10
114.842000
20
47.951800
11
114.837202
21
47.904257
0
LINE
8
0
10
114.837202
20
47.904257
11
114.822244
21
47.854577
0
LINE
8
0
10
114.822244
20
47.854577
11
114.797663
21
47.802761
0
LINE
8
0
10
114.797663
20
47.802761
11
114.763475
21
47.748273
0
LINE
8
0
10
114.763475
20
47.748273
11
114.719137
21
47.691651
0
LINE
8
0
10
114.719137
20
47.691651
11
114.665185
21
47.632889
0
LINE
8
0
10
114.665185
20
47.632889
11
114.601617
21
47.571991
0
LINE
8
0
10
114.601617
20
47.571991
11
114.527898
21
47.508424
0
LINE
8
0
10
114.527898
20
47.508424
11
114.448303
21
47.448059
0
LINE
8
0
10
114.448303
20
47.448059
11
114.366038
21
47.395710
0
LINE
8
0
10
114.366038
20
47.395710
11
114.281103
21
47.351373
0
LINE
8
0
10
114.281103
20
47.351373
11
114.193496
21
47.315581
0
LINE
8
0
10
114.193496
20
47.315581
11
114.103752
21
47.287269
0
LINE
8
0
10
114.103752
20
47.287269
11
114.011339
21
47.266977
0
LINE
8
0
10
114.011339
20
47.266977
11
113.916252
21
47.255208
0
LINE
8
0
10
113.916252
20
47.255208
11
113.818496
21
47.250947
0
LINE
8
0
10
113.819000
20
47.251000
11
113.745284
21
47.254217
0
LINE
8
0
10
113.745284
20
47.254217
11
113.675304
21
47.263305
0
LINE
8
0
10
113.675304
20
47.263305
11
113.609600
21
47.278263
0
LINE
8
0
10
113.609600
20
47.278263
11
113.548168
21
47.299091
0
LINE
8
0
10
113.548168
20
47.299091
11
113.490477
21
47.326325
0
LINE
8
0
10
113.490477
20
47.326325
11
113.436521
21
47.359444
0
LINE
8
0
10
113.436521
20
47.359444
11
113.386842
21
47.398438
0
LINE
8
0
10
113.386842
20
47.398438
11
113.341438
21
47.443312
0
LINE
8
0
10
113.341438
20
47.443312
11
113.300838
21
47.494058
0
LINE
8
0
10
113.300838
20
47.494058
11
113.265049
21
47.549080
0
LINE
8
0
10
113.265049
20
47.549080
11
113.235133
21
47.608908
0
LINE
8
0
10
113.235133
20
47.608908
11
113.211088
21
47.673546
0
LINE
8
0
10
113.211088
20
47.673546
11
113.191869
21
47.742989
0
LINE
8
0
10
113.191869
20
47.742989
11
113.177984
21
47.817242
0
LINE
8
0
10
113.177984
20
47.817242
11
113.169968
21
47.895767
0
LINE
8
0
10
113.169968
20
47.895767
11
113.167428
21
47.979102
0
LINE
8
0
10
113.167000
20
47.979100
11
113.172334
21
48.104632
0
LINE
8
0
10
113.172334
20
48.104632
11
113.189437
21
48.228031
0
LINE
8
0
10
113.189437
20
48.228031
11
113.217207
21
48.349827
0
LINE
8
0
10
113.217207
20
48.349827
11
113.256735
21
48.469483
0
LINE
8
0
10
113.256735
20
48.469483
11
113.306951
21
48.587006
0
LINE
8
0
10
113.306951
20
48.587006
11
113.368382
21
48.702390
0
LINE
8
0
10
113.368382
20
48.702390
11
113.441565
21
48.816171
0
LINE
8
0
10
113.441565
20
48.816171
11
113.525433
21
48.927818
0
LINE
8
0
10
113.525433
20
48.927818
11
113.615711
21
49.031450
0
LINE
8
0
10
113.615711
20
49.031450
11
113.707591
21
49.121727
0
LINE
8
0
10
113.707591
20
49.121727
11
113.801074
21
49.197583
0
LINE
8
0
10
113.801074
20
49.197583
11
113.896160
21
49.260081
0
LINE
8
0
10
113.896160
20
49.260081
11
113.992313
21
49.308160
0
LINE
8
0
10
113.992313
20
49.308160
11
114.090603
21
49.342882
0
LINE
8
0
10
114.090603
20
49.342882
11
114.189962
21
49.363710
0
LINE
8
0
10
114.189962
20
49.363710
11
114.290924
21
49.370653
0
LINE
8
0
10
114.291000
20
49.370600
11
114.340146
21
49.368342
0
LINE
8
0
10
114.340146
20
49.368342
11
114.387153
21
49.362472
0
LINE
8
0
10
114.387153
20
49.362472
11
114.431493
21
49.352312
0
LINE
8
0
10
114.431493
20
49.352312
11
114.473694
21
49.338427
0
LINE
8
0
10
114.473694
20
49.338427
11
114.513222
21
49.319744
0
LINE
8
0
10
114.513222
20
49.319744
11
114.550080
21
49.297843
0
LINE
8
0
10
114.550080
20
49.297843
11
114.584268
21
49.271653
0
LINE
8
0
10
114.584268
20
49.271653
11
114.616320
21
49.241207
0
LINE
8
0
10
114.616320
20
49.241207
11
114.645166
21
49.208085
0
LINE
8
0
10
114.645166
20
49.208085
11
114.670284
21
49.173897
0
LINE
8
0
10
114.670284
20
49.173897
11
114.691648
21
49.137572
0
LINE
8
0
10
114.691648
20
49.137572
11
114.708751
21
49.100181
0
LINE
8
0
10
114.708751
20
49.100181
11
114.722636
21
49.060650
0
LINE
8
0
10
114.722636
20
49.060650
11
114.732260
21
49.020052
0
LINE
8
0
10
114.732260
20
49.020052
11
114.737594
21
48.977851
0
LINE
8
0
10
114.737594
20
48.977851
11
114.739852
21
48.934048
0
LINE
8
0
10
114.740000
20
48.934200
11
114.735202
21
48.855675
0
LINE
8
0
10
114.735202
20
48.855675
11
114.721317
21
48.777683
0
LINE
8
0
10
114.721317
20
48.777683
11
114.697808
21
48.701294
0
LINE
8
0
10
114.697808
20
48.701294
11
114.664686
21
48.625441
0
LINE
8
0
10
114.664686
20
48.625441
11
114.621952
21
48.550119
0
LINE
8
0
10
114.621952
20
48.550119
11
114.570136
21
48.476402
0
LINE
8
0
10
114.570136
20
48.476402
11
114.508705
21
48.403219
0
LINE
8
0
10
114.508705
20
48.403219
11
114.438192
21
48.331103
0
LINE
8
0
10
114.438192
20
48.331103
11
114.360200
21
48.262193
0
LINE
8
0
10
114.360200
20
48.262193
11
114.276868
21
48.199159
0
LINE
8
0
10
114.276868
20
48.199159
11
114.188191
21
48.141467
0
LINE
8
0
10
114.188191
20
48.141467
11
114.094708
21
48.089115
0
LINE
8
0
10
114.094708
20
48.089115
11
113.995349
21
48.042641
0
LINE
8
0
10
113.995349
20
48.042641
11
113.890650
21
48.001507
0
LINE
8
0
10
113.890650
20
48.001507
11
113.781139
21
47.965719
0
LINE
8
0
10
113.781139
20
47.965719
11
113.665755
21
47.935803
0
LINE
8
0
10
113.666000
20
47.935800
11
113.642491
21
47.926712
0
LINE
8
0
10
113.642491
20
47.926712
11
113.625388
21
47.913363
0
LINE
8
0
10
113.625388
20
47.913363
11
113.615228
21
47.894116
0
LINE
8
0
10
113.615228
20
47.894116
11
113.612011
21
47.870607
0
LINE
8
0
10
113.612000
20
47.870600
11
113.616798
21
47.827866
0
LINE
8
0
10
113.616798
20
47.827866
11
113.631219
21
47.786199
0
LINE
8
0
10
113.631219
20
47.786199
11
113.654728
21
47.745068
0
LINE
8
0
10
113.654728
20
47.745068
11
113.687850
21
47.705537
0
LINE
8
0
10
113.687850
20
47.705537
11
113.728981
21
47.671348
0
LINE
8
0
10
113.728981
20
47.671348
11
113.776524
21
47.646767
0
LINE
8
0
10
113.776524
20
47.646767
11
113.829943
21
47.631809
0
LINE
8
0
10
113.829943
20
47.631809
11
113.890305
21
47.627011
0
LINE
8
0
10
113.890000
20
47.627000
11
113.979210
21
47.632870
0
LINE
8
0
10
113.979210
20
47.632870
11
114.068421
21
47.650509
0
LINE
8
0
10
114.068421
20
47.650509
11
114.157628
21
47.679355
0
LINE
8
0
10
114.157628
20
47.679355
11
114.246839
21
47.719953
0
LINE
8
0
10
114.246839
20
47.719953
11
114.335513
21
47.772305
0
LINE
8
0
10
114.335513
20
47.772305
11
114.424190
21
47.836406
0
LINE
8
0
10
114.424190
20
47.836406
11
114.512864
21
47.912262
0
LINE
8
0
10
114.512864
20
47.912262
11
114.601005
21
47.999333
0
LINE
8
0
10
114.601000
20
47.999400
11
114.635188
21
48.030919
0
LINE
8
0
10
114.635188
20
48.030919
11
114.668843
21
48.053355
0
LINE
8
0
10
114.668843
20
48.053355
11
114.701962
21
48.067240
0
LINE
8
0
10
114.701962
20
48.067240
11
114.734548
21
48.071502
0
LINE
8
0
10
114.734000
20
48.071500
11
114.759118
21
48.069807
0
LINE
8
0
10
114.759118
20
48.069807
11
114.781018
21
48.063936
0
LINE
8
0
10
114.781018
20
48.063936
11
114.799730
21
48.054849
0
LINE
8
0
10
114.799730
20
48.054849
11
114.815224
21
48.041500
0
LINE
8
0
10
114.815224
20
48.041500
11
114.826964
21
48.024933
0
LINE
8
0
10
114.826964
20
48.024933
11
114.834979
21
48.004105
0
LINE
8
0
10
114.834979
20
48.004105
11
114.840313
21
47.980060
0
LINE
8
0
10
114.840313
20
47.980060
11
114.842006
21
47.951750
0
LINE
8
0
10
117.748000
20
48.815100
11
117.743202
21
48.808694
0
LINE
8
0
10
117.743202
20
48.808694
11
117.736796
21
48.790010
0
LINE
8
0
10
117.736796
20
48.790010
11
117.727708
21
48.758492
0
LINE
8
0
10
117.727708
20
48.758492
11
117.717548
21
48.714688
0
LINE
8
0
10
117.717548
20
48.714688
11
117.704735
21
48.658066
0
LINE
8
0
10
117.704735
20
48.658066
11
117.690314
21
48.588620
0
LINE
8
0
10
117.690314
20
48.588620
11
117.673747
21
48.506891
0
LINE
8
0
10
117.673747
20
48.506891
11
117.655064
21
48.412871
0
LINE
8
0
10
117.655064
20
48.412871
11
117.636889
21
48.317255
0
LINE
8
0
10
117.636889
20
48.317255
11
117.620859
21
48.231784
0
LINE
8
0
10
117.620859
20
48.231784
11
117.607510
21
48.155928
0
LINE
8
0
10
117.607510
20
48.155928
11
117.596814
21
48.090224
0
LINE
8
0
10
117.596814
20
48.090224
11
117.588262
21
48.034669
0
LINE
8
0
10
117.588262
20
48.034669
11
117.581856
21
47.988729
0
LINE
8
0
10
117.581856
20
47.988729
11
117.578102
21
47.952404
0
LINE
8
0
10
117.578102
20
47.952404
11
117.576974
21
47.926214
0
LINE
8
0
10
117.577000
20
47.926200
11
117.579258
21
47.857823
0
LINE
8
0
10
117.579258
20
47.857823
11
117.585128
21
47.800668
0
LINE
8
0
10
117.585128
20
47.800668
11
117.594752
21
47.754191
0
LINE
8
0
10
117.594752
20
47.754191
11
117.608637
21
47.719470
0
LINE
8
0
10
117.608637
20
47.719470
11
117.627348
21
47.693844
0
LINE
8
0
10
117.627348
20
47.693844
11
117.650857
21
47.675669
0
LINE
8
0
10
117.650857
20
47.675669
11
117.679706
21
47.665001
0
LINE
8
0
10
117.679706
20
47.665001
11
117.713358
21
47.661275
0
LINE
8
0
10
117.714000
20
47.661200
11
117.764749
21
47.663458
0
LINE
8
0
10
117.764749
20
47.663458
11
117.813892
21
47.670400
0
LINE
8
0
10
117.813892
20
47.670400
11
117.862505
21
47.681097
0
LINE
8
0
10
117.862505
20
47.681097
11
117.909512
21
47.696591
0
LINE
8
0
10
117.909512
20
47.696591
11
117.960261
21
47.720100
0
LINE
8
0
10
117.960261
20
47.720100
11
118.018486
21
47.754288
0
LINE
8
0
10
118.018486
20
47.754288
11
118.083657
21
47.799695
0
LINE
8
0
10
118.083657
20
47.799695
11
118.156307
21
47.856320
0
LINE
8
0
10
118.156000
20
47.856200
11
118.201407
21
47.890386
0
LINE
8
0
10
118.201407
20
47.890386
11
118.243074
21
47.914967
0
LINE
8
0
10
118.243074
20
47.914967
11
118.281535
21
47.929925
0
LINE
8
0
10
118.281535
20
47.929925
11
118.315724
21
47.934723
0
LINE
8
0
10
118.316000
20
47.934700
11
118.341118
21
47.932442
0
LINE
8
0
10
118.341118
20
47.932442
11
118.363554
21
47.927108
0
LINE
8
0
10
118.363554
20
47.927108
11
118.383310
21
47.916948
0
LINE
8
0
10
118.383310
20
47.916948
11
118.400413
21
47.903599
0
LINE
8
0
10
118.400413
20
47.903599
11
118.414298
21
47.887569
0
LINE
8
0
10
118.414298
20
47.887569
11
118.424458
21
47.870466
0
LINE
8
0
10
118.424458
20
47.870466
11
118.430328
21
47.851783
0
LINE
8
0
10
118.430328
20
47.851783
11
118.432586
21
47.832028
0
LINE
8
0
10
118.432000
20
47.832200
11
118.427710
21
47.790533
0
LINE
8
0
10
118.427710
20
47.790533
11
118.415970
21
47.747265
0
LINE
8
0
10
118.415970
20
47.747265
11
118.395678
21
47.702392
0
LINE
8
0
10
118.395678
20
47.702392
11
118.367366
21
47.656985
0
LINE
8
0
10
118.367366
20
47.656985
11
118.331041
21
47.609445
0
LINE
8
0
10
118.331041
20
47.609445
11
118.286167
21
47.560832
0
LINE
8
0
10
118.286167
20
47.560832
11
118.233818
21
47.510619
0
LINE
8
0
10
118.233818
20
47.510619
11
118.172920
21
47.459337
0
LINE
8
0
10
118.172920
20
47.459337
11
118.107749
21
47.410727
0
LINE
8
0
10
118.107749
20
47.410727
11
118.042045
21
47.367990
0
LINE
8
0
10
118.042045
20
47.367990
11
117.974738
21
47.332201
0
LINE
8
0
10
117.974738
20
47.332201
11
117.906895
21
47.303355
0
LINE
8
0
10
117.906895
20
47.303355
11
117.838518
21
47.280383
0
LINE
8
0
10
117.838518
20
47.280383
11
117.768541
21
47.263816
0
LINE
8
0
10
117.768541
20
47.263816
11
117.698028
21
47.254192
0
LINE
8
0
10
117.698028
20
47.254192
11
117.626448
21
47.250975
0
LINE
8
0
10
117.627000
20
47.251000
11
117.568772
21
47.253258
0
LINE
8
0
10
117.568772
20
47.253258
11
117.513750
21
47.260200
0
LINE
8
0
10
117.513750
20
47.260200
11
117.462470
21
47.271405
0
LINE
8
0
10
117.462470
20
47.271405
11
117.414927
21
47.286899
0
LINE
8
0
10
117.414927
20
47.286899
11
117.371124
21
47.306654
0
LINE
8
0
10
117.371124
20
47.306654
11
117.330526
21
47.331236
0
LINE
8
0
10
117.330526
20
47.331236
11
117.293665
21
47.360082
0
LINE
8
0
10
117.293665
20
47.360082
11
117.260013
21
47.393737
0
LINE
8
0
10
117.260013
20
47.393737
11
117.230097
21
47.431128
0
LINE
8
0
10
117.230097
20
47.431128
11
117.204471
21
47.472795
0
LINE
8
0
10
117.204471
20
47.472795
11
117.183107
21
47.518202
0
LINE
8
0
10
117.183107
20
47.518202
11
117.164960
21
47.567345
0
LINE
8
0
10
117.164960
20
47.567345
11
117.151075
21
47.620764
0
LINE
8
0
10
117.151075
20
47.620764
11
117.141451
21
47.677923
0
LINE
8
0
10
117.141451
20
47.677923
11
117.135581
21
47.738821
0
LINE
8
0
10
117.135581
20
47.738821
11
117.133323
21
47.803458
0
LINE
8
0
10
117.133000
20
47.803300
11
117.133564
21
47.835885
0
LINE
8
0
10
117.133564
20
47.835885
11
117.135822
21
47.872744
0
LINE
8
0
10
117.135822
20
47.872744
11
117.139040
21
47.913344
0
LINE
8
0
10
117.139040
20
47.913344
11
117.143837
21
47.957681
0
LINE
8
0
10
117.143837
20
47.957681
11
117.149708
21
48.005758
0
LINE
8
0
10
117.149708
20
48.005758
11
117.157186
21
48.058107
0
LINE
8
0
10
117.157186
20
48.058107
11
117.165738
21
48.113662
0
LINE
8
0
10
117.165738
20
48.113662
11
117.175898
21
48.173491
0
LINE
8
0
10
117.175898
20
48.173491
11
117.187130
21
48.237061
0
LINE
8
0
10
117.187130
20
48.237061
11
117.199943
21
48.304368
0
LINE
8
0
10
117.199943
20
48.304368
11
117.213828
21
48.375415
0
LINE
8
0
10
117.213828
20
48.375415
11
117.229322
21
48.450734
0
LINE
8
0
10
117.229322
20
48.450734
11
117.245889
21
48.529796
0
LINE
8
0
10
117.245889
20
48.529796
11
117.264036
21
48.612594
0
LINE
8
0
10
117.264036
20
48.612594
11
117.283255
21
48.699132
0
LINE
8
0
10
117.283255
20
48.699132
11
117.304083
21
48.789409
0
LINE
8
0
10
117.304000
20
48.789400
11
117.251651
21
48.784066
0
LINE
8
0
10
117.251651
20
48.784066
11
117.207847
21
48.779804
0
LINE
8
0
10
117.207847
20
48.779804
11
117.173122
21
48.777547
0
LINE
8
0
10
117.173122
20
48.777547
11
117.146424
21
48.776418
0
LINE
8
0
10
117.146000
20
48.776700
11
117.109000
21
48.776700
0
LINE
8
0
10
117.109000
20
48.776600
11
117.068402
21
48.780354
0
LINE
8
0
10
117.068402
20
48.780354
11
117.027268
21
48.790514
0
LINE
8
0
10
117.027268
20
48.790514
11
116.985601
21
48.808152
0
LINE
8
0
10
116.985601
20
48.808152
11
116.943400
21
48.832198
0
LINE
8
0
10
116.943400
20
48.832198
11
116.906542
21
48.864250
0
LINE
8
0
10
116.906542
20
48.864250
11
116.880380
21
48.904311
0
LINE
8
0
10
116.880380
20
48.904311
11
116.864886
21
48.952924
0
LINE
8
0
10
116.864886
20
48.952924
11
116.859552
21
49.010082
0
LINE
8
0
10
116.859000
20
49.010000
11
116.861540
21
49.046325
0
LINE
8
0
10
116.861540
20
49.046325
11
116.870091
21
49.077841
0
LINE
8
0
10
116.870091
20
49.077841
11
116.883440
21
49.104539
0
LINE
8
0
10
116.883440
20
49.104539
11
116.903196
21
49.126439
0
LINE
8
0
10
116.903196
20
49.126439
11
116.927777
21
49.143542
0
LINE
8
0
10
116.927777
20
49.143542
11
116.958224
21
49.155819
0
LINE
8
0
10
116.958224
20
49.155819
11
116.994015
21
49.162761
0
LINE
8
0
10
116.994015
20
49.162761
11
117.035149
21
49.165301
0
LINE
8
0
10
117.036000
20
49.165600
11
117.432000
21
49.165600
0
LINE
8
0
10
117.582000
20
49.757900
11
117.596421
21
49.811316
0
LINE
8
0
10
117.596421
20
49.811316
11
117.615105
21
49.857793
0
LINE
8
0
10
117.615105
20
49.857793
11
117.638077
21
49.896787
0
LINE
8
0
10
117.638077
20
49.896787
11
117.664776
21
49.928839
0
LINE
8
0
10
117.664776
20
49.928839
11
117.695225
21
49.953957
0
LINE
8
0
10
117.695225
20
49.953957
11
117.729946
21
49.971596
0
LINE
8
0
10
117.729946
20
49.971596
11
117.768410
21
49.982292
0
LINE
8
0
10
117.768410
20
49.982292
11
117.811144
21
49.986017
0
LINE
8
0
10
118.022000
20
49.788900
11
118.021436
21
49.783566
0
LINE
8
0
10
118.021436
20
49.783566
11
118.019742
21
49.773942
0
LINE
8
0
10
118.019742
20
49.773942
11
118.016525
21
49.760057
0
LINE
8
0
10
118.016525
20
49.760057
11
118.012771
21
49.742954
0
LINE
8
0
10
118.012771
20
49.742954
11
118.007437
21
49.721590
0
LINE
8
0
10
118.007437
20
49.721590
11
118.001567
21
49.695936
0
LINE
8
0
10
118.001567
20
49.695936
11
117.994088
21
49.666557
0
LINE
8
0
10
117.994088
20
49.666557
11
117.985537
21
49.633438
0
LINE
8
0
10
117.985537
20
49.633438
11
117.975913
21
49.596577
0
LINE
8
0
10
117.975913
20
49.596577
11
117.965217
21
49.555446
0
LINE
8
0
10
117.965217
20
49.555446
11
117.952940
21
49.510039
0
LINE
8
0
10
117.952940
20
49.510039
11
117.940127
21
49.460893
0
LINE
8
0
10
117.940127
20
49.460893
11
117.925706
21
49.408010
0
LINE
8
0
10
117.925706
20
49.408010
11
117.910748
21
49.350852
0
LINE
8
0
10
117.910748
20
49.350852
11
117.894182
21
49.289954
0
LINE
8
0
10
117.894182
20
49.289954
11
117.876543
21
49.225317
0
LINE
8
0
10
117.877000
20
49.225300
11
118.013753
21
49.235460
0
LINE
8
0
10
118.013753
20
49.235460
11
118.133946
21
49.244011
0
LINE
8
0
10
118.133946
20
49.244011
11
118.238111
21
49.251490
0
LINE
8
0
10
118.238111
20
49.251490
11
118.325718
21
49.257360
0
LINE
8
0
10
118.325718
20
49.257360
11
118.397298
21
49.262158
0
LINE
8
0
10
118.397298
20
49.262158
11
118.452320
21
49.265376
0
LINE
8
0
10
118.452320
20
49.265376
11
118.490782
21
49.267633
0
LINE
8
0
10
118.490782
20
49.267633
11
118.513218
21
49.268198
0
LINE
8
0
10
118.513000
20
49.268100
11
118.557337
21
49.266407
0
LINE
8
0
10
118.557337
20
49.266407
11
118.593129
21
49.261073
0
LINE
8
0
10
118.593129
20
49.261073
11
118.620899
21
49.251985
0
LINE
8
0
10
118.620899
20
49.251985
11
118.640655
21
49.239708
0
LINE
8
0
10
118.640655
20
49.239708
11
118.654004
21
49.222606
0
LINE
8
0
10
118.654004
20
49.222606
11
118.664164
21
49.199097
0
LINE
8
0
10
118.664164
20
49.199097
11
118.669498
21
49.169181
0
LINE
8
0
10
118.669498
20
49.169181
11
118.671755
21
49.132856
0
LINE
8
0
10
118.671000
20
49.132900
11
118.666738
21
49.094439
0
LINE
8
0
10
118.666738
20
49.094439
11
118.653389
21
49.059717
0
LINE
8
0
10
118.653389
20
49.059717
11
118.631489
21
49.028732
0
LINE
8
0
10
118.631489
20
49.028732
11
118.601040
21
49.001497
0
LINE
8
0
10
118.601040
20
49.001497
11
118.561512
21
48.977988
0
LINE
8
0
10
118.561512
20
48.977988
11
118.512899
21
48.957696
0
LINE
8
0
10
118.512899
20
48.957696
11
118.455741
21
48.941666
0
LINE
8
0
10
118.455741
20
48.941666
11
118.390037
21
48.928853
0
LINE
8
0
10
118.390000
20
48.928800
11
117.747945
21
48.815065
0
LINE
8
0
10
117.432000
20
49.165500
11
117.449639
21
49.224261
0
LINE
8
0
10
117.449639
20
49.224261
11
117.467814
21
49.287296
0
LINE
8
0
10
117.467814
20
49.287296
11
117.485961
21
49.354603
0
LINE
8
0
10
117.485961
20
49.354603
11
117.504672
21
49.426719
0
LINE
8
0
10
117.504672
20
49.426719
11
117.523355
21
49.502572
0
LINE
8
0
10
117.523355
20
49.502572
11
117.542575
21
49.583234
0
LINE
8
0
10
117.542575
20
49.583234
11
117.561794
21
49.668705
0
LINE
8
0
10
117.561794
20
49.668705
11
117.581549
21
49.757915
0
LINE
8
0
10
117.811000
20
49.986000
11
117.858007
21
49.982275
0
LINE
8
0
10
117.858007
20
49.982275
11
117.899674
21
49.970534
0
LINE
8
0
10
117.899674
20
49.970534
11
117.935466
21
49.951315
0
LINE
8
0
10
117.935466
20
49.951315
11
117.965914
21
49.924617
0
LINE
8
0
10
117.965914
20
49.924617
11
117.990496
21
49.893098
0
LINE
8
0
10
117.990496
20
49.893098
11
118.008135
21
49.860513
0
LINE
8
0
10
118.008135
20
49.860513
11
118.018295
21
49.825258
0
LINE
8
0
10
118.018295
20
49.825258
11
118.022048
21
49.788933
0
LINE
8
0
10
115.694000
20
47.251000
11
115.621350
21
47.253540
0
LINE
8
0
10
115.621350
20
47.253540
11
115.552974
21
47.261019
0
LINE
8
0
10
115.552974
20
47.261019
11
115.488870
21
47.273832
0
LINE
8
0
10
115.488870
20
47.273832
11
115.429575
21
47.291471
0
LINE
8
0
10
115.429575
20
47.291471
11
115.375089
21
47.313907
0
LINE
8
0
10
115.375089
20
47.313907
11
115.324340
21
47.341678
0
LINE
8
0
10
115.324340
20
47.341678
11
115.278400
21
47.374797
0
LINE
8
0
10
115.278400
20
47.374797
11
115.237269
21
47.412724
0
LINE
8
0
10
115.237269
20
47.412724
11
115.200944
21
47.454925
0
LINE
8
0
10
115.200944
20
47.454925
11
115.168892
21
47.501399
0
LINE
8
0
10
115.168892
20
47.501399
11
115.142194
21
47.551612
0
LINE
8
0
10
115.142194
20
47.551612
11
115.120294
21
47.606100
0
LINE
8
0
10
115.120294
20
47.606100
11
115.103191
21
47.664325
0
LINE
8
0
10
115.103191
20
47.664325
11
115.090914
21
47.726293
0
LINE
8
0
10
115.090914
20
47.726293
11
115.083971
21
47.792530
0
LINE
8
0
10
115.083971
20
47.792530
11
115.081431
21
47.862510
0
LINE
8
0
10
116.174000
20
49.370600
11
116.216201
21
49.368060
0
LINE
8
0
10
116.216201
20
49.368060
11
116.256265
21
49.360045
0
LINE
8
0
10
116.256265
20
49.360045
11
116.295262
21
49.346696
0
LINE
8
0
10
116.295262
20
49.346696
11
116.332121
21
49.328013
0
LINE
8
0
10
116.332121
20
49.328013
11
116.367912
21
49.303967
0
LINE
8
0
10
116.367912
20
49.303967
11
116.402100
21
49.274588
0
LINE
8
0
10
116.402100
20
49.274588
11
116.434149
21
49.239866
0
LINE
8
0
10
116.434149
20
49.239866
11
116.465132
21
49.199802
0
LINE
8
0
10
116.465132
20
49.199802
11
116.518017
21
49.113798
0
LINE
8
0
10
116.518017
20
49.113798
11
116.555945
21
49.025657
0
LINE
8
0
10
116.555945
20
49.025657
11
116.578382
21
48.935913
0
LINE
8
0
10
116.578382
20
48.935913
11
116.585861
21
48.844566
0
LINE
8
0
10
116.586000
20
48.844400
11
116.584871
21
48.802733
0
LINE
8
0
10
116.584871
20
48.802733
11
116.582331
21
48.764808
0
LINE
8
0
10
116.582331
20
48.764808
11
116.576997
21
48.730619
0
LINE
8
0
10
116.576997
20
48.730619
11
116.570591
21
48.699637
0
LINE
8
0
10
116.570591
20
48.699637
11
116.561503
21
48.671866
0
LINE
8
0
10
116.561503
20
48.671866
11
116.550807
21
48.647821
0
LINE
8
0
10
116.550807
20
48.647821
11
116.537994
21
48.627529
0
LINE
8
0
10
116.537994
20
48.627529
11
116.523036
21
48.610427
0
LINE
8
0
10
116.523036
20
48.610427
11
116.492054
21
48.584236
0
LINE
8
0
10
116.492054
20
48.584236
11
116.461605
21
48.565017
0
LINE
8
0
10
116.461605
20
48.565017
11
116.431690
21
48.553813
0
LINE
8
0
10
116.431690
20
48.553813
11
116.402310
21
48.550059
0
LINE
8
0
10
116.402000
20
48.550100
11
116.361400
21
48.553854
0
LINE
8
0
10
116.361400
20
48.553854
11
116.325075
21
48.565058
0
LINE
8
0
10
116.325075
20
48.565058
11
116.293559
21
48.583233
0
LINE
8
0
10
116.293559
20
48.583233
11
116.266325
21
48.609395
0
LINE
8
0
10
116.266325
20
48.609395
11
116.243352
21
48.642516
0
LINE
8
0
10
116.243352
20
48.642516
11
116.225177
21
48.683647
0
LINE
8
0
10
116.225177
20
48.683647
11
116.211291
21
48.731724
0
LINE
8
0
10
116.211291
20
48.731724
11
116.202204
21
48.787279
0
LINE
8
0
10
116.202000
20
48.787300
11
116.196130
21
48.827900
0
LINE
8
0
10
116.196130
20
48.827900
11
116.188651
21
48.863156
0
LINE
8
0
10
116.188651
20
48.863156
11
116.180100
21
48.892535
0
LINE
8
0
10
116.180100
20
48.892535
11
116.169940
21
48.917116
0
LINE
8
0
10
116.169940
20
48.917116
11
116.158199
21
48.935800
0
LINE
8
0
10
116.158199
20
48.935800
11
116.145386
21
48.949685
0
LINE
8
0
10
116.145386
20
48.949685
11
116.130965
21
48.957700
0
LINE
8
0
10
116.130965
20
48.957700
11
116.115471
21
48.960240
0
LINE
8
0
10
116.116000
20
48.960400
11
116.080209
21
48.953994
0
LINE
8
0
10
116.080209
20
48.953994
11
116.041747
21
48.935847
0
LINE
8
0
10
116.041747
20
48.935847
11
116.000616
21
48.904864
0
LINE
8
0
10
116.000616
20
48.904864
11
115.956277
21
48.861061
0
LINE
8
0
10
115.956277
20
48.861061
11
115.909803
21
48.805505
0
LINE
8
0
10
115.909803
20
48.805505
11
115.860124
21
48.737129
0
LINE
8
0
10
115.860124
20
48.737129
11
115.807238
21
48.656467
0
LINE
8
0
10
115.807238
20
48.656467
11
115.752219
21
48.563517
0
LINE
8
0
10
115.752219
20
48.563517
11
115.699333
21
48.465761
0
LINE
8
0
10
115.699333
20
48.465761
11
115.653393
21
48.371211
0
LINE
8
0
10
115.653393
20
48.371211
11
115.614398
21
48.279864
0
LINE
8
0
10
115.614398
20
48.279864
11
115.582880
21
48.191190
0
LINE
8
0
10
115.582880
20
48.191190
11
115.557762
21
48.106252
0
LINE
8
0
10
115.557762
20
48.106252
11
115.540123
21
48.023987
0
LINE
8
0
10
115.540123
20
48.023987
11
115.529963
21
47.944395
0
LINE
8
0
10
115.529963
20
47.944395
11
115.526238
21
47.868540
0
LINE
8
0
10
115.526000
20
47.868500
11
115.530262
21
47.811875
0
LINE
8
0
10
115.530262
20
47.811875
11
115.542538
21
47.762732
0
LINE
8
0
10
115.542538
20
47.762732
11
115.562830
21
47.721598
0
LINE
8
0
10
115.562830
20
47.721598
11
115.591676
21
47.687409
0
LINE
8
0
10
115.591676
20
47.687409
11
115.628001
21
47.661247
0
LINE
8
0
10
115.628001
20
47.661247
11
115.673407
21
47.642028
0
LINE
8
0
10
115.673407
20
47.642028
11
115.726290
21
47.630824
0
LINE
8
0
10
115.726290
20
47.630824
11
115.787722
21
47.627070
0
LINE
8
0
10
115.788000
20
47.627000
11
115.860116
21
47.630217
0
LINE
8
0
10
115.860116
20
47.630217
11
115.932766
21
47.639841
0
LINE
8
0
10
115.932766
20
47.639841
11
116.005415
21
47.656408
0
LINE
8
0
10
116.005415
20
47.656408
11
116.078598
21
47.678844
0
LINE
8
0
10
116.078598
20
47.678844
11
116.151248
21
47.708223
0
LINE
8
0
10
116.151248
20
47.708223
11
116.224434
21
47.744015
0
LINE
8
0
10
116.224434
20
47.744015
11
116.297617
21
47.786216
0
LINE
8
0
10
116.297617
20
47.786216
11
116.371333
21
47.834825
0
LINE
8
0
10
116.371000
20
47.834800
11
116.436171
21
47.878604
0
LINE
8
0
10
116.436171
20
47.878604
11
116.494399
21
47.909586
0
LINE
8
0
10
116.494399
20
47.909586
11
116.545681
21
47.928297
0
LINE
8
0
10
116.545681
20
47.928297
11
116.589485
21
47.934704
0
LINE
8
0
10
116.590000
20
47.934700
11
116.612973
21
47.933007
0
LINE
8
0
10
116.612973
20
47.933007
11
116.633265
21
47.928209
0
LINE
8
0
10
116.633265
20
47.928209
11
116.650367
21
47.920730
0
LINE
8
0
10
116.650367
20
47.920730
11
116.664253
21
47.910034
0
LINE
8
0
10
116.664253
20
47.910034
11
116.674949
21
47.895612
0
LINE
8
0
10
116.674949
20
47.895612
11
116.682428
21
47.878510
0
LINE
8
0
10
116.682428
20
47.878510
11
116.687226
21
47.858754
0
LINE
8
0
10
116.687226
20
47.858754
11
116.688919
21
47.835245
0
LINE
8
0
10
116.689000
20
47.835400
11
116.684202
21
47.799609
0
LINE
8
0
10
116.684202
20
47.799609
11
116.668708
21
47.760614
0
LINE
8
0
10
116.668708
20
47.760614
11
116.643590
21
47.719480
0
LINE
8
0
10
116.643590
20
47.719480
11
116.608869
21
47.675676
0
LINE
8
0
10
116.608869
20
47.675676
11
116.563465
21
47.629203
0
LINE
8
0
10
116.563465
20
47.629203
11
116.508443
21
47.580057
0
LINE
8
0
10
116.508443
20
47.580057
11
116.443272
21
47.528241
0
LINE
8
0
10
116.443272
20
47.528241
11
116.367950
21
47.473755
0
LINE
8
0
10
116.367950
20
47.473755
11
116.287288
21
47.421403
0
LINE
8
0
10
116.287288
20
47.421403
11
116.205559
21
47.376532
0
LINE
8
0
10
116.205559
20
47.376532
11
116.123294
21
47.338071
0
LINE
8
0
10
116.123294
20
47.338071
11
116.039426
21
47.306552
0
LINE
8
0
10
116.039426
20
47.306552
11
115.955025
21
47.282507
0
LINE
8
0
10
115.955025
20
47.282507
11
115.869021
21
47.264868
0
LINE
8
0
10
115.869021
20
47.264868
11
115.782480
21
47.254708
0
LINE
8
0
10
115.782480
20
47.254708
11
115.694876
21
47.250983
0
LINE
8
0
10
115.082000
20
47.862600
11
115.087870
21
47.976917
0
LINE
8
0
10
115.087870
20
47.976917
11
115.104973
21
48.093904
0
LINE
8
0
10
115.104973
20
48.093904
11
115.133819
21
48.213027
0
LINE
8
0
10
115.133819
20
48.213027
11
115.174419
21
48.334823
0
LINE
8
0
10
115.174419
20
48.334823
11
115.226235
21
48.458219
0
LINE
8
0
10
115.226235
20
48.458219
11
115.289270
21
48.584288
0
LINE
8
0
10
115.289270
20
48.584288
11
115.364056
21
48.712493
0
LINE
8
0
10
115.364056
20
48.712493
11
115.450593
21
48.843371
0
LINE
8
0
10
115.450593
20
48.843371
11
115.542474
21
48.966767
0
LINE
8
0
10
115.542474
20
48.966767
11
115.634354
21
49.074138
0
LINE
8
0
10
115.634354
20
49.074138
11
115.725167
21
49.164415
0
LINE
8
0
10
115.725167
20
49.164415
11
115.815978
21
49.238668
0
LINE
8
0
10
115.815978
20
49.238668
11
115.906255
21
49.296360
0
LINE
8
0
10
115.906255
20
49.296360
11
115.995999
21
49.337494
0
LINE
8
0
10
115.995999
20
49.337494
11
116.085743
21
49.362611
0
LINE
8
0
10
116.085743
20
49.362611
11
116.174417
21
49.370626
0
LINE
8
0
10
109.206000
20
-78.246400
11
109.600000
21
-78.246400
0
LINE
8
0
10
109.206000
20
-77.713000
11
109.206000
21
-78.246400
0
LINE
8
0
10
109.600000
20
-78.246400
11
109.600000
21
-77.713000
0
LINE
8
0
10
109.600000
20
-77.713000
11
109.206000
21
-77.713000
0
LINE
8
0
10
109.206000
20
52.420200
11
109.600000
21
52.420200
0
LINE
8
0
10
109.206000
20
52.953600
11
109.206000
21
52.420200
0
LINE
8
0
10
109.600000
20
52.953600
11
109.206000
21
52.953600
0
LINE
8
0
10
109.600000
20
52.420200
11
109.600000
21
52.953600
0
LINE
8
0
10
113.867000
20
52.420200
11
119.659000
21
52.420200
0
LINE
8
0
10
113.867000
20
52.953600
11
113.867000
21
52.420200
0
LINE
8
0
10
119.659000
20
52.953600
11
113.867000
21
52.953600
0
LINE
8
0
10
119.659000
20
52.420200
11
119.659000
21
52.953600
0
LINE
8
0
10
113.867000
20
-78.246400
11
119.659000
21
-78.246400
0
LINE
8
0
10
113.867000
20
-77.713000
11
113.867000
21
-78.246400
0
LINE
8
0
10
119.659000
20
-77.713000
11
113.867000
21
-77.713000
0
LINE
8
0
10
119.659000
20
-78.246400
11
119.659000
21
-77.713000
0
LINE
8
0
10
117.987000
20
26.158600
11
117.704214
21
26.308460
0
LINE
8
0
10
112.653000
20
26.158600
11
112.769298
21
26.376933
0
LINE
8
0
10
112.769298
20
26.376933
11
112.910852
21
26.637424
0
LINE
8
0
10
112.910852
20
26.637424
11
113.038165
21
26.859499
0
LINE
8
0
10
113.038165
20
26.859499
11
113.178333
21
27.085734
0
LINE
8
0
10
113.178333
20
27.085734
11
113.488574
21
27.481799
0
LINE
8
0
10
113.488574
20
27.481799
11
113.844987
21
27.673566
0
LINE
8
0
10
113.844987
20
27.673566
11
114.201470
21
27.481706
0
LINE
8
0
10
114.201470
20
27.481706
11
114.512484
21
27.084185
0
LINE
8
0
10
114.512484
20
27.084185
11
114.782596
21
26.630920
0
LINE
8
0
10
114.782596
20
26.630920
11
115.036977
21
26.158613
0
LINE
8
0
10
115.036977
20
26.158613
11
115.294307
21
25.680876
0
LINE
8
0
10
115.294307
20
25.680876
11
115.576518
21
25.207587
0
LINE
8
0
10
115.576518
20
25.207587
11
115.930402
21
24.757703
0
LINE
8
0
10
115.930402
20
24.757703
11
116.176559
21
24.566656
0
LINE
8
0
10
116.176559
20
24.566656
11
116.511613
21
24.473613
0
LINE
8
0
10
116.511613
20
24.473613
11
116.846650
21
24.566633
0
LINE
8
0
10
116.846650
20
24.566633
11
117.092993
21
24.757726
0
LINE
8
0
10
117.092993
20
24.757726
11
117.447046
21
25.207704
0
LINE
8
0
10
117.447046
20
25.207704
11
117.593223
21
25.443605
0
LINE
8
0
10
117.593223
20
25.443605
11
117.725721
21
25.674688
0
LINE
8
0
10
117.725721
20
25.674688
11
117.869369
21
25.939026
0
LINE
8
0
10
117.869369
20
25.939026
11
117.986330
21
26.158603
0
LINE
8
0
10
117.704000
20
26.308500
11
117.587702
21
26.090170
0
LINE
8
0
10
117.587702
20
26.090170
11
117.446151
21
25.829679
0
LINE
8
0
10
117.446151
20
25.829679
11
117.318838
21
25.607601
0
LINE
8
0
10
117.318838
20
25.607601
11
117.178667
21
25.381366
0
LINE
8
0
10
117.178667
20
25.381366
11
116.868395
21
24.985248
0
LINE
8
0
10
116.868395
20
24.985248
11
116.512050
21
24.793543
0
LINE
8
0
10
116.512050
20
24.793543
11
116.155530
21
24.985395
0
LINE
8
0
10
116.155530
20
24.985395
11
115.844516
21
25.382919
0
LINE
8
0
10
115.844516
20
25.382919
11
115.574404
21
25.836182
0
LINE
8
0
10
115.574404
20
25.836182
11
115.320023
21
26.308492
0
LINE
8
0
10
115.320023
20
26.308492
11
115.062696
21
26.786226
0
LINE
8
0
10
115.062696
20
26.786226
11
114.780485
21
27.259518
0
LINE
8
0
10
114.780485
20
27.259518
11
114.426601
21
27.709397
0
LINE
8
0
10
114.426601
20
27.709397
11
114.180436
21
27.900456
0
LINE
8
0
10
114.180436
20
27.900456
11
113.845351
21
27.993496
0
LINE
8
0
10
113.845351
20
27.993496
11
113.510317
21
27.900431
0
LINE
8
0
10
113.510317
20
27.900431
11
113.263999
21
27.709344
0
LINE
8
0
10
113.263999
20
27.709344
11
112.909954
21
27.259400
0
LINE
8
0
10
112.909954
20
27.259400
11
112.763777
21
27.023502
0
LINE
8
0
10
112.763777
20
27.023502
11
112.631279
21
26.792416
0
LINE
8
0
10
112.631279
20
26.792416
11
112.487631
21
26.528081
0
LINE
8
0
10
112.487631
20
26.528081
11
112.370670
21
26.308501
0
LINE
8
0
10
112.371000
20
26.308400
11
112.653786
21
26.158540
0
LINE
8
0
10
115.275000
20
-14.246400
11
115.145841
21
-14.005309
0
LINE
8
0
10
115.145841
20
-14.005309
11
115.009291
21
-13.757860
0
LINE
8
0
10
115.009291
20
-13.757860
11
114.881320
21
-13.540834
0
LINE
8
0
10
114.881320
20
-13.540834
11
114.729205
21
-13.302557
0
LINE
8
0
10
114.729205
20
-13.302557
11
114.369200
21
-12.876740
0
LINE
8
0
10
114.369200
20
-12.876740
11
114.109674
21
-12.704133
0
LINE
8
0
10
114.109674
20
-12.704133
11
113.768905
21
-12.651211
0
LINE
8
0
10
113.768905
20
-12.651211
11
113.458915
21
-12.770786
0
LINE
8
0
10
113.458915
20
-12.770786
11
113.230877
21
-12.964526
0
LINE
8
0
10
113.230877
20
-12.964526
11
112.895775
21
-13.401956
0
LINE
8
0
10
112.895775
20
-13.401956
11
112.751294
21
-13.638054
0
LINE
8
0
10
112.751294
20
-13.638054
11
112.625533
21
-13.857987
0
LINE
8
0
10
112.625533
20
-13.857987
11
112.484885
21
-14.117168
0
LINE
8
0
10
112.484885
20
-14.117168
11
112.370788
21
-14.331417
0
LINE
8
0
10
117.845000
20
-14.246300
11
115.275000
21
-14.246300
0
LINE
8
0
10
115.083000
20
-14.566400
11
117.845000
21
-14.566400
0
LINE
8
0
10
112.371000
20
-14.331600
11
112.653786
21
-14.481460
0
LINE
8
0
10
117.845000
20
-14.566400
11
117.845000
21
-14.246300
0
LINE
8
0
10
112.653000
20
-14.481400
11
112.773760
21
-14.254728
0
LINE
8
0
10
112.773760
20
-14.254728
11
112.919175
21
-13.987489
0
LINE
8
0
10
112.919175
20
-13.987489
11
113.046787
21
-13.766456
0
LINE
8
0
10
113.046787
20
-13.766456
11
113.194928
21
-13.528371
0
LINE
8
0
10
113.194928
20
-13.528371
11
113.347311
21
-13.317608
0
LINE
8
0
10
113.347311
20
-13.317608
11
113.516526
21
-13.131316
0
LINE
8
0
10
113.516526
20
-13.131316
11
113.882297
21
-12.968813
0
LINE
8
0
10
113.882297
20
-12.968813
11
114.245932
21
-13.203833
0
LINE
8
0
10
114.245932
20
-13.203833
11
114.558874
21
-13.628329
0
LINE
8
0
10
114.558874
20
-13.628329
11
114.830261
21
-14.095581
0
LINE
8
0
10
114.830261
20
-14.095581
11
114.971471
21
-14.358101
0
LINE
8
0
10
114.971471
20
-14.358101
11
115.082085
21
-14.566418
0
LINE
8
0
10
117.704000
20
-41.574700
11
117.986786
21
-41.424840
0
LINE
8
0
10
115.275000
20
-41.659700
11
115.385690
21
-41.451242
0
LINE
8
0
10
115.385690
20
-41.451242
11
115.527269
21
-41.188025
0
LINE
8
0
10
115.527269
20
-41.188025
11
115.799684
21
-40.718865
0
LINE
8
0
10
115.799684
20
-40.718865
11
116.110393
21
-40.298552
0
LINE
8
0
10
116.110393
20
-40.298552
11
116.474821
21
-40.062092
0
LINE
8
0
10
116.474821
20
-40.062092
11
116.841453
21
-40.225710
0
LINE
8
0
10
116.841453
20
-40.225710
11
117.011241
21
-40.413740
0
LINE
8
0
10
117.011241
20
-40.413740
11
117.162083
21
-40.621718
0
LINE
8
0
10
117.162083
20
-40.621718
11
117.309863
21
-40.858903
0
LINE
8
0
10
117.309863
20
-40.858903
11
117.437986
21
-41.080913
0
LINE
8
0
10
117.437986
20
-41.080913
11
117.583598
21
-41.348524
0
LINE
8
0
10
117.583598
20
-41.348524
11
117.704084
21
-41.574683
0
LINE
8
0
10
112.512000
20
-41.659700
11
115.275000
21
-41.659700
0
LINE
8
0
10
117.987000
20
-41.424800
11
117.873143
21
-41.211003
0
LINE
8
0
10
117.873143
20
-41.211003
11
117.732486
21
-40.951802
0
LINE
8
0
10
117.732486
20
-40.951802
11
117.605692
21
-40.729930
0
LINE
8
0
10
117.605692
20
-40.729930
11
117.463579
21
-40.498260
0
LINE
8
0
10
117.463579
20
-40.498260
11
117.125728
21
-40.056139
0
LINE
8
0
10
117.125728
20
-40.056139
11
116.898387
21
-39.863596
0
LINE
8
0
10
116.898387
20
-39.863596
11
116.588809
21
-39.744586
0
LINE
8
0
10
116.588809
20
-39.744586
11
116.248415
21
-39.797280
0
LINE
8
0
10
116.248415
20
-39.797280
11
115.988838
21
-39.969486
0
LINE
8
0
10
115.988838
20
-39.969486
11
115.627817
21
-40.397730
0
LINE
8
0
10
115.627817
20
-40.397730
11
115.476577
21
-40.633972
0
LINE
8
0
10
115.476577
20
-40.633972
11
115.348104
21
-40.851980
0
LINE
8
0
10
115.348104
20
-40.851980
11
115.082787
21
-41.339784
0
LINE
8
0
10
112.512000
20
-41.339600
11
112.512000
21
-41.659700
0
LINE
8
0
10
115.083000
20
-41.339600
11
112.512000
21
-41.339600
0
LINE
8
0
10
112.653000
20
-68.668000
11
112.781710
21
-68.426514
0
LINE
8
0
10
112.781710
20
-68.426514
11
112.933912
21
-68.147704
0
LINE
8
0
10
112.933912
20
-68.147704
11
113.070067
21
-67.914281
0
LINE
8
0
10
113.070067
20
-67.914281
11
113.225396
21
-67.670529
0
LINE
8
0
10
113.225396
20
-67.670529
11
113.576410
21
-67.266356
0
LINE
8
0
10
113.576410
20
-67.266356
11
113.963142
21
-67.176494
0
LINE
8
0
10
113.963142
20
-67.176494
11
114.339485
21
-67.501154
0
LINE
8
0
10
114.339485
20
-67.501154
11
114.499166
21
-67.721403
0
LINE
8
0
10
114.499166
20
-67.721403
11
114.653764
21
-67.970650
0
LINE
8
0
10
114.653764
20
-67.970650
11
114.790083
21
-68.208885
0
LINE
8
0
10
114.790083
20
-68.208885
11
114.943166
21
-68.491657
0
LINE
8
0
10
114.943166
20
-68.491657
11
115.178325
21
-68.934421
0
LINE
8
0
10
112.653000
20
-68.668000
11
112.370214
21
-68.518140
0
LINE
8
0
10
115.179000
20
-68.253100
11
115.045388
21
-68.008295
0
LINE
8
0
10
115.045388
20
-68.008295
11
114.925621
21
-67.800673
0
LINE
8
0
10
114.925621
20
-67.800673
11
114.640077
21
-67.365930
0
LINE
8
0
10
114.640077
20
-67.365930
11
114.254785
21
-66.972349
0
LINE
8
0
10
114.254785
20
-66.972349
11
113.969137
21
-66.845589
0
LINE
8
0
10
113.969137
20
-66.845589
11
113.639267
21
-66.868167
0
LINE
8
0
10
113.639267
20
-66.868167
11
113.375516
21
-67.017860
0
LINE
8
0
10
113.375516
20
-67.017860
11
113.175878
21
-67.211340
0
LINE
8
0
10
113.175878
20
-67.211340
11
112.866165
21
-67.635813
0
LINE
8
0
10
112.866165
20
-67.635813
11
112.733413
21
-67.855410
0
LINE
8
0
10
112.733413
20
-67.855410
11
112.612673
21
-68.068355
0
LINE
8
0
10
112.612673
20
-68.068355
11
112.478714
21
-68.315756
0
LINE
8
0
10
112.478714
20
-68.315756
11
112.370996
21
-68.518098
0
LINE
8
0
10
117.987000
20
-68.518100
11
117.879479
21
-68.316131
0
LINE
8
0
10
117.879479
20
-68.316131
11
117.745607
21
-68.068888
0
LINE
8
0
10
117.745607
20
-68.068888
11
117.493089
21
-67.638237
0
LINE
8
0
10
117.493089
20
-67.638237
11
117.182253
21
-67.211176
0
LINE
8
0
10
117.182253
20
-67.211176
11
116.983219
21
-67.018639
0
LINE
8
0
10
116.983219
20
-67.018639
11
116.718577
21
-66.868105
0
LINE
8
0
10
116.718577
20
-66.868105
11
116.388259
21
-66.845725
0
LINE
8
0
10
116.388259
20
-66.845725
11
116.102828
21
-66.972863
0
LINE
8
0
10
116.102828
20
-66.972863
11
115.717217
21
-67.366534
0
LINE
8
0
10
115.717217
20
-67.366534
11
115.571139
21
-67.575426
0
LINE
8
0
10
115.571139
20
-67.575426
11
115.431408
21
-67.802426
0
LINE
8
0
10
115.431408
20
-67.802426
11
115.312355
21
-68.008747
0
LINE
8
0
10
115.312355
20
-68.008747
11
115.178994
21
-68.253098
0
LINE
8
0
10
117.987000
20
-68.518200
11
117.704214
21
-68.668060
0
LINE
8
0
10
115.179000
20
-68.934500
11
115.292019
21
-68.721476
0
LINE
8
0
10
115.292019
20
-68.721476
11
115.349440
21
-68.613266
0
LINE
8
0
10
115.349440
20
-68.613266
11
115.415406
21
-68.489481
0
LINE
8
0
10
115.415406
20
-68.489481
11
115.567493
21
-68.208487
0
LINE
8
0
10
115.567493
20
-68.208487
11
115.702937
21
-67.971909
0
LINE
8
0
10
115.702937
20
-67.971909
11
115.858379
21
-67.720889
0
LINE
8
0
10
115.858379
20
-67.720889
11
116.019110
21
-67.498653
0
LINE
8
0
10
116.019110
20
-67.498653
11
116.393819
21
-67.176666
0
LINE
8
0
10
116.393819
20
-67.176666
11
116.780215
21
-67.266037
0
LINE
8
0
10
116.780215
20
-67.266037
11
116.964599
21
-67.449100
0
LINE
8
0
10
116.964599
20
-67.449100
11
117.129419
21
-67.666227
0
LINE
8
0
10
117.129419
20
-67.666227
11
117.287333
21
-67.914484
0
LINE
8
0
10
117.287333
20
-67.914484
11
117.423313
21
-68.147605
0
LINE
8
0
10
117.423313
20
-68.147605
11
117.575916
21
-68.427163
0
LINE
8
0
10
117.575916
20
-68.427163
11
117.704321
21
-68.668079
0
LINE
8
0
10
113.440000
20
-77.979700
11
113.212730
21
-77.124620
0
LINE
8
0
10
113.212730
20
-77.124620
11
112.587862
21
-76.498238
0
LINE
8
0
10
112.587862
20
-76.498238
11
111.733335
21
-76.268899
0
LINE
8
0
10
111.733335
20
-76.268899
11
110.878808
21
-76.498238
0
LINE
8
0
10
110.878808
20
-76.498238
11
110.253940
21
-77.124620
0
LINE
8
0
10
110.253940
20
-77.124620
11
110.026670
21
-77.979700
0
LINE
8
0
10
110.026670
20
-77.979700
11
110.253940
21
-78.834780
0
LINE
8
0
10
110.253940
20
-78.834780
11
110.878808
21
-79.461162
0
LINE
8
0
10
110.878808
20
-79.461162
11
111.733335
21
-79.690501
0
LINE
8
0
10
111.733335
20
-79.690501
11
112.587862
21
-79.461162
0
LINE
8
0
10
112.587862
20
-79.461162
11
113.212730
21
-78.834780
0
LINE
8
0
10
113.212730
20
-78.834780
11
113.440000
21
-77.979700
0
LINE
8
0
10
113.440000
20
-77.979700
11
113.440000
21
-77.979700
 0 
ENDSEC
 0 
EOF