  0
SECTION
  2
HEADER
  9
$ACADVER
  1
AC1014
  9
$ACADMAINTVER
 70
     9
  9
$DWGCODEPAGE
  3
ANSI_1252
  9
$INSBASE
 10
0.0
 20
0.0
 30
0.0
  9
$EXTMIN
 10
0.0
 20
0.0
 30
0.0
  9
$EXTMAX
 10
1189.0
 20
841.0
 30
0.0
  9
$LIMMIN
 10
0.0
 20
0.0
  9
$LIMMAX
 10
1189.0
 20
841.0
  9
$ORTHOMODE
 70
     0
  9
$REGENMODE
 70
     1
  9
$FILLMODE
 70
     1
  9
$QTEXTMODE
 70
     0
  9
$MIRRTEXT
 70
     1
  9
$DRAGMODE
 70
     2
  9
$LTSCALE
 40
1.0
  9
$OSMODE
 70
    37
  9
$ATTMODE
 70
     1
  9
$TEXTSIZE
 40
3.5
  9
$TRACEWID
 40
1.0
  9
$TEXTSTYLE
  7
STANDARD
  9
$CLAYER
  8
0
  9
$CELTYPE
  6
BYLAYER
  9
$CECOLOR
 62
   256
  9
$CELTSCALE
 40
1.0
  9
$DELOBJ
 70
     1
  9
$DISPSILH
 70
     0
  9
$DIMSCALE
 40
1.0
  9
$DIMASZ
 40
3.302
  9
$DIMEXO
 40
1.0
  9
$DIMDLI
 40
3.75
  9
$DIMRND
 40
0.0
  9
$DIMDLE
 40
0.0
  9
$DIMEXE
 40
1.0
  9
$DIMTP
 40
0.0
  9
$DIMTM
 40
0.0
  9
$DIMTXT
 40
3.5
  9
$DIMCEN
 40
2.5
  9
$DIMTSZ
 40
0.0
  9
$DIMTOL
 70
     0
  9
$DIMLIM
 70
     0
  9
$DIMTIH
 70
     1
  9
$DIMTOH
 70
     1
  9
$DIMSE1
 70
     0
  9
$DIMSE2
 70
     0
  9
$DIMTAD
 70
     1
  9
$DIMZIN
 70
     1
  9
$DIMBLK
  1

  9
$DIMASO
 70
     1
  9
$DIMSHO
 70
     1
  9
$DIMPOST
  1

  9
$DIMAPOST
  1

  9
$DIMALT
 70
     0
  9
$DIMALTD
 70
     3
  9
$DIMALTF
 40
0.0393700787
  9
$DIMLFAC
 40
0.5
  9
$DIMTOFL
 70
     1
  9
$DIMTVP
 40
0.0
  9
$DIMTIX
 70
     0
  9
$DIMSOXD
 70
     0
  9
$DIMSAH
 70
     0
  9
$DIMBLK1
  1

  9
$DIMBLK2
  1

  9
$DIMSTYLE
  2
ISO-25
  9
$DIMCLRD
 70
     0
  9
$DIMCLRE
 70
     0
  9
$DIMCLRT
 70
     0
  9
$DIMTFAC
 40
1.0
  9
$DIMGAP
 40
1.524
  9
$DIMJUST
 70
     0
  9
$DIMSD1
 70
     0
  9
$DIMSD2
 70
     0
  9
$DIMTOLJ
 70
     0
  9
$DIMTZIN
 70
     1
  9
$DIMALTZ
 70
     0
  9
$DIMALTTZ
 70
     0
  9
$DIMFIT
 70
     3
  9
$DIMUPT
 70
     0
  9
$DIMUNIT
 70
     2
  9
$DIMDEC
 70
     2
  9
$DIMTDEC
 70
     2
  9
$DIMALTU
 70
     2
  9
$DIMALTTD
 70
     3
  9
$DIMTXSTY
  7
STANDARD
  9
$DIMAUNIT
 70
     0
  9
$LUNITS
 70
     2
  9
$LUPREC
 70
     2
  9
$SKETCHINC
 40
1.0
  9
$FILLETRAD
 40
10.0
  9
$AUNITS
 70
     0
  9
$AUPREC
 70
     2
  9
$MENU
  1
.
  9
$ELEVATION
 40
0.0
  9
$PELEVATION
 40
0.0
  9
$THICKNESS
 40
0.0
  9
$LIMCHECK
 70
     0
  9
$CHAMFERA
 40
0.0
  9
$CHAMFERB
 40
0.0
  9
$CHAMFERC
 40
0.0
  9
$CHAMFERD
 40
0.0
  9
$SKPOLY
 70
     0
  9
$TDCREATE
 40
2460008.39290853
  9
$TDUPDATE
 40
2460008.392908924
  9
$TDINDWG
 40
0.0000000116
  9
$TDUSRTIMER
 40
0.0000000116
  9
$USRTIMER
 70
     1
  9
$ANGBASE
 50
0.0
  9
$ANGDIR
 70
     0
  9
$PDMODE
 70
     0
  9
$PDSIZE
 40
-1.0
  9
$PLINEWID
 40
0.0
  9
$COORDS
 70
     1
  9
$SPLFRAME
 70
     0
  9
$SPLINETYPE
 70
     6
  9
$SPLINESEGS
 70
     8
  9
$ATTDIA
 70
     0
  9
$ATTREQ
 70
     1
  9
$HANDLING
 70
     1
  9
$HANDSEED
  5
F8
  9
$SURFTAB1
 70
     6
  9
$SURFTAB2
 70
     6
  9
$SURFTYPE
 70
     6
  9
$SURFU
 70
     6
  9
$SURFV
 70
     6
  9
$UCSNAME
  2

  9
$UCSORG
 10
0.0
 20
0.0
 30
0.0
  9
$UCSXDIR
 10
1.0
 20
0.0
 30
0.0
  9
$UCSYDIR
 10
0.0
 20
1.0
 30
0.0
  9
$PUCSNAME
  2

  9
$PUCSORG
 10
0.0
 20
0.0
 30
0.0
  9
$PUCSXDIR
 10
1.0
 20
0.0
 30
0.0
  9
$PUCSYDIR
 10
0.0
 20
1.0
 30
0.0
  9
$USERI1
 70
     0
  9
$USERI2
 70
     0
  9
$USERI3
 70
     0
  9
$USERI4
 70
     0
  9
$USERI5
 70
     0
  9
$USERR1
 40
0.0
  9
$USERR2
 40
0.0
  9
$USERR3
 40
0.0
  9
$USERR4
 40
0.0
  9
$USERR5
 40
0.0
  9
$WORLDVIEW
 70
     1
  9
$SHADEDGE
 70
     3
  9
$SHADEDIF
 70
    70
  9
$TILEMODE
 70
     1
  9
$MAXACTVP
 70
    64
  9
$PINSBASE
 10
0.0
 20
0.0
 30
0.0
  9
$PLIMCHECK
 70
     0
  9
$PEXTMIN
 10
1.0000000000E+20
 20
1.0000000000E+20
 30
1.0000000000E+20
  9
$PEXTMAX
 10
-1.0000000000E+20
 20
-1.0000000000E+20
 30
-1.0000000000E+20
  9
$PLIMMIN
 10
0.0
 20
0.0
  9
$PLIMMAX
 10
420.0
 20
297.0
  9
$UNITMODE
 70
     0
  9
$VISRETAIN
 70
     1
  9
$PLINEGEN
 70
     0
  9
$PSLTSCALE
 70
     1
  9
$TREEDEPTH
 70
  3020
  9
$PICKSTYLE
 70
     1
  9
$CMLSTYLE
  2
STANDARD
  9
$CMLJUST
 70
     0
  9
$CMLSCALE
 40
20.0
  9
$PROXYGRAPHICS
 70
     1
  9
$MEASUREMENT
 70
     1
  0
ENDSEC
  0
SECTION
  2
CLASSES
  0
CLASS
  1
ACDBDICTIONARYWDFLT
  2
AcDbDictionaryWithDefault
  3
ObjectDBX Classes
 90
        0
280
     0
281
     0
  0
CLASS
  1
VISUALSTYLE
  2
AcDbVisualStyle
  3
ObjectDBX Classes
 90
     4095
280
     0
281
     0
  0
CLASS
  1
MATERIAL
  2
AcDbMaterial
  3
ObjectDBX Classes
 90
     1153
280
     0
281
     0
  0
CLASS
  1
SCALE
  2
AcDbScale
  3
ObjectDBX Classes
 90
     1153
280
     0
281
     0
  0
CLASS
  1
TABLESTYLE
  2
AcDbTableStyle
  3
ObjectDBX Classes
 90
     4095
280
     0
281
     0
  0
CLASS
  1
MLEADERSTYLE
  2
AcDbMLeaderStyle
  3
ACDB_MLEADERSTYLE_CLASS
 90
     4095
280
     0
281
     0
  0
CLASS
  1
SUN
  2
AcDbSun
  3
SCENEOE
 90
     1153
280
     0
281
     0
  0
CLASS
  1
XRECORD
  2
AcDbXrecord
  3
ObjectDBX Classes
 90
        0
280
     0
281
     0
  0
CLASS
  1
LWPOLYLINE
  2
AcDbPolyline
  3
ObjectDBX Classes
 90
        0
280
     0
281
     1
  0
CLASS
  1
HATCH
  2
AcDbHatch
  3
ObjectDBX Classes
 90
        0
280
     0
281
     1
  0
ENDSEC
  0
SECTION
  2
TABLES
  0
TABLE
  2
VPORT
  5
8
330
0
100
AcDbSymbolTable
 70
     1
  0
VPORT
  5
29
330
8
100
AcDbSymbolTableRecord
100
AcDbViewportTableRecord
  2
*ACTIVE
 70
     0
 10
0.0
 20
0.0
 11
1.0
 21
1.0
 12
594.5
 22
420.5
 13
0.0
 23
0.0
 14
10.0
 24
10.0
 15
10.0
 25
10.0
 16
0.0
 26
0.0
 36
1.0
 17
0.0
 27
0.0
 37
0.0
 40
841.0
 41
1.4137931034
 42
50.0
 43
0.0
 44
0.0
 50
0.0
 51
0.0
 71
     0
 72
  2000
 73
     1
 74
     3
 75
     0
 76
     0
 77
     0
 78
     0
  0
ENDTAB
  0
TABLE
  2
LTYPE
  5
5
330
0
100
AcDbSymbolTable
 70
     6
  0
LTYPE
  5
14
330
5
100
AcDbSymbolTableRecord
100
AcDbLinetypeTableRecord
  2
BYBLOCK
 70
     0
  3

 72
    65
 73
     0
 40
0.0
  0
LTYPE
  5
15
330
5
100
AcDbSymbolTableRecord
100
AcDbLinetypeTableRecord
  2
BYLAYER
 70
     0
  3

 72
    65
 73
     0
 40
0.0
  0
LTYPE
  5
16
330
5
100
AcDbSymbolTableRecord
100
AcDbLinetypeTableRecord
  2
CONTINUOUS
 70
     0
  3
Solid line
 72
    65
 73
     0
 40
0.0
  0
LTYPE
  5
6E
330
5
100
AcDbSymbolTableRecord
100
AcDbLinetypeTableRecord
  2
HIDDEN
 70
     0
  3
Hidden __ __ __ __ __ __ __ __ __ __ __ __ __ __
 72
    65
 73
     2
 40
1.905
 49
1.27
 74
     0
 49
-0.635
 74
     0
  0
LTYPE
  5
6F
330
5
100
AcDbSymbolTableRecord
100
AcDbLinetypeTableRecord
  2
PHANTOM
 70
     0
  3
Phantom ______  __  __  ______  __  __  ______
 72
    65
 73
     6
 40
12.7
 49
6.35
 74
     0
 49
-1.27
 74
     0
 49
1.27
 74
     0
 49
-1.27
 74
     0
 49
1.27
 74
     0
 49
-1.27
 74
     0
  0
LTYPE
  5
70
330
5
100
AcDbSymbolTableRecord
100
AcDbLinetypeTableRecord
  2
CENTER
 70
     0
  3
Center ____ _ ____ _ ____ _ ____ _ ____ _ ____
 72
    65
 73
     4
 40
10.16
 49
6.35
 74
     0
 49
-1.27
 74
     0
 49
1.27
 74
     0
 49
-1.27
 74
     0
  0
LTYPE
  5
71
330
5
100
AcDbSymbolTableRecord
100
AcDbLinetypeTableRecord
  2
CENTERX2
 70
     0
  3
Center (2x) ________  __  ________  __  _____
 72
    65
 73
     4
 40
20.32
 49
12.7
 74
     0
 49
-2.54
 74
     0
 49
2.54
 74
     0
 49
-2.54
 74
     0
  0
LTYPE
  5
72
330
5
100
AcDbSymbolTableRecord
100
AcDbLinetypeTableRecord
  2
DOT2
 70
     0
  3
Dot (.5x) ........................................
 72
    65
 73
     2
 40
0.635
 49
0.0
 74
     0
 49
-0.635
 74
     0
  0
ENDTAB
  0
TABLE
  2
LAYER
  5
2
330
0
100
AcDbSymbolTable
 70
     1
  0
LAYER
  5
10
330
2
100
AcDbSymbolTableRecord
100
AcDbLayerTableRecord
  2
0
 70
     0
 62
     7
  6
CONTINUOUS
  0
ENDTAB
  0
TABLE
  2
STYLE
  5
3
330
0
100
AcDbSymbolTable
 70
     1
  0
STYLE
  5
11
330
3
100
AcDbSymbolTableRecord
100
AcDbTextStyleTableRecord
  2
STANDARD
 70
     0
 40
0.0
 41
1.0
 50
0.0
 71
     0
 42
3.5
  3
txt
  4

  0
ENDTAB
  0
TABLE
  2
VIEW
  5
6
330
0
100
AcDbSymbolTable
 70
     0
  0
ENDTAB
  0
TABLE
  2
UCS
  5
7
330
0
100
AcDbSymbolTable
 70
     0
  0
ENDTAB
  0
TABLE
  2
APPID
  5
9
330
0
100
AcDbSymbolTable
 70
     1
  0
APPID
  5
12
330
9
100
AcDbSymbolTableRecord
100
AcDbRegAppTableRecord
  2
ACAD
 70
     0
  0
ENDTAB
  0
TABLE
  2
DIMSTYLE
  5
A
330
0
100
AcDbSymbolTable
 70
     1
  0
DIMSTYLE
105
27
330
A
100
AcDbSymbolTableRecord
100
AcDbDimStyleTableRecord
  2
ISO-25
 70
     0
  3

  4

  5

  6

  7

 40
1.0
 41
2.5
 42
0.625
 43
3.75
 44
1.25
 45
0.0
 46
0.0
 47
0.0
 48
0.0
140
2.5
141
2.5
142
0.0
143
0.0393700787
144
1.0
145
0.0
146
1.0
147
0.625
 71
     0
 72
     0
 73
     0
 74
     0
 75
     0
 76
     0
 77
     1
 78
     8
170
     0
171
     3
172
     1
173
     0
174
     0
175
     0
176
     0
177
     0
178
     0
270
     2
271
     2
272
     2
273
     2
274
     3
340
11
275
     0
280
     0
281
     0
282
     0
283
     0
284
     8
285
     0
286
     0
287
     3
288
     0
  0
ENDTAB
  0
TABLE
  2
BLOCK_RECORD
  5
1
330
0
100
AcDbSymbolTable
 70
     1
  0
BLOCK_RECORD
  5
1F
330
1
100
AcDbSymbolTableRecord
100
AcDbBlockTableRecord
  2
*MODEL_SPACE
  0
BLOCK_RECORD
  5
1B
330
1
100
AcDbSymbolTableRecord
100
AcDbBlockTableRecord
  2
*PAPER_SPACE
  0
BLOCK_RECORD
  5
23
330
1
100
AcDbSymbolTableRecord
100
AcDbBlockTableRecord
  2
*PAPER_SPACE0
  0
ENDTAB
  0
ENDSEC
  0
SECTION
  2
BLOCKS
  0
BLOCK
  5
20
330
1F
100
AcDbEntity
  8
0
100
AcDbBlockBegin
  2
*MODEL_SPACE
 70
     0
 10
0.0
 20
0.0
 30
0.0
  3
*MODEL_SPACE
  1

  0
ENDBLK
  5
21
330
1F
100
AcDbEntity
  8
0
100
AcDbBlockEnd
  0
BLOCK
  5
1C
330
1B
100
AcDbEntity
 67
     1
  8
0
100
AcDbBlockBegin
  2
*PAPER_SPACE
 70
     0
 10
0.0
 20
0.0
 30
0.0
  3
*PAPER_SPACE
  1

  0
ENDBLK
  5
1D
330
1B
100
AcDbEntity
 67
     1
  8
0
100
AcDbBlockEnd
  0
BLOCK
  5
24
330
23
100
AcDbEntity
  8
0
100
AcDbBlockBegin
  2
*PAPER_SPACE0
 70
     0
 10
0.0
 20
0.0
 30
0.0
  3
*PAPER_SPACE0
  1

  0
ENDBLK
  5
25
330
23
100
AcDbEntity
  8
0
100
AcDbBlockEnd
  0
ENDSEC
  0
SECTION
  2
ENTITIES
  0
SPLINE
  5
73
330
1F
100
AcDbEntity
  8
0
  6
CONTINUOUS
 62
     7
100
AcDbSpline
210
0.0
220
0.0
230
1.0
 70
     8
 71
     3
 72
    15
 73
    11
 74
     0
 42
0.00000001
 43
0.00000001
 40
0.0
 40
0.0
 40
0.0
 40
0.0
 40
0.1476523341046355
 40
0.288828848219912
 40
0.425936117733308
 40
0.558840515330803
 40
0.6833702483567955
 40
0.7953790888838688
 40
0.89792604698993
 40
1.0
 40
1.0
 40
1.0
 40
1.0
 10
548.6559651898734
 20
565.8124327531646
 30
0.0
 10
548.6586730591279
 20
565.8278670807996
 30
0.0
 10
548.6639700343676
 20
565.858058808556
 30
0.0
 10
548.6789546107896
 20
565.900788039205
 30
0.0
 10
548.6968742568929
 20
565.940574898704
 30
0.0
 10
548.7193786695011
 20
565.9760129651486
 30
0.0
 10
548.7452078169237
 20
566.0056133617683
 30
0.0
 10
548.7733780805924
 20
566.0283895889324
 30
0.0
 10
548.8049156556867
 20
566.0415275691881
 30
0.0
 10
548.8266104373445
 20
566.0434009285843
 30
0.0
 10
548.8374327531646
 20
566.0443354430379
 30
0.0
  0
SPLINE
  5
74
330
1F
100
AcDbEntity
  8
0
  6
CONTINUOUS
 62
     7
100
AcDbSpline
210
0.0
220
0.0
230
1.0
 70
     8
 71
     3
 72
    15
 73
    11
 74
     0
 42
0.00000001
 43
0.00000001
 40
0.0
 40
0.0
 40
0.0
 40
0.0
 40
0.0818310738863349
 40
0.1661130105580833
 40
0.2584266015374016
 40
0.3659977524896486
 40
0.4918885916751189
 40
0.638969591254407
 40
0.8071391220529159
 40
0.9999999999999999
 40
0.9999999999999999
 40
0.9999999999999999
 40
0.9999999999999999
 10
548.8374327531646
 20
566.0443354430379
 30
0.0
 10
548.8486783547658
 20
566.0434578966789
 30
0.0
 10
548.871506366776
 20
566.0416765212102
 30
0.0
 10
548.903123807481
 20
566.0240838056073
 30
0.0
 10
548.9313711937108
 20
565.9972324987821
 30
0.0
 10
548.9565237349705
 20
565.9601974457752
 30
0.0
 10
548.9783536930491
 20
565.9129454974145
 30
0.0
 10
548.9978736734113
 20
565.8559213699917
 30
0.0
 10
549.0145409236356
 20
565.7885398447058
 30
0.0
 10
549.0228614055485
 20
565.7399769159615
 30
0.0
 10
549.0273061708862
 20
565.7140348101265
 30
0.0
  0
SPLINE
  5
75
330
1F
100
AcDbEntity
  8
0
  6
CONTINUOUS
 62
     7
100
AcDbSpline
210
0.0
220
0.0
230
1.0
 70
     8
 71
     3
 72
    23
 73
    19
 74
     0
 42
0.00000001
 43
0.00000001
 40
0.0
 40
0.0
 40
0.0
 40
0.0
 40
0.0251682954492742
 40
0.0554804954348278
 40
0.0904624534057288
 40
0.1306111983934268
 40
0.1754116229948989
 40
0.2252331016255983
 40
0.2802583311444301
 40
0.3400677609185581
 40
0.4050917441986491
 40
0.4749171186940569
 40
0.5500677240402112
 40
0.6299265046062876
 40
0.7150093117256258
 40
0.8049131137594506
 40
0.9000430628553815
 40
1.0
 40
1.0
 40
1.0
 40
1.0
 10
549.0273061708862
 20
565.7140348101265
 30
0.0
 10
549.0297856394659
 20
565.6993345940141
 30
0.0
 10
549.0352513312326
 20
565.6669297267653
 30
0.0
 10
549.0479108619628
 20
565.6148337538424
 30
0.0
 10
549.065077663332
 20
565.5547980059949
 30
0.0
 10
549.0857397134392
 20
565.4868445067817
 30
0.0
 10
549.1105203202035
 20
565.410972103557
 30
0.0
 10
549.1400416264005
 20
565.3274127170778
 30
0.0
 10
549.172798668224
 20
565.2355694128745
 30
0.0
 10
549.210876624616
 20
565.1360946279532
 30
0.0
 10
549.252020058061
 20
565.0284127154017
 30
0.0
 10
549.2983633515224
 20
564.9130077910278
 30
0.0
 10
549.3486106632151
 20
564.789710132082
 30
0.0
 10
549.4033162839222
 20
564.6584772797777
 30
0.0
 10
549.4612675196538
 20
564.519130721259
 30
0.0
 10
549.524543562171
 20
564.372218114828
 30
0.0
 10
549.5908620492144
 20
564.217027146587
 30
0.0
 10
549.6373747239796
 20
564.1112762804973
 30
0.0
 10
549.6612064873418
 20
564.057092563291
 30
0.0
  0
SPLINE
  5
76
330
1F
100
AcDbEntity
  8
0
  6
CONTINUOUS
 62
     7
100
AcDbSpline
210
0.0
220
0.0
230
1.0
 70
     8
 71
     3
 72
     9
 73
     5
 74
     0
 42
0.00000001
 43
0.00000001
 40
0.0
 40
0.0
 40
0.0
 40
0.0
 40
0.4904090422871812
 40
0.9999999999999999
 40
0.9999999999999999
 40
0.9999999999999999
 40
0.9999999999999999
 10
549.6612064873418
 20
564.057092563291
 30
0.0
 10
549.6827357976076
 20
564.093493326938
 30
0.0
 10
549.7266365180459
 20
564.1677186378681
 30
0.0
 10
549.7733690623139
 20
564.2401949110796
 30
0.0
 10
549.7971835443038
 20
564.2771281645569
 30
0.0
  0
SPLINE
  5
77
330
1F
100
AcDbEntity
  8
0
  6
CONTINUOUS
 62
     7
100
AcDbSpline
210
0.0
220
0.0
230
1.0
 70
     8
 71
     3
 72
    15
 73
    11
 74
     0
 42
0.00000001
 43
0.00000001
 40
0.0
 40
0.0
 40
0.0
 40
0.0
 40
0.1611594719150002
 40
0.3113193727380973
 40
0.4519702627072857
 40
0.5822014655005568
 40
0.7019275561874093
 40
0.8114453040874047
 40
0.9105689063484915
 40
0.9999999999999999
 40
0.9999999999999999
 40
0.9999999999999999
 40
0.9999999999999999
 10
549.7971835443038
 20
564.2771281645569
 30
0.0
 10
549.8237956013013
 20
564.3187796679495
 30
0.0
 10
549.875203370223
 20
564.3992398466512
 30
0.0
 10
549.9486026001191
 20
564.5168333068465
 30
0.0
 10
550.0160313282644
 20
564.6269619899476
 30
0.0
 10
550.0786588772972
 20
564.7290886299298
 30
0.0
 10
550.1345603393675
 20
564.8241242150677
 30
0.0
 10
550.1842705126807
 20
564.911707268998
 30
0.0
 10
550.2293252704685
 20
564.9912622841168
 30
0.0
 10
550.2561685877961
 20
565.0424878441557
 30
0.0
 10
550.2689003164558
 20
565.0667840189873
 30
0.0
  0
SPLINE
  5
78
330
1F
100
AcDbEntity
  8
0
  6
CONTINUOUS
 62
     7
100
AcDbSpline
210
0.0
220
0.0
230
1.0
 70
     8
 71
     3
 72
    15
 73
    11
 74
     0
 42
0.00000001
 43
0.00000001
 40
0.0
 40
0.0
 40
0.0
 40
0.0
 40
0.136518599536063
 40
0.2587764096725235
 40
0.3684330619089426
 40
0.4777837716071136
 40
0.5886325060347796
 40
0.7108903161712543
 40
0.8453547432897396
 40
0.9999999999999999
 40
0.9999999999999999
 40
0.9999999999999999
 40
0.9999999999999999
 10
551.0298773734178
 20
566.1412499999999
 30
0.0
 10
551.0398201317715
 20
566.1410152582581
 30
0.0
 10
551.0586670238271
 20
566.1405702959938
 30
0.0
 10
551.0846789637458
 20
566.1334213897628
 30
0.0
 10
551.107123389798
 20
566.1224196112645
 30
0.0
 10
551.1250654655886
 20
566.1061489759394
 30
0.0
 10
551.1395032504581
 20
566.0856360690217
 30
0.0
 10
551.1490189139652
 20
566.0604864244929
 30
0.0
 10
551.1550821071247
 20
566.0311075025602
 30
0.0
 10
551.1556574421825
 20
566.0100881980732
 30
0.0
 10
551.1559651898735
 20
565.9988449367088
 30
0.0
  0
SPLINE
  5
79
330
1F
100
AcDbEntity
  8
0
  6
CONTINUOUS
 62
     7
100
AcDbSpline
210
0.0
220
0.0
230
1.0
 70
     8
 71
     3
 72
    17
 73
    13
 74
     0
 42
0.00000001
 43
0.00000001
 40
0.0
 40
0.0
 40
0.0
 40
0.0
 40
0.0993327825526127
 40
0.1939922680839729
 40
0.2264602037618695
 40
0.2782870030709675
 40
0.3506256803426958
 40
0.4423210170460348
 40
0.5528456089935864
 40
0.682717351705175
 40
0.8319427532959148
 40
1.0
 40
1.0
 40
1.0
 40
1.0
 10
551.1559651898735
 20
565.9988449367088
 30
0.0
 10
551.1554865237051
 20
565.9908295405158
 30
0.0
 10
551.1545517111158
 20
565.975175847474
 30
0.0
 10
551.1466448730672
 20
565.958291429828
 30
0.0
 10
551.1381882756588
 20
565.9466977905333
 30
0.0
 10
551.1314175906685
 20
565.9360916009769
 30
0.0
 10
551.1213559880903
 20
565.9219849658446
 30
0.0
 10
551.1092773856449
 20
565.9035458972568
 30
0.0
 10
551.093665238853
 20
565.8819354596283
 30
0.0
 10
551.07593983229
 20
565.8561701369407
 30
0.0
 10
551.0558261232599
 20
565.8264435267558
 30
0.0
 10
551.0411252948359
 20
565.8056473643031
 30
0.0
 10
551.0333386075949
 20
565.7946321202531
 30
0.0
  0
SPLINE
  5
7A
330
1F
100
AcDbEntity
  8
0
  6
CONTINUOUS
 62
     7
100
AcDbSpline
210
0.0
220
0.0
230
1.0
 70
     8
 71
     3
 72
    11
 73
     7
 74
     0
 42
0.00000001
 43
0.00000001
 40
0.0
 40
0.0
 40
0.0
 40
0.0
 40
0.2468898698745572
 40
0.4957964563169326
 40
0.7467900097091096
 40
1.0
 40
1.0
 40
1.0
 40
1.0
 10
551.0333386075949
 20
565.7946321202531
 30
0.0
 10
550.9791995802558
 20
565.7159546129807
 30
0.0
 10
550.8704792916635
 20
565.5579569222801
 30
0.0
 10
550.7141456878878
 20
565.3150247261751
 30
0.0
 10
550.5584486939781
 20
565.0687896241922
 30
0.0
 10
550.4591800446689
 20
564.9009000404039
 30
0.0
 10
550.4093275316457
 20
564.8165862341772
 30
0.0
  0
SPLINE
  5
7B
330
1F
100
AcDbEntity
  8
0
  6
CONTINUOUS
 62
     7
100
AcDbSpline
210
0.0
220
0.0
230
1.0
 70
     8
 71
     3
 72
    15
 73
    11
 74
     0
 42
0.00000001
 43
0.00000001
 40
0.0
 40
0.0
 40
0.0
 40
0.0
 40
0.150940244557492
 40
0.2948551571982919
 40
0.4310704570692656
 40
0.5593620837731583
 40
0.680861757563805
 40
0.794662105223817
 40
0.9009007130859085
 40
0.9999999999999999
 40
0.9999999999999999
 40
0.9999999999999999
 40
0.9999999999999999
 10
550.4093275316457
 20
564.8165862341772
 30
0.0
 10
550.3902789307409
 20
564.7840746009083
 30
0.0
 10
550.3530683231218
 20
564.7205645491895
 30
0.0
 10
550.2974858339234
 20
564.6284168037113
 30
0.0
 10
550.2453603255692
 20
564.5407897013512
 30
0.0
 10
550.1951500137392
 20
564.4585405886729
 30
0.0
 10
550.1476898609295
 20
564.3811722200271
 30
0.0
 10
550.1035620152904
 20
564.3082129599425
 30
0.0
 10
550.0606018711834
 20
564.2411139006279
 30
0.0
 10
550.0333419722672
 20
564.1977031042576
 30
0.0
 10
550.0201859177216
 20
564.1767523734177
 30
0.0
  0
SPLINE
  5
7C
330
1F
100
AcDbEntity
  8
0
  6
CONTINUOUS
 62
     7
100
AcDbSpline
210
0.0
220
0.0
230
1.0
 70
     8
 71
     3
 72
    15
 73
    11
 74
     0
 42
0.00000001
 43
0.00000001
 40
0.0
 40
0.0
 40
0.0
 40
0.0
 40
0.1741484128334213
 40
0.3337071020813809
 40
0.4799197727705827
 40
0.611303252386588
 40
0.7289571573804162
 40
0.8330547989826791
 40
0.9232130714895513
 40
1.0
 40
1.0
 40
1.0
 40
1.0
 10
550.0201859177216
 20
564.1767523734177
 30
0.0
 10
550.0063732555191
 20
564.1554083686655
 30
0.0
 10
549.9799051218127
 20
564.1145085071234
 30
0.0
 10
549.9439398891119
 20
564.0543786223237
 30
0.0
 10
549.9117575557711
 20
563.9992704078411
 30
0.0
 10
549.8839121661551
 20
563.9487346165218
 30
0.0
 10
549.860434943459
 20
563.9028109279647
 30
0.0
 10
549.8419296387278
 20
563.8612219233482
 30
0.0
 10
549.8262766774733
 20
563.8248121170205
 30
0.0
 10
549.8195578893427
 20
563.8013630143181
 30
0.0
 10
549.8164675632912
 20
563.7905775316456
 30
0.0
  0
SPLINE
  5
7D
330
1F
100
AcDbEntity
  8
0
  6
CONTINUOUS
 62
     7
100
AcDbSpline
210
0.0
220
0.0
230
1.0
 70
     8
 71
     3
 72
    15
 73
    11
 74
     0
 42
0.00000001
 43
0.00000001
 40
0.0
 40
0.0
 40
0.0
 40
0.0
 40
0.1020339500311648
 40
0.2045892828644916
 40
0.3172837852056759
 40
0.4388309065333093
 40
0.5688991820977571
 40
0.7043271157690597
 40
0.8479209254688101
 40
1.0
 40
1.0
 40
1.0
 40
1.0
 10
549.8164675632912
 20
563.7905775316456
 30
0.0
 10
549.812310665623
 20
563.7797950262434
 30
0.0
 10
549.803975628975
 20
563.7581749179654
 30
0.0
 10
549.7824808739618
 20
563.7290224296952
 30
0.0
 10
549.7540253294944
 20
563.7035471232907
 30
0.0
 10
549.719160349789
 20
563.6814930176638
 30
0.0
 10
549.6793325144329
 20
563.6631776549463
 30
0.0
 10
549.6347806500557
 20
563.650614157537
 30
0.0
 10
549.5866807568485
 20
563.6424165813921
 30
0.0
 10
549.5532847831303
 20
563.6416462296869
 30
0.0
 10
549.5361075949368
 20
563.64125
 30
0.0
  0
SPLINE
  5
7E
330
1F
100
AcDbEntity
  8
0
  6
CONTINUOUS
 62
     7
100
AcDbSpline
210
0.0
220
0.0
230
1.0
 70
     8
 71
     3
 72
    15
 73
    11
 74
     0
 42
0.00000001
 43
0.00000001
 40
0.0
 40
0.0
 40
0.0
 40
0.0
 40
0.0313788334611012
 40
0.084879763164987
 40
0.1668032584520014
 40
0.2761568717290381
 40
0.4142275937976203
 40
0.5807329117141287
 40
0.7763620289626016
 40
1.0
 40
1.0
 40
1.0
 40
1.0
 10
549.5361075949368
 20
563.64125
 30
0.0
 10
549.531429906633
 20
563.6432647406562
 30
0.0
 10
549.5187767569904
 20
563.648714615329
 30
0.0
 10
549.5037262627694
 20
563.672053042969
 30
0.0
 10
549.4833665686876
 20
563.7048499926893
 30
0.0
 10
549.460842652806
 20
563.7527293443808
 30
0.0
 10
549.4335672433829
 20
563.8128509329501
 30
0.0
 10
549.4029315728634
 20
563.886716049364
 30
0.0
 10
549.3698086986132
 20
563.9742277575505
 30
0.0
 10
549.3463731818657
 20
564.0369740369381
 30
0.0
 10
549.3338726265824
 20
564.0704430379747
 30
0.0
  0
SPLINE
  5
7F
330
1F
100
AcDbEntity
  8
0
  6
CONTINUOUS
 62
     7
100
AcDbSpline
210
0.0
220
0.0
230
1.0
 70
     8
 71
     3
 72
    23
 73
    19
 74
     0
 42
0.00000001
 43
0.00000001
 40
0.0
 40
0.0
 40
0.0
 40
0.0
 40
0.0221682526479078
 40
0.0498350802791824
 40
0.0823665525104045
 40
0.1207573023882117
 40
0.1645100197695646
 40
0.2136247070505205
 40
0.2677424466897329
 40
0.3275810783815957
 40
0.3929213229381717
 40
0.4636234324779188
 40
0.539329054656552
 40
0.6207549390043773
 40
0.7075427276363359
 40
0.7998330440715034
 40
0.8969860889560685
 40
1.0
 40
1.0
 40
1.0
 40
1.0
 10
549.3338726265824
 20
564.0704430379747
 30
0.0
 10
549.3306135706896
 20
564.0793575412528
 30
0.0
 10
549.3232870883261
 20
564.0993976857587
 30
0.0
 10
549.3102419032994
 20
564.132164195742
 30
0.0
 10
549.2955191233542
 20
564.1717251309163
 30
0.0
 10
549.2776210111441
 20
564.2174447722203
 30
0.0
 10
549.2573906063492
 20
564.2698739646224
 30
0.0
 10
549.2347569780817
 20
564.3285935181818
 30
0.0
 10
549.2092786173948
 20
564.3935964583736
 30
0.0
 10
549.1818558245699
 20
564.4652965727716
 30
0.0
 10
549.1510060705859
 20
564.5432821453629
 30
0.0
 10
549.1180627535157
 20
564.6277429960442
 30
0.0
 10
549.0822195307084
 20
564.7184643142857
 30
0.0
 10
549.0442531131722
 20
564.815750542094
 30
0.0
 10
549.003831510906
 20
564.9197010368921
 30
0.0
 10
548.9601525577464
 20
565.0296064659677
 30
0.0
 10
548.9147325543314
 20
565.1462918645858
 30
0.0
 10
548.8832847638331
 20
565.2260133027477
 30
0.0
 10
548.8671004746835
 20
565.2670411392404
 30
0.0
  0
SPLINE
  5
80
330
1F
100
AcDbEntity
  8
0
  6
CONTINUOUS
 62
     7
100
AcDbSpline
210
0.0
220
0.0
230
1.0
 70
     8
 71
     3
 72
    23
 73
    19
 74
     0
 42
0.00000001
 43
0.00000001
 40
0.0
 40
0.0
 40
0.0
 40
0.0
 40
0.1191558682830628
 40
0.2307797744308661
 40
0.3351811144133166
 40
0.4315735218660688
 40
0.5204348876073195
 40
0.6020734918808894
 40
0.6757024989089889
 40
0.7418020254751203
 40
0.8006785302839169
 40
0.8523320768661978
 40
0.8956715703599258
 40
0.9317878149380305
 40
0.9598907894822932
 40
0.980478047033476
 40
0.993845268865645
 40
0.9999999999999999
 40
0.9999999999999999
 40
0.9999999999999999
 40
0.9999999999999999
 10
548.8671004746835
 20
565.2670411392404
 30
0.0
 10
548.8584964274069
 20
565.2886195158192
 30
0.0
 10
548.8418322033249
 20
565.330412278116
 30
0.0
 10
548.8181747784082
 20
565.3913260966547
 30
0.0
 10
548.7960659008866
 20
565.4480803287162
 30
0.0
 10
548.7750574619854
 20
565.5004987643239
 30
0.0
 10
548.7563642639092
 20
565.5490583726506
 30
0.0
 10
548.7392028952675
 20
565.5934518731011
 30
0.0
 10
548.7231284617696
 20
565.6335055879629
 30
0.0
 10
548.7094022872018
 20
565.669711716146
 30
0.0
 10
548.6970410241199
 20
565.7018516751227
 30
0.0
 10
548.6861526150418
 20
565.7298043517557
 30
0.0
 10
548.6771951766941
 20
565.7537448645021
 30
0.0
 10
548.6699873764262
 20
565.7734366047208
 30
0.0
 10
548.6637417630343
 20
565.788754010957
 30
0.0
 10
548.659913180996
 20
565.8002322750258
 30
0.0
 10
548.6573058963377
 20
565.8076087994708
 30
0.0
 10
548.6562865587771
 20
565.8112764458363
 30
0.0
 10
548.6559651898734
 20
565.8124327531646
 30
0.0
  0
SPLINE
  5
81
330
1F
100
AcDbEntity
  8
0
  6
CONTINUOUS
 62
     7
100
AcDbSpline
210
0.0
220
0.0
230
1.0
 70
     8
 71
     3
 72
    23
 73
    19
 74
     0
 42
0.00000001
 43
0.00000001
 40
0.0
 40
0.0
 40
0.0
 40
0.0
 40
0.1107666746103361
 40
0.214772585386209
 40
0.3122056906818974
 40
0.4033997949885463
 40
0.4877332882229554
 40
0.56554771891182
 40
0.6366682853450102
 40
0.7018412367837426
 40
0.7600843550097476
 40
0.8119766208273038
 40
0.8576482996502829
 40
0.897156110583492
 40
0.9307107862029383
 40
0.9584194444636923
 40
0.9812642749534526
 40
1.0
 40
1.0
 40
1.0
 40
1.0
 10
550.2689003164558
 20
565.0667840189873
 30
0.0
 10
550.2924164050828
 20
565.1101607539924
 30
0.0
 10
550.3380132524229
 20
565.194266678048
 30
0.0
 10
550.4051687827455
 20
565.316054064534
 30
0.0
 10
550.4695999066338
 20
565.4293735506346
 30
0.0
 10
550.5305765783227
 20
565.5345731004581
 30
0.0
 10
550.5889854781122
 20
565.6311432925963
 30
0.0
 10
550.6443970500039
 20
565.7190472371082
 30
0.0
 10
550.6962456568851
 20
565.7991094514481
 30
0.0
 10
550.7454904797969
 20
565.8704204788089
 30
0.0
 10
550.7913698469231
 20
565.9336458308071
 30
0.0
 10
550.8346375243113
 20
565.987903201653
 30
0.0
 10
550.8735850983551
 20
566.0350164848821
 30
0.0
 10
550.9110226040835
 20
566.0723793900094
 30
0.0
 10
550.9441390907417
 20
566.1029126699566
 30
0.0
 10
550.9752004563667
 20
566.1237606611411
 30
0.0
 10
551.0029230241099
 20
566.1385266803045
 30
0.0
 10
551.0215046874272
 20
566.1404040697049
 30
0.0
 10
551.0298773734178
 20
566.1412499999999
 30
0.0
  0
SPLINE
  5
82
330
1F
100
AcDbEntity
  8
0
  6
CONTINUOUS
 62
     7
100
AcDbSpline
210
0.0
220
0.0
230
1.0
 70
     8
 71
     3
 72
    11
 73
     7
 74
     0
 42
0.00000001
 43
0.00000001
 40
0.0
 40
0.0
 40
0.0
 40
0.0
 40
0.2480125809599981
 40
0.4643615373840576
 40
0.6997600600354875
 40
1.0
 40
1.0
 40
1.0
 40
1.0
 10
552.8935047468356
 20
564.1792246835442
 30
0.0
 10
552.903529295842
 20
564.1785699486226
 30
0.0
 10
552.9222985654096
 20
564.1773440684126
 30
0.0
 10
552.9458260305291
 20
564.1597520393632
 30
0.0
 10
552.9584802120671
 20
564.1315629614546
 30
0.0
 10
552.9593020152
 20
564.1101406821311
 30
0.0
 10
552.9597626582279
 20
564.0981329113923
 30
0.0
  0
SPLINE
  5
83
330
1F
100
AcDbEntity
  8
0
  6
CONTINUOUS
 62
     7
100
AcDbSpline
210
0.0
220
0.0
230
1.0
 70
     8
 71
     3
 72
    23
 73
    19
 74
     0
 42
0.00000001
 43
0.00000001
 40
0.0
 40
0.0
 40
0.0
 40
0.0
 40
0.0175512250048967
 40
0.0377326436381864
 40
0.0616147496041089
 40
0.0893912442863214
 40
0.1214702139081081
 40
0.1578378887579328
 40
0.1991396285855495
 40
0.2446377352666778
 40
0.3403638768469103
 40
0.4378575670951723
 40
0.5367659761930205
 40
0.6382954777338585
 40
0.7378117624047028
 40
0.8306398478725359
 40
0.9179083615601263
 40
1.0
 40
1.0
 40
1.0
 40
1.0
 10
552.9597626582279
 20
564.0981329113923
 30
0.0
 10
552.9591130131263
 20
564.0906431349556
 30
0.0
 10
552.9577163683277
 20
564.0745411782465
 30
0.0
 10
552.947753906343
 20
564.0498971728033
 30
0.0
 10
552.9325885808144
 20
564.0233096357431
 30
0.0
 10
552.9122649783338
 20
563.9938479480687
 30
0.0
 10
552.8850259182228
 20
563.9631105609909
 30
0.0
 10
552.8528473826588
 20
563.9291303209731
 30
0.0
 10
552.8142296969531
 20
563.8935032283804
 30
0.0
 10
552.7554621919245
 20
563.8424891455509
 30
0.0
 10
552.6743459293057
 20
563.7807875326793
 30
0.0
 10
552.5690262240098
 20
563.7140385434649
 30
0.0
 10
552.4561163790314
 20
563.655517705117
 30
0.0
 10
552.3380802724457
 20
563.60603130348
 30
0.0
 10
552.2192986227275
 20
563.5657610853925
 30
0.0
 10
552.1035466865898
 20
563.5369032900726
 30
0.0
 10
551.9930186010861
 20
563.5184904680667
 30
0.0
 10
551.920797762215
 20
563.5159157362049
 30
0.0
 10
551.8857911392406
 20
563.5146677215189
 30
0.0
  0
SPLINE
  5
84
330
1F
100
AcDbEntity
  8
0
  6
CONTINUOUS
 62
     7
100
AcDbSpline
210
0.0
220
0.0
230
1.0
 70
     8
 71
     3
 72
    23
 73
    19
 74
     0
 42
0.00000001
 43
0.00000001
 40
0.0
 40
0.0
 40
0.0
 40
0.0
 40
0.060550775582183
 40
0.1202859742793297
 40
0.1793046726294401
 40
0.2383771001246711
 40
0.2979227125863554
 40
0.3579906172604258
 40
0.4193487810621129
 40
0.4822764407279297
 40
0.5451497843946814
 40
0.6065821450961343
 40
0.667887256132893
 40
0.7295825588724975
 40
0.7928891256825189
 40
0.8585310466560813
 40
0.927325457220161
 40
1.0
 40
1.0
 40
1.0
 40
1.0
 10
551.8857911392406
 20
563.5146677215189
 30
0.0
 10
551.8610437424014
 20
563.5152432629245
 30
0.0
 10
551.8118822789677
 20
563.5163865935926
 30
0.0
 10
551.7390283474242
 20
563.5253861613812
 30
0.0
 10
551.6679509834078
 20
563.5408965339642
 30
0.0
 10
551.5984874567723
 20
563.562239855304
 30
0.0
 10
551.530622134264
 20
563.5894308964337
 30
0.0
 10
551.4645832529767
 20
563.6228855448686
 30
0.0
 10
551.400066904468
 20
563.6619432084262
 30
0.0
 10
551.3382894383177
 20
563.7071632198832
 30
0.0
 10
551.2803218545229
 20
563.7573145349273
 30
0.0
 10
551.2297925987245
 20
563.8142187640368
 30
0.0
 10
551.187774347158
 20
563.8770170946126
 30
0.0
 10
551.1528343751395
 20
563.9448352204531
 30
0.0
 10
551.1255035354911
 20
564.0179946848
 30
0.0
 10
551.1063680628152
 20
564.0966594726918
 30
0.0
 10
551.0949154461711
 20
564.1807002349648
 30
0.0
 10
551.0934347199919
 20
564.2385233304276
 30
0.0
 10
551.092674050633
 20
564.2682278481012
 30
0.0
  0
SPLINE
  5
85
330
1F
100
AcDbEntity
  8
0
  6
CONTINUOUS
 62
     7
100
AcDbSpline
210
0.0
220
0.0
230
1.0
 70
     8
 71
     3
 72
    23
 73
    19
 74
     0
 42
0.00000001
 43
0.00000001
 40
0.0
 40
0.0
 40
0.0
 40
0.0
 40
0.0735258552130119
 40
0.1438139978753111
 40
0.2115880209384445
 40
0.2771557395352267
 40
0.3406739584892833
 40
0.4032014810051377
 40
0.4662011069289317
 40
0.5295692038320804
 40
0.5918593328629882
 40
0.6525314835118006
 40
0.7116711835941052
 40
0.7685999056105122
 40
0.8258992009262801
 40
0.8828836625663585
 40
0.9410081102069535
 40
0.9999999999999999
 40
0.9999999999999999
 40
0.9999999999999999
 40
0.9999999999999999
 10
552.8247745253166
 20
566.2045411392404
 30
0.0
 10
552.8414314866285
 20
566.2041162963033
 30
0.0
 10
552.8740119196175
 20
566.2032853183963
 30
0.0
 10
552.9217761641003
 20
566.1981039230412
 30
0.0
 10
552.9668325227365
 20
566.1878926662337
 30
0.0
 10
553.0095844960747
 20
566.1748945847385
 30
0.0
 10
553.0493199726379
 20
566.1572100174614
 30
0.0
 10
553.0869570135843
 20
566.1365716585542
 30
0.0
 10
553.1214220816166
 20
566.1110233692524
 30
0.0
 10
553.1534557362575
 20
566.0826248726876
 30
0.0
 10
553.1819369943544
 20
566.0513811202056
 30
0.0
 10
553.2074162180771
 20
566.0188474988115
 30
0.0
 10
553.2284811496651
 20
565.984713230776
 30
0.0
 10
553.2463299370719
 20
565.9496473568349
 30
0.0
 10
553.2595511496352
 20
565.9130647714619
 30
0.0
 10
553.2688841812283
 20
565.8750927121259
 30
0.0
 10
553.275127336792
 20
565.8360420965615
 30
0.0
 10
553.2758528905717
 20
565.8094899241396
 30
0.0
 10
553.2762183544304
 20
565.796115506329
 30
0.0
  0
SPLINE
  5
86
330
1F
100
AcDbEntity
  8
0
  6
CONTINUOUS
 62
     7
100
AcDbSpline
210
0.0
220
0.0
230
1.0
 70
     8
 71
     3
 72
    19
 73
    15
 74
     0
 42
0.00000001
 43
0.00000001
 40
0.0
 40
0.0
 40
0.0
 40
0.0
 40
0.1211370920581038
 40
0.2290556173052406
 40
0.3231501562368456
 40
0.4054139858800082
 40
0.4801718664499365
 40
0.5555294001270105
 40
0.6371203559608701
 40
0.7260016213050556
 40
0.8125318187174597
 40
0.8865156173543702
 40
0.9486073780066597
 40
1.0
 40
1.0
 40
1.0
 40
1.0
 10
553.2762183544304
 20
565.796115506329
 30
0.0
 10
553.2760830414622
 20
565.7722126251849
 30
0.0
 10
553.2758271809744
 20
565.7270151625185
 30
0.0
 10
553.2725255296023
 20
565.6633096434325
 30
0.0
 10
553.266583138741
 20
565.6075067903654
 30
0.0
 10
553.2588270133012
 20
565.5585569924044
 30
0.0
 10
553.2453606297875
 20
565.5143189797953
 30
0.0
 10
553.2206588719752
 20
565.475361921594
 30
0.0
 10
553.1877981665041
 20
565.439313084255
 30
0.0
 10
553.146447945945
 20
565.4095502473039
 30
0.0
 10
553.104165905194
 20
565.3843381175774
 30
0.0
 10
553.0646812472913
 20
565.3650049002226
 30
0.0
 10
553.029305769989
 20
565.3532559028739
 30
0.0
 10
553.0069647025541
 20
565.3510911094534
 30
0.0
 10
552.9968473101267
 20
565.3501107594936
 30
0.0
  0
SPLINE
  5
87
330
1F
100
AcDbEntity
  8
0
  6
CONTINUOUS
 62
     7
100
AcDbSpline
210
0.0
220
0.0
230
1.0
 70
     8
 71
     3
 72
    15
 73
    11
 74
     0
 42
0.00000001
 43
0.00000001
 40
0.0
 40
0.0
 40
0.0
 40
0.0
 40
0.1119180831335118
 40
0.2211017693566847
 40
0.3323599728579027
 40
0.4525916770832209
 40
0.5784918252355409
 40
0.7093725592071828
 40
0.8464719283669194
 40
1.0
 40
1.0
 40
1.0
 40
1.0
 10
552.9968473101267
 20
565.3501107594936
 30
0.0
 10
552.9901967298929
 20
565.3504321291841
 30
0.0
 10
552.9770580572516
 20
565.3510670168198
 30
0.0
 10
552.9583244947173
 20
565.3579687714512
 30
0.0
 10
552.9412157644435
 20
565.3687657715309
 30
0.0
 10
552.9252432604916
 20
565.3828926148532
 30
0.0
 10
552.9125190999471
 20
565.4014615335019
 30
0.0
 10
552.9030288194217
 20
565.4228940510925
 30
0.0
 10
552.8975533460928
 20
565.4474191297794
 30
0.0
 10
552.8968454664556
 20
565.4646328655296
 30
0.0
 10
552.8964715189875
 20
565.4737262658227
 30
0.0
  0
SPLINE
  5
88
330
1F
100
AcDbEntity
  8
0
  6
CONTINUOUS
 62
     7
100
AcDbSpline
210
0.0
220
0.0
230
1.0
 70
     8
 71
     3
 72
    11
 73
     7
 74
     0
 42
0.00000001
 43
0.00000001
 40
0.0
 40
0.0
 40
0.0
 40
0.0
 40
0.1516423413726764
 40
0.366352553952777
 40
0.6509821370400213
 40
1.0
 40
1.0
 40
1.0
 40
1.0
 10
552.8964715189875
 20
565.4737262658227
 30
0.0
 10
552.8969825954614
 20
565.4819849400706
 30
0.0
 10
552.898217304513
 20
565.5019370614605
 30
0.0
 10
552.90502250513
 20
565.5368416889286
 30
0.0
 10
552.9147302115214
 20
565.5820442843919
 30
0.0
 10
552.9233624084643
 20
565.615502771338
 30
0.0
 10
552.9281170886077
 20
565.6339319620253
 30
0.0
  0
SPLINE
  5
89
330
1F
100
AcDbEntity
  8
0
  6
CONTINUOUS
 62
     7
100
AcDbSpline
210
0.0
220
0.0
230
1.0
 70
     8
 71
     3
 72
    11
 73
     7
 74
     0
 42
0.00000001
 43
0.00000001
 40
0.0
 40
0.0
 40
0.0
 40
0.0
 40
0.3186516411223106
 40
0.5901569914416414
 40
0.8178039537165336
 40
0.9999999999999999
 40
0.9999999999999999
 40
0.9999999999999999
 40
0.9999999999999999
 10
552.9281170886077
 20
565.6339319620253
 30
0.0
 10
552.9328931865185
 20
565.652685259983
 30
0.0
 10
552.9417387319671
 20
565.6874172006794
 30
0.0
 10
552.9516988712849
 20
565.7360636656088
 30
0.0
 10
552.9582357787687
 20
565.7769870009639
 30
0.0
 10
552.9592927713204
 20
565.8018668554365
 30
0.0
 10
552.9597626582279
 20
565.8129272151898
 30
0.0
  0
SPLINE
  5
8A
330
1F
100
AcDbEntity
  8
0
  6
CONTINUOUS
 62
     7
100
AcDbSpline
210
0.0
220
0.0
230
1.0
 70
     8
 71
     3
 72
    15
 73
    11
 74
     0
 42
0.00000001
 43
0.00000001
 40
0.0
 40
0.0
 40
0.0
 40
0.0
 40
0.1543829306651278
 40
0.2901839805153257
 40
0.4113528125250399
 40
0.5221631678675923
 40
0.6313283850403677
 40
0.7427899969767051
 40
0.8645992685500423
 40
1.0
 40
1.0
 40
1.0
 40
1.0
 10
552.9597626582279
 20
565.8129272151898
 30
0.0
 10
552.9593011422851
 20
565.8263069745424
 30
0.0
 10
552.9584336595084
 20
565.8514560749677
 30
0.0
 10
552.9517561243257
 20
565.8866664016718
 30
0.0
 10
552.9398888775431
 20
565.916466770126
 30
0.0
 10
552.9232006410729
 20
565.9411882018039
 30
0.0
 10
552.9014259438205
 20
565.9604026193693
 30
0.0
 10
552.8747752786475
 20
565.9740321536872
 30
0.0
 10
552.8435149629161
 20
565.9819092581928
 30
0.0
 10
552.8211955885536
 20
565.9826383452206
 30
0.0
 10
552.8094462025317
 20
565.9830221518987
 30
0.0
  0
SPLINE
  5
8B
330
1F
100
AcDbEntity
  8
0
  6
CONTINUOUS
 62
     7
100
AcDbSpline
210
0.0
220
0.0
230
1.0
 70
     8
 71
     3
 72
    31
 73
    27
 74
     0
 42
0.00000001
 43
0.00000001
 40
0.0
 40
0.0
 40
0.0
 40
0.0
 40
0.0256802297466486
 40
0.0535069651637747
 40
0.0834476634155945
 40
0.1160115362089903
 40
0.1515266046504343
 40
0.1898799554049045
 40
0.23158162986757
 40
0.2762673081487404
 40
0.3226369266399248
 40
0.3692770451039838
 40
0.4164468559566731
 40
0.4636698790784081
 40
0.5116354155033334
 40
0.5600462738170507
 40
0.6092687863423063
 40
0.6593945727106628
 40
0.7086990166062368
 40
0.7558645488671042
 40
0.800828364764886
 40
0.8437635871463036
 40
0.8851283688412832
 40
0.924709147376425
 40
0.9629013796571381
 40
1.0
 40
1.0
 40
1.0
 40
1.0
 10
552.8094462025317
 20
565.9830221518987
 30
0.0
 10
552.7894470801675
 20
565.9822259847596
 30
0.0
 10
552.7477771903649
 20
565.980567102117
 30
0.0
 10
552.6839240487958
 20
565.9673691269279
 30
0.0
 10
552.6167516667571
 20
565.9463531025414
 30
0.0
 10
552.5464318384647
 20
565.916536948438
 30
0.0
 10
552.4722337322032
 20
565.8795807867284
 30
0.0
 10
552.3949344036839
 20
565.8334501133102
 30
0.0
 10
552.3141176611848
 20
565.7796023712767
 30
0.0
 10
552.2308549540586
 20
565.7183519796421
 30
0.0
 10
552.1476214241357
 20
565.6507798840032
 30
0.0
 10
552.0663156264187
 20
565.5779658829686
 30
0.0
 10
551.988382105953
 20
565.5005865936491
 30
0.0
 10
551.9140777774797
 20
565.4183549718747
 30
0.0
 10
551.8421847305582
 20
565.3327256650891
 30
0.0
 10
551.7745342360272
 20
565.2417499893411
 30
0.0
 10
551.7096641246706
 20
565.1467556725318
 30
0.0
 10
551.6486130338868
 20
565.0484468434265
 30
0.0
 10
551.5922826155662
 20
564.9491566319047
 30
0.0
 10
551.5441907233186
 20
564.8500863706564
 30
0.0
 10
551.5020447546905
 20
564.7537305289454
 30
0.0
 10
551.4682916855502
 20
564.6588625383198
 30
0.0
 10
551.4420513565198
 20
564.566016179113
 30
0.0
 10
551.4229009820906
 20
564.475211299771
 30
0.0
 10
551.4117688890826
 20
564.3863525687201
 30
0.0
 10
551.4100009008117
 20
564.327756814385
 30
0.0
 10
551.4091297468356
 20
564.2988844936708
 30
0.0
  0
SPLINE
  5
8C
330
1F
100
AcDbEntity
  8
0
  6
CONTINUOUS
 62
     7
100
AcDbSpline
210
0.0
220
0.0
230
1.0
 70
     8
 71
     3
 72
    23
 73
    19
 74
     0
 42
0.00000001
 43
0.00000001
 40
0.0
 40
0.0
 40
0.0
 40
0.0
 40
0.0658930295924406
 40
0.1298639549604829
 40
0.1912420797829922
 40
0.2516975500009612
 40
0.3104667239033913
 40
0.3693945972264327
 40
0.4285525460885996
 40
0.4881708305341023
 40
0.5475150589744645
 40
0.6069593500172747
 40
0.6673248734192518
 40
0.7286254865973203
 40
0.7916551398721898
 40
0.8572666788779635
 40
0.9265145550137656
 40
0.9999999999999999
 40
0.9999999999999999
 40
0.9999999999999999
 40
0.9999999999999999
 10
551.4091297468356
 20
564.2988844936708
 30
0.0
 10
551.4094667262252
 20
564.280241646492
 30
0.0
 10
551.4101308552927
 20
564.2434997652738
 30
0.0
 10
551.4166395622752
 20
564.1897032013762
 30
0.0
 10
551.4275606234202
 20
564.138233464504
 30
0.0
 10
551.4428421349883
 20
564.0894105090575
 30
0.0
 10
551.4623171778181
 20
564.0428652280441
 30
0.0
 10
551.4860274830484
 20
563.9987136827033
 30
0.0
 10
551.5144663567754
 20
563.957186663073
 30
0.0
 10
551.5463084586444
 20
563.9180497359515
 30
0.0
 10
551.5825440215998
 20
563.8827531339133
 30
0.0
 10
551.6228996023319
 20
563.8519222049234
 30
0.0
 10
551.6670100804449
 20
563.8256610246668
 30
0.0
 10
551.7148094216406
 20
563.8042859256773
 30
0.0
 10
551.7661366647271
 20
563.7881190994675
 30
0.0
 10
551.8208795492626
 20
563.7761156255533
 30
0.0
 10
551.8795204931904
 20
563.769292437615
 30
0.0
 10
551.9198915917547
 20
563.7683285371807
 30
0.0
 10
551.9406764240507
 20
563.7678322784809
 30
0.0
  0
SPLINE
  5
8D
330
1F
100
AcDbEntity
  8
0
  6
CONTINUOUS
 62
     7
100
AcDbSpline
210
0.0
220
0.0
230
1.0
 70
     8
 71
     3
 72
    15
 73
    11
 74
     0
 42
0.00000001
 43
0.00000001
 40
0.0
 40
0.0
 40
0.0
 40
0.0
 40
0.0963842264096331
 40
0.2038551265291453
 40
0.3233259204023661
 40
0.4556528718621296
 40
0.5938858372892991
 40
0.7300711179830409
 40
0.8654172810606073
 40
1.0
 40
1.0
 40
1.0
 40
1.0
 10
551.9406764240507
 20
563.7678322784809
 30
0.0
 10
551.9666085992427
 20
563.7689231243122
 30
0.0
 10
552.0214558190821
 20
563.7712302914
 30
0.0
 10
552.1072689787266
 20
563.7867529585546
 30
0.0
 10
552.200961137414
 20
563.8106328940863
 30
0.0
 10
552.3005686314268
 20
563.8439342755739
 30
0.0
 10
552.4019722976825
 20
563.8852233127922
 30
0.0
 10
552.5013434289764
 20
563.9331271647281
 30
0.0
 10
552.5959941899741
 20
563.9879813054954
 30
0.0
 10
552.6556117585478
 20
564.0294796219051
 30
0.0
 10
552.6853362341773
 20
564.0501700949367
 30
0.0
  0
SPLINE
  5
8E
330
1F
100
AcDbEntity
  8
0
  6
CONTINUOUS
 62
     7
100
AcDbSpline
210
0.0
220
0.0
230
1.0
 70
     8
 71
     3
 72
    15
 73
    11
 74
     0
 42
0.00000001
 43
0.00000001
 40
0.0
 40
0.0
 40
0.0
 40
0.0
 40
0.2085181918991952
 40
0.3946262419157227
 40
0.5550761162557766
 40
0.6915727601417209
 40
0.8031906106582932
 40
0.8921607991196774
 40
0.9570608830328771
 40
1.0
 40
1.0
 40
1.0
 40
1.0
 10
552.6853362341773
 20
564.0501700949367
 30
0.0
 10
552.6991333871113
 20
564.0602909625884
 30
0.0
 10
552.7252448671788
 20
564.0794449746672
 30
0.0
 10
552.7626951253052
 20
564.1053770624069
 30
0.0
 10
552.7954017449032
 20
564.1277656244946
 30
0.0
 10
552.8233526503042
 20
564.1462952646853
 30
0.0
 10
552.8473755155459
 20
564.1600615811353
 30
0.0
 10
552.866354193258
 20
564.1706606888246
 30
0.0
 10
552.8812355606356
 20
564.1773382696978
 30
0.0
 10
552.8900106899389
 20
564.1786874647587
 30
0.0
 10
552.8935047468356
 20
564.1792246835442
 30
0.0
  0
SPLINE
  5
8F
330
1F
100
AcDbEntity
  8
0
  6
CONTINUOUS
 62
     7
100
AcDbSpline
210
0.0
220
0.0
230
1.0
 70
     8
 71
     3
 72
    39
 73
    35
 74
     0
 42
0.00000001
 43
0.00000001
 40
0.0
 40
0.0
 40
0.0
 40
0.0
 40
0.0297805284556564
 40
0.059474462677952
 40
0.089341853685052
 40
0.1193258771721006
 40
0.1496571073016907
 40
0.1802450151659404
 40
0.2112304764522243
 40
0.2428006721146512
 40
0.2748642733897843
 40
0.3077306160702487
 40
0.3412308600161028
 40
0.3756717918935889
 40
0.4108700907517241
 40
0.4470193903054061
 40
0.4840278819431596
 40
0.5220612799125963
 40
0.5599315901426113
 40
0.5965524240796032
 40
0.6319559395102393
 40
0.6659439350479336
 40
0.6988183005281822
 40
0.7304944532034757
 40
0.761028048396515
 40
0.7905711446696716
 40
0.8191692094715558
 40
0.8468370641253526
 40
0.873823731457071
 40
0.9000613594654545
 40
0.9256506751629094
 40
0.9507002275889692
 40
0.9755008341861683
 40
1.0
 40
1.0
 40
1.0
 40
1.0
 10
551.092674050633
 20
564.2682278481012
 30
0.0
 10
551.0931780545924
 20
564.296097514351
 30
0.0
 10
551.0941845969951
 20
564.3517558089206
 30
0.0
 10
551.1014500432725
 20
564.4350959509543
 30
0.0
 10
551.1125602968638
 20
564.5181867974783
 30
0.0
 10
551.1291687750836
 20
564.6009771291715
 30
0.0
 10
551.1498976081397
 20
564.6835016076288
 30
0.0
 10
551.175035864718
 20
564.7657965786345
 30
0.0
 10
551.2055182800868
 20
564.847494369187
 30
0.0
 10
551.240052752229
 20
564.9290496415819
 30
0.0
 10
551.2792509104885
 20
565.0104411712472
 30
0.0
 10
551.3233102156395
 20
565.0913613216889
 30
0.0
 10
551.3719103955666
 20
565.17224162628
 30
0.0
 10
551.425307627699
 20
565.2526740026952
 30
0.0
 10
551.4833771367084
 20
565.332870768956
 30
0.0
 10
551.5456262347292
 20
565.4129287566276
 30
0.0
 10
551.6124211958511
 20
565.4927443814373
 30
0.0
 10
551.6836409676927
 20
565.5708148708492
 30
0.0
 10
551.7564276931488
 20
565.6469238586283
 30
0.0
 10
551.8303076524843
 20
565.7184768950854
 30
0.0
 10
551.9031392536408
 20
565.785850634008
 30
0.0
 10
551.9760521174685
 20
565.8478768479754
 30
0.0
 10
552.0487058092035
 20
565.9046864423005
 30
0.0
 10
552.1208756098789
 20
565.9567779584308
 30
0.0
 10
552.1927990503941
 20
566.0036981270499
 30
0.0
 10
552.2638267103061
 20
566.0466723748576
 30
0.0
 10
552.3351874639536
 20
566.0835872874474
 30
0.0
 10
552.406054565892
 20
566.11602591835
 30
0.0
 10
552.4767587915011
 20
566.1431938632724
 30
0.0
 10
552.5470786814531
 20
566.165562436658
 30
0.0
 10
552.6169357735633
 20
566.1829695487061
 30
0.0
 10
552.6864711570079
 20
566.1953758104338
 30
0.0
 10
552.7557046071612
 20
566.2030850576892
 30
0.0
 10
552.8018452607723
 20
566.2040577612378
 30
0.0
 10
552.8247745253166
 20
566.2045411392404
 30
0.0
  0
SPLINE
  5
90
330
1F
100
AcDbEntity
  8
0
  6
CONTINUOUS
 62
     7
100
AcDbSpline
210
0.0
220
0.0
230
1.0
 70
     8
 71
     3
 72
    19
 73
    15
 74
     0
 42
0.00000001
 43
0.00000001
 40
0.0
 40
0.0
 40
0.0
 40
0.0
 40
0.0864909747409362
 40
0.1652104490414512
 40
0.2359227171506314
 40
0.2994369419441191
 40
0.3572494944300139
 40
0.4106005390522682
 40
0.4619388276815414
 40
0.5135075554429046
 40
0.6207606548368428
 40
0.7371828716486204
 40
0.8632717745378384
 40
1.0
 40
1.0
 40
1.0
 40
1.0
 10
555.1749525316457
 20
565.5083386075949
 30
0.0
 10
555.1745696574452
 20
565.5256597485826
 30
0.0
 10
555.1738383115586
 20
565.5587456686925
 30
0.0
 10
555.1684733968444
 20
565.6057588046185
 30
0.0
 10
555.1597503358465
 20
565.6475595339252
 30
0.0
 10
555.1476555156052
 20
565.6841908929438
 30
0.0
 10
555.131281406665
 20
565.7153202270032
 30
0.0
 10
555.1111481443806
 20
565.7410524161089
 30
0.0
 10
555.0876460491797
 20
565.7621442351996
 30
0.0
 10
555.0499447698674
 20
565.7814492518946
 30
0.0
 10
554.9974235192827
 20
565.7986517584503
 30
0.0
 10
554.9289884692241
 20
565.8138857086116
 30
0.0
 10
554.8534864486741
 20
565.8234014642229
 30
0.0
 10
554.8008388187039
 20
565.8243176608291
 30
0.0
 10
554.7734493670887
 20
565.8247943037974
 30
0.0
  0
SPLINE
  5
91
330
1F
100
AcDbEntity
  8
0
  6
CONTINUOUS
 62
     7
100
AcDbSpline
210
0.0
220
0.0
230
1.0
 70
     8
 71
     3
 72
    23
 73
    19
 74
     0
 42
0.00000001
 43
0.00000001
 40
0.0
 40
0.0
 40
0.0
 40
0.0
 40
0.0771877739107161
 40
0.1532882269477156
 40
0.2275773416943866
 40
0.3007570857974398
 40
0.3730687183289939
 40
0.4443440800021989
 40
0.5155209269611835
 40
0.5863525719276365
 40
0.654029427019171
 40
0.7155693328693591
 40
0.7714459490093316
 40
0.8226024270039525
 40
0.8696989647640297
 40
0.9144061920867711
 40
0.9572873201375408
 40
1.0
 40
1.0
 40
1.0
 40
1.0
 10
554.7734493670887
 20
565.8247943037974
 30
0.0
 10
554.7444247241697
 20
565.8245097182995
 30
0.0
 10
554.686784299716
 20
565.8239445561737
 30
0.0
 10
554.6014938389229
 20
565.8165237288334
 30
0.0
 10
554.5180952099345
 20
565.8059204064696
 30
0.0
 10
554.4368799733116
 20
565.7904934047632
 30
0.0
 10
554.3577297690955
 20
565.7708907543682
 30
0.0
 10
554.2808172062935
 20
565.7462322090322
 30
0.0
 10
554.2055307051711
 20
565.7185109423783
 30
0.0
 10
554.1338543818445
 20
565.6855558686257
 30
0.0
 10
554.06737791031
 20
565.6502883248377
 30
0.0
 10
554.0086679760841
 20
565.6127745299791
 30
0.0
 10
553.9586269825251
 20
565.5737250459343
 30
0.0
 10
553.9173947318875
 20
565.5327275624459
 30
0.0
 10
553.8857360628094
 20
565.4890210881035
 30
0.0
 10
553.8624741376345
 20
565.4438342584436
 30
0.0
 10
553.8484230441635
 20
565.3964270010795
 30
0.0
 10
553.8466989554518
 20
565.364209806862
 30
0.0
 10
553.845838607595
 20
565.3481329113924
 30
0.0
  0
SPLINE
  5
92
330
1F
100
AcDbEntity
  8
0
  6
CONTINUOUS
 62
     7
100
AcDbSpline
210
0.0
220
0.0
230
1.0
 70
     8
 71
     3
 72
    23
 73
    19
 74
     0
 42
0.00000001
 43
0.00000001
 40
0.0
 40
0.0
 40
0.0
 40
0.0
 40
0.0393396024895139
 40
0.0780825049786698
 40
0.116776623101171
 40
0.1552340777306687
 40
0.1954599610583117
 40
0.2359704880259479
 40
0.2792609251793789
 40
0.3241367253525149
 40
0.3750838126705738
 40
0.4347431631325214
 40
0.5039994992303752
 40
0.5833579732117433
 40
0.6722318982428975
 40
0.7712683056483263
 40
0.8807419975621191
 40
1.0
 40
1.0
 40
1.0
 40
1.0
 10
553.845838607595
 20
565.3481329113924
 30
0.0
 10
553.8462128783171
 20
565.3365702491199
 30
0.0
 10
553.8469557428526
 20
565.3136203061281
 30
0.0
 10
553.8531044577389
 20
565.279743108318
 30
0.0
 10
553.8630510501919
 20
565.2471274645957
 30
0.0
 10
553.8765596694118
 20
565.2153150172386
 30
0.0
 10
553.8942949594085
 20
565.1850219862708
 30
0.0
 10
553.9160770943855
 20
565.1557320273754
 30
0.0
 10
553.9417203530508
 20
565.1278906448887
 30
0.0
 10
553.9717983893275
 20
565.1001348275947
 30
0.0
 10
554.0087580825714
 20
565.073142557152
 30
0.0
 10
554.0541662436207
 20
565.0460169838949
 30
0.0
 10
554.1089037643353
 20
565.0186057675417
 30
0.0
 10
554.172579965321
 20
564.9900668119044
 30
0.0
 10
554.2455048947197
 20
564.9609157516791
 30
0.0
 10
554.327775820143
 20
564.9315105899766
 30
0.0
 10
554.4190374348397
 20
564.9007886142633
 30
0.0
 10
554.4833117221145
 20
564.8811936432751
 30
0.0
 10
554.5168235759495
 20
564.870977056962
 30
0.0
  0
SPLINE
  5
93
330
1F
100
AcDbEntity
  8
0
  6
CONTINUOUS
 62
     7
100
AcDbSpline
210
0.0
220
0.0
230
1.0
 70
     8
 71
     3
 72
    23
 73
    19
 74
     0
 42
0.00000001
 43
0.00000001
 40
0.0
 40
0.0
 40
0.0
 40
0.0
 40
0.1026138425405965
 40
0.198338181704385
 40
0.2870860059547541
 40
0.369116242837164
 40
0.4443541048583594
 40
0.5135875858891503
 40
0.5759035501197085
 40
0.6326527366983337
 40
0.6848577983328302
 40
0.7340126894753967
 40
0.7805984417822419
 40
0.8251793283204618
 40
0.8688430242815548
 40
0.9123421982755023
 40
0.9555610911680172
 40
1.0
 40
1.0
 40
1.0
 40
1.0
 10
554.5168235759495
 20
564.870977056962
 30
0.0
 10
554.5496874360427
 20
564.8611262558223
 30
0.0
 10
554.6132086734638
 20
564.8420860372902
 30
0.0
 10
554.7041058211888
 20
564.8112286767592
 30
0.0
 10
554.7878838490258
 20
564.7808637578316
 30
0.0
 10
554.864000244676
 20
564.7496496035814
 30
0.0
 10
554.9330836764532
 20
564.7185963260396
 30
0.0
 10
554.9947238022099
 20
564.6872178144907
 30
0.0
 10
555.0491263511342
 20
564.6554700933387
 30
0.0
 10
555.0965790445106
 20
564.6233203255006
 30
0.0
 10
555.1376248171999
 20
564.589901320181
 30
0.0
 10
555.1730126067604
 20
564.5552335482599
 30
0.0
 10
555.2029490276657
 20
564.5189904971954
 30
0.0
 10
555.2275546810123
 20
564.4810987403424
 30
0.0
 10
555.2466190019921
 20
564.4412144474564
 30
0.0
 10
555.2596314467377
 20
564.3995396888424
 30
0.0
 10
555.2688241361905
 20
564.3564761804739
 30
0.0
 10
555.2695309267119
 20
564.3271182397373
 30
0.0
 10
555.2698892405064
 20
564.3122349683543
 30
0.0
  0
SPLINE
  5
94
330
1F
100
AcDbEntity
  8
0
  6
CONTINUOUS
 62
     7
100
AcDbSpline
210
0.0
220
0.0
230
1.0
 70
     8
 71
     3
 72
    31
 73
    27
 74
     0
 42
0.00000001
 43
0.00000001
 40
0.0
 40
0.0
 40
0.0
 40
0.0
 40
0.0265762062209471
 40
0.0546173029280964
 40
0.0843832159945918
 40
0.1163549853529096
 40
0.1511810140269984
 40
0.1888430101351278
 40
0.229920866090703
 40
0.2744356376347147
 40
0.320732127656789
 40
0.3673114055955802
 40
0.4143754465579305
 40
0.4617390892708161
 40
0.5098751592282224
 40
0.5590516565458004
 40
0.6088563006787263
 40
0.6598209377774447
 40
0.7101638511224724
 40
0.7581109397054279
 40
0.8038250829240137
 40
0.8472148170927097
 40
0.888498376103938
 40
0.9278394503283592
 40
0.964961640287162
 40
1.0
 40
1.0
 40
1.0
 40
1.0
 10
555.2698892405064
 20
564.3122349683543
 30
0.0
 10
555.2689879847991
 20
564.2968597747932
 30
0.0
 10
555.2671357958308
 20
564.2652619012171
 30
0.0
 10
555.2561049710213
 20
564.2173610230154
 30
0.0
 10
555.2359530042821
 20
564.1693114427835
 30
0.0
 10
555.2097243114795
 20
564.1198295656397
 30
0.0
 10
555.1749703526403
 20
564.070226048368
 30
0.0
 10
555.1340177906154
 20
564.01869912416
 30
0.0
 10
555.0838040054065
 20
563.9678932816178
 30
0.0
 10
555.028441785395
 20
563.9152864180318
 30
0.0
 10
554.9670056033821
 20
563.8646927381776
 30
0.0
 10
554.902319037742
 20
563.81585520857
 30
0.0
 10
554.8338915525687
 20
563.7712683803834
 30
0.0
 10
554.7631089241703
 20
563.7287714024685
 30
0.0
 10
554.6886490069422
 20
563.6903073561659
 30
0.0
 10
554.6111526147912
 20
563.6549428871231
 30
0.0
 10
554.5308302878568
 20
563.6219395671957
 30
0.0
 10
554.448110890947
 20
563.5933451852181
 30
0.0
 10
554.3654089890045
 20
563.5683280106675
 30
0.0
 10
554.2853558298348
 20
563.5449905437878
 30
0.0
 10
554.2081486874431
 20
563.5266644379319
 30
0.0
 10
554.1344543932842
 20
563.5102366566514
 30
0.0
 10
554.0635648124994
 20
563.4987432996152
 30
0.0
 10
553.9960269347337
 20
563.4893996879408
 30
0.0
 10
553.9316165464497
 20
563.4845234039473
 30
0.0
 10
553.8898520176004
 20
563.483512841679
 30
0.0
 10
553.8695727848102
 20
563.4830221518987
 30
0.0
  0
SPLINE
  5
95
330
1F
100
AcDbEntity
  8
0
  6
CONTINUOUS
 62
     7
100
AcDbSpline
210
0.0
220
0.0
230
1.0
 70
     8
 71
     3
 72
    15
 73
    11
 74
     0
 42
0.00000001
 43
0.00000001
 40
0.0
 40
0.0
 40
0.0
 40
0.0
 40
0.1984446657555556
 40
0.3734443969661292
 40
0.524282681394445
 40
0.6537366348820628
 40
0.7627768757008634
 40
0.8524969705220531
 40
0.927995397492058
 40
1.0
 40
1.0
 40
1.0
 40
1.0
 10
553.8695727848102
 20
563.4830221518987
 30
0.0
 10
553.8385670715154
 20
563.4835749831619
 30
0.0
 10
553.7802187664107
 20
563.4846153323039
 30
0.0
 10
553.6985926929021
 20
563.4925803725123
 30
0.0
 10
553.6286607690457
 20
563.5065084047923
 30
0.0
 10
553.5709072908301
 20
563.525956521994
 30
0.0
 10
553.5248651561365
 20
563.5495281711716
 30
0.0
 10
553.4923267062031
 20
563.577594763594
 30
0.0
 10
553.4698514902356
 20
563.6085953847519
 30
0.0
 10
553.4673250641505
 20
563.6318674378285
 30
0.0
 10
553.466091772152
 20
563.6432278481012
 30
0.0
  0
SPLINE
  5
96
330
1F
100
AcDbEntity
  8
0
  6
CONTINUOUS
 62
     7
100
AcDbSpline
210
0.0
220
0.0
230
1.0
 70
     8
 71
     3
 72
    15
 73
    11
 74
     0
 42
0.00000001
 43
0.00000001
 40
0.0
 40
0.0
 40
0.0
 40
0.0
 40
0.1170306000903515
 40
0.2472962559389519
 40
0.3928079778595165
 40
0.5569854640313227
 40
0.7125324771188212
 40
0.8346170633005645
 40
0.9254073358065
 40
1.0
 40
1.0
 40
1.0
 40
1.0
 10
553.466091772152
 20
563.6432278481012
 30
0.0
 10
553.4665535500449
 20
563.6518205175165
 30
0.0
 10
553.4675293285496
 20
563.669977606118
 30
0.0
 10
553.4732816703928
 20
563.6983505333811
 30
0.0
 10
553.4829440752189
 20
563.7292345669133
 30
0.0
 10
553.4956749888411
 20
563.7609174580126
 30
0.0
 10
553.5095613152735
 20
563.7904760263882
 30
0.0
 10
553.52523847939
 20
563.8123604872393
 30
0.0
 10
553.5408989113349
 20
563.8277851339597
 30
0.0
 10
553.5530676877763
 20
563.8300857643987
 30
0.0
 10
553.5585561708862
 20
563.8311234177214
 30
0.0
  0
SPLINE
  5
97
330
1F
100
AcDbEntity
  8
0
  6
CONTINUOUS
 62
     7
100
AcDbSpline
210
0.0
220
0.0
230
1.0
 70
     8
 71
     3
 72
     9
 73
     5
 74
     0
 42
0.00000001
 43
0.00000001
 40
0.0
 40
0.0
 40
0.0
 40
0.0
 40
0.4883000061021267
 40
1.0
 40
1.0
 40
1.0
 40
1.0
 10
553.5585561708862
 20
563.8311234177214
 30
0.0
 10
553.5696456490386
 20
563.8306357200464
 30
0.0
 10
553.5923560279324
 20
563.8296369535732
 30
0.0
 10
553.6144814354417
 20
563.8244055489528
 30
0.0
 10
553.6258030063292
 20
563.8217286392404
 30
0.0
  0
SPLINE
  5
98
330
1F
100
AcDbEntity
  8
0
  6
CONTINUOUS
 62
     7
100
AcDbSpline
210
0.0
220
0.0
230
1.0
 70
     8
 71
     3
 72
    11
 73
     7
 74
     0
 42
0.00000001
 43
0.00000001
 40
0.0
 40
0.0
 40
0.0
 40
0.0
 40
0.2568163581425295
 40
0.5078901108138693
 40
0.7560251358366706
 40
1.0
 40
1.0
 40
1.0
 40
1.0
 10
553.6258030063292
 20
563.8217286392404
 30
0.0
 10
553.6550276349168
 20
563.8133554453467
 30
0.0
 10
553.7128234075818
 20
563.7967962884251
 30
0.0
 10
553.8008374018968
 20
563.7802125920365
 30
0.0
 10
553.8882834180292
 20
563.7699997465878
 30
0.0
 10
553.9465170083824
 20
563.7685506845266
 30
0.0
 10
553.975387658228
 20
563.7678322784809
 30
0.0
  0
SPLINE
  5
99
330
1F
100
AcDbEntity
  8
0
  6
CONTINUOUS
 62
     7
100
AcDbSpline
210
0.0
220
0.0
230
1.0
 70
     8
 71
     3
 72
    23
 73
    19
 74
     0
 42
0.00000001
 43
0.00000001
 40
0.0
 40
0.0
 40
0.0
 40
0.0
 40
0.0648850795210761
 40
0.1313661686139172
 40
0.1997108274842596
 40
0.2694808456513929
 40
0.3417722593338249
 40
0.4168440439772668
 40
0.4943864648589517
 40
0.5747696252415212
 40
0.6528530966492507
 40
0.722631562207291
 40
0.7848454932342857
 40
0.8394754935472449
 40
0.8871207625166909
 40
0.9290126120374647
 40
0.9660482970018895
 40
1.0
 40
1.0
 40
1.0
 40
1.0
 10
553.975387658228
 20
563.7678322784809
 30
0.0
 10
554.0014557468932
 20
563.768405179639
 30
0.0
 10
554.0542331335637
 20
563.769565073881
 30
0.0
 10
554.1339745726792
 20
563.7791058067837
 30
0.0
 10
554.2149834855774
 20
563.7931401259618
 30
0.0
 10
554.2970094749135
 20
563.8137721017525
 30
0.0
 10
554.3802166051469
 20
563.8400497752388
 30
0.0
 10
554.4646107691451
 20
563.8723726533136
 30
0.0
 10
554.5503881959828
 20
563.909900604462
 30
0.0
 10
554.6349264340345
 20
563.9528371836667
 30
0.0
 10
554.7152521955904
 20
563.9971290040029
 30
0.0
 10
554.7861279391844
 20
564.0429608651696
 30
0.0
 10
554.8470832415961
 20
564.0867835505159
 30
0.0
 10
554.8960784370946
 20
564.1311821120976
 30
0.0
 10
554.9360581317989
 20
564.1733895461754
 30
0.0
 10
554.9635390174889
 20
564.2163566237193
 30
0.0
 10
554.9815964372328
 20
564.2586174001183
 30
0.0
 10
554.9839523383482
 20
564.2871945302915
 30
0.0
 10
554.9850791139241
 20
564.3008623417721
 30
0.0
  0
SPLINE
  5
9A
330
1F
100
AcDbEntity
  8
0
  6
CONTINUOUS
 62
     7
100
AcDbSpline
210
0.0
220
0.0
230
1.0
 70
     8
 71
     3
 72
    23
 73
    19
 74
     0
 42
0.00000001
 43
0.00000001
 40
0.0
 40
0.0
 40
0.0
 40
0.0
 40
0.1202604878273059
 40
0.230056990350407
 40
0.3285362921870905
 40
0.4162795107041398
 40
0.4941225359032697
 40
0.5614474234184749
 40
0.6194587604330427
 40
0.6687713420014979
 40
0.7133415212188527
 40
0.7567205589736324
 40
0.7985959432570687
 40
0.8397981679485609
 40
0.8802211695534092
 40
0.9201713139342356
 40
0.9600227549045021
 40
1.0
 40
1.0
 40
1.0
 40
1.0
 10
554.341289556962
 20
564.6356131329113
 30
0.0
 10
554.2988333183434
 20
564.6495038382131
 30
0.0
 10
554.2176150008837
 20
564.6760766046579
 30
0.0
 10
554.1031558551276
 20
564.7184748298416
 30
0.0
 10
554.0014808727736
 20
564.7603858246383
 30
0.0
 10
553.9125030966616
 20
564.801748139215
 30
0.0
 10
553.8363122888779
 20
564.8428683157052
 30
0.0
 10
553.7727948074375
 20
564.8837734527668
 30
0.0
 10
553.7220462176001
 20
564.9244949167476
 30
0.0
 10
553.6838248792624
 20
564.9662907676128
 30
0.0
 10
553.6547094567065
 20
565.0082487422865
 30
0.0
 10
553.630157378235
 20
565.0497675202367
 30
0.0
 10
553.6084202359124
 20
565.09146032266
 30
0.0
 10
553.5912095811088
 20
565.1340468755101
 30
0.0
 10
553.5776818410196
 20
565.1771956198312
 30
0.0
 10
553.5684759636083
 20
565.2209297993554
 30
0.0
 10
553.5621278429215
 20
565.2650436280569
 30
0.0
 10
553.5613953197832
 20
565.2947088748833
 30
0.0
 10
553.5610284810127
 20
565.3095648734177
 30
0.0
  0
SPLINE
  5
9B
330
1F
100
AcDbEntity
  8
0
  6
CONTINUOUS
 62
     7
100
AcDbSpline
210
0.0
220
0.0
230
1.0
 70
     8
 71
     3
 72
    23
 73
    19
 74
     0
 42
0.00000001
 43
0.00000001
 40
0.0
 40
0.0
 40
0.0
 40
0.0
 40
0.0529078373585259
 40
0.1045436191716327
 40
0.156176603535632
 40
0.2088107211988763
 40
0.2638794542937091
 40
0.3225161491380377
 40
0.3855768738504264
 40
0.4535935654087756
 40
0.5238163604431681
 40
0.5932087239270535
 40
0.6614254535758597
 40
0.7294980452995188
 40
0.7968824860506116
 40
0.8643818680575591
 40
0.9320059646246692
 40
1.0
 40
1.0
 40
1.0
 40
1.0
 10
553.5610284810127
 20
565.3095648734177
 30
0.0
 10
553.5622580483292
 20
565.3376938049045
 30
0.0
 10
553.5646876206516
 20
565.3932753680127
 30
0.0
 10
553.5842948150943
 20
565.4743934738116
 30
0.0
 10
553.6156478201981
 20
565.5513317695327
 30
0.0
 10
553.6598471688716
 20
565.6239550619453
 30
0.0
 10
553.7172285729389
 20
565.691525524568
 30
0.0
 10
553.7866952452264
 20
565.7549877323263
 30
0.0
 10
553.8683146736571
 20
565.8144292312215
 30
0.0
 10
553.9610096514953
 20
565.8679953693731
 30
0.0
 10
554.0600947517519
 20
565.9165505856487
 30
0.0
 10
554.1618557898244
 20
565.959448025254
 30
0.0
 10
554.2646644667095
 20
565.9966282191276
 30
0.0
 10
554.3688906676821
 20
566.0258664071166
 30
0.0
 10
554.4741207101565
 20
566.0495804021238
 30
0.0
 10
554.5805543127146
 20
566.0655670289008
 30
0.0
 10
554.6880336537184
 20
566.075886306957
 30
0.0
 10
554.7600754595877
 20
566.0772667542984
 30
0.0
 10
554.7961946202532
 20
566.0779588607594
 30
0.0
  0
SPLINE
  5
9C
330
1F
100
AcDbEntity
  8
0
  6
CONTINUOUS
 62
     7
100
AcDbSpline
210
0.0
220
0.0
230
1.0
 70
     8
 71
     3
 72
    19
 73
    15
 74
     0
 42
0.00000001
 43
0.00000001
 40
0.0
 40
0.0
 40
0.0
 40
0.0
 40
0.0780816716274007
 40
0.1736334959013134
 40
0.2881350551272825
 40
0.4199362476915376
 40
0.4885086156638965
 40
0.5536153447978787
 40
0.6175251120867659
 40
0.6833419642715345
 40
0.7535718410379423
 40
0.8282388323455994
 40
0.9107937205238668
 40
0.9999999999999999
 40
0.9999999999999999
 40
0.9999999999999999
 40
0.9999999999999999
 10
555.3964715189874
 20
565.7738647151899
 30
0.0
 10
555.395818061074
 20
565.7636291221199
 30
0.0
 10
555.3943649392393
 20
565.7408678034866
 30
0.0
 10
555.3877526160682
 20
565.7035080674216
 30
0.0
 10
555.3750604795918
 20
565.6604281873629
 30
0.0
 10
555.3633779777906
 20
565.620763022944
 30
0.0
 10
555.3500043490718
 20
565.5884425947211
 30
0.0
 10
555.3354074929591
 20
565.5667511303994
 30
0.0
 10
555.3171282424433
 20
565.548682164328
 30
0.0
 10
555.2955483684395
 20
565.5334400405619
 30
0.0
 10
555.2700058189942
 20
565.5224646930322
 30
0.0
 10
555.2413653169888
 20
565.5138025560868
 30
0.0
 10
555.2092290801452
 20
565.5090297573373
 30
0.0
 10
555.1866692549326
 20
565.5085748627208
 30
0.0
 10
555.1749525316457
 20
565.5083386075949
 30
0.0
  0
SPLINE
  5
9D
330
1F
100
AcDbEntity
  8
0
  6
CONTINUOUS
 62
     7
100
AcDbSpline
210
0.0
220
0.0
230
1.0
 70
     8
 71
     3
 72
    23
 73
    19
 74
     0
 42
0.00000001
 43
0.00000001
 40
0.0
 40
0.0
 40
0.0
 40
0.0
 40
0.0958683016659226
 40
0.1865191645021155
 40
0.2714967569773465
 40
0.3510669329067843
 40
0.4262081135181763
 40
0.4972862415327488
 40
0.5641124988473006
 40
0.6278398847965513
 40
0.6873758759332962
 40
0.7421947502222325
 40
0.792329780494067
 40
0.8383076432747523
 40
0.881742901201528
 40
0.9222472216422004
 40
0.9613785008926936
 40
1.0
 40
1.0
 40
1.0
 40
1.0
 10
554.7961946202532
 20
566.0779588607594
 30
0.0
 10
554.8196065550683
 20
566.0776897531474
 30
0.0
 10
554.8651562773974
 20
566.0771661835621
 30
0.0
 10
554.9313360207979
 20
566.0726790850306
 30
0.0
 10
554.993255016942
 20
566.0654069830892
 30
0.0
 10
555.0509022417791
 20
566.05505670602
 30
0.0
 10
555.104456368105
 20
566.0417713329513
 30
0.0
 10
555.1539578484841
 20
566.0256051629725
 30
0.0
 10
555.1993422567067
 20
566.0063117072021
 30
0.0
 10
555.240105137845
 20
565.9839979094562
 30
0.0
 10
555.2767366992031
 20
565.9604789080383
 30
0.0
 10
555.3084451204111
 20
565.9357410017849
 30
0.0
 10
555.3354510692279
 20
565.9105555536623
 30
0.0
 10
555.3575268661115
 20
565.8845239545261
 30
0.0
 10
555.3752213046148
 20
565.8580119231642
 30
0.0
 10
555.3870261248619
 20
565.8302716089215
 30
0.0
 10
555.3950654238456
 20
565.8023350960474
 30
0.0
 10
555.3960048737506
 20
565.7833132704275
 30
0.0
 10
555.3964715189874
 20
565.7738647151899
 30
0.0
  0
SPLINE
  5
9E
330
1F
100
AcDbEntity
  8
0
  6
CONTINUOUS
 62
     7
100
AcDbSpline
210
0.0
220
0.0
230
1.0
 70
     8
 71
     3
 72
    19
 73
    15
 74
     0
 42
0.00000001
 43
0.00000001
 40
0.0
 40
0.0
 40
0.0
 40
0.0
 40
0.0461781210989776
 40
0.0984003427961238
 40
0.1602534779019158
 40
0.2350438418558285
 40
0.2827061595776839
 40
0.3444893250512305
 40
0.4193635007112011
 40
0.5076638623059145
 40
0.6098157648626481
 40
0.726300779348117
 40
0.8560783436846063
 40
1.0
 40
1.0
 40
1.0
 40
1.0
 10
554.9850791139241
 20
564.3008623417721
 30
0.0
 10
554.9837759308921
 20
564.3125114431583
 30
0.0
 10
554.9809989955377
 20
564.3373343580452
 30
0.0
 10
554.9578528085299
 20
564.3716271241144
 30
0.0
 10
554.9237350035125
 20
564.4044383101145
 30
0.0
 10
554.8850243377022
 20
564.430186471815
 30
0.0
 10
554.8440829937659
 20
564.451517962798
 30
0.0
 10
554.8022638328239
 20
564.4711933461599
 30
0.0
 10
554.7501048099331
 20
564.4926130674723
 30
0.0
 10
554.6882661048659
 20
564.5170699347266
 30
0.0
 10
554.6157864025857
 20
564.5428560588998
 30
0.0
 10
554.533557694557
 20
564.5722247594236
 30
0.0
 10
554.4408138841459
 20
564.6032328336514
 30
0.0
 10
554.375587904583
 20
564.6244541450386
 30
0.0
 10
554.341289556962
 20
564.6356131329113
 30
0.0
  0
LINE
  5
9F
330
1F
100
AcDbEntity
  8
0
  6
CONTINUOUS
 62
     7
100
AcDbLine
 10
547.44875
 20
445.89125
 30
0.0
 11
547.44875
 21
446.39125
 31
0.0
  0
LINE
  5
A0
330
1F
100
AcDbEntity
  8
0
  6
CONTINUOUS
 62
     7
100
AcDbLine
 10
547.07875
 20
445.89125
 30
0.0
 11
547.44875
 21
445.89125
 31
0.0
  0
LINE
  5
A1
330
1F
100
AcDbEntity
  8
0
  6
CONTINUOUS
 62
     7
100
AcDbLine
 10
547.07875
 20
446.39125
 30
0.0
 11
547.07875
 21
445.89125
 31
0.0
  0
LINE
  5
A2
330
1F
100
AcDbEntity
  8
0
  6
CONTINUOUS
 62
     7
100
AcDbLine
 10
547.44875
 20
446.39125
 30
0.0
 11
547.07875
 21
446.39125
 31
0.0
  0
LINE
  5
A3
330
1F
100
AcDbEntity
  8
0
  6
CONTINUOUS
 62
     7
100
AcDbLine
 10
547.44875
 20
568.89125
 30
0.0
 11
547.07875
 21
568.89125
 31
0.0
  0
LINE
  5
A4
330
1F
100
AcDbEntity
  8
0
  6
CONTINUOUS
 62
     7
100
AcDbLine
 10
547.44875
 20
568.39125
 30
0.0
 11
547.44875
 21
568.89125
 31
0.0
  0
LINE
  5
A5
330
1F
100
AcDbEntity
  8
0
  6
CONTINUOUS
 62
     7
100
AcDbLine
 10
547.07875
 20
568.39125
 30
0.0
 11
547.44875
 21
568.39125
 31
0.0
  0
LINE
  5
A6
330
1F
100
AcDbEntity
  8
0
  6
CONTINUOUS
 62
     7
100
AcDbLine
 10
547.07875
 20
568.89125
 30
0.0
 11
547.07875
 21
568.39125
 31
0.0
  0
LINE
  5
A7
330
1F
100
AcDbEntity
  8
0
  6
CONTINUOUS
 62
     7
100
AcDbLine
 10
551.44875
 20
568.39125
 30
0.0
 11
556.87875
 21
568.39125
 31
0.0
  0
LINE
  5
A8
330
1F
100
AcDbEntity
  8
0
  6
CONTINUOUS
 62
     7
100
AcDbLine
 10
551.44875
 20
568.89125
 30
0.0
 11
551.44875
 21
568.39125
 31
0.0
  0
LINE
  5
A9
330
1F
100
AcDbEntity
  8
0
  6
CONTINUOUS
 62
     7
100
AcDbLine
 10
556.87875
 20
568.89125
 30
0.0
 11
551.44875
 21
568.89125
 31
0.0
  0
LINE
  5
AA
330
1F
100
AcDbEntity
  8
0
  6
CONTINUOUS
 62
     7
100
AcDbLine
 10
556.87875
 20
568.39125
 30
0.0
 11
556.87875
 21
568.89125
 31
0.0
  0
LINE
  5
AB
330
1F
100
AcDbEntity
  8
0
  6
CONTINUOUS
 62
     7
100
AcDbLine
 10
551.44875
 20
445.89125
 30
0.0
 11
556.87875
 21
445.89125
 31
0.0
  0
LINE
  5
AC
330
1F
100
AcDbEntity
  8
0
  6
CONTINUOUS
 62
     7
100
AcDbLine
 10
551.44875
 20
446.39125
 30
0.0
 11
551.44875
 21
445.89125
 31
0.0
  0
LINE
  5
AD
330
1F
100
AcDbEntity
  8
0
  6
CONTINUOUS
 62
     7
100
AcDbLine
 10
556.87875
 20
446.39125
 30
0.0
 11
551.44875
 21
446.39125
 31
0.0
  0
LINE
  5
AE
330
1F
100
AcDbEntity
  8
0
  6
CONTINUOUS
 62
     7
100
AcDbLine
 10
556.87875
 20
445.89125
 30
0.0
 11
556.87875
 21
446.39125
 31
0.0
  0
LINE
  5
AF
330
1F
100
AcDbEntity
  8
0
  6
CONTINUOUS
 62
     7
100
AcDbLine
 10
556.87875
 20
507.64125
 30
0.0
 11
547.07875
 21
507.64125
 31
0.0
  0
LINE
  5
B0
330
1F
100
AcDbEntity
  8
0
  6
CONTINUOUS
 62
     7
100
AcDbLine
 10
547.07875
 20
507.14125
 30
0.0
 11
556.87875
 21
507.14125
 31
0.0
  0
LINE
  5
B1
330
1F
100
AcDbEntity
  8
0
  6
CONTINUOUS
 62
     7
100
AcDbLine
 10
547.07875
 20
507.64125
 30
0.0
 11
547.07875
 21
507.14125
 31
0.0
  0
LINE
  5
B2
330
1F
100
AcDbEntity
  8
0
  6
CONTINUOUS
 62
     7
100
AcDbLine
 10
556.87875
 20
507.14125
 30
0.0
 11
556.87875
 21
507.64125
 31
0.0
  0
LINE
  5
B3
330
1F
100
AcDbEntity
  8
0
  6
CONTINUOUS
 62
     7
100
AcDbLine
 10
552.62875
 20
508.51125
 30
0.0
 11
554.62875
 21
510.51125
 31
0.0
  0
LINE
  5
B4
330
1F
100
AcDbEntity
  8
0
  6
CONTINUOUS
 62
     7
100
AcDbLine
 10
554.62875
 20
510.51125
 30
0.0
 11
550.62875
 21
510.51125
 31
0.0
  0
LINE
  5
B5
330
1F
100
AcDbEntity
  8
0
  6
CONTINUOUS
 62
     7
100
AcDbLine
 10
550.62875
 20
510.51125
 30
0.0
 11
552.62875
 21
508.51125
 31
0.0
  0
ARC
  5
B6
330
1F
100
AcDbEntity
  8
0
  6
CONTINUOUS
 62
     7
100
AcDbCircle
 10
556.12875
 20
508.46125
 30
0.0
 40
0.4500000000000455
100
AcDbArc
 50
270.0
 51
0.0
  0
LINE
  5
B7
330
1F
100
AcDbEntity
  8
0
  6
CONTINUOUS
 62
     7
100
AcDbLine
 10
549.12875
 20
508.01125
 30
0.0
 11
556.12875
 21
508.01125
 31
0.0
  0
ARC
  5
B8
330
1F
100
AcDbEntity
  8
0
  6
CONTINUOUS
 62
     7
100
AcDbCircle
 10
549.12875
 20
508.46125
 30
0.0
 40
0.4500000000000455
100
AcDbArc
 50
180.0
 51
270.0
  0
LINE
  5
B9
330
1F
100
AcDbEntity
  8
0
  6
CONTINUOUS
 62
     7
100
AcDbLine
 10
548.67875
 20
518.51125
 30
0.0
 11
548.67875
 21
508.46125
 31
0.0
  0
ARC
  5
BA
330
1F
100
AcDbEntity
  8
0
  6
CONTINUOUS
 62
     7
100
AcDbCircle
 10
549.12875
 20
518.51125
 30
0.0
 40
0.4499999999999318
100
AcDbArc
 50
90.0
 51
180.0
  0
LINE
  5
BB
330
1F
100
AcDbEntity
  8
0
  6
CONTINUOUS
 62
     7
100
AcDbLine
 10
556.12875
 20
518.96125
 30
0.0
 11
549.12875
 21
518.96125
 31
0.0
  0
ARC
  5
BC
330
1F
100
AcDbEntity
  8
0
  6
CONTINUOUS
 62
     7
100
AcDbCircle
 10
556.12875
 20
518.51125
 30
0.0
 40
0.4500000000000455
100
AcDbArc
 50
0.0
 51
90.0
  0
LINE
  5
BD
330
1F
100
AcDbEntity
  8
0
  6
CONTINUOUS
 62
     7
100
AcDbLine
 10
556.57875
 20
508.46125
 30
0.0
 11
556.57875
 21
518.51125
 31
0.0
  0
CIRCLE
  5
BE
330
1F
100
AcDbEntity
  8
0
  6
CONTINUOUS
 62
     7
100
AcDbCircle
 10
552.62875
 20
515.01125
 30
0.0
 40
3.100000000000023
  0
LINE
  5
BF
330
1F
100
AcDbEntity
  8
0
  6
CONTINUOUS
 62
     7
100
AcDbLine
 10
548.37875
 20
538.22625
 30
0.0
 11
548.37875
 21
537.92625
 31
0.0
  0
LINE
  5
C0
330
1F
100
AcDbEntity
  8
0
  6
CONTINUOUS
 62
     7
100
AcDbLine
 10
551.0622416012
 20
538.22625
 30
0.0
 11
548.37875
 21
538.22625
 31
0.0
  0
LINE
  5
C1
330
1F
100
AcDbEntity
  8
0
  6
CONTINUOUS
 62
     7
100
AcDbLine
 10
554.2343188558
 20
539.7054139161
 30
0.0
 11
551.0622416012
 21
538.22625
 31
0.0
  0
LINE
  5
C2
330
1F
100
AcDbEntity
  8
0
  6
CONTINUOUS
 62
     7
100
AcDbLine
 10
554.3611043344
 20
539.43352158
 30
0.0
 11
554.2343188558
 21
539.7054139161
 31
0.0
  0
LINE
  5
C3
330
1F
100
AcDbEntity
  8
0
  6
CONTINUOUS
 62
     7
100
AcDbLine
 10
551.12875
 20
537.92625
 30
0.0
 11
554.3611043344
 21
539.43352158
 31
0.0
  0
LINE
  5
C4
330
1F
100
AcDbEntity
  8
0
  6
CONTINUOUS
 62
     7
100
AcDbLine
 10
548.37875
 20
537.92625
 30
0.0
 11
551.12875
 21
537.92625
 31
0.0
  0
LINE
  5
C5
330
1F
100
AcDbEntity
  8
0
  6
CONTINUOUS
 62
     7
100
AcDbLine
 10
552.62875
 20
556.34125
 30
0.0
 11
554.62875
 21
558.34125
 31
0.0
  0
LINE
  5
C6
330
1F
100
AcDbEntity
  8
0
  6
CONTINUOUS
 62
     7
100
AcDbLine
 10
550.62875
 20
558.34125
 30
0.0
 11
552.62875
 21
556.34125
 31
0.0
  0
LINE
  5
C7
330
1F
100
AcDbEntity
  8
0
  6
CONTINUOUS
 62
     7
100
AcDbLine
 10
554.62875
 20
558.34125
 30
0.0
 11
550.62875
 21
558.34125
 31
0.0
  0
LINE
  5
C8
330
1F
100
AcDbEntity
  8
0
  6
CONTINUOUS
 62
     7
100
AcDbLine
 10
556.57875
 20
537.92625
 30
0.0
 11
556.57875
 21
538.22625
 31
0.0
  0
LINE
  5
C9
330
1F
100
AcDbEntity
  8
0
  6
CONTINUOUS
 62
     7
100
AcDbLine
 10
554.12875
 20
537.92625
 30
0.0
 11
556.57875
 21
537.92625
 31
0.0
  0
LINE
  5
CA
330
1F
100
AcDbEntity
  8
0
  6
CONTINUOUS
 62
     7
100
AcDbLine
 10
556.57875
 20
538.22625
 30
0.0
 11
554.12875
 21
538.22625
 31
0.0
  0
LINE
  5
CB
330
1F
100
AcDbEntity
  8
0
  6
CONTINUOUS
 62
     7
100
AcDbLine
 10
554.12875
 20
538.22625
 30
0.0
 11
554.12875
 21
537.92625
 31
0.0
  0
LINE
  5
CC
330
1F
100
AcDbEntity
  8
0
  6
CONTINUOUS
 62
     7
100
AcDbLine
 10
552.62875
 20
503.63625
 30
0.0
 11
554.62875
 21
505.63625
 31
0.0
  0
LINE
  5
CD
330
1F
100
AcDbEntity
  8
0
  6
CONTINUOUS
 62
     7
100
AcDbLine
 10
550.62875
 20
505.63625
 30
0.0
 11
552.62875
 21
503.63625
 31
0.0
  0
LINE
  5
CE
330
1F
100
AcDbEntity
  8
0
  6
CONTINUOUS
 62
     7
100
AcDbLine
 10
554.62875
 20
505.63625
 30
0.0
 11
550.62875
 21
505.63625
 31
0.0
  0
LINE
  5
CF
330
1F
100
AcDbEntity
  8
0
  6
CONTINUOUS
 62
     7
100
AcDbLine
 10
548.37875
 20
485.52125
 30
0.0
 11
548.37875
 21
485.22125
 31
0.0
  0
LINE
  5
D0
330
1F
100
AcDbEntity
  8
0
  6
CONTINUOUS
 62
     7
100
AcDbLine
 10
551.0622416012
 20
485.52125
 30
0.0
 11
548.37875
 21
485.52125
 31
0.0
  0
LINE
  5
D1
330
1F
100
AcDbEntity
  8
0
  6
CONTINUOUS
 62
     7
100
AcDbLine
 10
551.12875
 20
485.22125
 30
0.0
 11
554.3611043344
 21
486.72852158
 31
0.0
  0
LINE
  5
D2
330
1F
100
AcDbEntity
  8
0
  6
CONTINUOUS
 62
     7
100
AcDbLine
 10
554.2343188558
 20
487.0004139161
 30
0.0
 11
551.0622416012
 21
485.52125
 31
0.0
  0
LINE
  5
D3
330
1F
100
AcDbEntity
  8
0
  6
CONTINUOUS
 62
     7
100
AcDbLine
 10
554.3611043344
 20
486.72852158
 30
0.0
 11
554.2343188558
 21
487.0004139161
 31
0.0
  0
LINE
  5
D4
330
1F
100
AcDbEntity
  8
0
  6
CONTINUOUS
 62
     7
100
AcDbLine
 10
548.37875
 20
485.22125
 30
0.0
 11
551.12875
 21
485.22125
 31
0.0
  0
LINE
  5
D5
330
1F
100
AcDbEntity
  8
0
  6
CONTINUOUS
 62
     7
100
AcDbLine
 10
556.57875
 20
455.75625
 30
0.0
 11
556.57875
 21
465.80625
 31
0.0
  0
ARC
  5
D6
330
1F
100
AcDbEntity
  8
0
  6
CONTINUOUS
 62
     7
100
AcDbCircle
 10
556.12875
 20
465.80625
 30
0.0
 40
0.4500000000000455
100
AcDbArc
 50
0.0
 51
90.0
  0
LINE
  5
D7
330
1F
100
AcDbEntity
  8
0
  6
CONTINUOUS
 62
     7
100
AcDbLine
 10
552.62875
 20
455.80625
 30
0.0
 11
554.62875
 21
457.80625
 31
0.0
  0
LINE
  5
D8
330
1F
100
AcDbEntity
  8
0
  6
CONTINUOUS
 62
     7
100
AcDbLine
 10
550.62875
 20
457.80625
 30
0.0
 11
552.62875
 21
455.80625
 31
0.0
  0
ARC
  5
D9
330
1F
100
AcDbEntity
  8
0
  6
CONTINUOUS
 62
     7
100
AcDbCircle
 10
549.12875
 20
455.75625
 30
0.0
 40
0.4499999999999318
100
AcDbArc
 50
180.0
 51
270.0
  0
LINE
  5
DA
330
1F
100
AcDbEntity
  8
0
  6
CONTINUOUS
 62
     7
100
AcDbLine
 10
548.67875
 20
465.80625
 30
0.0
 11
548.67875
 21
455.75625
 31
0.0
  0
ARC
  5
DB
330
1F
100
AcDbEntity
  8
0
  6
CONTINUOUS
 62
     7
100
AcDbCircle
 10
549.12875
 20
465.80625
 30
0.0
 40
0.4499999999999318
100
AcDbArc
 50
90.0
 51
180.0
  0
LINE
  5
DC
330
1F
100
AcDbEntity
  8
0
  6
CONTINUOUS
 62
     7
100
AcDbLine
 10
554.62875
 20
457.80625
 30
0.0
 11
550.62875
 21
457.80625
 31
0.0
  0
ARC
  5
DD
330
1F
100
AcDbEntity
  8
0
  6
CONTINUOUS
 62
     7
100
AcDbCircle
 10
556.12875
 20
455.75625
 30
0.0
 40
0.4500000000000455
100
AcDbArc
 50
270.0
 51
0.0
  0
LINE
  5
DE
330
1F
100
AcDbEntity
  8
0
  6
CONTINUOUS
 62
     7
100
AcDbLine
 10
549.12875
 20
455.30625
 30
0.0
 11
556.12875
 21
455.30625
 31
0.0
  0
LINE
  5
DF
330
1F
100
AcDbEntity
  8
0
  6
CONTINUOUS
 62
     7
100
AcDbLine
 10
556.12875
 20
466.25625
 30
0.0
 11
549.12875
 21
466.25625
 31
0.0
  0
CIRCLE
  5
E0
330
1F
100
AcDbEntity
  8
0
  6
CONTINUOUS
 62
     7
100
AcDbCircle
 10
552.62875
 20
462.30625
 30
0.0
 40
3.100000000000023
  0
LINE
  5
E1
330
1F
100
AcDbEntity
  8
0
  6
CONTINUOUS
 62
     7
100
AcDbLine
 10
554.12875
 20
485.22125
 30
0.0
 11
556.57875
 21
485.22125
 31
0.0
  0
LINE
  5
E2
330
1F
100
AcDbEntity
  8
0
  6
CONTINUOUS
 62
     7
100
AcDbLine
 10
554.12875
 20
485.52125
 30
0.0
 11
554.12875
 21
485.22125
 31
0.0
  0
LINE
  5
E3
330
1F
100
AcDbEntity
  8
0
  6
CONTINUOUS
 62
     7
100
AcDbLine
 10
556.57875
 20
485.52125
 30
0.0
 11
554.12875
 21
485.52125
 31
0.0
  0
LINE
  5
E4
330
1F
100
AcDbEntity
  8
0
  6
CONTINUOUS
 62
     7
100
AcDbLine
 10
556.57875
 20
485.22125
 30
0.0
 11
556.57875
 21
485.52125
 31
0.0
  0
CIRCLE
  5
E5
330
1F
100
AcDbEntity
  8
0
  6
CONTINUOUS
 62
     7
100
AcDbCircle
 10
552.62875
 20
551.84125
 30
0.0
 40
3.100000000000023
  0
CIRCLE
  5
E6
330
1F
100
AcDbEntity
  8
0
  6
CONTINUOUS
 62
     7
100
AcDbCircle
 10
552.62875
 20
524.53625
 30
0.0
 40
1.599999999999909
  0
CIRCLE
  5
E7
330
1F
100
AcDbEntity
  8
0
  6
CONTINUOUS
 62
     7
100
AcDbCircle
 10
549.44875
 20
568.64125
 30
0.0
 40
1.600000000000023
  0
LINE
  5
E8
330
1F
100
AcDbEntity
  8
0
  6
CONTINUOUS
 62
     7
100
AcDbLine
 10
556.87875
 20
571.64125
 30
0.0
 11
547.07875
 21
571.64125
 31
0.0
  0
CIRCLE
  5
E9
330
1F
100
AcDbEntity
  8
0
  6
CONTINUOUS
 62
     7
100
AcDbCircle
 10
552.62875
 20
533.42625
 30
0.0
 40
3.100000000000023
  0
LINE
  5
EA
330
1F
100
AcDbEntity
  8
0
  6
CONTINUOUS
 62
     7
100
AcDbLine
 10
547.07875
 20
571.64125
 30
0.0
 11
547.07875
 21
568.89125
 31
0.0
  0
LINE
  5
EB
330
1F
100
AcDbEntity
  8
0
  6
CONTINUOUS
 62
     7
100
AcDbLine
 10
547.07875
 20
568.39125
 30
0.0
 11
547.07875
 21
507.64125
 31
0.0
  0
LINE
  5
EC
330
1F
100
AcDbEntity
  8
0
  6
CONTINUOUS
 62
     7
100
AcDbLine
 10
556.87875
 20
507.64125
 30
0.0
 11
556.87875
 21
568.39125
 31
0.0
  0
LINE
  5
ED
330
1F
100
AcDbEntity
  8
0
  6
CONTINUOUS
 62
     7
100
AcDbLine
 10
556.87875
 20
568.89125
 30
0.0
 11
556.87875
 21
571.64125
 31
0.0
  0
LINE
  5
EE
330
1F
100
AcDbEntity
  8
0
  6
CONTINUOUS
 62
     7
100
AcDbLine
 10
547.07875
 20
443.14125
 30
0.0
 11
556.87875
 21
443.14125
 31
0.0
  0
CIRCLE
  5
EF
330
1F
100
AcDbEntity
  8
0
  6
CONTINUOUS
 62
     7
100
AcDbCircle
 10
552.62875
 20
499.13625
 30
0.0
 40
3.100000000000023
  0
CIRCLE
  5
F0
330
1F
100
AcDbEntity
  8
0
  6
CONTINUOUS
 62
     7
100
AcDbCircle
 10
552.62875
 20
480.72125
 30
0.0
 40
3.100000000000023
  0
CIRCLE
  5
F1
330
1F
100
AcDbEntity
  8
0
  6
CONTINUOUS
 62
     7
100
AcDbCircle
 10
552.62875
 20
471.83125
 30
0.0
 40
1.599999999999909
  0
CIRCLE
  5
F2
330
1F
100
AcDbEntity
  8
0
  6
CONTINUOUS
 62
     7
100
AcDbCircle
 10
549.44875
 20
446.14125
 30
0.0
 40
1.600000000000023
  0
LINE
  5
F3
330
1F
100
AcDbEntity
  8
0
  6
CONTINUOUS
 62
     7
100
AcDbLine
 10
547.07875
 20
507.14125
 30
0.0
 11
547.07875
 21
446.39125
 31
0.0
  0
LINE
  5
F4
330
1F
100
AcDbEntity
  8
0
  6
CONTINUOUS
 62
     7
100
AcDbLine
 10
547.07875
 20
445.89125
 30
0.0
 11
547.07875
 21
443.14125
 31
0.0
  0
LINE
  5
F5
330
1F
100
AcDbEntity
  8
0
  6
CONTINUOUS
 62
     7
100
AcDbLine
 10
556.87875
 20
443.14125
 30
0.0
 11
556.87875
 21
445.89125
 31
0.0
  0
LINE
  5
F6
330
1F
100
AcDbEntity
  8
0
  6
CONTINUOUS
 62
     7
100
AcDbLine
 10
556.87875
 20
446.39125
 30
0.0
 11
556.87875
 21
507.14125
 31
0.0
  0
ENDSEC
  0
SECTION
  2
OBJECTS
  0
DICTIONARY
  5
C
330
0
100
AcDbDictionary
  3
ACAD_GROUP
350
D
  3
ACAD_MLINESTYLE
350
17
  3
ACAD_SCALELIST
350
47
  3
DWGPROPS
350
F7
  0
DICTIONARY
  5
D
102
{ACAD_REACTORS
330
C
102
}
330
C
100
AcDbDictionary
  0
DICTIONARY
  5
17
102
{ACAD_REACTORS
330
C
102
}
330
C
100
AcDbDictionary
  3
STANDARD
350
18
  0
DICTIONARY
  5
47
102
{ACAD_REACTORS
330
C
102
}
330
C
100
AcDbDictionary
  0
XRECORD
  5
F7
102
{ACAD_REACTORS
330
C
102
}
330
C
100
AcDbXrecord
  1
DWGPROPS COOKIE
  2

  3

  4

  6

  7

  8
Micha
  9

300
=
301
=
302
=
303
=
304
=
305
=
306
=
307
=
308
=
309
=
 40
0.0
 41
2460008.351241863
 42
2460008.351242257
  1

 90
        0
  0
MLINESTYLE
  5
18
102
{ACAD_REACTORS
330
17
102
}
330
17
100
AcDbMlineStyle
  2
Standard
 70
     0
  3

 62
   256
 51
90.0
 52
90.0
 71
     2
 49
0.5
 62
   256
  6
BYLAYER
 49
-0.5
 62
   256
  6
BYLAYER
  0
ENDSEC
  0
EOF
