G04 #@! TF.GenerationSoftware,KiCad,Pcbnew,(5.1.9)-1*
G04 #@! TF.CreationDate,2021-02-26T13:36:32+01:00*
G04 #@! TF.ProjectId,Dual VCA #2 Control,4475616c-2056-4434-9120-233220436f6e,rev?*
G04 #@! TF.SameCoordinates,Original*
G04 #@! TF.FileFunction,Legend,Top*
G04 #@! TF.FilePolarity,Positive*
%FSLAX46Y46*%
G04 Gerber Fmt 4.6, Leading zero omitted, Abs format (unit mm)*
G04 Created by KiCad (PCBNEW (5.1.9)-1) date 2021-02-26 13:36:32*
%MOMM*%
%LPD*%
G01*
G04 APERTURE LIST*
%ADD10C,0.120000*%
G04 APERTURE END LIST*
D10*
X39315000Y-96440000D02*
X39315000Y-95440000D01*
X40315000Y-96440000D02*
X39315000Y-96440000D01*
X39315000Y-86440000D02*
X39315000Y-87440000D01*
X40315000Y-86440000D02*
X39315000Y-86440000D01*
X49815000Y-86440000D02*
X48815000Y-86440000D01*
X49815000Y-87440000D02*
X49815000Y-86440000D01*
X49815000Y-96440000D02*
X48815000Y-96440000D01*
X49815000Y-95440000D02*
X49815000Y-96440000D01*
X36815000Y-89940000D02*
X35815000Y-89940000D01*
X35815000Y-89940000D02*
X35815000Y-90940000D01*
X35815000Y-91940000D02*
X35815000Y-92940000D01*
X35815000Y-92940000D02*
X36815000Y-92940000D01*
X39315000Y-76120000D02*
X39315000Y-75120000D01*
X40315000Y-76120000D02*
X39315000Y-76120000D01*
X39315000Y-66120000D02*
X39315000Y-67120000D01*
X40315000Y-66120000D02*
X39315000Y-66120000D01*
X49815000Y-66120000D02*
X48815000Y-66120000D01*
X49815000Y-67120000D02*
X49815000Y-66120000D01*
X49815000Y-76120000D02*
X48815000Y-76120000D01*
X49815000Y-75120000D02*
X49815000Y-76120000D01*
X36815000Y-69620000D02*
X35815000Y-69620000D01*
X35815000Y-69620000D02*
X35815000Y-70620000D01*
X35815000Y-71620000D02*
X35815000Y-72620000D01*
X35815000Y-72620000D02*
X36815000Y-72620000D01*
X39315000Y-15160000D02*
X39315000Y-14160000D01*
X40315000Y-15160000D02*
X39315000Y-15160000D01*
X39315000Y-5160000D02*
X39315000Y-6160000D01*
X40315000Y-5160000D02*
X39315000Y-5160000D01*
X49815000Y-5160000D02*
X48815000Y-5160000D01*
X49815000Y-6160000D02*
X49815000Y-5160000D01*
X49815000Y-15160000D02*
X48815000Y-15160000D01*
X49815000Y-14160000D02*
X49815000Y-15160000D01*
X36815000Y-8660000D02*
X35815000Y-8660000D01*
X35815000Y-8660000D02*
X35815000Y-9660000D01*
X35815000Y-10660000D02*
X35815000Y-11660000D01*
X35815000Y-11660000D02*
X36815000Y-11660000D01*
X19105000Y-86440000D02*
X19105000Y-87440000D01*
X18105000Y-86440000D02*
X19105000Y-86440000D01*
X19105000Y-96440000D02*
X19105000Y-95440000D01*
X18105000Y-96440000D02*
X19105000Y-96440000D01*
X8605000Y-96440000D02*
X9605000Y-96440000D01*
X8605000Y-95440000D02*
X8605000Y-96440000D01*
X8605000Y-86440000D02*
X9605000Y-86440000D01*
X8605000Y-87440000D02*
X8605000Y-86440000D01*
X21605000Y-92940000D02*
X22605000Y-92940000D01*
X22605000Y-92940000D02*
X22605000Y-91940000D01*
X22605000Y-90940000D02*
X22605000Y-89940000D01*
X22605000Y-89940000D02*
X21605000Y-89940000D01*
X19105000Y-66120000D02*
X19105000Y-67120000D01*
X18105000Y-66120000D02*
X19105000Y-66120000D01*
X19105000Y-76120000D02*
X19105000Y-75120000D01*
X18105000Y-76120000D02*
X19105000Y-76120000D01*
X8605000Y-76120000D02*
X9605000Y-76120000D01*
X8605000Y-75120000D02*
X8605000Y-76120000D01*
X8605000Y-66120000D02*
X9605000Y-66120000D01*
X8605000Y-67120000D02*
X8605000Y-66120000D01*
X21605000Y-72620000D02*
X22605000Y-72620000D01*
X22605000Y-72620000D02*
X22605000Y-71620000D01*
X22605000Y-70620000D02*
X22605000Y-69620000D01*
X22605000Y-69620000D02*
X21605000Y-69620000D01*
X19105000Y-5160000D02*
X19105000Y-6160000D01*
X18105000Y-5160000D02*
X19105000Y-5160000D01*
X19105000Y-15160000D02*
X19105000Y-14160000D01*
X18105000Y-15160000D02*
X19105000Y-15160000D01*
X8605000Y-15160000D02*
X9605000Y-15160000D01*
X8605000Y-14160000D02*
X8605000Y-15160000D01*
X8605000Y-5160000D02*
X9605000Y-5160000D01*
X8605000Y-6160000D02*
X8605000Y-5160000D01*
X21605000Y-11660000D02*
X22605000Y-11660000D01*
X22605000Y-11660000D02*
X22605000Y-10660000D01*
X22605000Y-9660000D02*
X22605000Y-8660000D01*
X22605000Y-8660000D02*
X21605000Y-8660000D01*
X37645000Y-25510000D02*
X49985000Y-25510000D01*
X47185000Y-37100000D02*
X49985000Y-37100000D01*
X44686000Y-37100000D02*
X45445000Y-37100000D01*
X42186000Y-37100000D02*
X42945000Y-37100000D01*
X37645000Y-37100000D02*
X40444000Y-37100000D01*
X49985000Y-28525000D02*
X49985000Y-25510000D01*
X49985000Y-37100000D02*
X49985000Y-32434000D01*
X37645000Y-28525000D02*
X37645000Y-25510000D01*
X37645000Y-37100000D02*
X37645000Y-32434000D01*
X8435000Y-25510000D02*
X20775000Y-25510000D01*
X17975000Y-37100000D02*
X20775000Y-37100000D01*
X15476000Y-37100000D02*
X16235000Y-37100000D01*
X12976000Y-37100000D02*
X13735000Y-37100000D01*
X8435000Y-37100000D02*
X11234000Y-37100000D01*
X20775000Y-28525000D02*
X20775000Y-25510000D01*
X20775000Y-37100000D02*
X20775000Y-32434000D01*
X8435000Y-28525000D02*
X8435000Y-25510000D01*
X8435000Y-37100000D02*
X8435000Y-32434000D01*
M02*
