G04 #@! TF.GenerationSoftware,KiCad,Pcbnew,(5.1.9)-1*
G04 #@! TF.CreationDate,2021-02-26T13:36:32+01:00*
G04 #@! TF.ProjectId,Dual VCA #2 Control,4475616c-2056-4434-9120-233220436f6e,rev?*
G04 #@! TF.SameCoordinates,Original*
G04 #@! TF.FileFunction,Copper,L1,Top*
G04 #@! TF.FilePolarity,Positive*
%FSLAX46Y46*%
G04 Gerber Fmt 4.6, Leading zero omitted, Abs format (unit mm)*
G04 Created by KiCad (PCBNEW (5.1.9)-1) date 2021-02-26 13:36:32*
%MOMM*%
%LPD*%
G01*
G04 APERTURE LIST*
G04 #@! TA.AperFunction,ComponentPad*
%ADD10O,1.700000X1.700000*%
G04 #@! TD*
G04 #@! TA.AperFunction,ComponentPad*
%ADD11R,1.700000X1.700000*%
G04 #@! TD*
G04 #@! TA.AperFunction,ComponentPad*
%ADD12O,1.300000X2.300000*%
G04 #@! TD*
G04 #@! TA.AperFunction,ComponentPad*
%ADD13C,4.700000*%
G04 #@! TD*
G04 #@! TA.AperFunction,ComponentPad*
%ADD14O,1.500000X2.600000*%
G04 #@! TD*
G04 #@! TA.AperFunction,WasherPad*
%ADD15C,4.000000*%
G04 #@! TD*
G04 #@! TA.AperFunction,ComponentPad*
%ADD16C,1.800000*%
G04 #@! TD*
G04 #@! TA.AperFunction,ViaPad*
%ADD17C,1.000000*%
G04 #@! TD*
G04 #@! TA.AperFunction,Conductor*
%ADD18C,0.400000*%
G04 #@! TD*
G04 #@! TA.AperFunction,Conductor*
%ADD19C,0.254000*%
G04 #@! TD*
G04 #@! TA.AperFunction,Conductor*
%ADD20C,0.100000*%
G04 #@! TD*
G04 APERTURE END LIST*
D10*
X2540000Y-69850000D03*
X2540000Y-67310000D03*
D11*
X2540000Y-64770000D03*
D12*
X48735000Y-91440000D03*
X40435000Y-91440000D03*
X37335000Y-91440000D03*
X48735000Y-71120000D03*
X40435000Y-71120000D03*
X37335000Y-71120000D03*
X48735000Y-10160000D03*
X40435000Y-10160000D03*
X37335000Y-10160000D03*
X9685000Y-91440000D03*
X17985000Y-91440000D03*
X21085000Y-91440000D03*
X9685000Y-71120000D03*
X17985000Y-71120000D03*
X21085000Y-71120000D03*
X9685000Y-10160000D03*
X17985000Y-10160000D03*
X21085000Y-10160000D03*
D10*
X55880000Y-69850000D03*
X55880000Y-67310000D03*
D11*
X55880000Y-64770000D03*
D10*
X55880000Y-72390000D03*
D11*
X55880000Y-74930000D03*
D10*
X55880000Y-36830000D03*
D11*
X55880000Y-34290000D03*
D10*
X55880000Y-31750000D03*
X55880000Y-29210000D03*
D11*
X55880000Y-26670000D03*
D10*
X55880000Y-78105000D03*
D11*
X55880000Y-80645000D03*
D10*
X2540000Y-72390000D03*
D11*
X2540000Y-74930000D03*
D10*
X2540000Y-36830000D03*
D11*
X2540000Y-34290000D03*
D10*
X2540000Y-31750000D03*
X2540000Y-29210000D03*
D11*
X2540000Y-26670000D03*
D10*
X2540000Y-77470000D03*
D11*
X2540000Y-80010000D03*
D13*
X53340000Y-96520000D03*
X5080000Y-96520000D03*
X53340000Y-5080000D03*
X5080000Y-5080000D03*
D14*
X41315000Y-50800000D03*
X46315000Y-50800000D03*
X43815000Y-50800000D03*
X12105000Y-50800000D03*
X17105000Y-50800000D03*
X14605000Y-50800000D03*
D15*
X48565000Y-30480000D03*
X39065000Y-30480000D03*
D16*
X46315000Y-37980000D03*
X43815000Y-37980000D03*
X41315000Y-37980000D03*
D15*
X19355000Y-30480000D03*
X9855000Y-30480000D03*
D16*
X17105000Y-37980000D03*
X14605000Y-37980000D03*
X12105000Y-37980000D03*
D17*
X14605000Y-34290000D03*
X5080000Y-31750000D03*
X5080000Y-40640000D03*
X12105000Y-40600000D03*
X53340000Y-31750000D03*
X53340000Y-40640000D03*
X41315000Y-40600000D03*
X43815000Y-34290000D03*
X6350000Y-29210000D03*
X6350000Y-41910000D03*
X14605000Y-41910000D03*
X5080000Y-69850000D03*
X5080000Y-53340000D03*
X6350000Y-67310000D03*
X6350000Y-55880000D03*
X7620000Y-64770000D03*
X7620000Y-54610000D03*
X52070000Y-29210000D03*
X52070000Y-41910000D03*
X43815000Y-41910000D03*
X53340000Y-69850000D03*
X53340000Y-55880000D03*
X52070000Y-67310000D03*
X52070000Y-53340000D03*
X50800000Y-64770000D03*
X50800000Y-54610000D03*
X53340000Y-26670000D03*
X5080000Y-26670000D03*
X53340000Y-22860000D03*
X5080000Y-22860000D03*
X16510000Y-22860000D03*
X45720000Y-22860000D03*
D18*
X14605000Y-34290000D02*
X14605000Y-23284998D01*
X9685000Y-10160000D02*
X9685000Y-14765000D01*
X9685000Y-14765000D02*
X10160000Y-15240000D01*
X10160000Y-15240000D02*
X13970000Y-15240000D01*
X14605000Y-15875000D02*
X14605000Y-17145000D01*
X13970000Y-15240000D02*
X14605000Y-15875000D01*
X14605000Y-17145000D02*
X14605000Y-16510000D01*
X14605000Y-23284998D02*
X14605000Y-17145000D01*
X5080000Y-31750000D02*
X5080000Y-40640000D01*
X5080000Y-40640000D02*
X5080000Y-40640000D01*
X12105000Y-37980000D02*
X12105000Y-40600000D01*
X12105000Y-40600000D02*
X12105000Y-40600000D01*
X53340000Y-31750000D02*
X53340000Y-40640000D01*
X53340000Y-40640000D02*
X53340000Y-40640000D01*
X41315000Y-37980000D02*
X41315000Y-40600000D01*
X41315000Y-40600000D02*
X41315000Y-40600000D01*
X43815000Y-23284998D02*
X43815000Y-34290000D01*
X43815000Y-15875000D02*
X43815000Y-23284998D01*
X44450000Y-15240000D02*
X43815000Y-15875000D01*
X48260000Y-15240000D02*
X44450000Y-15240000D01*
X48735000Y-14765000D02*
X48260000Y-15240000D01*
X48735000Y-10160000D02*
X48735000Y-14765000D01*
X6350000Y-29210000D02*
X6350000Y-41910000D01*
X6350000Y-41910000D02*
X6350000Y-41910000D01*
X14605000Y-37980000D02*
X14605000Y-41910000D01*
X14605000Y-41910000D02*
X14605000Y-41910000D01*
X5080000Y-69850000D02*
X5080000Y-53340000D01*
X5080000Y-53340000D02*
X5080000Y-53340000D01*
X6350000Y-67310000D02*
X6350000Y-64559998D01*
X6350000Y-64559998D02*
X6350000Y-55880000D01*
X6350000Y-55880000D02*
X6350000Y-55880000D01*
X7620000Y-64770000D02*
X7620000Y-54610000D01*
X7620000Y-54610000D02*
X7620000Y-54610000D01*
X52070000Y-29210000D02*
X52070000Y-41910000D01*
X43815000Y-37980000D02*
X43815000Y-41910000D01*
X52070000Y-41910000D02*
X52070000Y-41910000D01*
X43815000Y-41910000D02*
X43815000Y-41910000D01*
X53340000Y-69850000D02*
X53340000Y-55880000D01*
X53340000Y-55880000D02*
X53340000Y-55880000D01*
X52070000Y-67310000D02*
X52070000Y-53340000D01*
X52070000Y-53340000D02*
X52070000Y-53340000D01*
X50800000Y-64770000D02*
X50800000Y-54610000D01*
X50800000Y-54610000D02*
X50800000Y-54610000D01*
X5080000Y-26670000D02*
X5080000Y-22860000D01*
X53340000Y-26670000D02*
X53340000Y-22860000D01*
X53340000Y-22860000D02*
X53340000Y-22860000D01*
X5080000Y-22860000D02*
X5080000Y-22860000D01*
X46315000Y-37980000D02*
X46315000Y-36235000D01*
X46315000Y-36235000D02*
X45720000Y-35640000D01*
X45720000Y-35640000D02*
X45720000Y-22860000D01*
X17105000Y-37980000D02*
X17105000Y-36155000D01*
X17105000Y-36155000D02*
X16510000Y-35560000D01*
X16510000Y-35560000D02*
X16510000Y-22860000D01*
X16510000Y-22860000D02*
X16510000Y-22860000D01*
X45720000Y-22860000D02*
X45720000Y-22860000D01*
D19*
X57710001Y-100890000D02*
X710000Y-100890000D01*
X710000Y-98616468D01*
X3163137Y-98616468D01*
X3421298Y-99019073D01*
X3940715Y-99294651D01*
X4503913Y-99463601D01*
X5089250Y-99519430D01*
X5674233Y-99459992D01*
X6236379Y-99287571D01*
X6738702Y-99019073D01*
X6996863Y-98616468D01*
X51423137Y-98616468D01*
X51681298Y-99019073D01*
X52200715Y-99294651D01*
X52763913Y-99463601D01*
X53349250Y-99519430D01*
X53934233Y-99459992D01*
X54496379Y-99287571D01*
X54998702Y-99019073D01*
X55256863Y-98616468D01*
X53340000Y-96699605D01*
X51423137Y-98616468D01*
X6996863Y-98616468D01*
X5080000Y-96699605D01*
X3163137Y-98616468D01*
X710000Y-98616468D01*
X710000Y-96529250D01*
X2080570Y-96529250D01*
X2140008Y-97114233D01*
X2312429Y-97676379D01*
X2580927Y-98178702D01*
X2983532Y-98436863D01*
X4900395Y-96520000D01*
X5259605Y-96520000D01*
X7176468Y-98436863D01*
X7579073Y-98178702D01*
X7854651Y-97659285D01*
X8023601Y-97096087D01*
X8077665Y-96529250D01*
X50340570Y-96529250D01*
X50400008Y-97114233D01*
X50572429Y-97676379D01*
X50840927Y-98178702D01*
X51243532Y-98436863D01*
X53160395Y-96520000D01*
X53519605Y-96520000D01*
X55436468Y-98436863D01*
X55839073Y-98178702D01*
X56114651Y-97659285D01*
X56283601Y-97096087D01*
X56339430Y-96510750D01*
X56279992Y-95925767D01*
X56107571Y-95363621D01*
X55839073Y-94861298D01*
X55436468Y-94603137D01*
X53519605Y-96520000D01*
X53160395Y-96520000D01*
X51243532Y-94603137D01*
X50840927Y-94861298D01*
X50565349Y-95380715D01*
X50396399Y-95943913D01*
X50340570Y-96529250D01*
X8077665Y-96529250D01*
X8079430Y-96510750D01*
X8019992Y-95925767D01*
X7847571Y-95363621D01*
X7579073Y-94861298D01*
X7176468Y-94603137D01*
X5259605Y-96520000D01*
X4900395Y-96520000D01*
X2983532Y-94603137D01*
X2580927Y-94861298D01*
X2305349Y-95380715D01*
X2136399Y-95943913D01*
X2080570Y-96529250D01*
X710000Y-96529250D01*
X710000Y-94423532D01*
X3163137Y-94423532D01*
X5080000Y-96340395D01*
X6996863Y-94423532D01*
X51423137Y-94423532D01*
X53340000Y-96340395D01*
X55256863Y-94423532D01*
X54998702Y-94020927D01*
X54479285Y-93745349D01*
X53916087Y-93576399D01*
X53330750Y-93520570D01*
X52745767Y-93580008D01*
X52183621Y-93752429D01*
X51681298Y-94020927D01*
X51423137Y-94423532D01*
X6996863Y-94423532D01*
X6738702Y-94020927D01*
X6219285Y-93745349D01*
X5656087Y-93576399D01*
X5070750Y-93520570D01*
X4485767Y-93580008D01*
X3923621Y-93752429D01*
X3421298Y-94020927D01*
X3163137Y-94423532D01*
X710000Y-94423532D01*
X710000Y-90876878D01*
X8400000Y-90876878D01*
X8400000Y-92003123D01*
X8418593Y-92191904D01*
X8492071Y-92434127D01*
X8611392Y-92657362D01*
X8771973Y-92853028D01*
X8967639Y-93013608D01*
X9190874Y-93132929D01*
X9433097Y-93206407D01*
X9685000Y-93231217D01*
X9936904Y-93206407D01*
X10179127Y-93132929D01*
X10402362Y-93013608D01*
X10598028Y-92853028D01*
X10758608Y-92657362D01*
X10877929Y-92434127D01*
X10951407Y-92191904D01*
X10970000Y-92003123D01*
X10970000Y-91205098D01*
X12220000Y-91205098D01*
X12220000Y-91674902D01*
X12311654Y-92135679D01*
X12491440Y-92569721D01*
X12752450Y-92960349D01*
X13084651Y-93292550D01*
X13475279Y-93553560D01*
X13909321Y-93733346D01*
X14370098Y-93825000D01*
X14839902Y-93825000D01*
X15300679Y-93733346D01*
X15734721Y-93553560D01*
X16125349Y-93292550D01*
X16457550Y-92960349D01*
X16718560Y-92569721D01*
X16784738Y-92409953D01*
X16792071Y-92434127D01*
X16911392Y-92657362D01*
X17071973Y-92853028D01*
X17267639Y-93013608D01*
X17490874Y-93132929D01*
X17733097Y-93206407D01*
X17985000Y-93231217D01*
X18236904Y-93206407D01*
X18479127Y-93132929D01*
X18702362Y-93013608D01*
X18898028Y-92853028D01*
X19058608Y-92657362D01*
X19177929Y-92434127D01*
X19251407Y-92191904D01*
X19270000Y-92003123D01*
X19270000Y-91567000D01*
X19800000Y-91567000D01*
X19800000Y-92067000D01*
X19849467Y-92315251D01*
X19946415Y-92549081D01*
X20087118Y-92759505D01*
X20266170Y-92938436D01*
X20476689Y-93078997D01*
X20710585Y-93175787D01*
X20759529Y-93183099D01*
X20958000Y-93059067D01*
X20958000Y-91567000D01*
X21212000Y-91567000D01*
X21212000Y-93059067D01*
X21410471Y-93183099D01*
X21459415Y-93175787D01*
X21693311Y-93078997D01*
X21903830Y-92938436D01*
X22082882Y-92759505D01*
X22223585Y-92549081D01*
X22320533Y-92315251D01*
X22370000Y-92067000D01*
X22370000Y-91567000D01*
X36050000Y-91567000D01*
X36050000Y-92067000D01*
X36099467Y-92315251D01*
X36196415Y-92549081D01*
X36337118Y-92759505D01*
X36516170Y-92938436D01*
X36726689Y-93078997D01*
X36960585Y-93175787D01*
X37009529Y-93183099D01*
X37208000Y-93059067D01*
X37208000Y-91567000D01*
X37462000Y-91567000D01*
X37462000Y-93059067D01*
X37660471Y-93183099D01*
X37709415Y-93175787D01*
X37943311Y-93078997D01*
X38153830Y-92938436D01*
X38332882Y-92759505D01*
X38473585Y-92549081D01*
X38570533Y-92315251D01*
X38620000Y-92067000D01*
X38620000Y-91567000D01*
X37462000Y-91567000D01*
X37208000Y-91567000D01*
X36050000Y-91567000D01*
X22370000Y-91567000D01*
X21212000Y-91567000D01*
X20958000Y-91567000D01*
X19800000Y-91567000D01*
X19270000Y-91567000D01*
X19270000Y-90876877D01*
X19263709Y-90813000D01*
X19800000Y-90813000D01*
X19800000Y-91313000D01*
X20958000Y-91313000D01*
X20958000Y-89820933D01*
X21212000Y-89820933D01*
X21212000Y-91313000D01*
X22370000Y-91313000D01*
X22370000Y-90813000D01*
X36050000Y-90813000D01*
X36050000Y-91313000D01*
X37208000Y-91313000D01*
X37208000Y-89820933D01*
X37462000Y-89820933D01*
X37462000Y-91313000D01*
X38620000Y-91313000D01*
X38620000Y-90876877D01*
X39150000Y-90876877D01*
X39150000Y-92003122D01*
X39168593Y-92191903D01*
X39242071Y-92434126D01*
X39361392Y-92657361D01*
X39521972Y-92853028D01*
X39717638Y-93013608D01*
X39940873Y-93132929D01*
X40183096Y-93206407D01*
X40435000Y-93231217D01*
X40686903Y-93206407D01*
X40929126Y-93132929D01*
X41152361Y-93013608D01*
X41348028Y-92853028D01*
X41508608Y-92657362D01*
X41627929Y-92434127D01*
X41635262Y-92409953D01*
X41701440Y-92569721D01*
X41962450Y-92960349D01*
X42294651Y-93292550D01*
X42685279Y-93553560D01*
X43119321Y-93733346D01*
X43580098Y-93825000D01*
X44049902Y-93825000D01*
X44510679Y-93733346D01*
X44944721Y-93553560D01*
X45335349Y-93292550D01*
X45667550Y-92960349D01*
X45928560Y-92569721D01*
X46108346Y-92135679D01*
X46200000Y-91674902D01*
X46200000Y-91205098D01*
X46134713Y-90876877D01*
X47450000Y-90876877D01*
X47450000Y-92003122D01*
X47468593Y-92191903D01*
X47542071Y-92434126D01*
X47661392Y-92657361D01*
X47821972Y-92853028D01*
X48017638Y-93013608D01*
X48240873Y-93132929D01*
X48483096Y-93206407D01*
X48735000Y-93231217D01*
X48986903Y-93206407D01*
X49229126Y-93132929D01*
X49452361Y-93013608D01*
X49648028Y-92853028D01*
X49808608Y-92657362D01*
X49927929Y-92434127D01*
X50001407Y-92191904D01*
X50020000Y-92003123D01*
X50020000Y-90876877D01*
X50001407Y-90688096D01*
X49927929Y-90445873D01*
X49808608Y-90222638D01*
X49648028Y-90026972D01*
X49452362Y-89866392D01*
X49229127Y-89747071D01*
X48986904Y-89673593D01*
X48735000Y-89648783D01*
X48483097Y-89673593D01*
X48240874Y-89747071D01*
X48017639Y-89866392D01*
X47821973Y-90026972D01*
X47661392Y-90222638D01*
X47542071Y-90445873D01*
X47468593Y-90688096D01*
X47450000Y-90876877D01*
X46134713Y-90876877D01*
X46108346Y-90744321D01*
X45928560Y-90310279D01*
X45667550Y-89919651D01*
X45335349Y-89587450D01*
X44944721Y-89326440D01*
X44510679Y-89146654D01*
X44049902Y-89055000D01*
X43580098Y-89055000D01*
X43119321Y-89146654D01*
X42685279Y-89326440D01*
X42294651Y-89587450D01*
X41962450Y-89919651D01*
X41701440Y-90310279D01*
X41635262Y-90470047D01*
X41627929Y-90445873D01*
X41508608Y-90222638D01*
X41348028Y-90026972D01*
X41152362Y-89866392D01*
X40929127Y-89747071D01*
X40686904Y-89673593D01*
X40435000Y-89648783D01*
X40183097Y-89673593D01*
X39940874Y-89747071D01*
X39717639Y-89866392D01*
X39521973Y-90026972D01*
X39361392Y-90222638D01*
X39242071Y-90445873D01*
X39168593Y-90688096D01*
X39150000Y-90876877D01*
X38620000Y-90876877D01*
X38620000Y-90813000D01*
X38570533Y-90564749D01*
X38473585Y-90330919D01*
X38332882Y-90120495D01*
X38153830Y-89941564D01*
X37943311Y-89801003D01*
X37709415Y-89704213D01*
X37660471Y-89696901D01*
X37462000Y-89820933D01*
X37208000Y-89820933D01*
X37009529Y-89696901D01*
X36960585Y-89704213D01*
X36726689Y-89801003D01*
X36516170Y-89941564D01*
X36337118Y-90120495D01*
X36196415Y-90330919D01*
X36099467Y-90564749D01*
X36050000Y-90813000D01*
X22370000Y-90813000D01*
X22320533Y-90564749D01*
X22223585Y-90330919D01*
X22082882Y-90120495D01*
X21903830Y-89941564D01*
X21693311Y-89801003D01*
X21459415Y-89704213D01*
X21410471Y-89696901D01*
X21212000Y-89820933D01*
X20958000Y-89820933D01*
X20759529Y-89696901D01*
X20710585Y-89704213D01*
X20476689Y-89801003D01*
X20266170Y-89941564D01*
X20087118Y-90120495D01*
X19946415Y-90330919D01*
X19849467Y-90564749D01*
X19800000Y-90813000D01*
X19263709Y-90813000D01*
X19251407Y-90688096D01*
X19177929Y-90445873D01*
X19058608Y-90222638D01*
X18898028Y-90026972D01*
X18702361Y-89866392D01*
X18479126Y-89747071D01*
X18236903Y-89673593D01*
X17985000Y-89648783D01*
X17733096Y-89673593D01*
X17490873Y-89747071D01*
X17267638Y-89866392D01*
X17071972Y-90026972D01*
X16911392Y-90222639D01*
X16792071Y-90445874D01*
X16784738Y-90470047D01*
X16718560Y-90310279D01*
X16457550Y-89919651D01*
X16125349Y-89587450D01*
X15734721Y-89326440D01*
X15300679Y-89146654D01*
X14839902Y-89055000D01*
X14370098Y-89055000D01*
X13909321Y-89146654D01*
X13475279Y-89326440D01*
X13084651Y-89587450D01*
X12752450Y-89919651D01*
X12491440Y-90310279D01*
X12311654Y-90744321D01*
X12220000Y-91205098D01*
X10970000Y-91205098D01*
X10970000Y-90876877D01*
X10951407Y-90688096D01*
X10877929Y-90445873D01*
X10758608Y-90222638D01*
X10598028Y-90026972D01*
X10402361Y-89866392D01*
X10179126Y-89747071D01*
X9936903Y-89673593D01*
X9685000Y-89648783D01*
X9433096Y-89673593D01*
X9190873Y-89747071D01*
X8967638Y-89866392D01*
X8771972Y-90026972D01*
X8611392Y-90222639D01*
X8492071Y-90445874D01*
X8418593Y-90688097D01*
X8400000Y-90876878D01*
X710000Y-90876878D01*
X710000Y-79160000D01*
X1051928Y-79160000D01*
X1051928Y-80860000D01*
X1064188Y-80984482D01*
X1100498Y-81104180D01*
X1159463Y-81214494D01*
X1238815Y-81311185D01*
X1335506Y-81390537D01*
X1445820Y-81449502D01*
X1565518Y-81485812D01*
X1690000Y-81498072D01*
X3390000Y-81498072D01*
X3514482Y-81485812D01*
X3634180Y-81449502D01*
X3744494Y-81390537D01*
X3841185Y-81311185D01*
X3920537Y-81214494D01*
X3979502Y-81104180D01*
X4015812Y-80984482D01*
X4028072Y-80860000D01*
X4028072Y-79795000D01*
X54391928Y-79795000D01*
X54391928Y-81495000D01*
X54404188Y-81619482D01*
X54440498Y-81739180D01*
X54499463Y-81849494D01*
X54578815Y-81946185D01*
X54675506Y-82025537D01*
X54785820Y-82084502D01*
X54905518Y-82120812D01*
X55030000Y-82133072D01*
X56730000Y-82133072D01*
X56854482Y-82120812D01*
X56974180Y-82084502D01*
X57084494Y-82025537D01*
X57181185Y-81946185D01*
X57260537Y-81849494D01*
X57319502Y-81739180D01*
X57355812Y-81619482D01*
X57368072Y-81495000D01*
X57368072Y-79795000D01*
X57355812Y-79670518D01*
X57319502Y-79550820D01*
X57260537Y-79440506D01*
X57181185Y-79343815D01*
X57084494Y-79264463D01*
X56974180Y-79205498D01*
X56893534Y-79181034D01*
X56977588Y-79105269D01*
X57151641Y-78871920D01*
X57276825Y-78609099D01*
X57321476Y-78461890D01*
X57200155Y-78232000D01*
X56007000Y-78232000D01*
X56007000Y-78252000D01*
X55753000Y-78252000D01*
X55753000Y-78232000D01*
X54559845Y-78232000D01*
X54438524Y-78461890D01*
X54483175Y-78609099D01*
X54608359Y-78871920D01*
X54782412Y-79105269D01*
X54866466Y-79181034D01*
X54785820Y-79205498D01*
X54675506Y-79264463D01*
X54578815Y-79343815D01*
X54499463Y-79440506D01*
X54440498Y-79550820D01*
X54404188Y-79670518D01*
X54391928Y-79795000D01*
X4028072Y-79795000D01*
X4028072Y-79160000D01*
X4015812Y-79035518D01*
X3979502Y-78915820D01*
X3920537Y-78805506D01*
X3841185Y-78708815D01*
X3744494Y-78629463D01*
X3634180Y-78570498D01*
X3553534Y-78546034D01*
X3637588Y-78470269D01*
X3811641Y-78236920D01*
X3936825Y-77974099D01*
X3981476Y-77826890D01*
X3939902Y-77748110D01*
X54438524Y-77748110D01*
X54559845Y-77978000D01*
X55753000Y-77978000D01*
X55753000Y-76784186D01*
X56007000Y-76784186D01*
X56007000Y-77978000D01*
X57200155Y-77978000D01*
X57321476Y-77748110D01*
X57276825Y-77600901D01*
X57151641Y-77338080D01*
X56977588Y-77104731D01*
X56761355Y-76909822D01*
X56511252Y-76760843D01*
X56236891Y-76663519D01*
X56007000Y-76784186D01*
X55753000Y-76784186D01*
X55523109Y-76663519D01*
X55248748Y-76760843D01*
X54998645Y-76909822D01*
X54782412Y-77104731D01*
X54608359Y-77338080D01*
X54483175Y-77600901D01*
X54438524Y-77748110D01*
X3939902Y-77748110D01*
X3860155Y-77597000D01*
X2667000Y-77597000D01*
X2667000Y-77617000D01*
X2413000Y-77617000D01*
X2413000Y-77597000D01*
X1219845Y-77597000D01*
X1098524Y-77826890D01*
X1143175Y-77974099D01*
X1268359Y-78236920D01*
X1442412Y-78470269D01*
X1526466Y-78546034D01*
X1445820Y-78570498D01*
X1335506Y-78629463D01*
X1238815Y-78708815D01*
X1159463Y-78805506D01*
X1100498Y-78915820D01*
X1064188Y-79035518D01*
X1051928Y-79160000D01*
X710000Y-79160000D01*
X710000Y-74080000D01*
X1051928Y-74080000D01*
X1051928Y-75780000D01*
X1064188Y-75904482D01*
X1100498Y-76024180D01*
X1159463Y-76134494D01*
X1238815Y-76231185D01*
X1335506Y-76310537D01*
X1445820Y-76369502D01*
X1526466Y-76393966D01*
X1442412Y-76469731D01*
X1268359Y-76703080D01*
X1143175Y-76965901D01*
X1098524Y-77113110D01*
X1219845Y-77343000D01*
X2413000Y-77343000D01*
X2413000Y-77323000D01*
X2667000Y-77323000D01*
X2667000Y-77343000D01*
X3860155Y-77343000D01*
X3981476Y-77113110D01*
X3936825Y-76965901D01*
X3811641Y-76703080D01*
X3637588Y-76469731D01*
X3553534Y-76393966D01*
X3634180Y-76369502D01*
X3744494Y-76310537D01*
X3841185Y-76231185D01*
X3920537Y-76134494D01*
X3979502Y-76024180D01*
X4015812Y-75904482D01*
X4028072Y-75780000D01*
X4028072Y-74080000D01*
X54391928Y-74080000D01*
X54391928Y-75780000D01*
X54404188Y-75904482D01*
X54440498Y-76024180D01*
X54499463Y-76134494D01*
X54578815Y-76231185D01*
X54675506Y-76310537D01*
X54785820Y-76369502D01*
X54905518Y-76405812D01*
X55030000Y-76418072D01*
X56730000Y-76418072D01*
X56854482Y-76405812D01*
X56974180Y-76369502D01*
X57084494Y-76310537D01*
X57181185Y-76231185D01*
X57260537Y-76134494D01*
X57319502Y-76024180D01*
X57355812Y-75904482D01*
X57368072Y-75780000D01*
X57368072Y-74080000D01*
X57355812Y-73955518D01*
X57319502Y-73835820D01*
X57260537Y-73725506D01*
X57181185Y-73628815D01*
X57084494Y-73549463D01*
X56974180Y-73490498D01*
X56893534Y-73466034D01*
X56977588Y-73390269D01*
X57151641Y-73156920D01*
X57276825Y-72894099D01*
X57321476Y-72746890D01*
X57200155Y-72517000D01*
X56007000Y-72517000D01*
X56007000Y-72537000D01*
X55753000Y-72537000D01*
X55753000Y-72517000D01*
X54559845Y-72517000D01*
X54438524Y-72746890D01*
X54483175Y-72894099D01*
X54608359Y-73156920D01*
X54782412Y-73390269D01*
X54866466Y-73466034D01*
X54785820Y-73490498D01*
X54675506Y-73549463D01*
X54578815Y-73628815D01*
X54499463Y-73725506D01*
X54440498Y-73835820D01*
X54404188Y-73955518D01*
X54391928Y-74080000D01*
X4028072Y-74080000D01*
X4015812Y-73955518D01*
X3979502Y-73835820D01*
X3920537Y-73725506D01*
X3841185Y-73628815D01*
X3744494Y-73549463D01*
X3634180Y-73490498D01*
X3553534Y-73466034D01*
X3637588Y-73390269D01*
X3811641Y-73156920D01*
X3936825Y-72894099D01*
X3981476Y-72746890D01*
X3860155Y-72517000D01*
X2667000Y-72517000D01*
X2667000Y-72537000D01*
X2413000Y-72537000D01*
X2413000Y-72517000D01*
X1219845Y-72517000D01*
X1098524Y-72746890D01*
X1143175Y-72894099D01*
X1268359Y-73156920D01*
X1442412Y-73390269D01*
X1526466Y-73466034D01*
X1445820Y-73490498D01*
X1335506Y-73549463D01*
X1238815Y-73628815D01*
X1159463Y-73725506D01*
X1100498Y-73835820D01*
X1064188Y-73955518D01*
X1051928Y-74080000D01*
X710000Y-74080000D01*
X710000Y-63920000D01*
X1051928Y-63920000D01*
X1051928Y-65620000D01*
X1064188Y-65744482D01*
X1100498Y-65864180D01*
X1159463Y-65974494D01*
X1238815Y-66071185D01*
X1335506Y-66150537D01*
X1445820Y-66209502D01*
X1518380Y-66231513D01*
X1386525Y-66363368D01*
X1224010Y-66606589D01*
X1112068Y-66876842D01*
X1055000Y-67163740D01*
X1055000Y-67456260D01*
X1112068Y-67743158D01*
X1224010Y-68013411D01*
X1386525Y-68256632D01*
X1593368Y-68463475D01*
X1767760Y-68580000D01*
X1593368Y-68696525D01*
X1386525Y-68903368D01*
X1224010Y-69146589D01*
X1112068Y-69416842D01*
X1055000Y-69703740D01*
X1055000Y-69996260D01*
X1112068Y-70283158D01*
X1224010Y-70553411D01*
X1386525Y-70796632D01*
X1593368Y-71003475D01*
X1775534Y-71125195D01*
X1658645Y-71194822D01*
X1442412Y-71389731D01*
X1268359Y-71623080D01*
X1143175Y-71885901D01*
X1098524Y-72033110D01*
X1219845Y-72263000D01*
X2413000Y-72263000D01*
X2413000Y-72243000D01*
X2667000Y-72243000D01*
X2667000Y-72263000D01*
X3860155Y-72263000D01*
X3981476Y-72033110D01*
X3936825Y-71885901D01*
X3811641Y-71623080D01*
X3637588Y-71389731D01*
X3421355Y-71194822D01*
X3304466Y-71125195D01*
X3486632Y-71003475D01*
X3693475Y-70796632D01*
X3855990Y-70553411D01*
X3967932Y-70283158D01*
X3988428Y-70180118D01*
X3988617Y-70181067D01*
X4074176Y-70387624D01*
X4198388Y-70573520D01*
X4356480Y-70731612D01*
X4542376Y-70855824D01*
X4748933Y-70941383D01*
X4968212Y-70985000D01*
X5191788Y-70985000D01*
X5411067Y-70941383D01*
X5617624Y-70855824D01*
X5803520Y-70731612D01*
X5961612Y-70573520D01*
X5972731Y-70556878D01*
X8400000Y-70556878D01*
X8400000Y-71683123D01*
X8418593Y-71871904D01*
X8492071Y-72114127D01*
X8611392Y-72337362D01*
X8771973Y-72533028D01*
X8967639Y-72693608D01*
X9190874Y-72812929D01*
X9433097Y-72886407D01*
X9685000Y-72911217D01*
X9936904Y-72886407D01*
X10179127Y-72812929D01*
X10402362Y-72693608D01*
X10598028Y-72533028D01*
X10758608Y-72337362D01*
X10877929Y-72114127D01*
X10951407Y-71871904D01*
X10970000Y-71683123D01*
X10970000Y-70885098D01*
X12220000Y-70885098D01*
X12220000Y-71354902D01*
X12311654Y-71815679D01*
X12491440Y-72249721D01*
X12752450Y-72640349D01*
X13084651Y-72972550D01*
X13475279Y-73233560D01*
X13909321Y-73413346D01*
X14370098Y-73505000D01*
X14839902Y-73505000D01*
X15300679Y-73413346D01*
X15734721Y-73233560D01*
X16125349Y-72972550D01*
X16457550Y-72640349D01*
X16718560Y-72249721D01*
X16784738Y-72089953D01*
X16792071Y-72114127D01*
X16911392Y-72337362D01*
X17071973Y-72533028D01*
X17267639Y-72693608D01*
X17490874Y-72812929D01*
X17733097Y-72886407D01*
X17985000Y-72911217D01*
X18236904Y-72886407D01*
X18479127Y-72812929D01*
X18702362Y-72693608D01*
X18898028Y-72533028D01*
X19058608Y-72337362D01*
X19177929Y-72114127D01*
X19251407Y-71871904D01*
X19270000Y-71683123D01*
X19270000Y-71247000D01*
X19800000Y-71247000D01*
X19800000Y-71747000D01*
X19849467Y-71995251D01*
X19946415Y-72229081D01*
X20087118Y-72439505D01*
X20266170Y-72618436D01*
X20476689Y-72758997D01*
X20710585Y-72855787D01*
X20759529Y-72863099D01*
X20958000Y-72739067D01*
X20958000Y-71247000D01*
X21212000Y-71247000D01*
X21212000Y-72739067D01*
X21410471Y-72863099D01*
X21459415Y-72855787D01*
X21693311Y-72758997D01*
X21903830Y-72618436D01*
X22082882Y-72439505D01*
X22223585Y-72229081D01*
X22320533Y-71995251D01*
X22370000Y-71747000D01*
X22370000Y-71247000D01*
X36050000Y-71247000D01*
X36050000Y-71747000D01*
X36099467Y-71995251D01*
X36196415Y-72229081D01*
X36337118Y-72439505D01*
X36516170Y-72618436D01*
X36726689Y-72758997D01*
X36960585Y-72855787D01*
X37009529Y-72863099D01*
X37208000Y-72739067D01*
X37208000Y-71247000D01*
X37462000Y-71247000D01*
X37462000Y-72739067D01*
X37660471Y-72863099D01*
X37709415Y-72855787D01*
X37943311Y-72758997D01*
X38153830Y-72618436D01*
X38332882Y-72439505D01*
X38473585Y-72229081D01*
X38570533Y-71995251D01*
X38620000Y-71747000D01*
X38620000Y-71247000D01*
X37462000Y-71247000D01*
X37208000Y-71247000D01*
X36050000Y-71247000D01*
X22370000Y-71247000D01*
X21212000Y-71247000D01*
X20958000Y-71247000D01*
X19800000Y-71247000D01*
X19270000Y-71247000D01*
X19270000Y-70556877D01*
X19263709Y-70493000D01*
X19800000Y-70493000D01*
X19800000Y-70993000D01*
X20958000Y-70993000D01*
X20958000Y-69500933D01*
X21212000Y-69500933D01*
X21212000Y-70993000D01*
X22370000Y-70993000D01*
X22370000Y-70493000D01*
X36050000Y-70493000D01*
X36050000Y-70993000D01*
X37208000Y-70993000D01*
X37208000Y-69500933D01*
X37462000Y-69500933D01*
X37462000Y-70993000D01*
X38620000Y-70993000D01*
X38620000Y-70556877D01*
X39150000Y-70556877D01*
X39150000Y-71683122D01*
X39168593Y-71871903D01*
X39242071Y-72114126D01*
X39361392Y-72337361D01*
X39521972Y-72533028D01*
X39717638Y-72693608D01*
X39940873Y-72812929D01*
X40183096Y-72886407D01*
X40435000Y-72911217D01*
X40686903Y-72886407D01*
X40929126Y-72812929D01*
X41152361Y-72693608D01*
X41348028Y-72533028D01*
X41508608Y-72337362D01*
X41627929Y-72114127D01*
X41635262Y-72089953D01*
X41701440Y-72249721D01*
X41962450Y-72640349D01*
X42294651Y-72972550D01*
X42685279Y-73233560D01*
X43119321Y-73413346D01*
X43580098Y-73505000D01*
X44049902Y-73505000D01*
X44510679Y-73413346D01*
X44944721Y-73233560D01*
X45335349Y-72972550D01*
X45667550Y-72640349D01*
X45928560Y-72249721D01*
X46108346Y-71815679D01*
X46200000Y-71354902D01*
X46200000Y-70885098D01*
X46134713Y-70556877D01*
X47450000Y-70556877D01*
X47450000Y-71683122D01*
X47468593Y-71871903D01*
X47542071Y-72114126D01*
X47661392Y-72337361D01*
X47821972Y-72533028D01*
X48017638Y-72693608D01*
X48240873Y-72812929D01*
X48483096Y-72886407D01*
X48735000Y-72911217D01*
X48986903Y-72886407D01*
X49229126Y-72812929D01*
X49452361Y-72693608D01*
X49648028Y-72533028D01*
X49808608Y-72337362D01*
X49927929Y-72114127D01*
X50001407Y-71871904D01*
X50020000Y-71683123D01*
X50020000Y-70556877D01*
X50001407Y-70368096D01*
X49927929Y-70125873D01*
X49808608Y-69902638D01*
X49648028Y-69706972D01*
X49452362Y-69546392D01*
X49229127Y-69427071D01*
X48986904Y-69353593D01*
X48735000Y-69328783D01*
X48483097Y-69353593D01*
X48240874Y-69427071D01*
X48017639Y-69546392D01*
X47821973Y-69706972D01*
X47661392Y-69902638D01*
X47542071Y-70125873D01*
X47468593Y-70368096D01*
X47450000Y-70556877D01*
X46134713Y-70556877D01*
X46108346Y-70424321D01*
X45928560Y-69990279D01*
X45667550Y-69599651D01*
X45335349Y-69267450D01*
X44944721Y-69006440D01*
X44510679Y-68826654D01*
X44049902Y-68735000D01*
X43580098Y-68735000D01*
X43119321Y-68826654D01*
X42685279Y-69006440D01*
X42294651Y-69267450D01*
X41962450Y-69599651D01*
X41701440Y-69990279D01*
X41635262Y-70150047D01*
X41627929Y-70125873D01*
X41508608Y-69902638D01*
X41348028Y-69706972D01*
X41152362Y-69546392D01*
X40929127Y-69427071D01*
X40686904Y-69353593D01*
X40435000Y-69328783D01*
X40183097Y-69353593D01*
X39940874Y-69427071D01*
X39717639Y-69546392D01*
X39521973Y-69706972D01*
X39361392Y-69902638D01*
X39242071Y-70125873D01*
X39168593Y-70368096D01*
X39150000Y-70556877D01*
X38620000Y-70556877D01*
X38620000Y-70493000D01*
X38570533Y-70244749D01*
X38473585Y-70010919D01*
X38332882Y-69800495D01*
X38153830Y-69621564D01*
X37943311Y-69481003D01*
X37709415Y-69384213D01*
X37660471Y-69376901D01*
X37462000Y-69500933D01*
X37208000Y-69500933D01*
X37009529Y-69376901D01*
X36960585Y-69384213D01*
X36726689Y-69481003D01*
X36516170Y-69621564D01*
X36337118Y-69800495D01*
X36196415Y-70010919D01*
X36099467Y-70244749D01*
X36050000Y-70493000D01*
X22370000Y-70493000D01*
X22320533Y-70244749D01*
X22223585Y-70010919D01*
X22082882Y-69800495D01*
X21903830Y-69621564D01*
X21693311Y-69481003D01*
X21459415Y-69384213D01*
X21410471Y-69376901D01*
X21212000Y-69500933D01*
X20958000Y-69500933D01*
X20759529Y-69376901D01*
X20710585Y-69384213D01*
X20476689Y-69481003D01*
X20266170Y-69621564D01*
X20087118Y-69800495D01*
X19946415Y-70010919D01*
X19849467Y-70244749D01*
X19800000Y-70493000D01*
X19263709Y-70493000D01*
X19251407Y-70368096D01*
X19177929Y-70125873D01*
X19058608Y-69902638D01*
X18898028Y-69706972D01*
X18702361Y-69546392D01*
X18479126Y-69427071D01*
X18236903Y-69353593D01*
X17985000Y-69328783D01*
X17733096Y-69353593D01*
X17490873Y-69427071D01*
X17267638Y-69546392D01*
X17071972Y-69706972D01*
X16911392Y-69902639D01*
X16792071Y-70125874D01*
X16784738Y-70150047D01*
X16718560Y-69990279D01*
X16457550Y-69599651D01*
X16125349Y-69267450D01*
X15734721Y-69006440D01*
X15300679Y-68826654D01*
X14839902Y-68735000D01*
X14370098Y-68735000D01*
X13909321Y-68826654D01*
X13475279Y-69006440D01*
X13084651Y-69267450D01*
X12752450Y-69599651D01*
X12491440Y-69990279D01*
X12311654Y-70424321D01*
X12220000Y-70885098D01*
X10970000Y-70885098D01*
X10970000Y-70556877D01*
X10951407Y-70368096D01*
X10877929Y-70125873D01*
X10758608Y-69902638D01*
X10598028Y-69706972D01*
X10402361Y-69546392D01*
X10179126Y-69427071D01*
X9936903Y-69353593D01*
X9685000Y-69328783D01*
X9433096Y-69353593D01*
X9190873Y-69427071D01*
X8967638Y-69546392D01*
X8771972Y-69706972D01*
X8611392Y-69902639D01*
X8492071Y-70125874D01*
X8418593Y-70368097D01*
X8400000Y-70556878D01*
X5972731Y-70556878D01*
X6085824Y-70387624D01*
X6171383Y-70181067D01*
X6215000Y-69961788D01*
X6215000Y-69738212D01*
X6171383Y-69518933D01*
X6085824Y-69312376D01*
X5961612Y-69126480D01*
X5915000Y-69079868D01*
X5915000Y-68358332D01*
X6018933Y-68401383D01*
X6238212Y-68445000D01*
X6461788Y-68445000D01*
X6681067Y-68401383D01*
X6887624Y-68315824D01*
X7073520Y-68191612D01*
X7231612Y-68033520D01*
X7355824Y-67847624D01*
X7441383Y-67641067D01*
X7485000Y-67421788D01*
X7485000Y-67198212D01*
X7441383Y-66978933D01*
X7355824Y-66772376D01*
X7231612Y-66586480D01*
X7185000Y-66539868D01*
X7185000Y-65818332D01*
X7288933Y-65861383D01*
X7508212Y-65905000D01*
X7731788Y-65905000D01*
X7951067Y-65861383D01*
X8157624Y-65775824D01*
X8343520Y-65651612D01*
X8501612Y-65493520D01*
X8625824Y-65307624D01*
X8711383Y-65101067D01*
X8755000Y-64881788D01*
X8755000Y-64658212D01*
X8711383Y-64438933D01*
X8625824Y-64232376D01*
X8501612Y-64046480D01*
X8455000Y-63999868D01*
X8455000Y-55380132D01*
X8501612Y-55333520D01*
X8625824Y-55147624D01*
X8711383Y-54941067D01*
X8755000Y-54721788D01*
X8755000Y-54498212D01*
X49665000Y-54498212D01*
X49665000Y-54721788D01*
X49708617Y-54941067D01*
X49794176Y-55147624D01*
X49918388Y-55333520D01*
X49965001Y-55380133D01*
X49965000Y-63999868D01*
X49918388Y-64046480D01*
X49794176Y-64232376D01*
X49708617Y-64438933D01*
X49665000Y-64658212D01*
X49665000Y-64881788D01*
X49708617Y-65101067D01*
X49794176Y-65307624D01*
X49918388Y-65493520D01*
X50076480Y-65651612D01*
X50262376Y-65775824D01*
X50468933Y-65861383D01*
X50688212Y-65905000D01*
X50911788Y-65905000D01*
X51131067Y-65861383D01*
X51235000Y-65818332D01*
X51235000Y-66539868D01*
X51188388Y-66586480D01*
X51064176Y-66772376D01*
X50978617Y-66978933D01*
X50935000Y-67198212D01*
X50935000Y-67421788D01*
X50978617Y-67641067D01*
X51064176Y-67847624D01*
X51188388Y-68033520D01*
X51346480Y-68191612D01*
X51532376Y-68315824D01*
X51738933Y-68401383D01*
X51958212Y-68445000D01*
X52181788Y-68445000D01*
X52401067Y-68401383D01*
X52505000Y-68358332D01*
X52505000Y-69079868D01*
X52458388Y-69126480D01*
X52334176Y-69312376D01*
X52248617Y-69518933D01*
X52205000Y-69738212D01*
X52205000Y-69961788D01*
X52248617Y-70181067D01*
X52334176Y-70387624D01*
X52458388Y-70573520D01*
X52616480Y-70731612D01*
X52802376Y-70855824D01*
X53008933Y-70941383D01*
X53228212Y-70985000D01*
X53451788Y-70985000D01*
X53671067Y-70941383D01*
X53877624Y-70855824D01*
X54063520Y-70731612D01*
X54221612Y-70573520D01*
X54345824Y-70387624D01*
X54431383Y-70181067D01*
X54431572Y-70180118D01*
X54452068Y-70283158D01*
X54564010Y-70553411D01*
X54726525Y-70796632D01*
X54933368Y-71003475D01*
X55115534Y-71125195D01*
X54998645Y-71194822D01*
X54782412Y-71389731D01*
X54608359Y-71623080D01*
X54483175Y-71885901D01*
X54438524Y-72033110D01*
X54559845Y-72263000D01*
X55753000Y-72263000D01*
X55753000Y-72243000D01*
X56007000Y-72243000D01*
X56007000Y-72263000D01*
X57200155Y-72263000D01*
X57321476Y-72033110D01*
X57276825Y-71885901D01*
X57151641Y-71623080D01*
X56977588Y-71389731D01*
X56761355Y-71194822D01*
X56644466Y-71125195D01*
X56826632Y-71003475D01*
X57033475Y-70796632D01*
X57195990Y-70553411D01*
X57307932Y-70283158D01*
X57365000Y-69996260D01*
X57365000Y-69703740D01*
X57307932Y-69416842D01*
X57195990Y-69146589D01*
X57033475Y-68903368D01*
X56826632Y-68696525D01*
X56652240Y-68580000D01*
X56826632Y-68463475D01*
X57033475Y-68256632D01*
X57195990Y-68013411D01*
X57307932Y-67743158D01*
X57365000Y-67456260D01*
X57365000Y-67163740D01*
X57307932Y-66876842D01*
X57195990Y-66606589D01*
X57033475Y-66363368D01*
X56901620Y-66231513D01*
X56974180Y-66209502D01*
X57084494Y-66150537D01*
X57181185Y-66071185D01*
X57260537Y-65974494D01*
X57319502Y-65864180D01*
X57355812Y-65744482D01*
X57368072Y-65620000D01*
X57368072Y-63920000D01*
X57355812Y-63795518D01*
X57319502Y-63675820D01*
X57260537Y-63565506D01*
X57181185Y-63468815D01*
X57084494Y-63389463D01*
X56974180Y-63330498D01*
X56854482Y-63294188D01*
X56730000Y-63281928D01*
X55030000Y-63281928D01*
X54905518Y-63294188D01*
X54785820Y-63330498D01*
X54675506Y-63389463D01*
X54578815Y-63468815D01*
X54499463Y-63565506D01*
X54440498Y-63675820D01*
X54404188Y-63795518D01*
X54391928Y-63920000D01*
X54391928Y-65620000D01*
X54404188Y-65744482D01*
X54440498Y-65864180D01*
X54499463Y-65974494D01*
X54578815Y-66071185D01*
X54675506Y-66150537D01*
X54785820Y-66209502D01*
X54858380Y-66231513D01*
X54726525Y-66363368D01*
X54564010Y-66606589D01*
X54452068Y-66876842D01*
X54395000Y-67163740D01*
X54395000Y-67456260D01*
X54452068Y-67743158D01*
X54564010Y-68013411D01*
X54726525Y-68256632D01*
X54933368Y-68463475D01*
X55107760Y-68580000D01*
X54933368Y-68696525D01*
X54726525Y-68903368D01*
X54564010Y-69146589D01*
X54452068Y-69416842D01*
X54431572Y-69519882D01*
X54431383Y-69518933D01*
X54345824Y-69312376D01*
X54221612Y-69126480D01*
X54175000Y-69079868D01*
X54175000Y-56650132D01*
X54221612Y-56603520D01*
X54345824Y-56417624D01*
X54431383Y-56211067D01*
X54475000Y-55991788D01*
X54475000Y-55768212D01*
X54431383Y-55548933D01*
X54345824Y-55342376D01*
X54221612Y-55156480D01*
X54063520Y-54998388D01*
X53877624Y-54874176D01*
X53671067Y-54788617D01*
X53451788Y-54745000D01*
X53228212Y-54745000D01*
X53008933Y-54788617D01*
X52905000Y-54831668D01*
X52905000Y-54110132D01*
X52951612Y-54063520D01*
X53075824Y-53877624D01*
X53161383Y-53671067D01*
X53205000Y-53451788D01*
X53205000Y-53228212D01*
X53161383Y-53008933D01*
X53075824Y-52802376D01*
X52951612Y-52616480D01*
X52793520Y-52458388D01*
X52607624Y-52334176D01*
X52401067Y-52248617D01*
X52181788Y-52205000D01*
X51958212Y-52205000D01*
X51738933Y-52248617D01*
X51532376Y-52334176D01*
X51346480Y-52458388D01*
X51188388Y-52616480D01*
X51064176Y-52802376D01*
X50978617Y-53008933D01*
X50935000Y-53228212D01*
X50935000Y-53451788D01*
X50940764Y-53480764D01*
X50911788Y-53475000D01*
X50688212Y-53475000D01*
X50468933Y-53518617D01*
X50262376Y-53604176D01*
X50076480Y-53728388D01*
X49918388Y-53886480D01*
X49794176Y-54072376D01*
X49708617Y-54278933D01*
X49665000Y-54498212D01*
X8755000Y-54498212D01*
X8711383Y-54278933D01*
X8625824Y-54072376D01*
X8501612Y-53886480D01*
X8343520Y-53728388D01*
X8157624Y-53604176D01*
X7951067Y-53518617D01*
X7731788Y-53475000D01*
X7508212Y-53475000D01*
X7288933Y-53518617D01*
X7082376Y-53604176D01*
X6896480Y-53728388D01*
X6738388Y-53886480D01*
X6614176Y-54072376D01*
X6528617Y-54278933D01*
X6485000Y-54498212D01*
X6485000Y-54721788D01*
X6490764Y-54750764D01*
X6461788Y-54745000D01*
X6238212Y-54745000D01*
X6018933Y-54788617D01*
X5915000Y-54831668D01*
X5915000Y-54110132D01*
X5961612Y-54063520D01*
X6085824Y-53877624D01*
X6171383Y-53671067D01*
X6215000Y-53451788D01*
X6215000Y-53228212D01*
X6171383Y-53008933D01*
X6085824Y-52802376D01*
X5961612Y-52616480D01*
X5803520Y-52458388D01*
X5617624Y-52334176D01*
X5411067Y-52248617D01*
X5191788Y-52205000D01*
X4968212Y-52205000D01*
X4748933Y-52248617D01*
X4542376Y-52334176D01*
X4356480Y-52458388D01*
X4198388Y-52616480D01*
X4074176Y-52802376D01*
X3988617Y-53008933D01*
X3945000Y-53228212D01*
X3945000Y-53451788D01*
X3988617Y-53671067D01*
X4074176Y-53877624D01*
X4198388Y-54063520D01*
X4245001Y-54110133D01*
X4245000Y-69079868D01*
X4198388Y-69126480D01*
X4074176Y-69312376D01*
X3988617Y-69518933D01*
X3988428Y-69519882D01*
X3967932Y-69416842D01*
X3855990Y-69146589D01*
X3693475Y-68903368D01*
X3486632Y-68696525D01*
X3312240Y-68580000D01*
X3486632Y-68463475D01*
X3693475Y-68256632D01*
X3855990Y-68013411D01*
X3967932Y-67743158D01*
X4025000Y-67456260D01*
X4025000Y-67163740D01*
X3967932Y-66876842D01*
X3855990Y-66606589D01*
X3693475Y-66363368D01*
X3561620Y-66231513D01*
X3634180Y-66209502D01*
X3744494Y-66150537D01*
X3841185Y-66071185D01*
X3920537Y-65974494D01*
X3979502Y-65864180D01*
X4015812Y-65744482D01*
X4028072Y-65620000D01*
X4028072Y-63920000D01*
X4015812Y-63795518D01*
X3979502Y-63675820D01*
X3920537Y-63565506D01*
X3841185Y-63468815D01*
X3744494Y-63389463D01*
X3634180Y-63330498D01*
X3514482Y-63294188D01*
X3390000Y-63281928D01*
X1690000Y-63281928D01*
X1565518Y-63294188D01*
X1445820Y-63330498D01*
X1335506Y-63389463D01*
X1238815Y-63468815D01*
X1159463Y-63565506D01*
X1100498Y-63675820D01*
X1064188Y-63795518D01*
X1051928Y-63920000D01*
X710000Y-63920000D01*
X710000Y-50181963D01*
X10720000Y-50181963D01*
X10720000Y-51418036D01*
X10740040Y-51621506D01*
X10819236Y-51882580D01*
X10947843Y-52123187D01*
X11120919Y-52334080D01*
X11331812Y-52507157D01*
X11572419Y-52635764D01*
X11833493Y-52714960D01*
X12105000Y-52741701D01*
X12376506Y-52714960D01*
X12637580Y-52635764D01*
X12878187Y-52507157D01*
X13089080Y-52334081D01*
X13262157Y-52123188D01*
X13355000Y-51949490D01*
X13447843Y-52123187D01*
X13620919Y-52334080D01*
X13831812Y-52507157D01*
X14072419Y-52635764D01*
X14333493Y-52714960D01*
X14605000Y-52741701D01*
X14876506Y-52714960D01*
X15137580Y-52635764D01*
X15378187Y-52507157D01*
X15589080Y-52334081D01*
X15762157Y-52123188D01*
X15855000Y-51949490D01*
X15947843Y-52123187D01*
X16120919Y-52334080D01*
X16331812Y-52507157D01*
X16572419Y-52635764D01*
X16833493Y-52714960D01*
X17105000Y-52741701D01*
X17376506Y-52714960D01*
X17637580Y-52635764D01*
X17878187Y-52507157D01*
X18089080Y-52334081D01*
X18262157Y-52123188D01*
X18390764Y-51882581D01*
X18469960Y-51621507D01*
X18490000Y-51418037D01*
X18490000Y-50181963D01*
X39930000Y-50181963D01*
X39930000Y-51418036D01*
X39950040Y-51621506D01*
X40029236Y-51882580D01*
X40157843Y-52123187D01*
X40330919Y-52334080D01*
X40541812Y-52507157D01*
X40782419Y-52635764D01*
X41043493Y-52714960D01*
X41315000Y-52741701D01*
X41586506Y-52714960D01*
X41847580Y-52635764D01*
X42088187Y-52507157D01*
X42299080Y-52334081D01*
X42472157Y-52123188D01*
X42565000Y-51949490D01*
X42657843Y-52123187D01*
X42830919Y-52334080D01*
X43041812Y-52507157D01*
X43282419Y-52635764D01*
X43543493Y-52714960D01*
X43815000Y-52741701D01*
X44086506Y-52714960D01*
X44347580Y-52635764D01*
X44588187Y-52507157D01*
X44799080Y-52334081D01*
X44972157Y-52123188D01*
X45065000Y-51949490D01*
X45157843Y-52123187D01*
X45330919Y-52334080D01*
X45541812Y-52507157D01*
X45782419Y-52635764D01*
X46043493Y-52714960D01*
X46315000Y-52741701D01*
X46586506Y-52714960D01*
X46847580Y-52635764D01*
X47088187Y-52507157D01*
X47299080Y-52334081D01*
X47472157Y-52123188D01*
X47600764Y-51882581D01*
X47679960Y-51621507D01*
X47700000Y-51418037D01*
X47700000Y-50181963D01*
X47679960Y-49978493D01*
X47600764Y-49717419D01*
X47472157Y-49476812D01*
X47299081Y-49265919D01*
X47088188Y-49092843D01*
X46847581Y-48964236D01*
X46586507Y-48885040D01*
X46315000Y-48858299D01*
X46043494Y-48885040D01*
X45782420Y-48964236D01*
X45541813Y-49092843D01*
X45330920Y-49265919D01*
X45157843Y-49476812D01*
X45065000Y-49650509D01*
X44972157Y-49476812D01*
X44799081Y-49265919D01*
X44588188Y-49092843D01*
X44347581Y-48964236D01*
X44086507Y-48885040D01*
X43815000Y-48858299D01*
X43543494Y-48885040D01*
X43282420Y-48964236D01*
X43041813Y-49092843D01*
X42830920Y-49265919D01*
X42657843Y-49476812D01*
X42565000Y-49650509D01*
X42472157Y-49476812D01*
X42299081Y-49265919D01*
X42088188Y-49092843D01*
X41847581Y-48964236D01*
X41586507Y-48885040D01*
X41315000Y-48858299D01*
X41043494Y-48885040D01*
X40782420Y-48964236D01*
X40541813Y-49092843D01*
X40330920Y-49265919D01*
X40157843Y-49476812D01*
X40029236Y-49717419D01*
X39950040Y-49978493D01*
X39930000Y-50181963D01*
X18490000Y-50181963D01*
X18469960Y-49978493D01*
X18390764Y-49717419D01*
X18262157Y-49476812D01*
X18089081Y-49265919D01*
X17878188Y-49092843D01*
X17637581Y-48964236D01*
X17376507Y-48885040D01*
X17105000Y-48858299D01*
X16833494Y-48885040D01*
X16572420Y-48964236D01*
X16331813Y-49092843D01*
X16120920Y-49265919D01*
X15947843Y-49476812D01*
X15855000Y-49650509D01*
X15762157Y-49476812D01*
X15589081Y-49265919D01*
X15378188Y-49092843D01*
X15137581Y-48964236D01*
X14876507Y-48885040D01*
X14605000Y-48858299D01*
X14333494Y-48885040D01*
X14072420Y-48964236D01*
X13831813Y-49092843D01*
X13620920Y-49265919D01*
X13447843Y-49476812D01*
X13355000Y-49650509D01*
X13262157Y-49476812D01*
X13089081Y-49265919D01*
X12878188Y-49092843D01*
X12637581Y-48964236D01*
X12376507Y-48885040D01*
X12105000Y-48858299D01*
X11833494Y-48885040D01*
X11572420Y-48964236D01*
X11331813Y-49092843D01*
X11120920Y-49265919D01*
X10947843Y-49476812D01*
X10819236Y-49717419D01*
X10740040Y-49978493D01*
X10720000Y-50181963D01*
X710000Y-50181963D01*
X710000Y-37186890D01*
X1098524Y-37186890D01*
X1143175Y-37334099D01*
X1268359Y-37596920D01*
X1442412Y-37830269D01*
X1658645Y-38025178D01*
X1908748Y-38174157D01*
X2183109Y-38271481D01*
X2413000Y-38150814D01*
X2413000Y-36957000D01*
X2667000Y-36957000D01*
X2667000Y-38150814D01*
X2896891Y-38271481D01*
X3171252Y-38174157D01*
X3421355Y-38025178D01*
X3637588Y-37830269D01*
X3811641Y-37596920D01*
X3936825Y-37334099D01*
X3981476Y-37186890D01*
X3860155Y-36957000D01*
X2667000Y-36957000D01*
X2413000Y-36957000D01*
X1219845Y-36957000D01*
X1098524Y-37186890D01*
X710000Y-37186890D01*
X710000Y-25820000D01*
X1051928Y-25820000D01*
X1051928Y-27520000D01*
X1064188Y-27644482D01*
X1100498Y-27764180D01*
X1159463Y-27874494D01*
X1238815Y-27971185D01*
X1335506Y-28050537D01*
X1445820Y-28109502D01*
X1518380Y-28131513D01*
X1386525Y-28263368D01*
X1224010Y-28506589D01*
X1112068Y-28776842D01*
X1055000Y-29063740D01*
X1055000Y-29356260D01*
X1112068Y-29643158D01*
X1224010Y-29913411D01*
X1386525Y-30156632D01*
X1593368Y-30363475D01*
X1767760Y-30480000D01*
X1593368Y-30596525D01*
X1386525Y-30803368D01*
X1224010Y-31046589D01*
X1112068Y-31316842D01*
X1055000Y-31603740D01*
X1055000Y-31896260D01*
X1112068Y-32183158D01*
X1224010Y-32453411D01*
X1386525Y-32696632D01*
X1518380Y-32828487D01*
X1445820Y-32850498D01*
X1335506Y-32909463D01*
X1238815Y-32988815D01*
X1159463Y-33085506D01*
X1100498Y-33195820D01*
X1064188Y-33315518D01*
X1051928Y-33440000D01*
X1051928Y-35140000D01*
X1064188Y-35264482D01*
X1100498Y-35384180D01*
X1159463Y-35494494D01*
X1238815Y-35591185D01*
X1335506Y-35670537D01*
X1445820Y-35729502D01*
X1526466Y-35753966D01*
X1442412Y-35829731D01*
X1268359Y-36063080D01*
X1143175Y-36325901D01*
X1098524Y-36473110D01*
X1219845Y-36703000D01*
X2413000Y-36703000D01*
X2413000Y-36683000D01*
X2667000Y-36683000D01*
X2667000Y-36703000D01*
X3860155Y-36703000D01*
X3981476Y-36473110D01*
X3936825Y-36325901D01*
X3811641Y-36063080D01*
X3637588Y-35829731D01*
X3553534Y-35753966D01*
X3634180Y-35729502D01*
X3744494Y-35670537D01*
X3841185Y-35591185D01*
X3920537Y-35494494D01*
X3979502Y-35384180D01*
X4015812Y-35264482D01*
X4028072Y-35140000D01*
X4028072Y-33440000D01*
X4015812Y-33315518D01*
X3979502Y-33195820D01*
X3920537Y-33085506D01*
X3841185Y-32988815D01*
X3744494Y-32909463D01*
X3634180Y-32850498D01*
X3561620Y-32828487D01*
X3693475Y-32696632D01*
X3855990Y-32453411D01*
X3967932Y-32183158D01*
X3988428Y-32080118D01*
X3988617Y-32081067D01*
X4074176Y-32287624D01*
X4198388Y-32473520D01*
X4245000Y-32520132D01*
X4245001Y-39869867D01*
X4198388Y-39916480D01*
X4074176Y-40102376D01*
X3988617Y-40308933D01*
X3945000Y-40528212D01*
X3945000Y-40751788D01*
X3988617Y-40971067D01*
X4074176Y-41177624D01*
X4198388Y-41363520D01*
X4356480Y-41521612D01*
X4542376Y-41645824D01*
X4748933Y-41731383D01*
X4968212Y-41775000D01*
X5191788Y-41775000D01*
X5220764Y-41769236D01*
X5215000Y-41798212D01*
X5215000Y-42021788D01*
X5258617Y-42241067D01*
X5344176Y-42447624D01*
X5468388Y-42633520D01*
X5626480Y-42791612D01*
X5812376Y-42915824D01*
X6018933Y-43001383D01*
X6238212Y-43045000D01*
X6461788Y-43045000D01*
X6681067Y-43001383D01*
X6887624Y-42915824D01*
X7073520Y-42791612D01*
X7231612Y-42633520D01*
X7355824Y-42447624D01*
X7441383Y-42241067D01*
X7485000Y-42021788D01*
X7485000Y-41798212D01*
X7441383Y-41578933D01*
X7355824Y-41372376D01*
X7231612Y-41186480D01*
X7185000Y-41139868D01*
X7185000Y-29980132D01*
X7231612Y-29933520D01*
X7296351Y-29836632D01*
X7220000Y-30220475D01*
X7220000Y-30739525D01*
X7321261Y-31248601D01*
X7519893Y-31728141D01*
X7808262Y-32159715D01*
X8175285Y-32526738D01*
X8606859Y-32815107D01*
X9086399Y-33013739D01*
X9595475Y-33115000D01*
X10114525Y-33115000D01*
X10623601Y-33013739D01*
X11103141Y-32815107D01*
X11534715Y-32526738D01*
X11901738Y-32159715D01*
X12190107Y-31728141D01*
X12388739Y-31248601D01*
X12490000Y-30739525D01*
X12490000Y-30220475D01*
X12388739Y-29711399D01*
X12190107Y-29231859D01*
X11901738Y-28800285D01*
X11534715Y-28433262D01*
X11103141Y-28144893D01*
X10623601Y-27946261D01*
X10114525Y-27845000D01*
X9595475Y-27845000D01*
X9086399Y-27946261D01*
X8606859Y-28144893D01*
X8175285Y-28433262D01*
X7808262Y-28800285D01*
X7519893Y-29231859D01*
X7485000Y-29316098D01*
X7485000Y-29098212D01*
X7441383Y-28878933D01*
X7355824Y-28672376D01*
X7231612Y-28486480D01*
X7073520Y-28328388D01*
X6887624Y-28204176D01*
X6681067Y-28118617D01*
X6461788Y-28075000D01*
X6238212Y-28075000D01*
X6018933Y-28118617D01*
X5812376Y-28204176D01*
X5626480Y-28328388D01*
X5468388Y-28486480D01*
X5344176Y-28672376D01*
X5258617Y-28878933D01*
X5215000Y-29098212D01*
X5215000Y-29321788D01*
X5258617Y-29541067D01*
X5344176Y-29747624D01*
X5468388Y-29933520D01*
X5515000Y-29980132D01*
X5515000Y-30701668D01*
X5411067Y-30658617D01*
X5191788Y-30615000D01*
X4968212Y-30615000D01*
X4748933Y-30658617D01*
X4542376Y-30744176D01*
X4356480Y-30868388D01*
X4198388Y-31026480D01*
X4074176Y-31212376D01*
X3988617Y-31418933D01*
X3988428Y-31419882D01*
X3967932Y-31316842D01*
X3855990Y-31046589D01*
X3693475Y-30803368D01*
X3486632Y-30596525D01*
X3312240Y-30480000D01*
X3486632Y-30363475D01*
X3693475Y-30156632D01*
X3855990Y-29913411D01*
X3967932Y-29643158D01*
X4025000Y-29356260D01*
X4025000Y-29063740D01*
X3967932Y-28776842D01*
X3855990Y-28506589D01*
X3693475Y-28263368D01*
X3561620Y-28131513D01*
X3634180Y-28109502D01*
X3744494Y-28050537D01*
X3841185Y-27971185D01*
X3920537Y-27874494D01*
X3979502Y-27764180D01*
X4015812Y-27644482D01*
X4028072Y-27520000D01*
X4028072Y-27096319D01*
X4074176Y-27207624D01*
X4198388Y-27393520D01*
X4356480Y-27551612D01*
X4542376Y-27675824D01*
X4748933Y-27761383D01*
X4968212Y-27805000D01*
X5191788Y-27805000D01*
X5411067Y-27761383D01*
X5617624Y-27675824D01*
X5803520Y-27551612D01*
X5961612Y-27393520D01*
X6085824Y-27207624D01*
X6171383Y-27001067D01*
X6215000Y-26781788D01*
X6215000Y-26558212D01*
X6171383Y-26338933D01*
X6085824Y-26132376D01*
X5961612Y-25946480D01*
X5915000Y-25899868D01*
X5915000Y-23630132D01*
X5961612Y-23583520D01*
X6085824Y-23397624D01*
X6171383Y-23191067D01*
X6215000Y-22971788D01*
X6215000Y-22748212D01*
X6171383Y-22528933D01*
X6085824Y-22322376D01*
X5961612Y-22136480D01*
X5803520Y-21978388D01*
X5617624Y-21854176D01*
X5411067Y-21768617D01*
X5191788Y-21725000D01*
X4968212Y-21725000D01*
X4748933Y-21768617D01*
X4542376Y-21854176D01*
X4356480Y-21978388D01*
X4198388Y-22136480D01*
X4074176Y-22322376D01*
X3988617Y-22528933D01*
X3945000Y-22748212D01*
X3945000Y-22971788D01*
X3988617Y-23191067D01*
X4074176Y-23397624D01*
X4198388Y-23583520D01*
X4245001Y-23630133D01*
X4245000Y-25899868D01*
X4198388Y-25946480D01*
X4074176Y-26132376D01*
X4028072Y-26243681D01*
X4028072Y-25820000D01*
X4015812Y-25695518D01*
X3979502Y-25575820D01*
X3920537Y-25465506D01*
X3841185Y-25368815D01*
X3744494Y-25289463D01*
X3634180Y-25230498D01*
X3514482Y-25194188D01*
X3390000Y-25181928D01*
X1690000Y-25181928D01*
X1565518Y-25194188D01*
X1445820Y-25230498D01*
X1335506Y-25289463D01*
X1238815Y-25368815D01*
X1159463Y-25465506D01*
X1100498Y-25575820D01*
X1064188Y-25695518D01*
X1051928Y-25820000D01*
X710000Y-25820000D01*
X710000Y-9596878D01*
X8400000Y-9596878D01*
X8400000Y-10723123D01*
X8418593Y-10911904D01*
X8492071Y-11154127D01*
X8611392Y-11377362D01*
X8771973Y-11573028D01*
X8850000Y-11637064D01*
X8850001Y-14723972D01*
X8845960Y-14765000D01*
X8862082Y-14928688D01*
X8909828Y-15086086D01*
X8987364Y-15231145D01*
X8987365Y-15231146D01*
X9091710Y-15358291D01*
X9123574Y-15384441D01*
X9540554Y-15801421D01*
X9566709Y-15833291D01*
X9693854Y-15937636D01*
X9838913Y-16015172D01*
X9996311Y-16062918D01*
X10118981Y-16075000D01*
X10118991Y-16075000D01*
X10159999Y-16079039D01*
X10201007Y-16075000D01*
X13624132Y-16075000D01*
X13770000Y-16220868D01*
X13770000Y-17186018D01*
X13770001Y-17186028D01*
X13770000Y-23326016D01*
X13770001Y-23326026D01*
X13770000Y-33519868D01*
X13723388Y-33566480D01*
X13599176Y-33752376D01*
X13513617Y-33958933D01*
X13470000Y-34178212D01*
X13470000Y-34401788D01*
X13513617Y-34621067D01*
X13599176Y-34827624D01*
X13723388Y-35013520D01*
X13881480Y-35171612D01*
X14067376Y-35295824D01*
X14273933Y-35381383D01*
X14493212Y-35425000D01*
X14716788Y-35425000D01*
X14936067Y-35381383D01*
X15142624Y-35295824D01*
X15328520Y-35171612D01*
X15486612Y-35013520D01*
X15610824Y-34827624D01*
X15675000Y-34672690D01*
X15675000Y-35518981D01*
X15670960Y-35560000D01*
X15675000Y-35601018D01*
X15687082Y-35723688D01*
X15734828Y-35881086D01*
X15812364Y-36026145D01*
X15916709Y-36153291D01*
X15948578Y-36179445D01*
X16270001Y-36500868D01*
X16270001Y-36691800D01*
X16126495Y-36787688D01*
X15912688Y-37001495D01*
X15855000Y-37087831D01*
X15797312Y-37001495D01*
X15583505Y-36787688D01*
X15332095Y-36619701D01*
X15052743Y-36503989D01*
X14756184Y-36445000D01*
X14453816Y-36445000D01*
X14157257Y-36503989D01*
X13877905Y-36619701D01*
X13626495Y-36787688D01*
X13412688Y-37001495D01*
X13355000Y-37087831D01*
X13297312Y-37001495D01*
X13083505Y-36787688D01*
X12832095Y-36619701D01*
X12552743Y-36503989D01*
X12256184Y-36445000D01*
X11953816Y-36445000D01*
X11657257Y-36503989D01*
X11377905Y-36619701D01*
X11126495Y-36787688D01*
X10912688Y-37001495D01*
X10744701Y-37252905D01*
X10628989Y-37532257D01*
X10570000Y-37828816D01*
X10570000Y-38131184D01*
X10628989Y-38427743D01*
X10744701Y-38707095D01*
X10912688Y-38958505D01*
X11126495Y-39172312D01*
X11270000Y-39268199D01*
X11270001Y-39829867D01*
X11223388Y-39876480D01*
X11099176Y-40062376D01*
X11013617Y-40268933D01*
X10970000Y-40488212D01*
X10970000Y-40711788D01*
X11013617Y-40931067D01*
X11099176Y-41137624D01*
X11223388Y-41323520D01*
X11381480Y-41481612D01*
X11567376Y-41605824D01*
X11773933Y-41691383D01*
X11993212Y-41735000D01*
X12216788Y-41735000D01*
X12436067Y-41691383D01*
X12642624Y-41605824D01*
X12828520Y-41481612D01*
X12986612Y-41323520D01*
X13110824Y-41137624D01*
X13196383Y-40931067D01*
X13240000Y-40711788D01*
X13240000Y-40488212D01*
X13196383Y-40268933D01*
X13110824Y-40062376D01*
X12986612Y-39876480D01*
X12940000Y-39829868D01*
X12940000Y-39268199D01*
X13083505Y-39172312D01*
X13297312Y-38958505D01*
X13355000Y-38872169D01*
X13412688Y-38958505D01*
X13626495Y-39172312D01*
X13770000Y-39268199D01*
X13770001Y-41139867D01*
X13723388Y-41186480D01*
X13599176Y-41372376D01*
X13513617Y-41578933D01*
X13470000Y-41798212D01*
X13470000Y-42021788D01*
X13513617Y-42241067D01*
X13599176Y-42447624D01*
X13723388Y-42633520D01*
X13881480Y-42791612D01*
X14067376Y-42915824D01*
X14273933Y-43001383D01*
X14493212Y-43045000D01*
X14716788Y-43045000D01*
X14936067Y-43001383D01*
X15142624Y-42915824D01*
X15328520Y-42791612D01*
X15486612Y-42633520D01*
X15610824Y-42447624D01*
X15696383Y-42241067D01*
X15740000Y-42021788D01*
X15740000Y-41798212D01*
X15696383Y-41578933D01*
X15610824Y-41372376D01*
X15486612Y-41186480D01*
X15440000Y-41139868D01*
X15440000Y-39268199D01*
X15583505Y-39172312D01*
X15797312Y-38958505D01*
X15855000Y-38872169D01*
X15912688Y-38958505D01*
X16126495Y-39172312D01*
X16377905Y-39340299D01*
X16657257Y-39456011D01*
X16953816Y-39515000D01*
X17256184Y-39515000D01*
X17552743Y-39456011D01*
X17832095Y-39340299D01*
X18083505Y-39172312D01*
X18297312Y-38958505D01*
X18465299Y-38707095D01*
X18581011Y-38427743D01*
X18640000Y-38131184D01*
X18640000Y-37828816D01*
X39780000Y-37828816D01*
X39780000Y-38131184D01*
X39838989Y-38427743D01*
X39954701Y-38707095D01*
X40122688Y-38958505D01*
X40336495Y-39172312D01*
X40480000Y-39268199D01*
X40480001Y-39829867D01*
X40433388Y-39876480D01*
X40309176Y-40062376D01*
X40223617Y-40268933D01*
X40180000Y-40488212D01*
X40180000Y-40711788D01*
X40223617Y-40931067D01*
X40309176Y-41137624D01*
X40433388Y-41323520D01*
X40591480Y-41481612D01*
X40777376Y-41605824D01*
X40983933Y-41691383D01*
X41203212Y-41735000D01*
X41426788Y-41735000D01*
X41646067Y-41691383D01*
X41852624Y-41605824D01*
X42038520Y-41481612D01*
X42196612Y-41323520D01*
X42320824Y-41137624D01*
X42406383Y-40931067D01*
X42450000Y-40711788D01*
X42450000Y-40488212D01*
X42406383Y-40268933D01*
X42320824Y-40062376D01*
X42196612Y-39876480D01*
X42150000Y-39829868D01*
X42150000Y-39268199D01*
X42293505Y-39172312D01*
X42507312Y-38958505D01*
X42565000Y-38872169D01*
X42622688Y-38958505D01*
X42836495Y-39172312D01*
X42980000Y-39268199D01*
X42980001Y-41139867D01*
X42933388Y-41186480D01*
X42809176Y-41372376D01*
X42723617Y-41578933D01*
X42680000Y-41798212D01*
X42680000Y-42021788D01*
X42723617Y-42241067D01*
X42809176Y-42447624D01*
X42933388Y-42633520D01*
X43091480Y-42791612D01*
X43277376Y-42915824D01*
X43483933Y-43001383D01*
X43703212Y-43045000D01*
X43926788Y-43045000D01*
X44146067Y-43001383D01*
X44352624Y-42915824D01*
X44538520Y-42791612D01*
X44696612Y-42633520D01*
X44820824Y-42447624D01*
X44906383Y-42241067D01*
X44950000Y-42021788D01*
X44950000Y-41798212D01*
X44906383Y-41578933D01*
X44820824Y-41372376D01*
X44696612Y-41186480D01*
X44650000Y-41139868D01*
X44650000Y-39268199D01*
X44793505Y-39172312D01*
X45007312Y-38958505D01*
X45065000Y-38872169D01*
X45122688Y-38958505D01*
X45336495Y-39172312D01*
X45587905Y-39340299D01*
X45867257Y-39456011D01*
X46163816Y-39515000D01*
X46466184Y-39515000D01*
X46762743Y-39456011D01*
X47042095Y-39340299D01*
X47293505Y-39172312D01*
X47507312Y-38958505D01*
X47675299Y-38707095D01*
X47791011Y-38427743D01*
X47850000Y-38131184D01*
X47850000Y-37828816D01*
X47791011Y-37532257D01*
X47675299Y-37252905D01*
X47507312Y-37001495D01*
X47293505Y-36787688D01*
X47150000Y-36691801D01*
X47150000Y-36276018D01*
X47154040Y-36234999D01*
X47137918Y-36071311D01*
X47090172Y-35913913D01*
X47012636Y-35768854D01*
X46908291Y-35641709D01*
X46876426Y-35615558D01*
X46555000Y-35294133D01*
X46555000Y-32196453D01*
X46885285Y-32526738D01*
X47316859Y-32815107D01*
X47796399Y-33013739D01*
X48305475Y-33115000D01*
X48824525Y-33115000D01*
X49333601Y-33013739D01*
X49813141Y-32815107D01*
X50244715Y-32526738D01*
X50611738Y-32159715D01*
X50900107Y-31728141D01*
X51098739Y-31248601D01*
X51200000Y-30739525D01*
X51200000Y-30220475D01*
X51123649Y-29836632D01*
X51188388Y-29933520D01*
X51235000Y-29980132D01*
X51235001Y-41139867D01*
X51188388Y-41186480D01*
X51064176Y-41372376D01*
X50978617Y-41578933D01*
X50935000Y-41798212D01*
X50935000Y-42021788D01*
X50978617Y-42241067D01*
X51064176Y-42447624D01*
X51188388Y-42633520D01*
X51346480Y-42791612D01*
X51532376Y-42915824D01*
X51738933Y-43001383D01*
X51958212Y-43045000D01*
X52181788Y-43045000D01*
X52401067Y-43001383D01*
X52607624Y-42915824D01*
X52793520Y-42791612D01*
X52951612Y-42633520D01*
X53075824Y-42447624D01*
X53161383Y-42241067D01*
X53205000Y-42021788D01*
X53205000Y-41798212D01*
X53199236Y-41769236D01*
X53228212Y-41775000D01*
X53451788Y-41775000D01*
X53671067Y-41731383D01*
X53877624Y-41645824D01*
X54063520Y-41521612D01*
X54221612Y-41363520D01*
X54345824Y-41177624D01*
X54431383Y-40971067D01*
X54475000Y-40751788D01*
X54475000Y-40528212D01*
X54431383Y-40308933D01*
X54345824Y-40102376D01*
X54221612Y-39916480D01*
X54175000Y-39869868D01*
X54175000Y-37186890D01*
X54438524Y-37186890D01*
X54483175Y-37334099D01*
X54608359Y-37596920D01*
X54782412Y-37830269D01*
X54998645Y-38025178D01*
X55248748Y-38174157D01*
X55523109Y-38271481D01*
X55753000Y-38150814D01*
X55753000Y-36957000D01*
X56007000Y-36957000D01*
X56007000Y-38150814D01*
X56236891Y-38271481D01*
X56511252Y-38174157D01*
X56761355Y-38025178D01*
X56977588Y-37830269D01*
X57151641Y-37596920D01*
X57276825Y-37334099D01*
X57321476Y-37186890D01*
X57200155Y-36957000D01*
X56007000Y-36957000D01*
X55753000Y-36957000D01*
X54559845Y-36957000D01*
X54438524Y-37186890D01*
X54175000Y-37186890D01*
X54175000Y-32520132D01*
X54221612Y-32473520D01*
X54345824Y-32287624D01*
X54431383Y-32081067D01*
X54431572Y-32080118D01*
X54452068Y-32183158D01*
X54564010Y-32453411D01*
X54726525Y-32696632D01*
X54858380Y-32828487D01*
X54785820Y-32850498D01*
X54675506Y-32909463D01*
X54578815Y-32988815D01*
X54499463Y-33085506D01*
X54440498Y-33195820D01*
X54404188Y-33315518D01*
X54391928Y-33440000D01*
X54391928Y-35140000D01*
X54404188Y-35264482D01*
X54440498Y-35384180D01*
X54499463Y-35494494D01*
X54578815Y-35591185D01*
X54675506Y-35670537D01*
X54785820Y-35729502D01*
X54866466Y-35753966D01*
X54782412Y-35829731D01*
X54608359Y-36063080D01*
X54483175Y-36325901D01*
X54438524Y-36473110D01*
X54559845Y-36703000D01*
X55753000Y-36703000D01*
X55753000Y-36683000D01*
X56007000Y-36683000D01*
X56007000Y-36703000D01*
X57200155Y-36703000D01*
X57321476Y-36473110D01*
X57276825Y-36325901D01*
X57151641Y-36063080D01*
X56977588Y-35829731D01*
X56893534Y-35753966D01*
X56974180Y-35729502D01*
X57084494Y-35670537D01*
X57181185Y-35591185D01*
X57260537Y-35494494D01*
X57319502Y-35384180D01*
X57355812Y-35264482D01*
X57368072Y-35140000D01*
X57368072Y-33440000D01*
X57355812Y-33315518D01*
X57319502Y-33195820D01*
X57260537Y-33085506D01*
X57181185Y-32988815D01*
X57084494Y-32909463D01*
X56974180Y-32850498D01*
X56901620Y-32828487D01*
X57033475Y-32696632D01*
X57195990Y-32453411D01*
X57307932Y-32183158D01*
X57365000Y-31896260D01*
X57365000Y-31603740D01*
X57307932Y-31316842D01*
X57195990Y-31046589D01*
X57033475Y-30803368D01*
X56826632Y-30596525D01*
X56652240Y-30480000D01*
X56826632Y-30363475D01*
X57033475Y-30156632D01*
X57195990Y-29913411D01*
X57307932Y-29643158D01*
X57365000Y-29356260D01*
X57365000Y-29063740D01*
X57307932Y-28776842D01*
X57195990Y-28506589D01*
X57033475Y-28263368D01*
X56901620Y-28131513D01*
X56974180Y-28109502D01*
X57084494Y-28050537D01*
X57181185Y-27971185D01*
X57260537Y-27874494D01*
X57319502Y-27764180D01*
X57355812Y-27644482D01*
X57368072Y-27520000D01*
X57368072Y-25820000D01*
X57355812Y-25695518D01*
X57319502Y-25575820D01*
X57260537Y-25465506D01*
X57181185Y-25368815D01*
X57084494Y-25289463D01*
X56974180Y-25230498D01*
X56854482Y-25194188D01*
X56730000Y-25181928D01*
X55030000Y-25181928D01*
X54905518Y-25194188D01*
X54785820Y-25230498D01*
X54675506Y-25289463D01*
X54578815Y-25368815D01*
X54499463Y-25465506D01*
X54440498Y-25575820D01*
X54404188Y-25695518D01*
X54391928Y-25820000D01*
X54391928Y-26243681D01*
X54345824Y-26132376D01*
X54221612Y-25946480D01*
X54175000Y-25899868D01*
X54175000Y-23630132D01*
X54221612Y-23583520D01*
X54345824Y-23397624D01*
X54431383Y-23191067D01*
X54475000Y-22971788D01*
X54475000Y-22748212D01*
X54431383Y-22528933D01*
X54345824Y-22322376D01*
X54221612Y-22136480D01*
X54063520Y-21978388D01*
X53877624Y-21854176D01*
X53671067Y-21768617D01*
X53451788Y-21725000D01*
X53228212Y-21725000D01*
X53008933Y-21768617D01*
X52802376Y-21854176D01*
X52616480Y-21978388D01*
X52458388Y-22136480D01*
X52334176Y-22322376D01*
X52248617Y-22528933D01*
X52205000Y-22748212D01*
X52205000Y-22971788D01*
X52248617Y-23191067D01*
X52334176Y-23397624D01*
X52458388Y-23583520D01*
X52505001Y-23630133D01*
X52505000Y-25899868D01*
X52458388Y-25946480D01*
X52334176Y-26132376D01*
X52248617Y-26338933D01*
X52205000Y-26558212D01*
X52205000Y-26781788D01*
X52248617Y-27001067D01*
X52334176Y-27207624D01*
X52458388Y-27393520D01*
X52616480Y-27551612D01*
X52802376Y-27675824D01*
X53008933Y-27761383D01*
X53228212Y-27805000D01*
X53451788Y-27805000D01*
X53671067Y-27761383D01*
X53877624Y-27675824D01*
X54063520Y-27551612D01*
X54221612Y-27393520D01*
X54345824Y-27207624D01*
X54391928Y-27096319D01*
X54391928Y-27520000D01*
X54404188Y-27644482D01*
X54440498Y-27764180D01*
X54499463Y-27874494D01*
X54578815Y-27971185D01*
X54675506Y-28050537D01*
X54785820Y-28109502D01*
X54858380Y-28131513D01*
X54726525Y-28263368D01*
X54564010Y-28506589D01*
X54452068Y-28776842D01*
X54395000Y-29063740D01*
X54395000Y-29356260D01*
X54452068Y-29643158D01*
X54564010Y-29913411D01*
X54726525Y-30156632D01*
X54933368Y-30363475D01*
X55107760Y-30480000D01*
X54933368Y-30596525D01*
X54726525Y-30803368D01*
X54564010Y-31046589D01*
X54452068Y-31316842D01*
X54431572Y-31419882D01*
X54431383Y-31418933D01*
X54345824Y-31212376D01*
X54221612Y-31026480D01*
X54063520Y-30868388D01*
X53877624Y-30744176D01*
X53671067Y-30658617D01*
X53451788Y-30615000D01*
X53228212Y-30615000D01*
X53008933Y-30658617D01*
X52905000Y-30701668D01*
X52905000Y-29980132D01*
X52951612Y-29933520D01*
X53075824Y-29747624D01*
X53161383Y-29541067D01*
X53205000Y-29321788D01*
X53205000Y-29098212D01*
X53161383Y-28878933D01*
X53075824Y-28672376D01*
X52951612Y-28486480D01*
X52793520Y-28328388D01*
X52607624Y-28204176D01*
X52401067Y-28118617D01*
X52181788Y-28075000D01*
X51958212Y-28075000D01*
X51738933Y-28118617D01*
X51532376Y-28204176D01*
X51346480Y-28328388D01*
X51188388Y-28486480D01*
X51064176Y-28672376D01*
X50978617Y-28878933D01*
X50935000Y-29098212D01*
X50935000Y-29316098D01*
X50900107Y-29231859D01*
X50611738Y-28800285D01*
X50244715Y-28433262D01*
X49813141Y-28144893D01*
X49333601Y-27946261D01*
X48824525Y-27845000D01*
X48305475Y-27845000D01*
X47796399Y-27946261D01*
X47316859Y-28144893D01*
X46885285Y-28433262D01*
X46555000Y-28763547D01*
X46555000Y-23630132D01*
X46601612Y-23583520D01*
X46725824Y-23397624D01*
X46811383Y-23191067D01*
X46855000Y-22971788D01*
X46855000Y-22748212D01*
X46811383Y-22528933D01*
X46725824Y-22322376D01*
X46601612Y-22136480D01*
X46443520Y-21978388D01*
X46257624Y-21854176D01*
X46051067Y-21768617D01*
X45831788Y-21725000D01*
X45608212Y-21725000D01*
X45388933Y-21768617D01*
X45182376Y-21854176D01*
X44996480Y-21978388D01*
X44838388Y-22136480D01*
X44714176Y-22322376D01*
X44650000Y-22477310D01*
X44650000Y-16220868D01*
X44795868Y-16075000D01*
X48218982Y-16075000D01*
X48260000Y-16079040D01*
X48301018Y-16075000D01*
X48301019Y-16075000D01*
X48423689Y-16062918D01*
X48581087Y-16015172D01*
X48726146Y-15937636D01*
X48853291Y-15833291D01*
X48879446Y-15801421D01*
X49296421Y-15384446D01*
X49328291Y-15358291D01*
X49432636Y-15231146D01*
X49510172Y-15086087D01*
X49557918Y-14928689D01*
X49570000Y-14806019D01*
X49570000Y-14806009D01*
X49574039Y-14765001D01*
X49570000Y-14723993D01*
X49570000Y-11637064D01*
X49648028Y-11573028D01*
X49808608Y-11377362D01*
X49927929Y-11154127D01*
X50001407Y-10911904D01*
X50020000Y-10723123D01*
X50020000Y-9596877D01*
X50001407Y-9408096D01*
X49927929Y-9165873D01*
X49808608Y-8942638D01*
X49648028Y-8746972D01*
X49452362Y-8586392D01*
X49229127Y-8467071D01*
X48986904Y-8393593D01*
X48735000Y-8368783D01*
X48483097Y-8393593D01*
X48240874Y-8467071D01*
X48017639Y-8586392D01*
X47821973Y-8746972D01*
X47661392Y-8942638D01*
X47542071Y-9165873D01*
X47468593Y-9408096D01*
X47450000Y-9596877D01*
X47450000Y-10723122D01*
X47468593Y-10911903D01*
X47542071Y-11154126D01*
X47661392Y-11377361D01*
X47821972Y-11573028D01*
X47900000Y-11637065D01*
X47900001Y-14405000D01*
X44491018Y-14405000D01*
X44450000Y-14400960D01*
X44408982Y-14405000D01*
X44408981Y-14405000D01*
X44286311Y-14417082D01*
X44128913Y-14464828D01*
X43983854Y-14542364D01*
X43912026Y-14601312D01*
X43856709Y-14646709D01*
X43830562Y-14678569D01*
X43253578Y-15255555D01*
X43221709Y-15281709D01*
X43121605Y-15403687D01*
X43117364Y-15408855D01*
X43039828Y-15553914D01*
X42992082Y-15711312D01*
X42975960Y-15875000D01*
X42980000Y-15916019D01*
X42980001Y-23243970D01*
X42980000Y-23243980D01*
X42980001Y-33519867D01*
X42933388Y-33566480D01*
X42809176Y-33752376D01*
X42723617Y-33958933D01*
X42680000Y-34178212D01*
X42680000Y-34401788D01*
X42723617Y-34621067D01*
X42809176Y-34827624D01*
X42933388Y-35013520D01*
X43091480Y-35171612D01*
X43277376Y-35295824D01*
X43483933Y-35381383D01*
X43703212Y-35425000D01*
X43926788Y-35425000D01*
X44146067Y-35381383D01*
X44352624Y-35295824D01*
X44538520Y-35171612D01*
X44696612Y-35013520D01*
X44820824Y-34827624D01*
X44885000Y-34672690D01*
X44885000Y-35598981D01*
X44880960Y-35640000D01*
X44885000Y-35681018D01*
X44897082Y-35803688D01*
X44944828Y-35961086D01*
X45022364Y-36106145D01*
X45126709Y-36233291D01*
X45158578Y-36259445D01*
X45480001Y-36580868D01*
X45480001Y-36691800D01*
X45336495Y-36787688D01*
X45122688Y-37001495D01*
X45065000Y-37087831D01*
X45007312Y-37001495D01*
X44793505Y-36787688D01*
X44542095Y-36619701D01*
X44262743Y-36503989D01*
X43966184Y-36445000D01*
X43663816Y-36445000D01*
X43367257Y-36503989D01*
X43087905Y-36619701D01*
X42836495Y-36787688D01*
X42622688Y-37001495D01*
X42565000Y-37087831D01*
X42507312Y-37001495D01*
X42293505Y-36787688D01*
X42042095Y-36619701D01*
X41762743Y-36503989D01*
X41466184Y-36445000D01*
X41163816Y-36445000D01*
X40867257Y-36503989D01*
X40587905Y-36619701D01*
X40336495Y-36787688D01*
X40122688Y-37001495D01*
X39954701Y-37252905D01*
X39838989Y-37532257D01*
X39780000Y-37828816D01*
X18640000Y-37828816D01*
X18581011Y-37532257D01*
X18465299Y-37252905D01*
X18297312Y-37001495D01*
X18083505Y-36787688D01*
X17940000Y-36691801D01*
X17940000Y-36196018D01*
X17944040Y-36154999D01*
X17927918Y-35991311D01*
X17880172Y-35833913D01*
X17802636Y-35688854D01*
X17763945Y-35641709D01*
X17698291Y-35561709D01*
X17666426Y-35535558D01*
X17345000Y-35214133D01*
X17345000Y-32196453D01*
X17675285Y-32526738D01*
X18106859Y-32815107D01*
X18586399Y-33013739D01*
X19095475Y-33115000D01*
X19614525Y-33115000D01*
X20123601Y-33013739D01*
X20603141Y-32815107D01*
X21034715Y-32526738D01*
X21401738Y-32159715D01*
X21690107Y-31728141D01*
X21888739Y-31248601D01*
X21990000Y-30739525D01*
X21990000Y-30220475D01*
X36430000Y-30220475D01*
X36430000Y-30739525D01*
X36531261Y-31248601D01*
X36729893Y-31728141D01*
X37018262Y-32159715D01*
X37385285Y-32526738D01*
X37816859Y-32815107D01*
X38296399Y-33013739D01*
X38805475Y-33115000D01*
X39324525Y-33115000D01*
X39833601Y-33013739D01*
X40313141Y-32815107D01*
X40744715Y-32526738D01*
X41111738Y-32159715D01*
X41400107Y-31728141D01*
X41598739Y-31248601D01*
X41700000Y-30739525D01*
X41700000Y-30220475D01*
X41598739Y-29711399D01*
X41400107Y-29231859D01*
X41111738Y-28800285D01*
X40744715Y-28433262D01*
X40313141Y-28144893D01*
X39833601Y-27946261D01*
X39324525Y-27845000D01*
X38805475Y-27845000D01*
X38296399Y-27946261D01*
X37816859Y-28144893D01*
X37385285Y-28433262D01*
X37018262Y-28800285D01*
X36729893Y-29231859D01*
X36531261Y-29711399D01*
X36430000Y-30220475D01*
X21990000Y-30220475D01*
X21888739Y-29711399D01*
X21690107Y-29231859D01*
X21401738Y-28800285D01*
X21034715Y-28433262D01*
X20603141Y-28144893D01*
X20123601Y-27946261D01*
X19614525Y-27845000D01*
X19095475Y-27845000D01*
X18586399Y-27946261D01*
X18106859Y-28144893D01*
X17675285Y-28433262D01*
X17345000Y-28763547D01*
X17345000Y-23630132D01*
X17391612Y-23583520D01*
X17515824Y-23397624D01*
X17601383Y-23191067D01*
X17645000Y-22971788D01*
X17645000Y-22748212D01*
X17601383Y-22528933D01*
X17515824Y-22322376D01*
X17391612Y-22136480D01*
X17233520Y-21978388D01*
X17047624Y-21854176D01*
X16841067Y-21768617D01*
X16621788Y-21725000D01*
X16398212Y-21725000D01*
X16178933Y-21768617D01*
X15972376Y-21854176D01*
X15786480Y-21978388D01*
X15628388Y-22136480D01*
X15504176Y-22322376D01*
X15440000Y-22477310D01*
X15440000Y-15916018D01*
X15444040Y-15875000D01*
X15427918Y-15711312D01*
X15426351Y-15706144D01*
X15380172Y-15553913D01*
X15302636Y-15408854D01*
X15234992Y-15326429D01*
X15224439Y-15313570D01*
X15224437Y-15313568D01*
X15198291Y-15281709D01*
X15166432Y-15255564D01*
X14589445Y-14678578D01*
X14563291Y-14646709D01*
X14436146Y-14542364D01*
X14291087Y-14464828D01*
X14133689Y-14417082D01*
X14011019Y-14405000D01*
X14011018Y-14405000D01*
X13970000Y-14400960D01*
X13928982Y-14405000D01*
X10520000Y-14405000D01*
X10520000Y-11637064D01*
X10598028Y-11573028D01*
X10758608Y-11377362D01*
X10877929Y-11154127D01*
X10951407Y-10911904D01*
X10970000Y-10723123D01*
X10970000Y-9925098D01*
X12220000Y-9925098D01*
X12220000Y-10394902D01*
X12311654Y-10855679D01*
X12491440Y-11289721D01*
X12752450Y-11680349D01*
X13084651Y-12012550D01*
X13475279Y-12273560D01*
X13909321Y-12453346D01*
X14370098Y-12545000D01*
X14839902Y-12545000D01*
X15300679Y-12453346D01*
X15734721Y-12273560D01*
X16125349Y-12012550D01*
X16457550Y-11680349D01*
X16718560Y-11289721D01*
X16784738Y-11129953D01*
X16792071Y-11154127D01*
X16911392Y-11377362D01*
X17071973Y-11573028D01*
X17267639Y-11733608D01*
X17490874Y-11852929D01*
X17733097Y-11926407D01*
X17985000Y-11951217D01*
X18236904Y-11926407D01*
X18479127Y-11852929D01*
X18702362Y-11733608D01*
X18898028Y-11573028D01*
X19058608Y-11377362D01*
X19177929Y-11154127D01*
X19251407Y-10911904D01*
X19270000Y-10723123D01*
X19270000Y-10287000D01*
X19800000Y-10287000D01*
X19800000Y-10787000D01*
X19849467Y-11035251D01*
X19946415Y-11269081D01*
X20087118Y-11479505D01*
X20266170Y-11658436D01*
X20476689Y-11798997D01*
X20710585Y-11895787D01*
X20759529Y-11903099D01*
X20958000Y-11779067D01*
X20958000Y-10287000D01*
X21212000Y-10287000D01*
X21212000Y-11779067D01*
X21410471Y-11903099D01*
X21459415Y-11895787D01*
X21693311Y-11798997D01*
X21903830Y-11658436D01*
X22082882Y-11479505D01*
X22223585Y-11269081D01*
X22320533Y-11035251D01*
X22370000Y-10787000D01*
X22370000Y-10287000D01*
X36050000Y-10287000D01*
X36050000Y-10787000D01*
X36099467Y-11035251D01*
X36196415Y-11269081D01*
X36337118Y-11479505D01*
X36516170Y-11658436D01*
X36726689Y-11798997D01*
X36960585Y-11895787D01*
X37009529Y-11903099D01*
X37208000Y-11779067D01*
X37208000Y-10287000D01*
X37462000Y-10287000D01*
X37462000Y-11779067D01*
X37660471Y-11903099D01*
X37709415Y-11895787D01*
X37943311Y-11798997D01*
X38153830Y-11658436D01*
X38332882Y-11479505D01*
X38473585Y-11269081D01*
X38570533Y-11035251D01*
X38620000Y-10787000D01*
X38620000Y-10287000D01*
X37462000Y-10287000D01*
X37208000Y-10287000D01*
X36050000Y-10287000D01*
X22370000Y-10287000D01*
X21212000Y-10287000D01*
X20958000Y-10287000D01*
X19800000Y-10287000D01*
X19270000Y-10287000D01*
X19270000Y-9596877D01*
X19263709Y-9533000D01*
X19800000Y-9533000D01*
X19800000Y-10033000D01*
X20958000Y-10033000D01*
X20958000Y-8540933D01*
X21212000Y-8540933D01*
X21212000Y-10033000D01*
X22370000Y-10033000D01*
X22370000Y-9533000D01*
X36050000Y-9533000D01*
X36050000Y-10033000D01*
X37208000Y-10033000D01*
X37208000Y-8540933D01*
X37462000Y-8540933D01*
X37462000Y-10033000D01*
X38620000Y-10033000D01*
X38620000Y-9596877D01*
X39150000Y-9596877D01*
X39150000Y-10723122D01*
X39168593Y-10911903D01*
X39242071Y-11154126D01*
X39361392Y-11377361D01*
X39521972Y-11573028D01*
X39717638Y-11733608D01*
X39940873Y-11852929D01*
X40183096Y-11926407D01*
X40435000Y-11951217D01*
X40686903Y-11926407D01*
X40929126Y-11852929D01*
X41152361Y-11733608D01*
X41348028Y-11573028D01*
X41508608Y-11377362D01*
X41627929Y-11154127D01*
X41635262Y-11129953D01*
X41701440Y-11289721D01*
X41962450Y-11680349D01*
X42294651Y-12012550D01*
X42685279Y-12273560D01*
X43119321Y-12453346D01*
X43580098Y-12545000D01*
X44049902Y-12545000D01*
X44510679Y-12453346D01*
X44944721Y-12273560D01*
X45335349Y-12012550D01*
X45667550Y-11680349D01*
X45928560Y-11289721D01*
X46108346Y-10855679D01*
X46200000Y-10394902D01*
X46200000Y-9925098D01*
X46108346Y-9464321D01*
X45928560Y-9030279D01*
X45667550Y-8639651D01*
X45335349Y-8307450D01*
X44944721Y-8046440D01*
X44510679Y-7866654D01*
X44049902Y-7775000D01*
X43580098Y-7775000D01*
X43119321Y-7866654D01*
X42685279Y-8046440D01*
X42294651Y-8307450D01*
X41962450Y-8639651D01*
X41701440Y-9030279D01*
X41635262Y-9190047D01*
X41627929Y-9165873D01*
X41508608Y-8942638D01*
X41348028Y-8746972D01*
X41152362Y-8586392D01*
X40929127Y-8467071D01*
X40686904Y-8393593D01*
X40435000Y-8368783D01*
X40183097Y-8393593D01*
X39940874Y-8467071D01*
X39717639Y-8586392D01*
X39521973Y-8746972D01*
X39361392Y-8942638D01*
X39242071Y-9165873D01*
X39168593Y-9408096D01*
X39150000Y-9596877D01*
X38620000Y-9596877D01*
X38620000Y-9533000D01*
X38570533Y-9284749D01*
X38473585Y-9050919D01*
X38332882Y-8840495D01*
X38153830Y-8661564D01*
X37943311Y-8521003D01*
X37709415Y-8424213D01*
X37660471Y-8416901D01*
X37462000Y-8540933D01*
X37208000Y-8540933D01*
X37009529Y-8416901D01*
X36960585Y-8424213D01*
X36726689Y-8521003D01*
X36516170Y-8661564D01*
X36337118Y-8840495D01*
X36196415Y-9050919D01*
X36099467Y-9284749D01*
X36050000Y-9533000D01*
X22370000Y-9533000D01*
X22320533Y-9284749D01*
X22223585Y-9050919D01*
X22082882Y-8840495D01*
X21903830Y-8661564D01*
X21693311Y-8521003D01*
X21459415Y-8424213D01*
X21410471Y-8416901D01*
X21212000Y-8540933D01*
X20958000Y-8540933D01*
X20759529Y-8416901D01*
X20710585Y-8424213D01*
X20476689Y-8521003D01*
X20266170Y-8661564D01*
X20087118Y-8840495D01*
X19946415Y-9050919D01*
X19849467Y-9284749D01*
X19800000Y-9533000D01*
X19263709Y-9533000D01*
X19251407Y-9408096D01*
X19177929Y-9165873D01*
X19058608Y-8942638D01*
X18898028Y-8746972D01*
X18702361Y-8586392D01*
X18479126Y-8467071D01*
X18236903Y-8393593D01*
X17985000Y-8368783D01*
X17733096Y-8393593D01*
X17490873Y-8467071D01*
X17267638Y-8586392D01*
X17071972Y-8746972D01*
X16911392Y-8942639D01*
X16792071Y-9165874D01*
X16784738Y-9190047D01*
X16718560Y-9030279D01*
X16457550Y-8639651D01*
X16125349Y-8307450D01*
X15734721Y-8046440D01*
X15300679Y-7866654D01*
X14839902Y-7775000D01*
X14370098Y-7775000D01*
X13909321Y-7866654D01*
X13475279Y-8046440D01*
X13084651Y-8307450D01*
X12752450Y-8639651D01*
X12491440Y-9030279D01*
X12311654Y-9464321D01*
X12220000Y-9925098D01*
X10970000Y-9925098D01*
X10970000Y-9596877D01*
X10951407Y-9408096D01*
X10877929Y-9165873D01*
X10758608Y-8942638D01*
X10598028Y-8746972D01*
X10402361Y-8586392D01*
X10179126Y-8467071D01*
X9936903Y-8393593D01*
X9685000Y-8368783D01*
X9433096Y-8393593D01*
X9190873Y-8467071D01*
X8967638Y-8586392D01*
X8771972Y-8746972D01*
X8611392Y-8942639D01*
X8492071Y-9165874D01*
X8418593Y-9408097D01*
X8400000Y-9596878D01*
X710000Y-9596878D01*
X710000Y-7176468D01*
X3163137Y-7176468D01*
X3421298Y-7579073D01*
X3940715Y-7854651D01*
X4503913Y-8023601D01*
X5089250Y-8079430D01*
X5674233Y-8019992D01*
X6236379Y-7847571D01*
X6738702Y-7579073D01*
X6996863Y-7176468D01*
X51423137Y-7176468D01*
X51681298Y-7579073D01*
X52200715Y-7854651D01*
X52763913Y-8023601D01*
X53349250Y-8079430D01*
X53934233Y-8019992D01*
X54496379Y-7847571D01*
X54998702Y-7579073D01*
X55256863Y-7176468D01*
X53340000Y-5259605D01*
X51423137Y-7176468D01*
X6996863Y-7176468D01*
X5080000Y-5259605D01*
X3163137Y-7176468D01*
X710000Y-7176468D01*
X710000Y-5089250D01*
X2080570Y-5089250D01*
X2140008Y-5674233D01*
X2312429Y-6236379D01*
X2580927Y-6738702D01*
X2983532Y-6996863D01*
X4900395Y-5080000D01*
X5259605Y-5080000D01*
X7176468Y-6996863D01*
X7579073Y-6738702D01*
X7854651Y-6219285D01*
X8023601Y-5656087D01*
X8077665Y-5089250D01*
X50340570Y-5089250D01*
X50400008Y-5674233D01*
X50572429Y-6236379D01*
X50840927Y-6738702D01*
X51243532Y-6996863D01*
X53160395Y-5080000D01*
X53519605Y-5080000D01*
X55436468Y-6996863D01*
X55839073Y-6738702D01*
X56114651Y-6219285D01*
X56283601Y-5656087D01*
X56339430Y-5070750D01*
X56279992Y-4485767D01*
X56107571Y-3923621D01*
X55839073Y-3421298D01*
X55436468Y-3163137D01*
X53519605Y-5080000D01*
X53160395Y-5080000D01*
X51243532Y-3163137D01*
X50840927Y-3421298D01*
X50565349Y-3940715D01*
X50396399Y-4503913D01*
X50340570Y-5089250D01*
X8077665Y-5089250D01*
X8079430Y-5070750D01*
X8019992Y-4485767D01*
X7847571Y-3923621D01*
X7579073Y-3421298D01*
X7176468Y-3163137D01*
X5259605Y-5080000D01*
X4900395Y-5080000D01*
X2983532Y-3163137D01*
X2580927Y-3421298D01*
X2305349Y-3940715D01*
X2136399Y-4503913D01*
X2080570Y-5089250D01*
X710000Y-5089250D01*
X710000Y-2983532D01*
X3163137Y-2983532D01*
X5080000Y-4900395D01*
X6996863Y-2983532D01*
X51423137Y-2983532D01*
X53340000Y-4900395D01*
X55256863Y-2983532D01*
X54998702Y-2580927D01*
X54479285Y-2305349D01*
X53916087Y-2136399D01*
X53330750Y-2080570D01*
X52745767Y-2140008D01*
X52183621Y-2312429D01*
X51681298Y-2580927D01*
X51423137Y-2983532D01*
X6996863Y-2983532D01*
X6738702Y-2580927D01*
X6219285Y-2305349D01*
X5656087Y-2136399D01*
X5070750Y-2080570D01*
X4485767Y-2140008D01*
X3923621Y-2312429D01*
X3421298Y-2580927D01*
X3163137Y-2983532D01*
X710000Y-2983532D01*
X710000Y-710000D01*
X57710000Y-710000D01*
X57710001Y-100890000D01*
G04 #@! TA.AperFunction,Conductor*
D20*
G36*
X57710001Y-100890000D02*
G01*
X710000Y-100890000D01*
X710000Y-98616468D01*
X3163137Y-98616468D01*
X3421298Y-99019073D01*
X3940715Y-99294651D01*
X4503913Y-99463601D01*
X5089250Y-99519430D01*
X5674233Y-99459992D01*
X6236379Y-99287571D01*
X6738702Y-99019073D01*
X6996863Y-98616468D01*
X51423137Y-98616468D01*
X51681298Y-99019073D01*
X52200715Y-99294651D01*
X52763913Y-99463601D01*
X53349250Y-99519430D01*
X53934233Y-99459992D01*
X54496379Y-99287571D01*
X54998702Y-99019073D01*
X55256863Y-98616468D01*
X53340000Y-96699605D01*
X51423137Y-98616468D01*
X6996863Y-98616468D01*
X5080000Y-96699605D01*
X3163137Y-98616468D01*
X710000Y-98616468D01*
X710000Y-96529250D01*
X2080570Y-96529250D01*
X2140008Y-97114233D01*
X2312429Y-97676379D01*
X2580927Y-98178702D01*
X2983532Y-98436863D01*
X4900395Y-96520000D01*
X5259605Y-96520000D01*
X7176468Y-98436863D01*
X7579073Y-98178702D01*
X7854651Y-97659285D01*
X8023601Y-97096087D01*
X8077665Y-96529250D01*
X50340570Y-96529250D01*
X50400008Y-97114233D01*
X50572429Y-97676379D01*
X50840927Y-98178702D01*
X51243532Y-98436863D01*
X53160395Y-96520000D01*
X53519605Y-96520000D01*
X55436468Y-98436863D01*
X55839073Y-98178702D01*
X56114651Y-97659285D01*
X56283601Y-97096087D01*
X56339430Y-96510750D01*
X56279992Y-95925767D01*
X56107571Y-95363621D01*
X55839073Y-94861298D01*
X55436468Y-94603137D01*
X53519605Y-96520000D01*
X53160395Y-96520000D01*
X51243532Y-94603137D01*
X50840927Y-94861298D01*
X50565349Y-95380715D01*
X50396399Y-95943913D01*
X50340570Y-96529250D01*
X8077665Y-96529250D01*
X8079430Y-96510750D01*
X8019992Y-95925767D01*
X7847571Y-95363621D01*
X7579073Y-94861298D01*
X7176468Y-94603137D01*
X5259605Y-96520000D01*
X4900395Y-96520000D01*
X2983532Y-94603137D01*
X2580927Y-94861298D01*
X2305349Y-95380715D01*
X2136399Y-95943913D01*
X2080570Y-96529250D01*
X710000Y-96529250D01*
X710000Y-94423532D01*
X3163137Y-94423532D01*
X5080000Y-96340395D01*
X6996863Y-94423532D01*
X51423137Y-94423532D01*
X53340000Y-96340395D01*
X55256863Y-94423532D01*
X54998702Y-94020927D01*
X54479285Y-93745349D01*
X53916087Y-93576399D01*
X53330750Y-93520570D01*
X52745767Y-93580008D01*
X52183621Y-93752429D01*
X51681298Y-94020927D01*
X51423137Y-94423532D01*
X6996863Y-94423532D01*
X6738702Y-94020927D01*
X6219285Y-93745349D01*
X5656087Y-93576399D01*
X5070750Y-93520570D01*
X4485767Y-93580008D01*
X3923621Y-93752429D01*
X3421298Y-94020927D01*
X3163137Y-94423532D01*
X710000Y-94423532D01*
X710000Y-90876878D01*
X8400000Y-90876878D01*
X8400000Y-92003123D01*
X8418593Y-92191904D01*
X8492071Y-92434127D01*
X8611392Y-92657362D01*
X8771973Y-92853028D01*
X8967639Y-93013608D01*
X9190874Y-93132929D01*
X9433097Y-93206407D01*
X9685000Y-93231217D01*
X9936904Y-93206407D01*
X10179127Y-93132929D01*
X10402362Y-93013608D01*
X10598028Y-92853028D01*
X10758608Y-92657362D01*
X10877929Y-92434127D01*
X10951407Y-92191904D01*
X10970000Y-92003123D01*
X10970000Y-91205098D01*
X12220000Y-91205098D01*
X12220000Y-91674902D01*
X12311654Y-92135679D01*
X12491440Y-92569721D01*
X12752450Y-92960349D01*
X13084651Y-93292550D01*
X13475279Y-93553560D01*
X13909321Y-93733346D01*
X14370098Y-93825000D01*
X14839902Y-93825000D01*
X15300679Y-93733346D01*
X15734721Y-93553560D01*
X16125349Y-93292550D01*
X16457550Y-92960349D01*
X16718560Y-92569721D01*
X16784738Y-92409953D01*
X16792071Y-92434127D01*
X16911392Y-92657362D01*
X17071973Y-92853028D01*
X17267639Y-93013608D01*
X17490874Y-93132929D01*
X17733097Y-93206407D01*
X17985000Y-93231217D01*
X18236904Y-93206407D01*
X18479127Y-93132929D01*
X18702362Y-93013608D01*
X18898028Y-92853028D01*
X19058608Y-92657362D01*
X19177929Y-92434127D01*
X19251407Y-92191904D01*
X19270000Y-92003123D01*
X19270000Y-91567000D01*
X19800000Y-91567000D01*
X19800000Y-92067000D01*
X19849467Y-92315251D01*
X19946415Y-92549081D01*
X20087118Y-92759505D01*
X20266170Y-92938436D01*
X20476689Y-93078997D01*
X20710585Y-93175787D01*
X20759529Y-93183099D01*
X20958000Y-93059067D01*
X20958000Y-91567000D01*
X21212000Y-91567000D01*
X21212000Y-93059067D01*
X21410471Y-93183099D01*
X21459415Y-93175787D01*
X21693311Y-93078997D01*
X21903830Y-92938436D01*
X22082882Y-92759505D01*
X22223585Y-92549081D01*
X22320533Y-92315251D01*
X22370000Y-92067000D01*
X22370000Y-91567000D01*
X36050000Y-91567000D01*
X36050000Y-92067000D01*
X36099467Y-92315251D01*
X36196415Y-92549081D01*
X36337118Y-92759505D01*
X36516170Y-92938436D01*
X36726689Y-93078997D01*
X36960585Y-93175787D01*
X37009529Y-93183099D01*
X37208000Y-93059067D01*
X37208000Y-91567000D01*
X37462000Y-91567000D01*
X37462000Y-93059067D01*
X37660471Y-93183099D01*
X37709415Y-93175787D01*
X37943311Y-93078997D01*
X38153830Y-92938436D01*
X38332882Y-92759505D01*
X38473585Y-92549081D01*
X38570533Y-92315251D01*
X38620000Y-92067000D01*
X38620000Y-91567000D01*
X37462000Y-91567000D01*
X37208000Y-91567000D01*
X36050000Y-91567000D01*
X22370000Y-91567000D01*
X21212000Y-91567000D01*
X20958000Y-91567000D01*
X19800000Y-91567000D01*
X19270000Y-91567000D01*
X19270000Y-90876877D01*
X19263709Y-90813000D01*
X19800000Y-90813000D01*
X19800000Y-91313000D01*
X20958000Y-91313000D01*
X20958000Y-89820933D01*
X21212000Y-89820933D01*
X21212000Y-91313000D01*
X22370000Y-91313000D01*
X22370000Y-90813000D01*
X36050000Y-90813000D01*
X36050000Y-91313000D01*
X37208000Y-91313000D01*
X37208000Y-89820933D01*
X37462000Y-89820933D01*
X37462000Y-91313000D01*
X38620000Y-91313000D01*
X38620000Y-90876877D01*
X39150000Y-90876877D01*
X39150000Y-92003122D01*
X39168593Y-92191903D01*
X39242071Y-92434126D01*
X39361392Y-92657361D01*
X39521972Y-92853028D01*
X39717638Y-93013608D01*
X39940873Y-93132929D01*
X40183096Y-93206407D01*
X40435000Y-93231217D01*
X40686903Y-93206407D01*
X40929126Y-93132929D01*
X41152361Y-93013608D01*
X41348028Y-92853028D01*
X41508608Y-92657362D01*
X41627929Y-92434127D01*
X41635262Y-92409953D01*
X41701440Y-92569721D01*
X41962450Y-92960349D01*
X42294651Y-93292550D01*
X42685279Y-93553560D01*
X43119321Y-93733346D01*
X43580098Y-93825000D01*
X44049902Y-93825000D01*
X44510679Y-93733346D01*
X44944721Y-93553560D01*
X45335349Y-93292550D01*
X45667550Y-92960349D01*
X45928560Y-92569721D01*
X46108346Y-92135679D01*
X46200000Y-91674902D01*
X46200000Y-91205098D01*
X46134713Y-90876877D01*
X47450000Y-90876877D01*
X47450000Y-92003122D01*
X47468593Y-92191903D01*
X47542071Y-92434126D01*
X47661392Y-92657361D01*
X47821972Y-92853028D01*
X48017638Y-93013608D01*
X48240873Y-93132929D01*
X48483096Y-93206407D01*
X48735000Y-93231217D01*
X48986903Y-93206407D01*
X49229126Y-93132929D01*
X49452361Y-93013608D01*
X49648028Y-92853028D01*
X49808608Y-92657362D01*
X49927929Y-92434127D01*
X50001407Y-92191904D01*
X50020000Y-92003123D01*
X50020000Y-90876877D01*
X50001407Y-90688096D01*
X49927929Y-90445873D01*
X49808608Y-90222638D01*
X49648028Y-90026972D01*
X49452362Y-89866392D01*
X49229127Y-89747071D01*
X48986904Y-89673593D01*
X48735000Y-89648783D01*
X48483097Y-89673593D01*
X48240874Y-89747071D01*
X48017639Y-89866392D01*
X47821973Y-90026972D01*
X47661392Y-90222638D01*
X47542071Y-90445873D01*
X47468593Y-90688096D01*
X47450000Y-90876877D01*
X46134713Y-90876877D01*
X46108346Y-90744321D01*
X45928560Y-90310279D01*
X45667550Y-89919651D01*
X45335349Y-89587450D01*
X44944721Y-89326440D01*
X44510679Y-89146654D01*
X44049902Y-89055000D01*
X43580098Y-89055000D01*
X43119321Y-89146654D01*
X42685279Y-89326440D01*
X42294651Y-89587450D01*
X41962450Y-89919651D01*
X41701440Y-90310279D01*
X41635262Y-90470047D01*
X41627929Y-90445873D01*
X41508608Y-90222638D01*
X41348028Y-90026972D01*
X41152362Y-89866392D01*
X40929127Y-89747071D01*
X40686904Y-89673593D01*
X40435000Y-89648783D01*
X40183097Y-89673593D01*
X39940874Y-89747071D01*
X39717639Y-89866392D01*
X39521973Y-90026972D01*
X39361392Y-90222638D01*
X39242071Y-90445873D01*
X39168593Y-90688096D01*
X39150000Y-90876877D01*
X38620000Y-90876877D01*
X38620000Y-90813000D01*
X38570533Y-90564749D01*
X38473585Y-90330919D01*
X38332882Y-90120495D01*
X38153830Y-89941564D01*
X37943311Y-89801003D01*
X37709415Y-89704213D01*
X37660471Y-89696901D01*
X37462000Y-89820933D01*
X37208000Y-89820933D01*
X37009529Y-89696901D01*
X36960585Y-89704213D01*
X36726689Y-89801003D01*
X36516170Y-89941564D01*
X36337118Y-90120495D01*
X36196415Y-90330919D01*
X36099467Y-90564749D01*
X36050000Y-90813000D01*
X22370000Y-90813000D01*
X22320533Y-90564749D01*
X22223585Y-90330919D01*
X22082882Y-90120495D01*
X21903830Y-89941564D01*
X21693311Y-89801003D01*
X21459415Y-89704213D01*
X21410471Y-89696901D01*
X21212000Y-89820933D01*
X20958000Y-89820933D01*
X20759529Y-89696901D01*
X20710585Y-89704213D01*
X20476689Y-89801003D01*
X20266170Y-89941564D01*
X20087118Y-90120495D01*
X19946415Y-90330919D01*
X19849467Y-90564749D01*
X19800000Y-90813000D01*
X19263709Y-90813000D01*
X19251407Y-90688096D01*
X19177929Y-90445873D01*
X19058608Y-90222638D01*
X18898028Y-90026972D01*
X18702361Y-89866392D01*
X18479126Y-89747071D01*
X18236903Y-89673593D01*
X17985000Y-89648783D01*
X17733096Y-89673593D01*
X17490873Y-89747071D01*
X17267638Y-89866392D01*
X17071972Y-90026972D01*
X16911392Y-90222639D01*
X16792071Y-90445874D01*
X16784738Y-90470047D01*
X16718560Y-90310279D01*
X16457550Y-89919651D01*
X16125349Y-89587450D01*
X15734721Y-89326440D01*
X15300679Y-89146654D01*
X14839902Y-89055000D01*
X14370098Y-89055000D01*
X13909321Y-89146654D01*
X13475279Y-89326440D01*
X13084651Y-89587450D01*
X12752450Y-89919651D01*
X12491440Y-90310279D01*
X12311654Y-90744321D01*
X12220000Y-91205098D01*
X10970000Y-91205098D01*
X10970000Y-90876877D01*
X10951407Y-90688096D01*
X10877929Y-90445873D01*
X10758608Y-90222638D01*
X10598028Y-90026972D01*
X10402361Y-89866392D01*
X10179126Y-89747071D01*
X9936903Y-89673593D01*
X9685000Y-89648783D01*
X9433096Y-89673593D01*
X9190873Y-89747071D01*
X8967638Y-89866392D01*
X8771972Y-90026972D01*
X8611392Y-90222639D01*
X8492071Y-90445874D01*
X8418593Y-90688097D01*
X8400000Y-90876878D01*
X710000Y-90876878D01*
X710000Y-79160000D01*
X1051928Y-79160000D01*
X1051928Y-80860000D01*
X1064188Y-80984482D01*
X1100498Y-81104180D01*
X1159463Y-81214494D01*
X1238815Y-81311185D01*
X1335506Y-81390537D01*
X1445820Y-81449502D01*
X1565518Y-81485812D01*
X1690000Y-81498072D01*
X3390000Y-81498072D01*
X3514482Y-81485812D01*
X3634180Y-81449502D01*
X3744494Y-81390537D01*
X3841185Y-81311185D01*
X3920537Y-81214494D01*
X3979502Y-81104180D01*
X4015812Y-80984482D01*
X4028072Y-80860000D01*
X4028072Y-79795000D01*
X54391928Y-79795000D01*
X54391928Y-81495000D01*
X54404188Y-81619482D01*
X54440498Y-81739180D01*
X54499463Y-81849494D01*
X54578815Y-81946185D01*
X54675506Y-82025537D01*
X54785820Y-82084502D01*
X54905518Y-82120812D01*
X55030000Y-82133072D01*
X56730000Y-82133072D01*
X56854482Y-82120812D01*
X56974180Y-82084502D01*
X57084494Y-82025537D01*
X57181185Y-81946185D01*
X57260537Y-81849494D01*
X57319502Y-81739180D01*
X57355812Y-81619482D01*
X57368072Y-81495000D01*
X57368072Y-79795000D01*
X57355812Y-79670518D01*
X57319502Y-79550820D01*
X57260537Y-79440506D01*
X57181185Y-79343815D01*
X57084494Y-79264463D01*
X56974180Y-79205498D01*
X56893534Y-79181034D01*
X56977588Y-79105269D01*
X57151641Y-78871920D01*
X57276825Y-78609099D01*
X57321476Y-78461890D01*
X57200155Y-78232000D01*
X56007000Y-78232000D01*
X56007000Y-78252000D01*
X55753000Y-78252000D01*
X55753000Y-78232000D01*
X54559845Y-78232000D01*
X54438524Y-78461890D01*
X54483175Y-78609099D01*
X54608359Y-78871920D01*
X54782412Y-79105269D01*
X54866466Y-79181034D01*
X54785820Y-79205498D01*
X54675506Y-79264463D01*
X54578815Y-79343815D01*
X54499463Y-79440506D01*
X54440498Y-79550820D01*
X54404188Y-79670518D01*
X54391928Y-79795000D01*
X4028072Y-79795000D01*
X4028072Y-79160000D01*
X4015812Y-79035518D01*
X3979502Y-78915820D01*
X3920537Y-78805506D01*
X3841185Y-78708815D01*
X3744494Y-78629463D01*
X3634180Y-78570498D01*
X3553534Y-78546034D01*
X3637588Y-78470269D01*
X3811641Y-78236920D01*
X3936825Y-77974099D01*
X3981476Y-77826890D01*
X3939902Y-77748110D01*
X54438524Y-77748110D01*
X54559845Y-77978000D01*
X55753000Y-77978000D01*
X55753000Y-76784186D01*
X56007000Y-76784186D01*
X56007000Y-77978000D01*
X57200155Y-77978000D01*
X57321476Y-77748110D01*
X57276825Y-77600901D01*
X57151641Y-77338080D01*
X56977588Y-77104731D01*
X56761355Y-76909822D01*
X56511252Y-76760843D01*
X56236891Y-76663519D01*
X56007000Y-76784186D01*
X55753000Y-76784186D01*
X55523109Y-76663519D01*
X55248748Y-76760843D01*
X54998645Y-76909822D01*
X54782412Y-77104731D01*
X54608359Y-77338080D01*
X54483175Y-77600901D01*
X54438524Y-77748110D01*
X3939902Y-77748110D01*
X3860155Y-77597000D01*
X2667000Y-77597000D01*
X2667000Y-77617000D01*
X2413000Y-77617000D01*
X2413000Y-77597000D01*
X1219845Y-77597000D01*
X1098524Y-77826890D01*
X1143175Y-77974099D01*
X1268359Y-78236920D01*
X1442412Y-78470269D01*
X1526466Y-78546034D01*
X1445820Y-78570498D01*
X1335506Y-78629463D01*
X1238815Y-78708815D01*
X1159463Y-78805506D01*
X1100498Y-78915820D01*
X1064188Y-79035518D01*
X1051928Y-79160000D01*
X710000Y-79160000D01*
X710000Y-74080000D01*
X1051928Y-74080000D01*
X1051928Y-75780000D01*
X1064188Y-75904482D01*
X1100498Y-76024180D01*
X1159463Y-76134494D01*
X1238815Y-76231185D01*
X1335506Y-76310537D01*
X1445820Y-76369502D01*
X1526466Y-76393966D01*
X1442412Y-76469731D01*
X1268359Y-76703080D01*
X1143175Y-76965901D01*
X1098524Y-77113110D01*
X1219845Y-77343000D01*
X2413000Y-77343000D01*
X2413000Y-77323000D01*
X2667000Y-77323000D01*
X2667000Y-77343000D01*
X3860155Y-77343000D01*
X3981476Y-77113110D01*
X3936825Y-76965901D01*
X3811641Y-76703080D01*
X3637588Y-76469731D01*
X3553534Y-76393966D01*
X3634180Y-76369502D01*
X3744494Y-76310537D01*
X3841185Y-76231185D01*
X3920537Y-76134494D01*
X3979502Y-76024180D01*
X4015812Y-75904482D01*
X4028072Y-75780000D01*
X4028072Y-74080000D01*
X54391928Y-74080000D01*
X54391928Y-75780000D01*
X54404188Y-75904482D01*
X54440498Y-76024180D01*
X54499463Y-76134494D01*
X54578815Y-76231185D01*
X54675506Y-76310537D01*
X54785820Y-76369502D01*
X54905518Y-76405812D01*
X55030000Y-76418072D01*
X56730000Y-76418072D01*
X56854482Y-76405812D01*
X56974180Y-76369502D01*
X57084494Y-76310537D01*
X57181185Y-76231185D01*
X57260537Y-76134494D01*
X57319502Y-76024180D01*
X57355812Y-75904482D01*
X57368072Y-75780000D01*
X57368072Y-74080000D01*
X57355812Y-73955518D01*
X57319502Y-73835820D01*
X57260537Y-73725506D01*
X57181185Y-73628815D01*
X57084494Y-73549463D01*
X56974180Y-73490498D01*
X56893534Y-73466034D01*
X56977588Y-73390269D01*
X57151641Y-73156920D01*
X57276825Y-72894099D01*
X57321476Y-72746890D01*
X57200155Y-72517000D01*
X56007000Y-72517000D01*
X56007000Y-72537000D01*
X55753000Y-72537000D01*
X55753000Y-72517000D01*
X54559845Y-72517000D01*
X54438524Y-72746890D01*
X54483175Y-72894099D01*
X54608359Y-73156920D01*
X54782412Y-73390269D01*
X54866466Y-73466034D01*
X54785820Y-73490498D01*
X54675506Y-73549463D01*
X54578815Y-73628815D01*
X54499463Y-73725506D01*
X54440498Y-73835820D01*
X54404188Y-73955518D01*
X54391928Y-74080000D01*
X4028072Y-74080000D01*
X4015812Y-73955518D01*
X3979502Y-73835820D01*
X3920537Y-73725506D01*
X3841185Y-73628815D01*
X3744494Y-73549463D01*
X3634180Y-73490498D01*
X3553534Y-73466034D01*
X3637588Y-73390269D01*
X3811641Y-73156920D01*
X3936825Y-72894099D01*
X3981476Y-72746890D01*
X3860155Y-72517000D01*
X2667000Y-72517000D01*
X2667000Y-72537000D01*
X2413000Y-72537000D01*
X2413000Y-72517000D01*
X1219845Y-72517000D01*
X1098524Y-72746890D01*
X1143175Y-72894099D01*
X1268359Y-73156920D01*
X1442412Y-73390269D01*
X1526466Y-73466034D01*
X1445820Y-73490498D01*
X1335506Y-73549463D01*
X1238815Y-73628815D01*
X1159463Y-73725506D01*
X1100498Y-73835820D01*
X1064188Y-73955518D01*
X1051928Y-74080000D01*
X710000Y-74080000D01*
X710000Y-63920000D01*
X1051928Y-63920000D01*
X1051928Y-65620000D01*
X1064188Y-65744482D01*
X1100498Y-65864180D01*
X1159463Y-65974494D01*
X1238815Y-66071185D01*
X1335506Y-66150537D01*
X1445820Y-66209502D01*
X1518380Y-66231513D01*
X1386525Y-66363368D01*
X1224010Y-66606589D01*
X1112068Y-66876842D01*
X1055000Y-67163740D01*
X1055000Y-67456260D01*
X1112068Y-67743158D01*
X1224010Y-68013411D01*
X1386525Y-68256632D01*
X1593368Y-68463475D01*
X1767760Y-68580000D01*
X1593368Y-68696525D01*
X1386525Y-68903368D01*
X1224010Y-69146589D01*
X1112068Y-69416842D01*
X1055000Y-69703740D01*
X1055000Y-69996260D01*
X1112068Y-70283158D01*
X1224010Y-70553411D01*
X1386525Y-70796632D01*
X1593368Y-71003475D01*
X1775534Y-71125195D01*
X1658645Y-71194822D01*
X1442412Y-71389731D01*
X1268359Y-71623080D01*
X1143175Y-71885901D01*
X1098524Y-72033110D01*
X1219845Y-72263000D01*
X2413000Y-72263000D01*
X2413000Y-72243000D01*
X2667000Y-72243000D01*
X2667000Y-72263000D01*
X3860155Y-72263000D01*
X3981476Y-72033110D01*
X3936825Y-71885901D01*
X3811641Y-71623080D01*
X3637588Y-71389731D01*
X3421355Y-71194822D01*
X3304466Y-71125195D01*
X3486632Y-71003475D01*
X3693475Y-70796632D01*
X3855990Y-70553411D01*
X3967932Y-70283158D01*
X3988428Y-70180118D01*
X3988617Y-70181067D01*
X4074176Y-70387624D01*
X4198388Y-70573520D01*
X4356480Y-70731612D01*
X4542376Y-70855824D01*
X4748933Y-70941383D01*
X4968212Y-70985000D01*
X5191788Y-70985000D01*
X5411067Y-70941383D01*
X5617624Y-70855824D01*
X5803520Y-70731612D01*
X5961612Y-70573520D01*
X5972731Y-70556878D01*
X8400000Y-70556878D01*
X8400000Y-71683123D01*
X8418593Y-71871904D01*
X8492071Y-72114127D01*
X8611392Y-72337362D01*
X8771973Y-72533028D01*
X8967639Y-72693608D01*
X9190874Y-72812929D01*
X9433097Y-72886407D01*
X9685000Y-72911217D01*
X9936904Y-72886407D01*
X10179127Y-72812929D01*
X10402362Y-72693608D01*
X10598028Y-72533028D01*
X10758608Y-72337362D01*
X10877929Y-72114127D01*
X10951407Y-71871904D01*
X10970000Y-71683123D01*
X10970000Y-70885098D01*
X12220000Y-70885098D01*
X12220000Y-71354902D01*
X12311654Y-71815679D01*
X12491440Y-72249721D01*
X12752450Y-72640349D01*
X13084651Y-72972550D01*
X13475279Y-73233560D01*
X13909321Y-73413346D01*
X14370098Y-73505000D01*
X14839902Y-73505000D01*
X15300679Y-73413346D01*
X15734721Y-73233560D01*
X16125349Y-72972550D01*
X16457550Y-72640349D01*
X16718560Y-72249721D01*
X16784738Y-72089953D01*
X16792071Y-72114127D01*
X16911392Y-72337362D01*
X17071973Y-72533028D01*
X17267639Y-72693608D01*
X17490874Y-72812929D01*
X17733097Y-72886407D01*
X17985000Y-72911217D01*
X18236904Y-72886407D01*
X18479127Y-72812929D01*
X18702362Y-72693608D01*
X18898028Y-72533028D01*
X19058608Y-72337362D01*
X19177929Y-72114127D01*
X19251407Y-71871904D01*
X19270000Y-71683123D01*
X19270000Y-71247000D01*
X19800000Y-71247000D01*
X19800000Y-71747000D01*
X19849467Y-71995251D01*
X19946415Y-72229081D01*
X20087118Y-72439505D01*
X20266170Y-72618436D01*
X20476689Y-72758997D01*
X20710585Y-72855787D01*
X20759529Y-72863099D01*
X20958000Y-72739067D01*
X20958000Y-71247000D01*
X21212000Y-71247000D01*
X21212000Y-72739067D01*
X21410471Y-72863099D01*
X21459415Y-72855787D01*
X21693311Y-72758997D01*
X21903830Y-72618436D01*
X22082882Y-72439505D01*
X22223585Y-72229081D01*
X22320533Y-71995251D01*
X22370000Y-71747000D01*
X22370000Y-71247000D01*
X36050000Y-71247000D01*
X36050000Y-71747000D01*
X36099467Y-71995251D01*
X36196415Y-72229081D01*
X36337118Y-72439505D01*
X36516170Y-72618436D01*
X36726689Y-72758997D01*
X36960585Y-72855787D01*
X37009529Y-72863099D01*
X37208000Y-72739067D01*
X37208000Y-71247000D01*
X37462000Y-71247000D01*
X37462000Y-72739067D01*
X37660471Y-72863099D01*
X37709415Y-72855787D01*
X37943311Y-72758997D01*
X38153830Y-72618436D01*
X38332882Y-72439505D01*
X38473585Y-72229081D01*
X38570533Y-71995251D01*
X38620000Y-71747000D01*
X38620000Y-71247000D01*
X37462000Y-71247000D01*
X37208000Y-71247000D01*
X36050000Y-71247000D01*
X22370000Y-71247000D01*
X21212000Y-71247000D01*
X20958000Y-71247000D01*
X19800000Y-71247000D01*
X19270000Y-71247000D01*
X19270000Y-70556877D01*
X19263709Y-70493000D01*
X19800000Y-70493000D01*
X19800000Y-70993000D01*
X20958000Y-70993000D01*
X20958000Y-69500933D01*
X21212000Y-69500933D01*
X21212000Y-70993000D01*
X22370000Y-70993000D01*
X22370000Y-70493000D01*
X36050000Y-70493000D01*
X36050000Y-70993000D01*
X37208000Y-70993000D01*
X37208000Y-69500933D01*
X37462000Y-69500933D01*
X37462000Y-70993000D01*
X38620000Y-70993000D01*
X38620000Y-70556877D01*
X39150000Y-70556877D01*
X39150000Y-71683122D01*
X39168593Y-71871903D01*
X39242071Y-72114126D01*
X39361392Y-72337361D01*
X39521972Y-72533028D01*
X39717638Y-72693608D01*
X39940873Y-72812929D01*
X40183096Y-72886407D01*
X40435000Y-72911217D01*
X40686903Y-72886407D01*
X40929126Y-72812929D01*
X41152361Y-72693608D01*
X41348028Y-72533028D01*
X41508608Y-72337362D01*
X41627929Y-72114127D01*
X41635262Y-72089953D01*
X41701440Y-72249721D01*
X41962450Y-72640349D01*
X42294651Y-72972550D01*
X42685279Y-73233560D01*
X43119321Y-73413346D01*
X43580098Y-73505000D01*
X44049902Y-73505000D01*
X44510679Y-73413346D01*
X44944721Y-73233560D01*
X45335349Y-72972550D01*
X45667550Y-72640349D01*
X45928560Y-72249721D01*
X46108346Y-71815679D01*
X46200000Y-71354902D01*
X46200000Y-70885098D01*
X46134713Y-70556877D01*
X47450000Y-70556877D01*
X47450000Y-71683122D01*
X47468593Y-71871903D01*
X47542071Y-72114126D01*
X47661392Y-72337361D01*
X47821972Y-72533028D01*
X48017638Y-72693608D01*
X48240873Y-72812929D01*
X48483096Y-72886407D01*
X48735000Y-72911217D01*
X48986903Y-72886407D01*
X49229126Y-72812929D01*
X49452361Y-72693608D01*
X49648028Y-72533028D01*
X49808608Y-72337362D01*
X49927929Y-72114127D01*
X50001407Y-71871904D01*
X50020000Y-71683123D01*
X50020000Y-70556877D01*
X50001407Y-70368096D01*
X49927929Y-70125873D01*
X49808608Y-69902638D01*
X49648028Y-69706972D01*
X49452362Y-69546392D01*
X49229127Y-69427071D01*
X48986904Y-69353593D01*
X48735000Y-69328783D01*
X48483097Y-69353593D01*
X48240874Y-69427071D01*
X48017639Y-69546392D01*
X47821973Y-69706972D01*
X47661392Y-69902638D01*
X47542071Y-70125873D01*
X47468593Y-70368096D01*
X47450000Y-70556877D01*
X46134713Y-70556877D01*
X46108346Y-70424321D01*
X45928560Y-69990279D01*
X45667550Y-69599651D01*
X45335349Y-69267450D01*
X44944721Y-69006440D01*
X44510679Y-68826654D01*
X44049902Y-68735000D01*
X43580098Y-68735000D01*
X43119321Y-68826654D01*
X42685279Y-69006440D01*
X42294651Y-69267450D01*
X41962450Y-69599651D01*
X41701440Y-69990279D01*
X41635262Y-70150047D01*
X41627929Y-70125873D01*
X41508608Y-69902638D01*
X41348028Y-69706972D01*
X41152362Y-69546392D01*
X40929127Y-69427071D01*
X40686904Y-69353593D01*
X40435000Y-69328783D01*
X40183097Y-69353593D01*
X39940874Y-69427071D01*
X39717639Y-69546392D01*
X39521973Y-69706972D01*
X39361392Y-69902638D01*
X39242071Y-70125873D01*
X39168593Y-70368096D01*
X39150000Y-70556877D01*
X38620000Y-70556877D01*
X38620000Y-70493000D01*
X38570533Y-70244749D01*
X38473585Y-70010919D01*
X38332882Y-69800495D01*
X38153830Y-69621564D01*
X37943311Y-69481003D01*
X37709415Y-69384213D01*
X37660471Y-69376901D01*
X37462000Y-69500933D01*
X37208000Y-69500933D01*
X37009529Y-69376901D01*
X36960585Y-69384213D01*
X36726689Y-69481003D01*
X36516170Y-69621564D01*
X36337118Y-69800495D01*
X36196415Y-70010919D01*
X36099467Y-70244749D01*
X36050000Y-70493000D01*
X22370000Y-70493000D01*
X22320533Y-70244749D01*
X22223585Y-70010919D01*
X22082882Y-69800495D01*
X21903830Y-69621564D01*
X21693311Y-69481003D01*
X21459415Y-69384213D01*
X21410471Y-69376901D01*
X21212000Y-69500933D01*
X20958000Y-69500933D01*
X20759529Y-69376901D01*
X20710585Y-69384213D01*
X20476689Y-69481003D01*
X20266170Y-69621564D01*
X20087118Y-69800495D01*
X19946415Y-70010919D01*
X19849467Y-70244749D01*
X19800000Y-70493000D01*
X19263709Y-70493000D01*
X19251407Y-70368096D01*
X19177929Y-70125873D01*
X19058608Y-69902638D01*
X18898028Y-69706972D01*
X18702361Y-69546392D01*
X18479126Y-69427071D01*
X18236903Y-69353593D01*
X17985000Y-69328783D01*
X17733096Y-69353593D01*
X17490873Y-69427071D01*
X17267638Y-69546392D01*
X17071972Y-69706972D01*
X16911392Y-69902639D01*
X16792071Y-70125874D01*
X16784738Y-70150047D01*
X16718560Y-69990279D01*
X16457550Y-69599651D01*
X16125349Y-69267450D01*
X15734721Y-69006440D01*
X15300679Y-68826654D01*
X14839902Y-68735000D01*
X14370098Y-68735000D01*
X13909321Y-68826654D01*
X13475279Y-69006440D01*
X13084651Y-69267450D01*
X12752450Y-69599651D01*
X12491440Y-69990279D01*
X12311654Y-70424321D01*
X12220000Y-70885098D01*
X10970000Y-70885098D01*
X10970000Y-70556877D01*
X10951407Y-70368096D01*
X10877929Y-70125873D01*
X10758608Y-69902638D01*
X10598028Y-69706972D01*
X10402361Y-69546392D01*
X10179126Y-69427071D01*
X9936903Y-69353593D01*
X9685000Y-69328783D01*
X9433096Y-69353593D01*
X9190873Y-69427071D01*
X8967638Y-69546392D01*
X8771972Y-69706972D01*
X8611392Y-69902639D01*
X8492071Y-70125874D01*
X8418593Y-70368097D01*
X8400000Y-70556878D01*
X5972731Y-70556878D01*
X6085824Y-70387624D01*
X6171383Y-70181067D01*
X6215000Y-69961788D01*
X6215000Y-69738212D01*
X6171383Y-69518933D01*
X6085824Y-69312376D01*
X5961612Y-69126480D01*
X5915000Y-69079868D01*
X5915000Y-68358332D01*
X6018933Y-68401383D01*
X6238212Y-68445000D01*
X6461788Y-68445000D01*
X6681067Y-68401383D01*
X6887624Y-68315824D01*
X7073520Y-68191612D01*
X7231612Y-68033520D01*
X7355824Y-67847624D01*
X7441383Y-67641067D01*
X7485000Y-67421788D01*
X7485000Y-67198212D01*
X7441383Y-66978933D01*
X7355824Y-66772376D01*
X7231612Y-66586480D01*
X7185000Y-66539868D01*
X7185000Y-65818332D01*
X7288933Y-65861383D01*
X7508212Y-65905000D01*
X7731788Y-65905000D01*
X7951067Y-65861383D01*
X8157624Y-65775824D01*
X8343520Y-65651612D01*
X8501612Y-65493520D01*
X8625824Y-65307624D01*
X8711383Y-65101067D01*
X8755000Y-64881788D01*
X8755000Y-64658212D01*
X8711383Y-64438933D01*
X8625824Y-64232376D01*
X8501612Y-64046480D01*
X8455000Y-63999868D01*
X8455000Y-55380132D01*
X8501612Y-55333520D01*
X8625824Y-55147624D01*
X8711383Y-54941067D01*
X8755000Y-54721788D01*
X8755000Y-54498212D01*
X49665000Y-54498212D01*
X49665000Y-54721788D01*
X49708617Y-54941067D01*
X49794176Y-55147624D01*
X49918388Y-55333520D01*
X49965001Y-55380133D01*
X49965000Y-63999868D01*
X49918388Y-64046480D01*
X49794176Y-64232376D01*
X49708617Y-64438933D01*
X49665000Y-64658212D01*
X49665000Y-64881788D01*
X49708617Y-65101067D01*
X49794176Y-65307624D01*
X49918388Y-65493520D01*
X50076480Y-65651612D01*
X50262376Y-65775824D01*
X50468933Y-65861383D01*
X50688212Y-65905000D01*
X50911788Y-65905000D01*
X51131067Y-65861383D01*
X51235000Y-65818332D01*
X51235000Y-66539868D01*
X51188388Y-66586480D01*
X51064176Y-66772376D01*
X50978617Y-66978933D01*
X50935000Y-67198212D01*
X50935000Y-67421788D01*
X50978617Y-67641067D01*
X51064176Y-67847624D01*
X51188388Y-68033520D01*
X51346480Y-68191612D01*
X51532376Y-68315824D01*
X51738933Y-68401383D01*
X51958212Y-68445000D01*
X52181788Y-68445000D01*
X52401067Y-68401383D01*
X52505000Y-68358332D01*
X52505000Y-69079868D01*
X52458388Y-69126480D01*
X52334176Y-69312376D01*
X52248617Y-69518933D01*
X52205000Y-69738212D01*
X52205000Y-69961788D01*
X52248617Y-70181067D01*
X52334176Y-70387624D01*
X52458388Y-70573520D01*
X52616480Y-70731612D01*
X52802376Y-70855824D01*
X53008933Y-70941383D01*
X53228212Y-70985000D01*
X53451788Y-70985000D01*
X53671067Y-70941383D01*
X53877624Y-70855824D01*
X54063520Y-70731612D01*
X54221612Y-70573520D01*
X54345824Y-70387624D01*
X54431383Y-70181067D01*
X54431572Y-70180118D01*
X54452068Y-70283158D01*
X54564010Y-70553411D01*
X54726525Y-70796632D01*
X54933368Y-71003475D01*
X55115534Y-71125195D01*
X54998645Y-71194822D01*
X54782412Y-71389731D01*
X54608359Y-71623080D01*
X54483175Y-71885901D01*
X54438524Y-72033110D01*
X54559845Y-72263000D01*
X55753000Y-72263000D01*
X55753000Y-72243000D01*
X56007000Y-72243000D01*
X56007000Y-72263000D01*
X57200155Y-72263000D01*
X57321476Y-72033110D01*
X57276825Y-71885901D01*
X57151641Y-71623080D01*
X56977588Y-71389731D01*
X56761355Y-71194822D01*
X56644466Y-71125195D01*
X56826632Y-71003475D01*
X57033475Y-70796632D01*
X57195990Y-70553411D01*
X57307932Y-70283158D01*
X57365000Y-69996260D01*
X57365000Y-69703740D01*
X57307932Y-69416842D01*
X57195990Y-69146589D01*
X57033475Y-68903368D01*
X56826632Y-68696525D01*
X56652240Y-68580000D01*
X56826632Y-68463475D01*
X57033475Y-68256632D01*
X57195990Y-68013411D01*
X57307932Y-67743158D01*
X57365000Y-67456260D01*
X57365000Y-67163740D01*
X57307932Y-66876842D01*
X57195990Y-66606589D01*
X57033475Y-66363368D01*
X56901620Y-66231513D01*
X56974180Y-66209502D01*
X57084494Y-66150537D01*
X57181185Y-66071185D01*
X57260537Y-65974494D01*
X57319502Y-65864180D01*
X57355812Y-65744482D01*
X57368072Y-65620000D01*
X57368072Y-63920000D01*
X57355812Y-63795518D01*
X57319502Y-63675820D01*
X57260537Y-63565506D01*
X57181185Y-63468815D01*
X57084494Y-63389463D01*
X56974180Y-63330498D01*
X56854482Y-63294188D01*
X56730000Y-63281928D01*
X55030000Y-63281928D01*
X54905518Y-63294188D01*
X54785820Y-63330498D01*
X54675506Y-63389463D01*
X54578815Y-63468815D01*
X54499463Y-63565506D01*
X54440498Y-63675820D01*
X54404188Y-63795518D01*
X54391928Y-63920000D01*
X54391928Y-65620000D01*
X54404188Y-65744482D01*
X54440498Y-65864180D01*
X54499463Y-65974494D01*
X54578815Y-66071185D01*
X54675506Y-66150537D01*
X54785820Y-66209502D01*
X54858380Y-66231513D01*
X54726525Y-66363368D01*
X54564010Y-66606589D01*
X54452068Y-66876842D01*
X54395000Y-67163740D01*
X54395000Y-67456260D01*
X54452068Y-67743158D01*
X54564010Y-68013411D01*
X54726525Y-68256632D01*
X54933368Y-68463475D01*
X55107760Y-68580000D01*
X54933368Y-68696525D01*
X54726525Y-68903368D01*
X54564010Y-69146589D01*
X54452068Y-69416842D01*
X54431572Y-69519882D01*
X54431383Y-69518933D01*
X54345824Y-69312376D01*
X54221612Y-69126480D01*
X54175000Y-69079868D01*
X54175000Y-56650132D01*
X54221612Y-56603520D01*
X54345824Y-56417624D01*
X54431383Y-56211067D01*
X54475000Y-55991788D01*
X54475000Y-55768212D01*
X54431383Y-55548933D01*
X54345824Y-55342376D01*
X54221612Y-55156480D01*
X54063520Y-54998388D01*
X53877624Y-54874176D01*
X53671067Y-54788617D01*
X53451788Y-54745000D01*
X53228212Y-54745000D01*
X53008933Y-54788617D01*
X52905000Y-54831668D01*
X52905000Y-54110132D01*
X52951612Y-54063520D01*
X53075824Y-53877624D01*
X53161383Y-53671067D01*
X53205000Y-53451788D01*
X53205000Y-53228212D01*
X53161383Y-53008933D01*
X53075824Y-52802376D01*
X52951612Y-52616480D01*
X52793520Y-52458388D01*
X52607624Y-52334176D01*
X52401067Y-52248617D01*
X52181788Y-52205000D01*
X51958212Y-52205000D01*
X51738933Y-52248617D01*
X51532376Y-52334176D01*
X51346480Y-52458388D01*
X51188388Y-52616480D01*
X51064176Y-52802376D01*
X50978617Y-53008933D01*
X50935000Y-53228212D01*
X50935000Y-53451788D01*
X50940764Y-53480764D01*
X50911788Y-53475000D01*
X50688212Y-53475000D01*
X50468933Y-53518617D01*
X50262376Y-53604176D01*
X50076480Y-53728388D01*
X49918388Y-53886480D01*
X49794176Y-54072376D01*
X49708617Y-54278933D01*
X49665000Y-54498212D01*
X8755000Y-54498212D01*
X8711383Y-54278933D01*
X8625824Y-54072376D01*
X8501612Y-53886480D01*
X8343520Y-53728388D01*
X8157624Y-53604176D01*
X7951067Y-53518617D01*
X7731788Y-53475000D01*
X7508212Y-53475000D01*
X7288933Y-53518617D01*
X7082376Y-53604176D01*
X6896480Y-53728388D01*
X6738388Y-53886480D01*
X6614176Y-54072376D01*
X6528617Y-54278933D01*
X6485000Y-54498212D01*
X6485000Y-54721788D01*
X6490764Y-54750764D01*
X6461788Y-54745000D01*
X6238212Y-54745000D01*
X6018933Y-54788617D01*
X5915000Y-54831668D01*
X5915000Y-54110132D01*
X5961612Y-54063520D01*
X6085824Y-53877624D01*
X6171383Y-53671067D01*
X6215000Y-53451788D01*
X6215000Y-53228212D01*
X6171383Y-53008933D01*
X6085824Y-52802376D01*
X5961612Y-52616480D01*
X5803520Y-52458388D01*
X5617624Y-52334176D01*
X5411067Y-52248617D01*
X5191788Y-52205000D01*
X4968212Y-52205000D01*
X4748933Y-52248617D01*
X4542376Y-52334176D01*
X4356480Y-52458388D01*
X4198388Y-52616480D01*
X4074176Y-52802376D01*
X3988617Y-53008933D01*
X3945000Y-53228212D01*
X3945000Y-53451788D01*
X3988617Y-53671067D01*
X4074176Y-53877624D01*
X4198388Y-54063520D01*
X4245001Y-54110133D01*
X4245000Y-69079868D01*
X4198388Y-69126480D01*
X4074176Y-69312376D01*
X3988617Y-69518933D01*
X3988428Y-69519882D01*
X3967932Y-69416842D01*
X3855990Y-69146589D01*
X3693475Y-68903368D01*
X3486632Y-68696525D01*
X3312240Y-68580000D01*
X3486632Y-68463475D01*
X3693475Y-68256632D01*
X3855990Y-68013411D01*
X3967932Y-67743158D01*
X4025000Y-67456260D01*
X4025000Y-67163740D01*
X3967932Y-66876842D01*
X3855990Y-66606589D01*
X3693475Y-66363368D01*
X3561620Y-66231513D01*
X3634180Y-66209502D01*
X3744494Y-66150537D01*
X3841185Y-66071185D01*
X3920537Y-65974494D01*
X3979502Y-65864180D01*
X4015812Y-65744482D01*
X4028072Y-65620000D01*
X4028072Y-63920000D01*
X4015812Y-63795518D01*
X3979502Y-63675820D01*
X3920537Y-63565506D01*
X3841185Y-63468815D01*
X3744494Y-63389463D01*
X3634180Y-63330498D01*
X3514482Y-63294188D01*
X3390000Y-63281928D01*
X1690000Y-63281928D01*
X1565518Y-63294188D01*
X1445820Y-63330498D01*
X1335506Y-63389463D01*
X1238815Y-63468815D01*
X1159463Y-63565506D01*
X1100498Y-63675820D01*
X1064188Y-63795518D01*
X1051928Y-63920000D01*
X710000Y-63920000D01*
X710000Y-50181963D01*
X10720000Y-50181963D01*
X10720000Y-51418036D01*
X10740040Y-51621506D01*
X10819236Y-51882580D01*
X10947843Y-52123187D01*
X11120919Y-52334080D01*
X11331812Y-52507157D01*
X11572419Y-52635764D01*
X11833493Y-52714960D01*
X12105000Y-52741701D01*
X12376506Y-52714960D01*
X12637580Y-52635764D01*
X12878187Y-52507157D01*
X13089080Y-52334081D01*
X13262157Y-52123188D01*
X13355000Y-51949490D01*
X13447843Y-52123187D01*
X13620919Y-52334080D01*
X13831812Y-52507157D01*
X14072419Y-52635764D01*
X14333493Y-52714960D01*
X14605000Y-52741701D01*
X14876506Y-52714960D01*
X15137580Y-52635764D01*
X15378187Y-52507157D01*
X15589080Y-52334081D01*
X15762157Y-52123188D01*
X15855000Y-51949490D01*
X15947843Y-52123187D01*
X16120919Y-52334080D01*
X16331812Y-52507157D01*
X16572419Y-52635764D01*
X16833493Y-52714960D01*
X17105000Y-52741701D01*
X17376506Y-52714960D01*
X17637580Y-52635764D01*
X17878187Y-52507157D01*
X18089080Y-52334081D01*
X18262157Y-52123188D01*
X18390764Y-51882581D01*
X18469960Y-51621507D01*
X18490000Y-51418037D01*
X18490000Y-50181963D01*
X39930000Y-50181963D01*
X39930000Y-51418036D01*
X39950040Y-51621506D01*
X40029236Y-51882580D01*
X40157843Y-52123187D01*
X40330919Y-52334080D01*
X40541812Y-52507157D01*
X40782419Y-52635764D01*
X41043493Y-52714960D01*
X41315000Y-52741701D01*
X41586506Y-52714960D01*
X41847580Y-52635764D01*
X42088187Y-52507157D01*
X42299080Y-52334081D01*
X42472157Y-52123188D01*
X42565000Y-51949490D01*
X42657843Y-52123187D01*
X42830919Y-52334080D01*
X43041812Y-52507157D01*
X43282419Y-52635764D01*
X43543493Y-52714960D01*
X43815000Y-52741701D01*
X44086506Y-52714960D01*
X44347580Y-52635764D01*
X44588187Y-52507157D01*
X44799080Y-52334081D01*
X44972157Y-52123188D01*
X45065000Y-51949490D01*
X45157843Y-52123187D01*
X45330919Y-52334080D01*
X45541812Y-52507157D01*
X45782419Y-52635764D01*
X46043493Y-52714960D01*
X46315000Y-52741701D01*
X46586506Y-52714960D01*
X46847580Y-52635764D01*
X47088187Y-52507157D01*
X47299080Y-52334081D01*
X47472157Y-52123188D01*
X47600764Y-51882581D01*
X47679960Y-51621507D01*
X47700000Y-51418037D01*
X47700000Y-50181963D01*
X47679960Y-49978493D01*
X47600764Y-49717419D01*
X47472157Y-49476812D01*
X47299081Y-49265919D01*
X47088188Y-49092843D01*
X46847581Y-48964236D01*
X46586507Y-48885040D01*
X46315000Y-48858299D01*
X46043494Y-48885040D01*
X45782420Y-48964236D01*
X45541813Y-49092843D01*
X45330920Y-49265919D01*
X45157843Y-49476812D01*
X45065000Y-49650509D01*
X44972157Y-49476812D01*
X44799081Y-49265919D01*
X44588188Y-49092843D01*
X44347581Y-48964236D01*
X44086507Y-48885040D01*
X43815000Y-48858299D01*
X43543494Y-48885040D01*
X43282420Y-48964236D01*
X43041813Y-49092843D01*
X42830920Y-49265919D01*
X42657843Y-49476812D01*
X42565000Y-49650509D01*
X42472157Y-49476812D01*
X42299081Y-49265919D01*
X42088188Y-49092843D01*
X41847581Y-48964236D01*
X41586507Y-48885040D01*
X41315000Y-48858299D01*
X41043494Y-48885040D01*
X40782420Y-48964236D01*
X40541813Y-49092843D01*
X40330920Y-49265919D01*
X40157843Y-49476812D01*
X40029236Y-49717419D01*
X39950040Y-49978493D01*
X39930000Y-50181963D01*
X18490000Y-50181963D01*
X18469960Y-49978493D01*
X18390764Y-49717419D01*
X18262157Y-49476812D01*
X18089081Y-49265919D01*
X17878188Y-49092843D01*
X17637581Y-48964236D01*
X17376507Y-48885040D01*
X17105000Y-48858299D01*
X16833494Y-48885040D01*
X16572420Y-48964236D01*
X16331813Y-49092843D01*
X16120920Y-49265919D01*
X15947843Y-49476812D01*
X15855000Y-49650509D01*
X15762157Y-49476812D01*
X15589081Y-49265919D01*
X15378188Y-49092843D01*
X15137581Y-48964236D01*
X14876507Y-48885040D01*
X14605000Y-48858299D01*
X14333494Y-48885040D01*
X14072420Y-48964236D01*
X13831813Y-49092843D01*
X13620920Y-49265919D01*
X13447843Y-49476812D01*
X13355000Y-49650509D01*
X13262157Y-49476812D01*
X13089081Y-49265919D01*
X12878188Y-49092843D01*
X12637581Y-48964236D01*
X12376507Y-48885040D01*
X12105000Y-48858299D01*
X11833494Y-48885040D01*
X11572420Y-48964236D01*
X11331813Y-49092843D01*
X11120920Y-49265919D01*
X10947843Y-49476812D01*
X10819236Y-49717419D01*
X10740040Y-49978493D01*
X10720000Y-50181963D01*
X710000Y-50181963D01*
X710000Y-37186890D01*
X1098524Y-37186890D01*
X1143175Y-37334099D01*
X1268359Y-37596920D01*
X1442412Y-37830269D01*
X1658645Y-38025178D01*
X1908748Y-38174157D01*
X2183109Y-38271481D01*
X2413000Y-38150814D01*
X2413000Y-36957000D01*
X2667000Y-36957000D01*
X2667000Y-38150814D01*
X2896891Y-38271481D01*
X3171252Y-38174157D01*
X3421355Y-38025178D01*
X3637588Y-37830269D01*
X3811641Y-37596920D01*
X3936825Y-37334099D01*
X3981476Y-37186890D01*
X3860155Y-36957000D01*
X2667000Y-36957000D01*
X2413000Y-36957000D01*
X1219845Y-36957000D01*
X1098524Y-37186890D01*
X710000Y-37186890D01*
X710000Y-25820000D01*
X1051928Y-25820000D01*
X1051928Y-27520000D01*
X1064188Y-27644482D01*
X1100498Y-27764180D01*
X1159463Y-27874494D01*
X1238815Y-27971185D01*
X1335506Y-28050537D01*
X1445820Y-28109502D01*
X1518380Y-28131513D01*
X1386525Y-28263368D01*
X1224010Y-28506589D01*
X1112068Y-28776842D01*
X1055000Y-29063740D01*
X1055000Y-29356260D01*
X1112068Y-29643158D01*
X1224010Y-29913411D01*
X1386525Y-30156632D01*
X1593368Y-30363475D01*
X1767760Y-30480000D01*
X1593368Y-30596525D01*
X1386525Y-30803368D01*
X1224010Y-31046589D01*
X1112068Y-31316842D01*
X1055000Y-31603740D01*
X1055000Y-31896260D01*
X1112068Y-32183158D01*
X1224010Y-32453411D01*
X1386525Y-32696632D01*
X1518380Y-32828487D01*
X1445820Y-32850498D01*
X1335506Y-32909463D01*
X1238815Y-32988815D01*
X1159463Y-33085506D01*
X1100498Y-33195820D01*
X1064188Y-33315518D01*
X1051928Y-33440000D01*
X1051928Y-35140000D01*
X1064188Y-35264482D01*
X1100498Y-35384180D01*
X1159463Y-35494494D01*
X1238815Y-35591185D01*
X1335506Y-35670537D01*
X1445820Y-35729502D01*
X1526466Y-35753966D01*
X1442412Y-35829731D01*
X1268359Y-36063080D01*
X1143175Y-36325901D01*
X1098524Y-36473110D01*
X1219845Y-36703000D01*
X2413000Y-36703000D01*
X2413000Y-36683000D01*
X2667000Y-36683000D01*
X2667000Y-36703000D01*
X3860155Y-36703000D01*
X3981476Y-36473110D01*
X3936825Y-36325901D01*
X3811641Y-36063080D01*
X3637588Y-35829731D01*
X3553534Y-35753966D01*
X3634180Y-35729502D01*
X3744494Y-35670537D01*
X3841185Y-35591185D01*
X3920537Y-35494494D01*
X3979502Y-35384180D01*
X4015812Y-35264482D01*
X4028072Y-35140000D01*
X4028072Y-33440000D01*
X4015812Y-33315518D01*
X3979502Y-33195820D01*
X3920537Y-33085506D01*
X3841185Y-32988815D01*
X3744494Y-32909463D01*
X3634180Y-32850498D01*
X3561620Y-32828487D01*
X3693475Y-32696632D01*
X3855990Y-32453411D01*
X3967932Y-32183158D01*
X3988428Y-32080118D01*
X3988617Y-32081067D01*
X4074176Y-32287624D01*
X4198388Y-32473520D01*
X4245000Y-32520132D01*
X4245001Y-39869867D01*
X4198388Y-39916480D01*
X4074176Y-40102376D01*
X3988617Y-40308933D01*
X3945000Y-40528212D01*
X3945000Y-40751788D01*
X3988617Y-40971067D01*
X4074176Y-41177624D01*
X4198388Y-41363520D01*
X4356480Y-41521612D01*
X4542376Y-41645824D01*
X4748933Y-41731383D01*
X4968212Y-41775000D01*
X5191788Y-41775000D01*
X5220764Y-41769236D01*
X5215000Y-41798212D01*
X5215000Y-42021788D01*
X5258617Y-42241067D01*
X5344176Y-42447624D01*
X5468388Y-42633520D01*
X5626480Y-42791612D01*
X5812376Y-42915824D01*
X6018933Y-43001383D01*
X6238212Y-43045000D01*
X6461788Y-43045000D01*
X6681067Y-43001383D01*
X6887624Y-42915824D01*
X7073520Y-42791612D01*
X7231612Y-42633520D01*
X7355824Y-42447624D01*
X7441383Y-42241067D01*
X7485000Y-42021788D01*
X7485000Y-41798212D01*
X7441383Y-41578933D01*
X7355824Y-41372376D01*
X7231612Y-41186480D01*
X7185000Y-41139868D01*
X7185000Y-29980132D01*
X7231612Y-29933520D01*
X7296351Y-29836632D01*
X7220000Y-30220475D01*
X7220000Y-30739525D01*
X7321261Y-31248601D01*
X7519893Y-31728141D01*
X7808262Y-32159715D01*
X8175285Y-32526738D01*
X8606859Y-32815107D01*
X9086399Y-33013739D01*
X9595475Y-33115000D01*
X10114525Y-33115000D01*
X10623601Y-33013739D01*
X11103141Y-32815107D01*
X11534715Y-32526738D01*
X11901738Y-32159715D01*
X12190107Y-31728141D01*
X12388739Y-31248601D01*
X12490000Y-30739525D01*
X12490000Y-30220475D01*
X12388739Y-29711399D01*
X12190107Y-29231859D01*
X11901738Y-28800285D01*
X11534715Y-28433262D01*
X11103141Y-28144893D01*
X10623601Y-27946261D01*
X10114525Y-27845000D01*
X9595475Y-27845000D01*
X9086399Y-27946261D01*
X8606859Y-28144893D01*
X8175285Y-28433262D01*
X7808262Y-28800285D01*
X7519893Y-29231859D01*
X7485000Y-29316098D01*
X7485000Y-29098212D01*
X7441383Y-28878933D01*
X7355824Y-28672376D01*
X7231612Y-28486480D01*
X7073520Y-28328388D01*
X6887624Y-28204176D01*
X6681067Y-28118617D01*
X6461788Y-28075000D01*
X6238212Y-28075000D01*
X6018933Y-28118617D01*
X5812376Y-28204176D01*
X5626480Y-28328388D01*
X5468388Y-28486480D01*
X5344176Y-28672376D01*
X5258617Y-28878933D01*
X5215000Y-29098212D01*
X5215000Y-29321788D01*
X5258617Y-29541067D01*
X5344176Y-29747624D01*
X5468388Y-29933520D01*
X5515000Y-29980132D01*
X5515000Y-30701668D01*
X5411067Y-30658617D01*
X5191788Y-30615000D01*
X4968212Y-30615000D01*
X4748933Y-30658617D01*
X4542376Y-30744176D01*
X4356480Y-30868388D01*
X4198388Y-31026480D01*
X4074176Y-31212376D01*
X3988617Y-31418933D01*
X3988428Y-31419882D01*
X3967932Y-31316842D01*
X3855990Y-31046589D01*
X3693475Y-30803368D01*
X3486632Y-30596525D01*
X3312240Y-30480000D01*
X3486632Y-30363475D01*
X3693475Y-30156632D01*
X3855990Y-29913411D01*
X3967932Y-29643158D01*
X4025000Y-29356260D01*
X4025000Y-29063740D01*
X3967932Y-28776842D01*
X3855990Y-28506589D01*
X3693475Y-28263368D01*
X3561620Y-28131513D01*
X3634180Y-28109502D01*
X3744494Y-28050537D01*
X3841185Y-27971185D01*
X3920537Y-27874494D01*
X3979502Y-27764180D01*
X4015812Y-27644482D01*
X4028072Y-27520000D01*
X4028072Y-27096319D01*
X4074176Y-27207624D01*
X4198388Y-27393520D01*
X4356480Y-27551612D01*
X4542376Y-27675824D01*
X4748933Y-27761383D01*
X4968212Y-27805000D01*
X5191788Y-27805000D01*
X5411067Y-27761383D01*
X5617624Y-27675824D01*
X5803520Y-27551612D01*
X5961612Y-27393520D01*
X6085824Y-27207624D01*
X6171383Y-27001067D01*
X6215000Y-26781788D01*
X6215000Y-26558212D01*
X6171383Y-26338933D01*
X6085824Y-26132376D01*
X5961612Y-25946480D01*
X5915000Y-25899868D01*
X5915000Y-23630132D01*
X5961612Y-23583520D01*
X6085824Y-23397624D01*
X6171383Y-23191067D01*
X6215000Y-22971788D01*
X6215000Y-22748212D01*
X6171383Y-22528933D01*
X6085824Y-22322376D01*
X5961612Y-22136480D01*
X5803520Y-21978388D01*
X5617624Y-21854176D01*
X5411067Y-21768617D01*
X5191788Y-21725000D01*
X4968212Y-21725000D01*
X4748933Y-21768617D01*
X4542376Y-21854176D01*
X4356480Y-21978388D01*
X4198388Y-22136480D01*
X4074176Y-22322376D01*
X3988617Y-22528933D01*
X3945000Y-22748212D01*
X3945000Y-22971788D01*
X3988617Y-23191067D01*
X4074176Y-23397624D01*
X4198388Y-23583520D01*
X4245001Y-23630133D01*
X4245000Y-25899868D01*
X4198388Y-25946480D01*
X4074176Y-26132376D01*
X4028072Y-26243681D01*
X4028072Y-25820000D01*
X4015812Y-25695518D01*
X3979502Y-25575820D01*
X3920537Y-25465506D01*
X3841185Y-25368815D01*
X3744494Y-25289463D01*
X3634180Y-25230498D01*
X3514482Y-25194188D01*
X3390000Y-25181928D01*
X1690000Y-25181928D01*
X1565518Y-25194188D01*
X1445820Y-25230498D01*
X1335506Y-25289463D01*
X1238815Y-25368815D01*
X1159463Y-25465506D01*
X1100498Y-25575820D01*
X1064188Y-25695518D01*
X1051928Y-25820000D01*
X710000Y-25820000D01*
X710000Y-9596878D01*
X8400000Y-9596878D01*
X8400000Y-10723123D01*
X8418593Y-10911904D01*
X8492071Y-11154127D01*
X8611392Y-11377362D01*
X8771973Y-11573028D01*
X8850000Y-11637064D01*
X8850001Y-14723972D01*
X8845960Y-14765000D01*
X8862082Y-14928688D01*
X8909828Y-15086086D01*
X8987364Y-15231145D01*
X8987365Y-15231146D01*
X9091710Y-15358291D01*
X9123574Y-15384441D01*
X9540554Y-15801421D01*
X9566709Y-15833291D01*
X9693854Y-15937636D01*
X9838913Y-16015172D01*
X9996311Y-16062918D01*
X10118981Y-16075000D01*
X10118991Y-16075000D01*
X10159999Y-16079039D01*
X10201007Y-16075000D01*
X13624132Y-16075000D01*
X13770000Y-16220868D01*
X13770000Y-17186018D01*
X13770001Y-17186028D01*
X13770000Y-23326016D01*
X13770001Y-23326026D01*
X13770000Y-33519868D01*
X13723388Y-33566480D01*
X13599176Y-33752376D01*
X13513617Y-33958933D01*
X13470000Y-34178212D01*
X13470000Y-34401788D01*
X13513617Y-34621067D01*
X13599176Y-34827624D01*
X13723388Y-35013520D01*
X13881480Y-35171612D01*
X14067376Y-35295824D01*
X14273933Y-35381383D01*
X14493212Y-35425000D01*
X14716788Y-35425000D01*
X14936067Y-35381383D01*
X15142624Y-35295824D01*
X15328520Y-35171612D01*
X15486612Y-35013520D01*
X15610824Y-34827624D01*
X15675000Y-34672690D01*
X15675000Y-35518981D01*
X15670960Y-35560000D01*
X15675000Y-35601018D01*
X15687082Y-35723688D01*
X15734828Y-35881086D01*
X15812364Y-36026145D01*
X15916709Y-36153291D01*
X15948578Y-36179445D01*
X16270001Y-36500868D01*
X16270001Y-36691800D01*
X16126495Y-36787688D01*
X15912688Y-37001495D01*
X15855000Y-37087831D01*
X15797312Y-37001495D01*
X15583505Y-36787688D01*
X15332095Y-36619701D01*
X15052743Y-36503989D01*
X14756184Y-36445000D01*
X14453816Y-36445000D01*
X14157257Y-36503989D01*
X13877905Y-36619701D01*
X13626495Y-36787688D01*
X13412688Y-37001495D01*
X13355000Y-37087831D01*
X13297312Y-37001495D01*
X13083505Y-36787688D01*
X12832095Y-36619701D01*
X12552743Y-36503989D01*
X12256184Y-36445000D01*
X11953816Y-36445000D01*
X11657257Y-36503989D01*
X11377905Y-36619701D01*
X11126495Y-36787688D01*
X10912688Y-37001495D01*
X10744701Y-37252905D01*
X10628989Y-37532257D01*
X10570000Y-37828816D01*
X10570000Y-38131184D01*
X10628989Y-38427743D01*
X10744701Y-38707095D01*
X10912688Y-38958505D01*
X11126495Y-39172312D01*
X11270000Y-39268199D01*
X11270001Y-39829867D01*
X11223388Y-39876480D01*
X11099176Y-40062376D01*
X11013617Y-40268933D01*
X10970000Y-40488212D01*
X10970000Y-40711788D01*
X11013617Y-40931067D01*
X11099176Y-41137624D01*
X11223388Y-41323520D01*
X11381480Y-41481612D01*
X11567376Y-41605824D01*
X11773933Y-41691383D01*
X11993212Y-41735000D01*
X12216788Y-41735000D01*
X12436067Y-41691383D01*
X12642624Y-41605824D01*
X12828520Y-41481612D01*
X12986612Y-41323520D01*
X13110824Y-41137624D01*
X13196383Y-40931067D01*
X13240000Y-40711788D01*
X13240000Y-40488212D01*
X13196383Y-40268933D01*
X13110824Y-40062376D01*
X12986612Y-39876480D01*
X12940000Y-39829868D01*
X12940000Y-39268199D01*
X13083505Y-39172312D01*
X13297312Y-38958505D01*
X13355000Y-38872169D01*
X13412688Y-38958505D01*
X13626495Y-39172312D01*
X13770000Y-39268199D01*
X13770001Y-41139867D01*
X13723388Y-41186480D01*
X13599176Y-41372376D01*
X13513617Y-41578933D01*
X13470000Y-41798212D01*
X13470000Y-42021788D01*
X13513617Y-42241067D01*
X13599176Y-42447624D01*
X13723388Y-42633520D01*
X13881480Y-42791612D01*
X14067376Y-42915824D01*
X14273933Y-43001383D01*
X14493212Y-43045000D01*
X14716788Y-43045000D01*
X14936067Y-43001383D01*
X15142624Y-42915824D01*
X15328520Y-42791612D01*
X15486612Y-42633520D01*
X15610824Y-42447624D01*
X15696383Y-42241067D01*
X15740000Y-42021788D01*
X15740000Y-41798212D01*
X15696383Y-41578933D01*
X15610824Y-41372376D01*
X15486612Y-41186480D01*
X15440000Y-41139868D01*
X15440000Y-39268199D01*
X15583505Y-39172312D01*
X15797312Y-38958505D01*
X15855000Y-38872169D01*
X15912688Y-38958505D01*
X16126495Y-39172312D01*
X16377905Y-39340299D01*
X16657257Y-39456011D01*
X16953816Y-39515000D01*
X17256184Y-39515000D01*
X17552743Y-39456011D01*
X17832095Y-39340299D01*
X18083505Y-39172312D01*
X18297312Y-38958505D01*
X18465299Y-38707095D01*
X18581011Y-38427743D01*
X18640000Y-38131184D01*
X18640000Y-37828816D01*
X39780000Y-37828816D01*
X39780000Y-38131184D01*
X39838989Y-38427743D01*
X39954701Y-38707095D01*
X40122688Y-38958505D01*
X40336495Y-39172312D01*
X40480000Y-39268199D01*
X40480001Y-39829867D01*
X40433388Y-39876480D01*
X40309176Y-40062376D01*
X40223617Y-40268933D01*
X40180000Y-40488212D01*
X40180000Y-40711788D01*
X40223617Y-40931067D01*
X40309176Y-41137624D01*
X40433388Y-41323520D01*
X40591480Y-41481612D01*
X40777376Y-41605824D01*
X40983933Y-41691383D01*
X41203212Y-41735000D01*
X41426788Y-41735000D01*
X41646067Y-41691383D01*
X41852624Y-41605824D01*
X42038520Y-41481612D01*
X42196612Y-41323520D01*
X42320824Y-41137624D01*
X42406383Y-40931067D01*
X42450000Y-40711788D01*
X42450000Y-40488212D01*
X42406383Y-40268933D01*
X42320824Y-40062376D01*
X42196612Y-39876480D01*
X42150000Y-39829868D01*
X42150000Y-39268199D01*
X42293505Y-39172312D01*
X42507312Y-38958505D01*
X42565000Y-38872169D01*
X42622688Y-38958505D01*
X42836495Y-39172312D01*
X42980000Y-39268199D01*
X42980001Y-41139867D01*
X42933388Y-41186480D01*
X42809176Y-41372376D01*
X42723617Y-41578933D01*
X42680000Y-41798212D01*
X42680000Y-42021788D01*
X42723617Y-42241067D01*
X42809176Y-42447624D01*
X42933388Y-42633520D01*
X43091480Y-42791612D01*
X43277376Y-42915824D01*
X43483933Y-43001383D01*
X43703212Y-43045000D01*
X43926788Y-43045000D01*
X44146067Y-43001383D01*
X44352624Y-42915824D01*
X44538520Y-42791612D01*
X44696612Y-42633520D01*
X44820824Y-42447624D01*
X44906383Y-42241067D01*
X44950000Y-42021788D01*
X44950000Y-41798212D01*
X44906383Y-41578933D01*
X44820824Y-41372376D01*
X44696612Y-41186480D01*
X44650000Y-41139868D01*
X44650000Y-39268199D01*
X44793505Y-39172312D01*
X45007312Y-38958505D01*
X45065000Y-38872169D01*
X45122688Y-38958505D01*
X45336495Y-39172312D01*
X45587905Y-39340299D01*
X45867257Y-39456011D01*
X46163816Y-39515000D01*
X46466184Y-39515000D01*
X46762743Y-39456011D01*
X47042095Y-39340299D01*
X47293505Y-39172312D01*
X47507312Y-38958505D01*
X47675299Y-38707095D01*
X47791011Y-38427743D01*
X47850000Y-38131184D01*
X47850000Y-37828816D01*
X47791011Y-37532257D01*
X47675299Y-37252905D01*
X47507312Y-37001495D01*
X47293505Y-36787688D01*
X47150000Y-36691801D01*
X47150000Y-36276018D01*
X47154040Y-36234999D01*
X47137918Y-36071311D01*
X47090172Y-35913913D01*
X47012636Y-35768854D01*
X46908291Y-35641709D01*
X46876426Y-35615558D01*
X46555000Y-35294133D01*
X46555000Y-32196453D01*
X46885285Y-32526738D01*
X47316859Y-32815107D01*
X47796399Y-33013739D01*
X48305475Y-33115000D01*
X48824525Y-33115000D01*
X49333601Y-33013739D01*
X49813141Y-32815107D01*
X50244715Y-32526738D01*
X50611738Y-32159715D01*
X50900107Y-31728141D01*
X51098739Y-31248601D01*
X51200000Y-30739525D01*
X51200000Y-30220475D01*
X51123649Y-29836632D01*
X51188388Y-29933520D01*
X51235000Y-29980132D01*
X51235001Y-41139867D01*
X51188388Y-41186480D01*
X51064176Y-41372376D01*
X50978617Y-41578933D01*
X50935000Y-41798212D01*
X50935000Y-42021788D01*
X50978617Y-42241067D01*
X51064176Y-42447624D01*
X51188388Y-42633520D01*
X51346480Y-42791612D01*
X51532376Y-42915824D01*
X51738933Y-43001383D01*
X51958212Y-43045000D01*
X52181788Y-43045000D01*
X52401067Y-43001383D01*
X52607624Y-42915824D01*
X52793520Y-42791612D01*
X52951612Y-42633520D01*
X53075824Y-42447624D01*
X53161383Y-42241067D01*
X53205000Y-42021788D01*
X53205000Y-41798212D01*
X53199236Y-41769236D01*
X53228212Y-41775000D01*
X53451788Y-41775000D01*
X53671067Y-41731383D01*
X53877624Y-41645824D01*
X54063520Y-41521612D01*
X54221612Y-41363520D01*
X54345824Y-41177624D01*
X54431383Y-40971067D01*
X54475000Y-40751788D01*
X54475000Y-40528212D01*
X54431383Y-40308933D01*
X54345824Y-40102376D01*
X54221612Y-39916480D01*
X54175000Y-39869868D01*
X54175000Y-37186890D01*
X54438524Y-37186890D01*
X54483175Y-37334099D01*
X54608359Y-37596920D01*
X54782412Y-37830269D01*
X54998645Y-38025178D01*
X55248748Y-38174157D01*
X55523109Y-38271481D01*
X55753000Y-38150814D01*
X55753000Y-36957000D01*
X56007000Y-36957000D01*
X56007000Y-38150814D01*
X56236891Y-38271481D01*
X56511252Y-38174157D01*
X56761355Y-38025178D01*
X56977588Y-37830269D01*
X57151641Y-37596920D01*
X57276825Y-37334099D01*
X57321476Y-37186890D01*
X57200155Y-36957000D01*
X56007000Y-36957000D01*
X55753000Y-36957000D01*
X54559845Y-36957000D01*
X54438524Y-37186890D01*
X54175000Y-37186890D01*
X54175000Y-32520132D01*
X54221612Y-32473520D01*
X54345824Y-32287624D01*
X54431383Y-32081067D01*
X54431572Y-32080118D01*
X54452068Y-32183158D01*
X54564010Y-32453411D01*
X54726525Y-32696632D01*
X54858380Y-32828487D01*
X54785820Y-32850498D01*
X54675506Y-32909463D01*
X54578815Y-32988815D01*
X54499463Y-33085506D01*
X54440498Y-33195820D01*
X54404188Y-33315518D01*
X54391928Y-33440000D01*
X54391928Y-35140000D01*
X54404188Y-35264482D01*
X54440498Y-35384180D01*
X54499463Y-35494494D01*
X54578815Y-35591185D01*
X54675506Y-35670537D01*
X54785820Y-35729502D01*
X54866466Y-35753966D01*
X54782412Y-35829731D01*
X54608359Y-36063080D01*
X54483175Y-36325901D01*
X54438524Y-36473110D01*
X54559845Y-36703000D01*
X55753000Y-36703000D01*
X55753000Y-36683000D01*
X56007000Y-36683000D01*
X56007000Y-36703000D01*
X57200155Y-36703000D01*
X57321476Y-36473110D01*
X57276825Y-36325901D01*
X57151641Y-36063080D01*
X56977588Y-35829731D01*
X56893534Y-35753966D01*
X56974180Y-35729502D01*
X57084494Y-35670537D01*
X57181185Y-35591185D01*
X57260537Y-35494494D01*
X57319502Y-35384180D01*
X57355812Y-35264482D01*
X57368072Y-35140000D01*
X57368072Y-33440000D01*
X57355812Y-33315518D01*
X57319502Y-33195820D01*
X57260537Y-33085506D01*
X57181185Y-32988815D01*
X57084494Y-32909463D01*
X56974180Y-32850498D01*
X56901620Y-32828487D01*
X57033475Y-32696632D01*
X57195990Y-32453411D01*
X57307932Y-32183158D01*
X57365000Y-31896260D01*
X57365000Y-31603740D01*
X57307932Y-31316842D01*
X57195990Y-31046589D01*
X57033475Y-30803368D01*
X56826632Y-30596525D01*
X56652240Y-30480000D01*
X56826632Y-30363475D01*
X57033475Y-30156632D01*
X57195990Y-29913411D01*
X57307932Y-29643158D01*
X57365000Y-29356260D01*
X57365000Y-29063740D01*
X57307932Y-28776842D01*
X57195990Y-28506589D01*
X57033475Y-28263368D01*
X56901620Y-28131513D01*
X56974180Y-28109502D01*
X57084494Y-28050537D01*
X57181185Y-27971185D01*
X57260537Y-27874494D01*
X57319502Y-27764180D01*
X57355812Y-27644482D01*
X57368072Y-27520000D01*
X57368072Y-25820000D01*
X57355812Y-25695518D01*
X57319502Y-25575820D01*
X57260537Y-25465506D01*
X57181185Y-25368815D01*
X57084494Y-25289463D01*
X56974180Y-25230498D01*
X56854482Y-25194188D01*
X56730000Y-25181928D01*
X55030000Y-25181928D01*
X54905518Y-25194188D01*
X54785820Y-25230498D01*
X54675506Y-25289463D01*
X54578815Y-25368815D01*
X54499463Y-25465506D01*
X54440498Y-25575820D01*
X54404188Y-25695518D01*
X54391928Y-25820000D01*
X54391928Y-26243681D01*
X54345824Y-26132376D01*
X54221612Y-25946480D01*
X54175000Y-25899868D01*
X54175000Y-23630132D01*
X54221612Y-23583520D01*
X54345824Y-23397624D01*
X54431383Y-23191067D01*
X54475000Y-22971788D01*
X54475000Y-22748212D01*
X54431383Y-22528933D01*
X54345824Y-22322376D01*
X54221612Y-22136480D01*
X54063520Y-21978388D01*
X53877624Y-21854176D01*
X53671067Y-21768617D01*
X53451788Y-21725000D01*
X53228212Y-21725000D01*
X53008933Y-21768617D01*
X52802376Y-21854176D01*
X52616480Y-21978388D01*
X52458388Y-22136480D01*
X52334176Y-22322376D01*
X52248617Y-22528933D01*
X52205000Y-22748212D01*
X52205000Y-22971788D01*
X52248617Y-23191067D01*
X52334176Y-23397624D01*
X52458388Y-23583520D01*
X52505001Y-23630133D01*
X52505000Y-25899868D01*
X52458388Y-25946480D01*
X52334176Y-26132376D01*
X52248617Y-26338933D01*
X52205000Y-26558212D01*
X52205000Y-26781788D01*
X52248617Y-27001067D01*
X52334176Y-27207624D01*
X52458388Y-27393520D01*
X52616480Y-27551612D01*
X52802376Y-27675824D01*
X53008933Y-27761383D01*
X53228212Y-27805000D01*
X53451788Y-27805000D01*
X53671067Y-27761383D01*
X53877624Y-27675824D01*
X54063520Y-27551612D01*
X54221612Y-27393520D01*
X54345824Y-27207624D01*
X54391928Y-27096319D01*
X54391928Y-27520000D01*
X54404188Y-27644482D01*
X54440498Y-27764180D01*
X54499463Y-27874494D01*
X54578815Y-27971185D01*
X54675506Y-28050537D01*
X54785820Y-28109502D01*
X54858380Y-28131513D01*
X54726525Y-28263368D01*
X54564010Y-28506589D01*
X54452068Y-28776842D01*
X54395000Y-29063740D01*
X54395000Y-29356260D01*
X54452068Y-29643158D01*
X54564010Y-29913411D01*
X54726525Y-30156632D01*
X54933368Y-30363475D01*
X55107760Y-30480000D01*
X54933368Y-30596525D01*
X54726525Y-30803368D01*
X54564010Y-31046589D01*
X54452068Y-31316842D01*
X54431572Y-31419882D01*
X54431383Y-31418933D01*
X54345824Y-31212376D01*
X54221612Y-31026480D01*
X54063520Y-30868388D01*
X53877624Y-30744176D01*
X53671067Y-30658617D01*
X53451788Y-30615000D01*
X53228212Y-30615000D01*
X53008933Y-30658617D01*
X52905000Y-30701668D01*
X52905000Y-29980132D01*
X52951612Y-29933520D01*
X53075824Y-29747624D01*
X53161383Y-29541067D01*
X53205000Y-29321788D01*
X53205000Y-29098212D01*
X53161383Y-28878933D01*
X53075824Y-28672376D01*
X52951612Y-28486480D01*
X52793520Y-28328388D01*
X52607624Y-28204176D01*
X52401067Y-28118617D01*
X52181788Y-28075000D01*
X51958212Y-28075000D01*
X51738933Y-28118617D01*
X51532376Y-28204176D01*
X51346480Y-28328388D01*
X51188388Y-28486480D01*
X51064176Y-28672376D01*
X50978617Y-28878933D01*
X50935000Y-29098212D01*
X50935000Y-29316098D01*
X50900107Y-29231859D01*
X50611738Y-28800285D01*
X50244715Y-28433262D01*
X49813141Y-28144893D01*
X49333601Y-27946261D01*
X48824525Y-27845000D01*
X48305475Y-27845000D01*
X47796399Y-27946261D01*
X47316859Y-28144893D01*
X46885285Y-28433262D01*
X46555000Y-28763547D01*
X46555000Y-23630132D01*
X46601612Y-23583520D01*
X46725824Y-23397624D01*
X46811383Y-23191067D01*
X46855000Y-22971788D01*
X46855000Y-22748212D01*
X46811383Y-22528933D01*
X46725824Y-22322376D01*
X46601612Y-22136480D01*
X46443520Y-21978388D01*
X46257624Y-21854176D01*
X46051067Y-21768617D01*
X45831788Y-21725000D01*
X45608212Y-21725000D01*
X45388933Y-21768617D01*
X45182376Y-21854176D01*
X44996480Y-21978388D01*
X44838388Y-22136480D01*
X44714176Y-22322376D01*
X44650000Y-22477310D01*
X44650000Y-16220868D01*
X44795868Y-16075000D01*
X48218982Y-16075000D01*
X48260000Y-16079040D01*
X48301018Y-16075000D01*
X48301019Y-16075000D01*
X48423689Y-16062918D01*
X48581087Y-16015172D01*
X48726146Y-15937636D01*
X48853291Y-15833291D01*
X48879446Y-15801421D01*
X49296421Y-15384446D01*
X49328291Y-15358291D01*
X49432636Y-15231146D01*
X49510172Y-15086087D01*
X49557918Y-14928689D01*
X49570000Y-14806019D01*
X49570000Y-14806009D01*
X49574039Y-14765001D01*
X49570000Y-14723993D01*
X49570000Y-11637064D01*
X49648028Y-11573028D01*
X49808608Y-11377362D01*
X49927929Y-11154127D01*
X50001407Y-10911904D01*
X50020000Y-10723123D01*
X50020000Y-9596877D01*
X50001407Y-9408096D01*
X49927929Y-9165873D01*
X49808608Y-8942638D01*
X49648028Y-8746972D01*
X49452362Y-8586392D01*
X49229127Y-8467071D01*
X48986904Y-8393593D01*
X48735000Y-8368783D01*
X48483097Y-8393593D01*
X48240874Y-8467071D01*
X48017639Y-8586392D01*
X47821973Y-8746972D01*
X47661392Y-8942638D01*
X47542071Y-9165873D01*
X47468593Y-9408096D01*
X47450000Y-9596877D01*
X47450000Y-10723122D01*
X47468593Y-10911903D01*
X47542071Y-11154126D01*
X47661392Y-11377361D01*
X47821972Y-11573028D01*
X47900000Y-11637065D01*
X47900001Y-14405000D01*
X44491018Y-14405000D01*
X44450000Y-14400960D01*
X44408982Y-14405000D01*
X44408981Y-14405000D01*
X44286311Y-14417082D01*
X44128913Y-14464828D01*
X43983854Y-14542364D01*
X43912026Y-14601312D01*
X43856709Y-14646709D01*
X43830562Y-14678569D01*
X43253578Y-15255555D01*
X43221709Y-15281709D01*
X43121605Y-15403687D01*
X43117364Y-15408855D01*
X43039828Y-15553914D01*
X42992082Y-15711312D01*
X42975960Y-15875000D01*
X42980000Y-15916019D01*
X42980001Y-23243970D01*
X42980000Y-23243980D01*
X42980001Y-33519867D01*
X42933388Y-33566480D01*
X42809176Y-33752376D01*
X42723617Y-33958933D01*
X42680000Y-34178212D01*
X42680000Y-34401788D01*
X42723617Y-34621067D01*
X42809176Y-34827624D01*
X42933388Y-35013520D01*
X43091480Y-35171612D01*
X43277376Y-35295824D01*
X43483933Y-35381383D01*
X43703212Y-35425000D01*
X43926788Y-35425000D01*
X44146067Y-35381383D01*
X44352624Y-35295824D01*
X44538520Y-35171612D01*
X44696612Y-35013520D01*
X44820824Y-34827624D01*
X44885000Y-34672690D01*
X44885000Y-35598981D01*
X44880960Y-35640000D01*
X44885000Y-35681018D01*
X44897082Y-35803688D01*
X44944828Y-35961086D01*
X45022364Y-36106145D01*
X45126709Y-36233291D01*
X45158578Y-36259445D01*
X45480001Y-36580868D01*
X45480001Y-36691800D01*
X45336495Y-36787688D01*
X45122688Y-37001495D01*
X45065000Y-37087831D01*
X45007312Y-37001495D01*
X44793505Y-36787688D01*
X44542095Y-36619701D01*
X44262743Y-36503989D01*
X43966184Y-36445000D01*
X43663816Y-36445000D01*
X43367257Y-36503989D01*
X43087905Y-36619701D01*
X42836495Y-36787688D01*
X42622688Y-37001495D01*
X42565000Y-37087831D01*
X42507312Y-37001495D01*
X42293505Y-36787688D01*
X42042095Y-36619701D01*
X41762743Y-36503989D01*
X41466184Y-36445000D01*
X41163816Y-36445000D01*
X40867257Y-36503989D01*
X40587905Y-36619701D01*
X40336495Y-36787688D01*
X40122688Y-37001495D01*
X39954701Y-37252905D01*
X39838989Y-37532257D01*
X39780000Y-37828816D01*
X18640000Y-37828816D01*
X18581011Y-37532257D01*
X18465299Y-37252905D01*
X18297312Y-37001495D01*
X18083505Y-36787688D01*
X17940000Y-36691801D01*
X17940000Y-36196018D01*
X17944040Y-36154999D01*
X17927918Y-35991311D01*
X17880172Y-35833913D01*
X17802636Y-35688854D01*
X17763945Y-35641709D01*
X17698291Y-35561709D01*
X17666426Y-35535558D01*
X17345000Y-35214133D01*
X17345000Y-32196453D01*
X17675285Y-32526738D01*
X18106859Y-32815107D01*
X18586399Y-33013739D01*
X19095475Y-33115000D01*
X19614525Y-33115000D01*
X20123601Y-33013739D01*
X20603141Y-32815107D01*
X21034715Y-32526738D01*
X21401738Y-32159715D01*
X21690107Y-31728141D01*
X21888739Y-31248601D01*
X21990000Y-30739525D01*
X21990000Y-30220475D01*
X36430000Y-30220475D01*
X36430000Y-30739525D01*
X36531261Y-31248601D01*
X36729893Y-31728141D01*
X37018262Y-32159715D01*
X37385285Y-32526738D01*
X37816859Y-32815107D01*
X38296399Y-33013739D01*
X38805475Y-33115000D01*
X39324525Y-33115000D01*
X39833601Y-33013739D01*
X40313141Y-32815107D01*
X40744715Y-32526738D01*
X41111738Y-32159715D01*
X41400107Y-31728141D01*
X41598739Y-31248601D01*
X41700000Y-30739525D01*
X41700000Y-30220475D01*
X41598739Y-29711399D01*
X41400107Y-29231859D01*
X41111738Y-28800285D01*
X40744715Y-28433262D01*
X40313141Y-28144893D01*
X39833601Y-27946261D01*
X39324525Y-27845000D01*
X38805475Y-27845000D01*
X38296399Y-27946261D01*
X37816859Y-28144893D01*
X37385285Y-28433262D01*
X37018262Y-28800285D01*
X36729893Y-29231859D01*
X36531261Y-29711399D01*
X36430000Y-30220475D01*
X21990000Y-30220475D01*
X21888739Y-29711399D01*
X21690107Y-29231859D01*
X21401738Y-28800285D01*
X21034715Y-28433262D01*
X20603141Y-28144893D01*
X20123601Y-27946261D01*
X19614525Y-27845000D01*
X19095475Y-27845000D01*
X18586399Y-27946261D01*
X18106859Y-28144893D01*
X17675285Y-28433262D01*
X17345000Y-28763547D01*
X17345000Y-23630132D01*
X17391612Y-23583520D01*
X17515824Y-23397624D01*
X17601383Y-23191067D01*
X17645000Y-22971788D01*
X17645000Y-22748212D01*
X17601383Y-22528933D01*
X17515824Y-22322376D01*
X17391612Y-22136480D01*
X17233520Y-21978388D01*
X17047624Y-21854176D01*
X16841067Y-21768617D01*
X16621788Y-21725000D01*
X16398212Y-21725000D01*
X16178933Y-21768617D01*
X15972376Y-21854176D01*
X15786480Y-21978388D01*
X15628388Y-22136480D01*
X15504176Y-22322376D01*
X15440000Y-22477310D01*
X15440000Y-15916018D01*
X15444040Y-15875000D01*
X15427918Y-15711312D01*
X15426351Y-15706144D01*
X15380172Y-15553913D01*
X15302636Y-15408854D01*
X15234992Y-15326429D01*
X15224439Y-15313570D01*
X15224437Y-15313568D01*
X15198291Y-15281709D01*
X15166432Y-15255564D01*
X14589445Y-14678578D01*
X14563291Y-14646709D01*
X14436146Y-14542364D01*
X14291087Y-14464828D01*
X14133689Y-14417082D01*
X14011019Y-14405000D01*
X14011018Y-14405000D01*
X13970000Y-14400960D01*
X13928982Y-14405000D01*
X10520000Y-14405000D01*
X10520000Y-11637064D01*
X10598028Y-11573028D01*
X10758608Y-11377362D01*
X10877929Y-11154127D01*
X10951407Y-10911904D01*
X10970000Y-10723123D01*
X10970000Y-9925098D01*
X12220000Y-9925098D01*
X12220000Y-10394902D01*
X12311654Y-10855679D01*
X12491440Y-11289721D01*
X12752450Y-11680349D01*
X13084651Y-12012550D01*
X13475279Y-12273560D01*
X13909321Y-12453346D01*
X14370098Y-12545000D01*
X14839902Y-12545000D01*
X15300679Y-12453346D01*
X15734721Y-12273560D01*
X16125349Y-12012550D01*
X16457550Y-11680349D01*
X16718560Y-11289721D01*
X16784738Y-11129953D01*
X16792071Y-11154127D01*
X16911392Y-11377362D01*
X17071973Y-11573028D01*
X17267639Y-11733608D01*
X17490874Y-11852929D01*
X17733097Y-11926407D01*
X17985000Y-11951217D01*
X18236904Y-11926407D01*
X18479127Y-11852929D01*
X18702362Y-11733608D01*
X18898028Y-11573028D01*
X19058608Y-11377362D01*
X19177929Y-11154127D01*
X19251407Y-10911904D01*
X19270000Y-10723123D01*
X19270000Y-10287000D01*
X19800000Y-10287000D01*
X19800000Y-10787000D01*
X19849467Y-11035251D01*
X19946415Y-11269081D01*
X20087118Y-11479505D01*
X20266170Y-11658436D01*
X20476689Y-11798997D01*
X20710585Y-11895787D01*
X20759529Y-11903099D01*
X20958000Y-11779067D01*
X20958000Y-10287000D01*
X21212000Y-10287000D01*
X21212000Y-11779067D01*
X21410471Y-11903099D01*
X21459415Y-11895787D01*
X21693311Y-11798997D01*
X21903830Y-11658436D01*
X22082882Y-11479505D01*
X22223585Y-11269081D01*
X22320533Y-11035251D01*
X22370000Y-10787000D01*
X22370000Y-10287000D01*
X36050000Y-10287000D01*
X36050000Y-10787000D01*
X36099467Y-11035251D01*
X36196415Y-11269081D01*
X36337118Y-11479505D01*
X36516170Y-11658436D01*
X36726689Y-11798997D01*
X36960585Y-11895787D01*
X37009529Y-11903099D01*
X37208000Y-11779067D01*
X37208000Y-10287000D01*
X37462000Y-10287000D01*
X37462000Y-11779067D01*
X37660471Y-11903099D01*
X37709415Y-11895787D01*
X37943311Y-11798997D01*
X38153830Y-11658436D01*
X38332882Y-11479505D01*
X38473585Y-11269081D01*
X38570533Y-11035251D01*
X38620000Y-10787000D01*
X38620000Y-10287000D01*
X37462000Y-10287000D01*
X37208000Y-10287000D01*
X36050000Y-10287000D01*
X22370000Y-10287000D01*
X21212000Y-10287000D01*
X20958000Y-10287000D01*
X19800000Y-10287000D01*
X19270000Y-10287000D01*
X19270000Y-9596877D01*
X19263709Y-9533000D01*
X19800000Y-9533000D01*
X19800000Y-10033000D01*
X20958000Y-10033000D01*
X20958000Y-8540933D01*
X21212000Y-8540933D01*
X21212000Y-10033000D01*
X22370000Y-10033000D01*
X22370000Y-9533000D01*
X36050000Y-9533000D01*
X36050000Y-10033000D01*
X37208000Y-10033000D01*
X37208000Y-8540933D01*
X37462000Y-8540933D01*
X37462000Y-10033000D01*
X38620000Y-10033000D01*
X38620000Y-9596877D01*
X39150000Y-9596877D01*
X39150000Y-10723122D01*
X39168593Y-10911903D01*
X39242071Y-11154126D01*
X39361392Y-11377361D01*
X39521972Y-11573028D01*
X39717638Y-11733608D01*
X39940873Y-11852929D01*
X40183096Y-11926407D01*
X40435000Y-11951217D01*
X40686903Y-11926407D01*
X40929126Y-11852929D01*
X41152361Y-11733608D01*
X41348028Y-11573028D01*
X41508608Y-11377362D01*
X41627929Y-11154127D01*
X41635262Y-11129953D01*
X41701440Y-11289721D01*
X41962450Y-11680349D01*
X42294651Y-12012550D01*
X42685279Y-12273560D01*
X43119321Y-12453346D01*
X43580098Y-12545000D01*
X44049902Y-12545000D01*
X44510679Y-12453346D01*
X44944721Y-12273560D01*
X45335349Y-12012550D01*
X45667550Y-11680349D01*
X45928560Y-11289721D01*
X46108346Y-10855679D01*
X46200000Y-10394902D01*
X46200000Y-9925098D01*
X46108346Y-9464321D01*
X45928560Y-9030279D01*
X45667550Y-8639651D01*
X45335349Y-8307450D01*
X44944721Y-8046440D01*
X44510679Y-7866654D01*
X44049902Y-7775000D01*
X43580098Y-7775000D01*
X43119321Y-7866654D01*
X42685279Y-8046440D01*
X42294651Y-8307450D01*
X41962450Y-8639651D01*
X41701440Y-9030279D01*
X41635262Y-9190047D01*
X41627929Y-9165873D01*
X41508608Y-8942638D01*
X41348028Y-8746972D01*
X41152362Y-8586392D01*
X40929127Y-8467071D01*
X40686904Y-8393593D01*
X40435000Y-8368783D01*
X40183097Y-8393593D01*
X39940874Y-8467071D01*
X39717639Y-8586392D01*
X39521973Y-8746972D01*
X39361392Y-8942638D01*
X39242071Y-9165873D01*
X39168593Y-9408096D01*
X39150000Y-9596877D01*
X38620000Y-9596877D01*
X38620000Y-9533000D01*
X38570533Y-9284749D01*
X38473585Y-9050919D01*
X38332882Y-8840495D01*
X38153830Y-8661564D01*
X37943311Y-8521003D01*
X37709415Y-8424213D01*
X37660471Y-8416901D01*
X37462000Y-8540933D01*
X37208000Y-8540933D01*
X37009529Y-8416901D01*
X36960585Y-8424213D01*
X36726689Y-8521003D01*
X36516170Y-8661564D01*
X36337118Y-8840495D01*
X36196415Y-9050919D01*
X36099467Y-9284749D01*
X36050000Y-9533000D01*
X22370000Y-9533000D01*
X22320533Y-9284749D01*
X22223585Y-9050919D01*
X22082882Y-8840495D01*
X21903830Y-8661564D01*
X21693311Y-8521003D01*
X21459415Y-8424213D01*
X21410471Y-8416901D01*
X21212000Y-8540933D01*
X20958000Y-8540933D01*
X20759529Y-8416901D01*
X20710585Y-8424213D01*
X20476689Y-8521003D01*
X20266170Y-8661564D01*
X20087118Y-8840495D01*
X19946415Y-9050919D01*
X19849467Y-9284749D01*
X19800000Y-9533000D01*
X19263709Y-9533000D01*
X19251407Y-9408096D01*
X19177929Y-9165873D01*
X19058608Y-8942638D01*
X18898028Y-8746972D01*
X18702361Y-8586392D01*
X18479126Y-8467071D01*
X18236903Y-8393593D01*
X17985000Y-8368783D01*
X17733096Y-8393593D01*
X17490873Y-8467071D01*
X17267638Y-8586392D01*
X17071972Y-8746972D01*
X16911392Y-8942639D01*
X16792071Y-9165874D01*
X16784738Y-9190047D01*
X16718560Y-9030279D01*
X16457550Y-8639651D01*
X16125349Y-8307450D01*
X15734721Y-8046440D01*
X15300679Y-7866654D01*
X14839902Y-7775000D01*
X14370098Y-7775000D01*
X13909321Y-7866654D01*
X13475279Y-8046440D01*
X13084651Y-8307450D01*
X12752450Y-8639651D01*
X12491440Y-9030279D01*
X12311654Y-9464321D01*
X12220000Y-9925098D01*
X10970000Y-9925098D01*
X10970000Y-9596877D01*
X10951407Y-9408096D01*
X10877929Y-9165873D01*
X10758608Y-8942638D01*
X10598028Y-8746972D01*
X10402361Y-8586392D01*
X10179126Y-8467071D01*
X9936903Y-8393593D01*
X9685000Y-8368783D01*
X9433096Y-8393593D01*
X9190873Y-8467071D01*
X8967638Y-8586392D01*
X8771972Y-8746972D01*
X8611392Y-8942639D01*
X8492071Y-9165874D01*
X8418593Y-9408097D01*
X8400000Y-9596878D01*
X710000Y-9596878D01*
X710000Y-7176468D01*
X3163137Y-7176468D01*
X3421298Y-7579073D01*
X3940715Y-7854651D01*
X4503913Y-8023601D01*
X5089250Y-8079430D01*
X5674233Y-8019992D01*
X6236379Y-7847571D01*
X6738702Y-7579073D01*
X6996863Y-7176468D01*
X51423137Y-7176468D01*
X51681298Y-7579073D01*
X52200715Y-7854651D01*
X52763913Y-8023601D01*
X53349250Y-8079430D01*
X53934233Y-8019992D01*
X54496379Y-7847571D01*
X54998702Y-7579073D01*
X55256863Y-7176468D01*
X53340000Y-5259605D01*
X51423137Y-7176468D01*
X6996863Y-7176468D01*
X5080000Y-5259605D01*
X3163137Y-7176468D01*
X710000Y-7176468D01*
X710000Y-5089250D01*
X2080570Y-5089250D01*
X2140008Y-5674233D01*
X2312429Y-6236379D01*
X2580927Y-6738702D01*
X2983532Y-6996863D01*
X4900395Y-5080000D01*
X5259605Y-5080000D01*
X7176468Y-6996863D01*
X7579073Y-6738702D01*
X7854651Y-6219285D01*
X8023601Y-5656087D01*
X8077665Y-5089250D01*
X50340570Y-5089250D01*
X50400008Y-5674233D01*
X50572429Y-6236379D01*
X50840927Y-6738702D01*
X51243532Y-6996863D01*
X53160395Y-5080000D01*
X53519605Y-5080000D01*
X55436468Y-6996863D01*
X55839073Y-6738702D01*
X56114651Y-6219285D01*
X56283601Y-5656087D01*
X56339430Y-5070750D01*
X56279992Y-4485767D01*
X56107571Y-3923621D01*
X55839073Y-3421298D01*
X55436468Y-3163137D01*
X53519605Y-5080000D01*
X53160395Y-5080000D01*
X51243532Y-3163137D01*
X50840927Y-3421298D01*
X50565349Y-3940715D01*
X50396399Y-4503913D01*
X50340570Y-5089250D01*
X8077665Y-5089250D01*
X8079430Y-5070750D01*
X8019992Y-4485767D01*
X7847571Y-3923621D01*
X7579073Y-3421298D01*
X7176468Y-3163137D01*
X5259605Y-5080000D01*
X4900395Y-5080000D01*
X2983532Y-3163137D01*
X2580927Y-3421298D01*
X2305349Y-3940715D01*
X2136399Y-4503913D01*
X2080570Y-5089250D01*
X710000Y-5089250D01*
X710000Y-2983532D01*
X3163137Y-2983532D01*
X5080000Y-4900395D01*
X6996863Y-2983532D01*
X51423137Y-2983532D01*
X53340000Y-4900395D01*
X55256863Y-2983532D01*
X54998702Y-2580927D01*
X54479285Y-2305349D01*
X53916087Y-2136399D01*
X53330750Y-2080570D01*
X52745767Y-2140008D01*
X52183621Y-2312429D01*
X51681298Y-2580927D01*
X51423137Y-2983532D01*
X6996863Y-2983532D01*
X6738702Y-2580927D01*
X6219285Y-2305349D01*
X5656087Y-2136399D01*
X5070750Y-2080570D01*
X4485767Y-2140008D01*
X3923621Y-2312429D01*
X3421298Y-2580927D01*
X3163137Y-2983532D01*
X710000Y-2983532D01*
X710000Y-710000D01*
X57710000Y-710000D01*
X57710001Y-100890000D01*
G37*
G04 #@! TD.AperFunction*
M02*
