M48
; DRILL file {KiCad (5.1.9)-1} date 02/26/21 13:36:36
; FORMAT={-:-/ absolute / inch / decimal}
; #@! TF.CreationDate,2021-02-26T13:36:36+01:00
; #@! TF.GenerationSoftware,Kicad,Pcbnew,(5.1.9)-1
; #@! TF.FileFunction,Plated,1,2,PTH
FMAT,2
INCH
T1C0.0157
T2C0.0197
T3C0.0276
T4C0.0394
T5C0.1063
%
G90
G05
T1
X0.2Y-0.9
X0.2Y-1.05
X0.2Y-1.25
X0.2Y-1.6
X0.2Y-2.1
X0.2Y-2.75
X0.25Y-1.15
X0.25Y-1.65
X0.25Y-2.2
X0.25Y-2.65
X0.3Y-2.15
X0.3Y-2.55
X0.4766Y-1.5984
X0.575Y-1.35
X0.575Y-1.65
X0.65Y-0.9
X1.6266Y-1.5984
X1.725Y-1.35
X1.725Y-1.65
X1.8Y-0.9
X2.0Y-2.15
X2.0Y-2.55
X2.05Y-1.15
X2.05Y-1.65
X2.05Y-2.1
X2.05Y-2.65
X2.1Y-0.9
X2.1Y-1.05
X2.1Y-1.25
X2.1Y-1.6
X2.1Y-2.2
X2.1Y-2.75
T4
X0.1Y-1.05
X0.1Y-1.15
X0.1Y-1.25
X0.1Y-1.35
X0.1Y-1.45
X0.1Y-2.55
X0.1Y-2.65
X0.1Y-2.75
X0.1Y-2.85
X0.1Y-2.95
X0.1Y-3.05
X0.1Y-3.15
X0.4766Y-1.4953
X0.575Y-1.4953
X0.6734Y-1.4953
X1.6266Y-1.4953
X1.725Y-1.4953
X1.8234Y-1.4953
X2.2Y-1.05
X2.2Y-1.15
X2.2Y-1.25
X2.2Y-1.35
X2.2Y-1.45
X2.2Y-2.55
X2.2Y-2.65
X2.2Y-2.75
X2.2Y-2.85
X2.2Y-2.95
X2.2Y-3.075
X2.2Y-3.175
T5
X0.2Y-0.2
X0.2Y-3.8
X2.1Y-0.2
X2.1Y-3.8
T2
G00X0.3813Y-0.4197
M15
G01X0.3813Y-0.3803
M16
G05
G00X0.3813Y-2.8197
M15
G01X0.3813Y-2.7803
M16
G05
G00X0.3813Y-3.6197
M15
G01X0.3813Y-3.5803
M16
G05
G00X0.7081Y-0.4197
M15
G01X0.7081Y-0.3803
M16
G05
G00X0.7081Y-2.8197
M15
G01X0.7081Y-2.7803
M16
G05
G00X0.7081Y-3.6197
M15
G01X0.7081Y-3.5803
M16
G05
G00X0.8301Y-0.4197
M15
G01X0.8301Y-0.3803
M16
G05
G00X0.8301Y-2.8197
M15
G01X0.8301Y-2.7803
M16
G05
G00X0.8301Y-3.6197
M15
G01X0.8301Y-3.5803
M16
G05
G00X1.4699Y-0.3803
M15
G01X1.4699Y-0.4197
M16
G05
G00X1.4699Y-2.7803
M15
G01X1.4699Y-2.8197
M16
G05
G00X1.4699Y-3.5803
M15
G01X1.4699Y-3.6197
M16
G05
G00X1.5919Y-0.3803
M15
G01X1.5919Y-0.4197
M16
G05
G00X1.5919Y-2.7803
M15
G01X1.5919Y-2.8197
M16
G05
G00X1.5919Y-3.5803
M15
G01X1.5919Y-3.6197
M16
G05
G00X1.9187Y-0.3803
M15
G01X1.9187Y-0.4197
M16
G05
G00X1.9187Y-2.7803
M15
G01X1.9187Y-2.8197
M16
G05
G00X1.9187Y-3.5803
M15
G01X1.9187Y-3.6197
M16
G05
T3
G00X0.4766Y-2.0217
M15
G01X0.4766Y-1.9783
M16
G05
G00X0.575Y-2.0217
M15
G01X0.575Y-1.9783
M16
G05
G00X0.6734Y-2.0217
M15
G01X0.6734Y-1.9783
M16
G05
G00X1.6266Y-2.0217
M15
G01X1.6266Y-1.9783
M16
G05
G00X1.725Y-2.0217
M15
G01X1.725Y-1.9783
M16
G05
G00X1.8234Y-2.0217
M15
G01X1.8234Y-1.9783
M16
G05
T0
M30
