G04 #@! TF.GenerationSoftware,KiCad,Pcbnew,(5.1.9)-1*
G04 #@! TF.CreationDate,2021-04-27T02:11:01+02:00*
G04 #@! TF.ProjectId,Clock Divider Front,436c6f63-6b20-4446-9976-696465722046,rev?*
G04 #@! TF.SameCoordinates,Original*
G04 #@! TF.FileFunction,Copper,L2,Bot*
G04 #@! TF.FilePolarity,Positive*
%FSLAX46Y46*%
G04 Gerber Fmt 4.6, Leading zero omitted, Abs format (unit mm)*
G04 Created by KiCad (PCBNEW (5.1.9)-1) date 2021-04-27 02:11:01*
%MOMM*%
%LPD*%
G01*
G04 APERTURE LIST*
G04 #@! TA.AperFunction,NonConductor*
%ADD10C,0.254000*%
G04 #@! TD*
G04 #@! TA.AperFunction,NonConductor*
%ADD11C,0.100000*%
G04 #@! TD*
G04 APERTURE END LIST*
D10*
X39615001Y-127815000D02*
X685000Y-127815000D01*
X685000Y-125279872D01*
X5265000Y-125279872D01*
X5265000Y-125720128D01*
X5350890Y-126151925D01*
X5519369Y-126558669D01*
X5763962Y-126924729D01*
X6075271Y-127236038D01*
X6441331Y-127480631D01*
X6848075Y-127649110D01*
X7279872Y-127735000D01*
X7720128Y-127735000D01*
X8151925Y-127649110D01*
X8558669Y-127480631D01*
X8924729Y-127236038D01*
X9236038Y-126924729D01*
X9480631Y-126558669D01*
X9649110Y-126151925D01*
X9735000Y-125720128D01*
X9735000Y-125279872D01*
X9649110Y-124848075D01*
X9480631Y-124441331D01*
X9236038Y-124075271D01*
X8924729Y-123763962D01*
X8558669Y-123519369D01*
X8151925Y-123350890D01*
X7720128Y-123265000D01*
X7279872Y-123265000D01*
X6848075Y-123350890D01*
X6441331Y-123519369D01*
X6075271Y-123763962D01*
X5763962Y-124075271D01*
X5519369Y-124441331D01*
X5350890Y-124848075D01*
X5265000Y-125279872D01*
X685000Y-125279872D01*
X685000Y-111473628D01*
X4400000Y-111473628D01*
X4409912Y-111574264D01*
X4449081Y-111703387D01*
X4512688Y-111822388D01*
X4598289Y-111926692D01*
X4625351Y-111948902D01*
X4883356Y-112205110D01*
X4918527Y-112233795D01*
X4951820Y-112264631D01*
X4959477Y-112270361D01*
X5597663Y-112740982D01*
X5651005Y-112772788D01*
X5703864Y-112805315D01*
X5712486Y-112809446D01*
X5712490Y-112809449D01*
X5712495Y-112809451D01*
X6429932Y-113147148D01*
X6488366Y-113167963D01*
X6546606Y-113189629D01*
X6555869Y-113192008D01*
X7325241Y-113383924D01*
X7386649Y-113392999D01*
X7447945Y-113402933D01*
X7457494Y-113403469D01*
X8249490Y-113442291D01*
X8311512Y-113439264D01*
X8373548Y-113437104D01*
X8383019Y-113435775D01*
X9167474Y-113320025D01*
X9227716Y-113305012D01*
X9288162Y-113290841D01*
X9297194Y-113287697D01*
X10044225Y-113021784D01*
X10100420Y-112995348D01*
X10156947Y-112969714D01*
X10165197Y-112964875D01*
X10846351Y-112558927D01*
X10896345Y-112522077D01*
X10946811Y-112485955D01*
X10953964Y-112479606D01*
X11531662Y-111959560D01*
X11571710Y-111926693D01*
X11657312Y-111822389D01*
X11720919Y-111703388D01*
X11760088Y-111574265D01*
X11770000Y-111473629D01*
X11770000Y-111473628D01*
X29165000Y-111473628D01*
X29174912Y-111574264D01*
X29214081Y-111703387D01*
X29277688Y-111822388D01*
X29363289Y-111926692D01*
X29390351Y-111948902D01*
X29648356Y-112205110D01*
X29683527Y-112233795D01*
X29716820Y-112264631D01*
X29724477Y-112270361D01*
X30362663Y-112740982D01*
X30416005Y-112772788D01*
X30468864Y-112805315D01*
X30477486Y-112809446D01*
X30477490Y-112809449D01*
X30477495Y-112809451D01*
X31194932Y-113147148D01*
X31253366Y-113167963D01*
X31311606Y-113189629D01*
X31320869Y-113192008D01*
X32090241Y-113383924D01*
X32151649Y-113392999D01*
X32212945Y-113402933D01*
X32222494Y-113403469D01*
X33014490Y-113442291D01*
X33076512Y-113439264D01*
X33138548Y-113437104D01*
X33148019Y-113435775D01*
X33932474Y-113320025D01*
X33992716Y-113305012D01*
X34053162Y-113290841D01*
X34062194Y-113287697D01*
X34809225Y-113021784D01*
X34865420Y-112995348D01*
X34921947Y-112969714D01*
X34930197Y-112964875D01*
X35611351Y-112558927D01*
X35661345Y-112522077D01*
X35711811Y-112485955D01*
X35718964Y-112479606D01*
X36296662Y-111959560D01*
X36336710Y-111926693D01*
X36422312Y-111822389D01*
X36485919Y-111703388D01*
X36525088Y-111574265D01*
X36535000Y-111473629D01*
X36535000Y-105926371D01*
X36525088Y-105825735D01*
X36485919Y-105696612D01*
X36422312Y-105577611D01*
X36336711Y-105473307D01*
X36309640Y-105451090D01*
X36051644Y-105194889D01*
X36016470Y-105166202D01*
X35983181Y-105135369D01*
X35975523Y-105129639D01*
X35337337Y-104659019D01*
X35284037Y-104627238D01*
X35231137Y-104594686D01*
X35222512Y-104590552D01*
X34505068Y-104252852D01*
X34446623Y-104232034D01*
X34388394Y-104210371D01*
X34379131Y-104207992D01*
X33609759Y-104016076D01*
X33548351Y-104007001D01*
X33487055Y-103997067D01*
X33477506Y-103996531D01*
X32685510Y-103957709D01*
X32623488Y-103960736D01*
X32561452Y-103962896D01*
X32551981Y-103964225D01*
X31767527Y-104079975D01*
X31707293Y-104094986D01*
X31646838Y-104109159D01*
X31637806Y-104112303D01*
X30890775Y-104378216D01*
X30834580Y-104404652D01*
X30778053Y-104430286D01*
X30769803Y-104435125D01*
X30088649Y-104841073D01*
X30038677Y-104877907D01*
X29988189Y-104914045D01*
X29981036Y-104920394D01*
X29403338Y-105440440D01*
X29363290Y-105473307D01*
X29277689Y-105577611D01*
X29214082Y-105696612D01*
X29174913Y-105825735D01*
X29165001Y-105926371D01*
X29165000Y-111473628D01*
X11770000Y-111473628D01*
X11770000Y-108489721D01*
X18015000Y-108489721D01*
X18015000Y-108910279D01*
X18097047Y-109322756D01*
X18257988Y-109711302D01*
X18491637Y-110060983D01*
X18789017Y-110358363D01*
X19138698Y-110592012D01*
X19527244Y-110752953D01*
X19939721Y-110835000D01*
X20360279Y-110835000D01*
X20772756Y-110752953D01*
X21161302Y-110592012D01*
X21510983Y-110358363D01*
X21808363Y-110060983D01*
X22042012Y-109711302D01*
X22202953Y-109322756D01*
X22285000Y-108910279D01*
X22285000Y-108489721D01*
X22202953Y-108077244D01*
X22042012Y-107688698D01*
X21808363Y-107339017D01*
X21510983Y-107041637D01*
X21161302Y-106807988D01*
X20772756Y-106647047D01*
X20360279Y-106565000D01*
X19939721Y-106565000D01*
X19527244Y-106647047D01*
X19138698Y-106807988D01*
X18789017Y-107041637D01*
X18491637Y-107339017D01*
X18257988Y-107688698D01*
X18097047Y-108077244D01*
X18015000Y-108489721D01*
X11770000Y-108489721D01*
X11770000Y-105926371D01*
X11760088Y-105825735D01*
X11720919Y-105696612D01*
X11657312Y-105577611D01*
X11571711Y-105473307D01*
X11544640Y-105451090D01*
X11286644Y-105194889D01*
X11251470Y-105166202D01*
X11218181Y-105135369D01*
X11210523Y-105129639D01*
X10572337Y-104659019D01*
X10519037Y-104627238D01*
X10466137Y-104594686D01*
X10457512Y-104590552D01*
X9740068Y-104252852D01*
X9681623Y-104232034D01*
X9623394Y-104210371D01*
X9614131Y-104207992D01*
X8844759Y-104016076D01*
X8783351Y-104007001D01*
X8722055Y-103997067D01*
X8712506Y-103996531D01*
X7920510Y-103957709D01*
X7858488Y-103960736D01*
X7796452Y-103962896D01*
X7786981Y-103964225D01*
X7002527Y-104079975D01*
X6942293Y-104094986D01*
X6881838Y-104109159D01*
X6872806Y-104112303D01*
X6125775Y-104378216D01*
X6069580Y-104404652D01*
X6013053Y-104430286D01*
X6004803Y-104435125D01*
X5323649Y-104841073D01*
X5273677Y-104877907D01*
X5223189Y-104914045D01*
X5216036Y-104920394D01*
X4638338Y-105440440D01*
X4598290Y-105473307D01*
X4512689Y-105577611D01*
X4449082Y-105696612D01*
X4409913Y-105825735D01*
X4400001Y-105926371D01*
X4400000Y-111473628D01*
X685000Y-111473628D01*
X685000Y-93693628D01*
X29165000Y-93693628D01*
X29174912Y-93794264D01*
X29214081Y-93923387D01*
X29277688Y-94042388D01*
X29363289Y-94146692D01*
X29390351Y-94168902D01*
X29648356Y-94425110D01*
X29683527Y-94453795D01*
X29716820Y-94484631D01*
X29724477Y-94490361D01*
X30362663Y-94960982D01*
X30416005Y-94992788D01*
X30468864Y-95025315D01*
X30477486Y-95029446D01*
X30477490Y-95029449D01*
X30477495Y-95029451D01*
X31194932Y-95367148D01*
X31253366Y-95387963D01*
X31311606Y-95409629D01*
X31320869Y-95412008D01*
X32090241Y-95603924D01*
X32151649Y-95612999D01*
X32212945Y-95622933D01*
X32222494Y-95623469D01*
X33014490Y-95662291D01*
X33076512Y-95659264D01*
X33138548Y-95657104D01*
X33148019Y-95655775D01*
X33932474Y-95540025D01*
X33992716Y-95525012D01*
X34053162Y-95510841D01*
X34062194Y-95507697D01*
X34809225Y-95241784D01*
X34865420Y-95215348D01*
X34921947Y-95189714D01*
X34930197Y-95184875D01*
X35611351Y-94778927D01*
X35661345Y-94742077D01*
X35711811Y-94705955D01*
X35718964Y-94699606D01*
X36296662Y-94179560D01*
X36336710Y-94146693D01*
X36422312Y-94042389D01*
X36485919Y-93923388D01*
X36525088Y-93794265D01*
X36535000Y-93693629D01*
X36535000Y-88146371D01*
X36525088Y-88045735D01*
X36485919Y-87916612D01*
X36422312Y-87797611D01*
X36336711Y-87693307D01*
X36309640Y-87671090D01*
X36051644Y-87414889D01*
X36016470Y-87386202D01*
X35983181Y-87355369D01*
X35975523Y-87349639D01*
X35337337Y-86879019D01*
X35284037Y-86847238D01*
X35231137Y-86814686D01*
X35222512Y-86810552D01*
X34505068Y-86472852D01*
X34446623Y-86452034D01*
X34388394Y-86430371D01*
X34379131Y-86427992D01*
X33609759Y-86236076D01*
X33548351Y-86227001D01*
X33487055Y-86217067D01*
X33477506Y-86216531D01*
X32685510Y-86177709D01*
X32623488Y-86180736D01*
X32561452Y-86182896D01*
X32551981Y-86184225D01*
X31767527Y-86299975D01*
X31707293Y-86314986D01*
X31646838Y-86329159D01*
X31637806Y-86332303D01*
X30890775Y-86598216D01*
X30834580Y-86624652D01*
X30778053Y-86650286D01*
X30769803Y-86655125D01*
X30088649Y-87061073D01*
X30038677Y-87097907D01*
X29988189Y-87134045D01*
X29981036Y-87140394D01*
X29403338Y-87660440D01*
X29363290Y-87693307D01*
X29277689Y-87797611D01*
X29214082Y-87916612D01*
X29174913Y-88045735D01*
X29165001Y-88146371D01*
X29165000Y-93693628D01*
X685000Y-93693628D01*
X685000Y-90709721D01*
X18015000Y-90709721D01*
X18015000Y-91130279D01*
X18097047Y-91542756D01*
X18257988Y-91931302D01*
X18491637Y-92280983D01*
X18789017Y-92578363D01*
X19138698Y-92812012D01*
X19527244Y-92972953D01*
X19939721Y-93055000D01*
X20360279Y-93055000D01*
X20772756Y-92972953D01*
X21161302Y-92812012D01*
X21510983Y-92578363D01*
X21808363Y-92280983D01*
X22042012Y-91931302D01*
X22202953Y-91542756D01*
X22285000Y-91130279D01*
X22285000Y-90709721D01*
X22202953Y-90297244D01*
X22042012Y-89908698D01*
X21808363Y-89559017D01*
X21510983Y-89261637D01*
X21161302Y-89027988D01*
X20772756Y-88867047D01*
X20360279Y-88785000D01*
X19939721Y-88785000D01*
X19527244Y-88867047D01*
X19138698Y-89027988D01*
X18789017Y-89261637D01*
X18491637Y-89559017D01*
X18257988Y-89908698D01*
X18097047Y-90297244D01*
X18015000Y-90709721D01*
X685000Y-90709721D01*
X685000Y-75913628D01*
X29165000Y-75913628D01*
X29174912Y-76014264D01*
X29214081Y-76143387D01*
X29277688Y-76262388D01*
X29363289Y-76366692D01*
X29390351Y-76388902D01*
X29648356Y-76645110D01*
X29683527Y-76673795D01*
X29716820Y-76704631D01*
X29724477Y-76710361D01*
X30362663Y-77180982D01*
X30416005Y-77212788D01*
X30468864Y-77245315D01*
X30477486Y-77249446D01*
X30477490Y-77249449D01*
X30477495Y-77249451D01*
X31194932Y-77587148D01*
X31253366Y-77607963D01*
X31311606Y-77629629D01*
X31320869Y-77632008D01*
X32090241Y-77823924D01*
X32151649Y-77832999D01*
X32212945Y-77842933D01*
X32222494Y-77843469D01*
X33014490Y-77882291D01*
X33076512Y-77879264D01*
X33138548Y-77877104D01*
X33148019Y-77875775D01*
X33932474Y-77760025D01*
X33992716Y-77745012D01*
X34053162Y-77730841D01*
X34062194Y-77727697D01*
X34809225Y-77461784D01*
X34865420Y-77435348D01*
X34921947Y-77409714D01*
X34930197Y-77404875D01*
X35611351Y-76998927D01*
X35661345Y-76962077D01*
X35711811Y-76925955D01*
X35718964Y-76919606D01*
X36296662Y-76399560D01*
X36336710Y-76366693D01*
X36422312Y-76262389D01*
X36485919Y-76143388D01*
X36525088Y-76014265D01*
X36535000Y-75913629D01*
X36535000Y-70366371D01*
X36525088Y-70265735D01*
X36485919Y-70136612D01*
X36422312Y-70017611D01*
X36336711Y-69913307D01*
X36309640Y-69891090D01*
X36051644Y-69634889D01*
X36016470Y-69606202D01*
X35983181Y-69575369D01*
X35975523Y-69569639D01*
X35337337Y-69099019D01*
X35284037Y-69067238D01*
X35231137Y-69034686D01*
X35222512Y-69030552D01*
X34505068Y-68692852D01*
X34446623Y-68672034D01*
X34388394Y-68650371D01*
X34379131Y-68647992D01*
X33609759Y-68456076D01*
X33548351Y-68447001D01*
X33487055Y-68437067D01*
X33477506Y-68436531D01*
X32685510Y-68397709D01*
X32623488Y-68400736D01*
X32561452Y-68402896D01*
X32551981Y-68404225D01*
X31767527Y-68519975D01*
X31707293Y-68534986D01*
X31646838Y-68549159D01*
X31637806Y-68552303D01*
X30890775Y-68818216D01*
X30834580Y-68844652D01*
X30778053Y-68870286D01*
X30769803Y-68875125D01*
X30088649Y-69281073D01*
X30038677Y-69317907D01*
X29988189Y-69354045D01*
X29981036Y-69360394D01*
X29403338Y-69880440D01*
X29363290Y-69913307D01*
X29277689Y-70017611D01*
X29214082Y-70136612D01*
X29174913Y-70265735D01*
X29165001Y-70366371D01*
X29165000Y-75913628D01*
X685000Y-75913628D01*
X685000Y-72929721D01*
X18015000Y-72929721D01*
X18015000Y-73350279D01*
X18097047Y-73762756D01*
X18257988Y-74151302D01*
X18491637Y-74500983D01*
X18789017Y-74798363D01*
X19138698Y-75032012D01*
X19527244Y-75192953D01*
X19939721Y-75275000D01*
X20360279Y-75275000D01*
X20772756Y-75192953D01*
X21161302Y-75032012D01*
X21510983Y-74798363D01*
X21808363Y-74500983D01*
X22042012Y-74151302D01*
X22202953Y-73762756D01*
X22285000Y-73350279D01*
X22285000Y-72929721D01*
X22202953Y-72517244D01*
X22042012Y-72128698D01*
X21808363Y-71779017D01*
X21510983Y-71481637D01*
X21161302Y-71247988D01*
X20772756Y-71087047D01*
X20360279Y-71005000D01*
X19939721Y-71005000D01*
X19527244Y-71087047D01*
X19138698Y-71247988D01*
X18789017Y-71481637D01*
X18491637Y-71779017D01*
X18257988Y-72128698D01*
X18097047Y-72517244D01*
X18015000Y-72929721D01*
X685000Y-72929721D01*
X685000Y-58133628D01*
X29165000Y-58133628D01*
X29174912Y-58234264D01*
X29214081Y-58363387D01*
X29277688Y-58482388D01*
X29363289Y-58586692D01*
X29390351Y-58608902D01*
X29648356Y-58865110D01*
X29683527Y-58893795D01*
X29716820Y-58924631D01*
X29724477Y-58930361D01*
X30362663Y-59400982D01*
X30416005Y-59432788D01*
X30468864Y-59465315D01*
X30477486Y-59469446D01*
X30477490Y-59469449D01*
X30477495Y-59469451D01*
X31194932Y-59807148D01*
X31253366Y-59827963D01*
X31311606Y-59849629D01*
X31320869Y-59852008D01*
X32090241Y-60043924D01*
X32151649Y-60052999D01*
X32212945Y-60062933D01*
X32222494Y-60063469D01*
X33014490Y-60102291D01*
X33076512Y-60099264D01*
X33138548Y-60097104D01*
X33148019Y-60095775D01*
X33932474Y-59980025D01*
X33992716Y-59965012D01*
X34053162Y-59950841D01*
X34062194Y-59947697D01*
X34809225Y-59681784D01*
X34865420Y-59655348D01*
X34921947Y-59629714D01*
X34930197Y-59624875D01*
X35611351Y-59218927D01*
X35661345Y-59182077D01*
X35711811Y-59145955D01*
X35718964Y-59139606D01*
X36296662Y-58619560D01*
X36336710Y-58586693D01*
X36422312Y-58482389D01*
X36485919Y-58363388D01*
X36525088Y-58234265D01*
X36535000Y-58133629D01*
X36535000Y-52586371D01*
X36525088Y-52485735D01*
X36485919Y-52356612D01*
X36422312Y-52237611D01*
X36336711Y-52133307D01*
X36309640Y-52111090D01*
X36051644Y-51854889D01*
X36016470Y-51826202D01*
X35983181Y-51795369D01*
X35975523Y-51789639D01*
X35337337Y-51319019D01*
X35284037Y-51287238D01*
X35231137Y-51254686D01*
X35222512Y-51250552D01*
X34505068Y-50912852D01*
X34446623Y-50892034D01*
X34388394Y-50870371D01*
X34379131Y-50867992D01*
X33609759Y-50676076D01*
X33548351Y-50667001D01*
X33487055Y-50657067D01*
X33477506Y-50656531D01*
X32685510Y-50617709D01*
X32623488Y-50620736D01*
X32561452Y-50622896D01*
X32551981Y-50624225D01*
X31767527Y-50739975D01*
X31707293Y-50754986D01*
X31646838Y-50769159D01*
X31637806Y-50772303D01*
X30890775Y-51038216D01*
X30834580Y-51064652D01*
X30778053Y-51090286D01*
X30769803Y-51095125D01*
X30088649Y-51501073D01*
X30038677Y-51537907D01*
X29988189Y-51574045D01*
X29981036Y-51580394D01*
X29403338Y-52100440D01*
X29363290Y-52133307D01*
X29277689Y-52237611D01*
X29214082Y-52356612D01*
X29174913Y-52485735D01*
X29165001Y-52586371D01*
X29165000Y-58133628D01*
X685000Y-58133628D01*
X685000Y-55149721D01*
X18015000Y-55149721D01*
X18015000Y-55570279D01*
X18097047Y-55982756D01*
X18257988Y-56371302D01*
X18491637Y-56720983D01*
X18789017Y-57018363D01*
X19138698Y-57252012D01*
X19527244Y-57412953D01*
X19939721Y-57495000D01*
X20360279Y-57495000D01*
X20772756Y-57412953D01*
X21161302Y-57252012D01*
X21510983Y-57018363D01*
X21808363Y-56720983D01*
X22042012Y-56371302D01*
X22202953Y-55982756D01*
X22285000Y-55570279D01*
X22285000Y-55149721D01*
X22202953Y-54737244D01*
X22042012Y-54348698D01*
X21808363Y-53999017D01*
X21510983Y-53701637D01*
X21161302Y-53467988D01*
X20772756Y-53307047D01*
X20360279Y-53225000D01*
X19939721Y-53225000D01*
X19527244Y-53307047D01*
X19138698Y-53467988D01*
X18789017Y-53701637D01*
X18491637Y-53999017D01*
X18257988Y-54348698D01*
X18097047Y-54737244D01*
X18015000Y-55149721D01*
X685000Y-55149721D01*
X685000Y-40353628D01*
X29165000Y-40353628D01*
X29174912Y-40454264D01*
X29214081Y-40583387D01*
X29277688Y-40702388D01*
X29363289Y-40806692D01*
X29390351Y-40828902D01*
X29648356Y-41085110D01*
X29683527Y-41113795D01*
X29716820Y-41144631D01*
X29724477Y-41150361D01*
X30362663Y-41620982D01*
X30416005Y-41652788D01*
X30468864Y-41685315D01*
X30477486Y-41689446D01*
X30477490Y-41689449D01*
X30477495Y-41689451D01*
X31194932Y-42027148D01*
X31253366Y-42047963D01*
X31311606Y-42069629D01*
X31320869Y-42072008D01*
X32090241Y-42263924D01*
X32151649Y-42272999D01*
X32212945Y-42282933D01*
X32222494Y-42283469D01*
X33014490Y-42322291D01*
X33076512Y-42319264D01*
X33138548Y-42317104D01*
X33148019Y-42315775D01*
X33932474Y-42200025D01*
X33992716Y-42185012D01*
X34053162Y-42170841D01*
X34062194Y-42167697D01*
X34809225Y-41901784D01*
X34865420Y-41875348D01*
X34921947Y-41849714D01*
X34930197Y-41844875D01*
X35611351Y-41438927D01*
X35661345Y-41402077D01*
X35711811Y-41365955D01*
X35718964Y-41359606D01*
X36296662Y-40839560D01*
X36336710Y-40806693D01*
X36422312Y-40702389D01*
X36485919Y-40583388D01*
X36525088Y-40454265D01*
X36535000Y-40353629D01*
X36535000Y-34806371D01*
X36525088Y-34705735D01*
X36485919Y-34576612D01*
X36422312Y-34457611D01*
X36336711Y-34353307D01*
X36309640Y-34331090D01*
X36051644Y-34074889D01*
X36016470Y-34046202D01*
X35983181Y-34015369D01*
X35975523Y-34009639D01*
X35337337Y-33539019D01*
X35284037Y-33507238D01*
X35231137Y-33474686D01*
X35222512Y-33470552D01*
X34505068Y-33132852D01*
X34446623Y-33112034D01*
X34388394Y-33090371D01*
X34379131Y-33087992D01*
X33609759Y-32896076D01*
X33548351Y-32887001D01*
X33487055Y-32877067D01*
X33477506Y-32876531D01*
X32685510Y-32837709D01*
X32623488Y-32840736D01*
X32561452Y-32842896D01*
X32551981Y-32844225D01*
X31767527Y-32959975D01*
X31707293Y-32974986D01*
X31646838Y-32989159D01*
X31637806Y-32992303D01*
X30890775Y-33258216D01*
X30834580Y-33284652D01*
X30778053Y-33310286D01*
X30769803Y-33315125D01*
X30088649Y-33721073D01*
X30038677Y-33757907D01*
X29988189Y-33794045D01*
X29981036Y-33800394D01*
X29403338Y-34320440D01*
X29363290Y-34353307D01*
X29277689Y-34457611D01*
X29214082Y-34576612D01*
X29174913Y-34705735D01*
X29165001Y-34806371D01*
X29165000Y-40353628D01*
X685000Y-40353628D01*
X685000Y-37369721D01*
X18015000Y-37369721D01*
X18015000Y-37790279D01*
X18097047Y-38202756D01*
X18257988Y-38591302D01*
X18491637Y-38940983D01*
X18789017Y-39238363D01*
X19138698Y-39472012D01*
X19527244Y-39632953D01*
X19939721Y-39715000D01*
X20360279Y-39715000D01*
X20772756Y-39632953D01*
X21161302Y-39472012D01*
X21510983Y-39238363D01*
X21808363Y-38940983D01*
X22042012Y-38591302D01*
X22202953Y-38202756D01*
X22285000Y-37790279D01*
X22285000Y-37369721D01*
X22202953Y-36957244D01*
X22042012Y-36568698D01*
X21808363Y-36219017D01*
X21510983Y-35921637D01*
X21161302Y-35687988D01*
X20772756Y-35527047D01*
X20360279Y-35445000D01*
X19939721Y-35445000D01*
X19527244Y-35527047D01*
X19138698Y-35687988D01*
X18789017Y-35921637D01*
X18491637Y-36219017D01*
X18257988Y-36568698D01*
X18097047Y-36957244D01*
X18015000Y-37369721D01*
X685000Y-37369721D01*
X685000Y-22573628D01*
X4400000Y-22573628D01*
X4409912Y-22674264D01*
X4449081Y-22803387D01*
X4512688Y-22922388D01*
X4598289Y-23026692D01*
X4625351Y-23048902D01*
X4883356Y-23305110D01*
X4918527Y-23333795D01*
X4951820Y-23364631D01*
X4959477Y-23370361D01*
X5597663Y-23840982D01*
X5651005Y-23872788D01*
X5703864Y-23905315D01*
X5712486Y-23909446D01*
X5712490Y-23909449D01*
X5712495Y-23909451D01*
X6429932Y-24247148D01*
X6488366Y-24267963D01*
X6546606Y-24289629D01*
X6555869Y-24292008D01*
X7325241Y-24483924D01*
X7386649Y-24492999D01*
X7447945Y-24502933D01*
X7457494Y-24503469D01*
X8249490Y-24542291D01*
X8311512Y-24539264D01*
X8373548Y-24537104D01*
X8383019Y-24535775D01*
X9167474Y-24420025D01*
X9227716Y-24405012D01*
X9288162Y-24390841D01*
X9297194Y-24387697D01*
X10044225Y-24121784D01*
X10100420Y-24095348D01*
X10156947Y-24069714D01*
X10165197Y-24064875D01*
X10846351Y-23658927D01*
X10896345Y-23622077D01*
X10946811Y-23585955D01*
X10953964Y-23579606D01*
X11531662Y-23059560D01*
X11571710Y-23026693D01*
X11657312Y-22922389D01*
X11720919Y-22803388D01*
X11760088Y-22674265D01*
X11770000Y-22573629D01*
X11770000Y-22573628D01*
X29165000Y-22573628D01*
X29174912Y-22674264D01*
X29214081Y-22803387D01*
X29277688Y-22922388D01*
X29363289Y-23026692D01*
X29390351Y-23048902D01*
X29648356Y-23305110D01*
X29683527Y-23333795D01*
X29716820Y-23364631D01*
X29724477Y-23370361D01*
X30362663Y-23840982D01*
X30416005Y-23872788D01*
X30468864Y-23905315D01*
X30477486Y-23909446D01*
X30477490Y-23909449D01*
X30477495Y-23909451D01*
X31194932Y-24247148D01*
X31253366Y-24267963D01*
X31311606Y-24289629D01*
X31320869Y-24292008D01*
X32090241Y-24483924D01*
X32151649Y-24492999D01*
X32212945Y-24502933D01*
X32222494Y-24503469D01*
X33014490Y-24542291D01*
X33076512Y-24539264D01*
X33138548Y-24537104D01*
X33148019Y-24535775D01*
X33932474Y-24420025D01*
X33992716Y-24405012D01*
X34053162Y-24390841D01*
X34062194Y-24387697D01*
X34809225Y-24121784D01*
X34865420Y-24095348D01*
X34921947Y-24069714D01*
X34930197Y-24064875D01*
X35611351Y-23658927D01*
X35661345Y-23622077D01*
X35711811Y-23585955D01*
X35718964Y-23579606D01*
X36296662Y-23059560D01*
X36336710Y-23026693D01*
X36422312Y-22922389D01*
X36485919Y-22803388D01*
X36525088Y-22674265D01*
X36535000Y-22573629D01*
X36535000Y-17026371D01*
X36525088Y-16925735D01*
X36485919Y-16796612D01*
X36422312Y-16677611D01*
X36336711Y-16573307D01*
X36309640Y-16551090D01*
X36051644Y-16294889D01*
X36016470Y-16266202D01*
X35983181Y-16235369D01*
X35975523Y-16229639D01*
X35337337Y-15759019D01*
X35284037Y-15727238D01*
X35231137Y-15694686D01*
X35222512Y-15690552D01*
X34505068Y-15352852D01*
X34446623Y-15332034D01*
X34388394Y-15310371D01*
X34379131Y-15307992D01*
X33609759Y-15116076D01*
X33548351Y-15107001D01*
X33487055Y-15097067D01*
X33477506Y-15096531D01*
X32685510Y-15057709D01*
X32623488Y-15060736D01*
X32561452Y-15062896D01*
X32551981Y-15064225D01*
X31767527Y-15179975D01*
X31707293Y-15194986D01*
X31646838Y-15209159D01*
X31637806Y-15212303D01*
X30890775Y-15478216D01*
X30834580Y-15504652D01*
X30778053Y-15530286D01*
X30769803Y-15535125D01*
X30088649Y-15941073D01*
X30038677Y-15977907D01*
X29988189Y-16014045D01*
X29981036Y-16020394D01*
X29403338Y-16540440D01*
X29363290Y-16573307D01*
X29277689Y-16677611D01*
X29214082Y-16796612D01*
X29174913Y-16925735D01*
X29165001Y-17026371D01*
X29165000Y-22573628D01*
X11770000Y-22573628D01*
X11770000Y-19589721D01*
X18015000Y-19589721D01*
X18015000Y-20010279D01*
X18097047Y-20422756D01*
X18257988Y-20811302D01*
X18491637Y-21160983D01*
X18789017Y-21458363D01*
X19138698Y-21692012D01*
X19527244Y-21852953D01*
X19939721Y-21935000D01*
X20360279Y-21935000D01*
X20772756Y-21852953D01*
X21161302Y-21692012D01*
X21510983Y-21458363D01*
X21808363Y-21160983D01*
X22042012Y-20811302D01*
X22202953Y-20422756D01*
X22285000Y-20010279D01*
X22285000Y-19589721D01*
X22202953Y-19177244D01*
X22042012Y-18788698D01*
X21808363Y-18439017D01*
X21510983Y-18141637D01*
X21161302Y-17907988D01*
X20772756Y-17747047D01*
X20360279Y-17665000D01*
X19939721Y-17665000D01*
X19527244Y-17747047D01*
X19138698Y-17907988D01*
X18789017Y-18141637D01*
X18491637Y-18439017D01*
X18257988Y-18788698D01*
X18097047Y-19177244D01*
X18015000Y-19589721D01*
X11770000Y-19589721D01*
X11770000Y-17026371D01*
X11760088Y-16925735D01*
X11720919Y-16796612D01*
X11657312Y-16677611D01*
X11571711Y-16573307D01*
X11544640Y-16551090D01*
X11286644Y-16294889D01*
X11251470Y-16266202D01*
X11218181Y-16235369D01*
X11210523Y-16229639D01*
X10572337Y-15759019D01*
X10519037Y-15727238D01*
X10466137Y-15694686D01*
X10457512Y-15690552D01*
X9740068Y-15352852D01*
X9681623Y-15332034D01*
X9623394Y-15310371D01*
X9614131Y-15307992D01*
X8844759Y-15116076D01*
X8783351Y-15107001D01*
X8722055Y-15097067D01*
X8712506Y-15096531D01*
X7920510Y-15057709D01*
X7858488Y-15060736D01*
X7796452Y-15062896D01*
X7786981Y-15064225D01*
X7002527Y-15179975D01*
X6942293Y-15194986D01*
X6881838Y-15209159D01*
X6872806Y-15212303D01*
X6125775Y-15478216D01*
X6069580Y-15504652D01*
X6013053Y-15530286D01*
X6004803Y-15535125D01*
X5323649Y-15941073D01*
X5273677Y-15977907D01*
X5223189Y-16014045D01*
X5216036Y-16020394D01*
X4638338Y-16540440D01*
X4598290Y-16573307D01*
X4512689Y-16677611D01*
X4449082Y-16796612D01*
X4409913Y-16925735D01*
X4400001Y-17026371D01*
X4400000Y-22573628D01*
X685000Y-22573628D01*
X685000Y-2779872D01*
X5265000Y-2779872D01*
X5265000Y-3220128D01*
X5350890Y-3651925D01*
X5519369Y-4058669D01*
X5763962Y-4424729D01*
X6075271Y-4736038D01*
X6441331Y-4980631D01*
X6848075Y-5149110D01*
X7279872Y-5235000D01*
X7720128Y-5235000D01*
X8151925Y-5149110D01*
X8558669Y-4980631D01*
X8924729Y-4736038D01*
X9236038Y-4424729D01*
X9480631Y-4058669D01*
X9649110Y-3651925D01*
X9735000Y-3220128D01*
X9735000Y-2779872D01*
X9649110Y-2348075D01*
X9480631Y-1941331D01*
X9236038Y-1575271D01*
X8924729Y-1263962D01*
X8558669Y-1019369D01*
X8151925Y-850890D01*
X7720128Y-765000D01*
X7279872Y-765000D01*
X6848075Y-850890D01*
X6441331Y-1019369D01*
X6075271Y-1263962D01*
X5763962Y-1575271D01*
X5519369Y-1941331D01*
X5350890Y-2348075D01*
X5265000Y-2779872D01*
X685000Y-2779872D01*
X685000Y-685000D01*
X39615000Y-685000D01*
X39615001Y-127815000D01*
G04 #@! TA.AperFunction,NonConductor*
D11*
G36*
X39615001Y-127815000D02*
G01*
X685000Y-127815000D01*
X685000Y-125279872D01*
X5265000Y-125279872D01*
X5265000Y-125720128D01*
X5350890Y-126151925D01*
X5519369Y-126558669D01*
X5763962Y-126924729D01*
X6075271Y-127236038D01*
X6441331Y-127480631D01*
X6848075Y-127649110D01*
X7279872Y-127735000D01*
X7720128Y-127735000D01*
X8151925Y-127649110D01*
X8558669Y-127480631D01*
X8924729Y-127236038D01*
X9236038Y-126924729D01*
X9480631Y-126558669D01*
X9649110Y-126151925D01*
X9735000Y-125720128D01*
X9735000Y-125279872D01*
X9649110Y-124848075D01*
X9480631Y-124441331D01*
X9236038Y-124075271D01*
X8924729Y-123763962D01*
X8558669Y-123519369D01*
X8151925Y-123350890D01*
X7720128Y-123265000D01*
X7279872Y-123265000D01*
X6848075Y-123350890D01*
X6441331Y-123519369D01*
X6075271Y-123763962D01*
X5763962Y-124075271D01*
X5519369Y-124441331D01*
X5350890Y-124848075D01*
X5265000Y-125279872D01*
X685000Y-125279872D01*
X685000Y-111473628D01*
X4400000Y-111473628D01*
X4409912Y-111574264D01*
X4449081Y-111703387D01*
X4512688Y-111822388D01*
X4598289Y-111926692D01*
X4625351Y-111948902D01*
X4883356Y-112205110D01*
X4918527Y-112233795D01*
X4951820Y-112264631D01*
X4959477Y-112270361D01*
X5597663Y-112740982D01*
X5651005Y-112772788D01*
X5703864Y-112805315D01*
X5712486Y-112809446D01*
X5712490Y-112809449D01*
X5712495Y-112809451D01*
X6429932Y-113147148D01*
X6488366Y-113167963D01*
X6546606Y-113189629D01*
X6555869Y-113192008D01*
X7325241Y-113383924D01*
X7386649Y-113392999D01*
X7447945Y-113402933D01*
X7457494Y-113403469D01*
X8249490Y-113442291D01*
X8311512Y-113439264D01*
X8373548Y-113437104D01*
X8383019Y-113435775D01*
X9167474Y-113320025D01*
X9227716Y-113305012D01*
X9288162Y-113290841D01*
X9297194Y-113287697D01*
X10044225Y-113021784D01*
X10100420Y-112995348D01*
X10156947Y-112969714D01*
X10165197Y-112964875D01*
X10846351Y-112558927D01*
X10896345Y-112522077D01*
X10946811Y-112485955D01*
X10953964Y-112479606D01*
X11531662Y-111959560D01*
X11571710Y-111926693D01*
X11657312Y-111822389D01*
X11720919Y-111703388D01*
X11760088Y-111574265D01*
X11770000Y-111473629D01*
X11770000Y-111473628D01*
X29165000Y-111473628D01*
X29174912Y-111574264D01*
X29214081Y-111703387D01*
X29277688Y-111822388D01*
X29363289Y-111926692D01*
X29390351Y-111948902D01*
X29648356Y-112205110D01*
X29683527Y-112233795D01*
X29716820Y-112264631D01*
X29724477Y-112270361D01*
X30362663Y-112740982D01*
X30416005Y-112772788D01*
X30468864Y-112805315D01*
X30477486Y-112809446D01*
X30477490Y-112809449D01*
X30477495Y-112809451D01*
X31194932Y-113147148D01*
X31253366Y-113167963D01*
X31311606Y-113189629D01*
X31320869Y-113192008D01*
X32090241Y-113383924D01*
X32151649Y-113392999D01*
X32212945Y-113402933D01*
X32222494Y-113403469D01*
X33014490Y-113442291D01*
X33076512Y-113439264D01*
X33138548Y-113437104D01*
X33148019Y-113435775D01*
X33932474Y-113320025D01*
X33992716Y-113305012D01*
X34053162Y-113290841D01*
X34062194Y-113287697D01*
X34809225Y-113021784D01*
X34865420Y-112995348D01*
X34921947Y-112969714D01*
X34930197Y-112964875D01*
X35611351Y-112558927D01*
X35661345Y-112522077D01*
X35711811Y-112485955D01*
X35718964Y-112479606D01*
X36296662Y-111959560D01*
X36336710Y-111926693D01*
X36422312Y-111822389D01*
X36485919Y-111703388D01*
X36525088Y-111574265D01*
X36535000Y-111473629D01*
X36535000Y-105926371D01*
X36525088Y-105825735D01*
X36485919Y-105696612D01*
X36422312Y-105577611D01*
X36336711Y-105473307D01*
X36309640Y-105451090D01*
X36051644Y-105194889D01*
X36016470Y-105166202D01*
X35983181Y-105135369D01*
X35975523Y-105129639D01*
X35337337Y-104659019D01*
X35284037Y-104627238D01*
X35231137Y-104594686D01*
X35222512Y-104590552D01*
X34505068Y-104252852D01*
X34446623Y-104232034D01*
X34388394Y-104210371D01*
X34379131Y-104207992D01*
X33609759Y-104016076D01*
X33548351Y-104007001D01*
X33487055Y-103997067D01*
X33477506Y-103996531D01*
X32685510Y-103957709D01*
X32623488Y-103960736D01*
X32561452Y-103962896D01*
X32551981Y-103964225D01*
X31767527Y-104079975D01*
X31707293Y-104094986D01*
X31646838Y-104109159D01*
X31637806Y-104112303D01*
X30890775Y-104378216D01*
X30834580Y-104404652D01*
X30778053Y-104430286D01*
X30769803Y-104435125D01*
X30088649Y-104841073D01*
X30038677Y-104877907D01*
X29988189Y-104914045D01*
X29981036Y-104920394D01*
X29403338Y-105440440D01*
X29363290Y-105473307D01*
X29277689Y-105577611D01*
X29214082Y-105696612D01*
X29174913Y-105825735D01*
X29165001Y-105926371D01*
X29165000Y-111473628D01*
X11770000Y-111473628D01*
X11770000Y-108489721D01*
X18015000Y-108489721D01*
X18015000Y-108910279D01*
X18097047Y-109322756D01*
X18257988Y-109711302D01*
X18491637Y-110060983D01*
X18789017Y-110358363D01*
X19138698Y-110592012D01*
X19527244Y-110752953D01*
X19939721Y-110835000D01*
X20360279Y-110835000D01*
X20772756Y-110752953D01*
X21161302Y-110592012D01*
X21510983Y-110358363D01*
X21808363Y-110060983D01*
X22042012Y-109711302D01*
X22202953Y-109322756D01*
X22285000Y-108910279D01*
X22285000Y-108489721D01*
X22202953Y-108077244D01*
X22042012Y-107688698D01*
X21808363Y-107339017D01*
X21510983Y-107041637D01*
X21161302Y-106807988D01*
X20772756Y-106647047D01*
X20360279Y-106565000D01*
X19939721Y-106565000D01*
X19527244Y-106647047D01*
X19138698Y-106807988D01*
X18789017Y-107041637D01*
X18491637Y-107339017D01*
X18257988Y-107688698D01*
X18097047Y-108077244D01*
X18015000Y-108489721D01*
X11770000Y-108489721D01*
X11770000Y-105926371D01*
X11760088Y-105825735D01*
X11720919Y-105696612D01*
X11657312Y-105577611D01*
X11571711Y-105473307D01*
X11544640Y-105451090D01*
X11286644Y-105194889D01*
X11251470Y-105166202D01*
X11218181Y-105135369D01*
X11210523Y-105129639D01*
X10572337Y-104659019D01*
X10519037Y-104627238D01*
X10466137Y-104594686D01*
X10457512Y-104590552D01*
X9740068Y-104252852D01*
X9681623Y-104232034D01*
X9623394Y-104210371D01*
X9614131Y-104207992D01*
X8844759Y-104016076D01*
X8783351Y-104007001D01*
X8722055Y-103997067D01*
X8712506Y-103996531D01*
X7920510Y-103957709D01*
X7858488Y-103960736D01*
X7796452Y-103962896D01*
X7786981Y-103964225D01*
X7002527Y-104079975D01*
X6942293Y-104094986D01*
X6881838Y-104109159D01*
X6872806Y-104112303D01*
X6125775Y-104378216D01*
X6069580Y-104404652D01*
X6013053Y-104430286D01*
X6004803Y-104435125D01*
X5323649Y-104841073D01*
X5273677Y-104877907D01*
X5223189Y-104914045D01*
X5216036Y-104920394D01*
X4638338Y-105440440D01*
X4598290Y-105473307D01*
X4512689Y-105577611D01*
X4449082Y-105696612D01*
X4409913Y-105825735D01*
X4400001Y-105926371D01*
X4400000Y-111473628D01*
X685000Y-111473628D01*
X685000Y-93693628D01*
X29165000Y-93693628D01*
X29174912Y-93794264D01*
X29214081Y-93923387D01*
X29277688Y-94042388D01*
X29363289Y-94146692D01*
X29390351Y-94168902D01*
X29648356Y-94425110D01*
X29683527Y-94453795D01*
X29716820Y-94484631D01*
X29724477Y-94490361D01*
X30362663Y-94960982D01*
X30416005Y-94992788D01*
X30468864Y-95025315D01*
X30477486Y-95029446D01*
X30477490Y-95029449D01*
X30477495Y-95029451D01*
X31194932Y-95367148D01*
X31253366Y-95387963D01*
X31311606Y-95409629D01*
X31320869Y-95412008D01*
X32090241Y-95603924D01*
X32151649Y-95612999D01*
X32212945Y-95622933D01*
X32222494Y-95623469D01*
X33014490Y-95662291D01*
X33076512Y-95659264D01*
X33138548Y-95657104D01*
X33148019Y-95655775D01*
X33932474Y-95540025D01*
X33992716Y-95525012D01*
X34053162Y-95510841D01*
X34062194Y-95507697D01*
X34809225Y-95241784D01*
X34865420Y-95215348D01*
X34921947Y-95189714D01*
X34930197Y-95184875D01*
X35611351Y-94778927D01*
X35661345Y-94742077D01*
X35711811Y-94705955D01*
X35718964Y-94699606D01*
X36296662Y-94179560D01*
X36336710Y-94146693D01*
X36422312Y-94042389D01*
X36485919Y-93923388D01*
X36525088Y-93794265D01*
X36535000Y-93693629D01*
X36535000Y-88146371D01*
X36525088Y-88045735D01*
X36485919Y-87916612D01*
X36422312Y-87797611D01*
X36336711Y-87693307D01*
X36309640Y-87671090D01*
X36051644Y-87414889D01*
X36016470Y-87386202D01*
X35983181Y-87355369D01*
X35975523Y-87349639D01*
X35337337Y-86879019D01*
X35284037Y-86847238D01*
X35231137Y-86814686D01*
X35222512Y-86810552D01*
X34505068Y-86472852D01*
X34446623Y-86452034D01*
X34388394Y-86430371D01*
X34379131Y-86427992D01*
X33609759Y-86236076D01*
X33548351Y-86227001D01*
X33487055Y-86217067D01*
X33477506Y-86216531D01*
X32685510Y-86177709D01*
X32623488Y-86180736D01*
X32561452Y-86182896D01*
X32551981Y-86184225D01*
X31767527Y-86299975D01*
X31707293Y-86314986D01*
X31646838Y-86329159D01*
X31637806Y-86332303D01*
X30890775Y-86598216D01*
X30834580Y-86624652D01*
X30778053Y-86650286D01*
X30769803Y-86655125D01*
X30088649Y-87061073D01*
X30038677Y-87097907D01*
X29988189Y-87134045D01*
X29981036Y-87140394D01*
X29403338Y-87660440D01*
X29363290Y-87693307D01*
X29277689Y-87797611D01*
X29214082Y-87916612D01*
X29174913Y-88045735D01*
X29165001Y-88146371D01*
X29165000Y-93693628D01*
X685000Y-93693628D01*
X685000Y-90709721D01*
X18015000Y-90709721D01*
X18015000Y-91130279D01*
X18097047Y-91542756D01*
X18257988Y-91931302D01*
X18491637Y-92280983D01*
X18789017Y-92578363D01*
X19138698Y-92812012D01*
X19527244Y-92972953D01*
X19939721Y-93055000D01*
X20360279Y-93055000D01*
X20772756Y-92972953D01*
X21161302Y-92812012D01*
X21510983Y-92578363D01*
X21808363Y-92280983D01*
X22042012Y-91931302D01*
X22202953Y-91542756D01*
X22285000Y-91130279D01*
X22285000Y-90709721D01*
X22202953Y-90297244D01*
X22042012Y-89908698D01*
X21808363Y-89559017D01*
X21510983Y-89261637D01*
X21161302Y-89027988D01*
X20772756Y-88867047D01*
X20360279Y-88785000D01*
X19939721Y-88785000D01*
X19527244Y-88867047D01*
X19138698Y-89027988D01*
X18789017Y-89261637D01*
X18491637Y-89559017D01*
X18257988Y-89908698D01*
X18097047Y-90297244D01*
X18015000Y-90709721D01*
X685000Y-90709721D01*
X685000Y-75913628D01*
X29165000Y-75913628D01*
X29174912Y-76014264D01*
X29214081Y-76143387D01*
X29277688Y-76262388D01*
X29363289Y-76366692D01*
X29390351Y-76388902D01*
X29648356Y-76645110D01*
X29683527Y-76673795D01*
X29716820Y-76704631D01*
X29724477Y-76710361D01*
X30362663Y-77180982D01*
X30416005Y-77212788D01*
X30468864Y-77245315D01*
X30477486Y-77249446D01*
X30477490Y-77249449D01*
X30477495Y-77249451D01*
X31194932Y-77587148D01*
X31253366Y-77607963D01*
X31311606Y-77629629D01*
X31320869Y-77632008D01*
X32090241Y-77823924D01*
X32151649Y-77832999D01*
X32212945Y-77842933D01*
X32222494Y-77843469D01*
X33014490Y-77882291D01*
X33076512Y-77879264D01*
X33138548Y-77877104D01*
X33148019Y-77875775D01*
X33932474Y-77760025D01*
X33992716Y-77745012D01*
X34053162Y-77730841D01*
X34062194Y-77727697D01*
X34809225Y-77461784D01*
X34865420Y-77435348D01*
X34921947Y-77409714D01*
X34930197Y-77404875D01*
X35611351Y-76998927D01*
X35661345Y-76962077D01*
X35711811Y-76925955D01*
X35718964Y-76919606D01*
X36296662Y-76399560D01*
X36336710Y-76366693D01*
X36422312Y-76262389D01*
X36485919Y-76143388D01*
X36525088Y-76014265D01*
X36535000Y-75913629D01*
X36535000Y-70366371D01*
X36525088Y-70265735D01*
X36485919Y-70136612D01*
X36422312Y-70017611D01*
X36336711Y-69913307D01*
X36309640Y-69891090D01*
X36051644Y-69634889D01*
X36016470Y-69606202D01*
X35983181Y-69575369D01*
X35975523Y-69569639D01*
X35337337Y-69099019D01*
X35284037Y-69067238D01*
X35231137Y-69034686D01*
X35222512Y-69030552D01*
X34505068Y-68692852D01*
X34446623Y-68672034D01*
X34388394Y-68650371D01*
X34379131Y-68647992D01*
X33609759Y-68456076D01*
X33548351Y-68447001D01*
X33487055Y-68437067D01*
X33477506Y-68436531D01*
X32685510Y-68397709D01*
X32623488Y-68400736D01*
X32561452Y-68402896D01*
X32551981Y-68404225D01*
X31767527Y-68519975D01*
X31707293Y-68534986D01*
X31646838Y-68549159D01*
X31637806Y-68552303D01*
X30890775Y-68818216D01*
X30834580Y-68844652D01*
X30778053Y-68870286D01*
X30769803Y-68875125D01*
X30088649Y-69281073D01*
X30038677Y-69317907D01*
X29988189Y-69354045D01*
X29981036Y-69360394D01*
X29403338Y-69880440D01*
X29363290Y-69913307D01*
X29277689Y-70017611D01*
X29214082Y-70136612D01*
X29174913Y-70265735D01*
X29165001Y-70366371D01*
X29165000Y-75913628D01*
X685000Y-75913628D01*
X685000Y-72929721D01*
X18015000Y-72929721D01*
X18015000Y-73350279D01*
X18097047Y-73762756D01*
X18257988Y-74151302D01*
X18491637Y-74500983D01*
X18789017Y-74798363D01*
X19138698Y-75032012D01*
X19527244Y-75192953D01*
X19939721Y-75275000D01*
X20360279Y-75275000D01*
X20772756Y-75192953D01*
X21161302Y-75032012D01*
X21510983Y-74798363D01*
X21808363Y-74500983D01*
X22042012Y-74151302D01*
X22202953Y-73762756D01*
X22285000Y-73350279D01*
X22285000Y-72929721D01*
X22202953Y-72517244D01*
X22042012Y-72128698D01*
X21808363Y-71779017D01*
X21510983Y-71481637D01*
X21161302Y-71247988D01*
X20772756Y-71087047D01*
X20360279Y-71005000D01*
X19939721Y-71005000D01*
X19527244Y-71087047D01*
X19138698Y-71247988D01*
X18789017Y-71481637D01*
X18491637Y-71779017D01*
X18257988Y-72128698D01*
X18097047Y-72517244D01*
X18015000Y-72929721D01*
X685000Y-72929721D01*
X685000Y-58133628D01*
X29165000Y-58133628D01*
X29174912Y-58234264D01*
X29214081Y-58363387D01*
X29277688Y-58482388D01*
X29363289Y-58586692D01*
X29390351Y-58608902D01*
X29648356Y-58865110D01*
X29683527Y-58893795D01*
X29716820Y-58924631D01*
X29724477Y-58930361D01*
X30362663Y-59400982D01*
X30416005Y-59432788D01*
X30468864Y-59465315D01*
X30477486Y-59469446D01*
X30477490Y-59469449D01*
X30477495Y-59469451D01*
X31194932Y-59807148D01*
X31253366Y-59827963D01*
X31311606Y-59849629D01*
X31320869Y-59852008D01*
X32090241Y-60043924D01*
X32151649Y-60052999D01*
X32212945Y-60062933D01*
X32222494Y-60063469D01*
X33014490Y-60102291D01*
X33076512Y-60099264D01*
X33138548Y-60097104D01*
X33148019Y-60095775D01*
X33932474Y-59980025D01*
X33992716Y-59965012D01*
X34053162Y-59950841D01*
X34062194Y-59947697D01*
X34809225Y-59681784D01*
X34865420Y-59655348D01*
X34921947Y-59629714D01*
X34930197Y-59624875D01*
X35611351Y-59218927D01*
X35661345Y-59182077D01*
X35711811Y-59145955D01*
X35718964Y-59139606D01*
X36296662Y-58619560D01*
X36336710Y-58586693D01*
X36422312Y-58482389D01*
X36485919Y-58363388D01*
X36525088Y-58234265D01*
X36535000Y-58133629D01*
X36535000Y-52586371D01*
X36525088Y-52485735D01*
X36485919Y-52356612D01*
X36422312Y-52237611D01*
X36336711Y-52133307D01*
X36309640Y-52111090D01*
X36051644Y-51854889D01*
X36016470Y-51826202D01*
X35983181Y-51795369D01*
X35975523Y-51789639D01*
X35337337Y-51319019D01*
X35284037Y-51287238D01*
X35231137Y-51254686D01*
X35222512Y-51250552D01*
X34505068Y-50912852D01*
X34446623Y-50892034D01*
X34388394Y-50870371D01*
X34379131Y-50867992D01*
X33609759Y-50676076D01*
X33548351Y-50667001D01*
X33487055Y-50657067D01*
X33477506Y-50656531D01*
X32685510Y-50617709D01*
X32623488Y-50620736D01*
X32561452Y-50622896D01*
X32551981Y-50624225D01*
X31767527Y-50739975D01*
X31707293Y-50754986D01*
X31646838Y-50769159D01*
X31637806Y-50772303D01*
X30890775Y-51038216D01*
X30834580Y-51064652D01*
X30778053Y-51090286D01*
X30769803Y-51095125D01*
X30088649Y-51501073D01*
X30038677Y-51537907D01*
X29988189Y-51574045D01*
X29981036Y-51580394D01*
X29403338Y-52100440D01*
X29363290Y-52133307D01*
X29277689Y-52237611D01*
X29214082Y-52356612D01*
X29174913Y-52485735D01*
X29165001Y-52586371D01*
X29165000Y-58133628D01*
X685000Y-58133628D01*
X685000Y-55149721D01*
X18015000Y-55149721D01*
X18015000Y-55570279D01*
X18097047Y-55982756D01*
X18257988Y-56371302D01*
X18491637Y-56720983D01*
X18789017Y-57018363D01*
X19138698Y-57252012D01*
X19527244Y-57412953D01*
X19939721Y-57495000D01*
X20360279Y-57495000D01*
X20772756Y-57412953D01*
X21161302Y-57252012D01*
X21510983Y-57018363D01*
X21808363Y-56720983D01*
X22042012Y-56371302D01*
X22202953Y-55982756D01*
X22285000Y-55570279D01*
X22285000Y-55149721D01*
X22202953Y-54737244D01*
X22042012Y-54348698D01*
X21808363Y-53999017D01*
X21510983Y-53701637D01*
X21161302Y-53467988D01*
X20772756Y-53307047D01*
X20360279Y-53225000D01*
X19939721Y-53225000D01*
X19527244Y-53307047D01*
X19138698Y-53467988D01*
X18789017Y-53701637D01*
X18491637Y-53999017D01*
X18257988Y-54348698D01*
X18097047Y-54737244D01*
X18015000Y-55149721D01*
X685000Y-55149721D01*
X685000Y-40353628D01*
X29165000Y-40353628D01*
X29174912Y-40454264D01*
X29214081Y-40583387D01*
X29277688Y-40702388D01*
X29363289Y-40806692D01*
X29390351Y-40828902D01*
X29648356Y-41085110D01*
X29683527Y-41113795D01*
X29716820Y-41144631D01*
X29724477Y-41150361D01*
X30362663Y-41620982D01*
X30416005Y-41652788D01*
X30468864Y-41685315D01*
X30477486Y-41689446D01*
X30477490Y-41689449D01*
X30477495Y-41689451D01*
X31194932Y-42027148D01*
X31253366Y-42047963D01*
X31311606Y-42069629D01*
X31320869Y-42072008D01*
X32090241Y-42263924D01*
X32151649Y-42272999D01*
X32212945Y-42282933D01*
X32222494Y-42283469D01*
X33014490Y-42322291D01*
X33076512Y-42319264D01*
X33138548Y-42317104D01*
X33148019Y-42315775D01*
X33932474Y-42200025D01*
X33992716Y-42185012D01*
X34053162Y-42170841D01*
X34062194Y-42167697D01*
X34809225Y-41901784D01*
X34865420Y-41875348D01*
X34921947Y-41849714D01*
X34930197Y-41844875D01*
X35611351Y-41438927D01*
X35661345Y-41402077D01*
X35711811Y-41365955D01*
X35718964Y-41359606D01*
X36296662Y-40839560D01*
X36336710Y-40806693D01*
X36422312Y-40702389D01*
X36485919Y-40583388D01*
X36525088Y-40454265D01*
X36535000Y-40353629D01*
X36535000Y-34806371D01*
X36525088Y-34705735D01*
X36485919Y-34576612D01*
X36422312Y-34457611D01*
X36336711Y-34353307D01*
X36309640Y-34331090D01*
X36051644Y-34074889D01*
X36016470Y-34046202D01*
X35983181Y-34015369D01*
X35975523Y-34009639D01*
X35337337Y-33539019D01*
X35284037Y-33507238D01*
X35231137Y-33474686D01*
X35222512Y-33470552D01*
X34505068Y-33132852D01*
X34446623Y-33112034D01*
X34388394Y-33090371D01*
X34379131Y-33087992D01*
X33609759Y-32896076D01*
X33548351Y-32887001D01*
X33487055Y-32877067D01*
X33477506Y-32876531D01*
X32685510Y-32837709D01*
X32623488Y-32840736D01*
X32561452Y-32842896D01*
X32551981Y-32844225D01*
X31767527Y-32959975D01*
X31707293Y-32974986D01*
X31646838Y-32989159D01*
X31637806Y-32992303D01*
X30890775Y-33258216D01*
X30834580Y-33284652D01*
X30778053Y-33310286D01*
X30769803Y-33315125D01*
X30088649Y-33721073D01*
X30038677Y-33757907D01*
X29988189Y-33794045D01*
X29981036Y-33800394D01*
X29403338Y-34320440D01*
X29363290Y-34353307D01*
X29277689Y-34457611D01*
X29214082Y-34576612D01*
X29174913Y-34705735D01*
X29165001Y-34806371D01*
X29165000Y-40353628D01*
X685000Y-40353628D01*
X685000Y-37369721D01*
X18015000Y-37369721D01*
X18015000Y-37790279D01*
X18097047Y-38202756D01*
X18257988Y-38591302D01*
X18491637Y-38940983D01*
X18789017Y-39238363D01*
X19138698Y-39472012D01*
X19527244Y-39632953D01*
X19939721Y-39715000D01*
X20360279Y-39715000D01*
X20772756Y-39632953D01*
X21161302Y-39472012D01*
X21510983Y-39238363D01*
X21808363Y-38940983D01*
X22042012Y-38591302D01*
X22202953Y-38202756D01*
X22285000Y-37790279D01*
X22285000Y-37369721D01*
X22202953Y-36957244D01*
X22042012Y-36568698D01*
X21808363Y-36219017D01*
X21510983Y-35921637D01*
X21161302Y-35687988D01*
X20772756Y-35527047D01*
X20360279Y-35445000D01*
X19939721Y-35445000D01*
X19527244Y-35527047D01*
X19138698Y-35687988D01*
X18789017Y-35921637D01*
X18491637Y-36219017D01*
X18257988Y-36568698D01*
X18097047Y-36957244D01*
X18015000Y-37369721D01*
X685000Y-37369721D01*
X685000Y-22573628D01*
X4400000Y-22573628D01*
X4409912Y-22674264D01*
X4449081Y-22803387D01*
X4512688Y-22922388D01*
X4598289Y-23026692D01*
X4625351Y-23048902D01*
X4883356Y-23305110D01*
X4918527Y-23333795D01*
X4951820Y-23364631D01*
X4959477Y-23370361D01*
X5597663Y-23840982D01*
X5651005Y-23872788D01*
X5703864Y-23905315D01*
X5712486Y-23909446D01*
X5712490Y-23909449D01*
X5712495Y-23909451D01*
X6429932Y-24247148D01*
X6488366Y-24267963D01*
X6546606Y-24289629D01*
X6555869Y-24292008D01*
X7325241Y-24483924D01*
X7386649Y-24492999D01*
X7447945Y-24502933D01*
X7457494Y-24503469D01*
X8249490Y-24542291D01*
X8311512Y-24539264D01*
X8373548Y-24537104D01*
X8383019Y-24535775D01*
X9167474Y-24420025D01*
X9227716Y-24405012D01*
X9288162Y-24390841D01*
X9297194Y-24387697D01*
X10044225Y-24121784D01*
X10100420Y-24095348D01*
X10156947Y-24069714D01*
X10165197Y-24064875D01*
X10846351Y-23658927D01*
X10896345Y-23622077D01*
X10946811Y-23585955D01*
X10953964Y-23579606D01*
X11531662Y-23059560D01*
X11571710Y-23026693D01*
X11657312Y-22922389D01*
X11720919Y-22803388D01*
X11760088Y-22674265D01*
X11770000Y-22573629D01*
X11770000Y-22573628D01*
X29165000Y-22573628D01*
X29174912Y-22674264D01*
X29214081Y-22803387D01*
X29277688Y-22922388D01*
X29363289Y-23026692D01*
X29390351Y-23048902D01*
X29648356Y-23305110D01*
X29683527Y-23333795D01*
X29716820Y-23364631D01*
X29724477Y-23370361D01*
X30362663Y-23840982D01*
X30416005Y-23872788D01*
X30468864Y-23905315D01*
X30477486Y-23909446D01*
X30477490Y-23909449D01*
X30477495Y-23909451D01*
X31194932Y-24247148D01*
X31253366Y-24267963D01*
X31311606Y-24289629D01*
X31320869Y-24292008D01*
X32090241Y-24483924D01*
X32151649Y-24492999D01*
X32212945Y-24502933D01*
X32222494Y-24503469D01*
X33014490Y-24542291D01*
X33076512Y-24539264D01*
X33138548Y-24537104D01*
X33148019Y-24535775D01*
X33932474Y-24420025D01*
X33992716Y-24405012D01*
X34053162Y-24390841D01*
X34062194Y-24387697D01*
X34809225Y-24121784D01*
X34865420Y-24095348D01*
X34921947Y-24069714D01*
X34930197Y-24064875D01*
X35611351Y-23658927D01*
X35661345Y-23622077D01*
X35711811Y-23585955D01*
X35718964Y-23579606D01*
X36296662Y-23059560D01*
X36336710Y-23026693D01*
X36422312Y-22922389D01*
X36485919Y-22803388D01*
X36525088Y-22674265D01*
X36535000Y-22573629D01*
X36535000Y-17026371D01*
X36525088Y-16925735D01*
X36485919Y-16796612D01*
X36422312Y-16677611D01*
X36336711Y-16573307D01*
X36309640Y-16551090D01*
X36051644Y-16294889D01*
X36016470Y-16266202D01*
X35983181Y-16235369D01*
X35975523Y-16229639D01*
X35337337Y-15759019D01*
X35284037Y-15727238D01*
X35231137Y-15694686D01*
X35222512Y-15690552D01*
X34505068Y-15352852D01*
X34446623Y-15332034D01*
X34388394Y-15310371D01*
X34379131Y-15307992D01*
X33609759Y-15116076D01*
X33548351Y-15107001D01*
X33487055Y-15097067D01*
X33477506Y-15096531D01*
X32685510Y-15057709D01*
X32623488Y-15060736D01*
X32561452Y-15062896D01*
X32551981Y-15064225D01*
X31767527Y-15179975D01*
X31707293Y-15194986D01*
X31646838Y-15209159D01*
X31637806Y-15212303D01*
X30890775Y-15478216D01*
X30834580Y-15504652D01*
X30778053Y-15530286D01*
X30769803Y-15535125D01*
X30088649Y-15941073D01*
X30038677Y-15977907D01*
X29988189Y-16014045D01*
X29981036Y-16020394D01*
X29403338Y-16540440D01*
X29363290Y-16573307D01*
X29277689Y-16677611D01*
X29214082Y-16796612D01*
X29174913Y-16925735D01*
X29165001Y-17026371D01*
X29165000Y-22573628D01*
X11770000Y-22573628D01*
X11770000Y-19589721D01*
X18015000Y-19589721D01*
X18015000Y-20010279D01*
X18097047Y-20422756D01*
X18257988Y-20811302D01*
X18491637Y-21160983D01*
X18789017Y-21458363D01*
X19138698Y-21692012D01*
X19527244Y-21852953D01*
X19939721Y-21935000D01*
X20360279Y-21935000D01*
X20772756Y-21852953D01*
X21161302Y-21692012D01*
X21510983Y-21458363D01*
X21808363Y-21160983D01*
X22042012Y-20811302D01*
X22202953Y-20422756D01*
X22285000Y-20010279D01*
X22285000Y-19589721D01*
X22202953Y-19177244D01*
X22042012Y-18788698D01*
X21808363Y-18439017D01*
X21510983Y-18141637D01*
X21161302Y-17907988D01*
X20772756Y-17747047D01*
X20360279Y-17665000D01*
X19939721Y-17665000D01*
X19527244Y-17747047D01*
X19138698Y-17907988D01*
X18789017Y-18141637D01*
X18491637Y-18439017D01*
X18257988Y-18788698D01*
X18097047Y-19177244D01*
X18015000Y-19589721D01*
X11770000Y-19589721D01*
X11770000Y-17026371D01*
X11760088Y-16925735D01*
X11720919Y-16796612D01*
X11657312Y-16677611D01*
X11571711Y-16573307D01*
X11544640Y-16551090D01*
X11286644Y-16294889D01*
X11251470Y-16266202D01*
X11218181Y-16235369D01*
X11210523Y-16229639D01*
X10572337Y-15759019D01*
X10519037Y-15727238D01*
X10466137Y-15694686D01*
X10457512Y-15690552D01*
X9740068Y-15352852D01*
X9681623Y-15332034D01*
X9623394Y-15310371D01*
X9614131Y-15307992D01*
X8844759Y-15116076D01*
X8783351Y-15107001D01*
X8722055Y-15097067D01*
X8712506Y-15096531D01*
X7920510Y-15057709D01*
X7858488Y-15060736D01*
X7796452Y-15062896D01*
X7786981Y-15064225D01*
X7002527Y-15179975D01*
X6942293Y-15194986D01*
X6881838Y-15209159D01*
X6872806Y-15212303D01*
X6125775Y-15478216D01*
X6069580Y-15504652D01*
X6013053Y-15530286D01*
X6004803Y-15535125D01*
X5323649Y-15941073D01*
X5273677Y-15977907D01*
X5223189Y-16014045D01*
X5216036Y-16020394D01*
X4638338Y-16540440D01*
X4598290Y-16573307D01*
X4512689Y-16677611D01*
X4449082Y-16796612D01*
X4409913Y-16925735D01*
X4400001Y-17026371D01*
X4400000Y-22573628D01*
X685000Y-22573628D01*
X685000Y-2779872D01*
X5265000Y-2779872D01*
X5265000Y-3220128D01*
X5350890Y-3651925D01*
X5519369Y-4058669D01*
X5763962Y-4424729D01*
X6075271Y-4736038D01*
X6441331Y-4980631D01*
X6848075Y-5149110D01*
X7279872Y-5235000D01*
X7720128Y-5235000D01*
X8151925Y-5149110D01*
X8558669Y-4980631D01*
X8924729Y-4736038D01*
X9236038Y-4424729D01*
X9480631Y-4058669D01*
X9649110Y-3651925D01*
X9735000Y-3220128D01*
X9735000Y-2779872D01*
X9649110Y-2348075D01*
X9480631Y-1941331D01*
X9236038Y-1575271D01*
X8924729Y-1263962D01*
X8558669Y-1019369D01*
X8151925Y-850890D01*
X7720128Y-765000D01*
X7279872Y-765000D01*
X6848075Y-850890D01*
X6441331Y-1019369D01*
X6075271Y-1263962D01*
X5763962Y-1575271D01*
X5519369Y-1941331D01*
X5350890Y-2348075D01*
X5265000Y-2779872D01*
X685000Y-2779872D01*
X685000Y-685000D01*
X39615000Y-685000D01*
X39615001Y-127815000D01*
G37*
G04 #@! TD.AperFunction*
M02*
