G04 #@! TF.GenerationSoftware,KiCad,Pcbnew,(5.1.9)-1*
G04 #@! TF.CreationDate,2021-04-27T02:11:01+02:00*
G04 #@! TF.ProjectId,Clock Divider Front,436c6f63-6b20-4446-9976-696465722046,rev?*
G04 #@! TF.SameCoordinates,Original*
G04 #@! TF.FileFunction,Legend,Top*
G04 #@! TF.FilePolarity,Positive*
%FSLAX46Y46*%
G04 Gerber Fmt 4.6, Leading zero omitted, Abs format (unit mm)*
G04 Created by KiCad (PCBNEW (5.1.9)-1) date 2021-04-27 02:11:02*
%MOMM*%
%LPD*%
G01*
G04 APERTURE LIST*
%ADD10C,0.010000*%
G04 APERTURE END LIST*
D10*
G04 #@! TO.C,G\u002A\u002A\u002A*
G36*
X2772168Y-125230565D02*
G01*
X5545000Y-125237019D01*
X5561086Y-125802667D01*
X-666Y-125802667D01*
X-666Y-125513389D01*
X-665Y-125224111D01*
X2772168Y-125230565D01*
G37*
X2772168Y-125230565D02*
X5545000Y-125237019D01*
X5561086Y-125802667D01*
X-666Y-125802667D01*
X-666Y-125513389D01*
X-665Y-125224111D01*
X2772168Y-125230565D01*
G36*
X40300667Y-125802667D02*
G01*
X9451803Y-125802667D01*
X9467889Y-125237909D01*
X40300667Y-125224111D01*
X40300667Y-125802667D01*
G37*
X40300667Y-125802667D02*
X9451803Y-125802667D01*
X9467889Y-125237909D01*
X40300667Y-125224111D01*
X40300667Y-125802667D01*
G36*
X35032388Y-114621062D02*
G01*
X35067804Y-114668640D01*
X35086741Y-114699691D01*
X35097034Y-114729374D01*
X35095435Y-114764031D01*
X35078699Y-114810002D01*
X35043580Y-114873626D01*
X34986830Y-114961244D01*
X34905204Y-115079197D01*
X34795456Y-115233826D01*
X34735280Y-115318111D01*
X34541730Y-115592855D01*
X34334921Y-115893052D01*
X34126952Y-116200813D01*
X33929921Y-116498245D01*
X33767222Y-116749717D01*
X33692483Y-116857391D01*
X33633365Y-116916997D01*
X33583181Y-116932318D01*
X33535242Y-116907135D01*
X33518542Y-116890323D01*
X33484103Y-116840461D01*
X33475018Y-116785254D01*
X33492828Y-116711785D01*
X33539075Y-116607134D01*
X33556518Y-116572093D01*
X33596343Y-116501274D01*
X33662398Y-116393157D01*
X33750145Y-116254511D01*
X33855046Y-116092107D01*
X33972561Y-115912712D01*
X34098152Y-115723096D01*
X34227282Y-115530028D01*
X34355410Y-115340277D01*
X34478000Y-115160613D01*
X34590512Y-114997804D01*
X34688408Y-114858620D01*
X34767149Y-114749830D01*
X34822196Y-114678203D01*
X34839906Y-114657936D01*
X34915511Y-114594543D01*
X34976205Y-114582088D01*
X35032388Y-114621062D01*
G37*
X35032388Y-114621062D02*
X35067804Y-114668640D01*
X35086741Y-114699691D01*
X35097034Y-114729374D01*
X35095435Y-114764031D01*
X35078699Y-114810002D01*
X35043580Y-114873626D01*
X34986830Y-114961244D01*
X34905204Y-115079197D01*
X34795456Y-115233826D01*
X34735280Y-115318111D01*
X34541730Y-115592855D01*
X34334921Y-115893052D01*
X34126952Y-116200813D01*
X33929921Y-116498245D01*
X33767222Y-116749717D01*
X33692483Y-116857391D01*
X33633365Y-116916997D01*
X33583181Y-116932318D01*
X33535242Y-116907135D01*
X33518542Y-116890323D01*
X33484103Y-116840461D01*
X33475018Y-116785254D01*
X33492828Y-116711785D01*
X33539075Y-116607134D01*
X33556518Y-116572093D01*
X33596343Y-116501274D01*
X33662398Y-116393157D01*
X33750145Y-116254511D01*
X33855046Y-116092107D01*
X33972561Y-115912712D01*
X34098152Y-115723096D01*
X34227282Y-115530028D01*
X34355410Y-115340277D01*
X34478000Y-115160613D01*
X34590512Y-114997804D01*
X34688408Y-114858620D01*
X34767149Y-114749830D01*
X34822196Y-114678203D01*
X34839906Y-114657936D01*
X34915511Y-114594543D01*
X34976205Y-114582088D01*
X35032388Y-114621062D01*
G36*
X38302950Y-114902975D02*
G01*
X38447927Y-114977256D01*
X38562706Y-115089073D01*
X38657845Y-115217151D01*
X38712319Y-115324805D01*
X38726543Y-115425522D01*
X38700933Y-115532790D01*
X38635903Y-115660096D01*
X38582896Y-115744445D01*
X38504703Y-115849633D01*
X38397555Y-115974734D01*
X38276223Y-116103966D01*
X38155478Y-116221545D01*
X38057000Y-116306338D01*
X38040768Y-116322154D01*
X38043225Y-116333432D01*
X38071056Y-116340722D01*
X38130947Y-116344575D01*
X38229582Y-116345542D01*
X38373649Y-116344172D01*
X38493735Y-116342308D01*
X38986914Y-116334111D01*
X39014762Y-116413212D01*
X39026864Y-116495409D01*
X38994500Y-116563104D01*
X38912422Y-116625624D01*
X38887442Y-116639467D01*
X38828738Y-116665367D01*
X38766047Y-116677657D01*
X38681875Y-116677901D01*
X38565000Y-116668291D01*
X38386484Y-116654730D01*
X38202052Y-116648092D01*
X38024484Y-116648163D01*
X37866556Y-116654727D01*
X37741049Y-116667568D01*
X37669028Y-116683386D01*
X37583248Y-116723930D01*
X37487529Y-116785174D01*
X37447636Y-116816050D01*
X37341612Y-116885275D01*
X37244590Y-116912283D01*
X37166159Y-116895082D01*
X37145422Y-116878800D01*
X37116219Y-116813952D01*
X37116991Y-116721851D01*
X37146268Y-116622120D01*
X37167776Y-116580916D01*
X37240089Y-116498095D01*
X37361324Y-116403343D01*
X37526191Y-116300447D01*
X37661889Y-116227059D01*
X37782375Y-116151489D01*
X37919229Y-116044277D01*
X38056376Y-115919971D01*
X38177743Y-115793118D01*
X38265754Y-115680545D01*
X38335391Y-115543923D01*
X38351552Y-115425113D01*
X38314233Y-115324207D01*
X38285208Y-115289754D01*
X38215660Y-115236109D01*
X38145536Y-115203672D01*
X38062992Y-115206875D01*
X37957093Y-115244971D01*
X37842316Y-115310966D01*
X37733140Y-115397863D01*
X37722385Y-115408115D01*
X37626500Y-115484203D01*
X37531752Y-115530276D01*
X37450639Y-115541964D01*
X37400712Y-115520585D01*
X37370994Y-115468364D01*
X37348783Y-115391446D01*
X37347672Y-115384999D01*
X37342288Y-115340802D01*
X37347984Y-115305609D01*
X37372424Y-115270758D01*
X37423267Y-115227586D01*
X37508177Y-115167431D01*
X37588051Y-115113239D01*
X37704720Y-115038287D01*
X37816085Y-114973506D01*
X37907114Y-114927299D01*
X37950710Y-114910499D01*
X38137864Y-114880913D01*
X38302950Y-114902975D01*
G37*
X38302950Y-114902975D02*
X38447927Y-114977256D01*
X38562706Y-115089073D01*
X38657845Y-115217151D01*
X38712319Y-115324805D01*
X38726543Y-115425522D01*
X38700933Y-115532790D01*
X38635903Y-115660096D01*
X38582896Y-115744445D01*
X38504703Y-115849633D01*
X38397555Y-115974734D01*
X38276223Y-116103966D01*
X38155478Y-116221545D01*
X38057000Y-116306338D01*
X38040768Y-116322154D01*
X38043225Y-116333432D01*
X38071056Y-116340722D01*
X38130947Y-116344575D01*
X38229582Y-116345542D01*
X38373649Y-116344172D01*
X38493735Y-116342308D01*
X38986914Y-116334111D01*
X39014762Y-116413212D01*
X39026864Y-116495409D01*
X38994500Y-116563104D01*
X38912422Y-116625624D01*
X38887442Y-116639467D01*
X38828738Y-116665367D01*
X38766047Y-116677657D01*
X38681875Y-116677901D01*
X38565000Y-116668291D01*
X38386484Y-116654730D01*
X38202052Y-116648092D01*
X38024484Y-116648163D01*
X37866556Y-116654727D01*
X37741049Y-116667568D01*
X37669028Y-116683386D01*
X37583248Y-116723930D01*
X37487529Y-116785174D01*
X37447636Y-116816050D01*
X37341612Y-116885275D01*
X37244590Y-116912283D01*
X37166159Y-116895082D01*
X37145422Y-116878800D01*
X37116219Y-116813952D01*
X37116991Y-116721851D01*
X37146268Y-116622120D01*
X37167776Y-116580916D01*
X37240089Y-116498095D01*
X37361324Y-116403343D01*
X37526191Y-116300447D01*
X37661889Y-116227059D01*
X37782375Y-116151489D01*
X37919229Y-116044277D01*
X38056376Y-115919971D01*
X38177743Y-115793118D01*
X38265754Y-115680545D01*
X38335391Y-115543923D01*
X38351552Y-115425113D01*
X38314233Y-115324207D01*
X38285208Y-115289754D01*
X38215660Y-115236109D01*
X38145536Y-115203672D01*
X38062992Y-115206875D01*
X37957093Y-115244971D01*
X37842316Y-115310966D01*
X37733140Y-115397863D01*
X37722385Y-115408115D01*
X37626500Y-115484203D01*
X37531752Y-115530276D01*
X37450639Y-115541964D01*
X37400712Y-115520585D01*
X37370994Y-115468364D01*
X37348783Y-115391446D01*
X37347672Y-115384999D01*
X37342288Y-115340802D01*
X37347984Y-115305609D01*
X37372424Y-115270758D01*
X37423267Y-115227586D01*
X37508177Y-115167431D01*
X37588051Y-115113239D01*
X37704720Y-115038287D01*
X37816085Y-114973506D01*
X37907114Y-114927299D01*
X37950710Y-114910499D01*
X38137864Y-114880913D01*
X38302950Y-114902975D01*
G36*
X32115727Y-114741710D02*
G01*
X32174615Y-114799747D01*
X32176717Y-114803568D01*
X32189108Y-114850326D01*
X32189765Y-114928578D01*
X32178348Y-115047008D01*
X32162781Y-115159876D01*
X32142375Y-115302745D01*
X32123759Y-115442579D01*
X32109586Y-115559010D01*
X32104384Y-115608454D01*
X32090407Y-115757685D01*
X32166815Y-115702176D01*
X32230926Y-115648556D01*
X32320235Y-115564600D01*
X32425139Y-115460368D01*
X32536036Y-115345920D01*
X32643325Y-115231315D01*
X32737401Y-115126615D01*
X32808664Y-115041880D01*
X32844949Y-114991699D01*
X32919038Y-114882047D01*
X32984375Y-114822076D01*
X33047559Y-114807152D01*
X33090419Y-114819329D01*
X33171720Y-114883014D01*
X33206083Y-114972483D01*
X33189312Y-115076647D01*
X33188557Y-115078488D01*
X33156671Y-115126042D01*
X33090714Y-115203663D01*
X32998183Y-115303240D01*
X32886578Y-115416658D01*
X32783452Y-115516805D01*
X32650906Y-115645569D01*
X32547545Y-115751605D01*
X32477030Y-115830893D01*
X32443018Y-115879412D01*
X32441790Y-115892211D01*
X32494750Y-115936404D01*
X32581133Y-116004695D01*
X32688797Y-116087868D01*
X32805603Y-116176703D01*
X32919411Y-116261982D01*
X33018080Y-116334489D01*
X33089469Y-116385003D01*
X33100590Y-116392434D01*
X33214141Y-116450081D01*
X33333903Y-116485410D01*
X33354590Y-116488441D01*
X33435537Y-116501573D01*
X33475943Y-116523257D01*
X33491688Y-116563686D01*
X33493605Y-116577681D01*
X33477357Y-116664667D01*
X33434808Y-116730277D01*
X33373265Y-116783766D01*
X33301905Y-116807153D01*
X33215320Y-116798625D01*
X33108100Y-116756371D01*
X32974837Y-116678580D01*
X32810122Y-116563440D01*
X32708889Y-116487166D01*
X32528089Y-116349943D01*
X32374684Y-116236567D01*
X32252566Y-116149786D01*
X32165625Y-116092349D01*
X32117754Y-116067003D01*
X32112537Y-116066000D01*
X32078196Y-116090145D01*
X32048586Y-116164098D01*
X32023055Y-116290133D01*
X32003334Y-116447000D01*
X31981735Y-116615308D01*
X31955840Y-116735139D01*
X31923278Y-116814431D01*
X31881681Y-116861120D01*
X31879164Y-116862846D01*
X31803341Y-116882917D01*
X31725941Y-116854252D01*
X31706532Y-116837612D01*
X31674379Y-116779118D01*
X31671316Y-116688394D01*
X31672654Y-116675334D01*
X31713687Y-116310157D01*
X31749107Y-115996912D01*
X31779541Y-115731432D01*
X31805617Y-115509549D01*
X31827961Y-115327097D01*
X31847203Y-115179909D01*
X31863969Y-115063817D01*
X31878887Y-114974656D01*
X31892584Y-114908257D01*
X31905689Y-114860455D01*
X31918828Y-114827082D01*
X31932630Y-114803971D01*
X31947721Y-114786956D01*
X31958538Y-114777175D01*
X32039953Y-114733733D01*
X32115727Y-114741710D01*
G37*
X32115727Y-114741710D02*
X32174615Y-114799747D01*
X32176717Y-114803568D01*
X32189108Y-114850326D01*
X32189765Y-114928578D01*
X32178348Y-115047008D01*
X32162781Y-115159876D01*
X32142375Y-115302745D01*
X32123759Y-115442579D01*
X32109586Y-115559010D01*
X32104384Y-115608454D01*
X32090407Y-115757685D01*
X32166815Y-115702176D01*
X32230926Y-115648556D01*
X32320235Y-115564600D01*
X32425139Y-115460368D01*
X32536036Y-115345920D01*
X32643325Y-115231315D01*
X32737401Y-115126615D01*
X32808664Y-115041880D01*
X32844949Y-114991699D01*
X32919038Y-114882047D01*
X32984375Y-114822076D01*
X33047559Y-114807152D01*
X33090419Y-114819329D01*
X33171720Y-114883014D01*
X33206083Y-114972483D01*
X33189312Y-115076647D01*
X33188557Y-115078488D01*
X33156671Y-115126042D01*
X33090714Y-115203663D01*
X32998183Y-115303240D01*
X32886578Y-115416658D01*
X32783452Y-115516805D01*
X32650906Y-115645569D01*
X32547545Y-115751605D01*
X32477030Y-115830893D01*
X32443018Y-115879412D01*
X32441790Y-115892211D01*
X32494750Y-115936404D01*
X32581133Y-116004695D01*
X32688797Y-116087868D01*
X32805603Y-116176703D01*
X32919411Y-116261982D01*
X33018080Y-116334489D01*
X33089469Y-116385003D01*
X33100590Y-116392434D01*
X33214141Y-116450081D01*
X33333903Y-116485410D01*
X33354590Y-116488441D01*
X33435537Y-116501573D01*
X33475943Y-116523257D01*
X33491688Y-116563686D01*
X33493605Y-116577681D01*
X33477357Y-116664667D01*
X33434808Y-116730277D01*
X33373265Y-116783766D01*
X33301905Y-116807153D01*
X33215320Y-116798625D01*
X33108100Y-116756371D01*
X32974837Y-116678580D01*
X32810122Y-116563440D01*
X32708889Y-116487166D01*
X32528089Y-116349943D01*
X32374684Y-116236567D01*
X32252566Y-116149786D01*
X32165625Y-116092349D01*
X32117754Y-116067003D01*
X32112537Y-116066000D01*
X32078196Y-116090145D01*
X32048586Y-116164098D01*
X32023055Y-116290133D01*
X32003334Y-116447000D01*
X31981735Y-116615308D01*
X31955840Y-116735139D01*
X31923278Y-116814431D01*
X31881681Y-116861120D01*
X31879164Y-116862846D01*
X31803341Y-116882917D01*
X31725941Y-116854252D01*
X31706532Y-116837612D01*
X31674379Y-116779118D01*
X31671316Y-116688394D01*
X31672654Y-116675334D01*
X31713687Y-116310157D01*
X31749107Y-115996912D01*
X31779541Y-115731432D01*
X31805617Y-115509549D01*
X31827961Y-115327097D01*
X31847203Y-115179909D01*
X31863969Y-115063817D01*
X31878887Y-114974656D01*
X31892584Y-114908257D01*
X31905689Y-114860455D01*
X31918828Y-114827082D01*
X31932630Y-114803971D01*
X31947721Y-114786956D01*
X31958538Y-114777175D01*
X32039953Y-114733733D01*
X32115727Y-114741710D01*
G36*
X8841160Y-115171882D02*
G01*
X8914401Y-115203058D01*
X8923955Y-115212278D01*
X8976429Y-115299010D01*
X8990073Y-115383980D01*
X8970023Y-115455807D01*
X8921419Y-115503110D01*
X8849399Y-115514510D01*
X8794790Y-115498350D01*
X8736980Y-115482783D01*
X8668402Y-115491699D01*
X8593545Y-115516959D01*
X8448618Y-115583892D01*
X8359407Y-115653213D01*
X8325980Y-115725639D01*
X8348406Y-115801885D01*
X8426755Y-115882668D01*
X8561096Y-115968704D01*
X8641056Y-116009921D01*
X8792643Y-116102223D01*
X8897483Y-116206688D01*
X8951696Y-116318843D01*
X8958606Y-116376140D01*
X8932332Y-116503013D01*
X8853223Y-116613268D01*
X8720855Y-116707259D01*
X8534800Y-116785344D01*
X8432738Y-116815577D01*
X8314332Y-116838711D01*
X8184261Y-116851239D01*
X8063193Y-116852246D01*
X7971798Y-116840814D01*
X7958000Y-116836637D01*
X7890226Y-116788752D01*
X7852646Y-116716029D01*
X7850278Y-116637809D01*
X7888145Y-116573435D01*
X7889410Y-116572369D01*
X7945241Y-116551592D01*
X8051201Y-116537548D01*
X8192799Y-116531186D01*
X8347892Y-116522012D01*
X8480295Y-116501684D01*
X8581571Y-116472621D01*
X8643285Y-116437245D01*
X8657014Y-116398013D01*
X8628930Y-116369493D01*
X8562597Y-116321484D01*
X8469211Y-116261719D01*
X8401027Y-116221223D01*
X8245766Y-116127875D01*
X8135189Y-116050725D01*
X8062564Y-115982681D01*
X8021159Y-115916653D01*
X8004240Y-115845550D01*
X8002928Y-115801959D01*
X8033878Y-115645309D01*
X8117932Y-115499034D01*
X8252180Y-115366545D01*
X8433713Y-115251253D01*
X8499896Y-115219192D01*
X8617408Y-115180219D01*
X8736663Y-115164359D01*
X8841160Y-115171882D01*
G37*
X8841160Y-115171882D02*
X8914401Y-115203058D01*
X8923955Y-115212278D01*
X8976429Y-115299010D01*
X8990073Y-115383980D01*
X8970023Y-115455807D01*
X8921419Y-115503110D01*
X8849399Y-115514510D01*
X8794790Y-115498350D01*
X8736980Y-115482783D01*
X8668402Y-115491699D01*
X8593545Y-115516959D01*
X8448618Y-115583892D01*
X8359407Y-115653213D01*
X8325980Y-115725639D01*
X8348406Y-115801885D01*
X8426755Y-115882668D01*
X8561096Y-115968704D01*
X8641056Y-116009921D01*
X8792643Y-116102223D01*
X8897483Y-116206688D01*
X8951696Y-116318843D01*
X8958606Y-116376140D01*
X8932332Y-116503013D01*
X8853223Y-116613268D01*
X8720855Y-116707259D01*
X8534800Y-116785344D01*
X8432738Y-116815577D01*
X8314332Y-116838711D01*
X8184261Y-116851239D01*
X8063193Y-116852246D01*
X7971798Y-116840814D01*
X7958000Y-116836637D01*
X7890226Y-116788752D01*
X7852646Y-116716029D01*
X7850278Y-116637809D01*
X7888145Y-116573435D01*
X7889410Y-116572369D01*
X7945241Y-116551592D01*
X8051201Y-116537548D01*
X8192799Y-116531186D01*
X8347892Y-116522012D01*
X8480295Y-116501684D01*
X8581571Y-116472621D01*
X8643285Y-116437245D01*
X8657014Y-116398013D01*
X8628930Y-116369493D01*
X8562597Y-116321484D01*
X8469211Y-116261719D01*
X8401027Y-116221223D01*
X8245766Y-116127875D01*
X8135189Y-116050725D01*
X8062564Y-115982681D01*
X8021159Y-115916653D01*
X8004240Y-115845550D01*
X8002928Y-115801959D01*
X8033878Y-115645309D01*
X8117932Y-115499034D01*
X8252180Y-115366545D01*
X8433713Y-115251253D01*
X8499896Y-115219192D01*
X8617408Y-115180219D01*
X8736663Y-115164359D01*
X8841160Y-115171882D01*
G36*
X29489489Y-114639461D02*
G01*
X29617719Y-114686487D01*
X29714692Y-114769667D01*
X29775138Y-114886810D01*
X29793783Y-115035729D01*
X29791244Y-115078223D01*
X29775761Y-115180220D01*
X29746239Y-115249309D01*
X29692513Y-115308894D01*
X29690113Y-115311056D01*
X29593681Y-115375403D01*
X29512484Y-115388645D01*
X29452731Y-115355395D01*
X29420631Y-115280267D01*
X29422394Y-115167874D01*
X29432409Y-115119596D01*
X29448824Y-115029834D01*
X29451901Y-114955557D01*
X29448388Y-114934484D01*
X29409746Y-114890723D01*
X29338489Y-114884750D01*
X29241013Y-114913559D01*
X29123713Y-114974141D01*
X28992984Y-115063489D01*
X28855221Y-115178597D01*
X28783334Y-115247229D01*
X28627141Y-115423295D01*
X28498946Y-115608578D01*
X28401444Y-115795573D01*
X28337331Y-115976776D01*
X28309301Y-116144683D01*
X28320050Y-116291787D01*
X28367826Y-116404256D01*
X28427949Y-116476384D01*
X28491941Y-116530559D01*
X28504625Y-116537895D01*
X28629308Y-116570560D01*
X28782879Y-116559693D01*
X28959997Y-116506642D01*
X29155321Y-116412756D01*
X29266367Y-116345629D01*
X29377640Y-116280254D01*
X29455002Y-116252356D01*
X29505796Y-116260894D01*
X29537369Y-116304824D01*
X29538239Y-116307049D01*
X29538449Y-116381269D01*
X29492305Y-116463990D01*
X29408223Y-116550063D01*
X29294619Y-116634342D01*
X29159909Y-116711679D01*
X29012510Y-116776928D01*
X28860836Y-116824941D01*
X28713305Y-116850572D01*
X28644889Y-116853399D01*
X28539318Y-116846847D01*
X28443193Y-116831970D01*
X28405000Y-116821587D01*
X28274456Y-116758124D01*
X28154306Y-116669879D01*
X28062758Y-116571398D01*
X28034875Y-116525883D01*
X27998657Y-116409955D01*
X27981754Y-116258771D01*
X27984116Y-116090094D01*
X28005692Y-115921687D01*
X28036945Y-115798504D01*
X28120729Y-115607697D01*
X28245784Y-115407081D01*
X28401400Y-115208839D01*
X28576865Y-115025155D01*
X28761468Y-114868215D01*
X28944497Y-114750201D01*
X28969971Y-114737191D01*
X29160343Y-114662624D01*
X29335273Y-114630777D01*
X29489489Y-114639461D01*
G37*
X29489489Y-114639461D02*
X29617719Y-114686487D01*
X29714692Y-114769667D01*
X29775138Y-114886810D01*
X29793783Y-115035729D01*
X29791244Y-115078223D01*
X29775761Y-115180220D01*
X29746239Y-115249309D01*
X29692513Y-115308894D01*
X29690113Y-115311056D01*
X29593681Y-115375403D01*
X29512484Y-115388645D01*
X29452731Y-115355395D01*
X29420631Y-115280267D01*
X29422394Y-115167874D01*
X29432409Y-115119596D01*
X29448824Y-115029834D01*
X29451901Y-114955557D01*
X29448388Y-114934484D01*
X29409746Y-114890723D01*
X29338489Y-114884750D01*
X29241013Y-114913559D01*
X29123713Y-114974141D01*
X28992984Y-115063489D01*
X28855221Y-115178597D01*
X28783334Y-115247229D01*
X28627141Y-115423295D01*
X28498946Y-115608578D01*
X28401444Y-115795573D01*
X28337331Y-115976776D01*
X28309301Y-116144683D01*
X28320050Y-116291787D01*
X28367826Y-116404256D01*
X28427949Y-116476384D01*
X28491941Y-116530559D01*
X28504625Y-116537895D01*
X28629308Y-116570560D01*
X28782879Y-116559693D01*
X28959997Y-116506642D01*
X29155321Y-116412756D01*
X29266367Y-116345629D01*
X29377640Y-116280254D01*
X29455002Y-116252356D01*
X29505796Y-116260894D01*
X29537369Y-116304824D01*
X29538239Y-116307049D01*
X29538449Y-116381269D01*
X29492305Y-116463990D01*
X29408223Y-116550063D01*
X29294619Y-116634342D01*
X29159909Y-116711679D01*
X29012510Y-116776928D01*
X28860836Y-116824941D01*
X28713305Y-116850572D01*
X28644889Y-116853399D01*
X28539318Y-116846847D01*
X28443193Y-116831970D01*
X28405000Y-116821587D01*
X28274456Y-116758124D01*
X28154306Y-116669879D01*
X28062758Y-116571398D01*
X28034875Y-116525883D01*
X27998657Y-116409955D01*
X27981754Y-116258771D01*
X27984116Y-116090094D01*
X28005692Y-115921687D01*
X28036945Y-115798504D01*
X28120729Y-115607697D01*
X28245784Y-115407081D01*
X28401400Y-115208839D01*
X28576865Y-115025155D01*
X28761468Y-114868215D01*
X28944497Y-114750201D01*
X28969971Y-114737191D01*
X29160343Y-114662624D01*
X29335273Y-114630777D01*
X29489489Y-114639461D01*
G36*
X5783023Y-114748757D02*
G01*
X5916368Y-114782854D01*
X5928266Y-114787853D01*
X6078834Y-114880471D01*
X6183894Y-115000415D01*
X6241298Y-115139881D01*
X6248898Y-115291065D01*
X6204546Y-115446161D01*
X6139524Y-115555483D01*
X6071034Y-115631971D01*
X5977722Y-115715629D01*
X5875551Y-115794146D01*
X5780483Y-115855211D01*
X5711153Y-115885876D01*
X5659857Y-115906873D01*
X5643778Y-115925766D01*
X5665331Y-115957029D01*
X5724778Y-116014778D01*
X5814299Y-116092392D01*
X5926072Y-116183248D01*
X6052279Y-116280725D01*
X6137667Y-116344002D01*
X6234395Y-116415817D01*
X6318194Y-116480480D01*
X6374786Y-116526896D01*
X6384611Y-116535883D01*
X6428652Y-116611536D01*
X6420737Y-116693014D01*
X6362188Y-116767492D01*
X6360644Y-116768716D01*
X6307416Y-116804718D01*
X6261614Y-116810304D01*
X6195489Y-116788043D01*
X6187543Y-116784741D01*
X6124790Y-116749116D01*
X6033713Y-116685650D01*
X5927953Y-116604251D01*
X5848601Y-116538588D01*
X5727936Y-116435500D01*
X5600883Y-116327054D01*
X5486733Y-116229714D01*
X5436091Y-116186578D01*
X5338341Y-116111083D01*
X5245611Y-116052704D01*
X5174918Y-116022040D01*
X5170291Y-116021016D01*
X5083668Y-115983321D01*
X5036764Y-115918290D01*
X5037437Y-115838847D01*
X5083736Y-115775615D01*
X5164793Y-115730378D01*
X5259526Y-115712872D01*
X5301719Y-115716777D01*
X5409510Y-115716043D01*
X5529691Y-115680017D01*
X5651588Y-115616791D01*
X5764526Y-115534452D01*
X5857831Y-115441092D01*
X5920829Y-115344799D01*
X5942844Y-115253664D01*
X5940676Y-115232540D01*
X5931013Y-115176161D01*
X5928159Y-115155419D01*
X5904883Y-115128127D01*
X5849982Y-115087787D01*
X5834278Y-115077913D01*
X5746824Y-115043549D01*
X5631119Y-115023610D01*
X5501502Y-115017446D01*
X5372313Y-115024402D01*
X5257892Y-115043826D01*
X5172577Y-115075065D01*
X5133990Y-115109786D01*
X5109010Y-115179628D01*
X5081691Y-115294802D01*
X5053595Y-115444332D01*
X5026285Y-115617239D01*
X5001323Y-115802548D01*
X4980271Y-115989280D01*
X4964691Y-116166459D01*
X4956146Y-116323107D01*
X4955163Y-116366274D01*
X4950574Y-116542716D01*
X4941794Y-116668001D01*
X4928293Y-116747297D01*
X4912586Y-116782552D01*
X4850476Y-116819032D01*
X4768001Y-116825130D01*
X4692611Y-116800451D01*
X4674433Y-116785957D01*
X4638253Y-116728593D01*
X4612936Y-116655341D01*
X4604676Y-116565916D01*
X4607070Y-116429899D01*
X4619208Y-116255945D01*
X4640182Y-116052708D01*
X4669081Y-115828846D01*
X4704997Y-115593011D01*
X4747019Y-115353860D01*
X4753027Y-115322225D01*
X4773511Y-115207156D01*
X4781328Y-115130908D01*
X4776465Y-115077291D01*
X4758907Y-115030119D01*
X4752763Y-115017882D01*
X4728695Y-114963593D01*
X4731714Y-114924330D01*
X4767483Y-114878236D01*
X4796604Y-114848610D01*
X4867676Y-114790455D01*
X4927315Y-114774991D01*
X4947933Y-114778263D01*
X5009323Y-114782351D01*
X5103852Y-114776641D01*
X5194167Y-114764899D01*
X5409744Y-114739399D01*
X5610089Y-114734145D01*
X5783023Y-114748757D01*
G37*
X5783023Y-114748757D02*
X5916368Y-114782854D01*
X5928266Y-114787853D01*
X6078834Y-114880471D01*
X6183894Y-115000415D01*
X6241298Y-115139881D01*
X6248898Y-115291065D01*
X6204546Y-115446161D01*
X6139524Y-115555483D01*
X6071034Y-115631971D01*
X5977722Y-115715629D01*
X5875551Y-115794146D01*
X5780483Y-115855211D01*
X5711153Y-115885876D01*
X5659857Y-115906873D01*
X5643778Y-115925766D01*
X5665331Y-115957029D01*
X5724778Y-116014778D01*
X5814299Y-116092392D01*
X5926072Y-116183248D01*
X6052279Y-116280725D01*
X6137667Y-116344002D01*
X6234395Y-116415817D01*
X6318194Y-116480480D01*
X6374786Y-116526896D01*
X6384611Y-116535883D01*
X6428652Y-116611536D01*
X6420737Y-116693014D01*
X6362188Y-116767492D01*
X6360644Y-116768716D01*
X6307416Y-116804718D01*
X6261614Y-116810304D01*
X6195489Y-116788043D01*
X6187543Y-116784741D01*
X6124790Y-116749116D01*
X6033713Y-116685650D01*
X5927953Y-116604251D01*
X5848601Y-116538588D01*
X5727936Y-116435500D01*
X5600883Y-116327054D01*
X5486733Y-116229714D01*
X5436091Y-116186578D01*
X5338341Y-116111083D01*
X5245611Y-116052704D01*
X5174918Y-116022040D01*
X5170291Y-116021016D01*
X5083668Y-115983321D01*
X5036764Y-115918290D01*
X5037437Y-115838847D01*
X5083736Y-115775615D01*
X5164793Y-115730378D01*
X5259526Y-115712872D01*
X5301719Y-115716777D01*
X5409510Y-115716043D01*
X5529691Y-115680017D01*
X5651588Y-115616791D01*
X5764526Y-115534452D01*
X5857831Y-115441092D01*
X5920829Y-115344799D01*
X5942844Y-115253664D01*
X5940676Y-115232540D01*
X5931013Y-115176161D01*
X5928159Y-115155419D01*
X5904883Y-115128127D01*
X5849982Y-115087787D01*
X5834278Y-115077913D01*
X5746824Y-115043549D01*
X5631119Y-115023610D01*
X5501502Y-115017446D01*
X5372313Y-115024402D01*
X5257892Y-115043826D01*
X5172577Y-115075065D01*
X5133990Y-115109786D01*
X5109010Y-115179628D01*
X5081691Y-115294802D01*
X5053595Y-115444332D01*
X5026285Y-115617239D01*
X5001323Y-115802548D01*
X4980271Y-115989280D01*
X4964691Y-116166459D01*
X4956146Y-116323107D01*
X4955163Y-116366274D01*
X4950574Y-116542716D01*
X4941794Y-116668001D01*
X4928293Y-116747297D01*
X4912586Y-116782552D01*
X4850476Y-116819032D01*
X4768001Y-116825130D01*
X4692611Y-116800451D01*
X4674433Y-116785957D01*
X4638253Y-116728593D01*
X4612936Y-116655341D01*
X4604676Y-116565916D01*
X4607070Y-116429899D01*
X4619208Y-116255945D01*
X4640182Y-116052708D01*
X4669081Y-115828846D01*
X4704997Y-115593011D01*
X4747019Y-115353860D01*
X4753027Y-115322225D01*
X4773511Y-115207156D01*
X4781328Y-115130908D01*
X4776465Y-115077291D01*
X4758907Y-115030119D01*
X4752763Y-115017882D01*
X4728695Y-114963593D01*
X4731714Y-114924330D01*
X4767483Y-114878236D01*
X4796604Y-114848610D01*
X4867676Y-114790455D01*
X4927315Y-114774991D01*
X4947933Y-114778263D01*
X5009323Y-114782351D01*
X5103852Y-114776641D01*
X5194167Y-114764899D01*
X5409744Y-114739399D01*
X5610089Y-114734145D01*
X5783023Y-114748757D01*
G36*
X7488261Y-115193670D02*
G01*
X7552921Y-115228919D01*
X7596689Y-115272819D01*
X7661989Y-115382561D01*
X7673687Y-115503239D01*
X7633098Y-115632734D01*
X7541533Y-115768929D01*
X7400307Y-115909705D01*
X7210732Y-116052944D01*
X7051148Y-116152852D01*
X6948834Y-116216265D01*
X6888667Y-116264489D01*
X6861548Y-116305994D01*
X6857334Y-116333340D01*
X6879071Y-116417186D01*
X6938841Y-116469404D01*
X7028481Y-116490799D01*
X7139826Y-116482177D01*
X7264714Y-116444342D01*
X7394982Y-116378100D01*
X7522466Y-116284257D01*
X7543194Y-116265690D01*
X7637596Y-116188147D01*
X7706752Y-116155754D01*
X7757117Y-116166959D01*
X7788452Y-116206710D01*
X7797172Y-116279247D01*
X7763340Y-116370765D01*
X7692863Y-116471300D01*
X7591647Y-116570887D01*
X7555659Y-116599476D01*
X7359423Y-116722629D01*
X7169566Y-116790439D01*
X6984255Y-116803409D01*
X6876147Y-116785500D01*
X6726727Y-116723312D01*
X6619223Y-116623655D01*
X6553927Y-116487182D01*
X6531128Y-116314545D01*
X6551117Y-116106395D01*
X6558094Y-116070851D01*
X6608745Y-115902917D01*
X6913778Y-115902917D01*
X6933081Y-115912042D01*
X6984237Y-115889937D01*
X7057114Y-115843099D01*
X7141583Y-115778027D01*
X7226047Y-115702632D01*
X7296515Y-115628135D01*
X7346608Y-115562630D01*
X7365334Y-115520855D01*
X7346049Y-115481144D01*
X7295175Y-115477533D01*
X7223178Y-115508476D01*
X7165199Y-115550390D01*
X7106572Y-115609334D01*
X7041216Y-115689083D01*
X6980047Y-115774334D01*
X6933981Y-115849780D01*
X6913933Y-115900117D01*
X6913778Y-115902917D01*
X6608745Y-115902917D01*
X6624219Y-115851614D01*
X6723650Y-115652575D01*
X6850031Y-115480412D01*
X6997009Y-115341803D01*
X7158229Y-115243426D01*
X7327335Y-115191960D01*
X7400180Y-115185924D01*
X7488261Y-115193670D01*
G37*
X7488261Y-115193670D02*
X7552921Y-115228919D01*
X7596689Y-115272819D01*
X7661989Y-115382561D01*
X7673687Y-115503239D01*
X7633098Y-115632734D01*
X7541533Y-115768929D01*
X7400307Y-115909705D01*
X7210732Y-116052944D01*
X7051148Y-116152852D01*
X6948834Y-116216265D01*
X6888667Y-116264489D01*
X6861548Y-116305994D01*
X6857334Y-116333340D01*
X6879071Y-116417186D01*
X6938841Y-116469404D01*
X7028481Y-116490799D01*
X7139826Y-116482177D01*
X7264714Y-116444342D01*
X7394982Y-116378100D01*
X7522466Y-116284257D01*
X7543194Y-116265690D01*
X7637596Y-116188147D01*
X7706752Y-116155754D01*
X7757117Y-116166959D01*
X7788452Y-116206710D01*
X7797172Y-116279247D01*
X7763340Y-116370765D01*
X7692863Y-116471300D01*
X7591647Y-116570887D01*
X7555659Y-116599476D01*
X7359423Y-116722629D01*
X7169566Y-116790439D01*
X6984255Y-116803409D01*
X6876147Y-116785500D01*
X6726727Y-116723312D01*
X6619223Y-116623655D01*
X6553927Y-116487182D01*
X6531128Y-116314545D01*
X6551117Y-116106395D01*
X6558094Y-116070851D01*
X6608745Y-115902917D01*
X6913778Y-115902917D01*
X6933081Y-115912042D01*
X6984237Y-115889937D01*
X7057114Y-115843099D01*
X7141583Y-115778027D01*
X7226047Y-115702632D01*
X7296515Y-115628135D01*
X7346608Y-115562630D01*
X7365334Y-115520855D01*
X7346049Y-115481144D01*
X7295175Y-115477533D01*
X7223178Y-115508476D01*
X7165199Y-115550390D01*
X7106572Y-115609334D01*
X7041216Y-115689083D01*
X6980047Y-115774334D01*
X6933981Y-115849780D01*
X6913933Y-115900117D01*
X6913778Y-115902917D01*
X6608745Y-115902917D01*
X6624219Y-115851614D01*
X6723650Y-115652575D01*
X6850031Y-115480412D01*
X6997009Y-115341803D01*
X7158229Y-115243426D01*
X7327335Y-115191960D01*
X7400180Y-115185924D01*
X7488261Y-115193670D01*
G36*
X10088509Y-115203240D02*
G01*
X10179054Y-115260980D01*
X10230481Y-115343397D01*
X10252407Y-115463196D01*
X10230870Y-115598454D01*
X10192753Y-115689400D01*
X10138077Y-115761410D01*
X10045198Y-115852050D01*
X9925062Y-115952193D01*
X9788615Y-116052711D01*
X9647343Y-116144155D01*
X9548476Y-116207892D01*
X9472650Y-116265398D01*
X9430600Y-116308138D01*
X9425556Y-116320476D01*
X9440981Y-116375462D01*
X9469489Y-116426610D01*
X9512612Y-116468090D01*
X9577619Y-116486425D01*
X9644023Y-116489334D01*
X9811494Y-116462119D01*
X9981009Y-116380000D01*
X10130277Y-116264311D01*
X10231860Y-116185320D01*
X10309212Y-116153347D01*
X10360397Y-116168956D01*
X10374930Y-116193063D01*
X10379310Y-116278427D01*
X10339205Y-116376464D01*
X10262793Y-116479529D01*
X10158250Y-116579980D01*
X10033753Y-116670172D01*
X9897479Y-116742462D01*
X9757604Y-116789207D01*
X9731488Y-116794535D01*
X9621377Y-116803981D01*
X9508230Y-116798582D01*
X9490750Y-116795919D01*
X9350201Y-116753473D01*
X9247950Y-116677667D01*
X9172942Y-116562752D01*
X9123112Y-116400823D01*
X9116061Y-116221655D01*
X9146920Y-116033754D01*
X9184993Y-115921660D01*
X9499363Y-115921660D01*
X9504401Y-115924889D01*
X9537611Y-115909169D01*
X9601617Y-115867982D01*
X9681514Y-115811008D01*
X9768604Y-115742419D01*
X9842798Y-115677186D01*
X9883539Y-115634619D01*
X9920648Y-115569127D01*
X9931858Y-115510727D01*
X9915258Y-115476473D01*
X9901609Y-115473334D01*
X9842948Y-115492174D01*
X9765488Y-115539853D01*
X9688028Y-115603110D01*
X9634123Y-115662032D01*
X9579229Y-115743307D01*
X9534136Y-115822454D01*
X9505346Y-115886298D01*
X9499363Y-115921660D01*
X9184993Y-115921660D01*
X9210818Y-115845629D01*
X9302887Y-115665786D01*
X9418256Y-115502734D01*
X9552057Y-115364980D01*
X9699418Y-115261031D01*
X9855471Y-115199396D01*
X9960967Y-115186027D01*
X10088509Y-115203240D01*
G37*
X10088509Y-115203240D02*
X10179054Y-115260980D01*
X10230481Y-115343397D01*
X10252407Y-115463196D01*
X10230870Y-115598454D01*
X10192753Y-115689400D01*
X10138077Y-115761410D01*
X10045198Y-115852050D01*
X9925062Y-115952193D01*
X9788615Y-116052711D01*
X9647343Y-116144155D01*
X9548476Y-116207892D01*
X9472650Y-116265398D01*
X9430600Y-116308138D01*
X9425556Y-116320476D01*
X9440981Y-116375462D01*
X9469489Y-116426610D01*
X9512612Y-116468090D01*
X9577619Y-116486425D01*
X9644023Y-116489334D01*
X9811494Y-116462119D01*
X9981009Y-116380000D01*
X10130277Y-116264311D01*
X10231860Y-116185320D01*
X10309212Y-116153347D01*
X10360397Y-116168956D01*
X10374930Y-116193063D01*
X10379310Y-116278427D01*
X10339205Y-116376464D01*
X10262793Y-116479529D01*
X10158250Y-116579980D01*
X10033753Y-116670172D01*
X9897479Y-116742462D01*
X9757604Y-116789207D01*
X9731488Y-116794535D01*
X9621377Y-116803981D01*
X9508230Y-116798582D01*
X9490750Y-116795919D01*
X9350201Y-116753473D01*
X9247950Y-116677667D01*
X9172942Y-116562752D01*
X9123112Y-116400823D01*
X9116061Y-116221655D01*
X9146920Y-116033754D01*
X9184993Y-115921660D01*
X9499363Y-115921660D01*
X9504401Y-115924889D01*
X9537611Y-115909169D01*
X9601617Y-115867982D01*
X9681514Y-115811008D01*
X9768604Y-115742419D01*
X9842798Y-115677186D01*
X9883539Y-115634619D01*
X9920648Y-115569127D01*
X9931858Y-115510727D01*
X9915258Y-115476473D01*
X9901609Y-115473334D01*
X9842948Y-115492174D01*
X9765488Y-115539853D01*
X9688028Y-115603110D01*
X9634123Y-115662032D01*
X9579229Y-115743307D01*
X9534136Y-115822454D01*
X9505346Y-115886298D01*
X9499363Y-115921660D01*
X9184993Y-115921660D01*
X9210818Y-115845629D01*
X9302887Y-115665786D01*
X9418256Y-115502734D01*
X9552057Y-115364980D01*
X9699418Y-115261031D01*
X9855471Y-115199396D01*
X9960967Y-115186027D01*
X10088509Y-115203240D01*
G36*
X11259321Y-114743213D02*
G01*
X11309389Y-114790133D01*
X11334075Y-114832165D01*
X11341877Y-114883301D01*
X11331894Y-114956389D01*
X11303227Y-115064273D01*
X11286246Y-115120310D01*
X11258594Y-115214658D01*
X11240837Y-115284837D01*
X11236561Y-115316566D01*
X11236857Y-115316976D01*
X11267067Y-115317220D01*
X11339150Y-115311146D01*
X11439046Y-115300004D01*
X11466726Y-115296571D01*
X11622575Y-115283716D01*
X11730542Y-115292011D01*
X11795645Y-115322909D01*
X11822898Y-115377862D01*
X11824445Y-115400157D01*
X11817552Y-115460701D01*
X11791810Y-115506080D01*
X11739625Y-115539559D01*
X11653402Y-115564405D01*
X11525546Y-115583881D01*
X11358778Y-115600369D01*
X11257610Y-115611664D01*
X11179427Y-115625166D01*
X11140570Y-115638028D01*
X11140061Y-115638493D01*
X11120195Y-115680994D01*
X11096111Y-115765611D01*
X11070502Y-115878439D01*
X11046057Y-116005574D01*
X11025470Y-116133110D01*
X11011430Y-116247145D01*
X11006611Y-116327942D01*
X11015935Y-116437448D01*
X11047017Y-116501510D01*
X11103034Y-116520562D01*
X11187164Y-116495038D01*
X11302584Y-116425371D01*
X11368667Y-116377410D01*
X11466567Y-116307695D01*
X11533566Y-116272922D01*
X11580529Y-116270065D01*
X11618318Y-116296094D01*
X11626585Y-116305523D01*
X11649641Y-116373894D01*
X11627793Y-116459422D01*
X11566540Y-116553860D01*
X11471383Y-116648961D01*
X11347822Y-116736477D01*
X11333706Y-116744728D01*
X11180065Y-116810333D01*
X11032067Y-116831363D01*
X10899787Y-116807586D01*
X10812807Y-116756785D01*
X10740911Y-116670960D01*
X10699103Y-116556125D01*
X10686249Y-116405820D01*
X10701214Y-116213587D01*
X10708494Y-116162620D01*
X10727224Y-116045372D01*
X10744498Y-115946663D01*
X10757559Y-115881892D01*
X10761148Y-115868445D01*
X10775858Y-115811458D01*
X10791186Y-115734389D01*
X10798326Y-115675581D01*
X10782898Y-115649519D01*
X10730900Y-115642874D01*
X10694850Y-115642667D01*
X10596588Y-115625124D01*
X10521038Y-115579722D01*
X10476545Y-115517300D01*
X10471454Y-115448697D01*
X10503645Y-115394311D01*
X10549484Y-115375847D01*
X10633730Y-115363692D01*
X10714523Y-115360445D01*
X10891535Y-115360445D01*
X10933130Y-115212278D01*
X10964284Y-115099268D01*
X10994956Y-114984866D01*
X11005963Y-114942678D01*
X11051711Y-114826114D01*
X11113990Y-114751601D01*
X11185595Y-114722760D01*
X11259321Y-114743213D01*
G37*
X11259321Y-114743213D02*
X11309389Y-114790133D01*
X11334075Y-114832165D01*
X11341877Y-114883301D01*
X11331894Y-114956389D01*
X11303227Y-115064273D01*
X11286246Y-115120310D01*
X11258594Y-115214658D01*
X11240837Y-115284837D01*
X11236561Y-115316566D01*
X11236857Y-115316976D01*
X11267067Y-115317220D01*
X11339150Y-115311146D01*
X11439046Y-115300004D01*
X11466726Y-115296571D01*
X11622575Y-115283716D01*
X11730542Y-115292011D01*
X11795645Y-115322909D01*
X11822898Y-115377862D01*
X11824445Y-115400157D01*
X11817552Y-115460701D01*
X11791810Y-115506080D01*
X11739625Y-115539559D01*
X11653402Y-115564405D01*
X11525546Y-115583881D01*
X11358778Y-115600369D01*
X11257610Y-115611664D01*
X11179427Y-115625166D01*
X11140570Y-115638028D01*
X11140061Y-115638493D01*
X11120195Y-115680994D01*
X11096111Y-115765611D01*
X11070502Y-115878439D01*
X11046057Y-116005574D01*
X11025470Y-116133110D01*
X11011430Y-116247145D01*
X11006611Y-116327942D01*
X11015935Y-116437448D01*
X11047017Y-116501510D01*
X11103034Y-116520562D01*
X11187164Y-116495038D01*
X11302584Y-116425371D01*
X11368667Y-116377410D01*
X11466567Y-116307695D01*
X11533566Y-116272922D01*
X11580529Y-116270065D01*
X11618318Y-116296094D01*
X11626585Y-116305523D01*
X11649641Y-116373894D01*
X11627793Y-116459422D01*
X11566540Y-116553860D01*
X11471383Y-116648961D01*
X11347822Y-116736477D01*
X11333706Y-116744728D01*
X11180065Y-116810333D01*
X11032067Y-116831363D01*
X10899787Y-116807586D01*
X10812807Y-116756785D01*
X10740911Y-116670960D01*
X10699103Y-116556125D01*
X10686249Y-116405820D01*
X10701214Y-116213587D01*
X10708494Y-116162620D01*
X10727224Y-116045372D01*
X10744498Y-115946663D01*
X10757559Y-115881892D01*
X10761148Y-115868445D01*
X10775858Y-115811458D01*
X10791186Y-115734389D01*
X10798326Y-115675581D01*
X10782898Y-115649519D01*
X10730900Y-115642874D01*
X10694850Y-115642667D01*
X10596588Y-115625124D01*
X10521038Y-115579722D01*
X10476545Y-115517300D01*
X10471454Y-115448697D01*
X10503645Y-115394311D01*
X10549484Y-115375847D01*
X10633730Y-115363692D01*
X10714523Y-115360445D01*
X10891535Y-115360445D01*
X10933130Y-115212278D01*
X10964284Y-115099268D01*
X10994956Y-114984866D01*
X11005963Y-114942678D01*
X11051711Y-114826114D01*
X11113990Y-114751601D01*
X11185595Y-114722760D01*
X11259321Y-114743213D01*
G36*
X30371663Y-114734718D02*
G01*
X30438519Y-114776037D01*
X30516123Y-114842789D01*
X30454809Y-115235672D01*
X30419963Y-115464779D01*
X30388041Y-115685812D01*
X30360141Y-115890258D01*
X30337363Y-116069604D01*
X30320806Y-116215337D01*
X30311571Y-116318942D01*
X30310000Y-116357128D01*
X30310000Y-116440178D01*
X30542834Y-116419236D01*
X30684802Y-116406189D01*
X30851575Y-116390452D01*
X31011798Y-116374990D01*
X31043778Y-116371848D01*
X31201621Y-116356849D01*
X31312958Y-116348519D01*
X31387385Y-116347323D01*
X31434497Y-116353726D01*
X31463891Y-116368193D01*
X31485162Y-116391189D01*
X31486724Y-116393307D01*
X31520837Y-116474510D01*
X31501453Y-116557155D01*
X31460056Y-116614670D01*
X31432408Y-116643291D01*
X31401672Y-116663457D01*
X31357671Y-116677009D01*
X31290232Y-116685784D01*
X31189180Y-116691622D01*
X31044339Y-116696362D01*
X31001445Y-116697553D01*
X30770016Y-116708580D01*
X30587291Y-116727438D01*
X30456820Y-116753753D01*
X30451111Y-116755446D01*
X30335452Y-116786000D01*
X30216186Y-116810705D01*
X30164659Y-116818566D01*
X30081633Y-116825183D01*
X30032883Y-116814181D01*
X29997267Y-116778678D01*
X29984444Y-116759878D01*
X29966378Y-116730346D01*
X29954213Y-116699977D01*
X29948320Y-116660456D01*
X29949071Y-116603468D01*
X29956839Y-116520698D01*
X29971994Y-116403830D01*
X29994908Y-116244550D01*
X30012938Y-116122445D01*
X30031103Y-115990583D01*
X30052612Y-115819972D01*
X30075372Y-115628043D01*
X30097292Y-115432228D01*
X30108862Y-115323110D01*
X30133682Y-115103951D01*
X30156968Y-114941042D01*
X30178709Y-114834438D01*
X30198896Y-114784196D01*
X30200176Y-114782861D01*
X30285437Y-114730574D01*
X30371663Y-114734718D01*
G37*
X30371663Y-114734718D02*
X30438519Y-114776037D01*
X30516123Y-114842789D01*
X30454809Y-115235672D01*
X30419963Y-115464779D01*
X30388041Y-115685812D01*
X30360141Y-115890258D01*
X30337363Y-116069604D01*
X30320806Y-116215337D01*
X30311571Y-116318942D01*
X30310000Y-116357128D01*
X30310000Y-116440178D01*
X30542834Y-116419236D01*
X30684802Y-116406189D01*
X30851575Y-116390452D01*
X31011798Y-116374990D01*
X31043778Y-116371848D01*
X31201621Y-116356849D01*
X31312958Y-116348519D01*
X31387385Y-116347323D01*
X31434497Y-116353726D01*
X31463891Y-116368193D01*
X31485162Y-116391189D01*
X31486724Y-116393307D01*
X31520837Y-116474510D01*
X31501453Y-116557155D01*
X31460056Y-116614670D01*
X31432408Y-116643291D01*
X31401672Y-116663457D01*
X31357671Y-116677009D01*
X31290232Y-116685784D01*
X31189180Y-116691622D01*
X31044339Y-116696362D01*
X31001445Y-116697553D01*
X30770016Y-116708580D01*
X30587291Y-116727438D01*
X30456820Y-116753753D01*
X30451111Y-116755446D01*
X30335452Y-116786000D01*
X30216186Y-116810705D01*
X30164659Y-116818566D01*
X30081633Y-116825183D01*
X30032883Y-116814181D01*
X29997267Y-116778678D01*
X29984444Y-116759878D01*
X29966378Y-116730346D01*
X29954213Y-116699977D01*
X29948320Y-116660456D01*
X29949071Y-116603468D01*
X29956839Y-116520698D01*
X29971994Y-116403830D01*
X29994908Y-116244550D01*
X30012938Y-116122445D01*
X30031103Y-115990583D01*
X30052612Y-115819972D01*
X30075372Y-115628043D01*
X30097292Y-115432228D01*
X30108862Y-115323110D01*
X30133682Y-115103951D01*
X30156968Y-114941042D01*
X30178709Y-114834438D01*
X30198896Y-114784196D01*
X30200176Y-114782861D01*
X30285437Y-114730574D01*
X30371663Y-114734718D01*
G36*
X35468373Y-114951496D02*
G01*
X35580478Y-114965721D01*
X35734556Y-114974716D01*
X35916352Y-114978225D01*
X36111613Y-114975991D01*
X36306086Y-114967760D01*
X36321334Y-114966825D01*
X36478397Y-114958653D01*
X36589577Y-114958269D01*
X36665095Y-114967279D01*
X36715172Y-114987290D01*
X36750030Y-115019911D01*
X36761473Y-115036042D01*
X36786622Y-115101954D01*
X36771853Y-115168812D01*
X36713633Y-115241441D01*
X36608427Y-115324663D01*
X36497547Y-115396333D01*
X36395313Y-115460180D01*
X36312291Y-115514606D01*
X36259719Y-115552105D01*
X36247455Y-115563378D01*
X36262948Y-115577703D01*
X36318835Y-115585652D01*
X36342768Y-115586223D01*
X36509082Y-115604764D01*
X36663298Y-115655975D01*
X36788038Y-115733231D01*
X36826269Y-115770489D01*
X36903305Y-115877137D01*
X36933036Y-115976321D01*
X36919042Y-116085004D01*
X36902758Y-116132972D01*
X36804358Y-116320477D01*
X36663814Y-116475982D01*
X36479611Y-116600379D01*
X36250234Y-116694562D01*
X35974169Y-116759422D01*
X35799222Y-116783204D01*
X35722934Y-116784658D01*
X35619372Y-116778614D01*
X35553154Y-116771589D01*
X35399461Y-116736690D01*
X35293915Y-116678391D01*
X35238114Y-116598375D01*
X35233652Y-116498323D01*
X35247845Y-116449747D01*
X35299341Y-116380631D01*
X35382941Y-116356987D01*
X35496989Y-116379051D01*
X35560313Y-116405126D01*
X35706717Y-116449833D01*
X35871881Y-116461482D01*
X36044296Y-116443510D01*
X36212453Y-116399355D01*
X36364843Y-116332453D01*
X36489957Y-116246241D01*
X36576288Y-116144158D01*
X36599098Y-116094878D01*
X36608410Y-116007549D01*
X36567253Y-115940260D01*
X36474283Y-115891603D01*
X36383754Y-115868988D01*
X36146324Y-115851776D01*
X35909146Y-115884701D01*
X35809786Y-115914795D01*
X35726706Y-115942516D01*
X35677869Y-115949541D01*
X35645165Y-115936272D01*
X35625883Y-115918867D01*
X35593525Y-115849842D01*
X35598271Y-115801373D01*
X35629223Y-115749015D01*
X35698450Y-115670898D01*
X35798421Y-115574243D01*
X35921606Y-115466270D01*
X36060472Y-115354203D01*
X36081484Y-115338025D01*
X36166111Y-115273272D01*
X35968556Y-115290432D01*
X35779481Y-115304670D01*
X35637437Y-115309694D01*
X35533707Y-115305127D01*
X35459574Y-115290591D01*
X35406872Y-115266071D01*
X35335793Y-115189076D01*
X35311204Y-115090801D01*
X35330735Y-115002587D01*
X35358578Y-114956582D01*
X35397693Y-114942311D01*
X35468373Y-114951496D01*
G37*
X35468373Y-114951496D02*
X35580478Y-114965721D01*
X35734556Y-114974716D01*
X35916352Y-114978225D01*
X36111613Y-114975991D01*
X36306086Y-114967760D01*
X36321334Y-114966825D01*
X36478397Y-114958653D01*
X36589577Y-114958269D01*
X36665095Y-114967279D01*
X36715172Y-114987290D01*
X36750030Y-115019911D01*
X36761473Y-115036042D01*
X36786622Y-115101954D01*
X36771853Y-115168812D01*
X36713633Y-115241441D01*
X36608427Y-115324663D01*
X36497547Y-115396333D01*
X36395313Y-115460180D01*
X36312291Y-115514606D01*
X36259719Y-115552105D01*
X36247455Y-115563378D01*
X36262948Y-115577703D01*
X36318835Y-115585652D01*
X36342768Y-115586223D01*
X36509082Y-115604764D01*
X36663298Y-115655975D01*
X36788038Y-115733231D01*
X36826269Y-115770489D01*
X36903305Y-115877137D01*
X36933036Y-115976321D01*
X36919042Y-116085004D01*
X36902758Y-116132972D01*
X36804358Y-116320477D01*
X36663814Y-116475982D01*
X36479611Y-116600379D01*
X36250234Y-116694562D01*
X35974169Y-116759422D01*
X35799222Y-116783204D01*
X35722934Y-116784658D01*
X35619372Y-116778614D01*
X35553154Y-116771589D01*
X35399461Y-116736690D01*
X35293915Y-116678391D01*
X35238114Y-116598375D01*
X35233652Y-116498323D01*
X35247845Y-116449747D01*
X35299341Y-116380631D01*
X35382941Y-116356987D01*
X35496989Y-116379051D01*
X35560313Y-116405126D01*
X35706717Y-116449833D01*
X35871881Y-116461482D01*
X36044296Y-116443510D01*
X36212453Y-116399355D01*
X36364843Y-116332453D01*
X36489957Y-116246241D01*
X36576288Y-116144158D01*
X36599098Y-116094878D01*
X36608410Y-116007549D01*
X36567253Y-115940260D01*
X36474283Y-115891603D01*
X36383754Y-115868988D01*
X36146324Y-115851776D01*
X35909146Y-115884701D01*
X35809786Y-115914795D01*
X35726706Y-115942516D01*
X35677869Y-115949541D01*
X35645165Y-115936272D01*
X35625883Y-115918867D01*
X35593525Y-115849842D01*
X35598271Y-115801373D01*
X35629223Y-115749015D01*
X35698450Y-115670898D01*
X35798421Y-115574243D01*
X35921606Y-115466270D01*
X36060472Y-115354203D01*
X36081484Y-115338025D01*
X36166111Y-115273272D01*
X35968556Y-115290432D01*
X35779481Y-115304670D01*
X35637437Y-115309694D01*
X35533707Y-115305127D01*
X35459574Y-115290591D01*
X35406872Y-115266071D01*
X35335793Y-115189076D01*
X35311204Y-115090801D01*
X35330735Y-115002587D01*
X35358578Y-114956582D01*
X35397693Y-114942311D01*
X35468373Y-114951496D01*
G36*
X35032388Y-96841062D02*
G01*
X35067804Y-96888640D01*
X35086733Y-96919664D01*
X35097034Y-96949313D01*
X35095463Y-96983933D01*
X35078776Y-97029866D01*
X35043730Y-97093455D01*
X34987083Y-97181046D01*
X34905591Y-97298981D01*
X34796011Y-97453605D01*
X34735769Y-97538111D01*
X34552661Y-97796275D01*
X34385505Y-98034764D01*
X34237137Y-98249397D01*
X34110389Y-98435995D01*
X34008097Y-98590376D01*
X33933096Y-98708360D01*
X33888219Y-98785768D01*
X33883776Y-98794620D01*
X33832914Y-98886624D01*
X33770145Y-98981672D01*
X33705072Y-99067280D01*
X33647301Y-99130962D01*
X33606438Y-99160233D01*
X33601989Y-99160889D01*
X33555181Y-99141582D01*
X33517596Y-99109278D01*
X33483652Y-99059746D01*
X33475033Y-99004431D01*
X33493315Y-98930495D01*
X33540073Y-98825102D01*
X33556518Y-98792093D01*
X33596343Y-98721274D01*
X33662398Y-98613157D01*
X33750145Y-98474511D01*
X33855046Y-98312107D01*
X33972561Y-98132712D01*
X34098152Y-97943096D01*
X34227282Y-97750028D01*
X34355410Y-97560277D01*
X34478000Y-97380613D01*
X34590512Y-97217804D01*
X34688408Y-97078620D01*
X34767149Y-96969830D01*
X34822196Y-96898203D01*
X34839906Y-96877936D01*
X34915511Y-96814543D01*
X34976205Y-96802088D01*
X35032388Y-96841062D01*
G37*
X35032388Y-96841062D02*
X35067804Y-96888640D01*
X35086733Y-96919664D01*
X35097034Y-96949313D01*
X35095463Y-96983933D01*
X35078776Y-97029866D01*
X35043730Y-97093455D01*
X34987083Y-97181046D01*
X34905591Y-97298981D01*
X34796011Y-97453605D01*
X34735769Y-97538111D01*
X34552661Y-97796275D01*
X34385505Y-98034764D01*
X34237137Y-98249397D01*
X34110389Y-98435995D01*
X34008097Y-98590376D01*
X33933096Y-98708360D01*
X33888219Y-98785768D01*
X33883776Y-98794620D01*
X33832914Y-98886624D01*
X33770145Y-98981672D01*
X33705072Y-99067280D01*
X33647301Y-99130962D01*
X33606438Y-99160233D01*
X33601989Y-99160889D01*
X33555181Y-99141582D01*
X33517596Y-99109278D01*
X33483652Y-99059746D01*
X33475033Y-99004431D01*
X33493315Y-98930495D01*
X33540073Y-98825102D01*
X33556518Y-98792093D01*
X33596343Y-98721274D01*
X33662398Y-98613157D01*
X33750145Y-98474511D01*
X33855046Y-98312107D01*
X33972561Y-98132712D01*
X34098152Y-97943096D01*
X34227282Y-97750028D01*
X34355410Y-97560277D01*
X34478000Y-97380613D01*
X34590512Y-97217804D01*
X34688408Y-97078620D01*
X34767149Y-96969830D01*
X34822196Y-96898203D01*
X34839906Y-96877936D01*
X34915511Y-96814543D01*
X34976205Y-96802088D01*
X35032388Y-96841062D01*
G36*
X32115727Y-96961710D02*
G01*
X32174615Y-97019747D01*
X32176717Y-97023568D01*
X32189108Y-97070326D01*
X32189765Y-97148578D01*
X32178348Y-97267008D01*
X32162781Y-97379876D01*
X32142375Y-97522745D01*
X32123759Y-97662579D01*
X32109586Y-97779010D01*
X32104384Y-97828454D01*
X32090407Y-97977685D01*
X32166815Y-97922176D01*
X32230926Y-97868556D01*
X32320235Y-97784600D01*
X32425139Y-97680368D01*
X32536036Y-97565920D01*
X32643325Y-97451315D01*
X32737401Y-97346615D01*
X32808664Y-97261880D01*
X32844949Y-97211699D01*
X32919038Y-97102047D01*
X32984375Y-97042076D01*
X33047559Y-97027152D01*
X33090419Y-97039329D01*
X33156665Y-97090061D01*
X33193953Y-97143332D01*
X33208553Y-97197375D01*
X33201027Y-97256259D01*
X33167502Y-97325580D01*
X33104104Y-97410935D01*
X33006958Y-97517917D01*
X32872189Y-97652123D01*
X32782067Y-97738206D01*
X32666251Y-97848553D01*
X32566228Y-97945390D01*
X32488636Y-98022162D01*
X32440116Y-98072316D01*
X32426679Y-98089014D01*
X32447815Y-98111607D01*
X32505032Y-98160526D01*
X32589022Y-98228542D01*
X32690478Y-98308425D01*
X32800094Y-98392945D01*
X32908563Y-98474872D01*
X33006578Y-98546976D01*
X33084832Y-98602029D01*
X33100590Y-98612524D01*
X33213779Y-98669947D01*
X33333288Y-98705300D01*
X33354590Y-98708441D01*
X33435537Y-98721573D01*
X33475943Y-98743257D01*
X33491688Y-98783686D01*
X33493605Y-98797681D01*
X33477357Y-98884667D01*
X33434808Y-98950277D01*
X33373265Y-99003766D01*
X33301905Y-99027153D01*
X33215320Y-99018625D01*
X33108100Y-98976371D01*
X32974837Y-98898580D01*
X32810122Y-98783440D01*
X32708889Y-98707166D01*
X32528089Y-98569943D01*
X32374684Y-98456567D01*
X32252566Y-98369786D01*
X32165625Y-98312349D01*
X32117754Y-98287003D01*
X32112537Y-98286000D01*
X32078196Y-98310145D01*
X32048586Y-98384098D01*
X32023055Y-98510133D01*
X32003334Y-98667000D01*
X31981735Y-98835308D01*
X31955840Y-98955139D01*
X31923278Y-99034431D01*
X31881681Y-99081120D01*
X31879164Y-99082846D01*
X31803341Y-99102917D01*
X31725941Y-99074252D01*
X31706532Y-99057612D01*
X31674379Y-98999118D01*
X31671316Y-98908394D01*
X31672654Y-98895334D01*
X31713687Y-98530157D01*
X31749107Y-98216912D01*
X31779541Y-97951432D01*
X31805617Y-97729549D01*
X31827961Y-97547097D01*
X31847203Y-97399909D01*
X31863969Y-97283817D01*
X31878887Y-97194656D01*
X31892584Y-97128257D01*
X31905689Y-97080455D01*
X31918828Y-97047082D01*
X31932630Y-97023971D01*
X31947721Y-97006956D01*
X31958538Y-96997175D01*
X32039953Y-96953733D01*
X32115727Y-96961710D01*
G37*
X32115727Y-96961710D02*
X32174615Y-97019747D01*
X32176717Y-97023568D01*
X32189108Y-97070326D01*
X32189765Y-97148578D01*
X32178348Y-97267008D01*
X32162781Y-97379876D01*
X32142375Y-97522745D01*
X32123759Y-97662579D01*
X32109586Y-97779010D01*
X32104384Y-97828454D01*
X32090407Y-97977685D01*
X32166815Y-97922176D01*
X32230926Y-97868556D01*
X32320235Y-97784600D01*
X32425139Y-97680368D01*
X32536036Y-97565920D01*
X32643325Y-97451315D01*
X32737401Y-97346615D01*
X32808664Y-97261880D01*
X32844949Y-97211699D01*
X32919038Y-97102047D01*
X32984375Y-97042076D01*
X33047559Y-97027152D01*
X33090419Y-97039329D01*
X33156665Y-97090061D01*
X33193953Y-97143332D01*
X33208553Y-97197375D01*
X33201027Y-97256259D01*
X33167502Y-97325580D01*
X33104104Y-97410935D01*
X33006958Y-97517917D01*
X32872189Y-97652123D01*
X32782067Y-97738206D01*
X32666251Y-97848553D01*
X32566228Y-97945390D01*
X32488636Y-98022162D01*
X32440116Y-98072316D01*
X32426679Y-98089014D01*
X32447815Y-98111607D01*
X32505032Y-98160526D01*
X32589022Y-98228542D01*
X32690478Y-98308425D01*
X32800094Y-98392945D01*
X32908563Y-98474872D01*
X33006578Y-98546976D01*
X33084832Y-98602029D01*
X33100590Y-98612524D01*
X33213779Y-98669947D01*
X33333288Y-98705300D01*
X33354590Y-98708441D01*
X33435537Y-98721573D01*
X33475943Y-98743257D01*
X33491688Y-98783686D01*
X33493605Y-98797681D01*
X33477357Y-98884667D01*
X33434808Y-98950277D01*
X33373265Y-99003766D01*
X33301905Y-99027153D01*
X33215320Y-99018625D01*
X33108100Y-98976371D01*
X32974837Y-98898580D01*
X32810122Y-98783440D01*
X32708889Y-98707166D01*
X32528089Y-98569943D01*
X32374684Y-98456567D01*
X32252566Y-98369786D01*
X32165625Y-98312349D01*
X32117754Y-98287003D01*
X32112537Y-98286000D01*
X32078196Y-98310145D01*
X32048586Y-98384098D01*
X32023055Y-98510133D01*
X32003334Y-98667000D01*
X31981735Y-98835308D01*
X31955840Y-98955139D01*
X31923278Y-99034431D01*
X31881681Y-99081120D01*
X31879164Y-99082846D01*
X31803341Y-99102917D01*
X31725941Y-99074252D01*
X31706532Y-99057612D01*
X31674379Y-98999118D01*
X31671316Y-98908394D01*
X31672654Y-98895334D01*
X31713687Y-98530157D01*
X31749107Y-98216912D01*
X31779541Y-97951432D01*
X31805617Y-97729549D01*
X31827961Y-97547097D01*
X31847203Y-97399909D01*
X31863969Y-97283817D01*
X31878887Y-97194656D01*
X31892584Y-97128257D01*
X31905689Y-97080455D01*
X31918828Y-97047082D01*
X31932630Y-97023971D01*
X31947721Y-97006956D01*
X31958538Y-96997175D01*
X32039953Y-96953733D01*
X32115727Y-96961710D01*
G36*
X29466124Y-96854632D02*
G01*
X29578686Y-96886430D01*
X29685790Y-96956180D01*
X29751751Y-97046981D01*
X29782818Y-97170195D01*
X29787303Y-97265783D01*
X29784549Y-97366863D01*
X29772458Y-97431305D01*
X29744056Y-97478868D01*
X29695136Y-97526839D01*
X29596107Y-97594793D01*
X29514600Y-97611379D01*
X29455510Y-97580239D01*
X29423728Y-97505018D01*
X29424147Y-97389358D01*
X29434411Y-97332659D01*
X29452370Y-97239587D01*
X29453374Y-97183575D01*
X29436837Y-97147665D01*
X29427668Y-97137572D01*
X29365825Y-97113545D01*
X29274356Y-97127444D01*
X29160995Y-97174886D01*
X29033477Y-97251484D01*
X28899534Y-97352856D01*
X28766902Y-97474616D01*
X28692089Y-97554589D01*
X28567404Y-97718344D01*
X28459639Y-97902543D01*
X28376458Y-98091114D01*
X28325523Y-98267984D01*
X28314604Y-98346216D01*
X28309663Y-98452498D01*
X28317778Y-98524931D01*
X28343142Y-98585412D01*
X28367826Y-98624256D01*
X28427949Y-98696384D01*
X28491941Y-98750559D01*
X28504625Y-98757895D01*
X28625324Y-98789367D01*
X28775047Y-98780471D01*
X28945628Y-98733297D01*
X29128903Y-98649940D01*
X29277307Y-98559872D01*
X29373933Y-98498923D01*
X29438032Y-98470596D01*
X29479924Y-98470767D01*
X29488974Y-98475293D01*
X29536158Y-98531193D01*
X29534182Y-98604663D01*
X29485706Y-98690894D01*
X29393390Y-98785083D01*
X29265653Y-98878747D01*
X29086772Y-98972338D01*
X28893796Y-99036944D01*
X28701186Y-99069829D01*
X28523404Y-99068255D01*
X28405000Y-99041587D01*
X28274456Y-98978124D01*
X28154306Y-98889879D01*
X28062758Y-98791398D01*
X28034875Y-98745883D01*
X27998892Y-98630563D01*
X27982001Y-98480216D01*
X27983973Y-98312848D01*
X28004577Y-98146466D01*
X28043581Y-97999076D01*
X28044481Y-97996623D01*
X28140041Y-97794822D01*
X28275506Y-97587030D01*
X28439767Y-97385737D01*
X28621712Y-97203433D01*
X28810230Y-97052609D01*
X28968503Y-96957913D01*
X29143163Y-96889273D01*
X29313301Y-96854346D01*
X29466124Y-96854632D01*
G37*
X29466124Y-96854632D02*
X29578686Y-96886430D01*
X29685790Y-96956180D01*
X29751751Y-97046981D01*
X29782818Y-97170195D01*
X29787303Y-97265783D01*
X29784549Y-97366863D01*
X29772458Y-97431305D01*
X29744056Y-97478868D01*
X29695136Y-97526839D01*
X29596107Y-97594793D01*
X29514600Y-97611379D01*
X29455510Y-97580239D01*
X29423728Y-97505018D01*
X29424147Y-97389358D01*
X29434411Y-97332659D01*
X29452370Y-97239587D01*
X29453374Y-97183575D01*
X29436837Y-97147665D01*
X29427668Y-97137572D01*
X29365825Y-97113545D01*
X29274356Y-97127444D01*
X29160995Y-97174886D01*
X29033477Y-97251484D01*
X28899534Y-97352856D01*
X28766902Y-97474616D01*
X28692089Y-97554589D01*
X28567404Y-97718344D01*
X28459639Y-97902543D01*
X28376458Y-98091114D01*
X28325523Y-98267984D01*
X28314604Y-98346216D01*
X28309663Y-98452498D01*
X28317778Y-98524931D01*
X28343142Y-98585412D01*
X28367826Y-98624256D01*
X28427949Y-98696384D01*
X28491941Y-98750559D01*
X28504625Y-98757895D01*
X28625324Y-98789367D01*
X28775047Y-98780471D01*
X28945628Y-98733297D01*
X29128903Y-98649940D01*
X29277307Y-98559872D01*
X29373933Y-98498923D01*
X29438032Y-98470596D01*
X29479924Y-98470767D01*
X29488974Y-98475293D01*
X29536158Y-98531193D01*
X29534182Y-98604663D01*
X29485706Y-98690894D01*
X29393390Y-98785083D01*
X29265653Y-98878747D01*
X29086772Y-98972338D01*
X28893796Y-99036944D01*
X28701186Y-99069829D01*
X28523404Y-99068255D01*
X28405000Y-99041587D01*
X28274456Y-98978124D01*
X28154306Y-98889879D01*
X28062758Y-98791398D01*
X28034875Y-98745883D01*
X27998892Y-98630563D01*
X27982001Y-98480216D01*
X27983973Y-98312848D01*
X28004577Y-98146466D01*
X28043581Y-97999076D01*
X28044481Y-97996623D01*
X28140041Y-97794822D01*
X28275506Y-97587030D01*
X28439767Y-97385737D01*
X28621712Y-97203433D01*
X28810230Y-97052609D01*
X28968503Y-96957913D01*
X29143163Y-96889273D01*
X29313301Y-96854346D01*
X29466124Y-96854632D01*
G36*
X30371663Y-96954718D02*
G01*
X30438519Y-96996037D01*
X30516123Y-97062789D01*
X30454809Y-97455672D01*
X30419963Y-97684779D01*
X30388041Y-97905812D01*
X30360141Y-98110258D01*
X30337363Y-98289604D01*
X30320806Y-98435337D01*
X30311571Y-98538942D01*
X30310000Y-98577128D01*
X30310000Y-98660178D01*
X30542834Y-98639236D01*
X30684802Y-98626189D01*
X30851575Y-98610452D01*
X31011798Y-98594990D01*
X31043778Y-98591848D01*
X31201621Y-98576849D01*
X31312958Y-98568519D01*
X31387385Y-98567323D01*
X31434497Y-98573726D01*
X31463891Y-98588193D01*
X31485162Y-98611189D01*
X31486724Y-98613307D01*
X31520812Y-98694327D01*
X31501658Y-98777063D01*
X31460056Y-98835464D01*
X31432559Y-98864379D01*
X31402248Y-98884730D01*
X31358954Y-98898364D01*
X31292510Y-98907126D01*
X31192749Y-98912860D01*
X31049501Y-98917412D01*
X31001445Y-98918694D01*
X30771767Y-98929346D01*
X30589597Y-98947750D01*
X30459031Y-98973483D01*
X30451111Y-98975793D01*
X30335400Y-99006157D01*
X30216094Y-99030740D01*
X30164659Y-99038566D01*
X30081633Y-99045183D01*
X30032883Y-99034181D01*
X29997267Y-98998678D01*
X29984444Y-98979878D01*
X29966378Y-98950346D01*
X29954213Y-98919977D01*
X29948320Y-98880456D01*
X29949071Y-98823468D01*
X29956839Y-98740698D01*
X29971994Y-98623830D01*
X29994908Y-98464550D01*
X30012938Y-98342445D01*
X30031103Y-98210583D01*
X30052612Y-98039972D01*
X30075372Y-97848043D01*
X30097292Y-97652228D01*
X30108862Y-97543110D01*
X30133682Y-97323951D01*
X30156968Y-97161042D01*
X30178709Y-97054438D01*
X30198896Y-97004196D01*
X30200176Y-97002861D01*
X30285437Y-96950574D01*
X30371663Y-96954718D01*
G37*
X30371663Y-96954718D02*
X30438519Y-96996037D01*
X30516123Y-97062789D01*
X30454809Y-97455672D01*
X30419963Y-97684779D01*
X30388041Y-97905812D01*
X30360141Y-98110258D01*
X30337363Y-98289604D01*
X30320806Y-98435337D01*
X30311571Y-98538942D01*
X30310000Y-98577128D01*
X30310000Y-98660178D01*
X30542834Y-98639236D01*
X30684802Y-98626189D01*
X30851575Y-98610452D01*
X31011798Y-98594990D01*
X31043778Y-98591848D01*
X31201621Y-98576849D01*
X31312958Y-98568519D01*
X31387385Y-98567323D01*
X31434497Y-98573726D01*
X31463891Y-98588193D01*
X31485162Y-98611189D01*
X31486724Y-98613307D01*
X31520812Y-98694327D01*
X31501658Y-98777063D01*
X31460056Y-98835464D01*
X31432559Y-98864379D01*
X31402248Y-98884730D01*
X31358954Y-98898364D01*
X31292510Y-98907126D01*
X31192749Y-98912860D01*
X31049501Y-98917412D01*
X31001445Y-98918694D01*
X30771767Y-98929346D01*
X30589597Y-98947750D01*
X30459031Y-98973483D01*
X30451111Y-98975793D01*
X30335400Y-99006157D01*
X30216094Y-99030740D01*
X30164659Y-99038566D01*
X30081633Y-99045183D01*
X30032883Y-99034181D01*
X29997267Y-98998678D01*
X29984444Y-98979878D01*
X29966378Y-98950346D01*
X29954213Y-98919977D01*
X29948320Y-98880456D01*
X29949071Y-98823468D01*
X29956839Y-98740698D01*
X29971994Y-98623830D01*
X29994908Y-98464550D01*
X30012938Y-98342445D01*
X30031103Y-98210583D01*
X30052612Y-98039972D01*
X30075372Y-97848043D01*
X30097292Y-97652228D01*
X30108862Y-97543110D01*
X30133682Y-97323951D01*
X30156968Y-97161042D01*
X30178709Y-97054438D01*
X30198896Y-97004196D01*
X30200176Y-97002861D01*
X30285437Y-96950574D01*
X30371663Y-96954718D01*
G36*
X36357797Y-97070314D02*
G01*
X36394996Y-97106791D01*
X36429549Y-97168527D01*
X36451872Y-97232044D01*
X36443468Y-97291665D01*
X36425079Y-97335257D01*
X36394637Y-97418244D01*
X36362316Y-97536699D01*
X36329794Y-97680287D01*
X36298749Y-97838670D01*
X36270860Y-98001511D01*
X36247804Y-98158472D01*
X36231260Y-98299216D01*
X36222906Y-98413405D01*
X36224421Y-98490703D01*
X36233028Y-98518233D01*
X36267633Y-98521674D01*
X36342605Y-98512717D01*
X36443707Y-98493265D01*
X36477366Y-98485582D01*
X36602601Y-98458475D01*
X36724410Y-98436304D01*
X36818657Y-98423409D01*
X36827092Y-98422682D01*
X36905376Y-98419679D01*
X36945902Y-98432676D01*
X36966916Y-98470642D01*
X36973962Y-98494889D01*
X36984199Y-98565089D01*
X36968430Y-98620546D01*
X36920705Y-98664715D01*
X36835074Y-98701052D01*
X36705585Y-98733012D01*
X36526288Y-98764050D01*
X36504778Y-98767329D01*
X36402816Y-98785747D01*
X36322636Y-98805790D01*
X36281023Y-98823233D01*
X36280411Y-98823804D01*
X36267961Y-98847691D01*
X36274349Y-98850445D01*
X36279805Y-98870799D01*
X36266884Y-98903161D01*
X36211996Y-98953311D01*
X36130794Y-98976671D01*
X36048677Y-98969074D01*
X36007104Y-98945797D01*
X35966333Y-98918565D01*
X35916822Y-98914865D01*
X35836783Y-98933143D01*
X35835312Y-98933556D01*
X35671499Y-98978328D01*
X35552172Y-99007405D01*
X35468104Y-99022426D01*
X35410063Y-99025030D01*
X35368822Y-99016857D01*
X35368001Y-99016557D01*
X35308544Y-98973675D01*
X35272404Y-98921940D01*
X35257664Y-98863947D01*
X35273989Y-98814080D01*
X35326170Y-98769697D01*
X35419001Y-98728156D01*
X35557272Y-98686813D01*
X35745775Y-98643028D01*
X35798119Y-98632049D01*
X35909904Y-98608960D01*
X35946950Y-98313425D01*
X35967671Y-98155205D01*
X35991394Y-97984884D01*
X36014144Y-97830676D01*
X36022372Y-97778000D01*
X36038376Y-97668290D01*
X36048112Y-97581629D01*
X36050170Y-97531631D01*
X36048576Y-97524998D01*
X36019202Y-97528336D01*
X35988369Y-97545945D01*
X35896246Y-97602871D01*
X35781424Y-97662365D01*
X35664062Y-97715032D01*
X35564321Y-97751472D01*
X35527964Y-97760562D01*
X35434346Y-97761173D01*
X35380164Y-97721452D01*
X35364931Y-97640963D01*
X35366794Y-97617429D01*
X35380543Y-97569113D01*
X35416948Y-97528835D01*
X35487973Y-97485882D01*
X35545222Y-97457665D01*
X35640450Y-97409557D01*
X35765962Y-97342171D01*
X35903693Y-97265361D01*
X36007011Y-97205814D01*
X36143183Y-97128124D01*
X36240979Y-97080179D01*
X36309487Y-97061176D01*
X36357797Y-97070314D01*
G37*
X36357797Y-97070314D02*
X36394996Y-97106791D01*
X36429549Y-97168527D01*
X36451872Y-97232044D01*
X36443468Y-97291665D01*
X36425079Y-97335257D01*
X36394637Y-97418244D01*
X36362316Y-97536699D01*
X36329794Y-97680287D01*
X36298749Y-97838670D01*
X36270860Y-98001511D01*
X36247804Y-98158472D01*
X36231260Y-98299216D01*
X36222906Y-98413405D01*
X36224421Y-98490703D01*
X36233028Y-98518233D01*
X36267633Y-98521674D01*
X36342605Y-98512717D01*
X36443707Y-98493265D01*
X36477366Y-98485582D01*
X36602601Y-98458475D01*
X36724410Y-98436304D01*
X36818657Y-98423409D01*
X36827092Y-98422682D01*
X36905376Y-98419679D01*
X36945902Y-98432676D01*
X36966916Y-98470642D01*
X36973962Y-98494889D01*
X36984199Y-98565089D01*
X36968430Y-98620546D01*
X36920705Y-98664715D01*
X36835074Y-98701052D01*
X36705585Y-98733012D01*
X36526288Y-98764050D01*
X36504778Y-98767329D01*
X36402816Y-98785747D01*
X36322636Y-98805790D01*
X36281023Y-98823233D01*
X36280411Y-98823804D01*
X36267961Y-98847691D01*
X36274349Y-98850445D01*
X36279805Y-98870799D01*
X36266884Y-98903161D01*
X36211996Y-98953311D01*
X36130794Y-98976671D01*
X36048677Y-98969074D01*
X36007104Y-98945797D01*
X35966333Y-98918565D01*
X35916822Y-98914865D01*
X35836783Y-98933143D01*
X35835312Y-98933556D01*
X35671499Y-98978328D01*
X35552172Y-99007405D01*
X35468104Y-99022426D01*
X35410063Y-99025030D01*
X35368822Y-99016857D01*
X35368001Y-99016557D01*
X35308544Y-98973675D01*
X35272404Y-98921940D01*
X35257664Y-98863947D01*
X35273989Y-98814080D01*
X35326170Y-98769697D01*
X35419001Y-98728156D01*
X35557272Y-98686813D01*
X35745775Y-98643028D01*
X35798119Y-98632049D01*
X35909904Y-98608960D01*
X35946950Y-98313425D01*
X35967671Y-98155205D01*
X35991394Y-97984884D01*
X36014144Y-97830676D01*
X36022372Y-97778000D01*
X36038376Y-97668290D01*
X36048112Y-97581629D01*
X36050170Y-97531631D01*
X36048576Y-97524998D01*
X36019202Y-97528336D01*
X35988369Y-97545945D01*
X35896246Y-97602871D01*
X35781424Y-97662365D01*
X35664062Y-97715032D01*
X35564321Y-97751472D01*
X35527964Y-97760562D01*
X35434346Y-97761173D01*
X35380164Y-97721452D01*
X35364931Y-97640963D01*
X35366794Y-97617429D01*
X35380543Y-97569113D01*
X35416948Y-97528835D01*
X35487973Y-97485882D01*
X35545222Y-97457665D01*
X35640450Y-97409557D01*
X35765962Y-97342171D01*
X35903693Y-97265361D01*
X36007011Y-97205814D01*
X36143183Y-97128124D01*
X36240979Y-97080179D01*
X36309487Y-97061176D01*
X36357797Y-97070314D01*
G36*
X38351589Y-97148695D02*
G01*
X38421021Y-97197547D01*
X38462122Y-97259592D01*
X38466222Y-97284111D01*
X38442628Y-97344232D01*
X38385958Y-97401097D01*
X38317381Y-97435847D01*
X38291987Y-97439334D01*
X38246553Y-97459783D01*
X38174186Y-97515215D01*
X38083484Y-97596757D01*
X37983048Y-97695537D01*
X37881478Y-97802682D01*
X37787373Y-97909319D01*
X37709335Y-98006575D01*
X37655961Y-98085578D01*
X37644800Y-98107054D01*
X37588948Y-98261750D01*
X37570581Y-98395984D01*
X37590316Y-98501500D01*
X37612548Y-98538354D01*
X37667813Y-98606603D01*
X37688374Y-98497003D01*
X37741738Y-98333298D01*
X37832478Y-98183064D01*
X37950161Y-98058693D01*
X38084356Y-97972579D01*
X38149666Y-97948979D01*
X38279162Y-97924749D01*
X38420794Y-97915017D01*
X38555653Y-97919609D01*
X38664825Y-97938350D01*
X38706111Y-97954120D01*
X38835630Y-98045917D01*
X38918762Y-98158015D01*
X38952279Y-98283471D01*
X38932955Y-98415341D01*
X38927397Y-98430108D01*
X38852859Y-98552339D01*
X38734205Y-98671872D01*
X38583551Y-98781158D01*
X38413016Y-98872649D01*
X38234719Y-98938793D01*
X38060778Y-98972043D01*
X38057000Y-98972354D01*
X37954616Y-98978876D01*
X37873856Y-98980974D01*
X37831736Y-98978218D01*
X37831222Y-98978048D01*
X37786743Y-98967106D01*
X37712596Y-98952863D01*
X37694633Y-98949780D01*
X37576806Y-98903924D01*
X37459633Y-98814877D01*
X37354024Y-98707518D01*
X37293127Y-98616536D01*
X37930000Y-98616536D01*
X37936635Y-98657197D01*
X37966661Y-98676010D01*
X38035258Y-98681045D01*
X38051459Y-98681111D01*
X38170111Y-98663915D01*
X38298835Y-98618102D01*
X38314470Y-98610573D01*
X38415696Y-98552845D01*
X38515776Y-98483642D01*
X38602979Y-98412593D01*
X38665571Y-98349330D01*
X38691821Y-98303483D01*
X38692000Y-98300673D01*
X38666456Y-98259392D01*
X38598949Y-98228802D01*
X38503174Y-98210178D01*
X38392821Y-98204794D01*
X38281582Y-98213925D01*
X38183150Y-98238844D01*
X38155778Y-98250766D01*
X38074320Y-98315444D01*
X38000455Y-98414085D01*
X37947856Y-98524535D01*
X37930000Y-98616536D01*
X37293127Y-98616536D01*
X37290274Y-98612275D01*
X37261374Y-98513017D01*
X37260315Y-98393614D01*
X37263154Y-98362737D01*
X37287863Y-98218495D01*
X37333934Y-98080912D01*
X37406499Y-97940950D01*
X37510689Y-97789573D01*
X37651635Y-97617741D01*
X37746556Y-97511380D01*
X37907340Y-97347704D01*
X38050335Y-97228069D01*
X38172792Y-97154469D01*
X38271964Y-97128897D01*
X38273505Y-97128889D01*
X38351589Y-97148695D01*
G37*
X38351589Y-97148695D02*
X38421021Y-97197547D01*
X38462122Y-97259592D01*
X38466222Y-97284111D01*
X38442628Y-97344232D01*
X38385958Y-97401097D01*
X38317381Y-97435847D01*
X38291987Y-97439334D01*
X38246553Y-97459783D01*
X38174186Y-97515215D01*
X38083484Y-97596757D01*
X37983048Y-97695537D01*
X37881478Y-97802682D01*
X37787373Y-97909319D01*
X37709335Y-98006575D01*
X37655961Y-98085578D01*
X37644800Y-98107054D01*
X37588948Y-98261750D01*
X37570581Y-98395984D01*
X37590316Y-98501500D01*
X37612548Y-98538354D01*
X37667813Y-98606603D01*
X37688374Y-98497003D01*
X37741738Y-98333298D01*
X37832478Y-98183064D01*
X37950161Y-98058693D01*
X38084356Y-97972579D01*
X38149666Y-97948979D01*
X38279162Y-97924749D01*
X38420794Y-97915017D01*
X38555653Y-97919609D01*
X38664825Y-97938350D01*
X38706111Y-97954120D01*
X38835630Y-98045917D01*
X38918762Y-98158015D01*
X38952279Y-98283471D01*
X38932955Y-98415341D01*
X38927397Y-98430108D01*
X38852859Y-98552339D01*
X38734205Y-98671872D01*
X38583551Y-98781158D01*
X38413016Y-98872649D01*
X38234719Y-98938793D01*
X38060778Y-98972043D01*
X38057000Y-98972354D01*
X37954616Y-98978876D01*
X37873856Y-98980974D01*
X37831736Y-98978218D01*
X37831222Y-98978048D01*
X37786743Y-98967106D01*
X37712596Y-98952863D01*
X37694633Y-98949780D01*
X37576806Y-98903924D01*
X37459633Y-98814877D01*
X37354024Y-98707518D01*
X37293127Y-98616536D01*
X37930000Y-98616536D01*
X37936635Y-98657197D01*
X37966661Y-98676010D01*
X38035258Y-98681045D01*
X38051459Y-98681111D01*
X38170111Y-98663915D01*
X38298835Y-98618102D01*
X38314470Y-98610573D01*
X38415696Y-98552845D01*
X38515776Y-98483642D01*
X38602979Y-98412593D01*
X38665571Y-98349330D01*
X38691821Y-98303483D01*
X38692000Y-98300673D01*
X38666456Y-98259392D01*
X38598949Y-98228802D01*
X38503174Y-98210178D01*
X38392821Y-98204794D01*
X38281582Y-98213925D01*
X38183150Y-98238844D01*
X38155778Y-98250766D01*
X38074320Y-98315444D01*
X38000455Y-98414085D01*
X37947856Y-98524535D01*
X37930000Y-98616536D01*
X37293127Y-98616536D01*
X37290274Y-98612275D01*
X37261374Y-98513017D01*
X37260315Y-98393614D01*
X37263154Y-98362737D01*
X37287863Y-98218495D01*
X37333934Y-98080912D01*
X37406499Y-97940950D01*
X37510689Y-97789573D01*
X37651635Y-97617741D01*
X37746556Y-97511380D01*
X37907340Y-97347704D01*
X38050335Y-97228069D01*
X38172792Y-97154469D01*
X38271964Y-97128897D01*
X38273505Y-97128889D01*
X38351589Y-97148695D01*
G36*
X35348448Y-79023050D02*
G01*
X35375225Y-79033007D01*
X35442566Y-79090729D01*
X35467125Y-79175204D01*
X35446223Y-79273467D01*
X35431039Y-79303095D01*
X35395063Y-79359021D01*
X35333745Y-79448611D01*
X35255266Y-79560116D01*
X35167808Y-79681790D01*
X35155894Y-79698170D01*
X35065910Y-79824318D01*
X34952447Y-79987400D01*
X34822585Y-80176897D01*
X34683405Y-80382287D01*
X34541985Y-80593048D01*
X34405406Y-80798659D01*
X34280748Y-80988599D01*
X34175092Y-81152347D01*
X34139054Y-81209239D01*
X34070137Y-81310122D01*
X34015922Y-81363729D01*
X33967714Y-81374151D01*
X33916818Y-81345480D01*
X33894222Y-81324445D01*
X33852743Y-81271293D01*
X33838250Y-81232723D01*
X33854501Y-81177809D01*
X33900014Y-81082933D01*
X33971250Y-80954070D01*
X34064668Y-80797193D01*
X34176728Y-80618275D01*
X34303891Y-80423290D01*
X34419417Y-80252000D01*
X34538194Y-80077883D01*
X34662721Y-79894267D01*
X34783436Y-79715326D01*
X34890774Y-79555233D01*
X34971617Y-79433556D01*
X35076491Y-79276645D01*
X35157243Y-79162370D01*
X35219344Y-79085303D01*
X35268264Y-79040013D01*
X35309476Y-79021072D01*
X35348448Y-79023050D01*
G37*
X35348448Y-79023050D02*
X35375225Y-79033007D01*
X35442566Y-79090729D01*
X35467125Y-79175204D01*
X35446223Y-79273467D01*
X35431039Y-79303095D01*
X35395063Y-79359021D01*
X35333745Y-79448611D01*
X35255266Y-79560116D01*
X35167808Y-79681790D01*
X35155894Y-79698170D01*
X35065910Y-79824318D01*
X34952447Y-79987400D01*
X34822585Y-80176897D01*
X34683405Y-80382287D01*
X34541985Y-80593048D01*
X34405406Y-80798659D01*
X34280748Y-80988599D01*
X34175092Y-81152347D01*
X34139054Y-81209239D01*
X34070137Y-81310122D01*
X34015922Y-81363729D01*
X33967714Y-81374151D01*
X33916818Y-81345480D01*
X33894222Y-81324445D01*
X33852743Y-81271293D01*
X33838250Y-81232723D01*
X33854501Y-81177809D01*
X33900014Y-81082933D01*
X33971250Y-80954070D01*
X34064668Y-80797193D01*
X34176728Y-80618275D01*
X34303891Y-80423290D01*
X34419417Y-80252000D01*
X34538194Y-80077883D01*
X34662721Y-79894267D01*
X34783436Y-79715326D01*
X34890774Y-79555233D01*
X34971617Y-79433556D01*
X35076491Y-79276645D01*
X35157243Y-79162370D01*
X35219344Y-79085303D01*
X35268264Y-79040013D01*
X35309476Y-79021072D01*
X35348448Y-79023050D01*
G36*
X32478423Y-79177093D02*
G01*
X32482570Y-79179266D01*
X32529977Y-79214462D01*
X32558591Y-79265042D01*
X32569445Y-79340254D01*
X32563571Y-79449342D01*
X32542005Y-79601554D01*
X32534661Y-79645223D01*
X32513234Y-79785584D01*
X32497535Y-79918878D01*
X32489427Y-80027290D01*
X32489307Y-80079553D01*
X32497222Y-80203439D01*
X32800700Y-79910220D01*
X32921147Y-79789181D01*
X33037983Y-79663524D01*
X33139429Y-79546453D01*
X33213705Y-79451177D01*
X33225795Y-79433603D01*
X33289634Y-79344988D01*
X33348002Y-79277219D01*
X33389938Y-79242765D01*
X33395125Y-79241017D01*
X33440370Y-79254539D01*
X33502560Y-79296496D01*
X33563361Y-79351262D01*
X33604437Y-79403212D01*
X33612000Y-79425860D01*
X33590760Y-79487219D01*
X33530530Y-79577471D01*
X33436551Y-79690440D01*
X33314061Y-79819950D01*
X33168299Y-79959824D01*
X33128201Y-79996258D01*
X33016803Y-80097273D01*
X32921521Y-80185372D01*
X32849761Y-80253575D01*
X32808927Y-80294898D01*
X32802372Y-80303451D01*
X32821557Y-80326925D01*
X32877818Y-80376778D01*
X32962529Y-80446259D01*
X33067066Y-80528618D01*
X33182806Y-80617103D01*
X33301123Y-80704964D01*
X33413396Y-80785450D01*
X33454722Y-80814097D01*
X33602449Y-80893486D01*
X33730766Y-80923521D01*
X33812144Y-80933906D01*
X33851942Y-80951464D01*
X33864931Y-80986673D01*
X33866000Y-81019446D01*
X33845829Y-81137104D01*
X33788320Y-81213926D01*
X33697982Y-81246954D01*
X33579324Y-81233235D01*
X33552914Y-81224735D01*
X33452212Y-81177315D01*
X33318794Y-81096281D01*
X33160727Y-80987039D01*
X32986079Y-80854997D01*
X32906445Y-80791382D01*
X32777803Y-80691502D01*
X32662239Y-80610358D01*
X32567679Y-80552895D01*
X32502051Y-80524055D01*
X32477242Y-80523739D01*
X32438248Y-80577361D01*
X32408005Y-80685060D01*
X32386313Y-80847618D01*
X32382317Y-80895409D01*
X32357784Y-81081232D01*
X32316331Y-81213614D01*
X32257748Y-81293027D01*
X32195601Y-81319093D01*
X32122692Y-81308129D01*
X32075494Y-81260300D01*
X32050333Y-81207590D01*
X32045164Y-81144284D01*
X32058446Y-81049296D01*
X32059629Y-81043010D01*
X32070560Y-80972473D01*
X32085832Y-80855751D01*
X32104264Y-80702834D01*
X32124674Y-80523712D01*
X32145878Y-80328373D01*
X32158500Y-80207456D01*
X32185821Y-79946918D01*
X32209419Y-79736762D01*
X32230437Y-79571137D01*
X32250016Y-79444190D01*
X32269296Y-79350069D01*
X32289419Y-79282921D01*
X32311525Y-79236895D01*
X32336757Y-79206139D01*
X32356777Y-79190635D01*
X32419842Y-79163003D01*
X32478423Y-79177093D01*
G37*
X32478423Y-79177093D02*
X32482570Y-79179266D01*
X32529977Y-79214462D01*
X32558591Y-79265042D01*
X32569445Y-79340254D01*
X32563571Y-79449342D01*
X32542005Y-79601554D01*
X32534661Y-79645223D01*
X32513234Y-79785584D01*
X32497535Y-79918878D01*
X32489427Y-80027290D01*
X32489307Y-80079553D01*
X32497222Y-80203439D01*
X32800700Y-79910220D01*
X32921147Y-79789181D01*
X33037983Y-79663524D01*
X33139429Y-79546453D01*
X33213705Y-79451177D01*
X33225795Y-79433603D01*
X33289634Y-79344988D01*
X33348002Y-79277219D01*
X33389938Y-79242765D01*
X33395125Y-79241017D01*
X33440370Y-79254539D01*
X33502560Y-79296496D01*
X33563361Y-79351262D01*
X33604437Y-79403212D01*
X33612000Y-79425860D01*
X33590760Y-79487219D01*
X33530530Y-79577471D01*
X33436551Y-79690440D01*
X33314061Y-79819950D01*
X33168299Y-79959824D01*
X33128201Y-79996258D01*
X33016803Y-80097273D01*
X32921521Y-80185372D01*
X32849761Y-80253575D01*
X32808927Y-80294898D01*
X32802372Y-80303451D01*
X32821557Y-80326925D01*
X32877818Y-80376778D01*
X32962529Y-80446259D01*
X33067066Y-80528618D01*
X33182806Y-80617103D01*
X33301123Y-80704964D01*
X33413396Y-80785450D01*
X33454722Y-80814097D01*
X33602449Y-80893486D01*
X33730766Y-80923521D01*
X33812144Y-80933906D01*
X33851942Y-80951464D01*
X33864931Y-80986673D01*
X33866000Y-81019446D01*
X33845829Y-81137104D01*
X33788320Y-81213926D01*
X33697982Y-81246954D01*
X33579324Y-81233235D01*
X33552914Y-81224735D01*
X33452212Y-81177315D01*
X33318794Y-81096281D01*
X33160727Y-80987039D01*
X32986079Y-80854997D01*
X32906445Y-80791382D01*
X32777803Y-80691502D01*
X32662239Y-80610358D01*
X32567679Y-80552895D01*
X32502051Y-80524055D01*
X32477242Y-80523739D01*
X32438248Y-80577361D01*
X32408005Y-80685060D01*
X32386313Y-80847618D01*
X32382317Y-80895409D01*
X32357784Y-81081232D01*
X32316331Y-81213614D01*
X32257748Y-81293027D01*
X32195601Y-81319093D01*
X32122692Y-81308129D01*
X32075494Y-81260300D01*
X32050333Y-81207590D01*
X32045164Y-81144284D01*
X32058446Y-81049296D01*
X32059629Y-81043010D01*
X32070560Y-80972473D01*
X32085832Y-80855751D01*
X32104264Y-80702834D01*
X32124674Y-80523712D01*
X32145878Y-80328373D01*
X32158500Y-80207456D01*
X32185821Y-79946918D01*
X32209419Y-79736762D01*
X32230437Y-79571137D01*
X32250016Y-79444190D01*
X32269296Y-79350069D01*
X32289419Y-79282921D01*
X32311525Y-79236895D01*
X32336757Y-79206139D01*
X32356777Y-79190635D01*
X32419842Y-79163003D01*
X32478423Y-79177093D01*
G36*
X29870606Y-79079041D02*
G01*
X29997174Y-79126726D01*
X30091410Y-79215072D01*
X30149778Y-79342781D01*
X30168784Y-79499844D01*
X30165535Y-79598059D01*
X30150518Y-79661623D01*
X30116058Y-79712179D01*
X30081238Y-79746788D01*
X29985611Y-79811063D01*
X29900506Y-79824412D01*
X29834927Y-79791941D01*
X29797876Y-79718759D01*
X29798355Y-79609971D01*
X29802706Y-79588778D01*
X29826118Y-79458034D01*
X29822018Y-79374245D01*
X29787094Y-79333369D01*
X29718033Y-79331368D01*
X29616864Y-79362146D01*
X29423332Y-79462731D01*
X29234077Y-79611662D01*
X29056792Y-79800941D01*
X28899172Y-80022575D01*
X28791429Y-80219847D01*
X28735417Y-80347799D01*
X28704333Y-80452285D01*
X28691947Y-80556900D01*
X28690853Y-80600847D01*
X28709549Y-80762228D01*
X28765917Y-80884284D01*
X28856478Y-80966323D01*
X28977753Y-81007654D01*
X29126263Y-81007584D01*
X29298529Y-80965423D01*
X29491072Y-80880477D01*
X29643608Y-80790288D01*
X29741688Y-80729058D01*
X29805646Y-80697424D01*
X29846572Y-80691189D01*
X29872651Y-80703635D01*
X29912896Y-80766880D01*
X29899241Y-80845347D01*
X29831590Y-80939347D01*
X29785902Y-80984596D01*
X29612522Y-81115615D01*
X29419265Y-81212488D01*
X29217258Y-81272647D01*
X29017626Y-81293525D01*
X28831494Y-81272556D01*
X28715239Y-81231625D01*
X28553811Y-81126989D01*
X28438009Y-80990581D01*
X28368418Y-80824653D01*
X28345629Y-80631458D01*
X28370228Y-80413247D01*
X28440373Y-80178628D01*
X28538887Y-79977125D01*
X28678343Y-79770871D01*
X28846939Y-79572910D01*
X29032872Y-79396284D01*
X29224342Y-79254038D01*
X29332271Y-79192925D01*
X29534618Y-79110843D01*
X29715242Y-79073314D01*
X29870606Y-79079041D01*
G37*
X29870606Y-79079041D02*
X29997174Y-79126726D01*
X30091410Y-79215072D01*
X30149778Y-79342781D01*
X30168784Y-79499844D01*
X30165535Y-79598059D01*
X30150518Y-79661623D01*
X30116058Y-79712179D01*
X30081238Y-79746788D01*
X29985611Y-79811063D01*
X29900506Y-79824412D01*
X29834927Y-79791941D01*
X29797876Y-79718759D01*
X29798355Y-79609971D01*
X29802706Y-79588778D01*
X29826118Y-79458034D01*
X29822018Y-79374245D01*
X29787094Y-79333369D01*
X29718033Y-79331368D01*
X29616864Y-79362146D01*
X29423332Y-79462731D01*
X29234077Y-79611662D01*
X29056792Y-79800941D01*
X28899172Y-80022575D01*
X28791429Y-80219847D01*
X28735417Y-80347799D01*
X28704333Y-80452285D01*
X28691947Y-80556900D01*
X28690853Y-80600847D01*
X28709549Y-80762228D01*
X28765917Y-80884284D01*
X28856478Y-80966323D01*
X28977753Y-81007654D01*
X29126263Y-81007584D01*
X29298529Y-80965423D01*
X29491072Y-80880477D01*
X29643608Y-80790288D01*
X29741688Y-80729058D01*
X29805646Y-80697424D01*
X29846572Y-80691189D01*
X29872651Y-80703635D01*
X29912896Y-80766880D01*
X29899241Y-80845347D01*
X29831590Y-80939347D01*
X29785902Y-80984596D01*
X29612522Y-81115615D01*
X29419265Y-81212488D01*
X29217258Y-81272647D01*
X29017626Y-81293525D01*
X28831494Y-81272556D01*
X28715239Y-81231625D01*
X28553811Y-81126989D01*
X28438009Y-80990581D01*
X28368418Y-80824653D01*
X28345629Y-80631458D01*
X28370228Y-80413247D01*
X28440373Y-80178628D01*
X28538887Y-79977125D01*
X28678343Y-79770871D01*
X28846939Y-79572910D01*
X29032872Y-79396284D01*
X29224342Y-79254038D01*
X29332271Y-79192925D01*
X29534618Y-79110843D01*
X29715242Y-79073314D01*
X29870606Y-79079041D01*
G36*
X30769181Y-79173242D02*
G01*
X30818863Y-79202801D01*
X30866818Y-79277401D01*
X30880682Y-79393840D01*
X30860208Y-79548789D01*
X30848014Y-79599678D01*
X30835164Y-79662843D01*
X30818314Y-79765595D01*
X30798691Y-79898199D01*
X30777525Y-80050917D01*
X30756045Y-80214014D01*
X30735479Y-80377753D01*
X30717056Y-80532398D01*
X30702004Y-80668213D01*
X30691553Y-80775460D01*
X30686930Y-80844405D01*
X30688274Y-80865460D01*
X30720889Y-80869049D01*
X30798342Y-80867554D01*
X30909344Y-80861881D01*
X31042609Y-80852934D01*
X31186849Y-80841620D01*
X31330774Y-80828843D01*
X31463099Y-80815509D01*
X31572534Y-80802524D01*
X31647793Y-80790793D01*
X31663730Y-80787214D01*
X31767811Y-80780170D01*
X31844787Y-80815613D01*
X31885936Y-80888053D01*
X31890445Y-80929984D01*
X31871841Y-81007409D01*
X31826027Y-81078051D01*
X31768001Y-81121910D01*
X31742278Y-81127574D01*
X31508436Y-81132810D01*
X31321494Y-81138979D01*
X31171908Y-81146934D01*
X31050135Y-81157531D01*
X30946631Y-81171623D01*
X30851852Y-81190063D01*
X30756254Y-81213706D01*
X30744613Y-81216841D01*
X30611787Y-81248900D01*
X30506367Y-81266505D01*
X30439998Y-81267841D01*
X30431601Y-81265700D01*
X30386030Y-81229054D01*
X30344374Y-81166223D01*
X30318154Y-81099383D01*
X30318893Y-81050710D01*
X30319430Y-81049797D01*
X30329120Y-81012112D01*
X30343857Y-80926605D01*
X30362557Y-80801562D01*
X30384133Y-80645272D01*
X30407500Y-80466021D01*
X30431575Y-80272097D01*
X30455271Y-80071788D01*
X30477503Y-79873381D01*
X30494098Y-79715778D01*
X30513864Y-79534125D01*
X30532802Y-79400450D01*
X30553954Y-79306419D01*
X30580363Y-79243697D01*
X30615070Y-79203951D01*
X30661116Y-79178848D01*
X30694122Y-79167741D01*
X30769181Y-79173242D01*
G37*
X30769181Y-79173242D02*
X30818863Y-79202801D01*
X30866818Y-79277401D01*
X30880682Y-79393840D01*
X30860208Y-79548789D01*
X30848014Y-79599678D01*
X30835164Y-79662843D01*
X30818314Y-79765595D01*
X30798691Y-79898199D01*
X30777525Y-80050917D01*
X30756045Y-80214014D01*
X30735479Y-80377753D01*
X30717056Y-80532398D01*
X30702004Y-80668213D01*
X30691553Y-80775460D01*
X30686930Y-80844405D01*
X30688274Y-80865460D01*
X30720889Y-80869049D01*
X30798342Y-80867554D01*
X30909344Y-80861881D01*
X31042609Y-80852934D01*
X31186849Y-80841620D01*
X31330774Y-80828843D01*
X31463099Y-80815509D01*
X31572534Y-80802524D01*
X31647793Y-80790793D01*
X31663730Y-80787214D01*
X31767811Y-80780170D01*
X31844787Y-80815613D01*
X31885936Y-80888053D01*
X31890445Y-80929984D01*
X31871841Y-81007409D01*
X31826027Y-81078051D01*
X31768001Y-81121910D01*
X31742278Y-81127574D01*
X31508436Y-81132810D01*
X31321494Y-81138979D01*
X31171908Y-81146934D01*
X31050135Y-81157531D01*
X30946631Y-81171623D01*
X30851852Y-81190063D01*
X30756254Y-81213706D01*
X30744613Y-81216841D01*
X30611787Y-81248900D01*
X30506367Y-81266505D01*
X30439998Y-81267841D01*
X30431601Y-81265700D01*
X30386030Y-81229054D01*
X30344374Y-81166223D01*
X30318154Y-81099383D01*
X30318893Y-81050710D01*
X30319430Y-81049797D01*
X30329120Y-81012112D01*
X30343857Y-80926605D01*
X30362557Y-80801562D01*
X30384133Y-80645272D01*
X30407500Y-80466021D01*
X30431575Y-80272097D01*
X30455271Y-80071788D01*
X30477503Y-79873381D01*
X30494098Y-79715778D01*
X30513864Y-79534125D01*
X30532802Y-79400450D01*
X30553954Y-79306419D01*
X30580363Y-79243697D01*
X30615070Y-79203951D01*
X30661116Y-79178848D01*
X30694122Y-79167741D01*
X30769181Y-79173242D01*
G36*
X36697506Y-79393150D02*
G01*
X36815992Y-79435389D01*
X36917670Y-79495013D01*
X36984242Y-79563210D01*
X36990580Y-79574667D01*
X37026553Y-79626449D01*
X37058186Y-79645223D01*
X37096616Y-79665924D01*
X37144203Y-79716046D01*
X37146471Y-79719047D01*
X37181465Y-79773349D01*
X37184198Y-79817306D01*
X37156405Y-79880246D01*
X37156044Y-79880944D01*
X37065781Y-80016496D01*
X36944570Y-80146578D01*
X36821470Y-80242853D01*
X36712442Y-80311680D01*
X36826788Y-80394512D01*
X36914778Y-80471237D01*
X36995907Y-80562462D01*
X37015845Y-80590239D01*
X37062556Y-80672726D01*
X37080319Y-80748502D01*
X37076888Y-80845377D01*
X37046849Y-80979133D01*
X36998668Y-81056333D01*
X36908871Y-81120766D01*
X36778135Y-81174905D01*
X36621545Y-81215337D01*
X36454184Y-81238649D01*
X36291137Y-81241431D01*
X36214180Y-81233796D01*
X36041451Y-81190125D01*
X35916731Y-81120284D01*
X35840558Y-81028634D01*
X35813467Y-80919536D01*
X35825762Y-80852852D01*
X36135291Y-80852852D01*
X36138214Y-80916303D01*
X36193448Y-80959322D01*
X36300612Y-80981711D01*
X36390228Y-80985158D01*
X36552146Y-80969461D01*
X36681167Y-80930094D01*
X36762528Y-80884075D01*
X36797750Y-80837534D01*
X36801111Y-80814111D01*
X36780923Y-80760346D01*
X36729626Y-80688602D01*
X36661121Y-80613432D01*
X36589309Y-80549388D01*
X36528090Y-80511022D01*
X36506802Y-80506000D01*
X36461521Y-80525510D01*
X36392554Y-80576036D01*
X36312758Y-80645575D01*
X36234990Y-80722126D01*
X36172106Y-80793684D01*
X36136961Y-80848247D01*
X36135291Y-80852852D01*
X35825762Y-80852852D01*
X35835995Y-80797353D01*
X35908676Y-80666445D01*
X36032048Y-80531174D01*
X36118914Y-80458632D01*
X36235757Y-80368930D01*
X36144490Y-80312327D01*
X36000816Y-80203004D01*
X35903254Y-80084352D01*
X35854476Y-79961794D01*
X35854728Y-79950395D01*
X36167994Y-79950395D01*
X36203881Y-79995092D01*
X36272587Y-80051377D01*
X36355763Y-80107006D01*
X36435059Y-80149735D01*
X36492128Y-80167322D01*
X36493107Y-80167334D01*
X36536841Y-80147283D01*
X36600511Y-80095218D01*
X36657602Y-80036360D01*
X36721841Y-79952617D01*
X36763166Y-79877387D01*
X36772889Y-79838805D01*
X36747676Y-79757244D01*
X36684060Y-79691984D01*
X36600076Y-79660181D01*
X36584244Y-79659334D01*
X36491638Y-79674558D01*
X36392116Y-79714553D01*
X36297862Y-79770796D01*
X36221063Y-79834767D01*
X36173902Y-79897947D01*
X36167994Y-79950395D01*
X35854728Y-79950395D01*
X35857156Y-79840749D01*
X35880942Y-79777922D01*
X35948786Y-79690565D01*
X36056593Y-79599838D01*
X36189186Y-79514437D01*
X36331390Y-79443055D01*
X36468026Y-79394389D01*
X36580508Y-79377111D01*
X36697506Y-79393150D01*
G37*
X36697506Y-79393150D02*
X36815992Y-79435389D01*
X36917670Y-79495013D01*
X36984242Y-79563210D01*
X36990580Y-79574667D01*
X37026553Y-79626449D01*
X37058186Y-79645223D01*
X37096616Y-79665924D01*
X37144203Y-79716046D01*
X37146471Y-79719047D01*
X37181465Y-79773349D01*
X37184198Y-79817306D01*
X37156405Y-79880246D01*
X37156044Y-79880944D01*
X37065781Y-80016496D01*
X36944570Y-80146578D01*
X36821470Y-80242853D01*
X36712442Y-80311680D01*
X36826788Y-80394512D01*
X36914778Y-80471237D01*
X36995907Y-80562462D01*
X37015845Y-80590239D01*
X37062556Y-80672726D01*
X37080319Y-80748502D01*
X37076888Y-80845377D01*
X37046849Y-80979133D01*
X36998668Y-81056333D01*
X36908871Y-81120766D01*
X36778135Y-81174905D01*
X36621545Y-81215337D01*
X36454184Y-81238649D01*
X36291137Y-81241431D01*
X36214180Y-81233796D01*
X36041451Y-81190125D01*
X35916731Y-81120284D01*
X35840558Y-81028634D01*
X35813467Y-80919536D01*
X35825762Y-80852852D01*
X36135291Y-80852852D01*
X36138214Y-80916303D01*
X36193448Y-80959322D01*
X36300612Y-80981711D01*
X36390228Y-80985158D01*
X36552146Y-80969461D01*
X36681167Y-80930094D01*
X36762528Y-80884075D01*
X36797750Y-80837534D01*
X36801111Y-80814111D01*
X36780923Y-80760346D01*
X36729626Y-80688602D01*
X36661121Y-80613432D01*
X36589309Y-80549388D01*
X36528090Y-80511022D01*
X36506802Y-80506000D01*
X36461521Y-80525510D01*
X36392554Y-80576036D01*
X36312758Y-80645575D01*
X36234990Y-80722126D01*
X36172106Y-80793684D01*
X36136961Y-80848247D01*
X36135291Y-80852852D01*
X35825762Y-80852852D01*
X35835995Y-80797353D01*
X35908676Y-80666445D01*
X36032048Y-80531174D01*
X36118914Y-80458632D01*
X36235757Y-80368930D01*
X36144490Y-80312327D01*
X36000816Y-80203004D01*
X35903254Y-80084352D01*
X35854476Y-79961794D01*
X35854728Y-79950395D01*
X36167994Y-79950395D01*
X36203881Y-79995092D01*
X36272587Y-80051377D01*
X36355763Y-80107006D01*
X36435059Y-80149735D01*
X36492128Y-80167322D01*
X36493107Y-80167334D01*
X36536841Y-80147283D01*
X36600511Y-80095218D01*
X36657602Y-80036360D01*
X36721841Y-79952617D01*
X36763166Y-79877387D01*
X36772889Y-79838805D01*
X36747676Y-79757244D01*
X36684060Y-79691984D01*
X36600076Y-79660181D01*
X36584244Y-79659334D01*
X36491638Y-79674558D01*
X36392116Y-79714553D01*
X36297862Y-79770796D01*
X36221063Y-79834767D01*
X36173902Y-79897947D01*
X36167994Y-79950395D01*
X35854728Y-79950395D01*
X35857156Y-79840749D01*
X35880942Y-79777922D01*
X35948786Y-79690565D01*
X36056593Y-79599838D01*
X36189186Y-79514437D01*
X36331390Y-79443055D01*
X36468026Y-79394389D01*
X36580508Y-79377111D01*
X36697506Y-79393150D01*
G36*
X35387774Y-61257254D02*
G01*
X35448159Y-61318135D01*
X35466905Y-61404992D01*
X35441640Y-61503256D01*
X35431039Y-61523095D01*
X35395063Y-61579021D01*
X35333745Y-61668611D01*
X35255266Y-61780116D01*
X35167808Y-61901790D01*
X35155894Y-61918170D01*
X35065910Y-62044318D01*
X34952447Y-62207400D01*
X34822585Y-62396897D01*
X34683405Y-62602287D01*
X34541985Y-62813048D01*
X34405406Y-63018659D01*
X34280748Y-63208599D01*
X34175092Y-63372347D01*
X34139054Y-63429239D01*
X34070137Y-63530122D01*
X34015922Y-63583729D01*
X33967714Y-63594151D01*
X33916818Y-63565480D01*
X33894222Y-63544445D01*
X33852743Y-63491293D01*
X33838250Y-63452723D01*
X33854501Y-63397809D01*
X33900014Y-63302933D01*
X33971250Y-63174070D01*
X34064668Y-63017193D01*
X34176728Y-62838275D01*
X34303891Y-62643290D01*
X34419417Y-62472000D01*
X34538649Y-62297183D01*
X34664047Y-62112196D01*
X34785918Y-61931416D01*
X34894570Y-61769216D01*
X34976036Y-61646465D01*
X35084444Y-61486241D01*
X35170436Y-61370596D01*
X35239034Y-61294783D01*
X35295261Y-61254052D01*
X35344139Y-61243658D01*
X35387774Y-61257254D01*
G37*
X35387774Y-61257254D02*
X35448159Y-61318135D01*
X35466905Y-61404992D01*
X35441640Y-61503256D01*
X35431039Y-61523095D01*
X35395063Y-61579021D01*
X35333745Y-61668611D01*
X35255266Y-61780116D01*
X35167808Y-61901790D01*
X35155894Y-61918170D01*
X35065910Y-62044318D01*
X34952447Y-62207400D01*
X34822585Y-62396897D01*
X34683405Y-62602287D01*
X34541985Y-62813048D01*
X34405406Y-63018659D01*
X34280748Y-63208599D01*
X34175092Y-63372347D01*
X34139054Y-63429239D01*
X34070137Y-63530122D01*
X34015922Y-63583729D01*
X33967714Y-63594151D01*
X33916818Y-63565480D01*
X33894222Y-63544445D01*
X33852743Y-63491293D01*
X33838250Y-63452723D01*
X33854501Y-63397809D01*
X33900014Y-63302933D01*
X33971250Y-63174070D01*
X34064668Y-63017193D01*
X34176728Y-62838275D01*
X34303891Y-62643290D01*
X34419417Y-62472000D01*
X34538649Y-62297183D01*
X34664047Y-62112196D01*
X34785918Y-61931416D01*
X34894570Y-61769216D01*
X34976036Y-61646465D01*
X35084444Y-61486241D01*
X35170436Y-61370596D01*
X35239034Y-61294783D01*
X35295261Y-61254052D01*
X35344139Y-61243658D01*
X35387774Y-61257254D01*
G36*
X32478423Y-61397093D02*
G01*
X32482570Y-61399266D01*
X32529977Y-61434462D01*
X32558591Y-61485042D01*
X32569445Y-61560254D01*
X32563571Y-61669342D01*
X32542005Y-61821554D01*
X32534661Y-61865223D01*
X32513233Y-62005593D01*
X32497535Y-62138905D01*
X32489426Y-62247339D01*
X32489307Y-62299615D01*
X32497222Y-62423564D01*
X32789808Y-62144393D01*
X32910558Y-62023861D01*
X33029248Y-61896092D01*
X33133006Y-61775515D01*
X33208963Y-61676559D01*
X33215015Y-61667693D01*
X33281418Y-61575759D01*
X33341921Y-61504190D01*
X33386185Y-61464845D01*
X33395237Y-61460996D01*
X33440425Y-61474527D01*
X33502568Y-61516490D01*
X33563342Y-61571256D01*
X33604420Y-61623195D01*
X33612000Y-61645860D01*
X33590760Y-61707219D01*
X33530530Y-61797471D01*
X33436551Y-61910440D01*
X33314061Y-62039950D01*
X33168299Y-62179824D01*
X33128201Y-62216258D01*
X33016761Y-62317283D01*
X32921385Y-62405388D01*
X32849493Y-62473591D01*
X32808503Y-62514908D01*
X32801863Y-62523451D01*
X32821406Y-62550055D01*
X32885018Y-62606189D01*
X32990026Y-62689747D01*
X33133753Y-62798621D01*
X33313525Y-62930703D01*
X33378003Y-62977365D01*
X33494049Y-63056854D01*
X33583703Y-63106279D01*
X33662725Y-63133113D01*
X33727772Y-63143233D01*
X33810278Y-63153591D01*
X33851059Y-63170646D01*
X33864730Y-63204570D01*
X33866000Y-63239446D01*
X33845829Y-63357104D01*
X33788320Y-63433926D01*
X33697982Y-63466954D01*
X33579324Y-63453235D01*
X33552914Y-63444735D01*
X33452212Y-63397315D01*
X33318794Y-63316281D01*
X33160727Y-63207039D01*
X32986079Y-63074997D01*
X32906445Y-63011382D01*
X32777803Y-62911502D01*
X32662239Y-62830358D01*
X32567679Y-62772895D01*
X32502051Y-62744055D01*
X32477242Y-62743739D01*
X32438248Y-62797361D01*
X32408005Y-62905060D01*
X32386313Y-63067618D01*
X32382317Y-63115409D01*
X32357784Y-63301232D01*
X32316331Y-63433614D01*
X32257748Y-63513027D01*
X32195601Y-63539093D01*
X32122692Y-63528129D01*
X32075494Y-63480300D01*
X32050333Y-63427590D01*
X32045164Y-63364284D01*
X32058446Y-63269296D01*
X32059629Y-63263010D01*
X32070560Y-63192473D01*
X32085832Y-63075751D01*
X32104264Y-62922834D01*
X32124674Y-62743712D01*
X32145878Y-62548373D01*
X32158500Y-62427456D01*
X32185821Y-62166918D01*
X32209419Y-61956762D01*
X32230437Y-61791137D01*
X32250016Y-61664190D01*
X32269296Y-61570069D01*
X32289419Y-61502921D01*
X32311525Y-61456895D01*
X32336757Y-61426139D01*
X32356777Y-61410635D01*
X32419842Y-61383003D01*
X32478423Y-61397093D01*
G37*
X32478423Y-61397093D02*
X32482570Y-61399266D01*
X32529977Y-61434462D01*
X32558591Y-61485042D01*
X32569445Y-61560254D01*
X32563571Y-61669342D01*
X32542005Y-61821554D01*
X32534661Y-61865223D01*
X32513233Y-62005593D01*
X32497535Y-62138905D01*
X32489426Y-62247339D01*
X32489307Y-62299615D01*
X32497222Y-62423564D01*
X32789808Y-62144393D01*
X32910558Y-62023861D01*
X33029248Y-61896092D01*
X33133006Y-61775515D01*
X33208963Y-61676559D01*
X33215015Y-61667693D01*
X33281418Y-61575759D01*
X33341921Y-61504190D01*
X33386185Y-61464845D01*
X33395237Y-61460996D01*
X33440425Y-61474527D01*
X33502568Y-61516490D01*
X33563342Y-61571256D01*
X33604420Y-61623195D01*
X33612000Y-61645860D01*
X33590760Y-61707219D01*
X33530530Y-61797471D01*
X33436551Y-61910440D01*
X33314061Y-62039950D01*
X33168299Y-62179824D01*
X33128201Y-62216258D01*
X33016761Y-62317283D01*
X32921385Y-62405388D01*
X32849493Y-62473591D01*
X32808503Y-62514908D01*
X32801863Y-62523451D01*
X32821406Y-62550055D01*
X32885018Y-62606189D01*
X32990026Y-62689747D01*
X33133753Y-62798621D01*
X33313525Y-62930703D01*
X33378003Y-62977365D01*
X33494049Y-63056854D01*
X33583703Y-63106279D01*
X33662725Y-63133113D01*
X33727772Y-63143233D01*
X33810278Y-63153591D01*
X33851059Y-63170646D01*
X33864730Y-63204570D01*
X33866000Y-63239446D01*
X33845829Y-63357104D01*
X33788320Y-63433926D01*
X33697982Y-63466954D01*
X33579324Y-63453235D01*
X33552914Y-63444735D01*
X33452212Y-63397315D01*
X33318794Y-63316281D01*
X33160727Y-63207039D01*
X32986079Y-63074997D01*
X32906445Y-63011382D01*
X32777803Y-62911502D01*
X32662239Y-62830358D01*
X32567679Y-62772895D01*
X32502051Y-62744055D01*
X32477242Y-62743739D01*
X32438248Y-62797361D01*
X32408005Y-62905060D01*
X32386313Y-63067618D01*
X32382317Y-63115409D01*
X32357784Y-63301232D01*
X32316331Y-63433614D01*
X32257748Y-63513027D01*
X32195601Y-63539093D01*
X32122692Y-63528129D01*
X32075494Y-63480300D01*
X32050333Y-63427590D01*
X32045164Y-63364284D01*
X32058446Y-63269296D01*
X32059629Y-63263010D01*
X32070560Y-63192473D01*
X32085832Y-63075751D01*
X32104264Y-62922834D01*
X32124674Y-62743712D01*
X32145878Y-62548373D01*
X32158500Y-62427456D01*
X32185821Y-62166918D01*
X32209419Y-61956762D01*
X32230437Y-61791137D01*
X32250016Y-61664190D01*
X32269296Y-61570069D01*
X32289419Y-61502921D01*
X32311525Y-61456895D01*
X32336757Y-61426139D01*
X32356777Y-61410635D01*
X32419842Y-61383003D01*
X32478423Y-61397093D01*
G36*
X29870506Y-61299078D02*
G01*
X29997112Y-61346699D01*
X30091389Y-61434935D01*
X30149783Y-61562484D01*
X30168784Y-61719227D01*
X30165107Y-61818930D01*
X30149009Y-61884490D01*
X30113123Y-61937985D01*
X30086393Y-61966171D01*
X29996779Y-62029235D01*
X29912077Y-62044961D01*
X29842897Y-62018752D01*
X29799852Y-61956011D01*
X29793552Y-61862141D01*
X29802382Y-61821557D01*
X29826614Y-61702111D01*
X29825100Y-61610605D01*
X29798420Y-61557131D01*
X29786825Y-61550464D01*
X29712090Y-61548482D01*
X29609512Y-61582616D01*
X29488527Y-61646604D01*
X29358576Y-61734186D01*
X29229096Y-61839098D01*
X29109526Y-61955080D01*
X29023189Y-62057088D01*
X28882975Y-62264795D01*
X28780212Y-62465059D01*
X28715556Y-62652903D01*
X28689663Y-62823349D01*
X28703190Y-62971418D01*
X28756792Y-63092132D01*
X28851126Y-63180513D01*
X28873456Y-63193109D01*
X29003959Y-63229734D01*
X29161772Y-63221288D01*
X29341867Y-63168965D01*
X29539218Y-63073956D01*
X29643608Y-63010288D01*
X29741688Y-62949058D01*
X29805646Y-62917424D01*
X29846572Y-62911189D01*
X29872651Y-62923635D01*
X29912896Y-62986880D01*
X29899241Y-63065347D01*
X29831590Y-63159347D01*
X29785902Y-63204596D01*
X29612522Y-63335615D01*
X29419265Y-63432488D01*
X29217258Y-63492647D01*
X29017626Y-63513525D01*
X28831494Y-63492556D01*
X28715239Y-63451625D01*
X28553811Y-63346989D01*
X28438009Y-63210581D01*
X28368418Y-63044653D01*
X28345629Y-62851458D01*
X28370228Y-62633247D01*
X28440373Y-62398628D01*
X28538887Y-62197125D01*
X28678343Y-61990871D01*
X28846939Y-61792910D01*
X29032872Y-61616284D01*
X29224342Y-61474038D01*
X29332271Y-61412925D01*
X29534531Y-61330889D01*
X29715127Y-61293374D01*
X29870506Y-61299078D01*
G37*
X29870506Y-61299078D02*
X29997112Y-61346699D01*
X30091389Y-61434935D01*
X30149783Y-61562484D01*
X30168784Y-61719227D01*
X30165107Y-61818930D01*
X30149009Y-61884490D01*
X30113123Y-61937985D01*
X30086393Y-61966171D01*
X29996779Y-62029235D01*
X29912077Y-62044961D01*
X29842897Y-62018752D01*
X29799852Y-61956011D01*
X29793552Y-61862141D01*
X29802382Y-61821557D01*
X29826614Y-61702111D01*
X29825100Y-61610605D01*
X29798420Y-61557131D01*
X29786825Y-61550464D01*
X29712090Y-61548482D01*
X29609512Y-61582616D01*
X29488527Y-61646604D01*
X29358576Y-61734186D01*
X29229096Y-61839098D01*
X29109526Y-61955080D01*
X29023189Y-62057088D01*
X28882975Y-62264795D01*
X28780212Y-62465059D01*
X28715556Y-62652903D01*
X28689663Y-62823349D01*
X28703190Y-62971418D01*
X28756792Y-63092132D01*
X28851126Y-63180513D01*
X28873456Y-63193109D01*
X29003959Y-63229734D01*
X29161772Y-63221288D01*
X29341867Y-63168965D01*
X29539218Y-63073956D01*
X29643608Y-63010288D01*
X29741688Y-62949058D01*
X29805646Y-62917424D01*
X29846572Y-62911189D01*
X29872651Y-62923635D01*
X29912896Y-62986880D01*
X29899241Y-63065347D01*
X29831590Y-63159347D01*
X29785902Y-63204596D01*
X29612522Y-63335615D01*
X29419265Y-63432488D01*
X29217258Y-63492647D01*
X29017626Y-63513525D01*
X28831494Y-63492556D01*
X28715239Y-63451625D01*
X28553811Y-63346989D01*
X28438009Y-63210581D01*
X28368418Y-63044653D01*
X28345629Y-62851458D01*
X28370228Y-62633247D01*
X28440373Y-62398628D01*
X28538887Y-62197125D01*
X28678343Y-61990871D01*
X28846939Y-61792910D01*
X29032872Y-61616284D01*
X29224342Y-61474038D01*
X29332271Y-61412925D01*
X29534531Y-61330889D01*
X29715127Y-61293374D01*
X29870506Y-61299078D01*
G36*
X30769181Y-61393242D02*
G01*
X30818863Y-61422801D01*
X30866818Y-61497401D01*
X30880682Y-61613840D01*
X30860208Y-61768789D01*
X30848014Y-61819678D01*
X30835164Y-61882843D01*
X30818314Y-61985595D01*
X30798691Y-62118199D01*
X30777525Y-62270917D01*
X30756045Y-62434014D01*
X30735479Y-62597753D01*
X30717056Y-62752398D01*
X30702004Y-62888213D01*
X30691553Y-62995460D01*
X30686930Y-63064405D01*
X30688274Y-63085460D01*
X30720889Y-63089049D01*
X30798342Y-63087554D01*
X30909344Y-63081881D01*
X31042609Y-63072934D01*
X31186849Y-63061620D01*
X31330774Y-63048843D01*
X31463099Y-63035509D01*
X31572534Y-63022524D01*
X31647793Y-63010793D01*
X31663730Y-63007214D01*
X31763870Y-63002804D01*
X31840323Y-63038918D01*
X31885728Y-63103313D01*
X31892725Y-63183743D01*
X31853951Y-63267962D01*
X31834000Y-63290445D01*
X31806424Y-63316679D01*
X31778567Y-63334247D01*
X31739460Y-63344715D01*
X31678135Y-63349653D01*
X31583625Y-63350627D01*
X31444961Y-63349206D01*
X31424778Y-63348949D01*
X31238379Y-63355477D01*
X31035655Y-63381017D01*
X30804260Y-63427525D01*
X30590978Y-63480933D01*
X30507695Y-63493358D01*
X30438262Y-63487950D01*
X30433189Y-63486287D01*
X30386810Y-63449437D01*
X30344590Y-63386557D01*
X30318093Y-63319653D01*
X30318881Y-63270729D01*
X30319430Y-63269797D01*
X30329120Y-63232112D01*
X30343857Y-63146605D01*
X30362557Y-63021562D01*
X30384133Y-62865272D01*
X30407500Y-62686021D01*
X30431575Y-62492097D01*
X30455271Y-62291788D01*
X30477503Y-62093381D01*
X30494098Y-61935778D01*
X30513864Y-61754125D01*
X30532802Y-61620450D01*
X30553954Y-61526419D01*
X30580363Y-61463697D01*
X30615070Y-61423951D01*
X30661116Y-61398848D01*
X30694122Y-61387741D01*
X30769181Y-61393242D01*
G37*
X30769181Y-61393242D02*
X30818863Y-61422801D01*
X30866818Y-61497401D01*
X30880682Y-61613840D01*
X30860208Y-61768789D01*
X30848014Y-61819678D01*
X30835164Y-61882843D01*
X30818314Y-61985595D01*
X30798691Y-62118199D01*
X30777525Y-62270917D01*
X30756045Y-62434014D01*
X30735479Y-62597753D01*
X30717056Y-62752398D01*
X30702004Y-62888213D01*
X30691553Y-62995460D01*
X30686930Y-63064405D01*
X30688274Y-63085460D01*
X30720889Y-63089049D01*
X30798342Y-63087554D01*
X30909344Y-63081881D01*
X31042609Y-63072934D01*
X31186849Y-63061620D01*
X31330774Y-63048843D01*
X31463099Y-63035509D01*
X31572534Y-63022524D01*
X31647793Y-63010793D01*
X31663730Y-63007214D01*
X31763870Y-63002804D01*
X31840323Y-63038918D01*
X31885728Y-63103313D01*
X31892725Y-63183743D01*
X31853951Y-63267962D01*
X31834000Y-63290445D01*
X31806424Y-63316679D01*
X31778567Y-63334247D01*
X31739460Y-63344715D01*
X31678135Y-63349653D01*
X31583625Y-63350627D01*
X31444961Y-63349206D01*
X31424778Y-63348949D01*
X31238379Y-63355477D01*
X31035655Y-63381017D01*
X30804260Y-63427525D01*
X30590978Y-63480933D01*
X30507695Y-63493358D01*
X30438262Y-63487950D01*
X30433189Y-63486287D01*
X30386810Y-63449437D01*
X30344590Y-63386557D01*
X30318093Y-63319653D01*
X30318881Y-63270729D01*
X30319430Y-63269797D01*
X30329120Y-63232112D01*
X30343857Y-63146605D01*
X30362557Y-63021562D01*
X30384133Y-62865272D01*
X30407500Y-62686021D01*
X30431575Y-62492097D01*
X30455271Y-62291788D01*
X30477503Y-62093381D01*
X30494098Y-61935778D01*
X30513864Y-61754125D01*
X30532802Y-61620450D01*
X30553954Y-61526419D01*
X30580363Y-61463697D01*
X30615070Y-61423951D01*
X30661116Y-61398848D01*
X30694122Y-61387741D01*
X30769181Y-61393242D01*
G36*
X37013255Y-61451083D02*
G01*
X37064976Y-61484662D01*
X37083334Y-61513636D01*
X37076853Y-61550721D01*
X37059036Y-61631948D01*
X37032315Y-61746720D01*
X36999124Y-61884441D01*
X36984556Y-61943686D01*
X36939319Y-62126475D01*
X36907951Y-62261449D01*
X36891828Y-62355836D01*
X36892328Y-62416866D01*
X36910827Y-62451768D01*
X36948702Y-62467772D01*
X37007331Y-62472107D01*
X37085189Y-62472000D01*
X37192869Y-62475841D01*
X37283329Y-62485907D01*
X37336895Y-62499988D01*
X37385533Y-62553985D01*
X37410279Y-62636561D01*
X37405674Y-62722947D01*
X37393167Y-62755364D01*
X37376784Y-62782551D01*
X37355817Y-62798884D01*
X37320208Y-62804293D01*
X37259903Y-62798707D01*
X37164845Y-62782057D01*
X37024978Y-62754273D01*
X37017411Y-62752749D01*
X36903211Y-62735558D01*
X36837548Y-62740213D01*
X36823887Y-62748380D01*
X36806499Y-62793387D01*
X36795088Y-62876414D01*
X36789745Y-62980516D01*
X36790558Y-63088748D01*
X36797615Y-63184164D01*
X36811007Y-63249819D01*
X36821158Y-63267149D01*
X36857604Y-63324292D01*
X36850039Y-63386840D01*
X36809017Y-63445761D01*
X36745096Y-63492025D01*
X36668831Y-63516602D01*
X36590778Y-63510461D01*
X36555932Y-63494049D01*
X36505060Y-63429450D01*
X36476624Y-63317335D01*
X36471555Y-63162371D01*
X36475978Y-63092889D01*
X36486607Y-62983481D01*
X36497666Y-62892176D01*
X36506930Y-62837097D01*
X36507720Y-62834110D01*
X36506237Y-62797682D01*
X36473310Y-62775087D01*
X36403672Y-62765938D01*
X36292054Y-62769845D01*
X36133191Y-62786422D01*
X36034915Y-62799268D01*
X35884675Y-62819363D01*
X35778931Y-62831426D01*
X35706300Y-62835411D01*
X35655402Y-62831273D01*
X35614855Y-62818964D01*
X35573278Y-62798439D01*
X35571310Y-62797380D01*
X35509137Y-62754465D01*
X35476232Y-62713359D01*
X35474667Y-62705350D01*
X35495668Y-62659574D01*
X35554291Y-62585285D01*
X35633578Y-62500223D01*
X36068595Y-62500223D01*
X36258464Y-62499837D01*
X36365301Y-62497341D01*
X36456217Y-62491212D01*
X36507161Y-62483656D01*
X36540962Y-62463600D01*
X36569066Y-62416736D01*
X36596641Y-62332109D01*
X36616836Y-62251208D01*
X36642960Y-62142930D01*
X36665899Y-62053217D01*
X36681370Y-61998708D01*
X36683122Y-61993675D01*
X36676373Y-61979263D01*
X36635189Y-61999613D01*
X36565830Y-62050378D01*
X36474559Y-62127206D01*
X36420111Y-62176388D01*
X36329435Y-62260014D01*
X36229390Y-62352199D01*
X36187909Y-62390395D01*
X36068595Y-62500223D01*
X35633578Y-62500223D01*
X35643964Y-62489081D01*
X35758115Y-62377563D01*
X35890175Y-62257331D01*
X36033571Y-62134984D01*
X36081445Y-62095928D01*
X36204784Y-61995505D01*
X36327124Y-61894228D01*
X36433663Y-61804443D01*
X36504778Y-61742802D01*
X36608616Y-61656067D01*
X36724921Y-61567122D01*
X36794533Y-61518200D01*
X36880177Y-61464290D01*
X36937086Y-61439702D01*
X36981380Y-61439491D01*
X37013255Y-61451083D01*
G37*
X37013255Y-61451083D02*
X37064976Y-61484662D01*
X37083334Y-61513636D01*
X37076853Y-61550721D01*
X37059036Y-61631948D01*
X37032315Y-61746720D01*
X36999124Y-61884441D01*
X36984556Y-61943686D01*
X36939319Y-62126475D01*
X36907951Y-62261449D01*
X36891828Y-62355836D01*
X36892328Y-62416866D01*
X36910827Y-62451768D01*
X36948702Y-62467772D01*
X37007331Y-62472107D01*
X37085189Y-62472000D01*
X37192869Y-62475841D01*
X37283329Y-62485907D01*
X37336895Y-62499988D01*
X37385533Y-62553985D01*
X37410279Y-62636561D01*
X37405674Y-62722947D01*
X37393167Y-62755364D01*
X37376784Y-62782551D01*
X37355817Y-62798884D01*
X37320208Y-62804293D01*
X37259903Y-62798707D01*
X37164845Y-62782057D01*
X37024978Y-62754273D01*
X37017411Y-62752749D01*
X36903211Y-62735558D01*
X36837548Y-62740213D01*
X36823887Y-62748380D01*
X36806499Y-62793387D01*
X36795088Y-62876414D01*
X36789745Y-62980516D01*
X36790558Y-63088748D01*
X36797615Y-63184164D01*
X36811007Y-63249819D01*
X36821158Y-63267149D01*
X36857604Y-63324292D01*
X36850039Y-63386840D01*
X36809017Y-63445761D01*
X36745096Y-63492025D01*
X36668831Y-63516602D01*
X36590778Y-63510461D01*
X36555932Y-63494049D01*
X36505060Y-63429450D01*
X36476624Y-63317335D01*
X36471555Y-63162371D01*
X36475978Y-63092889D01*
X36486607Y-62983481D01*
X36497666Y-62892176D01*
X36506930Y-62837097D01*
X36507720Y-62834110D01*
X36506237Y-62797682D01*
X36473310Y-62775087D01*
X36403672Y-62765938D01*
X36292054Y-62769845D01*
X36133191Y-62786422D01*
X36034915Y-62799268D01*
X35884675Y-62819363D01*
X35778931Y-62831426D01*
X35706300Y-62835411D01*
X35655402Y-62831273D01*
X35614855Y-62818964D01*
X35573278Y-62798439D01*
X35571310Y-62797380D01*
X35509137Y-62754465D01*
X35476232Y-62713359D01*
X35474667Y-62705350D01*
X35495668Y-62659574D01*
X35554291Y-62585285D01*
X35633578Y-62500223D01*
X36068595Y-62500223D01*
X36258464Y-62499837D01*
X36365301Y-62497341D01*
X36456217Y-62491212D01*
X36507161Y-62483656D01*
X36540962Y-62463600D01*
X36569066Y-62416736D01*
X36596641Y-62332109D01*
X36616836Y-62251208D01*
X36642960Y-62142930D01*
X36665899Y-62053217D01*
X36681370Y-61998708D01*
X36683122Y-61993675D01*
X36676373Y-61979263D01*
X36635189Y-61999613D01*
X36565830Y-62050378D01*
X36474559Y-62127206D01*
X36420111Y-62176388D01*
X36329435Y-62260014D01*
X36229390Y-62352199D01*
X36187909Y-62390395D01*
X36068595Y-62500223D01*
X35633578Y-62500223D01*
X35643964Y-62489081D01*
X35758115Y-62377563D01*
X35890175Y-62257331D01*
X36033571Y-62134984D01*
X36081445Y-62095928D01*
X36204784Y-61995505D01*
X36327124Y-61894228D01*
X36433663Y-61804443D01*
X36504778Y-61742802D01*
X36608616Y-61656067D01*
X36724921Y-61567122D01*
X36794533Y-61518200D01*
X36880177Y-61464290D01*
X36937086Y-61439702D01*
X36981380Y-61439491D01*
X37013255Y-61451083D01*
G36*
X35403168Y-43483094D02*
G01*
X35448138Y-43536380D01*
X35466226Y-43613267D01*
X35450148Y-43702880D01*
X35430639Y-43743095D01*
X35395941Y-43796889D01*
X35335352Y-43885732D01*
X35256216Y-43999049D01*
X35165876Y-44126266D01*
X35124412Y-44184000D01*
X35011726Y-44343063D01*
X34877167Y-44537361D01*
X34729095Y-44754461D01*
X34575870Y-44981933D01*
X34425850Y-45207346D01*
X34287396Y-45418267D01*
X34168865Y-45602265D01*
X34139054Y-45649382D01*
X34063333Y-45755757D01*
X34000229Y-45810281D01*
X33944879Y-45814773D01*
X33892418Y-45771050D01*
X33875839Y-45747775D01*
X33853251Y-45708878D01*
X33846192Y-45672649D01*
X33857352Y-45624913D01*
X33889419Y-45551492D01*
X33928031Y-45472608D01*
X33976337Y-45384140D01*
X34049816Y-45260942D01*
X34141279Y-45114531D01*
X34243538Y-44956423D01*
X34344808Y-44804889D01*
X34466790Y-44624894D01*
X34600984Y-44425845D01*
X34735376Y-44225623D01*
X34857958Y-44042109D01*
X34927558Y-43937318D01*
X35020029Y-43800975D01*
X35106906Y-43678980D01*
X35181508Y-43580259D01*
X35237156Y-43513736D01*
X35261700Y-43490812D01*
X35338595Y-43464280D01*
X35403168Y-43483094D01*
G37*
X35403168Y-43483094D02*
X35448138Y-43536380D01*
X35466226Y-43613267D01*
X35450148Y-43702880D01*
X35430639Y-43743095D01*
X35395941Y-43796889D01*
X35335352Y-43885732D01*
X35256216Y-43999049D01*
X35165876Y-44126266D01*
X35124412Y-44184000D01*
X35011726Y-44343063D01*
X34877167Y-44537361D01*
X34729095Y-44754461D01*
X34575870Y-44981933D01*
X34425850Y-45207346D01*
X34287396Y-45418267D01*
X34168865Y-45602265D01*
X34139054Y-45649382D01*
X34063333Y-45755757D01*
X34000229Y-45810281D01*
X33944879Y-45814773D01*
X33892418Y-45771050D01*
X33875839Y-45747775D01*
X33853251Y-45708878D01*
X33846192Y-45672649D01*
X33857352Y-45624913D01*
X33889419Y-45551492D01*
X33928031Y-45472608D01*
X33976337Y-45384140D01*
X34049816Y-45260942D01*
X34141279Y-45114531D01*
X34243538Y-44956423D01*
X34344808Y-44804889D01*
X34466790Y-44624894D01*
X34600984Y-44425845D01*
X34735376Y-44225623D01*
X34857958Y-44042109D01*
X34927558Y-43937318D01*
X35020029Y-43800975D01*
X35106906Y-43678980D01*
X35181508Y-43580259D01*
X35237156Y-43513736D01*
X35261700Y-43490812D01*
X35338595Y-43464280D01*
X35403168Y-43483094D01*
G36*
X36730564Y-43797579D02*
G01*
X36831864Y-43865464D01*
X36924226Y-43957638D01*
X37026276Y-44083548D01*
X37084222Y-44190519D01*
X37102139Y-44289019D01*
X37087787Y-44377821D01*
X37027150Y-44517480D01*
X36926177Y-44676361D01*
X36792521Y-44843974D01*
X36633838Y-45009830D01*
X36610254Y-45032132D01*
X36393690Y-45234379D01*
X36864500Y-45224245D01*
X37040529Y-45221041D01*
X37168892Y-45220593D01*
X37258329Y-45223553D01*
X37317577Y-45230574D01*
X37355378Y-45242309D01*
X37380469Y-45259409D01*
X37384259Y-45263057D01*
X37416029Y-45328892D01*
X37400832Y-45404258D01*
X37343698Y-45476717D01*
X37280586Y-45519498D01*
X37222597Y-45544802D01*
X37160701Y-45557383D01*
X37078199Y-45558679D01*
X36958394Y-45550128D01*
X36942222Y-45548649D01*
X36632752Y-45527786D01*
X36372930Y-45527642D01*
X36159733Y-45548639D01*
X35990140Y-45591199D01*
X35861129Y-45655748D01*
X35798500Y-45708755D01*
X35708831Y-45773725D01*
X35616536Y-45791648D01*
X35533871Y-45760920D01*
X35516412Y-45745714D01*
X35485517Y-45677777D01*
X35492055Y-45584637D01*
X35534376Y-45481815D01*
X35546531Y-45462154D01*
X35610925Y-45391099D01*
X35715770Y-45306529D01*
X35849481Y-45216791D01*
X36000470Y-45130231D01*
X36024973Y-45117483D01*
X36134857Y-45049043D01*
X36261173Y-44951552D01*
X36391530Y-44836664D01*
X36513538Y-44716038D01*
X36614805Y-44601330D01*
X36682941Y-44504196D01*
X36689136Y-44492655D01*
X36735082Y-44378646D01*
X36738030Y-44289201D01*
X36696111Y-44210228D01*
X36644907Y-44158702D01*
X36575635Y-44106119D01*
X36516339Y-44074869D01*
X36498595Y-44071111D01*
X36424259Y-44088471D01*
X36323748Y-44134759D01*
X36212971Y-44201284D01*
X36107836Y-44279357D01*
X36090974Y-44293760D01*
X35972377Y-44382258D01*
X35875963Y-44419676D01*
X35799855Y-44405996D01*
X35742174Y-44341198D01*
X35719731Y-44289834D01*
X35711047Y-44237441D01*
X35729572Y-44187237D01*
X35782019Y-44130064D01*
X35875103Y-44056763D01*
X35907905Y-44033139D01*
X36079565Y-43918590D01*
X36225108Y-43839998D01*
X36356688Y-43791835D01*
X36486461Y-43768572D01*
X36490423Y-43768204D01*
X36622284Y-43767576D01*
X36730564Y-43797579D01*
G37*
X36730564Y-43797579D02*
X36831864Y-43865464D01*
X36924226Y-43957638D01*
X37026276Y-44083548D01*
X37084222Y-44190519D01*
X37102139Y-44289019D01*
X37087787Y-44377821D01*
X37027150Y-44517480D01*
X36926177Y-44676361D01*
X36792521Y-44843974D01*
X36633838Y-45009830D01*
X36610254Y-45032132D01*
X36393690Y-45234379D01*
X36864500Y-45224245D01*
X37040529Y-45221041D01*
X37168892Y-45220593D01*
X37258329Y-45223553D01*
X37317577Y-45230574D01*
X37355378Y-45242309D01*
X37380469Y-45259409D01*
X37384259Y-45263057D01*
X37416029Y-45328892D01*
X37400832Y-45404258D01*
X37343698Y-45476717D01*
X37280586Y-45519498D01*
X37222597Y-45544802D01*
X37160701Y-45557383D01*
X37078199Y-45558679D01*
X36958394Y-45550128D01*
X36942222Y-45548649D01*
X36632752Y-45527786D01*
X36372930Y-45527642D01*
X36159733Y-45548639D01*
X35990140Y-45591199D01*
X35861129Y-45655748D01*
X35798500Y-45708755D01*
X35708831Y-45773725D01*
X35616536Y-45791648D01*
X35533871Y-45760920D01*
X35516412Y-45745714D01*
X35485517Y-45677777D01*
X35492055Y-45584637D01*
X35534376Y-45481815D01*
X35546531Y-45462154D01*
X35610925Y-45391099D01*
X35715770Y-45306529D01*
X35849481Y-45216791D01*
X36000470Y-45130231D01*
X36024973Y-45117483D01*
X36134857Y-45049043D01*
X36261173Y-44951552D01*
X36391530Y-44836664D01*
X36513538Y-44716038D01*
X36614805Y-44601330D01*
X36682941Y-44504196D01*
X36689136Y-44492655D01*
X36735082Y-44378646D01*
X36738030Y-44289201D01*
X36696111Y-44210228D01*
X36644907Y-44158702D01*
X36575635Y-44106119D01*
X36516339Y-44074869D01*
X36498595Y-44071111D01*
X36424259Y-44088471D01*
X36323748Y-44134759D01*
X36212971Y-44201284D01*
X36107836Y-44279357D01*
X36090974Y-44293760D01*
X35972377Y-44382258D01*
X35875963Y-44419676D01*
X35799855Y-44405996D01*
X35742174Y-44341198D01*
X35719731Y-44289834D01*
X35711047Y-44237441D01*
X35729572Y-44187237D01*
X35782019Y-44130064D01*
X35875103Y-44056763D01*
X35907905Y-44033139D01*
X36079565Y-43918590D01*
X36225108Y-43839998D01*
X36356688Y-43791835D01*
X36486461Y-43768572D01*
X36490423Y-43768204D01*
X36622284Y-43767576D01*
X36730564Y-43797579D01*
G36*
X32484276Y-43620179D02*
G01*
X32484462Y-43620279D01*
X32544378Y-43671631D01*
X32573126Y-43749823D01*
X32572284Y-43863122D01*
X32552767Y-43978074D01*
X32530235Y-44104036D01*
X32509334Y-44255156D01*
X32494347Y-44400207D01*
X32493595Y-44409778D01*
X32475258Y-44649667D01*
X32556796Y-44579470D01*
X32722431Y-44429985D01*
X32882944Y-44272509D01*
X33027638Y-44118307D01*
X33145819Y-43978643D01*
X33209281Y-43892227D01*
X33273991Y-43800535D01*
X33331534Y-43728196D01*
X33371798Y-43687668D01*
X33378509Y-43683751D01*
X33431407Y-43689393D01*
X33496843Y-43727985D01*
X33555907Y-43785606D01*
X33586058Y-43836567D01*
X33586746Y-43903752D01*
X33545698Y-43992740D01*
X33461428Y-44105478D01*
X33332450Y-44243912D01*
X33157278Y-44409988D01*
X33128201Y-44436258D01*
X33016761Y-44537283D01*
X32921385Y-44625388D01*
X32849493Y-44693591D01*
X32808503Y-44734908D01*
X32801863Y-44743451D01*
X32821406Y-44770055D01*
X32885018Y-44826189D01*
X32990026Y-44909747D01*
X33133753Y-45018621D01*
X33313525Y-45150703D01*
X33378003Y-45197365D01*
X33494049Y-45276854D01*
X33583703Y-45326279D01*
X33662725Y-45353113D01*
X33727772Y-45363233D01*
X33810278Y-45373591D01*
X33851059Y-45390646D01*
X33864730Y-45424570D01*
X33866000Y-45459446D01*
X33845221Y-45576982D01*
X33786528Y-45654692D01*
X33695386Y-45688863D01*
X33577261Y-45675784D01*
X33557016Y-45669332D01*
X33465141Y-45626253D01*
X33340370Y-45550898D01*
X33191413Y-45449130D01*
X33026981Y-45326814D01*
X32906445Y-45231382D01*
X32777803Y-45131502D01*
X32662239Y-45050358D01*
X32567679Y-44992895D01*
X32502051Y-44964055D01*
X32477242Y-44963739D01*
X32438248Y-45017361D01*
X32408005Y-45125060D01*
X32386313Y-45287618D01*
X32382317Y-45335409D01*
X32357784Y-45521232D01*
X32316331Y-45653614D01*
X32257748Y-45733027D01*
X32195601Y-45759093D01*
X32122692Y-45748129D01*
X32075494Y-45700300D01*
X32050526Y-45648373D01*
X32045094Y-45586245D01*
X32057745Y-45493138D01*
X32060118Y-45480431D01*
X32072126Y-45403904D01*
X32088067Y-45283113D01*
X32106507Y-45129983D01*
X32126006Y-44956437D01*
X32144844Y-44777225D01*
X32175168Y-44485233D01*
X32201721Y-44245625D01*
X32225019Y-44054504D01*
X32245582Y-43907973D01*
X32263929Y-43802136D01*
X32280579Y-43733095D01*
X32285914Y-43717390D01*
X32336629Y-43642326D01*
X32407961Y-43607374D01*
X32484276Y-43620179D01*
G37*
X32484276Y-43620179D02*
X32484462Y-43620279D01*
X32544378Y-43671631D01*
X32573126Y-43749823D01*
X32572284Y-43863122D01*
X32552767Y-43978074D01*
X32530235Y-44104036D01*
X32509334Y-44255156D01*
X32494347Y-44400207D01*
X32493595Y-44409778D01*
X32475258Y-44649667D01*
X32556796Y-44579470D01*
X32722431Y-44429985D01*
X32882944Y-44272509D01*
X33027638Y-44118307D01*
X33145819Y-43978643D01*
X33209281Y-43892227D01*
X33273991Y-43800535D01*
X33331534Y-43728196D01*
X33371798Y-43687668D01*
X33378509Y-43683751D01*
X33431407Y-43689393D01*
X33496843Y-43727985D01*
X33555907Y-43785606D01*
X33586058Y-43836567D01*
X33586746Y-43903752D01*
X33545698Y-43992740D01*
X33461428Y-44105478D01*
X33332450Y-44243912D01*
X33157278Y-44409988D01*
X33128201Y-44436258D01*
X33016761Y-44537283D01*
X32921385Y-44625388D01*
X32849493Y-44693591D01*
X32808503Y-44734908D01*
X32801863Y-44743451D01*
X32821406Y-44770055D01*
X32885018Y-44826189D01*
X32990026Y-44909747D01*
X33133753Y-45018621D01*
X33313525Y-45150703D01*
X33378003Y-45197365D01*
X33494049Y-45276854D01*
X33583703Y-45326279D01*
X33662725Y-45353113D01*
X33727772Y-45363233D01*
X33810278Y-45373591D01*
X33851059Y-45390646D01*
X33864730Y-45424570D01*
X33866000Y-45459446D01*
X33845221Y-45576982D01*
X33786528Y-45654692D01*
X33695386Y-45688863D01*
X33577261Y-45675784D01*
X33557016Y-45669332D01*
X33465141Y-45626253D01*
X33340370Y-45550898D01*
X33191413Y-45449130D01*
X33026981Y-45326814D01*
X32906445Y-45231382D01*
X32777803Y-45131502D01*
X32662239Y-45050358D01*
X32567679Y-44992895D01*
X32502051Y-44964055D01*
X32477242Y-44963739D01*
X32438248Y-45017361D01*
X32408005Y-45125060D01*
X32386313Y-45287618D01*
X32382317Y-45335409D01*
X32357784Y-45521232D01*
X32316331Y-45653614D01*
X32257748Y-45733027D01*
X32195601Y-45759093D01*
X32122692Y-45748129D01*
X32075494Y-45700300D01*
X32050526Y-45648373D01*
X32045094Y-45586245D01*
X32057745Y-45493138D01*
X32060118Y-45480431D01*
X32072126Y-45403904D01*
X32088067Y-45283113D01*
X32106507Y-45129983D01*
X32126006Y-44956437D01*
X32144844Y-44777225D01*
X32175168Y-44485233D01*
X32201721Y-44245625D01*
X32225019Y-44054504D01*
X32245582Y-43907973D01*
X32263929Y-43802136D01*
X32280579Y-43733095D01*
X32285914Y-43717390D01*
X32336629Y-43642326D01*
X32407961Y-43607374D01*
X32484276Y-43620179D01*
G36*
X29870506Y-43519078D02*
G01*
X29997112Y-43566699D01*
X30091389Y-43654935D01*
X30149783Y-43782484D01*
X30168784Y-43939227D01*
X30165107Y-44038930D01*
X30149009Y-44104490D01*
X30113123Y-44157985D01*
X30086393Y-44186171D01*
X29999687Y-44249238D01*
X29916771Y-44270202D01*
X29848649Y-44251503D01*
X29806330Y-44195580D01*
X29798706Y-44122400D01*
X29809656Y-43976750D01*
X29812413Y-43877998D01*
X29805964Y-43817054D01*
X29789297Y-43784832D01*
X29761400Y-43772242D01*
X29759667Y-43771961D01*
X29703046Y-43778488D01*
X29619081Y-43804586D01*
X29562111Y-43828280D01*
X29379112Y-43935771D01*
X29203479Y-44081802D01*
X29042553Y-44256171D01*
X28903672Y-44448672D01*
X28794177Y-44649102D01*
X28721408Y-44847258D01*
X28692702Y-45032934D01*
X28692616Y-45037116D01*
X28709593Y-45199125D01*
X28764409Y-45321972D01*
X28853586Y-45404949D01*
X28973647Y-45447350D01*
X29121114Y-45448468D01*
X29292508Y-45407598D01*
X29484354Y-45324032D01*
X29643608Y-45230288D01*
X29741688Y-45169058D01*
X29805646Y-45137424D01*
X29846572Y-45131189D01*
X29872651Y-45143635D01*
X29912896Y-45206880D01*
X29899241Y-45285347D01*
X29831590Y-45379347D01*
X29785902Y-45424596D01*
X29612522Y-45555615D01*
X29419265Y-45652488D01*
X29217258Y-45712647D01*
X29017626Y-45733525D01*
X28831494Y-45712556D01*
X28715239Y-45671625D01*
X28553811Y-45566989D01*
X28438009Y-45430581D01*
X28368418Y-45264653D01*
X28345629Y-45071458D01*
X28370228Y-44853247D01*
X28440373Y-44618628D01*
X28538887Y-44417125D01*
X28678343Y-44210871D01*
X28846939Y-44012910D01*
X29032872Y-43836284D01*
X29224342Y-43694038D01*
X29332271Y-43632925D01*
X29534531Y-43550889D01*
X29715127Y-43513374D01*
X29870506Y-43519078D01*
G37*
X29870506Y-43519078D02*
X29997112Y-43566699D01*
X30091389Y-43654935D01*
X30149783Y-43782484D01*
X30168784Y-43939227D01*
X30165107Y-44038930D01*
X30149009Y-44104490D01*
X30113123Y-44157985D01*
X30086393Y-44186171D01*
X29999687Y-44249238D01*
X29916771Y-44270202D01*
X29848649Y-44251503D01*
X29806330Y-44195580D01*
X29798706Y-44122400D01*
X29809656Y-43976750D01*
X29812413Y-43877998D01*
X29805964Y-43817054D01*
X29789297Y-43784832D01*
X29761400Y-43772242D01*
X29759667Y-43771961D01*
X29703046Y-43778488D01*
X29619081Y-43804586D01*
X29562111Y-43828280D01*
X29379112Y-43935771D01*
X29203479Y-44081802D01*
X29042553Y-44256171D01*
X28903672Y-44448672D01*
X28794177Y-44649102D01*
X28721408Y-44847258D01*
X28692702Y-45032934D01*
X28692616Y-45037116D01*
X28709593Y-45199125D01*
X28764409Y-45321972D01*
X28853586Y-45404949D01*
X28973647Y-45447350D01*
X29121114Y-45448468D01*
X29292508Y-45407598D01*
X29484354Y-45324032D01*
X29643608Y-45230288D01*
X29741688Y-45169058D01*
X29805646Y-45137424D01*
X29846572Y-45131189D01*
X29872651Y-45143635D01*
X29912896Y-45206880D01*
X29899241Y-45285347D01*
X29831590Y-45379347D01*
X29785902Y-45424596D01*
X29612522Y-45555615D01*
X29419265Y-45652488D01*
X29217258Y-45712647D01*
X29017626Y-45733525D01*
X28831494Y-45712556D01*
X28715239Y-45671625D01*
X28553811Y-45566989D01*
X28438009Y-45430581D01*
X28368418Y-45264653D01*
X28345629Y-45071458D01*
X28370228Y-44853247D01*
X28440373Y-44618628D01*
X28538887Y-44417125D01*
X28678343Y-44210871D01*
X28846939Y-44012910D01*
X29032872Y-43836284D01*
X29224342Y-43694038D01*
X29332271Y-43632925D01*
X29534531Y-43550889D01*
X29715127Y-43513374D01*
X29870506Y-43519078D01*
G36*
X30806434Y-43635164D02*
G01*
X30860554Y-43701786D01*
X30880739Y-43810317D01*
X30866370Y-43958705D01*
X30848014Y-44039678D01*
X30836348Y-44098556D01*
X30819330Y-44203117D01*
X30798491Y-44343022D01*
X30775364Y-44507930D01*
X30751478Y-44687503D01*
X30747602Y-44717579D01*
X30721253Y-44931777D01*
X30703942Y-45094285D01*
X30695384Y-45209084D01*
X30695294Y-45280155D01*
X30703388Y-45311477D01*
X30705044Y-45312847D01*
X30749519Y-45320034D01*
X30827290Y-45316492D01*
X30873907Y-45310460D01*
X30961383Y-45299323D01*
X31085749Y-45286906D01*
X31227540Y-45275047D01*
X31316893Y-45268698D01*
X31449441Y-45258143D01*
X31566795Y-45245408D01*
X31653869Y-45232319D01*
X31689643Y-45223589D01*
X31773827Y-45217916D01*
X31844374Y-45257229D01*
X31885617Y-45330107D01*
X31890445Y-45369984D01*
X31871874Y-45447338D01*
X31826146Y-45517912D01*
X31768235Y-45561752D01*
X31742278Y-45567440D01*
X31464248Y-45574635D01*
X31225637Y-45586737D01*
X31031258Y-45603381D01*
X30885929Y-45624202D01*
X30832111Y-45636350D01*
X30725379Y-45665202D01*
X30627514Y-45691488D01*
X30576867Y-45704972D01*
X30496492Y-45714730D01*
X30433189Y-45706287D01*
X30386810Y-45669437D01*
X30344590Y-45606557D01*
X30318093Y-45539653D01*
X30318881Y-45490729D01*
X30319430Y-45489797D01*
X30329120Y-45452112D01*
X30343857Y-45366605D01*
X30362557Y-45241562D01*
X30384133Y-45085272D01*
X30407500Y-44906021D01*
X30431575Y-44712097D01*
X30455271Y-44511788D01*
X30477503Y-44313381D01*
X30494098Y-44155778D01*
X30515190Y-43966263D01*
X30536406Y-43825982D01*
X30560700Y-43727795D01*
X30591029Y-43664561D01*
X30630348Y-43629141D01*
X30681613Y-43614395D01*
X30718998Y-43612500D01*
X30806434Y-43635164D01*
G37*
X30806434Y-43635164D02*
X30860554Y-43701786D01*
X30880739Y-43810317D01*
X30866370Y-43958705D01*
X30848014Y-44039678D01*
X30836348Y-44098556D01*
X30819330Y-44203117D01*
X30798491Y-44343022D01*
X30775364Y-44507930D01*
X30751478Y-44687503D01*
X30747602Y-44717579D01*
X30721253Y-44931777D01*
X30703942Y-45094285D01*
X30695384Y-45209084D01*
X30695294Y-45280155D01*
X30703388Y-45311477D01*
X30705044Y-45312847D01*
X30749519Y-45320034D01*
X30827290Y-45316492D01*
X30873907Y-45310460D01*
X30961383Y-45299323D01*
X31085749Y-45286906D01*
X31227540Y-45275047D01*
X31316893Y-45268698D01*
X31449441Y-45258143D01*
X31566795Y-45245408D01*
X31653869Y-45232319D01*
X31689643Y-45223589D01*
X31773827Y-45217916D01*
X31844374Y-45257229D01*
X31885617Y-45330107D01*
X31890445Y-45369984D01*
X31871874Y-45447338D01*
X31826146Y-45517912D01*
X31768235Y-45561752D01*
X31742278Y-45567440D01*
X31464248Y-45574635D01*
X31225637Y-45586737D01*
X31031258Y-45603381D01*
X30885929Y-45624202D01*
X30832111Y-45636350D01*
X30725379Y-45665202D01*
X30627514Y-45691488D01*
X30576867Y-45704972D01*
X30496492Y-45714730D01*
X30433189Y-45706287D01*
X30386810Y-45669437D01*
X30344590Y-45606557D01*
X30318093Y-45539653D01*
X30318881Y-45490729D01*
X30319430Y-45489797D01*
X30329120Y-45452112D01*
X30343857Y-45366605D01*
X30362557Y-45241562D01*
X30384133Y-45085272D01*
X30407500Y-44906021D01*
X30431575Y-44712097D01*
X30455271Y-44511788D01*
X30477503Y-44313381D01*
X30494098Y-44155778D01*
X30515190Y-43966263D01*
X30536406Y-43825982D01*
X30560700Y-43727795D01*
X30591029Y-43664561D01*
X30630348Y-43629141D01*
X30681613Y-43614395D01*
X30718998Y-43612500D01*
X30806434Y-43635164D01*
G36*
X35403168Y-25703094D02*
G01*
X35448138Y-25756380D01*
X35466226Y-25833267D01*
X35450148Y-25922880D01*
X35430639Y-25963095D01*
X35395946Y-26016897D01*
X35335374Y-26105755D01*
X35256267Y-26219089D01*
X35165966Y-26346324D01*
X35124569Y-26404000D01*
X35012314Y-26562540D01*
X34878095Y-26756432D01*
X34730187Y-26973369D01*
X34576864Y-27201044D01*
X34426402Y-27427147D01*
X34287076Y-27639373D01*
X34167161Y-27825413D01*
X34139054Y-27869766D01*
X34063193Y-27976033D01*
X33999960Y-28030424D01*
X33944550Y-28034748D01*
X33892157Y-27990813D01*
X33876392Y-27968619D01*
X33852665Y-27927200D01*
X33846408Y-27888870D01*
X33859918Y-27837383D01*
X33895490Y-27756497D01*
X33911020Y-27723624D01*
X33952219Y-27646825D01*
X34019100Y-27533809D01*
X34105293Y-27394817D01*
X34204428Y-27240094D01*
X34310134Y-27079881D01*
X34326801Y-27055061D01*
X34449715Y-26872152D01*
X34583670Y-26672264D01*
X34717574Y-26471980D01*
X34840337Y-26287886D01*
X34927116Y-26157318D01*
X35019711Y-26021009D01*
X35106695Y-25899038D01*
X35181385Y-25800323D01*
X35237098Y-25733785D01*
X35261700Y-25710812D01*
X35338595Y-25684280D01*
X35403168Y-25703094D01*
G37*
X35403168Y-25703094D02*
X35448138Y-25756380D01*
X35466226Y-25833267D01*
X35450148Y-25922880D01*
X35430639Y-25963095D01*
X35395946Y-26016897D01*
X35335374Y-26105755D01*
X35256267Y-26219089D01*
X35165966Y-26346324D01*
X35124569Y-26404000D01*
X35012314Y-26562540D01*
X34878095Y-26756432D01*
X34730187Y-26973369D01*
X34576864Y-27201044D01*
X34426402Y-27427147D01*
X34287076Y-27639373D01*
X34167161Y-27825413D01*
X34139054Y-27869766D01*
X34063193Y-27976033D01*
X33999960Y-28030424D01*
X33944550Y-28034748D01*
X33892157Y-27990813D01*
X33876392Y-27968619D01*
X33852665Y-27927200D01*
X33846408Y-27888870D01*
X33859918Y-27837383D01*
X33895490Y-27756497D01*
X33911020Y-27723624D01*
X33952219Y-27646825D01*
X34019100Y-27533809D01*
X34105293Y-27394817D01*
X34204428Y-27240094D01*
X34310134Y-27079881D01*
X34326801Y-27055061D01*
X34449715Y-26872152D01*
X34583670Y-26672264D01*
X34717574Y-26471980D01*
X34840337Y-26287886D01*
X34927116Y-26157318D01*
X35019711Y-26021009D01*
X35106695Y-25899038D01*
X35181385Y-25800323D01*
X35237098Y-25733785D01*
X35261700Y-25710812D01*
X35338595Y-25684280D01*
X35403168Y-25703094D01*
G36*
X7615528Y-25836911D02*
G01*
X7675068Y-25883828D01*
X7705917Y-25967585D01*
X7707244Y-25983521D01*
X7704115Y-26039557D01*
X7693014Y-26135560D01*
X7675896Y-26255934D01*
X7663102Y-26336049D01*
X7643423Y-26471277D01*
X7629726Y-26599396D01*
X7623824Y-26701437D01*
X7624549Y-26739459D01*
X7633445Y-26858044D01*
X7937281Y-26567522D01*
X8057904Y-26447274D01*
X8174602Y-26322241D01*
X8275587Y-26205620D01*
X8349073Y-26110609D01*
X8360614Y-26093556D01*
X8423081Y-26004961D01*
X8479614Y-25937491D01*
X8519581Y-25903586D01*
X8524329Y-25901982D01*
X8575440Y-25912740D01*
X8639683Y-25949884D01*
X8644274Y-25953420D01*
X8699373Y-26015134D01*
X8717448Y-26087603D01*
X8696636Y-26174064D01*
X8635078Y-26277754D01*
X8530913Y-26401908D01*
X8382278Y-26549764D01*
X8214406Y-26701016D01*
X8109688Y-26793585D01*
X8022408Y-26873044D01*
X7960404Y-26932081D01*
X7931515Y-26963386D01*
X7930380Y-26965946D01*
X7951748Y-26988090D01*
X8009266Y-27036776D01*
X8093763Y-27104904D01*
X8196065Y-27185373D01*
X8307002Y-27271081D01*
X8417401Y-27354929D01*
X8518089Y-27429814D01*
X8599895Y-27488638D01*
X8643613Y-27518115D01*
X8728969Y-27556990D01*
X8832547Y-27584626D01*
X8859775Y-27588671D01*
X8939089Y-27601139D01*
X8978267Y-27622446D01*
X8993528Y-27664637D01*
X8996591Y-27690282D01*
X8982883Y-27794323D01*
X8925329Y-27869606D01*
X8833018Y-27906334D01*
X8794351Y-27908272D01*
X8726097Y-27898845D01*
X8648986Y-27871566D01*
X8555863Y-27822311D01*
X8439573Y-27746957D01*
X8292960Y-27641377D01*
X8169667Y-27548206D01*
X7987187Y-27410339D01*
X7844531Y-27306846D01*
X7738464Y-27235605D01*
X7665749Y-27194495D01*
X7623152Y-27181398D01*
X7613464Y-27183739D01*
X7578484Y-27228888D01*
X7548811Y-27319970D01*
X7523457Y-27460825D01*
X7507293Y-27595468D01*
X7490357Y-27719341D01*
X7468174Y-27827141D01*
X7444517Y-27901711D01*
X7436664Y-27916667D01*
X7372429Y-27973171D01*
X7297038Y-27980661D01*
X7227156Y-27939235D01*
X7208461Y-27915332D01*
X7182814Y-27863139D01*
X7177097Y-27802589D01*
X7189787Y-27712350D01*
X7192851Y-27696610D01*
X7208039Y-27608911D01*
X7224163Y-27492472D01*
X7241951Y-27340942D01*
X7262131Y-27147975D01*
X7285431Y-26907221D01*
X7294205Y-26813223D01*
X7304312Y-26716594D01*
X7319864Y-26582575D01*
X7338649Y-26429699D01*
X7356369Y-26292239D01*
X7378367Y-26137378D01*
X7398299Y-26028260D01*
X7418933Y-25954393D01*
X7443034Y-25905284D01*
X7465645Y-25877790D01*
X7541114Y-25832883D01*
X7615528Y-25836911D01*
G37*
X7615528Y-25836911D02*
X7675068Y-25883828D01*
X7705917Y-25967585D01*
X7707244Y-25983521D01*
X7704115Y-26039557D01*
X7693014Y-26135560D01*
X7675896Y-26255934D01*
X7663102Y-26336049D01*
X7643423Y-26471277D01*
X7629726Y-26599396D01*
X7623824Y-26701437D01*
X7624549Y-26739459D01*
X7633445Y-26858044D01*
X7937281Y-26567522D01*
X8057904Y-26447274D01*
X8174602Y-26322241D01*
X8275587Y-26205620D01*
X8349073Y-26110609D01*
X8360614Y-26093556D01*
X8423081Y-26004961D01*
X8479614Y-25937491D01*
X8519581Y-25903586D01*
X8524329Y-25901982D01*
X8575440Y-25912740D01*
X8639683Y-25949884D01*
X8644274Y-25953420D01*
X8699373Y-26015134D01*
X8717448Y-26087603D01*
X8696636Y-26174064D01*
X8635078Y-26277754D01*
X8530913Y-26401908D01*
X8382278Y-26549764D01*
X8214406Y-26701016D01*
X8109688Y-26793585D01*
X8022408Y-26873044D01*
X7960404Y-26932081D01*
X7931515Y-26963386D01*
X7930380Y-26965946D01*
X7951748Y-26988090D01*
X8009266Y-27036776D01*
X8093763Y-27104904D01*
X8196065Y-27185373D01*
X8307002Y-27271081D01*
X8417401Y-27354929D01*
X8518089Y-27429814D01*
X8599895Y-27488638D01*
X8643613Y-27518115D01*
X8728969Y-27556990D01*
X8832547Y-27584626D01*
X8859775Y-27588671D01*
X8939089Y-27601139D01*
X8978267Y-27622446D01*
X8993528Y-27664637D01*
X8996591Y-27690282D01*
X8982883Y-27794323D01*
X8925329Y-27869606D01*
X8833018Y-27906334D01*
X8794351Y-27908272D01*
X8726097Y-27898845D01*
X8648986Y-27871566D01*
X8555863Y-27822311D01*
X8439573Y-27746957D01*
X8292960Y-27641377D01*
X8169667Y-27548206D01*
X7987187Y-27410339D01*
X7844531Y-27306846D01*
X7738464Y-27235605D01*
X7665749Y-27194495D01*
X7623152Y-27181398D01*
X7613464Y-27183739D01*
X7578484Y-27228888D01*
X7548811Y-27319970D01*
X7523457Y-27460825D01*
X7507293Y-27595468D01*
X7490357Y-27719341D01*
X7468174Y-27827141D01*
X7444517Y-27901711D01*
X7436664Y-27916667D01*
X7372429Y-27973171D01*
X7297038Y-27980661D01*
X7227156Y-27939235D01*
X7208461Y-27915332D01*
X7182814Y-27863139D01*
X7177097Y-27802589D01*
X7189787Y-27712350D01*
X7192851Y-27696610D01*
X7208039Y-27608911D01*
X7224163Y-27492472D01*
X7241951Y-27340942D01*
X7262131Y-27147975D01*
X7285431Y-26907221D01*
X7294205Y-26813223D01*
X7304312Y-26716594D01*
X7319864Y-26582575D01*
X7338649Y-26429699D01*
X7356369Y-26292239D01*
X7378367Y-26137378D01*
X7398299Y-26028260D01*
X7418933Y-25954393D01*
X7443034Y-25905284D01*
X7465645Y-25877790D01*
X7541114Y-25832883D01*
X7615528Y-25836911D01*
G36*
X32484276Y-25840179D02*
G01*
X32484462Y-25840279D01*
X32544378Y-25891631D01*
X32573126Y-25969823D01*
X32572284Y-26083122D01*
X32552767Y-26198074D01*
X32530235Y-26324036D01*
X32509334Y-26475156D01*
X32494347Y-26620207D01*
X32493595Y-26629778D01*
X32475258Y-26869667D01*
X32556796Y-26799470D01*
X32727435Y-26645207D01*
X32893154Y-26481910D01*
X33042708Y-26321433D01*
X33164847Y-26175629D01*
X33219957Y-26100611D01*
X33286775Y-26008704D01*
X33345735Y-25938182D01*
X33387444Y-25899878D01*
X33397388Y-25896000D01*
X33455949Y-25916987D01*
X33522418Y-25967554D01*
X33575273Y-26029116D01*
X33591526Y-26063690D01*
X33583806Y-26137188D01*
X33528822Y-26237309D01*
X33426187Y-26364549D01*
X33275511Y-26519406D01*
X33128201Y-26656258D01*
X33016761Y-26757283D01*
X32921385Y-26845388D01*
X32849493Y-26913591D01*
X32808503Y-26954908D01*
X32801863Y-26963451D01*
X32821410Y-26990073D01*
X32885073Y-27046243D01*
X32990213Y-27129883D01*
X33134191Y-27238917D01*
X33314371Y-27371266D01*
X33380812Y-27419335D01*
X33505842Y-27504014D01*
X33604220Y-27556415D01*
X33689925Y-27583444D01*
X33723525Y-27588668D01*
X33802849Y-27601135D01*
X33842036Y-27622435D01*
X33857302Y-27664610D01*
X33860368Y-27690282D01*
X33846761Y-27794617D01*
X33789037Y-27869645D01*
X33695804Y-27906207D01*
X33655526Y-27908199D01*
X33576154Y-27894354D01*
X33479906Y-27854632D01*
X33360662Y-27785546D01*
X33212301Y-27683610D01*
X33057197Y-27567351D01*
X32856940Y-27415778D01*
X32698786Y-27301763D01*
X32582715Y-27225293D01*
X32508705Y-27186353D01*
X32479141Y-27182565D01*
X32439869Y-27234297D01*
X32409617Y-27336651D01*
X32387792Y-27491900D01*
X32382317Y-27555409D01*
X32357784Y-27741232D01*
X32316331Y-27873614D01*
X32257748Y-27953027D01*
X32195601Y-27979093D01*
X32122692Y-27968129D01*
X32075494Y-27920300D01*
X32050526Y-27868373D01*
X32045094Y-27806245D01*
X32057745Y-27713138D01*
X32060118Y-27700431D01*
X32072126Y-27623904D01*
X32088067Y-27503113D01*
X32106507Y-27349983D01*
X32126006Y-27176437D01*
X32144844Y-26997225D01*
X32175168Y-26705233D01*
X32201721Y-26465625D01*
X32225019Y-26274504D01*
X32245582Y-26127973D01*
X32263929Y-26022136D01*
X32280579Y-25953095D01*
X32285914Y-25937390D01*
X32336629Y-25862326D01*
X32407961Y-25827374D01*
X32484276Y-25840179D01*
G37*
X32484276Y-25840179D02*
X32484462Y-25840279D01*
X32544378Y-25891631D01*
X32573126Y-25969823D01*
X32572284Y-26083122D01*
X32552767Y-26198074D01*
X32530235Y-26324036D01*
X32509334Y-26475156D01*
X32494347Y-26620207D01*
X32493595Y-26629778D01*
X32475258Y-26869667D01*
X32556796Y-26799470D01*
X32727435Y-26645207D01*
X32893154Y-26481910D01*
X33042708Y-26321433D01*
X33164847Y-26175629D01*
X33219957Y-26100611D01*
X33286775Y-26008704D01*
X33345735Y-25938182D01*
X33387444Y-25899878D01*
X33397388Y-25896000D01*
X33455949Y-25916987D01*
X33522418Y-25967554D01*
X33575273Y-26029116D01*
X33591526Y-26063690D01*
X33583806Y-26137188D01*
X33528822Y-26237309D01*
X33426187Y-26364549D01*
X33275511Y-26519406D01*
X33128201Y-26656258D01*
X33016761Y-26757283D01*
X32921385Y-26845388D01*
X32849493Y-26913591D01*
X32808503Y-26954908D01*
X32801863Y-26963451D01*
X32821410Y-26990073D01*
X32885073Y-27046243D01*
X32990213Y-27129883D01*
X33134191Y-27238917D01*
X33314371Y-27371266D01*
X33380812Y-27419335D01*
X33505842Y-27504014D01*
X33604220Y-27556415D01*
X33689925Y-27583444D01*
X33723525Y-27588668D01*
X33802849Y-27601135D01*
X33842036Y-27622435D01*
X33857302Y-27664610D01*
X33860368Y-27690282D01*
X33846761Y-27794617D01*
X33789037Y-27869645D01*
X33695804Y-27906207D01*
X33655526Y-27908199D01*
X33576154Y-27894354D01*
X33479906Y-27854632D01*
X33360662Y-27785546D01*
X33212301Y-27683610D01*
X33057197Y-27567351D01*
X32856940Y-27415778D01*
X32698786Y-27301763D01*
X32582715Y-27225293D01*
X32508705Y-27186353D01*
X32479141Y-27182565D01*
X32439869Y-27234297D01*
X32409617Y-27336651D01*
X32387792Y-27491900D01*
X32382317Y-27555409D01*
X32357784Y-27741232D01*
X32316331Y-27873614D01*
X32257748Y-27953027D01*
X32195601Y-27979093D01*
X32122692Y-27968129D01*
X32075494Y-27920300D01*
X32050526Y-27868373D01*
X32045094Y-27806245D01*
X32057745Y-27713138D01*
X32060118Y-27700431D01*
X32072126Y-27623904D01*
X32088067Y-27503113D01*
X32106507Y-27349983D01*
X32126006Y-27176437D01*
X32144844Y-26997225D01*
X32175168Y-26705233D01*
X32201721Y-26465625D01*
X32225019Y-26274504D01*
X32245582Y-26127973D01*
X32263929Y-26022136D01*
X32280579Y-25953095D01*
X32285914Y-25937390D01*
X32336629Y-25862326D01*
X32407961Y-25827374D01*
X32484276Y-25840179D01*
G36*
X5061729Y-25755277D02*
G01*
X5180122Y-25822456D01*
X5253531Y-25907853D01*
X5285673Y-25975105D01*
X5299448Y-26055521D01*
X5298295Y-26169765D01*
X5297999Y-26175109D01*
X5289252Y-26278117D01*
X5272784Y-26343298D01*
X5241560Y-26389264D01*
X5204745Y-26421913D01*
X5128365Y-26466859D01*
X5052296Y-26488244D01*
X5045049Y-26488527D01*
X4973122Y-26472092D01*
X4934527Y-26419436D01*
X4927496Y-26326023D01*
X4942234Y-26224689D01*
X4960825Y-26107372D01*
X4957282Y-26035132D01*
X4928507Y-25999907D01*
X4871404Y-25993638D01*
X4854146Y-25995418D01*
X4727051Y-26033030D01*
X4582327Y-26111237D01*
X4430436Y-26221678D01*
X4281843Y-26355992D01*
X4147013Y-26505819D01*
X4053683Y-26634979D01*
X3935735Y-26845640D01*
X3858405Y-27042575D01*
X3822015Y-27221231D01*
X3826889Y-27377059D01*
X3873349Y-27505506D01*
X3961718Y-27602021D01*
X3984024Y-27616832D01*
X4116101Y-27664735D01*
X4274200Y-27664978D01*
X4455166Y-27618222D01*
X4655844Y-27525127D01*
X4779830Y-27450288D01*
X4877910Y-27389058D01*
X4941868Y-27357424D01*
X4982795Y-27351189D01*
X5008873Y-27363635D01*
X5049118Y-27426880D01*
X5035463Y-27505347D01*
X4967813Y-27599347D01*
X4922125Y-27644596D01*
X4754434Y-27771296D01*
X4565698Y-27866950D01*
X4367592Y-27928744D01*
X4171792Y-27953862D01*
X3989974Y-27939491D01*
X3865778Y-27899246D01*
X3703750Y-27805922D01*
X3591068Y-27695897D01*
X3522174Y-27560236D01*
X3491513Y-27390002D01*
X3488746Y-27293000D01*
X3510476Y-27057504D01*
X3573960Y-26833976D01*
X3682489Y-26615645D01*
X3839351Y-26395739D01*
X4023740Y-26191724D01*
X4208037Y-26025435D01*
X4395203Y-25894860D01*
X4579696Y-25801277D01*
X4755975Y-25745967D01*
X4918500Y-25730207D01*
X5061729Y-25755277D01*
G37*
X5061729Y-25755277D02*
X5180122Y-25822456D01*
X5253531Y-25907853D01*
X5285673Y-25975105D01*
X5299448Y-26055521D01*
X5298295Y-26169765D01*
X5297999Y-26175109D01*
X5289252Y-26278117D01*
X5272784Y-26343298D01*
X5241560Y-26389264D01*
X5204745Y-26421913D01*
X5128365Y-26466859D01*
X5052296Y-26488244D01*
X5045049Y-26488527D01*
X4973122Y-26472092D01*
X4934527Y-26419436D01*
X4927496Y-26326023D01*
X4942234Y-26224689D01*
X4960825Y-26107372D01*
X4957282Y-26035132D01*
X4928507Y-25999907D01*
X4871404Y-25993638D01*
X4854146Y-25995418D01*
X4727051Y-26033030D01*
X4582327Y-26111237D01*
X4430436Y-26221678D01*
X4281843Y-26355992D01*
X4147013Y-26505819D01*
X4053683Y-26634979D01*
X3935735Y-26845640D01*
X3858405Y-27042575D01*
X3822015Y-27221231D01*
X3826889Y-27377059D01*
X3873349Y-27505506D01*
X3961718Y-27602021D01*
X3984024Y-27616832D01*
X4116101Y-27664735D01*
X4274200Y-27664978D01*
X4455166Y-27618222D01*
X4655844Y-27525127D01*
X4779830Y-27450288D01*
X4877910Y-27389058D01*
X4941868Y-27357424D01*
X4982795Y-27351189D01*
X5008873Y-27363635D01*
X5049118Y-27426880D01*
X5035463Y-27505347D01*
X4967813Y-27599347D01*
X4922125Y-27644596D01*
X4754434Y-27771296D01*
X4565698Y-27866950D01*
X4367592Y-27928744D01*
X4171792Y-27953862D01*
X3989974Y-27939491D01*
X3865778Y-27899246D01*
X3703750Y-27805922D01*
X3591068Y-27695897D01*
X3522174Y-27560236D01*
X3491513Y-27390002D01*
X3488746Y-27293000D01*
X3510476Y-27057504D01*
X3573960Y-26833976D01*
X3682489Y-26615645D01*
X3839351Y-26395739D01*
X4023740Y-26191724D01*
X4208037Y-26025435D01*
X4395203Y-25894860D01*
X4579696Y-25801277D01*
X4755975Y-25745967D01*
X4918500Y-25730207D01*
X5061729Y-25755277D01*
G36*
X5918247Y-25842211D02*
G01*
X5961043Y-25868876D01*
X5988137Y-25916080D01*
X6000045Y-25991034D01*
X5997285Y-26100950D01*
X5980374Y-26253040D01*
X5958357Y-26401389D01*
X5909027Y-26723106D01*
X5871432Y-26990276D01*
X5845506Y-27203552D01*
X5831181Y-27363585D01*
X5828393Y-27471025D01*
X5837074Y-27526525D01*
X5842961Y-27533895D01*
X5894134Y-27547033D01*
X5909330Y-27544214D01*
X5945504Y-27538100D01*
X6026395Y-27528098D01*
X6140503Y-27515359D01*
X6276326Y-27501037D01*
X6422363Y-27486284D01*
X6567111Y-27472252D01*
X6699071Y-27460094D01*
X6806741Y-27450963D01*
X6878619Y-27446011D01*
X6894866Y-27445458D01*
X6972400Y-27468835D01*
X7018025Y-27534232D01*
X7026667Y-27592789D01*
X7007926Y-27668549D01*
X6961956Y-27738289D01*
X6904140Y-27781801D01*
X6878500Y-27787440D01*
X6630729Y-27792689D01*
X6429449Y-27800473D01*
X6264729Y-27811688D01*
X6126641Y-27827230D01*
X6005254Y-27847997D01*
X5890639Y-27874884D01*
X5880835Y-27877495D01*
X5728068Y-27913682D01*
X5619234Y-27928718D01*
X5562925Y-27923888D01*
X5503515Y-27875678D01*
X5463870Y-27795590D01*
X5454495Y-27707427D01*
X5458190Y-27686603D01*
X5472898Y-27611885D01*
X5492157Y-27489509D01*
X5514856Y-27327977D01*
X5539884Y-27135791D01*
X5566128Y-26921453D01*
X5592478Y-26693464D01*
X5614839Y-26488583D01*
X5633385Y-26319528D01*
X5651189Y-26168065D01*
X5667018Y-26043850D01*
X5679644Y-25956541D01*
X5687801Y-25915884D01*
X5731821Y-25869032D01*
X5806933Y-25839439D01*
X5888574Y-25834959D01*
X5918247Y-25842211D01*
G37*
X5918247Y-25842211D02*
X5961043Y-25868876D01*
X5988137Y-25916080D01*
X6000045Y-25991034D01*
X5997285Y-26100950D01*
X5980374Y-26253040D01*
X5958357Y-26401389D01*
X5909027Y-26723106D01*
X5871432Y-26990276D01*
X5845506Y-27203552D01*
X5831181Y-27363585D01*
X5828393Y-27471025D01*
X5837074Y-27526525D01*
X5842961Y-27533895D01*
X5894134Y-27547033D01*
X5909330Y-27544214D01*
X5945504Y-27538100D01*
X6026395Y-27528098D01*
X6140503Y-27515359D01*
X6276326Y-27501037D01*
X6422363Y-27486284D01*
X6567111Y-27472252D01*
X6699071Y-27460094D01*
X6806741Y-27450963D01*
X6878619Y-27446011D01*
X6894866Y-27445458D01*
X6972400Y-27468835D01*
X7018025Y-27534232D01*
X7026667Y-27592789D01*
X7007926Y-27668549D01*
X6961956Y-27738289D01*
X6904140Y-27781801D01*
X6878500Y-27787440D01*
X6630729Y-27792689D01*
X6429449Y-27800473D01*
X6264729Y-27811688D01*
X6126641Y-27827230D01*
X6005254Y-27847997D01*
X5890639Y-27874884D01*
X5880835Y-27877495D01*
X5728068Y-27913682D01*
X5619234Y-27928718D01*
X5562925Y-27923888D01*
X5503515Y-27875678D01*
X5463870Y-27795590D01*
X5454495Y-27707427D01*
X5458190Y-27686603D01*
X5472898Y-27611885D01*
X5492157Y-27489509D01*
X5514856Y-27327977D01*
X5539884Y-27135791D01*
X5566128Y-26921453D01*
X5592478Y-26693464D01*
X5614839Y-26488583D01*
X5633385Y-26319528D01*
X5651189Y-26168065D01*
X5667018Y-26043850D01*
X5679644Y-25956541D01*
X5687801Y-25915884D01*
X5731821Y-25869032D01*
X5806933Y-25839439D01*
X5888574Y-25834959D01*
X5918247Y-25842211D01*
G36*
X29894437Y-25746716D02*
G01*
X30008785Y-25797736D01*
X30095912Y-25884822D01*
X30150871Y-26008621D01*
X30168784Y-26159227D01*
X30165107Y-26258930D01*
X30149009Y-26324490D01*
X30113123Y-26377985D01*
X30086393Y-26406171D01*
X29992151Y-26474909D01*
X29906739Y-26493319D01*
X29839321Y-26466502D01*
X29799063Y-26399561D01*
X29795129Y-26297597D01*
X29805345Y-26249709D01*
X29826290Y-26130906D01*
X29816880Y-26044253D01*
X29778425Y-25997158D01*
X29759667Y-25991572D01*
X29687875Y-26000570D01*
X29587192Y-26038076D01*
X29472416Y-26096861D01*
X29358343Y-26169695D01*
X29294000Y-26219119D01*
X29074117Y-26438954D01*
X28887356Y-26703130D01*
X28810147Y-26844810D01*
X28751063Y-26970181D01*
X28715677Y-27067882D01*
X28698128Y-27158327D01*
X28692676Y-27254032D01*
X28709342Y-27418011D01*
X28763483Y-27542234D01*
X28851874Y-27626051D01*
X28971287Y-27668811D01*
X29118497Y-27669866D01*
X29290276Y-27628564D01*
X29483398Y-27544257D01*
X29649095Y-27446713D01*
X29745536Y-27386648D01*
X29808161Y-27356265D01*
X29848292Y-27351358D01*
X29872651Y-27363635D01*
X29912896Y-27426880D01*
X29899241Y-27505347D01*
X29831590Y-27599347D01*
X29785902Y-27644596D01*
X29612522Y-27775615D01*
X29419265Y-27872488D01*
X29217258Y-27932647D01*
X29017626Y-27953525D01*
X28831494Y-27932556D01*
X28715239Y-27891625D01*
X28551559Y-27786802D01*
X28435467Y-27651744D01*
X28367038Y-27486682D01*
X28346343Y-27291849D01*
X28373457Y-27067478D01*
X28410438Y-26926111D01*
X28475947Y-26756428D01*
X28571287Y-26585212D01*
X28704035Y-26399386D01*
X28747192Y-26345112D01*
X28913625Y-26161774D01*
X29087453Y-26009976D01*
X29263732Y-25890365D01*
X29437514Y-25803586D01*
X29603856Y-25750288D01*
X29757812Y-25731115D01*
X29894437Y-25746716D01*
G37*
X29894437Y-25746716D02*
X30008785Y-25797736D01*
X30095912Y-25884822D01*
X30150871Y-26008621D01*
X30168784Y-26159227D01*
X30165107Y-26258930D01*
X30149009Y-26324490D01*
X30113123Y-26377985D01*
X30086393Y-26406171D01*
X29992151Y-26474909D01*
X29906739Y-26493319D01*
X29839321Y-26466502D01*
X29799063Y-26399561D01*
X29795129Y-26297597D01*
X29805345Y-26249709D01*
X29826290Y-26130906D01*
X29816880Y-26044253D01*
X29778425Y-25997158D01*
X29759667Y-25991572D01*
X29687875Y-26000570D01*
X29587192Y-26038076D01*
X29472416Y-26096861D01*
X29358343Y-26169695D01*
X29294000Y-26219119D01*
X29074117Y-26438954D01*
X28887356Y-26703130D01*
X28810147Y-26844810D01*
X28751063Y-26970181D01*
X28715677Y-27067882D01*
X28698128Y-27158327D01*
X28692676Y-27254032D01*
X28709342Y-27418011D01*
X28763483Y-27542234D01*
X28851874Y-27626051D01*
X28971287Y-27668811D01*
X29118497Y-27669866D01*
X29290276Y-27628564D01*
X29483398Y-27544257D01*
X29649095Y-27446713D01*
X29745536Y-27386648D01*
X29808161Y-27356265D01*
X29848292Y-27351358D01*
X29872651Y-27363635D01*
X29912896Y-27426880D01*
X29899241Y-27505347D01*
X29831590Y-27599347D01*
X29785902Y-27644596D01*
X29612522Y-27775615D01*
X29419265Y-27872488D01*
X29217258Y-27932647D01*
X29017626Y-27953525D01*
X28831494Y-27932556D01*
X28715239Y-27891625D01*
X28551559Y-27786802D01*
X28435467Y-27651744D01*
X28367038Y-27486682D01*
X28346343Y-27291849D01*
X28373457Y-27067478D01*
X28410438Y-26926111D01*
X28475947Y-26756428D01*
X28571287Y-26585212D01*
X28704035Y-26399386D01*
X28747192Y-26345112D01*
X28913625Y-26161774D01*
X29087453Y-26009976D01*
X29263732Y-25890365D01*
X29437514Y-25803586D01*
X29603856Y-25750288D01*
X29757812Y-25731115D01*
X29894437Y-25746716D01*
G36*
X30806434Y-25855164D02*
G01*
X30860554Y-25921786D01*
X30880739Y-26030317D01*
X30866370Y-26178705D01*
X30848014Y-26259678D01*
X30836348Y-26318556D01*
X30819330Y-26423117D01*
X30798491Y-26563022D01*
X30775364Y-26727930D01*
X30751478Y-26907503D01*
X30747602Y-26937579D01*
X30721856Y-27144235D01*
X30704710Y-27301097D01*
X30696417Y-27414198D01*
X30697230Y-27489569D01*
X30707403Y-27533240D01*
X30727190Y-27551243D01*
X30756844Y-27549609D01*
X30773108Y-27544214D01*
X30809282Y-27538100D01*
X30890173Y-27528098D01*
X31004281Y-27515359D01*
X31140104Y-27501037D01*
X31286140Y-27486284D01*
X31430889Y-27472252D01*
X31562849Y-27460094D01*
X31670519Y-27450963D01*
X31742397Y-27446011D01*
X31758644Y-27445458D01*
X31836178Y-27468835D01*
X31881802Y-27534232D01*
X31890445Y-27592789D01*
X31871703Y-27668549D01*
X31825734Y-27738289D01*
X31767918Y-27781801D01*
X31742278Y-27787440D01*
X31464248Y-27794635D01*
X31225637Y-27806737D01*
X31031258Y-27823381D01*
X30885929Y-27844202D01*
X30832111Y-27856350D01*
X30725379Y-27885202D01*
X30627514Y-27911488D01*
X30576867Y-27924972D01*
X30496492Y-27934730D01*
X30433189Y-27926287D01*
X30386810Y-27889437D01*
X30344590Y-27826557D01*
X30318093Y-27759653D01*
X30318881Y-27710729D01*
X30319430Y-27709797D01*
X30329120Y-27672112D01*
X30343857Y-27586605D01*
X30362557Y-27461562D01*
X30384133Y-27305272D01*
X30407500Y-27126021D01*
X30431575Y-26932097D01*
X30455271Y-26731788D01*
X30477503Y-26533381D01*
X30494098Y-26375778D01*
X30515190Y-26186263D01*
X30536406Y-26045982D01*
X30560700Y-25947795D01*
X30591029Y-25884561D01*
X30630348Y-25849141D01*
X30681613Y-25834395D01*
X30718998Y-25832500D01*
X30806434Y-25855164D01*
G37*
X30806434Y-25855164D02*
X30860554Y-25921786D01*
X30880739Y-26030317D01*
X30866370Y-26178705D01*
X30848014Y-26259678D01*
X30836348Y-26318556D01*
X30819330Y-26423117D01*
X30798491Y-26563022D01*
X30775364Y-26727930D01*
X30751478Y-26907503D01*
X30747602Y-26937579D01*
X30721856Y-27144235D01*
X30704710Y-27301097D01*
X30696417Y-27414198D01*
X30697230Y-27489569D01*
X30707403Y-27533240D01*
X30727190Y-27551243D01*
X30756844Y-27549609D01*
X30773108Y-27544214D01*
X30809282Y-27538100D01*
X30890173Y-27528098D01*
X31004281Y-27515359D01*
X31140104Y-27501037D01*
X31286140Y-27486284D01*
X31430889Y-27472252D01*
X31562849Y-27460094D01*
X31670519Y-27450963D01*
X31742397Y-27446011D01*
X31758644Y-27445458D01*
X31836178Y-27468835D01*
X31881802Y-27534232D01*
X31890445Y-27592789D01*
X31871703Y-27668549D01*
X31825734Y-27738289D01*
X31767918Y-27781801D01*
X31742278Y-27787440D01*
X31464248Y-27794635D01*
X31225637Y-27806737D01*
X31031258Y-27823381D01*
X30885929Y-27844202D01*
X30832111Y-27856350D01*
X30725379Y-27885202D01*
X30627514Y-27911488D01*
X30576867Y-27924972D01*
X30496492Y-27934730D01*
X30433189Y-27926287D01*
X30386810Y-27889437D01*
X30344590Y-27826557D01*
X30318093Y-27759653D01*
X30318881Y-27710729D01*
X30319430Y-27709797D01*
X30329120Y-27672112D01*
X30343857Y-27586605D01*
X30362557Y-27461562D01*
X30384133Y-27305272D01*
X30407500Y-27126021D01*
X30431575Y-26932097D01*
X30455271Y-26731788D01*
X30477503Y-26533381D01*
X30494098Y-26375778D01*
X30515190Y-26186263D01*
X30536406Y-26045982D01*
X30560700Y-25947795D01*
X30591029Y-25884561D01*
X30630348Y-25849141D01*
X30681613Y-25834395D01*
X30718998Y-25832500D01*
X30806434Y-25855164D01*
G36*
X10769311Y-25834127D02*
G01*
X10776509Y-25837569D01*
X10833827Y-25887495D01*
X10862803Y-25965176D01*
X10864370Y-26077748D01*
X10839462Y-26232345D01*
X10832392Y-26264511D01*
X10772104Y-26549878D01*
X10729844Y-26799537D01*
X10703518Y-27030512D01*
X10691031Y-27259831D01*
X10689390Y-27426598D01*
X10689904Y-27581367D01*
X10688399Y-27689798D01*
X10683277Y-27762000D01*
X10672942Y-27808078D01*
X10655797Y-27838139D01*
X10630247Y-27862289D01*
X10619172Y-27871098D01*
X10562925Y-27912190D01*
X10522819Y-27922810D01*
X10470908Y-27907734D01*
X10451093Y-27899817D01*
X10392709Y-27846369D01*
X10355191Y-27743618D01*
X10339085Y-27594921D01*
X10344938Y-27403636D01*
X10354579Y-27307111D01*
X10383572Y-27067161D01*
X10412146Y-26841429D01*
X10439122Y-26638563D01*
X10463325Y-26467211D01*
X10483576Y-26336019D01*
X10496731Y-26262889D01*
X10517468Y-26156641D01*
X10536207Y-26052270D01*
X10539692Y-26031223D01*
X10572384Y-25941345D01*
X10630516Y-25871205D01*
X10700641Y-25831800D01*
X10769311Y-25834127D01*
G37*
X10769311Y-25834127D02*
X10776509Y-25837569D01*
X10833827Y-25887495D01*
X10862803Y-25965176D01*
X10864370Y-26077748D01*
X10839462Y-26232345D01*
X10832392Y-26264511D01*
X10772104Y-26549878D01*
X10729844Y-26799537D01*
X10703518Y-27030512D01*
X10691031Y-27259831D01*
X10689390Y-27426598D01*
X10689904Y-27581367D01*
X10688399Y-27689798D01*
X10683277Y-27762000D01*
X10672942Y-27808078D01*
X10655797Y-27838139D01*
X10630247Y-27862289D01*
X10619172Y-27871098D01*
X10562925Y-27912190D01*
X10522819Y-27922810D01*
X10470908Y-27907734D01*
X10451093Y-27899817D01*
X10392709Y-27846369D01*
X10355191Y-27743618D01*
X10339085Y-27594921D01*
X10344938Y-27403636D01*
X10354579Y-27307111D01*
X10383572Y-27067161D01*
X10412146Y-26841429D01*
X10439122Y-26638563D01*
X10463325Y-26467211D01*
X10483576Y-26336019D01*
X10496731Y-26262889D01*
X10517468Y-26156641D01*
X10536207Y-26052270D01*
X10539692Y-26031223D01*
X10572384Y-25941345D01*
X10630516Y-25871205D01*
X10700641Y-25831800D01*
X10769311Y-25834127D01*
G36*
X36739545Y-25949703D02*
G01*
X36795205Y-26004778D01*
X36827038Y-26084483D01*
X36829723Y-26166189D01*
X36803563Y-26221967D01*
X36781203Y-26266901D01*
X36755202Y-26353596D01*
X36727103Y-26472396D01*
X36698445Y-26613646D01*
X36670771Y-26767691D01*
X36645621Y-26924875D01*
X36624536Y-27075543D01*
X36609057Y-27210041D01*
X36600726Y-27318712D01*
X36601083Y-27391901D01*
X36611670Y-27419954D01*
X36612348Y-27420000D01*
X36645970Y-27414039D01*
X36720666Y-27398147D01*
X36822560Y-27375312D01*
X36863518Y-27365901D01*
X37041878Y-27327638D01*
X37172902Y-27306987D01*
X37262751Y-27303557D01*
X37317586Y-27316959D01*
X37338294Y-27335921D01*
X37364581Y-27421926D01*
X37341868Y-27503118D01*
X37297241Y-27548128D01*
X37246883Y-27568262D01*
X37157029Y-27593347D01*
X37043990Y-27619883D01*
X36924076Y-27644372D01*
X36813601Y-27663314D01*
X36728875Y-27673211D01*
X36710929Y-27673893D01*
X36686169Y-27696583D01*
X36654485Y-27750599D01*
X36596988Y-27819848D01*
X36517107Y-27857974D01*
X36434196Y-27859295D01*
X36379979Y-27831214D01*
X36349893Y-27808045D01*
X36316153Y-27798434D01*
X36264915Y-27802980D01*
X36182338Y-27822279D01*
X36105057Y-27843084D01*
X35996040Y-27872858D01*
X35905032Y-27897612D01*
X35848288Y-27912927D01*
X35841556Y-27914712D01*
X35784317Y-27910647D01*
X35742778Y-27894046D01*
X35672770Y-27838778D01*
X35645995Y-27767262D01*
X35644432Y-27738225D01*
X35659740Y-27687542D01*
X35710461Y-27644172D01*
X35802648Y-27605106D01*
X35942356Y-27567339D01*
X36024274Y-27549569D01*
X36131714Y-27525452D01*
X36217306Y-27502473D01*
X36266258Y-27484716D01*
X36271314Y-27481308D01*
X36284496Y-27444821D01*
X36300510Y-27366711D01*
X36316546Y-27261515D01*
X36321649Y-27220937D01*
X36339914Y-27078888D01*
X36363484Y-26911392D01*
X36388067Y-26748627D01*
X36394950Y-26705527D01*
X36412461Y-26586885D01*
X36423455Y-26490226D01*
X36426669Y-26428252D01*
X36424026Y-26412619D01*
X36393901Y-26418125D01*
X36331791Y-26448529D01*
X36266490Y-26487639D01*
X36148546Y-26553450D01*
X36026359Y-26605314D01*
X35915198Y-26638051D01*
X35830336Y-26646479D01*
X35809518Y-26642678D01*
X35757609Y-26600000D01*
X35734125Y-26527450D01*
X35740852Y-26466514D01*
X35772786Y-26430253D01*
X35842220Y-26381256D01*
X35934931Y-26329391D01*
X35947365Y-26323238D01*
X36056130Y-26268076D01*
X36192376Y-26195925D01*
X36334790Y-26118175D01*
X36411254Y-26075323D01*
X36536770Y-26006053D01*
X36624167Y-25963383D01*
X36682979Y-25943663D01*
X36722743Y-25943245D01*
X36739545Y-25949703D01*
G37*
X36739545Y-25949703D02*
X36795205Y-26004778D01*
X36827038Y-26084483D01*
X36829723Y-26166189D01*
X36803563Y-26221967D01*
X36781203Y-26266901D01*
X36755202Y-26353596D01*
X36727103Y-26472396D01*
X36698445Y-26613646D01*
X36670771Y-26767691D01*
X36645621Y-26924875D01*
X36624536Y-27075543D01*
X36609057Y-27210041D01*
X36600726Y-27318712D01*
X36601083Y-27391901D01*
X36611670Y-27419954D01*
X36612348Y-27420000D01*
X36645970Y-27414039D01*
X36720666Y-27398147D01*
X36822560Y-27375312D01*
X36863518Y-27365901D01*
X37041878Y-27327638D01*
X37172902Y-27306987D01*
X37262751Y-27303557D01*
X37317586Y-27316959D01*
X37338294Y-27335921D01*
X37364581Y-27421926D01*
X37341868Y-27503118D01*
X37297241Y-27548128D01*
X37246883Y-27568262D01*
X37157029Y-27593347D01*
X37043990Y-27619883D01*
X36924076Y-27644372D01*
X36813601Y-27663314D01*
X36728875Y-27673211D01*
X36710929Y-27673893D01*
X36686169Y-27696583D01*
X36654485Y-27750599D01*
X36596988Y-27819848D01*
X36517107Y-27857974D01*
X36434196Y-27859295D01*
X36379979Y-27831214D01*
X36349893Y-27808045D01*
X36316153Y-27798434D01*
X36264915Y-27802980D01*
X36182338Y-27822279D01*
X36105057Y-27843084D01*
X35996040Y-27872858D01*
X35905032Y-27897612D01*
X35848288Y-27912927D01*
X35841556Y-27914712D01*
X35784317Y-27910647D01*
X35742778Y-27894046D01*
X35672770Y-27838778D01*
X35645995Y-27767262D01*
X35644432Y-27738225D01*
X35659740Y-27687542D01*
X35710461Y-27644172D01*
X35802648Y-27605106D01*
X35942356Y-27567339D01*
X36024274Y-27549569D01*
X36131714Y-27525452D01*
X36217306Y-27502473D01*
X36266258Y-27484716D01*
X36271314Y-27481308D01*
X36284496Y-27444821D01*
X36300510Y-27366711D01*
X36316546Y-27261515D01*
X36321649Y-27220937D01*
X36339914Y-27078888D01*
X36363484Y-26911392D01*
X36388067Y-26748627D01*
X36394950Y-26705527D01*
X36412461Y-26586885D01*
X36423455Y-26490226D01*
X36426669Y-26428252D01*
X36424026Y-26412619D01*
X36393901Y-26418125D01*
X36331791Y-26448529D01*
X36266490Y-26487639D01*
X36148546Y-26553450D01*
X36026359Y-26605314D01*
X35915198Y-26638051D01*
X35830336Y-26646479D01*
X35809518Y-26642678D01*
X35757609Y-26600000D01*
X35734125Y-26527450D01*
X35740852Y-26466514D01*
X35772786Y-26430253D01*
X35842220Y-26381256D01*
X35934931Y-26329391D01*
X35947365Y-26323238D01*
X36056130Y-26268076D01*
X36192376Y-26195925D01*
X36334790Y-26118175D01*
X36411254Y-26075323D01*
X36536770Y-26006053D01*
X36624167Y-25963383D01*
X36682979Y-25943663D01*
X36722743Y-25943245D01*
X36739545Y-25949703D01*
G36*
X11391118Y-26447477D02*
G01*
X11454455Y-26486809D01*
X11492890Y-26555495D01*
X11507424Y-26659564D01*
X11499058Y-26805045D01*
X11475966Y-26958604D01*
X11456531Y-27075276D01*
X11443208Y-27169261D01*
X11437643Y-27228047D01*
X11438811Y-27241330D01*
X11456250Y-27223205D01*
X11494362Y-27165531D01*
X11546785Y-27078310D01*
X11584937Y-27011552D01*
X11699519Y-26823049D01*
X11805603Y-26684311D01*
X11908734Y-26590434D01*
X12014461Y-26536516D01*
X12128330Y-26517652D01*
X12143782Y-26517517D01*
X12235112Y-26532809D01*
X12311085Y-26580318D01*
X12373972Y-26664584D01*
X12426044Y-26790144D01*
X12469573Y-26961538D01*
X12506829Y-27183305D01*
X12517687Y-27264778D01*
X12536773Y-27382218D01*
X12562121Y-27452497D01*
X12600661Y-27484893D01*
X12659320Y-27488684D01*
X12682530Y-27485526D01*
X12753838Y-27481573D01*
X12794819Y-27505561D01*
X12811496Y-27531532D01*
X12823283Y-27604581D01*
X12790121Y-27676532D01*
X12723072Y-27739326D01*
X12633201Y-27784902D01*
X12531572Y-27805198D01*
X12446831Y-27797225D01*
X12377616Y-27768844D01*
X12323618Y-27717652D01*
X12281209Y-27635877D01*
X12246760Y-27515746D01*
X12216643Y-27349487D01*
X12207120Y-27283777D01*
X12186820Y-27150610D01*
X12165724Y-27034251D01*
X12146533Y-26948458D01*
X12133729Y-26909833D01*
X12098287Y-26866510D01*
X12055207Y-26859788D01*
X12001872Y-26892392D01*
X11935667Y-26967045D01*
X11853976Y-27086471D01*
X11754183Y-27253394D01*
X11684426Y-27377667D01*
X11563213Y-27586703D01*
X11459715Y-27742391D01*
X11373976Y-27844676D01*
X11306040Y-27893500D01*
X11280722Y-27897989D01*
X11228336Y-27886588D01*
X11181979Y-27870525D01*
X11125113Y-27833299D01*
X11092342Y-27771881D01*
X11082149Y-27677997D01*
X11093019Y-27543372D01*
X11106161Y-27456498D01*
X11125817Y-27317927D01*
X11144660Y-27149259D01*
X11159928Y-26976811D01*
X11165958Y-26887159D01*
X11175607Y-26742401D01*
X11186622Y-26642020D01*
X11201494Y-26573960D01*
X11222713Y-26526165D01*
X11247466Y-26492623D01*
X11298001Y-26444113D01*
X11345369Y-26434958D01*
X11391118Y-26447477D01*
G37*
X11391118Y-26447477D02*
X11454455Y-26486809D01*
X11492890Y-26555495D01*
X11507424Y-26659564D01*
X11499058Y-26805045D01*
X11475966Y-26958604D01*
X11456531Y-27075276D01*
X11443208Y-27169261D01*
X11437643Y-27228047D01*
X11438811Y-27241330D01*
X11456250Y-27223205D01*
X11494362Y-27165531D01*
X11546785Y-27078310D01*
X11584937Y-27011552D01*
X11699519Y-26823049D01*
X11805603Y-26684311D01*
X11908734Y-26590434D01*
X12014461Y-26536516D01*
X12128330Y-26517652D01*
X12143782Y-26517517D01*
X12235112Y-26532809D01*
X12311085Y-26580318D01*
X12373972Y-26664584D01*
X12426044Y-26790144D01*
X12469573Y-26961538D01*
X12506829Y-27183305D01*
X12517687Y-27264778D01*
X12536773Y-27382218D01*
X12562121Y-27452497D01*
X12600661Y-27484893D01*
X12659320Y-27488684D01*
X12682530Y-27485526D01*
X12753838Y-27481573D01*
X12794819Y-27505561D01*
X12811496Y-27531532D01*
X12823283Y-27604581D01*
X12790121Y-27676532D01*
X12723072Y-27739326D01*
X12633201Y-27784902D01*
X12531572Y-27805198D01*
X12446831Y-27797225D01*
X12377616Y-27768844D01*
X12323618Y-27717652D01*
X12281209Y-27635877D01*
X12246760Y-27515746D01*
X12216643Y-27349487D01*
X12207120Y-27283777D01*
X12186820Y-27150610D01*
X12165724Y-27034251D01*
X12146533Y-26948458D01*
X12133729Y-26909833D01*
X12098287Y-26866510D01*
X12055207Y-26859788D01*
X12001872Y-26892392D01*
X11935667Y-26967045D01*
X11853976Y-27086471D01*
X11754183Y-27253394D01*
X11684426Y-27377667D01*
X11563213Y-27586703D01*
X11459715Y-27742391D01*
X11373976Y-27844676D01*
X11306040Y-27893500D01*
X11280722Y-27897989D01*
X11228336Y-27886588D01*
X11181979Y-27870525D01*
X11125113Y-27833299D01*
X11092342Y-27771881D01*
X11082149Y-27677997D01*
X11093019Y-27543372D01*
X11106161Y-27456498D01*
X11125817Y-27317927D01*
X11144660Y-27149259D01*
X11159928Y-26976811D01*
X11165958Y-26887159D01*
X11175607Y-26742401D01*
X11186622Y-26642020D01*
X11201494Y-26573960D01*
X11222713Y-26526165D01*
X11247466Y-26492623D01*
X11298001Y-26444113D01*
X11345369Y-26434958D01*
X11391118Y-26447477D01*
G36*
X14750248Y-5108515D02*
G01*
X14882947Y-5114378D01*
X14972986Y-5124212D01*
X14988292Y-5127098D01*
X15237131Y-5204773D01*
X15453251Y-5323796D01*
X15632610Y-5479709D01*
X15771167Y-5668051D01*
X15864883Y-5884366D01*
X15909716Y-6124195D01*
X15911132Y-6145340D01*
X15906878Y-6402829D01*
X15860259Y-6636266D01*
X15767796Y-6854241D01*
X15626008Y-7065343D01*
X15466061Y-7243823D01*
X15295341Y-7400233D01*
X15110687Y-7536477D01*
X14903842Y-7656733D01*
X14666547Y-7765179D01*
X14390544Y-7865995D01*
X14067576Y-7963358D01*
X14016015Y-7977531D01*
X13867526Y-8022520D01*
X13716738Y-8075926D01*
X13585622Y-8129630D01*
X13524928Y-8158942D01*
X13395972Y-8221211D01*
X13299773Y-8249778D01*
X13224161Y-8245114D01*
X13156972Y-8207691D01*
X13120496Y-8174616D01*
X13061788Y-8098197D01*
X13040944Y-8015219D01*
X13056050Y-7910265D01*
X13078755Y-7838252D01*
X13095877Y-7767619D01*
X13111277Y-7673363D01*
X13565303Y-7673363D01*
X13703818Y-7656386D01*
X13790922Y-7641027D01*
X13912752Y-7613497D01*
X14050117Y-7578322D01*
X14133083Y-7555120D01*
X14474370Y-7439008D01*
X14764580Y-7302768D01*
X15005929Y-7144875D01*
X15200632Y-6963803D01*
X15350904Y-6758026D01*
X15387893Y-6690778D01*
X15438151Y-6579779D01*
X15467794Y-6474150D01*
X15483408Y-6347535D01*
X15486658Y-6295667D01*
X15490923Y-6176579D01*
X15485887Y-6092491D01*
X15467684Y-6022224D01*
X15432443Y-5944594D01*
X15417171Y-5915183D01*
X15298322Y-5748295D01*
X15140554Y-5619292D01*
X14951905Y-5534736D01*
X14950744Y-5534390D01*
X14856838Y-5516290D01*
X14720899Y-5502698D01*
X14557182Y-5493973D01*
X14379946Y-5490477D01*
X14203449Y-5492569D01*
X14041947Y-5500609D01*
X13952038Y-5509163D01*
X13807742Y-5526501D01*
X13747378Y-5911084D01*
X13699151Y-6226179D01*
X13660762Y-6495932D01*
X13631030Y-6730362D01*
X13608774Y-6939484D01*
X13592813Y-7133315D01*
X13582563Y-7309071D01*
X13565303Y-7673363D01*
X13111277Y-7673363D01*
X13114311Y-7654797D01*
X13132100Y-7513949D01*
X13147283Y-7359235D01*
X13150474Y-7319648D01*
X13164953Y-7159961D01*
X13186314Y-6961921D01*
X13212486Y-6742907D01*
X13241397Y-6520295D01*
X13269133Y-6323889D01*
X13302332Y-6099402D01*
X13327541Y-5924338D01*
X13344754Y-5792242D01*
X13353964Y-5696660D01*
X13355165Y-5631138D01*
X13348350Y-5589221D01*
X13333514Y-5564456D01*
X13310648Y-5550388D01*
X13279747Y-5540562D01*
X13268341Y-5537312D01*
X13169678Y-5487279D01*
X13118603Y-5414466D01*
X13116533Y-5328566D01*
X13164888Y-5239272D01*
X13217375Y-5189132D01*
X13242267Y-5172460D01*
X13274308Y-5159140D01*
X13320286Y-5148570D01*
X13386991Y-5140149D01*
X13481211Y-5133276D01*
X13609736Y-5127348D01*
X13779353Y-5121765D01*
X13996853Y-5115924D01*
X14062053Y-5114290D01*
X14343216Y-5108519D01*
X14571476Y-5106578D01*
X14750248Y-5108515D01*
G37*
X14750248Y-5108515D02*
X14882947Y-5114378D01*
X14972986Y-5124212D01*
X14988292Y-5127098D01*
X15237131Y-5204773D01*
X15453251Y-5323796D01*
X15632610Y-5479709D01*
X15771167Y-5668051D01*
X15864883Y-5884366D01*
X15909716Y-6124195D01*
X15911132Y-6145340D01*
X15906878Y-6402829D01*
X15860259Y-6636266D01*
X15767796Y-6854241D01*
X15626008Y-7065343D01*
X15466061Y-7243823D01*
X15295341Y-7400233D01*
X15110687Y-7536477D01*
X14903842Y-7656733D01*
X14666547Y-7765179D01*
X14390544Y-7865995D01*
X14067576Y-7963358D01*
X14016015Y-7977531D01*
X13867526Y-8022520D01*
X13716738Y-8075926D01*
X13585622Y-8129630D01*
X13524928Y-8158942D01*
X13395972Y-8221211D01*
X13299773Y-8249778D01*
X13224161Y-8245114D01*
X13156972Y-8207691D01*
X13120496Y-8174616D01*
X13061788Y-8098197D01*
X13040944Y-8015219D01*
X13056050Y-7910265D01*
X13078755Y-7838252D01*
X13095877Y-7767619D01*
X13111277Y-7673363D01*
X13565303Y-7673363D01*
X13703818Y-7656386D01*
X13790922Y-7641027D01*
X13912752Y-7613497D01*
X14050117Y-7578322D01*
X14133083Y-7555120D01*
X14474370Y-7439008D01*
X14764580Y-7302768D01*
X15005929Y-7144875D01*
X15200632Y-6963803D01*
X15350904Y-6758026D01*
X15387893Y-6690778D01*
X15438151Y-6579779D01*
X15467794Y-6474150D01*
X15483408Y-6347535D01*
X15486658Y-6295667D01*
X15490923Y-6176579D01*
X15485887Y-6092491D01*
X15467684Y-6022224D01*
X15432443Y-5944594D01*
X15417171Y-5915183D01*
X15298322Y-5748295D01*
X15140554Y-5619292D01*
X14951905Y-5534736D01*
X14950744Y-5534390D01*
X14856838Y-5516290D01*
X14720899Y-5502698D01*
X14557182Y-5493973D01*
X14379946Y-5490477D01*
X14203449Y-5492569D01*
X14041947Y-5500609D01*
X13952038Y-5509163D01*
X13807742Y-5526501D01*
X13747378Y-5911084D01*
X13699151Y-6226179D01*
X13660762Y-6495932D01*
X13631030Y-6730362D01*
X13608774Y-6939484D01*
X13592813Y-7133315D01*
X13582563Y-7309071D01*
X13565303Y-7673363D01*
X13111277Y-7673363D01*
X13114311Y-7654797D01*
X13132100Y-7513949D01*
X13147283Y-7359235D01*
X13150474Y-7319648D01*
X13164953Y-7159961D01*
X13186314Y-6961921D01*
X13212486Y-6742907D01*
X13241397Y-6520295D01*
X13269133Y-6323889D01*
X13302332Y-6099402D01*
X13327541Y-5924338D01*
X13344754Y-5792242D01*
X13353964Y-5696660D01*
X13355165Y-5631138D01*
X13348350Y-5589221D01*
X13333514Y-5564456D01*
X13310648Y-5550388D01*
X13279747Y-5540562D01*
X13268341Y-5537312D01*
X13169678Y-5487279D01*
X13118603Y-5414466D01*
X13116533Y-5328566D01*
X13164888Y-5239272D01*
X13217375Y-5189132D01*
X13242267Y-5172460D01*
X13274308Y-5159140D01*
X13320286Y-5148570D01*
X13386991Y-5140149D01*
X13481211Y-5133276D01*
X13609736Y-5127348D01*
X13779353Y-5121765D01*
X13996853Y-5115924D01*
X14062053Y-5114290D01*
X14343216Y-5108519D01*
X14571476Y-5106578D01*
X14750248Y-5108515D01*
G36*
X19526636Y-5855575D02*
G01*
X19596675Y-5921760D01*
X19637151Y-6012743D01*
X19642000Y-6057646D01*
X19631439Y-6109133D01*
X19594451Y-6165977D01*
X19523079Y-6238733D01*
X19469375Y-6286673D01*
X19341392Y-6413285D01*
X19195630Y-6584061D01*
X19037257Y-6791592D01*
X18871435Y-7028470D01*
X18703330Y-7287287D01*
X18538106Y-7560636D01*
X18380930Y-7841107D01*
X18365304Y-7870291D01*
X18292867Y-7991818D01*
X18215564Y-8097783D01*
X18141987Y-8178172D01*
X18080726Y-8222967D01*
X18057719Y-8228889D01*
X18011539Y-8213900D01*
X17942079Y-8176200D01*
X17912885Y-8157316D01*
X17837031Y-8092154D01*
X17808338Y-8028199D01*
X17807556Y-8014417D01*
X17798987Y-7967515D01*
X17774994Y-7875891D01*
X17738148Y-7748320D01*
X17691018Y-7593577D01*
X17636175Y-7420440D01*
X17609967Y-7339787D01*
X17513195Y-7036564D01*
X17437408Y-6780510D01*
X17381705Y-6566763D01*
X17345185Y-6390464D01*
X17326949Y-6246751D01*
X17326096Y-6130764D01*
X17341725Y-6037642D01*
X17359661Y-5988458D01*
X17420071Y-5914164D01*
X17506136Y-5875549D01*
X17600741Y-5873288D01*
X17686770Y-5908053D01*
X17743640Y-5973340D01*
X17763179Y-6039546D01*
X17776016Y-6136408D01*
X17778917Y-6205135D01*
X17792460Y-6386733D01*
X17830841Y-6608739D01*
X17891898Y-6861990D01*
X17973468Y-7137325D01*
X18055395Y-7376593D01*
X18109710Y-7526186D01*
X18399950Y-7052037D01*
X18579162Y-6762963D01*
X18735015Y-6520343D01*
X18870471Y-6320701D01*
X18988493Y-6160559D01*
X19092043Y-6036440D01*
X19184083Y-5944868D01*
X19267574Y-5882364D01*
X19345480Y-5845452D01*
X19420762Y-5830655D01*
X19440995Y-5830000D01*
X19526636Y-5855575D01*
G37*
X19526636Y-5855575D02*
X19596675Y-5921760D01*
X19637151Y-6012743D01*
X19642000Y-6057646D01*
X19631439Y-6109133D01*
X19594451Y-6165977D01*
X19523079Y-6238733D01*
X19469375Y-6286673D01*
X19341392Y-6413285D01*
X19195630Y-6584061D01*
X19037257Y-6791592D01*
X18871435Y-7028470D01*
X18703330Y-7287287D01*
X18538106Y-7560636D01*
X18380930Y-7841107D01*
X18365304Y-7870291D01*
X18292867Y-7991818D01*
X18215564Y-8097783D01*
X18141987Y-8178172D01*
X18080726Y-8222967D01*
X18057719Y-8228889D01*
X18011539Y-8213900D01*
X17942079Y-8176200D01*
X17912885Y-8157316D01*
X17837031Y-8092154D01*
X17808338Y-8028199D01*
X17807556Y-8014417D01*
X17798987Y-7967515D01*
X17774994Y-7875891D01*
X17738148Y-7748320D01*
X17691018Y-7593577D01*
X17636175Y-7420440D01*
X17609967Y-7339787D01*
X17513195Y-7036564D01*
X17437408Y-6780510D01*
X17381705Y-6566763D01*
X17345185Y-6390464D01*
X17326949Y-6246751D01*
X17326096Y-6130764D01*
X17341725Y-6037642D01*
X17359661Y-5988458D01*
X17420071Y-5914164D01*
X17506136Y-5875549D01*
X17600741Y-5873288D01*
X17686770Y-5908053D01*
X17743640Y-5973340D01*
X17763179Y-6039546D01*
X17776016Y-6136408D01*
X17778917Y-6205135D01*
X17792460Y-6386733D01*
X17830841Y-6608739D01*
X17891898Y-6861990D01*
X17973468Y-7137325D01*
X18055395Y-7376593D01*
X18109710Y-7526186D01*
X18399950Y-7052037D01*
X18579162Y-6762963D01*
X18735015Y-6520343D01*
X18870471Y-6320701D01*
X18988493Y-6160559D01*
X19092043Y-6036440D01*
X19184083Y-5944868D01*
X19267574Y-5882364D01*
X19345480Y-5845452D01*
X19420762Y-5830655D01*
X19440995Y-5830000D01*
X19526636Y-5855575D01*
G36*
X27437530Y-5878650D02*
G01*
X27553718Y-5933509D01*
X27646923Y-6014058D01*
X27711167Y-6111238D01*
X27740474Y-6215991D01*
X27728867Y-6319255D01*
X27670370Y-6411972D01*
X27669802Y-6412542D01*
X27591476Y-6463182D01*
X27506317Y-6461955D01*
X27410039Y-6408153D01*
X27355752Y-6360701D01*
X27284764Y-6307119D01*
X27215146Y-6291231D01*
X27138557Y-6315453D01*
X27046656Y-6382202D01*
X26944828Y-6479744D01*
X26754554Y-6702439D01*
X26585974Y-6954070D01*
X26446955Y-7220164D01*
X26345368Y-7486243D01*
X26300797Y-7664445D01*
X26269352Y-7824390D01*
X26243009Y-7938685D01*
X26218484Y-8017497D01*
X26192493Y-8070992D01*
X26161750Y-8109337D01*
X26154955Y-8115886D01*
X26073507Y-8160797D01*
X25979290Y-8169720D01*
X25895272Y-8142332D01*
X25868519Y-8119889D01*
X25832719Y-8070576D01*
X25805628Y-8007017D01*
X25786202Y-7921511D01*
X25773395Y-7806358D01*
X25766164Y-7653860D01*
X25763462Y-7456315D01*
X25763460Y-7345703D01*
X25767250Y-7111160D01*
X25776692Y-6877769D01*
X25790969Y-6654147D01*
X25809262Y-6448911D01*
X25830752Y-6270678D01*
X25854621Y-6128063D01*
X25880051Y-6029685D01*
X25890913Y-6003800D01*
X25962673Y-5920897D01*
X26065746Y-5869332D01*
X26141495Y-5858655D01*
X26220323Y-5873692D01*
X26276708Y-5926134D01*
X26299538Y-5964663D01*
X26311670Y-5989180D01*
X26318962Y-6014489D01*
X26320380Y-6049163D01*
X26314894Y-6101771D01*
X26301470Y-6180888D01*
X26279078Y-6295083D01*
X26246685Y-6452930D01*
X26232510Y-6521445D01*
X26211166Y-6643113D01*
X26196265Y-6763371D01*
X26191336Y-6846000D01*
X26191041Y-6973000D01*
X26299445Y-6768790D01*
X26443106Y-6526885D01*
X26599464Y-6315223D01*
X26763492Y-6138356D01*
X26930165Y-6000839D01*
X27094456Y-5907223D01*
X27251340Y-5862061D01*
X27304334Y-5858542D01*
X27437530Y-5878650D01*
G37*
X27437530Y-5878650D02*
X27553718Y-5933509D01*
X27646923Y-6014058D01*
X27711167Y-6111238D01*
X27740474Y-6215991D01*
X27728867Y-6319255D01*
X27670370Y-6411972D01*
X27669802Y-6412542D01*
X27591476Y-6463182D01*
X27506317Y-6461955D01*
X27410039Y-6408153D01*
X27355752Y-6360701D01*
X27284764Y-6307119D01*
X27215146Y-6291231D01*
X27138557Y-6315453D01*
X27046656Y-6382202D01*
X26944828Y-6479744D01*
X26754554Y-6702439D01*
X26585974Y-6954070D01*
X26446955Y-7220164D01*
X26345368Y-7486243D01*
X26300797Y-7664445D01*
X26269352Y-7824390D01*
X26243009Y-7938685D01*
X26218484Y-8017497D01*
X26192493Y-8070992D01*
X26161750Y-8109337D01*
X26154955Y-8115886D01*
X26073507Y-8160797D01*
X25979290Y-8169720D01*
X25895272Y-8142332D01*
X25868519Y-8119889D01*
X25832719Y-8070576D01*
X25805628Y-8007017D01*
X25786202Y-7921511D01*
X25773395Y-7806358D01*
X25766164Y-7653860D01*
X25763462Y-7456315D01*
X25763460Y-7345703D01*
X25767250Y-7111160D01*
X25776692Y-6877769D01*
X25790969Y-6654147D01*
X25809262Y-6448911D01*
X25830752Y-6270678D01*
X25854621Y-6128063D01*
X25880051Y-6029685D01*
X25890913Y-6003800D01*
X25962673Y-5920897D01*
X26065746Y-5869332D01*
X26141495Y-5858655D01*
X26220323Y-5873692D01*
X26276708Y-5926134D01*
X26299538Y-5964663D01*
X26311670Y-5989180D01*
X26318962Y-6014489D01*
X26320380Y-6049163D01*
X26314894Y-6101771D01*
X26301470Y-6180888D01*
X26279078Y-6295083D01*
X26246685Y-6452930D01*
X26232510Y-6521445D01*
X26211166Y-6643113D01*
X26196265Y-6763371D01*
X26191336Y-6846000D01*
X26191041Y-6973000D01*
X26299445Y-6768790D01*
X26443106Y-6526885D01*
X26599464Y-6315223D01*
X26763492Y-6138356D01*
X26930165Y-6000839D01*
X27094456Y-5907223D01*
X27251340Y-5862061D01*
X27304334Y-5858542D01*
X27437530Y-5878650D01*
G36*
X16841856Y-5919413D02*
G01*
X16909837Y-5951552D01*
X16954308Y-5992614D01*
X16976102Y-6050925D01*
X16976051Y-6134812D01*
X16954990Y-6252599D01*
X16913750Y-6412613D01*
X16897105Y-6471718D01*
X16854787Y-6624719D01*
X16815275Y-6775707D01*
X16782966Y-6907365D01*
X16762260Y-7002378D01*
X16762139Y-7003016D01*
X16749825Y-7110535D01*
X16743780Y-7256740D01*
X16743696Y-7424257D01*
X16749268Y-7595712D01*
X16760187Y-7753731D01*
X16776147Y-7880940D01*
X16777811Y-7890231D01*
X16782985Y-7967840D01*
X16756079Y-8023889D01*
X16728964Y-8052074D01*
X16650989Y-8104075D01*
X16572607Y-8132979D01*
X16506377Y-8137438D01*
X16450960Y-8112739D01*
X16397575Y-8065028D01*
X16331783Y-7977735D01*
X16308041Y-7880165D01*
X16307599Y-7871227D01*
X16305857Y-7710259D01*
X16313442Y-7535258D01*
X16331275Y-7335031D01*
X16360275Y-7098392D01*
X16386019Y-6916556D01*
X16411717Y-6741008D01*
X16436653Y-6568751D01*
X16458731Y-6414404D01*
X16475854Y-6292586D01*
X16482820Y-6241611D01*
X16516189Y-6078414D01*
X16567135Y-5967305D01*
X16638259Y-5905947D01*
X16732163Y-5892007D01*
X16841856Y-5919413D01*
G37*
X16841856Y-5919413D02*
X16909837Y-5951552D01*
X16954308Y-5992614D01*
X16976102Y-6050925D01*
X16976051Y-6134812D01*
X16954990Y-6252599D01*
X16913750Y-6412613D01*
X16897105Y-6471718D01*
X16854787Y-6624719D01*
X16815275Y-6775707D01*
X16782966Y-6907365D01*
X16762260Y-7002378D01*
X16762139Y-7003016D01*
X16749825Y-7110535D01*
X16743780Y-7256740D01*
X16743696Y-7424257D01*
X16749268Y-7595712D01*
X16760187Y-7753731D01*
X16776147Y-7880940D01*
X16777811Y-7890231D01*
X16782985Y-7967840D01*
X16756079Y-8023889D01*
X16728964Y-8052074D01*
X16650989Y-8104075D01*
X16572607Y-8132979D01*
X16506377Y-8137438D01*
X16450960Y-8112739D01*
X16397575Y-8065028D01*
X16331783Y-7977735D01*
X16308041Y-7880165D01*
X16307599Y-7871227D01*
X16305857Y-7710259D01*
X16313442Y-7535258D01*
X16331275Y-7335031D01*
X16360275Y-7098392D01*
X16386019Y-6916556D01*
X16411717Y-6741008D01*
X16436653Y-6568751D01*
X16458731Y-6414404D01*
X16475854Y-6292586D01*
X16482820Y-6241611D01*
X16516189Y-6078414D01*
X16567135Y-5967305D01*
X16638259Y-5905947D01*
X16732163Y-5892007D01*
X16841856Y-5919413D01*
G36*
X20242087Y-5914052D02*
G01*
X20256744Y-5919413D01*
X20319077Y-5947709D01*
X20361879Y-5982741D01*
X20385548Y-6032191D01*
X20390481Y-6103743D01*
X20377075Y-6205081D01*
X20345727Y-6343889D01*
X20296834Y-6527850D01*
X20289549Y-6554257D01*
X20243027Y-6724880D01*
X20209916Y-6856494D01*
X20187946Y-6964310D01*
X20174849Y-7063542D01*
X20168355Y-7169403D01*
X20166194Y-7297105D01*
X20166030Y-7382223D01*
X20167757Y-7534350D01*
X20172409Y-7676191D01*
X20179301Y-7792983D01*
X20187750Y-7869963D01*
X20188894Y-7876111D01*
X20199261Y-7954752D01*
X20185165Y-8005994D01*
X20144197Y-8052066D01*
X20046668Y-8114837D01*
X19944142Y-8133455D01*
X19852087Y-8105419D01*
X19844830Y-8100511D01*
X19783814Y-8037271D01*
X19750247Y-7979097D01*
X19730862Y-7886574D01*
X19724301Y-7745078D01*
X19730286Y-7560539D01*
X19748535Y-7338884D01*
X19778770Y-7086044D01*
X19799050Y-6944778D01*
X19825320Y-6769790D01*
X19850672Y-6598567D01*
X19872992Y-6445559D01*
X19890166Y-6325215D01*
X19897130Y-6274626D01*
X19930388Y-6103189D01*
X19978776Y-5984116D01*
X20045031Y-5914704D01*
X20131889Y-5892251D01*
X20242087Y-5914052D01*
G37*
X20242087Y-5914052D02*
X20256744Y-5919413D01*
X20319077Y-5947709D01*
X20361879Y-5982741D01*
X20385548Y-6032191D01*
X20390481Y-6103743D01*
X20377075Y-6205081D01*
X20345727Y-6343889D01*
X20296834Y-6527850D01*
X20289549Y-6554257D01*
X20243027Y-6724880D01*
X20209916Y-6856494D01*
X20187946Y-6964310D01*
X20174849Y-7063542D01*
X20168355Y-7169403D01*
X20166194Y-7297105D01*
X20166030Y-7382223D01*
X20167757Y-7534350D01*
X20172409Y-7676191D01*
X20179301Y-7792983D01*
X20187750Y-7869963D01*
X20188894Y-7876111D01*
X20199261Y-7954752D01*
X20185165Y-8005994D01*
X20144197Y-8052066D01*
X20046668Y-8114837D01*
X19944142Y-8133455D01*
X19852087Y-8105419D01*
X19844830Y-8100511D01*
X19783814Y-8037271D01*
X19750247Y-7979097D01*
X19730862Y-7886574D01*
X19724301Y-7745078D01*
X19730286Y-7560539D01*
X19748535Y-7338884D01*
X19778770Y-7086044D01*
X19799050Y-6944778D01*
X19825320Y-6769790D01*
X19850672Y-6598567D01*
X19872992Y-6445559D01*
X19890166Y-6325215D01*
X19897130Y-6274626D01*
X19930388Y-6103189D01*
X19978776Y-5984116D01*
X20045031Y-5914704D01*
X20131889Y-5892251D01*
X20242087Y-5914052D01*
G36*
X23018591Y-4538752D02*
G01*
X23076537Y-4591308D01*
X23120839Y-4678827D01*
X23141201Y-4779927D01*
X23141556Y-4794135D01*
X23133732Y-4842365D01*
X23112446Y-4931634D01*
X23080977Y-5049077D01*
X23043752Y-5177979D01*
X22956467Y-5487768D01*
X22878343Y-5799808D01*
X22810328Y-6107694D01*
X22753370Y-6405018D01*
X22708416Y-6685375D01*
X22676416Y-6942357D01*
X22658316Y-7169558D01*
X22655065Y-7360571D01*
X22667611Y-7508991D01*
X22687320Y-7586838D01*
X22735726Y-7648330D01*
X22815673Y-7664124D01*
X22925409Y-7634102D01*
X22981860Y-7606785D01*
X23083835Y-7568719D01*
X23161028Y-7574582D01*
X23207642Y-7623688D01*
X23211386Y-7633938D01*
X23211149Y-7720043D01*
X23165824Y-7812522D01*
X23084926Y-7903456D01*
X22977973Y-7984929D01*
X22854481Y-8049020D01*
X22723967Y-8087813D01*
X22656858Y-8095343D01*
X22527309Y-8079218D01*
X22425063Y-8017914D01*
X22348870Y-7909729D01*
X22297479Y-7752963D01*
X22271619Y-7571573D01*
X22252556Y-7343589D01*
X22172223Y-7465191D01*
X22068180Y-7599745D01*
X21933713Y-7741023D01*
X21785531Y-7873549D01*
X21640343Y-7981848D01*
X21566469Y-8026201D01*
X21396003Y-8098935D01*
X21235861Y-8132585D01*
X21096507Y-8125567D01*
X21037601Y-8106180D01*
X20910698Y-8019591D01*
X20819631Y-7895546D01*
X20763966Y-7739835D01*
X20743266Y-7558249D01*
X20745040Y-7532372D01*
X21139621Y-7532372D01*
X21144639Y-7605535D01*
X21161370Y-7651609D01*
X21178761Y-7673174D01*
X21221129Y-7707408D01*
X21266104Y-7716696D01*
X21329981Y-7700401D01*
X21415825Y-7663915D01*
X21561172Y-7583565D01*
X21695977Y-7475957D01*
X21831887Y-7330936D01*
X21910683Y-7232391D01*
X22003179Y-7102915D01*
X22092392Y-6962536D01*
X22172244Y-6822543D01*
X22236661Y-6694225D01*
X22279567Y-6588872D01*
X22294889Y-6518525D01*
X22279366Y-6432585D01*
X22240597Y-6347315D01*
X22190281Y-6285304D01*
X22166625Y-6270865D01*
X22034195Y-6249131D01*
X21893927Y-6279397D01*
X21749920Y-6358496D01*
X21606271Y-6483261D01*
X21467081Y-6650522D01*
X21336447Y-6857114D01*
X21287347Y-6950375D01*
X21223635Y-7083889D01*
X21182882Y-7188299D01*
X21159156Y-7282990D01*
X21146528Y-7387350D01*
X21144378Y-7417715D01*
X21139621Y-7532372D01*
X20745040Y-7532372D01*
X20757096Y-7356578D01*
X20805021Y-7140612D01*
X20886605Y-6916143D01*
X21001412Y-6688961D01*
X21149007Y-6464855D01*
X21162407Y-6446983D01*
X21337364Y-6244759D01*
X21521116Y-6086018D01*
X21709029Y-5972861D01*
X21896470Y-5907391D01*
X22078803Y-5891710D01*
X22251397Y-5927921D01*
X22280323Y-5939780D01*
X22357617Y-5972174D01*
X22410093Y-5990771D01*
X22423408Y-5992620D01*
X22430785Y-5964070D01*
X22447689Y-5888068D01*
X22472446Y-5772484D01*
X22503379Y-5625189D01*
X22538815Y-5454051D01*
X22559458Y-5353392D01*
X22598708Y-5167871D01*
X22637215Y-4997716D01*
X22672754Y-4851865D01*
X22703102Y-4739259D01*
X22726036Y-4668838D01*
X22733764Y-4652634D01*
X22805113Y-4580429D01*
X22895975Y-4536536D01*
X22986002Y-4529089D01*
X23018591Y-4538752D01*
G37*
X23018591Y-4538752D02*
X23076537Y-4591308D01*
X23120839Y-4678827D01*
X23141201Y-4779927D01*
X23141556Y-4794135D01*
X23133732Y-4842365D01*
X23112446Y-4931634D01*
X23080977Y-5049077D01*
X23043752Y-5177979D01*
X22956467Y-5487768D01*
X22878343Y-5799808D01*
X22810328Y-6107694D01*
X22753370Y-6405018D01*
X22708416Y-6685375D01*
X22676416Y-6942357D01*
X22658316Y-7169558D01*
X22655065Y-7360571D01*
X22667611Y-7508991D01*
X22687320Y-7586838D01*
X22735726Y-7648330D01*
X22815673Y-7664124D01*
X22925409Y-7634102D01*
X22981860Y-7606785D01*
X23083835Y-7568719D01*
X23161028Y-7574582D01*
X23207642Y-7623688D01*
X23211386Y-7633938D01*
X23211149Y-7720043D01*
X23165824Y-7812522D01*
X23084926Y-7903456D01*
X22977973Y-7984929D01*
X22854481Y-8049020D01*
X22723967Y-8087813D01*
X22656858Y-8095343D01*
X22527309Y-8079218D01*
X22425063Y-8017914D01*
X22348870Y-7909729D01*
X22297479Y-7752963D01*
X22271619Y-7571573D01*
X22252556Y-7343589D01*
X22172223Y-7465191D01*
X22068180Y-7599745D01*
X21933713Y-7741023D01*
X21785531Y-7873549D01*
X21640343Y-7981848D01*
X21566469Y-8026201D01*
X21396003Y-8098935D01*
X21235861Y-8132585D01*
X21096507Y-8125567D01*
X21037601Y-8106180D01*
X20910698Y-8019591D01*
X20819631Y-7895546D01*
X20763966Y-7739835D01*
X20743266Y-7558249D01*
X20745040Y-7532372D01*
X21139621Y-7532372D01*
X21144639Y-7605535D01*
X21161370Y-7651609D01*
X21178761Y-7673174D01*
X21221129Y-7707408D01*
X21266104Y-7716696D01*
X21329981Y-7700401D01*
X21415825Y-7663915D01*
X21561172Y-7583565D01*
X21695977Y-7475957D01*
X21831887Y-7330936D01*
X21910683Y-7232391D01*
X22003179Y-7102915D01*
X22092392Y-6962536D01*
X22172244Y-6822543D01*
X22236661Y-6694225D01*
X22279567Y-6588872D01*
X22294889Y-6518525D01*
X22279366Y-6432585D01*
X22240597Y-6347315D01*
X22190281Y-6285304D01*
X22166625Y-6270865D01*
X22034195Y-6249131D01*
X21893927Y-6279397D01*
X21749920Y-6358496D01*
X21606271Y-6483261D01*
X21467081Y-6650522D01*
X21336447Y-6857114D01*
X21287347Y-6950375D01*
X21223635Y-7083889D01*
X21182882Y-7188299D01*
X21159156Y-7282990D01*
X21146528Y-7387350D01*
X21144378Y-7417715D01*
X21139621Y-7532372D01*
X20745040Y-7532372D01*
X20757096Y-7356578D01*
X20805021Y-7140612D01*
X20886605Y-6916143D01*
X21001412Y-6688961D01*
X21149007Y-6464855D01*
X21162407Y-6446983D01*
X21337364Y-6244759D01*
X21521116Y-6086018D01*
X21709029Y-5972861D01*
X21896470Y-5907391D01*
X22078803Y-5891710D01*
X22251397Y-5927921D01*
X22280323Y-5939780D01*
X22357617Y-5972174D01*
X22410093Y-5990771D01*
X22423408Y-5992620D01*
X22430785Y-5964070D01*
X22447689Y-5888068D01*
X22472446Y-5772484D01*
X22503379Y-5625189D01*
X22538815Y-5454051D01*
X22559458Y-5353392D01*
X22598708Y-5167871D01*
X22637215Y-4997716D01*
X22672754Y-4851865D01*
X22703102Y-4739259D01*
X22726036Y-4668838D01*
X22733764Y-4652634D01*
X22805113Y-4580429D01*
X22895975Y-4536536D01*
X22986002Y-4529089D01*
X23018591Y-4538752D01*
G36*
X24940264Y-5784415D02*
G01*
X25038374Y-5851126D01*
X25094198Y-5918095D01*
X25124415Y-5991513D01*
X25139263Y-6095852D01*
X25141866Y-6203211D01*
X25124698Y-6293444D01*
X25081656Y-6396956D01*
X25076815Y-6406919D01*
X24988799Y-6543480D01*
X24855941Y-6691207D01*
X24686579Y-6842342D01*
X24489052Y-6989130D01*
X24365014Y-7069127D01*
X24205523Y-7166602D01*
X24087761Y-7239477D01*
X24005408Y-7292766D01*
X23952142Y-7331487D01*
X23921642Y-7360653D01*
X23907588Y-7385280D01*
X23903658Y-7410384D01*
X23903556Y-7435261D01*
X23929247Y-7541005D01*
X23999681Y-7626643D01*
X24104902Y-7685991D01*
X24234951Y-7712863D01*
X24342638Y-7708008D01*
X24486243Y-7668762D01*
X24649991Y-7595360D01*
X24817508Y-7496690D01*
X24972421Y-7381638D01*
X25018334Y-7341270D01*
X25120812Y-7252129D01*
X25195359Y-7202337D01*
X25250608Y-7188248D01*
X25295198Y-7206215D01*
X25309022Y-7218534D01*
X25342797Y-7289767D01*
X25332359Y-7385284D01*
X25280743Y-7498487D01*
X25190984Y-7622778D01*
X25066117Y-7751559D01*
X25062214Y-7755102D01*
X24863198Y-7913942D01*
X24664693Y-8026551D01*
X24452902Y-8100960D01*
X24280971Y-8134920D01*
X24129067Y-8137509D01*
X23970433Y-8108939D01*
X23954936Y-8104853D01*
X23783906Y-8034126D01*
X23651938Y-7924016D01*
X23558317Y-7773506D01*
X23502329Y-7581579D01*
X23485912Y-7436452D01*
X23494987Y-7177401D01*
X23548360Y-6916242D01*
X23554525Y-6899277D01*
X23974011Y-6899277D01*
X23976993Y-6902445D01*
X24007242Y-6887850D01*
X24071747Y-6849104D01*
X24158068Y-6793765D01*
X24182864Y-6777382D01*
X24398339Y-6622946D01*
X24559132Y-6482484D01*
X24665246Y-6355993D01*
X24716686Y-6243468D01*
X24722000Y-6198291D01*
X24707887Y-6154716D01*
X24656230Y-6140737D01*
X24644389Y-6140550D01*
X24536172Y-6166137D01*
X24417616Y-6237413D01*
X24296355Y-6346563D01*
X24180025Y-6485770D01*
X24076263Y-6647219D01*
X24003437Y-6796611D01*
X23979914Y-6862125D01*
X23974011Y-6899277D01*
X23554525Y-6899277D01*
X23640941Y-6661513D01*
X23767638Y-6421751D01*
X23923362Y-6205494D01*
X24103022Y-6021280D01*
X24301527Y-5877646D01*
X24460886Y-5801245D01*
X24638237Y-5754048D01*
X24800968Y-5748692D01*
X24940264Y-5784415D01*
G37*
X24940264Y-5784415D02*
X25038374Y-5851126D01*
X25094198Y-5918095D01*
X25124415Y-5991513D01*
X25139263Y-6095852D01*
X25141866Y-6203211D01*
X25124698Y-6293444D01*
X25081656Y-6396956D01*
X25076815Y-6406919D01*
X24988799Y-6543480D01*
X24855941Y-6691207D01*
X24686579Y-6842342D01*
X24489052Y-6989130D01*
X24365014Y-7069127D01*
X24205523Y-7166602D01*
X24087761Y-7239477D01*
X24005408Y-7292766D01*
X23952142Y-7331487D01*
X23921642Y-7360653D01*
X23907588Y-7385280D01*
X23903658Y-7410384D01*
X23903556Y-7435261D01*
X23929247Y-7541005D01*
X23999681Y-7626643D01*
X24104902Y-7685991D01*
X24234951Y-7712863D01*
X24342638Y-7708008D01*
X24486243Y-7668762D01*
X24649991Y-7595360D01*
X24817508Y-7496690D01*
X24972421Y-7381638D01*
X25018334Y-7341270D01*
X25120812Y-7252129D01*
X25195359Y-7202337D01*
X25250608Y-7188248D01*
X25295198Y-7206215D01*
X25309022Y-7218534D01*
X25342797Y-7289767D01*
X25332359Y-7385284D01*
X25280743Y-7498487D01*
X25190984Y-7622778D01*
X25066117Y-7751559D01*
X25062214Y-7755102D01*
X24863198Y-7913942D01*
X24664693Y-8026551D01*
X24452902Y-8100960D01*
X24280971Y-8134920D01*
X24129067Y-8137509D01*
X23970433Y-8108939D01*
X23954936Y-8104853D01*
X23783906Y-8034126D01*
X23651938Y-7924016D01*
X23558317Y-7773506D01*
X23502329Y-7581579D01*
X23485912Y-7436452D01*
X23494987Y-7177401D01*
X23548360Y-6916242D01*
X23554525Y-6899277D01*
X23974011Y-6899277D01*
X23976993Y-6902445D01*
X24007242Y-6887850D01*
X24071747Y-6849104D01*
X24158068Y-6793765D01*
X24182864Y-6777382D01*
X24398339Y-6622946D01*
X24559132Y-6482484D01*
X24665246Y-6355993D01*
X24716686Y-6243468D01*
X24722000Y-6198291D01*
X24707887Y-6154716D01*
X24656230Y-6140737D01*
X24644389Y-6140550D01*
X24536172Y-6166137D01*
X24417616Y-6237413D01*
X24296355Y-6346563D01*
X24180025Y-6485770D01*
X24076263Y-6647219D01*
X24003437Y-6796611D01*
X23979914Y-6862125D01*
X23974011Y-6899277D01*
X23554525Y-6899277D01*
X23640941Y-6661513D01*
X23767638Y-6421751D01*
X23923362Y-6205494D01*
X24103022Y-6021280D01*
X24301527Y-5877646D01*
X24460886Y-5801245D01*
X24638237Y-5754048D01*
X24800968Y-5748692D01*
X24940264Y-5784415D01*
G36*
X17252982Y-4702865D02*
G01*
X17256626Y-4705684D01*
X17304671Y-4750406D01*
X17323142Y-4797554D01*
X17319783Y-4870964D01*
X17317066Y-4891686D01*
X17283757Y-5038944D01*
X17230159Y-5167091D01*
X17163172Y-5262343D01*
X17111529Y-5302310D01*
X17009655Y-5349429D01*
X16942171Y-5365799D01*
X16896587Y-5352114D01*
X16864813Y-5315973D01*
X16833484Y-5251586D01*
X16799789Y-5157718D01*
X16781916Y-5095847D01*
X16760215Y-4954310D01*
X16780378Y-4843669D01*
X16845615Y-4753684D01*
X16903524Y-4708167D01*
X17024075Y-4654740D01*
X17144158Y-4652947D01*
X17252982Y-4702865D01*
G37*
X17252982Y-4702865D02*
X17256626Y-4705684D01*
X17304671Y-4750406D01*
X17323142Y-4797554D01*
X17319783Y-4870964D01*
X17317066Y-4891686D01*
X17283757Y-5038944D01*
X17230159Y-5167091D01*
X17163172Y-5262343D01*
X17111529Y-5302310D01*
X17009655Y-5349429D01*
X16942171Y-5365799D01*
X16896587Y-5352114D01*
X16864813Y-5315973D01*
X16833484Y-5251586D01*
X16799789Y-5157718D01*
X16781916Y-5095847D01*
X16760215Y-4954310D01*
X16780378Y-4843669D01*
X16845615Y-4753684D01*
X16903524Y-4708167D01*
X17024075Y-4654740D01*
X17144158Y-4652947D01*
X17252982Y-4702865D01*
G36*
X20591143Y-4662878D02*
G01*
X20671465Y-4705645D01*
X20721539Y-4753932D01*
X20739541Y-4807130D01*
X20735916Y-4882579D01*
X20707452Y-5017128D01*
X20657508Y-5142662D01*
X20594024Y-5243272D01*
X20526418Y-5302310D01*
X20424848Y-5349367D01*
X20357569Y-5365747D01*
X20311858Y-5352007D01*
X20277907Y-5313234D01*
X20236428Y-5224275D01*
X20204634Y-5109354D01*
X20186495Y-4990382D01*
X20185986Y-4889270D01*
X20194077Y-4850824D01*
X20248076Y-4768647D01*
X20337430Y-4698148D01*
X20441096Y-4653364D01*
X20503146Y-4644667D01*
X20591143Y-4662878D01*
G37*
X20591143Y-4662878D02*
X20671465Y-4705645D01*
X20721539Y-4753932D01*
X20739541Y-4807130D01*
X20735916Y-4882579D01*
X20707452Y-5017128D01*
X20657508Y-5142662D01*
X20594024Y-5243272D01*
X20526418Y-5302310D01*
X20424848Y-5349367D01*
X20357569Y-5365747D01*
X20311858Y-5352007D01*
X20277907Y-5313234D01*
X20236428Y-5224275D01*
X20204634Y-5109354D01*
X20186495Y-4990382D01*
X20185986Y-4889270D01*
X20194077Y-4850824D01*
X20248076Y-4768647D01*
X20337430Y-4698148D01*
X20441096Y-4653364D01*
X20503146Y-4644667D01*
X20591143Y-4662878D01*
G36*
X5545000Y-2739667D02*
G01*
X5545000Y-3304111D01*
X-666Y-3318499D01*
X-666Y-2725279D01*
X5545000Y-2739667D01*
G37*
X5545000Y-2739667D02*
X5545000Y-3304111D01*
X-666Y-3318499D01*
X-666Y-2725279D01*
X5545000Y-2739667D01*
G36*
X40300667Y-3318223D02*
G01*
X24890448Y-3318223D01*
X23751353Y-3318204D01*
X22667425Y-3318148D01*
X21637390Y-3318049D01*
X20659971Y-3317906D01*
X19733891Y-3317716D01*
X18857874Y-3317474D01*
X18030643Y-3317178D01*
X17250924Y-3316826D01*
X16517439Y-3316413D01*
X15828911Y-3315936D01*
X15184066Y-3315394D01*
X14581626Y-3314781D01*
X14020316Y-3314097D01*
X13498858Y-3313336D01*
X13015977Y-3312497D01*
X12570397Y-3311575D01*
X12160841Y-3310569D01*
X11786033Y-3309475D01*
X11444696Y-3308289D01*
X11135555Y-3307009D01*
X10857334Y-3305631D01*
X10608755Y-3304153D01*
X10388542Y-3302571D01*
X10195420Y-3300883D01*
X10028113Y-3299084D01*
X9885343Y-3297173D01*
X9765834Y-3295146D01*
X9668311Y-3292999D01*
X9591497Y-3290730D01*
X9534116Y-3288336D01*
X9494892Y-3285813D01*
X9472547Y-3283159D01*
X9465834Y-3280711D01*
X9460255Y-3236936D01*
X9457647Y-3152041D01*
X9458336Y-3041290D01*
X9459664Y-2991433D01*
X9467889Y-2739667D01*
X40300667Y-2725505D01*
X40300667Y-3318223D01*
G37*
X40300667Y-3318223D02*
X24890448Y-3318223D01*
X23751353Y-3318204D01*
X22667425Y-3318148D01*
X21637390Y-3318049D01*
X20659971Y-3317906D01*
X19733891Y-3317716D01*
X18857874Y-3317474D01*
X18030643Y-3317178D01*
X17250924Y-3316826D01*
X16517439Y-3316413D01*
X15828911Y-3315936D01*
X15184066Y-3315394D01*
X14581626Y-3314781D01*
X14020316Y-3314097D01*
X13498858Y-3313336D01*
X13015977Y-3312497D01*
X12570397Y-3311575D01*
X12160841Y-3310569D01*
X11786033Y-3309475D01*
X11444696Y-3308289D01*
X11135555Y-3307009D01*
X10857334Y-3305631D01*
X10608755Y-3304153D01*
X10388542Y-3302571D01*
X10195420Y-3300883D01*
X10028113Y-3299084D01*
X9885343Y-3297173D01*
X9765834Y-3295146D01*
X9668311Y-3292999D01*
X9591497Y-3290730D01*
X9534116Y-3288336D01*
X9494892Y-3285813D01*
X9472547Y-3283159D01*
X9465834Y-3280711D01*
X9460255Y-3236936D01*
X9457647Y-3152041D01*
X9458336Y-3041290D01*
X9459664Y-2991433D01*
X9467889Y-2739667D01*
X40300667Y-2725505D01*
X40300667Y-3318223D01*
G04 #@! TD*
M02*
