G04 #@! TF.GenerationSoftware,KiCad,Pcbnew,(5.1.10)-1*
G04 #@! TF.CreationDate,2021-09-05T06:08:46+02:00*
G04 #@! TF.ProjectId,Power Module Front,506f7765-7220-44d6-9f64-756c65204672,rev?*
G04 #@! TF.SameCoordinates,Original*
G04 #@! TF.FileFunction,Legend,Top*
G04 #@! TF.FilePolarity,Positive*
%FSLAX46Y46*%
G04 Gerber Fmt 4.6, Leading zero omitted, Abs format (unit mm)*
G04 Created by KiCad (PCBNEW (5.1.10)-1) date 2021-09-05 06:08:46*
%MOMM*%
%LPD*%
G01*
G04 APERTURE LIST*
%ADD10C,0.010000*%
G04 APERTURE END LIST*
D10*
G04 #@! TO.C,G\u002A\u002A\u002A*
G36*
X20018889Y-3290000D02*
G01*
X9492000Y-3290000D01*
X9492000Y-2753778D01*
X20018889Y-2753778D01*
X20018889Y-3290000D01*
G37*
X20018889Y-3290000D02*
X9492000Y-3290000D01*
X9492000Y-2753778D01*
X20018889Y-2753778D01*
X20018889Y-3290000D01*
G36*
X2768056Y-2760695D02*
G01*
X5526778Y-2767889D01*
X5526778Y-3275889D01*
X2768056Y-3283084D01*
X9334Y-3290278D01*
X9334Y-2753500D01*
X2768056Y-2760695D01*
G37*
X2768056Y-2760695D02*
X5526778Y-2767889D01*
X5526778Y-3275889D01*
X2768056Y-3283084D01*
X9334Y-3290278D01*
X9334Y-2753500D01*
X2768056Y-2760695D01*
G36*
X13856970Y-5781292D02*
G01*
X13925879Y-5805631D01*
X13951887Y-5821650D01*
X14031466Y-5889483D01*
X14077378Y-5966148D01*
X14091101Y-6061757D01*
X14074115Y-6186426D01*
X14028786Y-6347515D01*
X13991727Y-6451490D01*
X13951294Y-6530033D01*
X13894898Y-6601649D01*
X13809949Y-6684843D01*
X13781841Y-6710463D01*
X13687167Y-6788686D01*
X13559389Y-6884003D01*
X13414215Y-6985165D01*
X13267355Y-7080923D01*
X13245556Y-7094494D01*
X13093336Y-7190844D01*
X12985544Y-7266850D01*
X12917204Y-7329461D01*
X12883340Y-7385631D01*
X12878975Y-7442311D01*
X12899132Y-7506452D01*
X12919894Y-7549416D01*
X12977749Y-7636528D01*
X13050250Y-7689903D01*
X13149813Y-7714761D01*
X13288855Y-7716323D01*
X13313460Y-7714898D01*
X13429303Y-7701605D01*
X13535020Y-7674078D01*
X13641439Y-7626873D01*
X13759384Y-7554544D01*
X13899684Y-7451648D01*
X14008581Y-7365320D01*
X14121785Y-7278565D01*
X14201681Y-7230127D01*
X14254448Y-7217990D01*
X14286266Y-7240139D01*
X14298347Y-7270833D01*
X14295378Y-7363356D01*
X14248545Y-7471776D01*
X14165350Y-7588586D01*
X14053296Y-7706284D01*
X13919885Y-7817365D01*
X13772619Y-7914325D01*
X13618999Y-7989660D01*
X13557257Y-8012122D01*
X13395648Y-8061207D01*
X13271663Y-8089413D01*
X13171180Y-8098404D01*
X13080077Y-8089844D01*
X13018928Y-8075583D01*
X12865106Y-8014895D01*
X12728984Y-7927073D01*
X12626182Y-7823291D01*
X12593245Y-7771063D01*
X12537350Y-7638038D01*
X12507594Y-7501453D01*
X12502942Y-7347458D01*
X12522356Y-7162201D01*
X12539891Y-7058264D01*
X12561458Y-6949677D01*
X12935111Y-6949677D01*
X12955795Y-6942945D01*
X13011178Y-6908937D01*
X13091255Y-6854839D01*
X13186022Y-6787836D01*
X13285473Y-6715114D01*
X13379604Y-6643859D01*
X13458411Y-6581256D01*
X13508027Y-6538191D01*
X13595061Y-6444170D01*
X13667478Y-6344294D01*
X13717717Y-6251368D01*
X13738215Y-6178200D01*
X13735152Y-6153547D01*
X13709540Y-6122983D01*
X13655446Y-6115924D01*
X13606199Y-6120770D01*
X13464170Y-6165506D01*
X13326731Y-6255554D01*
X13208840Y-6380743D01*
X13194683Y-6400588D01*
X13155860Y-6465110D01*
X13106699Y-6557824D01*
X13053826Y-6664717D01*
X13003864Y-6771774D01*
X12963438Y-6864984D01*
X12939172Y-6930333D01*
X12935111Y-6949677D01*
X12561458Y-6949677D01*
X12569357Y-6909913D01*
X12599472Y-6796505D01*
X12638072Y-6697000D01*
X12692991Y-6590355D01*
X12751674Y-6489557D01*
X12903279Y-6266013D01*
X13068015Y-6084669D01*
X13092763Y-6061846D01*
X13195060Y-5973938D01*
X13280083Y-5915286D01*
X13369114Y-5873921D01*
X13483436Y-5837876D01*
X13498420Y-5833736D01*
X13654740Y-5795038D01*
X13770424Y-5777659D01*
X13856970Y-5781292D01*
G37*
X13856970Y-5781292D02*
X13925879Y-5805631D01*
X13951887Y-5821650D01*
X14031466Y-5889483D01*
X14077378Y-5966148D01*
X14091101Y-6061757D01*
X14074115Y-6186426D01*
X14028786Y-6347515D01*
X13991727Y-6451490D01*
X13951294Y-6530033D01*
X13894898Y-6601649D01*
X13809949Y-6684843D01*
X13781841Y-6710463D01*
X13687167Y-6788686D01*
X13559389Y-6884003D01*
X13414215Y-6985165D01*
X13267355Y-7080923D01*
X13245556Y-7094494D01*
X13093336Y-7190844D01*
X12985544Y-7266850D01*
X12917204Y-7329461D01*
X12883340Y-7385631D01*
X12878975Y-7442311D01*
X12899132Y-7506452D01*
X12919894Y-7549416D01*
X12977749Y-7636528D01*
X13050250Y-7689903D01*
X13149813Y-7714761D01*
X13288855Y-7716323D01*
X13313460Y-7714898D01*
X13429303Y-7701605D01*
X13535020Y-7674078D01*
X13641439Y-7626873D01*
X13759384Y-7554544D01*
X13899684Y-7451648D01*
X14008581Y-7365320D01*
X14121785Y-7278565D01*
X14201681Y-7230127D01*
X14254448Y-7217990D01*
X14286266Y-7240139D01*
X14298347Y-7270833D01*
X14295378Y-7363356D01*
X14248545Y-7471776D01*
X14165350Y-7588586D01*
X14053296Y-7706284D01*
X13919885Y-7817365D01*
X13772619Y-7914325D01*
X13618999Y-7989660D01*
X13557257Y-8012122D01*
X13395648Y-8061207D01*
X13271663Y-8089413D01*
X13171180Y-8098404D01*
X13080077Y-8089844D01*
X13018928Y-8075583D01*
X12865106Y-8014895D01*
X12728984Y-7927073D01*
X12626182Y-7823291D01*
X12593245Y-7771063D01*
X12537350Y-7638038D01*
X12507594Y-7501453D01*
X12502942Y-7347458D01*
X12522356Y-7162201D01*
X12539891Y-7058264D01*
X12561458Y-6949677D01*
X12935111Y-6949677D01*
X12955795Y-6942945D01*
X13011178Y-6908937D01*
X13091255Y-6854839D01*
X13186022Y-6787836D01*
X13285473Y-6715114D01*
X13379604Y-6643859D01*
X13458411Y-6581256D01*
X13508027Y-6538191D01*
X13595061Y-6444170D01*
X13667478Y-6344294D01*
X13717717Y-6251368D01*
X13738215Y-6178200D01*
X13735152Y-6153547D01*
X13709540Y-6122983D01*
X13655446Y-6115924D01*
X13606199Y-6120770D01*
X13464170Y-6165506D01*
X13326731Y-6255554D01*
X13208840Y-6380743D01*
X13194683Y-6400588D01*
X13155860Y-6465110D01*
X13106699Y-6557824D01*
X13053826Y-6664717D01*
X13003864Y-6771774D01*
X12963438Y-6864984D01*
X12939172Y-6930333D01*
X12935111Y-6949677D01*
X12561458Y-6949677D01*
X12569357Y-6909913D01*
X12599472Y-6796505D01*
X12638072Y-6697000D01*
X12692991Y-6590355D01*
X12751674Y-6489557D01*
X12903279Y-6266013D01*
X13068015Y-6084669D01*
X13092763Y-6061846D01*
X13195060Y-5973938D01*
X13280083Y-5915286D01*
X13369114Y-5873921D01*
X13483436Y-5837876D01*
X13498420Y-5833736D01*
X13654740Y-5795038D01*
X13770424Y-5777659D01*
X13856970Y-5781292D01*
G36*
X15197149Y-5902759D02*
G01*
X15251353Y-5936693D01*
X15273125Y-5977074D01*
X15272622Y-6046269D01*
X15270803Y-6064941D01*
X15255412Y-6171207D01*
X15232533Y-6285984D01*
X15226825Y-6309778D01*
X15190045Y-6477766D01*
X15161690Y-6649499D01*
X15144115Y-6807204D01*
X15139676Y-6933108D01*
X15140929Y-6957974D01*
X15150556Y-7084058D01*
X15281708Y-6859196D01*
X15404495Y-6662830D01*
X15546783Y-6458029D01*
X15693720Y-6265293D01*
X15818964Y-6117656D01*
X15916668Y-6031051D01*
X16041126Y-5963158D01*
X16116361Y-5933534D01*
X16253931Y-5891131D01*
X16358675Y-5880199D01*
X16446032Y-5902946D01*
X16531445Y-5961579D01*
X16571715Y-5998662D01*
X16663630Y-6110572D01*
X16699901Y-6214103D01*
X16680640Y-6309669D01*
X16663226Y-6338000D01*
X16595630Y-6401699D01*
X16518024Y-6413994D01*
X16425201Y-6374839D01*
X16370805Y-6335433D01*
X16256406Y-6243500D01*
X16112703Y-6319795D01*
X15971035Y-6406357D01*
X15850710Y-6508449D01*
X15736528Y-6640396D01*
X15660388Y-6746055D01*
X15475100Y-7055949D01*
X15342293Y-7366672D01*
X15263673Y-7674201D01*
X15261695Y-7686282D01*
X15238538Y-7819057D01*
X15216317Y-7910223D01*
X15189788Y-7974276D01*
X15153706Y-8025710D01*
X15129217Y-8052500D01*
X15041219Y-8122875D01*
X14961514Y-8139088D01*
X14884004Y-8101556D01*
X14852086Y-8071415D01*
X14829376Y-8045593D01*
X14812199Y-8017695D01*
X14799627Y-7979754D01*
X14790733Y-7923804D01*
X14784590Y-7841879D01*
X14780269Y-7726011D01*
X14776843Y-7568234D01*
X14774037Y-7401137D01*
X14772249Y-7153849D01*
X14775089Y-6936215D01*
X14782317Y-6756310D01*
X14793696Y-6622209D01*
X14797902Y-6592000D01*
X14817876Y-6460455D01*
X14837104Y-6325051D01*
X14850431Y-6223006D01*
X14884302Y-6071195D01*
X14941716Y-5960164D01*
X15018397Y-5893861D01*
X15110072Y-5876234D01*
X15197149Y-5902759D01*
G37*
X15197149Y-5902759D02*
X15251353Y-5936693D01*
X15273125Y-5977074D01*
X15272622Y-6046269D01*
X15270803Y-6064941D01*
X15255412Y-6171207D01*
X15232533Y-6285984D01*
X15226825Y-6309778D01*
X15190045Y-6477766D01*
X15161690Y-6649499D01*
X15144115Y-6807204D01*
X15139676Y-6933108D01*
X15140929Y-6957974D01*
X15150556Y-7084058D01*
X15281708Y-6859196D01*
X15404495Y-6662830D01*
X15546783Y-6458029D01*
X15693720Y-6265293D01*
X15818964Y-6117656D01*
X15916668Y-6031051D01*
X16041126Y-5963158D01*
X16116361Y-5933534D01*
X16253931Y-5891131D01*
X16358675Y-5880199D01*
X16446032Y-5902946D01*
X16531445Y-5961579D01*
X16571715Y-5998662D01*
X16663630Y-6110572D01*
X16699901Y-6214103D01*
X16680640Y-6309669D01*
X16663226Y-6338000D01*
X16595630Y-6401699D01*
X16518024Y-6413994D01*
X16425201Y-6374839D01*
X16370805Y-6335433D01*
X16256406Y-6243500D01*
X16112703Y-6319795D01*
X15971035Y-6406357D01*
X15850710Y-6508449D01*
X15736528Y-6640396D01*
X15660388Y-6746055D01*
X15475100Y-7055949D01*
X15342293Y-7366672D01*
X15263673Y-7674201D01*
X15261695Y-7686282D01*
X15238538Y-7819057D01*
X15216317Y-7910223D01*
X15189788Y-7974276D01*
X15153706Y-8025710D01*
X15129217Y-8052500D01*
X15041219Y-8122875D01*
X14961514Y-8139088D01*
X14884004Y-8101556D01*
X14852086Y-8071415D01*
X14829376Y-8045593D01*
X14812199Y-8017695D01*
X14799627Y-7979754D01*
X14790733Y-7923804D01*
X14784590Y-7841879D01*
X14780269Y-7726011D01*
X14776843Y-7568234D01*
X14774037Y-7401137D01*
X14772249Y-7153849D01*
X14775089Y-6936215D01*
X14782317Y-6756310D01*
X14793696Y-6622209D01*
X14797902Y-6592000D01*
X14817876Y-6460455D01*
X14837104Y-6325051D01*
X14850431Y-6223006D01*
X14884302Y-6071195D01*
X14941716Y-5960164D01*
X15018397Y-5893861D01*
X15110072Y-5876234D01*
X15197149Y-5902759D01*
G36*
X12207358Y-5815254D02*
G01*
X12282202Y-5848760D01*
X12332342Y-5903100D01*
X12342445Y-5942227D01*
X12328380Y-5987110D01*
X12290181Y-6067892D01*
X12233840Y-6172741D01*
X12171834Y-6279129D01*
X12085072Y-6432430D01*
X12008591Y-6591020D01*
X11935253Y-6771142D01*
X11857916Y-6989040D01*
X11851820Y-7007164D01*
X11778571Y-7218883D01*
X11705740Y-7416981D01*
X11636277Y-7594370D01*
X11573133Y-7743963D01*
X11519256Y-7858673D01*
X11477598Y-7931414D01*
X11458071Y-7953092D01*
X11398427Y-7964180D01*
X11311574Y-7951283D01*
X11218731Y-7919412D01*
X11149780Y-7880284D01*
X11064729Y-7795236D01*
X10969915Y-7660495D01*
X10868458Y-7481322D01*
X10763474Y-7262980D01*
X10708441Y-7135509D01*
X10654980Y-7005195D01*
X10610507Y-6892896D01*
X10579109Y-6809223D01*
X10564873Y-6764790D01*
X10564445Y-6761565D01*
X10547660Y-6734838D01*
X10509281Y-6746499D01*
X10484349Y-6769937D01*
X10463288Y-6805101D01*
X10421314Y-6883078D01*
X10362477Y-6996058D01*
X10290826Y-7136227D01*
X10210408Y-7295775D01*
X10172599Y-7371488D01*
X10070232Y-7574255D01*
X9986946Y-7732205D01*
X9918766Y-7852044D01*
X9861719Y-7940475D01*
X9811832Y-8004206D01*
X9776292Y-8040218D01*
X9684894Y-8112277D01*
X9613242Y-8138883D01*
X9549173Y-8121144D01*
X9486473Y-8066611D01*
X9408652Y-7957466D01*
X9330199Y-7799212D01*
X9253257Y-7599116D01*
X9179969Y-7364445D01*
X9112480Y-7102467D01*
X9052933Y-6820449D01*
X9003471Y-6525657D01*
X8979975Y-6349415D01*
X8965022Y-6219877D01*
X8958229Y-6132834D01*
X8960692Y-6074781D01*
X8973508Y-6032214D01*
X8997775Y-5991627D01*
X9010514Y-5973511D01*
X9101469Y-5881597D01*
X9202052Y-5842726D01*
X9306106Y-5857923D01*
X9388732Y-5910589D01*
X9412618Y-5937523D01*
X9426247Y-5974739D01*
X9430873Y-6034510D01*
X9427749Y-6129108D01*
X9421196Y-6228586D01*
X9415503Y-6427512D01*
X9424168Y-6639831D01*
X9445374Y-6853738D01*
X9477304Y-7057429D01*
X9518140Y-7239100D01*
X9566066Y-7386947D01*
X9614115Y-7481860D01*
X9679965Y-7578766D01*
X9752016Y-7501661D01*
X9788716Y-7450876D01*
X9844202Y-7359659D01*
X9912592Y-7238346D01*
X9988004Y-7097272D01*
X10041100Y-6993726D01*
X10138723Y-6806297D01*
X10240352Y-6622454D01*
X10341701Y-6448921D01*
X10438487Y-6292420D01*
X10526424Y-6159674D01*
X10601228Y-6057408D01*
X10658613Y-5992343D01*
X10692826Y-5971111D01*
X10754152Y-5977694D01*
X10796877Y-6003435D01*
X10825419Y-6057328D01*
X10844200Y-6148364D01*
X10857637Y-6285534D01*
X10859423Y-6310042D01*
X10874024Y-6457022D01*
X10895823Y-6606921D01*
X10921018Y-6735199D01*
X10931639Y-6776514D01*
X10975132Y-6907425D01*
X11030856Y-7044578D01*
X11093390Y-7177740D01*
X11157311Y-7296675D01*
X11217197Y-7391148D01*
X11267625Y-7450926D01*
X11297400Y-7466889D01*
X11323803Y-7443687D01*
X11360963Y-7386435D01*
X11399109Y-7313663D01*
X11428471Y-7243901D01*
X11439334Y-7197678D01*
X11449418Y-7157737D01*
X11477648Y-7073779D01*
X11520986Y-6954109D01*
X11576395Y-6807029D01*
X11640838Y-6640842D01*
X11670194Y-6566521D01*
X11758530Y-6348122D01*
X11832124Y-6177038D01*
X11894647Y-6047227D01*
X11949771Y-5952647D01*
X12001166Y-5887258D01*
X12052506Y-5845017D01*
X12107460Y-5819882D01*
X12127367Y-5814223D01*
X12207358Y-5815254D01*
G37*
X12207358Y-5815254D02*
X12282202Y-5848760D01*
X12332342Y-5903100D01*
X12342445Y-5942227D01*
X12328380Y-5987110D01*
X12290181Y-6067892D01*
X12233840Y-6172741D01*
X12171834Y-6279129D01*
X12085072Y-6432430D01*
X12008591Y-6591020D01*
X11935253Y-6771142D01*
X11857916Y-6989040D01*
X11851820Y-7007164D01*
X11778571Y-7218883D01*
X11705740Y-7416981D01*
X11636277Y-7594370D01*
X11573133Y-7743963D01*
X11519256Y-7858673D01*
X11477598Y-7931414D01*
X11458071Y-7953092D01*
X11398427Y-7964180D01*
X11311574Y-7951283D01*
X11218731Y-7919412D01*
X11149780Y-7880284D01*
X11064729Y-7795236D01*
X10969915Y-7660495D01*
X10868458Y-7481322D01*
X10763474Y-7262980D01*
X10708441Y-7135509D01*
X10654980Y-7005195D01*
X10610507Y-6892896D01*
X10579109Y-6809223D01*
X10564873Y-6764790D01*
X10564445Y-6761565D01*
X10547660Y-6734838D01*
X10509281Y-6746499D01*
X10484349Y-6769937D01*
X10463288Y-6805101D01*
X10421314Y-6883078D01*
X10362477Y-6996058D01*
X10290826Y-7136227D01*
X10210408Y-7295775D01*
X10172599Y-7371488D01*
X10070232Y-7574255D01*
X9986946Y-7732205D01*
X9918766Y-7852044D01*
X9861719Y-7940475D01*
X9811832Y-8004206D01*
X9776292Y-8040218D01*
X9684894Y-8112277D01*
X9613242Y-8138883D01*
X9549173Y-8121144D01*
X9486473Y-8066611D01*
X9408652Y-7957466D01*
X9330199Y-7799212D01*
X9253257Y-7599116D01*
X9179969Y-7364445D01*
X9112480Y-7102467D01*
X9052933Y-6820449D01*
X9003471Y-6525657D01*
X8979975Y-6349415D01*
X8965022Y-6219877D01*
X8958229Y-6132834D01*
X8960692Y-6074781D01*
X8973508Y-6032214D01*
X8997775Y-5991627D01*
X9010514Y-5973511D01*
X9101469Y-5881597D01*
X9202052Y-5842726D01*
X9306106Y-5857923D01*
X9388732Y-5910589D01*
X9412618Y-5937523D01*
X9426247Y-5974739D01*
X9430873Y-6034510D01*
X9427749Y-6129108D01*
X9421196Y-6228586D01*
X9415503Y-6427512D01*
X9424168Y-6639831D01*
X9445374Y-6853738D01*
X9477304Y-7057429D01*
X9518140Y-7239100D01*
X9566066Y-7386947D01*
X9614115Y-7481860D01*
X9679965Y-7578766D01*
X9752016Y-7501661D01*
X9788716Y-7450876D01*
X9844202Y-7359659D01*
X9912592Y-7238346D01*
X9988004Y-7097272D01*
X10041100Y-6993726D01*
X10138723Y-6806297D01*
X10240352Y-6622454D01*
X10341701Y-6448921D01*
X10438487Y-6292420D01*
X10526424Y-6159674D01*
X10601228Y-6057408D01*
X10658613Y-5992343D01*
X10692826Y-5971111D01*
X10754152Y-5977694D01*
X10796877Y-6003435D01*
X10825419Y-6057328D01*
X10844200Y-6148364D01*
X10857637Y-6285534D01*
X10859423Y-6310042D01*
X10874024Y-6457022D01*
X10895823Y-6606921D01*
X10921018Y-6735199D01*
X10931639Y-6776514D01*
X10975132Y-6907425D01*
X11030856Y-7044578D01*
X11093390Y-7177740D01*
X11157311Y-7296675D01*
X11217197Y-7391148D01*
X11267625Y-7450926D01*
X11297400Y-7466889D01*
X11323803Y-7443687D01*
X11360963Y-7386435D01*
X11399109Y-7313663D01*
X11428471Y-7243901D01*
X11439334Y-7197678D01*
X11449418Y-7157737D01*
X11477648Y-7073779D01*
X11520986Y-6954109D01*
X11576395Y-6807029D01*
X11640838Y-6640842D01*
X11670194Y-6566521D01*
X11758530Y-6348122D01*
X11832124Y-6177038D01*
X11894647Y-6047227D01*
X11949771Y-5952647D01*
X12001166Y-5887258D01*
X12052506Y-5845017D01*
X12107460Y-5819882D01*
X12127367Y-5814223D01*
X12207358Y-5815254D01*
G36*
X7985406Y-5926937D02*
G01*
X8180954Y-6021750D01*
X8329973Y-6146993D01*
X8431445Y-6301782D01*
X8441034Y-6323889D01*
X8489212Y-6461851D01*
X8512324Y-6590763D01*
X8510821Y-6727476D01*
X8485153Y-6888838D01*
X8459157Y-7001223D01*
X8418018Y-7151743D01*
X8374404Y-7270205D01*
X8317745Y-7380407D01*
X8237467Y-7506150D01*
X8229895Y-7517319D01*
X8047985Y-7744776D01*
X7847519Y-7919132D01*
X7628010Y-8040761D01*
X7480872Y-8090184D01*
X7363420Y-8119646D01*
X7281690Y-8134981D01*
X7216949Y-8136924D01*
X7150466Y-8126210D01*
X7073009Y-8106174D01*
X6936778Y-8041805D01*
X6813793Y-7933408D01*
X6712643Y-7793205D01*
X6641916Y-7633419D01*
X6610200Y-7466273D01*
X6609426Y-7446401D01*
X6612261Y-7387231D01*
X6994892Y-7387231D01*
X7009957Y-7505901D01*
X7049137Y-7617366D01*
X7106630Y-7713304D01*
X7172426Y-7780454D01*
X7236142Y-7805556D01*
X7285156Y-7796053D01*
X7369120Y-7771051D01*
X7470499Y-7735808D01*
X7477807Y-7733089D01*
X7665431Y-7640303D01*
X7824109Y-7510086D01*
X7962120Y-7334918D01*
X8018063Y-7242320D01*
X8069619Y-7144872D01*
X8101627Y-7063118D01*
X8119796Y-6975502D01*
X8129831Y-6860471D01*
X8132453Y-6810258D01*
X8131191Y-6622111D01*
X8105287Y-6478125D01*
X8052088Y-6370479D01*
X7968945Y-6291349D01*
X7953110Y-6281074D01*
X7831519Y-6235672D01*
X7690072Y-6228803D01*
X7550571Y-6260917D01*
X7524401Y-6272257D01*
X7407288Y-6354732D01*
X7295962Y-6482080D01*
X7195244Y-6642740D01*
X7109956Y-6825147D01*
X7044920Y-7017740D01*
X7004958Y-7208956D01*
X6994892Y-7387231D01*
X6612261Y-7387231D01*
X6613871Y-7353656D01*
X6628286Y-7229701D01*
X6649783Y-7098288D01*
X6654965Y-7071778D01*
X6687162Y-6936019D01*
X6727978Y-6821083D01*
X6786997Y-6703927D01*
X6854459Y-6592000D01*
X6944170Y-6461690D01*
X7050370Y-6325412D01*
X7154119Y-6207056D01*
X7183357Y-6177212D01*
X7281269Y-6085537D01*
X7363497Y-6023717D01*
X7451164Y-5978817D01*
X7565397Y-5937900D01*
X7583664Y-5932084D01*
X7806106Y-5861855D01*
X7985406Y-5926937D01*
G37*
X7985406Y-5926937D02*
X8180954Y-6021750D01*
X8329973Y-6146993D01*
X8431445Y-6301782D01*
X8441034Y-6323889D01*
X8489212Y-6461851D01*
X8512324Y-6590763D01*
X8510821Y-6727476D01*
X8485153Y-6888838D01*
X8459157Y-7001223D01*
X8418018Y-7151743D01*
X8374404Y-7270205D01*
X8317745Y-7380407D01*
X8237467Y-7506150D01*
X8229895Y-7517319D01*
X8047985Y-7744776D01*
X7847519Y-7919132D01*
X7628010Y-8040761D01*
X7480872Y-8090184D01*
X7363420Y-8119646D01*
X7281690Y-8134981D01*
X7216949Y-8136924D01*
X7150466Y-8126210D01*
X7073009Y-8106174D01*
X6936778Y-8041805D01*
X6813793Y-7933408D01*
X6712643Y-7793205D01*
X6641916Y-7633419D01*
X6610200Y-7466273D01*
X6609426Y-7446401D01*
X6612261Y-7387231D01*
X6994892Y-7387231D01*
X7009957Y-7505901D01*
X7049137Y-7617366D01*
X7106630Y-7713304D01*
X7172426Y-7780454D01*
X7236142Y-7805556D01*
X7285156Y-7796053D01*
X7369120Y-7771051D01*
X7470499Y-7735808D01*
X7477807Y-7733089D01*
X7665431Y-7640303D01*
X7824109Y-7510086D01*
X7962120Y-7334918D01*
X8018063Y-7242320D01*
X8069619Y-7144872D01*
X8101627Y-7063118D01*
X8119796Y-6975502D01*
X8129831Y-6860471D01*
X8132453Y-6810258D01*
X8131191Y-6622111D01*
X8105287Y-6478125D01*
X8052088Y-6370479D01*
X7968945Y-6291349D01*
X7953110Y-6281074D01*
X7831519Y-6235672D01*
X7690072Y-6228803D01*
X7550571Y-6260917D01*
X7524401Y-6272257D01*
X7407288Y-6354732D01*
X7295962Y-6482080D01*
X7195244Y-6642740D01*
X7109956Y-6825147D01*
X7044920Y-7017740D01*
X7004958Y-7208956D01*
X6994892Y-7387231D01*
X6612261Y-7387231D01*
X6613871Y-7353656D01*
X6628286Y-7229701D01*
X6649783Y-7098288D01*
X6654965Y-7071778D01*
X6687162Y-6936019D01*
X6727978Y-6821083D01*
X6786997Y-6703927D01*
X6854459Y-6592000D01*
X6944170Y-6461690D01*
X7050370Y-6325412D01*
X7154119Y-6207056D01*
X7183357Y-6177212D01*
X7281269Y-6085537D01*
X7363497Y-6023717D01*
X7451164Y-5978817D01*
X7565397Y-5937900D01*
X7583664Y-5932084D01*
X7806106Y-5861855D01*
X7985406Y-5926937D01*
G36*
X5659202Y-5085522D02*
G01*
X5858855Y-5124375D01*
X5868345Y-5127136D01*
X5987723Y-5166953D01*
X6074471Y-5210495D01*
X6151499Y-5271544D01*
X6215780Y-5336168D01*
X6319559Y-5459171D01*
X6378399Y-5569308D01*
X6395886Y-5682539D01*
X6375612Y-5814823D01*
X6345612Y-5913520D01*
X6243156Y-6132941D01*
X6091926Y-6329580D01*
X5889709Y-6506105D01*
X5806293Y-6563751D01*
X5576310Y-6695276D01*
X5311942Y-6815636D01*
X5035204Y-6915869D01*
X4768112Y-6987013D01*
X4764778Y-6987712D01*
X4602509Y-7026211D01*
X4474477Y-7066079D01*
X4388209Y-7104611D01*
X4352488Y-7135929D01*
X4350315Y-7164815D01*
X4346338Y-7240273D01*
X4341032Y-7352475D01*
X4334869Y-7491593D01*
X4331322Y-7575174D01*
X4324145Y-7740053D01*
X4317383Y-7858170D01*
X4309162Y-7939158D01*
X4297612Y-7992652D01*
X4280863Y-8028288D01*
X4257042Y-8055699D01*
X4234038Y-8076118D01*
X4148879Y-8128091D01*
X4066715Y-8142593D01*
X4003415Y-8117440D01*
X3995577Y-8108945D01*
X3970389Y-8073438D01*
X3951226Y-8033395D01*
X3938217Y-7982949D01*
X3931494Y-7916233D01*
X3931187Y-7827383D01*
X3937425Y-7710531D01*
X3950340Y-7559811D01*
X3970062Y-7369358D01*
X3996721Y-7133304D01*
X4022085Y-6916556D01*
X4046602Y-6700099D01*
X4052533Y-6643291D01*
X4411597Y-6643291D01*
X4422761Y-6691127D01*
X4461197Y-6694678D01*
X4461389Y-6694624D01*
X4514873Y-6681719D01*
X4602348Y-6662835D01*
X4680111Y-6647010D01*
X4894883Y-6593211D01*
X5120997Y-6516949D01*
X5344778Y-6424369D01*
X5552547Y-6321615D01*
X5730630Y-6214833D01*
X5856190Y-6118588D01*
X5946744Y-6008815D01*
X6002151Y-5882687D01*
X6022055Y-5752259D01*
X6006097Y-5629587D01*
X5953921Y-5526724D01*
X5875690Y-5461043D01*
X5819725Y-5441087D01*
X5727573Y-5418008D01*
X5618915Y-5396719D01*
X5616082Y-5396239D01*
X5412180Y-5381033D01*
X5173072Y-5396106D01*
X4910411Y-5440271D01*
X4719865Y-5487554D01*
X4539000Y-5538306D01*
X4518932Y-5662986D01*
X4506726Y-5748198D01*
X4491460Y-5868522D01*
X4474498Y-6011518D01*
X4457200Y-6164746D01*
X4440930Y-6315766D01*
X4427048Y-6452140D01*
X4416917Y-6561426D01*
X4411899Y-6631185D01*
X4411597Y-6643291D01*
X4052533Y-6643291D01*
X4068717Y-6488292D01*
X4087463Y-6291743D01*
X4101873Y-6121056D01*
X4110982Y-5986840D01*
X4113828Y-5909959D01*
X4113088Y-5787513D01*
X4106720Y-5706874D01*
X4091849Y-5653475D01*
X4065596Y-5612745D01*
X4052167Y-5597696D01*
X4006860Y-5526793D01*
X3988667Y-5454887D01*
X3996115Y-5406769D01*
X4023622Y-5365835D01*
X4078934Y-5327332D01*
X4169798Y-5286507D01*
X4303958Y-5238606D01*
X4383778Y-5212424D01*
X4629839Y-5146863D01*
X4894205Y-5100599D01*
X5163083Y-5074426D01*
X5422680Y-5069136D01*
X5659202Y-5085522D01*
G37*
X5659202Y-5085522D02*
X5858855Y-5124375D01*
X5868345Y-5127136D01*
X5987723Y-5166953D01*
X6074471Y-5210495D01*
X6151499Y-5271544D01*
X6215780Y-5336168D01*
X6319559Y-5459171D01*
X6378399Y-5569308D01*
X6395886Y-5682539D01*
X6375612Y-5814823D01*
X6345612Y-5913520D01*
X6243156Y-6132941D01*
X6091926Y-6329580D01*
X5889709Y-6506105D01*
X5806293Y-6563751D01*
X5576310Y-6695276D01*
X5311942Y-6815636D01*
X5035204Y-6915869D01*
X4768112Y-6987013D01*
X4764778Y-6987712D01*
X4602509Y-7026211D01*
X4474477Y-7066079D01*
X4388209Y-7104611D01*
X4352488Y-7135929D01*
X4350315Y-7164815D01*
X4346338Y-7240273D01*
X4341032Y-7352475D01*
X4334869Y-7491593D01*
X4331322Y-7575174D01*
X4324145Y-7740053D01*
X4317383Y-7858170D01*
X4309162Y-7939158D01*
X4297612Y-7992652D01*
X4280863Y-8028288D01*
X4257042Y-8055699D01*
X4234038Y-8076118D01*
X4148879Y-8128091D01*
X4066715Y-8142593D01*
X4003415Y-8117440D01*
X3995577Y-8108945D01*
X3970389Y-8073438D01*
X3951226Y-8033395D01*
X3938217Y-7982949D01*
X3931494Y-7916233D01*
X3931187Y-7827383D01*
X3937425Y-7710531D01*
X3950340Y-7559811D01*
X3970062Y-7369358D01*
X3996721Y-7133304D01*
X4022085Y-6916556D01*
X4046602Y-6700099D01*
X4052533Y-6643291D01*
X4411597Y-6643291D01*
X4422761Y-6691127D01*
X4461197Y-6694678D01*
X4461389Y-6694624D01*
X4514873Y-6681719D01*
X4602348Y-6662835D01*
X4680111Y-6647010D01*
X4894883Y-6593211D01*
X5120997Y-6516949D01*
X5344778Y-6424369D01*
X5552547Y-6321615D01*
X5730630Y-6214833D01*
X5856190Y-6118588D01*
X5946744Y-6008815D01*
X6002151Y-5882687D01*
X6022055Y-5752259D01*
X6006097Y-5629587D01*
X5953921Y-5526724D01*
X5875690Y-5461043D01*
X5819725Y-5441087D01*
X5727573Y-5418008D01*
X5618915Y-5396719D01*
X5616082Y-5396239D01*
X5412180Y-5381033D01*
X5173072Y-5396106D01*
X4910411Y-5440271D01*
X4719865Y-5487554D01*
X4539000Y-5538306D01*
X4518932Y-5662986D01*
X4506726Y-5748198D01*
X4491460Y-5868522D01*
X4474498Y-6011518D01*
X4457200Y-6164746D01*
X4440930Y-6315766D01*
X4427048Y-6452140D01*
X4416917Y-6561426D01*
X4411899Y-6631185D01*
X4411597Y-6643291D01*
X4052533Y-6643291D01*
X4068717Y-6488292D01*
X4087463Y-6291743D01*
X4101873Y-6121056D01*
X4110982Y-5986840D01*
X4113828Y-5909959D01*
X4113088Y-5787513D01*
X4106720Y-5706874D01*
X4091849Y-5653475D01*
X4065596Y-5612745D01*
X4052167Y-5597696D01*
X4006860Y-5526793D01*
X3988667Y-5454887D01*
X3996115Y-5406769D01*
X4023622Y-5365835D01*
X4078934Y-5327332D01*
X4169798Y-5286507D01*
X4303958Y-5238606D01*
X4383778Y-5212424D01*
X4629839Y-5146863D01*
X4894205Y-5100599D01*
X5163083Y-5074426D01*
X5422680Y-5069136D01*
X5659202Y-5085522D01*
G36*
X15142636Y-53386839D02*
G01*
X15233636Y-53430824D01*
X15359230Y-53507067D01*
X15433786Y-53555750D01*
X15578234Y-53648972D01*
X15750998Y-53756651D01*
X15931038Y-53865863D01*
X16097311Y-53963684D01*
X16107280Y-53969420D01*
X16247571Y-54050839D01*
X16379952Y-54129163D01*
X16492134Y-54197020D01*
X16571828Y-54247033D01*
X16589889Y-54259038D01*
X16690785Y-54323030D01*
X16800216Y-54385390D01*
X16824857Y-54398245D01*
X16920492Y-54463885D01*
X16984781Y-54542124D01*
X17012067Y-54621572D01*
X16996691Y-54690837D01*
X16980060Y-54710681D01*
X16929511Y-54741885D01*
X16836743Y-54784906D01*
X16713527Y-54835089D01*
X16571631Y-54887780D01*
X16422825Y-54938325D01*
X16335889Y-54965453D01*
X16254379Y-54993531D01*
X16143677Y-55036276D01*
X16026006Y-55085064D01*
X16011334Y-55091410D01*
X15786244Y-55188591D01*
X15599014Y-55267927D01*
X15452769Y-55328141D01*
X15350637Y-55367952D01*
X15295745Y-55386081D01*
X15288627Y-55387093D01*
X15247934Y-55373880D01*
X15185834Y-55343858D01*
X15121702Y-55285808D01*
X15108222Y-55232673D01*
X15129120Y-55175781D01*
X15194211Y-55121439D01*
X15307097Y-55067655D01*
X15471376Y-55012439D01*
X15544005Y-54991769D01*
X15629308Y-54965059D01*
X15750948Y-54922643D01*
X15897194Y-54869061D01*
X16056318Y-54808849D01*
X16216588Y-54746546D01*
X16366275Y-54686688D01*
X16493649Y-54633814D01*
X16586981Y-54592461D01*
X16623076Y-54574336D01*
X16610840Y-54554946D01*
X16556970Y-54512220D01*
X16468873Y-54450767D01*
X16353952Y-54375198D01*
X16219615Y-54290126D01*
X16073266Y-54200161D01*
X15922311Y-54109914D01*
X15774156Y-54023997D01*
X15636205Y-53947020D01*
X15515866Y-53883594D01*
X15504792Y-53878027D01*
X15385405Y-53811382D01*
X15264185Y-53732076D01*
X15154797Y-53650203D01*
X15070906Y-53575855D01*
X15031069Y-53528146D01*
X15009842Y-53466484D01*
X15012509Y-53428968D01*
X15038542Y-53387858D01*
X15079761Y-53373166D01*
X15142636Y-53386839D01*
G37*
X15142636Y-53386839D02*
X15233636Y-53430824D01*
X15359230Y-53507067D01*
X15433786Y-53555750D01*
X15578234Y-53648972D01*
X15750998Y-53756651D01*
X15931038Y-53865863D01*
X16097311Y-53963684D01*
X16107280Y-53969420D01*
X16247571Y-54050839D01*
X16379952Y-54129163D01*
X16492134Y-54197020D01*
X16571828Y-54247033D01*
X16589889Y-54259038D01*
X16690785Y-54323030D01*
X16800216Y-54385390D01*
X16824857Y-54398245D01*
X16920492Y-54463885D01*
X16984781Y-54542124D01*
X17012067Y-54621572D01*
X16996691Y-54690837D01*
X16980060Y-54710681D01*
X16929511Y-54741885D01*
X16836743Y-54784906D01*
X16713527Y-54835089D01*
X16571631Y-54887780D01*
X16422825Y-54938325D01*
X16335889Y-54965453D01*
X16254379Y-54993531D01*
X16143677Y-55036276D01*
X16026006Y-55085064D01*
X16011334Y-55091410D01*
X15786244Y-55188591D01*
X15599014Y-55267927D01*
X15452769Y-55328141D01*
X15350637Y-55367952D01*
X15295745Y-55386081D01*
X15288627Y-55387093D01*
X15247934Y-55373880D01*
X15185834Y-55343858D01*
X15121702Y-55285808D01*
X15108222Y-55232673D01*
X15129120Y-55175781D01*
X15194211Y-55121439D01*
X15307097Y-55067655D01*
X15471376Y-55012439D01*
X15544005Y-54991769D01*
X15629308Y-54965059D01*
X15750948Y-54922643D01*
X15897194Y-54869061D01*
X16056318Y-54808849D01*
X16216588Y-54746546D01*
X16366275Y-54686688D01*
X16493649Y-54633814D01*
X16586981Y-54592461D01*
X16623076Y-54574336D01*
X16610840Y-54554946D01*
X16556970Y-54512220D01*
X16468873Y-54450767D01*
X16353952Y-54375198D01*
X16219615Y-54290126D01*
X16073266Y-54200161D01*
X15922311Y-54109914D01*
X15774156Y-54023997D01*
X15636205Y-53947020D01*
X15515866Y-53883594D01*
X15504792Y-53878027D01*
X15385405Y-53811382D01*
X15264185Y-53732076D01*
X15154797Y-53650203D01*
X15070906Y-53575855D01*
X15031069Y-53528146D01*
X15009842Y-53466484D01*
X15012509Y-53428968D01*
X15038542Y-53387858D01*
X15079761Y-53373166D01*
X15142636Y-53386839D01*
G36*
X3142896Y-53540211D02*
G01*
X3209846Y-53580504D01*
X3306138Y-53640923D01*
X3422907Y-53715960D01*
X3472930Y-53748551D01*
X3625230Y-53846855D01*
X3806047Y-53961542D01*
X3995427Y-54080065D01*
X4173419Y-54189880D01*
X4218782Y-54217531D01*
X4369231Y-54309070D01*
X4517160Y-54399313D01*
X4649619Y-54480343D01*
X4753656Y-54544244D01*
X4793000Y-54568556D01*
X4902927Y-54647922D01*
X4981385Y-54727341D01*
X5021861Y-54798604D01*
X5018376Y-54852651D01*
X4974703Y-54889443D01*
X4887236Y-54937380D01*
X4766345Y-54991725D01*
X4622401Y-55047745D01*
X4496667Y-55090889D01*
X4358187Y-55138231D01*
X4212725Y-55192177D01*
X4088641Y-55242149D01*
X4073334Y-55248776D01*
X3979320Y-55288813D01*
X3861824Y-55337094D01*
X3731921Y-55389285D01*
X3600685Y-55441049D01*
X3479193Y-55488054D01*
X3378518Y-55525962D01*
X3309736Y-55550440D01*
X3284740Y-55557450D01*
X3252719Y-55544014D01*
X3192930Y-55510803D01*
X3175354Y-55500251D01*
X3107539Y-55441693D01*
X3094785Y-55384868D01*
X3137196Y-55333724D01*
X3170422Y-55315374D01*
X3229076Y-55291949D01*
X3324292Y-55257702D01*
X3438797Y-55218777D01*
X3480667Y-55205044D01*
X3580971Y-55170263D01*
X3709751Y-55122336D01*
X3857472Y-55065171D01*
X4014596Y-55002674D01*
X4171586Y-54938751D01*
X4318907Y-54877309D01*
X4447021Y-54822253D01*
X4546392Y-54777491D01*
X4607483Y-54746927D01*
X4620905Y-54737993D01*
X4616910Y-54711407D01*
X4568804Y-54679899D01*
X4564460Y-54677966D01*
X4506318Y-54647319D01*
X4415937Y-54593584D01*
X4307702Y-54525489D01*
X4236813Y-54479139D01*
X4108022Y-54396945D01*
X3951222Y-54301839D01*
X3788460Y-54206987D01*
X3672368Y-54142094D01*
X3442129Y-54011195D01*
X3263279Y-53897489D01*
X3133903Y-53799608D01*
X3052087Y-53716180D01*
X3029880Y-53682251D01*
X3004423Y-53625169D01*
X3011943Y-53591203D01*
X3042329Y-53565052D01*
X3091212Y-53534217D01*
X3114153Y-53525556D01*
X3142896Y-53540211D01*
G37*
X3142896Y-53540211D02*
X3209846Y-53580504D01*
X3306138Y-53640923D01*
X3422907Y-53715960D01*
X3472930Y-53748551D01*
X3625230Y-53846855D01*
X3806047Y-53961542D01*
X3995427Y-54080065D01*
X4173419Y-54189880D01*
X4218782Y-54217531D01*
X4369231Y-54309070D01*
X4517160Y-54399313D01*
X4649619Y-54480343D01*
X4753656Y-54544244D01*
X4793000Y-54568556D01*
X4902927Y-54647922D01*
X4981385Y-54727341D01*
X5021861Y-54798604D01*
X5018376Y-54852651D01*
X4974703Y-54889443D01*
X4887236Y-54937380D01*
X4766345Y-54991725D01*
X4622401Y-55047745D01*
X4496667Y-55090889D01*
X4358187Y-55138231D01*
X4212725Y-55192177D01*
X4088641Y-55242149D01*
X4073334Y-55248776D01*
X3979320Y-55288813D01*
X3861824Y-55337094D01*
X3731921Y-55389285D01*
X3600685Y-55441049D01*
X3479193Y-55488054D01*
X3378518Y-55525962D01*
X3309736Y-55550440D01*
X3284740Y-55557450D01*
X3252719Y-55544014D01*
X3192930Y-55510803D01*
X3175354Y-55500251D01*
X3107539Y-55441693D01*
X3094785Y-55384868D01*
X3137196Y-55333724D01*
X3170422Y-55315374D01*
X3229076Y-55291949D01*
X3324292Y-55257702D01*
X3438797Y-55218777D01*
X3480667Y-55205044D01*
X3580971Y-55170263D01*
X3709751Y-55122336D01*
X3857472Y-55065171D01*
X4014596Y-55002674D01*
X4171586Y-54938751D01*
X4318907Y-54877309D01*
X4447021Y-54822253D01*
X4546392Y-54777491D01*
X4607483Y-54746927D01*
X4620905Y-54737993D01*
X4616910Y-54711407D01*
X4568804Y-54679899D01*
X4564460Y-54677966D01*
X4506318Y-54647319D01*
X4415937Y-54593584D01*
X4307702Y-54525489D01*
X4236813Y-54479139D01*
X4108022Y-54396945D01*
X3951222Y-54301839D01*
X3788460Y-54206987D01*
X3672368Y-54142094D01*
X3442129Y-54011195D01*
X3263279Y-53897489D01*
X3133903Y-53799608D01*
X3052087Y-53716180D01*
X3029880Y-53682251D01*
X3004423Y-53625169D01*
X3011943Y-53591203D01*
X3042329Y-53565052D01*
X3091212Y-53534217D01*
X3114153Y-53525556D01*
X3142896Y-53540211D01*
G36*
X16812389Y-55630670D02*
G01*
X16878138Y-55681668D01*
X16928426Y-55765005D01*
X16957159Y-55868675D01*
X16958244Y-55980673D01*
X16946463Y-56036219D01*
X16932929Y-56108126D01*
X16921337Y-56218185D01*
X16913374Y-56348103D01*
X16911210Y-56418334D01*
X16917191Y-56650108D01*
X16943303Y-56855330D01*
X16987753Y-57026023D01*
X17048750Y-57154207D01*
X17087345Y-57202354D01*
X17150975Y-57290278D01*
X17168445Y-57380060D01*
X17167096Y-57432846D01*
X17154740Y-57461196D01*
X17118916Y-57470141D01*
X17047159Y-57464710D01*
X16979393Y-57456359D01*
X16884321Y-57417471D01*
X16786339Y-57326545D01*
X16689252Y-57187585D01*
X16642404Y-57101681D01*
X16587161Y-57010843D01*
X16502673Y-56893491D01*
X16399638Y-56762465D01*
X16288749Y-56630608D01*
X16180702Y-56510761D01*
X16086193Y-56415768D01*
X16033803Y-56370924D01*
X15893313Y-56286613D01*
X15763063Y-56250945D01*
X15648323Y-56264113D01*
X15554363Y-56326313D01*
X15532547Y-56352473D01*
X15492347Y-56421844D01*
X15483146Y-56493927D01*
X15490323Y-56554190D01*
X15512344Y-56655878D01*
X15546345Y-56737707D01*
X15603023Y-56819832D01*
X15675717Y-56903499D01*
X15751668Y-57000724D01*
X15798288Y-57089827D01*
X15811032Y-57159889D01*
X15796189Y-57192867D01*
X15717533Y-57231955D01*
X15631710Y-57227215D01*
X15568416Y-57186825D01*
X15462501Y-57048815D01*
X15363777Y-56884471D01*
X15285719Y-56717903D01*
X15253299Y-56622967D01*
X15226821Y-56517620D01*
X15218012Y-56444158D01*
X15225972Y-56381164D01*
X15241066Y-56331753D01*
X15310159Y-56202812D01*
X15418622Y-56081911D01*
X15550209Y-55986721D01*
X15566073Y-55978230D01*
X15671146Y-55924074D01*
X15862406Y-56000203D01*
X15968141Y-56048138D01*
X16061871Y-56106403D01*
X16159773Y-56186556D01*
X16267535Y-56289667D01*
X16370386Y-56394292D01*
X16470934Y-56500045D01*
X16554297Y-56591123D01*
X16588071Y-56630000D01*
X16694739Y-56757000D01*
X16682725Y-56198861D01*
X16670711Y-55640721D01*
X16737270Y-55624016D01*
X16812389Y-55630670D01*
G37*
X16812389Y-55630670D02*
X16878138Y-55681668D01*
X16928426Y-55765005D01*
X16957159Y-55868675D01*
X16958244Y-55980673D01*
X16946463Y-56036219D01*
X16932929Y-56108126D01*
X16921337Y-56218185D01*
X16913374Y-56348103D01*
X16911210Y-56418334D01*
X16917191Y-56650108D01*
X16943303Y-56855330D01*
X16987753Y-57026023D01*
X17048750Y-57154207D01*
X17087345Y-57202354D01*
X17150975Y-57290278D01*
X17168445Y-57380060D01*
X17167096Y-57432846D01*
X17154740Y-57461196D01*
X17118916Y-57470141D01*
X17047159Y-57464710D01*
X16979393Y-57456359D01*
X16884321Y-57417471D01*
X16786339Y-57326545D01*
X16689252Y-57187585D01*
X16642404Y-57101681D01*
X16587161Y-57010843D01*
X16502673Y-56893491D01*
X16399638Y-56762465D01*
X16288749Y-56630608D01*
X16180702Y-56510761D01*
X16086193Y-56415768D01*
X16033803Y-56370924D01*
X15893313Y-56286613D01*
X15763063Y-56250945D01*
X15648323Y-56264113D01*
X15554363Y-56326313D01*
X15532547Y-56352473D01*
X15492347Y-56421844D01*
X15483146Y-56493927D01*
X15490323Y-56554190D01*
X15512344Y-56655878D01*
X15546345Y-56737707D01*
X15603023Y-56819832D01*
X15675717Y-56903499D01*
X15751668Y-57000724D01*
X15798288Y-57089827D01*
X15811032Y-57159889D01*
X15796189Y-57192867D01*
X15717533Y-57231955D01*
X15631710Y-57227215D01*
X15568416Y-57186825D01*
X15462501Y-57048815D01*
X15363777Y-56884471D01*
X15285719Y-56717903D01*
X15253299Y-56622967D01*
X15226821Y-56517620D01*
X15218012Y-56444158D01*
X15225972Y-56381164D01*
X15241066Y-56331753D01*
X15310159Y-56202812D01*
X15418622Y-56081911D01*
X15550209Y-55986721D01*
X15566073Y-55978230D01*
X15671146Y-55924074D01*
X15862406Y-56000203D01*
X15968141Y-56048138D01*
X16061871Y-56106403D01*
X16159773Y-56186556D01*
X16267535Y-56289667D01*
X16370386Y-56394292D01*
X16470934Y-56500045D01*
X16554297Y-56591123D01*
X16588071Y-56630000D01*
X16694739Y-56757000D01*
X16682725Y-56198861D01*
X16670711Y-55640721D01*
X16737270Y-55624016D01*
X16812389Y-55630670D01*
G36*
X4817180Y-55800371D02*
G01*
X4880517Y-55852261D01*
X4930902Y-55935612D01*
X4962698Y-56037944D01*
X4970269Y-56146778D01*
X4950327Y-56243690D01*
X4917496Y-56373563D01*
X4903207Y-56531480D01*
X4905754Y-56705641D01*
X4923427Y-56884249D01*
X4954519Y-57055504D01*
X4997321Y-57207607D01*
X5050125Y-57328761D01*
X5111224Y-57407165D01*
X5119704Y-57413615D01*
X5163051Y-57468091D01*
X5168531Y-57542878D01*
X5153484Y-57607194D01*
X5115979Y-57632803D01*
X5089334Y-57636193D01*
X5004673Y-57632414D01*
X4944828Y-57622082D01*
X4856101Y-57572643D01*
X4763492Y-57468185D01*
X4668036Y-57309919D01*
X4652281Y-57279111D01*
X4598436Y-57181819D01*
X4541844Y-57095152D01*
X4508490Y-57053334D01*
X4459294Y-56998487D01*
X4387574Y-56915778D01*
X4306817Y-56820805D01*
X4286038Y-56796069D01*
X4134400Y-56632760D01*
X3993304Y-56519118D01*
X3857023Y-56450762D01*
X3819334Y-56439243D01*
X3700842Y-56428275D01*
X3603357Y-56466387D01*
X3521423Y-56556404D01*
X3490843Y-56609388D01*
X3468914Y-56662410D01*
X3468629Y-56712038D01*
X3491827Y-56780544D01*
X3508108Y-56818253D01*
X3562455Y-56916515D01*
X3636620Y-57021492D01*
X3678488Y-57071001D01*
X3750218Y-57159360D01*
X3784507Y-57233356D01*
X3791111Y-57289532D01*
X3783388Y-57358803D01*
X3751651Y-57392873D01*
X3717856Y-57404267D01*
X3669449Y-57411066D01*
X3626577Y-57399474D01*
X3580389Y-57362259D01*
X3522033Y-57292191D01*
X3442655Y-57182038D01*
X3438448Y-57176024D01*
X3348879Y-57024207D01*
X3281489Y-56862475D01*
X3241444Y-56706815D01*
X3233908Y-56573210D01*
X3236623Y-56551358D01*
X3288402Y-56400586D01*
X3390309Y-56275242D01*
X3530499Y-56181735D01*
X3687337Y-56102429D01*
X3872742Y-56175714D01*
X4028717Y-56259099D01*
X4202176Y-56393129D01*
X4393984Y-56578548D01*
X4578981Y-56785223D01*
X4698690Y-56926334D01*
X4687478Y-56368194D01*
X4676266Y-55810055D01*
X4746525Y-55792421D01*
X4817180Y-55800371D01*
G37*
X4817180Y-55800371D02*
X4880517Y-55852261D01*
X4930902Y-55935612D01*
X4962698Y-56037944D01*
X4970269Y-56146778D01*
X4950327Y-56243690D01*
X4917496Y-56373563D01*
X4903207Y-56531480D01*
X4905754Y-56705641D01*
X4923427Y-56884249D01*
X4954519Y-57055504D01*
X4997321Y-57207607D01*
X5050125Y-57328761D01*
X5111224Y-57407165D01*
X5119704Y-57413615D01*
X5163051Y-57468091D01*
X5168531Y-57542878D01*
X5153484Y-57607194D01*
X5115979Y-57632803D01*
X5089334Y-57636193D01*
X5004673Y-57632414D01*
X4944828Y-57622082D01*
X4856101Y-57572643D01*
X4763492Y-57468185D01*
X4668036Y-57309919D01*
X4652281Y-57279111D01*
X4598436Y-57181819D01*
X4541844Y-57095152D01*
X4508490Y-57053334D01*
X4459294Y-56998487D01*
X4387574Y-56915778D01*
X4306817Y-56820805D01*
X4286038Y-56796069D01*
X4134400Y-56632760D01*
X3993304Y-56519118D01*
X3857023Y-56450762D01*
X3819334Y-56439243D01*
X3700842Y-56428275D01*
X3603357Y-56466387D01*
X3521423Y-56556404D01*
X3490843Y-56609388D01*
X3468914Y-56662410D01*
X3468629Y-56712038D01*
X3491827Y-56780544D01*
X3508108Y-56818253D01*
X3562455Y-56916515D01*
X3636620Y-57021492D01*
X3678488Y-57071001D01*
X3750218Y-57159360D01*
X3784507Y-57233356D01*
X3791111Y-57289532D01*
X3783388Y-57358803D01*
X3751651Y-57392873D01*
X3717856Y-57404267D01*
X3669449Y-57411066D01*
X3626577Y-57399474D01*
X3580389Y-57362259D01*
X3522033Y-57292191D01*
X3442655Y-57182038D01*
X3438448Y-57176024D01*
X3348879Y-57024207D01*
X3281489Y-56862475D01*
X3241444Y-56706815D01*
X3233908Y-56573210D01*
X3236623Y-56551358D01*
X3288402Y-56400586D01*
X3390309Y-56275242D01*
X3530499Y-56181735D01*
X3687337Y-56102429D01*
X3872742Y-56175714D01*
X4028717Y-56259099D01*
X4202176Y-56393129D01*
X4393984Y-56578548D01*
X4578981Y-56785223D01*
X4698690Y-56926334D01*
X4687478Y-56368194D01*
X4676266Y-55810055D01*
X4746525Y-55792421D01*
X4817180Y-55800371D01*
G36*
X16695892Y-57674694D02*
G01*
X16750654Y-57754757D01*
X16791535Y-57884956D01*
X16815446Y-58044051D01*
X16829639Y-58179059D01*
X16843050Y-58267537D01*
X16859239Y-58319232D01*
X16881769Y-58343890D01*
X16914201Y-58351258D01*
X16927815Y-58351556D01*
X16976777Y-58361942D01*
X17003744Y-58403456D01*
X17015507Y-58452586D01*
X17017886Y-58559742D01*
X16998657Y-58620515D01*
X16979293Y-58674780D01*
X16979498Y-58742167D01*
X16997746Y-58836985D01*
X17032620Y-59011907D01*
X17048314Y-59152320D01*
X17044422Y-59251764D01*
X17026657Y-59297816D01*
X16969964Y-59336187D01*
X16912173Y-59318751D01*
X16872180Y-59272844D01*
X16845803Y-59213162D01*
X16816469Y-59117133D01*
X16790001Y-59004165D01*
X16787050Y-58989115D01*
X16755594Y-58842353D01*
X16725349Y-58744191D01*
X16692844Y-58686978D01*
X16654610Y-58663065D01*
X16638285Y-58661125D01*
X16595737Y-58657477D01*
X16507060Y-58647877D01*
X16382122Y-58633463D01*
X16230793Y-58615370D01*
X16074834Y-58596216D01*
X15911981Y-58576287D01*
X15770311Y-58559559D01*
X15658562Y-58547012D01*
X15585474Y-58539629D01*
X15559778Y-58538356D01*
X15571880Y-58564369D01*
X15604271Y-58628791D01*
X15651079Y-58720015D01*
X15676126Y-58768341D01*
X15743222Y-58912032D01*
X15784602Y-59032887D01*
X15796070Y-59102243D01*
X15794702Y-59173873D01*
X15775772Y-59206990D01*
X15726529Y-59219320D01*
X15710657Y-59220975D01*
X15651226Y-59220952D01*
X15617172Y-59196150D01*
X15590575Y-59132219D01*
X15587341Y-59122197D01*
X15554056Y-59041565D01*
X15501352Y-58938030D01*
X15447553Y-58845445D01*
X15363056Y-58703499D01*
X15285920Y-58562410D01*
X15223745Y-58436832D01*
X15184131Y-58341420D01*
X15180655Y-58330780D01*
X15176278Y-58285048D01*
X15205514Y-58250344D01*
X15261757Y-58219677D01*
X15328759Y-58190836D01*
X15366092Y-58188458D01*
X15393737Y-58212152D01*
X15397591Y-58217036D01*
X15440113Y-58241254D01*
X15528131Y-58270484D01*
X15651160Y-58302536D01*
X15798713Y-58335219D01*
X15960304Y-58366344D01*
X16125446Y-58393720D01*
X16283654Y-58415156D01*
X16402146Y-58426864D01*
X16639938Y-58445143D01*
X16625629Y-58363071D01*
X16589250Y-58154179D01*
X16561754Y-57994098D01*
X16542396Y-57876023D01*
X16530429Y-57793149D01*
X16525107Y-57738669D01*
X16525683Y-57705780D01*
X16531413Y-57687674D01*
X16541549Y-57677547D01*
X16549877Y-57672191D01*
X16628537Y-57646570D01*
X16695892Y-57674694D01*
G37*
X16695892Y-57674694D02*
X16750654Y-57754757D01*
X16791535Y-57884956D01*
X16815446Y-58044051D01*
X16829639Y-58179059D01*
X16843050Y-58267537D01*
X16859239Y-58319232D01*
X16881769Y-58343890D01*
X16914201Y-58351258D01*
X16927815Y-58351556D01*
X16976777Y-58361942D01*
X17003744Y-58403456D01*
X17015507Y-58452586D01*
X17017886Y-58559742D01*
X16998657Y-58620515D01*
X16979293Y-58674780D01*
X16979498Y-58742167D01*
X16997746Y-58836985D01*
X17032620Y-59011907D01*
X17048314Y-59152320D01*
X17044422Y-59251764D01*
X17026657Y-59297816D01*
X16969964Y-59336187D01*
X16912173Y-59318751D01*
X16872180Y-59272844D01*
X16845803Y-59213162D01*
X16816469Y-59117133D01*
X16790001Y-59004165D01*
X16787050Y-58989115D01*
X16755594Y-58842353D01*
X16725349Y-58744191D01*
X16692844Y-58686978D01*
X16654610Y-58663065D01*
X16638285Y-58661125D01*
X16595737Y-58657477D01*
X16507060Y-58647877D01*
X16382122Y-58633463D01*
X16230793Y-58615370D01*
X16074834Y-58596216D01*
X15911981Y-58576287D01*
X15770311Y-58559559D01*
X15658562Y-58547012D01*
X15585474Y-58539629D01*
X15559778Y-58538356D01*
X15571880Y-58564369D01*
X15604271Y-58628791D01*
X15651079Y-58720015D01*
X15676126Y-58768341D01*
X15743222Y-58912032D01*
X15784602Y-59032887D01*
X15796070Y-59102243D01*
X15794702Y-59173873D01*
X15775772Y-59206990D01*
X15726529Y-59219320D01*
X15710657Y-59220975D01*
X15651226Y-59220952D01*
X15617172Y-59196150D01*
X15590575Y-59132219D01*
X15587341Y-59122197D01*
X15554056Y-59041565D01*
X15501352Y-58938030D01*
X15447553Y-58845445D01*
X15363056Y-58703499D01*
X15285920Y-58562410D01*
X15223745Y-58436832D01*
X15184131Y-58341420D01*
X15180655Y-58330780D01*
X15176278Y-58285048D01*
X15205514Y-58250344D01*
X15261757Y-58219677D01*
X15328759Y-58190836D01*
X15366092Y-58188458D01*
X15393737Y-58212152D01*
X15397591Y-58217036D01*
X15440113Y-58241254D01*
X15528131Y-58270484D01*
X15651160Y-58302536D01*
X15798713Y-58335219D01*
X15960304Y-58366344D01*
X16125446Y-58393720D01*
X16283654Y-58415156D01*
X16402146Y-58426864D01*
X16639938Y-58445143D01*
X16625629Y-58363071D01*
X16589250Y-58154179D01*
X16561754Y-57994098D01*
X16542396Y-57876023D01*
X16530429Y-57793149D01*
X16525107Y-57738669D01*
X16525683Y-57705780D01*
X16531413Y-57687674D01*
X16541549Y-57677547D01*
X16549877Y-57672191D01*
X16628537Y-57646570D01*
X16695892Y-57674694D01*
G36*
X4672709Y-57845860D02*
G01*
X4699617Y-57859915D01*
X4719703Y-57896436D01*
X4738651Y-57966139D01*
X4762144Y-58079738D01*
X4764282Y-58090500D01*
X4797267Y-58251048D01*
X4824618Y-58365643D01*
X4850174Y-58443976D01*
X4877778Y-58495740D01*
X4911270Y-58530624D01*
X4948306Y-58554854D01*
X5015938Y-58620431D01*
X5033684Y-58705922D01*
X5000194Y-58799786D01*
X4983229Y-58849141D01*
X4986459Y-58921788D01*
X5002846Y-59004014D01*
X5038037Y-59180577D01*
X5053871Y-59321725D01*
X5049960Y-59421329D01*
X5032212Y-59467149D01*
X4975295Y-59505544D01*
X4917657Y-59488353D01*
X4880229Y-59445167D01*
X4842910Y-59368715D01*
X4820029Y-59297000D01*
X4801963Y-59225291D01*
X4774079Y-59123370D01*
X4746861Y-59028573D01*
X4692819Y-58844813D01*
X4141233Y-58778880D01*
X3971570Y-58759131D01*
X3822060Y-58742740D01*
X3701352Y-58730572D01*
X3618096Y-58723492D01*
X3580942Y-58722366D01*
X3579891Y-58722751D01*
X3586769Y-58750789D01*
X3613738Y-58816397D01*
X3655431Y-58906772D01*
X3667346Y-58931367D01*
X3740446Y-59098112D01*
X3781500Y-59231976D01*
X3790331Y-59329860D01*
X3766760Y-59388665D01*
X3710610Y-59405289D01*
X3694465Y-59403093D01*
X3651449Y-59384921D01*
X3609751Y-59341444D01*
X3561626Y-59262692D01*
X3516296Y-59173748D01*
X3450579Y-59044086D01*
X3371022Y-58894000D01*
X3292591Y-58751607D01*
X3276360Y-58723032D01*
X3220051Y-58619349D01*
X3178853Y-58533172D01*
X3158193Y-58476458D01*
X3157761Y-58461776D01*
X3192093Y-58431919D01*
X3253823Y-58394474D01*
X3259156Y-58391683D01*
X3320114Y-58364577D01*
X3354683Y-58367092D01*
X3377311Y-58389634D01*
X3419246Y-58413025D01*
X3506598Y-58441457D01*
X3628798Y-58472772D01*
X3775279Y-58504816D01*
X3935474Y-58535432D01*
X4098814Y-58562463D01*
X4254733Y-58583754D01*
X4392662Y-58597149D01*
X4395251Y-58597327D01*
X4646612Y-58614483D01*
X4629455Y-58518297D01*
X4616537Y-58446250D01*
X4597093Y-58338235D01*
X4574648Y-58213828D01*
X4566994Y-58171466D01*
X4548351Y-58055568D01*
X4536975Y-57958541D01*
X4534445Y-57895351D01*
X4536515Y-57882188D01*
X4572544Y-57854322D01*
X4633294Y-57843556D01*
X4672709Y-57845860D01*
G37*
X4672709Y-57845860D02*
X4699617Y-57859915D01*
X4719703Y-57896436D01*
X4738651Y-57966139D01*
X4762144Y-58079738D01*
X4764282Y-58090500D01*
X4797267Y-58251048D01*
X4824618Y-58365643D01*
X4850174Y-58443976D01*
X4877778Y-58495740D01*
X4911270Y-58530624D01*
X4948306Y-58554854D01*
X5015938Y-58620431D01*
X5033684Y-58705922D01*
X5000194Y-58799786D01*
X4983229Y-58849141D01*
X4986459Y-58921788D01*
X5002846Y-59004014D01*
X5038037Y-59180577D01*
X5053871Y-59321725D01*
X5049960Y-59421329D01*
X5032212Y-59467149D01*
X4975295Y-59505544D01*
X4917657Y-59488353D01*
X4880229Y-59445167D01*
X4842910Y-59368715D01*
X4820029Y-59297000D01*
X4801963Y-59225291D01*
X4774079Y-59123370D01*
X4746861Y-59028573D01*
X4692819Y-58844813D01*
X4141233Y-58778880D01*
X3971570Y-58759131D01*
X3822060Y-58742740D01*
X3701352Y-58730572D01*
X3618096Y-58723492D01*
X3580942Y-58722366D01*
X3579891Y-58722751D01*
X3586769Y-58750789D01*
X3613738Y-58816397D01*
X3655431Y-58906772D01*
X3667346Y-58931367D01*
X3740446Y-59098112D01*
X3781500Y-59231976D01*
X3790331Y-59329860D01*
X3766760Y-59388665D01*
X3710610Y-59405289D01*
X3694465Y-59403093D01*
X3651449Y-59384921D01*
X3609751Y-59341444D01*
X3561626Y-59262692D01*
X3516296Y-59173748D01*
X3450579Y-59044086D01*
X3371022Y-58894000D01*
X3292591Y-58751607D01*
X3276360Y-58723032D01*
X3220051Y-58619349D01*
X3178853Y-58533172D01*
X3158193Y-58476458D01*
X3157761Y-58461776D01*
X3192093Y-58431919D01*
X3253823Y-58394474D01*
X3259156Y-58391683D01*
X3320114Y-58364577D01*
X3354683Y-58367092D01*
X3377311Y-58389634D01*
X3419246Y-58413025D01*
X3506598Y-58441457D01*
X3628798Y-58472772D01*
X3775279Y-58504816D01*
X3935474Y-58535432D01*
X4098814Y-58562463D01*
X4254733Y-58583754D01*
X4392662Y-58597149D01*
X4395251Y-58597327D01*
X4646612Y-58614483D01*
X4629455Y-58518297D01*
X4616537Y-58446250D01*
X4597093Y-58338235D01*
X4574648Y-58213828D01*
X4566994Y-58171466D01*
X4548351Y-58055568D01*
X4536975Y-57958541D01*
X4534445Y-57895351D01*
X4536515Y-57882188D01*
X4572544Y-57854322D01*
X4633294Y-57843556D01*
X4672709Y-57845860D01*
G36*
X9231073Y-55571988D02*
G01*
X9276714Y-55607902D01*
X9346858Y-55665084D01*
X9457471Y-55744640D01*
X9599885Y-55841174D01*
X9765433Y-55949285D01*
X9945444Y-56063576D01*
X10131251Y-56178646D01*
X10314185Y-56289097D01*
X10485578Y-56389531D01*
X10636762Y-56474547D01*
X10759067Y-56538748D01*
X10809839Y-56562766D01*
X10923994Y-56625598D01*
X10989742Y-56695009D01*
X11015056Y-56780361D01*
X11016000Y-56804897D01*
X11005409Y-56849476D01*
X10968841Y-56890803D01*
X10899099Y-56933280D01*
X10788991Y-56981309D01*
X10635000Y-57038001D01*
X10403342Y-57119718D01*
X10214542Y-57187518D01*
X10057992Y-57245565D01*
X9923080Y-57298027D01*
X9799198Y-57349069D01*
X9675736Y-57402859D01*
X9542083Y-57463562D01*
X9490289Y-57487512D01*
X9361578Y-57547223D01*
X9436799Y-57622904D01*
X9479905Y-57678175D01*
X9510508Y-57749430D01*
X9529744Y-57844948D01*
X9538751Y-57973013D01*
X9538666Y-58141904D01*
X9532473Y-58319746D01*
X9526686Y-58490555D01*
X9529217Y-58615760D01*
X9543608Y-58706000D01*
X9573402Y-58771911D01*
X9622139Y-58824132D01*
X9693364Y-58873302D01*
X9722620Y-58890797D01*
X9854461Y-58968194D01*
X9898131Y-58859053D01*
X9927864Y-58767079D01*
X9955878Y-58651920D01*
X9968248Y-58586011D01*
X10010813Y-58392202D01*
X10070172Y-58247605D01*
X10150486Y-58146423D01*
X10255918Y-58082854D01*
X10347480Y-58057524D01*
X10491309Y-58058082D01*
X10636829Y-58105049D01*
X10769665Y-58190721D01*
X10875441Y-58307397D01*
X10904287Y-58355813D01*
X10973208Y-58529841D01*
X11021544Y-58736983D01*
X11046620Y-58956823D01*
X11045760Y-59168946D01*
X11028298Y-59301881D01*
X11005722Y-59355442D01*
X10963232Y-59421956D01*
X10913794Y-59484454D01*
X10870375Y-59525969D01*
X10851214Y-59533615D01*
X10810494Y-59524358D01*
X10783186Y-59517439D01*
X10732725Y-59477845D01*
X10716920Y-59396313D01*
X10735981Y-59275617D01*
X10759304Y-59199557D01*
X10790592Y-59099948D01*
X10812030Y-59014107D01*
X10818445Y-58968320D01*
X10803895Y-58861202D01*
X10765738Y-58729226D01*
X10712208Y-58594137D01*
X10651541Y-58477683D01*
X10611239Y-58421185D01*
X10552625Y-58357145D01*
X10509101Y-58328465D01*
X10460022Y-58326815D01*
X10406315Y-58338510D01*
X10341511Y-58359074D01*
X10300693Y-58391089D01*
X10269692Y-58450428D01*
X10245664Y-58518474D01*
X10215575Y-58628077D01*
X10187165Y-58762964D01*
X10168330Y-58881583D01*
X10136345Y-59044384D01*
X10087782Y-59173961D01*
X10026531Y-59262095D01*
X9971710Y-59297022D01*
X9921702Y-59289559D01*
X9839214Y-59252401D01*
X9735013Y-59192126D01*
X9619863Y-59115315D01*
X9504530Y-59028546D01*
X9430132Y-58966010D01*
X9325930Y-58873667D01*
X9291833Y-58422111D01*
X9279324Y-58248503D01*
X9267964Y-58076198D01*
X9258745Y-57921306D01*
X9252657Y-57799937D01*
X9251293Y-57763487D01*
X9246615Y-57655967D01*
X9237092Y-57589483D01*
X9217061Y-57548633D01*
X9180855Y-57518013D01*
X9155054Y-57501809D01*
X9095478Y-57457078D01*
X9078727Y-57414139D01*
X9084245Y-57384323D01*
X9106533Y-57326407D01*
X9121341Y-57301576D01*
X9154341Y-57287135D01*
X9230680Y-57262602D01*
X9338903Y-57231440D01*
X9464460Y-57197907D01*
X9584064Y-57163423D01*
X9725614Y-57116837D01*
X9880451Y-57061659D01*
X10039914Y-57001396D01*
X10195345Y-56939555D01*
X10338083Y-56879644D01*
X10459468Y-56825171D01*
X10550842Y-56779643D01*
X10603545Y-56746569D01*
X10612808Y-56732756D01*
X10586346Y-56709693D01*
X10518842Y-56663445D01*
X10418256Y-56598841D01*
X10292549Y-56520709D01*
X10149680Y-56433877D01*
X9997612Y-56343173D01*
X9844303Y-56253426D01*
X9697714Y-56169463D01*
X9565806Y-56096113D01*
X9540733Y-56082519D01*
X9409608Y-56004664D01*
X9275716Y-55913429D01*
X9161994Y-55824784D01*
X9131510Y-55797615D01*
X9050053Y-55718451D01*
X9005364Y-55665297D01*
X8990890Y-55627976D01*
X9000081Y-55596313D01*
X9000958Y-55594839D01*
X9060613Y-55543293D01*
X9141656Y-55535882D01*
X9231073Y-55571988D01*
G37*
X9231073Y-55571988D02*
X9276714Y-55607902D01*
X9346858Y-55665084D01*
X9457471Y-55744640D01*
X9599885Y-55841174D01*
X9765433Y-55949285D01*
X9945444Y-56063576D01*
X10131251Y-56178646D01*
X10314185Y-56289097D01*
X10485578Y-56389531D01*
X10636762Y-56474547D01*
X10759067Y-56538748D01*
X10809839Y-56562766D01*
X10923994Y-56625598D01*
X10989742Y-56695009D01*
X11015056Y-56780361D01*
X11016000Y-56804897D01*
X11005409Y-56849476D01*
X10968841Y-56890803D01*
X10899099Y-56933280D01*
X10788991Y-56981309D01*
X10635000Y-57038001D01*
X10403342Y-57119718D01*
X10214542Y-57187518D01*
X10057992Y-57245565D01*
X9923080Y-57298027D01*
X9799198Y-57349069D01*
X9675736Y-57402859D01*
X9542083Y-57463562D01*
X9490289Y-57487512D01*
X9361578Y-57547223D01*
X9436799Y-57622904D01*
X9479905Y-57678175D01*
X9510508Y-57749430D01*
X9529744Y-57844948D01*
X9538751Y-57973013D01*
X9538666Y-58141904D01*
X9532473Y-58319746D01*
X9526686Y-58490555D01*
X9529217Y-58615760D01*
X9543608Y-58706000D01*
X9573402Y-58771911D01*
X9622139Y-58824132D01*
X9693364Y-58873302D01*
X9722620Y-58890797D01*
X9854461Y-58968194D01*
X9898131Y-58859053D01*
X9927864Y-58767079D01*
X9955878Y-58651920D01*
X9968248Y-58586011D01*
X10010813Y-58392202D01*
X10070172Y-58247605D01*
X10150486Y-58146423D01*
X10255918Y-58082854D01*
X10347480Y-58057524D01*
X10491309Y-58058082D01*
X10636829Y-58105049D01*
X10769665Y-58190721D01*
X10875441Y-58307397D01*
X10904287Y-58355813D01*
X10973208Y-58529841D01*
X11021544Y-58736983D01*
X11046620Y-58956823D01*
X11045760Y-59168946D01*
X11028298Y-59301881D01*
X11005722Y-59355442D01*
X10963232Y-59421956D01*
X10913794Y-59484454D01*
X10870375Y-59525969D01*
X10851214Y-59533615D01*
X10810494Y-59524358D01*
X10783186Y-59517439D01*
X10732725Y-59477845D01*
X10716920Y-59396313D01*
X10735981Y-59275617D01*
X10759304Y-59199557D01*
X10790592Y-59099948D01*
X10812030Y-59014107D01*
X10818445Y-58968320D01*
X10803895Y-58861202D01*
X10765738Y-58729226D01*
X10712208Y-58594137D01*
X10651541Y-58477683D01*
X10611239Y-58421185D01*
X10552625Y-58357145D01*
X10509101Y-58328465D01*
X10460022Y-58326815D01*
X10406315Y-58338510D01*
X10341511Y-58359074D01*
X10300693Y-58391089D01*
X10269692Y-58450428D01*
X10245664Y-58518474D01*
X10215575Y-58628077D01*
X10187165Y-58762964D01*
X10168330Y-58881583D01*
X10136345Y-59044384D01*
X10087782Y-59173961D01*
X10026531Y-59262095D01*
X9971710Y-59297022D01*
X9921702Y-59289559D01*
X9839214Y-59252401D01*
X9735013Y-59192126D01*
X9619863Y-59115315D01*
X9504530Y-59028546D01*
X9430132Y-58966010D01*
X9325930Y-58873667D01*
X9291833Y-58422111D01*
X9279324Y-58248503D01*
X9267964Y-58076198D01*
X9258745Y-57921306D01*
X9252657Y-57799937D01*
X9251293Y-57763487D01*
X9246615Y-57655967D01*
X9237092Y-57589483D01*
X9217061Y-57548633D01*
X9180855Y-57518013D01*
X9155054Y-57501809D01*
X9095478Y-57457078D01*
X9078727Y-57414139D01*
X9084245Y-57384323D01*
X9106533Y-57326407D01*
X9121341Y-57301576D01*
X9154341Y-57287135D01*
X9230680Y-57262602D01*
X9338903Y-57231440D01*
X9464460Y-57197907D01*
X9584064Y-57163423D01*
X9725614Y-57116837D01*
X9880451Y-57061659D01*
X10039914Y-57001396D01*
X10195345Y-56939555D01*
X10338083Y-56879644D01*
X10459468Y-56825171D01*
X10550842Y-56779643D01*
X10603545Y-56746569D01*
X10612808Y-56732756D01*
X10586346Y-56709693D01*
X10518842Y-56663445D01*
X10418256Y-56598841D01*
X10292549Y-56520709D01*
X10149680Y-56433877D01*
X9997612Y-56343173D01*
X9844303Y-56253426D01*
X9697714Y-56169463D01*
X9565806Y-56096113D01*
X9540733Y-56082519D01*
X9409608Y-56004664D01*
X9275716Y-55913429D01*
X9161994Y-55824784D01*
X9131510Y-55797615D01*
X9050053Y-55718451D01*
X9005364Y-55665297D01*
X8990890Y-55627976D01*
X9000081Y-55596313D01*
X9000958Y-55594839D01*
X9060613Y-55543293D01*
X9141656Y-55535882D01*
X9231073Y-55571988D01*
G36*
X16315848Y-59618818D02*
G01*
X16326738Y-59624210D01*
X16359122Y-59648835D01*
X16371726Y-59687569D01*
X16367994Y-59757416D01*
X16362374Y-59800190D01*
X16354226Y-59883596D01*
X16346568Y-60007723D01*
X16340184Y-60156849D01*
X16335858Y-60315250D01*
X16335396Y-60341223D01*
X16332821Y-60485453D01*
X16330196Y-60609219D01*
X16327783Y-60701692D01*
X16325842Y-60752041D01*
X16325361Y-60757500D01*
X16298638Y-60777728D01*
X16245736Y-60777490D01*
X16191448Y-60760567D01*
X16161164Y-60732459D01*
X16155217Y-60690063D01*
X16149818Y-60601435D01*
X16145350Y-60476788D01*
X16142199Y-60326334D01*
X16140883Y-60193863D01*
X16140208Y-60016229D01*
X16140973Y-59886365D01*
X16144189Y-59795596D01*
X16150864Y-59735251D01*
X16162009Y-59696655D01*
X16178633Y-59671135D01*
X16201746Y-59650019D01*
X16204454Y-59647814D01*
X16263758Y-59612478D01*
X16315848Y-59618818D01*
G37*
X16315848Y-59618818D02*
X16326738Y-59624210D01*
X16359122Y-59648835D01*
X16371726Y-59687569D01*
X16367994Y-59757416D01*
X16362374Y-59800190D01*
X16354226Y-59883596D01*
X16346568Y-60007723D01*
X16340184Y-60156849D01*
X16335858Y-60315250D01*
X16335396Y-60341223D01*
X16332821Y-60485453D01*
X16330196Y-60609219D01*
X16327783Y-60701692D01*
X16325842Y-60752041D01*
X16325361Y-60757500D01*
X16298638Y-60777728D01*
X16245736Y-60777490D01*
X16191448Y-60760567D01*
X16161164Y-60732459D01*
X16155217Y-60690063D01*
X16149818Y-60601435D01*
X16145350Y-60476788D01*
X16142199Y-60326334D01*
X16140883Y-60193863D01*
X16140208Y-60016229D01*
X16140973Y-59886365D01*
X16144189Y-59795596D01*
X16150864Y-59735251D01*
X16162009Y-59696655D01*
X16178633Y-59671135D01*
X16201746Y-59650019D01*
X16204454Y-59647814D01*
X16263758Y-59612478D01*
X16315848Y-59618818D01*
G36*
X10358242Y-59821180D02*
G01*
X10376762Y-59833849D01*
X10387734Y-59866812D01*
X10393134Y-59929763D01*
X10394935Y-60032395D01*
X10395111Y-60137814D01*
X10395111Y-60456516D01*
X10522516Y-60490591D01*
X10629450Y-60510942D01*
X10753021Y-60523125D01*
X10804739Y-60524667D01*
X10893629Y-60526667D01*
X10939870Y-60536592D01*
X10957223Y-60560328D01*
X10959556Y-60590910D01*
X10941090Y-60654235D01*
X10883275Y-60688253D01*
X10782480Y-60693964D01*
X10651553Y-60675636D01*
X10521067Y-60650346D01*
X10436884Y-60639997D01*
X10389402Y-60651735D01*
X10369022Y-60692703D01*
X10366143Y-60770048D01*
X10370904Y-60884500D01*
X10381000Y-61131445D01*
X10303389Y-61140375D01*
X10245706Y-61139629D01*
X10221398Y-61126264D01*
X10218869Y-61088775D01*
X10216130Y-61010315D01*
X10213696Y-60906350D01*
X10213274Y-60882811D01*
X10206321Y-60751590D01*
X10191154Y-60668747D01*
X10174251Y-60640595D01*
X10130785Y-60631848D01*
X10047332Y-60628283D01*
X9940160Y-60630455D01*
X9914456Y-60631789D01*
X9772878Y-60634560D01*
X9679007Y-60621779D01*
X9625635Y-60590945D01*
X9605556Y-60539563D01*
X9604889Y-60524503D01*
X9617991Y-60486646D01*
X9661937Y-60463194D01*
X9743690Y-60452887D01*
X9870212Y-60454464D01*
X9961486Y-60459947D01*
X10197556Y-60476606D01*
X10197556Y-60181726D01*
X10200003Y-60031225D01*
X10209452Y-59928403D01*
X10229060Y-59864621D01*
X10261987Y-59831246D01*
X10311393Y-59819639D01*
X10330200Y-59819111D01*
X10358242Y-59821180D01*
G37*
X10358242Y-59821180D02*
X10376762Y-59833849D01*
X10387734Y-59866812D01*
X10393134Y-59929763D01*
X10394935Y-60032395D01*
X10395111Y-60137814D01*
X10395111Y-60456516D01*
X10522516Y-60490591D01*
X10629450Y-60510942D01*
X10753021Y-60523125D01*
X10804739Y-60524667D01*
X10893629Y-60526667D01*
X10939870Y-60536592D01*
X10957223Y-60560328D01*
X10959556Y-60590910D01*
X10941090Y-60654235D01*
X10883275Y-60688253D01*
X10782480Y-60693964D01*
X10651553Y-60675636D01*
X10521067Y-60650346D01*
X10436884Y-60639997D01*
X10389402Y-60651735D01*
X10369022Y-60692703D01*
X10366143Y-60770048D01*
X10370904Y-60884500D01*
X10381000Y-61131445D01*
X10303389Y-61140375D01*
X10245706Y-61139629D01*
X10221398Y-61126264D01*
X10218869Y-61088775D01*
X10216130Y-61010315D01*
X10213696Y-60906350D01*
X10213274Y-60882811D01*
X10206321Y-60751590D01*
X10191154Y-60668747D01*
X10174251Y-60640595D01*
X10130785Y-60631848D01*
X10047332Y-60628283D01*
X9940160Y-60630455D01*
X9914456Y-60631789D01*
X9772878Y-60634560D01*
X9679007Y-60621779D01*
X9625635Y-60590945D01*
X9605556Y-60539563D01*
X9604889Y-60524503D01*
X9617991Y-60486646D01*
X9661937Y-60463194D01*
X9743690Y-60452887D01*
X9870212Y-60454464D01*
X9961486Y-60459947D01*
X10197556Y-60476606D01*
X10197556Y-60181726D01*
X10200003Y-60031225D01*
X10209452Y-59928403D01*
X10229060Y-59864621D01*
X10261987Y-59831246D01*
X10311393Y-59819639D01*
X10330200Y-59819111D01*
X10358242Y-59821180D01*
G36*
X4324918Y-59824740D02*
G01*
X4397889Y-59833223D01*
X4413815Y-60464581D01*
X4561074Y-60495039D01*
X4676318Y-60514851D01*
X4794332Y-60529115D01*
X4835090Y-60532138D01*
X4926461Y-60548947D01*
X4970990Y-60583464D01*
X4965368Y-60629689D01*
X4914671Y-60676355D01*
X4871995Y-60698117D01*
X4823065Y-60704654D01*
X4750547Y-60696162D01*
X4666000Y-60679128D01*
X4531794Y-60651247D01*
X4443197Y-60638767D01*
X4390741Y-60644736D01*
X4364961Y-60672199D01*
X4356388Y-60724205D01*
X4355556Y-60779050D01*
X4361909Y-60872807D01*
X4378020Y-60949398D01*
X4388232Y-60972867D01*
X4407089Y-61046990D01*
X4373294Y-61113216D01*
X4332480Y-61142802D01*
X4279209Y-61155079D01*
X4232108Y-61121259D01*
X4194006Y-61056560D01*
X4189430Y-60995643D01*
X4211028Y-60964223D01*
X4224996Y-60927259D01*
X4225417Y-60856870D01*
X4214987Y-60773688D01*
X4196403Y-60698345D01*
X4172362Y-60651473D01*
X4169861Y-60649226D01*
X4118815Y-60633975D01*
X4021363Y-60628294D01*
X3905108Y-60631674D01*
X3763110Y-60634566D01*
X3668821Y-60622099D01*
X3614991Y-60591778D01*
X3594372Y-60541111D01*
X3593556Y-60524503D01*
X3605517Y-60487670D01*
X3646267Y-60464494D01*
X3723106Y-60453671D01*
X3843336Y-60453900D01*
X3955870Y-60459849D01*
X4200334Y-60475711D01*
X4190604Y-60188803D01*
X4188542Y-60033920D01*
X4196530Y-59927469D01*
X4217349Y-59861905D01*
X4253785Y-59829686D01*
X4308618Y-59823268D01*
X4324918Y-59824740D01*
G37*
X4324918Y-59824740D02*
X4397889Y-59833223D01*
X4413815Y-60464581D01*
X4561074Y-60495039D01*
X4676318Y-60514851D01*
X4794332Y-60529115D01*
X4835090Y-60532138D01*
X4926461Y-60548947D01*
X4970990Y-60583464D01*
X4965368Y-60629689D01*
X4914671Y-60676355D01*
X4871995Y-60698117D01*
X4823065Y-60704654D01*
X4750547Y-60696162D01*
X4666000Y-60679128D01*
X4531794Y-60651247D01*
X4443197Y-60638767D01*
X4390741Y-60644736D01*
X4364961Y-60672199D01*
X4356388Y-60724205D01*
X4355556Y-60779050D01*
X4361909Y-60872807D01*
X4378020Y-60949398D01*
X4388232Y-60972867D01*
X4407089Y-61046990D01*
X4373294Y-61113216D01*
X4332480Y-61142802D01*
X4279209Y-61155079D01*
X4232108Y-61121259D01*
X4194006Y-61056560D01*
X4189430Y-60995643D01*
X4211028Y-60964223D01*
X4224996Y-60927259D01*
X4225417Y-60856870D01*
X4214987Y-60773688D01*
X4196403Y-60698345D01*
X4172362Y-60651473D01*
X4169861Y-60649226D01*
X4118815Y-60633975D01*
X4021363Y-60628294D01*
X3905108Y-60631674D01*
X3763110Y-60634566D01*
X3668821Y-60622099D01*
X3614991Y-60591778D01*
X3594372Y-60541111D01*
X3593556Y-60524503D01*
X3605517Y-60487670D01*
X3646267Y-60464494D01*
X3723106Y-60453671D01*
X3843336Y-60453900D01*
X3955870Y-60459849D01*
X4200334Y-60475711D01*
X4190604Y-60188803D01*
X4188542Y-60033920D01*
X4196530Y-59927469D01*
X4217349Y-59861905D01*
X4253785Y-59829686D01*
X4308618Y-59823268D01*
X4324918Y-59824740D01*
G36*
X20018889Y-125774445D02*
G01*
X9492000Y-125774445D01*
X9492000Y-125238223D01*
X20018889Y-125238223D01*
X20018889Y-125774445D01*
G37*
X20018889Y-125774445D02*
X9492000Y-125774445D01*
X9492000Y-125238223D01*
X20018889Y-125238223D01*
X20018889Y-125774445D01*
G36*
X2768056Y-125245139D02*
G01*
X5526778Y-125252334D01*
X5526778Y-125760334D01*
X2768056Y-125767528D01*
X9334Y-125774723D01*
X9334Y-125237945D01*
X2768056Y-125245139D01*
G37*
X2768056Y-125245139D02*
X5526778Y-125252334D01*
X5526778Y-125760334D01*
X2768056Y-125767528D01*
X9334Y-125774723D01*
X9334Y-125237945D01*
X2768056Y-125245139D01*
G04 #@! TD*
M02*
