G04 #@! TF.GenerationSoftware,KiCad,Pcbnew,(5.1.10)-1*
G04 #@! TF.CreationDate,2021-09-02T21:11:49+02:00*
G04 #@! TF.ProjectId,Buffered Multiple Main,42756666-6572-4656-9420-4d756c746970,rev?*
G04 #@! TF.SameCoordinates,Original*
G04 #@! TF.FileFunction,Other,Fab,Top*
%FSLAX46Y46*%
G04 Gerber Fmt 4.6, Leading zero omitted, Abs format (unit mm)*
G04 Created by KiCad (PCBNEW (5.1.10)-1) date 2021-09-02 21:11:49*
%MOMM*%
%LPD*%
G01*
G04 APERTURE LIST*
G04 #@! TA.AperFunction,Profile*
%ADD10C,0.050000*%
G04 #@! TD*
%ADD11C,0.100000*%
G04 APERTURE END LIST*
D10*
X29845000Y-72390000D02*
X29845000Y-101600000D01*
X38100000Y-72390000D02*
X29845000Y-72390000D01*
X0Y-101600000D02*
X0Y0D01*
X29845000Y-101600000D02*
X0Y-101600000D01*
X38100000Y0D02*
X38100000Y-72390000D01*
X0Y0D02*
X38100000Y0D01*
D11*
X17125000Y-96520000D02*
G75*
G03*
X17125000Y-96520000I-1250000J0D01*
G01*
X15875000Y-96520000D02*
X15875000Y-93980000D01*
X17125000Y-45720000D02*
G75*
G03*
X17125000Y-45720000I-1250000J0D01*
G01*
X15875000Y-45720000D02*
X15875000Y-43180000D01*
X17125000Y-59055000D02*
G75*
G03*
X17125000Y-59055000I-1250000J0D01*
G01*
X15875000Y-59055000D02*
X15875000Y-61595000D01*
X17125000Y-84455000D02*
G75*
G03*
X17125000Y-84455000I-1250000J0D01*
G01*
X15875000Y-84455000D02*
X15875000Y-81915000D01*
X17125000Y-71120000D02*
G75*
G03*
X17125000Y-71120000I-1250000J0D01*
G01*
X15875000Y-71120000D02*
X15875000Y-68580000D01*
X17125000Y-33020000D02*
G75*
G03*
X17125000Y-33020000I-1250000J0D01*
G01*
X15875000Y-33020000D02*
X15875000Y-30480000D01*
X17125000Y-20320000D02*
G75*
G03*
X17125000Y-20320000I-1250000J0D01*
G01*
X15875000Y-20320000D02*
X15875000Y-17780000D01*
X17125000Y-7620000D02*
G75*
G03*
X17125000Y-7620000I-1250000J0D01*
G01*
X15875000Y-7620000D02*
X15875000Y-5080000D01*
X25765000Y-40640000D02*
X31115000Y-40640000D01*
X31115000Y-40640000D02*
X31115000Y-58420000D01*
X31115000Y-58420000D02*
X24765000Y-58420000D01*
X24765000Y-58420000D02*
X24765000Y-41640000D01*
X24765000Y-41640000D02*
X25765000Y-40640000D01*
X22860000Y-40580000D02*
X22860000Y-58480000D01*
X22860000Y-58480000D02*
X33020000Y-58480000D01*
X33020000Y-58480000D02*
X33020000Y-40580000D01*
X33020000Y-40580000D02*
X22860000Y-40580000D01*
X21510000Y-93405000D02*
X24210000Y-93405000D01*
X24210000Y-93405000D02*
X24210000Y-88205000D01*
X24210000Y-88205000D02*
X21510000Y-88205000D01*
X21510000Y-88205000D02*
X21510000Y-93405000D01*
X22860000Y-95885000D02*
X22860000Y-93405000D01*
X22860000Y-85725000D02*
X22860000Y-88205000D01*
X21510000Y-92625000D02*
X24210000Y-92625000D01*
X21510000Y-92525000D02*
X24210000Y-92525000D01*
X21510000Y-92725000D02*
X24210000Y-92725000D01*
X18208000Y-93405000D02*
X20908000Y-93405000D01*
X20908000Y-93405000D02*
X20908000Y-88205000D01*
X20908000Y-88205000D02*
X18208000Y-88205000D01*
X18208000Y-88205000D02*
X18208000Y-93405000D01*
X19558000Y-95885000D02*
X19558000Y-93405000D01*
X19558000Y-85725000D02*
X19558000Y-88205000D01*
X18208000Y-92625000D02*
X20908000Y-92625000D01*
X18208000Y-92525000D02*
X20908000Y-92525000D01*
X18208000Y-92725000D02*
X20908000Y-92725000D01*
X36175000Y-43530000D02*
X33675000Y-43530000D01*
X33675000Y-43530000D02*
X33675000Y-50530000D01*
X33675000Y-50530000D02*
X36175000Y-50530000D01*
X36175000Y-50530000D02*
X36175000Y-43530000D01*
X19705000Y-50530000D02*
X22205000Y-50530000D01*
X22205000Y-50530000D02*
X22205000Y-43530000D01*
X22205000Y-43530000D02*
X19705000Y-43530000D01*
X19705000Y-43530000D02*
X19705000Y-50530000D01*
X0Y-101385000D02*
X0Y-89885000D01*
X0Y-89885000D02*
X14200000Y-89885000D01*
X14200000Y-89885000D02*
X14200000Y-101385000D01*
X0Y-101385000D02*
X14200000Y-101385000D01*
X0Y-98885000D02*
X-3100000Y-98885000D01*
X-3100000Y-98885000D02*
X-3500000Y-98485000D01*
X-3500000Y-93285000D02*
X-3500000Y-98485000D01*
X-3500000Y-93285000D02*
X-3100000Y-92885000D01*
X0Y-92885000D02*
X-3100000Y-92885000D01*
X-3100000Y-98885000D02*
X-3100000Y-92885000D01*
X0Y-49950000D02*
X0Y-38450000D01*
X0Y-38450000D02*
X14200000Y-38450000D01*
X14200000Y-38450000D02*
X14200000Y-49950000D01*
X0Y-49950000D02*
X14200000Y-49950000D01*
X0Y-47450000D02*
X-3100000Y-47450000D01*
X-3100000Y-47450000D02*
X-3500000Y-47050000D01*
X-3500000Y-41850000D02*
X-3500000Y-47050000D01*
X-3500000Y-41850000D02*
X-3100000Y-41450000D01*
X0Y-41450000D02*
X-3100000Y-41450000D01*
X-3100000Y-47450000D02*
X-3100000Y-41450000D01*
X0Y-63412000D02*
X0Y-51912000D01*
X0Y-51912000D02*
X14200000Y-51912000D01*
X14200000Y-51912000D02*
X14200000Y-63412000D01*
X0Y-63412000D02*
X14200000Y-63412000D01*
X0Y-60912000D02*
X-3100000Y-60912000D01*
X-3100000Y-60912000D02*
X-3500000Y-60512000D01*
X-3500000Y-55312000D02*
X-3500000Y-60512000D01*
X-3500000Y-55312000D02*
X-3100000Y-54912000D01*
X0Y-54912000D02*
X-3100000Y-54912000D01*
X-3100000Y-60912000D02*
X-3100000Y-54912000D01*
X0Y-88685000D02*
X0Y-77185000D01*
X0Y-77185000D02*
X14200000Y-77185000D01*
X14200000Y-77185000D02*
X14200000Y-88685000D01*
X0Y-88685000D02*
X14200000Y-88685000D01*
X0Y-86185000D02*
X-3100000Y-86185000D01*
X-3100000Y-86185000D02*
X-3500000Y-85785000D01*
X-3500000Y-80585000D02*
X-3500000Y-85785000D01*
X-3500000Y-80585000D02*
X-3100000Y-80185000D01*
X0Y-80185000D02*
X-3100000Y-80185000D01*
X-3100000Y-86185000D02*
X-3100000Y-80185000D01*
X0Y-76000000D02*
X0Y-64500000D01*
X0Y-64500000D02*
X14200000Y-64500000D01*
X14200000Y-64500000D02*
X14200000Y-76000000D01*
X0Y-76000000D02*
X14200000Y-76000000D01*
X0Y-73500000D02*
X-3100000Y-73500000D01*
X-3100000Y-73500000D02*
X-3500000Y-73100000D01*
X-3500000Y-67900000D02*
X-3500000Y-73100000D01*
X-3500000Y-67900000D02*
X-3100000Y-67500000D01*
X0Y-67500000D02*
X-3100000Y-67500000D01*
X-3100000Y-73500000D02*
X-3100000Y-67500000D01*
X0Y-37250000D02*
X0Y-25750000D01*
X0Y-25750000D02*
X14200000Y-25750000D01*
X14200000Y-25750000D02*
X14200000Y-37250000D01*
X0Y-37250000D02*
X14200000Y-37250000D01*
X0Y-34750000D02*
X-3100000Y-34750000D01*
X-3100000Y-34750000D02*
X-3500000Y-34350000D01*
X-3500000Y-29150000D02*
X-3500000Y-34350000D01*
X-3500000Y-29150000D02*
X-3100000Y-28750000D01*
X0Y-28750000D02*
X-3100000Y-28750000D01*
X-3100000Y-34750000D02*
X-3100000Y-28750000D01*
X0Y-24550000D02*
X0Y-13050000D01*
X0Y-13050000D02*
X14200000Y-13050000D01*
X14200000Y-13050000D02*
X14200000Y-24550000D01*
X0Y-24550000D02*
X14200000Y-24550000D01*
X0Y-22050000D02*
X-3100000Y-22050000D01*
X-3100000Y-22050000D02*
X-3500000Y-21650000D01*
X-3500000Y-16450000D02*
X-3500000Y-21650000D01*
X-3500000Y-16450000D02*
X-3100000Y-16050000D01*
X0Y-16050000D02*
X-3100000Y-16050000D01*
X-3100000Y-22050000D02*
X-3100000Y-16050000D01*
X0Y-11850000D02*
X0Y-350000D01*
X0Y-350000D02*
X14200000Y-350000D01*
X14200000Y-350000D02*
X14200000Y-11850000D01*
X0Y-11850000D02*
X14200000Y-11850000D01*
X0Y-9350000D02*
X-3100000Y-9350000D01*
X-3100000Y-9350000D02*
X-3500000Y-8950000D01*
X-3500000Y-3750000D02*
X-3500000Y-8950000D01*
X-3500000Y-3750000D02*
X-3100000Y-3350000D01*
X0Y-3350000D02*
X-3100000Y-3350000D01*
X-3100000Y-9350000D02*
X-3100000Y-3350000D01*
X33020000Y-14545000D02*
X22860000Y-14545000D01*
X33020000Y-32445000D02*
X33020000Y-14545000D01*
X22860000Y-32445000D02*
X33020000Y-32445000D01*
X22860000Y-14545000D02*
X22860000Y-32445000D01*
X24765000Y-15605000D02*
X25765000Y-14605000D01*
X24765000Y-32385000D02*
X24765000Y-15605000D01*
X31115000Y-32385000D02*
X24765000Y-32385000D01*
X31115000Y-14605000D02*
X31115000Y-32385000D01*
X25765000Y-14605000D02*
X31115000Y-14605000D01*
X30415000Y-100985000D02*
X30415000Y-74005000D01*
X39315000Y-100985000D02*
X30415000Y-100985000D01*
X39315000Y-73005000D02*
X39315000Y-100985000D01*
X31415000Y-73005000D02*
X39315000Y-73005000D01*
X25715000Y-96205000D02*
X30415000Y-96205000D01*
X25715000Y-95565000D02*
X25715000Y-96205000D01*
X30415000Y-95565000D02*
X25715000Y-95565000D01*
X25715000Y-93665000D02*
X30415000Y-93665000D01*
X25715000Y-93025000D02*
X25715000Y-93665000D01*
X30415000Y-93025000D02*
X25715000Y-93025000D01*
X25715000Y-91125000D02*
X30415000Y-91125000D01*
X25715000Y-90485000D02*
X25715000Y-91125000D01*
X30415000Y-90485000D02*
X25715000Y-90485000D01*
X25715000Y-88585000D02*
X30415000Y-88585000D01*
X25715000Y-87945000D02*
X25715000Y-88585000D01*
X30415000Y-87945000D02*
X25715000Y-87945000D01*
X25715000Y-86045000D02*
X30415000Y-86045000D01*
X25715000Y-85405000D02*
X25715000Y-86045000D01*
X30415000Y-85405000D02*
X25715000Y-85405000D01*
X25715000Y-83505000D02*
X30415000Y-83505000D01*
X25715000Y-82865000D02*
X25715000Y-83505000D01*
X30415000Y-82865000D02*
X25715000Y-82865000D01*
X25715000Y-80965000D02*
X30415000Y-80965000D01*
X25715000Y-80325000D02*
X25715000Y-80965000D01*
X30415000Y-80325000D02*
X25715000Y-80325000D01*
X25715000Y-78425000D02*
X30415000Y-78425000D01*
X25715000Y-77785000D02*
X25715000Y-78425000D01*
X30415000Y-77785000D02*
X25715000Y-77785000D01*
X30415000Y-89045000D02*
X39315000Y-89045000D01*
X30415000Y-84945000D02*
X39315000Y-84945000D01*
X30415000Y-74005000D02*
X31415000Y-73005000D01*
X36175000Y-24495000D02*
X36175000Y-17495000D01*
X33675000Y-24495000D02*
X36175000Y-24495000D01*
X33675000Y-17495000D02*
X33675000Y-24495000D01*
X36175000Y-17495000D02*
X33675000Y-17495000D01*
X19705000Y-17495000D02*
X19705000Y-24495000D01*
X22205000Y-17495000D02*
X19705000Y-17495000D01*
X22205000Y-24495000D02*
X22205000Y-17495000D01*
X19705000Y-24495000D02*
X22205000Y-24495000D01*
X32887605Y-69917500D02*
X32887605Y-69417500D01*
X33137605Y-69667500D02*
X32637605Y-69667500D01*
X33504000Y-68580000D02*
G75*
G03*
X33504000Y-68580000I-2500000J0D01*
G01*
X26791605Y-69917500D02*
X26791605Y-69417500D01*
X27041605Y-69667500D02*
X26541605Y-69667500D01*
X27408000Y-68580000D02*
G75*
G03*
X27408000Y-68580000I-2500000J0D01*
G01*
M02*
