G04 #@! TF.GenerationSoftware,KiCad,Pcbnew,(5.1.10)-1*
G04 #@! TF.CreationDate,2021-09-02T21:11:49+02:00*
G04 #@! TF.ProjectId,Buffered Multiple Main,42756666-6572-4656-9420-4d756c746970,rev?*
G04 #@! TF.SameCoordinates,Original*
G04 #@! TF.FileFunction,Soldermask,Bot*
G04 #@! TF.FilePolarity,Negative*
%FSLAX46Y46*%
G04 Gerber Fmt 4.6, Leading zero omitted, Abs format (unit mm)*
G04 Created by KiCad (PCBNEW (5.1.10)-1) date 2021-09-02 21:11:49*
%MOMM*%
%LPD*%
G01*
G04 APERTURE LIST*
G04 #@! TA.AperFunction,Profile*
%ADD10C,0.050000*%
G04 #@! TD*
%ADD11O,1.600000X1.600000*%
%ADD12C,1.600000*%
%ADD13O,2.400000X1.600000*%
%ADD14R,2.400000X1.600000*%
%ADD15O,2.200000X2.200000*%
%ADD16R,2.200000X2.200000*%
%ADD17R,2.500000X1.500000*%
%ADD18R,1.800000X2.500000*%
%ADD19R,2.500000X1.800000*%
%ADD20C,1.700000*%
%ADD21R,1.600000X1.600000*%
G04 APERTURE END LIST*
D10*
X29845000Y-72390000D02*
X29845000Y-101600000D01*
X38100000Y-72390000D02*
X29845000Y-72390000D01*
X0Y-101600000D02*
X0Y0D01*
X29845000Y-101600000D02*
X0Y-101600000D01*
X38100000Y0D02*
X38100000Y-72390000D01*
X0Y0D02*
X38100000Y0D01*
D11*
X15875000Y-93980000D03*
D12*
X15875000Y-96520000D03*
D11*
X15875000Y-43180000D03*
D12*
X15875000Y-45720000D03*
D11*
X15875000Y-61595000D03*
D12*
X15875000Y-59055000D03*
D11*
X15875000Y-81915000D03*
D12*
X15875000Y-84455000D03*
D11*
X15875000Y-68580000D03*
D12*
X15875000Y-71120000D03*
D11*
X15875000Y-30480000D03*
D12*
X15875000Y-33020000D03*
D11*
X15875000Y-17780000D03*
D12*
X15875000Y-20320000D03*
D11*
X15875000Y-5080000D03*
D12*
X15875000Y-7620000D03*
D13*
X31750000Y-41910000D03*
X24130000Y-57150000D03*
X31750000Y-44450000D03*
X24130000Y-54610000D03*
X31750000Y-46990000D03*
X24130000Y-52070000D03*
X31750000Y-49530000D03*
X24130000Y-49530000D03*
X31750000Y-52070000D03*
X24130000Y-46990000D03*
X31750000Y-54610000D03*
X24130000Y-44450000D03*
X31750000Y-57150000D03*
D14*
X24130000Y-41910000D03*
D15*
X22860000Y-85725000D03*
D16*
X22860000Y-95885000D03*
D15*
X19558000Y-85725000D03*
D16*
X19558000Y-95885000D03*
D12*
X34925000Y-49530000D03*
X34925000Y-44530000D03*
X20955000Y-44530000D03*
X20955000Y-49530000D03*
D17*
X5900000Y-100485000D03*
X9600000Y-90685000D03*
D18*
X13000000Y-99985000D03*
D19*
X8600000Y-93285000D03*
D18*
X1700000Y-95885000D03*
D17*
X5900000Y-49050000D03*
X9600000Y-39250000D03*
D18*
X13000000Y-48550000D03*
D19*
X8600000Y-41850000D03*
D18*
X1700000Y-44450000D03*
D17*
X5900000Y-62512000D03*
X9600000Y-52712000D03*
D18*
X13000000Y-62012000D03*
D19*
X8600000Y-55312000D03*
D18*
X1700000Y-57912000D03*
D17*
X5900000Y-87785000D03*
X9600000Y-77985000D03*
D18*
X13000000Y-87285000D03*
D19*
X8600000Y-80585000D03*
D18*
X1700000Y-83185000D03*
D17*
X5900000Y-75100000D03*
X9600000Y-65300000D03*
D18*
X13000000Y-74600000D03*
D19*
X8600000Y-67900000D03*
D18*
X1700000Y-70500000D03*
D17*
X5900000Y-36350000D03*
X9600000Y-26550000D03*
D18*
X13000000Y-35850000D03*
D19*
X8600000Y-29150000D03*
D18*
X1700000Y-31750000D03*
D17*
X5900000Y-23650000D03*
X9600000Y-13850000D03*
D18*
X13000000Y-23150000D03*
D19*
X8600000Y-16450000D03*
D18*
X1700000Y-19050000D03*
D17*
X5900000Y-10950000D03*
X9600000Y-1150000D03*
D18*
X13000000Y-10450000D03*
D19*
X8600000Y-3750000D03*
D18*
X1700000Y-6350000D03*
D13*
X31750000Y-15875000D03*
X24130000Y-31115000D03*
X31750000Y-18415000D03*
X24130000Y-28575000D03*
X31750000Y-20955000D03*
X24130000Y-26035000D03*
X31750000Y-23495000D03*
X24130000Y-23495000D03*
X31750000Y-26035000D03*
X24130000Y-20955000D03*
X31750000Y-28575000D03*
X24130000Y-18415000D03*
X31750000Y-31115000D03*
D14*
X24130000Y-15875000D03*
D20*
X28575000Y-95885000D03*
X28575000Y-93345000D03*
X28575000Y-90805000D03*
X28575000Y-88265000D03*
X28575000Y-85725000D03*
X28575000Y-83185000D03*
X28575000Y-80645000D03*
X28575000Y-78105000D03*
X26035000Y-95885000D03*
X26035000Y-93345000D03*
X26035000Y-90805000D03*
X26035000Y-88265000D03*
X26035000Y-85725000D03*
X26035000Y-83185000D03*
X26035000Y-80645000D03*
G36*
G01*
X25185000Y-78705000D02*
X25185000Y-77505000D01*
G75*
G02*
X25435000Y-77255000I250000J0D01*
G01*
X26635000Y-77255000D01*
G75*
G02*
X26885000Y-77505000I0J-250000D01*
G01*
X26885000Y-78705000D01*
G75*
G02*
X26635000Y-78955000I-250000J0D01*
G01*
X25435000Y-78955000D01*
G75*
G02*
X25185000Y-78705000I0J250000D01*
G01*
G37*
D12*
X34925000Y-23495000D03*
X34925000Y-18495000D03*
X20955000Y-18495000D03*
X20955000Y-23495000D03*
X30004000Y-68580000D03*
D21*
X32004000Y-68580000D03*
D12*
X23908000Y-68580000D03*
D21*
X25908000Y-68580000D03*
M02*
