M48
; DRILL file {KiCad (5.1.10)-1} date 09/02/21 21:11:45
; FORMAT={-:-/ absolute / metric / decimal}
; #@! TF.CreationDate,2021-09-02T21:11:45+02:00
; #@! TF.GenerationSoftware,Kicad,Pcbnew,(5.1.10)-1
; #@! TF.FileFunction,Plated,1,2,PTH
FMAT,2
METRIC
T1C0.400
T2C0.500
T3C0.800
T4C1.000
T5C1.100
%
G90
G05
T1
X15.875Y-15.875
X15.875Y-52.07
X17.78Y-45.72
X18.415Y-32.385
X18.415Y-43.18
X19.05Y-57.15
X20.32Y-58.42
X26.035Y-7.62
X26.035Y-20.955
X26.035Y-26.035
X26.055Y-47.01
X26.055Y-52.05
X26.67Y-74.295
X27.305Y-23.495
X27.305Y-49.53
X27.94Y-71.12
X28.575Y-23.495
X28.575Y-49.53
T3
X15.875Y-5.08
X15.875Y-7.62
X15.875Y-17.78
X15.875Y-20.32
X15.875Y-30.48
X15.875Y-33.02
X15.875Y-43.18
X15.875Y-45.72
X15.875Y-59.055
X15.875Y-61.595
X15.875Y-68.58
X15.875Y-71.12
X15.875Y-81.915
X15.875Y-84.455
X15.875Y-93.98
X15.875Y-96.52
X20.955Y-18.495
X20.955Y-23.495
X20.955Y-44.53
X20.955Y-49.53
X23.908Y-68.58
X24.13Y-15.875
X24.13Y-18.415
X24.13Y-20.955
X24.13Y-23.495
X24.13Y-26.035
X24.13Y-28.575
X24.13Y-31.115
X24.13Y-41.91
X24.13Y-44.45
X24.13Y-46.99
X24.13Y-49.53
X24.13Y-52.07
X24.13Y-54.61
X24.13Y-57.15
X25.908Y-68.58
X30.004Y-68.58
X31.75Y-15.875
X31.75Y-18.415
X31.75Y-20.955
X31.75Y-23.495
X31.75Y-26.035
X31.75Y-28.575
X31.75Y-31.115
X31.75Y-41.91
X31.75Y-44.45
X31.75Y-46.99
X31.75Y-49.53
X31.75Y-52.07
X31.75Y-54.61
X31.75Y-57.15
X32.004Y-68.58
X34.925Y-18.495
X34.925Y-23.495
X34.925Y-44.53
X34.925Y-49.53
T4
X26.035Y-78.105
X26.035Y-80.645
X26.035Y-83.185
X26.035Y-85.725
X26.035Y-88.265
X26.035Y-90.805
X26.035Y-93.345
X26.035Y-95.885
X28.575Y-78.105
X28.575Y-80.645
X28.575Y-83.185
X28.575Y-85.725
X28.575Y-88.265
X28.575Y-90.805
X28.575Y-93.345
X28.575Y-95.885
T5
X19.558Y-85.725
X19.558Y-95.885
X22.86Y-85.725
X22.86Y-95.885
T2
G00X5.4Y-10.95
M15
G01X6.4Y-10.95
M16
G05
G00X5.4Y-23.65
M15
G01X6.4Y-23.65
M16
G05
G00X5.4Y-36.35
M15
G01X6.4Y-36.35
M16
G05
G00X5.4Y-49.05
M15
G01X6.4Y-49.05
M16
G05
G00X5.4Y-62.512
M15
G01X6.4Y-62.512
M16
G05
G00X5.4Y-75.1
M15
G01X6.4Y-75.1
M16
G05
G00X5.4Y-87.785
M15
G01X6.4Y-87.785
M16
G05
G00X5.4Y-100.485
M15
G01X6.4Y-100.485
M16
G05
G00X9.1Y-1.15
M15
G01X10.1Y-1.15
M16
G05
G00X9.1Y-13.85
M15
G01X10.1Y-13.85
M16
G05
G00X9.1Y-26.55
M15
G01X10.1Y-26.55
M16
G05
G00X9.1Y-39.25
M15
G01X10.1Y-39.25
M16
G05
G00X9.1Y-52.712
M15
G01X10.1Y-52.712
M16
G05
G00X9.1Y-65.3
M15
G01X10.1Y-65.3
M16
G05
G00X9.1Y-77.985
M15
G01X10.1Y-77.985
M16
G05
G00X9.1Y-90.685
M15
G01X10.1Y-90.685
M16
G05
T3
G00X1.7Y-6.0
M15
G01X1.7Y-6.7
M16
G05
G00X1.7Y-18.7
M15
G01X1.7Y-19.4
M16
G05
G00X1.7Y-31.4
M15
G01X1.7Y-32.1
M16
G05
G00X1.7Y-44.1
M15
G01X1.7Y-44.8
M16
G05
G00X1.7Y-57.562
M15
G01X1.7Y-58.262
M16
G05
G00X1.7Y-70.15
M15
G01X1.7Y-70.85
M16
G05
G00X1.7Y-82.835
M15
G01X1.7Y-83.535
M16
G05
G00X1.7Y-95.535
M15
G01X1.7Y-96.235
M16
G05
G00X8.25Y-3.75
M15
G01X8.95Y-3.75
M16
G05
G00X8.25Y-16.45
M15
G01X8.95Y-16.45
M16
G05
G00X8.25Y-29.15
M15
G01X8.95Y-29.15
M16
G05
G00X8.25Y-41.85
M15
G01X8.95Y-41.85
M16
G05
G00X8.25Y-55.312
M15
G01X8.95Y-55.312
M16
G05
G00X8.25Y-67.9
M15
G01X8.95Y-67.9
M16
G05
G00X8.25Y-80.585
M15
G01X8.95Y-80.585
M16
G05
G00X8.25Y-93.285
M15
G01X8.95Y-93.285
M16
G05
G00X13.0Y-10.1
M15
G01X13.0Y-10.8
M16
G05
G00X13.0Y-22.8
M15
G01X13.0Y-23.5
M16
G05
G00X13.0Y-35.5
M15
G01X13.0Y-36.2
M16
G05
G00X13.0Y-48.2
M15
G01X13.0Y-48.9
M16
G05
G00X13.0Y-61.662
M15
G01X13.0Y-62.362
M16
G05
G00X13.0Y-74.25
M15
G01X13.0Y-74.95
M16
G05
G00X13.0Y-86.935
M15
G01X13.0Y-87.635
M16
G05
G00X13.0Y-99.635
M15
G01X13.0Y-100.335
M16
G05
T0
M30
