G04 #@! TF.GenerationSoftware,KiCad,Pcbnew,(5.1.10)-1*
G04 #@! TF.CreationDate,2021-09-02T21:11:48+02:00*
G04 #@! TF.ProjectId,Buffered Multiple Main,42756666-6572-4656-9420-4d756c746970,rev?*
G04 #@! TF.SameCoordinates,Original*
G04 #@! TF.FileFunction,Copper,L1,Top*
G04 #@! TF.FilePolarity,Positive*
%FSLAX46Y46*%
G04 Gerber Fmt 4.6, Leading zero omitted, Abs format (unit mm)*
G04 Created by KiCad (PCBNEW (5.1.10)-1) date 2021-09-02 21:11:48*
%MOMM*%
%LPD*%
G01*
G04 APERTURE LIST*
G04 #@! TA.AperFunction,Profile*
%ADD10C,0.050000*%
G04 #@! TD*
G04 #@! TA.AperFunction,ComponentPad*
%ADD11O,1.600000X1.600000*%
G04 #@! TD*
G04 #@! TA.AperFunction,ComponentPad*
%ADD12C,1.600000*%
G04 #@! TD*
G04 #@! TA.AperFunction,ComponentPad*
%ADD13O,2.400000X1.600000*%
G04 #@! TD*
G04 #@! TA.AperFunction,ComponentPad*
%ADD14R,2.400000X1.600000*%
G04 #@! TD*
G04 #@! TA.AperFunction,ComponentPad*
%ADD15O,2.200000X2.200000*%
G04 #@! TD*
G04 #@! TA.AperFunction,ComponentPad*
%ADD16R,2.200000X2.200000*%
G04 #@! TD*
G04 #@! TA.AperFunction,ComponentPad*
%ADD17R,2.500000X1.500000*%
G04 #@! TD*
G04 #@! TA.AperFunction,ComponentPad*
%ADD18R,1.800000X2.500000*%
G04 #@! TD*
G04 #@! TA.AperFunction,ComponentPad*
%ADD19R,2.500000X1.800000*%
G04 #@! TD*
G04 #@! TA.AperFunction,ComponentPad*
%ADD20C,1.700000*%
G04 #@! TD*
G04 #@! TA.AperFunction,ComponentPad*
%ADD21R,1.600000X1.600000*%
G04 #@! TD*
G04 #@! TA.AperFunction,ViaPad*
%ADD22C,0.800000*%
G04 #@! TD*
G04 #@! TA.AperFunction,Conductor*
%ADD23C,0.250000*%
G04 #@! TD*
G04 #@! TA.AperFunction,Conductor*
%ADD24C,0.254000*%
G04 #@! TD*
G04 #@! TA.AperFunction,Conductor*
%ADD25C,0.100000*%
G04 #@! TD*
G04 APERTURE END LIST*
D10*
X29845000Y-72390000D02*
X29845000Y-101600000D01*
X38100000Y-72390000D02*
X29845000Y-72390000D01*
X0Y-101600000D02*
X0Y0D01*
X29845000Y-101600000D02*
X0Y-101600000D01*
X38100000Y0D02*
X38100000Y-72390000D01*
X0Y0D02*
X38100000Y0D01*
D11*
X15875000Y-93980000D03*
D12*
X15875000Y-96520000D03*
D11*
X15875000Y-43180000D03*
D12*
X15875000Y-45720000D03*
D11*
X15875000Y-61595000D03*
D12*
X15875000Y-59055000D03*
D11*
X15875000Y-81915000D03*
D12*
X15875000Y-84455000D03*
D11*
X15875000Y-68580000D03*
D12*
X15875000Y-71120000D03*
D11*
X15875000Y-30480000D03*
D12*
X15875000Y-33020000D03*
D11*
X15875000Y-17780000D03*
D12*
X15875000Y-20320000D03*
D11*
X15875000Y-5080000D03*
D12*
X15875000Y-7620000D03*
D13*
X31750000Y-41910000D03*
X24130000Y-57150000D03*
X31750000Y-44450000D03*
X24130000Y-54610000D03*
X31750000Y-46990000D03*
X24130000Y-52070000D03*
X31750000Y-49530000D03*
X24130000Y-49530000D03*
X31750000Y-52070000D03*
X24130000Y-46990000D03*
X31750000Y-54610000D03*
X24130000Y-44450000D03*
X31750000Y-57150000D03*
D14*
X24130000Y-41910000D03*
D15*
X22860000Y-85725000D03*
D16*
X22860000Y-95885000D03*
D15*
X19558000Y-85725000D03*
D16*
X19558000Y-95885000D03*
D12*
X34925000Y-49530000D03*
X34925000Y-44530000D03*
X20955000Y-44530000D03*
X20955000Y-49530000D03*
D17*
X5900000Y-100485000D03*
X9600000Y-90685000D03*
D18*
X13000000Y-99985000D03*
D19*
X8600000Y-93285000D03*
D18*
X1700000Y-95885000D03*
D17*
X5900000Y-49050000D03*
X9600000Y-39250000D03*
D18*
X13000000Y-48550000D03*
D19*
X8600000Y-41850000D03*
D18*
X1700000Y-44450000D03*
D17*
X5900000Y-62512000D03*
X9600000Y-52712000D03*
D18*
X13000000Y-62012000D03*
D19*
X8600000Y-55312000D03*
D18*
X1700000Y-57912000D03*
D17*
X5900000Y-87785000D03*
X9600000Y-77985000D03*
D18*
X13000000Y-87285000D03*
D19*
X8600000Y-80585000D03*
D18*
X1700000Y-83185000D03*
D17*
X5900000Y-75100000D03*
X9600000Y-65300000D03*
D18*
X13000000Y-74600000D03*
D19*
X8600000Y-67900000D03*
D18*
X1700000Y-70500000D03*
D17*
X5900000Y-36350000D03*
X9600000Y-26550000D03*
D18*
X13000000Y-35850000D03*
D19*
X8600000Y-29150000D03*
D18*
X1700000Y-31750000D03*
D17*
X5900000Y-23650000D03*
X9600000Y-13850000D03*
D18*
X13000000Y-23150000D03*
D19*
X8600000Y-16450000D03*
D18*
X1700000Y-19050000D03*
D17*
X5900000Y-10950000D03*
X9600000Y-1150000D03*
D18*
X13000000Y-10450000D03*
D19*
X8600000Y-3750000D03*
D18*
X1700000Y-6350000D03*
D13*
X31750000Y-15875000D03*
X24130000Y-31115000D03*
X31750000Y-18415000D03*
X24130000Y-28575000D03*
X31750000Y-20955000D03*
X24130000Y-26035000D03*
X31750000Y-23495000D03*
X24130000Y-23495000D03*
X31750000Y-26035000D03*
X24130000Y-20955000D03*
X31750000Y-28575000D03*
X24130000Y-18415000D03*
X31750000Y-31115000D03*
D14*
X24130000Y-15875000D03*
D20*
X28575000Y-95885000D03*
X28575000Y-93345000D03*
X28575000Y-90805000D03*
X28575000Y-88265000D03*
X28575000Y-85725000D03*
X28575000Y-83185000D03*
X28575000Y-80645000D03*
X28575000Y-78105000D03*
X26035000Y-95885000D03*
X26035000Y-93345000D03*
X26035000Y-90805000D03*
X26035000Y-88265000D03*
X26035000Y-85725000D03*
X26035000Y-83185000D03*
X26035000Y-80645000D03*
G04 #@! TA.AperFunction,ComponentPad*
G36*
G01*
X25185000Y-78705000D02*
X25185000Y-77505000D01*
G75*
G02*
X25435000Y-77255000I250000J0D01*
G01*
X26635000Y-77255000D01*
G75*
G02*
X26885000Y-77505000I0J-250000D01*
G01*
X26885000Y-78705000D01*
G75*
G02*
X26635000Y-78955000I-250000J0D01*
G01*
X25435000Y-78955000D01*
G75*
G02*
X25185000Y-78705000I0J250000D01*
G01*
G37*
G04 #@! TD.AperFunction*
D12*
X34925000Y-23495000D03*
X34925000Y-18495000D03*
X20955000Y-18495000D03*
X20955000Y-23495000D03*
X30004000Y-68580000D03*
D21*
X32004000Y-68580000D03*
D12*
X23908000Y-68580000D03*
D21*
X25908000Y-68580000D03*
D22*
X26670000Y-74295000D03*
X27940000Y-71120000D03*
X27305000Y-23495000D03*
X27305000Y-49530000D03*
X28575000Y-23495000D03*
X28575000Y-49530000D03*
X26035000Y-26035000D03*
X26035000Y-20955000D03*
X26035000Y-7620000D03*
X15875000Y-15875000D03*
X17780000Y-45720000D03*
X19050000Y-57150000D03*
X26055000Y-52050000D03*
X26055000Y-47010000D03*
X15875000Y-52070000D03*
X18415000Y-32385000D03*
X18415000Y-43180000D03*
X20320000Y-58420000D03*
D23*
X19558000Y-95885000D02*
X19558000Y-92456000D01*
X19558000Y-92456000D02*
X21209000Y-90805000D01*
X25908000Y-68580000D02*
X25908000Y-66167000D01*
X25908000Y-66167000D02*
X27305000Y-64770000D01*
X27305000Y-64770000D02*
X27305000Y-46355000D01*
X27305000Y-23495000D02*
X27305000Y-23495000D01*
X27305000Y-46355000D02*
X27305000Y-23495000D01*
X21209000Y-90805000D02*
X21209000Y-82931000D01*
X21209000Y-82931000D02*
X21209000Y-82804000D01*
X25908000Y-70612000D02*
X25908000Y-68580000D01*
X25400000Y-71120000D02*
X25908000Y-70612000D01*
X22860000Y-71120000D02*
X25400000Y-71120000D01*
X21209000Y-72771000D02*
X22860000Y-71120000D01*
X21209000Y-82931000D02*
X21209000Y-72771000D01*
X30004000Y-68580000D02*
X30004000Y-66199000D01*
X30004000Y-66199000D02*
X28575000Y-64770000D01*
X28575000Y-64770000D02*
X28575000Y-46355000D01*
X28575000Y-23495000D02*
X28575000Y-23495000D01*
X28575000Y-46355000D02*
X28575000Y-23495000D01*
X30004000Y-71596000D02*
X30004000Y-68580000D01*
X29210000Y-72390000D02*
X30004000Y-71596000D01*
X23495000Y-72390000D02*
X29210000Y-72390000D01*
X22860000Y-73025000D02*
X23495000Y-72390000D01*
X22860000Y-85725000D02*
X22860000Y-73025000D01*
X13345000Y-62865000D02*
X13000000Y-62520000D01*
X26035000Y-26035000D02*
X26035000Y-20955000D01*
X26035000Y-20955000D02*
X26035000Y-20955000D01*
X26035000Y-20955000D02*
X26035000Y-7620000D01*
X26035000Y-7620000D02*
X26035000Y-7620000D01*
X13000000Y-58720000D02*
X13000000Y-62012000D01*
X12065000Y-57785000D02*
X13000000Y-58720000D01*
X4445000Y-57785000D02*
X12065000Y-57785000D01*
X3810000Y-57150000D02*
X4445000Y-57785000D01*
X3810000Y-15240000D02*
X3810000Y-57150000D01*
X5900000Y-13150000D02*
X3810000Y-15240000D01*
X5900000Y-10950000D02*
X5900000Y-13150000D01*
X24130000Y-15875000D02*
X24130000Y-18415000D01*
X15875000Y-15875000D02*
X15875000Y-17780000D01*
X24130000Y-28575000D02*
X24130000Y-31115000D01*
X24130000Y-41890000D02*
X24130000Y-44430000D01*
X15875000Y-68580000D02*
X15875000Y-66675000D01*
X15875000Y-66675000D02*
X17780000Y-64770000D01*
X17780000Y-64770000D02*
X17780000Y-45720000D01*
X17780000Y-45720000D02*
X17780000Y-45720000D01*
X24130000Y-54590000D02*
X24130000Y-57130000D01*
X15875000Y-79375000D02*
X15875000Y-81915000D01*
X15875000Y-74295000D02*
X15875000Y-79375000D01*
X19050000Y-71120000D02*
X15875000Y-74295000D01*
X19050000Y-57150000D02*
X19050000Y-71120000D01*
X26055000Y-52050000D02*
X26055000Y-47010000D01*
X26055000Y-47010000D02*
X26055000Y-47010000D01*
X15875000Y-59055000D02*
X15875000Y-52070000D01*
X15875000Y-52070000D02*
X15875000Y-52070000D01*
X31750000Y-28575000D02*
X31750000Y-31115000D01*
X18415000Y-32385000D02*
X18415000Y-43180000D01*
X18415000Y-43180000D02*
X18415000Y-43180000D01*
X31750000Y-54590000D02*
X31750000Y-57130000D01*
X20320000Y-66675000D02*
X20320000Y-58420000D01*
X20320000Y-71120000D02*
X20320000Y-66675000D01*
X17780000Y-73660000D02*
X20320000Y-71120000D01*
X17780000Y-85725000D02*
X17780000Y-73660000D01*
X15875000Y-87630000D02*
X17780000Y-85725000D01*
X15875000Y-93980000D02*
X15875000Y-87630000D01*
D24*
X7711928Y-1900000D02*
X7724188Y-2024482D01*
X7760498Y-2144180D01*
X7796711Y-2211928D01*
X7350000Y-2211928D01*
X7225518Y-2224188D01*
X7105820Y-2260498D01*
X6995506Y-2319463D01*
X6898815Y-2398815D01*
X6819463Y-2495506D01*
X6760498Y-2605820D01*
X6724188Y-2725518D01*
X6711928Y-2850000D01*
X6711928Y-4650000D01*
X6724188Y-4774482D01*
X6760498Y-4894180D01*
X6819463Y-5004494D01*
X6898815Y-5101185D01*
X6995506Y-5180537D01*
X7105820Y-5239502D01*
X7225518Y-5275812D01*
X7350000Y-5288072D01*
X9850000Y-5288072D01*
X9974482Y-5275812D01*
X10094180Y-5239502D01*
X10204494Y-5180537D01*
X10301185Y-5101185D01*
X10380537Y-5004494D01*
X10439502Y-4894180D01*
X10475812Y-4774482D01*
X10480098Y-4730960D01*
X14483091Y-4730960D01*
X14604376Y-4953000D01*
X15748000Y-4953000D01*
X15748000Y-3810085D01*
X16002000Y-3810085D01*
X16002000Y-4953000D01*
X17145624Y-4953000D01*
X17266909Y-4730960D01*
X17172070Y-4466119D01*
X17027385Y-4224869D01*
X16838414Y-4016481D01*
X16612420Y-3848963D01*
X16358087Y-3728754D01*
X16224039Y-3688096D01*
X16002000Y-3810085D01*
X15748000Y-3810085D01*
X15525961Y-3688096D01*
X15391913Y-3728754D01*
X15137580Y-3848963D01*
X14911586Y-4016481D01*
X14722615Y-4224869D01*
X14577930Y-4466119D01*
X14483091Y-4730960D01*
X10480098Y-4730960D01*
X10488072Y-4650000D01*
X10488072Y-2850000D01*
X10475812Y-2725518D01*
X10439502Y-2605820D01*
X10403289Y-2538072D01*
X10850000Y-2538072D01*
X10974482Y-2525812D01*
X11094180Y-2489502D01*
X11204494Y-2430537D01*
X11301185Y-2351185D01*
X11380537Y-2254494D01*
X11439502Y-2144180D01*
X11475812Y-2024482D01*
X11488072Y-1900000D01*
X11488072Y-660000D01*
X37440000Y-660000D01*
X37440001Y-71730000D01*
X30754479Y-71730000D01*
X30764000Y-71633333D01*
X30764000Y-71633332D01*
X30767677Y-71596000D01*
X30764000Y-71558667D01*
X30764000Y-69840364D01*
X30849506Y-69910537D01*
X30959820Y-69969502D01*
X31079518Y-70005812D01*
X31204000Y-70018072D01*
X31718250Y-70015000D01*
X31877000Y-69856250D01*
X31877000Y-68707000D01*
X32131000Y-68707000D01*
X32131000Y-69856250D01*
X32289750Y-70015000D01*
X32804000Y-70018072D01*
X32928482Y-70005812D01*
X33048180Y-69969502D01*
X33158494Y-69910537D01*
X33255185Y-69831185D01*
X33334537Y-69734494D01*
X33393502Y-69624180D01*
X33429812Y-69504482D01*
X33442072Y-69380000D01*
X33439000Y-68865750D01*
X33280250Y-68707000D01*
X32131000Y-68707000D01*
X31877000Y-68707000D01*
X31857000Y-68707000D01*
X31857000Y-68453000D01*
X31877000Y-68453000D01*
X31877000Y-67303750D01*
X32131000Y-67303750D01*
X32131000Y-68453000D01*
X33280250Y-68453000D01*
X33439000Y-68294250D01*
X33442072Y-67780000D01*
X33429812Y-67655518D01*
X33393502Y-67535820D01*
X33334537Y-67425506D01*
X33255185Y-67328815D01*
X33158494Y-67249463D01*
X33048180Y-67190498D01*
X32928482Y-67154188D01*
X32804000Y-67141928D01*
X32289750Y-67145000D01*
X32131000Y-67303750D01*
X31877000Y-67303750D01*
X31718250Y-67145000D01*
X31204000Y-67141928D01*
X31079518Y-67154188D01*
X30959820Y-67190498D01*
X30849506Y-67249463D01*
X30764000Y-67319636D01*
X30764000Y-66236322D01*
X30767676Y-66198999D01*
X30764000Y-66161676D01*
X30764000Y-66161667D01*
X30753003Y-66050014D01*
X30709546Y-65906753D01*
X30638974Y-65774724D01*
X30544001Y-65658999D01*
X30515003Y-65635201D01*
X29335000Y-64455199D01*
X29335000Y-50233711D01*
X29378937Y-50189774D01*
X29492205Y-50020256D01*
X29570226Y-49831898D01*
X29610000Y-49631939D01*
X29610000Y-49428061D01*
X29570226Y-49228102D01*
X29492205Y-49039744D01*
X29378937Y-48870226D01*
X29335000Y-48826289D01*
X29335000Y-41910000D01*
X29908057Y-41910000D01*
X29935764Y-42191309D01*
X30017818Y-42461808D01*
X30151068Y-42711101D01*
X30330392Y-42929608D01*
X30548899Y-43108932D01*
X30681858Y-43180000D01*
X30548899Y-43251068D01*
X30330392Y-43430392D01*
X30151068Y-43648899D01*
X30017818Y-43898192D01*
X29935764Y-44168691D01*
X29908057Y-44450000D01*
X29935764Y-44731309D01*
X30017818Y-45001808D01*
X30151068Y-45251101D01*
X30330392Y-45469608D01*
X30548899Y-45648932D01*
X30681858Y-45720000D01*
X30548899Y-45791068D01*
X30330392Y-45970392D01*
X30151068Y-46188899D01*
X30017818Y-46438192D01*
X29935764Y-46708691D01*
X29908057Y-46990000D01*
X29935764Y-47271309D01*
X30017818Y-47541808D01*
X30151068Y-47791101D01*
X30330392Y-48009608D01*
X30548899Y-48188932D01*
X30681858Y-48260000D01*
X30548899Y-48331068D01*
X30330392Y-48510392D01*
X30151068Y-48728899D01*
X30017818Y-48978192D01*
X29935764Y-49248691D01*
X29908057Y-49530000D01*
X29935764Y-49811309D01*
X30017818Y-50081808D01*
X30151068Y-50331101D01*
X30330392Y-50549608D01*
X30548899Y-50728932D01*
X30681858Y-50800000D01*
X30548899Y-50871068D01*
X30330392Y-51050392D01*
X30151068Y-51268899D01*
X30017818Y-51518192D01*
X29935764Y-51788691D01*
X29908057Y-52070000D01*
X29935764Y-52351309D01*
X30017818Y-52621808D01*
X30151068Y-52871101D01*
X30330392Y-53089608D01*
X30548899Y-53268932D01*
X30681858Y-53340000D01*
X30548899Y-53411068D01*
X30330392Y-53590392D01*
X30151068Y-53808899D01*
X30017818Y-54058192D01*
X29935764Y-54328691D01*
X29908057Y-54610000D01*
X29935764Y-54891309D01*
X30017818Y-55161808D01*
X30151068Y-55411101D01*
X30330392Y-55629608D01*
X30548899Y-55808932D01*
X30681858Y-55880000D01*
X30548899Y-55951068D01*
X30330392Y-56130392D01*
X30151068Y-56348899D01*
X30017818Y-56598192D01*
X29935764Y-56868691D01*
X29908057Y-57150000D01*
X29935764Y-57431309D01*
X30017818Y-57701808D01*
X30151068Y-57951101D01*
X30330392Y-58169608D01*
X30548899Y-58348932D01*
X30798192Y-58482182D01*
X31068691Y-58564236D01*
X31279508Y-58585000D01*
X32220492Y-58585000D01*
X32431309Y-58564236D01*
X32701808Y-58482182D01*
X32951101Y-58348932D01*
X33169608Y-58169608D01*
X33348932Y-57951101D01*
X33482182Y-57701808D01*
X33564236Y-57431309D01*
X33591943Y-57150000D01*
X33564236Y-56868691D01*
X33482182Y-56598192D01*
X33348932Y-56348899D01*
X33169608Y-56130392D01*
X32951101Y-55951068D01*
X32818142Y-55880000D01*
X32951101Y-55808932D01*
X33169608Y-55629608D01*
X33348932Y-55411101D01*
X33482182Y-55161808D01*
X33564236Y-54891309D01*
X33591943Y-54610000D01*
X33564236Y-54328691D01*
X33482182Y-54058192D01*
X33348932Y-53808899D01*
X33169608Y-53590392D01*
X32951101Y-53411068D01*
X32818142Y-53340000D01*
X32951101Y-53268932D01*
X33169608Y-53089608D01*
X33348932Y-52871101D01*
X33482182Y-52621808D01*
X33564236Y-52351309D01*
X33591943Y-52070000D01*
X33564236Y-51788691D01*
X33482182Y-51518192D01*
X33348932Y-51268899D01*
X33169608Y-51050392D01*
X32951101Y-50871068D01*
X32818142Y-50800000D01*
X32951101Y-50728932D01*
X33169608Y-50549608D01*
X33348932Y-50331101D01*
X33482182Y-50081808D01*
X33536217Y-49903678D01*
X33545147Y-49948574D01*
X33653320Y-50209727D01*
X33810363Y-50444759D01*
X34010241Y-50644637D01*
X34245273Y-50801680D01*
X34506426Y-50909853D01*
X34783665Y-50965000D01*
X35066335Y-50965000D01*
X35343574Y-50909853D01*
X35604727Y-50801680D01*
X35839759Y-50644637D01*
X36039637Y-50444759D01*
X36196680Y-50209727D01*
X36304853Y-49948574D01*
X36360000Y-49671335D01*
X36360000Y-49388665D01*
X36304853Y-49111426D01*
X36196680Y-48850273D01*
X36039637Y-48615241D01*
X35839759Y-48415363D01*
X35604727Y-48258320D01*
X35343574Y-48150147D01*
X35066335Y-48095000D01*
X34783665Y-48095000D01*
X34506426Y-48150147D01*
X34245273Y-48258320D01*
X34010241Y-48415363D01*
X33810363Y-48615241D01*
X33653320Y-48850273D01*
X33545147Y-49111426D01*
X33536217Y-49156322D01*
X33482182Y-48978192D01*
X33348932Y-48728899D01*
X33169608Y-48510392D01*
X32951101Y-48331068D01*
X32818142Y-48260000D01*
X32951101Y-48188932D01*
X33169608Y-48009608D01*
X33348932Y-47791101D01*
X33482182Y-47541808D01*
X33564236Y-47271309D01*
X33591943Y-46990000D01*
X33564236Y-46708691D01*
X33482182Y-46438192D01*
X33348932Y-46188899D01*
X33169608Y-45970392D01*
X32951101Y-45791068D01*
X32818142Y-45720000D01*
X32951101Y-45648932D01*
X33104912Y-45522702D01*
X34111903Y-45522702D01*
X34183486Y-45766671D01*
X34438996Y-45887571D01*
X34713184Y-45956300D01*
X34995512Y-45970217D01*
X35275130Y-45928787D01*
X35541292Y-45833603D01*
X35666514Y-45766671D01*
X35738097Y-45522702D01*
X34925000Y-44709605D01*
X34111903Y-45522702D01*
X33104912Y-45522702D01*
X33169608Y-45469608D01*
X33348932Y-45251101D01*
X33482182Y-45001808D01*
X33523876Y-44864359D01*
X33526213Y-44880130D01*
X33621397Y-45146292D01*
X33688329Y-45271514D01*
X33932298Y-45343097D01*
X34745395Y-44530000D01*
X35104605Y-44530000D01*
X35917702Y-45343097D01*
X36161671Y-45271514D01*
X36282571Y-45016004D01*
X36351300Y-44741816D01*
X36365217Y-44459488D01*
X36323787Y-44179870D01*
X36228603Y-43913708D01*
X36161671Y-43788486D01*
X35917702Y-43716903D01*
X35104605Y-44530000D01*
X34745395Y-44530000D01*
X33932298Y-43716903D01*
X33688329Y-43788486D01*
X33567429Y-44043996D01*
X33548870Y-44118035D01*
X33482182Y-43898192D01*
X33348932Y-43648899D01*
X33257344Y-43537298D01*
X34111903Y-43537298D01*
X34925000Y-44350395D01*
X35738097Y-43537298D01*
X35666514Y-43293329D01*
X35411004Y-43172429D01*
X35136816Y-43103700D01*
X34854488Y-43089783D01*
X34574870Y-43131213D01*
X34308708Y-43226397D01*
X34183486Y-43293329D01*
X34111903Y-43537298D01*
X33257344Y-43537298D01*
X33169608Y-43430392D01*
X32951101Y-43251068D01*
X32818142Y-43180000D01*
X32951101Y-43108932D01*
X33169608Y-42929608D01*
X33348932Y-42711101D01*
X33482182Y-42461808D01*
X33564236Y-42191309D01*
X33591943Y-41910000D01*
X33564236Y-41628691D01*
X33482182Y-41358192D01*
X33348932Y-41108899D01*
X33169608Y-40890392D01*
X32951101Y-40711068D01*
X32701808Y-40577818D01*
X32431309Y-40495764D01*
X32220492Y-40475000D01*
X31279508Y-40475000D01*
X31068691Y-40495764D01*
X30798192Y-40577818D01*
X30548899Y-40711068D01*
X30330392Y-40890392D01*
X30151068Y-41108899D01*
X30017818Y-41358192D01*
X29935764Y-41628691D01*
X29908057Y-41910000D01*
X29335000Y-41910000D01*
X29335000Y-24198711D01*
X29378937Y-24154774D01*
X29492205Y-23985256D01*
X29570226Y-23796898D01*
X29610000Y-23596939D01*
X29610000Y-23393061D01*
X29570226Y-23193102D01*
X29492205Y-23004744D01*
X29378937Y-22835226D01*
X29234774Y-22691063D01*
X29065256Y-22577795D01*
X28876898Y-22499774D01*
X28676939Y-22460000D01*
X28473061Y-22460000D01*
X28273102Y-22499774D01*
X28084744Y-22577795D01*
X27940000Y-22674510D01*
X27795256Y-22577795D01*
X27606898Y-22499774D01*
X27406939Y-22460000D01*
X27203061Y-22460000D01*
X27003102Y-22499774D01*
X26814744Y-22577795D01*
X26795000Y-22590987D01*
X26795000Y-21658711D01*
X26838937Y-21614774D01*
X26952205Y-21445256D01*
X27030226Y-21256898D01*
X27070000Y-21056939D01*
X27070000Y-20853061D01*
X27030226Y-20653102D01*
X26952205Y-20464744D01*
X26838937Y-20295226D01*
X26795000Y-20251289D01*
X26795000Y-15875000D01*
X29908057Y-15875000D01*
X29935764Y-16156309D01*
X30017818Y-16426808D01*
X30151068Y-16676101D01*
X30330392Y-16894608D01*
X30548899Y-17073932D01*
X30681858Y-17145000D01*
X30548899Y-17216068D01*
X30330392Y-17395392D01*
X30151068Y-17613899D01*
X30017818Y-17863192D01*
X29935764Y-18133691D01*
X29908057Y-18415000D01*
X29935764Y-18696309D01*
X30017818Y-18966808D01*
X30151068Y-19216101D01*
X30330392Y-19434608D01*
X30548899Y-19613932D01*
X30681858Y-19685000D01*
X30548899Y-19756068D01*
X30330392Y-19935392D01*
X30151068Y-20153899D01*
X30017818Y-20403192D01*
X29935764Y-20673691D01*
X29908057Y-20955000D01*
X29935764Y-21236309D01*
X30017818Y-21506808D01*
X30151068Y-21756101D01*
X30330392Y-21974608D01*
X30548899Y-22153932D01*
X30681858Y-22225000D01*
X30548899Y-22296068D01*
X30330392Y-22475392D01*
X30151068Y-22693899D01*
X30017818Y-22943192D01*
X29935764Y-23213691D01*
X29908057Y-23495000D01*
X29935764Y-23776309D01*
X30017818Y-24046808D01*
X30151068Y-24296101D01*
X30330392Y-24514608D01*
X30548899Y-24693932D01*
X30681858Y-24765000D01*
X30548899Y-24836068D01*
X30330392Y-25015392D01*
X30151068Y-25233899D01*
X30017818Y-25483192D01*
X29935764Y-25753691D01*
X29908057Y-26035000D01*
X29935764Y-26316309D01*
X30017818Y-26586808D01*
X30151068Y-26836101D01*
X30330392Y-27054608D01*
X30548899Y-27233932D01*
X30681858Y-27305000D01*
X30548899Y-27376068D01*
X30330392Y-27555392D01*
X30151068Y-27773899D01*
X30017818Y-28023192D01*
X29935764Y-28293691D01*
X29908057Y-28575000D01*
X29935764Y-28856309D01*
X30017818Y-29126808D01*
X30151068Y-29376101D01*
X30330392Y-29594608D01*
X30548899Y-29773932D01*
X30681858Y-29845000D01*
X30548899Y-29916068D01*
X30330392Y-30095392D01*
X30151068Y-30313899D01*
X30017818Y-30563192D01*
X29935764Y-30833691D01*
X29908057Y-31115000D01*
X29935764Y-31396309D01*
X30017818Y-31666808D01*
X30151068Y-31916101D01*
X30330392Y-32134608D01*
X30548899Y-32313932D01*
X30798192Y-32447182D01*
X31068691Y-32529236D01*
X31279508Y-32550000D01*
X32220492Y-32550000D01*
X32431309Y-32529236D01*
X32701808Y-32447182D01*
X32951101Y-32313932D01*
X33169608Y-32134608D01*
X33348932Y-31916101D01*
X33482182Y-31666808D01*
X33564236Y-31396309D01*
X33591943Y-31115000D01*
X33564236Y-30833691D01*
X33482182Y-30563192D01*
X33348932Y-30313899D01*
X33169608Y-30095392D01*
X32951101Y-29916068D01*
X32818142Y-29845000D01*
X32951101Y-29773932D01*
X33169608Y-29594608D01*
X33348932Y-29376101D01*
X33482182Y-29126808D01*
X33564236Y-28856309D01*
X33591943Y-28575000D01*
X33564236Y-28293691D01*
X33482182Y-28023192D01*
X33348932Y-27773899D01*
X33169608Y-27555392D01*
X32951101Y-27376068D01*
X32818142Y-27305000D01*
X32951101Y-27233932D01*
X33169608Y-27054608D01*
X33348932Y-26836101D01*
X33482182Y-26586808D01*
X33564236Y-26316309D01*
X33591943Y-26035000D01*
X33564236Y-25753691D01*
X33482182Y-25483192D01*
X33348932Y-25233899D01*
X33169608Y-25015392D01*
X32951101Y-24836068D01*
X32818142Y-24765000D01*
X32951101Y-24693932D01*
X33169608Y-24514608D01*
X33348932Y-24296101D01*
X33482182Y-24046808D01*
X33536217Y-23868678D01*
X33545147Y-23913574D01*
X33653320Y-24174727D01*
X33810363Y-24409759D01*
X34010241Y-24609637D01*
X34245273Y-24766680D01*
X34506426Y-24874853D01*
X34783665Y-24930000D01*
X35066335Y-24930000D01*
X35343574Y-24874853D01*
X35604727Y-24766680D01*
X35839759Y-24609637D01*
X36039637Y-24409759D01*
X36196680Y-24174727D01*
X36304853Y-23913574D01*
X36360000Y-23636335D01*
X36360000Y-23353665D01*
X36304853Y-23076426D01*
X36196680Y-22815273D01*
X36039637Y-22580241D01*
X35839759Y-22380363D01*
X35604727Y-22223320D01*
X35343574Y-22115147D01*
X35066335Y-22060000D01*
X34783665Y-22060000D01*
X34506426Y-22115147D01*
X34245273Y-22223320D01*
X34010241Y-22380363D01*
X33810363Y-22580241D01*
X33653320Y-22815273D01*
X33545147Y-23076426D01*
X33536217Y-23121322D01*
X33482182Y-22943192D01*
X33348932Y-22693899D01*
X33169608Y-22475392D01*
X32951101Y-22296068D01*
X32818142Y-22225000D01*
X32951101Y-22153932D01*
X33169608Y-21974608D01*
X33348932Y-21756101D01*
X33482182Y-21506808D01*
X33564236Y-21236309D01*
X33591943Y-20955000D01*
X33564236Y-20673691D01*
X33482182Y-20403192D01*
X33348932Y-20153899D01*
X33169608Y-19935392D01*
X32951101Y-19756068D01*
X32818142Y-19685000D01*
X32951101Y-19613932D01*
X33104912Y-19487702D01*
X34111903Y-19487702D01*
X34183486Y-19731671D01*
X34438996Y-19852571D01*
X34713184Y-19921300D01*
X34995512Y-19935217D01*
X35275130Y-19893787D01*
X35541292Y-19798603D01*
X35666514Y-19731671D01*
X35738097Y-19487702D01*
X34925000Y-18674605D01*
X34111903Y-19487702D01*
X33104912Y-19487702D01*
X33169608Y-19434608D01*
X33348932Y-19216101D01*
X33482182Y-18966808D01*
X33523876Y-18829359D01*
X33526213Y-18845130D01*
X33621397Y-19111292D01*
X33688329Y-19236514D01*
X33932298Y-19308097D01*
X34745395Y-18495000D01*
X35104605Y-18495000D01*
X35917702Y-19308097D01*
X36161671Y-19236514D01*
X36282571Y-18981004D01*
X36351300Y-18706816D01*
X36365217Y-18424488D01*
X36323787Y-18144870D01*
X36228603Y-17878708D01*
X36161671Y-17753486D01*
X35917702Y-17681903D01*
X35104605Y-18495000D01*
X34745395Y-18495000D01*
X33932298Y-17681903D01*
X33688329Y-17753486D01*
X33567429Y-18008996D01*
X33548870Y-18083035D01*
X33482182Y-17863192D01*
X33348932Y-17613899D01*
X33257344Y-17502298D01*
X34111903Y-17502298D01*
X34925000Y-18315395D01*
X35738097Y-17502298D01*
X35666514Y-17258329D01*
X35411004Y-17137429D01*
X35136816Y-17068700D01*
X34854488Y-17054783D01*
X34574870Y-17096213D01*
X34308708Y-17191397D01*
X34183486Y-17258329D01*
X34111903Y-17502298D01*
X33257344Y-17502298D01*
X33169608Y-17395392D01*
X32951101Y-17216068D01*
X32818142Y-17145000D01*
X32951101Y-17073932D01*
X33169608Y-16894608D01*
X33348932Y-16676101D01*
X33482182Y-16426808D01*
X33564236Y-16156309D01*
X33591943Y-15875000D01*
X33564236Y-15593691D01*
X33482182Y-15323192D01*
X33348932Y-15073899D01*
X33169608Y-14855392D01*
X32951101Y-14676068D01*
X32701808Y-14542818D01*
X32431309Y-14460764D01*
X32220492Y-14440000D01*
X31279508Y-14440000D01*
X31068691Y-14460764D01*
X30798192Y-14542818D01*
X30548899Y-14676068D01*
X30330392Y-14855392D01*
X30151068Y-15073899D01*
X30017818Y-15323192D01*
X29935764Y-15593691D01*
X29908057Y-15875000D01*
X26795000Y-15875000D01*
X26795000Y-8323711D01*
X26838937Y-8279774D01*
X26952205Y-8110256D01*
X27030226Y-7921898D01*
X27070000Y-7721939D01*
X27070000Y-7518061D01*
X27030226Y-7318102D01*
X26952205Y-7129744D01*
X26838937Y-6960226D01*
X26694774Y-6816063D01*
X26525256Y-6702795D01*
X26336898Y-6624774D01*
X26136939Y-6585000D01*
X25933061Y-6585000D01*
X25733102Y-6624774D01*
X25544744Y-6702795D01*
X25375226Y-6816063D01*
X25231063Y-6960226D01*
X25117795Y-7129744D01*
X25039774Y-7318102D01*
X25000000Y-7518061D01*
X25000000Y-7721939D01*
X25039774Y-7921898D01*
X25117795Y-8110256D01*
X25231063Y-8279774D01*
X25275001Y-8323712D01*
X25275000Y-14436928D01*
X22930000Y-14436928D01*
X22805518Y-14449188D01*
X22685820Y-14485498D01*
X22575506Y-14544463D01*
X22478815Y-14623815D01*
X22399463Y-14720506D01*
X22340498Y-14830820D01*
X22304188Y-14950518D01*
X22291928Y-15075000D01*
X22291928Y-16675000D01*
X22304188Y-16799482D01*
X22340498Y-16919180D01*
X22399463Y-17029494D01*
X22478815Y-17126185D01*
X22575506Y-17205537D01*
X22685820Y-17264502D01*
X22805518Y-17300812D01*
X22823482Y-17302581D01*
X22710392Y-17395392D01*
X22531068Y-17613899D01*
X22397818Y-17863192D01*
X22331380Y-18082213D01*
X22258603Y-17878708D01*
X22191671Y-17753486D01*
X21947702Y-17681903D01*
X21134605Y-18495000D01*
X21947702Y-19308097D01*
X22191671Y-19236514D01*
X22312571Y-18981004D01*
X22353090Y-18819358D01*
X22397818Y-18966808D01*
X22531068Y-19216101D01*
X22710392Y-19434608D01*
X22928899Y-19613932D01*
X23061858Y-19685000D01*
X22928899Y-19756068D01*
X22710392Y-19935392D01*
X22531068Y-20153899D01*
X22397818Y-20403192D01*
X22315764Y-20673691D01*
X22288057Y-20955000D01*
X22315764Y-21236309D01*
X22397818Y-21506808D01*
X22531068Y-21756101D01*
X22710392Y-21974608D01*
X22928899Y-22153932D01*
X23061858Y-22225000D01*
X22928899Y-22296068D01*
X22710392Y-22475392D01*
X22531068Y-22693899D01*
X22397818Y-22943192D01*
X22343783Y-23121322D01*
X22334853Y-23076426D01*
X22226680Y-22815273D01*
X22069637Y-22580241D01*
X21869759Y-22380363D01*
X21634727Y-22223320D01*
X21373574Y-22115147D01*
X21096335Y-22060000D01*
X20813665Y-22060000D01*
X20536426Y-22115147D01*
X20275273Y-22223320D01*
X20040241Y-22380363D01*
X19840363Y-22580241D01*
X19683320Y-22815273D01*
X19575147Y-23076426D01*
X19520000Y-23353665D01*
X19520000Y-23636335D01*
X19575147Y-23913574D01*
X19683320Y-24174727D01*
X19840363Y-24409759D01*
X20040241Y-24609637D01*
X20275273Y-24766680D01*
X20536426Y-24874853D01*
X20813665Y-24930000D01*
X21096335Y-24930000D01*
X21373574Y-24874853D01*
X21634727Y-24766680D01*
X21869759Y-24609637D01*
X22069637Y-24409759D01*
X22226680Y-24174727D01*
X22334853Y-23913574D01*
X22343783Y-23868678D01*
X22397818Y-24046808D01*
X22531068Y-24296101D01*
X22710392Y-24514608D01*
X22928899Y-24693932D01*
X23061858Y-24765000D01*
X22928899Y-24836068D01*
X22710392Y-25015392D01*
X22531068Y-25233899D01*
X22397818Y-25483192D01*
X22315764Y-25753691D01*
X22288057Y-26035000D01*
X22315764Y-26316309D01*
X22397818Y-26586808D01*
X22531068Y-26836101D01*
X22710392Y-27054608D01*
X22928899Y-27233932D01*
X23061858Y-27305000D01*
X22928899Y-27376068D01*
X22710392Y-27555392D01*
X22531068Y-27773899D01*
X22397818Y-28023192D01*
X22315764Y-28293691D01*
X22288057Y-28575000D01*
X22315764Y-28856309D01*
X22397818Y-29126808D01*
X22531068Y-29376101D01*
X22710392Y-29594608D01*
X22928899Y-29773932D01*
X23061858Y-29845000D01*
X22928899Y-29916068D01*
X22710392Y-30095392D01*
X22531068Y-30313899D01*
X22397818Y-30563192D01*
X22315764Y-30833691D01*
X22288057Y-31115000D01*
X22315764Y-31396309D01*
X22397818Y-31666808D01*
X22531068Y-31916101D01*
X22710392Y-32134608D01*
X22928899Y-32313932D01*
X23178192Y-32447182D01*
X23448691Y-32529236D01*
X23659508Y-32550000D01*
X24600492Y-32550000D01*
X24811309Y-32529236D01*
X25081808Y-32447182D01*
X25331101Y-32313932D01*
X25549608Y-32134608D01*
X25728932Y-31916101D01*
X25862182Y-31666808D01*
X25944236Y-31396309D01*
X25971943Y-31115000D01*
X25944236Y-30833691D01*
X25862182Y-30563192D01*
X25728932Y-30313899D01*
X25549608Y-30095392D01*
X25331101Y-29916068D01*
X25198142Y-29845000D01*
X25331101Y-29773932D01*
X25549608Y-29594608D01*
X25728932Y-29376101D01*
X25862182Y-29126808D01*
X25944236Y-28856309D01*
X25971943Y-28575000D01*
X25944236Y-28293691D01*
X25862182Y-28023192D01*
X25728932Y-27773899D01*
X25549608Y-27555392D01*
X25331101Y-27376068D01*
X25198142Y-27305000D01*
X25331101Y-27233932D01*
X25549608Y-27054608D01*
X25611093Y-26979688D01*
X25733102Y-27030226D01*
X25933061Y-27070000D01*
X26136939Y-27070000D01*
X26336898Y-27030226D01*
X26525256Y-26952205D01*
X26545001Y-26939012D01*
X26545000Y-46092689D01*
X26356898Y-46014774D01*
X26156939Y-45975000D01*
X25953061Y-45975000D01*
X25753102Y-46014774D01*
X25628417Y-46066421D01*
X25549608Y-45970392D01*
X25331101Y-45791068D01*
X25198142Y-45720000D01*
X25331101Y-45648932D01*
X25549608Y-45469608D01*
X25728932Y-45251101D01*
X25862182Y-45001808D01*
X25944236Y-44731309D01*
X25971943Y-44450000D01*
X25944236Y-44168691D01*
X25862182Y-43898192D01*
X25728932Y-43648899D01*
X25549608Y-43430392D01*
X25436518Y-43337581D01*
X25454482Y-43335812D01*
X25574180Y-43299502D01*
X25684494Y-43240537D01*
X25781185Y-43161185D01*
X25860537Y-43064494D01*
X25919502Y-42954180D01*
X25955812Y-42834482D01*
X25968072Y-42710000D01*
X25968072Y-41110000D01*
X25955812Y-40985518D01*
X25919502Y-40865820D01*
X25860537Y-40755506D01*
X25781185Y-40658815D01*
X25684494Y-40579463D01*
X25574180Y-40520498D01*
X25454482Y-40484188D01*
X25330000Y-40471928D01*
X22930000Y-40471928D01*
X22805518Y-40484188D01*
X22685820Y-40520498D01*
X22575506Y-40579463D01*
X22478815Y-40658815D01*
X22399463Y-40755506D01*
X22340498Y-40865820D01*
X22304188Y-40985518D01*
X22291928Y-41110000D01*
X22291928Y-42710000D01*
X22304188Y-42834482D01*
X22340498Y-42954180D01*
X22399463Y-43064494D01*
X22478815Y-43161185D01*
X22575506Y-43240537D01*
X22685820Y-43299502D01*
X22805518Y-43335812D01*
X22823482Y-43337581D01*
X22710392Y-43430392D01*
X22531068Y-43648899D01*
X22397818Y-43898192D01*
X22331380Y-44117213D01*
X22258603Y-43913708D01*
X22191671Y-43788486D01*
X21947702Y-43716903D01*
X21134605Y-44530000D01*
X21947702Y-45343097D01*
X22191671Y-45271514D01*
X22312571Y-45016004D01*
X22353090Y-44854358D01*
X22397818Y-45001808D01*
X22531068Y-45251101D01*
X22710392Y-45469608D01*
X22928899Y-45648932D01*
X23061858Y-45720000D01*
X22928899Y-45791068D01*
X22710392Y-45970392D01*
X22531068Y-46188899D01*
X22397818Y-46438192D01*
X22315764Y-46708691D01*
X22288057Y-46990000D01*
X22315764Y-47271309D01*
X22397818Y-47541808D01*
X22531068Y-47791101D01*
X22710392Y-48009608D01*
X22928899Y-48188932D01*
X23061858Y-48260000D01*
X22928899Y-48331068D01*
X22710392Y-48510392D01*
X22531068Y-48728899D01*
X22397818Y-48978192D01*
X22343783Y-49156322D01*
X22334853Y-49111426D01*
X22226680Y-48850273D01*
X22069637Y-48615241D01*
X21869759Y-48415363D01*
X21634727Y-48258320D01*
X21373574Y-48150147D01*
X21096335Y-48095000D01*
X20813665Y-48095000D01*
X20536426Y-48150147D01*
X20275273Y-48258320D01*
X20040241Y-48415363D01*
X19840363Y-48615241D01*
X19683320Y-48850273D01*
X19575147Y-49111426D01*
X19520000Y-49388665D01*
X19520000Y-49671335D01*
X19575147Y-49948574D01*
X19683320Y-50209727D01*
X19840363Y-50444759D01*
X20040241Y-50644637D01*
X20275273Y-50801680D01*
X20536426Y-50909853D01*
X20813665Y-50965000D01*
X21096335Y-50965000D01*
X21373574Y-50909853D01*
X21634727Y-50801680D01*
X21869759Y-50644637D01*
X22069637Y-50444759D01*
X22226680Y-50209727D01*
X22334853Y-49948574D01*
X22343783Y-49903678D01*
X22397818Y-50081808D01*
X22531068Y-50331101D01*
X22710392Y-50549608D01*
X22928899Y-50728932D01*
X23061858Y-50800000D01*
X22928899Y-50871068D01*
X22710392Y-51050392D01*
X22531068Y-51268899D01*
X22397818Y-51518192D01*
X22315764Y-51788691D01*
X22288057Y-52070000D01*
X22315764Y-52351309D01*
X22397818Y-52621808D01*
X22531068Y-52871101D01*
X22710392Y-53089608D01*
X22928899Y-53268932D01*
X23061858Y-53340000D01*
X22928899Y-53411068D01*
X22710392Y-53590392D01*
X22531068Y-53808899D01*
X22397818Y-54058192D01*
X22315764Y-54328691D01*
X22288057Y-54610000D01*
X22315764Y-54891309D01*
X22397818Y-55161808D01*
X22531068Y-55411101D01*
X22710392Y-55629608D01*
X22928899Y-55808932D01*
X23061858Y-55880000D01*
X22928899Y-55951068D01*
X22710392Y-56130392D01*
X22531068Y-56348899D01*
X22397818Y-56598192D01*
X22315764Y-56868691D01*
X22288057Y-57150000D01*
X22315764Y-57431309D01*
X22397818Y-57701808D01*
X22531068Y-57951101D01*
X22710392Y-58169608D01*
X22928899Y-58348932D01*
X23178192Y-58482182D01*
X23448691Y-58564236D01*
X23659508Y-58585000D01*
X24600492Y-58585000D01*
X24811309Y-58564236D01*
X25081808Y-58482182D01*
X25331101Y-58348932D01*
X25549608Y-58169608D01*
X25728932Y-57951101D01*
X25862182Y-57701808D01*
X25944236Y-57431309D01*
X25971943Y-57150000D01*
X25944236Y-56868691D01*
X25862182Y-56598192D01*
X25728932Y-56348899D01*
X25549608Y-56130392D01*
X25331101Y-55951068D01*
X25198142Y-55880000D01*
X25331101Y-55808932D01*
X25549608Y-55629608D01*
X25728932Y-55411101D01*
X25862182Y-55161808D01*
X25944236Y-54891309D01*
X25971943Y-54610000D01*
X25944236Y-54328691D01*
X25862182Y-54058192D01*
X25728932Y-53808899D01*
X25549608Y-53590392D01*
X25331101Y-53411068D01*
X25198142Y-53340000D01*
X25331101Y-53268932D01*
X25549608Y-53089608D01*
X25628417Y-52993579D01*
X25753102Y-53045226D01*
X25953061Y-53085000D01*
X26156939Y-53085000D01*
X26356898Y-53045226D01*
X26545001Y-52967311D01*
X26545000Y-64455198D01*
X25396998Y-65603201D01*
X25368000Y-65626999D01*
X25344202Y-65655997D01*
X25344201Y-65655998D01*
X25273026Y-65742724D01*
X25202454Y-65874754D01*
X25158998Y-66018015D01*
X25144324Y-66167000D01*
X25148001Y-66204332D01*
X25148001Y-67141928D01*
X25108000Y-67141928D01*
X24983518Y-67154188D01*
X24863820Y-67190498D01*
X24753506Y-67249463D01*
X24656815Y-67328815D01*
X24646193Y-67341758D01*
X24394004Y-67222429D01*
X24119816Y-67153700D01*
X23837488Y-67139783D01*
X23557870Y-67181213D01*
X23291708Y-67276397D01*
X23166486Y-67343329D01*
X23094903Y-67587298D01*
X23908000Y-68400395D01*
X23922143Y-68386253D01*
X24101748Y-68565858D01*
X24087605Y-68580000D01*
X24101748Y-68594143D01*
X23922143Y-68773748D01*
X23908000Y-68759605D01*
X23094903Y-69572702D01*
X23166486Y-69816671D01*
X23421996Y-69937571D01*
X23696184Y-70006300D01*
X23978512Y-70020217D01*
X24258130Y-69978787D01*
X24524292Y-69883603D01*
X24646309Y-69818384D01*
X24656815Y-69831185D01*
X24753506Y-69910537D01*
X24863820Y-69969502D01*
X24983518Y-70005812D01*
X25108000Y-70018072D01*
X25148000Y-70018072D01*
X25148000Y-70297198D01*
X25085199Y-70360000D01*
X22897333Y-70360000D01*
X22860000Y-70356323D01*
X22822667Y-70360000D01*
X22711014Y-70370997D01*
X22567753Y-70414454D01*
X22435724Y-70485026D01*
X22319999Y-70579999D01*
X22296201Y-70608997D01*
X20697998Y-72207201D01*
X20669000Y-72230999D01*
X20645202Y-72259997D01*
X20645201Y-72259998D01*
X20574026Y-72346724D01*
X20503454Y-72478754D01*
X20491130Y-72519383D01*
X20459998Y-72622014D01*
X20451142Y-72711928D01*
X20445324Y-72771000D01*
X20449001Y-72808332D01*
X20449000Y-82766667D01*
X20449000Y-82968332D01*
X20449001Y-82968342D01*
X20449001Y-84233681D01*
X20379831Y-84187463D01*
X20064081Y-84056675D01*
X19728883Y-83990000D01*
X19387117Y-83990000D01*
X19051919Y-84056675D01*
X18736169Y-84187463D01*
X18540000Y-84318539D01*
X18540000Y-73974801D01*
X20831009Y-71683794D01*
X20860001Y-71660001D01*
X20883795Y-71631008D01*
X20883799Y-71631004D01*
X20954973Y-71544277D01*
X20954974Y-71544276D01*
X21025546Y-71412247D01*
X21069003Y-71268986D01*
X21080000Y-71157333D01*
X21080000Y-71157324D01*
X21083676Y-71120001D01*
X21080000Y-71082678D01*
X21080000Y-68650512D01*
X22467783Y-68650512D01*
X22509213Y-68930130D01*
X22604397Y-69196292D01*
X22671329Y-69321514D01*
X22915298Y-69393097D01*
X23728395Y-68580000D01*
X22915298Y-67766903D01*
X22671329Y-67838486D01*
X22550429Y-68093996D01*
X22481700Y-68368184D01*
X22467783Y-68650512D01*
X21080000Y-68650512D01*
X21080000Y-59123711D01*
X21123937Y-59079774D01*
X21237205Y-58910256D01*
X21315226Y-58721898D01*
X21355000Y-58521939D01*
X21355000Y-58318061D01*
X21315226Y-58118102D01*
X21237205Y-57929744D01*
X21123937Y-57760226D01*
X20979774Y-57616063D01*
X20810256Y-57502795D01*
X20621898Y-57424774D01*
X20421939Y-57385000D01*
X20218061Y-57385000D01*
X20051961Y-57418039D01*
X20085000Y-57251939D01*
X20085000Y-57048061D01*
X20045226Y-56848102D01*
X19967205Y-56659744D01*
X19853937Y-56490226D01*
X19709774Y-56346063D01*
X19540256Y-56232795D01*
X19351898Y-56154774D01*
X19151939Y-56115000D01*
X18948061Y-56115000D01*
X18748102Y-56154774D01*
X18559744Y-56232795D01*
X18540000Y-56245987D01*
X18540000Y-46423711D01*
X18583937Y-46379774D01*
X18697205Y-46210256D01*
X18775226Y-46021898D01*
X18815000Y-45821939D01*
X18815000Y-45618061D01*
X18796033Y-45522702D01*
X20141903Y-45522702D01*
X20213486Y-45766671D01*
X20468996Y-45887571D01*
X20743184Y-45956300D01*
X21025512Y-45970217D01*
X21305130Y-45928787D01*
X21571292Y-45833603D01*
X21696514Y-45766671D01*
X21768097Y-45522702D01*
X20955000Y-44709605D01*
X20141903Y-45522702D01*
X18796033Y-45522702D01*
X18775226Y-45418102D01*
X18697205Y-45229744D01*
X18583937Y-45060226D01*
X18439774Y-44916063D01*
X18270256Y-44802795D01*
X18081898Y-44724774D01*
X17881939Y-44685000D01*
X17678061Y-44685000D01*
X17478102Y-44724774D01*
X17289744Y-44802795D01*
X17120226Y-44916063D01*
X17086333Y-44949956D01*
X16989637Y-44805241D01*
X16789759Y-44605363D01*
X16782499Y-44600512D01*
X19514783Y-44600512D01*
X19556213Y-44880130D01*
X19651397Y-45146292D01*
X19718329Y-45271514D01*
X19962298Y-45343097D01*
X20775395Y-44530000D01*
X19962298Y-43716903D01*
X19718329Y-43788486D01*
X19597429Y-44043996D01*
X19528700Y-44318184D01*
X19514783Y-44600512D01*
X16782499Y-44600512D01*
X16557241Y-44450000D01*
X16789759Y-44294637D01*
X16989637Y-44094759D01*
X17146680Y-43859727D01*
X17254853Y-43598574D01*
X17310000Y-43321335D01*
X17310000Y-43038665D01*
X17254853Y-42761426D01*
X17146680Y-42500273D01*
X16989637Y-42265241D01*
X16789759Y-42065363D01*
X16554727Y-41908320D01*
X16293574Y-41800147D01*
X16016335Y-41745000D01*
X15733665Y-41745000D01*
X15456426Y-41800147D01*
X15195273Y-41908320D01*
X14960241Y-42065363D01*
X14760363Y-42265241D01*
X14603320Y-42500273D01*
X14495147Y-42761426D01*
X14440000Y-43038665D01*
X14440000Y-43321335D01*
X14495147Y-43598574D01*
X14603320Y-43859727D01*
X14760363Y-44094759D01*
X14960241Y-44294637D01*
X15192759Y-44450000D01*
X14960241Y-44605363D01*
X14760363Y-44805241D01*
X14603320Y-45040273D01*
X14495147Y-45301426D01*
X14440000Y-45578665D01*
X14440000Y-45861335D01*
X14495147Y-46138574D01*
X14603320Y-46399727D01*
X14760363Y-46634759D01*
X14960241Y-46834637D01*
X15195273Y-46991680D01*
X15456426Y-47099853D01*
X15733665Y-47155000D01*
X16016335Y-47155000D01*
X16293574Y-47099853D01*
X16554727Y-46991680D01*
X16789759Y-46834637D01*
X16989637Y-46634759D01*
X17020001Y-46589316D01*
X17020000Y-58185683D01*
X16989637Y-58140241D01*
X16789759Y-57940363D01*
X16635000Y-57836957D01*
X16635000Y-52773711D01*
X16678937Y-52729774D01*
X16792205Y-52560256D01*
X16870226Y-52371898D01*
X16910000Y-52171939D01*
X16910000Y-51968061D01*
X16870226Y-51768102D01*
X16792205Y-51579744D01*
X16678937Y-51410226D01*
X16534774Y-51266063D01*
X16365256Y-51152795D01*
X16176898Y-51074774D01*
X15976939Y-51035000D01*
X15773061Y-51035000D01*
X15573102Y-51074774D01*
X15384744Y-51152795D01*
X15215226Y-51266063D01*
X15071063Y-51410226D01*
X14957795Y-51579744D01*
X14879774Y-51768102D01*
X14840000Y-51968061D01*
X14840000Y-52171939D01*
X14879774Y-52371898D01*
X14957795Y-52560256D01*
X15071063Y-52729774D01*
X15115001Y-52773712D01*
X15115000Y-57836956D01*
X14960241Y-57940363D01*
X14760363Y-58140241D01*
X14603320Y-58375273D01*
X14495147Y-58636426D01*
X14440000Y-58913665D01*
X14440000Y-59196335D01*
X14495147Y-59473574D01*
X14603320Y-59734727D01*
X14760363Y-59969759D01*
X14960241Y-60169637D01*
X15195273Y-60326680D01*
X15206565Y-60331357D01*
X15137580Y-60363963D01*
X14911586Y-60531481D01*
X14722615Y-60739869D01*
X14577930Y-60981119D01*
X14538072Y-61092424D01*
X14538072Y-60762000D01*
X14525812Y-60637518D01*
X14489502Y-60517820D01*
X14430537Y-60407506D01*
X14351185Y-60310815D01*
X14254494Y-60231463D01*
X14144180Y-60172498D01*
X14024482Y-60136188D01*
X13900000Y-60123928D01*
X13760000Y-60123928D01*
X13760000Y-58757325D01*
X13763676Y-58720000D01*
X13760000Y-58682675D01*
X13760000Y-58682667D01*
X13749003Y-58571014D01*
X13705546Y-58427753D01*
X13634974Y-58295724D01*
X13540001Y-58179999D01*
X13511004Y-58156202D01*
X12628804Y-57274002D01*
X12605001Y-57244999D01*
X12489276Y-57150026D01*
X12357247Y-57079454D01*
X12213986Y-57035997D01*
X12102333Y-57025000D01*
X12102322Y-57025000D01*
X12065000Y-57021324D01*
X12027678Y-57025000D01*
X4759802Y-57025000D01*
X4570000Y-56835199D01*
X4570000Y-54412000D01*
X6711928Y-54412000D01*
X6711928Y-56212000D01*
X6724188Y-56336482D01*
X6760498Y-56456180D01*
X6819463Y-56566494D01*
X6898815Y-56663185D01*
X6995506Y-56742537D01*
X7105820Y-56801502D01*
X7225518Y-56837812D01*
X7350000Y-56850072D01*
X9850000Y-56850072D01*
X9974482Y-56837812D01*
X10094180Y-56801502D01*
X10204494Y-56742537D01*
X10301185Y-56663185D01*
X10380537Y-56566494D01*
X10439502Y-56456180D01*
X10475812Y-56336482D01*
X10488072Y-56212000D01*
X10488072Y-54412000D01*
X10475812Y-54287518D01*
X10439502Y-54167820D01*
X10403289Y-54100072D01*
X10850000Y-54100072D01*
X10974482Y-54087812D01*
X11094180Y-54051502D01*
X11204494Y-53992537D01*
X11301185Y-53913185D01*
X11380537Y-53816494D01*
X11439502Y-53706180D01*
X11475812Y-53586482D01*
X11488072Y-53462000D01*
X11488072Y-51962000D01*
X11475812Y-51837518D01*
X11439502Y-51717820D01*
X11380537Y-51607506D01*
X11301185Y-51510815D01*
X11204494Y-51431463D01*
X11094180Y-51372498D01*
X10974482Y-51336188D01*
X10850000Y-51323928D01*
X8350000Y-51323928D01*
X8225518Y-51336188D01*
X8105820Y-51372498D01*
X7995506Y-51431463D01*
X7898815Y-51510815D01*
X7819463Y-51607506D01*
X7760498Y-51717820D01*
X7724188Y-51837518D01*
X7711928Y-51962000D01*
X7711928Y-53462000D01*
X7724188Y-53586482D01*
X7760498Y-53706180D01*
X7796711Y-53773928D01*
X7350000Y-53773928D01*
X7225518Y-53786188D01*
X7105820Y-53822498D01*
X6995506Y-53881463D01*
X6898815Y-53960815D01*
X6819463Y-54057506D01*
X6760498Y-54167820D01*
X6724188Y-54287518D01*
X6711928Y-54412000D01*
X4570000Y-54412000D01*
X4570000Y-50430193D01*
X4650000Y-50438072D01*
X7150000Y-50438072D01*
X7274482Y-50425812D01*
X7394180Y-50389502D01*
X7504494Y-50330537D01*
X7601185Y-50251185D01*
X7680537Y-50154494D01*
X7739502Y-50044180D01*
X7775812Y-49924482D01*
X7788072Y-49800000D01*
X7788072Y-48300000D01*
X7775812Y-48175518D01*
X7739502Y-48055820D01*
X7680537Y-47945506D01*
X7601185Y-47848815D01*
X7504494Y-47769463D01*
X7394180Y-47710498D01*
X7274482Y-47674188D01*
X7150000Y-47661928D01*
X4650000Y-47661928D01*
X4570000Y-47669807D01*
X4570000Y-47300000D01*
X11461928Y-47300000D01*
X11461928Y-49800000D01*
X11474188Y-49924482D01*
X11510498Y-50044180D01*
X11569463Y-50154494D01*
X11648815Y-50251185D01*
X11745506Y-50330537D01*
X11855820Y-50389502D01*
X11975518Y-50425812D01*
X12100000Y-50438072D01*
X13900000Y-50438072D01*
X14024482Y-50425812D01*
X14144180Y-50389502D01*
X14254494Y-50330537D01*
X14351185Y-50251185D01*
X14430537Y-50154494D01*
X14489502Y-50044180D01*
X14525812Y-49924482D01*
X14538072Y-49800000D01*
X14538072Y-47300000D01*
X14525812Y-47175518D01*
X14489502Y-47055820D01*
X14430537Y-46945506D01*
X14351185Y-46848815D01*
X14254494Y-46769463D01*
X14144180Y-46710498D01*
X14024482Y-46674188D01*
X13900000Y-46661928D01*
X12100000Y-46661928D01*
X11975518Y-46674188D01*
X11855820Y-46710498D01*
X11745506Y-46769463D01*
X11648815Y-46848815D01*
X11569463Y-46945506D01*
X11510498Y-47055820D01*
X11474188Y-47175518D01*
X11461928Y-47300000D01*
X4570000Y-47300000D01*
X4570000Y-40950000D01*
X6711928Y-40950000D01*
X6711928Y-42750000D01*
X6724188Y-42874482D01*
X6760498Y-42994180D01*
X6819463Y-43104494D01*
X6898815Y-43201185D01*
X6995506Y-43280537D01*
X7105820Y-43339502D01*
X7225518Y-43375812D01*
X7350000Y-43388072D01*
X9850000Y-43388072D01*
X9974482Y-43375812D01*
X10094180Y-43339502D01*
X10204494Y-43280537D01*
X10301185Y-43201185D01*
X10380537Y-43104494D01*
X10439502Y-42994180D01*
X10475812Y-42874482D01*
X10488072Y-42750000D01*
X10488072Y-40950000D01*
X10475812Y-40825518D01*
X10439502Y-40705820D01*
X10403289Y-40638072D01*
X10850000Y-40638072D01*
X10974482Y-40625812D01*
X11094180Y-40589502D01*
X11204494Y-40530537D01*
X11301185Y-40451185D01*
X11380537Y-40354494D01*
X11439502Y-40244180D01*
X11475812Y-40124482D01*
X11488072Y-40000000D01*
X11488072Y-38500000D01*
X11475812Y-38375518D01*
X11439502Y-38255820D01*
X11380537Y-38145506D01*
X11301185Y-38048815D01*
X11204494Y-37969463D01*
X11094180Y-37910498D01*
X10974482Y-37874188D01*
X10850000Y-37861928D01*
X8350000Y-37861928D01*
X8225518Y-37874188D01*
X8105820Y-37910498D01*
X7995506Y-37969463D01*
X7898815Y-38048815D01*
X7819463Y-38145506D01*
X7760498Y-38255820D01*
X7724188Y-38375518D01*
X7711928Y-38500000D01*
X7711928Y-40000000D01*
X7724188Y-40124482D01*
X7760498Y-40244180D01*
X7796711Y-40311928D01*
X7350000Y-40311928D01*
X7225518Y-40324188D01*
X7105820Y-40360498D01*
X6995506Y-40419463D01*
X6898815Y-40498815D01*
X6819463Y-40595506D01*
X6760498Y-40705820D01*
X6724188Y-40825518D01*
X6711928Y-40950000D01*
X4570000Y-40950000D01*
X4570000Y-37730193D01*
X4650000Y-37738072D01*
X7150000Y-37738072D01*
X7274482Y-37725812D01*
X7394180Y-37689502D01*
X7504494Y-37630537D01*
X7601185Y-37551185D01*
X7680537Y-37454494D01*
X7739502Y-37344180D01*
X7775812Y-37224482D01*
X7788072Y-37100000D01*
X7788072Y-35600000D01*
X7775812Y-35475518D01*
X7739502Y-35355820D01*
X7680537Y-35245506D01*
X7601185Y-35148815D01*
X7504494Y-35069463D01*
X7394180Y-35010498D01*
X7274482Y-34974188D01*
X7150000Y-34961928D01*
X4650000Y-34961928D01*
X4570000Y-34969807D01*
X4570000Y-34600000D01*
X11461928Y-34600000D01*
X11461928Y-37100000D01*
X11474188Y-37224482D01*
X11510498Y-37344180D01*
X11569463Y-37454494D01*
X11648815Y-37551185D01*
X11745506Y-37630537D01*
X11855820Y-37689502D01*
X11975518Y-37725812D01*
X12100000Y-37738072D01*
X13900000Y-37738072D01*
X14024482Y-37725812D01*
X14144180Y-37689502D01*
X14254494Y-37630537D01*
X14351185Y-37551185D01*
X14430537Y-37454494D01*
X14489502Y-37344180D01*
X14525812Y-37224482D01*
X14538072Y-37100000D01*
X14538072Y-34600000D01*
X14525812Y-34475518D01*
X14489502Y-34355820D01*
X14430537Y-34245506D01*
X14351185Y-34148815D01*
X14254494Y-34069463D01*
X14144180Y-34010498D01*
X14024482Y-33974188D01*
X13900000Y-33961928D01*
X12100000Y-33961928D01*
X11975518Y-33974188D01*
X11855820Y-34010498D01*
X11745506Y-34069463D01*
X11648815Y-34148815D01*
X11569463Y-34245506D01*
X11510498Y-34355820D01*
X11474188Y-34475518D01*
X11461928Y-34600000D01*
X4570000Y-34600000D01*
X4570000Y-28250000D01*
X6711928Y-28250000D01*
X6711928Y-30050000D01*
X6724188Y-30174482D01*
X6760498Y-30294180D01*
X6819463Y-30404494D01*
X6898815Y-30501185D01*
X6995506Y-30580537D01*
X7105820Y-30639502D01*
X7225518Y-30675812D01*
X7350000Y-30688072D01*
X9850000Y-30688072D01*
X9974482Y-30675812D01*
X10094180Y-30639502D01*
X10204494Y-30580537D01*
X10301185Y-30501185D01*
X10380537Y-30404494D01*
X10415723Y-30338665D01*
X14440000Y-30338665D01*
X14440000Y-30621335D01*
X14495147Y-30898574D01*
X14603320Y-31159727D01*
X14760363Y-31394759D01*
X14960241Y-31594637D01*
X15192759Y-31750000D01*
X14960241Y-31905363D01*
X14760363Y-32105241D01*
X14603320Y-32340273D01*
X14495147Y-32601426D01*
X14440000Y-32878665D01*
X14440000Y-33161335D01*
X14495147Y-33438574D01*
X14603320Y-33699727D01*
X14760363Y-33934759D01*
X14960241Y-34134637D01*
X15195273Y-34291680D01*
X15456426Y-34399853D01*
X15733665Y-34455000D01*
X16016335Y-34455000D01*
X16293574Y-34399853D01*
X16554727Y-34291680D01*
X16789759Y-34134637D01*
X16989637Y-33934759D01*
X17146680Y-33699727D01*
X17254853Y-33438574D01*
X17310000Y-33161335D01*
X17310000Y-32878665D01*
X17254853Y-32601426D01*
X17146680Y-32340273D01*
X17108453Y-32283061D01*
X17380000Y-32283061D01*
X17380000Y-32486939D01*
X17419774Y-32686898D01*
X17497795Y-32875256D01*
X17611063Y-33044774D01*
X17655000Y-33088711D01*
X17655001Y-42476288D01*
X17611063Y-42520226D01*
X17497795Y-42689744D01*
X17419774Y-42878102D01*
X17380000Y-43078061D01*
X17380000Y-43281939D01*
X17419774Y-43481898D01*
X17497795Y-43670256D01*
X17611063Y-43839774D01*
X17755226Y-43983937D01*
X17924744Y-44097205D01*
X18113102Y-44175226D01*
X18313061Y-44215000D01*
X18516939Y-44215000D01*
X18716898Y-44175226D01*
X18905256Y-44097205D01*
X19074774Y-43983937D01*
X19218937Y-43839774D01*
X19332205Y-43670256D01*
X19387278Y-43537298D01*
X20141903Y-43537298D01*
X20955000Y-44350395D01*
X21768097Y-43537298D01*
X21696514Y-43293329D01*
X21441004Y-43172429D01*
X21166816Y-43103700D01*
X20884488Y-43089783D01*
X20604870Y-43131213D01*
X20338708Y-43226397D01*
X20213486Y-43293329D01*
X20141903Y-43537298D01*
X19387278Y-43537298D01*
X19410226Y-43481898D01*
X19450000Y-43281939D01*
X19450000Y-43078061D01*
X19410226Y-42878102D01*
X19332205Y-42689744D01*
X19218937Y-42520226D01*
X19175000Y-42476289D01*
X19175000Y-33088711D01*
X19218937Y-33044774D01*
X19332205Y-32875256D01*
X19410226Y-32686898D01*
X19450000Y-32486939D01*
X19450000Y-32283061D01*
X19410226Y-32083102D01*
X19332205Y-31894744D01*
X19218937Y-31725226D01*
X19074774Y-31581063D01*
X18905256Y-31467795D01*
X18716898Y-31389774D01*
X18516939Y-31350000D01*
X18313061Y-31350000D01*
X18113102Y-31389774D01*
X17924744Y-31467795D01*
X17755226Y-31581063D01*
X17611063Y-31725226D01*
X17497795Y-31894744D01*
X17419774Y-32083102D01*
X17380000Y-32283061D01*
X17108453Y-32283061D01*
X16989637Y-32105241D01*
X16789759Y-31905363D01*
X16557241Y-31750000D01*
X16789759Y-31594637D01*
X16989637Y-31394759D01*
X17146680Y-31159727D01*
X17254853Y-30898574D01*
X17310000Y-30621335D01*
X17310000Y-30338665D01*
X17254853Y-30061426D01*
X17146680Y-29800273D01*
X16989637Y-29565241D01*
X16789759Y-29365363D01*
X16554727Y-29208320D01*
X16293574Y-29100147D01*
X16016335Y-29045000D01*
X15733665Y-29045000D01*
X15456426Y-29100147D01*
X15195273Y-29208320D01*
X14960241Y-29365363D01*
X14760363Y-29565241D01*
X14603320Y-29800273D01*
X14495147Y-30061426D01*
X14440000Y-30338665D01*
X10415723Y-30338665D01*
X10439502Y-30294180D01*
X10475812Y-30174482D01*
X10488072Y-30050000D01*
X10488072Y-28250000D01*
X10475812Y-28125518D01*
X10439502Y-28005820D01*
X10403289Y-27938072D01*
X10850000Y-27938072D01*
X10974482Y-27925812D01*
X11094180Y-27889502D01*
X11204494Y-27830537D01*
X11301185Y-27751185D01*
X11380537Y-27654494D01*
X11439502Y-27544180D01*
X11475812Y-27424482D01*
X11488072Y-27300000D01*
X11488072Y-25800000D01*
X11475812Y-25675518D01*
X11439502Y-25555820D01*
X11380537Y-25445506D01*
X11301185Y-25348815D01*
X11204494Y-25269463D01*
X11094180Y-25210498D01*
X10974482Y-25174188D01*
X10850000Y-25161928D01*
X8350000Y-25161928D01*
X8225518Y-25174188D01*
X8105820Y-25210498D01*
X7995506Y-25269463D01*
X7898815Y-25348815D01*
X7819463Y-25445506D01*
X7760498Y-25555820D01*
X7724188Y-25675518D01*
X7711928Y-25800000D01*
X7711928Y-27300000D01*
X7724188Y-27424482D01*
X7760498Y-27544180D01*
X7796711Y-27611928D01*
X7350000Y-27611928D01*
X7225518Y-27624188D01*
X7105820Y-27660498D01*
X6995506Y-27719463D01*
X6898815Y-27798815D01*
X6819463Y-27895506D01*
X6760498Y-28005820D01*
X6724188Y-28125518D01*
X6711928Y-28250000D01*
X4570000Y-28250000D01*
X4570000Y-25030193D01*
X4650000Y-25038072D01*
X7150000Y-25038072D01*
X7274482Y-25025812D01*
X7394180Y-24989502D01*
X7504494Y-24930537D01*
X7601185Y-24851185D01*
X7680537Y-24754494D01*
X7739502Y-24644180D01*
X7775812Y-24524482D01*
X7788072Y-24400000D01*
X7788072Y-22900000D01*
X7775812Y-22775518D01*
X7739502Y-22655820D01*
X7680537Y-22545506D01*
X7601185Y-22448815D01*
X7504494Y-22369463D01*
X7394180Y-22310498D01*
X7274482Y-22274188D01*
X7150000Y-22261928D01*
X4650000Y-22261928D01*
X4570000Y-22269807D01*
X4570000Y-21900000D01*
X11461928Y-21900000D01*
X11461928Y-24400000D01*
X11474188Y-24524482D01*
X11510498Y-24644180D01*
X11569463Y-24754494D01*
X11648815Y-24851185D01*
X11745506Y-24930537D01*
X11855820Y-24989502D01*
X11975518Y-25025812D01*
X12100000Y-25038072D01*
X13900000Y-25038072D01*
X14024482Y-25025812D01*
X14144180Y-24989502D01*
X14254494Y-24930537D01*
X14351185Y-24851185D01*
X14430537Y-24754494D01*
X14489502Y-24644180D01*
X14525812Y-24524482D01*
X14538072Y-24400000D01*
X14538072Y-21900000D01*
X14525812Y-21775518D01*
X14489502Y-21655820D01*
X14430537Y-21545506D01*
X14351185Y-21448815D01*
X14254494Y-21369463D01*
X14144180Y-21310498D01*
X14024482Y-21274188D01*
X13900000Y-21261928D01*
X12100000Y-21261928D01*
X11975518Y-21274188D01*
X11855820Y-21310498D01*
X11745506Y-21369463D01*
X11648815Y-21448815D01*
X11569463Y-21545506D01*
X11510498Y-21655820D01*
X11474188Y-21775518D01*
X11461928Y-21900000D01*
X4570000Y-21900000D01*
X4570000Y-15554801D01*
X4574801Y-15550000D01*
X6711928Y-15550000D01*
X6711928Y-17350000D01*
X6724188Y-17474482D01*
X6760498Y-17594180D01*
X6819463Y-17704494D01*
X6898815Y-17801185D01*
X6995506Y-17880537D01*
X7105820Y-17939502D01*
X7225518Y-17975812D01*
X7350000Y-17988072D01*
X9850000Y-17988072D01*
X9974482Y-17975812D01*
X10094180Y-17939502D01*
X10204494Y-17880537D01*
X10301185Y-17801185D01*
X10380537Y-17704494D01*
X10415723Y-17638665D01*
X14440000Y-17638665D01*
X14440000Y-17921335D01*
X14495147Y-18198574D01*
X14603320Y-18459727D01*
X14760363Y-18694759D01*
X14960241Y-18894637D01*
X15192759Y-19050000D01*
X14960241Y-19205363D01*
X14760363Y-19405241D01*
X14603320Y-19640273D01*
X14495147Y-19901426D01*
X14440000Y-20178665D01*
X14440000Y-20461335D01*
X14495147Y-20738574D01*
X14603320Y-20999727D01*
X14760363Y-21234759D01*
X14960241Y-21434637D01*
X15195273Y-21591680D01*
X15456426Y-21699853D01*
X15733665Y-21755000D01*
X16016335Y-21755000D01*
X16293574Y-21699853D01*
X16554727Y-21591680D01*
X16789759Y-21434637D01*
X16989637Y-21234759D01*
X17146680Y-20999727D01*
X17254853Y-20738574D01*
X17310000Y-20461335D01*
X17310000Y-20178665D01*
X17254853Y-19901426D01*
X17146680Y-19640273D01*
X17044736Y-19487702D01*
X20141903Y-19487702D01*
X20213486Y-19731671D01*
X20468996Y-19852571D01*
X20743184Y-19921300D01*
X21025512Y-19935217D01*
X21305130Y-19893787D01*
X21571292Y-19798603D01*
X21696514Y-19731671D01*
X21768097Y-19487702D01*
X20955000Y-18674605D01*
X20141903Y-19487702D01*
X17044736Y-19487702D01*
X16989637Y-19405241D01*
X16789759Y-19205363D01*
X16557241Y-19050000D01*
X16789759Y-18894637D01*
X16989637Y-18694759D01*
X17075996Y-18565512D01*
X19514783Y-18565512D01*
X19556213Y-18845130D01*
X19651397Y-19111292D01*
X19718329Y-19236514D01*
X19962298Y-19308097D01*
X20775395Y-18495000D01*
X19962298Y-17681903D01*
X19718329Y-17753486D01*
X19597429Y-18008996D01*
X19528700Y-18283184D01*
X19514783Y-18565512D01*
X17075996Y-18565512D01*
X17146680Y-18459727D01*
X17254853Y-18198574D01*
X17310000Y-17921335D01*
X17310000Y-17638665D01*
X17282875Y-17502298D01*
X20141903Y-17502298D01*
X20955000Y-18315395D01*
X21768097Y-17502298D01*
X21696514Y-17258329D01*
X21441004Y-17137429D01*
X21166816Y-17068700D01*
X20884488Y-17054783D01*
X20604870Y-17096213D01*
X20338708Y-17191397D01*
X20213486Y-17258329D01*
X20141903Y-17502298D01*
X17282875Y-17502298D01*
X17254853Y-17361426D01*
X17146680Y-17100273D01*
X16989637Y-16865241D01*
X16789759Y-16665363D01*
X16645044Y-16568667D01*
X16678937Y-16534774D01*
X16792205Y-16365256D01*
X16870226Y-16176898D01*
X16910000Y-15976939D01*
X16910000Y-15773061D01*
X16870226Y-15573102D01*
X16792205Y-15384744D01*
X16678937Y-15215226D01*
X16534774Y-15071063D01*
X16365256Y-14957795D01*
X16176898Y-14879774D01*
X15976939Y-14840000D01*
X15773061Y-14840000D01*
X15573102Y-14879774D01*
X15384744Y-14957795D01*
X15215226Y-15071063D01*
X15071063Y-15215226D01*
X14957795Y-15384744D01*
X14879774Y-15573102D01*
X14840000Y-15773061D01*
X14840000Y-15976939D01*
X14879774Y-16176898D01*
X14957795Y-16365256D01*
X15071063Y-16534774D01*
X15104956Y-16568667D01*
X14960241Y-16665363D01*
X14760363Y-16865241D01*
X14603320Y-17100273D01*
X14495147Y-17361426D01*
X14440000Y-17638665D01*
X10415723Y-17638665D01*
X10439502Y-17594180D01*
X10475812Y-17474482D01*
X10488072Y-17350000D01*
X10488072Y-15550000D01*
X10475812Y-15425518D01*
X10439502Y-15305820D01*
X10403289Y-15238072D01*
X10850000Y-15238072D01*
X10974482Y-15225812D01*
X11094180Y-15189502D01*
X11204494Y-15130537D01*
X11301185Y-15051185D01*
X11380537Y-14954494D01*
X11439502Y-14844180D01*
X11475812Y-14724482D01*
X11488072Y-14600000D01*
X11488072Y-13100000D01*
X11475812Y-12975518D01*
X11439502Y-12855820D01*
X11380537Y-12745506D01*
X11301185Y-12648815D01*
X11204494Y-12569463D01*
X11094180Y-12510498D01*
X10974482Y-12474188D01*
X10850000Y-12461928D01*
X8350000Y-12461928D01*
X8225518Y-12474188D01*
X8105820Y-12510498D01*
X7995506Y-12569463D01*
X7898815Y-12648815D01*
X7819463Y-12745506D01*
X7760498Y-12855820D01*
X7724188Y-12975518D01*
X7711928Y-13100000D01*
X7711928Y-14600000D01*
X7724188Y-14724482D01*
X7760498Y-14844180D01*
X7796711Y-14911928D01*
X7350000Y-14911928D01*
X7225518Y-14924188D01*
X7105820Y-14960498D01*
X6995506Y-15019463D01*
X6898815Y-15098815D01*
X6819463Y-15195506D01*
X6760498Y-15305820D01*
X6724188Y-15425518D01*
X6711928Y-15550000D01*
X4574801Y-15550000D01*
X6411003Y-13713799D01*
X6440001Y-13690001D01*
X6534974Y-13574276D01*
X6605546Y-13442247D01*
X6649003Y-13298986D01*
X6660000Y-13187333D01*
X6660000Y-13187324D01*
X6663676Y-13150001D01*
X6660000Y-13112678D01*
X6660000Y-12338072D01*
X7150000Y-12338072D01*
X7274482Y-12325812D01*
X7394180Y-12289502D01*
X7504494Y-12230537D01*
X7601185Y-12151185D01*
X7680537Y-12054494D01*
X7739502Y-11944180D01*
X7775812Y-11824482D01*
X7788072Y-11700000D01*
X7788072Y-10200000D01*
X7775812Y-10075518D01*
X7739502Y-9955820D01*
X7680537Y-9845506D01*
X7601185Y-9748815D01*
X7504494Y-9669463D01*
X7394180Y-9610498D01*
X7274482Y-9574188D01*
X7150000Y-9561928D01*
X4650000Y-9561928D01*
X4525518Y-9574188D01*
X4405820Y-9610498D01*
X4295506Y-9669463D01*
X4198815Y-9748815D01*
X4119463Y-9845506D01*
X4060498Y-9955820D01*
X4024188Y-10075518D01*
X4011928Y-10200000D01*
X4011928Y-11700000D01*
X4024188Y-11824482D01*
X4060498Y-11944180D01*
X4119463Y-12054494D01*
X4198815Y-12151185D01*
X4295506Y-12230537D01*
X4405820Y-12289502D01*
X4525518Y-12325812D01*
X4650000Y-12338072D01*
X5140001Y-12338072D01*
X5140001Y-12835197D01*
X3299003Y-14676196D01*
X3269999Y-14699999D01*
X3214871Y-14767174D01*
X3175026Y-14815724D01*
X3123604Y-14911928D01*
X3104454Y-14947754D01*
X3060997Y-15091015D01*
X3050000Y-15202668D01*
X3050000Y-15202678D01*
X3046324Y-15240000D01*
X3050000Y-15277322D01*
X3050000Y-17347843D01*
X2954494Y-17269463D01*
X2844180Y-17210498D01*
X2724482Y-17174188D01*
X2600000Y-17161928D01*
X1985750Y-17165000D01*
X1827000Y-17323750D01*
X1827000Y-18923000D01*
X1847000Y-18923000D01*
X1847000Y-19177000D01*
X1827000Y-19177000D01*
X1827000Y-20776250D01*
X1985750Y-20935000D01*
X2600000Y-20938072D01*
X2724482Y-20925812D01*
X2844180Y-20889502D01*
X2954494Y-20830537D01*
X3050000Y-20752157D01*
X3050000Y-30047843D01*
X2954494Y-29969463D01*
X2844180Y-29910498D01*
X2724482Y-29874188D01*
X2600000Y-29861928D01*
X1985750Y-29865000D01*
X1827000Y-30023750D01*
X1827000Y-31623000D01*
X1847000Y-31623000D01*
X1847000Y-31877000D01*
X1827000Y-31877000D01*
X1827000Y-33476250D01*
X1985750Y-33635000D01*
X2600000Y-33638072D01*
X2724482Y-33625812D01*
X2844180Y-33589502D01*
X2954494Y-33530537D01*
X3050000Y-33452157D01*
X3050001Y-42747843D01*
X2954494Y-42669463D01*
X2844180Y-42610498D01*
X2724482Y-42574188D01*
X2600000Y-42561928D01*
X1985750Y-42565000D01*
X1827000Y-42723750D01*
X1827000Y-44323000D01*
X1847000Y-44323000D01*
X1847000Y-44577000D01*
X1827000Y-44577000D01*
X1827000Y-46176250D01*
X1985750Y-46335000D01*
X2600000Y-46338072D01*
X2724482Y-46325812D01*
X2844180Y-46289502D01*
X2954494Y-46230537D01*
X3050001Y-46152157D01*
X3050001Y-56209843D01*
X2954494Y-56131463D01*
X2844180Y-56072498D01*
X2724482Y-56036188D01*
X2600000Y-56023928D01*
X1985750Y-56027000D01*
X1827000Y-56185750D01*
X1827000Y-57785000D01*
X3076250Y-57785000D01*
X3225487Y-57635763D01*
X3229175Y-57640256D01*
X3270000Y-57690001D01*
X3298998Y-57713799D01*
X3881200Y-58296002D01*
X3904999Y-58325001D01*
X3933997Y-58348799D01*
X4020724Y-58419974D01*
X4152753Y-58490546D01*
X4296014Y-58534003D01*
X4445000Y-58548677D01*
X4482333Y-58545000D01*
X11750199Y-58545000D01*
X12240000Y-59034802D01*
X12240000Y-60123928D01*
X12100000Y-60123928D01*
X11975518Y-60136188D01*
X11855820Y-60172498D01*
X11745506Y-60231463D01*
X11648815Y-60310815D01*
X11569463Y-60407506D01*
X11510498Y-60517820D01*
X11474188Y-60637518D01*
X11461928Y-60762000D01*
X11461928Y-63262000D01*
X11474188Y-63386482D01*
X11510498Y-63506180D01*
X11569463Y-63616494D01*
X11648815Y-63713185D01*
X11745506Y-63792537D01*
X11855820Y-63851502D01*
X11975518Y-63887812D01*
X12100000Y-63900072D01*
X13900000Y-63900072D01*
X14024482Y-63887812D01*
X14144180Y-63851502D01*
X14254494Y-63792537D01*
X14351185Y-63713185D01*
X14430537Y-63616494D01*
X14489502Y-63506180D01*
X14525812Y-63386482D01*
X14538072Y-63262000D01*
X14538072Y-62097576D01*
X14577930Y-62208881D01*
X14722615Y-62450131D01*
X14911586Y-62658519D01*
X15137580Y-62826037D01*
X15391913Y-62946246D01*
X15525961Y-62986904D01*
X15748000Y-62864915D01*
X15748000Y-61722000D01*
X15728000Y-61722000D01*
X15728000Y-61468000D01*
X15748000Y-61468000D01*
X15748000Y-61448000D01*
X16002000Y-61448000D01*
X16002000Y-61468000D01*
X16022000Y-61468000D01*
X16022000Y-61722000D01*
X16002000Y-61722000D01*
X16002000Y-62864915D01*
X16224039Y-62986904D01*
X16358087Y-62946246D01*
X16612420Y-62826037D01*
X16838414Y-62658519D01*
X17020000Y-62458275D01*
X17020000Y-64455198D01*
X15363998Y-66111201D01*
X15335000Y-66134999D01*
X15311202Y-66163997D01*
X15311201Y-66163998D01*
X15240026Y-66250724D01*
X15169454Y-66382754D01*
X15125998Y-66526015D01*
X15111324Y-66675000D01*
X15115001Y-66712332D01*
X15115001Y-67361956D01*
X14960241Y-67465363D01*
X14760363Y-67665241D01*
X14603320Y-67900273D01*
X14495147Y-68161426D01*
X14440000Y-68438665D01*
X14440000Y-68721335D01*
X14495147Y-68998574D01*
X14603320Y-69259727D01*
X14760363Y-69494759D01*
X14960241Y-69694637D01*
X15192759Y-69850000D01*
X14960241Y-70005363D01*
X14760363Y-70205241D01*
X14603320Y-70440273D01*
X14495147Y-70701426D01*
X14440000Y-70978665D01*
X14440000Y-71261335D01*
X14495147Y-71538574D01*
X14603320Y-71799727D01*
X14760363Y-72034759D01*
X14960241Y-72234637D01*
X15195273Y-72391680D01*
X15456426Y-72499853D01*
X15733665Y-72555000D01*
X16016335Y-72555000D01*
X16293574Y-72499853D01*
X16554727Y-72391680D01*
X16789759Y-72234637D01*
X16989637Y-72034759D01*
X17146680Y-71799727D01*
X17254853Y-71538574D01*
X17310000Y-71261335D01*
X17310000Y-70978665D01*
X17254853Y-70701426D01*
X17146680Y-70440273D01*
X16989637Y-70205241D01*
X16789759Y-70005363D01*
X16557241Y-69850000D01*
X16789759Y-69694637D01*
X16989637Y-69494759D01*
X17146680Y-69259727D01*
X17254853Y-68998574D01*
X17310000Y-68721335D01*
X17310000Y-68438665D01*
X17254853Y-68161426D01*
X17146680Y-67900273D01*
X16989637Y-67665241D01*
X16789759Y-67465363D01*
X16635000Y-67361957D01*
X16635000Y-66989801D01*
X18290001Y-65334801D01*
X18290001Y-70805197D01*
X15364003Y-73731196D01*
X15334999Y-73754999D01*
X15290694Y-73808985D01*
X15240026Y-73870724D01*
X15225011Y-73898815D01*
X15169454Y-74002754D01*
X15125997Y-74146015D01*
X15115000Y-74257668D01*
X15115000Y-74257678D01*
X15111324Y-74295000D01*
X15115000Y-74332323D01*
X15115001Y-79337658D01*
X15115000Y-79337668D01*
X15115001Y-80696956D01*
X14960241Y-80800363D01*
X14760363Y-81000241D01*
X14603320Y-81235273D01*
X14495147Y-81496426D01*
X14440000Y-81773665D01*
X14440000Y-82056335D01*
X14495147Y-82333574D01*
X14603320Y-82594727D01*
X14760363Y-82829759D01*
X14960241Y-83029637D01*
X15192759Y-83185000D01*
X14960241Y-83340363D01*
X14760363Y-83540241D01*
X14603320Y-83775273D01*
X14495147Y-84036426D01*
X14440000Y-84313665D01*
X14440000Y-84596335D01*
X14495147Y-84873574D01*
X14603320Y-85134727D01*
X14760363Y-85369759D01*
X14960241Y-85569637D01*
X15195273Y-85726680D01*
X15456426Y-85834853D01*
X15733665Y-85890000D01*
X16016335Y-85890000D01*
X16293574Y-85834853D01*
X16554727Y-85726680D01*
X16789759Y-85569637D01*
X16989637Y-85369759D01*
X17020000Y-85324317D01*
X17020000Y-85410198D01*
X15363998Y-87066201D01*
X15335000Y-87089999D01*
X15311202Y-87118997D01*
X15311201Y-87118998D01*
X15240026Y-87205724D01*
X15169454Y-87337754D01*
X15145656Y-87416208D01*
X15125998Y-87481014D01*
X15115001Y-87592667D01*
X15111324Y-87630000D01*
X15115001Y-87667332D01*
X15115000Y-92761956D01*
X14960241Y-92865363D01*
X14760363Y-93065241D01*
X14603320Y-93300273D01*
X14495147Y-93561426D01*
X14440000Y-93838665D01*
X14440000Y-94121335D01*
X14495147Y-94398574D01*
X14603320Y-94659727D01*
X14760363Y-94894759D01*
X14960241Y-95094637D01*
X15192759Y-95250000D01*
X14960241Y-95405363D01*
X14760363Y-95605241D01*
X14603320Y-95840273D01*
X14495147Y-96101426D01*
X14440000Y-96378665D01*
X14440000Y-96661335D01*
X14495147Y-96938574D01*
X14603320Y-97199727D01*
X14760363Y-97434759D01*
X14960241Y-97634637D01*
X15195273Y-97791680D01*
X15456426Y-97899853D01*
X15733665Y-97955000D01*
X16016335Y-97955000D01*
X16293574Y-97899853D01*
X16554727Y-97791680D01*
X16789759Y-97634637D01*
X16989637Y-97434759D01*
X17146680Y-97199727D01*
X17254853Y-96938574D01*
X17310000Y-96661335D01*
X17310000Y-96378665D01*
X17254853Y-96101426D01*
X17146680Y-95840273D01*
X16989637Y-95605241D01*
X16789759Y-95405363D01*
X16557241Y-95250000D01*
X16789759Y-95094637D01*
X16989637Y-94894759D01*
X17146680Y-94659727D01*
X17254853Y-94398574D01*
X17310000Y-94121335D01*
X17310000Y-93838665D01*
X17254853Y-93561426D01*
X17146680Y-93300273D01*
X16989637Y-93065241D01*
X16789759Y-92865363D01*
X16635000Y-92761957D01*
X16635000Y-87944801D01*
X18025473Y-86554329D01*
X18210337Y-86830998D01*
X18452002Y-87072663D01*
X18736169Y-87262537D01*
X19051919Y-87393325D01*
X19387117Y-87460000D01*
X19728883Y-87460000D01*
X20064081Y-87393325D01*
X20379831Y-87262537D01*
X20449000Y-87216320D01*
X20449000Y-90490198D01*
X19046998Y-91892201D01*
X19018000Y-91915999D01*
X18994202Y-91944997D01*
X18994201Y-91944998D01*
X18923026Y-92031724D01*
X18852454Y-92163754D01*
X18808998Y-92307015D01*
X18794324Y-92456000D01*
X18798001Y-92493332D01*
X18798001Y-94146928D01*
X18458000Y-94146928D01*
X18333518Y-94159188D01*
X18213820Y-94195498D01*
X18103506Y-94254463D01*
X18006815Y-94333815D01*
X17927463Y-94430506D01*
X17868498Y-94540820D01*
X17832188Y-94660518D01*
X17819928Y-94785000D01*
X17819928Y-96985000D01*
X17832188Y-97109482D01*
X17868498Y-97229180D01*
X17927463Y-97339494D01*
X18006815Y-97436185D01*
X18103506Y-97515537D01*
X18213820Y-97574502D01*
X18333518Y-97610812D01*
X18458000Y-97623072D01*
X20658000Y-97623072D01*
X20782482Y-97610812D01*
X20902180Y-97574502D01*
X21012494Y-97515537D01*
X21109185Y-97436185D01*
X21188537Y-97339494D01*
X21209000Y-97301211D01*
X21229463Y-97339494D01*
X21308815Y-97436185D01*
X21405506Y-97515537D01*
X21515820Y-97574502D01*
X21635518Y-97610812D01*
X21760000Y-97623072D01*
X23960000Y-97623072D01*
X24084482Y-97610812D01*
X24204180Y-97574502D01*
X24314494Y-97515537D01*
X24411185Y-97436185D01*
X24490537Y-97339494D01*
X24549502Y-97229180D01*
X24585812Y-97109482D01*
X24598072Y-96985000D01*
X24598072Y-96272932D01*
X24607068Y-96318158D01*
X24719010Y-96588411D01*
X24881525Y-96831632D01*
X25088368Y-97038475D01*
X25331589Y-97200990D01*
X25601842Y-97312932D01*
X25888740Y-97370000D01*
X26181260Y-97370000D01*
X26468158Y-97312932D01*
X26738411Y-97200990D01*
X26981632Y-97038475D01*
X27188475Y-96831632D01*
X27305000Y-96657240D01*
X27421525Y-96831632D01*
X27628368Y-97038475D01*
X27871589Y-97200990D01*
X28141842Y-97312932D01*
X28428740Y-97370000D01*
X28721260Y-97370000D01*
X29008158Y-97312932D01*
X29185001Y-97239682D01*
X29185001Y-100940000D01*
X14538072Y-100940000D01*
X14538072Y-98735000D01*
X14525812Y-98610518D01*
X14489502Y-98490820D01*
X14430537Y-98380506D01*
X14351185Y-98283815D01*
X14254494Y-98204463D01*
X14144180Y-98145498D01*
X14024482Y-98109188D01*
X13900000Y-98096928D01*
X12100000Y-98096928D01*
X11975518Y-98109188D01*
X11855820Y-98145498D01*
X11745506Y-98204463D01*
X11648815Y-98283815D01*
X11569463Y-98380506D01*
X11510498Y-98490820D01*
X11474188Y-98610518D01*
X11461928Y-98735000D01*
X11461928Y-100940000D01*
X7788072Y-100940000D01*
X7788072Y-99735000D01*
X7775812Y-99610518D01*
X7739502Y-99490820D01*
X7680537Y-99380506D01*
X7601185Y-99283815D01*
X7504494Y-99204463D01*
X7394180Y-99145498D01*
X7274482Y-99109188D01*
X7150000Y-99096928D01*
X4650000Y-99096928D01*
X4525518Y-99109188D01*
X4405820Y-99145498D01*
X4295506Y-99204463D01*
X4198815Y-99283815D01*
X4119463Y-99380506D01*
X4060498Y-99490820D01*
X4024188Y-99610518D01*
X4011928Y-99735000D01*
X4011928Y-100940000D01*
X660000Y-100940000D01*
X660000Y-97756105D01*
X675518Y-97760812D01*
X800000Y-97773072D01*
X1414250Y-97770000D01*
X1573000Y-97611250D01*
X1573000Y-96012000D01*
X1827000Y-96012000D01*
X1827000Y-97611250D01*
X1985750Y-97770000D01*
X2600000Y-97773072D01*
X2724482Y-97760812D01*
X2844180Y-97724502D01*
X2954494Y-97665537D01*
X3051185Y-97586185D01*
X3130537Y-97489494D01*
X3189502Y-97379180D01*
X3225812Y-97259482D01*
X3238072Y-97135000D01*
X3235000Y-96170750D01*
X3076250Y-96012000D01*
X1827000Y-96012000D01*
X1573000Y-96012000D01*
X1553000Y-96012000D01*
X1553000Y-95758000D01*
X1573000Y-95758000D01*
X1573000Y-94158750D01*
X1827000Y-94158750D01*
X1827000Y-95758000D01*
X3076250Y-95758000D01*
X3235000Y-95599250D01*
X3238072Y-94635000D01*
X3225812Y-94510518D01*
X3189502Y-94390820D01*
X3130537Y-94280506D01*
X3051185Y-94183815D01*
X2954494Y-94104463D01*
X2844180Y-94045498D01*
X2724482Y-94009188D01*
X2600000Y-93996928D01*
X1985750Y-94000000D01*
X1827000Y-94158750D01*
X1573000Y-94158750D01*
X1414250Y-94000000D01*
X800000Y-93996928D01*
X675518Y-94009188D01*
X660000Y-94013895D01*
X660000Y-92385000D01*
X6711928Y-92385000D01*
X6711928Y-94185000D01*
X6724188Y-94309482D01*
X6760498Y-94429180D01*
X6819463Y-94539494D01*
X6898815Y-94636185D01*
X6995506Y-94715537D01*
X7105820Y-94774502D01*
X7225518Y-94810812D01*
X7350000Y-94823072D01*
X9850000Y-94823072D01*
X9974482Y-94810812D01*
X10094180Y-94774502D01*
X10204494Y-94715537D01*
X10301185Y-94636185D01*
X10380537Y-94539494D01*
X10439502Y-94429180D01*
X10475812Y-94309482D01*
X10488072Y-94185000D01*
X10488072Y-92385000D01*
X10475812Y-92260518D01*
X10439502Y-92140820D01*
X10403289Y-92073072D01*
X10850000Y-92073072D01*
X10974482Y-92060812D01*
X11094180Y-92024502D01*
X11204494Y-91965537D01*
X11301185Y-91886185D01*
X11380537Y-91789494D01*
X11439502Y-91679180D01*
X11475812Y-91559482D01*
X11488072Y-91435000D01*
X11488072Y-89935000D01*
X11475812Y-89810518D01*
X11439502Y-89690820D01*
X11380537Y-89580506D01*
X11301185Y-89483815D01*
X11204494Y-89404463D01*
X11094180Y-89345498D01*
X10974482Y-89309188D01*
X10850000Y-89296928D01*
X8350000Y-89296928D01*
X8225518Y-89309188D01*
X8105820Y-89345498D01*
X7995506Y-89404463D01*
X7898815Y-89483815D01*
X7819463Y-89580506D01*
X7760498Y-89690820D01*
X7724188Y-89810518D01*
X7711928Y-89935000D01*
X7711928Y-91435000D01*
X7724188Y-91559482D01*
X7760498Y-91679180D01*
X7796711Y-91746928D01*
X7350000Y-91746928D01*
X7225518Y-91759188D01*
X7105820Y-91795498D01*
X6995506Y-91854463D01*
X6898815Y-91933815D01*
X6819463Y-92030506D01*
X6760498Y-92140820D01*
X6724188Y-92260518D01*
X6711928Y-92385000D01*
X660000Y-92385000D01*
X660000Y-87035000D01*
X4011928Y-87035000D01*
X4011928Y-88535000D01*
X4024188Y-88659482D01*
X4060498Y-88779180D01*
X4119463Y-88889494D01*
X4198815Y-88986185D01*
X4295506Y-89065537D01*
X4405820Y-89124502D01*
X4525518Y-89160812D01*
X4650000Y-89173072D01*
X7150000Y-89173072D01*
X7274482Y-89160812D01*
X7394180Y-89124502D01*
X7504494Y-89065537D01*
X7601185Y-88986185D01*
X7680537Y-88889494D01*
X7739502Y-88779180D01*
X7775812Y-88659482D01*
X7788072Y-88535000D01*
X7788072Y-87035000D01*
X7775812Y-86910518D01*
X7739502Y-86790820D01*
X7680537Y-86680506D01*
X7601185Y-86583815D01*
X7504494Y-86504463D01*
X7394180Y-86445498D01*
X7274482Y-86409188D01*
X7150000Y-86396928D01*
X4650000Y-86396928D01*
X4525518Y-86409188D01*
X4405820Y-86445498D01*
X4295506Y-86504463D01*
X4198815Y-86583815D01*
X4119463Y-86680506D01*
X4060498Y-86790820D01*
X4024188Y-86910518D01*
X4011928Y-87035000D01*
X660000Y-87035000D01*
X660000Y-86035000D01*
X11461928Y-86035000D01*
X11461928Y-88535000D01*
X11474188Y-88659482D01*
X11510498Y-88779180D01*
X11569463Y-88889494D01*
X11648815Y-88986185D01*
X11745506Y-89065537D01*
X11855820Y-89124502D01*
X11975518Y-89160812D01*
X12100000Y-89173072D01*
X13900000Y-89173072D01*
X14024482Y-89160812D01*
X14144180Y-89124502D01*
X14254494Y-89065537D01*
X14351185Y-88986185D01*
X14430537Y-88889494D01*
X14489502Y-88779180D01*
X14525812Y-88659482D01*
X14538072Y-88535000D01*
X14538072Y-86035000D01*
X14525812Y-85910518D01*
X14489502Y-85790820D01*
X14430537Y-85680506D01*
X14351185Y-85583815D01*
X14254494Y-85504463D01*
X14144180Y-85445498D01*
X14024482Y-85409188D01*
X13900000Y-85396928D01*
X12100000Y-85396928D01*
X11975518Y-85409188D01*
X11855820Y-85445498D01*
X11745506Y-85504463D01*
X11648815Y-85583815D01*
X11569463Y-85680506D01*
X11510498Y-85790820D01*
X11474188Y-85910518D01*
X11461928Y-86035000D01*
X660000Y-86035000D01*
X660000Y-85056105D01*
X675518Y-85060812D01*
X800000Y-85073072D01*
X1414250Y-85070000D01*
X1573000Y-84911250D01*
X1573000Y-83312000D01*
X1827000Y-83312000D01*
X1827000Y-84911250D01*
X1985750Y-85070000D01*
X2600000Y-85073072D01*
X2724482Y-85060812D01*
X2844180Y-85024502D01*
X2954494Y-84965537D01*
X3051185Y-84886185D01*
X3130537Y-84789494D01*
X3189502Y-84679180D01*
X3225812Y-84559482D01*
X3238072Y-84435000D01*
X3235000Y-83470750D01*
X3076250Y-83312000D01*
X1827000Y-83312000D01*
X1573000Y-83312000D01*
X1553000Y-83312000D01*
X1553000Y-83058000D01*
X1573000Y-83058000D01*
X1573000Y-81458750D01*
X1827000Y-81458750D01*
X1827000Y-83058000D01*
X3076250Y-83058000D01*
X3235000Y-82899250D01*
X3238072Y-81935000D01*
X3225812Y-81810518D01*
X3189502Y-81690820D01*
X3130537Y-81580506D01*
X3051185Y-81483815D01*
X2954494Y-81404463D01*
X2844180Y-81345498D01*
X2724482Y-81309188D01*
X2600000Y-81296928D01*
X1985750Y-81300000D01*
X1827000Y-81458750D01*
X1573000Y-81458750D01*
X1414250Y-81300000D01*
X800000Y-81296928D01*
X675518Y-81309188D01*
X660000Y-81313895D01*
X660000Y-79685000D01*
X6711928Y-79685000D01*
X6711928Y-81485000D01*
X6724188Y-81609482D01*
X6760498Y-81729180D01*
X6819463Y-81839494D01*
X6898815Y-81936185D01*
X6995506Y-82015537D01*
X7105820Y-82074502D01*
X7225518Y-82110812D01*
X7350000Y-82123072D01*
X9850000Y-82123072D01*
X9974482Y-82110812D01*
X10094180Y-82074502D01*
X10204494Y-82015537D01*
X10301185Y-81936185D01*
X10380537Y-81839494D01*
X10439502Y-81729180D01*
X10475812Y-81609482D01*
X10488072Y-81485000D01*
X10488072Y-79685000D01*
X10475812Y-79560518D01*
X10439502Y-79440820D01*
X10403289Y-79373072D01*
X10850000Y-79373072D01*
X10974482Y-79360812D01*
X11094180Y-79324502D01*
X11204494Y-79265537D01*
X11301185Y-79186185D01*
X11380537Y-79089494D01*
X11439502Y-78979180D01*
X11475812Y-78859482D01*
X11488072Y-78735000D01*
X11488072Y-77235000D01*
X11475812Y-77110518D01*
X11439502Y-76990820D01*
X11380537Y-76880506D01*
X11301185Y-76783815D01*
X11204494Y-76704463D01*
X11094180Y-76645498D01*
X10974482Y-76609188D01*
X10850000Y-76596928D01*
X8350000Y-76596928D01*
X8225518Y-76609188D01*
X8105820Y-76645498D01*
X7995506Y-76704463D01*
X7898815Y-76783815D01*
X7819463Y-76880506D01*
X7760498Y-76990820D01*
X7724188Y-77110518D01*
X7711928Y-77235000D01*
X7711928Y-78735000D01*
X7724188Y-78859482D01*
X7760498Y-78979180D01*
X7796711Y-79046928D01*
X7350000Y-79046928D01*
X7225518Y-79059188D01*
X7105820Y-79095498D01*
X6995506Y-79154463D01*
X6898815Y-79233815D01*
X6819463Y-79330506D01*
X6760498Y-79440820D01*
X6724188Y-79560518D01*
X6711928Y-79685000D01*
X660000Y-79685000D01*
X660000Y-74350000D01*
X4011928Y-74350000D01*
X4011928Y-75850000D01*
X4024188Y-75974482D01*
X4060498Y-76094180D01*
X4119463Y-76204494D01*
X4198815Y-76301185D01*
X4295506Y-76380537D01*
X4405820Y-76439502D01*
X4525518Y-76475812D01*
X4650000Y-76488072D01*
X7150000Y-76488072D01*
X7274482Y-76475812D01*
X7394180Y-76439502D01*
X7504494Y-76380537D01*
X7601185Y-76301185D01*
X7680537Y-76204494D01*
X7739502Y-76094180D01*
X7775812Y-75974482D01*
X7788072Y-75850000D01*
X7788072Y-74350000D01*
X7775812Y-74225518D01*
X7739502Y-74105820D01*
X7680537Y-73995506D01*
X7601185Y-73898815D01*
X7504494Y-73819463D01*
X7394180Y-73760498D01*
X7274482Y-73724188D01*
X7150000Y-73711928D01*
X4650000Y-73711928D01*
X4525518Y-73724188D01*
X4405820Y-73760498D01*
X4295506Y-73819463D01*
X4198815Y-73898815D01*
X4119463Y-73995506D01*
X4060498Y-74105820D01*
X4024188Y-74225518D01*
X4011928Y-74350000D01*
X660000Y-74350000D01*
X660000Y-73350000D01*
X11461928Y-73350000D01*
X11461928Y-75850000D01*
X11474188Y-75974482D01*
X11510498Y-76094180D01*
X11569463Y-76204494D01*
X11648815Y-76301185D01*
X11745506Y-76380537D01*
X11855820Y-76439502D01*
X11975518Y-76475812D01*
X12100000Y-76488072D01*
X13900000Y-76488072D01*
X14024482Y-76475812D01*
X14144180Y-76439502D01*
X14254494Y-76380537D01*
X14351185Y-76301185D01*
X14430537Y-76204494D01*
X14489502Y-76094180D01*
X14525812Y-75974482D01*
X14538072Y-75850000D01*
X14538072Y-73350000D01*
X14525812Y-73225518D01*
X14489502Y-73105820D01*
X14430537Y-72995506D01*
X14351185Y-72898815D01*
X14254494Y-72819463D01*
X14144180Y-72760498D01*
X14024482Y-72724188D01*
X13900000Y-72711928D01*
X12100000Y-72711928D01*
X11975518Y-72724188D01*
X11855820Y-72760498D01*
X11745506Y-72819463D01*
X11648815Y-72898815D01*
X11569463Y-72995506D01*
X11510498Y-73105820D01*
X11474188Y-73225518D01*
X11461928Y-73350000D01*
X660000Y-73350000D01*
X660000Y-72371105D01*
X675518Y-72375812D01*
X800000Y-72388072D01*
X1414250Y-72385000D01*
X1573000Y-72226250D01*
X1573000Y-70627000D01*
X1827000Y-70627000D01*
X1827000Y-72226250D01*
X1985750Y-72385000D01*
X2600000Y-72388072D01*
X2724482Y-72375812D01*
X2844180Y-72339502D01*
X2954494Y-72280537D01*
X3051185Y-72201185D01*
X3130537Y-72104494D01*
X3189502Y-71994180D01*
X3225812Y-71874482D01*
X3238072Y-71750000D01*
X3235000Y-70785750D01*
X3076250Y-70627000D01*
X1827000Y-70627000D01*
X1573000Y-70627000D01*
X1553000Y-70627000D01*
X1553000Y-70373000D01*
X1573000Y-70373000D01*
X1573000Y-68773750D01*
X1827000Y-68773750D01*
X1827000Y-70373000D01*
X3076250Y-70373000D01*
X3235000Y-70214250D01*
X3238072Y-69250000D01*
X3225812Y-69125518D01*
X3189502Y-69005820D01*
X3130537Y-68895506D01*
X3051185Y-68798815D01*
X2954494Y-68719463D01*
X2844180Y-68660498D01*
X2724482Y-68624188D01*
X2600000Y-68611928D01*
X1985750Y-68615000D01*
X1827000Y-68773750D01*
X1573000Y-68773750D01*
X1414250Y-68615000D01*
X800000Y-68611928D01*
X675518Y-68624188D01*
X660000Y-68628895D01*
X660000Y-67000000D01*
X6711928Y-67000000D01*
X6711928Y-68800000D01*
X6724188Y-68924482D01*
X6760498Y-69044180D01*
X6819463Y-69154494D01*
X6898815Y-69251185D01*
X6995506Y-69330537D01*
X7105820Y-69389502D01*
X7225518Y-69425812D01*
X7350000Y-69438072D01*
X9850000Y-69438072D01*
X9974482Y-69425812D01*
X10094180Y-69389502D01*
X10204494Y-69330537D01*
X10301185Y-69251185D01*
X10380537Y-69154494D01*
X10439502Y-69044180D01*
X10475812Y-68924482D01*
X10488072Y-68800000D01*
X10488072Y-67000000D01*
X10475812Y-66875518D01*
X10439502Y-66755820D01*
X10403289Y-66688072D01*
X10850000Y-66688072D01*
X10974482Y-66675812D01*
X11094180Y-66639502D01*
X11204494Y-66580537D01*
X11301185Y-66501185D01*
X11380537Y-66404494D01*
X11439502Y-66294180D01*
X11475812Y-66174482D01*
X11488072Y-66050000D01*
X11488072Y-64550000D01*
X11475812Y-64425518D01*
X11439502Y-64305820D01*
X11380537Y-64195506D01*
X11301185Y-64098815D01*
X11204494Y-64019463D01*
X11094180Y-63960498D01*
X10974482Y-63924188D01*
X10850000Y-63911928D01*
X8350000Y-63911928D01*
X8225518Y-63924188D01*
X8105820Y-63960498D01*
X7995506Y-64019463D01*
X7898815Y-64098815D01*
X7819463Y-64195506D01*
X7760498Y-64305820D01*
X7724188Y-64425518D01*
X7711928Y-64550000D01*
X7711928Y-66050000D01*
X7724188Y-66174482D01*
X7760498Y-66294180D01*
X7796711Y-66361928D01*
X7350000Y-66361928D01*
X7225518Y-66374188D01*
X7105820Y-66410498D01*
X6995506Y-66469463D01*
X6898815Y-66548815D01*
X6819463Y-66645506D01*
X6760498Y-66755820D01*
X6724188Y-66875518D01*
X6711928Y-67000000D01*
X660000Y-67000000D01*
X660000Y-61762000D01*
X4011928Y-61762000D01*
X4011928Y-63262000D01*
X4024188Y-63386482D01*
X4060498Y-63506180D01*
X4119463Y-63616494D01*
X4198815Y-63713185D01*
X4295506Y-63792537D01*
X4405820Y-63851502D01*
X4525518Y-63887812D01*
X4650000Y-63900072D01*
X7150000Y-63900072D01*
X7274482Y-63887812D01*
X7394180Y-63851502D01*
X7504494Y-63792537D01*
X7601185Y-63713185D01*
X7680537Y-63616494D01*
X7739502Y-63506180D01*
X7775812Y-63386482D01*
X7788072Y-63262000D01*
X7788072Y-61762000D01*
X7775812Y-61637518D01*
X7739502Y-61517820D01*
X7680537Y-61407506D01*
X7601185Y-61310815D01*
X7504494Y-61231463D01*
X7394180Y-61172498D01*
X7274482Y-61136188D01*
X7150000Y-61123928D01*
X4650000Y-61123928D01*
X4525518Y-61136188D01*
X4405820Y-61172498D01*
X4295506Y-61231463D01*
X4198815Y-61310815D01*
X4119463Y-61407506D01*
X4060498Y-61517820D01*
X4024188Y-61637518D01*
X4011928Y-61762000D01*
X660000Y-61762000D01*
X660000Y-59783105D01*
X675518Y-59787812D01*
X800000Y-59800072D01*
X1414250Y-59797000D01*
X1573000Y-59638250D01*
X1573000Y-58039000D01*
X1827000Y-58039000D01*
X1827000Y-59638250D01*
X1985750Y-59797000D01*
X2600000Y-59800072D01*
X2724482Y-59787812D01*
X2844180Y-59751502D01*
X2954494Y-59692537D01*
X3051185Y-59613185D01*
X3130537Y-59516494D01*
X3189502Y-59406180D01*
X3225812Y-59286482D01*
X3238072Y-59162000D01*
X3235000Y-58197750D01*
X3076250Y-58039000D01*
X1827000Y-58039000D01*
X1573000Y-58039000D01*
X1553000Y-58039000D01*
X1553000Y-57785000D01*
X1573000Y-57785000D01*
X1573000Y-56185750D01*
X1414250Y-56027000D01*
X800000Y-56023928D01*
X675518Y-56036188D01*
X660000Y-56040895D01*
X660000Y-46321105D01*
X675518Y-46325812D01*
X800000Y-46338072D01*
X1414250Y-46335000D01*
X1573000Y-46176250D01*
X1573000Y-44577000D01*
X1553000Y-44577000D01*
X1553000Y-44323000D01*
X1573000Y-44323000D01*
X1573000Y-42723750D01*
X1414250Y-42565000D01*
X800000Y-42561928D01*
X675518Y-42574188D01*
X660000Y-42578895D01*
X660000Y-33621105D01*
X675518Y-33625812D01*
X800000Y-33638072D01*
X1414250Y-33635000D01*
X1573000Y-33476250D01*
X1573000Y-31877000D01*
X1553000Y-31877000D01*
X1553000Y-31623000D01*
X1573000Y-31623000D01*
X1573000Y-30023750D01*
X1414250Y-29865000D01*
X800000Y-29861928D01*
X675518Y-29874188D01*
X660000Y-29878895D01*
X660000Y-20921105D01*
X675518Y-20925812D01*
X800000Y-20938072D01*
X1414250Y-20935000D01*
X1573000Y-20776250D01*
X1573000Y-19177000D01*
X1553000Y-19177000D01*
X1553000Y-18923000D01*
X1573000Y-18923000D01*
X1573000Y-17323750D01*
X1414250Y-17165000D01*
X800000Y-17161928D01*
X675518Y-17174188D01*
X660000Y-17178895D01*
X660000Y-9200000D01*
X11461928Y-9200000D01*
X11461928Y-11700000D01*
X11474188Y-11824482D01*
X11510498Y-11944180D01*
X11569463Y-12054494D01*
X11648815Y-12151185D01*
X11745506Y-12230537D01*
X11855820Y-12289502D01*
X11975518Y-12325812D01*
X12100000Y-12338072D01*
X13900000Y-12338072D01*
X14024482Y-12325812D01*
X14144180Y-12289502D01*
X14254494Y-12230537D01*
X14351185Y-12151185D01*
X14430537Y-12054494D01*
X14489502Y-11944180D01*
X14525812Y-11824482D01*
X14538072Y-11700000D01*
X14538072Y-9200000D01*
X14525812Y-9075518D01*
X14489502Y-8955820D01*
X14430537Y-8845506D01*
X14351185Y-8748815D01*
X14254494Y-8669463D01*
X14144180Y-8610498D01*
X14024482Y-8574188D01*
X13900000Y-8561928D01*
X12100000Y-8561928D01*
X11975518Y-8574188D01*
X11855820Y-8610498D01*
X11745506Y-8669463D01*
X11648815Y-8748815D01*
X11569463Y-8845506D01*
X11510498Y-8955820D01*
X11474188Y-9075518D01*
X11461928Y-9200000D01*
X660000Y-9200000D01*
X660000Y-8221105D01*
X675518Y-8225812D01*
X800000Y-8238072D01*
X1414250Y-8235000D01*
X1573000Y-8076250D01*
X1573000Y-6477000D01*
X1827000Y-6477000D01*
X1827000Y-8076250D01*
X1985750Y-8235000D01*
X2600000Y-8238072D01*
X2724482Y-8225812D01*
X2844180Y-8189502D01*
X2954494Y-8130537D01*
X3051185Y-8051185D01*
X3130537Y-7954494D01*
X3189502Y-7844180D01*
X3225812Y-7724482D01*
X3238072Y-7600000D01*
X3237686Y-7478665D01*
X14440000Y-7478665D01*
X14440000Y-7761335D01*
X14495147Y-8038574D01*
X14603320Y-8299727D01*
X14760363Y-8534759D01*
X14960241Y-8734637D01*
X15195273Y-8891680D01*
X15456426Y-8999853D01*
X15733665Y-9055000D01*
X16016335Y-9055000D01*
X16293574Y-8999853D01*
X16554727Y-8891680D01*
X16789759Y-8734637D01*
X16989637Y-8534759D01*
X17146680Y-8299727D01*
X17254853Y-8038574D01*
X17310000Y-7761335D01*
X17310000Y-7478665D01*
X17254853Y-7201426D01*
X17146680Y-6940273D01*
X16989637Y-6705241D01*
X16789759Y-6505363D01*
X16554727Y-6348320D01*
X16543435Y-6343643D01*
X16612420Y-6311037D01*
X16838414Y-6143519D01*
X17027385Y-5935131D01*
X17172070Y-5693881D01*
X17266909Y-5429040D01*
X17145624Y-5207000D01*
X16002000Y-5207000D01*
X16002000Y-5227000D01*
X15748000Y-5227000D01*
X15748000Y-5207000D01*
X14604376Y-5207000D01*
X14483091Y-5429040D01*
X14577930Y-5693881D01*
X14722615Y-5935131D01*
X14911586Y-6143519D01*
X15137580Y-6311037D01*
X15206565Y-6343643D01*
X15195273Y-6348320D01*
X14960241Y-6505363D01*
X14760363Y-6705241D01*
X14603320Y-6940273D01*
X14495147Y-7201426D01*
X14440000Y-7478665D01*
X3237686Y-7478665D01*
X3235000Y-6635750D01*
X3076250Y-6477000D01*
X1827000Y-6477000D01*
X1573000Y-6477000D01*
X1553000Y-6477000D01*
X1553000Y-6223000D01*
X1573000Y-6223000D01*
X1573000Y-4623750D01*
X1827000Y-4623750D01*
X1827000Y-6223000D01*
X3076250Y-6223000D01*
X3235000Y-6064250D01*
X3238072Y-5100000D01*
X3225812Y-4975518D01*
X3189502Y-4855820D01*
X3130537Y-4745506D01*
X3051185Y-4648815D01*
X2954494Y-4569463D01*
X2844180Y-4510498D01*
X2724482Y-4474188D01*
X2600000Y-4461928D01*
X1985750Y-4465000D01*
X1827000Y-4623750D01*
X1573000Y-4623750D01*
X1414250Y-4465000D01*
X800000Y-4461928D01*
X675518Y-4474188D01*
X660000Y-4478895D01*
X660000Y-660000D01*
X7711928Y-660000D01*
X7711928Y-1900000D01*
G04 #@! TA.AperFunction,Conductor*
D25*
G36*
X7711928Y-1900000D02*
G01*
X7724188Y-2024482D01*
X7760498Y-2144180D01*
X7796711Y-2211928D01*
X7350000Y-2211928D01*
X7225518Y-2224188D01*
X7105820Y-2260498D01*
X6995506Y-2319463D01*
X6898815Y-2398815D01*
X6819463Y-2495506D01*
X6760498Y-2605820D01*
X6724188Y-2725518D01*
X6711928Y-2850000D01*
X6711928Y-4650000D01*
X6724188Y-4774482D01*
X6760498Y-4894180D01*
X6819463Y-5004494D01*
X6898815Y-5101185D01*
X6995506Y-5180537D01*
X7105820Y-5239502D01*
X7225518Y-5275812D01*
X7350000Y-5288072D01*
X9850000Y-5288072D01*
X9974482Y-5275812D01*
X10094180Y-5239502D01*
X10204494Y-5180537D01*
X10301185Y-5101185D01*
X10380537Y-5004494D01*
X10439502Y-4894180D01*
X10475812Y-4774482D01*
X10480098Y-4730960D01*
X14483091Y-4730960D01*
X14604376Y-4953000D01*
X15748000Y-4953000D01*
X15748000Y-3810085D01*
X16002000Y-3810085D01*
X16002000Y-4953000D01*
X17145624Y-4953000D01*
X17266909Y-4730960D01*
X17172070Y-4466119D01*
X17027385Y-4224869D01*
X16838414Y-4016481D01*
X16612420Y-3848963D01*
X16358087Y-3728754D01*
X16224039Y-3688096D01*
X16002000Y-3810085D01*
X15748000Y-3810085D01*
X15525961Y-3688096D01*
X15391913Y-3728754D01*
X15137580Y-3848963D01*
X14911586Y-4016481D01*
X14722615Y-4224869D01*
X14577930Y-4466119D01*
X14483091Y-4730960D01*
X10480098Y-4730960D01*
X10488072Y-4650000D01*
X10488072Y-2850000D01*
X10475812Y-2725518D01*
X10439502Y-2605820D01*
X10403289Y-2538072D01*
X10850000Y-2538072D01*
X10974482Y-2525812D01*
X11094180Y-2489502D01*
X11204494Y-2430537D01*
X11301185Y-2351185D01*
X11380537Y-2254494D01*
X11439502Y-2144180D01*
X11475812Y-2024482D01*
X11488072Y-1900000D01*
X11488072Y-660000D01*
X37440000Y-660000D01*
X37440001Y-71730000D01*
X30754479Y-71730000D01*
X30764000Y-71633333D01*
X30764000Y-71633332D01*
X30767677Y-71596000D01*
X30764000Y-71558667D01*
X30764000Y-69840364D01*
X30849506Y-69910537D01*
X30959820Y-69969502D01*
X31079518Y-70005812D01*
X31204000Y-70018072D01*
X31718250Y-70015000D01*
X31877000Y-69856250D01*
X31877000Y-68707000D01*
X32131000Y-68707000D01*
X32131000Y-69856250D01*
X32289750Y-70015000D01*
X32804000Y-70018072D01*
X32928482Y-70005812D01*
X33048180Y-69969502D01*
X33158494Y-69910537D01*
X33255185Y-69831185D01*
X33334537Y-69734494D01*
X33393502Y-69624180D01*
X33429812Y-69504482D01*
X33442072Y-69380000D01*
X33439000Y-68865750D01*
X33280250Y-68707000D01*
X32131000Y-68707000D01*
X31877000Y-68707000D01*
X31857000Y-68707000D01*
X31857000Y-68453000D01*
X31877000Y-68453000D01*
X31877000Y-67303750D01*
X32131000Y-67303750D01*
X32131000Y-68453000D01*
X33280250Y-68453000D01*
X33439000Y-68294250D01*
X33442072Y-67780000D01*
X33429812Y-67655518D01*
X33393502Y-67535820D01*
X33334537Y-67425506D01*
X33255185Y-67328815D01*
X33158494Y-67249463D01*
X33048180Y-67190498D01*
X32928482Y-67154188D01*
X32804000Y-67141928D01*
X32289750Y-67145000D01*
X32131000Y-67303750D01*
X31877000Y-67303750D01*
X31718250Y-67145000D01*
X31204000Y-67141928D01*
X31079518Y-67154188D01*
X30959820Y-67190498D01*
X30849506Y-67249463D01*
X30764000Y-67319636D01*
X30764000Y-66236322D01*
X30767676Y-66198999D01*
X30764000Y-66161676D01*
X30764000Y-66161667D01*
X30753003Y-66050014D01*
X30709546Y-65906753D01*
X30638974Y-65774724D01*
X30544001Y-65658999D01*
X30515003Y-65635201D01*
X29335000Y-64455199D01*
X29335000Y-50233711D01*
X29378937Y-50189774D01*
X29492205Y-50020256D01*
X29570226Y-49831898D01*
X29610000Y-49631939D01*
X29610000Y-49428061D01*
X29570226Y-49228102D01*
X29492205Y-49039744D01*
X29378937Y-48870226D01*
X29335000Y-48826289D01*
X29335000Y-41910000D01*
X29908057Y-41910000D01*
X29935764Y-42191309D01*
X30017818Y-42461808D01*
X30151068Y-42711101D01*
X30330392Y-42929608D01*
X30548899Y-43108932D01*
X30681858Y-43180000D01*
X30548899Y-43251068D01*
X30330392Y-43430392D01*
X30151068Y-43648899D01*
X30017818Y-43898192D01*
X29935764Y-44168691D01*
X29908057Y-44450000D01*
X29935764Y-44731309D01*
X30017818Y-45001808D01*
X30151068Y-45251101D01*
X30330392Y-45469608D01*
X30548899Y-45648932D01*
X30681858Y-45720000D01*
X30548899Y-45791068D01*
X30330392Y-45970392D01*
X30151068Y-46188899D01*
X30017818Y-46438192D01*
X29935764Y-46708691D01*
X29908057Y-46990000D01*
X29935764Y-47271309D01*
X30017818Y-47541808D01*
X30151068Y-47791101D01*
X30330392Y-48009608D01*
X30548899Y-48188932D01*
X30681858Y-48260000D01*
X30548899Y-48331068D01*
X30330392Y-48510392D01*
X30151068Y-48728899D01*
X30017818Y-48978192D01*
X29935764Y-49248691D01*
X29908057Y-49530000D01*
X29935764Y-49811309D01*
X30017818Y-50081808D01*
X30151068Y-50331101D01*
X30330392Y-50549608D01*
X30548899Y-50728932D01*
X30681858Y-50800000D01*
X30548899Y-50871068D01*
X30330392Y-51050392D01*
X30151068Y-51268899D01*
X30017818Y-51518192D01*
X29935764Y-51788691D01*
X29908057Y-52070000D01*
X29935764Y-52351309D01*
X30017818Y-52621808D01*
X30151068Y-52871101D01*
X30330392Y-53089608D01*
X30548899Y-53268932D01*
X30681858Y-53340000D01*
X30548899Y-53411068D01*
X30330392Y-53590392D01*
X30151068Y-53808899D01*
X30017818Y-54058192D01*
X29935764Y-54328691D01*
X29908057Y-54610000D01*
X29935764Y-54891309D01*
X30017818Y-55161808D01*
X30151068Y-55411101D01*
X30330392Y-55629608D01*
X30548899Y-55808932D01*
X30681858Y-55880000D01*
X30548899Y-55951068D01*
X30330392Y-56130392D01*
X30151068Y-56348899D01*
X30017818Y-56598192D01*
X29935764Y-56868691D01*
X29908057Y-57150000D01*
X29935764Y-57431309D01*
X30017818Y-57701808D01*
X30151068Y-57951101D01*
X30330392Y-58169608D01*
X30548899Y-58348932D01*
X30798192Y-58482182D01*
X31068691Y-58564236D01*
X31279508Y-58585000D01*
X32220492Y-58585000D01*
X32431309Y-58564236D01*
X32701808Y-58482182D01*
X32951101Y-58348932D01*
X33169608Y-58169608D01*
X33348932Y-57951101D01*
X33482182Y-57701808D01*
X33564236Y-57431309D01*
X33591943Y-57150000D01*
X33564236Y-56868691D01*
X33482182Y-56598192D01*
X33348932Y-56348899D01*
X33169608Y-56130392D01*
X32951101Y-55951068D01*
X32818142Y-55880000D01*
X32951101Y-55808932D01*
X33169608Y-55629608D01*
X33348932Y-55411101D01*
X33482182Y-55161808D01*
X33564236Y-54891309D01*
X33591943Y-54610000D01*
X33564236Y-54328691D01*
X33482182Y-54058192D01*
X33348932Y-53808899D01*
X33169608Y-53590392D01*
X32951101Y-53411068D01*
X32818142Y-53340000D01*
X32951101Y-53268932D01*
X33169608Y-53089608D01*
X33348932Y-52871101D01*
X33482182Y-52621808D01*
X33564236Y-52351309D01*
X33591943Y-52070000D01*
X33564236Y-51788691D01*
X33482182Y-51518192D01*
X33348932Y-51268899D01*
X33169608Y-51050392D01*
X32951101Y-50871068D01*
X32818142Y-50800000D01*
X32951101Y-50728932D01*
X33169608Y-50549608D01*
X33348932Y-50331101D01*
X33482182Y-50081808D01*
X33536217Y-49903678D01*
X33545147Y-49948574D01*
X33653320Y-50209727D01*
X33810363Y-50444759D01*
X34010241Y-50644637D01*
X34245273Y-50801680D01*
X34506426Y-50909853D01*
X34783665Y-50965000D01*
X35066335Y-50965000D01*
X35343574Y-50909853D01*
X35604727Y-50801680D01*
X35839759Y-50644637D01*
X36039637Y-50444759D01*
X36196680Y-50209727D01*
X36304853Y-49948574D01*
X36360000Y-49671335D01*
X36360000Y-49388665D01*
X36304853Y-49111426D01*
X36196680Y-48850273D01*
X36039637Y-48615241D01*
X35839759Y-48415363D01*
X35604727Y-48258320D01*
X35343574Y-48150147D01*
X35066335Y-48095000D01*
X34783665Y-48095000D01*
X34506426Y-48150147D01*
X34245273Y-48258320D01*
X34010241Y-48415363D01*
X33810363Y-48615241D01*
X33653320Y-48850273D01*
X33545147Y-49111426D01*
X33536217Y-49156322D01*
X33482182Y-48978192D01*
X33348932Y-48728899D01*
X33169608Y-48510392D01*
X32951101Y-48331068D01*
X32818142Y-48260000D01*
X32951101Y-48188932D01*
X33169608Y-48009608D01*
X33348932Y-47791101D01*
X33482182Y-47541808D01*
X33564236Y-47271309D01*
X33591943Y-46990000D01*
X33564236Y-46708691D01*
X33482182Y-46438192D01*
X33348932Y-46188899D01*
X33169608Y-45970392D01*
X32951101Y-45791068D01*
X32818142Y-45720000D01*
X32951101Y-45648932D01*
X33104912Y-45522702D01*
X34111903Y-45522702D01*
X34183486Y-45766671D01*
X34438996Y-45887571D01*
X34713184Y-45956300D01*
X34995512Y-45970217D01*
X35275130Y-45928787D01*
X35541292Y-45833603D01*
X35666514Y-45766671D01*
X35738097Y-45522702D01*
X34925000Y-44709605D01*
X34111903Y-45522702D01*
X33104912Y-45522702D01*
X33169608Y-45469608D01*
X33348932Y-45251101D01*
X33482182Y-45001808D01*
X33523876Y-44864359D01*
X33526213Y-44880130D01*
X33621397Y-45146292D01*
X33688329Y-45271514D01*
X33932298Y-45343097D01*
X34745395Y-44530000D01*
X35104605Y-44530000D01*
X35917702Y-45343097D01*
X36161671Y-45271514D01*
X36282571Y-45016004D01*
X36351300Y-44741816D01*
X36365217Y-44459488D01*
X36323787Y-44179870D01*
X36228603Y-43913708D01*
X36161671Y-43788486D01*
X35917702Y-43716903D01*
X35104605Y-44530000D01*
X34745395Y-44530000D01*
X33932298Y-43716903D01*
X33688329Y-43788486D01*
X33567429Y-44043996D01*
X33548870Y-44118035D01*
X33482182Y-43898192D01*
X33348932Y-43648899D01*
X33257344Y-43537298D01*
X34111903Y-43537298D01*
X34925000Y-44350395D01*
X35738097Y-43537298D01*
X35666514Y-43293329D01*
X35411004Y-43172429D01*
X35136816Y-43103700D01*
X34854488Y-43089783D01*
X34574870Y-43131213D01*
X34308708Y-43226397D01*
X34183486Y-43293329D01*
X34111903Y-43537298D01*
X33257344Y-43537298D01*
X33169608Y-43430392D01*
X32951101Y-43251068D01*
X32818142Y-43180000D01*
X32951101Y-43108932D01*
X33169608Y-42929608D01*
X33348932Y-42711101D01*
X33482182Y-42461808D01*
X33564236Y-42191309D01*
X33591943Y-41910000D01*
X33564236Y-41628691D01*
X33482182Y-41358192D01*
X33348932Y-41108899D01*
X33169608Y-40890392D01*
X32951101Y-40711068D01*
X32701808Y-40577818D01*
X32431309Y-40495764D01*
X32220492Y-40475000D01*
X31279508Y-40475000D01*
X31068691Y-40495764D01*
X30798192Y-40577818D01*
X30548899Y-40711068D01*
X30330392Y-40890392D01*
X30151068Y-41108899D01*
X30017818Y-41358192D01*
X29935764Y-41628691D01*
X29908057Y-41910000D01*
X29335000Y-41910000D01*
X29335000Y-24198711D01*
X29378937Y-24154774D01*
X29492205Y-23985256D01*
X29570226Y-23796898D01*
X29610000Y-23596939D01*
X29610000Y-23393061D01*
X29570226Y-23193102D01*
X29492205Y-23004744D01*
X29378937Y-22835226D01*
X29234774Y-22691063D01*
X29065256Y-22577795D01*
X28876898Y-22499774D01*
X28676939Y-22460000D01*
X28473061Y-22460000D01*
X28273102Y-22499774D01*
X28084744Y-22577795D01*
X27940000Y-22674510D01*
X27795256Y-22577795D01*
X27606898Y-22499774D01*
X27406939Y-22460000D01*
X27203061Y-22460000D01*
X27003102Y-22499774D01*
X26814744Y-22577795D01*
X26795000Y-22590987D01*
X26795000Y-21658711D01*
X26838937Y-21614774D01*
X26952205Y-21445256D01*
X27030226Y-21256898D01*
X27070000Y-21056939D01*
X27070000Y-20853061D01*
X27030226Y-20653102D01*
X26952205Y-20464744D01*
X26838937Y-20295226D01*
X26795000Y-20251289D01*
X26795000Y-15875000D01*
X29908057Y-15875000D01*
X29935764Y-16156309D01*
X30017818Y-16426808D01*
X30151068Y-16676101D01*
X30330392Y-16894608D01*
X30548899Y-17073932D01*
X30681858Y-17145000D01*
X30548899Y-17216068D01*
X30330392Y-17395392D01*
X30151068Y-17613899D01*
X30017818Y-17863192D01*
X29935764Y-18133691D01*
X29908057Y-18415000D01*
X29935764Y-18696309D01*
X30017818Y-18966808D01*
X30151068Y-19216101D01*
X30330392Y-19434608D01*
X30548899Y-19613932D01*
X30681858Y-19685000D01*
X30548899Y-19756068D01*
X30330392Y-19935392D01*
X30151068Y-20153899D01*
X30017818Y-20403192D01*
X29935764Y-20673691D01*
X29908057Y-20955000D01*
X29935764Y-21236309D01*
X30017818Y-21506808D01*
X30151068Y-21756101D01*
X30330392Y-21974608D01*
X30548899Y-22153932D01*
X30681858Y-22225000D01*
X30548899Y-22296068D01*
X30330392Y-22475392D01*
X30151068Y-22693899D01*
X30017818Y-22943192D01*
X29935764Y-23213691D01*
X29908057Y-23495000D01*
X29935764Y-23776309D01*
X30017818Y-24046808D01*
X30151068Y-24296101D01*
X30330392Y-24514608D01*
X30548899Y-24693932D01*
X30681858Y-24765000D01*
X30548899Y-24836068D01*
X30330392Y-25015392D01*
X30151068Y-25233899D01*
X30017818Y-25483192D01*
X29935764Y-25753691D01*
X29908057Y-26035000D01*
X29935764Y-26316309D01*
X30017818Y-26586808D01*
X30151068Y-26836101D01*
X30330392Y-27054608D01*
X30548899Y-27233932D01*
X30681858Y-27305000D01*
X30548899Y-27376068D01*
X30330392Y-27555392D01*
X30151068Y-27773899D01*
X30017818Y-28023192D01*
X29935764Y-28293691D01*
X29908057Y-28575000D01*
X29935764Y-28856309D01*
X30017818Y-29126808D01*
X30151068Y-29376101D01*
X30330392Y-29594608D01*
X30548899Y-29773932D01*
X30681858Y-29845000D01*
X30548899Y-29916068D01*
X30330392Y-30095392D01*
X30151068Y-30313899D01*
X30017818Y-30563192D01*
X29935764Y-30833691D01*
X29908057Y-31115000D01*
X29935764Y-31396309D01*
X30017818Y-31666808D01*
X30151068Y-31916101D01*
X30330392Y-32134608D01*
X30548899Y-32313932D01*
X30798192Y-32447182D01*
X31068691Y-32529236D01*
X31279508Y-32550000D01*
X32220492Y-32550000D01*
X32431309Y-32529236D01*
X32701808Y-32447182D01*
X32951101Y-32313932D01*
X33169608Y-32134608D01*
X33348932Y-31916101D01*
X33482182Y-31666808D01*
X33564236Y-31396309D01*
X33591943Y-31115000D01*
X33564236Y-30833691D01*
X33482182Y-30563192D01*
X33348932Y-30313899D01*
X33169608Y-30095392D01*
X32951101Y-29916068D01*
X32818142Y-29845000D01*
X32951101Y-29773932D01*
X33169608Y-29594608D01*
X33348932Y-29376101D01*
X33482182Y-29126808D01*
X33564236Y-28856309D01*
X33591943Y-28575000D01*
X33564236Y-28293691D01*
X33482182Y-28023192D01*
X33348932Y-27773899D01*
X33169608Y-27555392D01*
X32951101Y-27376068D01*
X32818142Y-27305000D01*
X32951101Y-27233932D01*
X33169608Y-27054608D01*
X33348932Y-26836101D01*
X33482182Y-26586808D01*
X33564236Y-26316309D01*
X33591943Y-26035000D01*
X33564236Y-25753691D01*
X33482182Y-25483192D01*
X33348932Y-25233899D01*
X33169608Y-25015392D01*
X32951101Y-24836068D01*
X32818142Y-24765000D01*
X32951101Y-24693932D01*
X33169608Y-24514608D01*
X33348932Y-24296101D01*
X33482182Y-24046808D01*
X33536217Y-23868678D01*
X33545147Y-23913574D01*
X33653320Y-24174727D01*
X33810363Y-24409759D01*
X34010241Y-24609637D01*
X34245273Y-24766680D01*
X34506426Y-24874853D01*
X34783665Y-24930000D01*
X35066335Y-24930000D01*
X35343574Y-24874853D01*
X35604727Y-24766680D01*
X35839759Y-24609637D01*
X36039637Y-24409759D01*
X36196680Y-24174727D01*
X36304853Y-23913574D01*
X36360000Y-23636335D01*
X36360000Y-23353665D01*
X36304853Y-23076426D01*
X36196680Y-22815273D01*
X36039637Y-22580241D01*
X35839759Y-22380363D01*
X35604727Y-22223320D01*
X35343574Y-22115147D01*
X35066335Y-22060000D01*
X34783665Y-22060000D01*
X34506426Y-22115147D01*
X34245273Y-22223320D01*
X34010241Y-22380363D01*
X33810363Y-22580241D01*
X33653320Y-22815273D01*
X33545147Y-23076426D01*
X33536217Y-23121322D01*
X33482182Y-22943192D01*
X33348932Y-22693899D01*
X33169608Y-22475392D01*
X32951101Y-22296068D01*
X32818142Y-22225000D01*
X32951101Y-22153932D01*
X33169608Y-21974608D01*
X33348932Y-21756101D01*
X33482182Y-21506808D01*
X33564236Y-21236309D01*
X33591943Y-20955000D01*
X33564236Y-20673691D01*
X33482182Y-20403192D01*
X33348932Y-20153899D01*
X33169608Y-19935392D01*
X32951101Y-19756068D01*
X32818142Y-19685000D01*
X32951101Y-19613932D01*
X33104912Y-19487702D01*
X34111903Y-19487702D01*
X34183486Y-19731671D01*
X34438996Y-19852571D01*
X34713184Y-19921300D01*
X34995512Y-19935217D01*
X35275130Y-19893787D01*
X35541292Y-19798603D01*
X35666514Y-19731671D01*
X35738097Y-19487702D01*
X34925000Y-18674605D01*
X34111903Y-19487702D01*
X33104912Y-19487702D01*
X33169608Y-19434608D01*
X33348932Y-19216101D01*
X33482182Y-18966808D01*
X33523876Y-18829359D01*
X33526213Y-18845130D01*
X33621397Y-19111292D01*
X33688329Y-19236514D01*
X33932298Y-19308097D01*
X34745395Y-18495000D01*
X35104605Y-18495000D01*
X35917702Y-19308097D01*
X36161671Y-19236514D01*
X36282571Y-18981004D01*
X36351300Y-18706816D01*
X36365217Y-18424488D01*
X36323787Y-18144870D01*
X36228603Y-17878708D01*
X36161671Y-17753486D01*
X35917702Y-17681903D01*
X35104605Y-18495000D01*
X34745395Y-18495000D01*
X33932298Y-17681903D01*
X33688329Y-17753486D01*
X33567429Y-18008996D01*
X33548870Y-18083035D01*
X33482182Y-17863192D01*
X33348932Y-17613899D01*
X33257344Y-17502298D01*
X34111903Y-17502298D01*
X34925000Y-18315395D01*
X35738097Y-17502298D01*
X35666514Y-17258329D01*
X35411004Y-17137429D01*
X35136816Y-17068700D01*
X34854488Y-17054783D01*
X34574870Y-17096213D01*
X34308708Y-17191397D01*
X34183486Y-17258329D01*
X34111903Y-17502298D01*
X33257344Y-17502298D01*
X33169608Y-17395392D01*
X32951101Y-17216068D01*
X32818142Y-17145000D01*
X32951101Y-17073932D01*
X33169608Y-16894608D01*
X33348932Y-16676101D01*
X33482182Y-16426808D01*
X33564236Y-16156309D01*
X33591943Y-15875000D01*
X33564236Y-15593691D01*
X33482182Y-15323192D01*
X33348932Y-15073899D01*
X33169608Y-14855392D01*
X32951101Y-14676068D01*
X32701808Y-14542818D01*
X32431309Y-14460764D01*
X32220492Y-14440000D01*
X31279508Y-14440000D01*
X31068691Y-14460764D01*
X30798192Y-14542818D01*
X30548899Y-14676068D01*
X30330392Y-14855392D01*
X30151068Y-15073899D01*
X30017818Y-15323192D01*
X29935764Y-15593691D01*
X29908057Y-15875000D01*
X26795000Y-15875000D01*
X26795000Y-8323711D01*
X26838937Y-8279774D01*
X26952205Y-8110256D01*
X27030226Y-7921898D01*
X27070000Y-7721939D01*
X27070000Y-7518061D01*
X27030226Y-7318102D01*
X26952205Y-7129744D01*
X26838937Y-6960226D01*
X26694774Y-6816063D01*
X26525256Y-6702795D01*
X26336898Y-6624774D01*
X26136939Y-6585000D01*
X25933061Y-6585000D01*
X25733102Y-6624774D01*
X25544744Y-6702795D01*
X25375226Y-6816063D01*
X25231063Y-6960226D01*
X25117795Y-7129744D01*
X25039774Y-7318102D01*
X25000000Y-7518061D01*
X25000000Y-7721939D01*
X25039774Y-7921898D01*
X25117795Y-8110256D01*
X25231063Y-8279774D01*
X25275001Y-8323712D01*
X25275000Y-14436928D01*
X22930000Y-14436928D01*
X22805518Y-14449188D01*
X22685820Y-14485498D01*
X22575506Y-14544463D01*
X22478815Y-14623815D01*
X22399463Y-14720506D01*
X22340498Y-14830820D01*
X22304188Y-14950518D01*
X22291928Y-15075000D01*
X22291928Y-16675000D01*
X22304188Y-16799482D01*
X22340498Y-16919180D01*
X22399463Y-17029494D01*
X22478815Y-17126185D01*
X22575506Y-17205537D01*
X22685820Y-17264502D01*
X22805518Y-17300812D01*
X22823482Y-17302581D01*
X22710392Y-17395392D01*
X22531068Y-17613899D01*
X22397818Y-17863192D01*
X22331380Y-18082213D01*
X22258603Y-17878708D01*
X22191671Y-17753486D01*
X21947702Y-17681903D01*
X21134605Y-18495000D01*
X21947702Y-19308097D01*
X22191671Y-19236514D01*
X22312571Y-18981004D01*
X22353090Y-18819358D01*
X22397818Y-18966808D01*
X22531068Y-19216101D01*
X22710392Y-19434608D01*
X22928899Y-19613932D01*
X23061858Y-19685000D01*
X22928899Y-19756068D01*
X22710392Y-19935392D01*
X22531068Y-20153899D01*
X22397818Y-20403192D01*
X22315764Y-20673691D01*
X22288057Y-20955000D01*
X22315764Y-21236309D01*
X22397818Y-21506808D01*
X22531068Y-21756101D01*
X22710392Y-21974608D01*
X22928899Y-22153932D01*
X23061858Y-22225000D01*
X22928899Y-22296068D01*
X22710392Y-22475392D01*
X22531068Y-22693899D01*
X22397818Y-22943192D01*
X22343783Y-23121322D01*
X22334853Y-23076426D01*
X22226680Y-22815273D01*
X22069637Y-22580241D01*
X21869759Y-22380363D01*
X21634727Y-22223320D01*
X21373574Y-22115147D01*
X21096335Y-22060000D01*
X20813665Y-22060000D01*
X20536426Y-22115147D01*
X20275273Y-22223320D01*
X20040241Y-22380363D01*
X19840363Y-22580241D01*
X19683320Y-22815273D01*
X19575147Y-23076426D01*
X19520000Y-23353665D01*
X19520000Y-23636335D01*
X19575147Y-23913574D01*
X19683320Y-24174727D01*
X19840363Y-24409759D01*
X20040241Y-24609637D01*
X20275273Y-24766680D01*
X20536426Y-24874853D01*
X20813665Y-24930000D01*
X21096335Y-24930000D01*
X21373574Y-24874853D01*
X21634727Y-24766680D01*
X21869759Y-24609637D01*
X22069637Y-24409759D01*
X22226680Y-24174727D01*
X22334853Y-23913574D01*
X22343783Y-23868678D01*
X22397818Y-24046808D01*
X22531068Y-24296101D01*
X22710392Y-24514608D01*
X22928899Y-24693932D01*
X23061858Y-24765000D01*
X22928899Y-24836068D01*
X22710392Y-25015392D01*
X22531068Y-25233899D01*
X22397818Y-25483192D01*
X22315764Y-25753691D01*
X22288057Y-26035000D01*
X22315764Y-26316309D01*
X22397818Y-26586808D01*
X22531068Y-26836101D01*
X22710392Y-27054608D01*
X22928899Y-27233932D01*
X23061858Y-27305000D01*
X22928899Y-27376068D01*
X22710392Y-27555392D01*
X22531068Y-27773899D01*
X22397818Y-28023192D01*
X22315764Y-28293691D01*
X22288057Y-28575000D01*
X22315764Y-28856309D01*
X22397818Y-29126808D01*
X22531068Y-29376101D01*
X22710392Y-29594608D01*
X22928899Y-29773932D01*
X23061858Y-29845000D01*
X22928899Y-29916068D01*
X22710392Y-30095392D01*
X22531068Y-30313899D01*
X22397818Y-30563192D01*
X22315764Y-30833691D01*
X22288057Y-31115000D01*
X22315764Y-31396309D01*
X22397818Y-31666808D01*
X22531068Y-31916101D01*
X22710392Y-32134608D01*
X22928899Y-32313932D01*
X23178192Y-32447182D01*
X23448691Y-32529236D01*
X23659508Y-32550000D01*
X24600492Y-32550000D01*
X24811309Y-32529236D01*
X25081808Y-32447182D01*
X25331101Y-32313932D01*
X25549608Y-32134608D01*
X25728932Y-31916101D01*
X25862182Y-31666808D01*
X25944236Y-31396309D01*
X25971943Y-31115000D01*
X25944236Y-30833691D01*
X25862182Y-30563192D01*
X25728932Y-30313899D01*
X25549608Y-30095392D01*
X25331101Y-29916068D01*
X25198142Y-29845000D01*
X25331101Y-29773932D01*
X25549608Y-29594608D01*
X25728932Y-29376101D01*
X25862182Y-29126808D01*
X25944236Y-28856309D01*
X25971943Y-28575000D01*
X25944236Y-28293691D01*
X25862182Y-28023192D01*
X25728932Y-27773899D01*
X25549608Y-27555392D01*
X25331101Y-27376068D01*
X25198142Y-27305000D01*
X25331101Y-27233932D01*
X25549608Y-27054608D01*
X25611093Y-26979688D01*
X25733102Y-27030226D01*
X25933061Y-27070000D01*
X26136939Y-27070000D01*
X26336898Y-27030226D01*
X26525256Y-26952205D01*
X26545001Y-26939012D01*
X26545000Y-46092689D01*
X26356898Y-46014774D01*
X26156939Y-45975000D01*
X25953061Y-45975000D01*
X25753102Y-46014774D01*
X25628417Y-46066421D01*
X25549608Y-45970392D01*
X25331101Y-45791068D01*
X25198142Y-45720000D01*
X25331101Y-45648932D01*
X25549608Y-45469608D01*
X25728932Y-45251101D01*
X25862182Y-45001808D01*
X25944236Y-44731309D01*
X25971943Y-44450000D01*
X25944236Y-44168691D01*
X25862182Y-43898192D01*
X25728932Y-43648899D01*
X25549608Y-43430392D01*
X25436518Y-43337581D01*
X25454482Y-43335812D01*
X25574180Y-43299502D01*
X25684494Y-43240537D01*
X25781185Y-43161185D01*
X25860537Y-43064494D01*
X25919502Y-42954180D01*
X25955812Y-42834482D01*
X25968072Y-42710000D01*
X25968072Y-41110000D01*
X25955812Y-40985518D01*
X25919502Y-40865820D01*
X25860537Y-40755506D01*
X25781185Y-40658815D01*
X25684494Y-40579463D01*
X25574180Y-40520498D01*
X25454482Y-40484188D01*
X25330000Y-40471928D01*
X22930000Y-40471928D01*
X22805518Y-40484188D01*
X22685820Y-40520498D01*
X22575506Y-40579463D01*
X22478815Y-40658815D01*
X22399463Y-40755506D01*
X22340498Y-40865820D01*
X22304188Y-40985518D01*
X22291928Y-41110000D01*
X22291928Y-42710000D01*
X22304188Y-42834482D01*
X22340498Y-42954180D01*
X22399463Y-43064494D01*
X22478815Y-43161185D01*
X22575506Y-43240537D01*
X22685820Y-43299502D01*
X22805518Y-43335812D01*
X22823482Y-43337581D01*
X22710392Y-43430392D01*
X22531068Y-43648899D01*
X22397818Y-43898192D01*
X22331380Y-44117213D01*
X22258603Y-43913708D01*
X22191671Y-43788486D01*
X21947702Y-43716903D01*
X21134605Y-44530000D01*
X21947702Y-45343097D01*
X22191671Y-45271514D01*
X22312571Y-45016004D01*
X22353090Y-44854358D01*
X22397818Y-45001808D01*
X22531068Y-45251101D01*
X22710392Y-45469608D01*
X22928899Y-45648932D01*
X23061858Y-45720000D01*
X22928899Y-45791068D01*
X22710392Y-45970392D01*
X22531068Y-46188899D01*
X22397818Y-46438192D01*
X22315764Y-46708691D01*
X22288057Y-46990000D01*
X22315764Y-47271309D01*
X22397818Y-47541808D01*
X22531068Y-47791101D01*
X22710392Y-48009608D01*
X22928899Y-48188932D01*
X23061858Y-48260000D01*
X22928899Y-48331068D01*
X22710392Y-48510392D01*
X22531068Y-48728899D01*
X22397818Y-48978192D01*
X22343783Y-49156322D01*
X22334853Y-49111426D01*
X22226680Y-48850273D01*
X22069637Y-48615241D01*
X21869759Y-48415363D01*
X21634727Y-48258320D01*
X21373574Y-48150147D01*
X21096335Y-48095000D01*
X20813665Y-48095000D01*
X20536426Y-48150147D01*
X20275273Y-48258320D01*
X20040241Y-48415363D01*
X19840363Y-48615241D01*
X19683320Y-48850273D01*
X19575147Y-49111426D01*
X19520000Y-49388665D01*
X19520000Y-49671335D01*
X19575147Y-49948574D01*
X19683320Y-50209727D01*
X19840363Y-50444759D01*
X20040241Y-50644637D01*
X20275273Y-50801680D01*
X20536426Y-50909853D01*
X20813665Y-50965000D01*
X21096335Y-50965000D01*
X21373574Y-50909853D01*
X21634727Y-50801680D01*
X21869759Y-50644637D01*
X22069637Y-50444759D01*
X22226680Y-50209727D01*
X22334853Y-49948574D01*
X22343783Y-49903678D01*
X22397818Y-50081808D01*
X22531068Y-50331101D01*
X22710392Y-50549608D01*
X22928899Y-50728932D01*
X23061858Y-50800000D01*
X22928899Y-50871068D01*
X22710392Y-51050392D01*
X22531068Y-51268899D01*
X22397818Y-51518192D01*
X22315764Y-51788691D01*
X22288057Y-52070000D01*
X22315764Y-52351309D01*
X22397818Y-52621808D01*
X22531068Y-52871101D01*
X22710392Y-53089608D01*
X22928899Y-53268932D01*
X23061858Y-53340000D01*
X22928899Y-53411068D01*
X22710392Y-53590392D01*
X22531068Y-53808899D01*
X22397818Y-54058192D01*
X22315764Y-54328691D01*
X22288057Y-54610000D01*
X22315764Y-54891309D01*
X22397818Y-55161808D01*
X22531068Y-55411101D01*
X22710392Y-55629608D01*
X22928899Y-55808932D01*
X23061858Y-55880000D01*
X22928899Y-55951068D01*
X22710392Y-56130392D01*
X22531068Y-56348899D01*
X22397818Y-56598192D01*
X22315764Y-56868691D01*
X22288057Y-57150000D01*
X22315764Y-57431309D01*
X22397818Y-57701808D01*
X22531068Y-57951101D01*
X22710392Y-58169608D01*
X22928899Y-58348932D01*
X23178192Y-58482182D01*
X23448691Y-58564236D01*
X23659508Y-58585000D01*
X24600492Y-58585000D01*
X24811309Y-58564236D01*
X25081808Y-58482182D01*
X25331101Y-58348932D01*
X25549608Y-58169608D01*
X25728932Y-57951101D01*
X25862182Y-57701808D01*
X25944236Y-57431309D01*
X25971943Y-57150000D01*
X25944236Y-56868691D01*
X25862182Y-56598192D01*
X25728932Y-56348899D01*
X25549608Y-56130392D01*
X25331101Y-55951068D01*
X25198142Y-55880000D01*
X25331101Y-55808932D01*
X25549608Y-55629608D01*
X25728932Y-55411101D01*
X25862182Y-55161808D01*
X25944236Y-54891309D01*
X25971943Y-54610000D01*
X25944236Y-54328691D01*
X25862182Y-54058192D01*
X25728932Y-53808899D01*
X25549608Y-53590392D01*
X25331101Y-53411068D01*
X25198142Y-53340000D01*
X25331101Y-53268932D01*
X25549608Y-53089608D01*
X25628417Y-52993579D01*
X25753102Y-53045226D01*
X25953061Y-53085000D01*
X26156939Y-53085000D01*
X26356898Y-53045226D01*
X26545001Y-52967311D01*
X26545000Y-64455198D01*
X25396998Y-65603201D01*
X25368000Y-65626999D01*
X25344202Y-65655997D01*
X25344201Y-65655998D01*
X25273026Y-65742724D01*
X25202454Y-65874754D01*
X25158998Y-66018015D01*
X25144324Y-66167000D01*
X25148001Y-66204332D01*
X25148001Y-67141928D01*
X25108000Y-67141928D01*
X24983518Y-67154188D01*
X24863820Y-67190498D01*
X24753506Y-67249463D01*
X24656815Y-67328815D01*
X24646193Y-67341758D01*
X24394004Y-67222429D01*
X24119816Y-67153700D01*
X23837488Y-67139783D01*
X23557870Y-67181213D01*
X23291708Y-67276397D01*
X23166486Y-67343329D01*
X23094903Y-67587298D01*
X23908000Y-68400395D01*
X23922143Y-68386253D01*
X24101748Y-68565858D01*
X24087605Y-68580000D01*
X24101748Y-68594143D01*
X23922143Y-68773748D01*
X23908000Y-68759605D01*
X23094903Y-69572702D01*
X23166486Y-69816671D01*
X23421996Y-69937571D01*
X23696184Y-70006300D01*
X23978512Y-70020217D01*
X24258130Y-69978787D01*
X24524292Y-69883603D01*
X24646309Y-69818384D01*
X24656815Y-69831185D01*
X24753506Y-69910537D01*
X24863820Y-69969502D01*
X24983518Y-70005812D01*
X25108000Y-70018072D01*
X25148000Y-70018072D01*
X25148000Y-70297198D01*
X25085199Y-70360000D01*
X22897333Y-70360000D01*
X22860000Y-70356323D01*
X22822667Y-70360000D01*
X22711014Y-70370997D01*
X22567753Y-70414454D01*
X22435724Y-70485026D01*
X22319999Y-70579999D01*
X22296201Y-70608997D01*
X20697998Y-72207201D01*
X20669000Y-72230999D01*
X20645202Y-72259997D01*
X20645201Y-72259998D01*
X20574026Y-72346724D01*
X20503454Y-72478754D01*
X20491130Y-72519383D01*
X20459998Y-72622014D01*
X20451142Y-72711928D01*
X20445324Y-72771000D01*
X20449001Y-72808332D01*
X20449000Y-82766667D01*
X20449000Y-82968332D01*
X20449001Y-82968342D01*
X20449001Y-84233681D01*
X20379831Y-84187463D01*
X20064081Y-84056675D01*
X19728883Y-83990000D01*
X19387117Y-83990000D01*
X19051919Y-84056675D01*
X18736169Y-84187463D01*
X18540000Y-84318539D01*
X18540000Y-73974801D01*
X20831009Y-71683794D01*
X20860001Y-71660001D01*
X20883795Y-71631008D01*
X20883799Y-71631004D01*
X20954973Y-71544277D01*
X20954974Y-71544276D01*
X21025546Y-71412247D01*
X21069003Y-71268986D01*
X21080000Y-71157333D01*
X21080000Y-71157324D01*
X21083676Y-71120001D01*
X21080000Y-71082678D01*
X21080000Y-68650512D01*
X22467783Y-68650512D01*
X22509213Y-68930130D01*
X22604397Y-69196292D01*
X22671329Y-69321514D01*
X22915298Y-69393097D01*
X23728395Y-68580000D01*
X22915298Y-67766903D01*
X22671329Y-67838486D01*
X22550429Y-68093996D01*
X22481700Y-68368184D01*
X22467783Y-68650512D01*
X21080000Y-68650512D01*
X21080000Y-59123711D01*
X21123937Y-59079774D01*
X21237205Y-58910256D01*
X21315226Y-58721898D01*
X21355000Y-58521939D01*
X21355000Y-58318061D01*
X21315226Y-58118102D01*
X21237205Y-57929744D01*
X21123937Y-57760226D01*
X20979774Y-57616063D01*
X20810256Y-57502795D01*
X20621898Y-57424774D01*
X20421939Y-57385000D01*
X20218061Y-57385000D01*
X20051961Y-57418039D01*
X20085000Y-57251939D01*
X20085000Y-57048061D01*
X20045226Y-56848102D01*
X19967205Y-56659744D01*
X19853937Y-56490226D01*
X19709774Y-56346063D01*
X19540256Y-56232795D01*
X19351898Y-56154774D01*
X19151939Y-56115000D01*
X18948061Y-56115000D01*
X18748102Y-56154774D01*
X18559744Y-56232795D01*
X18540000Y-56245987D01*
X18540000Y-46423711D01*
X18583937Y-46379774D01*
X18697205Y-46210256D01*
X18775226Y-46021898D01*
X18815000Y-45821939D01*
X18815000Y-45618061D01*
X18796033Y-45522702D01*
X20141903Y-45522702D01*
X20213486Y-45766671D01*
X20468996Y-45887571D01*
X20743184Y-45956300D01*
X21025512Y-45970217D01*
X21305130Y-45928787D01*
X21571292Y-45833603D01*
X21696514Y-45766671D01*
X21768097Y-45522702D01*
X20955000Y-44709605D01*
X20141903Y-45522702D01*
X18796033Y-45522702D01*
X18775226Y-45418102D01*
X18697205Y-45229744D01*
X18583937Y-45060226D01*
X18439774Y-44916063D01*
X18270256Y-44802795D01*
X18081898Y-44724774D01*
X17881939Y-44685000D01*
X17678061Y-44685000D01*
X17478102Y-44724774D01*
X17289744Y-44802795D01*
X17120226Y-44916063D01*
X17086333Y-44949956D01*
X16989637Y-44805241D01*
X16789759Y-44605363D01*
X16782499Y-44600512D01*
X19514783Y-44600512D01*
X19556213Y-44880130D01*
X19651397Y-45146292D01*
X19718329Y-45271514D01*
X19962298Y-45343097D01*
X20775395Y-44530000D01*
X19962298Y-43716903D01*
X19718329Y-43788486D01*
X19597429Y-44043996D01*
X19528700Y-44318184D01*
X19514783Y-44600512D01*
X16782499Y-44600512D01*
X16557241Y-44450000D01*
X16789759Y-44294637D01*
X16989637Y-44094759D01*
X17146680Y-43859727D01*
X17254853Y-43598574D01*
X17310000Y-43321335D01*
X17310000Y-43038665D01*
X17254853Y-42761426D01*
X17146680Y-42500273D01*
X16989637Y-42265241D01*
X16789759Y-42065363D01*
X16554727Y-41908320D01*
X16293574Y-41800147D01*
X16016335Y-41745000D01*
X15733665Y-41745000D01*
X15456426Y-41800147D01*
X15195273Y-41908320D01*
X14960241Y-42065363D01*
X14760363Y-42265241D01*
X14603320Y-42500273D01*
X14495147Y-42761426D01*
X14440000Y-43038665D01*
X14440000Y-43321335D01*
X14495147Y-43598574D01*
X14603320Y-43859727D01*
X14760363Y-44094759D01*
X14960241Y-44294637D01*
X15192759Y-44450000D01*
X14960241Y-44605363D01*
X14760363Y-44805241D01*
X14603320Y-45040273D01*
X14495147Y-45301426D01*
X14440000Y-45578665D01*
X14440000Y-45861335D01*
X14495147Y-46138574D01*
X14603320Y-46399727D01*
X14760363Y-46634759D01*
X14960241Y-46834637D01*
X15195273Y-46991680D01*
X15456426Y-47099853D01*
X15733665Y-47155000D01*
X16016335Y-47155000D01*
X16293574Y-47099853D01*
X16554727Y-46991680D01*
X16789759Y-46834637D01*
X16989637Y-46634759D01*
X17020001Y-46589316D01*
X17020000Y-58185683D01*
X16989637Y-58140241D01*
X16789759Y-57940363D01*
X16635000Y-57836957D01*
X16635000Y-52773711D01*
X16678937Y-52729774D01*
X16792205Y-52560256D01*
X16870226Y-52371898D01*
X16910000Y-52171939D01*
X16910000Y-51968061D01*
X16870226Y-51768102D01*
X16792205Y-51579744D01*
X16678937Y-51410226D01*
X16534774Y-51266063D01*
X16365256Y-51152795D01*
X16176898Y-51074774D01*
X15976939Y-51035000D01*
X15773061Y-51035000D01*
X15573102Y-51074774D01*
X15384744Y-51152795D01*
X15215226Y-51266063D01*
X15071063Y-51410226D01*
X14957795Y-51579744D01*
X14879774Y-51768102D01*
X14840000Y-51968061D01*
X14840000Y-52171939D01*
X14879774Y-52371898D01*
X14957795Y-52560256D01*
X15071063Y-52729774D01*
X15115001Y-52773712D01*
X15115000Y-57836956D01*
X14960241Y-57940363D01*
X14760363Y-58140241D01*
X14603320Y-58375273D01*
X14495147Y-58636426D01*
X14440000Y-58913665D01*
X14440000Y-59196335D01*
X14495147Y-59473574D01*
X14603320Y-59734727D01*
X14760363Y-59969759D01*
X14960241Y-60169637D01*
X15195273Y-60326680D01*
X15206565Y-60331357D01*
X15137580Y-60363963D01*
X14911586Y-60531481D01*
X14722615Y-60739869D01*
X14577930Y-60981119D01*
X14538072Y-61092424D01*
X14538072Y-60762000D01*
X14525812Y-60637518D01*
X14489502Y-60517820D01*
X14430537Y-60407506D01*
X14351185Y-60310815D01*
X14254494Y-60231463D01*
X14144180Y-60172498D01*
X14024482Y-60136188D01*
X13900000Y-60123928D01*
X13760000Y-60123928D01*
X13760000Y-58757325D01*
X13763676Y-58720000D01*
X13760000Y-58682675D01*
X13760000Y-58682667D01*
X13749003Y-58571014D01*
X13705546Y-58427753D01*
X13634974Y-58295724D01*
X13540001Y-58179999D01*
X13511004Y-58156202D01*
X12628804Y-57274002D01*
X12605001Y-57244999D01*
X12489276Y-57150026D01*
X12357247Y-57079454D01*
X12213986Y-57035997D01*
X12102333Y-57025000D01*
X12102322Y-57025000D01*
X12065000Y-57021324D01*
X12027678Y-57025000D01*
X4759802Y-57025000D01*
X4570000Y-56835199D01*
X4570000Y-54412000D01*
X6711928Y-54412000D01*
X6711928Y-56212000D01*
X6724188Y-56336482D01*
X6760498Y-56456180D01*
X6819463Y-56566494D01*
X6898815Y-56663185D01*
X6995506Y-56742537D01*
X7105820Y-56801502D01*
X7225518Y-56837812D01*
X7350000Y-56850072D01*
X9850000Y-56850072D01*
X9974482Y-56837812D01*
X10094180Y-56801502D01*
X10204494Y-56742537D01*
X10301185Y-56663185D01*
X10380537Y-56566494D01*
X10439502Y-56456180D01*
X10475812Y-56336482D01*
X10488072Y-56212000D01*
X10488072Y-54412000D01*
X10475812Y-54287518D01*
X10439502Y-54167820D01*
X10403289Y-54100072D01*
X10850000Y-54100072D01*
X10974482Y-54087812D01*
X11094180Y-54051502D01*
X11204494Y-53992537D01*
X11301185Y-53913185D01*
X11380537Y-53816494D01*
X11439502Y-53706180D01*
X11475812Y-53586482D01*
X11488072Y-53462000D01*
X11488072Y-51962000D01*
X11475812Y-51837518D01*
X11439502Y-51717820D01*
X11380537Y-51607506D01*
X11301185Y-51510815D01*
X11204494Y-51431463D01*
X11094180Y-51372498D01*
X10974482Y-51336188D01*
X10850000Y-51323928D01*
X8350000Y-51323928D01*
X8225518Y-51336188D01*
X8105820Y-51372498D01*
X7995506Y-51431463D01*
X7898815Y-51510815D01*
X7819463Y-51607506D01*
X7760498Y-51717820D01*
X7724188Y-51837518D01*
X7711928Y-51962000D01*
X7711928Y-53462000D01*
X7724188Y-53586482D01*
X7760498Y-53706180D01*
X7796711Y-53773928D01*
X7350000Y-53773928D01*
X7225518Y-53786188D01*
X7105820Y-53822498D01*
X6995506Y-53881463D01*
X6898815Y-53960815D01*
X6819463Y-54057506D01*
X6760498Y-54167820D01*
X6724188Y-54287518D01*
X6711928Y-54412000D01*
X4570000Y-54412000D01*
X4570000Y-50430193D01*
X4650000Y-50438072D01*
X7150000Y-50438072D01*
X7274482Y-50425812D01*
X7394180Y-50389502D01*
X7504494Y-50330537D01*
X7601185Y-50251185D01*
X7680537Y-50154494D01*
X7739502Y-50044180D01*
X7775812Y-49924482D01*
X7788072Y-49800000D01*
X7788072Y-48300000D01*
X7775812Y-48175518D01*
X7739502Y-48055820D01*
X7680537Y-47945506D01*
X7601185Y-47848815D01*
X7504494Y-47769463D01*
X7394180Y-47710498D01*
X7274482Y-47674188D01*
X7150000Y-47661928D01*
X4650000Y-47661928D01*
X4570000Y-47669807D01*
X4570000Y-47300000D01*
X11461928Y-47300000D01*
X11461928Y-49800000D01*
X11474188Y-49924482D01*
X11510498Y-50044180D01*
X11569463Y-50154494D01*
X11648815Y-50251185D01*
X11745506Y-50330537D01*
X11855820Y-50389502D01*
X11975518Y-50425812D01*
X12100000Y-50438072D01*
X13900000Y-50438072D01*
X14024482Y-50425812D01*
X14144180Y-50389502D01*
X14254494Y-50330537D01*
X14351185Y-50251185D01*
X14430537Y-50154494D01*
X14489502Y-50044180D01*
X14525812Y-49924482D01*
X14538072Y-49800000D01*
X14538072Y-47300000D01*
X14525812Y-47175518D01*
X14489502Y-47055820D01*
X14430537Y-46945506D01*
X14351185Y-46848815D01*
X14254494Y-46769463D01*
X14144180Y-46710498D01*
X14024482Y-46674188D01*
X13900000Y-46661928D01*
X12100000Y-46661928D01*
X11975518Y-46674188D01*
X11855820Y-46710498D01*
X11745506Y-46769463D01*
X11648815Y-46848815D01*
X11569463Y-46945506D01*
X11510498Y-47055820D01*
X11474188Y-47175518D01*
X11461928Y-47300000D01*
X4570000Y-47300000D01*
X4570000Y-40950000D01*
X6711928Y-40950000D01*
X6711928Y-42750000D01*
X6724188Y-42874482D01*
X6760498Y-42994180D01*
X6819463Y-43104494D01*
X6898815Y-43201185D01*
X6995506Y-43280537D01*
X7105820Y-43339502D01*
X7225518Y-43375812D01*
X7350000Y-43388072D01*
X9850000Y-43388072D01*
X9974482Y-43375812D01*
X10094180Y-43339502D01*
X10204494Y-43280537D01*
X10301185Y-43201185D01*
X10380537Y-43104494D01*
X10439502Y-42994180D01*
X10475812Y-42874482D01*
X10488072Y-42750000D01*
X10488072Y-40950000D01*
X10475812Y-40825518D01*
X10439502Y-40705820D01*
X10403289Y-40638072D01*
X10850000Y-40638072D01*
X10974482Y-40625812D01*
X11094180Y-40589502D01*
X11204494Y-40530537D01*
X11301185Y-40451185D01*
X11380537Y-40354494D01*
X11439502Y-40244180D01*
X11475812Y-40124482D01*
X11488072Y-40000000D01*
X11488072Y-38500000D01*
X11475812Y-38375518D01*
X11439502Y-38255820D01*
X11380537Y-38145506D01*
X11301185Y-38048815D01*
X11204494Y-37969463D01*
X11094180Y-37910498D01*
X10974482Y-37874188D01*
X10850000Y-37861928D01*
X8350000Y-37861928D01*
X8225518Y-37874188D01*
X8105820Y-37910498D01*
X7995506Y-37969463D01*
X7898815Y-38048815D01*
X7819463Y-38145506D01*
X7760498Y-38255820D01*
X7724188Y-38375518D01*
X7711928Y-38500000D01*
X7711928Y-40000000D01*
X7724188Y-40124482D01*
X7760498Y-40244180D01*
X7796711Y-40311928D01*
X7350000Y-40311928D01*
X7225518Y-40324188D01*
X7105820Y-40360498D01*
X6995506Y-40419463D01*
X6898815Y-40498815D01*
X6819463Y-40595506D01*
X6760498Y-40705820D01*
X6724188Y-40825518D01*
X6711928Y-40950000D01*
X4570000Y-40950000D01*
X4570000Y-37730193D01*
X4650000Y-37738072D01*
X7150000Y-37738072D01*
X7274482Y-37725812D01*
X7394180Y-37689502D01*
X7504494Y-37630537D01*
X7601185Y-37551185D01*
X7680537Y-37454494D01*
X7739502Y-37344180D01*
X7775812Y-37224482D01*
X7788072Y-37100000D01*
X7788072Y-35600000D01*
X7775812Y-35475518D01*
X7739502Y-35355820D01*
X7680537Y-35245506D01*
X7601185Y-35148815D01*
X7504494Y-35069463D01*
X7394180Y-35010498D01*
X7274482Y-34974188D01*
X7150000Y-34961928D01*
X4650000Y-34961928D01*
X4570000Y-34969807D01*
X4570000Y-34600000D01*
X11461928Y-34600000D01*
X11461928Y-37100000D01*
X11474188Y-37224482D01*
X11510498Y-37344180D01*
X11569463Y-37454494D01*
X11648815Y-37551185D01*
X11745506Y-37630537D01*
X11855820Y-37689502D01*
X11975518Y-37725812D01*
X12100000Y-37738072D01*
X13900000Y-37738072D01*
X14024482Y-37725812D01*
X14144180Y-37689502D01*
X14254494Y-37630537D01*
X14351185Y-37551185D01*
X14430537Y-37454494D01*
X14489502Y-37344180D01*
X14525812Y-37224482D01*
X14538072Y-37100000D01*
X14538072Y-34600000D01*
X14525812Y-34475518D01*
X14489502Y-34355820D01*
X14430537Y-34245506D01*
X14351185Y-34148815D01*
X14254494Y-34069463D01*
X14144180Y-34010498D01*
X14024482Y-33974188D01*
X13900000Y-33961928D01*
X12100000Y-33961928D01*
X11975518Y-33974188D01*
X11855820Y-34010498D01*
X11745506Y-34069463D01*
X11648815Y-34148815D01*
X11569463Y-34245506D01*
X11510498Y-34355820D01*
X11474188Y-34475518D01*
X11461928Y-34600000D01*
X4570000Y-34600000D01*
X4570000Y-28250000D01*
X6711928Y-28250000D01*
X6711928Y-30050000D01*
X6724188Y-30174482D01*
X6760498Y-30294180D01*
X6819463Y-30404494D01*
X6898815Y-30501185D01*
X6995506Y-30580537D01*
X7105820Y-30639502D01*
X7225518Y-30675812D01*
X7350000Y-30688072D01*
X9850000Y-30688072D01*
X9974482Y-30675812D01*
X10094180Y-30639502D01*
X10204494Y-30580537D01*
X10301185Y-30501185D01*
X10380537Y-30404494D01*
X10415723Y-30338665D01*
X14440000Y-30338665D01*
X14440000Y-30621335D01*
X14495147Y-30898574D01*
X14603320Y-31159727D01*
X14760363Y-31394759D01*
X14960241Y-31594637D01*
X15192759Y-31750000D01*
X14960241Y-31905363D01*
X14760363Y-32105241D01*
X14603320Y-32340273D01*
X14495147Y-32601426D01*
X14440000Y-32878665D01*
X14440000Y-33161335D01*
X14495147Y-33438574D01*
X14603320Y-33699727D01*
X14760363Y-33934759D01*
X14960241Y-34134637D01*
X15195273Y-34291680D01*
X15456426Y-34399853D01*
X15733665Y-34455000D01*
X16016335Y-34455000D01*
X16293574Y-34399853D01*
X16554727Y-34291680D01*
X16789759Y-34134637D01*
X16989637Y-33934759D01*
X17146680Y-33699727D01*
X17254853Y-33438574D01*
X17310000Y-33161335D01*
X17310000Y-32878665D01*
X17254853Y-32601426D01*
X17146680Y-32340273D01*
X17108453Y-32283061D01*
X17380000Y-32283061D01*
X17380000Y-32486939D01*
X17419774Y-32686898D01*
X17497795Y-32875256D01*
X17611063Y-33044774D01*
X17655000Y-33088711D01*
X17655001Y-42476288D01*
X17611063Y-42520226D01*
X17497795Y-42689744D01*
X17419774Y-42878102D01*
X17380000Y-43078061D01*
X17380000Y-43281939D01*
X17419774Y-43481898D01*
X17497795Y-43670256D01*
X17611063Y-43839774D01*
X17755226Y-43983937D01*
X17924744Y-44097205D01*
X18113102Y-44175226D01*
X18313061Y-44215000D01*
X18516939Y-44215000D01*
X18716898Y-44175226D01*
X18905256Y-44097205D01*
X19074774Y-43983937D01*
X19218937Y-43839774D01*
X19332205Y-43670256D01*
X19387278Y-43537298D01*
X20141903Y-43537298D01*
X20955000Y-44350395D01*
X21768097Y-43537298D01*
X21696514Y-43293329D01*
X21441004Y-43172429D01*
X21166816Y-43103700D01*
X20884488Y-43089783D01*
X20604870Y-43131213D01*
X20338708Y-43226397D01*
X20213486Y-43293329D01*
X20141903Y-43537298D01*
X19387278Y-43537298D01*
X19410226Y-43481898D01*
X19450000Y-43281939D01*
X19450000Y-43078061D01*
X19410226Y-42878102D01*
X19332205Y-42689744D01*
X19218937Y-42520226D01*
X19175000Y-42476289D01*
X19175000Y-33088711D01*
X19218937Y-33044774D01*
X19332205Y-32875256D01*
X19410226Y-32686898D01*
X19450000Y-32486939D01*
X19450000Y-32283061D01*
X19410226Y-32083102D01*
X19332205Y-31894744D01*
X19218937Y-31725226D01*
X19074774Y-31581063D01*
X18905256Y-31467795D01*
X18716898Y-31389774D01*
X18516939Y-31350000D01*
X18313061Y-31350000D01*
X18113102Y-31389774D01*
X17924744Y-31467795D01*
X17755226Y-31581063D01*
X17611063Y-31725226D01*
X17497795Y-31894744D01*
X17419774Y-32083102D01*
X17380000Y-32283061D01*
X17108453Y-32283061D01*
X16989637Y-32105241D01*
X16789759Y-31905363D01*
X16557241Y-31750000D01*
X16789759Y-31594637D01*
X16989637Y-31394759D01*
X17146680Y-31159727D01*
X17254853Y-30898574D01*
X17310000Y-30621335D01*
X17310000Y-30338665D01*
X17254853Y-30061426D01*
X17146680Y-29800273D01*
X16989637Y-29565241D01*
X16789759Y-29365363D01*
X16554727Y-29208320D01*
X16293574Y-29100147D01*
X16016335Y-29045000D01*
X15733665Y-29045000D01*
X15456426Y-29100147D01*
X15195273Y-29208320D01*
X14960241Y-29365363D01*
X14760363Y-29565241D01*
X14603320Y-29800273D01*
X14495147Y-30061426D01*
X14440000Y-30338665D01*
X10415723Y-30338665D01*
X10439502Y-30294180D01*
X10475812Y-30174482D01*
X10488072Y-30050000D01*
X10488072Y-28250000D01*
X10475812Y-28125518D01*
X10439502Y-28005820D01*
X10403289Y-27938072D01*
X10850000Y-27938072D01*
X10974482Y-27925812D01*
X11094180Y-27889502D01*
X11204494Y-27830537D01*
X11301185Y-27751185D01*
X11380537Y-27654494D01*
X11439502Y-27544180D01*
X11475812Y-27424482D01*
X11488072Y-27300000D01*
X11488072Y-25800000D01*
X11475812Y-25675518D01*
X11439502Y-25555820D01*
X11380537Y-25445506D01*
X11301185Y-25348815D01*
X11204494Y-25269463D01*
X11094180Y-25210498D01*
X10974482Y-25174188D01*
X10850000Y-25161928D01*
X8350000Y-25161928D01*
X8225518Y-25174188D01*
X8105820Y-25210498D01*
X7995506Y-25269463D01*
X7898815Y-25348815D01*
X7819463Y-25445506D01*
X7760498Y-25555820D01*
X7724188Y-25675518D01*
X7711928Y-25800000D01*
X7711928Y-27300000D01*
X7724188Y-27424482D01*
X7760498Y-27544180D01*
X7796711Y-27611928D01*
X7350000Y-27611928D01*
X7225518Y-27624188D01*
X7105820Y-27660498D01*
X6995506Y-27719463D01*
X6898815Y-27798815D01*
X6819463Y-27895506D01*
X6760498Y-28005820D01*
X6724188Y-28125518D01*
X6711928Y-28250000D01*
X4570000Y-28250000D01*
X4570000Y-25030193D01*
X4650000Y-25038072D01*
X7150000Y-25038072D01*
X7274482Y-25025812D01*
X7394180Y-24989502D01*
X7504494Y-24930537D01*
X7601185Y-24851185D01*
X7680537Y-24754494D01*
X7739502Y-24644180D01*
X7775812Y-24524482D01*
X7788072Y-24400000D01*
X7788072Y-22900000D01*
X7775812Y-22775518D01*
X7739502Y-22655820D01*
X7680537Y-22545506D01*
X7601185Y-22448815D01*
X7504494Y-22369463D01*
X7394180Y-22310498D01*
X7274482Y-22274188D01*
X7150000Y-22261928D01*
X4650000Y-22261928D01*
X4570000Y-22269807D01*
X4570000Y-21900000D01*
X11461928Y-21900000D01*
X11461928Y-24400000D01*
X11474188Y-24524482D01*
X11510498Y-24644180D01*
X11569463Y-24754494D01*
X11648815Y-24851185D01*
X11745506Y-24930537D01*
X11855820Y-24989502D01*
X11975518Y-25025812D01*
X12100000Y-25038072D01*
X13900000Y-25038072D01*
X14024482Y-25025812D01*
X14144180Y-24989502D01*
X14254494Y-24930537D01*
X14351185Y-24851185D01*
X14430537Y-24754494D01*
X14489502Y-24644180D01*
X14525812Y-24524482D01*
X14538072Y-24400000D01*
X14538072Y-21900000D01*
X14525812Y-21775518D01*
X14489502Y-21655820D01*
X14430537Y-21545506D01*
X14351185Y-21448815D01*
X14254494Y-21369463D01*
X14144180Y-21310498D01*
X14024482Y-21274188D01*
X13900000Y-21261928D01*
X12100000Y-21261928D01*
X11975518Y-21274188D01*
X11855820Y-21310498D01*
X11745506Y-21369463D01*
X11648815Y-21448815D01*
X11569463Y-21545506D01*
X11510498Y-21655820D01*
X11474188Y-21775518D01*
X11461928Y-21900000D01*
X4570000Y-21900000D01*
X4570000Y-15554801D01*
X4574801Y-15550000D01*
X6711928Y-15550000D01*
X6711928Y-17350000D01*
X6724188Y-17474482D01*
X6760498Y-17594180D01*
X6819463Y-17704494D01*
X6898815Y-17801185D01*
X6995506Y-17880537D01*
X7105820Y-17939502D01*
X7225518Y-17975812D01*
X7350000Y-17988072D01*
X9850000Y-17988072D01*
X9974482Y-17975812D01*
X10094180Y-17939502D01*
X10204494Y-17880537D01*
X10301185Y-17801185D01*
X10380537Y-17704494D01*
X10415723Y-17638665D01*
X14440000Y-17638665D01*
X14440000Y-17921335D01*
X14495147Y-18198574D01*
X14603320Y-18459727D01*
X14760363Y-18694759D01*
X14960241Y-18894637D01*
X15192759Y-19050000D01*
X14960241Y-19205363D01*
X14760363Y-19405241D01*
X14603320Y-19640273D01*
X14495147Y-19901426D01*
X14440000Y-20178665D01*
X14440000Y-20461335D01*
X14495147Y-20738574D01*
X14603320Y-20999727D01*
X14760363Y-21234759D01*
X14960241Y-21434637D01*
X15195273Y-21591680D01*
X15456426Y-21699853D01*
X15733665Y-21755000D01*
X16016335Y-21755000D01*
X16293574Y-21699853D01*
X16554727Y-21591680D01*
X16789759Y-21434637D01*
X16989637Y-21234759D01*
X17146680Y-20999727D01*
X17254853Y-20738574D01*
X17310000Y-20461335D01*
X17310000Y-20178665D01*
X17254853Y-19901426D01*
X17146680Y-19640273D01*
X17044736Y-19487702D01*
X20141903Y-19487702D01*
X20213486Y-19731671D01*
X20468996Y-19852571D01*
X20743184Y-19921300D01*
X21025512Y-19935217D01*
X21305130Y-19893787D01*
X21571292Y-19798603D01*
X21696514Y-19731671D01*
X21768097Y-19487702D01*
X20955000Y-18674605D01*
X20141903Y-19487702D01*
X17044736Y-19487702D01*
X16989637Y-19405241D01*
X16789759Y-19205363D01*
X16557241Y-19050000D01*
X16789759Y-18894637D01*
X16989637Y-18694759D01*
X17075996Y-18565512D01*
X19514783Y-18565512D01*
X19556213Y-18845130D01*
X19651397Y-19111292D01*
X19718329Y-19236514D01*
X19962298Y-19308097D01*
X20775395Y-18495000D01*
X19962298Y-17681903D01*
X19718329Y-17753486D01*
X19597429Y-18008996D01*
X19528700Y-18283184D01*
X19514783Y-18565512D01*
X17075996Y-18565512D01*
X17146680Y-18459727D01*
X17254853Y-18198574D01*
X17310000Y-17921335D01*
X17310000Y-17638665D01*
X17282875Y-17502298D01*
X20141903Y-17502298D01*
X20955000Y-18315395D01*
X21768097Y-17502298D01*
X21696514Y-17258329D01*
X21441004Y-17137429D01*
X21166816Y-17068700D01*
X20884488Y-17054783D01*
X20604870Y-17096213D01*
X20338708Y-17191397D01*
X20213486Y-17258329D01*
X20141903Y-17502298D01*
X17282875Y-17502298D01*
X17254853Y-17361426D01*
X17146680Y-17100273D01*
X16989637Y-16865241D01*
X16789759Y-16665363D01*
X16645044Y-16568667D01*
X16678937Y-16534774D01*
X16792205Y-16365256D01*
X16870226Y-16176898D01*
X16910000Y-15976939D01*
X16910000Y-15773061D01*
X16870226Y-15573102D01*
X16792205Y-15384744D01*
X16678937Y-15215226D01*
X16534774Y-15071063D01*
X16365256Y-14957795D01*
X16176898Y-14879774D01*
X15976939Y-14840000D01*
X15773061Y-14840000D01*
X15573102Y-14879774D01*
X15384744Y-14957795D01*
X15215226Y-15071063D01*
X15071063Y-15215226D01*
X14957795Y-15384744D01*
X14879774Y-15573102D01*
X14840000Y-15773061D01*
X14840000Y-15976939D01*
X14879774Y-16176898D01*
X14957795Y-16365256D01*
X15071063Y-16534774D01*
X15104956Y-16568667D01*
X14960241Y-16665363D01*
X14760363Y-16865241D01*
X14603320Y-17100273D01*
X14495147Y-17361426D01*
X14440000Y-17638665D01*
X10415723Y-17638665D01*
X10439502Y-17594180D01*
X10475812Y-17474482D01*
X10488072Y-17350000D01*
X10488072Y-15550000D01*
X10475812Y-15425518D01*
X10439502Y-15305820D01*
X10403289Y-15238072D01*
X10850000Y-15238072D01*
X10974482Y-15225812D01*
X11094180Y-15189502D01*
X11204494Y-15130537D01*
X11301185Y-15051185D01*
X11380537Y-14954494D01*
X11439502Y-14844180D01*
X11475812Y-14724482D01*
X11488072Y-14600000D01*
X11488072Y-13100000D01*
X11475812Y-12975518D01*
X11439502Y-12855820D01*
X11380537Y-12745506D01*
X11301185Y-12648815D01*
X11204494Y-12569463D01*
X11094180Y-12510498D01*
X10974482Y-12474188D01*
X10850000Y-12461928D01*
X8350000Y-12461928D01*
X8225518Y-12474188D01*
X8105820Y-12510498D01*
X7995506Y-12569463D01*
X7898815Y-12648815D01*
X7819463Y-12745506D01*
X7760498Y-12855820D01*
X7724188Y-12975518D01*
X7711928Y-13100000D01*
X7711928Y-14600000D01*
X7724188Y-14724482D01*
X7760498Y-14844180D01*
X7796711Y-14911928D01*
X7350000Y-14911928D01*
X7225518Y-14924188D01*
X7105820Y-14960498D01*
X6995506Y-15019463D01*
X6898815Y-15098815D01*
X6819463Y-15195506D01*
X6760498Y-15305820D01*
X6724188Y-15425518D01*
X6711928Y-15550000D01*
X4574801Y-15550000D01*
X6411003Y-13713799D01*
X6440001Y-13690001D01*
X6534974Y-13574276D01*
X6605546Y-13442247D01*
X6649003Y-13298986D01*
X6660000Y-13187333D01*
X6660000Y-13187324D01*
X6663676Y-13150001D01*
X6660000Y-13112678D01*
X6660000Y-12338072D01*
X7150000Y-12338072D01*
X7274482Y-12325812D01*
X7394180Y-12289502D01*
X7504494Y-12230537D01*
X7601185Y-12151185D01*
X7680537Y-12054494D01*
X7739502Y-11944180D01*
X7775812Y-11824482D01*
X7788072Y-11700000D01*
X7788072Y-10200000D01*
X7775812Y-10075518D01*
X7739502Y-9955820D01*
X7680537Y-9845506D01*
X7601185Y-9748815D01*
X7504494Y-9669463D01*
X7394180Y-9610498D01*
X7274482Y-9574188D01*
X7150000Y-9561928D01*
X4650000Y-9561928D01*
X4525518Y-9574188D01*
X4405820Y-9610498D01*
X4295506Y-9669463D01*
X4198815Y-9748815D01*
X4119463Y-9845506D01*
X4060498Y-9955820D01*
X4024188Y-10075518D01*
X4011928Y-10200000D01*
X4011928Y-11700000D01*
X4024188Y-11824482D01*
X4060498Y-11944180D01*
X4119463Y-12054494D01*
X4198815Y-12151185D01*
X4295506Y-12230537D01*
X4405820Y-12289502D01*
X4525518Y-12325812D01*
X4650000Y-12338072D01*
X5140001Y-12338072D01*
X5140001Y-12835197D01*
X3299003Y-14676196D01*
X3269999Y-14699999D01*
X3214871Y-14767174D01*
X3175026Y-14815724D01*
X3123604Y-14911928D01*
X3104454Y-14947754D01*
X3060997Y-15091015D01*
X3050000Y-15202668D01*
X3050000Y-15202678D01*
X3046324Y-15240000D01*
X3050000Y-15277322D01*
X3050000Y-17347843D01*
X2954494Y-17269463D01*
X2844180Y-17210498D01*
X2724482Y-17174188D01*
X2600000Y-17161928D01*
X1985750Y-17165000D01*
X1827000Y-17323750D01*
X1827000Y-18923000D01*
X1847000Y-18923000D01*
X1847000Y-19177000D01*
X1827000Y-19177000D01*
X1827000Y-20776250D01*
X1985750Y-20935000D01*
X2600000Y-20938072D01*
X2724482Y-20925812D01*
X2844180Y-20889502D01*
X2954494Y-20830537D01*
X3050000Y-20752157D01*
X3050000Y-30047843D01*
X2954494Y-29969463D01*
X2844180Y-29910498D01*
X2724482Y-29874188D01*
X2600000Y-29861928D01*
X1985750Y-29865000D01*
X1827000Y-30023750D01*
X1827000Y-31623000D01*
X1847000Y-31623000D01*
X1847000Y-31877000D01*
X1827000Y-31877000D01*
X1827000Y-33476250D01*
X1985750Y-33635000D01*
X2600000Y-33638072D01*
X2724482Y-33625812D01*
X2844180Y-33589502D01*
X2954494Y-33530537D01*
X3050000Y-33452157D01*
X3050001Y-42747843D01*
X2954494Y-42669463D01*
X2844180Y-42610498D01*
X2724482Y-42574188D01*
X2600000Y-42561928D01*
X1985750Y-42565000D01*
X1827000Y-42723750D01*
X1827000Y-44323000D01*
X1847000Y-44323000D01*
X1847000Y-44577000D01*
X1827000Y-44577000D01*
X1827000Y-46176250D01*
X1985750Y-46335000D01*
X2600000Y-46338072D01*
X2724482Y-46325812D01*
X2844180Y-46289502D01*
X2954494Y-46230537D01*
X3050001Y-46152157D01*
X3050001Y-56209843D01*
X2954494Y-56131463D01*
X2844180Y-56072498D01*
X2724482Y-56036188D01*
X2600000Y-56023928D01*
X1985750Y-56027000D01*
X1827000Y-56185750D01*
X1827000Y-57785000D01*
X3076250Y-57785000D01*
X3225487Y-57635763D01*
X3229175Y-57640256D01*
X3270000Y-57690001D01*
X3298998Y-57713799D01*
X3881200Y-58296002D01*
X3904999Y-58325001D01*
X3933997Y-58348799D01*
X4020724Y-58419974D01*
X4152753Y-58490546D01*
X4296014Y-58534003D01*
X4445000Y-58548677D01*
X4482333Y-58545000D01*
X11750199Y-58545000D01*
X12240000Y-59034802D01*
X12240000Y-60123928D01*
X12100000Y-60123928D01*
X11975518Y-60136188D01*
X11855820Y-60172498D01*
X11745506Y-60231463D01*
X11648815Y-60310815D01*
X11569463Y-60407506D01*
X11510498Y-60517820D01*
X11474188Y-60637518D01*
X11461928Y-60762000D01*
X11461928Y-63262000D01*
X11474188Y-63386482D01*
X11510498Y-63506180D01*
X11569463Y-63616494D01*
X11648815Y-63713185D01*
X11745506Y-63792537D01*
X11855820Y-63851502D01*
X11975518Y-63887812D01*
X12100000Y-63900072D01*
X13900000Y-63900072D01*
X14024482Y-63887812D01*
X14144180Y-63851502D01*
X14254494Y-63792537D01*
X14351185Y-63713185D01*
X14430537Y-63616494D01*
X14489502Y-63506180D01*
X14525812Y-63386482D01*
X14538072Y-63262000D01*
X14538072Y-62097576D01*
X14577930Y-62208881D01*
X14722615Y-62450131D01*
X14911586Y-62658519D01*
X15137580Y-62826037D01*
X15391913Y-62946246D01*
X15525961Y-62986904D01*
X15748000Y-62864915D01*
X15748000Y-61722000D01*
X15728000Y-61722000D01*
X15728000Y-61468000D01*
X15748000Y-61468000D01*
X15748000Y-61448000D01*
X16002000Y-61448000D01*
X16002000Y-61468000D01*
X16022000Y-61468000D01*
X16022000Y-61722000D01*
X16002000Y-61722000D01*
X16002000Y-62864915D01*
X16224039Y-62986904D01*
X16358087Y-62946246D01*
X16612420Y-62826037D01*
X16838414Y-62658519D01*
X17020000Y-62458275D01*
X17020000Y-64455198D01*
X15363998Y-66111201D01*
X15335000Y-66134999D01*
X15311202Y-66163997D01*
X15311201Y-66163998D01*
X15240026Y-66250724D01*
X15169454Y-66382754D01*
X15125998Y-66526015D01*
X15111324Y-66675000D01*
X15115001Y-66712332D01*
X15115001Y-67361956D01*
X14960241Y-67465363D01*
X14760363Y-67665241D01*
X14603320Y-67900273D01*
X14495147Y-68161426D01*
X14440000Y-68438665D01*
X14440000Y-68721335D01*
X14495147Y-68998574D01*
X14603320Y-69259727D01*
X14760363Y-69494759D01*
X14960241Y-69694637D01*
X15192759Y-69850000D01*
X14960241Y-70005363D01*
X14760363Y-70205241D01*
X14603320Y-70440273D01*
X14495147Y-70701426D01*
X14440000Y-70978665D01*
X14440000Y-71261335D01*
X14495147Y-71538574D01*
X14603320Y-71799727D01*
X14760363Y-72034759D01*
X14960241Y-72234637D01*
X15195273Y-72391680D01*
X15456426Y-72499853D01*
X15733665Y-72555000D01*
X16016335Y-72555000D01*
X16293574Y-72499853D01*
X16554727Y-72391680D01*
X16789759Y-72234637D01*
X16989637Y-72034759D01*
X17146680Y-71799727D01*
X17254853Y-71538574D01*
X17310000Y-71261335D01*
X17310000Y-70978665D01*
X17254853Y-70701426D01*
X17146680Y-70440273D01*
X16989637Y-70205241D01*
X16789759Y-70005363D01*
X16557241Y-69850000D01*
X16789759Y-69694637D01*
X16989637Y-69494759D01*
X17146680Y-69259727D01*
X17254853Y-68998574D01*
X17310000Y-68721335D01*
X17310000Y-68438665D01*
X17254853Y-68161426D01*
X17146680Y-67900273D01*
X16989637Y-67665241D01*
X16789759Y-67465363D01*
X16635000Y-67361957D01*
X16635000Y-66989801D01*
X18290001Y-65334801D01*
X18290001Y-70805197D01*
X15364003Y-73731196D01*
X15334999Y-73754999D01*
X15290694Y-73808985D01*
X15240026Y-73870724D01*
X15225011Y-73898815D01*
X15169454Y-74002754D01*
X15125997Y-74146015D01*
X15115000Y-74257668D01*
X15115000Y-74257678D01*
X15111324Y-74295000D01*
X15115000Y-74332323D01*
X15115001Y-79337658D01*
X15115000Y-79337668D01*
X15115001Y-80696956D01*
X14960241Y-80800363D01*
X14760363Y-81000241D01*
X14603320Y-81235273D01*
X14495147Y-81496426D01*
X14440000Y-81773665D01*
X14440000Y-82056335D01*
X14495147Y-82333574D01*
X14603320Y-82594727D01*
X14760363Y-82829759D01*
X14960241Y-83029637D01*
X15192759Y-83185000D01*
X14960241Y-83340363D01*
X14760363Y-83540241D01*
X14603320Y-83775273D01*
X14495147Y-84036426D01*
X14440000Y-84313665D01*
X14440000Y-84596335D01*
X14495147Y-84873574D01*
X14603320Y-85134727D01*
X14760363Y-85369759D01*
X14960241Y-85569637D01*
X15195273Y-85726680D01*
X15456426Y-85834853D01*
X15733665Y-85890000D01*
X16016335Y-85890000D01*
X16293574Y-85834853D01*
X16554727Y-85726680D01*
X16789759Y-85569637D01*
X16989637Y-85369759D01*
X17020000Y-85324317D01*
X17020000Y-85410198D01*
X15363998Y-87066201D01*
X15335000Y-87089999D01*
X15311202Y-87118997D01*
X15311201Y-87118998D01*
X15240026Y-87205724D01*
X15169454Y-87337754D01*
X15145656Y-87416208D01*
X15125998Y-87481014D01*
X15115001Y-87592667D01*
X15111324Y-87630000D01*
X15115001Y-87667332D01*
X15115000Y-92761956D01*
X14960241Y-92865363D01*
X14760363Y-93065241D01*
X14603320Y-93300273D01*
X14495147Y-93561426D01*
X14440000Y-93838665D01*
X14440000Y-94121335D01*
X14495147Y-94398574D01*
X14603320Y-94659727D01*
X14760363Y-94894759D01*
X14960241Y-95094637D01*
X15192759Y-95250000D01*
X14960241Y-95405363D01*
X14760363Y-95605241D01*
X14603320Y-95840273D01*
X14495147Y-96101426D01*
X14440000Y-96378665D01*
X14440000Y-96661335D01*
X14495147Y-96938574D01*
X14603320Y-97199727D01*
X14760363Y-97434759D01*
X14960241Y-97634637D01*
X15195273Y-97791680D01*
X15456426Y-97899853D01*
X15733665Y-97955000D01*
X16016335Y-97955000D01*
X16293574Y-97899853D01*
X16554727Y-97791680D01*
X16789759Y-97634637D01*
X16989637Y-97434759D01*
X17146680Y-97199727D01*
X17254853Y-96938574D01*
X17310000Y-96661335D01*
X17310000Y-96378665D01*
X17254853Y-96101426D01*
X17146680Y-95840273D01*
X16989637Y-95605241D01*
X16789759Y-95405363D01*
X16557241Y-95250000D01*
X16789759Y-95094637D01*
X16989637Y-94894759D01*
X17146680Y-94659727D01*
X17254853Y-94398574D01*
X17310000Y-94121335D01*
X17310000Y-93838665D01*
X17254853Y-93561426D01*
X17146680Y-93300273D01*
X16989637Y-93065241D01*
X16789759Y-92865363D01*
X16635000Y-92761957D01*
X16635000Y-87944801D01*
X18025473Y-86554329D01*
X18210337Y-86830998D01*
X18452002Y-87072663D01*
X18736169Y-87262537D01*
X19051919Y-87393325D01*
X19387117Y-87460000D01*
X19728883Y-87460000D01*
X20064081Y-87393325D01*
X20379831Y-87262537D01*
X20449000Y-87216320D01*
X20449000Y-90490198D01*
X19046998Y-91892201D01*
X19018000Y-91915999D01*
X18994202Y-91944997D01*
X18994201Y-91944998D01*
X18923026Y-92031724D01*
X18852454Y-92163754D01*
X18808998Y-92307015D01*
X18794324Y-92456000D01*
X18798001Y-92493332D01*
X18798001Y-94146928D01*
X18458000Y-94146928D01*
X18333518Y-94159188D01*
X18213820Y-94195498D01*
X18103506Y-94254463D01*
X18006815Y-94333815D01*
X17927463Y-94430506D01*
X17868498Y-94540820D01*
X17832188Y-94660518D01*
X17819928Y-94785000D01*
X17819928Y-96985000D01*
X17832188Y-97109482D01*
X17868498Y-97229180D01*
X17927463Y-97339494D01*
X18006815Y-97436185D01*
X18103506Y-97515537D01*
X18213820Y-97574502D01*
X18333518Y-97610812D01*
X18458000Y-97623072D01*
X20658000Y-97623072D01*
X20782482Y-97610812D01*
X20902180Y-97574502D01*
X21012494Y-97515537D01*
X21109185Y-97436185D01*
X21188537Y-97339494D01*
X21209000Y-97301211D01*
X21229463Y-97339494D01*
X21308815Y-97436185D01*
X21405506Y-97515537D01*
X21515820Y-97574502D01*
X21635518Y-97610812D01*
X21760000Y-97623072D01*
X23960000Y-97623072D01*
X24084482Y-97610812D01*
X24204180Y-97574502D01*
X24314494Y-97515537D01*
X24411185Y-97436185D01*
X24490537Y-97339494D01*
X24549502Y-97229180D01*
X24585812Y-97109482D01*
X24598072Y-96985000D01*
X24598072Y-96272932D01*
X24607068Y-96318158D01*
X24719010Y-96588411D01*
X24881525Y-96831632D01*
X25088368Y-97038475D01*
X25331589Y-97200990D01*
X25601842Y-97312932D01*
X25888740Y-97370000D01*
X26181260Y-97370000D01*
X26468158Y-97312932D01*
X26738411Y-97200990D01*
X26981632Y-97038475D01*
X27188475Y-96831632D01*
X27305000Y-96657240D01*
X27421525Y-96831632D01*
X27628368Y-97038475D01*
X27871589Y-97200990D01*
X28141842Y-97312932D01*
X28428740Y-97370000D01*
X28721260Y-97370000D01*
X29008158Y-97312932D01*
X29185001Y-97239682D01*
X29185001Y-100940000D01*
X14538072Y-100940000D01*
X14538072Y-98735000D01*
X14525812Y-98610518D01*
X14489502Y-98490820D01*
X14430537Y-98380506D01*
X14351185Y-98283815D01*
X14254494Y-98204463D01*
X14144180Y-98145498D01*
X14024482Y-98109188D01*
X13900000Y-98096928D01*
X12100000Y-98096928D01*
X11975518Y-98109188D01*
X11855820Y-98145498D01*
X11745506Y-98204463D01*
X11648815Y-98283815D01*
X11569463Y-98380506D01*
X11510498Y-98490820D01*
X11474188Y-98610518D01*
X11461928Y-98735000D01*
X11461928Y-100940000D01*
X7788072Y-100940000D01*
X7788072Y-99735000D01*
X7775812Y-99610518D01*
X7739502Y-99490820D01*
X7680537Y-99380506D01*
X7601185Y-99283815D01*
X7504494Y-99204463D01*
X7394180Y-99145498D01*
X7274482Y-99109188D01*
X7150000Y-99096928D01*
X4650000Y-99096928D01*
X4525518Y-99109188D01*
X4405820Y-99145498D01*
X4295506Y-99204463D01*
X4198815Y-99283815D01*
X4119463Y-99380506D01*
X4060498Y-99490820D01*
X4024188Y-99610518D01*
X4011928Y-99735000D01*
X4011928Y-100940000D01*
X660000Y-100940000D01*
X660000Y-97756105D01*
X675518Y-97760812D01*
X800000Y-97773072D01*
X1414250Y-97770000D01*
X1573000Y-97611250D01*
X1573000Y-96012000D01*
X1827000Y-96012000D01*
X1827000Y-97611250D01*
X1985750Y-97770000D01*
X2600000Y-97773072D01*
X2724482Y-97760812D01*
X2844180Y-97724502D01*
X2954494Y-97665537D01*
X3051185Y-97586185D01*
X3130537Y-97489494D01*
X3189502Y-97379180D01*
X3225812Y-97259482D01*
X3238072Y-97135000D01*
X3235000Y-96170750D01*
X3076250Y-96012000D01*
X1827000Y-96012000D01*
X1573000Y-96012000D01*
X1553000Y-96012000D01*
X1553000Y-95758000D01*
X1573000Y-95758000D01*
X1573000Y-94158750D01*
X1827000Y-94158750D01*
X1827000Y-95758000D01*
X3076250Y-95758000D01*
X3235000Y-95599250D01*
X3238072Y-94635000D01*
X3225812Y-94510518D01*
X3189502Y-94390820D01*
X3130537Y-94280506D01*
X3051185Y-94183815D01*
X2954494Y-94104463D01*
X2844180Y-94045498D01*
X2724482Y-94009188D01*
X2600000Y-93996928D01*
X1985750Y-94000000D01*
X1827000Y-94158750D01*
X1573000Y-94158750D01*
X1414250Y-94000000D01*
X800000Y-93996928D01*
X675518Y-94009188D01*
X660000Y-94013895D01*
X660000Y-92385000D01*
X6711928Y-92385000D01*
X6711928Y-94185000D01*
X6724188Y-94309482D01*
X6760498Y-94429180D01*
X6819463Y-94539494D01*
X6898815Y-94636185D01*
X6995506Y-94715537D01*
X7105820Y-94774502D01*
X7225518Y-94810812D01*
X7350000Y-94823072D01*
X9850000Y-94823072D01*
X9974482Y-94810812D01*
X10094180Y-94774502D01*
X10204494Y-94715537D01*
X10301185Y-94636185D01*
X10380537Y-94539494D01*
X10439502Y-94429180D01*
X10475812Y-94309482D01*
X10488072Y-94185000D01*
X10488072Y-92385000D01*
X10475812Y-92260518D01*
X10439502Y-92140820D01*
X10403289Y-92073072D01*
X10850000Y-92073072D01*
X10974482Y-92060812D01*
X11094180Y-92024502D01*
X11204494Y-91965537D01*
X11301185Y-91886185D01*
X11380537Y-91789494D01*
X11439502Y-91679180D01*
X11475812Y-91559482D01*
X11488072Y-91435000D01*
X11488072Y-89935000D01*
X11475812Y-89810518D01*
X11439502Y-89690820D01*
X11380537Y-89580506D01*
X11301185Y-89483815D01*
X11204494Y-89404463D01*
X11094180Y-89345498D01*
X10974482Y-89309188D01*
X10850000Y-89296928D01*
X8350000Y-89296928D01*
X8225518Y-89309188D01*
X8105820Y-89345498D01*
X7995506Y-89404463D01*
X7898815Y-89483815D01*
X7819463Y-89580506D01*
X7760498Y-89690820D01*
X7724188Y-89810518D01*
X7711928Y-89935000D01*
X7711928Y-91435000D01*
X7724188Y-91559482D01*
X7760498Y-91679180D01*
X7796711Y-91746928D01*
X7350000Y-91746928D01*
X7225518Y-91759188D01*
X7105820Y-91795498D01*
X6995506Y-91854463D01*
X6898815Y-91933815D01*
X6819463Y-92030506D01*
X6760498Y-92140820D01*
X6724188Y-92260518D01*
X6711928Y-92385000D01*
X660000Y-92385000D01*
X660000Y-87035000D01*
X4011928Y-87035000D01*
X4011928Y-88535000D01*
X4024188Y-88659482D01*
X4060498Y-88779180D01*
X4119463Y-88889494D01*
X4198815Y-88986185D01*
X4295506Y-89065537D01*
X4405820Y-89124502D01*
X4525518Y-89160812D01*
X4650000Y-89173072D01*
X7150000Y-89173072D01*
X7274482Y-89160812D01*
X7394180Y-89124502D01*
X7504494Y-89065537D01*
X7601185Y-88986185D01*
X7680537Y-88889494D01*
X7739502Y-88779180D01*
X7775812Y-88659482D01*
X7788072Y-88535000D01*
X7788072Y-87035000D01*
X7775812Y-86910518D01*
X7739502Y-86790820D01*
X7680537Y-86680506D01*
X7601185Y-86583815D01*
X7504494Y-86504463D01*
X7394180Y-86445498D01*
X7274482Y-86409188D01*
X7150000Y-86396928D01*
X4650000Y-86396928D01*
X4525518Y-86409188D01*
X4405820Y-86445498D01*
X4295506Y-86504463D01*
X4198815Y-86583815D01*
X4119463Y-86680506D01*
X4060498Y-86790820D01*
X4024188Y-86910518D01*
X4011928Y-87035000D01*
X660000Y-87035000D01*
X660000Y-86035000D01*
X11461928Y-86035000D01*
X11461928Y-88535000D01*
X11474188Y-88659482D01*
X11510498Y-88779180D01*
X11569463Y-88889494D01*
X11648815Y-88986185D01*
X11745506Y-89065537D01*
X11855820Y-89124502D01*
X11975518Y-89160812D01*
X12100000Y-89173072D01*
X13900000Y-89173072D01*
X14024482Y-89160812D01*
X14144180Y-89124502D01*
X14254494Y-89065537D01*
X14351185Y-88986185D01*
X14430537Y-88889494D01*
X14489502Y-88779180D01*
X14525812Y-88659482D01*
X14538072Y-88535000D01*
X14538072Y-86035000D01*
X14525812Y-85910518D01*
X14489502Y-85790820D01*
X14430537Y-85680506D01*
X14351185Y-85583815D01*
X14254494Y-85504463D01*
X14144180Y-85445498D01*
X14024482Y-85409188D01*
X13900000Y-85396928D01*
X12100000Y-85396928D01*
X11975518Y-85409188D01*
X11855820Y-85445498D01*
X11745506Y-85504463D01*
X11648815Y-85583815D01*
X11569463Y-85680506D01*
X11510498Y-85790820D01*
X11474188Y-85910518D01*
X11461928Y-86035000D01*
X660000Y-86035000D01*
X660000Y-85056105D01*
X675518Y-85060812D01*
X800000Y-85073072D01*
X1414250Y-85070000D01*
X1573000Y-84911250D01*
X1573000Y-83312000D01*
X1827000Y-83312000D01*
X1827000Y-84911250D01*
X1985750Y-85070000D01*
X2600000Y-85073072D01*
X2724482Y-85060812D01*
X2844180Y-85024502D01*
X2954494Y-84965537D01*
X3051185Y-84886185D01*
X3130537Y-84789494D01*
X3189502Y-84679180D01*
X3225812Y-84559482D01*
X3238072Y-84435000D01*
X3235000Y-83470750D01*
X3076250Y-83312000D01*
X1827000Y-83312000D01*
X1573000Y-83312000D01*
X1553000Y-83312000D01*
X1553000Y-83058000D01*
X1573000Y-83058000D01*
X1573000Y-81458750D01*
X1827000Y-81458750D01*
X1827000Y-83058000D01*
X3076250Y-83058000D01*
X3235000Y-82899250D01*
X3238072Y-81935000D01*
X3225812Y-81810518D01*
X3189502Y-81690820D01*
X3130537Y-81580506D01*
X3051185Y-81483815D01*
X2954494Y-81404463D01*
X2844180Y-81345498D01*
X2724482Y-81309188D01*
X2600000Y-81296928D01*
X1985750Y-81300000D01*
X1827000Y-81458750D01*
X1573000Y-81458750D01*
X1414250Y-81300000D01*
X800000Y-81296928D01*
X675518Y-81309188D01*
X660000Y-81313895D01*
X660000Y-79685000D01*
X6711928Y-79685000D01*
X6711928Y-81485000D01*
X6724188Y-81609482D01*
X6760498Y-81729180D01*
X6819463Y-81839494D01*
X6898815Y-81936185D01*
X6995506Y-82015537D01*
X7105820Y-82074502D01*
X7225518Y-82110812D01*
X7350000Y-82123072D01*
X9850000Y-82123072D01*
X9974482Y-82110812D01*
X10094180Y-82074502D01*
X10204494Y-82015537D01*
X10301185Y-81936185D01*
X10380537Y-81839494D01*
X10439502Y-81729180D01*
X10475812Y-81609482D01*
X10488072Y-81485000D01*
X10488072Y-79685000D01*
X10475812Y-79560518D01*
X10439502Y-79440820D01*
X10403289Y-79373072D01*
X10850000Y-79373072D01*
X10974482Y-79360812D01*
X11094180Y-79324502D01*
X11204494Y-79265537D01*
X11301185Y-79186185D01*
X11380537Y-79089494D01*
X11439502Y-78979180D01*
X11475812Y-78859482D01*
X11488072Y-78735000D01*
X11488072Y-77235000D01*
X11475812Y-77110518D01*
X11439502Y-76990820D01*
X11380537Y-76880506D01*
X11301185Y-76783815D01*
X11204494Y-76704463D01*
X11094180Y-76645498D01*
X10974482Y-76609188D01*
X10850000Y-76596928D01*
X8350000Y-76596928D01*
X8225518Y-76609188D01*
X8105820Y-76645498D01*
X7995506Y-76704463D01*
X7898815Y-76783815D01*
X7819463Y-76880506D01*
X7760498Y-76990820D01*
X7724188Y-77110518D01*
X7711928Y-77235000D01*
X7711928Y-78735000D01*
X7724188Y-78859482D01*
X7760498Y-78979180D01*
X7796711Y-79046928D01*
X7350000Y-79046928D01*
X7225518Y-79059188D01*
X7105820Y-79095498D01*
X6995506Y-79154463D01*
X6898815Y-79233815D01*
X6819463Y-79330506D01*
X6760498Y-79440820D01*
X6724188Y-79560518D01*
X6711928Y-79685000D01*
X660000Y-79685000D01*
X660000Y-74350000D01*
X4011928Y-74350000D01*
X4011928Y-75850000D01*
X4024188Y-75974482D01*
X4060498Y-76094180D01*
X4119463Y-76204494D01*
X4198815Y-76301185D01*
X4295506Y-76380537D01*
X4405820Y-76439502D01*
X4525518Y-76475812D01*
X4650000Y-76488072D01*
X7150000Y-76488072D01*
X7274482Y-76475812D01*
X7394180Y-76439502D01*
X7504494Y-76380537D01*
X7601185Y-76301185D01*
X7680537Y-76204494D01*
X7739502Y-76094180D01*
X7775812Y-75974482D01*
X7788072Y-75850000D01*
X7788072Y-74350000D01*
X7775812Y-74225518D01*
X7739502Y-74105820D01*
X7680537Y-73995506D01*
X7601185Y-73898815D01*
X7504494Y-73819463D01*
X7394180Y-73760498D01*
X7274482Y-73724188D01*
X7150000Y-73711928D01*
X4650000Y-73711928D01*
X4525518Y-73724188D01*
X4405820Y-73760498D01*
X4295506Y-73819463D01*
X4198815Y-73898815D01*
X4119463Y-73995506D01*
X4060498Y-74105820D01*
X4024188Y-74225518D01*
X4011928Y-74350000D01*
X660000Y-74350000D01*
X660000Y-73350000D01*
X11461928Y-73350000D01*
X11461928Y-75850000D01*
X11474188Y-75974482D01*
X11510498Y-76094180D01*
X11569463Y-76204494D01*
X11648815Y-76301185D01*
X11745506Y-76380537D01*
X11855820Y-76439502D01*
X11975518Y-76475812D01*
X12100000Y-76488072D01*
X13900000Y-76488072D01*
X14024482Y-76475812D01*
X14144180Y-76439502D01*
X14254494Y-76380537D01*
X14351185Y-76301185D01*
X14430537Y-76204494D01*
X14489502Y-76094180D01*
X14525812Y-75974482D01*
X14538072Y-75850000D01*
X14538072Y-73350000D01*
X14525812Y-73225518D01*
X14489502Y-73105820D01*
X14430537Y-72995506D01*
X14351185Y-72898815D01*
X14254494Y-72819463D01*
X14144180Y-72760498D01*
X14024482Y-72724188D01*
X13900000Y-72711928D01*
X12100000Y-72711928D01*
X11975518Y-72724188D01*
X11855820Y-72760498D01*
X11745506Y-72819463D01*
X11648815Y-72898815D01*
X11569463Y-72995506D01*
X11510498Y-73105820D01*
X11474188Y-73225518D01*
X11461928Y-73350000D01*
X660000Y-73350000D01*
X660000Y-72371105D01*
X675518Y-72375812D01*
X800000Y-72388072D01*
X1414250Y-72385000D01*
X1573000Y-72226250D01*
X1573000Y-70627000D01*
X1827000Y-70627000D01*
X1827000Y-72226250D01*
X1985750Y-72385000D01*
X2600000Y-72388072D01*
X2724482Y-72375812D01*
X2844180Y-72339502D01*
X2954494Y-72280537D01*
X3051185Y-72201185D01*
X3130537Y-72104494D01*
X3189502Y-71994180D01*
X3225812Y-71874482D01*
X3238072Y-71750000D01*
X3235000Y-70785750D01*
X3076250Y-70627000D01*
X1827000Y-70627000D01*
X1573000Y-70627000D01*
X1553000Y-70627000D01*
X1553000Y-70373000D01*
X1573000Y-70373000D01*
X1573000Y-68773750D01*
X1827000Y-68773750D01*
X1827000Y-70373000D01*
X3076250Y-70373000D01*
X3235000Y-70214250D01*
X3238072Y-69250000D01*
X3225812Y-69125518D01*
X3189502Y-69005820D01*
X3130537Y-68895506D01*
X3051185Y-68798815D01*
X2954494Y-68719463D01*
X2844180Y-68660498D01*
X2724482Y-68624188D01*
X2600000Y-68611928D01*
X1985750Y-68615000D01*
X1827000Y-68773750D01*
X1573000Y-68773750D01*
X1414250Y-68615000D01*
X800000Y-68611928D01*
X675518Y-68624188D01*
X660000Y-68628895D01*
X660000Y-67000000D01*
X6711928Y-67000000D01*
X6711928Y-68800000D01*
X6724188Y-68924482D01*
X6760498Y-69044180D01*
X6819463Y-69154494D01*
X6898815Y-69251185D01*
X6995506Y-69330537D01*
X7105820Y-69389502D01*
X7225518Y-69425812D01*
X7350000Y-69438072D01*
X9850000Y-69438072D01*
X9974482Y-69425812D01*
X10094180Y-69389502D01*
X10204494Y-69330537D01*
X10301185Y-69251185D01*
X10380537Y-69154494D01*
X10439502Y-69044180D01*
X10475812Y-68924482D01*
X10488072Y-68800000D01*
X10488072Y-67000000D01*
X10475812Y-66875518D01*
X10439502Y-66755820D01*
X10403289Y-66688072D01*
X10850000Y-66688072D01*
X10974482Y-66675812D01*
X11094180Y-66639502D01*
X11204494Y-66580537D01*
X11301185Y-66501185D01*
X11380537Y-66404494D01*
X11439502Y-66294180D01*
X11475812Y-66174482D01*
X11488072Y-66050000D01*
X11488072Y-64550000D01*
X11475812Y-64425518D01*
X11439502Y-64305820D01*
X11380537Y-64195506D01*
X11301185Y-64098815D01*
X11204494Y-64019463D01*
X11094180Y-63960498D01*
X10974482Y-63924188D01*
X10850000Y-63911928D01*
X8350000Y-63911928D01*
X8225518Y-63924188D01*
X8105820Y-63960498D01*
X7995506Y-64019463D01*
X7898815Y-64098815D01*
X7819463Y-64195506D01*
X7760498Y-64305820D01*
X7724188Y-64425518D01*
X7711928Y-64550000D01*
X7711928Y-66050000D01*
X7724188Y-66174482D01*
X7760498Y-66294180D01*
X7796711Y-66361928D01*
X7350000Y-66361928D01*
X7225518Y-66374188D01*
X7105820Y-66410498D01*
X6995506Y-66469463D01*
X6898815Y-66548815D01*
X6819463Y-66645506D01*
X6760498Y-66755820D01*
X6724188Y-66875518D01*
X6711928Y-67000000D01*
X660000Y-67000000D01*
X660000Y-61762000D01*
X4011928Y-61762000D01*
X4011928Y-63262000D01*
X4024188Y-63386482D01*
X4060498Y-63506180D01*
X4119463Y-63616494D01*
X4198815Y-63713185D01*
X4295506Y-63792537D01*
X4405820Y-63851502D01*
X4525518Y-63887812D01*
X4650000Y-63900072D01*
X7150000Y-63900072D01*
X7274482Y-63887812D01*
X7394180Y-63851502D01*
X7504494Y-63792537D01*
X7601185Y-63713185D01*
X7680537Y-63616494D01*
X7739502Y-63506180D01*
X7775812Y-63386482D01*
X7788072Y-63262000D01*
X7788072Y-61762000D01*
X7775812Y-61637518D01*
X7739502Y-61517820D01*
X7680537Y-61407506D01*
X7601185Y-61310815D01*
X7504494Y-61231463D01*
X7394180Y-61172498D01*
X7274482Y-61136188D01*
X7150000Y-61123928D01*
X4650000Y-61123928D01*
X4525518Y-61136188D01*
X4405820Y-61172498D01*
X4295506Y-61231463D01*
X4198815Y-61310815D01*
X4119463Y-61407506D01*
X4060498Y-61517820D01*
X4024188Y-61637518D01*
X4011928Y-61762000D01*
X660000Y-61762000D01*
X660000Y-59783105D01*
X675518Y-59787812D01*
X800000Y-59800072D01*
X1414250Y-59797000D01*
X1573000Y-59638250D01*
X1573000Y-58039000D01*
X1827000Y-58039000D01*
X1827000Y-59638250D01*
X1985750Y-59797000D01*
X2600000Y-59800072D01*
X2724482Y-59787812D01*
X2844180Y-59751502D01*
X2954494Y-59692537D01*
X3051185Y-59613185D01*
X3130537Y-59516494D01*
X3189502Y-59406180D01*
X3225812Y-59286482D01*
X3238072Y-59162000D01*
X3235000Y-58197750D01*
X3076250Y-58039000D01*
X1827000Y-58039000D01*
X1573000Y-58039000D01*
X1553000Y-58039000D01*
X1553000Y-57785000D01*
X1573000Y-57785000D01*
X1573000Y-56185750D01*
X1414250Y-56027000D01*
X800000Y-56023928D01*
X675518Y-56036188D01*
X660000Y-56040895D01*
X660000Y-46321105D01*
X675518Y-46325812D01*
X800000Y-46338072D01*
X1414250Y-46335000D01*
X1573000Y-46176250D01*
X1573000Y-44577000D01*
X1553000Y-44577000D01*
X1553000Y-44323000D01*
X1573000Y-44323000D01*
X1573000Y-42723750D01*
X1414250Y-42565000D01*
X800000Y-42561928D01*
X675518Y-42574188D01*
X660000Y-42578895D01*
X660000Y-33621105D01*
X675518Y-33625812D01*
X800000Y-33638072D01*
X1414250Y-33635000D01*
X1573000Y-33476250D01*
X1573000Y-31877000D01*
X1553000Y-31877000D01*
X1553000Y-31623000D01*
X1573000Y-31623000D01*
X1573000Y-30023750D01*
X1414250Y-29865000D01*
X800000Y-29861928D01*
X675518Y-29874188D01*
X660000Y-29878895D01*
X660000Y-20921105D01*
X675518Y-20925812D01*
X800000Y-20938072D01*
X1414250Y-20935000D01*
X1573000Y-20776250D01*
X1573000Y-19177000D01*
X1553000Y-19177000D01*
X1553000Y-18923000D01*
X1573000Y-18923000D01*
X1573000Y-17323750D01*
X1414250Y-17165000D01*
X800000Y-17161928D01*
X675518Y-17174188D01*
X660000Y-17178895D01*
X660000Y-9200000D01*
X11461928Y-9200000D01*
X11461928Y-11700000D01*
X11474188Y-11824482D01*
X11510498Y-11944180D01*
X11569463Y-12054494D01*
X11648815Y-12151185D01*
X11745506Y-12230537D01*
X11855820Y-12289502D01*
X11975518Y-12325812D01*
X12100000Y-12338072D01*
X13900000Y-12338072D01*
X14024482Y-12325812D01*
X14144180Y-12289502D01*
X14254494Y-12230537D01*
X14351185Y-12151185D01*
X14430537Y-12054494D01*
X14489502Y-11944180D01*
X14525812Y-11824482D01*
X14538072Y-11700000D01*
X14538072Y-9200000D01*
X14525812Y-9075518D01*
X14489502Y-8955820D01*
X14430537Y-8845506D01*
X14351185Y-8748815D01*
X14254494Y-8669463D01*
X14144180Y-8610498D01*
X14024482Y-8574188D01*
X13900000Y-8561928D01*
X12100000Y-8561928D01*
X11975518Y-8574188D01*
X11855820Y-8610498D01*
X11745506Y-8669463D01*
X11648815Y-8748815D01*
X11569463Y-8845506D01*
X11510498Y-8955820D01*
X11474188Y-9075518D01*
X11461928Y-9200000D01*
X660000Y-9200000D01*
X660000Y-8221105D01*
X675518Y-8225812D01*
X800000Y-8238072D01*
X1414250Y-8235000D01*
X1573000Y-8076250D01*
X1573000Y-6477000D01*
X1827000Y-6477000D01*
X1827000Y-8076250D01*
X1985750Y-8235000D01*
X2600000Y-8238072D01*
X2724482Y-8225812D01*
X2844180Y-8189502D01*
X2954494Y-8130537D01*
X3051185Y-8051185D01*
X3130537Y-7954494D01*
X3189502Y-7844180D01*
X3225812Y-7724482D01*
X3238072Y-7600000D01*
X3237686Y-7478665D01*
X14440000Y-7478665D01*
X14440000Y-7761335D01*
X14495147Y-8038574D01*
X14603320Y-8299727D01*
X14760363Y-8534759D01*
X14960241Y-8734637D01*
X15195273Y-8891680D01*
X15456426Y-8999853D01*
X15733665Y-9055000D01*
X16016335Y-9055000D01*
X16293574Y-8999853D01*
X16554727Y-8891680D01*
X16789759Y-8734637D01*
X16989637Y-8534759D01*
X17146680Y-8299727D01*
X17254853Y-8038574D01*
X17310000Y-7761335D01*
X17310000Y-7478665D01*
X17254853Y-7201426D01*
X17146680Y-6940273D01*
X16989637Y-6705241D01*
X16789759Y-6505363D01*
X16554727Y-6348320D01*
X16543435Y-6343643D01*
X16612420Y-6311037D01*
X16838414Y-6143519D01*
X17027385Y-5935131D01*
X17172070Y-5693881D01*
X17266909Y-5429040D01*
X17145624Y-5207000D01*
X16002000Y-5207000D01*
X16002000Y-5227000D01*
X15748000Y-5227000D01*
X15748000Y-5207000D01*
X14604376Y-5207000D01*
X14483091Y-5429040D01*
X14577930Y-5693881D01*
X14722615Y-5935131D01*
X14911586Y-6143519D01*
X15137580Y-6311037D01*
X15206565Y-6343643D01*
X15195273Y-6348320D01*
X14960241Y-6505363D01*
X14760363Y-6705241D01*
X14603320Y-6940273D01*
X14495147Y-7201426D01*
X14440000Y-7478665D01*
X3237686Y-7478665D01*
X3235000Y-6635750D01*
X3076250Y-6477000D01*
X1827000Y-6477000D01*
X1573000Y-6477000D01*
X1553000Y-6477000D01*
X1553000Y-6223000D01*
X1573000Y-6223000D01*
X1573000Y-4623750D01*
X1827000Y-4623750D01*
X1827000Y-6223000D01*
X3076250Y-6223000D01*
X3235000Y-6064250D01*
X3238072Y-5100000D01*
X3225812Y-4975518D01*
X3189502Y-4855820D01*
X3130537Y-4745506D01*
X3051185Y-4648815D01*
X2954494Y-4569463D01*
X2844180Y-4510498D01*
X2724482Y-4474188D01*
X2600000Y-4461928D01*
X1985750Y-4465000D01*
X1827000Y-4623750D01*
X1573000Y-4623750D01*
X1414250Y-4465000D01*
X800000Y-4461928D01*
X675518Y-4474188D01*
X660000Y-4478895D01*
X660000Y-660000D01*
X7711928Y-660000D01*
X7711928Y-1900000D01*
G37*
G04 #@! TD.AperFunction*
D24*
X24607068Y-86158158D02*
X24719010Y-86428411D01*
X24881525Y-86671632D01*
X25088368Y-86878475D01*
X25261729Y-86994311D01*
X25186208Y-87236603D01*
X26035000Y-88085395D01*
X26883792Y-87236603D01*
X26808271Y-86994311D01*
X26981632Y-86878475D01*
X27188475Y-86671632D01*
X27305000Y-86497240D01*
X27421525Y-86671632D01*
X27628368Y-86878475D01*
X27801729Y-86994311D01*
X27726208Y-87236603D01*
X28575000Y-88085395D01*
X28589143Y-88071253D01*
X28768748Y-88250858D01*
X28754605Y-88265000D01*
X28768748Y-88279143D01*
X28589143Y-88458748D01*
X28575000Y-88444605D01*
X27726208Y-89293397D01*
X27801514Y-89535000D01*
X27726208Y-89776603D01*
X28575000Y-90625395D01*
X28589143Y-90611253D01*
X28768748Y-90790858D01*
X28754605Y-90805000D01*
X28768748Y-90819143D01*
X28589143Y-90998748D01*
X28575000Y-90984605D01*
X27726208Y-91833397D01*
X27801514Y-92075000D01*
X27726208Y-92316603D01*
X28575000Y-93165395D01*
X28589143Y-93151253D01*
X28768748Y-93330858D01*
X28754605Y-93345000D01*
X28768748Y-93359143D01*
X28589143Y-93538748D01*
X28575000Y-93524605D01*
X27726208Y-94373397D01*
X27801729Y-94615689D01*
X27628368Y-94731525D01*
X27421525Y-94938368D01*
X27305000Y-95112760D01*
X27188475Y-94938368D01*
X26981632Y-94731525D01*
X26808271Y-94615689D01*
X26883792Y-94373397D01*
X26035000Y-93524605D01*
X25186208Y-94373397D01*
X25261729Y-94615689D01*
X25088368Y-94731525D01*
X24881525Y-94938368D01*
X24719010Y-95181589D01*
X24607068Y-95451842D01*
X24598072Y-95497068D01*
X24598072Y-94785000D01*
X24585812Y-94660518D01*
X24549502Y-94540820D01*
X24490537Y-94430506D01*
X24411185Y-94333815D01*
X24314494Y-94254463D01*
X24204180Y-94195498D01*
X24084482Y-94159188D01*
X23960000Y-94146928D01*
X21760000Y-94146928D01*
X21635518Y-94159188D01*
X21515820Y-94195498D01*
X21405506Y-94254463D01*
X21308815Y-94333815D01*
X21229463Y-94430506D01*
X21209000Y-94468789D01*
X21188537Y-94430506D01*
X21109185Y-94333815D01*
X21012494Y-94254463D01*
X20902180Y-94195498D01*
X20782482Y-94159188D01*
X20658000Y-94146928D01*
X20318000Y-94146928D01*
X20318000Y-93413531D01*
X24544389Y-93413531D01*
X24586401Y-93703019D01*
X24684081Y-93978747D01*
X24757528Y-94116157D01*
X25006603Y-94193792D01*
X25855395Y-93345000D01*
X26214605Y-93345000D01*
X27063397Y-94193792D01*
X27305000Y-94118486D01*
X27546603Y-94193792D01*
X28395395Y-93345000D01*
X27546603Y-92496208D01*
X27305000Y-92571514D01*
X27063397Y-92496208D01*
X26214605Y-93345000D01*
X25855395Y-93345000D01*
X25006603Y-92496208D01*
X24757528Y-92573843D01*
X24631629Y-92837883D01*
X24559661Y-93121411D01*
X24544389Y-93413531D01*
X20318000Y-93413531D01*
X20318000Y-92770801D01*
X21255404Y-91833397D01*
X25186208Y-91833397D01*
X25261514Y-92075000D01*
X25186208Y-92316603D01*
X26035000Y-93165395D01*
X26883792Y-92316603D01*
X26808486Y-92075000D01*
X26883792Y-91833397D01*
X26035000Y-90984605D01*
X25186208Y-91833397D01*
X21255404Y-91833397D01*
X21720004Y-91368798D01*
X21749001Y-91345001D01*
X21843974Y-91229276D01*
X21914546Y-91097247D01*
X21958003Y-90953986D01*
X21965927Y-90873531D01*
X24544389Y-90873531D01*
X24586401Y-91163019D01*
X24684081Y-91438747D01*
X24757528Y-91576157D01*
X25006603Y-91653792D01*
X25855395Y-90805000D01*
X26214605Y-90805000D01*
X27063397Y-91653792D01*
X27305000Y-91578486D01*
X27546603Y-91653792D01*
X28395395Y-90805000D01*
X27546603Y-89956208D01*
X27305000Y-90031514D01*
X27063397Y-89956208D01*
X26214605Y-90805000D01*
X25855395Y-90805000D01*
X25006603Y-89956208D01*
X24757528Y-90033843D01*
X24631629Y-90297883D01*
X24559661Y-90581411D01*
X24544389Y-90873531D01*
X21965927Y-90873531D01*
X21969000Y-90842333D01*
X21969000Y-90842332D01*
X21972677Y-90805000D01*
X21969000Y-90767667D01*
X21969000Y-89293397D01*
X25186208Y-89293397D01*
X25261514Y-89535000D01*
X25186208Y-89776603D01*
X26035000Y-90625395D01*
X26883792Y-89776603D01*
X26808486Y-89535000D01*
X26883792Y-89293397D01*
X26035000Y-88444605D01*
X25186208Y-89293397D01*
X21969000Y-89293397D01*
X21969000Y-88333531D01*
X24544389Y-88333531D01*
X24586401Y-88623019D01*
X24684081Y-88898747D01*
X24757528Y-89036157D01*
X25006603Y-89113792D01*
X25855395Y-88265000D01*
X26214605Y-88265000D01*
X27063397Y-89113792D01*
X27305000Y-89038486D01*
X27546603Y-89113792D01*
X28395395Y-88265000D01*
X27546603Y-87416208D01*
X27305000Y-87491514D01*
X27063397Y-87416208D01*
X26214605Y-88265000D01*
X25855395Y-88265000D01*
X25006603Y-87416208D01*
X24757528Y-87493843D01*
X24631629Y-87757883D01*
X24559661Y-88041411D01*
X24544389Y-88333531D01*
X21969000Y-88333531D01*
X21969000Y-87216320D01*
X22038169Y-87262537D01*
X22353919Y-87393325D01*
X22689117Y-87460000D01*
X23030883Y-87460000D01*
X23366081Y-87393325D01*
X23681831Y-87262537D01*
X23965998Y-87072663D01*
X24207663Y-86830998D01*
X24397537Y-86546831D01*
X24528325Y-86231081D01*
X24574949Y-85996686D01*
X24607068Y-86158158D01*
G04 #@! TA.AperFunction,Conductor*
D25*
G36*
X24607068Y-86158158D02*
G01*
X24719010Y-86428411D01*
X24881525Y-86671632D01*
X25088368Y-86878475D01*
X25261729Y-86994311D01*
X25186208Y-87236603D01*
X26035000Y-88085395D01*
X26883792Y-87236603D01*
X26808271Y-86994311D01*
X26981632Y-86878475D01*
X27188475Y-86671632D01*
X27305000Y-86497240D01*
X27421525Y-86671632D01*
X27628368Y-86878475D01*
X27801729Y-86994311D01*
X27726208Y-87236603D01*
X28575000Y-88085395D01*
X28589143Y-88071253D01*
X28768748Y-88250858D01*
X28754605Y-88265000D01*
X28768748Y-88279143D01*
X28589143Y-88458748D01*
X28575000Y-88444605D01*
X27726208Y-89293397D01*
X27801514Y-89535000D01*
X27726208Y-89776603D01*
X28575000Y-90625395D01*
X28589143Y-90611253D01*
X28768748Y-90790858D01*
X28754605Y-90805000D01*
X28768748Y-90819143D01*
X28589143Y-90998748D01*
X28575000Y-90984605D01*
X27726208Y-91833397D01*
X27801514Y-92075000D01*
X27726208Y-92316603D01*
X28575000Y-93165395D01*
X28589143Y-93151253D01*
X28768748Y-93330858D01*
X28754605Y-93345000D01*
X28768748Y-93359143D01*
X28589143Y-93538748D01*
X28575000Y-93524605D01*
X27726208Y-94373397D01*
X27801729Y-94615689D01*
X27628368Y-94731525D01*
X27421525Y-94938368D01*
X27305000Y-95112760D01*
X27188475Y-94938368D01*
X26981632Y-94731525D01*
X26808271Y-94615689D01*
X26883792Y-94373397D01*
X26035000Y-93524605D01*
X25186208Y-94373397D01*
X25261729Y-94615689D01*
X25088368Y-94731525D01*
X24881525Y-94938368D01*
X24719010Y-95181589D01*
X24607068Y-95451842D01*
X24598072Y-95497068D01*
X24598072Y-94785000D01*
X24585812Y-94660518D01*
X24549502Y-94540820D01*
X24490537Y-94430506D01*
X24411185Y-94333815D01*
X24314494Y-94254463D01*
X24204180Y-94195498D01*
X24084482Y-94159188D01*
X23960000Y-94146928D01*
X21760000Y-94146928D01*
X21635518Y-94159188D01*
X21515820Y-94195498D01*
X21405506Y-94254463D01*
X21308815Y-94333815D01*
X21229463Y-94430506D01*
X21209000Y-94468789D01*
X21188537Y-94430506D01*
X21109185Y-94333815D01*
X21012494Y-94254463D01*
X20902180Y-94195498D01*
X20782482Y-94159188D01*
X20658000Y-94146928D01*
X20318000Y-94146928D01*
X20318000Y-93413531D01*
X24544389Y-93413531D01*
X24586401Y-93703019D01*
X24684081Y-93978747D01*
X24757528Y-94116157D01*
X25006603Y-94193792D01*
X25855395Y-93345000D01*
X26214605Y-93345000D01*
X27063397Y-94193792D01*
X27305000Y-94118486D01*
X27546603Y-94193792D01*
X28395395Y-93345000D01*
X27546603Y-92496208D01*
X27305000Y-92571514D01*
X27063397Y-92496208D01*
X26214605Y-93345000D01*
X25855395Y-93345000D01*
X25006603Y-92496208D01*
X24757528Y-92573843D01*
X24631629Y-92837883D01*
X24559661Y-93121411D01*
X24544389Y-93413531D01*
X20318000Y-93413531D01*
X20318000Y-92770801D01*
X21255404Y-91833397D01*
X25186208Y-91833397D01*
X25261514Y-92075000D01*
X25186208Y-92316603D01*
X26035000Y-93165395D01*
X26883792Y-92316603D01*
X26808486Y-92075000D01*
X26883792Y-91833397D01*
X26035000Y-90984605D01*
X25186208Y-91833397D01*
X21255404Y-91833397D01*
X21720004Y-91368798D01*
X21749001Y-91345001D01*
X21843974Y-91229276D01*
X21914546Y-91097247D01*
X21958003Y-90953986D01*
X21965927Y-90873531D01*
X24544389Y-90873531D01*
X24586401Y-91163019D01*
X24684081Y-91438747D01*
X24757528Y-91576157D01*
X25006603Y-91653792D01*
X25855395Y-90805000D01*
X26214605Y-90805000D01*
X27063397Y-91653792D01*
X27305000Y-91578486D01*
X27546603Y-91653792D01*
X28395395Y-90805000D01*
X27546603Y-89956208D01*
X27305000Y-90031514D01*
X27063397Y-89956208D01*
X26214605Y-90805000D01*
X25855395Y-90805000D01*
X25006603Y-89956208D01*
X24757528Y-90033843D01*
X24631629Y-90297883D01*
X24559661Y-90581411D01*
X24544389Y-90873531D01*
X21965927Y-90873531D01*
X21969000Y-90842333D01*
X21969000Y-90842332D01*
X21972677Y-90805000D01*
X21969000Y-90767667D01*
X21969000Y-89293397D01*
X25186208Y-89293397D01*
X25261514Y-89535000D01*
X25186208Y-89776603D01*
X26035000Y-90625395D01*
X26883792Y-89776603D01*
X26808486Y-89535000D01*
X26883792Y-89293397D01*
X26035000Y-88444605D01*
X25186208Y-89293397D01*
X21969000Y-89293397D01*
X21969000Y-88333531D01*
X24544389Y-88333531D01*
X24586401Y-88623019D01*
X24684081Y-88898747D01*
X24757528Y-89036157D01*
X25006603Y-89113792D01*
X25855395Y-88265000D01*
X26214605Y-88265000D01*
X27063397Y-89113792D01*
X27305000Y-89038486D01*
X27546603Y-89113792D01*
X28395395Y-88265000D01*
X27546603Y-87416208D01*
X27305000Y-87491514D01*
X27063397Y-87416208D01*
X26214605Y-88265000D01*
X25855395Y-88265000D01*
X25006603Y-87416208D01*
X24757528Y-87493843D01*
X24631629Y-87757883D01*
X24559661Y-88041411D01*
X24544389Y-88333531D01*
X21969000Y-88333531D01*
X21969000Y-87216320D01*
X22038169Y-87262537D01*
X22353919Y-87393325D01*
X22689117Y-87460000D01*
X23030883Y-87460000D01*
X23366081Y-87393325D01*
X23681831Y-87262537D01*
X23965998Y-87072663D01*
X24207663Y-86830998D01*
X24397537Y-86546831D01*
X24528325Y-86231081D01*
X24574949Y-85996686D01*
X24607068Y-86158158D01*
G37*
G04 #@! TD.AperFunction*
D24*
X29185000Y-73151214D02*
X29185000Y-76750318D01*
X29008158Y-76677068D01*
X28721260Y-76620000D01*
X28428740Y-76620000D01*
X28141842Y-76677068D01*
X27871589Y-76789010D01*
X27628368Y-76951525D01*
X27441285Y-77138608D01*
X27373405Y-77011614D01*
X27262962Y-76877038D01*
X27128386Y-76766595D01*
X26974850Y-76684528D01*
X26808254Y-76633992D01*
X26635000Y-76616928D01*
X25435000Y-76616928D01*
X25261746Y-76633992D01*
X25095150Y-76684528D01*
X24941614Y-76766595D01*
X24807038Y-76877038D01*
X24696595Y-77011614D01*
X24614528Y-77165150D01*
X24563992Y-77331746D01*
X24546928Y-77505000D01*
X24546928Y-78705000D01*
X24563992Y-78878254D01*
X24614528Y-79044850D01*
X24696595Y-79198386D01*
X24807038Y-79332962D01*
X24941614Y-79443405D01*
X25068608Y-79511285D01*
X24881525Y-79698368D01*
X24719010Y-79941589D01*
X24607068Y-80211842D01*
X24550000Y-80498740D01*
X24550000Y-80791260D01*
X24607068Y-81078158D01*
X24719010Y-81348411D01*
X24881525Y-81591632D01*
X25088368Y-81798475D01*
X25262760Y-81915000D01*
X25088368Y-82031525D01*
X24881525Y-82238368D01*
X24719010Y-82481589D01*
X24607068Y-82751842D01*
X24550000Y-83038740D01*
X24550000Y-83331260D01*
X24607068Y-83618158D01*
X24719010Y-83888411D01*
X24881525Y-84131632D01*
X25088368Y-84338475D01*
X25262760Y-84455000D01*
X25088368Y-84571525D01*
X24881525Y-84778368D01*
X24719010Y-85021589D01*
X24607068Y-85291842D01*
X24574949Y-85453314D01*
X24528325Y-85218919D01*
X24397537Y-84903169D01*
X24207663Y-84619002D01*
X23965998Y-84377337D01*
X23681831Y-84187463D01*
X23620000Y-84161852D01*
X23620000Y-73339801D01*
X23809802Y-73150000D01*
X29172678Y-73150000D01*
X29185000Y-73151214D01*
G04 #@! TA.AperFunction,Conductor*
D25*
G36*
X29185000Y-73151214D02*
G01*
X29185000Y-76750318D01*
X29008158Y-76677068D01*
X28721260Y-76620000D01*
X28428740Y-76620000D01*
X28141842Y-76677068D01*
X27871589Y-76789010D01*
X27628368Y-76951525D01*
X27441285Y-77138608D01*
X27373405Y-77011614D01*
X27262962Y-76877038D01*
X27128386Y-76766595D01*
X26974850Y-76684528D01*
X26808254Y-76633992D01*
X26635000Y-76616928D01*
X25435000Y-76616928D01*
X25261746Y-76633992D01*
X25095150Y-76684528D01*
X24941614Y-76766595D01*
X24807038Y-76877038D01*
X24696595Y-77011614D01*
X24614528Y-77165150D01*
X24563992Y-77331746D01*
X24546928Y-77505000D01*
X24546928Y-78705000D01*
X24563992Y-78878254D01*
X24614528Y-79044850D01*
X24696595Y-79198386D01*
X24807038Y-79332962D01*
X24941614Y-79443405D01*
X25068608Y-79511285D01*
X24881525Y-79698368D01*
X24719010Y-79941589D01*
X24607068Y-80211842D01*
X24550000Y-80498740D01*
X24550000Y-80791260D01*
X24607068Y-81078158D01*
X24719010Y-81348411D01*
X24881525Y-81591632D01*
X25088368Y-81798475D01*
X25262760Y-81915000D01*
X25088368Y-82031525D01*
X24881525Y-82238368D01*
X24719010Y-82481589D01*
X24607068Y-82751842D01*
X24550000Y-83038740D01*
X24550000Y-83331260D01*
X24607068Y-83618158D01*
X24719010Y-83888411D01*
X24881525Y-84131632D01*
X25088368Y-84338475D01*
X25262760Y-84455000D01*
X25088368Y-84571525D01*
X24881525Y-84778368D01*
X24719010Y-85021589D01*
X24607068Y-85291842D01*
X24574949Y-85453314D01*
X24528325Y-85218919D01*
X24397537Y-84903169D01*
X24207663Y-84619002D01*
X23965998Y-84377337D01*
X23681831Y-84187463D01*
X23620000Y-84161852D01*
X23620000Y-73339801D01*
X23809802Y-73150000D01*
X29172678Y-73150000D01*
X29185000Y-73151214D01*
G37*
G04 #@! TD.AperFunction*
D24*
X27940026Y-65194276D02*
X27979871Y-65242826D01*
X28034999Y-65310001D01*
X28064003Y-65333804D01*
X29244001Y-66513803D01*
X29244001Y-67361956D01*
X29089241Y-67465363D01*
X28889363Y-67665241D01*
X28732320Y-67900273D01*
X28624147Y-68161426D01*
X28569000Y-68438665D01*
X28569000Y-68721335D01*
X28624147Y-68998574D01*
X28732320Y-69259727D01*
X28889363Y-69494759D01*
X29089241Y-69694637D01*
X29244001Y-69798044D01*
X29244000Y-71281198D01*
X28895199Y-71630000D01*
X25964801Y-71630000D01*
X26419003Y-71175798D01*
X26448001Y-71152001D01*
X26542974Y-71036276D01*
X26613546Y-70904247D01*
X26657003Y-70760986D01*
X26668000Y-70649333D01*
X26668000Y-70649324D01*
X26671676Y-70612001D01*
X26668000Y-70574678D01*
X26668000Y-70018072D01*
X26708000Y-70018072D01*
X26832482Y-70005812D01*
X26952180Y-69969502D01*
X27062494Y-69910537D01*
X27159185Y-69831185D01*
X27238537Y-69734494D01*
X27297502Y-69624180D01*
X27333812Y-69504482D01*
X27346072Y-69380000D01*
X27346072Y-67780000D01*
X27333812Y-67655518D01*
X27297502Y-67535820D01*
X27238537Y-67425506D01*
X27159185Y-67328815D01*
X27062494Y-67249463D01*
X26952180Y-67190498D01*
X26832482Y-67154188D01*
X26708000Y-67141928D01*
X26668000Y-67141928D01*
X26668000Y-66481801D01*
X27816004Y-65333798D01*
X27845001Y-65310001D01*
X27939974Y-65194276D01*
X27940000Y-65194227D01*
X27940026Y-65194276D01*
G04 #@! TA.AperFunction,Conductor*
D25*
G36*
X27940026Y-65194276D02*
G01*
X27979871Y-65242826D01*
X28034999Y-65310001D01*
X28064003Y-65333804D01*
X29244001Y-66513803D01*
X29244001Y-67361956D01*
X29089241Y-67465363D01*
X28889363Y-67665241D01*
X28732320Y-67900273D01*
X28624147Y-68161426D01*
X28569000Y-68438665D01*
X28569000Y-68721335D01*
X28624147Y-68998574D01*
X28732320Y-69259727D01*
X28889363Y-69494759D01*
X29089241Y-69694637D01*
X29244001Y-69798044D01*
X29244000Y-71281198D01*
X28895199Y-71630000D01*
X25964801Y-71630000D01*
X26419003Y-71175798D01*
X26448001Y-71152001D01*
X26542974Y-71036276D01*
X26613546Y-70904247D01*
X26657003Y-70760986D01*
X26668000Y-70649333D01*
X26668000Y-70649324D01*
X26671676Y-70612001D01*
X26668000Y-70574678D01*
X26668000Y-70018072D01*
X26708000Y-70018072D01*
X26832482Y-70005812D01*
X26952180Y-69969502D01*
X27062494Y-69910537D01*
X27159185Y-69831185D01*
X27238537Y-69734494D01*
X27297502Y-69624180D01*
X27333812Y-69504482D01*
X27346072Y-69380000D01*
X27346072Y-67780000D01*
X27333812Y-67655518D01*
X27297502Y-67535820D01*
X27238537Y-67425506D01*
X27159185Y-67328815D01*
X27062494Y-67249463D01*
X26952180Y-67190498D01*
X26832482Y-67154188D01*
X26708000Y-67141928D01*
X26668000Y-67141928D01*
X26668000Y-66481801D01*
X27816004Y-65333798D01*
X27845001Y-65310001D01*
X27939974Y-65194276D01*
X27940000Y-65194227D01*
X27940026Y-65194276D01*
G37*
G04 #@! TD.AperFunction*
M02*
