G04 #@! TF.GenerationSoftware,KiCad,Pcbnew,(5.1.9)-1*
G04 #@! TF.CreationDate,2021-02-26T13:35:39+01:00*
G04 #@! TF.ProjectId,Dual VCA #2 Front,4475616c-2056-4434-9120-23322046726f,rev?*
G04 #@! TF.SameCoordinates,Original*
G04 #@! TF.FileFunction,Copper,L1,Top*
G04 #@! TF.FilePolarity,Positive*
%FSLAX46Y46*%
G04 Gerber Fmt 4.6, Leading zero omitted, Abs format (unit mm)*
G04 Created by KiCad (PCBNEW (5.1.9)-1) date 2021-02-26 13:35:39*
%MOMM*%
%LPD*%
G01*
G04 APERTURE LIST*
G04 #@! TA.AperFunction,NonConductor*
%ADD10C,0.254000*%
G04 #@! TD*
G04 #@! TA.AperFunction,NonConductor*
%ADD11C,0.100000*%
G04 #@! TD*
G04 APERTURE END LIST*
D10*
X59940001Y-127840000D02*
X660000Y-127840000D01*
X660000Y-125279872D01*
X5265000Y-125279872D01*
X5265000Y-125720128D01*
X5350890Y-126151925D01*
X5519369Y-126558669D01*
X5763962Y-126924729D01*
X6075271Y-127236038D01*
X6441331Y-127480631D01*
X6848075Y-127649110D01*
X7279872Y-127735000D01*
X7720128Y-127735000D01*
X8151925Y-127649110D01*
X8558669Y-127480631D01*
X8924729Y-127236038D01*
X9236038Y-126924729D01*
X9480631Y-126558669D01*
X9649110Y-126151925D01*
X9735000Y-125720128D01*
X9735000Y-125279872D01*
X50985000Y-125279872D01*
X50985000Y-125720128D01*
X51070890Y-126151925D01*
X51239369Y-126558669D01*
X51483962Y-126924729D01*
X51795271Y-127236038D01*
X52161331Y-127480631D01*
X52568075Y-127649110D01*
X52999872Y-127735000D01*
X53440128Y-127735000D01*
X53871925Y-127649110D01*
X54278669Y-127480631D01*
X54644729Y-127236038D01*
X54956038Y-126924729D01*
X55200631Y-126558669D01*
X55369110Y-126151925D01*
X55455000Y-125720128D01*
X55455000Y-125279872D01*
X55369110Y-124848075D01*
X55200631Y-124441331D01*
X54956038Y-124075271D01*
X54644729Y-123763962D01*
X54278669Y-123519369D01*
X53871925Y-123350890D01*
X53440128Y-123265000D01*
X52999872Y-123265000D01*
X52568075Y-123350890D01*
X52161331Y-123519369D01*
X51795271Y-123763962D01*
X51483962Y-124075271D01*
X51239369Y-124441331D01*
X51070890Y-124848075D01*
X50985000Y-125279872D01*
X9735000Y-125279872D01*
X9649110Y-124848075D01*
X9480631Y-124441331D01*
X9236038Y-124075271D01*
X8924729Y-123763962D01*
X8558669Y-123519369D01*
X8151925Y-123350890D01*
X7720128Y-123265000D01*
X7279872Y-123265000D01*
X6848075Y-123350890D01*
X6441331Y-123519369D01*
X6075271Y-123763962D01*
X5763962Y-124075271D01*
X5519369Y-124441331D01*
X5350890Y-124848075D01*
X5265000Y-125279872D01*
X660000Y-125279872D01*
X660000Y-104522135D01*
X11960000Y-104522135D01*
X11960000Y-105257865D01*
X12103534Y-105979459D01*
X12385086Y-106659186D01*
X12793836Y-107270924D01*
X13314076Y-107791164D01*
X13925814Y-108199914D01*
X14605541Y-108481466D01*
X15327135Y-108625000D01*
X16062865Y-108625000D01*
X16784459Y-108481466D01*
X17464186Y-108199914D01*
X18075924Y-107791164D01*
X18596164Y-107270924D01*
X19004914Y-106659186D01*
X19286466Y-105979459D01*
X19430000Y-105257865D01*
X19430000Y-104522135D01*
X41170000Y-104522135D01*
X41170000Y-105257865D01*
X41313534Y-105979459D01*
X41595086Y-106659186D01*
X42003836Y-107270924D01*
X42524076Y-107791164D01*
X43135814Y-108199914D01*
X43815541Y-108481466D01*
X44537135Y-108625000D01*
X45272865Y-108625000D01*
X45994459Y-108481466D01*
X46674186Y-108199914D01*
X47285924Y-107791164D01*
X47806164Y-107270924D01*
X48214914Y-106659186D01*
X48496466Y-105979459D01*
X48640000Y-105257865D01*
X48640000Y-104522135D01*
X48496466Y-103800541D01*
X48214914Y-103120814D01*
X47806164Y-102509076D01*
X47285924Y-101988836D01*
X46674186Y-101580086D01*
X45994459Y-101298534D01*
X45272865Y-101155000D01*
X44537135Y-101155000D01*
X43815541Y-101298534D01*
X43135814Y-101580086D01*
X42524076Y-101988836D01*
X42003836Y-102509076D01*
X41595086Y-103120814D01*
X41313534Y-103800541D01*
X41170000Y-104522135D01*
X19430000Y-104522135D01*
X19286466Y-103800541D01*
X19004914Y-103120814D01*
X18596164Y-102509076D01*
X18075924Y-101988836D01*
X17464186Y-101580086D01*
X16784459Y-101298534D01*
X16062865Y-101155000D01*
X15327135Y-101155000D01*
X14605541Y-101298534D01*
X13925814Y-101580086D01*
X13314076Y-101988836D01*
X12793836Y-102509076D01*
X12385086Y-103120814D01*
X12103534Y-103800541D01*
X11960000Y-104522135D01*
X660000Y-104522135D01*
X660000Y-84202135D01*
X11960000Y-84202135D01*
X11960000Y-84937865D01*
X12103534Y-85659459D01*
X12385086Y-86339186D01*
X12793836Y-86950924D01*
X13314076Y-87471164D01*
X13925814Y-87879914D01*
X14605541Y-88161466D01*
X15327135Y-88305000D01*
X16062865Y-88305000D01*
X16784459Y-88161466D01*
X17464186Y-87879914D01*
X18075924Y-87471164D01*
X18596164Y-86950924D01*
X19004914Y-86339186D01*
X19286466Y-85659459D01*
X19430000Y-84937865D01*
X19430000Y-84202135D01*
X41170000Y-84202135D01*
X41170000Y-84937865D01*
X41313534Y-85659459D01*
X41595086Y-86339186D01*
X42003836Y-86950924D01*
X42524076Y-87471164D01*
X43135814Y-87879914D01*
X43815541Y-88161466D01*
X44537135Y-88305000D01*
X45272865Y-88305000D01*
X45994459Y-88161466D01*
X46674186Y-87879914D01*
X47285924Y-87471164D01*
X47806164Y-86950924D01*
X48214914Y-86339186D01*
X48496466Y-85659459D01*
X48640000Y-84937865D01*
X48640000Y-84202135D01*
X48496466Y-83480541D01*
X48214914Y-82800814D01*
X47806164Y-82189076D01*
X47285924Y-81668836D01*
X46674186Y-81260086D01*
X45994459Y-80978534D01*
X45272865Y-80835000D01*
X44537135Y-80835000D01*
X43815541Y-80978534D01*
X43135814Y-81260086D01*
X42524076Y-81668836D01*
X42003836Y-82189076D01*
X41595086Y-82800814D01*
X41313534Y-83480541D01*
X41170000Y-84202135D01*
X19430000Y-84202135D01*
X19286466Y-83480541D01*
X19004914Y-82800814D01*
X18596164Y-82189076D01*
X18075924Y-81668836D01*
X17464186Y-81260086D01*
X16784459Y-80978534D01*
X16062865Y-80835000D01*
X15327135Y-80835000D01*
X14605541Y-80978534D01*
X13925814Y-81260086D01*
X13314076Y-81668836D01*
X12793836Y-82189076D01*
X12385086Y-82800814D01*
X12103534Y-83480541D01*
X11960000Y-84202135D01*
X660000Y-84202135D01*
X660000Y-63931380D01*
X12460000Y-63931380D01*
X12460000Y-64568620D01*
X12584319Y-65193615D01*
X12828180Y-65782347D01*
X13182211Y-66312192D01*
X13632808Y-66762789D01*
X14162653Y-67116820D01*
X14751385Y-67360681D01*
X15376380Y-67485000D01*
X16013620Y-67485000D01*
X16638615Y-67360681D01*
X17227347Y-67116820D01*
X17757192Y-66762789D01*
X18207789Y-66312192D01*
X18561820Y-65782347D01*
X18805681Y-65193615D01*
X18930000Y-64568620D01*
X18930000Y-63931380D01*
X41670000Y-63931380D01*
X41670000Y-64568620D01*
X41794319Y-65193615D01*
X42038180Y-65782347D01*
X42392211Y-66312192D01*
X42842808Y-66762789D01*
X43372653Y-67116820D01*
X43961385Y-67360681D01*
X44586380Y-67485000D01*
X45223620Y-67485000D01*
X45848615Y-67360681D01*
X46437347Y-67116820D01*
X46967192Y-66762789D01*
X47417789Y-66312192D01*
X47771820Y-65782347D01*
X48015681Y-65193615D01*
X48140000Y-64568620D01*
X48140000Y-63931380D01*
X48015681Y-63306385D01*
X47771820Y-62717653D01*
X47417789Y-62187808D01*
X46967192Y-61737211D01*
X46437347Y-61383180D01*
X45848615Y-61139319D01*
X45223620Y-61015000D01*
X44586380Y-61015000D01*
X43961385Y-61139319D01*
X43372653Y-61383180D01*
X42842808Y-61737211D01*
X42392211Y-62187808D01*
X42038180Y-62717653D01*
X41794319Y-63306385D01*
X41670000Y-63931380D01*
X18930000Y-63931380D01*
X18805681Y-63306385D01*
X18561820Y-62717653D01*
X18207789Y-62187808D01*
X17757192Y-61737211D01*
X17227347Y-61383180D01*
X16638615Y-61139319D01*
X16013620Y-61015000D01*
X15376380Y-61015000D01*
X14751385Y-61139319D01*
X14162653Y-61383180D01*
X13632808Y-61737211D01*
X13182211Y-62187808D01*
X12828180Y-62717653D01*
X12584319Y-63306385D01*
X12460000Y-63931380D01*
X660000Y-63931380D01*
X660000Y-43562135D01*
X11960000Y-43562135D01*
X11960000Y-44297865D01*
X12103534Y-45019459D01*
X12385086Y-45699186D01*
X12793836Y-46310924D01*
X13314076Y-46831164D01*
X13925814Y-47239914D01*
X14605541Y-47521466D01*
X15327135Y-47665000D01*
X16062865Y-47665000D01*
X16784459Y-47521466D01*
X17464186Y-47239914D01*
X18075924Y-46831164D01*
X18596164Y-46310924D01*
X19004914Y-45699186D01*
X19286466Y-45019459D01*
X19430000Y-44297865D01*
X19430000Y-43562135D01*
X41170000Y-43562135D01*
X41170000Y-44297865D01*
X41313534Y-45019459D01*
X41595086Y-45699186D01*
X42003836Y-46310924D01*
X42524076Y-46831164D01*
X43135814Y-47239914D01*
X43815541Y-47521466D01*
X44537135Y-47665000D01*
X45272865Y-47665000D01*
X45994459Y-47521466D01*
X46674186Y-47239914D01*
X47285924Y-46831164D01*
X47806164Y-46310924D01*
X48214914Y-45699186D01*
X48496466Y-45019459D01*
X48640000Y-44297865D01*
X48640000Y-43562135D01*
X48496466Y-42840541D01*
X48214914Y-42160814D01*
X47806164Y-41549076D01*
X47285924Y-41028836D01*
X46674186Y-40620086D01*
X45994459Y-40338534D01*
X45272865Y-40195000D01*
X44537135Y-40195000D01*
X43815541Y-40338534D01*
X43135814Y-40620086D01*
X42524076Y-41028836D01*
X42003836Y-41549076D01*
X41595086Y-42160814D01*
X41313534Y-42840541D01*
X41170000Y-43562135D01*
X19430000Y-43562135D01*
X19286466Y-42840541D01*
X19004914Y-42160814D01*
X18596164Y-41549076D01*
X18075924Y-41028836D01*
X17464186Y-40620086D01*
X16784459Y-40338534D01*
X16062865Y-40195000D01*
X15327135Y-40195000D01*
X14605541Y-40338534D01*
X13925814Y-40620086D01*
X13314076Y-41028836D01*
X12793836Y-41549076D01*
X12385086Y-42160814D01*
X12103534Y-42840541D01*
X11960000Y-43562135D01*
X660000Y-43562135D01*
X660000Y-23242135D01*
X11960000Y-23242135D01*
X11960000Y-23977865D01*
X12103534Y-24699459D01*
X12385086Y-25379186D01*
X12793836Y-25990924D01*
X13314076Y-26511164D01*
X13925814Y-26919914D01*
X14605541Y-27201466D01*
X15327135Y-27345000D01*
X16062865Y-27345000D01*
X16784459Y-27201466D01*
X17464186Y-26919914D01*
X18075924Y-26511164D01*
X18596164Y-25990924D01*
X19004914Y-25379186D01*
X19286466Y-24699459D01*
X19430000Y-23977865D01*
X19430000Y-23242135D01*
X41170000Y-23242135D01*
X41170000Y-23977865D01*
X41313534Y-24699459D01*
X41595086Y-25379186D01*
X42003836Y-25990924D01*
X42524076Y-26511164D01*
X43135814Y-26919914D01*
X43815541Y-27201466D01*
X44537135Y-27345000D01*
X45272865Y-27345000D01*
X45994459Y-27201466D01*
X46674186Y-26919914D01*
X47285924Y-26511164D01*
X47806164Y-25990924D01*
X48214914Y-25379186D01*
X48496466Y-24699459D01*
X48640000Y-23977865D01*
X48640000Y-23242135D01*
X48496466Y-22520541D01*
X48214914Y-21840814D01*
X47806164Y-21229076D01*
X47285924Y-20708836D01*
X46674186Y-20300086D01*
X45994459Y-20018534D01*
X45272865Y-19875000D01*
X44537135Y-19875000D01*
X43815541Y-20018534D01*
X43135814Y-20300086D01*
X42524076Y-20708836D01*
X42003836Y-21229076D01*
X41595086Y-21840814D01*
X41313534Y-22520541D01*
X41170000Y-23242135D01*
X19430000Y-23242135D01*
X19286466Y-22520541D01*
X19004914Y-21840814D01*
X18596164Y-21229076D01*
X18075924Y-20708836D01*
X17464186Y-20300086D01*
X16784459Y-20018534D01*
X16062865Y-19875000D01*
X15327135Y-19875000D01*
X14605541Y-20018534D01*
X13925814Y-20300086D01*
X13314076Y-20708836D01*
X12793836Y-21229076D01*
X12385086Y-21840814D01*
X12103534Y-22520541D01*
X11960000Y-23242135D01*
X660000Y-23242135D01*
X660000Y-2779872D01*
X5265000Y-2779872D01*
X5265000Y-3220128D01*
X5350890Y-3651925D01*
X5519369Y-4058669D01*
X5763962Y-4424729D01*
X6075271Y-4736038D01*
X6441331Y-4980631D01*
X6848075Y-5149110D01*
X7279872Y-5235000D01*
X7720128Y-5235000D01*
X8151925Y-5149110D01*
X8558669Y-4980631D01*
X8924729Y-4736038D01*
X9236038Y-4424729D01*
X9480631Y-4058669D01*
X9649110Y-3651925D01*
X9735000Y-3220128D01*
X9735000Y-2779872D01*
X50985000Y-2779872D01*
X50985000Y-3220128D01*
X51070890Y-3651925D01*
X51239369Y-4058669D01*
X51483962Y-4424729D01*
X51795271Y-4736038D01*
X52161331Y-4980631D01*
X52568075Y-5149110D01*
X52999872Y-5235000D01*
X53440128Y-5235000D01*
X53871925Y-5149110D01*
X54278669Y-4980631D01*
X54644729Y-4736038D01*
X54956038Y-4424729D01*
X55200631Y-4058669D01*
X55369110Y-3651925D01*
X55455000Y-3220128D01*
X55455000Y-2779872D01*
X55369110Y-2348075D01*
X55200631Y-1941331D01*
X54956038Y-1575271D01*
X54644729Y-1263962D01*
X54278669Y-1019369D01*
X53871925Y-850890D01*
X53440128Y-765000D01*
X52999872Y-765000D01*
X52568075Y-850890D01*
X52161331Y-1019369D01*
X51795271Y-1263962D01*
X51483962Y-1575271D01*
X51239369Y-1941331D01*
X51070890Y-2348075D01*
X50985000Y-2779872D01*
X9735000Y-2779872D01*
X9649110Y-2348075D01*
X9480631Y-1941331D01*
X9236038Y-1575271D01*
X8924729Y-1263962D01*
X8558669Y-1019369D01*
X8151925Y-850890D01*
X7720128Y-765000D01*
X7279872Y-765000D01*
X6848075Y-850890D01*
X6441331Y-1019369D01*
X6075271Y-1263962D01*
X5763962Y-1575271D01*
X5519369Y-1941331D01*
X5350890Y-2348075D01*
X5265000Y-2779872D01*
X660000Y-2779872D01*
X660000Y-660000D01*
X59940000Y-660000D01*
X59940001Y-127840000D01*
G04 #@! TA.AperFunction,NonConductor*
D11*
G36*
X59940001Y-127840000D02*
G01*
X660000Y-127840000D01*
X660000Y-125279872D01*
X5265000Y-125279872D01*
X5265000Y-125720128D01*
X5350890Y-126151925D01*
X5519369Y-126558669D01*
X5763962Y-126924729D01*
X6075271Y-127236038D01*
X6441331Y-127480631D01*
X6848075Y-127649110D01*
X7279872Y-127735000D01*
X7720128Y-127735000D01*
X8151925Y-127649110D01*
X8558669Y-127480631D01*
X8924729Y-127236038D01*
X9236038Y-126924729D01*
X9480631Y-126558669D01*
X9649110Y-126151925D01*
X9735000Y-125720128D01*
X9735000Y-125279872D01*
X50985000Y-125279872D01*
X50985000Y-125720128D01*
X51070890Y-126151925D01*
X51239369Y-126558669D01*
X51483962Y-126924729D01*
X51795271Y-127236038D01*
X52161331Y-127480631D01*
X52568075Y-127649110D01*
X52999872Y-127735000D01*
X53440128Y-127735000D01*
X53871925Y-127649110D01*
X54278669Y-127480631D01*
X54644729Y-127236038D01*
X54956038Y-126924729D01*
X55200631Y-126558669D01*
X55369110Y-126151925D01*
X55455000Y-125720128D01*
X55455000Y-125279872D01*
X55369110Y-124848075D01*
X55200631Y-124441331D01*
X54956038Y-124075271D01*
X54644729Y-123763962D01*
X54278669Y-123519369D01*
X53871925Y-123350890D01*
X53440128Y-123265000D01*
X52999872Y-123265000D01*
X52568075Y-123350890D01*
X52161331Y-123519369D01*
X51795271Y-123763962D01*
X51483962Y-124075271D01*
X51239369Y-124441331D01*
X51070890Y-124848075D01*
X50985000Y-125279872D01*
X9735000Y-125279872D01*
X9649110Y-124848075D01*
X9480631Y-124441331D01*
X9236038Y-124075271D01*
X8924729Y-123763962D01*
X8558669Y-123519369D01*
X8151925Y-123350890D01*
X7720128Y-123265000D01*
X7279872Y-123265000D01*
X6848075Y-123350890D01*
X6441331Y-123519369D01*
X6075271Y-123763962D01*
X5763962Y-124075271D01*
X5519369Y-124441331D01*
X5350890Y-124848075D01*
X5265000Y-125279872D01*
X660000Y-125279872D01*
X660000Y-104522135D01*
X11960000Y-104522135D01*
X11960000Y-105257865D01*
X12103534Y-105979459D01*
X12385086Y-106659186D01*
X12793836Y-107270924D01*
X13314076Y-107791164D01*
X13925814Y-108199914D01*
X14605541Y-108481466D01*
X15327135Y-108625000D01*
X16062865Y-108625000D01*
X16784459Y-108481466D01*
X17464186Y-108199914D01*
X18075924Y-107791164D01*
X18596164Y-107270924D01*
X19004914Y-106659186D01*
X19286466Y-105979459D01*
X19430000Y-105257865D01*
X19430000Y-104522135D01*
X41170000Y-104522135D01*
X41170000Y-105257865D01*
X41313534Y-105979459D01*
X41595086Y-106659186D01*
X42003836Y-107270924D01*
X42524076Y-107791164D01*
X43135814Y-108199914D01*
X43815541Y-108481466D01*
X44537135Y-108625000D01*
X45272865Y-108625000D01*
X45994459Y-108481466D01*
X46674186Y-108199914D01*
X47285924Y-107791164D01*
X47806164Y-107270924D01*
X48214914Y-106659186D01*
X48496466Y-105979459D01*
X48640000Y-105257865D01*
X48640000Y-104522135D01*
X48496466Y-103800541D01*
X48214914Y-103120814D01*
X47806164Y-102509076D01*
X47285924Y-101988836D01*
X46674186Y-101580086D01*
X45994459Y-101298534D01*
X45272865Y-101155000D01*
X44537135Y-101155000D01*
X43815541Y-101298534D01*
X43135814Y-101580086D01*
X42524076Y-101988836D01*
X42003836Y-102509076D01*
X41595086Y-103120814D01*
X41313534Y-103800541D01*
X41170000Y-104522135D01*
X19430000Y-104522135D01*
X19286466Y-103800541D01*
X19004914Y-103120814D01*
X18596164Y-102509076D01*
X18075924Y-101988836D01*
X17464186Y-101580086D01*
X16784459Y-101298534D01*
X16062865Y-101155000D01*
X15327135Y-101155000D01*
X14605541Y-101298534D01*
X13925814Y-101580086D01*
X13314076Y-101988836D01*
X12793836Y-102509076D01*
X12385086Y-103120814D01*
X12103534Y-103800541D01*
X11960000Y-104522135D01*
X660000Y-104522135D01*
X660000Y-84202135D01*
X11960000Y-84202135D01*
X11960000Y-84937865D01*
X12103534Y-85659459D01*
X12385086Y-86339186D01*
X12793836Y-86950924D01*
X13314076Y-87471164D01*
X13925814Y-87879914D01*
X14605541Y-88161466D01*
X15327135Y-88305000D01*
X16062865Y-88305000D01*
X16784459Y-88161466D01*
X17464186Y-87879914D01*
X18075924Y-87471164D01*
X18596164Y-86950924D01*
X19004914Y-86339186D01*
X19286466Y-85659459D01*
X19430000Y-84937865D01*
X19430000Y-84202135D01*
X41170000Y-84202135D01*
X41170000Y-84937865D01*
X41313534Y-85659459D01*
X41595086Y-86339186D01*
X42003836Y-86950924D01*
X42524076Y-87471164D01*
X43135814Y-87879914D01*
X43815541Y-88161466D01*
X44537135Y-88305000D01*
X45272865Y-88305000D01*
X45994459Y-88161466D01*
X46674186Y-87879914D01*
X47285924Y-87471164D01*
X47806164Y-86950924D01*
X48214914Y-86339186D01*
X48496466Y-85659459D01*
X48640000Y-84937865D01*
X48640000Y-84202135D01*
X48496466Y-83480541D01*
X48214914Y-82800814D01*
X47806164Y-82189076D01*
X47285924Y-81668836D01*
X46674186Y-81260086D01*
X45994459Y-80978534D01*
X45272865Y-80835000D01*
X44537135Y-80835000D01*
X43815541Y-80978534D01*
X43135814Y-81260086D01*
X42524076Y-81668836D01*
X42003836Y-82189076D01*
X41595086Y-82800814D01*
X41313534Y-83480541D01*
X41170000Y-84202135D01*
X19430000Y-84202135D01*
X19286466Y-83480541D01*
X19004914Y-82800814D01*
X18596164Y-82189076D01*
X18075924Y-81668836D01*
X17464186Y-81260086D01*
X16784459Y-80978534D01*
X16062865Y-80835000D01*
X15327135Y-80835000D01*
X14605541Y-80978534D01*
X13925814Y-81260086D01*
X13314076Y-81668836D01*
X12793836Y-82189076D01*
X12385086Y-82800814D01*
X12103534Y-83480541D01*
X11960000Y-84202135D01*
X660000Y-84202135D01*
X660000Y-63931380D01*
X12460000Y-63931380D01*
X12460000Y-64568620D01*
X12584319Y-65193615D01*
X12828180Y-65782347D01*
X13182211Y-66312192D01*
X13632808Y-66762789D01*
X14162653Y-67116820D01*
X14751385Y-67360681D01*
X15376380Y-67485000D01*
X16013620Y-67485000D01*
X16638615Y-67360681D01*
X17227347Y-67116820D01*
X17757192Y-66762789D01*
X18207789Y-66312192D01*
X18561820Y-65782347D01*
X18805681Y-65193615D01*
X18930000Y-64568620D01*
X18930000Y-63931380D01*
X41670000Y-63931380D01*
X41670000Y-64568620D01*
X41794319Y-65193615D01*
X42038180Y-65782347D01*
X42392211Y-66312192D01*
X42842808Y-66762789D01*
X43372653Y-67116820D01*
X43961385Y-67360681D01*
X44586380Y-67485000D01*
X45223620Y-67485000D01*
X45848615Y-67360681D01*
X46437347Y-67116820D01*
X46967192Y-66762789D01*
X47417789Y-66312192D01*
X47771820Y-65782347D01*
X48015681Y-65193615D01*
X48140000Y-64568620D01*
X48140000Y-63931380D01*
X48015681Y-63306385D01*
X47771820Y-62717653D01*
X47417789Y-62187808D01*
X46967192Y-61737211D01*
X46437347Y-61383180D01*
X45848615Y-61139319D01*
X45223620Y-61015000D01*
X44586380Y-61015000D01*
X43961385Y-61139319D01*
X43372653Y-61383180D01*
X42842808Y-61737211D01*
X42392211Y-62187808D01*
X42038180Y-62717653D01*
X41794319Y-63306385D01*
X41670000Y-63931380D01*
X18930000Y-63931380D01*
X18805681Y-63306385D01*
X18561820Y-62717653D01*
X18207789Y-62187808D01*
X17757192Y-61737211D01*
X17227347Y-61383180D01*
X16638615Y-61139319D01*
X16013620Y-61015000D01*
X15376380Y-61015000D01*
X14751385Y-61139319D01*
X14162653Y-61383180D01*
X13632808Y-61737211D01*
X13182211Y-62187808D01*
X12828180Y-62717653D01*
X12584319Y-63306385D01*
X12460000Y-63931380D01*
X660000Y-63931380D01*
X660000Y-43562135D01*
X11960000Y-43562135D01*
X11960000Y-44297865D01*
X12103534Y-45019459D01*
X12385086Y-45699186D01*
X12793836Y-46310924D01*
X13314076Y-46831164D01*
X13925814Y-47239914D01*
X14605541Y-47521466D01*
X15327135Y-47665000D01*
X16062865Y-47665000D01*
X16784459Y-47521466D01*
X17464186Y-47239914D01*
X18075924Y-46831164D01*
X18596164Y-46310924D01*
X19004914Y-45699186D01*
X19286466Y-45019459D01*
X19430000Y-44297865D01*
X19430000Y-43562135D01*
X41170000Y-43562135D01*
X41170000Y-44297865D01*
X41313534Y-45019459D01*
X41595086Y-45699186D01*
X42003836Y-46310924D01*
X42524076Y-46831164D01*
X43135814Y-47239914D01*
X43815541Y-47521466D01*
X44537135Y-47665000D01*
X45272865Y-47665000D01*
X45994459Y-47521466D01*
X46674186Y-47239914D01*
X47285924Y-46831164D01*
X47806164Y-46310924D01*
X48214914Y-45699186D01*
X48496466Y-45019459D01*
X48640000Y-44297865D01*
X48640000Y-43562135D01*
X48496466Y-42840541D01*
X48214914Y-42160814D01*
X47806164Y-41549076D01*
X47285924Y-41028836D01*
X46674186Y-40620086D01*
X45994459Y-40338534D01*
X45272865Y-40195000D01*
X44537135Y-40195000D01*
X43815541Y-40338534D01*
X43135814Y-40620086D01*
X42524076Y-41028836D01*
X42003836Y-41549076D01*
X41595086Y-42160814D01*
X41313534Y-42840541D01*
X41170000Y-43562135D01*
X19430000Y-43562135D01*
X19286466Y-42840541D01*
X19004914Y-42160814D01*
X18596164Y-41549076D01*
X18075924Y-41028836D01*
X17464186Y-40620086D01*
X16784459Y-40338534D01*
X16062865Y-40195000D01*
X15327135Y-40195000D01*
X14605541Y-40338534D01*
X13925814Y-40620086D01*
X13314076Y-41028836D01*
X12793836Y-41549076D01*
X12385086Y-42160814D01*
X12103534Y-42840541D01*
X11960000Y-43562135D01*
X660000Y-43562135D01*
X660000Y-23242135D01*
X11960000Y-23242135D01*
X11960000Y-23977865D01*
X12103534Y-24699459D01*
X12385086Y-25379186D01*
X12793836Y-25990924D01*
X13314076Y-26511164D01*
X13925814Y-26919914D01*
X14605541Y-27201466D01*
X15327135Y-27345000D01*
X16062865Y-27345000D01*
X16784459Y-27201466D01*
X17464186Y-26919914D01*
X18075924Y-26511164D01*
X18596164Y-25990924D01*
X19004914Y-25379186D01*
X19286466Y-24699459D01*
X19430000Y-23977865D01*
X19430000Y-23242135D01*
X41170000Y-23242135D01*
X41170000Y-23977865D01*
X41313534Y-24699459D01*
X41595086Y-25379186D01*
X42003836Y-25990924D01*
X42524076Y-26511164D01*
X43135814Y-26919914D01*
X43815541Y-27201466D01*
X44537135Y-27345000D01*
X45272865Y-27345000D01*
X45994459Y-27201466D01*
X46674186Y-26919914D01*
X47285924Y-26511164D01*
X47806164Y-25990924D01*
X48214914Y-25379186D01*
X48496466Y-24699459D01*
X48640000Y-23977865D01*
X48640000Y-23242135D01*
X48496466Y-22520541D01*
X48214914Y-21840814D01*
X47806164Y-21229076D01*
X47285924Y-20708836D01*
X46674186Y-20300086D01*
X45994459Y-20018534D01*
X45272865Y-19875000D01*
X44537135Y-19875000D01*
X43815541Y-20018534D01*
X43135814Y-20300086D01*
X42524076Y-20708836D01*
X42003836Y-21229076D01*
X41595086Y-21840814D01*
X41313534Y-22520541D01*
X41170000Y-23242135D01*
X19430000Y-23242135D01*
X19286466Y-22520541D01*
X19004914Y-21840814D01*
X18596164Y-21229076D01*
X18075924Y-20708836D01*
X17464186Y-20300086D01*
X16784459Y-20018534D01*
X16062865Y-19875000D01*
X15327135Y-19875000D01*
X14605541Y-20018534D01*
X13925814Y-20300086D01*
X13314076Y-20708836D01*
X12793836Y-21229076D01*
X12385086Y-21840814D01*
X12103534Y-22520541D01*
X11960000Y-23242135D01*
X660000Y-23242135D01*
X660000Y-2779872D01*
X5265000Y-2779872D01*
X5265000Y-3220128D01*
X5350890Y-3651925D01*
X5519369Y-4058669D01*
X5763962Y-4424729D01*
X6075271Y-4736038D01*
X6441331Y-4980631D01*
X6848075Y-5149110D01*
X7279872Y-5235000D01*
X7720128Y-5235000D01*
X8151925Y-5149110D01*
X8558669Y-4980631D01*
X8924729Y-4736038D01*
X9236038Y-4424729D01*
X9480631Y-4058669D01*
X9649110Y-3651925D01*
X9735000Y-3220128D01*
X9735000Y-2779872D01*
X50985000Y-2779872D01*
X50985000Y-3220128D01*
X51070890Y-3651925D01*
X51239369Y-4058669D01*
X51483962Y-4424729D01*
X51795271Y-4736038D01*
X52161331Y-4980631D01*
X52568075Y-5149110D01*
X52999872Y-5235000D01*
X53440128Y-5235000D01*
X53871925Y-5149110D01*
X54278669Y-4980631D01*
X54644729Y-4736038D01*
X54956038Y-4424729D01*
X55200631Y-4058669D01*
X55369110Y-3651925D01*
X55455000Y-3220128D01*
X55455000Y-2779872D01*
X55369110Y-2348075D01*
X55200631Y-1941331D01*
X54956038Y-1575271D01*
X54644729Y-1263962D01*
X54278669Y-1019369D01*
X53871925Y-850890D01*
X53440128Y-765000D01*
X52999872Y-765000D01*
X52568075Y-850890D01*
X52161331Y-1019369D01*
X51795271Y-1263962D01*
X51483962Y-1575271D01*
X51239369Y-1941331D01*
X51070890Y-2348075D01*
X50985000Y-2779872D01*
X9735000Y-2779872D01*
X9649110Y-2348075D01*
X9480631Y-1941331D01*
X9236038Y-1575271D01*
X8924729Y-1263962D01*
X8558669Y-1019369D01*
X8151925Y-850890D01*
X7720128Y-765000D01*
X7279872Y-765000D01*
X6848075Y-850890D01*
X6441331Y-1019369D01*
X6075271Y-1263962D01*
X5763962Y-1575271D01*
X5519369Y-1941331D01*
X5350890Y-2348075D01*
X5265000Y-2779872D01*
X660000Y-2779872D01*
X660000Y-660000D01*
X59940000Y-660000D01*
X59940001Y-127840000D01*
G37*
G04 #@! TD.AperFunction*
M02*
