G04 #@! TF.GenerationSoftware,KiCad,Pcbnew,(5.1.9)-1*
G04 #@! TF.CreationDate,2021-02-26T13:35:40+01:00*
G04 #@! TF.ProjectId,Dual VCA #2 Front,4475616c-2056-4434-9120-23322046726f,rev?*
G04 #@! TF.SameCoordinates,Original*
G04 #@! TF.FileFunction,Legend,Bot*
G04 #@! TF.FilePolarity,Positive*
%FSLAX46Y46*%
G04 Gerber Fmt 4.6, Leading zero omitted, Abs format (unit mm)*
G04 Created by KiCad (PCBNEW (5.1.9)-1) date 2021-02-26 13:35:40*
%MOMM*%
%LPD*%
G01*
G04 APERTURE LIST*
%ADD10C,0.150000*%
G04 APERTURE END LIST*
D10*
X34919047Y-124952380D02*
X34919047Y-125666666D01*
X34966666Y-125809523D01*
X35061904Y-125904761D01*
X35204761Y-125952380D01*
X35300000Y-125952380D01*
X33966666Y-125952380D02*
X34442857Y-125952380D01*
X34442857Y-124952380D01*
X33061904Y-125857142D02*
X33109523Y-125904761D01*
X33252380Y-125952380D01*
X33347619Y-125952380D01*
X33490476Y-125904761D01*
X33585714Y-125809523D01*
X33633333Y-125714285D01*
X33680952Y-125523809D01*
X33680952Y-125380952D01*
X33633333Y-125190476D01*
X33585714Y-125095238D01*
X33490476Y-125000000D01*
X33347619Y-124952380D01*
X33252380Y-124952380D01*
X33109523Y-125000000D01*
X33061904Y-125047619D01*
X32347619Y-124952380D02*
X32347619Y-125666666D01*
X32395238Y-125809523D01*
X32490476Y-125904761D01*
X32633333Y-125952380D01*
X32728571Y-125952380D01*
X31395238Y-125952380D02*
X31871428Y-125952380D01*
X31871428Y-124952380D01*
X30490476Y-125857142D02*
X30538095Y-125904761D01*
X30680952Y-125952380D01*
X30776190Y-125952380D01*
X30919047Y-125904761D01*
X31014285Y-125809523D01*
X31061904Y-125714285D01*
X31109523Y-125523809D01*
X31109523Y-125380952D01*
X31061904Y-125190476D01*
X31014285Y-125095238D01*
X30919047Y-125000000D01*
X30776190Y-124952380D01*
X30680952Y-124952380D01*
X30538095Y-125000000D01*
X30490476Y-125047619D01*
X29776190Y-124952380D02*
X29776190Y-125666666D01*
X29823809Y-125809523D01*
X29919047Y-125904761D01*
X30061904Y-125952380D01*
X30157142Y-125952380D01*
X28823809Y-125952380D02*
X29300000Y-125952380D01*
X29300000Y-124952380D01*
X27919047Y-125857142D02*
X27966666Y-125904761D01*
X28109523Y-125952380D01*
X28204761Y-125952380D01*
X28347619Y-125904761D01*
X28442857Y-125809523D01*
X28490476Y-125714285D01*
X28538095Y-125523809D01*
X28538095Y-125380952D01*
X28490476Y-125190476D01*
X28442857Y-125095238D01*
X28347619Y-125000000D01*
X28204761Y-124952380D01*
X28109523Y-124952380D01*
X27966666Y-125000000D01*
X27919047Y-125047619D01*
X27204761Y-124952380D02*
X27204761Y-125666666D01*
X27252380Y-125809523D01*
X27347619Y-125904761D01*
X27490476Y-125952380D01*
X27585714Y-125952380D01*
X26252380Y-125952380D02*
X26728571Y-125952380D01*
X26728571Y-124952380D01*
X25347619Y-125857142D02*
X25395238Y-125904761D01*
X25538095Y-125952380D01*
X25633333Y-125952380D01*
X25776190Y-125904761D01*
X25871428Y-125809523D01*
X25919047Y-125714285D01*
X25966666Y-125523809D01*
X25966666Y-125380952D01*
X25919047Y-125190476D01*
X25871428Y-125095238D01*
X25776190Y-125000000D01*
X25633333Y-124952380D01*
X25538095Y-124952380D01*
X25395238Y-125000000D01*
X25347619Y-125047619D01*
M02*
