G04 #@! TF.GenerationSoftware,KiCad,Pcbnew,(5.1.10)-1*
G04 #@! TF.CreationDate,2021-08-28T07:34:49+02:00*
G04 #@! TF.ProjectId,Haraldswerk NGF-E LFO Front,48617261-6c64-4737-9765-726b204e4746,rev?*
G04 #@! TF.SameCoordinates,Original*
G04 #@! TF.FileFunction,Legend,Bot*
G04 #@! TF.FilePolarity,Positive*
%FSLAX46Y46*%
G04 Gerber Fmt 4.6, Leading zero omitted, Abs format (unit mm)*
G04 Created by KiCad (PCBNEW (5.1.10)-1) date 2021-08-28 07:34:49*
%MOMM*%
%LPD*%
G01*
G04 APERTURE LIST*
%ADD10C,0.100000*%
G04 APERTURE END LIST*
D10*
X17491904Y-1525476D02*
X16691904Y-1525476D01*
X17072857Y-1525476D02*
X17072857Y-1982619D01*
X17491904Y-1982619D02*
X16691904Y-1982619D01*
X17491904Y-2706428D02*
X17072857Y-2706428D01*
X16996666Y-2668333D01*
X16958571Y-2592142D01*
X16958571Y-2439761D01*
X16996666Y-2363571D01*
X17453809Y-2706428D02*
X17491904Y-2630238D01*
X17491904Y-2439761D01*
X17453809Y-2363571D01*
X17377619Y-2325476D01*
X17301428Y-2325476D01*
X17225238Y-2363571D01*
X17187142Y-2439761D01*
X17187142Y-2630238D01*
X17149047Y-2706428D01*
X17491904Y-3087380D02*
X16958571Y-3087380D01*
X17110952Y-3087380D02*
X17034761Y-3125476D01*
X16996666Y-3163571D01*
X16958571Y-3239761D01*
X16958571Y-3315952D01*
X17491904Y-3925476D02*
X17072857Y-3925476D01*
X16996666Y-3887380D01*
X16958571Y-3811190D01*
X16958571Y-3658809D01*
X16996666Y-3582619D01*
X17453809Y-3925476D02*
X17491904Y-3849285D01*
X17491904Y-3658809D01*
X17453809Y-3582619D01*
X17377619Y-3544523D01*
X17301428Y-3544523D01*
X17225238Y-3582619D01*
X17187142Y-3658809D01*
X17187142Y-3849285D01*
X17149047Y-3925476D01*
X17491904Y-4420714D02*
X17453809Y-4344523D01*
X17377619Y-4306428D01*
X16691904Y-4306428D01*
X17491904Y-5068333D02*
X16691904Y-5068333D01*
X17453809Y-5068333D02*
X17491904Y-4992142D01*
X17491904Y-4839761D01*
X17453809Y-4763571D01*
X17415714Y-4725476D01*
X17339523Y-4687380D01*
X17110952Y-4687380D01*
X17034761Y-4725476D01*
X16996666Y-4763571D01*
X16958571Y-4839761D01*
X16958571Y-4992142D01*
X16996666Y-5068333D01*
X17453809Y-5411190D02*
X17491904Y-5487380D01*
X17491904Y-5639761D01*
X17453809Y-5715952D01*
X17377619Y-5754047D01*
X17339523Y-5754047D01*
X17263333Y-5715952D01*
X17225238Y-5639761D01*
X17225238Y-5525476D01*
X17187142Y-5449285D01*
X17110952Y-5411190D01*
X17072857Y-5411190D01*
X16996666Y-5449285D01*
X16958571Y-5525476D01*
X16958571Y-5639761D01*
X16996666Y-5715952D01*
X16958571Y-6020714D02*
X17491904Y-6173095D01*
X17110952Y-6325476D01*
X17491904Y-6477857D01*
X16958571Y-6630238D01*
X17453809Y-7239761D02*
X17491904Y-7163571D01*
X17491904Y-7011190D01*
X17453809Y-6935000D01*
X17377619Y-6896904D01*
X17072857Y-6896904D01*
X16996666Y-6935000D01*
X16958571Y-7011190D01*
X16958571Y-7163571D01*
X16996666Y-7239761D01*
X17072857Y-7277857D01*
X17149047Y-7277857D01*
X17225238Y-6896904D01*
X17491904Y-7620714D02*
X16958571Y-7620714D01*
X17110952Y-7620714D02*
X17034761Y-7658809D01*
X16996666Y-7696904D01*
X16958571Y-7773095D01*
X16958571Y-7849285D01*
X17491904Y-8115952D02*
X16691904Y-8115952D01*
X17187142Y-8192142D02*
X17491904Y-8420714D01*
X16958571Y-8420714D02*
X17263333Y-8115952D01*
X17491904Y-9373095D02*
X16691904Y-9373095D01*
X17491904Y-9830238D01*
X16691904Y-9830238D01*
X16730000Y-10630238D02*
X16691904Y-10554047D01*
X16691904Y-10439761D01*
X16730000Y-10325476D01*
X16806190Y-10249285D01*
X16882380Y-10211190D01*
X17034761Y-10173095D01*
X17149047Y-10173095D01*
X17301428Y-10211190D01*
X17377619Y-10249285D01*
X17453809Y-10325476D01*
X17491904Y-10439761D01*
X17491904Y-10515952D01*
X17453809Y-10630238D01*
X17415714Y-10668333D01*
X17149047Y-10668333D01*
X17149047Y-10515952D01*
X17072857Y-11277857D02*
X17072857Y-11011190D01*
X17491904Y-11011190D02*
X16691904Y-11011190D01*
X16691904Y-11392142D01*
X17187142Y-11696904D02*
X17187142Y-12306428D01*
X17491904Y-13068333D02*
X17491904Y-12687380D01*
X16691904Y-12687380D01*
X17072857Y-13601666D02*
X17072857Y-13335000D01*
X17491904Y-13335000D02*
X16691904Y-13335000D01*
X16691904Y-13715952D01*
X16691904Y-14173095D02*
X16691904Y-14325476D01*
X16730000Y-14401666D01*
X16806190Y-14477857D01*
X16958571Y-14515952D01*
X17225238Y-14515952D01*
X17377619Y-14477857D01*
X17453809Y-14401666D01*
X17491904Y-14325476D01*
X17491904Y-14173095D01*
X17453809Y-14096904D01*
X17377619Y-14020714D01*
X17225238Y-13982619D01*
X16958571Y-13982619D01*
X16806190Y-14020714D01*
X16730000Y-14096904D01*
X16691904Y-14173095D01*
X18372857Y-1792142D02*
X18372857Y-1525476D01*
X18791904Y-1525476D02*
X17991904Y-1525476D01*
X17991904Y-1906428D01*
X18791904Y-2211190D02*
X18258571Y-2211190D01*
X18410952Y-2211190D02*
X18334761Y-2249285D01*
X18296666Y-2287380D01*
X18258571Y-2363571D01*
X18258571Y-2439761D01*
X18791904Y-2820714D02*
X18753809Y-2744523D01*
X18715714Y-2706428D01*
X18639523Y-2668333D01*
X18410952Y-2668333D01*
X18334761Y-2706428D01*
X18296666Y-2744523D01*
X18258571Y-2820714D01*
X18258571Y-2935000D01*
X18296666Y-3011190D01*
X18334761Y-3049285D01*
X18410952Y-3087380D01*
X18639523Y-3087380D01*
X18715714Y-3049285D01*
X18753809Y-3011190D01*
X18791904Y-2935000D01*
X18791904Y-2820714D01*
X18258571Y-3430238D02*
X18791904Y-3430238D01*
X18334761Y-3430238D02*
X18296666Y-3468333D01*
X18258571Y-3544523D01*
X18258571Y-3658809D01*
X18296666Y-3735000D01*
X18372857Y-3773095D01*
X18791904Y-3773095D01*
X18258571Y-4039761D02*
X18258571Y-4344523D01*
X17991904Y-4154047D02*
X18677619Y-4154047D01*
X18753809Y-4192142D01*
X18791904Y-4268333D01*
X18791904Y-4344523D01*
X18791904Y-5677857D02*
X18410952Y-5411190D01*
X18791904Y-5220714D02*
X17991904Y-5220714D01*
X17991904Y-5525476D01*
X18030000Y-5601666D01*
X18068095Y-5639761D01*
X18144285Y-5677857D01*
X18258571Y-5677857D01*
X18334761Y-5639761D01*
X18372857Y-5601666D01*
X18410952Y-5525476D01*
X18410952Y-5220714D01*
X18753809Y-6325476D02*
X18791904Y-6249285D01*
X18791904Y-6096904D01*
X18753809Y-6020714D01*
X18677619Y-5982619D01*
X18372857Y-5982619D01*
X18296666Y-6020714D01*
X18258571Y-6096904D01*
X18258571Y-6249285D01*
X18296666Y-6325476D01*
X18372857Y-6363571D01*
X18449047Y-6363571D01*
X18525238Y-5982619D01*
X18258571Y-6630238D02*
X18791904Y-6820714D01*
X18258571Y-7011190D01*
X17991904Y-8077857D02*
X17991904Y-8154047D01*
X18030000Y-8230238D01*
X18068095Y-8268333D01*
X18144285Y-8306428D01*
X18296666Y-8344523D01*
X18487142Y-8344523D01*
X18639523Y-8306428D01*
X18715714Y-8268333D01*
X18753809Y-8230238D01*
X18791904Y-8154047D01*
X18791904Y-8077857D01*
X18753809Y-8001666D01*
X18715714Y-7963571D01*
X18639523Y-7925476D01*
X18487142Y-7887380D01*
X18296666Y-7887380D01*
X18144285Y-7925476D01*
X18068095Y-7963571D01*
X18030000Y-8001666D01*
X17991904Y-8077857D01*
X18791904Y-9106428D02*
X18791904Y-8649285D01*
X18791904Y-8877857D02*
X17991904Y-8877857D01*
X18106190Y-8801666D01*
X18182380Y-8725476D01*
X18220476Y-8649285D01*
X18068095Y-9411190D02*
X18030000Y-9449285D01*
X17991904Y-9525476D01*
X17991904Y-9715952D01*
X18030000Y-9792142D01*
X18068095Y-9830238D01*
X18144285Y-9868333D01*
X18220476Y-9868333D01*
X18334761Y-9830238D01*
X18791904Y-9373095D01*
X18791904Y-9868333D01*
X18791904Y-10630238D02*
X18791904Y-10173095D01*
X18791904Y-10401666D02*
X17991904Y-10401666D01*
X18106190Y-10325476D01*
X18182380Y-10249285D01*
X18220476Y-10173095D01*
X17991904Y-11125476D02*
X17991904Y-11201666D01*
X18030000Y-11277857D01*
X18068095Y-11315952D01*
X18144285Y-11354047D01*
X18296666Y-11392142D01*
X18487142Y-11392142D01*
X18639523Y-11354047D01*
X18715714Y-11315952D01*
X18753809Y-11277857D01*
X18791904Y-11201666D01*
X18791904Y-11125476D01*
X18753809Y-11049285D01*
X18715714Y-11011190D01*
X18639523Y-10973095D01*
X18487142Y-10935000D01*
X18296666Y-10935000D01*
X18144285Y-10973095D01*
X18068095Y-11011190D01*
X18030000Y-11049285D01*
X17991904Y-11125476D01*
X17991904Y-11658809D02*
X17991904Y-12192142D01*
X18791904Y-11849285D01*
X561904Y-1484047D02*
X1133333Y-1484047D01*
X1247619Y-1445952D01*
X1323809Y-1369761D01*
X1361904Y-1255476D01*
X1361904Y-1179285D01*
X1361904Y-2245952D02*
X1361904Y-1865000D01*
X561904Y-1865000D01*
X1285714Y-2969761D02*
X1323809Y-2931666D01*
X1361904Y-2817380D01*
X1361904Y-2741190D01*
X1323809Y-2626904D01*
X1247619Y-2550714D01*
X1171428Y-2512619D01*
X1019047Y-2474523D01*
X904761Y-2474523D01*
X752380Y-2512619D01*
X676190Y-2550714D01*
X599999Y-2626904D01*
X561904Y-2741190D01*
X561904Y-2817380D01*
X599999Y-2931666D01*
X638095Y-2969761D01*
X561904Y-3541190D02*
X1133333Y-3541190D01*
X1247619Y-3503095D01*
X1323809Y-3426904D01*
X1361904Y-3312619D01*
X1361904Y-3236428D01*
X1361904Y-4303095D02*
X1361904Y-3922142D01*
X561904Y-3922142D01*
X1285714Y-5026904D02*
X1323809Y-4988809D01*
X1361904Y-4874523D01*
X1361904Y-4798333D01*
X1323809Y-4684047D01*
X1247619Y-4607857D01*
X1171428Y-4569761D01*
X1019047Y-4531666D01*
X904761Y-4531666D01*
X752380Y-4569761D01*
X676190Y-4607857D01*
X599999Y-4684047D01*
X561904Y-4798333D01*
X561904Y-4874523D01*
X599999Y-4988809D01*
X638095Y-5026904D01*
X561904Y-5598333D02*
X1133333Y-5598333D01*
X1247619Y-5560238D01*
X1323809Y-5484047D01*
X1361904Y-5369761D01*
X1361904Y-5293571D01*
X1361904Y-6360238D02*
X1361904Y-5979285D01*
X561904Y-5979285D01*
X1285714Y-7084047D02*
X1323809Y-7045952D01*
X1361904Y-6931666D01*
X1361904Y-6855476D01*
X1323809Y-6741190D01*
X1247619Y-6665000D01*
X1171428Y-6626904D01*
X1019047Y-6588809D01*
X904761Y-6588809D01*
X752380Y-6626904D01*
X676190Y-6665000D01*
X599999Y-6741190D01*
X561904Y-6855476D01*
X561904Y-6931666D01*
X599999Y-7045952D01*
X638095Y-7084047D01*
X561904Y-7655476D02*
X1133333Y-7655476D01*
X1247619Y-7617380D01*
X1323809Y-7541190D01*
X1361904Y-7426904D01*
X1361904Y-7350714D01*
X1361904Y-8417380D02*
X1361904Y-8036428D01*
X561904Y-8036428D01*
X1285714Y-9141190D02*
X1323809Y-9103095D01*
X1361904Y-8988809D01*
X1361904Y-8912619D01*
X1323809Y-8798333D01*
X1247619Y-8722142D01*
X1171428Y-8684047D01*
X1019047Y-8645952D01*
X904761Y-8645952D01*
X752380Y-8684047D01*
X676190Y-8722142D01*
X599999Y-8798333D01*
X561904Y-8912619D01*
X561904Y-8988809D01*
X599999Y-9103095D01*
X638095Y-9141190D01*
M02*
