G04 #@! TF.GenerationSoftware,KiCad,Pcbnew,(5.1.10)-1*
G04 #@! TF.CreationDate,2021-08-28T07:34:49+02:00*
G04 #@! TF.ProjectId,Haraldswerk NGF-E LFO Front,48617261-6c64-4737-9765-726b204e4746,rev?*
G04 #@! TF.SameCoordinates,Original*
G04 #@! TF.FileFunction,Copper,L1,Top*
G04 #@! TF.FilePolarity,Positive*
%FSLAX46Y46*%
G04 Gerber Fmt 4.6, Leading zero omitted, Abs format (unit mm)*
G04 Created by KiCad (PCBNEW (5.1.10)-1) date 2021-08-28 07:34:49*
%MOMM*%
%LPD*%
G01*
G04 APERTURE LIST*
G04 #@! TA.AperFunction,NonConductor*
%ADD10C,0.254000*%
G04 #@! TD*
G04 #@! TA.AperFunction,NonConductor*
%ADD11C,0.100000*%
G04 #@! TD*
G04 APERTURE END LIST*
D10*
X19340001Y-127840000D02*
X660000Y-127840000D01*
X660000Y-125279872D01*
X5265000Y-125279872D01*
X5265000Y-125720128D01*
X5350890Y-126151925D01*
X5519369Y-126558669D01*
X5763962Y-126924729D01*
X6075271Y-127236038D01*
X6441331Y-127480631D01*
X6848075Y-127649110D01*
X7279872Y-127735000D01*
X7720128Y-127735000D01*
X8151925Y-127649110D01*
X8558669Y-127480631D01*
X8924729Y-127236038D01*
X9236038Y-126924729D01*
X9480631Y-126558669D01*
X9649110Y-126151925D01*
X9735000Y-125720128D01*
X9735000Y-125279872D01*
X9649110Y-124848075D01*
X9480631Y-124441331D01*
X9236038Y-124075271D01*
X8924729Y-123763962D01*
X8558669Y-123519369D01*
X8151925Y-123350890D01*
X7720128Y-123265000D01*
X7279872Y-123265000D01*
X6848075Y-123350890D01*
X6441331Y-123519369D01*
X6075271Y-123763962D01*
X5763962Y-124075271D01*
X5519369Y-124441331D01*
X5350890Y-124848075D01*
X5265000Y-125279872D01*
X660000Y-125279872D01*
X660000Y-109607059D01*
X6815000Y-109607059D01*
X6815000Y-110332941D01*
X6956613Y-111044875D01*
X7234395Y-111715502D01*
X7637674Y-112319050D01*
X8150950Y-112832326D01*
X8754498Y-113235605D01*
X9425125Y-113513387D01*
X10137059Y-113655000D01*
X10862941Y-113655000D01*
X11574875Y-113513387D01*
X12245502Y-113235605D01*
X12849050Y-112832326D01*
X13362326Y-112319050D01*
X13765605Y-111715502D01*
X14043387Y-111044875D01*
X14185000Y-110332941D01*
X14185000Y-109607059D01*
X14043387Y-108895125D01*
X13765605Y-108224498D01*
X13362326Y-107620950D01*
X12849050Y-107107674D01*
X12245502Y-106704395D01*
X11574875Y-106426613D01*
X10862941Y-106285000D01*
X10137059Y-106285000D01*
X9425125Y-106426613D01*
X8754498Y-106704395D01*
X8150950Y-107107674D01*
X7637674Y-107620950D01*
X7234395Y-108224498D01*
X6956613Y-108895125D01*
X6815000Y-109607059D01*
X660000Y-109607059D01*
X660000Y-98177059D01*
X6815000Y-98177059D01*
X6815000Y-98902941D01*
X6956613Y-99614875D01*
X7234395Y-100285502D01*
X7637674Y-100889050D01*
X8150950Y-101402326D01*
X8754498Y-101805605D01*
X9425125Y-102083387D01*
X10137059Y-102225000D01*
X10862941Y-102225000D01*
X11574875Y-102083387D01*
X12245502Y-101805605D01*
X12849050Y-101402326D01*
X13362326Y-100889050D01*
X13765605Y-100285502D01*
X14043387Y-99614875D01*
X14185000Y-98902941D01*
X14185000Y-98177059D01*
X14043387Y-97465125D01*
X13765605Y-96794498D01*
X13362326Y-96190950D01*
X12849050Y-95677674D01*
X12245502Y-95274395D01*
X11574875Y-94996613D01*
X10862941Y-94855000D01*
X10137059Y-94855000D01*
X9425125Y-94996613D01*
X8754498Y-95274395D01*
X8150950Y-95677674D01*
X7637674Y-96190950D01*
X7234395Y-96794498D01*
X6956613Y-97465125D01*
X6815000Y-98177059D01*
X660000Y-98177059D01*
X660000Y-86747059D01*
X6815000Y-86747059D01*
X6815000Y-87472941D01*
X6956613Y-88184875D01*
X7234395Y-88855502D01*
X7637674Y-89459050D01*
X8150950Y-89972326D01*
X8754498Y-90375605D01*
X9425125Y-90653387D01*
X10137059Y-90795000D01*
X10862941Y-90795000D01*
X11574875Y-90653387D01*
X12245502Y-90375605D01*
X12849050Y-89972326D01*
X13362326Y-89459050D01*
X13765605Y-88855502D01*
X14043387Y-88184875D01*
X14185000Y-87472941D01*
X14185000Y-86747059D01*
X14043387Y-86035125D01*
X13765605Y-85364498D01*
X13362326Y-84760950D01*
X12849050Y-84247674D01*
X12245502Y-83844395D01*
X11574875Y-83566613D01*
X10862941Y-83425000D01*
X10137059Y-83425000D01*
X9425125Y-83566613D01*
X8754498Y-83844395D01*
X8150950Y-84247674D01*
X7637674Y-84760950D01*
X7234395Y-85364498D01*
X6956613Y-86035125D01*
X6815000Y-86747059D01*
X660000Y-86747059D01*
X660000Y-75317059D01*
X6815000Y-75317059D01*
X6815000Y-76042941D01*
X6956613Y-76754875D01*
X7234395Y-77425502D01*
X7637674Y-78029050D01*
X8150950Y-78542326D01*
X8754498Y-78945605D01*
X9425125Y-79223387D01*
X10137059Y-79365000D01*
X10862941Y-79365000D01*
X11574875Y-79223387D01*
X12245502Y-78945605D01*
X12849050Y-78542326D01*
X13362326Y-78029050D01*
X13765605Y-77425502D01*
X14043387Y-76754875D01*
X14185000Y-76042941D01*
X14185000Y-75317059D01*
X14043387Y-74605125D01*
X13765605Y-73934498D01*
X13362326Y-73330950D01*
X12849050Y-72817674D01*
X12245502Y-72414395D01*
X11574875Y-72136613D01*
X10862941Y-71995000D01*
X10137059Y-71995000D01*
X9425125Y-72136613D01*
X8754498Y-72414395D01*
X8150950Y-72817674D01*
X7637674Y-73330950D01*
X7234395Y-73934498D01*
X6956613Y-74605125D01*
X6815000Y-75317059D01*
X660000Y-75317059D01*
X660000Y-67214721D01*
X4365000Y-67214721D01*
X4365000Y-67635279D01*
X4447047Y-68047756D01*
X4607988Y-68436302D01*
X4841637Y-68785983D01*
X5139017Y-69083363D01*
X5488698Y-69317012D01*
X5877244Y-69477953D01*
X6289721Y-69560000D01*
X6710279Y-69560000D01*
X7122756Y-69477953D01*
X7511302Y-69317012D01*
X7860983Y-69083363D01*
X8158363Y-68785983D01*
X8392012Y-68436302D01*
X8552953Y-68047756D01*
X8635000Y-67635279D01*
X8635000Y-67214721D01*
X12365000Y-67214721D01*
X12365000Y-67635279D01*
X12447047Y-68047756D01*
X12607988Y-68436302D01*
X12841637Y-68785983D01*
X13139017Y-69083363D01*
X13488698Y-69317012D01*
X13877244Y-69477953D01*
X14289721Y-69560000D01*
X14710279Y-69560000D01*
X15122756Y-69477953D01*
X15511302Y-69317012D01*
X15860983Y-69083363D01*
X16158363Y-68785983D01*
X16392012Y-68436302D01*
X16552953Y-68047756D01*
X16635000Y-67635279D01*
X16635000Y-67214721D01*
X16552953Y-66802244D01*
X16392012Y-66413698D01*
X16158363Y-66064017D01*
X15860983Y-65766637D01*
X15511302Y-65532988D01*
X15122756Y-65372047D01*
X14710279Y-65290000D01*
X14289721Y-65290000D01*
X13877244Y-65372047D01*
X13488698Y-65532988D01*
X13139017Y-65766637D01*
X12841637Y-66064017D01*
X12607988Y-66413698D01*
X12447047Y-66802244D01*
X12365000Y-67214721D01*
X8635000Y-67214721D01*
X8552953Y-66802244D01*
X8392012Y-66413698D01*
X8158363Y-66064017D01*
X7860983Y-65766637D01*
X7511302Y-65532988D01*
X7122756Y-65372047D01*
X6710279Y-65290000D01*
X6289721Y-65290000D01*
X5877244Y-65372047D01*
X5488698Y-65532988D01*
X5139017Y-65766637D01*
X4841637Y-66064017D01*
X4607988Y-66413698D01*
X4447047Y-66802244D01*
X4365000Y-67214721D01*
X660000Y-67214721D01*
X660000Y-25057889D01*
X5765000Y-25057889D01*
X5765000Y-25892111D01*
X5927749Y-26710304D01*
X6246992Y-27481025D01*
X6710461Y-28174655D01*
X7300345Y-28764539D01*
X7993975Y-29228008D01*
X8764696Y-29547251D01*
X9582889Y-29710000D01*
X10417111Y-29710000D01*
X11235304Y-29547251D01*
X12006025Y-29228008D01*
X12699655Y-28764539D01*
X13289539Y-28174655D01*
X13753008Y-27481025D01*
X14072251Y-26710304D01*
X14235000Y-25892111D01*
X14235000Y-25057889D01*
X14072251Y-24239696D01*
X13753008Y-23468975D01*
X13289539Y-22775345D01*
X12699655Y-22185461D01*
X12006025Y-21721992D01*
X11235304Y-21402749D01*
X10417111Y-21240000D01*
X9582889Y-21240000D01*
X8764696Y-21402749D01*
X7993975Y-21721992D01*
X7300345Y-22185461D01*
X6710461Y-22775345D01*
X6246992Y-23468975D01*
X5927749Y-24239696D01*
X5765000Y-25057889D01*
X660000Y-25057889D01*
X660000Y-2779872D01*
X5265000Y-2779872D01*
X5265000Y-3220128D01*
X5350890Y-3651925D01*
X5519369Y-4058669D01*
X5763962Y-4424729D01*
X6075271Y-4736038D01*
X6441331Y-4980631D01*
X6848075Y-5149110D01*
X7279872Y-5235000D01*
X7720128Y-5235000D01*
X8151925Y-5149110D01*
X8558669Y-4980631D01*
X8924729Y-4736038D01*
X9236038Y-4424729D01*
X9480631Y-4058669D01*
X9649110Y-3651925D01*
X9735000Y-3220128D01*
X9735000Y-2779872D01*
X9649110Y-2348075D01*
X9480631Y-1941331D01*
X9236038Y-1575271D01*
X8924729Y-1263962D01*
X8558669Y-1019369D01*
X8151925Y-850890D01*
X7720128Y-765000D01*
X7279872Y-765000D01*
X6848075Y-850890D01*
X6441331Y-1019369D01*
X6075271Y-1263962D01*
X5763962Y-1575271D01*
X5519369Y-1941331D01*
X5350890Y-2348075D01*
X5265000Y-2779872D01*
X660000Y-2779872D01*
X660000Y-660000D01*
X19340000Y-660000D01*
X19340001Y-127840000D01*
G04 #@! TA.AperFunction,NonConductor*
D11*
G36*
X19340001Y-127840000D02*
G01*
X660000Y-127840000D01*
X660000Y-125279872D01*
X5265000Y-125279872D01*
X5265000Y-125720128D01*
X5350890Y-126151925D01*
X5519369Y-126558669D01*
X5763962Y-126924729D01*
X6075271Y-127236038D01*
X6441331Y-127480631D01*
X6848075Y-127649110D01*
X7279872Y-127735000D01*
X7720128Y-127735000D01*
X8151925Y-127649110D01*
X8558669Y-127480631D01*
X8924729Y-127236038D01*
X9236038Y-126924729D01*
X9480631Y-126558669D01*
X9649110Y-126151925D01*
X9735000Y-125720128D01*
X9735000Y-125279872D01*
X9649110Y-124848075D01*
X9480631Y-124441331D01*
X9236038Y-124075271D01*
X8924729Y-123763962D01*
X8558669Y-123519369D01*
X8151925Y-123350890D01*
X7720128Y-123265000D01*
X7279872Y-123265000D01*
X6848075Y-123350890D01*
X6441331Y-123519369D01*
X6075271Y-123763962D01*
X5763962Y-124075271D01*
X5519369Y-124441331D01*
X5350890Y-124848075D01*
X5265000Y-125279872D01*
X660000Y-125279872D01*
X660000Y-109607059D01*
X6815000Y-109607059D01*
X6815000Y-110332941D01*
X6956613Y-111044875D01*
X7234395Y-111715502D01*
X7637674Y-112319050D01*
X8150950Y-112832326D01*
X8754498Y-113235605D01*
X9425125Y-113513387D01*
X10137059Y-113655000D01*
X10862941Y-113655000D01*
X11574875Y-113513387D01*
X12245502Y-113235605D01*
X12849050Y-112832326D01*
X13362326Y-112319050D01*
X13765605Y-111715502D01*
X14043387Y-111044875D01*
X14185000Y-110332941D01*
X14185000Y-109607059D01*
X14043387Y-108895125D01*
X13765605Y-108224498D01*
X13362326Y-107620950D01*
X12849050Y-107107674D01*
X12245502Y-106704395D01*
X11574875Y-106426613D01*
X10862941Y-106285000D01*
X10137059Y-106285000D01*
X9425125Y-106426613D01*
X8754498Y-106704395D01*
X8150950Y-107107674D01*
X7637674Y-107620950D01*
X7234395Y-108224498D01*
X6956613Y-108895125D01*
X6815000Y-109607059D01*
X660000Y-109607059D01*
X660000Y-98177059D01*
X6815000Y-98177059D01*
X6815000Y-98902941D01*
X6956613Y-99614875D01*
X7234395Y-100285502D01*
X7637674Y-100889050D01*
X8150950Y-101402326D01*
X8754498Y-101805605D01*
X9425125Y-102083387D01*
X10137059Y-102225000D01*
X10862941Y-102225000D01*
X11574875Y-102083387D01*
X12245502Y-101805605D01*
X12849050Y-101402326D01*
X13362326Y-100889050D01*
X13765605Y-100285502D01*
X14043387Y-99614875D01*
X14185000Y-98902941D01*
X14185000Y-98177059D01*
X14043387Y-97465125D01*
X13765605Y-96794498D01*
X13362326Y-96190950D01*
X12849050Y-95677674D01*
X12245502Y-95274395D01*
X11574875Y-94996613D01*
X10862941Y-94855000D01*
X10137059Y-94855000D01*
X9425125Y-94996613D01*
X8754498Y-95274395D01*
X8150950Y-95677674D01*
X7637674Y-96190950D01*
X7234395Y-96794498D01*
X6956613Y-97465125D01*
X6815000Y-98177059D01*
X660000Y-98177059D01*
X660000Y-86747059D01*
X6815000Y-86747059D01*
X6815000Y-87472941D01*
X6956613Y-88184875D01*
X7234395Y-88855502D01*
X7637674Y-89459050D01*
X8150950Y-89972326D01*
X8754498Y-90375605D01*
X9425125Y-90653387D01*
X10137059Y-90795000D01*
X10862941Y-90795000D01*
X11574875Y-90653387D01*
X12245502Y-90375605D01*
X12849050Y-89972326D01*
X13362326Y-89459050D01*
X13765605Y-88855502D01*
X14043387Y-88184875D01*
X14185000Y-87472941D01*
X14185000Y-86747059D01*
X14043387Y-86035125D01*
X13765605Y-85364498D01*
X13362326Y-84760950D01*
X12849050Y-84247674D01*
X12245502Y-83844395D01*
X11574875Y-83566613D01*
X10862941Y-83425000D01*
X10137059Y-83425000D01*
X9425125Y-83566613D01*
X8754498Y-83844395D01*
X8150950Y-84247674D01*
X7637674Y-84760950D01*
X7234395Y-85364498D01*
X6956613Y-86035125D01*
X6815000Y-86747059D01*
X660000Y-86747059D01*
X660000Y-75317059D01*
X6815000Y-75317059D01*
X6815000Y-76042941D01*
X6956613Y-76754875D01*
X7234395Y-77425502D01*
X7637674Y-78029050D01*
X8150950Y-78542326D01*
X8754498Y-78945605D01*
X9425125Y-79223387D01*
X10137059Y-79365000D01*
X10862941Y-79365000D01*
X11574875Y-79223387D01*
X12245502Y-78945605D01*
X12849050Y-78542326D01*
X13362326Y-78029050D01*
X13765605Y-77425502D01*
X14043387Y-76754875D01*
X14185000Y-76042941D01*
X14185000Y-75317059D01*
X14043387Y-74605125D01*
X13765605Y-73934498D01*
X13362326Y-73330950D01*
X12849050Y-72817674D01*
X12245502Y-72414395D01*
X11574875Y-72136613D01*
X10862941Y-71995000D01*
X10137059Y-71995000D01*
X9425125Y-72136613D01*
X8754498Y-72414395D01*
X8150950Y-72817674D01*
X7637674Y-73330950D01*
X7234395Y-73934498D01*
X6956613Y-74605125D01*
X6815000Y-75317059D01*
X660000Y-75317059D01*
X660000Y-67214721D01*
X4365000Y-67214721D01*
X4365000Y-67635279D01*
X4447047Y-68047756D01*
X4607988Y-68436302D01*
X4841637Y-68785983D01*
X5139017Y-69083363D01*
X5488698Y-69317012D01*
X5877244Y-69477953D01*
X6289721Y-69560000D01*
X6710279Y-69560000D01*
X7122756Y-69477953D01*
X7511302Y-69317012D01*
X7860983Y-69083363D01*
X8158363Y-68785983D01*
X8392012Y-68436302D01*
X8552953Y-68047756D01*
X8635000Y-67635279D01*
X8635000Y-67214721D01*
X12365000Y-67214721D01*
X12365000Y-67635279D01*
X12447047Y-68047756D01*
X12607988Y-68436302D01*
X12841637Y-68785983D01*
X13139017Y-69083363D01*
X13488698Y-69317012D01*
X13877244Y-69477953D01*
X14289721Y-69560000D01*
X14710279Y-69560000D01*
X15122756Y-69477953D01*
X15511302Y-69317012D01*
X15860983Y-69083363D01*
X16158363Y-68785983D01*
X16392012Y-68436302D01*
X16552953Y-68047756D01*
X16635000Y-67635279D01*
X16635000Y-67214721D01*
X16552953Y-66802244D01*
X16392012Y-66413698D01*
X16158363Y-66064017D01*
X15860983Y-65766637D01*
X15511302Y-65532988D01*
X15122756Y-65372047D01*
X14710279Y-65290000D01*
X14289721Y-65290000D01*
X13877244Y-65372047D01*
X13488698Y-65532988D01*
X13139017Y-65766637D01*
X12841637Y-66064017D01*
X12607988Y-66413698D01*
X12447047Y-66802244D01*
X12365000Y-67214721D01*
X8635000Y-67214721D01*
X8552953Y-66802244D01*
X8392012Y-66413698D01*
X8158363Y-66064017D01*
X7860983Y-65766637D01*
X7511302Y-65532988D01*
X7122756Y-65372047D01*
X6710279Y-65290000D01*
X6289721Y-65290000D01*
X5877244Y-65372047D01*
X5488698Y-65532988D01*
X5139017Y-65766637D01*
X4841637Y-66064017D01*
X4607988Y-66413698D01*
X4447047Y-66802244D01*
X4365000Y-67214721D01*
X660000Y-67214721D01*
X660000Y-25057889D01*
X5765000Y-25057889D01*
X5765000Y-25892111D01*
X5927749Y-26710304D01*
X6246992Y-27481025D01*
X6710461Y-28174655D01*
X7300345Y-28764539D01*
X7993975Y-29228008D01*
X8764696Y-29547251D01*
X9582889Y-29710000D01*
X10417111Y-29710000D01*
X11235304Y-29547251D01*
X12006025Y-29228008D01*
X12699655Y-28764539D01*
X13289539Y-28174655D01*
X13753008Y-27481025D01*
X14072251Y-26710304D01*
X14235000Y-25892111D01*
X14235000Y-25057889D01*
X14072251Y-24239696D01*
X13753008Y-23468975D01*
X13289539Y-22775345D01*
X12699655Y-22185461D01*
X12006025Y-21721992D01*
X11235304Y-21402749D01*
X10417111Y-21240000D01*
X9582889Y-21240000D01*
X8764696Y-21402749D01*
X7993975Y-21721992D01*
X7300345Y-22185461D01*
X6710461Y-22775345D01*
X6246992Y-23468975D01*
X5927749Y-24239696D01*
X5765000Y-25057889D01*
X660000Y-25057889D01*
X660000Y-2779872D01*
X5265000Y-2779872D01*
X5265000Y-3220128D01*
X5350890Y-3651925D01*
X5519369Y-4058669D01*
X5763962Y-4424729D01*
X6075271Y-4736038D01*
X6441331Y-4980631D01*
X6848075Y-5149110D01*
X7279872Y-5235000D01*
X7720128Y-5235000D01*
X8151925Y-5149110D01*
X8558669Y-4980631D01*
X8924729Y-4736038D01*
X9236038Y-4424729D01*
X9480631Y-4058669D01*
X9649110Y-3651925D01*
X9735000Y-3220128D01*
X9735000Y-2779872D01*
X9649110Y-2348075D01*
X9480631Y-1941331D01*
X9236038Y-1575271D01*
X8924729Y-1263962D01*
X8558669Y-1019369D01*
X8151925Y-850890D01*
X7720128Y-765000D01*
X7279872Y-765000D01*
X6848075Y-850890D01*
X6441331Y-1019369D01*
X6075271Y-1263962D01*
X5763962Y-1575271D01*
X5519369Y-1941331D01*
X5350890Y-2348075D01*
X5265000Y-2779872D01*
X660000Y-2779872D01*
X660000Y-660000D01*
X19340000Y-660000D01*
X19340001Y-127840000D01*
G37*
G04 #@! TD.AperFunction*
M02*
