M48
; DRILL file {KiCad (5.1.9)-1} date 04/04/21 18:01:11
; FORMAT={-:-/ absolute / metric / decimal}
; #@! TF.CreationDate,2021-04-04T18:01:11+02:00
; #@! TF.GenerationSoftware,Kicad,Pcbnew,(5.1.9)-1
; #@! TF.FileFunction,Plated,1,2,PTH
FMAT,2
METRIC
T1C0.800
T2C0.900
T3C1.400
%
G90
G05
T1
X2.921Y-39.116
X2.921Y-46.736
X9.017Y-39.116
X9.017Y-46.736
X14.859Y-39.116
X14.859Y-46.736
T2
X1.62Y-52.25
X4.16Y-52.25
X7.62Y-52.25
X10.16Y-52.25
X13.62Y-52.25
X16.16Y-52.25
T3
X1.5Y-8.04
X1.5Y-13.04
X1.5Y-18.04
X1.5Y-23.04
X1.5Y-28.04
X1.5Y-33.04
X6.3Y-8.04
X6.3Y-13.04
X6.3Y-18.04
X6.3Y-23.04
X6.3Y-28.04
X6.3Y-33.04
X11.1Y-8.04
X11.1Y-13.04
X11.1Y-18.04
X11.1Y-23.04
X11.1Y-28.04
X11.1Y-33.04
X15.9Y-8.04
X15.9Y-13.04
X15.9Y-18.04
X15.9Y-23.04
X15.9Y-28.04
X15.9Y-33.04
T0
M30
