G04 #@! TF.GenerationSoftware,KiCad,Pcbnew,(5.1.9)-1*
G04 #@! TF.CreationDate,2021-04-04T18:01:09+02:00*
G04 #@! TF.ProjectId,Power Modul Main,506f7765-7220-44d6-9f64-756c204d6169,rev?*
G04 #@! TF.SameCoordinates,Original*
G04 #@! TF.FileFunction,Legend,Bot*
G04 #@! TF.FilePolarity,Positive*
%FSLAX46Y46*%
G04 Gerber Fmt 4.6, Leading zero omitted, Abs format (unit mm)*
G04 Created by KiCad (PCBNEW (5.1.9)-1) date 2021-04-04 18:01:09*
%MOMM*%
%LPD*%
G01*
G04 APERTURE LIST*
%ADD10C,0.150000*%
G04 APERTURE END LIST*
G04 #@! TO.C,J12*
D10*
X17216428Y-28845095D02*
X17216428Y-29607000D01*
X17597380Y-30607000D02*
X17597380Y-30035571D01*
X17597380Y-30321285D02*
X16597380Y-30321285D01*
X16740238Y-30226047D01*
X16835476Y-30130809D01*
X16883095Y-30035571D01*
X16692619Y-30987952D02*
X16645000Y-31035571D01*
X16597380Y-31130809D01*
X16597380Y-31368904D01*
X16645000Y-31464142D01*
X16692619Y-31511761D01*
X16787857Y-31559380D01*
X16883095Y-31559380D01*
X17025952Y-31511761D01*
X17597380Y-30940333D01*
X17597380Y-31559380D01*
X16597380Y-31845095D02*
X17597380Y-32178428D01*
X16597380Y-32511761D01*
G04 #@! TO.C,J11*
X12327000Y-29778095D02*
X12279380Y-29682857D01*
X12279380Y-29540000D01*
X12327000Y-29397142D01*
X12422238Y-29301904D01*
X12517476Y-29254285D01*
X12707952Y-29206666D01*
X12850809Y-29206666D01*
X13041285Y-29254285D01*
X13136523Y-29301904D01*
X13231761Y-29397142D01*
X13279380Y-29540000D01*
X13279380Y-29635238D01*
X13231761Y-29778095D01*
X13184142Y-29825714D01*
X12850809Y-29825714D01*
X12850809Y-29635238D01*
X13279380Y-30254285D02*
X12279380Y-30254285D01*
X13279380Y-30825714D01*
X12279380Y-30825714D01*
X13279380Y-31301904D02*
X12279380Y-31301904D01*
X12279380Y-31540000D01*
X12327000Y-31682857D01*
X12422238Y-31778095D01*
X12517476Y-31825714D01*
X12707952Y-31873333D01*
X12850809Y-31873333D01*
X13041285Y-31825714D01*
X13136523Y-31778095D01*
X13231761Y-31682857D01*
X13279380Y-31540000D01*
X13279380Y-31301904D01*
G04 #@! TO.C,J10*
X8072428Y-29254285D02*
X8072428Y-30016190D01*
X8453380Y-29635238D02*
X7691476Y-29635238D01*
X7453380Y-30968571D02*
X7453380Y-30492380D01*
X7929571Y-30444761D01*
X7881952Y-30492380D01*
X7834333Y-30587619D01*
X7834333Y-30825714D01*
X7881952Y-30920952D01*
X7929571Y-30968571D01*
X8024809Y-31016190D01*
X8262904Y-31016190D01*
X8358142Y-30968571D01*
X8405761Y-30920952D01*
X8453380Y-30825714D01*
X8453380Y-30587619D01*
X8405761Y-30492380D01*
X8358142Y-30444761D01*
X7453380Y-31301904D02*
X8453380Y-31635238D01*
X7453380Y-31968571D01*
G04 #@! TO.C,J9*
X3627428Y-28778095D02*
X3627428Y-29540000D01*
X4008380Y-29159047D02*
X3246476Y-29159047D01*
X4008380Y-30540000D02*
X4008380Y-29968571D01*
X4008380Y-30254285D02*
X3008380Y-30254285D01*
X3151238Y-30159047D01*
X3246476Y-30063809D01*
X3294095Y-29968571D01*
X3103619Y-30920952D02*
X3056000Y-30968571D01*
X3008380Y-31063809D01*
X3008380Y-31301904D01*
X3056000Y-31397142D01*
X3103619Y-31444761D01*
X3198857Y-31492380D01*
X3294095Y-31492380D01*
X3436952Y-31444761D01*
X4008380Y-30873333D01*
X4008380Y-31492380D01*
X3008380Y-31778095D02*
X4008380Y-32111428D01*
X3008380Y-32444761D01*
G04 #@! TO.C,J8*
X17216428Y-18778095D02*
X17216428Y-19540000D01*
X17597380Y-20540000D02*
X17597380Y-19968571D01*
X17597380Y-20254285D02*
X16597380Y-20254285D01*
X16740238Y-20159047D01*
X16835476Y-20063809D01*
X16883095Y-19968571D01*
X16692619Y-20920952D02*
X16645000Y-20968571D01*
X16597380Y-21063809D01*
X16597380Y-21301904D01*
X16645000Y-21397142D01*
X16692619Y-21444761D01*
X16787857Y-21492380D01*
X16883095Y-21492380D01*
X17025952Y-21444761D01*
X17597380Y-20873333D01*
X17597380Y-21492380D01*
X16597380Y-21778095D02*
X17597380Y-22111428D01*
X16597380Y-22444761D01*
G04 #@! TO.C,J7*
X12378000Y-19778095D02*
X12330380Y-19682857D01*
X12330380Y-19540000D01*
X12378000Y-19397142D01*
X12473238Y-19301904D01*
X12568476Y-19254285D01*
X12758952Y-19206666D01*
X12901809Y-19206666D01*
X13092285Y-19254285D01*
X13187523Y-19301904D01*
X13282761Y-19397142D01*
X13330380Y-19540000D01*
X13330380Y-19635238D01*
X13282761Y-19778095D01*
X13235142Y-19825714D01*
X12901809Y-19825714D01*
X12901809Y-19635238D01*
X13330380Y-20254285D02*
X12330380Y-20254285D01*
X13330380Y-20825714D01*
X12330380Y-20825714D01*
X13330380Y-21301904D02*
X12330380Y-21301904D01*
X12330380Y-21540000D01*
X12378000Y-21682857D01*
X12473238Y-21778095D01*
X12568476Y-21825714D01*
X12758952Y-21873333D01*
X12901809Y-21873333D01*
X13092285Y-21825714D01*
X13187523Y-21778095D01*
X13282761Y-21682857D01*
X13330380Y-21540000D01*
X13330380Y-21301904D01*
G04 #@! TO.C,J6*
X7768428Y-19254285D02*
X7768428Y-20016190D01*
X8149380Y-19635238D02*
X7387476Y-19635238D01*
X7149380Y-20968571D02*
X7149380Y-20492380D01*
X7625571Y-20444761D01*
X7577952Y-20492380D01*
X7530333Y-20587619D01*
X7530333Y-20825714D01*
X7577952Y-20920952D01*
X7625571Y-20968571D01*
X7720809Y-21016190D01*
X7958904Y-21016190D01*
X8054142Y-20968571D01*
X8101761Y-20920952D01*
X8149380Y-20825714D01*
X8149380Y-20587619D01*
X8101761Y-20492380D01*
X8054142Y-20444761D01*
X7149380Y-21301904D02*
X8149380Y-21635238D01*
X7149380Y-21968571D01*
G04 #@! TO.C,J5*
X3627428Y-18778095D02*
X3627428Y-19540000D01*
X4008380Y-19159047D02*
X3246476Y-19159047D01*
X4008380Y-20540000D02*
X4008380Y-19968571D01*
X4008380Y-20254285D02*
X3008380Y-20254285D01*
X3151238Y-20159047D01*
X3246476Y-20063809D01*
X3294095Y-19968571D01*
X3103619Y-20920952D02*
X3056000Y-20968571D01*
X3008380Y-21063809D01*
X3008380Y-21301904D01*
X3056000Y-21397142D01*
X3103619Y-21444761D01*
X3198857Y-21492380D01*
X3294095Y-21492380D01*
X3436952Y-21444761D01*
X4008380Y-20873333D01*
X4008380Y-21492380D01*
X3008380Y-21778095D02*
X4008380Y-22111428D01*
X3008380Y-22444761D01*
G04 #@! TO.C,J4*
X17216428Y-8779095D02*
X17216428Y-9541000D01*
X17597380Y-10541000D02*
X17597380Y-9969571D01*
X17597380Y-10255285D02*
X16597380Y-10255285D01*
X16740238Y-10160047D01*
X16835476Y-10064809D01*
X16883095Y-9969571D01*
X16692619Y-10921952D02*
X16645000Y-10969571D01*
X16597380Y-11064809D01*
X16597380Y-11302904D01*
X16645000Y-11398142D01*
X16692619Y-11445761D01*
X16787857Y-11493380D01*
X16883095Y-11493380D01*
X17025952Y-11445761D01*
X17597380Y-10874333D01*
X17597380Y-11493380D01*
X16597380Y-11779095D02*
X17597380Y-12112428D01*
X16597380Y-12445761D01*
G04 #@! TO.C,J3*
X12200000Y-9778095D02*
X12152380Y-9682857D01*
X12152380Y-9540000D01*
X12200000Y-9397142D01*
X12295238Y-9301904D01*
X12390476Y-9254285D01*
X12580952Y-9206666D01*
X12723809Y-9206666D01*
X12914285Y-9254285D01*
X13009523Y-9301904D01*
X13104761Y-9397142D01*
X13152380Y-9540000D01*
X13152380Y-9635238D01*
X13104761Y-9778095D01*
X13057142Y-9825714D01*
X12723809Y-9825714D01*
X12723809Y-9635238D01*
X13152380Y-10254285D02*
X12152380Y-10254285D01*
X13152380Y-10825714D01*
X12152380Y-10825714D01*
X13152380Y-11301904D02*
X12152380Y-11301904D01*
X12152380Y-11540000D01*
X12200000Y-11682857D01*
X12295238Y-11778095D01*
X12390476Y-11825714D01*
X12580952Y-11873333D01*
X12723809Y-11873333D01*
X12914285Y-11825714D01*
X13009523Y-11778095D01*
X13104761Y-11682857D01*
X13152380Y-11540000D01*
X13152380Y-11301904D01*
G04 #@! TO.C,J2*
X8072428Y-9255285D02*
X8072428Y-10017190D01*
X8453380Y-9636238D02*
X7691476Y-9636238D01*
X7453380Y-10969571D02*
X7453380Y-10493380D01*
X7929571Y-10445761D01*
X7881952Y-10493380D01*
X7834333Y-10588619D01*
X7834333Y-10826714D01*
X7881952Y-10921952D01*
X7929571Y-10969571D01*
X8024809Y-11017190D01*
X8262904Y-11017190D01*
X8358142Y-10969571D01*
X8405761Y-10921952D01*
X8453380Y-10826714D01*
X8453380Y-10588619D01*
X8405761Y-10493380D01*
X8358142Y-10445761D01*
X7453380Y-11302904D02*
X8453380Y-11636238D01*
X7453380Y-11969571D01*
G04 #@! TO.C,J1*
X3627428Y-8778095D02*
X3627428Y-9540000D01*
X4008380Y-9159047D02*
X3246476Y-9159047D01*
X4008380Y-10540000D02*
X4008380Y-9968571D01*
X4008380Y-10254285D02*
X3008380Y-10254285D01*
X3151238Y-10159047D01*
X3246476Y-10063809D01*
X3294095Y-9968571D01*
X3103619Y-10920952D02*
X3056000Y-10968571D01*
X3008380Y-11063809D01*
X3008380Y-11301904D01*
X3056000Y-11397142D01*
X3103619Y-11444761D01*
X3198857Y-11492380D01*
X3294095Y-11492380D01*
X3436952Y-11444761D01*
X4008380Y-10873333D01*
X4008380Y-11492380D01*
X3008380Y-11778095D02*
X4008380Y-12111428D01*
X3008380Y-12444761D01*
G04 #@! TD*
M02*
