G04 #@! TF.GenerationSoftware,KiCad,Pcbnew,(5.1.9)-1*
G04 #@! TF.CreationDate,2021-04-04T18:01:09+02:00*
G04 #@! TF.ProjectId,Power Modul Main,506f7765-7220-44d6-9f64-756c204d6169,rev?*
G04 #@! TF.SameCoordinates,Original*
G04 #@! TF.FileFunction,Copper,L2,Bot*
G04 #@! TF.FilePolarity,Positive*
%FSLAX46Y46*%
G04 Gerber Fmt 4.6, Leading zero omitted, Abs format (unit mm)*
G04 Created by KiCad (PCBNEW (5.1.9)-1) date 2021-04-04 18:01:09*
%MOMM*%
%LPD*%
G01*
G04 APERTURE LIST*
G04 #@! TA.AperFunction,ComponentPad*
%ADD10C,2.600000*%
G04 #@! TD*
G04 #@! TA.AperFunction,ComponentPad*
%ADD11O,1.600000X1.600000*%
G04 #@! TD*
G04 #@! TA.AperFunction,ComponentPad*
%ADD12C,1.600000*%
G04 #@! TD*
G04 #@! TA.AperFunction,ComponentPad*
%ADD13C,1.800000*%
G04 #@! TD*
G04 #@! TA.AperFunction,ComponentPad*
%ADD14R,1.800000X1.800000*%
G04 #@! TD*
G04 #@! TA.AperFunction,Conductor*
%ADD15C,0.250000*%
G04 #@! TD*
G04 #@! TA.AperFunction,Conductor*
%ADD16C,0.254000*%
G04 #@! TD*
G04 #@! TA.AperFunction,Conductor*
%ADD17C,0.100000*%
G04 #@! TD*
G04 APERTURE END LIST*
D10*
G04 #@! TO.P,J12,1*
G04 #@! TO.N,-12V*
X15900000Y-33040000D03*
X15900000Y-28040000D03*
G04 #@! TD*
G04 #@! TO.P,J11,1*
G04 #@! TO.N,GND*
X11100000Y-33040000D03*
X11100000Y-28040000D03*
G04 #@! TD*
G04 #@! TO.P,J10,1*
G04 #@! TO.N,+5V*
X6300000Y-33040000D03*
X6300000Y-28040000D03*
G04 #@! TD*
G04 #@! TO.P,J9,1*
G04 #@! TO.N,+12V*
X1500000Y-33040000D03*
X1500000Y-28040000D03*
G04 #@! TD*
D11*
G04 #@! TO.P,R3,2*
G04 #@! TO.N,-12V*
X14859000Y-39116000D03*
D12*
G04 #@! TO.P,R3,1*
G04 #@! TO.N,Net-(D3-Pad1)*
X14859000Y-46736000D03*
G04 #@! TD*
D11*
G04 #@! TO.P,R2,2*
G04 #@! TO.N,Net-(D2-Pad2)*
X9017000Y-46736000D03*
D12*
G04 #@! TO.P,R2,1*
G04 #@! TO.N,+5V*
X9017000Y-39116000D03*
G04 #@! TD*
D11*
G04 #@! TO.P,R1,2*
G04 #@! TO.N,Net-(D1-Pad2)*
X2921000Y-46736000D03*
D12*
G04 #@! TO.P,R1,1*
G04 #@! TO.N,+12V*
X2921000Y-39116000D03*
G04 #@! TD*
D10*
G04 #@! TO.P,J8,1*
G04 #@! TO.N,-12V*
X15900000Y-23040000D03*
X15900000Y-18040000D03*
G04 #@! TD*
G04 #@! TO.P,J7,1*
G04 #@! TO.N,GND*
X11100000Y-23040000D03*
X11100000Y-18040000D03*
G04 #@! TD*
G04 #@! TO.P,J6,1*
G04 #@! TO.N,+5V*
X6300000Y-23040000D03*
X6300000Y-18040000D03*
G04 #@! TD*
G04 #@! TO.P,J5,1*
G04 #@! TO.N,+12V*
X1500000Y-23040000D03*
X1500000Y-18040000D03*
G04 #@! TD*
G04 #@! TO.P,J4,1*
G04 #@! TO.N,-12V*
X15900000Y-8040000D03*
X15900000Y-13040000D03*
G04 #@! TD*
G04 #@! TO.P,J3,1*
G04 #@! TO.N,GND*
X11100000Y-8040000D03*
X11100000Y-13040000D03*
G04 #@! TD*
G04 #@! TO.P,J2,1*
G04 #@! TO.N,+5V*
X6300000Y-8040000D03*
X6300000Y-13040000D03*
G04 #@! TD*
G04 #@! TO.P,J1,1*
G04 #@! TO.N,+12V*
X1500000Y-8040000D03*
X1500000Y-13040000D03*
G04 #@! TD*
D13*
G04 #@! TO.P,D3,2*
G04 #@! TO.N,GND*
X16160000Y-52250000D03*
D14*
G04 #@! TO.P,D3,1*
G04 #@! TO.N,Net-(D3-Pad1)*
X13620000Y-52250000D03*
G04 #@! TD*
D13*
G04 #@! TO.P,D2,2*
G04 #@! TO.N,Net-(D2-Pad2)*
X10160000Y-52250000D03*
D14*
G04 #@! TO.P,D2,1*
G04 #@! TO.N,GND*
X7620000Y-52250000D03*
G04 #@! TD*
D13*
G04 #@! TO.P,D1,2*
G04 #@! TO.N,Net-(D1-Pad2)*
X4160000Y-52250000D03*
D14*
G04 #@! TO.P,D1,1*
G04 #@! TO.N,GND*
X1620000Y-52250000D03*
G04 #@! TD*
D15*
G04 #@! TO.N,Net-(D1-Pad2)*
X4160000Y-47975000D02*
X2921000Y-46736000D01*
X4160000Y-52250000D02*
X4160000Y-47975000D01*
G04 #@! TO.N,GND*
X7620000Y-52250000D02*
X7620000Y-55118000D01*
X16160000Y-52250000D02*
X16160000Y-55087000D01*
X1620000Y-52250000D02*
X1620000Y-55087000D01*
X1651000Y-55118000D02*
X1620000Y-55087000D01*
X7620000Y-55118000D02*
X1651000Y-55118000D01*
X16129000Y-55118000D02*
X16160000Y-55087000D01*
X7620000Y-55118000D02*
X16129000Y-55118000D01*
G04 #@! TO.N,Net-(D2-Pad2)*
X10160000Y-47879000D02*
X9017000Y-46736000D01*
X10160000Y-52250000D02*
X10160000Y-47879000D01*
G04 #@! TO.N,-12V*
X14859000Y-34081000D02*
X15900000Y-33040000D01*
X14859000Y-39116000D02*
X14859000Y-34081000D01*
G04 #@! TO.N,+12V*
X2921000Y-34461000D02*
X1500000Y-33040000D01*
X2921000Y-39116000D02*
X2921000Y-34461000D01*
G04 #@! TO.N,+5V*
X9017000Y-35757000D02*
X6300000Y-33040000D01*
X9017000Y-39116000D02*
X9017000Y-35757000D01*
G04 #@! TO.N,Net-(D3-Pad1)*
X13620000Y-47975000D02*
X14859000Y-46736000D01*
X13620000Y-52250000D02*
X13620000Y-47975000D01*
G04 #@! TD*
D16*
G04 #@! TO.N,-12V*
X17120001Y-6640391D02*
X17069618Y-6690774D01*
X16937683Y-6395688D01*
X16596955Y-6224841D01*
X16229443Y-6123750D01*
X15849271Y-6096299D01*
X15471049Y-6143543D01*
X15109310Y-6263667D01*
X14862317Y-6395688D01*
X14730381Y-6690776D01*
X15900000Y-7860395D01*
X15914143Y-7846253D01*
X16093748Y-8025858D01*
X16079605Y-8040000D01*
X16093748Y-8054143D01*
X15914143Y-8233748D01*
X15900000Y-8219605D01*
X14730381Y-9389224D01*
X14862317Y-9684312D01*
X15203045Y-9855159D01*
X15570557Y-9956250D01*
X15950729Y-9983701D01*
X16328951Y-9936457D01*
X16690690Y-9816333D01*
X16937683Y-9684312D01*
X17069618Y-9389226D01*
X17120001Y-9439609D01*
X17120001Y-11640391D01*
X17069618Y-11690774D01*
X16937683Y-11395688D01*
X16596955Y-11224841D01*
X16229443Y-11123750D01*
X15849271Y-11096299D01*
X15471049Y-11143543D01*
X15109310Y-11263667D01*
X14862317Y-11395688D01*
X14730381Y-11690776D01*
X15900000Y-12860395D01*
X15914143Y-12846253D01*
X16093748Y-13025858D01*
X16079605Y-13040000D01*
X16093748Y-13054143D01*
X15914143Y-13233748D01*
X15900000Y-13219605D01*
X14730381Y-14389224D01*
X14862317Y-14684312D01*
X15203045Y-14855159D01*
X15570557Y-14956250D01*
X15950729Y-14983701D01*
X16328951Y-14936457D01*
X16690690Y-14816333D01*
X16937683Y-14684312D01*
X17069618Y-14389226D01*
X17120001Y-14439609D01*
X17120001Y-16640391D01*
X17069618Y-16690774D01*
X16937683Y-16395688D01*
X16596955Y-16224841D01*
X16229443Y-16123750D01*
X15849271Y-16096299D01*
X15471049Y-16143543D01*
X15109310Y-16263667D01*
X14862317Y-16395688D01*
X14730381Y-16690776D01*
X15900000Y-17860395D01*
X15914143Y-17846253D01*
X16093748Y-18025858D01*
X16079605Y-18040000D01*
X16093748Y-18054143D01*
X15914143Y-18233748D01*
X15900000Y-18219605D01*
X14730381Y-19389224D01*
X14862317Y-19684312D01*
X15203045Y-19855159D01*
X15570557Y-19956250D01*
X15950729Y-19983701D01*
X16328951Y-19936457D01*
X16690690Y-19816333D01*
X16937683Y-19684312D01*
X17069618Y-19389226D01*
X17120001Y-19439609D01*
X17120001Y-21640391D01*
X17069618Y-21690774D01*
X16937683Y-21395688D01*
X16596955Y-21224841D01*
X16229443Y-21123750D01*
X15849271Y-21096299D01*
X15471049Y-21143543D01*
X15109310Y-21263667D01*
X14862317Y-21395688D01*
X14730381Y-21690776D01*
X15900000Y-22860395D01*
X15914143Y-22846253D01*
X16093748Y-23025858D01*
X16079605Y-23040000D01*
X16093748Y-23054143D01*
X15914143Y-23233748D01*
X15900000Y-23219605D01*
X14730381Y-24389224D01*
X14862317Y-24684312D01*
X15203045Y-24855159D01*
X15570557Y-24956250D01*
X15950729Y-24983701D01*
X16328951Y-24936457D01*
X16690690Y-24816333D01*
X16937683Y-24684312D01*
X17069618Y-24389226D01*
X17120001Y-24439609D01*
X17120001Y-26640391D01*
X17069618Y-26690774D01*
X16937683Y-26395688D01*
X16596955Y-26224841D01*
X16229443Y-26123750D01*
X15849271Y-26096299D01*
X15471049Y-26143543D01*
X15109310Y-26263667D01*
X14862317Y-26395688D01*
X14730381Y-26690776D01*
X15900000Y-27860395D01*
X15914143Y-27846253D01*
X16093748Y-28025858D01*
X16079605Y-28040000D01*
X16093748Y-28054143D01*
X15914143Y-28233748D01*
X15900000Y-28219605D01*
X14730381Y-29389224D01*
X14862317Y-29684312D01*
X15203045Y-29855159D01*
X15570557Y-29956250D01*
X15950729Y-29983701D01*
X16328951Y-29936457D01*
X16690690Y-29816333D01*
X16937683Y-29684312D01*
X17069618Y-29389226D01*
X17120001Y-29439609D01*
X17120001Y-31640391D01*
X17069618Y-31690774D01*
X16937683Y-31395688D01*
X16596955Y-31224841D01*
X16229443Y-31123750D01*
X15849271Y-31096299D01*
X15471049Y-31143543D01*
X15109310Y-31263667D01*
X14862317Y-31395688D01*
X14730381Y-31690776D01*
X15900000Y-32860395D01*
X15914143Y-32846253D01*
X16093748Y-33025858D01*
X16079605Y-33040000D01*
X16093748Y-33054143D01*
X15914143Y-33233748D01*
X15900000Y-33219605D01*
X14730381Y-34389224D01*
X14862317Y-34684312D01*
X15203045Y-34855159D01*
X15570557Y-34956250D01*
X15950729Y-34983701D01*
X16328951Y-34936457D01*
X16690690Y-34816333D01*
X16937683Y-34684312D01*
X17069618Y-34389226D01*
X17120000Y-34439608D01*
X17120000Y-35433000D01*
X13716000Y-35433000D01*
X13716000Y-33090729D01*
X13956299Y-33090729D01*
X14003543Y-33468951D01*
X14123667Y-33830690D01*
X14255688Y-34077683D01*
X14550776Y-34209619D01*
X15720395Y-33040000D01*
X14550776Y-31870381D01*
X14255688Y-32002317D01*
X14084841Y-32343045D01*
X13983750Y-32710557D01*
X13956299Y-33090729D01*
X13716000Y-33090729D01*
X13716000Y-28090729D01*
X13956299Y-28090729D01*
X14003543Y-28468951D01*
X14123667Y-28830690D01*
X14255688Y-29077683D01*
X14550776Y-29209619D01*
X15720395Y-28040000D01*
X14550776Y-26870381D01*
X14255688Y-27002317D01*
X14084841Y-27343045D01*
X13983750Y-27710557D01*
X13956299Y-28090729D01*
X13716000Y-28090729D01*
X13716000Y-23090729D01*
X13956299Y-23090729D01*
X14003543Y-23468951D01*
X14123667Y-23830690D01*
X14255688Y-24077683D01*
X14550776Y-24209619D01*
X15720395Y-23040000D01*
X14550776Y-21870381D01*
X14255688Y-22002317D01*
X14084841Y-22343045D01*
X13983750Y-22710557D01*
X13956299Y-23090729D01*
X13716000Y-23090729D01*
X13716000Y-18090729D01*
X13956299Y-18090729D01*
X14003543Y-18468951D01*
X14123667Y-18830690D01*
X14255688Y-19077683D01*
X14550776Y-19209619D01*
X15720395Y-18040000D01*
X14550776Y-16870381D01*
X14255688Y-17002317D01*
X14084841Y-17343045D01*
X13983750Y-17710557D01*
X13956299Y-18090729D01*
X13716000Y-18090729D01*
X13716000Y-13090729D01*
X13956299Y-13090729D01*
X14003543Y-13468951D01*
X14123667Y-13830690D01*
X14255688Y-14077683D01*
X14550776Y-14209619D01*
X15720395Y-13040000D01*
X14550776Y-11870381D01*
X14255688Y-12002317D01*
X14084841Y-12343045D01*
X13983750Y-12710557D01*
X13956299Y-13090729D01*
X13716000Y-13090729D01*
X13716000Y-8090729D01*
X13956299Y-8090729D01*
X14003543Y-8468951D01*
X14123667Y-8830690D01*
X14255688Y-9077683D01*
X14550776Y-9209619D01*
X15720395Y-8040000D01*
X14550776Y-6870381D01*
X14255688Y-7002317D01*
X14084841Y-7343045D01*
X13983750Y-7710557D01*
X13956299Y-8090729D01*
X13716000Y-8090729D01*
X13716000Y-5842000D01*
X17120001Y-5842000D01*
X17120001Y-6640391D01*
G04 #@! TA.AperFunction,Conductor*
D17*
G36*
X17120001Y-6640391D02*
G01*
X17069618Y-6690774D01*
X16937683Y-6395688D01*
X16596955Y-6224841D01*
X16229443Y-6123750D01*
X15849271Y-6096299D01*
X15471049Y-6143543D01*
X15109310Y-6263667D01*
X14862317Y-6395688D01*
X14730381Y-6690776D01*
X15900000Y-7860395D01*
X15914143Y-7846253D01*
X16093748Y-8025858D01*
X16079605Y-8040000D01*
X16093748Y-8054143D01*
X15914143Y-8233748D01*
X15900000Y-8219605D01*
X14730381Y-9389224D01*
X14862317Y-9684312D01*
X15203045Y-9855159D01*
X15570557Y-9956250D01*
X15950729Y-9983701D01*
X16328951Y-9936457D01*
X16690690Y-9816333D01*
X16937683Y-9684312D01*
X17069618Y-9389226D01*
X17120001Y-9439609D01*
X17120001Y-11640391D01*
X17069618Y-11690774D01*
X16937683Y-11395688D01*
X16596955Y-11224841D01*
X16229443Y-11123750D01*
X15849271Y-11096299D01*
X15471049Y-11143543D01*
X15109310Y-11263667D01*
X14862317Y-11395688D01*
X14730381Y-11690776D01*
X15900000Y-12860395D01*
X15914143Y-12846253D01*
X16093748Y-13025858D01*
X16079605Y-13040000D01*
X16093748Y-13054143D01*
X15914143Y-13233748D01*
X15900000Y-13219605D01*
X14730381Y-14389224D01*
X14862317Y-14684312D01*
X15203045Y-14855159D01*
X15570557Y-14956250D01*
X15950729Y-14983701D01*
X16328951Y-14936457D01*
X16690690Y-14816333D01*
X16937683Y-14684312D01*
X17069618Y-14389226D01*
X17120001Y-14439609D01*
X17120001Y-16640391D01*
X17069618Y-16690774D01*
X16937683Y-16395688D01*
X16596955Y-16224841D01*
X16229443Y-16123750D01*
X15849271Y-16096299D01*
X15471049Y-16143543D01*
X15109310Y-16263667D01*
X14862317Y-16395688D01*
X14730381Y-16690776D01*
X15900000Y-17860395D01*
X15914143Y-17846253D01*
X16093748Y-18025858D01*
X16079605Y-18040000D01*
X16093748Y-18054143D01*
X15914143Y-18233748D01*
X15900000Y-18219605D01*
X14730381Y-19389224D01*
X14862317Y-19684312D01*
X15203045Y-19855159D01*
X15570557Y-19956250D01*
X15950729Y-19983701D01*
X16328951Y-19936457D01*
X16690690Y-19816333D01*
X16937683Y-19684312D01*
X17069618Y-19389226D01*
X17120001Y-19439609D01*
X17120001Y-21640391D01*
X17069618Y-21690774D01*
X16937683Y-21395688D01*
X16596955Y-21224841D01*
X16229443Y-21123750D01*
X15849271Y-21096299D01*
X15471049Y-21143543D01*
X15109310Y-21263667D01*
X14862317Y-21395688D01*
X14730381Y-21690776D01*
X15900000Y-22860395D01*
X15914143Y-22846253D01*
X16093748Y-23025858D01*
X16079605Y-23040000D01*
X16093748Y-23054143D01*
X15914143Y-23233748D01*
X15900000Y-23219605D01*
X14730381Y-24389224D01*
X14862317Y-24684312D01*
X15203045Y-24855159D01*
X15570557Y-24956250D01*
X15950729Y-24983701D01*
X16328951Y-24936457D01*
X16690690Y-24816333D01*
X16937683Y-24684312D01*
X17069618Y-24389226D01*
X17120001Y-24439609D01*
X17120001Y-26640391D01*
X17069618Y-26690774D01*
X16937683Y-26395688D01*
X16596955Y-26224841D01*
X16229443Y-26123750D01*
X15849271Y-26096299D01*
X15471049Y-26143543D01*
X15109310Y-26263667D01*
X14862317Y-26395688D01*
X14730381Y-26690776D01*
X15900000Y-27860395D01*
X15914143Y-27846253D01*
X16093748Y-28025858D01*
X16079605Y-28040000D01*
X16093748Y-28054143D01*
X15914143Y-28233748D01*
X15900000Y-28219605D01*
X14730381Y-29389224D01*
X14862317Y-29684312D01*
X15203045Y-29855159D01*
X15570557Y-29956250D01*
X15950729Y-29983701D01*
X16328951Y-29936457D01*
X16690690Y-29816333D01*
X16937683Y-29684312D01*
X17069618Y-29389226D01*
X17120001Y-29439609D01*
X17120001Y-31640391D01*
X17069618Y-31690774D01*
X16937683Y-31395688D01*
X16596955Y-31224841D01*
X16229443Y-31123750D01*
X15849271Y-31096299D01*
X15471049Y-31143543D01*
X15109310Y-31263667D01*
X14862317Y-31395688D01*
X14730381Y-31690776D01*
X15900000Y-32860395D01*
X15914143Y-32846253D01*
X16093748Y-33025858D01*
X16079605Y-33040000D01*
X16093748Y-33054143D01*
X15914143Y-33233748D01*
X15900000Y-33219605D01*
X14730381Y-34389224D01*
X14862317Y-34684312D01*
X15203045Y-34855159D01*
X15570557Y-34956250D01*
X15950729Y-34983701D01*
X16328951Y-34936457D01*
X16690690Y-34816333D01*
X16937683Y-34684312D01*
X17069618Y-34389226D01*
X17120000Y-34439608D01*
X17120000Y-35433000D01*
X13716000Y-35433000D01*
X13716000Y-33090729D01*
X13956299Y-33090729D01*
X14003543Y-33468951D01*
X14123667Y-33830690D01*
X14255688Y-34077683D01*
X14550776Y-34209619D01*
X15720395Y-33040000D01*
X14550776Y-31870381D01*
X14255688Y-32002317D01*
X14084841Y-32343045D01*
X13983750Y-32710557D01*
X13956299Y-33090729D01*
X13716000Y-33090729D01*
X13716000Y-28090729D01*
X13956299Y-28090729D01*
X14003543Y-28468951D01*
X14123667Y-28830690D01*
X14255688Y-29077683D01*
X14550776Y-29209619D01*
X15720395Y-28040000D01*
X14550776Y-26870381D01*
X14255688Y-27002317D01*
X14084841Y-27343045D01*
X13983750Y-27710557D01*
X13956299Y-28090729D01*
X13716000Y-28090729D01*
X13716000Y-23090729D01*
X13956299Y-23090729D01*
X14003543Y-23468951D01*
X14123667Y-23830690D01*
X14255688Y-24077683D01*
X14550776Y-24209619D01*
X15720395Y-23040000D01*
X14550776Y-21870381D01*
X14255688Y-22002317D01*
X14084841Y-22343045D01*
X13983750Y-22710557D01*
X13956299Y-23090729D01*
X13716000Y-23090729D01*
X13716000Y-18090729D01*
X13956299Y-18090729D01*
X14003543Y-18468951D01*
X14123667Y-18830690D01*
X14255688Y-19077683D01*
X14550776Y-19209619D01*
X15720395Y-18040000D01*
X14550776Y-16870381D01*
X14255688Y-17002317D01*
X14084841Y-17343045D01*
X13983750Y-17710557D01*
X13956299Y-18090729D01*
X13716000Y-18090729D01*
X13716000Y-13090729D01*
X13956299Y-13090729D01*
X14003543Y-13468951D01*
X14123667Y-13830690D01*
X14255688Y-14077683D01*
X14550776Y-14209619D01*
X15720395Y-13040000D01*
X14550776Y-11870381D01*
X14255688Y-12002317D01*
X14084841Y-12343045D01*
X13983750Y-12710557D01*
X13956299Y-13090729D01*
X13716000Y-13090729D01*
X13716000Y-8090729D01*
X13956299Y-8090729D01*
X14003543Y-8468951D01*
X14123667Y-8830690D01*
X14255688Y-9077683D01*
X14550776Y-9209619D01*
X15720395Y-8040000D01*
X14550776Y-6870381D01*
X14255688Y-7002317D01*
X14084841Y-7343045D01*
X13983750Y-7710557D01*
X13956299Y-8090729D01*
X13716000Y-8090729D01*
X13716000Y-5842000D01*
X17120001Y-5842000D01*
X17120001Y-6640391D01*
G37*
G04 #@! TD.AperFunction*
G04 #@! TD*
D16*
G04 #@! TO.N,+12V*
X4064000Y-35433000D02*
X660000Y-35433000D01*
X660000Y-34783434D01*
X803045Y-34855159D01*
X1170557Y-34956250D01*
X1550729Y-34983701D01*
X1928951Y-34936457D01*
X2290690Y-34816333D01*
X2537683Y-34684312D01*
X2669619Y-34389224D01*
X1500000Y-33219605D01*
X1485858Y-33233748D01*
X1306253Y-33054143D01*
X1320395Y-33040000D01*
X1679605Y-33040000D01*
X2849224Y-34209619D01*
X3144312Y-34077683D01*
X3315159Y-33736955D01*
X3416250Y-33369443D01*
X3443701Y-32989271D01*
X3396457Y-32611049D01*
X3276333Y-32249310D01*
X3144312Y-32002317D01*
X2849224Y-31870381D01*
X1679605Y-33040000D01*
X1320395Y-33040000D01*
X1306253Y-33025858D01*
X1485858Y-32846253D01*
X1500000Y-32860395D01*
X2669619Y-31690776D01*
X2537683Y-31395688D01*
X2196955Y-31224841D01*
X1829443Y-31123750D01*
X1449271Y-31096299D01*
X1071049Y-31143543D01*
X709310Y-31263667D01*
X660000Y-31290024D01*
X660000Y-29783434D01*
X803045Y-29855159D01*
X1170557Y-29956250D01*
X1550729Y-29983701D01*
X1928951Y-29936457D01*
X2290690Y-29816333D01*
X2537683Y-29684312D01*
X2669619Y-29389224D01*
X1500000Y-28219605D01*
X1485858Y-28233748D01*
X1306253Y-28054143D01*
X1320395Y-28040000D01*
X1679605Y-28040000D01*
X2849224Y-29209619D01*
X3144312Y-29077683D01*
X3315159Y-28736955D01*
X3416250Y-28369443D01*
X3443701Y-27989271D01*
X3396457Y-27611049D01*
X3276333Y-27249310D01*
X3144312Y-27002317D01*
X2849224Y-26870381D01*
X1679605Y-28040000D01*
X1320395Y-28040000D01*
X1306253Y-28025858D01*
X1485858Y-27846253D01*
X1500000Y-27860395D01*
X2669619Y-26690776D01*
X2537683Y-26395688D01*
X2196955Y-26224841D01*
X1829443Y-26123750D01*
X1449271Y-26096299D01*
X1071049Y-26143543D01*
X709310Y-26263667D01*
X660000Y-26290024D01*
X660000Y-24783434D01*
X803045Y-24855159D01*
X1170557Y-24956250D01*
X1550729Y-24983701D01*
X1928951Y-24936457D01*
X2290690Y-24816333D01*
X2537683Y-24684312D01*
X2669619Y-24389224D01*
X1500000Y-23219605D01*
X1485858Y-23233748D01*
X1306253Y-23054143D01*
X1320395Y-23040000D01*
X1679605Y-23040000D01*
X2849224Y-24209619D01*
X3144312Y-24077683D01*
X3315159Y-23736955D01*
X3416250Y-23369443D01*
X3443701Y-22989271D01*
X3396457Y-22611049D01*
X3276333Y-22249310D01*
X3144312Y-22002317D01*
X2849224Y-21870381D01*
X1679605Y-23040000D01*
X1320395Y-23040000D01*
X1306253Y-23025858D01*
X1485858Y-22846253D01*
X1500000Y-22860395D01*
X2669619Y-21690776D01*
X2537683Y-21395688D01*
X2196955Y-21224841D01*
X1829443Y-21123750D01*
X1449271Y-21096299D01*
X1071049Y-21143543D01*
X709310Y-21263667D01*
X660000Y-21290024D01*
X660000Y-19783434D01*
X803045Y-19855159D01*
X1170557Y-19956250D01*
X1550729Y-19983701D01*
X1928951Y-19936457D01*
X2290690Y-19816333D01*
X2537683Y-19684312D01*
X2669619Y-19389224D01*
X1500000Y-18219605D01*
X1485858Y-18233748D01*
X1306253Y-18054143D01*
X1320395Y-18040000D01*
X1679605Y-18040000D01*
X2849224Y-19209619D01*
X3144312Y-19077683D01*
X3315159Y-18736955D01*
X3416250Y-18369443D01*
X3443701Y-17989271D01*
X3396457Y-17611049D01*
X3276333Y-17249310D01*
X3144312Y-17002317D01*
X2849224Y-16870381D01*
X1679605Y-18040000D01*
X1320395Y-18040000D01*
X1306253Y-18025858D01*
X1485858Y-17846253D01*
X1500000Y-17860395D01*
X2669619Y-16690776D01*
X2537683Y-16395688D01*
X2196955Y-16224841D01*
X1829443Y-16123750D01*
X1449271Y-16096299D01*
X1071049Y-16143543D01*
X709310Y-16263667D01*
X660000Y-16290024D01*
X660000Y-14783434D01*
X803045Y-14855159D01*
X1170557Y-14956250D01*
X1550729Y-14983701D01*
X1928951Y-14936457D01*
X2290690Y-14816333D01*
X2537683Y-14684312D01*
X2669619Y-14389224D01*
X1500000Y-13219605D01*
X1485858Y-13233748D01*
X1306253Y-13054143D01*
X1320395Y-13040000D01*
X1679605Y-13040000D01*
X2849224Y-14209619D01*
X3144312Y-14077683D01*
X3315159Y-13736955D01*
X3416250Y-13369443D01*
X3443701Y-12989271D01*
X3396457Y-12611049D01*
X3276333Y-12249310D01*
X3144312Y-12002317D01*
X2849224Y-11870381D01*
X1679605Y-13040000D01*
X1320395Y-13040000D01*
X1306253Y-13025858D01*
X1485858Y-12846253D01*
X1500000Y-12860395D01*
X2669619Y-11690776D01*
X2537683Y-11395688D01*
X2196955Y-11224841D01*
X1829443Y-11123750D01*
X1449271Y-11096299D01*
X1071049Y-11143543D01*
X709310Y-11263667D01*
X660000Y-11290024D01*
X660000Y-9783434D01*
X803045Y-9855159D01*
X1170557Y-9956250D01*
X1550729Y-9983701D01*
X1928951Y-9936457D01*
X2290690Y-9816333D01*
X2537683Y-9684312D01*
X2669619Y-9389224D01*
X1500000Y-8219605D01*
X1485858Y-8233748D01*
X1306253Y-8054143D01*
X1320395Y-8040000D01*
X1679605Y-8040000D01*
X2849224Y-9209619D01*
X3144312Y-9077683D01*
X3315159Y-8736955D01*
X3416250Y-8369443D01*
X3443701Y-7989271D01*
X3396457Y-7611049D01*
X3276333Y-7249310D01*
X3144312Y-7002317D01*
X2849224Y-6870381D01*
X1679605Y-8040000D01*
X1320395Y-8040000D01*
X1306253Y-8025858D01*
X1485858Y-7846253D01*
X1500000Y-7860395D01*
X2669619Y-6690776D01*
X2537683Y-6395688D01*
X2196955Y-6224841D01*
X1829443Y-6123750D01*
X1449271Y-6096299D01*
X1071049Y-6143543D01*
X709310Y-6263667D01*
X660000Y-6290024D01*
X660000Y-5842000D01*
X4064000Y-5842000D01*
X4064000Y-35433000D01*
G04 #@! TA.AperFunction,Conductor*
D17*
G36*
X4064000Y-35433000D02*
G01*
X660000Y-35433000D01*
X660000Y-34783434D01*
X803045Y-34855159D01*
X1170557Y-34956250D01*
X1550729Y-34983701D01*
X1928951Y-34936457D01*
X2290690Y-34816333D01*
X2537683Y-34684312D01*
X2669619Y-34389224D01*
X1500000Y-33219605D01*
X1485858Y-33233748D01*
X1306253Y-33054143D01*
X1320395Y-33040000D01*
X1679605Y-33040000D01*
X2849224Y-34209619D01*
X3144312Y-34077683D01*
X3315159Y-33736955D01*
X3416250Y-33369443D01*
X3443701Y-32989271D01*
X3396457Y-32611049D01*
X3276333Y-32249310D01*
X3144312Y-32002317D01*
X2849224Y-31870381D01*
X1679605Y-33040000D01*
X1320395Y-33040000D01*
X1306253Y-33025858D01*
X1485858Y-32846253D01*
X1500000Y-32860395D01*
X2669619Y-31690776D01*
X2537683Y-31395688D01*
X2196955Y-31224841D01*
X1829443Y-31123750D01*
X1449271Y-31096299D01*
X1071049Y-31143543D01*
X709310Y-31263667D01*
X660000Y-31290024D01*
X660000Y-29783434D01*
X803045Y-29855159D01*
X1170557Y-29956250D01*
X1550729Y-29983701D01*
X1928951Y-29936457D01*
X2290690Y-29816333D01*
X2537683Y-29684312D01*
X2669619Y-29389224D01*
X1500000Y-28219605D01*
X1485858Y-28233748D01*
X1306253Y-28054143D01*
X1320395Y-28040000D01*
X1679605Y-28040000D01*
X2849224Y-29209619D01*
X3144312Y-29077683D01*
X3315159Y-28736955D01*
X3416250Y-28369443D01*
X3443701Y-27989271D01*
X3396457Y-27611049D01*
X3276333Y-27249310D01*
X3144312Y-27002317D01*
X2849224Y-26870381D01*
X1679605Y-28040000D01*
X1320395Y-28040000D01*
X1306253Y-28025858D01*
X1485858Y-27846253D01*
X1500000Y-27860395D01*
X2669619Y-26690776D01*
X2537683Y-26395688D01*
X2196955Y-26224841D01*
X1829443Y-26123750D01*
X1449271Y-26096299D01*
X1071049Y-26143543D01*
X709310Y-26263667D01*
X660000Y-26290024D01*
X660000Y-24783434D01*
X803045Y-24855159D01*
X1170557Y-24956250D01*
X1550729Y-24983701D01*
X1928951Y-24936457D01*
X2290690Y-24816333D01*
X2537683Y-24684312D01*
X2669619Y-24389224D01*
X1500000Y-23219605D01*
X1485858Y-23233748D01*
X1306253Y-23054143D01*
X1320395Y-23040000D01*
X1679605Y-23040000D01*
X2849224Y-24209619D01*
X3144312Y-24077683D01*
X3315159Y-23736955D01*
X3416250Y-23369443D01*
X3443701Y-22989271D01*
X3396457Y-22611049D01*
X3276333Y-22249310D01*
X3144312Y-22002317D01*
X2849224Y-21870381D01*
X1679605Y-23040000D01*
X1320395Y-23040000D01*
X1306253Y-23025858D01*
X1485858Y-22846253D01*
X1500000Y-22860395D01*
X2669619Y-21690776D01*
X2537683Y-21395688D01*
X2196955Y-21224841D01*
X1829443Y-21123750D01*
X1449271Y-21096299D01*
X1071049Y-21143543D01*
X709310Y-21263667D01*
X660000Y-21290024D01*
X660000Y-19783434D01*
X803045Y-19855159D01*
X1170557Y-19956250D01*
X1550729Y-19983701D01*
X1928951Y-19936457D01*
X2290690Y-19816333D01*
X2537683Y-19684312D01*
X2669619Y-19389224D01*
X1500000Y-18219605D01*
X1485858Y-18233748D01*
X1306253Y-18054143D01*
X1320395Y-18040000D01*
X1679605Y-18040000D01*
X2849224Y-19209619D01*
X3144312Y-19077683D01*
X3315159Y-18736955D01*
X3416250Y-18369443D01*
X3443701Y-17989271D01*
X3396457Y-17611049D01*
X3276333Y-17249310D01*
X3144312Y-17002317D01*
X2849224Y-16870381D01*
X1679605Y-18040000D01*
X1320395Y-18040000D01*
X1306253Y-18025858D01*
X1485858Y-17846253D01*
X1500000Y-17860395D01*
X2669619Y-16690776D01*
X2537683Y-16395688D01*
X2196955Y-16224841D01*
X1829443Y-16123750D01*
X1449271Y-16096299D01*
X1071049Y-16143543D01*
X709310Y-16263667D01*
X660000Y-16290024D01*
X660000Y-14783434D01*
X803045Y-14855159D01*
X1170557Y-14956250D01*
X1550729Y-14983701D01*
X1928951Y-14936457D01*
X2290690Y-14816333D01*
X2537683Y-14684312D01*
X2669619Y-14389224D01*
X1500000Y-13219605D01*
X1485858Y-13233748D01*
X1306253Y-13054143D01*
X1320395Y-13040000D01*
X1679605Y-13040000D01*
X2849224Y-14209619D01*
X3144312Y-14077683D01*
X3315159Y-13736955D01*
X3416250Y-13369443D01*
X3443701Y-12989271D01*
X3396457Y-12611049D01*
X3276333Y-12249310D01*
X3144312Y-12002317D01*
X2849224Y-11870381D01*
X1679605Y-13040000D01*
X1320395Y-13040000D01*
X1306253Y-13025858D01*
X1485858Y-12846253D01*
X1500000Y-12860395D01*
X2669619Y-11690776D01*
X2537683Y-11395688D01*
X2196955Y-11224841D01*
X1829443Y-11123750D01*
X1449271Y-11096299D01*
X1071049Y-11143543D01*
X709310Y-11263667D01*
X660000Y-11290024D01*
X660000Y-9783434D01*
X803045Y-9855159D01*
X1170557Y-9956250D01*
X1550729Y-9983701D01*
X1928951Y-9936457D01*
X2290690Y-9816333D01*
X2537683Y-9684312D01*
X2669619Y-9389224D01*
X1500000Y-8219605D01*
X1485858Y-8233748D01*
X1306253Y-8054143D01*
X1320395Y-8040000D01*
X1679605Y-8040000D01*
X2849224Y-9209619D01*
X3144312Y-9077683D01*
X3315159Y-8736955D01*
X3416250Y-8369443D01*
X3443701Y-7989271D01*
X3396457Y-7611049D01*
X3276333Y-7249310D01*
X3144312Y-7002317D01*
X2849224Y-6870381D01*
X1679605Y-8040000D01*
X1320395Y-8040000D01*
X1306253Y-8025858D01*
X1485858Y-7846253D01*
X1500000Y-7860395D01*
X2669619Y-6690776D01*
X2537683Y-6395688D01*
X2196955Y-6224841D01*
X1829443Y-6123750D01*
X1449271Y-6096299D01*
X1071049Y-6143543D01*
X709310Y-6263667D01*
X660000Y-6290024D01*
X660000Y-5842000D01*
X4064000Y-5842000D01*
X4064000Y-35433000D01*
G37*
G04 #@! TD.AperFunction*
G04 #@! TD*
D16*
G04 #@! TO.N,+5V*
X8509000Y-35433000D02*
X4826000Y-35433000D01*
X4826000Y-34389224D01*
X5130381Y-34389224D01*
X5262317Y-34684312D01*
X5603045Y-34855159D01*
X5970557Y-34956250D01*
X6350729Y-34983701D01*
X6728951Y-34936457D01*
X7090690Y-34816333D01*
X7337683Y-34684312D01*
X7469619Y-34389224D01*
X6300000Y-33219605D01*
X5130381Y-34389224D01*
X4826000Y-34389224D01*
X4826000Y-34153831D01*
X4950776Y-34209619D01*
X6120395Y-33040000D01*
X6479605Y-33040000D01*
X7649224Y-34209619D01*
X7944312Y-34077683D01*
X8115159Y-33736955D01*
X8216250Y-33369443D01*
X8243701Y-32989271D01*
X8196457Y-32611049D01*
X8076333Y-32249310D01*
X7944312Y-32002317D01*
X7649224Y-31870381D01*
X6479605Y-33040000D01*
X6120395Y-33040000D01*
X4950776Y-31870381D01*
X4826000Y-31926169D01*
X4826000Y-31690776D01*
X5130381Y-31690776D01*
X6300000Y-32860395D01*
X7469619Y-31690776D01*
X7337683Y-31395688D01*
X6996955Y-31224841D01*
X6629443Y-31123750D01*
X6249271Y-31096299D01*
X5871049Y-31143543D01*
X5509310Y-31263667D01*
X5262317Y-31395688D01*
X5130381Y-31690776D01*
X4826000Y-31690776D01*
X4826000Y-29389224D01*
X5130381Y-29389224D01*
X5262317Y-29684312D01*
X5603045Y-29855159D01*
X5970557Y-29956250D01*
X6350729Y-29983701D01*
X6728951Y-29936457D01*
X7090690Y-29816333D01*
X7337683Y-29684312D01*
X7469619Y-29389224D01*
X6300000Y-28219605D01*
X5130381Y-29389224D01*
X4826000Y-29389224D01*
X4826000Y-29153831D01*
X4950776Y-29209619D01*
X6120395Y-28040000D01*
X6479605Y-28040000D01*
X7649224Y-29209619D01*
X7944312Y-29077683D01*
X8115159Y-28736955D01*
X8216250Y-28369443D01*
X8243701Y-27989271D01*
X8196457Y-27611049D01*
X8076333Y-27249310D01*
X7944312Y-27002317D01*
X7649224Y-26870381D01*
X6479605Y-28040000D01*
X6120395Y-28040000D01*
X4950776Y-26870381D01*
X4826000Y-26926169D01*
X4826000Y-26690776D01*
X5130381Y-26690776D01*
X6300000Y-27860395D01*
X7469619Y-26690776D01*
X7337683Y-26395688D01*
X6996955Y-26224841D01*
X6629443Y-26123750D01*
X6249271Y-26096299D01*
X5871049Y-26143543D01*
X5509310Y-26263667D01*
X5262317Y-26395688D01*
X5130381Y-26690776D01*
X4826000Y-26690776D01*
X4826000Y-24389224D01*
X5130381Y-24389224D01*
X5262317Y-24684312D01*
X5603045Y-24855159D01*
X5970557Y-24956250D01*
X6350729Y-24983701D01*
X6728951Y-24936457D01*
X7090690Y-24816333D01*
X7337683Y-24684312D01*
X7469619Y-24389224D01*
X6300000Y-23219605D01*
X5130381Y-24389224D01*
X4826000Y-24389224D01*
X4826000Y-24153831D01*
X4950776Y-24209619D01*
X6120395Y-23040000D01*
X6479605Y-23040000D01*
X7649224Y-24209619D01*
X7944312Y-24077683D01*
X8115159Y-23736955D01*
X8216250Y-23369443D01*
X8243701Y-22989271D01*
X8196457Y-22611049D01*
X8076333Y-22249310D01*
X7944312Y-22002317D01*
X7649224Y-21870381D01*
X6479605Y-23040000D01*
X6120395Y-23040000D01*
X4950776Y-21870381D01*
X4826000Y-21926169D01*
X4826000Y-21690776D01*
X5130381Y-21690776D01*
X6300000Y-22860395D01*
X7469619Y-21690776D01*
X7337683Y-21395688D01*
X6996955Y-21224841D01*
X6629443Y-21123750D01*
X6249271Y-21096299D01*
X5871049Y-21143543D01*
X5509310Y-21263667D01*
X5262317Y-21395688D01*
X5130381Y-21690776D01*
X4826000Y-21690776D01*
X4826000Y-19389224D01*
X5130381Y-19389224D01*
X5262317Y-19684312D01*
X5603045Y-19855159D01*
X5970557Y-19956250D01*
X6350729Y-19983701D01*
X6728951Y-19936457D01*
X7090690Y-19816333D01*
X7337683Y-19684312D01*
X7469619Y-19389224D01*
X6300000Y-18219605D01*
X5130381Y-19389224D01*
X4826000Y-19389224D01*
X4826000Y-19153831D01*
X4950776Y-19209619D01*
X6120395Y-18040000D01*
X6479605Y-18040000D01*
X7649224Y-19209619D01*
X7944312Y-19077683D01*
X8115159Y-18736955D01*
X8216250Y-18369443D01*
X8243701Y-17989271D01*
X8196457Y-17611049D01*
X8076333Y-17249310D01*
X7944312Y-17002317D01*
X7649224Y-16870381D01*
X6479605Y-18040000D01*
X6120395Y-18040000D01*
X4950776Y-16870381D01*
X4826000Y-16926169D01*
X4826000Y-16690776D01*
X5130381Y-16690776D01*
X6300000Y-17860395D01*
X7469619Y-16690776D01*
X7337683Y-16395688D01*
X6996955Y-16224841D01*
X6629443Y-16123750D01*
X6249271Y-16096299D01*
X5871049Y-16143543D01*
X5509310Y-16263667D01*
X5262317Y-16395688D01*
X5130381Y-16690776D01*
X4826000Y-16690776D01*
X4826000Y-14389224D01*
X5130381Y-14389224D01*
X5262317Y-14684312D01*
X5603045Y-14855159D01*
X5970557Y-14956250D01*
X6350729Y-14983701D01*
X6728951Y-14936457D01*
X7090690Y-14816333D01*
X7337683Y-14684312D01*
X7469619Y-14389224D01*
X6300000Y-13219605D01*
X5130381Y-14389224D01*
X4826000Y-14389224D01*
X4826000Y-14153831D01*
X4950776Y-14209619D01*
X6120395Y-13040000D01*
X6479605Y-13040000D01*
X7649224Y-14209619D01*
X7944312Y-14077683D01*
X8115159Y-13736955D01*
X8216250Y-13369443D01*
X8243701Y-12989271D01*
X8196457Y-12611049D01*
X8076333Y-12249310D01*
X7944312Y-12002317D01*
X7649224Y-11870381D01*
X6479605Y-13040000D01*
X6120395Y-13040000D01*
X4950776Y-11870381D01*
X4826000Y-11926169D01*
X4826000Y-11690776D01*
X5130381Y-11690776D01*
X6300000Y-12860395D01*
X7469619Y-11690776D01*
X7337683Y-11395688D01*
X6996955Y-11224841D01*
X6629443Y-11123750D01*
X6249271Y-11096299D01*
X5871049Y-11143543D01*
X5509310Y-11263667D01*
X5262317Y-11395688D01*
X5130381Y-11690776D01*
X4826000Y-11690776D01*
X4826000Y-9389224D01*
X5130381Y-9389224D01*
X5262317Y-9684312D01*
X5603045Y-9855159D01*
X5970557Y-9956250D01*
X6350729Y-9983701D01*
X6728951Y-9936457D01*
X7090690Y-9816333D01*
X7337683Y-9684312D01*
X7469619Y-9389224D01*
X6300000Y-8219605D01*
X5130381Y-9389224D01*
X4826000Y-9389224D01*
X4826000Y-9153831D01*
X4950776Y-9209619D01*
X6120395Y-8040000D01*
X6479605Y-8040000D01*
X7649224Y-9209619D01*
X7944312Y-9077683D01*
X8115159Y-8736955D01*
X8216250Y-8369443D01*
X8243701Y-7989271D01*
X8196457Y-7611049D01*
X8076333Y-7249310D01*
X7944312Y-7002317D01*
X7649224Y-6870381D01*
X6479605Y-8040000D01*
X6120395Y-8040000D01*
X4950776Y-6870381D01*
X4826000Y-6926169D01*
X4826000Y-6690776D01*
X5130381Y-6690776D01*
X6300000Y-7860395D01*
X7469619Y-6690776D01*
X7337683Y-6395688D01*
X6996955Y-6224841D01*
X6629443Y-6123750D01*
X6249271Y-6096299D01*
X5871049Y-6143543D01*
X5509310Y-6263667D01*
X5262317Y-6395688D01*
X5130381Y-6690776D01*
X4826000Y-6690776D01*
X4826000Y-5842000D01*
X8509000Y-5842000D01*
X8509000Y-35433000D01*
G04 #@! TA.AperFunction,Conductor*
D17*
G36*
X8509000Y-35433000D02*
G01*
X4826000Y-35433000D01*
X4826000Y-34389224D01*
X5130381Y-34389224D01*
X5262317Y-34684312D01*
X5603045Y-34855159D01*
X5970557Y-34956250D01*
X6350729Y-34983701D01*
X6728951Y-34936457D01*
X7090690Y-34816333D01*
X7337683Y-34684312D01*
X7469619Y-34389224D01*
X6300000Y-33219605D01*
X5130381Y-34389224D01*
X4826000Y-34389224D01*
X4826000Y-34153831D01*
X4950776Y-34209619D01*
X6120395Y-33040000D01*
X6479605Y-33040000D01*
X7649224Y-34209619D01*
X7944312Y-34077683D01*
X8115159Y-33736955D01*
X8216250Y-33369443D01*
X8243701Y-32989271D01*
X8196457Y-32611049D01*
X8076333Y-32249310D01*
X7944312Y-32002317D01*
X7649224Y-31870381D01*
X6479605Y-33040000D01*
X6120395Y-33040000D01*
X4950776Y-31870381D01*
X4826000Y-31926169D01*
X4826000Y-31690776D01*
X5130381Y-31690776D01*
X6300000Y-32860395D01*
X7469619Y-31690776D01*
X7337683Y-31395688D01*
X6996955Y-31224841D01*
X6629443Y-31123750D01*
X6249271Y-31096299D01*
X5871049Y-31143543D01*
X5509310Y-31263667D01*
X5262317Y-31395688D01*
X5130381Y-31690776D01*
X4826000Y-31690776D01*
X4826000Y-29389224D01*
X5130381Y-29389224D01*
X5262317Y-29684312D01*
X5603045Y-29855159D01*
X5970557Y-29956250D01*
X6350729Y-29983701D01*
X6728951Y-29936457D01*
X7090690Y-29816333D01*
X7337683Y-29684312D01*
X7469619Y-29389224D01*
X6300000Y-28219605D01*
X5130381Y-29389224D01*
X4826000Y-29389224D01*
X4826000Y-29153831D01*
X4950776Y-29209619D01*
X6120395Y-28040000D01*
X6479605Y-28040000D01*
X7649224Y-29209619D01*
X7944312Y-29077683D01*
X8115159Y-28736955D01*
X8216250Y-28369443D01*
X8243701Y-27989271D01*
X8196457Y-27611049D01*
X8076333Y-27249310D01*
X7944312Y-27002317D01*
X7649224Y-26870381D01*
X6479605Y-28040000D01*
X6120395Y-28040000D01*
X4950776Y-26870381D01*
X4826000Y-26926169D01*
X4826000Y-26690776D01*
X5130381Y-26690776D01*
X6300000Y-27860395D01*
X7469619Y-26690776D01*
X7337683Y-26395688D01*
X6996955Y-26224841D01*
X6629443Y-26123750D01*
X6249271Y-26096299D01*
X5871049Y-26143543D01*
X5509310Y-26263667D01*
X5262317Y-26395688D01*
X5130381Y-26690776D01*
X4826000Y-26690776D01*
X4826000Y-24389224D01*
X5130381Y-24389224D01*
X5262317Y-24684312D01*
X5603045Y-24855159D01*
X5970557Y-24956250D01*
X6350729Y-24983701D01*
X6728951Y-24936457D01*
X7090690Y-24816333D01*
X7337683Y-24684312D01*
X7469619Y-24389224D01*
X6300000Y-23219605D01*
X5130381Y-24389224D01*
X4826000Y-24389224D01*
X4826000Y-24153831D01*
X4950776Y-24209619D01*
X6120395Y-23040000D01*
X6479605Y-23040000D01*
X7649224Y-24209619D01*
X7944312Y-24077683D01*
X8115159Y-23736955D01*
X8216250Y-23369443D01*
X8243701Y-22989271D01*
X8196457Y-22611049D01*
X8076333Y-22249310D01*
X7944312Y-22002317D01*
X7649224Y-21870381D01*
X6479605Y-23040000D01*
X6120395Y-23040000D01*
X4950776Y-21870381D01*
X4826000Y-21926169D01*
X4826000Y-21690776D01*
X5130381Y-21690776D01*
X6300000Y-22860395D01*
X7469619Y-21690776D01*
X7337683Y-21395688D01*
X6996955Y-21224841D01*
X6629443Y-21123750D01*
X6249271Y-21096299D01*
X5871049Y-21143543D01*
X5509310Y-21263667D01*
X5262317Y-21395688D01*
X5130381Y-21690776D01*
X4826000Y-21690776D01*
X4826000Y-19389224D01*
X5130381Y-19389224D01*
X5262317Y-19684312D01*
X5603045Y-19855159D01*
X5970557Y-19956250D01*
X6350729Y-19983701D01*
X6728951Y-19936457D01*
X7090690Y-19816333D01*
X7337683Y-19684312D01*
X7469619Y-19389224D01*
X6300000Y-18219605D01*
X5130381Y-19389224D01*
X4826000Y-19389224D01*
X4826000Y-19153831D01*
X4950776Y-19209619D01*
X6120395Y-18040000D01*
X6479605Y-18040000D01*
X7649224Y-19209619D01*
X7944312Y-19077683D01*
X8115159Y-18736955D01*
X8216250Y-18369443D01*
X8243701Y-17989271D01*
X8196457Y-17611049D01*
X8076333Y-17249310D01*
X7944312Y-17002317D01*
X7649224Y-16870381D01*
X6479605Y-18040000D01*
X6120395Y-18040000D01*
X4950776Y-16870381D01*
X4826000Y-16926169D01*
X4826000Y-16690776D01*
X5130381Y-16690776D01*
X6300000Y-17860395D01*
X7469619Y-16690776D01*
X7337683Y-16395688D01*
X6996955Y-16224841D01*
X6629443Y-16123750D01*
X6249271Y-16096299D01*
X5871049Y-16143543D01*
X5509310Y-16263667D01*
X5262317Y-16395688D01*
X5130381Y-16690776D01*
X4826000Y-16690776D01*
X4826000Y-14389224D01*
X5130381Y-14389224D01*
X5262317Y-14684312D01*
X5603045Y-14855159D01*
X5970557Y-14956250D01*
X6350729Y-14983701D01*
X6728951Y-14936457D01*
X7090690Y-14816333D01*
X7337683Y-14684312D01*
X7469619Y-14389224D01*
X6300000Y-13219605D01*
X5130381Y-14389224D01*
X4826000Y-14389224D01*
X4826000Y-14153831D01*
X4950776Y-14209619D01*
X6120395Y-13040000D01*
X6479605Y-13040000D01*
X7649224Y-14209619D01*
X7944312Y-14077683D01*
X8115159Y-13736955D01*
X8216250Y-13369443D01*
X8243701Y-12989271D01*
X8196457Y-12611049D01*
X8076333Y-12249310D01*
X7944312Y-12002317D01*
X7649224Y-11870381D01*
X6479605Y-13040000D01*
X6120395Y-13040000D01*
X4950776Y-11870381D01*
X4826000Y-11926169D01*
X4826000Y-11690776D01*
X5130381Y-11690776D01*
X6300000Y-12860395D01*
X7469619Y-11690776D01*
X7337683Y-11395688D01*
X6996955Y-11224841D01*
X6629443Y-11123750D01*
X6249271Y-11096299D01*
X5871049Y-11143543D01*
X5509310Y-11263667D01*
X5262317Y-11395688D01*
X5130381Y-11690776D01*
X4826000Y-11690776D01*
X4826000Y-9389224D01*
X5130381Y-9389224D01*
X5262317Y-9684312D01*
X5603045Y-9855159D01*
X5970557Y-9956250D01*
X6350729Y-9983701D01*
X6728951Y-9936457D01*
X7090690Y-9816333D01*
X7337683Y-9684312D01*
X7469619Y-9389224D01*
X6300000Y-8219605D01*
X5130381Y-9389224D01*
X4826000Y-9389224D01*
X4826000Y-9153831D01*
X4950776Y-9209619D01*
X6120395Y-8040000D01*
X6479605Y-8040000D01*
X7649224Y-9209619D01*
X7944312Y-9077683D01*
X8115159Y-8736955D01*
X8216250Y-8369443D01*
X8243701Y-7989271D01*
X8196457Y-7611049D01*
X8076333Y-7249310D01*
X7944312Y-7002317D01*
X7649224Y-6870381D01*
X6479605Y-8040000D01*
X6120395Y-8040000D01*
X4950776Y-6870381D01*
X4826000Y-6926169D01*
X4826000Y-6690776D01*
X5130381Y-6690776D01*
X6300000Y-7860395D01*
X7469619Y-6690776D01*
X7337683Y-6395688D01*
X6996955Y-6224841D01*
X6629443Y-6123750D01*
X6249271Y-6096299D01*
X5871049Y-6143543D01*
X5509310Y-6263667D01*
X5262317Y-6395688D01*
X5130381Y-6690776D01*
X4826000Y-6690776D01*
X4826000Y-5842000D01*
X8509000Y-5842000D01*
X8509000Y-35433000D01*
G37*
G04 #@! TD.AperFunction*
G04 #@! TD*
D16*
G04 #@! TO.N,GND*
X2161000Y-37897956D02*
X2006241Y-38001363D01*
X1806363Y-38201241D01*
X1649320Y-38436273D01*
X1541147Y-38697426D01*
X1486000Y-38974665D01*
X1486000Y-39257335D01*
X1541147Y-39534574D01*
X1649320Y-39795727D01*
X1806363Y-40030759D01*
X2006241Y-40230637D01*
X2241273Y-40387680D01*
X2502426Y-40495853D01*
X2779665Y-40551000D01*
X3062335Y-40551000D01*
X3339574Y-40495853D01*
X3600727Y-40387680D01*
X3835759Y-40230637D01*
X4035637Y-40030759D01*
X4192680Y-39795727D01*
X4300853Y-39534574D01*
X4356000Y-39257335D01*
X4356000Y-38974665D01*
X4300853Y-38697426D01*
X4192680Y-38436273D01*
X4035637Y-38201241D01*
X3835759Y-38001363D01*
X3681000Y-37897957D01*
X3681000Y-36322000D01*
X8257001Y-36322000D01*
X8257000Y-37897956D01*
X8102241Y-38001363D01*
X7902363Y-38201241D01*
X7745320Y-38436273D01*
X7637147Y-38697426D01*
X7582000Y-38974665D01*
X7582000Y-39257335D01*
X7637147Y-39534574D01*
X7745320Y-39795727D01*
X7902363Y-40030759D01*
X8102241Y-40230637D01*
X8337273Y-40387680D01*
X8598426Y-40495853D01*
X8875665Y-40551000D01*
X9158335Y-40551000D01*
X9435574Y-40495853D01*
X9696727Y-40387680D01*
X9931759Y-40230637D01*
X10131637Y-40030759D01*
X10288680Y-39795727D01*
X10396853Y-39534574D01*
X10452000Y-39257335D01*
X10452000Y-38974665D01*
X10396853Y-38697426D01*
X10288680Y-38436273D01*
X10131637Y-38201241D01*
X9931759Y-38001363D01*
X9777000Y-37897957D01*
X9777000Y-36322000D01*
X14099000Y-36322000D01*
X14099000Y-37897956D01*
X13944241Y-38001363D01*
X13744363Y-38201241D01*
X13587320Y-38436273D01*
X13479147Y-38697426D01*
X13424000Y-38974665D01*
X13424000Y-39257335D01*
X13479147Y-39534574D01*
X13587320Y-39795727D01*
X13744363Y-40030759D01*
X13944241Y-40230637D01*
X14179273Y-40387680D01*
X14440426Y-40495853D01*
X14717665Y-40551000D01*
X15000335Y-40551000D01*
X15277574Y-40495853D01*
X15538727Y-40387680D01*
X15773759Y-40230637D01*
X15973637Y-40030759D01*
X16130680Y-39795727D01*
X16238853Y-39534574D01*
X16294000Y-39257335D01*
X16294000Y-38974665D01*
X16238853Y-38697426D01*
X16130680Y-38436273D01*
X15973637Y-38201241D01*
X15773759Y-38001363D01*
X15619000Y-37897957D01*
X15619000Y-36322000D01*
X17120000Y-36322000D01*
X17120000Y-51110392D01*
X17044474Y-51185918D01*
X16960792Y-50931739D01*
X16688225Y-50800842D01*
X16395358Y-50725635D01*
X16093447Y-50709009D01*
X15794093Y-50751603D01*
X15508801Y-50851778D01*
X15359208Y-50931739D01*
X15275526Y-51185918D01*
X15159578Y-51069970D01*
X15112813Y-51116735D01*
X15109502Y-51105820D01*
X15050537Y-50995506D01*
X14971185Y-50898815D01*
X14874494Y-50819463D01*
X14764180Y-50760498D01*
X14644482Y-50724188D01*
X14520000Y-50711928D01*
X14380000Y-50711928D01*
X14380000Y-48289801D01*
X14535114Y-48134688D01*
X14717665Y-48171000D01*
X15000335Y-48171000D01*
X15277574Y-48115853D01*
X15538727Y-48007680D01*
X15773759Y-47850637D01*
X15973637Y-47650759D01*
X16130680Y-47415727D01*
X16238853Y-47154574D01*
X16294000Y-46877335D01*
X16294000Y-46594665D01*
X16238853Y-46317426D01*
X16130680Y-46056273D01*
X15973637Y-45821241D01*
X15773759Y-45621363D01*
X15538727Y-45464320D01*
X15277574Y-45356147D01*
X15000335Y-45301000D01*
X14717665Y-45301000D01*
X14440426Y-45356147D01*
X14179273Y-45464320D01*
X13944241Y-45621363D01*
X13744363Y-45821241D01*
X13587320Y-46056273D01*
X13479147Y-46317426D01*
X13424000Y-46594665D01*
X13424000Y-46877335D01*
X13460312Y-47059886D01*
X13108998Y-47411201D01*
X13080000Y-47434999D01*
X13056202Y-47463997D01*
X13056201Y-47463998D01*
X12985026Y-47550724D01*
X12914454Y-47682754D01*
X12870998Y-47826015D01*
X12856324Y-47975000D01*
X12860001Y-48012332D01*
X12860000Y-50711928D01*
X12720000Y-50711928D01*
X12595518Y-50724188D01*
X12475820Y-50760498D01*
X12365506Y-50819463D01*
X12268815Y-50898815D01*
X12189463Y-50995506D01*
X12130498Y-51105820D01*
X12094188Y-51225518D01*
X12081928Y-51350000D01*
X12081928Y-53150000D01*
X12094188Y-53274482D01*
X12130498Y-53394180D01*
X12189463Y-53504494D01*
X12268815Y-53601185D01*
X12365506Y-53680537D01*
X12475820Y-53739502D01*
X12595518Y-53775812D01*
X12720000Y-53788072D01*
X14520000Y-53788072D01*
X14644482Y-53775812D01*
X14764180Y-53739502D01*
X14874494Y-53680537D01*
X14971185Y-53601185D01*
X15050537Y-53504494D01*
X15109502Y-53394180D01*
X15112813Y-53383265D01*
X15159578Y-53430030D01*
X15275526Y-53314082D01*
X15359208Y-53568261D01*
X15631775Y-53699158D01*
X15924642Y-53774365D01*
X16226553Y-53790991D01*
X16525907Y-53748397D01*
X16811199Y-53648222D01*
X16960792Y-53568261D01*
X17044474Y-53314082D01*
X17120000Y-53389608D01*
X17120000Y-55753000D01*
X660000Y-55753000D01*
X660000Y-53782163D01*
X720000Y-53788072D01*
X1334250Y-53785000D01*
X1493000Y-53626250D01*
X1493000Y-52377000D01*
X1473000Y-52377000D01*
X1473000Y-52123000D01*
X1493000Y-52123000D01*
X1493000Y-50873750D01*
X1334250Y-50715000D01*
X720000Y-50711928D01*
X660000Y-50717837D01*
X660000Y-46594665D01*
X1486000Y-46594665D01*
X1486000Y-46877335D01*
X1541147Y-47154574D01*
X1649320Y-47415727D01*
X1806363Y-47650759D01*
X2006241Y-47850637D01*
X2241273Y-48007680D01*
X2502426Y-48115853D01*
X2779665Y-48171000D01*
X3062335Y-48171000D01*
X3244886Y-48134688D01*
X3400001Y-48289803D01*
X3400000Y-50911687D01*
X3181495Y-51057688D01*
X3115056Y-51124127D01*
X3109502Y-51105820D01*
X3050537Y-50995506D01*
X2971185Y-50898815D01*
X2874494Y-50819463D01*
X2764180Y-50760498D01*
X2644482Y-50724188D01*
X2520000Y-50711928D01*
X1905750Y-50715000D01*
X1747000Y-50873750D01*
X1747000Y-52123000D01*
X1767000Y-52123000D01*
X1767000Y-52377000D01*
X1747000Y-52377000D01*
X1747000Y-53626250D01*
X1905750Y-53785000D01*
X2520000Y-53788072D01*
X2644482Y-53775812D01*
X2764180Y-53739502D01*
X2874494Y-53680537D01*
X2971185Y-53601185D01*
X3050537Y-53504494D01*
X3109502Y-53394180D01*
X3115056Y-53375873D01*
X3181495Y-53442312D01*
X3432905Y-53610299D01*
X3712257Y-53726011D01*
X4008816Y-53785000D01*
X4311184Y-53785000D01*
X4607743Y-53726011D01*
X4887095Y-53610299D01*
X5138505Y-53442312D01*
X5352312Y-53228505D01*
X5404767Y-53150000D01*
X6081928Y-53150000D01*
X6094188Y-53274482D01*
X6130498Y-53394180D01*
X6189463Y-53504494D01*
X6268815Y-53601185D01*
X6365506Y-53680537D01*
X6475820Y-53739502D01*
X6595518Y-53775812D01*
X6720000Y-53788072D01*
X7334250Y-53785000D01*
X7493000Y-53626250D01*
X7493000Y-52377000D01*
X6243750Y-52377000D01*
X6085000Y-52535750D01*
X6081928Y-53150000D01*
X5404767Y-53150000D01*
X5520299Y-52977095D01*
X5636011Y-52697743D01*
X5695000Y-52401184D01*
X5695000Y-52098816D01*
X5636011Y-51802257D01*
X5520299Y-51522905D01*
X5404768Y-51350000D01*
X6081928Y-51350000D01*
X6085000Y-51964250D01*
X6243750Y-52123000D01*
X7493000Y-52123000D01*
X7493000Y-50873750D01*
X7334250Y-50715000D01*
X6720000Y-50711928D01*
X6595518Y-50724188D01*
X6475820Y-50760498D01*
X6365506Y-50819463D01*
X6268815Y-50898815D01*
X6189463Y-50995506D01*
X6130498Y-51105820D01*
X6094188Y-51225518D01*
X6081928Y-51350000D01*
X5404768Y-51350000D01*
X5352312Y-51271495D01*
X5138505Y-51057688D01*
X4920000Y-50911687D01*
X4920000Y-48012333D01*
X4923677Y-47975000D01*
X4909003Y-47826014D01*
X4865546Y-47682753D01*
X4794974Y-47550724D01*
X4723799Y-47463997D01*
X4700001Y-47434999D01*
X4671003Y-47411201D01*
X4319688Y-47059886D01*
X4356000Y-46877335D01*
X4356000Y-46594665D01*
X7582000Y-46594665D01*
X7582000Y-46877335D01*
X7637147Y-47154574D01*
X7745320Y-47415727D01*
X7902363Y-47650759D01*
X8102241Y-47850637D01*
X8337273Y-48007680D01*
X8598426Y-48115853D01*
X8875665Y-48171000D01*
X9158335Y-48171000D01*
X9340886Y-48134688D01*
X9400001Y-48193803D01*
X9400000Y-50911687D01*
X9181495Y-51057688D01*
X9115056Y-51124127D01*
X9109502Y-51105820D01*
X9050537Y-50995506D01*
X8971185Y-50898815D01*
X8874494Y-50819463D01*
X8764180Y-50760498D01*
X8644482Y-50724188D01*
X8520000Y-50711928D01*
X7905750Y-50715000D01*
X7747000Y-50873750D01*
X7747000Y-52123000D01*
X7767000Y-52123000D01*
X7767000Y-52377000D01*
X7747000Y-52377000D01*
X7747000Y-53626250D01*
X7905750Y-53785000D01*
X8520000Y-53788072D01*
X8644482Y-53775812D01*
X8764180Y-53739502D01*
X8874494Y-53680537D01*
X8971185Y-53601185D01*
X9050537Y-53504494D01*
X9109502Y-53394180D01*
X9115056Y-53375873D01*
X9181495Y-53442312D01*
X9432905Y-53610299D01*
X9712257Y-53726011D01*
X10008816Y-53785000D01*
X10311184Y-53785000D01*
X10607743Y-53726011D01*
X10887095Y-53610299D01*
X11138505Y-53442312D01*
X11352312Y-53228505D01*
X11520299Y-52977095D01*
X11636011Y-52697743D01*
X11695000Y-52401184D01*
X11695000Y-52098816D01*
X11636011Y-51802257D01*
X11520299Y-51522905D01*
X11352312Y-51271495D01*
X11138505Y-51057688D01*
X10920000Y-50911687D01*
X10920000Y-47916322D01*
X10923676Y-47878999D01*
X10920000Y-47841676D01*
X10920000Y-47841667D01*
X10909003Y-47730014D01*
X10865546Y-47586753D01*
X10846288Y-47550724D01*
X10794974Y-47454723D01*
X10723799Y-47367997D01*
X10700001Y-47338999D01*
X10671003Y-47315201D01*
X10415688Y-47059886D01*
X10452000Y-46877335D01*
X10452000Y-46594665D01*
X10396853Y-46317426D01*
X10288680Y-46056273D01*
X10131637Y-45821241D01*
X9931759Y-45621363D01*
X9696727Y-45464320D01*
X9435574Y-45356147D01*
X9158335Y-45301000D01*
X8875665Y-45301000D01*
X8598426Y-45356147D01*
X8337273Y-45464320D01*
X8102241Y-45621363D01*
X7902363Y-45821241D01*
X7745320Y-46056273D01*
X7637147Y-46317426D01*
X7582000Y-46594665D01*
X4356000Y-46594665D01*
X4300853Y-46317426D01*
X4192680Y-46056273D01*
X4035637Y-45821241D01*
X3835759Y-45621363D01*
X3600727Y-45464320D01*
X3339574Y-45356147D01*
X3062335Y-45301000D01*
X2779665Y-45301000D01*
X2502426Y-45356147D01*
X2241273Y-45464320D01*
X2006241Y-45621363D01*
X1806363Y-45821241D01*
X1649320Y-46056273D01*
X1541147Y-46317426D01*
X1486000Y-46594665D01*
X660000Y-46594665D01*
X660000Y-36322000D01*
X2161000Y-36322000D01*
X2161000Y-37897956D01*
G04 #@! TA.AperFunction,Conductor*
D17*
G36*
X2161000Y-37897956D02*
G01*
X2006241Y-38001363D01*
X1806363Y-38201241D01*
X1649320Y-38436273D01*
X1541147Y-38697426D01*
X1486000Y-38974665D01*
X1486000Y-39257335D01*
X1541147Y-39534574D01*
X1649320Y-39795727D01*
X1806363Y-40030759D01*
X2006241Y-40230637D01*
X2241273Y-40387680D01*
X2502426Y-40495853D01*
X2779665Y-40551000D01*
X3062335Y-40551000D01*
X3339574Y-40495853D01*
X3600727Y-40387680D01*
X3835759Y-40230637D01*
X4035637Y-40030759D01*
X4192680Y-39795727D01*
X4300853Y-39534574D01*
X4356000Y-39257335D01*
X4356000Y-38974665D01*
X4300853Y-38697426D01*
X4192680Y-38436273D01*
X4035637Y-38201241D01*
X3835759Y-38001363D01*
X3681000Y-37897957D01*
X3681000Y-36322000D01*
X8257001Y-36322000D01*
X8257000Y-37897956D01*
X8102241Y-38001363D01*
X7902363Y-38201241D01*
X7745320Y-38436273D01*
X7637147Y-38697426D01*
X7582000Y-38974665D01*
X7582000Y-39257335D01*
X7637147Y-39534574D01*
X7745320Y-39795727D01*
X7902363Y-40030759D01*
X8102241Y-40230637D01*
X8337273Y-40387680D01*
X8598426Y-40495853D01*
X8875665Y-40551000D01*
X9158335Y-40551000D01*
X9435574Y-40495853D01*
X9696727Y-40387680D01*
X9931759Y-40230637D01*
X10131637Y-40030759D01*
X10288680Y-39795727D01*
X10396853Y-39534574D01*
X10452000Y-39257335D01*
X10452000Y-38974665D01*
X10396853Y-38697426D01*
X10288680Y-38436273D01*
X10131637Y-38201241D01*
X9931759Y-38001363D01*
X9777000Y-37897957D01*
X9777000Y-36322000D01*
X14099000Y-36322000D01*
X14099000Y-37897956D01*
X13944241Y-38001363D01*
X13744363Y-38201241D01*
X13587320Y-38436273D01*
X13479147Y-38697426D01*
X13424000Y-38974665D01*
X13424000Y-39257335D01*
X13479147Y-39534574D01*
X13587320Y-39795727D01*
X13744363Y-40030759D01*
X13944241Y-40230637D01*
X14179273Y-40387680D01*
X14440426Y-40495853D01*
X14717665Y-40551000D01*
X15000335Y-40551000D01*
X15277574Y-40495853D01*
X15538727Y-40387680D01*
X15773759Y-40230637D01*
X15973637Y-40030759D01*
X16130680Y-39795727D01*
X16238853Y-39534574D01*
X16294000Y-39257335D01*
X16294000Y-38974665D01*
X16238853Y-38697426D01*
X16130680Y-38436273D01*
X15973637Y-38201241D01*
X15773759Y-38001363D01*
X15619000Y-37897957D01*
X15619000Y-36322000D01*
X17120000Y-36322000D01*
X17120000Y-51110392D01*
X17044474Y-51185918D01*
X16960792Y-50931739D01*
X16688225Y-50800842D01*
X16395358Y-50725635D01*
X16093447Y-50709009D01*
X15794093Y-50751603D01*
X15508801Y-50851778D01*
X15359208Y-50931739D01*
X15275526Y-51185918D01*
X15159578Y-51069970D01*
X15112813Y-51116735D01*
X15109502Y-51105820D01*
X15050537Y-50995506D01*
X14971185Y-50898815D01*
X14874494Y-50819463D01*
X14764180Y-50760498D01*
X14644482Y-50724188D01*
X14520000Y-50711928D01*
X14380000Y-50711928D01*
X14380000Y-48289801D01*
X14535114Y-48134688D01*
X14717665Y-48171000D01*
X15000335Y-48171000D01*
X15277574Y-48115853D01*
X15538727Y-48007680D01*
X15773759Y-47850637D01*
X15973637Y-47650759D01*
X16130680Y-47415727D01*
X16238853Y-47154574D01*
X16294000Y-46877335D01*
X16294000Y-46594665D01*
X16238853Y-46317426D01*
X16130680Y-46056273D01*
X15973637Y-45821241D01*
X15773759Y-45621363D01*
X15538727Y-45464320D01*
X15277574Y-45356147D01*
X15000335Y-45301000D01*
X14717665Y-45301000D01*
X14440426Y-45356147D01*
X14179273Y-45464320D01*
X13944241Y-45621363D01*
X13744363Y-45821241D01*
X13587320Y-46056273D01*
X13479147Y-46317426D01*
X13424000Y-46594665D01*
X13424000Y-46877335D01*
X13460312Y-47059886D01*
X13108998Y-47411201D01*
X13080000Y-47434999D01*
X13056202Y-47463997D01*
X13056201Y-47463998D01*
X12985026Y-47550724D01*
X12914454Y-47682754D01*
X12870998Y-47826015D01*
X12856324Y-47975000D01*
X12860001Y-48012332D01*
X12860000Y-50711928D01*
X12720000Y-50711928D01*
X12595518Y-50724188D01*
X12475820Y-50760498D01*
X12365506Y-50819463D01*
X12268815Y-50898815D01*
X12189463Y-50995506D01*
X12130498Y-51105820D01*
X12094188Y-51225518D01*
X12081928Y-51350000D01*
X12081928Y-53150000D01*
X12094188Y-53274482D01*
X12130498Y-53394180D01*
X12189463Y-53504494D01*
X12268815Y-53601185D01*
X12365506Y-53680537D01*
X12475820Y-53739502D01*
X12595518Y-53775812D01*
X12720000Y-53788072D01*
X14520000Y-53788072D01*
X14644482Y-53775812D01*
X14764180Y-53739502D01*
X14874494Y-53680537D01*
X14971185Y-53601185D01*
X15050537Y-53504494D01*
X15109502Y-53394180D01*
X15112813Y-53383265D01*
X15159578Y-53430030D01*
X15275526Y-53314082D01*
X15359208Y-53568261D01*
X15631775Y-53699158D01*
X15924642Y-53774365D01*
X16226553Y-53790991D01*
X16525907Y-53748397D01*
X16811199Y-53648222D01*
X16960792Y-53568261D01*
X17044474Y-53314082D01*
X17120000Y-53389608D01*
X17120000Y-55753000D01*
X660000Y-55753000D01*
X660000Y-53782163D01*
X720000Y-53788072D01*
X1334250Y-53785000D01*
X1493000Y-53626250D01*
X1493000Y-52377000D01*
X1473000Y-52377000D01*
X1473000Y-52123000D01*
X1493000Y-52123000D01*
X1493000Y-50873750D01*
X1334250Y-50715000D01*
X720000Y-50711928D01*
X660000Y-50717837D01*
X660000Y-46594665D01*
X1486000Y-46594665D01*
X1486000Y-46877335D01*
X1541147Y-47154574D01*
X1649320Y-47415727D01*
X1806363Y-47650759D01*
X2006241Y-47850637D01*
X2241273Y-48007680D01*
X2502426Y-48115853D01*
X2779665Y-48171000D01*
X3062335Y-48171000D01*
X3244886Y-48134688D01*
X3400001Y-48289803D01*
X3400000Y-50911687D01*
X3181495Y-51057688D01*
X3115056Y-51124127D01*
X3109502Y-51105820D01*
X3050537Y-50995506D01*
X2971185Y-50898815D01*
X2874494Y-50819463D01*
X2764180Y-50760498D01*
X2644482Y-50724188D01*
X2520000Y-50711928D01*
X1905750Y-50715000D01*
X1747000Y-50873750D01*
X1747000Y-52123000D01*
X1767000Y-52123000D01*
X1767000Y-52377000D01*
X1747000Y-52377000D01*
X1747000Y-53626250D01*
X1905750Y-53785000D01*
X2520000Y-53788072D01*
X2644482Y-53775812D01*
X2764180Y-53739502D01*
X2874494Y-53680537D01*
X2971185Y-53601185D01*
X3050537Y-53504494D01*
X3109502Y-53394180D01*
X3115056Y-53375873D01*
X3181495Y-53442312D01*
X3432905Y-53610299D01*
X3712257Y-53726011D01*
X4008816Y-53785000D01*
X4311184Y-53785000D01*
X4607743Y-53726011D01*
X4887095Y-53610299D01*
X5138505Y-53442312D01*
X5352312Y-53228505D01*
X5404767Y-53150000D01*
X6081928Y-53150000D01*
X6094188Y-53274482D01*
X6130498Y-53394180D01*
X6189463Y-53504494D01*
X6268815Y-53601185D01*
X6365506Y-53680537D01*
X6475820Y-53739502D01*
X6595518Y-53775812D01*
X6720000Y-53788072D01*
X7334250Y-53785000D01*
X7493000Y-53626250D01*
X7493000Y-52377000D01*
X6243750Y-52377000D01*
X6085000Y-52535750D01*
X6081928Y-53150000D01*
X5404767Y-53150000D01*
X5520299Y-52977095D01*
X5636011Y-52697743D01*
X5695000Y-52401184D01*
X5695000Y-52098816D01*
X5636011Y-51802257D01*
X5520299Y-51522905D01*
X5404768Y-51350000D01*
X6081928Y-51350000D01*
X6085000Y-51964250D01*
X6243750Y-52123000D01*
X7493000Y-52123000D01*
X7493000Y-50873750D01*
X7334250Y-50715000D01*
X6720000Y-50711928D01*
X6595518Y-50724188D01*
X6475820Y-50760498D01*
X6365506Y-50819463D01*
X6268815Y-50898815D01*
X6189463Y-50995506D01*
X6130498Y-51105820D01*
X6094188Y-51225518D01*
X6081928Y-51350000D01*
X5404768Y-51350000D01*
X5352312Y-51271495D01*
X5138505Y-51057688D01*
X4920000Y-50911687D01*
X4920000Y-48012333D01*
X4923677Y-47975000D01*
X4909003Y-47826014D01*
X4865546Y-47682753D01*
X4794974Y-47550724D01*
X4723799Y-47463997D01*
X4700001Y-47434999D01*
X4671003Y-47411201D01*
X4319688Y-47059886D01*
X4356000Y-46877335D01*
X4356000Y-46594665D01*
X7582000Y-46594665D01*
X7582000Y-46877335D01*
X7637147Y-47154574D01*
X7745320Y-47415727D01*
X7902363Y-47650759D01*
X8102241Y-47850637D01*
X8337273Y-48007680D01*
X8598426Y-48115853D01*
X8875665Y-48171000D01*
X9158335Y-48171000D01*
X9340886Y-48134688D01*
X9400001Y-48193803D01*
X9400000Y-50911687D01*
X9181495Y-51057688D01*
X9115056Y-51124127D01*
X9109502Y-51105820D01*
X9050537Y-50995506D01*
X8971185Y-50898815D01*
X8874494Y-50819463D01*
X8764180Y-50760498D01*
X8644482Y-50724188D01*
X8520000Y-50711928D01*
X7905750Y-50715000D01*
X7747000Y-50873750D01*
X7747000Y-52123000D01*
X7767000Y-52123000D01*
X7767000Y-52377000D01*
X7747000Y-52377000D01*
X7747000Y-53626250D01*
X7905750Y-53785000D01*
X8520000Y-53788072D01*
X8644482Y-53775812D01*
X8764180Y-53739502D01*
X8874494Y-53680537D01*
X8971185Y-53601185D01*
X9050537Y-53504494D01*
X9109502Y-53394180D01*
X9115056Y-53375873D01*
X9181495Y-53442312D01*
X9432905Y-53610299D01*
X9712257Y-53726011D01*
X10008816Y-53785000D01*
X10311184Y-53785000D01*
X10607743Y-53726011D01*
X10887095Y-53610299D01*
X11138505Y-53442312D01*
X11352312Y-53228505D01*
X11520299Y-52977095D01*
X11636011Y-52697743D01*
X11695000Y-52401184D01*
X11695000Y-52098816D01*
X11636011Y-51802257D01*
X11520299Y-51522905D01*
X11352312Y-51271495D01*
X11138505Y-51057688D01*
X10920000Y-50911687D01*
X10920000Y-47916322D01*
X10923676Y-47878999D01*
X10920000Y-47841676D01*
X10920000Y-47841667D01*
X10909003Y-47730014D01*
X10865546Y-47586753D01*
X10846288Y-47550724D01*
X10794974Y-47454723D01*
X10723799Y-47367997D01*
X10700001Y-47338999D01*
X10671003Y-47315201D01*
X10415688Y-47059886D01*
X10452000Y-46877335D01*
X10452000Y-46594665D01*
X10396853Y-46317426D01*
X10288680Y-46056273D01*
X10131637Y-45821241D01*
X9931759Y-45621363D01*
X9696727Y-45464320D01*
X9435574Y-45356147D01*
X9158335Y-45301000D01*
X8875665Y-45301000D01*
X8598426Y-45356147D01*
X8337273Y-45464320D01*
X8102241Y-45621363D01*
X7902363Y-45821241D01*
X7745320Y-46056273D01*
X7637147Y-46317426D01*
X7582000Y-46594665D01*
X4356000Y-46594665D01*
X4300853Y-46317426D01*
X4192680Y-46056273D01*
X4035637Y-45821241D01*
X3835759Y-45621363D01*
X3600727Y-45464320D01*
X3339574Y-45356147D01*
X3062335Y-45301000D01*
X2779665Y-45301000D01*
X2502426Y-45356147D01*
X2241273Y-45464320D01*
X2006241Y-45621363D01*
X1806363Y-45821241D01*
X1649320Y-46056273D01*
X1541147Y-46317426D01*
X1486000Y-46594665D01*
X660000Y-46594665D01*
X660000Y-36322000D01*
X2161000Y-36322000D01*
X2161000Y-37897956D01*
G37*
G04 #@! TD.AperFunction*
D16*
X16353748Y-52235858D02*
X16339605Y-52250000D01*
X16353748Y-52264143D01*
X16174143Y-52443748D01*
X16160000Y-52429605D01*
X16145858Y-52443748D01*
X15966253Y-52264143D01*
X15980395Y-52250000D01*
X15966253Y-52235858D01*
X16145858Y-52056253D01*
X16160000Y-52070395D01*
X16174143Y-52056253D01*
X16353748Y-52235858D01*
G04 #@! TA.AperFunction,Conductor*
D17*
G36*
X16353748Y-52235858D02*
G01*
X16339605Y-52250000D01*
X16353748Y-52264143D01*
X16174143Y-52443748D01*
X16160000Y-52429605D01*
X16145858Y-52443748D01*
X15966253Y-52264143D01*
X15980395Y-52250000D01*
X15966253Y-52235858D01*
X16145858Y-52056253D01*
X16160000Y-52070395D01*
X16174143Y-52056253D01*
X16353748Y-52235858D01*
G37*
G04 #@! TD.AperFunction*
G04 #@! TD*
M02*
