G04 #@! TF.GenerationSoftware,KiCad,Pcbnew,(5.1.9)-1*
G04 #@! TF.CreationDate,2021-03-14T11:29:55+01:00*
G04 #@! TF.ProjectId,Single Attenuator,53696e67-6c65-4204-9174-74656e756174,rev?*
G04 #@! TF.SameCoordinates,Original*
G04 #@! TF.FileFunction,Copper,L1,Top*
G04 #@! TF.FilePolarity,Positive*
%FSLAX46Y46*%
G04 Gerber Fmt 4.6, Leading zero omitted, Abs format (unit mm)*
G04 Created by KiCad (PCBNEW (5.1.9)-1) date 2021-03-14 11:29:55*
%MOMM*%
%LPD*%
G01*
G04 APERTURE LIST*
G04 #@! TA.AperFunction,ComponentPad*
%ADD10O,1.400000X3.000000*%
G04 #@! TD*
G04 #@! TA.AperFunction,ComponentPad*
%ADD11C,3.000000*%
G04 #@! TD*
G04 #@! TA.AperFunction,ComponentPad*
%ADD12O,2.300000X1.300000*%
G04 #@! TD*
G04 #@! TA.AperFunction,Conductor*
%ADD13C,0.254000*%
G04 #@! TD*
G04 #@! TA.AperFunction,Conductor*
%ADD14C,0.100000*%
G04 #@! TD*
G04 APERTURE END LIST*
D10*
X1050000Y-86000000D03*
X6050000Y-86000000D03*
X1050000Y-16000000D03*
X3550000Y-16000000D03*
X6050000Y-16000000D03*
X8550000Y-16000000D03*
D11*
X4800000Y-73500000D03*
X4800000Y-26000000D03*
D12*
X4800000Y-1580000D03*
X4800000Y-9880000D03*
X4800000Y-12980000D03*
X4800000Y-100420000D03*
X4800000Y-92120000D03*
X4800000Y-89020000D03*
D13*
X7310653Y-17313353D02*
X7434618Y-17545274D01*
X7601445Y-17748555D01*
X7804725Y-17915382D01*
X8036646Y-18039347D01*
X8288294Y-18115683D01*
X8550000Y-18141459D01*
X8811705Y-18115683D01*
X8940000Y-18076765D01*
X8940001Y-101340000D01*
X6204533Y-101340000D01*
X6213028Y-101333028D01*
X6373608Y-101137362D01*
X6492929Y-100914127D01*
X6566407Y-100671904D01*
X6591217Y-100420000D01*
X6566407Y-100168096D01*
X6492929Y-99925873D01*
X6373608Y-99702638D01*
X6213028Y-99506972D01*
X6017362Y-99346392D01*
X5794127Y-99227071D01*
X5551904Y-99153593D01*
X5363123Y-99135000D01*
X4236877Y-99135000D01*
X4048096Y-99153593D01*
X3805873Y-99227071D01*
X3582638Y-99346392D01*
X3386972Y-99506972D01*
X3226392Y-99702638D01*
X3107071Y-99925873D01*
X3033593Y-100168096D01*
X3008783Y-100420000D01*
X3033593Y-100671904D01*
X3107071Y-100914127D01*
X3226392Y-101137362D01*
X3386972Y-101333028D01*
X3395467Y-101340000D01*
X660000Y-101340000D01*
X660000Y-95265098D01*
X2415000Y-95265098D01*
X2415000Y-95734902D01*
X2506654Y-96195679D01*
X2686440Y-96629721D01*
X2947450Y-97020349D01*
X3279651Y-97352550D01*
X3670279Y-97613560D01*
X4104321Y-97793346D01*
X4565098Y-97885000D01*
X5034902Y-97885000D01*
X5495679Y-97793346D01*
X5929721Y-97613560D01*
X6320349Y-97352550D01*
X6652550Y-97020349D01*
X6913560Y-96629721D01*
X7093346Y-96195679D01*
X7185000Y-95734902D01*
X7185000Y-95265098D01*
X7093346Y-94804321D01*
X6913560Y-94370279D01*
X6652550Y-93979651D01*
X6320349Y-93647450D01*
X5929721Y-93386440D01*
X5765135Y-93318266D01*
X5909081Y-93258585D01*
X6119505Y-93117882D01*
X6298436Y-92938830D01*
X6438997Y-92728311D01*
X6535787Y-92494415D01*
X6543099Y-92445471D01*
X6419067Y-92247000D01*
X4927000Y-92247000D01*
X4927000Y-92267000D01*
X4673000Y-92267000D01*
X4673000Y-92247000D01*
X3180933Y-92247000D01*
X3056901Y-92445471D01*
X3064213Y-92494415D01*
X3161003Y-92728311D01*
X3301564Y-92938830D01*
X3480495Y-93117882D01*
X3690919Y-93258585D01*
X3834865Y-93318266D01*
X3670279Y-93386440D01*
X3279651Y-93647450D01*
X2947450Y-93979651D01*
X2686440Y-94370279D01*
X2506654Y-94804321D01*
X2415000Y-95265098D01*
X660000Y-95265098D01*
X660000Y-91794529D01*
X3056901Y-91794529D01*
X3180933Y-91993000D01*
X4673000Y-91993000D01*
X4673000Y-90835000D01*
X4927000Y-90835000D01*
X4927000Y-91993000D01*
X6419067Y-91993000D01*
X6543099Y-91794529D01*
X6535787Y-91745585D01*
X6438997Y-91511689D01*
X6298436Y-91301170D01*
X6119505Y-91122118D01*
X5909081Y-90981415D01*
X5675251Y-90884467D01*
X5427000Y-90835000D01*
X4927000Y-90835000D01*
X4673000Y-90835000D01*
X4173000Y-90835000D01*
X3924749Y-90884467D01*
X3690919Y-90981415D01*
X3480495Y-91122118D01*
X3301564Y-91301170D01*
X3161003Y-91511689D01*
X3064213Y-91745585D01*
X3056901Y-91794529D01*
X660000Y-91794529D01*
X660000Y-89345471D01*
X3056901Y-89345471D01*
X3064213Y-89394415D01*
X3161003Y-89628311D01*
X3301564Y-89838830D01*
X3480495Y-90017882D01*
X3690919Y-90158585D01*
X3924749Y-90255533D01*
X4173000Y-90305000D01*
X4673000Y-90305000D01*
X4673000Y-89147000D01*
X4927000Y-89147000D01*
X4927000Y-90305000D01*
X5427000Y-90305000D01*
X5675251Y-90255533D01*
X5909081Y-90158585D01*
X6119505Y-90017882D01*
X6298436Y-89838830D01*
X6438997Y-89628311D01*
X6535787Y-89394415D01*
X6543099Y-89345471D01*
X6419067Y-89147000D01*
X4927000Y-89147000D01*
X4673000Y-89147000D01*
X3180933Y-89147000D01*
X3056901Y-89345471D01*
X660000Y-89345471D01*
X660000Y-88694529D01*
X3056901Y-88694529D01*
X3180933Y-88893000D01*
X4673000Y-88893000D01*
X4673000Y-87735000D01*
X4173000Y-87735000D01*
X3924749Y-87784467D01*
X3690919Y-87881415D01*
X3480495Y-88022118D01*
X3301564Y-88201170D01*
X3161003Y-88411689D01*
X3064213Y-88645585D01*
X3056901Y-88694529D01*
X660000Y-88694529D01*
X660000Y-88076766D01*
X788294Y-88115683D01*
X1050000Y-88141459D01*
X1311705Y-88115683D01*
X1563353Y-88039347D01*
X1795274Y-87915382D01*
X1998555Y-87748555D01*
X2165382Y-87545275D01*
X2289347Y-87313354D01*
X2365683Y-87061706D01*
X2385000Y-86865579D01*
X2385000Y-85134421D01*
X4715000Y-85134421D01*
X4715000Y-86865578D01*
X4734317Y-87061705D01*
X4810653Y-87313353D01*
X4934618Y-87545274D01*
X5090321Y-87735000D01*
X4927000Y-87735000D01*
X4927000Y-88893000D01*
X6419067Y-88893000D01*
X6543099Y-88694529D01*
X6535787Y-88645585D01*
X6438997Y-88411689D01*
X6298436Y-88201170D01*
X6221851Y-88124533D01*
X6311705Y-88115683D01*
X6563353Y-88039347D01*
X6795274Y-87915382D01*
X6998555Y-87748555D01*
X7165382Y-87545275D01*
X7289347Y-87313354D01*
X7365683Y-87061706D01*
X7385000Y-86865579D01*
X7385000Y-85134421D01*
X7365683Y-84938294D01*
X7289347Y-84686646D01*
X7165382Y-84454725D01*
X6998555Y-84251445D01*
X6795275Y-84084618D01*
X6563354Y-83960653D01*
X6311706Y-83884317D01*
X6050000Y-83858541D01*
X5788295Y-83884317D01*
X5536647Y-83960653D01*
X5304726Y-84084618D01*
X5101446Y-84251445D01*
X4934619Y-84454725D01*
X4810654Y-84686646D01*
X4734317Y-84938294D01*
X4715000Y-85134421D01*
X2385000Y-85134421D01*
X2365683Y-84938294D01*
X2289347Y-84686646D01*
X2165382Y-84454725D01*
X1998555Y-84251445D01*
X1795275Y-84084618D01*
X1563354Y-83960653D01*
X1311706Y-83884317D01*
X1050000Y-83858541D01*
X788295Y-83884317D01*
X660000Y-83923235D01*
X660000Y-73289721D01*
X2665000Y-73289721D01*
X2665000Y-73710279D01*
X2747047Y-74122756D01*
X2907988Y-74511302D01*
X3141637Y-74860983D01*
X3439017Y-75158363D01*
X3788698Y-75392012D01*
X4177244Y-75552953D01*
X4589721Y-75635000D01*
X5010279Y-75635000D01*
X5422756Y-75552953D01*
X5811302Y-75392012D01*
X6160983Y-75158363D01*
X6458363Y-74860983D01*
X6692012Y-74511302D01*
X6852953Y-74122756D01*
X6935000Y-73710279D01*
X6935000Y-73289721D01*
X6852953Y-72877244D01*
X6692012Y-72488698D01*
X6458363Y-72139017D01*
X6160983Y-71841637D01*
X5811302Y-71607988D01*
X5422756Y-71447047D01*
X5010279Y-71365000D01*
X4589721Y-71365000D01*
X4177244Y-71447047D01*
X3788698Y-71607988D01*
X3439017Y-71841637D01*
X3141637Y-72139017D01*
X2907988Y-72488698D01*
X2747047Y-72877244D01*
X2665000Y-73289721D01*
X660000Y-73289721D01*
X660000Y-25789721D01*
X2665000Y-25789721D01*
X2665000Y-26210279D01*
X2747047Y-26622756D01*
X2907988Y-27011302D01*
X3141637Y-27360983D01*
X3439017Y-27658363D01*
X3788698Y-27892012D01*
X4177244Y-28052953D01*
X4589721Y-28135000D01*
X5010279Y-28135000D01*
X5422756Y-28052953D01*
X5811302Y-27892012D01*
X6160983Y-27658363D01*
X6458363Y-27360983D01*
X6692012Y-27011302D01*
X6852953Y-26622756D01*
X6935000Y-26210279D01*
X6935000Y-25789721D01*
X6852953Y-25377244D01*
X6692012Y-24988698D01*
X6458363Y-24639017D01*
X6160983Y-24341637D01*
X5811302Y-24107988D01*
X5422756Y-23947047D01*
X5010279Y-23865000D01*
X4589721Y-23865000D01*
X4177244Y-23947047D01*
X3788698Y-24107988D01*
X3439017Y-24341637D01*
X3141637Y-24639017D01*
X2907988Y-24988698D01*
X2747047Y-25377244D01*
X2665000Y-25789721D01*
X660000Y-25789721D01*
X660000Y-18076766D01*
X788294Y-18115683D01*
X1050000Y-18141459D01*
X1311705Y-18115683D01*
X1563353Y-18039347D01*
X1795274Y-17915382D01*
X1998555Y-17748555D01*
X2165382Y-17545275D01*
X2289347Y-17313354D01*
X2300000Y-17278235D01*
X2310653Y-17313353D01*
X2434618Y-17545274D01*
X2601445Y-17748555D01*
X2804725Y-17915382D01*
X3036646Y-18039347D01*
X3288294Y-18115683D01*
X3550000Y-18141459D01*
X3811705Y-18115683D01*
X4063353Y-18039347D01*
X4295274Y-17915382D01*
X4498555Y-17748555D01*
X4665382Y-17545275D01*
X4789347Y-17313354D01*
X4800000Y-17278235D01*
X4810653Y-17313353D01*
X4934618Y-17545274D01*
X5101445Y-17748555D01*
X5304725Y-17915382D01*
X5536646Y-18039347D01*
X5788294Y-18115683D01*
X6050000Y-18141459D01*
X6311705Y-18115683D01*
X6563353Y-18039347D01*
X6795274Y-17915382D01*
X6998555Y-17748555D01*
X7165382Y-17545275D01*
X7289347Y-17313354D01*
X7300000Y-17278235D01*
X7310653Y-17313353D01*
G04 #@! TA.AperFunction,Conductor*
D14*
G36*
X7310653Y-17313353D02*
G01*
X7434618Y-17545274D01*
X7601445Y-17748555D01*
X7804725Y-17915382D01*
X8036646Y-18039347D01*
X8288294Y-18115683D01*
X8550000Y-18141459D01*
X8811705Y-18115683D01*
X8940000Y-18076765D01*
X8940001Y-101340000D01*
X6204533Y-101340000D01*
X6213028Y-101333028D01*
X6373608Y-101137362D01*
X6492929Y-100914127D01*
X6566407Y-100671904D01*
X6591217Y-100420000D01*
X6566407Y-100168096D01*
X6492929Y-99925873D01*
X6373608Y-99702638D01*
X6213028Y-99506972D01*
X6017362Y-99346392D01*
X5794127Y-99227071D01*
X5551904Y-99153593D01*
X5363123Y-99135000D01*
X4236877Y-99135000D01*
X4048096Y-99153593D01*
X3805873Y-99227071D01*
X3582638Y-99346392D01*
X3386972Y-99506972D01*
X3226392Y-99702638D01*
X3107071Y-99925873D01*
X3033593Y-100168096D01*
X3008783Y-100420000D01*
X3033593Y-100671904D01*
X3107071Y-100914127D01*
X3226392Y-101137362D01*
X3386972Y-101333028D01*
X3395467Y-101340000D01*
X660000Y-101340000D01*
X660000Y-95265098D01*
X2415000Y-95265098D01*
X2415000Y-95734902D01*
X2506654Y-96195679D01*
X2686440Y-96629721D01*
X2947450Y-97020349D01*
X3279651Y-97352550D01*
X3670279Y-97613560D01*
X4104321Y-97793346D01*
X4565098Y-97885000D01*
X5034902Y-97885000D01*
X5495679Y-97793346D01*
X5929721Y-97613560D01*
X6320349Y-97352550D01*
X6652550Y-97020349D01*
X6913560Y-96629721D01*
X7093346Y-96195679D01*
X7185000Y-95734902D01*
X7185000Y-95265098D01*
X7093346Y-94804321D01*
X6913560Y-94370279D01*
X6652550Y-93979651D01*
X6320349Y-93647450D01*
X5929721Y-93386440D01*
X5765135Y-93318266D01*
X5909081Y-93258585D01*
X6119505Y-93117882D01*
X6298436Y-92938830D01*
X6438997Y-92728311D01*
X6535787Y-92494415D01*
X6543099Y-92445471D01*
X6419067Y-92247000D01*
X4927000Y-92247000D01*
X4927000Y-92267000D01*
X4673000Y-92267000D01*
X4673000Y-92247000D01*
X3180933Y-92247000D01*
X3056901Y-92445471D01*
X3064213Y-92494415D01*
X3161003Y-92728311D01*
X3301564Y-92938830D01*
X3480495Y-93117882D01*
X3690919Y-93258585D01*
X3834865Y-93318266D01*
X3670279Y-93386440D01*
X3279651Y-93647450D01*
X2947450Y-93979651D01*
X2686440Y-94370279D01*
X2506654Y-94804321D01*
X2415000Y-95265098D01*
X660000Y-95265098D01*
X660000Y-91794529D01*
X3056901Y-91794529D01*
X3180933Y-91993000D01*
X4673000Y-91993000D01*
X4673000Y-90835000D01*
X4927000Y-90835000D01*
X4927000Y-91993000D01*
X6419067Y-91993000D01*
X6543099Y-91794529D01*
X6535787Y-91745585D01*
X6438997Y-91511689D01*
X6298436Y-91301170D01*
X6119505Y-91122118D01*
X5909081Y-90981415D01*
X5675251Y-90884467D01*
X5427000Y-90835000D01*
X4927000Y-90835000D01*
X4673000Y-90835000D01*
X4173000Y-90835000D01*
X3924749Y-90884467D01*
X3690919Y-90981415D01*
X3480495Y-91122118D01*
X3301564Y-91301170D01*
X3161003Y-91511689D01*
X3064213Y-91745585D01*
X3056901Y-91794529D01*
X660000Y-91794529D01*
X660000Y-89345471D01*
X3056901Y-89345471D01*
X3064213Y-89394415D01*
X3161003Y-89628311D01*
X3301564Y-89838830D01*
X3480495Y-90017882D01*
X3690919Y-90158585D01*
X3924749Y-90255533D01*
X4173000Y-90305000D01*
X4673000Y-90305000D01*
X4673000Y-89147000D01*
X4927000Y-89147000D01*
X4927000Y-90305000D01*
X5427000Y-90305000D01*
X5675251Y-90255533D01*
X5909081Y-90158585D01*
X6119505Y-90017882D01*
X6298436Y-89838830D01*
X6438997Y-89628311D01*
X6535787Y-89394415D01*
X6543099Y-89345471D01*
X6419067Y-89147000D01*
X4927000Y-89147000D01*
X4673000Y-89147000D01*
X3180933Y-89147000D01*
X3056901Y-89345471D01*
X660000Y-89345471D01*
X660000Y-88694529D01*
X3056901Y-88694529D01*
X3180933Y-88893000D01*
X4673000Y-88893000D01*
X4673000Y-87735000D01*
X4173000Y-87735000D01*
X3924749Y-87784467D01*
X3690919Y-87881415D01*
X3480495Y-88022118D01*
X3301564Y-88201170D01*
X3161003Y-88411689D01*
X3064213Y-88645585D01*
X3056901Y-88694529D01*
X660000Y-88694529D01*
X660000Y-88076766D01*
X788294Y-88115683D01*
X1050000Y-88141459D01*
X1311705Y-88115683D01*
X1563353Y-88039347D01*
X1795274Y-87915382D01*
X1998555Y-87748555D01*
X2165382Y-87545275D01*
X2289347Y-87313354D01*
X2365683Y-87061706D01*
X2385000Y-86865579D01*
X2385000Y-85134421D01*
X4715000Y-85134421D01*
X4715000Y-86865578D01*
X4734317Y-87061705D01*
X4810653Y-87313353D01*
X4934618Y-87545274D01*
X5090321Y-87735000D01*
X4927000Y-87735000D01*
X4927000Y-88893000D01*
X6419067Y-88893000D01*
X6543099Y-88694529D01*
X6535787Y-88645585D01*
X6438997Y-88411689D01*
X6298436Y-88201170D01*
X6221851Y-88124533D01*
X6311705Y-88115683D01*
X6563353Y-88039347D01*
X6795274Y-87915382D01*
X6998555Y-87748555D01*
X7165382Y-87545275D01*
X7289347Y-87313354D01*
X7365683Y-87061706D01*
X7385000Y-86865579D01*
X7385000Y-85134421D01*
X7365683Y-84938294D01*
X7289347Y-84686646D01*
X7165382Y-84454725D01*
X6998555Y-84251445D01*
X6795275Y-84084618D01*
X6563354Y-83960653D01*
X6311706Y-83884317D01*
X6050000Y-83858541D01*
X5788295Y-83884317D01*
X5536647Y-83960653D01*
X5304726Y-84084618D01*
X5101446Y-84251445D01*
X4934619Y-84454725D01*
X4810654Y-84686646D01*
X4734317Y-84938294D01*
X4715000Y-85134421D01*
X2385000Y-85134421D01*
X2365683Y-84938294D01*
X2289347Y-84686646D01*
X2165382Y-84454725D01*
X1998555Y-84251445D01*
X1795275Y-84084618D01*
X1563354Y-83960653D01*
X1311706Y-83884317D01*
X1050000Y-83858541D01*
X788295Y-83884317D01*
X660000Y-83923235D01*
X660000Y-73289721D01*
X2665000Y-73289721D01*
X2665000Y-73710279D01*
X2747047Y-74122756D01*
X2907988Y-74511302D01*
X3141637Y-74860983D01*
X3439017Y-75158363D01*
X3788698Y-75392012D01*
X4177244Y-75552953D01*
X4589721Y-75635000D01*
X5010279Y-75635000D01*
X5422756Y-75552953D01*
X5811302Y-75392012D01*
X6160983Y-75158363D01*
X6458363Y-74860983D01*
X6692012Y-74511302D01*
X6852953Y-74122756D01*
X6935000Y-73710279D01*
X6935000Y-73289721D01*
X6852953Y-72877244D01*
X6692012Y-72488698D01*
X6458363Y-72139017D01*
X6160983Y-71841637D01*
X5811302Y-71607988D01*
X5422756Y-71447047D01*
X5010279Y-71365000D01*
X4589721Y-71365000D01*
X4177244Y-71447047D01*
X3788698Y-71607988D01*
X3439017Y-71841637D01*
X3141637Y-72139017D01*
X2907988Y-72488698D01*
X2747047Y-72877244D01*
X2665000Y-73289721D01*
X660000Y-73289721D01*
X660000Y-25789721D01*
X2665000Y-25789721D01*
X2665000Y-26210279D01*
X2747047Y-26622756D01*
X2907988Y-27011302D01*
X3141637Y-27360983D01*
X3439017Y-27658363D01*
X3788698Y-27892012D01*
X4177244Y-28052953D01*
X4589721Y-28135000D01*
X5010279Y-28135000D01*
X5422756Y-28052953D01*
X5811302Y-27892012D01*
X6160983Y-27658363D01*
X6458363Y-27360983D01*
X6692012Y-27011302D01*
X6852953Y-26622756D01*
X6935000Y-26210279D01*
X6935000Y-25789721D01*
X6852953Y-25377244D01*
X6692012Y-24988698D01*
X6458363Y-24639017D01*
X6160983Y-24341637D01*
X5811302Y-24107988D01*
X5422756Y-23947047D01*
X5010279Y-23865000D01*
X4589721Y-23865000D01*
X4177244Y-23947047D01*
X3788698Y-24107988D01*
X3439017Y-24341637D01*
X3141637Y-24639017D01*
X2907988Y-24988698D01*
X2747047Y-25377244D01*
X2665000Y-25789721D01*
X660000Y-25789721D01*
X660000Y-18076766D01*
X788294Y-18115683D01*
X1050000Y-18141459D01*
X1311705Y-18115683D01*
X1563353Y-18039347D01*
X1795274Y-17915382D01*
X1998555Y-17748555D01*
X2165382Y-17545275D01*
X2289347Y-17313354D01*
X2300000Y-17278235D01*
X2310653Y-17313353D01*
X2434618Y-17545274D01*
X2601445Y-17748555D01*
X2804725Y-17915382D01*
X3036646Y-18039347D01*
X3288294Y-18115683D01*
X3550000Y-18141459D01*
X3811705Y-18115683D01*
X4063353Y-18039347D01*
X4295274Y-17915382D01*
X4498555Y-17748555D01*
X4665382Y-17545275D01*
X4789347Y-17313354D01*
X4800000Y-17278235D01*
X4810653Y-17313353D01*
X4934618Y-17545274D01*
X5101445Y-17748555D01*
X5304725Y-17915382D01*
X5536646Y-18039347D01*
X5788294Y-18115683D01*
X6050000Y-18141459D01*
X6311705Y-18115683D01*
X6563353Y-18039347D01*
X6795274Y-17915382D01*
X6998555Y-17748555D01*
X7165382Y-17545275D01*
X7289347Y-17313354D01*
X7300000Y-17278235D01*
X7310653Y-17313353D01*
G37*
G04 #@! TD.AperFunction*
D13*
X3386972Y-666972D02*
X3226392Y-862638D01*
X3107071Y-1085873D01*
X3033593Y-1328096D01*
X3008783Y-1580000D01*
X3033593Y-1831904D01*
X3107071Y-2074127D01*
X3226392Y-2297362D01*
X3386972Y-2493028D01*
X3582638Y-2653608D01*
X3805873Y-2772929D01*
X4048096Y-2846407D01*
X4236877Y-2865000D01*
X5363123Y-2865000D01*
X5551904Y-2846407D01*
X5794127Y-2772929D01*
X6017362Y-2653608D01*
X6213028Y-2493028D01*
X6373608Y-2297362D01*
X6492929Y-2074127D01*
X6566407Y-1831904D01*
X6591217Y-1580000D01*
X6566407Y-1328096D01*
X6492929Y-1085873D01*
X6373608Y-862638D01*
X6213028Y-666972D01*
X6204533Y-660000D01*
X8940000Y-660000D01*
X8940000Y-13923234D01*
X8811706Y-13884317D01*
X8550000Y-13858541D01*
X8288295Y-13884317D01*
X8036647Y-13960653D01*
X7804726Y-14084618D01*
X7601446Y-14251445D01*
X7434619Y-14454725D01*
X7310654Y-14686646D01*
X7300000Y-14721766D01*
X7289347Y-14686646D01*
X7165382Y-14454725D01*
X6998555Y-14251445D01*
X6795275Y-14084618D01*
X6563354Y-13960653D01*
X6311706Y-13884317D01*
X6221851Y-13875467D01*
X6298436Y-13798830D01*
X6438997Y-13588311D01*
X6535787Y-13354415D01*
X6543099Y-13305471D01*
X6419067Y-13107000D01*
X4927000Y-13107000D01*
X4927000Y-14265000D01*
X5090322Y-14265000D01*
X4934619Y-14454725D01*
X4810654Y-14686646D01*
X4800000Y-14721766D01*
X4789347Y-14686646D01*
X4665382Y-14454725D01*
X4509679Y-14265000D01*
X4673000Y-14265000D01*
X4673000Y-13107000D01*
X3180933Y-13107000D01*
X3056901Y-13305471D01*
X3064213Y-13354415D01*
X3161003Y-13588311D01*
X3301564Y-13798830D01*
X3378149Y-13875467D01*
X3288295Y-13884317D01*
X3036647Y-13960653D01*
X2804726Y-14084618D01*
X2601446Y-14251445D01*
X2434619Y-14454725D01*
X2310654Y-14686646D01*
X2300000Y-14721766D01*
X2289347Y-14686646D01*
X2165382Y-14454725D01*
X1998555Y-14251445D01*
X1795275Y-14084618D01*
X1563354Y-13960653D01*
X1311706Y-13884317D01*
X1050000Y-13858541D01*
X788295Y-13884317D01*
X660000Y-13923235D01*
X660000Y-12654529D01*
X3056901Y-12654529D01*
X3180933Y-12853000D01*
X4673000Y-12853000D01*
X4673000Y-11695000D01*
X4927000Y-11695000D01*
X4927000Y-12853000D01*
X6419067Y-12853000D01*
X6543099Y-12654529D01*
X6535787Y-12605585D01*
X6438997Y-12371689D01*
X6298436Y-12161170D01*
X6119505Y-11982118D01*
X5909081Y-11841415D01*
X5675251Y-11744467D01*
X5427000Y-11695000D01*
X4927000Y-11695000D01*
X4673000Y-11695000D01*
X4173000Y-11695000D01*
X3924749Y-11744467D01*
X3690919Y-11841415D01*
X3480495Y-11982118D01*
X3301564Y-12161170D01*
X3161003Y-12371689D01*
X3064213Y-12605585D01*
X3056901Y-12654529D01*
X660000Y-12654529D01*
X660000Y-6265098D01*
X2415000Y-6265098D01*
X2415000Y-6734902D01*
X2506654Y-7195679D01*
X2686440Y-7629721D01*
X2947450Y-8020349D01*
X3279651Y-8352550D01*
X3670279Y-8613560D01*
X3830047Y-8679738D01*
X3805873Y-8687071D01*
X3582638Y-8806392D01*
X3386972Y-8966972D01*
X3226392Y-9162638D01*
X3107071Y-9385873D01*
X3033593Y-9628096D01*
X3008783Y-9880000D01*
X3033593Y-10131904D01*
X3107071Y-10374127D01*
X3226392Y-10597362D01*
X3386972Y-10793028D01*
X3582638Y-10953608D01*
X3805873Y-11072929D01*
X4048096Y-11146407D01*
X4236877Y-11165000D01*
X5363123Y-11165000D01*
X5551904Y-11146407D01*
X5794127Y-11072929D01*
X6017362Y-10953608D01*
X6213028Y-10793028D01*
X6373608Y-10597362D01*
X6492929Y-10374127D01*
X6566407Y-10131904D01*
X6591217Y-9880000D01*
X6566407Y-9628096D01*
X6492929Y-9385873D01*
X6373608Y-9162638D01*
X6213028Y-8966972D01*
X6017362Y-8806392D01*
X5794127Y-8687071D01*
X5769953Y-8679738D01*
X5929721Y-8613560D01*
X6320349Y-8352550D01*
X6652550Y-8020349D01*
X6913560Y-7629721D01*
X7093346Y-7195679D01*
X7185000Y-6734902D01*
X7185000Y-6265098D01*
X7093346Y-5804321D01*
X6913560Y-5370279D01*
X6652550Y-4979651D01*
X6320349Y-4647450D01*
X5929721Y-4386440D01*
X5495679Y-4206654D01*
X5034902Y-4115000D01*
X4565098Y-4115000D01*
X4104321Y-4206654D01*
X3670279Y-4386440D01*
X3279651Y-4647450D01*
X2947450Y-4979651D01*
X2686440Y-5370279D01*
X2506654Y-5804321D01*
X2415000Y-6265098D01*
X660000Y-6265098D01*
X660000Y-660000D01*
X3395467Y-660000D01*
X3386972Y-666972D01*
G04 #@! TA.AperFunction,Conductor*
D14*
G36*
X3386972Y-666972D02*
G01*
X3226392Y-862638D01*
X3107071Y-1085873D01*
X3033593Y-1328096D01*
X3008783Y-1580000D01*
X3033593Y-1831904D01*
X3107071Y-2074127D01*
X3226392Y-2297362D01*
X3386972Y-2493028D01*
X3582638Y-2653608D01*
X3805873Y-2772929D01*
X4048096Y-2846407D01*
X4236877Y-2865000D01*
X5363123Y-2865000D01*
X5551904Y-2846407D01*
X5794127Y-2772929D01*
X6017362Y-2653608D01*
X6213028Y-2493028D01*
X6373608Y-2297362D01*
X6492929Y-2074127D01*
X6566407Y-1831904D01*
X6591217Y-1580000D01*
X6566407Y-1328096D01*
X6492929Y-1085873D01*
X6373608Y-862638D01*
X6213028Y-666972D01*
X6204533Y-660000D01*
X8940000Y-660000D01*
X8940000Y-13923234D01*
X8811706Y-13884317D01*
X8550000Y-13858541D01*
X8288295Y-13884317D01*
X8036647Y-13960653D01*
X7804726Y-14084618D01*
X7601446Y-14251445D01*
X7434619Y-14454725D01*
X7310654Y-14686646D01*
X7300000Y-14721766D01*
X7289347Y-14686646D01*
X7165382Y-14454725D01*
X6998555Y-14251445D01*
X6795275Y-14084618D01*
X6563354Y-13960653D01*
X6311706Y-13884317D01*
X6221851Y-13875467D01*
X6298436Y-13798830D01*
X6438997Y-13588311D01*
X6535787Y-13354415D01*
X6543099Y-13305471D01*
X6419067Y-13107000D01*
X4927000Y-13107000D01*
X4927000Y-14265000D01*
X5090322Y-14265000D01*
X4934619Y-14454725D01*
X4810654Y-14686646D01*
X4800000Y-14721766D01*
X4789347Y-14686646D01*
X4665382Y-14454725D01*
X4509679Y-14265000D01*
X4673000Y-14265000D01*
X4673000Y-13107000D01*
X3180933Y-13107000D01*
X3056901Y-13305471D01*
X3064213Y-13354415D01*
X3161003Y-13588311D01*
X3301564Y-13798830D01*
X3378149Y-13875467D01*
X3288295Y-13884317D01*
X3036647Y-13960653D01*
X2804726Y-14084618D01*
X2601446Y-14251445D01*
X2434619Y-14454725D01*
X2310654Y-14686646D01*
X2300000Y-14721766D01*
X2289347Y-14686646D01*
X2165382Y-14454725D01*
X1998555Y-14251445D01*
X1795275Y-14084618D01*
X1563354Y-13960653D01*
X1311706Y-13884317D01*
X1050000Y-13858541D01*
X788295Y-13884317D01*
X660000Y-13923235D01*
X660000Y-12654529D01*
X3056901Y-12654529D01*
X3180933Y-12853000D01*
X4673000Y-12853000D01*
X4673000Y-11695000D01*
X4927000Y-11695000D01*
X4927000Y-12853000D01*
X6419067Y-12853000D01*
X6543099Y-12654529D01*
X6535787Y-12605585D01*
X6438997Y-12371689D01*
X6298436Y-12161170D01*
X6119505Y-11982118D01*
X5909081Y-11841415D01*
X5675251Y-11744467D01*
X5427000Y-11695000D01*
X4927000Y-11695000D01*
X4673000Y-11695000D01*
X4173000Y-11695000D01*
X3924749Y-11744467D01*
X3690919Y-11841415D01*
X3480495Y-11982118D01*
X3301564Y-12161170D01*
X3161003Y-12371689D01*
X3064213Y-12605585D01*
X3056901Y-12654529D01*
X660000Y-12654529D01*
X660000Y-6265098D01*
X2415000Y-6265098D01*
X2415000Y-6734902D01*
X2506654Y-7195679D01*
X2686440Y-7629721D01*
X2947450Y-8020349D01*
X3279651Y-8352550D01*
X3670279Y-8613560D01*
X3830047Y-8679738D01*
X3805873Y-8687071D01*
X3582638Y-8806392D01*
X3386972Y-8966972D01*
X3226392Y-9162638D01*
X3107071Y-9385873D01*
X3033593Y-9628096D01*
X3008783Y-9880000D01*
X3033593Y-10131904D01*
X3107071Y-10374127D01*
X3226392Y-10597362D01*
X3386972Y-10793028D01*
X3582638Y-10953608D01*
X3805873Y-11072929D01*
X4048096Y-11146407D01*
X4236877Y-11165000D01*
X5363123Y-11165000D01*
X5551904Y-11146407D01*
X5794127Y-11072929D01*
X6017362Y-10953608D01*
X6213028Y-10793028D01*
X6373608Y-10597362D01*
X6492929Y-10374127D01*
X6566407Y-10131904D01*
X6591217Y-9880000D01*
X6566407Y-9628096D01*
X6492929Y-9385873D01*
X6373608Y-9162638D01*
X6213028Y-8966972D01*
X6017362Y-8806392D01*
X5794127Y-8687071D01*
X5769953Y-8679738D01*
X5929721Y-8613560D01*
X6320349Y-8352550D01*
X6652550Y-8020349D01*
X6913560Y-7629721D01*
X7093346Y-7195679D01*
X7185000Y-6734902D01*
X7185000Y-6265098D01*
X7093346Y-5804321D01*
X6913560Y-5370279D01*
X6652550Y-4979651D01*
X6320349Y-4647450D01*
X5929721Y-4386440D01*
X5495679Y-4206654D01*
X5034902Y-4115000D01*
X4565098Y-4115000D01*
X4104321Y-4206654D01*
X3670279Y-4386440D01*
X3279651Y-4647450D01*
X2947450Y-4979651D01*
X2686440Y-5370279D01*
X2506654Y-5804321D01*
X2415000Y-6265098D01*
X660000Y-6265098D01*
X660000Y-660000D01*
X3395467Y-660000D01*
X3386972Y-666972D01*
G37*
G04 #@! TD.AperFunction*
M02*
