M48
; DRILL file {KiCad (5.1.9)-1} date 03/14/21 11:29:57
; FORMAT={-:-/ absolute / metric / decimal}
; #@! TF.CreationDate,2021-03-14T11:29:57+01:00
; #@! TF.GenerationSoftware,Kicad,Pcbnew,(5.1.9)-1
; #@! TF.FileFunction,Plated,1,2,PTH
FMAT,2
METRIC
T1C0.500
T2C1.100
T3C2.000
%
G90
G05
T2
X1.05Y-16.0
X1.05Y-86.0
X3.55Y-16.0
X6.05Y-16.0
X6.05Y-86.0
X8.55Y-16.0
T3
X4.8Y-26.0
X4.8Y-73.5
T1
G00X4.3Y-1.58
M15
G01X5.3Y-1.58
M16
G05
G00X4.3Y-9.88
M15
G01X5.3Y-9.88
M16
G05
G00X4.3Y-12.98
M15
G01X5.3Y-12.98
M16
G05
G00X5.3Y-89.02
M15
G01X4.3Y-89.02
M16
G05
G00X5.3Y-92.12
M15
G01X4.3Y-92.12
M16
G05
G00X5.3Y-100.42
M15
G01X4.3Y-100.42
M16
G05
T0
M30
