G04 #@! TF.GenerationSoftware,KiCad,Pcbnew,(5.1.9)-1*
G04 #@! TF.CreationDate,2021-03-14T11:29:55+01:00*
G04 #@! TF.ProjectId,Single Attenuator,53696e67-6c65-4204-9174-74656e756174,rev?*
G04 #@! TF.SameCoordinates,Original*
G04 #@! TF.FileFunction,Legend,Top*
G04 #@! TF.FilePolarity,Positive*
%FSLAX46Y46*%
G04 Gerber Fmt 4.6, Leading zero omitted, Abs format (unit mm)*
G04 Created by KiCad (PCBNEW (5.1.9)-1) date 2021-03-14 11:29:55*
%MOMM*%
%LPD*%
G01*
G04 APERTURE LIST*
%ADD10C,0.100000*%
%ADD11C,0.120000*%
G04 APERTURE END LIST*
D10*
X300000Y-88500000D02*
X300000Y-88000000D01*
X300000Y-88500000D02*
X800000Y-88500000D01*
X9300000Y-88500000D02*
X9300000Y-88000000D01*
X9300000Y-88500000D02*
X8800000Y-88500000D01*
X300000Y-13500000D02*
X300000Y-14000000D01*
X300000Y-13500000D02*
X800000Y-13500000D01*
X9300000Y-13500000D02*
X8800000Y-13500000D01*
X9300000Y-13500000D02*
X9300000Y-14000000D01*
X4200000Y-78500000D02*
X5400000Y-78500000D01*
X4200000Y-78500000D02*
X4200000Y-83500000D01*
X5400000Y-78500000D02*
X5400000Y-83500000D01*
X3800000Y-18500000D02*
X5800000Y-18500000D01*
X3800000Y-18500000D02*
X3800000Y-83500000D01*
X5800000Y-83500000D02*
X3800000Y-83500000D01*
X5800000Y-18500000D02*
X5800000Y-83500000D01*
X5800000Y-86500000D02*
G75*
G03*
X5800000Y-86500000I-1000000J0D01*
G01*
X5800000Y-15500000D02*
G75*
G03*
X5800000Y-15500000I-1000000J0D01*
G01*
D11*
X9800000Y-11000000D02*
X8800000Y-11000000D01*
X9800000Y-10000000D02*
X9800000Y-11000000D01*
X-200000Y-11000000D02*
X800000Y-11000000D01*
X-200000Y-10000000D02*
X-200000Y-11000000D01*
X-200000Y-500000D02*
X-200000Y-1500000D01*
X800000Y-500000D02*
X-200000Y-500000D01*
X9800000Y-500000D02*
X9800000Y-1500000D01*
X8800000Y-500000D02*
X9800000Y-500000D01*
X3300000Y-13500000D02*
X3300000Y-14500000D01*
X3300000Y-14500000D02*
X4300000Y-14500000D01*
X5300000Y-14500000D02*
X6300000Y-14500000D01*
X6300000Y-14500000D02*
X6300000Y-13500000D01*
X-200000Y-91000000D02*
X800000Y-91000000D01*
X-200000Y-92000000D02*
X-200000Y-91000000D01*
X9800000Y-91000000D02*
X8800000Y-91000000D01*
X9800000Y-92000000D02*
X9800000Y-91000000D01*
X9800000Y-101500000D02*
X9800000Y-100500000D01*
X8800000Y-101500000D02*
X9800000Y-101500000D01*
X-200000Y-101500000D02*
X-200000Y-100500000D01*
X800000Y-101500000D02*
X-200000Y-101500000D01*
X6300000Y-88500000D02*
X6300000Y-87500000D01*
X6300000Y-87500000D02*
X5300000Y-87500000D01*
X4300000Y-87500000D02*
X3300000Y-87500000D01*
X3300000Y-87500000D02*
X3300000Y-88500000D01*
M02*
