G04 #@! TF.GenerationSoftware,KiCad,Pcbnew,(5.1.10)-1*
G04 #@! TF.CreationDate,2021-05-24T09:52:05+02:00*
G04 #@! TF.ProjectId,4CH Mixer Front,34434820-4d69-4786-9572-2046726f6e74,rev?*
G04 #@! TF.SameCoordinates,Original*
G04 #@! TF.FileFunction,Copper,L2,Bot*
G04 #@! TF.FilePolarity,Positive*
%FSLAX46Y46*%
G04 Gerber Fmt 4.6, Leading zero omitted, Abs format (unit mm)*
G04 Created by KiCad (PCBNEW (5.1.10)-1) date 2021-05-24 09:52:05*
%MOMM*%
%LPD*%
G01*
G04 APERTURE LIST*
G04 #@! TA.AperFunction,NonConductor*
%ADD10C,0.254000*%
G04 #@! TD*
G04 #@! TA.AperFunction,NonConductor*
%ADD11C,0.100000*%
G04 #@! TD*
G04 APERTURE END LIST*
D10*
X19315001Y-75638929D02*
X19084284Y-74990775D01*
X19057848Y-74934580D01*
X19032214Y-74878053D01*
X19027375Y-74869803D01*
X18621427Y-74188649D01*
X18584593Y-74138677D01*
X18548455Y-74088189D01*
X18542106Y-74081036D01*
X18022069Y-73503349D01*
X17989193Y-73463289D01*
X17884889Y-73377688D01*
X17765888Y-73314081D01*
X17636765Y-73274912D01*
X17536129Y-73265000D01*
X11988871Y-73265000D01*
X11888235Y-73274912D01*
X11759112Y-73314081D01*
X11640111Y-73377688D01*
X11535807Y-73463289D01*
X11513590Y-73490360D01*
X11257389Y-73748356D01*
X11228702Y-73783530D01*
X11197869Y-73816819D01*
X11192139Y-73824477D01*
X10721519Y-74462663D01*
X10689738Y-74515963D01*
X10657186Y-74568863D01*
X10653052Y-74577488D01*
X10315352Y-75294932D01*
X10294534Y-75353377D01*
X10272871Y-75411606D01*
X10270492Y-75420869D01*
X10078576Y-76190241D01*
X10069501Y-76251649D01*
X10059567Y-76312945D01*
X10059031Y-76322494D01*
X10020209Y-77114490D01*
X10023236Y-77176512D01*
X10025396Y-77238548D01*
X10026725Y-77248019D01*
X10142475Y-78032474D01*
X10157488Y-78092716D01*
X10171659Y-78153162D01*
X10174803Y-78162194D01*
X10440716Y-78909225D01*
X10467152Y-78965420D01*
X10492786Y-79021947D01*
X10497625Y-79030197D01*
X10903573Y-79711351D01*
X10940423Y-79761345D01*
X10976545Y-79811811D01*
X10982894Y-79818964D01*
X11502931Y-80396651D01*
X11535807Y-80436711D01*
X11640111Y-80522312D01*
X11759112Y-80585919D01*
X11888235Y-80625088D01*
X11988871Y-80635000D01*
X17536129Y-80635000D01*
X17636765Y-80625088D01*
X17765888Y-80585919D01*
X17884889Y-80522312D01*
X17989193Y-80436711D01*
X18011406Y-80409644D01*
X18267610Y-80151644D01*
X18296295Y-80116473D01*
X18327131Y-80083180D01*
X18332861Y-80075523D01*
X18803482Y-79437337D01*
X18835288Y-79383995D01*
X18867815Y-79331136D01*
X18871948Y-79322511D01*
X18871949Y-79322510D01*
X18871951Y-79322505D01*
X19209648Y-78605068D01*
X19230463Y-78546634D01*
X19252129Y-78488394D01*
X19254508Y-78479131D01*
X19315001Y-78236622D01*
X19315001Y-90243929D01*
X19084284Y-89595775D01*
X19057848Y-89539580D01*
X19032214Y-89483053D01*
X19027375Y-89474803D01*
X18621427Y-88793649D01*
X18584593Y-88743677D01*
X18548455Y-88693189D01*
X18542106Y-88686036D01*
X18022069Y-88108349D01*
X17989193Y-88068289D01*
X17884889Y-87982688D01*
X17765888Y-87919081D01*
X17636765Y-87879912D01*
X17536129Y-87870000D01*
X11988871Y-87870000D01*
X11888235Y-87879912D01*
X11759112Y-87919081D01*
X11640111Y-87982688D01*
X11535807Y-88068289D01*
X11513590Y-88095360D01*
X11257389Y-88353356D01*
X11228702Y-88388530D01*
X11197869Y-88421819D01*
X11192139Y-88429477D01*
X10721519Y-89067663D01*
X10689738Y-89120963D01*
X10657186Y-89173863D01*
X10653052Y-89182488D01*
X10315352Y-89899932D01*
X10294534Y-89958377D01*
X10272871Y-90016606D01*
X10270492Y-90025869D01*
X10078576Y-90795241D01*
X10069501Y-90856649D01*
X10059567Y-90917945D01*
X10059031Y-90927494D01*
X10020209Y-91719490D01*
X10023236Y-91781512D01*
X10025396Y-91843548D01*
X10026725Y-91853019D01*
X10142475Y-92637474D01*
X10157488Y-92697716D01*
X10171659Y-92758162D01*
X10174803Y-92767194D01*
X10440716Y-93514225D01*
X10467152Y-93570420D01*
X10492786Y-93626947D01*
X10497625Y-93635197D01*
X10903573Y-94316351D01*
X10940423Y-94366345D01*
X10976545Y-94416811D01*
X10982894Y-94423964D01*
X11502931Y-95001651D01*
X11535807Y-95041711D01*
X11640111Y-95127312D01*
X11759112Y-95190919D01*
X11888235Y-95230088D01*
X11988871Y-95240000D01*
X17536129Y-95240000D01*
X17636765Y-95230088D01*
X17765888Y-95190919D01*
X17884889Y-95127312D01*
X17989193Y-95041711D01*
X18011406Y-95014644D01*
X18267610Y-94756644D01*
X18296295Y-94721473D01*
X18327131Y-94688180D01*
X18332861Y-94680523D01*
X18803482Y-94042337D01*
X18835288Y-93988995D01*
X18867815Y-93936136D01*
X18871948Y-93927511D01*
X18871949Y-93927510D01*
X18871951Y-93927505D01*
X19209648Y-93210068D01*
X19230463Y-93151634D01*
X19252129Y-93093394D01*
X19254508Y-93084131D01*
X19315001Y-92841622D01*
X19315001Y-127815000D01*
X685000Y-127815000D01*
X685000Y-125279872D01*
X5265000Y-125279872D01*
X5265000Y-125720128D01*
X5350890Y-126151925D01*
X5519369Y-126558669D01*
X5763962Y-126924729D01*
X6075271Y-127236038D01*
X6441331Y-127480631D01*
X6848075Y-127649110D01*
X7279872Y-127735000D01*
X7720128Y-127735000D01*
X8151925Y-127649110D01*
X8558669Y-127480631D01*
X8924729Y-127236038D01*
X9236038Y-126924729D01*
X9480631Y-126558669D01*
X9649110Y-126151925D01*
X9735000Y-125720128D01*
X9735000Y-125279872D01*
X9649110Y-124848075D01*
X9480631Y-124441331D01*
X9236038Y-124075271D01*
X8924729Y-123763962D01*
X8558669Y-123519369D01*
X8151925Y-123350890D01*
X7720128Y-123265000D01*
X7279872Y-123265000D01*
X6848075Y-123350890D01*
X6441331Y-123519369D01*
X6075271Y-123763962D01*
X5763962Y-124075271D01*
X5519369Y-124441331D01*
X5350890Y-124848075D01*
X5265000Y-125279872D01*
X685000Y-125279872D01*
X685000Y-105758628D01*
X6315000Y-105758628D01*
X6324912Y-105859264D01*
X6364081Y-105988387D01*
X6427688Y-106107388D01*
X6513289Y-106211692D01*
X6540351Y-106233902D01*
X6798356Y-106490110D01*
X6833527Y-106518795D01*
X6866820Y-106549631D01*
X6874477Y-106555361D01*
X7512663Y-107025982D01*
X7566005Y-107057788D01*
X7618864Y-107090315D01*
X7627486Y-107094446D01*
X7627490Y-107094449D01*
X7627495Y-107094451D01*
X8344932Y-107432148D01*
X8403366Y-107452963D01*
X8461606Y-107474629D01*
X8470869Y-107477008D01*
X9240241Y-107668924D01*
X9301649Y-107677999D01*
X9362945Y-107687933D01*
X9372494Y-107688469D01*
X10164490Y-107727291D01*
X10226512Y-107724264D01*
X10288548Y-107722104D01*
X10298019Y-107720775D01*
X11082474Y-107605025D01*
X11142716Y-107590012D01*
X11203162Y-107575841D01*
X11212194Y-107572697D01*
X11959225Y-107306784D01*
X12015420Y-107280348D01*
X12071947Y-107254714D01*
X12080197Y-107249875D01*
X12761351Y-106843927D01*
X12811345Y-106807077D01*
X12861811Y-106770955D01*
X12868964Y-106764606D01*
X13446662Y-106244560D01*
X13486710Y-106211693D01*
X13572312Y-106107389D01*
X13635919Y-105988388D01*
X13675088Y-105859265D01*
X13685000Y-105758629D01*
X13685000Y-100211371D01*
X13675088Y-100110735D01*
X13635919Y-99981612D01*
X13572312Y-99862611D01*
X13486711Y-99758307D01*
X13459640Y-99736090D01*
X13201644Y-99479889D01*
X13166470Y-99451202D01*
X13133181Y-99420369D01*
X13125523Y-99414639D01*
X12487337Y-98944019D01*
X12434037Y-98912238D01*
X12381137Y-98879686D01*
X12372512Y-98875552D01*
X11655068Y-98537852D01*
X11596623Y-98517034D01*
X11538394Y-98495371D01*
X11529131Y-98492992D01*
X10759759Y-98301076D01*
X10698351Y-98292001D01*
X10637055Y-98282067D01*
X10627506Y-98281531D01*
X9835510Y-98242709D01*
X9773488Y-98245736D01*
X9711452Y-98247896D01*
X9701981Y-98249225D01*
X8917527Y-98364975D01*
X8857293Y-98379986D01*
X8796838Y-98394159D01*
X8787806Y-98397303D01*
X8040775Y-98663216D01*
X7984580Y-98689652D01*
X7928053Y-98715286D01*
X7919803Y-98720125D01*
X7238649Y-99126073D01*
X7188677Y-99162907D01*
X7138189Y-99199045D01*
X7131036Y-99205394D01*
X6553338Y-99725440D01*
X6513290Y-99758307D01*
X6427689Y-99862611D01*
X6364082Y-99981612D01*
X6324913Y-100110735D01*
X6315001Y-100211371D01*
X6315000Y-105758628D01*
X685000Y-105758628D01*
X685000Y-92866073D01*
X915716Y-93514225D01*
X942152Y-93570420D01*
X967786Y-93626947D01*
X972625Y-93635197D01*
X1378573Y-94316351D01*
X1415423Y-94366345D01*
X1451545Y-94416811D01*
X1457894Y-94423964D01*
X1977931Y-95001651D01*
X2010807Y-95041711D01*
X2115111Y-95127312D01*
X2234112Y-95190919D01*
X2363235Y-95230088D01*
X2463871Y-95240000D01*
X8011129Y-95240000D01*
X8111765Y-95230088D01*
X8240888Y-95190919D01*
X8359889Y-95127312D01*
X8464193Y-95041711D01*
X8486406Y-95014644D01*
X8742610Y-94756644D01*
X8771295Y-94721473D01*
X8802131Y-94688180D01*
X8807861Y-94680523D01*
X9278482Y-94042337D01*
X9310288Y-93988995D01*
X9342815Y-93936136D01*
X9346948Y-93927511D01*
X9346949Y-93927510D01*
X9346951Y-93927505D01*
X9684648Y-93210068D01*
X9705463Y-93151634D01*
X9727129Y-93093394D01*
X9729508Y-93084131D01*
X9921424Y-92314759D01*
X9930499Y-92253351D01*
X9940433Y-92192055D01*
X9940969Y-92182506D01*
X9979791Y-91390510D01*
X9976764Y-91328488D01*
X9974604Y-91266452D01*
X9973275Y-91256981D01*
X9857525Y-90472527D01*
X9842514Y-90412293D01*
X9828341Y-90351838D01*
X9825197Y-90342806D01*
X9559284Y-89595775D01*
X9532848Y-89539580D01*
X9507214Y-89483053D01*
X9502375Y-89474803D01*
X9096427Y-88793649D01*
X9059593Y-88743677D01*
X9023455Y-88693189D01*
X9017106Y-88686036D01*
X8497069Y-88108349D01*
X8464193Y-88068289D01*
X8359889Y-87982688D01*
X8240888Y-87919081D01*
X8111765Y-87879912D01*
X8011129Y-87870000D01*
X2463871Y-87870000D01*
X2363235Y-87879912D01*
X2234112Y-87919081D01*
X2115111Y-87982688D01*
X2010807Y-88068289D01*
X1988590Y-88095360D01*
X1732389Y-88353356D01*
X1703702Y-88388530D01*
X1672869Y-88421819D01*
X1667139Y-88429477D01*
X1196519Y-89067663D01*
X1164738Y-89120963D01*
X1132186Y-89173863D01*
X1128052Y-89182488D01*
X790352Y-89899932D01*
X769534Y-89958377D01*
X747871Y-90016606D01*
X745492Y-90025869D01*
X685000Y-90268375D01*
X685000Y-78261073D01*
X915716Y-78909225D01*
X942152Y-78965420D01*
X967786Y-79021947D01*
X972625Y-79030197D01*
X1378573Y-79711351D01*
X1415423Y-79761345D01*
X1451545Y-79811811D01*
X1457894Y-79818964D01*
X1977931Y-80396651D01*
X2010807Y-80436711D01*
X2115111Y-80522312D01*
X2234112Y-80585919D01*
X2363235Y-80625088D01*
X2463871Y-80635000D01*
X8011129Y-80635000D01*
X8111765Y-80625088D01*
X8240888Y-80585919D01*
X8359889Y-80522312D01*
X8464193Y-80436711D01*
X8486406Y-80409644D01*
X8742610Y-80151644D01*
X8771295Y-80116473D01*
X8802131Y-80083180D01*
X8807861Y-80075523D01*
X9278482Y-79437337D01*
X9310288Y-79383995D01*
X9342815Y-79331136D01*
X9346948Y-79322511D01*
X9346949Y-79322510D01*
X9346951Y-79322505D01*
X9684648Y-78605068D01*
X9705463Y-78546634D01*
X9727129Y-78488394D01*
X9729508Y-78479131D01*
X9921424Y-77709759D01*
X9930499Y-77648351D01*
X9940433Y-77587055D01*
X9940969Y-77577506D01*
X9979791Y-76785510D01*
X9976764Y-76723488D01*
X9974604Y-76661452D01*
X9973275Y-76651981D01*
X9857525Y-75867527D01*
X9842514Y-75807293D01*
X9828341Y-75746838D01*
X9825197Y-75737806D01*
X9559284Y-74990775D01*
X9532848Y-74934580D01*
X9507214Y-74878053D01*
X9502375Y-74869803D01*
X9096427Y-74188649D01*
X9059593Y-74138677D01*
X9023455Y-74088189D01*
X9017106Y-74081036D01*
X8497069Y-73503349D01*
X8464193Y-73463289D01*
X8359889Y-73377688D01*
X8240888Y-73314081D01*
X8111765Y-73274912D01*
X8011129Y-73265000D01*
X2463871Y-73265000D01*
X2363235Y-73274912D01*
X2234112Y-73314081D01*
X2115111Y-73377688D01*
X2010807Y-73463289D01*
X1988590Y-73490360D01*
X1732389Y-73748356D01*
X1703702Y-73783530D01*
X1672869Y-73816819D01*
X1667139Y-73824477D01*
X1196519Y-74462663D01*
X1164738Y-74515963D01*
X1132186Y-74568863D01*
X1128052Y-74577488D01*
X790352Y-75294932D01*
X769534Y-75353377D01*
X747871Y-75411606D01*
X745492Y-75420869D01*
X685000Y-75663375D01*
X685000Y-61332059D01*
X6315000Y-61332059D01*
X6315000Y-62057941D01*
X6456613Y-62769875D01*
X6734395Y-63440502D01*
X7137674Y-64044050D01*
X7650950Y-64557326D01*
X8254498Y-64960605D01*
X8925125Y-65238387D01*
X9637059Y-65380000D01*
X10362941Y-65380000D01*
X11074875Y-65238387D01*
X11745502Y-64960605D01*
X12349050Y-64557326D01*
X12862326Y-64044050D01*
X13265605Y-63440502D01*
X13543387Y-62769875D01*
X13685000Y-62057941D01*
X13685000Y-61332059D01*
X13543387Y-60620125D01*
X13265605Y-59949498D01*
X12862326Y-59345950D01*
X12349050Y-58832674D01*
X11745502Y-58429395D01*
X11074875Y-58151613D01*
X10362941Y-58010000D01*
X9637059Y-58010000D01*
X8925125Y-58151613D01*
X8254498Y-58429395D01*
X7650950Y-58832674D01*
X7137674Y-59345950D01*
X6734395Y-59949498D01*
X6456613Y-60620125D01*
X6315000Y-61332059D01*
X685000Y-61332059D01*
X685000Y-47362059D01*
X6315000Y-47362059D01*
X6315000Y-48087941D01*
X6456613Y-48799875D01*
X6734395Y-49470502D01*
X7137674Y-50074050D01*
X7650950Y-50587326D01*
X8254498Y-50990605D01*
X8925125Y-51268387D01*
X9637059Y-51410000D01*
X10362941Y-51410000D01*
X11074875Y-51268387D01*
X11745502Y-50990605D01*
X12349050Y-50587326D01*
X12862326Y-50074050D01*
X13265605Y-49470502D01*
X13543387Y-48799875D01*
X13685000Y-48087941D01*
X13685000Y-47362059D01*
X13543387Y-46650125D01*
X13265605Y-45979498D01*
X12862326Y-45375950D01*
X12349050Y-44862674D01*
X11745502Y-44459395D01*
X11074875Y-44181613D01*
X10362941Y-44040000D01*
X9637059Y-44040000D01*
X8925125Y-44181613D01*
X8254498Y-44459395D01*
X7650950Y-44862674D01*
X7137674Y-45375950D01*
X6734395Y-45979498D01*
X6456613Y-46650125D01*
X6315000Y-47362059D01*
X685000Y-47362059D01*
X685000Y-33392059D01*
X6315000Y-33392059D01*
X6315000Y-34117941D01*
X6456613Y-34829875D01*
X6734395Y-35500502D01*
X7137674Y-36104050D01*
X7650950Y-36617326D01*
X8254498Y-37020605D01*
X8925125Y-37298387D01*
X9637059Y-37440000D01*
X10362941Y-37440000D01*
X11074875Y-37298387D01*
X11745502Y-37020605D01*
X12349050Y-36617326D01*
X12862326Y-36104050D01*
X13265605Y-35500502D01*
X13543387Y-34829875D01*
X13685000Y-34117941D01*
X13685000Y-33392059D01*
X13543387Y-32680125D01*
X13265605Y-32009498D01*
X12862326Y-31405950D01*
X12349050Y-30892674D01*
X11745502Y-30489395D01*
X11074875Y-30211613D01*
X10362941Y-30070000D01*
X9637059Y-30070000D01*
X8925125Y-30211613D01*
X8254498Y-30489395D01*
X7650950Y-30892674D01*
X7137674Y-31405950D01*
X6734395Y-32009498D01*
X6456613Y-32680125D01*
X6315000Y-33392059D01*
X685000Y-33392059D01*
X685000Y-19422059D01*
X6315000Y-19422059D01*
X6315000Y-20147941D01*
X6456613Y-20859875D01*
X6734395Y-21530502D01*
X7137674Y-22134050D01*
X7650950Y-22647326D01*
X8254498Y-23050605D01*
X8925125Y-23328387D01*
X9637059Y-23470000D01*
X10362941Y-23470000D01*
X11074875Y-23328387D01*
X11745502Y-23050605D01*
X12349050Y-22647326D01*
X12862326Y-22134050D01*
X13265605Y-21530502D01*
X13543387Y-20859875D01*
X13685000Y-20147941D01*
X13685000Y-19422059D01*
X13543387Y-18710125D01*
X13265605Y-18039498D01*
X12862326Y-17435950D01*
X12349050Y-16922674D01*
X11745502Y-16519395D01*
X11074875Y-16241613D01*
X10362941Y-16100000D01*
X9637059Y-16100000D01*
X8925125Y-16241613D01*
X8254498Y-16519395D01*
X7650950Y-16922674D01*
X7137674Y-17435950D01*
X6734395Y-18039498D01*
X6456613Y-18710125D01*
X6315000Y-19422059D01*
X685000Y-19422059D01*
X685000Y-2779872D01*
X5265000Y-2779872D01*
X5265000Y-3220128D01*
X5350890Y-3651925D01*
X5519369Y-4058669D01*
X5763962Y-4424729D01*
X6075271Y-4736038D01*
X6441331Y-4980631D01*
X6848075Y-5149110D01*
X7279872Y-5235000D01*
X7720128Y-5235000D01*
X8151925Y-5149110D01*
X8558669Y-4980631D01*
X8924729Y-4736038D01*
X9236038Y-4424729D01*
X9480631Y-4058669D01*
X9649110Y-3651925D01*
X9735000Y-3220128D01*
X9735000Y-2779872D01*
X9649110Y-2348075D01*
X9480631Y-1941331D01*
X9236038Y-1575271D01*
X8924729Y-1263962D01*
X8558669Y-1019369D01*
X8151925Y-850890D01*
X7720128Y-765000D01*
X7279872Y-765000D01*
X6848075Y-850890D01*
X6441331Y-1019369D01*
X6075271Y-1263962D01*
X5763962Y-1575271D01*
X5519369Y-1941331D01*
X5350890Y-2348075D01*
X5265000Y-2779872D01*
X685000Y-2779872D01*
X685000Y-685000D01*
X19315000Y-685000D01*
X19315001Y-75638929D01*
G04 #@! TA.AperFunction,NonConductor*
D11*
G36*
X19315001Y-75638929D02*
G01*
X19084284Y-74990775D01*
X19057848Y-74934580D01*
X19032214Y-74878053D01*
X19027375Y-74869803D01*
X18621427Y-74188649D01*
X18584593Y-74138677D01*
X18548455Y-74088189D01*
X18542106Y-74081036D01*
X18022069Y-73503349D01*
X17989193Y-73463289D01*
X17884889Y-73377688D01*
X17765888Y-73314081D01*
X17636765Y-73274912D01*
X17536129Y-73265000D01*
X11988871Y-73265000D01*
X11888235Y-73274912D01*
X11759112Y-73314081D01*
X11640111Y-73377688D01*
X11535807Y-73463289D01*
X11513590Y-73490360D01*
X11257389Y-73748356D01*
X11228702Y-73783530D01*
X11197869Y-73816819D01*
X11192139Y-73824477D01*
X10721519Y-74462663D01*
X10689738Y-74515963D01*
X10657186Y-74568863D01*
X10653052Y-74577488D01*
X10315352Y-75294932D01*
X10294534Y-75353377D01*
X10272871Y-75411606D01*
X10270492Y-75420869D01*
X10078576Y-76190241D01*
X10069501Y-76251649D01*
X10059567Y-76312945D01*
X10059031Y-76322494D01*
X10020209Y-77114490D01*
X10023236Y-77176512D01*
X10025396Y-77238548D01*
X10026725Y-77248019D01*
X10142475Y-78032474D01*
X10157488Y-78092716D01*
X10171659Y-78153162D01*
X10174803Y-78162194D01*
X10440716Y-78909225D01*
X10467152Y-78965420D01*
X10492786Y-79021947D01*
X10497625Y-79030197D01*
X10903573Y-79711351D01*
X10940423Y-79761345D01*
X10976545Y-79811811D01*
X10982894Y-79818964D01*
X11502931Y-80396651D01*
X11535807Y-80436711D01*
X11640111Y-80522312D01*
X11759112Y-80585919D01*
X11888235Y-80625088D01*
X11988871Y-80635000D01*
X17536129Y-80635000D01*
X17636765Y-80625088D01*
X17765888Y-80585919D01*
X17884889Y-80522312D01*
X17989193Y-80436711D01*
X18011406Y-80409644D01*
X18267610Y-80151644D01*
X18296295Y-80116473D01*
X18327131Y-80083180D01*
X18332861Y-80075523D01*
X18803482Y-79437337D01*
X18835288Y-79383995D01*
X18867815Y-79331136D01*
X18871948Y-79322511D01*
X18871949Y-79322510D01*
X18871951Y-79322505D01*
X19209648Y-78605068D01*
X19230463Y-78546634D01*
X19252129Y-78488394D01*
X19254508Y-78479131D01*
X19315001Y-78236622D01*
X19315001Y-90243929D01*
X19084284Y-89595775D01*
X19057848Y-89539580D01*
X19032214Y-89483053D01*
X19027375Y-89474803D01*
X18621427Y-88793649D01*
X18584593Y-88743677D01*
X18548455Y-88693189D01*
X18542106Y-88686036D01*
X18022069Y-88108349D01*
X17989193Y-88068289D01*
X17884889Y-87982688D01*
X17765888Y-87919081D01*
X17636765Y-87879912D01*
X17536129Y-87870000D01*
X11988871Y-87870000D01*
X11888235Y-87879912D01*
X11759112Y-87919081D01*
X11640111Y-87982688D01*
X11535807Y-88068289D01*
X11513590Y-88095360D01*
X11257389Y-88353356D01*
X11228702Y-88388530D01*
X11197869Y-88421819D01*
X11192139Y-88429477D01*
X10721519Y-89067663D01*
X10689738Y-89120963D01*
X10657186Y-89173863D01*
X10653052Y-89182488D01*
X10315352Y-89899932D01*
X10294534Y-89958377D01*
X10272871Y-90016606D01*
X10270492Y-90025869D01*
X10078576Y-90795241D01*
X10069501Y-90856649D01*
X10059567Y-90917945D01*
X10059031Y-90927494D01*
X10020209Y-91719490D01*
X10023236Y-91781512D01*
X10025396Y-91843548D01*
X10026725Y-91853019D01*
X10142475Y-92637474D01*
X10157488Y-92697716D01*
X10171659Y-92758162D01*
X10174803Y-92767194D01*
X10440716Y-93514225D01*
X10467152Y-93570420D01*
X10492786Y-93626947D01*
X10497625Y-93635197D01*
X10903573Y-94316351D01*
X10940423Y-94366345D01*
X10976545Y-94416811D01*
X10982894Y-94423964D01*
X11502931Y-95001651D01*
X11535807Y-95041711D01*
X11640111Y-95127312D01*
X11759112Y-95190919D01*
X11888235Y-95230088D01*
X11988871Y-95240000D01*
X17536129Y-95240000D01*
X17636765Y-95230088D01*
X17765888Y-95190919D01*
X17884889Y-95127312D01*
X17989193Y-95041711D01*
X18011406Y-95014644D01*
X18267610Y-94756644D01*
X18296295Y-94721473D01*
X18327131Y-94688180D01*
X18332861Y-94680523D01*
X18803482Y-94042337D01*
X18835288Y-93988995D01*
X18867815Y-93936136D01*
X18871948Y-93927511D01*
X18871949Y-93927510D01*
X18871951Y-93927505D01*
X19209648Y-93210068D01*
X19230463Y-93151634D01*
X19252129Y-93093394D01*
X19254508Y-93084131D01*
X19315001Y-92841622D01*
X19315001Y-127815000D01*
X685000Y-127815000D01*
X685000Y-125279872D01*
X5265000Y-125279872D01*
X5265000Y-125720128D01*
X5350890Y-126151925D01*
X5519369Y-126558669D01*
X5763962Y-126924729D01*
X6075271Y-127236038D01*
X6441331Y-127480631D01*
X6848075Y-127649110D01*
X7279872Y-127735000D01*
X7720128Y-127735000D01*
X8151925Y-127649110D01*
X8558669Y-127480631D01*
X8924729Y-127236038D01*
X9236038Y-126924729D01*
X9480631Y-126558669D01*
X9649110Y-126151925D01*
X9735000Y-125720128D01*
X9735000Y-125279872D01*
X9649110Y-124848075D01*
X9480631Y-124441331D01*
X9236038Y-124075271D01*
X8924729Y-123763962D01*
X8558669Y-123519369D01*
X8151925Y-123350890D01*
X7720128Y-123265000D01*
X7279872Y-123265000D01*
X6848075Y-123350890D01*
X6441331Y-123519369D01*
X6075271Y-123763962D01*
X5763962Y-124075271D01*
X5519369Y-124441331D01*
X5350890Y-124848075D01*
X5265000Y-125279872D01*
X685000Y-125279872D01*
X685000Y-105758628D01*
X6315000Y-105758628D01*
X6324912Y-105859264D01*
X6364081Y-105988387D01*
X6427688Y-106107388D01*
X6513289Y-106211692D01*
X6540351Y-106233902D01*
X6798356Y-106490110D01*
X6833527Y-106518795D01*
X6866820Y-106549631D01*
X6874477Y-106555361D01*
X7512663Y-107025982D01*
X7566005Y-107057788D01*
X7618864Y-107090315D01*
X7627486Y-107094446D01*
X7627490Y-107094449D01*
X7627495Y-107094451D01*
X8344932Y-107432148D01*
X8403366Y-107452963D01*
X8461606Y-107474629D01*
X8470869Y-107477008D01*
X9240241Y-107668924D01*
X9301649Y-107677999D01*
X9362945Y-107687933D01*
X9372494Y-107688469D01*
X10164490Y-107727291D01*
X10226512Y-107724264D01*
X10288548Y-107722104D01*
X10298019Y-107720775D01*
X11082474Y-107605025D01*
X11142716Y-107590012D01*
X11203162Y-107575841D01*
X11212194Y-107572697D01*
X11959225Y-107306784D01*
X12015420Y-107280348D01*
X12071947Y-107254714D01*
X12080197Y-107249875D01*
X12761351Y-106843927D01*
X12811345Y-106807077D01*
X12861811Y-106770955D01*
X12868964Y-106764606D01*
X13446662Y-106244560D01*
X13486710Y-106211693D01*
X13572312Y-106107389D01*
X13635919Y-105988388D01*
X13675088Y-105859265D01*
X13685000Y-105758629D01*
X13685000Y-100211371D01*
X13675088Y-100110735D01*
X13635919Y-99981612D01*
X13572312Y-99862611D01*
X13486711Y-99758307D01*
X13459640Y-99736090D01*
X13201644Y-99479889D01*
X13166470Y-99451202D01*
X13133181Y-99420369D01*
X13125523Y-99414639D01*
X12487337Y-98944019D01*
X12434037Y-98912238D01*
X12381137Y-98879686D01*
X12372512Y-98875552D01*
X11655068Y-98537852D01*
X11596623Y-98517034D01*
X11538394Y-98495371D01*
X11529131Y-98492992D01*
X10759759Y-98301076D01*
X10698351Y-98292001D01*
X10637055Y-98282067D01*
X10627506Y-98281531D01*
X9835510Y-98242709D01*
X9773488Y-98245736D01*
X9711452Y-98247896D01*
X9701981Y-98249225D01*
X8917527Y-98364975D01*
X8857293Y-98379986D01*
X8796838Y-98394159D01*
X8787806Y-98397303D01*
X8040775Y-98663216D01*
X7984580Y-98689652D01*
X7928053Y-98715286D01*
X7919803Y-98720125D01*
X7238649Y-99126073D01*
X7188677Y-99162907D01*
X7138189Y-99199045D01*
X7131036Y-99205394D01*
X6553338Y-99725440D01*
X6513290Y-99758307D01*
X6427689Y-99862611D01*
X6364082Y-99981612D01*
X6324913Y-100110735D01*
X6315001Y-100211371D01*
X6315000Y-105758628D01*
X685000Y-105758628D01*
X685000Y-92866073D01*
X915716Y-93514225D01*
X942152Y-93570420D01*
X967786Y-93626947D01*
X972625Y-93635197D01*
X1378573Y-94316351D01*
X1415423Y-94366345D01*
X1451545Y-94416811D01*
X1457894Y-94423964D01*
X1977931Y-95001651D01*
X2010807Y-95041711D01*
X2115111Y-95127312D01*
X2234112Y-95190919D01*
X2363235Y-95230088D01*
X2463871Y-95240000D01*
X8011129Y-95240000D01*
X8111765Y-95230088D01*
X8240888Y-95190919D01*
X8359889Y-95127312D01*
X8464193Y-95041711D01*
X8486406Y-95014644D01*
X8742610Y-94756644D01*
X8771295Y-94721473D01*
X8802131Y-94688180D01*
X8807861Y-94680523D01*
X9278482Y-94042337D01*
X9310288Y-93988995D01*
X9342815Y-93936136D01*
X9346948Y-93927511D01*
X9346949Y-93927510D01*
X9346951Y-93927505D01*
X9684648Y-93210068D01*
X9705463Y-93151634D01*
X9727129Y-93093394D01*
X9729508Y-93084131D01*
X9921424Y-92314759D01*
X9930499Y-92253351D01*
X9940433Y-92192055D01*
X9940969Y-92182506D01*
X9979791Y-91390510D01*
X9976764Y-91328488D01*
X9974604Y-91266452D01*
X9973275Y-91256981D01*
X9857525Y-90472527D01*
X9842514Y-90412293D01*
X9828341Y-90351838D01*
X9825197Y-90342806D01*
X9559284Y-89595775D01*
X9532848Y-89539580D01*
X9507214Y-89483053D01*
X9502375Y-89474803D01*
X9096427Y-88793649D01*
X9059593Y-88743677D01*
X9023455Y-88693189D01*
X9017106Y-88686036D01*
X8497069Y-88108349D01*
X8464193Y-88068289D01*
X8359889Y-87982688D01*
X8240888Y-87919081D01*
X8111765Y-87879912D01*
X8011129Y-87870000D01*
X2463871Y-87870000D01*
X2363235Y-87879912D01*
X2234112Y-87919081D01*
X2115111Y-87982688D01*
X2010807Y-88068289D01*
X1988590Y-88095360D01*
X1732389Y-88353356D01*
X1703702Y-88388530D01*
X1672869Y-88421819D01*
X1667139Y-88429477D01*
X1196519Y-89067663D01*
X1164738Y-89120963D01*
X1132186Y-89173863D01*
X1128052Y-89182488D01*
X790352Y-89899932D01*
X769534Y-89958377D01*
X747871Y-90016606D01*
X745492Y-90025869D01*
X685000Y-90268375D01*
X685000Y-78261073D01*
X915716Y-78909225D01*
X942152Y-78965420D01*
X967786Y-79021947D01*
X972625Y-79030197D01*
X1378573Y-79711351D01*
X1415423Y-79761345D01*
X1451545Y-79811811D01*
X1457894Y-79818964D01*
X1977931Y-80396651D01*
X2010807Y-80436711D01*
X2115111Y-80522312D01*
X2234112Y-80585919D01*
X2363235Y-80625088D01*
X2463871Y-80635000D01*
X8011129Y-80635000D01*
X8111765Y-80625088D01*
X8240888Y-80585919D01*
X8359889Y-80522312D01*
X8464193Y-80436711D01*
X8486406Y-80409644D01*
X8742610Y-80151644D01*
X8771295Y-80116473D01*
X8802131Y-80083180D01*
X8807861Y-80075523D01*
X9278482Y-79437337D01*
X9310288Y-79383995D01*
X9342815Y-79331136D01*
X9346948Y-79322511D01*
X9346949Y-79322510D01*
X9346951Y-79322505D01*
X9684648Y-78605068D01*
X9705463Y-78546634D01*
X9727129Y-78488394D01*
X9729508Y-78479131D01*
X9921424Y-77709759D01*
X9930499Y-77648351D01*
X9940433Y-77587055D01*
X9940969Y-77577506D01*
X9979791Y-76785510D01*
X9976764Y-76723488D01*
X9974604Y-76661452D01*
X9973275Y-76651981D01*
X9857525Y-75867527D01*
X9842514Y-75807293D01*
X9828341Y-75746838D01*
X9825197Y-75737806D01*
X9559284Y-74990775D01*
X9532848Y-74934580D01*
X9507214Y-74878053D01*
X9502375Y-74869803D01*
X9096427Y-74188649D01*
X9059593Y-74138677D01*
X9023455Y-74088189D01*
X9017106Y-74081036D01*
X8497069Y-73503349D01*
X8464193Y-73463289D01*
X8359889Y-73377688D01*
X8240888Y-73314081D01*
X8111765Y-73274912D01*
X8011129Y-73265000D01*
X2463871Y-73265000D01*
X2363235Y-73274912D01*
X2234112Y-73314081D01*
X2115111Y-73377688D01*
X2010807Y-73463289D01*
X1988590Y-73490360D01*
X1732389Y-73748356D01*
X1703702Y-73783530D01*
X1672869Y-73816819D01*
X1667139Y-73824477D01*
X1196519Y-74462663D01*
X1164738Y-74515963D01*
X1132186Y-74568863D01*
X1128052Y-74577488D01*
X790352Y-75294932D01*
X769534Y-75353377D01*
X747871Y-75411606D01*
X745492Y-75420869D01*
X685000Y-75663375D01*
X685000Y-61332059D01*
X6315000Y-61332059D01*
X6315000Y-62057941D01*
X6456613Y-62769875D01*
X6734395Y-63440502D01*
X7137674Y-64044050D01*
X7650950Y-64557326D01*
X8254498Y-64960605D01*
X8925125Y-65238387D01*
X9637059Y-65380000D01*
X10362941Y-65380000D01*
X11074875Y-65238387D01*
X11745502Y-64960605D01*
X12349050Y-64557326D01*
X12862326Y-64044050D01*
X13265605Y-63440502D01*
X13543387Y-62769875D01*
X13685000Y-62057941D01*
X13685000Y-61332059D01*
X13543387Y-60620125D01*
X13265605Y-59949498D01*
X12862326Y-59345950D01*
X12349050Y-58832674D01*
X11745502Y-58429395D01*
X11074875Y-58151613D01*
X10362941Y-58010000D01*
X9637059Y-58010000D01*
X8925125Y-58151613D01*
X8254498Y-58429395D01*
X7650950Y-58832674D01*
X7137674Y-59345950D01*
X6734395Y-59949498D01*
X6456613Y-60620125D01*
X6315000Y-61332059D01*
X685000Y-61332059D01*
X685000Y-47362059D01*
X6315000Y-47362059D01*
X6315000Y-48087941D01*
X6456613Y-48799875D01*
X6734395Y-49470502D01*
X7137674Y-50074050D01*
X7650950Y-50587326D01*
X8254498Y-50990605D01*
X8925125Y-51268387D01*
X9637059Y-51410000D01*
X10362941Y-51410000D01*
X11074875Y-51268387D01*
X11745502Y-50990605D01*
X12349050Y-50587326D01*
X12862326Y-50074050D01*
X13265605Y-49470502D01*
X13543387Y-48799875D01*
X13685000Y-48087941D01*
X13685000Y-47362059D01*
X13543387Y-46650125D01*
X13265605Y-45979498D01*
X12862326Y-45375950D01*
X12349050Y-44862674D01*
X11745502Y-44459395D01*
X11074875Y-44181613D01*
X10362941Y-44040000D01*
X9637059Y-44040000D01*
X8925125Y-44181613D01*
X8254498Y-44459395D01*
X7650950Y-44862674D01*
X7137674Y-45375950D01*
X6734395Y-45979498D01*
X6456613Y-46650125D01*
X6315000Y-47362059D01*
X685000Y-47362059D01*
X685000Y-33392059D01*
X6315000Y-33392059D01*
X6315000Y-34117941D01*
X6456613Y-34829875D01*
X6734395Y-35500502D01*
X7137674Y-36104050D01*
X7650950Y-36617326D01*
X8254498Y-37020605D01*
X8925125Y-37298387D01*
X9637059Y-37440000D01*
X10362941Y-37440000D01*
X11074875Y-37298387D01*
X11745502Y-37020605D01*
X12349050Y-36617326D01*
X12862326Y-36104050D01*
X13265605Y-35500502D01*
X13543387Y-34829875D01*
X13685000Y-34117941D01*
X13685000Y-33392059D01*
X13543387Y-32680125D01*
X13265605Y-32009498D01*
X12862326Y-31405950D01*
X12349050Y-30892674D01*
X11745502Y-30489395D01*
X11074875Y-30211613D01*
X10362941Y-30070000D01*
X9637059Y-30070000D01*
X8925125Y-30211613D01*
X8254498Y-30489395D01*
X7650950Y-30892674D01*
X7137674Y-31405950D01*
X6734395Y-32009498D01*
X6456613Y-32680125D01*
X6315000Y-33392059D01*
X685000Y-33392059D01*
X685000Y-19422059D01*
X6315000Y-19422059D01*
X6315000Y-20147941D01*
X6456613Y-20859875D01*
X6734395Y-21530502D01*
X7137674Y-22134050D01*
X7650950Y-22647326D01*
X8254498Y-23050605D01*
X8925125Y-23328387D01*
X9637059Y-23470000D01*
X10362941Y-23470000D01*
X11074875Y-23328387D01*
X11745502Y-23050605D01*
X12349050Y-22647326D01*
X12862326Y-22134050D01*
X13265605Y-21530502D01*
X13543387Y-20859875D01*
X13685000Y-20147941D01*
X13685000Y-19422059D01*
X13543387Y-18710125D01*
X13265605Y-18039498D01*
X12862326Y-17435950D01*
X12349050Y-16922674D01*
X11745502Y-16519395D01*
X11074875Y-16241613D01*
X10362941Y-16100000D01*
X9637059Y-16100000D01*
X8925125Y-16241613D01*
X8254498Y-16519395D01*
X7650950Y-16922674D01*
X7137674Y-17435950D01*
X6734395Y-18039498D01*
X6456613Y-18710125D01*
X6315000Y-19422059D01*
X685000Y-19422059D01*
X685000Y-2779872D01*
X5265000Y-2779872D01*
X5265000Y-3220128D01*
X5350890Y-3651925D01*
X5519369Y-4058669D01*
X5763962Y-4424729D01*
X6075271Y-4736038D01*
X6441331Y-4980631D01*
X6848075Y-5149110D01*
X7279872Y-5235000D01*
X7720128Y-5235000D01*
X8151925Y-5149110D01*
X8558669Y-4980631D01*
X8924729Y-4736038D01*
X9236038Y-4424729D01*
X9480631Y-4058669D01*
X9649110Y-3651925D01*
X9735000Y-3220128D01*
X9735000Y-2779872D01*
X9649110Y-2348075D01*
X9480631Y-1941331D01*
X9236038Y-1575271D01*
X8924729Y-1263962D01*
X8558669Y-1019369D01*
X8151925Y-850890D01*
X7720128Y-765000D01*
X7279872Y-765000D01*
X6848075Y-850890D01*
X6441331Y-1019369D01*
X6075271Y-1263962D01*
X5763962Y-1575271D01*
X5519369Y-1941331D01*
X5350890Y-2348075D01*
X5265000Y-2779872D01*
X685000Y-2779872D01*
X685000Y-685000D01*
X19315000Y-685000D01*
X19315001Y-75638929D01*
G37*
G04 #@! TD.AperFunction*
M02*
