G04 #@! TF.GenerationSoftware,KiCad,Pcbnew,(5.1.10)-1*
G04 #@! TF.CreationDate,2021-05-24T09:52:05+02:00*
G04 #@! TF.ProjectId,4CH Mixer Front,34434820-4d69-4786-9572-2046726f6e74,rev?*
G04 #@! TF.SameCoordinates,Original*
G04 #@! TF.FileFunction,Profile,NP*
%FSLAX46Y46*%
G04 Gerber Fmt 4.6, Leading zero omitted, Abs format (unit mm)*
G04 Created by KiCad (PCBNEW (5.1.10)-1) date 2021-05-24 09:52:05*
%MOMM*%
%LPD*%
G01*
G04 APERTURE LIST*
G04 #@! TA.AperFunction,Profile*
%ADD10C,0.100000*%
G04 #@! TD*
G04 APERTURE END LIST*
D10*
G04 #@! TO.C,REF\u002A\u002A*
X12999999Y-105724981D02*
G75*
G02*
X7000001Y-105724981I-2999999J2739981D01*
G01*
X7000001Y-100245019D02*
G75*
G02*
X12999999Y-100245019I2999999J-2739981D01*
G01*
X13000000Y-105724982D02*
X13000000Y-100245018D01*
X7000000Y-105724982D02*
X7000000Y-100245018D01*
X12022519Y-94554999D02*
G75*
G02*
X12022519Y-88555001I2739981J2999999D01*
G01*
X17502481Y-88555001D02*
G75*
G02*
X17502481Y-94554999I-2739981J-2999999D01*
G01*
X12022518Y-94555000D02*
X17502482Y-94555000D01*
X12022518Y-88555000D02*
X17502482Y-88555000D01*
X2497519Y-94554999D02*
G75*
G02*
X2497519Y-88555001I2739981J2999999D01*
G01*
X7977481Y-88555001D02*
G75*
G02*
X7977481Y-94554999I-2739981J-2999999D01*
G01*
X2497518Y-94555000D02*
X7977482Y-94555000D01*
X2497518Y-88555000D02*
X7977482Y-88555000D01*
X12022519Y-79949999D02*
G75*
G02*
X12022519Y-73950001I2739981J2999999D01*
G01*
X17502481Y-73950001D02*
G75*
G02*
X17502481Y-79949999I-2739981J-2999999D01*
G01*
X12022518Y-79950000D02*
X17502482Y-79950000D01*
X12022518Y-73950000D02*
X17502482Y-73950000D01*
X2497519Y-79949999D02*
G75*
G02*
X2497519Y-73950001I2739981J2999999D01*
G01*
X7977481Y-73950001D02*
G75*
G02*
X7977481Y-79949999I-2739981J-2999999D01*
G01*
X2497518Y-79950000D02*
X7977482Y-79950000D01*
X2497518Y-73950000D02*
X7977482Y-73950000D01*
X0Y0D02*
X20000000Y0D01*
X20000000Y0D02*
X20000000Y-128500000D01*
X0Y-128500000D02*
X20000000Y-128500000D01*
X0Y-128500000D02*
X0Y0D01*
G04 #@! TD*
M02*
