G04 #@! TF.GenerationSoftware,KiCad,Pcbnew,(5.1.9)-1*
G04 #@! TF.CreationDate,2021-03-24T07:37:38+01:00*
G04 #@! TF.ProjectId,APC Eurorack Main,41504320-4575-4726-9f72-61636b204d61,rev?*
G04 #@! TF.SameCoordinates,Original*
G04 #@! TF.FileFunction,Legend,Bot*
G04 #@! TF.FilePolarity,Positive*
%FSLAX46Y46*%
G04 Gerber Fmt 4.6, Leading zero omitted, Abs format (unit mm)*
G04 Created by KiCad (PCBNEW (5.1.9)-1) date 2021-03-24 07:37:38*
%MOMM*%
%LPD*%
G01*
G04 APERTURE LIST*
%ADD10C,0.100000*%
G04 APERTURE END LIST*
D10*
X24915952Y-831904D02*
X24915952Y-1403333D01*
X24954047Y-1517619D01*
X25030238Y-1593809D01*
X25144523Y-1631904D01*
X25220714Y-1631904D01*
X24154047Y-1631904D02*
X24535000Y-1631904D01*
X24535000Y-831904D01*
X23430238Y-1555714D02*
X23468333Y-1593809D01*
X23582619Y-1631904D01*
X23658809Y-1631904D01*
X23773095Y-1593809D01*
X23849285Y-1517619D01*
X23887380Y-1441428D01*
X23925476Y-1289047D01*
X23925476Y-1174761D01*
X23887380Y-1022380D01*
X23849285Y-946190D01*
X23773095Y-870000D01*
X23658809Y-831904D01*
X23582619Y-831904D01*
X23468333Y-870000D01*
X23430238Y-908095D01*
X22858809Y-831904D02*
X22858809Y-1403333D01*
X22896904Y-1517619D01*
X22973095Y-1593809D01*
X23087380Y-1631904D01*
X23163571Y-1631904D01*
X22096904Y-1631904D02*
X22477857Y-1631904D01*
X22477857Y-831904D01*
X21373095Y-1555714D02*
X21411190Y-1593809D01*
X21525476Y-1631904D01*
X21601666Y-1631904D01*
X21715952Y-1593809D01*
X21792142Y-1517619D01*
X21830238Y-1441428D01*
X21868333Y-1289047D01*
X21868333Y-1174761D01*
X21830238Y-1022380D01*
X21792142Y-946190D01*
X21715952Y-870000D01*
X21601666Y-831904D01*
X21525476Y-831904D01*
X21411190Y-870000D01*
X21373095Y-908095D01*
X20801666Y-831904D02*
X20801666Y-1403333D01*
X20839761Y-1517619D01*
X20915952Y-1593809D01*
X21030238Y-1631904D01*
X21106428Y-1631904D01*
X20039761Y-1631904D02*
X20420714Y-1631904D01*
X20420714Y-831904D01*
X19315952Y-1555714D02*
X19354047Y-1593809D01*
X19468333Y-1631904D01*
X19544523Y-1631904D01*
X19658809Y-1593809D01*
X19735000Y-1517619D01*
X19773095Y-1441428D01*
X19811190Y-1289047D01*
X19811190Y-1174761D01*
X19773095Y-1022380D01*
X19735000Y-946190D01*
X19658809Y-870000D01*
X19544523Y-831904D01*
X19468333Y-831904D01*
X19354047Y-870000D01*
X19315952Y-908095D01*
X18744523Y-831904D02*
X18744523Y-1403333D01*
X18782619Y-1517619D01*
X18858809Y-1593809D01*
X18973095Y-1631904D01*
X19049285Y-1631904D01*
X17982619Y-1631904D02*
X18363571Y-1631904D01*
X18363571Y-831904D01*
X17258809Y-1555714D02*
X17296904Y-1593809D01*
X17411190Y-1631904D01*
X17487380Y-1631904D01*
X17601666Y-1593809D01*
X17677857Y-1517619D01*
X17715952Y-1441428D01*
X17754047Y-1289047D01*
X17754047Y-1174761D01*
X17715952Y-1022380D01*
X17677857Y-946190D01*
X17601666Y-870000D01*
X17487380Y-831904D01*
X17411190Y-831904D01*
X17296904Y-870000D01*
X17258809Y-908095D01*
M02*
