G04 #@! TF.GenerationSoftware,KiCad,Pcbnew,(5.1.9)-1*
G04 #@! TF.CreationDate,2021-03-24T07:37:38+01:00*
G04 #@! TF.ProjectId,APC Eurorack Main,41504320-4575-4726-9f72-61636b204d61,rev?*
G04 #@! TF.SameCoordinates,Original*
G04 #@! TF.FileFunction,Copper,L1,Top*
G04 #@! TF.FilePolarity,Positive*
%FSLAX46Y46*%
G04 Gerber Fmt 4.6, Leading zero omitted, Abs format (unit mm)*
G04 Created by KiCad (PCBNEW (5.1.9)-1) date 2021-03-24 07:37:38*
%MOMM*%
%LPD*%
G01*
G04 APERTURE LIST*
G04 #@! TA.AperFunction,ComponentPad*
%ADD10O,1.600000X1.600000*%
G04 #@! TD*
G04 #@! TA.AperFunction,ComponentPad*
%ADD11C,1.600000*%
G04 #@! TD*
G04 #@! TA.AperFunction,ComponentPad*
%ADD12C,1.800000*%
G04 #@! TD*
G04 #@! TA.AperFunction,ComponentPad*
%ADD13O,1.600000X3.500000*%
G04 #@! TD*
G04 #@! TA.AperFunction,ComponentPad*
%ADD14C,1.700000*%
G04 #@! TD*
G04 #@! TA.AperFunction,ComponentPad*
%ADD15O,1.600000X2.400000*%
G04 #@! TD*
G04 #@! TA.AperFunction,ComponentPad*
%ADD16R,1.600000X2.400000*%
G04 #@! TD*
G04 #@! TA.AperFunction,ComponentPad*
%ADD17R,1.050000X1.500000*%
G04 #@! TD*
G04 #@! TA.AperFunction,ComponentPad*
%ADD18O,1.050000X1.500000*%
G04 #@! TD*
G04 #@! TA.AperFunction,ComponentPad*
%ADD19O,2.200000X2.200000*%
G04 #@! TD*
G04 #@! TA.AperFunction,ComponentPad*
%ADD20R,2.200000X2.200000*%
G04 #@! TD*
G04 #@! TA.AperFunction,ComponentPad*
%ADD21R,1.600000X1.600000*%
G04 #@! TD*
G04 #@! TA.AperFunction,ViaPad*
%ADD22C,0.800000*%
G04 #@! TD*
G04 #@! TA.AperFunction,Conductor*
%ADD23C,0.400000*%
G04 #@! TD*
G04 #@! TA.AperFunction,Conductor*
%ADD24C,0.254000*%
G04 #@! TD*
G04 #@! TA.AperFunction,Conductor*
%ADD25C,0.100000*%
G04 #@! TD*
G04 APERTURE END LIST*
D10*
G04 #@! TO.P,R1,2*
G04 #@! TO.N,Net-(C1-Pad1)*
X10160000Y-50800000D03*
D11*
G04 #@! TO.P,R1,1*
G04 #@! TO.N,Net-(IC2-Pad1)*
X17780000Y-50800000D03*
G04 #@! TD*
D12*
G04 #@! TO.P,R11,1*
G04 #@! TO.N,+VDC*
X5080000Y-35560000D03*
G04 #@! TO.P,R11,2*
G04 #@! TO.N,Net-(R11-Pad2)*
X5080000Y-38060000D03*
G04 #@! TO.P,R11,3*
X5080000Y-40560000D03*
G04 #@! TD*
G04 #@! TO.P,R10,1*
G04 #@! TO.N,+VDC*
X5080000Y-15000000D03*
G04 #@! TO.P,R10,2*
G04 #@! TO.N,Net-(IC2-Pad1)*
X5080000Y-17500000D03*
G04 #@! TO.P,R10,3*
X5080000Y-20000000D03*
G04 #@! TD*
D13*
G04 #@! TO.P,J6,TN*
G04 #@! TO.N,N/C*
X12800000Y-76100000D03*
G04 #@! TO.P,J6,T*
G04 #@! TO.N,Net-(J6-PadT)*
X7000000Y-76100000D03*
G04 #@! TO.P,J6,S*
G04 #@! TO.N,GND*
X1700000Y-76000000D03*
G04 #@! TD*
G04 #@! TO.P,J5,TN*
G04 #@! TO.N,N/C*
X12800000Y-100100000D03*
G04 #@! TO.P,J5,T*
G04 #@! TO.N,Net-(J5-PadT)*
X7000000Y-100100000D03*
G04 #@! TO.P,J5,S*
G04 #@! TO.N,GND*
X1700000Y-100000000D03*
G04 #@! TD*
G04 #@! TO.P,J4,TN*
G04 #@! TO.N,N/C*
X12800000Y-88100000D03*
G04 #@! TO.P,J4,T*
G04 #@! TO.N,Net-(J4-PadT)*
X7000000Y-88100000D03*
G04 #@! TO.P,J4,S*
G04 #@! TO.N,GND*
X1700000Y-88000000D03*
G04 #@! TD*
D10*
G04 #@! TO.P,R9,2*
G04 #@! TO.N,Net-(R11-Pad2)*
X10160000Y-34290000D03*
D11*
G04 #@! TO.P,R9,1*
G04 #@! TO.N,Net-(C2-Pad1)*
X10160000Y-41910000D03*
G04 #@! TD*
D10*
G04 #@! TO.P,R8,2*
G04 #@! TO.N,Net-(D3-Pad1)*
X16510000Y-69850000D03*
D11*
G04 #@! TO.P,R8,1*
G04 #@! TO.N,Net-(J5-PadT)*
X8890000Y-69850000D03*
G04 #@! TD*
D10*
G04 #@! TO.P,R7,2*
G04 #@! TO.N,Net-(D2-Pad1)*
X12065000Y-81915000D03*
D11*
G04 #@! TO.P,R7,1*
G04 #@! TO.N,Net-(J6-PadT)*
X4445000Y-81915000D03*
G04 #@! TD*
D10*
G04 #@! TO.P,R4,2*
G04 #@! TO.N,Net-(C3-Pad2)*
X12065000Y-106045000D03*
D11*
G04 #@! TO.P,R4,1*
G04 #@! TO.N,Net-(J4-PadT)*
X4445000Y-106045000D03*
G04 #@! TD*
D10*
G04 #@! TO.P,R3,2*
G04 #@! TO.N,Net-(J4-PadT)*
X4445000Y-93980000D03*
D11*
G04 #@! TO.P,R3,1*
G04 #@! TO.N,GND*
X12065000Y-93980000D03*
G04 #@! TD*
D10*
G04 #@! TO.P,R2,2*
G04 #@! TO.N,+12V*
X13335000Y-24130000D03*
D11*
G04 #@! TO.P,R2,1*
G04 #@! TO.N,Net-(D1-Pad2)*
X13335000Y-16510000D03*
G04 #@! TD*
D14*
G04 #@! TO.P,J1,16*
G04 #@! TO.N,N/C*
X19050000Y-13970000D03*
G04 #@! TO.P,J1,14*
X19050000Y-16510000D03*
G04 #@! TO.P,J1,12*
X19050000Y-19050000D03*
G04 #@! TO.P,J1,10*
G04 #@! TO.N,+12V*
X19050000Y-21590000D03*
G04 #@! TO.P,J1,8*
G04 #@! TO.N,GND*
X19050000Y-24130000D03*
G04 #@! TO.P,J1,6*
X19050000Y-26670000D03*
G04 #@! TO.P,J1,4*
X19050000Y-29210000D03*
G04 #@! TO.P,J1,2*
G04 #@! TO.N,N/C*
X19050000Y-31750000D03*
G04 #@! TO.P,J1,15*
X21590000Y-13970000D03*
G04 #@! TO.P,J1,13*
X21590000Y-16510000D03*
G04 #@! TO.P,J1,11*
X21590000Y-19050000D03*
G04 #@! TO.P,J1,9*
G04 #@! TO.N,+12V*
X21590000Y-21590000D03*
G04 #@! TO.P,J1,7*
G04 #@! TO.N,GND*
X21590000Y-24130000D03*
G04 #@! TO.P,J1,5*
X21590000Y-26670000D03*
G04 #@! TO.P,J1,3*
X21590000Y-29210000D03*
G04 #@! TO.P,J1,1*
G04 #@! TO.N,N/C*
G04 #@! TA.AperFunction,ComponentPad*
G36*
G01*
X22440000Y-31150000D02*
X22440000Y-32350000D01*
G75*
G02*
X22190000Y-32600000I-250000J0D01*
G01*
X20990000Y-32600000D01*
G75*
G02*
X20740000Y-32350000I0J250000D01*
G01*
X20740000Y-31150000D01*
G75*
G02*
X20990000Y-30900000I250000J0D01*
G01*
X22190000Y-30900000D01*
G75*
G02*
X22440000Y-31150000I0J-250000D01*
G01*
G37*
G04 #@! TD.AperFunction*
G04 #@! TD*
D15*
G04 #@! TO.P,IC2,14*
G04 #@! TO.N,+VDC*
X17780000Y-62230000D03*
G04 #@! TO.P,IC2,7*
G04 #@! TO.N,GND*
X2540000Y-54610000D03*
G04 #@! TO.P,IC2,13*
G04 #@! TO.N,Net-(C2-Pad1)*
X15240000Y-62230000D03*
G04 #@! TO.P,IC2,6*
G04 #@! TO.N,Net-(C1-Pad1)*
X5080000Y-54610000D03*
G04 #@! TO.P,IC2,12*
G04 #@! TO.N,Net-(C2-Pad1)*
X12700000Y-62230000D03*
G04 #@! TO.P,IC2,5*
G04 #@! TO.N,Net-(IC2-Pad5)*
X7620000Y-54610000D03*
G04 #@! TO.P,IC2,11*
G04 #@! TO.N,Net-(D3-Pad1)*
X10160000Y-62230000D03*
G04 #@! TO.P,IC2,4*
G04 #@! TO.N,+VDC*
X10160000Y-54610000D03*
G04 #@! TO.P,IC2,10*
X7620000Y-62230000D03*
G04 #@! TO.P,IC2,3*
G04 #@! TO.N,Net-(D2-Pad1)*
X12700000Y-54610000D03*
G04 #@! TO.P,IC2,9*
G04 #@! TO.N,Net-(C3-Pad1)*
X5080000Y-62230000D03*
G04 #@! TO.P,IC2,2*
G04 #@! TO.N,Net-(C1-Pad1)*
X15240000Y-54610000D03*
G04 #@! TO.P,IC2,8*
G04 #@! TO.N,Net-(IC2-Pad5)*
X2540000Y-62230000D03*
D16*
G04 #@! TO.P,IC2,1*
G04 #@! TO.N,Net-(IC2-Pad1)*
X17780000Y-54610000D03*
G04 #@! TD*
D17*
G04 #@! TO.P,IC1,1*
G04 #@! TO.N,+VDC*
X3000000Y-7620000D03*
D18*
G04 #@! TO.P,IC1,3*
G04 #@! TO.N,Net-(C5-Pad1)*
X5540000Y-7620000D03*
G04 #@! TO.P,IC1,2*
G04 #@! TO.N,GND*
X4270000Y-7620000D03*
G04 #@! TD*
D19*
G04 #@! TO.P,D3,2*
G04 #@! TO.N,GND*
X21590000Y-80010000D03*
D20*
G04 #@! TO.P,D3,1*
G04 #@! TO.N,Net-(D3-Pad1)*
X21590000Y-69850000D03*
G04 #@! TD*
D19*
G04 #@! TO.P,D2,2*
G04 #@! TO.N,GND*
X16510000Y-92075000D03*
D20*
G04 #@! TO.P,D2,1*
G04 #@! TO.N,Net-(D2-Pad1)*
X16510000Y-81915000D03*
G04 #@! TD*
D19*
G04 #@! TO.P,D1,2*
G04 #@! TO.N,Net-(D1-Pad2)*
X9525000Y-22225000D03*
D20*
G04 #@! TO.P,D1,1*
G04 #@! TO.N,Net-(C5-Pad1)*
X9525000Y-12065000D03*
G04 #@! TD*
D11*
G04 #@! TO.P,C5,2*
G04 #@! TO.N,GND*
X11430000Y-5620000D03*
D21*
G04 #@! TO.P,C5,1*
G04 #@! TO.N,Net-(C5-Pad1)*
X11430000Y-7620000D03*
G04 #@! TD*
D11*
G04 #@! TO.P,C4,2*
G04 #@! TO.N,GND*
X2620000Y-44450000D03*
G04 #@! TO.P,C4,1*
G04 #@! TO.N,+VDC*
X7620000Y-44450000D03*
G04 #@! TD*
G04 #@! TO.P,C3,2*
G04 #@! TO.N,Net-(C3-Pad2)*
X16510000Y-105410000D03*
D21*
G04 #@! TO.P,C3,1*
G04 #@! TO.N,Net-(C3-Pad1)*
X16510000Y-107410000D03*
G04 #@! TD*
D11*
G04 #@! TO.P,C2,2*
G04 #@! TO.N,GND*
X17700000Y-66040000D03*
G04 #@! TO.P,C2,1*
G04 #@! TO.N,Net-(C2-Pad1)*
X12700000Y-66040000D03*
G04 #@! TD*
G04 #@! TO.P,C1,2*
G04 #@! TO.N,GND*
X2620000Y-46990000D03*
G04 #@! TO.P,C1,1*
G04 #@! TO.N,Net-(C1-Pad1)*
X7620000Y-46990000D03*
G04 #@! TD*
D22*
G04 #@! TO.N,GND*
X3175000Y-67310000D03*
X6985000Y-67310000D03*
X18415000Y-58420000D03*
X13970000Y-58420000D03*
X8255000Y-58420000D03*
X12065000Y-45720000D03*
X12065000Y-50800000D03*
X10795000Y-84455000D03*
X7620000Y-84455000D03*
G04 #@! TD*
D23*
G04 #@! TO.N,GND*
X3175000Y-67310000D02*
X6985000Y-67310000D01*
X18415000Y-58420000D02*
X13970000Y-58420000D01*
X13970000Y-58420000D02*
X8255000Y-58420000D01*
X12065000Y-45720000D02*
X12065000Y-50800000D01*
X10795000Y-84455000D02*
X7620000Y-84455000D01*
G04 #@! TD*
D24*
G04 #@! TO.N,+VDC*
X25340001Y-109340000D02*
X660000Y-109340000D01*
X660000Y-105903665D01*
X3010000Y-105903665D01*
X3010000Y-106186335D01*
X3065147Y-106463574D01*
X3173320Y-106724727D01*
X3330363Y-106959759D01*
X3530241Y-107159637D01*
X3765273Y-107316680D01*
X4026426Y-107424853D01*
X4303665Y-107480000D01*
X4586335Y-107480000D01*
X4863574Y-107424853D01*
X5124727Y-107316680D01*
X5359759Y-107159637D01*
X5559637Y-106959759D01*
X5716680Y-106724727D01*
X5824853Y-106463574D01*
X5880000Y-106186335D01*
X5880000Y-105903665D01*
X10630000Y-105903665D01*
X10630000Y-106186335D01*
X10685147Y-106463574D01*
X10793320Y-106724727D01*
X10950363Y-106959759D01*
X11150241Y-107159637D01*
X11385273Y-107316680D01*
X11646426Y-107424853D01*
X11923665Y-107480000D01*
X12206335Y-107480000D01*
X12483574Y-107424853D01*
X12744727Y-107316680D01*
X12979759Y-107159637D01*
X13179637Y-106959759D01*
X13336680Y-106724727D01*
X13384201Y-106610000D01*
X15071928Y-106610000D01*
X15071928Y-108210000D01*
X15084188Y-108334482D01*
X15120498Y-108454180D01*
X15179463Y-108564494D01*
X15258815Y-108661185D01*
X15355506Y-108740537D01*
X15465820Y-108799502D01*
X15585518Y-108835812D01*
X15710000Y-108848072D01*
X17310000Y-108848072D01*
X17434482Y-108835812D01*
X17554180Y-108799502D01*
X17664494Y-108740537D01*
X17761185Y-108661185D01*
X17840537Y-108564494D01*
X17899502Y-108454180D01*
X17935812Y-108334482D01*
X17948072Y-108210000D01*
X17948072Y-106610000D01*
X17935812Y-106485518D01*
X17899502Y-106365820D01*
X17840537Y-106255506D01*
X17761185Y-106158815D01*
X17744607Y-106145210D01*
X17781680Y-106089727D01*
X17889853Y-105828574D01*
X17945000Y-105551335D01*
X17945000Y-105268665D01*
X17889853Y-104991426D01*
X17781680Y-104730273D01*
X17624637Y-104495241D01*
X17424759Y-104295363D01*
X17189727Y-104138320D01*
X16928574Y-104030147D01*
X16651335Y-103975000D01*
X16368665Y-103975000D01*
X16091426Y-104030147D01*
X15830273Y-104138320D01*
X15595241Y-104295363D01*
X15395363Y-104495241D01*
X15238320Y-104730273D01*
X15130147Y-104991426D01*
X15075000Y-105268665D01*
X15075000Y-105551335D01*
X15130147Y-105828574D01*
X15238320Y-106089727D01*
X15275393Y-106145210D01*
X15258815Y-106158815D01*
X15179463Y-106255506D01*
X15120498Y-106365820D01*
X15084188Y-106485518D01*
X15071928Y-106610000D01*
X13384201Y-106610000D01*
X13444853Y-106463574D01*
X13500000Y-106186335D01*
X13500000Y-105903665D01*
X13444853Y-105626426D01*
X13336680Y-105365273D01*
X13179637Y-105130241D01*
X12979759Y-104930363D01*
X12744727Y-104773320D01*
X12483574Y-104665147D01*
X12206335Y-104610000D01*
X11923665Y-104610000D01*
X11646426Y-104665147D01*
X11385273Y-104773320D01*
X11150241Y-104930363D01*
X10950363Y-105130241D01*
X10793320Y-105365273D01*
X10685147Y-105626426D01*
X10630000Y-105903665D01*
X5880000Y-105903665D01*
X5824853Y-105626426D01*
X5716680Y-105365273D01*
X5559637Y-105130241D01*
X5359759Y-104930363D01*
X5124727Y-104773320D01*
X4863574Y-104665147D01*
X4586335Y-104610000D01*
X4303665Y-104610000D01*
X4026426Y-104665147D01*
X3765273Y-104773320D01*
X3530241Y-104930363D01*
X3330363Y-105130241D01*
X3173320Y-105365273D01*
X3065147Y-105626426D01*
X3010000Y-105903665D01*
X660000Y-105903665D01*
X660000Y-101944759D01*
X680393Y-101969608D01*
X898900Y-102148932D01*
X1148193Y-102282182D01*
X1418692Y-102364236D01*
X1700000Y-102391943D01*
X1981309Y-102364236D01*
X2251808Y-102282182D01*
X2501101Y-102148932D01*
X2719608Y-101969608D01*
X2898932Y-101751101D01*
X3032182Y-101501808D01*
X3114236Y-101231309D01*
X3135000Y-101020492D01*
X3135000Y-99079509D01*
X5565000Y-99079509D01*
X5565001Y-101120492D01*
X5585765Y-101331309D01*
X5667819Y-101601808D01*
X5801069Y-101851101D01*
X5980393Y-102069608D01*
X6198900Y-102248932D01*
X6448193Y-102382182D01*
X6718692Y-102464236D01*
X7000000Y-102491943D01*
X7281309Y-102464236D01*
X7551808Y-102382182D01*
X7801101Y-102248932D01*
X8019608Y-102069608D01*
X8198932Y-101851101D01*
X8332182Y-101601808D01*
X8414236Y-101331309D01*
X8435000Y-101120492D01*
X8435000Y-99079509D01*
X11365000Y-99079509D01*
X11365001Y-101120492D01*
X11385765Y-101331309D01*
X11467819Y-101601808D01*
X11601069Y-101851101D01*
X11780393Y-102069608D01*
X11998900Y-102248932D01*
X12248193Y-102382182D01*
X12518692Y-102464236D01*
X12800000Y-102491943D01*
X13081309Y-102464236D01*
X13351808Y-102382182D01*
X13601101Y-102248932D01*
X13819608Y-102069608D01*
X13998932Y-101851101D01*
X14132182Y-101601808D01*
X14214236Y-101331309D01*
X14235000Y-101120492D01*
X14235000Y-99079508D01*
X14214236Y-98868691D01*
X14132182Y-98598192D01*
X13998932Y-98348899D01*
X13819607Y-98130392D01*
X13601100Y-97951068D01*
X13351807Y-97817818D01*
X13081308Y-97735764D01*
X12800000Y-97708057D01*
X12518691Y-97735764D01*
X12248192Y-97817818D01*
X11998899Y-97951068D01*
X11780392Y-98130393D01*
X11601068Y-98348900D01*
X11467818Y-98598193D01*
X11385764Y-98868692D01*
X11365000Y-99079509D01*
X8435000Y-99079509D01*
X8435000Y-99079508D01*
X8414236Y-98868691D01*
X8332182Y-98598192D01*
X8198932Y-98348899D01*
X8019607Y-98130392D01*
X7801100Y-97951068D01*
X7551807Y-97817818D01*
X7281308Y-97735764D01*
X7000000Y-97708057D01*
X6718691Y-97735764D01*
X6448192Y-97817818D01*
X6198899Y-97951068D01*
X5980392Y-98130393D01*
X5801068Y-98348900D01*
X5667818Y-98598193D01*
X5585764Y-98868692D01*
X5565000Y-99079509D01*
X3135000Y-99079509D01*
X3135000Y-98979508D01*
X3114236Y-98768691D01*
X3032182Y-98498192D01*
X2898932Y-98248899D01*
X2719607Y-98030392D01*
X2501100Y-97851068D01*
X2251807Y-97717818D01*
X1981308Y-97635764D01*
X1700000Y-97608057D01*
X1418691Y-97635764D01*
X1148192Y-97717818D01*
X898899Y-97851068D01*
X680392Y-98030393D01*
X660000Y-98055241D01*
X660000Y-93838665D01*
X3010000Y-93838665D01*
X3010000Y-94121335D01*
X3065147Y-94398574D01*
X3173320Y-94659727D01*
X3330363Y-94894759D01*
X3530241Y-95094637D01*
X3765273Y-95251680D01*
X4026426Y-95359853D01*
X4303665Y-95415000D01*
X4586335Y-95415000D01*
X4863574Y-95359853D01*
X5124727Y-95251680D01*
X5359759Y-95094637D01*
X5559637Y-94894759D01*
X5716680Y-94659727D01*
X5824853Y-94398574D01*
X5880000Y-94121335D01*
X5880000Y-93838665D01*
X10630000Y-93838665D01*
X10630000Y-94121335D01*
X10685147Y-94398574D01*
X10793320Y-94659727D01*
X10950363Y-94894759D01*
X11150241Y-95094637D01*
X11385273Y-95251680D01*
X11646426Y-95359853D01*
X11923665Y-95415000D01*
X12206335Y-95415000D01*
X12483574Y-95359853D01*
X12744727Y-95251680D01*
X12979759Y-95094637D01*
X13179637Y-94894759D01*
X13336680Y-94659727D01*
X13444853Y-94398574D01*
X13500000Y-94121335D01*
X13500000Y-93838665D01*
X13444853Y-93561426D01*
X13336680Y-93300273D01*
X13179637Y-93065241D01*
X12979759Y-92865363D01*
X12744727Y-92708320D01*
X12483574Y-92600147D01*
X12206335Y-92545000D01*
X11923665Y-92545000D01*
X11646426Y-92600147D01*
X11385273Y-92708320D01*
X11150241Y-92865363D01*
X10950363Y-93065241D01*
X10793320Y-93300273D01*
X10685147Y-93561426D01*
X10630000Y-93838665D01*
X5880000Y-93838665D01*
X5824853Y-93561426D01*
X5716680Y-93300273D01*
X5559637Y-93065241D01*
X5359759Y-92865363D01*
X5124727Y-92708320D01*
X4863574Y-92600147D01*
X4586335Y-92545000D01*
X4303665Y-92545000D01*
X4026426Y-92600147D01*
X3765273Y-92708320D01*
X3530241Y-92865363D01*
X3330363Y-93065241D01*
X3173320Y-93300273D01*
X3065147Y-93561426D01*
X3010000Y-93838665D01*
X660000Y-93838665D01*
X660000Y-91904117D01*
X14775000Y-91904117D01*
X14775000Y-92245883D01*
X14841675Y-92581081D01*
X14972463Y-92896831D01*
X15162337Y-93180998D01*
X15404002Y-93422663D01*
X15688169Y-93612537D01*
X16003919Y-93743325D01*
X16339117Y-93810000D01*
X16680883Y-93810000D01*
X17016081Y-93743325D01*
X17331831Y-93612537D01*
X17615998Y-93422663D01*
X17857663Y-93180998D01*
X18047537Y-92896831D01*
X18178325Y-92581081D01*
X18245000Y-92245883D01*
X18245000Y-91904117D01*
X18178325Y-91568919D01*
X18047537Y-91253169D01*
X17857663Y-90969002D01*
X17615998Y-90727337D01*
X17331831Y-90537463D01*
X17016081Y-90406675D01*
X16680883Y-90340000D01*
X16339117Y-90340000D01*
X16003919Y-90406675D01*
X15688169Y-90537463D01*
X15404002Y-90727337D01*
X15162337Y-90969002D01*
X14972463Y-91253169D01*
X14841675Y-91568919D01*
X14775000Y-91904117D01*
X660000Y-91904117D01*
X660000Y-89944759D01*
X680393Y-89969608D01*
X898900Y-90148932D01*
X1148193Y-90282182D01*
X1418692Y-90364236D01*
X1700000Y-90391943D01*
X1981309Y-90364236D01*
X2251808Y-90282182D01*
X2501101Y-90148932D01*
X2719608Y-89969608D01*
X2898932Y-89751101D01*
X3032182Y-89501808D01*
X3114236Y-89231309D01*
X3135000Y-89020492D01*
X3135000Y-87079509D01*
X5565000Y-87079509D01*
X5565001Y-89120492D01*
X5585765Y-89331309D01*
X5667819Y-89601808D01*
X5801069Y-89851101D01*
X5980393Y-90069608D01*
X6198900Y-90248932D01*
X6448193Y-90382182D01*
X6718692Y-90464236D01*
X7000000Y-90491943D01*
X7281309Y-90464236D01*
X7551808Y-90382182D01*
X7801101Y-90248932D01*
X8019608Y-90069608D01*
X8198932Y-89851101D01*
X8332182Y-89601808D01*
X8414236Y-89331309D01*
X8435000Y-89120492D01*
X8435000Y-87079509D01*
X11365000Y-87079509D01*
X11365001Y-89120492D01*
X11385765Y-89331309D01*
X11467819Y-89601808D01*
X11601069Y-89851101D01*
X11780393Y-90069608D01*
X11998900Y-90248932D01*
X12248193Y-90382182D01*
X12518692Y-90464236D01*
X12800000Y-90491943D01*
X13081309Y-90464236D01*
X13351808Y-90382182D01*
X13601101Y-90248932D01*
X13819608Y-90069608D01*
X13998932Y-89851101D01*
X14132182Y-89601808D01*
X14214236Y-89331309D01*
X14235000Y-89120492D01*
X14235000Y-87079508D01*
X14214236Y-86868691D01*
X14132182Y-86598192D01*
X13998932Y-86348899D01*
X13819607Y-86130392D01*
X13601100Y-85951068D01*
X13351807Y-85817818D01*
X13081308Y-85735764D01*
X12800000Y-85708057D01*
X12518691Y-85735764D01*
X12248192Y-85817818D01*
X11998899Y-85951068D01*
X11780392Y-86130393D01*
X11601068Y-86348900D01*
X11467818Y-86598193D01*
X11385764Y-86868692D01*
X11365000Y-87079509D01*
X8435000Y-87079509D01*
X8435000Y-87079508D01*
X8414236Y-86868691D01*
X8332182Y-86598192D01*
X8198932Y-86348899D01*
X8019607Y-86130392D01*
X7801100Y-85951068D01*
X7551807Y-85817818D01*
X7281308Y-85735764D01*
X7000000Y-85708057D01*
X6718691Y-85735764D01*
X6448192Y-85817818D01*
X6198899Y-85951068D01*
X5980392Y-86130393D01*
X5801068Y-86348900D01*
X5667818Y-86598193D01*
X5585764Y-86868692D01*
X5565000Y-87079509D01*
X3135000Y-87079509D01*
X3135000Y-86979508D01*
X3114236Y-86768691D01*
X3032182Y-86498192D01*
X2898932Y-86248899D01*
X2719607Y-86030392D01*
X2501100Y-85851068D01*
X2251807Y-85717818D01*
X1981308Y-85635764D01*
X1700000Y-85608057D01*
X1418691Y-85635764D01*
X1148192Y-85717818D01*
X898899Y-85851068D01*
X680392Y-86030393D01*
X660000Y-86055241D01*
X660000Y-84353061D01*
X6585000Y-84353061D01*
X6585000Y-84556939D01*
X6624774Y-84756898D01*
X6702795Y-84945256D01*
X6816063Y-85114774D01*
X6960226Y-85258937D01*
X7129744Y-85372205D01*
X7318102Y-85450226D01*
X7518061Y-85490000D01*
X7721939Y-85490000D01*
X7921898Y-85450226D01*
X8110256Y-85372205D01*
X8233285Y-85290000D01*
X10181715Y-85290000D01*
X10304744Y-85372205D01*
X10493102Y-85450226D01*
X10693061Y-85490000D01*
X10896939Y-85490000D01*
X11096898Y-85450226D01*
X11285256Y-85372205D01*
X11454774Y-85258937D01*
X11598937Y-85114774D01*
X11712205Y-84945256D01*
X11790226Y-84756898D01*
X11830000Y-84556939D01*
X11830000Y-84353061D01*
X11790226Y-84153102D01*
X11712205Y-83964744D01*
X11598937Y-83795226D01*
X11454774Y-83651063D01*
X11285256Y-83537795D01*
X11096898Y-83459774D01*
X10896939Y-83420000D01*
X10693061Y-83420000D01*
X10493102Y-83459774D01*
X10304744Y-83537795D01*
X10181715Y-83620000D01*
X8233285Y-83620000D01*
X8110256Y-83537795D01*
X7921898Y-83459774D01*
X7721939Y-83420000D01*
X7518061Y-83420000D01*
X7318102Y-83459774D01*
X7129744Y-83537795D01*
X6960226Y-83651063D01*
X6816063Y-83795226D01*
X6702795Y-83964744D01*
X6624774Y-84153102D01*
X6585000Y-84353061D01*
X660000Y-84353061D01*
X660000Y-81773665D01*
X3010000Y-81773665D01*
X3010000Y-82056335D01*
X3065147Y-82333574D01*
X3173320Y-82594727D01*
X3330363Y-82829759D01*
X3530241Y-83029637D01*
X3765273Y-83186680D01*
X4026426Y-83294853D01*
X4303665Y-83350000D01*
X4586335Y-83350000D01*
X4863574Y-83294853D01*
X5124727Y-83186680D01*
X5359759Y-83029637D01*
X5559637Y-82829759D01*
X5716680Y-82594727D01*
X5824853Y-82333574D01*
X5880000Y-82056335D01*
X5880000Y-81773665D01*
X10630000Y-81773665D01*
X10630000Y-82056335D01*
X10685147Y-82333574D01*
X10793320Y-82594727D01*
X10950363Y-82829759D01*
X11150241Y-83029637D01*
X11385273Y-83186680D01*
X11646426Y-83294853D01*
X11923665Y-83350000D01*
X12206335Y-83350000D01*
X12483574Y-83294853D01*
X12744727Y-83186680D01*
X12979759Y-83029637D01*
X13179637Y-82829759D01*
X13336680Y-82594727D01*
X13444853Y-82333574D01*
X13500000Y-82056335D01*
X13500000Y-81773665D01*
X13444853Y-81496426D01*
X13336680Y-81235273D01*
X13179637Y-81000241D01*
X12994396Y-80815000D01*
X14771928Y-80815000D01*
X14771928Y-83015000D01*
X14784188Y-83139482D01*
X14820498Y-83259180D01*
X14879463Y-83369494D01*
X14958815Y-83466185D01*
X15055506Y-83545537D01*
X15165820Y-83604502D01*
X15285518Y-83640812D01*
X15410000Y-83653072D01*
X17610000Y-83653072D01*
X17734482Y-83640812D01*
X17854180Y-83604502D01*
X17964494Y-83545537D01*
X18061185Y-83466185D01*
X18140537Y-83369494D01*
X18199502Y-83259180D01*
X18235812Y-83139482D01*
X18248072Y-83015000D01*
X18248072Y-80815000D01*
X18235812Y-80690518D01*
X18199502Y-80570820D01*
X18140537Y-80460506D01*
X18061185Y-80363815D01*
X17964494Y-80284463D01*
X17854180Y-80225498D01*
X17734482Y-80189188D01*
X17610000Y-80176928D01*
X15410000Y-80176928D01*
X15285518Y-80189188D01*
X15165820Y-80225498D01*
X15055506Y-80284463D01*
X14958815Y-80363815D01*
X14879463Y-80460506D01*
X14820498Y-80570820D01*
X14784188Y-80690518D01*
X14771928Y-80815000D01*
X12994396Y-80815000D01*
X12979759Y-80800363D01*
X12744727Y-80643320D01*
X12483574Y-80535147D01*
X12206335Y-80480000D01*
X11923665Y-80480000D01*
X11646426Y-80535147D01*
X11385273Y-80643320D01*
X11150241Y-80800363D01*
X10950363Y-81000241D01*
X10793320Y-81235273D01*
X10685147Y-81496426D01*
X10630000Y-81773665D01*
X5880000Y-81773665D01*
X5824853Y-81496426D01*
X5716680Y-81235273D01*
X5559637Y-81000241D01*
X5359759Y-80800363D01*
X5124727Y-80643320D01*
X4863574Y-80535147D01*
X4586335Y-80480000D01*
X4303665Y-80480000D01*
X4026426Y-80535147D01*
X3765273Y-80643320D01*
X3530241Y-80800363D01*
X3330363Y-81000241D01*
X3173320Y-81235273D01*
X3065147Y-81496426D01*
X3010000Y-81773665D01*
X660000Y-81773665D01*
X660000Y-79839117D01*
X19855000Y-79839117D01*
X19855000Y-80180883D01*
X19921675Y-80516081D01*
X20052463Y-80831831D01*
X20242337Y-81115998D01*
X20484002Y-81357663D01*
X20768169Y-81547537D01*
X21083919Y-81678325D01*
X21419117Y-81745000D01*
X21760883Y-81745000D01*
X22096081Y-81678325D01*
X22411831Y-81547537D01*
X22695998Y-81357663D01*
X22937663Y-81115998D01*
X23127537Y-80831831D01*
X23258325Y-80516081D01*
X23325000Y-80180883D01*
X23325000Y-79839117D01*
X23258325Y-79503919D01*
X23127537Y-79188169D01*
X22937663Y-78904002D01*
X22695998Y-78662337D01*
X22411831Y-78472463D01*
X22096081Y-78341675D01*
X21760883Y-78275000D01*
X21419117Y-78275000D01*
X21083919Y-78341675D01*
X20768169Y-78472463D01*
X20484002Y-78662337D01*
X20242337Y-78904002D01*
X20052463Y-79188169D01*
X19921675Y-79503919D01*
X19855000Y-79839117D01*
X660000Y-79839117D01*
X660000Y-77944759D01*
X680393Y-77969608D01*
X898900Y-78148932D01*
X1148193Y-78282182D01*
X1418692Y-78364236D01*
X1700000Y-78391943D01*
X1981309Y-78364236D01*
X2251808Y-78282182D01*
X2501101Y-78148932D01*
X2719608Y-77969608D01*
X2898932Y-77751101D01*
X3032182Y-77501808D01*
X3114236Y-77231309D01*
X3135000Y-77020492D01*
X3135000Y-75079509D01*
X5565000Y-75079509D01*
X5565001Y-77120492D01*
X5585765Y-77331309D01*
X5667819Y-77601808D01*
X5801069Y-77851101D01*
X5980393Y-78069608D01*
X6198900Y-78248932D01*
X6448193Y-78382182D01*
X6718692Y-78464236D01*
X7000000Y-78491943D01*
X7281309Y-78464236D01*
X7551808Y-78382182D01*
X7801101Y-78248932D01*
X8019608Y-78069608D01*
X8198932Y-77851101D01*
X8332182Y-77601808D01*
X8414236Y-77331309D01*
X8435000Y-77120492D01*
X8435000Y-75079509D01*
X11365000Y-75079509D01*
X11365001Y-77120492D01*
X11385765Y-77331309D01*
X11467819Y-77601808D01*
X11601069Y-77851101D01*
X11780393Y-78069608D01*
X11998900Y-78248932D01*
X12248193Y-78382182D01*
X12518692Y-78464236D01*
X12800000Y-78491943D01*
X13081309Y-78464236D01*
X13351808Y-78382182D01*
X13601101Y-78248932D01*
X13819608Y-78069608D01*
X13998932Y-77851101D01*
X14132182Y-77601808D01*
X14214236Y-77331309D01*
X14235000Y-77120492D01*
X14235000Y-75079508D01*
X14214236Y-74868691D01*
X14132182Y-74598192D01*
X13998932Y-74348899D01*
X13819607Y-74130392D01*
X13601100Y-73951068D01*
X13351807Y-73817818D01*
X13081308Y-73735764D01*
X12800000Y-73708057D01*
X12518691Y-73735764D01*
X12248192Y-73817818D01*
X11998899Y-73951068D01*
X11780392Y-74130393D01*
X11601068Y-74348900D01*
X11467818Y-74598193D01*
X11385764Y-74868692D01*
X11365000Y-75079509D01*
X8435000Y-75079509D01*
X8435000Y-75079508D01*
X8414236Y-74868691D01*
X8332182Y-74598192D01*
X8198932Y-74348899D01*
X8019607Y-74130392D01*
X7801100Y-73951068D01*
X7551807Y-73817818D01*
X7281308Y-73735764D01*
X7000000Y-73708057D01*
X6718691Y-73735764D01*
X6448192Y-73817818D01*
X6198899Y-73951068D01*
X5980392Y-74130393D01*
X5801068Y-74348900D01*
X5667818Y-74598193D01*
X5585764Y-74868692D01*
X5565000Y-75079509D01*
X3135000Y-75079509D01*
X3135000Y-74979508D01*
X3114236Y-74768691D01*
X3032182Y-74498192D01*
X2898932Y-74248899D01*
X2719607Y-74030392D01*
X2501100Y-73851068D01*
X2251807Y-73717818D01*
X1981308Y-73635764D01*
X1700000Y-73608057D01*
X1418691Y-73635764D01*
X1148192Y-73717818D01*
X898899Y-73851068D01*
X680392Y-74030393D01*
X660000Y-74055241D01*
X660000Y-69708665D01*
X7455000Y-69708665D01*
X7455000Y-69991335D01*
X7510147Y-70268574D01*
X7618320Y-70529727D01*
X7775363Y-70764759D01*
X7975241Y-70964637D01*
X8210273Y-71121680D01*
X8471426Y-71229853D01*
X8748665Y-71285000D01*
X9031335Y-71285000D01*
X9308574Y-71229853D01*
X9569727Y-71121680D01*
X9804759Y-70964637D01*
X10004637Y-70764759D01*
X10161680Y-70529727D01*
X10269853Y-70268574D01*
X10325000Y-69991335D01*
X10325000Y-69708665D01*
X15075000Y-69708665D01*
X15075000Y-69991335D01*
X15130147Y-70268574D01*
X15238320Y-70529727D01*
X15395363Y-70764759D01*
X15595241Y-70964637D01*
X15830273Y-71121680D01*
X16091426Y-71229853D01*
X16368665Y-71285000D01*
X16651335Y-71285000D01*
X16928574Y-71229853D01*
X17189727Y-71121680D01*
X17424759Y-70964637D01*
X17624637Y-70764759D01*
X17781680Y-70529727D01*
X17889853Y-70268574D01*
X17945000Y-69991335D01*
X17945000Y-69708665D01*
X17889853Y-69431426D01*
X17781680Y-69170273D01*
X17624637Y-68935241D01*
X17439396Y-68750000D01*
X19851928Y-68750000D01*
X19851928Y-70950000D01*
X19864188Y-71074482D01*
X19900498Y-71194180D01*
X19959463Y-71304494D01*
X20038815Y-71401185D01*
X20135506Y-71480537D01*
X20245820Y-71539502D01*
X20365518Y-71575812D01*
X20490000Y-71588072D01*
X22690000Y-71588072D01*
X22814482Y-71575812D01*
X22934180Y-71539502D01*
X23044494Y-71480537D01*
X23141185Y-71401185D01*
X23220537Y-71304494D01*
X23279502Y-71194180D01*
X23315812Y-71074482D01*
X23328072Y-70950000D01*
X23328072Y-68750000D01*
X23315812Y-68625518D01*
X23279502Y-68505820D01*
X23220537Y-68395506D01*
X23141185Y-68298815D01*
X23044494Y-68219463D01*
X22934180Y-68160498D01*
X22814482Y-68124188D01*
X22690000Y-68111928D01*
X20490000Y-68111928D01*
X20365518Y-68124188D01*
X20245820Y-68160498D01*
X20135506Y-68219463D01*
X20038815Y-68298815D01*
X19959463Y-68395506D01*
X19900498Y-68505820D01*
X19864188Y-68625518D01*
X19851928Y-68750000D01*
X17439396Y-68750000D01*
X17424759Y-68735363D01*
X17189727Y-68578320D01*
X16928574Y-68470147D01*
X16651335Y-68415000D01*
X16368665Y-68415000D01*
X16091426Y-68470147D01*
X15830273Y-68578320D01*
X15595241Y-68735363D01*
X15395363Y-68935241D01*
X15238320Y-69170273D01*
X15130147Y-69431426D01*
X15075000Y-69708665D01*
X10325000Y-69708665D01*
X10269853Y-69431426D01*
X10161680Y-69170273D01*
X10004637Y-68935241D01*
X9804759Y-68735363D01*
X9569727Y-68578320D01*
X9308574Y-68470147D01*
X9031335Y-68415000D01*
X8748665Y-68415000D01*
X8471426Y-68470147D01*
X8210273Y-68578320D01*
X7975241Y-68735363D01*
X7775363Y-68935241D01*
X7618320Y-69170273D01*
X7510147Y-69431426D01*
X7455000Y-69708665D01*
X660000Y-69708665D01*
X660000Y-67208061D01*
X2140000Y-67208061D01*
X2140000Y-67411939D01*
X2179774Y-67611898D01*
X2257795Y-67800256D01*
X2371063Y-67969774D01*
X2515226Y-68113937D01*
X2684744Y-68227205D01*
X2873102Y-68305226D01*
X3073061Y-68345000D01*
X3276939Y-68345000D01*
X3476898Y-68305226D01*
X3665256Y-68227205D01*
X3788285Y-68145000D01*
X6371715Y-68145000D01*
X6494744Y-68227205D01*
X6683102Y-68305226D01*
X6883061Y-68345000D01*
X7086939Y-68345000D01*
X7286898Y-68305226D01*
X7475256Y-68227205D01*
X7644774Y-68113937D01*
X7788937Y-67969774D01*
X7902205Y-67800256D01*
X7980226Y-67611898D01*
X8020000Y-67411939D01*
X8020000Y-67208061D01*
X7980226Y-67008102D01*
X7902205Y-66819744D01*
X7788937Y-66650226D01*
X7644774Y-66506063D01*
X7475256Y-66392795D01*
X7286898Y-66314774D01*
X7086939Y-66275000D01*
X6883061Y-66275000D01*
X6683102Y-66314774D01*
X6494744Y-66392795D01*
X6371715Y-66475000D01*
X3788285Y-66475000D01*
X3665256Y-66392795D01*
X3476898Y-66314774D01*
X3276939Y-66275000D01*
X3073061Y-66275000D01*
X2873102Y-66314774D01*
X2684744Y-66392795D01*
X2515226Y-66506063D01*
X2371063Y-66650226D01*
X2257795Y-66819744D01*
X2179774Y-67008102D01*
X2140000Y-67208061D01*
X660000Y-67208061D01*
X660000Y-65898665D01*
X11265000Y-65898665D01*
X11265000Y-66181335D01*
X11320147Y-66458574D01*
X11428320Y-66719727D01*
X11585363Y-66954759D01*
X11785241Y-67154637D01*
X12020273Y-67311680D01*
X12281426Y-67419853D01*
X12558665Y-67475000D01*
X12841335Y-67475000D01*
X13118574Y-67419853D01*
X13379727Y-67311680D01*
X13614759Y-67154637D01*
X13814637Y-66954759D01*
X13971680Y-66719727D01*
X14079853Y-66458574D01*
X14135000Y-66181335D01*
X14135000Y-65898665D01*
X16265000Y-65898665D01*
X16265000Y-66181335D01*
X16320147Y-66458574D01*
X16428320Y-66719727D01*
X16585363Y-66954759D01*
X16785241Y-67154637D01*
X17020273Y-67311680D01*
X17281426Y-67419853D01*
X17558665Y-67475000D01*
X17841335Y-67475000D01*
X18118574Y-67419853D01*
X18379727Y-67311680D01*
X18614759Y-67154637D01*
X18814637Y-66954759D01*
X18971680Y-66719727D01*
X19079853Y-66458574D01*
X19135000Y-66181335D01*
X19135000Y-65898665D01*
X19079853Y-65621426D01*
X18971680Y-65360273D01*
X18814637Y-65125241D01*
X18614759Y-64925363D01*
X18379727Y-64768320D01*
X18118574Y-64660147D01*
X17841335Y-64605000D01*
X17558665Y-64605000D01*
X17281426Y-64660147D01*
X17020273Y-64768320D01*
X16785241Y-64925363D01*
X16585363Y-65125241D01*
X16428320Y-65360273D01*
X16320147Y-65621426D01*
X16265000Y-65898665D01*
X14135000Y-65898665D01*
X14079853Y-65621426D01*
X13971680Y-65360273D01*
X13814637Y-65125241D01*
X13614759Y-64925363D01*
X13379727Y-64768320D01*
X13118574Y-64660147D01*
X12841335Y-64605000D01*
X12558665Y-64605000D01*
X12281426Y-64660147D01*
X12020273Y-64768320D01*
X11785241Y-64925363D01*
X11585363Y-65125241D01*
X11428320Y-65360273D01*
X11320147Y-65621426D01*
X11265000Y-65898665D01*
X660000Y-65898665D01*
X660000Y-61759508D01*
X1105000Y-61759508D01*
X1105000Y-62700491D01*
X1125764Y-62911308D01*
X1207818Y-63181807D01*
X1341068Y-63431100D01*
X1520392Y-63649607D01*
X1738899Y-63828932D01*
X1988192Y-63962182D01*
X2258691Y-64044236D01*
X2540000Y-64071943D01*
X2821308Y-64044236D01*
X3091807Y-63962182D01*
X3341100Y-63828932D01*
X3559607Y-63649608D01*
X3738932Y-63431101D01*
X3810000Y-63298142D01*
X3881068Y-63431100D01*
X4060392Y-63649607D01*
X4278899Y-63828932D01*
X4528192Y-63962182D01*
X4798691Y-64044236D01*
X5080000Y-64071943D01*
X5361308Y-64044236D01*
X5631807Y-63962182D01*
X5881100Y-63828932D01*
X6099607Y-63649608D01*
X6278932Y-63431101D01*
X6347265Y-63303259D01*
X6497399Y-63532839D01*
X6695105Y-63734500D01*
X6928354Y-63893715D01*
X7188182Y-64004367D01*
X7270961Y-64021904D01*
X7493000Y-63899915D01*
X7493000Y-62357000D01*
X7473000Y-62357000D01*
X7473000Y-62103000D01*
X7493000Y-62103000D01*
X7493000Y-60560085D01*
X7747000Y-60560085D01*
X7747000Y-62103000D01*
X7767000Y-62103000D01*
X7767000Y-62357000D01*
X7747000Y-62357000D01*
X7747000Y-63899915D01*
X7969039Y-64021904D01*
X8051818Y-64004367D01*
X8311646Y-63893715D01*
X8544895Y-63734500D01*
X8742601Y-63532839D01*
X8892735Y-63303258D01*
X8961068Y-63431100D01*
X9140392Y-63649607D01*
X9358899Y-63828932D01*
X9608192Y-63962182D01*
X9878691Y-64044236D01*
X10160000Y-64071943D01*
X10441308Y-64044236D01*
X10711807Y-63962182D01*
X10961100Y-63828932D01*
X11179607Y-63649608D01*
X11358932Y-63431101D01*
X11430000Y-63298142D01*
X11501068Y-63431100D01*
X11680392Y-63649607D01*
X11898899Y-63828932D01*
X12148192Y-63962182D01*
X12418691Y-64044236D01*
X12700000Y-64071943D01*
X12981308Y-64044236D01*
X13251807Y-63962182D01*
X13501100Y-63828932D01*
X13719607Y-63649608D01*
X13898932Y-63431101D01*
X13970000Y-63298142D01*
X14041068Y-63431100D01*
X14220392Y-63649607D01*
X14438899Y-63828932D01*
X14688192Y-63962182D01*
X14958691Y-64044236D01*
X15240000Y-64071943D01*
X15521308Y-64044236D01*
X15791807Y-63962182D01*
X16041100Y-63828932D01*
X16259607Y-63649608D01*
X16438932Y-63431101D01*
X16507265Y-63303259D01*
X16657399Y-63532839D01*
X16855105Y-63734500D01*
X17088354Y-63893715D01*
X17348182Y-64004367D01*
X17430961Y-64021904D01*
X17653000Y-63899915D01*
X17653000Y-62357000D01*
X17907000Y-62357000D01*
X17907000Y-63899915D01*
X18129039Y-64021904D01*
X18211818Y-64004367D01*
X18471646Y-63893715D01*
X18704895Y-63734500D01*
X18902601Y-63532839D01*
X19057166Y-63296483D01*
X19162650Y-63034514D01*
X19215000Y-62757000D01*
X19215000Y-62357000D01*
X17907000Y-62357000D01*
X17653000Y-62357000D01*
X17633000Y-62357000D01*
X17633000Y-62103000D01*
X17653000Y-62103000D01*
X17653000Y-60560085D01*
X17907000Y-60560085D01*
X17907000Y-62103000D01*
X19215000Y-62103000D01*
X19215000Y-61703000D01*
X19162650Y-61425486D01*
X19057166Y-61163517D01*
X18902601Y-60927161D01*
X18704895Y-60725500D01*
X18471646Y-60566285D01*
X18211818Y-60455633D01*
X18129039Y-60438096D01*
X17907000Y-60560085D01*
X17653000Y-60560085D01*
X17430961Y-60438096D01*
X17348182Y-60455633D01*
X17088354Y-60566285D01*
X16855105Y-60725500D01*
X16657399Y-60927161D01*
X16507265Y-61156741D01*
X16438932Y-61028899D01*
X16259608Y-60810392D01*
X16041101Y-60631068D01*
X15791808Y-60497818D01*
X15521309Y-60415764D01*
X15240000Y-60388057D01*
X14958692Y-60415764D01*
X14688193Y-60497818D01*
X14438900Y-60631068D01*
X14220393Y-60810392D01*
X14041068Y-61028899D01*
X13970000Y-61161858D01*
X13898932Y-61028899D01*
X13719608Y-60810392D01*
X13501101Y-60631068D01*
X13251808Y-60497818D01*
X12981309Y-60415764D01*
X12700000Y-60388057D01*
X12418692Y-60415764D01*
X12148193Y-60497818D01*
X11898900Y-60631068D01*
X11680393Y-60810392D01*
X11501068Y-61028899D01*
X11430000Y-61161858D01*
X11358932Y-61028899D01*
X11179608Y-60810392D01*
X10961101Y-60631068D01*
X10711808Y-60497818D01*
X10441309Y-60415764D01*
X10160000Y-60388057D01*
X9878692Y-60415764D01*
X9608193Y-60497818D01*
X9358900Y-60631068D01*
X9140393Y-60810392D01*
X8961068Y-61028899D01*
X8892735Y-61156741D01*
X8742601Y-60927161D01*
X8544895Y-60725500D01*
X8311646Y-60566285D01*
X8051818Y-60455633D01*
X7969039Y-60438096D01*
X7747000Y-60560085D01*
X7493000Y-60560085D01*
X7270961Y-60438096D01*
X7188182Y-60455633D01*
X6928354Y-60566285D01*
X6695105Y-60725500D01*
X6497399Y-60927161D01*
X6347265Y-61156741D01*
X6278932Y-61028899D01*
X6099608Y-60810392D01*
X5881101Y-60631068D01*
X5631808Y-60497818D01*
X5361309Y-60415764D01*
X5080000Y-60388057D01*
X4798692Y-60415764D01*
X4528193Y-60497818D01*
X4278900Y-60631068D01*
X4060393Y-60810392D01*
X3881068Y-61028899D01*
X3810000Y-61161858D01*
X3738932Y-61028899D01*
X3559608Y-60810392D01*
X3341101Y-60631068D01*
X3091808Y-60497818D01*
X2821309Y-60415764D01*
X2540000Y-60388057D01*
X2258692Y-60415764D01*
X1988193Y-60497818D01*
X1738900Y-60631068D01*
X1520393Y-60810392D01*
X1341068Y-61028899D01*
X1207818Y-61278192D01*
X1125764Y-61548691D01*
X1105000Y-61759508D01*
X660000Y-61759508D01*
X660000Y-58318061D01*
X7220000Y-58318061D01*
X7220000Y-58521939D01*
X7259774Y-58721898D01*
X7337795Y-58910256D01*
X7451063Y-59079774D01*
X7595226Y-59223937D01*
X7764744Y-59337205D01*
X7953102Y-59415226D01*
X8153061Y-59455000D01*
X8356939Y-59455000D01*
X8556898Y-59415226D01*
X8745256Y-59337205D01*
X8868285Y-59255000D01*
X13356715Y-59255000D01*
X13479744Y-59337205D01*
X13668102Y-59415226D01*
X13868061Y-59455000D01*
X14071939Y-59455000D01*
X14271898Y-59415226D01*
X14460256Y-59337205D01*
X14583285Y-59255000D01*
X17801715Y-59255000D01*
X17924744Y-59337205D01*
X18113102Y-59415226D01*
X18313061Y-59455000D01*
X18516939Y-59455000D01*
X18716898Y-59415226D01*
X18905256Y-59337205D01*
X19074774Y-59223937D01*
X19218937Y-59079774D01*
X19332205Y-58910256D01*
X19410226Y-58721898D01*
X19450000Y-58521939D01*
X19450000Y-58318061D01*
X19410226Y-58118102D01*
X19332205Y-57929744D01*
X19218937Y-57760226D01*
X19074774Y-57616063D01*
X18905256Y-57502795D01*
X18716898Y-57424774D01*
X18516939Y-57385000D01*
X18313061Y-57385000D01*
X18113102Y-57424774D01*
X17924744Y-57502795D01*
X17801715Y-57585000D01*
X14583285Y-57585000D01*
X14460256Y-57502795D01*
X14271898Y-57424774D01*
X14071939Y-57385000D01*
X13868061Y-57385000D01*
X13668102Y-57424774D01*
X13479744Y-57502795D01*
X13356715Y-57585000D01*
X8868285Y-57585000D01*
X8745256Y-57502795D01*
X8556898Y-57424774D01*
X8356939Y-57385000D01*
X8153061Y-57385000D01*
X7953102Y-57424774D01*
X7764744Y-57502795D01*
X7595226Y-57616063D01*
X7451063Y-57760226D01*
X7337795Y-57929744D01*
X7259774Y-58118102D01*
X7220000Y-58318061D01*
X660000Y-58318061D01*
X660000Y-54139508D01*
X1105000Y-54139508D01*
X1105000Y-55080491D01*
X1125764Y-55291308D01*
X1207818Y-55561807D01*
X1341068Y-55811100D01*
X1520392Y-56029607D01*
X1738899Y-56208932D01*
X1988192Y-56342182D01*
X2258691Y-56424236D01*
X2540000Y-56451943D01*
X2821308Y-56424236D01*
X3091807Y-56342182D01*
X3341100Y-56208932D01*
X3559607Y-56029608D01*
X3738932Y-55811101D01*
X3810000Y-55678142D01*
X3881068Y-55811100D01*
X4060392Y-56029607D01*
X4278899Y-56208932D01*
X4528192Y-56342182D01*
X4798691Y-56424236D01*
X5080000Y-56451943D01*
X5361308Y-56424236D01*
X5631807Y-56342182D01*
X5881100Y-56208932D01*
X6099607Y-56029608D01*
X6278932Y-55811101D01*
X6350000Y-55678142D01*
X6421068Y-55811100D01*
X6600392Y-56029607D01*
X6818899Y-56208932D01*
X7068192Y-56342182D01*
X7338691Y-56424236D01*
X7620000Y-56451943D01*
X7901308Y-56424236D01*
X8171807Y-56342182D01*
X8421100Y-56208932D01*
X8639607Y-56029608D01*
X8818932Y-55811101D01*
X8887265Y-55683259D01*
X9037399Y-55912839D01*
X9235105Y-56114500D01*
X9468354Y-56273715D01*
X9728182Y-56384367D01*
X9810961Y-56401904D01*
X10033000Y-56279915D01*
X10033000Y-54737000D01*
X10013000Y-54737000D01*
X10013000Y-54483000D01*
X10033000Y-54483000D01*
X10033000Y-52940085D01*
X10287000Y-52940085D01*
X10287000Y-54483000D01*
X10307000Y-54483000D01*
X10307000Y-54737000D01*
X10287000Y-54737000D01*
X10287000Y-56279915D01*
X10509039Y-56401904D01*
X10591818Y-56384367D01*
X10851646Y-56273715D01*
X11084895Y-56114500D01*
X11282601Y-55912839D01*
X11432735Y-55683258D01*
X11501068Y-55811100D01*
X11680392Y-56029607D01*
X11898899Y-56208932D01*
X12148192Y-56342182D01*
X12418691Y-56424236D01*
X12700000Y-56451943D01*
X12981308Y-56424236D01*
X13251807Y-56342182D01*
X13501100Y-56208932D01*
X13719607Y-56029608D01*
X13898932Y-55811101D01*
X13970000Y-55678142D01*
X14041068Y-55811100D01*
X14220392Y-56029607D01*
X14438899Y-56208932D01*
X14688192Y-56342182D01*
X14958691Y-56424236D01*
X15240000Y-56451943D01*
X15521308Y-56424236D01*
X15791807Y-56342182D01*
X16041100Y-56208932D01*
X16259607Y-56029608D01*
X16352419Y-55916517D01*
X16354188Y-55934482D01*
X16390498Y-56054180D01*
X16449463Y-56164494D01*
X16528815Y-56261185D01*
X16625506Y-56340537D01*
X16735820Y-56399502D01*
X16855518Y-56435812D01*
X16980000Y-56448072D01*
X18580000Y-56448072D01*
X18704482Y-56435812D01*
X18824180Y-56399502D01*
X18934494Y-56340537D01*
X19031185Y-56261185D01*
X19110537Y-56164494D01*
X19169502Y-56054180D01*
X19205812Y-55934482D01*
X19218072Y-55810000D01*
X19218072Y-53410000D01*
X19205812Y-53285518D01*
X19169502Y-53165820D01*
X19110537Y-53055506D01*
X19031185Y-52958815D01*
X18934494Y-52879463D01*
X18824180Y-52820498D01*
X18704482Y-52784188D01*
X18580000Y-52771928D01*
X16980000Y-52771928D01*
X16855518Y-52784188D01*
X16735820Y-52820498D01*
X16625506Y-52879463D01*
X16528815Y-52958815D01*
X16449463Y-53055506D01*
X16390498Y-53165820D01*
X16354188Y-53285518D01*
X16352419Y-53303482D01*
X16259608Y-53190392D01*
X16041101Y-53011068D01*
X15791808Y-52877818D01*
X15521309Y-52795764D01*
X15240000Y-52768057D01*
X14958692Y-52795764D01*
X14688193Y-52877818D01*
X14438900Y-53011068D01*
X14220393Y-53190392D01*
X14041068Y-53408899D01*
X13970000Y-53541858D01*
X13898932Y-53408899D01*
X13719608Y-53190392D01*
X13501101Y-53011068D01*
X13251808Y-52877818D01*
X12981309Y-52795764D01*
X12700000Y-52768057D01*
X12418692Y-52795764D01*
X12148193Y-52877818D01*
X11898900Y-53011068D01*
X11680393Y-53190392D01*
X11501068Y-53408899D01*
X11432735Y-53536741D01*
X11282601Y-53307161D01*
X11084895Y-53105500D01*
X10851646Y-52946285D01*
X10591818Y-52835633D01*
X10509039Y-52818096D01*
X10287000Y-52940085D01*
X10033000Y-52940085D01*
X9810961Y-52818096D01*
X9728182Y-52835633D01*
X9468354Y-52946285D01*
X9235105Y-53105500D01*
X9037399Y-53307161D01*
X8887265Y-53536741D01*
X8818932Y-53408899D01*
X8639608Y-53190392D01*
X8421101Y-53011068D01*
X8171808Y-52877818D01*
X7901309Y-52795764D01*
X7620000Y-52768057D01*
X7338692Y-52795764D01*
X7068193Y-52877818D01*
X6818900Y-53011068D01*
X6600393Y-53190392D01*
X6421068Y-53408899D01*
X6350000Y-53541858D01*
X6278932Y-53408899D01*
X6099608Y-53190392D01*
X5881101Y-53011068D01*
X5631808Y-52877818D01*
X5361309Y-52795764D01*
X5080000Y-52768057D01*
X4798692Y-52795764D01*
X4528193Y-52877818D01*
X4278900Y-53011068D01*
X4060393Y-53190392D01*
X3881068Y-53408899D01*
X3810000Y-53541858D01*
X3738932Y-53408899D01*
X3559608Y-53190392D01*
X3341101Y-53011068D01*
X3091808Y-52877818D01*
X2821309Y-52795764D01*
X2540000Y-52768057D01*
X2258692Y-52795764D01*
X1988193Y-52877818D01*
X1738900Y-53011068D01*
X1520393Y-53190392D01*
X1341068Y-53408899D01*
X1207818Y-53658192D01*
X1125764Y-53928691D01*
X1105000Y-54139508D01*
X660000Y-54139508D01*
X660000Y-50658665D01*
X8725000Y-50658665D01*
X8725000Y-50941335D01*
X8780147Y-51218574D01*
X8888320Y-51479727D01*
X9045363Y-51714759D01*
X9245241Y-51914637D01*
X9480273Y-52071680D01*
X9741426Y-52179853D01*
X10018665Y-52235000D01*
X10301335Y-52235000D01*
X10578574Y-52179853D01*
X10839727Y-52071680D01*
X11074759Y-51914637D01*
X11274637Y-51714759D01*
X11371333Y-51570044D01*
X11405226Y-51603937D01*
X11574744Y-51717205D01*
X11763102Y-51795226D01*
X11963061Y-51835000D01*
X12166939Y-51835000D01*
X12366898Y-51795226D01*
X12555256Y-51717205D01*
X12724774Y-51603937D01*
X12868937Y-51459774D01*
X12982205Y-51290256D01*
X13060226Y-51101898D01*
X13100000Y-50901939D01*
X13100000Y-50698061D01*
X13092164Y-50658665D01*
X16345000Y-50658665D01*
X16345000Y-50941335D01*
X16400147Y-51218574D01*
X16508320Y-51479727D01*
X16665363Y-51714759D01*
X16865241Y-51914637D01*
X17100273Y-52071680D01*
X17361426Y-52179853D01*
X17638665Y-52235000D01*
X17921335Y-52235000D01*
X18198574Y-52179853D01*
X18459727Y-52071680D01*
X18694759Y-51914637D01*
X18894637Y-51714759D01*
X19051680Y-51479727D01*
X19159853Y-51218574D01*
X19215000Y-50941335D01*
X19215000Y-50658665D01*
X19159853Y-50381426D01*
X19051680Y-50120273D01*
X18894637Y-49885241D01*
X18694759Y-49685363D01*
X18459727Y-49528320D01*
X18198574Y-49420147D01*
X17921335Y-49365000D01*
X17638665Y-49365000D01*
X17361426Y-49420147D01*
X17100273Y-49528320D01*
X16865241Y-49685363D01*
X16665363Y-49885241D01*
X16508320Y-50120273D01*
X16400147Y-50381426D01*
X16345000Y-50658665D01*
X13092164Y-50658665D01*
X13060226Y-50498102D01*
X12982205Y-50309744D01*
X12900000Y-50186715D01*
X12900000Y-46333285D01*
X12982205Y-46210256D01*
X13060226Y-46021898D01*
X13100000Y-45821939D01*
X13100000Y-45618061D01*
X13060226Y-45418102D01*
X12982205Y-45229744D01*
X12868937Y-45060226D01*
X12724774Y-44916063D01*
X12555256Y-44802795D01*
X12366898Y-44724774D01*
X12166939Y-44685000D01*
X11963061Y-44685000D01*
X11763102Y-44724774D01*
X11574744Y-44802795D01*
X11405226Y-44916063D01*
X11261063Y-45060226D01*
X11147795Y-45229744D01*
X11069774Y-45418102D01*
X11030000Y-45618061D01*
X11030000Y-45821939D01*
X11069774Y-46021898D01*
X11147795Y-46210256D01*
X11230000Y-46333285D01*
X11230001Y-49840605D01*
X11074759Y-49685363D01*
X10839727Y-49528320D01*
X10578574Y-49420147D01*
X10301335Y-49365000D01*
X10018665Y-49365000D01*
X9741426Y-49420147D01*
X9480273Y-49528320D01*
X9245241Y-49685363D01*
X9045363Y-49885241D01*
X8888320Y-50120273D01*
X8780147Y-50381426D01*
X8725000Y-50658665D01*
X660000Y-50658665D01*
X660000Y-44308665D01*
X1185000Y-44308665D01*
X1185000Y-44591335D01*
X1240147Y-44868574D01*
X1348320Y-45129727D01*
X1505363Y-45364759D01*
X1705241Y-45564637D01*
X1937759Y-45720000D01*
X1705241Y-45875363D01*
X1505363Y-46075241D01*
X1348320Y-46310273D01*
X1240147Y-46571426D01*
X1185000Y-46848665D01*
X1185000Y-47131335D01*
X1240147Y-47408574D01*
X1348320Y-47669727D01*
X1505363Y-47904759D01*
X1705241Y-48104637D01*
X1940273Y-48261680D01*
X2201426Y-48369853D01*
X2478665Y-48425000D01*
X2761335Y-48425000D01*
X3038574Y-48369853D01*
X3299727Y-48261680D01*
X3534759Y-48104637D01*
X3734637Y-47904759D01*
X3891680Y-47669727D01*
X3999853Y-47408574D01*
X4055000Y-47131335D01*
X4055000Y-46848665D01*
X6185000Y-46848665D01*
X6185000Y-47131335D01*
X6240147Y-47408574D01*
X6348320Y-47669727D01*
X6505363Y-47904759D01*
X6705241Y-48104637D01*
X6940273Y-48261680D01*
X7201426Y-48369853D01*
X7478665Y-48425000D01*
X7761335Y-48425000D01*
X8038574Y-48369853D01*
X8299727Y-48261680D01*
X8534759Y-48104637D01*
X8734637Y-47904759D01*
X8891680Y-47669727D01*
X8999853Y-47408574D01*
X9055000Y-47131335D01*
X9055000Y-46848665D01*
X8999853Y-46571426D01*
X8891680Y-46310273D01*
X8734637Y-46075241D01*
X8534759Y-45875363D01*
X8300872Y-45719085D01*
X8361514Y-45686671D01*
X8433097Y-45442702D01*
X7620000Y-44629605D01*
X6806903Y-45442702D01*
X6878486Y-45686671D01*
X6942992Y-45717194D01*
X6940273Y-45718320D01*
X6705241Y-45875363D01*
X6505363Y-46075241D01*
X6348320Y-46310273D01*
X6240147Y-46571426D01*
X6185000Y-46848665D01*
X4055000Y-46848665D01*
X3999853Y-46571426D01*
X3891680Y-46310273D01*
X3734637Y-46075241D01*
X3534759Y-45875363D01*
X3302241Y-45720000D01*
X3534759Y-45564637D01*
X3734637Y-45364759D01*
X3891680Y-45129727D01*
X3999853Y-44868574D01*
X4055000Y-44591335D01*
X4055000Y-44520512D01*
X6179783Y-44520512D01*
X6221213Y-44800130D01*
X6316397Y-45066292D01*
X6383329Y-45191514D01*
X6627298Y-45263097D01*
X7440395Y-44450000D01*
X7799605Y-44450000D01*
X8612702Y-45263097D01*
X8856671Y-45191514D01*
X8977571Y-44936004D01*
X9046300Y-44661816D01*
X9060217Y-44379488D01*
X9018787Y-44099870D01*
X8923603Y-43833708D01*
X8856671Y-43708486D01*
X8612702Y-43636903D01*
X7799605Y-44450000D01*
X7440395Y-44450000D01*
X6627298Y-43636903D01*
X6383329Y-43708486D01*
X6262429Y-43963996D01*
X6193700Y-44238184D01*
X6179783Y-44520512D01*
X4055000Y-44520512D01*
X4055000Y-44308665D01*
X3999853Y-44031426D01*
X3891680Y-43770273D01*
X3734637Y-43535241D01*
X3656694Y-43457298D01*
X6806903Y-43457298D01*
X7620000Y-44270395D01*
X8433097Y-43457298D01*
X8361514Y-43213329D01*
X8106004Y-43092429D01*
X7831816Y-43023700D01*
X7549488Y-43009783D01*
X7269870Y-43051213D01*
X7003708Y-43146397D01*
X6878486Y-43213329D01*
X6806903Y-43457298D01*
X3656694Y-43457298D01*
X3534759Y-43335363D01*
X3299727Y-43178320D01*
X3038574Y-43070147D01*
X2761335Y-43015000D01*
X2478665Y-43015000D01*
X2201426Y-43070147D01*
X1940273Y-43178320D01*
X1705241Y-43335363D01*
X1505363Y-43535241D01*
X1348320Y-43770273D01*
X1240147Y-44031426D01*
X1185000Y-44308665D01*
X660000Y-44308665D01*
X660000Y-37908816D01*
X3545000Y-37908816D01*
X3545000Y-38211184D01*
X3603989Y-38507743D01*
X3719701Y-38787095D01*
X3887688Y-39038505D01*
X4101495Y-39252312D01*
X4187831Y-39310000D01*
X4101495Y-39367688D01*
X3887688Y-39581495D01*
X3719701Y-39832905D01*
X3603989Y-40112257D01*
X3545000Y-40408816D01*
X3545000Y-40711184D01*
X3603989Y-41007743D01*
X3719701Y-41287095D01*
X3887688Y-41538505D01*
X4101495Y-41752312D01*
X4352905Y-41920299D01*
X4632257Y-42036011D01*
X4928816Y-42095000D01*
X5231184Y-42095000D01*
X5527743Y-42036011D01*
X5807095Y-41920299D01*
X6034031Y-41768665D01*
X8725000Y-41768665D01*
X8725000Y-42051335D01*
X8780147Y-42328574D01*
X8888320Y-42589727D01*
X9045363Y-42824759D01*
X9245241Y-43024637D01*
X9480273Y-43181680D01*
X9741426Y-43289853D01*
X10018665Y-43345000D01*
X10301335Y-43345000D01*
X10578574Y-43289853D01*
X10839727Y-43181680D01*
X11074759Y-43024637D01*
X11274637Y-42824759D01*
X11431680Y-42589727D01*
X11539853Y-42328574D01*
X11595000Y-42051335D01*
X11595000Y-41768665D01*
X11539853Y-41491426D01*
X11431680Y-41230273D01*
X11274637Y-40995241D01*
X11074759Y-40795363D01*
X10839727Y-40638320D01*
X10578574Y-40530147D01*
X10301335Y-40475000D01*
X10018665Y-40475000D01*
X9741426Y-40530147D01*
X9480273Y-40638320D01*
X9245241Y-40795363D01*
X9045363Y-40995241D01*
X8888320Y-41230273D01*
X8780147Y-41491426D01*
X8725000Y-41768665D01*
X6034031Y-41768665D01*
X6058505Y-41752312D01*
X6272312Y-41538505D01*
X6440299Y-41287095D01*
X6556011Y-41007743D01*
X6615000Y-40711184D01*
X6615000Y-40408816D01*
X6556011Y-40112257D01*
X6440299Y-39832905D01*
X6272312Y-39581495D01*
X6058505Y-39367688D01*
X5972169Y-39310000D01*
X6058505Y-39252312D01*
X6272312Y-39038505D01*
X6440299Y-38787095D01*
X6556011Y-38507743D01*
X6615000Y-38211184D01*
X6615000Y-37908816D01*
X6556011Y-37612257D01*
X6440299Y-37332905D01*
X6272312Y-37081495D01*
X6058505Y-36867688D01*
X5915690Y-36772262D01*
X5964475Y-36624080D01*
X5080000Y-35739605D01*
X4195525Y-36624080D01*
X4244310Y-36772262D01*
X4101495Y-36867688D01*
X3887688Y-37081495D01*
X3719701Y-37332905D01*
X3603989Y-37612257D01*
X3545000Y-37908816D01*
X660000Y-37908816D01*
X660000Y-35626553D01*
X3539009Y-35626553D01*
X3581603Y-35925907D01*
X3681778Y-36211199D01*
X3761739Y-36360792D01*
X4015920Y-36444475D01*
X4900395Y-35560000D01*
X5259605Y-35560000D01*
X6144080Y-36444475D01*
X6398261Y-36360792D01*
X6529158Y-36088225D01*
X6604365Y-35795358D01*
X6620991Y-35493447D01*
X6578397Y-35194093D01*
X6478222Y-34908801D01*
X6398261Y-34759208D01*
X6144080Y-34675525D01*
X5259605Y-35560000D01*
X4900395Y-35560000D01*
X4015920Y-34675525D01*
X3761739Y-34759208D01*
X3630842Y-35031775D01*
X3555635Y-35324642D01*
X3539009Y-35626553D01*
X660000Y-35626553D01*
X660000Y-34495920D01*
X4195525Y-34495920D01*
X5080000Y-35380395D01*
X5964475Y-34495920D01*
X5880792Y-34241739D01*
X5686984Y-34148665D01*
X8725000Y-34148665D01*
X8725000Y-34431335D01*
X8780147Y-34708574D01*
X8888320Y-34969727D01*
X9045363Y-35204759D01*
X9245241Y-35404637D01*
X9480273Y-35561680D01*
X9741426Y-35669853D01*
X10018665Y-35725000D01*
X10301335Y-35725000D01*
X10578574Y-35669853D01*
X10839727Y-35561680D01*
X11074759Y-35404637D01*
X11274637Y-35204759D01*
X11431680Y-34969727D01*
X11539853Y-34708574D01*
X11595000Y-34431335D01*
X11595000Y-34148665D01*
X11539853Y-33871426D01*
X11431680Y-33610273D01*
X11274637Y-33375241D01*
X11074759Y-33175363D01*
X10839727Y-33018320D01*
X10578574Y-32910147D01*
X10301335Y-32855000D01*
X10018665Y-32855000D01*
X9741426Y-32910147D01*
X9480273Y-33018320D01*
X9245241Y-33175363D01*
X9045363Y-33375241D01*
X8888320Y-33610273D01*
X8780147Y-33871426D01*
X8725000Y-34148665D01*
X5686984Y-34148665D01*
X5608225Y-34110842D01*
X5315358Y-34035635D01*
X5013447Y-34019009D01*
X4714093Y-34061603D01*
X4428801Y-34161778D01*
X4279208Y-34241739D01*
X4195525Y-34495920D01*
X660000Y-34495920D01*
X660000Y-23988665D01*
X11900000Y-23988665D01*
X11900000Y-24271335D01*
X11955147Y-24548574D01*
X12063320Y-24809727D01*
X12220363Y-25044759D01*
X12420241Y-25244637D01*
X12655273Y-25401680D01*
X12916426Y-25509853D01*
X13193665Y-25565000D01*
X13476335Y-25565000D01*
X13753574Y-25509853D01*
X14014727Y-25401680D01*
X14249759Y-25244637D01*
X14449637Y-25044759D01*
X14606680Y-24809727D01*
X14714853Y-24548574D01*
X14770000Y-24271335D01*
X14770000Y-23988665D01*
X14714853Y-23711426D01*
X14606680Y-23450273D01*
X14449637Y-23215241D01*
X14249759Y-23015363D01*
X14014727Y-22858320D01*
X13753574Y-22750147D01*
X13476335Y-22695000D01*
X13193665Y-22695000D01*
X12916426Y-22750147D01*
X12655273Y-22858320D01*
X12420241Y-23015363D01*
X12220363Y-23215241D01*
X12063320Y-23450273D01*
X11955147Y-23711426D01*
X11900000Y-23988665D01*
X660000Y-23988665D01*
X660000Y-22054117D01*
X7790000Y-22054117D01*
X7790000Y-22395883D01*
X7856675Y-22731081D01*
X7987463Y-23046831D01*
X8177337Y-23330998D01*
X8419002Y-23572663D01*
X8703169Y-23762537D01*
X9018919Y-23893325D01*
X9354117Y-23960000D01*
X9695883Y-23960000D01*
X10031081Y-23893325D01*
X10346831Y-23762537D01*
X10630998Y-23572663D01*
X10872663Y-23330998D01*
X11062537Y-23046831D01*
X11193325Y-22731081D01*
X11260000Y-22395883D01*
X11260000Y-22054117D01*
X11193325Y-21718919D01*
X11062537Y-21403169D01*
X10872663Y-21119002D01*
X10630998Y-20877337D01*
X10346831Y-20687463D01*
X10031081Y-20556675D01*
X9695883Y-20490000D01*
X9354117Y-20490000D01*
X9018919Y-20556675D01*
X8703169Y-20687463D01*
X8419002Y-20877337D01*
X8177337Y-21119002D01*
X7987463Y-21403169D01*
X7856675Y-21718919D01*
X7790000Y-22054117D01*
X660000Y-22054117D01*
X660000Y-17348816D01*
X3545000Y-17348816D01*
X3545000Y-17651184D01*
X3603989Y-17947743D01*
X3719701Y-18227095D01*
X3887688Y-18478505D01*
X4101495Y-18692312D01*
X4187831Y-18750000D01*
X4101495Y-18807688D01*
X3887688Y-19021495D01*
X3719701Y-19272905D01*
X3603989Y-19552257D01*
X3545000Y-19848816D01*
X3545000Y-20151184D01*
X3603989Y-20447743D01*
X3719701Y-20727095D01*
X3887688Y-20978505D01*
X4101495Y-21192312D01*
X4352905Y-21360299D01*
X4632257Y-21476011D01*
X4928816Y-21535000D01*
X5231184Y-21535000D01*
X5527743Y-21476011D01*
X5807095Y-21360299D01*
X6058505Y-21192312D01*
X6272312Y-20978505D01*
X6440299Y-20727095D01*
X6556011Y-20447743D01*
X6615000Y-20151184D01*
X6615000Y-19848816D01*
X6556011Y-19552257D01*
X6440299Y-19272905D01*
X6272312Y-19021495D01*
X6058505Y-18807688D01*
X5972169Y-18750000D01*
X6058505Y-18692312D01*
X6272312Y-18478505D01*
X6440299Y-18227095D01*
X6556011Y-17947743D01*
X6615000Y-17651184D01*
X6615000Y-17348816D01*
X6556011Y-17052257D01*
X6440299Y-16772905D01*
X6272312Y-16521495D01*
X6119482Y-16368665D01*
X11900000Y-16368665D01*
X11900000Y-16651335D01*
X11955147Y-16928574D01*
X12063320Y-17189727D01*
X12220363Y-17424759D01*
X12420241Y-17624637D01*
X12655273Y-17781680D01*
X12916426Y-17889853D01*
X13193665Y-17945000D01*
X13476335Y-17945000D01*
X13753574Y-17889853D01*
X14014727Y-17781680D01*
X14249759Y-17624637D01*
X14449637Y-17424759D01*
X14606680Y-17189727D01*
X14714853Y-16928574D01*
X14770000Y-16651335D01*
X14770000Y-16368665D01*
X14714853Y-16091426D01*
X14606680Y-15830273D01*
X14449637Y-15595241D01*
X14249759Y-15395363D01*
X14014727Y-15238320D01*
X13753574Y-15130147D01*
X13476335Y-15075000D01*
X13193665Y-15075000D01*
X12916426Y-15130147D01*
X12655273Y-15238320D01*
X12420241Y-15395363D01*
X12220363Y-15595241D01*
X12063320Y-15830273D01*
X11955147Y-16091426D01*
X11900000Y-16368665D01*
X6119482Y-16368665D01*
X6058505Y-16307688D01*
X5915690Y-16212262D01*
X5964475Y-16064080D01*
X5080000Y-15179605D01*
X4195525Y-16064080D01*
X4244310Y-16212262D01*
X4101495Y-16307688D01*
X3887688Y-16521495D01*
X3719701Y-16772905D01*
X3603989Y-17052257D01*
X3545000Y-17348816D01*
X660000Y-17348816D01*
X660000Y-15066553D01*
X3539009Y-15066553D01*
X3581603Y-15365907D01*
X3681778Y-15651199D01*
X3761739Y-15800792D01*
X4015920Y-15884475D01*
X4900395Y-15000000D01*
X5259605Y-15000000D01*
X6144080Y-15884475D01*
X6398261Y-15800792D01*
X6529158Y-15528225D01*
X6604365Y-15235358D01*
X6620991Y-14933447D01*
X6578397Y-14634093D01*
X6478222Y-14348801D01*
X6398261Y-14199208D01*
X6144080Y-14115525D01*
X5259605Y-15000000D01*
X4900395Y-15000000D01*
X4015920Y-14115525D01*
X3761739Y-14199208D01*
X3630842Y-14471775D01*
X3555635Y-14764642D01*
X3539009Y-15066553D01*
X660000Y-15066553D01*
X660000Y-13935920D01*
X4195525Y-13935920D01*
X5080000Y-14820395D01*
X5964475Y-13935920D01*
X5927543Y-13823740D01*
X17565000Y-13823740D01*
X17565000Y-14116260D01*
X17622068Y-14403158D01*
X17734010Y-14673411D01*
X17896525Y-14916632D01*
X18103368Y-15123475D01*
X18277760Y-15240000D01*
X18103368Y-15356525D01*
X17896525Y-15563368D01*
X17734010Y-15806589D01*
X17622068Y-16076842D01*
X17565000Y-16363740D01*
X17565000Y-16656260D01*
X17622068Y-16943158D01*
X17734010Y-17213411D01*
X17896525Y-17456632D01*
X18103368Y-17663475D01*
X18277760Y-17780000D01*
X18103368Y-17896525D01*
X17896525Y-18103368D01*
X17734010Y-18346589D01*
X17622068Y-18616842D01*
X17565000Y-18903740D01*
X17565000Y-19196260D01*
X17622068Y-19483158D01*
X17734010Y-19753411D01*
X17896525Y-19996632D01*
X18103368Y-20203475D01*
X18277760Y-20320000D01*
X18103368Y-20436525D01*
X17896525Y-20643368D01*
X17734010Y-20886589D01*
X17622068Y-21156842D01*
X17565000Y-21443740D01*
X17565000Y-21736260D01*
X17622068Y-22023158D01*
X17734010Y-22293411D01*
X17896525Y-22536632D01*
X18103368Y-22743475D01*
X18277760Y-22860000D01*
X18103368Y-22976525D01*
X17896525Y-23183368D01*
X17734010Y-23426589D01*
X17622068Y-23696842D01*
X17565000Y-23983740D01*
X17565000Y-24276260D01*
X17622068Y-24563158D01*
X17734010Y-24833411D01*
X17896525Y-25076632D01*
X18103368Y-25283475D01*
X18277760Y-25400000D01*
X18103368Y-25516525D01*
X17896525Y-25723368D01*
X17734010Y-25966589D01*
X17622068Y-26236842D01*
X17565000Y-26523740D01*
X17565000Y-26816260D01*
X17622068Y-27103158D01*
X17734010Y-27373411D01*
X17896525Y-27616632D01*
X18103368Y-27823475D01*
X18277760Y-27940000D01*
X18103368Y-28056525D01*
X17896525Y-28263368D01*
X17734010Y-28506589D01*
X17622068Y-28776842D01*
X17565000Y-29063740D01*
X17565000Y-29356260D01*
X17622068Y-29643158D01*
X17734010Y-29913411D01*
X17896525Y-30156632D01*
X18103368Y-30363475D01*
X18277760Y-30480000D01*
X18103368Y-30596525D01*
X17896525Y-30803368D01*
X17734010Y-31046589D01*
X17622068Y-31316842D01*
X17565000Y-31603740D01*
X17565000Y-31896260D01*
X17622068Y-32183158D01*
X17734010Y-32453411D01*
X17896525Y-32696632D01*
X18103368Y-32903475D01*
X18346589Y-33065990D01*
X18616842Y-33177932D01*
X18903740Y-33235000D01*
X19196260Y-33235000D01*
X19483158Y-33177932D01*
X19753411Y-33065990D01*
X19996632Y-32903475D01*
X20183715Y-32716392D01*
X20251595Y-32843386D01*
X20362038Y-32977962D01*
X20496614Y-33088405D01*
X20650150Y-33170472D01*
X20816746Y-33221008D01*
X20990000Y-33238072D01*
X22190000Y-33238072D01*
X22363254Y-33221008D01*
X22529850Y-33170472D01*
X22683386Y-33088405D01*
X22817962Y-32977962D01*
X22928405Y-32843386D01*
X23010472Y-32689850D01*
X23061008Y-32523254D01*
X23078072Y-32350000D01*
X23078072Y-31150000D01*
X23061008Y-30976746D01*
X23010472Y-30810150D01*
X22928405Y-30656614D01*
X22817962Y-30522038D01*
X22683386Y-30411595D01*
X22556392Y-30343715D01*
X22743475Y-30156632D01*
X22905990Y-29913411D01*
X23017932Y-29643158D01*
X23075000Y-29356260D01*
X23075000Y-29063740D01*
X23017932Y-28776842D01*
X22905990Y-28506589D01*
X22743475Y-28263368D01*
X22536632Y-28056525D01*
X22362240Y-27940000D01*
X22536632Y-27823475D01*
X22743475Y-27616632D01*
X22905990Y-27373411D01*
X23017932Y-27103158D01*
X23075000Y-26816260D01*
X23075000Y-26523740D01*
X23017932Y-26236842D01*
X22905990Y-25966589D01*
X22743475Y-25723368D01*
X22536632Y-25516525D01*
X22362240Y-25400000D01*
X22536632Y-25283475D01*
X22743475Y-25076632D01*
X22905990Y-24833411D01*
X23017932Y-24563158D01*
X23075000Y-24276260D01*
X23075000Y-23983740D01*
X23017932Y-23696842D01*
X22905990Y-23426589D01*
X22743475Y-23183368D01*
X22536632Y-22976525D01*
X22362240Y-22860000D01*
X22536632Y-22743475D01*
X22743475Y-22536632D01*
X22905990Y-22293411D01*
X23017932Y-22023158D01*
X23075000Y-21736260D01*
X23075000Y-21443740D01*
X23017932Y-21156842D01*
X22905990Y-20886589D01*
X22743475Y-20643368D01*
X22536632Y-20436525D01*
X22362240Y-20320000D01*
X22536632Y-20203475D01*
X22743475Y-19996632D01*
X22905990Y-19753411D01*
X23017932Y-19483158D01*
X23075000Y-19196260D01*
X23075000Y-18903740D01*
X23017932Y-18616842D01*
X22905990Y-18346589D01*
X22743475Y-18103368D01*
X22536632Y-17896525D01*
X22362240Y-17780000D01*
X22536632Y-17663475D01*
X22743475Y-17456632D01*
X22905990Y-17213411D01*
X23017932Y-16943158D01*
X23075000Y-16656260D01*
X23075000Y-16363740D01*
X23017932Y-16076842D01*
X22905990Y-15806589D01*
X22743475Y-15563368D01*
X22536632Y-15356525D01*
X22362240Y-15240000D01*
X22536632Y-15123475D01*
X22743475Y-14916632D01*
X22905990Y-14673411D01*
X23017932Y-14403158D01*
X23075000Y-14116260D01*
X23075000Y-13823740D01*
X23017932Y-13536842D01*
X22905990Y-13266589D01*
X22743475Y-13023368D01*
X22536632Y-12816525D01*
X22293411Y-12654010D01*
X22023158Y-12542068D01*
X21736260Y-12485000D01*
X21443740Y-12485000D01*
X21156842Y-12542068D01*
X20886589Y-12654010D01*
X20643368Y-12816525D01*
X20436525Y-13023368D01*
X20320000Y-13197760D01*
X20203475Y-13023368D01*
X19996632Y-12816525D01*
X19753411Y-12654010D01*
X19483158Y-12542068D01*
X19196260Y-12485000D01*
X18903740Y-12485000D01*
X18616842Y-12542068D01*
X18346589Y-12654010D01*
X18103368Y-12816525D01*
X17896525Y-13023368D01*
X17734010Y-13266589D01*
X17622068Y-13536842D01*
X17565000Y-13823740D01*
X5927543Y-13823740D01*
X5880792Y-13681739D01*
X5608225Y-13550842D01*
X5315358Y-13475635D01*
X5013447Y-13459009D01*
X4714093Y-13501603D01*
X4428801Y-13601778D01*
X4279208Y-13681739D01*
X4195525Y-13935920D01*
X660000Y-13935920D01*
X660000Y-10965000D01*
X7786928Y-10965000D01*
X7786928Y-13165000D01*
X7799188Y-13289482D01*
X7835498Y-13409180D01*
X7894463Y-13519494D01*
X7973815Y-13616185D01*
X8070506Y-13695537D01*
X8180820Y-13754502D01*
X8300518Y-13790812D01*
X8425000Y-13803072D01*
X10625000Y-13803072D01*
X10749482Y-13790812D01*
X10869180Y-13754502D01*
X10979494Y-13695537D01*
X11076185Y-13616185D01*
X11155537Y-13519494D01*
X11214502Y-13409180D01*
X11250812Y-13289482D01*
X11263072Y-13165000D01*
X11263072Y-10965000D01*
X11250812Y-10840518D01*
X11214502Y-10720820D01*
X11155537Y-10610506D01*
X11076185Y-10513815D01*
X10979494Y-10434463D01*
X10869180Y-10375498D01*
X10749482Y-10339188D01*
X10625000Y-10326928D01*
X8425000Y-10326928D01*
X8300518Y-10339188D01*
X8180820Y-10375498D01*
X8070506Y-10434463D01*
X7973815Y-10513815D01*
X7894463Y-10610506D01*
X7835498Y-10720820D01*
X7799188Y-10840518D01*
X7786928Y-10965000D01*
X660000Y-10965000D01*
X660000Y-8370000D01*
X1836928Y-8370000D01*
X1849188Y-8494482D01*
X1885498Y-8614180D01*
X1944463Y-8724494D01*
X2023815Y-8821185D01*
X2120506Y-8900537D01*
X2230820Y-8959502D01*
X2350518Y-8995812D01*
X2475000Y-9008072D01*
X2714250Y-9005000D01*
X2873000Y-8846250D01*
X2873000Y-7747000D01*
X1998750Y-7747000D01*
X1840000Y-7905750D01*
X1836928Y-8370000D01*
X660000Y-8370000D01*
X660000Y-6870000D01*
X1836928Y-6870000D01*
X1840000Y-7334250D01*
X1998750Y-7493000D01*
X2873000Y-7493000D01*
X2873000Y-7338022D01*
X3110000Y-7338022D01*
X3110000Y-7901979D01*
X3126785Y-8072400D01*
X3127000Y-8073109D01*
X3127000Y-8846250D01*
X3285750Y-9005000D01*
X3525000Y-9008072D01*
X3649482Y-8995812D01*
X3769180Y-8959502D01*
X3833902Y-8924907D01*
X4042601Y-8988215D01*
X4270000Y-9010612D01*
X4497400Y-8988215D01*
X4716060Y-8921885D01*
X4905001Y-8820894D01*
X5093941Y-8921885D01*
X5312601Y-8988215D01*
X5540000Y-9010612D01*
X5767400Y-8988215D01*
X5986060Y-8921885D01*
X6187579Y-8814171D01*
X6364212Y-8669212D01*
X6509171Y-8492579D01*
X6616885Y-8291059D01*
X6683215Y-8072399D01*
X6700000Y-7901978D01*
X6700000Y-7338021D01*
X6683215Y-7167600D01*
X6616885Y-6948940D01*
X6547966Y-6820000D01*
X9991928Y-6820000D01*
X9991928Y-8420000D01*
X10004188Y-8544482D01*
X10040498Y-8664180D01*
X10099463Y-8774494D01*
X10178815Y-8871185D01*
X10275506Y-8950537D01*
X10385820Y-9009502D01*
X10505518Y-9045812D01*
X10630000Y-9058072D01*
X12230000Y-9058072D01*
X12354482Y-9045812D01*
X12474180Y-9009502D01*
X12584494Y-8950537D01*
X12681185Y-8871185D01*
X12760537Y-8774494D01*
X12819502Y-8664180D01*
X12855812Y-8544482D01*
X12868072Y-8420000D01*
X12868072Y-6820000D01*
X12855812Y-6695518D01*
X12819502Y-6575820D01*
X12760537Y-6465506D01*
X12681185Y-6368815D01*
X12664607Y-6355210D01*
X12701680Y-6299727D01*
X12809853Y-6038574D01*
X12865000Y-5761335D01*
X12865000Y-5478665D01*
X12809853Y-5201426D01*
X12701680Y-4940273D01*
X12544637Y-4705241D01*
X12344759Y-4505363D01*
X12109727Y-4348320D01*
X11848574Y-4240147D01*
X11571335Y-4185000D01*
X11288665Y-4185000D01*
X11011426Y-4240147D01*
X10750273Y-4348320D01*
X10515241Y-4505363D01*
X10315363Y-4705241D01*
X10158320Y-4940273D01*
X10050147Y-5201426D01*
X9995000Y-5478665D01*
X9995000Y-5761335D01*
X10050147Y-6038574D01*
X10158320Y-6299727D01*
X10195393Y-6355210D01*
X10178815Y-6368815D01*
X10099463Y-6465506D01*
X10040498Y-6575820D01*
X10004188Y-6695518D01*
X9991928Y-6820000D01*
X6547966Y-6820000D01*
X6509171Y-6747421D01*
X6364212Y-6570788D01*
X6187578Y-6425829D01*
X5986059Y-6318115D01*
X5767399Y-6251785D01*
X5540000Y-6229388D01*
X5312600Y-6251785D01*
X5093940Y-6318115D01*
X4905000Y-6419106D01*
X4716059Y-6318115D01*
X4497399Y-6251785D01*
X4270000Y-6229388D01*
X4042600Y-6251785D01*
X3833902Y-6315093D01*
X3769180Y-6280498D01*
X3649482Y-6244188D01*
X3525000Y-6231928D01*
X3285750Y-6235000D01*
X3127000Y-6393750D01*
X3127000Y-7166892D01*
X3126785Y-7167601D01*
X3110000Y-7338022D01*
X2873000Y-7338022D01*
X2873000Y-6393750D01*
X2714250Y-6235000D01*
X2475000Y-6231928D01*
X2350518Y-6244188D01*
X2230820Y-6280498D01*
X2120506Y-6339463D01*
X2023815Y-6418815D01*
X1944463Y-6515506D01*
X1885498Y-6625820D01*
X1849188Y-6745518D01*
X1836928Y-6870000D01*
X660000Y-6870000D01*
X660000Y-660000D01*
X25340000Y-660000D01*
X25340001Y-109340000D01*
G04 #@! TA.AperFunction,Conductor*
D25*
G36*
X25340001Y-109340000D02*
G01*
X660000Y-109340000D01*
X660000Y-105903665D01*
X3010000Y-105903665D01*
X3010000Y-106186335D01*
X3065147Y-106463574D01*
X3173320Y-106724727D01*
X3330363Y-106959759D01*
X3530241Y-107159637D01*
X3765273Y-107316680D01*
X4026426Y-107424853D01*
X4303665Y-107480000D01*
X4586335Y-107480000D01*
X4863574Y-107424853D01*
X5124727Y-107316680D01*
X5359759Y-107159637D01*
X5559637Y-106959759D01*
X5716680Y-106724727D01*
X5824853Y-106463574D01*
X5880000Y-106186335D01*
X5880000Y-105903665D01*
X10630000Y-105903665D01*
X10630000Y-106186335D01*
X10685147Y-106463574D01*
X10793320Y-106724727D01*
X10950363Y-106959759D01*
X11150241Y-107159637D01*
X11385273Y-107316680D01*
X11646426Y-107424853D01*
X11923665Y-107480000D01*
X12206335Y-107480000D01*
X12483574Y-107424853D01*
X12744727Y-107316680D01*
X12979759Y-107159637D01*
X13179637Y-106959759D01*
X13336680Y-106724727D01*
X13384201Y-106610000D01*
X15071928Y-106610000D01*
X15071928Y-108210000D01*
X15084188Y-108334482D01*
X15120498Y-108454180D01*
X15179463Y-108564494D01*
X15258815Y-108661185D01*
X15355506Y-108740537D01*
X15465820Y-108799502D01*
X15585518Y-108835812D01*
X15710000Y-108848072D01*
X17310000Y-108848072D01*
X17434482Y-108835812D01*
X17554180Y-108799502D01*
X17664494Y-108740537D01*
X17761185Y-108661185D01*
X17840537Y-108564494D01*
X17899502Y-108454180D01*
X17935812Y-108334482D01*
X17948072Y-108210000D01*
X17948072Y-106610000D01*
X17935812Y-106485518D01*
X17899502Y-106365820D01*
X17840537Y-106255506D01*
X17761185Y-106158815D01*
X17744607Y-106145210D01*
X17781680Y-106089727D01*
X17889853Y-105828574D01*
X17945000Y-105551335D01*
X17945000Y-105268665D01*
X17889853Y-104991426D01*
X17781680Y-104730273D01*
X17624637Y-104495241D01*
X17424759Y-104295363D01*
X17189727Y-104138320D01*
X16928574Y-104030147D01*
X16651335Y-103975000D01*
X16368665Y-103975000D01*
X16091426Y-104030147D01*
X15830273Y-104138320D01*
X15595241Y-104295363D01*
X15395363Y-104495241D01*
X15238320Y-104730273D01*
X15130147Y-104991426D01*
X15075000Y-105268665D01*
X15075000Y-105551335D01*
X15130147Y-105828574D01*
X15238320Y-106089727D01*
X15275393Y-106145210D01*
X15258815Y-106158815D01*
X15179463Y-106255506D01*
X15120498Y-106365820D01*
X15084188Y-106485518D01*
X15071928Y-106610000D01*
X13384201Y-106610000D01*
X13444853Y-106463574D01*
X13500000Y-106186335D01*
X13500000Y-105903665D01*
X13444853Y-105626426D01*
X13336680Y-105365273D01*
X13179637Y-105130241D01*
X12979759Y-104930363D01*
X12744727Y-104773320D01*
X12483574Y-104665147D01*
X12206335Y-104610000D01*
X11923665Y-104610000D01*
X11646426Y-104665147D01*
X11385273Y-104773320D01*
X11150241Y-104930363D01*
X10950363Y-105130241D01*
X10793320Y-105365273D01*
X10685147Y-105626426D01*
X10630000Y-105903665D01*
X5880000Y-105903665D01*
X5824853Y-105626426D01*
X5716680Y-105365273D01*
X5559637Y-105130241D01*
X5359759Y-104930363D01*
X5124727Y-104773320D01*
X4863574Y-104665147D01*
X4586335Y-104610000D01*
X4303665Y-104610000D01*
X4026426Y-104665147D01*
X3765273Y-104773320D01*
X3530241Y-104930363D01*
X3330363Y-105130241D01*
X3173320Y-105365273D01*
X3065147Y-105626426D01*
X3010000Y-105903665D01*
X660000Y-105903665D01*
X660000Y-101944759D01*
X680393Y-101969608D01*
X898900Y-102148932D01*
X1148193Y-102282182D01*
X1418692Y-102364236D01*
X1700000Y-102391943D01*
X1981309Y-102364236D01*
X2251808Y-102282182D01*
X2501101Y-102148932D01*
X2719608Y-101969608D01*
X2898932Y-101751101D01*
X3032182Y-101501808D01*
X3114236Y-101231309D01*
X3135000Y-101020492D01*
X3135000Y-99079509D01*
X5565000Y-99079509D01*
X5565001Y-101120492D01*
X5585765Y-101331309D01*
X5667819Y-101601808D01*
X5801069Y-101851101D01*
X5980393Y-102069608D01*
X6198900Y-102248932D01*
X6448193Y-102382182D01*
X6718692Y-102464236D01*
X7000000Y-102491943D01*
X7281309Y-102464236D01*
X7551808Y-102382182D01*
X7801101Y-102248932D01*
X8019608Y-102069608D01*
X8198932Y-101851101D01*
X8332182Y-101601808D01*
X8414236Y-101331309D01*
X8435000Y-101120492D01*
X8435000Y-99079509D01*
X11365000Y-99079509D01*
X11365001Y-101120492D01*
X11385765Y-101331309D01*
X11467819Y-101601808D01*
X11601069Y-101851101D01*
X11780393Y-102069608D01*
X11998900Y-102248932D01*
X12248193Y-102382182D01*
X12518692Y-102464236D01*
X12800000Y-102491943D01*
X13081309Y-102464236D01*
X13351808Y-102382182D01*
X13601101Y-102248932D01*
X13819608Y-102069608D01*
X13998932Y-101851101D01*
X14132182Y-101601808D01*
X14214236Y-101331309D01*
X14235000Y-101120492D01*
X14235000Y-99079508D01*
X14214236Y-98868691D01*
X14132182Y-98598192D01*
X13998932Y-98348899D01*
X13819607Y-98130392D01*
X13601100Y-97951068D01*
X13351807Y-97817818D01*
X13081308Y-97735764D01*
X12800000Y-97708057D01*
X12518691Y-97735764D01*
X12248192Y-97817818D01*
X11998899Y-97951068D01*
X11780392Y-98130393D01*
X11601068Y-98348900D01*
X11467818Y-98598193D01*
X11385764Y-98868692D01*
X11365000Y-99079509D01*
X8435000Y-99079509D01*
X8435000Y-99079508D01*
X8414236Y-98868691D01*
X8332182Y-98598192D01*
X8198932Y-98348899D01*
X8019607Y-98130392D01*
X7801100Y-97951068D01*
X7551807Y-97817818D01*
X7281308Y-97735764D01*
X7000000Y-97708057D01*
X6718691Y-97735764D01*
X6448192Y-97817818D01*
X6198899Y-97951068D01*
X5980392Y-98130393D01*
X5801068Y-98348900D01*
X5667818Y-98598193D01*
X5585764Y-98868692D01*
X5565000Y-99079509D01*
X3135000Y-99079509D01*
X3135000Y-98979508D01*
X3114236Y-98768691D01*
X3032182Y-98498192D01*
X2898932Y-98248899D01*
X2719607Y-98030392D01*
X2501100Y-97851068D01*
X2251807Y-97717818D01*
X1981308Y-97635764D01*
X1700000Y-97608057D01*
X1418691Y-97635764D01*
X1148192Y-97717818D01*
X898899Y-97851068D01*
X680392Y-98030393D01*
X660000Y-98055241D01*
X660000Y-93838665D01*
X3010000Y-93838665D01*
X3010000Y-94121335D01*
X3065147Y-94398574D01*
X3173320Y-94659727D01*
X3330363Y-94894759D01*
X3530241Y-95094637D01*
X3765273Y-95251680D01*
X4026426Y-95359853D01*
X4303665Y-95415000D01*
X4586335Y-95415000D01*
X4863574Y-95359853D01*
X5124727Y-95251680D01*
X5359759Y-95094637D01*
X5559637Y-94894759D01*
X5716680Y-94659727D01*
X5824853Y-94398574D01*
X5880000Y-94121335D01*
X5880000Y-93838665D01*
X10630000Y-93838665D01*
X10630000Y-94121335D01*
X10685147Y-94398574D01*
X10793320Y-94659727D01*
X10950363Y-94894759D01*
X11150241Y-95094637D01*
X11385273Y-95251680D01*
X11646426Y-95359853D01*
X11923665Y-95415000D01*
X12206335Y-95415000D01*
X12483574Y-95359853D01*
X12744727Y-95251680D01*
X12979759Y-95094637D01*
X13179637Y-94894759D01*
X13336680Y-94659727D01*
X13444853Y-94398574D01*
X13500000Y-94121335D01*
X13500000Y-93838665D01*
X13444853Y-93561426D01*
X13336680Y-93300273D01*
X13179637Y-93065241D01*
X12979759Y-92865363D01*
X12744727Y-92708320D01*
X12483574Y-92600147D01*
X12206335Y-92545000D01*
X11923665Y-92545000D01*
X11646426Y-92600147D01*
X11385273Y-92708320D01*
X11150241Y-92865363D01*
X10950363Y-93065241D01*
X10793320Y-93300273D01*
X10685147Y-93561426D01*
X10630000Y-93838665D01*
X5880000Y-93838665D01*
X5824853Y-93561426D01*
X5716680Y-93300273D01*
X5559637Y-93065241D01*
X5359759Y-92865363D01*
X5124727Y-92708320D01*
X4863574Y-92600147D01*
X4586335Y-92545000D01*
X4303665Y-92545000D01*
X4026426Y-92600147D01*
X3765273Y-92708320D01*
X3530241Y-92865363D01*
X3330363Y-93065241D01*
X3173320Y-93300273D01*
X3065147Y-93561426D01*
X3010000Y-93838665D01*
X660000Y-93838665D01*
X660000Y-91904117D01*
X14775000Y-91904117D01*
X14775000Y-92245883D01*
X14841675Y-92581081D01*
X14972463Y-92896831D01*
X15162337Y-93180998D01*
X15404002Y-93422663D01*
X15688169Y-93612537D01*
X16003919Y-93743325D01*
X16339117Y-93810000D01*
X16680883Y-93810000D01*
X17016081Y-93743325D01*
X17331831Y-93612537D01*
X17615998Y-93422663D01*
X17857663Y-93180998D01*
X18047537Y-92896831D01*
X18178325Y-92581081D01*
X18245000Y-92245883D01*
X18245000Y-91904117D01*
X18178325Y-91568919D01*
X18047537Y-91253169D01*
X17857663Y-90969002D01*
X17615998Y-90727337D01*
X17331831Y-90537463D01*
X17016081Y-90406675D01*
X16680883Y-90340000D01*
X16339117Y-90340000D01*
X16003919Y-90406675D01*
X15688169Y-90537463D01*
X15404002Y-90727337D01*
X15162337Y-90969002D01*
X14972463Y-91253169D01*
X14841675Y-91568919D01*
X14775000Y-91904117D01*
X660000Y-91904117D01*
X660000Y-89944759D01*
X680393Y-89969608D01*
X898900Y-90148932D01*
X1148193Y-90282182D01*
X1418692Y-90364236D01*
X1700000Y-90391943D01*
X1981309Y-90364236D01*
X2251808Y-90282182D01*
X2501101Y-90148932D01*
X2719608Y-89969608D01*
X2898932Y-89751101D01*
X3032182Y-89501808D01*
X3114236Y-89231309D01*
X3135000Y-89020492D01*
X3135000Y-87079509D01*
X5565000Y-87079509D01*
X5565001Y-89120492D01*
X5585765Y-89331309D01*
X5667819Y-89601808D01*
X5801069Y-89851101D01*
X5980393Y-90069608D01*
X6198900Y-90248932D01*
X6448193Y-90382182D01*
X6718692Y-90464236D01*
X7000000Y-90491943D01*
X7281309Y-90464236D01*
X7551808Y-90382182D01*
X7801101Y-90248932D01*
X8019608Y-90069608D01*
X8198932Y-89851101D01*
X8332182Y-89601808D01*
X8414236Y-89331309D01*
X8435000Y-89120492D01*
X8435000Y-87079509D01*
X11365000Y-87079509D01*
X11365001Y-89120492D01*
X11385765Y-89331309D01*
X11467819Y-89601808D01*
X11601069Y-89851101D01*
X11780393Y-90069608D01*
X11998900Y-90248932D01*
X12248193Y-90382182D01*
X12518692Y-90464236D01*
X12800000Y-90491943D01*
X13081309Y-90464236D01*
X13351808Y-90382182D01*
X13601101Y-90248932D01*
X13819608Y-90069608D01*
X13998932Y-89851101D01*
X14132182Y-89601808D01*
X14214236Y-89331309D01*
X14235000Y-89120492D01*
X14235000Y-87079508D01*
X14214236Y-86868691D01*
X14132182Y-86598192D01*
X13998932Y-86348899D01*
X13819607Y-86130392D01*
X13601100Y-85951068D01*
X13351807Y-85817818D01*
X13081308Y-85735764D01*
X12800000Y-85708057D01*
X12518691Y-85735764D01*
X12248192Y-85817818D01*
X11998899Y-85951068D01*
X11780392Y-86130393D01*
X11601068Y-86348900D01*
X11467818Y-86598193D01*
X11385764Y-86868692D01*
X11365000Y-87079509D01*
X8435000Y-87079509D01*
X8435000Y-87079508D01*
X8414236Y-86868691D01*
X8332182Y-86598192D01*
X8198932Y-86348899D01*
X8019607Y-86130392D01*
X7801100Y-85951068D01*
X7551807Y-85817818D01*
X7281308Y-85735764D01*
X7000000Y-85708057D01*
X6718691Y-85735764D01*
X6448192Y-85817818D01*
X6198899Y-85951068D01*
X5980392Y-86130393D01*
X5801068Y-86348900D01*
X5667818Y-86598193D01*
X5585764Y-86868692D01*
X5565000Y-87079509D01*
X3135000Y-87079509D01*
X3135000Y-86979508D01*
X3114236Y-86768691D01*
X3032182Y-86498192D01*
X2898932Y-86248899D01*
X2719607Y-86030392D01*
X2501100Y-85851068D01*
X2251807Y-85717818D01*
X1981308Y-85635764D01*
X1700000Y-85608057D01*
X1418691Y-85635764D01*
X1148192Y-85717818D01*
X898899Y-85851068D01*
X680392Y-86030393D01*
X660000Y-86055241D01*
X660000Y-84353061D01*
X6585000Y-84353061D01*
X6585000Y-84556939D01*
X6624774Y-84756898D01*
X6702795Y-84945256D01*
X6816063Y-85114774D01*
X6960226Y-85258937D01*
X7129744Y-85372205D01*
X7318102Y-85450226D01*
X7518061Y-85490000D01*
X7721939Y-85490000D01*
X7921898Y-85450226D01*
X8110256Y-85372205D01*
X8233285Y-85290000D01*
X10181715Y-85290000D01*
X10304744Y-85372205D01*
X10493102Y-85450226D01*
X10693061Y-85490000D01*
X10896939Y-85490000D01*
X11096898Y-85450226D01*
X11285256Y-85372205D01*
X11454774Y-85258937D01*
X11598937Y-85114774D01*
X11712205Y-84945256D01*
X11790226Y-84756898D01*
X11830000Y-84556939D01*
X11830000Y-84353061D01*
X11790226Y-84153102D01*
X11712205Y-83964744D01*
X11598937Y-83795226D01*
X11454774Y-83651063D01*
X11285256Y-83537795D01*
X11096898Y-83459774D01*
X10896939Y-83420000D01*
X10693061Y-83420000D01*
X10493102Y-83459774D01*
X10304744Y-83537795D01*
X10181715Y-83620000D01*
X8233285Y-83620000D01*
X8110256Y-83537795D01*
X7921898Y-83459774D01*
X7721939Y-83420000D01*
X7518061Y-83420000D01*
X7318102Y-83459774D01*
X7129744Y-83537795D01*
X6960226Y-83651063D01*
X6816063Y-83795226D01*
X6702795Y-83964744D01*
X6624774Y-84153102D01*
X6585000Y-84353061D01*
X660000Y-84353061D01*
X660000Y-81773665D01*
X3010000Y-81773665D01*
X3010000Y-82056335D01*
X3065147Y-82333574D01*
X3173320Y-82594727D01*
X3330363Y-82829759D01*
X3530241Y-83029637D01*
X3765273Y-83186680D01*
X4026426Y-83294853D01*
X4303665Y-83350000D01*
X4586335Y-83350000D01*
X4863574Y-83294853D01*
X5124727Y-83186680D01*
X5359759Y-83029637D01*
X5559637Y-82829759D01*
X5716680Y-82594727D01*
X5824853Y-82333574D01*
X5880000Y-82056335D01*
X5880000Y-81773665D01*
X10630000Y-81773665D01*
X10630000Y-82056335D01*
X10685147Y-82333574D01*
X10793320Y-82594727D01*
X10950363Y-82829759D01*
X11150241Y-83029637D01*
X11385273Y-83186680D01*
X11646426Y-83294853D01*
X11923665Y-83350000D01*
X12206335Y-83350000D01*
X12483574Y-83294853D01*
X12744727Y-83186680D01*
X12979759Y-83029637D01*
X13179637Y-82829759D01*
X13336680Y-82594727D01*
X13444853Y-82333574D01*
X13500000Y-82056335D01*
X13500000Y-81773665D01*
X13444853Y-81496426D01*
X13336680Y-81235273D01*
X13179637Y-81000241D01*
X12994396Y-80815000D01*
X14771928Y-80815000D01*
X14771928Y-83015000D01*
X14784188Y-83139482D01*
X14820498Y-83259180D01*
X14879463Y-83369494D01*
X14958815Y-83466185D01*
X15055506Y-83545537D01*
X15165820Y-83604502D01*
X15285518Y-83640812D01*
X15410000Y-83653072D01*
X17610000Y-83653072D01*
X17734482Y-83640812D01*
X17854180Y-83604502D01*
X17964494Y-83545537D01*
X18061185Y-83466185D01*
X18140537Y-83369494D01*
X18199502Y-83259180D01*
X18235812Y-83139482D01*
X18248072Y-83015000D01*
X18248072Y-80815000D01*
X18235812Y-80690518D01*
X18199502Y-80570820D01*
X18140537Y-80460506D01*
X18061185Y-80363815D01*
X17964494Y-80284463D01*
X17854180Y-80225498D01*
X17734482Y-80189188D01*
X17610000Y-80176928D01*
X15410000Y-80176928D01*
X15285518Y-80189188D01*
X15165820Y-80225498D01*
X15055506Y-80284463D01*
X14958815Y-80363815D01*
X14879463Y-80460506D01*
X14820498Y-80570820D01*
X14784188Y-80690518D01*
X14771928Y-80815000D01*
X12994396Y-80815000D01*
X12979759Y-80800363D01*
X12744727Y-80643320D01*
X12483574Y-80535147D01*
X12206335Y-80480000D01*
X11923665Y-80480000D01*
X11646426Y-80535147D01*
X11385273Y-80643320D01*
X11150241Y-80800363D01*
X10950363Y-81000241D01*
X10793320Y-81235273D01*
X10685147Y-81496426D01*
X10630000Y-81773665D01*
X5880000Y-81773665D01*
X5824853Y-81496426D01*
X5716680Y-81235273D01*
X5559637Y-81000241D01*
X5359759Y-80800363D01*
X5124727Y-80643320D01*
X4863574Y-80535147D01*
X4586335Y-80480000D01*
X4303665Y-80480000D01*
X4026426Y-80535147D01*
X3765273Y-80643320D01*
X3530241Y-80800363D01*
X3330363Y-81000241D01*
X3173320Y-81235273D01*
X3065147Y-81496426D01*
X3010000Y-81773665D01*
X660000Y-81773665D01*
X660000Y-79839117D01*
X19855000Y-79839117D01*
X19855000Y-80180883D01*
X19921675Y-80516081D01*
X20052463Y-80831831D01*
X20242337Y-81115998D01*
X20484002Y-81357663D01*
X20768169Y-81547537D01*
X21083919Y-81678325D01*
X21419117Y-81745000D01*
X21760883Y-81745000D01*
X22096081Y-81678325D01*
X22411831Y-81547537D01*
X22695998Y-81357663D01*
X22937663Y-81115998D01*
X23127537Y-80831831D01*
X23258325Y-80516081D01*
X23325000Y-80180883D01*
X23325000Y-79839117D01*
X23258325Y-79503919D01*
X23127537Y-79188169D01*
X22937663Y-78904002D01*
X22695998Y-78662337D01*
X22411831Y-78472463D01*
X22096081Y-78341675D01*
X21760883Y-78275000D01*
X21419117Y-78275000D01*
X21083919Y-78341675D01*
X20768169Y-78472463D01*
X20484002Y-78662337D01*
X20242337Y-78904002D01*
X20052463Y-79188169D01*
X19921675Y-79503919D01*
X19855000Y-79839117D01*
X660000Y-79839117D01*
X660000Y-77944759D01*
X680393Y-77969608D01*
X898900Y-78148932D01*
X1148193Y-78282182D01*
X1418692Y-78364236D01*
X1700000Y-78391943D01*
X1981309Y-78364236D01*
X2251808Y-78282182D01*
X2501101Y-78148932D01*
X2719608Y-77969608D01*
X2898932Y-77751101D01*
X3032182Y-77501808D01*
X3114236Y-77231309D01*
X3135000Y-77020492D01*
X3135000Y-75079509D01*
X5565000Y-75079509D01*
X5565001Y-77120492D01*
X5585765Y-77331309D01*
X5667819Y-77601808D01*
X5801069Y-77851101D01*
X5980393Y-78069608D01*
X6198900Y-78248932D01*
X6448193Y-78382182D01*
X6718692Y-78464236D01*
X7000000Y-78491943D01*
X7281309Y-78464236D01*
X7551808Y-78382182D01*
X7801101Y-78248932D01*
X8019608Y-78069608D01*
X8198932Y-77851101D01*
X8332182Y-77601808D01*
X8414236Y-77331309D01*
X8435000Y-77120492D01*
X8435000Y-75079509D01*
X11365000Y-75079509D01*
X11365001Y-77120492D01*
X11385765Y-77331309D01*
X11467819Y-77601808D01*
X11601069Y-77851101D01*
X11780393Y-78069608D01*
X11998900Y-78248932D01*
X12248193Y-78382182D01*
X12518692Y-78464236D01*
X12800000Y-78491943D01*
X13081309Y-78464236D01*
X13351808Y-78382182D01*
X13601101Y-78248932D01*
X13819608Y-78069608D01*
X13998932Y-77851101D01*
X14132182Y-77601808D01*
X14214236Y-77331309D01*
X14235000Y-77120492D01*
X14235000Y-75079508D01*
X14214236Y-74868691D01*
X14132182Y-74598192D01*
X13998932Y-74348899D01*
X13819607Y-74130392D01*
X13601100Y-73951068D01*
X13351807Y-73817818D01*
X13081308Y-73735764D01*
X12800000Y-73708057D01*
X12518691Y-73735764D01*
X12248192Y-73817818D01*
X11998899Y-73951068D01*
X11780392Y-74130393D01*
X11601068Y-74348900D01*
X11467818Y-74598193D01*
X11385764Y-74868692D01*
X11365000Y-75079509D01*
X8435000Y-75079509D01*
X8435000Y-75079508D01*
X8414236Y-74868691D01*
X8332182Y-74598192D01*
X8198932Y-74348899D01*
X8019607Y-74130392D01*
X7801100Y-73951068D01*
X7551807Y-73817818D01*
X7281308Y-73735764D01*
X7000000Y-73708057D01*
X6718691Y-73735764D01*
X6448192Y-73817818D01*
X6198899Y-73951068D01*
X5980392Y-74130393D01*
X5801068Y-74348900D01*
X5667818Y-74598193D01*
X5585764Y-74868692D01*
X5565000Y-75079509D01*
X3135000Y-75079509D01*
X3135000Y-74979508D01*
X3114236Y-74768691D01*
X3032182Y-74498192D01*
X2898932Y-74248899D01*
X2719607Y-74030392D01*
X2501100Y-73851068D01*
X2251807Y-73717818D01*
X1981308Y-73635764D01*
X1700000Y-73608057D01*
X1418691Y-73635764D01*
X1148192Y-73717818D01*
X898899Y-73851068D01*
X680392Y-74030393D01*
X660000Y-74055241D01*
X660000Y-69708665D01*
X7455000Y-69708665D01*
X7455000Y-69991335D01*
X7510147Y-70268574D01*
X7618320Y-70529727D01*
X7775363Y-70764759D01*
X7975241Y-70964637D01*
X8210273Y-71121680D01*
X8471426Y-71229853D01*
X8748665Y-71285000D01*
X9031335Y-71285000D01*
X9308574Y-71229853D01*
X9569727Y-71121680D01*
X9804759Y-70964637D01*
X10004637Y-70764759D01*
X10161680Y-70529727D01*
X10269853Y-70268574D01*
X10325000Y-69991335D01*
X10325000Y-69708665D01*
X15075000Y-69708665D01*
X15075000Y-69991335D01*
X15130147Y-70268574D01*
X15238320Y-70529727D01*
X15395363Y-70764759D01*
X15595241Y-70964637D01*
X15830273Y-71121680D01*
X16091426Y-71229853D01*
X16368665Y-71285000D01*
X16651335Y-71285000D01*
X16928574Y-71229853D01*
X17189727Y-71121680D01*
X17424759Y-70964637D01*
X17624637Y-70764759D01*
X17781680Y-70529727D01*
X17889853Y-70268574D01*
X17945000Y-69991335D01*
X17945000Y-69708665D01*
X17889853Y-69431426D01*
X17781680Y-69170273D01*
X17624637Y-68935241D01*
X17439396Y-68750000D01*
X19851928Y-68750000D01*
X19851928Y-70950000D01*
X19864188Y-71074482D01*
X19900498Y-71194180D01*
X19959463Y-71304494D01*
X20038815Y-71401185D01*
X20135506Y-71480537D01*
X20245820Y-71539502D01*
X20365518Y-71575812D01*
X20490000Y-71588072D01*
X22690000Y-71588072D01*
X22814482Y-71575812D01*
X22934180Y-71539502D01*
X23044494Y-71480537D01*
X23141185Y-71401185D01*
X23220537Y-71304494D01*
X23279502Y-71194180D01*
X23315812Y-71074482D01*
X23328072Y-70950000D01*
X23328072Y-68750000D01*
X23315812Y-68625518D01*
X23279502Y-68505820D01*
X23220537Y-68395506D01*
X23141185Y-68298815D01*
X23044494Y-68219463D01*
X22934180Y-68160498D01*
X22814482Y-68124188D01*
X22690000Y-68111928D01*
X20490000Y-68111928D01*
X20365518Y-68124188D01*
X20245820Y-68160498D01*
X20135506Y-68219463D01*
X20038815Y-68298815D01*
X19959463Y-68395506D01*
X19900498Y-68505820D01*
X19864188Y-68625518D01*
X19851928Y-68750000D01*
X17439396Y-68750000D01*
X17424759Y-68735363D01*
X17189727Y-68578320D01*
X16928574Y-68470147D01*
X16651335Y-68415000D01*
X16368665Y-68415000D01*
X16091426Y-68470147D01*
X15830273Y-68578320D01*
X15595241Y-68735363D01*
X15395363Y-68935241D01*
X15238320Y-69170273D01*
X15130147Y-69431426D01*
X15075000Y-69708665D01*
X10325000Y-69708665D01*
X10269853Y-69431426D01*
X10161680Y-69170273D01*
X10004637Y-68935241D01*
X9804759Y-68735363D01*
X9569727Y-68578320D01*
X9308574Y-68470147D01*
X9031335Y-68415000D01*
X8748665Y-68415000D01*
X8471426Y-68470147D01*
X8210273Y-68578320D01*
X7975241Y-68735363D01*
X7775363Y-68935241D01*
X7618320Y-69170273D01*
X7510147Y-69431426D01*
X7455000Y-69708665D01*
X660000Y-69708665D01*
X660000Y-67208061D01*
X2140000Y-67208061D01*
X2140000Y-67411939D01*
X2179774Y-67611898D01*
X2257795Y-67800256D01*
X2371063Y-67969774D01*
X2515226Y-68113937D01*
X2684744Y-68227205D01*
X2873102Y-68305226D01*
X3073061Y-68345000D01*
X3276939Y-68345000D01*
X3476898Y-68305226D01*
X3665256Y-68227205D01*
X3788285Y-68145000D01*
X6371715Y-68145000D01*
X6494744Y-68227205D01*
X6683102Y-68305226D01*
X6883061Y-68345000D01*
X7086939Y-68345000D01*
X7286898Y-68305226D01*
X7475256Y-68227205D01*
X7644774Y-68113937D01*
X7788937Y-67969774D01*
X7902205Y-67800256D01*
X7980226Y-67611898D01*
X8020000Y-67411939D01*
X8020000Y-67208061D01*
X7980226Y-67008102D01*
X7902205Y-66819744D01*
X7788937Y-66650226D01*
X7644774Y-66506063D01*
X7475256Y-66392795D01*
X7286898Y-66314774D01*
X7086939Y-66275000D01*
X6883061Y-66275000D01*
X6683102Y-66314774D01*
X6494744Y-66392795D01*
X6371715Y-66475000D01*
X3788285Y-66475000D01*
X3665256Y-66392795D01*
X3476898Y-66314774D01*
X3276939Y-66275000D01*
X3073061Y-66275000D01*
X2873102Y-66314774D01*
X2684744Y-66392795D01*
X2515226Y-66506063D01*
X2371063Y-66650226D01*
X2257795Y-66819744D01*
X2179774Y-67008102D01*
X2140000Y-67208061D01*
X660000Y-67208061D01*
X660000Y-65898665D01*
X11265000Y-65898665D01*
X11265000Y-66181335D01*
X11320147Y-66458574D01*
X11428320Y-66719727D01*
X11585363Y-66954759D01*
X11785241Y-67154637D01*
X12020273Y-67311680D01*
X12281426Y-67419853D01*
X12558665Y-67475000D01*
X12841335Y-67475000D01*
X13118574Y-67419853D01*
X13379727Y-67311680D01*
X13614759Y-67154637D01*
X13814637Y-66954759D01*
X13971680Y-66719727D01*
X14079853Y-66458574D01*
X14135000Y-66181335D01*
X14135000Y-65898665D01*
X16265000Y-65898665D01*
X16265000Y-66181335D01*
X16320147Y-66458574D01*
X16428320Y-66719727D01*
X16585363Y-66954759D01*
X16785241Y-67154637D01*
X17020273Y-67311680D01*
X17281426Y-67419853D01*
X17558665Y-67475000D01*
X17841335Y-67475000D01*
X18118574Y-67419853D01*
X18379727Y-67311680D01*
X18614759Y-67154637D01*
X18814637Y-66954759D01*
X18971680Y-66719727D01*
X19079853Y-66458574D01*
X19135000Y-66181335D01*
X19135000Y-65898665D01*
X19079853Y-65621426D01*
X18971680Y-65360273D01*
X18814637Y-65125241D01*
X18614759Y-64925363D01*
X18379727Y-64768320D01*
X18118574Y-64660147D01*
X17841335Y-64605000D01*
X17558665Y-64605000D01*
X17281426Y-64660147D01*
X17020273Y-64768320D01*
X16785241Y-64925363D01*
X16585363Y-65125241D01*
X16428320Y-65360273D01*
X16320147Y-65621426D01*
X16265000Y-65898665D01*
X14135000Y-65898665D01*
X14079853Y-65621426D01*
X13971680Y-65360273D01*
X13814637Y-65125241D01*
X13614759Y-64925363D01*
X13379727Y-64768320D01*
X13118574Y-64660147D01*
X12841335Y-64605000D01*
X12558665Y-64605000D01*
X12281426Y-64660147D01*
X12020273Y-64768320D01*
X11785241Y-64925363D01*
X11585363Y-65125241D01*
X11428320Y-65360273D01*
X11320147Y-65621426D01*
X11265000Y-65898665D01*
X660000Y-65898665D01*
X660000Y-61759508D01*
X1105000Y-61759508D01*
X1105000Y-62700491D01*
X1125764Y-62911308D01*
X1207818Y-63181807D01*
X1341068Y-63431100D01*
X1520392Y-63649607D01*
X1738899Y-63828932D01*
X1988192Y-63962182D01*
X2258691Y-64044236D01*
X2540000Y-64071943D01*
X2821308Y-64044236D01*
X3091807Y-63962182D01*
X3341100Y-63828932D01*
X3559607Y-63649608D01*
X3738932Y-63431101D01*
X3810000Y-63298142D01*
X3881068Y-63431100D01*
X4060392Y-63649607D01*
X4278899Y-63828932D01*
X4528192Y-63962182D01*
X4798691Y-64044236D01*
X5080000Y-64071943D01*
X5361308Y-64044236D01*
X5631807Y-63962182D01*
X5881100Y-63828932D01*
X6099607Y-63649608D01*
X6278932Y-63431101D01*
X6347265Y-63303259D01*
X6497399Y-63532839D01*
X6695105Y-63734500D01*
X6928354Y-63893715D01*
X7188182Y-64004367D01*
X7270961Y-64021904D01*
X7493000Y-63899915D01*
X7493000Y-62357000D01*
X7473000Y-62357000D01*
X7473000Y-62103000D01*
X7493000Y-62103000D01*
X7493000Y-60560085D01*
X7747000Y-60560085D01*
X7747000Y-62103000D01*
X7767000Y-62103000D01*
X7767000Y-62357000D01*
X7747000Y-62357000D01*
X7747000Y-63899915D01*
X7969039Y-64021904D01*
X8051818Y-64004367D01*
X8311646Y-63893715D01*
X8544895Y-63734500D01*
X8742601Y-63532839D01*
X8892735Y-63303258D01*
X8961068Y-63431100D01*
X9140392Y-63649607D01*
X9358899Y-63828932D01*
X9608192Y-63962182D01*
X9878691Y-64044236D01*
X10160000Y-64071943D01*
X10441308Y-64044236D01*
X10711807Y-63962182D01*
X10961100Y-63828932D01*
X11179607Y-63649608D01*
X11358932Y-63431101D01*
X11430000Y-63298142D01*
X11501068Y-63431100D01*
X11680392Y-63649607D01*
X11898899Y-63828932D01*
X12148192Y-63962182D01*
X12418691Y-64044236D01*
X12700000Y-64071943D01*
X12981308Y-64044236D01*
X13251807Y-63962182D01*
X13501100Y-63828932D01*
X13719607Y-63649608D01*
X13898932Y-63431101D01*
X13970000Y-63298142D01*
X14041068Y-63431100D01*
X14220392Y-63649607D01*
X14438899Y-63828932D01*
X14688192Y-63962182D01*
X14958691Y-64044236D01*
X15240000Y-64071943D01*
X15521308Y-64044236D01*
X15791807Y-63962182D01*
X16041100Y-63828932D01*
X16259607Y-63649608D01*
X16438932Y-63431101D01*
X16507265Y-63303259D01*
X16657399Y-63532839D01*
X16855105Y-63734500D01*
X17088354Y-63893715D01*
X17348182Y-64004367D01*
X17430961Y-64021904D01*
X17653000Y-63899915D01*
X17653000Y-62357000D01*
X17907000Y-62357000D01*
X17907000Y-63899915D01*
X18129039Y-64021904D01*
X18211818Y-64004367D01*
X18471646Y-63893715D01*
X18704895Y-63734500D01*
X18902601Y-63532839D01*
X19057166Y-63296483D01*
X19162650Y-63034514D01*
X19215000Y-62757000D01*
X19215000Y-62357000D01*
X17907000Y-62357000D01*
X17653000Y-62357000D01*
X17633000Y-62357000D01*
X17633000Y-62103000D01*
X17653000Y-62103000D01*
X17653000Y-60560085D01*
X17907000Y-60560085D01*
X17907000Y-62103000D01*
X19215000Y-62103000D01*
X19215000Y-61703000D01*
X19162650Y-61425486D01*
X19057166Y-61163517D01*
X18902601Y-60927161D01*
X18704895Y-60725500D01*
X18471646Y-60566285D01*
X18211818Y-60455633D01*
X18129039Y-60438096D01*
X17907000Y-60560085D01*
X17653000Y-60560085D01*
X17430961Y-60438096D01*
X17348182Y-60455633D01*
X17088354Y-60566285D01*
X16855105Y-60725500D01*
X16657399Y-60927161D01*
X16507265Y-61156741D01*
X16438932Y-61028899D01*
X16259608Y-60810392D01*
X16041101Y-60631068D01*
X15791808Y-60497818D01*
X15521309Y-60415764D01*
X15240000Y-60388057D01*
X14958692Y-60415764D01*
X14688193Y-60497818D01*
X14438900Y-60631068D01*
X14220393Y-60810392D01*
X14041068Y-61028899D01*
X13970000Y-61161858D01*
X13898932Y-61028899D01*
X13719608Y-60810392D01*
X13501101Y-60631068D01*
X13251808Y-60497818D01*
X12981309Y-60415764D01*
X12700000Y-60388057D01*
X12418692Y-60415764D01*
X12148193Y-60497818D01*
X11898900Y-60631068D01*
X11680393Y-60810392D01*
X11501068Y-61028899D01*
X11430000Y-61161858D01*
X11358932Y-61028899D01*
X11179608Y-60810392D01*
X10961101Y-60631068D01*
X10711808Y-60497818D01*
X10441309Y-60415764D01*
X10160000Y-60388057D01*
X9878692Y-60415764D01*
X9608193Y-60497818D01*
X9358900Y-60631068D01*
X9140393Y-60810392D01*
X8961068Y-61028899D01*
X8892735Y-61156741D01*
X8742601Y-60927161D01*
X8544895Y-60725500D01*
X8311646Y-60566285D01*
X8051818Y-60455633D01*
X7969039Y-60438096D01*
X7747000Y-60560085D01*
X7493000Y-60560085D01*
X7270961Y-60438096D01*
X7188182Y-60455633D01*
X6928354Y-60566285D01*
X6695105Y-60725500D01*
X6497399Y-60927161D01*
X6347265Y-61156741D01*
X6278932Y-61028899D01*
X6099608Y-60810392D01*
X5881101Y-60631068D01*
X5631808Y-60497818D01*
X5361309Y-60415764D01*
X5080000Y-60388057D01*
X4798692Y-60415764D01*
X4528193Y-60497818D01*
X4278900Y-60631068D01*
X4060393Y-60810392D01*
X3881068Y-61028899D01*
X3810000Y-61161858D01*
X3738932Y-61028899D01*
X3559608Y-60810392D01*
X3341101Y-60631068D01*
X3091808Y-60497818D01*
X2821309Y-60415764D01*
X2540000Y-60388057D01*
X2258692Y-60415764D01*
X1988193Y-60497818D01*
X1738900Y-60631068D01*
X1520393Y-60810392D01*
X1341068Y-61028899D01*
X1207818Y-61278192D01*
X1125764Y-61548691D01*
X1105000Y-61759508D01*
X660000Y-61759508D01*
X660000Y-58318061D01*
X7220000Y-58318061D01*
X7220000Y-58521939D01*
X7259774Y-58721898D01*
X7337795Y-58910256D01*
X7451063Y-59079774D01*
X7595226Y-59223937D01*
X7764744Y-59337205D01*
X7953102Y-59415226D01*
X8153061Y-59455000D01*
X8356939Y-59455000D01*
X8556898Y-59415226D01*
X8745256Y-59337205D01*
X8868285Y-59255000D01*
X13356715Y-59255000D01*
X13479744Y-59337205D01*
X13668102Y-59415226D01*
X13868061Y-59455000D01*
X14071939Y-59455000D01*
X14271898Y-59415226D01*
X14460256Y-59337205D01*
X14583285Y-59255000D01*
X17801715Y-59255000D01*
X17924744Y-59337205D01*
X18113102Y-59415226D01*
X18313061Y-59455000D01*
X18516939Y-59455000D01*
X18716898Y-59415226D01*
X18905256Y-59337205D01*
X19074774Y-59223937D01*
X19218937Y-59079774D01*
X19332205Y-58910256D01*
X19410226Y-58721898D01*
X19450000Y-58521939D01*
X19450000Y-58318061D01*
X19410226Y-58118102D01*
X19332205Y-57929744D01*
X19218937Y-57760226D01*
X19074774Y-57616063D01*
X18905256Y-57502795D01*
X18716898Y-57424774D01*
X18516939Y-57385000D01*
X18313061Y-57385000D01*
X18113102Y-57424774D01*
X17924744Y-57502795D01*
X17801715Y-57585000D01*
X14583285Y-57585000D01*
X14460256Y-57502795D01*
X14271898Y-57424774D01*
X14071939Y-57385000D01*
X13868061Y-57385000D01*
X13668102Y-57424774D01*
X13479744Y-57502795D01*
X13356715Y-57585000D01*
X8868285Y-57585000D01*
X8745256Y-57502795D01*
X8556898Y-57424774D01*
X8356939Y-57385000D01*
X8153061Y-57385000D01*
X7953102Y-57424774D01*
X7764744Y-57502795D01*
X7595226Y-57616063D01*
X7451063Y-57760226D01*
X7337795Y-57929744D01*
X7259774Y-58118102D01*
X7220000Y-58318061D01*
X660000Y-58318061D01*
X660000Y-54139508D01*
X1105000Y-54139508D01*
X1105000Y-55080491D01*
X1125764Y-55291308D01*
X1207818Y-55561807D01*
X1341068Y-55811100D01*
X1520392Y-56029607D01*
X1738899Y-56208932D01*
X1988192Y-56342182D01*
X2258691Y-56424236D01*
X2540000Y-56451943D01*
X2821308Y-56424236D01*
X3091807Y-56342182D01*
X3341100Y-56208932D01*
X3559607Y-56029608D01*
X3738932Y-55811101D01*
X3810000Y-55678142D01*
X3881068Y-55811100D01*
X4060392Y-56029607D01*
X4278899Y-56208932D01*
X4528192Y-56342182D01*
X4798691Y-56424236D01*
X5080000Y-56451943D01*
X5361308Y-56424236D01*
X5631807Y-56342182D01*
X5881100Y-56208932D01*
X6099607Y-56029608D01*
X6278932Y-55811101D01*
X6350000Y-55678142D01*
X6421068Y-55811100D01*
X6600392Y-56029607D01*
X6818899Y-56208932D01*
X7068192Y-56342182D01*
X7338691Y-56424236D01*
X7620000Y-56451943D01*
X7901308Y-56424236D01*
X8171807Y-56342182D01*
X8421100Y-56208932D01*
X8639607Y-56029608D01*
X8818932Y-55811101D01*
X8887265Y-55683259D01*
X9037399Y-55912839D01*
X9235105Y-56114500D01*
X9468354Y-56273715D01*
X9728182Y-56384367D01*
X9810961Y-56401904D01*
X10033000Y-56279915D01*
X10033000Y-54737000D01*
X10013000Y-54737000D01*
X10013000Y-54483000D01*
X10033000Y-54483000D01*
X10033000Y-52940085D01*
X10287000Y-52940085D01*
X10287000Y-54483000D01*
X10307000Y-54483000D01*
X10307000Y-54737000D01*
X10287000Y-54737000D01*
X10287000Y-56279915D01*
X10509039Y-56401904D01*
X10591818Y-56384367D01*
X10851646Y-56273715D01*
X11084895Y-56114500D01*
X11282601Y-55912839D01*
X11432735Y-55683258D01*
X11501068Y-55811100D01*
X11680392Y-56029607D01*
X11898899Y-56208932D01*
X12148192Y-56342182D01*
X12418691Y-56424236D01*
X12700000Y-56451943D01*
X12981308Y-56424236D01*
X13251807Y-56342182D01*
X13501100Y-56208932D01*
X13719607Y-56029608D01*
X13898932Y-55811101D01*
X13970000Y-55678142D01*
X14041068Y-55811100D01*
X14220392Y-56029607D01*
X14438899Y-56208932D01*
X14688192Y-56342182D01*
X14958691Y-56424236D01*
X15240000Y-56451943D01*
X15521308Y-56424236D01*
X15791807Y-56342182D01*
X16041100Y-56208932D01*
X16259607Y-56029608D01*
X16352419Y-55916517D01*
X16354188Y-55934482D01*
X16390498Y-56054180D01*
X16449463Y-56164494D01*
X16528815Y-56261185D01*
X16625506Y-56340537D01*
X16735820Y-56399502D01*
X16855518Y-56435812D01*
X16980000Y-56448072D01*
X18580000Y-56448072D01*
X18704482Y-56435812D01*
X18824180Y-56399502D01*
X18934494Y-56340537D01*
X19031185Y-56261185D01*
X19110537Y-56164494D01*
X19169502Y-56054180D01*
X19205812Y-55934482D01*
X19218072Y-55810000D01*
X19218072Y-53410000D01*
X19205812Y-53285518D01*
X19169502Y-53165820D01*
X19110537Y-53055506D01*
X19031185Y-52958815D01*
X18934494Y-52879463D01*
X18824180Y-52820498D01*
X18704482Y-52784188D01*
X18580000Y-52771928D01*
X16980000Y-52771928D01*
X16855518Y-52784188D01*
X16735820Y-52820498D01*
X16625506Y-52879463D01*
X16528815Y-52958815D01*
X16449463Y-53055506D01*
X16390498Y-53165820D01*
X16354188Y-53285518D01*
X16352419Y-53303482D01*
X16259608Y-53190392D01*
X16041101Y-53011068D01*
X15791808Y-52877818D01*
X15521309Y-52795764D01*
X15240000Y-52768057D01*
X14958692Y-52795764D01*
X14688193Y-52877818D01*
X14438900Y-53011068D01*
X14220393Y-53190392D01*
X14041068Y-53408899D01*
X13970000Y-53541858D01*
X13898932Y-53408899D01*
X13719608Y-53190392D01*
X13501101Y-53011068D01*
X13251808Y-52877818D01*
X12981309Y-52795764D01*
X12700000Y-52768057D01*
X12418692Y-52795764D01*
X12148193Y-52877818D01*
X11898900Y-53011068D01*
X11680393Y-53190392D01*
X11501068Y-53408899D01*
X11432735Y-53536741D01*
X11282601Y-53307161D01*
X11084895Y-53105500D01*
X10851646Y-52946285D01*
X10591818Y-52835633D01*
X10509039Y-52818096D01*
X10287000Y-52940085D01*
X10033000Y-52940085D01*
X9810961Y-52818096D01*
X9728182Y-52835633D01*
X9468354Y-52946285D01*
X9235105Y-53105500D01*
X9037399Y-53307161D01*
X8887265Y-53536741D01*
X8818932Y-53408899D01*
X8639608Y-53190392D01*
X8421101Y-53011068D01*
X8171808Y-52877818D01*
X7901309Y-52795764D01*
X7620000Y-52768057D01*
X7338692Y-52795764D01*
X7068193Y-52877818D01*
X6818900Y-53011068D01*
X6600393Y-53190392D01*
X6421068Y-53408899D01*
X6350000Y-53541858D01*
X6278932Y-53408899D01*
X6099608Y-53190392D01*
X5881101Y-53011068D01*
X5631808Y-52877818D01*
X5361309Y-52795764D01*
X5080000Y-52768057D01*
X4798692Y-52795764D01*
X4528193Y-52877818D01*
X4278900Y-53011068D01*
X4060393Y-53190392D01*
X3881068Y-53408899D01*
X3810000Y-53541858D01*
X3738932Y-53408899D01*
X3559608Y-53190392D01*
X3341101Y-53011068D01*
X3091808Y-52877818D01*
X2821309Y-52795764D01*
X2540000Y-52768057D01*
X2258692Y-52795764D01*
X1988193Y-52877818D01*
X1738900Y-53011068D01*
X1520393Y-53190392D01*
X1341068Y-53408899D01*
X1207818Y-53658192D01*
X1125764Y-53928691D01*
X1105000Y-54139508D01*
X660000Y-54139508D01*
X660000Y-50658665D01*
X8725000Y-50658665D01*
X8725000Y-50941335D01*
X8780147Y-51218574D01*
X8888320Y-51479727D01*
X9045363Y-51714759D01*
X9245241Y-51914637D01*
X9480273Y-52071680D01*
X9741426Y-52179853D01*
X10018665Y-52235000D01*
X10301335Y-52235000D01*
X10578574Y-52179853D01*
X10839727Y-52071680D01*
X11074759Y-51914637D01*
X11274637Y-51714759D01*
X11371333Y-51570044D01*
X11405226Y-51603937D01*
X11574744Y-51717205D01*
X11763102Y-51795226D01*
X11963061Y-51835000D01*
X12166939Y-51835000D01*
X12366898Y-51795226D01*
X12555256Y-51717205D01*
X12724774Y-51603937D01*
X12868937Y-51459774D01*
X12982205Y-51290256D01*
X13060226Y-51101898D01*
X13100000Y-50901939D01*
X13100000Y-50698061D01*
X13092164Y-50658665D01*
X16345000Y-50658665D01*
X16345000Y-50941335D01*
X16400147Y-51218574D01*
X16508320Y-51479727D01*
X16665363Y-51714759D01*
X16865241Y-51914637D01*
X17100273Y-52071680D01*
X17361426Y-52179853D01*
X17638665Y-52235000D01*
X17921335Y-52235000D01*
X18198574Y-52179853D01*
X18459727Y-52071680D01*
X18694759Y-51914637D01*
X18894637Y-51714759D01*
X19051680Y-51479727D01*
X19159853Y-51218574D01*
X19215000Y-50941335D01*
X19215000Y-50658665D01*
X19159853Y-50381426D01*
X19051680Y-50120273D01*
X18894637Y-49885241D01*
X18694759Y-49685363D01*
X18459727Y-49528320D01*
X18198574Y-49420147D01*
X17921335Y-49365000D01*
X17638665Y-49365000D01*
X17361426Y-49420147D01*
X17100273Y-49528320D01*
X16865241Y-49685363D01*
X16665363Y-49885241D01*
X16508320Y-50120273D01*
X16400147Y-50381426D01*
X16345000Y-50658665D01*
X13092164Y-50658665D01*
X13060226Y-50498102D01*
X12982205Y-50309744D01*
X12900000Y-50186715D01*
X12900000Y-46333285D01*
X12982205Y-46210256D01*
X13060226Y-46021898D01*
X13100000Y-45821939D01*
X13100000Y-45618061D01*
X13060226Y-45418102D01*
X12982205Y-45229744D01*
X12868937Y-45060226D01*
X12724774Y-44916063D01*
X12555256Y-44802795D01*
X12366898Y-44724774D01*
X12166939Y-44685000D01*
X11963061Y-44685000D01*
X11763102Y-44724774D01*
X11574744Y-44802795D01*
X11405226Y-44916063D01*
X11261063Y-45060226D01*
X11147795Y-45229744D01*
X11069774Y-45418102D01*
X11030000Y-45618061D01*
X11030000Y-45821939D01*
X11069774Y-46021898D01*
X11147795Y-46210256D01*
X11230000Y-46333285D01*
X11230001Y-49840605D01*
X11074759Y-49685363D01*
X10839727Y-49528320D01*
X10578574Y-49420147D01*
X10301335Y-49365000D01*
X10018665Y-49365000D01*
X9741426Y-49420147D01*
X9480273Y-49528320D01*
X9245241Y-49685363D01*
X9045363Y-49885241D01*
X8888320Y-50120273D01*
X8780147Y-50381426D01*
X8725000Y-50658665D01*
X660000Y-50658665D01*
X660000Y-44308665D01*
X1185000Y-44308665D01*
X1185000Y-44591335D01*
X1240147Y-44868574D01*
X1348320Y-45129727D01*
X1505363Y-45364759D01*
X1705241Y-45564637D01*
X1937759Y-45720000D01*
X1705241Y-45875363D01*
X1505363Y-46075241D01*
X1348320Y-46310273D01*
X1240147Y-46571426D01*
X1185000Y-46848665D01*
X1185000Y-47131335D01*
X1240147Y-47408574D01*
X1348320Y-47669727D01*
X1505363Y-47904759D01*
X1705241Y-48104637D01*
X1940273Y-48261680D01*
X2201426Y-48369853D01*
X2478665Y-48425000D01*
X2761335Y-48425000D01*
X3038574Y-48369853D01*
X3299727Y-48261680D01*
X3534759Y-48104637D01*
X3734637Y-47904759D01*
X3891680Y-47669727D01*
X3999853Y-47408574D01*
X4055000Y-47131335D01*
X4055000Y-46848665D01*
X6185000Y-46848665D01*
X6185000Y-47131335D01*
X6240147Y-47408574D01*
X6348320Y-47669727D01*
X6505363Y-47904759D01*
X6705241Y-48104637D01*
X6940273Y-48261680D01*
X7201426Y-48369853D01*
X7478665Y-48425000D01*
X7761335Y-48425000D01*
X8038574Y-48369853D01*
X8299727Y-48261680D01*
X8534759Y-48104637D01*
X8734637Y-47904759D01*
X8891680Y-47669727D01*
X8999853Y-47408574D01*
X9055000Y-47131335D01*
X9055000Y-46848665D01*
X8999853Y-46571426D01*
X8891680Y-46310273D01*
X8734637Y-46075241D01*
X8534759Y-45875363D01*
X8300872Y-45719085D01*
X8361514Y-45686671D01*
X8433097Y-45442702D01*
X7620000Y-44629605D01*
X6806903Y-45442702D01*
X6878486Y-45686671D01*
X6942992Y-45717194D01*
X6940273Y-45718320D01*
X6705241Y-45875363D01*
X6505363Y-46075241D01*
X6348320Y-46310273D01*
X6240147Y-46571426D01*
X6185000Y-46848665D01*
X4055000Y-46848665D01*
X3999853Y-46571426D01*
X3891680Y-46310273D01*
X3734637Y-46075241D01*
X3534759Y-45875363D01*
X3302241Y-45720000D01*
X3534759Y-45564637D01*
X3734637Y-45364759D01*
X3891680Y-45129727D01*
X3999853Y-44868574D01*
X4055000Y-44591335D01*
X4055000Y-44520512D01*
X6179783Y-44520512D01*
X6221213Y-44800130D01*
X6316397Y-45066292D01*
X6383329Y-45191514D01*
X6627298Y-45263097D01*
X7440395Y-44450000D01*
X7799605Y-44450000D01*
X8612702Y-45263097D01*
X8856671Y-45191514D01*
X8977571Y-44936004D01*
X9046300Y-44661816D01*
X9060217Y-44379488D01*
X9018787Y-44099870D01*
X8923603Y-43833708D01*
X8856671Y-43708486D01*
X8612702Y-43636903D01*
X7799605Y-44450000D01*
X7440395Y-44450000D01*
X6627298Y-43636903D01*
X6383329Y-43708486D01*
X6262429Y-43963996D01*
X6193700Y-44238184D01*
X6179783Y-44520512D01*
X4055000Y-44520512D01*
X4055000Y-44308665D01*
X3999853Y-44031426D01*
X3891680Y-43770273D01*
X3734637Y-43535241D01*
X3656694Y-43457298D01*
X6806903Y-43457298D01*
X7620000Y-44270395D01*
X8433097Y-43457298D01*
X8361514Y-43213329D01*
X8106004Y-43092429D01*
X7831816Y-43023700D01*
X7549488Y-43009783D01*
X7269870Y-43051213D01*
X7003708Y-43146397D01*
X6878486Y-43213329D01*
X6806903Y-43457298D01*
X3656694Y-43457298D01*
X3534759Y-43335363D01*
X3299727Y-43178320D01*
X3038574Y-43070147D01*
X2761335Y-43015000D01*
X2478665Y-43015000D01*
X2201426Y-43070147D01*
X1940273Y-43178320D01*
X1705241Y-43335363D01*
X1505363Y-43535241D01*
X1348320Y-43770273D01*
X1240147Y-44031426D01*
X1185000Y-44308665D01*
X660000Y-44308665D01*
X660000Y-37908816D01*
X3545000Y-37908816D01*
X3545000Y-38211184D01*
X3603989Y-38507743D01*
X3719701Y-38787095D01*
X3887688Y-39038505D01*
X4101495Y-39252312D01*
X4187831Y-39310000D01*
X4101495Y-39367688D01*
X3887688Y-39581495D01*
X3719701Y-39832905D01*
X3603989Y-40112257D01*
X3545000Y-40408816D01*
X3545000Y-40711184D01*
X3603989Y-41007743D01*
X3719701Y-41287095D01*
X3887688Y-41538505D01*
X4101495Y-41752312D01*
X4352905Y-41920299D01*
X4632257Y-42036011D01*
X4928816Y-42095000D01*
X5231184Y-42095000D01*
X5527743Y-42036011D01*
X5807095Y-41920299D01*
X6034031Y-41768665D01*
X8725000Y-41768665D01*
X8725000Y-42051335D01*
X8780147Y-42328574D01*
X8888320Y-42589727D01*
X9045363Y-42824759D01*
X9245241Y-43024637D01*
X9480273Y-43181680D01*
X9741426Y-43289853D01*
X10018665Y-43345000D01*
X10301335Y-43345000D01*
X10578574Y-43289853D01*
X10839727Y-43181680D01*
X11074759Y-43024637D01*
X11274637Y-42824759D01*
X11431680Y-42589727D01*
X11539853Y-42328574D01*
X11595000Y-42051335D01*
X11595000Y-41768665D01*
X11539853Y-41491426D01*
X11431680Y-41230273D01*
X11274637Y-40995241D01*
X11074759Y-40795363D01*
X10839727Y-40638320D01*
X10578574Y-40530147D01*
X10301335Y-40475000D01*
X10018665Y-40475000D01*
X9741426Y-40530147D01*
X9480273Y-40638320D01*
X9245241Y-40795363D01*
X9045363Y-40995241D01*
X8888320Y-41230273D01*
X8780147Y-41491426D01*
X8725000Y-41768665D01*
X6034031Y-41768665D01*
X6058505Y-41752312D01*
X6272312Y-41538505D01*
X6440299Y-41287095D01*
X6556011Y-41007743D01*
X6615000Y-40711184D01*
X6615000Y-40408816D01*
X6556011Y-40112257D01*
X6440299Y-39832905D01*
X6272312Y-39581495D01*
X6058505Y-39367688D01*
X5972169Y-39310000D01*
X6058505Y-39252312D01*
X6272312Y-39038505D01*
X6440299Y-38787095D01*
X6556011Y-38507743D01*
X6615000Y-38211184D01*
X6615000Y-37908816D01*
X6556011Y-37612257D01*
X6440299Y-37332905D01*
X6272312Y-37081495D01*
X6058505Y-36867688D01*
X5915690Y-36772262D01*
X5964475Y-36624080D01*
X5080000Y-35739605D01*
X4195525Y-36624080D01*
X4244310Y-36772262D01*
X4101495Y-36867688D01*
X3887688Y-37081495D01*
X3719701Y-37332905D01*
X3603989Y-37612257D01*
X3545000Y-37908816D01*
X660000Y-37908816D01*
X660000Y-35626553D01*
X3539009Y-35626553D01*
X3581603Y-35925907D01*
X3681778Y-36211199D01*
X3761739Y-36360792D01*
X4015920Y-36444475D01*
X4900395Y-35560000D01*
X5259605Y-35560000D01*
X6144080Y-36444475D01*
X6398261Y-36360792D01*
X6529158Y-36088225D01*
X6604365Y-35795358D01*
X6620991Y-35493447D01*
X6578397Y-35194093D01*
X6478222Y-34908801D01*
X6398261Y-34759208D01*
X6144080Y-34675525D01*
X5259605Y-35560000D01*
X4900395Y-35560000D01*
X4015920Y-34675525D01*
X3761739Y-34759208D01*
X3630842Y-35031775D01*
X3555635Y-35324642D01*
X3539009Y-35626553D01*
X660000Y-35626553D01*
X660000Y-34495920D01*
X4195525Y-34495920D01*
X5080000Y-35380395D01*
X5964475Y-34495920D01*
X5880792Y-34241739D01*
X5686984Y-34148665D01*
X8725000Y-34148665D01*
X8725000Y-34431335D01*
X8780147Y-34708574D01*
X8888320Y-34969727D01*
X9045363Y-35204759D01*
X9245241Y-35404637D01*
X9480273Y-35561680D01*
X9741426Y-35669853D01*
X10018665Y-35725000D01*
X10301335Y-35725000D01*
X10578574Y-35669853D01*
X10839727Y-35561680D01*
X11074759Y-35404637D01*
X11274637Y-35204759D01*
X11431680Y-34969727D01*
X11539853Y-34708574D01*
X11595000Y-34431335D01*
X11595000Y-34148665D01*
X11539853Y-33871426D01*
X11431680Y-33610273D01*
X11274637Y-33375241D01*
X11074759Y-33175363D01*
X10839727Y-33018320D01*
X10578574Y-32910147D01*
X10301335Y-32855000D01*
X10018665Y-32855000D01*
X9741426Y-32910147D01*
X9480273Y-33018320D01*
X9245241Y-33175363D01*
X9045363Y-33375241D01*
X8888320Y-33610273D01*
X8780147Y-33871426D01*
X8725000Y-34148665D01*
X5686984Y-34148665D01*
X5608225Y-34110842D01*
X5315358Y-34035635D01*
X5013447Y-34019009D01*
X4714093Y-34061603D01*
X4428801Y-34161778D01*
X4279208Y-34241739D01*
X4195525Y-34495920D01*
X660000Y-34495920D01*
X660000Y-23988665D01*
X11900000Y-23988665D01*
X11900000Y-24271335D01*
X11955147Y-24548574D01*
X12063320Y-24809727D01*
X12220363Y-25044759D01*
X12420241Y-25244637D01*
X12655273Y-25401680D01*
X12916426Y-25509853D01*
X13193665Y-25565000D01*
X13476335Y-25565000D01*
X13753574Y-25509853D01*
X14014727Y-25401680D01*
X14249759Y-25244637D01*
X14449637Y-25044759D01*
X14606680Y-24809727D01*
X14714853Y-24548574D01*
X14770000Y-24271335D01*
X14770000Y-23988665D01*
X14714853Y-23711426D01*
X14606680Y-23450273D01*
X14449637Y-23215241D01*
X14249759Y-23015363D01*
X14014727Y-22858320D01*
X13753574Y-22750147D01*
X13476335Y-22695000D01*
X13193665Y-22695000D01*
X12916426Y-22750147D01*
X12655273Y-22858320D01*
X12420241Y-23015363D01*
X12220363Y-23215241D01*
X12063320Y-23450273D01*
X11955147Y-23711426D01*
X11900000Y-23988665D01*
X660000Y-23988665D01*
X660000Y-22054117D01*
X7790000Y-22054117D01*
X7790000Y-22395883D01*
X7856675Y-22731081D01*
X7987463Y-23046831D01*
X8177337Y-23330998D01*
X8419002Y-23572663D01*
X8703169Y-23762537D01*
X9018919Y-23893325D01*
X9354117Y-23960000D01*
X9695883Y-23960000D01*
X10031081Y-23893325D01*
X10346831Y-23762537D01*
X10630998Y-23572663D01*
X10872663Y-23330998D01*
X11062537Y-23046831D01*
X11193325Y-22731081D01*
X11260000Y-22395883D01*
X11260000Y-22054117D01*
X11193325Y-21718919D01*
X11062537Y-21403169D01*
X10872663Y-21119002D01*
X10630998Y-20877337D01*
X10346831Y-20687463D01*
X10031081Y-20556675D01*
X9695883Y-20490000D01*
X9354117Y-20490000D01*
X9018919Y-20556675D01*
X8703169Y-20687463D01*
X8419002Y-20877337D01*
X8177337Y-21119002D01*
X7987463Y-21403169D01*
X7856675Y-21718919D01*
X7790000Y-22054117D01*
X660000Y-22054117D01*
X660000Y-17348816D01*
X3545000Y-17348816D01*
X3545000Y-17651184D01*
X3603989Y-17947743D01*
X3719701Y-18227095D01*
X3887688Y-18478505D01*
X4101495Y-18692312D01*
X4187831Y-18750000D01*
X4101495Y-18807688D01*
X3887688Y-19021495D01*
X3719701Y-19272905D01*
X3603989Y-19552257D01*
X3545000Y-19848816D01*
X3545000Y-20151184D01*
X3603989Y-20447743D01*
X3719701Y-20727095D01*
X3887688Y-20978505D01*
X4101495Y-21192312D01*
X4352905Y-21360299D01*
X4632257Y-21476011D01*
X4928816Y-21535000D01*
X5231184Y-21535000D01*
X5527743Y-21476011D01*
X5807095Y-21360299D01*
X6058505Y-21192312D01*
X6272312Y-20978505D01*
X6440299Y-20727095D01*
X6556011Y-20447743D01*
X6615000Y-20151184D01*
X6615000Y-19848816D01*
X6556011Y-19552257D01*
X6440299Y-19272905D01*
X6272312Y-19021495D01*
X6058505Y-18807688D01*
X5972169Y-18750000D01*
X6058505Y-18692312D01*
X6272312Y-18478505D01*
X6440299Y-18227095D01*
X6556011Y-17947743D01*
X6615000Y-17651184D01*
X6615000Y-17348816D01*
X6556011Y-17052257D01*
X6440299Y-16772905D01*
X6272312Y-16521495D01*
X6119482Y-16368665D01*
X11900000Y-16368665D01*
X11900000Y-16651335D01*
X11955147Y-16928574D01*
X12063320Y-17189727D01*
X12220363Y-17424759D01*
X12420241Y-17624637D01*
X12655273Y-17781680D01*
X12916426Y-17889853D01*
X13193665Y-17945000D01*
X13476335Y-17945000D01*
X13753574Y-17889853D01*
X14014727Y-17781680D01*
X14249759Y-17624637D01*
X14449637Y-17424759D01*
X14606680Y-17189727D01*
X14714853Y-16928574D01*
X14770000Y-16651335D01*
X14770000Y-16368665D01*
X14714853Y-16091426D01*
X14606680Y-15830273D01*
X14449637Y-15595241D01*
X14249759Y-15395363D01*
X14014727Y-15238320D01*
X13753574Y-15130147D01*
X13476335Y-15075000D01*
X13193665Y-15075000D01*
X12916426Y-15130147D01*
X12655273Y-15238320D01*
X12420241Y-15395363D01*
X12220363Y-15595241D01*
X12063320Y-15830273D01*
X11955147Y-16091426D01*
X11900000Y-16368665D01*
X6119482Y-16368665D01*
X6058505Y-16307688D01*
X5915690Y-16212262D01*
X5964475Y-16064080D01*
X5080000Y-15179605D01*
X4195525Y-16064080D01*
X4244310Y-16212262D01*
X4101495Y-16307688D01*
X3887688Y-16521495D01*
X3719701Y-16772905D01*
X3603989Y-17052257D01*
X3545000Y-17348816D01*
X660000Y-17348816D01*
X660000Y-15066553D01*
X3539009Y-15066553D01*
X3581603Y-15365907D01*
X3681778Y-15651199D01*
X3761739Y-15800792D01*
X4015920Y-15884475D01*
X4900395Y-15000000D01*
X5259605Y-15000000D01*
X6144080Y-15884475D01*
X6398261Y-15800792D01*
X6529158Y-15528225D01*
X6604365Y-15235358D01*
X6620991Y-14933447D01*
X6578397Y-14634093D01*
X6478222Y-14348801D01*
X6398261Y-14199208D01*
X6144080Y-14115525D01*
X5259605Y-15000000D01*
X4900395Y-15000000D01*
X4015920Y-14115525D01*
X3761739Y-14199208D01*
X3630842Y-14471775D01*
X3555635Y-14764642D01*
X3539009Y-15066553D01*
X660000Y-15066553D01*
X660000Y-13935920D01*
X4195525Y-13935920D01*
X5080000Y-14820395D01*
X5964475Y-13935920D01*
X5927543Y-13823740D01*
X17565000Y-13823740D01*
X17565000Y-14116260D01*
X17622068Y-14403158D01*
X17734010Y-14673411D01*
X17896525Y-14916632D01*
X18103368Y-15123475D01*
X18277760Y-15240000D01*
X18103368Y-15356525D01*
X17896525Y-15563368D01*
X17734010Y-15806589D01*
X17622068Y-16076842D01*
X17565000Y-16363740D01*
X17565000Y-16656260D01*
X17622068Y-16943158D01*
X17734010Y-17213411D01*
X17896525Y-17456632D01*
X18103368Y-17663475D01*
X18277760Y-17780000D01*
X18103368Y-17896525D01*
X17896525Y-18103368D01*
X17734010Y-18346589D01*
X17622068Y-18616842D01*
X17565000Y-18903740D01*
X17565000Y-19196260D01*
X17622068Y-19483158D01*
X17734010Y-19753411D01*
X17896525Y-19996632D01*
X18103368Y-20203475D01*
X18277760Y-20320000D01*
X18103368Y-20436525D01*
X17896525Y-20643368D01*
X17734010Y-20886589D01*
X17622068Y-21156842D01*
X17565000Y-21443740D01*
X17565000Y-21736260D01*
X17622068Y-22023158D01*
X17734010Y-22293411D01*
X17896525Y-22536632D01*
X18103368Y-22743475D01*
X18277760Y-22860000D01*
X18103368Y-22976525D01*
X17896525Y-23183368D01*
X17734010Y-23426589D01*
X17622068Y-23696842D01*
X17565000Y-23983740D01*
X17565000Y-24276260D01*
X17622068Y-24563158D01*
X17734010Y-24833411D01*
X17896525Y-25076632D01*
X18103368Y-25283475D01*
X18277760Y-25400000D01*
X18103368Y-25516525D01*
X17896525Y-25723368D01*
X17734010Y-25966589D01*
X17622068Y-26236842D01*
X17565000Y-26523740D01*
X17565000Y-26816260D01*
X17622068Y-27103158D01*
X17734010Y-27373411D01*
X17896525Y-27616632D01*
X18103368Y-27823475D01*
X18277760Y-27940000D01*
X18103368Y-28056525D01*
X17896525Y-28263368D01*
X17734010Y-28506589D01*
X17622068Y-28776842D01*
X17565000Y-29063740D01*
X17565000Y-29356260D01*
X17622068Y-29643158D01*
X17734010Y-29913411D01*
X17896525Y-30156632D01*
X18103368Y-30363475D01*
X18277760Y-30480000D01*
X18103368Y-30596525D01*
X17896525Y-30803368D01*
X17734010Y-31046589D01*
X17622068Y-31316842D01*
X17565000Y-31603740D01*
X17565000Y-31896260D01*
X17622068Y-32183158D01*
X17734010Y-32453411D01*
X17896525Y-32696632D01*
X18103368Y-32903475D01*
X18346589Y-33065990D01*
X18616842Y-33177932D01*
X18903740Y-33235000D01*
X19196260Y-33235000D01*
X19483158Y-33177932D01*
X19753411Y-33065990D01*
X19996632Y-32903475D01*
X20183715Y-32716392D01*
X20251595Y-32843386D01*
X20362038Y-32977962D01*
X20496614Y-33088405D01*
X20650150Y-33170472D01*
X20816746Y-33221008D01*
X20990000Y-33238072D01*
X22190000Y-33238072D01*
X22363254Y-33221008D01*
X22529850Y-33170472D01*
X22683386Y-33088405D01*
X22817962Y-32977962D01*
X22928405Y-32843386D01*
X23010472Y-32689850D01*
X23061008Y-32523254D01*
X23078072Y-32350000D01*
X23078072Y-31150000D01*
X23061008Y-30976746D01*
X23010472Y-30810150D01*
X22928405Y-30656614D01*
X22817962Y-30522038D01*
X22683386Y-30411595D01*
X22556392Y-30343715D01*
X22743475Y-30156632D01*
X22905990Y-29913411D01*
X23017932Y-29643158D01*
X23075000Y-29356260D01*
X23075000Y-29063740D01*
X23017932Y-28776842D01*
X22905990Y-28506589D01*
X22743475Y-28263368D01*
X22536632Y-28056525D01*
X22362240Y-27940000D01*
X22536632Y-27823475D01*
X22743475Y-27616632D01*
X22905990Y-27373411D01*
X23017932Y-27103158D01*
X23075000Y-26816260D01*
X23075000Y-26523740D01*
X23017932Y-26236842D01*
X22905990Y-25966589D01*
X22743475Y-25723368D01*
X22536632Y-25516525D01*
X22362240Y-25400000D01*
X22536632Y-25283475D01*
X22743475Y-25076632D01*
X22905990Y-24833411D01*
X23017932Y-24563158D01*
X23075000Y-24276260D01*
X23075000Y-23983740D01*
X23017932Y-23696842D01*
X22905990Y-23426589D01*
X22743475Y-23183368D01*
X22536632Y-22976525D01*
X22362240Y-22860000D01*
X22536632Y-22743475D01*
X22743475Y-22536632D01*
X22905990Y-22293411D01*
X23017932Y-22023158D01*
X23075000Y-21736260D01*
X23075000Y-21443740D01*
X23017932Y-21156842D01*
X22905990Y-20886589D01*
X22743475Y-20643368D01*
X22536632Y-20436525D01*
X22362240Y-20320000D01*
X22536632Y-20203475D01*
X22743475Y-19996632D01*
X22905990Y-19753411D01*
X23017932Y-19483158D01*
X23075000Y-19196260D01*
X23075000Y-18903740D01*
X23017932Y-18616842D01*
X22905990Y-18346589D01*
X22743475Y-18103368D01*
X22536632Y-17896525D01*
X22362240Y-17780000D01*
X22536632Y-17663475D01*
X22743475Y-17456632D01*
X22905990Y-17213411D01*
X23017932Y-16943158D01*
X23075000Y-16656260D01*
X23075000Y-16363740D01*
X23017932Y-16076842D01*
X22905990Y-15806589D01*
X22743475Y-15563368D01*
X22536632Y-15356525D01*
X22362240Y-15240000D01*
X22536632Y-15123475D01*
X22743475Y-14916632D01*
X22905990Y-14673411D01*
X23017932Y-14403158D01*
X23075000Y-14116260D01*
X23075000Y-13823740D01*
X23017932Y-13536842D01*
X22905990Y-13266589D01*
X22743475Y-13023368D01*
X22536632Y-12816525D01*
X22293411Y-12654010D01*
X22023158Y-12542068D01*
X21736260Y-12485000D01*
X21443740Y-12485000D01*
X21156842Y-12542068D01*
X20886589Y-12654010D01*
X20643368Y-12816525D01*
X20436525Y-13023368D01*
X20320000Y-13197760D01*
X20203475Y-13023368D01*
X19996632Y-12816525D01*
X19753411Y-12654010D01*
X19483158Y-12542068D01*
X19196260Y-12485000D01*
X18903740Y-12485000D01*
X18616842Y-12542068D01*
X18346589Y-12654010D01*
X18103368Y-12816525D01*
X17896525Y-13023368D01*
X17734010Y-13266589D01*
X17622068Y-13536842D01*
X17565000Y-13823740D01*
X5927543Y-13823740D01*
X5880792Y-13681739D01*
X5608225Y-13550842D01*
X5315358Y-13475635D01*
X5013447Y-13459009D01*
X4714093Y-13501603D01*
X4428801Y-13601778D01*
X4279208Y-13681739D01*
X4195525Y-13935920D01*
X660000Y-13935920D01*
X660000Y-10965000D01*
X7786928Y-10965000D01*
X7786928Y-13165000D01*
X7799188Y-13289482D01*
X7835498Y-13409180D01*
X7894463Y-13519494D01*
X7973815Y-13616185D01*
X8070506Y-13695537D01*
X8180820Y-13754502D01*
X8300518Y-13790812D01*
X8425000Y-13803072D01*
X10625000Y-13803072D01*
X10749482Y-13790812D01*
X10869180Y-13754502D01*
X10979494Y-13695537D01*
X11076185Y-13616185D01*
X11155537Y-13519494D01*
X11214502Y-13409180D01*
X11250812Y-13289482D01*
X11263072Y-13165000D01*
X11263072Y-10965000D01*
X11250812Y-10840518D01*
X11214502Y-10720820D01*
X11155537Y-10610506D01*
X11076185Y-10513815D01*
X10979494Y-10434463D01*
X10869180Y-10375498D01*
X10749482Y-10339188D01*
X10625000Y-10326928D01*
X8425000Y-10326928D01*
X8300518Y-10339188D01*
X8180820Y-10375498D01*
X8070506Y-10434463D01*
X7973815Y-10513815D01*
X7894463Y-10610506D01*
X7835498Y-10720820D01*
X7799188Y-10840518D01*
X7786928Y-10965000D01*
X660000Y-10965000D01*
X660000Y-8370000D01*
X1836928Y-8370000D01*
X1849188Y-8494482D01*
X1885498Y-8614180D01*
X1944463Y-8724494D01*
X2023815Y-8821185D01*
X2120506Y-8900537D01*
X2230820Y-8959502D01*
X2350518Y-8995812D01*
X2475000Y-9008072D01*
X2714250Y-9005000D01*
X2873000Y-8846250D01*
X2873000Y-7747000D01*
X1998750Y-7747000D01*
X1840000Y-7905750D01*
X1836928Y-8370000D01*
X660000Y-8370000D01*
X660000Y-6870000D01*
X1836928Y-6870000D01*
X1840000Y-7334250D01*
X1998750Y-7493000D01*
X2873000Y-7493000D01*
X2873000Y-7338022D01*
X3110000Y-7338022D01*
X3110000Y-7901979D01*
X3126785Y-8072400D01*
X3127000Y-8073109D01*
X3127000Y-8846250D01*
X3285750Y-9005000D01*
X3525000Y-9008072D01*
X3649482Y-8995812D01*
X3769180Y-8959502D01*
X3833902Y-8924907D01*
X4042601Y-8988215D01*
X4270000Y-9010612D01*
X4497400Y-8988215D01*
X4716060Y-8921885D01*
X4905001Y-8820894D01*
X5093941Y-8921885D01*
X5312601Y-8988215D01*
X5540000Y-9010612D01*
X5767400Y-8988215D01*
X5986060Y-8921885D01*
X6187579Y-8814171D01*
X6364212Y-8669212D01*
X6509171Y-8492579D01*
X6616885Y-8291059D01*
X6683215Y-8072399D01*
X6700000Y-7901978D01*
X6700000Y-7338021D01*
X6683215Y-7167600D01*
X6616885Y-6948940D01*
X6547966Y-6820000D01*
X9991928Y-6820000D01*
X9991928Y-8420000D01*
X10004188Y-8544482D01*
X10040498Y-8664180D01*
X10099463Y-8774494D01*
X10178815Y-8871185D01*
X10275506Y-8950537D01*
X10385820Y-9009502D01*
X10505518Y-9045812D01*
X10630000Y-9058072D01*
X12230000Y-9058072D01*
X12354482Y-9045812D01*
X12474180Y-9009502D01*
X12584494Y-8950537D01*
X12681185Y-8871185D01*
X12760537Y-8774494D01*
X12819502Y-8664180D01*
X12855812Y-8544482D01*
X12868072Y-8420000D01*
X12868072Y-6820000D01*
X12855812Y-6695518D01*
X12819502Y-6575820D01*
X12760537Y-6465506D01*
X12681185Y-6368815D01*
X12664607Y-6355210D01*
X12701680Y-6299727D01*
X12809853Y-6038574D01*
X12865000Y-5761335D01*
X12865000Y-5478665D01*
X12809853Y-5201426D01*
X12701680Y-4940273D01*
X12544637Y-4705241D01*
X12344759Y-4505363D01*
X12109727Y-4348320D01*
X11848574Y-4240147D01*
X11571335Y-4185000D01*
X11288665Y-4185000D01*
X11011426Y-4240147D01*
X10750273Y-4348320D01*
X10515241Y-4505363D01*
X10315363Y-4705241D01*
X10158320Y-4940273D01*
X10050147Y-5201426D01*
X9995000Y-5478665D01*
X9995000Y-5761335D01*
X10050147Y-6038574D01*
X10158320Y-6299727D01*
X10195393Y-6355210D01*
X10178815Y-6368815D01*
X10099463Y-6465506D01*
X10040498Y-6575820D01*
X10004188Y-6695518D01*
X9991928Y-6820000D01*
X6547966Y-6820000D01*
X6509171Y-6747421D01*
X6364212Y-6570788D01*
X6187578Y-6425829D01*
X5986059Y-6318115D01*
X5767399Y-6251785D01*
X5540000Y-6229388D01*
X5312600Y-6251785D01*
X5093940Y-6318115D01*
X4905000Y-6419106D01*
X4716059Y-6318115D01*
X4497399Y-6251785D01*
X4270000Y-6229388D01*
X4042600Y-6251785D01*
X3833902Y-6315093D01*
X3769180Y-6280498D01*
X3649482Y-6244188D01*
X3525000Y-6231928D01*
X3285750Y-6235000D01*
X3127000Y-6393750D01*
X3127000Y-7166892D01*
X3126785Y-7167601D01*
X3110000Y-7338022D01*
X2873000Y-7338022D01*
X2873000Y-6393750D01*
X2714250Y-6235000D01*
X2475000Y-6231928D01*
X2350518Y-6244188D01*
X2230820Y-6280498D01*
X2120506Y-6339463D01*
X2023815Y-6418815D01*
X1944463Y-6515506D01*
X1885498Y-6625820D01*
X1849188Y-6745518D01*
X1836928Y-6870000D01*
X660000Y-6870000D01*
X660000Y-660000D01*
X25340000Y-660000D01*
X25340001Y-109340000D01*
G37*
G04 #@! TD.AperFunction*
G04 #@! TD*
M02*
