G04 #@! TF.GenerationSoftware,KiCad,Pcbnew,(5.1.9)-1*
G04 #@! TF.CreationDate,2021-03-24T07:37:38+01:00*
G04 #@! TF.ProjectId,APC Eurorack Main,41504320-4575-4726-9f72-61636b204d61,rev?*
G04 #@! TF.SameCoordinates,Original*
G04 #@! TF.FileFunction,Copper,L2,Bot*
G04 #@! TF.FilePolarity,Positive*
%FSLAX46Y46*%
G04 Gerber Fmt 4.6, Leading zero omitted, Abs format (unit mm)*
G04 Created by KiCad (PCBNEW (5.1.9)-1) date 2021-03-24 07:37:38*
%MOMM*%
%LPD*%
G01*
G04 APERTURE LIST*
G04 #@! TA.AperFunction,ComponentPad*
%ADD10O,1.600000X1.600000*%
G04 #@! TD*
G04 #@! TA.AperFunction,ComponentPad*
%ADD11C,1.600000*%
G04 #@! TD*
G04 #@! TA.AperFunction,ComponentPad*
%ADD12C,1.800000*%
G04 #@! TD*
G04 #@! TA.AperFunction,ComponentPad*
%ADD13O,1.600000X3.500000*%
G04 #@! TD*
G04 #@! TA.AperFunction,ComponentPad*
%ADD14C,1.700000*%
G04 #@! TD*
G04 #@! TA.AperFunction,ComponentPad*
%ADD15O,1.600000X2.400000*%
G04 #@! TD*
G04 #@! TA.AperFunction,ComponentPad*
%ADD16R,1.600000X2.400000*%
G04 #@! TD*
G04 #@! TA.AperFunction,ComponentPad*
%ADD17R,1.050000X1.500000*%
G04 #@! TD*
G04 #@! TA.AperFunction,ComponentPad*
%ADD18O,1.050000X1.500000*%
G04 #@! TD*
G04 #@! TA.AperFunction,ComponentPad*
%ADD19O,2.200000X2.200000*%
G04 #@! TD*
G04 #@! TA.AperFunction,ComponentPad*
%ADD20R,2.200000X2.200000*%
G04 #@! TD*
G04 #@! TA.AperFunction,ComponentPad*
%ADD21R,1.600000X1.600000*%
G04 #@! TD*
G04 #@! TA.AperFunction,ViaPad*
%ADD22C,0.800000*%
G04 #@! TD*
G04 #@! TA.AperFunction,Conductor*
%ADD23C,0.250000*%
G04 #@! TD*
G04 #@! TA.AperFunction,Conductor*
%ADD24C,0.400000*%
G04 #@! TD*
G04 #@! TA.AperFunction,Conductor*
%ADD25C,0.254000*%
G04 #@! TD*
G04 #@! TA.AperFunction,Conductor*
%ADD26C,0.100000*%
G04 #@! TD*
G04 APERTURE END LIST*
D10*
G04 #@! TO.P,R1,2*
G04 #@! TO.N,Net-(C1-Pad1)*
X10160000Y-50800000D03*
D11*
G04 #@! TO.P,R1,1*
G04 #@! TO.N,Net-(IC2-Pad1)*
X17780000Y-50800000D03*
G04 #@! TD*
D12*
G04 #@! TO.P,R11,1*
G04 #@! TO.N,+VDC*
X5080000Y-35560000D03*
G04 #@! TO.P,R11,2*
G04 #@! TO.N,Net-(R11-Pad2)*
X5080000Y-38060000D03*
G04 #@! TO.P,R11,3*
X5080000Y-40560000D03*
G04 #@! TD*
G04 #@! TO.P,R10,1*
G04 #@! TO.N,+VDC*
X5080000Y-15000000D03*
G04 #@! TO.P,R10,2*
G04 #@! TO.N,Net-(IC2-Pad1)*
X5080000Y-17500000D03*
G04 #@! TO.P,R10,3*
X5080000Y-20000000D03*
G04 #@! TD*
D13*
G04 #@! TO.P,J6,TN*
G04 #@! TO.N,N/C*
X12800000Y-76100000D03*
G04 #@! TO.P,J6,T*
G04 #@! TO.N,Net-(J6-PadT)*
X7000000Y-76100000D03*
G04 #@! TO.P,J6,S*
G04 #@! TO.N,GND*
X1700000Y-76000000D03*
G04 #@! TD*
G04 #@! TO.P,J5,TN*
G04 #@! TO.N,N/C*
X12800000Y-100100000D03*
G04 #@! TO.P,J5,T*
G04 #@! TO.N,Net-(J5-PadT)*
X7000000Y-100100000D03*
G04 #@! TO.P,J5,S*
G04 #@! TO.N,GND*
X1700000Y-100000000D03*
G04 #@! TD*
G04 #@! TO.P,J4,TN*
G04 #@! TO.N,N/C*
X12800000Y-88100000D03*
G04 #@! TO.P,J4,T*
G04 #@! TO.N,Net-(J4-PadT)*
X7000000Y-88100000D03*
G04 #@! TO.P,J4,S*
G04 #@! TO.N,GND*
X1700000Y-88000000D03*
G04 #@! TD*
D10*
G04 #@! TO.P,R9,2*
G04 #@! TO.N,Net-(R11-Pad2)*
X10160000Y-34290000D03*
D11*
G04 #@! TO.P,R9,1*
G04 #@! TO.N,Net-(C2-Pad1)*
X10160000Y-41910000D03*
G04 #@! TD*
D10*
G04 #@! TO.P,R8,2*
G04 #@! TO.N,Net-(D3-Pad1)*
X16510000Y-69850000D03*
D11*
G04 #@! TO.P,R8,1*
G04 #@! TO.N,Net-(J5-PadT)*
X8890000Y-69850000D03*
G04 #@! TD*
D10*
G04 #@! TO.P,R7,2*
G04 #@! TO.N,Net-(D2-Pad1)*
X12065000Y-81915000D03*
D11*
G04 #@! TO.P,R7,1*
G04 #@! TO.N,Net-(J6-PadT)*
X4445000Y-81915000D03*
G04 #@! TD*
D10*
G04 #@! TO.P,R4,2*
G04 #@! TO.N,Net-(C3-Pad2)*
X12065000Y-106045000D03*
D11*
G04 #@! TO.P,R4,1*
G04 #@! TO.N,Net-(J4-PadT)*
X4445000Y-106045000D03*
G04 #@! TD*
D10*
G04 #@! TO.P,R3,2*
G04 #@! TO.N,Net-(J4-PadT)*
X4445000Y-93980000D03*
D11*
G04 #@! TO.P,R3,1*
G04 #@! TO.N,GND*
X12065000Y-93980000D03*
G04 #@! TD*
D10*
G04 #@! TO.P,R2,2*
G04 #@! TO.N,+12V*
X13335000Y-24130000D03*
D11*
G04 #@! TO.P,R2,1*
G04 #@! TO.N,Net-(D1-Pad2)*
X13335000Y-16510000D03*
G04 #@! TD*
D14*
G04 #@! TO.P,J1,16*
G04 #@! TO.N,N/C*
X19050000Y-13970000D03*
G04 #@! TO.P,J1,14*
X19050000Y-16510000D03*
G04 #@! TO.P,J1,12*
X19050000Y-19050000D03*
G04 #@! TO.P,J1,10*
G04 #@! TO.N,+12V*
X19050000Y-21590000D03*
G04 #@! TO.P,J1,8*
G04 #@! TO.N,GND*
X19050000Y-24130000D03*
G04 #@! TO.P,J1,6*
X19050000Y-26670000D03*
G04 #@! TO.P,J1,4*
X19050000Y-29210000D03*
G04 #@! TO.P,J1,2*
G04 #@! TO.N,N/C*
X19050000Y-31750000D03*
G04 #@! TO.P,J1,15*
X21590000Y-13970000D03*
G04 #@! TO.P,J1,13*
X21590000Y-16510000D03*
G04 #@! TO.P,J1,11*
X21590000Y-19050000D03*
G04 #@! TO.P,J1,9*
G04 #@! TO.N,+12V*
X21590000Y-21590000D03*
G04 #@! TO.P,J1,7*
G04 #@! TO.N,GND*
X21590000Y-24130000D03*
G04 #@! TO.P,J1,5*
X21590000Y-26670000D03*
G04 #@! TO.P,J1,3*
X21590000Y-29210000D03*
G04 #@! TO.P,J1,1*
G04 #@! TO.N,N/C*
G04 #@! TA.AperFunction,ComponentPad*
G36*
G01*
X22440000Y-31150000D02*
X22440000Y-32350000D01*
G75*
G02*
X22190000Y-32600000I-250000J0D01*
G01*
X20990000Y-32600000D01*
G75*
G02*
X20740000Y-32350000I0J250000D01*
G01*
X20740000Y-31150000D01*
G75*
G02*
X20990000Y-30900000I250000J0D01*
G01*
X22190000Y-30900000D01*
G75*
G02*
X22440000Y-31150000I0J-250000D01*
G01*
G37*
G04 #@! TD.AperFunction*
G04 #@! TD*
D15*
G04 #@! TO.P,IC2,14*
G04 #@! TO.N,+VDC*
X17780000Y-62230000D03*
G04 #@! TO.P,IC2,7*
G04 #@! TO.N,GND*
X2540000Y-54610000D03*
G04 #@! TO.P,IC2,13*
G04 #@! TO.N,Net-(C2-Pad1)*
X15240000Y-62230000D03*
G04 #@! TO.P,IC2,6*
G04 #@! TO.N,Net-(C1-Pad1)*
X5080000Y-54610000D03*
G04 #@! TO.P,IC2,12*
G04 #@! TO.N,Net-(C2-Pad1)*
X12700000Y-62230000D03*
G04 #@! TO.P,IC2,5*
G04 #@! TO.N,Net-(IC2-Pad5)*
X7620000Y-54610000D03*
G04 #@! TO.P,IC2,11*
G04 #@! TO.N,Net-(D3-Pad1)*
X10160000Y-62230000D03*
G04 #@! TO.P,IC2,4*
G04 #@! TO.N,+VDC*
X10160000Y-54610000D03*
G04 #@! TO.P,IC2,10*
X7620000Y-62230000D03*
G04 #@! TO.P,IC2,3*
G04 #@! TO.N,Net-(D2-Pad1)*
X12700000Y-54610000D03*
G04 #@! TO.P,IC2,9*
G04 #@! TO.N,Net-(C3-Pad1)*
X5080000Y-62230000D03*
G04 #@! TO.P,IC2,2*
G04 #@! TO.N,Net-(C1-Pad1)*
X15240000Y-54610000D03*
G04 #@! TO.P,IC2,8*
G04 #@! TO.N,Net-(IC2-Pad5)*
X2540000Y-62230000D03*
D16*
G04 #@! TO.P,IC2,1*
G04 #@! TO.N,Net-(IC2-Pad1)*
X17780000Y-54610000D03*
G04 #@! TD*
D17*
G04 #@! TO.P,IC1,1*
G04 #@! TO.N,+VDC*
X3000000Y-7620000D03*
D18*
G04 #@! TO.P,IC1,3*
G04 #@! TO.N,Net-(C5-Pad1)*
X5540000Y-7620000D03*
G04 #@! TO.P,IC1,2*
G04 #@! TO.N,GND*
X4270000Y-7620000D03*
G04 #@! TD*
D19*
G04 #@! TO.P,D3,2*
G04 #@! TO.N,GND*
X21590000Y-80010000D03*
D20*
G04 #@! TO.P,D3,1*
G04 #@! TO.N,Net-(D3-Pad1)*
X21590000Y-69850000D03*
G04 #@! TD*
D19*
G04 #@! TO.P,D2,2*
G04 #@! TO.N,GND*
X16510000Y-92075000D03*
D20*
G04 #@! TO.P,D2,1*
G04 #@! TO.N,Net-(D2-Pad1)*
X16510000Y-81915000D03*
G04 #@! TD*
D19*
G04 #@! TO.P,D1,2*
G04 #@! TO.N,Net-(D1-Pad2)*
X9525000Y-22225000D03*
D20*
G04 #@! TO.P,D1,1*
G04 #@! TO.N,Net-(C5-Pad1)*
X9525000Y-12065000D03*
G04 #@! TD*
D11*
G04 #@! TO.P,C5,2*
G04 #@! TO.N,GND*
X11430000Y-5620000D03*
D21*
G04 #@! TO.P,C5,1*
G04 #@! TO.N,Net-(C5-Pad1)*
X11430000Y-7620000D03*
G04 #@! TD*
D11*
G04 #@! TO.P,C4,2*
G04 #@! TO.N,GND*
X2620000Y-44450000D03*
G04 #@! TO.P,C4,1*
G04 #@! TO.N,+VDC*
X7620000Y-44450000D03*
G04 #@! TD*
G04 #@! TO.P,C3,2*
G04 #@! TO.N,Net-(C3-Pad2)*
X16510000Y-105410000D03*
D21*
G04 #@! TO.P,C3,1*
G04 #@! TO.N,Net-(C3-Pad1)*
X16510000Y-107410000D03*
G04 #@! TD*
D11*
G04 #@! TO.P,C2,2*
G04 #@! TO.N,GND*
X17700000Y-66040000D03*
G04 #@! TO.P,C2,1*
G04 #@! TO.N,Net-(C2-Pad1)*
X12700000Y-66040000D03*
G04 #@! TD*
G04 #@! TO.P,C1,2*
G04 #@! TO.N,GND*
X2620000Y-46990000D03*
G04 #@! TO.P,C1,1*
G04 #@! TO.N,Net-(C1-Pad1)*
X7620000Y-46990000D03*
G04 #@! TD*
D22*
G04 #@! TO.N,GND*
X3175000Y-67310000D03*
X6985000Y-67310000D03*
X18415000Y-58420000D03*
X13970000Y-58420000D03*
X8255000Y-58420000D03*
X12065000Y-45720000D03*
X12065000Y-50800000D03*
X10795000Y-84455000D03*
X7620000Y-84455000D03*
G04 #@! TD*
D23*
G04 #@! TO.N,Net-(C1-Pad1)*
X5080000Y-50800000D02*
X5080000Y-50165000D01*
X5080000Y-50165000D02*
X6350000Y-48895000D01*
X6350000Y-48895000D02*
X6985000Y-48895000D01*
X7620000Y-48260000D02*
X7620000Y-46990000D01*
X6985000Y-48895000D02*
X7620000Y-48260000D01*
X5080000Y-54610000D02*
X5080000Y-50800000D01*
X15240000Y-49530000D02*
X15240000Y-54610000D01*
X14605000Y-48895000D02*
X15240000Y-49530000D01*
X8255000Y-48895000D02*
X14605000Y-48895000D01*
X7620000Y-48260000D02*
X8255000Y-48895000D01*
X10160000Y-50800000D02*
X8255000Y-48895000D01*
G04 #@! TO.N,Net-(C2-Pad1)*
X15240000Y-62230000D02*
X12700000Y-62230000D01*
X12700000Y-66040000D02*
X12700000Y-62230000D01*
X10795000Y-47625000D02*
X10160000Y-46990000D01*
X14605000Y-47625000D02*
X10795000Y-47625000D01*
X10160000Y-46990000D02*
X10160000Y-41910000D01*
X16654999Y-49674999D02*
X14605000Y-47625000D01*
X15240000Y-59055000D02*
X16654999Y-57640001D01*
X16654999Y-57640001D02*
X16654999Y-49674999D01*
X15240000Y-62230000D02*
X15240000Y-59055000D01*
G04 #@! TO.N,Net-(C3-Pad2)*
X12700000Y-105410000D02*
X12065000Y-106045000D01*
X16510000Y-105410000D02*
X12700000Y-105410000D01*
G04 #@! TO.N,Net-(C3-Pad1)*
X5080000Y-62230000D02*
X5080000Y-77470000D01*
X5080000Y-77470000D02*
X2540000Y-80010000D01*
X2540000Y-80010000D02*
X2540000Y-85090000D01*
X4445000Y-86995000D02*
X4445000Y-89535000D01*
X2540000Y-85090000D02*
X4445000Y-86995000D01*
X4445000Y-89535000D02*
X2540000Y-91440000D01*
X2540000Y-91440000D02*
X2540000Y-97155000D01*
X2540000Y-97155000D02*
X3175000Y-97790000D01*
X3175000Y-97790000D02*
X3175000Y-102235000D01*
X3175000Y-102235000D02*
X2540000Y-102870000D01*
X2540000Y-102870000D02*
X2540000Y-107950000D01*
X2540000Y-107950000D02*
X3175000Y-108585000D01*
X15335000Y-108585000D02*
X16510000Y-107410000D01*
X3175000Y-108585000D02*
X15335000Y-108585000D01*
D24*
G04 #@! TO.N,Net-(C5-Pad1)*
X9525000Y-12065000D02*
X9525000Y-10795000D01*
X9525000Y-10795000D02*
X11430000Y-8890000D01*
X11430000Y-8890000D02*
X11430000Y-7620000D01*
X11430000Y-7620000D02*
X5540000Y-7620000D01*
G04 #@! TO.N,Net-(D1-Pad2)*
X13335000Y-19685000D02*
X13335000Y-16510000D01*
X12700000Y-20320000D02*
X13335000Y-19685000D01*
X10160000Y-20320000D02*
X12700000Y-20320000D01*
X9525000Y-20955000D02*
X10160000Y-20320000D01*
X9525000Y-22225000D02*
X9525000Y-20955000D01*
D23*
G04 #@! TO.N,Net-(D2-Pad1)*
X16510000Y-81915000D02*
X12065000Y-81915000D01*
X10795000Y-80645000D02*
X12065000Y-81915000D01*
X10795000Y-69215000D02*
X10795000Y-80645000D01*
X8890000Y-59055000D02*
X8890000Y-67310000D01*
X9525000Y-58420000D02*
X8890000Y-59055000D01*
X11430000Y-58420000D02*
X9525000Y-58420000D01*
X8890000Y-67310000D02*
X10795000Y-69215000D01*
X12700000Y-57150000D02*
X11430000Y-58420000D01*
X12700000Y-54610000D02*
X12700000Y-57150000D01*
G04 #@! TO.N,Net-(D3-Pad1)*
X16510000Y-69850000D02*
X21590000Y-69850000D01*
X11430000Y-69215000D02*
X12065000Y-69850000D01*
X11430000Y-68580000D02*
X11430000Y-69215000D01*
X10160000Y-67310000D02*
X11430000Y-68580000D01*
X12065000Y-69850000D02*
X16510000Y-69850000D01*
X10160000Y-62230000D02*
X10160000Y-67310000D01*
G04 #@! TO.N,Net-(IC2-Pad5)*
X2540000Y-62230000D02*
X2540000Y-59055000D01*
X2540000Y-59055000D02*
X3175000Y-58420000D01*
X3175000Y-58420000D02*
X6985000Y-58420000D01*
X7620000Y-57785000D02*
X7620000Y-54610000D01*
X6985000Y-58420000D02*
X7620000Y-57785000D01*
G04 #@! TO.N,Net-(IC2-Pad1)*
X5080000Y-17500000D02*
X5080000Y-20000000D01*
X17780000Y-54610000D02*
X17780000Y-50800000D01*
X5080000Y-20000000D02*
X5080000Y-26670000D01*
X5080000Y-26670000D02*
X5715000Y-27305000D01*
X5715000Y-27305000D02*
X13335000Y-27305000D01*
X13335000Y-27305000D02*
X13970000Y-27940000D01*
X13970000Y-27940000D02*
X13970000Y-45720000D01*
X17780000Y-49530000D02*
X17780000Y-50800000D01*
X13970000Y-45720000D02*
X17780000Y-49530000D01*
D24*
G04 #@! TO.N,+12V*
X21590000Y-21590000D02*
X19050000Y-21590000D01*
X13335000Y-24130000D02*
X15875000Y-21590000D01*
X15875000Y-21590000D02*
X19050000Y-21590000D01*
D23*
G04 #@! TO.N,Net-(J4-PadT)*
X4445000Y-93980000D02*
X4445000Y-92710000D01*
X4445000Y-92710000D02*
X5080000Y-92075000D01*
X5080000Y-92075000D02*
X6350000Y-92075000D01*
X7000000Y-88100000D02*
X7000000Y-91425000D01*
X7000000Y-91425000D02*
X6350000Y-92075000D01*
X4445000Y-106045000D02*
X4445000Y-93980000D01*
G04 #@! TO.N,Net-(J5-PadT)*
X8890000Y-95250000D02*
X8890000Y-69850000D01*
X7000000Y-97140000D02*
X8890000Y-95250000D01*
X7000000Y-100100000D02*
X7000000Y-97140000D01*
G04 #@! TO.N,Net-(J6-PadT)*
X4445000Y-81915000D02*
X4445000Y-80645000D01*
X4445000Y-80645000D02*
X5080000Y-80010000D01*
X5080000Y-80010000D02*
X6350000Y-80010000D01*
X7000000Y-79360000D02*
X6350000Y-80010000D01*
X7000000Y-76100000D02*
X7000000Y-79360000D01*
G04 #@! TO.N,Net-(R11-Pad2)*
X5080000Y-38060000D02*
X5080000Y-40560000D01*
X10160000Y-36195000D02*
X10160000Y-34290000D01*
X8295000Y-38060000D02*
X10160000Y-36195000D01*
X5080000Y-38060000D02*
X8295000Y-38060000D01*
G04 #@! TD*
D25*
G04 #@! TO.N,GND*
X25340001Y-109340000D02*
X15423098Y-109340000D01*
X15483986Y-109334003D01*
X15627247Y-109290546D01*
X15759276Y-109219974D01*
X15875001Y-109125001D01*
X15898804Y-109095997D01*
X16146729Y-108848072D01*
X17310000Y-108848072D01*
X17434482Y-108835812D01*
X17554180Y-108799502D01*
X17664494Y-108740537D01*
X17761185Y-108661185D01*
X17840537Y-108564494D01*
X17899502Y-108454180D01*
X17935812Y-108334482D01*
X17948072Y-108210000D01*
X17948072Y-106610000D01*
X17935812Y-106485518D01*
X17899502Y-106365820D01*
X17840537Y-106255506D01*
X17761185Y-106158815D01*
X17744607Y-106145210D01*
X17781680Y-106089727D01*
X17889853Y-105828574D01*
X17945000Y-105551335D01*
X17945000Y-105268665D01*
X17889853Y-104991426D01*
X17781680Y-104730273D01*
X17624637Y-104495241D01*
X17424759Y-104295363D01*
X17189727Y-104138320D01*
X16928574Y-104030147D01*
X16651335Y-103975000D01*
X16368665Y-103975000D01*
X16091426Y-104030147D01*
X15830273Y-104138320D01*
X15595241Y-104295363D01*
X15395363Y-104495241D01*
X15291957Y-104650000D01*
X12737333Y-104650000D01*
X12700000Y-104646323D01*
X12662667Y-104650000D01*
X12551014Y-104660997D01*
X12506300Y-104674561D01*
X12483574Y-104665147D01*
X12206335Y-104610000D01*
X11923665Y-104610000D01*
X11646426Y-104665147D01*
X11385273Y-104773320D01*
X11150241Y-104930363D01*
X10950363Y-105130241D01*
X10793320Y-105365273D01*
X10685147Y-105626426D01*
X10630000Y-105903665D01*
X10630000Y-106186335D01*
X10685147Y-106463574D01*
X10793320Y-106724727D01*
X10950363Y-106959759D01*
X11150241Y-107159637D01*
X11385273Y-107316680D01*
X11646426Y-107424853D01*
X11923665Y-107480000D01*
X12206335Y-107480000D01*
X12483574Y-107424853D01*
X12744727Y-107316680D01*
X12979759Y-107159637D01*
X13179637Y-106959759D01*
X13336680Y-106724727D01*
X13444853Y-106463574D01*
X13500000Y-106186335D01*
X13500000Y-106170000D01*
X15249636Y-106170000D01*
X15179463Y-106255506D01*
X15120498Y-106365820D01*
X15084188Y-106485518D01*
X15071928Y-106610000D01*
X15071928Y-107773271D01*
X15020199Y-107825000D01*
X3489802Y-107825000D01*
X3300000Y-107635199D01*
X3300000Y-106914317D01*
X3330363Y-106959759D01*
X3530241Y-107159637D01*
X3765273Y-107316680D01*
X4026426Y-107424853D01*
X4303665Y-107480000D01*
X4586335Y-107480000D01*
X4863574Y-107424853D01*
X5124727Y-107316680D01*
X5359759Y-107159637D01*
X5559637Y-106959759D01*
X5716680Y-106724727D01*
X5824853Y-106463574D01*
X5880000Y-106186335D01*
X5880000Y-105903665D01*
X5824853Y-105626426D01*
X5716680Y-105365273D01*
X5559637Y-105130241D01*
X5359759Y-104930363D01*
X5205000Y-104826957D01*
X5205000Y-95198043D01*
X5359759Y-95094637D01*
X5559637Y-94894759D01*
X5716680Y-94659727D01*
X5824853Y-94398574D01*
X5880000Y-94121335D01*
X5880000Y-93838665D01*
X5824853Y-93561426D01*
X5716680Y-93300273D01*
X5559637Y-93065241D01*
X5362099Y-92867703D01*
X5394802Y-92835000D01*
X6312678Y-92835000D01*
X6350000Y-92838676D01*
X6387322Y-92835000D01*
X6387333Y-92835000D01*
X6498986Y-92824003D01*
X6642247Y-92780546D01*
X6774276Y-92709974D01*
X6890001Y-92615001D01*
X6913803Y-92585998D01*
X7511002Y-91988800D01*
X7540001Y-91965001D01*
X7634974Y-91849276D01*
X7705546Y-91717247D01*
X7749003Y-91573986D01*
X7760000Y-91462333D01*
X7760000Y-91462323D01*
X7763676Y-91425000D01*
X7760000Y-91387677D01*
X7760000Y-90270901D01*
X7801101Y-90248932D01*
X8019608Y-90069608D01*
X8130000Y-89935095D01*
X8130000Y-94935198D01*
X6488998Y-96576201D01*
X6460000Y-96599999D01*
X6436202Y-96628997D01*
X6436201Y-96628998D01*
X6365026Y-96715724D01*
X6294454Y-96847754D01*
X6250998Y-96991015D01*
X6236324Y-97140000D01*
X6240001Y-97177332D01*
X6240001Y-97929099D01*
X6198899Y-97951068D01*
X5980392Y-98130393D01*
X5801068Y-98348900D01*
X5667818Y-98598193D01*
X5585764Y-98868692D01*
X5565000Y-99079509D01*
X5565001Y-101120492D01*
X5585765Y-101331309D01*
X5667819Y-101601808D01*
X5801069Y-101851101D01*
X5980393Y-102069608D01*
X6198900Y-102248932D01*
X6448193Y-102382182D01*
X6718692Y-102464236D01*
X7000000Y-102491943D01*
X7281309Y-102464236D01*
X7551808Y-102382182D01*
X7801101Y-102248932D01*
X8019608Y-102069608D01*
X8198932Y-101851101D01*
X8332182Y-101601808D01*
X8414236Y-101331309D01*
X8435000Y-101120492D01*
X8435000Y-99079509D01*
X11365000Y-99079509D01*
X11365001Y-101120492D01*
X11385765Y-101331309D01*
X11467819Y-101601808D01*
X11601069Y-101851101D01*
X11780393Y-102069608D01*
X11998900Y-102248932D01*
X12248193Y-102382182D01*
X12518692Y-102464236D01*
X12800000Y-102491943D01*
X13081309Y-102464236D01*
X13351808Y-102382182D01*
X13601101Y-102248932D01*
X13819608Y-102069608D01*
X13998932Y-101851101D01*
X14132182Y-101601808D01*
X14214236Y-101331309D01*
X14235000Y-101120492D01*
X14235000Y-99079508D01*
X14214236Y-98868691D01*
X14132182Y-98598192D01*
X13998932Y-98348899D01*
X13819607Y-98130392D01*
X13601100Y-97951068D01*
X13351807Y-97817818D01*
X13081308Y-97735764D01*
X12800000Y-97708057D01*
X12518691Y-97735764D01*
X12248192Y-97817818D01*
X11998899Y-97951068D01*
X11780392Y-98130393D01*
X11601068Y-98348900D01*
X11467818Y-98598193D01*
X11385764Y-98868692D01*
X11365000Y-99079509D01*
X8435000Y-99079509D01*
X8435000Y-99079508D01*
X8414236Y-98868691D01*
X8332182Y-98598192D01*
X8198932Y-98348899D01*
X8019607Y-98130392D01*
X7801100Y-97951068D01*
X7760000Y-97929100D01*
X7760000Y-97454801D01*
X9401004Y-95813798D01*
X9430001Y-95790001D01*
X9524974Y-95674276D01*
X9595546Y-95542247D01*
X9639003Y-95398986D01*
X9650000Y-95287333D01*
X9650000Y-95287325D01*
X9653676Y-95250000D01*
X9650000Y-95212675D01*
X9650000Y-94972702D01*
X11251903Y-94972702D01*
X11323486Y-95216671D01*
X11578996Y-95337571D01*
X11853184Y-95406300D01*
X12135512Y-95420217D01*
X12415130Y-95378787D01*
X12681292Y-95283603D01*
X12806514Y-95216671D01*
X12878097Y-94972702D01*
X12065000Y-94159605D01*
X11251903Y-94972702D01*
X9650000Y-94972702D01*
X9650000Y-94050512D01*
X10624783Y-94050512D01*
X10666213Y-94330130D01*
X10761397Y-94596292D01*
X10828329Y-94721514D01*
X11072298Y-94793097D01*
X11885395Y-93980000D01*
X12244605Y-93980000D01*
X13057702Y-94793097D01*
X13301671Y-94721514D01*
X13422571Y-94466004D01*
X13491300Y-94191816D01*
X13505217Y-93909488D01*
X13463787Y-93629870D01*
X13368603Y-93363708D01*
X13301671Y-93238486D01*
X13057702Y-93166903D01*
X12244605Y-93980000D01*
X11885395Y-93980000D01*
X11072298Y-93166903D01*
X10828329Y-93238486D01*
X10707429Y-93493996D01*
X10638700Y-93768184D01*
X10624783Y-94050512D01*
X9650000Y-94050512D01*
X9650000Y-92987298D01*
X11251903Y-92987298D01*
X12065000Y-93800395D01*
X12878097Y-92987298D01*
X12806514Y-92743329D01*
X12551004Y-92622429D01*
X12276816Y-92553700D01*
X11994488Y-92539783D01*
X11714870Y-92581213D01*
X11448708Y-92676397D01*
X11323486Y-92743329D01*
X11251903Y-92987298D01*
X9650000Y-92987298D01*
X9650000Y-92471123D01*
X14820821Y-92471123D01*
X14930558Y-92793054D01*
X15100992Y-93087391D01*
X15325573Y-93342822D01*
X15595671Y-93549531D01*
X15900906Y-93699575D01*
X16113878Y-93764175D01*
X16383000Y-93646125D01*
X16383000Y-92202000D01*
X16637000Y-92202000D01*
X16637000Y-93646125D01*
X16906122Y-93764175D01*
X17119094Y-93699575D01*
X17424329Y-93549531D01*
X17694427Y-93342822D01*
X17919008Y-93087391D01*
X18089442Y-92793054D01*
X18199179Y-92471123D01*
X18081600Y-92202000D01*
X16637000Y-92202000D01*
X16383000Y-92202000D01*
X14938400Y-92202000D01*
X14820821Y-92471123D01*
X9650000Y-92471123D01*
X9650000Y-91678877D01*
X14820821Y-91678877D01*
X14938400Y-91948000D01*
X16383000Y-91948000D01*
X16383000Y-90503875D01*
X16637000Y-90503875D01*
X16637000Y-91948000D01*
X18081600Y-91948000D01*
X18199179Y-91678877D01*
X18089442Y-91356946D01*
X17919008Y-91062609D01*
X17694427Y-90807178D01*
X17424329Y-90600469D01*
X17119094Y-90450425D01*
X16906122Y-90385825D01*
X16637000Y-90503875D01*
X16383000Y-90503875D01*
X16113878Y-90385825D01*
X15900906Y-90450425D01*
X15595671Y-90600469D01*
X15325573Y-90807178D01*
X15100992Y-91062609D01*
X14930558Y-91356946D01*
X14820821Y-91678877D01*
X9650000Y-91678877D01*
X9650000Y-87079509D01*
X11365000Y-87079509D01*
X11365001Y-89120492D01*
X11385765Y-89331309D01*
X11467819Y-89601808D01*
X11601069Y-89851101D01*
X11780393Y-90069608D01*
X11998900Y-90248932D01*
X12248193Y-90382182D01*
X12518692Y-90464236D01*
X12800000Y-90491943D01*
X13081309Y-90464236D01*
X13351808Y-90382182D01*
X13601101Y-90248932D01*
X13819608Y-90069608D01*
X13998932Y-89851101D01*
X14132182Y-89601808D01*
X14214236Y-89331309D01*
X14235000Y-89120492D01*
X14235000Y-87079508D01*
X14214236Y-86868691D01*
X14132182Y-86598192D01*
X13998932Y-86348899D01*
X13819607Y-86130392D01*
X13601100Y-85951068D01*
X13351807Y-85817818D01*
X13081308Y-85735764D01*
X12800000Y-85708057D01*
X12518691Y-85735764D01*
X12248192Y-85817818D01*
X11998899Y-85951068D01*
X11780392Y-86130393D01*
X11601068Y-86348900D01*
X11467818Y-86598193D01*
X11385764Y-86868692D01*
X11365000Y-87079509D01*
X9650000Y-87079509D01*
X9650000Y-71068043D01*
X9804759Y-70964637D01*
X10004637Y-70764759D01*
X10035000Y-70719317D01*
X10035001Y-80607667D01*
X10031324Y-80645000D01*
X10035001Y-80682333D01*
X10045998Y-80793986D01*
X10059180Y-80837442D01*
X10089454Y-80937246D01*
X10160026Y-81069276D01*
X10230379Y-81155000D01*
X10255000Y-81185001D01*
X10283998Y-81208799D01*
X10666312Y-81591114D01*
X10630000Y-81773665D01*
X10630000Y-82056335D01*
X10685147Y-82333574D01*
X10793320Y-82594727D01*
X10950363Y-82829759D01*
X11150241Y-83029637D01*
X11385273Y-83186680D01*
X11646426Y-83294853D01*
X11923665Y-83350000D01*
X12206335Y-83350000D01*
X12483574Y-83294853D01*
X12744727Y-83186680D01*
X12979759Y-83029637D01*
X13179637Y-82829759D01*
X13283043Y-82675000D01*
X14771928Y-82675000D01*
X14771928Y-83015000D01*
X14784188Y-83139482D01*
X14820498Y-83259180D01*
X14879463Y-83369494D01*
X14958815Y-83466185D01*
X15055506Y-83545537D01*
X15165820Y-83604502D01*
X15285518Y-83640812D01*
X15410000Y-83653072D01*
X17610000Y-83653072D01*
X17734482Y-83640812D01*
X17854180Y-83604502D01*
X17964494Y-83545537D01*
X18061185Y-83466185D01*
X18140537Y-83369494D01*
X18199502Y-83259180D01*
X18235812Y-83139482D01*
X18248072Y-83015000D01*
X18248072Y-80815000D01*
X18235812Y-80690518D01*
X18199502Y-80570820D01*
X18140537Y-80460506D01*
X18095907Y-80406123D01*
X19900821Y-80406123D01*
X20010558Y-80728054D01*
X20180992Y-81022391D01*
X20405573Y-81277822D01*
X20675671Y-81484531D01*
X20980906Y-81634575D01*
X21193878Y-81699175D01*
X21463000Y-81581125D01*
X21463000Y-80137000D01*
X21717000Y-80137000D01*
X21717000Y-81581125D01*
X21986122Y-81699175D01*
X22199094Y-81634575D01*
X22504329Y-81484531D01*
X22774427Y-81277822D01*
X22999008Y-81022391D01*
X23169442Y-80728054D01*
X23279179Y-80406123D01*
X23161600Y-80137000D01*
X21717000Y-80137000D01*
X21463000Y-80137000D01*
X20018400Y-80137000D01*
X19900821Y-80406123D01*
X18095907Y-80406123D01*
X18061185Y-80363815D01*
X17964494Y-80284463D01*
X17854180Y-80225498D01*
X17734482Y-80189188D01*
X17610000Y-80176928D01*
X15410000Y-80176928D01*
X15285518Y-80189188D01*
X15165820Y-80225498D01*
X15055506Y-80284463D01*
X14958815Y-80363815D01*
X14879463Y-80460506D01*
X14820498Y-80570820D01*
X14784188Y-80690518D01*
X14771928Y-80815000D01*
X14771928Y-81155000D01*
X13283043Y-81155000D01*
X13179637Y-81000241D01*
X12979759Y-80800363D01*
X12744727Y-80643320D01*
X12483574Y-80535147D01*
X12206335Y-80480000D01*
X11923665Y-80480000D01*
X11741114Y-80516312D01*
X11555000Y-80330199D01*
X11555000Y-79613877D01*
X19900821Y-79613877D01*
X20018400Y-79883000D01*
X21463000Y-79883000D01*
X21463000Y-78438875D01*
X21717000Y-78438875D01*
X21717000Y-79883000D01*
X23161600Y-79883000D01*
X23279179Y-79613877D01*
X23169442Y-79291946D01*
X22999008Y-78997609D01*
X22774427Y-78742178D01*
X22504329Y-78535469D01*
X22199094Y-78385425D01*
X21986122Y-78320825D01*
X21717000Y-78438875D01*
X21463000Y-78438875D01*
X21193878Y-78320825D01*
X20980906Y-78385425D01*
X20675671Y-78535469D01*
X20405573Y-78742178D01*
X20180992Y-78997609D01*
X20010558Y-79291946D01*
X19900821Y-79613877D01*
X11555000Y-79613877D01*
X11555000Y-77764912D01*
X11601069Y-77851101D01*
X11780393Y-78069608D01*
X11998900Y-78248932D01*
X12248193Y-78382182D01*
X12518692Y-78464236D01*
X12800000Y-78491943D01*
X13081309Y-78464236D01*
X13351808Y-78382182D01*
X13601101Y-78248932D01*
X13819608Y-78069608D01*
X13998932Y-77851101D01*
X14132182Y-77601808D01*
X14214236Y-77331309D01*
X14235000Y-77120492D01*
X14235000Y-75079508D01*
X14214236Y-74868691D01*
X14132182Y-74598192D01*
X13998932Y-74348899D01*
X13819607Y-74130392D01*
X13601100Y-73951068D01*
X13351807Y-73817818D01*
X13081308Y-73735764D01*
X12800000Y-73708057D01*
X12518691Y-73735764D01*
X12248192Y-73817818D01*
X11998899Y-73951068D01*
X11780392Y-74130393D01*
X11601068Y-74348900D01*
X11555000Y-74435087D01*
X11555000Y-70414622D01*
X11640724Y-70484974D01*
X11772753Y-70555546D01*
X11916014Y-70599003D01*
X12065000Y-70613677D01*
X12102333Y-70610000D01*
X15291957Y-70610000D01*
X15395363Y-70764759D01*
X15595241Y-70964637D01*
X15830273Y-71121680D01*
X16091426Y-71229853D01*
X16368665Y-71285000D01*
X16651335Y-71285000D01*
X16928574Y-71229853D01*
X17189727Y-71121680D01*
X17424759Y-70964637D01*
X17624637Y-70764759D01*
X17728043Y-70610000D01*
X19851928Y-70610000D01*
X19851928Y-70950000D01*
X19864188Y-71074482D01*
X19900498Y-71194180D01*
X19959463Y-71304494D01*
X20038815Y-71401185D01*
X20135506Y-71480537D01*
X20245820Y-71539502D01*
X20365518Y-71575812D01*
X20490000Y-71588072D01*
X22690000Y-71588072D01*
X22814482Y-71575812D01*
X22934180Y-71539502D01*
X23044494Y-71480537D01*
X23141185Y-71401185D01*
X23220537Y-71304494D01*
X23279502Y-71194180D01*
X23315812Y-71074482D01*
X23328072Y-70950000D01*
X23328072Y-68750000D01*
X23315812Y-68625518D01*
X23279502Y-68505820D01*
X23220537Y-68395506D01*
X23141185Y-68298815D01*
X23044494Y-68219463D01*
X22934180Y-68160498D01*
X22814482Y-68124188D01*
X22690000Y-68111928D01*
X20490000Y-68111928D01*
X20365518Y-68124188D01*
X20245820Y-68160498D01*
X20135506Y-68219463D01*
X20038815Y-68298815D01*
X19959463Y-68395506D01*
X19900498Y-68505820D01*
X19864188Y-68625518D01*
X19851928Y-68750000D01*
X19851928Y-69090000D01*
X17728043Y-69090000D01*
X17624637Y-68935241D01*
X17424759Y-68735363D01*
X17189727Y-68578320D01*
X16928574Y-68470147D01*
X16651335Y-68415000D01*
X16368665Y-68415000D01*
X16091426Y-68470147D01*
X15830273Y-68578320D01*
X15595241Y-68735363D01*
X15395363Y-68935241D01*
X15291957Y-69090000D01*
X12379802Y-69090000D01*
X12190000Y-68900199D01*
X12190000Y-68617322D01*
X12193676Y-68579999D01*
X12190000Y-68542676D01*
X12190000Y-68542667D01*
X12179003Y-68431014D01*
X12135546Y-68287753D01*
X12064974Y-68155724D01*
X11970001Y-68039999D01*
X11941004Y-68016202D01*
X10920000Y-66995199D01*
X10920000Y-63850900D01*
X10961100Y-63828932D01*
X11179607Y-63649608D01*
X11358932Y-63431101D01*
X11430000Y-63298142D01*
X11501068Y-63431100D01*
X11680392Y-63649607D01*
X11898899Y-63828932D01*
X11940001Y-63850901D01*
X11940000Y-64821956D01*
X11785241Y-64925363D01*
X11585363Y-65125241D01*
X11428320Y-65360273D01*
X11320147Y-65621426D01*
X11265000Y-65898665D01*
X11265000Y-66181335D01*
X11320147Y-66458574D01*
X11428320Y-66719727D01*
X11585363Y-66954759D01*
X11785241Y-67154637D01*
X12020273Y-67311680D01*
X12281426Y-67419853D01*
X12558665Y-67475000D01*
X12841335Y-67475000D01*
X13118574Y-67419853D01*
X13379727Y-67311680D01*
X13614759Y-67154637D01*
X13736694Y-67032702D01*
X16886903Y-67032702D01*
X16958486Y-67276671D01*
X17213996Y-67397571D01*
X17488184Y-67466300D01*
X17770512Y-67480217D01*
X18050130Y-67438787D01*
X18316292Y-67343603D01*
X18441514Y-67276671D01*
X18513097Y-67032702D01*
X17700000Y-66219605D01*
X16886903Y-67032702D01*
X13736694Y-67032702D01*
X13814637Y-66954759D01*
X13971680Y-66719727D01*
X14079853Y-66458574D01*
X14135000Y-66181335D01*
X14135000Y-66110512D01*
X16259783Y-66110512D01*
X16301213Y-66390130D01*
X16396397Y-66656292D01*
X16463329Y-66781514D01*
X16707298Y-66853097D01*
X17520395Y-66040000D01*
X17879605Y-66040000D01*
X18692702Y-66853097D01*
X18936671Y-66781514D01*
X19057571Y-66526004D01*
X19126300Y-66251816D01*
X19140217Y-65969488D01*
X19098787Y-65689870D01*
X19003603Y-65423708D01*
X18936671Y-65298486D01*
X18692702Y-65226903D01*
X17879605Y-66040000D01*
X17520395Y-66040000D01*
X16707298Y-65226903D01*
X16463329Y-65298486D01*
X16342429Y-65553996D01*
X16273700Y-65828184D01*
X16259783Y-66110512D01*
X14135000Y-66110512D01*
X14135000Y-65898665D01*
X14079853Y-65621426D01*
X13971680Y-65360273D01*
X13814637Y-65125241D01*
X13736694Y-65047298D01*
X16886903Y-65047298D01*
X17700000Y-65860395D01*
X18513097Y-65047298D01*
X18441514Y-64803329D01*
X18186004Y-64682429D01*
X17911816Y-64613700D01*
X17629488Y-64599783D01*
X17349870Y-64641213D01*
X17083708Y-64736397D01*
X16958486Y-64803329D01*
X16886903Y-65047298D01*
X13736694Y-65047298D01*
X13614759Y-64925363D01*
X13460000Y-64821957D01*
X13460000Y-63850900D01*
X13501100Y-63828932D01*
X13719607Y-63649608D01*
X13898932Y-63431101D01*
X13970000Y-63298142D01*
X14041068Y-63431100D01*
X14220392Y-63649607D01*
X14438899Y-63828932D01*
X14688192Y-63962182D01*
X14958691Y-64044236D01*
X15240000Y-64071943D01*
X15521308Y-64044236D01*
X15791807Y-63962182D01*
X16041100Y-63828932D01*
X16259607Y-63649608D01*
X16438932Y-63431101D01*
X16510000Y-63298142D01*
X16581068Y-63431100D01*
X16760392Y-63649607D01*
X16978899Y-63828932D01*
X17228192Y-63962182D01*
X17498691Y-64044236D01*
X17780000Y-64071943D01*
X18061308Y-64044236D01*
X18331807Y-63962182D01*
X18581100Y-63828932D01*
X18799607Y-63649608D01*
X18978932Y-63431101D01*
X19112182Y-63181808D01*
X19194236Y-62911309D01*
X19215000Y-62700492D01*
X19215000Y-61759509D01*
X19194236Y-61548691D01*
X19112182Y-61278192D01*
X18978932Y-61028899D01*
X18799608Y-60810392D01*
X18581101Y-60631068D01*
X18331808Y-60497818D01*
X18061309Y-60415764D01*
X17780000Y-60388057D01*
X17498692Y-60415764D01*
X17228193Y-60497818D01*
X16978900Y-60631068D01*
X16760393Y-60810392D01*
X16581068Y-61028899D01*
X16510000Y-61161858D01*
X16438932Y-61028899D01*
X16259608Y-60810392D01*
X16041101Y-60631068D01*
X16000000Y-60609099D01*
X16000000Y-59369801D01*
X17166003Y-58203799D01*
X17195000Y-58180002D01*
X17289973Y-58064277D01*
X17360545Y-57932248D01*
X17404002Y-57788987D01*
X17414999Y-57677334D01*
X17414999Y-57677326D01*
X17418675Y-57640001D01*
X17414999Y-57602676D01*
X17414999Y-56448072D01*
X18580000Y-56448072D01*
X18704482Y-56435812D01*
X18824180Y-56399502D01*
X18934494Y-56340537D01*
X19031185Y-56261185D01*
X19110537Y-56164494D01*
X19169502Y-56054180D01*
X19205812Y-55934482D01*
X19218072Y-55810000D01*
X19218072Y-53410000D01*
X19205812Y-53285518D01*
X19169502Y-53165820D01*
X19110537Y-53055506D01*
X19031185Y-52958815D01*
X18934494Y-52879463D01*
X18824180Y-52820498D01*
X18704482Y-52784188D01*
X18580000Y-52771928D01*
X18540000Y-52771928D01*
X18540000Y-52018043D01*
X18694759Y-51914637D01*
X18894637Y-51714759D01*
X19051680Y-51479727D01*
X19159853Y-51218574D01*
X19215000Y-50941335D01*
X19215000Y-50658665D01*
X19159853Y-50381426D01*
X19051680Y-50120273D01*
X18894637Y-49885241D01*
X18694759Y-49685363D01*
X18540000Y-49581957D01*
X18540000Y-49567325D01*
X18543676Y-49530000D01*
X18540000Y-49492675D01*
X18540000Y-49492667D01*
X18529003Y-49381014D01*
X18485546Y-49237753D01*
X18414974Y-49105724D01*
X18320001Y-48989999D01*
X18291004Y-48966202D01*
X14730000Y-45405199D01*
X14730000Y-31603740D01*
X17565000Y-31603740D01*
X17565000Y-31896260D01*
X17622068Y-32183158D01*
X17734010Y-32453411D01*
X17896525Y-32696632D01*
X18103368Y-32903475D01*
X18346589Y-33065990D01*
X18616842Y-33177932D01*
X18903740Y-33235000D01*
X19196260Y-33235000D01*
X19483158Y-33177932D01*
X19753411Y-33065990D01*
X19996632Y-32903475D01*
X20183715Y-32716392D01*
X20251595Y-32843386D01*
X20362038Y-32977962D01*
X20496614Y-33088405D01*
X20650150Y-33170472D01*
X20816746Y-33221008D01*
X20990000Y-33238072D01*
X22190000Y-33238072D01*
X22363254Y-33221008D01*
X22529850Y-33170472D01*
X22683386Y-33088405D01*
X22817962Y-32977962D01*
X22928405Y-32843386D01*
X23010472Y-32689850D01*
X23061008Y-32523254D01*
X23078072Y-32350000D01*
X23078072Y-31150000D01*
X23061008Y-30976746D01*
X23010472Y-30810150D01*
X22928405Y-30656614D01*
X22817962Y-30522038D01*
X22683386Y-30411595D01*
X22529850Y-30329528D01*
X22420707Y-30296420D01*
X22438792Y-30238397D01*
X21590000Y-29389605D01*
X20741208Y-30238397D01*
X20759293Y-30296420D01*
X20650150Y-30329528D01*
X20496614Y-30411595D01*
X20362038Y-30522038D01*
X20251595Y-30656614D01*
X20183715Y-30783608D01*
X19996632Y-30596525D01*
X19823271Y-30480689D01*
X19898792Y-30238397D01*
X19050000Y-29389605D01*
X18201208Y-30238397D01*
X18276729Y-30480689D01*
X18103368Y-30596525D01*
X17896525Y-30803368D01*
X17734010Y-31046589D01*
X17622068Y-31316842D01*
X17565000Y-31603740D01*
X14730000Y-31603740D01*
X14730000Y-29278531D01*
X17559389Y-29278531D01*
X17601401Y-29568019D01*
X17699081Y-29843747D01*
X17772528Y-29981157D01*
X18021603Y-30058792D01*
X18870395Y-29210000D01*
X19229605Y-29210000D01*
X20078397Y-30058792D01*
X20320000Y-29983486D01*
X20561603Y-30058792D01*
X21410395Y-29210000D01*
X21769605Y-29210000D01*
X22618397Y-30058792D01*
X22867472Y-29981157D01*
X22993371Y-29717117D01*
X23065339Y-29433589D01*
X23080611Y-29141469D01*
X23038599Y-28851981D01*
X22940919Y-28576253D01*
X22867472Y-28438843D01*
X22618397Y-28361208D01*
X21769605Y-29210000D01*
X21410395Y-29210000D01*
X20561603Y-28361208D01*
X20320000Y-28436514D01*
X20078397Y-28361208D01*
X19229605Y-29210000D01*
X18870395Y-29210000D01*
X18021603Y-28361208D01*
X17772528Y-28438843D01*
X17646629Y-28702883D01*
X17574661Y-28986411D01*
X17559389Y-29278531D01*
X14730000Y-29278531D01*
X14730000Y-27977333D01*
X14733677Y-27940000D01*
X14719003Y-27791014D01*
X14690909Y-27698397D01*
X18201208Y-27698397D01*
X18276514Y-27940000D01*
X18201208Y-28181603D01*
X19050000Y-29030395D01*
X19898792Y-28181603D01*
X19823486Y-27940000D01*
X19898792Y-27698397D01*
X20741208Y-27698397D01*
X20816514Y-27940000D01*
X20741208Y-28181603D01*
X21590000Y-29030395D01*
X22438792Y-28181603D01*
X22363486Y-27940000D01*
X22438792Y-27698397D01*
X21590000Y-26849605D01*
X20741208Y-27698397D01*
X19898792Y-27698397D01*
X19050000Y-26849605D01*
X18201208Y-27698397D01*
X14690909Y-27698397D01*
X14675546Y-27647753D01*
X14604974Y-27515724D01*
X14533799Y-27428997D01*
X14510001Y-27399999D01*
X14481004Y-27376202D01*
X13898803Y-26794002D01*
X13875001Y-26764999D01*
X13842750Y-26738531D01*
X17559389Y-26738531D01*
X17601401Y-27028019D01*
X17699081Y-27303747D01*
X17772528Y-27441157D01*
X18021603Y-27518792D01*
X18870395Y-26670000D01*
X19229605Y-26670000D01*
X20078397Y-27518792D01*
X20320000Y-27443486D01*
X20561603Y-27518792D01*
X21410395Y-26670000D01*
X21769605Y-26670000D01*
X22618397Y-27518792D01*
X22867472Y-27441157D01*
X22993371Y-27177117D01*
X23065339Y-26893589D01*
X23080611Y-26601469D01*
X23038599Y-26311981D01*
X22940919Y-26036253D01*
X22867472Y-25898843D01*
X22618397Y-25821208D01*
X21769605Y-26670000D01*
X21410395Y-26670000D01*
X20561603Y-25821208D01*
X20320000Y-25896514D01*
X20078397Y-25821208D01*
X19229605Y-26670000D01*
X18870395Y-26670000D01*
X18021603Y-25821208D01*
X17772528Y-25898843D01*
X17646629Y-26162883D01*
X17574661Y-26446411D01*
X17559389Y-26738531D01*
X13842750Y-26738531D01*
X13759276Y-26670026D01*
X13627247Y-26599454D01*
X13483986Y-26555997D01*
X13372333Y-26545000D01*
X13372322Y-26545000D01*
X13335000Y-26541324D01*
X13297678Y-26545000D01*
X6029802Y-26545000D01*
X5840000Y-26355199D01*
X5840000Y-23988665D01*
X11900000Y-23988665D01*
X11900000Y-24271335D01*
X11955147Y-24548574D01*
X12063320Y-24809727D01*
X12220363Y-25044759D01*
X12420241Y-25244637D01*
X12655273Y-25401680D01*
X12916426Y-25509853D01*
X13193665Y-25565000D01*
X13476335Y-25565000D01*
X13753574Y-25509853D01*
X14014727Y-25401680D01*
X14249759Y-25244637D01*
X14335999Y-25158397D01*
X18201208Y-25158397D01*
X18276514Y-25400000D01*
X18201208Y-25641603D01*
X19050000Y-26490395D01*
X19898792Y-25641603D01*
X19823486Y-25400000D01*
X19898792Y-25158397D01*
X20741208Y-25158397D01*
X20816514Y-25400000D01*
X20741208Y-25641603D01*
X21590000Y-26490395D01*
X22438792Y-25641603D01*
X22363486Y-25400000D01*
X22438792Y-25158397D01*
X21590000Y-24309605D01*
X20741208Y-25158397D01*
X19898792Y-25158397D01*
X19050000Y-24309605D01*
X18201208Y-25158397D01*
X14335999Y-25158397D01*
X14449637Y-25044759D01*
X14606680Y-24809727D01*
X14714853Y-24548574D01*
X14770000Y-24271335D01*
X14770000Y-24198531D01*
X17559389Y-24198531D01*
X17601401Y-24488019D01*
X17699081Y-24763747D01*
X17772528Y-24901157D01*
X18021603Y-24978792D01*
X18870395Y-24130000D01*
X19229605Y-24130000D01*
X20078397Y-24978792D01*
X20320000Y-24903486D01*
X20561603Y-24978792D01*
X21410395Y-24130000D01*
X21769605Y-24130000D01*
X22618397Y-24978792D01*
X22867472Y-24901157D01*
X22993371Y-24637117D01*
X23065339Y-24353589D01*
X23080611Y-24061469D01*
X23038599Y-23771981D01*
X22940919Y-23496253D01*
X22867472Y-23358843D01*
X22618397Y-23281208D01*
X21769605Y-24130000D01*
X21410395Y-24130000D01*
X20561603Y-23281208D01*
X20320000Y-23356514D01*
X20078397Y-23281208D01*
X19229605Y-24130000D01*
X18870395Y-24130000D01*
X18021603Y-23281208D01*
X17772528Y-23358843D01*
X17646629Y-23622883D01*
X17574661Y-23906411D01*
X17559389Y-24198531D01*
X14770000Y-24198531D01*
X14770000Y-23988665D01*
X14751285Y-23894582D01*
X16220868Y-22425000D01*
X17821935Y-22425000D01*
X17896525Y-22536632D01*
X18103368Y-22743475D01*
X18276729Y-22859311D01*
X18201208Y-23101603D01*
X19050000Y-23950395D01*
X19898792Y-23101603D01*
X19823271Y-22859311D01*
X19996632Y-22743475D01*
X20203475Y-22536632D01*
X20278065Y-22425000D01*
X20361935Y-22425000D01*
X20436525Y-22536632D01*
X20643368Y-22743475D01*
X20816729Y-22859311D01*
X20741208Y-23101603D01*
X21590000Y-23950395D01*
X22438792Y-23101603D01*
X22363271Y-22859311D01*
X22536632Y-22743475D01*
X22743475Y-22536632D01*
X22905990Y-22293411D01*
X23017932Y-22023158D01*
X23075000Y-21736260D01*
X23075000Y-21443740D01*
X23017932Y-21156842D01*
X22905990Y-20886589D01*
X22743475Y-20643368D01*
X22536632Y-20436525D01*
X22362240Y-20320000D01*
X22536632Y-20203475D01*
X22743475Y-19996632D01*
X22905990Y-19753411D01*
X23017932Y-19483158D01*
X23075000Y-19196260D01*
X23075000Y-18903740D01*
X23017932Y-18616842D01*
X22905990Y-18346589D01*
X22743475Y-18103368D01*
X22536632Y-17896525D01*
X22362240Y-17780000D01*
X22536632Y-17663475D01*
X22743475Y-17456632D01*
X22905990Y-17213411D01*
X23017932Y-16943158D01*
X23075000Y-16656260D01*
X23075000Y-16363740D01*
X23017932Y-16076842D01*
X22905990Y-15806589D01*
X22743475Y-15563368D01*
X22536632Y-15356525D01*
X22362240Y-15240000D01*
X22536632Y-15123475D01*
X22743475Y-14916632D01*
X22905990Y-14673411D01*
X23017932Y-14403158D01*
X23075000Y-14116260D01*
X23075000Y-13823740D01*
X23017932Y-13536842D01*
X22905990Y-13266589D01*
X22743475Y-13023368D01*
X22536632Y-12816525D01*
X22293411Y-12654010D01*
X22023158Y-12542068D01*
X21736260Y-12485000D01*
X21443740Y-12485000D01*
X21156842Y-12542068D01*
X20886589Y-12654010D01*
X20643368Y-12816525D01*
X20436525Y-13023368D01*
X20320000Y-13197760D01*
X20203475Y-13023368D01*
X19996632Y-12816525D01*
X19753411Y-12654010D01*
X19483158Y-12542068D01*
X19196260Y-12485000D01*
X18903740Y-12485000D01*
X18616842Y-12542068D01*
X18346589Y-12654010D01*
X18103368Y-12816525D01*
X17896525Y-13023368D01*
X17734010Y-13266589D01*
X17622068Y-13536842D01*
X17565000Y-13823740D01*
X17565000Y-14116260D01*
X17622068Y-14403158D01*
X17734010Y-14673411D01*
X17896525Y-14916632D01*
X18103368Y-15123475D01*
X18277760Y-15240000D01*
X18103368Y-15356525D01*
X17896525Y-15563368D01*
X17734010Y-15806589D01*
X17622068Y-16076842D01*
X17565000Y-16363740D01*
X17565000Y-16656260D01*
X17622068Y-16943158D01*
X17734010Y-17213411D01*
X17896525Y-17456632D01*
X18103368Y-17663475D01*
X18277760Y-17780000D01*
X18103368Y-17896525D01*
X17896525Y-18103368D01*
X17734010Y-18346589D01*
X17622068Y-18616842D01*
X17565000Y-18903740D01*
X17565000Y-19196260D01*
X17622068Y-19483158D01*
X17734010Y-19753411D01*
X17896525Y-19996632D01*
X18103368Y-20203475D01*
X18277760Y-20320000D01*
X18103368Y-20436525D01*
X17896525Y-20643368D01*
X17821935Y-20755000D01*
X15916007Y-20755000D01*
X15874999Y-20750961D01*
X15833991Y-20755000D01*
X15833981Y-20755000D01*
X15711311Y-20767082D01*
X15553913Y-20814828D01*
X15408854Y-20892364D01*
X15281709Y-20996709D01*
X15255559Y-21028573D01*
X13570418Y-22713715D01*
X13476335Y-22695000D01*
X13193665Y-22695000D01*
X12916426Y-22750147D01*
X12655273Y-22858320D01*
X12420241Y-23015363D01*
X12220363Y-23215241D01*
X12063320Y-23450273D01*
X11955147Y-23711426D01*
X11900000Y-23988665D01*
X5840000Y-23988665D01*
X5840000Y-22054117D01*
X7790000Y-22054117D01*
X7790000Y-22395883D01*
X7856675Y-22731081D01*
X7987463Y-23046831D01*
X8177337Y-23330998D01*
X8419002Y-23572663D01*
X8703169Y-23762537D01*
X9018919Y-23893325D01*
X9354117Y-23960000D01*
X9695883Y-23960000D01*
X10031081Y-23893325D01*
X10346831Y-23762537D01*
X10630998Y-23572663D01*
X10872663Y-23330998D01*
X11062537Y-23046831D01*
X11193325Y-22731081D01*
X11260000Y-22395883D01*
X11260000Y-22054117D01*
X11193325Y-21718919D01*
X11062537Y-21403169D01*
X10896716Y-21155000D01*
X12658982Y-21155000D01*
X12700000Y-21159040D01*
X12741018Y-21155000D01*
X12741019Y-21155000D01*
X12863689Y-21142918D01*
X13021087Y-21095172D01*
X13166146Y-21017636D01*
X13293291Y-20913291D01*
X13319445Y-20881422D01*
X13896432Y-20304436D01*
X13928291Y-20278291D01*
X14032636Y-20151146D01*
X14110172Y-20006087D01*
X14157918Y-19848689D01*
X14170000Y-19726019D01*
X14170000Y-19726018D01*
X14174040Y-19685000D01*
X14170000Y-19643982D01*
X14170000Y-17677930D01*
X14249759Y-17624637D01*
X14449637Y-17424759D01*
X14606680Y-17189727D01*
X14714853Y-16928574D01*
X14770000Y-16651335D01*
X14770000Y-16368665D01*
X14714853Y-16091426D01*
X14606680Y-15830273D01*
X14449637Y-15595241D01*
X14249759Y-15395363D01*
X14014727Y-15238320D01*
X13753574Y-15130147D01*
X13476335Y-15075000D01*
X13193665Y-15075000D01*
X12916426Y-15130147D01*
X12655273Y-15238320D01*
X12420241Y-15395363D01*
X12220363Y-15595241D01*
X12063320Y-15830273D01*
X11955147Y-16091426D01*
X11900000Y-16368665D01*
X11900000Y-16651335D01*
X11955147Y-16928574D01*
X12063320Y-17189727D01*
X12220363Y-17424759D01*
X12420241Y-17624637D01*
X12500001Y-17677931D01*
X12500000Y-19339132D01*
X12354132Y-19485000D01*
X10201018Y-19485000D01*
X10160000Y-19480960D01*
X10118982Y-19485000D01*
X10118981Y-19485000D01*
X9996311Y-19497082D01*
X9838913Y-19544828D01*
X9693854Y-19622364D01*
X9617532Y-19685000D01*
X9566709Y-19726709D01*
X9540562Y-19758569D01*
X8963573Y-20335559D01*
X8931710Y-20361709D01*
X8905562Y-20393571D01*
X8827364Y-20488855D01*
X8749828Y-20633914D01*
X8737955Y-20673054D01*
X8703169Y-20687463D01*
X8419002Y-20877337D01*
X8177337Y-21119002D01*
X7987463Y-21403169D01*
X7856675Y-21718919D01*
X7790000Y-22054117D01*
X5840000Y-22054117D01*
X5840000Y-21338313D01*
X6058505Y-21192312D01*
X6272312Y-20978505D01*
X6440299Y-20727095D01*
X6556011Y-20447743D01*
X6615000Y-20151184D01*
X6615000Y-19848816D01*
X6556011Y-19552257D01*
X6440299Y-19272905D01*
X6272312Y-19021495D01*
X6058505Y-18807688D01*
X5972169Y-18750000D01*
X6058505Y-18692312D01*
X6272312Y-18478505D01*
X6440299Y-18227095D01*
X6556011Y-17947743D01*
X6615000Y-17651184D01*
X6615000Y-17348816D01*
X6556011Y-17052257D01*
X6440299Y-16772905D01*
X6272312Y-16521495D01*
X6058505Y-16307688D01*
X5972169Y-16250000D01*
X6058505Y-16192312D01*
X6272312Y-15978505D01*
X6440299Y-15727095D01*
X6556011Y-15447743D01*
X6615000Y-15151184D01*
X6615000Y-14848816D01*
X6556011Y-14552257D01*
X6440299Y-14272905D01*
X6272312Y-14021495D01*
X6058505Y-13807688D01*
X5807095Y-13639701D01*
X5527743Y-13523989D01*
X5231184Y-13465000D01*
X4928816Y-13465000D01*
X4632257Y-13523989D01*
X4352905Y-13639701D01*
X4101495Y-13807688D01*
X3887688Y-14021495D01*
X3719701Y-14272905D01*
X3603989Y-14552257D01*
X3545000Y-14848816D01*
X3545000Y-15151184D01*
X3603989Y-15447743D01*
X3719701Y-15727095D01*
X3887688Y-15978505D01*
X4101495Y-16192312D01*
X4187831Y-16250000D01*
X4101495Y-16307688D01*
X3887688Y-16521495D01*
X3719701Y-16772905D01*
X3603989Y-17052257D01*
X3545000Y-17348816D01*
X3545000Y-17651184D01*
X3603989Y-17947743D01*
X3719701Y-18227095D01*
X3887688Y-18478505D01*
X4101495Y-18692312D01*
X4187831Y-18750000D01*
X4101495Y-18807688D01*
X3887688Y-19021495D01*
X3719701Y-19272905D01*
X3603989Y-19552257D01*
X3545000Y-19848816D01*
X3545000Y-20151184D01*
X3603989Y-20447743D01*
X3719701Y-20727095D01*
X3887688Y-20978505D01*
X4101495Y-21192312D01*
X4320000Y-21338313D01*
X4320001Y-26632668D01*
X4316324Y-26670000D01*
X4330998Y-26818985D01*
X4374454Y-26962246D01*
X4445026Y-27094276D01*
X4512361Y-27176323D01*
X4540000Y-27210001D01*
X4568998Y-27233799D01*
X5151200Y-27816002D01*
X5174999Y-27845001D01*
X5281651Y-27932528D01*
X5290724Y-27939974D01*
X5422753Y-28010546D01*
X5566014Y-28054003D01*
X5715000Y-28068677D01*
X5752333Y-28065000D01*
X13020199Y-28065000D01*
X13210000Y-28254802D01*
X13210001Y-45682667D01*
X13206324Y-45720000D01*
X13210001Y-45757333D01*
X13220998Y-45868986D01*
X13223217Y-45876300D01*
X13264454Y-46012246D01*
X13335026Y-46144276D01*
X13361803Y-46176903D01*
X13430000Y-46260001D01*
X13458998Y-46283799D01*
X14040199Y-46865000D01*
X11109802Y-46865000D01*
X10920000Y-46675199D01*
X10920000Y-43128043D01*
X11074759Y-43024637D01*
X11274637Y-42824759D01*
X11431680Y-42589727D01*
X11539853Y-42328574D01*
X11595000Y-42051335D01*
X11595000Y-41768665D01*
X11539853Y-41491426D01*
X11431680Y-41230273D01*
X11274637Y-40995241D01*
X11074759Y-40795363D01*
X10839727Y-40638320D01*
X10578574Y-40530147D01*
X10301335Y-40475000D01*
X10018665Y-40475000D01*
X9741426Y-40530147D01*
X9480273Y-40638320D01*
X9245241Y-40795363D01*
X9045363Y-40995241D01*
X8888320Y-41230273D01*
X8780147Y-41491426D01*
X8725000Y-41768665D01*
X8725000Y-42051335D01*
X8780147Y-42328574D01*
X8888320Y-42589727D01*
X9045363Y-42824759D01*
X9245241Y-43024637D01*
X9400001Y-43128044D01*
X9400000Y-46952677D01*
X9396324Y-46990000D01*
X9400000Y-47027322D01*
X9400000Y-47027332D01*
X9410997Y-47138985D01*
X9454454Y-47282246D01*
X9525026Y-47414276D01*
X9564871Y-47462826D01*
X9619999Y-47530001D01*
X9649002Y-47553803D01*
X10230198Y-48135000D01*
X8569802Y-48135000D01*
X8537099Y-48102297D01*
X8734637Y-47904759D01*
X8891680Y-47669727D01*
X8999853Y-47408574D01*
X9055000Y-47131335D01*
X9055000Y-46848665D01*
X8999853Y-46571426D01*
X8891680Y-46310273D01*
X8734637Y-46075241D01*
X8534759Y-45875363D01*
X8302241Y-45720000D01*
X8534759Y-45564637D01*
X8734637Y-45364759D01*
X8891680Y-45129727D01*
X8999853Y-44868574D01*
X9055000Y-44591335D01*
X9055000Y-44308665D01*
X8999853Y-44031426D01*
X8891680Y-43770273D01*
X8734637Y-43535241D01*
X8534759Y-43335363D01*
X8299727Y-43178320D01*
X8038574Y-43070147D01*
X7761335Y-43015000D01*
X7478665Y-43015000D01*
X7201426Y-43070147D01*
X6940273Y-43178320D01*
X6705241Y-43335363D01*
X6505363Y-43535241D01*
X6348320Y-43770273D01*
X6240147Y-44031426D01*
X6185000Y-44308665D01*
X6185000Y-44591335D01*
X6240147Y-44868574D01*
X6348320Y-45129727D01*
X6505363Y-45364759D01*
X6705241Y-45564637D01*
X6937759Y-45720000D01*
X6705241Y-45875363D01*
X6505363Y-46075241D01*
X6348320Y-46310273D01*
X6240147Y-46571426D01*
X6185000Y-46848665D01*
X6185000Y-47131335D01*
X6240147Y-47408574D01*
X6348320Y-47669727D01*
X6505363Y-47904759D01*
X6702901Y-48102297D01*
X6670199Y-48135000D01*
X6387322Y-48135000D01*
X6349999Y-48131324D01*
X6312676Y-48135000D01*
X6312667Y-48135000D01*
X6201014Y-48145997D01*
X6057753Y-48189454D01*
X5925724Y-48260026D01*
X5809999Y-48354999D01*
X5786201Y-48383997D01*
X4568998Y-49601201D01*
X4540000Y-49624999D01*
X4516202Y-49653997D01*
X4516201Y-49653998D01*
X4445026Y-49740724D01*
X4401451Y-49822246D01*
X4374454Y-49872753D01*
X4330997Y-50016014D01*
X4320000Y-50127667D01*
X4320000Y-50127678D01*
X4316324Y-50165000D01*
X4320000Y-50202322D01*
X4320000Y-50837332D01*
X4320001Y-50837342D01*
X4320000Y-52989099D01*
X4278900Y-53011068D01*
X4060393Y-53190392D01*
X3881068Y-53408899D01*
X3812735Y-53536741D01*
X3662601Y-53307161D01*
X3464895Y-53105500D01*
X3231646Y-52946285D01*
X2971818Y-52835633D01*
X2889039Y-52818096D01*
X2667000Y-52940085D01*
X2667000Y-54483000D01*
X2687000Y-54483000D01*
X2687000Y-54737000D01*
X2667000Y-54737000D01*
X2667000Y-56279915D01*
X2889039Y-56401904D01*
X2971818Y-56384367D01*
X3231646Y-56273715D01*
X3464895Y-56114500D01*
X3662601Y-55912839D01*
X3812735Y-55683258D01*
X3881068Y-55811100D01*
X4060392Y-56029607D01*
X4278899Y-56208932D01*
X4528192Y-56342182D01*
X4798691Y-56424236D01*
X5080000Y-56451943D01*
X5361308Y-56424236D01*
X5631807Y-56342182D01*
X5881100Y-56208932D01*
X6099607Y-56029608D01*
X6278932Y-55811101D01*
X6350000Y-55678142D01*
X6421068Y-55811100D01*
X6600392Y-56029607D01*
X6818899Y-56208932D01*
X6860000Y-56230901D01*
X6860000Y-57470198D01*
X6670199Y-57660000D01*
X3212333Y-57660000D01*
X3175000Y-57656323D01*
X3137667Y-57660000D01*
X3026014Y-57670997D01*
X2882753Y-57714454D01*
X2750724Y-57785026D01*
X2634999Y-57879999D01*
X2611200Y-57908998D01*
X2028998Y-58491201D01*
X2000000Y-58514999D01*
X1976202Y-58543997D01*
X1976201Y-58543998D01*
X1905026Y-58630724D01*
X1834454Y-58762754D01*
X1790998Y-58906015D01*
X1776324Y-59055000D01*
X1780001Y-59092332D01*
X1780001Y-60609099D01*
X1738900Y-60631068D01*
X1520393Y-60810392D01*
X1341068Y-61028899D01*
X1207818Y-61278192D01*
X1125764Y-61548691D01*
X1105000Y-61759508D01*
X1105000Y-62700491D01*
X1125764Y-62911308D01*
X1207818Y-63181807D01*
X1341068Y-63431100D01*
X1520392Y-63649607D01*
X1738899Y-63828932D01*
X1988192Y-63962182D01*
X2258691Y-64044236D01*
X2540000Y-64071943D01*
X2821308Y-64044236D01*
X3091807Y-63962182D01*
X3341100Y-63828932D01*
X3559607Y-63649608D01*
X3738932Y-63431101D01*
X3810000Y-63298142D01*
X3881068Y-63431100D01*
X4060392Y-63649607D01*
X4278899Y-63828932D01*
X4320000Y-63850901D01*
X4320001Y-77155196D01*
X2029003Y-79446196D01*
X1999999Y-79469999D01*
X1944871Y-79537174D01*
X1905026Y-79585724D01*
X1834455Y-79717753D01*
X1834454Y-79717754D01*
X1790997Y-79861015D01*
X1780000Y-79972668D01*
X1780000Y-79972678D01*
X1776324Y-80010000D01*
X1780000Y-80047323D01*
X1780001Y-85052668D01*
X1776324Y-85090000D01*
X1790998Y-85238985D01*
X1834454Y-85382246D01*
X1905026Y-85514276D01*
X1976201Y-85601002D01*
X2000000Y-85630001D01*
X2028998Y-85653799D01*
X2038878Y-85663679D01*
X1827000Y-85780085D01*
X1827000Y-87873000D01*
X3135000Y-87873000D01*
X3135000Y-86923000D01*
X3097057Y-86721858D01*
X3685000Y-87309802D01*
X3685001Y-89220197D01*
X2029003Y-90876196D01*
X1999999Y-90899999D01*
X1944871Y-90967174D01*
X1905026Y-91015724D01*
X1842472Y-91132754D01*
X1834454Y-91147754D01*
X1790997Y-91291015D01*
X1780000Y-91402668D01*
X1780000Y-91402678D01*
X1776324Y-91440000D01*
X1780000Y-91477323D01*
X1780001Y-97117668D01*
X1776324Y-97155000D01*
X1790998Y-97303985D01*
X1834454Y-97447246D01*
X1905026Y-97579276D01*
X1969713Y-97658096D01*
X1994365Y-97688134D01*
X1827000Y-97780085D01*
X1827000Y-99873000D01*
X1847000Y-99873000D01*
X1847000Y-100127000D01*
X1827000Y-100127000D01*
X1827000Y-102219915D01*
X2010975Y-102320991D01*
X1999999Y-102329999D01*
X1944871Y-102397174D01*
X1905026Y-102445724D01*
X1861451Y-102527247D01*
X1834454Y-102577754D01*
X1790997Y-102721015D01*
X1780000Y-102832668D01*
X1780000Y-102832678D01*
X1776324Y-102870000D01*
X1780000Y-102907323D01*
X1780001Y-107912668D01*
X1776324Y-107950000D01*
X1790998Y-108098985D01*
X1834454Y-108242246D01*
X1905026Y-108374276D01*
X1970602Y-108454180D01*
X2000000Y-108490001D01*
X2028998Y-108513799D01*
X2611200Y-109096002D01*
X2634999Y-109125001D01*
X2663997Y-109148799D01*
X2750724Y-109219974D01*
X2882753Y-109290546D01*
X3026014Y-109334003D01*
X3086902Y-109340000D01*
X660000Y-109340000D01*
X660000Y-101937092D01*
X775105Y-102054500D01*
X1008354Y-102213715D01*
X1268182Y-102324367D01*
X1350961Y-102341904D01*
X1573000Y-102219915D01*
X1573000Y-100127000D01*
X1553000Y-100127000D01*
X1553000Y-99873000D01*
X1573000Y-99873000D01*
X1573000Y-97780085D01*
X1350961Y-97658096D01*
X1268182Y-97675633D01*
X1008354Y-97786285D01*
X775105Y-97945500D01*
X660000Y-98062908D01*
X660000Y-89937092D01*
X775105Y-90054500D01*
X1008354Y-90213715D01*
X1268182Y-90324367D01*
X1350961Y-90341904D01*
X1573000Y-90219915D01*
X1573000Y-88127000D01*
X1827000Y-88127000D01*
X1827000Y-90219915D01*
X2049039Y-90341904D01*
X2131818Y-90324367D01*
X2391646Y-90213715D01*
X2624895Y-90054500D01*
X2822601Y-89852839D01*
X2977166Y-89616483D01*
X3082650Y-89354514D01*
X3135000Y-89077000D01*
X3135000Y-88127000D01*
X1827000Y-88127000D01*
X1573000Y-88127000D01*
X1553000Y-88127000D01*
X1553000Y-87873000D01*
X1573000Y-87873000D01*
X1573000Y-85780085D01*
X1350961Y-85658096D01*
X1268182Y-85675633D01*
X1008354Y-85786285D01*
X775105Y-85945500D01*
X660000Y-86062908D01*
X660000Y-77937092D01*
X775105Y-78054500D01*
X1008354Y-78213715D01*
X1268182Y-78324367D01*
X1350961Y-78341904D01*
X1573000Y-78219915D01*
X1573000Y-76127000D01*
X1827000Y-76127000D01*
X1827000Y-78219915D01*
X2049039Y-78341904D01*
X2131818Y-78324367D01*
X2391646Y-78213715D01*
X2624895Y-78054500D01*
X2822601Y-77852839D01*
X2977166Y-77616483D01*
X3082650Y-77354514D01*
X3135000Y-77077000D01*
X3135000Y-76127000D01*
X1827000Y-76127000D01*
X1573000Y-76127000D01*
X1553000Y-76127000D01*
X1553000Y-75873000D01*
X1573000Y-75873000D01*
X1573000Y-73780085D01*
X1827000Y-73780085D01*
X1827000Y-75873000D01*
X3135000Y-75873000D01*
X3135000Y-74923000D01*
X3082650Y-74645486D01*
X2977166Y-74383517D01*
X2822601Y-74147161D01*
X2624895Y-73945500D01*
X2391646Y-73786285D01*
X2131818Y-73675633D01*
X2049039Y-73658096D01*
X1827000Y-73780085D01*
X1573000Y-73780085D01*
X1350961Y-73658096D01*
X1268182Y-73675633D01*
X1008354Y-73786285D01*
X775105Y-73945500D01*
X660000Y-74062908D01*
X660000Y-54737000D01*
X1105000Y-54737000D01*
X1105000Y-55137000D01*
X1157350Y-55414514D01*
X1262834Y-55676483D01*
X1417399Y-55912839D01*
X1615105Y-56114500D01*
X1848354Y-56273715D01*
X2108182Y-56384367D01*
X2190961Y-56401904D01*
X2413000Y-56279915D01*
X2413000Y-54737000D01*
X1105000Y-54737000D01*
X660000Y-54737000D01*
X660000Y-54083000D01*
X1105000Y-54083000D01*
X1105000Y-54483000D01*
X2413000Y-54483000D01*
X2413000Y-52940085D01*
X2190961Y-52818096D01*
X2108182Y-52835633D01*
X1848354Y-52946285D01*
X1615105Y-53105500D01*
X1417399Y-53307161D01*
X1262834Y-53543517D01*
X1157350Y-53805486D01*
X1105000Y-54083000D01*
X660000Y-54083000D01*
X660000Y-47982702D01*
X1806903Y-47982702D01*
X1878486Y-48226671D01*
X2133996Y-48347571D01*
X2408184Y-48416300D01*
X2690512Y-48430217D01*
X2970130Y-48388787D01*
X3236292Y-48293603D01*
X3361514Y-48226671D01*
X3433097Y-47982702D01*
X2620000Y-47169605D01*
X1806903Y-47982702D01*
X660000Y-47982702D01*
X660000Y-47060512D01*
X1179783Y-47060512D01*
X1221213Y-47340130D01*
X1316397Y-47606292D01*
X1383329Y-47731514D01*
X1627298Y-47803097D01*
X2440395Y-46990000D01*
X2799605Y-46990000D01*
X3612702Y-47803097D01*
X3856671Y-47731514D01*
X3977571Y-47476004D01*
X4046300Y-47201816D01*
X4060217Y-46919488D01*
X4018787Y-46639870D01*
X3923603Y-46373708D01*
X3856671Y-46248486D01*
X3612702Y-46176903D01*
X2799605Y-46990000D01*
X2440395Y-46990000D01*
X1627298Y-46176903D01*
X1383329Y-46248486D01*
X1262429Y-46503996D01*
X1193700Y-46778184D01*
X1179783Y-47060512D01*
X660000Y-47060512D01*
X660000Y-45442702D01*
X1806903Y-45442702D01*
X1878486Y-45686671D01*
X1944636Y-45717971D01*
X1878486Y-45753329D01*
X1806903Y-45997298D01*
X2620000Y-46810395D01*
X3433097Y-45997298D01*
X3361514Y-45753329D01*
X3295364Y-45722029D01*
X3361514Y-45686671D01*
X3433097Y-45442702D01*
X2620000Y-44629605D01*
X1806903Y-45442702D01*
X660000Y-45442702D01*
X660000Y-44520512D01*
X1179783Y-44520512D01*
X1221213Y-44800130D01*
X1316397Y-45066292D01*
X1383329Y-45191514D01*
X1627298Y-45263097D01*
X2440395Y-44450000D01*
X2799605Y-44450000D01*
X3612702Y-45263097D01*
X3856671Y-45191514D01*
X3977571Y-44936004D01*
X4046300Y-44661816D01*
X4060217Y-44379488D01*
X4018787Y-44099870D01*
X3923603Y-43833708D01*
X3856671Y-43708486D01*
X3612702Y-43636903D01*
X2799605Y-44450000D01*
X2440395Y-44450000D01*
X1627298Y-43636903D01*
X1383329Y-43708486D01*
X1262429Y-43963996D01*
X1193700Y-44238184D01*
X1179783Y-44520512D01*
X660000Y-44520512D01*
X660000Y-43457298D01*
X1806903Y-43457298D01*
X2620000Y-44270395D01*
X3433097Y-43457298D01*
X3361514Y-43213329D01*
X3106004Y-43092429D01*
X2831816Y-43023700D01*
X2549488Y-43009783D01*
X2269870Y-43051213D01*
X2003708Y-43146397D01*
X1878486Y-43213329D01*
X1806903Y-43457298D01*
X660000Y-43457298D01*
X660000Y-35408816D01*
X3545000Y-35408816D01*
X3545000Y-35711184D01*
X3603989Y-36007743D01*
X3719701Y-36287095D01*
X3887688Y-36538505D01*
X4101495Y-36752312D01*
X4187831Y-36810000D01*
X4101495Y-36867688D01*
X3887688Y-37081495D01*
X3719701Y-37332905D01*
X3603989Y-37612257D01*
X3545000Y-37908816D01*
X3545000Y-38211184D01*
X3603989Y-38507743D01*
X3719701Y-38787095D01*
X3887688Y-39038505D01*
X4101495Y-39252312D01*
X4187831Y-39310000D01*
X4101495Y-39367688D01*
X3887688Y-39581495D01*
X3719701Y-39832905D01*
X3603989Y-40112257D01*
X3545000Y-40408816D01*
X3545000Y-40711184D01*
X3603989Y-41007743D01*
X3719701Y-41287095D01*
X3887688Y-41538505D01*
X4101495Y-41752312D01*
X4352905Y-41920299D01*
X4632257Y-42036011D01*
X4928816Y-42095000D01*
X5231184Y-42095000D01*
X5527743Y-42036011D01*
X5807095Y-41920299D01*
X6058505Y-41752312D01*
X6272312Y-41538505D01*
X6440299Y-41287095D01*
X6556011Y-41007743D01*
X6615000Y-40711184D01*
X6615000Y-40408816D01*
X6556011Y-40112257D01*
X6440299Y-39832905D01*
X6272312Y-39581495D01*
X6058505Y-39367688D01*
X5972169Y-39310000D01*
X6058505Y-39252312D01*
X6272312Y-39038505D01*
X6418313Y-38820000D01*
X8257678Y-38820000D01*
X8295000Y-38823676D01*
X8332322Y-38820000D01*
X8332333Y-38820000D01*
X8443986Y-38809003D01*
X8587247Y-38765546D01*
X8719276Y-38694974D01*
X8835001Y-38600001D01*
X8858804Y-38570997D01*
X10671004Y-36758798D01*
X10700001Y-36735001D01*
X10794974Y-36619276D01*
X10865546Y-36487247D01*
X10909003Y-36343986D01*
X10920000Y-36232333D01*
X10920000Y-36232324D01*
X10923676Y-36195001D01*
X10920000Y-36157678D01*
X10920000Y-35508043D01*
X11074759Y-35404637D01*
X11274637Y-35204759D01*
X11431680Y-34969727D01*
X11539853Y-34708574D01*
X11595000Y-34431335D01*
X11595000Y-34148665D01*
X11539853Y-33871426D01*
X11431680Y-33610273D01*
X11274637Y-33375241D01*
X11074759Y-33175363D01*
X10839727Y-33018320D01*
X10578574Y-32910147D01*
X10301335Y-32855000D01*
X10018665Y-32855000D01*
X9741426Y-32910147D01*
X9480273Y-33018320D01*
X9245241Y-33175363D01*
X9045363Y-33375241D01*
X8888320Y-33610273D01*
X8780147Y-33871426D01*
X8725000Y-34148665D01*
X8725000Y-34431335D01*
X8780147Y-34708574D01*
X8888320Y-34969727D01*
X9045363Y-35204759D01*
X9245241Y-35404637D01*
X9400000Y-35508044D01*
X9400000Y-35880198D01*
X7980199Y-37300000D01*
X6418313Y-37300000D01*
X6272312Y-37081495D01*
X6058505Y-36867688D01*
X5972169Y-36810000D01*
X6058505Y-36752312D01*
X6272312Y-36538505D01*
X6440299Y-36287095D01*
X6556011Y-36007743D01*
X6615000Y-35711184D01*
X6615000Y-35408816D01*
X6556011Y-35112257D01*
X6440299Y-34832905D01*
X6272312Y-34581495D01*
X6058505Y-34367688D01*
X5807095Y-34199701D01*
X5527743Y-34083989D01*
X5231184Y-34025000D01*
X4928816Y-34025000D01*
X4632257Y-34083989D01*
X4352905Y-34199701D01*
X4101495Y-34367688D01*
X3887688Y-34581495D01*
X3719701Y-34832905D01*
X3603989Y-35112257D01*
X3545000Y-35408816D01*
X660000Y-35408816D01*
X660000Y-6870000D01*
X1836928Y-6870000D01*
X1836928Y-8370000D01*
X1849188Y-8494482D01*
X1885498Y-8614180D01*
X1944463Y-8724494D01*
X2023815Y-8821185D01*
X2120506Y-8900537D01*
X2230820Y-8959502D01*
X2350518Y-8995812D01*
X2475000Y-9008072D01*
X3525000Y-9008072D01*
X3649482Y-8995812D01*
X3769180Y-8959502D01*
X3834057Y-8924824D01*
X3902663Y-8955272D01*
X3964190Y-8963964D01*
X4143000Y-8838163D01*
X4143000Y-8520235D01*
X4150812Y-8494482D01*
X4163072Y-8370000D01*
X4163072Y-7338022D01*
X4380000Y-7338022D01*
X4380000Y-7901979D01*
X4396785Y-8072400D01*
X4397000Y-8073109D01*
X4397000Y-8838163D01*
X4575810Y-8963964D01*
X4637337Y-8955272D01*
X4846882Y-8862275D01*
X4905331Y-8821071D01*
X5093941Y-8921885D01*
X5312601Y-8988215D01*
X5540000Y-9010612D01*
X5767400Y-8988215D01*
X5986060Y-8921885D01*
X6187579Y-8814171D01*
X6364212Y-8669212D01*
X6509171Y-8492579D01*
X6529257Y-8455000D01*
X9995375Y-8455000D01*
X10004188Y-8544482D01*
X10040498Y-8664180D01*
X10099463Y-8774494D01*
X10178815Y-8871185D01*
X10227770Y-8911361D01*
X8963574Y-10175559D01*
X8931710Y-10201709D01*
X8905562Y-10233571D01*
X8828945Y-10326928D01*
X8425000Y-10326928D01*
X8300518Y-10339188D01*
X8180820Y-10375498D01*
X8070506Y-10434463D01*
X7973815Y-10513815D01*
X7894463Y-10610506D01*
X7835498Y-10720820D01*
X7799188Y-10840518D01*
X7786928Y-10965000D01*
X7786928Y-13165000D01*
X7799188Y-13289482D01*
X7835498Y-13409180D01*
X7894463Y-13519494D01*
X7973815Y-13616185D01*
X8070506Y-13695537D01*
X8180820Y-13754502D01*
X8300518Y-13790812D01*
X8425000Y-13803072D01*
X10625000Y-13803072D01*
X10749482Y-13790812D01*
X10869180Y-13754502D01*
X10979494Y-13695537D01*
X11076185Y-13616185D01*
X11155537Y-13519494D01*
X11214502Y-13409180D01*
X11250812Y-13289482D01*
X11263072Y-13165000D01*
X11263072Y-10965000D01*
X11250812Y-10840518D01*
X11214502Y-10720820D01*
X11155537Y-10610506D01*
X11076185Y-10513815D01*
X11027230Y-10473638D01*
X11991433Y-9509436D01*
X12023291Y-9483291D01*
X12127636Y-9356146D01*
X12205172Y-9211087D01*
X12252253Y-9055880D01*
X12354482Y-9045812D01*
X12474180Y-9009502D01*
X12584494Y-8950537D01*
X12681185Y-8871185D01*
X12760537Y-8774494D01*
X12819502Y-8664180D01*
X12855812Y-8544482D01*
X12868072Y-8420000D01*
X12868072Y-6820000D01*
X12855812Y-6695518D01*
X12819502Y-6575820D01*
X12760537Y-6465506D01*
X12681185Y-6368815D01*
X12668242Y-6358193D01*
X12787571Y-6106004D01*
X12856300Y-5831816D01*
X12870217Y-5549488D01*
X12828787Y-5269870D01*
X12733603Y-5003708D01*
X12666671Y-4878486D01*
X12422702Y-4806903D01*
X11609605Y-5620000D01*
X11623748Y-5634143D01*
X11444143Y-5813748D01*
X11430000Y-5799605D01*
X11415858Y-5813748D01*
X11236253Y-5634143D01*
X11250395Y-5620000D01*
X10437298Y-4806903D01*
X10193329Y-4878486D01*
X10072429Y-5133996D01*
X10003700Y-5408184D01*
X9989783Y-5690512D01*
X10031213Y-5970130D01*
X10126397Y-6236292D01*
X10191616Y-6358309D01*
X10178815Y-6368815D01*
X10099463Y-6465506D01*
X10040498Y-6575820D01*
X10004188Y-6695518D01*
X9995375Y-6785000D01*
X6529257Y-6785000D01*
X6509171Y-6747421D01*
X6364212Y-6570788D01*
X6187578Y-6425829D01*
X5986059Y-6318115D01*
X5767399Y-6251785D01*
X5540000Y-6229388D01*
X5312600Y-6251785D01*
X5093940Y-6318115D01*
X4905331Y-6418929D01*
X4846882Y-6377725D01*
X4637337Y-6284728D01*
X4575810Y-6276036D01*
X4397000Y-6401837D01*
X4397000Y-7166892D01*
X4396785Y-7167601D01*
X4380000Y-7338022D01*
X4163072Y-7338022D01*
X4163072Y-6870000D01*
X4150812Y-6745518D01*
X4143000Y-6719765D01*
X4143000Y-6401837D01*
X3964190Y-6276036D01*
X3902663Y-6284728D01*
X3834057Y-6315176D01*
X3769180Y-6280498D01*
X3649482Y-6244188D01*
X3525000Y-6231928D01*
X2475000Y-6231928D01*
X2350518Y-6244188D01*
X2230820Y-6280498D01*
X2120506Y-6339463D01*
X2023815Y-6418815D01*
X1944463Y-6515506D01*
X1885498Y-6625820D01*
X1849188Y-6745518D01*
X1836928Y-6870000D01*
X660000Y-6870000D01*
X660000Y-4627298D01*
X10616903Y-4627298D01*
X11430000Y-5440395D01*
X12243097Y-4627298D01*
X12171514Y-4383329D01*
X11916004Y-4262429D01*
X11641816Y-4193700D01*
X11359488Y-4179783D01*
X11079870Y-4221213D01*
X10813708Y-4316397D01*
X10688486Y-4383329D01*
X10616903Y-4627298D01*
X660000Y-4627298D01*
X660000Y-660000D01*
X25340000Y-660000D01*
X25340001Y-109340000D01*
G04 #@! TA.AperFunction,Conductor*
D26*
G36*
X25340001Y-109340000D02*
G01*
X15423098Y-109340000D01*
X15483986Y-109334003D01*
X15627247Y-109290546D01*
X15759276Y-109219974D01*
X15875001Y-109125001D01*
X15898804Y-109095997D01*
X16146729Y-108848072D01*
X17310000Y-108848072D01*
X17434482Y-108835812D01*
X17554180Y-108799502D01*
X17664494Y-108740537D01*
X17761185Y-108661185D01*
X17840537Y-108564494D01*
X17899502Y-108454180D01*
X17935812Y-108334482D01*
X17948072Y-108210000D01*
X17948072Y-106610000D01*
X17935812Y-106485518D01*
X17899502Y-106365820D01*
X17840537Y-106255506D01*
X17761185Y-106158815D01*
X17744607Y-106145210D01*
X17781680Y-106089727D01*
X17889853Y-105828574D01*
X17945000Y-105551335D01*
X17945000Y-105268665D01*
X17889853Y-104991426D01*
X17781680Y-104730273D01*
X17624637Y-104495241D01*
X17424759Y-104295363D01*
X17189727Y-104138320D01*
X16928574Y-104030147D01*
X16651335Y-103975000D01*
X16368665Y-103975000D01*
X16091426Y-104030147D01*
X15830273Y-104138320D01*
X15595241Y-104295363D01*
X15395363Y-104495241D01*
X15291957Y-104650000D01*
X12737333Y-104650000D01*
X12700000Y-104646323D01*
X12662667Y-104650000D01*
X12551014Y-104660997D01*
X12506300Y-104674561D01*
X12483574Y-104665147D01*
X12206335Y-104610000D01*
X11923665Y-104610000D01*
X11646426Y-104665147D01*
X11385273Y-104773320D01*
X11150241Y-104930363D01*
X10950363Y-105130241D01*
X10793320Y-105365273D01*
X10685147Y-105626426D01*
X10630000Y-105903665D01*
X10630000Y-106186335D01*
X10685147Y-106463574D01*
X10793320Y-106724727D01*
X10950363Y-106959759D01*
X11150241Y-107159637D01*
X11385273Y-107316680D01*
X11646426Y-107424853D01*
X11923665Y-107480000D01*
X12206335Y-107480000D01*
X12483574Y-107424853D01*
X12744727Y-107316680D01*
X12979759Y-107159637D01*
X13179637Y-106959759D01*
X13336680Y-106724727D01*
X13444853Y-106463574D01*
X13500000Y-106186335D01*
X13500000Y-106170000D01*
X15249636Y-106170000D01*
X15179463Y-106255506D01*
X15120498Y-106365820D01*
X15084188Y-106485518D01*
X15071928Y-106610000D01*
X15071928Y-107773271D01*
X15020199Y-107825000D01*
X3489802Y-107825000D01*
X3300000Y-107635199D01*
X3300000Y-106914317D01*
X3330363Y-106959759D01*
X3530241Y-107159637D01*
X3765273Y-107316680D01*
X4026426Y-107424853D01*
X4303665Y-107480000D01*
X4586335Y-107480000D01*
X4863574Y-107424853D01*
X5124727Y-107316680D01*
X5359759Y-107159637D01*
X5559637Y-106959759D01*
X5716680Y-106724727D01*
X5824853Y-106463574D01*
X5880000Y-106186335D01*
X5880000Y-105903665D01*
X5824853Y-105626426D01*
X5716680Y-105365273D01*
X5559637Y-105130241D01*
X5359759Y-104930363D01*
X5205000Y-104826957D01*
X5205000Y-95198043D01*
X5359759Y-95094637D01*
X5559637Y-94894759D01*
X5716680Y-94659727D01*
X5824853Y-94398574D01*
X5880000Y-94121335D01*
X5880000Y-93838665D01*
X5824853Y-93561426D01*
X5716680Y-93300273D01*
X5559637Y-93065241D01*
X5362099Y-92867703D01*
X5394802Y-92835000D01*
X6312678Y-92835000D01*
X6350000Y-92838676D01*
X6387322Y-92835000D01*
X6387333Y-92835000D01*
X6498986Y-92824003D01*
X6642247Y-92780546D01*
X6774276Y-92709974D01*
X6890001Y-92615001D01*
X6913803Y-92585998D01*
X7511002Y-91988800D01*
X7540001Y-91965001D01*
X7634974Y-91849276D01*
X7705546Y-91717247D01*
X7749003Y-91573986D01*
X7760000Y-91462333D01*
X7760000Y-91462323D01*
X7763676Y-91425000D01*
X7760000Y-91387677D01*
X7760000Y-90270901D01*
X7801101Y-90248932D01*
X8019608Y-90069608D01*
X8130000Y-89935095D01*
X8130000Y-94935198D01*
X6488998Y-96576201D01*
X6460000Y-96599999D01*
X6436202Y-96628997D01*
X6436201Y-96628998D01*
X6365026Y-96715724D01*
X6294454Y-96847754D01*
X6250998Y-96991015D01*
X6236324Y-97140000D01*
X6240001Y-97177332D01*
X6240001Y-97929099D01*
X6198899Y-97951068D01*
X5980392Y-98130393D01*
X5801068Y-98348900D01*
X5667818Y-98598193D01*
X5585764Y-98868692D01*
X5565000Y-99079509D01*
X5565001Y-101120492D01*
X5585765Y-101331309D01*
X5667819Y-101601808D01*
X5801069Y-101851101D01*
X5980393Y-102069608D01*
X6198900Y-102248932D01*
X6448193Y-102382182D01*
X6718692Y-102464236D01*
X7000000Y-102491943D01*
X7281309Y-102464236D01*
X7551808Y-102382182D01*
X7801101Y-102248932D01*
X8019608Y-102069608D01*
X8198932Y-101851101D01*
X8332182Y-101601808D01*
X8414236Y-101331309D01*
X8435000Y-101120492D01*
X8435000Y-99079509D01*
X11365000Y-99079509D01*
X11365001Y-101120492D01*
X11385765Y-101331309D01*
X11467819Y-101601808D01*
X11601069Y-101851101D01*
X11780393Y-102069608D01*
X11998900Y-102248932D01*
X12248193Y-102382182D01*
X12518692Y-102464236D01*
X12800000Y-102491943D01*
X13081309Y-102464236D01*
X13351808Y-102382182D01*
X13601101Y-102248932D01*
X13819608Y-102069608D01*
X13998932Y-101851101D01*
X14132182Y-101601808D01*
X14214236Y-101331309D01*
X14235000Y-101120492D01*
X14235000Y-99079508D01*
X14214236Y-98868691D01*
X14132182Y-98598192D01*
X13998932Y-98348899D01*
X13819607Y-98130392D01*
X13601100Y-97951068D01*
X13351807Y-97817818D01*
X13081308Y-97735764D01*
X12800000Y-97708057D01*
X12518691Y-97735764D01*
X12248192Y-97817818D01*
X11998899Y-97951068D01*
X11780392Y-98130393D01*
X11601068Y-98348900D01*
X11467818Y-98598193D01*
X11385764Y-98868692D01*
X11365000Y-99079509D01*
X8435000Y-99079509D01*
X8435000Y-99079508D01*
X8414236Y-98868691D01*
X8332182Y-98598192D01*
X8198932Y-98348899D01*
X8019607Y-98130392D01*
X7801100Y-97951068D01*
X7760000Y-97929100D01*
X7760000Y-97454801D01*
X9401004Y-95813798D01*
X9430001Y-95790001D01*
X9524974Y-95674276D01*
X9595546Y-95542247D01*
X9639003Y-95398986D01*
X9650000Y-95287333D01*
X9650000Y-95287325D01*
X9653676Y-95250000D01*
X9650000Y-95212675D01*
X9650000Y-94972702D01*
X11251903Y-94972702D01*
X11323486Y-95216671D01*
X11578996Y-95337571D01*
X11853184Y-95406300D01*
X12135512Y-95420217D01*
X12415130Y-95378787D01*
X12681292Y-95283603D01*
X12806514Y-95216671D01*
X12878097Y-94972702D01*
X12065000Y-94159605D01*
X11251903Y-94972702D01*
X9650000Y-94972702D01*
X9650000Y-94050512D01*
X10624783Y-94050512D01*
X10666213Y-94330130D01*
X10761397Y-94596292D01*
X10828329Y-94721514D01*
X11072298Y-94793097D01*
X11885395Y-93980000D01*
X12244605Y-93980000D01*
X13057702Y-94793097D01*
X13301671Y-94721514D01*
X13422571Y-94466004D01*
X13491300Y-94191816D01*
X13505217Y-93909488D01*
X13463787Y-93629870D01*
X13368603Y-93363708D01*
X13301671Y-93238486D01*
X13057702Y-93166903D01*
X12244605Y-93980000D01*
X11885395Y-93980000D01*
X11072298Y-93166903D01*
X10828329Y-93238486D01*
X10707429Y-93493996D01*
X10638700Y-93768184D01*
X10624783Y-94050512D01*
X9650000Y-94050512D01*
X9650000Y-92987298D01*
X11251903Y-92987298D01*
X12065000Y-93800395D01*
X12878097Y-92987298D01*
X12806514Y-92743329D01*
X12551004Y-92622429D01*
X12276816Y-92553700D01*
X11994488Y-92539783D01*
X11714870Y-92581213D01*
X11448708Y-92676397D01*
X11323486Y-92743329D01*
X11251903Y-92987298D01*
X9650000Y-92987298D01*
X9650000Y-92471123D01*
X14820821Y-92471123D01*
X14930558Y-92793054D01*
X15100992Y-93087391D01*
X15325573Y-93342822D01*
X15595671Y-93549531D01*
X15900906Y-93699575D01*
X16113878Y-93764175D01*
X16383000Y-93646125D01*
X16383000Y-92202000D01*
X16637000Y-92202000D01*
X16637000Y-93646125D01*
X16906122Y-93764175D01*
X17119094Y-93699575D01*
X17424329Y-93549531D01*
X17694427Y-93342822D01*
X17919008Y-93087391D01*
X18089442Y-92793054D01*
X18199179Y-92471123D01*
X18081600Y-92202000D01*
X16637000Y-92202000D01*
X16383000Y-92202000D01*
X14938400Y-92202000D01*
X14820821Y-92471123D01*
X9650000Y-92471123D01*
X9650000Y-91678877D01*
X14820821Y-91678877D01*
X14938400Y-91948000D01*
X16383000Y-91948000D01*
X16383000Y-90503875D01*
X16637000Y-90503875D01*
X16637000Y-91948000D01*
X18081600Y-91948000D01*
X18199179Y-91678877D01*
X18089442Y-91356946D01*
X17919008Y-91062609D01*
X17694427Y-90807178D01*
X17424329Y-90600469D01*
X17119094Y-90450425D01*
X16906122Y-90385825D01*
X16637000Y-90503875D01*
X16383000Y-90503875D01*
X16113878Y-90385825D01*
X15900906Y-90450425D01*
X15595671Y-90600469D01*
X15325573Y-90807178D01*
X15100992Y-91062609D01*
X14930558Y-91356946D01*
X14820821Y-91678877D01*
X9650000Y-91678877D01*
X9650000Y-87079509D01*
X11365000Y-87079509D01*
X11365001Y-89120492D01*
X11385765Y-89331309D01*
X11467819Y-89601808D01*
X11601069Y-89851101D01*
X11780393Y-90069608D01*
X11998900Y-90248932D01*
X12248193Y-90382182D01*
X12518692Y-90464236D01*
X12800000Y-90491943D01*
X13081309Y-90464236D01*
X13351808Y-90382182D01*
X13601101Y-90248932D01*
X13819608Y-90069608D01*
X13998932Y-89851101D01*
X14132182Y-89601808D01*
X14214236Y-89331309D01*
X14235000Y-89120492D01*
X14235000Y-87079508D01*
X14214236Y-86868691D01*
X14132182Y-86598192D01*
X13998932Y-86348899D01*
X13819607Y-86130392D01*
X13601100Y-85951068D01*
X13351807Y-85817818D01*
X13081308Y-85735764D01*
X12800000Y-85708057D01*
X12518691Y-85735764D01*
X12248192Y-85817818D01*
X11998899Y-85951068D01*
X11780392Y-86130393D01*
X11601068Y-86348900D01*
X11467818Y-86598193D01*
X11385764Y-86868692D01*
X11365000Y-87079509D01*
X9650000Y-87079509D01*
X9650000Y-71068043D01*
X9804759Y-70964637D01*
X10004637Y-70764759D01*
X10035000Y-70719317D01*
X10035001Y-80607667D01*
X10031324Y-80645000D01*
X10035001Y-80682333D01*
X10045998Y-80793986D01*
X10059180Y-80837442D01*
X10089454Y-80937246D01*
X10160026Y-81069276D01*
X10230379Y-81155000D01*
X10255000Y-81185001D01*
X10283998Y-81208799D01*
X10666312Y-81591114D01*
X10630000Y-81773665D01*
X10630000Y-82056335D01*
X10685147Y-82333574D01*
X10793320Y-82594727D01*
X10950363Y-82829759D01*
X11150241Y-83029637D01*
X11385273Y-83186680D01*
X11646426Y-83294853D01*
X11923665Y-83350000D01*
X12206335Y-83350000D01*
X12483574Y-83294853D01*
X12744727Y-83186680D01*
X12979759Y-83029637D01*
X13179637Y-82829759D01*
X13283043Y-82675000D01*
X14771928Y-82675000D01*
X14771928Y-83015000D01*
X14784188Y-83139482D01*
X14820498Y-83259180D01*
X14879463Y-83369494D01*
X14958815Y-83466185D01*
X15055506Y-83545537D01*
X15165820Y-83604502D01*
X15285518Y-83640812D01*
X15410000Y-83653072D01*
X17610000Y-83653072D01*
X17734482Y-83640812D01*
X17854180Y-83604502D01*
X17964494Y-83545537D01*
X18061185Y-83466185D01*
X18140537Y-83369494D01*
X18199502Y-83259180D01*
X18235812Y-83139482D01*
X18248072Y-83015000D01*
X18248072Y-80815000D01*
X18235812Y-80690518D01*
X18199502Y-80570820D01*
X18140537Y-80460506D01*
X18095907Y-80406123D01*
X19900821Y-80406123D01*
X20010558Y-80728054D01*
X20180992Y-81022391D01*
X20405573Y-81277822D01*
X20675671Y-81484531D01*
X20980906Y-81634575D01*
X21193878Y-81699175D01*
X21463000Y-81581125D01*
X21463000Y-80137000D01*
X21717000Y-80137000D01*
X21717000Y-81581125D01*
X21986122Y-81699175D01*
X22199094Y-81634575D01*
X22504329Y-81484531D01*
X22774427Y-81277822D01*
X22999008Y-81022391D01*
X23169442Y-80728054D01*
X23279179Y-80406123D01*
X23161600Y-80137000D01*
X21717000Y-80137000D01*
X21463000Y-80137000D01*
X20018400Y-80137000D01*
X19900821Y-80406123D01*
X18095907Y-80406123D01*
X18061185Y-80363815D01*
X17964494Y-80284463D01*
X17854180Y-80225498D01*
X17734482Y-80189188D01*
X17610000Y-80176928D01*
X15410000Y-80176928D01*
X15285518Y-80189188D01*
X15165820Y-80225498D01*
X15055506Y-80284463D01*
X14958815Y-80363815D01*
X14879463Y-80460506D01*
X14820498Y-80570820D01*
X14784188Y-80690518D01*
X14771928Y-80815000D01*
X14771928Y-81155000D01*
X13283043Y-81155000D01*
X13179637Y-81000241D01*
X12979759Y-80800363D01*
X12744727Y-80643320D01*
X12483574Y-80535147D01*
X12206335Y-80480000D01*
X11923665Y-80480000D01*
X11741114Y-80516312D01*
X11555000Y-80330199D01*
X11555000Y-79613877D01*
X19900821Y-79613877D01*
X20018400Y-79883000D01*
X21463000Y-79883000D01*
X21463000Y-78438875D01*
X21717000Y-78438875D01*
X21717000Y-79883000D01*
X23161600Y-79883000D01*
X23279179Y-79613877D01*
X23169442Y-79291946D01*
X22999008Y-78997609D01*
X22774427Y-78742178D01*
X22504329Y-78535469D01*
X22199094Y-78385425D01*
X21986122Y-78320825D01*
X21717000Y-78438875D01*
X21463000Y-78438875D01*
X21193878Y-78320825D01*
X20980906Y-78385425D01*
X20675671Y-78535469D01*
X20405573Y-78742178D01*
X20180992Y-78997609D01*
X20010558Y-79291946D01*
X19900821Y-79613877D01*
X11555000Y-79613877D01*
X11555000Y-77764912D01*
X11601069Y-77851101D01*
X11780393Y-78069608D01*
X11998900Y-78248932D01*
X12248193Y-78382182D01*
X12518692Y-78464236D01*
X12800000Y-78491943D01*
X13081309Y-78464236D01*
X13351808Y-78382182D01*
X13601101Y-78248932D01*
X13819608Y-78069608D01*
X13998932Y-77851101D01*
X14132182Y-77601808D01*
X14214236Y-77331309D01*
X14235000Y-77120492D01*
X14235000Y-75079508D01*
X14214236Y-74868691D01*
X14132182Y-74598192D01*
X13998932Y-74348899D01*
X13819607Y-74130392D01*
X13601100Y-73951068D01*
X13351807Y-73817818D01*
X13081308Y-73735764D01*
X12800000Y-73708057D01*
X12518691Y-73735764D01*
X12248192Y-73817818D01*
X11998899Y-73951068D01*
X11780392Y-74130393D01*
X11601068Y-74348900D01*
X11555000Y-74435087D01*
X11555000Y-70414622D01*
X11640724Y-70484974D01*
X11772753Y-70555546D01*
X11916014Y-70599003D01*
X12065000Y-70613677D01*
X12102333Y-70610000D01*
X15291957Y-70610000D01*
X15395363Y-70764759D01*
X15595241Y-70964637D01*
X15830273Y-71121680D01*
X16091426Y-71229853D01*
X16368665Y-71285000D01*
X16651335Y-71285000D01*
X16928574Y-71229853D01*
X17189727Y-71121680D01*
X17424759Y-70964637D01*
X17624637Y-70764759D01*
X17728043Y-70610000D01*
X19851928Y-70610000D01*
X19851928Y-70950000D01*
X19864188Y-71074482D01*
X19900498Y-71194180D01*
X19959463Y-71304494D01*
X20038815Y-71401185D01*
X20135506Y-71480537D01*
X20245820Y-71539502D01*
X20365518Y-71575812D01*
X20490000Y-71588072D01*
X22690000Y-71588072D01*
X22814482Y-71575812D01*
X22934180Y-71539502D01*
X23044494Y-71480537D01*
X23141185Y-71401185D01*
X23220537Y-71304494D01*
X23279502Y-71194180D01*
X23315812Y-71074482D01*
X23328072Y-70950000D01*
X23328072Y-68750000D01*
X23315812Y-68625518D01*
X23279502Y-68505820D01*
X23220537Y-68395506D01*
X23141185Y-68298815D01*
X23044494Y-68219463D01*
X22934180Y-68160498D01*
X22814482Y-68124188D01*
X22690000Y-68111928D01*
X20490000Y-68111928D01*
X20365518Y-68124188D01*
X20245820Y-68160498D01*
X20135506Y-68219463D01*
X20038815Y-68298815D01*
X19959463Y-68395506D01*
X19900498Y-68505820D01*
X19864188Y-68625518D01*
X19851928Y-68750000D01*
X19851928Y-69090000D01*
X17728043Y-69090000D01*
X17624637Y-68935241D01*
X17424759Y-68735363D01*
X17189727Y-68578320D01*
X16928574Y-68470147D01*
X16651335Y-68415000D01*
X16368665Y-68415000D01*
X16091426Y-68470147D01*
X15830273Y-68578320D01*
X15595241Y-68735363D01*
X15395363Y-68935241D01*
X15291957Y-69090000D01*
X12379802Y-69090000D01*
X12190000Y-68900199D01*
X12190000Y-68617322D01*
X12193676Y-68579999D01*
X12190000Y-68542676D01*
X12190000Y-68542667D01*
X12179003Y-68431014D01*
X12135546Y-68287753D01*
X12064974Y-68155724D01*
X11970001Y-68039999D01*
X11941004Y-68016202D01*
X10920000Y-66995199D01*
X10920000Y-63850900D01*
X10961100Y-63828932D01*
X11179607Y-63649608D01*
X11358932Y-63431101D01*
X11430000Y-63298142D01*
X11501068Y-63431100D01*
X11680392Y-63649607D01*
X11898899Y-63828932D01*
X11940001Y-63850901D01*
X11940000Y-64821956D01*
X11785241Y-64925363D01*
X11585363Y-65125241D01*
X11428320Y-65360273D01*
X11320147Y-65621426D01*
X11265000Y-65898665D01*
X11265000Y-66181335D01*
X11320147Y-66458574D01*
X11428320Y-66719727D01*
X11585363Y-66954759D01*
X11785241Y-67154637D01*
X12020273Y-67311680D01*
X12281426Y-67419853D01*
X12558665Y-67475000D01*
X12841335Y-67475000D01*
X13118574Y-67419853D01*
X13379727Y-67311680D01*
X13614759Y-67154637D01*
X13736694Y-67032702D01*
X16886903Y-67032702D01*
X16958486Y-67276671D01*
X17213996Y-67397571D01*
X17488184Y-67466300D01*
X17770512Y-67480217D01*
X18050130Y-67438787D01*
X18316292Y-67343603D01*
X18441514Y-67276671D01*
X18513097Y-67032702D01*
X17700000Y-66219605D01*
X16886903Y-67032702D01*
X13736694Y-67032702D01*
X13814637Y-66954759D01*
X13971680Y-66719727D01*
X14079853Y-66458574D01*
X14135000Y-66181335D01*
X14135000Y-66110512D01*
X16259783Y-66110512D01*
X16301213Y-66390130D01*
X16396397Y-66656292D01*
X16463329Y-66781514D01*
X16707298Y-66853097D01*
X17520395Y-66040000D01*
X17879605Y-66040000D01*
X18692702Y-66853097D01*
X18936671Y-66781514D01*
X19057571Y-66526004D01*
X19126300Y-66251816D01*
X19140217Y-65969488D01*
X19098787Y-65689870D01*
X19003603Y-65423708D01*
X18936671Y-65298486D01*
X18692702Y-65226903D01*
X17879605Y-66040000D01*
X17520395Y-66040000D01*
X16707298Y-65226903D01*
X16463329Y-65298486D01*
X16342429Y-65553996D01*
X16273700Y-65828184D01*
X16259783Y-66110512D01*
X14135000Y-66110512D01*
X14135000Y-65898665D01*
X14079853Y-65621426D01*
X13971680Y-65360273D01*
X13814637Y-65125241D01*
X13736694Y-65047298D01*
X16886903Y-65047298D01*
X17700000Y-65860395D01*
X18513097Y-65047298D01*
X18441514Y-64803329D01*
X18186004Y-64682429D01*
X17911816Y-64613700D01*
X17629488Y-64599783D01*
X17349870Y-64641213D01*
X17083708Y-64736397D01*
X16958486Y-64803329D01*
X16886903Y-65047298D01*
X13736694Y-65047298D01*
X13614759Y-64925363D01*
X13460000Y-64821957D01*
X13460000Y-63850900D01*
X13501100Y-63828932D01*
X13719607Y-63649608D01*
X13898932Y-63431101D01*
X13970000Y-63298142D01*
X14041068Y-63431100D01*
X14220392Y-63649607D01*
X14438899Y-63828932D01*
X14688192Y-63962182D01*
X14958691Y-64044236D01*
X15240000Y-64071943D01*
X15521308Y-64044236D01*
X15791807Y-63962182D01*
X16041100Y-63828932D01*
X16259607Y-63649608D01*
X16438932Y-63431101D01*
X16510000Y-63298142D01*
X16581068Y-63431100D01*
X16760392Y-63649607D01*
X16978899Y-63828932D01*
X17228192Y-63962182D01*
X17498691Y-64044236D01*
X17780000Y-64071943D01*
X18061308Y-64044236D01*
X18331807Y-63962182D01*
X18581100Y-63828932D01*
X18799607Y-63649608D01*
X18978932Y-63431101D01*
X19112182Y-63181808D01*
X19194236Y-62911309D01*
X19215000Y-62700492D01*
X19215000Y-61759509D01*
X19194236Y-61548691D01*
X19112182Y-61278192D01*
X18978932Y-61028899D01*
X18799608Y-60810392D01*
X18581101Y-60631068D01*
X18331808Y-60497818D01*
X18061309Y-60415764D01*
X17780000Y-60388057D01*
X17498692Y-60415764D01*
X17228193Y-60497818D01*
X16978900Y-60631068D01*
X16760393Y-60810392D01*
X16581068Y-61028899D01*
X16510000Y-61161858D01*
X16438932Y-61028899D01*
X16259608Y-60810392D01*
X16041101Y-60631068D01*
X16000000Y-60609099D01*
X16000000Y-59369801D01*
X17166003Y-58203799D01*
X17195000Y-58180002D01*
X17289973Y-58064277D01*
X17360545Y-57932248D01*
X17404002Y-57788987D01*
X17414999Y-57677334D01*
X17414999Y-57677326D01*
X17418675Y-57640001D01*
X17414999Y-57602676D01*
X17414999Y-56448072D01*
X18580000Y-56448072D01*
X18704482Y-56435812D01*
X18824180Y-56399502D01*
X18934494Y-56340537D01*
X19031185Y-56261185D01*
X19110537Y-56164494D01*
X19169502Y-56054180D01*
X19205812Y-55934482D01*
X19218072Y-55810000D01*
X19218072Y-53410000D01*
X19205812Y-53285518D01*
X19169502Y-53165820D01*
X19110537Y-53055506D01*
X19031185Y-52958815D01*
X18934494Y-52879463D01*
X18824180Y-52820498D01*
X18704482Y-52784188D01*
X18580000Y-52771928D01*
X18540000Y-52771928D01*
X18540000Y-52018043D01*
X18694759Y-51914637D01*
X18894637Y-51714759D01*
X19051680Y-51479727D01*
X19159853Y-51218574D01*
X19215000Y-50941335D01*
X19215000Y-50658665D01*
X19159853Y-50381426D01*
X19051680Y-50120273D01*
X18894637Y-49885241D01*
X18694759Y-49685363D01*
X18540000Y-49581957D01*
X18540000Y-49567325D01*
X18543676Y-49530000D01*
X18540000Y-49492675D01*
X18540000Y-49492667D01*
X18529003Y-49381014D01*
X18485546Y-49237753D01*
X18414974Y-49105724D01*
X18320001Y-48989999D01*
X18291004Y-48966202D01*
X14730000Y-45405199D01*
X14730000Y-31603740D01*
X17565000Y-31603740D01*
X17565000Y-31896260D01*
X17622068Y-32183158D01*
X17734010Y-32453411D01*
X17896525Y-32696632D01*
X18103368Y-32903475D01*
X18346589Y-33065990D01*
X18616842Y-33177932D01*
X18903740Y-33235000D01*
X19196260Y-33235000D01*
X19483158Y-33177932D01*
X19753411Y-33065990D01*
X19996632Y-32903475D01*
X20183715Y-32716392D01*
X20251595Y-32843386D01*
X20362038Y-32977962D01*
X20496614Y-33088405D01*
X20650150Y-33170472D01*
X20816746Y-33221008D01*
X20990000Y-33238072D01*
X22190000Y-33238072D01*
X22363254Y-33221008D01*
X22529850Y-33170472D01*
X22683386Y-33088405D01*
X22817962Y-32977962D01*
X22928405Y-32843386D01*
X23010472Y-32689850D01*
X23061008Y-32523254D01*
X23078072Y-32350000D01*
X23078072Y-31150000D01*
X23061008Y-30976746D01*
X23010472Y-30810150D01*
X22928405Y-30656614D01*
X22817962Y-30522038D01*
X22683386Y-30411595D01*
X22529850Y-30329528D01*
X22420707Y-30296420D01*
X22438792Y-30238397D01*
X21590000Y-29389605D01*
X20741208Y-30238397D01*
X20759293Y-30296420D01*
X20650150Y-30329528D01*
X20496614Y-30411595D01*
X20362038Y-30522038D01*
X20251595Y-30656614D01*
X20183715Y-30783608D01*
X19996632Y-30596525D01*
X19823271Y-30480689D01*
X19898792Y-30238397D01*
X19050000Y-29389605D01*
X18201208Y-30238397D01*
X18276729Y-30480689D01*
X18103368Y-30596525D01*
X17896525Y-30803368D01*
X17734010Y-31046589D01*
X17622068Y-31316842D01*
X17565000Y-31603740D01*
X14730000Y-31603740D01*
X14730000Y-29278531D01*
X17559389Y-29278531D01*
X17601401Y-29568019D01*
X17699081Y-29843747D01*
X17772528Y-29981157D01*
X18021603Y-30058792D01*
X18870395Y-29210000D01*
X19229605Y-29210000D01*
X20078397Y-30058792D01*
X20320000Y-29983486D01*
X20561603Y-30058792D01*
X21410395Y-29210000D01*
X21769605Y-29210000D01*
X22618397Y-30058792D01*
X22867472Y-29981157D01*
X22993371Y-29717117D01*
X23065339Y-29433589D01*
X23080611Y-29141469D01*
X23038599Y-28851981D01*
X22940919Y-28576253D01*
X22867472Y-28438843D01*
X22618397Y-28361208D01*
X21769605Y-29210000D01*
X21410395Y-29210000D01*
X20561603Y-28361208D01*
X20320000Y-28436514D01*
X20078397Y-28361208D01*
X19229605Y-29210000D01*
X18870395Y-29210000D01*
X18021603Y-28361208D01*
X17772528Y-28438843D01*
X17646629Y-28702883D01*
X17574661Y-28986411D01*
X17559389Y-29278531D01*
X14730000Y-29278531D01*
X14730000Y-27977333D01*
X14733677Y-27940000D01*
X14719003Y-27791014D01*
X14690909Y-27698397D01*
X18201208Y-27698397D01*
X18276514Y-27940000D01*
X18201208Y-28181603D01*
X19050000Y-29030395D01*
X19898792Y-28181603D01*
X19823486Y-27940000D01*
X19898792Y-27698397D01*
X20741208Y-27698397D01*
X20816514Y-27940000D01*
X20741208Y-28181603D01*
X21590000Y-29030395D01*
X22438792Y-28181603D01*
X22363486Y-27940000D01*
X22438792Y-27698397D01*
X21590000Y-26849605D01*
X20741208Y-27698397D01*
X19898792Y-27698397D01*
X19050000Y-26849605D01*
X18201208Y-27698397D01*
X14690909Y-27698397D01*
X14675546Y-27647753D01*
X14604974Y-27515724D01*
X14533799Y-27428997D01*
X14510001Y-27399999D01*
X14481004Y-27376202D01*
X13898803Y-26794002D01*
X13875001Y-26764999D01*
X13842750Y-26738531D01*
X17559389Y-26738531D01*
X17601401Y-27028019D01*
X17699081Y-27303747D01*
X17772528Y-27441157D01*
X18021603Y-27518792D01*
X18870395Y-26670000D01*
X19229605Y-26670000D01*
X20078397Y-27518792D01*
X20320000Y-27443486D01*
X20561603Y-27518792D01*
X21410395Y-26670000D01*
X21769605Y-26670000D01*
X22618397Y-27518792D01*
X22867472Y-27441157D01*
X22993371Y-27177117D01*
X23065339Y-26893589D01*
X23080611Y-26601469D01*
X23038599Y-26311981D01*
X22940919Y-26036253D01*
X22867472Y-25898843D01*
X22618397Y-25821208D01*
X21769605Y-26670000D01*
X21410395Y-26670000D01*
X20561603Y-25821208D01*
X20320000Y-25896514D01*
X20078397Y-25821208D01*
X19229605Y-26670000D01*
X18870395Y-26670000D01*
X18021603Y-25821208D01*
X17772528Y-25898843D01*
X17646629Y-26162883D01*
X17574661Y-26446411D01*
X17559389Y-26738531D01*
X13842750Y-26738531D01*
X13759276Y-26670026D01*
X13627247Y-26599454D01*
X13483986Y-26555997D01*
X13372333Y-26545000D01*
X13372322Y-26545000D01*
X13335000Y-26541324D01*
X13297678Y-26545000D01*
X6029802Y-26545000D01*
X5840000Y-26355199D01*
X5840000Y-23988665D01*
X11900000Y-23988665D01*
X11900000Y-24271335D01*
X11955147Y-24548574D01*
X12063320Y-24809727D01*
X12220363Y-25044759D01*
X12420241Y-25244637D01*
X12655273Y-25401680D01*
X12916426Y-25509853D01*
X13193665Y-25565000D01*
X13476335Y-25565000D01*
X13753574Y-25509853D01*
X14014727Y-25401680D01*
X14249759Y-25244637D01*
X14335999Y-25158397D01*
X18201208Y-25158397D01*
X18276514Y-25400000D01*
X18201208Y-25641603D01*
X19050000Y-26490395D01*
X19898792Y-25641603D01*
X19823486Y-25400000D01*
X19898792Y-25158397D01*
X20741208Y-25158397D01*
X20816514Y-25400000D01*
X20741208Y-25641603D01*
X21590000Y-26490395D01*
X22438792Y-25641603D01*
X22363486Y-25400000D01*
X22438792Y-25158397D01*
X21590000Y-24309605D01*
X20741208Y-25158397D01*
X19898792Y-25158397D01*
X19050000Y-24309605D01*
X18201208Y-25158397D01*
X14335999Y-25158397D01*
X14449637Y-25044759D01*
X14606680Y-24809727D01*
X14714853Y-24548574D01*
X14770000Y-24271335D01*
X14770000Y-24198531D01*
X17559389Y-24198531D01*
X17601401Y-24488019D01*
X17699081Y-24763747D01*
X17772528Y-24901157D01*
X18021603Y-24978792D01*
X18870395Y-24130000D01*
X19229605Y-24130000D01*
X20078397Y-24978792D01*
X20320000Y-24903486D01*
X20561603Y-24978792D01*
X21410395Y-24130000D01*
X21769605Y-24130000D01*
X22618397Y-24978792D01*
X22867472Y-24901157D01*
X22993371Y-24637117D01*
X23065339Y-24353589D01*
X23080611Y-24061469D01*
X23038599Y-23771981D01*
X22940919Y-23496253D01*
X22867472Y-23358843D01*
X22618397Y-23281208D01*
X21769605Y-24130000D01*
X21410395Y-24130000D01*
X20561603Y-23281208D01*
X20320000Y-23356514D01*
X20078397Y-23281208D01*
X19229605Y-24130000D01*
X18870395Y-24130000D01*
X18021603Y-23281208D01*
X17772528Y-23358843D01*
X17646629Y-23622883D01*
X17574661Y-23906411D01*
X17559389Y-24198531D01*
X14770000Y-24198531D01*
X14770000Y-23988665D01*
X14751285Y-23894582D01*
X16220868Y-22425000D01*
X17821935Y-22425000D01*
X17896525Y-22536632D01*
X18103368Y-22743475D01*
X18276729Y-22859311D01*
X18201208Y-23101603D01*
X19050000Y-23950395D01*
X19898792Y-23101603D01*
X19823271Y-22859311D01*
X19996632Y-22743475D01*
X20203475Y-22536632D01*
X20278065Y-22425000D01*
X20361935Y-22425000D01*
X20436525Y-22536632D01*
X20643368Y-22743475D01*
X20816729Y-22859311D01*
X20741208Y-23101603D01*
X21590000Y-23950395D01*
X22438792Y-23101603D01*
X22363271Y-22859311D01*
X22536632Y-22743475D01*
X22743475Y-22536632D01*
X22905990Y-22293411D01*
X23017932Y-22023158D01*
X23075000Y-21736260D01*
X23075000Y-21443740D01*
X23017932Y-21156842D01*
X22905990Y-20886589D01*
X22743475Y-20643368D01*
X22536632Y-20436525D01*
X22362240Y-20320000D01*
X22536632Y-20203475D01*
X22743475Y-19996632D01*
X22905990Y-19753411D01*
X23017932Y-19483158D01*
X23075000Y-19196260D01*
X23075000Y-18903740D01*
X23017932Y-18616842D01*
X22905990Y-18346589D01*
X22743475Y-18103368D01*
X22536632Y-17896525D01*
X22362240Y-17780000D01*
X22536632Y-17663475D01*
X22743475Y-17456632D01*
X22905990Y-17213411D01*
X23017932Y-16943158D01*
X23075000Y-16656260D01*
X23075000Y-16363740D01*
X23017932Y-16076842D01*
X22905990Y-15806589D01*
X22743475Y-15563368D01*
X22536632Y-15356525D01*
X22362240Y-15240000D01*
X22536632Y-15123475D01*
X22743475Y-14916632D01*
X22905990Y-14673411D01*
X23017932Y-14403158D01*
X23075000Y-14116260D01*
X23075000Y-13823740D01*
X23017932Y-13536842D01*
X22905990Y-13266589D01*
X22743475Y-13023368D01*
X22536632Y-12816525D01*
X22293411Y-12654010D01*
X22023158Y-12542068D01*
X21736260Y-12485000D01*
X21443740Y-12485000D01*
X21156842Y-12542068D01*
X20886589Y-12654010D01*
X20643368Y-12816525D01*
X20436525Y-13023368D01*
X20320000Y-13197760D01*
X20203475Y-13023368D01*
X19996632Y-12816525D01*
X19753411Y-12654010D01*
X19483158Y-12542068D01*
X19196260Y-12485000D01*
X18903740Y-12485000D01*
X18616842Y-12542068D01*
X18346589Y-12654010D01*
X18103368Y-12816525D01*
X17896525Y-13023368D01*
X17734010Y-13266589D01*
X17622068Y-13536842D01*
X17565000Y-13823740D01*
X17565000Y-14116260D01*
X17622068Y-14403158D01*
X17734010Y-14673411D01*
X17896525Y-14916632D01*
X18103368Y-15123475D01*
X18277760Y-15240000D01*
X18103368Y-15356525D01*
X17896525Y-15563368D01*
X17734010Y-15806589D01*
X17622068Y-16076842D01*
X17565000Y-16363740D01*
X17565000Y-16656260D01*
X17622068Y-16943158D01*
X17734010Y-17213411D01*
X17896525Y-17456632D01*
X18103368Y-17663475D01*
X18277760Y-17780000D01*
X18103368Y-17896525D01*
X17896525Y-18103368D01*
X17734010Y-18346589D01*
X17622068Y-18616842D01*
X17565000Y-18903740D01*
X17565000Y-19196260D01*
X17622068Y-19483158D01*
X17734010Y-19753411D01*
X17896525Y-19996632D01*
X18103368Y-20203475D01*
X18277760Y-20320000D01*
X18103368Y-20436525D01*
X17896525Y-20643368D01*
X17821935Y-20755000D01*
X15916007Y-20755000D01*
X15874999Y-20750961D01*
X15833991Y-20755000D01*
X15833981Y-20755000D01*
X15711311Y-20767082D01*
X15553913Y-20814828D01*
X15408854Y-20892364D01*
X15281709Y-20996709D01*
X15255559Y-21028573D01*
X13570418Y-22713715D01*
X13476335Y-22695000D01*
X13193665Y-22695000D01*
X12916426Y-22750147D01*
X12655273Y-22858320D01*
X12420241Y-23015363D01*
X12220363Y-23215241D01*
X12063320Y-23450273D01*
X11955147Y-23711426D01*
X11900000Y-23988665D01*
X5840000Y-23988665D01*
X5840000Y-22054117D01*
X7790000Y-22054117D01*
X7790000Y-22395883D01*
X7856675Y-22731081D01*
X7987463Y-23046831D01*
X8177337Y-23330998D01*
X8419002Y-23572663D01*
X8703169Y-23762537D01*
X9018919Y-23893325D01*
X9354117Y-23960000D01*
X9695883Y-23960000D01*
X10031081Y-23893325D01*
X10346831Y-23762537D01*
X10630998Y-23572663D01*
X10872663Y-23330998D01*
X11062537Y-23046831D01*
X11193325Y-22731081D01*
X11260000Y-22395883D01*
X11260000Y-22054117D01*
X11193325Y-21718919D01*
X11062537Y-21403169D01*
X10896716Y-21155000D01*
X12658982Y-21155000D01*
X12700000Y-21159040D01*
X12741018Y-21155000D01*
X12741019Y-21155000D01*
X12863689Y-21142918D01*
X13021087Y-21095172D01*
X13166146Y-21017636D01*
X13293291Y-20913291D01*
X13319445Y-20881422D01*
X13896432Y-20304436D01*
X13928291Y-20278291D01*
X14032636Y-20151146D01*
X14110172Y-20006087D01*
X14157918Y-19848689D01*
X14170000Y-19726019D01*
X14170000Y-19726018D01*
X14174040Y-19685000D01*
X14170000Y-19643982D01*
X14170000Y-17677930D01*
X14249759Y-17624637D01*
X14449637Y-17424759D01*
X14606680Y-17189727D01*
X14714853Y-16928574D01*
X14770000Y-16651335D01*
X14770000Y-16368665D01*
X14714853Y-16091426D01*
X14606680Y-15830273D01*
X14449637Y-15595241D01*
X14249759Y-15395363D01*
X14014727Y-15238320D01*
X13753574Y-15130147D01*
X13476335Y-15075000D01*
X13193665Y-15075000D01*
X12916426Y-15130147D01*
X12655273Y-15238320D01*
X12420241Y-15395363D01*
X12220363Y-15595241D01*
X12063320Y-15830273D01*
X11955147Y-16091426D01*
X11900000Y-16368665D01*
X11900000Y-16651335D01*
X11955147Y-16928574D01*
X12063320Y-17189727D01*
X12220363Y-17424759D01*
X12420241Y-17624637D01*
X12500001Y-17677931D01*
X12500000Y-19339132D01*
X12354132Y-19485000D01*
X10201018Y-19485000D01*
X10160000Y-19480960D01*
X10118982Y-19485000D01*
X10118981Y-19485000D01*
X9996311Y-19497082D01*
X9838913Y-19544828D01*
X9693854Y-19622364D01*
X9617532Y-19685000D01*
X9566709Y-19726709D01*
X9540562Y-19758569D01*
X8963573Y-20335559D01*
X8931710Y-20361709D01*
X8905562Y-20393571D01*
X8827364Y-20488855D01*
X8749828Y-20633914D01*
X8737955Y-20673054D01*
X8703169Y-20687463D01*
X8419002Y-20877337D01*
X8177337Y-21119002D01*
X7987463Y-21403169D01*
X7856675Y-21718919D01*
X7790000Y-22054117D01*
X5840000Y-22054117D01*
X5840000Y-21338313D01*
X6058505Y-21192312D01*
X6272312Y-20978505D01*
X6440299Y-20727095D01*
X6556011Y-20447743D01*
X6615000Y-20151184D01*
X6615000Y-19848816D01*
X6556011Y-19552257D01*
X6440299Y-19272905D01*
X6272312Y-19021495D01*
X6058505Y-18807688D01*
X5972169Y-18750000D01*
X6058505Y-18692312D01*
X6272312Y-18478505D01*
X6440299Y-18227095D01*
X6556011Y-17947743D01*
X6615000Y-17651184D01*
X6615000Y-17348816D01*
X6556011Y-17052257D01*
X6440299Y-16772905D01*
X6272312Y-16521495D01*
X6058505Y-16307688D01*
X5972169Y-16250000D01*
X6058505Y-16192312D01*
X6272312Y-15978505D01*
X6440299Y-15727095D01*
X6556011Y-15447743D01*
X6615000Y-15151184D01*
X6615000Y-14848816D01*
X6556011Y-14552257D01*
X6440299Y-14272905D01*
X6272312Y-14021495D01*
X6058505Y-13807688D01*
X5807095Y-13639701D01*
X5527743Y-13523989D01*
X5231184Y-13465000D01*
X4928816Y-13465000D01*
X4632257Y-13523989D01*
X4352905Y-13639701D01*
X4101495Y-13807688D01*
X3887688Y-14021495D01*
X3719701Y-14272905D01*
X3603989Y-14552257D01*
X3545000Y-14848816D01*
X3545000Y-15151184D01*
X3603989Y-15447743D01*
X3719701Y-15727095D01*
X3887688Y-15978505D01*
X4101495Y-16192312D01*
X4187831Y-16250000D01*
X4101495Y-16307688D01*
X3887688Y-16521495D01*
X3719701Y-16772905D01*
X3603989Y-17052257D01*
X3545000Y-17348816D01*
X3545000Y-17651184D01*
X3603989Y-17947743D01*
X3719701Y-18227095D01*
X3887688Y-18478505D01*
X4101495Y-18692312D01*
X4187831Y-18750000D01*
X4101495Y-18807688D01*
X3887688Y-19021495D01*
X3719701Y-19272905D01*
X3603989Y-19552257D01*
X3545000Y-19848816D01*
X3545000Y-20151184D01*
X3603989Y-20447743D01*
X3719701Y-20727095D01*
X3887688Y-20978505D01*
X4101495Y-21192312D01*
X4320000Y-21338313D01*
X4320001Y-26632668D01*
X4316324Y-26670000D01*
X4330998Y-26818985D01*
X4374454Y-26962246D01*
X4445026Y-27094276D01*
X4512361Y-27176323D01*
X4540000Y-27210001D01*
X4568998Y-27233799D01*
X5151200Y-27816002D01*
X5174999Y-27845001D01*
X5281651Y-27932528D01*
X5290724Y-27939974D01*
X5422753Y-28010546D01*
X5566014Y-28054003D01*
X5715000Y-28068677D01*
X5752333Y-28065000D01*
X13020199Y-28065000D01*
X13210000Y-28254802D01*
X13210001Y-45682667D01*
X13206324Y-45720000D01*
X13210001Y-45757333D01*
X13220998Y-45868986D01*
X13223217Y-45876300D01*
X13264454Y-46012246D01*
X13335026Y-46144276D01*
X13361803Y-46176903D01*
X13430000Y-46260001D01*
X13458998Y-46283799D01*
X14040199Y-46865000D01*
X11109802Y-46865000D01*
X10920000Y-46675199D01*
X10920000Y-43128043D01*
X11074759Y-43024637D01*
X11274637Y-42824759D01*
X11431680Y-42589727D01*
X11539853Y-42328574D01*
X11595000Y-42051335D01*
X11595000Y-41768665D01*
X11539853Y-41491426D01*
X11431680Y-41230273D01*
X11274637Y-40995241D01*
X11074759Y-40795363D01*
X10839727Y-40638320D01*
X10578574Y-40530147D01*
X10301335Y-40475000D01*
X10018665Y-40475000D01*
X9741426Y-40530147D01*
X9480273Y-40638320D01*
X9245241Y-40795363D01*
X9045363Y-40995241D01*
X8888320Y-41230273D01*
X8780147Y-41491426D01*
X8725000Y-41768665D01*
X8725000Y-42051335D01*
X8780147Y-42328574D01*
X8888320Y-42589727D01*
X9045363Y-42824759D01*
X9245241Y-43024637D01*
X9400001Y-43128044D01*
X9400000Y-46952677D01*
X9396324Y-46990000D01*
X9400000Y-47027322D01*
X9400000Y-47027332D01*
X9410997Y-47138985D01*
X9454454Y-47282246D01*
X9525026Y-47414276D01*
X9564871Y-47462826D01*
X9619999Y-47530001D01*
X9649002Y-47553803D01*
X10230198Y-48135000D01*
X8569802Y-48135000D01*
X8537099Y-48102297D01*
X8734637Y-47904759D01*
X8891680Y-47669727D01*
X8999853Y-47408574D01*
X9055000Y-47131335D01*
X9055000Y-46848665D01*
X8999853Y-46571426D01*
X8891680Y-46310273D01*
X8734637Y-46075241D01*
X8534759Y-45875363D01*
X8302241Y-45720000D01*
X8534759Y-45564637D01*
X8734637Y-45364759D01*
X8891680Y-45129727D01*
X8999853Y-44868574D01*
X9055000Y-44591335D01*
X9055000Y-44308665D01*
X8999853Y-44031426D01*
X8891680Y-43770273D01*
X8734637Y-43535241D01*
X8534759Y-43335363D01*
X8299727Y-43178320D01*
X8038574Y-43070147D01*
X7761335Y-43015000D01*
X7478665Y-43015000D01*
X7201426Y-43070147D01*
X6940273Y-43178320D01*
X6705241Y-43335363D01*
X6505363Y-43535241D01*
X6348320Y-43770273D01*
X6240147Y-44031426D01*
X6185000Y-44308665D01*
X6185000Y-44591335D01*
X6240147Y-44868574D01*
X6348320Y-45129727D01*
X6505363Y-45364759D01*
X6705241Y-45564637D01*
X6937759Y-45720000D01*
X6705241Y-45875363D01*
X6505363Y-46075241D01*
X6348320Y-46310273D01*
X6240147Y-46571426D01*
X6185000Y-46848665D01*
X6185000Y-47131335D01*
X6240147Y-47408574D01*
X6348320Y-47669727D01*
X6505363Y-47904759D01*
X6702901Y-48102297D01*
X6670199Y-48135000D01*
X6387322Y-48135000D01*
X6349999Y-48131324D01*
X6312676Y-48135000D01*
X6312667Y-48135000D01*
X6201014Y-48145997D01*
X6057753Y-48189454D01*
X5925724Y-48260026D01*
X5809999Y-48354999D01*
X5786201Y-48383997D01*
X4568998Y-49601201D01*
X4540000Y-49624999D01*
X4516202Y-49653997D01*
X4516201Y-49653998D01*
X4445026Y-49740724D01*
X4401451Y-49822246D01*
X4374454Y-49872753D01*
X4330997Y-50016014D01*
X4320000Y-50127667D01*
X4320000Y-50127678D01*
X4316324Y-50165000D01*
X4320000Y-50202322D01*
X4320000Y-50837332D01*
X4320001Y-50837342D01*
X4320000Y-52989099D01*
X4278900Y-53011068D01*
X4060393Y-53190392D01*
X3881068Y-53408899D01*
X3812735Y-53536741D01*
X3662601Y-53307161D01*
X3464895Y-53105500D01*
X3231646Y-52946285D01*
X2971818Y-52835633D01*
X2889039Y-52818096D01*
X2667000Y-52940085D01*
X2667000Y-54483000D01*
X2687000Y-54483000D01*
X2687000Y-54737000D01*
X2667000Y-54737000D01*
X2667000Y-56279915D01*
X2889039Y-56401904D01*
X2971818Y-56384367D01*
X3231646Y-56273715D01*
X3464895Y-56114500D01*
X3662601Y-55912839D01*
X3812735Y-55683258D01*
X3881068Y-55811100D01*
X4060392Y-56029607D01*
X4278899Y-56208932D01*
X4528192Y-56342182D01*
X4798691Y-56424236D01*
X5080000Y-56451943D01*
X5361308Y-56424236D01*
X5631807Y-56342182D01*
X5881100Y-56208932D01*
X6099607Y-56029608D01*
X6278932Y-55811101D01*
X6350000Y-55678142D01*
X6421068Y-55811100D01*
X6600392Y-56029607D01*
X6818899Y-56208932D01*
X6860000Y-56230901D01*
X6860000Y-57470198D01*
X6670199Y-57660000D01*
X3212333Y-57660000D01*
X3175000Y-57656323D01*
X3137667Y-57660000D01*
X3026014Y-57670997D01*
X2882753Y-57714454D01*
X2750724Y-57785026D01*
X2634999Y-57879999D01*
X2611200Y-57908998D01*
X2028998Y-58491201D01*
X2000000Y-58514999D01*
X1976202Y-58543997D01*
X1976201Y-58543998D01*
X1905026Y-58630724D01*
X1834454Y-58762754D01*
X1790998Y-58906015D01*
X1776324Y-59055000D01*
X1780001Y-59092332D01*
X1780001Y-60609099D01*
X1738900Y-60631068D01*
X1520393Y-60810392D01*
X1341068Y-61028899D01*
X1207818Y-61278192D01*
X1125764Y-61548691D01*
X1105000Y-61759508D01*
X1105000Y-62700491D01*
X1125764Y-62911308D01*
X1207818Y-63181807D01*
X1341068Y-63431100D01*
X1520392Y-63649607D01*
X1738899Y-63828932D01*
X1988192Y-63962182D01*
X2258691Y-64044236D01*
X2540000Y-64071943D01*
X2821308Y-64044236D01*
X3091807Y-63962182D01*
X3341100Y-63828932D01*
X3559607Y-63649608D01*
X3738932Y-63431101D01*
X3810000Y-63298142D01*
X3881068Y-63431100D01*
X4060392Y-63649607D01*
X4278899Y-63828932D01*
X4320000Y-63850901D01*
X4320001Y-77155196D01*
X2029003Y-79446196D01*
X1999999Y-79469999D01*
X1944871Y-79537174D01*
X1905026Y-79585724D01*
X1834455Y-79717753D01*
X1834454Y-79717754D01*
X1790997Y-79861015D01*
X1780000Y-79972668D01*
X1780000Y-79972678D01*
X1776324Y-80010000D01*
X1780000Y-80047323D01*
X1780001Y-85052668D01*
X1776324Y-85090000D01*
X1790998Y-85238985D01*
X1834454Y-85382246D01*
X1905026Y-85514276D01*
X1976201Y-85601002D01*
X2000000Y-85630001D01*
X2028998Y-85653799D01*
X2038878Y-85663679D01*
X1827000Y-85780085D01*
X1827000Y-87873000D01*
X3135000Y-87873000D01*
X3135000Y-86923000D01*
X3097057Y-86721858D01*
X3685000Y-87309802D01*
X3685001Y-89220197D01*
X2029003Y-90876196D01*
X1999999Y-90899999D01*
X1944871Y-90967174D01*
X1905026Y-91015724D01*
X1842472Y-91132754D01*
X1834454Y-91147754D01*
X1790997Y-91291015D01*
X1780000Y-91402668D01*
X1780000Y-91402678D01*
X1776324Y-91440000D01*
X1780000Y-91477323D01*
X1780001Y-97117668D01*
X1776324Y-97155000D01*
X1790998Y-97303985D01*
X1834454Y-97447246D01*
X1905026Y-97579276D01*
X1969713Y-97658096D01*
X1994365Y-97688134D01*
X1827000Y-97780085D01*
X1827000Y-99873000D01*
X1847000Y-99873000D01*
X1847000Y-100127000D01*
X1827000Y-100127000D01*
X1827000Y-102219915D01*
X2010975Y-102320991D01*
X1999999Y-102329999D01*
X1944871Y-102397174D01*
X1905026Y-102445724D01*
X1861451Y-102527247D01*
X1834454Y-102577754D01*
X1790997Y-102721015D01*
X1780000Y-102832668D01*
X1780000Y-102832678D01*
X1776324Y-102870000D01*
X1780000Y-102907323D01*
X1780001Y-107912668D01*
X1776324Y-107950000D01*
X1790998Y-108098985D01*
X1834454Y-108242246D01*
X1905026Y-108374276D01*
X1970602Y-108454180D01*
X2000000Y-108490001D01*
X2028998Y-108513799D01*
X2611200Y-109096002D01*
X2634999Y-109125001D01*
X2663997Y-109148799D01*
X2750724Y-109219974D01*
X2882753Y-109290546D01*
X3026014Y-109334003D01*
X3086902Y-109340000D01*
X660000Y-109340000D01*
X660000Y-101937092D01*
X775105Y-102054500D01*
X1008354Y-102213715D01*
X1268182Y-102324367D01*
X1350961Y-102341904D01*
X1573000Y-102219915D01*
X1573000Y-100127000D01*
X1553000Y-100127000D01*
X1553000Y-99873000D01*
X1573000Y-99873000D01*
X1573000Y-97780085D01*
X1350961Y-97658096D01*
X1268182Y-97675633D01*
X1008354Y-97786285D01*
X775105Y-97945500D01*
X660000Y-98062908D01*
X660000Y-89937092D01*
X775105Y-90054500D01*
X1008354Y-90213715D01*
X1268182Y-90324367D01*
X1350961Y-90341904D01*
X1573000Y-90219915D01*
X1573000Y-88127000D01*
X1827000Y-88127000D01*
X1827000Y-90219915D01*
X2049039Y-90341904D01*
X2131818Y-90324367D01*
X2391646Y-90213715D01*
X2624895Y-90054500D01*
X2822601Y-89852839D01*
X2977166Y-89616483D01*
X3082650Y-89354514D01*
X3135000Y-89077000D01*
X3135000Y-88127000D01*
X1827000Y-88127000D01*
X1573000Y-88127000D01*
X1553000Y-88127000D01*
X1553000Y-87873000D01*
X1573000Y-87873000D01*
X1573000Y-85780085D01*
X1350961Y-85658096D01*
X1268182Y-85675633D01*
X1008354Y-85786285D01*
X775105Y-85945500D01*
X660000Y-86062908D01*
X660000Y-77937092D01*
X775105Y-78054500D01*
X1008354Y-78213715D01*
X1268182Y-78324367D01*
X1350961Y-78341904D01*
X1573000Y-78219915D01*
X1573000Y-76127000D01*
X1827000Y-76127000D01*
X1827000Y-78219915D01*
X2049039Y-78341904D01*
X2131818Y-78324367D01*
X2391646Y-78213715D01*
X2624895Y-78054500D01*
X2822601Y-77852839D01*
X2977166Y-77616483D01*
X3082650Y-77354514D01*
X3135000Y-77077000D01*
X3135000Y-76127000D01*
X1827000Y-76127000D01*
X1573000Y-76127000D01*
X1553000Y-76127000D01*
X1553000Y-75873000D01*
X1573000Y-75873000D01*
X1573000Y-73780085D01*
X1827000Y-73780085D01*
X1827000Y-75873000D01*
X3135000Y-75873000D01*
X3135000Y-74923000D01*
X3082650Y-74645486D01*
X2977166Y-74383517D01*
X2822601Y-74147161D01*
X2624895Y-73945500D01*
X2391646Y-73786285D01*
X2131818Y-73675633D01*
X2049039Y-73658096D01*
X1827000Y-73780085D01*
X1573000Y-73780085D01*
X1350961Y-73658096D01*
X1268182Y-73675633D01*
X1008354Y-73786285D01*
X775105Y-73945500D01*
X660000Y-74062908D01*
X660000Y-54737000D01*
X1105000Y-54737000D01*
X1105000Y-55137000D01*
X1157350Y-55414514D01*
X1262834Y-55676483D01*
X1417399Y-55912839D01*
X1615105Y-56114500D01*
X1848354Y-56273715D01*
X2108182Y-56384367D01*
X2190961Y-56401904D01*
X2413000Y-56279915D01*
X2413000Y-54737000D01*
X1105000Y-54737000D01*
X660000Y-54737000D01*
X660000Y-54083000D01*
X1105000Y-54083000D01*
X1105000Y-54483000D01*
X2413000Y-54483000D01*
X2413000Y-52940085D01*
X2190961Y-52818096D01*
X2108182Y-52835633D01*
X1848354Y-52946285D01*
X1615105Y-53105500D01*
X1417399Y-53307161D01*
X1262834Y-53543517D01*
X1157350Y-53805486D01*
X1105000Y-54083000D01*
X660000Y-54083000D01*
X660000Y-47982702D01*
X1806903Y-47982702D01*
X1878486Y-48226671D01*
X2133996Y-48347571D01*
X2408184Y-48416300D01*
X2690512Y-48430217D01*
X2970130Y-48388787D01*
X3236292Y-48293603D01*
X3361514Y-48226671D01*
X3433097Y-47982702D01*
X2620000Y-47169605D01*
X1806903Y-47982702D01*
X660000Y-47982702D01*
X660000Y-47060512D01*
X1179783Y-47060512D01*
X1221213Y-47340130D01*
X1316397Y-47606292D01*
X1383329Y-47731514D01*
X1627298Y-47803097D01*
X2440395Y-46990000D01*
X2799605Y-46990000D01*
X3612702Y-47803097D01*
X3856671Y-47731514D01*
X3977571Y-47476004D01*
X4046300Y-47201816D01*
X4060217Y-46919488D01*
X4018787Y-46639870D01*
X3923603Y-46373708D01*
X3856671Y-46248486D01*
X3612702Y-46176903D01*
X2799605Y-46990000D01*
X2440395Y-46990000D01*
X1627298Y-46176903D01*
X1383329Y-46248486D01*
X1262429Y-46503996D01*
X1193700Y-46778184D01*
X1179783Y-47060512D01*
X660000Y-47060512D01*
X660000Y-45442702D01*
X1806903Y-45442702D01*
X1878486Y-45686671D01*
X1944636Y-45717971D01*
X1878486Y-45753329D01*
X1806903Y-45997298D01*
X2620000Y-46810395D01*
X3433097Y-45997298D01*
X3361514Y-45753329D01*
X3295364Y-45722029D01*
X3361514Y-45686671D01*
X3433097Y-45442702D01*
X2620000Y-44629605D01*
X1806903Y-45442702D01*
X660000Y-45442702D01*
X660000Y-44520512D01*
X1179783Y-44520512D01*
X1221213Y-44800130D01*
X1316397Y-45066292D01*
X1383329Y-45191514D01*
X1627298Y-45263097D01*
X2440395Y-44450000D01*
X2799605Y-44450000D01*
X3612702Y-45263097D01*
X3856671Y-45191514D01*
X3977571Y-44936004D01*
X4046300Y-44661816D01*
X4060217Y-44379488D01*
X4018787Y-44099870D01*
X3923603Y-43833708D01*
X3856671Y-43708486D01*
X3612702Y-43636903D01*
X2799605Y-44450000D01*
X2440395Y-44450000D01*
X1627298Y-43636903D01*
X1383329Y-43708486D01*
X1262429Y-43963996D01*
X1193700Y-44238184D01*
X1179783Y-44520512D01*
X660000Y-44520512D01*
X660000Y-43457298D01*
X1806903Y-43457298D01*
X2620000Y-44270395D01*
X3433097Y-43457298D01*
X3361514Y-43213329D01*
X3106004Y-43092429D01*
X2831816Y-43023700D01*
X2549488Y-43009783D01*
X2269870Y-43051213D01*
X2003708Y-43146397D01*
X1878486Y-43213329D01*
X1806903Y-43457298D01*
X660000Y-43457298D01*
X660000Y-35408816D01*
X3545000Y-35408816D01*
X3545000Y-35711184D01*
X3603989Y-36007743D01*
X3719701Y-36287095D01*
X3887688Y-36538505D01*
X4101495Y-36752312D01*
X4187831Y-36810000D01*
X4101495Y-36867688D01*
X3887688Y-37081495D01*
X3719701Y-37332905D01*
X3603989Y-37612257D01*
X3545000Y-37908816D01*
X3545000Y-38211184D01*
X3603989Y-38507743D01*
X3719701Y-38787095D01*
X3887688Y-39038505D01*
X4101495Y-39252312D01*
X4187831Y-39310000D01*
X4101495Y-39367688D01*
X3887688Y-39581495D01*
X3719701Y-39832905D01*
X3603989Y-40112257D01*
X3545000Y-40408816D01*
X3545000Y-40711184D01*
X3603989Y-41007743D01*
X3719701Y-41287095D01*
X3887688Y-41538505D01*
X4101495Y-41752312D01*
X4352905Y-41920299D01*
X4632257Y-42036011D01*
X4928816Y-42095000D01*
X5231184Y-42095000D01*
X5527743Y-42036011D01*
X5807095Y-41920299D01*
X6058505Y-41752312D01*
X6272312Y-41538505D01*
X6440299Y-41287095D01*
X6556011Y-41007743D01*
X6615000Y-40711184D01*
X6615000Y-40408816D01*
X6556011Y-40112257D01*
X6440299Y-39832905D01*
X6272312Y-39581495D01*
X6058505Y-39367688D01*
X5972169Y-39310000D01*
X6058505Y-39252312D01*
X6272312Y-39038505D01*
X6418313Y-38820000D01*
X8257678Y-38820000D01*
X8295000Y-38823676D01*
X8332322Y-38820000D01*
X8332333Y-38820000D01*
X8443986Y-38809003D01*
X8587247Y-38765546D01*
X8719276Y-38694974D01*
X8835001Y-38600001D01*
X8858804Y-38570997D01*
X10671004Y-36758798D01*
X10700001Y-36735001D01*
X10794974Y-36619276D01*
X10865546Y-36487247D01*
X10909003Y-36343986D01*
X10920000Y-36232333D01*
X10920000Y-36232324D01*
X10923676Y-36195001D01*
X10920000Y-36157678D01*
X10920000Y-35508043D01*
X11074759Y-35404637D01*
X11274637Y-35204759D01*
X11431680Y-34969727D01*
X11539853Y-34708574D01*
X11595000Y-34431335D01*
X11595000Y-34148665D01*
X11539853Y-33871426D01*
X11431680Y-33610273D01*
X11274637Y-33375241D01*
X11074759Y-33175363D01*
X10839727Y-33018320D01*
X10578574Y-32910147D01*
X10301335Y-32855000D01*
X10018665Y-32855000D01*
X9741426Y-32910147D01*
X9480273Y-33018320D01*
X9245241Y-33175363D01*
X9045363Y-33375241D01*
X8888320Y-33610273D01*
X8780147Y-33871426D01*
X8725000Y-34148665D01*
X8725000Y-34431335D01*
X8780147Y-34708574D01*
X8888320Y-34969727D01*
X9045363Y-35204759D01*
X9245241Y-35404637D01*
X9400000Y-35508044D01*
X9400000Y-35880198D01*
X7980199Y-37300000D01*
X6418313Y-37300000D01*
X6272312Y-37081495D01*
X6058505Y-36867688D01*
X5972169Y-36810000D01*
X6058505Y-36752312D01*
X6272312Y-36538505D01*
X6440299Y-36287095D01*
X6556011Y-36007743D01*
X6615000Y-35711184D01*
X6615000Y-35408816D01*
X6556011Y-35112257D01*
X6440299Y-34832905D01*
X6272312Y-34581495D01*
X6058505Y-34367688D01*
X5807095Y-34199701D01*
X5527743Y-34083989D01*
X5231184Y-34025000D01*
X4928816Y-34025000D01*
X4632257Y-34083989D01*
X4352905Y-34199701D01*
X4101495Y-34367688D01*
X3887688Y-34581495D01*
X3719701Y-34832905D01*
X3603989Y-35112257D01*
X3545000Y-35408816D01*
X660000Y-35408816D01*
X660000Y-6870000D01*
X1836928Y-6870000D01*
X1836928Y-8370000D01*
X1849188Y-8494482D01*
X1885498Y-8614180D01*
X1944463Y-8724494D01*
X2023815Y-8821185D01*
X2120506Y-8900537D01*
X2230820Y-8959502D01*
X2350518Y-8995812D01*
X2475000Y-9008072D01*
X3525000Y-9008072D01*
X3649482Y-8995812D01*
X3769180Y-8959502D01*
X3834057Y-8924824D01*
X3902663Y-8955272D01*
X3964190Y-8963964D01*
X4143000Y-8838163D01*
X4143000Y-8520235D01*
X4150812Y-8494482D01*
X4163072Y-8370000D01*
X4163072Y-7338022D01*
X4380000Y-7338022D01*
X4380000Y-7901979D01*
X4396785Y-8072400D01*
X4397000Y-8073109D01*
X4397000Y-8838163D01*
X4575810Y-8963964D01*
X4637337Y-8955272D01*
X4846882Y-8862275D01*
X4905331Y-8821071D01*
X5093941Y-8921885D01*
X5312601Y-8988215D01*
X5540000Y-9010612D01*
X5767400Y-8988215D01*
X5986060Y-8921885D01*
X6187579Y-8814171D01*
X6364212Y-8669212D01*
X6509171Y-8492579D01*
X6529257Y-8455000D01*
X9995375Y-8455000D01*
X10004188Y-8544482D01*
X10040498Y-8664180D01*
X10099463Y-8774494D01*
X10178815Y-8871185D01*
X10227770Y-8911361D01*
X8963574Y-10175559D01*
X8931710Y-10201709D01*
X8905562Y-10233571D01*
X8828945Y-10326928D01*
X8425000Y-10326928D01*
X8300518Y-10339188D01*
X8180820Y-10375498D01*
X8070506Y-10434463D01*
X7973815Y-10513815D01*
X7894463Y-10610506D01*
X7835498Y-10720820D01*
X7799188Y-10840518D01*
X7786928Y-10965000D01*
X7786928Y-13165000D01*
X7799188Y-13289482D01*
X7835498Y-13409180D01*
X7894463Y-13519494D01*
X7973815Y-13616185D01*
X8070506Y-13695537D01*
X8180820Y-13754502D01*
X8300518Y-13790812D01*
X8425000Y-13803072D01*
X10625000Y-13803072D01*
X10749482Y-13790812D01*
X10869180Y-13754502D01*
X10979494Y-13695537D01*
X11076185Y-13616185D01*
X11155537Y-13519494D01*
X11214502Y-13409180D01*
X11250812Y-13289482D01*
X11263072Y-13165000D01*
X11263072Y-10965000D01*
X11250812Y-10840518D01*
X11214502Y-10720820D01*
X11155537Y-10610506D01*
X11076185Y-10513815D01*
X11027230Y-10473638D01*
X11991433Y-9509436D01*
X12023291Y-9483291D01*
X12127636Y-9356146D01*
X12205172Y-9211087D01*
X12252253Y-9055880D01*
X12354482Y-9045812D01*
X12474180Y-9009502D01*
X12584494Y-8950537D01*
X12681185Y-8871185D01*
X12760537Y-8774494D01*
X12819502Y-8664180D01*
X12855812Y-8544482D01*
X12868072Y-8420000D01*
X12868072Y-6820000D01*
X12855812Y-6695518D01*
X12819502Y-6575820D01*
X12760537Y-6465506D01*
X12681185Y-6368815D01*
X12668242Y-6358193D01*
X12787571Y-6106004D01*
X12856300Y-5831816D01*
X12870217Y-5549488D01*
X12828787Y-5269870D01*
X12733603Y-5003708D01*
X12666671Y-4878486D01*
X12422702Y-4806903D01*
X11609605Y-5620000D01*
X11623748Y-5634143D01*
X11444143Y-5813748D01*
X11430000Y-5799605D01*
X11415858Y-5813748D01*
X11236253Y-5634143D01*
X11250395Y-5620000D01*
X10437298Y-4806903D01*
X10193329Y-4878486D01*
X10072429Y-5133996D01*
X10003700Y-5408184D01*
X9989783Y-5690512D01*
X10031213Y-5970130D01*
X10126397Y-6236292D01*
X10191616Y-6358309D01*
X10178815Y-6368815D01*
X10099463Y-6465506D01*
X10040498Y-6575820D01*
X10004188Y-6695518D01*
X9995375Y-6785000D01*
X6529257Y-6785000D01*
X6509171Y-6747421D01*
X6364212Y-6570788D01*
X6187578Y-6425829D01*
X5986059Y-6318115D01*
X5767399Y-6251785D01*
X5540000Y-6229388D01*
X5312600Y-6251785D01*
X5093940Y-6318115D01*
X4905331Y-6418929D01*
X4846882Y-6377725D01*
X4637337Y-6284728D01*
X4575810Y-6276036D01*
X4397000Y-6401837D01*
X4397000Y-7166892D01*
X4396785Y-7167601D01*
X4380000Y-7338022D01*
X4163072Y-7338022D01*
X4163072Y-6870000D01*
X4150812Y-6745518D01*
X4143000Y-6719765D01*
X4143000Y-6401837D01*
X3964190Y-6276036D01*
X3902663Y-6284728D01*
X3834057Y-6315176D01*
X3769180Y-6280498D01*
X3649482Y-6244188D01*
X3525000Y-6231928D01*
X2475000Y-6231928D01*
X2350518Y-6244188D01*
X2230820Y-6280498D01*
X2120506Y-6339463D01*
X2023815Y-6418815D01*
X1944463Y-6515506D01*
X1885498Y-6625820D01*
X1849188Y-6745518D01*
X1836928Y-6870000D01*
X660000Y-6870000D01*
X660000Y-4627298D01*
X10616903Y-4627298D01*
X11430000Y-5440395D01*
X12243097Y-4627298D01*
X12171514Y-4383329D01*
X11916004Y-4262429D01*
X11641816Y-4193700D01*
X11359488Y-4179783D01*
X11079870Y-4221213D01*
X10813708Y-4316397D01*
X10688486Y-4383329D01*
X10616903Y-4627298D01*
X660000Y-4627298D01*
X660000Y-660000D01*
X25340000Y-660000D01*
X25340001Y-109340000D01*
G37*
G04 #@! TD.AperFunction*
D25*
X8130000Y-86264906D02*
X8019607Y-86130392D01*
X7801100Y-85951068D01*
X7551807Y-85817818D01*
X7281308Y-85735764D01*
X7000000Y-85708057D01*
X6718691Y-85735764D01*
X6448192Y-85817818D01*
X6198899Y-85951068D01*
X5980392Y-86130393D01*
X5801068Y-86348900D01*
X5667818Y-86598193D01*
X5585764Y-86868692D01*
X5565000Y-87079509D01*
X5565001Y-89120492D01*
X5585765Y-89331309D01*
X5667819Y-89601808D01*
X5801069Y-89851101D01*
X5980393Y-90069608D01*
X6198900Y-90248932D01*
X6240001Y-90270901D01*
X6240001Y-91110197D01*
X6035199Y-91315000D01*
X5117333Y-91315000D01*
X5080000Y-91311323D01*
X5042667Y-91315000D01*
X4931014Y-91325997D01*
X4787753Y-91369454D01*
X4655724Y-91440026D01*
X4539999Y-91534999D01*
X4516200Y-91563998D01*
X3933998Y-92146201D01*
X3905000Y-92169999D01*
X3881202Y-92198997D01*
X3881201Y-92198998D01*
X3810026Y-92285724D01*
X3739454Y-92417754D01*
X3695998Y-92561015D01*
X3681324Y-92710000D01*
X3685001Y-92747332D01*
X3685001Y-92761956D01*
X3530241Y-92865363D01*
X3330363Y-93065241D01*
X3300000Y-93110683D01*
X3300000Y-91754801D01*
X4956003Y-90098799D01*
X4985001Y-90075001D01*
X5079974Y-89959276D01*
X5150546Y-89827247D01*
X5194003Y-89683986D01*
X5205000Y-89572333D01*
X5205000Y-89572323D01*
X5208676Y-89535000D01*
X5205000Y-89497677D01*
X5205000Y-87032323D01*
X5208676Y-86995000D01*
X5205000Y-86957677D01*
X5205000Y-86957667D01*
X5194003Y-86846014D01*
X5150546Y-86702753D01*
X5079974Y-86570724D01*
X4985001Y-86454999D01*
X4956004Y-86431202D01*
X3300000Y-84775199D01*
X3300000Y-82784317D01*
X3330363Y-82829759D01*
X3530241Y-83029637D01*
X3765273Y-83186680D01*
X4026426Y-83294853D01*
X4303665Y-83350000D01*
X4586335Y-83350000D01*
X4863574Y-83294853D01*
X5124727Y-83186680D01*
X5359759Y-83029637D01*
X5559637Y-82829759D01*
X5716680Y-82594727D01*
X5824853Y-82333574D01*
X5880000Y-82056335D01*
X5880000Y-81773665D01*
X5824853Y-81496426D01*
X5716680Y-81235273D01*
X5559637Y-81000241D01*
X5362099Y-80802703D01*
X5394802Y-80770000D01*
X6312678Y-80770000D01*
X6350000Y-80773676D01*
X6387322Y-80770000D01*
X6387333Y-80770000D01*
X6498986Y-80759003D01*
X6642247Y-80715546D01*
X6774276Y-80644974D01*
X6890001Y-80550001D01*
X6913803Y-80520998D01*
X7511002Y-79923800D01*
X7540001Y-79900001D01*
X7634974Y-79784276D01*
X7705546Y-79652247D01*
X7749003Y-79508986D01*
X7760000Y-79397333D01*
X7760000Y-79397323D01*
X7763676Y-79360000D01*
X7760000Y-79322677D01*
X7760000Y-78270901D01*
X7801101Y-78248932D01*
X8019608Y-78069608D01*
X8130001Y-77935094D01*
X8130000Y-86264906D01*
G04 #@! TA.AperFunction,Conductor*
D26*
G36*
X8130000Y-86264906D02*
G01*
X8019607Y-86130392D01*
X7801100Y-85951068D01*
X7551807Y-85817818D01*
X7281308Y-85735764D01*
X7000000Y-85708057D01*
X6718691Y-85735764D01*
X6448192Y-85817818D01*
X6198899Y-85951068D01*
X5980392Y-86130393D01*
X5801068Y-86348900D01*
X5667818Y-86598193D01*
X5585764Y-86868692D01*
X5565000Y-87079509D01*
X5565001Y-89120492D01*
X5585765Y-89331309D01*
X5667819Y-89601808D01*
X5801069Y-89851101D01*
X5980393Y-90069608D01*
X6198900Y-90248932D01*
X6240001Y-90270901D01*
X6240001Y-91110197D01*
X6035199Y-91315000D01*
X5117333Y-91315000D01*
X5080000Y-91311323D01*
X5042667Y-91315000D01*
X4931014Y-91325997D01*
X4787753Y-91369454D01*
X4655724Y-91440026D01*
X4539999Y-91534999D01*
X4516200Y-91563998D01*
X3933998Y-92146201D01*
X3905000Y-92169999D01*
X3881202Y-92198997D01*
X3881201Y-92198998D01*
X3810026Y-92285724D01*
X3739454Y-92417754D01*
X3695998Y-92561015D01*
X3681324Y-92710000D01*
X3685001Y-92747332D01*
X3685001Y-92761956D01*
X3530241Y-92865363D01*
X3330363Y-93065241D01*
X3300000Y-93110683D01*
X3300000Y-91754801D01*
X4956003Y-90098799D01*
X4985001Y-90075001D01*
X5079974Y-89959276D01*
X5150546Y-89827247D01*
X5194003Y-89683986D01*
X5205000Y-89572333D01*
X5205000Y-89572323D01*
X5208676Y-89535000D01*
X5205000Y-89497677D01*
X5205000Y-87032323D01*
X5208676Y-86995000D01*
X5205000Y-86957677D01*
X5205000Y-86957667D01*
X5194003Y-86846014D01*
X5150546Y-86702753D01*
X5079974Y-86570724D01*
X4985001Y-86454999D01*
X4956004Y-86431202D01*
X3300000Y-84775199D01*
X3300000Y-82784317D01*
X3330363Y-82829759D01*
X3530241Y-83029637D01*
X3765273Y-83186680D01*
X4026426Y-83294853D01*
X4303665Y-83350000D01*
X4586335Y-83350000D01*
X4863574Y-83294853D01*
X5124727Y-83186680D01*
X5359759Y-83029637D01*
X5559637Y-82829759D01*
X5716680Y-82594727D01*
X5824853Y-82333574D01*
X5880000Y-82056335D01*
X5880000Y-81773665D01*
X5824853Y-81496426D01*
X5716680Y-81235273D01*
X5559637Y-81000241D01*
X5362099Y-80802703D01*
X5394802Y-80770000D01*
X6312678Y-80770000D01*
X6350000Y-80773676D01*
X6387322Y-80770000D01*
X6387333Y-80770000D01*
X6498986Y-80759003D01*
X6642247Y-80715546D01*
X6774276Y-80644974D01*
X6890001Y-80550001D01*
X6913803Y-80520998D01*
X7511002Y-79923800D01*
X7540001Y-79900001D01*
X7634974Y-79784276D01*
X7705546Y-79652247D01*
X7749003Y-79508986D01*
X7760000Y-79397333D01*
X7760000Y-79397323D01*
X7763676Y-79360000D01*
X7760000Y-79322677D01*
X7760000Y-78270901D01*
X7801101Y-78248932D01*
X8019608Y-78069608D01*
X8130001Y-77935094D01*
X8130000Y-86264906D01*
G37*
G04 #@! TD.AperFunction*
D25*
X6421068Y-63431100D02*
X6600392Y-63649607D01*
X6818899Y-63828932D01*
X7068192Y-63962182D01*
X7338691Y-64044236D01*
X7620000Y-64071943D01*
X7901308Y-64044236D01*
X8130001Y-63974864D01*
X8130001Y-67272668D01*
X8126324Y-67310000D01*
X8140998Y-67458985D01*
X8184454Y-67602246D01*
X8255026Y-67734276D01*
X8322361Y-67816323D01*
X8350000Y-67850001D01*
X8378998Y-67873799D01*
X8920199Y-68415000D01*
X8748665Y-68415000D01*
X8471426Y-68470147D01*
X8210273Y-68578320D01*
X7975241Y-68735363D01*
X7775363Y-68935241D01*
X7618320Y-69170273D01*
X7510147Y-69431426D01*
X7455000Y-69708665D01*
X7455000Y-69991335D01*
X7510147Y-70268574D01*
X7618320Y-70529727D01*
X7775363Y-70764759D01*
X7975241Y-70964637D01*
X8130001Y-71068044D01*
X8130001Y-74264907D01*
X8019607Y-74130392D01*
X7801100Y-73951068D01*
X7551807Y-73817818D01*
X7281308Y-73735764D01*
X7000000Y-73708057D01*
X6718691Y-73735764D01*
X6448192Y-73817818D01*
X6198899Y-73951068D01*
X5980392Y-74130393D01*
X5840000Y-74301461D01*
X5840000Y-63850900D01*
X5881100Y-63828932D01*
X6099607Y-63649608D01*
X6278932Y-63431101D01*
X6350000Y-63298142D01*
X6421068Y-63431100D01*
G04 #@! TA.AperFunction,Conductor*
D26*
G36*
X6421068Y-63431100D02*
G01*
X6600392Y-63649607D01*
X6818899Y-63828932D01*
X7068192Y-63962182D01*
X7338691Y-64044236D01*
X7620000Y-64071943D01*
X7901308Y-64044236D01*
X8130001Y-63974864D01*
X8130001Y-67272668D01*
X8126324Y-67310000D01*
X8140998Y-67458985D01*
X8184454Y-67602246D01*
X8255026Y-67734276D01*
X8322361Y-67816323D01*
X8350000Y-67850001D01*
X8378998Y-67873799D01*
X8920199Y-68415000D01*
X8748665Y-68415000D01*
X8471426Y-68470147D01*
X8210273Y-68578320D01*
X7975241Y-68735363D01*
X7775363Y-68935241D01*
X7618320Y-69170273D01*
X7510147Y-69431426D01*
X7455000Y-69708665D01*
X7455000Y-69991335D01*
X7510147Y-70268574D01*
X7618320Y-70529727D01*
X7775363Y-70764759D01*
X7975241Y-70964637D01*
X8130001Y-71068044D01*
X8130001Y-74264907D01*
X8019607Y-74130392D01*
X7801100Y-73951068D01*
X7551807Y-73817818D01*
X7281308Y-73735764D01*
X7000000Y-73708057D01*
X6718691Y-73735764D01*
X6448192Y-73817818D01*
X6198899Y-73951068D01*
X5980392Y-74130393D01*
X5840000Y-74301461D01*
X5840000Y-63850900D01*
X5881100Y-63828932D01*
X6099607Y-63649608D01*
X6278932Y-63431101D01*
X6350000Y-63298142D01*
X6421068Y-63431100D01*
G37*
G04 #@! TD.AperFunction*
D25*
X11501068Y-55811100D02*
X11680392Y-56029607D01*
X11898899Y-56208932D01*
X11940001Y-56230901D01*
X11940001Y-56835197D01*
X11115199Y-57660000D01*
X9562333Y-57660000D01*
X9525000Y-57656323D01*
X9487667Y-57660000D01*
X9376014Y-57670997D01*
X9232753Y-57714454D01*
X9100724Y-57785026D01*
X8984999Y-57879999D01*
X8961200Y-57908998D01*
X8379002Y-58491197D01*
X8349999Y-58514999D01*
X8294871Y-58582174D01*
X8255026Y-58630724D01*
X8211451Y-58712246D01*
X8184454Y-58762754D01*
X8140997Y-58906015D01*
X8130000Y-59017668D01*
X8130000Y-59017678D01*
X8126324Y-59055000D01*
X8130000Y-59092322D01*
X8130000Y-60485136D01*
X7901309Y-60415764D01*
X7620000Y-60388057D01*
X7338692Y-60415764D01*
X7068193Y-60497818D01*
X6818900Y-60631068D01*
X6600393Y-60810392D01*
X6421068Y-61028899D01*
X6350000Y-61161858D01*
X6278932Y-61028899D01*
X6099608Y-60810392D01*
X5881101Y-60631068D01*
X5631808Y-60497818D01*
X5361309Y-60415764D01*
X5080000Y-60388057D01*
X4798692Y-60415764D01*
X4528193Y-60497818D01*
X4278900Y-60631068D01*
X4060393Y-60810392D01*
X3881068Y-61028899D01*
X3810000Y-61161858D01*
X3738932Y-61028899D01*
X3559608Y-60810392D01*
X3341101Y-60631068D01*
X3300000Y-60609099D01*
X3300000Y-59369801D01*
X3489802Y-59180000D01*
X6947678Y-59180000D01*
X6985000Y-59183676D01*
X7022322Y-59180000D01*
X7022333Y-59180000D01*
X7133986Y-59169003D01*
X7277247Y-59125546D01*
X7409276Y-59054974D01*
X7525001Y-58960001D01*
X7548803Y-58930998D01*
X8131004Y-58348798D01*
X8160001Y-58325001D01*
X8254974Y-58209276D01*
X8325546Y-58077247D01*
X8369003Y-57933986D01*
X8380000Y-57822333D01*
X8380000Y-57822332D01*
X8383677Y-57785000D01*
X8380000Y-57747667D01*
X8380000Y-56230900D01*
X8421100Y-56208932D01*
X8639607Y-56029608D01*
X8818932Y-55811101D01*
X8890000Y-55678142D01*
X8961068Y-55811100D01*
X9140392Y-56029607D01*
X9358899Y-56208932D01*
X9608192Y-56342182D01*
X9878691Y-56424236D01*
X10160000Y-56451943D01*
X10441308Y-56424236D01*
X10711807Y-56342182D01*
X10961100Y-56208932D01*
X11179607Y-56029608D01*
X11358932Y-55811101D01*
X11430000Y-55678142D01*
X11501068Y-55811100D01*
G04 #@! TA.AperFunction,Conductor*
D26*
G36*
X11501068Y-55811100D02*
G01*
X11680392Y-56029607D01*
X11898899Y-56208932D01*
X11940001Y-56230901D01*
X11940001Y-56835197D01*
X11115199Y-57660000D01*
X9562333Y-57660000D01*
X9525000Y-57656323D01*
X9487667Y-57660000D01*
X9376014Y-57670997D01*
X9232753Y-57714454D01*
X9100724Y-57785026D01*
X8984999Y-57879999D01*
X8961200Y-57908998D01*
X8379002Y-58491197D01*
X8349999Y-58514999D01*
X8294871Y-58582174D01*
X8255026Y-58630724D01*
X8211451Y-58712246D01*
X8184454Y-58762754D01*
X8140997Y-58906015D01*
X8130000Y-59017668D01*
X8130000Y-59017678D01*
X8126324Y-59055000D01*
X8130000Y-59092322D01*
X8130000Y-60485136D01*
X7901309Y-60415764D01*
X7620000Y-60388057D01*
X7338692Y-60415764D01*
X7068193Y-60497818D01*
X6818900Y-60631068D01*
X6600393Y-60810392D01*
X6421068Y-61028899D01*
X6350000Y-61161858D01*
X6278932Y-61028899D01*
X6099608Y-60810392D01*
X5881101Y-60631068D01*
X5631808Y-60497818D01*
X5361309Y-60415764D01*
X5080000Y-60388057D01*
X4798692Y-60415764D01*
X4528193Y-60497818D01*
X4278900Y-60631068D01*
X4060393Y-60810392D01*
X3881068Y-61028899D01*
X3810000Y-61161858D01*
X3738932Y-61028899D01*
X3559608Y-60810392D01*
X3341101Y-60631068D01*
X3300000Y-60609099D01*
X3300000Y-59369801D01*
X3489802Y-59180000D01*
X6947678Y-59180000D01*
X6985000Y-59183676D01*
X7022322Y-59180000D01*
X7022333Y-59180000D01*
X7133986Y-59169003D01*
X7277247Y-59125546D01*
X7409276Y-59054974D01*
X7525001Y-58960001D01*
X7548803Y-58930998D01*
X8131004Y-58348798D01*
X8160001Y-58325001D01*
X8254974Y-58209276D01*
X8325546Y-58077247D01*
X8369003Y-57933986D01*
X8380000Y-57822333D01*
X8380000Y-57822332D01*
X8383677Y-57785000D01*
X8380000Y-57747667D01*
X8380000Y-56230900D01*
X8421100Y-56208932D01*
X8639607Y-56029608D01*
X8818932Y-55811101D01*
X8890000Y-55678142D01*
X8961068Y-55811100D01*
X9140392Y-56029607D01*
X9358899Y-56208932D01*
X9608192Y-56342182D01*
X9878691Y-56424236D01*
X10160000Y-56451943D01*
X10441308Y-56424236D01*
X10711807Y-56342182D01*
X10961100Y-56208932D01*
X11179607Y-56029608D01*
X11358932Y-55811101D01*
X11430000Y-55678142D01*
X11501068Y-55811100D01*
G37*
G04 #@! TD.AperFunction*
D25*
X14041068Y-55811100D02*
X14220392Y-56029607D01*
X14438899Y-56208932D01*
X14688192Y-56342182D01*
X14958691Y-56424236D01*
X15240000Y-56451943D01*
X15521308Y-56424236D01*
X15791807Y-56342182D01*
X15894999Y-56287025D01*
X15894999Y-57325199D01*
X14728998Y-58491201D01*
X14700000Y-58514999D01*
X14676202Y-58543997D01*
X14676201Y-58543998D01*
X14605026Y-58630724D01*
X14534454Y-58762754D01*
X14490998Y-58906015D01*
X14476324Y-59055000D01*
X14480001Y-59092332D01*
X14480001Y-60609099D01*
X14438900Y-60631068D01*
X14220393Y-60810392D01*
X14041068Y-61028899D01*
X13970000Y-61161858D01*
X13898932Y-61028899D01*
X13719608Y-60810392D01*
X13501101Y-60631068D01*
X13251808Y-60497818D01*
X12981309Y-60415764D01*
X12700000Y-60388057D01*
X12418692Y-60415764D01*
X12148193Y-60497818D01*
X11898900Y-60631068D01*
X11680393Y-60810392D01*
X11501068Y-61028899D01*
X11430000Y-61161858D01*
X11358932Y-61028899D01*
X11179608Y-60810392D01*
X10961101Y-60631068D01*
X10711808Y-60497818D01*
X10441309Y-60415764D01*
X10160000Y-60388057D01*
X9878692Y-60415764D01*
X9650000Y-60485136D01*
X9650000Y-59369801D01*
X9839802Y-59180000D01*
X11392678Y-59180000D01*
X11430000Y-59183676D01*
X11467322Y-59180000D01*
X11467333Y-59180000D01*
X11578986Y-59169003D01*
X11722247Y-59125546D01*
X11854276Y-59054974D01*
X11970001Y-58960001D01*
X11993804Y-58930997D01*
X13211003Y-57713799D01*
X13240001Y-57690001D01*
X13334974Y-57574276D01*
X13405546Y-57442247D01*
X13449003Y-57298986D01*
X13460000Y-57187333D01*
X13460000Y-57187324D01*
X13463676Y-57150001D01*
X13460000Y-57112678D01*
X13460000Y-56230900D01*
X13501100Y-56208932D01*
X13719607Y-56029608D01*
X13898932Y-55811101D01*
X13970000Y-55678142D01*
X14041068Y-55811100D01*
G04 #@! TA.AperFunction,Conductor*
D26*
G36*
X14041068Y-55811100D02*
G01*
X14220392Y-56029607D01*
X14438899Y-56208932D01*
X14688192Y-56342182D01*
X14958691Y-56424236D01*
X15240000Y-56451943D01*
X15521308Y-56424236D01*
X15791807Y-56342182D01*
X15894999Y-56287025D01*
X15894999Y-57325199D01*
X14728998Y-58491201D01*
X14700000Y-58514999D01*
X14676202Y-58543997D01*
X14676201Y-58543998D01*
X14605026Y-58630724D01*
X14534454Y-58762754D01*
X14490998Y-58906015D01*
X14476324Y-59055000D01*
X14480001Y-59092332D01*
X14480001Y-60609099D01*
X14438900Y-60631068D01*
X14220393Y-60810392D01*
X14041068Y-61028899D01*
X13970000Y-61161858D01*
X13898932Y-61028899D01*
X13719608Y-60810392D01*
X13501101Y-60631068D01*
X13251808Y-60497818D01*
X12981309Y-60415764D01*
X12700000Y-60388057D01*
X12418692Y-60415764D01*
X12148193Y-60497818D01*
X11898900Y-60631068D01*
X11680393Y-60810392D01*
X11501068Y-61028899D01*
X11430000Y-61161858D01*
X11358932Y-61028899D01*
X11179608Y-60810392D01*
X10961101Y-60631068D01*
X10711808Y-60497818D01*
X10441309Y-60415764D01*
X10160000Y-60388057D01*
X9878692Y-60415764D01*
X9650000Y-60485136D01*
X9650000Y-59369801D01*
X9839802Y-59180000D01*
X11392678Y-59180000D01*
X11430000Y-59183676D01*
X11467322Y-59180000D01*
X11467333Y-59180000D01*
X11578986Y-59169003D01*
X11722247Y-59125546D01*
X11854276Y-59054974D01*
X11970001Y-58960001D01*
X11993804Y-58930997D01*
X13211003Y-57713799D01*
X13240001Y-57690001D01*
X13334974Y-57574276D01*
X13405546Y-57442247D01*
X13449003Y-57298986D01*
X13460000Y-57187333D01*
X13460000Y-57187324D01*
X13463676Y-57150001D01*
X13460000Y-57112678D01*
X13460000Y-56230900D01*
X13501100Y-56208932D01*
X13719607Y-56029608D01*
X13898932Y-55811101D01*
X13970000Y-55678142D01*
X14041068Y-55811100D01*
G37*
G04 #@! TD.AperFunction*
D25*
X7691200Y-49406002D02*
X7714999Y-49435001D01*
X7744003Y-49458804D01*
X8761312Y-50476114D01*
X8725000Y-50658665D01*
X8725000Y-50941335D01*
X8780147Y-51218574D01*
X8888320Y-51479727D01*
X9045363Y-51714759D01*
X9245241Y-51914637D01*
X9480273Y-52071680D01*
X9741426Y-52179853D01*
X10018665Y-52235000D01*
X10301335Y-52235000D01*
X10578574Y-52179853D01*
X10839727Y-52071680D01*
X11074759Y-51914637D01*
X11274637Y-51714759D01*
X11431680Y-51479727D01*
X11539853Y-51218574D01*
X11595000Y-50941335D01*
X11595000Y-50658665D01*
X11539853Y-50381426D01*
X11431680Y-50120273D01*
X11274637Y-49885241D01*
X11074759Y-49685363D01*
X11029317Y-49655000D01*
X14290199Y-49655000D01*
X14480000Y-49844802D01*
X14480001Y-52989099D01*
X14438900Y-53011068D01*
X14220393Y-53190392D01*
X14041068Y-53408899D01*
X13970000Y-53541858D01*
X13898932Y-53408899D01*
X13719608Y-53190392D01*
X13501101Y-53011068D01*
X13251808Y-52877818D01*
X12981309Y-52795764D01*
X12700000Y-52768057D01*
X12418692Y-52795764D01*
X12148193Y-52877818D01*
X11898900Y-53011068D01*
X11680393Y-53190392D01*
X11501068Y-53408899D01*
X11430000Y-53541858D01*
X11358932Y-53408899D01*
X11179608Y-53190392D01*
X10961101Y-53011068D01*
X10711808Y-52877818D01*
X10441309Y-52795764D01*
X10160000Y-52768057D01*
X9878692Y-52795764D01*
X9608193Y-52877818D01*
X9358900Y-53011068D01*
X9140393Y-53190392D01*
X8961068Y-53408899D01*
X8890000Y-53541858D01*
X8818932Y-53408899D01*
X8639608Y-53190392D01*
X8421101Y-53011068D01*
X8171808Y-52877818D01*
X7901309Y-52795764D01*
X7620000Y-52768057D01*
X7338692Y-52795764D01*
X7068193Y-52877818D01*
X6818900Y-53011068D01*
X6600393Y-53190392D01*
X6421068Y-53408899D01*
X6350000Y-53541858D01*
X6278932Y-53408899D01*
X6099608Y-53190392D01*
X5881101Y-53011068D01*
X5840000Y-52989099D01*
X5840000Y-50479801D01*
X6664802Y-49655000D01*
X6947678Y-49655000D01*
X6985000Y-49658676D01*
X7022322Y-49655000D01*
X7022333Y-49655000D01*
X7133986Y-49644003D01*
X7277247Y-49600546D01*
X7409276Y-49529974D01*
X7525001Y-49435001D01*
X7548803Y-49405998D01*
X7620000Y-49334802D01*
X7691200Y-49406002D01*
G04 #@! TA.AperFunction,Conductor*
D26*
G36*
X7691200Y-49406002D02*
G01*
X7714999Y-49435001D01*
X7744003Y-49458804D01*
X8761312Y-50476114D01*
X8725000Y-50658665D01*
X8725000Y-50941335D01*
X8780147Y-51218574D01*
X8888320Y-51479727D01*
X9045363Y-51714759D01*
X9245241Y-51914637D01*
X9480273Y-52071680D01*
X9741426Y-52179853D01*
X10018665Y-52235000D01*
X10301335Y-52235000D01*
X10578574Y-52179853D01*
X10839727Y-52071680D01*
X11074759Y-51914637D01*
X11274637Y-51714759D01*
X11431680Y-51479727D01*
X11539853Y-51218574D01*
X11595000Y-50941335D01*
X11595000Y-50658665D01*
X11539853Y-50381426D01*
X11431680Y-50120273D01*
X11274637Y-49885241D01*
X11074759Y-49685363D01*
X11029317Y-49655000D01*
X14290199Y-49655000D01*
X14480000Y-49844802D01*
X14480001Y-52989099D01*
X14438900Y-53011068D01*
X14220393Y-53190392D01*
X14041068Y-53408899D01*
X13970000Y-53541858D01*
X13898932Y-53408899D01*
X13719608Y-53190392D01*
X13501101Y-53011068D01*
X13251808Y-52877818D01*
X12981309Y-52795764D01*
X12700000Y-52768057D01*
X12418692Y-52795764D01*
X12148193Y-52877818D01*
X11898900Y-53011068D01*
X11680393Y-53190392D01*
X11501068Y-53408899D01*
X11430000Y-53541858D01*
X11358932Y-53408899D01*
X11179608Y-53190392D01*
X10961101Y-53011068D01*
X10711808Y-52877818D01*
X10441309Y-52795764D01*
X10160000Y-52768057D01*
X9878692Y-52795764D01*
X9608193Y-52877818D01*
X9358900Y-53011068D01*
X9140393Y-53190392D01*
X8961068Y-53408899D01*
X8890000Y-53541858D01*
X8818932Y-53408899D01*
X8639608Y-53190392D01*
X8421101Y-53011068D01*
X8171808Y-52877818D01*
X7901309Y-52795764D01*
X7620000Y-52768057D01*
X7338692Y-52795764D01*
X7068193Y-52877818D01*
X6818900Y-53011068D01*
X6600393Y-53190392D01*
X6421068Y-53408899D01*
X6350000Y-53541858D01*
X6278932Y-53408899D01*
X6099608Y-53190392D01*
X5881101Y-53011068D01*
X5840000Y-52989099D01*
X5840000Y-50479801D01*
X6664802Y-49655000D01*
X6947678Y-49655000D01*
X6985000Y-49658676D01*
X7022322Y-49655000D01*
X7022333Y-49655000D01*
X7133986Y-49644003D01*
X7277247Y-49600546D01*
X7409276Y-49529974D01*
X7525001Y-49435001D01*
X7548803Y-49405998D01*
X7620000Y-49334802D01*
X7691200Y-49406002D01*
G37*
G04 #@! TD.AperFunction*
G04 #@! TD*
M02*
