M48
; DRILL file {KiCad (5.1.9)-1} date 05/08/21 11:48:23
; FORMAT={-:-/ absolute / metric / decimal}
; #@! TF.CreationDate,2021-05-08T11:48:23+02:00
; #@! TF.GenerationSoftware,Kicad,Pcbnew,(5.1.9)-1
; #@! TF.FileFunction,Plated,1,2,PTH
FMAT,2
METRIC
T1C0.400
T2C0.750
T3C0.800
T4C1.000
T5C1.100
%
G90
G05
T1
X3.175Y-67.31
X6.985Y-67.31
X7.62Y-84.455
X8.255Y-58.42
X10.795Y-84.455
X12.065Y-45.72
X12.065Y-50.8
X13.97Y-58.42
X18.415Y-58.42
T2
X3.0Y-7.62
X4.27Y-7.62
X5.54Y-7.62
T3
X2.54Y-54.61
X2.54Y-62.23
X2.62Y-44.45
X2.62Y-46.99
X4.445Y-81.915
X4.445Y-93.98
X4.445Y-106.045
X5.08Y-54.61
X5.08Y-62.23
X7.62Y-44.45
X7.62Y-46.99
X7.62Y-54.61
X7.62Y-62.23
X8.89Y-69.85
X10.16Y-34.29
X10.16Y-41.91
X10.16Y-50.8
X10.16Y-54.61
X10.16Y-62.23
X11.43Y-5.62
X11.43Y-7.62
X12.065Y-81.915
X12.065Y-93.98
X12.065Y-106.045
X12.7Y-54.61
X12.7Y-62.23
X12.7Y-66.04
X13.335Y-16.51
X13.335Y-24.13
X15.24Y-54.61
X15.24Y-62.23
X16.51Y-69.85
X16.51Y-105.41
X16.51Y-107.41
X17.7Y-66.04
X17.78Y-50.8
X17.78Y-54.61
X17.78Y-62.23
T4
X5.08Y-15.0
X5.08Y-17.5
X5.08Y-20.0
X5.08Y-35.56
X5.08Y-38.06
X5.08Y-40.56
X19.05Y-13.97
X19.05Y-16.51
X19.05Y-19.05
X19.05Y-21.59
X19.05Y-24.13
X19.05Y-26.67
X19.05Y-29.21
X19.05Y-31.75
X21.59Y-13.97
X21.59Y-16.51
X21.59Y-19.05
X21.59Y-21.59
X21.59Y-24.13
X21.59Y-26.67
X21.59Y-29.21
X21.59Y-31.75
T5
X9.525Y-12.065
X9.525Y-22.225
X16.51Y-81.915
X16.51Y-92.075
X21.59Y-69.85
X21.59Y-80.01
T3
G00X1.7Y-75.05
M15
G01X1.7Y-76.95
M16
G05
G00X1.7Y-87.95
M15
G01X1.7Y-89.85
M16
G05
G00X1.7Y-99.28
M15
G01X1.7Y-101.18
M16
G05
G00X7.0Y-75.15
M15
G01X7.0Y-77.05
M16
G05
G00X7.0Y-88.05
M15
G01X7.0Y-89.95
M16
G05
G00X7.0Y-99.38
M15
G01X7.0Y-101.28
M16
G05
G00X12.8Y-75.15
M15
G01X12.8Y-77.05
M16
G05
G00X12.8Y-88.05
M15
G01X12.8Y-89.95
M16
G05
G00X12.8Y-99.38
M15
G01X12.8Y-101.28
M16
G05
T0
M30
