G04 #@! TF.GenerationSoftware,KiCad,Pcbnew,(5.1.9)-1*
G04 #@! TF.CreationDate,2021-05-08T11:48:20+02:00*
G04 #@! TF.ProjectId,APC Eurorack Main,41504320-4575-4726-9f72-61636b204d61,rev?*
G04 #@! TF.SameCoordinates,Original*
G04 #@! TF.FileFunction,Soldermask,Top*
G04 #@! TF.FilePolarity,Negative*
%FSLAX46Y46*%
G04 Gerber Fmt 4.6, Leading zero omitted, Abs format (unit mm)*
G04 Created by KiCad (PCBNEW (5.1.9)-1) date 2021-05-08 11:48:20*
%MOMM*%
%LPD*%
G01*
G04 APERTURE LIST*
%ADD10O,1.600000X1.600000*%
%ADD11C,1.600000*%
%ADD12C,1.800000*%
%ADD13O,1.600000X3.500000*%
%ADD14C,1.700000*%
%ADD15O,1.600000X2.400000*%
%ADD16R,1.600000X2.400000*%
%ADD17R,1.050000X1.500000*%
%ADD18O,1.050000X1.500000*%
%ADD19O,2.200000X2.200000*%
%ADD20R,2.200000X2.200000*%
%ADD21R,1.600000X1.600000*%
G04 APERTURE END LIST*
D10*
G04 #@! TO.C,R1*
X10160000Y-50800000D03*
D11*
X17780000Y-50800000D03*
G04 #@! TD*
D12*
G04 #@! TO.C,R11*
X5080000Y-35560000D03*
X5080000Y-38060000D03*
X5080000Y-40560000D03*
G04 #@! TD*
G04 #@! TO.C,R10*
X5080000Y-15000000D03*
X5080000Y-17500000D03*
X5080000Y-20000000D03*
G04 #@! TD*
D13*
G04 #@! TO.C,J6*
X12800000Y-76100000D03*
X7000000Y-76100000D03*
X1700000Y-76000000D03*
G04 #@! TD*
G04 #@! TO.C,J5*
X12800000Y-89000000D03*
X7000000Y-89000000D03*
X1700000Y-88900000D03*
G04 #@! TD*
G04 #@! TO.C,J4*
X12800000Y-100330000D03*
X7000000Y-100330000D03*
X1700000Y-100230000D03*
G04 #@! TD*
D10*
G04 #@! TO.C,R9*
X10160000Y-34290000D03*
D11*
X10160000Y-41910000D03*
G04 #@! TD*
D10*
G04 #@! TO.C,R8*
X16510000Y-69850000D03*
D11*
X8890000Y-69850000D03*
G04 #@! TD*
D10*
G04 #@! TO.C,R7*
X12065000Y-81915000D03*
D11*
X4445000Y-81915000D03*
G04 #@! TD*
D10*
G04 #@! TO.C,R4*
X12065000Y-106045000D03*
D11*
X4445000Y-106045000D03*
G04 #@! TD*
D10*
G04 #@! TO.C,R3*
X4445000Y-93980000D03*
D11*
X12065000Y-93980000D03*
G04 #@! TD*
D10*
G04 #@! TO.C,R2*
X13335000Y-24130000D03*
D11*
X13335000Y-16510000D03*
G04 #@! TD*
D14*
G04 #@! TO.C,J1*
X19050000Y-13970000D03*
X19050000Y-16510000D03*
X19050000Y-19050000D03*
X19050000Y-21590000D03*
X19050000Y-24130000D03*
X19050000Y-26670000D03*
X19050000Y-29210000D03*
X19050000Y-31750000D03*
X21590000Y-13970000D03*
X21590000Y-16510000D03*
X21590000Y-19050000D03*
X21590000Y-21590000D03*
X21590000Y-24130000D03*
X21590000Y-26670000D03*
X21590000Y-29210000D03*
G36*
G01*
X22440000Y-31150000D02*
X22440000Y-32350000D01*
G75*
G02*
X22190000Y-32600000I-250000J0D01*
G01*
X20990000Y-32600000D01*
G75*
G02*
X20740000Y-32350000I0J250000D01*
G01*
X20740000Y-31150000D01*
G75*
G02*
X20990000Y-30900000I250000J0D01*
G01*
X22190000Y-30900000D01*
G75*
G02*
X22440000Y-31150000I0J-250000D01*
G01*
G37*
G04 #@! TD*
D15*
G04 #@! TO.C,IC2*
X17780000Y-62230000D03*
X2540000Y-54610000D03*
X15240000Y-62230000D03*
X5080000Y-54610000D03*
X12700000Y-62230000D03*
X7620000Y-54610000D03*
X10160000Y-62230000D03*
X10160000Y-54610000D03*
X7620000Y-62230000D03*
X12700000Y-54610000D03*
X5080000Y-62230000D03*
X15240000Y-54610000D03*
X2540000Y-62230000D03*
D16*
X17780000Y-54610000D03*
G04 #@! TD*
D17*
G04 #@! TO.C,IC1*
X3000000Y-7620000D03*
D18*
X5540000Y-7620000D03*
X4270000Y-7620000D03*
G04 #@! TD*
D19*
G04 #@! TO.C,D3*
X21590000Y-80010000D03*
D20*
X21590000Y-69850000D03*
G04 #@! TD*
D19*
G04 #@! TO.C,D2*
X16510000Y-92075000D03*
D20*
X16510000Y-81915000D03*
G04 #@! TD*
D19*
G04 #@! TO.C,D1*
X9525000Y-22225000D03*
D20*
X9525000Y-12065000D03*
G04 #@! TD*
D11*
G04 #@! TO.C,C5*
X11430000Y-5620000D03*
D21*
X11430000Y-7620000D03*
G04 #@! TD*
D11*
G04 #@! TO.C,C4*
X2620000Y-44450000D03*
X7620000Y-44450000D03*
G04 #@! TD*
G04 #@! TO.C,C3*
X16510000Y-105410000D03*
D21*
X16510000Y-107410000D03*
G04 #@! TD*
D11*
G04 #@! TO.C,C2*
X17700000Y-66040000D03*
X12700000Y-66040000D03*
G04 #@! TD*
G04 #@! TO.C,C1*
X2620000Y-46990000D03*
X7620000Y-46990000D03*
G04 #@! TD*
M02*
