M48
; DRILL file {KiCad (5.1.9)-1} date 04/09/21 13:23:53
; FORMAT={-:-/ absolute / metric / decimal}
; #@! TF.CreationDate,2021-04-09T13:23:53+02:00
; #@! TF.GenerationSoftware,Kicad,Pcbnew,(5.1.9)-1
; #@! TF.FileFunction,NonPlated,1,2,NPTH
FMAT,2
METRIC
T1C3.000
T2C3.200
T3C5.200
T4C6.200
%
G90
G05
T1
X18.255Y-17.575
X18.255Y-30.915
X18.255Y-44.255
X18.255Y-57.595
X18.255Y-70.935
X18.255Y-84.275
X18.255Y-97.615
X18.255Y-110.955
T2
X7.5Y-3.0
X7.5Y-125.5
X61.7Y-30.915
X61.7Y-57.595
X63.38Y-3.0
X63.38Y-125.5
T3
X61.7Y-44.255
T4
X7.445Y-17.575
X7.445Y-30.915
X7.445Y-44.255
X7.445Y-57.595
X7.445Y-70.935
X7.445Y-84.275
X7.445Y-97.615
X7.445Y-110.955
X27.145Y-17.575
X27.145Y-30.915
X27.145Y-44.255
X27.145Y-57.595
X27.145Y-70.935
X27.145Y-84.275
X27.145Y-97.615
X27.145Y-110.955
X61.435Y-17.575
X61.435Y-70.935
X61.435Y-110.955
T0
M30
