G04 #@! TF.GenerationSoftware,KiCad,Pcbnew,(5.1.9)-1*
G04 #@! TF.CreationDate,2021-04-09T13:23:51+02:00*
G04 #@! TF.ProjectId,Baby8 Front,42616279-3820-4467-926f-6e742e6b6963,rev?*
G04 #@! TF.SameCoordinates,Original*
G04 #@! TF.FileFunction,Copper,L2,Bot*
G04 #@! TF.FilePolarity,Positive*
%FSLAX46Y46*%
G04 Gerber Fmt 4.6, Leading zero omitted, Abs format (unit mm)*
G04 Created by KiCad (PCBNEW (5.1.9)-1) date 2021-04-09 13:23:51*
%MOMM*%
%LPD*%
G01*
G04 APERTURE LIST*
G04 #@! TA.AperFunction,NonConductor*
%ADD10C,0.254000*%
G04 #@! TD*
G04 #@! TA.AperFunction,NonConductor*
%ADD11C,0.100000*%
G04 #@! TD*
G04 APERTURE END LIST*
D10*
X70115001Y-127815000D02*
X685000Y-127815000D01*
X685000Y-125279872D01*
X5265000Y-125279872D01*
X5265000Y-125720128D01*
X5350890Y-126151925D01*
X5519369Y-126558669D01*
X5763962Y-126924729D01*
X6075271Y-127236038D01*
X6441331Y-127480631D01*
X6848075Y-127649110D01*
X7279872Y-127735000D01*
X7720128Y-127735000D01*
X8151925Y-127649110D01*
X8558669Y-127480631D01*
X8924729Y-127236038D01*
X9236038Y-126924729D01*
X9480631Y-126558669D01*
X9649110Y-126151925D01*
X9735000Y-125720128D01*
X9735000Y-125279872D01*
X61145000Y-125279872D01*
X61145000Y-125720128D01*
X61230890Y-126151925D01*
X61399369Y-126558669D01*
X61643962Y-126924729D01*
X61955271Y-127236038D01*
X62321331Y-127480631D01*
X62728075Y-127649110D01*
X63159872Y-127735000D01*
X63600128Y-127735000D01*
X64031925Y-127649110D01*
X64438669Y-127480631D01*
X64804729Y-127236038D01*
X65116038Y-126924729D01*
X65360631Y-126558669D01*
X65529110Y-126151925D01*
X65615000Y-125720128D01*
X65615000Y-125279872D01*
X65529110Y-124848075D01*
X65360631Y-124441331D01*
X65116038Y-124075271D01*
X64804729Y-123763962D01*
X64438669Y-123519369D01*
X64031925Y-123350890D01*
X63600128Y-123265000D01*
X63159872Y-123265000D01*
X62728075Y-123350890D01*
X62321331Y-123519369D01*
X61955271Y-123763962D01*
X61643962Y-124075271D01*
X61399369Y-124441331D01*
X61230890Y-124848075D01*
X61145000Y-125279872D01*
X9735000Y-125279872D01*
X9649110Y-124848075D01*
X9480631Y-124441331D01*
X9236038Y-124075271D01*
X8924729Y-123763962D01*
X8558669Y-123519369D01*
X8151925Y-123350890D01*
X7720128Y-123265000D01*
X7279872Y-123265000D01*
X6848075Y-123350890D01*
X6441331Y-123519369D01*
X6075271Y-123763962D01*
X5763962Y-124075271D01*
X5519369Y-124441331D01*
X5350890Y-124848075D01*
X5265000Y-125279872D01*
X685000Y-125279872D01*
X685000Y-110587135D01*
X3710000Y-110587135D01*
X3710000Y-111322865D01*
X3853534Y-112044459D01*
X4135086Y-112724186D01*
X4543836Y-113335924D01*
X5064076Y-113856164D01*
X5675814Y-114264914D01*
X6355541Y-114546466D01*
X7077135Y-114690000D01*
X7812865Y-114690000D01*
X8534459Y-114546466D01*
X9214186Y-114264914D01*
X9825924Y-113856164D01*
X10346164Y-113335924D01*
X10754914Y-112724186D01*
X11036466Y-112044459D01*
X11180000Y-111322865D01*
X11180000Y-110744721D01*
X16120000Y-110744721D01*
X16120000Y-111165279D01*
X16202047Y-111577756D01*
X16362988Y-111966302D01*
X16596637Y-112315983D01*
X16894017Y-112613363D01*
X17243698Y-112847012D01*
X17632244Y-113007953D01*
X18044721Y-113090000D01*
X18465279Y-113090000D01*
X18877756Y-113007953D01*
X19266302Y-112847012D01*
X19615983Y-112613363D01*
X19913363Y-112315983D01*
X20147012Y-111966302D01*
X20307953Y-111577756D01*
X20390000Y-111165279D01*
X20390000Y-110744721D01*
X20358655Y-110587135D01*
X23410000Y-110587135D01*
X23410000Y-111322865D01*
X23553534Y-112044459D01*
X23835086Y-112724186D01*
X24243836Y-113335924D01*
X24764076Y-113856164D01*
X25375814Y-114264914D01*
X26055541Y-114546466D01*
X26777135Y-114690000D01*
X27512865Y-114690000D01*
X28234459Y-114546466D01*
X28914186Y-114264914D01*
X29525924Y-113856164D01*
X30046164Y-113335924D01*
X30454914Y-112724186D01*
X30736466Y-112044459D01*
X30880000Y-111322865D01*
X30880000Y-110587135D01*
X57700000Y-110587135D01*
X57700000Y-111322865D01*
X57843534Y-112044459D01*
X58125086Y-112724186D01*
X58533836Y-113335924D01*
X59054076Y-113856164D01*
X59665814Y-114264914D01*
X60345541Y-114546466D01*
X61067135Y-114690000D01*
X61802865Y-114690000D01*
X62524459Y-114546466D01*
X63204186Y-114264914D01*
X63815924Y-113856164D01*
X64336164Y-113335924D01*
X64744914Y-112724186D01*
X65026466Y-112044459D01*
X65170000Y-111322865D01*
X65170000Y-110587135D01*
X65026466Y-109865541D01*
X64744914Y-109185814D01*
X64336164Y-108574076D01*
X63815924Y-108053836D01*
X63204186Y-107645086D01*
X62524459Y-107363534D01*
X61802865Y-107220000D01*
X61067135Y-107220000D01*
X60345541Y-107363534D01*
X59665814Y-107645086D01*
X59054076Y-108053836D01*
X58533836Y-108574076D01*
X58125086Y-109185814D01*
X57843534Y-109865541D01*
X57700000Y-110587135D01*
X30880000Y-110587135D01*
X30736466Y-109865541D01*
X30454914Y-109185814D01*
X30046164Y-108574076D01*
X29525924Y-108053836D01*
X28914186Y-107645086D01*
X28234459Y-107363534D01*
X27512865Y-107220000D01*
X26777135Y-107220000D01*
X26055541Y-107363534D01*
X25375814Y-107645086D01*
X24764076Y-108053836D01*
X24243836Y-108574076D01*
X23835086Y-109185814D01*
X23553534Y-109865541D01*
X23410000Y-110587135D01*
X20358655Y-110587135D01*
X20307953Y-110332244D01*
X20147012Y-109943698D01*
X19913363Y-109594017D01*
X19615983Y-109296637D01*
X19266302Y-109062988D01*
X18877756Y-108902047D01*
X18465279Y-108820000D01*
X18044721Y-108820000D01*
X17632244Y-108902047D01*
X17243698Y-109062988D01*
X16894017Y-109296637D01*
X16596637Y-109594017D01*
X16362988Y-109943698D01*
X16202047Y-110332244D01*
X16120000Y-110744721D01*
X11180000Y-110744721D01*
X11180000Y-110587135D01*
X11036466Y-109865541D01*
X10754914Y-109185814D01*
X10346164Y-108574076D01*
X9825924Y-108053836D01*
X9214186Y-107645086D01*
X8534459Y-107363534D01*
X7812865Y-107220000D01*
X7077135Y-107220000D01*
X6355541Y-107363534D01*
X5675814Y-107645086D01*
X5064076Y-108053836D01*
X4543836Y-108574076D01*
X4135086Y-109185814D01*
X3853534Y-109865541D01*
X3710000Y-110587135D01*
X685000Y-110587135D01*
X685000Y-97247135D01*
X3710000Y-97247135D01*
X3710000Y-97982865D01*
X3853534Y-98704459D01*
X4135086Y-99384186D01*
X4543836Y-99995924D01*
X5064076Y-100516164D01*
X5675814Y-100924914D01*
X6355541Y-101206466D01*
X7077135Y-101350000D01*
X7812865Y-101350000D01*
X8534459Y-101206466D01*
X9214186Y-100924914D01*
X9825924Y-100516164D01*
X10346164Y-99995924D01*
X10754914Y-99384186D01*
X11036466Y-98704459D01*
X11180000Y-97982865D01*
X11180000Y-97404721D01*
X16120000Y-97404721D01*
X16120000Y-97825279D01*
X16202047Y-98237756D01*
X16362988Y-98626302D01*
X16596637Y-98975983D01*
X16894017Y-99273363D01*
X17243698Y-99507012D01*
X17632244Y-99667953D01*
X18044721Y-99750000D01*
X18465279Y-99750000D01*
X18877756Y-99667953D01*
X19266302Y-99507012D01*
X19615983Y-99273363D01*
X19913363Y-98975983D01*
X20147012Y-98626302D01*
X20307953Y-98237756D01*
X20390000Y-97825279D01*
X20390000Y-97404721D01*
X20358655Y-97247135D01*
X23410000Y-97247135D01*
X23410000Y-97982865D01*
X23553534Y-98704459D01*
X23835086Y-99384186D01*
X24243836Y-99995924D01*
X24764076Y-100516164D01*
X25375814Y-100924914D01*
X26055541Y-101206466D01*
X26777135Y-101350000D01*
X27512865Y-101350000D01*
X28234459Y-101206466D01*
X28914186Y-100924914D01*
X29525924Y-100516164D01*
X30046164Y-99995924D01*
X30454914Y-99384186D01*
X30736466Y-98704459D01*
X30880000Y-97982865D01*
X30880000Y-97247135D01*
X30736466Y-96525541D01*
X30454914Y-95845814D01*
X30046164Y-95234076D01*
X29525924Y-94713836D01*
X28914186Y-94305086D01*
X28234459Y-94023534D01*
X27512865Y-93880000D01*
X26777135Y-93880000D01*
X26055541Y-94023534D01*
X25375814Y-94305086D01*
X24764076Y-94713836D01*
X24243836Y-95234076D01*
X23835086Y-95845814D01*
X23553534Y-96525541D01*
X23410000Y-97247135D01*
X20358655Y-97247135D01*
X20307953Y-96992244D01*
X20147012Y-96603698D01*
X19913363Y-96254017D01*
X19615983Y-95956637D01*
X19266302Y-95722988D01*
X18877756Y-95562047D01*
X18465279Y-95480000D01*
X18044721Y-95480000D01*
X17632244Y-95562047D01*
X17243698Y-95722988D01*
X16894017Y-95956637D01*
X16596637Y-96254017D01*
X16362988Y-96603698D01*
X16202047Y-96992244D01*
X16120000Y-97404721D01*
X11180000Y-97404721D01*
X11180000Y-97247135D01*
X11036466Y-96525541D01*
X10754914Y-95845814D01*
X10346164Y-95234076D01*
X9825924Y-94713836D01*
X9214186Y-94305086D01*
X8534459Y-94023534D01*
X7812865Y-93880000D01*
X7077135Y-93880000D01*
X6355541Y-94023534D01*
X5675814Y-94305086D01*
X5064076Y-94713836D01*
X4543836Y-95234076D01*
X4135086Y-95845814D01*
X3853534Y-96525541D01*
X3710000Y-97247135D01*
X685000Y-97247135D01*
X685000Y-83907135D01*
X3710000Y-83907135D01*
X3710000Y-84642865D01*
X3853534Y-85364459D01*
X4135086Y-86044186D01*
X4543836Y-86655924D01*
X5064076Y-87176164D01*
X5675814Y-87584914D01*
X6355541Y-87866466D01*
X7077135Y-88010000D01*
X7812865Y-88010000D01*
X8534459Y-87866466D01*
X9214186Y-87584914D01*
X9825924Y-87176164D01*
X10346164Y-86655924D01*
X10754914Y-86044186D01*
X11036466Y-85364459D01*
X11180000Y-84642865D01*
X11180000Y-84064721D01*
X16120000Y-84064721D01*
X16120000Y-84485279D01*
X16202047Y-84897756D01*
X16362988Y-85286302D01*
X16596637Y-85635983D01*
X16894017Y-85933363D01*
X17243698Y-86167012D01*
X17632244Y-86327953D01*
X18044721Y-86410000D01*
X18465279Y-86410000D01*
X18877756Y-86327953D01*
X19266302Y-86167012D01*
X19615983Y-85933363D01*
X19913363Y-85635983D01*
X20147012Y-85286302D01*
X20307953Y-84897756D01*
X20390000Y-84485279D01*
X20390000Y-84064721D01*
X20358655Y-83907135D01*
X23410000Y-83907135D01*
X23410000Y-84642865D01*
X23553534Y-85364459D01*
X23835086Y-86044186D01*
X24243836Y-86655924D01*
X24764076Y-87176164D01*
X25375814Y-87584914D01*
X26055541Y-87866466D01*
X26777135Y-88010000D01*
X27512865Y-88010000D01*
X28234459Y-87866466D01*
X28914186Y-87584914D01*
X29525924Y-87176164D01*
X30046164Y-86655924D01*
X30454914Y-86044186D01*
X30736466Y-85364459D01*
X30880000Y-84642865D01*
X30880000Y-83907135D01*
X30736466Y-83185541D01*
X30454914Y-82505814D01*
X30046164Y-81894076D01*
X29525924Y-81373836D01*
X28914186Y-80965086D01*
X28234459Y-80683534D01*
X27512865Y-80540000D01*
X26777135Y-80540000D01*
X26055541Y-80683534D01*
X25375814Y-80965086D01*
X24764076Y-81373836D01*
X24243836Y-81894076D01*
X23835086Y-82505814D01*
X23553534Y-83185541D01*
X23410000Y-83907135D01*
X20358655Y-83907135D01*
X20307953Y-83652244D01*
X20147012Y-83263698D01*
X19913363Y-82914017D01*
X19615983Y-82616637D01*
X19266302Y-82382988D01*
X18877756Y-82222047D01*
X18465279Y-82140000D01*
X18044721Y-82140000D01*
X17632244Y-82222047D01*
X17243698Y-82382988D01*
X16894017Y-82616637D01*
X16596637Y-82914017D01*
X16362988Y-83263698D01*
X16202047Y-83652244D01*
X16120000Y-84064721D01*
X11180000Y-84064721D01*
X11180000Y-83907135D01*
X11036466Y-83185541D01*
X10754914Y-82505814D01*
X10346164Y-81894076D01*
X9825924Y-81373836D01*
X9214186Y-80965086D01*
X8534459Y-80683534D01*
X7812865Y-80540000D01*
X7077135Y-80540000D01*
X6355541Y-80683534D01*
X5675814Y-80965086D01*
X5064076Y-81373836D01*
X4543836Y-81894076D01*
X4135086Y-82505814D01*
X3853534Y-83185541D01*
X3710000Y-83907135D01*
X685000Y-83907135D01*
X685000Y-70567135D01*
X3710000Y-70567135D01*
X3710000Y-71302865D01*
X3853534Y-72024459D01*
X4135086Y-72704186D01*
X4543836Y-73315924D01*
X5064076Y-73836164D01*
X5675814Y-74244914D01*
X6355541Y-74526466D01*
X7077135Y-74670000D01*
X7812865Y-74670000D01*
X8534459Y-74526466D01*
X9214186Y-74244914D01*
X9825924Y-73836164D01*
X10346164Y-73315924D01*
X10754914Y-72704186D01*
X11036466Y-72024459D01*
X11180000Y-71302865D01*
X11180000Y-70724721D01*
X16120000Y-70724721D01*
X16120000Y-71145279D01*
X16202047Y-71557756D01*
X16362988Y-71946302D01*
X16596637Y-72295983D01*
X16894017Y-72593363D01*
X17243698Y-72827012D01*
X17632244Y-72987953D01*
X18044721Y-73070000D01*
X18465279Y-73070000D01*
X18877756Y-72987953D01*
X19266302Y-72827012D01*
X19615983Y-72593363D01*
X19913363Y-72295983D01*
X20147012Y-71946302D01*
X20307953Y-71557756D01*
X20390000Y-71145279D01*
X20390000Y-70724721D01*
X20358655Y-70567135D01*
X23410000Y-70567135D01*
X23410000Y-71302865D01*
X23553534Y-72024459D01*
X23835086Y-72704186D01*
X24243836Y-73315924D01*
X24764076Y-73836164D01*
X25375814Y-74244914D01*
X26055541Y-74526466D01*
X26777135Y-74670000D01*
X27512865Y-74670000D01*
X28234459Y-74526466D01*
X28914186Y-74244914D01*
X29525924Y-73836164D01*
X30046164Y-73315924D01*
X30454914Y-72704186D01*
X30736466Y-72024459D01*
X30880000Y-71302865D01*
X30880000Y-70567135D01*
X57700000Y-70567135D01*
X57700000Y-71302865D01*
X57843534Y-72024459D01*
X58125086Y-72704186D01*
X58533836Y-73315924D01*
X59054076Y-73836164D01*
X59665814Y-74244914D01*
X60345541Y-74526466D01*
X61067135Y-74670000D01*
X61802865Y-74670000D01*
X62524459Y-74526466D01*
X63204186Y-74244914D01*
X63815924Y-73836164D01*
X64336164Y-73315924D01*
X64744914Y-72704186D01*
X65026466Y-72024459D01*
X65170000Y-71302865D01*
X65170000Y-70567135D01*
X65026466Y-69845541D01*
X64744914Y-69165814D01*
X64336164Y-68554076D01*
X63815924Y-68033836D01*
X63204186Y-67625086D01*
X62524459Y-67343534D01*
X61802865Y-67200000D01*
X61067135Y-67200000D01*
X60345541Y-67343534D01*
X59665814Y-67625086D01*
X59054076Y-68033836D01*
X58533836Y-68554076D01*
X58125086Y-69165814D01*
X57843534Y-69845541D01*
X57700000Y-70567135D01*
X30880000Y-70567135D01*
X30736466Y-69845541D01*
X30454914Y-69165814D01*
X30046164Y-68554076D01*
X29525924Y-68033836D01*
X28914186Y-67625086D01*
X28234459Y-67343534D01*
X27512865Y-67200000D01*
X26777135Y-67200000D01*
X26055541Y-67343534D01*
X25375814Y-67625086D01*
X24764076Y-68033836D01*
X24243836Y-68554076D01*
X23835086Y-69165814D01*
X23553534Y-69845541D01*
X23410000Y-70567135D01*
X20358655Y-70567135D01*
X20307953Y-70312244D01*
X20147012Y-69923698D01*
X19913363Y-69574017D01*
X19615983Y-69276637D01*
X19266302Y-69042988D01*
X18877756Y-68882047D01*
X18465279Y-68800000D01*
X18044721Y-68800000D01*
X17632244Y-68882047D01*
X17243698Y-69042988D01*
X16894017Y-69276637D01*
X16596637Y-69574017D01*
X16362988Y-69923698D01*
X16202047Y-70312244D01*
X16120000Y-70724721D01*
X11180000Y-70724721D01*
X11180000Y-70567135D01*
X11036466Y-69845541D01*
X10754914Y-69165814D01*
X10346164Y-68554076D01*
X9825924Y-68033836D01*
X9214186Y-67625086D01*
X8534459Y-67343534D01*
X7812865Y-67200000D01*
X7077135Y-67200000D01*
X6355541Y-67343534D01*
X5675814Y-67625086D01*
X5064076Y-68033836D01*
X4543836Y-68554076D01*
X4135086Y-69165814D01*
X3853534Y-69845541D01*
X3710000Y-70567135D01*
X685000Y-70567135D01*
X685000Y-57227135D01*
X3710000Y-57227135D01*
X3710000Y-57962865D01*
X3853534Y-58684459D01*
X4135086Y-59364186D01*
X4543836Y-59975924D01*
X5064076Y-60496164D01*
X5675814Y-60904914D01*
X6355541Y-61186466D01*
X7077135Y-61330000D01*
X7812865Y-61330000D01*
X8534459Y-61186466D01*
X9214186Y-60904914D01*
X9825924Y-60496164D01*
X10346164Y-59975924D01*
X10754914Y-59364186D01*
X11036466Y-58684459D01*
X11180000Y-57962865D01*
X11180000Y-57384721D01*
X16120000Y-57384721D01*
X16120000Y-57805279D01*
X16202047Y-58217756D01*
X16362988Y-58606302D01*
X16596637Y-58955983D01*
X16894017Y-59253363D01*
X17243698Y-59487012D01*
X17632244Y-59647953D01*
X18044721Y-59730000D01*
X18465279Y-59730000D01*
X18877756Y-59647953D01*
X19266302Y-59487012D01*
X19615983Y-59253363D01*
X19913363Y-58955983D01*
X20147012Y-58606302D01*
X20307953Y-58217756D01*
X20390000Y-57805279D01*
X20390000Y-57384721D01*
X20358655Y-57227135D01*
X23410000Y-57227135D01*
X23410000Y-57962865D01*
X23553534Y-58684459D01*
X23835086Y-59364186D01*
X24243836Y-59975924D01*
X24764076Y-60496164D01*
X25375814Y-60904914D01*
X26055541Y-61186466D01*
X26777135Y-61330000D01*
X27512865Y-61330000D01*
X28234459Y-61186466D01*
X28914186Y-60904914D01*
X29525924Y-60496164D01*
X30046164Y-59975924D01*
X30454914Y-59364186D01*
X30736466Y-58684459D01*
X30880000Y-57962865D01*
X30880000Y-57374872D01*
X59465000Y-57374872D01*
X59465000Y-57815128D01*
X59550890Y-58246925D01*
X59719369Y-58653669D01*
X59963962Y-59019729D01*
X60275271Y-59331038D01*
X60641331Y-59575631D01*
X61048075Y-59744110D01*
X61479872Y-59830000D01*
X61920128Y-59830000D01*
X62351925Y-59744110D01*
X62758669Y-59575631D01*
X63124729Y-59331038D01*
X63436038Y-59019729D01*
X63680631Y-58653669D01*
X63849110Y-58246925D01*
X63935000Y-57815128D01*
X63935000Y-57374872D01*
X63849110Y-56943075D01*
X63680631Y-56536331D01*
X63436038Y-56170271D01*
X63124729Y-55858962D01*
X62758669Y-55614369D01*
X62351925Y-55445890D01*
X61920128Y-55360000D01*
X61479872Y-55360000D01*
X61048075Y-55445890D01*
X60641331Y-55614369D01*
X60275271Y-55858962D01*
X59963962Y-56170271D01*
X59719369Y-56536331D01*
X59550890Y-56943075D01*
X59465000Y-57374872D01*
X30880000Y-57374872D01*
X30880000Y-57227135D01*
X30736466Y-56505541D01*
X30454914Y-55825814D01*
X30046164Y-55214076D01*
X29525924Y-54693836D01*
X28914186Y-54285086D01*
X28234459Y-54003534D01*
X27512865Y-53860000D01*
X26777135Y-53860000D01*
X26055541Y-54003534D01*
X25375814Y-54285086D01*
X24764076Y-54693836D01*
X24243836Y-55214076D01*
X23835086Y-55825814D01*
X23553534Y-56505541D01*
X23410000Y-57227135D01*
X20358655Y-57227135D01*
X20307953Y-56972244D01*
X20147012Y-56583698D01*
X19913363Y-56234017D01*
X19615983Y-55936637D01*
X19266302Y-55702988D01*
X18877756Y-55542047D01*
X18465279Y-55460000D01*
X18044721Y-55460000D01*
X17632244Y-55542047D01*
X17243698Y-55702988D01*
X16894017Y-55936637D01*
X16596637Y-56234017D01*
X16362988Y-56583698D01*
X16202047Y-56972244D01*
X16120000Y-57384721D01*
X11180000Y-57384721D01*
X11180000Y-57227135D01*
X11036466Y-56505541D01*
X10754914Y-55825814D01*
X10346164Y-55214076D01*
X9825924Y-54693836D01*
X9214186Y-54285086D01*
X8534459Y-54003534D01*
X7812865Y-53860000D01*
X7077135Y-53860000D01*
X6355541Y-54003534D01*
X5675814Y-54285086D01*
X5064076Y-54693836D01*
X4543836Y-55214076D01*
X4135086Y-55825814D01*
X3853534Y-56505541D01*
X3710000Y-57227135D01*
X685000Y-57227135D01*
X685000Y-43887135D01*
X3710000Y-43887135D01*
X3710000Y-44622865D01*
X3853534Y-45344459D01*
X4135086Y-46024186D01*
X4543836Y-46635924D01*
X5064076Y-47156164D01*
X5675814Y-47564914D01*
X6355541Y-47846466D01*
X7077135Y-47990000D01*
X7812865Y-47990000D01*
X8534459Y-47846466D01*
X9214186Y-47564914D01*
X9825924Y-47156164D01*
X10346164Y-46635924D01*
X10754914Y-46024186D01*
X11036466Y-45344459D01*
X11180000Y-44622865D01*
X11180000Y-44044721D01*
X16120000Y-44044721D01*
X16120000Y-44465279D01*
X16202047Y-44877756D01*
X16362988Y-45266302D01*
X16596637Y-45615983D01*
X16894017Y-45913363D01*
X17243698Y-46147012D01*
X17632244Y-46307953D01*
X18044721Y-46390000D01*
X18465279Y-46390000D01*
X18877756Y-46307953D01*
X19266302Y-46147012D01*
X19615983Y-45913363D01*
X19913363Y-45615983D01*
X20147012Y-45266302D01*
X20307953Y-44877756D01*
X20390000Y-44465279D01*
X20390000Y-44044721D01*
X20358655Y-43887135D01*
X23410000Y-43887135D01*
X23410000Y-44622865D01*
X23553534Y-45344459D01*
X23835086Y-46024186D01*
X24243836Y-46635924D01*
X24764076Y-47156164D01*
X25375814Y-47564914D01*
X26055541Y-47846466D01*
X26777135Y-47990000D01*
X27512865Y-47990000D01*
X28234459Y-47846466D01*
X28914186Y-47564914D01*
X29525924Y-47156164D01*
X30046164Y-46635924D01*
X30454914Y-46024186D01*
X30736466Y-45344459D01*
X30880000Y-44622865D01*
X30880000Y-43936380D01*
X58465000Y-43936380D01*
X58465000Y-44573620D01*
X58589319Y-45198615D01*
X58833180Y-45787347D01*
X59187211Y-46317192D01*
X59637808Y-46767789D01*
X60167653Y-47121820D01*
X60756385Y-47365681D01*
X61381380Y-47490000D01*
X62018620Y-47490000D01*
X62643615Y-47365681D01*
X63232347Y-47121820D01*
X63762192Y-46767789D01*
X64212789Y-46317192D01*
X64566820Y-45787347D01*
X64810681Y-45198615D01*
X64935000Y-44573620D01*
X64935000Y-43936380D01*
X64810681Y-43311385D01*
X64566820Y-42722653D01*
X64212789Y-42192808D01*
X63762192Y-41742211D01*
X63232347Y-41388180D01*
X62643615Y-41144319D01*
X62018620Y-41020000D01*
X61381380Y-41020000D01*
X60756385Y-41144319D01*
X60167653Y-41388180D01*
X59637808Y-41742211D01*
X59187211Y-42192808D01*
X58833180Y-42722653D01*
X58589319Y-43311385D01*
X58465000Y-43936380D01*
X30880000Y-43936380D01*
X30880000Y-43887135D01*
X30736466Y-43165541D01*
X30454914Y-42485814D01*
X30046164Y-41874076D01*
X29525924Y-41353836D01*
X28914186Y-40945086D01*
X28234459Y-40663534D01*
X27512865Y-40520000D01*
X26777135Y-40520000D01*
X26055541Y-40663534D01*
X25375814Y-40945086D01*
X24764076Y-41353836D01*
X24243836Y-41874076D01*
X23835086Y-42485814D01*
X23553534Y-43165541D01*
X23410000Y-43887135D01*
X20358655Y-43887135D01*
X20307953Y-43632244D01*
X20147012Y-43243698D01*
X19913363Y-42894017D01*
X19615983Y-42596637D01*
X19266302Y-42362988D01*
X18877756Y-42202047D01*
X18465279Y-42120000D01*
X18044721Y-42120000D01*
X17632244Y-42202047D01*
X17243698Y-42362988D01*
X16894017Y-42596637D01*
X16596637Y-42894017D01*
X16362988Y-43243698D01*
X16202047Y-43632244D01*
X16120000Y-44044721D01*
X11180000Y-44044721D01*
X11180000Y-43887135D01*
X11036466Y-43165541D01*
X10754914Y-42485814D01*
X10346164Y-41874076D01*
X9825924Y-41353836D01*
X9214186Y-40945086D01*
X8534459Y-40663534D01*
X7812865Y-40520000D01*
X7077135Y-40520000D01*
X6355541Y-40663534D01*
X5675814Y-40945086D01*
X5064076Y-41353836D01*
X4543836Y-41874076D01*
X4135086Y-42485814D01*
X3853534Y-43165541D01*
X3710000Y-43887135D01*
X685000Y-43887135D01*
X685000Y-30547135D01*
X3710000Y-30547135D01*
X3710000Y-31282865D01*
X3853534Y-32004459D01*
X4135086Y-32684186D01*
X4543836Y-33295924D01*
X5064076Y-33816164D01*
X5675814Y-34224914D01*
X6355541Y-34506466D01*
X7077135Y-34650000D01*
X7812865Y-34650000D01*
X8534459Y-34506466D01*
X9214186Y-34224914D01*
X9825924Y-33816164D01*
X10346164Y-33295924D01*
X10754914Y-32684186D01*
X11036466Y-32004459D01*
X11180000Y-31282865D01*
X11180000Y-30704721D01*
X16120000Y-30704721D01*
X16120000Y-31125279D01*
X16202047Y-31537756D01*
X16362988Y-31926302D01*
X16596637Y-32275983D01*
X16894017Y-32573363D01*
X17243698Y-32807012D01*
X17632244Y-32967953D01*
X18044721Y-33050000D01*
X18465279Y-33050000D01*
X18877756Y-32967953D01*
X19266302Y-32807012D01*
X19615983Y-32573363D01*
X19913363Y-32275983D01*
X20147012Y-31926302D01*
X20307953Y-31537756D01*
X20390000Y-31125279D01*
X20390000Y-30704721D01*
X20358655Y-30547135D01*
X23410000Y-30547135D01*
X23410000Y-31282865D01*
X23553534Y-32004459D01*
X23835086Y-32684186D01*
X24243836Y-33295924D01*
X24764076Y-33816164D01*
X25375814Y-34224914D01*
X26055541Y-34506466D01*
X26777135Y-34650000D01*
X27512865Y-34650000D01*
X28234459Y-34506466D01*
X28914186Y-34224914D01*
X29525924Y-33816164D01*
X30046164Y-33295924D01*
X30454914Y-32684186D01*
X30736466Y-32004459D01*
X30880000Y-31282865D01*
X30880000Y-30694872D01*
X59465000Y-30694872D01*
X59465000Y-31135128D01*
X59550890Y-31566925D01*
X59719369Y-31973669D01*
X59963962Y-32339729D01*
X60275271Y-32651038D01*
X60641331Y-32895631D01*
X61048075Y-33064110D01*
X61479872Y-33150000D01*
X61920128Y-33150000D01*
X62351925Y-33064110D01*
X62758669Y-32895631D01*
X63124729Y-32651038D01*
X63436038Y-32339729D01*
X63680631Y-31973669D01*
X63849110Y-31566925D01*
X63935000Y-31135128D01*
X63935000Y-30694872D01*
X63849110Y-30263075D01*
X63680631Y-29856331D01*
X63436038Y-29490271D01*
X63124729Y-29178962D01*
X62758669Y-28934369D01*
X62351925Y-28765890D01*
X61920128Y-28680000D01*
X61479872Y-28680000D01*
X61048075Y-28765890D01*
X60641331Y-28934369D01*
X60275271Y-29178962D01*
X59963962Y-29490271D01*
X59719369Y-29856331D01*
X59550890Y-30263075D01*
X59465000Y-30694872D01*
X30880000Y-30694872D01*
X30880000Y-30547135D01*
X30736466Y-29825541D01*
X30454914Y-29145814D01*
X30046164Y-28534076D01*
X29525924Y-28013836D01*
X28914186Y-27605086D01*
X28234459Y-27323534D01*
X27512865Y-27180000D01*
X26777135Y-27180000D01*
X26055541Y-27323534D01*
X25375814Y-27605086D01*
X24764076Y-28013836D01*
X24243836Y-28534076D01*
X23835086Y-29145814D01*
X23553534Y-29825541D01*
X23410000Y-30547135D01*
X20358655Y-30547135D01*
X20307953Y-30292244D01*
X20147012Y-29903698D01*
X19913363Y-29554017D01*
X19615983Y-29256637D01*
X19266302Y-29022988D01*
X18877756Y-28862047D01*
X18465279Y-28780000D01*
X18044721Y-28780000D01*
X17632244Y-28862047D01*
X17243698Y-29022988D01*
X16894017Y-29256637D01*
X16596637Y-29554017D01*
X16362988Y-29903698D01*
X16202047Y-30292244D01*
X16120000Y-30704721D01*
X11180000Y-30704721D01*
X11180000Y-30547135D01*
X11036466Y-29825541D01*
X10754914Y-29145814D01*
X10346164Y-28534076D01*
X9825924Y-28013836D01*
X9214186Y-27605086D01*
X8534459Y-27323534D01*
X7812865Y-27180000D01*
X7077135Y-27180000D01*
X6355541Y-27323534D01*
X5675814Y-27605086D01*
X5064076Y-28013836D01*
X4543836Y-28534076D01*
X4135086Y-29145814D01*
X3853534Y-29825541D01*
X3710000Y-30547135D01*
X685000Y-30547135D01*
X685000Y-17207135D01*
X3710000Y-17207135D01*
X3710000Y-17942865D01*
X3853534Y-18664459D01*
X4135086Y-19344186D01*
X4543836Y-19955924D01*
X5064076Y-20476164D01*
X5675814Y-20884914D01*
X6355541Y-21166466D01*
X7077135Y-21310000D01*
X7812865Y-21310000D01*
X8534459Y-21166466D01*
X9214186Y-20884914D01*
X9825924Y-20476164D01*
X10346164Y-19955924D01*
X10754914Y-19344186D01*
X11036466Y-18664459D01*
X11180000Y-17942865D01*
X11180000Y-17364721D01*
X16120000Y-17364721D01*
X16120000Y-17785279D01*
X16202047Y-18197756D01*
X16362988Y-18586302D01*
X16596637Y-18935983D01*
X16894017Y-19233363D01*
X17243698Y-19467012D01*
X17632244Y-19627953D01*
X18044721Y-19710000D01*
X18465279Y-19710000D01*
X18877756Y-19627953D01*
X19266302Y-19467012D01*
X19615983Y-19233363D01*
X19913363Y-18935983D01*
X20147012Y-18586302D01*
X20307953Y-18197756D01*
X20390000Y-17785279D01*
X20390000Y-17364721D01*
X20358655Y-17207135D01*
X23410000Y-17207135D01*
X23410000Y-17942865D01*
X23553534Y-18664459D01*
X23835086Y-19344186D01*
X24243836Y-19955924D01*
X24764076Y-20476164D01*
X25375814Y-20884914D01*
X26055541Y-21166466D01*
X26777135Y-21310000D01*
X27512865Y-21310000D01*
X28234459Y-21166466D01*
X28914186Y-20884914D01*
X29525924Y-20476164D01*
X30046164Y-19955924D01*
X30454914Y-19344186D01*
X30736466Y-18664459D01*
X30880000Y-17942865D01*
X30880000Y-17207135D01*
X57700000Y-17207135D01*
X57700000Y-17942865D01*
X57843534Y-18664459D01*
X58125086Y-19344186D01*
X58533836Y-19955924D01*
X59054076Y-20476164D01*
X59665814Y-20884914D01*
X60345541Y-21166466D01*
X61067135Y-21310000D01*
X61802865Y-21310000D01*
X62524459Y-21166466D01*
X63204186Y-20884914D01*
X63815924Y-20476164D01*
X64336164Y-19955924D01*
X64744914Y-19344186D01*
X65026466Y-18664459D01*
X65170000Y-17942865D01*
X65170000Y-17207135D01*
X65026466Y-16485541D01*
X64744914Y-15805814D01*
X64336164Y-15194076D01*
X63815924Y-14673836D01*
X63204186Y-14265086D01*
X62524459Y-13983534D01*
X61802865Y-13840000D01*
X61067135Y-13840000D01*
X60345541Y-13983534D01*
X59665814Y-14265086D01*
X59054076Y-14673836D01*
X58533836Y-15194076D01*
X58125086Y-15805814D01*
X57843534Y-16485541D01*
X57700000Y-17207135D01*
X30880000Y-17207135D01*
X30736466Y-16485541D01*
X30454914Y-15805814D01*
X30046164Y-15194076D01*
X29525924Y-14673836D01*
X28914186Y-14265086D01*
X28234459Y-13983534D01*
X27512865Y-13840000D01*
X26777135Y-13840000D01*
X26055541Y-13983534D01*
X25375814Y-14265086D01*
X24764076Y-14673836D01*
X24243836Y-15194076D01*
X23835086Y-15805814D01*
X23553534Y-16485541D01*
X23410000Y-17207135D01*
X20358655Y-17207135D01*
X20307953Y-16952244D01*
X20147012Y-16563698D01*
X19913363Y-16214017D01*
X19615983Y-15916637D01*
X19266302Y-15682988D01*
X18877756Y-15522047D01*
X18465279Y-15440000D01*
X18044721Y-15440000D01*
X17632244Y-15522047D01*
X17243698Y-15682988D01*
X16894017Y-15916637D01*
X16596637Y-16214017D01*
X16362988Y-16563698D01*
X16202047Y-16952244D01*
X16120000Y-17364721D01*
X11180000Y-17364721D01*
X11180000Y-17207135D01*
X11036466Y-16485541D01*
X10754914Y-15805814D01*
X10346164Y-15194076D01*
X9825924Y-14673836D01*
X9214186Y-14265086D01*
X8534459Y-13983534D01*
X7812865Y-13840000D01*
X7077135Y-13840000D01*
X6355541Y-13983534D01*
X5675814Y-14265086D01*
X5064076Y-14673836D01*
X4543836Y-15194076D01*
X4135086Y-15805814D01*
X3853534Y-16485541D01*
X3710000Y-17207135D01*
X685000Y-17207135D01*
X685000Y-2779872D01*
X5265000Y-2779872D01*
X5265000Y-3220128D01*
X5350890Y-3651925D01*
X5519369Y-4058669D01*
X5763962Y-4424729D01*
X6075271Y-4736038D01*
X6441331Y-4980631D01*
X6848075Y-5149110D01*
X7279872Y-5235000D01*
X7720128Y-5235000D01*
X8151925Y-5149110D01*
X8558669Y-4980631D01*
X8924729Y-4736038D01*
X9236038Y-4424729D01*
X9480631Y-4058669D01*
X9649110Y-3651925D01*
X9735000Y-3220128D01*
X9735000Y-2779872D01*
X61145000Y-2779872D01*
X61145000Y-3220128D01*
X61230890Y-3651925D01*
X61399369Y-4058669D01*
X61643962Y-4424729D01*
X61955271Y-4736038D01*
X62321331Y-4980631D01*
X62728075Y-5149110D01*
X63159872Y-5235000D01*
X63600128Y-5235000D01*
X64031925Y-5149110D01*
X64438669Y-4980631D01*
X64804729Y-4736038D01*
X65116038Y-4424729D01*
X65360631Y-4058669D01*
X65529110Y-3651925D01*
X65615000Y-3220128D01*
X65615000Y-2779872D01*
X65529110Y-2348075D01*
X65360631Y-1941331D01*
X65116038Y-1575271D01*
X64804729Y-1263962D01*
X64438669Y-1019369D01*
X64031925Y-850890D01*
X63600128Y-765000D01*
X63159872Y-765000D01*
X62728075Y-850890D01*
X62321331Y-1019369D01*
X61955271Y-1263962D01*
X61643962Y-1575271D01*
X61399369Y-1941331D01*
X61230890Y-2348075D01*
X61145000Y-2779872D01*
X9735000Y-2779872D01*
X9649110Y-2348075D01*
X9480631Y-1941331D01*
X9236038Y-1575271D01*
X8924729Y-1263962D01*
X8558669Y-1019369D01*
X8151925Y-850890D01*
X7720128Y-765000D01*
X7279872Y-765000D01*
X6848075Y-850890D01*
X6441331Y-1019369D01*
X6075271Y-1263962D01*
X5763962Y-1575271D01*
X5519369Y-1941331D01*
X5350890Y-2348075D01*
X5265000Y-2779872D01*
X685000Y-2779872D01*
X685000Y-685000D01*
X70115000Y-685000D01*
X70115001Y-127815000D01*
G04 #@! TA.AperFunction,NonConductor*
D11*
G36*
X70115001Y-127815000D02*
G01*
X685000Y-127815000D01*
X685000Y-125279872D01*
X5265000Y-125279872D01*
X5265000Y-125720128D01*
X5350890Y-126151925D01*
X5519369Y-126558669D01*
X5763962Y-126924729D01*
X6075271Y-127236038D01*
X6441331Y-127480631D01*
X6848075Y-127649110D01*
X7279872Y-127735000D01*
X7720128Y-127735000D01*
X8151925Y-127649110D01*
X8558669Y-127480631D01*
X8924729Y-127236038D01*
X9236038Y-126924729D01*
X9480631Y-126558669D01*
X9649110Y-126151925D01*
X9735000Y-125720128D01*
X9735000Y-125279872D01*
X61145000Y-125279872D01*
X61145000Y-125720128D01*
X61230890Y-126151925D01*
X61399369Y-126558669D01*
X61643962Y-126924729D01*
X61955271Y-127236038D01*
X62321331Y-127480631D01*
X62728075Y-127649110D01*
X63159872Y-127735000D01*
X63600128Y-127735000D01*
X64031925Y-127649110D01*
X64438669Y-127480631D01*
X64804729Y-127236038D01*
X65116038Y-126924729D01*
X65360631Y-126558669D01*
X65529110Y-126151925D01*
X65615000Y-125720128D01*
X65615000Y-125279872D01*
X65529110Y-124848075D01*
X65360631Y-124441331D01*
X65116038Y-124075271D01*
X64804729Y-123763962D01*
X64438669Y-123519369D01*
X64031925Y-123350890D01*
X63600128Y-123265000D01*
X63159872Y-123265000D01*
X62728075Y-123350890D01*
X62321331Y-123519369D01*
X61955271Y-123763962D01*
X61643962Y-124075271D01*
X61399369Y-124441331D01*
X61230890Y-124848075D01*
X61145000Y-125279872D01*
X9735000Y-125279872D01*
X9649110Y-124848075D01*
X9480631Y-124441331D01*
X9236038Y-124075271D01*
X8924729Y-123763962D01*
X8558669Y-123519369D01*
X8151925Y-123350890D01*
X7720128Y-123265000D01*
X7279872Y-123265000D01*
X6848075Y-123350890D01*
X6441331Y-123519369D01*
X6075271Y-123763962D01*
X5763962Y-124075271D01*
X5519369Y-124441331D01*
X5350890Y-124848075D01*
X5265000Y-125279872D01*
X685000Y-125279872D01*
X685000Y-110587135D01*
X3710000Y-110587135D01*
X3710000Y-111322865D01*
X3853534Y-112044459D01*
X4135086Y-112724186D01*
X4543836Y-113335924D01*
X5064076Y-113856164D01*
X5675814Y-114264914D01*
X6355541Y-114546466D01*
X7077135Y-114690000D01*
X7812865Y-114690000D01*
X8534459Y-114546466D01*
X9214186Y-114264914D01*
X9825924Y-113856164D01*
X10346164Y-113335924D01*
X10754914Y-112724186D01*
X11036466Y-112044459D01*
X11180000Y-111322865D01*
X11180000Y-110744721D01*
X16120000Y-110744721D01*
X16120000Y-111165279D01*
X16202047Y-111577756D01*
X16362988Y-111966302D01*
X16596637Y-112315983D01*
X16894017Y-112613363D01*
X17243698Y-112847012D01*
X17632244Y-113007953D01*
X18044721Y-113090000D01*
X18465279Y-113090000D01*
X18877756Y-113007953D01*
X19266302Y-112847012D01*
X19615983Y-112613363D01*
X19913363Y-112315983D01*
X20147012Y-111966302D01*
X20307953Y-111577756D01*
X20390000Y-111165279D01*
X20390000Y-110744721D01*
X20358655Y-110587135D01*
X23410000Y-110587135D01*
X23410000Y-111322865D01*
X23553534Y-112044459D01*
X23835086Y-112724186D01*
X24243836Y-113335924D01*
X24764076Y-113856164D01*
X25375814Y-114264914D01*
X26055541Y-114546466D01*
X26777135Y-114690000D01*
X27512865Y-114690000D01*
X28234459Y-114546466D01*
X28914186Y-114264914D01*
X29525924Y-113856164D01*
X30046164Y-113335924D01*
X30454914Y-112724186D01*
X30736466Y-112044459D01*
X30880000Y-111322865D01*
X30880000Y-110587135D01*
X57700000Y-110587135D01*
X57700000Y-111322865D01*
X57843534Y-112044459D01*
X58125086Y-112724186D01*
X58533836Y-113335924D01*
X59054076Y-113856164D01*
X59665814Y-114264914D01*
X60345541Y-114546466D01*
X61067135Y-114690000D01*
X61802865Y-114690000D01*
X62524459Y-114546466D01*
X63204186Y-114264914D01*
X63815924Y-113856164D01*
X64336164Y-113335924D01*
X64744914Y-112724186D01*
X65026466Y-112044459D01*
X65170000Y-111322865D01*
X65170000Y-110587135D01*
X65026466Y-109865541D01*
X64744914Y-109185814D01*
X64336164Y-108574076D01*
X63815924Y-108053836D01*
X63204186Y-107645086D01*
X62524459Y-107363534D01*
X61802865Y-107220000D01*
X61067135Y-107220000D01*
X60345541Y-107363534D01*
X59665814Y-107645086D01*
X59054076Y-108053836D01*
X58533836Y-108574076D01*
X58125086Y-109185814D01*
X57843534Y-109865541D01*
X57700000Y-110587135D01*
X30880000Y-110587135D01*
X30736466Y-109865541D01*
X30454914Y-109185814D01*
X30046164Y-108574076D01*
X29525924Y-108053836D01*
X28914186Y-107645086D01*
X28234459Y-107363534D01*
X27512865Y-107220000D01*
X26777135Y-107220000D01*
X26055541Y-107363534D01*
X25375814Y-107645086D01*
X24764076Y-108053836D01*
X24243836Y-108574076D01*
X23835086Y-109185814D01*
X23553534Y-109865541D01*
X23410000Y-110587135D01*
X20358655Y-110587135D01*
X20307953Y-110332244D01*
X20147012Y-109943698D01*
X19913363Y-109594017D01*
X19615983Y-109296637D01*
X19266302Y-109062988D01*
X18877756Y-108902047D01*
X18465279Y-108820000D01*
X18044721Y-108820000D01*
X17632244Y-108902047D01*
X17243698Y-109062988D01*
X16894017Y-109296637D01*
X16596637Y-109594017D01*
X16362988Y-109943698D01*
X16202047Y-110332244D01*
X16120000Y-110744721D01*
X11180000Y-110744721D01*
X11180000Y-110587135D01*
X11036466Y-109865541D01*
X10754914Y-109185814D01*
X10346164Y-108574076D01*
X9825924Y-108053836D01*
X9214186Y-107645086D01*
X8534459Y-107363534D01*
X7812865Y-107220000D01*
X7077135Y-107220000D01*
X6355541Y-107363534D01*
X5675814Y-107645086D01*
X5064076Y-108053836D01*
X4543836Y-108574076D01*
X4135086Y-109185814D01*
X3853534Y-109865541D01*
X3710000Y-110587135D01*
X685000Y-110587135D01*
X685000Y-97247135D01*
X3710000Y-97247135D01*
X3710000Y-97982865D01*
X3853534Y-98704459D01*
X4135086Y-99384186D01*
X4543836Y-99995924D01*
X5064076Y-100516164D01*
X5675814Y-100924914D01*
X6355541Y-101206466D01*
X7077135Y-101350000D01*
X7812865Y-101350000D01*
X8534459Y-101206466D01*
X9214186Y-100924914D01*
X9825924Y-100516164D01*
X10346164Y-99995924D01*
X10754914Y-99384186D01*
X11036466Y-98704459D01*
X11180000Y-97982865D01*
X11180000Y-97404721D01*
X16120000Y-97404721D01*
X16120000Y-97825279D01*
X16202047Y-98237756D01*
X16362988Y-98626302D01*
X16596637Y-98975983D01*
X16894017Y-99273363D01*
X17243698Y-99507012D01*
X17632244Y-99667953D01*
X18044721Y-99750000D01*
X18465279Y-99750000D01*
X18877756Y-99667953D01*
X19266302Y-99507012D01*
X19615983Y-99273363D01*
X19913363Y-98975983D01*
X20147012Y-98626302D01*
X20307953Y-98237756D01*
X20390000Y-97825279D01*
X20390000Y-97404721D01*
X20358655Y-97247135D01*
X23410000Y-97247135D01*
X23410000Y-97982865D01*
X23553534Y-98704459D01*
X23835086Y-99384186D01*
X24243836Y-99995924D01*
X24764076Y-100516164D01*
X25375814Y-100924914D01*
X26055541Y-101206466D01*
X26777135Y-101350000D01*
X27512865Y-101350000D01*
X28234459Y-101206466D01*
X28914186Y-100924914D01*
X29525924Y-100516164D01*
X30046164Y-99995924D01*
X30454914Y-99384186D01*
X30736466Y-98704459D01*
X30880000Y-97982865D01*
X30880000Y-97247135D01*
X30736466Y-96525541D01*
X30454914Y-95845814D01*
X30046164Y-95234076D01*
X29525924Y-94713836D01*
X28914186Y-94305086D01*
X28234459Y-94023534D01*
X27512865Y-93880000D01*
X26777135Y-93880000D01*
X26055541Y-94023534D01*
X25375814Y-94305086D01*
X24764076Y-94713836D01*
X24243836Y-95234076D01*
X23835086Y-95845814D01*
X23553534Y-96525541D01*
X23410000Y-97247135D01*
X20358655Y-97247135D01*
X20307953Y-96992244D01*
X20147012Y-96603698D01*
X19913363Y-96254017D01*
X19615983Y-95956637D01*
X19266302Y-95722988D01*
X18877756Y-95562047D01*
X18465279Y-95480000D01*
X18044721Y-95480000D01*
X17632244Y-95562047D01*
X17243698Y-95722988D01*
X16894017Y-95956637D01*
X16596637Y-96254017D01*
X16362988Y-96603698D01*
X16202047Y-96992244D01*
X16120000Y-97404721D01*
X11180000Y-97404721D01*
X11180000Y-97247135D01*
X11036466Y-96525541D01*
X10754914Y-95845814D01*
X10346164Y-95234076D01*
X9825924Y-94713836D01*
X9214186Y-94305086D01*
X8534459Y-94023534D01*
X7812865Y-93880000D01*
X7077135Y-93880000D01*
X6355541Y-94023534D01*
X5675814Y-94305086D01*
X5064076Y-94713836D01*
X4543836Y-95234076D01*
X4135086Y-95845814D01*
X3853534Y-96525541D01*
X3710000Y-97247135D01*
X685000Y-97247135D01*
X685000Y-83907135D01*
X3710000Y-83907135D01*
X3710000Y-84642865D01*
X3853534Y-85364459D01*
X4135086Y-86044186D01*
X4543836Y-86655924D01*
X5064076Y-87176164D01*
X5675814Y-87584914D01*
X6355541Y-87866466D01*
X7077135Y-88010000D01*
X7812865Y-88010000D01*
X8534459Y-87866466D01*
X9214186Y-87584914D01*
X9825924Y-87176164D01*
X10346164Y-86655924D01*
X10754914Y-86044186D01*
X11036466Y-85364459D01*
X11180000Y-84642865D01*
X11180000Y-84064721D01*
X16120000Y-84064721D01*
X16120000Y-84485279D01*
X16202047Y-84897756D01*
X16362988Y-85286302D01*
X16596637Y-85635983D01*
X16894017Y-85933363D01*
X17243698Y-86167012D01*
X17632244Y-86327953D01*
X18044721Y-86410000D01*
X18465279Y-86410000D01*
X18877756Y-86327953D01*
X19266302Y-86167012D01*
X19615983Y-85933363D01*
X19913363Y-85635983D01*
X20147012Y-85286302D01*
X20307953Y-84897756D01*
X20390000Y-84485279D01*
X20390000Y-84064721D01*
X20358655Y-83907135D01*
X23410000Y-83907135D01*
X23410000Y-84642865D01*
X23553534Y-85364459D01*
X23835086Y-86044186D01*
X24243836Y-86655924D01*
X24764076Y-87176164D01*
X25375814Y-87584914D01*
X26055541Y-87866466D01*
X26777135Y-88010000D01*
X27512865Y-88010000D01*
X28234459Y-87866466D01*
X28914186Y-87584914D01*
X29525924Y-87176164D01*
X30046164Y-86655924D01*
X30454914Y-86044186D01*
X30736466Y-85364459D01*
X30880000Y-84642865D01*
X30880000Y-83907135D01*
X30736466Y-83185541D01*
X30454914Y-82505814D01*
X30046164Y-81894076D01*
X29525924Y-81373836D01*
X28914186Y-80965086D01*
X28234459Y-80683534D01*
X27512865Y-80540000D01*
X26777135Y-80540000D01*
X26055541Y-80683534D01*
X25375814Y-80965086D01*
X24764076Y-81373836D01*
X24243836Y-81894076D01*
X23835086Y-82505814D01*
X23553534Y-83185541D01*
X23410000Y-83907135D01*
X20358655Y-83907135D01*
X20307953Y-83652244D01*
X20147012Y-83263698D01*
X19913363Y-82914017D01*
X19615983Y-82616637D01*
X19266302Y-82382988D01*
X18877756Y-82222047D01*
X18465279Y-82140000D01*
X18044721Y-82140000D01*
X17632244Y-82222047D01*
X17243698Y-82382988D01*
X16894017Y-82616637D01*
X16596637Y-82914017D01*
X16362988Y-83263698D01*
X16202047Y-83652244D01*
X16120000Y-84064721D01*
X11180000Y-84064721D01*
X11180000Y-83907135D01*
X11036466Y-83185541D01*
X10754914Y-82505814D01*
X10346164Y-81894076D01*
X9825924Y-81373836D01*
X9214186Y-80965086D01*
X8534459Y-80683534D01*
X7812865Y-80540000D01*
X7077135Y-80540000D01*
X6355541Y-80683534D01*
X5675814Y-80965086D01*
X5064076Y-81373836D01*
X4543836Y-81894076D01*
X4135086Y-82505814D01*
X3853534Y-83185541D01*
X3710000Y-83907135D01*
X685000Y-83907135D01*
X685000Y-70567135D01*
X3710000Y-70567135D01*
X3710000Y-71302865D01*
X3853534Y-72024459D01*
X4135086Y-72704186D01*
X4543836Y-73315924D01*
X5064076Y-73836164D01*
X5675814Y-74244914D01*
X6355541Y-74526466D01*
X7077135Y-74670000D01*
X7812865Y-74670000D01*
X8534459Y-74526466D01*
X9214186Y-74244914D01*
X9825924Y-73836164D01*
X10346164Y-73315924D01*
X10754914Y-72704186D01*
X11036466Y-72024459D01*
X11180000Y-71302865D01*
X11180000Y-70724721D01*
X16120000Y-70724721D01*
X16120000Y-71145279D01*
X16202047Y-71557756D01*
X16362988Y-71946302D01*
X16596637Y-72295983D01*
X16894017Y-72593363D01*
X17243698Y-72827012D01*
X17632244Y-72987953D01*
X18044721Y-73070000D01*
X18465279Y-73070000D01*
X18877756Y-72987953D01*
X19266302Y-72827012D01*
X19615983Y-72593363D01*
X19913363Y-72295983D01*
X20147012Y-71946302D01*
X20307953Y-71557756D01*
X20390000Y-71145279D01*
X20390000Y-70724721D01*
X20358655Y-70567135D01*
X23410000Y-70567135D01*
X23410000Y-71302865D01*
X23553534Y-72024459D01*
X23835086Y-72704186D01*
X24243836Y-73315924D01*
X24764076Y-73836164D01*
X25375814Y-74244914D01*
X26055541Y-74526466D01*
X26777135Y-74670000D01*
X27512865Y-74670000D01*
X28234459Y-74526466D01*
X28914186Y-74244914D01*
X29525924Y-73836164D01*
X30046164Y-73315924D01*
X30454914Y-72704186D01*
X30736466Y-72024459D01*
X30880000Y-71302865D01*
X30880000Y-70567135D01*
X57700000Y-70567135D01*
X57700000Y-71302865D01*
X57843534Y-72024459D01*
X58125086Y-72704186D01*
X58533836Y-73315924D01*
X59054076Y-73836164D01*
X59665814Y-74244914D01*
X60345541Y-74526466D01*
X61067135Y-74670000D01*
X61802865Y-74670000D01*
X62524459Y-74526466D01*
X63204186Y-74244914D01*
X63815924Y-73836164D01*
X64336164Y-73315924D01*
X64744914Y-72704186D01*
X65026466Y-72024459D01*
X65170000Y-71302865D01*
X65170000Y-70567135D01*
X65026466Y-69845541D01*
X64744914Y-69165814D01*
X64336164Y-68554076D01*
X63815924Y-68033836D01*
X63204186Y-67625086D01*
X62524459Y-67343534D01*
X61802865Y-67200000D01*
X61067135Y-67200000D01*
X60345541Y-67343534D01*
X59665814Y-67625086D01*
X59054076Y-68033836D01*
X58533836Y-68554076D01*
X58125086Y-69165814D01*
X57843534Y-69845541D01*
X57700000Y-70567135D01*
X30880000Y-70567135D01*
X30736466Y-69845541D01*
X30454914Y-69165814D01*
X30046164Y-68554076D01*
X29525924Y-68033836D01*
X28914186Y-67625086D01*
X28234459Y-67343534D01*
X27512865Y-67200000D01*
X26777135Y-67200000D01*
X26055541Y-67343534D01*
X25375814Y-67625086D01*
X24764076Y-68033836D01*
X24243836Y-68554076D01*
X23835086Y-69165814D01*
X23553534Y-69845541D01*
X23410000Y-70567135D01*
X20358655Y-70567135D01*
X20307953Y-70312244D01*
X20147012Y-69923698D01*
X19913363Y-69574017D01*
X19615983Y-69276637D01*
X19266302Y-69042988D01*
X18877756Y-68882047D01*
X18465279Y-68800000D01*
X18044721Y-68800000D01*
X17632244Y-68882047D01*
X17243698Y-69042988D01*
X16894017Y-69276637D01*
X16596637Y-69574017D01*
X16362988Y-69923698D01*
X16202047Y-70312244D01*
X16120000Y-70724721D01*
X11180000Y-70724721D01*
X11180000Y-70567135D01*
X11036466Y-69845541D01*
X10754914Y-69165814D01*
X10346164Y-68554076D01*
X9825924Y-68033836D01*
X9214186Y-67625086D01*
X8534459Y-67343534D01*
X7812865Y-67200000D01*
X7077135Y-67200000D01*
X6355541Y-67343534D01*
X5675814Y-67625086D01*
X5064076Y-68033836D01*
X4543836Y-68554076D01*
X4135086Y-69165814D01*
X3853534Y-69845541D01*
X3710000Y-70567135D01*
X685000Y-70567135D01*
X685000Y-57227135D01*
X3710000Y-57227135D01*
X3710000Y-57962865D01*
X3853534Y-58684459D01*
X4135086Y-59364186D01*
X4543836Y-59975924D01*
X5064076Y-60496164D01*
X5675814Y-60904914D01*
X6355541Y-61186466D01*
X7077135Y-61330000D01*
X7812865Y-61330000D01*
X8534459Y-61186466D01*
X9214186Y-60904914D01*
X9825924Y-60496164D01*
X10346164Y-59975924D01*
X10754914Y-59364186D01*
X11036466Y-58684459D01*
X11180000Y-57962865D01*
X11180000Y-57384721D01*
X16120000Y-57384721D01*
X16120000Y-57805279D01*
X16202047Y-58217756D01*
X16362988Y-58606302D01*
X16596637Y-58955983D01*
X16894017Y-59253363D01*
X17243698Y-59487012D01*
X17632244Y-59647953D01*
X18044721Y-59730000D01*
X18465279Y-59730000D01*
X18877756Y-59647953D01*
X19266302Y-59487012D01*
X19615983Y-59253363D01*
X19913363Y-58955983D01*
X20147012Y-58606302D01*
X20307953Y-58217756D01*
X20390000Y-57805279D01*
X20390000Y-57384721D01*
X20358655Y-57227135D01*
X23410000Y-57227135D01*
X23410000Y-57962865D01*
X23553534Y-58684459D01*
X23835086Y-59364186D01*
X24243836Y-59975924D01*
X24764076Y-60496164D01*
X25375814Y-60904914D01*
X26055541Y-61186466D01*
X26777135Y-61330000D01*
X27512865Y-61330000D01*
X28234459Y-61186466D01*
X28914186Y-60904914D01*
X29525924Y-60496164D01*
X30046164Y-59975924D01*
X30454914Y-59364186D01*
X30736466Y-58684459D01*
X30880000Y-57962865D01*
X30880000Y-57374872D01*
X59465000Y-57374872D01*
X59465000Y-57815128D01*
X59550890Y-58246925D01*
X59719369Y-58653669D01*
X59963962Y-59019729D01*
X60275271Y-59331038D01*
X60641331Y-59575631D01*
X61048075Y-59744110D01*
X61479872Y-59830000D01*
X61920128Y-59830000D01*
X62351925Y-59744110D01*
X62758669Y-59575631D01*
X63124729Y-59331038D01*
X63436038Y-59019729D01*
X63680631Y-58653669D01*
X63849110Y-58246925D01*
X63935000Y-57815128D01*
X63935000Y-57374872D01*
X63849110Y-56943075D01*
X63680631Y-56536331D01*
X63436038Y-56170271D01*
X63124729Y-55858962D01*
X62758669Y-55614369D01*
X62351925Y-55445890D01*
X61920128Y-55360000D01*
X61479872Y-55360000D01*
X61048075Y-55445890D01*
X60641331Y-55614369D01*
X60275271Y-55858962D01*
X59963962Y-56170271D01*
X59719369Y-56536331D01*
X59550890Y-56943075D01*
X59465000Y-57374872D01*
X30880000Y-57374872D01*
X30880000Y-57227135D01*
X30736466Y-56505541D01*
X30454914Y-55825814D01*
X30046164Y-55214076D01*
X29525924Y-54693836D01*
X28914186Y-54285086D01*
X28234459Y-54003534D01*
X27512865Y-53860000D01*
X26777135Y-53860000D01*
X26055541Y-54003534D01*
X25375814Y-54285086D01*
X24764076Y-54693836D01*
X24243836Y-55214076D01*
X23835086Y-55825814D01*
X23553534Y-56505541D01*
X23410000Y-57227135D01*
X20358655Y-57227135D01*
X20307953Y-56972244D01*
X20147012Y-56583698D01*
X19913363Y-56234017D01*
X19615983Y-55936637D01*
X19266302Y-55702988D01*
X18877756Y-55542047D01*
X18465279Y-55460000D01*
X18044721Y-55460000D01*
X17632244Y-55542047D01*
X17243698Y-55702988D01*
X16894017Y-55936637D01*
X16596637Y-56234017D01*
X16362988Y-56583698D01*
X16202047Y-56972244D01*
X16120000Y-57384721D01*
X11180000Y-57384721D01*
X11180000Y-57227135D01*
X11036466Y-56505541D01*
X10754914Y-55825814D01*
X10346164Y-55214076D01*
X9825924Y-54693836D01*
X9214186Y-54285086D01*
X8534459Y-54003534D01*
X7812865Y-53860000D01*
X7077135Y-53860000D01*
X6355541Y-54003534D01*
X5675814Y-54285086D01*
X5064076Y-54693836D01*
X4543836Y-55214076D01*
X4135086Y-55825814D01*
X3853534Y-56505541D01*
X3710000Y-57227135D01*
X685000Y-57227135D01*
X685000Y-43887135D01*
X3710000Y-43887135D01*
X3710000Y-44622865D01*
X3853534Y-45344459D01*
X4135086Y-46024186D01*
X4543836Y-46635924D01*
X5064076Y-47156164D01*
X5675814Y-47564914D01*
X6355541Y-47846466D01*
X7077135Y-47990000D01*
X7812865Y-47990000D01*
X8534459Y-47846466D01*
X9214186Y-47564914D01*
X9825924Y-47156164D01*
X10346164Y-46635924D01*
X10754914Y-46024186D01*
X11036466Y-45344459D01*
X11180000Y-44622865D01*
X11180000Y-44044721D01*
X16120000Y-44044721D01*
X16120000Y-44465279D01*
X16202047Y-44877756D01*
X16362988Y-45266302D01*
X16596637Y-45615983D01*
X16894017Y-45913363D01*
X17243698Y-46147012D01*
X17632244Y-46307953D01*
X18044721Y-46390000D01*
X18465279Y-46390000D01*
X18877756Y-46307953D01*
X19266302Y-46147012D01*
X19615983Y-45913363D01*
X19913363Y-45615983D01*
X20147012Y-45266302D01*
X20307953Y-44877756D01*
X20390000Y-44465279D01*
X20390000Y-44044721D01*
X20358655Y-43887135D01*
X23410000Y-43887135D01*
X23410000Y-44622865D01*
X23553534Y-45344459D01*
X23835086Y-46024186D01*
X24243836Y-46635924D01*
X24764076Y-47156164D01*
X25375814Y-47564914D01*
X26055541Y-47846466D01*
X26777135Y-47990000D01*
X27512865Y-47990000D01*
X28234459Y-47846466D01*
X28914186Y-47564914D01*
X29525924Y-47156164D01*
X30046164Y-46635924D01*
X30454914Y-46024186D01*
X30736466Y-45344459D01*
X30880000Y-44622865D01*
X30880000Y-43936380D01*
X58465000Y-43936380D01*
X58465000Y-44573620D01*
X58589319Y-45198615D01*
X58833180Y-45787347D01*
X59187211Y-46317192D01*
X59637808Y-46767789D01*
X60167653Y-47121820D01*
X60756385Y-47365681D01*
X61381380Y-47490000D01*
X62018620Y-47490000D01*
X62643615Y-47365681D01*
X63232347Y-47121820D01*
X63762192Y-46767789D01*
X64212789Y-46317192D01*
X64566820Y-45787347D01*
X64810681Y-45198615D01*
X64935000Y-44573620D01*
X64935000Y-43936380D01*
X64810681Y-43311385D01*
X64566820Y-42722653D01*
X64212789Y-42192808D01*
X63762192Y-41742211D01*
X63232347Y-41388180D01*
X62643615Y-41144319D01*
X62018620Y-41020000D01*
X61381380Y-41020000D01*
X60756385Y-41144319D01*
X60167653Y-41388180D01*
X59637808Y-41742211D01*
X59187211Y-42192808D01*
X58833180Y-42722653D01*
X58589319Y-43311385D01*
X58465000Y-43936380D01*
X30880000Y-43936380D01*
X30880000Y-43887135D01*
X30736466Y-43165541D01*
X30454914Y-42485814D01*
X30046164Y-41874076D01*
X29525924Y-41353836D01*
X28914186Y-40945086D01*
X28234459Y-40663534D01*
X27512865Y-40520000D01*
X26777135Y-40520000D01*
X26055541Y-40663534D01*
X25375814Y-40945086D01*
X24764076Y-41353836D01*
X24243836Y-41874076D01*
X23835086Y-42485814D01*
X23553534Y-43165541D01*
X23410000Y-43887135D01*
X20358655Y-43887135D01*
X20307953Y-43632244D01*
X20147012Y-43243698D01*
X19913363Y-42894017D01*
X19615983Y-42596637D01*
X19266302Y-42362988D01*
X18877756Y-42202047D01*
X18465279Y-42120000D01*
X18044721Y-42120000D01*
X17632244Y-42202047D01*
X17243698Y-42362988D01*
X16894017Y-42596637D01*
X16596637Y-42894017D01*
X16362988Y-43243698D01*
X16202047Y-43632244D01*
X16120000Y-44044721D01*
X11180000Y-44044721D01*
X11180000Y-43887135D01*
X11036466Y-43165541D01*
X10754914Y-42485814D01*
X10346164Y-41874076D01*
X9825924Y-41353836D01*
X9214186Y-40945086D01*
X8534459Y-40663534D01*
X7812865Y-40520000D01*
X7077135Y-40520000D01*
X6355541Y-40663534D01*
X5675814Y-40945086D01*
X5064076Y-41353836D01*
X4543836Y-41874076D01*
X4135086Y-42485814D01*
X3853534Y-43165541D01*
X3710000Y-43887135D01*
X685000Y-43887135D01*
X685000Y-30547135D01*
X3710000Y-30547135D01*
X3710000Y-31282865D01*
X3853534Y-32004459D01*
X4135086Y-32684186D01*
X4543836Y-33295924D01*
X5064076Y-33816164D01*
X5675814Y-34224914D01*
X6355541Y-34506466D01*
X7077135Y-34650000D01*
X7812865Y-34650000D01*
X8534459Y-34506466D01*
X9214186Y-34224914D01*
X9825924Y-33816164D01*
X10346164Y-33295924D01*
X10754914Y-32684186D01*
X11036466Y-32004459D01*
X11180000Y-31282865D01*
X11180000Y-30704721D01*
X16120000Y-30704721D01*
X16120000Y-31125279D01*
X16202047Y-31537756D01*
X16362988Y-31926302D01*
X16596637Y-32275983D01*
X16894017Y-32573363D01*
X17243698Y-32807012D01*
X17632244Y-32967953D01*
X18044721Y-33050000D01*
X18465279Y-33050000D01*
X18877756Y-32967953D01*
X19266302Y-32807012D01*
X19615983Y-32573363D01*
X19913363Y-32275983D01*
X20147012Y-31926302D01*
X20307953Y-31537756D01*
X20390000Y-31125279D01*
X20390000Y-30704721D01*
X20358655Y-30547135D01*
X23410000Y-30547135D01*
X23410000Y-31282865D01*
X23553534Y-32004459D01*
X23835086Y-32684186D01*
X24243836Y-33295924D01*
X24764076Y-33816164D01*
X25375814Y-34224914D01*
X26055541Y-34506466D01*
X26777135Y-34650000D01*
X27512865Y-34650000D01*
X28234459Y-34506466D01*
X28914186Y-34224914D01*
X29525924Y-33816164D01*
X30046164Y-33295924D01*
X30454914Y-32684186D01*
X30736466Y-32004459D01*
X30880000Y-31282865D01*
X30880000Y-30694872D01*
X59465000Y-30694872D01*
X59465000Y-31135128D01*
X59550890Y-31566925D01*
X59719369Y-31973669D01*
X59963962Y-32339729D01*
X60275271Y-32651038D01*
X60641331Y-32895631D01*
X61048075Y-33064110D01*
X61479872Y-33150000D01*
X61920128Y-33150000D01*
X62351925Y-33064110D01*
X62758669Y-32895631D01*
X63124729Y-32651038D01*
X63436038Y-32339729D01*
X63680631Y-31973669D01*
X63849110Y-31566925D01*
X63935000Y-31135128D01*
X63935000Y-30694872D01*
X63849110Y-30263075D01*
X63680631Y-29856331D01*
X63436038Y-29490271D01*
X63124729Y-29178962D01*
X62758669Y-28934369D01*
X62351925Y-28765890D01*
X61920128Y-28680000D01*
X61479872Y-28680000D01*
X61048075Y-28765890D01*
X60641331Y-28934369D01*
X60275271Y-29178962D01*
X59963962Y-29490271D01*
X59719369Y-29856331D01*
X59550890Y-30263075D01*
X59465000Y-30694872D01*
X30880000Y-30694872D01*
X30880000Y-30547135D01*
X30736466Y-29825541D01*
X30454914Y-29145814D01*
X30046164Y-28534076D01*
X29525924Y-28013836D01*
X28914186Y-27605086D01*
X28234459Y-27323534D01*
X27512865Y-27180000D01*
X26777135Y-27180000D01*
X26055541Y-27323534D01*
X25375814Y-27605086D01*
X24764076Y-28013836D01*
X24243836Y-28534076D01*
X23835086Y-29145814D01*
X23553534Y-29825541D01*
X23410000Y-30547135D01*
X20358655Y-30547135D01*
X20307953Y-30292244D01*
X20147012Y-29903698D01*
X19913363Y-29554017D01*
X19615983Y-29256637D01*
X19266302Y-29022988D01*
X18877756Y-28862047D01*
X18465279Y-28780000D01*
X18044721Y-28780000D01*
X17632244Y-28862047D01*
X17243698Y-29022988D01*
X16894017Y-29256637D01*
X16596637Y-29554017D01*
X16362988Y-29903698D01*
X16202047Y-30292244D01*
X16120000Y-30704721D01*
X11180000Y-30704721D01*
X11180000Y-30547135D01*
X11036466Y-29825541D01*
X10754914Y-29145814D01*
X10346164Y-28534076D01*
X9825924Y-28013836D01*
X9214186Y-27605086D01*
X8534459Y-27323534D01*
X7812865Y-27180000D01*
X7077135Y-27180000D01*
X6355541Y-27323534D01*
X5675814Y-27605086D01*
X5064076Y-28013836D01*
X4543836Y-28534076D01*
X4135086Y-29145814D01*
X3853534Y-29825541D01*
X3710000Y-30547135D01*
X685000Y-30547135D01*
X685000Y-17207135D01*
X3710000Y-17207135D01*
X3710000Y-17942865D01*
X3853534Y-18664459D01*
X4135086Y-19344186D01*
X4543836Y-19955924D01*
X5064076Y-20476164D01*
X5675814Y-20884914D01*
X6355541Y-21166466D01*
X7077135Y-21310000D01*
X7812865Y-21310000D01*
X8534459Y-21166466D01*
X9214186Y-20884914D01*
X9825924Y-20476164D01*
X10346164Y-19955924D01*
X10754914Y-19344186D01*
X11036466Y-18664459D01*
X11180000Y-17942865D01*
X11180000Y-17364721D01*
X16120000Y-17364721D01*
X16120000Y-17785279D01*
X16202047Y-18197756D01*
X16362988Y-18586302D01*
X16596637Y-18935983D01*
X16894017Y-19233363D01*
X17243698Y-19467012D01*
X17632244Y-19627953D01*
X18044721Y-19710000D01*
X18465279Y-19710000D01*
X18877756Y-19627953D01*
X19266302Y-19467012D01*
X19615983Y-19233363D01*
X19913363Y-18935983D01*
X20147012Y-18586302D01*
X20307953Y-18197756D01*
X20390000Y-17785279D01*
X20390000Y-17364721D01*
X20358655Y-17207135D01*
X23410000Y-17207135D01*
X23410000Y-17942865D01*
X23553534Y-18664459D01*
X23835086Y-19344186D01*
X24243836Y-19955924D01*
X24764076Y-20476164D01*
X25375814Y-20884914D01*
X26055541Y-21166466D01*
X26777135Y-21310000D01*
X27512865Y-21310000D01*
X28234459Y-21166466D01*
X28914186Y-20884914D01*
X29525924Y-20476164D01*
X30046164Y-19955924D01*
X30454914Y-19344186D01*
X30736466Y-18664459D01*
X30880000Y-17942865D01*
X30880000Y-17207135D01*
X57700000Y-17207135D01*
X57700000Y-17942865D01*
X57843534Y-18664459D01*
X58125086Y-19344186D01*
X58533836Y-19955924D01*
X59054076Y-20476164D01*
X59665814Y-20884914D01*
X60345541Y-21166466D01*
X61067135Y-21310000D01*
X61802865Y-21310000D01*
X62524459Y-21166466D01*
X63204186Y-20884914D01*
X63815924Y-20476164D01*
X64336164Y-19955924D01*
X64744914Y-19344186D01*
X65026466Y-18664459D01*
X65170000Y-17942865D01*
X65170000Y-17207135D01*
X65026466Y-16485541D01*
X64744914Y-15805814D01*
X64336164Y-15194076D01*
X63815924Y-14673836D01*
X63204186Y-14265086D01*
X62524459Y-13983534D01*
X61802865Y-13840000D01*
X61067135Y-13840000D01*
X60345541Y-13983534D01*
X59665814Y-14265086D01*
X59054076Y-14673836D01*
X58533836Y-15194076D01*
X58125086Y-15805814D01*
X57843534Y-16485541D01*
X57700000Y-17207135D01*
X30880000Y-17207135D01*
X30736466Y-16485541D01*
X30454914Y-15805814D01*
X30046164Y-15194076D01*
X29525924Y-14673836D01*
X28914186Y-14265086D01*
X28234459Y-13983534D01*
X27512865Y-13840000D01*
X26777135Y-13840000D01*
X26055541Y-13983534D01*
X25375814Y-14265086D01*
X24764076Y-14673836D01*
X24243836Y-15194076D01*
X23835086Y-15805814D01*
X23553534Y-16485541D01*
X23410000Y-17207135D01*
X20358655Y-17207135D01*
X20307953Y-16952244D01*
X20147012Y-16563698D01*
X19913363Y-16214017D01*
X19615983Y-15916637D01*
X19266302Y-15682988D01*
X18877756Y-15522047D01*
X18465279Y-15440000D01*
X18044721Y-15440000D01*
X17632244Y-15522047D01*
X17243698Y-15682988D01*
X16894017Y-15916637D01*
X16596637Y-16214017D01*
X16362988Y-16563698D01*
X16202047Y-16952244D01*
X16120000Y-17364721D01*
X11180000Y-17364721D01*
X11180000Y-17207135D01*
X11036466Y-16485541D01*
X10754914Y-15805814D01*
X10346164Y-15194076D01*
X9825924Y-14673836D01*
X9214186Y-14265086D01*
X8534459Y-13983534D01*
X7812865Y-13840000D01*
X7077135Y-13840000D01*
X6355541Y-13983534D01*
X5675814Y-14265086D01*
X5064076Y-14673836D01*
X4543836Y-15194076D01*
X4135086Y-15805814D01*
X3853534Y-16485541D01*
X3710000Y-17207135D01*
X685000Y-17207135D01*
X685000Y-2779872D01*
X5265000Y-2779872D01*
X5265000Y-3220128D01*
X5350890Y-3651925D01*
X5519369Y-4058669D01*
X5763962Y-4424729D01*
X6075271Y-4736038D01*
X6441331Y-4980631D01*
X6848075Y-5149110D01*
X7279872Y-5235000D01*
X7720128Y-5235000D01*
X8151925Y-5149110D01*
X8558669Y-4980631D01*
X8924729Y-4736038D01*
X9236038Y-4424729D01*
X9480631Y-4058669D01*
X9649110Y-3651925D01*
X9735000Y-3220128D01*
X9735000Y-2779872D01*
X61145000Y-2779872D01*
X61145000Y-3220128D01*
X61230890Y-3651925D01*
X61399369Y-4058669D01*
X61643962Y-4424729D01*
X61955271Y-4736038D01*
X62321331Y-4980631D01*
X62728075Y-5149110D01*
X63159872Y-5235000D01*
X63600128Y-5235000D01*
X64031925Y-5149110D01*
X64438669Y-4980631D01*
X64804729Y-4736038D01*
X65116038Y-4424729D01*
X65360631Y-4058669D01*
X65529110Y-3651925D01*
X65615000Y-3220128D01*
X65615000Y-2779872D01*
X65529110Y-2348075D01*
X65360631Y-1941331D01*
X65116038Y-1575271D01*
X64804729Y-1263962D01*
X64438669Y-1019369D01*
X64031925Y-850890D01*
X63600128Y-765000D01*
X63159872Y-765000D01*
X62728075Y-850890D01*
X62321331Y-1019369D01*
X61955271Y-1263962D01*
X61643962Y-1575271D01*
X61399369Y-1941331D01*
X61230890Y-2348075D01*
X61145000Y-2779872D01*
X9735000Y-2779872D01*
X9649110Y-2348075D01*
X9480631Y-1941331D01*
X9236038Y-1575271D01*
X8924729Y-1263962D01*
X8558669Y-1019369D01*
X8151925Y-850890D01*
X7720128Y-765000D01*
X7279872Y-765000D01*
X6848075Y-850890D01*
X6441331Y-1019369D01*
X6075271Y-1263962D01*
X5763962Y-1575271D01*
X5519369Y-1941331D01*
X5350890Y-2348075D01*
X5265000Y-2779872D01*
X685000Y-2779872D01*
X685000Y-685000D01*
X70115000Y-685000D01*
X70115001Y-127815000D01*
G37*
G04 #@! TD.AperFunction*
M02*
