<?xml version="1.0" encoding="UTF-8" standalone="no"?>
<!-- Created with Inkscape (http://www.inkscape.org/) -->

<svg
   width="105mm"
   height="148.5mm"
   viewBox="0 0 105 148.5"
   version="1.1"
   id="svg39968"
   inkscape:version="1.1.1 (3bf5ae0d25, 2021-09-20)"
   sodipodi:docname="Handbuch Seite 4.svg"
   xmlns:inkscape="http://www.inkscape.org/namespaces/inkscape"
   xmlns:sodipodi="http://sodipodi.sourceforge.net/DTD/sodipodi-0.dtd"
   xmlns="http://www.w3.org/2000/svg"
   xmlns:svg="http://www.w3.org/2000/svg">
  <sodipodi:namedview
     id="namedview39970"
     pagecolor="#ffffff"
     bordercolor="#666666"
     borderopacity="1.0"
     inkscape:pageshadow="2"
     inkscape:pageopacity="0.0"
     inkscape:pagecheckerboard="0"
     inkscape:document-units="mm"
     showgrid="false"
     showguides="true"
     inkscape:guide-bbox="true"
     inkscape:zoom="1.0985947"
     inkscape:cx="133.35218"
     inkscape:cy="379.12071"
     inkscape:window-width="1920"
     inkscape:window-height="1057"
     inkscape:window-x="-8"
     inkscape:window-y="-8"
     inkscape:window-maximized="1"
     inkscape:current-layer="layer1">
    <sodipodi:guide
       position="5,148.5"
       orientation="-1,0"
       id="guide40029"
       inkscape:label=""
       inkscape:locked="true"
       inkscape:color="rgb(204,0,0)" />
    <sodipodi:guide
       position="100,148.5"
       orientation="-1,0"
       id="guide40031"
       inkscape:label=""
       inkscape:locked="true"
       inkscape:color="rgb(204,0,0)" />
    <sodipodi:guide
       position="0,143.5"
       orientation="0,1"
       id="guide40033"
       inkscape:label=""
       inkscape:locked="true"
       inkscape:color="rgb(204,0,0)" />
    <sodipodi:guide
       position="0,5"
       orientation="0,1"
       id="guide40035"
       inkscape:label=""
       inkscape:locked="true"
       inkscape:color="rgb(204,0,0)" />
  </sodipodi:namedview>
  <defs
     id="defs39965" />
  <g
     inkscape:label="Ebene 1"
     inkscape:groupmode="layer"
     id="layer1">
    <rect
       style="vector-effect:non-scaling-stroke;fill:#000000;fill-opacity:1;stroke:none;stroke-width:0.00143078;stroke-linecap:round;-inkscape-stroke:hairline"
       id="rect55399"
       width="95"
       height="1"
       x="5"
       y="142.5" />
    <rect
       style="vector-effect:non-scaling-stroke;fill:#000000;fill-opacity:1;stroke:none;stroke-width:0.00143078;stroke-linecap:round;-inkscape-stroke:hairline"
       id="rect55399-6"
       width="95"
       height="1"
       x="5"
       y="5.0000005" />
    <text
       xml:space="preserve"
       style="font-style:normal;font-variant:normal;font-weight:normal;font-stretch:normal;font-size:5px;line-height:1.25;font-family:'OCR A Extended';-inkscape-font-specification:'OCR A Extended';text-align:end;text-anchor:end;fill:#000000;fill-opacity:1;stroke:none;stroke-width:0.264583"
       x="95.359192"
       y="126.54248"
       id="text85205"><tspan
         sodipodi:role="line"
         id="tspan85203"
         style="font-style:normal;font-variant:normal;font-weight:normal;font-stretch:normal;font-size:7px;font-family:'OCR A Extended';-inkscape-font-specification:'OCR A Extended';text-align:end;text-anchor:end;stroke-width:0.264583"
         x="95.359192"
         y="126.54248">CATs EuroSynth</tspan><tspan
         sodipodi:role="line"
         style="font-style:normal;font-variant:normal;font-weight:normal;font-stretch:normal;font-size:4px;font-family:'OCR A Extended';-inkscape-font-specification:'OCR A Extended';text-align:end;text-anchor:end;stroke-width:0.264583"
         x="95.359192"
         y="133.46877"
         id="tspan87649">Dr. Michael Zülch</tspan><tspan
         sodipodi:role="line"
         style="font-style:normal;font-variant:normal;font-weight:normal;font-stretch:normal;font-size:4px;font-family:'OCR A Extended';-inkscape-font-specification:'OCR A Extended';text-align:end;text-anchor:end;stroke-width:0.264583"
         x="95.359192"
         y="139.71877"
         id="tspan89433">cats.synth@gmx.de</tspan></text>
    <g
       inkscape:label="QR Code: https://github.com/mzuelch/CATs-Eurosynth"
       transform="matrix(0.264583,0,0,0.264583,32.921,54.671)"
       id="g127369">
      <rect
         x="0"
         y="0"
         width="148"
         height="148"
         style="fill:#ffffff;stroke:none"
         id="rect127363" />
      <g
         style="fill:#000000;stroke:none"
         id="g127367">
        <path
           d="m 127.6,132 h -3.2 c -0.22091,0 -0.4,-0.17909 -0.4,-0.4 v -7.2 c 0,-0.22091 0.17909,-0.4 0.4,-0.4 h 3.2 c 0.22091,0 0.4,0.17909 0.4,0.4 v 7.2 c 0,0.22091 -0.17909,0.4 -0.4,0.4 z m -8,0 H 96.4 c -0.220914,0 -0.4,-0.17909 -0.4,-0.4 v -3.2 C 96,128.17909 95.820914,128 95.6,128 H 84.4 c -0.220914,0 -0.4,0.17909 -0.4,0.4 v 3.2 c 0,0.22091 -0.179086,0.4 -0.4,0.4 h -3.2 c -0.220914,0 -0.4,-0.17909 -0.4,-0.4 v -3.2 c 0,-0.22091 -0.179086,-0.4 -0.4,-0.4 h -3.2 c -0.220914,0 -0.4,-0.17909 -0.4,-0.4 v -3.2 c 0,-0.22091 0.179086,-0.4 0.4,-0.4 h 3.2 c 0.220914,0 0.4,-0.17909 0.4,-0.4 v -3.2 c 0,-0.22091 0.179086,-0.4 0.4,-0.4 h 3.2 c 0.220914,0 0.4,-0.17909 0.4,-0.4 v -3.2 c 0,-0.22091 0.179086,-0.4 0.4,-0.4 h 3.2 c 0.220914,0 0.4,0.17909 0.4,0.4 v 3.2 c 0,0.22091 0.179086,0.4 0.4,0.4 h 3.2 c 0.220914,0 0.4,-0.17909 0.4,-0.4 v -3.2 c 0,-0.22091 0.179086,-0.4 0.4,-0.4 h 3.2 c 0.220914,0 0.4,-0.17909 0.4,-0.4 V 104.4 C 96,104.17909 95.820914,104 95.6,104 H 92.4 C 92.179086,104 92,103.82091 92,103.6 V 96.4 C 92,96.179086 92.179086,96 92.4,96 h 3.2 C 95.820914,96 96,95.820914 96,95.6 V 92.4 C 96,92.179086 96.179086,92 96.4,92 h 3.2 c 0.220914,0 0.4,-0.179086 0.4,-0.4 V 88.4 C 100,88.179086 99.820914,88 99.6,88 H 96.4 C 96.179086,88 96,87.820914 96,87.6 V 72.4 C 96,72.179086 95.820914,72 95.6,72 H 92.4 C 92.179086,72 92,71.820914 92,71.6 V 64.4 C 92,64.179086 91.820914,64 91.6,64 H 88.4 C 88.179086,64 88,63.820914 88,63.6 V 60.4 C 88,60.179086 87.820914,60 87.6,60 H 84.4 C 84.179086,60 84,60.179086 84,60.4 v 3.2 C 84,63.820914 83.820914,64 83.6,64 H 72.4 C 72.179086,64 72,64.179086 72,64.4 v 3.2 C 72,67.820914 71.820914,68 71.6,68 H 68.4 C 68.179086,68 68,67.820914 68,67.6 V 60.4 C 68,60.179086 68.179086,60 68.4,60 H 79.6 C 79.820914,60 80,59.820914 80,59.6 V 52.4 C 80,52.179086 80.179086,52 80.4,52 h 7.2 c 0.220914,0 0.4,0.179086 0.4,0.4 v 3.2 c 0,0.220914 0.179086,0.4 0.4,0.4 h 7.2 c 0.220914,0 0.4,0.179086 0.4,0.4 v 7.2 c 0,0.220914 0.179086,0.4 0.4,0.4 h 11.2 c 0.22091,0 0.4,0.179086 0.4,0.4 v 3.2 c 0,0.220914 -0.17909,0.4 -0.4,0.4 h -3.2 c -0.22091,0 -0.4,0.179086 -0.4,0.4 v 3.2 c 0,0.220914 -0.17909,0.4 -0.4,0.4 h -3.2 c -0.22091,0 -0.4,0.179086 -0.4,0.4 v 3.2 c 0,0.220914 0.17909,0.4 0.4,0.4 h 3.2 c 0.22091,0 0.4,-0.179086 0.4,-0.4 v -3.2 c 0,-0.220914 0.17909,-0.4 0.4,-0.4 h 27.2 c 0.22091,0 0.4,0.179086 0.4,0.4 v 3.2 c 0,0.220914 -0.17909,0.4 -0.4,0.4 h -3.2 c -0.22091,0 -0.4,0.179086 -0.4,0.4 v 7.2 c 0,0.220914 -0.17909,0.4 -0.4,0.4 h -3.2 c -0.22091,0 -0.4,-0.179086 -0.4,-0.4 v -7.2 c 0,-0.220914 -0.17909,-0.4 -0.4,-0.4 h -3.2 c -0.22091,0 -0.4,0.179086 -0.4,0.4 v 3.2 c 0,0.220914 -0.17909,0.4 -0.4,0.4 h -3.2 c -0.22091,0 -0.4,-0.179086 -0.4,-0.4 v -3.2 c 0,-0.220914 -0.17909,-0.4 -0.4,-0.4 h -7.2 c -0.22091,0 -0.4,0.179086 -0.4,0.4 v 3.2 c 0,0.220914 -0.17909,0.4 -0.4,0.4 h -7.2 c -0.22091,0 -0.4,0.179086 -0.4,0.4 v 3.2 c 0,0.220914 0.17909,0.4 0.4,0.4 h 7.2 c 0.22091,0 0.4,-0.179086 0.4,-0.4 v -3.2 c 0,-0.220914 0.17909,-0.4 0.4,-0.4 h 3.2 c 0.22091,0 0.4,0.179086 0.4,0.4 v 7.2 c 0,0.220914 0.17909,0.4 0.4,0.4 h 3.2 c 0.22091,0 0.4,0.179086 0.4,0.4 v 19.2 c 0,0.22091 0.17909,0.4 0.4,0.4 h 7.2 c 0.22091,0 0.4,0.17909 0.4,0.4 v 3.2 c 0,0.22091 -0.17909,0.4 -0.4,0.4 h -7.2 c -0.22091,0 -0.4,0.17909 -0.4,0.4 v 3.2 c 0,0.22091 0.17909,0.4 0.4,0.4 h 11.2 c 0.22091,0 0.4,0.17909 0.4,0.4 v 3.2 c 0,0.22091 -0.17909,0.4 -0.4,0.4 h -3.2 c -0.22091,0 -0.4,0.17909 -0.4,0.4 v 3.2 c 0,0.22091 -0.17909,0.4 -0.4,0.4 h -7.2 c -0.22091,0 -0.4,0.17909 -0.4,0.4 v 3.2 c 0,0.22091 0.17909,0.4 0.4,0.4 h 3.2 c 0.22091,0 0.4,0.17909 0.4,0.4 v 3.2 c 0,0.22091 -0.17909,0.4 -0.4,0.4 z m -52,0 h -7.2 c -0.220914,0 -0.4,-0.17909 -0.4,-0.4 v -7.2 c 0,-0.22091 -0.179086,-0.4 -0.4,-0.4 h -7.2 c -0.220914,0 -0.4,-0.17909 -0.4,-0.4 v -3.2 c 0,-0.22091 0.179086,-0.4 0.4,-0.4 h 3.2 c 0.220914,0 0.4,-0.17909 0.4,-0.4 v -3.2 c 0,-0.22091 0.179086,-0.4 0.4,-0.4 h 15.2 c 0.220914,0 0.4,0.17909 0.4,0.4 v 3.2 c 0,0.22091 0.179086,0.4 0.4,0.4 h 3.2 c 0.220914,0 0.4,0.17909 0.4,0.4 v 3.2 c 0,0.22091 -0.179086,0.4 -0.4,0.4 H 64.4 c -0.220914,0 -0.4,0.17909 -0.4,0.4 v 3.2 c 0,0.22091 0.179086,0.4 0.4,0.4 h 3.2 c 0.220914,0 0.4,0.17909 0.4,0.4 v 3.2 c 0,0.22091 -0.179086,0.4 -0.4,0.4 z m -16,0 h -3.2 c -0.220914,0 -0.4,-0.17909 -0.4,-0.4 v -3.2 c 0,-0.22091 0.179086,-0.4 0.4,-0.4 h 3.2 c 0.220914,0 0.4,0.17909 0.4,0.4 v 3.2 c 0,0.22091 -0.179086,0.4 -0.4,0.4 z m -8,0 H 16.4 c -0.220914,0 -0.4,-0.17909 -0.4,-0.4 v -27.2 c 0,-0.22091 0.179086,-0.4 0.4,-0.4 h 27.2 c 0.220914,0 0.4,0.17909 0.4,0.4 v 27.2 c 0,0.22091 -0.179086,0.4 -0.4,0.4 z m 68.4,-4.4 v -7.2 c 0,-0.22091 -0.17909,-0.4 -0.4,-0.4 h -7.2 c -0.22091,0 -0.4,-0.17909 -0.4,-0.4 v -3.2 c 0,-0.22091 -0.17909,-0.4 -0.4,-0.4 h -3.2 c -0.22091,0 -0.4,0.17909 -0.4,0.4 v 7.2 c 0,0.22091 0.17909,0.4 0.4,0.4 h 3.2 c 0.22091,0 0.4,0.17909 0.4,0.4 v 3.2 c 0,0.22091 0.17909,0.4 0.4,0.4 h 7.2 c 0.22091,0 0.4,-0.17909 0.4,-0.4 z m -72,0 V 108.4 C 40,108.17909 39.820914,108 39.6,108 H 20.4 c -0.220914,0 -0.4,0.17909 -0.4,0.4 v 19.2 c 0,0.22091 0.179086,0.4 0.4,0.4 h 19.2 c 0.220914,0 0.4,-0.17909 0.4,-0.4 z m 91.6,-3.6 h -3.2 c -0.22091,0 -0.4,-0.17909 -0.4,-0.4 v -3.2 c 0,-0.22091 0.17909,-0.4 0.4,-0.4 h 3.2 c 0.22091,0 0.4,0.17909 0.4,0.4 v 3.2 c 0,0.22091 -0.17909,0.4 -0.4,0.4 z m -96,0 H 24.4 c -0.220914,0 -0.4,-0.17909 -0.4,-0.4 v -11.2 c 0,-0.22091 0.179086,-0.4 0.4,-0.4 h 11.2 c 0.220914,0 0.4,0.17909 0.4,0.4 v 11.2 c 0,0.22091 -0.179086,0.4 -0.4,0.4 z m 16,-4 h -3.2 c -0.220914,0 -0.4,-0.17909 -0.4,-0.4 v -3.2 c 0,-0.22091 0.179086,-0.4 0.4,-0.4 h 3.2 c 0.220914,0 0.4,0.17909 0.4,0.4 v 3.2 c 0,0.22091 -0.179086,0.4 -0.4,0.4 z m 4,-4 h -3.2 c -0.220914,0 -0.4,-0.17909 -0.4,-0.4 v -3.2 c 0,-0.22091 -0.179086,-0.4 -0.4,-0.4 h -3.2 c -0.220914,0 -0.4,-0.17909 -0.4,-0.4 v -3.2 c 0,-0.22091 0.179086,-0.4 0.4,-0.4 h 3.2 c 0.220914,0 0.4,-0.17909 0.4,-0.4 v -3.2 c 0,-0.22091 -0.179086,-0.4 -0.4,-0.4 h -3.2 c -0.220914,0 -0.4,-0.17909 -0.4,-0.4 v -3.2 c 0,-0.22091 0.179086,-0.4 0.4,-0.4 h 7.2 c 0.220914,0 0.4,0.17909 0.4,0.4 v 3.2 c 0,0.22091 0.179086,0.4 0.4,0.4 h 3.2 c 0.220914,0 0.4,-0.17909 0.4,-0.4 v -3.2 C 60,100.17909 59.820914,100 59.6,100 H 56.4 C 56.179086,100 56,99.820914 56,99.6 V 96.4 C 56,96.179086 55.820914,96 55.6,96 H 48.4 C 48.179086,96 48,95.820914 48,95.6 V 92.4 C 48,92.179086 47.820914,92 47.6,92 H 40.4 C 40.179086,92 40,92.179086 40,92.4 v 3.2 c 0,0.220914 0.179086,0.4 0.4,0.4 h 3.2 c 0.220914,0 0.4,0.179086 0.4,0.4 v 3.2 c 0,0.220914 -0.179086,0.4 -0.4,0.4 H 36.4 C 36.179086,100 36,99.820914 36,99.6 V 88.4 C 36,88.179086 35.820914,88 35.6,88 H 28.4 C 28.179086,88 28,87.820914 28,87.6 V 72.4 C 28,72.179086 28.179086,72 28.4,72 h 3.2 C 31.820914,72 32,71.820914 32,71.6 V 68.4 C 32,68.179086 31.820914,68 31.6,68 H 28.4 C 28.179086,68 28,68.179086 28,68.4 v 3.2 C 28,71.820914 27.820914,72 27.6,72 H 20.4 C 20.179086,72 20,72.179086 20,72.4 v 3.2 C 20,75.820914 19.820914,76 19.6,76 H 16.4 C 16.179086,76 16,75.820914 16,75.6 V 64.4 C 16,64.179086 16.179086,64 16.4,64 h 3.2 c 0.220914,0 0.4,0.179086 0.4,0.4 v 3.2 c 0,0.220914 0.179086,0.4 0.4,0.4 h 3.2 C 23.820914,68 24,67.820914 24,67.6 V 64.4 C 24,64.179086 23.820914,64 23.6,64 H 20.4 C 20.179086,64 20,63.820914 20,63.6 V 56.4 C 20,56.179086 20.179086,56 20.4,56 h 3.2 c 0.220914,0 0.4,0.179086 0.4,0.4 v 3.2 c 0,0.220914 0.179086,0.4 0.4,0.4 h 3.2 c 0.220914,0 0.4,0.179086 0.4,0.4 v 3.2 c 0,0.220914 0.179086,0.4 0.4,0.4 h 3.2 C 31.820914,64 32,63.820914 32,63.6 V 60.4 C 32,60.179086 32.179086,60 32.4,60 h 3.2 c 0.220914,0 0.4,0.179086 0.4,0.4 V 75.6 C 36,75.820914 35.820914,76 35.6,76 H 32.4 C 32.179086,76 32,76.179086 32,76.4 v 3.2 c 0,0.220914 0.179086,0.4 0.4,0.4 h 3.2 c 0.220914,0 0.4,0.179086 0.4,0.4 v 3.2 c 0,0.220914 0.179086,0.4 0.4,0.4 h 3.2 c 0.220914,0 0.4,0.179086 0.4,0.4 v 3.2 c 0,0.220914 0.179086,0.4 0.4,0.4 h 3.2 C 43.820914,88 44,87.820914 44,87.6 V 84.4 C 44,84.179086 44.179086,84 44.4,84 h 3.2 c 0.220914,0 0.4,0.179086 0.4,0.4 v 3.2 c 0,0.220914 0.179086,0.4 0.4,0.4 h 3.2 c 0.220914,0 0.4,0.179086 0.4,0.4 v 3.2 c 0,0.220914 0.179086,0.4 0.4,0.4 h 15.2 c 0.220914,0 0.4,0.179086 0.4,0.4 v 15.2 c 0,0.22091 -0.179086,0.4 -0.4,0.4 h -3.2 c -0.220914,0 -0.4,0.17909 -0.4,0.4 v 3.2 c 0,0.22091 -0.179086,0.4 -0.4,0.4 h -3.2 c -0.220914,0 -0.4,-0.17909 -0.4,-0.4 v -3.2 c 0,-0.22091 -0.179086,-0.4 -0.4,-0.4 h -3.2 c -0.220914,0 -0.4,0.17909 -0.4,0.4 v 7.2 c 0,0.22091 -0.179086,0.4 -0.4,0.4 z m 56.4,-4.4 v -11.2 c 0,-0.22091 -0.17909,-0.4 -0.4,-0.4 h -11.2 c -0.22091,0 -0.4,0.17909 -0.4,0.4 v 11.2 c 0,0.22091 0.17909,0.4 0.4,0.4 h 11.2 c 0.22091,0 0.4,-0.17909 0.4,-0.4 z M 91.6,112 h -3.2 c -0.220914,0 -0.4,-0.17909 -0.4,-0.4 v -3.2 c 0,-0.22091 -0.179086,-0.4 -0.4,-0.4 h -7.2 c -0.220914,0 -0.4,-0.17909 -0.4,-0.4 v -3.2 c 0,-0.22091 0.179086,-0.4 0.4,-0.4 h 3.2 c 0.220914,0 0.4,-0.17909 0.4,-0.4 v -3.2 C 84,100.17909 83.820914,100 83.6,100 H 76.4 C 76.179086,100 76,99.820914 76,99.6 V 92.4 C 76,92.179086 76.179086,92 76.4,92 h 3.2 c 0.220914,0 0.4,0.179086 0.4,0.4 v 3.2 c 0,0.220914 0.179086,0.4 0.4,0.4 h 3.2 C 83.820914,96 84,95.820914 84,95.6 V 88.4 C 84,88.179086 83.820914,88 83.6,88 H 76.4 C 76.179086,88 76,88.179086 76,88.4 v 3.2 C 76,91.820914 75.820914,92 75.6,92 H 72.4 C 72.179086,92 72,91.820914 72,91.6 V 84.4 C 72,84.179086 72.179086,84 72.4,84 H 83.6 C 83.820914,84 84,83.820914 84,83.6 V 80.4 C 84,80.179086 83.820914,80 83.6,80 H 76.4 C 76.179086,80 76,79.820914 76,79.6 V 76.4 C 76,76.179086 76.179086,76 76.4,76 h 7.2 C 83.820914,76 84,75.820914 84,75.6 V 72.4 C 84,72.179086 84.179086,72 84.4,72 h 7.2 c 0.220914,0 0.4,0.179086 0.4,0.4 v 3.2 C 92,75.820914 91.820914,76 91.6,76 H 88.4 C 88.179086,76 88,76.179086 88,76.4 v 3.2 c 0,0.220914 0.179086,0.4 0.4,0.4 h 3.2 c 0.220914,0 0.4,0.179086 0.4,0.4 v 3.2 C 92,83.820914 91.820914,84 91.6,84 H 88.4 C 88.179086,84 88,84.179086 88,84.4 v 7.2 c 0,0.220914 0.179086,0.4 0.4,0.4 h 3.2 c 0.220914,0 0.4,0.179086 0.4,0.4 v 3.2 C 92,95.820914 91.820914,96 91.6,96 H 88.4 C 88.179086,96 88,96.179086 88,96.4 v 7.2 c 0,0.22091 0.179086,0.4 0.4,0.4 h 3.2 c 0.220914,0 0.4,0.17909 0.4,0.4 v 7.2 c 0,0.22091 -0.179086,0.4 -0.4,0.4 z m -16,0 h -3.2 c -0.220914,0 -0.4,-0.17909 -0.4,-0.4 v -3.2 c 0,-0.22091 0.179086,-0.4 0.4,-0.4 h 3.2 c 0.220914,0 0.4,0.17909 0.4,0.4 v 3.2 c 0,0.22091 -0.179086,0.4 -0.4,0.4 z m 52,-4 h -3.2 c -0.22091,0 -0.4,-0.17909 -0.4,-0.4 v -3.2 c 0,-0.22091 -0.17909,-0.4 -0.4,-0.4 h -3.2 c -0.22091,0 -0.4,-0.17909 -0.4,-0.4 v -7.2 c 0,-0.220914 0.17909,-0.4 0.4,-0.4 h 3.2 c 0.22091,0 0.4,0.179086 0.4,0.4 v 3.2 c 0,0.220914 0.17909,0.4 0.4,0.4 h 7.2 c 0.22091,0 0.4,0.17909 0.4,0.4 v 3.2 c 0,0.22091 -0.17909,0.4 -0.4,0.4 h -3.2 c -0.22091,0 -0.4,0.17909 -0.4,0.4 v 3.2 c 0,0.22091 -0.17909,0.4 -0.4,0.4 z m -20,0 h -3.2 c -0.22091,0 -0.4,-0.17909 -0.4,-0.4 v -3.2 c 0,-0.22091 0.17909,-0.4 0.4,-0.4 h 3.2 c 0.22091,0 0.4,0.17909 0.4,0.4 v 3.2 c 0,0.22091 -0.17909,0.4 -0.4,0.4 z m -76,-8 H 24.4 C 24.179086,100 24,99.820914 24,99.6 V 96.4 C 24,96.179086 24.179086,96 24.4,96 h 7.2 c 0.220914,0 0.4,0.179086 0.4,0.4 v 3.2 c 0,0.220914 -0.179086,0.4 -0.4,0.4 z m -12,0 H 16.4 C 16.179086,100 16,99.820914 16,99.6 V 96.4 C 16,96.179086 16.179086,96 16.4,96 h 3.2 c 0.220914,0 0.4,0.179086 0.4,0.4 v 3.2 c 0,0.220914 -0.179086,0.4 -0.4,0.4 z m 112,-4 h -7.2 c -0.22091,0 -0.4,-0.179086 -0.4,-0.4 v -7.2 c 0,-0.220914 0.17909,-0.4 0.4,-0.4 h 3.2 c 0.22091,0 0.4,-0.179086 0.4,-0.4 v -3.2 c 0,-0.220914 0.17909,-0.4 0.4,-0.4 h 3.2 c 0.22091,0 0.4,0.179086 0.4,0.4 v 11.2 c 0,0.220914 -0.17909,0.4 -0.4,0.4 z M 108,95.6 v -7.2 c 0,-0.220914 -0.17909,-0.4 -0.4,-0.4 h -3.2 c -0.22091,0 -0.4,0.179086 -0.4,0.4 v 7.2 c 0,0.220914 0.17909,0.4 0.4,0.4 h 3.2 c 0.22091,0 0.4,-0.179086 0.4,-0.4 z M 19.6,92 H 16.4 C 16.179086,92 16,91.820914 16,91.6 V 88.4 C 16,88.179086 16.179086,88 16.4,88 h 3.2 c 0.220914,0 0.4,0.179086 0.4,0.4 v 3.2 c 0,0.220914 -0.179086,0.4 -0.4,0.4 z m 100,-4 h -3.2 c -0.22091,0 -0.4,-0.179086 -0.4,-0.4 v -3.2 c 0,-0.220914 0.17909,-0.4 0.4,-0.4 h 3.2 c 0.22091,0 0.4,0.179086 0.4,0.4 v 3.2 c 0,0.220914 -0.17909,0.4 -0.4,0.4 z m -56,0 H 60.4 C 60.179086,88 60,87.820914 60,87.6 V 84.4 C 60,84.179086 60.179086,84 60.4,84 h 3.2 c 0.220914,0 0.4,0.179086 0.4,0.4 v 3.2 c 0,0.220914 -0.179086,0.4 -0.4,0.4 z m -8,0 H 52.4 C 52.179086,88 52,87.820914 52,87.6 V 84.4 C 52,84.179086 52.179086,84 52.4,84 h 3.2 c 0.220914,0 0.4,0.179086 0.4,0.4 v 3.2 c 0,0.220914 -0.179086,0.4 -0.4,0.4 z m -32,0 H 20.4 C 20.179086,88 20,87.820914 20,87.6 V 76.4 C 20,76.179086 20.179086,76 20.4,76 h 3.2 c 0.220914,0 0.4,0.179086 0.4,0.4 v 11.2 c 0,0.220914 -0.179086,0.4 -0.4,0.4 z m 36,-4 H 56.4 C 56.179086,84 56,83.820914 56,83.6 V 80.4 C 56,80.179086 55.820914,80 55.6,80 H 44.4 C 44.179086,80 44,79.820914 44,79.6 V 76.4 C 44,76.179086 44.179086,76 44.4,76 h 3.2 C 47.820914,76 48,75.820914 48,75.6 V 72.4 C 48,72.179086 48.179086,72 48.4,72 h 3.2 c 0.220914,0 0.4,0.179086 0.4,0.4 v 3.2 c 0,0.220914 0.179086,0.4 0.4,0.4 h 3.2 C 55.820914,76 56,75.820914 56,75.6 V 72.4 C 56,72.179086 56.179086,72 56.4,72 h 3.2 c 0.220914,0 0.4,0.179086 0.4,0.4 v 11.2 c 0,0.220914 -0.179086,0.4 -0.4,0.4 z m -16,0 H 40.4 C 40.179086,84 40,83.820914 40,83.6 V 80.4 C 40,80.179086 40.179086,80 40.4,80 h 3.2 c 0.220914,0 0.4,0.179086 0.4,0.4 v 3.2 c 0,0.220914 -0.179086,0.4 -0.4,0.4 z m 28,-4 H 68.4 C 68.179086,80 68,79.820914 68,79.6 V 76.4 C 68,76.179086 68.179086,76 68.4,76 h 3.2 c 0.220914,0 0.4,0.179086 0.4,0.4 v 3.2 c 0,0.220914 -0.179086,0.4 -0.4,0.4 z m 4,-4 H 72.4 C 72.179086,76 72,75.820914 72,75.6 V 68.4 C 72,68.179086 72.179086,68 72.4,68 h 3.2 c 0.220914,0 0.4,0.179086 0.4,0.4 v 7.2 c 0,0.220914 -0.179086,0.4 -0.4,0.4 z m -32,0 H 40.4 C 40.179086,76 40,75.820914 40,75.6 V 72.4 C 40,72.179086 40.179086,72 40.4,72 h 3.2 c 0.220914,0 0.4,0.179086 0.4,0.4 v 3.2 c 0,0.220914 -0.179086,0.4 -0.4,0.4 z m 4,-4 H 44.4 C 44.179086,72 44,71.820914 44,71.6 V 68.4 C 44,68.179086 44.179086,68 44.4,68 h 3.2 c 0.220914,0 0.4,0.179086 0.4,0.4 v 3.2 c 0,0.220914 -0.179086,0.4 -0.4,0.4 z m 84,-4 h -7.2 c -0.22091,0 -0.4,-0.179086 -0.4,-0.4 v -3.2 c 0,-0.220914 -0.17909,-0.4 -0.4,-0.4 h -3.2 c -0.22091,0 -0.4,-0.179086 -0.4,-0.4 v -3.2 c 0,-0.220914 -0.17909,-0.4 -0.4,-0.4 h -3.2 c -0.22091,0 -0.4,0.179086 -0.4,0.4 v 3.2 c 0,0.220914 -0.17909,0.4 -0.4,0.4 h -3.2 c -0.22091,0 -0.4,-0.179086 -0.4,-0.4 v -7.2 c 0,-0.220914 0.17909,-0.4 0.4,-0.4 h 3.2 c 0.22091,0 0.4,-0.179086 0.4,-0.4 v -3.2 c 0,-0.220914 0.17909,-0.4 0.4,-0.4 h 3.2 c 0.22091,0 0.4,0.179086 0.4,0.4 v 3.2 c 0,0.220914 0.17909,0.4 0.4,0.4 h 7.2 c 0.22091,0 0.4,0.179086 0.4,0.4 v 7.2 c 0,0.220914 0.17909,0.4 0.4,0.4 h 3.2 c 0.22091,0 0.4,0.179086 0.4,0.4 v 3.2 c 0,0.220914 -0.17909,0.4 -0.4,0.4 z m -12,0 h -3.2 c -0.22091,0 -0.4,-0.179086 -0.4,-0.4 v -3.2 c 0,-0.220914 0.17909,-0.4 0.4,-0.4 h 3.2 c 0.22091,0 0.4,0.179086 0.4,0.4 v 3.2 c 0,0.220914 -0.17909,0.4 -0.4,0.4 z m -32,0 H 84.4 C 84.179086,68 84,67.820914 84,67.6 V 64.4 C 84,64.179086 84.179086,64 84.4,64 h 3.2 c 0.220914,0 0.4,0.179086 0.4,0.4 v 3.2 c 0,0.220914 -0.179086,0.4 -0.4,0.4 z m -24,0 H 48.4 C 48.179086,68 48,67.820914 48,67.6 V 64.4 C 48,64.179086 48.179086,64 48.4,64 h 15.2 c 0.220914,0 0.4,0.179086 0.4,0.4 v 3.2 c 0,0.220914 -0.179086,0.4 -0.4,0.4 z m -20,0 H 40.4 C 40.179086,68 40,67.820914 40,67.6 V 64.4 C 40,64.179086 40.179086,64 40.4,64 h 3.2 c 0.220914,0 0.4,0.179086 0.4,0.4 v 3.2 c 0,0.220914 -0.179086,0.4 -0.4,0.4 z m 60,-8 h -3.2 c -0.22091,0 -0.4,-0.179086 -0.4,-0.4 v -3.2 c 0,-0.220914 0.17909,-0.4 0.4,-0.4 h 3.2 c 0.22091,0 0.4,0.179086 0.4,0.4 v 3.2 c 0,0.220914 -0.17909,0.4 -0.4,0.4 z m -36,0 H 52.4 C 52.179086,60 52,59.820914 52,59.6 V 56.4 C 52,56.179086 52.179086,56 52.4,56 H 63.6 C 63.820914,56 64,55.820914 64,55.6 V 48.4 C 64,48.179086 63.820914,48 63.6,48 H 60.4 C 60.179086,48 60,47.820914 60,47.6 V 44.4 C 60,44.179086 60.179086,44 60.4,44 h 3.2 C 63.820914,44 64,43.820914 64,43.6 V 40.4 C 64,40.179086 64.179086,40 64.4,40 h 3.2 c 0.220914,0 0.4,0.179086 0.4,0.4 v 7.2 c 0,0.220914 0.179086,0.4 0.4,0.4 h 3.2 C 71.820914,48 72,47.820914 72,47.6 V 40.4 C 72,40.179086 71.820914,40 71.6,40 H 68.4 C 68.179086,40 68,39.820914 68,39.6 V 36.4 C 68,36.179086 68.179086,36 68.4,36 h 7.2 C 75.820914,36 76,35.820914 76,35.6 V 32.4 C 76,32.179086 76.179086,32 76.4,32 H 87.6 C 87.820914,32 88,31.820914 88,31.6 V 28.4 C 88,28.179086 88.179086,28 88.4,28 h 7.2 C 95.820914,28 96,27.820914 96,27.6 V 20.4 C 96,20.179086 96.179086,20 96.4,20 h 3.2 c 0.220914,0 0.4,0.179086 0.4,0.4 v 11.2 c 0,0.220914 -0.179086,0.4 -0.4,0.4 H 92.4 C 92.179086,32 92,32.179086 92,32.4 v 3.2 c 0,0.220914 0.179086,0.4 0.4,0.4 h 7.2 c 0.220914,0 0.4,0.179086 0.4,0.4 v 7.2 c 0,0.220914 -0.179086,0.4 -0.4,0.4 H 96.4 C 96.179086,44 96,43.820914 96,43.6 V 40.4 C 96,40.179086 95.820914,40 95.6,40 H 92.4 C 92.179086,40 92,40.179086 92,40.4 v 3.2 C 92,43.820914 91.820914,44 91.6,44 H 88.4 C 88.179086,44 88,43.820914 88,43.6 V 36.4 C 88,36.179086 87.820914,36 87.6,36 H 80.4 C 80.179086,36 80,36.179086 80,36.4 v 3.2 C 80,39.820914 79.820914,40 79.6,40 H 76.4 C 76.179086,40 76,40.179086 76,40.4 V 51.6 C 76,51.820914 75.820914,52 75.6,52 H 68.4 C 68.179086,52 68,52.179086 68,52.4 v 7.2 c 0,0.220914 -0.179086,0.4 -0.4,0.4 z m -24,0 H 36.4 C 36.179086,60 36,59.820914 36,59.6 V 56.4 C 36,56.179086 35.820914,56 35.6,56 H 32.4 C 32.179086,56 32,55.820914 32,55.6 V 52.4 C 32,52.179086 32.179086,52 32.4,52 h 3.2 C 35.820914,52 36,51.820914 36,51.6 V 48.4 C 36,48.179086 36.179086,48 36.4,48 h 7.2 c 0.220914,0 0.4,0.179086 0.4,0.4 v 3.2 C 44,51.820914 43.820914,52 43.6,52 H 40.4 C 40.179086,52 40,52.179086 40,52.4 v 3.2 c 0,0.220914 0.179086,0.4 0.4,0.4 h 3.2 c 0.220914,0 0.4,0.179086 0.4,0.4 v 3.2 c 0,0.220914 -0.179086,0.4 -0.4,0.4 z m 88,-4 h -3.2 c -0.22091,0 -0.4,-0.179086 -0.4,-0.4 v -3.2 c 0,-0.220914 0.17909,-0.4 0.4,-0.4 h 3.2 c 0.22091,0 0.4,0.179086 0.4,0.4 v 3.2 c 0,0.220914 -0.17909,0.4 -0.4,0.4 z m -24,0 h -3.2 c -0.22091,0 -0.4,-0.179086 -0.4,-0.4 v -3.2 c 0,-0.220914 0.17909,-0.4 0.4,-0.4 h 3.2 c 0.22091,0 0.4,0.179086 0.4,0.4 v 3.2 c 0,0.220914 -0.17909,0.4 -0.4,0.4 z m -8,0 H 96.4 C 96.179086,56 96,55.820914 96,55.6 V 52.4 C 96,52.179086 95.820914,52 95.6,52 H 92.4 C 92.179086,52 92,51.820914 92,51.6 V 44.4 C 92,44.179086 92.179086,44 92.4,44 h 3.2 c 0.220914,0 0.4,0.179086 0.4,0.4 v 3.2 c 0,0.220914 0.179086,0.4 0.4,0.4 h 7.2 c 0.22091,0 0.4,0.179086 0.4,0.4 v 3.2 c 0,0.220914 -0.17909,0.4 -0.4,0.4 h -3.2 c -0.22091,0 -0.4,0.179086 -0.4,0.4 v 3.2 c 0,0.220914 -0.179086,0.4 -0.4,0.4 z m -48,0 H 48.4 C 48.179086,56 48,55.820914 48,55.6 V 48.4 C 48,48.179086 48.179086,48 48.4,48 h 3.2 c 0.220914,0 0.4,0.179086 0.4,0.4 v 7.2 c 0,0.220914 -0.179086,0.4 -0.4,0.4 z m -24,0 H 24.4 C 24.179086,56 24,55.820914 24,55.6 V 52.4 C 24,52.179086 24.179086,52 24.4,52 h 3.2 c 0.220914,0 0.4,0.179086 0.4,0.4 v 3.2 c 0,0.220914 -0.179086,0.4 -0.4,0.4 z m 84,-4 h -3.2 c -0.22091,0 -0.4,-0.179086 -0.4,-0.4 v -3.2 c 0,-0.220914 0.17909,-0.4 0.4,-0.4 h 3.2 c 0.22091,0 0.4,0.179086 0.4,0.4 v 3.2 c 0,0.220914 -0.17909,0.4 -0.4,0.4 z m -52,0 H 56.4 C 56.179086,52 56,51.820914 56,51.6 V 48.4 C 56,48.179086 56.179086,48 56.4,48 h 3.2 c 0.220914,0 0.4,0.179086 0.4,0.4 v 3.2 c 0,0.220914 -0.179086,0.4 -0.4,0.4 z m -28,0 H 28.4 C 28.179086,52 28,51.820914 28,51.6 V 48.4 C 28,48.179086 28.179086,48 28.4,48 h 3.2 c 0.220914,0 0.4,0.179086 0.4,0.4 v 3.2 c 0,0.220914 -0.179086,0.4 -0.4,0.4 z m -12,0 H 16.4 C 16.179086,52 16,51.820914 16,51.6 V 48.4 C 16,48.179086 16.179086,48 16.4,48 h 3.2 c 0.220914,0 0.4,0.179086 0.4,0.4 v 3.2 c 0,0.220914 -0.179086,0.4 -0.4,0.4 z m 68,-4 H 80.4 C 80.179086,48 80,47.820914 80,47.6 V 40.4 C 80,40.179086 80.179086,40 80.4,40 h 3.2 c 0.220914,0 0.4,0.179086 0.4,0.4 v 3.2 c 0,0.220914 0.179086,0.4 0.4,0.4 h 3.2 c 0.220914,0 0.4,0.179086 0.4,0.4 v 3.2 c 0,0.220914 -0.179086,0.4 -0.4,0.4 z m -32,0 H 52.4 C 52.179086,48 52,47.820914 52,47.6 V 44.4 C 52,44.179086 52.179086,44 52.4,44 h 3.2 c 0.220914,0 0.4,0.179086 0.4,0.4 v 3.2 c 0,0.220914 -0.179086,0.4 -0.4,0.4 z m 76,-4 H 104.4 C 104.17909,44 104,43.820914 104,43.6 V 16.4 c 0,-0.220914 0.17909,-0.4 0.4,-0.4 h 27.2 c 0.22091,0 0.4,0.179086 0.4,0.4 v 27.2 c 0,0.220914 -0.17909,0.4 -0.4,0.4 z m -72,0 H 56.4 C 56.179086,44 56,43.820914 56,43.6 V 40.4 C 56,40.179086 55.820914,40 55.6,40 H 52.4 C 52.179086,40 52,40.179086 52,40.4 v 3.2 C 52,43.820914 51.820914,44 51.6,44 H 48.4 C 48.179086,44 48,43.820914 48,43.6 V 36.4 C 48,36.179086 48.179086,36 48.4,36 h 3.2 C 51.820914,36 52,35.820914 52,35.6 V 32.4 C 52,32.179086 52.179086,32 52.4,32 h 15.2 c 0.220914,0 0.4,0.179086 0.4,0.4 v 3.2 C 68,35.820914 67.820914,36 67.6,36 H 60.4 C 60.179086,36 60,36.179086 60,36.4 v 7.2 c 0,0.220914 -0.179086,0.4 -0.4,0.4 z m -16,0 H 16.4 C 16.179086,44 16,43.820914 16,43.6 V 16.4 C 16,16.179086 16.179086,16 16.4,16 h 27.2 c 0.220914,0 0.4,0.179086 0.4,0.4 V 43.6 C 44,43.820914 43.820914,44 43.6,44 Z M 128,39.6 V 20.4 c 0,-0.220914 -0.17909,-0.4 -0.4,-0.4 h -19.2 c -0.22091,0 -0.4,0.179086 -0.4,0.4 v 19.2 c 0,0.220914 0.17909,0.4 0.4,0.4 h 19.2 c 0.22091,0 0.4,-0.179086 0.4,-0.4 z m -88,0 V 20.4 C 40,20.179086 39.820914,20 39.6,20 H 20.4 C 20.179086,20 20,20.179086 20,20.4 v 19.2 c 0,0.220914 0.179086,0.4 0.4,0.4 H 39.6 C 39.820914,40 40,39.820914 40,39.6 Z M 123.6,36 H 112.4 C 112.17909,36 112,35.820914 112,35.6 V 24.4 c 0,-0.220914 0.17909,-0.4 0.4,-0.4 h 11.2 c 0.22091,0 0.4,0.179086 0.4,0.4 v 11.2 c 0,0.220914 -0.17909,0.4 -0.4,0.4 z m -88,0 H 24.4 C 24.179086,36 24,35.820914 24,35.6 V 24.4 C 24,24.179086 24.179086,24 24.4,24 h 11.2 c 0.220914,0 0.4,0.179086 0.4,0.4 v 11.2 c 0,0.220914 -0.179086,0.4 -0.4,0.4 z m 40,-4 H 72.4 C 72.179086,32 72,31.820914 72,31.6 V 24.4 C 72,24.179086 72.179086,24 72.4,24 h 3.2 C 75.820914,24 76,23.820914 76,23.6 V 16.4 C 76,16.179086 76.179086,16 76.4,16 h 3.2 c 0.220914,0 0.4,0.179086 0.4,0.4 V 27.6 C 80,27.820914 79.820914,28 79.6,28 H 76.4 C 76.179086,28 76,28.179086 76,28.4 v 3.2 c 0,0.220914 -0.179086,0.4 -0.4,0.4 z m 12,-4 H 84.4 C 84.179086,28 84,27.820914 84,27.6 V 20.4 C 84,20.179086 84.179086,20 84.4,20 h 3.2 C 87.820914,20 88,19.820914 88,19.6 V 16.4 C 88,16.179086 88.179086,16 88.4,16 h 7.2 c 0.220914,0 0.4,0.179086 0.4,0.4 v 3.2 C 96,19.820914 95.820914,20 95.6,20 H 92.4 C 92.179086,20 92,20.179086 92,20.4 v 3.2 C 92,23.820914 91.820914,24 91.6,24 H 88.4 C 88.179086,24 88,24.179086 88,24.4 v 3.2 c 0,0.220914 -0.179086,0.4 -0.4,0.4 z m -20,0 H 60.4 C 60.179086,28 60,27.820914 60,27.6 V 24.4 C 60,24.179086 60.179086,24 60.4,24 h 7.2 c 0.220914,0 0.4,0.179086 0.4,0.4 v 3.2 c 0,0.220914 -0.179086,0.4 -0.4,0.4 z m 4,-4 H 68.4 C 68.179086,24 68,23.820914 68,23.6 V 20.4 C 68,20.179086 68.179086,20 68.4,20 h 3.2 c 0.220914,0 0.4,0.179086 0.4,0.4 v 3.2 c 0,0.220914 -0.179086,0.4 -0.4,0.4 z m -12,0 H 56.4 C 56.179086,24 56,23.820914 56,23.6 V 20.4 C 56,20.179086 56.179086,20 56.4,20 h 3.2 c 0.220914,0 0.4,0.179086 0.4,0.4 v 3.2 c 0,0.220914 -0.179086,0.4 -0.4,0.4 z m -4,-4 H 52.4 C 52.179086,20 52,19.820914 52,19.6 V 16.4 C 52,16.179086 52.179086,16 52.4,16 h 3.2 c 0.220914,0 0.4,0.179086 0.4,0.4 v 3.2 c 0,0.220914 -0.179086,0.4 -0.4,0.4 z"
           id="path127365" />
      </g>
    </g>
    <g
       id="surface1"
       transform="matrix(0.26458333,0,0,0.26458333,10,10)">
      <path
         style="fill:#a8b0ab;fill-opacity:1;fill-rule:nonzero;stroke:none"
         d="M 3.410156,0.453125 116.76172,0.652344 c 1.58594,0 3,-0.234375 3,3.164062 l -0.14063,37.328125 H 0.546875 V 3.675781 C 0.546875,2 0.710938,0.453125 3.410156,0.453125 Z"
         id="path2456" />
      <path
         style="fill:#000000;fill-opacity:1;fill-rule:nonzero;stroke:none"
         d="M 117.75391,0 H 2.246094 C 1.007813,0 0,1.007813 0,2.246094 V 41.492188 C 0,41.773438 0.226563,42 0.507813,42 H 119.49219 C 119.77344,42 120,41.773438 120,41.492188 V 2.246094 C 120,1.007813 118.99219,0 117.75391,0 Z M 2.246094,1.015625 H 117.75391 c 0.67968,0 1.23047,0.550781 1.23047,1.230469 0,0 0,15.796875 0,27.222656 H 36.429688 c -3.027344,5.46875 -8.859375,9.183594 -15.546875,9.183594 -6.695313,0 -12.523438,-3.710938 -15.546875,-9.183594 H 1.015625 c 0,-11.425781 0,-27.222656 0,-27.222656 0,-0.679688 0.550781,-1.230469 1.230469,-1.230469 z"
         id="path2458" />
      <path
         style="fill:#ffffff;fill-opacity:1;fill-rule:nonzero;stroke:none"
         d="m 34.523438,19.550781 c 0.0039,7.53125 -6.097657,13.636719 -13.628907,13.640625 -7.527343,0.0078 -13.636718,-6.09375 -13.640625,-13.625 0,-0.0039 0,-0.0078 0,-0.01563 -0.00781,-7.527343 6.09375,-13.636718 13.625,-13.640625 7.53125,-0.00391 13.640625,6.09375 13.644532,13.625 0,0.0039 0,0.01172 0,0.01563 z"
         id="path2460" />
      <path
         style="fill:#000000;fill-opacity:1;fill-rule:nonzero;stroke:none"
         d="m 31.972656,8.445313 c 3.023438,3.023437 4.535157,6.726562 4.535157,11.105468 0,4.378907 -1.488282,8.042969 -4.457032,10.988282 -3.15625,3.101562 -6.882812,4.652343 -11.183593,4.652343 -4.25,0 -7.910157,-1.539062 -10.984375,-4.613281 -3.078125,-3.074219 -4.613282,-6.75 -4.613282,-11.027344 0,-4.273437 1.535157,-7.976562 4.613282,-11.105468 2.996093,-3.023438 6.65625,-4.535157 10.984375,-4.535157 4.378906,0 8.082031,1.511719 11.105468,4.535157 z m -20.054687,2.035156 c -2.558594,2.582031 -3.835938,5.605469 -3.835938,9.074219 0,3.46875 1.265625,6.46875 3.792969,8.996093 2.53125,2.53125 5.542969,3.792969 9.039063,3.792969 3.496093,0 6.53125,-1.277344 9.113281,-3.832031 2.453125,-2.371094 3.679687,-5.359375 3.679687,-8.957031 0,-3.570313 -1.246093,-6.601563 -3.738281,-9.09375 -2.492187,-2.488282 -5.507812,-3.734375 -9.054687,-3.734375 -3.546875,0 -6.546875,1.25 -8.996094,3.753906 z m 6.726562,7.550781 c -0.390625,-0.851562 -0.976562,-1.277344 -1.757812,-1.277344 -1.375,0 -2.066406,0.925782 -2.066406,2.78125 0,1.855469 0.691406,2.785157 2.066406,2.785157 0.910156,0 1.5625,-0.453125 1.953125,-1.359375 L 20.75,21.980469 c -0.910156,1.617187 -2.277344,2.425781 -4.097656,2.425781 -1.40625,0 -2.53125,-0.429687 -3.378906,-1.292969 -0.84375,-0.859375 -1.269532,-2.046875 -1.269532,-3.5625 0,-1.488281 0.4375,-2.667968 1.308594,-3.542968 0.871094,-0.875 1.960938,-1.3125 3.261719,-1.3125 1.925781,0 3.304687,0.757812 4.136719,2.277343 z m 8.988282,0 c -0.390625,-0.851562 -0.964844,-1.277344 -1.71875,-1.277344 -1.40625,0 -2.109375,0.925782 -2.109375,2.78125 0,1.855469 0.703125,2.785157 2.109375,2.785157 0.914062,0 1.550781,-0.453125 1.914062,-1.359375 l 1.953125,1.019531 c -0.910156,1.617187 -2.273437,2.425781 -4.089844,2.425781 -1.40625,0 -2.527343,-0.429687 -3.375,-1.292969 -0.839843,-0.859375 -1.265625,-2.046875 -1.265625,-3.5625 0,-1.488281 0.429688,-2.667968 1.289063,-3.542968 0.855469,-0.875 1.945312,-1.3125 3.273437,-1.3125 1.921875,0 3.296875,0.757812 4.128907,2.277343 z"
         id="path2462" />
      <path
         style="fill:#ffffff;fill-opacity:1;fill-rule:nonzero;stroke:none"
         d="m 62.503906,15.222656 c 0,5.929688 -4.808593,10.738282 -10.742187,10.738282 -5.929688,0 -10.738281,-4.808594 -10.738281,-10.738282 0,-5.929687 4.808593,-10.738281 10.738281,-10.738281 5.933594,0 10.742187,4.808594 10.742187,10.738281 z"
         id="path2464" />
      <path
         style="fill:#000000;fill-opacity:1;fill-rule:nonzero;stroke:none"
         d="m 54.871094,12.117188 c 0,-0.414063 -0.335938,-0.75 -0.75,-0.75 h -4.742188 c -0.414062,0 -0.75,0.335937 -0.75,0.75 v 4.742187 h 1.324219 v 5.617188 h 3.59375 v -5.617188 h 1.324219 z"
         id="path2466" />
      <path
         style="fill:#000000;fill-opacity:1;fill-rule:nonzero;stroke:none"
         d="m 53.371094,9.121094 c 0,0.894531 -0.722656,1.621094 -1.621094,1.621094 -0.894531,0 -1.621094,-0.726563 -1.621094,-1.621094 C 50.128906,8.226563 50.855469,7.5 51.75,7.5 c 0.898438,0 1.621094,0.726563 1.621094,1.621094 z"
         id="path2468" />
      <path
         style="fill:#000000;fill-opacity:1;fill-rule:evenodd;stroke:none"
         d="m 51.734375,3.390625 c -3.210937,0 -5.929687,1.121094 -8.15625,3.363281 -2.28125,2.320313 -3.421875,5.0625 -3.421875,8.234375 0,3.167969 1.140625,5.894532 3.421875,8.171875 2.285156,2.28125 5.003906,3.421875 8.15625,3.421875 3.195313,0 5.960938,-1.148437 8.304688,-3.449218 2.207031,-2.183594 3.308593,-4.898438 3.308593,-8.144532 0,-3.25 -1.121093,-5.992187 -3.367187,-8.234375 C 57.734375,4.511719 54.988281,3.390625 51.734375,3.390625 Z m 0.03125,2.089844 c 2.632813,0 4.867188,0.925781 6.703125,2.78125 1.859375,1.835937 2.789063,4.078125 2.789063,6.726562 0,2.664063 -0.910157,4.878907 -2.730469,6.636719 -1.914063,1.894531 -4.167969,2.839844 -6.761719,2.839844 -2.59375,0 -4.828125,-0.9375 -6.707031,-2.8125 -1.875,-1.871094 -2.8125,-4.09375 -2.8125,-6.664063 0,-2.570312 0.945312,-4.8125 2.84375,-6.726562 1.820312,-1.855469 4.042969,-2.78125 6.675781,-2.78125 z"
         id="path2470" />
      <path
         style="fill:#ffffff;fill-opacity:1;fill-rule:nonzero;stroke:none"
         d="m 48.402344,32.746094 c 0.3125,0 0.601562,0.03125 0.863281,0.08594 0.257813,0.05469 0.484375,0.144532 0.667969,0.273438 0.1875,0.125 0.328125,0.292969 0.433594,0.503906 0.101562,0.210938 0.152343,0.46875 0.152343,0.777344 0,0.335937 -0.07422,0.613281 -0.226562,0.835937 -0.152344,0.222657 -0.378906,0.402344 -0.675781,0.546875 0.410156,0.117188 0.714843,0.324219 0.917968,0.617188 0.203125,0.292969 0.304688,0.648437 0.304688,1.0625 0,0.332031 -0.06641,0.621094 -0.195313,0.867187 -0.132812,0.242188 -0.308593,0.445313 -0.527343,0.597657 -0.21875,0.15625 -0.472657,0.269531 -0.753907,0.34375 -0.28125,0.07422 -0.570312,0.113281 -0.867187,0.113281 h -3.21875 v -6.625 z m -0.1875,2.679687 c 0.261719,0 0.472656,-0.0625 0.640625,-0.183593 0.167969,-0.125 0.25,-0.324219 0.25,-0.601563 0,-0.15625 -0.02734,-0.28125 -0.08203,-0.378906 -0.05469,-0.101563 -0.128907,-0.175781 -0.222657,-0.234375 -0.09375,-0.05469 -0.199218,-0.09375 -0.320312,-0.113281 -0.121094,-0.02344 -0.246094,-0.03516 -0.378906,-0.03516 h -1.363282 v 1.546875 z m 0.08594,2.808594 c 0.140625,0 0.277344,-0.01172 0.40625,-0.03906 0.132813,-0.02734 0.246094,-0.07422 0.347657,-0.140625 0.09766,-0.0625 0.175781,-0.152344 0.234375,-0.265625 0.05859,-0.109375 0.08984,-0.25 0.08984,-0.425782 0,-0.339843 -0.09766,-0.582031 -0.289062,-0.726562 -0.191406,-0.144531 -0.445313,-0.21875 -0.761719,-0.21875 h -1.589844 v 1.816406 z"
         id="path2472" />
      <path
         style="fill:#ffffff;fill-opacity:1;fill-rule:nonzero;stroke:none"
         d="m 51.09375,32.746094 h 1.632813 l 1.550781,2.617187 1.542969,-2.617187 h 1.625 l -2.460938,4.082031 v 2.542969 h -1.460937 v -2.582031 z"
         id="path2474" />
      <path
         style="fill:#ffffff;fill-opacity:1;fill-rule:nonzero;stroke:none"
         d="m 98.441406,37.730469 c 0.07813,0.15625 0.183594,0.28125 0.320313,0.378906 0.132812,0.09375 0.285156,0.164063 0.464844,0.210938 0.179687,0.04687 0.363281,0.07031 0.554687,0.07031 0.128906,0 0.26953,-0.01172 0.41797,-0.03125 0.14844,-0.02344 0.28516,-0.0625 0.41797,-0.125 0.1289,-0.0625 0.23437,-0.148437 0.32422,-0.257812 0.082,-0.105469 0.1289,-0.246094 0.1289,-0.410157 0,-0.179687 -0.0586,-0.324218 -0.17187,-0.4375 -0.11328,-0.109375 -0.26563,-0.203125 -0.44922,-0.277343 -0.1875,-0.07422 -0.39844,-0.140625 -0.628907,-0.195313 -0.238282,-0.05469 -0.472657,-0.117187 -0.714844,-0.183594 -0.246094,-0.0625 -0.488281,-0.140625 -0.722656,-0.230468 -0.234375,-0.08594 -0.445313,-0.203125 -0.628907,-0.347657 -0.1875,-0.140625 -0.335937,-0.320312 -0.449218,-0.53125 -0.113282,-0.214843 -0.171875,-0.472656 -0.171875,-0.773437 0,-0.34375 0.07422,-0.636719 0.21875,-0.886719 0.144531,-0.25 0.332031,-0.460937 0.566406,-0.628906 0.234375,-0.164063 0.503906,-0.289063 0.800781,-0.371094 0.292969,-0.07813 0.589844,-0.117187 0.886719,-0.117187 0.347656,0 0.679691,0.03906 0.996091,0.113281 0.32032,0.07813 0.60157,0.203125 0.84766,0.378906 0.25,0.171875 0.44531,0.394531 0.58984,0.660156 0.14453,0.273438 0.21875,0.597657 0.21875,0.980469 h -1.41406 c -0.0117,-0.199219 -0.0547,-0.363281 -0.125,-0.492187 -0.0703,-0.128907 -0.16406,-0.230469 -0.28125,-0.304688 -0.11719,-0.07422 -0.25,-0.128906 -0.40234,-0.15625 -0.148441,-0.03125 -0.31641,-0.04687 -0.492191,-0.04687 -0.117188,0 -0.234375,0.01172 -0.351563,0.03516 -0.117187,0.02734 -0.222656,0.07031 -0.316406,0.128907 -0.09766,0.0625 -0.175781,0.140625 -0.238281,0.234375 -0.05859,0.09375 -0.08984,0.210937 -0.08984,0.351562 0,0.128906 0.02344,0.234375 0.07031,0.316406 0.05078,0.07813 0.148437,0.15625 0.292968,0.222657 0.148438,0.06641 0.347657,0.136718 0.601563,0.203125 0.257812,0.06641 0.59375,0.15625 1.00781,0.261718 0.1211,0.02344 0.29297,0.07031 0.51172,0.132813 0.21875,0.06641 0.4375,0.167969 0.65234,0.3125 0.21875,0.140625 0.40235,0.332031 0.5625,0.570312 0.15625,0.238282 0.23438,0.542969 0.23438,0.914063 0,0.300781 -0.0586,0.582031 -0.17578,0.84375 -0.11719,0.257812 -0.29297,0.484375 -0.52344,0.671875 -0.23047,0.1875 -0.51953,0.335937 -0.86328,0.441406 -0.34375,0.105469 -0.73828,0.15625 -1.191406,0.15625 -0.363282,0 -0.71875,-0.04297 -1.0625,-0.132812 -0.34375,-0.08984 -0.644532,-0.230469 -0.90625,-0.425782 -0.265625,-0.191406 -0.472657,-0.4375 -0.628907,-0.734375 -0.152343,-0.296875 -0.226562,-0.648437 -0.222656,-1.054687 h 1.414063 c 0,0.222656 0.03906,0.410156 0.121093,0.5625 z"
         id="path2476" />
      <path
         style="fill:#ffffff;fill-opacity:1;fill-rule:nonzero;stroke:none"
         d="m 106.64453,32.746094 2.47656,6.625 h -1.51171 l -0.5,-1.476563 h -2.47657 l -0.51953,1.476563 h -1.46484 l 2.5039,-6.625 z m 0.0859,4.0625 -0.83594,-2.429688 h -0.0195 l -0.85937,2.429688 z"
         id="path2478" />
      <path
         style="fill:#ffffff;fill-opacity:1;fill-rule:nonzero;stroke:none"
         d="m 72.519531,32.746094 2.765625,4.445312 h 0.01563 v -4.445312 h 1.367188 v 6.625 H 75.210938 L 72.453125,34.9375 h -0.01953 v 4.433594 h -1.363281 v -6.625 z"
         id="path2480" />
      <path
         style="fill:#ffffff;fill-opacity:1;fill-rule:nonzero;stroke:none"
         d="M 82.195313,34.511719 C 82.109375,34.371094 82,34.25 81.871094,34.144531 81.742188,34.039063 81.59375,33.957031 81.429688,33.898438 81.265625,33.839844 81.09375,33.8125 80.914063,33.8125 c -0.328125,0 -0.605469,0.0625 -0.835938,0.1875 -0.226562,0.128906 -0.414062,0.296875 -0.554687,0.511719 -0.140625,0.210937 -0.246094,0.453125 -0.3125,0.726562 -0.0625,0.273438 -0.09766,0.554688 -0.09766,0.84375 0,0.277344 0.03516,0.550782 0.09766,0.8125 0.06641,0.261719 0.171875,0.5 0.3125,0.707032 0.140625,0.210937 0.328125,0.378906 0.554687,0.507812 0.230469,0.125 0.507813,0.1875 0.835938,0.1875 0.445312,0 0.792968,-0.132812 1.042968,-0.40625 0.253907,-0.273437 0.40625,-0.632812 0.460938,-1.078125 h 1.410156 c -0.03516,0.414063 -0.132812,0.789063 -0.289062,1.125 -0.152344,0.332031 -0.359375,0.617188 -0.609375,0.851563 -0.253907,0.238281 -0.550782,0.417968 -0.890625,0.542968 -0.339844,0.121094 -0.714844,0.183594 -1.125,0.183594 -0.507813,0 -0.960938,-0.08594 -1.367188,-0.265625 -0.40625,-0.171875 -0.746094,-0.417969 -1.027344,-0.726562 -0.277343,-0.308594 -0.492187,-0.671875 -0.640625,-1.089844 -0.148437,-0.417969 -0.222656,-0.867188 -0.222656,-1.351563 0,-0.496093 0.07422,-0.953125 0.222656,-1.378906 0.148438,-0.421875 0.363282,-0.792969 0.640625,-1.109375 0.28125,-0.3125 0.621094,-0.5625 1.027344,-0.742187 0.40625,-0.179688 0.859375,-0.265625 1.367188,-0.265625 0.367187,0 0.710937,0.05078 1.035156,0.15625 0.324219,0.105468 0.617187,0.257812 0.871094,0.460937 0.257812,0.199219 0.46875,0.449219 0.636718,0.746094 0.167969,0.296875 0.273438,0.636719 0.316407,1.019531 h -1.410157 c -0.02734,-0.164062 -0.08203,-0.320312 -0.167968,-0.457031 z"
         id="path2482" />
      <path
         style="fill:#ffffff;fill-opacity:1;fill-rule:nonzero;stroke:none"
         d="m 114.57813,14.980469 c 0.008,5.84375 -4.73047,10.585937 -10.57422,10.59375 -5.84766,0 -10.589847,-4.730469 -10.593754,-10.578125 0,-0.0039 0,-0.01172 0,-0.01563 -0.0039,-5.84375 4.730469,-10.585938 10.578124,-10.589844 5.84375,-0.00781 10.58594,4.730469 10.58985,10.574219 0,0.0039 0,0.01172 0,0.01563 z"
         id="path2484" />
      <path
         style="fill:#000000;fill-opacity:1;fill-rule:nonzero;stroke:none"
         d="m 103.91797,3.386719 c -3.21094,0 -5.929689,1.121094 -8.156251,3.359375 -2.28125,2.320312 -3.425781,5.066406 -3.425781,8.234375 0,3.167969 1.144531,5.894531 3.425781,8.175781 2.285156,2.28125 5.003911,3.417969 8.156251,3.417969 3.19531,0 5.96094,-1.148438 8.30078,-3.449219 2.20703,-2.183594 3.3125,-4.898437 3.3125,-8.144531 0,-3.246094 -1.125,-5.992188 -3.36719,-8.234375 -2.24609,-2.238281 -4.99218,-3.359375 -8.24609,-3.359375 z m 0.0312,2.085937 c 2.62891,0 4.86328,0.925782 6.70312,2.785157 1.85938,1.832031 2.78516,4.074218 2.78516,6.722656 0,2.667969 -0.90625,4.878906 -2.72656,6.640625 -1.91406,1.890625 -4.17188,2.839844 -6.76172,2.839844 -2.59375,0 -4.828126,-0.9375 -6.707032,-2.8125 -1.875,-1.875 -2.816407,-4.097657 -2.816407,-6.667969 0,-2.570313 0.949219,-4.8125 2.847657,-6.722656 1.816406,-1.859375 4.042972,-2.785157 6.675782,-2.785157 z"
         id="path2486" />
      <path
         style="fill:#000000;fill-opacity:1;fill-rule:nonzero;stroke:none"
         d="m 98.777344,13.34375 c 0.464844,-2.917969 2.515626,-4.476562 5.093746,-4.476562 3.69922,0 5.95704,2.6875 5.95704,6.269531 0,3.492187 -2.40235,6.207031 -6.01563,6.207031 -2.48828,0 -4.714844,-1.527344 -5.121094,-4.535156 h 2.921874 c 0.0859,1.5625 1.09766,2.109375 2.54688,2.109375 1.64453,0 2.71875,-1.53125 2.71875,-3.871094 0,-2.453125 -0.92578,-3.753906 -2.66407,-3.753906 -1.26953,0 -2.37109,0.464844 -2.60156,2.050781 l 0.84766,-0.0039 -2.29688,2.296875 -2.300779,-2.296875 z"
         id="path2488" />
      <path
         style="fill:#ffffff;fill-opacity:1;fill-rule:nonzero;stroke:none"
         d="m 88.628906,14.980469 c 0.0039,5.957031 -4.820312,10.789062 -10.777343,10.792969 -5.957032,0.0039 -10.792969,-4.820313 -10.796875,-10.777344 0,-0.0039 0,-0.01172 0,-0.01563 C 67.050781,9.023438 71.878906,4.191406 77.835938,4.1875 83.792969,4.183594 88.625,9.007813 88.628906,14.964844 c 0,0.0039 0,0.01172 0,0.01563 z"
         id="path2490" />
      <path
         style="fill:#000000;fill-opacity:1;fill-rule:nonzero;stroke:none"
         d="m 77.828125,3.386719 c 3.25,0 5.996094,1.121094 8.242188,3.359375 2.246093,2.242187 3.367187,4.988281 3.367187,8.234375 0,3.246094 -1.101562,5.960937 -3.308594,8.144531 -2.339843,2.300781 -5.109375,3.449219 -8.300781,3.449219 -3.15625,0 -5.875,-1.136719 -8.15625,-3.417969 -2.285156,-2.28125 -3.425781,-5.007812 -3.425781,-8.175781 0,-3.167969 1.140625,-5.914063 3.425781,-8.234375 2.226563,-2.238281 4.941406,-3.359375 8.15625,-3.359375 z m -8.972656,8.480469 c -0.347656,0.976562 -0.519531,2.015625 -0.519531,3.113281 0,2.570312 0.9375,4.792969 2.816406,6.667969 1.875,1.875 4.109375,2.8125 6.703125,2.8125 2.59375,0 4.847656,-0.949219 6.765625,-2.84375 C 85.261719,21 85.789063,20.324219 86.203125,19.589844 l -4.371094,-1.945313 c -0.296875,1.46875 -1.605468,2.464844 -3.191406,2.582032 v 1.785156 H 77.308594 V 20.226563 C 76.007813,20.210938 74.75,19.675781 73.789063,18.835938 l 1.597656,-1.609375 c 0.769531,0.722656 1.539062,1.046875 2.589844,1.046875 0.679687,0 1.433593,-0.265625 1.433593,-1.152344 0,-0.3125 -0.121093,-0.53125 -0.3125,-0.695313 l -1.105468,-0.492187 -1.378907,-0.613281 c -0.679687,-0.304688 -1.257812,-0.558594 -1.835937,-0.816407 z m 9,-6.394532 c -2.632813,0 -4.855469,0.925782 -6.675781,2.785157 -0.496094,0.496093 -0.925782,1.019531 -1.289063,1.5625 l 4.429688,1.976562 c 0.402343,-1.230469 1.570312,-1.976562 2.988281,-2.058594 V 7.949219 h 1.332031 v 1.789062 c 0.917969,0.042969 1.921875,0.292969 2.914063,1.0625 L 80.03125,12.367188 C 79.46875,11.96875 78.757813,11.6875 78.046875,11.6875 c -0.574219,0 -1.386719,0.175781 -1.386719,0.898438 0,0.113281 0.03516,0.210937 0.101563,0.296875 l 1.484375,0.660156 1.003906,0.445312 c 0.640625,0.285157 1.253906,0.558594 1.863281,0.828125 l 5.941407,2.648438 c 0.195312,-0.78125 0.292968,-1.609375 0.292968,-2.484375 0,-2.648438 -0.929687,-4.890625 -2.785156,-6.722656 C 82.722656,6.398438 80.488281,5.472656 77.855469,5.472656 Z"
         id="path2492" />
    </g>
  </g>
</svg>
