G04 #@! TF.GenerationSoftware,KiCad,Pcbnew,(6.0.1)*
G04 #@! TF.CreationDate,2022-12-18T10:13:48+01:00*
G04 #@! TF.ProjectId,Slimline Clock Divider,536c696d-6c69-46e6-9520-436c6f636b20,rev?*
G04 #@! TF.SameCoordinates,Original*
G04 #@! TF.FileFunction,Copper,L1,Top*
G04 #@! TF.FilePolarity,Positive*
%FSLAX46Y46*%
G04 Gerber Fmt 4.6, Leading zero omitted, Abs format (unit mm)*
G04 Created by KiCad (PCBNEW (6.0.1)) date 2022-12-18 10:13:48*
%MOMM*%
%LPD*%
G01*
G04 APERTURE LIST*
G04 APERTURE END LIST*
G04 #@! TA.AperFunction,NonConductor*
G36*
X9234121Y-528002D02*
G01*
X9280614Y-581658D01*
X9292000Y-634000D01*
X9292000Y-18679493D01*
X9271998Y-18747614D01*
X9218342Y-18794107D01*
X9148068Y-18804211D01*
X9083488Y-18774717D01*
X9044293Y-18712104D01*
X9037452Y-18686574D01*
X9036597Y-18683382D01*
X8901053Y-18330277D01*
X8729341Y-17993274D01*
X8523344Y-17676066D01*
X8285318Y-17382129D01*
X8017871Y-17114682D01*
X7723934Y-16876656D01*
X7406726Y-16670659D01*
X7403792Y-16669164D01*
X7403785Y-16669160D01*
X7072663Y-16500445D01*
X7069723Y-16498947D01*
X6716618Y-16363403D01*
X6351279Y-16265511D01*
X6152842Y-16234082D01*
X5980957Y-16206857D01*
X5980949Y-16206856D01*
X5977709Y-16206343D01*
X5694489Y-16191500D01*
X5505511Y-16191500D01*
X5222291Y-16206343D01*
X5219051Y-16206856D01*
X5219043Y-16206857D01*
X5047158Y-16234082D01*
X4848721Y-16265511D01*
X4483382Y-16363403D01*
X4130277Y-16498947D01*
X4127337Y-16500445D01*
X3796215Y-16669160D01*
X3796208Y-16669164D01*
X3793274Y-16670659D01*
X3476066Y-16876656D01*
X3182129Y-17114682D01*
X2914682Y-17382129D01*
X2676656Y-17676066D01*
X2470659Y-17993274D01*
X2298947Y-18330277D01*
X2163403Y-18683382D01*
X2065511Y-19048721D01*
X2006343Y-19422291D01*
X1986548Y-19800000D01*
X2006343Y-20177709D01*
X2065511Y-20551279D01*
X2163403Y-20916618D01*
X2298947Y-21269723D01*
X2470659Y-21606726D01*
X2676656Y-21923934D01*
X2914682Y-22217871D01*
X3182129Y-22485318D01*
X3476066Y-22723344D01*
X3793274Y-22929341D01*
X3796208Y-22930836D01*
X3796215Y-22930840D01*
X4127337Y-23099555D01*
X4130277Y-23101053D01*
X4483382Y-23236597D01*
X4848721Y-23334489D01*
X5047158Y-23365918D01*
X5219043Y-23393143D01*
X5219051Y-23393144D01*
X5222291Y-23393657D01*
X5505511Y-23408500D01*
X5694489Y-23408500D01*
X5977709Y-23393657D01*
X5980949Y-23393144D01*
X5980957Y-23393143D01*
X6152842Y-23365918D01*
X6351279Y-23334489D01*
X6716618Y-23236597D01*
X7069723Y-23101053D01*
X7072663Y-23099555D01*
X7403785Y-22930840D01*
X7403792Y-22930836D01*
X7406726Y-22929341D01*
X7723934Y-22723344D01*
X8017871Y-22485318D01*
X8285318Y-22217871D01*
X8523344Y-21923934D01*
X8729341Y-21606726D01*
X8901053Y-21269723D01*
X9036597Y-20916618D01*
X9044293Y-20887896D01*
X9081245Y-20827273D01*
X9145105Y-20796252D01*
X9215600Y-20804680D01*
X9270347Y-20849883D01*
X9292000Y-20920507D01*
X9292000Y-44079493D01*
X9271998Y-44147614D01*
X9218342Y-44194107D01*
X9148068Y-44204211D01*
X9083488Y-44174717D01*
X9044293Y-44112104D01*
X9037452Y-44086574D01*
X9036597Y-44083382D01*
X8901053Y-43730277D01*
X8729341Y-43393274D01*
X8523344Y-43076066D01*
X8285318Y-42782129D01*
X8017871Y-42514682D01*
X7723934Y-42276656D01*
X7406726Y-42070659D01*
X7403792Y-42069164D01*
X7403785Y-42069160D01*
X7072663Y-41900445D01*
X7069723Y-41898947D01*
X6716618Y-41763403D01*
X6351279Y-41665511D01*
X6152842Y-41634082D01*
X5980957Y-41606857D01*
X5980949Y-41606856D01*
X5977709Y-41606343D01*
X5694489Y-41591500D01*
X5505511Y-41591500D01*
X5222291Y-41606343D01*
X5219051Y-41606856D01*
X5219043Y-41606857D01*
X5047158Y-41634082D01*
X4848721Y-41665511D01*
X4483382Y-41763403D01*
X4130277Y-41898947D01*
X4127337Y-41900445D01*
X3796215Y-42069160D01*
X3796208Y-42069164D01*
X3793274Y-42070659D01*
X3476066Y-42276656D01*
X3182129Y-42514682D01*
X2914682Y-42782129D01*
X2676656Y-43076066D01*
X2470659Y-43393274D01*
X2298947Y-43730277D01*
X2163403Y-44083382D01*
X2065511Y-44448721D01*
X2006343Y-44822291D01*
X1986548Y-45200000D01*
X2006343Y-45577709D01*
X2065511Y-45951279D01*
X2163403Y-46316618D01*
X2298947Y-46669723D01*
X2470659Y-47006726D01*
X2676656Y-47323934D01*
X2914682Y-47617871D01*
X3182129Y-47885318D01*
X3476066Y-48123344D01*
X3793274Y-48329341D01*
X3796208Y-48330836D01*
X3796215Y-48330840D01*
X4127337Y-48499555D01*
X4130277Y-48501053D01*
X4483382Y-48636597D01*
X4848721Y-48734489D01*
X5047158Y-48765918D01*
X5219043Y-48793143D01*
X5219051Y-48793144D01*
X5222291Y-48793657D01*
X5505511Y-48808500D01*
X5694489Y-48808500D01*
X5977709Y-48793657D01*
X5980949Y-48793144D01*
X5980957Y-48793143D01*
X6152842Y-48765918D01*
X6351279Y-48734489D01*
X6716618Y-48636597D01*
X7069723Y-48501053D01*
X7072663Y-48499555D01*
X7403785Y-48330840D01*
X7403792Y-48330836D01*
X7406726Y-48329341D01*
X7723934Y-48123344D01*
X8017871Y-47885318D01*
X8285318Y-47617871D01*
X8523344Y-47323934D01*
X8729341Y-47006726D01*
X8901053Y-46669723D01*
X9036597Y-46316618D01*
X9044293Y-46287896D01*
X9081245Y-46227273D01*
X9145105Y-46196252D01*
X9215600Y-46204680D01*
X9270347Y-46249883D01*
X9292000Y-46320507D01*
X9292000Y-69479493D01*
X9271998Y-69547614D01*
X9218342Y-69594107D01*
X9148068Y-69604211D01*
X9083488Y-69574717D01*
X9044293Y-69512104D01*
X9037452Y-69486574D01*
X9036597Y-69483382D01*
X8901053Y-69130277D01*
X8729341Y-68793274D01*
X8523344Y-68476066D01*
X8285318Y-68182129D01*
X8017871Y-67914682D01*
X7723934Y-67676656D01*
X7406726Y-67470659D01*
X7403792Y-67469164D01*
X7403785Y-67469160D01*
X7072663Y-67300445D01*
X7069723Y-67298947D01*
X6716618Y-67163403D01*
X6351279Y-67065511D01*
X6152842Y-67034082D01*
X5980957Y-67006857D01*
X5980949Y-67006856D01*
X5977709Y-67006343D01*
X5694489Y-66991500D01*
X5505511Y-66991500D01*
X5222291Y-67006343D01*
X5219051Y-67006856D01*
X5219043Y-67006857D01*
X5047158Y-67034082D01*
X4848721Y-67065511D01*
X4483382Y-67163403D01*
X4130277Y-67298947D01*
X4127337Y-67300445D01*
X3796215Y-67469160D01*
X3796208Y-67469164D01*
X3793274Y-67470659D01*
X3476066Y-67676656D01*
X3182129Y-67914682D01*
X2914682Y-68182129D01*
X2676656Y-68476066D01*
X2470659Y-68793274D01*
X2298947Y-69130277D01*
X2163403Y-69483382D01*
X2065511Y-69848721D01*
X2006343Y-70222291D01*
X1986548Y-70600000D01*
X2006343Y-70977709D01*
X2065511Y-71351279D01*
X2163403Y-71716618D01*
X2298947Y-72069723D01*
X2470659Y-72406726D01*
X2676656Y-72723934D01*
X2914682Y-73017871D01*
X3182129Y-73285318D01*
X3476066Y-73523344D01*
X3793274Y-73729341D01*
X3796208Y-73730836D01*
X3796215Y-73730840D01*
X4127337Y-73899555D01*
X4130277Y-73901053D01*
X4483382Y-74036597D01*
X4848721Y-74134489D01*
X5047158Y-74165918D01*
X5219043Y-74193143D01*
X5219051Y-74193144D01*
X5222291Y-74193657D01*
X5505511Y-74208500D01*
X5694489Y-74208500D01*
X5977709Y-74193657D01*
X5980949Y-74193144D01*
X5980957Y-74193143D01*
X6152842Y-74165918D01*
X6351279Y-74134489D01*
X6716618Y-74036597D01*
X7069723Y-73901053D01*
X7072663Y-73899555D01*
X7403785Y-73730840D01*
X7403792Y-73730836D01*
X7406726Y-73729341D01*
X7723934Y-73523344D01*
X8017871Y-73285318D01*
X8285318Y-73017871D01*
X8523344Y-72723934D01*
X8729341Y-72406726D01*
X8901053Y-72069723D01*
X9036597Y-71716618D01*
X9044293Y-71687896D01*
X9081245Y-71627273D01*
X9145105Y-71596252D01*
X9215600Y-71604680D01*
X9270347Y-71649883D01*
X9292000Y-71720507D01*
X9292000Y-82179493D01*
X9271998Y-82247614D01*
X9218342Y-82294107D01*
X9148068Y-82304211D01*
X9083488Y-82274717D01*
X9044293Y-82212104D01*
X9037452Y-82186574D01*
X9036597Y-82183382D01*
X8901053Y-81830277D01*
X8729341Y-81493274D01*
X8523344Y-81176066D01*
X8285318Y-80882129D01*
X8017871Y-80614682D01*
X7723934Y-80376656D01*
X7406726Y-80170659D01*
X7403792Y-80169164D01*
X7403785Y-80169160D01*
X7072663Y-80000445D01*
X7069723Y-79998947D01*
X6716618Y-79863403D01*
X6351279Y-79765511D01*
X6152842Y-79734082D01*
X5980957Y-79706857D01*
X5980949Y-79706856D01*
X5977709Y-79706343D01*
X5694489Y-79691500D01*
X5505511Y-79691500D01*
X5222291Y-79706343D01*
X5219051Y-79706856D01*
X5219043Y-79706857D01*
X5047158Y-79734082D01*
X4848721Y-79765511D01*
X4483382Y-79863403D01*
X4130277Y-79998947D01*
X4127337Y-80000445D01*
X3796215Y-80169160D01*
X3796208Y-80169164D01*
X3793274Y-80170659D01*
X3476066Y-80376656D01*
X3182129Y-80614682D01*
X2914682Y-80882129D01*
X2676656Y-81176066D01*
X2470659Y-81493274D01*
X2298947Y-81830277D01*
X2163403Y-82183382D01*
X2065511Y-82548721D01*
X2006343Y-82922291D01*
X1986548Y-83300000D01*
X2006343Y-83677709D01*
X2065511Y-84051279D01*
X2163403Y-84416618D01*
X2298947Y-84769723D01*
X2470659Y-85106726D01*
X2676656Y-85423934D01*
X2914682Y-85717871D01*
X3182129Y-85985318D01*
X3476066Y-86223344D01*
X3793274Y-86429341D01*
X3796208Y-86430836D01*
X3796215Y-86430840D01*
X4127337Y-86599555D01*
X4130277Y-86601053D01*
X4483382Y-86736597D01*
X4848721Y-86834489D01*
X5047158Y-86865918D01*
X5219043Y-86893143D01*
X5219051Y-86893144D01*
X5222291Y-86893657D01*
X5505511Y-86908500D01*
X5694489Y-86908500D01*
X5977709Y-86893657D01*
X5980949Y-86893144D01*
X5980957Y-86893143D01*
X6152842Y-86865918D01*
X6351279Y-86834489D01*
X6716618Y-86736597D01*
X7069723Y-86601053D01*
X7072663Y-86599555D01*
X7403785Y-86430840D01*
X7403792Y-86430836D01*
X7406726Y-86429341D01*
X7723934Y-86223344D01*
X8017871Y-85985318D01*
X8285318Y-85717871D01*
X8523344Y-85423934D01*
X8729341Y-85106726D01*
X8901053Y-84769723D01*
X9036597Y-84416618D01*
X9044293Y-84387896D01*
X9081245Y-84327273D01*
X9145105Y-84296252D01*
X9215600Y-84304680D01*
X9270347Y-84349883D01*
X9292000Y-84420507D01*
X9292000Y-94879493D01*
X9271998Y-94947614D01*
X9218342Y-94994107D01*
X9148068Y-95004211D01*
X9083488Y-94974717D01*
X9044293Y-94912104D01*
X9037452Y-94886574D01*
X9036597Y-94883382D01*
X8901053Y-94530277D01*
X8729341Y-94193274D01*
X8523344Y-93876066D01*
X8285318Y-93582129D01*
X8017871Y-93314682D01*
X7723934Y-93076656D01*
X7406726Y-92870659D01*
X7403792Y-92869164D01*
X7403785Y-92869160D01*
X7072663Y-92700445D01*
X7069723Y-92698947D01*
X6716618Y-92563403D01*
X6351279Y-92465511D01*
X6152842Y-92434082D01*
X5980957Y-92406857D01*
X5980949Y-92406856D01*
X5977709Y-92406343D01*
X5694489Y-92391500D01*
X5505511Y-92391500D01*
X5222291Y-92406343D01*
X5219051Y-92406856D01*
X5219043Y-92406857D01*
X5047158Y-92434082D01*
X4848721Y-92465511D01*
X4483382Y-92563403D01*
X4130277Y-92698947D01*
X4127337Y-92700445D01*
X3796215Y-92869160D01*
X3796208Y-92869164D01*
X3793274Y-92870659D01*
X3476066Y-93076656D01*
X3182129Y-93314682D01*
X2914682Y-93582129D01*
X2676656Y-93876066D01*
X2470659Y-94193274D01*
X2298947Y-94530277D01*
X2163403Y-94883382D01*
X2065511Y-95248721D01*
X2006343Y-95622291D01*
X1986548Y-96000000D01*
X2006343Y-96377709D01*
X2065511Y-96751279D01*
X2163403Y-97116618D01*
X2298947Y-97469723D01*
X2470659Y-97806726D01*
X2676656Y-98123934D01*
X2914682Y-98417871D01*
X3182129Y-98685318D01*
X3476066Y-98923344D01*
X3793274Y-99129341D01*
X3796208Y-99130836D01*
X3796215Y-99130840D01*
X4127337Y-99299555D01*
X4130277Y-99301053D01*
X4483382Y-99436597D01*
X4848721Y-99534489D01*
X5047158Y-99565918D01*
X5219043Y-99593143D01*
X5219051Y-99593144D01*
X5222291Y-99593657D01*
X5505511Y-99608500D01*
X5694489Y-99608500D01*
X5977709Y-99593657D01*
X5980949Y-99593144D01*
X5980957Y-99593143D01*
X6152842Y-99565918D01*
X6351279Y-99534489D01*
X6716618Y-99436597D01*
X7069723Y-99301053D01*
X7072663Y-99299555D01*
X7403785Y-99130840D01*
X7403792Y-99130836D01*
X7406726Y-99129341D01*
X7723934Y-98923344D01*
X8017871Y-98685318D01*
X8285318Y-98417871D01*
X8523344Y-98123934D01*
X8729341Y-97806726D01*
X8901053Y-97469723D01*
X9036597Y-97116618D01*
X9044293Y-97087896D01*
X9081245Y-97027273D01*
X9145105Y-96996252D01*
X9215600Y-97004680D01*
X9270347Y-97049883D01*
X9292000Y-97120507D01*
X9292000Y-107579493D01*
X9271998Y-107647614D01*
X9218342Y-107694107D01*
X9148068Y-107704211D01*
X9083488Y-107674717D01*
X9044293Y-107612104D01*
X9037452Y-107586574D01*
X9036597Y-107583382D01*
X8901053Y-107230277D01*
X8729341Y-106893274D01*
X8523344Y-106576066D01*
X8285318Y-106282129D01*
X8017871Y-106014682D01*
X7723934Y-105776656D01*
X7406726Y-105570659D01*
X7403792Y-105569164D01*
X7403785Y-105569160D01*
X7072663Y-105400445D01*
X7069723Y-105398947D01*
X6716618Y-105263403D01*
X6351279Y-105165511D01*
X6152842Y-105134082D01*
X5980957Y-105106857D01*
X5980949Y-105106856D01*
X5977709Y-105106343D01*
X5694489Y-105091500D01*
X5505511Y-105091500D01*
X5222291Y-105106343D01*
X5219051Y-105106856D01*
X5219043Y-105106857D01*
X5047158Y-105134082D01*
X4848721Y-105165511D01*
X4483382Y-105263403D01*
X4130277Y-105398947D01*
X4127337Y-105400445D01*
X3796215Y-105569160D01*
X3796208Y-105569164D01*
X3793274Y-105570659D01*
X3476066Y-105776656D01*
X3182129Y-106014682D01*
X2914682Y-106282129D01*
X2676656Y-106576066D01*
X2470659Y-106893274D01*
X2298947Y-107230277D01*
X2163403Y-107583382D01*
X2065511Y-107948721D01*
X2006343Y-108322291D01*
X1986548Y-108700000D01*
X2006343Y-109077709D01*
X2065511Y-109451279D01*
X2163403Y-109816618D01*
X2298947Y-110169723D01*
X2470659Y-110506726D01*
X2676656Y-110823934D01*
X2914682Y-111117871D01*
X3182129Y-111385318D01*
X3476066Y-111623344D01*
X3793274Y-111829341D01*
X3796208Y-111830836D01*
X3796215Y-111830840D01*
X4127337Y-111999555D01*
X4130277Y-112001053D01*
X4483382Y-112136597D01*
X4848721Y-112234489D01*
X5047158Y-112265918D01*
X5219043Y-112293143D01*
X5219051Y-112293144D01*
X5222291Y-112293657D01*
X5505511Y-112308500D01*
X5694489Y-112308500D01*
X5977709Y-112293657D01*
X5980949Y-112293144D01*
X5980957Y-112293143D01*
X6152842Y-112265918D01*
X6351279Y-112234489D01*
X6716618Y-112136597D01*
X7069723Y-112001053D01*
X7072663Y-111999555D01*
X7403785Y-111830840D01*
X7403792Y-111830836D01*
X7406726Y-111829341D01*
X7723934Y-111623344D01*
X8017871Y-111385318D01*
X8285318Y-111117871D01*
X8523344Y-110823934D01*
X8729341Y-110506726D01*
X8901053Y-110169723D01*
X9036597Y-109816618D01*
X9044293Y-109787896D01*
X9081245Y-109727273D01*
X9145105Y-109696252D01*
X9215600Y-109704680D01*
X9270347Y-109749883D01*
X9292000Y-109820507D01*
X9292000Y-127866000D01*
X9271998Y-127934121D01*
X9218342Y-127980614D01*
X9166000Y-127992000D01*
X634000Y-127992000D01*
X565879Y-127971998D01*
X519386Y-127918342D01*
X508000Y-127866000D01*
X508000Y-126462820D01*
X528002Y-126394699D01*
X581658Y-126348206D01*
X651932Y-126338102D01*
X716512Y-126367596D01*
X742732Y-126399154D01*
X834265Y-126555482D01*
X837118Y-126559049D01*
X954686Y-126706060D01*
X1002716Y-126766119D01*
X1199809Y-126950234D01*
X1421416Y-127103968D01*
X1425499Y-127105999D01*
X1425502Y-127106001D01*
X1541013Y-127163466D01*
X1662894Y-127224101D01*
X1667228Y-127225522D01*
X1667231Y-127225523D01*
X1914853Y-127306698D01*
X1914859Y-127306699D01*
X1919186Y-127308118D01*
X1923677Y-127308898D01*
X1923678Y-127308898D01*
X2181140Y-127353601D01*
X2181148Y-127353602D01*
X2184921Y-127354257D01*
X2188758Y-127354448D01*
X2268578Y-127358422D01*
X2268586Y-127358422D01*
X2270149Y-127358500D01*
X2438512Y-127358500D01*
X2440780Y-127358335D01*
X2440792Y-127358335D01*
X2571884Y-127348823D01*
X2639004Y-127343953D01*
X2643459Y-127342969D01*
X2643462Y-127342969D01*
X2897912Y-127286791D01*
X2897916Y-127286790D01*
X2902372Y-127285806D01*
X3028480Y-127238028D01*
X3150318Y-127191868D01*
X3150321Y-127191867D01*
X3154588Y-127190250D01*
X3390368Y-127059286D01*
X3604773Y-126895657D01*
X3793312Y-126702792D01*
X3952034Y-126484730D01*
X4023863Y-126348206D01*
X4075490Y-126250079D01*
X4075493Y-126250073D01*
X4077615Y-126246039D01*
X4167425Y-125991720D01*
X4219581Y-125727100D01*
X4232991Y-125457723D01*
X4207375Y-125189231D01*
X4143269Y-124927250D01*
X4042015Y-124677267D01*
X3905735Y-124444518D01*
X3787928Y-124297208D01*
X3740136Y-124237447D01*
X3740135Y-124237445D01*
X3737284Y-124233881D01*
X3540191Y-124049766D01*
X3318584Y-123896032D01*
X3314501Y-123894001D01*
X3314498Y-123893999D01*
X3149606Y-123811967D01*
X3077106Y-123775899D01*
X3072772Y-123774478D01*
X3072769Y-123774477D01*
X2825147Y-123693302D01*
X2825141Y-123693301D01*
X2820814Y-123691882D01*
X2816322Y-123691102D01*
X2558860Y-123646399D01*
X2558852Y-123646398D01*
X2555079Y-123645743D01*
X2543817Y-123645182D01*
X2471422Y-123641578D01*
X2471414Y-123641578D01*
X2469851Y-123641500D01*
X2301488Y-123641500D01*
X2299220Y-123641665D01*
X2299208Y-123641665D01*
X2168116Y-123651177D01*
X2100996Y-123656047D01*
X2096541Y-123657031D01*
X2096538Y-123657031D01*
X1842088Y-123713209D01*
X1842084Y-123713210D01*
X1837628Y-123714194D01*
X1711520Y-123761972D01*
X1589682Y-123808132D01*
X1589679Y-123808133D01*
X1585412Y-123809750D01*
X1349632Y-123940714D01*
X1135227Y-124104343D01*
X946688Y-124297208D01*
X787966Y-124515270D01*
X785844Y-124519304D01*
X745509Y-124595968D01*
X696089Y-124646941D01*
X626957Y-124663104D01*
X560061Y-124639325D01*
X516640Y-124583155D01*
X508000Y-124537301D01*
X508000Y-58032703D01*
X3490743Y-58032703D01*
X3528268Y-58317734D01*
X3604129Y-58595036D01*
X3716923Y-58859476D01*
X3864561Y-59106161D01*
X4044313Y-59330528D01*
X4252851Y-59528423D01*
X4486317Y-59696186D01*
X4490112Y-59698195D01*
X4490113Y-59698196D01*
X4511869Y-59709715D01*
X4740392Y-59830712D01*
X5010373Y-59929511D01*
X5291264Y-59990755D01*
X5319841Y-59993004D01*
X5514282Y-60008307D01*
X5514291Y-60008307D01*
X5516739Y-60008500D01*
X5672271Y-60008500D01*
X5674407Y-60008354D01*
X5674418Y-60008354D01*
X5882548Y-59994165D01*
X5882554Y-59994164D01*
X5886825Y-59993873D01*
X5891020Y-59993004D01*
X5891022Y-59993004D01*
X6027584Y-59964723D01*
X6168342Y-59935574D01*
X6439343Y-59839607D01*
X6694812Y-59707750D01*
X6698313Y-59705289D01*
X6698317Y-59705287D01*
X6812418Y-59625095D01*
X6930023Y-59542441D01*
X7140622Y-59346740D01*
X7322713Y-59124268D01*
X7472927Y-58879142D01*
X7588483Y-58615898D01*
X7667244Y-58339406D01*
X7707751Y-58054784D01*
X7707845Y-58036951D01*
X7709235Y-57771583D01*
X7709235Y-57771576D01*
X7709257Y-57767297D01*
X7671732Y-57482266D01*
X7595871Y-57204964D01*
X7483077Y-56940524D01*
X7335439Y-56693839D01*
X7155687Y-56469472D01*
X6947149Y-56271577D01*
X6713683Y-56103814D01*
X6691843Y-56092250D01*
X6668654Y-56079972D01*
X6459608Y-55969288D01*
X6189627Y-55870489D01*
X5908736Y-55809245D01*
X5877685Y-55806801D01*
X5685718Y-55791693D01*
X5685709Y-55791693D01*
X5683261Y-55791500D01*
X5527729Y-55791500D01*
X5525593Y-55791646D01*
X5525582Y-55791646D01*
X5317452Y-55805835D01*
X5317446Y-55805836D01*
X5313175Y-55806127D01*
X5308980Y-55806996D01*
X5308978Y-55806996D01*
X5172417Y-55835276D01*
X5031658Y-55864426D01*
X4760657Y-55960393D01*
X4505188Y-56092250D01*
X4501687Y-56094711D01*
X4501683Y-56094713D01*
X4491594Y-56101804D01*
X4269977Y-56257559D01*
X4059378Y-56453260D01*
X3877287Y-56675732D01*
X3727073Y-56920858D01*
X3611517Y-57184102D01*
X3532756Y-57460594D01*
X3492249Y-57745216D01*
X3492227Y-57749505D01*
X3492226Y-57749512D01*
X3490765Y-58028417D01*
X3490743Y-58032703D01*
X508000Y-58032703D01*
X508000Y-32632703D01*
X3490743Y-32632703D01*
X3528268Y-32917734D01*
X3604129Y-33195036D01*
X3716923Y-33459476D01*
X3864561Y-33706161D01*
X4044313Y-33930528D01*
X4252851Y-34128423D01*
X4486317Y-34296186D01*
X4490112Y-34298195D01*
X4490113Y-34298196D01*
X4511869Y-34309715D01*
X4740392Y-34430712D01*
X5010373Y-34529511D01*
X5291264Y-34590755D01*
X5319841Y-34593004D01*
X5514282Y-34608307D01*
X5514291Y-34608307D01*
X5516739Y-34608500D01*
X5672271Y-34608500D01*
X5674407Y-34608354D01*
X5674418Y-34608354D01*
X5882548Y-34594165D01*
X5882554Y-34594164D01*
X5886825Y-34593873D01*
X5891020Y-34593004D01*
X5891022Y-34593004D01*
X6027583Y-34564724D01*
X6168342Y-34535574D01*
X6439343Y-34439607D01*
X6694812Y-34307750D01*
X6698313Y-34305289D01*
X6698317Y-34305287D01*
X6812417Y-34225096D01*
X6930023Y-34142441D01*
X7140622Y-33946740D01*
X7322713Y-33724268D01*
X7472927Y-33479142D01*
X7588483Y-33215898D01*
X7667244Y-32939406D01*
X7707751Y-32654784D01*
X7707845Y-32636951D01*
X7709235Y-32371583D01*
X7709235Y-32371576D01*
X7709257Y-32367297D01*
X7671732Y-32082266D01*
X7595871Y-31804964D01*
X7483077Y-31540524D01*
X7335439Y-31293839D01*
X7155687Y-31069472D01*
X6947149Y-30871577D01*
X6713683Y-30703814D01*
X6691843Y-30692250D01*
X6668654Y-30679972D01*
X6459608Y-30569288D01*
X6189627Y-30470489D01*
X5908736Y-30409245D01*
X5877685Y-30406801D01*
X5685718Y-30391693D01*
X5685709Y-30391693D01*
X5683261Y-30391500D01*
X5527729Y-30391500D01*
X5525593Y-30391646D01*
X5525582Y-30391646D01*
X5317452Y-30405835D01*
X5317446Y-30405836D01*
X5313175Y-30406127D01*
X5308980Y-30406996D01*
X5308978Y-30406996D01*
X5172417Y-30435276D01*
X5031658Y-30464426D01*
X4760657Y-30560393D01*
X4505188Y-30692250D01*
X4501687Y-30694711D01*
X4501683Y-30694713D01*
X4491594Y-30701804D01*
X4269977Y-30857559D01*
X4059378Y-31053260D01*
X3877287Y-31275732D01*
X3727073Y-31520858D01*
X3611517Y-31784102D01*
X3532756Y-32060594D01*
X3492249Y-32345216D01*
X3492227Y-32349505D01*
X3492226Y-32349512D01*
X3490765Y-32628417D01*
X3490743Y-32632703D01*
X508000Y-32632703D01*
X508000Y-4406983D01*
X528002Y-4338862D01*
X581658Y-4292369D01*
X651932Y-4282265D01*
X716512Y-4311759D01*
X732334Y-4328202D01*
X767227Y-4371755D01*
X814313Y-4430528D01*
X1022851Y-4628423D01*
X1256317Y-4796186D01*
X1260112Y-4798195D01*
X1260113Y-4798196D01*
X1281869Y-4809715D01*
X1510392Y-4930712D01*
X1780373Y-5029511D01*
X2061264Y-5090755D01*
X2089841Y-5093004D01*
X2284282Y-5108307D01*
X2284291Y-5108307D01*
X2286739Y-5108500D01*
X2442271Y-5108500D01*
X2444407Y-5108354D01*
X2444418Y-5108354D01*
X2652548Y-5094165D01*
X2652554Y-5094164D01*
X2656825Y-5093873D01*
X2661020Y-5093004D01*
X2661022Y-5093004D01*
X2797584Y-5064723D01*
X2938342Y-5035574D01*
X3209343Y-4939607D01*
X3464812Y-4807750D01*
X3468313Y-4805289D01*
X3468317Y-4805287D01*
X3582417Y-4725096D01*
X3700023Y-4642441D01*
X3910622Y-4446740D01*
X4092713Y-4224268D01*
X4242927Y-3979142D01*
X4358483Y-3715898D01*
X4437244Y-3439406D01*
X4477751Y-3154784D01*
X4479257Y-2867297D01*
X4441732Y-2582266D01*
X4365871Y-2304964D01*
X4253077Y-2040524D01*
X4105439Y-1793839D01*
X3925687Y-1569472D01*
X3717149Y-1371577D01*
X3483683Y-1203814D01*
X3461843Y-1192250D01*
X3438654Y-1179972D01*
X3229608Y-1069288D01*
X2959627Y-970489D01*
X2678736Y-909245D01*
X2647685Y-906801D01*
X2455718Y-891693D01*
X2455709Y-891693D01*
X2453261Y-891500D01*
X2297729Y-891500D01*
X2295593Y-891646D01*
X2295582Y-891646D01*
X2087452Y-905835D01*
X2087446Y-905836D01*
X2083175Y-906127D01*
X2078980Y-906996D01*
X2078978Y-906996D01*
X1942416Y-935277D01*
X1801658Y-964426D01*
X1530657Y-1060393D01*
X1275188Y-1192250D01*
X1271687Y-1194711D01*
X1271683Y-1194713D01*
X1261594Y-1201804D01*
X1039977Y-1357559D01*
X829378Y-1553260D01*
X731504Y-1672839D01*
X672879Y-1712885D01*
X601911Y-1714878D01*
X541130Y-1678187D01*
X509835Y-1614460D01*
X508000Y-1593033D01*
X508000Y-634000D01*
X528002Y-565879D01*
X581658Y-519386D01*
X634000Y-508000D01*
X9166000Y-508000D01*
X9234121Y-528002D01*
G37*
G04 #@! TD.AperFunction*
M02*
