G04 #@! TF.GenerationSoftware,KiCad,Pcbnew,(6.0.1)*
G04 #@! TF.CreationDate,2022-12-18T10:13:48+01:00*
G04 #@! TF.ProjectId,Slimline Clock Divider,536c696d-6c69-46e6-9520-436c6f636b20,rev?*
G04 #@! TF.SameCoordinates,Original*
G04 #@! TF.FileFunction,Legend,Top*
G04 #@! TF.FilePolarity,Positive*
%FSLAX46Y46*%
G04 Gerber Fmt 4.6, Leading zero omitted, Abs format (unit mm)*
G04 Created by KiCad (PCBNEW (6.0.1)) date 2022-12-18 10:13:48*
%MOMM*%
%LPD*%
G01*
G04 APERTURE LIST*
%ADD10C,0.150000*%
G04 APERTURE END LIST*
D10*
G04 #@! TO.C,*
G04 #@! TO.C,G\u002A\u002A\u002A*
G36*
X366555Y-125826721D02*
G01*
X-4170Y-125826721D01*
X-4170Y-125328682D01*
X366555Y-125328682D01*
X366555Y-125826721D01*
G37*
G36*
X9804170Y-125826721D02*
G01*
X4365096Y-125826721D01*
X4365096Y-125328682D01*
X9804170Y-125328682D01*
X9804170Y-125826721D01*
G37*
G36*
X4257357Y-114015431D02*
G01*
X4282953Y-114030050D01*
X4310076Y-114057619D01*
X4333338Y-114091056D01*
X4347349Y-114123277D01*
X4349207Y-114136152D01*
X4345431Y-114158439D01*
X4333501Y-114188677D01*
X4312518Y-114228363D01*
X4281582Y-114278995D01*
X4239791Y-114342069D01*
X4186246Y-114419083D01*
X4140573Y-114483083D01*
X4037636Y-114626706D01*
X3935852Y-114769757D01*
X3836114Y-114910934D01*
X3739311Y-115048930D01*
X3646334Y-115182443D01*
X3558074Y-115310168D01*
X3475421Y-115430801D01*
X3399266Y-115543038D01*
X3330499Y-115645575D01*
X3270012Y-115737108D01*
X3218695Y-115816332D01*
X3177438Y-115881944D01*
X3147132Y-115932639D01*
X3132893Y-115958588D01*
X3104996Y-116009826D01*
X3072343Y-116065095D01*
X3037291Y-116120893D01*
X3002197Y-116173715D01*
X2969415Y-116220059D01*
X2941303Y-116256421D01*
X2920216Y-116279298D01*
X2913970Y-116284074D01*
X2886612Y-116292577D01*
X2869314Y-116292509D01*
X2839471Y-116277814D01*
X2813503Y-116248790D01*
X2796325Y-116212273D01*
X2792160Y-116185177D01*
X2798280Y-116151584D01*
X2815907Y-116102914D01*
X2843937Y-116041122D01*
X2881268Y-115968163D01*
X2926798Y-115885991D01*
X2979424Y-115796561D01*
X3038043Y-115701826D01*
X3101554Y-115603742D01*
X3168853Y-115504263D01*
X3207040Y-115449722D01*
X3231291Y-115414949D01*
X3265762Y-115364707D01*
X3308980Y-115301195D01*
X3359471Y-115226615D01*
X3415760Y-115143167D01*
X3476374Y-115053053D01*
X3539840Y-114958474D01*
X3604682Y-114861630D01*
X3669427Y-114764723D01*
X3732601Y-114669953D01*
X3792731Y-114579522D01*
X3848341Y-114495630D01*
X3897959Y-114420479D01*
X3940109Y-114356268D01*
X3967890Y-114313599D01*
X4014103Y-114244815D01*
X4060529Y-114180423D01*
X4104915Y-114123218D01*
X4145005Y-114075994D01*
X4178546Y-114041546D01*
X4201901Y-114023417D01*
X4237872Y-114013503D01*
X4257357Y-114015431D01*
G37*
G36*
X5630001Y-114275444D02*
G01*
X5658125Y-114301002D01*
X5681771Y-114337700D01*
X5693946Y-114369499D01*
X5703056Y-114410948D01*
X5702145Y-114441902D01*
X5690157Y-114471065D01*
X5679601Y-114487812D01*
X5666649Y-114514681D01*
X5650984Y-114559666D01*
X5633239Y-114619954D01*
X5614051Y-114692734D01*
X5594054Y-114775194D01*
X5573883Y-114864524D01*
X5554174Y-114957910D01*
X5535562Y-115052543D01*
X5518681Y-115145610D01*
X5504168Y-115234299D01*
X5492769Y-115314914D01*
X5488043Y-115362704D01*
X5483905Y-115424697D01*
X5480721Y-115493905D01*
X5478857Y-115563340D01*
X5478595Y-115585127D01*
X5477272Y-115754672D01*
X5530233Y-115750898D01*
X5558837Y-115747034D01*
X5603009Y-115738851D01*
X5657813Y-115727361D01*
X5718313Y-115713576D01*
X5752669Y-115705275D01*
X5849806Y-115682498D01*
X5941622Y-115663289D01*
X6024649Y-115648259D01*
X6095419Y-115638020D01*
X6150463Y-115633182D01*
X6163655Y-115632874D01*
X6191499Y-115635203D01*
X6207369Y-115646273D01*
X6219264Y-115669559D01*
X6232625Y-115715723D01*
X6234288Y-115758139D01*
X6224586Y-115791493D01*
X6210606Y-115807008D01*
X6183712Y-115821871D01*
X6149376Y-115835335D01*
X6104824Y-115848103D01*
X6047283Y-115860874D01*
X5973978Y-115874351D01*
X5890367Y-115887954D01*
X5804027Y-115901778D01*
X5734008Y-115913908D01*
X5675610Y-115925292D01*
X5624133Y-115936878D01*
X5574880Y-115949615D01*
X5549265Y-115956814D01*
X5535541Y-115963756D01*
X5527821Y-115978282D01*
X5523873Y-116005993D01*
X5522785Y-116023249D01*
X5519755Y-116058475D01*
X5513548Y-116078944D01*
X5501422Y-116091088D01*
X5491621Y-116096366D01*
X5465611Y-116104838D01*
X5428133Y-116112555D01*
X5399823Y-116116420D01*
X5336044Y-116123089D01*
X5294854Y-116078461D01*
X5253663Y-116033833D01*
X5185401Y-116051229D01*
X5150000Y-116060693D01*
X5100206Y-116074596D01*
X5041909Y-116091265D01*
X4981001Y-116109030D01*
X4963553Y-116114189D01*
X4884063Y-116136975D01*
X4821153Y-116152969D01*
X4771533Y-116162721D01*
X4731911Y-116166783D01*
X4698996Y-116165708D01*
X4677732Y-116162091D01*
X4636188Y-116142973D01*
X4604637Y-116109915D01*
X4586598Y-116068436D01*
X4585592Y-116024059D01*
X4586667Y-116019258D01*
X4594239Y-116000621D01*
X4608343Y-115983988D01*
X4631038Y-115968570D01*
X4664384Y-115953575D01*
X4710443Y-115938211D01*
X4771273Y-115921689D01*
X4848935Y-115903216D01*
X4942368Y-115882670D01*
X5030158Y-115863477D01*
X5099230Y-115847439D01*
X5151708Y-115833919D01*
X5189716Y-115822278D01*
X5215379Y-115811878D01*
X5230820Y-115802080D01*
X5237343Y-115794053D01*
X5242165Y-115775885D01*
X5247305Y-115742321D01*
X5251962Y-115699127D01*
X5253895Y-115675198D01*
X5259303Y-115613993D01*
X5268040Y-115535445D01*
X5280187Y-115438933D01*
X5295829Y-115323838D01*
X5315049Y-115189540D01*
X5337930Y-115035418D01*
X5354940Y-114923435D01*
X5366304Y-114849073D01*
X5376538Y-114781888D01*
X5385224Y-114724633D01*
X5391946Y-114680062D01*
X5396287Y-114650926D01*
X5397831Y-114639979D01*
X5397831Y-114639977D01*
X5388901Y-114637351D01*
X5376295Y-114636733D01*
X5349578Y-114642901D01*
X5309428Y-114660250D01*
X5259210Y-114687050D01*
X5202290Y-114721573D01*
X5170100Y-114742716D01*
X5067784Y-114805569D01*
X4971777Y-114851387D01*
X4881289Y-114881177D01*
X4809932Y-114896350D01*
X4756183Y-114900753D01*
X4719413Y-114894398D01*
X4704801Y-114884996D01*
X4695483Y-114865017D01*
X4689650Y-114832488D01*
X4687824Y-114795844D01*
X4690523Y-114763520D01*
X4696263Y-114746483D01*
X4707722Y-114738448D01*
X4735400Y-114722788D01*
X4776405Y-114701025D01*
X4827846Y-114674681D01*
X4886832Y-114645279D01*
X4910592Y-114633636D01*
X4984759Y-114596551D01*
X5064584Y-114555085D01*
X5143729Y-114512634D01*
X5215856Y-114472593D01*
X5270725Y-114440707D01*
X5357405Y-114389025D01*
X5427974Y-114347795D01*
X5484194Y-114316086D01*
X5527825Y-114292968D01*
X5560628Y-114277512D01*
X5584362Y-114268788D01*
X5600788Y-114265865D01*
X5601692Y-114265853D01*
X5630001Y-114275444D01*
G37*
G36*
X7007124Y-115803815D02*
G01*
X7011983Y-115763565D01*
X7016249Y-115725147D01*
X7038392Y-115604385D01*
X7077160Y-115494751D01*
X7131530Y-115397434D01*
X7200479Y-115313626D01*
X7282986Y-115244516D01*
X7378028Y-115191294D01*
X7484581Y-115155152D01*
X7510967Y-115149308D01*
X7565970Y-115141135D01*
X7636521Y-115135075D01*
X7717051Y-115131548D01*
X7754587Y-115130904D01*
X7815887Y-115130478D01*
X7860601Y-115130912D01*
X7893326Y-115132857D01*
X7918662Y-115136960D01*
X7941204Y-115143872D01*
X7965550Y-115154242D01*
X7985219Y-115163475D01*
X8054557Y-115204181D01*
X8114296Y-115254670D01*
X8160573Y-115311062D01*
X8189112Y-115368237D01*
X8207081Y-115446432D01*
X8207164Y-115521613D01*
X8188863Y-115594668D01*
X8151680Y-115666485D01*
X8095119Y-115737955D01*
X8018681Y-115809966D01*
X7921869Y-115883406D01*
X7887849Y-115906465D01*
X7775171Y-115977285D01*
X7675555Y-116031892D01*
X7588638Y-116070465D01*
X7514057Y-116093185D01*
X7510967Y-116093841D01*
X7465824Y-116100845D01*
X7406202Y-116106711D01*
X7337528Y-116111248D01*
X7265231Y-116114262D01*
X7194736Y-116115561D01*
X7131472Y-116114953D01*
X7080864Y-116112246D01*
X7060513Y-116109811D01*
X6963142Y-116086715D01*
X6876226Y-116049285D01*
X6795428Y-115995199D01*
X6723652Y-115929647D01*
X6688006Y-115889252D01*
X6653264Y-115843526D01*
X6626570Y-115801918D01*
X6625180Y-115799390D01*
X6610367Y-115771403D01*
X6600392Y-115748651D01*
X6594360Y-115725927D01*
X6591372Y-115698025D01*
X6590531Y-115659738D01*
X6590940Y-115605858D01*
X6590996Y-115601022D01*
X6593550Y-115523287D01*
X6599676Y-115459727D01*
X6610127Y-115403514D01*
X6614796Y-115384873D01*
X6644576Y-115298419D01*
X6689863Y-115202509D01*
X6748983Y-115100088D01*
X6820264Y-114994100D01*
X6886201Y-114907113D01*
X6915084Y-114872995D01*
X6955279Y-114828444D01*
X7004045Y-114776238D01*
X7058642Y-114719157D01*
X7116329Y-114659977D01*
X7174365Y-114601477D01*
X7230009Y-114546435D01*
X7280522Y-114497630D01*
X7323162Y-114457838D01*
X7355188Y-114429839D01*
X7363701Y-114423098D01*
X7426834Y-114382627D01*
X7488751Y-114356063D01*
X7547131Y-114343007D01*
X7599654Y-114343055D01*
X7643996Y-114355806D01*
X7677838Y-114380858D01*
X7698857Y-114417810D01*
X7704732Y-114466258D01*
X7703339Y-114481892D01*
X7692619Y-114522003D01*
X7670982Y-114546064D01*
X7634837Y-114557910D01*
X7631726Y-114558373D01*
X7604903Y-114565451D01*
X7566775Y-114579555D01*
X7524802Y-114597877D01*
X7517372Y-114601426D01*
X7487025Y-114617569D01*
X7456416Y-114637242D01*
X7423633Y-114662199D01*
X7386765Y-114694197D01*
X7343900Y-114734988D01*
X7293126Y-114786328D01*
X7232530Y-114849972D01*
X7160201Y-114927674D01*
X7150834Y-114937819D01*
X7082998Y-115012197D01*
X7028196Y-115074763D01*
X6984398Y-115128601D01*
X6949571Y-115176797D01*
X6921685Y-115222436D01*
X6898707Y-115268605D01*
X6878607Y-115318389D01*
X6859353Y-115374873D01*
X6855859Y-115385868D01*
X6830179Y-115484502D01*
X6819907Y-115569641D01*
X6825163Y-115642463D01*
X6846067Y-115704145D01*
X6882739Y-115755862D01*
X6894756Y-115767715D01*
X6929212Y-115797837D01*
X6960718Y-115822468D01*
X6985429Y-115838862D01*
X6999501Y-115844278D01*
X7000957Y-115843530D01*
X7001391Y-115841348D01*
X7177327Y-115841348D01*
X7180081Y-115870152D01*
X7190523Y-115885943D01*
X7201146Y-115890248D01*
X7236980Y-115894217D01*
X7286308Y-115895941D01*
X7341570Y-115895497D01*
X7395204Y-115892965D01*
X7439650Y-115888424D01*
X7444209Y-115887715D01*
X7526798Y-115866847D01*
X7615481Y-115829913D01*
X7712569Y-115775929D01*
X7723545Y-115769106D01*
X7814741Y-115707492D01*
X7891282Y-115646616D01*
X7951820Y-115587811D01*
X7995008Y-115532407D01*
X8019497Y-115481736D01*
X8021408Y-115474893D01*
X8019088Y-115450295D01*
X7998878Y-115426053D01*
X7959757Y-115401352D01*
X7900703Y-115375380D01*
X7892536Y-115372255D01*
X7824458Y-115353023D01*
X7745208Y-115340847D01*
X7663253Y-115336367D01*
X7587059Y-115340222D01*
X7549697Y-115346340D01*
X7457557Y-115376653D01*
X7377466Y-115424217D01*
X7309853Y-115488562D01*
X7255145Y-115569220D01*
X7213770Y-115665722D01*
X7194488Y-115735571D01*
X7182162Y-115797249D01*
X7177327Y-115841348D01*
X7001391Y-115841348D01*
X7003256Y-115831968D01*
X7007124Y-115803815D01*
G37*
G36*
X5265795Y-101304465D02*
G01*
X5296808Y-101327416D01*
X5324881Y-101359205D01*
X5344151Y-101394166D01*
X5348548Y-101410073D01*
X5349190Y-101427375D01*
X5345101Y-101447791D01*
X5335303Y-101473039D01*
X5318818Y-101504838D01*
X5294668Y-101544906D01*
X5261875Y-101594961D01*
X5219463Y-101656723D01*
X5166452Y-101731909D01*
X5101865Y-101822238D01*
X5095740Y-101830768D01*
X5003614Y-101959191D01*
X4921720Y-102073774D01*
X4847777Y-102177773D01*
X4779501Y-102274448D01*
X4714611Y-102367057D01*
X4650823Y-102458858D01*
X4585856Y-102553109D01*
X4517426Y-102653068D01*
X4443251Y-102761994D01*
X4438786Y-102768565D01*
X4372400Y-102866481D01*
X4316858Y-102948921D01*
X4270922Y-103017816D01*
X4233350Y-103075097D01*
X4202903Y-103122693D01*
X4178341Y-103162536D01*
X4158424Y-103196556D01*
X4141911Y-103226683D01*
X4131376Y-103247166D01*
X4103341Y-103299678D01*
X4070735Y-103355210D01*
X4035657Y-103410765D01*
X4000210Y-103463345D01*
X3966496Y-103509952D01*
X3936617Y-103547589D01*
X3912673Y-103573257D01*
X3896767Y-103583960D01*
X3895160Y-103584087D01*
X3881772Y-103579950D01*
X3857949Y-103570390D01*
X3854709Y-103568992D01*
X3819348Y-103542927D01*
X3797043Y-103504619D01*
X3791305Y-103460742D01*
X3792630Y-103450923D01*
X3804027Y-103413659D01*
X3826406Y-103361538D01*
X3858395Y-103296918D01*
X3898620Y-103222155D01*
X3945707Y-103139608D01*
X3998285Y-103051635D01*
X4054979Y-102960592D01*
X4114416Y-102868838D01*
X4175224Y-102778731D01*
X4227112Y-102704985D01*
X4257122Y-102662578D01*
X4295801Y-102606942D01*
X4340104Y-102542512D01*
X4386989Y-102473719D01*
X4433413Y-102404996D01*
X4448983Y-102381790D01*
X4496855Y-102310406D01*
X4548315Y-102233860D01*
X4599723Y-102157552D01*
X4647442Y-102086885D01*
X4687830Y-102027258D01*
X4695336Y-102016208D01*
X4738114Y-101952540D01*
X4784678Y-101882017D01*
X4830339Y-101811812D01*
X4870408Y-101749101D01*
X4883276Y-101728596D01*
X4955642Y-101615472D01*
X5021526Y-101518606D01*
X5080519Y-101438499D01*
X5132210Y-101375654D01*
X5176188Y-101330572D01*
X5212045Y-101303753D01*
X5237561Y-101295640D01*
X5265795Y-101304465D01*
G37*
G36*
X5793694Y-103006619D02*
G01*
X5831167Y-102940464D01*
X5885573Y-102873610D01*
X5957982Y-102804584D01*
X6049462Y-102731911D01*
X6079234Y-102710284D01*
X6125168Y-102677073D01*
X6164322Y-102647968D01*
X6193731Y-102625238D01*
X6210430Y-102611149D01*
X6213124Y-102607879D01*
X6204684Y-102599773D01*
X6182052Y-102584647D01*
X6149725Y-102565457D01*
X6141930Y-102561080D01*
X6035401Y-102496222D01*
X5947038Y-102430436D01*
X5877727Y-102364490D01*
X5828351Y-102299157D01*
X5816299Y-102277295D01*
X5793236Y-102208464D01*
X5790174Y-102142956D01*
X6022769Y-102142956D01*
X6031654Y-102179552D01*
X6056430Y-102222102D01*
X6094274Y-102266625D01*
X6138387Y-102306050D01*
X6166030Y-102326334D01*
X6203250Y-102351690D01*
X6246071Y-102379642D01*
X6290515Y-102407710D01*
X6332608Y-102433416D01*
X6368372Y-102454283D01*
X6393831Y-102467833D01*
X6404268Y-102471746D01*
X6413941Y-102465202D01*
X6435939Y-102447383D01*
X6466807Y-102421155D01*
X6496711Y-102395035D01*
X6568848Y-102327623D01*
X6628974Y-102263816D01*
X6674892Y-102206101D01*
X6701229Y-102163458D01*
X6719711Y-102106186D01*
X6719408Y-102048463D01*
X6702434Y-101993301D01*
X6670905Y-101943708D01*
X6626935Y-101902694D01*
X6572639Y-101873270D01*
X6510132Y-101858443D01*
X6486062Y-101857259D01*
X6435596Y-101863606D01*
X6373922Y-101881396D01*
X6306311Y-101908754D01*
X6238035Y-101943804D01*
X6230317Y-101948279D01*
X6178717Y-101981586D01*
X6129682Y-102018643D01*
X6086396Y-102056463D01*
X6052040Y-102092062D01*
X6029798Y-102122455D01*
X6022769Y-102142956D01*
X5790174Y-102142956D01*
X5789909Y-102137294D01*
X5805618Y-102067023D01*
X5839662Y-102000889D01*
X5888232Y-101944951D01*
X5930311Y-101910459D01*
X5985917Y-101870878D01*
X6050644Y-101828790D01*
X6120087Y-101786781D01*
X6189839Y-101747432D01*
X6255493Y-101713329D01*
X6312645Y-101687054D01*
X6353507Y-101672136D01*
X6454282Y-101653734D01*
X6556104Y-101655969D01*
X6656815Y-101678529D01*
X6754254Y-101721100D01*
X6774940Y-101733061D01*
X6815725Y-101760426D01*
X6844099Y-101787961D01*
X6863608Y-101821269D01*
X6877798Y-101865951D01*
X6887071Y-101910242D01*
X6895743Y-101952266D01*
X6904370Y-101986418D01*
X6911504Y-102007194D01*
X6913465Y-102010380D01*
X6922178Y-102014410D01*
X6923156Y-102010380D01*
X6928290Y-101995847D01*
X6941160Y-101971033D01*
X6947954Y-101959421D01*
X6972697Y-101918529D01*
X7011124Y-101952283D01*
X7044887Y-101992509D01*
X7057726Y-102035314D01*
X7049561Y-102080353D01*
X7044319Y-102091746D01*
X7000957Y-102166788D01*
X6950003Y-102236214D01*
X6888625Y-102303000D01*
X6813990Y-102370118D01*
X6723268Y-102440544D01*
X6688033Y-102465927D01*
X6554403Y-102560662D01*
X6634593Y-102607623D01*
X6687023Y-102642911D01*
X6744111Y-102688912D01*
X6801091Y-102741065D01*
X6853201Y-102794807D01*
X6895676Y-102845576D01*
X6918851Y-102879829D01*
X6933104Y-102906077D01*
X6942097Y-102929353D01*
X6947009Y-102955796D01*
X6949015Y-102991548D01*
X6949303Y-103038778D01*
X6946981Y-103112375D01*
X6939584Y-103169483D01*
X6925799Y-103214465D01*
X6904317Y-103251687D01*
X6875783Y-103283646D01*
X6828164Y-103318941D01*
X6761332Y-103351467D01*
X6674731Y-103381437D01*
X6567801Y-103409066D01*
X6524520Y-103418419D01*
X6432245Y-103435823D01*
X6354292Y-103446469D01*
X6285062Y-103450809D01*
X6218956Y-103449290D01*
X6180655Y-103445988D01*
X6119671Y-103437333D01*
X6054021Y-103424411D01*
X5989897Y-103408757D01*
X5933493Y-103391908D01*
X5891000Y-103375399D01*
X5885989Y-103372934D01*
X5832847Y-103335962D01*
X5795512Y-103287009D01*
X5773243Y-103224663D01*
X5765300Y-103147511D01*
X5765264Y-103142727D01*
X5767349Y-103121575D01*
X5999248Y-103121575D01*
X6000649Y-103164766D01*
X6021238Y-103200859D01*
X6061253Y-103230949D01*
X6105862Y-103250865D01*
X6138872Y-103258172D01*
X6187714Y-103262902D01*
X6247193Y-103265052D01*
X6312114Y-103264624D01*
X6377283Y-103261615D01*
X6437503Y-103256026D01*
X6472080Y-103250911D01*
X6554357Y-103230655D01*
X6625273Y-103201974D01*
X6682516Y-103166370D01*
X6723776Y-103125347D01*
X6746740Y-103080407D01*
X6748972Y-103070879D01*
X6747228Y-103026886D01*
X6728443Y-102976371D01*
X6694720Y-102921880D01*
X6648165Y-102865962D01*
X6590882Y-102811162D01*
X6524976Y-102760029D01*
X6457047Y-102717585D01*
X6398790Y-102685237D01*
X6319349Y-102748694D01*
X6262026Y-102796603D01*
X6204114Y-102848757D01*
X6149497Y-102901352D01*
X6102058Y-102950582D01*
X6065682Y-102992645D01*
X6053050Y-103009521D01*
X6016795Y-103070191D01*
X5999248Y-103121575D01*
X5767349Y-103121575D01*
X5772082Y-103073549D01*
X5793694Y-103006619D01*
G37*
G36*
X5265851Y-88588598D02*
G01*
X5296951Y-88611649D01*
X5325073Y-88643634D01*
X5344309Y-88678686D01*
X5348348Y-88694221D01*
X5348495Y-88711723D01*
X5343832Y-88732749D01*
X5333446Y-88758857D01*
X5316420Y-88791604D01*
X5291837Y-88832549D01*
X5258784Y-88883249D01*
X5216343Y-88945262D01*
X5163600Y-89020147D01*
X5099638Y-89109460D01*
X5053663Y-89173154D01*
X4960410Y-89303104D01*
X4858000Y-89447672D01*
X4748692Y-89603620D01*
X4634743Y-89767712D01*
X4518410Y-89936711D01*
X4401950Y-90107380D01*
X4395927Y-90116249D01*
X4339419Y-90199507D01*
X4293420Y-90267439D01*
X4256530Y-90322241D01*
X4227346Y-90366114D01*
X4204466Y-90401255D01*
X4186488Y-90429864D01*
X4172010Y-90454137D01*
X4159630Y-90476275D01*
X4147946Y-90498474D01*
X4135557Y-90522934D01*
X4131828Y-90530372D01*
X4103661Y-90583154D01*
X4070957Y-90638896D01*
X4035811Y-90694609D01*
X4000318Y-90747301D01*
X3966573Y-90793984D01*
X3936670Y-90831665D01*
X3912705Y-90857356D01*
X3896773Y-90868065D01*
X3895160Y-90868192D01*
X3881772Y-90864055D01*
X3857949Y-90854495D01*
X3854709Y-90853097D01*
X3819920Y-90827463D01*
X3797407Y-90789803D01*
X3790980Y-90747207D01*
X3792292Y-90736834D01*
X3804482Y-90696269D01*
X3828081Y-90640817D01*
X3861861Y-90572605D01*
X3904598Y-90493758D01*
X3955065Y-90406402D01*
X4012038Y-90312662D01*
X4074290Y-90214665D01*
X4140597Y-90114536D01*
X4204630Y-90021645D01*
X4272885Y-89923807D01*
X4348688Y-89813803D01*
X4429340Y-89695643D01*
X4512141Y-89573333D01*
X4594392Y-89450884D01*
X4673394Y-89332304D01*
X4746447Y-89221599D01*
X4810852Y-89122781D01*
X4830514Y-89092269D01*
X4905848Y-88975993D01*
X4971501Y-88877045D01*
X5028320Y-88794361D01*
X5077148Y-88726878D01*
X5118831Y-88673530D01*
X5154213Y-88633254D01*
X5184140Y-88604986D01*
X5209457Y-88587661D01*
X5231007Y-88580216D01*
X5237457Y-88579745D01*
X5265851Y-88588598D01*
G37*
G36*
X5605315Y-89777946D02*
G01*
X5677764Y-89709646D01*
X5764167Y-89632820D01*
X5865518Y-89546551D01*
X5982809Y-89449921D01*
X6065137Y-89383469D01*
X6130122Y-89330999D01*
X6196921Y-89276413D01*
X6261380Y-89223153D01*
X6319345Y-89174660D01*
X6366661Y-89134374D01*
X6382902Y-89120253D01*
X6526912Y-88998167D01*
X6660328Y-88894008D01*
X6742274Y-88835280D01*
X6795552Y-88802282D01*
X6839872Y-88784300D01*
X6880001Y-88780206D01*
X6920704Y-88788873D01*
X6927709Y-88791415D01*
X6943508Y-88800683D01*
X6952174Y-88815872D01*
X6953713Y-88840159D01*
X6948129Y-88876723D01*
X6935428Y-88928740D01*
X6927982Y-88955924D01*
X6898919Y-89062912D01*
X6869358Y-89177076D01*
X6840358Y-89293945D01*
X6812979Y-89409050D01*
X6788281Y-89517922D01*
X6767322Y-89616091D01*
X6751163Y-89699088D01*
X6749199Y-89710067D01*
X6735799Y-89786030D01*
X6779138Y-89798114D01*
X6804298Y-89802506D01*
X6846007Y-89806885D01*
X6899631Y-89810885D01*
X6960538Y-89814141D01*
X7002543Y-89815707D01*
X7081715Y-89818603D01*
X7142466Y-89822258D01*
X7187560Y-89827322D01*
X7219763Y-89834444D01*
X7241836Y-89844274D01*
X7256545Y-89857462D01*
X7266653Y-89874655D01*
X7268147Y-89878106D01*
X7280367Y-89921814D01*
X7284533Y-89969856D01*
X7280617Y-90014237D01*
X7268760Y-90046703D01*
X7242872Y-90067508D01*
X7202786Y-90074149D01*
X7150102Y-90066578D01*
X7103169Y-90051501D01*
X7024021Y-90027459D01*
X6932666Y-90010194D01*
X6837387Y-90001102D01*
X6798104Y-90000057D01*
X6710178Y-89999687D01*
X6695565Y-90034675D01*
X6674441Y-90101987D01*
X6659743Y-90185320D01*
X6651994Y-90280342D01*
X6651714Y-90382720D01*
X6652200Y-90395137D01*
X6654837Y-90451961D01*
X6657652Y-90492335D01*
X6661718Y-90520984D01*
X6668109Y-90542630D01*
X6677900Y-90561998D01*
X6692165Y-90583813D01*
X6696551Y-90590195D01*
X6720595Y-90631064D01*
X6728347Y-90664388D01*
X6719212Y-90695665D01*
X6692598Y-90730391D01*
X6680042Y-90743382D01*
X6653909Y-90767388D01*
X6631716Y-90779322D01*
X6603642Y-90783226D01*
X6582751Y-90783419D01*
X6542558Y-90780254D01*
X6505071Y-90772692D01*
X6491075Y-90767869D01*
X6467371Y-90754127D01*
X6449731Y-90734425D01*
X6437351Y-90705837D01*
X6429427Y-90665435D01*
X6425154Y-90610293D01*
X6423729Y-90537484D01*
X6423713Y-90522669D01*
X6424107Y-90467817D01*
X6425097Y-90420574D01*
X6426549Y-90384970D01*
X6428329Y-90365034D01*
X6429046Y-90362433D01*
X6431982Y-90349143D01*
X6436133Y-90319180D01*
X6440946Y-90276994D01*
X6445853Y-90227188D01*
X6451010Y-90173794D01*
X6456225Y-90124811D01*
X6460855Y-90086000D01*
X6463987Y-90064551D01*
X6470509Y-90028748D01*
X6254583Y-90034380D01*
X6161753Y-90037524D01*
X6084316Y-90041956D01*
X6016493Y-90048191D01*
X5952507Y-90056745D01*
X5895663Y-90066440D01*
X5798231Y-90082936D01*
X5711826Y-90094526D01*
X5638599Y-90101040D01*
X5580698Y-90102308D01*
X5540275Y-90098162D01*
X5530233Y-90095242D01*
X5502635Y-90080302D01*
X5473376Y-90057865D01*
X5448045Y-90033101D01*
X5432227Y-90011177D01*
X5429608Y-90002167D01*
X5435282Y-89985682D01*
X5449818Y-89959270D01*
X5461748Y-89940877D01*
X5498300Y-89892644D01*
X5524663Y-89862686D01*
X5837406Y-89862686D01*
X5990992Y-89856559D01*
X6061875Y-89853283D01*
X6140370Y-89848933D01*
X6216782Y-89844083D01*
X6279699Y-89839448D01*
X6336323Y-89834177D01*
X6390118Y-89827987D01*
X6434944Y-89821657D01*
X6464292Y-89816057D01*
X6513764Y-89803650D01*
X6532049Y-89708281D01*
X6543230Y-89653823D01*
X6557504Y-89589683D01*
X6572441Y-89526642D01*
X6578313Y-89503139D01*
X6596084Y-89431116D01*
X6611870Y-89362717D01*
X6625056Y-89301039D01*
X6635025Y-89249183D01*
X6641161Y-89210247D01*
X6642847Y-89187330D01*
X6641993Y-89183076D01*
X6632089Y-89185932D01*
X6608768Y-89201105D01*
X6574323Y-89226690D01*
X6531043Y-89260784D01*
X6481223Y-89301486D01*
X6427153Y-89346890D01*
X6371125Y-89395096D01*
X6315432Y-89444199D01*
X6262365Y-89492296D01*
X6214215Y-89537484D01*
X6208131Y-89543340D01*
X6156467Y-89592117D01*
X6101039Y-89642556D01*
X6047396Y-89689723D01*
X6001090Y-89728683D01*
X5986733Y-89740183D01*
X5945680Y-89772660D01*
X5908140Y-89802768D01*
X5878874Y-89826668D01*
X5864923Y-89838466D01*
X5837406Y-89862686D01*
X5524663Y-89862686D01*
X5545824Y-89838640D01*
X5605315Y-89777946D01*
G37*
G36*
X5265145Y-75872617D02*
G01*
X5296610Y-75895290D01*
X5324608Y-75926435D01*
X5342587Y-75959220D01*
X5346732Y-75977822D01*
X5345735Y-75999369D01*
X5338669Y-76025490D01*
X5324610Y-76057815D01*
X5302632Y-76097972D01*
X5271812Y-76147591D01*
X5231224Y-76208300D01*
X5179943Y-76281730D01*
X5117044Y-76369509D01*
X5082980Y-76416495D01*
X4979583Y-76559737D01*
X4873350Y-76708980D01*
X4762378Y-76866938D01*
X4644764Y-77036327D01*
X4518606Y-77219863D01*
X4464069Y-77299687D01*
X4398251Y-77396240D01*
X4343180Y-77477239D01*
X4297621Y-77544604D01*
X4260336Y-77600258D01*
X4230091Y-77646123D01*
X4205648Y-77684119D01*
X4185772Y-77716170D01*
X4169227Y-77744195D01*
X4154776Y-77770118D01*
X4141183Y-77795859D01*
X4127212Y-77823341D01*
X4127176Y-77823414D01*
X4099399Y-77874887D01*
X4065356Y-77932257D01*
X4028408Y-77990373D01*
X3991913Y-78044085D01*
X3959232Y-78088240D01*
X3938322Y-78112975D01*
X3904503Y-78136893D01*
X3868798Y-78139894D01*
X3833075Y-78121917D01*
X3826870Y-78116527D01*
X3806890Y-78094648D01*
X3794949Y-78071382D01*
X3791515Y-78043964D01*
X3797059Y-78009630D01*
X3812051Y-77965616D01*
X3836960Y-77909160D01*
X3872256Y-77837496D01*
X3875320Y-77831461D01*
X3924385Y-77740722D01*
X3985680Y-77637009D01*
X4057392Y-77523216D01*
X4137711Y-77402240D01*
X4202473Y-77308584D01*
X4245859Y-77246365D01*
X4297496Y-77171455D01*
X4355558Y-77086569D01*
X4418219Y-76994423D01*
X4483655Y-76897732D01*
X4550039Y-76799212D01*
X4615547Y-76701578D01*
X4678352Y-76607547D01*
X4736630Y-76519833D01*
X4788554Y-76441151D01*
X4832300Y-76374219D01*
X4866041Y-76321750D01*
X4868833Y-76317342D01*
X4945358Y-76198611D01*
X5013012Y-76098566D01*
X5072123Y-76016803D01*
X5123019Y-75952916D01*
X5166027Y-75906502D01*
X5201476Y-75877155D01*
X5229693Y-75864471D01*
X5236274Y-75863851D01*
X5265145Y-75872617D01*
G37*
G36*
X6548039Y-76172258D02*
G01*
X6578857Y-76176832D01*
X6642709Y-76202109D01*
X6708917Y-76245366D01*
X6774877Y-76303982D01*
X6837987Y-76375331D01*
X6895644Y-76456792D01*
X6945245Y-76545739D01*
X6945589Y-76546445D01*
X6966757Y-76593487D01*
X6978284Y-76631774D01*
X6980419Y-76668051D01*
X6973415Y-76709064D01*
X6957519Y-76761557D01*
X6953962Y-76772077D01*
X6921076Y-76848352D01*
X6872495Y-76933167D01*
X6810538Y-77023907D01*
X6737522Y-77117960D01*
X6655766Y-77212711D01*
X6567589Y-77305547D01*
X6475308Y-77393854D01*
X6381244Y-77475020D01*
X6287713Y-77546430D01*
X6235902Y-77581526D01*
X6157751Y-77631819D01*
X6601331Y-77635392D01*
X6724408Y-77636168D01*
X6827741Y-77636329D01*
X6912764Y-77635847D01*
X6980908Y-77634697D01*
X7033606Y-77632850D01*
X7072292Y-77630281D01*
X7098397Y-77626963D01*
X7103169Y-77626003D01*
X7156170Y-77615897D01*
X7194307Y-77613548D01*
X7222619Y-77619451D01*
X7246141Y-77634099D01*
X7253528Y-77640760D01*
X7275136Y-77668178D01*
X7282864Y-77700369D01*
X7283196Y-77712287D01*
X7276701Y-77758525D01*
X7255744Y-77796888D01*
X7217979Y-77830398D01*
X7170350Y-77857599D01*
X7138981Y-77872616D01*
X7113656Y-77882596D01*
X7088746Y-77888494D01*
X7058624Y-77891264D01*
X7017661Y-77891858D01*
X6970949Y-77891375D01*
X6908718Y-77889003D01*
X6842501Y-77883977D01*
X6781697Y-77877122D01*
X6748332Y-77871854D01*
X6692486Y-77863810D01*
X6621373Y-77857147D01*
X6540047Y-77852008D01*
X6453561Y-77848531D01*
X6366968Y-77846858D01*
X6285321Y-77847129D01*
X6213673Y-77849485D01*
X6157078Y-77854065D01*
X6148589Y-77855178D01*
X6026248Y-77877249D01*
X5921491Y-77906692D01*
X5831670Y-77944601D01*
X5754135Y-77992072D01*
X5693314Y-78043251D01*
X5658741Y-78076180D01*
X5633935Y-78097220D01*
X5613503Y-78109288D01*
X5592055Y-78115299D01*
X5564197Y-78118170D01*
X5553465Y-78118875D01*
X5513442Y-78120012D01*
X5487081Y-78116252D01*
X5467160Y-78106253D01*
X5461237Y-78101736D01*
X5446723Y-78087551D01*
X5438987Y-78070617D01*
X5436200Y-78044369D01*
X5436302Y-78012296D01*
X5441841Y-77956738D01*
X5456970Y-77904520D01*
X5483004Y-77854369D01*
X5521260Y-77805014D01*
X5573054Y-77755182D01*
X5639701Y-77703600D01*
X5722517Y-77648998D01*
X5822819Y-77590101D01*
X5937026Y-77528211D01*
X5992978Y-77498241D01*
X6041182Y-77470761D01*
X6084598Y-77443473D01*
X6126186Y-77414079D01*
X6168908Y-77380279D01*
X6215722Y-77339776D01*
X6269589Y-77290269D01*
X6333470Y-77229461D01*
X6381352Y-77183187D01*
X6477122Y-77085375D01*
X6554551Y-76995191D01*
X6614524Y-76911352D01*
X6657921Y-76832578D01*
X6685625Y-76757587D01*
X6691659Y-76732568D01*
X6697828Y-76696310D01*
X6697116Y-76668989D01*
X6688381Y-76639749D01*
X6679669Y-76618746D01*
X6648440Y-76565178D01*
X6604173Y-76514196D01*
X6551350Y-76469124D01*
X6494452Y-76433284D01*
X6437963Y-76410000D01*
X6388057Y-76402548D01*
X6342351Y-76410464D01*
X6285017Y-76431335D01*
X6219455Y-76463180D01*
X6149067Y-76504021D01*
X6077254Y-76551876D01*
X6007418Y-76604766D01*
X5942961Y-76660711D01*
X5940362Y-76663154D01*
X5887169Y-76708215D01*
X5839098Y-76736768D01*
X5791485Y-76751103D01*
X5755467Y-76753904D01*
X5728007Y-76744153D01*
X5702165Y-76717855D01*
X5680975Y-76679608D01*
X5667471Y-76634011D01*
X5665096Y-76616911D01*
X5660125Y-76565153D01*
X5725279Y-76514535D01*
X5787321Y-76467626D01*
X5854614Y-76418958D01*
X5923406Y-76371055D01*
X5989941Y-76326442D01*
X6050465Y-76287643D01*
X6101224Y-76257184D01*
X6133956Y-76239703D01*
X6182427Y-76218882D01*
X6235637Y-76199814D01*
X6278858Y-76187456D01*
X6324639Y-76179566D01*
X6380874Y-76173874D01*
X6441137Y-76170607D01*
X6499000Y-76169993D01*
X6548039Y-76172258D01*
G37*
G36*
X6151630Y-50593367D02*
G01*
X6237068Y-50609767D01*
X6308898Y-50634483D01*
X6370451Y-50668605D01*
X6414565Y-50703432D01*
X6448827Y-50740960D01*
X6468630Y-50780785D01*
X6474566Y-50826808D01*
X6467227Y-50882928D01*
X6450794Y-50942100D01*
X6432402Y-50985648D01*
X6407834Y-51013029D01*
X6371510Y-51029260D01*
X6347886Y-51034634D01*
X6298596Y-51043846D01*
X6292656Y-51005517D01*
X6277287Y-50935627D01*
X6254593Y-50883362D01*
X6222648Y-50845853D01*
X6179526Y-50820230D01*
X6164503Y-50814562D01*
X6138100Y-50808803D01*
X6096175Y-50803323D01*
X6044388Y-50798726D01*
X5988401Y-50795616D01*
X5985696Y-50795514D01*
X5918357Y-50793899D01*
X5864200Y-50795062D01*
X5815336Y-50799557D01*
X5763880Y-50807940D01*
X5738958Y-50812885D01*
X5625681Y-50841630D01*
X5522698Y-50878611D01*
X5432155Y-50922613D01*
X5356200Y-50972424D01*
X5296980Y-51026828D01*
X5256643Y-51084613D01*
X5256004Y-51085873D01*
X5240311Y-51139451D01*
X5242015Y-51198409D01*
X5259886Y-51258033D01*
X5292694Y-51313612D01*
X5324442Y-51348088D01*
X5356837Y-51373842D01*
X5397397Y-51399271D01*
X5448262Y-51425321D01*
X5511570Y-51452941D01*
X5589461Y-51483076D01*
X5684073Y-51516675D01*
X5771902Y-51546242D01*
X5889553Y-51586280D01*
X5988572Y-51622584D01*
X6071001Y-51656041D01*
X6138882Y-51687542D01*
X6194257Y-51717975D01*
X6239169Y-51748230D01*
X6243817Y-51751787D01*
X6305705Y-51810942D01*
X6347791Y-51876408D01*
X6369764Y-51946974D01*
X6371312Y-52021430D01*
X6352123Y-52098567D01*
X6340305Y-52126281D01*
X6308231Y-52179565D01*
X6261040Y-52238402D01*
X6202525Y-52298783D01*
X6136478Y-52356702D01*
X6086322Y-52394677D01*
X5981733Y-52459859D01*
X5864117Y-52517989D01*
X5737588Y-52567936D01*
X5606260Y-52608567D01*
X5474248Y-52638753D01*
X5345665Y-52657362D01*
X5224627Y-52663262D01*
X5130610Y-52657424D01*
X5066583Y-52647275D01*
X5018347Y-52634023D01*
X4980550Y-52615899D01*
X4959200Y-52600794D01*
X4939577Y-52581645D01*
X4930798Y-52560176D01*
X4929108Y-52527131D01*
X4929114Y-52526669D01*
X4934914Y-52483803D01*
X4948574Y-52439401D01*
X4952948Y-52429542D01*
X4966467Y-52405126D01*
X4981437Y-52389679D01*
X5001701Y-52382643D01*
X5031098Y-52383459D01*
X5073471Y-52391571D01*
X5125364Y-52404516D01*
X5222499Y-52422096D01*
X5328974Y-52428129D01*
X5436350Y-52422594D01*
X5536192Y-52405473D01*
X5536248Y-52405459D01*
X5632666Y-52377689D01*
X5726796Y-52342950D01*
X5816451Y-52302677D01*
X5899445Y-52258301D01*
X5973590Y-52211257D01*
X6036699Y-52162978D01*
X6086585Y-52114897D01*
X6121059Y-52068446D01*
X6137936Y-52025060D01*
X6139282Y-52010306D01*
X6135396Y-51986090D01*
X6122755Y-51962703D01*
X6099889Y-51939349D01*
X6065324Y-51915234D01*
X6017590Y-51889560D01*
X5955214Y-51861532D01*
X5876725Y-51830355D01*
X5780651Y-51795233D01*
X5671440Y-51757382D01*
X5549140Y-51714884D01*
X5445429Y-51676670D01*
X5358385Y-51641727D01*
X5286086Y-51609042D01*
X5226609Y-51577603D01*
X5178030Y-51546398D01*
X5138429Y-51514413D01*
X5105882Y-51480637D01*
X5079508Y-51445616D01*
X5038785Y-51372759D01*
X5014731Y-51297772D01*
X5005322Y-51213803D01*
X5005016Y-51193427D01*
X5014958Y-51097451D01*
X5044691Y-51008748D01*
X5093981Y-50927689D01*
X5162589Y-50854646D01*
X5250279Y-50789986D01*
X5270725Y-50777723D01*
X5418277Y-50703405D01*
X5573746Y-50646056D01*
X5733679Y-50606535D01*
X5894624Y-50585700D01*
X6049249Y-50584197D01*
X6151630Y-50593367D01*
G37*
G36*
X4090672Y-50590567D02*
G01*
X4169169Y-50604129D01*
X4241470Y-50624655D01*
X4309908Y-50652229D01*
X4312135Y-50653263D01*
X4380529Y-50693889D01*
X4443995Y-50747866D01*
X4498604Y-50810675D01*
X4540430Y-50877798D01*
X4565544Y-50944714D01*
X4565585Y-50944887D01*
X4572227Y-50996274D01*
X4572279Y-51058980D01*
X4566240Y-51124350D01*
X4554608Y-51183732D01*
X4551148Y-51195779D01*
X4515003Y-51279699D01*
X4459663Y-51362963D01*
X4387084Y-51443752D01*
X4299224Y-51520245D01*
X4198039Y-51590621D01*
X4085487Y-51653059D01*
X4033837Y-51677121D01*
X3983009Y-51701033D01*
X3948543Y-51720643D01*
X3932047Y-51734992D01*
X3930817Y-51738603D01*
X3938990Y-51752871D01*
X3962170Y-51778104D01*
X3998349Y-51812642D01*
X4045520Y-51854824D01*
X4101676Y-51902990D01*
X4164808Y-51955480D01*
X4232910Y-52010634D01*
X4303973Y-52066790D01*
X4375990Y-52122289D01*
X4446954Y-52175470D01*
X4514857Y-52224673D01*
X4539501Y-52242025D01*
X4607503Y-52290132D01*
X4659613Y-52328879D01*
X4697830Y-52360261D01*
X4724149Y-52386270D01*
X4740569Y-52408903D01*
X4749086Y-52430152D01*
X4751696Y-52452012D01*
X4751709Y-52453948D01*
X4741883Y-52499226D01*
X4715270Y-52540484D01*
X4676174Y-52571682D01*
X4663470Y-52577836D01*
X4640586Y-52584585D01*
X4615328Y-52585725D01*
X4586540Y-52580462D01*
X4553066Y-52568005D01*
X4513748Y-52547560D01*
X4467431Y-52518334D01*
X4412958Y-52479534D01*
X4349173Y-52430368D01*
X4274918Y-52370043D01*
X4189038Y-52297765D01*
X4090376Y-52212743D01*
X3977775Y-52114182D01*
X3944811Y-52085127D01*
X3887651Y-52035144D01*
X3830018Y-51985564D01*
X3775814Y-51939686D01*
X3728942Y-51900807D01*
X3693303Y-51872227D01*
X3688775Y-51868731D01*
X3647586Y-51838247D01*
X3616217Y-51818574D01*
X3588443Y-51806685D01*
X3558038Y-51799553D01*
X3541195Y-51797002D01*
X3490273Y-51786274D01*
X3457233Y-51768952D01*
X3439137Y-51742356D01*
X3433049Y-51703804D01*
X3432985Y-51698261D01*
X3436307Y-51662964D01*
X3449521Y-51636446D01*
X3466159Y-51617887D01*
X3504357Y-51590339D01*
X3552777Y-51575437D01*
X3614307Y-51572605D01*
X3667713Y-51577629D01*
X3712142Y-51582465D01*
X3746039Y-51581949D01*
X3779574Y-51575223D01*
X3810707Y-51565552D01*
X3854027Y-51549011D01*
X3905166Y-51526451D01*
X3953639Y-51502518D01*
X3957297Y-51500570D01*
X4070821Y-51434228D01*
X4163651Y-51367800D01*
X4236271Y-51300734D01*
X4289167Y-51232478D01*
X4322824Y-51162481D01*
X4337727Y-51090193D01*
X4338615Y-51067036D01*
X4329110Y-51003044D01*
X4300336Y-50945622D01*
X4251899Y-50894283D01*
X4183410Y-50848542D01*
X4148458Y-50830830D01*
X4117946Y-50817201D01*
X4091221Y-50807807D01*
X4062878Y-50801692D01*
X4027516Y-50797902D01*
X3979729Y-50795482D01*
X3941409Y-50794249D01*
X3870287Y-50794127D01*
X3794242Y-50797332D01*
X3717992Y-50803361D01*
X3646257Y-50811706D01*
X3583757Y-50821861D01*
X3535209Y-50833322D01*
X3516726Y-50839763D01*
X3495934Y-50850274D01*
X3478385Y-50864399D01*
X3463193Y-50884501D01*
X3449471Y-50912947D01*
X3436332Y-50952100D01*
X3422888Y-51004326D01*
X3408253Y-51071989D01*
X3391540Y-51157454D01*
X3385465Y-51189716D01*
X3343626Y-51427536D01*
X3310676Y-51646433D01*
X3286589Y-51846709D01*
X3271337Y-52028664D01*
X3264892Y-52192601D01*
X3267227Y-52338821D01*
X3273107Y-52421083D01*
X3277138Y-52469109D01*
X3277917Y-52501410D01*
X3275080Y-52523252D01*
X3268264Y-52539907D01*
X3264472Y-52546098D01*
X3226887Y-52585806D01*
X3179770Y-52608110D01*
X3127247Y-52611809D01*
X3081482Y-52599446D01*
X3056232Y-52585228D01*
X3037367Y-52565554D01*
X3023902Y-52537345D01*
X3014853Y-52497519D01*
X3009234Y-52442998D01*
X3006062Y-52370699D01*
X3005853Y-52362831D01*
X3006040Y-52229543D01*
X3013143Y-52082639D01*
X3027285Y-51921061D01*
X3048591Y-51743753D01*
X3077185Y-51549657D01*
X3113190Y-51337717D01*
X3148283Y-51150124D01*
X3197056Y-50898599D01*
X3164082Y-50847193D01*
X3138056Y-50793418D01*
X3132076Y-50745359D01*
X3145896Y-50703922D01*
X3179269Y-50670016D01*
X3217829Y-50649733D01*
X3259413Y-50638142D01*
X3305406Y-50637118D01*
X3321959Y-50638716D01*
X3370600Y-50640086D01*
X3437979Y-50635261D01*
X3522610Y-50624348D01*
X3523678Y-50624188D01*
X3668114Y-50604226D01*
X3794700Y-50590797D01*
X3905768Y-50583986D01*
X4003649Y-50583881D01*
X4090672Y-50590567D01*
G37*
G36*
X8448330Y-50613941D02*
G01*
X8510837Y-50620083D01*
X8555917Y-50626718D01*
X8587315Y-50635077D01*
X8608777Y-50646388D01*
X8624047Y-50661880D01*
X8632134Y-50674272D01*
X8646726Y-50712201D01*
X8652402Y-50755697D01*
X8649192Y-50797266D01*
X8637124Y-50829411D01*
X8631521Y-50836358D01*
X8622725Y-50844008D01*
X8611936Y-50849175D01*
X8595710Y-50852039D01*
X8570601Y-50852781D01*
X8533164Y-50851582D01*
X8479955Y-50848623D01*
X8442288Y-50846283D01*
X8378810Y-50842807D01*
X8317324Y-50840374D01*
X8263384Y-50839140D01*
X8222545Y-50839261D01*
X8210050Y-50839791D01*
X8171804Y-50842204D01*
X8120411Y-50845344D01*
X8063871Y-50848724D01*
X8029983Y-50850714D01*
X7957456Y-50856396D01*
X7888166Y-50864504D01*
X7826407Y-50874338D01*
X7776468Y-50885195D01*
X7742642Y-50896373D01*
X7738592Y-50898367D01*
X7717620Y-50917414D01*
X7706594Y-50936262D01*
X7700694Y-50959762D01*
X7693323Y-51001928D01*
X7684757Y-51060303D01*
X7675268Y-51132432D01*
X7665132Y-51215858D01*
X7654623Y-51308125D01*
X7644015Y-51406779D01*
X7633582Y-51509362D01*
X7623600Y-51613418D01*
X7614342Y-51716493D01*
X7606082Y-51816130D01*
X7601335Y-51878494D01*
X7594787Y-51980764D01*
X7591578Y-52066752D01*
X7591819Y-52141122D01*
X7595616Y-52208536D01*
X7603081Y-52273657D01*
X7611834Y-52327616D01*
X7622445Y-52395973D01*
X7626035Y-52448491D01*
X7622204Y-52489463D01*
X7610547Y-52523183D01*
X7590663Y-52553944D01*
X7590611Y-52554011D01*
X7561601Y-52578485D01*
X7523938Y-52586580D01*
X7486701Y-52582321D01*
X7451185Y-52570678D01*
X7423630Y-52550592D01*
X7402631Y-52519385D01*
X7386784Y-52474381D01*
X7374684Y-52412901D01*
X7367248Y-52354590D01*
X7361435Y-52278038D01*
X7359504Y-52189416D01*
X7361537Y-52087576D01*
X7367617Y-51971371D01*
X7377827Y-51839654D01*
X7392249Y-51691276D01*
X7410966Y-51525090D01*
X7434061Y-51339949D01*
X7448038Y-51234241D01*
X7459775Y-51145341D01*
X7468464Y-51075281D01*
X7474286Y-51021956D01*
X7477419Y-50983259D01*
X7478042Y-50957087D01*
X7476333Y-50941332D01*
X7473471Y-50934888D01*
X7459463Y-50926614D01*
X7432894Y-50921649D01*
X7392260Y-50920019D01*
X7336060Y-50921754D01*
X7262790Y-50926880D01*
X7170948Y-50935425D01*
X7112109Y-50941578D01*
X7002714Y-50951850D01*
X6903412Y-50958157D01*
X6816166Y-50960513D01*
X6742938Y-50958933D01*
X6685689Y-50953428D01*
X6646382Y-50944014D01*
X6634672Y-50938248D01*
X6613211Y-50916672D01*
X6601444Y-50883344D01*
X6599667Y-50873013D01*
X6599131Y-50821581D01*
X6615053Y-50783384D01*
X6647579Y-50758135D01*
X6660696Y-50753010D01*
X6682953Y-50748929D01*
X6724203Y-50744669D01*
X6782256Y-50740375D01*
X6854922Y-50736192D01*
X6940012Y-50732264D01*
X7020687Y-50729227D01*
X7131102Y-50724984D01*
X7232104Y-50719943D01*
X7327939Y-50713712D01*
X7422853Y-50705899D01*
X7521092Y-50696113D01*
X7626901Y-50683960D01*
X7744527Y-50669051D01*
X7878216Y-50650992D01*
X7897581Y-50648312D01*
X8045883Y-50629537D01*
X8175610Y-50617025D01*
X8288391Y-50610674D01*
X8385859Y-50610382D01*
X8448330Y-50613941D01*
G37*
G36*
X7002512Y-25156009D02*
G01*
X7035593Y-25178567D01*
X7058337Y-25215396D01*
X7061503Y-25225409D01*
X7065753Y-25242504D01*
X7068442Y-25259061D01*
X7069281Y-25277989D01*
X7067985Y-25302202D01*
X7064265Y-25334609D01*
X7057834Y-25378121D01*
X7048405Y-25435651D01*
X7035691Y-25510108D01*
X7030337Y-25541134D01*
X7021961Y-25593591D01*
X7012995Y-25656632D01*
X7003754Y-25727285D01*
X6994553Y-25802579D01*
X6985706Y-25879542D01*
X6977527Y-25955203D01*
X6970332Y-26026591D01*
X6964434Y-26090734D01*
X6960149Y-26144660D01*
X6957791Y-26185399D01*
X6957675Y-26209979D01*
X6958904Y-26215840D01*
X6969553Y-26212370D01*
X6993482Y-26197214D01*
X7027881Y-26172468D01*
X7069938Y-26140228D01*
X7116841Y-26102591D01*
X7165780Y-26061654D01*
X7166722Y-26060850D01*
X7205790Y-26026162D01*
X7254272Y-25981120D01*
X7309690Y-25928210D01*
X7369570Y-25869916D01*
X7431435Y-25808725D01*
X7492809Y-25747122D01*
X7551217Y-25687592D01*
X7604183Y-25632621D01*
X7649230Y-25584695D01*
X7683883Y-25546299D01*
X7705666Y-25519918D01*
X7705973Y-25519504D01*
X7737580Y-25474521D01*
X7772073Y-25422130D01*
X7802113Y-25373483D01*
X7802763Y-25372379D01*
X7828955Y-25330519D01*
X7856465Y-25290915D01*
X7880051Y-25261038D01*
X7883619Y-25257116D01*
X7907460Y-25234436D01*
X7926533Y-25225282D01*
X7948715Y-25226175D01*
X7952180Y-25226836D01*
X7999514Y-25245278D01*
X8039492Y-25277512D01*
X8068509Y-25318795D01*
X8082960Y-25364385D01*
X8082202Y-25397873D01*
X8072458Y-25430347D01*
X8054108Y-25467412D01*
X8026337Y-25509930D01*
X7988327Y-25558765D01*
X7939262Y-25614777D01*
X7878327Y-25678829D01*
X7804705Y-25751783D01*
X7717579Y-25834501D01*
X7616134Y-25927845D01*
X7499553Y-26032677D01*
X7386104Y-26133085D01*
X7343672Y-26171062D01*
X7307817Y-26204387D01*
X7281176Y-26230509D01*
X7266388Y-26246876D01*
X7264294Y-26250937D01*
X7273244Y-26259498D01*
X7296764Y-26279199D01*
X7332614Y-26308284D01*
X7378553Y-26344996D01*
X7432341Y-26387580D01*
X7491737Y-26434278D01*
X7554502Y-26483333D01*
X7618394Y-26532991D01*
X7681174Y-26581494D01*
X7740601Y-26627086D01*
X7794434Y-26668010D01*
X7837673Y-26700457D01*
X7926981Y-26765078D01*
X8003917Y-26816318D01*
X8071370Y-26855497D01*
X8132229Y-26883931D01*
X8189385Y-26902939D01*
X8245727Y-26913839D01*
X8304143Y-26917949D01*
X8314773Y-26918068D01*
X8366536Y-26918252D01*
X8361107Y-26985913D01*
X8349740Y-27051657D01*
X8326897Y-27100042D01*
X8291460Y-27132195D01*
X8242310Y-27149243D01*
X8195627Y-27152793D01*
X8168425Y-27151977D01*
X8141946Y-27149270D01*
X8114946Y-27143878D01*
X8086181Y-27135011D01*
X8054404Y-27121876D01*
X8018373Y-27103681D01*
X7976843Y-27079634D01*
X7928569Y-27048944D01*
X7872306Y-27010818D01*
X7806810Y-26964464D01*
X7730836Y-26909091D01*
X7643140Y-26843906D01*
X7542477Y-26768118D01*
X7427603Y-26680934D01*
X7297273Y-26581562D01*
X7293828Y-26578931D01*
X7243177Y-26541857D01*
X7189465Y-26505195D01*
X7139392Y-26473379D01*
X7102506Y-26452309D01*
X7022403Y-26410610D01*
X6988222Y-26431405D01*
X6957502Y-26460238D01*
X6931231Y-26506999D01*
X6909229Y-26572316D01*
X6891315Y-26656822D01*
X6877309Y-26761146D01*
X6869812Y-26845240D01*
X6864468Y-26907570D01*
X6857928Y-26969488D01*
X6850961Y-27024448D01*
X6844335Y-27065903D01*
X6843305Y-27071102D01*
X6830216Y-27118839D01*
X6812508Y-27162535D01*
X6792591Y-27197743D01*
X6772873Y-27220014D01*
X6759640Y-27225553D01*
X6735411Y-27228624D01*
X6730662Y-27229884D01*
X6711282Y-27230106D01*
X6683659Y-27224715D01*
X6682186Y-27224297D01*
X6647824Y-27206126D01*
X6625375Y-27174229D01*
X6614630Y-27127562D01*
X6615377Y-27065082D01*
X6627407Y-26985745D01*
X6630822Y-26969276D01*
X6638459Y-26930886D01*
X6646042Y-26886528D01*
X6653798Y-26834306D01*
X6661954Y-26772325D01*
X6670735Y-26698690D01*
X6680367Y-26611504D01*
X6691077Y-26508873D01*
X6703090Y-26388899D01*
X6716540Y-26250667D01*
X6735490Y-26058381D01*
X6753345Y-25886799D01*
X6770169Y-25735468D01*
X6786023Y-25603929D01*
X6800970Y-25491728D01*
X6815073Y-25398408D01*
X6828394Y-25323514D01*
X6840995Y-25266589D01*
X6852940Y-25227177D01*
X6858745Y-25213779D01*
X6887210Y-25176610D01*
X6923723Y-25154767D01*
X6963689Y-25147988D01*
X7002512Y-25156009D01*
G37*
G36*
X4355938Y-25053021D02*
G01*
X4402303Y-25058459D01*
X4442618Y-25068852D01*
X4456208Y-25073674D01*
X4516973Y-25106140D01*
X4573595Y-25154021D01*
X4619954Y-25211633D01*
X4637006Y-25241565D01*
X4647498Y-25265057D01*
X4654511Y-25288280D01*
X4658703Y-25316226D01*
X4660733Y-25353891D01*
X4661257Y-25406269D01*
X4661221Y-25425302D01*
X4660653Y-25482600D01*
X4658927Y-25523683D01*
X4655328Y-25553525D01*
X4649138Y-25577098D01*
X4639641Y-25599376D01*
X4634740Y-25609068D01*
X4605771Y-25650340D01*
X4567264Y-25685070D01*
X4523301Y-25711640D01*
X4477962Y-25728435D01*
X4435329Y-25733841D01*
X4399481Y-25726240D01*
X4378938Y-25710345D01*
X4365077Y-25681678D01*
X4360528Y-25640097D01*
X4365311Y-25583623D01*
X4379445Y-25510280D01*
X4380984Y-25503609D01*
X4396359Y-25424031D01*
X4401287Y-25360865D01*
X4395814Y-25312115D01*
X4386170Y-25286167D01*
X4365276Y-25256794D01*
X4336875Y-25240222D01*
X4295543Y-25233800D01*
X4278407Y-25233455D01*
X4230722Y-25236440D01*
X4183583Y-25246405D01*
X4131329Y-25265039D01*
X4068297Y-25294028D01*
X4057923Y-25299193D01*
X3933919Y-25371090D01*
X3812548Y-25459973D01*
X3695826Y-25563219D01*
X3585770Y-25678203D01*
X3484395Y-25802302D01*
X3393719Y-25932892D01*
X3315757Y-26067347D01*
X3252526Y-26203045D01*
X3206042Y-26337361D01*
X3182979Y-26437909D01*
X3175496Y-26509137D01*
X3175599Y-26586183D01*
X3182766Y-26661432D01*
X3196475Y-26727266D01*
X3204458Y-26751320D01*
X3238546Y-26815591D01*
X3287587Y-26876285D01*
X3345648Y-26926917D01*
X3389191Y-26953249D01*
X3475130Y-26983653D01*
X3570442Y-26995635D01*
X3674356Y-26989379D01*
X3786098Y-26965067D01*
X3904898Y-26922883D01*
X4029981Y-26863010D01*
X4160578Y-26785629D01*
X4196587Y-26761824D01*
X4242885Y-26731120D01*
X4283853Y-26704999D01*
X4315885Y-26685683D01*
X4335376Y-26675393D01*
X4338615Y-26674327D01*
X4374069Y-26674163D01*
X4396426Y-26687365D01*
X4402765Y-26696840D01*
X4411516Y-26729217D01*
X4404132Y-26765751D01*
X4379810Y-26808362D01*
X4337747Y-26858968D01*
X4332666Y-26864403D01*
X4243330Y-26946756D01*
X4140983Y-27019703D01*
X4028887Y-27082139D01*
X3910306Y-27132958D01*
X3788502Y-27171053D01*
X3666738Y-27195319D01*
X3548279Y-27204650D01*
X3436385Y-27197939D01*
X3380025Y-27187299D01*
X3293399Y-27159153D01*
X3208723Y-27118166D01*
X3130196Y-27067280D01*
X3062019Y-27009435D01*
X3008392Y-26947572D01*
X2985694Y-26911168D01*
X2956001Y-26849300D01*
X2935565Y-26790636D01*
X2923014Y-26728858D01*
X2916977Y-26657644D01*
X2915913Y-26589758D01*
X2926202Y-26432859D01*
X2955789Y-26279006D01*
X3004969Y-26127600D01*
X3074033Y-25978041D01*
X3163276Y-25829731D01*
X3272989Y-25682070D01*
X3403466Y-25534458D01*
X3459697Y-25477117D01*
X3588817Y-25357510D01*
X3714940Y-25258287D01*
X3838951Y-25178997D01*
X3961736Y-25119191D01*
X4084180Y-25078418D01*
X4207167Y-25056228D01*
X4296055Y-25051505D01*
X4355938Y-25053021D01*
G37*
G36*
X5278295Y-25152454D02*
G01*
X5322180Y-25172494D01*
X5354870Y-25208038D01*
X5360847Y-25219185D01*
X5366431Y-25231668D01*
X5370321Y-25244111D01*
X5372301Y-25259211D01*
X5372153Y-25279665D01*
X5369659Y-25308168D01*
X5364601Y-25347419D01*
X5356762Y-25400113D01*
X5345924Y-25468947D01*
X5335357Y-25534900D01*
X5318261Y-25643812D01*
X5300877Y-25759125D01*
X5283500Y-25878522D01*
X5266429Y-25999687D01*
X5249958Y-26120304D01*
X5234386Y-26238058D01*
X5220010Y-26350632D01*
X5207125Y-26455710D01*
X5196029Y-26550977D01*
X5187019Y-26634117D01*
X5180391Y-26702813D01*
X5176443Y-26754750D01*
X5175412Y-26782901D01*
X5176632Y-26819002D01*
X5181804Y-26840697D01*
X5193157Y-26854705D01*
X5201169Y-26860482D01*
X5232184Y-26872068D01*
X5272666Y-26871290D01*
X5299851Y-26867663D01*
X5342749Y-26861930D01*
X5396075Y-26854797D01*
X5454544Y-26846972D01*
X5471976Y-26844638D01*
X5540868Y-26836277D01*
X5621850Y-26827803D01*
X5705851Y-26820090D01*
X5783799Y-26814015D01*
X5800333Y-26812915D01*
X5893590Y-26806897D01*
X5968489Y-26801865D01*
X6027817Y-26797551D01*
X6074362Y-26793689D01*
X6110915Y-26790012D01*
X6140262Y-26786255D01*
X6165192Y-26782152D01*
X6188495Y-26777435D01*
X6200845Y-26774662D01*
X6252269Y-26764074D01*
X6288661Y-26760529D01*
X6315146Y-26764556D01*
X6336850Y-26776685D01*
X6351940Y-26790278D01*
X6371229Y-26813212D01*
X6380406Y-26837339D01*
X6382890Y-26872133D01*
X6382902Y-26876065D01*
X6376811Y-26930055D01*
X6356702Y-26971307D01*
X6319817Y-27004111D01*
X6289928Y-27020823D01*
X6258427Y-27035034D01*
X6232067Y-27042430D01*
X6202557Y-27044242D01*
X6161603Y-27041703D01*
X6153960Y-27041023D01*
X6086984Y-27036845D01*
X6005761Y-27034703D01*
X5917124Y-27034527D01*
X5827905Y-27036247D01*
X5744937Y-27039792D01*
X5675053Y-27045093D01*
X5666119Y-27046036D01*
X5555924Y-27061362D01*
X5436129Y-27083446D01*
X5316433Y-27110304D01*
X5206536Y-27139951D01*
X5205354Y-27140305D01*
X5123033Y-27162876D01*
X5058021Y-27175954D01*
X5008782Y-27179732D01*
X4973782Y-27174400D01*
X4964574Y-27170397D01*
X4929397Y-27143621D01*
X4906117Y-27106494D01*
X4894363Y-27057119D01*
X4893766Y-26993600D01*
X4903958Y-26914043D01*
X4909196Y-26886103D01*
X4919138Y-26834243D01*
X4928005Y-26784680D01*
X4934563Y-26744479D01*
X4936909Y-26727514D01*
X4939791Y-26704214D01*
X4944977Y-26663271D01*
X4952032Y-26608058D01*
X4960526Y-26541946D01*
X4970025Y-26468309D01*
X4978996Y-26399020D01*
X4988628Y-26322050D01*
X4999758Y-26228559D01*
X5011874Y-26123123D01*
X5024464Y-26010321D01*
X5037017Y-25894727D01*
X5049022Y-25780918D01*
X5058897Y-25684161D01*
X5070539Y-25568969D01*
X5080605Y-25473003D01*
X5089501Y-25394387D01*
X5097631Y-25331247D01*
X5105401Y-25281708D01*
X5113218Y-25243895D01*
X5121486Y-25215933D01*
X5130611Y-25195947D01*
X5140999Y-25182063D01*
X5153054Y-25172406D01*
X5167184Y-25165101D01*
X5171585Y-25163214D01*
X5226876Y-25148999D01*
X5278295Y-25152454D01*
G37*
G36*
X2446675Y-7146690D02*
G01*
X2462403Y-6995778D01*
X2480699Y-6843115D01*
X2502012Y-6685284D01*
X2526791Y-6518868D01*
X2555486Y-6340448D01*
X2588545Y-6146606D01*
X2607247Y-6040612D01*
X2615513Y-5987414D01*
X2616876Y-5950730D01*
X2609743Y-5926557D01*
X2592524Y-5910893D01*
X2563625Y-5899736D01*
X2549718Y-5895965D01*
X2494207Y-5875483D01*
X2447823Y-5846301D01*
X2414967Y-5811732D01*
X2401946Y-5784622D01*
X2397386Y-5730446D01*
X2410877Y-5673792D01*
X2440890Y-5620277D01*
X2449654Y-5609371D01*
X2468582Y-5587688D01*
X2486079Y-5570118D01*
X2504559Y-5556185D01*
X2526435Y-5545415D01*
X2554117Y-5537332D01*
X2590020Y-5531460D01*
X2636555Y-5527325D01*
X2696136Y-5524450D01*
X2771175Y-5522361D01*
X2864084Y-5520582D01*
X2903741Y-5519903D01*
X2992659Y-5518095D01*
X3080272Y-5515768D01*
X3162848Y-5513060D01*
X3236652Y-5510111D01*
X3297953Y-5507062D01*
X3343017Y-5504050D01*
X3353544Y-5503103D01*
X3435870Y-5496820D01*
X3527243Y-5493043D01*
X3622391Y-5491730D01*
X3716043Y-5492838D01*
X3802927Y-5496324D01*
X3877772Y-5502147D01*
X3920817Y-5507692D01*
X4067911Y-5540888D01*
X4202691Y-5590552D01*
X4324338Y-5655680D01*
X4432030Y-5735266D01*
X4524947Y-5828308D01*
X4602269Y-5933799D01*
X4663174Y-6050735D01*
X4706842Y-6178112D01*
X4732452Y-6314925D01*
X4739184Y-6460169D01*
X4737280Y-6507234D01*
X4720259Y-6646037D01*
X4686020Y-6777331D01*
X4633736Y-6902834D01*
X4562581Y-7024262D01*
X4471728Y-7143331D01*
X4386280Y-7236053D01*
X4242336Y-7367302D01*
X4081951Y-7487535D01*
X3907633Y-7595210D01*
X3721888Y-7688784D01*
X3527227Y-7766716D01*
X3517723Y-7770029D01*
X3463306Y-7787686D01*
X3394951Y-7808073D01*
X3319390Y-7829282D01*
X3243353Y-7849405D01*
X3197576Y-7860824D01*
X3109787Y-7882709D01*
X3038550Y-7902160D01*
X2979613Y-7920736D01*
X2928722Y-7939997D01*
X2881626Y-7961504D01*
X2834072Y-7986815D01*
X2799717Y-8006750D01*
X2756001Y-8031337D01*
X2712640Y-8053404D01*
X2677295Y-8069114D01*
X2669593Y-8071947D01*
X2613169Y-8084537D01*
X2553342Y-8087069D01*
X2498076Y-8079739D01*
X2462304Y-8066806D01*
X2427824Y-8040923D01*
X2392350Y-8002086D01*
X2361359Y-7957523D01*
X2340330Y-7914461D01*
X2336182Y-7900405D01*
X2334056Y-7854699D01*
X2343517Y-7818701D01*
X2368592Y-7749082D01*
X2386902Y-7691653D01*
X2399912Y-7639583D01*
X2409087Y-7586040D01*
X2415894Y-7524195D01*
X2421126Y-7456935D01*
X2423420Y-7426639D01*
X2847545Y-7426639D01*
X2848035Y-7484266D01*
X2850207Y-7512610D01*
X2857548Y-7571385D01*
X2908752Y-7564590D01*
X2937315Y-7559354D01*
X2981101Y-7549568D01*
X3034952Y-7536463D01*
X3093709Y-7521265D01*
X3117030Y-7514984D01*
X3278082Y-7468717D01*
X3420382Y-7422476D01*
X3546328Y-7375098D01*
X3658319Y-7325419D01*
X3758754Y-7272278D01*
X3850031Y-7214509D01*
X3934548Y-7150950D01*
X4014705Y-7080438D01*
X4016463Y-7078775D01*
X4117454Y-6971151D01*
X4197756Y-6859158D01*
X4257353Y-6742831D01*
X4296229Y-6622207D01*
X4314368Y-6497321D01*
X4314851Y-6410004D01*
X4299946Y-6298914D01*
X4266852Y-6198456D01*
X4215950Y-6109067D01*
X4147622Y-6031185D01*
X4062252Y-5965245D01*
X3960221Y-5911686D01*
X3843918Y-5871491D01*
X3808864Y-5862824D01*
X3774185Y-5856636D01*
X3735259Y-5852536D01*
X3687461Y-5850133D01*
X3626170Y-5849035D01*
X3575980Y-5848837D01*
X3511987Y-5849471D01*
X3441767Y-5851318D01*
X3368561Y-5854169D01*
X3295611Y-5857818D01*
X3226157Y-5862060D01*
X3163441Y-5866686D01*
X3110704Y-5871491D01*
X3071188Y-5876268D01*
X3048134Y-5880811D01*
X3043971Y-5882744D01*
X3039954Y-5895206D01*
X3033297Y-5926191D01*
X3024408Y-5973251D01*
X3013695Y-6033935D01*
X3001564Y-6105796D01*
X2988423Y-6186382D01*
X2974679Y-6273247D01*
X2960740Y-6363939D01*
X2947013Y-6456010D01*
X2936255Y-6530434D01*
X2917960Y-6664234D01*
X2901338Y-6796213D01*
X2886583Y-6924171D01*
X2873887Y-7045909D01*
X2863442Y-7159224D01*
X2855441Y-7261918D01*
X2850078Y-7351790D01*
X2847545Y-7426639D01*
X2423420Y-7426639D01*
X2433065Y-7299270D01*
X2446675Y-7146690D01*
G37*
G36*
X7712659Y-6087777D02*
G01*
X7773100Y-6104376D01*
X7822762Y-6136104D01*
X7859401Y-6182065D01*
X7877379Y-6226783D01*
X7885238Y-6279643D01*
X7877954Y-6328397D01*
X7854249Y-6375545D01*
X7812844Y-6423588D01*
X7752462Y-6475026D01*
X7749223Y-6477503D01*
X7671882Y-6543851D01*
X7588274Y-6629682D01*
X7498843Y-6734377D01*
X7404031Y-6857317D01*
X7304281Y-6997884D01*
X7200038Y-7155458D01*
X7091743Y-7329421D01*
X6979840Y-7519152D01*
X6891904Y-7674864D01*
X6839082Y-7768521D01*
X6793851Y-7844959D01*
X6754783Y-7906136D01*
X6720448Y-7954010D01*
X6689417Y-7990538D01*
X6660262Y-8017678D01*
X6631554Y-8037387D01*
X6624400Y-8041320D01*
X6581977Y-8053737D01*
X6531846Y-8053832D01*
X6483498Y-8041653D01*
X6481048Y-8040614D01*
X6450061Y-8022718D01*
X6416178Y-7996389D01*
X6383953Y-7966106D01*
X6357941Y-7936350D01*
X6342696Y-7911599D01*
X6340533Y-7902401D01*
X6336429Y-7868559D01*
X6324260Y-7815909D01*
X6304241Y-7745150D01*
X6276585Y-7656982D01*
X6241507Y-7552104D01*
X6199222Y-7431215D01*
X6177764Y-7371405D01*
X6124011Y-7220582D01*
X6078144Y-7087151D01*
X6039613Y-6969064D01*
X6007868Y-6864272D01*
X5982361Y-6770726D01*
X5962543Y-6686379D01*
X5947864Y-6609182D01*
X5937775Y-6537086D01*
X5931727Y-6468042D01*
X5930733Y-6450023D01*
X5928994Y-6364225D01*
X5933398Y-6295991D01*
X5944442Y-6242458D01*
X5962620Y-6200764D01*
X5977571Y-6179746D01*
X6014932Y-6144845D01*
X6058545Y-6124444D01*
X6113987Y-6116258D01*
X6133496Y-6115843D01*
X6204100Y-6122714D01*
X6259133Y-6143623D01*
X6299274Y-6179011D01*
X6325204Y-6229320D01*
X6329232Y-6243060D01*
X6333151Y-6267161D01*
X6337217Y-6307580D01*
X6341038Y-6359447D01*
X6344224Y-6417893D01*
X6345278Y-6443197D01*
X6348660Y-6507180D01*
X6354244Y-6568753D01*
X6362650Y-6630445D01*
X6374493Y-6694788D01*
X6390393Y-6764311D01*
X6410966Y-6841544D01*
X6436831Y-6929017D01*
X6468604Y-7029261D01*
X6506904Y-7144806D01*
X6541160Y-7245586D01*
X6560321Y-7300431D01*
X6577748Y-7348297D01*
X6592054Y-7385526D01*
X6601852Y-7408461D01*
X6604952Y-7413803D01*
X6613910Y-7409715D01*
X6629079Y-7389316D01*
X6648222Y-7355731D01*
X6652341Y-7347685D01*
X6670256Y-7314016D01*
X6696704Y-7266814D01*
X6729092Y-7210580D01*
X6764832Y-7149816D01*
X6797894Y-7094695D01*
X6907985Y-6915561D01*
X7009746Y-6755359D01*
X7103498Y-6613673D01*
X7189563Y-6490089D01*
X7268264Y-6384193D01*
X7339922Y-6295572D01*
X7404859Y-6223811D01*
X7463398Y-6168496D01*
X7515860Y-6129212D01*
X7562567Y-6105547D01*
X7568405Y-6103540D01*
X7643679Y-6087200D01*
X7712659Y-6087777D01*
G37*
G36*
X5483281Y-6171293D02*
G01*
X5537900Y-6191747D01*
X5585121Y-6225860D01*
X5619713Y-6269168D01*
X5632471Y-6298514D01*
X5637605Y-6326074D01*
X5637875Y-6360772D01*
X5632877Y-6405079D01*
X5622209Y-6461462D01*
X5605466Y-6532390D01*
X5582245Y-6620333D01*
X5576369Y-6641698D01*
X5533108Y-6813081D01*
X5498517Y-6982015D01*
X5472868Y-7145859D01*
X5456433Y-7301976D01*
X5449484Y-7447726D01*
X5452292Y-7580471D01*
X5465129Y-7697571D01*
X5466680Y-7706654D01*
X5474201Y-7755145D01*
X5479797Y-7802224D01*
X5482461Y-7839132D01*
X5482554Y-7844808D01*
X5480983Y-7872706D01*
X5473841Y-7894222D01*
X5457517Y-7916358D01*
X5432256Y-7942338D01*
X5399273Y-7971282D01*
X5365143Y-7995827D01*
X5342563Y-8008168D01*
X5288383Y-8021866D01*
X5228137Y-8023225D01*
X5171431Y-8012483D01*
X5148915Y-8003410D01*
X5106107Y-7973317D01*
X5073104Y-7929813D01*
X5049379Y-7871432D01*
X5034407Y-7796709D01*
X5027659Y-7704179D01*
X5027142Y-7664691D01*
X5029032Y-7567294D01*
X5034939Y-7467905D01*
X5045307Y-7362182D01*
X5060581Y-7245786D01*
X5081203Y-7114376D01*
X5086769Y-7081456D01*
X5108356Y-6954774D01*
X5126550Y-6846830D01*
X5141682Y-6755497D01*
X5154084Y-6678651D01*
X5164085Y-6614166D01*
X5172018Y-6559917D01*
X5178212Y-6513777D01*
X5182998Y-6473621D01*
X5186236Y-6442304D01*
X5200256Y-6350383D01*
X5223272Y-6277343D01*
X5255943Y-6222581D01*
X5298930Y-6185495D01*
X5352895Y-6165482D01*
X5418498Y-6161939D01*
X5483281Y-6171293D01*
G37*
G36*
X5749277Y-5203117D02*
G01*
X5803654Y-5211966D01*
X5837406Y-5224189D01*
X5893142Y-5263165D01*
X5931787Y-5311464D01*
X5953759Y-5366475D01*
X5959473Y-5425587D01*
X5949346Y-5486189D01*
X5923793Y-5545670D01*
X5883233Y-5601420D01*
X5828080Y-5650826D01*
X5763261Y-5689172D01*
X5705577Y-5708111D01*
X5644961Y-5713815D01*
X5589333Y-5705842D01*
X5572602Y-5699780D01*
X5517724Y-5665705D01*
X5468444Y-5615795D01*
X5442640Y-5578274D01*
X5426285Y-5546591D01*
X5417598Y-5516560D01*
X5414497Y-5479088D01*
X5414390Y-5454881D01*
X5423810Y-5379502D01*
X5450031Y-5315794D01*
X5492188Y-5265047D01*
X5549417Y-5228554D01*
X5571801Y-5219744D01*
X5626216Y-5206886D01*
X5687753Y-5201383D01*
X5749277Y-5203117D01*
G37*
G36*
X366555Y-3171318D02*
G01*
X-4170Y-3171318D01*
X-4170Y-2673279D01*
X366555Y-2673279D01*
X366555Y-3171318D01*
G37*
G36*
X9804170Y-3171318D02*
G01*
X4365096Y-3171318D01*
X4365096Y-2673279D01*
X9804170Y-2673279D01*
X9804170Y-3171318D01*
G37*
G04 #@! TD*
M02*
