M48
; DRILL file {KiCad (5.1.10)-1} date 05/24/21 09:12:45
; FORMAT={-:-/ absolute / metric / decimal}
; #@! TF.CreationDate,2021-05-24T09:12:45+02:00
; #@! TF.GenerationSoftware,Kicad,Pcbnew,(5.1.10)-1
; #@! TF.FileFunction,Plated,1,2,PTH
FMAT,2
METRIC
T1C0.400
T2C0.500
T3C1.000
T4C1.100
%
G90
G05
T1
X1.11Y-50.8
X2.38Y-22.86
X3.476Y-76.454
X4.539Y-77.47
X7.46Y-72.39
X8.73Y-76.454
X10.0Y-24.575
X10.0Y-38.675
X10.0Y-52.525
X12.032Y-85.09
X12.54Y-86.36
X14.191Y-77.47
X17.493Y-79.375
X17.62Y-36.83
X18.89Y-60.96
T3
X4.92Y-96.52
X4.92Y-99.06
X7.46Y-96.52
X7.46Y-99.06
X7.5Y-13.335
X7.5Y-27.305
X7.5Y-41.275
X7.5Y-55.245
X10.0Y-13.335
X10.0Y-27.305
X10.0Y-41.275
X10.0Y-55.245
X10.0Y-96.52
X10.0Y-99.06
X12.5Y-13.335
X12.5Y-27.305
X12.5Y-41.275
X12.5Y-55.245
X12.54Y-96.52
X12.54Y-99.06
X15.08Y-96.52
X15.08Y-99.06
T2
G00X5.08Y-90.035
M15
G01X5.08Y-89.035
M16
G05
G00X4.737Y-58.58
M15
G01X5.737Y-58.58
M16
G05
G00X4.737Y-66.88
M15
G01X5.737Y-66.88
M16
G05
G00X4.737Y-69.98
M15
G01X5.737Y-69.98
M16
G05
G00X5.737Y-71.625
M15
G01X4.737Y-71.625
M16
G05
G00X5.737Y-74.725
M15
G01X4.737Y-74.725
M16
G05
G00X5.737Y-83.025
M15
G01X4.737Y-83.025
M16
G05
G00X13.38Y-90.035
M15
G01X13.38Y-89.035
M16
G05
G00X14.262Y-58.58
M15
G01X15.262Y-58.58
M16
G05
G00X14.262Y-66.88
M15
G01X15.262Y-66.88
M16
G05
G00X14.262Y-69.98
M15
G01X15.262Y-69.98
M16
G05
G00X15.262Y-71.625
M15
G01X14.262Y-71.625
M16
G05
G00X15.262Y-74.725
M15
G01X14.262Y-74.725
M16
G05
G00X15.262Y-83.025
M15
G01X14.262Y-83.025
M16
G05
G00X16.48Y-90.035
M15
G01X16.48Y-89.035
M16
G05
T4
G00X5.2Y-6.185
M15
G01X5.2Y-5.485
M16
G05
G00X5.2Y-20.155
M15
G01X5.2Y-19.455
M16
G05
G00X5.2Y-34.125
M15
G01X5.2Y-33.425
M16
G05
G00X5.2Y-48.095
M15
G01X5.2Y-47.395
M16
G05
G00X14.8Y-6.185
M15
G01X14.8Y-5.485
M16
G05
G00X14.8Y-20.155
M15
G01X14.8Y-19.455
M16
G05
G00X14.8Y-34.125
M15
G01X14.8Y-33.425
M16
G05
G00X14.8Y-48.095
M15
G01X14.8Y-47.395
M16
G05
T0
M30
