G04 #@! TF.GenerationSoftware,KiCad,Pcbnew,(5.1.10)-1*
G04 #@! TF.CreationDate,2021-05-24T09:12:42+02:00*
G04 #@! TF.ProjectId,4CH Mixer,34434820-4d69-4786-9572-2e6b69636164,rev?*
G04 #@! TF.SameCoordinates,Original*
G04 #@! TF.FileFunction,Legend,Top*
G04 #@! TF.FilePolarity,Positive*
%FSLAX46Y46*%
G04 Gerber Fmt 4.6, Leading zero omitted, Abs format (unit mm)*
G04 Created by KiCad (PCBNEW (5.1.10)-1) date 2021-05-24 09:12:42*
%MOMM*%
%LPD*%
G01*
G04 APERTURE LIST*
%ADD10C,0.100000*%
%ADD11C,0.120000*%
%ADD12C,0.150000*%
G04 APERTURE END LIST*
D10*
X18506666Y-100533333D02*
X19006666Y-100533333D01*
X19106666Y-100566666D01*
X19173333Y-100633333D01*
X19206666Y-100733333D01*
X19206666Y-100800000D01*
X19206666Y-99866666D02*
X19206666Y-100200000D01*
X18506666Y-100200000D01*
X19140000Y-99233333D02*
X19173333Y-99266666D01*
X19206666Y-99366666D01*
X19206666Y-99433333D01*
X19173333Y-99533333D01*
X19106666Y-99600000D01*
X19040000Y-99633333D01*
X18906666Y-99666666D01*
X18806666Y-99666666D01*
X18673333Y-99633333D01*
X18606666Y-99600000D01*
X18540000Y-99533333D01*
X18506666Y-99433333D01*
X18506666Y-99366666D01*
X18540000Y-99266666D01*
X18573333Y-99233333D01*
X18506666Y-98733333D02*
X19006666Y-98733333D01*
X19106666Y-98766666D01*
X19173333Y-98833333D01*
X19206666Y-98933333D01*
X19206666Y-99000000D01*
X19206666Y-98066666D02*
X19206666Y-98400000D01*
X18506666Y-98400000D01*
X19140000Y-97433333D02*
X19173333Y-97466666D01*
X19206666Y-97566666D01*
X19206666Y-97633333D01*
X19173333Y-97733333D01*
X19106666Y-97800000D01*
X19040000Y-97833333D01*
X18906666Y-97866666D01*
X18806666Y-97866666D01*
X18673333Y-97833333D01*
X18606666Y-97800000D01*
X18540000Y-97733333D01*
X18506666Y-97633333D01*
X18506666Y-97566666D01*
X18540000Y-97466666D01*
X18573333Y-97433333D01*
X18506666Y-96933333D02*
X19006666Y-96933333D01*
X19106666Y-96966666D01*
X19173333Y-97033333D01*
X19206666Y-97133333D01*
X19206666Y-97200000D01*
X19206666Y-96266666D02*
X19206666Y-96600000D01*
X18506666Y-96600000D01*
X19140000Y-95633333D02*
X19173333Y-95666666D01*
X19206666Y-95766666D01*
X19206666Y-95833333D01*
X19173333Y-95933333D01*
X19106666Y-96000000D01*
X19040000Y-96033333D01*
X18906666Y-96066666D01*
X18806666Y-96066666D01*
X18673333Y-96033333D01*
X18606666Y-96000000D01*
X18540000Y-95933333D01*
X18506666Y-95833333D01*
X18506666Y-95766666D01*
X18540000Y-95666666D01*
X18573333Y-95633333D01*
X18506666Y-95133333D02*
X19006666Y-95133333D01*
X19106666Y-95166666D01*
X19173333Y-95233333D01*
X19206666Y-95333333D01*
X19206666Y-95400000D01*
X19206666Y-94466666D02*
X19206666Y-94800000D01*
X18506666Y-94800000D01*
X19140000Y-93833333D02*
X19173333Y-93866666D01*
X19206666Y-93966666D01*
X19206666Y-94033333D01*
X19173333Y-94133333D01*
X19106666Y-94200000D01*
X19040000Y-94233333D01*
X18906666Y-94266666D01*
X18806666Y-94266666D01*
X18673333Y-94233333D01*
X18606666Y-94200000D01*
X18540000Y-94133333D01*
X18506666Y-94033333D01*
X18506666Y-93966666D01*
X18540000Y-93866666D01*
X18573333Y-93833333D01*
X1020000Y-100433333D02*
X1486666Y-100433333D01*
X753333Y-100600000D02*
X1253333Y-100766666D01*
X1253333Y-100333333D01*
X1420000Y-99666666D02*
X1453333Y-99700000D01*
X1486666Y-99800000D01*
X1486666Y-99866666D01*
X1453333Y-99966666D01*
X1386666Y-100033333D01*
X1320000Y-100066666D01*
X1186666Y-100100000D01*
X1086666Y-100100000D01*
X953333Y-100066666D01*
X886666Y-100033333D01*
X820000Y-99966666D01*
X786666Y-99866666D01*
X786666Y-99800000D01*
X820000Y-99700000D01*
X853333Y-99666666D01*
X1486666Y-99366666D02*
X786666Y-99366666D01*
X1120000Y-99366666D02*
X1120000Y-98966666D01*
X1486666Y-98966666D02*
X786666Y-98966666D01*
X1486666Y-98100000D02*
X786666Y-98100000D01*
X1286666Y-97866666D01*
X786666Y-97633333D01*
X1486666Y-97633333D01*
X1486666Y-97300000D02*
X1020000Y-97300000D01*
X786666Y-97300000D02*
X820000Y-97333333D01*
X853333Y-97300000D01*
X820000Y-97266666D01*
X786666Y-97300000D01*
X853333Y-97300000D01*
X1486666Y-97033333D02*
X1020000Y-96666666D01*
X1020000Y-97033333D02*
X1486666Y-96666666D01*
X1453333Y-96133333D02*
X1486666Y-96200000D01*
X1486666Y-96333333D01*
X1453333Y-96400000D01*
X1386666Y-96433333D01*
X1120000Y-96433333D01*
X1053333Y-96400000D01*
X1020000Y-96333333D01*
X1020000Y-96200000D01*
X1053333Y-96133333D01*
X1120000Y-96100000D01*
X1186666Y-96100000D01*
X1253333Y-96433333D01*
X1486666Y-95800000D02*
X1020000Y-95800000D01*
X1153333Y-95800000D02*
X1086666Y-95766666D01*
X1053333Y-95733333D01*
X1020000Y-95666666D01*
X1020000Y-95600000D01*
X2636666Y-100333333D02*
X2303333Y-100566666D01*
X2636666Y-100733333D02*
X1936666Y-100733333D01*
X1936666Y-100466666D01*
X1970000Y-100400000D01*
X2003333Y-100366666D01*
X2070000Y-100333333D01*
X2170000Y-100333333D01*
X2236666Y-100366666D01*
X2270000Y-100400000D01*
X2303333Y-100466666D01*
X2303333Y-100733333D01*
X2603333Y-99766666D02*
X2636666Y-99833333D01*
X2636666Y-99966666D01*
X2603333Y-100033333D01*
X2536666Y-100066666D01*
X2270000Y-100066666D01*
X2203333Y-100033333D01*
X2170000Y-99966666D01*
X2170000Y-99833333D01*
X2203333Y-99766666D01*
X2270000Y-99733333D01*
X2336666Y-99733333D01*
X2403333Y-100066666D01*
X2170000Y-99500000D02*
X2636666Y-99333333D01*
X2170000Y-99166666D01*
X1936666Y-98233333D02*
X1936666Y-98166666D01*
X1970000Y-98100000D01*
X2003333Y-98066666D01*
X2070000Y-98033333D01*
X2203333Y-98000000D01*
X2370000Y-98000000D01*
X2503333Y-98033333D01*
X2570000Y-98066666D01*
X2603333Y-98100000D01*
X2636666Y-98166666D01*
X2636666Y-98233333D01*
X2603333Y-98300000D01*
X2570000Y-98333333D01*
X2503333Y-98366666D01*
X2370000Y-98400000D01*
X2203333Y-98400000D01*
X2070000Y-98366666D01*
X2003333Y-98333333D01*
X1970000Y-98300000D01*
X1936666Y-98233333D01*
X2636666Y-97333333D02*
X2636666Y-97733333D01*
X2636666Y-97533333D02*
X1936666Y-97533333D01*
X2036666Y-97600000D01*
X2103333Y-97666666D01*
X2136666Y-97733333D01*
X2003333Y-97066666D02*
X1970000Y-97033333D01*
X1936666Y-96966666D01*
X1936666Y-96800000D01*
X1970000Y-96733333D01*
X2003333Y-96700000D01*
X2070000Y-96666666D01*
X2136666Y-96666666D01*
X2236666Y-96700000D01*
X2636666Y-97100000D01*
X2636666Y-96666666D01*
X2636666Y-96000000D02*
X2636666Y-96400000D01*
X2636666Y-96200000D02*
X1936666Y-96200000D01*
X2036666Y-96266666D01*
X2103333Y-96333333D01*
X2136666Y-96400000D01*
X1936666Y-95566666D02*
X1936666Y-95500000D01*
X1970000Y-95433333D01*
X2003333Y-95400000D01*
X2070000Y-95366666D01*
X2203333Y-95333333D01*
X2370000Y-95333333D01*
X2503333Y-95366666D01*
X2570000Y-95400000D01*
X2603333Y-95433333D01*
X2636666Y-95500000D01*
X2636666Y-95566666D01*
X2603333Y-95633333D01*
X2570000Y-95666666D01*
X2503333Y-95700000D01*
X2370000Y-95733333D01*
X2203333Y-95733333D01*
X2070000Y-95700000D01*
X2003333Y-95666666D01*
X1970000Y-95633333D01*
X1936666Y-95566666D01*
X1936666Y-94700000D02*
X1936666Y-95033333D01*
X2270000Y-95066666D01*
X2236666Y-95033333D01*
X2203333Y-94966666D01*
X2203333Y-94800000D01*
X2236666Y-94733333D01*
X2270000Y-94700000D01*
X2336666Y-94666666D01*
X2503333Y-94666666D01*
X2570000Y-94700000D01*
X2603333Y-94733333D01*
X2636666Y-94800000D01*
X2636666Y-94966666D01*
X2603333Y-95033333D01*
X2570000Y-95066666D01*
D11*
G04 #@! TO.C,J6*
X4000000Y-86035000D02*
X4000000Y-85035000D01*
X4000000Y-85035000D02*
X5000000Y-85035000D01*
X4000000Y-93035000D02*
X4000000Y-94035000D01*
X4000000Y-94035000D02*
X5000000Y-94035000D01*
X13500000Y-94035000D02*
X14500000Y-94035000D01*
X14500000Y-94035000D02*
X14500000Y-93035000D01*
X13500000Y-85035000D02*
X14500000Y-85035000D01*
X14500000Y-85035000D02*
X14500000Y-86035000D01*
G04 #@! TO.C,J4*
X11262500Y-84105000D02*
X10262500Y-84105000D01*
X10262500Y-84105000D02*
X10262500Y-83105000D01*
X18262500Y-84105000D02*
X19262500Y-84105000D01*
X19262500Y-84105000D02*
X19262500Y-83105000D01*
X19262500Y-74605000D02*
X19262500Y-73605000D01*
X19262500Y-73605000D02*
X18262500Y-73605000D01*
X10262500Y-74605000D02*
X10262500Y-73605000D01*
X10262500Y-73605000D02*
X11262500Y-73605000D01*
G04 #@! TO.C,J3*
X1737500Y-84105000D02*
X737500Y-84105000D01*
X737500Y-84105000D02*
X737500Y-83105000D01*
X8737500Y-84105000D02*
X9737500Y-84105000D01*
X9737500Y-84105000D02*
X9737500Y-83105000D01*
X9737500Y-74605000D02*
X9737500Y-73605000D01*
X9737500Y-73605000D02*
X8737500Y-73605000D01*
X737500Y-74605000D02*
X737500Y-73605000D01*
X737500Y-73605000D02*
X1737500Y-73605000D01*
G04 #@! TO.C,J2*
X18262500Y-57500000D02*
X19262500Y-57500000D01*
X19262500Y-57500000D02*
X19262500Y-58500000D01*
X11262500Y-57500000D02*
X10262500Y-57500000D01*
X10262500Y-57500000D02*
X10262500Y-58500000D01*
X10262500Y-67000000D02*
X10262500Y-68000000D01*
X10262500Y-68000000D02*
X11262500Y-68000000D01*
X19262500Y-67000000D02*
X19262500Y-68000000D01*
X19262500Y-68000000D02*
X18262500Y-68000000D01*
G04 #@! TO.C,J1*
X8737500Y-57500000D02*
X9737500Y-57500000D01*
X9737500Y-57500000D02*
X9737500Y-58500000D01*
X1737500Y-57500000D02*
X737500Y-57500000D01*
X737500Y-57500000D02*
X737500Y-58500000D01*
X737500Y-67000000D02*
X737500Y-68000000D01*
X737500Y-68000000D02*
X1737500Y-68000000D01*
X9737500Y-67000000D02*
X9737500Y-68000000D01*
X9737500Y-68000000D02*
X8737500Y-68000000D01*
G04 #@! TO.C,P4*
X11660000Y-54365000D02*
X10830000Y-54365000D01*
X9210000Y-54365000D02*
X8680000Y-54365000D01*
X6310000Y-54365000D02*
X5130000Y-54365000D01*
X14870000Y-54365000D02*
X14870000Y-49645000D01*
X5130000Y-45835000D02*
X5130000Y-42775000D01*
X5120000Y-54365000D02*
X5120000Y-49645000D01*
X14870000Y-45835000D02*
X14870000Y-42775000D01*
X14870000Y-54365000D02*
X13380000Y-54365000D01*
X14870000Y-42775000D02*
X5130000Y-42775000D01*
G04 #@! TO.C,P3*
X11660000Y-40395000D02*
X10830000Y-40395000D01*
X9210000Y-40395000D02*
X8680000Y-40395000D01*
X6310000Y-40395000D02*
X5130000Y-40395000D01*
X14870000Y-40395000D02*
X14870000Y-35675000D01*
X5130000Y-31865000D02*
X5130000Y-28805000D01*
X5120000Y-40395000D02*
X5120000Y-35675000D01*
X14870000Y-31865000D02*
X14870000Y-28805000D01*
X14870000Y-40395000D02*
X13380000Y-40395000D01*
X14870000Y-28805000D02*
X5130000Y-28805000D01*
G04 #@! TO.C,P2*
X11660000Y-26425000D02*
X10830000Y-26425000D01*
X9210000Y-26425000D02*
X8680000Y-26425000D01*
X6310000Y-26425000D02*
X5130000Y-26425000D01*
X14870000Y-26425000D02*
X14870000Y-21705000D01*
X5130000Y-17895000D02*
X5130000Y-14835000D01*
X5120000Y-26425000D02*
X5120000Y-21705000D01*
X14870000Y-17895000D02*
X14870000Y-14835000D01*
X14870000Y-26425000D02*
X13380000Y-26425000D01*
X14870000Y-14835000D02*
X5130000Y-14835000D01*
G04 #@! TO.C,P1*
X11660000Y-12455000D02*
X10830000Y-12455000D01*
X9210000Y-12455000D02*
X8680000Y-12455000D01*
X6310000Y-12455000D02*
X5130000Y-12455000D01*
X14870000Y-12455000D02*
X14870000Y-7735000D01*
X5130000Y-3925000D02*
X5130000Y-865000D01*
X5120000Y-12455000D02*
X5120000Y-7735000D01*
X14870000Y-3925000D02*
X14870000Y-865000D01*
X14870000Y-12455000D02*
X13380000Y-12455000D01*
X14870000Y-865000D02*
X5130000Y-865000D01*
G04 #@! TO.C,J6*
D12*
X15516666Y-92797380D02*
X15707142Y-92797380D01*
X15802380Y-92845000D01*
X15897619Y-92940238D01*
X15945238Y-93130714D01*
X15945238Y-93464047D01*
X15897619Y-93654523D01*
X15802380Y-93749761D01*
X15707142Y-93797380D01*
X15516666Y-93797380D01*
X15421428Y-93749761D01*
X15326190Y-93654523D01*
X15278571Y-93464047D01*
X15278571Y-93130714D01*
X15326190Y-92940238D01*
X15421428Y-92845000D01*
X15516666Y-92797380D01*
X16802380Y-93130714D02*
X16802380Y-93797380D01*
X16373809Y-93130714D02*
X16373809Y-93654523D01*
X16421428Y-93749761D01*
X16516666Y-93797380D01*
X16659523Y-93797380D01*
X16754761Y-93749761D01*
X16802380Y-93702142D01*
X17135714Y-93130714D02*
X17516666Y-93130714D01*
X17278571Y-92797380D02*
X17278571Y-93654523D01*
X17326190Y-93749761D01*
X17421428Y-93797380D01*
X17516666Y-93797380D01*
G04 #@! TO.C,J4*
X10341428Y-73477380D02*
X10341428Y-72477380D01*
X10817619Y-72810714D02*
X10817619Y-73477380D01*
X10817619Y-72905952D02*
X10865238Y-72858333D01*
X10960476Y-72810714D01*
X11103333Y-72810714D01*
X11198571Y-72858333D01*
X11246190Y-72953571D01*
X11246190Y-73477380D01*
X12150952Y-72810714D02*
X12150952Y-73477380D01*
X11912857Y-72429761D02*
X11674761Y-73144047D01*
X12293809Y-73144047D01*
G04 #@! TO.C,J3*
X7801428Y-73477380D02*
X7801428Y-72477380D01*
X8277619Y-72810714D02*
X8277619Y-73477380D01*
X8277619Y-72905952D02*
X8325238Y-72858333D01*
X8420476Y-72810714D01*
X8563333Y-72810714D01*
X8658571Y-72858333D01*
X8706190Y-72953571D01*
X8706190Y-73477380D01*
X9087142Y-72477380D02*
X9706190Y-72477380D01*
X9372857Y-72858333D01*
X9515714Y-72858333D01*
X9610952Y-72905952D01*
X9658571Y-72953571D01*
X9706190Y-73048809D01*
X9706190Y-73286904D01*
X9658571Y-73382142D01*
X9610952Y-73429761D01*
X9515714Y-73477380D01*
X9230000Y-73477380D01*
X9134761Y-73429761D01*
X9087142Y-73382142D01*
G04 #@! TO.C,J2*
X10341428Y-69667380D02*
X10341428Y-68667380D01*
X10817619Y-69000714D02*
X10817619Y-69667380D01*
X10817619Y-69095952D02*
X10865238Y-69048333D01*
X10960476Y-69000714D01*
X11103333Y-69000714D01*
X11198571Y-69048333D01*
X11246190Y-69143571D01*
X11246190Y-69667380D01*
X11674761Y-68762619D02*
X11722380Y-68715000D01*
X11817619Y-68667380D01*
X12055714Y-68667380D01*
X12150952Y-68715000D01*
X12198571Y-68762619D01*
X12246190Y-68857857D01*
X12246190Y-68953095D01*
X12198571Y-69095952D01*
X11627142Y-69667380D01*
X12246190Y-69667380D01*
G04 #@! TO.C,J1*
X7801428Y-69667380D02*
X7801428Y-68667380D01*
X8277619Y-69000714D02*
X8277619Y-69667380D01*
X8277619Y-69095952D02*
X8325238Y-69048333D01*
X8420476Y-69000714D01*
X8563333Y-69000714D01*
X8658571Y-69048333D01*
X8706190Y-69143571D01*
X8706190Y-69667380D01*
X9706190Y-69667380D02*
X9134761Y-69667380D01*
X9420476Y-69667380D02*
X9420476Y-68667380D01*
X9325238Y-68810238D01*
X9230000Y-68905476D01*
X9134761Y-68953095D01*
G04 #@! TO.C,P4*
X8142857Y-53268571D02*
X8285714Y-53316190D01*
X8333333Y-53363809D01*
X8380952Y-53459047D01*
X8380952Y-53601904D01*
X8333333Y-53697142D01*
X8285714Y-53744761D01*
X8190476Y-53792380D01*
X7809523Y-53792380D01*
X7809523Y-52792380D01*
X8142857Y-52792380D01*
X8238095Y-52840000D01*
X8285714Y-52887619D01*
X8333333Y-52982857D01*
X8333333Y-53078095D01*
X8285714Y-53173333D01*
X8238095Y-53220952D01*
X8142857Y-53268571D01*
X7809523Y-53268571D01*
X9333333Y-53792380D02*
X8761904Y-53792380D01*
X9047619Y-53792380D02*
X9047619Y-52792380D01*
X8952380Y-52935238D01*
X8857142Y-53030476D01*
X8761904Y-53078095D01*
X9952380Y-52792380D02*
X10047619Y-52792380D01*
X10142857Y-52840000D01*
X10190476Y-52887619D01*
X10238095Y-52982857D01*
X10285714Y-53173333D01*
X10285714Y-53411428D01*
X10238095Y-53601904D01*
X10190476Y-53697142D01*
X10142857Y-53744761D01*
X10047619Y-53792380D01*
X9952380Y-53792380D01*
X9857142Y-53744761D01*
X9809523Y-53697142D01*
X9761904Y-53601904D01*
X9714285Y-53411428D01*
X9714285Y-53173333D01*
X9761904Y-52982857D01*
X9809523Y-52887619D01*
X9857142Y-52840000D01*
X9952380Y-52792380D01*
X10904761Y-52792380D02*
X11000000Y-52792380D01*
X11095238Y-52840000D01*
X11142857Y-52887619D01*
X11190476Y-52982857D01*
X11238095Y-53173333D01*
X11238095Y-53411428D01*
X11190476Y-53601904D01*
X11142857Y-53697142D01*
X11095238Y-53744761D01*
X11000000Y-53792380D01*
X10904761Y-53792380D01*
X10809523Y-53744761D01*
X10761904Y-53697142D01*
X10714285Y-53601904D01*
X10666666Y-53411428D01*
X10666666Y-53173333D01*
X10714285Y-52982857D01*
X10761904Y-52887619D01*
X10809523Y-52840000D01*
X10904761Y-52792380D01*
X11666666Y-53792380D02*
X11666666Y-52792380D01*
X12238095Y-53792380D02*
X11809523Y-53220952D01*
X12238095Y-52792380D02*
X11666666Y-53363809D01*
G04 #@! TO.C,P3*
X8142857Y-39298571D02*
X8285714Y-39346190D01*
X8333333Y-39393809D01*
X8380952Y-39489047D01*
X8380952Y-39631904D01*
X8333333Y-39727142D01*
X8285714Y-39774761D01*
X8190476Y-39822380D01*
X7809523Y-39822380D01*
X7809523Y-38822380D01*
X8142857Y-38822380D01*
X8238095Y-38870000D01*
X8285714Y-38917619D01*
X8333333Y-39012857D01*
X8333333Y-39108095D01*
X8285714Y-39203333D01*
X8238095Y-39250952D01*
X8142857Y-39298571D01*
X7809523Y-39298571D01*
X9333333Y-39822380D02*
X8761904Y-39822380D01*
X9047619Y-39822380D02*
X9047619Y-38822380D01*
X8952380Y-38965238D01*
X8857142Y-39060476D01*
X8761904Y-39108095D01*
X9952380Y-38822380D02*
X10047619Y-38822380D01*
X10142857Y-38870000D01*
X10190476Y-38917619D01*
X10238095Y-39012857D01*
X10285714Y-39203333D01*
X10285714Y-39441428D01*
X10238095Y-39631904D01*
X10190476Y-39727142D01*
X10142857Y-39774761D01*
X10047619Y-39822380D01*
X9952380Y-39822380D01*
X9857142Y-39774761D01*
X9809523Y-39727142D01*
X9761904Y-39631904D01*
X9714285Y-39441428D01*
X9714285Y-39203333D01*
X9761904Y-39012857D01*
X9809523Y-38917619D01*
X9857142Y-38870000D01*
X9952380Y-38822380D01*
X10904761Y-38822380D02*
X11000000Y-38822380D01*
X11095238Y-38870000D01*
X11142857Y-38917619D01*
X11190476Y-39012857D01*
X11238095Y-39203333D01*
X11238095Y-39441428D01*
X11190476Y-39631904D01*
X11142857Y-39727142D01*
X11095238Y-39774761D01*
X11000000Y-39822380D01*
X10904761Y-39822380D01*
X10809523Y-39774761D01*
X10761904Y-39727142D01*
X10714285Y-39631904D01*
X10666666Y-39441428D01*
X10666666Y-39203333D01*
X10714285Y-39012857D01*
X10761904Y-38917619D01*
X10809523Y-38870000D01*
X10904761Y-38822380D01*
X11666666Y-39822380D02*
X11666666Y-38822380D01*
X12238095Y-39822380D02*
X11809523Y-39250952D01*
X12238095Y-38822380D02*
X11666666Y-39393809D01*
G04 #@! TO.C,P2*
X8142857Y-25328571D02*
X8285714Y-25376190D01*
X8333333Y-25423809D01*
X8380952Y-25519047D01*
X8380952Y-25661904D01*
X8333333Y-25757142D01*
X8285714Y-25804761D01*
X8190476Y-25852380D01*
X7809523Y-25852380D01*
X7809523Y-24852380D01*
X8142857Y-24852380D01*
X8238095Y-24900000D01*
X8285714Y-24947619D01*
X8333333Y-25042857D01*
X8333333Y-25138095D01*
X8285714Y-25233333D01*
X8238095Y-25280952D01*
X8142857Y-25328571D01*
X7809523Y-25328571D01*
X9333333Y-25852380D02*
X8761904Y-25852380D01*
X9047619Y-25852380D02*
X9047619Y-24852380D01*
X8952380Y-24995238D01*
X8857142Y-25090476D01*
X8761904Y-25138095D01*
X9952380Y-24852380D02*
X10047619Y-24852380D01*
X10142857Y-24900000D01*
X10190476Y-24947619D01*
X10238095Y-25042857D01*
X10285714Y-25233333D01*
X10285714Y-25471428D01*
X10238095Y-25661904D01*
X10190476Y-25757142D01*
X10142857Y-25804761D01*
X10047619Y-25852380D01*
X9952380Y-25852380D01*
X9857142Y-25804761D01*
X9809523Y-25757142D01*
X9761904Y-25661904D01*
X9714285Y-25471428D01*
X9714285Y-25233333D01*
X9761904Y-25042857D01*
X9809523Y-24947619D01*
X9857142Y-24900000D01*
X9952380Y-24852380D01*
X10904761Y-24852380D02*
X11000000Y-24852380D01*
X11095238Y-24900000D01*
X11142857Y-24947619D01*
X11190476Y-25042857D01*
X11238095Y-25233333D01*
X11238095Y-25471428D01*
X11190476Y-25661904D01*
X11142857Y-25757142D01*
X11095238Y-25804761D01*
X11000000Y-25852380D01*
X10904761Y-25852380D01*
X10809523Y-25804761D01*
X10761904Y-25757142D01*
X10714285Y-25661904D01*
X10666666Y-25471428D01*
X10666666Y-25233333D01*
X10714285Y-25042857D01*
X10761904Y-24947619D01*
X10809523Y-24900000D01*
X10904761Y-24852380D01*
X11666666Y-25852380D02*
X11666666Y-24852380D01*
X12238095Y-25852380D02*
X11809523Y-25280952D01*
X12238095Y-24852380D02*
X11666666Y-25423809D01*
G04 #@! TO.C,P1*
X8142857Y-11358571D02*
X8285714Y-11406190D01*
X8333333Y-11453809D01*
X8380952Y-11549047D01*
X8380952Y-11691904D01*
X8333333Y-11787142D01*
X8285714Y-11834761D01*
X8190476Y-11882380D01*
X7809523Y-11882380D01*
X7809523Y-10882380D01*
X8142857Y-10882380D01*
X8238095Y-10930000D01*
X8285714Y-10977619D01*
X8333333Y-11072857D01*
X8333333Y-11168095D01*
X8285714Y-11263333D01*
X8238095Y-11310952D01*
X8142857Y-11358571D01*
X7809523Y-11358571D01*
X9333333Y-11882380D02*
X8761904Y-11882380D01*
X9047619Y-11882380D02*
X9047619Y-10882380D01*
X8952380Y-11025238D01*
X8857142Y-11120476D01*
X8761904Y-11168095D01*
X9952380Y-10882380D02*
X10047619Y-10882380D01*
X10142857Y-10930000D01*
X10190476Y-10977619D01*
X10238095Y-11072857D01*
X10285714Y-11263333D01*
X10285714Y-11501428D01*
X10238095Y-11691904D01*
X10190476Y-11787142D01*
X10142857Y-11834761D01*
X10047619Y-11882380D01*
X9952380Y-11882380D01*
X9857142Y-11834761D01*
X9809523Y-11787142D01*
X9761904Y-11691904D01*
X9714285Y-11501428D01*
X9714285Y-11263333D01*
X9761904Y-11072857D01*
X9809523Y-10977619D01*
X9857142Y-10930000D01*
X9952380Y-10882380D01*
X10904761Y-10882380D02*
X11000000Y-10882380D01*
X11095238Y-10930000D01*
X11142857Y-10977619D01*
X11190476Y-11072857D01*
X11238095Y-11263333D01*
X11238095Y-11501428D01*
X11190476Y-11691904D01*
X11142857Y-11787142D01*
X11095238Y-11834761D01*
X11000000Y-11882380D01*
X10904761Y-11882380D01*
X10809523Y-11834761D01*
X10761904Y-11787142D01*
X10714285Y-11691904D01*
X10666666Y-11501428D01*
X10666666Y-11263333D01*
X10714285Y-11072857D01*
X10761904Y-10977619D01*
X10809523Y-10930000D01*
X10904761Y-10882380D01*
X11666666Y-11882380D02*
X11666666Y-10882380D01*
X12238095Y-11882380D02*
X11809523Y-11310952D01*
X12238095Y-10882380D02*
X11666666Y-11453809D01*
G04 #@! TD*
M02*
