G04 #@! TF.GenerationSoftware,KiCad,Pcbnew,(5.1.10)-1*
G04 #@! TF.CreationDate,2021-05-24T09:12:42+02:00*
G04 #@! TF.ProjectId,4CH Mixer,34434820-4d69-4786-9572-2e6b69636164,rev?*
G04 #@! TF.SameCoordinates,Original*
G04 #@! TF.FileFunction,Copper,L2,Bot*
G04 #@! TF.FilePolarity,Positive*
%FSLAX46Y46*%
G04 Gerber Fmt 4.6, Leading zero omitted, Abs format (unit mm)*
G04 Created by KiCad (PCBNEW (5.1.10)-1) date 2021-05-24 09:12:42*
%MOMM*%
%LPD*%
G01*
G04 APERTURE LIST*
G04 #@! TA.AperFunction,SMDPad,CuDef*
%ADD10R,0.900000X1.200000*%
G04 #@! TD*
G04 #@! TA.AperFunction,ComponentPad*
%ADD11O,1.300000X2.300000*%
G04 #@! TD*
G04 #@! TA.AperFunction,ComponentPad*
%ADD12O,2.300000X1.300000*%
G04 #@! TD*
G04 #@! TA.AperFunction,ComponentPad*
%ADD13O,2.720000X3.240000*%
G04 #@! TD*
G04 #@! TA.AperFunction,ComponentPad*
%ADD14C,1.800000*%
G04 #@! TD*
G04 #@! TA.AperFunction,ComponentPad*
%ADD15R,1.800000X1.800000*%
G04 #@! TD*
G04 #@! TA.AperFunction,ComponentPad*
%ADD16O,1.700000X1.700000*%
G04 #@! TD*
G04 #@! TA.AperFunction,ComponentPad*
%ADD17R,1.700000X1.700000*%
G04 #@! TD*
G04 #@! TA.AperFunction,ViaPad*
%ADD18C,0.800000*%
G04 #@! TD*
G04 #@! TA.AperFunction,Conductor*
%ADD19C,0.250000*%
G04 #@! TD*
G04 #@! TA.AperFunction,Conductor*
%ADD20C,0.254000*%
G04 #@! TD*
G04 #@! TA.AperFunction,Conductor*
%ADD21C,0.100000*%
G04 #@! TD*
G04 APERTURE END LIST*
D10*
G04 #@! TO.P,D2,2*
G04 #@! TO.N,-12V*
X1625000Y-93050000D03*
G04 #@! TO.P,D2,1*
G04 #@! TO.N,-12VA*
X4925000Y-93050000D03*
G04 #@! TD*
G04 #@! TO.P,D1,2*
G04 #@! TO.N,+12VA*
X15075000Y-93050000D03*
G04 #@! TO.P,D1,1*
G04 #@! TO.N,+12V*
X18375000Y-93050000D03*
G04 #@! TD*
G04 #@! TO.P,C3,2*
G04 #@! TO.N,-12V*
G04 #@! TA.AperFunction,SMDPad,CuDef*
G36*
G01*
X2125000Y-85950000D02*
X2125000Y-86900000D01*
G75*
G02*
X1875000Y-87150000I-250000J0D01*
G01*
X1375000Y-87150000D01*
G75*
G02*
X1125000Y-86900000I0J250000D01*
G01*
X1125000Y-85950000D01*
G75*
G02*
X1375000Y-85700000I250000J0D01*
G01*
X1875000Y-85700000D01*
G75*
G02*
X2125000Y-85950000I0J-250000D01*
G01*
G37*
G04 #@! TD.AperFunction*
G04 #@! TO.P,C3,1*
G04 #@! TO.N,GND*
G04 #@! TA.AperFunction,SMDPad,CuDef*
G36*
G01*
X4025000Y-85950000D02*
X4025000Y-86900000D01*
G75*
G02*
X3775000Y-87150000I-250000J0D01*
G01*
X3275000Y-87150000D01*
G75*
G02*
X3025000Y-86900000I0J250000D01*
G01*
X3025000Y-85950000D01*
G75*
G02*
X3275000Y-85700000I250000J0D01*
G01*
X3775000Y-85700000D01*
G75*
G02*
X4025000Y-85950000I0J-250000D01*
G01*
G37*
G04 #@! TD.AperFunction*
G04 #@! TD*
G04 #@! TO.P,C2,2*
G04 #@! TO.N,GND*
G04 #@! TA.AperFunction,SMDPad,CuDef*
G36*
G01*
X16975000Y-85950000D02*
X16975000Y-86900000D01*
G75*
G02*
X16725000Y-87150000I-250000J0D01*
G01*
X16225000Y-87150000D01*
G75*
G02*
X15975000Y-86900000I0J250000D01*
G01*
X15975000Y-85950000D01*
G75*
G02*
X16225000Y-85700000I250000J0D01*
G01*
X16725000Y-85700000D01*
G75*
G02*
X16975000Y-85950000I0J-250000D01*
G01*
G37*
G04 #@! TD.AperFunction*
G04 #@! TO.P,C2,1*
G04 #@! TO.N,+12V*
G04 #@! TA.AperFunction,SMDPad,CuDef*
G36*
G01*
X18875000Y-85950000D02*
X18875000Y-86900000D01*
G75*
G02*
X18625000Y-87150000I-250000J0D01*
G01*
X18125000Y-87150000D01*
G75*
G02*
X17875000Y-86900000I0J250000D01*
G01*
X17875000Y-85950000D01*
G75*
G02*
X18125000Y-85700000I250000J0D01*
G01*
X18625000Y-85700000D01*
G75*
G02*
X18875000Y-85950000I0J-250000D01*
G01*
G37*
G04 #@! TD.AperFunction*
G04 #@! TD*
D11*
G04 #@! TO.P,J6,T*
G04 #@! TO.N,Net-(J6-PadT)*
X5080000Y-89535000D03*
G04 #@! TO.P,J6,TN*
G04 #@! TO.N,N/C*
X13380000Y-89535000D03*
G04 #@! TO.P,J6,S*
G04 #@! TO.N,GND*
X16480000Y-89535000D03*
G04 #@! TD*
D12*
G04 #@! TO.P,J4,T*
G04 #@! TO.N,Net-(J4-PadT)*
X14762500Y-83025000D03*
G04 #@! TO.P,J4,TN*
G04 #@! TO.N,Net-(J4-PadTN)*
X14762500Y-74725000D03*
G04 #@! TO.P,J4,S*
G04 #@! TO.N,GND*
X14762500Y-71625000D03*
G04 #@! TD*
G04 #@! TO.P,J3,T*
G04 #@! TO.N,Net-(J3-PadT)*
X5237500Y-83025000D03*
G04 #@! TO.P,J3,TN*
G04 #@! TO.N,GND*
X5237500Y-74725000D03*
G04 #@! TO.P,J3,S*
X5237500Y-71625000D03*
G04 #@! TD*
G04 #@! TO.P,J2,T*
G04 #@! TO.N,Net-(J2-PadT)*
X14762500Y-58580000D03*
G04 #@! TO.P,J2,TN*
G04 #@! TO.N,GND*
X14762500Y-66880000D03*
G04 #@! TO.P,J2,S*
X14762500Y-69980000D03*
G04 #@! TD*
G04 #@! TO.P,J1,T*
G04 #@! TO.N,Net-(J1-PadT)*
X5237500Y-58580000D03*
G04 #@! TO.P,J1,TN*
G04 #@! TO.N,GND*
X5237500Y-66880000D03*
G04 #@! TO.P,J1,S*
X5237500Y-69980000D03*
G04 #@! TD*
G04 #@! TO.P,IC1,8*
G04 #@! TO.N,+12V*
G04 #@! TA.AperFunction,SMDPad,CuDef*
G36*
G01*
X11500000Y-81430000D02*
X11500000Y-81130000D01*
G75*
G02*
X11650000Y-80980000I150000J0D01*
G01*
X13300000Y-80980000D01*
G75*
G02*
X13450000Y-81130000I0J-150000D01*
G01*
X13450000Y-81430000D01*
G75*
G02*
X13300000Y-81580000I-150000J0D01*
G01*
X11650000Y-81580000D01*
G75*
G02*
X11500000Y-81430000I0J150000D01*
G01*
G37*
G04 #@! TD.AperFunction*
G04 #@! TO.P,IC1,7*
G04 #@! TO.N,Net-(IC1-Pad7)*
G04 #@! TA.AperFunction,SMDPad,CuDef*
G36*
G01*
X11500000Y-80160000D02*
X11500000Y-79860000D01*
G75*
G02*
X11650000Y-79710000I150000J0D01*
G01*
X13300000Y-79710000D01*
G75*
G02*
X13450000Y-79860000I0J-150000D01*
G01*
X13450000Y-80160000D01*
G75*
G02*
X13300000Y-80310000I-150000J0D01*
G01*
X11650000Y-80310000D01*
G75*
G02*
X11500000Y-80160000I0J150000D01*
G01*
G37*
G04 #@! TD.AperFunction*
G04 #@! TO.P,IC1,6*
G04 #@! TO.N,Sum-*
G04 #@! TA.AperFunction,SMDPad,CuDef*
G36*
G01*
X11500000Y-78890000D02*
X11500000Y-78590000D01*
G75*
G02*
X11650000Y-78440000I150000J0D01*
G01*
X13300000Y-78440000D01*
G75*
G02*
X13450000Y-78590000I0J-150000D01*
G01*
X13450000Y-78890000D01*
G75*
G02*
X13300000Y-79040000I-150000J0D01*
G01*
X11650000Y-79040000D01*
G75*
G02*
X11500000Y-78890000I0J150000D01*
G01*
G37*
G04 #@! TD.AperFunction*
G04 #@! TO.P,IC1,5*
G04 #@! TO.N,GND*
G04 #@! TA.AperFunction,SMDPad,CuDef*
G36*
G01*
X11500000Y-77620000D02*
X11500000Y-77320000D01*
G75*
G02*
X11650000Y-77170000I150000J0D01*
G01*
X13300000Y-77170000D01*
G75*
G02*
X13450000Y-77320000I0J-150000D01*
G01*
X13450000Y-77620000D01*
G75*
G02*
X13300000Y-77770000I-150000J0D01*
G01*
X11650000Y-77770000D01*
G75*
G02*
X11500000Y-77620000I0J150000D01*
G01*
G37*
G04 #@! TD.AperFunction*
G04 #@! TO.P,IC1,4*
G04 #@! TO.N,-12V*
G04 #@! TA.AperFunction,SMDPad,CuDef*
G36*
G01*
X6550000Y-77620000D02*
X6550000Y-77320000D01*
G75*
G02*
X6700000Y-77170000I150000J0D01*
G01*
X8350000Y-77170000D01*
G75*
G02*
X8500000Y-77320000I0J-150000D01*
G01*
X8500000Y-77620000D01*
G75*
G02*
X8350000Y-77770000I-150000J0D01*
G01*
X6700000Y-77770000D01*
G75*
G02*
X6550000Y-77620000I0J150000D01*
G01*
G37*
G04 #@! TD.AperFunction*
G04 #@! TO.P,IC1,3*
G04 #@! TO.N,GND*
G04 #@! TA.AperFunction,SMDPad,CuDef*
G36*
G01*
X6550000Y-78890000D02*
X6550000Y-78590000D01*
G75*
G02*
X6700000Y-78440000I150000J0D01*
G01*
X8350000Y-78440000D01*
G75*
G02*
X8500000Y-78590000I0J-150000D01*
G01*
X8500000Y-78890000D01*
G75*
G02*
X8350000Y-79040000I-150000J0D01*
G01*
X6700000Y-79040000D01*
G75*
G02*
X6550000Y-78890000I0J150000D01*
G01*
G37*
G04 #@! TD.AperFunction*
G04 #@! TO.P,IC1,2*
G04 #@! TO.N,Sum+*
G04 #@! TA.AperFunction,SMDPad,CuDef*
G36*
G01*
X6550000Y-80160000D02*
X6550000Y-79860000D01*
G75*
G02*
X6700000Y-79710000I150000J0D01*
G01*
X8350000Y-79710000D01*
G75*
G02*
X8500000Y-79860000I0J-150000D01*
G01*
X8500000Y-80160000D01*
G75*
G02*
X8350000Y-80310000I-150000J0D01*
G01*
X6700000Y-80310000D01*
G75*
G02*
X6550000Y-80160000I0J150000D01*
G01*
G37*
G04 #@! TD.AperFunction*
G04 #@! TO.P,IC1,1*
G04 #@! TO.N,Net-(IC1-Pad1)*
G04 #@! TA.AperFunction,SMDPad,CuDef*
G36*
G01*
X6550000Y-81430000D02*
X6550000Y-81130000D01*
G75*
G02*
X6700000Y-80980000I150000J0D01*
G01*
X8350000Y-80980000D01*
G75*
G02*
X8500000Y-81130000I0J-150000D01*
G01*
X8500000Y-81430000D01*
G75*
G02*
X8350000Y-81580000I-150000J0D01*
G01*
X6700000Y-81580000D01*
G75*
G02*
X6550000Y-81430000I0J150000D01*
G01*
G37*
G04 #@! TD.AperFunction*
G04 #@! TD*
G04 #@! TO.P,R12,2*
G04 #@! TO.N,Net-(IC1-Pad7)*
G04 #@! TA.AperFunction,SMDPad,CuDef*
G36*
G01*
X10400000Y-86810002D02*
X10400000Y-85909998D01*
G75*
G02*
X10649998Y-85660000I249998J0D01*
G01*
X11175002Y-85660000D01*
G75*
G02*
X11425000Y-85909998I0J-249998D01*
G01*
X11425000Y-86810002D01*
G75*
G02*
X11175002Y-87060000I-249998J0D01*
G01*
X10649998Y-87060000D01*
G75*
G02*
X10400000Y-86810002I0J249998D01*
G01*
G37*
G04 #@! TD.AperFunction*
G04 #@! TO.P,R12,1*
G04 #@! TO.N,Net-(J6-PadT)*
G04 #@! TA.AperFunction,SMDPad,CuDef*
G36*
G01*
X8575000Y-86810002D02*
X8575000Y-85909998D01*
G75*
G02*
X8824998Y-85660000I249998J0D01*
G01*
X9350002Y-85660000D01*
G75*
G02*
X9600000Y-85909998I0J-249998D01*
G01*
X9600000Y-86810002D01*
G75*
G02*
X9350002Y-87060000I-249998J0D01*
G01*
X8824998Y-87060000D01*
G75*
G02*
X8575000Y-86810002I0J249998D01*
G01*
G37*
G04 #@! TD.AperFunction*
G04 #@! TD*
G04 #@! TO.P,R11,2*
G04 #@! TO.N,Sum-*
G04 #@! TA.AperFunction,SMDPad,CuDef*
G36*
G01*
X16165002Y-78975000D02*
X15264998Y-78975000D01*
G75*
G02*
X15015000Y-78725002I0J249998D01*
G01*
X15015000Y-78199998D01*
G75*
G02*
X15264998Y-77950000I249998J0D01*
G01*
X16165002Y-77950000D01*
G75*
G02*
X16415000Y-78199998I0J-249998D01*
G01*
X16415000Y-78725002D01*
G75*
G02*
X16165002Y-78975000I-249998J0D01*
G01*
G37*
G04 #@! TD.AperFunction*
G04 #@! TO.P,R11,1*
G04 #@! TO.N,Net-(IC1-Pad7)*
G04 #@! TA.AperFunction,SMDPad,CuDef*
G36*
G01*
X16165002Y-80800000D02*
X15264998Y-80800000D01*
G75*
G02*
X15015000Y-80550002I0J249998D01*
G01*
X15015000Y-80024998D01*
G75*
G02*
X15264998Y-79775000I249998J0D01*
G01*
X16165002Y-79775000D01*
G75*
G02*
X16415000Y-80024998I0J-249998D01*
G01*
X16415000Y-80550002D01*
G75*
G02*
X16165002Y-80800000I-249998J0D01*
G01*
G37*
G04 #@! TD.AperFunction*
G04 #@! TD*
G04 #@! TO.P,R10,2*
G04 #@! TO.N,Net-(IC1-Pad1)*
G04 #@! TA.AperFunction,SMDPad,CuDef*
G36*
G01*
X9322500Y-74479998D02*
X9322500Y-75380002D01*
G75*
G02*
X9072502Y-75630000I-249998J0D01*
G01*
X8547498Y-75630000D01*
G75*
G02*
X8297500Y-75380002I0J249998D01*
G01*
X8297500Y-74479998D01*
G75*
G02*
X8547498Y-74230000I249998J0D01*
G01*
X9072502Y-74230000D01*
G75*
G02*
X9322500Y-74479998I0J-249998D01*
G01*
G37*
G04 #@! TD.AperFunction*
G04 #@! TO.P,R10,1*
G04 #@! TO.N,Sum-*
G04 #@! TA.AperFunction,SMDPad,CuDef*
G36*
G01*
X11147500Y-74479998D02*
X11147500Y-75380002D01*
G75*
G02*
X10897502Y-75630000I-249998J0D01*
G01*
X10372498Y-75630000D01*
G75*
G02*
X10122500Y-75380002I0J249998D01*
G01*
X10122500Y-74479998D01*
G75*
G02*
X10372498Y-74230000I249998J0D01*
G01*
X10897502Y-74230000D01*
G75*
G02*
X11147500Y-74479998I0J-249998D01*
G01*
G37*
G04 #@! TD.AperFunction*
G04 #@! TD*
G04 #@! TO.P,R9,2*
G04 #@! TO.N,Sum+*
G04 #@! TA.AperFunction,SMDPad,CuDef*
G36*
G01*
X4788500Y-80460002D02*
X4788500Y-79559998D01*
G75*
G02*
X5038498Y-79310000I249998J0D01*
G01*
X5563502Y-79310000D01*
G75*
G02*
X5813500Y-79559998I0J-249998D01*
G01*
X5813500Y-80460002D01*
G75*
G02*
X5563502Y-80710000I-249998J0D01*
G01*
X5038498Y-80710000D01*
G75*
G02*
X4788500Y-80460002I0J249998D01*
G01*
G37*
G04 #@! TD.AperFunction*
G04 #@! TO.P,R9,1*
G04 #@! TO.N,Net-(IC1-Pad1)*
G04 #@! TA.AperFunction,SMDPad,CuDef*
G36*
G01*
X2963500Y-80460002D02*
X2963500Y-79559998D01*
G75*
G02*
X3213498Y-79310000I249998J0D01*
G01*
X3738502Y-79310000D01*
G75*
G02*
X3988500Y-79559998I0J-249998D01*
G01*
X3988500Y-80460002D01*
G75*
G02*
X3738502Y-80710000I-249998J0D01*
G01*
X3213498Y-80710000D01*
G75*
G02*
X2963500Y-80460002I0J249998D01*
G01*
G37*
G04 #@! TD.AperFunction*
G04 #@! TD*
G04 #@! TO.P,R8,2*
G04 #@! TO.N,Net-(J4-PadT)*
G04 #@! TA.AperFunction,SMDPad,CuDef*
G36*
G01*
X9549998Y-58820000D02*
X10450002Y-58820000D01*
G75*
G02*
X10700000Y-59069998I0J-249998D01*
G01*
X10700000Y-59595002D01*
G75*
G02*
X10450002Y-59845000I-249998J0D01*
G01*
X9549998Y-59845000D01*
G75*
G02*
X9300000Y-59595002I0J249998D01*
G01*
X9300000Y-59069998D01*
G75*
G02*
X9549998Y-58820000I249998J0D01*
G01*
G37*
G04 #@! TD.AperFunction*
G04 #@! TO.P,R8,1*
G04 #@! TO.N,Net-(P4-Pad2)*
G04 #@! TA.AperFunction,SMDPad,CuDef*
G36*
G01*
X9549998Y-56995000D02*
X10450002Y-56995000D01*
G75*
G02*
X10700000Y-57244998I0J-249998D01*
G01*
X10700000Y-57770002D01*
G75*
G02*
X10450002Y-58020000I-249998J0D01*
G01*
X9549998Y-58020000D01*
G75*
G02*
X9300000Y-57770002I0J249998D01*
G01*
X9300000Y-57244998D01*
G75*
G02*
X9549998Y-56995000I249998J0D01*
G01*
G37*
G04 #@! TD.AperFunction*
G04 #@! TD*
G04 #@! TO.P,R7,2*
G04 #@! TO.N,Net-(J3-PadT)*
G04 #@! TA.AperFunction,SMDPad,CuDef*
G36*
G01*
X9549998Y-45127500D02*
X10450002Y-45127500D01*
G75*
G02*
X10700000Y-45377498I0J-249998D01*
G01*
X10700000Y-45902502D01*
G75*
G02*
X10450002Y-46152500I-249998J0D01*
G01*
X9549998Y-46152500D01*
G75*
G02*
X9300000Y-45902502I0J249998D01*
G01*
X9300000Y-45377498D01*
G75*
G02*
X9549998Y-45127500I249998J0D01*
G01*
G37*
G04 #@! TD.AperFunction*
G04 #@! TO.P,R7,1*
G04 #@! TO.N,Net-(P3-Pad2)*
G04 #@! TA.AperFunction,SMDPad,CuDef*
G36*
G01*
X9549998Y-43302500D02*
X10450002Y-43302500D01*
G75*
G02*
X10700000Y-43552498I0J-249998D01*
G01*
X10700000Y-44077502D01*
G75*
G02*
X10450002Y-44327500I-249998J0D01*
G01*
X9549998Y-44327500D01*
G75*
G02*
X9300000Y-44077502I0J249998D01*
G01*
X9300000Y-43552498D01*
G75*
G02*
X9549998Y-43302500I249998J0D01*
G01*
G37*
G04 #@! TD.AperFunction*
G04 #@! TD*
G04 #@! TO.P,R6,2*
G04 #@! TO.N,Net-(J2-PadT)*
G04 #@! TA.AperFunction,SMDPad,CuDef*
G36*
G01*
X9549998Y-31157500D02*
X10450002Y-31157500D01*
G75*
G02*
X10700000Y-31407498I0J-249998D01*
G01*
X10700000Y-31932502D01*
G75*
G02*
X10450002Y-32182500I-249998J0D01*
G01*
X9549998Y-32182500D01*
G75*
G02*
X9300000Y-31932502I0J249998D01*
G01*
X9300000Y-31407498D01*
G75*
G02*
X9549998Y-31157500I249998J0D01*
G01*
G37*
G04 #@! TD.AperFunction*
G04 #@! TO.P,R6,1*
G04 #@! TO.N,Net-(P2-Pad2)*
G04 #@! TA.AperFunction,SMDPad,CuDef*
G36*
G01*
X9549998Y-29332500D02*
X10450002Y-29332500D01*
G75*
G02*
X10700000Y-29582498I0J-249998D01*
G01*
X10700000Y-30107502D01*
G75*
G02*
X10450002Y-30357500I-249998J0D01*
G01*
X9549998Y-30357500D01*
G75*
G02*
X9300000Y-30107502I0J249998D01*
G01*
X9300000Y-29582498D01*
G75*
G02*
X9549998Y-29332500I249998J0D01*
G01*
G37*
G04 #@! TD.AperFunction*
G04 #@! TD*
G04 #@! TO.P,R5,2*
G04 #@! TO.N,Net-(J1-PadT)*
G04 #@! TA.AperFunction,SMDPad,CuDef*
G36*
G01*
X9549998Y-17267500D02*
X10450002Y-17267500D01*
G75*
G02*
X10700000Y-17517498I0J-249998D01*
G01*
X10700000Y-18042502D01*
G75*
G02*
X10450002Y-18292500I-249998J0D01*
G01*
X9549998Y-18292500D01*
G75*
G02*
X9300000Y-18042502I0J249998D01*
G01*
X9300000Y-17517498D01*
G75*
G02*
X9549998Y-17267500I249998J0D01*
G01*
G37*
G04 #@! TD.AperFunction*
G04 #@! TO.P,R5,1*
G04 #@! TO.N,Net-(P1-Pad2)*
G04 #@! TA.AperFunction,SMDPad,CuDef*
G36*
G01*
X9549998Y-15442500D02*
X10450002Y-15442500D01*
G75*
G02*
X10700000Y-15692498I0J-249998D01*
G01*
X10700000Y-16217502D01*
G75*
G02*
X10450002Y-16467500I-249998J0D01*
G01*
X9549998Y-16467500D01*
G75*
G02*
X9300000Y-16217502I0J249998D01*
G01*
X9300000Y-15692498D01*
G75*
G02*
X9549998Y-15442500I249998J0D01*
G01*
G37*
G04 #@! TD.AperFunction*
G04 #@! TD*
G04 #@! TO.P,R4,2*
G04 #@! TO.N,Net-(J4-PadTN)*
G04 #@! TA.AperFunction,SMDPad,CuDef*
G36*
G01*
X17169998Y-73702500D02*
X18070002Y-73702500D01*
G75*
G02*
X18320000Y-73952498I0J-249998D01*
G01*
X18320000Y-74477502D01*
G75*
G02*
X18070002Y-74727500I-249998J0D01*
G01*
X17169998Y-74727500D01*
G75*
G02*
X16920000Y-74477502I0J249998D01*
G01*
X16920000Y-73952498D01*
G75*
G02*
X17169998Y-73702500I249998J0D01*
G01*
G37*
G04 #@! TD.AperFunction*
G04 #@! TO.P,R4,1*
G04 #@! TO.N,+12V*
G04 #@! TA.AperFunction,SMDPad,CuDef*
G36*
G01*
X17169998Y-71877500D02*
X18070002Y-71877500D01*
G75*
G02*
X18320000Y-72127498I0J-249998D01*
G01*
X18320000Y-72652502D01*
G75*
G02*
X18070002Y-72902500I-249998J0D01*
G01*
X17169998Y-72902500D01*
G75*
G02*
X16920000Y-72652502I0J249998D01*
G01*
X16920000Y-72127498D01*
G75*
G02*
X17169998Y-71877500I249998J0D01*
G01*
G37*
G04 #@! TD.AperFunction*
G04 #@! TD*
D13*
G04 #@! TO.P,P4,*
G04 #@! TO.N,*
X5200000Y-47745000D03*
X14800000Y-47745000D03*
D14*
G04 #@! TO.P,P4,3*
G04 #@! TO.N,Sum+*
X12500000Y-55245000D03*
G04 #@! TO.P,P4,2*
G04 #@! TO.N,Net-(P4-Pad2)*
X10000000Y-55245000D03*
D15*
G04 #@! TO.P,P4,1*
G04 #@! TO.N,Sum-*
X7500000Y-55245000D03*
G04 #@! TD*
D13*
G04 #@! TO.P,P3,*
G04 #@! TO.N,*
X5200000Y-33775000D03*
X14800000Y-33775000D03*
D14*
G04 #@! TO.P,P3,3*
G04 #@! TO.N,Sum+*
X12500000Y-41275000D03*
G04 #@! TO.P,P3,2*
G04 #@! TO.N,Net-(P3-Pad2)*
X10000000Y-41275000D03*
D15*
G04 #@! TO.P,P3,1*
G04 #@! TO.N,Sum-*
X7500000Y-41275000D03*
G04 #@! TD*
D13*
G04 #@! TO.P,P2,*
G04 #@! TO.N,*
X5200000Y-19805000D03*
X14800000Y-19805000D03*
D14*
G04 #@! TO.P,P2,3*
G04 #@! TO.N,Sum+*
X12500000Y-27305000D03*
G04 #@! TO.P,P2,2*
G04 #@! TO.N,Net-(P2-Pad2)*
X10000000Y-27305000D03*
D15*
G04 #@! TO.P,P2,1*
G04 #@! TO.N,Sum-*
X7500000Y-27305000D03*
G04 #@! TD*
D13*
G04 #@! TO.P,P1,*
G04 #@! TO.N,*
X5200000Y-5835000D03*
X14800000Y-5835000D03*
D14*
G04 #@! TO.P,P1,3*
G04 #@! TO.N,Sum+*
X12500000Y-13335000D03*
G04 #@! TO.P,P1,2*
G04 #@! TO.N,Net-(P1-Pad2)*
X10000000Y-13335000D03*
D15*
G04 #@! TO.P,P1,1*
G04 #@! TO.N,Sum-*
X7500000Y-13335000D03*
G04 #@! TD*
D16*
G04 #@! TO.P,J5,10*
G04 #@! TO.N,-12VA*
X4920000Y-96520000D03*
G04 #@! TO.P,J5,9*
X4920000Y-99060000D03*
G04 #@! TO.P,J5,8*
G04 #@! TO.N,GND*
X7460000Y-96520000D03*
G04 #@! TO.P,J5,7*
X7460000Y-99060000D03*
G04 #@! TO.P,J5,6*
X10000000Y-96520000D03*
G04 #@! TO.P,J5,5*
X10000000Y-99060000D03*
G04 #@! TO.P,J5,4*
X12540000Y-96520000D03*
G04 #@! TO.P,J5,3*
X12540000Y-99060000D03*
G04 #@! TO.P,J5,2*
G04 #@! TO.N,+12VA*
X15080000Y-96520000D03*
D17*
G04 #@! TO.P,J5,1*
X15080000Y-99060000D03*
G04 #@! TD*
G04 #@! TO.P,C1,2*
G04 #@! TO.N,-12V*
G04 #@! TA.AperFunction,SMDPad,CuDef*
G36*
G01*
X9550000Y-83345000D02*
X9550000Y-84295000D01*
G75*
G02*
X9300000Y-84545000I-250000J0D01*
G01*
X8800000Y-84545000D01*
G75*
G02*
X8550000Y-84295000I0J250000D01*
G01*
X8550000Y-83345000D01*
G75*
G02*
X8800000Y-83095000I250000J0D01*
G01*
X9300000Y-83095000D01*
G75*
G02*
X9550000Y-83345000I0J-250000D01*
G01*
G37*
G04 #@! TD.AperFunction*
G04 #@! TO.P,C1,1*
G04 #@! TO.N,+12V*
G04 #@! TA.AperFunction,SMDPad,CuDef*
G36*
G01*
X11450000Y-83345000D02*
X11450000Y-84295000D01*
G75*
G02*
X11200000Y-84545000I-250000J0D01*
G01*
X10700000Y-84545000D01*
G75*
G02*
X10450000Y-84295000I0J250000D01*
G01*
X10450000Y-83345000D01*
G75*
G02*
X10700000Y-83095000I250000J0D01*
G01*
X11200000Y-83095000D01*
G75*
G02*
X11450000Y-83345000I0J-250000D01*
G01*
G37*
G04 #@! TD.AperFunction*
G04 #@! TD*
D18*
G04 #@! TO.N,Net-(J1-PadT)*
X2380000Y-22860000D03*
G04 #@! TO.N,GND*
X14191000Y-77470000D03*
X12032000Y-85090000D03*
X10000000Y-52525000D03*
X10000000Y-38675000D03*
X10000000Y-24575000D03*
G04 #@! TO.N,Net-(J2-PadT)*
X17620000Y-36830000D03*
G04 #@! TO.N,Net-(J3-PadT)*
X1110000Y-50800000D03*
G04 #@! TO.N,Net-(J4-PadT)*
X18890000Y-60960000D03*
G04 #@! TO.N,Sum-*
X7460000Y-72390000D03*
G04 #@! TO.N,Sum+*
X4539000Y-77470000D03*
G04 #@! TO.N,Net-(IC1-Pad7)*
X17493000Y-79375000D03*
X12540000Y-86360000D03*
G04 #@! TO.N,Net-(IC1-Pad1)*
X8730000Y-76454000D03*
X3476000Y-76454000D03*
G04 #@! TD*
D19*
G04 #@! TO.N,-12V*
X9050000Y-83820000D02*
X9050000Y-77663000D01*
X8857000Y-77470000D02*
X7525000Y-77470000D01*
X9050000Y-77663000D02*
X8857000Y-77470000D01*
X1625000Y-93050000D02*
X1625000Y-86425000D01*
X1625000Y-86425000D02*
X1625000Y-85050000D01*
X1625000Y-85050000D02*
X2100000Y-84575000D01*
X8295000Y-84575000D02*
X9050000Y-83820000D01*
X2100000Y-84575000D02*
X8295000Y-84575000D01*
G04 #@! TO.N,+12V*
X10950000Y-83820000D02*
X10950000Y-81473000D01*
X11143000Y-81280000D02*
X12475000Y-81280000D01*
X10950000Y-81473000D02*
X11143000Y-81280000D01*
X12475000Y-81280000D02*
X18255000Y-81280000D01*
X18255000Y-81280000D02*
X18890000Y-80645000D01*
X18890000Y-80645000D02*
X18890000Y-72644000D01*
X18636000Y-72390000D02*
X17620000Y-72390000D01*
X18890000Y-72644000D02*
X18636000Y-72390000D01*
X18375000Y-93050000D02*
X18375000Y-86425000D01*
X18375000Y-81400000D02*
X18255000Y-81280000D01*
X18375000Y-86425000D02*
X18375000Y-81400000D01*
G04 #@! TO.N,Net-(J1-PadT)*
X2380000Y-22860000D02*
X10000000Y-22860000D01*
X10000000Y-22860000D02*
X10000000Y-17780000D01*
G04 #@! TO.N,GND*
X12475000Y-77470000D02*
X14191000Y-77470000D01*
X14191000Y-77470000D02*
X14191000Y-77470000D01*
G04 #@! TO.N,Net-(J2-PadT)*
X17620000Y-36830000D02*
X10000000Y-36830000D01*
X10000000Y-36830000D02*
X10000000Y-31670000D01*
G04 #@! TO.N,Net-(J3-PadT)*
X1110000Y-50800000D02*
X10000000Y-50800000D01*
X10000000Y-50800000D02*
X10000000Y-45640000D01*
G04 #@! TO.N,Net-(J4-PadT)*
X18890000Y-60960000D02*
X10000000Y-60960000D01*
X10000000Y-60960000D02*
X10000000Y-59332500D01*
G04 #@! TO.N,Net-(J4-PadTN)*
X17110000Y-74725000D02*
X17620000Y-74215000D01*
X14762500Y-74725000D02*
X17110000Y-74725000D01*
G04 #@! TO.N,Net-(J6-PadT)*
X9087500Y-86360000D02*
X9087500Y-89050500D01*
X8603000Y-89535000D02*
X5080000Y-89535000D01*
X9087500Y-89050500D02*
X8603000Y-89535000D01*
G04 #@! TO.N,Sum-*
X15437500Y-78740000D02*
X15715000Y-78462500D01*
X12475000Y-78740000D02*
X15437500Y-78740000D01*
X10635000Y-74930000D02*
X10635000Y-78486000D01*
X10889000Y-78740000D02*
X12475000Y-78740000D01*
X10635000Y-78486000D02*
X10889000Y-78740000D01*
X10635000Y-74930000D02*
X10635000Y-72898000D01*
X10635000Y-72898000D02*
X10127000Y-72390000D01*
X10127000Y-72390000D02*
X7460000Y-72390000D01*
X7460000Y-72390000D02*
X7460000Y-72390000D01*
G04 #@! TO.N,Net-(P1-Pad2)*
X10000000Y-13335000D02*
X10000000Y-15955000D01*
G04 #@! TO.N,Sum+*
X7525000Y-80010000D02*
X5301000Y-80010000D01*
X5301000Y-80010000D02*
X5301000Y-79375000D01*
X4539000Y-78613000D02*
X4539000Y-77470000D01*
X5301000Y-79375000D02*
X4539000Y-78613000D01*
G04 #@! TO.N,Net-(P2-Pad2)*
X10000000Y-27305000D02*
X10000000Y-29845000D01*
G04 #@! TO.N,Net-(P3-Pad2)*
X10000000Y-41275000D02*
X10000000Y-43815000D01*
G04 #@! TO.N,Net-(P4-Pad2)*
X10000000Y-55245000D02*
X10000000Y-57507500D01*
G04 #@! TO.N,Net-(IC1-Pad7)*
X15437500Y-80010000D02*
X15715000Y-80287500D01*
X12475000Y-80010000D02*
X15437500Y-80010000D01*
X15715000Y-80287500D02*
X16580500Y-80287500D01*
X16580500Y-80287500D02*
X17493000Y-79375000D01*
X17493000Y-79375000D02*
X17493000Y-79375000D01*
X12540000Y-86360000D02*
X10912500Y-86360000D01*
G04 #@! TO.N,Net-(IC1-Pad1)*
X7525000Y-81280000D02*
X3650000Y-81280000D01*
X3476000Y-81106000D02*
X3476000Y-80010000D01*
X3650000Y-81280000D02*
X3476000Y-81106000D01*
X3476000Y-80471000D02*
X3476000Y-76454000D01*
X8730000Y-76454000D02*
X8730000Y-76454000D01*
X8730000Y-75010000D02*
X8810000Y-74930000D01*
X8730000Y-76454000D02*
X8730000Y-75010000D01*
X3476000Y-76454000D02*
X3476000Y-76454000D01*
G04 #@! TO.N,-12VA*
X4920000Y-99060000D02*
X4920000Y-96520000D01*
X4920000Y-93055000D02*
X4925000Y-93050000D01*
X4920000Y-96520000D02*
X4920000Y-93055000D01*
G04 #@! TO.N,+12VA*
X15080000Y-99060000D02*
X15080000Y-96520000D01*
X15080000Y-93055000D02*
X15075000Y-93050000D01*
X15080000Y-96520000D02*
X15080000Y-93055000D01*
G04 #@! TD*
D20*
G04 #@! TO.N,GND*
X17615000Y-85225229D02*
X17497038Y-85322038D01*
X17491658Y-85328594D01*
X17426185Y-85248815D01*
X17329494Y-85169463D01*
X17219180Y-85110498D01*
X17099482Y-85074188D01*
X16975000Y-85061928D01*
X16760750Y-85065000D01*
X16602000Y-85223750D01*
X16602000Y-86298000D01*
X16622000Y-86298000D01*
X16622000Y-86552000D01*
X16602000Y-86552000D01*
X16602000Y-87626250D01*
X16760750Y-87785000D01*
X16975000Y-87788072D01*
X17099482Y-87775812D01*
X17219180Y-87739502D01*
X17329494Y-87680537D01*
X17426185Y-87601185D01*
X17491658Y-87521406D01*
X17497038Y-87527962D01*
X17615001Y-87624771D01*
X17615001Y-88420559D01*
X17477882Y-88215495D01*
X17298830Y-88036564D01*
X17088311Y-87896003D01*
X16854415Y-87799213D01*
X16805471Y-87791901D01*
X16607000Y-87915933D01*
X16607000Y-89408000D01*
X16627000Y-89408000D01*
X16627000Y-89662000D01*
X16607000Y-89662000D01*
X16607000Y-91154067D01*
X16805471Y-91278099D01*
X16854415Y-91270787D01*
X17088311Y-91173997D01*
X17298830Y-91033436D01*
X17477882Y-90854505D01*
X17615000Y-90649442D01*
X17615000Y-91895680D01*
X17570506Y-91919463D01*
X17473815Y-91998815D01*
X17394463Y-92095506D01*
X17335498Y-92205820D01*
X17299188Y-92325518D01*
X17286928Y-92450000D01*
X17286928Y-93650000D01*
X17299188Y-93774482D01*
X17335498Y-93894180D01*
X17394463Y-94004494D01*
X17473815Y-94101185D01*
X17570506Y-94180537D01*
X17680820Y-94239502D01*
X17800518Y-94275812D01*
X17925000Y-94288072D01*
X18825000Y-94288072D01*
X18949482Y-94275812D01*
X19069180Y-94239502D01*
X19179494Y-94180537D01*
X19276185Y-94101185D01*
X19340001Y-94023425D01*
X19340001Y-100940000D01*
X660000Y-100940000D01*
X660000Y-96373740D01*
X3435000Y-96373740D01*
X3435000Y-96666260D01*
X3492068Y-96953158D01*
X3604010Y-97223411D01*
X3766525Y-97466632D01*
X3973368Y-97673475D01*
X4147760Y-97790000D01*
X3973368Y-97906525D01*
X3766525Y-98113368D01*
X3604010Y-98356589D01*
X3492068Y-98626842D01*
X3435000Y-98913740D01*
X3435000Y-99206260D01*
X3492068Y-99493158D01*
X3604010Y-99763411D01*
X3766525Y-100006632D01*
X3973368Y-100213475D01*
X4216589Y-100375990D01*
X4486842Y-100487932D01*
X4773740Y-100545000D01*
X5066260Y-100545000D01*
X5353158Y-100487932D01*
X5623411Y-100375990D01*
X5866632Y-100213475D01*
X6073475Y-100006632D01*
X6195195Y-99824466D01*
X6264822Y-99941355D01*
X6459731Y-100157588D01*
X6693080Y-100331641D01*
X6955901Y-100456825D01*
X7103110Y-100501476D01*
X7333000Y-100380155D01*
X7333000Y-99187000D01*
X7587000Y-99187000D01*
X7587000Y-100380155D01*
X7816890Y-100501476D01*
X7964099Y-100456825D01*
X8226920Y-100331641D01*
X8460269Y-100157588D01*
X8655178Y-99941355D01*
X8730000Y-99815745D01*
X8804822Y-99941355D01*
X8999731Y-100157588D01*
X9233080Y-100331641D01*
X9495901Y-100456825D01*
X9643110Y-100501476D01*
X9873000Y-100380155D01*
X9873000Y-99187000D01*
X10127000Y-99187000D01*
X10127000Y-100380155D01*
X10356890Y-100501476D01*
X10504099Y-100456825D01*
X10766920Y-100331641D01*
X11000269Y-100157588D01*
X11195178Y-99941355D01*
X11270000Y-99815745D01*
X11344822Y-99941355D01*
X11539731Y-100157588D01*
X11773080Y-100331641D01*
X12035901Y-100456825D01*
X12183110Y-100501476D01*
X12413000Y-100380155D01*
X12413000Y-99187000D01*
X10127000Y-99187000D01*
X9873000Y-99187000D01*
X7587000Y-99187000D01*
X7333000Y-99187000D01*
X7313000Y-99187000D01*
X7313000Y-98933000D01*
X7333000Y-98933000D01*
X7333000Y-96647000D01*
X7587000Y-96647000D01*
X7587000Y-98933000D01*
X9873000Y-98933000D01*
X9873000Y-96647000D01*
X10127000Y-96647000D01*
X10127000Y-98933000D01*
X12413000Y-98933000D01*
X12413000Y-96647000D01*
X10127000Y-96647000D01*
X9873000Y-96647000D01*
X7587000Y-96647000D01*
X7333000Y-96647000D01*
X7313000Y-96647000D01*
X7313000Y-96393000D01*
X7333000Y-96393000D01*
X7333000Y-95199845D01*
X7587000Y-95199845D01*
X7587000Y-96393000D01*
X9873000Y-96393000D01*
X9873000Y-95199845D01*
X10127000Y-95199845D01*
X10127000Y-96393000D01*
X12413000Y-96393000D01*
X12413000Y-95199845D01*
X12667000Y-95199845D01*
X12667000Y-96393000D01*
X12687000Y-96393000D01*
X12687000Y-96647000D01*
X12667000Y-96647000D01*
X12667000Y-98933000D01*
X12687000Y-98933000D01*
X12687000Y-99187000D01*
X12667000Y-99187000D01*
X12667000Y-100380155D01*
X12896890Y-100501476D01*
X13044099Y-100456825D01*
X13306920Y-100331641D01*
X13540269Y-100157588D01*
X13616034Y-100073534D01*
X13640498Y-100154180D01*
X13699463Y-100264494D01*
X13778815Y-100361185D01*
X13875506Y-100440537D01*
X13985820Y-100499502D01*
X14105518Y-100535812D01*
X14230000Y-100548072D01*
X15930000Y-100548072D01*
X16054482Y-100535812D01*
X16174180Y-100499502D01*
X16284494Y-100440537D01*
X16381185Y-100361185D01*
X16460537Y-100264494D01*
X16519502Y-100154180D01*
X16555812Y-100034482D01*
X16568072Y-99910000D01*
X16568072Y-98210000D01*
X16555812Y-98085518D01*
X16519502Y-97965820D01*
X16460537Y-97855506D01*
X16381185Y-97758815D01*
X16284494Y-97679463D01*
X16174180Y-97620498D01*
X16101620Y-97598487D01*
X16233475Y-97466632D01*
X16395990Y-97223411D01*
X16507932Y-96953158D01*
X16565000Y-96666260D01*
X16565000Y-96373740D01*
X16507932Y-96086842D01*
X16395990Y-95816589D01*
X16233475Y-95573368D01*
X16026632Y-95366525D01*
X15840000Y-95241822D01*
X15840000Y-94201647D01*
X15879494Y-94180537D01*
X15976185Y-94101185D01*
X16055537Y-94004494D01*
X16114502Y-93894180D01*
X16150812Y-93774482D01*
X16163072Y-93650000D01*
X16163072Y-92450000D01*
X16150812Y-92325518D01*
X16114502Y-92205820D01*
X16055537Y-92095506D01*
X15976185Y-91998815D01*
X15879494Y-91919463D01*
X15769180Y-91860498D01*
X15649482Y-91824188D01*
X15525000Y-91811928D01*
X14625000Y-91811928D01*
X14500518Y-91824188D01*
X14380820Y-91860498D01*
X14270506Y-91919463D01*
X14173815Y-91998815D01*
X14094463Y-92095506D01*
X14035498Y-92205820D01*
X13999188Y-92325518D01*
X13986928Y-92450000D01*
X13986928Y-93650000D01*
X13999188Y-93774482D01*
X14035498Y-93894180D01*
X14094463Y-94004494D01*
X14173815Y-94101185D01*
X14270506Y-94180537D01*
X14320001Y-94206993D01*
X14320000Y-95241821D01*
X14133368Y-95366525D01*
X13926525Y-95573368D01*
X13804805Y-95755534D01*
X13735178Y-95638645D01*
X13540269Y-95422412D01*
X13306920Y-95248359D01*
X13044099Y-95123175D01*
X12896890Y-95078524D01*
X12667000Y-95199845D01*
X12413000Y-95199845D01*
X12183110Y-95078524D01*
X12035901Y-95123175D01*
X11773080Y-95248359D01*
X11539731Y-95422412D01*
X11344822Y-95638645D01*
X11270000Y-95764255D01*
X11195178Y-95638645D01*
X11000269Y-95422412D01*
X10766920Y-95248359D01*
X10504099Y-95123175D01*
X10356890Y-95078524D01*
X10127000Y-95199845D01*
X9873000Y-95199845D01*
X9643110Y-95078524D01*
X9495901Y-95123175D01*
X9233080Y-95248359D01*
X8999731Y-95422412D01*
X8804822Y-95638645D01*
X8730000Y-95764255D01*
X8655178Y-95638645D01*
X8460269Y-95422412D01*
X8226920Y-95248359D01*
X7964099Y-95123175D01*
X7816890Y-95078524D01*
X7587000Y-95199845D01*
X7333000Y-95199845D01*
X7103110Y-95078524D01*
X6955901Y-95123175D01*
X6693080Y-95248359D01*
X6459731Y-95422412D01*
X6264822Y-95638645D01*
X6195195Y-95755534D01*
X6073475Y-95573368D01*
X5866632Y-95366525D01*
X5680000Y-95241822D01*
X5680000Y-94206993D01*
X5729494Y-94180537D01*
X5826185Y-94101185D01*
X5905537Y-94004494D01*
X5964502Y-93894180D01*
X6000812Y-93774482D01*
X6013072Y-93650000D01*
X6013072Y-92450000D01*
X6000812Y-92325518D01*
X5964502Y-92205820D01*
X5905537Y-92095506D01*
X5826185Y-91998815D01*
X5729494Y-91919463D01*
X5619180Y-91860498D01*
X5499482Y-91824188D01*
X5375000Y-91811928D01*
X4475000Y-91811928D01*
X4350518Y-91824188D01*
X4230820Y-91860498D01*
X4120506Y-91919463D01*
X4023815Y-91998815D01*
X3944463Y-92095506D01*
X3885498Y-92205820D01*
X3849188Y-92325518D01*
X3836928Y-92450000D01*
X3836928Y-93650000D01*
X3849188Y-93774482D01*
X3885498Y-93894180D01*
X3944463Y-94004494D01*
X4023815Y-94101185D01*
X4120506Y-94180537D01*
X4160001Y-94201648D01*
X4160000Y-95241821D01*
X3973368Y-95366525D01*
X3766525Y-95573368D01*
X3604010Y-95816589D01*
X3492068Y-96086842D01*
X3435000Y-96373740D01*
X660000Y-96373740D01*
X660000Y-94023426D01*
X723815Y-94101185D01*
X820506Y-94180537D01*
X930820Y-94239502D01*
X1050518Y-94275812D01*
X1175000Y-94288072D01*
X2075000Y-94288072D01*
X2199482Y-94275812D01*
X2319180Y-94239502D01*
X2429494Y-94180537D01*
X2526185Y-94101185D01*
X2605537Y-94004494D01*
X2664502Y-93894180D01*
X2700812Y-93774482D01*
X2713072Y-93650000D01*
X2713072Y-92450000D01*
X2700812Y-92325518D01*
X2664502Y-92205820D01*
X2605537Y-92095506D01*
X2526185Y-91998815D01*
X2429494Y-91919463D01*
X2385000Y-91895680D01*
X2385000Y-87624770D01*
X2502962Y-87527962D01*
X2508342Y-87521406D01*
X2573815Y-87601185D01*
X2670506Y-87680537D01*
X2780820Y-87739502D01*
X2900518Y-87775812D01*
X3025000Y-87788072D01*
X3239250Y-87785000D01*
X3398000Y-87626250D01*
X3398000Y-86552000D01*
X3652000Y-86552000D01*
X3652000Y-87626250D01*
X3810750Y-87785000D01*
X4025000Y-87788072D01*
X4149482Y-87775812D01*
X4269180Y-87739502D01*
X4379494Y-87680537D01*
X4476185Y-87601185D01*
X4555537Y-87504494D01*
X4614502Y-87394180D01*
X4650812Y-87274482D01*
X4663072Y-87150000D01*
X4660000Y-86710750D01*
X4501250Y-86552000D01*
X3652000Y-86552000D01*
X3398000Y-86552000D01*
X3378000Y-86552000D01*
X3378000Y-86298000D01*
X3398000Y-86298000D01*
X3398000Y-86278000D01*
X3652000Y-86278000D01*
X3652000Y-86298000D01*
X4501250Y-86298000D01*
X4660000Y-86139250D01*
X4663072Y-85700000D01*
X4650812Y-85575518D01*
X4614502Y-85455820D01*
X4555537Y-85345506D01*
X4546915Y-85335000D01*
X8153573Y-85335000D01*
X8086595Y-85416613D01*
X8004528Y-85570148D01*
X7953992Y-85736744D01*
X7936928Y-85909998D01*
X7936928Y-86810002D01*
X7953992Y-86983256D01*
X8004528Y-87149852D01*
X8086595Y-87303387D01*
X8197038Y-87437962D01*
X8327500Y-87545030D01*
X8327501Y-88735698D01*
X8288199Y-88775000D01*
X6343951Y-88775000D01*
X6272929Y-88540873D01*
X6153608Y-88317638D01*
X5993028Y-88121972D01*
X5797361Y-87961392D01*
X5574126Y-87842071D01*
X5331903Y-87768593D01*
X5080000Y-87743783D01*
X4828096Y-87768593D01*
X4585873Y-87842071D01*
X4362638Y-87961392D01*
X4166972Y-88121972D01*
X4006392Y-88317639D01*
X3887071Y-88540874D01*
X3813593Y-88783097D01*
X3795000Y-88971878D01*
X3795000Y-90098123D01*
X3813593Y-90286904D01*
X3887071Y-90529127D01*
X4006392Y-90752362D01*
X4166973Y-90948028D01*
X4362639Y-91108608D01*
X4585874Y-91227929D01*
X4828097Y-91301407D01*
X5080000Y-91326217D01*
X5331904Y-91301407D01*
X5574127Y-91227929D01*
X5797362Y-91108608D01*
X5993028Y-90948028D01*
X6153608Y-90752362D01*
X6272929Y-90529127D01*
X6343951Y-90295000D01*
X8565678Y-90295000D01*
X8603000Y-90298676D01*
X8640322Y-90295000D01*
X8640333Y-90295000D01*
X8751986Y-90284003D01*
X8895247Y-90240546D01*
X9027276Y-90169974D01*
X9143001Y-90075001D01*
X9166803Y-90045998D01*
X9598502Y-89614300D01*
X9627501Y-89590501D01*
X9722474Y-89474776D01*
X9793046Y-89342747D01*
X9836503Y-89199486D01*
X9847500Y-89087833D01*
X9847500Y-89087824D01*
X9851176Y-89050501D01*
X9847500Y-89013178D01*
X9847500Y-88971878D01*
X12095000Y-88971878D01*
X12095000Y-90098123D01*
X12113593Y-90286904D01*
X12187071Y-90529127D01*
X12306392Y-90752362D01*
X12466973Y-90948028D01*
X12662639Y-91108608D01*
X12885874Y-91227929D01*
X13128097Y-91301407D01*
X13380000Y-91326217D01*
X13631904Y-91301407D01*
X13874127Y-91227929D01*
X14097362Y-91108608D01*
X14293028Y-90948028D01*
X14453608Y-90752362D01*
X14572929Y-90529127D01*
X14646407Y-90286904D01*
X14665000Y-90098123D01*
X14665000Y-89662000D01*
X15195000Y-89662000D01*
X15195000Y-90162000D01*
X15244467Y-90410251D01*
X15341415Y-90644081D01*
X15482118Y-90854505D01*
X15661170Y-91033436D01*
X15871689Y-91173997D01*
X16105585Y-91270787D01*
X16154529Y-91278099D01*
X16353000Y-91154067D01*
X16353000Y-89662000D01*
X15195000Y-89662000D01*
X14665000Y-89662000D01*
X14665000Y-88971877D01*
X14658709Y-88908000D01*
X15195000Y-88908000D01*
X15195000Y-89408000D01*
X16353000Y-89408000D01*
X16353000Y-87915933D01*
X16154529Y-87791901D01*
X16105585Y-87799213D01*
X15871689Y-87896003D01*
X15661170Y-88036564D01*
X15482118Y-88215495D01*
X15341415Y-88425919D01*
X15244467Y-88659749D01*
X15195000Y-88908000D01*
X14658709Y-88908000D01*
X14646407Y-88783096D01*
X14572929Y-88540873D01*
X14453608Y-88317638D01*
X14293028Y-88121972D01*
X14097361Y-87961392D01*
X13874126Y-87842071D01*
X13631903Y-87768593D01*
X13380000Y-87743783D01*
X13128096Y-87768593D01*
X12885873Y-87842071D01*
X12662638Y-87961392D01*
X12466972Y-88121972D01*
X12306392Y-88317639D01*
X12187071Y-88540874D01*
X12113593Y-88783097D01*
X12095000Y-88971878D01*
X9847500Y-88971878D01*
X9847500Y-87545030D01*
X9977962Y-87437962D01*
X10000000Y-87411109D01*
X10022038Y-87437962D01*
X10156613Y-87548405D01*
X10310148Y-87630472D01*
X10476744Y-87681008D01*
X10649998Y-87698072D01*
X11175002Y-87698072D01*
X11348256Y-87681008D01*
X11514852Y-87630472D01*
X11668387Y-87548405D01*
X11802962Y-87437962D01*
X11913405Y-87303387D01*
X11959596Y-87216970D01*
X12049744Y-87277205D01*
X12238102Y-87355226D01*
X12438061Y-87395000D01*
X12641939Y-87395000D01*
X12841898Y-87355226D01*
X13030256Y-87277205D01*
X13199774Y-87163937D01*
X13213711Y-87150000D01*
X15336928Y-87150000D01*
X15349188Y-87274482D01*
X15385498Y-87394180D01*
X15444463Y-87504494D01*
X15523815Y-87601185D01*
X15620506Y-87680537D01*
X15730820Y-87739502D01*
X15850518Y-87775812D01*
X15975000Y-87788072D01*
X16189250Y-87785000D01*
X16348000Y-87626250D01*
X16348000Y-86552000D01*
X15498750Y-86552000D01*
X15340000Y-86710750D01*
X15336928Y-87150000D01*
X13213711Y-87150000D01*
X13343937Y-87019774D01*
X13457205Y-86850256D01*
X13535226Y-86661898D01*
X13575000Y-86461939D01*
X13575000Y-86258061D01*
X13535226Y-86058102D01*
X13457205Y-85869744D01*
X13343937Y-85700226D01*
X13343711Y-85700000D01*
X15336928Y-85700000D01*
X15340000Y-86139250D01*
X15498750Y-86298000D01*
X16348000Y-86298000D01*
X16348000Y-85223750D01*
X16189250Y-85065000D01*
X15975000Y-85061928D01*
X15850518Y-85074188D01*
X15730820Y-85110498D01*
X15620506Y-85169463D01*
X15523815Y-85248815D01*
X15444463Y-85345506D01*
X15385498Y-85455820D01*
X15349188Y-85575518D01*
X15336928Y-85700000D01*
X13343711Y-85700000D01*
X13199774Y-85556063D01*
X13030256Y-85442795D01*
X12841898Y-85364774D01*
X12641939Y-85325000D01*
X12438061Y-85325000D01*
X12238102Y-85364774D01*
X12049744Y-85442795D01*
X11959596Y-85503030D01*
X11913405Y-85416613D01*
X11802962Y-85282038D01*
X11668387Y-85171595D01*
X11551620Y-85109181D01*
X11693386Y-85033405D01*
X11827962Y-84922962D01*
X11938405Y-84788386D01*
X12020472Y-84634850D01*
X12071008Y-84468254D01*
X12088072Y-84295000D01*
X12088072Y-83345000D01*
X12071008Y-83171746D01*
X12020472Y-83005150D01*
X11938405Y-82851614D01*
X11827962Y-82717038D01*
X11710000Y-82620230D01*
X11710000Y-82218072D01*
X13262397Y-82218072D01*
X13188892Y-82307638D01*
X13069571Y-82530873D01*
X12996093Y-82773096D01*
X12971283Y-83025000D01*
X12996093Y-83276904D01*
X13069571Y-83519127D01*
X13188892Y-83742362D01*
X13349472Y-83938028D01*
X13545138Y-84098608D01*
X13768373Y-84217929D01*
X14010596Y-84291407D01*
X14199377Y-84310000D01*
X15325623Y-84310000D01*
X15514404Y-84291407D01*
X15756627Y-84217929D01*
X15979862Y-84098608D01*
X16175528Y-83938028D01*
X16336108Y-83742362D01*
X16455429Y-83519127D01*
X16528907Y-83276904D01*
X16553717Y-83025000D01*
X16528907Y-82773096D01*
X16455429Y-82530873D01*
X16336108Y-82307638D01*
X16175528Y-82111972D01*
X16087830Y-82040000D01*
X17615001Y-82040000D01*
X17615000Y-85225229D01*
G04 #@! TA.AperFunction,Conductor*
D21*
G36*
X17615000Y-85225229D02*
G01*
X17497038Y-85322038D01*
X17491658Y-85328594D01*
X17426185Y-85248815D01*
X17329494Y-85169463D01*
X17219180Y-85110498D01*
X17099482Y-85074188D01*
X16975000Y-85061928D01*
X16760750Y-85065000D01*
X16602000Y-85223750D01*
X16602000Y-86298000D01*
X16622000Y-86298000D01*
X16622000Y-86552000D01*
X16602000Y-86552000D01*
X16602000Y-87626250D01*
X16760750Y-87785000D01*
X16975000Y-87788072D01*
X17099482Y-87775812D01*
X17219180Y-87739502D01*
X17329494Y-87680537D01*
X17426185Y-87601185D01*
X17491658Y-87521406D01*
X17497038Y-87527962D01*
X17615001Y-87624771D01*
X17615001Y-88420559D01*
X17477882Y-88215495D01*
X17298830Y-88036564D01*
X17088311Y-87896003D01*
X16854415Y-87799213D01*
X16805471Y-87791901D01*
X16607000Y-87915933D01*
X16607000Y-89408000D01*
X16627000Y-89408000D01*
X16627000Y-89662000D01*
X16607000Y-89662000D01*
X16607000Y-91154067D01*
X16805471Y-91278099D01*
X16854415Y-91270787D01*
X17088311Y-91173997D01*
X17298830Y-91033436D01*
X17477882Y-90854505D01*
X17615000Y-90649442D01*
X17615000Y-91895680D01*
X17570506Y-91919463D01*
X17473815Y-91998815D01*
X17394463Y-92095506D01*
X17335498Y-92205820D01*
X17299188Y-92325518D01*
X17286928Y-92450000D01*
X17286928Y-93650000D01*
X17299188Y-93774482D01*
X17335498Y-93894180D01*
X17394463Y-94004494D01*
X17473815Y-94101185D01*
X17570506Y-94180537D01*
X17680820Y-94239502D01*
X17800518Y-94275812D01*
X17925000Y-94288072D01*
X18825000Y-94288072D01*
X18949482Y-94275812D01*
X19069180Y-94239502D01*
X19179494Y-94180537D01*
X19276185Y-94101185D01*
X19340001Y-94023425D01*
X19340001Y-100940000D01*
X660000Y-100940000D01*
X660000Y-96373740D01*
X3435000Y-96373740D01*
X3435000Y-96666260D01*
X3492068Y-96953158D01*
X3604010Y-97223411D01*
X3766525Y-97466632D01*
X3973368Y-97673475D01*
X4147760Y-97790000D01*
X3973368Y-97906525D01*
X3766525Y-98113368D01*
X3604010Y-98356589D01*
X3492068Y-98626842D01*
X3435000Y-98913740D01*
X3435000Y-99206260D01*
X3492068Y-99493158D01*
X3604010Y-99763411D01*
X3766525Y-100006632D01*
X3973368Y-100213475D01*
X4216589Y-100375990D01*
X4486842Y-100487932D01*
X4773740Y-100545000D01*
X5066260Y-100545000D01*
X5353158Y-100487932D01*
X5623411Y-100375990D01*
X5866632Y-100213475D01*
X6073475Y-100006632D01*
X6195195Y-99824466D01*
X6264822Y-99941355D01*
X6459731Y-100157588D01*
X6693080Y-100331641D01*
X6955901Y-100456825D01*
X7103110Y-100501476D01*
X7333000Y-100380155D01*
X7333000Y-99187000D01*
X7587000Y-99187000D01*
X7587000Y-100380155D01*
X7816890Y-100501476D01*
X7964099Y-100456825D01*
X8226920Y-100331641D01*
X8460269Y-100157588D01*
X8655178Y-99941355D01*
X8730000Y-99815745D01*
X8804822Y-99941355D01*
X8999731Y-100157588D01*
X9233080Y-100331641D01*
X9495901Y-100456825D01*
X9643110Y-100501476D01*
X9873000Y-100380155D01*
X9873000Y-99187000D01*
X10127000Y-99187000D01*
X10127000Y-100380155D01*
X10356890Y-100501476D01*
X10504099Y-100456825D01*
X10766920Y-100331641D01*
X11000269Y-100157588D01*
X11195178Y-99941355D01*
X11270000Y-99815745D01*
X11344822Y-99941355D01*
X11539731Y-100157588D01*
X11773080Y-100331641D01*
X12035901Y-100456825D01*
X12183110Y-100501476D01*
X12413000Y-100380155D01*
X12413000Y-99187000D01*
X10127000Y-99187000D01*
X9873000Y-99187000D01*
X7587000Y-99187000D01*
X7333000Y-99187000D01*
X7313000Y-99187000D01*
X7313000Y-98933000D01*
X7333000Y-98933000D01*
X7333000Y-96647000D01*
X7587000Y-96647000D01*
X7587000Y-98933000D01*
X9873000Y-98933000D01*
X9873000Y-96647000D01*
X10127000Y-96647000D01*
X10127000Y-98933000D01*
X12413000Y-98933000D01*
X12413000Y-96647000D01*
X10127000Y-96647000D01*
X9873000Y-96647000D01*
X7587000Y-96647000D01*
X7333000Y-96647000D01*
X7313000Y-96647000D01*
X7313000Y-96393000D01*
X7333000Y-96393000D01*
X7333000Y-95199845D01*
X7587000Y-95199845D01*
X7587000Y-96393000D01*
X9873000Y-96393000D01*
X9873000Y-95199845D01*
X10127000Y-95199845D01*
X10127000Y-96393000D01*
X12413000Y-96393000D01*
X12413000Y-95199845D01*
X12667000Y-95199845D01*
X12667000Y-96393000D01*
X12687000Y-96393000D01*
X12687000Y-96647000D01*
X12667000Y-96647000D01*
X12667000Y-98933000D01*
X12687000Y-98933000D01*
X12687000Y-99187000D01*
X12667000Y-99187000D01*
X12667000Y-100380155D01*
X12896890Y-100501476D01*
X13044099Y-100456825D01*
X13306920Y-100331641D01*
X13540269Y-100157588D01*
X13616034Y-100073534D01*
X13640498Y-100154180D01*
X13699463Y-100264494D01*
X13778815Y-100361185D01*
X13875506Y-100440537D01*
X13985820Y-100499502D01*
X14105518Y-100535812D01*
X14230000Y-100548072D01*
X15930000Y-100548072D01*
X16054482Y-100535812D01*
X16174180Y-100499502D01*
X16284494Y-100440537D01*
X16381185Y-100361185D01*
X16460537Y-100264494D01*
X16519502Y-100154180D01*
X16555812Y-100034482D01*
X16568072Y-99910000D01*
X16568072Y-98210000D01*
X16555812Y-98085518D01*
X16519502Y-97965820D01*
X16460537Y-97855506D01*
X16381185Y-97758815D01*
X16284494Y-97679463D01*
X16174180Y-97620498D01*
X16101620Y-97598487D01*
X16233475Y-97466632D01*
X16395990Y-97223411D01*
X16507932Y-96953158D01*
X16565000Y-96666260D01*
X16565000Y-96373740D01*
X16507932Y-96086842D01*
X16395990Y-95816589D01*
X16233475Y-95573368D01*
X16026632Y-95366525D01*
X15840000Y-95241822D01*
X15840000Y-94201647D01*
X15879494Y-94180537D01*
X15976185Y-94101185D01*
X16055537Y-94004494D01*
X16114502Y-93894180D01*
X16150812Y-93774482D01*
X16163072Y-93650000D01*
X16163072Y-92450000D01*
X16150812Y-92325518D01*
X16114502Y-92205820D01*
X16055537Y-92095506D01*
X15976185Y-91998815D01*
X15879494Y-91919463D01*
X15769180Y-91860498D01*
X15649482Y-91824188D01*
X15525000Y-91811928D01*
X14625000Y-91811928D01*
X14500518Y-91824188D01*
X14380820Y-91860498D01*
X14270506Y-91919463D01*
X14173815Y-91998815D01*
X14094463Y-92095506D01*
X14035498Y-92205820D01*
X13999188Y-92325518D01*
X13986928Y-92450000D01*
X13986928Y-93650000D01*
X13999188Y-93774482D01*
X14035498Y-93894180D01*
X14094463Y-94004494D01*
X14173815Y-94101185D01*
X14270506Y-94180537D01*
X14320001Y-94206993D01*
X14320000Y-95241821D01*
X14133368Y-95366525D01*
X13926525Y-95573368D01*
X13804805Y-95755534D01*
X13735178Y-95638645D01*
X13540269Y-95422412D01*
X13306920Y-95248359D01*
X13044099Y-95123175D01*
X12896890Y-95078524D01*
X12667000Y-95199845D01*
X12413000Y-95199845D01*
X12183110Y-95078524D01*
X12035901Y-95123175D01*
X11773080Y-95248359D01*
X11539731Y-95422412D01*
X11344822Y-95638645D01*
X11270000Y-95764255D01*
X11195178Y-95638645D01*
X11000269Y-95422412D01*
X10766920Y-95248359D01*
X10504099Y-95123175D01*
X10356890Y-95078524D01*
X10127000Y-95199845D01*
X9873000Y-95199845D01*
X9643110Y-95078524D01*
X9495901Y-95123175D01*
X9233080Y-95248359D01*
X8999731Y-95422412D01*
X8804822Y-95638645D01*
X8730000Y-95764255D01*
X8655178Y-95638645D01*
X8460269Y-95422412D01*
X8226920Y-95248359D01*
X7964099Y-95123175D01*
X7816890Y-95078524D01*
X7587000Y-95199845D01*
X7333000Y-95199845D01*
X7103110Y-95078524D01*
X6955901Y-95123175D01*
X6693080Y-95248359D01*
X6459731Y-95422412D01*
X6264822Y-95638645D01*
X6195195Y-95755534D01*
X6073475Y-95573368D01*
X5866632Y-95366525D01*
X5680000Y-95241822D01*
X5680000Y-94206993D01*
X5729494Y-94180537D01*
X5826185Y-94101185D01*
X5905537Y-94004494D01*
X5964502Y-93894180D01*
X6000812Y-93774482D01*
X6013072Y-93650000D01*
X6013072Y-92450000D01*
X6000812Y-92325518D01*
X5964502Y-92205820D01*
X5905537Y-92095506D01*
X5826185Y-91998815D01*
X5729494Y-91919463D01*
X5619180Y-91860498D01*
X5499482Y-91824188D01*
X5375000Y-91811928D01*
X4475000Y-91811928D01*
X4350518Y-91824188D01*
X4230820Y-91860498D01*
X4120506Y-91919463D01*
X4023815Y-91998815D01*
X3944463Y-92095506D01*
X3885498Y-92205820D01*
X3849188Y-92325518D01*
X3836928Y-92450000D01*
X3836928Y-93650000D01*
X3849188Y-93774482D01*
X3885498Y-93894180D01*
X3944463Y-94004494D01*
X4023815Y-94101185D01*
X4120506Y-94180537D01*
X4160001Y-94201648D01*
X4160000Y-95241821D01*
X3973368Y-95366525D01*
X3766525Y-95573368D01*
X3604010Y-95816589D01*
X3492068Y-96086842D01*
X3435000Y-96373740D01*
X660000Y-96373740D01*
X660000Y-94023426D01*
X723815Y-94101185D01*
X820506Y-94180537D01*
X930820Y-94239502D01*
X1050518Y-94275812D01*
X1175000Y-94288072D01*
X2075000Y-94288072D01*
X2199482Y-94275812D01*
X2319180Y-94239502D01*
X2429494Y-94180537D01*
X2526185Y-94101185D01*
X2605537Y-94004494D01*
X2664502Y-93894180D01*
X2700812Y-93774482D01*
X2713072Y-93650000D01*
X2713072Y-92450000D01*
X2700812Y-92325518D01*
X2664502Y-92205820D01*
X2605537Y-92095506D01*
X2526185Y-91998815D01*
X2429494Y-91919463D01*
X2385000Y-91895680D01*
X2385000Y-87624770D01*
X2502962Y-87527962D01*
X2508342Y-87521406D01*
X2573815Y-87601185D01*
X2670506Y-87680537D01*
X2780820Y-87739502D01*
X2900518Y-87775812D01*
X3025000Y-87788072D01*
X3239250Y-87785000D01*
X3398000Y-87626250D01*
X3398000Y-86552000D01*
X3652000Y-86552000D01*
X3652000Y-87626250D01*
X3810750Y-87785000D01*
X4025000Y-87788072D01*
X4149482Y-87775812D01*
X4269180Y-87739502D01*
X4379494Y-87680537D01*
X4476185Y-87601185D01*
X4555537Y-87504494D01*
X4614502Y-87394180D01*
X4650812Y-87274482D01*
X4663072Y-87150000D01*
X4660000Y-86710750D01*
X4501250Y-86552000D01*
X3652000Y-86552000D01*
X3398000Y-86552000D01*
X3378000Y-86552000D01*
X3378000Y-86298000D01*
X3398000Y-86298000D01*
X3398000Y-86278000D01*
X3652000Y-86278000D01*
X3652000Y-86298000D01*
X4501250Y-86298000D01*
X4660000Y-86139250D01*
X4663072Y-85700000D01*
X4650812Y-85575518D01*
X4614502Y-85455820D01*
X4555537Y-85345506D01*
X4546915Y-85335000D01*
X8153573Y-85335000D01*
X8086595Y-85416613D01*
X8004528Y-85570148D01*
X7953992Y-85736744D01*
X7936928Y-85909998D01*
X7936928Y-86810002D01*
X7953992Y-86983256D01*
X8004528Y-87149852D01*
X8086595Y-87303387D01*
X8197038Y-87437962D01*
X8327500Y-87545030D01*
X8327501Y-88735698D01*
X8288199Y-88775000D01*
X6343951Y-88775000D01*
X6272929Y-88540873D01*
X6153608Y-88317638D01*
X5993028Y-88121972D01*
X5797361Y-87961392D01*
X5574126Y-87842071D01*
X5331903Y-87768593D01*
X5080000Y-87743783D01*
X4828096Y-87768593D01*
X4585873Y-87842071D01*
X4362638Y-87961392D01*
X4166972Y-88121972D01*
X4006392Y-88317639D01*
X3887071Y-88540874D01*
X3813593Y-88783097D01*
X3795000Y-88971878D01*
X3795000Y-90098123D01*
X3813593Y-90286904D01*
X3887071Y-90529127D01*
X4006392Y-90752362D01*
X4166973Y-90948028D01*
X4362639Y-91108608D01*
X4585874Y-91227929D01*
X4828097Y-91301407D01*
X5080000Y-91326217D01*
X5331904Y-91301407D01*
X5574127Y-91227929D01*
X5797362Y-91108608D01*
X5993028Y-90948028D01*
X6153608Y-90752362D01*
X6272929Y-90529127D01*
X6343951Y-90295000D01*
X8565678Y-90295000D01*
X8603000Y-90298676D01*
X8640322Y-90295000D01*
X8640333Y-90295000D01*
X8751986Y-90284003D01*
X8895247Y-90240546D01*
X9027276Y-90169974D01*
X9143001Y-90075001D01*
X9166803Y-90045998D01*
X9598502Y-89614300D01*
X9627501Y-89590501D01*
X9722474Y-89474776D01*
X9793046Y-89342747D01*
X9836503Y-89199486D01*
X9847500Y-89087833D01*
X9847500Y-89087824D01*
X9851176Y-89050501D01*
X9847500Y-89013178D01*
X9847500Y-88971878D01*
X12095000Y-88971878D01*
X12095000Y-90098123D01*
X12113593Y-90286904D01*
X12187071Y-90529127D01*
X12306392Y-90752362D01*
X12466973Y-90948028D01*
X12662639Y-91108608D01*
X12885874Y-91227929D01*
X13128097Y-91301407D01*
X13380000Y-91326217D01*
X13631904Y-91301407D01*
X13874127Y-91227929D01*
X14097362Y-91108608D01*
X14293028Y-90948028D01*
X14453608Y-90752362D01*
X14572929Y-90529127D01*
X14646407Y-90286904D01*
X14665000Y-90098123D01*
X14665000Y-89662000D01*
X15195000Y-89662000D01*
X15195000Y-90162000D01*
X15244467Y-90410251D01*
X15341415Y-90644081D01*
X15482118Y-90854505D01*
X15661170Y-91033436D01*
X15871689Y-91173997D01*
X16105585Y-91270787D01*
X16154529Y-91278099D01*
X16353000Y-91154067D01*
X16353000Y-89662000D01*
X15195000Y-89662000D01*
X14665000Y-89662000D01*
X14665000Y-88971877D01*
X14658709Y-88908000D01*
X15195000Y-88908000D01*
X15195000Y-89408000D01*
X16353000Y-89408000D01*
X16353000Y-87915933D01*
X16154529Y-87791901D01*
X16105585Y-87799213D01*
X15871689Y-87896003D01*
X15661170Y-88036564D01*
X15482118Y-88215495D01*
X15341415Y-88425919D01*
X15244467Y-88659749D01*
X15195000Y-88908000D01*
X14658709Y-88908000D01*
X14646407Y-88783096D01*
X14572929Y-88540873D01*
X14453608Y-88317638D01*
X14293028Y-88121972D01*
X14097361Y-87961392D01*
X13874126Y-87842071D01*
X13631903Y-87768593D01*
X13380000Y-87743783D01*
X13128096Y-87768593D01*
X12885873Y-87842071D01*
X12662638Y-87961392D01*
X12466972Y-88121972D01*
X12306392Y-88317639D01*
X12187071Y-88540874D01*
X12113593Y-88783097D01*
X12095000Y-88971878D01*
X9847500Y-88971878D01*
X9847500Y-87545030D01*
X9977962Y-87437962D01*
X10000000Y-87411109D01*
X10022038Y-87437962D01*
X10156613Y-87548405D01*
X10310148Y-87630472D01*
X10476744Y-87681008D01*
X10649998Y-87698072D01*
X11175002Y-87698072D01*
X11348256Y-87681008D01*
X11514852Y-87630472D01*
X11668387Y-87548405D01*
X11802962Y-87437962D01*
X11913405Y-87303387D01*
X11959596Y-87216970D01*
X12049744Y-87277205D01*
X12238102Y-87355226D01*
X12438061Y-87395000D01*
X12641939Y-87395000D01*
X12841898Y-87355226D01*
X13030256Y-87277205D01*
X13199774Y-87163937D01*
X13213711Y-87150000D01*
X15336928Y-87150000D01*
X15349188Y-87274482D01*
X15385498Y-87394180D01*
X15444463Y-87504494D01*
X15523815Y-87601185D01*
X15620506Y-87680537D01*
X15730820Y-87739502D01*
X15850518Y-87775812D01*
X15975000Y-87788072D01*
X16189250Y-87785000D01*
X16348000Y-87626250D01*
X16348000Y-86552000D01*
X15498750Y-86552000D01*
X15340000Y-86710750D01*
X15336928Y-87150000D01*
X13213711Y-87150000D01*
X13343937Y-87019774D01*
X13457205Y-86850256D01*
X13535226Y-86661898D01*
X13575000Y-86461939D01*
X13575000Y-86258061D01*
X13535226Y-86058102D01*
X13457205Y-85869744D01*
X13343937Y-85700226D01*
X13343711Y-85700000D01*
X15336928Y-85700000D01*
X15340000Y-86139250D01*
X15498750Y-86298000D01*
X16348000Y-86298000D01*
X16348000Y-85223750D01*
X16189250Y-85065000D01*
X15975000Y-85061928D01*
X15850518Y-85074188D01*
X15730820Y-85110498D01*
X15620506Y-85169463D01*
X15523815Y-85248815D01*
X15444463Y-85345506D01*
X15385498Y-85455820D01*
X15349188Y-85575518D01*
X15336928Y-85700000D01*
X13343711Y-85700000D01*
X13199774Y-85556063D01*
X13030256Y-85442795D01*
X12841898Y-85364774D01*
X12641939Y-85325000D01*
X12438061Y-85325000D01*
X12238102Y-85364774D01*
X12049744Y-85442795D01*
X11959596Y-85503030D01*
X11913405Y-85416613D01*
X11802962Y-85282038D01*
X11668387Y-85171595D01*
X11551620Y-85109181D01*
X11693386Y-85033405D01*
X11827962Y-84922962D01*
X11938405Y-84788386D01*
X12020472Y-84634850D01*
X12071008Y-84468254D01*
X12088072Y-84295000D01*
X12088072Y-83345000D01*
X12071008Y-83171746D01*
X12020472Y-83005150D01*
X11938405Y-82851614D01*
X11827962Y-82717038D01*
X11710000Y-82620230D01*
X11710000Y-82218072D01*
X13262397Y-82218072D01*
X13188892Y-82307638D01*
X13069571Y-82530873D01*
X12996093Y-82773096D01*
X12971283Y-83025000D01*
X12996093Y-83276904D01*
X13069571Y-83519127D01*
X13188892Y-83742362D01*
X13349472Y-83938028D01*
X13545138Y-84098608D01*
X13768373Y-84217929D01*
X14010596Y-84291407D01*
X14199377Y-84310000D01*
X15325623Y-84310000D01*
X15514404Y-84291407D01*
X15756627Y-84217929D01*
X15979862Y-84098608D01*
X16175528Y-83938028D01*
X16336108Y-83742362D01*
X16455429Y-83519127D01*
X16528907Y-83276904D01*
X16553717Y-83025000D01*
X16528907Y-82773096D01*
X16455429Y-82530873D01*
X16336108Y-82307638D01*
X16175528Y-82111972D01*
X16087830Y-82040000D01*
X17615001Y-82040000D01*
X17615000Y-85225229D01*
G37*
G04 #@! TD.AperFunction*
D20*
X19340001Y-60026121D02*
X19191898Y-59964774D01*
X18991939Y-59925000D01*
X18788061Y-59925000D01*
X18588102Y-59964774D01*
X18399744Y-60042795D01*
X18230226Y-60156063D01*
X18186289Y-60200000D01*
X11096806Y-60200000D01*
X11188405Y-60088387D01*
X11270472Y-59934852D01*
X11321008Y-59768256D01*
X11338072Y-59595002D01*
X11338072Y-59069998D01*
X11321008Y-58896744D01*
X11270472Y-58730148D01*
X11190216Y-58580000D01*
X12971283Y-58580000D01*
X12996093Y-58831904D01*
X13069571Y-59074127D01*
X13188892Y-59297362D01*
X13349472Y-59493028D01*
X13545138Y-59653608D01*
X13768373Y-59772929D01*
X14010596Y-59846407D01*
X14199377Y-59865000D01*
X15325623Y-59865000D01*
X15514404Y-59846407D01*
X15756627Y-59772929D01*
X15979862Y-59653608D01*
X16175528Y-59493028D01*
X16336108Y-59297362D01*
X16455429Y-59074127D01*
X16528907Y-58831904D01*
X16553717Y-58580000D01*
X16528907Y-58328096D01*
X16455429Y-58085873D01*
X16336108Y-57862638D01*
X16175528Y-57666972D01*
X15979862Y-57506392D01*
X15756627Y-57387071D01*
X15514404Y-57313593D01*
X15325623Y-57295000D01*
X14199377Y-57295000D01*
X14010596Y-57313593D01*
X13768373Y-57387071D01*
X13545138Y-57506392D01*
X13349472Y-57666972D01*
X13188892Y-57862638D01*
X13069571Y-58085873D01*
X12996093Y-58328096D01*
X12971283Y-58580000D01*
X11190216Y-58580000D01*
X11188405Y-58576613D01*
X11077962Y-58442038D01*
X11051109Y-58420000D01*
X11077962Y-58397962D01*
X11188405Y-58263387D01*
X11270472Y-58109852D01*
X11321008Y-57943256D01*
X11338072Y-57770002D01*
X11338072Y-57244998D01*
X11321008Y-57071744D01*
X11270472Y-56905148D01*
X11188405Y-56751613D01*
X11077962Y-56617038D01*
X10943387Y-56506595D01*
X10905291Y-56486232D01*
X10978505Y-56437312D01*
X11192312Y-56223505D01*
X11250000Y-56137169D01*
X11307688Y-56223505D01*
X11521495Y-56437312D01*
X11772905Y-56605299D01*
X12052257Y-56721011D01*
X12348816Y-56780000D01*
X12651184Y-56780000D01*
X12947743Y-56721011D01*
X13227095Y-56605299D01*
X13478505Y-56437312D01*
X13692312Y-56223505D01*
X13860299Y-55972095D01*
X13976011Y-55692743D01*
X14035000Y-55396184D01*
X14035000Y-55093816D01*
X13976011Y-54797257D01*
X13860299Y-54517905D01*
X13692312Y-54266495D01*
X13478505Y-54052688D01*
X13227095Y-53884701D01*
X12947743Y-53768989D01*
X12651184Y-53710000D01*
X12348816Y-53710000D01*
X12052257Y-53768989D01*
X11772905Y-53884701D01*
X11521495Y-54052688D01*
X11307688Y-54266495D01*
X11250000Y-54352831D01*
X11192312Y-54266495D01*
X10978505Y-54052688D01*
X10727095Y-53884701D01*
X10447743Y-53768989D01*
X10151184Y-53710000D01*
X9848816Y-53710000D01*
X9552257Y-53768989D01*
X9272905Y-53884701D01*
X9021495Y-54052688D01*
X8983880Y-54090303D01*
X8930537Y-53990506D01*
X8851185Y-53893815D01*
X8754494Y-53814463D01*
X8644180Y-53755498D01*
X8524482Y-53719188D01*
X8400000Y-53706928D01*
X6600000Y-53706928D01*
X6475518Y-53719188D01*
X6355820Y-53755498D01*
X6245506Y-53814463D01*
X6148815Y-53893815D01*
X6069463Y-53990506D01*
X6010498Y-54100820D01*
X5974188Y-54220518D01*
X5961928Y-54345000D01*
X5961928Y-56145000D01*
X5974188Y-56269482D01*
X6010498Y-56389180D01*
X6069463Y-56499494D01*
X6148815Y-56596185D01*
X6245506Y-56675537D01*
X6355820Y-56734502D01*
X6475518Y-56770812D01*
X6600000Y-56783072D01*
X8400000Y-56783072D01*
X8524482Y-56770812D01*
X8644180Y-56734502D01*
X8754494Y-56675537D01*
X8851185Y-56596185D01*
X8930537Y-56499494D01*
X8983880Y-56399697D01*
X9021495Y-56437312D01*
X9094709Y-56486232D01*
X9056613Y-56506595D01*
X8922038Y-56617038D01*
X8811595Y-56751613D01*
X8729528Y-56905148D01*
X8678992Y-57071744D01*
X8661928Y-57244998D01*
X8661928Y-57770002D01*
X8678992Y-57943256D01*
X8729528Y-58109852D01*
X8811595Y-58263387D01*
X8922038Y-58397962D01*
X8948891Y-58420000D01*
X8922038Y-58442038D01*
X8811595Y-58576613D01*
X8729528Y-58730148D01*
X8678992Y-58896744D01*
X8661928Y-59069998D01*
X8661928Y-59595002D01*
X8678992Y-59768256D01*
X8729528Y-59934852D01*
X8811595Y-60088387D01*
X8922038Y-60222962D01*
X9056613Y-60333405D01*
X9210148Y-60415472D01*
X9240000Y-60424528D01*
X9240000Y-60922667D01*
X9236323Y-60960000D01*
X9250997Y-61108986D01*
X9294454Y-61252247D01*
X9365026Y-61384276D01*
X9459999Y-61500001D01*
X9575724Y-61594974D01*
X9707753Y-61665546D01*
X9851014Y-61709003D01*
X10000000Y-61723677D01*
X10037333Y-61720000D01*
X18186289Y-61720000D01*
X18230226Y-61763937D01*
X18399744Y-61877205D01*
X18588102Y-61955226D01*
X18788061Y-61995000D01*
X18991939Y-61995000D01*
X19191898Y-61955226D01*
X19340001Y-61893879D01*
X19340001Y-72019200D01*
X19199804Y-71879003D01*
X19176001Y-71849999D01*
X19060276Y-71755026D01*
X18928247Y-71684454D01*
X18817329Y-71650808D01*
X18808405Y-71634113D01*
X18697962Y-71499538D01*
X18563387Y-71389095D01*
X18409852Y-71307028D01*
X18243256Y-71256492D01*
X18070002Y-71239428D01*
X17169998Y-71239428D01*
X16996744Y-71256492D01*
X16830148Y-71307028D01*
X16676613Y-71389095D01*
X16543914Y-71497998D01*
X16381568Y-71497998D01*
X16505599Y-71299529D01*
X16498287Y-71250585D01*
X16401497Y-71016689D01*
X16260936Y-70806170D01*
X16257268Y-70802500D01*
X16260936Y-70798830D01*
X16401497Y-70588311D01*
X16498287Y-70354415D01*
X16505599Y-70305471D01*
X16381567Y-70107000D01*
X14889500Y-70107000D01*
X14889500Y-71498000D01*
X14909500Y-71498000D01*
X14909500Y-71752000D01*
X14889500Y-71752000D01*
X14889500Y-72910000D01*
X15389500Y-72910000D01*
X15637751Y-72860533D01*
X15871581Y-72763585D01*
X16082005Y-72622882D01*
X16260936Y-72443830D01*
X16281928Y-72412390D01*
X16281928Y-72652502D01*
X16298992Y-72825756D01*
X16349528Y-72992352D01*
X16431595Y-73145887D01*
X16542038Y-73280462D01*
X16568891Y-73302500D01*
X16542038Y-73324538D01*
X16431595Y-73459113D01*
X16349528Y-73612648D01*
X16298992Y-73779244D01*
X16282885Y-73942786D01*
X16175528Y-73811972D01*
X15979862Y-73651392D01*
X15756627Y-73532071D01*
X15514404Y-73458593D01*
X15325623Y-73440000D01*
X14199377Y-73440000D01*
X14010596Y-73458593D01*
X13768373Y-73532071D01*
X13545138Y-73651392D01*
X13349472Y-73811972D01*
X13188892Y-74007638D01*
X13069571Y-74230873D01*
X12996093Y-74473096D01*
X12971283Y-74725000D01*
X12996093Y-74976904D01*
X13069571Y-75219127D01*
X13188892Y-75442362D01*
X13349472Y-75638028D01*
X13545138Y-75798608D01*
X13768373Y-75917929D01*
X14010596Y-75991407D01*
X14199377Y-76010000D01*
X15325623Y-76010000D01*
X15514404Y-75991407D01*
X15756627Y-75917929D01*
X15979862Y-75798608D01*
X16175528Y-75638028D01*
X16301116Y-75485000D01*
X17072678Y-75485000D01*
X17110000Y-75488676D01*
X17147322Y-75485000D01*
X17147333Y-75485000D01*
X17258986Y-75474003D01*
X17402247Y-75430546D01*
X17523803Y-75365572D01*
X18070002Y-75365572D01*
X18130001Y-75359663D01*
X18130000Y-78555846D01*
X17983256Y-78457795D01*
X17794898Y-78379774D01*
X17594939Y-78340000D01*
X17391061Y-78340000D01*
X17191102Y-78379774D01*
X17053072Y-78436948D01*
X17053072Y-78199998D01*
X17036008Y-78026744D01*
X16985472Y-77860148D01*
X16903405Y-77706613D01*
X16792962Y-77572038D01*
X16658387Y-77461595D01*
X16504852Y-77379528D01*
X16338256Y-77328992D01*
X16165002Y-77311928D01*
X15264998Y-77311928D01*
X15091744Y-77328992D01*
X14925148Y-77379528D01*
X14771613Y-77461595D01*
X14637038Y-77572038D01*
X14526595Y-77706613D01*
X14444528Y-77860148D01*
X14408172Y-77980000D01*
X14049870Y-77980000D01*
X14075812Y-77894482D01*
X14088072Y-77770000D01*
X14085000Y-77755750D01*
X13926250Y-77597000D01*
X12602000Y-77597000D01*
X12602000Y-77617000D01*
X12348000Y-77617000D01*
X12348000Y-77597000D01*
X12328000Y-77597000D01*
X12328000Y-77343000D01*
X12348000Y-77343000D01*
X12348000Y-76693750D01*
X12602000Y-76693750D01*
X12602000Y-77343000D01*
X13926250Y-77343000D01*
X14085000Y-77184250D01*
X14088072Y-77170000D01*
X14075812Y-77045518D01*
X14039502Y-76925820D01*
X13980537Y-76815506D01*
X13901185Y-76718815D01*
X13804494Y-76639463D01*
X13694180Y-76580498D01*
X13574482Y-76544188D01*
X13450000Y-76531928D01*
X12760750Y-76535000D01*
X12602000Y-76693750D01*
X12348000Y-76693750D01*
X12189250Y-76535000D01*
X11500000Y-76531928D01*
X11395000Y-76542269D01*
X11395000Y-76115030D01*
X11525462Y-76007962D01*
X11635905Y-75873387D01*
X11717972Y-75719852D01*
X11768508Y-75553256D01*
X11785572Y-75380002D01*
X11785572Y-74479998D01*
X11768508Y-74306744D01*
X11717972Y-74140148D01*
X11635905Y-73986613D01*
X11525462Y-73852038D01*
X11395000Y-73744970D01*
X11395000Y-72935322D01*
X11398676Y-72897999D01*
X11395000Y-72860676D01*
X11395000Y-72860667D01*
X11384003Y-72749014D01*
X11340546Y-72605753D01*
X11269974Y-72473724D01*
X11175001Y-72357999D01*
X11146002Y-72334200D01*
X10762273Y-71950471D01*
X13019401Y-71950471D01*
X13026713Y-71999415D01*
X13123503Y-72233311D01*
X13264064Y-72443830D01*
X13442995Y-72622882D01*
X13653419Y-72763585D01*
X13887249Y-72860533D01*
X14135500Y-72910000D01*
X14635500Y-72910000D01*
X14635500Y-71752000D01*
X13143433Y-71752000D01*
X13019401Y-71950471D01*
X10762273Y-71950471D01*
X10690803Y-71879002D01*
X10667001Y-71849999D01*
X10551276Y-71755026D01*
X10419247Y-71684454D01*
X10275986Y-71640997D01*
X10164333Y-71630000D01*
X10164322Y-71630000D01*
X10127000Y-71626324D01*
X10089678Y-71630000D01*
X8163711Y-71630000D01*
X8119774Y-71586063D01*
X7950256Y-71472795D01*
X7761898Y-71394774D01*
X7561939Y-71355000D01*
X7358061Y-71355000D01*
X7158102Y-71394774D01*
X6969744Y-71472795D01*
X6932025Y-71497998D01*
X6856568Y-71497998D01*
X6980599Y-71299529D01*
X6973287Y-71250585D01*
X6876497Y-71016689D01*
X6735936Y-70806170D01*
X6732268Y-70802500D01*
X6735936Y-70798830D01*
X6876497Y-70588311D01*
X6973287Y-70354415D01*
X6980599Y-70305471D01*
X13019401Y-70305471D01*
X13026713Y-70354415D01*
X13123503Y-70588311D01*
X13264064Y-70798830D01*
X13267732Y-70802500D01*
X13264064Y-70806170D01*
X13123503Y-71016689D01*
X13026713Y-71250585D01*
X13019401Y-71299529D01*
X13143433Y-71498000D01*
X14635500Y-71498000D01*
X14635500Y-70107000D01*
X13143433Y-70107000D01*
X13019401Y-70305471D01*
X6980599Y-70305471D01*
X6856567Y-70107000D01*
X5364500Y-70107000D01*
X5364500Y-71498000D01*
X5384500Y-71498000D01*
X5384500Y-71752000D01*
X5364500Y-71752000D01*
X5364500Y-72910000D01*
X5864500Y-72910000D01*
X6112751Y-72860533D01*
X6346581Y-72763585D01*
X6463485Y-72685416D01*
X6464774Y-72691898D01*
X6542795Y-72880256D01*
X6656063Y-73049774D01*
X6800226Y-73193937D01*
X6969744Y-73307205D01*
X7158102Y-73385226D01*
X7358061Y-73425000D01*
X7561939Y-73425000D01*
X7761898Y-73385226D01*
X7950256Y-73307205D01*
X8119774Y-73193937D01*
X8163711Y-73150000D01*
X9812199Y-73150000D01*
X9875001Y-73212802D01*
X9875001Y-73744970D01*
X9744538Y-73852038D01*
X9722500Y-73878891D01*
X9700462Y-73852038D01*
X9565887Y-73741595D01*
X9412352Y-73659528D01*
X9245756Y-73608992D01*
X9072502Y-73591928D01*
X8547498Y-73591928D01*
X8374244Y-73608992D01*
X8207648Y-73659528D01*
X8054113Y-73741595D01*
X7919538Y-73852038D01*
X7809095Y-73986613D01*
X7727028Y-74140148D01*
X7676492Y-74306744D01*
X7659428Y-74479998D01*
X7659428Y-75380002D01*
X7676492Y-75553256D01*
X7727028Y-75719852D01*
X7809095Y-75873387D01*
X7844414Y-75916423D01*
X7812795Y-75963744D01*
X7734774Y-76152102D01*
X7695000Y-76352061D01*
X7695000Y-76531928D01*
X6700000Y-76531928D01*
X6546255Y-76547071D01*
X6398418Y-76591916D01*
X6262171Y-76664742D01*
X6142749Y-76762749D01*
X6044742Y-76882171D01*
X5971916Y-77018418D01*
X5927071Y-77166255D01*
X5911928Y-77320000D01*
X5911928Y-77620000D01*
X5927071Y-77773745D01*
X5971916Y-77921582D01*
X6043730Y-78055936D01*
X6019463Y-78085506D01*
X5960498Y-78195820D01*
X5924188Y-78315518D01*
X5911928Y-78440000D01*
X5915000Y-78454250D01*
X6073750Y-78613000D01*
X7398000Y-78613000D01*
X7398000Y-78593000D01*
X7652000Y-78593000D01*
X7652000Y-78613000D01*
X7672000Y-78613000D01*
X7672000Y-78867000D01*
X7652000Y-78867000D01*
X7652000Y-78887000D01*
X7398000Y-78887000D01*
X7398000Y-78867000D01*
X6112213Y-78867000D01*
X6056887Y-78821595D01*
X5903352Y-78739528D01*
X5736756Y-78688992D01*
X5684663Y-78683861D01*
X5299000Y-78298199D01*
X5299000Y-78173711D01*
X5342937Y-78129774D01*
X5456205Y-77960256D01*
X5534226Y-77771898D01*
X5574000Y-77571939D01*
X5574000Y-77368061D01*
X5534226Y-77168102D01*
X5456205Y-76979744D01*
X5342937Y-76810226D01*
X5198774Y-76666063D01*
X5029256Y-76552795D01*
X4840898Y-76474774D01*
X4640939Y-76435000D01*
X4511000Y-76435000D01*
X4511000Y-76352061D01*
X4471226Y-76152102D01*
X4394540Y-75966967D01*
X4610500Y-76010000D01*
X5110500Y-76010000D01*
X5110500Y-74852000D01*
X5364500Y-74852000D01*
X5364500Y-76010000D01*
X5864500Y-76010000D01*
X6112751Y-75960533D01*
X6346581Y-75863585D01*
X6557005Y-75722882D01*
X6735936Y-75543830D01*
X6876497Y-75333311D01*
X6973287Y-75099415D01*
X6980599Y-75050471D01*
X6856567Y-74852000D01*
X5364500Y-74852000D01*
X5110500Y-74852000D01*
X3618433Y-74852000D01*
X3494401Y-75050471D01*
X3501713Y-75099415D01*
X3598503Y-75333311D01*
X3667628Y-75436840D01*
X3577939Y-75419000D01*
X3374061Y-75419000D01*
X3174102Y-75458774D01*
X2985744Y-75536795D01*
X2816226Y-75650063D01*
X2672063Y-75794226D01*
X2558795Y-75963744D01*
X2480774Y-76152102D01*
X2441000Y-76352061D01*
X2441000Y-76555939D01*
X2480774Y-76755898D01*
X2558795Y-76944256D01*
X2672063Y-77113774D01*
X2716001Y-77157712D01*
X2716000Y-78824970D01*
X2585538Y-78932038D01*
X2475095Y-79066613D01*
X2393028Y-79220148D01*
X2342492Y-79386744D01*
X2325428Y-79559998D01*
X2325428Y-80460002D01*
X2342492Y-80633256D01*
X2393028Y-80799852D01*
X2475095Y-80953387D01*
X2585538Y-81087962D01*
X2720113Y-81198405D01*
X2721497Y-81199145D01*
X2726997Y-81254985D01*
X2762029Y-81370472D01*
X2770454Y-81398246D01*
X2841026Y-81530276D01*
X2875470Y-81572246D01*
X2935999Y-81646001D01*
X2965003Y-81669804D01*
X3086196Y-81790997D01*
X3109999Y-81820001D01*
X3225724Y-81914974D01*
X3357753Y-81985546D01*
X3501014Y-82029003D01*
X3612667Y-82040000D01*
X3612676Y-82040000D01*
X3649999Y-82043676D01*
X3687322Y-82040000D01*
X3912170Y-82040000D01*
X3824472Y-82111972D01*
X3663892Y-82307638D01*
X3544571Y-82530873D01*
X3471093Y-82773096D01*
X3446283Y-83025000D01*
X3471093Y-83276904D01*
X3544571Y-83519127D01*
X3663892Y-83742362D01*
X3723505Y-83815000D01*
X2137322Y-83815000D01*
X2099999Y-83811324D01*
X2062676Y-83815000D01*
X2062667Y-83815000D01*
X1951014Y-83825997D01*
X1807753Y-83869454D01*
X1675724Y-83940026D01*
X1559999Y-84034999D01*
X1536200Y-84063998D01*
X1113998Y-84486201D01*
X1085000Y-84509999D01*
X1061202Y-84538997D01*
X1061201Y-84538998D01*
X990026Y-84625724D01*
X919454Y-84757754D01*
X875998Y-84901015D01*
X861324Y-85050000D01*
X865001Y-85087332D01*
X865001Y-85225229D01*
X747038Y-85322038D01*
X660000Y-85428095D01*
X660000Y-74399529D01*
X3494401Y-74399529D01*
X3618433Y-74598000D01*
X5110500Y-74598000D01*
X5110500Y-73440000D01*
X5364500Y-73440000D01*
X5364500Y-74598000D01*
X6856567Y-74598000D01*
X6980599Y-74399529D01*
X6973287Y-74350585D01*
X6876497Y-74116689D01*
X6735936Y-73906170D01*
X6557005Y-73727118D01*
X6346581Y-73586415D01*
X6112751Y-73489467D01*
X5864500Y-73440000D01*
X5364500Y-73440000D01*
X5110500Y-73440000D01*
X4610500Y-73440000D01*
X4362249Y-73489467D01*
X4128419Y-73586415D01*
X3917995Y-73727118D01*
X3739064Y-73906170D01*
X3598503Y-74116689D01*
X3501713Y-74350585D01*
X3494401Y-74399529D01*
X660000Y-74399529D01*
X660000Y-71950471D01*
X3494401Y-71950471D01*
X3501713Y-71999415D01*
X3598503Y-72233311D01*
X3739064Y-72443830D01*
X3917995Y-72622882D01*
X4128419Y-72763585D01*
X4362249Y-72860533D01*
X4610500Y-72910000D01*
X5110500Y-72910000D01*
X5110500Y-71752000D01*
X3618433Y-71752000D01*
X3494401Y-71950471D01*
X660000Y-71950471D01*
X660000Y-70305471D01*
X3494401Y-70305471D01*
X3501713Y-70354415D01*
X3598503Y-70588311D01*
X3739064Y-70798830D01*
X3742732Y-70802500D01*
X3739064Y-70806170D01*
X3598503Y-71016689D01*
X3501713Y-71250585D01*
X3494401Y-71299529D01*
X3618433Y-71498000D01*
X5110500Y-71498000D01*
X5110500Y-70107000D01*
X3618433Y-70107000D01*
X3494401Y-70305471D01*
X660000Y-70305471D01*
X660000Y-69654529D01*
X3494401Y-69654529D01*
X3618433Y-69853000D01*
X5110500Y-69853000D01*
X5110500Y-68695000D01*
X5364500Y-68695000D01*
X5364500Y-69853000D01*
X6856567Y-69853000D01*
X6980599Y-69654529D01*
X13019401Y-69654529D01*
X13143433Y-69853000D01*
X14635500Y-69853000D01*
X14635500Y-68695000D01*
X14889500Y-68695000D01*
X14889500Y-69853000D01*
X16381567Y-69853000D01*
X16505599Y-69654529D01*
X16498287Y-69605585D01*
X16401497Y-69371689D01*
X16260936Y-69161170D01*
X16082005Y-68982118D01*
X15871581Y-68841415D01*
X15637751Y-68744467D01*
X15389500Y-68695000D01*
X14889500Y-68695000D01*
X14635500Y-68695000D01*
X14135500Y-68695000D01*
X13887249Y-68744467D01*
X13653419Y-68841415D01*
X13442995Y-68982118D01*
X13264064Y-69161170D01*
X13123503Y-69371689D01*
X13026713Y-69605585D01*
X13019401Y-69654529D01*
X6980599Y-69654529D01*
X6973287Y-69605585D01*
X6876497Y-69371689D01*
X6735936Y-69161170D01*
X6557005Y-68982118D01*
X6346581Y-68841415D01*
X6112751Y-68744467D01*
X5864500Y-68695000D01*
X5364500Y-68695000D01*
X5110500Y-68695000D01*
X4610500Y-68695000D01*
X4362249Y-68744467D01*
X4128419Y-68841415D01*
X3917995Y-68982118D01*
X3739064Y-69161170D01*
X3598503Y-69371689D01*
X3501713Y-69605585D01*
X3494401Y-69654529D01*
X660000Y-69654529D01*
X660000Y-67205471D01*
X3494401Y-67205471D01*
X3501713Y-67254415D01*
X3598503Y-67488311D01*
X3739064Y-67698830D01*
X3917995Y-67877882D01*
X4128419Y-68018585D01*
X4362249Y-68115533D01*
X4610500Y-68165000D01*
X5110500Y-68165000D01*
X5110500Y-67007000D01*
X5364500Y-67007000D01*
X5364500Y-68165000D01*
X5864500Y-68165000D01*
X6112751Y-68115533D01*
X6346581Y-68018585D01*
X6557005Y-67877882D01*
X6735936Y-67698830D01*
X6876497Y-67488311D01*
X6973287Y-67254415D01*
X6980599Y-67205471D01*
X13019401Y-67205471D01*
X13026713Y-67254415D01*
X13123503Y-67488311D01*
X13264064Y-67698830D01*
X13442995Y-67877882D01*
X13653419Y-68018585D01*
X13887249Y-68115533D01*
X14135500Y-68165000D01*
X14635500Y-68165000D01*
X14635500Y-67007000D01*
X14889500Y-67007000D01*
X14889500Y-68165000D01*
X15389500Y-68165000D01*
X15637751Y-68115533D01*
X15871581Y-68018585D01*
X16082005Y-67877882D01*
X16260936Y-67698830D01*
X16401497Y-67488311D01*
X16498287Y-67254415D01*
X16505599Y-67205471D01*
X16381567Y-67007000D01*
X14889500Y-67007000D01*
X14635500Y-67007000D01*
X13143433Y-67007000D01*
X13019401Y-67205471D01*
X6980599Y-67205471D01*
X6856567Y-67007000D01*
X5364500Y-67007000D01*
X5110500Y-67007000D01*
X3618433Y-67007000D01*
X3494401Y-67205471D01*
X660000Y-67205471D01*
X660000Y-66554529D01*
X3494401Y-66554529D01*
X3618433Y-66753000D01*
X5110500Y-66753000D01*
X5110500Y-65595000D01*
X5364500Y-65595000D01*
X5364500Y-66753000D01*
X6856567Y-66753000D01*
X6980599Y-66554529D01*
X13019401Y-66554529D01*
X13143433Y-66753000D01*
X14635500Y-66753000D01*
X14635500Y-65595000D01*
X14889500Y-65595000D01*
X14889500Y-66753000D01*
X16381567Y-66753000D01*
X16505599Y-66554529D01*
X16498287Y-66505585D01*
X16401497Y-66271689D01*
X16260936Y-66061170D01*
X16082005Y-65882118D01*
X15871581Y-65741415D01*
X15637751Y-65644467D01*
X15389500Y-65595000D01*
X14889500Y-65595000D01*
X14635500Y-65595000D01*
X14135500Y-65595000D01*
X13887249Y-65644467D01*
X13653419Y-65741415D01*
X13442995Y-65882118D01*
X13264064Y-66061170D01*
X13123503Y-66271689D01*
X13026713Y-66505585D01*
X13019401Y-66554529D01*
X6980599Y-66554529D01*
X6973287Y-66505585D01*
X6876497Y-66271689D01*
X6735936Y-66061170D01*
X6557005Y-65882118D01*
X6346581Y-65741415D01*
X6112751Y-65644467D01*
X5864500Y-65595000D01*
X5364500Y-65595000D01*
X5110500Y-65595000D01*
X4610500Y-65595000D01*
X4362249Y-65644467D01*
X4128419Y-65741415D01*
X3917995Y-65882118D01*
X3739064Y-66061170D01*
X3598503Y-66271689D01*
X3501713Y-66505585D01*
X3494401Y-66554529D01*
X660000Y-66554529D01*
X660000Y-58580000D01*
X3446283Y-58580000D01*
X3471093Y-58831904D01*
X3544571Y-59074127D01*
X3663892Y-59297362D01*
X3824472Y-59493028D01*
X4020138Y-59653608D01*
X4243373Y-59772929D01*
X4485596Y-59846407D01*
X4674377Y-59865000D01*
X5800623Y-59865000D01*
X5989404Y-59846407D01*
X6231627Y-59772929D01*
X6454862Y-59653608D01*
X6650528Y-59493028D01*
X6811108Y-59297362D01*
X6930429Y-59074127D01*
X7003907Y-58831904D01*
X7028717Y-58580000D01*
X7003907Y-58328096D01*
X6930429Y-58085873D01*
X6811108Y-57862638D01*
X6650528Y-57666972D01*
X6454862Y-57506392D01*
X6231627Y-57387071D01*
X5989404Y-57313593D01*
X5800623Y-57295000D01*
X4674377Y-57295000D01*
X4485596Y-57313593D01*
X4243373Y-57387071D01*
X4020138Y-57506392D01*
X3824472Y-57666972D01*
X3663892Y-57862638D01*
X3544571Y-58085873D01*
X3471093Y-58328096D01*
X3446283Y-58580000D01*
X660000Y-58580000D01*
X660000Y-51733880D01*
X808102Y-51795226D01*
X1008061Y-51835000D01*
X1211939Y-51835000D01*
X1411898Y-51795226D01*
X1600256Y-51717205D01*
X1769774Y-51603937D01*
X1813711Y-51560000D01*
X9962667Y-51560000D01*
X10000000Y-51563677D01*
X10037333Y-51560000D01*
X10148986Y-51549003D01*
X10292247Y-51505546D01*
X10424276Y-51434974D01*
X10540001Y-51340001D01*
X10634974Y-51224276D01*
X10705546Y-51092247D01*
X10749003Y-50948986D01*
X10763677Y-50800000D01*
X10760000Y-50762667D01*
X10760000Y-47387002D01*
X12805000Y-47387002D01*
X12805000Y-48102997D01*
X12833867Y-48396087D01*
X12947943Y-48772146D01*
X13133193Y-49118725D01*
X13382497Y-49422503D01*
X13686275Y-49671807D01*
X14032853Y-49857057D01*
X14408912Y-49971133D01*
X14800000Y-50009652D01*
X15191087Y-49971133D01*
X15567146Y-49857057D01*
X15913725Y-49671807D01*
X16217503Y-49422503D01*
X16466807Y-49118725D01*
X16652057Y-48772147D01*
X16766133Y-48396088D01*
X16795000Y-48102998D01*
X16795000Y-47387003D01*
X16766133Y-47093913D01*
X16652057Y-46717853D01*
X16466807Y-46371275D01*
X16217503Y-46067497D01*
X15913725Y-45818193D01*
X15567147Y-45632943D01*
X15191088Y-45518867D01*
X14800000Y-45480348D01*
X14408913Y-45518867D01*
X14032854Y-45632943D01*
X13686276Y-45818193D01*
X13382498Y-46067497D01*
X13133193Y-46371275D01*
X12947943Y-46717853D01*
X12833867Y-47093912D01*
X12805000Y-47387002D01*
X10760000Y-47387002D01*
X10760000Y-46732027D01*
X10789852Y-46722972D01*
X10943387Y-46640905D01*
X11077962Y-46530462D01*
X11188405Y-46395887D01*
X11270472Y-46242352D01*
X11321008Y-46075756D01*
X11338072Y-45902502D01*
X11338072Y-45377498D01*
X11321008Y-45204244D01*
X11270472Y-45037648D01*
X11188405Y-44884113D01*
X11077962Y-44749538D01*
X11051109Y-44727500D01*
X11077962Y-44705462D01*
X11188405Y-44570887D01*
X11270472Y-44417352D01*
X11321008Y-44250756D01*
X11338072Y-44077502D01*
X11338072Y-43552498D01*
X11321008Y-43379244D01*
X11270472Y-43212648D01*
X11188405Y-43059113D01*
X11077962Y-42924538D01*
X10943387Y-42814095D01*
X10789852Y-42732028D01*
X10760000Y-42722973D01*
X10760000Y-42613313D01*
X10978505Y-42467312D01*
X11192312Y-42253505D01*
X11250000Y-42167169D01*
X11307688Y-42253505D01*
X11521495Y-42467312D01*
X11772905Y-42635299D01*
X12052257Y-42751011D01*
X12348816Y-42810000D01*
X12651184Y-42810000D01*
X12947743Y-42751011D01*
X13227095Y-42635299D01*
X13478505Y-42467312D01*
X13692312Y-42253505D01*
X13860299Y-42002095D01*
X13976011Y-41722743D01*
X14035000Y-41426184D01*
X14035000Y-41123816D01*
X13976011Y-40827257D01*
X13860299Y-40547905D01*
X13692312Y-40296495D01*
X13478505Y-40082688D01*
X13227095Y-39914701D01*
X12947743Y-39798989D01*
X12651184Y-39740000D01*
X12348816Y-39740000D01*
X12052257Y-39798989D01*
X11772905Y-39914701D01*
X11521495Y-40082688D01*
X11307688Y-40296495D01*
X11250000Y-40382831D01*
X11192312Y-40296495D01*
X10978505Y-40082688D01*
X10727095Y-39914701D01*
X10447743Y-39798989D01*
X10151184Y-39740000D01*
X9848816Y-39740000D01*
X9552257Y-39798989D01*
X9272905Y-39914701D01*
X9021495Y-40082688D01*
X8983880Y-40120303D01*
X8930537Y-40020506D01*
X8851185Y-39923815D01*
X8754494Y-39844463D01*
X8644180Y-39785498D01*
X8524482Y-39749188D01*
X8400000Y-39736928D01*
X6600000Y-39736928D01*
X6475518Y-39749188D01*
X6355820Y-39785498D01*
X6245506Y-39844463D01*
X6148815Y-39923815D01*
X6069463Y-40020506D01*
X6010498Y-40130820D01*
X5974188Y-40250518D01*
X5961928Y-40375000D01*
X5961928Y-42175000D01*
X5974188Y-42299482D01*
X6010498Y-42419180D01*
X6069463Y-42529494D01*
X6148815Y-42626185D01*
X6245506Y-42705537D01*
X6355820Y-42764502D01*
X6475518Y-42800812D01*
X6600000Y-42813072D01*
X8400000Y-42813072D01*
X8524482Y-42800812D01*
X8644180Y-42764502D01*
X8754494Y-42705537D01*
X8851185Y-42626185D01*
X8930537Y-42529494D01*
X8983880Y-42429697D01*
X9021495Y-42467312D01*
X9240001Y-42613313D01*
X9240001Y-42722972D01*
X9210148Y-42732028D01*
X9056613Y-42814095D01*
X8922038Y-42924538D01*
X8811595Y-43059113D01*
X8729528Y-43212648D01*
X8678992Y-43379244D01*
X8661928Y-43552498D01*
X8661928Y-44077502D01*
X8678992Y-44250756D01*
X8729528Y-44417352D01*
X8811595Y-44570887D01*
X8922038Y-44705462D01*
X8948891Y-44727500D01*
X8922038Y-44749538D01*
X8811595Y-44884113D01*
X8729528Y-45037648D01*
X8678992Y-45204244D01*
X8661928Y-45377498D01*
X8661928Y-45902502D01*
X8678992Y-46075756D01*
X8729528Y-46242352D01*
X8811595Y-46395887D01*
X8922038Y-46530462D01*
X9056613Y-46640905D01*
X9210148Y-46722972D01*
X9240001Y-46732028D01*
X9240000Y-50040000D01*
X1813711Y-50040000D01*
X1769774Y-49996063D01*
X1600256Y-49882795D01*
X1411898Y-49804774D01*
X1211939Y-49765000D01*
X1008061Y-49765000D01*
X808102Y-49804774D01*
X660000Y-49866120D01*
X660000Y-47387002D01*
X3205000Y-47387002D01*
X3205000Y-48102997D01*
X3233867Y-48396087D01*
X3347943Y-48772146D01*
X3533193Y-49118725D01*
X3782497Y-49422503D01*
X4086275Y-49671807D01*
X4432853Y-49857057D01*
X4808912Y-49971133D01*
X5200000Y-50009652D01*
X5591087Y-49971133D01*
X5967146Y-49857057D01*
X6313725Y-49671807D01*
X6617503Y-49422503D01*
X6866807Y-49118725D01*
X7052057Y-48772147D01*
X7166133Y-48396088D01*
X7195000Y-48102998D01*
X7195000Y-47387003D01*
X7166133Y-47093913D01*
X7052057Y-46717853D01*
X6866807Y-46371275D01*
X6617503Y-46067497D01*
X6313725Y-45818193D01*
X5967147Y-45632943D01*
X5591088Y-45518867D01*
X5200000Y-45480348D01*
X4808913Y-45518867D01*
X4432854Y-45632943D01*
X4086276Y-45818193D01*
X3782498Y-46067497D01*
X3533193Y-46371275D01*
X3347943Y-46717853D01*
X3233867Y-47093912D01*
X3205000Y-47387002D01*
X660000Y-47387002D01*
X660000Y-33417002D01*
X3205000Y-33417002D01*
X3205000Y-34132997D01*
X3233867Y-34426087D01*
X3347943Y-34802146D01*
X3533193Y-35148725D01*
X3782497Y-35452503D01*
X4086275Y-35701807D01*
X4432853Y-35887057D01*
X4808912Y-36001133D01*
X5200000Y-36039652D01*
X5591087Y-36001133D01*
X5967146Y-35887057D01*
X6313725Y-35701807D01*
X6617503Y-35452503D01*
X6866807Y-35148725D01*
X7052057Y-34802147D01*
X7166133Y-34426088D01*
X7195000Y-34132998D01*
X7195000Y-33417003D01*
X7166133Y-33123913D01*
X7052057Y-32747853D01*
X6866807Y-32401275D01*
X6617503Y-32097497D01*
X6313725Y-31848193D01*
X5967147Y-31662943D01*
X5591088Y-31548867D01*
X5200000Y-31510348D01*
X4808913Y-31548867D01*
X4432854Y-31662943D01*
X4086276Y-31848193D01*
X3782498Y-32097497D01*
X3533193Y-32401275D01*
X3347943Y-32747853D01*
X3233867Y-33123912D01*
X3205000Y-33417002D01*
X660000Y-33417002D01*
X660000Y-26405000D01*
X5961928Y-26405000D01*
X5961928Y-28205000D01*
X5974188Y-28329482D01*
X6010498Y-28449180D01*
X6069463Y-28559494D01*
X6148815Y-28656185D01*
X6245506Y-28735537D01*
X6355820Y-28794502D01*
X6475518Y-28830812D01*
X6600000Y-28843072D01*
X8400000Y-28843072D01*
X8524482Y-28830812D01*
X8644180Y-28794502D01*
X8754494Y-28735537D01*
X8851185Y-28656185D01*
X8930537Y-28559494D01*
X8983880Y-28459697D01*
X9021495Y-28497312D01*
X9240001Y-28643313D01*
X9240001Y-28752972D01*
X9210148Y-28762028D01*
X9056613Y-28844095D01*
X8922038Y-28954538D01*
X8811595Y-29089113D01*
X8729528Y-29242648D01*
X8678992Y-29409244D01*
X8661928Y-29582498D01*
X8661928Y-30107502D01*
X8678992Y-30280756D01*
X8729528Y-30447352D01*
X8811595Y-30600887D01*
X8922038Y-30735462D01*
X8948891Y-30757500D01*
X8922038Y-30779538D01*
X8811595Y-30914113D01*
X8729528Y-31067648D01*
X8678992Y-31234244D01*
X8661928Y-31407498D01*
X8661928Y-31932502D01*
X8678992Y-32105756D01*
X8729528Y-32272352D01*
X8811595Y-32425887D01*
X8922038Y-32560462D01*
X9056613Y-32670905D01*
X9210148Y-32752972D01*
X9240001Y-32762028D01*
X9240000Y-36792667D01*
X9236323Y-36830000D01*
X9250997Y-36978986D01*
X9294454Y-37122247D01*
X9365026Y-37254276D01*
X9459999Y-37370001D01*
X9575724Y-37464974D01*
X9707753Y-37535546D01*
X9851014Y-37579003D01*
X10000000Y-37593677D01*
X10037333Y-37590000D01*
X16916289Y-37590000D01*
X16960226Y-37633937D01*
X17129744Y-37747205D01*
X17318102Y-37825226D01*
X17518061Y-37865000D01*
X17721939Y-37865000D01*
X17921898Y-37825226D01*
X18110256Y-37747205D01*
X18279774Y-37633937D01*
X18423937Y-37489774D01*
X18537205Y-37320256D01*
X18615226Y-37131898D01*
X18655000Y-36931939D01*
X18655000Y-36728061D01*
X18615226Y-36528102D01*
X18537205Y-36339744D01*
X18423937Y-36170226D01*
X18279774Y-36026063D01*
X18110256Y-35912795D01*
X17921898Y-35834774D01*
X17721939Y-35795000D01*
X17518061Y-35795000D01*
X17318102Y-35834774D01*
X17129744Y-35912795D01*
X16960226Y-36026063D01*
X16916289Y-36070000D01*
X10760000Y-36070000D01*
X10760000Y-33417002D01*
X12805000Y-33417002D01*
X12805000Y-34132997D01*
X12833867Y-34426087D01*
X12947943Y-34802146D01*
X13133193Y-35148725D01*
X13382497Y-35452503D01*
X13686275Y-35701807D01*
X14032853Y-35887057D01*
X14408912Y-36001133D01*
X14800000Y-36039652D01*
X15191087Y-36001133D01*
X15567146Y-35887057D01*
X15913725Y-35701807D01*
X16217503Y-35452503D01*
X16466807Y-35148725D01*
X16652057Y-34802147D01*
X16766133Y-34426088D01*
X16795000Y-34132998D01*
X16795000Y-33417003D01*
X16766133Y-33123913D01*
X16652057Y-32747853D01*
X16466807Y-32401275D01*
X16217503Y-32097497D01*
X15913725Y-31848193D01*
X15567147Y-31662943D01*
X15191088Y-31548867D01*
X14800000Y-31510348D01*
X14408913Y-31548867D01*
X14032854Y-31662943D01*
X13686276Y-31848193D01*
X13382498Y-32097497D01*
X13133193Y-32401275D01*
X12947943Y-32747853D01*
X12833867Y-33123912D01*
X12805000Y-33417002D01*
X10760000Y-33417002D01*
X10760000Y-32762027D01*
X10789852Y-32752972D01*
X10943387Y-32670905D01*
X11077962Y-32560462D01*
X11188405Y-32425887D01*
X11270472Y-32272352D01*
X11321008Y-32105756D01*
X11338072Y-31932502D01*
X11338072Y-31407498D01*
X11321008Y-31234244D01*
X11270472Y-31067648D01*
X11188405Y-30914113D01*
X11077962Y-30779538D01*
X11051109Y-30757500D01*
X11077962Y-30735462D01*
X11188405Y-30600887D01*
X11270472Y-30447352D01*
X11321008Y-30280756D01*
X11338072Y-30107502D01*
X11338072Y-29582498D01*
X11321008Y-29409244D01*
X11270472Y-29242648D01*
X11188405Y-29089113D01*
X11077962Y-28954538D01*
X10943387Y-28844095D01*
X10789852Y-28762028D01*
X10760000Y-28752973D01*
X10760000Y-28643313D01*
X10978505Y-28497312D01*
X11192312Y-28283505D01*
X11250000Y-28197169D01*
X11307688Y-28283505D01*
X11521495Y-28497312D01*
X11772905Y-28665299D01*
X12052257Y-28781011D01*
X12348816Y-28840000D01*
X12651184Y-28840000D01*
X12947743Y-28781011D01*
X13227095Y-28665299D01*
X13478505Y-28497312D01*
X13692312Y-28283505D01*
X13860299Y-28032095D01*
X13976011Y-27752743D01*
X14035000Y-27456184D01*
X14035000Y-27153816D01*
X13976011Y-26857257D01*
X13860299Y-26577905D01*
X13692312Y-26326495D01*
X13478505Y-26112688D01*
X13227095Y-25944701D01*
X12947743Y-25828989D01*
X12651184Y-25770000D01*
X12348816Y-25770000D01*
X12052257Y-25828989D01*
X11772905Y-25944701D01*
X11521495Y-26112688D01*
X11307688Y-26326495D01*
X11250000Y-26412831D01*
X11192312Y-26326495D01*
X10978505Y-26112688D01*
X10727095Y-25944701D01*
X10447743Y-25828989D01*
X10151184Y-25770000D01*
X9848816Y-25770000D01*
X9552257Y-25828989D01*
X9272905Y-25944701D01*
X9021495Y-26112688D01*
X8983880Y-26150303D01*
X8930537Y-26050506D01*
X8851185Y-25953815D01*
X8754494Y-25874463D01*
X8644180Y-25815498D01*
X8524482Y-25779188D01*
X8400000Y-25766928D01*
X6600000Y-25766928D01*
X6475518Y-25779188D01*
X6355820Y-25815498D01*
X6245506Y-25874463D01*
X6148815Y-25953815D01*
X6069463Y-26050506D01*
X6010498Y-26160820D01*
X5974188Y-26280518D01*
X5961928Y-26405000D01*
X660000Y-26405000D01*
X660000Y-22758061D01*
X1345000Y-22758061D01*
X1345000Y-22961939D01*
X1384774Y-23161898D01*
X1462795Y-23350256D01*
X1576063Y-23519774D01*
X1720226Y-23663937D01*
X1889744Y-23777205D01*
X2078102Y-23855226D01*
X2278061Y-23895000D01*
X2481939Y-23895000D01*
X2681898Y-23855226D01*
X2870256Y-23777205D01*
X3039774Y-23663937D01*
X3083711Y-23620000D01*
X9962667Y-23620000D01*
X10000000Y-23623677D01*
X10037333Y-23620000D01*
X10148986Y-23609003D01*
X10292247Y-23565546D01*
X10424276Y-23494974D01*
X10540001Y-23400001D01*
X10634974Y-23284276D01*
X10705546Y-23152247D01*
X10749003Y-23008986D01*
X10763677Y-22860000D01*
X10760000Y-22822667D01*
X10760000Y-19447002D01*
X12805000Y-19447002D01*
X12805000Y-20162997D01*
X12833867Y-20456087D01*
X12947943Y-20832146D01*
X13133193Y-21178725D01*
X13382497Y-21482503D01*
X13686275Y-21731807D01*
X14032853Y-21917057D01*
X14408912Y-22031133D01*
X14800000Y-22069652D01*
X15191087Y-22031133D01*
X15567146Y-21917057D01*
X15913725Y-21731807D01*
X16217503Y-21482503D01*
X16466807Y-21178725D01*
X16652057Y-20832147D01*
X16766133Y-20456088D01*
X16795000Y-20162998D01*
X16795000Y-19447003D01*
X16766133Y-19153913D01*
X16652057Y-18777853D01*
X16466807Y-18431275D01*
X16217503Y-18127497D01*
X15913725Y-17878193D01*
X15567147Y-17692943D01*
X15191088Y-17578867D01*
X14800000Y-17540348D01*
X14408913Y-17578867D01*
X14032854Y-17692943D01*
X13686276Y-17878193D01*
X13382498Y-18127497D01*
X13133193Y-18431275D01*
X12947943Y-18777853D01*
X12833867Y-19153912D01*
X12805000Y-19447002D01*
X10760000Y-19447002D01*
X10760000Y-18872027D01*
X10789852Y-18862972D01*
X10943387Y-18780905D01*
X11077962Y-18670462D01*
X11188405Y-18535887D01*
X11270472Y-18382352D01*
X11321008Y-18215756D01*
X11338072Y-18042502D01*
X11338072Y-17517498D01*
X11321008Y-17344244D01*
X11270472Y-17177648D01*
X11188405Y-17024113D01*
X11077962Y-16889538D01*
X11051109Y-16867500D01*
X11077962Y-16845462D01*
X11188405Y-16710887D01*
X11270472Y-16557352D01*
X11321008Y-16390756D01*
X11338072Y-16217502D01*
X11338072Y-15692498D01*
X11321008Y-15519244D01*
X11270472Y-15352648D01*
X11188405Y-15199113D01*
X11077962Y-15064538D01*
X10943387Y-14954095D01*
X10789852Y-14872028D01*
X10760000Y-14862973D01*
X10760000Y-14673313D01*
X10978505Y-14527312D01*
X11192312Y-14313505D01*
X11250000Y-14227169D01*
X11307688Y-14313505D01*
X11521495Y-14527312D01*
X11772905Y-14695299D01*
X12052257Y-14811011D01*
X12348816Y-14870000D01*
X12651184Y-14870000D01*
X12947743Y-14811011D01*
X13227095Y-14695299D01*
X13478505Y-14527312D01*
X13692312Y-14313505D01*
X13860299Y-14062095D01*
X13976011Y-13782743D01*
X14035000Y-13486184D01*
X14035000Y-13183816D01*
X13976011Y-12887257D01*
X13860299Y-12607905D01*
X13692312Y-12356495D01*
X13478505Y-12142688D01*
X13227095Y-11974701D01*
X12947743Y-11858989D01*
X12651184Y-11800000D01*
X12348816Y-11800000D01*
X12052257Y-11858989D01*
X11772905Y-11974701D01*
X11521495Y-12142688D01*
X11307688Y-12356495D01*
X11250000Y-12442831D01*
X11192312Y-12356495D01*
X10978505Y-12142688D01*
X10727095Y-11974701D01*
X10447743Y-11858989D01*
X10151184Y-11800000D01*
X9848816Y-11800000D01*
X9552257Y-11858989D01*
X9272905Y-11974701D01*
X9021495Y-12142688D01*
X8983880Y-12180303D01*
X8930537Y-12080506D01*
X8851185Y-11983815D01*
X8754494Y-11904463D01*
X8644180Y-11845498D01*
X8524482Y-11809188D01*
X8400000Y-11796928D01*
X6600000Y-11796928D01*
X6475518Y-11809188D01*
X6355820Y-11845498D01*
X6245506Y-11904463D01*
X6148815Y-11983815D01*
X6069463Y-12080506D01*
X6010498Y-12190820D01*
X5974188Y-12310518D01*
X5961928Y-12435000D01*
X5961928Y-14235000D01*
X5974188Y-14359482D01*
X6010498Y-14479180D01*
X6069463Y-14589494D01*
X6148815Y-14686185D01*
X6245506Y-14765537D01*
X6355820Y-14824502D01*
X6475518Y-14860812D01*
X6600000Y-14873072D01*
X8400000Y-14873072D01*
X8524482Y-14860812D01*
X8644180Y-14824502D01*
X8754494Y-14765537D01*
X8851185Y-14686185D01*
X8930537Y-14589494D01*
X8983880Y-14489697D01*
X9021495Y-14527312D01*
X9240001Y-14673313D01*
X9240001Y-14862972D01*
X9210148Y-14872028D01*
X9056613Y-14954095D01*
X8922038Y-15064538D01*
X8811595Y-15199113D01*
X8729528Y-15352648D01*
X8678992Y-15519244D01*
X8661928Y-15692498D01*
X8661928Y-16217502D01*
X8678992Y-16390756D01*
X8729528Y-16557352D01*
X8811595Y-16710887D01*
X8922038Y-16845462D01*
X8948891Y-16867500D01*
X8922038Y-16889538D01*
X8811595Y-17024113D01*
X8729528Y-17177648D01*
X8678992Y-17344244D01*
X8661928Y-17517498D01*
X8661928Y-18042502D01*
X8678992Y-18215756D01*
X8729528Y-18382352D01*
X8811595Y-18535887D01*
X8922038Y-18670462D01*
X9056613Y-18780905D01*
X9210148Y-18862972D01*
X9240001Y-18872028D01*
X9240000Y-22100000D01*
X3083711Y-22100000D01*
X3039774Y-22056063D01*
X2870256Y-21942795D01*
X2681898Y-21864774D01*
X2481939Y-21825000D01*
X2278061Y-21825000D01*
X2078102Y-21864774D01*
X1889744Y-21942795D01*
X1720226Y-22056063D01*
X1576063Y-22200226D01*
X1462795Y-22369744D01*
X1384774Y-22558102D01*
X1345000Y-22758061D01*
X660000Y-22758061D01*
X660000Y-19447002D01*
X3205000Y-19447002D01*
X3205000Y-20162997D01*
X3233867Y-20456087D01*
X3347943Y-20832146D01*
X3533193Y-21178725D01*
X3782497Y-21482503D01*
X4086275Y-21731807D01*
X4432853Y-21917057D01*
X4808912Y-22031133D01*
X5200000Y-22069652D01*
X5591087Y-22031133D01*
X5967146Y-21917057D01*
X6313725Y-21731807D01*
X6617503Y-21482503D01*
X6866807Y-21178725D01*
X7052057Y-20832147D01*
X7166133Y-20456088D01*
X7195000Y-20162998D01*
X7195000Y-19447003D01*
X7166133Y-19153913D01*
X7052057Y-18777853D01*
X6866807Y-18431275D01*
X6617503Y-18127497D01*
X6313725Y-17878193D01*
X5967147Y-17692943D01*
X5591088Y-17578867D01*
X5200000Y-17540348D01*
X4808913Y-17578867D01*
X4432854Y-17692943D01*
X4086276Y-17878193D01*
X3782498Y-18127497D01*
X3533193Y-18431275D01*
X3347943Y-18777853D01*
X3233867Y-19153912D01*
X3205000Y-19447002D01*
X660000Y-19447002D01*
X660000Y-5477002D01*
X3205000Y-5477002D01*
X3205000Y-6192997D01*
X3233867Y-6486087D01*
X3347943Y-6862146D01*
X3533193Y-7208725D01*
X3782497Y-7512503D01*
X4086275Y-7761807D01*
X4432853Y-7947057D01*
X4808912Y-8061133D01*
X5200000Y-8099652D01*
X5591087Y-8061133D01*
X5967146Y-7947057D01*
X6313725Y-7761807D01*
X6617503Y-7512503D01*
X6866807Y-7208725D01*
X7052057Y-6862147D01*
X7166133Y-6486088D01*
X7195000Y-6192998D01*
X7195000Y-5477003D01*
X7195000Y-5477002D01*
X12805000Y-5477002D01*
X12805000Y-6192997D01*
X12833867Y-6486087D01*
X12947943Y-6862146D01*
X13133193Y-7208725D01*
X13382497Y-7512503D01*
X13686275Y-7761807D01*
X14032853Y-7947057D01*
X14408912Y-8061133D01*
X14800000Y-8099652D01*
X15191087Y-8061133D01*
X15567146Y-7947057D01*
X15913725Y-7761807D01*
X16217503Y-7512503D01*
X16466807Y-7208725D01*
X16652057Y-6862147D01*
X16766133Y-6486088D01*
X16795000Y-6192998D01*
X16795000Y-5477003D01*
X16766133Y-5183913D01*
X16652057Y-4807853D01*
X16466807Y-4461275D01*
X16217503Y-4157497D01*
X15913725Y-3908193D01*
X15567147Y-3722943D01*
X15191088Y-3608867D01*
X14800000Y-3570348D01*
X14408913Y-3608867D01*
X14032854Y-3722943D01*
X13686276Y-3908193D01*
X13382498Y-4157497D01*
X13133193Y-4461275D01*
X12947943Y-4807853D01*
X12833867Y-5183912D01*
X12805000Y-5477002D01*
X7195000Y-5477002D01*
X7166133Y-5183913D01*
X7052057Y-4807853D01*
X6866807Y-4461275D01*
X6617503Y-4157497D01*
X6313725Y-3908193D01*
X5967147Y-3722943D01*
X5591088Y-3608867D01*
X5200000Y-3570348D01*
X4808913Y-3608867D01*
X4432854Y-3722943D01*
X4086276Y-3908193D01*
X3782498Y-4157497D01*
X3533193Y-4461275D01*
X3347943Y-4807853D01*
X3233867Y-5183912D01*
X3205000Y-5477002D01*
X660000Y-5477002D01*
X660000Y-660000D01*
X19340000Y-660000D01*
X19340001Y-60026121D01*
G04 #@! TA.AperFunction,Conductor*
D21*
G36*
X19340001Y-60026121D02*
G01*
X19191898Y-59964774D01*
X18991939Y-59925000D01*
X18788061Y-59925000D01*
X18588102Y-59964774D01*
X18399744Y-60042795D01*
X18230226Y-60156063D01*
X18186289Y-60200000D01*
X11096806Y-60200000D01*
X11188405Y-60088387D01*
X11270472Y-59934852D01*
X11321008Y-59768256D01*
X11338072Y-59595002D01*
X11338072Y-59069998D01*
X11321008Y-58896744D01*
X11270472Y-58730148D01*
X11190216Y-58580000D01*
X12971283Y-58580000D01*
X12996093Y-58831904D01*
X13069571Y-59074127D01*
X13188892Y-59297362D01*
X13349472Y-59493028D01*
X13545138Y-59653608D01*
X13768373Y-59772929D01*
X14010596Y-59846407D01*
X14199377Y-59865000D01*
X15325623Y-59865000D01*
X15514404Y-59846407D01*
X15756627Y-59772929D01*
X15979862Y-59653608D01*
X16175528Y-59493028D01*
X16336108Y-59297362D01*
X16455429Y-59074127D01*
X16528907Y-58831904D01*
X16553717Y-58580000D01*
X16528907Y-58328096D01*
X16455429Y-58085873D01*
X16336108Y-57862638D01*
X16175528Y-57666972D01*
X15979862Y-57506392D01*
X15756627Y-57387071D01*
X15514404Y-57313593D01*
X15325623Y-57295000D01*
X14199377Y-57295000D01*
X14010596Y-57313593D01*
X13768373Y-57387071D01*
X13545138Y-57506392D01*
X13349472Y-57666972D01*
X13188892Y-57862638D01*
X13069571Y-58085873D01*
X12996093Y-58328096D01*
X12971283Y-58580000D01*
X11190216Y-58580000D01*
X11188405Y-58576613D01*
X11077962Y-58442038D01*
X11051109Y-58420000D01*
X11077962Y-58397962D01*
X11188405Y-58263387D01*
X11270472Y-58109852D01*
X11321008Y-57943256D01*
X11338072Y-57770002D01*
X11338072Y-57244998D01*
X11321008Y-57071744D01*
X11270472Y-56905148D01*
X11188405Y-56751613D01*
X11077962Y-56617038D01*
X10943387Y-56506595D01*
X10905291Y-56486232D01*
X10978505Y-56437312D01*
X11192312Y-56223505D01*
X11250000Y-56137169D01*
X11307688Y-56223505D01*
X11521495Y-56437312D01*
X11772905Y-56605299D01*
X12052257Y-56721011D01*
X12348816Y-56780000D01*
X12651184Y-56780000D01*
X12947743Y-56721011D01*
X13227095Y-56605299D01*
X13478505Y-56437312D01*
X13692312Y-56223505D01*
X13860299Y-55972095D01*
X13976011Y-55692743D01*
X14035000Y-55396184D01*
X14035000Y-55093816D01*
X13976011Y-54797257D01*
X13860299Y-54517905D01*
X13692312Y-54266495D01*
X13478505Y-54052688D01*
X13227095Y-53884701D01*
X12947743Y-53768989D01*
X12651184Y-53710000D01*
X12348816Y-53710000D01*
X12052257Y-53768989D01*
X11772905Y-53884701D01*
X11521495Y-54052688D01*
X11307688Y-54266495D01*
X11250000Y-54352831D01*
X11192312Y-54266495D01*
X10978505Y-54052688D01*
X10727095Y-53884701D01*
X10447743Y-53768989D01*
X10151184Y-53710000D01*
X9848816Y-53710000D01*
X9552257Y-53768989D01*
X9272905Y-53884701D01*
X9021495Y-54052688D01*
X8983880Y-54090303D01*
X8930537Y-53990506D01*
X8851185Y-53893815D01*
X8754494Y-53814463D01*
X8644180Y-53755498D01*
X8524482Y-53719188D01*
X8400000Y-53706928D01*
X6600000Y-53706928D01*
X6475518Y-53719188D01*
X6355820Y-53755498D01*
X6245506Y-53814463D01*
X6148815Y-53893815D01*
X6069463Y-53990506D01*
X6010498Y-54100820D01*
X5974188Y-54220518D01*
X5961928Y-54345000D01*
X5961928Y-56145000D01*
X5974188Y-56269482D01*
X6010498Y-56389180D01*
X6069463Y-56499494D01*
X6148815Y-56596185D01*
X6245506Y-56675537D01*
X6355820Y-56734502D01*
X6475518Y-56770812D01*
X6600000Y-56783072D01*
X8400000Y-56783072D01*
X8524482Y-56770812D01*
X8644180Y-56734502D01*
X8754494Y-56675537D01*
X8851185Y-56596185D01*
X8930537Y-56499494D01*
X8983880Y-56399697D01*
X9021495Y-56437312D01*
X9094709Y-56486232D01*
X9056613Y-56506595D01*
X8922038Y-56617038D01*
X8811595Y-56751613D01*
X8729528Y-56905148D01*
X8678992Y-57071744D01*
X8661928Y-57244998D01*
X8661928Y-57770002D01*
X8678992Y-57943256D01*
X8729528Y-58109852D01*
X8811595Y-58263387D01*
X8922038Y-58397962D01*
X8948891Y-58420000D01*
X8922038Y-58442038D01*
X8811595Y-58576613D01*
X8729528Y-58730148D01*
X8678992Y-58896744D01*
X8661928Y-59069998D01*
X8661928Y-59595002D01*
X8678992Y-59768256D01*
X8729528Y-59934852D01*
X8811595Y-60088387D01*
X8922038Y-60222962D01*
X9056613Y-60333405D01*
X9210148Y-60415472D01*
X9240000Y-60424528D01*
X9240000Y-60922667D01*
X9236323Y-60960000D01*
X9250997Y-61108986D01*
X9294454Y-61252247D01*
X9365026Y-61384276D01*
X9459999Y-61500001D01*
X9575724Y-61594974D01*
X9707753Y-61665546D01*
X9851014Y-61709003D01*
X10000000Y-61723677D01*
X10037333Y-61720000D01*
X18186289Y-61720000D01*
X18230226Y-61763937D01*
X18399744Y-61877205D01*
X18588102Y-61955226D01*
X18788061Y-61995000D01*
X18991939Y-61995000D01*
X19191898Y-61955226D01*
X19340001Y-61893879D01*
X19340001Y-72019200D01*
X19199804Y-71879003D01*
X19176001Y-71849999D01*
X19060276Y-71755026D01*
X18928247Y-71684454D01*
X18817329Y-71650808D01*
X18808405Y-71634113D01*
X18697962Y-71499538D01*
X18563387Y-71389095D01*
X18409852Y-71307028D01*
X18243256Y-71256492D01*
X18070002Y-71239428D01*
X17169998Y-71239428D01*
X16996744Y-71256492D01*
X16830148Y-71307028D01*
X16676613Y-71389095D01*
X16543914Y-71497998D01*
X16381568Y-71497998D01*
X16505599Y-71299529D01*
X16498287Y-71250585D01*
X16401497Y-71016689D01*
X16260936Y-70806170D01*
X16257268Y-70802500D01*
X16260936Y-70798830D01*
X16401497Y-70588311D01*
X16498287Y-70354415D01*
X16505599Y-70305471D01*
X16381567Y-70107000D01*
X14889500Y-70107000D01*
X14889500Y-71498000D01*
X14909500Y-71498000D01*
X14909500Y-71752000D01*
X14889500Y-71752000D01*
X14889500Y-72910000D01*
X15389500Y-72910000D01*
X15637751Y-72860533D01*
X15871581Y-72763585D01*
X16082005Y-72622882D01*
X16260936Y-72443830D01*
X16281928Y-72412390D01*
X16281928Y-72652502D01*
X16298992Y-72825756D01*
X16349528Y-72992352D01*
X16431595Y-73145887D01*
X16542038Y-73280462D01*
X16568891Y-73302500D01*
X16542038Y-73324538D01*
X16431595Y-73459113D01*
X16349528Y-73612648D01*
X16298992Y-73779244D01*
X16282885Y-73942786D01*
X16175528Y-73811972D01*
X15979862Y-73651392D01*
X15756627Y-73532071D01*
X15514404Y-73458593D01*
X15325623Y-73440000D01*
X14199377Y-73440000D01*
X14010596Y-73458593D01*
X13768373Y-73532071D01*
X13545138Y-73651392D01*
X13349472Y-73811972D01*
X13188892Y-74007638D01*
X13069571Y-74230873D01*
X12996093Y-74473096D01*
X12971283Y-74725000D01*
X12996093Y-74976904D01*
X13069571Y-75219127D01*
X13188892Y-75442362D01*
X13349472Y-75638028D01*
X13545138Y-75798608D01*
X13768373Y-75917929D01*
X14010596Y-75991407D01*
X14199377Y-76010000D01*
X15325623Y-76010000D01*
X15514404Y-75991407D01*
X15756627Y-75917929D01*
X15979862Y-75798608D01*
X16175528Y-75638028D01*
X16301116Y-75485000D01*
X17072678Y-75485000D01*
X17110000Y-75488676D01*
X17147322Y-75485000D01*
X17147333Y-75485000D01*
X17258986Y-75474003D01*
X17402247Y-75430546D01*
X17523803Y-75365572D01*
X18070002Y-75365572D01*
X18130001Y-75359663D01*
X18130000Y-78555846D01*
X17983256Y-78457795D01*
X17794898Y-78379774D01*
X17594939Y-78340000D01*
X17391061Y-78340000D01*
X17191102Y-78379774D01*
X17053072Y-78436948D01*
X17053072Y-78199998D01*
X17036008Y-78026744D01*
X16985472Y-77860148D01*
X16903405Y-77706613D01*
X16792962Y-77572038D01*
X16658387Y-77461595D01*
X16504852Y-77379528D01*
X16338256Y-77328992D01*
X16165002Y-77311928D01*
X15264998Y-77311928D01*
X15091744Y-77328992D01*
X14925148Y-77379528D01*
X14771613Y-77461595D01*
X14637038Y-77572038D01*
X14526595Y-77706613D01*
X14444528Y-77860148D01*
X14408172Y-77980000D01*
X14049870Y-77980000D01*
X14075812Y-77894482D01*
X14088072Y-77770000D01*
X14085000Y-77755750D01*
X13926250Y-77597000D01*
X12602000Y-77597000D01*
X12602000Y-77617000D01*
X12348000Y-77617000D01*
X12348000Y-77597000D01*
X12328000Y-77597000D01*
X12328000Y-77343000D01*
X12348000Y-77343000D01*
X12348000Y-76693750D01*
X12602000Y-76693750D01*
X12602000Y-77343000D01*
X13926250Y-77343000D01*
X14085000Y-77184250D01*
X14088072Y-77170000D01*
X14075812Y-77045518D01*
X14039502Y-76925820D01*
X13980537Y-76815506D01*
X13901185Y-76718815D01*
X13804494Y-76639463D01*
X13694180Y-76580498D01*
X13574482Y-76544188D01*
X13450000Y-76531928D01*
X12760750Y-76535000D01*
X12602000Y-76693750D01*
X12348000Y-76693750D01*
X12189250Y-76535000D01*
X11500000Y-76531928D01*
X11395000Y-76542269D01*
X11395000Y-76115030D01*
X11525462Y-76007962D01*
X11635905Y-75873387D01*
X11717972Y-75719852D01*
X11768508Y-75553256D01*
X11785572Y-75380002D01*
X11785572Y-74479998D01*
X11768508Y-74306744D01*
X11717972Y-74140148D01*
X11635905Y-73986613D01*
X11525462Y-73852038D01*
X11395000Y-73744970D01*
X11395000Y-72935322D01*
X11398676Y-72897999D01*
X11395000Y-72860676D01*
X11395000Y-72860667D01*
X11384003Y-72749014D01*
X11340546Y-72605753D01*
X11269974Y-72473724D01*
X11175001Y-72357999D01*
X11146002Y-72334200D01*
X10762273Y-71950471D01*
X13019401Y-71950471D01*
X13026713Y-71999415D01*
X13123503Y-72233311D01*
X13264064Y-72443830D01*
X13442995Y-72622882D01*
X13653419Y-72763585D01*
X13887249Y-72860533D01*
X14135500Y-72910000D01*
X14635500Y-72910000D01*
X14635500Y-71752000D01*
X13143433Y-71752000D01*
X13019401Y-71950471D01*
X10762273Y-71950471D01*
X10690803Y-71879002D01*
X10667001Y-71849999D01*
X10551276Y-71755026D01*
X10419247Y-71684454D01*
X10275986Y-71640997D01*
X10164333Y-71630000D01*
X10164322Y-71630000D01*
X10127000Y-71626324D01*
X10089678Y-71630000D01*
X8163711Y-71630000D01*
X8119774Y-71586063D01*
X7950256Y-71472795D01*
X7761898Y-71394774D01*
X7561939Y-71355000D01*
X7358061Y-71355000D01*
X7158102Y-71394774D01*
X6969744Y-71472795D01*
X6932025Y-71497998D01*
X6856568Y-71497998D01*
X6980599Y-71299529D01*
X6973287Y-71250585D01*
X6876497Y-71016689D01*
X6735936Y-70806170D01*
X6732268Y-70802500D01*
X6735936Y-70798830D01*
X6876497Y-70588311D01*
X6973287Y-70354415D01*
X6980599Y-70305471D01*
X13019401Y-70305471D01*
X13026713Y-70354415D01*
X13123503Y-70588311D01*
X13264064Y-70798830D01*
X13267732Y-70802500D01*
X13264064Y-70806170D01*
X13123503Y-71016689D01*
X13026713Y-71250585D01*
X13019401Y-71299529D01*
X13143433Y-71498000D01*
X14635500Y-71498000D01*
X14635500Y-70107000D01*
X13143433Y-70107000D01*
X13019401Y-70305471D01*
X6980599Y-70305471D01*
X6856567Y-70107000D01*
X5364500Y-70107000D01*
X5364500Y-71498000D01*
X5384500Y-71498000D01*
X5384500Y-71752000D01*
X5364500Y-71752000D01*
X5364500Y-72910000D01*
X5864500Y-72910000D01*
X6112751Y-72860533D01*
X6346581Y-72763585D01*
X6463485Y-72685416D01*
X6464774Y-72691898D01*
X6542795Y-72880256D01*
X6656063Y-73049774D01*
X6800226Y-73193937D01*
X6969744Y-73307205D01*
X7158102Y-73385226D01*
X7358061Y-73425000D01*
X7561939Y-73425000D01*
X7761898Y-73385226D01*
X7950256Y-73307205D01*
X8119774Y-73193937D01*
X8163711Y-73150000D01*
X9812199Y-73150000D01*
X9875001Y-73212802D01*
X9875001Y-73744970D01*
X9744538Y-73852038D01*
X9722500Y-73878891D01*
X9700462Y-73852038D01*
X9565887Y-73741595D01*
X9412352Y-73659528D01*
X9245756Y-73608992D01*
X9072502Y-73591928D01*
X8547498Y-73591928D01*
X8374244Y-73608992D01*
X8207648Y-73659528D01*
X8054113Y-73741595D01*
X7919538Y-73852038D01*
X7809095Y-73986613D01*
X7727028Y-74140148D01*
X7676492Y-74306744D01*
X7659428Y-74479998D01*
X7659428Y-75380002D01*
X7676492Y-75553256D01*
X7727028Y-75719852D01*
X7809095Y-75873387D01*
X7844414Y-75916423D01*
X7812795Y-75963744D01*
X7734774Y-76152102D01*
X7695000Y-76352061D01*
X7695000Y-76531928D01*
X6700000Y-76531928D01*
X6546255Y-76547071D01*
X6398418Y-76591916D01*
X6262171Y-76664742D01*
X6142749Y-76762749D01*
X6044742Y-76882171D01*
X5971916Y-77018418D01*
X5927071Y-77166255D01*
X5911928Y-77320000D01*
X5911928Y-77620000D01*
X5927071Y-77773745D01*
X5971916Y-77921582D01*
X6043730Y-78055936D01*
X6019463Y-78085506D01*
X5960498Y-78195820D01*
X5924188Y-78315518D01*
X5911928Y-78440000D01*
X5915000Y-78454250D01*
X6073750Y-78613000D01*
X7398000Y-78613000D01*
X7398000Y-78593000D01*
X7652000Y-78593000D01*
X7652000Y-78613000D01*
X7672000Y-78613000D01*
X7672000Y-78867000D01*
X7652000Y-78867000D01*
X7652000Y-78887000D01*
X7398000Y-78887000D01*
X7398000Y-78867000D01*
X6112213Y-78867000D01*
X6056887Y-78821595D01*
X5903352Y-78739528D01*
X5736756Y-78688992D01*
X5684663Y-78683861D01*
X5299000Y-78298199D01*
X5299000Y-78173711D01*
X5342937Y-78129774D01*
X5456205Y-77960256D01*
X5534226Y-77771898D01*
X5574000Y-77571939D01*
X5574000Y-77368061D01*
X5534226Y-77168102D01*
X5456205Y-76979744D01*
X5342937Y-76810226D01*
X5198774Y-76666063D01*
X5029256Y-76552795D01*
X4840898Y-76474774D01*
X4640939Y-76435000D01*
X4511000Y-76435000D01*
X4511000Y-76352061D01*
X4471226Y-76152102D01*
X4394540Y-75966967D01*
X4610500Y-76010000D01*
X5110500Y-76010000D01*
X5110500Y-74852000D01*
X5364500Y-74852000D01*
X5364500Y-76010000D01*
X5864500Y-76010000D01*
X6112751Y-75960533D01*
X6346581Y-75863585D01*
X6557005Y-75722882D01*
X6735936Y-75543830D01*
X6876497Y-75333311D01*
X6973287Y-75099415D01*
X6980599Y-75050471D01*
X6856567Y-74852000D01*
X5364500Y-74852000D01*
X5110500Y-74852000D01*
X3618433Y-74852000D01*
X3494401Y-75050471D01*
X3501713Y-75099415D01*
X3598503Y-75333311D01*
X3667628Y-75436840D01*
X3577939Y-75419000D01*
X3374061Y-75419000D01*
X3174102Y-75458774D01*
X2985744Y-75536795D01*
X2816226Y-75650063D01*
X2672063Y-75794226D01*
X2558795Y-75963744D01*
X2480774Y-76152102D01*
X2441000Y-76352061D01*
X2441000Y-76555939D01*
X2480774Y-76755898D01*
X2558795Y-76944256D01*
X2672063Y-77113774D01*
X2716001Y-77157712D01*
X2716000Y-78824970D01*
X2585538Y-78932038D01*
X2475095Y-79066613D01*
X2393028Y-79220148D01*
X2342492Y-79386744D01*
X2325428Y-79559998D01*
X2325428Y-80460002D01*
X2342492Y-80633256D01*
X2393028Y-80799852D01*
X2475095Y-80953387D01*
X2585538Y-81087962D01*
X2720113Y-81198405D01*
X2721497Y-81199145D01*
X2726997Y-81254985D01*
X2762029Y-81370472D01*
X2770454Y-81398246D01*
X2841026Y-81530276D01*
X2875470Y-81572246D01*
X2935999Y-81646001D01*
X2965003Y-81669804D01*
X3086196Y-81790997D01*
X3109999Y-81820001D01*
X3225724Y-81914974D01*
X3357753Y-81985546D01*
X3501014Y-82029003D01*
X3612667Y-82040000D01*
X3612676Y-82040000D01*
X3649999Y-82043676D01*
X3687322Y-82040000D01*
X3912170Y-82040000D01*
X3824472Y-82111972D01*
X3663892Y-82307638D01*
X3544571Y-82530873D01*
X3471093Y-82773096D01*
X3446283Y-83025000D01*
X3471093Y-83276904D01*
X3544571Y-83519127D01*
X3663892Y-83742362D01*
X3723505Y-83815000D01*
X2137322Y-83815000D01*
X2099999Y-83811324D01*
X2062676Y-83815000D01*
X2062667Y-83815000D01*
X1951014Y-83825997D01*
X1807753Y-83869454D01*
X1675724Y-83940026D01*
X1559999Y-84034999D01*
X1536200Y-84063998D01*
X1113998Y-84486201D01*
X1085000Y-84509999D01*
X1061202Y-84538997D01*
X1061201Y-84538998D01*
X990026Y-84625724D01*
X919454Y-84757754D01*
X875998Y-84901015D01*
X861324Y-85050000D01*
X865001Y-85087332D01*
X865001Y-85225229D01*
X747038Y-85322038D01*
X660000Y-85428095D01*
X660000Y-74399529D01*
X3494401Y-74399529D01*
X3618433Y-74598000D01*
X5110500Y-74598000D01*
X5110500Y-73440000D01*
X5364500Y-73440000D01*
X5364500Y-74598000D01*
X6856567Y-74598000D01*
X6980599Y-74399529D01*
X6973287Y-74350585D01*
X6876497Y-74116689D01*
X6735936Y-73906170D01*
X6557005Y-73727118D01*
X6346581Y-73586415D01*
X6112751Y-73489467D01*
X5864500Y-73440000D01*
X5364500Y-73440000D01*
X5110500Y-73440000D01*
X4610500Y-73440000D01*
X4362249Y-73489467D01*
X4128419Y-73586415D01*
X3917995Y-73727118D01*
X3739064Y-73906170D01*
X3598503Y-74116689D01*
X3501713Y-74350585D01*
X3494401Y-74399529D01*
X660000Y-74399529D01*
X660000Y-71950471D01*
X3494401Y-71950471D01*
X3501713Y-71999415D01*
X3598503Y-72233311D01*
X3739064Y-72443830D01*
X3917995Y-72622882D01*
X4128419Y-72763585D01*
X4362249Y-72860533D01*
X4610500Y-72910000D01*
X5110500Y-72910000D01*
X5110500Y-71752000D01*
X3618433Y-71752000D01*
X3494401Y-71950471D01*
X660000Y-71950471D01*
X660000Y-70305471D01*
X3494401Y-70305471D01*
X3501713Y-70354415D01*
X3598503Y-70588311D01*
X3739064Y-70798830D01*
X3742732Y-70802500D01*
X3739064Y-70806170D01*
X3598503Y-71016689D01*
X3501713Y-71250585D01*
X3494401Y-71299529D01*
X3618433Y-71498000D01*
X5110500Y-71498000D01*
X5110500Y-70107000D01*
X3618433Y-70107000D01*
X3494401Y-70305471D01*
X660000Y-70305471D01*
X660000Y-69654529D01*
X3494401Y-69654529D01*
X3618433Y-69853000D01*
X5110500Y-69853000D01*
X5110500Y-68695000D01*
X5364500Y-68695000D01*
X5364500Y-69853000D01*
X6856567Y-69853000D01*
X6980599Y-69654529D01*
X13019401Y-69654529D01*
X13143433Y-69853000D01*
X14635500Y-69853000D01*
X14635500Y-68695000D01*
X14889500Y-68695000D01*
X14889500Y-69853000D01*
X16381567Y-69853000D01*
X16505599Y-69654529D01*
X16498287Y-69605585D01*
X16401497Y-69371689D01*
X16260936Y-69161170D01*
X16082005Y-68982118D01*
X15871581Y-68841415D01*
X15637751Y-68744467D01*
X15389500Y-68695000D01*
X14889500Y-68695000D01*
X14635500Y-68695000D01*
X14135500Y-68695000D01*
X13887249Y-68744467D01*
X13653419Y-68841415D01*
X13442995Y-68982118D01*
X13264064Y-69161170D01*
X13123503Y-69371689D01*
X13026713Y-69605585D01*
X13019401Y-69654529D01*
X6980599Y-69654529D01*
X6973287Y-69605585D01*
X6876497Y-69371689D01*
X6735936Y-69161170D01*
X6557005Y-68982118D01*
X6346581Y-68841415D01*
X6112751Y-68744467D01*
X5864500Y-68695000D01*
X5364500Y-68695000D01*
X5110500Y-68695000D01*
X4610500Y-68695000D01*
X4362249Y-68744467D01*
X4128419Y-68841415D01*
X3917995Y-68982118D01*
X3739064Y-69161170D01*
X3598503Y-69371689D01*
X3501713Y-69605585D01*
X3494401Y-69654529D01*
X660000Y-69654529D01*
X660000Y-67205471D01*
X3494401Y-67205471D01*
X3501713Y-67254415D01*
X3598503Y-67488311D01*
X3739064Y-67698830D01*
X3917995Y-67877882D01*
X4128419Y-68018585D01*
X4362249Y-68115533D01*
X4610500Y-68165000D01*
X5110500Y-68165000D01*
X5110500Y-67007000D01*
X5364500Y-67007000D01*
X5364500Y-68165000D01*
X5864500Y-68165000D01*
X6112751Y-68115533D01*
X6346581Y-68018585D01*
X6557005Y-67877882D01*
X6735936Y-67698830D01*
X6876497Y-67488311D01*
X6973287Y-67254415D01*
X6980599Y-67205471D01*
X13019401Y-67205471D01*
X13026713Y-67254415D01*
X13123503Y-67488311D01*
X13264064Y-67698830D01*
X13442995Y-67877882D01*
X13653419Y-68018585D01*
X13887249Y-68115533D01*
X14135500Y-68165000D01*
X14635500Y-68165000D01*
X14635500Y-67007000D01*
X14889500Y-67007000D01*
X14889500Y-68165000D01*
X15389500Y-68165000D01*
X15637751Y-68115533D01*
X15871581Y-68018585D01*
X16082005Y-67877882D01*
X16260936Y-67698830D01*
X16401497Y-67488311D01*
X16498287Y-67254415D01*
X16505599Y-67205471D01*
X16381567Y-67007000D01*
X14889500Y-67007000D01*
X14635500Y-67007000D01*
X13143433Y-67007000D01*
X13019401Y-67205471D01*
X6980599Y-67205471D01*
X6856567Y-67007000D01*
X5364500Y-67007000D01*
X5110500Y-67007000D01*
X3618433Y-67007000D01*
X3494401Y-67205471D01*
X660000Y-67205471D01*
X660000Y-66554529D01*
X3494401Y-66554529D01*
X3618433Y-66753000D01*
X5110500Y-66753000D01*
X5110500Y-65595000D01*
X5364500Y-65595000D01*
X5364500Y-66753000D01*
X6856567Y-66753000D01*
X6980599Y-66554529D01*
X13019401Y-66554529D01*
X13143433Y-66753000D01*
X14635500Y-66753000D01*
X14635500Y-65595000D01*
X14889500Y-65595000D01*
X14889500Y-66753000D01*
X16381567Y-66753000D01*
X16505599Y-66554529D01*
X16498287Y-66505585D01*
X16401497Y-66271689D01*
X16260936Y-66061170D01*
X16082005Y-65882118D01*
X15871581Y-65741415D01*
X15637751Y-65644467D01*
X15389500Y-65595000D01*
X14889500Y-65595000D01*
X14635500Y-65595000D01*
X14135500Y-65595000D01*
X13887249Y-65644467D01*
X13653419Y-65741415D01*
X13442995Y-65882118D01*
X13264064Y-66061170D01*
X13123503Y-66271689D01*
X13026713Y-66505585D01*
X13019401Y-66554529D01*
X6980599Y-66554529D01*
X6973287Y-66505585D01*
X6876497Y-66271689D01*
X6735936Y-66061170D01*
X6557005Y-65882118D01*
X6346581Y-65741415D01*
X6112751Y-65644467D01*
X5864500Y-65595000D01*
X5364500Y-65595000D01*
X5110500Y-65595000D01*
X4610500Y-65595000D01*
X4362249Y-65644467D01*
X4128419Y-65741415D01*
X3917995Y-65882118D01*
X3739064Y-66061170D01*
X3598503Y-66271689D01*
X3501713Y-66505585D01*
X3494401Y-66554529D01*
X660000Y-66554529D01*
X660000Y-58580000D01*
X3446283Y-58580000D01*
X3471093Y-58831904D01*
X3544571Y-59074127D01*
X3663892Y-59297362D01*
X3824472Y-59493028D01*
X4020138Y-59653608D01*
X4243373Y-59772929D01*
X4485596Y-59846407D01*
X4674377Y-59865000D01*
X5800623Y-59865000D01*
X5989404Y-59846407D01*
X6231627Y-59772929D01*
X6454862Y-59653608D01*
X6650528Y-59493028D01*
X6811108Y-59297362D01*
X6930429Y-59074127D01*
X7003907Y-58831904D01*
X7028717Y-58580000D01*
X7003907Y-58328096D01*
X6930429Y-58085873D01*
X6811108Y-57862638D01*
X6650528Y-57666972D01*
X6454862Y-57506392D01*
X6231627Y-57387071D01*
X5989404Y-57313593D01*
X5800623Y-57295000D01*
X4674377Y-57295000D01*
X4485596Y-57313593D01*
X4243373Y-57387071D01*
X4020138Y-57506392D01*
X3824472Y-57666972D01*
X3663892Y-57862638D01*
X3544571Y-58085873D01*
X3471093Y-58328096D01*
X3446283Y-58580000D01*
X660000Y-58580000D01*
X660000Y-51733880D01*
X808102Y-51795226D01*
X1008061Y-51835000D01*
X1211939Y-51835000D01*
X1411898Y-51795226D01*
X1600256Y-51717205D01*
X1769774Y-51603937D01*
X1813711Y-51560000D01*
X9962667Y-51560000D01*
X10000000Y-51563677D01*
X10037333Y-51560000D01*
X10148986Y-51549003D01*
X10292247Y-51505546D01*
X10424276Y-51434974D01*
X10540001Y-51340001D01*
X10634974Y-51224276D01*
X10705546Y-51092247D01*
X10749003Y-50948986D01*
X10763677Y-50800000D01*
X10760000Y-50762667D01*
X10760000Y-47387002D01*
X12805000Y-47387002D01*
X12805000Y-48102997D01*
X12833867Y-48396087D01*
X12947943Y-48772146D01*
X13133193Y-49118725D01*
X13382497Y-49422503D01*
X13686275Y-49671807D01*
X14032853Y-49857057D01*
X14408912Y-49971133D01*
X14800000Y-50009652D01*
X15191087Y-49971133D01*
X15567146Y-49857057D01*
X15913725Y-49671807D01*
X16217503Y-49422503D01*
X16466807Y-49118725D01*
X16652057Y-48772147D01*
X16766133Y-48396088D01*
X16795000Y-48102998D01*
X16795000Y-47387003D01*
X16766133Y-47093913D01*
X16652057Y-46717853D01*
X16466807Y-46371275D01*
X16217503Y-46067497D01*
X15913725Y-45818193D01*
X15567147Y-45632943D01*
X15191088Y-45518867D01*
X14800000Y-45480348D01*
X14408913Y-45518867D01*
X14032854Y-45632943D01*
X13686276Y-45818193D01*
X13382498Y-46067497D01*
X13133193Y-46371275D01*
X12947943Y-46717853D01*
X12833867Y-47093912D01*
X12805000Y-47387002D01*
X10760000Y-47387002D01*
X10760000Y-46732027D01*
X10789852Y-46722972D01*
X10943387Y-46640905D01*
X11077962Y-46530462D01*
X11188405Y-46395887D01*
X11270472Y-46242352D01*
X11321008Y-46075756D01*
X11338072Y-45902502D01*
X11338072Y-45377498D01*
X11321008Y-45204244D01*
X11270472Y-45037648D01*
X11188405Y-44884113D01*
X11077962Y-44749538D01*
X11051109Y-44727500D01*
X11077962Y-44705462D01*
X11188405Y-44570887D01*
X11270472Y-44417352D01*
X11321008Y-44250756D01*
X11338072Y-44077502D01*
X11338072Y-43552498D01*
X11321008Y-43379244D01*
X11270472Y-43212648D01*
X11188405Y-43059113D01*
X11077962Y-42924538D01*
X10943387Y-42814095D01*
X10789852Y-42732028D01*
X10760000Y-42722973D01*
X10760000Y-42613313D01*
X10978505Y-42467312D01*
X11192312Y-42253505D01*
X11250000Y-42167169D01*
X11307688Y-42253505D01*
X11521495Y-42467312D01*
X11772905Y-42635299D01*
X12052257Y-42751011D01*
X12348816Y-42810000D01*
X12651184Y-42810000D01*
X12947743Y-42751011D01*
X13227095Y-42635299D01*
X13478505Y-42467312D01*
X13692312Y-42253505D01*
X13860299Y-42002095D01*
X13976011Y-41722743D01*
X14035000Y-41426184D01*
X14035000Y-41123816D01*
X13976011Y-40827257D01*
X13860299Y-40547905D01*
X13692312Y-40296495D01*
X13478505Y-40082688D01*
X13227095Y-39914701D01*
X12947743Y-39798989D01*
X12651184Y-39740000D01*
X12348816Y-39740000D01*
X12052257Y-39798989D01*
X11772905Y-39914701D01*
X11521495Y-40082688D01*
X11307688Y-40296495D01*
X11250000Y-40382831D01*
X11192312Y-40296495D01*
X10978505Y-40082688D01*
X10727095Y-39914701D01*
X10447743Y-39798989D01*
X10151184Y-39740000D01*
X9848816Y-39740000D01*
X9552257Y-39798989D01*
X9272905Y-39914701D01*
X9021495Y-40082688D01*
X8983880Y-40120303D01*
X8930537Y-40020506D01*
X8851185Y-39923815D01*
X8754494Y-39844463D01*
X8644180Y-39785498D01*
X8524482Y-39749188D01*
X8400000Y-39736928D01*
X6600000Y-39736928D01*
X6475518Y-39749188D01*
X6355820Y-39785498D01*
X6245506Y-39844463D01*
X6148815Y-39923815D01*
X6069463Y-40020506D01*
X6010498Y-40130820D01*
X5974188Y-40250518D01*
X5961928Y-40375000D01*
X5961928Y-42175000D01*
X5974188Y-42299482D01*
X6010498Y-42419180D01*
X6069463Y-42529494D01*
X6148815Y-42626185D01*
X6245506Y-42705537D01*
X6355820Y-42764502D01*
X6475518Y-42800812D01*
X6600000Y-42813072D01*
X8400000Y-42813072D01*
X8524482Y-42800812D01*
X8644180Y-42764502D01*
X8754494Y-42705537D01*
X8851185Y-42626185D01*
X8930537Y-42529494D01*
X8983880Y-42429697D01*
X9021495Y-42467312D01*
X9240001Y-42613313D01*
X9240001Y-42722972D01*
X9210148Y-42732028D01*
X9056613Y-42814095D01*
X8922038Y-42924538D01*
X8811595Y-43059113D01*
X8729528Y-43212648D01*
X8678992Y-43379244D01*
X8661928Y-43552498D01*
X8661928Y-44077502D01*
X8678992Y-44250756D01*
X8729528Y-44417352D01*
X8811595Y-44570887D01*
X8922038Y-44705462D01*
X8948891Y-44727500D01*
X8922038Y-44749538D01*
X8811595Y-44884113D01*
X8729528Y-45037648D01*
X8678992Y-45204244D01*
X8661928Y-45377498D01*
X8661928Y-45902502D01*
X8678992Y-46075756D01*
X8729528Y-46242352D01*
X8811595Y-46395887D01*
X8922038Y-46530462D01*
X9056613Y-46640905D01*
X9210148Y-46722972D01*
X9240001Y-46732028D01*
X9240000Y-50040000D01*
X1813711Y-50040000D01*
X1769774Y-49996063D01*
X1600256Y-49882795D01*
X1411898Y-49804774D01*
X1211939Y-49765000D01*
X1008061Y-49765000D01*
X808102Y-49804774D01*
X660000Y-49866120D01*
X660000Y-47387002D01*
X3205000Y-47387002D01*
X3205000Y-48102997D01*
X3233867Y-48396087D01*
X3347943Y-48772146D01*
X3533193Y-49118725D01*
X3782497Y-49422503D01*
X4086275Y-49671807D01*
X4432853Y-49857057D01*
X4808912Y-49971133D01*
X5200000Y-50009652D01*
X5591087Y-49971133D01*
X5967146Y-49857057D01*
X6313725Y-49671807D01*
X6617503Y-49422503D01*
X6866807Y-49118725D01*
X7052057Y-48772147D01*
X7166133Y-48396088D01*
X7195000Y-48102998D01*
X7195000Y-47387003D01*
X7166133Y-47093913D01*
X7052057Y-46717853D01*
X6866807Y-46371275D01*
X6617503Y-46067497D01*
X6313725Y-45818193D01*
X5967147Y-45632943D01*
X5591088Y-45518867D01*
X5200000Y-45480348D01*
X4808913Y-45518867D01*
X4432854Y-45632943D01*
X4086276Y-45818193D01*
X3782498Y-46067497D01*
X3533193Y-46371275D01*
X3347943Y-46717853D01*
X3233867Y-47093912D01*
X3205000Y-47387002D01*
X660000Y-47387002D01*
X660000Y-33417002D01*
X3205000Y-33417002D01*
X3205000Y-34132997D01*
X3233867Y-34426087D01*
X3347943Y-34802146D01*
X3533193Y-35148725D01*
X3782497Y-35452503D01*
X4086275Y-35701807D01*
X4432853Y-35887057D01*
X4808912Y-36001133D01*
X5200000Y-36039652D01*
X5591087Y-36001133D01*
X5967146Y-35887057D01*
X6313725Y-35701807D01*
X6617503Y-35452503D01*
X6866807Y-35148725D01*
X7052057Y-34802147D01*
X7166133Y-34426088D01*
X7195000Y-34132998D01*
X7195000Y-33417003D01*
X7166133Y-33123913D01*
X7052057Y-32747853D01*
X6866807Y-32401275D01*
X6617503Y-32097497D01*
X6313725Y-31848193D01*
X5967147Y-31662943D01*
X5591088Y-31548867D01*
X5200000Y-31510348D01*
X4808913Y-31548867D01*
X4432854Y-31662943D01*
X4086276Y-31848193D01*
X3782498Y-32097497D01*
X3533193Y-32401275D01*
X3347943Y-32747853D01*
X3233867Y-33123912D01*
X3205000Y-33417002D01*
X660000Y-33417002D01*
X660000Y-26405000D01*
X5961928Y-26405000D01*
X5961928Y-28205000D01*
X5974188Y-28329482D01*
X6010498Y-28449180D01*
X6069463Y-28559494D01*
X6148815Y-28656185D01*
X6245506Y-28735537D01*
X6355820Y-28794502D01*
X6475518Y-28830812D01*
X6600000Y-28843072D01*
X8400000Y-28843072D01*
X8524482Y-28830812D01*
X8644180Y-28794502D01*
X8754494Y-28735537D01*
X8851185Y-28656185D01*
X8930537Y-28559494D01*
X8983880Y-28459697D01*
X9021495Y-28497312D01*
X9240001Y-28643313D01*
X9240001Y-28752972D01*
X9210148Y-28762028D01*
X9056613Y-28844095D01*
X8922038Y-28954538D01*
X8811595Y-29089113D01*
X8729528Y-29242648D01*
X8678992Y-29409244D01*
X8661928Y-29582498D01*
X8661928Y-30107502D01*
X8678992Y-30280756D01*
X8729528Y-30447352D01*
X8811595Y-30600887D01*
X8922038Y-30735462D01*
X8948891Y-30757500D01*
X8922038Y-30779538D01*
X8811595Y-30914113D01*
X8729528Y-31067648D01*
X8678992Y-31234244D01*
X8661928Y-31407498D01*
X8661928Y-31932502D01*
X8678992Y-32105756D01*
X8729528Y-32272352D01*
X8811595Y-32425887D01*
X8922038Y-32560462D01*
X9056613Y-32670905D01*
X9210148Y-32752972D01*
X9240001Y-32762028D01*
X9240000Y-36792667D01*
X9236323Y-36830000D01*
X9250997Y-36978986D01*
X9294454Y-37122247D01*
X9365026Y-37254276D01*
X9459999Y-37370001D01*
X9575724Y-37464974D01*
X9707753Y-37535546D01*
X9851014Y-37579003D01*
X10000000Y-37593677D01*
X10037333Y-37590000D01*
X16916289Y-37590000D01*
X16960226Y-37633937D01*
X17129744Y-37747205D01*
X17318102Y-37825226D01*
X17518061Y-37865000D01*
X17721939Y-37865000D01*
X17921898Y-37825226D01*
X18110256Y-37747205D01*
X18279774Y-37633937D01*
X18423937Y-37489774D01*
X18537205Y-37320256D01*
X18615226Y-37131898D01*
X18655000Y-36931939D01*
X18655000Y-36728061D01*
X18615226Y-36528102D01*
X18537205Y-36339744D01*
X18423937Y-36170226D01*
X18279774Y-36026063D01*
X18110256Y-35912795D01*
X17921898Y-35834774D01*
X17721939Y-35795000D01*
X17518061Y-35795000D01*
X17318102Y-35834774D01*
X17129744Y-35912795D01*
X16960226Y-36026063D01*
X16916289Y-36070000D01*
X10760000Y-36070000D01*
X10760000Y-33417002D01*
X12805000Y-33417002D01*
X12805000Y-34132997D01*
X12833867Y-34426087D01*
X12947943Y-34802146D01*
X13133193Y-35148725D01*
X13382497Y-35452503D01*
X13686275Y-35701807D01*
X14032853Y-35887057D01*
X14408912Y-36001133D01*
X14800000Y-36039652D01*
X15191087Y-36001133D01*
X15567146Y-35887057D01*
X15913725Y-35701807D01*
X16217503Y-35452503D01*
X16466807Y-35148725D01*
X16652057Y-34802147D01*
X16766133Y-34426088D01*
X16795000Y-34132998D01*
X16795000Y-33417003D01*
X16766133Y-33123913D01*
X16652057Y-32747853D01*
X16466807Y-32401275D01*
X16217503Y-32097497D01*
X15913725Y-31848193D01*
X15567147Y-31662943D01*
X15191088Y-31548867D01*
X14800000Y-31510348D01*
X14408913Y-31548867D01*
X14032854Y-31662943D01*
X13686276Y-31848193D01*
X13382498Y-32097497D01*
X13133193Y-32401275D01*
X12947943Y-32747853D01*
X12833867Y-33123912D01*
X12805000Y-33417002D01*
X10760000Y-33417002D01*
X10760000Y-32762027D01*
X10789852Y-32752972D01*
X10943387Y-32670905D01*
X11077962Y-32560462D01*
X11188405Y-32425887D01*
X11270472Y-32272352D01*
X11321008Y-32105756D01*
X11338072Y-31932502D01*
X11338072Y-31407498D01*
X11321008Y-31234244D01*
X11270472Y-31067648D01*
X11188405Y-30914113D01*
X11077962Y-30779538D01*
X11051109Y-30757500D01*
X11077962Y-30735462D01*
X11188405Y-30600887D01*
X11270472Y-30447352D01*
X11321008Y-30280756D01*
X11338072Y-30107502D01*
X11338072Y-29582498D01*
X11321008Y-29409244D01*
X11270472Y-29242648D01*
X11188405Y-29089113D01*
X11077962Y-28954538D01*
X10943387Y-28844095D01*
X10789852Y-28762028D01*
X10760000Y-28752973D01*
X10760000Y-28643313D01*
X10978505Y-28497312D01*
X11192312Y-28283505D01*
X11250000Y-28197169D01*
X11307688Y-28283505D01*
X11521495Y-28497312D01*
X11772905Y-28665299D01*
X12052257Y-28781011D01*
X12348816Y-28840000D01*
X12651184Y-28840000D01*
X12947743Y-28781011D01*
X13227095Y-28665299D01*
X13478505Y-28497312D01*
X13692312Y-28283505D01*
X13860299Y-28032095D01*
X13976011Y-27752743D01*
X14035000Y-27456184D01*
X14035000Y-27153816D01*
X13976011Y-26857257D01*
X13860299Y-26577905D01*
X13692312Y-26326495D01*
X13478505Y-26112688D01*
X13227095Y-25944701D01*
X12947743Y-25828989D01*
X12651184Y-25770000D01*
X12348816Y-25770000D01*
X12052257Y-25828989D01*
X11772905Y-25944701D01*
X11521495Y-26112688D01*
X11307688Y-26326495D01*
X11250000Y-26412831D01*
X11192312Y-26326495D01*
X10978505Y-26112688D01*
X10727095Y-25944701D01*
X10447743Y-25828989D01*
X10151184Y-25770000D01*
X9848816Y-25770000D01*
X9552257Y-25828989D01*
X9272905Y-25944701D01*
X9021495Y-26112688D01*
X8983880Y-26150303D01*
X8930537Y-26050506D01*
X8851185Y-25953815D01*
X8754494Y-25874463D01*
X8644180Y-25815498D01*
X8524482Y-25779188D01*
X8400000Y-25766928D01*
X6600000Y-25766928D01*
X6475518Y-25779188D01*
X6355820Y-25815498D01*
X6245506Y-25874463D01*
X6148815Y-25953815D01*
X6069463Y-26050506D01*
X6010498Y-26160820D01*
X5974188Y-26280518D01*
X5961928Y-26405000D01*
X660000Y-26405000D01*
X660000Y-22758061D01*
X1345000Y-22758061D01*
X1345000Y-22961939D01*
X1384774Y-23161898D01*
X1462795Y-23350256D01*
X1576063Y-23519774D01*
X1720226Y-23663937D01*
X1889744Y-23777205D01*
X2078102Y-23855226D01*
X2278061Y-23895000D01*
X2481939Y-23895000D01*
X2681898Y-23855226D01*
X2870256Y-23777205D01*
X3039774Y-23663937D01*
X3083711Y-23620000D01*
X9962667Y-23620000D01*
X10000000Y-23623677D01*
X10037333Y-23620000D01*
X10148986Y-23609003D01*
X10292247Y-23565546D01*
X10424276Y-23494974D01*
X10540001Y-23400001D01*
X10634974Y-23284276D01*
X10705546Y-23152247D01*
X10749003Y-23008986D01*
X10763677Y-22860000D01*
X10760000Y-22822667D01*
X10760000Y-19447002D01*
X12805000Y-19447002D01*
X12805000Y-20162997D01*
X12833867Y-20456087D01*
X12947943Y-20832146D01*
X13133193Y-21178725D01*
X13382497Y-21482503D01*
X13686275Y-21731807D01*
X14032853Y-21917057D01*
X14408912Y-22031133D01*
X14800000Y-22069652D01*
X15191087Y-22031133D01*
X15567146Y-21917057D01*
X15913725Y-21731807D01*
X16217503Y-21482503D01*
X16466807Y-21178725D01*
X16652057Y-20832147D01*
X16766133Y-20456088D01*
X16795000Y-20162998D01*
X16795000Y-19447003D01*
X16766133Y-19153913D01*
X16652057Y-18777853D01*
X16466807Y-18431275D01*
X16217503Y-18127497D01*
X15913725Y-17878193D01*
X15567147Y-17692943D01*
X15191088Y-17578867D01*
X14800000Y-17540348D01*
X14408913Y-17578867D01*
X14032854Y-17692943D01*
X13686276Y-17878193D01*
X13382498Y-18127497D01*
X13133193Y-18431275D01*
X12947943Y-18777853D01*
X12833867Y-19153912D01*
X12805000Y-19447002D01*
X10760000Y-19447002D01*
X10760000Y-18872027D01*
X10789852Y-18862972D01*
X10943387Y-18780905D01*
X11077962Y-18670462D01*
X11188405Y-18535887D01*
X11270472Y-18382352D01*
X11321008Y-18215756D01*
X11338072Y-18042502D01*
X11338072Y-17517498D01*
X11321008Y-17344244D01*
X11270472Y-17177648D01*
X11188405Y-17024113D01*
X11077962Y-16889538D01*
X11051109Y-16867500D01*
X11077962Y-16845462D01*
X11188405Y-16710887D01*
X11270472Y-16557352D01*
X11321008Y-16390756D01*
X11338072Y-16217502D01*
X11338072Y-15692498D01*
X11321008Y-15519244D01*
X11270472Y-15352648D01*
X11188405Y-15199113D01*
X11077962Y-15064538D01*
X10943387Y-14954095D01*
X10789852Y-14872028D01*
X10760000Y-14862973D01*
X10760000Y-14673313D01*
X10978505Y-14527312D01*
X11192312Y-14313505D01*
X11250000Y-14227169D01*
X11307688Y-14313505D01*
X11521495Y-14527312D01*
X11772905Y-14695299D01*
X12052257Y-14811011D01*
X12348816Y-14870000D01*
X12651184Y-14870000D01*
X12947743Y-14811011D01*
X13227095Y-14695299D01*
X13478505Y-14527312D01*
X13692312Y-14313505D01*
X13860299Y-14062095D01*
X13976011Y-13782743D01*
X14035000Y-13486184D01*
X14035000Y-13183816D01*
X13976011Y-12887257D01*
X13860299Y-12607905D01*
X13692312Y-12356495D01*
X13478505Y-12142688D01*
X13227095Y-11974701D01*
X12947743Y-11858989D01*
X12651184Y-11800000D01*
X12348816Y-11800000D01*
X12052257Y-11858989D01*
X11772905Y-11974701D01*
X11521495Y-12142688D01*
X11307688Y-12356495D01*
X11250000Y-12442831D01*
X11192312Y-12356495D01*
X10978505Y-12142688D01*
X10727095Y-11974701D01*
X10447743Y-11858989D01*
X10151184Y-11800000D01*
X9848816Y-11800000D01*
X9552257Y-11858989D01*
X9272905Y-11974701D01*
X9021495Y-12142688D01*
X8983880Y-12180303D01*
X8930537Y-12080506D01*
X8851185Y-11983815D01*
X8754494Y-11904463D01*
X8644180Y-11845498D01*
X8524482Y-11809188D01*
X8400000Y-11796928D01*
X6600000Y-11796928D01*
X6475518Y-11809188D01*
X6355820Y-11845498D01*
X6245506Y-11904463D01*
X6148815Y-11983815D01*
X6069463Y-12080506D01*
X6010498Y-12190820D01*
X5974188Y-12310518D01*
X5961928Y-12435000D01*
X5961928Y-14235000D01*
X5974188Y-14359482D01*
X6010498Y-14479180D01*
X6069463Y-14589494D01*
X6148815Y-14686185D01*
X6245506Y-14765537D01*
X6355820Y-14824502D01*
X6475518Y-14860812D01*
X6600000Y-14873072D01*
X8400000Y-14873072D01*
X8524482Y-14860812D01*
X8644180Y-14824502D01*
X8754494Y-14765537D01*
X8851185Y-14686185D01*
X8930537Y-14589494D01*
X8983880Y-14489697D01*
X9021495Y-14527312D01*
X9240001Y-14673313D01*
X9240001Y-14862972D01*
X9210148Y-14872028D01*
X9056613Y-14954095D01*
X8922038Y-15064538D01*
X8811595Y-15199113D01*
X8729528Y-15352648D01*
X8678992Y-15519244D01*
X8661928Y-15692498D01*
X8661928Y-16217502D01*
X8678992Y-16390756D01*
X8729528Y-16557352D01*
X8811595Y-16710887D01*
X8922038Y-16845462D01*
X8948891Y-16867500D01*
X8922038Y-16889538D01*
X8811595Y-17024113D01*
X8729528Y-17177648D01*
X8678992Y-17344244D01*
X8661928Y-17517498D01*
X8661928Y-18042502D01*
X8678992Y-18215756D01*
X8729528Y-18382352D01*
X8811595Y-18535887D01*
X8922038Y-18670462D01*
X9056613Y-18780905D01*
X9210148Y-18862972D01*
X9240001Y-18872028D01*
X9240000Y-22100000D01*
X3083711Y-22100000D01*
X3039774Y-22056063D01*
X2870256Y-21942795D01*
X2681898Y-21864774D01*
X2481939Y-21825000D01*
X2278061Y-21825000D01*
X2078102Y-21864774D01*
X1889744Y-21942795D01*
X1720226Y-22056063D01*
X1576063Y-22200226D01*
X1462795Y-22369744D01*
X1384774Y-22558102D01*
X1345000Y-22758061D01*
X660000Y-22758061D01*
X660000Y-19447002D01*
X3205000Y-19447002D01*
X3205000Y-20162997D01*
X3233867Y-20456087D01*
X3347943Y-20832146D01*
X3533193Y-21178725D01*
X3782497Y-21482503D01*
X4086275Y-21731807D01*
X4432853Y-21917057D01*
X4808912Y-22031133D01*
X5200000Y-22069652D01*
X5591087Y-22031133D01*
X5967146Y-21917057D01*
X6313725Y-21731807D01*
X6617503Y-21482503D01*
X6866807Y-21178725D01*
X7052057Y-20832147D01*
X7166133Y-20456088D01*
X7195000Y-20162998D01*
X7195000Y-19447003D01*
X7166133Y-19153913D01*
X7052057Y-18777853D01*
X6866807Y-18431275D01*
X6617503Y-18127497D01*
X6313725Y-17878193D01*
X5967147Y-17692943D01*
X5591088Y-17578867D01*
X5200000Y-17540348D01*
X4808913Y-17578867D01*
X4432854Y-17692943D01*
X4086276Y-17878193D01*
X3782498Y-18127497D01*
X3533193Y-18431275D01*
X3347943Y-18777853D01*
X3233867Y-19153912D01*
X3205000Y-19447002D01*
X660000Y-19447002D01*
X660000Y-5477002D01*
X3205000Y-5477002D01*
X3205000Y-6192997D01*
X3233867Y-6486087D01*
X3347943Y-6862146D01*
X3533193Y-7208725D01*
X3782497Y-7512503D01*
X4086275Y-7761807D01*
X4432853Y-7947057D01*
X4808912Y-8061133D01*
X5200000Y-8099652D01*
X5591087Y-8061133D01*
X5967146Y-7947057D01*
X6313725Y-7761807D01*
X6617503Y-7512503D01*
X6866807Y-7208725D01*
X7052057Y-6862147D01*
X7166133Y-6486088D01*
X7195000Y-6192998D01*
X7195000Y-5477003D01*
X7195000Y-5477002D01*
X12805000Y-5477002D01*
X12805000Y-6192997D01*
X12833867Y-6486087D01*
X12947943Y-6862146D01*
X13133193Y-7208725D01*
X13382497Y-7512503D01*
X13686275Y-7761807D01*
X14032853Y-7947057D01*
X14408912Y-8061133D01*
X14800000Y-8099652D01*
X15191087Y-8061133D01*
X15567146Y-7947057D01*
X15913725Y-7761807D01*
X16217503Y-7512503D01*
X16466807Y-7208725D01*
X16652057Y-6862147D01*
X16766133Y-6486088D01*
X16795000Y-6192998D01*
X16795000Y-5477003D01*
X16766133Y-5183913D01*
X16652057Y-4807853D01*
X16466807Y-4461275D01*
X16217503Y-4157497D01*
X15913725Y-3908193D01*
X15567147Y-3722943D01*
X15191088Y-3608867D01*
X14800000Y-3570348D01*
X14408913Y-3608867D01*
X14032854Y-3722943D01*
X13686276Y-3908193D01*
X13382498Y-4157497D01*
X13133193Y-4461275D01*
X12947943Y-4807853D01*
X12833867Y-5183912D01*
X12805000Y-5477002D01*
X7195000Y-5477002D01*
X7166133Y-5183913D01*
X7052057Y-4807853D01*
X6866807Y-4461275D01*
X6617503Y-4157497D01*
X6313725Y-3908193D01*
X5967147Y-3722943D01*
X5591088Y-3608867D01*
X5200000Y-3570348D01*
X4808913Y-3608867D01*
X4432854Y-3722943D01*
X4086276Y-3908193D01*
X3782498Y-4157497D01*
X3533193Y-4461275D01*
X3347943Y-4807853D01*
X3233867Y-5183912D01*
X3205000Y-5477002D01*
X660000Y-5477002D01*
X660000Y-660000D01*
X19340000Y-660000D01*
X19340001Y-60026121D01*
G37*
G04 #@! TD.AperFunction*
G04 #@! TD*
M02*
