999
"DXF R12 Output" (www.mydxf.blogspot.com)
 0 
SECTION
 2 
HEADER
 9 
$ACADVER
 1 
AC1009
 9 
$EXTMIN
 10 
 0 
 20 
 0 
 9 
$EXTMAX
 10 
 8.5 
 20 
 11 
 0 
ENDSEC
 0 
SECTION
 2 
ENTITIES
0
LINE
8
Layer 1
10
0.846666
20
137.914000
11
-0.846666
21
136.220000
0
LINE
8
Layer 1
10
0.000000
20
138.478000
11
0.000000
21
135.656000
0
LINE
8
Layer 1
10
2.257780
20
135.938000
11
1.128890
21
134.809110
0
LINE
8
Layer 1
10
1.693330
20
136.503000
11
0.564440
21
135.374110
0
LINE
8
Layer 1
10
1.128890
20
137.067000
11
0.000000
21
135.938110
0
LINE
8
0
10
570.334000
20
334.984000
11
570.880692
21
334.916267
0
LINE
8
0
10
570.880692
20
334.916267
11
571.429473
21
334.697864
0
LINE
8
0
10
571.429473
20
334.697864
11
571.917943
21
334.327919
0
LINE
8
0
10
571.917943
20
334.327919
11
572.287880
21
333.839455
0
LINE
8
0
10
572.287880
20
333.839455
11
572.506292
21
333.290680
0
LINE
8
0
10
572.506292
20
333.290680
11
572.574025
21
332.744002
0
LINE
8
0
10
572.574025
20
332.744002
11
572.506292
21
332.197327
0
LINE
8
0
10
572.506292
20
332.197327
11
572.287880
21
331.648549
0
LINE
8
0
10
572.287880
20
331.648549
11
571.917943
21
331.160085
0
LINE
8
0
10
571.917943
20
331.160085
11
571.429473
21
330.790140
0
LINE
8
0
10
571.429473
20
330.790140
11
570.880692
21
330.571737
0
LINE
8
0
10
570.880692
20
330.571737
11
570.334000
21
330.504003
0
LINE
8
0
10
570.334000
20
330.504000
11
569.787336
21
330.571733
0
LINE
8
0
10
569.787336
20
330.571733
11
569.238555
21
330.790136
0
LINE
8
0
10
569.238555
20
330.790136
11
568.750085
21
331.160081
0
LINE
8
0
10
568.750085
20
331.160081
11
568.380148
21
331.648545
0
LINE
8
0
10
568.380148
20
331.648545
11
568.161736
21
332.197323
0
LINE
8
0
10
568.161736
20
332.197323
11
568.094003
21
332.743998
0
LINE
8
0
10
568.094003
20
332.743998
11
568.161736
21
333.290676
0
LINE
8
0
10
568.161736
20
333.290676
11
568.380148
21
333.839451
0
LINE
8
0
10
568.380148
20
333.839451
11
568.750085
21
334.327915
0
LINE
8
0
10
568.750085
20
334.327915
11
569.238555
21
334.697860
0
LINE
8
0
10
569.238555
20
334.697860
11
569.787336
21
334.916263
0
LINE
8
0
10
569.787336
20
334.916263
11
570.334000
21
334.983997
0
LINE
8
0
10
570.334000
20
329.758000
11
571.062923
21
329.848311
0
LINE
8
0
10
571.062923
20
329.848311
11
571.794612
21
330.139516
0
LINE
8
0
10
571.794612
20
330.139516
11
572.445896
21
330.632775
0
LINE
8
0
10
572.445896
20
330.632775
11
572.939164
21
331.284062
0
LINE
8
0
10
572.939164
20
331.284062
11
573.230361
21
332.015765
0
LINE
8
0
10
573.230361
20
332.015765
11
573.320672
21
332.744665
0
LINE
8
0
10
573.320672
20
332.744665
11
573.230361
21
333.473568
0
LINE
8
0
10
573.230361
20
333.473568
11
572.939164
21
334.205268
0
LINE
8
0
10
572.939164
20
334.205268
11
572.445896
21
334.856555
0
LINE
8
0
10
572.445896
20
334.856555
11
571.794612
21
335.349814
0
LINE
8
0
10
571.794612
20
335.349814
11
571.062923
21
335.641019
0
LINE
8
0
10
571.062923
20
335.641019
11
570.334000
21
335.731330
0
LINE
8
0
10
570.334000
20
335.731000
11
569.605105
21
335.640689
0
LINE
8
0
10
569.605105
20
335.640689
11
568.873416
21
335.349484
0
LINE
8
0
10
568.873416
20
335.349484
11
568.222132
21
334.856225
0
LINE
8
0
10
568.222132
20
334.856225
11
567.728864
21
334.204938
0
LINE
8
0
10
567.728864
20
334.204938
11
567.437667
21
333.473238
0
LINE
8
0
10
567.437667
20
333.473238
11
567.347356
21
332.744335
0
LINE
8
0
10
567.347356
20
332.744335
11
567.437667
21
332.015435
0
LINE
8
0
10
567.437667
20
332.015435
11
567.728864
21
331.283732
0
LINE
8
0
10
567.728864
20
331.283732
11
568.222132
21
330.632445
0
LINE
8
0
10
568.222132
20
330.632445
11
568.873416
21
330.139186
0
LINE
8
0
10
568.873416
20
330.139186
11
569.605105
21
329.847981
0
LINE
8
0
10
569.605105
20
329.847981
11
570.334000
21
329.757670
0
LINE
8
0
10
570.334000
20
330.824000
11
570.334000
21
330.504000
0
LINE
8
0
10
570.334000
20
330.824000
11
571.040740
21
330.958806
0
LINE
8
0
10
571.040740
20
330.958806
11
571.691657
21
331.386355
0
LINE
8
0
10
571.691657
20
331.386355
11
572.119195
21
332.037258
0
LINE
8
0
10
572.119195
20
332.037258
11
572.254012
21
332.743998
0
LINE
8
0
10
572.254012
20
332.743998
11
572.119195
21
333.450738
0
LINE
8
0
10
572.119195
20
333.450738
11
571.691657
21
334.101641
0
LINE
8
0
10
571.691657
20
334.101641
11
571.040740
21
334.529190
0
LINE
8
0
10
571.040740
20
334.529190
11
570.334000
21
334.663996
0
LINE
8
0
10
570.334000
20
334.664000
11
570.334000
21
334.984000
0
LINE
8
0
10
570.334000
20
335.731000
11
570.334000
21
335.944000
0
LINE
8
0
10
570.334000
20
335.944000
11
571.114993
21
335.847240
0
LINE
8
0
10
571.114993
20
335.847240
11
571.898949
21
335.535235
0
LINE
8
0
10
571.898949
20
335.535235
11
572.596743
21
335.006743
0
LINE
8
0
10
572.596743
20
335.006743
11
573.125232
21
334.308935
0
LINE
8
0
10
573.125232
20
334.308935
11
573.437257
21
333.524970
0
LINE
8
0
10
573.437257
20
333.524970
11
573.534003
21
332.744002
0
LINE
8
0
10
573.534003
20
332.744002
11
573.437257
21
331.963037
0
LINE
8
0
10
573.437257
20
331.963037
11
573.125232
21
331.179069
0
LINE
8
0
10
573.125232
20
331.179069
11
572.596743
21
330.481261
0
LINE
8
0
10
572.596743
20
330.481261
11
571.898949
21
329.952772
0
LINE
8
0
10
571.898949
20
329.952772
11
571.114993
21
329.640764
0
LINE
8
0
10
571.114993
20
329.640764
11
570.334000
21
329.544004
0
LINE
8
0
10
570.334000
20
329.757000
11
570.334000
21
329.544000
0
LINE
8
0
10
570.334000
20
329.544000
11
569.553035
21
329.640760
0
LINE
8
0
10
569.553035
20
329.640760
11
568.769079
21
329.952768
0
LINE
8
0
10
568.769079
20
329.952768
11
568.071285
21
330.481257
0
LINE
8
0
10
568.071285
20
330.481257
11
567.542768
21
331.179065
0
LINE
8
0
10
567.542768
20
331.179065
11
567.230772
21
331.963033
0
LINE
8
0
10
567.230772
20
331.963033
11
567.134026
21
332.743998
0
LINE
8
0
10
567.134026
20
332.743998
11
567.230772
21
333.524966
0
LINE
8
0
10
567.230772
20
333.524966
11
567.542768
21
334.308931
0
LINE
8
0
10
567.542768
20
334.308931
11
568.071285
21
335.006739
0
LINE
8
0
10
568.071285
20
335.006739
11
568.769079
21
335.535231
0
LINE
8
0
10
568.769079
20
335.535231
11
569.553035
21
335.847236
0
LINE
8
0
10
569.553035
20
335.847236
11
570.334000
21
335.943996
0
LINE
8
0
10
570.334000
20
334.664000
11
569.627260
21
334.529194
0
LINE
8
0
10
569.627260
20
334.529194
11
568.976371
21
334.101645
0
LINE
8
0
10
568.976371
20
334.101645
11
568.548833
21
333.450742
0
LINE
8
0
10
568.548833
20
333.450742
11
568.414016
21
332.744002
0
LINE
8
0
10
568.414016
20
332.744002
11
568.548833
21
332.037262
0
LINE
8
0
10
568.548833
20
332.037262
11
568.976371
21
331.386359
0
LINE
8
0
10
568.976371
20
331.386359
11
569.627260
21
330.958810
0
LINE
8
0
10
569.627260
20
330.958810
11
570.334000
21
330.824004
0
LINE
8
0
10
570.334000
20
353.949000
11
570.880692
21
353.881267
0
LINE
8
0
10
570.880692
20
353.881267
11
571.429473
21
353.662864
0
LINE
8
0
10
571.429473
20
353.662864
11
571.917943
21
353.292919
0
LINE
8
0
10
571.917943
20
353.292919
11
572.287880
21
352.804455
0
LINE
8
0
10
572.287880
20
352.804455
11
572.506292
21
352.255680
0
LINE
8
0
10
572.506292
20
352.255680
11
572.574025
21
351.709002
0
LINE
8
0
10
572.574025
20
351.709002
11
572.506292
21
351.162327
0
LINE
8
0
10
572.506292
20
351.162327
11
572.287880
21
350.613549
0
LINE
8
0
10
572.287880
20
350.613549
11
571.917943
21
350.125085
0
LINE
8
0
10
571.917943
20
350.125085
11
571.429473
21
349.755140
0
LINE
8
0
10
571.429473
20
349.755140
11
570.880692
21
349.536737
0
LINE
8
0
10
570.880692
20
349.536737
11
570.334000
21
349.469003
0
LINE
8
0
10
570.334000
20
349.790000
11
570.334000
21
349.470000
0
LINE
8
0
10
570.334000
20
349.789000
11
571.040740
21
349.923806
0
LINE
8
0
10
571.040740
20
349.923806
11
571.691657
21
350.351355
0
LINE
8
0
10
571.691657
20
350.351355
11
572.119195
21
351.002258
0
LINE
8
0
10
572.119195
20
351.002258
11
572.254012
21
351.708998
0
LINE
8
0
10
572.254012
20
351.708998
11
572.119195
21
352.415738
0
LINE
8
0
10
572.119195
20
352.415738
11
571.691657
21
353.066644
0
LINE
8
0
10
571.691657
20
353.066644
11
571.040740
21
353.494191
0
LINE
8
0
10
571.040740
20
353.494191
11
570.334000
21
353.628997
0
LINE
8
0
10
570.334000
20
353.629000
11
570.334000
21
353.950000
0
LINE
8
0
10
570.334000
20
349.469000
11
569.787336
21
349.536733
0
LINE
8
0
10
569.787336
20
349.536733
11
569.238555
21
349.755136
0
LINE
8
0
10
569.238555
20
349.755136
11
568.750085
21
350.125081
0
LINE
8
0
10
568.750085
20
350.125081
11
568.380148
21
350.613545
0
LINE
8
0
10
568.380148
20
350.613545
11
568.161736
21
351.162323
0
LINE
8
0
10
568.161736
20
351.162323
11
568.094003
21
351.708998
0
LINE
8
0
10
568.094003
20
351.708998
11
568.161736
21
352.255676
0
LINE
8
0
10
568.161736
20
352.255676
11
568.380148
21
352.804451
0
LINE
8
0
10
568.380148
20
352.804451
11
568.750085
21
353.292915
0
LINE
8
0
10
568.750085
20
353.292915
11
569.238555
21
353.662860
0
LINE
8
0
10
569.238555
20
353.662860
11
569.787336
21
353.881263
0
LINE
8
0
10
569.787336
20
353.881263
11
570.334000
21
353.948997
0
LINE
8
0
10
570.334000
20
348.723000
11
571.062923
21
348.813308
0
LINE
8
0
10
571.062923
20
348.813308
11
571.794612
21
349.104513
0
LINE
8
0
10
571.794612
20
349.104513
11
572.445896
21
349.597772
0
LINE
8
0
10
572.445896
20
349.597772
11
572.939164
21
350.249059
0
LINE
8
0
10
572.939164
20
350.249059
11
573.230361
21
350.980762
0
LINE
8
0
10
573.230361
20
350.980762
11
573.320672
21
351.709662
0
LINE
8
0
10
573.320672
20
351.709662
11
573.230361
21
352.438565
0
LINE
8
0
10
573.230361
20
352.438565
11
572.939164
21
353.170265
0
LINE
8
0
10
572.939164
20
353.170265
11
572.445896
21
353.821552
0
LINE
8
0
10
572.445896
20
353.821552
11
571.794612
21
354.314811
0
LINE
8
0
10
571.794612
20
354.314811
11
571.062923
21
354.606016
0
LINE
8
0
10
571.062923
20
354.606016
11
570.334000
21
354.696327
0
LINE
8
0
10
570.334000
20
354.696000
11
569.605105
21
354.605689
0
LINE
8
0
10
569.605105
20
354.605689
11
568.873416
21
354.314484
0
LINE
8
0
10
568.873416
20
354.314484
11
568.222132
21
353.821225
0
LINE
8
0
10
568.222132
20
353.821225
11
567.728864
21
353.169938
0
LINE
8
0
10
567.728864
20
353.169938
11
567.437667
21
352.438238
0
LINE
8
0
10
567.437667
20
352.438238
11
567.347356
21
351.709335
0
LINE
8
0
10
567.347356
20
351.709335
11
567.437667
21
350.980435
0
LINE
8
0
10
567.437667
20
350.980435
11
567.728864
21
350.248732
0
LINE
8
0
10
567.728864
20
350.248732
11
568.222132
21
349.597445
0
LINE
8
0
10
568.222132
20
349.597445
11
568.873416
21
349.104186
0
LINE
8
0
10
568.873416
20
349.104186
11
569.605105
21
348.812981
0
LINE
8
0
10
569.605105
20
348.812981
11
570.334000
21
348.722673
0
LINE
8
0
10
570.334000
20
348.510000
11
569.553035
21
348.606760
0
LINE
8
0
10
569.553035
20
348.606760
11
568.769079
21
348.918765
0
LINE
8
0
10
568.769079
20
348.918765
11
568.071285
21
349.447257
0
LINE
8
0
10
568.071285
20
349.447257
11
567.542768
21
350.145065
0
LINE
8
0
10
567.542768
20
350.145065
11
567.230772
21
350.929033
0
LINE
8
0
10
567.230772
20
350.929033
11
567.134026
21
351.709998
0
LINE
8
0
10
567.134026
20
351.709998
11
567.230772
21
352.490966
0
LINE
8
0
10
567.230772
20
352.490966
11
567.542768
21
353.274931
0
LINE
8
0
10
567.542768
20
353.274931
11
568.071285
21
353.972739
0
LINE
8
0
10
568.071285
20
353.972739
11
568.769079
21
354.501231
0
LINE
8
0
10
568.769079
20
354.501231
11
569.553035
21
354.813236
0
LINE
8
0
10
569.553035
20
354.813236
11
570.334000
21
354.909996
0
LINE
8
0
10
570.334000
20
354.696000
11
570.334000
21
354.909000
0
LINE
8
0
10
570.334000
20
348.723000
11
570.334000
21
348.509000
0
LINE
8
0
10
570.334000
20
354.909000
11
571.114993
21
354.812240
0
LINE
8
0
10
571.114993
20
354.812240
11
571.898949
21
354.500235
0
LINE
8
0
10
571.898949
20
354.500235
11
572.596743
21
353.971743
0
LINE
8
0
10
572.596743
20
353.971743
11
573.125232
21
353.273935
0
LINE
8
0
10
573.125232
20
353.273935
11
573.437257
21
352.489970
0
LINE
8
0
10
573.437257
20
352.489970
11
573.534003
21
351.709002
0
LINE
8
0
10
573.534003
20
351.709002
11
573.437257
21
350.928037
0
LINE
8
0
10
573.437257
20
350.928037
11
573.125232
21
350.144069
0
LINE
8
0
10
573.125232
20
350.144069
11
572.596743
21
349.446261
0
LINE
8
0
10
572.596743
20
349.446261
11
571.898949
21
348.917769
0
LINE
8
0
10
571.898949
20
348.917769
11
571.114993
21
348.605764
0
LINE
8
0
10
571.114993
20
348.605764
11
570.334000
21
348.509004
0
LINE
8
0
10
570.334000
20
353.629000
11
569.627260
21
353.494194
0
LINE
8
0
10
569.627260
20
353.494194
11
568.976371
21
353.066647
0
LINE
8
0
10
568.976371
20
353.066647
11
568.548833
21
352.415741
0
LINE
8
0
10
568.548833
20
352.415741
11
568.414016
21
351.709001
0
LINE
8
0
10
568.414016
20
351.709001
11
568.548833
21
351.002261
0
LINE
8
0
10
568.548833
20
351.002261
11
568.976371
21
350.351358
0
LINE
8
0
10
568.976371
20
350.351358
11
569.627260
21
349.923809
0
LINE
8
0
10
569.627260
20
349.923809
11
570.334000
21
349.789003
0
LINE
8
0
10
570.334000
20
317.278000
11
570.334000
21
316.958000
0
LINE
8
0
10
570.334000
20
316.958000
11
569.787336
21
317.025733
0
LINE
8
0
10
569.787336
20
317.025733
11
569.238555
21
317.244136
0
LINE
8
0
10
569.238555
20
317.244136
11
568.750085
21
317.614081
0
LINE
8
0
10
568.750085
20
317.614081
11
568.380148
21
318.102545
0
LINE
8
0
10
568.380148
20
318.102545
11
568.161736
21
318.651323
0
LINE
8
0
10
568.161736
20
318.651323
11
568.094003
21
319.197998
0
LINE
8
0
10
568.094003
20
319.197998
11
568.161736
21
319.744676
0
LINE
8
0
10
568.161736
20
319.744676
11
568.380148
21
320.293451
0
LINE
8
0
10
568.380148
20
320.293451
11
568.750085
21
320.781915
0
LINE
8
0
10
568.750085
20
320.781915
11
569.238555
21
321.151860
0
LINE
8
0
10
569.238555
20
321.151860
11
569.787336
21
321.370263
0
LINE
8
0
10
569.787336
20
321.370263
11
570.334000
21
321.437997
0
LINE
8
0
10
570.334000
20
321.118000
11
570.334000
21
321.438000
0
LINE
8
0
10
570.334000
20
321.118000
11
569.627260
21
320.983194
0
LINE
8
0
10
569.627260
20
320.983194
11
568.976371
21
320.555645
0
LINE
8
0
10
568.976371
20
320.555645
11
568.548833
21
319.904742
0
LINE
8
0
10
568.548833
20
319.904742
11
568.414016
21
319.198002
0
LINE
8
0
10
568.414016
20
319.198002
11
568.548833
21
318.491262
0
LINE
8
0
10
568.548833
20
318.491262
11
568.976371
21
317.840359
0
LINE
8
0
10
568.976371
20
317.840359
11
569.627260
21
317.412810
0
LINE
8
0
10
569.627260
20
317.412810
11
570.334000
21
317.278004
0
LINE
8
0
10
570.334000
20
321.438000
11
570.880692
21
321.370267
0
LINE
8
0
10
570.880692
20
321.370267
11
571.429473
21
321.151864
0
LINE
8
0
10
571.429473
20
321.151864
11
571.917943
21
320.781919
0
LINE
8
0
10
571.917943
20
320.781919
11
572.287880
21
320.293455
0
LINE
8
0
10
572.287880
20
320.293455
11
572.506292
21
319.744680
0
LINE
8
0
10
572.506292
20
319.744680
11
572.574025
21
319.198002
0
LINE
8
0
10
572.574025
20
319.198002
11
572.506292
21
318.651327
0
LINE
8
0
10
572.506292
20
318.651327
11
572.287880
21
318.102549
0
LINE
8
0
10
572.287880
20
318.102549
11
571.917943
21
317.614085
0
LINE
8
0
10
571.917943
20
317.614085
11
571.429473
21
317.244140
0
LINE
8
0
10
571.429473
20
317.244140
11
570.880692
21
317.025737
0
LINE
8
0
10
570.880692
20
317.025737
11
570.334000
21
316.958003
0
LINE
8
0
10
570.334000
20
316.211000
11
571.062923
21
316.301311
0
LINE
8
0
10
571.062923
20
316.301311
11
571.794612
21
316.592516
0
LINE
8
0
10
571.794612
20
316.592516
11
572.445896
21
317.085775
0
LINE
8
0
10
572.445896
20
317.085775
11
572.939164
21
317.737062
0
LINE
8
0
10
572.939164
20
317.737062
11
573.230361
21
318.468765
0
LINE
8
0
10
573.230361
20
318.468765
11
573.320672
21
319.197665
0
LINE
8
0
10
573.320672
20
319.197665
11
573.230361
21
319.926568
0
LINE
8
0
10
573.230361
20
319.926568
11
572.939164
21
320.658268
0
LINE
8
0
10
572.939164
20
320.658268
11
572.445896
21
321.309555
0
LINE
8
0
10
572.445896
20
321.309555
11
571.794612
21
321.802814
0
LINE
8
0
10
571.794612
20
321.802814
11
571.062923
21
322.094019
0
LINE
8
0
10
571.062923
20
322.094019
11
570.334000
21
322.184330
0
LINE
8
0
10
570.334000
20
322.184000
11
569.605105
21
322.093689
0
LINE
8
0
10
569.605105
20
322.093689
11
568.873416
21
321.802484
0
LINE
8
0
10
568.873416
20
321.802484
11
568.222132
21
321.309225
0
LINE
8
0
10
568.222132
20
321.309225
11
567.728864
21
320.657938
0
LINE
8
0
10
567.728864
20
320.657938
11
567.437667
21
319.926238
0
LINE
8
0
10
567.437667
20
319.926238
11
567.347356
21
319.197335
0
LINE
8
0
10
567.347356
20
319.197335
11
567.437667
21
318.468435
0
LINE
8
0
10
567.437667
20
318.468435
11
567.728864
21
317.736732
0
LINE
8
0
10
567.728864
20
317.736732
11
568.222132
21
317.085445
0
LINE
8
0
10
568.222132
20
317.085445
11
568.873416
21
316.592186
0
LINE
8
0
10
568.873416
20
316.592186
11
569.605105
21
316.300981
0
LINE
8
0
10
569.605105
20
316.300981
11
570.334000
21
316.210670
0
LINE
8
0
10
570.334000
20
322.184000
11
570.334000
21
322.397000
0
LINE
8
0
10
570.334000
20
322.398000
11
571.114993
21
322.301240
0
LINE
8
0
10
571.114993
20
322.301240
11
571.898949
21
321.989235
0
LINE
8
0
10
571.898949
20
321.989235
11
572.596743
21
321.460743
0
LINE
8
0
10
572.596743
20
321.460743
11
573.125232
21
320.762935
0
LINE
8
0
10
573.125232
20
320.762935
11
573.437257
21
319.978970
0
LINE
8
0
10
573.437257
20
319.978970
11
573.534003
21
319.198002
0
LINE
8
0
10
573.534003
20
319.198002
11
573.437257
21
318.417037
0
LINE
8
0
10
573.437257
20
318.417037
11
573.125232
21
317.633069
0
LINE
8
0
10
573.125232
20
317.633069
11
572.596743
21
316.935261
0
LINE
8
0
10
572.596743
20
316.935261
11
571.898949
21
316.406772
0
LINE
8
0
10
571.898949
20
316.406772
11
571.114993
21
316.094764
0
LINE
8
0
10
571.114993
20
316.094764
11
570.334000
21
315.998004
0
LINE
8
0
10
570.334000
20
316.211000
11
570.334000
21
315.997000
0
LINE
8
0
10
570.334000
20
317.278000
11
571.040740
21
317.412806
0
LINE
8
0
10
571.040740
20
317.412806
11
571.691657
21
317.840355
0
LINE
8
0
10
571.691657
20
317.840355
11
572.119195
21
318.491258
0
LINE
8
0
10
572.119195
20
318.491258
11
572.254012
21
319.197998
0
LINE
8
0
10
572.254012
20
319.197998
11
572.119195
21
319.904738
0
LINE
8
0
10
572.119195
20
319.904738
11
571.691657
21
320.555641
0
LINE
8
0
10
571.691657
20
320.555641
11
571.040740
21
320.983190
0
LINE
8
0
10
571.040740
20
320.983190
11
570.334000
21
321.117996
0
LINE
8
0
10
570.334000
20
315.998000
11
569.553035
21
316.094760
0
LINE
8
0
10
569.553035
20
316.094760
11
568.769079
21
316.406768
0
LINE
8
0
10
568.769079
20
316.406768
11
568.071285
21
316.935257
0
LINE
8
0
10
568.071285
20
316.935257
11
567.542768
21
317.633065
0
LINE
8
0
10
567.542768
20
317.633065
11
567.230772
21
318.417033
0
LINE
8
0
10
567.230772
20
318.417033
11
567.134026
21
319.197998
0
LINE
8
0
10
567.134026
20
319.197998
11
567.230772
21
319.978966
0
LINE
8
0
10
567.230772
20
319.978966
11
567.542768
21
320.762931
0
LINE
8
0
10
567.542768
20
320.762931
11
568.071285
21
321.460739
0
LINE
8
0
10
568.071285
20
321.460739
11
568.769079
21
321.989231
0
LINE
8
0
10
568.769079
20
321.989231
11
569.553035
21
322.301236
0
LINE
8
0
10
569.553035
20
322.301236
11
570.334000
21
322.397996
0
LINE
8
0
10
570.334000
20
283.507000
11
570.880692
21
283.439267
0
LINE
8
0
10
570.880692
20
283.439267
11
571.429473
21
283.220864
0
LINE
8
0
10
571.429473
20
283.220864
11
571.917943
21
282.850919
0
LINE
8
0
10
571.917943
20
282.850919
11
572.287880
21
282.362455
0
LINE
8
0
10
572.287880
20
282.362455
11
572.506292
21
281.813680
0
LINE
8
0
10
572.506292
20
281.813680
11
572.574025
21
281.267002
0
LINE
8
0
10
572.574025
20
281.267002
11
572.506292
21
280.720327
0
LINE
8
0
10
572.506292
20
280.720327
11
572.287880
21
280.171549
0
LINE
8
0
10
572.287880
20
280.171549
11
571.917943
21
279.683085
0
LINE
8
0
10
571.917943
20
279.683085
11
571.429473
21
279.313140
0
LINE
8
0
10
571.429473
20
279.313140
11
570.880692
21
279.094737
0
LINE
8
0
10
570.880692
20
279.094737
11
570.334000
21
279.027003
0
LINE
8
0
10
570.334000
20
279.027000
11
569.787336
21
279.094733
0
LINE
8
0
10
569.787336
20
279.094733
11
569.238555
21
279.313136
0
LINE
8
0
10
569.238555
20
279.313136
11
568.750085
21
279.683081
0
LINE
8
0
10
568.750085
20
279.683081
11
568.380148
21
280.171545
0
LINE
8
0
10
568.380148
20
280.171545
11
568.161736
21
280.720323
0
LINE
8
0
10
568.161736
20
280.720323
11
568.094003
21
281.266998
0
LINE
8
0
10
568.094003
20
281.266998
11
568.161736
21
281.813676
0
LINE
8
0
10
568.161736
20
281.813676
11
568.380148
21
282.362451
0
LINE
8
0
10
568.380148
20
282.362451
11
568.750085
21
282.850915
0
LINE
8
0
10
568.750085
20
282.850915
11
569.238555
21
283.220860
0
LINE
8
0
10
569.238555
20
283.220860
11
569.787336
21
283.439263
0
LINE
8
0
10
569.787336
20
283.439263
11
570.334000
21
283.506997
0
LINE
8
0
10
570.334000
20
278.280000
11
571.062923
21
278.370308
0
LINE
8
0
10
571.062923
20
278.370308
11
571.794612
21
278.661513
0
LINE
8
0
10
571.794612
20
278.661513
11
572.445896
21
279.154772
0
LINE
8
0
10
572.445896
20
279.154772
11
572.939164
21
279.806059
0
LINE
8
0
10
572.939164
20
279.806059
11
573.230361
21
280.537762
0
LINE
8
0
10
573.230361
20
280.537762
11
573.320672
21
281.266662
0
LINE
8
0
10
573.320672
20
281.266662
11
573.230361
21
281.995565
0
LINE
8
0
10
573.230361
20
281.995565
11
572.939164
21
282.727265
0
LINE
8
0
10
572.939164
20
282.727265
11
572.445896
21
283.378552
0
LINE
8
0
10
572.445896
20
283.378552
11
571.794612
21
283.871811
0
LINE
8
0
10
571.794612
20
283.871811
11
571.062923
21
284.163016
0
LINE
8
0
10
571.062923
20
284.163016
11
570.334000
21
284.253327
0
LINE
8
0
10
570.334000
20
284.254000
11
569.605105
21
284.163689
0
LINE
8
0
10
569.605105
20
284.163689
11
568.873416
21
283.872484
0
LINE
8
0
10
568.873416
20
283.872484
11
568.222132
21
283.379225
0
LINE
8
0
10
568.222132
20
283.379225
11
567.728864
21
282.727938
0
LINE
8
0
10
567.728864
20
282.727938
11
567.437667
21
281.996238
0
LINE
8
0
10
567.437667
20
281.996238
11
567.347356
21
281.267335
0
LINE
8
0
10
567.347356
20
281.267335
11
567.437667
21
280.538435
0
LINE
8
0
10
567.437667
20
280.538435
11
567.728864
21
279.806732
0
LINE
8
0
10
567.728864
20
279.806732
11
568.222132
21
279.155445
0
LINE
8
0
10
568.222132
20
279.155445
11
568.873416
21
278.662186
0
LINE
8
0
10
568.873416
20
278.662186
11
569.605105
21
278.370981
0
LINE
8
0
10
569.605105
20
278.370981
11
570.334000
21
278.280673
0
LINE
8
0
10
570.334000
20
279.347000
11
570.334000
21
279.027000
0
LINE
8
0
10
570.334000
20
283.187000
11
570.334000
21
283.507000
0
LINE
8
0
10
570.334000
20
283.187000
11
569.627260
21
283.052194
0
LINE
8
0
10
569.627260
20
283.052194
11
568.976371
21
282.624647
0
LINE
8
0
10
568.976371
20
282.624647
11
568.548833
21
281.973741
0
LINE
8
0
10
568.548833
20
281.973741
11
568.414016
21
281.267001
0
LINE
8
0
10
568.414016
20
281.267001
11
568.548833
21
280.560261
0
LINE
8
0
10
568.548833
20
280.560261
11
568.976371
21
279.909358
0
LINE
8
0
10
568.976371
20
279.909358
11
569.627260
21
279.481809
0
LINE
8
0
10
569.627260
20
279.481809
11
570.334000
21
279.347003
0
LINE
8
0
10
570.334000
20
278.067000
11
569.553035
21
278.163760
0
LINE
8
0
10
569.553035
20
278.163760
11
568.769079
21
278.475765
0
LINE
8
0
10
568.769079
20
278.475765
11
568.071285
21
279.004257
0
LINE
8
0
10
568.071285
20
279.004257
11
567.542768
21
279.702065
0
LINE
8
0
10
567.542768
20
279.702065
11
567.230772
21
280.486033
0
LINE
8
0
10
567.230772
20
280.486033
11
567.134026
21
281.266998
0
LINE
8
0
10
567.134026
20
281.266998
11
567.230772
21
282.047966
0
LINE
8
0
10
567.230772
20
282.047966
11
567.542768
21
282.831931
0
LINE
8
0
10
567.542768
20
282.831931
11
568.071285
21
283.529739
0
LINE
8
0
10
568.071285
20
283.529739
11
568.769079
21
284.058231
0
LINE
8
0
10
568.769079
20
284.058231
11
569.553035
21
284.370236
0
LINE
8
0
10
569.553035
20
284.370236
11
570.334000
21
284.466996
0
LINE
8
0
10
570.334000
20
284.254000
11
570.334000
21
284.467000
0
LINE
8
0
10
570.334000
20
278.280000
11
570.334000
21
278.067000
0
LINE
8
0
10
570.334000
20
279.347000
11
571.040740
21
279.481806
0
LINE
8
0
10
571.040740
20
279.481806
11
571.691657
21
279.909355
0
LINE
8
0
10
571.691657
20
279.909355
11
572.119195
21
280.560258
0
LINE
8
0
10
572.119195
20
280.560258
11
572.254012
21
281.266998
0
LINE
8
0
10
572.254012
20
281.266998
11
572.119195
21
281.973738
0
LINE
8
0
10
572.119195
20
281.973738
11
571.691657
21
282.624644
0
LINE
8
0
10
571.691657
20
282.624644
11
571.040740
21
283.052191
0
LINE
8
0
10
571.040740
20
283.052191
11
570.334000
21
283.186997
0
LINE
8
0
10
570.334000
20
284.467000
11
571.114993
21
284.370240
0
LINE
8
0
10
571.114993
20
284.370240
11
571.898949
21
284.058235
0
LINE
8
0
10
571.898949
20
284.058235
11
572.596743
21
283.529743
0
LINE
8
0
10
572.596743
20
283.529743
11
573.125232
21
282.831935
0
LINE
8
0
10
573.125232
20
282.831935
11
573.437257
21
282.047970
0
LINE
8
0
10
573.437257
20
282.047970
11
573.534003
21
281.267002
0
LINE
8
0
10
573.534003
20
281.267002
11
573.437257
21
280.486037
0
LINE
8
0
10
573.437257
20
280.486037
11
573.125232
21
279.702069
0
LINE
8
0
10
573.125232
20
279.702069
11
572.596743
21
279.004261
0
LINE
8
0
10
572.596743
20
279.004261
11
571.898949
21
278.475769
0
LINE
8
0
10
571.898949
20
278.475769
11
571.114993
21
278.163764
0
LINE
8
0
10
571.114993
20
278.163764
11
570.334000
21
278.067004
0
LINE
8
0
10
570.334000
20
259.102000
11
569.553035
21
259.198760
0
LINE
8
0
10
569.553035
20
259.198760
11
568.769079
21
259.510768
0
LINE
8
0
10
568.769079
20
259.510768
11
568.071285
21
260.039257
0
LINE
8
0
10
568.071285
20
260.039257
11
567.542768
21
260.737065
0
LINE
8
0
10
567.542768
20
260.737065
11
567.230772
21
261.521033
0
LINE
8
0
10
567.230772
20
261.521033
11
567.134026
21
262.301998
0
LINE
8
0
10
567.134026
20
262.301998
11
567.230772
21
263.082966
0
LINE
8
0
10
567.230772
20
263.082966
11
567.542768
21
263.866931
0
LINE
8
0
10
567.542768
20
263.866931
11
568.071285
21
264.564739
0
LINE
8
0
10
568.071285
20
264.564739
11
568.769079
21
265.093231
0
LINE
8
0
10
568.769079
20
265.093231
11
569.553035
21
265.405236
0
LINE
8
0
10
569.553035
20
265.405236
11
570.334000
21
265.501996
0
LINE
8
0
10
570.334000
20
265.288000
11
570.334000
21
265.501000
0
LINE
8
0
10
570.334000
20
265.288000
11
569.605105
21
265.197689
0
LINE
8
0
10
569.605105
20
265.197689
11
568.873416
21
264.906484
0
LINE
8
0
10
568.873416
20
264.906484
11
568.222132
21
264.413225
0
LINE
8
0
10
568.222132
20
264.413225
11
567.728864
21
263.761938
0
LINE
8
0
10
567.728864
20
263.761938
11
567.437667
21
263.030238
0
LINE
8
0
10
567.437667
20
263.030238
11
567.347356
21
262.301335
0
LINE
8
0
10
567.347356
20
262.301335
11
567.437667
21
261.572435
0
LINE
8
0
10
567.437667
20
261.572435
11
567.728864
21
260.840732
0
LINE
8
0
10
567.728864
20
260.840732
11
568.222132
21
260.189445
0
LINE
8
0
10
568.222132
20
260.189445
11
568.873416
21
259.696186
0
LINE
8
0
10
568.873416
20
259.696186
11
569.605105
21
259.404981
0
LINE
8
0
10
569.605105
20
259.404981
11
570.334000
21
259.314670
0
LINE
8
0
10
570.334000
20
259.315000
11
570.334000
21
259.101000
0
LINE
8
0
10
570.334000
20
260.382000
11
570.334000
21
260.062000
0
LINE
8
0
10
570.334000
20
260.062000
11
569.787336
21
260.129733
0
LINE
8
0
10
569.787336
20
260.129733
11
569.238555
21
260.348136
0
LINE
8
0
10
569.238555
20
260.348136
11
568.750085
21
260.718081
0
LINE
8
0
10
568.750085
20
260.718081
11
568.380148
21
261.206545
0
LINE
8
0
10
568.380148
20
261.206545
11
568.161736
21
261.755323
0
LINE
8
0
10
568.161736
20
261.755323
11
568.094003
21
262.301998
0
LINE
8
0
10
568.094003
20
262.301998
11
568.161736
21
262.848676
0
LINE
8
0
10
568.161736
20
262.848676
11
568.380148
21
263.397451
0
LINE
8
0
10
568.380148
20
263.397451
11
568.750085
21
263.885915
0
LINE
8
0
10
568.750085
20
263.885915
11
569.238555
21
264.255860
0
LINE
8
0
10
569.238555
20
264.255860
11
569.787336
21
264.474263
0
LINE
8
0
10
569.787336
20
264.474263
11
570.334000
21
264.541997
0
LINE
8
0
10
570.334000
20
264.222000
11
570.334000
21
264.542000
0
LINE
8
0
10
570.334000
20
264.222000
11
569.627260
21
264.087194
0
LINE
8
0
10
569.627260
20
264.087194
11
568.976371
21
263.659645
0
LINE
8
0
10
568.976371
20
263.659645
11
568.548833
21
263.008742
0
LINE
8
0
10
568.548833
20
263.008742
11
568.414016
21
262.302002
0
LINE
8
0
10
568.414016
20
262.302002
11
568.548833
21
261.595262
0
LINE
8
0
10
568.548833
20
261.595262
11
568.976371
21
260.944359
0
LINE
8
0
10
568.976371
20
260.944359
11
569.627260
21
260.516810
0
LINE
8
0
10
569.627260
20
260.516810
11
570.334000
21
260.382004
0
LINE
8
0
10
570.334000
20
264.542000
11
570.880692
21
264.474267
0
LINE
8
0
10
570.880692
20
264.474267
11
571.429473
21
264.255864
0
LINE
8
0
10
571.429473
20
264.255864
11
571.917943
21
263.885919
0
LINE
8
0
10
571.917943
20
263.885919
11
572.287880
21
263.397455
0
LINE
8
0
10
572.287880
20
263.397455
11
572.506292
21
262.848680
0
LINE
8
0
10
572.506292
20
262.848680
11
572.574025
21
262.302002
0
LINE
8
0
10
572.574025
20
262.302002
11
572.506292
21
261.755327
0
LINE
8
0
10
572.506292
20
261.755327
11
572.287880
21
261.206549
0
LINE
8
0
10
572.287880
20
261.206549
11
571.917943
21
260.718085
0
LINE
8
0
10
571.917943
20
260.718085
11
571.429473
21
260.348140
0
LINE
8
0
10
571.429473
20
260.348140
11
570.880692
21
260.129737
0
LINE
8
0
10
570.880692
20
260.129737
11
570.334000
21
260.062003
0
LINE
8
0
10
570.334000
20
260.382000
11
571.040740
21
260.516806
0
LINE
8
0
10
571.040740
20
260.516806
11
571.691657
21
260.944355
0
LINE
8
0
10
571.691657
20
260.944355
11
572.119195
21
261.595258
0
LINE
8
0
10
572.119195
20
261.595258
11
572.254012
21
262.301998
0
LINE
8
0
10
572.254012
20
262.301998
11
572.119195
21
263.008738
0
LINE
8
0
10
572.119195
20
263.008738
11
571.691657
21
263.659641
0
LINE
8
0
10
571.691657
20
263.659641
11
571.040740
21
264.087190
0
LINE
8
0
10
571.040740
20
264.087190
11
570.334000
21
264.221996
0
LINE
8
0
10
570.334000
20
259.315000
11
571.062923
21
259.405311
0
LINE
8
0
10
571.062923
20
259.405311
11
571.794612
21
259.696516
0
LINE
8
0
10
571.794612
20
259.696516
11
572.445896
21
260.189775
0
LINE
8
0
10
572.445896
20
260.189775
11
572.939164
21
260.841062
0
LINE
8
0
10
572.939164
20
260.841062
11
573.230361
21
261.572765
0
LINE
8
0
10
573.230361
20
261.572765
11
573.320672
21
262.301665
0
LINE
8
0
10
573.320672
20
262.301665
11
573.230361
21
263.030568
0
LINE
8
0
10
573.230361
20
263.030568
11
572.939164
21
263.762268
0
LINE
8
0
10
572.939164
20
263.762268
11
572.445896
21
264.413555
0
LINE
8
0
10
572.445896
20
264.413555
11
571.794612
21
264.906814
0
LINE
8
0
10
571.794612
20
264.906814
11
571.062923
21
265.198019
0
LINE
8
0
10
571.062923
20
265.198019
11
570.334000
21
265.288330
0
LINE
8
0
10
570.334000
20
265.502000
11
571.114993
21
265.405240
0
LINE
8
0
10
571.114993
20
265.405240
11
571.898949
21
265.093235
0
LINE
8
0
10
571.898949
20
265.093235
11
572.596743
21
264.564743
0
LINE
8
0
10
572.596743
20
264.564743
11
573.125232
21
263.866935
0
LINE
8
0
10
573.125232
20
263.866935
11
573.437257
21
263.082970
0
LINE
8
0
10
573.437257
20
263.082970
11
573.534003
21
262.302002
0
LINE
8
0
10
573.534003
20
262.302002
11
573.437257
21
261.521037
0
LINE
8
0
10
573.437257
20
261.521037
11
573.125232
21
260.737069
0
LINE
8
0
10
573.125232
20
260.737069
11
572.596743
21
260.039261
0
LINE
8
0
10
572.596743
20
260.039261
11
571.898949
21
259.510772
0
LINE
8
0
10
571.898949
20
259.510772
11
571.114993
21
259.198764
0
LINE
8
0
10
571.114993
20
259.198764
11
570.334000
21
259.102004
0
LINE
8
0
10
570.334000
20
297.032000
11
569.553035
21
297.128760
0
LINE
8
0
10
569.553035
20
297.128760
11
568.769079
21
297.440765
0
LINE
8
0
10
568.769079
20
297.440765
11
568.071285
21
297.969257
0
LINE
8
0
10
568.071285
20
297.969257
11
567.542768
21
298.667065
0
LINE
8
0
10
567.542768
20
298.667065
11
567.230772
21
299.451033
0
LINE
8
0
10
567.230772
20
299.451033
11
567.134026
21
300.231998
0
LINE
8
0
10
567.134026
20
300.231998
11
567.230772
21
301.012966
0
LINE
8
0
10
567.230772
20
301.012966
11
567.542768
21
301.796931
0
LINE
8
0
10
567.542768
20
301.796931
11
568.071285
21
302.494739
0
LINE
8
0
10
568.071285
20
302.494739
11
568.769079
21
303.023231
0
LINE
8
0
10
568.769079
20
303.023231
11
569.553035
21
303.335236
0
LINE
8
0
10
569.553035
20
303.335236
11
570.334000
21
303.431998
0
LINE
8
0
10
570.334000
20
303.219000
11
570.334000
21
303.432000
0
LINE
8
0
10
570.334000
20
303.219000
11
569.605105
21
303.128689
0
LINE
8
0
10
569.605105
20
303.128689
11
568.873416
21
302.837484
0
LINE
8
0
10
568.873416
20
302.837484
11
568.222132
21
302.344228
0
LINE
8
0
10
568.222132
20
302.344228
11
567.728864
21
301.692939
0
LINE
8
0
10
567.728864
20
301.692939
11
567.437667
21
300.961239
0
LINE
8
0
10
567.437667
20
300.961239
11
567.347356
21
300.232336
0
LINE
8
0
10
567.347356
20
300.232336
11
567.437667
21
299.503436
0
LINE
8
0
10
567.437667
20
299.503436
11
567.728864
21
298.771733
0
LINE
8
0
10
567.728864
20
298.771733
11
568.222132
21
298.120446
0
LINE
8
0
10
568.222132
20
298.120446
11
568.873416
21
297.627187
0
LINE
8
0
10
568.873416
20
297.627187
11
569.605105
21
297.335982
0
LINE
8
0
10
569.605105
20
297.335982
11
570.334000
21
297.245671
0
LINE
8
0
10
570.334000
20
297.245000
11
570.334000
21
297.032000
0
LINE
8
0
10
570.334000
20
302.472000
11
570.880692
21
302.404267
0
LINE
8
0
10
570.880692
20
302.404267
11
571.429473
21
302.185864
0
LINE
8
0
10
571.429473
20
302.185864
11
571.917943
21
301.815919
0
LINE
8
0
10
571.917943
20
301.815919
11
572.287880
21
301.327455
0
LINE
8
0
10
572.287880
20
301.327455
11
572.506292
21
300.778680
0
LINE
8
0
10
572.506292
20
300.778680
11
572.574025
21
300.232002
0
LINE
8
0
10
572.574025
20
300.232002
11
572.506292
21
299.685327
0
LINE
8
0
10
572.506292
20
299.685327
11
572.287880
21
299.136549
0
LINE
8
0
10
572.287880
20
299.136549
11
571.917943
21
298.648085
0
LINE
8
0
10
571.917943
20
298.648085
11
571.429473
21
298.278140
0
LINE
8
0
10
571.429473
20
298.278140
11
570.880692
21
298.059737
0
LINE
8
0
10
570.880692
20
298.059737
11
570.334000
21
297.992003
0
LINE
8
0
10
570.334000
20
298.312000
11
570.334000
21
297.992000
0
LINE
8
0
10
570.334000
20
298.312000
11
571.040740
21
298.446806
0
LINE
8
0
10
571.040740
20
298.446806
11
571.691657
21
298.874355
0
LINE
8
0
10
571.691657
20
298.874355
11
572.119195
21
299.525258
0
LINE
8
0
10
572.119195
20
299.525258
11
572.254012
21
300.231998
0
LINE
8
0
10
572.254012
20
300.231998
11
572.119195
21
300.938741
0
LINE
8
0
10
572.119195
20
300.938741
11
571.691657
21
301.589641
0
LINE
8
0
10
571.691657
20
301.589641
11
571.040740
21
302.017190
0
LINE
8
0
10
571.040740
20
302.017190
11
570.334000
21
302.151996
0
LINE
8
0
10
570.334000
20
302.152000
11
570.334000
21
302.472000
0
LINE
8
0
10
570.334000
20
303.432000
11
571.114993
21
303.335237
0
LINE
8
0
10
571.114993
20
303.335237
11
571.898949
21
303.023232
0
LINE
8
0
10
571.898949
20
303.023232
11
572.596743
21
302.494740
0
LINE
8
0
10
572.596743
20
302.494740
11
573.125232
21
301.796932
0
LINE
8
0
10
573.125232
20
301.796932
11
573.437257
21
301.012967
0
LINE
8
0
10
573.437257
20
301.012967
11
573.534003
21
300.231999
0
LINE
8
0
10
573.534003
20
300.231999
11
573.437257
21
299.451034
0
LINE
8
0
10
573.437257
20
299.451034
11
573.125232
21
298.667066
0
LINE
8
0
10
573.125232
20
298.667066
11
572.596743
21
297.969258
0
LINE
8
0
10
572.596743
20
297.969258
11
571.898949
21
297.440766
0
LINE
8
0
10
571.898949
20
297.440766
11
571.114993
21
297.128761
0
LINE
8
0
10
571.114993
20
297.128761
11
570.334000
21
297.032002
0
LINE
8
0
10
570.334000
20
297.246000
11
571.062923
21
297.336311
0
LINE
8
0
10
571.062923
20
297.336311
11
571.794612
21
297.627516
0
LINE
8
0
10
571.794612
20
297.627516
11
572.445896
21
298.120775
0
LINE
8
0
10
572.445896
20
298.120775
11
572.939164
21
298.772062
0
LINE
8
0
10
572.939164
20
298.772062
11
573.230361
21
299.503765
0
LINE
8
0
10
573.230361
20
299.503765
11
573.320672
21
300.232665
0
LINE
8
0
10
573.320672
20
300.232665
11
573.230361
21
300.961568
0
LINE
8
0
10
573.230361
20
300.961568
11
572.939164
21
301.693268
0
LINE
8
0
10
572.939164
20
301.693268
11
572.445896
21
302.344557
0
LINE
8
0
10
572.445896
20
302.344557
11
571.794612
21
302.837813
0
LINE
8
0
10
571.794612
20
302.837813
11
571.062923
21
303.129018
0
LINE
8
0
10
571.062923
20
303.129018
11
570.334000
21
303.219329
0
LINE
8
0
10
570.334000
20
297.992000
11
569.787336
21
298.059733
0
LINE
8
0
10
569.787336
20
298.059733
11
569.238555
21
298.278136
0
LINE
8
0
10
569.238555
20
298.278136
11
568.750085
21
298.648081
0
LINE
8
0
10
568.750085
20
298.648081
11
568.380148
21
299.136545
0
LINE
8
0
10
568.380148
20
299.136545
11
568.161736
21
299.685323
0
LINE
8
0
10
568.161736
20
299.685323
11
568.094003
21
300.231998
0
LINE
8
0
10
568.094003
20
300.231998
11
568.161736
21
300.778676
0
LINE
8
0
10
568.161736
20
300.778676
11
568.380148
21
301.327451
0
LINE
8
0
10
568.380148
20
301.327451
11
568.750085
21
301.815915
0
LINE
8
0
10
568.750085
20
301.815915
11
569.238555
21
302.185860
0
LINE
8
0
10
569.238555
20
302.185860
11
569.787336
21
302.404263
0
LINE
8
0
10
569.787336
20
302.404263
11
570.334000
21
302.471997
0
LINE
8
0
10
570.334000
20
302.152000
11
569.627260
21
302.017194
0
LINE
8
0
10
569.627260
20
302.017194
11
568.976371
21
301.589645
0
LINE
8
0
10
568.976371
20
301.589645
11
568.548833
21
300.938745
0
LINE
8
0
10
568.548833
20
300.938745
11
568.414016
21
300.232002
0
LINE
8
0
10
568.414016
20
300.232002
11
568.548833
21
299.525262
0
LINE
8
0
10
568.548833
20
299.525262
11
568.976371
21
298.874359
0
LINE
8
0
10
568.976371
20
298.874359
11
569.627260
21
298.446810
0
LINE
8
0
10
569.627260
20
298.446810
11
570.334000
21
298.312004
0
LINE
8
0
10
567.994000
20
256.505000
11
568.028431
21
256.533338
0
LINE
8
0
10
568.028431
20
256.533338
11
568.049033
21
256.561879
0
LINE
8
0
10
568.048000
20
256.562000
11
568.081867
21
256.620420
0
LINE
8
0
10
568.083000
20
256.620000
11
568.143875
21
256.771946
0
LINE
8
0
10
568.143875
20
256.771946
11
568.152624
21
256.900275
0
LINE
8
0
10
568.153000
20
256.900000
11
568.083602
21
257.217587
0
LINE
8
0
10
568.083602
20
257.217587
11
568.019678
21
257.328368
0
LINE
8
0
10
568.019678
20
257.328368
11
567.922735
21
257.411468
0
LINE
8
0
10
567.921000
20
257.412000
11
567.895600
21
257.426675
0
LINE
8
0
10
567.897000
20
257.427000
11
567.874422
21
257.436765
0
LINE
8
0
10
567.874422
20
257.436765
11
567.862004
21
257.437329
0
LINE
8
0
10
567.862004
20
257.437329
11
567.856642
21
257.434507
0
LINE
8
0
10
567.856642
20
257.434507
11
567.852409
21
257.429709
0
LINE
8
0
10
567.852000
20
257.429000
11
567.847484
21
257.425585
0
LINE
8
0
10
567.847484
20
257.425585
11
567.844662
21
257.420082
0
LINE
8
0
10
567.844662
20
257.420082
11
567.841276
21
257.411587
0
LINE
8
0
10
567.842000
20
257.412000
11
567.820269
21
257.161091
0
LINE
8
0
10
567.820269
20
257.161091
11
567.858877
21
256.965669
0
LINE
8
0
10
567.859000
20
256.966000
11
567.882142
21
256.874165
0
LINE
8
0
10
567.882142
20
256.874165
11
567.897100
21
256.801321
0
LINE
8
0
10
567.897000
20
256.801000
11
567.923811
21
256.650418
0
LINE
8
0
10
567.923811
20
256.650418
11
567.935664
21
256.530818
0
LINE
8
0
10
567.936000
20
256.531000
11
567.936226
21
256.522646
0
LINE
8
0
10
567.936226
20
256.522646
11
567.939330
21
256.515760
0
LINE
8
0
10
567.939330
20
256.515760
11
567.949772
21
256.508055
0
LINE
8
0
10
567.949000
20
256.508000
11
567.973835
21
256.501960
0
LINE
8
0
10
567.973835
20
256.501960
11
567.993591
21
256.505234
0
LINE
8
0
10
565.785000
20
255.612000
11
565.647784
21
255.721592
0
LINE
8
0
10
565.647784
20
255.721592
11
565.561509
21
255.873950
0
LINE
8
0
10
565.561509
20
255.873950
11
565.551066
21
256.011037
0
LINE
8
0
10
565.551066
20
256.011037
11
565.598310
21
256.140441
0
LINE
8
0
10
565.598000
20
256.140000
11
565.851322
21
256.379508
0
LINE
8
0
10
565.851322
20
256.379508
11
566.189706
21
256.471239
0
LINE
8
0
10
566.189706
20
256.471239
11
566.465239
21
256.446431
0
LINE
8
0
10
566.465239
20
256.446431
11
566.721863
21
256.342740
0
LINE
8
0
10
566.722000
20
256.343000
11
566.867993
21
256.224413
0
LINE
8
0
10
566.867993
20
256.224413
11
566.941258
21
256.096211
0
LINE
8
0
10
566.942000
20
256.096000
11
568.096290
21
258.094410
0
LINE
8
0
10
568.096000
20
258.095000
11
568.138333
21
258.070447
0
LINE
8
0
10
568.138000
20
258.070000
11
568.168311
21
258.038129
0
LINE
8
0
10
568.168311
20
258.038129
11
568.173108
21
258.021421
0
LINE
8
0
10
568.173108
20
258.021421
11
568.173108
21
258.003952
0
LINE
8
0
10
568.172000
20
258.004000
11
568.172000
21
258.001000
0
LINE
8
0
10
568.172000
20
258.001000
11
568.174822
21
257.997896
0
LINE
8
0
10
568.175000
20
257.998000
11
568.166533
21
257.981067
0
LINE
8
0
10
568.167000
20
257.981000
11
568.126840
21
257.704662
0
LINE
8
0
10
568.126840
20
257.704662
11
568.180293
21
257.489716
0
LINE
8
0
10
568.180000
20
257.489000
11
568.209041
21
257.396200
0
LINE
8
0
10
568.209041
20
257.396200
11
568.229078
21
257.322486
0
LINE
8
0
10
568.229000
20
257.323000
11
568.297157
21
256.966870
0
LINE
8
0
10
568.297157
20
256.966870
11
568.251493
21
256.688139
0
LINE
8
0
10
568.252000
20
256.688000
11
568.225189
21
256.630675
0
LINE
8
0
10
568.225189
20
256.630675
11
568.201200
21
256.587083
0
LINE
8
0
10
568.201000
20
256.587000
11
568.066352
21
256.403657
0
LINE
8
0
10
568.066352
20
256.403657
11
567.934470
21
256.283789
0
LINE
8
0
10
567.935000
20
256.284000
11
567.909600
21
256.241102
0
LINE
8
0
10
567.909000
20
256.241000
11
567.872819
21
256.029325
0
LINE
8
0
10
567.872819
20
256.029325
11
567.804409
21
255.874947
0
LINE
8
0
10
567.805000
20
255.875000
11
567.771133
21
255.817991
0
LINE
8
0
10
567.772000
20
255.818000
11
567.672686
21
255.655804
0
LINE
8
0
10
567.672686
20
255.655804
11
567.585762
21
255.534513
0
LINE
8
0
10
567.586000
20
255.534000
11
567.542171
21
255.514047
0
LINE
8
0
10
567.542171
20
255.514047
11
567.523262
21
255.513200
0
LINE
8
0
10
567.523262
20
255.513200
11
567.505482
21
255.519409
0
LINE
8
0
10
567.505000
20
255.520000
11
567.492582
21
255.532813
0
LINE
8
0
10
567.492582
20
255.532813
11
567.483269
21
255.543396
0
LINE
8
0
10
567.483000
20
255.543000
11
567.471711
21
255.564336
0
LINE
8
0
10
567.471711
20
255.564336
11
567.471739
21
255.588918
0
LINE
8
0
10
567.471739
20
255.588918
11
567.485286
21
255.624630
0
LINE
8
0
10
567.486000
20
255.625000
11
567.497289
21
255.645038
0
LINE
8
0
10
567.497000
20
255.645000
11
567.595552
21
255.768667
0
LINE
8
0
10
567.595552
20
255.768667
11
567.663031
21
255.872982
0
LINE
8
0
10
567.663000
20
255.873000
11
567.766773
21
256.114709
0
LINE
8
0
10
567.766773
20
256.114709
11
567.801994
21
256.318411
0
LINE
8
0
10
567.802000
20
256.318000
11
567.766468
21
256.713300
0
LINE
8
0
10
567.766468
20
256.713300
11
567.689252
21
256.849777
0
LINE
8
0
10
567.689252
20
256.849777
11
567.576787
21
256.958828
0
LINE
8
0
10
567.577000
20
256.959000
11
566.913778
21
255.810920
0
LINE
8
0
10
566.914000
20
255.811000
11
566.652493
21
255.588711
0
LINE
8
0
10
566.652493
20
255.588711
11
566.315266
21
255.505518
0
LINE
8
0
10
566.315266
20
255.505518
11
566.042103
21
255.520109
0
LINE
8
0
10
566.042103
20
255.520109
11
565.785112
21
255.611915
0
LINE
8
0
10
566.582000
20
312.462000
11
566.916856
21
312.493730
0
LINE
8
0
10
566.916856
20
312.493730
11
567.044307
21
312.528384
0
LINE
8
0
10
567.044307
20
312.528384
11
567.148983
21
312.605578
0
LINE
8
0
10
567.149000
20
312.606000
11
567.166216
21
312.655499
0
LINE
8
0
10
567.166216
20
312.655499
11
567.166216
21
312.696825
0
LINE
8
0
10
567.167000
20
312.696000
11
567.161356
21
312.751982
0
LINE
8
0
10
567.161356
20
312.751982
11
567.137649
21
312.802897
0
LINE
8
0
10
567.137649
20
312.802897
11
567.071581
21
312.861137
0
LINE
8
0
10
567.072000
20
312.862000
11
566.798724
21
312.930704
0
LINE
8
0
10
566.798724
20
312.930704
11
566.576136
21
312.940441
0
LINE
8
0
10
566.576000
20
312.940000
11
566.238716
21
312.915672
0
LINE
8
0
10
566.238716
20
312.915672
11
566.111349
21
312.878128
0
LINE
8
0
10
566.111349
20
312.878128
11
566.009044
21
312.795976
0
LINE
8
0
10
566.009000
20
312.796000
11
565.994042
21
312.746137
0
LINE
8
0
10
565.994042
20
312.746137
11
565.990373
21
312.705175
0
LINE
8
0
10
565.991000
20
312.705000
11
565.998338
21
312.642925
0
LINE
8
0
10
565.998338
20
312.642925
11
566.025431
21
312.586661
0
LINE
8
0
10
566.025431
20
312.586661
11
566.099317
21
312.522433
0
LINE
8
0
10
566.099000
20
312.523000
11
566.365305
21
312.459613
0
LINE
8
0
10
566.365305
20
312.459613
11
566.582023
21
312.462435
0
LINE
8
0
10
566.100000
20
312.326000
11
565.955587
21
312.440540
0
LINE
8
0
10
565.955587
20
312.440540
11
565.864458
21
312.600111
0
LINE
8
0
10
565.864458
20
312.600111
11
565.854580
21
312.744022
0
LINE
8
0
10
565.854580
20
312.744022
11
565.904702
21
312.879669
0
LINE
8
0
10
565.904000
20
312.880000
11
566.169006
21
313.132603
0
LINE
8
0
10
566.169006
20
313.132603
11
566.519836
21
313.238061
0
LINE
8
0
10
566.519836
20
313.238061
11
566.807166
21
313.210347
0
LINE
8
0
10
566.807166
20
313.210347
11
567.072793
21
313.095127
0
LINE
8
0
10
567.073000
20
313.095000
11
567.228815
21
312.967715
0
LINE
8
0
10
567.228815
20
312.967715
11
567.305128
21
312.829404
0
LINE
8
0
10
567.306000
20
312.829000
11
568.437710
21
314.792140
0
LINE
8
0
10
568.437000
20
314.793000
11
568.541422
21
314.733451
0
LINE
8
0
10
568.542000
20
314.733000
11
567.274820
21
312.540420
0
LINE
8
0
10
567.275000
20
312.540000
11
567.005930
21
312.289017
0
LINE
8
0
10
567.005930
20
312.289017
11
566.653914
21
312.180686
0
LINE
8
0
10
566.653914
20
312.180686
11
566.365568
21
312.208654
0
LINE
8
0
10
566.365568
20
312.208654
11
566.099320
21
312.325773
0
LINE
8
0
10
565.762000
20
274.591000
11
565.623824
21
274.702258
0
LINE
8
0
10
565.623824
20
274.702258
11
565.538649
21
274.857325
0
LINE
8
0
10
565.538649
20
274.857325
11
565.528207
21
274.995873
0
LINE
8
0
10
565.528207
20
274.995873
11
565.575705
21
275.126779
0
LINE
8
0
10
565.576000
20
275.126000
11
565.831862
21
275.367314
0
LINE
8
0
10
565.831862
20
275.367314
11
566.173210
21
275.461387
0
LINE
8
0
10
566.173210
20
275.461387
11
566.451396
21
275.438668
0
LINE
8
0
10
566.451396
20
275.438668
11
566.710391
21
275.334720
0
LINE
8
0
10
566.710000
20
275.335000
11
566.857433
21
275.214299
0
LINE
8
0
10
566.857433
20
275.214299
11
566.931121
21
275.084085
0
LINE
8
0
10
566.930000
20
275.084000
11
568.061710
21
277.043750
0
LINE
8
0
10
568.063000
20
277.044000
11
568.068362
21
277.052410
0
LINE
8
0
10
568.068362
20
277.052410
11
568.075700
21
277.059240
0
LINE
8
0
10
568.075700
20
277.059240
11
568.085296
21
277.062062
0
LINE
8
0
10
568.085296
20
277.062062
11
568.107027
21
277.053680
0
LINE
8
0
10
568.107000
20
277.053000
11
568.129578
21
277.039736
0
LINE
8
0
10
568.130000
20
277.040000
11
568.153142
21
277.019567
0
LINE
8
0
10
568.153142
20
277.019567
11
568.164149
21
276.990761
0
LINE
8
0
10
568.164149
20
276.990761
11
568.160762
21
276.942295
0
LINE
8
0
10
568.161000
20
276.942000
11
568.079240
21
276.461384
0
LINE
8
0
10
568.079240
20
276.461384
11
568.096174
21
276.077779
0
LINE
8
0
10
568.096000
20
276.078000
11
568.074551
21
275.442425
0
LINE
8
0
10
568.074551
20
275.442425
11
567.910749
21
274.970663
0
LINE
8
0
10
567.910000
20
274.971000
11
567.898711
21
274.948140
0
LINE
8
0
10
567.897000
20
274.948000
11
567.725240
21
274.716634
0
LINE
8
0
10
567.725240
20
274.716634
11
567.571768
21
274.549835
0
LINE
8
0
10
567.572000
20
274.550000
11
567.522075
21
274.530865
0
LINE
8
0
10
567.522075
20
274.530865
11
567.500908
21
274.530888
0
LINE
8
0
10
567.500908
20
274.530888
11
567.481153
21
274.538056
0
LINE
8
0
10
567.481000
20
274.538000
11
567.468300
21
274.545902
0
LINE
8
0
10
567.468300
20
274.545902
11
567.459551
21
274.553579
0
LINE
8
0
10
567.460000
20
274.553000
11
567.445042
21
274.610266
0
LINE
8
0
10
567.445042
20
274.610266
11
567.458307
21
274.654837
0
LINE
8
0
10
567.458000
20
274.655000
11
567.472958
21
274.674614
0
LINE
8
0
10
567.472958
20
274.674614
11
567.487916
21
274.687117
0
LINE
8
0
10
567.488000
20
274.687000
11
567.658377
21
274.855441
0
LINE
8
0
10
567.658377
20
274.855441
11
567.765988
21
275.009935
0
LINE
8
0
10
567.766000
20
275.010000
11
567.876575
21
275.248726
0
LINE
8
0
10
567.876575
20
275.248726
11
567.927939
21
275.448991
0
LINE
8
0
10
567.928000
20
275.449000
11
567.917276
21
275.912891
0
LINE
8
0
10
567.917276
20
275.912891
11
567.720511
21
276.219641
0
LINE
8
0
10
567.721000
20
276.220000
11
566.899734
21
274.797040
0
LINE
8
0
10
566.899000
20
274.797000
11
566.636759
21
274.571189
0
LINE
8
0
10
566.636759
20
274.571189
11
566.297161
21
274.486110
0
LINE
8
0
10
566.297161
20
274.486110
11
566.021656
21
274.499149
0
LINE
8
0
10
566.021656
20
274.499149
11
565.762294
21
274.590567
0
LINE
8
0
10
568.759000
20
365.881000
11
568.688868
21
366.180065
0
LINE
8
0
10
568.688868
20
366.180065
11
568.475254
21
366.400492
0
LINE
8
0
10
568.475254
20
366.400492
11
568.250380
21
366.492265
0
LINE
8
0
10
568.250380
20
366.492265
11
568.008459
21
366.518286
0
LINE
8
0
10
568.008000
20
366.518000
11
567.697782
21
366.507219
0
LINE
8
0
10
567.697782
20
366.507219
11
567.454591
21
366.488621
0
LINE
8
0
10
567.455000
20
366.489000
11
567.417944
21
366.485783
0
LINE
8
0
10
567.417944
20
366.485783
11
567.388763
21
366.484089
0
LINE
8
0
10
567.389000
20
366.484000
11
567.246788
21
365.544522
0
LINE
8
0
10
567.246788
20
365.544522
11
567.186534
21
364.800777
0
LINE
8
0
10
567.186000
20
364.801000
11
567.188822
21
364.728534
0
LINE
8
0
10
567.188822
20
364.728534
11
567.197289
21
364.672259
0
LINE
8
0
10
566.713000
20
364.573000
11
566.734167
21
364.749298
0
LINE
8
0
10
566.734167
20
364.749298
11
566.741787
21
364.888704
0
LINE
8
0
10
566.742000
20
364.889000
11
566.821671
21
365.622729
0
LINE
8
0
10
566.821671
20
365.622729
11
566.915087
21
366.195087
0
LINE
8
0
10
566.915000
20
366.195000
11
566.938424
21
366.316612
0
LINE
8
0
10
566.938424
20
366.316612
11
566.947173
21
366.413485
0
LINE
8
0
10
566.947000
20
366.414000
11
566.944178
21
366.429325
0
LINE
8
0
10
566.944178
20
366.429325
11
566.936276
21
366.442674
0
LINE
8
0
10
566.936276
20
366.442674
11
566.926680
21
366.449870
0
LINE
8
0
10
566.926680
20
366.449870
11
566.915109
21
366.453539
0
LINE
8
0
10
566.915000
20
366.453000
11
566.766241
21
366.513712
0
LINE
8
0
10
566.766241
20
366.513712
11
566.723230
21
366.559942
0
LINE
8
0
10
566.723230
20
366.559942
11
566.707144
21
366.620736
0
LINE
8
0
10
566.708000
20
366.621000
11
566.736533
21
366.720955
0
LINE
8
0
10
566.736533
20
366.720955
11
566.805197
21
366.799980
0
LINE
8
0
10
566.805197
20
366.799980
11
566.874878
21
366.843792
0
LINE
8
0
10
566.874878
20
366.843792
11
566.955311
21
366.860302
0
LINE
8
0
10
566.956000
20
366.860000
11
567.201533
21
366.852944
0
LINE
8
0
10
567.201000
20
366.853000
11
567.459290
21
366.860705
0
LINE
8
0
10
567.459290
20
366.860705
11
567.662010
21
366.872784
0
LINE
8
0
10
567.662000
20
366.873000
11
567.889132
21
366.889058
0
LINE
8
0
10
567.889132
20
366.889058
11
568.067976
21
366.894364
0
LINE
8
0
10
568.068000
20
366.894000
11
568.541653
21
366.819030
0
LINE
8
0
10
568.541653
20
366.819030
11
568.943848
21
366.561258
0
LINE
8
0
10
568.943848
20
366.561258
11
569.142899
21
366.242344
0
LINE
8
0
10
569.142899
20
366.242344
11
569.203690
21
365.870497
0
LINE
8
0
10
569.203000
20
365.871000
11
568.998953
21
365.241899
0
LINE
8
0
10
568.998953
20
365.241899
11
568.515648
21
364.780237
0
LINE
8
0
10
568.515648
20
364.780237
11
568.053397
21
364.527479
0
LINE
8
0
10
568.053397
20
364.527479
11
567.550760
21
364.368865
0
LINE
8
0
10
567.551000
20
364.369000
11
567.300697
21
364.303448
0
LINE
8
0
10
567.300697
20
364.303448
11
567.120442
21
364.209813
0
LINE
8
0
10
567.120000
20
364.210000
11
566.989585
21
364.144220
0
LINE
8
0
10
566.989585
20
364.144220
11
566.876414
21
364.125593
0
LINE
8
0
10
566.877000
20
364.125000
11
566.781637
21
364.151247
0
LINE
8
0
10
566.781637
20
364.151247
11
566.707751
21
364.217730
0
LINE
8
0
10
566.707751
20
364.217730
11
566.663160
21
364.282220
0
LINE
8
0
10
566.663160
20
364.282220
11
566.639171
21
364.356312
0
LINE
8
0
10
566.639000
20
364.357000
11
566.653675
21
364.419893
0
LINE
8
0
10
566.653675
20
364.419893
11
566.674278
21
364.466511
0
LINE
8
0
10
566.674000
20
364.466000
11
566.713511
21
364.573527
0
LINE
8
0
10
567.197000
20
364.672000
11
567.778660
21
364.820088
0
LINE
8
0
10
567.778660
20
364.820088
11
568.313471
21
365.088554
0
LINE
8
0
10
568.313471
20
365.088554
11
568.634527
21
365.431143
0
LINE
8
0
10
568.634527
20
365.431143
11
568.758987
21
365.880867
0
LINE
8
0
10
569.626000
20
365.483000
11
569.626000
21
365.481000
0
LINE
8
0
10
569.626000
20
365.481000
11
569.660177
21
365.692692
0
LINE
8
0
10
569.660177
20
365.692692
11
569.681626
21
365.859739
0
LINE
8
0
10
569.682000
20
365.860000
11
569.695264
21
365.979623
0
LINE
8
0
10
569.695264
20
365.979623
11
569.743016
21
366.089794
0
LINE
8
0
10
569.743016
20
366.089794
11
569.811258
21
366.154437
0
LINE
8
0
10
569.811258
20
366.154437
11
569.902528
21
366.176761
0
LINE
8
0
10
569.902000
20
366.176000
11
570.000242
21
366.164485
0
LINE
8
0
10
570.000242
20
366.164485
11
570.088323
21
366.120495
0
LINE
8
0
10
570.088323
20
366.120495
11
570.139575
21
366.062304
0
LINE
8
0
10
570.139575
20
366.062304
11
570.159895
21
365.987961
0
LINE
8
0
10
570.160000
20
365.988000
11
570.131072
21
365.819815
0
LINE
8
0
10
570.131072
20
365.819815
11
570.096952
21
365.689922
0
LINE
8
0
10
570.097000
20
365.690000
11
570.085711
21
365.650207
0
LINE
8
0
10
570.087000
20
365.650000
11
569.980010
21
365.136435
0
LINE
8
0
10
569.980010
20
365.136435
11
569.955457
21
364.724786
0
LINE
8
0
10
569.955000
20
364.725000
11
569.969958
21
364.559062
0
LINE
8
0
10
569.969958
20
364.559062
11
569.993100
21
364.430129
0
LINE
8
0
10
569.993000
20
364.430000
11
569.997233
21
364.399907
0
LINE
8
0
10
569.997233
20
364.399907
11
569.997233
21
364.376059
0
LINE
8
0
10
569.999000
20
364.376000
11
569.954691
21
364.297503
0
LINE
8
0
10
569.954691
20
364.297503
11
569.885942
21
364.236881
0
LINE
8
0
10
569.885942
20
364.236881
11
569.821567
21
364.204570
0
LINE
8
0
10
569.821567
20
364.204570
11
569.750616
21
364.193309
0
LINE
8
0
10
569.750000
20
364.194000
11
569.632483
21
364.223549
0
LINE
8
0
10
569.632483
20
364.223549
11
569.586199
21
364.263407
0
LINE
8
0
10
569.586199
20
364.263407
11
569.553066
21
364.314819
0
LINE
8
0
10
569.553066
20
364.314819
11
569.510676
21
364.554042
0
LINE
8
0
10
569.511000
20
364.554000
11
569.541508
21
364.973150
0
LINE
8
0
10
569.541508
20
364.973150
11
569.594876
21
365.299193
0
LINE
8
0
10
569.595000
20
365.299000
11
569.613062
21
365.401850
0
LINE
8
0
10
569.613062
20
365.401850
11
569.626609
21
365.482760
0
LINE
8
0
10
566.103000
20
293.360000
11
565.963244
21
293.471263
0
LINE
8
0
10
565.963244
20
293.471263
11
565.875840
21
293.626465
0
LINE
8
0
10
565.875840
20
293.626465
11
565.865680
21
293.765911
0
LINE
8
0
10
565.865680
20
293.765911
11
565.913629
21
293.897613
0
LINE
8
0
10
567.056000
20
294.100000
11
567.203235
21
293.976138
0
LINE
8
0
10
567.203235
20
293.976138
11
567.273424
21
293.842204
0
LINE
8
0
10
567.275000
20
293.842000
11
568.423640
21
295.835330
0
LINE
8
0
10
568.423000
20
295.836000
11
568.527422
21
295.776169
0
LINE
8
0
10
568.528000
20
295.776000
11
567.252360
21
293.566480
0
LINE
8
0
10
567.252000
20
293.566000
11
566.986232
21
293.339014
0
LINE
8
0
10
566.986232
20
293.339014
11
566.643022
21
293.253673
0
LINE
8
0
10
566.643022
20
293.253673
11
566.364779
21
293.266486
0
LINE
8
0
10
566.364779
20
293.266486
11
566.102905
21
293.359108
0
LINE
8
0
10
565.913000
20
293.897000
11
566.170979
21
294.140123
0
LINE
8
0
10
566.170979
20
294.140123
11
566.515375
21
294.232424
0
LINE
8
0
10
566.515375
20
294.232424
11
566.795537
21
294.206431
0
LINE
8
0
10
566.795537
20
294.206431
11
567.056113
21
294.100208
0
LINE
8
0
10
567.872000
20
337.687000
11
567.816318
21
337.670405
0
LINE
8
0
10
567.816318
20
337.670405
11
567.758801
21
337.680086
0
LINE
8
0
10
567.758801
20
337.680086
11
567.719149
21
337.703115
0
LINE
8
0
10
567.719149
20
337.703115
11
567.689882
21
337.738393
0
LINE
8
0
10
567.690000
20
337.739000
11
567.671656
21
337.794496
0
LINE
8
0
10
567.671656
20
337.794496
11
567.679276
21
337.852448
0
LINE
8
0
10
567.679276
20
337.852448
11
567.701571
21
337.892726
0
LINE
8
0
10
567.701571
20
337.892726
11
567.736736
21
337.922487
0
LINE
8
0
10
567.737000
20
337.922000
11
567.924791
21
338.093334
0
LINE
8
0
10
567.924791
20
338.093334
11
568.023286
21
338.327731
0
LINE
8
0
10
568.023286
20
338.327731
11
568.026109
21
338.528106
0
LINE
8
0
10
568.026109
20
338.528106
11
567.958150
21
338.716495
0
LINE
8
0
10
567.957000
20
338.717000
11
567.784167
21
338.902315
0
LINE
8
0
10
567.784167
20
338.902315
11
567.547355
21
338.993484
0
LINE
8
0
10
567.547355
20
338.993484
11
567.347457
21
338.990662
0
LINE
8
0
10
567.347457
20
338.990662
11
567.160203
21
338.920600
0
LINE
8
0
10
567.159000
20
338.920000
11
566.425223
21
338.495820
0
LINE
8
0
10
566.425000
20
338.496000
11
566.560467
21
338.262320
0
LINE
8
0
10
566.561000
20
338.262000
11
565.767956
21
338.270184
0
LINE
8
0
10
565.768000
20
338.271000
11
566.157466
21
338.960186
0
LINE
8
0
10
566.157000
20
338.960000
11
566.289644
21
338.731118
0
LINE
8
0
10
566.290000
20
338.731000
11
567.026599
21
339.155180
0
LINE
8
0
10
568.186000
20
338.848000
11
568.296095
21
338.494201
0
LINE
8
0
10
568.296095
20
338.494201
11
568.243263
21
338.127120
0
LINE
8
0
10
568.243263
20
338.127120
11
568.097128
21
337.874037
0
LINE
8
0
10
568.097128
20
337.874037
11
567.872705
21
337.686992
0
LINE
8
0
10
567.025000
20
339.155000
11
567.377975
21
339.267059
0
LINE
8
0
10
567.377975
20
339.267059
11
567.745174
21
339.217360
0
LINE
8
0
10
567.745174
20
339.217360
11
567.998412
21
339.072120
0
LINE
8
0
10
567.998412
20
339.072120
11
568.185525
21
338.848120
0
LINE
8
0
10
570.913000
20
364.314000
11
570.845605
21
364.604412
0
LINE
8
0
10
570.845605
20
364.604412
11
570.766640
21
364.825753
0
LINE
8
0
10
570.468000
20
365.933000
11
570.479289
21
366.050819
0
LINE
8
0
10
570.479289
20
366.050819
11
570.527041
21
366.158343
0
LINE
8
0
10
570.527041
20
366.158343
11
570.601632
21
366.212606
0
LINE
8
0
10
570.601632
20
366.212606
11
570.692987
21
366.228410
0
LINE
8
0
10
570.693000
20
366.229000
11
570.766519
21
366.219743
0
LINE
8
0
10
570.766519
20
366.219743
11
570.832530
21
366.186472
0
LINE
8
0
10
570.832530
20
366.186472
11
570.878759
21
366.128862
0
LINE
8
0
10
570.878759
20
366.128862
11
570.912540
21
365.958691
0
LINE
8
0
10
570.913000
20
365.959000
11
570.972097
21
365.486298
0
LINE
8
0
10
570.972097
20
365.486298
11
571.085014
21
365.127803
0
LINE
8
0
10
571.085000
20
365.127000
11
571.125160
21
365.014264
0
LINE
8
0
10
571.125160
20
365.014264
11
571.154963
21
364.925079
0
LINE
8
0
10
571.155000
20
364.925000
11
571.175320
21
364.863244
0
LINE
8
0
10
571.175320
20
364.863244
11
571.195922
21
364.816559
0
LINE
8
0
10
571.196000
20
364.817000
11
571.238954
21
364.895714
0
LINE
8
0
10
571.238954
20
364.895714
11
571.271861
21
364.958026
0
LINE
8
0
10
571.272000
20
364.958000
11
571.785813
21
365.776952
0
LINE
8
0
10
571.785813
20
365.776952
11
571.937479
21
365.979743
0
LINE
8
0
10
571.937479
20
365.979743
11
572.107461
21
366.167178
0
LINE
8
0
10
572.107461
20
366.167178
11
572.337698
21
366.257678
0
LINE
8
0
10
572.337000
20
366.258000
11
572.429146
21
366.239910
0
LINE
8
0
10
572.429146
20
366.239910
11
572.504329
21
366.183815
0
LINE
8
0
10
572.504329
20
366.183815
11
572.541696
21
366.120039
0
LINE
8
0
10
572.541696
20
366.120039
11
572.553267
21
366.046983
0
LINE
8
0
10
572.401000
20
365.841000
11
572.080932
21
365.498131
0
LINE
8
0
10
572.080932
20
365.498131
11
571.813103
21
365.111188
0
LINE
8
0
10
571.813103
20
365.111188
11
571.439469
21
364.472946
0
LINE
8
0
10
571.439000
20
364.473000
11
571.305170
21
364.263261
0
LINE
8
0
10
571.305170
20
364.263261
11
571.234840
21
364.195449
0
LINE
8
0
10
571.234840
20
364.195449
11
571.144670
21
364.161034
0
LINE
8
0
10
571.145000
20
364.161000
11
571.066994
21
364.178865
0
LINE
8
0
10
571.066994
20
364.178865
11
570.999373
21
364.222372
0
LINE
8
0
10
570.999373
20
364.222372
11
570.912618
21
364.314306
0
LINE
8
0
10
570.766000
20
364.826000
11
570.558031
21
365.436209
0
LINE
8
0
10
570.558031
20
365.436209
11
570.467917
21
365.933368
0
LINE
8
0
10
572.554000
20
366.047000
11
572.535938
21
365.975271
0
LINE
8
0
10
572.535938
20
365.975271
11
572.491939
21
365.915324
0
LINE
8
0
10
572.491939
20
365.915324
11
572.401262
21
365.841336
0
LINE
8
0
10
570.502000
20
366.968000
11
570.467823
21
366.840419
0
LINE
8
0
10
570.467823
20
366.840419
11
570.379262
21
366.741475
0
LINE
8
0
10
570.379262
20
366.741475
11
570.292253
21
366.683388
0
LINE
8
0
10
570.292253
20
366.683388
11
570.192177
21
366.654968
0
LINE
8
0
10
570.193000
20
366.655000
11
570.081579
21
366.682347
0
LINE
8
0
10
570.081579
20
366.682347
11
569.992538
21
366.755307
0
LINE
8
0
10
569.992538
20
366.755307
11
569.942387
21
366.830920
0
LINE
8
0
10
569.942387
20
366.830920
11
569.921785
21
366.918886
0
LINE
8
0
10
569.921000
20
366.919000
11
569.948375
21
367.049285
0
LINE
8
0
10
569.948375
20
367.049285
11
570.034989
21
367.149875
0
LINE
8
0
10
570.034989
20
367.149875
11
570.131537
21
367.191079
0
LINE
8
0
10
570.131537
20
367.191079
11
570.236128
21
367.202114
0
LINE
8
0
10
570.236000
20
367.202000
11
570.344768
21
367.184587
0
LINE
8
0
10
570.344768
20
367.184587
11
570.436631
21
367.124366
0
LINE
8
0
10
570.436631
20
367.124366
11
570.485512
21
367.052944
0
LINE
8
0
10
570.485512
20
367.052944
11
570.501881
21
366.968024
0
LINE
8
0
10
568.810000
20
238.696000
11
574.601000
21
238.696000
0
LINE
8
0
10
568.810000
20
239.230000
11
568.810000
21
238.696000
0
LINE
8
0
10
574.601000
20
239.230000
11
568.810000
21
239.230000
0
LINE
8
0
10
574.601000
20
238.696000
11
574.601000
21
239.230000
0
LINE
8
0
10
568.810000
20
369.896000
11
568.810000
21
369.363000
0
LINE
8
0
10
574.601000
20
369.896000
11
568.810000
21
369.896000
0
LINE
8
0
10
574.601000
20
369.363000
11
574.601000
21
369.896000
0
LINE
8
0
10
568.810000
20
369.363000
11
574.601000
21
369.363000
0
LINE
8
0
10
564.543000
20
239.230000
11
564.148000
21
239.230000
0
LINE
8
0
10
564.543000
20
238.696000
11
564.543000
21
239.230000
0
LINE
8
0
10
564.148000
20
238.696000
11
564.543000
21
238.696000
0
LINE
8
0
10
564.148000
20
239.230000
11
564.148000
21
238.696000
0
LINE
8
0
10
564.543000
20
369.363000
11
564.543000
21
369.896000
0
LINE
8
0
10
564.543000
20
369.896000
11
564.148000
21
369.896000
0
LINE
8
0
10
564.148000
20
369.363000
11
564.543000
21
369.363000
0
LINE
8
0
10
564.148000
20
369.896000
11
564.148000
21
369.363000
0
LINE
8
0
10
566.506000
20
358.122000
11
566.419838
21
358.053499
0
LINE
8
0
10
566.419838
20
358.053499
11
566.360091
21
357.961190
0
LINE
8
0
10
566.360091
20
357.961190
11
566.336385
21
357.878030
0
LINE
8
0
10
566.336385
20
357.878030
11
566.339207
21
357.791718
0
LINE
8
0
10
566.631000
20
358.194000
11
566.506822
21
358.121751
0
LINE
8
0
10
566.973000
20
358.162000
11
566.885991
21
358.215808
0
LINE
8
0
10
566.885991
20
358.215808
11
566.785351
21
358.234633
0
LINE
8
0
10
566.785351
20
358.234633
11
566.631088
21
358.193626
0
LINE
8
0
10
567.179000
20
357.980000
11
566.972978
21
358.162598
0
LINE
8
0
10
567.159000
20
357.735000
11
567.178755
21
357.979404
0
LINE
8
0
10
566.817000
20
357.994000
11
567.158489
21
357.735485
0
LINE
8
0
10
566.733000
20
358.018000
11
566.758400
21
358.023249
0
LINE
8
0
10
566.758400
20
358.023249
11
566.783518
21
358.016617
0
LINE
8
0
10
566.783518
20
358.016617
11
566.817159
21
357.993221
0
LINE
8
0
10
566.609000
20
357.946000
11
566.733178
21
358.018249
0
LINE
8
0
10
566.562000
20
357.845000
11
566.562000
21
357.878141
0
LINE
8
0
10
566.562000
20
357.878141
11
566.573007
21
357.909553
0
LINE
8
0
10
566.573007
20
357.909553
11
566.609554
21
357.946182
0
LINE
8
0
10
566.928000
20
355.980000
11
566.561111
21
357.845490
0
LINE
8
0
10
568.254000
20
356.752000
11
566.927560
21
355.979841
0
LINE
8
0
10
567.653000
20
357.263000
11
568.254133
21
356.751896
0
LINE
8
0
10
567.681000
20
357.509000
11
567.652778
21
357.263185
0
LINE
8
0
10
566.338000
20
357.791000
11
566.817777
21
355.522500
0
LINE
8
0
10
566.817000
20
355.523000
11
568.707890
21
356.623100
0
LINE
8
0
10
568.708000
20
356.623000
11
567.680710
21
357.508613
0
LINE
8
0
10
567.378000
20
356.502000
11
567.402553
21
356.478039
0
LINE
8
0
10
567.402553
20
356.478039
11
567.435404
21
356.466750
0
LINE
8
0
10
567.435404
20
356.466750
11
567.489590
21
356.464210
0
LINE
8
0
10
567.368000
20
356.544000
11
567.372798
21
356.520519
0
LINE
8
0
10
567.372798
20
356.520519
11
567.378442
21
356.502485
0
LINE
8
0
10
567.280000
20
358.012000
11
567.367489
21
356.543030
0
LINE
8
0
10
567.106000
20
358.136000
11
567.190977
21
358.048697
0
LINE
8
0
10
567.190977
20
358.048697
11
567.279623
21
358.011932
0
LINE
8
0
10
567.245000
20
358.551000
11
567.141594
21
358.464146
0
LINE
8
0
10
567.141594
20
358.464146
11
567.082807
21
358.342844
0
LINE
8
0
10
567.082807
20
358.342844
11
567.074058
21
358.236980
0
LINE
8
0
10
567.074058
20
358.236980
11
567.106542
21
358.136151
0
LINE
8
0
10
567.644000
20
358.451000
11
567.557668
21
358.544136
0
LINE
8
0
10
567.557668
20
358.544136
11
567.438599
21
358.588846
0
LINE
8
0
10
567.438599
20
358.588846
11
567.338438
21
358.587717
0
LINE
8
0
10
567.338438
20
358.587717
11
567.244966
21
358.551728
0
LINE
8
0
10
567.534000
20
358.054000
11
567.628262
21
358.139276
0
LINE
8
0
10
567.628262
20
358.139276
11
567.677228
21
358.256630
0
LINE
8
0
10
567.677228
20
358.256630
11
567.680050
21
358.356754
0
LINE
8
0
10
567.680050
20
358.356754
11
567.644687
21
358.450429
0
LINE
8
0
10
567.499000
20
358.041000
11
567.519038
21
358.046447
0
LINE
8
0
10
567.519038
20
358.046447
11
567.533713
21
358.053728
0
LINE
8
0
10
567.594000
20
356.576000
11
567.500867
21
358.041860
0
LINE
8
0
10
567.490000
20
356.464000
11
567.519831
21
356.473962
0
LINE
8
0
10
567.519831
20
356.473962
11
567.542409
21
356.484094
0
LINE
8
0
10
567.542000
20
356.484000
11
567.566271
21
356.502796
0
LINE
8
0
10
567.566271
20
356.502796
11
567.583487
21
356.528196
0
LINE
8
0
10
567.583487
20
356.528196
11
567.591953
21
356.575324
0
LINE
8
0
10
574.601000
20
372.830000
11
564.148000
21
372.830000
0
LINE
8
0
10
564.148000
20
235.763000
11
574.601000
21
235.763000
0
LINE
8
0
10
568.382000
20
238.963000
11
568.154730
21
239.818080
0
LINE
8
0
10
568.154730
20
239.818080
11
567.529862
21
240.444462
0
LINE
8
0
10
567.529862
20
240.444462
11
566.675335
21
240.673801
0
LINE
8
0
10
566.675335
20
240.673801
11
565.820808
21
240.444462
0
LINE
8
0
10
565.820808
20
240.444462
11
565.195940
21
239.818080
0
LINE
8
0
10
565.195940
20
239.818080
11
564.968670
21
238.963000
0
LINE
8
0
10
564.968670
20
238.963000
11
565.195940
21
238.107920
0
LINE
8
0
10
565.195940
20
238.107920
11
565.820808
21
237.481538
0
LINE
8
0
10
565.820808
20
237.481538
11
566.675335
21
237.252199
0
LINE
8
0
10
566.675335
20
237.252199
11
567.529862
21
237.481538
0
LINE
8
0
10
567.529862
20
237.481538
11
568.154730
21
238.107920
0
LINE
8
0
10
568.154730
20
238.107920
11
568.382000
21
238.963000
0
LINE
8
0
10
568.382000
20
238.963000
11
568.382000
21
238.963000
0
LINE
8
0
10
568.382000
20
369.629000
11
568.154730
21
370.484080
0
LINE
8
0
10
568.154730
20
370.484080
11
567.529862
21
371.110462
0
LINE
8
0
10
567.529862
20
371.110462
11
566.675335
21
371.339801
0
LINE
8
0
10
566.675335
20
371.339801
11
565.820808
21
371.110462
0
LINE
8
0
10
565.820808
20
371.110462
11
565.195940
21
370.484080
0
LINE
8
0
10
565.195940
20
370.484080
11
564.968670
21
369.629000
0
LINE
8
0
10
564.968670
20
369.629000
11
565.195940
21
368.773920
0
LINE
8
0
10
565.195940
20
368.773920
11
565.820808
21
368.147538
0
LINE
8
0
10
565.820808
20
368.147538
11
566.675335
21
367.918199
0
LINE
8
0
10
566.675335
20
367.918199
11
567.529862
21
368.147538
0
LINE
8
0
10
567.529862
20
368.147538
11
568.154730
21
368.773920
0
LINE
8
0
10
568.154730
20
368.773920
11
568.382000
21
369.629000
0
LINE
8
0
10
568.382000
20
369.629000
11
568.382000
21
369.629000
0
LINE
8
0
10
572.041000
20
290.750000
11
571.813730
21
291.605080
0
LINE
8
0
10
571.813730
20
291.605080
11
571.188862
21
292.231462
0
LINE
8
0
10
571.188862
20
292.231462
11
570.334335
21
292.460801
0
LINE
8
0
10
570.334335
20
292.460801
11
569.479808
21
292.231462
0
LINE
8
0
10
569.479808
20
292.231462
11
568.854940
21
291.605080
0
LINE
8
0
10
568.854940
20
291.605080
11
568.627670
21
290.750000
0
LINE
8
0
10
568.627670
20
290.750000
11
568.854940
21
289.894920
0
LINE
8
0
10
568.854940
20
289.894920
11
569.479808
21
289.268538
0
LINE
8
0
10
569.479808
20
289.268538
11
570.334335
21
289.039199
0
LINE
8
0
10
570.334335
20
289.039199
11
571.188862
21
289.268538
0
LINE
8
0
10
571.188862
20
289.268538
11
571.813730
21
289.894920
0
LINE
8
0
10
571.813730
20
289.894920
11
572.041000
21
290.750000
0
LINE
8
0
10
572.041000
20
290.750000
11
572.041000
21
290.750000
0
LINE
8
0
10
572.041000
20
271.784000
11
571.813730
21
272.639080
0
LINE
8
0
10
571.813730
20
272.639080
11
571.188862
21
273.265462
0
LINE
8
0
10
571.188862
20
273.265462
11
570.334335
21
273.494801
0
LINE
8
0
10
570.334335
20
273.494801
11
569.479808
21
273.265462
0
LINE
8
0
10
569.479808
20
273.265462
11
568.854940
21
272.639080
0
LINE
8
0
10
568.854940
20
272.639080
11
568.627670
21
271.784000
0
LINE
8
0
10
568.627670
20
271.784000
11
568.854940
21
270.928920
0
LINE
8
0
10
568.854940
20
270.928920
11
569.479808
21
270.302538
0
LINE
8
0
10
569.479808
20
270.302538
11
570.334335
21
270.073199
0
LINE
8
0
10
570.334335
20
270.073199
11
571.188862
21
270.302538
0
LINE
8
0
10
571.188862
20
270.302538
11
571.813730
21
270.928920
0
LINE
8
0
10
571.813730
20
270.928920
11
572.041000
21
271.784000
0
LINE
8
0
10
572.041000
20
271.784000
11
572.041000
21
271.784000
0
LINE
8
0
10
572.041000
20
252.819000
11
571.813730
21
253.674080
0
LINE
8
0
10
571.813730
20
253.674080
11
571.188862
21
254.300462
0
LINE
8
0
10
571.188862
20
254.300462
11
570.334335
21
254.529801
0
LINE
8
0
10
570.334335
20
254.529801
11
569.479808
21
254.300462
0
LINE
8
0
10
569.479808
20
254.300462
11
568.854940
21
253.674080
0
LINE
8
0
10
568.854940
20
253.674080
11
568.627670
21
252.819000
0
LINE
8
0
10
568.627670
20
252.819000
11
568.854940
21
251.963920
0
LINE
8
0
10
568.854940
20
251.963920
11
569.479808
21
251.337538
0
LINE
8
0
10
569.479808
20
251.337538
11
570.334335
21
251.108199
0
LINE
8
0
10
570.334335
20
251.108199
11
571.188862
21
251.337538
0
LINE
8
0
10
571.188862
20
251.337538
11
571.813730
21
251.963920
0
LINE
8
0
10
571.813730
20
251.963920
11
572.041000
21
252.819000
0
LINE
8
0
10
572.041000
20
252.819000
11
572.041000
21
252.819000
0
LINE
8
0
10
572.041000
20
309.715000
11
571.813730
21
310.570080
0
LINE
8
0
10
571.813730
20
310.570080
11
571.188862
21
311.196462
0
LINE
8
0
10
571.188862
20
311.196462
11
570.334335
21
311.425801
0
LINE
8
0
10
570.334335
20
311.425801
11
569.479808
21
311.196462
0
LINE
8
0
10
569.479808
20
311.196462
11
568.854940
21
310.570080
0
LINE
8
0
10
568.854940
20
310.570080
11
568.627670
21
309.715000
0
LINE
8
0
10
568.627670
20
309.715000
11
568.854940
21
308.859920
0
LINE
8
0
10
568.854940
20
308.859920
11
569.479808
21
308.233538
0
LINE
8
0
10
569.479808
20
308.233538
11
570.334335
21
308.004199
0
LINE
8
0
10
570.334335
20
308.004199
11
571.188862
21
308.233538
0
LINE
8
0
10
571.188862
20
308.233538
11
571.813730
21
308.859920
0
LINE
8
0
10
571.813730
20
308.859920
11
572.041000
21
309.715000
0
LINE
8
0
10
572.041000
20
309.715000
11
572.041000
21
309.715000
0
LINE
8
0
10
572.041000
20
342.227000
11
571.813730
21
343.082080
0
LINE
8
0
10
571.813730
20
343.082080
11
571.188862
21
343.708462
0
LINE
8
0
10
571.188862
20
343.708462
11
570.334335
21
343.937801
0
LINE
8
0
10
570.334335
20
343.937801
11
569.479808
21
343.708462
0
LINE
8
0
10
569.479808
20
343.708462
11
568.854940
21
343.082080
0
LINE
8
0
10
568.854940
20
343.082080
11
568.627670
21
342.227000
0
LINE
8
0
10
568.627670
20
342.227000
11
568.854940
21
341.371920
0
LINE
8
0
10
568.854940
20
341.371920
11
569.479808
21
340.745538
0
LINE
8
0
10
569.479808
20
340.745538
11
570.334335
21
340.516199
0
LINE
8
0
10
570.334335
20
340.516199
11
571.188862
21
340.745538
0
LINE
8
0
10
571.188862
20
340.745538
11
571.813730
21
341.371920
0
LINE
8
0
10
571.813730
20
341.371920
11
572.041000
21
342.227000
0
LINE
8
0
10
572.041000
20
342.227000
11
572.041000
21
342.227000
0
LINE
8
0
10
574.601000
20
235.763000
11
574.601000
21
238.696000
0
LINE
8
0
10
574.601000
20
239.230000
11
574.601000
21
332.743000
0
LINE
8
0
10
574.601000
20
332.748000
11
574.601000
21
369.363000
0
LINE
8
0
10
574.601000
20
369.896000
11
574.601000
21
372.830000
0
LINE
8
0
10
564.148000
20
372.830000
11
564.148000
21
369.896000
0
LINE
8
0
10
564.148000
20
369.363000
11
564.148000
21
239.230000
0
LINE
8
0
10
564.148000
20
238.696000
11
564.148000
21
235.763000
0
LINE
8
0
10
572.809000
20
264.331000
11
573.381911
21
264.968257
0
LINE
8
0
10
573.484000
20
264.937000
11
573.382400
21
264.968327
0
LINE
8
0
10
573.757000
20
264.571000
11
573.484148
21
264.936568
0
LINE
8
0
10
573.760000
20
264.368000
11
573.757178
21
264.571200
0
LINE
8
0
10
573.938000
20
264.272000
11
573.760200
21
264.368520
0
LINE
8
0
10
574.134000
20
263.860000
11
573.937686
21
264.271776
0
LINE
8
0
10
574.096000
20
263.661000
11
574.132689
21
263.860531
0
LINE
8
0
10
574.251000
20
263.531000
11
574.095778
21
263.660540
0
LINE
8
0
10
574.365000
20
263.089000
11
574.252789
21
263.531163
0
LINE
8
0
10
574.288000
20
262.900000
11
574.364200
21
263.088524
0
LINE
8
0
10
574.418000
20
262.743000
11
574.288178
21
262.900480
0
LINE
8
0
10
574.441000
20
262.287000
11
574.417293
21
262.742551
0
LINE
8
0
10
574.330000
20
262.118000
11
574.440067
21
262.287898
0
LINE
8
0
10
574.423000
20
261.938000
11
574.329867
21
262.117493
0
LINE
8
0
10
574.359000
20
261.487000
11
574.424560
21
261.938437
0
LINE
8
0
10
574.217000
20
261.341000
11
574.358111
21
261.486062
0
LINE
8
0
10
574.274000
20
261.147000
11
574.217556
21
261.341451
0
LINE
8
0
10
574.123000
20
260.717000
11
574.275372
21
261.146974
0
LINE
8
0
10
573.955000
20
260.602000
11
574.124333
21
260.716582
0
LINE
8
0
10
573.975000
20
260.400000
11
573.955245
21
260.602071
0
LINE
8
0
10
573.741000
20
260.008000
11
573.974341
21
260.399987
0
LINE
8
0
10
573.554000
20
259.929000
11
573.740267
21
260.008587
0
LINE
8
0
10
573.534000
20
259.727000
11
573.553755
21
259.929071
0
LINE
8
0
10
573.228000
20
259.388000
11
573.533308
21
259.726935
0
LINE
8
0
10
573.029000
20
259.346000
11
573.226555
21
259.387769
0
LINE
8
0
10
572.970000
20
259.152000
11
573.029267
21
259.345887
0
LINE
8
0
10
572.604000
20
258.879000
11
572.969590
21
259.151858
0
LINE
8
0
10
572.400000
20
258.877000
11
572.603200
21
258.879258
0
LINE
8
0
10
572.304000
20
258.698000
11
572.399955
21
258.876364
0
LINE
8
0
10
571.893000
20
258.502000
11
572.304790
21
258.698297
0
LINE
8
0
10
571.694000
20
258.540000
11
571.891555
21
258.502465
0
LINE
8
0
10
571.564000
20
258.383000
11
571.693822
21
258.539351
0
LINE
8
0
10
571.122000
20
258.271000
11
571.564157
21
258.383192
0
LINE
8
0
10
570.932000
20
258.347000
11
571.121089
21
258.271647
0
LINE
8
0
10
570.774000
20
258.219000
11
570.932044
21
258.346847
0
LINE
8
0
10
570.320000
20
258.195000
11
570.775535
21
258.218763
0
LINE
8
0
10
570.151000
20
258.306000
11
570.320333
21
258.195087
0
LINE
8
0
10
569.970000
20
258.211000
11
570.150622
21
258.305827
0
LINE
8
0
10
569.519000
20
258.277000
11
569.970442
21
258.211445
0
LINE
8
0
10
569.374000
20
258.419000
11
569.517933
21
258.277042
0
LINE
8
0
10
569.180000
20
258.361000
11
569.374733
21
258.418856
0
LINE
8
0
10
568.750000
20
258.513000
11
569.179965
21
258.360631
0
LINE
8
0
10
568.635000
20
258.680000
11
568.750711
21
258.512642
0
LINE
8
0
10
568.432000
20
258.662000
11
568.635200
21
258.680909
0
LINE
8
0
10
568.041000
20
258.895000
11
568.432978
21
258.661676
0
LINE
8
0
10
568.000000
20
258.992000
11
568.042333
21
258.894633
0
LINE
8
0
10
568.573000
20
259.630000
11
568.000089
21
258.992743
0
LINE
8
0
10
568.573000
20
259.630000
11
569.627998
21
259.180327
0
LINE
8
0
10
569.627998
20
259.180327
11
570.740517
21
259.127921
0
LINE
8
0
10
570.740517
20
259.127921
11
571.803887
21
259.459114
0
LINE
8
0
10
571.803887
20
259.459114
11
572.711438
21
260.160239
0
LINE
8
0
10
572.711438
20
260.160239
11
573.314282
21
261.135845
0
LINE
8
0
10
573.314282
20
261.135845
11
573.532982
21
262.227914
0
LINE
8
0
10
573.532982
20
262.227914
11
573.365052
21
263.328933
0
LINE
8
0
10
573.365052
20
263.328933
11
572.808000
21
264.331390
0
LINE
8
0
10
572.095000
20
264.973000
11
572.667911
21
265.610257
0
LINE
8
0
10
572.095000
20
264.974000
11
571.040002
21
265.423673
0
LINE
8
0
10
571.040002
20
265.423673
11
569.927483
21
265.476079
0
LINE
8
0
10
569.927483
20
265.476079
11
568.864113
21
265.144886
0
LINE
8
0
10
568.864113
20
265.144886
11
567.956562
21
264.443761
0
LINE
8
0
10
567.956562
20
264.443761
11
567.353718
21
263.468155
0
LINE
8
0
10
567.353718
20
263.468155
11
567.135018
21
262.376086
0
LINE
8
0
10
567.135018
20
262.376086
11
567.302948
21
261.275067
0
LINE
8
0
10
567.302948
20
261.275067
11
567.860000
21
260.272610
0
LINE
8
0
10
567.859000
20
260.272000
11
567.286089
21
259.634743
0
LINE
8
0
10
567.184000
20
259.666000
11
567.285600
21
259.634673
0
LINE
8
0
10
566.912000
20
260.032000
11
567.184880
21
259.666429
0
LINE
8
0
10
566.911000
20
260.235000
11
566.911000
21
260.032000
0
LINE
8
0
10
566.730000
20
260.331000
11
566.910622
21
260.234480
0
LINE
8
0
10
566.535000
20
260.743000
11
566.731285
21
260.331221
0
LINE
8
0
10
566.572000
20
260.942000
11
566.535311
21
260.742469
0
LINE
8
0
10
566.417000
20
261.072000
11
566.572222
21
260.942460
0
LINE
8
0
10
566.304000
20
261.514000
11
566.416183
21
261.071840
0
LINE
8
0
10
566.380000
20
261.702000
11
566.303800
21
261.513758
0
LINE
8
0
10
566.250000
20
261.860000
11
566.379822
21
261.702238
0
LINE
8
0
10
566.228000
20
262.316000
11
566.251707
21
261.860446
0
LINE
8
0
10
566.338000
20
262.486000
11
566.227933
21
262.316102
0
LINE
8
0
10
566.245000
20
262.665000
11
566.338133
21
262.485507
0
LINE
8
0
10
566.309000
20
263.117000
11
566.243440
21
262.665561
0
LINE
8
0
10
566.451000
20
263.262000
11
566.309889
21
263.116938
0
LINE
8
0
10
566.394000
20
263.456000
11
566.450444
21
263.261549
0
LINE
8
0
10
566.546000
20
263.886000
11
566.393628
21
263.456026
0
LINE
8
0
10
566.713000
20
264.001000
11
566.546489
21
263.886136
0
LINE
8
0
10
566.693000
20
264.203000
11
566.712755
21
264.000929
0
LINE
8
0
10
566.927000
20
264.595000
11
566.693659
21
264.203013
0
LINE
8
0
10
567.114000
20
264.675000
11
566.927733
21
264.595413
0
LINE
8
0
10
567.134000
20
264.876000
11
567.114245
21
264.674211
0
LINE
8
0
10
567.440000
20
265.215000
11
567.134692
21
264.876063
0
LINE
8
0
10
567.639000
20
265.257000
11
567.441445
21
265.215231
0
LINE
8
0
10
567.698000
20
265.451000
11
567.638733
21
265.256831
0
LINE
8
0
10
568.064000
20
265.724000
11
567.698410
21
265.451142
0
LINE
8
0
10
568.268000
20
265.726000
11
568.064800
21
265.723742
0
LINE
8
0
10
568.364000
20
265.905000
11
568.268045
21
265.726353
0
LINE
8
0
10
568.776000
20
266.101000
11
568.364210
21
265.904700
0
LINE
8
0
10
568.976000
20
266.064000
11
568.775622
21
266.101253
0
LINE
8
0
10
569.103000
20
266.220000
11
568.976000
21
266.063649
0
LINE
8
0
10
569.547000
20
266.332000
11
569.104843
21
266.219808
0
LINE
8
0
10
569.736000
20
266.256000
11
569.546911
21
266.331635
0
LINE
8
0
10
569.894000
20
266.385000
11
569.735956
21
266.256871
0
LINE
8
0
10
570.348000
20
266.408000
11
569.892465
21
266.384237
0
LINE
8
0
10
570.517000
20
266.297000
11
570.347667
21
266.407913
0
LINE
8
0
10
570.698000
20
266.392000
11
570.517378
21
266.297173
0
LINE
8
0
10
571.149000
20
266.327000
11
570.697586
21
266.392557
0
LINE
8
0
10
571.294000
20
266.185000
11
571.150067
21
266.326958
0
LINE
8
0
10
571.488000
20
266.243000
11
571.293267
21
266.185144
0
LINE
8
0
10
571.919000
20
266.090000
11
571.489035
21
266.242366
0
LINE
8
0
10
572.033000
20
265.923000
11
571.920111
21
266.090358
0
LINE
8
0
10
572.236000
20
265.942000
11
572.032800
21
265.923091
0
LINE
8
0
10
572.627000
20
265.708000
11
572.234994
21
265.941321
0
LINE
8
0
10
572.628000
20
265.708000
11
572.667511
21
265.610351
0
LINE
8
0
10
566.304000
20
261.514000
11
566.199578
21
261.252098
0
LINE
8
0
10
566.199000
20
261.252000
11
566.416311
21
261.071660
0
LINE
8
0
10
567.783000
20
265.721000
11
567.698333
21
265.451478
0
LINE
8
0
10
568.065000
20
265.724000
11
567.782778
21
265.720896
0
LINE
8
0
10
566.072000
20
262.079000
11
566.249800
21
261.859996
0
LINE
8
0
10
566.228000
20
262.316000
11
566.072778
21
262.079498
0
LINE
8
0
10
566.916000
20
259.749000
11
567.184111
21
259.665745
0
LINE
8
0
10
566.911000
20
260.032000
11
566.916644
21
259.749778
0
LINE
8
0
10
566.547000
20
263.886000
11
566.312756
21
263.726827
0
LINE
8
0
10
566.312000
20
263.727000
11
566.393844
21
263.456349
0
LINE
8
0
10
566.112000
20
262.915000
11
566.244644
21
262.665516
0
LINE
8
0
10
566.309000
20
263.117000
11
566.111445
21
262.914929
0
LINE
8
0
10
569.284000
20
266.437000
11
569.103378
21
266.219689
0
LINE
8
0
10
569.547000
20
266.332000
11
569.284534
21
266.437269
0
LINE
8
0
10
566.535000
20
260.743000
11
566.481378
21
260.465576
0
LINE
8
0
10
566.482000
20
260.465000
11
566.730355
21
260.330662
0
LINE
8
0
10
569.518000
20
258.277000
11
569.721200
21
258.079727
0
LINE
8
0
10
569.722000
20
258.079000
11
569.970355
21
258.210798
0
LINE
8
0
10
568.042000
20
258.895000
11
568.152067
21
258.635356
0
LINE
8
0
10
568.152000
20
258.635000
11
568.431400
21
258.661247
0
LINE
8
0
10
567.165000
20
265.157000
11
567.133956
21
264.876189
0
LINE
8
0
10
567.441000
20
265.215000
11
567.164422
21
265.156862
0
LINE
8
0
10
570.348000
20
266.408000
11
570.110934
21
266.562093
0
LINE
8
0
10
570.111000
20
266.562000
11
569.893689
21
266.384200
0
LINE
8
0
10
568.500000
20
266.153000
11
568.364533
21
265.904645
0
LINE
8
0
10
568.776000
20
266.101000
11
568.499422
21
266.153211
0
LINE
8
0
10
573.740000
20
260.008000
11
573.999644
21
260.118913
0
LINE
8
0
10
574.000000
20
260.119000
11
573.974600
21
260.400093
0
LINE
8
0
10
568.909000
20
258.280000
11
569.179933
21
258.360715
0
LINE
8
0
10
568.751000
20
258.513000
11
568.909044
21
258.279885
0
LINE
8
0
10
570.946000
20
266.524000
11
570.697645
21
266.392202
0
LINE
8
0
10
571.150000
20
266.327000
11
570.946800
21
266.524273
0
LINE
8
0
10
570.557000
20
258.041000
11
570.774311
21
258.219082
0
LINE
8
0
10
570.320000
20
258.195000
11
570.557066
21
258.040625
0
LINE
8
0
10
571.920000
20
266.090000
11
571.759133
21
266.323115
0
LINE
8
0
10
571.759000
20
266.323000
11
571.488067
21
266.242284
0
LINE
8
0
10
566.928000
20
264.595000
11
566.668356
21
264.484087
0
LINE
8
0
10
566.668000
20
264.484000
11
566.693400
21
264.202907
0
LINE
8
0
10
571.892000
20
258.502000
11
572.171400
21
258.450071
0
LINE
8
0
10
572.171000
20
258.450000
11
572.303644
21
258.698355
0
LINE
8
0
10
574.124000
20
260.717000
11
574.355422
21
260.876455
0
LINE
8
0
10
574.356000
20
260.876000
11
574.274156
21
261.146651
0
LINE
8
0
10
573.227000
20
259.388000
11
573.503578
21
259.446138
0
LINE
8
0
10
573.503000
20
259.446000
11
573.534044
21
259.726811
0
LINE
8
0
10
572.628000
20
265.708000
11
572.515111
21
265.967644
0
LINE
8
0
10
572.516000
20
265.968000
11
572.236600
21
265.941753
0
LINE
8
0
10
574.186000
20
264.137000
11
573.937645
21
264.271338
0
LINE
8
0
10
574.133000
20
263.860000
11
574.186622
21
264.137424
0
LINE
8
0
10
571.121000
20
258.271000
11
571.383466
21
258.165731
0
LINE
8
0
10
571.384000
20
258.166000
11
571.564622
21
258.383311
0
LINE
8
0
10
574.358000
20
261.487000
11
574.555555
21
261.688789
0
LINE
8
0
10
574.556000
20
261.688000
11
574.423356
21
261.937766
0
LINE
8
0
10
574.440000
20
262.287000
11
574.595222
21
262.523502
0
LINE
8
0
10
574.596000
20
262.524000
11
574.418200
21
262.743004
0
LINE
8
0
10
574.469000
20
263.351000
11
574.251689
21
263.531058
0
LINE
8
0
10
574.364000
20
263.089000
11
574.468422
21
263.350902
0
LINE
8
0
10
573.755000
20
264.854000
11
573.484067
21
264.937255
0
LINE
8
0
10
573.757000
20
264.572000
11
573.754178
21
264.854222
0
LINE
8
0
10
572.885000
20
258.882000
11
572.969667
21
259.151804
0
LINE
8
0
10
572.603000
20
258.879000
11
572.885222
21
258.882104
0
LINE
8
0
10
567.478000
20
259.131000
11
567.960600
21
259.081047
0
LINE
8
0
10
567.379000
20
259.606000
11
567.477778
21
259.131020
0
LINE
8
0
10
567.860000
20
260.272000
11
568.573288
21
259.629479
0
LINE
8
0
10
567.960000
20
259.081000
11
567.999511
21
258.991818
0
LINE
8
0
10
567.286000
20
259.635000
11
567.379133
21
259.606496
0
LINE
8
0
10
572.707000
20
265.522000
11
573.189600
21
265.472047
0
LINE
8
0
10
573.289000
20
264.997000
11
573.190222
21
265.471980
0
LINE
8
0
10
572.808000
20
264.331000
11
572.094712
21
264.973521
0
LINE
8
0
10
572.668000
20
265.611000
11
572.707511
21
265.522100
0
LINE
8
0
10
573.382000
20
264.968000
11
573.288867
21
264.996504
0
LINE
8
0
10
573.097000
20
320.814000
11
573.763044
21
321.353326
0
LINE
8
0
10
573.859000
20
321.306000
11
573.763045
21
321.352849
0
LINE
8
0
10
574.070000
20
320.902000
11
573.857882
21
321.305851
0
LINE
8
0
10
574.040000
20
320.702000
11
574.071044
21
320.902660
0
LINE
8
0
10
574.200000
20
320.578000
11
574.039133
21
320.701331
0
LINE
8
0
10
574.331000
20
320.141000
11
574.201742
21
320.578475
0
LINE
8
0
10
574.263000
20
319.949000
11
574.330733
21
320.140347
0
LINE
8
0
10
574.398000
20
319.797000
11
574.262533
21
319.949400
0
LINE
8
0
10
574.438000
20
319.343000
11
574.396570
21
319.797287
0
LINE
8
0
10
574.333000
20
319.168000
11
574.437422
21
319.342413
0
LINE
8
0
10
574.435000
20
318.993000
11
574.333400
21
319.168542
0
LINE
8
0
10
574.388000
20
318.539000
11
574.436006
21
318.992644
0
LINE
8
0
10
574.251000
20
318.389000
11
574.386467
21
318.539707
0
LINE
8
0
10
574.316000
20
318.197000
11
574.251089
21
318.388911
0
LINE
8
0
10
574.181000
20
317.761000
11
574.316579
21
318.196562
0
LINE
8
0
10
574.020000
20
317.640000
11
574.180867
21
317.760791
0
LINE
8
0
10
574.045000
20
317.439000
11
574.019600
21
317.640224
0
LINE
8
0
10
573.827000
20
317.038000
11
574.044932
21
317.438744
0
LINE
8
0
10
573.644000
20
316.951000
11
573.827444
21
317.037924
0
LINE
8
0
10
573.630000
20
316.749000
11
573.644111
21
316.951635
0
LINE
8
0
10
573.339000
20
316.398000
11
573.630930
21
316.748525
0
LINE
8
0
10
573.142000
20
316.349000
11
573.339555
21
316.398389
0
LINE
8
0
10
573.088000
20
316.153000
11
573.141622
21
316.349144
0
LINE
8
0
10
572.735000
20
315.866000
11
573.089697
21
316.152839
0
LINE
8
0
10
572.532000
20
315.856000
11
572.735200
21
315.866160
0
LINE
8
0
10
572.442000
20
315.673000
11
572.532311
21
315.855315
0
LINE
8
0
10
572.039000
20
315.461000
11
572.442860
21
315.673127
0
LINE
8
0
10
571.838000
20
315.491000
11
572.038378
21
315.461367
0
LINE
8
0
10
571.714000
20
315.330000
11
571.838178
21
315.491149
0
LINE
8
0
10
571.277000
20
315.201000
11
571.714472
21
315.330260
0
LINE
8
0
10
571.088000
20
315.269000
11
571.277089
21
315.200985
0
LINE
8
0
10
570.935000
20
315.135000
11
571.087400
21
315.268773
0
LINE
8
0
10
570.479000
20
315.093000
11
570.933265
21
315.134430
0
LINE
8
0
10
570.306000
20
315.198000
11
570.480978
21
315.093860
0
LINE
8
0
10
570.131000
20
315.096000
11
570.305978
21
315.197600
0
LINE
8
0
10
569.676000
20
315.144000
11
570.129615
21
315.096008
0
LINE
8
0
10
569.527000
20
315.280000
11
569.676578
21
315.143969
0
LINE
8
0
10
569.332000
20
315.215000
11
569.526733
21
315.280475
0
LINE
8
0
10
568.898000
20
315.350000
11
569.333553
21
315.214429
0
LINE
8
0
10
568.776000
20
315.513000
11
568.897355
21
315.350158
0
LINE
8
0
10
568.576000
20
315.486000
11
568.776378
21
315.512811
0
LINE
8
0
10
568.175000
20
315.704000
11
568.575727
21
315.486063
0
LINE
8
0
10
568.087000
20
315.888000
11
568.174489
21
315.704838
0
LINE
8
0
10
567.884000
20
315.901000
11
568.087200
21
315.887736
0
LINE
8
0
10
567.535000
20
316.193000
11
567.885520
21
315.901067
0
LINE
8
0
10
567.509000
20
316.296000
11
567.534400
21
316.192989
0
LINE
8
0
10
568.175000
20
316.835000
11
567.508956
21
316.295956
0
LINE
8
0
10
568.176000
20
316.835000
11
569.147382
21
316.225390
0
LINE
8
0
10
569.147382
20
316.225390
11
570.237895
21
315.999097
0
LINE
8
0
10
570.237895
20
315.999097
11
571.340049
21
316.159359
0
LINE
8
0
10
571.340049
20
316.159359
11
572.346353
21
316.709413
0
LINE
8
0
10
572.346353
20
316.709413
11
573.094790
21
317.578349
0
LINE
8
0
10
573.094790
20
317.578349
11
573.482119
21
318.622572
0
LINE
8
0
10
573.482119
20
318.622572
11
573.489014
21
319.736296
0
LINE
8
0
10
573.489014
20
319.736296
11
573.096150
21
320.813730
0
LINE
8
0
10
572.493000
20
321.560000
11
573.159044
21
322.099326
0
LINE
8
0
10
572.492000
20
321.560000
11
571.520618
21
322.169610
0
LINE
8
0
10
571.520618
20
322.169610
11
570.430105
21
322.395903
0
LINE
8
0
10
570.430105
20
322.395903
11
569.327951
21
322.235641
0
LINE
8
0
10
569.327951
20
322.235641
11
568.321647
21
321.685587
0
LINE
8
0
10
568.321647
20
321.685587
11
567.573210
21
320.816651
0
LINE
8
0
10
567.573210
20
320.816651
11
567.185881
21
319.772428
0
LINE
8
0
10
567.185881
20
319.772428
11
567.178986
21
318.658704
0
LINE
8
0
10
567.178986
20
318.658704
11
567.571850
21
317.581270
0
LINE
8
0
10
567.571000
20
317.581000
11
566.904956
21
317.041956
0
LINE
8
0
10
566.809000
20
317.089000
11
566.904955
21
317.042433
0
LINE
8
0
10
566.598000
20
317.493000
11
566.810118
21
317.089149
0
LINE
8
0
10
566.337000
20
318.254000
11
566.466258
21
317.816525
0
LINE
8
0
10
566.405000
20
318.445000
11
566.337267
21
318.253936
0
LINE
8
0
10
566.273000
20
318.598000
11
566.405644
21
318.445600
0
LINE
8
0
10
566.230000
20
319.052000
11
566.271430
21
318.597713
0
LINE
8
0
10
566.335000
20
319.226000
11
566.230578
21
319.051869
0
LINE
8
0
10
566.233000
20
319.402000
11
566.334600
21
319.226176
0
LINE
8
0
10
566.281000
20
319.856000
11
566.232994
21
319.402359
0
LINE
8
0
10
566.417000
20
320.006000
11
566.281533
21
319.855576
0
LINE
8
0
10
566.352000
20
320.198000
11
566.416911
21
320.005807
0
LINE
8
0
10
566.487000
20
320.634000
11
566.351449
21
320.198438
0
LINE
8
0
10
566.651000
20
320.755000
11
566.487311
21
320.633927
0
LINE
8
0
10
566.623000
20
320.956000
11
566.651222
21
320.754776
0
LINE
8
0
10
566.841000
20
321.357000
11
566.623068
21
320.956256
0
LINE
8
0
10
567.024000
20
321.444000
11
566.840556
21
321.357076
0
LINE
8
0
10
567.038000
20
321.646000
11
567.023889
21
321.443365
0
LINE
8
0
10
567.329000
20
321.997000
11
567.037070
21
321.646475
0
LINE
8
0
10
567.526000
20
322.046000
11
567.328445
21
321.996611
0
LINE
8
0
10
567.579000
20
322.242000
11
567.525378
21
322.045856
0
LINE
8
0
10
567.933000
20
322.529000
11
567.578303
21
322.242164
0
LINE
8
0
10
568.135000
20
322.539000
11
567.931800
21
322.528840
0
LINE
8
0
10
568.226000
20
322.721000
11
568.135689
21
322.538967
0
LINE
8
0
10
568.629000
20
322.934000
11
568.225140
21
322.721873
0
LINE
8
0
10
568.830000
20
322.904000
11
568.629622
21
322.933633
0
LINE
8
0
10
568.954000
20
323.065000
11
568.829822
21
322.903851
0
LINE
8
0
10
569.391000
20
323.194000
11
568.953528
21
323.064737
0
LINE
8
0
10
569.583000
20
323.126000
11
569.391089
21
323.194298
0
LINE
8
0
10
569.736000
20
323.260000
11
569.583600
21
323.125945
0
LINE
8
0
10
570.189000
20
323.302000
11
569.734707
21
323.260567
0
LINE
8
0
10
570.362000
20
323.197000
11
570.189845
21
323.301140
0
LINE
8
0
10
570.540000
20
323.299000
11
570.362200
21
323.197400
0
LINE
8
0
10
570.992000
20
323.251000
11
570.538356
21
323.298992
0
LINE
8
0
10
571.144000
20
323.115000
11
570.991600
21
323.251313
0
LINE
8
0
10
571.336000
20
323.180000
11
571.144089
21
323.114525
0
LINE
8
0
10
571.771000
20
323.045000
11
571.335447
21
323.180571
0
LINE
8
0
10
571.892000
20
322.882000
11
571.770645
21
323.044842
0
LINE
8
0
10
572.092000
20
322.908000
11
571.891622
21
322.881471
0
LINE
8
0
10
572.493000
20
322.691000
11
572.092273
21
322.908940
0
LINE
8
0
10
572.580000
20
322.507000
11
572.492511
21
322.690444
0
LINE
8
0
10
572.784000
20
322.494000
11
572.580800
21
322.506982
0
LINE
8
0
10
573.133000
20
322.202000
11
572.782480
21
322.493933
0
LINE
8
0
10
573.134000
20
322.202000
11
573.159400
21
322.098989
0
LINE
8
0
10
566.468000
20
317.817000
11
566.628867
21
317.693669
0
LINE
8
0
10
566.628000
20
317.694000
11
566.596956
21
317.493058
0
LINE
8
0
10
566.230000
20
319.052000
11
566.086067
21
318.809854
0
LINE
8
0
10
566.087000
20
318.810000
11
566.273267
21
318.597769
0
LINE
8
0
10
566.558000
20
317.214000
11
566.809178
21
317.089258
0
LINE
8
0
10
566.597000
20
317.493000
11
566.557489
21
317.213882
0
LINE
8
0
10
568.350000
20
322.975000
11
568.225822
21
322.721565
0
LINE
8
0
10
568.629000
20
322.934000
11
568.349600
21
322.975204
0
LINE
8
0
10
566.092000
20
319.646000
11
566.233111
21
319.401878
0
LINE
8
0
10
566.281000
20
319.856000
11
566.091911
21
319.646591
0
LINE
8
0
10
566.262000
20
320.466000
11
566.352311
21
320.198736
0
LINE
8
0
10
566.487000
20
320.634000
11
566.261222
21
320.465796
0
LINE
8
0
10
566.840000
20
321.357000
11
566.586000
21
321.236209
0
LINE
8
0
10
566.586000
20
321.236000
11
566.622689
21
320.956036
0
LINE
8
0
10
566.338000
20
318.254000
11
566.242045
21
317.988147
0
LINE
8
0
10
566.242000
20
317.989000
11
566.467778
21
317.817409
0
LINE
8
0
10
567.534000
20
316.193000
11
567.604555
21
315.919245
0
LINE
8
0
10
567.605000
20
315.919000
11
567.884400
21
315.900938
0
LINE
8
0
10
569.947000
20
323.447000
11
569.735334
21
323.260451
0
LINE
8
0
10
570.190000
20
323.302000
11
569.947289
21
323.447062
0
LINE
8
0
10
569.126000
20
323.289000
11
568.953845
21
323.064916
0
LINE
8
0
10
569.391000
20
323.194000
11
569.125711
21
323.288827
0
LINE
8
0
10
568.897000
20
315.350000
11
569.066333
21
315.123376
0
LINE
8
0
10
569.067000
20
315.124000
11
569.332289
21
315.214876
0
LINE
8
0
10
570.992000
20
323.251000
11
570.783156
21
323.440371
0
LINE
8
0
10
570.783000
20
323.440000
11
570.540289
21
323.298607
0
LINE
8
0
10
567.932000
20
322.529000
11
567.649778
21
322.514889
0
LINE
8
0
10
567.650000
20
322.515000
11
567.579445
21
322.242374
0
LINE
8
0
10
568.175000
20
315.704000
11
568.296355
21
315.448871
0
LINE
8
0
10
568.296000
20
315.449000
11
568.575400
21
315.485971
0
LINE
8
0
10
572.493000
20
322.691000
11
572.371645
21
322.946129
0
LINE
8
0
10
572.372000
20
322.946000
11
572.092600
21
322.908747
0
LINE
8
0
10
569.885000
20
314.955000
11
570.130533
21
315.096393
0
LINE
8
0
10
569.676000
20
315.144000
11
569.884844
21
314.954629
0
LINE
8
0
10
567.328000
20
321.997000
11
567.054245
21
321.928138
0
LINE
8
0
10
567.055000
20
321.928000
11
567.038067
21
321.646342
0
LINE
8
0
10
571.601000
20
323.271000
11
571.335711
21
323.179842
0
LINE
8
0
10
571.770000
20
323.045000
11
571.600667
21
323.271624
0
LINE
8
0
10
571.277000
20
315.201000
11
571.542289
21
315.105891
0
LINE
8
0
10
571.542000
20
315.106000
11
571.714155
21
315.330366
0
LINE
8
0
10
573.340000
20
316.398000
11
573.613755
21
316.466862
0
LINE
8
0
10
573.613000
20
316.467000
11
573.629933
21
316.748658
0
LINE
8
0
10
574.426000
20
320.407000
11
574.200222
21
320.578591
0
LINE
8
0
10
574.330000
20
320.141000
11
574.425955
21
320.406853
0
LINE
8
0
10
573.828000
20
317.038000
11
574.082000
21
317.158791
0
LINE
8
0
10
574.082000
20
317.159000
11
574.045311
21
317.438964
0
LINE
8
0
10
570.481000
20
315.093000
11
570.720889
21
314.947938
0
LINE
8
0
10
570.721000
20
314.948000
11
570.935489
21
315.134549
0
LINE
8
0
10
573.134000
20
322.202000
11
573.066267
21
322.475755
0
LINE
8
0
10
573.066000
20
322.476000
11
572.783778
21
322.494062
0
LINE
8
0
10
572.736000
20
315.866000
11
573.018222
21
315.879829
0
LINE
8
0
10
573.018000
20
315.880000
11
573.088555
21
316.152909
0
LINE
8
0
10
574.387000
20
318.539000
11
574.576089
21
318.748127
0
LINE
8
0
10
574.576000
20
318.749000
11
574.434889
21
318.993404
0
LINE
8
0
10
574.181000
20
317.761000
11
574.409600
21
317.929487
0
LINE
8
0
10
574.409000
20
317.930000
11
574.315867
21
318.197264
0
LINE
8
0
10
574.584000
20
319.585000
11
574.397733
21
319.796949
0
LINE
8
0
10
574.437000
20
319.343000
11
574.583755
21
319.585146
0
LINE
8
0
10
574.110000
20
321.182000
11
573.858822
21
321.306460
0
LINE
8
0
10
574.071000
20
320.902000
11
574.110511
21
321.181400
0
LINE
8
0
10
572.318000
20
315.420000
11
572.442178
21
315.673153
0
LINE
8
0
10
572.039000
20
315.462000
11
572.318400
21
315.420796
0
LINE
8
0
10
567.018000
20
316.515000
11
567.486489
21
316.389976
0
LINE
8
0
10
566.992000
20
316.999000
11
567.017400
21
316.514425
0
LINE
8
0
10
567.572000
20
317.581000
11
568.175645
21
316.834528
0
LINE
8
0
10
567.486000
20
316.390000
11
567.508578
21
316.296020
0
LINE
8
0
10
566.905000
20
317.042000
11
566.992489
21
316.999102
0
LINE
8
0
10
573.182000
20
322.005000
11
573.653311
21
321.879976
0
LINE
8
0
10
573.675000
20
321.396000
11
573.652422
21
321.880575
0
LINE
8
0
10
573.096000
20
320.814000
11
572.492355
21
321.560469
0
LINE
8
0
10
573.159000
20
322.099000
11
573.181578
21
322.005020
0
LINE
8
0
10
573.763000
20
321.353000
11
573.675511
21
321.395898
0
LINE
8
0
10
573.280000
20
352.961000
11
574.008133
21
353.410862
0
LINE
8
0
10
574.099000
20
353.352000
11
574.008689
21
353.410420
0
LINE
8
0
10
574.257000
20
352.925000
11
574.098024
21
353.352575
0
LINE
8
0
10
574.203000
20
352.729000
11
574.256622
21
352.924580
0
LINE
8
0
10
574.347000
20
352.586000
11
574.203067
21
352.728804
0
LINE
8
0
10
574.419000
20
352.136000
11
574.346497
21
352.586373
0
LINE
8
0
10
574.327000
20
351.955000
11
574.417311
21
352.135904
0
LINE
8
0
10
574.440000
20
351.787000
11
574.327111
21
351.955204
0
LINE
8
0
10
574.423000
20
351.331000
11
574.439651
21
351.786865
0
LINE
8
0
10
574.299000
20
351.172000
11
574.423178
21
351.331455
0
LINE
8
0
10
574.375000
20
350.984000
11
574.298800
21
351.171395
0
LINE
8
0
10
574.271000
20
350.541000
11
574.376382
21
350.984836
0
LINE
8
0
10
574.116000
20
350.408000
11
574.271222
21
350.540080
0
LINE
8
0
10
574.158000
20
350.210000
11
574.115667
21
350.408684
0
LINE
8
0
10
573.967000
20
349.795000
11
574.156935
21
350.209756
0
LINE
8
0
10
573.791000
20
349.696000
11
573.965978
21
349.795342
0
LINE
8
0
10
573.791000
20
349.493000
11
573.791000
21
349.696000
0
LINE
8
0
10
573.524000
20
349.123000
11
573.791208
21
349.492731
0
LINE
8
0
10
573.331000
20
349.060000
11
573.522911
21
349.122935
0
LINE
8
0
10
573.292000
20
348.861000
11
573.331511
21
349.060249
0
LINE
8
0
10
572.958000
20
348.550000
11
573.292179
21
348.860501
0
LINE
8
0
10
572.755000
20
348.526000
11
572.958200
21
348.549989
0
LINE
8
0
10
572.679000
20
348.338000
11
572.755200
21
348.525960
0
LINE
8
0
10
572.291000
20
348.099000
11
572.679337
21
348.338336
0
LINE
8
0
10
572.089000
20
348.115000
11
572.292200
21
348.099196
0
LINE
8
0
10
571.977000
20
347.946000
11
572.089889
21
348.115051
0
LINE
8
0
10
571.549000
20
347.787000
11
571.976566
21
347.945976
0
LINE
8
0
10
571.212000
20
347.697000
11
571.353111
21
347.841215
0
LINE
8
0
10
570.761000
20
347.625000
11
571.211370
21
347.697506
0
LINE
8
0
10
570.580000
20
347.717000
11
570.760622
21
347.624996
0
LINE
8
0
10
570.410000
20
347.603000
11
570.579333
21
347.716453
0
LINE
8
0
10
569.956000
20
347.620000
11
570.411873
21
347.603236
0
LINE
8
0
10
569.795000
20
347.746000
11
569.955867
21
347.620693
0
LINE
8
0
10
569.609000
20
347.667000
11
569.795267
21
347.745458
0
LINE
8
0
10
569.165000
20
347.773000
11
569.608822
21
347.667635
0
LINE
8
0
10
569.033000
20
347.927000
11
569.165644
21
347.772907
0
LINE
8
0
10
568.835000
20
347.887000
11
569.032555
21
347.927358
0
LINE
8
0
10
568.420000
20
348.076000
11
568.834753
21
347.886070
0
LINE
8
0
10
568.319000
20
348.253000
11
568.420600
21
348.076047
0
LINE
8
0
10
568.119000
20
348.253000
11
568.319378
21
348.253847
0
LINE
8
0
10
567.748000
20
348.520000
11
568.117739
21
348.252809
0
LINE
8
0
10
567.684000
20
348.713000
11
567.748911
21
348.520242
0
LINE
8
0
10
567.486000
20
348.752000
11
567.683555
21
348.713053
0
LINE
8
0
10
567.175000
20
349.086000
11
567.485501
21
348.751810
0
LINE
8
0
10
567.162000
20
349.191000
11
567.176111
21
349.085731
0
LINE
8
0
10
567.893000
20
349.641000
11
567.162045
21
349.191138
0
LINE
8
0
10
567.893000
20
349.641000
11
568.778851
21
348.912641
0
LINE
8
0
10
568.778851
20
348.912641
11
569.831680
21
348.549316
0
LINE
8
0
10
569.831680
20
348.549316
11
570.945282
21
348.567925
0
LINE
8
0
10
570.945282
20
348.567925
11
572.013449
21
348.985368
0
LINE
8
0
10
572.013449
20
348.985368
11
572.866447
21
349.751940
0
LINE
8
0
10
572.866447
20
349.751940
11
573.383588
21
350.738358
0
LINE
8
0
10
573.383588
20
350.738358
11
573.532232
21
351.842151
0
LINE
8
0
10
573.532232
20
351.842151
11
573.279740
21
352.960850
0
LINE
8
0
10
571.353000
20
347.842000
11
571.550555
21
347.786967
0
LINE
8
0
10
572.775000
20
353.778000
11
573.505955
21
354.228144
0
LINE
8
0
10
572.776000
20
353.778000
11
571.890148
21
354.506323
0
LINE
8
0
10
571.890148
20
354.506323
11
570.837330
21
354.869621
0
LINE
8
0
10
570.837330
20
354.869621
11
569.723749
21
354.850998
0
LINE
8
0
10
569.723749
20
354.850998
11
568.655604
21
354.433557
0
LINE
8
0
10
568.655604
20
354.433557
11
567.802622
21
353.667000
0
LINE
8
0
10
567.802622
20
353.667000
11
567.285483
21
352.680604
0
LINE
8
0
10
567.285483
20
352.680604
11
567.136826
21
351.576832
0
LINE
8
0
10
567.136826
20
351.576832
11
567.389290
21
350.458150
0
LINE
8
0
10
567.388000
20
350.458000
11
566.659867
21
350.008138
0
LINE
8
0
10
566.569000
20
350.067000
11
566.659311
21
350.008580
0
LINE
8
0
10
566.411000
20
350.494000
11
566.569976
21
350.066425
0
LINE
8
0
10
566.468000
20
350.690000
11
566.411556
21
350.494702
0
LINE
8
0
10
566.324000
20
350.833000
11
566.467933
21
350.689913
0
LINE
8
0
10
566.250000
20
351.283000
11
566.322503
21
350.832627
0
LINE
8
0
10
566.341000
20
351.464000
11
566.250689
21
351.283096
0
LINE
8
0
10
566.228000
20
351.632000
11
566.340889
21
351.463796
0
LINE
8
0
10
566.245000
20
352.088000
11
566.228349
21
351.632135
0
LINE
8
0
10
566.372000
20
352.247000
11
566.245000
21
352.087545
0
LINE
8
0
10
566.293000
20
352.435000
11
566.372022
21
352.247887
0
LINE
8
0
10
566.397000
20
352.878000
11
566.291618
21
352.434161
0
LINE
8
0
10
566.552000
20
353.010000
11
566.396778
21
352.878202
0
LINE
8
0
10
566.510000
20
353.209000
11
566.552333
21
353.010033
0
LINE
8
0
10
566.701000
20
353.624000
11
566.511065
21
353.209247
0
LINE
8
0
10
566.877000
20
353.723000
11
566.702022
21
353.623658
0
LINE
8
0
10
566.877000
20
353.926000
11
566.877000
21
353.723000
0
LINE
8
0
10
567.144000
20
354.296000
11
566.876792
21
353.926269
0
LINE
8
0
10
567.337000
20
354.359000
11
567.145089
21
354.296064
0
LINE
8
0
10
567.376000
20
354.558000
11
567.336489
21
354.359033
0
LINE
8
0
10
567.710000
20
354.869000
11
567.375821
21
354.558499
0
LINE
8
0
10
567.913000
20
354.893000
11
567.709800
21
354.869011
0
LINE
8
0
10
567.989000
20
355.080000
11
567.912800
21
354.892322
0
LINE
8
0
10
568.377000
20
355.320000
11
567.988634
21
355.080662
0
LINE
8
0
10
568.579000
20
355.304000
11
568.378622
21
355.319804
0
LINE
8
0
10
568.691000
20
355.473000
11
568.578111
21
355.303667
0
LINE
8
0
10
569.119000
20
355.632000
11
568.691434
21
355.473024
0
LINE
8
0
10
569.315000
20
355.577000
11
569.117445
21
355.631751
0
LINE
8
0
10
569.456000
20
355.721000
11
569.314889
21
355.577067
0
LINE
8
0
10
569.908000
20
355.794000
11
569.457630
21
355.721494
0
LINE
8
0
10
570.088000
20
355.702000
11
569.907378
21
355.794004
0
LINE
8
0
10
570.258000
20
355.815000
11
570.088667
21
355.701547
0
LINE
8
0
10
570.713000
20
355.799000
11
570.257127
21
355.815736
0
LINE
8
0
10
570.873000
20
355.673000
11
570.712133
21
355.798589
0
LINE
8
0
10
571.059000
20
355.752000
11
570.872733
21
355.673542
0
LINE
8
0
10
571.503000
20
355.646000
11
571.059178
21
355.751362
0
LINE
8
0
10
571.635000
20
355.492000
11
571.502356
21
355.646093
0
LINE
8
0
10
571.833000
20
355.533000
11
571.635445
21
355.492642
0
LINE
8
0
10
572.249000
20
355.343000
11
571.834247
21
355.532930
0
LINE
8
0
10
572.349000
20
355.166000
11
572.247400
21
355.342953
0
LINE
8
0
10
572.552000
20
355.166000
11
572.348800
21
355.165153
0
LINE
8
0
10
572.921000
20
354.899000
11
572.551261
21
355.166194
0
LINE
8
0
10
572.984000
20
354.706000
11
572.921911
21
354.899040
0
LINE
8
0
10
573.182000
20
354.667000
11
572.984445
21
354.705664
0
LINE
8
0
10
573.493000
20
354.333000
11
573.182499
21
354.667190
0
LINE
8
0
10
573.492000
20
354.333000
11
573.506111
21
354.227731
0
LINE
8
0
10
566.245000
20
352.088000
11
566.070022
21
351.866174
0
LINE
8
0
10
566.070000
20
351.866000
11
566.228044
21
351.632038
0
LINE
8
0
10
568.847000
20
355.709000
11
568.691778
21
355.473627
0
LINE
8
0
10
569.118000
20
355.632000
11
568.847067
21
355.708482
0
LINE
8
0
10
566.182000
20
352.695000
11
566.292067
21
352.434509
0
LINE
8
0
10
566.397000
20
352.878000
11
566.182511
21
352.694556
0
LINE
8
0
10
566.335000
20
350.223000
11
566.569244
21
350.067213
0
LINE
8
0
10
566.411000
20
350.494000
11
566.334800
21
350.222220
0
LINE
8
0
10
567.145000
20
354.296000
11
566.876889
21
354.208511
0
LINE
8
0
10
566.877000
20
354.209000
11
566.877000
21
353.926000
0
LINE
8
0
10
566.456000
20
353.486000
11
566.509622
21
353.209422
0
LINE
8
0
10
566.702000
20
353.624000
11
566.456467
21
353.485711
0
LINE
8
0
10
566.250000
20
351.283000
11
566.120178
21
351.031258
0
LINE
8
0
10
566.120000
20
351.031000
11
566.323200
21
350.832316
0
LINE
8
0
10
570.492000
20
355.973000
11
570.257756
21
355.814956
0
LINE
8
0
10
570.712000
20
355.799000
11
570.491867
21
355.973695
0
LINE
8
0
10
567.176000
20
349.086000
11
567.209867
21
348.805754
0
LINE
8
0
10
567.210000
20
348.805000
11
567.486578
21
348.751096
0
LINE
8
0
10
568.421000
20
348.076000
11
568.559289
21
347.829620
0
LINE
8
0
10
568.559000
20
347.830000
11
568.835578
21
347.886444
0
LINE
8
0
10
571.502000
20
355.646000
11
571.318556
21
355.860489
0
LINE
8
0
10
571.319000
20
355.861000
11
571.059356
21
355.751780
0
LINE
8
0
10
568.378000
20
355.320000
11
568.095778
21
355.342013
0
LINE
8
0
10
568.096000
20
355.342000
11
567.988756
21
355.080662
0
LINE
8
0
10
569.657000
20
355.922000
11
569.456622
21
355.721340
0
LINE
8
0
10
569.908000
20
355.794000
11
569.656822
21
355.922129
0
LINE
8
0
10
567.709000
20
354.869000
11
567.429600
21
354.835416
0
LINE
8
0
10
567.430000
20
354.835000
11
567.376378
21
354.557858
0
LINE
8
0
10
569.349000
20
347.558000
11
569.608644
21
347.666938
0
LINE
8
0
10
569.166000
20
347.773000
11
569.349444
21
347.558511
0
LINE
8
0
10
567.749000
20
348.520000
11
567.836489
21
348.251607
0
LINE
8
0
10
567.836000
20
348.251000
11
568.118222
21
348.252129
0
LINE
8
0
10
572.922000
20
354.899000
11
572.834511
21
355.167393
0
LINE
8
0
10
572.834000
20
355.168000
11
572.551778
21
355.166871
0
LINE
8
0
10
572.112000
20
355.589000
11
571.832600
21
355.532838
0
LINE
8
0
10
572.247000
20
355.343000
11
572.111533
21
355.589098
0
LINE
8
0
10
570.760000
20
347.625000
11
571.011178
21
347.497153
0
LINE
8
0
10
571.011000
20
347.497000
11
571.211378
21
347.697378
0
LINE
8
0
10
572.959000
20
348.550000
11
573.238400
21
348.583302
0
LINE
8
0
10
573.238000
20
348.584000
11
573.291622
21
348.861142
0
LINE
8
0
10
574.548000
20
352.388000
11
574.347622
21
352.586684
0
LINE
8
0
10
574.418000
20
352.136000
11
574.547822
21
352.387742
0
LINE
8
0
10
572.293000
20
348.099000
11
572.572400
21
348.077269
0
LINE
8
0
10
572.572000
20
348.077000
11
572.679244
21
348.338055
0
LINE
8
0
10
569.956000
20
347.620000
11
570.178955
21
347.445305
0
LINE
8
0
10
570.179000
20
347.446000
11
570.410422
21
347.603762
0
LINE
8
0
10
573.523000
20
349.123000
11
573.791111
21
349.210489
0
LINE
8
0
10
573.791000
20
349.210000
11
573.791000
21
349.493000
0
LINE
8
0
10
573.492000
20
354.333000
11
573.460956
21
354.613246
0
LINE
8
0
10
573.461000
20
354.614000
11
573.181600
21
354.667904
0
LINE
8
0
10
573.966000
20
349.795000
11
574.214355
21
349.933007
0
LINE
8
0
10
574.215000
20
349.933000
11
574.158556
21
350.209860
0
LINE
8
0
10
574.271000
20
350.541000
11
574.485489
21
350.724444
0
LINE
8
0
10
574.485000
20
350.724000
11
574.374933
21
350.984209
0
LINE
8
0
10
574.598000
20
351.553000
11
574.439956
21
351.786962
0
LINE
8
0
10
574.423000
20
351.331000
11
574.597978
21
351.552826
0
LINE
8
0
10
574.333000
20
353.197000
11
574.098756
21
353.352787
0
LINE
8
0
10
574.257000
20
352.925000
11
574.333200
21
353.196780
0
LINE
8
0
10
571.821000
20
347.710000
11
571.976222
21
347.945373
0
LINE
8
0
10
571.550000
20
347.787000
11
571.820933
21
347.710800
0
LINE
8
0
10
566.702000
20
349.471000
11
567.150733
21
349.287273
0
LINE
8
0
10
566.738000
20
349.955000
11
566.701311
21
349.471271
0
LINE
8
0
10
567.389000
20
350.458000
11
567.892653
21
349.640742
0
LINE
8
0
10
567.151000
20
349.287000
11
567.162289
21
349.190762
0
LINE
8
0
10
566.659000
20
350.008000
11
566.738022
21
349.954378
0
LINE
8
0
10
573.517000
20
354.132000
11
573.965733
21
353.948273
0
LINE
8
0
10
573.929000
20
353.464000
11
573.965689
21
353.947729
0
LINE
8
0
10
573.279000
20
352.961000
11
572.775318
21
353.778256
0
LINE
8
0
10
573.506000
20
354.228000
11
573.517289
21
354.131762
0
LINE
8
0
10
574.009000
20
353.411000
11
573.929978
21
353.464622
0
LINE
8
0
10
573.441000
20
333.513000
11
574.231222
21
333.841506
0
LINE
8
0
10
574.310000
20
333.770000
11
574.230978
21
333.841684
0
LINE
8
0
10
574.400000
20
333.322000
11
574.310818
21
333.769373
0
LINE
8
0
10
574.316000
20
333.138000
11
574.400667
21
333.322009
0
LINE
8
0
10
574.435000
20
332.974000
11
574.316467
21
333.137971
0
LINE
8
0
10
574.435000
20
332.518000
11
574.434802
21
332.974172
0
LINE
8
0
10
574.316000
20
332.354000
11
574.434533
21
332.517971
0
LINE
8
0
10
574.401000
20
332.170000
11
574.316333
21
332.354009
0
LINE
8
0
10
574.312000
20
331.722000
11
574.400815
21
332.169443
0
LINE
8
0
10
574.164000
20
331.585000
11
574.310755
21
331.722442
0
LINE
8
0
10
574.209000
20
331.387000
11
574.163844
21
331.584273
0
LINE
8
0
10
574.036000
20
330.966000
11
574.210413
21
331.387518
0
LINE
8
0
10
573.862000
20
330.860000
11
574.036978
21
330.965833
0
LINE
8
0
10
573.870000
20
330.657000
11
573.861533
21
330.859918
0
LINE
8
0
10
573.618000
20
330.278000
11
573.871294
21
330.657394
0
LINE
8
0
10
573.427000
20
330.208000
11
573.618911
21
330.277991
0
LINE
8
0
10
573.396000
20
330.007000
11
573.427044
21
330.207660
0
LINE
8
0
10
573.073000
20
329.685000
11
573.395439
21
330.007690
0
LINE
8
0
10
572.874000
20
329.653000
11
573.074378
21
329.684609
0
LINE
8
0
10
572.803000
20
329.463000
11
572.873555
21
329.653500
0
LINE
8
0
10
572.424000
20
329.209000
11
572.803193
21
329.462585
0
LINE
8
0
10
572.222000
20
329.217000
11
572.425200
21
329.208816
0
LINE
8
0
10
572.115000
20
329.044000
11
572.222244
21
329.217284
0
LINE
8
0
10
571.694000
20
328.869000
11
572.115386
21
329.043738
0
LINE
8
0
10
571.497000
20
328.917000
11
571.694555
21
328.869304
0
LINE
8
0
10
571.358000
20
328.767000
11
571.496289
21
328.916578
0
LINE
8
0
10
570.912000
20
328.678000
11
571.359378
21
328.767171
0
LINE
8
0
10
570.563000
20
328.644000
11
570.729511
21
328.763662
0
LINE
8
0
10
570.108000
20
328.644000
11
570.564184
21
328.644181
0
LINE
8
0
10
569.945000
20
328.763000
11
570.108689
21
328.643620
0
LINE
8
0
10
569.758000
20
328.678000
11
569.944267
21
328.763231
0
LINE
8
0
10
569.312000
20
328.767000
11
569.759435
21
328.678182
0
LINE
8
0
10
569.174000
20
328.916000
11
569.312289
21
328.766987
0
LINE
8
0
10
568.976000
20
328.868000
11
569.173555
21
328.915695
0
LINE
8
0
10
568.556000
20
329.043000
11
568.977499
21
328.868595
0
LINE
8
0
10
568.449000
20
329.216000
11
568.556244
21
329.042716
0
LINE
8
0
10
568.248000
20
329.207000
11
568.448378
21
329.215467
0
LINE
8
0
10
567.868000
20
329.461000
11
568.247419
21
329.207714
0
LINE
8
0
10
567.797000
20
329.651000
11
567.867555
21
329.460500
0
LINE
8
0
10
567.596000
20
329.682000
11
567.796378
21
329.650673
0
LINE
8
0
10
567.275000
20
330.005000
11
567.597693
21
329.682567
0
LINE
8
0
10
567.244000
20
330.205000
11
567.275044
21
330.004622
0
LINE
8
0
10
567.052000
20
330.275000
11
567.243911
21
330.205009
0
LINE
8
0
10
566.799000
20
330.654000
11
567.052576
21
330.274807
0
LINE
8
0
10
566.803000
20
330.760000
11
566.797356
21
330.653885
0
LINE
8
0
10
567.596000
20
331.089000
11
566.802956
21
330.760494
0
LINE
8
0
10
567.596000
20
331.089000
11
568.355165
21
330.229412
0
LINE
8
0
10
568.355165
20
330.229412
11
569.337069
21
329.703764
0
LINE
8
0
10
569.337069
20
329.703764
11
570.439529
21
329.545580
0
LINE
8
0
10
570.439529
20
329.545580
11
571.560363
21
329.788383
0
LINE
8
0
10
571.560363
20
329.788383
11
572.524107
21
330.410010
0
LINE
8
0
10
572.524107
20
330.410010
11
573.191103
21
331.301950
0
LINE
8
0
10
573.191103
20
331.301950
11
573.512878
21
332.368206
0
LINE
8
0
10
573.512878
20
332.368206
11
573.440960
21
333.512780
0
LINE
8
0
10
570.729000
20
328.763000
11
570.912444
21
328.677769
0
LINE
8
0
10
573.072000
20
334.399000
11
573.865044
21
334.727506
0
LINE
8
0
10
573.073000
20
334.399000
11
572.313835
21
335.258588
0
LINE
8
0
10
572.313835
20
335.258588
11
571.331931
21
335.784236
0
LINE
8
0
10
571.331931
20
335.784236
11
570.229471
21
335.942420
0
LINE
8
0
10
570.229471
20
335.942420
11
569.108637
21
335.699617
0
LINE
8
0
10
569.108637
20
335.699617
11
568.144893
21
335.077990
0
LINE
8
0
10
568.144893
20
335.077990
11
567.477897
21
334.186050
0
LINE
8
0
10
567.477897
20
334.186050
11
567.156122
21
333.119794
0
LINE
8
0
10
567.156122
20
333.119794
11
567.228040
21
331.975220
0
LINE
8
0
10
567.227000
20
331.976000
11
566.436778
21
331.647494
0
LINE
8
0
10
566.357000
20
331.719000
11
566.436022
21
331.647316
0
LINE
8
0
10
566.268000
20
332.166000
11
566.357182
21
331.718627
0
LINE
8
0
10
566.355000
20
332.351000
11
566.267511
21
332.166709
0
LINE
8
0
10
566.234000
20
332.971000
11
566.234169
21
332.514828
0
LINE
8
0
10
566.355000
20
333.135000
11
566.233645
21
332.970747
0
LINE
8
0
10
566.267000
20
333.319000
11
566.354489
21
333.134991
0
LINE
8
0
10
566.357000
20
333.766000
11
566.268185
21
333.318557
0
LINE
8
0
10
566.507000
20
333.904000
11
566.357422
21
333.766276
0
LINE
8
0
10
566.459000
20
334.101000
11
566.506978
21
333.903727
0
LINE
8
0
10
566.633000
20
334.523000
11
566.458615
21
334.101485
0
LINE
8
0
10
566.806000
20
334.628000
11
566.631022
21
334.522167
0
LINE
8
0
10
566.798000
20
334.831000
11
566.806467
21
334.628082
0
LINE
8
0
10
567.051000
20
335.211000
11
566.797706
21
334.831606
0
LINE
8
0
10
567.241000
20
335.281000
11
567.051911
21
335.211009
0
LINE
8
0
10
567.272000
20
335.481000
11
567.240956
21
335.280622
0
LINE
8
0
10
567.595000
20
335.804000
11
567.272561
21
335.481310
0
LINE
8
0
10
567.794000
20
335.835000
11
567.593622
21
335.803673
0
LINE
8
0
10
567.865000
20
336.026000
11
567.794445
21
335.835218
0
LINE
8
0
10
568.244000
20
336.279000
11
567.864807
21
336.025415
0
LINE
8
0
10
568.446000
20
336.271000
11
568.245622
21
336.279184
0
LINE
8
0
10
568.553000
20
336.444000
11
568.445756
21
336.270716
0
LINE
8
0
10
568.974000
20
336.619000
11
568.552614
21
336.444265
0
LINE
8
0
10
569.171000
20
336.571000
11
568.973445
21
336.618696
0
LINE
8
0
10
569.310000
20
336.721000
11
569.171711
21
336.571705
0
LINE
8
0
10
569.756000
20
336.810000
11
569.308622
21
336.720826
0
LINE
8
0
10
569.942000
20
336.725000
11
569.755733
21
336.810231
0
LINE
8
0
10
570.105000
20
336.844000
11
569.941311
21
336.724338
0
LINE
8
0
10
570.561000
20
336.845000
11
570.104816
21
336.844819
0
LINE
8
0
10
570.723000
20
336.725000
11
570.559311
21
336.844662
0
LINE
8
0
10
570.910000
20
336.810000
11
570.723733
21
336.724487
0
LINE
8
0
10
571.356000
20
336.722000
11
570.908565
21
336.810818
0
LINE
8
0
10
571.494000
20
336.572000
11
571.355711
21
336.721295
0
LINE
8
0
10
571.691000
20
336.620000
11
571.493445
21
336.572022
0
LINE
8
0
10
572.113000
20
336.446000
11
571.691473
21
336.620402
0
LINE
8
0
10
572.219000
20
336.273000
11
572.111756
21
336.446284
0
LINE
8
0
10
572.422000
20
336.281000
11
572.218800
21
336.272533
0
LINE
8
0
10
572.801000
20
336.028000
11
572.421609
21
336.281286
0
LINE
8
0
10
572.871000
20
335.837000
11
572.800445
21
336.027782
0
LINE
8
0
10
573.072000
20
335.806000
11
572.871622
21
335.837044
0
LINE
8
0
10
573.394000
20
335.483000
11
573.071307
21
335.805436
0
LINE
8
0
10
573.424000
20
335.283000
11
573.392956
21
335.483378
0
LINE
8
0
10
573.616000
20
335.213000
11
573.424089
21
335.282991
0
LINE
8
0
10
573.869000
20
334.834000
11
573.615424
21
335.213193
0
LINE
8
0
10
573.870000
20
334.834000
11
573.864356
21
334.727885
0
LINE
8
0
10
566.233000
20
332.514000
11
566.354355
21
332.350029
0
LINE
8
0
10
569.501000
20
336.928000
11
569.309089
21
336.720285
0
LINE
8
0
10
569.755000
20
336.810000
11
569.501000
21
336.928533
0
LINE
8
0
10
566.357000
20
333.766000
11
566.148156
21
333.574653
0
LINE
8
0
10
566.149000
20
333.575000
11
566.267533
21
333.319025
0
LINE
8
0
10
566.391000
20
334.375000
11
566.458733
21
334.100680
0
LINE
8
0
10
566.631000
20
334.522000
11
566.391111
21
334.374962
0
LINE
8
0
10
566.149000
20
331.910000
11
566.357844
21
331.718653
0
LINE
8
0
10
566.267000
20
332.166000
11
566.148467
21
331.910025
0
LINE
8
0
10
567.594000
20
335.804000
11
567.317422
21
335.760256
0
LINE
8
0
10
567.317000
20
335.760000
11
567.271845
21
335.480882
0
LINE
8
0
10
566.786000
20
335.113000
11
566.797289
21
334.831060
0
LINE
8
0
10
567.052000
20
335.211000
11
566.786711
21
335.113633
0
LINE
8
0
10
571.164000
20
336.929000
11
570.910000
21
336.810185
0
LINE
8
0
10
571.356000
20
336.722000
11
571.164089
21
336.929715
0
LINE
8
0
10
566.233000
20
332.971000
11
566.066489
21
332.742965
0
LINE
8
0
10
566.067000
20
332.743000
11
566.233511
21
332.514965
0
LINE
8
0
10
572.112000
20
336.446000
11
571.965245
21
336.686735
0
LINE
8
0
10
571.965000
20
336.687000
11
571.691245
21
336.620678
0
LINE
8
0
10
570.331000
20
337.011000
11
570.105222
21
336.844489
0
LINE
8
0
10
570.560000
20
336.845000
11
570.331400
21
337.011229
0
LINE
8
0
10
567.867000
20
329.461000
11
567.965778
21
329.195994
0
LINE
8
0
10
567.966000
20
329.196000
11
568.248222
21
329.207853
0
LINE
8
0
10
568.974000
20
336.619000
11
568.700245
21
336.685322
0
LINE
8
0
10
568.700000
20
336.685000
11
568.553245
21
336.443982
0
LINE
8
0
10
566.798000
20
330.654000
11
566.786711
21
330.372060
0
LINE
8
0
10
566.786000
20
330.372000
11
567.051289
21
330.274916
0
LINE
8
0
10
573.393000
20
335.483000
11
573.350667
21
335.761835
0
LINE
8
0
10
573.351000
20
335.762000
11
573.071600
21
335.805744
0
LINE
8
0
10
568.703000
20
328.802000
11
568.976755
21
328.868604
0
LINE
8
0
10
568.556000
20
329.043000
11
568.702755
21
328.801982
0
LINE
8
0
10
567.317000
20
329.726000
11
567.596400
21
329.682256
0
LINE
8
0
10
567.275000
20
330.005000
11
567.317333
21
329.726165
0
LINE
8
0
10
568.246000
20
336.279000
11
567.963778
21
336.290571
0
LINE
8
0
10
567.963000
20
336.291000
11
567.864222
21
336.025994
0
LINE
8
0
10
572.702000
20
336.293000
11
572.422600
21
336.281429
0
LINE
8
0
10
572.801000
20
336.028000
11
572.702222
21
336.292724
0
LINE
8
0
10
570.108000
20
328.644000
11
570.336600
21
328.477771
0
LINE
8
0
10
570.337000
20
328.478000
11
570.562778
21
328.644229
0
LINE
8
0
10
572.425000
20
329.209000
11
572.704400
21
329.197429
0
LINE
8
0
10
572.705000
20
329.198000
11
572.803778
21
329.463006
0
LINE
8
0
10
571.694000
20
328.869000
11
571.967755
21
328.802678
0
LINE
8
0
10
571.968000
20
328.803000
11
572.114755
21
329.044018
0
LINE
8
0
10
573.870000
20
334.834000
11
573.881289
21
335.115940
0
LINE
8
0
10
573.882000
20
335.116000
11
573.616711
21
335.213084
0
LINE
8
0
10
574.601000
20
332.746000
11
574.434489
21
332.974035
0
LINE
8
0
10
574.435000
20
332.518000
11
574.601511
21
332.746318
0
LINE
8
0
10
573.074000
20
329.685000
11
573.350578
21
329.728744
0
LINE
8
0
10
573.351000
20
329.728000
11
573.396155
21
330.006835
0
LINE
8
0
10
569.312000
20
328.767000
11
569.503911
21
328.559285
0
LINE
8
0
10
569.504000
20
328.559000
11
569.758000
21
328.677815
0
LINE
8
0
10
574.037000
20
330.966000
11
574.276889
21
331.113038
0
LINE
8
0
10
574.277000
20
331.113000
11
574.209267
21
331.387320
0
LINE
8
0
10
573.619000
20
330.278000
11
573.881466
21
330.375367
0
LINE
8
0
10
573.882000
20
330.375000
11
573.870711
21
330.656940
0
LINE
8
0
10
574.519000
20
331.913000
11
574.400467
21
332.169258
0
LINE
8
0
10
574.310000
20
331.722000
11
574.518844
21
331.913347
0
LINE
8
0
10
574.519000
20
333.578000
11
574.310156
21
333.769347
0
LINE
8
0
10
574.401000
20
333.322000
11
574.519533
21
333.578258
0
LINE
8
0
10
571.169000
20
328.560000
11
571.358089
21
328.767715
0
LINE
8
0
10
570.913000
20
328.678000
11
571.169822
21
328.559467
0
LINE
8
0
10
566.394000
20
331.110000
11
566.806044
21
330.857411
0
LINE
8
0
10
566.507000
20
331.581000
11
566.394111
21
331.109407
0
LINE
8
0
10
567.228000
20
331.976000
11
567.595735
21
331.089222
0
LINE
8
0
10
566.806000
20
330.857000
11
566.803178
21
330.760198
0
LINE
8
0
10
566.436000
20
331.647000
11
566.506555
21
331.581242
0
LINE
8
0
10
573.862000
20
334.631000
11
574.276866
21
334.378411
0
LINE
8
0
10
574.161000
20
333.907000
11
574.276711
21
334.378593
0
LINE
8
0
10
573.441000
20
333.513000
11
573.073265
21
334.399778
0
LINE
8
0
10
573.865000
20
334.728000
11
573.862178
21
334.631198
0
LINE
8
0
10
574.231000
20
333.841000
11
574.160445
21
333.906758
0
LINE
8
0
10
572.933000
20
302.099000
11
573.548244
21
302.697875
0
LINE
8
0
10
573.647000
20
302.660000
11
573.548222
21
302.697536
0
LINE
8
0
10
573.895000
20
302.278000
11
573.646165
21
302.660320
0
LINE
8
0
10
573.884000
20
302.075000
11
573.895289
21
302.277635
0
LINE
8
0
10
574.056000
20
301.967000
11
573.883845
21
302.074809
0
LINE
8
0
10
574.226000
20
301.544000
11
574.056526
21
301.967519
0
LINE
8
0
10
574.175000
20
301.347000
11
574.225800
21
301.543709
0
LINE
8
0
10
574.325000
20
301.208000
11
574.175422
21
301.347135
0
LINE
8
0
10
574.407000
20
300.759000
11
574.323406
21
301.207448
0
LINE
8
0
10
574.319000
20
300.576000
11
574.406489
21
300.759162
0
LINE
8
0
10
574.437000
20
300.411000
11
574.318467
21
300.576382
0
LINE
8
0
10
574.431000
20
299.955000
11
574.436644
21
300.411141
0
LINE
8
0
10
574.310000
20
299.792000
11
574.431355
21
299.954560
0
LINE
8
0
10
574.392000
20
299.607000
11
574.310156
21
299.792138
0
LINE
8
0
10
574.299000
20
299.161000
11
574.393375
21
299.607300
0
LINE
8
0
10
574.147000
20
299.025000
11
574.299400
21
299.160749
0
LINE
8
0
10
574.192000
20
298.827000
11
574.146845
21
299.024838
0
LINE
8
0
10
574.013000
20
298.408000
11
574.192634
21
298.827314
0
LINE
8
0
10
573.839000
20
298.304000
11
574.013978
21
298.407575
0
LINE
8
0
10
573.845000
20
298.101000
11
573.839356
21
298.303918
0
LINE
8
0
10
573.587000
20
297.725000
11
573.844979
21
298.101210
0
LINE
8
0
10
573.396000
20
297.658000
11
573.587911
21
297.725733
0
LINE
8
0
10
573.362000
20
297.457000
11
573.395867
21
297.657095
0
LINE
8
0
10
573.035000
20
297.139000
11
573.361446
21
297.457651
0
LINE
8
0
10
572.834000
20
297.110000
11
573.034378
21
297.139069
0
LINE
8
0
10
572.761000
20
296.920000
11
572.834378
21
297.109653
0
LINE
8
0
10
572.380000
20
296.671000
11
572.762298
21
296.919846
0
LINE
8
0
10
572.177000
20
296.682000
11
572.380200
21
296.670993
0
LINE
8
0
10
572.070000
20
296.510000
11
572.177244
21
296.682155
0
LINE
8
0
10
571.646000
20
296.341000
11
572.069531
21
296.510477
0
LINE
8
0
10
571.449000
20
296.391000
11
571.646555
21
296.341047
0
LINE
8
0
10
571.310000
20
296.243000
11
571.448289
21
296.390602
0
LINE
8
0
10
570.861000
20
296.160000
11
571.309451
21
296.243597
0
LINE
8
0
10
570.678000
20
296.247000
11
570.861444
21
296.159511
0
LINE
8
0
10
570.512000
20
296.129000
11
570.678511
21
296.246687
0
LINE
8
0
10
570.057000
20
296.135000
11
570.513155
21
296.129497
0
LINE
8
0
10
569.894000
20
296.257000
11
570.057689
21
296.135362
0
LINE
8
0
10
569.710000
20
296.173000
11
569.893444
21
296.256256
0
LINE
8
0
10
569.263000
20
296.268000
11
569.709306
21
296.173619
0
LINE
8
0
10
569.126000
20
296.419000
11
569.261467
21
296.268011
0
LINE
8
0
10
568.929000
20
296.373000
11
569.126555
21
296.418438
0
LINE
8
0
10
568.510000
20
296.553000
11
568.929325
21
296.373363
0
LINE
8
0
10
568.406000
20
296.728000
11
568.510422
21
296.553305
0
LINE
8
0
10
568.203000
20
296.722000
11
568.406200
21
296.727927
0
LINE
8
0
10
567.827000
20
296.980000
11
568.203202
21
296.722010
0
LINE
8
0
10
567.791000
20
297.080000
11
567.827689
21
296.980093
0
LINE
8
0
10
568.406000
20
297.679000
11
567.790756
21
297.079843
0
LINE
8
0
10
568.406000
20
297.679000
11
569.429976
21
297.162588
0
LINE
8
0
10
569.429976
20
297.162588
11
570.536836
21
297.038930
0
LINE
8
0
10
570.536836
20
297.038930
11
571.619253
21
297.301229
0
LINE
8
0
10
571.619253
20
297.301229
11
572.569905
21
297.942689
0
LINE
8
0
10
572.569905
20
297.942689
11
573.234088
21
298.877606
0
LINE
8
0
10
573.234088
20
298.877606
11
573.522395
21
299.953389
0
LINE
8
0
10
573.522395
20
299.953389
11
573.425446
21
301.062906
0
LINE
8
0
10
573.425446
20
301.062906
11
572.933860
21
302.099030
0
LINE
8
0
10
572.262000
20
302.786000
11
572.877244
21
303.385157
0
LINE
8
0
10
572.263000
20
302.786000
11
571.239024
21
303.302412
0
LINE
8
0
10
571.239024
20
303.302412
11
570.132164
21
303.426070
0
LINE
8
0
10
570.132164
20
303.426070
11
569.049747
21
303.163771
0
LINE
8
0
10
569.049747
20
303.163771
11
568.099095
21
302.522311
0
LINE
8
0
10
568.099095
20
302.522311
11
567.434912
21
301.587394
0
LINE
8
0
10
567.434912
20
301.587394
11
567.146605
21
300.511611
0
LINE
8
0
10
567.146605
20
300.511611
11
567.243554
21
299.402094
0
LINE
8
0
10
567.243554
20
299.402094
11
567.735140
21
298.365970
0
LINE
8
0
10
567.735000
20
298.366000
11
567.122578
21
297.766843
0
LINE
8
0
10
567.021000
20
297.804000
11
567.122600
21
297.766182
0
LINE
8
0
10
566.773000
20
298.187000
11
567.021835
21
297.804680
0
LINE
8
0
10
566.784000
20
298.389000
11
566.772711
21
298.186365
0
LINE
8
0
10
566.611000
20
298.497000
11
566.783155
21
298.389191
0
LINE
8
0
10
566.443000
20
298.921000
11
566.612474
21
298.497478
0
LINE
8
0
10
566.493000
20
299.117000
11
566.442200
21
298.920291
0
LINE
8
0
10
566.346000
20
299.257000
11
566.492755
21
299.117582
0
LINE
8
0
10
566.261000
20
299.705000
11
566.344594
21
299.256552
0
LINE
8
0
10
566.349000
20
299.888000
11
566.261511
21
299.704838
0
LINE
8
0
10
566.230000
20
300.054000
11
566.348533
21
299.888618
0
LINE
8
0
10
566.237000
20
300.510000
11
566.231638
21
300.053862
0
LINE
8
0
10
566.357000
20
300.672000
11
566.235645
21
300.509440
0
LINE
8
0
10
566.276000
20
300.857000
11
566.357844
21
300.671862
0
LINE
8
0
10
566.370000
20
301.304000
11
566.275625
21
300.857697
0
LINE
8
0
10
566.521000
20
301.439000
11
566.368600
21
301.303533
0
LINE
8
0
10
566.476000
20
301.637000
11
566.521155
21
301.439162
0
LINE
8
0
10
566.655000
20
302.057000
11
566.475366
21
301.637686
0
LINE
8
0
10
566.829000
20
302.160000
11
566.654022
21
302.056425
0
LINE
8
0
10
566.823000
20
302.363000
11
566.828644
21
302.160082
0
LINE
8
0
10
567.082000
20
302.739000
11
566.823993
21
302.362787
0
LINE
8
0
10
567.272000
20
302.807000
11
567.082911
21
302.739267
0
LINE
8
0
10
567.306000
20
303.007000
11
567.272133
21
302.806905
0
LINE
8
0
10
567.633000
20
303.326000
11
567.306554
21
303.007346
0
LINE
8
0
10
567.833000
20
303.355000
11
567.632622
21
303.325931
0
LINE
8
0
10
567.907000
20
303.544000
11
567.833622
21
303.354347
0
LINE
8
0
10
568.289000
20
303.793000
11
567.906702
21
303.544154
0
LINE
8
0
10
568.491000
20
303.782000
11
568.287800
21
303.792724
0
LINE
8
0
10
568.598000
20
303.954000
11
568.490756
21
303.782127
0
LINE
8
0
10
569.023000
20
304.124000
11
568.599469
21
303.954520
0
LINE
8
0
10
569.219000
20
304.074000
11
569.021445
21
304.124235
0
LINE
8
0
10
569.357000
20
304.221000
11
569.218711
21
304.073398
0
LINE
8
0
10
569.807000
20
304.305000
11
569.358549
21
304.221403
0
LINE
8
0
10
569.990000
20
304.217000
11
569.806556
21
304.304489
0
LINE
8
0
10
570.156000
20
304.335000
11
569.989489
21
304.217596
0
LINE
8
0
10
570.612000
20
304.329000
11
570.155845
21
304.334503
0
LINE
8
0
10
570.774000
20
304.208000
11
570.610311
21
304.329638
0
LINE
8
0
10
570.961000
20
304.291000
11
570.774733
21
304.208027
0
LINE
8
0
10
571.406000
20
304.197000
11
570.959694
21
304.291381
0
LINE
8
0
10
571.542000
20
304.046000
11
571.406533
21
304.196989
0
LINE
8
0
10
571.739000
20
304.091000
11
571.541445
21
304.045562
0
LINE
8
0
10
572.158000
20
303.911000
11
571.738675
21
304.090637
0
LINE
8
0
10
572.262000
20
303.737000
11
572.157578
21
303.911413
0
LINE
8
0
10
572.465000
20
303.743000
11
572.261800
21
303.737073
0
LINE
8
0
10
572.841000
20
303.485000
11
572.464798
21
303.742988
0
LINE
8
0
10
572.840000
20
303.485000
11
572.876689
21
303.385093
0
LINE
8
0
10
568.006000
20
303.808000
11
567.907222
21
303.544405
0
LINE
8
0
10
568.288000
20
303.793000
11
568.005778
21
303.807958
0
LINE
8
0
10
566.262000
20
299.705000
11
566.140645
21
299.450154
0
LINE
8
0
10
566.140000
20
299.450000
11
566.346022
21
299.256396
0
LINE
8
0
10
566.067000
20
300.284000
11
566.230689
21
300.053989
0
LINE
8
0
10
566.236000
20
300.510000
11
566.066667
21
300.283940
0
LINE
8
0
10
566.654000
20
302.057000
11
566.411289
21
301.912785
0
LINE
8
0
10
566.411000
20
301.912000
11
566.475911
21
301.636834
0
LINE
8
0
10
566.160000
20
301.115000
11
566.275711
21
300.857331
0
LINE
8
0
10
566.369000
20
301.304000
11
566.160156
21
301.115193
0
LINE
8
0
10
569.552000
20
304.427000
11
569.357267
21
304.221542
0
LINE
8
0
10
569.806000
20
304.305000
11
569.552000
21
304.426638
0
LINE
8
0
10
566.758000
20
297.905000
11
567.020466
21
297.804529
0
LINE
8
0
10
566.772000
20
298.187000
11
566.757889
21
297.905060
0
LINE
8
0
10
568.748000
20
304.194000
11
568.598422
21
303.954676
0
LINE
8
0
10
569.022000
20
304.124000
11
568.748245
21
304.193709
0
LINE
8
0
10
567.354000
20
303.285000
11
567.306022
21
303.006729
0
LINE
8
0
10
567.633000
20
303.326000
11
567.353600
21
303.285642
0
LINE
8
0
10
566.442000
20
298.920000
11
566.371445
21
298.646527
0
LINE
8
0
10
566.372000
20
298.647000
11
566.611889
21
298.497140
0
LINE
8
0
10
570.611000
20
304.330000
11
570.385222
21
304.499051
0
LINE
8
0
10
570.385000
20
304.499000
11
570.156400
21
304.335311
0
LINE
8
0
10
572.157000
20
303.911000
11
572.013067
21
304.153711
0
LINE
8
0
10
572.013000
20
304.154000
11
571.739245
21
304.091065
0
LINE
8
0
10
571.217000
20
304.407000
11
570.960178
21
304.291289
0
LINE
8
0
10
571.406000
20
304.197000
11
571.216911
21
304.406973
0
LINE
8
0
10
567.083000
20
302.739000
11
566.814889
21
302.645020
0
LINE
8
0
10
566.815000
20
302.645000
11
566.823467
21
302.362778
0
LINE
8
0
10
567.828000
20
296.980000
11
567.921133
21
296.713865
0
LINE
8
0
10
567.921000
20
296.713000
11
568.203222
21
296.721184
0
LINE
8
0
10
569.262000
20
296.268000
11
569.451089
21
296.058027
0
LINE
8
0
10
569.451000
20
296.058000
11
569.710644
21
296.173429
0
LINE
8
0
10
568.655000
20
296.310000
11
568.928755
21
296.373218
0
LINE
8
0
10
568.511000
20
296.553000
11
568.654933
21
296.310289
0
LINE
8
0
10
572.840000
20
303.485000
11
572.746867
21
303.751135
0
LINE
8
0
10
572.747000
20
303.751000
11
572.464778
21
303.742816
0
LINE
8
0
10
570.283000
20
295.966000
11
570.511600
21
296.129407
0
LINE
8
0
10
570.057000
20
296.135000
11
570.282778
21
295.965949
0
LINE
8
0
10
574.296000
20
301.817000
11
574.056111
21
301.966860
0
LINE
8
0
10
574.226000
20
301.544000
11
574.296555
21
301.817755
0
LINE
8
0
10
573.588000
20
297.725000
11
573.853289
21
297.818980
0
LINE
8
0
10
573.853000
20
297.819000
11
573.844533
21
298.101222
0
LINE
8
0
10
571.646000
20
296.341000
11
571.919755
21
296.271291
0
LINE
8
0
10
571.920000
20
296.271000
11
572.069578
21
296.510042
0
LINE
8
0
10
574.014000
20
298.408000
11
574.256711
21
298.552215
0
LINE
8
0
10
574.257000
20
298.552000
11
574.192089
21
298.826884
0
LINE
8
0
10
570.862000
20
296.159000
11
571.116000
21
296.037362
0
LINE
8
0
10
571.116000
20
296.038000
11
571.310733
21
296.243175
0
LINE
8
0
10
573.035000
20
297.139000
11
573.314400
21
297.179358
0
LINE
8
0
10
573.314000
20
297.179000
11
573.361978
21
297.457271
0
LINE
8
0
10
574.432000
20
299.955000
11
574.601333
21
300.181060
0
LINE
8
0
10
574.601000
20
300.181000
11
574.437311
21
300.411011
0
LINE
8
0
10
574.299000
20
299.161000
11
574.507844
21
299.349807
0
LINE
8
0
10
574.508000
20
299.349000
11
574.392289
21
299.606669
0
LINE
8
0
10
573.910000
20
302.560000
11
573.647534
21
302.660471
0
LINE
8
0
10
573.896000
20
302.278000
11
573.910111
21
302.559940
0
LINE
8
0
10
574.528000
20
301.014000
11
574.324800
21
301.207887
0
LINE
8
0
10
574.406000
20
300.759000
11
574.527355
21
301.013564
0
LINE
8
0
10
572.662000
20
296.656000
11
572.760778
21
296.919878
0
LINE
8
0
10
572.380000
20
296.671000
11
572.662222
21
296.656042
0
LINE
8
0
10
567.280000
20
297.252000
11
567.759777
21
297.171285
0
LINE
8
0
10
567.213000
20
297.732000
11
567.280733
21
297.251658
0
LINE
8
0
10
567.735000
20
298.366000
11
568.405588
21
297.679046
0
LINE
8
0
10
567.760000
20
297.171000
11
567.791044
21
297.079560
0
LINE
8
0
10
567.122000
20
297.766000
11
567.212311
21
297.731569
0
LINE
8
0
10
572.908000
20
303.294000
11
573.387777
21
303.213002
0
LINE
8
0
10
573.455000
20
302.732000
11
573.387267
21
303.212060
0
LINE
8
0
10
572.933000
20
302.099000
11
572.262412
21
302.785954
0
LINE
8
0
10
572.877000
20
303.385000
11
572.908044
21
303.293560
0
LINE
8
0
10
573.548000
20
302.698000
11
573.454867
21
302.732713
0
LINE
8
0
10
572.829000
20
283.272000
11
573.407555
21
283.903613
0
LINE
8
0
10
573.509000
20
283.872000
11
573.407400
21
283.904173
0
LINE
8
0
10
573.778000
20
283.503000
11
573.508704
21
283.871207
0
LINE
8
0
10
573.780000
20
283.300000
11
573.777178
21
283.502918
0
LINE
8
0
10
573.955000
20
283.202000
11
573.780022
21
283.300213
0
LINE
8
0
10
574.149000
20
282.788000
11
573.956722
21
283.201667
0
LINE
8
0
10
574.110000
20
282.589000
11
574.149511
21
282.787967
0
LINE
8
0
10
574.265000
20
282.458000
11
574.109778
21
282.589233
0
LINE
8
0
10
574.372000
20
282.015000
11
574.264135
21
282.458232
0
LINE
8
0
10
574.294000
20
281.827000
11
574.373022
21
282.014678
0
LINE
8
0
10
574.421000
20
281.669000
11
574.294000
21
281.827891
0
LINE
8
0
10
574.440000
20
281.213000
11
574.420527
21
281.668760
0
LINE
8
0
10
574.327000
20
281.044000
11
574.439889
21
281.212769
0
LINE
8
0
10
574.421000
20
280.864000
11
574.327867
21
281.044340
0
LINE
8
0
10
574.351000
20
280.413000
11
574.420963
21
280.863776
0
LINE
8
0
10
574.209000
20
280.269000
11
574.350111
21
280.412933
0
LINE
8
0
10
574.263000
20
280.074000
11
574.209378
21
280.269015
0
LINE
8
0
10
574.107000
20
279.646000
11
574.263520
21
280.074472
0
LINE
8
0
10
573.938000
20
279.533000
11
574.107333
21
279.645889
0
LINE
8
0
10
573.955000
20
279.330000
11
573.938067
21
279.532353
0
LINE
8
0
10
573.718000
20
278.941000
11
573.955123
21
279.330701
0
LINE
8
0
10
573.532000
20
278.863000
11
573.718267
21
278.940893
0
LINE
8
0
10
573.509000
20
278.661000
11
573.531578
21
278.862507
0
LINE
8
0
10
573.200000
20
278.325000
11
573.508610
21
278.660949
0
LINE
8
0
10
573.001000
20
278.285000
11
573.198555
21
278.324793
0
LINE
8
0
10
572.939000
20
278.092000
11
573.001089
21
278.285322
0
LINE
8
0
10
572.571000
20
277.823000
11
572.939215
21
278.092291
0
LINE
8
0
10
572.369000
20
277.822000
11
572.569378
21
277.822282
0
LINE
8
0
10
572.270000
20
277.645000
11
572.368778
21
277.822518
0
LINE
8
0
10
571.856000
20
277.452000
11
572.269681
21
277.644283
0
LINE
8
0
10
571.658000
20
277.492000
11
571.855555
21
277.452489
0
LINE
8
0
10
571.525000
20
277.337000
11
571.657644
21
277.492222
0
LINE
8
0
10
571.082000
20
277.229000
11
571.525258
21
277.336885
0
LINE
8
0
10
570.896000
20
277.306000
11
571.082267
21
277.228671
0
LINE
8
0
10
570.735000
20
277.180000
11
570.895867
21
277.306435
0
LINE
8
0
10
570.280000
20
277.161000
11
570.735760
21
277.180332
0
LINE
8
0
10
570.111000
20
277.273000
11
570.280333
21
277.160393
0
LINE
8
0
10
569.930000
20
277.180000
11
570.110622
21
277.273133
0
LINE
8
0
10
569.480000
20
277.250000
11
569.930793
21
277.180054
0
LINE
8
0
10
569.338000
20
277.393000
11
569.479111
21
277.249631
0
LINE
8
0
10
569.140000
20
277.337000
11
569.337555
21
277.393162
0
LINE
8
0
10
568.713000
20
277.494000
11
569.141469
21
277.337457
0
LINE
8
0
10
568.601000
20
277.662000
11
568.713889
21
277.493513
0
LINE
8
0
10
568.398000
20
277.645000
11
568.601200
21
277.661933
0
LINE
8
0
10
568.008000
20
277.883000
11
568.397692
21
277.645874
0
LINE
8
0
10
567.966000
20
277.980000
11
568.008333
21
277.882069
0
LINE
8
0
10
568.548000
20
278.612000
11
567.966623
21
277.980387
0
LINE
8
0
10
568.547000
20
278.612000
11
569.597571
21
278.152100
0
LINE
8
0
10
569.597571
20
278.152100
11
570.709520
21
278.088882
0
LINE
8
0
10
570.709520
20
278.088882
11
571.776053
21
278.409719
0
LINE
8
0
10
571.776053
20
278.409719
11
572.690373
21
279.101981
0
LINE
8
0
10
572.690373
20
279.101981
11
573.302674
21
280.071669
0
LINE
8
0
10
573.302674
20
280.071669
11
573.531989
21
281.161551
0
LINE
8
0
10
573.531989
20
281.161551
11
573.374782
21
282.264145
0
LINE
8
0
10
573.374782
20
282.264145
11
572.827520
21
283.271970
0
LINE
8
0
10
572.120000
20
283.921000
11
572.701377
21
284.552613
0
LINE
8
0
10
572.121000
20
283.922000
11
571.070429
21
284.381900
0
LINE
8
0
10
571.070429
20
284.381900
11
569.958480
21
284.445118
0
LINE
8
0
10
569.958480
20
284.445118
11
568.891947
21
284.124281
0
LINE
8
0
10
568.891947
20
284.124281
11
567.977627
21
283.432019
0
LINE
8
0
10
567.977627
20
283.432019
11
567.365326
21
282.462331
0
LINE
8
0
10
567.365326
20
282.462331
11
567.136011
21
281.372449
0
LINE
8
0
10
567.136011
20
281.372449
11
567.293218
21
280.269855
0
LINE
8
0
10
567.293218
20
280.269855
11
567.840480
21
279.262030
0
LINE
8
0
10
567.839000
20
279.262000
11
567.260445
21
278.630387
0
LINE
8
0
10
567.159000
20
278.662000
11
567.260600
21
278.629827
0
LINE
8
0
10
566.890000
20
279.030000
11
567.159296
21
278.661793
0
LINE
8
0
10
566.713000
20
279.332000
11
566.890800
21
279.233787
0
LINE
8
0
10
566.520000
20
279.745000
11
566.712278
21
279.331333
0
LINE
8
0
10
566.558000
20
279.944000
11
566.521311
21
279.745033
0
LINE
8
0
10
566.405000
20
280.076000
11
566.557400
21
279.944767
0
LINE
8
0
10
566.296000
20
280.519000
11
566.403865
21
280.075768
0
LINE
8
0
10
566.374000
20
280.706000
11
566.294978
21
280.518322
0
LINE
8
0
10
566.247000
20
280.865000
11
566.374000
21
280.706391
0
LINE
8
0
10
566.228000
20
281.321000
11
566.247473
21
280.865237
0
LINE
8
0
10
566.341000
20
281.490000
11
566.228111
21
281.320949
0
LINE
8
0
10
566.247000
20
281.670000
11
566.340133
21
281.489660
0
LINE
8
0
10
566.317000
20
282.121000
11
566.247065
21
281.670221
0
LINE
8
0
10
566.462000
20
282.265000
11
566.318067
21
282.121349
0
LINE
8
0
10
566.405000
20
282.460000
11
566.461444
21
282.264702
0
LINE
8
0
10
566.561000
20
282.888000
11
566.404451
21
282.459528
0
LINE
8
0
10
566.730000
20
283.001000
11
566.560667
21
282.888111
0
LINE
8
0
10
566.713000
20
283.204000
11
566.729933
21
283.001647
0
LINE
8
0
10
566.950000
20
283.593000
11
566.712877
21
283.203302
0
LINE
8
0
10
567.136000
20
283.671000
11
566.949733
21
283.593107
0
LINE
8
0
10
567.159000
20
283.873000
11
567.136422
21
283.671493
0
LINE
8
0
10
567.469000
20
284.209000
11
567.160390
21
283.873051
0
LINE
8
0
10
567.667000
20
284.249000
11
567.469445
21
284.209207
0
LINE
8
0
10
567.729000
20
284.442000
11
567.666911
21
284.248678
0
LINE
8
0
10
568.098000
20
284.711000
11
567.729785
21
284.441709
0
LINE
8
0
10
568.302000
20
284.711000
11
568.098800
21
284.710718
0
LINE
8
0
10
568.398000
20
284.889000
11
568.302045
21
284.711482
0
LINE
8
0
10
568.813000
20
285.081000
11
568.399319
21
284.888719
0
LINE
8
0
10
569.010000
20
285.042000
11
568.812445
21
285.081511
0
LINE
8
0
10
569.143000
20
285.197000
11
569.010356
21
285.042060
0
LINE
8
0
10
569.586000
20
285.305000
11
569.142770
21
285.197115
0
LINE
8
0
10
569.772000
20
285.227000
11
569.585733
21
285.304611
0
LINE
8
0
10
569.933000
20
285.354000
11
569.772133
21
285.227565
0
LINE
8
0
10
570.388000
20
285.373000
11
569.932240
21
285.353668
0
LINE
8
0
10
570.557000
20
285.261000
11
570.387667
21
285.373607
0
LINE
8
0
10
570.738000
20
285.354000
11
570.557378
21
285.260867
0
LINE
8
0
10
571.188000
20
285.284000
11
570.737235
21
285.353943
0
LINE
8
0
10
571.333000
20
285.140000
11
571.189067
21
285.283369
0
LINE
8
0
10
571.528000
20
285.197000
11
571.333267
21
285.140838
0
LINE
8
0
10
571.955000
20
285.040000
11
571.526531
21
285.196543
0
LINE
8
0
10
572.070000
20
284.871000
11
571.957111
21
285.039487
0
LINE
8
0
10
572.270000
20
284.888000
11
572.069622
21
284.871067
0
LINE
8
0
10
572.660000
20
284.651000
11
572.270308
21
284.888126
0
LINE
8
0
10
572.659000
20
284.651000
11
572.701333
21
284.553069
0
LINE
8
0
10
566.891000
20
279.234000
11
566.891000
21
279.031000
0
LINE
8
0
10
566.891000
20
278.748000
11
567.159111
21
278.662204
0
LINE
8
0
10
566.891000
20
279.031000
11
566.891000
21
278.748000
0
LINE
8
0
10
566.295000
20
280.519000
11
566.187756
21
280.257945
0
LINE
8
0
10
566.188000
20
280.258000
11
566.405311
21
280.075967
0
LINE
8
0
10
567.817000
20
284.711000
11
567.729511
21
284.442042
0
LINE
8
0
10
568.099000
20
284.711000
11
567.816778
21
284.710718
0
LINE
8
0
10
566.072000
20
281.086000
11
566.246978
21
280.865020
0
LINE
8
0
10
566.228000
20
281.321000
11
566.072778
21
281.086191
0
LINE
8
0
10
566.118000
20
281.921000
11
566.247822
21
281.670105
0
LINE
8
0
10
566.318000
20
282.121000
11
566.117622
21
281.921187
0
LINE
8
0
10
566.561000
20
282.888000
11
566.326756
21
282.730802
0
LINE
8
0
10
566.326000
20
282.731000
11
566.405022
21
282.459785
0
LINE
8
0
10
566.521000
20
279.745000
11
566.464556
21
279.467858
0
LINE
8
0
10
566.465000
20
279.468000
11
566.713355
21
279.331405
0
LINE
8
0
10
568.008000
20
277.883000
11
568.115244
21
277.622509
0
LINE
8
0
10
568.116000
20
277.622000
11
568.398222
21
277.645424
0
LINE
8
0
10
569.479000
20
277.250000
11
569.679378
21
277.050751
0
LINE
8
0
10
569.679000
20
277.051000
11
569.930178
21
277.180258
0
LINE
8
0
10
569.326000
20
285.412000
11
569.142556
21
285.196382
0
LINE
8
0
10
569.586000
20
285.305000
11
569.326356
21
285.412527
0
LINE
8
0
10
567.469000
20
284.209000
11
567.192422
21
284.153402
0
LINE
8
0
10
567.193000
20
284.153000
11
567.159133
21
283.872471
0
LINE
8
0
10
568.536000
20
285.136000
11
568.397711
21
284.889056
0
LINE
8
0
10
568.813000
20
285.081000
11
568.536422
21
285.135469
0
LINE
8
0
10
570.515000
20
277.004000
11
570.735133
21
277.179824
0
LINE
8
0
10
570.280000
20
277.161000
11
570.514244
21
277.004367
0
LINE
8
0
10
570.388000
20
285.373000
11
570.153756
21
285.529351
0
LINE
8
0
10
570.153000
20
285.530000
11
569.932867
21
285.354176
0
LINE
8
0
10
568.714000
20
277.494000
11
568.869222
21
277.259474
0
LINE
8
0
10
568.869000
20
277.259000
11
569.139933
21
277.336893
0
LINE
8
0
10
573.718000
20
278.941000
11
573.980466
21
279.049373
0
LINE
8
0
10
573.980000
20
279.049000
11
573.954600
21
279.330375
0
LINE
8
0
10
571.855000
20
277.452000
11
572.131578
21
277.397249
0
LINE
8
0
10
572.132000
20
277.398000
11
572.270289
21
277.645226
0
LINE
8
0
10
573.199000
20
278.325000
11
573.475578
21
278.380598
0
LINE
8
0
10
573.475000
20
278.381000
11
573.508867
21
278.661529
0
LINE
8
0
10
571.957000
20
285.040000
11
571.798956
21
285.274526
0
LINE
8
0
10
571.799000
20
285.274000
11
571.528067
21
285.196107
0
LINE
8
0
10
566.950000
20
283.593000
11
566.690356
21
283.484627
0
LINE
8
0
10
566.690000
20
283.485000
11
566.712578
21
283.203625
0
LINE
8
0
10
570.989000
20
285.483000
11
570.737822
21
285.353742
0
LINE
8
0
10
571.189000
20
285.284000
11
570.988622
21
285.483249
0
LINE
8
0
10
574.107000
20
279.646000
11
574.341244
21
279.803198
0
LINE
8
0
10
574.342000
20
279.803000
11
574.262978
21
280.074215
0
LINE
8
0
10
571.082000
20
277.229000
11
571.344466
21
277.121473
0
LINE
8
0
10
571.344000
20
277.121000
11
571.524622
21
277.336335
0
LINE
8
0
10
574.203000
20
283.065000
11
573.954645
21
283.201878
0
LINE
8
0
10
574.150000
20
282.788000
11
574.203622
21
283.064860
0
LINE
8
0
10
572.659000
20
284.651000
11
572.551756
21
284.911773
0
LINE
8
0
10
572.552000
20
284.912000
11
572.269778
21
284.888576
0
LINE
8
0
10
574.350000
20
280.413000
11
574.550378
21
280.612813
0
LINE
8
0
10
574.550000
20
280.613000
11
574.420178
21
280.863895
0
LINE
8
0
10
574.440000
20
281.213000
11
574.598044
21
281.448091
0
LINE
8
0
10
574.598000
20
281.448000
11
574.420200
21
281.668698
0
LINE
8
0
10
574.480000
20
282.276000
11
574.265511
21
282.458315
0
LINE
8
0
10
574.373000
20
282.015000
11
574.480244
21
282.275773
0
LINE
8
0
10
573.777000
20
283.785000
11
573.508889
21
283.871078
0
LINE
8
0
10
573.777000
20
283.503000
11
573.777000
21
283.785000
0
LINE
8
0
10
572.854000
20
277.823000
11
572.938667
21
278.091958
0
LINE
8
0
10
572.569000
20
277.823000
11
572.854044
21
277.823282
0
LINE
8
0
10
567.447000
20
278.125000
11
567.929600
21
278.070249
0
LINE
8
0
10
567.354000
20
278.600000
11
567.447133
21
278.124174
0
LINE
8
0
10
567.840000
20
279.262000
11
568.546994
21
278.612570
0
LINE
8
0
10
567.929000
20
278.070000
11
567.965689
21
277.980536
0
LINE
8
0
10
567.261000
20
278.630000
11
567.354133
21
278.600367
0
LINE
8
0
10
572.739000
20
284.464000
11
573.221600
21
284.409531
0
LINE
8
0
10
573.317000
20
283.933000
11
573.221045
21
284.408826
0
LINE
8
0
10
572.828000
20
283.272000
11
572.121006
21
283.921430
0
LINE
8
0
10
572.702000
20
284.553000
11
572.738689
21
284.463536
0
LINE
8
0
10
573.407000
20
283.904000
11
573.316689
21
283.933633
0
LINE
8
0
10
571.827000
20
252.819000
11
571.628222
21
253.567302
0
LINE
8
0
10
571.628222
20
253.567302
11
571.081450
21
254.115490
0
LINE
8
0
10
571.081450
20
254.115490
11
570.333665
21
254.316204
0
LINE
8
0
10
570.333665
20
254.316204
11
569.585880
21
254.115490
0
LINE
8
0
10
569.585880
20
254.115490
11
569.039108
21
253.567302
0
LINE
8
0
10
569.039108
20
253.567302
11
568.840330
21
252.819000
0
LINE
8
0
10
568.840330
20
252.819000
11
569.039108
21
252.070698
0
LINE
8
0
10
569.039108
20
252.070698
11
569.585880
21
251.522510
0
LINE
8
0
10
569.585880
20
251.522510
11
570.333665
21
251.321796
0
LINE
8
0
10
570.333665
20
251.321796
11
571.081450
21
251.522510
0
LINE
8
0
10
571.081450
20
251.522510
11
571.628222
21
252.070698
0
LINE
8
0
10
571.628222
20
252.070698
11
571.827000
21
252.819000
0
LINE
8
0
10
571.827000
20
252.819000
11
571.827000
21
252.819000
0
LINE
8
0
10
571.827000
20
309.715000
11
571.628222
21
310.463302
0
LINE
8
0
10
571.628222
20
310.463302
11
571.081450
21
311.011490
0
LINE
8
0
10
571.081450
20
311.011490
11
570.333665
21
311.212204
0
LINE
8
0
10
570.333665
20
311.212204
11
569.585880
21
311.011490
0
LINE
8
0
10
569.585880
20
311.011490
11
569.039108
21
310.463302
0
LINE
8
0
10
569.039108
20
310.463302
11
568.840330
21
309.715000
0
LINE
8
0
10
568.840330
20
309.715000
11
569.039108
21
308.966698
0
LINE
8
0
10
569.039108
20
308.966698
11
569.585880
21
308.418510
0
LINE
8
0
10
569.585880
20
308.418510
11
570.333665
21
308.217796
0
LINE
8
0
10
570.333665
20
308.217796
11
571.081450
21
308.418510
0
LINE
8
0
10
571.081450
20
308.418510
11
571.628222
21
308.966698
0
LINE
8
0
10
571.628222
20
308.966698
11
571.827000
21
309.715000
0
LINE
8
0
10
571.827000
20
309.715000
11
571.827000
21
309.715000
0
LINE
8
0
10
571.827000
20
271.784000
11
571.628222
21
272.532302
0
LINE
8
0
10
571.628222
20
272.532302
11
571.081450
21
273.080490
0
LINE
8
0
10
571.081450
20
273.080490
11
570.333665
21
273.281204
0
LINE
8
0
10
570.333665
20
273.281204
11
569.585880
21
273.080490
0
LINE
8
0
10
569.585880
20
273.080490
11
569.039108
21
272.532302
0
LINE
8
0
10
569.039108
20
272.532302
11
568.840330
21
271.784000
0
LINE
8
0
10
568.840330
20
271.784000
11
569.039108
21
271.035698
0
LINE
8
0
10
569.039108
20
271.035698
11
569.585880
21
270.487510
0
LINE
8
0
10
569.585880
20
270.487510
11
570.333665
21
270.286796
0
LINE
8
0
10
570.333665
20
270.286796
11
571.081450
21
270.487510
0
LINE
8
0
10
571.081450
20
270.487510
11
571.628222
21
271.035698
0
LINE
8
0
10
571.628222
20
271.035698
11
571.827000
21
271.784000
0
LINE
8
0
10
571.827000
20
271.784000
11
571.827000
21
271.784000
0
LINE
8
0
10
571.827000
20
290.750000
11
571.628222
21
291.498302
0
LINE
8
0
10
571.628222
20
291.498302
11
571.081450
21
292.046490
0
LINE
8
0
10
571.081450
20
292.046490
11
570.333665
21
292.247204
0
LINE
8
0
10
570.333665
20
292.247204
11
569.585880
21
292.046490
0
LINE
8
0
10
569.585880
20
292.046490
11
569.039108
21
291.498302
0
LINE
8
0
10
569.039108
20
291.498302
11
568.840330
21
290.750000
0
LINE
8
0
10
568.840330
20
290.750000
11
569.039108
21
290.001698
0
LINE
8
0
10
569.039108
20
290.001698
11
569.585880
21
289.453510
0
LINE
8
0
10
569.585880
20
289.453510
11
570.333665
21
289.252796
0
LINE
8
0
10
570.333665
20
289.252796
11
571.081450
21
289.453510
0
LINE
8
0
10
571.081450
20
289.453510
11
571.628222
21
290.001698
0
LINE
8
0
10
571.628222
20
290.001698
11
571.827000
21
290.750000
0
LINE
8
0
10
571.827000
20
290.750000
11
571.827000
21
290.750000
0
LINE
8
0
10
571.827000
20
342.227000
11
571.628222
21
342.975302
0
LINE
8
0
10
571.628222
20
342.975302
11
571.081450
21
343.523490
0
LINE
8
0
10
571.081450
20
343.523490
11
570.333665
21
343.724204
0
LINE
8
0
10
570.333665
20
343.724204
11
569.585880
21
343.523490
0
LINE
8
0
10
569.585880
20
343.523490
11
569.039108
21
342.975302
0
LINE
8
0
10
569.039108
20
342.975302
11
568.840330
21
342.227000
0
LINE
8
0
10
568.840330
20
342.227000
11
569.039108
21
341.478698
0
LINE
8
0
10
569.039108
20
341.478698
11
569.585880
21
340.930510
0
LINE
8
0
10
569.585880
20
340.930510
11
570.333665
21
340.729796
0
LINE
8
0
10
570.333665
20
340.729796
11
571.081450
21
340.930510
0
LINE
8
0
10
571.081450
20
340.930510
11
571.628222
21
341.478698
0
LINE
8
0
10
571.628222
20
341.478698
11
571.827000
21
342.227000
0
LINE
8
0
10
571.827000
20
342.227000
11
571.827000
21
342.227000
 0 
ENDSEC
 0 
EOF