999
"DXF R12 Output" (www.mydxf.blogspot.com)
 0 
SECTION
 2 
HEADER
 9 
$ACADVER
 1 
AC1009
 9 
$EXTMIN
 10 
 0 
 20 
 0 
 9 
$EXTMAX
 10 
 8.5 
 20 
 11 
 0 
ENDSEC
 0 
SECTION
 2 
ENTITIES
0
LINE
8
Layer 1
10
0.846666
20
137.914000
11
-0.846666
21
136.220000
0
LINE
8
Layer 1
10
0.000000
20
138.478000
11
0.000000
21
135.656000
0
LINE
8
Layer 1
10
2.257780
20
135.938000
11
1.128890
21
134.809110
0
LINE
8
Layer 1
10
1.693330
20
136.503000
11
0.564440
21
135.374110
0
LINE
8
Layer 1
10
1.128890
20
137.067000
11
0.000000
21
135.938110
0
LINE
8
0
10
526.265000
20
296.931000
11
526.284755
21
296.944293
0
LINE
8
0
10
526.284755
20
296.944293
11
526.301689
21
296.962186
0
LINE
8
0
10
526.301689
20
296.962186
11
526.313542
21
296.978696
0
LINE
8
0
10
526.313542
20
296.978696
11
526.320033
21
296.987868
0
LINE
8
0
10
526.319000
20
296.988000
11
526.352867
21
297.046420
0
LINE
8
0
10
526.354000
20
297.046000
11
526.388883
21
297.116643
0
LINE
8
0
10
526.388883
20
297.116643
11
526.412307
21
297.186826
0
LINE
8
0
10
526.412307
20
297.186826
11
526.423878
21
297.257009
0
LINE
8
0
10
526.423878
20
297.257009
11
526.423878
21
297.326275
0
LINE
8
0
10
526.423000
20
297.326000
11
526.414816
21
297.406732
0
LINE
8
0
10
526.414816
20
297.406732
11
526.401551
21
297.484716
0
LINE
8
0
10
526.401551
20
297.484716
11
526.382642
21
297.559945
0
LINE
8
0
10
526.382642
20
297.559945
11
526.358371
21
297.631962
0
LINE
8
0
10
526.358371
20
297.631962
11
526.327637
21
297.697559
0
LINE
8
0
10
526.327637
20
297.697559
11
526.290017
21
297.753981
0
LINE
8
0
10
526.290017
20
297.753981
11
526.245059
21
297.800311
0
LINE
8
0
10
526.245059
20
297.800311
11
526.192791
21
297.837468
0
LINE
8
0
10
526.192000
20
297.838000
11
526.166600
21
297.852676
0
LINE
8
0
10
526.167000
20
297.853000
11
526.151478
21
297.860789
0
LINE
8
0
10
526.151478
20
297.860789
11
526.138778
21
297.863612
0
LINE
8
0
10
526.138778
20
297.863612
11
526.129182
21
297.862200
0
LINE
8
0
10
526.129182
20
297.862200
11
526.122691
21
297.855766
0
LINE
8
0
10
526.123000
20
297.855000
11
526.118767
21
297.852178
0
LINE
8
0
10
526.118767
20
297.852178
11
526.115944
21
297.847126
0
LINE
8
0
10
526.115944
20
297.847126
11
526.113122
21
297.841623
0
LINE
8
0
10
526.113122
20
297.841623
11
526.110300
21
297.837502
0
LINE
8
0
10
526.113000
20
297.838000
11
526.098889
21
297.777907
0
LINE
8
0
10
526.098889
20
297.777907
11
526.090140
21
297.722402
0
LINE
8
0
10
526.090140
20
297.722402
11
526.085907
21
297.671486
0
LINE
8
0
10
526.085907
20
297.671486
11
526.085907
21
297.624697
0
LINE
8
0
10
526.085907
20
297.624697
11
526.091269
21
297.576533
0
LINE
8
0
10
526.091269
20
297.576533
11
526.100018
21
297.521485
0
LINE
8
0
10
526.100018
20
297.521485
11
526.112436
21
297.460017
0
LINE
8
0
10
526.112436
20
297.460017
11
526.128522
21
297.391669
0
LINE
8
0
10
526.130000
20
297.392000
11
526.142700
21
297.342459
0
LINE
8
0
10
526.142700
20
297.342459
11
526.153142
21
297.298424
0
LINE
8
0
10
526.153142
20
297.298424
11
526.161327
21
297.259892
0
LINE
8
0
10
526.161327
20
297.259892
11
526.167818
21
297.227324
0
LINE
8
0
10
526.168000
20
297.227000
11
526.182111
21
297.154062
0
LINE
8
0
10
526.182111
20
297.154062
11
526.193682
21
297.084340
0
LINE
8
0
10
526.193682
20
297.084340
11
526.201584
21
297.018743
0
LINE
8
0
10
526.201584
20
297.018743
11
526.206664
21
296.956815
0
LINE
8
0
10
526.206000
20
296.957000
11
526.206000
21
296.944611
0
LINE
8
0
10
526.206000
20
296.944611
11
526.218418
21
296.934055
0
LINE
8
0
10
526.220000
20
296.934000
11
526.230160
21
296.929880
0
LINE
8
0
10
526.230160
20
296.929880
11
526.243424
21
296.928186
0
LINE
8
0
10
526.243424
20
296.928186
11
526.255842
21
296.928751
0
LINE
8
0
10
526.255842
20
296.928751
11
526.264591
21
296.931573
0
LINE
8
0
10
524.056000
20
296.038000
11
524.017449
21
296.061848
0
LINE
8
0
10
524.017449
20
296.061848
11
523.982594
21
296.087530
0
LINE
8
0
10
523.982594
20
296.087530
11
523.950477
21
296.115047
0
LINE
8
0
10
523.950477
20
296.115047
11
523.922029
21
296.143946
0
LINE
8
0
10
523.922029
20
296.143946
11
523.896911
21
296.174220
0
LINE
8
0
10
523.896911
20
296.174220
11
523.874898
21
296.206789
0
LINE
8
0
10
523.874898
20
296.206789
11
523.856554
21
296.240734
0
LINE
8
0
10
523.856554
20
296.240734
11
523.841031
21
296.276054
0
LINE
8
0
10
523.841031
20
296.276054
11
523.829178
21
296.312294
0
LINE
8
0
10
523.829178
20
296.312294
11
523.821840
21
296.348532
0
LINE
8
0
10
523.821840
20
296.348532
11
523.819018
21
296.385229
0
LINE
8
0
10
523.819018
20
296.385229
11
523.819018
21
296.421469
0
LINE
8
0
10
523.819018
20
296.421469
11
523.824380
21
296.457706
0
LINE
8
0
10
523.824380
20
296.457706
11
523.834540
21
296.493944
0
LINE
8
0
10
523.834540
20
296.493944
11
523.849216
21
296.530184
0
LINE
8
0
10
523.849216
20
296.530184
11
523.868125
21
296.566421
0
LINE
8
0
10
524.993000
20
296.769000
11
525.033358
21
296.743769
0
LINE
8
0
10
525.033358
20
296.743769
11
525.069595
21
296.717156
0
LINE
8
0
10
525.069595
20
296.717156
11
525.102615
21
296.688716
0
LINE
8
0
10
525.102615
20
296.688716
11
525.131994
21
296.658440
0
LINE
8
0
10
525.131994
20
296.658440
11
525.157676
21
296.626788
0
LINE
8
0
10
525.157676
20
296.626788
11
525.179125
21
296.593760
0
LINE
8
0
10
525.179125
20
296.593760
11
525.197470
21
296.558900
0
LINE
8
0
10
525.197470
20
296.558900
11
525.212145
21
296.522203
0
LINE
8
0
10
525.212000
20
296.522000
11
526.366290
21
298.520700
0
LINE
8
0
10
526.367000
20
298.521000
11
526.409333
21
298.496165
0
LINE
8
0
10
526.409000
20
298.496000
11
526.424522
21
298.484062
0
LINE
8
0
10
526.424522
20
298.484062
11
526.436940
21
298.468455
0
LINE
8
0
10
526.436940
20
298.468455
11
526.443713
21
298.449659
0
LINE
8
0
10
526.443713
20
298.449659
11
526.443713
21
298.429932
0
LINE
8
0
10
526.443000
20
298.430000
11
526.443000
21
298.427000
0
LINE
8
0
10
526.443000
20
298.427000
11
526.448644
21
298.423896
0
LINE
8
0
10
526.448000
20
298.424000
11
526.436711
21
298.406784
0
LINE
8
0
10
526.438000
20
298.407000
11
526.415140
21
298.336814
0
LINE
8
0
10
526.415140
20
298.336814
11
526.400464
21
298.272137
0
LINE
8
0
10
526.400464
20
298.272137
11
526.393691
21
298.213421
0
LINE
8
0
10
526.393691
20
298.213421
11
526.393691
21
298.159751
0
LINE
8
0
10
526.393691
20
298.159751
11
526.401029
21
298.106081
0
LINE
8
0
10
526.401029
20
298.106081
11
526.412600
21
298.047824
0
LINE
8
0
10
526.412600
20
298.047824
11
526.429533
21
297.984065
0
LINE
8
0
10
526.429533
20
297.984065
11
526.450700
21
297.915713
0
LINE
8
0
10
526.451000
20
297.915000
11
526.470191
21
297.854909
0
LINE
8
0
10
526.470191
20
297.854909
11
526.484302
21
297.807203
0
LINE
8
0
10
526.484302
20
297.807203
11
526.494462
21
297.771882
0
LINE
8
0
10
526.494462
20
297.771882
11
526.500107
21
297.748486
0
LINE
8
0
10
526.500000
20
297.749000
11
526.514675
21
297.684778
0
LINE
8
0
10
526.514675
20
297.684778
11
526.527940
21
297.625147
0
LINE
8
0
10
526.527940
20
297.625147
11
526.539511
21
297.570560
0
LINE
8
0
10
526.539511
20
297.570560
11
526.549107
21
297.520558
0
LINE
8
0
10
526.549107
20
297.520558
11
526.557009
21
297.475146
0
LINE
8
0
10
526.557009
20
297.475146
11
526.562935
21
297.434780
0
LINE
8
0
10
526.562935
20
297.434780
11
526.567451
21
297.399457
0
LINE
8
0
10
526.567451
20
297.399457
11
526.570273
21
297.368723
0
LINE
8
0
10
526.570273
20
297.368723
11
526.570273
21
297.310467
0
LINE
8
0
10
526.570273
20
297.310467
11
526.562089
21
297.248541
0
LINE
8
0
10
526.562089
20
297.248541
11
526.546567
21
297.182944
0
LINE
8
0
10
526.546567
20
297.182944
11
526.523142
21
297.114136
0
LINE
8
0
10
526.522000
20
297.114000
11
526.514098
21
297.094724
0
LINE
8
0
10
526.514098
20
297.094724
11
526.502527
21
297.071328
0
LINE
8
0
10
526.502527
20
297.071328
11
526.488416
21
297.044263
0
LINE
8
0
10
526.488416
20
297.044263
11
526.470918
21
297.013069
0
LINE
8
0
10
526.471000
20
297.013000
11
526.438432
21
296.960707
0
LINE
8
0
10
526.438432
20
296.960707
11
526.402646
21
296.909789
0
LINE
8
0
10
526.402646
20
296.909789
11
526.363643
21
296.860707
0
LINE
8
0
10
526.363643
20
296.860707
11
526.321451
21
296.813461
0
LINE
8
0
10
526.321451
20
296.813461
11
526.281093
21
296.771717
0
LINE
8
0
10
526.281093
20
296.771717
11
526.248045
21
296.740523
0
LINE
8
0
10
526.248045
20
296.740523
11
526.222927
21
296.719893
0
LINE
8
0
10
526.222927
20
296.719893
11
526.204583
21
296.709789
0
LINE
8
0
10
526.206000
20
296.710000
11
526.180600
21
296.666820
0
LINE
8
0
10
526.180000
20
296.667000
11
526.170687
21
296.569752
0
LINE
8
0
10
526.170687
20
296.569752
11
526.150084
21
296.476633
0
LINE
8
0
10
526.150084
20
296.476633
11
526.118419
21
296.386725
0
LINE
8
0
10
526.118419
20
296.386725
11
526.075324
21
296.300944
0
LINE
8
0
10
526.076000
20
296.301000
11
526.042133
21
296.244273
0
LINE
8
0
10
526.043000
20
296.244000
11
525.986132
21
296.149044
0
LINE
8
0
10
525.986132
20
296.149044
11
525.927882
21
296.057762
0
LINE
8
0
10
525.927882
20
296.057762
11
525.901353
21
296.018310
0
LINE
8
0
10
525.901353
20
296.018310
11
525.880751
21
295.988496
0
LINE
8
0
10
525.880751
20
295.988496
11
525.865511
21
295.969700
0
LINE
8
0
10
525.865511
20
295.969700
11
525.856762
21
295.960528
0
LINE
8
0
10
525.856000
20
295.960000
11
525.832293
21
295.946707
0
LINE
8
0
10
525.832293
20
295.946707
11
525.811127
21
295.939821
0
LINE
8
0
10
525.811127
20
295.939821
11
525.791936
21
295.939257
0
LINE
8
0
10
525.791936
20
295.939257
11
525.775285
21
295.945212
0
LINE
8
0
10
525.776000
20
295.946000
11
525.769227
21
295.952886
0
LINE
8
0
10
525.769227
20
295.952886
11
525.754551
21
295.969396
0
LINE
8
0
10
525.754000
20
295.969000
11
525.744687
21
295.983224
0
LINE
8
0
10
525.744687
20
295.983224
11
525.741582
21
296.002951
0
LINE
8
0
10
525.741582
20
296.002951
11
525.745251
21
296.025896
0
LINE
8
0
10
525.745251
20
296.025896
11
525.756258
21
296.050675
0
LINE
8
0
10
525.757000
20
296.051000
11
525.768289
21
296.071038
0
LINE
8
0
10
525.768000
20
296.071000
11
525.815244
21
296.126965
0
LINE
8
0
10
525.815244
20
296.126965
11
525.858367
21
296.183386
0
LINE
8
0
10
525.858367
20
296.183386
11
525.898274
21
296.240725
0
LINE
8
0
10
525.898274
20
296.240725
11
525.934059
21
296.298982
0
LINE
8
0
10
525.934000
20
296.299000
11
525.989513
21
296.408175
0
LINE
8
0
10
525.989513
20
296.408175
11
526.031254
21
296.519184
0
LINE
8
0
10
526.031254
20
296.519184
11
526.059194
21
296.631110
0
LINE
8
0
10
526.059194
20
296.631110
11
526.073023
21
296.744411
0
LINE
8
0
10
526.073000
20
296.744000
11
526.077233
21
296.809597
0
LINE
8
0
10
526.077233
20
296.809597
11
526.077233
21
296.871065
0
LINE
8
0
10
526.077233
20
296.871065
11
526.077233
21
296.928864
0
LINE
8
0
10
526.077233
20
296.928864
11
526.073000
21
296.982534
0
LINE
8
0
10
526.073000
20
296.982534
11
526.066227
21
297.032075
0
LINE
8
0
10
526.066227
20
297.032075
11
526.056631
21
297.077945
0
LINE
8
0
10
526.056631
20
297.077945
11
526.044778
21
297.120148
0
LINE
8
0
10
526.044778
20
297.120148
11
526.029538
21
297.158220
0
LINE
8
0
10
526.029538
20
297.158220
11
525.993752
21
297.226571
0
LINE
8
0
10
525.993752
20
297.226571
11
525.951560
21
297.287119
0
LINE
8
0
10
525.951560
20
297.287119
11
525.902933
21
297.339872
0
LINE
8
0
10
525.902933
20
297.339872
11
525.847900
21
297.384827
0
LINE
8
0
10
525.847000
20
297.385000
11
525.183778
21
296.236640
0
LINE
8
0
10
525.185000
20
296.237000
11
525.161293
21
296.199843
0
LINE
8
0
10
525.161293
20
296.199843
11
525.133636
21
296.164523
0
LINE
8
0
10
525.133636
20
296.164523
11
525.102450
21
296.131954
0
LINE
8
0
10
525.102450
20
296.131954
11
525.067596
21
296.101220
0
LINE
8
0
10
525.067596
20
296.101220
11
525.029524
21
296.073252
0
LINE
8
0
10
525.029524
20
296.073252
11
524.987332
21
296.047090
0
LINE
8
0
10
524.987332
20
296.047090
11
524.941894
21
296.023242
0
LINE
8
0
10
524.941894
20
296.023242
11
524.892816
21
296.001680
0
LINE
8
0
10
524.892816
20
296.001680
11
524.789156
21
295.966360
0
LINE
8
0
10
524.789156
20
295.966360
11
524.681827
21
295.942513
0
LINE
8
0
10
524.681827
20
295.942513
11
524.571252
21
295.930575
0
LINE
8
0
10
524.571252
20
295.930575
11
524.457037
21
295.930010
0
LINE
8
0
10
524.457037
20
295.930010
11
524.400169
21
295.934130
0
LINE
8
0
10
524.400169
20
295.934130
11
524.345107
21
295.940565
0
LINE
8
0
10
524.345107
20
295.940565
11
524.291909
21
295.950189
0
LINE
8
0
10
524.291909
20
295.950189
11
524.240544
21
295.962127
0
LINE
8
0
10
524.240544
20
295.962127
11
524.191438
21
295.977254
0
LINE
8
0
10
524.191438
20
295.977254
11
524.144673
21
295.994695
0
LINE
8
0
10
524.144673
20
295.994695
11
524.099236
21
296.014874
0
LINE
8
0
10
524.099236
20
296.014874
11
524.056140
21
296.037819
0
LINE
8
0
10
523.869000
20
296.566000
11
523.894118
21
296.605909
0
LINE
8
0
10
523.894118
20
296.605909
11
523.922058
21
296.643524
0
LINE
8
0
10
523.922058
20
296.643524
11
523.952792
21
296.678844
0
LINE
8
0
10
523.952792
20
296.678844
11
523.986715
21
296.711872
0
LINE
8
0
10
523.986715
20
296.711872
11
524.023432
21
296.742146
0
LINE
8
0
10
524.023432
20
296.742146
11
524.062887
21
296.770588
0
LINE
8
0
10
524.062887
20
296.770588
11
524.105079
21
296.796270
0
LINE
8
0
10
524.105079
20
296.796270
11
524.150488
21
296.819667
0
LINE
8
0
10
524.150488
20
296.819667
11
524.197732
21
296.840297
0
LINE
8
0
10
524.197732
20
296.840297
11
524.246359
21
296.857738
0
LINE
8
0
10
524.246359
20
296.857738
11
524.295889
21
296.872414
0
LINE
8
0
10
524.295889
20
296.872414
11
524.346830
21
296.883421
0
LINE
8
0
10
524.346830
20
296.883421
11
524.399126
21
296.891661
0
LINE
8
0
10
524.399126
20
296.891661
11
524.452776
21
296.896713
0
LINE
8
0
10
524.452776
20
296.896713
11
524.507358
21
296.898971
0
LINE
8
0
10
524.507358
20
296.898971
11
524.563323
21
296.897560
0
LINE
8
0
10
524.563323
20
296.897560
11
524.674801
21
296.885170
0
LINE
8
0
10
524.674801
20
296.885170
11
524.783513
21
296.859488
0
LINE
8
0
10
524.783513
20
296.859488
11
524.889487
21
296.820956
0
LINE
8
0
10
524.889487
20
296.820956
11
524.992696
21
296.768661
0
LINE
8
0
10
525.468000
20
405.098000
11
525.497379
21
405.100258
0
LINE
8
0
10
525.497379
20
405.100258
11
525.537991
21
405.106664
0
LINE
8
0
10
525.537991
20
405.106664
11
525.589807
21
405.117360
0
LINE
8
0
10
525.589807
20
405.117360
11
525.652827
21
405.132318
0
LINE
8
0
10
525.652827
20
405.132318
11
525.726544
21
405.151538
0
LINE
8
0
10
525.726544
20
405.151538
11
525.812029
21
405.175583
0
LINE
8
0
10
525.812029
20
405.175583
11
525.908182
21
405.203353
0
LINE
8
0
10
525.908182
20
405.203353
11
526.015539
21
405.235403
0
LINE
8
0
10
526.015539
20
405.235403
11
526.126114
21
405.272261
0
LINE
8
0
10
526.126114
20
405.272261
11
526.230818
21
405.313395
0
LINE
8
0
10
526.230818
20
405.313395
11
526.330724
21
405.359335
0
LINE
8
0
10
526.330724
20
405.359335
11
526.424732
21
405.409548
0
LINE
8
0
10
526.424732
20
405.409548
11
526.513943
21
405.464570
0
LINE
8
0
10
526.513943
20
405.464570
11
526.597283
21
405.524398
0
LINE
8
0
10
526.597283
20
405.524398
11
526.675797
21
405.588502
0
LINE
8
0
10
526.675797
20
405.588502
11
526.748469
21
405.657412
0
LINE
8
0
10
526.748469
20
405.657412
11
526.814707
21
405.730061
0
LINE
8
0
10
526.814707
20
405.730061
11
526.871857
21
405.804847
0
LINE
8
0
10
526.871857
20
405.804847
11
526.919919
21
405.882303
0
LINE
8
0
10
526.919919
20
405.882303
11
526.959458
21
405.962432
0
LINE
8
0
10
526.959458
20
405.962432
11
526.990446
21
406.044697
0
LINE
8
0
10
526.990446
20
406.044697
11
527.012460
21
406.129634
0
LINE
8
0
10
527.012460
20
406.129634
11
527.025724
21
406.217239
0
LINE
8
0
10
527.025724
20
406.217239
11
527.029958
21
406.306982
0
LINE
8
0
10
527.030000
20
406.307000
11
527.026896
21
406.378049
0
LINE
8
0
10
527.026896
20
406.378049
11
527.017300
21
406.445890
0
LINE
8
0
10
527.017300
20
406.445890
11
527.000649
21
406.509458
0
LINE
8
0
10
527.000649
20
406.509458
11
526.978353
21
406.569286
0
LINE
8
0
10
526.978353
20
406.569286
11
526.948946
21
406.625377
0
LINE
8
0
10
526.948946
20
406.625377
11
526.913160
21
406.678263
0
LINE
8
0
10
526.913160
20
406.678263
11
526.870968
21
406.726873
0
LINE
8
0
10
526.870968
20
406.726873
11
526.822369
21
406.771743
0
LINE
8
0
10
526.822369
20
406.771743
11
526.768409
21
406.812341
0
LINE
8
0
10
526.768409
20
406.812341
11
526.710722
21
406.847066
0
LINE
8
0
10
526.710722
20
406.847066
11
526.648746
21
406.876978
0
LINE
8
0
10
526.648746
20
406.876978
11
526.583045
21
406.901024
0
LINE
8
0
10
526.583045
20
406.901024
11
526.513054
21
406.920243
0
LINE
8
0
10
526.513054
20
406.920243
11
526.439338
21
406.933592
0
LINE
8
0
10
526.439338
20
406.933592
11
526.361360
21
406.941607
0
LINE
8
0
10
526.361360
20
406.941607
11
526.279628
21
406.944147
0
LINE
8
0
10
526.279000
20
406.944000
11
526.158265
21
406.942307
0
LINE
8
0
10
526.158265
20
406.942307
11
526.025790
21
406.936436
0
LINE
8
0
10
526.025790
20
406.936436
11
525.881546
21
406.927349
0
LINE
8
0
10
525.881546
20
406.927349
11
525.725562
21
406.914536
0
LINE
8
0
10
525.726000
20
406.915000
11
525.689142
21
406.911783
0
LINE
8
0
10
525.689142
20
406.911783
11
525.659763
21
406.910089
0
LINE
8
0
10
525.659000
20
406.910000
11
525.634447
21
406.763631
0
LINE
8
0
10
525.634447
20
406.763631
11
525.611587
21
406.623141
0
LINE
8
0
10
525.611587
20
406.623141
11
525.590138
21
406.487457
0
LINE
8
0
10
525.590138
20
406.487457
11
525.570382
21
406.357649
0
LINE
8
0
10
525.570382
20
406.357649
11
525.552320
21
406.233183
0
LINE
8
0
10
525.552320
20
406.233183
11
525.535669
21
406.114593
0
LINE
8
0
10
525.535669
20
406.114593
11
525.520711
21
406.000810
0
LINE
8
0
10
525.520711
20
406.000810
11
525.507447
21
405.892905
0
LINE
8
0
10
525.507447
20
405.892905
11
525.495593
21
405.790340
0
LINE
8
0
10
525.495593
20
405.790340
11
525.484869
21
405.693654
0
LINE
8
0
10
525.484869
20
405.693654
11
525.476402
21
405.602307
0
LINE
8
0
10
525.476402
20
405.602307
11
525.469347
21
405.516302
0
LINE
8
0
10
525.469347
20
405.516302
11
525.463420
21
405.435641
0
LINE
8
0
10
525.463420
20
405.435641
11
525.459751
21
405.360321
0
LINE
8
0
10
525.459751
20
405.360321
11
525.456929
21
405.290875
0
LINE
8
0
10
525.456929
20
405.290875
11
525.456929
21
405.226774
0
LINE
8
0
10
525.457000
20
405.227000
11
525.457000
21
405.184799
0
LINE
8
0
10
525.457000
20
405.184799
11
525.459822
21
405.149008
0
LINE
8
0
10
525.459822
20
405.149008
11
525.462927
21
405.120162
0
LINE
8
0
10
525.462927
20
405.120162
11
525.467724
21
405.098262
0
LINE
8
0
10
524.984000
20
404.999000
11
524.988798
21
405.023045
0
LINE
8
0
10
524.988798
20
405.023045
11
524.993031
21
405.051894
0
LINE
8
0
10
524.993031
20
405.051894
11
524.996700
21
405.084479
0
LINE
8
0
10
524.996700
20
405.084479
11
525.000369
21
405.121871
0
LINE
8
0
10
525.000369
20
405.121871
11
525.004038
21
405.163538
0
LINE
8
0
10
525.004038
20
405.163538
11
525.007142
21
405.209478
0
LINE
8
0
10
525.007142
20
405.209478
11
525.009964
21
405.260225
0
LINE
8
0
10
525.009964
20
405.260225
11
525.012787
21
405.314713
0
LINE
8
0
10
525.012000
20
405.315000
11
525.040307
21
405.630705
0
LINE
8
0
10
525.040307
20
405.630705
11
525.078774
21
405.953889
0
LINE
8
0
10
525.078774
20
405.953889
11
525.126836
21
406.284015
0
LINE
8
0
10
525.126836
20
406.284015
11
525.185059
21
406.621090
0
LINE
8
0
10
525.186000
20
406.621000
11
525.199829
21
406.688307
0
LINE
8
0
10
525.199829
20
406.688307
11
525.209989
21
406.747066
0
LINE
8
0
10
525.209989
20
406.747066
11
525.215916
21
406.797815
0
LINE
8
0
10
525.215916
20
406.797815
11
525.218738
21
406.839482
0
LINE
8
0
10
525.218000
20
406.840000
11
525.215178
21
406.854958
0
LINE
8
0
10
525.215178
20
406.854958
11
525.209251
21
406.866162
0
LINE
8
0
10
525.209251
20
406.866162
11
525.199656
21
406.874713
0
LINE
8
0
10
525.199656
20
406.874713
11
525.185827
21
406.879511
0
LINE
8
0
10
525.186000
20
406.879000
11
525.137401
21
406.892349
0
LINE
8
0
10
525.137401
20
406.892349
11
525.095209
21
406.907843
0
LINE
8
0
10
525.095209
20
406.907843
11
525.059395
21
406.925482
0
LINE
8
0
10
525.059395
20
406.925482
11
525.030016
21
406.945238
0
LINE
8
0
10
525.030016
20
406.945238
11
525.007438
21
406.967138
0
LINE
8
0
10
525.007438
20
406.967138
11
524.990787
21
406.991719
0
LINE
8
0
10
524.990787
20
406.991719
11
524.981191
21
407.017910
0
LINE
8
0
10
524.981191
20
407.017910
11
524.978087
21
407.046756
0
LINE
8
0
10
524.978000
20
407.047000
11
524.982798
21
407.089201
0
LINE
8
0
10
524.982798
20
407.089201
11
524.997756
21
407.130868
0
LINE
8
0
10
524.997756
20
407.130868
11
525.022309
21
407.170399
0
LINE
8
0
10
525.022309
20
407.170399
11
525.057050
21
407.209393
0
LINE
8
0
10
525.057050
20
407.209393
11
525.097098
21
407.243048
0
LINE
8
0
10
525.097098
20
407.243048
11
525.138782
21
407.267094
0
LINE
8
0
10
525.138782
20
407.267094
11
525.181510
21
407.281515
0
LINE
8
0
10
525.181510
20
407.281515
11
525.225311
21
407.286313
0
LINE
8
0
10
525.226000
20
407.286000
11
525.471533
21
407.279227
0
LINE
8
0
10
525.471000
20
407.279000
11
525.562863
21
407.280129
0
LINE
8
0
10
525.562863
20
407.280129
11
525.670248
21
407.283854
0
LINE
8
0
10
525.670248
20
407.283854
11
525.793099
21
407.290261
0
LINE
8
0
10
525.793099
20
407.290261
11
525.932009
21
407.298812
0
LINE
8
0
10
525.932000
20
407.299000
11
526.051126
21
407.308624
0
LINE
8
0
10
526.051126
20
407.308624
11
526.158483
21
407.315030
0
LINE
8
0
10
526.158483
20
407.315030
11
526.254100
21
407.319320
0
LINE
8
0
10
526.254100
20
407.319320
11
526.337976
21
407.320449
0
LINE
8
0
10
526.338000
20
407.320000
11
526.461924
21
407.315738
0
LINE
8
0
10
526.461924
20
407.315738
11
526.579441
21
407.302389
0
LINE
8
0
10
526.579441
20
407.302389
11
526.691624
21
407.280489
0
LINE
8
0
10
526.691624
20
407.280489
11
526.797401
21
407.250040
0
LINE
8
0
10
526.797401
20
407.250040
11
526.896743
21
407.210512
0
LINE
8
0
10
526.896743
20
407.210512
11
526.990243
21
407.162436
0
LINE
8
0
10
526.990243
20
407.162436
11
527.077845
21
407.105277
0
LINE
8
0
10
527.077845
20
407.105277
11
527.159576
21
407.039570
0
LINE
8
0
10
527.159576
20
407.039570
11
527.233293
21
406.966387
0
LINE
8
0
10
527.233293
20
406.966387
11
527.296849
21
406.887862
0
LINE
8
0
10
527.296849
20
406.887862
11
527.350810
21
406.803461
0
LINE
8
0
10
527.350810
20
406.803461
11
527.395147
21
406.713717
0
LINE
8
0
10
527.395147
20
406.713717
11
527.429352
21
406.618097
0
LINE
8
0
10
527.429352
20
406.618097
11
527.453906
21
406.516602
0
LINE
8
0
10
527.453906
20
406.516602
11
527.468864
21
406.409231
0
LINE
8
0
10
527.468864
20
406.409231
11
527.473661
21
406.296517
0
LINE
8
0
10
527.474000
20
406.297000
11
527.466662
21
406.169328
0
LINE
8
0
10
527.466662
20
406.169328
11
527.444084
21
406.045399
0
LINE
8
0
10
527.444084
20
406.045399
11
527.406154
21
405.924137
0
LINE
8
0
10
527.406154
20
405.924137
11
527.353265
21
405.806081
0
LINE
8
0
10
527.353265
20
405.806081
11
527.285419
21
405.690697
0
LINE
8
0
10
527.285419
20
405.690697
11
527.202615
21
405.579053
0
LINE
8
0
10
527.202615
20
405.579053
11
527.104317
21
405.470079
0
LINE
8
0
10
527.104317
20
405.470079
11
526.991090
21
405.364311
0
LINE
8
0
10
526.991090
20
405.364311
11
526.867138
21
405.264416
0
LINE
8
0
10
526.867138
20
405.264416
11
526.736808
21
405.172535
0
LINE
8
0
10
526.736808
20
405.172535
11
526.600043
21
405.088668
0
LINE
8
0
10
526.600043
20
405.088668
11
526.457436
21
405.013882
0
LINE
8
0
10
526.457436
20
405.013882
11
526.307858
21
404.946574
0
LINE
8
0
10
526.307858
20
404.946574
11
526.152410
21
404.887816
0
LINE
8
0
10
526.152410
20
404.887816
11
525.990019
21
404.837067
0
LINE
8
0
10
525.990019
20
404.837067
11
525.821730
21
404.794866
0
LINE
8
0
10
525.822000
20
404.795000
11
525.738152
21
404.776289
0
LINE
8
0
10
525.738152
20
404.776289
11
525.667088
21
404.758650
0
LINE
8
0
10
525.667088
20
404.758650
11
525.609938
21
404.742083
0
LINE
8
0
10
525.609938
20
404.742083
11
525.565601
21
404.727126
0
LINE
8
0
10
525.565601
20
404.727126
11
525.527134
21
404.710559
0
LINE
8
0
10
525.527134
20
404.710559
11
525.484942
21
404.689731
0
LINE
8
0
10
525.484942
20
404.689731
11
525.440069
21
404.665150
0
LINE
8
0
10
525.440069
20
404.665150
11
525.391470
21
404.635770
0
LINE
8
0
10
525.391000
20
404.636000
11
525.329560
21
404.599139
0
LINE
8
0
10
525.329560
20
404.599139
11
525.268657
21
404.572977
0
LINE
8
0
10
525.268657
20
404.572977
11
525.207753
21
404.556947
0
LINE
8
0
10
525.207753
20
404.556947
11
525.147386
21
404.551613
0
LINE
8
0
10
525.148000
20
404.551000
11
525.103155
21
404.556334
0
LINE
8
0
10
525.103155
20
404.556334
11
525.060398
21
404.572900
0
LINE
8
0
10
525.060398
20
404.572900
11
525.020351
21
404.600135
0
LINE
8
0
10
525.020351
20
404.600135
11
524.982957
21
404.638596
0
LINE
8
0
10
524.982957
20
404.638596
11
524.951432
21
404.680797
0
LINE
8
0
10
524.951432
20
404.680797
11
524.928572
21
404.718724
0
LINE
8
0
10
524.928572
20
404.718724
11
524.915308
21
404.752379
0
LINE
8
0
10
524.915308
20
404.752379
11
524.910510
21
404.782292
0
LINE
8
0
10
524.910000
20
404.782000
11
524.912822
21
404.802828
0
LINE
8
0
10
524.912822
20
404.802828
11
524.919878
21
404.828482
0
LINE
8
0
10
524.919878
20
404.828482
11
524.930602
21
404.857861
0
LINE
8
0
10
524.930602
20
404.857861
11
524.946124
21
404.891516
0
LINE
8
0
10
524.944000
20
404.892000
11
524.983511
21
404.999244
0
LINE
8
0
10
529.183000
20
404.740000
11
529.180178
21
404.774188
0
LINE
8
0
10
529.180178
20
404.774188
11
529.173122
21
404.816925
0
LINE
8
0
10
529.173122
20
404.816925
11
529.161833
21
404.867672
0
LINE
8
0
10
529.161833
20
404.867672
11
529.146311
21
404.927500
0
LINE
8
0
10
529.146311
20
404.927500
11
529.125427
21
404.995877
0
LINE
8
0
10
529.125427
20
404.995877
11
529.099745
21
405.072799
0
LINE
8
0
10
529.099745
20
405.072799
11
529.069829
21
405.157736
0
LINE
8
0
10
529.069829
20
405.157736
11
529.035116
21
405.251753
0
LINE
8
0
10
529.037000
20
405.252000
11
529.000678
21
405.347620
0
LINE
8
0
10
529.000678
20
405.347620
11
528.967009
21
405.439500
0
LINE
8
0
10
528.967009
20
405.439500
11
528.935485
21
405.527641
0
LINE
8
0
10
528.935485
20
405.527641
11
528.906642
21
405.612575
0
LINE
8
0
10
528.906642
20
405.612575
11
528.879830
21
405.694307
0
LINE
8
0
10
528.879830
20
405.694307
11
528.855277
21
405.772299
0
LINE
8
0
10
528.855277
20
405.772299
11
528.833264
21
405.846551
0
LINE
8
0
10
528.833264
20
405.846551
11
528.813508
21
405.917598
0
LINE
8
0
10
528.813508
20
405.917598
11
528.796011
21
405.984905
0
LINE
8
0
10
528.796011
20
405.984905
11
528.780488
21
406.049006
0
LINE
8
0
10
528.780488
20
406.049006
11
528.767788
21
406.109371
0
LINE
8
0
10
528.767788
20
406.109371
11
528.757628
21
406.166529
0
LINE
8
0
10
528.757628
20
406.166529
11
528.749726
21
406.219948
0
LINE
8
0
10
528.749726
20
406.219948
11
528.743800
21
406.269628
0
LINE
8
0
10
528.743800
20
406.269628
11
528.740131
21
406.316101
0
LINE
8
0
10
528.740131
20
406.316101
11
528.740131
21
406.359371
0
LINE
8
0
10
528.739000
20
406.359000
11
528.742669
21
406.428443
0
LINE
8
0
10
528.742669
20
406.428443
11
528.752829
21
406.488272
0
LINE
8
0
10
528.752829
20
406.488272
11
528.770327
21
406.539021
0
LINE
8
0
10
528.770327
20
406.539021
11
528.794880
21
406.580688
0
LINE
8
0
10
528.794880
20
406.580688
11
528.826404
21
406.612737
0
LINE
8
0
10
528.826404
20
406.612737
11
528.865407
21
406.635710
0
LINE
8
0
10
528.865407
20
406.635710
11
528.910817
21
406.649595
0
LINE
8
0
10
528.910817
20
406.649595
11
528.963705
21
406.654393
0
LINE
8
0
10
528.964000
20
406.655000
11
529.015280
21
406.650738
0
LINE
8
0
10
529.015280
20
406.650738
11
529.060153
21
406.637926
0
LINE
8
0
10
529.060153
20
406.637926
11
529.097547
21
406.617098
0
LINE
8
0
10
529.097547
20
406.617098
11
529.128507
21
406.587718
0
LINE
8
0
10
529.128507
20
406.587718
11
529.152496
21
406.549257
0
LINE
8
0
10
529.152496
20
406.549257
11
529.169712
21
406.502784
0
LINE
8
0
10
529.169712
20
406.502784
11
529.180436
21
406.448295
0
LINE
8
0
10
529.180436
20
406.448295
11
529.183540
21
406.384727
0
LINE
8
0
10
529.183000
20
406.385000
11
529.183000
21
406.304871
0
LINE
8
0
10
529.183000
20
406.304871
11
529.185822
21
406.237031
0
LINE
8
0
10
529.185822
20
406.237031
11
529.188644
21
406.181473
0
LINE
8
0
10
529.188644
20
406.181473
11
529.192313
21
406.138739
0
LINE
8
0
10
529.192313
20
406.138739
11
529.195418
21
406.118447
0
LINE
8
0
10
529.195418
20
406.118447
11
529.199651
21
406.094938
0
LINE
8
0
10
529.199651
20
406.094938
11
529.205013
21
406.067167
0
LINE
8
0
10
529.205013
20
406.067167
11
529.212069
21
406.036185
0
LINE
8
0
10
529.212069
20
406.036185
11
529.220536
21
406.000927
0
LINE
8
0
10
529.220536
20
406.000927
11
529.230131
21
405.962466
0
LINE
8
0
10
529.230131
20
405.962466
11
529.240855
21
405.919732
0
LINE
8
0
10
529.240855
20
405.919732
11
529.253273
21
405.873791
0
LINE
8
0
10
529.253273
20
405.873791
11
529.278955
21
405.781911
0
LINE
8
0
10
529.278955
20
405.781911
11
529.305202
21
405.698043
0
LINE
8
0
10
529.305202
20
405.698043
11
529.330320
21
405.621654
0
LINE
8
0
10
529.330320
20
405.621654
11
529.356002
21
405.553811
0
LINE
8
0
10
529.355000
20
405.553000
11
529.369958
21
405.511336
0
LINE
8
0
10
529.369958
20
405.511336
11
529.387173
21
405.463793
0
LINE
8
0
10
529.387173
20
405.463793
11
529.405236
21
405.410373
0
LINE
8
0
10
529.405236
20
405.410373
11
529.424991
21
405.351079
0
LINE
8
0
10
529.425000
20
405.351000
11
529.436289
21
405.315209
0
LINE
8
0
10
529.436289
20
405.315209
11
529.447013
21
405.285293
0
LINE
8
0
10
529.447013
20
405.285293
11
529.457173
21
405.260712
0
LINE
8
0
10
529.457173
20
405.260712
11
529.466204
21
405.242536
0
LINE
8
0
10
529.467000
20
405.243000
11
529.475467
21
405.257958
0
LINE
8
0
10
529.475467
20
405.257958
11
529.491553
21
405.286804
0
LINE
8
0
10
529.491553
20
405.286804
11
529.513567
21
405.328471
0
LINE
8
0
10
529.513567
20
405.328471
11
529.542946
21
405.384026
0
LINE
8
0
10
529.542000
20
405.384000
11
529.554418
21
405.406973
0
LINE
8
0
10
529.554418
20
405.406973
11
529.572480
21
405.439025
0
LINE
8
0
10
529.572480
20
405.439025
11
529.595904
21
405.479623
0
LINE
8
0
10
529.595904
20
405.479623
11
529.625284
21
405.529302
0
LINE
8
0
10
529.625284
20
405.529302
11
529.660533
21
405.586994
0
LINE
8
0
10
529.660533
20
405.586994
11
529.701145
21
405.653768
0
LINE
8
0
10
529.701145
20
405.653768
11
529.747627
21
405.729087
0
LINE
8
0
10
529.747627
20
405.729087
11
529.799979
21
405.813488
0
LINE
8
0
10
529.799979
20
405.813488
11
529.853912
21
405.900029
0
LINE
8
0
10
529.853912
20
405.900029
11
529.906800
21
405.981758
0
LINE
8
0
10
529.906800
20
405.981758
11
529.957544
21
406.059216
0
LINE
8
0
10
529.957544
20
406.059216
11
530.006707
21
406.132399
0
LINE
8
0
10
530.006707
20
406.132399
11
530.054233
21
406.200776
0
LINE
8
0
10
530.054233
20
406.200776
11
530.099642
21
406.264877
0
LINE
8
0
10
530.099642
20
406.264877
11
530.143979
21
406.324172
0
LINE
8
0
10
530.143979
20
406.324172
11
530.186200
21
406.379194
0
LINE
8
0
10
530.186200
20
406.379194
11
530.226783
21
406.429407
0
LINE
8
0
10
530.226783
20
406.429407
11
530.264178
21
406.474280
0
LINE
8
0
10
530.264178
20
406.474280
11
530.299427
21
406.514344
0
LINE
8
0
10
530.299427
20
406.514344
11
530.331488
21
406.549066
0
LINE
8
0
10
530.331488
20
406.549066
11
530.361403
21
406.578445
0
LINE
8
0
10
530.361403
20
406.578445
11
530.388496
21
406.603027
0
LINE
8
0
10
530.388496
20
406.603027
11
530.412485
21
406.622246
0
LINE
8
0
10
530.412485
20
406.622246
11
530.434499
21
406.636668
0
LINE
8
0
10
530.434499
20
406.636668
11
530.476155
21
406.657496
0
LINE
8
0
10
530.476155
20
406.657496
11
530.518911
21
406.671917
0
LINE
8
0
10
530.518911
20
406.671917
11
530.562712
21
406.681005
0
LINE
8
0
10
530.562712
20
406.681005
11
530.607585
21
406.683545
0
LINE
8
0
10
530.608000
20
406.684000
11
530.653409
21
406.680275
0
LINE
8
0
10
530.653409
20
406.680275
11
530.693993
21
406.668534
0
LINE
8
0
10
530.693993
20
406.668534
11
530.730851
21
406.649315
0
LINE
8
0
10
530.730851
20
406.649315
11
530.763448
21
406.622617
0
LINE
8
0
10
530.763448
20
406.622617
11
530.790259
21
406.590565
0
LINE
8
0
10
530.790259
20
406.590565
11
530.809450
21
406.554776
0
LINE
8
0
10
530.809450
20
406.554776
11
530.820739
21
406.515779
0
LINE
8
0
10
530.820739
20
406.515779
11
530.824408
21
406.473045
0
LINE
8
0
10
530.672000
20
406.267000
11
530.632997
21
406.237618
0
LINE
8
0
10
530.632997
20
406.237618
11
530.590269
21
406.200226
0
LINE
8
0
10
530.590269
20
406.200226
11
530.544859
21
406.154820
0
LINE
8
0
10
530.544859
20
406.154820
11
530.495724
21
406.101401
0
LINE
8
0
10
530.495724
20
406.101401
11
530.442836
21
406.039436
0
LINE
8
0
10
530.442836
20
406.039436
11
530.386758
21
405.969456
0
LINE
8
0
10
530.386758
20
405.969456
11
530.327463
21
405.891464
0
LINE
8
0
10
530.327463
20
405.891464
11
530.264951
21
405.805460
0
LINE
8
0
10
530.264951
20
405.805460
11
530.199786
21
405.712513
0
LINE
8
0
10
530.199786
20
405.712513
11
530.133549
21
405.613687
0
LINE
8
0
10
530.133549
20
405.613687
11
530.066239
21
405.508985
0
LINE
8
0
10
530.066239
20
405.508985
11
529.997856
21
405.398408
0
LINE
8
0
10
529.997856
20
405.398408
11
529.927893
21
405.282491
0
LINE
8
0
10
529.927893
20
405.282491
11
529.856294
21
405.160162
0
LINE
8
0
10
529.856294
20
405.160162
11
529.784186
21
405.032490
0
LINE
8
0
10
529.784186
20
405.032490
11
529.710470
21
404.898943
0
LINE
8
0
10
529.710000
20
404.899000
11
529.669388
21
404.825817
0
LINE
8
0
10
529.669388
20
404.825817
11
529.629877
21
404.762783
0
LINE
8
0
10
529.629877
20
404.762783
11
529.591947
21
404.708830
0
LINE
8
0
10
529.591947
20
404.708830
11
529.554552
21
404.665027
0
LINE
8
0
10
529.554552
20
404.665027
11
529.518230
21
404.630838
0
LINE
8
0
10
529.518230
20
404.630838
11
529.482952
21
404.606793
0
LINE
8
0
10
529.482952
20
404.606793
11
529.448775
21
404.591835
0
LINE
8
0
10
529.448775
20
404.591835
11
529.415671
21
404.587037
0
LINE
8
0
10
529.416000
20
404.587000
11
529.387665
21
404.589258
0
LINE
8
0
10
529.387665
20
404.589258
11
529.359358
21
404.596737
0
LINE
8
0
10
529.359358
20
404.596737
11
529.330515
21
404.608477
0
LINE
8
0
10
529.330515
20
404.608477
11
529.301672
21
404.625580
0
LINE
8
0
10
529.301672
20
404.625580
11
529.272293
21
404.646944
0
LINE
8
0
10
529.272293
20
404.646944
11
529.242913
21
404.673106
0
LINE
8
0
10
529.242913
20
404.673106
11
529.213534
21
404.704625
0
LINE
8
0
10
529.213534
20
404.704625
11
529.183618
21
404.740413
0
LINE
8
0
10
530.824000
20
406.473000
11
530.821178
21
406.446810
0
LINE
8
0
10
530.821178
20
406.446810
11
530.813840
21
406.420648
0
LINE
8
0
10
530.813840
20
406.420648
11
530.801987
21
406.394994
0
LINE
8
0
10
530.801987
20
406.394994
11
530.785336
21
406.369340
0
LINE
8
0
10
530.785336
20
406.369340
11
530.763322
21
406.343686
0
LINE
8
0
10
530.763322
20
406.343686
11
530.737076
21
406.318060
0
LINE
8
0
10
530.737076
20
406.318060
11
530.706088
21
406.292406
0
LINE
8
0
10
530.706088
20
406.292406
11
530.670302
21
406.267288
0
LINE
8
0
10
524.853000
20
352.888000
11
524.919068
21
352.891217
0
LINE
8
0
10
524.919068
20
352.891217
11
524.980988
21
352.895338
0
LINE
8
0
10
524.980988
20
352.895338
11
525.037855
21
352.899938
0
LINE
8
0
10
525.037855
20
352.899938
11
525.090631
21
352.905441
0
LINE
8
0
10
525.090631
20
352.905441
11
525.138778
21
352.911876
0
LINE
8
0
10
525.138778
20
352.911876
11
525.182353
21
352.918762
0
LINE
8
0
10
525.182353
20
352.918762
11
525.221356
21
352.926552
0
LINE
8
0
10
525.221356
20
352.926552
11
525.255759
21
352.934821
0
LINE
8
0
10
525.255759
20
352.934821
11
525.314461
21
352.954096
0
LINE
8
0
10
525.314461
20
352.954096
11
525.361254
21
352.976590
0
LINE
8
0
10
525.361254
20
352.976590
11
525.396588
21
353.002272
0
LINE
8
0
10
525.396588
20
353.002272
11
525.420012
21
353.031631
0
LINE
8
0
10
525.420000
20
353.032000
11
525.429596
21
353.052630
0
LINE
8
0
10
525.429596
20
353.052630
11
525.436087
21
353.074192
0
LINE
8
0
10
525.436087
20
353.074192
11
525.438909
21
353.098040
0
LINE
8
0
10
525.438909
20
353.098040
11
525.438909
21
353.122819
0
LINE
8
0
10
525.343000
20
353.287000
11
525.305860
21
353.305344
0
LINE
8
0
10
525.305860
20
353.305344
11
525.261805
21
353.320951
0
LINE
8
0
10
525.261805
20
353.320951
11
525.210440
21
353.334244
0
LINE
8
0
10
525.210440
20
353.334244
11
525.151710
21
353.345251
0
LINE
8
0
10
525.151710
20
353.345251
11
525.086121
21
353.353971
0
LINE
8
0
10
525.086121
20
353.353971
11
525.013647
21
353.360378
0
LINE
8
0
10
525.013647
20
353.360378
11
524.933834
21
353.364047
0
LINE
8
0
10
524.933834
20
353.364047
11
524.847136
21
353.365458
0
LINE
8
0
10
524.847000
20
353.366000
11
524.732785
21
353.364589
0
LINE
8
0
10
524.732785
20
353.364589
11
524.630931
21
353.358154
0
LINE
8
0
10
524.630931
20
353.358154
11
524.541495
21
353.347148
0
LINE
8
0
10
524.541495
20
353.347148
11
524.463968
21
353.331541
0
LINE
8
0
10
524.463968
20
353.331541
11
524.399763
21
353.311362
0
LINE
8
0
10
524.399763
20
353.311362
11
524.347467
21
353.286131
0
LINE
8
0
10
524.347467
20
353.286131
11
524.307561
21
353.256314
0
LINE
8
0
10
524.307561
20
353.256314
11
524.279903
21
353.221911
0
LINE
8
0
10
524.280000
20
353.222000
11
524.269840
21
353.197701
0
LINE
8
0
10
524.269840
20
353.197701
11
524.264760
21
353.169261
0
LINE
8
0
10
524.264760
20
353.169261
11
524.261938
21
353.144482
0
LINE
8
0
10
524.261938
20
353.144482
11
524.261938
21
353.131189
0
LINE
8
0
10
524.261000
20
353.131000
11
524.261000
21
353.102560
0
LINE
8
0
10
524.261000
20
353.102560
11
524.265516
21
353.075495
0
LINE
8
0
10
524.265516
20
353.075495
11
524.273700
21
353.050265
0
LINE
8
0
10
524.273700
20
353.050265
11
524.285271
21
353.026417
0
LINE
8
0
10
524.285271
20
353.026417
11
524.300793
21
353.004404
0
LINE
8
0
10
524.300793
20
353.004404
11
524.319702
21
352.984225
0
LINE
8
0
10
524.319702
20
352.984225
11
524.342280
21
352.965429
0
LINE
8
0
10
524.342280
20
352.965429
11
524.368527
21
352.948467
0
LINE
8
0
10
524.370000
20
352.949000
11
524.409455
21
352.929724
0
LINE
8
0
10
524.409455
20
352.929724
11
524.454864
21
352.913666
0
LINE
8
0
10
524.454864
20
352.913666
11
524.506229
21
352.901276
0
LINE
8
0
10
524.506229
20
352.901276
11
524.563576
21
352.891653
0
LINE
8
0
10
524.563576
20
352.891653
11
524.626878
21
352.886149
0
LINE
8
0
10
524.626878
20
352.886149
11
524.696616
21
352.883327
0
LINE
8
0
10
524.696616
20
352.883327
11
524.771828
21
352.884174
0
LINE
8
0
10
524.771828
20
352.884174
11
524.853023
21
352.888294
0
LINE
8
0
10
524.371000
20
352.752000
11
524.330614
21
352.777231
0
LINE
8
0
10
524.330614
20
352.777231
11
524.293474
21
352.804296
0
LINE
8
0
10
524.293474
20
352.804296
11
524.259974
21
352.832735
0
LINE
8
0
10
524.259974
20
352.832735
11
524.229691
21
352.863012
0
LINE
8
0
10
524.229691
20
352.863012
11
524.203445
21
352.895120
0
LINE
8
0
10
524.203445
20
352.895120
11
524.180020
21
352.928609
0
LINE
8
0
10
524.180020
20
352.928609
11
524.160265
21
352.963929
0
LINE
8
0
10
524.160265
20
352.963929
11
524.144178
21
353.000626
0
LINE
8
0
10
524.144178
20
353.000626
11
524.131760
21
353.038241
0
LINE
8
0
10
524.131760
20
353.038241
11
524.124423
21
353.076315
0
LINE
8
0
10
524.124423
20
353.076315
11
524.121318
21
353.114387
0
LINE
8
0
10
524.121318
20
353.114387
11
524.124140
21
353.152462
0
LINE
8
0
10
524.124140
20
353.152462
11
524.130067
21
353.190533
0
LINE
8
0
10
524.130067
20
353.190533
11
524.141074
21
353.228608
0
LINE
8
0
10
524.141074
20
353.228608
11
524.156314
21
353.267140
0
LINE
8
0
10
524.156314
20
353.267140
11
524.176634
21
353.305672
0
LINE
8
0
10
525.344000
20
353.521000
11
525.387124
21
353.494387
0
LINE
8
0
10
525.387124
20
353.494387
11
525.426098
21
353.465487
0
LINE
8
0
10
525.426098
20
353.465487
11
525.460981
21
353.435210
0
LINE
8
0
10
525.460981
20
353.435210
11
525.492166
21
353.402642
0
LINE
8
0
10
525.492166
20
353.402642
11
525.519260
21
353.368699
0
LINE
8
0
10
525.519260
20
353.368699
11
525.542120
21
353.332919
0
LINE
8
0
10
525.542120
20
353.332919
11
525.561029
21
353.294844
0
LINE
8
0
10
525.561029
20
353.294844
11
525.576269
21
353.255395
0
LINE
8
0
10
525.576000
20
353.255000
11
526.710530
21
355.218420
0
LINE
8
0
10
526.711000
20
355.219000
11
526.812600
21
355.159451
0
LINE
8
0
10
526.813000
20
355.159000
11
525.545820
21
352.966140
0
LINE
8
0
10
525.546000
20
352.966000
11
525.510214
21
352.913704
0
LINE
8
0
10
525.510214
20
352.913704
11
525.461587
21
352.860037
0
LINE
8
0
10
525.461587
20
352.860037
11
525.400571
21
352.804532
0
LINE
8
0
10
525.400571
20
352.804532
11
525.326742
21
352.747651
0
LINE
8
0
10
525.326742
20
352.747651
11
525.285453
21
352.720134
0
LINE
8
0
10
525.285453
20
352.720134
11
525.240946
21
352.695355
0
LINE
8
0
10
525.240946
20
352.695355
11
525.194154
21
352.673342
0
LINE
8
0
10
525.194154
20
352.673342
11
525.144172
21
352.654066
0
LINE
8
0
10
525.144172
20
352.654066
11
525.091877
21
352.638007
0
LINE
8
0
10
525.091877
20
352.638007
11
525.036364
21
352.624235
0
LINE
8
0
10
525.036364
20
352.624235
11
524.978113
21
352.613680
0
LINE
8
0
10
524.978113
20
352.613680
11
524.917097
21
352.605891
0
LINE
8
0
10
524.917097
20
352.605891
11
524.853794
21
352.602673
0
LINE
8
0
10
524.853794
20
352.602673
11
524.789109
21
352.605495
0
LINE
8
0
10
524.789109
20
352.605495
11
524.723069
21
352.614216
0
LINE
8
0
10
524.723069
20
352.614216
11
524.655618
21
352.629343
0
LINE
8
0
10
524.655618
20
352.629343
11
524.586361
21
352.650905
0
LINE
8
0
10
524.586361
20
352.650905
11
524.515720
21
352.678422
0
LINE
8
0
10
524.515720
20
352.678422
11
524.443697
21
352.711907
0
LINE
8
0
10
524.443697
20
352.711907
11
524.370320
21
352.751816
0
LINE
8
0
10
525.438000
20
353.122000
11
525.438000
21
353.148162
0
LINE
8
0
10
525.438000
20
353.148162
11
525.434331
21
353.172461
0
LINE
8
0
10
525.434331
20
353.172461
11
525.426993
21
353.195406
0
LINE
8
0
10
525.426993
20
353.195406
11
525.416833
21
353.216968
0
LINE
8
0
10
525.416833
20
353.216968
11
525.403004
21
353.236695
0
LINE
8
0
10
525.403004
20
353.236695
11
525.386636
21
353.255039
0
LINE
8
0
10
525.386636
20
353.255039
11
525.366316
21
353.272001
0
LINE
8
0
10
525.366316
20
353.272001
11
525.342891
21
353.287128
0
LINE
8
0
10
524.175000
20
353.306000
11
524.217192
21
353.367925
0
LINE
8
0
10
524.217192
20
353.367925
11
524.271322
21
353.428019
0
LINE
8
0
10
524.271322
20
353.428019
11
524.337362
21
353.486275
0
LINE
8
0
10
524.337362
20
353.486275
11
524.414889
21
353.542697
0
LINE
8
0
10
524.414889
20
353.542697
11
524.457561
21
353.568831
0
LINE
8
0
10
524.457561
20
353.568831
11
524.502970
21
353.591775
0
LINE
8
0
10
524.502970
20
353.591775
11
524.550666
21
353.611954
0
LINE
8
0
10
524.550666
20
353.611954
11
524.600675
21
353.628916
0
LINE
8
0
10
524.600675
20
353.628916
11
524.653423
21
353.642688
0
LINE
8
0
10
524.653423
20
353.642688
11
524.708484
21
353.653695
0
LINE
8
0
10
524.708484
20
353.653695
11
524.765804
21
353.661484
0
LINE
8
0
10
524.765804
20
353.661484
11
524.825437
21
353.666536
0
LINE
8
0
10
524.825437
20
353.666536
11
524.886905
21
353.667100
0
LINE
8
0
10
524.886905
20
353.667100
11
524.949304
21
353.662500
0
LINE
8
0
10
524.949304
20
353.662500
11
525.012607
21
353.652397
0
LINE
8
0
10
525.012607
20
353.652397
11
525.076812
21
353.636790
0
LINE
8
0
10
525.076812
20
353.636790
11
525.142429
21
353.616159
0
LINE
8
0
10
525.142429
20
353.616159
11
525.208469
21
353.589997
0
LINE
8
0
10
525.208469
20
353.589997
11
525.275892
21
353.558346
0
LINE
8
0
10
525.275892
20
353.558346
11
525.343794
21
353.521192
0
LINE
8
0
10
524.033000
20
315.016000
11
523.994477
21
315.039848
0
LINE
8
0
10
523.994477
20
315.039848
11
523.959594
21
315.066010
0
LINE
8
0
10
523.959594
20
315.066010
11
523.927506
21
315.093526
0
LINE
8
0
10
523.927506
20
315.093526
11
523.899058
21
315.122426
0
LINE
8
0
10
523.899058
20
315.122426
11
523.873940
21
315.153617
0
LINE
8
0
10
523.873940
20
315.153617
11
523.851926
21
315.186646
0
LINE
8
0
10
523.851926
20
315.186646
11
523.833582
21
315.221048
0
LINE
8
0
10
523.833582
20
315.221048
11
523.818060
21
315.257289
0
LINE
8
0
10
523.818060
20
315.257289
11
523.806489
21
315.294443
0
LINE
8
0
10
523.806489
20
315.294443
11
523.799151
21
315.331140
0
LINE
8
0
10
523.799151
20
315.331140
11
523.796046
21
315.368295
0
LINE
8
0
10
523.796046
20
315.368295
11
523.796046
21
315.404992
0
LINE
8
0
10
523.796046
20
315.404992
11
523.801973
21
315.441689
0
LINE
8
0
10
523.801973
20
315.441689
11
523.812133
21
315.478387
0
LINE
8
0
10
523.812133
20
315.478387
11
523.826809
21
315.515084
0
LINE
8
0
10
523.826809
20
315.515084
11
523.845718
21
315.551781
0
LINE
8
0
10
523.847000
20
315.552000
11
523.872118
21
315.592369
0
LINE
8
0
10
523.872118
20
315.592369
11
523.900566
21
315.630441
0
LINE
8
0
10
523.900566
20
315.630441
11
523.931751
21
315.665764
0
LINE
8
0
10
523.931751
20
315.665764
11
523.966154
21
315.698789
0
LINE
8
0
10
523.966154
20
315.698789
11
524.003295
21
315.729983
0
LINE
8
0
10
524.003295
20
315.729983
11
524.043201
21
315.758423
0
LINE
8
0
10
524.043201
20
315.758423
11
524.085873
21
315.784105
0
LINE
8
0
10
524.085873
20
315.784105
11
524.131734
21
315.807953
0
LINE
8
0
10
524.131734
20
315.807953
11
524.228536
21
315.846484
0
LINE
8
0
10
524.228536
20
315.846484
11
524.330362
21
315.872618
0
LINE
8
0
10
524.330362
20
315.872618
11
524.436788
21
315.886842
0
LINE
8
0
10
524.436788
20
315.886842
11
524.548266
21
315.888536
0
LINE
8
0
10
524.548266
20
315.888536
11
524.604682
21
315.884415
0
LINE
8
0
10
524.604682
20
315.884415
11
524.660647
21
315.877077
0
LINE
8
0
10
524.660647
20
315.877077
11
524.715680
21
315.866071
0
LINE
8
0
10
524.715680
20
315.866071
11
524.769810
21
315.851847
0
LINE
8
0
10
524.769810
20
315.851847
11
524.823941
21
315.834405
0
LINE
8
0
10
524.823941
20
315.834405
11
524.877168
21
315.813295
0
LINE
8
0
10
524.877168
20
315.813295
11
524.929463
21
315.788516
0
LINE
8
0
10
524.929463
20
315.788516
11
524.981279
21
315.760548
0
LINE
8
0
10
524.981000
20
315.761000
11
525.021386
21
315.735769
0
LINE
8
0
10
525.021386
20
315.735769
11
525.058075
21
315.708704
0
LINE
8
0
10
525.058075
20
315.708704
11
525.091095
21
315.679808
0
LINE
8
0
10
525.091095
20
315.679808
11
525.120446
21
315.649531
0
LINE
8
0
10
525.120446
20
315.649531
11
525.146693
21
315.616962
0
LINE
8
0
10
525.146693
20
315.616962
11
525.168706
21
315.583017
0
LINE
8
0
10
525.168706
20
315.583017
11
525.187615
21
315.547697
0
LINE
8
0
10
525.187615
20
315.547697
11
525.202290
21
315.510082
0
LINE
8
0
10
525.201000
20
315.510000
11
526.332710
21
317.469750
0
LINE
8
0
10
526.334000
20
317.470000
11
526.344160
21
317.483293
0
LINE
8
0
10
526.344160
20
317.483293
11
526.353756
21
317.487893
0
LINE
8
0
10
526.353756
20
317.487893
11
526.364762
21
317.485917
0
LINE
8
0
10
526.364762
20
317.485917
11
526.378027
21
317.479483
0
LINE
8
0
10
526.378000
20
317.479000
11
526.400578
21
317.465736
0
LINE
8
0
10
526.401000
20
317.466000
11
526.419909
21
317.450873
0
LINE
8
0
10
526.419909
20
317.450873
11
526.431762
21
317.431146
0
LINE
8
0
10
526.431762
20
317.431146
11
526.435996
21
317.404532
0
LINE
8
0
10
526.435996
20
317.404532
11
526.431762
21
317.368292
0
LINE
8
0
10
526.432000
20
317.368000
11
526.404060
21
317.273506
0
LINE
8
0
10
526.404060
20
317.273506
11
526.382047
21
317.175341
0
LINE
8
0
10
526.382047
20
317.175341
11
526.365396
21
317.073047
0
LINE
8
0
10
526.365396
20
317.073047
11
526.354389
21
316.966627
0
LINE
8
0
10
526.354389
20
316.966627
11
526.349309
21
316.856992
0
LINE
8
0
10
526.349309
20
316.856992
11
526.349309
21
316.743231
0
LINE
8
0
10
526.349309
20
316.743231
11
526.355236
21
316.625341
0
LINE
8
0
10
526.355236
20
316.625341
11
526.366807
21
316.503782
0
LINE
8
0
10
526.180000
20
315.397000
11
526.168711
21
315.373858
0
LINE
8
0
10
526.168000
20
315.374000
11
526.143165
21
315.334094
0
LINE
8
0
10
526.143165
20
315.334094
11
526.114265
21
315.291433
0
LINE
8
0
10
526.114265
20
315.291433
11
526.080314
21
315.245561
0
LINE
8
0
10
526.080314
20
315.245561
11
526.042242
21
315.197397
0
LINE
8
0
10
526.042242
20
315.197397
11
525.999119
21
315.146021
0
LINE
8
0
10
525.999119
20
315.146021
11
525.951423
21
315.092351
0
LINE
8
0
10
525.951423
20
315.092351
11
525.899579
21
315.035469
0
LINE
8
0
10
525.899579
20
315.035469
11
525.842711
21
314.975836
0
LINE
8
0
10
525.843000
20
314.976000
11
525.815907
21
314.963159
0
LINE
8
0
10
525.815907
20
314.963159
11
525.792200
21
314.956752
0
LINE
8
0
10
525.792200
20
314.956752
11
525.770751
21
314.957317
0
LINE
8
0
10
525.770751
20
314.957317
11
525.752407
21
314.964203
0
LINE
8
0
10
525.752000
20
314.964000
11
525.738171
21
314.972721
0
LINE
8
0
10
525.738171
20
314.972721
11
525.730269
21
314.979607
0
LINE
8
0
10
525.731000
20
314.979000
11
525.721404
21
314.999630
0
LINE
8
0
10
525.721404
20
314.999630
11
525.716324
21
315.025313
0
LINE
8
0
10
525.716324
20
315.025313
11
525.716324
21
315.052829
0
LINE
8
0
10
525.716324
20
315.052829
11
525.727896
21
315.080826
0
LINE
8
0
10
525.729000
20
315.081000
11
525.742264
21
315.098893
0
LINE
8
0
10
525.742264
20
315.098893
11
525.758916
21
315.113117
0
LINE
8
0
10
525.759000
20
315.113000
11
525.841127
21
315.185938
0
LINE
8
0
10
525.841127
20
315.185938
11
525.914504
21
315.263918
0
LINE
8
0
10
525.914504
20
315.263918
11
525.980121
21
315.347405
0
LINE
8
0
10
525.980121
20
315.347405
11
526.036989
21
315.435938
0
LINE
8
0
10
526.037000
20
315.436000
11
526.093868
21
315.544715
0
LINE
8
0
10
526.093868
20
315.544715
11
526.140209
21
315.654347
0
LINE
8
0
10
526.140209
20
315.654347
11
526.175063
21
315.764439
0
LINE
8
0
10
526.175063
20
315.764439
11
526.199052
21
315.874988
0
LINE
8
0
10
526.199000
20
315.875000
11
526.210571
21
315.947477
0
LINE
8
0
10
526.210571
20
315.947477
11
526.217909
21
316.016286
0
LINE
8
0
10
526.217909
20
316.016286
11
526.221578
21
316.081883
0
LINE
8
0
10
526.221578
20
316.081883
11
526.221578
21
316.143808
0
LINE
8
0
10
526.221578
20
316.143808
11
526.217344
21
316.202524
0
LINE
8
0
10
526.217344
20
316.202524
11
526.209442
21
316.257569
0
LINE
8
0
10
526.209442
20
316.257569
11
526.197589
21
316.308945
0
LINE
8
0
10
526.197589
20
316.308945
11
526.182067
21
316.357111
0
LINE
8
0
10
526.182067
20
316.357111
11
526.143543
21
316.444267
0
LINE
8
0
10
526.143543
20
316.444267
11
526.099037
21
316.521791
0
LINE
8
0
10
526.099037
20
316.521791
11
526.048576
21
316.588762
0
LINE
8
0
10
526.048576
20
316.588762
11
525.991708
21
316.645644
0
LINE
8
0
10
525.991000
20
316.646000
11
525.169734
21
315.223040
0
LINE
8
0
10
525.170000
20
315.223000
11
525.145729
21
315.184925
0
LINE
8
0
10
525.145729
20
315.184925
11
525.117789
21
315.149145
0
LINE
8
0
10
525.117789
20
315.149145
11
525.086124
21
315.115660
0
LINE
8
0
10
525.086124
20
315.115660
11
525.050818
21
315.084468
0
LINE
8
0
10
525.050818
20
315.084468
11
525.012266
21
315.055569
0
LINE
8
0
10
525.012266
20
315.055569
11
524.970526
21
315.028955
0
LINE
8
0
10
524.970526
20
315.028955
11
524.924664
21
315.005108
0
LINE
8
0
10
524.924664
20
315.005108
11
524.875586
21
314.983094
0
LINE
8
0
10
524.875586
20
314.983094
11
524.771446
21
314.947771
0
LINE
8
0
10
524.771446
20
314.947771
11
524.663637
21
314.923472
0
LINE
8
0
10
524.663637
20
314.923472
11
524.552188
21
314.911083
0
LINE
8
0
10
524.552188
20
314.911083
11
524.437041
21
314.910236
0
LINE
8
0
10
524.437041
20
314.910236
11
524.379242
21
314.913905
0
LINE
8
0
10
524.379242
20
314.913905
11
524.323729
21
314.920311
0
LINE
8
0
10
524.323729
20
314.920311
11
524.270078
21
314.929484
0
LINE
8
0
10
524.270078
20
314.929484
11
524.218686
21
314.941422
0
LINE
8
0
10
524.218686
20
314.941422
11
524.169156
21
314.956097
0
LINE
8
0
10
524.169156
20
314.956097
11
524.121912
21
314.973538
0
LINE
8
0
10
524.121912
20
314.973538
11
524.076502
21
314.993717
0
LINE
8
0
10
524.076502
20
314.993717
11
524.033379
21
315.016662
0
LINE
8
0
10
526.367000
20
316.504000
11
526.377442
21
316.345284
0
LINE
8
0
10
526.377442
20
316.345284
11
526.377442
21
316.192531
0
LINE
8
0
10
526.377442
20
316.192531
11
526.368693
21
316.045742
0
LINE
8
0
10
526.368693
20
316.045742
11
526.350349
21
315.904459
0
LINE
8
0
10
526.350349
20
315.904459
11
526.322409
21
315.768679
0
LINE
8
0
10
526.322409
20
315.768679
11
526.284789
21
315.638863
0
LINE
8
0
10
526.284789
20
315.638863
11
526.237093
21
315.515010
0
LINE
8
0
10
526.237093
20
315.515010
11
526.180197
21
315.396660
0
LINE
8
0
10
526.143000
20
378.113000
11
526.119576
21
378.102445
0
LINE
8
0
10
526.119576
20
378.102445
11
526.094740
21
378.096942
0
LINE
8
0
10
526.094740
20
378.096942
11
526.069058
21
378.096942
0
LINE
8
0
10
526.069058
20
378.096942
11
526.042529
21
378.101993
0
LINE
8
0
10
526.042529
20
378.101993
11
526.016847
21
378.111617
0
LINE
8
0
10
526.016847
20
378.111617
11
525.994834
21
378.125390
0
LINE
8
0
10
525.994834
20
378.125390
11
525.975925
21
378.142831
0
LINE
8
0
10
525.975925
20
378.142831
11
525.960685
21
378.164393
0
LINE
8
0
10
525.961000
20
378.165000
11
525.949147
21
378.190231
0
LINE
8
0
10
525.949147
20
378.190231
11
525.943220
21
378.215913
0
LINE
8
0
10
525.943220
20
378.215913
11
525.943220
21
378.242047
0
LINE
8
0
10
525.943220
20
378.242047
11
525.948300
21
378.268660
0
LINE
8
0
10
525.948300
20
378.268660
11
525.957613
21
378.293439
0
LINE
8
0
10
525.957613
20
378.293439
11
525.970878
21
378.315001
0
LINE
8
0
10
525.970878
20
378.315001
11
525.987811
21
378.333345
0
LINE
8
0
10
525.987811
20
378.333345
11
526.008978
21
378.348472
0
LINE
8
0
10
526.008000
20
378.348000
11
526.072685
21
378.391118
0
LINE
8
0
10
526.072685
20
378.391118
11
526.130484
21
378.441119
0
LINE
8
0
10
526.130484
20
378.441119
11
526.180466
21
378.498458
0
LINE
8
0
10
526.180466
20
378.498458
11
526.223589
21
378.562678
0
LINE
8
0
10
526.223589
20
378.562678
11
526.257992
21
378.631486
0
LINE
8
0
10
526.257992
20
378.631486
11
526.282828
21
378.702587
0
LINE
8
0
10
526.282828
20
378.702587
11
526.298068
21
378.776441
0
LINE
8
0
10
526.298068
20
378.776441
11
526.303994
21
378.852588
0
LINE
8
0
10
526.303994
20
378.852588
11
526.299761
21
378.928734
0
LINE
8
0
10
526.299761
20
378.928734
11
526.285932
21
379.002586
0
LINE
8
0
10
526.285932
20
379.002586
11
526.261943
21
379.073686
0
LINE
8
0
10
526.261943
20
379.073686
11
526.227992
21
379.142494
0
LINE
8
0
10
526.228000
20
379.143000
11
526.185328
21
379.206762
0
LINE
8
0
10
526.185328
20
379.206762
11
526.135798
21
379.262724
0
LINE
8
0
10
526.135798
20
379.262724
11
526.079382
21
379.311348
0
LINE
8
0
10
526.079382
20
379.311348
11
526.015600
21
379.352174
0
LINE
8
0
10
526.015600
20
379.352174
11
525.946794
21
379.384743
0
LINE
8
0
10
525.946794
20
379.384743
11
525.875251
21
379.407687
0
LINE
8
0
10
525.875251
20
379.407687
11
525.801393
21
379.421911
0
LINE
8
0
10
525.801393
20
379.421911
11
525.724798
21
379.426512
0
LINE
8
0
10
525.724798
20
379.426512
11
525.647723
21
379.421460
0
LINE
8
0
10
525.647723
20
379.421460
11
525.572963
21
379.406333
0
LINE
8
0
10
525.572963
20
379.406333
11
525.500939
21
379.381554
0
LINE
8
0
10
525.500939
20
379.381554
11
525.431202
21
379.346691
0
LINE
8
0
10
525.432000
20
379.346000
11
524.695401
21
378.921538
0
LINE
8
0
10
524.696000
20
378.922000
11
524.831467
21
378.688602
0
LINE
8
0
10
524.831000
20
378.689000
11
524.037956
21
378.697184
0
LINE
8
0
10
524.038000
20
378.697000
11
524.427466
21
379.386186
0
LINE
8
0
10
524.428000
20
379.386000
11
524.560644
21
379.156836
0
LINE
8
0
10
524.560000
20
379.157000
11
525.296599
21
379.581462
0
LINE
8
0
10
526.456000
20
379.274000
11
526.483093
21
379.223542
0
LINE
8
0
10
526.483093
20
379.223542
11
526.505953
21
379.172623
0
LINE
8
0
10
526.505953
20
379.172623
11
526.525709
21
379.120790
0
LINE
8
0
10
526.525709
20
379.120790
11
526.541796
21
379.068037
0
LINE
8
0
10
526.541796
20
379.068037
11
526.553649
21
379.014367
0
LINE
8
0
10
526.553649
20
379.014367
11
526.562398
21
378.959780
0
LINE
8
0
10
526.562398
20
378.959780
11
526.566913
21
378.904735
0
LINE
8
0
10
526.566913
20
378.904735
11
526.566913
21
378.848770
0
LINE
8
0
10
526.566913
20
378.848770
11
526.564091
21
378.792809
0
LINE
8
0
10
526.564091
20
378.792809
11
526.558164
21
378.737761
0
LINE
8
0
10
526.558164
20
378.737761
11
526.548851
21
378.683634
0
LINE
8
0
10
526.548851
20
378.683634
11
526.535869
21
378.629964
0
LINE
8
0
10
526.535869
20
378.629964
11
526.519782
21
378.577671
0
LINE
8
0
10
526.519782
20
378.577671
11
526.500591
21
378.526295
0
LINE
8
0
10
526.500591
20
378.526295
11
526.478013
21
378.475377
0
LINE
8
0
10
526.478013
20
378.475377
11
526.451767
21
378.425835
0
LINE
8
0
10
526.451767
20
378.425835
11
526.422416
21
378.377671
0
LINE
8
0
10
526.422416
20
378.377671
11
526.390299
21
378.332259
0
LINE
8
0
10
526.390299
20
378.332259
11
526.355896
21
378.289598
0
LINE
8
0
10
526.355896
20
378.289598
11
526.318276
21
378.248772
0
LINE
8
0
10
526.318276
20
378.248772
11
526.277918
21
378.211158
0
LINE
8
0
10
526.277918
20
378.211158
11
526.234794
21
378.175838
0
LINE
8
0
10
526.234794
20
378.175838
11
526.188933
21
378.143266
0
LINE
8
0
10
526.188933
20
378.143266
11
526.140306
21
378.112992
0
LINE
8
0
10
525.296000
20
379.581000
11
525.346461
21
379.608065
0
LINE
8
0
10
525.346461
20
379.608065
11
525.397374
21
379.631461
0
LINE
8
0
10
525.397374
20
379.631461
11
525.449670
21
379.651189
0
LINE
8
0
10
525.449670
20
379.651189
11
525.502417
21
379.667247
0
LINE
8
0
10
525.502417
20
379.667247
11
525.556096
21
379.680088
0
LINE
8
0
10
525.556096
20
379.680088
11
525.610226
21
379.688809
0
LINE
8
0
10
525.610226
20
379.688809
11
525.665739
21
379.694312
0
LINE
8
0
10
525.665739
20
379.694312
11
525.721704
21
379.695723
0
LINE
8
0
10
525.721704
20
379.695723
11
525.777668
21
379.693748
0
LINE
8
0
10
525.777668
20
379.693748
11
525.832702
21
379.688244
0
LINE
8
0
10
525.832702
20
379.688244
11
525.886832
21
379.679524
0
LINE
8
0
10
525.886832
20
379.679524
11
525.940031
21
379.667134
0
LINE
8
0
10
525.940031
20
379.667134
11
525.992326
21
379.651527
0
LINE
8
0
10
525.992326
20
379.651527
11
526.043719
21
379.632731
0
LINE
8
0
10
526.043719
20
379.632731
11
526.094632
21
379.610266
0
LINE
8
0
10
526.094632
20
379.610266
11
526.144162
21
379.584104
0
LINE
8
0
10
526.144162
20
379.584104
11
526.192337
21
379.555205
0
LINE
8
0
10
526.192337
20
379.555205
11
526.237746
21
379.523096
0
LINE
8
0
10
526.237746
20
379.523096
11
526.280418
21
379.488691
0
LINE
8
0
10
526.280418
20
379.488691
11
526.320776
21
379.451076
0
LINE
8
0
10
526.320776
20
379.451076
11
526.358848
21
379.411170
0
LINE
8
0
10
526.358848
20
379.411170
11
526.393702
21
379.368049
0
LINE
8
0
10
526.393702
20
379.368049
11
526.426271
21
379.322637
0
LINE
8
0
10
526.426271
20
379.322637
11
526.456553
21
379.274013
0
LINE
8
0
10
524.373000
20
333.785000
11
524.334025
21
333.809299
0
LINE
8
0
10
524.334025
20
333.809299
11
524.298239
21
333.835433
0
LINE
8
0
10
524.298239
20
333.835433
11
524.266123
21
333.862950
0
LINE
8
0
10
524.266123
20
333.862950
11
524.236771
21
333.892309
0
LINE
8
0
10
524.236771
20
333.892309
11
524.211089
21
333.923501
0
LINE
8
0
10
524.211089
20
333.923501
11
524.189076
21
333.956529
0
LINE
8
0
10
524.189076
20
333.956529
11
524.169885
21
333.990932
0
LINE
8
0
10
524.169885
20
333.990932
11
524.154363
21
334.027172
0
LINE
8
0
10
524.154363
20
334.027172
11
524.142509
21
334.063869
0
LINE
8
0
10
524.142509
20
334.063869
11
524.135172
21
334.101024
0
LINE
8
0
10
524.135172
20
334.101024
11
524.132349
21
334.137721
0
LINE
8
0
10
524.132349
20
334.137721
11
524.132349
21
334.174878
0
LINE
8
0
10
524.132349
20
334.174878
11
524.138276
21
334.211576
0
LINE
8
0
10
524.138276
20
334.211576
11
524.148436
21
334.248730
0
LINE
8
0
10
524.148436
20
334.248730
11
524.163111
21
334.285427
0
LINE
8
0
10
524.163111
20
334.285427
11
524.182303
21
334.322585
0
LINE
8
0
10
525.327000
20
334.526000
11
525.367358
21
334.500769
0
LINE
8
0
10
525.367358
20
334.500769
11
525.404047
21
334.473253
0
LINE
8
0
10
525.404047
20
334.473253
11
525.436615
21
334.444353
0
LINE
8
0
10
525.436615
20
334.444353
11
525.465514
21
334.412702
0
LINE
8
0
10
525.465514
20
334.412702
11
525.491197
21
334.379674
0
LINE
8
0
10
525.491197
20
334.379674
11
525.512646
21
334.344354
0
LINE
8
0
10
525.512646
20
334.344354
11
525.530143
21
334.307196
0
LINE
8
0
10
525.530143
20
334.307196
11
525.544254
21
334.268207
0
LINE
8
0
10
525.545000
20
334.268000
11
526.693640
21
336.261050
0
LINE
8
0
10
526.694000
20
336.262000
11
526.798422
21
336.202451
0
LINE
8
0
10
526.798000
20
336.202000
11
525.522360
21
333.992480
0
LINE
8
0
10
525.522000
20
333.992000
11
525.497729
21
333.953928
0
LINE
8
0
10
525.497729
20
333.953928
11
525.469281
21
333.918148
0
LINE
8
0
10
525.469281
20
333.918148
11
525.437644
21
333.884663
0
LINE
8
0
10
525.437644
20
333.884663
11
525.402310
21
333.853011
0
LINE
8
0
10
525.402310
20
333.853011
11
525.363335
21
333.824569
0
LINE
8
0
10
525.363335
20
333.824569
11
525.320663
21
333.797956
0
LINE
8
0
10
525.320663
20
333.797956
11
525.274802
21
333.773656
0
LINE
8
0
10
525.274802
20
333.773656
11
525.224792
21
333.751643
0
LINE
8
0
10
525.224792
20
333.751643
11
525.119749
21
333.715863
0
LINE
8
0
10
525.119749
20
333.715863
11
525.010586
21
333.691084
0
LINE
8
0
10
525.010586
20
333.691084
11
524.898205
21
333.678694
0
LINE
8
0
10
524.898205
20
333.678694
11
524.781676
21
333.677283
0
LINE
8
0
10
524.781676
20
333.677283
11
524.723425
21
333.680952
0
LINE
8
0
10
524.723425
20
333.680952
11
524.667009
21
333.687387
0
LINE
8
0
10
524.667009
20
333.687387
11
524.612879
21
333.696559
0
LINE
8
0
10
524.612879
20
333.696559
11
524.561035
21
333.708497
0
LINE
8
0
10
524.561035
20
333.708497
11
524.511025
21
333.723624
0
LINE
8
0
10
524.511025
20
333.723624
11
524.462878
21
333.741065
0
LINE
8
0
10
524.462878
20
333.741065
11
524.416989
21
333.761696
0
LINE
8
0
10
524.416989
20
333.761696
11
524.372962
21
333.785092
0
LINE
8
0
10
524.184000
20
334.323000
11
524.209682
21
334.363823
0
LINE
8
0
10
524.209682
20
334.363823
11
524.238102
21
334.401898
0
LINE
8
0
10
524.238102
20
334.401898
11
524.269767
21
334.437678
0
LINE
8
0
10
524.269767
20
334.437678
11
524.303719
21
334.471164
0
LINE
8
0
10
524.303719
20
334.471164
11
524.341311
21
334.501898
0
LINE
8
0
10
524.341311
20
334.501898
11
524.381217
21
334.530337
0
LINE
8
0
10
524.381217
20
334.530337
11
524.424340
21
334.556499
0
LINE
8
0
10
524.424340
20
334.556499
11
524.470230
21
334.580347
0
LINE
8
0
10
524.470230
20
334.580347
11
524.517925
21
334.600977
0
LINE
8
0
10
524.517925
20
334.600977
11
524.567455
21
334.618870
0
LINE
8
0
10
524.567455
20
334.618870
11
524.617916
21
334.633094
0
LINE
8
0
10
524.617916
20
334.633094
11
524.669309
21
334.644553
0
LINE
8
0
10
524.669309
20
334.644553
11
524.722508
21
334.652822
0
LINE
8
0
10
524.722508
20
334.652822
11
524.776638
21
334.657873
0
LINE
8
0
10
524.776638
20
334.657873
11
524.832151
21
334.659567
0
LINE
8
0
10
524.832151
20
334.659567
11
524.889019
21
334.658156
0
LINE
8
0
10
524.889019
20
334.658156
11
524.945915
21
334.653555
0
LINE
8
0
10
524.945915
20
334.653555
11
525.002331
21
334.645766
0
LINE
8
0
10
525.002331
20
334.645766
11
525.058296
21
334.634308
0
LINE
8
0
10
525.058296
20
334.634308
11
525.113329
21
334.619181
0
LINE
8
0
10
525.113329
20
334.619181
11
525.167459
21
334.601288
0
LINE
8
0
10
525.167459
20
334.601288
11
525.221589
21
334.579726
0
LINE
8
0
10
525.221589
20
334.579726
11
525.274816
21
334.554495
0
LINE
8
0
10
525.274816
20
334.554495
11
525.327112
21
334.526053
0
LINE
8
0
10
527.896000
20
405.909000
11
527.896000
21
405.907000
0
LINE
8
0
10
527.897000
20
405.907000
11
527.909700
21
405.985525
0
LINE
8
0
10
527.909700
20
405.985525
11
527.921553
21
406.054972
0
LINE
8
0
10
527.921553
20
406.054972
11
527.930584
21
406.115333
0
LINE
8
0
10
527.930584
20
406.115333
11
527.938487
21
406.167149
0
LINE
8
0
10
527.938487
20
406.167149
11
527.944413
21
406.210420
0
LINE
8
0
10
527.944413
20
406.210420
11
527.949211
21
406.244072
0
LINE
8
0
10
527.949211
20
406.244072
11
527.952033
21
406.269190
0
LINE
8
0
10
527.952033
20
406.269190
11
527.952033
21
406.285756
0
LINE
8
0
10
528.368000
20
406.116000
11
528.356711
21
406.075924
0
LINE
8
0
10
528.358000
20
406.076000
11
528.335704
21
405.991062
0
LINE
8
0
10
528.335704
20
405.991062
11
528.315949
21
405.909867
0
LINE
8
0
10
528.315949
20
405.909867
11
528.298451
21
405.832408
0
LINE
8
0
10
528.298451
20
405.832408
11
528.282929
21
405.759226
0
LINE
8
0
10
528.282929
20
405.759226
11
528.270229
21
405.690315
0
LINE
8
0
10
528.270229
20
405.690315
11
528.259505
21
405.625145
0
LINE
8
0
10
528.259505
20
405.625145
11
528.251602
21
405.563713
0
LINE
8
0
10
528.251602
20
405.563713
11
528.245676
21
405.506555
0
LINE
8
0
10
528.245676
20
405.506555
11
528.237774
21
405.401853
0
LINE
8
0
10
528.237774
20
405.401853
11
528.231847
21
405.307836
0
LINE
8
0
10
528.231847
20
405.307836
11
528.228178
21
405.223969
0
LINE
8
0
10
528.228178
20
405.223969
11
528.228178
21
405.150786
0
LINE
8
0
10
528.226000
20
405.151000
11
528.228822
21
405.091172
0
LINE
8
0
10
528.228822
20
405.091172
11
528.236160
21
405.022262
0
LINE
8
0
10
528.236160
20
405.022262
11
528.248013
21
404.943736
0
LINE
8
0
10
528.248013
20
404.943736
11
528.264664
21
404.856129
0
LINE
8
0
10
528.264000
20
404.856000
11
528.268233
21
404.826084
0
LINE
8
0
10
528.268233
20
404.826084
11
528.268233
21
404.802039
0
LINE
8
0
10
528.269000
20
404.802000
11
528.264202
21
404.779563
0
LINE
8
0
10
528.264202
20
404.779563
11
528.249244
21
404.753373
0
LINE
8
0
10
528.249244
20
404.753373
11
528.224691
21
404.723461
0
LINE
8
0
10
528.224691
20
404.723461
11
528.189978
21
404.689806
0
LINE
8
0
10
528.189978
20
404.689806
11
528.149902
21
404.658823
0
LINE
8
0
10
528.149902
20
404.658823
11
528.108246
21
404.636923
0
LINE
8
0
10
528.108246
20
404.636923
11
528.065518
21
404.623574
0
LINE
8
0
10
528.065518
20
404.623574
11
528.020645
21
404.619284
0
LINE
8
0
10
528.021000
20
404.620000
11
527.964894
21
404.625870
0
LINE
8
0
10
527.964894
20
404.625870
11
527.916296
21
404.642437
0
LINE
8
0
10
527.916296
20
404.642437
11
527.875148
21
404.670749
0
LINE
8
0
10
527.875148
20
404.670749
11
527.841507
21
404.710277
0
LINE
8
0
10
527.841507
20
404.710277
11
527.815260
21
404.760493
0
LINE
8
0
10
527.815260
20
404.760493
11
527.796633
21
404.822458
0
LINE
8
0
10
527.796633
20
404.822458
11
527.785345
21
404.895641
0
LINE
8
0
10
527.785345
20
404.895641
11
527.781676
21
404.980045
0
LINE
8
0
10
527.782000
20
404.980000
11
527.782000
21
405.058525
0
LINE
8
0
10
527.782000
20
405.058525
11
527.786233
21
405.141324
0
LINE
8
0
10
527.786233
20
405.141324
11
527.792724
21
405.228395
0
LINE
8
0
10
527.792724
20
405.228395
11
527.801756
21
405.319208
0
LINE
8
0
10
527.801756
20
405.319208
11
527.813609
21
405.414828
0
LINE
8
0
10
527.813609
20
405.414828
11
527.828002
21
405.514187
0
LINE
8
0
10
527.828002
20
405.514187
11
527.844935
21
405.617286
0
LINE
8
0
10
527.844935
20
405.617286
11
527.864691
21
405.725191
0
LINE
8
0
10
527.866000
20
405.725000
11
527.882651
21
405.819550
0
LINE
8
0
10
527.882651
20
405.819550
11
527.897609
21
405.908760
0
LINE
8
0
10
528.173000
20
406.602000
11
528.230686
21
406.598246
0
LINE
8
0
10
528.230686
20
406.598246
11
528.281458
21
406.587550
0
LINE
8
0
10
528.281458
20
406.587550
11
528.325259
21
406.569403
0
LINE
8
0
10
528.325259
20
406.569403
11
528.362653
21
406.543749
0
LINE
8
0
10
528.362653
20
406.543749
11
528.392569
21
406.513837
0
LINE
8
0
10
528.392569
20
406.513837
11
528.414018
21
406.482318
0
LINE
8
0
10
528.414018
20
406.482318
11
528.426718
21
406.449199
0
LINE
8
0
10
528.426718
20
406.449199
11
528.430951
21
406.413941
0
LINE
8
0
10
528.431000
20
406.414000
11
528.431000
21
406.393708
0
LINE
8
0
10
528.431000
20
406.393708
11
528.428178
21
406.368590
0
LINE
8
0
10
528.428178
20
406.368590
11
528.422816
21
406.338142
0
LINE
8
0
10
528.422816
20
406.338142
11
528.416324
21
406.303420
0
LINE
8
0
10
528.416324
20
406.303420
11
528.407293
21
406.263889
0
LINE
8
0
10
528.407293
20
406.263889
11
528.396569
21
406.219552
0
LINE
8
0
10
528.396569
20
406.219552
11
528.383869
21
406.169872
0
LINE
8
0
10
528.383869
20
406.169872
11
528.368911
21
406.115920
0
LINE
8
0
10
527.953000
20
406.286000
11
527.956669
21
406.350637
0
LINE
8
0
10
527.956669
20
406.350637
11
527.967393
21
406.409932
0
LINE
8
0
10
527.967393
20
406.409932
11
527.985455
21
406.463351
0
LINE
8
0
10
527.985455
20
406.463351
11
528.011138
21
406.511428
0
LINE
8
0
10
528.011138
20
406.511428
11
528.043198
21
406.551492
0
LINE
8
0
10
528.043198
20
406.551492
11
528.081129
21
406.579804
0
LINE
8
0
10
528.081129
20
406.579804
11
528.124393
21
406.596907
0
LINE
8
0
10
528.124393
20
406.596907
11
528.173528
21
406.602777
0
LINE
8
0
10
528.773000
20
407.394000
11
528.765944
21
407.333636
0
LINE
8
0
10
528.765944
20
407.333636
11
528.744496
21
407.277011
0
LINE
8
0
10
528.744496
20
407.277011
11
528.708710
21
407.224128
0
LINE
8
0
10
528.708710
20
407.224128
11
528.659039
21
407.174982
0
LINE
8
0
10
528.659039
20
407.174982
11
528.604542
21
407.133851
0
LINE
8
0
10
528.604542
20
407.133851
11
528.553262
21
407.104468
0
LINE
8
0
10
528.553262
20
407.104468
11
528.506244
21
407.086830
0
LINE
8
0
10
528.506244
20
407.086830
11
528.462979
21
407.080959
0
LINE
8
0
10
528.463000
20
407.081000
11
528.411184
21
407.086334
0
LINE
8
0
10
528.411184
20
407.086334
11
528.362585
21
407.102900
0
LINE
8
0
10
528.362585
20
407.102900
11
528.316640
21
407.130135
0
LINE
8
0
10
528.316640
20
407.130135
11
528.273911
21
407.168596
0
LINE
8
0
10
528.273911
20
407.168596
11
528.238097
21
407.212933
0
LINE
8
0
10
528.238097
20
407.212933
11
528.212415
21
407.256737
0
LINE
8
0
10
528.212415
20
407.256737
11
528.196893
21
407.301074
0
LINE
8
0
10
528.196893
20
407.301074
11
528.191531
21
407.344878
0
LINE
8
0
10
528.192000
20
407.345000
11
528.197362
21
407.405362
0
LINE
8
0
10
528.197362
20
407.405362
11
528.212320
21
407.459317
0
LINE
8
0
10
528.212320
20
407.459317
11
528.238002
21
407.507393
0
LINE
8
0
10
528.238002
20
407.507393
11
528.273280
21
407.549594
0
LINE
8
0
10
528.273280
20
407.549594
11
528.318689
21
407.583782
0
LINE
8
0
10
528.318689
20
407.583782
11
528.372622
21
407.608364
0
LINE
8
0
10
528.372622
20
407.608364
11
528.435670
21
407.623322
0
LINE
8
0
10
528.435670
20
407.623322
11
528.507242
21
407.628119
0
LINE
8
0
10
528.507000
20
407.628000
11
528.563642
21
407.623738
0
LINE
8
0
10
528.563642
20
407.623738
11
528.614922
21
407.610926
0
LINE
8
0
10
528.614922
20
407.610926
11
528.659795
21
407.589025
0
LINE
8
0
10
528.659795
20
407.589025
11
528.699306
21
407.558579
0
LINE
8
0
10
528.699306
20
407.558579
11
528.731366
21
407.522254
0
LINE
8
0
10
528.731366
20
407.522254
11
528.754791
21
407.482723
0
LINE
8
0
10
528.754791
20
407.482723
11
528.768055
21
407.439989
0
LINE
8
0
10
528.768055
20
407.439989
11
528.772853
21
407.394049
0
LINE
8
0
10
522.418000
20
409.789000
11
522.813000
21
409.789000
0
LINE
8
0
10
522.813000
20
410.322000
11
522.418000
21
410.322000
0
LINE
8
0
10
522.813000
20
409.789000
11
522.813000
21
410.322000
0
LINE
8
0
10
522.418000
20
410.322000
11
522.418000
21
409.789000
0
LINE
8
0
10
522.813000
20
279.655000
11
522.418000
21
279.655000
0
LINE
8
0
10
522.813000
20
279.122000
11
522.813000
21
279.655000
0
LINE
8
0
10
522.418000
20
279.122000
11
522.813000
21
279.122000
0
LINE
8
0
10
522.418000
20
279.655000
11
522.418000
21
279.122000
0
LINE
8
0
10
527.081000
20
410.322000
11
527.081000
21
409.789000
0
LINE
8
0
10
532.872000
20
410.322000
11
527.081000
21
410.322000
0
LINE
8
0
10
532.872000
20
409.789000
11
532.872000
21
410.322000
0
LINE
8
0
10
527.081000
20
409.789000
11
532.872000
21
409.789000
0
LINE
8
0
10
527.081000
20
279.655000
11
527.081000
21
279.122000
0
LINE
8
0
10
532.872000
20
279.655000
11
527.081000
21
279.655000
0
LINE
8
0
10
527.081000
20
279.122000
11
532.872000
21
279.122000
0
LINE
8
0
10
532.872000
20
279.122000
11
532.872000
21
279.655000
0
LINE
8
0
10
524.777000
20
398.548000
11
524.730970
21
398.516854
0
LINE
8
0
10
524.730970
20
398.516854
11
524.692221
21
398.480953
0
LINE
8
0
10
524.692221
20
398.480953
11
524.659765
21
398.440360
0
LINE
8
0
10
524.659765
20
398.440360
11
524.634647
21
398.395010
0
LINE
8
0
10
524.634647
20
398.395010
11
524.616867
21
398.348604
0
LINE
8
0
10
524.616867
20
398.348604
11
524.607272
21
398.303356
0
LINE
8
0
10
524.607272
20
398.303356
11
524.604449
21
398.259958
0
LINE
8
0
10
524.604449
20
398.259958
11
524.609812
21
398.217715
0
LINE
8
0
10
524.902000
20
398.620000
11
524.777822
21
398.547751
0
LINE
8
0
10
525.243000
20
398.588000
11
525.205860
21
398.616329
0
LINE
8
0
10
525.205860
20
398.616329
11
525.165841
21
398.637835
0
LINE
8
0
10
525.165841
20
398.637835
11
525.123112
21
398.651918
0
LINE
8
0
10
525.123112
20
398.651918
11
525.077138
21
398.659396
0
LINE
8
0
10
525.077138
20
398.659396
11
525.030938
21
398.660243
0
LINE
8
0
10
525.030938
20
398.660243
11
524.986347
21
398.653667
0
LINE
8
0
10
524.986347
20
398.653667
11
524.942998
21
398.640036
0
LINE
8
0
10
524.942998
20
398.640036
11
524.901088
21
398.619744
0
LINE
8
0
10
525.449000
20
398.405000
11
525.242978
21
398.587880
0
LINE
8
0
10
525.430000
20
398.161000
11
525.449755
21
398.405122
0
LINE
8
0
10
525.088000
20
398.420000
11
525.429489
21
398.161767
0
LINE
8
0
10
525.003000
20
398.444000
11
525.016547
21
398.448318
0
LINE
8
0
10
525.016547
20
398.448318
11
525.034327
21
398.448600
0
LINE
8
0
10
525.034327
20
398.448600
11
525.045333
21
398.445778
0
LINE
8
0
10
525.045333
20
398.445778
11
525.058033
21
398.440105
0
LINE
8
0
10
525.058033
20
398.440105
11
525.071862
21
398.431046
0
LINE
8
0
10
525.071862
20
398.431046
11
525.087102
21
398.419023
0
LINE
8
0
10
524.879000
20
398.372000
11
525.003178
21
398.444249
0
LINE
8
0
10
524.832000
20
398.271000
11
524.832000
21
398.299852
0
LINE
8
0
10
524.832000
20
398.299852
11
524.839902
21
398.328153
0
LINE
8
0
10
524.839902
20
398.328153
11
524.856553
21
398.353468
0
LINE
8
0
10
524.856553
20
398.353468
11
524.879978
21
398.372208
0
LINE
8
0
10
525.198000
20
396.406000
11
524.831111
21
398.271490
0
LINE
8
0
10
526.525000
20
397.178000
11
525.198560
21
396.405841
0
LINE
8
0
10
525.924000
20
397.689000
11
526.525133
21
397.177896
0
LINE
8
0
10
525.952000
20
397.935000
11
525.923778
21
397.689185
0
LINE
8
0
10
525.088000
20
395.949000
11
526.978890
21
397.049380
0
LINE
8
0
10
526.979000
20
397.049000
11
525.951710
21
397.934613
0
LINE
8
0
10
524.608000
20
398.217000
11
525.087777
21
395.948500
0
LINE
8
0
10
525.649000
20
396.928000
11
525.665369
21
396.909543
0
LINE
8
0
10
525.665369
20
396.909543
11
525.689358
21
396.897210
0
LINE
8
0
10
525.689358
20
396.897210
11
525.721023
21
396.890577
0
LINE
8
0
10
525.721023
20
396.890577
11
525.760449
21
396.890013
0
LINE
8
0
10
525.639000
20
396.970000
11
525.644362
21
396.945221
0
LINE
8
0
10
525.644362
20
396.945221
11
525.649442
21
396.928485
0
LINE
8
0
10
525.551000
20
398.438000
11
525.638489
21
396.969320
0
LINE
8
0
10
525.377000
20
398.562000
11
525.411036
21
398.516387
0
LINE
8
0
10
525.411036
20
398.516387
11
525.455260
21
398.479207
0
LINE
8
0
10
525.455260
20
398.479207
11
525.503774
21
398.452255
0
LINE
8
0
10
525.503774
20
398.452255
11
525.550595
21
398.437947
0
LINE
8
0
10
525.516000
20
398.977000
11
525.459386
21
398.937653
0
LINE
8
0
10
525.459386
20
398.937653
11
525.413666
21
398.891484
0
LINE
8
0
10
525.413666
20
398.891484
11
525.379687
21
398.839061
0
LINE
8
0
10
525.379687
20
398.839061
11
525.356827
21
398.780218
0
LINE
8
0
10
525.356827
20
398.780218
11
525.345538
21
398.720071
0
LINE
8
0
10
525.345538
20
398.720071
11
525.345538
21
398.663575
0
LINE
8
0
10
525.345538
20
398.663575
11
525.356262
21
398.610727
0
LINE
8
0
10
525.356262
20
398.610727
11
525.377993
21
398.562153
0
LINE
8
0
10
525.915000
20
398.877000
11
525.881641
21
398.923804
0
LINE
8
0
10
525.881641
20
398.923804
11
525.840945
21
398.961593
0
LINE
8
0
10
525.840945
20
398.961593
11
525.792713
21
398.989973
0
LINE
8
0
10
525.792713
20
398.989973
11
525.737539
21
399.009108
0
LINE
8
0
10
525.737539
20
399.009108
11
525.679712
21
399.018139
0
LINE
8
0
10
525.679712
20
399.018139
11
525.623888
21
399.015881
0
LINE
8
0
10
525.623888
20
399.015881
11
525.569052
21
399.002532
0
LINE
8
0
10
525.569052
20
399.002532
11
525.515966
21
398.977556
0
LINE
8
0
10
525.805000
20
398.480000
11
525.852639
21
398.513926
0
LINE
8
0
10
525.852639
20
398.513926
11
525.891699
21
398.554944
0
LINE
8
0
10
525.891699
20
398.554944
11
525.921275
21
398.602493
0
LINE
8
0
10
525.921275
20
398.602493
11
525.942160
21
398.657134
0
LINE
8
0
10
525.942160
20
398.657134
11
525.952602
21
398.714668
0
LINE
8
0
10
525.952602
20
398.714668
11
525.952602
21
398.770203
0
LINE
8
0
10
525.952602
20
398.770203
11
525.939902
21
398.824198
0
LINE
8
0
10
525.939902
20
398.824198
11
525.915631
21
398.876426
0
LINE
8
0
10
525.770000
20
398.467000
11
525.786651
21
398.471149
0
LINE
8
0
10
525.786651
20
398.471149
11
525.804713
21
398.479728
0
LINE
8
0
10
525.864000
20
397.001000
11
525.770867
21
398.467140
0
LINE
8
0
10
525.813000
20
396.910000
11
525.835578
21
396.927131
0
LINE
8
0
10
525.835578
20
396.927131
11
525.851100
21
396.947761
0
LINE
8
0
10
525.851100
20
396.947761
11
525.860696
21
396.972456
0
LINE
8
0
10
525.860696
20
396.972456
11
525.863518
21
397.001293
0
LINE
8
0
10
525.761000
20
396.890000
11
525.791198
21
396.900104
0
LINE
8
0
10
525.791198
20
396.900104
11
525.813493
21
396.910066
 0 
ENDSEC
 0 
EOF