  0
SECTION
  2
HEADER
  9
$ACADVER
  1
AC1014
  9
$ACADMAINTVER
 70
     9
  9
$DWGCODEPAGE
  3
ANSI_1252
  9
$INSBASE
 10
0.0
 20
0.0
 30
0.0
  9
$EXTMIN
 10
0.0
 20
0.0
 30
0.0
  9
$EXTMAX
 10
1189.0
 20
841.0
 30
0.0
  9
$LIMMIN
 10
0.0
 20
0.0
  9
$LIMMAX
 10
1189.0
 20
841.0
  9
$ORTHOMODE
 70
     0
  9
$REGENMODE
 70
     1
  9
$FILLMODE
 70
     1
  9
$QTEXTMODE
 70
     0
  9
$MIRRTEXT
 70
     1
  9
$DRAGMODE
 70
     2
  9
$LTSCALE
 40
1.0
  9
$OSMODE
 70
    37
  9
$ATTMODE
 70
     1
  9
$TEXTSIZE
 40
3.5
  9
$TRACEWID
 40
1.0
  9
$TEXTSTYLE
  7
STANDARD
  9
$CLAYER
  8
0
  9
$CELTYPE
  6
BYLAYER
  9
$CECOLOR
 62
   256
  9
$CELTSCALE
 40
1.0
  9
$DELOBJ
 70
     1
  9
$DISPSILH
 70
     0
  9
$DIMSCALE
 40
1.0
  9
$DIMASZ
 40
3.302
  9
$DIMEXO
 40
1.0
  9
$DIMDLI
 40
3.75
  9
$DIMRND
 40
0.0
  9
$DIMDLE
 40
0.0
  9
$DIMEXE
 40
1.0
  9
$DIMTP
 40
0.0
  9
$DIMTM
 40
0.0
  9
$DIMTXT
 40
3.5
  9
$DIMCEN
 40
2.5
  9
$DIMTSZ
 40
0.0
  9
$DIMTOL
 70
     0
  9
$DIMLIM
 70
     0
  9
$DIMTIH
 70
     1
  9
$DIMTOH
 70
     1
  9
$DIMSE1
 70
     0
  9
$DIMSE2
 70
     0
  9
$DIMTAD
 70
     1
  9
$DIMZIN
 70
     1
  9
$DIMBLK
  1

  9
$DIMASO
 70
     1
  9
$DIMSHO
 70
     1
  9
$DIMPOST
  1

  9
$DIMAPOST
  1

  9
$DIMALT
 70
     0
  9
$DIMALTD
 70
     3
  9
$DIMALTF
 40
0.0393700787
  9
$DIMLFAC
 40
0.5
  9
$DIMTOFL
 70
     1
  9
$DIMTVP
 40
0.0
  9
$DIMTIX
 70
     0
  9
$DIMSOXD
 70
     0
  9
$DIMSAH
 70
     0
  9
$DIMBLK1
  1

  9
$DIMBLK2
  1

  9
$DIMSTYLE
  2
ISO-25
  9
$DIMCLRD
 70
     0
  9
$DIMCLRE
 70
     0
  9
$DIMCLRT
 70
     0
  9
$DIMTFAC
 40
1.0
  9
$DIMGAP
 40
1.524
  9
$DIMJUST
 70
     0
  9
$DIMSD1
 70
     0
  9
$DIMSD2
 70
     0
  9
$DIMTOLJ
 70
     0
  9
$DIMTZIN
 70
     1
  9
$DIMALTZ
 70
     0
  9
$DIMALTTZ
 70
     0
  9
$DIMFIT
 70
     3
  9
$DIMUPT
 70
     0
  9
$DIMUNIT
 70
     2
  9
$DIMDEC
 70
     2
  9
$DIMTDEC
 70
     2
  9
$DIMALTU
 70
     2
  9
$DIMALTTD
 70
     3
  9
$DIMTXSTY
  7
STANDARD
  9
$DIMAUNIT
 70
     0
  9
$LUNITS
 70
     2
  9
$LUPREC
 70
     2
  9
$SKETCHINC
 40
1.0
  9
$FILLETRAD
 40
10.0
  9
$AUNITS
 70
     0
  9
$AUPREC
 70
     2
  9
$MENU
  1
.
  9
$ELEVATION
 40
0.0
  9
$PELEVATION
 40
0.0
  9
$THICKNESS
 40
0.0
  9
$LIMCHECK
 70
     0
  9
$CHAMFERA
 40
0.0
  9
$CHAMFERB
 40
0.0
  9
$CHAMFERC
 40
0.0
  9
$CHAMFERD
 40
0.0
  9
$SKPOLY
 70
     0
  9
$TDCREATE
 40
2460008.358642326
  9
$TDUPDATE
 40
2460008.358642836
  9
$TDINDWG
 40
0.0000000116
  9
$TDUSRTIMER
 40
0.0000000116
  9
$USRTIMER
 70
     1
  9
$ANGBASE
 50
0.0
  9
$ANGDIR
 70
     0
  9
$PDMODE
 70
     0
  9
$PDSIZE
 40
-1.0
  9
$PLINEWID
 40
0.0
  9
$COORDS
 70
     1
  9
$SPLFRAME
 70
     0
  9
$SPLINETYPE
 70
     6
  9
$SPLINESEGS
 70
     8
  9
$ATTDIA
 70
     0
  9
$ATTREQ
 70
     1
  9
$HANDLING
 70
     1
  9
$HANDSEED
  5
154
  9
$SURFTAB1
 70
     6
  9
$SURFTAB2
 70
     6
  9
$SURFTYPE
 70
     6
  9
$SURFU
 70
     6
  9
$SURFV
 70
     6
  9
$UCSNAME
  2

  9
$UCSORG
 10
0.0
 20
0.0
 30
0.0
  9
$UCSXDIR
 10
1.0
 20
0.0
 30
0.0
  9
$UCSYDIR
 10
0.0
 20
1.0
 30
0.0
  9
$PUCSNAME
  2

  9
$PUCSORG
 10
0.0
 20
0.0
 30
0.0
  9
$PUCSXDIR
 10
1.0
 20
0.0
 30
0.0
  9
$PUCSYDIR
 10
0.0
 20
1.0
 30
0.0
  9
$USERI1
 70
     0
  9
$USERI2
 70
     0
  9
$USERI3
 70
     0
  9
$USERI4
 70
     0
  9
$USERI5
 70
     0
  9
$USERR1
 40
0.0
  9
$USERR2
 40
0.0
  9
$USERR3
 40
0.0
  9
$USERR4
 40
0.0
  9
$USERR5
 40
0.0
  9
$WORLDVIEW
 70
     1
  9
$SHADEDGE
 70
     3
  9
$SHADEDIF
 70
    70
  9
$TILEMODE
 70
     1
  9
$MAXACTVP
 70
    64
  9
$PINSBASE
 10
0.0
 20
0.0
 30
0.0
  9
$PLIMCHECK
 70
     0
  9
$PEXTMIN
 10
1.0000000000E+20
 20
1.0000000000E+20
 30
1.0000000000E+20
  9
$PEXTMAX
 10
-1.0000000000E+20
 20
-1.0000000000E+20
 30
-1.0000000000E+20
  9
$PLIMMIN
 10
0.0
 20
0.0
  9
$PLIMMAX
 10
420.0
 20
297.0
  9
$UNITMODE
 70
     0
  9
$VISRETAIN
 70
     1
  9
$PLINEGEN
 70
     0
  9
$PSLTSCALE
 70
     1
  9
$TREEDEPTH
 70
  3020
  9
$PICKSTYLE
 70
     1
  9
$CMLSTYLE
  2
STANDARD
  9
$CMLJUST
 70
     0
  9
$CMLSCALE
 40
20.0
  9
$PROXYGRAPHICS
 70
     1
  9
$MEASUREMENT
 70
     1
  0
ENDSEC
  0
SECTION
  2
CLASSES
  0
CLASS
  1
ACDBDICTIONARYWDFLT
  2
AcDbDictionaryWithDefault
  3
ObjectDBX Classes
 90
        0
280
     0
281
     0
  0
CLASS
  1
VISUALSTYLE
  2
AcDbVisualStyle
  3
ObjectDBX Classes
 90
     4095
280
     0
281
     0
  0
CLASS
  1
MATERIAL
  2
AcDbMaterial
  3
ObjectDBX Classes
 90
     1153
280
     0
281
     0
  0
CLASS
  1
SCALE
  2
AcDbScale
  3
ObjectDBX Classes
 90
     1153
280
     0
281
     0
  0
CLASS
  1
TABLESTYLE
  2
AcDbTableStyle
  3
ObjectDBX Classes
 90
     4095
280
     0
281
     0
  0
CLASS
  1
MLEADERSTYLE
  2
AcDbMLeaderStyle
  3
ACDB_MLEADERSTYLE_CLASS
 90
     4095
280
     0
281
     0
  0
CLASS
  1
SUN
  2
AcDbSun
  3
SCENEOE
 90
     1153
280
     0
281
     0
  0
CLASS
  1
XRECORD
  2
AcDbXrecord
  3
ObjectDBX Classes
 90
        0
280
     0
281
     0
  0
CLASS
  1
LWPOLYLINE
  2
AcDbPolyline
  3
ObjectDBX Classes
 90
        0
280
     0
281
     1
  0
CLASS
  1
HATCH
  2
AcDbHatch
  3
ObjectDBX Classes
 90
        0
280
     0
281
     1
  0
ENDSEC
  0
SECTION
  2
TABLES
  0
TABLE
  2
VPORT
  5
8
330
0
100
AcDbSymbolTable
 70
     1
  0
VPORT
  5
29
330
8
100
AcDbSymbolTableRecord
100
AcDbViewportTableRecord
  2
*ACTIVE
 70
     0
 10
0.0
 20
0.0
 11
1.0
 21
1.0
 12
594.5
 22
420.5
 13
0.0
 23
0.0
 14
10.0
 24
10.0
 15
10.0
 25
10.0
 16
0.0
 26
0.0
 36
1.0
 17
0.0
 27
0.0
 37
0.0
 40
841.0
 41
1.4137931034
 42
50.0
 43
0.0
 44
0.0
 50
0.0
 51
0.0
 71
     0
 72
  2000
 73
     1
 74
     3
 75
     0
 76
     0
 77
     0
 78
     0
  0
ENDTAB
  0
TABLE
  2
LTYPE
  5
5
330
0
100
AcDbSymbolTable
 70
     6
  0
LTYPE
  5
14
330
5
100
AcDbSymbolTableRecord
100
AcDbLinetypeTableRecord
  2
BYBLOCK
 70
     0
  3

 72
    65
 73
     0
 40
0.0
  0
LTYPE
  5
15
330
5
100
AcDbSymbolTableRecord
100
AcDbLinetypeTableRecord
  2
BYLAYER
 70
     0
  3

 72
    65
 73
     0
 40
0.0
  0
LTYPE
  5
16
330
5
100
AcDbSymbolTableRecord
100
AcDbLinetypeTableRecord
  2
CONTINUOUS
 70
     0
  3
Solid line
 72
    65
 73
     0
 40
0.0
  0
LTYPE
  5
6E
330
5
100
AcDbSymbolTableRecord
100
AcDbLinetypeTableRecord
  2
HIDDEN
 70
     0
  3
Hidden __ __ __ __ __ __ __ __ __ __ __ __ __ __
 72
    65
 73
     2
 40
1.905
 49
1.27
 74
     0
 49
-0.635
 74
     0
  0
LTYPE
  5
6F
330
5
100
AcDbSymbolTableRecord
100
AcDbLinetypeTableRecord
  2
PHANTOM
 70
     0
  3
Phantom ______  __  __  ______  __  __  ______
 72
    65
 73
     6
 40
12.7
 49
6.35
 74
     0
 49
-1.27
 74
     0
 49
1.27
 74
     0
 49
-1.27
 74
     0
 49
1.27
 74
     0
 49
-1.27
 74
     0
  0
LTYPE
  5
70
330
5
100
AcDbSymbolTableRecord
100
AcDbLinetypeTableRecord
  2
CENTER
 70
     0
  3
Center ____ _ ____ _ ____ _ ____ _ ____ _ ____
 72
    65
 73
     4
 40
10.16
 49
6.35
 74
     0
 49
-1.27
 74
     0
 49
1.27
 74
     0
 49
-1.27
 74
     0
  0
LTYPE
  5
71
330
5
100
AcDbSymbolTableRecord
100
AcDbLinetypeTableRecord
  2
CENTERX2
 70
     0
  3
Center (2x) ________  __  ________  __  _____
 72
    65
 73
     4
 40
20.32
 49
12.7
 74
     0
 49
-2.54
 74
     0
 49
2.54
 74
     0
 49
-2.54
 74
     0
  0
LTYPE
  5
72
330
5
100
AcDbSymbolTableRecord
100
AcDbLinetypeTableRecord
  2
DOT2
 70
     0
  3
Dot (.5x) ........................................
 72
    65
 73
     2
 40
0.635
 49
0.0
 74
     0
 49
-0.635
 74
     0
  0
ENDTAB
  0
TABLE
  2
LAYER
  5
2
330
0
100
AcDbSymbolTable
 70
     1
  0
LAYER
  5
10
330
2
100
AcDbSymbolTableRecord
100
AcDbLayerTableRecord
  2
0
 70
     0
 62
     7
  6
CONTINUOUS
  0
ENDTAB
  0
TABLE
  2
STYLE
  5
3
330
0
100
AcDbSymbolTable
 70
     1
  0
STYLE
  5
11
330
3
100
AcDbSymbolTableRecord
100
AcDbTextStyleTableRecord
  2
STANDARD
 70
     0
 40
0.0
 41
1.0
 50
0.0
 71
     0
 42
3.5
  3
txt
  4

  0
ENDTAB
  0
TABLE
  2
VIEW
  5
6
330
0
100
AcDbSymbolTable
 70
     0
  0
ENDTAB
  0
TABLE
  2
UCS
  5
7
330
0
100
AcDbSymbolTable
 70
     0
  0
ENDTAB
  0
TABLE
  2
APPID
  5
9
330
0
100
AcDbSymbolTable
 70
     1
  0
APPID
  5
12
330
9
100
AcDbSymbolTableRecord
100
AcDbRegAppTableRecord
  2
ACAD
 70
     0
  0
ENDTAB
  0
TABLE
  2
DIMSTYLE
  5
A
330
0
100
AcDbSymbolTable
 70
     1
  0
DIMSTYLE
105
27
330
A
100
AcDbSymbolTableRecord
100
AcDbDimStyleTableRecord
  2
ISO-25
 70
     0
  3

  4

  5

  6

  7

 40
1.0
 41
2.5
 42
0.625
 43
3.75
 44
1.25
 45
0.0
 46
0.0
 47
0.0
 48
0.0
140
2.5
141
2.5
142
0.0
143
0.0393700787
144
1.0
145
0.0
146
1.0
147
0.625
 71
     0
 72
     0
 73
     0
 74
     0
 75
     0
 76
     0
 77
     1
 78
     8
170
     0
171
     3
172
     1
173
     0
174
     0
175
     0
176
     0
177
     0
178
     0
270
     2
271
     2
272
     2
273
     2
274
     3
340
11
275
     0
280
     0
281
     0
282
     0
283
     0
284
     8
285
     0
286
     0
287
     3
288
     0
  0
ENDTAB
  0
TABLE
  2
BLOCK_RECORD
  5
1
330
0
100
AcDbSymbolTable
 70
     1
  0
BLOCK_RECORD
  5
1F
330
1
100
AcDbSymbolTableRecord
100
AcDbBlockTableRecord
  2
*MODEL_SPACE
  0
BLOCK_RECORD
  5
1B
330
1
100
AcDbSymbolTableRecord
100
AcDbBlockTableRecord
  2
*PAPER_SPACE
  0
BLOCK_RECORD
  5
23
330
1
100
AcDbSymbolTableRecord
100
AcDbBlockTableRecord
  2
*PAPER_SPACE0
  0
ENDTAB
  0
ENDSEC
  0
SECTION
  2
BLOCKS
  0
BLOCK
  5
20
330
1F
100
AcDbEntity
  8
0
100
AcDbBlockBegin
  2
*MODEL_SPACE
 70
     0
 10
0.0
 20
0.0
 30
0.0
  3
*MODEL_SPACE
  1

  0
ENDBLK
  5
21
330
1F
100
AcDbEntity
  8
0
100
AcDbBlockEnd
  0
BLOCK
  5
1C
330
1B
100
AcDbEntity
 67
     1
  8
0
100
AcDbBlockBegin
  2
*PAPER_SPACE
 70
     0
 10
0.0
 20
0.0
 30
0.0
  3
*PAPER_SPACE
  1

  0
ENDBLK
  5
1D
330
1B
100
AcDbEntity
 67
     1
  8
0
100
AcDbBlockEnd
  0
BLOCK
  5
24
330
23
100
AcDbEntity
  8
0
100
AcDbBlockBegin
  2
*PAPER_SPACE0
 70
     0
 10
0.0
 20
0.0
 30
0.0
  3
*PAPER_SPACE0
  1

  0
ENDBLK
  5
25
330
23
100
AcDbEntity
  8
0
100
AcDbBlockEnd
  0
ENDSEC
  0
SECTION
  2
ENTITIES
  0
SPLINE
  5
73
330
1F
100
AcDbEntity
  8
0
  6
CONTINUOUS
 62
     7
100
AcDbSpline
210
0.0
220
0.0
230
1.0
 70
     8
 71
     3
 72
    11
 73
     7
 74
     0
 42
0.00000001
 43
0.00000001
 40
0.0
 40
0.0
 40
0.0
 40
0.0
 40
0.2973168248040035
 40
0.6054881794938973
 40
0.8600520710090022
 40
1.0
 40
1.0
 40
1.0
 40
1.0
 10
493.3734129319902
 20
530.6926076367542
 30
0.0
 10
493.3797971976603
 20
530.6964845410629
 30
0.0
 10
493.3927988076451
 20
530.7043798888401
 30
0.0
 10
493.4073737132051
 20
530.7205467624774
 30
0.0
 10
493.4173432580874
 20
530.7349892081388
 30
0.0
 10
493.4230086962081
 20
530.743067615171
 30
0.0
 10
493.4250184365773
 20
530.7459333248278
 30
0.0
  0
LINE
  5
74
330
1F
100
AcDbEntity
  8
0
  6
CONTINUOUS
 62
     7
100
AcDbLine
 10
493.4250184366
 20
530.7459333248
 30
0.0
 11
493.4568418311
 21
530.8005491505
 31
0.0
  0
SPLINE
  5
75
330
1F
100
AcDbEntity
  8
0
  6
CONTINUOUS
 62
     7
100
AcDbSpline
210
0.0
220
0.0
230
1.0
 70
     8
 71
     3
 72
    11
 73
     7
 74
     0
 42
0.00000001
 43
0.00000001
 40
0.0
 40
0.0
 40
0.0
 40
0.0
 40
0.2687359335201039
 40
0.5211094648823882
 40
0.7637071525157669
 40
1.0
 40
1.0
 40
1.0
 40
1.0
 10
493.4568418310727
 20
530.8005491505157
 30
0.0
 10
493.4683838910866
 20
530.8223364017075
 30
0.0
 10
493.490765254973
 20
530.8645843536693
 30
0.0
 10
493.5128605128471
 20
530.9312688892611
 30
0.0
 10
493.5244376276566
 20
530.9976821281826
 30
0.0
 10
493.5229451953725
 20
531.0416250049431
 30
0.0
 10
493.5222088035498
 20
531.0633071780387
 30
0.0
  0
SPLINE
  5
76
330
1F
100
AcDbEntity
  8
0
  6
CONTINUOUS
 62
     7
100
AcDbSpline
210
0.0
220
0.0
230
1.0
 70
     8
 71
     3
 72
    15
 73
    11
 74
     0
 42
0.00000001
 43
0.00000001
 40
0.0
 40
0.0
 40
0.0
 40
0.0
 40
0.1392564768840954
 40
0.2750005943366817
 40
0.4080618300058361
 40
0.5384918873221046
 40
0.6627927220436384
 40
0.7791513971648566
 40
0.8899235657961025
 40
1.0
 40
1.0
 40
1.0
 40
1.0
 10
493.5222088035498
 20
531.0633071780387
 30
0.0
 10
493.5199753908965
 20
531.0885773428653
 30
0.0
 10
493.5155648972463
 20
531.1384803025105
 30
0.0
 10
493.5029988120648
 20
531.2118207975035
 30
0.0
 10
493.4853490509386
 20
531.2824104743236
 30
0.0
 10
493.4631960450835
 20
531.3495621805936
 30
0.0
 10
493.4349205291358
 20
531.4111779741935
 30
0.0
 10
493.3996249123167
 20
531.464864055389
 30
0.0
 10
493.3568860386781
 20
531.5097162310276
 30
0.0
 10
493.3231437643993
 20
531.5318008177546
 30
0.0
 10
493.3063257760268
 20
531.5428083248277
 30
0.0
  0
LINE
  5
77
330
1F
100
AcDbEntity
  8
0
  6
CONTINUOUS
 62
     7
100
AcDbLine
 10
493.306325776
 20
531.5428083248
 30
0.0
 11
493.2822432072
 21
531.5565697927
 31
0.0
  0
SPLINE
  5
78
330
1F
100
AcDbEntity
  8
0
  6
CONTINUOUS
 62
     7
100
AcDbSpline
210
0.0
220
0.0
230
1.0
 70
     8
 71
     3
 72
    11
 73
     7
 74
     0
 42
0.00000001
 43
0.00000001
 40
0.0
 40
0.0
 40
0.0
 40
0.0
 40
0.3530819774715758
 40
0.6190617148537894
 40
0.8160987588949241
 40
1.0
 40
1.0
 40
1.0
 40
1.0
 10
493.2822432072196
 20
531.5565697927176
 30
0.0
 10
493.2774648644443
 20
531.5592984575385
 30
0.0
 10
493.2690869543231
 20
531.5640826494005
 30
0.0
 10
493.2568813198873
 20
531.566842741839
 30
0.0
 10
493.2460634484547
 20
531.5664264939572
 30
0.0
 10
493.2423307500241
 20
531.5615191368805
 30
0.0
 10
493.2405287576782
 20
531.5591500679469
 30
0.0
  0
SPLINE
  5
79
330
1F
100
AcDbEntity
  8
0
  6
CONTINUOUS
 62
     7
100
AcDbSpline
210
0.0
220
0.0
230
1.0
 70
     8
 71
     3
 72
    11
 73
     7
 74
     0
 42
0.00000001
 43
0.00000001
 40
0.0
 40
0.0
 40
0.0
 40
0.0
 40
0.238264524261925
 40
0.5044245814055657
 40
0.7830536636991264
 40
1.0
 40
1.0
 40
1.0
 40
1.0
 10
493.2405287576782
 20
531.5591500679469
 30
0.0
 10
493.239086752788
 20
531.5584249564367
 30
0.0
 10
493.2360339159654
 20
531.5568898388141
 30
0.0
 10
493.2344647481299
 20
531.5516892907252
 30
0.0
 10
493.2330459727011
 20
531.5470238979691
 30
0.0
 10
493.2316700718562
 20
531.5440918690033
 30
0.0
 10
493.231067748504
 20
531.5428083248277
 30
0.0
  0
SPLINE
  5
7A
330
1F
100
AcDbEntity
  8
0
  6
CONTINUOUS
 62
     7
100
AcDbSpline
210
0.0
220
0.0
230
1.0
 70
     8
 71
     3
 72
    15
 73
    11
 74
     0
 42
0.00000001
 43
0.00000001
 40
0.0
 40
0.0
 40
0.0
 40
0.0
 40
0.1363308409967239
 40
0.2603719473952404
 40
0.3731532001280088
 40
0.4764957052258945
 40
0.5835238989914062
 40
0.7065646408178239
 40
0.8449969941310891
 40
1.0
 40
1.0
 40
1.0
 40
1.0
 10
493.231067748504
 20
531.5428083248277
 30
0.0
 10
493.2262916835807
 20
531.5240979545896
 30
0.0
 10
493.2171700987959
 20
531.4883638866428
 30
0.0
 10
493.2093080781651
 20
531.4360803457383
 30
0.0
 10
493.2047307719672
 20
531.3880736938489
 30
0.0
 10
493.2063743876899
 20
531.3422486620536
 30
0.0
 10
493.2122047503679
 20
531.2954001168431
 30
0.0
 10
493.2202843221444
 20
531.243858540162
 30
0.0
 10
493.2320754201792
 20
531.1860768019448
 30
0.0
 10
493.2418278598408
 20
531.1457014110349
 30
0.0
 10
493.2469794457516
 20
531.1243736918002
 30
0.0
  0
SPLINE
  5
7B
330
1F
100
AcDbEntity
  8
0
  6
CONTINUOUS
 62
     7
100
AcDbSpline
210
0.0
220
0.0
230
1.0
 70
     8
 71
     3
 72
    11
 73
     7
 74
     0
 42
0.00000001
 43
0.00000001
 40
0.0
 40
0.0
 40
0.0
 40
0.0
 40
0.3027191670129197
 40
0.5705626301114912
 40
0.8036497688780151
 40
1.0
 40
1.0
 40
1.0
 40
1.0
 10
493.2469794457516
 20
531.1243736918002
 30
0.0
 10
493.2510501498089
 20
531.1089066795602
 30
0.0
 10
493.2587225797917
 20
531.0797545803696
 30
0.0
 10
493.2686745938569
 20
531.0384734709326
 30
0.0
 10
493.2763686612428
 20
531.0024429285252
 30
0.0
 10
493.280695092986
 20
530.9801706872645
 30
0.0
 10
493.282673253091
 20
530.9699872239103
 30
0.0
  0
SPLINE
  5
7C
330
1F
100
AcDbEntity
  8
0
  6
CONTINUOUS
 62
     7
100
AcDbSpline
210
0.0
220
0.0
230
1.0
 70
     8
 71
     3
 72
    11
 73
     7
 74
     0
 42
0.00000001
 43
0.00000001
 40
0.0
 40
0.0
 40
0.0
 40
0.0
 40
0.2720343307922318
 40
0.5307155910749548
 40
0.7725447609324817
 40
1.0
 40
1.0
 40
1.0
 40
1.0
 10
493.282673253091
 20
530.9699872239103
 30
0.0
 10
493.2872414407441
 20
530.9472187759584
 30
0.0
 10
493.2961535821029
 20
530.9027994915342
 30
0.0
 10
493.3070593497375
 20
530.8377412120266
 30
0.0
 10
493.3143877837927
 20
530.7760064295601
 30
0.0
 10
493.3173576539781
 20
530.7360543768831
 30
0.0
 10
493.3187971063021
 20
530.7166902055617
 30
0.0
  0
SPLINE
  5
7D
330
1F
100
AcDbEntity
  8
0
  6
CONTINUOUS
 62
     7
100
AcDbSpline
210
0.0
220
0.0
230
1.0
 70
     8
 71
     3
 72
     9
 73
     5
 74
     0
 42
0.00000001
 43
0.00000001
 40
0.0
 40
0.0
 40
0.0
 40
0.0
 40
0.4337254486981947
 40
1.0
 40
1.0
 40
1.0
 40
1.0
 10
493.3187971063021
 20
530.7166902055617
 30
0.0
 10
493.3186775328755
 20
530.7125280831476
 30
0.0
 10
493.3184018436651
 20
530.702931868707
 30
0.0
 10
493.3268911846767
 20
530.6979876801439
 30
0.0
 10
493.3316984824489
 20
530.6951879119837
 30
0.0
  0
SPLINE
  5
7E
330
1F
100
AcDbEntity
  8
0
  6
CONTINUOUS
 62
     7
100
AcDbSpline
210
0.0
220
0.0
230
1.0
 70
     8
 71
     3
 72
    11
 73
     7
 74
     0
 42
0.00000001
 43
0.00000001
 40
0.0
 40
0.0
 40
0.0
 40
0.0
 40
0.2377266171853279
 40
0.5305083639574776
 40
0.8007268252279437
 40
1.0
 40
1.0
 40
1.0
 40
1.0
 10
493.3316984824489
 20
530.6951879119837
 30
0.0
 10
493.3348033726229
 20
530.6937201569042
 30
0.0
 10
493.3417322147778
 20
530.6904447292085
 30
0.0
 10
493.353290283249
 20
530.689506171744
 30
0.0
 10
493.3643676403785
 20
530.6892014024725
 30
0.0
 10
493.3707176885398
 20
530.6915926743814
 30
0.0
 10
493.3734129319902
 20
530.6926076367542
 30
0.0
  0
SPLINE
  5
7F
330
1F
100
AcDbEntity
  8
0
  6
CONTINUOUS
 62
     7
100
AcDbSpline
210
0.0
220
0.0
230
1.0
 70
     8
 71
     3
 72
    23
 73
    19
 74
     0
 42
0.00000001
 43
0.00000001
 40
0.0
 40
0.0
 40
0.0
 40
0.0
 40
0.0719593127318972
 40
0.1407215006553004
 40
0.2078754503267522
 40
0.2722584208089461
 40
0.3348361357595628
 40
0.397261056278543
 40
0.4585322032354485
 40
0.5198423033501361
 40
0.580421147939299
 40
0.6391320200241811
 40
0.697566625431953
 40
0.7551506622088783
 40
0.8133532840692655
 40
0.873085447178283
 40
0.9351694782109896
 40
1.0
 40
1.0
 40
1.0
 40
1.0
 10
491.3027420604305
 20
529.8553083248278
 30
0.0
 10
491.2905605064573
 20
529.8625493233038
 30
0.0
 10
491.2667386203058
 20
529.8767096054565
 30
0.0
 10
491.2339258981586
 20
529.9012394040527
 30
0.0
 10
491.203821524731
 20
529.9267412477865
 30
0.0
 10
491.1770612106923
 20
529.9540714124087
 30
0.0
 10
491.1530197357993
 20
529.9826113282429
 30
0.0
 10
491.1324403049484
 20
530.0130464344987
 30
0.0
 10
491.115296029179
 20
530.0452138744893
 30
0.0
 10
491.1005503955703
 20
530.0781457979467
 30
0.0
 10
491.0892846395893
 20
530.1119341915899
 30
0.0
 10
491.082249359074
 20
530.1462943027143
 30
0.0
 10
491.0797874486444
 20
530.1806791262476
 30
0.0
 10
491.0810790676393
 20
530.2150026510494
 30
0.0
 10
491.0862047048593
 20
530.2492501811079
 30
0.0
 10
491.0958425070528
 20
530.2834266683922
 30
0.0
 10
491.1096806208055
 20
530.317547158196
 30
0.0
 10
491.1216163689997
 20
530.3395047742539
 30
0.0
 10
491.1277133907058
 20
530.3507211688644
 30
0.0
  0
SPLINE
  5
80
330
1F
100
AcDbEntity
  8
0
  6
CONTINUOUS
 62
     7
100
AcDbSpline
210
0.0
220
0.0
230
1.0
 70
     8
 71
     3
 72
    15
 73
    11
 74
     0
 42
0.00000001
 43
0.00000001
 40
0.0
 40
0.0
 40
0.0
 40
0.0
 40
0.1410691943564775
 40
0.2742964807669478
 40
0.4034601199703986
 40
0.5284354354733471
 40
0.6492378366031771
 40
0.7661217787741229
 40
0.882871257898204
 40
1.0
 40
1.0
 40
1.0
 40
1.0
 10
492.1813257760269
 20
530.5408014440937
 30
0.0
 10
492.1940730871733
 20
530.5331189087552
 30
0.0
 10
492.2188590980572
 20
530.5181809032158
 30
0.0
 10
492.2531038868802
 20
530.4928447602887
 30
0.0
 10
492.2842340193653
 20
530.4663242434661
 30
0.0
 10
492.3117162343526
 20
530.4378324234946
 30
0.0
 10
492.336058885377
 20
530.4082481849343
 30
0.0
 10
492.3563299377631
 20
530.3767873438981
 30
0.0
 10
492.3739121620883
 20
530.3441440575664
 30
0.0
 10
492.3825578490944
 20
530.3210183630603
 30
0.0
 10
492.3868877026324
 20
530.3094367651947
 30
0.0
  0
LINE
  5
81
330
1F
100
AcDbEntity
  8
0
  6
CONTINUOUS
 62
     7
100
AcDbLine
 10
492.3868877026
 20
530.3094367652
 30
0.0
 11
493.4688831155
 21
532.1831466276
 31
0.0
  0
LINE
  5
82
330
1F
100
AcDbEntity
  8
0
  6
CONTINUOUS
 62
     7
100
AcDbLine
 10
493.4688831155
 20
532.1831466276
 30
0.0
 11
493.5088773815
 21
532.1599241505
 31
0.0
  0
SPLINE
  5
83
330
1F
100
AcDbEntity
  8
0
  6
CONTINUOUS
 62
     7
100
AcDbSpline
210
0.0
220
0.0
230
1.0
 70
     8
 71
     3
 72
    11
 73
     7
 74
     0
 42
0.00000001
 43
0.00000001
 40
0.0
 40
0.0
 40
0.0
 40
0.0
 40
0.247570150741752
 40
0.4986958873871815
 40
0.7512165932267012
 40
1.0
 40
1.0
 40
1.0
 40
1.0
 10
493.5088773815314
 20
532.1599241505158
 30
0.0
 10
493.5139520169345
 20
532.1564226848878
 30
0.0
 10
493.5241741693141
 20
532.1493694658172
 30
0.0
 10
493.5358907116934
 20
532.1346079874987
 30
0.0
 10
493.5430666230367
 20
532.1167339885017
 30
0.0
 10
493.5417728739118
 20
532.1042119081648
 30
0.0
 10
493.5411308218984
 20
532.0979975450111
 30
0.0
  0
LINE
  5
84
330
1F
100
AcDbEntity
  8
0
  6
CONTINUOUS
 62
     7
100
AcDbLine
 10
493.5411308219
 20
532.097997545
 30
0.0
 11
493.5394106384
 21
532.0949872239
 31
0.0
  0
LINE
  5
85
330
1F
100
AcDbEntity
  8
0
  6
CONTINUOUS
 62
     7
100
AcDbLine
 10
493.5394106384
 20
532.0949872239
 30
0.0
 11
493.5445711889
 21
532.0919769028
 31
0.0
  0
LINE
  5
86
330
1F
100
AcDbEntity
  8
0
  6
CONTINUOUS
 62
     7
100
AcDbLine
 10
493.5445711889
 20
532.0919769028
 30
0.0
 11
493.5355402256
 21
532.0760652056
 31
0.0
  0
SPLINE
  5
87
330
1F
100
AcDbEntity
  8
0
  6
CONTINUOUS
 62
     7
100
AcDbSpline
210
0.0
220
0.0
230
1.0
 70
     8
 71
     3
 72
    15
 73
    11
 74
     0
 42
0.00000001
 43
0.00000001
 40
0.0
 40
0.0
 40
0.0
 40
0.0
 40
0.1464966504872797
 40
0.2780880347586817
 40
0.3953815797038791
 40
0.5018820863050526
 40
0.6093581195143638
 40
0.7271625502830285
 40
0.8580755019399102
 40
1.0
 40
1.0
 40
1.0
 40
1.0
 10
493.5355402255682
 20
532.0760652055617
 30
0.0
 10
493.5279303609146
 20
532.0542648203477
 30
0.0
 10
493.5134848954432
 20
532.0128821248322
 30
0.0
 10
493.4997465969832
 20
531.9520167085049
 30
0.0
 10
493.4926421973518
 20
531.8963686536326
 30
0.0
 10
493.4935604723992
 20
531.8439967562215
 30
0.0
 10
493.5015410902382
 20
531.7922920536223
 30
0.0
 10
493.5120120000316
 20
531.7371544632282
 30
0.0
 10
493.5283339597485
 20
531.677774198867
 30
0.0
 10
493.5412782164815
 20
531.6368000150591
 30
0.0
 10
493.5480115558434
 20
531.6154860771213
 30
0.0
  0
SPLINE
  5
88
330
1F
100
AcDbEntity
  8
0
  6
CONTINUOUS
 62
     7
100
AcDbSpline
210
0.0
220
0.0
230
1.0
 70
     8
 71
     3
 72
    11
 73
     7
 74
     0
 42
0.00000001
 43
0.00000001
 40
0.0
 40
0.0
 40
0.0
 40
0.0
 40
0.3633947280719202
 40
0.6500619356255668
 40
0.8616013503262013
 40
1.0
 40
1.0
 40
1.0
 40
1.0
 10
493.5480115558434
 20
531.6154860771213
 30
0.0
 10
493.5541535833862
 20
531.5967440703968
 30
0.0
 10
493.5651408047318
 20
531.5632172626927
 30
0.0
 10
493.5781589121686
 20
531.5183138525542
 30
0.0
 10
493.5882054097919
 20
531.4852399054686
 30
0.0
 10
493.5923767293316
 20
531.466708498843
 30
0.0
 10
493.5940264641003
 20
531.4593794257452
 30
0.0
  0
SPLINE
  5
89
330
1F
100
AcDbEntity
  8
0
  6
CONTINUOUS
 62
     7
100
AcDbSpline
210
0.0
220
0.0
230
1.0
 70
     8
 71
     3
 72
    19
 73
    15
 74
     0
 42
0.00000001
 43
0.00000001
 40
0.0
 40
0.0
 40
0.0
 40
0.0
 40
0.1016823741600012
 40
0.1959903179249701
 40
0.2820866359350592
 40
0.36068252484619
 40
0.4318046640839338
 40
0.4947886020618991
 40
0.5497657074332931
 40
0.5973943846048373
 40
0.687318549145065
 40
0.7837501726485548
 40
0.8878227627628319
 40
1.0
 40
1.0
 40
1.0
 40
1.0
 10
493.5940264641003
 20
531.4593794257452
 30
0.0
 10
493.5986289483174
 20
531.4393141425061
 30
0.0
 10
493.6075001253764
 20
531.4006387941602
 30
0.0
 10
493.6200224202956
 20
531.3449172729497
 30
0.0
 10
493.6308490682771
 20
531.293608150581
 30
0.0
 10
493.6399091397296
 20
531.246731399511
 30
0.0
 10
493.647282624707
 20
531.2042988801308
 30
0.0
 10
493.6527716473215
 20
531.1664110739027
 30
0.0
 10
493.6572766551608
 20
531.1331880142053
 30
0.0
 10
493.6609893203808
 20
531.0943690099276
 30
0.0
 10
493.6605323346238
 20
531.0468302941989
 30
0.0
 10
493.6522572543824
 20
530.9885142783729
 30
0.0
 10
493.6378038335645
 20
530.9267470119285
 30
0.0
 10
493.6228538516979
 20
530.8855608245817
 30
0.0
 10
493.6150987118067
 20
530.8641959395067
 30
0.0
  0
SPLINE
  5
8A
330
1F
100
AcDbEntity
  8
0
  6
CONTINUOUS
 62
     7
100
AcDbSpline
210
0.0
220
0.0
230
1.0
 70
     8
 71
     3
 72
    11
 73
     7
 74
     0
 42
0.00000001
 43
0.00000001
 40
0.0
 40
0.0
 40
0.0
 40
0.0
 40
0.1836990727720531
 40
0.4139729487231558
 40
0.6841831659587384
 40
1.0
 40
1.0
 40
1.0
 40
1.0
 10
493.6150987118067
 20
530.8641959395067
 30
0.0
 10
493.6127547714233
 20
530.8581341389554
 30
0.0
 10
493.6074726113258
 20
530.844473637512
 30
0.0
 10
493.5964012855704
 20
530.8229329519297
 30
0.0
 10
493.5831092848055
 20
530.7973203277646
 30
0.0
 10
493.5728775965617
 20
530.7792981891237
 30
0.0
 10
493.5673636200635
 20
530.7695858477636
 30
0.0
  0
SPLINE
  5
8B
330
1F
100
AcDbEntity
  8
0
  6
CONTINUOUS
 62
     7
100
AcDbSpline
210
0.0
220
0.0
230
1.0
 70
     8
 71
     3
 72
    15
 73
    11
 74
     0
 42
0.00000001
 43
0.00000001
 40
0.0
 40
0.0
 40
0.0
 40
0.0
 40
0.151400419939058
 40
0.304337515431206
 40
0.4583881899944485
 40
0.6140759361421836
 40
0.7567824990349714
 40
0.8684264393032265
 40
0.9485371558325343
 40
1.0
 40
1.0
 40
1.0
 40
1.0
 10
493.5673636200635
 20
530.7695858477636
 30
0.0
 10
493.5573729800677
 20
530.7531232492006
 30
0.0
 10
493.5372902976344
 20
530.7200309609083
 30
0.0
 10
493.5036257713122
 20
530.6723944902561
 30
0.0
 10
493.4670912361311
 20
530.6262272213004
 30
0.0
 10
493.4284850588494
 20
530.5835612310883
 30
0.0
 10
493.3924436923447
 20
530.5457967929087
 30
0.0
 10
493.3614215240922
 20
530.5168551496565
 30
0.0
 10
493.3383557988174
 20
530.4958542483183
 30
0.0
 10
493.3233688631933
 20
530.4882858009439
 30
0.0
 10
493.3175069686874
 20
530.4853255266626
 30
0.0
  0
LINE
  5
8C
330
1F
100
AcDbEntity
  8
0
  6
CONTINUOUS
 62
     7
100
AcDbLine
 10
493.3175069687
 20
530.4853255267
 30
0.0
 11
493.2942844916
 21
530.4449012147
 31
0.0
  0
SPLINE
  5
8D
330
1F
100
AcDbEntity
  8
0
  6
CONTINUOUS
 62
     7
100
AcDbSpline
210
0.0
220
0.0
230
1.0
 70
     8
 71
     3
 72
    11
 73
     7
 74
     0
 42
0.00000001
 43
0.00000001
 40
0.0
 40
0.0
 40
0.0
 40
0.0
 40
0.2541197987771992
 40
0.502256667556876
 40
0.7502299097184044
 40
1.0
 40
1.0
 40
1.0
 40
1.0
 10
493.2942844916232
 20
530.444901214736
 30
0.0
 10
493.2922395144194
 20
530.4143974360751
 30
0.0
 10
493.2881977064196
 20
530.3541080517302
 30
0.0
 10
493.2677712835892
 20
530.2660460145582
 30
0.0
 10
493.2388372219659
 20
530.1809307644749
 30
0.0
 10
493.2104692319742
 20
530.1281901253607
 30
0.0
 10
493.1962340329076
 20
530.1017246092315
 30
0.0
  0
LINE
  5
8E
330
1F
100
AcDbEntity
  8
0
  6
CONTINUOUS
 62
     7
100
AcDbLine
 10
493.1962340329
 20
530.1017246092
 30
0.0
 11
493.1652707302
 21
530.0483989212
 31
0.0
  0
SPLINE
  5
8F
330
1F
100
AcDbEntity
  8
0
  6
CONTINUOUS
 62
     7
100
AcDbSpline
210
0.0
220
0.0
230
1.0
 70
     8
 71
     3
 72
    13
 73
     9
 74
     0
 42
0.00000001
 43
0.00000001
 40
0.0
 40
0.0
 40
0.0
 40
0.0
 40
0.325914002002944
 40
0.6447686793031395
 40
0.7848739282714514
 40
0.8916535257058372
 40
0.9627401931773204
 40
1.0
 40
1.0
 40
1.0
 40
1.0
 10
493.1652707301553
 20
530.048398921158
 30
0.0
 10
493.1476506744312
 20
530.0186326563387
 30
0.0
 10
493.1127922148725
 20
529.9597448665006
 30
0.0
 10
493.0681412988579
 20
529.8893916930064
 30
0.0
 10
493.0343142207724
 20
529.8397817402675
 30
0.0
 10
493.0155616619812
 20
529.8117265233553
 30
0.0
 10
493.0014577485985
 20
529.7937056787727
 30
0.0
 10
492.9934320899054
 20
529.7854646282893
 30
0.0
 10
492.9906721063021
 20
529.7826305725341
 30
0.0
  0
SPLINE
  5
90
330
1F
100
AcDbEntity
  8
0
  6
CONTINUOUS
 62
     7
100
AcDbSpline
210
0.0
220
0.0
230
1.0
 70
     8
 71
     3
 72
    11
 73
     7
 74
     0
 42
0.00000001
 43
0.00000001
 40
0.0
 40
0.0
 40
0.0
 40
0.0
 40
0.3163465513991293
 40
0.5734190931211091
 40
0.7966361304057094
 40
1.0
 40
1.0
 40
1.0
 40
1.0
 10
492.9906721063021
 20
529.7826305725341
 30
0.0
 10
492.9833663508999
 20
529.7781651642777
 30
0.0
 10
492.9701237230959
 20
529.7700710335167
 30
0.0
 10
492.9496942813142
 20
529.7630478742574
 30
0.0
 10
492.9306793398755
 20
529.7617863400944
 30
0.0
 10
492.920050918893
 20
529.766582589286
 30
0.0
 10
492.9149840329076
 20
529.7688691046443
 30
0.0
  0
SPLINE
  5
91
330
1F
100
AcDbEntity
  8
0
  6
CONTINUOUS
 62
     7
100
AcDbSpline
210
0.0
220
0.0
230
1.0
 70
     8
 71
     3
 72
     9
 73
     5
 74
     0
 42
0.00000001
 43
0.00000001
 40
0.0
 40
0.0
 40
0.0
 40
0.0
 40
0.3057557122757267
 40
1.0
 40
1.0
 40
1.0
 40
1.0
 10
492.9149840329076
 20
529.7688691046443
 30
0.0
 10
492.9128139330503
 20
529.7710005980072
 30
0.0
 10
492.9057164373368
 20
529.7779718279052
 30
0.0
 10
492.8992565894437
 20
529.7855442991724
 30
0.0
 10
492.8947718769443
 20
529.7908014440937
 30
0.0
  0
SPLINE
  5
92
330
1F
100
AcDbEntity
  8
0
  6
CONTINUOUS
 62
     7
100
AcDbSpline
210
0.0
220
0.0
230
1.0
 70
     8
 71
     3
 72
    11
 73
     7
 74
     0
 42
0.00000001
 43
0.00000001
 40
0.0
 40
0.0
 40
0.0
 40
0.0
 40
0.1939762297589757
 40
0.4230458813665637
 40
0.6892890428794596
 40
1.0
 40
1.0
 40
1.0
 40
1.0
 10
492.8947718769443
 20
529.7908014440939
 30
0.0
 10
492.8914930709376
 20
529.7950602348876
 30
0.0
 10
492.8843422701481
 20
529.8043483002716
 30
0.0
 10
492.8822660374403
 20
529.8237833296189
 30
0.0
 10
492.8857927262533
 20
529.8456701558099
 30
0.0
 10
492.8930264699618
 20
529.8597611122786
 30
0.0
 10
492.8969221063021
 20
529.8673496092314
 30
0.0
  0
LINE
  5
93
330
1F
100
AcDbEntity
  8
0
  6
CONTINUOUS
 62
     7
100
AcDbLine
 10
492.8969221063
 20
529.8673496092
 30
0.0
 11
492.9076732531
 21
529.8862716276
 31
0.0
  0
SPLINE
  5
94
330
1F
100
AcDbEntity
  8
0
  6
CONTINUOUS
 62
     7
100
AcDbSpline
210
0.0
220
0.0
230
1.0
 70
     8
 71
     3
 72
    11
 73
     7
 74
     0
 42
0.00000001
 43
0.00000001
 40
0.0
 40
0.0
 40
0.0
 40
0.0
 40
0.2592778429749578
 40
0.51066532540744
 40
0.7579759409661536
 40
1.0
 40
1.0
 40
1.0
 40
1.0
 10
492.9076732530911
 20
529.8862716275801
 30
0.0
 10
492.9226340165718
 20
529.9036013725797
 30
0.0
 10
492.9521002565851
 20
529.937733482628
 30
0.0
 10
492.9924536111793
 20
529.9911382871084
 30
0.0
 10
493.0302612696177
 20
530.0445393701275
 30
0.0
 10
493.0524000548346
 20
530.0816497151525
 30
0.0
 10
493.0633498585957
 20
530.1000044257452
 30
0.0
  0
SPLINE
  5
95
330
1F
100
AcDbEntity
  8
0
  6
CONTINUOUS
 62
     7
100
AcDbSpline
210
0.0
220
0.0
230
1.0
 70
     8
 71
     3
 72
    11
 73
     7
 74
     0
 42
0.00000001
 43
0.00000001
 40
0.0
 40
0.0
 40
0.0
 40
0.0
 40
0.2602618400723549
 40
0.5122881512180385
 40
0.7574572409986925
 40
1.0
 40
1.0
 40
1.0
 40
1.0
 10
493.0633498585957
 20
530.1000044257452
 30
0.0
 10
493.0815275492096
 20
530.1337370064903
 30
0.0
 10
493.1173077293368
 20
530.2001347596948
 30
0.0
 10
493.1559040662696
 20
530.3049150439296
 30
0.0
 10
493.1835574769572
 20
530.4105032638328
 30
0.0
 10
493.1903004343912
 20
530.482015430424
 30
0.0
 10
493.1936537576782
 20
530.5175789670295
 30
0.0
  0
SPLINE
  5
96
330
1F
100
AcDbEntity
  8
0
  6
CONTINUOUS
 62
     7
100
AcDbSpline
210
0.0
220
0.0
230
1.0
 70
     8
 71
     3
 72
    19
 73
    15
 74
     0
 42
0.00000001
 43
0.00000001
 40
0.0
 40
0.0
 40
0.0
 40
0.0
 40
0.0920102297627683
 40
0.1780809131653469
 40
0.2590157042643288
 40
0.3343701033049138
 40
0.4043888453605168
 40
0.4700052890200207
 40
0.5313977069569443
 40
0.5887550012850877
 40
0.6967540007452356
 40
0.8000755454565127
 40
0.9005090793761533
 40
1.0
 40
1.0
 40
1.0
 40
1.0
 10
493.1936537576782
 20
530.5175789670295
 30
0.0
 10
493.1951187833464
 20
530.5380686456338
 30
0.0
 10
493.1979542627215
 20
530.5777253303927
 30
0.0
 10
493.1992198249025
 20
530.6355552754468
 30
0.0
 10
493.1980513089288
 20
530.6896649589441
 30
0.0
 10
493.1942591484815
 20
530.7400645430347
 30
0.0
 10
493.1879365020096
 20
530.786782632763
 30
0.0
 10
493.1787534564174
 20
530.8298116153821
 30
0.0
 10
493.1680695042613
 20
530.8696308943393
 30
0.0
 10
493.1488944667653
 20
530.9165620299208
 30
0.0
 10
493.1210745608494
 20
530.9698741269243
 30
0.0
 10
493.081257246351
 20
531.0271301267023
 30
0.0
 10
493.0355996902551
 20
531.0775724559658
 30
0.0
 10
493.0001449987599
 20
531.1048023132615
 30
0.0
 10
492.9825012347425
 20
531.1183530495985
 30
0.0
  0
LINE
  5
97
330
1F
100
AcDbEntity
  8
0
  6
CONTINUOUS
 62
     7
100
AcDbLine
 10
492.9825012347
 20
531.1183530496
 30
0.0
 11
492.3610849503
 21
530.0419482331
 31
0.0
  0
SPLINE
  5
98
330
1F
100
AcDbEntity
  8
0
  6
CONTINUOUS
 62
     7
100
AcDbSpline
210
0.0
220
0.0
230
1.0
 70
     8
 71
     3
 72
    27
 73
    23
 74
     0
 42
0.00000001
 43
0.00000001
 40
0.0
 40
0.0
 40
0.0
 40
0.0
 40
0.0354279014749896
 40
0.0713570048939759
 40
0.1075415940190386
 40
0.1448324363397996
 40
0.1827447604406276
 40
0.2225790235913105
 40
0.2637379998840876
 40
0.3067526377112803
 40
0.3946304408449428
 40
0.4828582565286669
 40
0.5720762646977473
 40
0.6637248078492692
 40
0.7094847345233043
 40
0.7539519201881795
 40
0.7973412802782213
 40
0.8396605772110599
 40
0.8808738258474602
 40
0.9209369893233663
 40
0.9608120419000274
 40
1.0
 40
1.0
 40
1.0
 40
1.0
 10
492.3610849503388
 20
530.0419482330846
 30
0.0
 10
492.3538405635041
 20
530.0301967132372
 30
0.0
 10
492.3392493027947
 20
530.006527423656
 30
0.0
 10
492.3134118737366
 20
529.9734286399963
 30
0.0
 10
492.283744400617
 20
529.9427738996834
 30
0.0
 10
492.2512407793934
 20
529.9139628873615
 30
0.0
 10
492.2150037572208
 20
529.8875114145096
 30
0.0
 10
492.1755559185372
 20
529.8631838415994
 30
0.0
 10
492.1327682114773
 20
529.8406883915316
 30
0.0
 10
492.071284722135
 20
529.8139388033355
 30
0.0
 10
491.9903289486969
 20
529.7863944915111
 30
0.0
 10
491.8892601656668
 20
529.7638283159138
 30
0.0
 10
491.7848366724104
 20
529.7528801601111
 30
0.0
 10
491.6963972748157
 20
529.7524064465771
 30
0.0
 10
491.6257565631819
 20
529.7577895685266
 30
0.0
 10
491.5739864532513
 20
529.7634147014874
 30
0.0
 10
491.5241400436578
 20
529.772819537004
 30
0.0
 10
491.4758593801468
 20
529.7835651080886
 30
0.0
 10
491.4298923588484
 20
529.7980183356427
 30
0.0
 10
491.3856516027599
 20
529.8144434235921
 30
0.0
 10
491.3430878457379
 20
529.833056621579
 30
0.0
 10
491.316112512787
 20
529.8479341880778
 30
0.0
 10
491.3027420604305
 20
529.8553083248278
 30
0.0
  0
SPLINE
  5
99
330
1F
100
AcDbEntity
  8
0
  6
CONTINUOUS
 62
     7
100
AcDbSpline
210
0.0
220
0.0
230
1.0
 70
     8
 71
     3
 72
    27
 73
    23
 74
     0
 42
0.00000001
 43
0.00000001
 40
0.0
 40
0.0
 40
0.0
 40
0.0
 40
0.037420214533755
 40
0.0745763477151493
 40
0.1116844260973362
 40
0.1492210225227246
 40
0.1869262604400604
 40
0.2254704966676894
 40
0.264627124502228
 40
0.3051147355541508
 40
0.3459792859463832
 40
0.3869181620225046
 40
0.4278699505342344
 40
0.4691576456087769
 40
0.5111169617262368
 40
0.5538410819039917
 40
0.5971429134799323
 40
0.6415106612697613
 40
0.7303994481331865
 40
0.8189358654200394
 40
0.9082984800232875
 40
1.0
 40
1.0
 40
1.0
 40
1.0
 10
491.1277133907058
 20
530.3507211688644
 30
0.0
 10
491.1353993909051
 20
530.3633240568714
 30
0.0
 10
491.1507171497835
 20
530.3884408919811
 30
0.0
 10
491.1771930991226
 20
530.4237079182308
 30
0.0
 10
491.2060674822536
 20
530.4570621269786
 30
0.0
 10
491.237854587393
 20
530.4880110979764
 30
0.0
 10
491.2726505363615
 20
530.516385069868
 30
0.0
 10
491.3094576013473
 20
530.5432004714764
 30
0.0
 10
491.3493804719072
 20
530.5673457797379
 30
0.0
 10
491.3916904845428
 20
530.5890250609312
 30
0.0
 10
491.4358607538102
 20
530.6084716352256
 30
0.0
 10
491.481535887427
 20
530.6245570888307
 30
0.0
 10
491.5280308758333
 20
530.6387416153167
 30
0.0
 10
491.5760195869481
 20
530.6487125636313
 30
0.0
 10
491.6250690178865
 20
530.6566989402696
 30
0.0
 10
491.6753655817072
 20
530.6611396056281
 30
0.0
 10
491.7267514232565
 20
530.6636032170488
 30
0.0
 10
491.7963784747613
 20
530.6615847073219
 30
0.0
 10
491.8835671701064
 20
530.6523022566997
 30
0.0
 10
491.9860371965513
 20
530.6276308650863
 30
0.0
 10
492.0865588313635
 20
530.5919506041386
 30
0.0
 10
492.1494659259174
 20
530.5579973617002
 30
0.0
 10
492.1813257760269
 20
530.5408014440937
 30
0.0
  0
SPLINE
  5
9A
330
1F
100
AcDbEntity
  8
0
  6
CONTINUOUS
 62
     7
100
AcDbSpline
210
0.0
220
0.0
230
1.0
 70
     8
 71
     3
 72
    23
 73
    19
 74
     0
 42
0.00000001
 43
0.00000001
 40
0.0
 40
0.0
 40
0.0
 40
0.0
 40
0.0717331304461062
 40
0.1409151711487961
 40
0.2069377066001176
 40
0.2717530322527243
 40
0.3348362149229924
 40
0.396803954350964
 40
0.4583606882587548
 40
0.5199507365967543
 40
0.5801895831857754
 40
0.6393157034737815
 40
0.6967657987547584
 40
0.75481087959346
 40
0.8128515428302019
 40
0.8729582911988893
 40
0.9346606429430065
 40
1.0
 40
1.0
 40
1.0
 40
1.0
 10
491.6003338035498
 20
481.4237200220754
 30
0.0
 10
491.5880285523487
 20
481.4311316989508
 30
0.0
 10
491.5638556692156
 20
481.4456914666464
 30
0.0
 10
491.5304077935957
 20
481.4702316983338
 30
0.0
 10
491.4999947375491
 20
481.4963173328937
 30
0.0
 10
491.4723828917604
 20
481.5236625692509
 30
0.0
 10
491.4480878586444
 20
481.553002142372
 30
0.0
 10
491.427625432489
 20
481.5842973091789
 30
0.0
 10
491.4091431985576
 20
481.6164790706285
 30
0.0
 10
491.3948681650642
 20
481.6503707689108
 30
0.0
 10
491.3833332877301
 20
481.6847649578569
 30
0.0
 10
491.3764731914984
 20
481.7196021552223
 30
0.0
 10
491.3739596791357
 20
481.7545268369422
 30
0.0
 10
491.3750535715635
 20
481.7893404448539
 30
0.0
 10
491.3809980239902
 20
481.8241872877019
 30
0.0
 10
491.3902962630654
 20
481.8590258862871
 30
0.0
 10
491.4043110943163
 20
481.8938875892339
 30
0.0
 10
491.4164708984482
 20
481.9162384289193
 30
0.0
 10
491.4227248585957
 20
481.9277337835433
 30
0.0
  0
SPLINE
  5
9B
330
1F
100
AcDbEntity
  8
0
  6
CONTINUOUS
 62
     7
100
AcDbSpline
210
0.0
220
0.0
230
1.0
 70
     8
 71
     3
 72
    31
 73
    27
 74
     0
 42
0.00000001
 43
0.00000001
 40
0.0
 40
0.0
 40
0.0
 40
0.0
 40
0.0375893414768901
 40
0.0746238535571363
 40
0.1118510936999671
 40
0.1490096171434301
 40
0.1868631984121216
 40
0.2250528741849466
 40
0.2643507784218705
 40
0.3046425446178544
 40
0.345150981540525
 40
0.3861984265479698
 40
0.4270523976494791
 40
0.4680749295554661
 40
0.5100383298100254
 40
0.5524033028531207
 40
0.595681444755155
 40
0.6400213553334214
 40
0.6844922045836676
 40
0.7288796430546516
 40
0.7733978804070549
 40
0.8178874037230905
 40
0.8623136908324032
 40
0.9077186855550269
 40
0.9536107761578532
 40
1.0
 40
1.0
 40
1.0
 40
1.0
 10
491.4227248585957
 20
481.9277337835433
 30
0.0
 10
491.4305439694038
 20
481.9406280795477
 30
0.0
 10
491.4460667787153
 20
481.9662263480713
 30
0.0
 10
491.4730268308423
 20
482.0021797674284
 30
0.0
 10
491.5028384594931
 20
482.0354842103091
 30
0.0
 10
491.53459577654
 20
482.0674701567002
 30
0.0
 10
491.5701168026802
 20
482.0958345471341
 30
0.0
 10
491.6076511985689
 20
482.1229068555171
 30
0.0
 10
491.6481943860744
 20
482.1472210106019
 30
0.0
 10
491.690876565008
 20
482.1696079504578
 30
0.0
 10
491.7358417220792
 20
482.1888154480621
 30
0.0
 10
491.7819600262988
 20
482.205745550113
 30
0.0
 10
491.8295285455984
 20
482.2188094386474
 30
0.0
 10
491.8779675111529
 20
482.2298642504321
 30
0.0
 10
491.9277015082416
 20
482.2374420123663
 30
0.0
 10
491.9786758914858
 20
482.24221696445
 30
0.0
 10
492.0308043675792
 20
482.2438833147296
 30
0.0
 10
492.0837843056933
 20
482.2425968090129
 30
0.0
 10
492.1370501842832
 20
482.2382864135985
 30
0.0
 10
492.1900728222648
 20
482.2310526303366
 30
0.0
 10
492.2425362772924
 20
482.2203648516125
 30
0.0
 10
492.2940844699122
 20
482.2059128518245
 30
0.0
 10
492.345304824934
 20
482.1891769561032
 30
0.0
 10
492.3958961531531
 20
482.1690091617219
 30
0.0
 10
492.4458413777393
 20
482.1453664464842
 30
0.0
 10
492.478155213107
 20
482.1273172964143
 30
0.0
 10
492.4943991705223
 20
482.1182441046442
 30
0.0
  0
SPLINE
  5
9C
330
1F
100
AcDbEntity
  8
0
  6
CONTINUOUS
 62
     7
100
AcDbSpline
210
0.0
220
0.0
230
1.0
 70
     8
 71
     3
 72
    15
 73
    11
 74
     0
 42
0.00000001
 43
0.00000001
 40
0.0
 40
0.0
 40
0.0
 40
0.0
 40
0.1377221034900486
 40
0.2704358650622894
 40
0.3964091209624987
 40
0.5204095193965395
 40
0.6414630950102507
 40
0.7611853260919096
 40
0.8799252118918319
 40
0.9999999999999999
 40
0.9999999999999999
 40
0.9999999999999999
 40
0.9999999999999999
 10
492.4943991705223
 20
482.1182441046442
 30
0.0
 10
492.5071696722789
 20
482.1105927193359
 30
0.0
 10
492.532246269298
 20
482.0955681956585
 30
0.0
 10
492.5663618143249
 20
482.0695978573392
 30
0.0
 10
492.5976381591158
 20
482.0424612820885
 30
0.0
 10
492.6243422873461
 20
482.0124961509553
 30
0.0
 10
492.6489608232749
 20
481.9816674533436
 30
0.0
 10
492.6691183982379
 20
481.9483565769218
 30
0.0
 10
492.6856079795623
 20
481.9132298962745
 30
0.0
 10
492.6940142727303
 20
481.8888276490546
 30
0.0
 10
492.6982409136415
 20
481.8765583248277
 30
0.0
  0
LINE
  5
9D
330
1F
100
AcDbEntity
  8
0
  6
CONTINUOUS
 62
     7
100
AcDbLine
 10
492.6982409136
 20
481.8765583248
 30
0.0
 11
493.7772260054
 21
483.7451076368
 31
0.0
  0
LINE
  5
9E
330
1F
100
AcDbEntity
  8
0
  6
CONTINUOUS
 62
     7
100
AcDbLine
 10
493.7772260054
 20
483.7451076368
 30
0.0
 11
493.8735562806
 21
483.6892016735
 31
0.0
  0
LINE
  5
9F
330
1F
100
AcDbEntity
  8
0
  6
CONTINUOUS
 62
     7
100
AcDbLine
 10
493.8735562806
 20
483.6892016735
 30
0.0
 11
492.6775987118
 21
481.6176707101
 31
0.0
  0
SPLINE
  5
A0
330
1F
100
AcDbEntity
  8
0
  6
CONTINUOUS
 62
     7
100
AcDbSpline
210
0.0
220
0.0
230
1.0
 70
     8
 71
     3
 72
    27
 73
    23
 74
     0
 42
0.00000001
 43
0.00000001
 40
0.0
 40
0.0
 40
0.0
 40
0.0
 40
0.0356016952021765
 40
0.0716230855874918
 40
0.1079371760369045
 40
0.1453153809396147
 40
0.1833504125533245
 40
0.2229741398819068
 40
0.2638895775056249
 40
0.3069466261716972
 40
0.3944047786971084
 40
0.4826328798398855
 40
0.5717409475669776
 40
0.6635728527468587
 40
0.7095766039227838
 40
0.754330394927973
 40
0.7975978891159552
 40
0.8395168000597779
 40
0.8806885736523287
 40
0.9210573328010966
 40
0.960700845613932
 40
1.0
 40
1.0
 40
1.0
 40
1.0
 10
492.6775987118066
 20
481.6176707101488
 30
0.0
 10
492.6702639718196
 20
481.6055922525074
 30
0.0
 10
492.6555080253156
 20
481.5812929487662
 30
0.0
 10
492.6284630026204
 20
481.5479766873581
 30
0.0
 10
492.5985697100176
 20
481.5163524446577
 30
0.0
 10
492.5656966942364
 20
481.4865253721357
 30
0.0
 10
492.52853899675
 20
481.4599507561654
 30
0.0
 10
492.4886518018321
 20
481.435017298632
 30
0.0
 10
492.4453142880155
 20
481.4120228664925
 30
0.0
 10
492.3829578721528
 20
481.384837704241
 30
0.0
 10
492.3006291531061
 20
481.3570475720798
 30
0.0
 10
492.1981068308906
 20
481.3333674243658
 30
0.0
 10
492.0917450583094
 20
481.322262397648
 30
0.0
 10
492.0016283682189
 20
481.3210425254422
 30
0.0
 10
491.9293454684637
 20
481.3256210738907
 30
0.0
 10
491.8765077046993
 20
481.3315520919663
 30
0.0
 10
491.825688394269
 20
481.3401712032456
 30
0.0
 10
491.7767692426492
 20
481.3512005519872
 30
0.0
 10
491.7299800650595
 20
481.3656932565092
 30
0.0
 10
491.6846470955838
 20
481.3817047004343
 30
0.0
 10
491.6414615725184
 20
481.401189096696
 30
0.0
 10
491.6140031340844
 20
481.4162315860629
 30
0.0
 10
491.6003338035498
 20
481.4237200220754
 30
0.0
  0
SPLINE
  5
A1
330
1F
100
AcDbEntity
  8
0
  6
CONTINUOUS
 62
     7
100
AcDbSpline
210
0.0
220
0.0
230
1.0
 70
     8
 71
     3
 72
    15
 73
    11
 74
     0
 42
0.00000001
 43
0.00000001
 40
0.0
 40
0.0
 40
0.0
 40
0.0
 40
0.064076797672119
 40
0.1451344179401443
 40
0.2424376953223873
 40
0.3581430362085459
 40
0.4919662271207818
 40
0.6437710102783836
 40
0.8123616008740628
 40
1.0
 40
1.0
 40
1.0
 40
1.0
 10
496.1098076923077
 20
547.9439022435898
 30
0.0
 10
496.1095643327891
 20
547.954610366041
 30
0.0
 10
496.1090131216899
 20
547.9788643421391
 30
0.0
 10
496.1014737120358
 20
548.0187527227821
 30
0.0
 10
496.0908594742777
 20
548.0666391221379
 30
0.0
 10
496.0764238990421
 20
548.1227376722331
 30
0.0
 10
496.0565543997336
 20
548.1867263348503
 30
0.0
 10
496.0324649701058
 20
548.2586160999263
 30
0.0
 10
496.0043199372541
 20
548.3386139782592
 30
0.0
 10
495.9835358528536
 20
548.3943249395071
 30
0.0
 10
495.9725881410257
 20
548.4236698717949
 30
0.0
  0
SPLINE
  5
A2
330
1F
100
AcDbEntity
  8
0
  6
CONTINUOUS
 62
     7
100
AcDbSpline
210
0.0
220
0.0
230
1.0
 70
     8
 71
     3
 72
    15
 73
    11
 74
     0
 42
0.00000001
 43
0.00000001
 40
0.0
 40
0.0
 40
0.0
 40
0.0
 40
0.1643629463627283
 40
0.3077833308354571
 40
0.4347510601064787
 40
0.5490754267710009
 40
0.6553132528274164
 40
0.7622762601764722
 40
0.8744969435040928
 40
1.0
 40
1.0
 40
1.0
 40
1.0
 10
495.6931410256411
 20
549.4618309294872
 30
0.0
 10
495.6938204087903
 20
549.4835649108388
 30
0.0
 10
495.695092610422
 20
549.5242636043142
 30
0.0
 10
495.7041581119874
 20
549.5812671463048
 30
0.0
 10
495.7205784035273
 20
549.6296892292859
 30
0.0
 10
495.7435797217214
 20
549.6698960335656
 30
0.0
 10
495.7741569425718
 20
549.7013320528921
 30
0.0
 10
495.8118110948329
 20
549.723032410064
 30
0.0
 10
495.8558426043786
 20
549.7365362333119
 30
0.0
 10
495.887346373488
 20
549.738000826273
 30
0.0
 10
495.9039783653847
 20
549.7387740384615
 30
0.0
  0
SPLINE
  5
A3
330
1F
100
AcDbEntity
  8
0
  6
CONTINUOUS
 62
     7
100
AcDbSpline
210
0.0
220
0.0
230
1.0
 70
     8
 71
     3
 72
    15
 73
    11
 74
     0
 42
0.00000001
 43
0.00000001
 40
0.0
 40
0.0
 40
0.0
 40
0.0
 40
0.1294005215543847
 40
0.2467500150722832
 40
0.35438745841221
 40
0.461756353213725
 40
0.5758074724146502
 40
0.7003261341818816
 40
0.8399482858322891
 40
1.0
 40
1.0
 40
1.0
 40
1.0
 10
495.9039783653847
 20
549.7387740384615
 30
0.0
 10
495.9200876729017
 20
549.7380930727702
 30
0.0
 10
495.9508060334221
 20
549.7367945594984
 30
0.0
 10
495.9936135764927
 20
549.724675513843
 30
0.0
 10
496.0301536479808
 20
549.704649114748
 30
0.0
 10
496.0601971326371
 20
549.6761758894442
 30
0.0
 10
496.0827329943634
 20
549.6390591349694
 30
0.0
 10
496.0984229708199
 20
549.5945500357739
 30
0.0
 10
496.1087260686604
 20
549.5425901502421
 30
0.0
 10
496.109431129144
 20
549.5052900586455
 30
0.0
 10
496.1098076923077
 20
549.4853685897436
 30
0.0
  0
SPLINE
  5
A4
330
1F
100
AcDbEntity
  8
0
  6
CONTINUOUS
 62
     7
100
AcDbSpline
210
0.0
220
0.0
230
1.0
 70
     8
 71
     3
 72
    23
 73
    19
 74
     0
 42
0.00000001
 43
0.00000001
 40
0.0
 40
0.0
 40
0.0
 40
0.0
 40
0.0937523406419009
 40
0.173149701152859
 40
0.2382249566059944
 40
0.2884161356531852
 40
0.3124604317271329
 40
0.3404113581656729
 40
0.3735069547437599
 40
0.4106564594661204
 40
0.4531013930849844
 40
0.4994864586910537
 40
0.5510254204755789
 40
0.6066646163653615
 40
0.7182724941347607
 40
0.8210658025534008
 40
0.9151446515977206
 40
1.0
 40
1.0
 40
1.0
 40
1.0
 10
496.1098076923077
 20
549.4853685897436
 30
0.0
 10
496.1098927073546
 20
549.4603285286852
 30
0.0
 10
496.1100497202875
 20
549.4140824396871
 30
0.0
 10
496.1114190619522
 20
549.350455532494
 30
0.0
 10
496.113918819933
 20
549.298536241236
 30
0.0
 10
496.1164849192967
 20
549.2613682948218
 30
0.0
 10
496.1209387207508
 20
549.234426870805
 30
0.0
 10
496.1250826304114
 20
549.2120837385207
 30
0.0
 10
496.1298620377508
 20
549.1862907608394
 30
0.0
 10
496.1366117635445
 20
549.1569525267927
 30
0.0
 10
496.1445612619553
 20
549.1242575510299
 30
0.0
 10
496.153767217714
 20
549.0879136086521
 30
0.0
 10
496.1634764655799
 20
549.0480607305999
 30
0.0
 10
496.1788650429076
 20
548.9916858831456
 30
0.0
 10
496.1976170651612
 20
548.9220220685213
 30
0.0
 10
496.2228674811716
 20
548.843587673226
 30
0.0
 10
496.245449298605
 20
548.7717780510881
 30
0.0
 10
496.262825465382
 20
548.7272419817165
 30
0.0
 10
496.2710657051283
 20
548.7061217948718
 30
0.0
  0
SPLINE
  5
A5
330
1F
100
AcDbEntity
  8
0
  6
CONTINUOUS
 62
     7
100
AcDbSpline
210
0.0
220
0.0
230
1.0
 70
     8
 71
     3
 72
    11
 73
     7
 74
     0
 42
0.00000001
 43
0.00000001
 40
0.0
 40
0.0
 40
0.0
 40
0.0
 40
0.207143282696103
 40
0.443542417989701
 40
0.7075460878714797
 40
1.0
 40
1.0
 40
1.0
 40
1.0
 10
496.2710657051283
 20
548.7061217948718
 30
0.0
 10
496.2757250144334
 20
548.69309574152
 30
0.0
 10
496.2857016899426
 20
548.665203901991
 30
0.0
 10
496.3019421714809
 20
548.6208249212383
 30
0.0
 10
496.318758015437
 20
548.5706097178846
 30
0.0
 10
496.3304996801765
 20
548.5353500907576
 30
0.0
 10
496.336670673077
 20
548.5168189102563
 30
0.0
  0
SPLINE
  5
A6
330
1F
100
AcDbEntity
  8
0
  6
CONTINUOUS
 62
     7
100
AcDbSpline
210
0.0
220
0.0
230
1.0
 70
     8
 71
     3
 72
    11
 73
     7
 74
     0
 42
0.00000001
 43
0.00000001
 40
0.0
 40
0.0
 40
0.0
 40
0.0
 40
0.3228809055979693
 40
0.5963290818237549
 40
0.8251954122359042
 40
1.0
 40
1.0
 40
1.0
 40
1.0
 10
496.336670673077
 20
548.5168189102563
 30
0.0
 10
496.3400762122305
 20
548.5056008283816
 30
0.0
 10
496.3463659060506
 20
548.4848821412489
 30
0.0
 10
496.3564865751324
 20
548.4566864472382
 30
0.0
 10
496.3655652244947
 20
548.4338104890936
 30
0.0
 10
496.3723111388622
 20
548.4207932156819
 30
0.0
 10
496.3752323717949
 20
548.41515625
 30
0.0
  0
SPLINE
  5
A7
330
1F
100
AcDbEntity
  8
0
  6
CONTINUOUS
 62
     7
100
AcDbSpline
210
0.0
220
0.0
230
1.0
 70
     8
 71
     3
 72
    11
 73
     7
 74
     0
 42
0.00000001
 43
0.00000001
 40
0.0
 40
0.0
 40
0.0
 40
0.0
 40
0.107572131911672
 40
0.3136290922972805
 40
0.6075658072197728
 40
0.9999999999999999
 40
0.9999999999999999
 40
0.9999999999999999
 40
0.9999999999999999
 10
496.3752323717949
 20
548.41515625
 30
0.0
 10
496.3779091965824
 20
548.4198269734397
 30
0.0
 10
496.385713542498
 20
548.4334445779879
 30
0.0
 10
496.4005415062229
 20
548.459993796349
 30
0.0
 10
496.4209815266605
 20
548.4997085993955
 30
0.0
 10
496.4371193278048
 20
548.5300309262412
 30
0.0
 10
496.4463461538462
 20
548.5473677884615
 30
0.0
  0
SPLINE
  5
A8
330
1F
100
AcDbEntity
  8
0
  6
CONTINUOUS
 62
     7
100
AcDbSpline
210
0.0
220
0.0
230
1.0
 70
     8
 71
     3
 72
    35
 73
    31
 74
     0
 42
0.00000001
 43
0.00000001
 40
0.0
 40
0.0
 40
0.0
 40
0.0
 40
0.0150836702125448
 40
0.0364152011974908
 40
0.0635786315208747
 40
0.0969989779828357
 40
0.1361490314230491
 40
0.1813989848805348
 40
0.2326464369264509
 40
0.2901557565996385
 40
0.34920578089289
 40
0.4055741592769316
 40
0.4591937310859625
 40
0.5102382184240539
 40
0.5584606289598252
 40
0.6039467770958837
 40
0.6468178927767688
 40
0.686969326343418
 40
0.7243593668033472
 40
0.7581809596061996
 40
0.7890830693935245
 40
0.8164447819666019
 40
0.8407235534649498
 40
0.8619674433409785
 40
0.8797926897113579
 40
0.894977508887649
 40
0.9219518417593422
 40
0.948068367985615
 40
0.9739715443672918
 40
1.0
 40
1.0
 40
1.0
 40
1.0
 10
496.4463461538462
 20
548.5473677884615
 30
0.0
 10
496.450149885125
 20
548.5545655593896
 30
0.0
 10
496.4593329047658
 20
548.5719425155833
 30
0.0
 10
496.4764571114454
 20
548.6016826396185
 30
0.0
 10
496.4985678852344
 20
548.6399622388501
 30
0.0
 10
496.525882000432
 20
548.68634647386
 30
0.0
 10
496.5593616701645
 20
548.7404077744716
 30
0.0
 10
496.597128056712
 20
548.8031226015664
 30
0.0
 10
496.6409253789279
 20
548.8737645439144
 30
0.0
 10
496.688717114259
 20
548.9506889153841
 30
0.0
 10
496.7376921647455
 20
549.0301398203105
 30
0.0
 10
496.7875936814762
 20
549.1065163315551
 30
0.0
 10
496.8350665386317
 20
549.1793096827789
 30
0.0
 10
496.8809386760899
 20
549.2479024457843
 30
0.0
 10
496.9257924949167
 20
549.3118634393752
 30
0.0
 10
496.9679717763925
 20
549.372325514166
 30
0.0
 10
497.0098720068764
 20
549.4276008989698
 30
0.0
 10
497.0490805049109
 20
549.4794337802713
 30
0.0
 10
497.087125119225
 20
549.5259684936029
 30
0.0
 10
497.1221618015098
 20
549.5685148349777
 30
0.0
 10
497.1551434124389
 20
549.605694586135
 30
0.0
 10
497.1850642970935
 20
549.6387155467796
 30
0.0
 10
497.2132367800016
 20
549.6661962176365
 30
0.0
 10
497.2385324755442
 20
549.6891954827784
 30
0.0
 10
497.2612235330143
 20
549.7077642060042
 30
0.0
 10
497.2883327752756
 20
549.7255350949998
 30
0.0
 10
497.3214418570685
 20
549.7420727502592
 30
0.0
 10
497.361995139837
 20
549.7554284363823
 30
0.0
 10
497.403295190068
 20
549.7646668073104
 30
0.0
 10
497.4313722934251
 20
549.7654331912931
 30
0.0
 10
497.4454447115385
 20
549.7658173076924
 30
0.0
  0
SPLINE
  5
A9
330
1F
100
AcDbEntity
  8
0
  6
CONTINUOUS
 62
     7
100
AcDbSpline
210
0.0
220
0.0
230
1.0
 70
     8
 71
     3
 72
    15
 73
    11
 74
     0
 42
0.00000001
 43
0.00000001
 40
0.0
 40
0.0
 40
0.0
 40
0.0
 40
0.1350481558060222
 40
0.260330299557846
 40
0.3835643708083561
 40
0.5084556489536312
 40
0.6321263797292613
 40
0.7525616498944981
 40
0.872840679643458
 40
1.0
 40
1.0
 40
1.0
 40
1.0
 10
497.4454447115385
 20
549.7658173076924
 30
0.0
 10
497.4597222273983
 20
549.7652664395906
 30
0.0
 10
497.4872447800653
 20
549.7642045394334
 30
0.0
 10
497.5263480374148
 20
549.7524947249234
 30
0.0
 10
497.5615594942532
 20
549.734365983894
 30
0.0
 10
497.5919159755777
 20
549.7091401160886
 30
0.0
 10
497.6171178049906
 20
549.6792109560575
 30
0.0
 10
497.6354861553726
 20
549.6451693599732
 30
0.0
 10
497.6464158528951
 20
549.6075578059023
 30
0.0
 10
497.6476400910564
 20
549.5814286525996
 30
0.0
 10
497.6482692307692
 20
549.5680008012821
 30
0.0
  0
SPLINE
  5
AA
330
1F
100
AcDbEntity
  8
0
  6
CONTINUOUS
 62
     7
100
AcDbSpline
210
0.0
220
0.0
230
1.0
 70
     8
 71
     3
 72
    15
 73
    11
 74
     0
 42
0.00000001
 43
0.00000001
 40
0.0
 40
0.0
 40
0.0
 40
0.0
 40
0.0985402648619186
 40
0.2006839153325441
 40
0.3065170804860361
 40
0.4210464824197442
 40
0.5475753330306635
 40
0.6850603000872774
 40
0.8359606757161696
 40
1.0
 40
1.0
 40
1.0
 40
1.0
 10
497.6482692307692
 20
549.5680008012821
 30
0.0
 10
497.6479533860957
 20
549.5597673144892
 30
0.0
 10
497.647310147052
 20
549.5429992616661
 30
0.0
 10
497.6396401164925
 20
549.5184095375829
 30
0.0
 10
497.6284993827669
 20
549.4939305864195
 30
0.0
 10
497.6126766109403
 20
549.4696015169194
 30
0.0
 10
497.591851037229
 20
549.4458509653743
 30
0.0
 10
497.5671476445924
 20
549.4216557178188
 30
0.0
 10
497.5380976895984
 20
549.397553740839
 30
0.0
 10
497.5163615422359
 20
549.3828505854
 30
0.0
 10
497.5050400641026
 20
549.3751923076923
 30
0.0
  0
SPLINE
  5
AB
330
1F
100
AcDbEntity
  8
0
  6
CONTINUOUS
 62
     7
100
AcDbSpline
210
0.0
220
0.0
230
1.0
 70
     8
 71
     3
 72
    23
 73
    19
 74
     0
 42
0.00000001
 43
0.00000001
 40
0.0
 40
0.0
 40
0.0
 40
0.0
 40
0.0290429948039825
 40
0.0628209521871224
 40
0.1010178493320147
 40
0.144195306041743
 40
0.1926539222409639
 40
0.2460010308078818
 40
0.3042787825792376
 40
0.367519470124236
 40
0.4350454862766317
 40
0.5058138864526742
 40
0.5798531485717361
 40
0.6571881372404569
 40
0.7377316798642385
 40
0.8220401556237009
 40
0.9092617984346377
 40
0.9999999999999999
 40
0.9999999999999999
 40
0.9999999999999999
 40
0.9999999999999999
 10
497.5050400641026
 20
549.3751923076923
 30
0.0
 10
497.4927169283367
 20
549.3661850657735
 30
0.0
 10
497.4660615807057
 20
549.3467021055023
 30
0.0
 10
497.426290544358
 20
549.3114431001131
 30
0.0
 10
497.3837672256018
 20
549.2683934344226
 30
0.0
 10
497.337581689442
 20
549.2181799378419
 30
0.0
 10
497.2882535906339
 20
549.1601220393526
 30
0.0
 10
497.2357276473606
 20
549.0944303716603
 30
0.0
 10
497.1801807571538
 20
549.0212481175822
 30
0.0
 10
497.1219289400343
 20
548.940805301852
 30
0.0
 10
497.0610148790478
 20
548.8541986337736
 30
0.0
 10
496.999006171033
 20
548.7614610966253
 30
0.0
 10
496.9358735482222
 20
548.6633005209193
 30
0.0
 10
496.8720199951566
 20
548.5595297345518
 30
0.0
 10
496.8061410375725
 20
548.4506783461751
 30
0.0
 10
496.7392299709784
 20
548.3363907875928
 30
0.0
 10
496.6715954517965
 20
548.2163447730024
 30
0.0
 10
496.6265602925475
 20
548.1344147308688
 30
0.0
 10
496.6035977564103
 20
548.092640224359
 30
0.0
  0
SPLINE
  5
AC
330
1F
100
AcDbEntity
  8
0
  6
CONTINUOUS
 62
     7
100
AcDbSpline
210
0.0
220
0.0
230
1.0
 70
     8
 71
     3
 72
    15
 73
    11
 74
     0
 42
0.00000001
 43
0.00000001
 40
0.0
 40
0.0
 40
0.0
 40
0.0
 40
0.1880786246797813
 40
0.3552872926214518
 40
0.503497768180934
 40
0.6329279981404923
 40
0.7450307218573022
 40
0.8409271197849969
 40
0.9247896252421134
 40
1.0
 40
1.0
 40
1.0
 40
1.0
 10
496.6035977564103
 20
548.092640224359
 30
0.0
 10
496.5911960476492
 20
548.0696029482805
 30
0.0
 10
496.5677687733532
 20
548.0260847044541
 30
0.0
 10
496.5302409661245
 20
547.9669514450004
 30
0.0
 10
496.4953410715976
 20
547.9157886250846
 30
0.0
 10
496.4600992619899
 20
547.8745414015028
 30
0.0
 10
496.426338620099
 20
547.8416604824772
 30
0.0
 10
496.3927555385159
 20
547.8188076879793
 30
0.0
 10
496.3603590961962
 20
547.8030125927937
 30
0.0
 10
496.3381546243646
 20
547.8010840835187
 30
0.0
 10
496.32765625
 20
547.800172275641
 30
0.0
  0
SPLINE
  5
AD
330
1F
100
AcDbEntity
  8
0
  6
CONTINUOUS
 62
     7
100
AcDbSpline
210
0.0
220
0.0
230
1.0
 70
     8
 71
     3
 72
    15
 73
    11
 74
     0
 42
0.00000001
 43
0.00000001
 40
0.0
 40
0.0
 40
0.0
 40
0.0
 40
0.0986652945738911
 40
0.2004253720454475
 40
0.3086670832102926
 40
0.4251878413475891
 40
0.5514319322588161
 40
0.68817177795425
 40
0.8379029486662889
 40
1.0
 40
1.0
 40
1.0
 40
1.0
 10
496.32765625
 20
547.800172275641
 30
0.0
 10
496.318753860692
 20
547.800474605423
 30
0.0
 10
496.3006698454681
 20
547.8010887480078
 30
0.0
 10
496.2738660433957
 20
547.8090009936766
 30
0.0
 10
496.2464548327756
 20
547.8197008646206
 30
0.0
 10
496.219534845098
 20
547.8364200075013
 30
0.0
 10
496.1918149591388
 20
547.8563497701716
 30
0.0
 10
496.1641149214666
 20
547.8811796562031
 30
0.0
 10
496.1368247910438
 20
547.910937650997
 30
0.0
 10
496.1190483728258
 20
547.9326273368526
 30
0.0
 10
496.1098076923077
 20
547.9439022435898
 30
0.0
  0
SPLINE
  5
AE
330
1F
100
AcDbEntity
  8
0
  6
CONTINUOUS
 62
     7
100
AcDbSpline
210
0.0
220
0.0
230
1.0
 70
     8
 71
     3
 72
    23
 73
    19
 74
     0
 42
0.00000001
 43
0.00000001
 40
0.0
 40
0.0
 40
0.0
 40
0.0
 40
0.0888218682311622
 40
0.1737907176478915
 40
0.2550748326788454
 40
0.3329673090354949
 40
0.407632707046443
 40
0.478639310388511
 40
0.5458633158866126
 40
0.6099005727987673
 40
0.670319219160097
 40
0.7275857389002457
 40
0.781171986696962
 40
0.8315822548678836
 40
0.8784879652100059
 40
0.921928369218567
 40
0.9624152709109661
 40
1.0
 40
1.0
 40
1.0
 40
1.0
 10
495.9725881410257
 20
548.4236698717949
 30
0.0
 10
495.9611477528002
 20
548.4535178365484
 30
0.0
 10
495.9387632508814
 20
548.5119189861543
 30
0.0
 10
495.9074076793189
 20
548.5981943739582
 30
0.0
 10
495.8775555560163
 20
548.6808317443601
 30
0.0
 10
495.8506254286148
 20
548.7605652945755
 30
0.0
 10
495.825659388906
 20
548.8370480256002
 30
0.0
 10
495.8024508251322
 20
548.9100679936843
 30
0.0
 10
495.7819382532805
 20
548.9799137903107
 30
0.0
 10
495.7634335427415
 20
549.046367779942
 30
0.0
 10
495.7468221971395
 20
549.1096229731066
 30
0.0
 10
495.7322302136873
 20
549.1695111065493
 30
0.0
 10
495.7200546316706
 20
549.2262670565556
 30
0.0
 10
495.7106804531778
 20
549.2797651242399
 30
0.0
 10
495.7030486924779
 20
549.329850092173
 30
0.0
 10
495.6975465535756
 20
549.3766117124458
 30
0.0
 10
495.6936571815432
 20
549.4201984775397
 30
0.0
 10
495.6933087602972
 20
549.4483016741179
 30
0.0
 10
495.6931410256411
 20
549.4618309294872
 30
0.0
  0
SPLINE
  5
AF
330
1F
100
AcDbEntity
  8
0
  6
CONTINUOUS
 62
     7
100
AcDbSpline
210
0.0
220
0.0
230
1.0
 70
     8
 71
     3
 72
    23
 73
    19
 74
     0
 42
0.00000001
 43
0.00000001
 40
0.0
 40
0.0
 40
0.0
 40
0.0
 40
0.0712191024717176
 40
0.1397040603045603
 40
0.2061672301356894
 40
0.2698879244854043
 40
0.33293630242663
 40
0.3953176145270861
 40
0.4565936294301574
 40
0.5185947297304296
 40
0.5797051392178237
 40
0.6385188042918867
 40
0.6971288846935395
 40
0.7548409641897522
 40
0.8132689907937779
 40
0.8730814994860208
 40
0.9351956527053058
 40
1.0
 40
1.0
 40
1.0
 40
1.0
 10
491.2812397668525
 20
499.387779655103
 30
0.0
 10
491.2690347821978
 20
499.3949886995452
 30
0.0
 10
491.2450933696686
 20
499.409130028831
 30
0.0
 10
491.2125507365586
 20
499.4341741386521
 30
0.0
 10
491.1823396289774
 20
499.4596502288987
 30
0.0
 10
491.1552709017071
 20
499.487023123516
 30
0.0
 10
491.1316656322023
 20
499.5163685980111
 30
0.0
 10
491.1109073308328
 20
499.5472278285941
 30
0.0
 10
491.0937297708394
 20
499.5799564422807
 30
0.0
 10
491.078927619798
 20
499.6135600255795
 30
0.0
 10
491.0683557279979
 20
499.6482380553471
 30
0.0
 10
491.0612765948119
 20
499.6830817802014
 30
0.0
 10
491.0581838785001
 20
499.7178547533093
 30
0.0
 10
491.0594652396373
 20
499.7526803622401
 30
0.0
 10
491.0652723093797
 20
499.7872601143868
 30
0.0
 10
491.0747238752593
 20
499.8219191650936
 30
0.0
 10
491.0886114422445
 20
499.8564610067002
 30
0.0
 10
491.1005469137372
 20
499.8787119455967
 30
0.0
 10
491.1066411429994
 20
499.8900732330846
 30
0.0
  0
SPLINE
  5
B0
330
1F
100
AcDbEntity
  8
0
  6
CONTINUOUS
 62
     7
100
AcDbSpline
210
0.0
220
0.0
230
1.0
 70
     8
 71
     3
 72
    27
 73
    23
 74
     0
 42
0.00000001
 43
0.00000001
 40
0.0
 40
0.0
 40
0.0
 40
0.0
 40
0.0373906135902618
 40
0.0747186777831368
 40
0.1117324094923679
 40
0.1491923999185909
 40
0.187298359093663
 40
0.2257907433233852
 40
0.2649054157085701
 40
0.3055165524706552
 40
0.387344742004223
 40
0.4699278084668504
 40
0.5542623982155409
 40
0.641829304762875
 40
0.6862657705719829
 40
0.7305998649235096
 40
0.7746931868652306
 40
0.818652340596076
 40
0.8633190109555997
 40
0.9082811641646786
 40
0.9537315201021985
 40
1.0
 40
1.0
 40
1.0
 40
1.0
 10
491.1066411429994
 20
499.8900732330846
 30
0.0
 10
491.1143058980334
 20
499.902832957802
 30
0.0
 10
491.1296225860117
 20
499.9283310619575
 30
0.0
 10
491.1564575556044
 20
499.9638618564497
 30
0.0
 10
491.1858351322837
 20
499.9973225660718
 30
0.0
 10
491.2183653759798
 20
500.0281740661343
 30
0.0
 10
491.2530079591058
 20
500.0575320548485
 30
0.0
 10
491.2905714875139
 20
500.0842544189617
 30
0.0
 10
491.3309996952968
 20
500.1083550437614
 30
0.0
 10
491.3879914042544
 20
500.1381458355698
 30
0.0
 10
491.4640989854049
 20
500.1682426935794
 30
0.0
 10
491.5602275458352
 20
500.1927306955866
 30
0.0
 10
491.6608087957445
 20
500.2060556316261
 30
0.0
 10
491.7470915421618
 20
500.2075548173903
 30
0.0
 10
491.8170804401449
 20
500.2023206131399
 30
0.0
 10
491.8695508310333
 20
500.1956227448313
 30
0.0
 10
491.9212168873413
 20
500.1851677610183
 30
0.0
 10
491.9722840824933
 20
500.1716660433855
 30
0.0
 10
492.0229601155401
 20
500.1555346485233
 30
0.0
 10
492.0729324818179
 20
500.135649913084
 30
0.0
 10
492.1221055355392
 20
500.112336031838
 30
0.0
 10
492.1540366265814
 20
500.0946606347055
 30
0.0
 10
492.1701445833663
 20
500.0857441046442
 30
0.0
  0
SPLINE
  5
B1
330
1F
100
AcDbEntity
  8
0
  6
CONTINUOUS
 62
     7
100
AcDbSpline
210
0.0
220
0.0
230
1.0
 70
     8
 71
     3
 72
    15
 73
    11
 74
     0
 42
0.00000001
 43
0.00000001
 40
0.0
 40
0.0
 40
0.0
 40
0.0
 40
0.1392385712278191
 40
0.2726129222909815
 40
0.4009799841410024
 40
0.5243335231525368
 40
0.646499180166317
 40
0.764847383228477
 40
0.8818954373466628
 40
1.0
 40
1.0
 40
1.0
 40
1.0
 10
492.1701445833663
 20
500.0857441046442
 30
0.0
 10
492.1828899781981
 20
500.0780604858379
 30
0.0
 10
492.2078439783736
 20
500.0630168541913
 30
0.0
 10
492.242337178483
 20
500.0374971368809
 30
0.0
 10
492.2733355165491
 20
500.0103842972467
 30
0.0
 10
492.30124130492
 20
499.9817455551064
 30
0.0
 10
492.3257488488305
 20
499.951457604798
 30
0.0
 10
492.3462889298993
 20
499.9192159202336
 30
0.0
 10
492.3646335447781
 20
499.8860786691546
 30
0.0
 10
492.3731495568058
 20
499.862401025124
 30
0.0
 10
492.3774266934581
 20
499.8505090129011
 30
0.0
  0
LINE
  5
B2
330
1F
100
AcDbEntity
  8
0
  6
CONTINUOUS
 62
     7
100
AcDbLine
 10
492.3774266935
 20
499.8505090129
 30
0.0
 11
493.4383498586
 21
501.6876649762
 31
0.0
  0
SPLINE
  5
B3
330
1F
100
AcDbEntity
  8
0
  6
CONTINUOUS
 62
     7
100
AcDbSpline
210
0.0
220
0.0
230
1.0
 70
     8
 71
     3
 72
    11
 73
     7
 74
     0
 42
0.00000001
 43
0.00000001
 40
0.0
 40
0.0
 40
0.0
 40
0.0
 40
0.313275289734016
 40
0.5134535146113852
 40
0.7228546608076342
 40
1.0
 40
1.0
 40
1.0
 40
1.0
 10
493.4383498585957
 20
501.6876649762038
 30
0.0
 10
493.4410474057226
 20
501.6922044745294
 30
0.0
 10
493.4454686451197
 20
501.6996446443934
 30
0.0
 10
493.4568679019633
 20
501.7057807697909
 30
0.0
 10
493.4685352961192
 20
501.7027259113735
 30
0.0
 10
493.4756064245457
 20
501.6988842287413
 30
0.0
 10
493.4796342622654
 20
501.6966959395066
 30
0.0
  0
LINE
  5
B4
330
1F
100
AcDbEntity
  8
0
  6
CONTINUOUS
 62
     7
100
AcDbLine
 10
493.4796342623
 20
501.6966959395
 30
0.0
 11
493.5011365558
 21
501.6842246092
 31
0.0
  0
SPLINE
  5
B5
330
1F
100
AcDbEntity
  8
0
  6
CONTINUOUS
 62
     7
100
AcDbSpline
210
0.0
220
0.0
230
1.0
 70
     8
 71
     3
 72
    11
 73
     7
 74
     0
 42
0.00000001
 43
0.00000001
 40
0.0
 40
0.0
 40
0.0
 40
0.0
 40
0.2183077543838537
 40
0.4267376298304175
 40
0.6701955406511368
 40
1.0
 40
1.0
 40
1.0
 40
1.0
 10
493.5011365558434
 20
501.6842246092315
 30
0.0
 10
493.5073963704236
 20
501.6798976193244
 30
0.0
 10
493.5196327586577
 20
501.6714394249628
 30
0.0
 10
493.5319635898439
 20
501.6508912660544
 30
0.0
 10
493.53521048738
 20
501.6234762413105
 30
0.0
 10
493.5318709205738
 20
501.6038919229976
 30
0.0
 10
493.5299496292379
 20
501.5926248385892
 30
0.0
  0
SPLINE
  5
B6
330
1F
100
AcDbEntity
  8
0
  6
CONTINUOUS
 62
     7
100
AcDbSpline
210
0.0
220
0.0
230
1.0
 70
     8
 71
     3
 72
    15
 73
    11
 74
     0
 42
0.00000001
 43
0.00000001
 40
0.0
 40
0.0
 40
0.0
 40
0.0
 40
0.1128344511544473
 40
0.2280193305786017
 40
0.3466547692680393
 40
0.4691509036012818
 40
0.5948060653392376
 40
0.725056189287733
 40
0.8602046064234106
 40
1.0
 40
1.0
 40
1.0
 40
1.0
 10
493.5299496292379
 20
501.5926248385892
 30
0.0
 10
493.5207771846078
 20
501.5632120395125
 30
0.0
 10
493.502241226282
 20
501.5037737501665
 30
0.0
 10
493.4820362707829
 20
501.411231004001
 30
0.0
 10
493.4665256581562
 20
501.3151884601979
 30
0.0
 10
493.4562102657896
 20
501.2155461410273
 30
0.0
 10
493.4516556514196
 20
501.1123128080178
 30
0.0
 10
493.4522119447111
 20
501.0055476258438
 30
0.0
 10
493.457646652138
 20
500.8950322301549
 30
0.0
 10
493.4653807521862
 20
500.8203769510652
 30
0.0
 10
493.4693131613479
 20
500.7824184165709
 30
0.0
  0
SPLINE
  5
B7
330
1F
100
AcDbEntity
  8
0
  6
CONTINUOUS
 62
     7
100
AcDbSpline
210
0.0
220
0.0
230
1.0
 70
     8
 71
     3
 72
    15
 73
    11
 74
     0
 42
0.00000001
 43
0.00000001
 40
0.0
 40
0.0
 40
0.0
 40
0.0
 40
0.1396339184814326
 40
0.2737309824634735
 40
0.4028147323514166
 40
0.5278809585653799
 40
0.6495782139323916
 40
0.7682233105825161
 40
0.8847328933228403
 40
1.0
 40
1.0
 40
1.0
 40
1.0
 10
493.4693131613479
 20
500.7824184165709
 30
0.0
 10
493.473190295918
 20
500.7328512380592
 30
0.0
 10
493.4807908264091
 20
500.6356823508755
 30
0.0
 10
493.4821335429857
 20
500.4921578902977
 30
0.0
 10
493.4740183866879
 20
500.3540833115027
 30
0.0
 10
493.4569274543688
 20
500.2212673024246
 30
0.0
 10
493.430784341031
 20
500.093706238139
 30
0.0
 10
493.3955411070172
 20
499.9715304667127
 30
0.0
 10
493.3509513698884
 20
499.8547909051356
 30
0.0
 10
493.3139674567249
 20
499.7809902166592
 30
0.0
 10
493.2955746292379
 20
499.7442876826259
 30
0.0
  0
LINE
  5
B8
330
1F
100
AcDbEntity
  8
0
  6
CONTINUOUS
 62
     7
100
AcDbLine
 10
493.2955746292
 20
499.7442876826
 30
0.0
 11
493.283103299
 21
499.722785389
 31
0.0
  0
SPLINE
  5
B9
330
1F
100
AcDbEntity
  8
0
  6
CONTINUOUS
 62
     7
100
AcDbSpline
210
0.0
220
0.0
230
1.0
 70
     8
 71
     3
 72
    15
 73
    11
 74
     0
 42
0.00000001
 43
0.00000001
 40
0.0
 40
0.0
 40
0.0
 40
0.0
 40
0.09116871501407
 40
0.191181812462953
 40
0.3019438603282382
 40
0.4211113802892981
 40
0.551297734996294
 40
0.6906740473425006
 40
0.8400436558535042
 40
1.0
 40
1.0
 40
1.0
 40
1.0
 10
493.2831032989627
 20
499.7227853890479
 30
0.0
 10
493.2754607038891
 20
499.7102517138226
 30
0.0
 10
493.2594340967588
 20
499.6839684570493
 30
0.0
 10
493.2320757256836
 20
499.6437568601086
 30
0.0
 10
493.2003607698819
 20
499.6011289527981
 30
0.0
 10
493.1643673634631
 20
499.5556665573162
 30
0.0
 10
493.124162753455
 20
499.507684667698
 30
0.0
 10
493.0790567037679
 20
499.4575312489064
 30
0.0
 10
493.0306718144305
 20
499.4038779105504
 30
0.0
 10
492.9960856941961
 20
499.3680385546454
 30
0.0
 10
492.9782007760269
 20
499.3495055725342
 30
0.0
  0
SPLINE
  5
BA
330
1F
100
AcDbEntity
  8
0
  6
CONTINUOUS
 62
     7
100
AcDbSpline
210
0.0
220
0.0
230
1.0
 70
     8
 71
     3
 72
    11
 73
     7
 74
     0
 42
0.00000001
 43
0.00000001
 40
0.0
 40
0.0
 40
0.0
 40
0.0
 40
0.31263916544627
 40
0.5704391363133532
 40
0.7954896465087763
 40
1.0
 40
1.0
 40
1.0
 40
1.0
 10
492.9782007760269
 20
499.3495055725342
 30
0.0
 10
492.9698741247893
 20
499.3451809867269
 30
0.0
 10
492.9546813777976
 20
499.3372903790698
 30
0.0
 10
492.9316713891528
 20
499.3306158144483
 30
0.0
 10
492.9104986472199
 20
499.3303547578723
 30
0.0
 10
492.8986789520128
 20
499.3357538954098
 30
0.0
 10
492.8930516934581
 20
499.3383243798736
 30
0.0
  0
SPLINE
  5
BB
330
1F
100
AcDbEntity
  8
0
  6
CONTINUOUS
 62
     7
100
AcDbSpline
210
0.0
220
0.0
230
1.0
 70
     8
 71
     3
 72
     9
 73
     5
 74
     0
 42
0.00000001
 43
0.00000001
 40
0.0
 40
0.0
 40
0.0
 40
0.0
 40
0.6103345110622668
 40
1.0
 40
1.0
 40
1.0
 40
1.0
 10
492.8930516934581
 20
499.3383243798736
 30
0.0
 10
492.8886036889777
 20
499.3408513879971
 30
0.0
 10
492.8813158748368
 20
499.3449917537762
 30
0.0
 10
492.8752163225276
 20
499.3507155670202
 30
0.0
 10
492.8728395374948
 20
499.3529459395066
 30
0.0
  0
SPLINE
  5
BC
330
1F
100
AcDbEntity
  8
0
  6
CONTINUOUS
 62
     7
100
AcDbSpline
210
0.0
220
0.0
230
1.0
 70
     8
 71
     3
 72
    11
 73
     7
 74
     0
 42
0.00000001
 43
0.00000001
 40
0.0
 40
0.0
 40
0.0
 40
0.0
 40
0.2133770340127681
 40
0.4585993654809261
 40
0.7167329896809146
 40
1.0
 40
1.0
 40
1.0
 40
1.0
 10
492.8728395374948
 20
499.3529459395066
 30
0.0
 10
492.8694954850173
 20
499.3592792138959
 30
0.0
 10
492.8623082994263
 20
499.3728909675216
 30
0.0
 10
492.8583035620292
 20
499.3967073585264
 30
0.0
 10
492.8585330326093
 20
499.4235193585978
 30
0.0
 10
492.8667960491524
 20
499.4398642753959
 30
0.0
 10
492.8711193540085
 20
499.4484161229929
 30
0.0
  0
SPLINE
  5
BD
330
1F
100
AcDbEntity
  8
0
  6
CONTINUOUS
 62
     7
100
AcDbSpline
210
0.0
220
0.0
230
1.0
 70
     8
 71
     3
 72
     9
 73
     5
 74
     0
 42
0.00000001
 43
0.00000001
 40
0.0
 40
0.0
 40
0.0
 40
0.0
 40
0.5056837826511085
 40
1.0
 40
1.0
 40
1.0
 40
1.0
 10
492.8711193540085
 20
499.4484161229929
 30
0.0
 10
492.8749927463709
 20
499.4542708371471
 30
0.0
 10
492.8826524588143
 20
499.465848653868
 30
0.0
 10
492.893640679818
 20
499.4743279034317
 30
0.0
 10
492.8990723356599
 20
499.478519334002
 30
0.0
  0
SPLINE
  5
BE
330
1F
100
AcDbEntity
  8
0
  6
CONTINUOUS
 62
     7
100
AcDbSpline
210
0.0
220
0.0
230
1.0
 70
     8
 71
     3
 72
    11
 73
     7
 74
     0
 42
0.00000001
 43
0.00000001
 40
0.0
 40
0.0
 40
0.0
 40
0.0
 40
0.2564119644853772
 40
0.5064326086367876
 40
0.7543178109586632
 40
1.0
 40
1.0
 40
1.0
 40
1.0
 10
492.8990723356599
 20
499.478519334002
 30
0.0
 10
492.9251911775614
 20
499.5008258496941
 30
0.0
 10
492.9767778235487
 20
499.5448828692417
 30
0.0
 10
493.0456063131408
 20
499.6189745822029
 30
0.0
 10
493.1078688987361
 20
499.6968696354976
 30
0.0
 10
493.1424611891127
 20
499.7532214714164
 30
0.0
 10
493.1596801338251
 20
499.78127162758
 30
0.0
  0
SPLINE
  5
BF
330
1F
100
AcDbEntity
  8
0
  6
CONTINUOUS
 62
     7
100
AcDbSpline
210
0.0
220
0.0
230
1.0
 70
     8
 71
     3
 72
    11
 73
     7
 74
     0
 42
0.00000001
 43
0.00000001
 40
0.0
 40
0.0
 40
0.0
 40
0.0
 40
0.2608950623862364
 40
0.5139732528862364
 40
0.7595225121679314
 40
1.0
 40
1.0
 40
1.0
 40
1.0
 10
493.1596801338251
 20
499.78127162758
 30
0.0
 10
493.1780486172561
 20
499.8149532192158
 30
0.0
 10
493.2142352322624
 20
499.881307243156
 30
0.0
 10
493.2575025866071
 20
499.9843863129844
 30
0.0
 10
493.291027384667
 20
500.0879474790941
 30
0.0
 10
493.3047142875964
 20
500.1581102308738
 30
0.0
 10
493.3114863264856
 20
500.1928255266625
 30
0.0
  0
SPLINE
  5
C0
330
1F
100
AcDbEntity
  8
0
  6
CONTINUOUS
 62
     7
100
AcDbSpline
210
0.0
220
0.0
230
1.0
 70
     8
 71
     3
 72
    19
 73
    15
 74
     0
 42
0.00000001
 43
0.00000001
 40
0.0
 40
0.0
 40
0.0
 40
0.0
 40
0.0876686206538803
 40
0.1703419597995445
 40
0.2488351727654168
 40
0.3228214686432753
 40
0.3931446296548797
 40
0.4595668871425377
 40
0.5225803351141376
 40
0.5830669093301888
 40
0.6969182394021846
 40
0.8037100168516808
 40
0.9038931817817298
 40
0.9999999999999999
 40
0.9999999999999999
 40
0.9999999999999999
 40
0.9999999999999999
 10
493.3114863264856
 20
500.1928255266625
 30
0.0
 10
493.3153196834133
 20
500.2154387583171
 30
0.0
 10
493.322767975936
 20
500.2593767394178
 30
0.0
 10
493.3295181143342
 20
500.3241544015617
 30
0.0
 10
493.3330508862068
 20
500.3855757713631
 30
0.0
 10
493.3333101566378
 20
500.4438994893346
 30
0.0
 10
493.3293562925745
 20
500.4989189610753
 30
0.0
 10
493.3223220957292
 20
500.5507467788323
 30
0.0
 10
493.3110392599903
 20
500.599201081503
 30
0.0
 10
493.2918231626076
 20
500.6583027313372
 30
0.0
 10
493.2614406812919
 20
500.7254800417023
 30
0.0
 10
493.2200674680461
 20
500.7985687074327
 30
0.0
 10
493.1728478384323
 20
500.8627522942356
 30
0.0
 10
493.1354273042281
 20
500.8980300291325
 30
0.0
 10
493.1171055925406
 20
500.9153025908828
 30
0.0
  0
LINE
  5
C1
330
1F
100
AcDbEntity
  8
0
  6
CONTINUOUS
 62
     7
100
AcDbLine
 10
493.1171055925
 20
500.9153025909
 30
0.0
 11
492.3468934366
 21
499.5813002973
 31
0.0
  0
SPLINE
  5
C2
330
1F
100
AcDbEntity
  8
0
  6
CONTINUOUS
 62
     7
100
AcDbSpline
210
0.0
220
0.0
230
1.0
 70
     8
 71
     3
 72
    27
 73
    23
 74
     0
 42
0.00000001
 43
0.00000001
 40
0.0
 40
0.0
 40
0.0
 40
0.0
 40
0.0359586950658778
 40
0.0721152157522101
 40
0.1087934496860068
 40
0.1463037725308438
 40
0.1846437746074048
 40
0.22404707317467
 40
0.2652030653077672
 40
0.3080245335886702
 40
0.3955507359570571
 40
0.4835145568704155
 40
0.5727903101561931
 40
0.6644440817218339
 40
0.7105447256415054
 40
0.7550217661143719
 40
0.7983631643087341
 40
0.8403466565154475
 40
0.881476723611557
 40
0.9215643563774321
 40
0.9611229993707534
 40
0.9999999999999999
 40
0.9999999999999999
 40
0.9999999999999999
 40
0.9999999999999999
 10
492.3468934365773
 20
499.5813002973048
 30
0.0
 10
492.3395321375884
 20
499.5692420204526
 30
0.0
 10
492.3247690416575
 20
499.5450591285204
 30
0.0
 10
492.2981981956007
 20
499.5114953609913
 30
0.0
 10
492.2684363515407
 20
499.4799525757556
 30
0.0
 10
492.2351954146005
 20
499.4507589131422
 30
0.0
 10
492.1989190303981
 20
499.4236683800247
 30
0.0
 10
492.1596334966949
 20
499.3983321390731
 30
0.0
 10
492.1163761838757
 20
499.3764278826676
 30
0.0
 10
492.0550463155627
 20
499.3485731376776
 30
0.0
 10
491.9734275018758
 20
499.3216895207638
 30
0.0
 10
491.8719693454598
 20
499.2983611130389
 30
0.0
 10
491.7667781602866
 20
499.2870100586408
 30
0.0
 10
491.6775165474313
 20
499.2864899657814
 30
0.0
 10
491.6060888415121
 20
499.29092375903
 30
0.0
 10
491.5538368839342
 20
499.2969566259018
 30
0.0
 10
491.5035659997699
 20
499.3054675649159
 30
0.0
 10
491.4551849302154
 20
499.3167133488096
 30
0.0
 10
491.408745194239
 20
499.3303588590598
 30
0.0
 10
491.3642695213602
 20
499.346862817222
 30
0.0
 10
491.3215863063001
 20
499.365527468019
 30
0.0
 10
491.2946104691285
 20
499.3804053580118
 30
0.0
 10
491.2812397668525
 20
499.387779655103
 30
0.0
  0
SPLINE
  5
C3
330
1F
100
AcDbEntity
  8
0
  6
CONTINUOUS
 62
     7
100
AcDbSpline
210
0.0
220
0.0
230
1.0
 70
     8
 71
     3
 72
    31
 73
    27
 74
     0
 42
0.00000001
 43
0.00000001
 40
0.0
 40
0.0
 40
0.0
 40
0.0
 40
0.0137212474615128
 40
0.0328658449648318
 40
0.0575090819813112
 40
0.0876851185527188
 40
0.1231714301025894
 40
0.164527239983795
 40
0.2111463190197566
 40
0.2633398477821222
 40
0.3176316774051448
 40
0.3700288335642733
 40
0.4212428683552182
 40
0.4708897967719745
 40
0.5197105494674065
 40
0.5674943669606785
 40
0.6147105545064381
 40
0.6613515408495794
 40
0.7071452484875338
 40
0.7509891501975093
 40
0.7934529011239831
 40
0.8350706127354512
 40
0.876016446300917
 40
0.9168729725686745
 40
0.9581508628142361
 40
1.0
 40
1.0
 40
1.0
 40
1.0
 10
492.626233974359
 20
548.2794391025642
 30
0.0
 10
492.6354317176707
 20
548.2799541305475
 30
0.0
 10
492.6574626304251
 20
548.2811877523375
 30
0.0
 10
492.6955190919149
 20
548.2879454762694
 30
0.0
 10
492.7440982623575
 20
548.2979849918305
 30
0.0
 10
492.8030219650478
 20
548.3121497947859
 30
0.0
 10
492.8724967968136
 20
548.3302751547917
 30
0.0
 10
492.9521595814744
 20
548.3529797728668
 30
0.0
 10
493.0425054268982
 20
548.3790700303473
 30
0.0
 10
493.1410627085256
 20
548.4080172967606
 30
0.0
 10
493.2423663532466
 20
548.4413142120426
 30
0.0
 10
493.3410265608683
 20
548.4800585585557
 30
0.0
 10
493.4345428248604
 20
548.52294475081
 30
0.0
 10
493.5231657229519
 20
548.5702847775079
 30
0.0
 10
493.6069192534794
 20
548.6215656302693
 30
0.0
 10
493.6851409343234
 20
548.6781706239367
 30
0.0
 10
493.7591021602267
 20
548.7379515613086
 30
0.0
 10
493.826986527536
 20
548.8026563687195
 30
0.0
 10
493.8889248721986
 20
548.8700206728618
 30
0.0
 10
493.9429959560152
 20
548.9404163369137
 30
0.0
 10
493.9883440102317
 20
549.0134537647265
 30
0.0
 10
494.0254818121895
 20
549.0887927193584
 30
0.0
 10
494.0550221074129
 20
549.1663283679636
 30
0.0
 10
494.0753178507411
 20
549.2465000549305
 30
0.0
 10
494.0884548175804
 20
549.3288510876537
 30
0.0
 10
494.0898663213048
 20
549.384657465086
 30
0.0
 10
494.0905769230769
 20
549.4127524038461
 30
0.0
  0
SPLINE
  5
C4
330
1F
100
AcDbEntity
  8
0
  6
CONTINUOUS
 62
     7
100
AcDbSpline
210
0.0
220
0.0
230
1.0
 70
     8
 71
     3
 72
    23
 73
    19
 74
     0
 42
0.00000001
 43
0.00000001
 40
0.0
 40
0.0
 40
0.0
 40
0.0
 40
0.0641738411597652
 40
0.1260021634263518
 40
0.1852768859903036
 40
0.2429341962930598
 40
0.3000693072592532
 40
0.3576903386202098
 40
0.4157772292245573
 40
0.47547183959175
 40
0.536399223474855
 40
0.5971585841680542
 40
0.6592475294696519
 40
0.7223792486357719
 40
0.7878647970922039
 40
0.8554662536152865
 40
0.9262115944787781
 40
1.0
 40
1.0
 40
1.0
 40
1.0
 10
494.0905769230769
 20
549.4127524038461
 30
0.0
 10
494.0900012192582
 20
549.4349806856438
 30
0.0
 10
494.0888708532813
 20
549.4786248176632
 30
0.0
 10
494.0799658618355
 20
549.54235657761
 30
0.0
 10
494.064094574113
 20
549.6022937884064
 30
0.0
 10
494.0433212157242
 20
549.6590352875826
 30
0.0
 10
494.0152455473219
 20
549.7119056568451
 30
0.0
 10
493.9818165174004
 20
549.7617076076775
 30
0.0
 10
493.9417480726211
 20
549.8075763864996
 30
0.0
 10
493.8960759543131
 20
549.8494829222853
 30
0.0
 10
493.8458786845005
 20
549.8874462067246
 30
0.0
 10
493.7911157065307
 20
549.9200612928837
 30
0.0
 10
493.7331327521113
 20
549.948346565703
 30
0.0
 10
493.6708698591058
 20
549.970656758783
 30
0.0
 10
493.6053375317284
 20
549.9889390357056
 30
0.0
 10
493.535725817
 20
550.0011644909526
 30
0.0
 10
493.4625798804457
 20
550.0088555376485
 30
0.0
 10
493.412512089675
 20
550.0097511161626
 30
0.0
 10
493.3869511217949
 20
550.0102083333334
 30
0.0
  0
SPLINE
  5
C5
330
1F
100
AcDbEntity
  8
0
  6
CONTINUOUS
 62
     7
100
AcDbSpline
210
0.0
220
0.0
230
1.0
 70
     8
 71
     3
 72
    11
 73
     7
 74
     0
 42
0.00000001
 43
0.00000001
 40
0.0
 40
0.0
 40
0.0
 40
0.0
 40
0.217791100875516
 40
0.4569970064591317
 40
0.717682183940247
 40
1.0
 40
1.0
 40
1.0
 40
1.0
 10
493.3869511217949
 20
550.0102083333334
 30
0.0
 10
493.3492171048782
 20
550.0099722595743
 30
0.0
 10
493.2700387881182
 20
550.0094768995675
 30
0.0
 10
493.1458396555172
 20
550.0032075389355
 30
0.0
 10
493.0105731832123
 20
549.9950210424967
 30
0.0
 10
492.9168496704865
 20
549.9868911513361
 30
0.0
 10
492.8681209935898
 20
549.9826642628205
 30
0.0
  0
SPLINE
  5
C6
330
1F
100
AcDbEntity
  8
0
  6
CONTINUOUS
 62
     7
100
AcDbSpline
210
0.0
220
0.0
230
1.0
 70
     8
 71
     3
 72
     9
 73
     5
 74
     0
 42
0.00000001
 43
0.00000001
 40
0.0
 40
0.0
 40
0.0
 40
0.0
 40
0.5570145461482527
 40
1.0
 40
1.0
 40
1.0
 40
1.0
 10
492.8681209935898
 20
549.9826642628205
 30
0.0
 10
492.8566098901519
 20
549.981559086245
 30
0.0
 10
492.8359441759124
 20
549.9795749790378
 30
0.0
 10
492.8152076250227
 20
549.978592344215
 30
0.0
 10
492.8060216346154
 20
549.9781570512821
 30
0.0
  0
SPLINE
  5
C7
330
1F
100
AcDbEntity
  8
0
  6
CONTINUOUS
 62
     7
100
AcDbSpline
210
0.0
220
0.0
230
1.0
 70
     8
 71
     3
 72
    23
 73
    19
 74
     0
 42
0.00000001
 43
0.00000001
 40
0.0
 40
0.0
 40
0.0
 40
0.0
 40
0.087464068311056
 40
0.1713574587899181
 40
0.2523037235351532
 40
0.3296833626677039
 40
0.4038100720600724
 40
0.4743751706871812
 40
0.5420058104248124
 40
0.6060818635632138
 40
0.6669201821338325
 40
0.7242469342053268
 40
0.77831395649171
 40
0.8291627399643371
 40
0.8768244677258739
 40
0.921266834269232
 40
0.9622219225365064
 40
0.9999999999999999
 40
0.9999999999999999
 40
0.9999999999999999
 40
0.9999999999999999
 10
492.8060216346154
 20
549.9781570512821
 30
0.0
 10
492.7983058340914
 20
549.9324233789957
 30
0.0
 10
492.7831892268277
 20
549.8428230892375
 30
0.0
 10
492.7615565354959
 20
549.7107924424599
 30
0.0
 10
492.741619438573
 20
549.5839059635924
 30
0.0
 10
492.7230052351773
 20
549.4620551490335
 30
0.0
 10
492.7060307707001
 20
549.345525576445
 30
0.0
 10
492.6903765042024
 20
549.2340287531885
 30
0.0
 10
492.676453452421
 20
549.1276760007235
 30
0.0
 10
492.6637838863098
 20
549.0263612101708
 30
0.0
 10
492.653030028148
 20
548.9303232387464
 30
0.0
 10
492.6426118134592
 20
548.839586585606
 30
0.0
 10
492.6346994360277
 20
548.753910666001
 30
0.0
 10
492.6283815999668
 20
548.6732526767147
 30
0.0
 10
492.6223944717428
 20
548.5976751243173
 30
0.0
 10
492.6193504463558
 20
548.527179506902
 30
0.0
 10
492.6162773745669
 20
548.4619235483457
 30
0.0
 10
492.6162372171959
 20
548.4201676848926
 30
0.0
 10
492.616217948718
 20
548.4001322115384
 30
0.0
  0
SPLINE
  5
C8
330
1F
100
AcDbEntity
  8
0
  6
CONTINUOUS
 62
     7
100
AcDbSpline
210
0.0
220
0.0
230
1.0
 70
     8
 71
     3
 72
    11
 73
     7
 74
     0
 42
0.00000001
 43
0.00000001
 40
0.0
 40
0.0
 40
0.0
 40
0.0
 40
0.325887827992784
 40
0.602743646494323
 40
0.8268552970574312
 40
1.0
 40
1.0
 40
1.0
 40
1.0
 10
492.616217948718
 20
548.4001322115384
 30
0.0
 10
492.61622962772
 20
548.3869373941176
 30
0.0
 10
492.6162512285397
 20
548.3625330080562
 30
0.0
 10
492.6184665684962
 20
548.3291538590038
 30
0.0
 10
492.6207752658105
 20
548.3018992779346
 30
0.0
 10
492.6245769885253
 20
548.2862568676237
 30
0.0
 10
492.626233974359
 20
548.2794391025642
 30
0.0
  0
SPLINE
  5
C9
330
1F
100
AcDbEntity
  8
0
  6
CONTINUOUS
 62
     7
100
AcDbSpline
210
0.0
220
0.0
230
1.0
 70
     8
 71
     3
 72
    15
 73
    11
 74
     0
 42
0.00000001
 43
0.00000001
 40
0.0
 40
0.0
 40
0.0
 40
0.0
 40
0.0772570271434144
 40
0.1691573296731603
 40
0.2725237518091527
 40
0.3909553352636592
 40
0.5227947575688601
 40
0.667926249413687
 40
0.8280785193708
 40
1.0
 40
1.0
 40
1.0
 40
1.0
 10
492.1725080128205
 20
548.1867908653845
 30
0.0
 10
492.1740896336859
 20
548.19428854972
 30
0.0
 10
492.1775526553944
 20
548.2107050273892
 30
0.0
 10
492.1812962953126
 20
548.2374852195056
 30
0.0
 10
492.1847558699143
 20
548.2683965169421
 30
0.0
 10
492.1881972215966
 20
548.3032950936636
 30
0.0
 10
492.19180587434
 20
548.3423379172394
 30
0.0
 10
492.194777627816
 20
548.3855854984903
 30
0.0
 10
492.1971072346936
 20
548.4328483329494
 30
0.0
 10
492.1987175752731
 20
548.4657371823604
 30
0.0
 10
492.1995512820513
 20
548.482764423077
 30
0.0
  0
SPLINE
  5
CA
330
1F
100
AcDbEntity
  8
0
  6
CONTINUOUS
 62
     7
100
AcDbSpline
210
0.0
220
0.0
230
1.0
 70
     8
 71
     3
 72
    11
 73
     7
 74
     0
 42
0.00000001
 43
0.00000001
 40
0.0
 40
0.0
 40
0.0
 40
0.0
 40
0.2404743560133231
 40
0.4873914594903123
 40
0.7404888054937446
 40
0.9999999999999999
 40
0.9999999999999999
 40
0.9999999999999999
 40
0.9999999999999999
 10
492.1995512820513
 20
548.482764423077
 30
0.0
 10
492.2077776866094
 20
548.5814845019288
 30
0.0
 10
492.2244508961374
 20
548.7815695509555
 30
0.0
 10
492.261411026472
 20
549.0843916219932
 30
0.0
 10
492.3058549537956
 20
549.3941176094986
 30
0.0
 10
492.3430039778414
 20
549.601987938218
 30
0.0
 10
492.3618108974359
 20
549.7072235576923
 30
0.0
  0
SPLINE
  5
CB
330
1F
100
AcDbEntity
  8
0
  6
CONTINUOUS
 62
     7
100
AcDbSpline
210
0.0
220
0.0
230
1.0
 70
     8
 71
     3
 72
    11
 73
     7
 74
     0
 42
0.00000001
 43
0.00000001
 40
0.0
 40
0.0
 40
0.0
 40
0.0
 40
0.3107443508530894
 40
0.5803658079235771
 40
0.8113560329097055
 40
1.0
 40
1.0
 40
1.0
 40
1.0
 10
492.3618108974359
 20
549.7072235576923
 30
0.0
 10
492.3662809642295
 20
549.7282314841809
 30
0.0
 10
492.3746295437579
 20
549.7674672166921
 30
0.0
 10
492.3844021824144
 20
549.8226954611279
 30
0.0
 10
492.3902334371849
 20
549.8700282743279
 30
0.0
 10
492.3913548500919
 20
549.8990187791305
 30
0.0
 10
492.391858974359
 20
549.9120512820514
 30
0.0
  0
SPLINE
  5
CC
330
1F
100
AcDbEntity
  8
0
  6
CONTINUOUS
 62
     7
100
AcDbSpline
210
0.0
220
0.0
230
1.0
 70
     8
 71
     3
 72
    11
 73
     7
 74
     0
 42
0.00000001
 43
0.00000001
 40
0.0
 40
0.0
 40
0.0
 40
0.0
 40
0.273046796661531
 40
0.501901714895691
 40
0.7343926847121309
 40
1.0
 40
1.0
 40
1.0
 40
1.0
 10
492.391858974359
 20
549.9120512820514
 30
0.0
 10
492.3915465831807
 20
549.9168162907218
 30
0.0
 10
492.3909723604834
 20
549.9255751044218
 30
0.0
 10
492.3848617541892
 20
549.9370435086947
 30
0.0
 10
492.3753228389494
 20
549.9458588094745
 30
0.0
 10
492.3668368115677
 20
549.9479796526225
 30
0.0
 10
492.362311698718
 20
549.9491105769231
 30
0.0
  0
SPLINE
  5
CD
330
1F
100
AcDbEntity
  8
0
  6
CONTINUOUS
 62
     7
100
AcDbSpline
210
0.0
220
0.0
230
1.0
 70
     8
 71
     3
 72
    15
 73
    11
 74
     0
 42
0.00000001
 43
0.00000001
 40
0.0
 40
0.0
 40
0.0
 40
0.0
 40
0.1746981230424919
 40
0.330482841860902
 40
0.468739529720306
 40
0.5914486718252729
 40
0.7001016179396563
 40
0.8027874772237499
 40
0.8994215195141029
 40
1.0
 40
1.0
 40
1.0
 40
1.0
 10
492.362311698718
 20
549.9491105769231
 30
0.0
 10
492.3470438128686
 20
549.9530210268598
 30
0.0
 10
492.3181609936555
 20
549.9604185683191
 30
0.0
 10
492.2783663109948
 20
549.974914042007
 30
0.0
 10
492.2444862701253
 20
549.9913250240002
 30
0.0
 10
492.2164536704349
 20
550.0096294991919
 30
0.0
 10
492.1946609324584
 20
550.0307114683233
 30
0.0
 10
492.1788278505648
 20
550.0537575405185
 30
0.0
 10
492.169093061353
 20
550.0794263897919
 30
0.0
 10
492.168038054167
 20
550.0972646554903
 30
0.0
 10
492.1675
 20
550.1063621794872
 30
0.0
  0
SPLINE
  5
CE
330
1F
100
AcDbEntity
  8
0
  6
CONTINUOUS
 62
     7
100
AcDbSpline
210
0.0
220
0.0
230
1.0
 70
     8
 71
     3
 72
    15
 73
    11
 74
     0
 42
0.00000001
 43
0.00000001
 40
0.0
 40
0.0
 40
0.0
 40
0.0
 40
0.1132335654084045
 40
0.2312555952539537
 40
0.3553425241881228
 40
0.4945429471776034
 40
0.6340344629630169
 40
0.7622768480964931
 40
0.8825205238597006
 40
1.0
 40
1.0
 40
1.0
 40
1.0
 10
492.1675
 20
550.1063621794872
 30
0.0
 10
492.1683660432669
 20
550.1196679246084
 30
0.0
 10
492.1701347533702
 20
550.146842093303
 30
0.0
 10
492.1850877873712
 20
550.1863289968845
 30
0.0
 10
492.2090673635115
 20
550.224280339484
 30
0.0
 10
492.2409371600843
 20
550.2593488789944
 30
0.0
 10
492.277258870714
 20
550.2905782444195
 30
0.0
 10
492.3167772490952
 20
550.3134913860723
 30
0.0
 10
492.3576432850425
 20
550.3280740853822
 30
0.0
 10
492.3855699995834
 20
550.3298456642189
 30
0.0
 10
492.3993709935897
 20
550.3307211538462
 30
0.0
  0
LINE
  5
CF
330
1F
100
AcDbEntity
  8
0
  6
CONTINUOUS
 62
     7
100
AcDbLine
 10
492.3993709936
 20
550.3307211538
 30
0.0
 11
492.6297395833
 21
550.3242107372
 31
0.0
  0
SPLINE
  5
D0
330
1F
100
AcDbEntity
  8
0
  6
CONTINUOUS
 62
     7
100
AcDbSpline
210
0.0
220
0.0
230
1.0
 70
     8
 71
     3
 72
    11
 73
     7
 74
     0
 42
0.00000001
 43
0.00000001
 40
0.0
 40
0.0
 40
0.0
 40
0.0
 40
0.1991017836749141
 40
0.4318983705611318
 40
0.6984832291825729
 40
1.0
 40
1.0
 40
1.0
 40
1.0
 10
492.6297395833334
 20
550.3242107371796
 30
0.0
 10
492.6584549007171
 20
550.3244068393759
 30
0.0
 10
492.7207451452306
 20
550.3248322309395
 30
0.0
 10
492.8214215249161
 20
550.328665392231
 30
0.0
 10
492.9367638679407
 20
550.3348168903601
 30
0.0
 10
493.0185327249907
 20
550.3399931262769
 30
0.0
 10
493.0619310897436
 20
550.3427403846154
 30
0.0
  0
SPLINE
  5
D1
330
1F
100
AcDbEntity
  8
0
  6
CONTINUOUS
 62
     7
100
AcDbSpline
210
0.0
220
0.0
230
1.0
 70
     8
 71
     3
 72
    11
 73
     7
 74
     0
 42
0.00000001
 43
0.00000001
 40
0.0
 40
0.0
 40
0.0
 40
0.0
 40
0.2938824983416565
 40
0.5583834989031576
 40
0.7937501911548795
 40
1.0
 40
1.0
 40
1.0
 40
1.0
 10
493.0619310897436
 20
550.3427403846154
 30
0.0
 10
493.0991434881536
 20
550.3459457428096
 30
0.0
 10
493.1698479001006
 20
550.3520359970229
 30
0.0
 10
493.2705681621198
 20
550.3576058312963
 30
0.0
 10
493.3601976849357
 20
550.362329430712
 30
0.0
 10
493.4163261682688
 20
550.3626314041237
 30
0.0
 10
493.4425400641026
 20
550.3627724358975
 30
0.0
  0
SPLINE
  5
D2
330
1F
100
AcDbEntity
  8
0
  6
CONTINUOUS
 62
     7
100
AcDbSpline
210
0.0
220
0.0
230
1.0
 70
     8
 71
     3
 72
    23
 73
    19
 74
     0
 42
0.00000001
 43
0.00000001
 40
0.0
 40
0.0
 40
0.0
 40
0.0
 40
0.0720730665838824
 40
0.1408172202149433
 40
0.2072480390402591
 40
0.2712187475856909
 40
0.3333696555333947
 40
0.3944670488045371
 40
0.4552639353425326
 40
0.5162136328252986
 40
0.5765872971183792
 40
0.635307350032467
 40
0.6935287010641071
 40
0.7517069889603962
 40
0.8107275068562652
 40
0.8714220409929674
 40
0.9344301583477324
 40
1.0
 40
1.0
 40
1.0
 40
1.0
 10
493.4425400641026
 20
550.3627724358975
 30
0.0
 10
493.4813062377786
 20
550.3620936345948
 30
0.0
 10
493.5570480519426
 20
550.3607673844842
 30
0.0
 10
493.6678884794772
 20
550.3477475069918
 30
0.0
 10
493.7731227337085
 20
550.3275113636272
 30
0.0
 10
493.8728689267045
 20
550.2991361125216
 30
0.0
 10
493.9664915187717
 20
550.2617350619255
 30
0.0
 10
494.0547678374841
 20
550.2166503272599
 30
0.0
 10
494.1371329971595
 20
550.1626611948169
 30
0.0
 10
494.2136874633026
 20
550.1013515043644
 30
0.0
 10
494.2825647881953
 20
550.0330627038289
 30
0.0
 10
494.3427835244456
 20
549.9588941234581
 30
0.0
 10
494.3934991287805
 20
549.8793403877111
 30
0.0
 10
494.4355534332358
 20
549.7946912361637
 30
0.0
 10
494.4675706917672
 20
549.7043232600842
 30
0.0
 10
494.4904579974744
 20
549.6086502375105
 30
0.0
 10
494.5049227044818
 20
549.5076774461121
 30
0.0
 10
494.5064597535189
 20
549.438509954772
 30
0.0
 10
494.5072435897436
 20
549.4032371794872
 30
0.0
  0
SPLINE
  5
D3
330
1F
100
AcDbEntity
  8
0
  6
CONTINUOUS
 62
     7
100
AcDbSpline
210
0.0
220
0.0
230
1.0
 70
     8
 71
     3
 72
    23
 73
    19
 74
     0
 42
0.00000001
 43
0.00000001
 40
0.0
 40
0.0
 40
0.0
 40
0.0
 40
0.0533152395898134
 40
0.1058201792904503
 40
0.1587868565079793
 40
0.2127148207833016
 40
0.2685152563446468
 40
0.3264612237879929
 40
0.3876402512749784
 40
0.4522401056178085
 40
0.5185989790405527
 40
0.5850799308373683
 40
0.6519569325858828
 40
0.7190944537371147
 40
0.787471480664041
 40
0.8567509722999055
 40
0.9276787577951424
 40
1.0
 40
1.0
 40
1.0
 40
1.0
 10
494.5072435897436
 20
549.4032371794872
 30
0.0
 10
494.5059188390421
 20
549.3632469551776
 30
0.0
 10
494.5032894715698
 20
549.2838742891469
 30
0.0
 10
494.4813917091686
 20
549.1664230722267
 30
0.0
 10
494.445647177092
 20
549.0521482518266
 30
0.0
 10
494.3953960992083
 20
548.94072102959
 30
0.0
 10
494.3315113396604
 20
548.832193199557
 30
0.0
 10
494.252926580553
 20
548.7269331609447
 30
0.0
 10
494.1603345568134
 20
548.6247319723066
 30
0.0
 10
494.0546604329131
 20
548.5266444412201
 30
0.0
 10
493.9392012039485
 20
548.433878357069
 30
0.0
 10
493.816751456436
 20
548.3475889880876
 30
0.0
 10
493.6886430331668
 20
548.2687694985053
 30
0.0
 10
493.5540057820699
 20
548.1986212642395
 30
0.0
 10
493.4140047262252
 20
548.1354082358824
 30
0.0
 10
493.267560298618
 20
548.0803891287741
 30
0.0
 10
493.1155136339129
 20
548.0323973802742
 30
0.0
 10
493.0110201813329
 20
548.0075357236892
 30
0.0
 10
492.958265224359
 20
547.994983974359
 30
0.0
  0
SPLINE
  5
D4
330
1F
100
AcDbEntity
  8
0
  6
CONTINUOUS
 62
     7
100
AcDbSpline
210
0.0
220
0.0
230
1.0
 70
     8
 71
     3
 72
    15
 73
    11
 74
     0
 42
0.00000001
 43
0.00000001
 40
0.0
 40
0.0
 40
0.0
 40
0.0
 40
0.1858562550873903
 40
0.3441887526802538
 40
0.4729043824527092
 40
0.5741154473363463
 40
0.6646900294062766
 40
0.7664863813088674
 40
0.877143005798939
 40
1.0
 40
1.0
 40
1.0
 40
1.0
 10
492.958265224359
 20
547.994983974359
 30
0.0
 10
492.9320330416581
 20
547.9892515916923
 30
0.0
 10
492.8834534431954
 20
547.9786357443053
 30
0.0
 10
492.8170399893311
 20
547.9624906848709
 30
0.0
 10
492.7631904191053
 20
547.9467900002066
 30
0.0
 10
492.7190562817585
 20
547.9326146081839
 30
0.0
 10
492.6802175657266
 20
547.9154416921215
 30
0.0
 10
492.6409876038222
 20
547.896005689288
 30
0.0
 10
492.5984374060312
 20
547.8727951841471
 30
0.0
 10
492.5697254335013
 20
547.8550705422954
 30
0.0
 10
492.5546193910257
 20
547.8457451923076
 30
0.0
  0
SPLINE
  5
D5
330
1F
100
AcDbEntity
  8
0
  6
CONTINUOUS
 62
     7
100
AcDbSpline
210
0.0
220
0.0
230
1.0
 70
     8
 71
     3
 72
    11
 73
     7
 74
     0
 42
0.00000001
 43
0.00000001
 40
0.0
 40
0.0
 40
0.0
 40
0.0
 40
0.273966422957404
 40
0.5274489918255286
 40
0.7682592301889043
 40
1.0
 40
1.0
 40
1.0
 40
1.0
 10
492.5546193910257
 20
547.8457451923076
 30
0.0
 10
492.5357334136366
 20
547.8336492018652
 30
0.0
 10
492.499373520968
 20
547.8103616110171
 30
0.0
 10
492.4413696860098
 20
547.7857962497219
 30
0.0
 10
492.3838895946669
 20
547.7696162489337
 30
0.0
 10
492.3452184697315
 20
547.7676049420909
 30
0.0
 10
492.3262540064103
 20
547.7666185897436
 30
0.0
  0
SPLINE
  5
D6
330
1F
100
AcDbEntity
  8
0
  6
CONTINUOUS
 62
     7
100
AcDbSpline
210
0.0
220
0.0
230
1.0
 70
     8
 71
     3
 72
    15
 73
    11
 74
     0
 42
0.00000001
 43
0.00000001
 40
0.0
 40
0.0
 40
0.0
 40
0.0
 40
0.1267104742002266
 40
0.2552230887120782
 40
0.3910768612399018
 40
0.541492768916543
 40
0.6891841523735988
 40
0.8135173093928627
 40
0.9150422737522647
 40
1.0
 40
1.0
 40
1.0
 40
1.0
 10
492.3262540064103
 20
547.7666185897436
 30
0.0
 10
492.3120806755582
 20
547.7675385364506
 30
0.0
 10
492.2835324335898
 20
547.7693915138112
 30
0.0
 10
492.242602315151
 20
547.7862069434286
 30
0.0
 10
492.2041837861883
 20
547.8124084257975
 30
0.0
 10
492.1709212962901
 20
547.8479239893278
 30
0.0
 10
492.1429610166522
 20
547.8858532470332
 30
0.0
 10
492.1207715851477
 20
547.9210829366963
 30
0.0
 10
492.1068858159866
 20
547.9532852516969
 30
0.0
 10
492.1044892587148
 20
547.9740194604775
 30
0.0
 10
492.1033974358975
 20
547.9834655448717
 30
0.0
  0
SPLINE
  5
D7
330
1F
100
AcDbEntity
  8
0
  6
CONTINUOUS
 62
     7
100
AcDbSpline
210
0.0
220
0.0
230
1.0
 70
     8
 71
     3
 72
    11
 73
     7
 74
     0
 42
0.00000001
 43
0.00000001
 40
0.0
 40
0.0
 40
0.0
 40
0.0
 40
0.1808233771951121
 40
0.4101897256608536
 40
0.6801177216266558
 40
1.0
 40
1.0
 40
1.0
 40
1.0
 10
492.1033974358975
 20
547.9834655448717
 30
0.0
 10
492.103842184671
 20
547.990014810829
 30
0.0
 10
492.1048510773276
 20
548.0048715270789
 30
0.0
 10
492.1122315514284
 20
548.0285103945755
 30
0.0
 10
492.1220514505065
 20
548.0564745777905
 30
0.0
 10
492.1313871336923
 20
548.0757019082021
 30
0.0
 10
492.1364503205128
 20
548.0861298076924
 30
0.0
  0
LINE
  5
D8
330
1F
100
AcDbEntity
  8
0
  6
CONTINUOUS
 62
     7
100
AcDbLine
 10
492.1364503205
 20
548.0861298077
 30
0.0
 11
492.1725080128
 21
548.1867908654
 31
0.0
  0
SPLINE
  5
D9
330
1F
100
AcDbEntity
  8
0
  6
CONTINUOUS
 62
     7
100
AcDbSpline
210
0.0
220
0.0
230
1.0
 70
     8
 71
     3
 72
    11
 73
     7
 74
     0
 42
0.00000001
 43
0.00000001
 40
0.0
 40
0.0
 40
0.0
 40
0.0
 40
0.2587074490505189
 40
0.4947813259656376
 40
0.7361691337958981
 40
1.0
 40
1.0
 40
1.0
 40
1.0
 10
492.9995795659872
 20
540.6316441335437
 30
0.0
 10
492.9915732715194
 20
540.6276907201124
 30
0.0
 10
492.9762611303058
 20
540.6201297660431
 30
0.0
 10
492.9507917152765
 20
540.6172563431418
 30
0.0
 10
492.9252010582275
 20
540.6209400408602
 30
0.0
 10
492.9099325431912
 20
540.6293845469648
 30
0.0
 10
492.9019591531431
 20
540.6337943629017
 30
0.0
  0
LINE
  5
DA
330
1F
100
AcDbEntity
  8
0
  6
CONTINUOUS
 62
     7
100
AcDbLine
 10
492.9019591531
 20
540.6337943629
 30
0.0
 11
491.7554568596
 21
541.396695739
 31
0.0
  0
SPLINE
  5
DB
330
1F
100
AcDbEntity
  8
0
  6
CONTINUOUS
 62
     7
100
AcDbSpline
210
0.0
220
0.0
230
1.0
 70
     8
 71
     3
 72
     9
 73
     5
 74
     0
 42
0.00000001
 43
0.00000001
 40
0.0
 40
0.0
 40
0.0
 40
0.0
 40
0.4609784413917811
 40
1.0
 40
1.0
 40
1.0
 40
1.0
 10
491.7554568595652
 20
541.3966957390484
 30
0.0
 10
491.7518879818275
 20
541.3926396506878
 30
0.0
 10
491.7441460194768
 20
541.3838407828963
 30
0.0
 10
491.7341708480035
 20
541.3776632026564
 30
0.0
 10
491.7287940155285
 20
541.3743333537273
 30
0.0
  0
SPLINE
  5
DC
330
1F
100
AcDbEntity
  8
0
  6
CONTINUOUS
 62
     7
100
AcDbSpline
210
0.0
220
0.0
230
1.0
 70
     8
 71
     3
 72
    15
 73
    11
 74
     0
 42
0.00000001
 43
0.00000001
 40
0.0
 40
0.0
 40
0.0
 40
0.0
 40
0.1280697776716785
 40
0.2520425614598195
 40
0.3746206249441787
 40
0.5027337020148117
 40
0.630740472596931
 40
0.752327322533154
 40
0.8738021548062206
 40
1.0
 40
1.0
 40
1.0
 40
1.0
 10
491.7287940155285
 20
541.3743333537273
 30
0.0
 10
491.7124382393209
 20
541.3660546006057
 30
0.0
 10
491.6802499135114
 20
541.3497619343705
 30
0.0
 10
491.6276982348982
 20
541.3373111825869
 30
0.0
 10
491.5739420653671
 20
541.3357061532781
 30
0.0
 10
491.5202476226577
 20
541.3443167519613
 30
0.0
 10
491.4691648675803
 20
541.3625188721987
 30
0.0
 10
491.4232173959745
 20
541.3895240686786
 30
0.0
 10
491.384281602127
 20
541.4259471497613
 30
0.0
 10
491.3652244705247
 20
541.4558547248813
 30
0.0
 10
491.3555141990147
 20
541.4710936748281
 30
0.0
  0
SPLINE
  5
DD
330
1F
100
AcDbEntity
  8
0
  6
CONTINUOUS
 62
     7
100
AcDbSpline
210
0.0
220
0.0
230
1.0
 70
     8
 71
     3
 72
    15
 73
    11
 74
     0
 42
0.00000001
 43
0.00000001
 40
0.0
 40
0.0
 40
0.0
 40
0.0
 40
0.1258073280336968
 40
0.2473473714810442
 40
0.3698458041160712
 40
0.4976446769600116
 40
0.625742955711711
 40
0.7480313520489233
 40
0.8715990877832022
 40
1.0
 40
1.0
 40
1.0
 40
1.0
 10
491.3555141990147
 20
541.4710936748281
 30
0.0
 10
491.3473466846069
 20
541.4871537615473
 30
0.0
 10
491.3312886913891
 20
541.5187291896071
 30
0.0
 10
491.3196477788053
 20
541.5708260935183
 30
0.0
 10
491.3193861144662
 20
541.6242676199735
 30
0.0
 10
491.3299801522554
 20
541.6775414229654
 30
0.0
 10
491.349218540301
 20
541.7283347828034
 30
0.0
 10
491.3779401489863
 20
541.7736868667172
 30
0.0
 10
491.4148365775916
 20
541.813071142976
 30
0.0
 10
491.4453341528734
 20
541.8323824149088
 30
0.0
 10
491.4608754375469
 20
541.8422232619841
 30
0.0
  0
SPLINE
  5
DE
330
1F
100
AcDbEntity
  8
0
  6
CONTINUOUS
 62
     7
100
AcDbSpline
210
0.0
220
0.0
230
1.0
 70
     8
 71
     3
 72
    15
 73
    11
 74
     0
 42
0.00000001
 43
0.00000001
 40
0.0
 40
0.0
 40
0.0
 40
0.0
 40
0.1423373078880509
 40
0.2764781380797478
 40
0.4054380793384483
 40
0.5357538562092428
 40
0.6621395017516372
 40
0.778775926348042
 40
0.8901338419567704
 40
1.0
 40
1.0
 40
1.0
 40
1.0
 10
491.4608754375469
 20
541.8422232619841
 30
0.0
 10
491.4800526509578
 20
541.8521602224876
 30
0.0
 10
491.5173027601251
 20
541.871461924753
 30
0.0
 10
491.5772093762719
 20
541.887107846963
 30
0.0
 10
491.6370830998242
 20
541.8903251700989
 30
0.0
 10
491.6950998123604
 20
541.8809975584003
 30
0.0
 10
491.7487761801275
 20
541.862400862893
 30
0.0
 10
491.7957282013674
 20
541.8359599028569
 30
0.0
 10
491.8349627110371
 20
541.8021806186858
 30
0.0
 10
491.8533878394932
 20
541.7740533172588
 30
0.0
 10
491.8625382815836
 20
541.7600845005163
 30
0.0
  0
SPLINE
  5
DF
330
1F
100
AcDbEntity
  8
0
  6
CONTINUOUS
 62
     7
100
AcDbSpline
210
0.0
220
0.0
230
1.0
 70
     8
 71
     3
 72
    11
 73
     7
 74
     0
 42
0.00000001
 43
0.00000001
 40
0.0
 40
0.0
 40
0.0
 40
0.0
 40
0.2597157498499712
 40
0.5233075061534044
 40
0.7766015166064905
 40
1.0
 40
1.0
 40
1.0
 40
1.0
 10
491.8625382815836
 20
541.7600845005163
 30
0.0
 10
491.8704303684774
 20
541.7440266190581
 30
0.0
 10
491.8863323240313
 20
541.711671207787
 30
0.0
 10
491.8942419915066
 20
541.6585241446079
 30
0.0
 10
491.8947582646226
 20
541.6073897835478
 30
0.0
 10
491.8859964886366
 20
541.5757847377191
 30
0.0
 10
491.8818903458037
 20
541.5609732619841
 30
0.0
  0
LINE
  5
E0
330
1F
100
AcDbEntity
  8
0
  6
CONTINUOUS
 62
     7
100
AcDbLine
 10
491.8818903458
 20
541.560973262
 30
0.0
 11
493.033123144
 21
540.8010822069
 31
0.0
  0
SPLINE
  5
E1
330
1F
100
AcDbEntity
  8
0
  6
CONTINUOUS
 62
     7
100
AcDbSpline
210
0.0
220
0.0
230
1.0
 70
     8
 71
     3
 72
     9
 73
     5
 74
     0
 42
0.00000001
 43
0.00000001
 40
0.0
 40
0.0
 40
0.0
 40
0.0
 40
0.5910608431667322
 40
1.0
 40
1.0
 40
1.0
 40
1.0
 10
493.0331231439689
 20
540.8010822069382
 30
0.0
 10
493.0391453584368
 20
540.7959253038796
 30
0.0
 10
493.0493341816986
 20
540.7872004778005
 30
0.0
 10
493.0582785251102
 20
540.7772133520646
 30
0.0
 10
493.0619362173634
 20
540.7731292252869
 30
0.0
  0
SPLINE
  5
E2
330
1F
100
AcDbEntity
  8
0
  6
CONTINUOUS
 62
     7
100
AcDbSpline
210
0.0
220
0.0
230
1.0
 70
     8
 71
     3
 72
    11
 73
     7
 74
     0
 42
0.00000001
 43
0.00000001
 40
0.0
 40
0.0
 40
0.0
 40
0.0
 40
0.1996137333295837
 40
0.4189721028323304
 40
0.6808209857421674
 40
1.0
 40
1.0
 40
1.0
 40
1.0
 10
493.0619362173634
 20
540.7731292252869
 30
0.0
 10
493.0649872402023
 20
540.7659313366464
 30
0.0
 10
493.071391075416
 20
540.7508235858452
 30
0.0
 10
493.0686086904097
 20
540.7238493246598
 30
0.0
 10
493.058730263685
 20
540.6944700946909
 30
0.0
 10
493.0469211076312
 20
540.675292559011
 30
0.0
 10
493.0404339237854
 20
540.6647576656538
 30
0.0
  0
SPLINE
  5
E3
330
1F
100
AcDbEntity
  8
0
  6
CONTINUOUS
 62
     7
100
AcDbSpline
210
0.0
220
0.0
230
1.0
 70
     8
 71
     3
 72
     9
 73
     5
 74
     0
 42
0.00000001
 43
0.00000001
 40
0.0
 40
0.0
 40
0.0
 40
0.0
 40
0.5670425089098161
 40
1.0
 40
1.0
 40
1.0
 40
1.0
 10
493.0404339237854
 20
540.6647576656538
 30
0.0
 10
493.0331552448322
 20
540.6579441829663
 30
0.0
 10
493.0203190308999
 20
540.6459283594954
 30
0.0
 10
493.00584584168
 20
540.6359600066025
 30
0.0
 10
492.9995795659872
 20
540.6316441335437
 30
0.0
  0
LINE
  5
E4
330
1F
100
AcDbEntity
  8
0
  6
CONTINUOUS
 62
     7
100
AcDbLine
 10
494.9038782051
 20
549.0391546474
 30
0.0
 11
494.9038782051
 21
549.0376522436
 31
0.0
  0
SPLINE
  5
E5
330
1F
100
AcDbEntity
  8
0
  6
CONTINUOUS
 62
     7
100
AcDbSpline
210
0.0
220
0.0
230
1.0
 70
     8
 71
     3
 72
    15
 73
    11
 74
     0
 42
0.00000001
 43
0.00000001
 40
0.0
 40
0.0
 40
0.0
 40
0.0
 40
0.2077827442239625
 40
0.3917136111851748
 40
0.5511245404254664
 40
0.6880496453001673
 40
0.8020832877948505
 40
0.8908616794395975
 40
0.956664539299455
 40
1.0
 40
1.0
 40
1.0
 40
1.0
 10
494.9038782051283
 20
549.0376522435898
 30
0.0
 10
494.9078007410561
 20
549.0622050682979
 30
0.0
 10
494.915195535648
 20
549.1084922403492
 30
0.0
 10
494.9268579002053
 20
549.1734128983369
 30
0.0
 10
494.9347704264724
 20
549.2303422438051
 30
0.0
 10
494.9429086293424
 20
549.27878089372
 30
0.0
 10
494.9477274996368
 20
549.3191530950706
 30
0.0
 10
494.9530616728774
 20
549.3508771093215
 30
0.0
 10
494.9548135245253
 20
549.3745126819286
 30
0.0
 10
494.9556352547398
 20
549.3875454445324
 30
0.0
 10
494.9559615384616
 20
549.3927203525642
 30
0.0
  0
SPLINE
  5
E6
330
1F
100
AcDbEntity
  8
0
  6
CONTINUOUS
 62
     7
100
AcDbSpline
210
0.0
220
0.0
230
1.0
 70
     8
 71
     3
 72
    15
 73
    11
 74
     0
 42
0.00000001
 43
0.00000001
 40
0.0
 40
0.0
 40
0.0
 40
0.0
 40
0.0665899857539263
 40
0.1493015483113908
 40
0.2505718758966301
 40
0.3662405249808168
 40
0.4991097178592568
 40
0.6485124763622372
 40
0.8165892986096447
 40
1.0
 40
1.0
 40
1.0
 40
1.0
 10
495.4046794871795
 20
549.5134134615384
 30
0.0
 10
495.4044017423887
 20
549.5070670613103
 30
0.0
 10
495.403779010204
 20
549.4928377838964
 30
0.0
 10
495.4013133904313
 20
549.4690307133606
 30
0.0
 10
495.3957689333282
 20
549.4409744674782
 30
0.0
 10
495.3902621811992
 20
549.4080525107065
 30
0.0
 10
495.3812129978021
 20
549.3711643990459
 30
0.0
 10
495.3713584094107
 20
549.3293554007325
 30
0.0
 10
495.3593973663025
 20
549.2830876138094
 30
0.0
 10
495.3503210659312
 20
549.2508094870213
 30
0.0
 10
495.3455849358975
 20
549.2339663461538
 30
0.0
  0
LINE
  5
E7
330
1F
100
AcDbEntity
  8
0
  6
CONTINUOUS
 62
     7
100
AcDbLine
 10
495.3455849359
 20
549.2339663462
 30
0.0
 11
495.3355689103
 21
549.19640625
 31
0.0
  0
SPLINE
  5
E8
330
1F
100
AcDbEntity
  8
0
  6
CONTINUOUS
 62
     7
100
AcDbSpline
210
0.0
220
0.0
230
1.0
 70
     8
 71
     3
 72
    19
 73
    15
 74
     0
 42
0.00000001
 43
0.00000001
 40
0.0
 40
0.0
 40
0.0
 40
0.0
 40
0.0937002874217868
 40
0.1828338028161246
 40
0.2675626081227444
 40
0.3473503597384785
 40
0.4221115435990812
 40
0.4925509917186869
 40
0.5586292477489249
 40
0.6199156475054954
 40
0.7319165723173487
 40
0.8323912628011747
 40
0.921933578835288
 40
1.0
 40
1.0
 40
1.0
 40
1.0
 10
495.3355689102564
 20
549.19640625
 30
0.0
 10
495.3284403700202
 20
549.1698939865194
 30
0.0
 10
495.3145307209061
 20
549.1181616163549
 30
0.0
 10
495.2961361744092
 20
549.041950556227
 30
0.0
 10
495.2796542378913
 20
548.9694863854428
 30
0.0
 10
495.2649067429286
 20
548.9009421188556
 30
0.0
 10
495.2530007664465
 20
548.8361028639102
 30
0.0
 10
495.2427238857218
 20
548.7750517361848
 30
0.0
 10
495.2353279599234
 20
548.7175592529247
 30
0.0
 10
495.2281924587429
 20
548.6477866511865
 30
0.0
 10
495.2225017985759
 20
548.5677689653709
 30
0.0
 10
495.2168663924826
 20
548.4794671123327
 30
0.0
 10
495.2129571598729
 20
548.4010021353903
 30
0.0
 10
495.2125578020816
 20
548.3518921719505
 30
0.0
 10
495.2123717948718
 20
548.3290184294872
 30
0.0
  0
SPLINE
  5
E9
330
1F
100
AcDbEntity
  8
0
  6
CONTINUOUS
 62
     7
100
AcDbSpline
210
0.0
220
0.0
230
1.0
 70
     8
 71
     3
 72
    11
 73
     7
 74
     0
 42
0.00000001
 43
0.00000001
 40
0.0
 40
0.0
 40
0.0
 40
0.0
 40
0.2010717656265173
 40
0.4338747952385844
 40
0.7005506022930791
 40
1.0
 40
1.0
 40
1.0
 40
1.0
 10
495.2123717948718
 20
548.3290184294872
 30
0.0
 10
495.2127402314849
 20
548.3103019350566
 30
0.0
 10
495.2135352479286
 20
548.269915284234
 30
0.0
 10
495.2215692793465
 20
548.2051545976507
 30
0.0
 10
495.2322438369871
 20
548.1315900000299
 30
0.0
 10
495.2425024423987
 20
548.0799113256935
 30
0.0
 10
495.2479286858975
 20
548.0525761217949
 30
0.0
  0
SPLINE
  5
EA
330
1F
100
AcDbEntity
  8
0
  6
CONTINUOUS
 62
     7
100
AcDbSpline
210
0.0
220
0.0
230
1.0
 70
     8
 71
     3
 72
     9
 73
     5
 74
     0
 42
0.00000001
 43
0.00000001
 40
0.0
 40
0.0
 40
0.0
 40
0.0
 40
0.5567059527060036
 40
1.0
 40
1.0
 40
1.0
 40
1.0
 10
495.2479286858975
 20
548.0525761217949
 30
0.0
 10
495.2495191791474
 20
548.0432516571299
 30
0.0
 10
495.2523761510231
 20
548.0265023038676
 30
0.0
 10
495.2527645318218
 20
548.0095223186693
 30
0.0
 10
495.252936698718
 20
548.0019951923077
 30
0.0
  0
SPLINE
  5
EB
330
1F
100
AcDbEntity
  8
0
  6
CONTINUOUS
 62
     7
100
AcDbSpline
210
0.0
220
0.0
230
1.0
 70
     8
 71
     3
 72
    15
 73
    11
 74
     0
 42
0.00000001
 43
0.00000001
 40
0.0
 40
0.0
 40
0.0
 40
0.0
 40
0.0700131550642483
 40
0.1620022153138163
 40
0.2801277595810042
 40
0.4276744402316089
 40
0.5822131044594553
 40
0.7258454305650561
 40
0.8624623940064486
 40
1.0
 40
1.0
 40
1.0
 40
1.0
 10
495.252936698718
 20
548.0019951923077
 30
0.0
 10
495.251862601813
 20
547.9948334335467
 30
0.0
 10
495.2493772677652
 20
547.978261965174
 30
0.0
 10
495.2331839132587
 20
547.9537883705597
 30
0.0
 10
495.2099532407732
 20
547.9256534705454
 30
0.0
 10
495.178707558858
 20
547.8958749703587
 30
0.0
 10
495.1430334650503
 20
547.8671120722161
 30
0.0
 10
495.1033348623893
 20
547.8465031756873
 30
0.0
 10
495.0623576320791
 20
547.83281221534
 30
0.0
 10
495.034193471898
 20
547.8314197330493
 30
0.0
 10
495.0200641025642
 20
547.8307211538461
 30
0.0
  0
SPLINE
  5
EC
330
1F
100
AcDbEntity
  8
0
  6
CONTINUOUS
 62
     7
100
AcDbSpline
210
0.0
220
0.0
230
1.0
 70
     8
 71
     3
 72
    15
 73
    11
 74
     0
 42
0.00000001
 43
0.00000001
 40
0.0
 40
0.0
 40
0.0
 40
0.0
 40
0.1152186968181101
 40
0.220135831545831
 40
0.3221521060533374
 40
0.4282152314813262
 40
0.5439033158685536
 40
0.6761367445175428
 40
0.827397798387418
 40
1.0
 40
1.0
 40
1.0
 40
1.0
 10
495.0200641025642
 20
547.8307211538461
 30
0.0
 10
495.0024156032287
 20
547.8317496447229
 30
0.0
 10
494.9686965351951
 20
547.8337146703709
 30
0.0
 10
494.9212816463254
 20
547.8495358836233
 30
0.0
 10
494.8814064330198
 20
547.8771254780936
 30
0.0
 10
494.8493727918826
 20
547.9155589713101
 30
0.0
 10
494.8246053877738
 20
547.9641396794771
 30
0.0
 10
494.8077125162719
 20
548.0230856046458
 30
0.0
 10
494.7973573707719
 20
548.0922769649009
 30
0.0
 10
494.7962795502531
 20
548.1418443763005
 30
0.0
 10
494.7957051282052
 20
548.1682612179487
 30
0.0
  0
SPLINE
  5
ED
330
1F
100
AcDbEntity
  8
0
  6
CONTINUOUS
 62
     7
100
AcDbSpline
210
0.0
220
0.0
230
1.0
 70
     8
 71
     3
 72
    15
 73
    11
 74
     0
 42
0.00000001
 43
0.00000001
 40
0.0
 40
0.0
 40
0.0
 40
0.0
 40
0.1045764130379502
 40
0.2149806144144024
 40
0.3312425494106493
 40
0.4527732000579693
 40
0.5810608552744045
 40
0.714756512349117
 40
0.8539190909762957
 40
1.0
 40
1.0
 40
1.0
 40
1.0
 10
494.7957051282052
 20
548.1682612179487
 30
0.0
 10
494.7958234275382
 20
548.1928068783992
 30
0.0
 10
494.7960666187375
 20
548.2432660690672
 30
0.0
 10
494.8006523148347
 20
548.3208887147208
 30
0.0
 10
494.8063916582764
 20
548.4024013611047
 30
0.0
 10
494.8151174104427
 20
548.4878806182701
 30
0.0
 10
494.8260751875485
 20
548.5772176343155
 30
0.0
 10
494.8396653207266
 20
548.6703782716862
 30
0.0
 10
494.8557482303662
 20
548.7673759845684
 30
0.0
 10
494.8680373425707
 20
548.8331793316565
 30
0.0
 10
494.8743309294873
 20
548.8668790064103
 30
0.0
  0
SPLINE
  5
EE
330
1F
100
AcDbEntity
  8
0
  6
CONTINUOUS
 62
     7
100
AcDbSpline
210
0.0
220
0.0
230
1.0
 70
     8
 71
     3
 72
     9
 73
     5
 74
     0
 42
0.00000001
 43
0.00000001
 40
0.0
 40
0.0
 40
0.0
 40
0.0
 40
0.5148458439295985
 40
0.9999999999999999
 40
0.9999999999999999
 40
0.9999999999999999
 40
0.9999999999999999
 10
494.8743309294873
 20
548.8668790064103
 30
0.0
 10
494.879561155362
 20
548.8964168071456
 30
0.0
 10
494.8897199746212
 20
548.9537889333529
 30
0.0
 10
494.8992531469516
 20
549.011268295838
 30
0.0
 10
494.9038782051283
 20
549.0391546474359
 30
0.0
  0
SPLINE
  5
EF
330
1F
100
AcDbEntity
  8
0
  6
CONTINUOUS
 62
     7
100
AcDbSpline
210
0.0
220
0.0
230
1.0
 70
     8
 71
     3
 72
    15
 73
    11
 74
     0
 42
0.00000001
 43
0.00000001
 40
0.0
 40
0.0
 40
0.0
 40
0.0
 40
0.15037396310544
 40
0.2903076813476157
 40
0.4213513372264612
 40
0.5479012702294458
 40
0.6670652324731059
 40
0.7769902582633398
 40
0.8850439328074149
 40
1.0
 40
1.0
 40
1.0
 40
1.0
 10
494.9559615384616
 20
549.3927203525642
 30
0.0
 10
494.9566334753476
 20
549.4129607896327
 30
0.0
 10
494.957930697522
 20
549.452036399755
 30
0.0
 10
494.9678725533149
 20
549.5080778695715
 30
0.0
 10
494.9849586341811
 20
549.5590030394444
 30
0.0
 10
495.0088303789439
 20
549.603919946704
 30
0.0
 10
495.0381874851143
 20
549.6422703327645
 30
0.0
 10
495.0749750045296
 20
549.6696623758362
 30
0.0
 10
495.117157042053
 20
549.6867825717559
 30
0.0
 10
495.147269983286
 20
549.6887047017979
 30
0.0
 10
495.1627924679487
 20
549.6896955128205
 30
0.0
  0
SPLINE
  5
F0
330
1F
100
AcDbEntity
  8
0
  6
CONTINUOUS
 62
     7
100
AcDbSpline
210
0.0
220
0.0
230
1.0
 70
     8
 71
     3
 72
    15
 73
    11
 74
     0
 42
0.00000001
 43
0.00000001
 40
0.0
 40
0.0
 40
0.0
 40
0.0
 40
0.1633860693552947
 40
0.309948153691519
 40
0.4439602688934909
 40
0.5720952783643797
 40
0.6916547475182452
 40
0.7992654708726905
 40
0.8996327354363431
 40
1.0
 40
1.0
 40
1.0
 40
1.0
 10
495.1627924679487
 20
549.6896955128205
 30
0.0
 10
495.1808711181114
 20
549.6890542452883
 30
0.0
 10
495.2151668463903
 20
549.6878377420181
 30
0.0
 10
495.2635208264473
 20
549.6779415279069
 30
0.0
 10
495.3057261099536
 20
549.6608879323974
 30
0.0
 10
495.3406177896966
 20
549.6366253875524
 30
0.0
 10
495.3686752666785
 20
549.6088302060012
 30
0.0
 10
495.3893501698179
 20
549.57887560895
 30
0.0
 10
495.4024254122284
 20
549.5468155355361
 30
0.0
 10
495.4039281288624
 20
549.5245474862044
 30
0.0
 10
495.4046794871795
 20
549.5134134615384
 30
0.0
  0
SPLINE
  5
F1
330
1F
100
AcDbEntity
  8
0
  6
CONTINUOUS
 62
     7
100
AcDbSpline
210
0.0
220
0.0
230
1.0
 70
     8
 71
     3
 72
    19
 73
    15
 74
     0
 42
0.00000001
 43
0.00000001
 40
0.0
 40
0.0
 40
0.0
 40
0.0
 40
0.1100253205882346
 40
0.2132810971492347
 40
0.3082206077739912
 40
0.3964609309246524
 40
0.4773022533907915
 40
0.5507009747929072
 40
0.6168545352888952
 40
0.6757171585265034
 40
0.7785263665289271
 40
0.8648853297225556
 40
0.9375463568099581
 40
1.0
 40
1.0
 40
1.0
 40
1.0
 10
492.0497317393296
 20
463.7723037376717
 30
0.0
 10
492.0703788386803
 20
463.773219231579
 30
0.0
 10
492.1104026802735
 20
463.7749938916657
 30
0.0
 10
492.1681628668682
 20
463.7789912635529
 30
0.0
 10
492.2218044261617
 20
463.7831605761413
 30
0.0
 10
492.2711476294413
 20
463.7882207815682
 30
0.0
 10
492.3162810958665
 20
463.794357696335
 30
0.0
 10
492.3572198161145
 20
463.8005601252708
 30
0.0
 10
492.3937626720096
 20
463.8079572323112
 30
0.0
 10
492.4354169477327
 20
463.8177429661437
 30
0.0
 10
492.479955393876
 20
463.8320199577936
 30
0.0
 10
492.5243875066751
 20
463.8530119012594
 30
0.0
 10
492.5596598948361
 20
463.8763996343208
 30
0.0
 10
492.5744377250524
 20
463.8972640158428
 30
0.0
 10
492.5812684365774
 20
463.9069080954699
 30
0.0
  0
SPLINE
  5
F2
330
1F
100
AcDbEntity
  8
0
  6
CONTINUOUS
 62
     7
100
AcDbSpline
210
0.0
220
0.0
230
1.0
 70
     8
 71
     3
 72
    11
 73
     7
 74
     0
 42
0.00000001
 43
0.00000001
 40
0.0
 40
0.0
 40
0.0
 40
0.0
 40
0.2421745467842577
 40
0.4813350727615034
 40
0.7366094591472999
 40
1.0
 40
1.0
 40
1.0
 40
1.0
 10
492.5812684365774
 20
463.9069080954699
 30
0.0
 10
492.5844734542685
 20
463.9132754188582
 30
0.0
 10
492.5908436011071
 20
463.9259308201261
 30
0.0
 10
492.5970610544339
 20
463.946809897795
 30
0.0
 10
492.5994942976522
 20
463.9690709591468
 30
0.0
 10
492.5988151559511
 20
463.9843155882499
 30
0.0
 10
492.5984702714397
 20
463.9920571780387
 30
0.0
  0
SPLINE
  5
F3
330
1F
100
AcDbEntity
  8
0
  6
CONTINUOUS
 62
     7
100
AcDbSpline
210
0.0
220
0.0
230
1.0
 70
     8
 71
     3
 72
    15
 73
    11
 74
     0
 42
0.00000001
 43
0.00000001
 40
0.0
 40
0.0
 40
0.0
 40
0.0
 40
0.1297184602217654
 40
0.2516814093797799
 40
0.3711351381876941
 40
0.4892156647366719
 40
0.6085175960607961
 40
0.7309677634558497
 40
0.8617792365332712
 40
0.9999999999999999
 40
0.9999999999999999
 40
0.9999999999999999
 40
0.9999999999999999
 10
492.5984702714397
 20
463.9920571780387
 30
0.0
 10
492.598542882226
 20
464.0002353560425
 30
0.0
 10
492.5986837625987
 20
464.0161027612106
 30
0.0
 10
492.5952950662676
 20
464.0393795216731
 30
0.0
 10
492.5880900853144
 20
464.0609072548324
 30
0.0
 10
492.5788983637339
 20
464.0815333087933
 30
0.0
 10
492.565514411621
 20
464.0999676293356
 30
0.0
 10
492.5499181466018
 20
464.1175499719616
 30
0.0
 10
492.5309306773445
 20
464.1334800321436
 30
0.0
 10
492.5164569175571
 20
464.1423279134676
 30
0.0
 10
492.5090207301553
 20
464.1468736918002
 30
0.0
  0
SPLINE
  5
F4
330
1F
100
AcDbEntity
  8
0
  6
CONTINUOUS
 62
     7
100
AcDbSpline
210
0.0
220
0.0
230
1.0
 70
     8
 71
     3
 72
    15
 73
    11
 74
     0
 42
0.00000001
 43
0.00000001
 40
0.0
 40
0.0
 40
0.0
 40
0.0
 40
0.0818141387406506
 40
0.17404747708989
 40
0.2788244535154393
 40
0.3967667549340045
 40
0.5274117311338001
 40
0.6710638355010732
 40
0.828812053599985
 40
1.0
 40
1.0
 40
1.0
 40
1.0
 10
492.5090207301553
 20
464.1468736918002
 30
0.0
 10
492.4975413105738
 20
464.152906151111
 30
0.0
 10
492.4731205436088
 20
464.1657393158899
 30
0.0
 10
492.4311313318231
 20
464.1798053300467
 30
0.0
 10
492.3828428539542
 20
464.1922260651823
 30
0.0
 10
492.3277769928334
 20
464.2023015748207
 30
0.0
 10
492.2661982563153
 20
464.2103321800247
 30
0.0
 10
492.1980561726926
 20
464.2163623525103
 30
0.0
 10
492.1233014469503
 20
464.2196136233233
 30
0.0
 10
492.0712369969573
 20
464.2201384176216
 30
0.0
 10
492.0441411429993
 20
464.2204115358369
 30
0.0
  0
SPLINE
  5
F5
330
1F
100
AcDbEntity
  8
0
  6
CONTINUOUS
 62
     7
100
AcDbSpline
210
0.0
220
0.0
230
1.0
 70
     8
 71
     3
 72
    15
 73
    11
 74
     0
 42
0.00000001
 43
0.00000001
 40
0.0
 40
0.0
 40
0.0
 40
0.0
 40
0.1888948636319281
 40
0.3576294567901873
 40
0.5066645560125355
 40
0.6374296304459957
 40
0.7487492733423587
 40
0.844763169520869
 40
0.9271428010195369
 40
1.0
 40
1.0
 40
1.0
 40
1.0
 10
492.0441411429993
 20
464.2204115358369
 30
0.0
 10
492.0084375378254
 20
464.2203697134805
 30
0.0
 10
491.9408408828486
 20
464.2202905323618
 30
0.0
 10
491.8452239079992
 20
464.2142638735931
 30
0.0
 10
491.7609940507659
 20
464.2042789980053
 30
0.0
 10
491.6883711068698
 20
464.1901888670319
 30
0.0
 10
491.6269924873329
 20
464.1716414641463
 30
0.0
 10
491.57746388482
 20
464.1481588530155
 30
0.0
 10
491.5378566874036
 20
464.1206457452147
 30
0.0
 10
491.5206704508071
 20
464.0966425404054
 30
0.0
 10
491.5126044457516
 20
464.0853771321672
 30
0.0
  0
SPLINE
  5
F6
330
1F
100
AcDbEntity
  8
0
  6
CONTINUOUS
 62
     7
100
AcDbSpline
210
0.0
220
0.0
230
1.0
 70
     8
 71
     3
 72
    11
 73
     7
 74
     0
 42
0.00000001
 43
0.00000001
 40
0.0
 40
0.0
 40
0.0
 40
0.0
 40
0.2817769823506447
 40
0.5909711151699495
 40
0.8572625272926394
 40
1.0
 40
1.0
 40
1.0
 40
1.0
 10
491.5126044457516
 20
464.0853771321672
 30
0.0
 10
491.5090540297219
 20
464.0779027126135
 30
0.0
 10
491.5016077390318
 20
464.0622266058499
 30
0.0
 10
491.4984007223312
 20
464.0371312667581
 30
0.0
 10
491.4964605505034
 20
464.016307254539
 30
0.0
 10
491.49567629127
 20
464.0043876092471
 30
0.0
 10
491.4954026108892
 20
464.0002280495984
 30
0.0
  0
SPLINE
  5
F7
330
1F
100
AcDbEntity
  8
0
  6
CONTINUOUS
 62
     7
100
AcDbSpline
210
0.0
220
0.0
230
1.0
 70
     8
 71
     3
 72
    15
 73
    11
 74
     0
 42
0.00000001
 43
0.00000001
 40
0.0
 40
0.0
 40
0.0
 40
0.0
 40
0.1270498134905295
 40
0.2496126097139476
 40
0.3681387313782979
 40
0.4863104081052965
 40
0.6067847463826589
 40
0.7299620674425109
 40
0.8608178745086135
 40
1.0
 40
1.0
 40
1.0
 40
1.0
 10
491.4954026108892
 20
464.0002280495984
 30
0.0
 10
491.4954413236832
 20
463.991325519982
 30
0.0
 10
491.4955173820516
 20
463.9738348713177
 30
0.0
 10
491.4998647731115
 20
463.9482936837721
 30
0.0
 10
491.507859320995
 20
463.9243998461351
 30
0.0
 10
491.5184358771301
 20
463.9016300574782
 30
0.0
 10
491.5334008659182
 20
463.8810416600263
 30
0.0
 10
491.5513274383752
 20
463.8618686044769
 30
0.0
 10
491.5724450606655
 20
463.8440529833727
 30
0.0
 10
491.5885781625401
 20
463.8341658095941
 30
0.0
 10
491.5968934365773
 20
463.8290697927176
 30
0.0
  0
SPLINE
  5
F8
330
1F
100
AcDbEntity
  8
0
  6
CONTINUOUS
 62
     7
100
AcDbSpline
210
0.0
220
0.0
230
1.0
 70
     8
 71
     3
 72
    15
 73
    11
 74
     0
 42
0.00000001
 43
0.00000001
 40
0.0
 40
0.0
 40
0.0
 40
0.0
 40
0.0890676402434542
 40
0.1867871328984528
 40
0.2940024308032029
 40
0.4119600750944516
 40
0.5408702104285757
 40
0.6824345563694818
 40
0.8350675244177534
 40
1.0
 40
1.0
 40
1.0
 40
1.0
 10
491.5968934365773
 20
463.8290697927176
 30
0.0
 10
491.6090899329675
 20
463.8227562897808
 30
0.0
 10
491.6346676690104
 20
463.809516002861
 30
0.0
 10
491.6776575436839
 20
463.7947577434254
 30
0.0
 10
491.7261391111558
 20
463.7835514312539
 30
0.0
 10
491.7799342820391
 20
463.7741810455645
 30
0.0
 10
491.8396544639915
 20
463.7697125319673
 30
0.0
 10
491.9047761392505
 20
463.7668794245259
 30
0.0
 10
491.9755335189069
 20
463.7679819105547
 30
0.0
 10
492.0243685290632
 20
463.7708264056107
 30
0.0
 10
492.0497317393296
 20
463.7723037376717
 30
0.0
  0
SPLINE
  5
F9
330
1F
100
AcDbEntity
  8
0
  6
CONTINUOUS
 62
     7
100
AcDbSpline
210
0.0
220
0.0
230
1.0
 70
     8
 71
     3
 72
    23
 73
    19
 74
     0
 42
0.00000001
 43
0.00000001
 40
0.0
 40
0.0
 40
0.0
 40
0.0
 40
0.0720315280827049
 40
0.1415892016425178
 40
0.2080691443202256
 40
0.2728570398059667
 40
0.3355165648248806
 40
0.3973283851059082
 40
0.4585449433765437
 40
0.5191564198734002
 40
0.5790803791448123
 40
0.6377530767236212
 40
0.6955696153011043
 40
0.7532484902918481
 40
0.811562884257405
 40
0.8715350656068489
 40
0.9341792102806533
 40
1.0
 40
1.0
 40
1.0
 40
1.0
 10
491.5977535283205
 20
463.6450101596901
 30
0.0
 10
491.5850177312341
 20
463.6527078723225
 30
0.0
 10
491.5599835359348
 20
463.6678389269469
 30
0.0
 10
491.5252582256149
 20
463.6932505866952
 30
0.0
 10
491.4936119994316
 20
463.7200865674683
 30
0.0
 10
491.4649942369911
 20
463.7482215541613
 30
0.0
 10
491.440623816215
 20
463.7788451431786
 30
0.0
 10
491.418315215185
 20
463.8100809564448
 30
0.0
 10
491.3998641827055
 20
463.8433182377058
 30
0.0
 10
491.3849062746729
 20
463.8777713526067
 30
0.0
 10
491.3728693385594
 20
463.9128790685491
 30
0.0
 10
491.3663474374164
 20
463.948806047364
 30
0.0
 10
491.3628736740672
 20
463.9847012383252
 30
0.0
 10
491.3650379031674
 20
464.0206234023366
 30
0.0
 10
491.3702889992084
 20
464.0566729705339
 30
0.0
 10
491.3812255021658
 20
464.0924852577483
 30
0.0
 10
491.3950341784646
 20
464.1289573881113
 30
0.0
 10
491.4079409987621
 20
464.1521780821979
 30
0.0
 10
491.414553987036
 20
464.1640755266626
 30
0.0
  0
SPLINE
  5
FA
330
1F
100
AcDbEntity
  8
0
  6
CONTINUOUS
 62
     7
100
AcDbSpline
210
0.0
220
0.0
230
1.0
 70
     8
 71
     3
 72
    27
 73
    23
 74
     0
 42
0.00000001
 43
0.00000001
 40
0.0
 40
0.0
 40
0.0
 40
0.0
 40
0.0567912626441903
 40
0.1180814303229259
 40
0.1848270074742234
 40
0.2574888482766773
 40
0.2954074536598836
 40
0.3339628864852538
 40
0.3732187491560294
 40
0.4132337944472615
 40
0.4545489699463883
 40
0.4970905179861871
 40
0.5409440977445261
 40
0.5862972950689823
 40
0.63288081108487
 40
0.6802859193107433
 40
0.72886443678981
 40
0.7789470757457861
 40
0.8310612141361433
 40
0.8848987575590873
 40
0.9413496014390145
 40
1.0
 40
1.0
 40
1.0
 40
1.0
 10
491.414553987036
 20
464.1640755266626
 30
0.0
 10
491.4272078612233
 20
464.1838267508
 30
0.0
 10
491.4535180274987
 20
464.2248938566924
 30
0.0
 10
491.505544499857
 20
464.2810710430508
 30
0.0
 10
491.567885304424
 20
464.3356065009896
 30
0.0
 10
491.6270872863548
 20
464.378712102192
 30
0.0
 10
491.679318243509
 20
464.4112838788168
 30
0.0
 10
491.7221088523798
 20
464.4325403220361
 30
0.0
 10
491.7668274125729
 20
464.4516064493186
 30
0.0
 10
491.8139721511102
 20
464.4675990730802
 30
0.0
 10
491.863488123204
 20
464.4802597519224
 30
0.0
 10
491.9151278291697
 20
464.4907704680559
 30
0.0
 10
491.9690294182545
 20
464.4977632301938
 30
0.0
 10
492.0248188868709
 20
464.5029388021652
 30
0.0
 10
492.0823516438609
 20
464.5032652295017
 30
0.0
 10
492.1410479124743
 20
464.4990194269537
 30
0.0
 10
492.2006021659402
 20
464.4894712780742
 30
0.0
 10
492.2609974929374
 20
464.4745129250097
 30
0.0
 10
492.3224849151655
 20
464.4553717671086
 30
0.0
 10
492.3846758182061
 20
464.4304021526174
 30
0.0
 10
492.4479057958701
 20
464.4010204453508
 30
0.0
 10
492.4892458446251
 20
464.377666935226
 30
0.0
 10
492.51031086777
 20
464.365767040424
 30
0.0
  0
LINE
  5
FB
330
1F
100
AcDbEntity
  8
0
  6
CONTINUOUS
 62
     7
100
AcDbLine
 10
492.7279140788
 20
464.1167704808
 30
0.0
 11
493.7905574274
 21
465.9573668111
 31
0.0
  0
LINE
  5
FC
330
1F
100
AcDbEntity
  8
0
  6
CONTINUOUS
 62
     7
100
AcDbLine
 10
493.7905574274
 20
465.9573668111
 30
0.0
 11
493.8868877026
 21
465.9014608478
 31
0.0
  0
LINE
  5
FD
330
1F
100
AcDbEntity
  8
0
  6
CONTINUOUS
 62
     7
100
AcDbLine
 10
493.8868877026
 20
465.9014608478
 30
0.0
 11
492.6999610971
 21
463.8458415817
 31
0.0
  0
SPLINE
  5
FE
330
1F
100
AcDbEntity
  8
0
  6
CONTINUOUS
 62
     7
100
AcDbSpline
210
0.0
220
0.0
230
1.0
 70
     8
 71
     3
 72
    27
 73
    23
 74
     0
 42
0.00000001
 43
0.00000001
 40
0.0
 40
0.0
 40
0.0
 40
0.0
 40
0.0478172172714267
 40
0.1024700525267115
 40
0.1647141201428645
 40
0.2350625429900362
 40
0.2725070437315587
 40
0.3109386536357786
 40
0.3499628273837369
 40
0.390400102568643
 40
0.43168205049883
 40
0.4748373955844674
 40
0.5195167143157923
 40
0.565932510192251
 40
0.6137660146223788
 40
0.6626207961141032
 40
0.7129019765521868
 40
0.7650561310695109
 40
0.8198020763987494
 40
0.8770162547615311
 40
0.9369534534328914
 40
0.9999999999999999
 40
0.9999999999999999
 40
0.9999999999999999
 40
0.9999999999999999
 10
492.6999610971278
 20
463.8458415817084
 30
0.0
 10
492.6892370101534
 20
463.8291518377971
 30
0.0
 10
492.6662557950541
 20
463.7933864998531
 30
0.0
 10
492.6191922307318
 20
463.7436025461266
 30
0.0
 10
492.5618171886988
 20
463.6914350227312
 30
0.0
 10
492.5058514333708
 20
463.6485571755069
 30
0.0
 10
492.4557412620405
 20
463.6144864296809
 30
0.0
 10
492.4139749111405
 20
463.5915729967156
 30
0.0
 10
492.369824112236
 20
463.5706801203136
 30
0.0
 10
492.3231101838992
 20
463.5526953362053
 30
0.0
 10
492.2735743939646
 20
463.5377724824301
 30
0.0
 10
492.2217042424643
 20
463.5246612308014
 30
0.0
 10
492.1669084406431
 20
463.5150898863785
 30
0.0
 10
492.1098678558884
 20
463.5074208262236
 30
0.0
 10
492.0506013105972
 20
463.5042571456834
 30
0.0
 10
491.9897190391227
 20
463.5070045597202
 30
0.0
 10
491.9275212561609
 20
463.5151591559612
 30
0.0
 10
491.8639684925754
 20
463.529606226144
 30
0.0
 10
491.7990678254112
 20
463.5499787680479
 30
0.0
 10
491.7327666705143
 20
463.5759902910403
 30
0.0
 10
491.6649479384949
 20
463.6072857353107
 30
0.0
 10
491.6205260320294
 20
463.6322251736792
 30
0.0
 10
491.5977535283205
 20
463.6450101596901
 30
0.0
  0
SPLINE
  5
FF
330
1F
100
AcDbEntity
  8
0
  6
CONTINUOUS
 62
     7
100
AcDbSpline
210
0.0
220
0.0
230
1.0
 70
     8
 71
     3
 72
    15
 73
    11
 74
     0
 42
0.00000001
 43
0.00000001
 40
0.0
 40
0.0
 40
0.0
 40
0.0
 40
0.1403113736471632
 40
0.2747133368048472
 40
0.4025809479371136
 40
0.5274669866178944
 40
0.6476918377985011
 40
0.7653867842190087
 40
0.882985714700803
 40
1.0
 40
1.0
 40
1.0
 40
1.0
 10
492.51031086777
 20
464.365767040424
 30
0.0
 10
492.5239505875126
 20
464.3577034380135
 30
0.0
 10
492.5506555710517
 20
464.3419158431288
 30
0.0
 10
492.5870107805063
 20
464.3145562045177
 30
0.0
 10
492.6202204011116
 20
464.2861052823775
 30
0.0
 10
492.6493103227182
 20
464.2555958448007
 30
0.0
 10
492.6749944026538
 20
464.2236414890464
 30
0.0
 10
492.6967385339312
 20
464.1898309930797
 30
0.0
 10
492.7143741929744
 20
464.1540898993485
 30
0.0
 10
492.7234082876917
 20
464.1291896035186
 30
0.0
 10
492.7279140787791
 20
464.116770480791
 30
0.0
  0
SPLINE
  5
100
330
1F
100
AcDbEntity
  8
0
  6
CONTINUOUS
 62
     7
100
AcDbSpline
210
0.0
220
0.0
230
1.0
 70
     8
 71
     3
 72
    15
 73
    11
 74
     0
 42
0.00000001
 43
0.00000001
 40
0.0
 40
0.0
 40
0.0
 40
0.0
 40
0.1226788837731559
 40
0.2439782021023634
 40
0.3667746131741758
 40
0.4962237140371412
 40
0.6273703385507894
 40
0.7514909483867644
 40
0.8740718066678184
 40
1.0
 40
1.0
 40
1.0
 40
1.0
 10
493.2594507760268
 20
522.9810879408832
 30
0.0
 10
493.2522642680595
 20
522.977473259722
 30
0.0
 10
493.2379720668318
 20
522.9702845457093
 30
0.0
 10
493.2142697843572
 20
522.9651439710711
 30
0.0
 10
493.1896926449845
 20
522.9653085179002
 30
0.0
 10
493.1650001621826
 20
522.9701640569142
 30
0.0
 10
493.1411870633502
 20
522.9787713647564
 30
0.0
 10
493.1202440860947
 20
522.9920996206872
 30
0.0
 10
493.1019009039661
 20
523.0084973199805
 30
0.0
 10
493.0931546145461
 20
523.0222726426395
 30
0.0
 10
493.0887225650177
 20
523.029253078498
 30
0.0
  0
SPLINE
  5
101
330
1F
100
AcDbEntity
  8
0
  6
CONTINUOUS
 62
     7
100
AcDbSpline
210
0.0
220
0.0
230
1.0
 70
     8
 71
     3
 72
    15
 73
    11
 74
     0
 42
0.00000001
 43
0.00000001
 40
0.0
 40
0.0
 40
0.0
 40
0.0
 40
0.132740461089585
 40
0.2581785738200009
 40
0.3826259690553996
 40
0.5114346611688021
 40
0.6370813477323027
 40
0.7575831934471484
 40
0.876474165574212
 40
1.0
 40
1.0
 40
1.0
 40
1.0
 10
493.0887225650177
 20
523.029253078498
 30
0.0
 10
493.0846038841648
 20
523.0369872323388
 30
0.0
 10
493.0765931002644
 20
523.0520300669949
 30
0.0
 10
493.0713076912339
 20
523.0768471051391
 30
0.0
 10
493.0700264752124
 20
523.1018710569042
 30
0.0
 10
493.0752470383972
 20
523.1264002221042
 30
0.0
 10
493.0834643446089
 20
523.1497453976224
 30
0.0
 10
493.0962737721322
 20
523.170197595845
 30
0.0
 10
493.1123781414308
 20
523.1880792333529
 30
0.0
 10
493.1257655566685
 20
523.1968183337657
 30
0.0
 10
493.1325872439168
 20
523.2012714271217
 30
0.0
  0
SPLINE
  5
102
330
1F
100
AcDbEntity
  8
0
  6
CONTINUOUS
 62
     7
100
AcDbSpline
210
0.0
220
0.0
230
1.0
 70
     8
 71
     3
 72
    19
 73
    15
 74
     0
 42
0.00000001
 43
0.00000001
 40
0.0
 40
0.0
 40
0.0
 40
0.0
 40
0.0849850985342234
 40
0.1685376104263278
 40
0.2517114915846655
 40
0.336279772213635
 40
0.4203843265279729
 40
0.5026995391165088
 40
0.5851200951897465
 40
0.6686244309205013
 40
0.7519961386654289
 40
0.8341278233694616
 40
0.9161185251538082
 40
1.0
 40
1.0
 40
1.0
 40
1.0
 10
493.1325872439168
 20
523.2012714271217
 30
0.0
 10
493.1531580325462
 20
523.2142390226707
 30
0.0
 10
493.1939528497552
 20
523.2399556201033
 30
0.0
 10
493.2485605081531
 20
523.2873004809098
 30
0.0
 10
493.2956767875763
 20
523.3417631310473
 30
0.0
 10
493.3359908159348
 20
523.4016310401141
 30
0.0
 10
493.3681391491118
 20
523.4659808042678
 30
0.0
 10
493.3917804528605
 20
523.5332938245406
 30
0.0
 10
493.405794397289
 20
523.6030490648227
 30
0.0
 10
493.4116051283376
 20
523.6742565801533
 30
0.0
 10
493.4076277449366
 20
523.745545001493
 30
0.0
 10
493.3947671948893
 20
523.815277431257
 30
0.0
 10
493.3724380011685
 20
523.8829192959173
 30
0.0
 10
493.3502365332376
 20
523.9248875513605
 30
0.0
 10
493.3390092622654
 20
523.9461108766629
 30
0.0
  0
SPLINE
  5
103
330
1F
100
AcDbEntity
  8
0
  6
CONTINUOUS
 62
     7
100
AcDbSpline
210
0.0
220
0.0
230
1.0
 70
     8
 71
     3
 72
    19
 73
    15
 74
     0
 42
0.00000001
 43
0.00000001
 40
0.0
 40
0.0
 40
0.0
 40
0.0
 40
0.0840724019479387
 40
0.1659797993855208
 40
0.2476044076547055
 40
0.3305754825610759
 40
0.4140006476622336
 40
0.4963511236604598
 40
0.5787721485476042
 40
0.6628731008075797
 40
0.7475072149536303
 40
0.8311093961371887
 40
0.9145709028373851
 40
1.0
 40
1.0
 40
1.0
 40
1.0
 10
493.3390092622654
 20
523.9461108766629
 30
0.0
 10
493.3262398598116
 20
523.9664467192272
 30
0.0
 10
493.3010298883054
 20
524.006594722507
 30
0.0
 10
493.2536188393198
 20
524.0593280470214
 30
0.0
 10
493.2004421464818
 20
524.105605285104
 30
0.0
 10
493.1404541219774
 20
524.1434986837636
 30
0.0
 10
493.0762867149386
 20
524.1741828188138
 30
0.0
 10
493.0086056621856
 20
524.1955155305019
 30
0.0
 10
492.9387998253021
 20
524.2092745068363
 30
0.0
 10
492.8670949041315
 20
524.2132915739585
 30
0.0
 10
492.795063717317
 20
524.2088767556323
 30
0.0
 10
492.7245870908751
 20
524.1943643300561
 30
0.0
 10
492.6560367571161
 20
524.1713626687304
 30
0.0
 10
492.6135237347722
 20
524.1485768708535
 30
0.0
 10
492.5920195833663
 20
524.1370512436355
 30
0.0
  0
LINE
  5
104
330
1F
100
AcDbEntity
  8
0
  6
CONTINUOUS
 62
     7
100
AcDbLine
 10
492.5920195834
 20
524.1370512436
 30
0.0
 11
491.9030860971
 21
523.7392588124
 31
0.0
  0
LINE
  5
105
330
1F
100
AcDbEntity
  8
0
  6
CONTINUOUS
 62
     7
100
AcDbLine
 10
491.9030860971
 20
523.7392588124
 30
0.0
 11
492.0295195834
 21
523.5203654638
 31
0.0
  0
LINE
  5
106
330
1F
100
AcDbEntity
  8
0
  6
CONTINUOUS
 62
     7
100
AcDbLine
 10
492.0295195834
 20
523.5203654638
 30
0.0
 11
491.2855402256
 21
523.5281062895
 31
0.0
  0
LINE
  5
107
330
1F
100
AcDbEntity
  8
0
  6
CONTINUOUS
 62
     7
100
AcDbLine
 10
491.2855402256
 20
523.5281062895
 30
0.0
 11
491.652369354
 21
524.1740351886
 31
0.0
  0
LINE
  5
108
330
1F
100
AcDbEntity
  8
0
  6
CONTINUOUS
 62
     7
100
AcDbLine
 10
491.652369354
 20
524.1740351886
 30
0.0
 11
491.776222565
 21
523.9594422987
 31
0.0
  0
LINE
  5
109
330
1F
100
AcDbEntity
  8
0
  6
CONTINUOUS
 62
     7
100
AcDbLine
 10
491.776222565
 20
523.9594422987
 30
0.0
 11
492.4651560513
 21
524.3572347299
 31
0.0
  0
SPLINE
  5
10A
330
1F
100
AcDbEntity
  8
0
  6
CONTINUOUS
 62
     7
100
AcDbSpline
210
0.0
220
0.0
230
1.0
 70
     8
 71
     3
 72
    31
 73
    27
 74
     0
 42
0.00000001
 43
0.00000001
 40
0.0
 40
0.0
 40
0.0
 40
0.0
 40
0.0429431745806262
 40
0.0849683950630838
 40
0.1268850467450388
 40
0.1682402734889667
 40
0.20962839961084
 40
0.250746837302986
 40
0.2925786945926116
 40
0.3345630584840401
 40
0.376557287950631
 40
0.4180468084571429
 40
0.4591652461492881
 40
0.5001395093523209
 40
0.5410660835171798
 40
0.5820980773063693
 40
0.6238407151024702
 40
0.6658532602052163
 40
0.7079797464260181
 40
0.7496926019840113
 40
0.7907952052372043
 40
0.8321761815454054
 40
0.8735428545189279
 40
0.9151292533729287
 40
0.9570416694095885
 40
1.0
 40
1.0
 40
1.0
 40
1.0
 10
492.4651560512563
 20
524.3572347298741
 30
0.0
 10
492.4808203879647
 20
524.3658932596812
 30
0.0
 10
492.511814220229
 20
524.3830252344015
 30
0.0
 10
492.5599221936719
 20
524.4050841411133
 30
0.0
 10
492.6088146731235
 20
524.4235127513635
 30
0.0
 10
492.6585673359124
 20
524.4385179537103
 30
0.0
 10
492.7087354375695
 20
524.4508464565301
 30
0.0
 10
492.7599792856447
 20
524.4587387895776
 30
0.0
 10
492.8117888898791
 20
524.4642294383306
 30
0.0
 10
492.8642471762782
 20
524.4651385735668
 30
0.0
 10
492.9165361646511
 20
524.4637001957641
 30
0.0
 10
492.9682148474248
 20
524.4583291526969
 30
0.0
 10
493.0191203978132
 20
524.4503469719756
 30
0.0
 10
493.0690494954023
 20
524.4385600039413
 30
0.0
 10
493.1181735194903
 20
524.4239502499041
 30
0.0
 10
493.1666015774593
 20
524.4062168139766
 30
0.0
 10
493.2142735071782
 20
524.3853290019994
 30
0.0
 10
493.2605211950415
 20
524.3605275601873
 30
0.0
 10
493.3057472636627
 20
524.3339024565496
 30
0.0
 10
493.3481068973221
 20
524.3035576651317
 30
0.0
 10
493.388596641315
 20
524.2712629099611
 30
0.0
 10
493.4261230852956
 20
524.2357941964501
 30
0.0
 10
493.4623007329091
 20
524.198634701686
 30
0.0
 10
493.4946109897762
 20
524.1577897931338
 30
0.0
 10
493.5256796902247
 20
524.1151848709827
 30
0.0
 10
493.5439329854049
 20
524.0848754919184
 30
0.0
 10
493.5531721063021
 20
524.0695340418007
 30
0.0
  0
SPLINE
  5
10B
330
1F
100
AcDbEntity
  8
0
  6
CONTINUOUS
 62
     7
100
AcDbSpline
210
0.0
220
0.0
230
1.0
 70
     8
 71
     3
 72
    31
 73
    27
 74
     0
 42
0.00000001
 43
0.00000001
 40
0.0
 40
0.0
 40
0.0
 40
0.0
 40
0.04290048842462
 40
0.084741610867613
 40
0.1262952009912553
 40
0.1676093200230079
 40
0.2088017477181625
 40
0.2502186667626656
 40
0.2916042017838162
 40
0.3335468325913664
 40
0.3755119874689012
 40
0.4169958746553628
 40
0.4581294754675262
 40
0.4994764611747537
 40
0.5404619048820395
 40
0.5815725260271533
 40
0.6232736710187178
 40
0.6652444550250388
 40
0.7075069205588013
 40
0.7491783129162466
 40
0.7902400595687872
 40
0.8318320075164021
 40
0.8731718505169754
 40
0.9149338514311831
 40
0.9570843706308922
 40
1.0
 40
1.0
 40
1.0
 40
1.0
 10
493.5531721063021
 20
524.0695340418007
 30
0.0
 10
493.5618751384831
 20
524.053890101723
 30
0.0
 10
493.5790662939579
 20
524.0229885262123
 30
0.0
 10
493.6004050413626
 20
523.9747638118652
 30
0.0
 10
493.6190608129712
 20
523.9261936564354
 30
0.0
 10
493.6342999080819
 20
523.8766754311995
 30
0.0
 10
493.6451842439768
 20
523.8261130680132
 30
0.0
 10
493.6537045516957
 20
523.7750592478502
 30
0.0
 10
493.6576761584104
 20
523.7231322792672
 30
0.0
 10
493.6591342025023
 20
523.6708730866495
 30
0.0
 10
493.6570013464047
 20
523.6185671155869
 30
0.0
 10
493.6512809212799
 20
523.5668912151522
 30
0.0
 10
493.6427779832715
 20
523.515855576974
 30
0.0
 10
493.6306918617769
 20
523.4657568954542
 30
0.0
 10
493.6155989238207
 20
523.4164965362519
 30
0.0
 10
493.5973436730277
 20
523.3681713108614
 30
0.0
 10
493.5765343399663
 20
523.3204240939074
 30
0.0
 10
493.551807802389
 20
523.2740352213394
 30
0.0
 10
493.5245997472005
 20
523.229081518495
 30
0.0
 10
493.4943984690696
 20
523.1865313146108
 30
0.0
 10
493.4618394892626
 20
523.146140854178
 30
0.0
 10
493.4268994876646
 20
523.1079399248799
 30
0.0
 10
493.3886544220387
 20
523.0726273576871
 30
0.0
 10
493.3482929142497
 20
523.0394152812005
 30
0.0
 10
493.3051177256006
 20
523.00875052796
 30
0.0
 10
493.2747640957346
 20
522.9903639280863
 30
0.0
 10
493.2594507760268
 20
522.9810879408832
 30
0.0
  0
LINE
  5
10C
330
1F
100
AcDbEntity
  8
0
  6
CONTINUOUS
 62
     7
100
AcDbLine
 10
492.3158066302
 20
540.9073035372
 30
0.0
 11
492.4482607586
 21
540.1783757849
 31
0.0
  0
LINE
  5
10D
330
1F
100
AcDbEntity
  8
0
  6
CONTINUOUS
 62
     7
100
AcDbLine
 10
492.4482607586
 20
540.1783757849
 30
0.0
 11
493.6971139697
 21
540.8935420693
 31
0.0
  0
LINE
  5
10E
330
1F
100
AcDbEntity
  8
0
  6
CONTINUOUS
 62
     7
100
AcDbLine
 10
493.6971139697
 20
540.8935420693
 30
0.0
 11
492.3545107586
 21
542.0658471152
 31
0.0
  0
SPLINE
  5
10F
330
1F
100
AcDbEntity
  8
0
  6
CONTINUOUS
 62
     7
100
AcDbSpline
210
0.0
220
0.0
230
1.0
 70
     8
 71
     3
 72
    11
 73
     7
 74
     0
 42
0.00000001
 43
0.00000001
 40
0.0
 40
0.0
 40
0.0
 40
0.0
 40
0.2434288312573749
 40
0.490967098459942
 40
0.7465845465199076
 40
1.0
 40
1.0
 40
1.0
 40
1.0
 10
492.3545107586478
 20
542.0658471151951
 30
0.0
 10
492.3471871228697
 20
542.0712690128914
 30
0.0
 10
492.3324162175929
 20
542.082204337875
 30
0.0
 10
492.3048732953958
 20
542.0886629566882
 30
0.0
 10
492.2762421140479
 20
542.0874817371755
 30
0.0
 10
492.2590156368449
 20
542.0793542759408
 30
0.0
 10
492.2504396577303
 20
542.0753081243695
 30
0.0
  0
LINE
  5
110
330
1F
100
AcDbEntity
  8
0
  6
CONTINUOUS
 62
     7
100
AcDbLine
 10
492.2504396577
 20
542.0753081244
 30
0.0
 11
492.1334671807
 21
542.0082209684
 31
0.0
  0
SPLINE
  5
111
330
1F
100
AcDbEntity
  8
0
  6
CONTINUOUS
 62
     7
100
AcDbSpline
210
0.0
220
0.0
230
1.0
 70
     8
 71
     3
 72
    13
 73
     9
 74
     0
 42
0.00000001
 43
0.00000001
 40
0.0
 40
0.0
 40
0.0
 40
0.0
 40
0.1531482139389999
 40
0.3428945585088856
 40
0.4658268785251137
 40
0.6140814216426402
 40
0.7913769349347788
 40
1.0
 40
1.0
 40
1.0
 40
1.0
 10
492.1334671806661
 20
542.0082209684061
 30
0.0
 10
492.1299999454184
 20
542.0053748166654
 30
0.0
 10
492.12223690288
 20
541.9990023626907
 30
0.0
 10
492.1151683495525
 20
541.9869912087645
 30
0.0
 10
492.111459378635
 20
541.9740256353499
 30
0.0
 10
492.1102790390557
 20
541.9609231296406
 30
0.0
 10
492.11139929389
 20
541.945352332849
 30
0.0
 10
492.1131621416088
 20
541.934239761993
 30
0.0
 10
492.1141151164459
 20
541.9282324362961
 30
0.0
  0
LINE
  5
112
330
1F
100
AcDbEntity
  8
0
  6
CONTINUOUS
 62
     7
100
AcDbLine
 10
492.1141151164
 20
541.9282324363
 30
0.0
 11
492.1631403458
 21
541.5287198216
 31
0.0
  0
LINE
  5
113
330
1F
100
AcDbEntity
  8
0
  6
CONTINUOUS
 62
     7
100
AcDbLine
 10
492.1631403458
 20
541.5287198216
 30
0.0
 11
491.9558582357
 21
541.6276303721
 31
0.0
  0
LINE
  5
114
330
1F
100
AcDbEntity
  8
0
  6
CONTINUOUS
 62
     7
100
AcDbLine
 10
491.9558582357
 20
541.6276303721
 30
0.0
 11
491.9042527311
 21
541.8809273904
 31
0.0
  0
SPLINE
  5
115
330
1F
100
AcDbEntity
  8
0
  6
CONTINUOUS
 62
     7
100
AcDbSpline
210
0.0
220
0.0
230
1.0
 70
     8
 71
     3
 72
    15
 73
    11
 74
     0
 42
0.00000001
 43
0.00000001
 40
0.0
 40
0.0
 40
0.0
 40
0.0
 40
0.1272774414831232
 40
0.2510705766862694
 40
0.3736335493081264
 40
0.5006099310356881
 40
0.6264990180952509
 40
0.7492784769925666
 40
0.8731220782129894
 40
1.0
 40
1.0
 40
1.0
 40
1.0
 10
491.9042527311248
 20
541.8809273904245
 30
0.0
 10
491.9019138264606
 20
541.8953621765701
 30
0.0
 10
491.8973000462336
 20
541.9238365868008
 30
0.0
 10
491.8986923632876
 20
541.9669655004766
 30
0.0
 10
491.9076174988464
 20
542.0090337832869
 30
0.0
 10
491.9230862914869
 20
542.0493706107318
 30
0.0
 10
491.9438883885826
 20
542.0873028031664
 30
0.0
 10
491.9706337933472
 20
542.1208420679518
 30
0.0
 10
492.0022316078463
 20
542.1501113888297
 30
0.0
 10
492.0265504899925
 20
542.1655472482562
 30
0.0
 10
492.038857088923
 20
542.173358583085
 30
0.0
  0
LINE
  5
116
330
1F
100
AcDbEntity
  8
0
  6
CONTINUOUS
 62
     7
100
AcDbLine
 10
492.0388570889
 20
542.1733585831
 30
0.0
 11
492.155829566
 21
542.240445739
 31
0.0
  0
LINE
  5
117
330
1F
100
AcDbEntity
  8
0
  6
CONTINUOUS
 62
     7
100
AcDbLine
 10
492.5024465385
 20
542.2215237207
 30
0.0
 11
494.1202791073
 21
540.7701189042
 31
0.0
  0
LINE
  5
118
330
1F
100
AcDbEntity
  8
0
  6
CONTINUOUS
 62
     7
100
AcDbLine
 10
494.1202791073
 20
540.7701189042
 30
0.0
 11
492.3407492908
 21
539.7509101886
 31
0.0
  0
LINE
  5
119
330
1F
100
AcDbEntity
  8
0
  6
CONTINUOUS
 62
     7
100
AcDbLine
 10
492.3407492908
 20
539.7509101886
 30
0.0
 11
492.1029339238
 21
540.9993333537
 31
0.0
  0
LINE
  5
11A
330
1F
100
AcDbEntity
  8
0
  6
CONTINUOUS
 62
     7
100
AcDbLine
 10
492.1029339238
 20
540.9993333537
 30
0.0
 11
492.3158066302
 21
540.9073035372
 31
0.0
  0
SPLINE
  5
11B
330
1F
100
AcDbEntity
  8
0
  6
CONTINUOUS
 62
     7
100
AcDbSpline
210
0.0
220
0.0
230
1.0
 70
     8
 71
     3
 72
    15
 73
    11
 74
     0
 42
0.00000001
 43
0.00000001
 40
0.0
 40
0.0
 40
0.0
 40
0.0
 40
0.1410195127518225
 40
0.2749793340703915
 40
0.406784492966233
 40
0.5382811669043434
 40
0.6643377016891879
 40
0.7817134027249463
 40
0.8920257185792609
 40
0.9999999999999999
 40
0.9999999999999999
 40
0.9999999999999999
 40
0.9999999999999999
 10
492.1558295659872
 20
542.2404457390484
 30
0.0
 10
492.171225688193
 20
542.2485813693258
 30
0.0
 10
492.2012471749278
 20
542.2644453455397
 30
0.0
 10
492.249520952105
 20
542.2788323715122
 30
0.0
 10
492.2980352400903
 20
542.2867118538985
 30
0.0
 10
492.3461853209722
 20
542.2853027278021
 30
0.0
 10
492.3920587380098
 20
542.2785141929994
 30
0.0
 10
492.4335192494376
 20
542.2647532904017
 30
0.0
 10
492.4713190124003
 20
542.2472007527997
 30
0.0
 10
492.4921450512844
 20
542.2300213962442
 30
0.0
 10
492.5024465384643
 20
542.2215237206998
 30
0.0
  0
SPLINE
  5
11C
330
1F
100
AcDbEntity
  8
0
  6
CONTINUOUS
 62
     7
100
AcDbSpline
210
0.0
220
0.0
230
1.0
 70
     8
 71
     3
 72
     9
 73
     5
 74
     0
 42
0.00000001
 43
0.00000001
 40
0.0
 40
0.0
 40
0.0
 40
0.0
 40
0.4437725341827033
 40
1.0
 40
1.0
 40
1.0
 40
1.0
 10
492.8143532989627
 20
446.7281122239103
 30
0.0
 10
492.8221164409597
 20
446.736190381326
 30
0.0
 10
492.8396099571172
 20
446.7543937553374
 30
0.0
 10
492.8523961074688
 20
446.7761931974732
 30
0.0
 10
492.8595081154764
 20
446.7883186459287
 30
0.0
  0
SPLINE
  5
11D
330
1F
100
AcDbEntity
  8
0
  6
CONTINUOUS
 62
     7
100
AcDbSpline
210
0.0
220
0.0
230
1.0
 70
     8
 71
     3
 72
    15
 73
    11
 74
     0
 42
0.00000001
 43
0.00000001
 40
0.0
 40
0.0
 40
0.0
 40
0.0
 40
0.1504272744468648
 40
0.2900542755322212
 40
0.4209707261225593
 40
0.5440095303570831
 40
0.6585230234573326
 40
0.7693186151529684
 40
0.880558056764784
 40
1.0
 40
1.0
 40
1.0
 40
1.0
 10
492.7008211888709
 20
447.5034849303323
 30
0.0
 10
492.6837289552208
 20
447.5127232260064
 30
0.0
 10
492.6507716642852
 20
447.5305365325942
 30
0.0
 10
492.6011647994205
 20
447.5530335597404
 30
0.0
 10
492.552721116039
 20
447.5686657806542
 30
0.0
 10
492.5065155213865
 20
447.5802605474429
 30
0.0
 10
492.4612142963023
 20
447.5838109691683
 30
0.0
 10
492.4181691483932
 20
447.5751234886866
 30
0.0
 10
492.3774903236558
 20
447.5567196321139
 30
0.0
 10
492.3547812841821
 20
447.5372291913588
 30
0.0
 10
492.3430230237333
 20
447.5271374532681
 30
0.0
  0
SPLINE
  5
11E
330
1F
100
AcDbEntity
  8
0
  6
CONTINUOUS
 62
     7
100
AcDbSpline
210
0.0
220
0.0
230
1.0
 70
     8
 71
     3
 72
    11
 73
     7
 74
     0
 42
0.00000001
 43
0.00000001
 40
0.0
 40
0.0
 40
0.0
 40
0.0
 40
0.2019204928045124
 40
0.4367136990791288
 40
0.7012750773745208
 40
1.0
 40
1.0
 40
1.0
 40
1.0
 10
492.2243303631828
 20
447.0687085541855
 30
0.0
 10
492.2255550631044
 20
447.0603832081018
 30
0.0
 10
492.228203844442
 20
447.0423771472319
 30
0.0
 10
492.2339318569122
 20
447.0137137209422
 30
0.0
 10
492.2411927197236
 20
446.9812553356894
 30
0.0
 10
492.2473158898824
 20
446.9585936106332
 30
0.0
 10
492.2505631613479
 20
446.9465755266626
 30
0.0
  0
SPLINE
  5
11F
330
1F
100
AcDbEntity
  8
0
  6
CONTINUOUS
 62
     7
100
AcDbSpline
210
0.0
220
0.0
230
1.0
 70
     8
 71
     3
 72
    11
 73
     7
 74
     0
 42
0.00000001
 43
0.00000001
 40
0.0
 40
0.0
 40
0.0
 40
0.0
 40
0.2419715866234129
 40
0.4894737224872879
 40
0.7409655339559601
 40
1.0
 40
1.0
 40
1.0
 40
1.0
 10
492.2505631613479
 20
446.9465755266626
 30
0.0
 10
492.2570086789045
 20
446.9301044808655
 30
0.0
 10
492.2700470340096
 20
446.8967859238724
 30
0.0
 10
492.2952083311642
 20
446.8487511320013
 30
0.0
 10
492.3249325631594
 20
446.8019281442478
 30
0.0
 10
492.3480601650349
 20
446.7726438587901
 30
0.0
 10
492.3597948127241
 20
446.7577853890479
 30
0.0
  0
SPLINE
  5
120
330
1F
100
AcDbEntity
  8
0
  6
CONTINUOUS
 62
     7
100
AcDbSpline
210
0.0
220
0.0
230
1.0
 70
     8
 71
     3
 72
     9
 73
     5
 74
     0
 42
0.00000001
 43
0.00000001
 40
0.0
 40
0.0
 40
0.0
 40
0.0
 40
0.4813722040932499
 40
1.0
 40
1.0
 40
1.0
 40
1.0
 10
492.3597948127241
 20
446.7577853890479
 30
0.0
 10
492.3728123299127
 20
446.7460408851894
 30
0.0
 10
492.399854849356
 20
446.721642916718
 30
0.0
 10
492.430961401878
 20
446.7026820796036
 30
0.0
 10
492.4470941246507
 20
446.6928484624424
 30
0.0
  0
SPLINE
  5
121
330
1F
100
AcDbEntity
  8
0
  6
CONTINUOUS
 62
     7
100
AcDbSpline
210
0.0
220
0.0
230
1.0
 70
     8
 71
     3
 72
     9
 73
     5
 74
     0
 42
0.00000001
 43
0.00000001
 40
0.0
 40
0.0
 40
0.0
 40
0.0
 40
0.5325949899257811
 40
1.0
 40
1.0
 40
1.0
 40
1.0
 10
492.4470941246507
 20
446.6928484624424
 30
0.0
 10
492.4664384562724
 20
446.6820047828305
 30
0.0
 10
492.502759360501
 20
446.6616446971801
 30
0.0
 10
492.5421941953586
 20
446.6483275506204
 30
0.0
 10
492.5606262347425
 20
446.6421030495984
 30
0.0
  0
SPLINE
  5
122
330
1F
100
AcDbEntity
  8
0
  6
CONTINUOUS
 62
     7
100
AcDbSpline
210
0.0
220
0.0
230
1.0
 70
     8
 71
     3
 72
    23
 73
    19
 74
     0
 42
0.00000001
 43
0.00000001
 40
0.0
 40
0.0
 40
0.0
 40
0.0
 40
0.0899286523942517
 40
0.18083689268804
 40
0.2742299657842808
 40
0.3704778488765839
 40
0.4653151918271857
 40
0.5553443092912923
 40
0.6413153509054219
 40
0.7238309730111191
 40
0.763551547240935
 40
0.8008537685819277
 40
0.8364355124179876
 40
0.8706483941619854
 40
0.9038400587508497
 40
0.9360450964505594
 40
0.9681262880089664
 40
1.0
 40
1.0
 40
1.0
 40
1.0
 10
492.8371457301553
 20
447.5348782789562
 30
0.0
 10
492.8641252851094
 20
447.5182905688356
 30
0.0
 10
492.9183782818363
 20
447.4849344595739
 30
0.0
 10
492.9948239339693
 20
447.4256911437114
 30
0.0
 10
493.0675325297748
 20
447.3587550021268
 30
0.0
 10
493.1359245233601
 20
447.2854591303084
 30
0.0
 10
493.1971517821854
 20
447.207613054698
 30
0.0
 10
493.2499899393565
 20
447.1280568230048
 30
0.0
 10
493.2911509372707
 20
447.0467302287306
 30
0.0
 10
493.318193121683
 20
446.9784433936268
 30
0.0
 10
493.3333463860457
 20
446.9243134328321
 30
0.0
 10
493.3408123446173
 20
446.8853388876257
 30
0.0
 10
493.3443957571951
 20
446.847740671544
 30
0.0
 10
493.3438573027433
 20
446.8114425916737
 30
0.0
 10
493.3402261872337
 20
446.7764976624204
 30
0.0
 10
493.3323277409206
 20
446.7430286453877
 30
0.0
 10
493.3208453588069
 20
446.7110713228673
 30
0.0
 10
493.3102941352785
 20
446.6911603921863
 30
0.0
 10
493.3050356384122
 20
446.6812372239103
 30
0.0
  0
SPLINE
  5
123
330
1F
100
AcDbEntity
  8
0
  6
CONTINUOUS
 62
     7
100
AcDbSpline
210
0.0
220
0.0
230
1.0
 70
     8
 71
     3
 72
    27
 73
    23
 74
     0
 42
0.00000001
 43
0.00000001
 40
0.0
 40
0.0
 40
0.0
 40
0.0
 40
0.031054213206984
 40
0.0617974304544972
 40
0.0923705661624897
 40
0.1230604307801104
 40
0.1544296809589698
 40
0.186746360808948
 40
0.2202557864900093
 40
0.2550477878556439
 40
0.2910001556996296
 40
0.3275627127227211
 40
0.3656265468261054
 40
0.4046585302864625
 40
0.4455799678963032
 40
0.4881501916237956
 40
0.5325314773398221
 40
0.5787930659286126
 40
0.6755916227514472
 40
0.7775268431312627
 40
0.8853404270646665
 40
1.0
 40
1.0
 40
1.0
 40
1.0
 10
491.8256778402471
 20
447.5353083248277
 30
0.0
 10
491.8315942301827
 20
447.5452282939137
 30
0.0
 10
491.8433677596923
 20
447.5649688874242
 30
0.0
 10
491.8653628222003
 20
447.5914168033351
 30
0.0
 10
491.8888754778549
 20
447.6162609264296
 30
0.0
 10
491.9154561551842
 20
447.6382232525659
 30
0.0
 10
491.9443791491471
 20
447.6580933691762
 30
0.0
 10
491.9759383022061
 20
447.6757104330496
 30
0.0
 10
492.0099585647375
 20
447.6912778739112
 30
0.0
 10
492.0465560589581
 20
447.7040814092992
 30
0.0
 10
492.0851199462601
 20
447.7142330839333
 30
0.0
 10
492.1254480365203
 20
447.7222252774069
 30
0.0
 10
492.1674655167488
 20
447.7266421337723
 30
0.0
 10
492.2112617759936
 20
447.7289938801535
 30
0.0
 10
492.2567837064634
 20
447.7278518991244
 30
0.0
 10
492.3041823789407
 20
447.7245660807198
 30
0.0
 10
492.3532264013135
 20
447.7178567475733
 30
0.0
 10
492.4218029876349
 20
447.7057967375254
 30
0.0
 10
492.5100556911288
 20
447.6829672894737
 30
0.0
 10
492.6173939953181
 20
447.6447017667808
 30
0.0
 10
492.7275571974631
 20
447.5955258689709
 30
0.0
 10
492.7998744323955
 20
447.5555046559166
 30
0.0
 10
492.8371457301553
 20
447.5348782789562
 30
0.0
  0
SPLINE
  5
124
330
1F
100
AcDbEntity
  8
0
  6
CONTINUOUS
 62
     7
100
AcDbSpline
210
0.0
220
0.0
230
1.0
 70
     8
 71
     3
 72
    23
 73
    19
 74
     0
 42
0.00000001
 43
0.00000001
 40
0.0
 40
0.0
 40
0.0
 40
0.0
 40
0.0940229349901112
 40
0.1819574628884071
 40
0.2640364085850853
 40
0.3402484811735565
 40
0.4115422908554846
 40
0.4778033593122245
 40
0.5404001581750973
 40
0.5988979472580099
 40
0.6545544466785048
 40
0.7070306893205274
 40
0.7574060889738218
 40
0.8059067951796651
 40
0.8537246763087707
 40
0.9016980104923087
 40
0.9501539212085225
 40
1.0
 40
1.0
 40
1.0
 40
1.0
 10
492.290557427403
 20
446.6760766734516
 30
0.0
 10
492.261128862918
 20
446.6935560508824
 30
0.0
 10
492.2041773655977
 20
446.7273829375937
 30
0.0
 10
492.1245591457214
 20
446.7812922428125
 30
0.0
 10
492.0528893856186
 20
446.8351938495746
 30
0.0
 10
491.9898408003467
 20
446.8901224639874
 30
0.0
 10
491.9344212088805
 20
446.9448525103145
 30
0.0
 10
491.8875848347286
 20
447.0007796354896
 30
0.0
 10
491.8485655194348
 20
447.0568592136032
 30
0.0
 10
491.818246639313
 20
447.1137596089027
 30
0.0
 10
491.7954327842631
 20
447.1700657654023
 30
0.0
 10
491.7793046375189
 20
447.2255589868161
 30
0.0
 10
491.7695694106699
 20
447.2799088011425
 30
0.0
 10
491.7668962548626
 20
447.3333813025952
 30
0.0
 10
491.7711669613594
 20
447.3858990802362
 30
0.0
 10
491.7826262476595
 20
447.4372515470353
 30
0.0
 10
491.8000410953472
 20
447.4877820270405
 30
0.0
 10
491.8170520699559
 20
447.5193175690158
 30
0.0
 10
491.8256778402471
 20
447.5353083248277
 30
0.0
  0
SPLINE
  5
125
330
1F
100
AcDbEntity
  8
0
  6
CONTINUOUS
 62
     7
100
AcDbSpline
210
0.0
220
0.0
230
1.0
 70
     8
 71
     3
 72
    23
 73
    19
 74
     0
 42
0.00000001
 43
0.00000001
 40
0.0
 40
0.0
 40
0.0
 40
0.0
 40
0.0496648966020272
 40
0.0979367420864557
 40
0.1444653647977014
 40
0.1911042741014882
 40
0.2379066014514759
 40
0.2859680852764422
 40
0.3360008591242368
 40
0.3889493301186858
 40
0.4452421229385318
 40
0.5064011992049797
 40
0.5727092418213519
 40
0.645045035587563
 40
0.723571223423793
 40
0.8088410223713092
 40
0.9007471016361182
 40
1.0
 40
1.0
 40
1.0
 40
1.0
 10
493.3050356384122
 20
446.6812372239103
 30
0.0
 10
493.2950844686958
 20
446.6652139119117
 30
0.0
 10
493.2754612497092
 20
446.6336167259324
 30
0.0
 10
493.2401494711163
 20
446.591395501001
 30
0.0
 10
493.2003132989848
 20
446.5552470357471
 30
0.0
 10
493.1568554121609
 20
446.5244054111163
 30
0.0
 10
493.1088708957535
 20
446.5000292389647
 30
0.0
 10
493.0574565956471
 20
446.4801001706584
 30
0.0
 10
493.0013161428579
 20
446.4678223817572
 30
0.0
 10
492.9413527440975
 20
446.4596925766347
 30
0.0
 10
492.8765043871035
 20
446.4588991659087
 30
0.0
 10
492.8070745682027
 20
446.4667058144776
 30
0.0
 10
492.7327594905092
 20
446.4821210974252
 30
0.0
 10
492.6535146786888
 20
446.5050394846716
 30
0.0
 10
492.569548975795
 20
446.536510150425
 30
0.0
 10
492.4805977599713
 20
446.575346130176
 30
0.0
 10
492.3865355937074
 20
446.6218948844269
 30
0.0
 10
492.3233594991255
 20
446.6575591814212
 30
0.0
 10
492.290557427403
 20
446.6760766734516
 30
0.0
  0
SPLINE
  5
126
330
1F
100
AcDbEntity
  8
0
  6
CONTINUOUS
 62
     7
100
AcDbSpline
210
0.0
220
0.0
230
1.0
 70
     8
 71
     3
 72
    15
 73
    11
 74
     0
 42
0.00000001
 43
0.00000001
 40
0.0
 40
0.0
 40
0.0
 40
0.0
 40
0.1209104014415551
 40
0.2433342596759479
 40
0.3675252182816876
 40
0.4970481671963055
 40
0.627251725987501
 40
0.7536034563085418
 40
0.877937659977288
 40
0.9999999999999999
 40
0.9999999999999999
 40
0.9999999999999999
 40
0.9999999999999999
 10
492.2810964182287
 20
447.4449986918002
 30
0.0
 10
492.2736129817357
 20
447.431244612605
 30
0.0
 10
492.2585524372568
 20
447.4035642919827
 30
0.0
 10
492.2416047563896
 20
447.3589903774506
 30
0.0
 10
492.2286297869498
 20
447.31204015627
 30
0.0
 10
492.2196632459555
 20
447.2631011793824
 30
0.0
 10
492.2153132916317
 20
447.2132971095533
 30
0.0
 10
492.2136707239858
 20
447.1640107749074
 30
0.0
 10
492.2166127611332
 20
447.1157719320775
 30
0.0
 10
492.2217736910352
 20
447.0842996181788
 30
0.0
 10
492.2243303631828
 20
447.0687085541855
 30
0.0
  0
SPLINE
  5
127
330
1F
100
AcDbEntity
  8
0
  6
CONTINUOUS
 62
     7
100
AcDbSpline
210
0.0
220
0.0
230
1.0
 70
     8
 71
     3
 72
    19
 73
    15
 74
     0
 42
0.00000001
 43
0.00000001
 40
0.0
 40
0.0
 40
0.0
 40
0.0
 40
0.0762464851248165
 40
0.1547384786762911
 40
0.237271299860679
 40
0.3244427119006514
 40
0.4129247013057439
 40
0.5000383975782848
 40
0.5863749801759021
 40
0.6735925373307898
 40
0.7587374967791013
 40
0.8402260002225942
 40
0.9198467791060458
 40
1.0
 40
1.0
 40
1.0
 40
1.0
 10
492.8595081154764
 20
446.7883186459287
 30
0.0
 10
492.8689144328451
 20
446.8064406248301
 30
0.0
 10
492.8880040897283
 20
446.8432182866625
 30
0.0
 10
492.90744807873
 20
446.9039061305764
 30
0.0
 10
492.9202374379165
 20
446.9691287355893
 30
0.0
 10
492.926183118143
 20
447.0380574972408
 30
0.0
 10
492.9244725505244
 20
447.1084378751835
 30
0.0
 10
492.9150788392998
 20
447.1779981052677
 30
0.0
 10
492.8976452295663
 20
447.2456480379327
 30
0.0
 10
492.8730424174785
 20
447.3104256211905
 30
0.0
 10
492.8414466825417
 20
447.3708241971513
 30
0.0
 10
492.8011990206289
 20
447.4232263611472
 30
0.0
 10
492.7549652809048
 20
447.4687859341498
 30
0.0
 10
492.7189092714017
 20
447.4918929304832
 30
0.0
 10
492.7008211888709
 20
447.5034849303323
 30
0.0
  0
SPLINE
  5
128
330
1F
100
AcDbEntity
  8
0
  6
CONTINUOUS
 62
     7
100
AcDbSpline
210
0.0
220
0.0
230
1.0
 70
     8
 71
     3
 72
    11
 73
     7
 74
     0
 42
0.00000001
 43
0.00000001
 40
0.0
 40
0.0
 40
0.0
 40
0.0
 40
0.1913613244183957
 40
0.4248225410647058
 40
0.6915458684051237
 40
1.0
 40
1.0
 40
1.0
 40
1.0
 10
492.3430230237333
 20
447.5271374532681
 30
0.0
 10
492.3381999686899
 20
447.5226409402082
 30
0.0
 10
492.3274927763905
 20
447.5126586717961
 30
0.0
 10
492.3122906232033
 20
447.4942274707983
 30
0.0
 10
492.296948774606
 20
447.4709689462332
 30
0.0
 10
492.2866300873195
 20
447.4540642711257
 30
0.0
 10
492.2810964182287
 20
447.4449986918002
 30
0.0
  0
SPLINE
  5
129
330
1F
100
AcDbEntity
  8
0
  6
CONTINUOUS
 62
     7
100
AcDbSpline
210
0.0
220
0.0
230
1.0
 70
     8
 71
     3
 72
    15
 73
    11
 74
     0
 42
0.00000001
 43
0.00000001
 40
0.0
 40
0.0
 40
0.0
 40
0.0
 40
0.1308297919218317
 40
0.2548209651440255
 40
0.3745215791217313
 40
0.4909323163883466
 40
0.6098501282577987
 40
0.7325578195451053
 40
0.8622245791753393
 40
1.0
 40
1.0
 40
1.0
 40
1.0
 10
492.5606262347425
 20
446.6421030495984
 30
0.0
 10
492.5727518961253
 20
446.6393160582174
 30
0.0
 10
492.5963693970875
 20
446.6338877545941
 30
0.0
 10
492.6320674999271
 20
446.6317650971274
 30
0.0
 10
492.6662053413834
 20
446.634868576258
 30
0.0
 10
492.6992789166753
 20
446.642347937462
 30
0.0
 10
492.7303047632741
 20
446.6567178697186
 30
0.0
 10
492.7603091119645
 20
446.6753557943383
 30
0.0
 10
492.7889645089665
 20
446.6991265453584
 30
0.0
 10
492.8057210203673
 20
446.718256990456
 30
0.0
 10
492.8143532989627
 20
446.7281122239103
 30
0.0
  0
SPLINE
  5
12A
330
1F
100
AcDbEntity
  8
0
  6
CONTINUOUS
 62
     7
100
AcDbSpline
210
0.0
220
0.0
230
1.0
 70
     8
 71
     3
 72
    15
 73
    11
 74
     0
 42
0.00000001
 43
0.00000001
 40
0.0
 40
0.0
 40
0.0
 40
0.0
 40
0.1275792479585257
 40
0.2546545991448012
 40
0.388734159974095
 40
0.5354609915790652
 40
0.6788049672105776
 40
0.802900147217465
 40
0.9083147021804338
 40
1.0
 40
1.0
 40
1.0
 40
1.0
 10
495.7251923076923
 20
550.4318830128205
 30
0.0
 10
495.7240065152527
 20
550.4128322698823
 30
0.0
 10
495.72163961387
 20
550.37480602828
 30
0.0
 10
495.7000662107357
 20
550.3201745299114
 30
0.0
 10
495.6655230722523
 20
550.2697694636167
 30
0.0
 10
495.6196775183607
 20
550.2259390890007
 30
0.0
 10
495.570501373987
 20
550.188525324762
 30
0.0
 10
495.5224647846372
 20
550.1606976455039
 30
0.0
 10
495.4777562850324
 20
550.1422079276988
 30
0.0
 10
495.4483885888645
 20
550.139618152151
 30
0.0
 10
495.4347275641026
 20
550.1384134615384
 30
0.0
  0
SPLINE
  5
12B
330
1F
100
AcDbEntity
  8
0
  6
CONTINUOUS
 62
     7
100
AcDbSpline
210
0.0
220
0.0
230
1.0
 70
     8
 71
     3
 72
    15
 73
    11
 74
     0
 42
0.00000001
 43
0.00000001
 40
0.0
 40
0.0
 40
0.0
 40
0.0
 40
0.1260727526617287
 40
0.2503629259947208
 40
0.3796302199901226
 40
0.5187801800495331
 40
0.6566873277962245
 40
0.7795300938184093
 40
0.8931994914507032
 40
1.0
 40
1.0
 40
1.0
 40
1.0
 10
495.4347275641026
 20
550.1384134615384
 30
0.0
 10
495.4183958052685
 20
550.1392944645784
 30
0.0
 10
495.3859632070898
 20
550.1410440138998
 30
0.0
 10
495.3392819096155
 20
550.1578391932567
 30
0.0
 10
495.2953950088326
 20
550.1837684183205
 30
0.0
 10
495.2565691658638
 20
550.2195469316714
 30
0.0
 10
495.2240421026526
 20
550.2598438439888
 30
0.0
 10
495.1990979642222
 20
550.3014208350475
 30
0.0
 10
495.1835705806435
 20
550.3435124837107
 30
0.0
 10
495.1813811308315
 20
550.3720062722377
 30
0.0
 10
495.1803205128206
 20
550.3858092948718
 30
0.0
  0
SPLINE
  5
12C
330
1F
100
AcDbEntity
  8
0
  6
CONTINUOUS
 62
     7
100
AcDbSpline
210
0.0
220
0.0
230
1.0
 70
     8
 71
     3
 72
    15
 73
    11
 74
     0
 42
0.00000001
 43
0.00000001
 40
0.0
 40
0.0
 40
0.0
 40
0.0
 40
0.1265872858979979
 40
0.2435419964994887
 40
0.3573618074085934
 40
0.4722324776774725
 40
0.5909623725344393
 40
0.7148050003484704
 40
0.8501351302242234
 40
1.0
 40
1.0
 40
1.0
 40
1.0
 10
495.1803205128206
 20
550.3858092948718
 30
0.0
 10
495.1812863683833
 20
550.4047586096328
 30
0.0
 10
495.1831445833726
 20
550.441215303656
 30
0.0
 10
495.1973336526982
 20
550.4933120952385
 30
0.0
 10
495.2220956626222
 20
550.5391036048989
 30
0.0
 10
495.2553810907823
 20
550.5795401252184
 30
0.0
 10
495.298681806722
 20
550.6118110025362
 30
0.0
 10
495.3506254386793
 20
550.6349916409105
 30
0.0
 10
495.4106150184149
 20
550.6491424899023
 30
0.0
 10
495.4533413476514
 20
550.6505135216861
 30
0.0
 10
495.4757932692308
 20
550.651233974359
 30
0.0
  0
SPLINE
  5
12D
330
1F
100
AcDbEntity
  8
0
  6
CONTINUOUS
 62
     7
100
AcDbSpline
210
0.0
220
0.0
230
1.0
 70
     8
 71
     3
 72
    15
 73
    11
 74
     0
 42
0.00000001
 43
0.00000001
 40
0.0
 40
0.0
 40
0.0
 40
0.0
 40
0.1438061262093737
 40
0.2776732302173385
 40
0.4041233758059872
 40
0.5304866538696748
 40
0.6531683344648449
 40
0.7696361342401187
 40
0.8830226291187772
 40
0.9999999999999999
 40
0.9999999999999999
 40
0.9999999999999999
 40
0.9999999999999999
 10
495.4757932692308
 20
550.651233974359
 30
0.0
 10
495.4935531099831
 20
550.6505071861753
 30
0.0
 10
495.5278453371629
 20
550.6491038410747
 30
0.0
 10
495.5766981093253
 20
550.6371529937817
 30
0.0
 10
495.6198497091061
 20
550.6160267566602
 30
0.0
 10
495.656784012727
 20
550.5875173096731
 30
0.0
 10
495.6866684111826
 20
550.5534493776004
 30
0.0
 10
495.7096288828778
 20
550.5161383050772
 30
0.0
 10
495.7224354666347
 20
550.47475184636
 30
0.0
 10
495.724263860434
 20
550.4463203525637
 30
0.0
 10
495.7251923076923
 20
550.4318830128205
 30
0.0
  0
LINE
  5
12E
330
1F
100
AcDbEntity
  8
0
  6
CONTINUOUS
 62
     7
100
AcDbLine
 10
494.1375
 20
430.176875
 30
0.0
 11
499.5675
 21
430.176875
 31
0.0
  0
LINE
  5
12F
330
1F
100
AcDbEntity
  8
0
  6
CONTINUOUS
 62
     7
100
AcDbLine
 10
494.1375
 20
430.676875
 30
0.0
 11
494.1375
 21
430.176875
 31
0.0
  0
LINE
  5
130
330
1F
100
AcDbEntity
  8
0
  6
CONTINUOUS
 62
     7
100
AcDbLine
 10
499.5675
 20
430.676875
 30
0.0
 11
494.1375
 21
430.676875
 31
0.0
  0
LINE
  5
131
330
1F
100
AcDbEntity
  8
0
  6
CONTINUOUS
 62
     7
100
AcDbLine
 10
499.5675
 20
430.176875
 30
0.0
 11
499.5675
 21
430.676875
 31
0.0
  0
LINE
  5
132
330
1F
100
AcDbEntity
  8
0
  6
CONTINUOUS
 62
     7
100
AcDbLine
 10
494.1375
 20
552.676875
 30
0.0
 11
499.5675
 21
552.676875
 31
0.0
  0
LINE
  5
133
330
1F
100
AcDbEntity
  8
0
  6
CONTINUOUS
 62
     7
100
AcDbLine
 10
494.1375
 20
553.176875
 30
0.0
 11
494.1375
 21
552.676875
 31
0.0
  0
LINE
  5
134
330
1F
100
AcDbEntity
  8
0
  6
CONTINUOUS
 62
     7
100
AcDbLine
 10
499.5675
 20
553.176875
 30
0.0
 11
494.1375
 21
553.176875
 31
0.0
  0
LINE
  5
135
330
1F
100
AcDbEntity
  8
0
  6
CONTINUOUS
 62
     7
100
AcDbLine
 10
499.5675
 20
552.676875
 30
0.0
 11
499.5675
 21
553.176875
 31
0.0
  0
LINE
  5
136
330
1F
100
AcDbEntity
  8
0
  6
CONTINUOUS
 62
     7
100
AcDbLine
 10
490.1375
 20
552.676875
 30
0.0
 11
490.1375
 21
553.176875
 31
0.0
  0
LINE
  5
137
330
1F
100
AcDbEntity
  8
0
  6
CONTINUOUS
 62
     7
100
AcDbLine
 10
489.7675
 20
552.676875
 30
0.0
 11
490.1375
 21
552.676875
 31
0.0
  0
LINE
  5
138
330
1F
100
AcDbEntity
  8
0
  6
CONTINUOUS
 62
     7
100
AcDbLine
 10
489.7675
 20
553.176875
 30
0.0
 11
489.7675
 21
552.676875
 31
0.0
  0
LINE
  5
139
330
1F
100
AcDbEntity
  8
0
  6
CONTINUOUS
 62
     7
100
AcDbLine
 10
490.1375
 20
553.176875
 30
0.0
 11
489.7675
 21
553.176875
 31
0.0
  0
LINE
  5
13A
330
1F
100
AcDbEntity
  8
0
  6
CONTINUOUS
 62
     7
100
AcDbLine
 10
490.1375
 20
430.176875
 30
0.0
 11
490.1375
 21
430.676875
 31
0.0
  0
LINE
  5
13B
330
1F
100
AcDbEntity
  8
0
  6
CONTINUOUS
 62
     7
100
AcDbLine
 10
489.7675
 20
430.176875
 30
0.0
 11
490.1375
 21
430.176875
 31
0.0
  0
LINE
  5
13C
330
1F
100
AcDbEntity
  8
0
  6
CONTINUOUS
 62
     7
100
AcDbLine
 10
489.7675
 20
430.676875
 30
0.0
 11
489.7675
 21
430.176875
 31
0.0
  0
LINE
  5
13D
330
1F
100
AcDbEntity
  8
0
  6
CONTINUOUS
 62
     7
100
AcDbLine
 10
490.1375
 20
430.676875
 30
0.0
 11
489.7675
 21
430.676875
 31
0.0
  0
LINE
  5
13E
330
1F
100
AcDbEntity
  8
0
  6
CONTINUOUS
 62
     7
100
AcDbLine
 10
499.5675
 20
555.926875
 30
0.0
 11
489.7675
 21
555.926875
 31
0.0
  0
LINE
  5
13F
330
1F
100
AcDbEntity
  8
0
  6
CONTINUOUS
 62
     7
100
AcDbLine
 10
489.7675
 20
427.426875
 30
0.0
 11
499.5675
 21
427.426875
 31
0.0
  0
CIRCLE
  5
140
330
1F
100
AcDbEntity
  8
0
  6
CONTINUOUS
 62
     7
100
AcDbCircle
 10
492.1375
 20
430.426875
 30
0.0
 40
1.600000000000023
  0
CIRCLE
  5
141
330
1F
100
AcDbEntity
  8
0
  6
CONTINUOUS
 62
     7
100
AcDbCircle
 10
492.1375
 20
552.926875
 30
0.0
 40
1.600000000000023
  0
CIRCLE
  5
142
330
1F
100
AcDbEntity
  8
0
  6
CONTINUOUS
 62
     7
100
AcDbCircle
 10
495.5675
 20
487.866875
 30
0.0
 40
3.100000000000023
  0
CIRCLE
  5
143
330
1F
100
AcDbEntity
  8
0
  6
CONTINUOUS
 62
     7
100
AcDbCircle
 10
495.5675
 20
470.086875
 30
0.0
 40
3.099999999999966
  0
CIRCLE
  5
144
330
1F
100
AcDbEntity
  8
0
  6
CONTINUOUS
 62
     7
100
AcDbCircle
 10
495.5675
 20
452.306875
 30
0.0
 40
3.099999999999966
  0
CIRCLE
  5
145
330
1F
100
AcDbEntity
  8
0
  6
CONTINUOUS
 62
     7
100
AcDbCircle
 10
495.5675
 20
478.976875
 30
0.0
 40
1.600000000000023
  0
CIRCLE
  5
146
330
1F
100
AcDbEntity
  8
0
  6
CONTINUOUS
 62
     7
100
AcDbCircle
 10
495.5675
 20
461.196875
 30
0.0
 40
1.599999999999966
  0
CIRCLE
  5
147
330
1F
100
AcDbEntity
  8
0
  6
CONTINUOUS
 62
     7
100
AcDbCircle
 10
495.5675
 20
518.346875
 30
0.0
 40
3.100000000000023
  0
CIRCLE
  5
148
330
1F
100
AcDbEntity
  8
0
  6
CONTINUOUS
 62
     7
100
AcDbCircle
 10
495.5675
 20
443.416875
 30
0.0
 40
1.599999999999966
  0
CIRCLE
  5
149
330
1F
100
AcDbEntity
  8
0
  6
CONTINUOUS
 62
     7
100
AcDbCircle
 10
495.5675
 20
505.646875
 30
0.0
 40
3.100000000000023
  0
CIRCLE
  5
14A
330
1F
100
AcDbEntity
  8
0
  6
CONTINUOUS
 62
     7
100
AcDbCircle
 10
495.5675
 20
496.756875
 30
0.0
 40
1.600000000000023
  0
CIRCLE
  5
14B
330
1F
100
AcDbEntity
  8
0
  6
CONTINUOUS
 62
     7
100
AcDbCircle
 10
495.5675
 20
527.236875
 30
0.0
 40
1.600000000000023
  0
CIRCLE
  5
14C
330
1F
100
AcDbEntity
  8
0
  6
CONTINUOUS
 62
     7
100
AcDbCircle
 10
495.5675
 20
536.126875
 30
0.0
 40
3.099999999999966
  0
LINE
  5
14D
330
1F
100
AcDbEntity
  8
0
  6
CONTINUOUS
 62
     7
100
AcDbLine
 10
499.5675
 20
427.426875
 30
0.0
 11
499.5675
 21
430.176875
 31
0.0
  0
LINE
  5
14E
330
1F
100
AcDbEntity
  8
0
  6
CONTINUOUS
 62
     7
100
AcDbLine
 10
499.5675
 20
430.676875
 30
0.0
 11
499.5675
 21
552.676875
 31
0.0
  0
LINE
  5
14F
330
1F
100
AcDbEntity
  8
0
  6
CONTINUOUS
 62
     7
100
AcDbLine
 10
499.5675
 20
553.176875
 30
0.0
 11
499.5675
 21
555.926875
 31
0.0
  0
LINE
  5
150
330
1F
100
AcDbEntity
  8
0
  6
CONTINUOUS
 62
     7
100
AcDbLine
 10
489.7675
 20
555.926875
 30
0.0
 11
489.7675
 21
553.176875
 31
0.0
  0
LINE
  5
151
330
1F
100
AcDbEntity
  8
0
  6
CONTINUOUS
 62
     7
100
AcDbLine
 10
489.7675
 20
552.676875
 30
0.0
 11
489.7675
 21
430.676875
 31
0.0
  0
LINE
  5
152
330
1F
100
AcDbEntity
  8
0
  6
CONTINUOUS
 62
     7
100
AcDbLine
 10
489.7675
 20
430.176875
 30
0.0
 11
489.7675
 21
427.426875
 31
0.0
  0
ENDSEC
  0
SECTION
  2
OBJECTS
  0
DICTIONARY
  5
C
330
0
100
AcDbDictionary
  3
ACAD_GROUP
350
D
  3
ACAD_MLINESTYLE
350
17
  3
ACAD_SCALELIST
350
47
  3
DWGPROPS
350
153
  0
DICTIONARY
  5
D
102
{ACAD_REACTORS
330
C
102
}
330
C
100
AcDbDictionary
  0
DICTIONARY
  5
17
102
{ACAD_REACTORS
330
C
102
}
330
C
100
AcDbDictionary
  3
STANDARD
350
18
  0
DICTIONARY
  5
47
102
{ACAD_REACTORS
330
C
102
}
330
C
100
AcDbDictionary
  0
XRECORD
  5
153
102
{ACAD_REACTORS
330
C
102
}
330
C
100
AcDbXrecord
  1
DWGPROPS COOKIE
  2

  3

  4

  6

  7

  8
Micha
  9

300
=
301
=
302
=
303
=
304
=
305
=
306
=
307
=
308
=
309
=
 40
0.0
 41
2460008.31697566
 42
2460008.316976169
  1

 90
        0
  0
MLINESTYLE
  5
18
102
{ACAD_REACTORS
330
17
102
}
330
17
100
AcDbMlineStyle
  2
Standard
 70
     0
  3

 62
   256
 51
90.0
 52
90.0
 71
     2
 49
0.5
 62
   256
  6
BYLAYER
 49
-0.5
 62
   256
  6
BYLAYER
  0
ENDSEC
  0
EOF
