G04 #@! TF.GenerationSoftware,KiCad,Pcbnew,(5.1.9)-1*
G04 #@! TF.CreationDate,2021-03-16T07:18:54+01:00*
G04 #@! TF.ProjectId,Single Attenuator,53696e67-6c65-4204-9174-74656e756174,rev?*
G04 #@! TF.SameCoordinates,Original*
G04 #@! TF.FileFunction,Legend,Top*
G04 #@! TF.FilePolarity,Positive*
%FSLAX46Y46*%
G04 Gerber Fmt 4.6, Leading zero omitted, Abs format (unit mm)*
G04 Created by KiCad (PCBNEW (5.1.9)-1) date 2021-03-16 07:18:54*
%MOMM*%
%LPD*%
G01*
G04 APERTURE LIST*
%ADD10C,0.100000*%
%ADD11C,0.120000*%
G04 APERTURE END LIST*
D10*
X400000Y-88500000D02*
X400000Y-88000000D01*
X400000Y-88500000D02*
X900000Y-88500000D01*
X9400000Y-88500000D02*
X9400000Y-88000000D01*
X9400000Y-88500000D02*
X8900000Y-88500000D01*
X400000Y-13500000D02*
X400000Y-14000000D01*
X400000Y-13500000D02*
X900000Y-13500000D01*
X9400000Y-13500000D02*
X8900000Y-13500000D01*
X9400000Y-13500000D02*
X9400000Y-14000000D01*
D11*
X9900000Y-11000000D02*
X8900000Y-11000000D01*
X9900000Y-10000000D02*
X9900000Y-11000000D01*
X-100000Y-11000000D02*
X900000Y-11000000D01*
X-100000Y-10000000D02*
X-100000Y-11000000D01*
X-100000Y-500000D02*
X-100000Y-1500000D01*
X900000Y-500000D02*
X-100000Y-500000D01*
X9900000Y-500000D02*
X9900000Y-1500000D01*
X8900000Y-500000D02*
X9900000Y-500000D01*
X3400000Y-13500000D02*
X3400000Y-14500000D01*
X3400000Y-14500000D02*
X4400000Y-14500000D01*
X5400000Y-14500000D02*
X6400000Y-14500000D01*
X6400000Y-14500000D02*
X6400000Y-13500000D01*
X-100000Y-91000000D02*
X900000Y-91000000D01*
X-100000Y-92000000D02*
X-100000Y-91000000D01*
X9900000Y-91000000D02*
X8900000Y-91000000D01*
X9900000Y-92000000D02*
X9900000Y-91000000D01*
X9900000Y-101500000D02*
X9900000Y-100500000D01*
X8900000Y-101500000D02*
X9900000Y-101500000D01*
X-100000Y-101500000D02*
X-100000Y-100500000D01*
X900000Y-101500000D02*
X-100000Y-101500000D01*
X6400000Y-88500000D02*
X6400000Y-87500000D01*
X6400000Y-87500000D02*
X5400000Y-87500000D01*
X4400000Y-87500000D02*
X3400000Y-87500000D01*
X3400000Y-87500000D02*
X3400000Y-88500000D01*
M02*
