G04 #@! TF.GenerationSoftware,KiCad,Pcbnew,(5.1.9)-1*
G04 #@! TF.CreationDate,2021-03-16T07:18:54+01:00*
G04 #@! TF.ProjectId,Single Attenuator,53696e67-6c65-4204-9174-74656e756174,rev?*
G04 #@! TF.SameCoordinates,Original*
G04 #@! TF.FileFunction,Copper,L1,Top*
G04 #@! TF.FilePolarity,Positive*
%FSLAX46Y46*%
G04 Gerber Fmt 4.6, Leading zero omitted, Abs format (unit mm)*
G04 Created by KiCad (PCBNEW (5.1.9)-1) date 2021-03-16 07:18:54*
%MOMM*%
%LPD*%
G01*
G04 APERTURE LIST*
G04 #@! TA.AperFunction,ComponentPad*
%ADD10O,1.400000X3.000000*%
G04 #@! TD*
G04 #@! TA.AperFunction,ComponentPad*
%ADD11C,3.000000*%
G04 #@! TD*
G04 #@! TA.AperFunction,ComponentPad*
%ADD12O,2.300000X1.300000*%
G04 #@! TD*
G04 #@! TA.AperFunction,Conductor*
%ADD13C,0.254000*%
G04 #@! TD*
G04 #@! TA.AperFunction,Conductor*
%ADD14C,0.100000*%
G04 #@! TD*
G04 APERTURE END LIST*
D10*
X1150000Y-86000000D03*
X6150000Y-86000000D03*
X1150000Y-16000000D03*
X3650000Y-16000000D03*
X6150000Y-16000000D03*
X8650000Y-16000000D03*
D11*
X4900000Y-73500000D03*
X4900000Y-26000000D03*
D12*
X4900000Y-1580000D03*
X4900000Y-9880000D03*
X4900000Y-12980000D03*
X4900000Y-100420000D03*
X4900000Y-92120000D03*
X4900000Y-89020000D03*
D13*
X7410653Y-17313353D02*
X7534618Y-17545274D01*
X7701445Y-17748555D01*
X7904725Y-17915382D01*
X8136646Y-18039347D01*
X8388294Y-18115683D01*
X8650000Y-18141459D01*
X8911705Y-18115683D01*
X8940000Y-18107100D01*
X8940001Y-101340000D01*
X6304533Y-101340000D01*
X6313028Y-101333028D01*
X6473608Y-101137362D01*
X6592929Y-100914127D01*
X6666407Y-100671904D01*
X6691217Y-100420000D01*
X6666407Y-100168096D01*
X6592929Y-99925873D01*
X6473608Y-99702638D01*
X6313028Y-99506972D01*
X6117362Y-99346392D01*
X5894127Y-99227071D01*
X5651904Y-99153593D01*
X5463123Y-99135000D01*
X4336877Y-99135000D01*
X4148096Y-99153593D01*
X3905873Y-99227071D01*
X3682638Y-99346392D01*
X3486972Y-99506972D01*
X3326392Y-99702638D01*
X3207071Y-99925873D01*
X3133593Y-100168096D01*
X3108783Y-100420000D01*
X3133593Y-100671904D01*
X3207071Y-100914127D01*
X3326392Y-101137362D01*
X3486972Y-101333028D01*
X3495467Y-101340000D01*
X660000Y-101340000D01*
X660000Y-95265098D01*
X2515000Y-95265098D01*
X2515000Y-95734902D01*
X2606654Y-96195679D01*
X2786440Y-96629721D01*
X3047450Y-97020349D01*
X3379651Y-97352550D01*
X3770279Y-97613560D01*
X4204321Y-97793346D01*
X4665098Y-97885000D01*
X5134902Y-97885000D01*
X5595679Y-97793346D01*
X6029721Y-97613560D01*
X6420349Y-97352550D01*
X6752550Y-97020349D01*
X7013560Y-96629721D01*
X7193346Y-96195679D01*
X7285000Y-95734902D01*
X7285000Y-95265098D01*
X7193346Y-94804321D01*
X7013560Y-94370279D01*
X6752550Y-93979651D01*
X6420349Y-93647450D01*
X6029721Y-93386440D01*
X5865135Y-93318266D01*
X6009081Y-93258585D01*
X6219505Y-93117882D01*
X6398436Y-92938830D01*
X6538997Y-92728311D01*
X6635787Y-92494415D01*
X6643099Y-92445471D01*
X6519067Y-92247000D01*
X5027000Y-92247000D01*
X5027000Y-92267000D01*
X4773000Y-92267000D01*
X4773000Y-92247000D01*
X3280933Y-92247000D01*
X3156901Y-92445471D01*
X3164213Y-92494415D01*
X3261003Y-92728311D01*
X3401564Y-92938830D01*
X3580495Y-93117882D01*
X3790919Y-93258585D01*
X3934865Y-93318266D01*
X3770279Y-93386440D01*
X3379651Y-93647450D01*
X3047450Y-93979651D01*
X2786440Y-94370279D01*
X2606654Y-94804321D01*
X2515000Y-95265098D01*
X660000Y-95265098D01*
X660000Y-91794529D01*
X3156901Y-91794529D01*
X3280933Y-91993000D01*
X4773000Y-91993000D01*
X4773000Y-90835000D01*
X5027000Y-90835000D01*
X5027000Y-91993000D01*
X6519067Y-91993000D01*
X6643099Y-91794529D01*
X6635787Y-91745585D01*
X6538997Y-91511689D01*
X6398436Y-91301170D01*
X6219505Y-91122118D01*
X6009081Y-90981415D01*
X5775251Y-90884467D01*
X5527000Y-90835000D01*
X5027000Y-90835000D01*
X4773000Y-90835000D01*
X4273000Y-90835000D01*
X4024749Y-90884467D01*
X3790919Y-90981415D01*
X3580495Y-91122118D01*
X3401564Y-91301170D01*
X3261003Y-91511689D01*
X3164213Y-91745585D01*
X3156901Y-91794529D01*
X660000Y-91794529D01*
X660000Y-89345471D01*
X3156901Y-89345471D01*
X3164213Y-89394415D01*
X3261003Y-89628311D01*
X3401564Y-89838830D01*
X3580495Y-90017882D01*
X3790919Y-90158585D01*
X4024749Y-90255533D01*
X4273000Y-90305000D01*
X4773000Y-90305000D01*
X4773000Y-89147000D01*
X5027000Y-89147000D01*
X5027000Y-90305000D01*
X5527000Y-90305000D01*
X5775251Y-90255533D01*
X6009081Y-90158585D01*
X6219505Y-90017882D01*
X6398436Y-89838830D01*
X6538997Y-89628311D01*
X6635787Y-89394415D01*
X6643099Y-89345471D01*
X6519067Y-89147000D01*
X5027000Y-89147000D01*
X4773000Y-89147000D01*
X3280933Y-89147000D01*
X3156901Y-89345471D01*
X660000Y-89345471D01*
X660000Y-88694529D01*
X3156901Y-88694529D01*
X3280933Y-88893000D01*
X4773000Y-88893000D01*
X4773000Y-87735000D01*
X4273000Y-87735000D01*
X4024749Y-87784467D01*
X3790919Y-87881415D01*
X3580495Y-88022118D01*
X3401564Y-88201170D01*
X3261003Y-88411689D01*
X3164213Y-88645585D01*
X3156901Y-88694529D01*
X660000Y-88694529D01*
X660000Y-88046431D01*
X888294Y-88115683D01*
X1150000Y-88141459D01*
X1411705Y-88115683D01*
X1663353Y-88039347D01*
X1895274Y-87915382D01*
X2098555Y-87748555D01*
X2265382Y-87545275D01*
X2389347Y-87313354D01*
X2465683Y-87061706D01*
X2485000Y-86865579D01*
X2485000Y-86127000D01*
X4815000Y-86127000D01*
X4815000Y-86927000D01*
X4865428Y-87185005D01*
X4965221Y-87428215D01*
X5110545Y-87647283D01*
X5197680Y-87735000D01*
X5027000Y-87735000D01*
X5027000Y-88893000D01*
X6519067Y-88893000D01*
X6643099Y-88694529D01*
X6635787Y-88645585D01*
X6538997Y-88411689D01*
X6398436Y-88201170D01*
X6277002Y-88079654D01*
X6277002Y-87969375D01*
X6483329Y-88092716D01*
X6543550Y-88081980D01*
X6786090Y-87980569D01*
X7004185Y-87833790D01*
X7189455Y-87647283D01*
X7334779Y-87428215D01*
X7434572Y-87185005D01*
X7485000Y-86927000D01*
X7485000Y-86127000D01*
X6277000Y-86127000D01*
X6277000Y-86147000D01*
X6023000Y-86147000D01*
X6023000Y-86127000D01*
X4815000Y-86127000D01*
X2485000Y-86127000D01*
X2485000Y-85134421D01*
X2478951Y-85073000D01*
X4815000Y-85073000D01*
X4815000Y-85873000D01*
X6023000Y-85873000D01*
X6023000Y-84030626D01*
X6277000Y-84030626D01*
X6277000Y-85873000D01*
X7485000Y-85873000D01*
X7485000Y-85073000D01*
X7434572Y-84814995D01*
X7334779Y-84571785D01*
X7189455Y-84352717D01*
X7004185Y-84166210D01*
X6786090Y-84019431D01*
X6543550Y-83918020D01*
X6483329Y-83907284D01*
X6277000Y-84030626D01*
X6023000Y-84030626D01*
X5816671Y-83907284D01*
X5756450Y-83918020D01*
X5513910Y-84019431D01*
X5295815Y-84166210D01*
X5110545Y-84352717D01*
X4965221Y-84571785D01*
X4865428Y-84814995D01*
X4815000Y-85073000D01*
X2478951Y-85073000D01*
X2465683Y-84938294D01*
X2389347Y-84686646D01*
X2265382Y-84454725D01*
X2098555Y-84251445D01*
X1895275Y-84084618D01*
X1663354Y-83960653D01*
X1411706Y-83884317D01*
X1150000Y-83858541D01*
X888295Y-83884317D01*
X660000Y-83953569D01*
X660000Y-73289721D01*
X2765000Y-73289721D01*
X2765000Y-73710279D01*
X2847047Y-74122756D01*
X3007988Y-74511302D01*
X3241637Y-74860983D01*
X3539017Y-75158363D01*
X3888698Y-75392012D01*
X4277244Y-75552953D01*
X4689721Y-75635000D01*
X5110279Y-75635000D01*
X5522756Y-75552953D01*
X5911302Y-75392012D01*
X6260983Y-75158363D01*
X6558363Y-74860983D01*
X6792012Y-74511302D01*
X6952953Y-74122756D01*
X7035000Y-73710279D01*
X7035000Y-73289721D01*
X6952953Y-72877244D01*
X6792012Y-72488698D01*
X6558363Y-72139017D01*
X6260983Y-71841637D01*
X5911302Y-71607988D01*
X5522756Y-71447047D01*
X5110279Y-71365000D01*
X4689721Y-71365000D01*
X4277244Y-71447047D01*
X3888698Y-71607988D01*
X3539017Y-71841637D01*
X3241637Y-72139017D01*
X3007988Y-72488698D01*
X2847047Y-72877244D01*
X2765000Y-73289721D01*
X660000Y-73289721D01*
X660000Y-25789721D01*
X2765000Y-25789721D01*
X2765000Y-26210279D01*
X2847047Y-26622756D01*
X3007988Y-27011302D01*
X3241637Y-27360983D01*
X3539017Y-27658363D01*
X3888698Y-27892012D01*
X4277244Y-28052953D01*
X4689721Y-28135000D01*
X5110279Y-28135000D01*
X5522756Y-28052953D01*
X5911302Y-27892012D01*
X6260983Y-27658363D01*
X6558363Y-27360983D01*
X6792012Y-27011302D01*
X6952953Y-26622756D01*
X7035000Y-26210279D01*
X7035000Y-25789721D01*
X6952953Y-25377244D01*
X6792012Y-24988698D01*
X6558363Y-24639017D01*
X6260983Y-24341637D01*
X5911302Y-24107988D01*
X5522756Y-23947047D01*
X5110279Y-23865000D01*
X4689721Y-23865000D01*
X4277244Y-23947047D01*
X3888698Y-24107988D01*
X3539017Y-24341637D01*
X3241637Y-24639017D01*
X3007988Y-24988698D01*
X2847047Y-25377244D01*
X2765000Y-25789721D01*
X660000Y-25789721D01*
X660000Y-18046431D01*
X888294Y-18115683D01*
X1150000Y-18141459D01*
X1411705Y-18115683D01*
X1663353Y-18039347D01*
X1895274Y-17915382D01*
X2098555Y-17748555D01*
X2265382Y-17545275D01*
X2389347Y-17313354D01*
X2400000Y-17278235D01*
X2410653Y-17313353D01*
X2534618Y-17545274D01*
X2701445Y-17748555D01*
X2904725Y-17915382D01*
X3136646Y-18039347D01*
X3388294Y-18115683D01*
X3650000Y-18141459D01*
X3911705Y-18115683D01*
X4163353Y-18039347D01*
X4395274Y-17915382D01*
X4598555Y-17748555D01*
X4765382Y-17545275D01*
X4889347Y-17313354D01*
X4900000Y-17278235D01*
X4910653Y-17313353D01*
X5034618Y-17545274D01*
X5201445Y-17748555D01*
X5404725Y-17915382D01*
X5636646Y-18039347D01*
X5888294Y-18115683D01*
X6150000Y-18141459D01*
X6411705Y-18115683D01*
X6663353Y-18039347D01*
X6895274Y-17915382D01*
X7098555Y-17748555D01*
X7265382Y-17545275D01*
X7389347Y-17313354D01*
X7400000Y-17278235D01*
X7410653Y-17313353D01*
G04 #@! TA.AperFunction,Conductor*
D14*
G36*
X7410653Y-17313353D02*
G01*
X7534618Y-17545274D01*
X7701445Y-17748555D01*
X7904725Y-17915382D01*
X8136646Y-18039347D01*
X8388294Y-18115683D01*
X8650000Y-18141459D01*
X8911705Y-18115683D01*
X8940000Y-18107100D01*
X8940001Y-101340000D01*
X6304533Y-101340000D01*
X6313028Y-101333028D01*
X6473608Y-101137362D01*
X6592929Y-100914127D01*
X6666407Y-100671904D01*
X6691217Y-100420000D01*
X6666407Y-100168096D01*
X6592929Y-99925873D01*
X6473608Y-99702638D01*
X6313028Y-99506972D01*
X6117362Y-99346392D01*
X5894127Y-99227071D01*
X5651904Y-99153593D01*
X5463123Y-99135000D01*
X4336877Y-99135000D01*
X4148096Y-99153593D01*
X3905873Y-99227071D01*
X3682638Y-99346392D01*
X3486972Y-99506972D01*
X3326392Y-99702638D01*
X3207071Y-99925873D01*
X3133593Y-100168096D01*
X3108783Y-100420000D01*
X3133593Y-100671904D01*
X3207071Y-100914127D01*
X3326392Y-101137362D01*
X3486972Y-101333028D01*
X3495467Y-101340000D01*
X660000Y-101340000D01*
X660000Y-95265098D01*
X2515000Y-95265098D01*
X2515000Y-95734902D01*
X2606654Y-96195679D01*
X2786440Y-96629721D01*
X3047450Y-97020349D01*
X3379651Y-97352550D01*
X3770279Y-97613560D01*
X4204321Y-97793346D01*
X4665098Y-97885000D01*
X5134902Y-97885000D01*
X5595679Y-97793346D01*
X6029721Y-97613560D01*
X6420349Y-97352550D01*
X6752550Y-97020349D01*
X7013560Y-96629721D01*
X7193346Y-96195679D01*
X7285000Y-95734902D01*
X7285000Y-95265098D01*
X7193346Y-94804321D01*
X7013560Y-94370279D01*
X6752550Y-93979651D01*
X6420349Y-93647450D01*
X6029721Y-93386440D01*
X5865135Y-93318266D01*
X6009081Y-93258585D01*
X6219505Y-93117882D01*
X6398436Y-92938830D01*
X6538997Y-92728311D01*
X6635787Y-92494415D01*
X6643099Y-92445471D01*
X6519067Y-92247000D01*
X5027000Y-92247000D01*
X5027000Y-92267000D01*
X4773000Y-92267000D01*
X4773000Y-92247000D01*
X3280933Y-92247000D01*
X3156901Y-92445471D01*
X3164213Y-92494415D01*
X3261003Y-92728311D01*
X3401564Y-92938830D01*
X3580495Y-93117882D01*
X3790919Y-93258585D01*
X3934865Y-93318266D01*
X3770279Y-93386440D01*
X3379651Y-93647450D01*
X3047450Y-93979651D01*
X2786440Y-94370279D01*
X2606654Y-94804321D01*
X2515000Y-95265098D01*
X660000Y-95265098D01*
X660000Y-91794529D01*
X3156901Y-91794529D01*
X3280933Y-91993000D01*
X4773000Y-91993000D01*
X4773000Y-90835000D01*
X5027000Y-90835000D01*
X5027000Y-91993000D01*
X6519067Y-91993000D01*
X6643099Y-91794529D01*
X6635787Y-91745585D01*
X6538997Y-91511689D01*
X6398436Y-91301170D01*
X6219505Y-91122118D01*
X6009081Y-90981415D01*
X5775251Y-90884467D01*
X5527000Y-90835000D01*
X5027000Y-90835000D01*
X4773000Y-90835000D01*
X4273000Y-90835000D01*
X4024749Y-90884467D01*
X3790919Y-90981415D01*
X3580495Y-91122118D01*
X3401564Y-91301170D01*
X3261003Y-91511689D01*
X3164213Y-91745585D01*
X3156901Y-91794529D01*
X660000Y-91794529D01*
X660000Y-89345471D01*
X3156901Y-89345471D01*
X3164213Y-89394415D01*
X3261003Y-89628311D01*
X3401564Y-89838830D01*
X3580495Y-90017882D01*
X3790919Y-90158585D01*
X4024749Y-90255533D01*
X4273000Y-90305000D01*
X4773000Y-90305000D01*
X4773000Y-89147000D01*
X5027000Y-89147000D01*
X5027000Y-90305000D01*
X5527000Y-90305000D01*
X5775251Y-90255533D01*
X6009081Y-90158585D01*
X6219505Y-90017882D01*
X6398436Y-89838830D01*
X6538997Y-89628311D01*
X6635787Y-89394415D01*
X6643099Y-89345471D01*
X6519067Y-89147000D01*
X5027000Y-89147000D01*
X4773000Y-89147000D01*
X3280933Y-89147000D01*
X3156901Y-89345471D01*
X660000Y-89345471D01*
X660000Y-88694529D01*
X3156901Y-88694529D01*
X3280933Y-88893000D01*
X4773000Y-88893000D01*
X4773000Y-87735000D01*
X4273000Y-87735000D01*
X4024749Y-87784467D01*
X3790919Y-87881415D01*
X3580495Y-88022118D01*
X3401564Y-88201170D01*
X3261003Y-88411689D01*
X3164213Y-88645585D01*
X3156901Y-88694529D01*
X660000Y-88694529D01*
X660000Y-88046431D01*
X888294Y-88115683D01*
X1150000Y-88141459D01*
X1411705Y-88115683D01*
X1663353Y-88039347D01*
X1895274Y-87915382D01*
X2098555Y-87748555D01*
X2265382Y-87545275D01*
X2389347Y-87313354D01*
X2465683Y-87061706D01*
X2485000Y-86865579D01*
X2485000Y-86127000D01*
X4815000Y-86127000D01*
X4815000Y-86927000D01*
X4865428Y-87185005D01*
X4965221Y-87428215D01*
X5110545Y-87647283D01*
X5197680Y-87735000D01*
X5027000Y-87735000D01*
X5027000Y-88893000D01*
X6519067Y-88893000D01*
X6643099Y-88694529D01*
X6635787Y-88645585D01*
X6538997Y-88411689D01*
X6398436Y-88201170D01*
X6277002Y-88079654D01*
X6277002Y-87969375D01*
X6483329Y-88092716D01*
X6543550Y-88081980D01*
X6786090Y-87980569D01*
X7004185Y-87833790D01*
X7189455Y-87647283D01*
X7334779Y-87428215D01*
X7434572Y-87185005D01*
X7485000Y-86927000D01*
X7485000Y-86127000D01*
X6277000Y-86127000D01*
X6277000Y-86147000D01*
X6023000Y-86147000D01*
X6023000Y-86127000D01*
X4815000Y-86127000D01*
X2485000Y-86127000D01*
X2485000Y-85134421D01*
X2478951Y-85073000D01*
X4815000Y-85073000D01*
X4815000Y-85873000D01*
X6023000Y-85873000D01*
X6023000Y-84030626D01*
X6277000Y-84030626D01*
X6277000Y-85873000D01*
X7485000Y-85873000D01*
X7485000Y-85073000D01*
X7434572Y-84814995D01*
X7334779Y-84571785D01*
X7189455Y-84352717D01*
X7004185Y-84166210D01*
X6786090Y-84019431D01*
X6543550Y-83918020D01*
X6483329Y-83907284D01*
X6277000Y-84030626D01*
X6023000Y-84030626D01*
X5816671Y-83907284D01*
X5756450Y-83918020D01*
X5513910Y-84019431D01*
X5295815Y-84166210D01*
X5110545Y-84352717D01*
X4965221Y-84571785D01*
X4865428Y-84814995D01*
X4815000Y-85073000D01*
X2478951Y-85073000D01*
X2465683Y-84938294D01*
X2389347Y-84686646D01*
X2265382Y-84454725D01*
X2098555Y-84251445D01*
X1895275Y-84084618D01*
X1663354Y-83960653D01*
X1411706Y-83884317D01*
X1150000Y-83858541D01*
X888295Y-83884317D01*
X660000Y-83953569D01*
X660000Y-73289721D01*
X2765000Y-73289721D01*
X2765000Y-73710279D01*
X2847047Y-74122756D01*
X3007988Y-74511302D01*
X3241637Y-74860983D01*
X3539017Y-75158363D01*
X3888698Y-75392012D01*
X4277244Y-75552953D01*
X4689721Y-75635000D01*
X5110279Y-75635000D01*
X5522756Y-75552953D01*
X5911302Y-75392012D01*
X6260983Y-75158363D01*
X6558363Y-74860983D01*
X6792012Y-74511302D01*
X6952953Y-74122756D01*
X7035000Y-73710279D01*
X7035000Y-73289721D01*
X6952953Y-72877244D01*
X6792012Y-72488698D01*
X6558363Y-72139017D01*
X6260983Y-71841637D01*
X5911302Y-71607988D01*
X5522756Y-71447047D01*
X5110279Y-71365000D01*
X4689721Y-71365000D01*
X4277244Y-71447047D01*
X3888698Y-71607988D01*
X3539017Y-71841637D01*
X3241637Y-72139017D01*
X3007988Y-72488698D01*
X2847047Y-72877244D01*
X2765000Y-73289721D01*
X660000Y-73289721D01*
X660000Y-25789721D01*
X2765000Y-25789721D01*
X2765000Y-26210279D01*
X2847047Y-26622756D01*
X3007988Y-27011302D01*
X3241637Y-27360983D01*
X3539017Y-27658363D01*
X3888698Y-27892012D01*
X4277244Y-28052953D01*
X4689721Y-28135000D01*
X5110279Y-28135000D01*
X5522756Y-28052953D01*
X5911302Y-27892012D01*
X6260983Y-27658363D01*
X6558363Y-27360983D01*
X6792012Y-27011302D01*
X6952953Y-26622756D01*
X7035000Y-26210279D01*
X7035000Y-25789721D01*
X6952953Y-25377244D01*
X6792012Y-24988698D01*
X6558363Y-24639017D01*
X6260983Y-24341637D01*
X5911302Y-24107988D01*
X5522756Y-23947047D01*
X5110279Y-23865000D01*
X4689721Y-23865000D01*
X4277244Y-23947047D01*
X3888698Y-24107988D01*
X3539017Y-24341637D01*
X3241637Y-24639017D01*
X3007988Y-24988698D01*
X2847047Y-25377244D01*
X2765000Y-25789721D01*
X660000Y-25789721D01*
X660000Y-18046431D01*
X888294Y-18115683D01*
X1150000Y-18141459D01*
X1411705Y-18115683D01*
X1663353Y-18039347D01*
X1895274Y-17915382D01*
X2098555Y-17748555D01*
X2265382Y-17545275D01*
X2389347Y-17313354D01*
X2400000Y-17278235D01*
X2410653Y-17313353D01*
X2534618Y-17545274D01*
X2701445Y-17748555D01*
X2904725Y-17915382D01*
X3136646Y-18039347D01*
X3388294Y-18115683D01*
X3650000Y-18141459D01*
X3911705Y-18115683D01*
X4163353Y-18039347D01*
X4395274Y-17915382D01*
X4598555Y-17748555D01*
X4765382Y-17545275D01*
X4889347Y-17313354D01*
X4900000Y-17278235D01*
X4910653Y-17313353D01*
X5034618Y-17545274D01*
X5201445Y-17748555D01*
X5404725Y-17915382D01*
X5636646Y-18039347D01*
X5888294Y-18115683D01*
X6150000Y-18141459D01*
X6411705Y-18115683D01*
X6663353Y-18039347D01*
X6895274Y-17915382D01*
X7098555Y-17748555D01*
X7265382Y-17545275D01*
X7389347Y-17313354D01*
X7400000Y-17278235D01*
X7410653Y-17313353D01*
G37*
G04 #@! TD.AperFunction*
D13*
X3486972Y-666972D02*
X3326392Y-862638D01*
X3207071Y-1085873D01*
X3133593Y-1328096D01*
X3108783Y-1580000D01*
X3133593Y-1831904D01*
X3207071Y-2074127D01*
X3326392Y-2297362D01*
X3486972Y-2493028D01*
X3682638Y-2653608D01*
X3905873Y-2772929D01*
X4148096Y-2846407D01*
X4336877Y-2865000D01*
X5463123Y-2865000D01*
X5651904Y-2846407D01*
X5894127Y-2772929D01*
X6117362Y-2653608D01*
X6313028Y-2493028D01*
X6473608Y-2297362D01*
X6592929Y-2074127D01*
X6666407Y-1831904D01*
X6691217Y-1580000D01*
X6666407Y-1328096D01*
X6592929Y-1085873D01*
X6473608Y-862638D01*
X6313028Y-666972D01*
X6304533Y-660000D01*
X8940000Y-660000D01*
X8940000Y-13892900D01*
X8911706Y-13884317D01*
X8650000Y-13858541D01*
X8388295Y-13884317D01*
X8136647Y-13960653D01*
X7904726Y-14084618D01*
X7701446Y-14251445D01*
X7534619Y-14454725D01*
X7410654Y-14686646D01*
X7400000Y-14721766D01*
X7389347Y-14686646D01*
X7265382Y-14454725D01*
X7098555Y-14251445D01*
X6895275Y-14084618D01*
X6663354Y-13960653D01*
X6411706Y-13884317D01*
X6321851Y-13875467D01*
X6398436Y-13798830D01*
X6538997Y-13588311D01*
X6635787Y-13354415D01*
X6643099Y-13305471D01*
X6519067Y-13107000D01*
X5027000Y-13107000D01*
X5027000Y-14265000D01*
X5190322Y-14265000D01*
X5034619Y-14454725D01*
X4910654Y-14686646D01*
X4900000Y-14721766D01*
X4889347Y-14686646D01*
X4765382Y-14454725D01*
X4609679Y-14265000D01*
X4773000Y-14265000D01*
X4773000Y-13107000D01*
X3280933Y-13107000D01*
X3156901Y-13305471D01*
X3164213Y-13354415D01*
X3261003Y-13588311D01*
X3401564Y-13798830D01*
X3478149Y-13875467D01*
X3388295Y-13884317D01*
X3136647Y-13960653D01*
X2904726Y-14084618D01*
X2701446Y-14251445D01*
X2534619Y-14454725D01*
X2410654Y-14686646D01*
X2400000Y-14721766D01*
X2389347Y-14686646D01*
X2265382Y-14454725D01*
X2098555Y-14251445D01*
X1895275Y-14084618D01*
X1663354Y-13960653D01*
X1411706Y-13884317D01*
X1150000Y-13858541D01*
X888295Y-13884317D01*
X660000Y-13953569D01*
X660000Y-12654529D01*
X3156901Y-12654529D01*
X3280933Y-12853000D01*
X4773000Y-12853000D01*
X4773000Y-11695000D01*
X5027000Y-11695000D01*
X5027000Y-12853000D01*
X6519067Y-12853000D01*
X6643099Y-12654529D01*
X6635787Y-12605585D01*
X6538997Y-12371689D01*
X6398436Y-12161170D01*
X6219505Y-11982118D01*
X6009081Y-11841415D01*
X5775251Y-11744467D01*
X5527000Y-11695000D01*
X5027000Y-11695000D01*
X4773000Y-11695000D01*
X4273000Y-11695000D01*
X4024749Y-11744467D01*
X3790919Y-11841415D01*
X3580495Y-11982118D01*
X3401564Y-12161170D01*
X3261003Y-12371689D01*
X3164213Y-12605585D01*
X3156901Y-12654529D01*
X660000Y-12654529D01*
X660000Y-6265098D01*
X2515000Y-6265098D01*
X2515000Y-6734902D01*
X2606654Y-7195679D01*
X2786440Y-7629721D01*
X3047450Y-8020349D01*
X3379651Y-8352550D01*
X3770279Y-8613560D01*
X3930047Y-8679738D01*
X3905873Y-8687071D01*
X3682638Y-8806392D01*
X3486972Y-8966972D01*
X3326392Y-9162638D01*
X3207071Y-9385873D01*
X3133593Y-9628096D01*
X3108783Y-9880000D01*
X3133593Y-10131904D01*
X3207071Y-10374127D01*
X3326392Y-10597362D01*
X3486972Y-10793028D01*
X3682638Y-10953608D01*
X3905873Y-11072929D01*
X4148096Y-11146407D01*
X4336877Y-11165000D01*
X5463123Y-11165000D01*
X5651904Y-11146407D01*
X5894127Y-11072929D01*
X6117362Y-10953608D01*
X6313028Y-10793028D01*
X6473608Y-10597362D01*
X6592929Y-10374127D01*
X6666407Y-10131904D01*
X6691217Y-9880000D01*
X6666407Y-9628096D01*
X6592929Y-9385873D01*
X6473608Y-9162638D01*
X6313028Y-8966972D01*
X6117362Y-8806392D01*
X5894127Y-8687071D01*
X5869953Y-8679738D01*
X6029721Y-8613560D01*
X6420349Y-8352550D01*
X6752550Y-8020349D01*
X7013560Y-7629721D01*
X7193346Y-7195679D01*
X7285000Y-6734902D01*
X7285000Y-6265098D01*
X7193346Y-5804321D01*
X7013560Y-5370279D01*
X6752550Y-4979651D01*
X6420349Y-4647450D01*
X6029721Y-4386440D01*
X5595679Y-4206654D01*
X5134902Y-4115000D01*
X4665098Y-4115000D01*
X4204321Y-4206654D01*
X3770279Y-4386440D01*
X3379651Y-4647450D01*
X3047450Y-4979651D01*
X2786440Y-5370279D01*
X2606654Y-5804321D01*
X2515000Y-6265098D01*
X660000Y-6265098D01*
X660000Y-660000D01*
X3495467Y-660000D01*
X3486972Y-666972D01*
G04 #@! TA.AperFunction,Conductor*
D14*
G36*
X3486972Y-666972D02*
G01*
X3326392Y-862638D01*
X3207071Y-1085873D01*
X3133593Y-1328096D01*
X3108783Y-1580000D01*
X3133593Y-1831904D01*
X3207071Y-2074127D01*
X3326392Y-2297362D01*
X3486972Y-2493028D01*
X3682638Y-2653608D01*
X3905873Y-2772929D01*
X4148096Y-2846407D01*
X4336877Y-2865000D01*
X5463123Y-2865000D01*
X5651904Y-2846407D01*
X5894127Y-2772929D01*
X6117362Y-2653608D01*
X6313028Y-2493028D01*
X6473608Y-2297362D01*
X6592929Y-2074127D01*
X6666407Y-1831904D01*
X6691217Y-1580000D01*
X6666407Y-1328096D01*
X6592929Y-1085873D01*
X6473608Y-862638D01*
X6313028Y-666972D01*
X6304533Y-660000D01*
X8940000Y-660000D01*
X8940000Y-13892900D01*
X8911706Y-13884317D01*
X8650000Y-13858541D01*
X8388295Y-13884317D01*
X8136647Y-13960653D01*
X7904726Y-14084618D01*
X7701446Y-14251445D01*
X7534619Y-14454725D01*
X7410654Y-14686646D01*
X7400000Y-14721766D01*
X7389347Y-14686646D01*
X7265382Y-14454725D01*
X7098555Y-14251445D01*
X6895275Y-14084618D01*
X6663354Y-13960653D01*
X6411706Y-13884317D01*
X6321851Y-13875467D01*
X6398436Y-13798830D01*
X6538997Y-13588311D01*
X6635787Y-13354415D01*
X6643099Y-13305471D01*
X6519067Y-13107000D01*
X5027000Y-13107000D01*
X5027000Y-14265000D01*
X5190322Y-14265000D01*
X5034619Y-14454725D01*
X4910654Y-14686646D01*
X4900000Y-14721766D01*
X4889347Y-14686646D01*
X4765382Y-14454725D01*
X4609679Y-14265000D01*
X4773000Y-14265000D01*
X4773000Y-13107000D01*
X3280933Y-13107000D01*
X3156901Y-13305471D01*
X3164213Y-13354415D01*
X3261003Y-13588311D01*
X3401564Y-13798830D01*
X3478149Y-13875467D01*
X3388295Y-13884317D01*
X3136647Y-13960653D01*
X2904726Y-14084618D01*
X2701446Y-14251445D01*
X2534619Y-14454725D01*
X2410654Y-14686646D01*
X2400000Y-14721766D01*
X2389347Y-14686646D01*
X2265382Y-14454725D01*
X2098555Y-14251445D01*
X1895275Y-14084618D01*
X1663354Y-13960653D01*
X1411706Y-13884317D01*
X1150000Y-13858541D01*
X888295Y-13884317D01*
X660000Y-13953569D01*
X660000Y-12654529D01*
X3156901Y-12654529D01*
X3280933Y-12853000D01*
X4773000Y-12853000D01*
X4773000Y-11695000D01*
X5027000Y-11695000D01*
X5027000Y-12853000D01*
X6519067Y-12853000D01*
X6643099Y-12654529D01*
X6635787Y-12605585D01*
X6538997Y-12371689D01*
X6398436Y-12161170D01*
X6219505Y-11982118D01*
X6009081Y-11841415D01*
X5775251Y-11744467D01*
X5527000Y-11695000D01*
X5027000Y-11695000D01*
X4773000Y-11695000D01*
X4273000Y-11695000D01*
X4024749Y-11744467D01*
X3790919Y-11841415D01*
X3580495Y-11982118D01*
X3401564Y-12161170D01*
X3261003Y-12371689D01*
X3164213Y-12605585D01*
X3156901Y-12654529D01*
X660000Y-12654529D01*
X660000Y-6265098D01*
X2515000Y-6265098D01*
X2515000Y-6734902D01*
X2606654Y-7195679D01*
X2786440Y-7629721D01*
X3047450Y-8020349D01*
X3379651Y-8352550D01*
X3770279Y-8613560D01*
X3930047Y-8679738D01*
X3905873Y-8687071D01*
X3682638Y-8806392D01*
X3486972Y-8966972D01*
X3326392Y-9162638D01*
X3207071Y-9385873D01*
X3133593Y-9628096D01*
X3108783Y-9880000D01*
X3133593Y-10131904D01*
X3207071Y-10374127D01*
X3326392Y-10597362D01*
X3486972Y-10793028D01*
X3682638Y-10953608D01*
X3905873Y-11072929D01*
X4148096Y-11146407D01*
X4336877Y-11165000D01*
X5463123Y-11165000D01*
X5651904Y-11146407D01*
X5894127Y-11072929D01*
X6117362Y-10953608D01*
X6313028Y-10793028D01*
X6473608Y-10597362D01*
X6592929Y-10374127D01*
X6666407Y-10131904D01*
X6691217Y-9880000D01*
X6666407Y-9628096D01*
X6592929Y-9385873D01*
X6473608Y-9162638D01*
X6313028Y-8966972D01*
X6117362Y-8806392D01*
X5894127Y-8687071D01*
X5869953Y-8679738D01*
X6029721Y-8613560D01*
X6420349Y-8352550D01*
X6752550Y-8020349D01*
X7013560Y-7629721D01*
X7193346Y-7195679D01*
X7285000Y-6734902D01*
X7285000Y-6265098D01*
X7193346Y-5804321D01*
X7013560Y-5370279D01*
X6752550Y-4979651D01*
X6420349Y-4647450D01*
X6029721Y-4386440D01*
X5595679Y-4206654D01*
X5134902Y-4115000D01*
X4665098Y-4115000D01*
X4204321Y-4206654D01*
X3770279Y-4386440D01*
X3379651Y-4647450D01*
X3047450Y-4979651D01*
X2786440Y-5370279D01*
X2606654Y-5804321D01*
X2515000Y-6265098D01*
X660000Y-6265098D01*
X660000Y-660000D01*
X3495467Y-660000D01*
X3486972Y-666972D01*
G37*
G04 #@! TD.AperFunction*
M02*
