G04 #@! TF.GenerationSoftware,KiCad,Pcbnew,(5.1.9)-1*
G04 #@! TF.CreationDate,2021-03-16T07:18:54+01:00*
G04 #@! TF.ProjectId,Single Attenuator,53696e67-6c65-4204-9174-74656e756174,rev?*
G04 #@! TF.SameCoordinates,Original*
G04 #@! TF.FileFunction,Copper,L2,Bot*
G04 #@! TF.FilePolarity,Positive*
%FSLAX46Y46*%
G04 Gerber Fmt 4.6, Leading zero omitted, Abs format (unit mm)*
G04 Created by KiCad (PCBNEW (5.1.9)-1) date 2021-03-16 07:18:54*
%MOMM*%
%LPD*%
G01*
G04 APERTURE LIST*
G04 #@! TA.AperFunction,ComponentPad*
%ADD10O,1.400000X3.000000*%
G04 #@! TD*
G04 #@! TA.AperFunction,ComponentPad*
%ADD11C,3.000000*%
G04 #@! TD*
G04 #@! TA.AperFunction,ComponentPad*
%ADD12O,2.300000X1.300000*%
G04 #@! TD*
G04 #@! TA.AperFunction,Conductor*
%ADD13C,0.250000*%
G04 #@! TD*
G04 #@! TA.AperFunction,Conductor*
%ADD14C,0.254000*%
G04 #@! TD*
G04 #@! TA.AperFunction,Conductor*
%ADD15C,0.100000*%
G04 #@! TD*
G04 APERTURE END LIST*
D10*
X1150000Y-86000000D03*
X6150000Y-86000000D03*
X1150000Y-16000000D03*
X3650000Y-16000000D03*
X6150000Y-16000000D03*
X8650000Y-16000000D03*
D11*
X4900000Y-73500000D03*
X4900000Y-26000000D03*
D12*
X4900000Y-1580000D03*
X4900000Y-9880000D03*
X4900000Y-12980000D03*
X4900000Y-100420000D03*
X4900000Y-92120000D03*
X4900000Y-89020000D03*
D13*
X7530000Y-100420000D02*
X4800000Y-100420000D01*
X8255000Y-99695000D02*
X7530000Y-100420000D01*
X8255000Y-22225000D02*
X8255000Y-99695000D01*
X6050000Y-20020000D02*
X8255000Y-22225000D01*
X6050000Y-16000000D02*
X6050000Y-20020000D01*
X8550000Y-16000000D02*
X8550000Y-2835000D01*
X8550000Y-2835000D02*
X7620000Y-1905000D01*
X4800000Y-1580000D02*
X7295000Y-1580000D01*
X7295000Y-1580000D02*
X7620000Y-1905000D01*
D14*
X9194000Y-14265042D02*
X9065682Y-14196454D01*
X9056000Y-14193517D01*
X9056000Y-2859854D01*
X9058448Y-2835000D01*
X9048678Y-2735807D01*
X9019745Y-2640425D01*
X8996043Y-2596082D01*
X8972759Y-2552521D01*
X8909527Y-2475473D01*
X8890220Y-2459628D01*
X7960221Y-1529630D01*
X7670376Y-1239785D01*
X7654527Y-1220473D01*
X7577479Y-1157241D01*
X7489575Y-1110255D01*
X7394193Y-1081322D01*
X7319854Y-1074000D01*
X7319846Y-1074000D01*
X7295000Y-1071553D01*
X7270154Y-1074000D01*
X6298575Y-1074000D01*
X6261393Y-1004436D01*
X6132554Y-847446D01*
X5975564Y-718607D01*
X5796455Y-622872D01*
X5602111Y-563918D01*
X5450645Y-549000D01*
X4349355Y-549000D01*
X4197889Y-563918D01*
X4003545Y-622872D01*
X3824436Y-718607D01*
X3667446Y-847446D01*
X3538607Y-1004436D01*
X3442872Y-1183545D01*
X3383918Y-1377889D01*
X3364012Y-1580000D01*
X3383918Y-1782111D01*
X3442872Y-1976455D01*
X3538607Y-2155564D01*
X3667446Y-2312554D01*
X3824436Y-2441393D01*
X4003545Y-2537128D01*
X4197889Y-2596082D01*
X4349355Y-2611000D01*
X5450645Y-2611000D01*
X5602111Y-2596082D01*
X5796455Y-2537128D01*
X5975564Y-2441393D01*
X6132554Y-2312554D01*
X6261393Y-2155564D01*
X6298575Y-2086000D01*
X7085409Y-2086000D01*
X7244630Y-2245221D01*
X8044001Y-3044593D01*
X8044000Y-14298904D01*
X7881920Y-14431919D01*
X7746834Y-14596523D01*
X7646455Y-14784318D01*
X7584642Y-14988087D01*
X7569000Y-15146900D01*
X7569000Y-16853099D01*
X7584642Y-17011912D01*
X7646454Y-17215681D01*
X7746833Y-17403477D01*
X7881919Y-17568081D01*
X8046523Y-17703167D01*
X8234318Y-17803546D01*
X8438087Y-17865358D01*
X8650000Y-17886230D01*
X8861912Y-17865358D01*
X9065681Y-17803546D01*
X9194000Y-17734958D01*
X9194001Y-101594000D01*
X406000Y-101594000D01*
X406000Y-100420000D01*
X3364012Y-100420000D01*
X3383918Y-100622111D01*
X3442872Y-100816455D01*
X3538607Y-100995564D01*
X3667446Y-101152554D01*
X3824436Y-101281393D01*
X4003545Y-101377128D01*
X4197889Y-101436082D01*
X4349355Y-101451000D01*
X5450645Y-101451000D01*
X5602111Y-101436082D01*
X5796455Y-101377128D01*
X5975564Y-101281393D01*
X6132554Y-101152554D01*
X6261393Y-100995564D01*
X6298575Y-100926000D01*
X7505154Y-100926000D01*
X7530000Y-100928447D01*
X7554846Y-100926000D01*
X7554854Y-100926000D01*
X7629193Y-100918678D01*
X7724575Y-100889745D01*
X7812479Y-100842759D01*
X7889527Y-100779527D01*
X7905376Y-100760215D01*
X8595220Y-100070372D01*
X8614527Y-100054527D01*
X8677759Y-99977479D01*
X8724745Y-99889575D01*
X8753678Y-99794193D01*
X8761000Y-99719854D01*
X8763448Y-99695000D01*
X8761000Y-99670146D01*
X8761000Y-22249854D01*
X8763448Y-22225000D01*
X8753678Y-22125807D01*
X8724745Y-22030425D01*
X8677759Y-21942521D01*
X8614527Y-21865473D01*
X8595220Y-21849628D01*
X6556000Y-19810409D01*
X6556000Y-17806483D01*
X6565681Y-17803546D01*
X6753477Y-17703167D01*
X6918081Y-17568081D01*
X7053167Y-17403477D01*
X7153546Y-17215682D01*
X7215358Y-17011913D01*
X7231000Y-16853100D01*
X7231000Y-15146900D01*
X7215358Y-14988087D01*
X7153546Y-14784318D01*
X7053167Y-14596523D01*
X6918081Y-14431919D01*
X6753477Y-14296833D01*
X6565682Y-14196454D01*
X6361913Y-14134642D01*
X6150000Y-14113770D01*
X5980406Y-14130474D01*
X6009081Y-14118585D01*
X6219505Y-13977882D01*
X6398436Y-13798830D01*
X6538997Y-13588311D01*
X6635787Y-13354415D01*
X6643099Y-13305471D01*
X6519067Y-13107000D01*
X5027000Y-13107000D01*
X5027000Y-14265000D01*
X5527000Y-14265000D01*
X5653081Y-14239877D01*
X5546524Y-14296833D01*
X5381920Y-14431919D01*
X5246834Y-14596523D01*
X5146455Y-14784318D01*
X5084642Y-14988087D01*
X5069000Y-15146900D01*
X5069000Y-16853099D01*
X5084642Y-17011912D01*
X5146454Y-17215681D01*
X5246833Y-17403477D01*
X5381919Y-17568081D01*
X5544000Y-17701097D01*
X5544001Y-19995144D01*
X5541553Y-20020000D01*
X5551322Y-20119192D01*
X5580255Y-20214574D01*
X5580256Y-20214575D01*
X5627242Y-20302479D01*
X5690474Y-20379527D01*
X5709781Y-20395372D01*
X7749000Y-22434592D01*
X7749001Y-99485407D01*
X7320409Y-99914000D01*
X6298575Y-99914000D01*
X6261393Y-99844436D01*
X6132554Y-99687446D01*
X5975564Y-99558607D01*
X5796455Y-99462872D01*
X5602111Y-99403918D01*
X5450645Y-99389000D01*
X4349355Y-99389000D01*
X4197889Y-99403918D01*
X4003545Y-99462872D01*
X3824436Y-99558607D01*
X3667446Y-99687446D01*
X3538607Y-99844436D01*
X3442872Y-100023545D01*
X3383918Y-100217889D01*
X3364012Y-100420000D01*
X406000Y-100420000D01*
X406000Y-95290115D01*
X2769000Y-95290115D01*
X2769000Y-95709885D01*
X2850893Y-96121590D01*
X3011532Y-96509407D01*
X3244744Y-96858433D01*
X3541567Y-97155256D01*
X3890593Y-97388468D01*
X4278410Y-97549107D01*
X4690115Y-97631000D01*
X5109885Y-97631000D01*
X5521590Y-97549107D01*
X5909407Y-97388468D01*
X6258433Y-97155256D01*
X6555256Y-96858433D01*
X6788468Y-96509407D01*
X6949107Y-96121590D01*
X7031000Y-95709885D01*
X7031000Y-95290115D01*
X6949107Y-94878410D01*
X6788468Y-94490593D01*
X6555256Y-94141567D01*
X6258433Y-93844744D01*
X5909407Y-93611532D01*
X5521590Y-93450893D01*
X5290870Y-93405000D01*
X5527000Y-93405000D01*
X5775251Y-93355533D01*
X6009081Y-93258585D01*
X6219505Y-93117882D01*
X6398436Y-92938830D01*
X6538997Y-92728311D01*
X6635787Y-92494415D01*
X6643099Y-92445471D01*
X6519067Y-92247000D01*
X5027000Y-92247000D01*
X5027000Y-92267000D01*
X4773000Y-92267000D01*
X4773000Y-92247000D01*
X3280933Y-92247000D01*
X3156901Y-92445471D01*
X3164213Y-92494415D01*
X3261003Y-92728311D01*
X3401564Y-92938830D01*
X3580495Y-93117882D01*
X3790919Y-93258585D01*
X4024749Y-93355533D01*
X4273000Y-93405000D01*
X4509130Y-93405000D01*
X4278410Y-93450893D01*
X3890593Y-93611532D01*
X3541567Y-93844744D01*
X3244744Y-94141567D01*
X3011532Y-94490593D01*
X2850893Y-94878410D01*
X2769000Y-95290115D01*
X406000Y-95290115D01*
X406000Y-91794529D01*
X3156901Y-91794529D01*
X3280933Y-91993000D01*
X4773000Y-91993000D01*
X4773000Y-90835000D01*
X5027000Y-90835000D01*
X5027000Y-91993000D01*
X6519067Y-91993000D01*
X6643099Y-91794529D01*
X6635787Y-91745585D01*
X6538997Y-91511689D01*
X6398436Y-91301170D01*
X6219505Y-91122118D01*
X6009081Y-90981415D01*
X5775251Y-90884467D01*
X5527000Y-90835000D01*
X5027000Y-90835000D01*
X4773000Y-90835000D01*
X4273000Y-90835000D01*
X4024749Y-90884467D01*
X3790919Y-90981415D01*
X3580495Y-91122118D01*
X3401564Y-91301170D01*
X3261003Y-91511689D01*
X3164213Y-91745585D01*
X3156901Y-91794529D01*
X406000Y-91794529D01*
X406000Y-89345471D01*
X3156901Y-89345471D01*
X3164213Y-89394415D01*
X3261003Y-89628311D01*
X3401564Y-89838830D01*
X3580495Y-90017882D01*
X3790919Y-90158585D01*
X4024749Y-90255533D01*
X4273000Y-90305000D01*
X4773000Y-90305000D01*
X4773000Y-89147000D01*
X5027000Y-89147000D01*
X5027000Y-90305000D01*
X5527000Y-90305000D01*
X5775251Y-90255533D01*
X6009081Y-90158585D01*
X6219505Y-90017882D01*
X6398436Y-89838830D01*
X6538997Y-89628311D01*
X6635787Y-89394415D01*
X6643099Y-89345471D01*
X6519067Y-89147000D01*
X5027000Y-89147000D01*
X4773000Y-89147000D01*
X3280933Y-89147000D01*
X3156901Y-89345471D01*
X406000Y-89345471D01*
X406000Y-88694529D01*
X3156901Y-88694529D01*
X3280933Y-88893000D01*
X4773000Y-88893000D01*
X4773000Y-87735000D01*
X4273000Y-87735000D01*
X4024749Y-87784467D01*
X3790919Y-87881415D01*
X3580495Y-88022118D01*
X3401564Y-88201170D01*
X3261003Y-88411689D01*
X3164213Y-88645585D01*
X3156901Y-88694529D01*
X406000Y-88694529D01*
X406000Y-87587844D01*
X546523Y-87703167D01*
X734318Y-87803546D01*
X938087Y-87865358D01*
X1150000Y-87886230D01*
X1361912Y-87865358D01*
X1565681Y-87803546D01*
X1753477Y-87703167D01*
X1918081Y-87568081D01*
X2053167Y-87403477D01*
X2153546Y-87215682D01*
X2215358Y-87011913D01*
X2231000Y-86853100D01*
X2231000Y-86127000D01*
X4815000Y-86127000D01*
X4815000Y-86927000D01*
X4865428Y-87185005D01*
X4965221Y-87428215D01*
X5110545Y-87647283D01*
X5197680Y-87735000D01*
X5027000Y-87735000D01*
X5027000Y-88893000D01*
X6519067Y-88893000D01*
X6643099Y-88694529D01*
X6635787Y-88645585D01*
X6538997Y-88411689D01*
X6398436Y-88201170D01*
X6277002Y-88079654D01*
X6277002Y-87969375D01*
X6483329Y-88092716D01*
X6543550Y-88081980D01*
X6786090Y-87980569D01*
X7004185Y-87833790D01*
X7189455Y-87647283D01*
X7334779Y-87428215D01*
X7434572Y-87185005D01*
X7485000Y-86927000D01*
X7485000Y-86127000D01*
X6277000Y-86127000D01*
X6277000Y-86147000D01*
X6023000Y-86147000D01*
X6023000Y-86127000D01*
X4815000Y-86127000D01*
X2231000Y-86127000D01*
X2231000Y-85146900D01*
X2223722Y-85073000D01*
X4815000Y-85073000D01*
X4815000Y-85873000D01*
X6023000Y-85873000D01*
X6023000Y-84030626D01*
X6277000Y-84030626D01*
X6277000Y-85873000D01*
X7485000Y-85873000D01*
X7485000Y-85073000D01*
X7434572Y-84814995D01*
X7334779Y-84571785D01*
X7189455Y-84352717D01*
X7004185Y-84166210D01*
X6786090Y-84019431D01*
X6543550Y-83918020D01*
X6483329Y-83907284D01*
X6277000Y-84030626D01*
X6023000Y-84030626D01*
X5816671Y-83907284D01*
X5756450Y-83918020D01*
X5513910Y-84019431D01*
X5295815Y-84166210D01*
X5110545Y-84352717D01*
X4965221Y-84571785D01*
X4865428Y-84814995D01*
X4815000Y-85073000D01*
X2223722Y-85073000D01*
X2215358Y-84988087D01*
X2153546Y-84784318D01*
X2053167Y-84596523D01*
X1918081Y-84431919D01*
X1753477Y-84296833D01*
X1565682Y-84196454D01*
X1361913Y-84134642D01*
X1150000Y-84113770D01*
X938088Y-84134642D01*
X734319Y-84196454D01*
X546524Y-84296833D01*
X406000Y-84412157D01*
X406000Y-73314738D01*
X3019000Y-73314738D01*
X3019000Y-73685262D01*
X3091286Y-74048667D01*
X3233080Y-74390987D01*
X3438932Y-74699067D01*
X3700933Y-74961068D01*
X4009013Y-75166920D01*
X4351333Y-75308714D01*
X4714738Y-75381000D01*
X5085262Y-75381000D01*
X5448667Y-75308714D01*
X5790987Y-75166920D01*
X6099067Y-74961068D01*
X6361068Y-74699067D01*
X6566920Y-74390987D01*
X6708714Y-74048667D01*
X6781000Y-73685262D01*
X6781000Y-73314738D01*
X6708714Y-72951333D01*
X6566920Y-72609013D01*
X6361068Y-72300933D01*
X6099067Y-72038932D01*
X5790987Y-71833080D01*
X5448667Y-71691286D01*
X5085262Y-71619000D01*
X4714738Y-71619000D01*
X4351333Y-71691286D01*
X4009013Y-71833080D01*
X3700933Y-72038932D01*
X3438932Y-72300933D01*
X3233080Y-72609013D01*
X3091286Y-72951333D01*
X3019000Y-73314738D01*
X406000Y-73314738D01*
X406000Y-25814738D01*
X3019000Y-25814738D01*
X3019000Y-26185262D01*
X3091286Y-26548667D01*
X3233080Y-26890987D01*
X3438932Y-27199067D01*
X3700933Y-27461068D01*
X4009013Y-27666920D01*
X4351333Y-27808714D01*
X4714738Y-27881000D01*
X5085262Y-27881000D01*
X5448667Y-27808714D01*
X5790987Y-27666920D01*
X6099067Y-27461068D01*
X6361068Y-27199067D01*
X6566920Y-26890987D01*
X6708714Y-26548667D01*
X6781000Y-26185262D01*
X6781000Y-25814738D01*
X6708714Y-25451333D01*
X6566920Y-25109013D01*
X6361068Y-24800933D01*
X6099067Y-24538932D01*
X5790987Y-24333080D01*
X5448667Y-24191286D01*
X5085262Y-24119000D01*
X4714738Y-24119000D01*
X4351333Y-24191286D01*
X4009013Y-24333080D01*
X3700933Y-24538932D01*
X3438932Y-24800933D01*
X3233080Y-25109013D01*
X3091286Y-25451333D01*
X3019000Y-25814738D01*
X406000Y-25814738D01*
X406000Y-17587844D01*
X546523Y-17703167D01*
X734318Y-17803546D01*
X938087Y-17865358D01*
X1150000Y-17886230D01*
X1361912Y-17865358D01*
X1565681Y-17803546D01*
X1753477Y-17703167D01*
X1918081Y-17568081D01*
X2053167Y-17403477D01*
X2153546Y-17215682D01*
X2215358Y-17011913D01*
X2231000Y-16853100D01*
X2231000Y-15146900D01*
X2569000Y-15146900D01*
X2569000Y-16853099D01*
X2584642Y-17011912D01*
X2646454Y-17215681D01*
X2746833Y-17403477D01*
X2881919Y-17568081D01*
X3046523Y-17703167D01*
X3234318Y-17803546D01*
X3438087Y-17865358D01*
X3650000Y-17886230D01*
X3861912Y-17865358D01*
X4065681Y-17803546D01*
X4253477Y-17703167D01*
X4418081Y-17568081D01*
X4553167Y-17403477D01*
X4653546Y-17215682D01*
X4715358Y-17011913D01*
X4731000Y-16853100D01*
X4731000Y-15146900D01*
X4715358Y-14988087D01*
X4653546Y-14784318D01*
X4553167Y-14596523D01*
X4418081Y-14431919D01*
X4253477Y-14296833D01*
X4146921Y-14239877D01*
X4273000Y-14265000D01*
X4773000Y-14265000D01*
X4773000Y-13107000D01*
X3280933Y-13107000D01*
X3156901Y-13305471D01*
X3164213Y-13354415D01*
X3261003Y-13588311D01*
X3401564Y-13798830D01*
X3580495Y-13977882D01*
X3790919Y-14118585D01*
X3819594Y-14130474D01*
X3650000Y-14113770D01*
X3438088Y-14134642D01*
X3234319Y-14196454D01*
X3046524Y-14296833D01*
X2881920Y-14431919D01*
X2746834Y-14596523D01*
X2646455Y-14784318D01*
X2584642Y-14988087D01*
X2569000Y-15146900D01*
X2231000Y-15146900D01*
X2215358Y-14988087D01*
X2153546Y-14784318D01*
X2053167Y-14596523D01*
X1918081Y-14431919D01*
X1753477Y-14296833D01*
X1565682Y-14196454D01*
X1361913Y-14134642D01*
X1150000Y-14113770D01*
X938088Y-14134642D01*
X734319Y-14196454D01*
X546524Y-14296833D01*
X406000Y-14412157D01*
X406000Y-12654529D01*
X3156901Y-12654529D01*
X3280933Y-12853000D01*
X4773000Y-12853000D01*
X4773000Y-11695000D01*
X5027000Y-11695000D01*
X5027000Y-12853000D01*
X6519067Y-12853000D01*
X6643099Y-12654529D01*
X6635787Y-12605585D01*
X6538997Y-12371689D01*
X6398436Y-12161170D01*
X6219505Y-11982118D01*
X6009081Y-11841415D01*
X5775251Y-11744467D01*
X5527000Y-11695000D01*
X5027000Y-11695000D01*
X4773000Y-11695000D01*
X4273000Y-11695000D01*
X4024749Y-11744467D01*
X3790919Y-11841415D01*
X3580495Y-11982118D01*
X3401564Y-12161170D01*
X3261003Y-12371689D01*
X3164213Y-12605585D01*
X3156901Y-12654529D01*
X406000Y-12654529D01*
X406000Y-9880000D01*
X3364012Y-9880000D01*
X3383918Y-10082111D01*
X3442872Y-10276455D01*
X3538607Y-10455564D01*
X3667446Y-10612554D01*
X3824436Y-10741393D01*
X4003545Y-10837128D01*
X4197889Y-10896082D01*
X4349355Y-10911000D01*
X5450645Y-10911000D01*
X5602111Y-10896082D01*
X5796455Y-10837128D01*
X5975564Y-10741393D01*
X6132554Y-10612554D01*
X6261393Y-10455564D01*
X6357128Y-10276455D01*
X6416082Y-10082111D01*
X6435988Y-9880000D01*
X6416082Y-9677889D01*
X6357128Y-9483545D01*
X6261393Y-9304436D01*
X6132554Y-9147446D01*
X5975564Y-9018607D01*
X5796455Y-8922872D01*
X5602111Y-8863918D01*
X5450645Y-8849000D01*
X4349355Y-8849000D01*
X4197889Y-8863918D01*
X4003545Y-8922872D01*
X3824436Y-9018607D01*
X3667446Y-9147446D01*
X3538607Y-9304436D01*
X3442872Y-9483545D01*
X3383918Y-9677889D01*
X3364012Y-9880000D01*
X406000Y-9880000D01*
X406000Y-6290115D01*
X2769000Y-6290115D01*
X2769000Y-6709885D01*
X2850893Y-7121590D01*
X3011532Y-7509407D01*
X3244744Y-7858433D01*
X3541567Y-8155256D01*
X3890593Y-8388468D01*
X4278410Y-8549107D01*
X4690115Y-8631000D01*
X5109885Y-8631000D01*
X5521590Y-8549107D01*
X5909407Y-8388468D01*
X6258433Y-8155256D01*
X6555256Y-7858433D01*
X6788468Y-7509407D01*
X6949107Y-7121590D01*
X7031000Y-6709885D01*
X7031000Y-6290115D01*
X6949107Y-5878410D01*
X6788468Y-5490593D01*
X6555256Y-5141567D01*
X6258433Y-4844744D01*
X5909407Y-4611532D01*
X5521590Y-4450893D01*
X5109885Y-4369000D01*
X4690115Y-4369000D01*
X4278410Y-4450893D01*
X3890593Y-4611532D01*
X3541567Y-4844744D01*
X3244744Y-5141567D01*
X3011532Y-5490593D01*
X2850893Y-5878410D01*
X2769000Y-6290115D01*
X406000Y-6290115D01*
X406000Y-406000D01*
X9194000Y-406000D01*
X9194000Y-14265042D01*
G04 #@! TA.AperFunction,Conductor*
D15*
G36*
X9194000Y-14265042D02*
G01*
X9065682Y-14196454D01*
X9056000Y-14193517D01*
X9056000Y-2859854D01*
X9058448Y-2835000D01*
X9048678Y-2735807D01*
X9019745Y-2640425D01*
X8996043Y-2596082D01*
X8972759Y-2552521D01*
X8909527Y-2475473D01*
X8890220Y-2459628D01*
X7960221Y-1529630D01*
X7670376Y-1239785D01*
X7654527Y-1220473D01*
X7577479Y-1157241D01*
X7489575Y-1110255D01*
X7394193Y-1081322D01*
X7319854Y-1074000D01*
X7319846Y-1074000D01*
X7295000Y-1071553D01*
X7270154Y-1074000D01*
X6298575Y-1074000D01*
X6261393Y-1004436D01*
X6132554Y-847446D01*
X5975564Y-718607D01*
X5796455Y-622872D01*
X5602111Y-563918D01*
X5450645Y-549000D01*
X4349355Y-549000D01*
X4197889Y-563918D01*
X4003545Y-622872D01*
X3824436Y-718607D01*
X3667446Y-847446D01*
X3538607Y-1004436D01*
X3442872Y-1183545D01*
X3383918Y-1377889D01*
X3364012Y-1580000D01*
X3383918Y-1782111D01*
X3442872Y-1976455D01*
X3538607Y-2155564D01*
X3667446Y-2312554D01*
X3824436Y-2441393D01*
X4003545Y-2537128D01*
X4197889Y-2596082D01*
X4349355Y-2611000D01*
X5450645Y-2611000D01*
X5602111Y-2596082D01*
X5796455Y-2537128D01*
X5975564Y-2441393D01*
X6132554Y-2312554D01*
X6261393Y-2155564D01*
X6298575Y-2086000D01*
X7085409Y-2086000D01*
X7244630Y-2245221D01*
X8044001Y-3044593D01*
X8044000Y-14298904D01*
X7881920Y-14431919D01*
X7746834Y-14596523D01*
X7646455Y-14784318D01*
X7584642Y-14988087D01*
X7569000Y-15146900D01*
X7569000Y-16853099D01*
X7584642Y-17011912D01*
X7646454Y-17215681D01*
X7746833Y-17403477D01*
X7881919Y-17568081D01*
X8046523Y-17703167D01*
X8234318Y-17803546D01*
X8438087Y-17865358D01*
X8650000Y-17886230D01*
X8861912Y-17865358D01*
X9065681Y-17803546D01*
X9194000Y-17734958D01*
X9194001Y-101594000D01*
X406000Y-101594000D01*
X406000Y-100420000D01*
X3364012Y-100420000D01*
X3383918Y-100622111D01*
X3442872Y-100816455D01*
X3538607Y-100995564D01*
X3667446Y-101152554D01*
X3824436Y-101281393D01*
X4003545Y-101377128D01*
X4197889Y-101436082D01*
X4349355Y-101451000D01*
X5450645Y-101451000D01*
X5602111Y-101436082D01*
X5796455Y-101377128D01*
X5975564Y-101281393D01*
X6132554Y-101152554D01*
X6261393Y-100995564D01*
X6298575Y-100926000D01*
X7505154Y-100926000D01*
X7530000Y-100928447D01*
X7554846Y-100926000D01*
X7554854Y-100926000D01*
X7629193Y-100918678D01*
X7724575Y-100889745D01*
X7812479Y-100842759D01*
X7889527Y-100779527D01*
X7905376Y-100760215D01*
X8595220Y-100070372D01*
X8614527Y-100054527D01*
X8677759Y-99977479D01*
X8724745Y-99889575D01*
X8753678Y-99794193D01*
X8761000Y-99719854D01*
X8763448Y-99695000D01*
X8761000Y-99670146D01*
X8761000Y-22249854D01*
X8763448Y-22225000D01*
X8753678Y-22125807D01*
X8724745Y-22030425D01*
X8677759Y-21942521D01*
X8614527Y-21865473D01*
X8595220Y-21849628D01*
X6556000Y-19810409D01*
X6556000Y-17806483D01*
X6565681Y-17803546D01*
X6753477Y-17703167D01*
X6918081Y-17568081D01*
X7053167Y-17403477D01*
X7153546Y-17215682D01*
X7215358Y-17011913D01*
X7231000Y-16853100D01*
X7231000Y-15146900D01*
X7215358Y-14988087D01*
X7153546Y-14784318D01*
X7053167Y-14596523D01*
X6918081Y-14431919D01*
X6753477Y-14296833D01*
X6565682Y-14196454D01*
X6361913Y-14134642D01*
X6150000Y-14113770D01*
X5980406Y-14130474D01*
X6009081Y-14118585D01*
X6219505Y-13977882D01*
X6398436Y-13798830D01*
X6538997Y-13588311D01*
X6635787Y-13354415D01*
X6643099Y-13305471D01*
X6519067Y-13107000D01*
X5027000Y-13107000D01*
X5027000Y-14265000D01*
X5527000Y-14265000D01*
X5653081Y-14239877D01*
X5546524Y-14296833D01*
X5381920Y-14431919D01*
X5246834Y-14596523D01*
X5146455Y-14784318D01*
X5084642Y-14988087D01*
X5069000Y-15146900D01*
X5069000Y-16853099D01*
X5084642Y-17011912D01*
X5146454Y-17215681D01*
X5246833Y-17403477D01*
X5381919Y-17568081D01*
X5544000Y-17701097D01*
X5544001Y-19995144D01*
X5541553Y-20020000D01*
X5551322Y-20119192D01*
X5580255Y-20214574D01*
X5580256Y-20214575D01*
X5627242Y-20302479D01*
X5690474Y-20379527D01*
X5709781Y-20395372D01*
X7749000Y-22434592D01*
X7749001Y-99485407D01*
X7320409Y-99914000D01*
X6298575Y-99914000D01*
X6261393Y-99844436D01*
X6132554Y-99687446D01*
X5975564Y-99558607D01*
X5796455Y-99462872D01*
X5602111Y-99403918D01*
X5450645Y-99389000D01*
X4349355Y-99389000D01*
X4197889Y-99403918D01*
X4003545Y-99462872D01*
X3824436Y-99558607D01*
X3667446Y-99687446D01*
X3538607Y-99844436D01*
X3442872Y-100023545D01*
X3383918Y-100217889D01*
X3364012Y-100420000D01*
X406000Y-100420000D01*
X406000Y-95290115D01*
X2769000Y-95290115D01*
X2769000Y-95709885D01*
X2850893Y-96121590D01*
X3011532Y-96509407D01*
X3244744Y-96858433D01*
X3541567Y-97155256D01*
X3890593Y-97388468D01*
X4278410Y-97549107D01*
X4690115Y-97631000D01*
X5109885Y-97631000D01*
X5521590Y-97549107D01*
X5909407Y-97388468D01*
X6258433Y-97155256D01*
X6555256Y-96858433D01*
X6788468Y-96509407D01*
X6949107Y-96121590D01*
X7031000Y-95709885D01*
X7031000Y-95290115D01*
X6949107Y-94878410D01*
X6788468Y-94490593D01*
X6555256Y-94141567D01*
X6258433Y-93844744D01*
X5909407Y-93611532D01*
X5521590Y-93450893D01*
X5290870Y-93405000D01*
X5527000Y-93405000D01*
X5775251Y-93355533D01*
X6009081Y-93258585D01*
X6219505Y-93117882D01*
X6398436Y-92938830D01*
X6538997Y-92728311D01*
X6635787Y-92494415D01*
X6643099Y-92445471D01*
X6519067Y-92247000D01*
X5027000Y-92247000D01*
X5027000Y-92267000D01*
X4773000Y-92267000D01*
X4773000Y-92247000D01*
X3280933Y-92247000D01*
X3156901Y-92445471D01*
X3164213Y-92494415D01*
X3261003Y-92728311D01*
X3401564Y-92938830D01*
X3580495Y-93117882D01*
X3790919Y-93258585D01*
X4024749Y-93355533D01*
X4273000Y-93405000D01*
X4509130Y-93405000D01*
X4278410Y-93450893D01*
X3890593Y-93611532D01*
X3541567Y-93844744D01*
X3244744Y-94141567D01*
X3011532Y-94490593D01*
X2850893Y-94878410D01*
X2769000Y-95290115D01*
X406000Y-95290115D01*
X406000Y-91794529D01*
X3156901Y-91794529D01*
X3280933Y-91993000D01*
X4773000Y-91993000D01*
X4773000Y-90835000D01*
X5027000Y-90835000D01*
X5027000Y-91993000D01*
X6519067Y-91993000D01*
X6643099Y-91794529D01*
X6635787Y-91745585D01*
X6538997Y-91511689D01*
X6398436Y-91301170D01*
X6219505Y-91122118D01*
X6009081Y-90981415D01*
X5775251Y-90884467D01*
X5527000Y-90835000D01*
X5027000Y-90835000D01*
X4773000Y-90835000D01*
X4273000Y-90835000D01*
X4024749Y-90884467D01*
X3790919Y-90981415D01*
X3580495Y-91122118D01*
X3401564Y-91301170D01*
X3261003Y-91511689D01*
X3164213Y-91745585D01*
X3156901Y-91794529D01*
X406000Y-91794529D01*
X406000Y-89345471D01*
X3156901Y-89345471D01*
X3164213Y-89394415D01*
X3261003Y-89628311D01*
X3401564Y-89838830D01*
X3580495Y-90017882D01*
X3790919Y-90158585D01*
X4024749Y-90255533D01*
X4273000Y-90305000D01*
X4773000Y-90305000D01*
X4773000Y-89147000D01*
X5027000Y-89147000D01*
X5027000Y-90305000D01*
X5527000Y-90305000D01*
X5775251Y-90255533D01*
X6009081Y-90158585D01*
X6219505Y-90017882D01*
X6398436Y-89838830D01*
X6538997Y-89628311D01*
X6635787Y-89394415D01*
X6643099Y-89345471D01*
X6519067Y-89147000D01*
X5027000Y-89147000D01*
X4773000Y-89147000D01*
X3280933Y-89147000D01*
X3156901Y-89345471D01*
X406000Y-89345471D01*
X406000Y-88694529D01*
X3156901Y-88694529D01*
X3280933Y-88893000D01*
X4773000Y-88893000D01*
X4773000Y-87735000D01*
X4273000Y-87735000D01*
X4024749Y-87784467D01*
X3790919Y-87881415D01*
X3580495Y-88022118D01*
X3401564Y-88201170D01*
X3261003Y-88411689D01*
X3164213Y-88645585D01*
X3156901Y-88694529D01*
X406000Y-88694529D01*
X406000Y-87587844D01*
X546523Y-87703167D01*
X734318Y-87803546D01*
X938087Y-87865358D01*
X1150000Y-87886230D01*
X1361912Y-87865358D01*
X1565681Y-87803546D01*
X1753477Y-87703167D01*
X1918081Y-87568081D01*
X2053167Y-87403477D01*
X2153546Y-87215682D01*
X2215358Y-87011913D01*
X2231000Y-86853100D01*
X2231000Y-86127000D01*
X4815000Y-86127000D01*
X4815000Y-86927000D01*
X4865428Y-87185005D01*
X4965221Y-87428215D01*
X5110545Y-87647283D01*
X5197680Y-87735000D01*
X5027000Y-87735000D01*
X5027000Y-88893000D01*
X6519067Y-88893000D01*
X6643099Y-88694529D01*
X6635787Y-88645585D01*
X6538997Y-88411689D01*
X6398436Y-88201170D01*
X6277002Y-88079654D01*
X6277002Y-87969375D01*
X6483329Y-88092716D01*
X6543550Y-88081980D01*
X6786090Y-87980569D01*
X7004185Y-87833790D01*
X7189455Y-87647283D01*
X7334779Y-87428215D01*
X7434572Y-87185005D01*
X7485000Y-86927000D01*
X7485000Y-86127000D01*
X6277000Y-86127000D01*
X6277000Y-86147000D01*
X6023000Y-86147000D01*
X6023000Y-86127000D01*
X4815000Y-86127000D01*
X2231000Y-86127000D01*
X2231000Y-85146900D01*
X2223722Y-85073000D01*
X4815000Y-85073000D01*
X4815000Y-85873000D01*
X6023000Y-85873000D01*
X6023000Y-84030626D01*
X6277000Y-84030626D01*
X6277000Y-85873000D01*
X7485000Y-85873000D01*
X7485000Y-85073000D01*
X7434572Y-84814995D01*
X7334779Y-84571785D01*
X7189455Y-84352717D01*
X7004185Y-84166210D01*
X6786090Y-84019431D01*
X6543550Y-83918020D01*
X6483329Y-83907284D01*
X6277000Y-84030626D01*
X6023000Y-84030626D01*
X5816671Y-83907284D01*
X5756450Y-83918020D01*
X5513910Y-84019431D01*
X5295815Y-84166210D01*
X5110545Y-84352717D01*
X4965221Y-84571785D01*
X4865428Y-84814995D01*
X4815000Y-85073000D01*
X2223722Y-85073000D01*
X2215358Y-84988087D01*
X2153546Y-84784318D01*
X2053167Y-84596523D01*
X1918081Y-84431919D01*
X1753477Y-84296833D01*
X1565682Y-84196454D01*
X1361913Y-84134642D01*
X1150000Y-84113770D01*
X938088Y-84134642D01*
X734319Y-84196454D01*
X546524Y-84296833D01*
X406000Y-84412157D01*
X406000Y-73314738D01*
X3019000Y-73314738D01*
X3019000Y-73685262D01*
X3091286Y-74048667D01*
X3233080Y-74390987D01*
X3438932Y-74699067D01*
X3700933Y-74961068D01*
X4009013Y-75166920D01*
X4351333Y-75308714D01*
X4714738Y-75381000D01*
X5085262Y-75381000D01*
X5448667Y-75308714D01*
X5790987Y-75166920D01*
X6099067Y-74961068D01*
X6361068Y-74699067D01*
X6566920Y-74390987D01*
X6708714Y-74048667D01*
X6781000Y-73685262D01*
X6781000Y-73314738D01*
X6708714Y-72951333D01*
X6566920Y-72609013D01*
X6361068Y-72300933D01*
X6099067Y-72038932D01*
X5790987Y-71833080D01*
X5448667Y-71691286D01*
X5085262Y-71619000D01*
X4714738Y-71619000D01*
X4351333Y-71691286D01*
X4009013Y-71833080D01*
X3700933Y-72038932D01*
X3438932Y-72300933D01*
X3233080Y-72609013D01*
X3091286Y-72951333D01*
X3019000Y-73314738D01*
X406000Y-73314738D01*
X406000Y-25814738D01*
X3019000Y-25814738D01*
X3019000Y-26185262D01*
X3091286Y-26548667D01*
X3233080Y-26890987D01*
X3438932Y-27199067D01*
X3700933Y-27461068D01*
X4009013Y-27666920D01*
X4351333Y-27808714D01*
X4714738Y-27881000D01*
X5085262Y-27881000D01*
X5448667Y-27808714D01*
X5790987Y-27666920D01*
X6099067Y-27461068D01*
X6361068Y-27199067D01*
X6566920Y-26890987D01*
X6708714Y-26548667D01*
X6781000Y-26185262D01*
X6781000Y-25814738D01*
X6708714Y-25451333D01*
X6566920Y-25109013D01*
X6361068Y-24800933D01*
X6099067Y-24538932D01*
X5790987Y-24333080D01*
X5448667Y-24191286D01*
X5085262Y-24119000D01*
X4714738Y-24119000D01*
X4351333Y-24191286D01*
X4009013Y-24333080D01*
X3700933Y-24538932D01*
X3438932Y-24800933D01*
X3233080Y-25109013D01*
X3091286Y-25451333D01*
X3019000Y-25814738D01*
X406000Y-25814738D01*
X406000Y-17587844D01*
X546523Y-17703167D01*
X734318Y-17803546D01*
X938087Y-17865358D01*
X1150000Y-17886230D01*
X1361912Y-17865358D01*
X1565681Y-17803546D01*
X1753477Y-17703167D01*
X1918081Y-17568081D01*
X2053167Y-17403477D01*
X2153546Y-17215682D01*
X2215358Y-17011913D01*
X2231000Y-16853100D01*
X2231000Y-15146900D01*
X2569000Y-15146900D01*
X2569000Y-16853099D01*
X2584642Y-17011912D01*
X2646454Y-17215681D01*
X2746833Y-17403477D01*
X2881919Y-17568081D01*
X3046523Y-17703167D01*
X3234318Y-17803546D01*
X3438087Y-17865358D01*
X3650000Y-17886230D01*
X3861912Y-17865358D01*
X4065681Y-17803546D01*
X4253477Y-17703167D01*
X4418081Y-17568081D01*
X4553167Y-17403477D01*
X4653546Y-17215682D01*
X4715358Y-17011913D01*
X4731000Y-16853100D01*
X4731000Y-15146900D01*
X4715358Y-14988087D01*
X4653546Y-14784318D01*
X4553167Y-14596523D01*
X4418081Y-14431919D01*
X4253477Y-14296833D01*
X4146921Y-14239877D01*
X4273000Y-14265000D01*
X4773000Y-14265000D01*
X4773000Y-13107000D01*
X3280933Y-13107000D01*
X3156901Y-13305471D01*
X3164213Y-13354415D01*
X3261003Y-13588311D01*
X3401564Y-13798830D01*
X3580495Y-13977882D01*
X3790919Y-14118585D01*
X3819594Y-14130474D01*
X3650000Y-14113770D01*
X3438088Y-14134642D01*
X3234319Y-14196454D01*
X3046524Y-14296833D01*
X2881920Y-14431919D01*
X2746834Y-14596523D01*
X2646455Y-14784318D01*
X2584642Y-14988087D01*
X2569000Y-15146900D01*
X2231000Y-15146900D01*
X2215358Y-14988087D01*
X2153546Y-14784318D01*
X2053167Y-14596523D01*
X1918081Y-14431919D01*
X1753477Y-14296833D01*
X1565682Y-14196454D01*
X1361913Y-14134642D01*
X1150000Y-14113770D01*
X938088Y-14134642D01*
X734319Y-14196454D01*
X546524Y-14296833D01*
X406000Y-14412157D01*
X406000Y-12654529D01*
X3156901Y-12654529D01*
X3280933Y-12853000D01*
X4773000Y-12853000D01*
X4773000Y-11695000D01*
X5027000Y-11695000D01*
X5027000Y-12853000D01*
X6519067Y-12853000D01*
X6643099Y-12654529D01*
X6635787Y-12605585D01*
X6538997Y-12371689D01*
X6398436Y-12161170D01*
X6219505Y-11982118D01*
X6009081Y-11841415D01*
X5775251Y-11744467D01*
X5527000Y-11695000D01*
X5027000Y-11695000D01*
X4773000Y-11695000D01*
X4273000Y-11695000D01*
X4024749Y-11744467D01*
X3790919Y-11841415D01*
X3580495Y-11982118D01*
X3401564Y-12161170D01*
X3261003Y-12371689D01*
X3164213Y-12605585D01*
X3156901Y-12654529D01*
X406000Y-12654529D01*
X406000Y-9880000D01*
X3364012Y-9880000D01*
X3383918Y-10082111D01*
X3442872Y-10276455D01*
X3538607Y-10455564D01*
X3667446Y-10612554D01*
X3824436Y-10741393D01*
X4003545Y-10837128D01*
X4197889Y-10896082D01*
X4349355Y-10911000D01*
X5450645Y-10911000D01*
X5602111Y-10896082D01*
X5796455Y-10837128D01*
X5975564Y-10741393D01*
X6132554Y-10612554D01*
X6261393Y-10455564D01*
X6357128Y-10276455D01*
X6416082Y-10082111D01*
X6435988Y-9880000D01*
X6416082Y-9677889D01*
X6357128Y-9483545D01*
X6261393Y-9304436D01*
X6132554Y-9147446D01*
X5975564Y-9018607D01*
X5796455Y-8922872D01*
X5602111Y-8863918D01*
X5450645Y-8849000D01*
X4349355Y-8849000D01*
X4197889Y-8863918D01*
X4003545Y-8922872D01*
X3824436Y-9018607D01*
X3667446Y-9147446D01*
X3538607Y-9304436D01*
X3442872Y-9483545D01*
X3383918Y-9677889D01*
X3364012Y-9880000D01*
X406000Y-9880000D01*
X406000Y-6290115D01*
X2769000Y-6290115D01*
X2769000Y-6709885D01*
X2850893Y-7121590D01*
X3011532Y-7509407D01*
X3244744Y-7858433D01*
X3541567Y-8155256D01*
X3890593Y-8388468D01*
X4278410Y-8549107D01*
X4690115Y-8631000D01*
X5109885Y-8631000D01*
X5521590Y-8549107D01*
X5909407Y-8388468D01*
X6258433Y-8155256D01*
X6555256Y-7858433D01*
X6788468Y-7509407D01*
X6949107Y-7121590D01*
X7031000Y-6709885D01*
X7031000Y-6290115D01*
X6949107Y-5878410D01*
X6788468Y-5490593D01*
X6555256Y-5141567D01*
X6258433Y-4844744D01*
X5909407Y-4611532D01*
X5521590Y-4450893D01*
X5109885Y-4369000D01*
X4690115Y-4369000D01*
X4278410Y-4450893D01*
X3890593Y-4611532D01*
X3541567Y-4844744D01*
X3244744Y-5141567D01*
X3011532Y-5490593D01*
X2850893Y-5878410D01*
X2769000Y-6290115D01*
X406000Y-6290115D01*
X406000Y-406000D01*
X9194000Y-406000D01*
X9194000Y-14265042D01*
G37*
G04 #@! TD.AperFunction*
M02*
