G04 #@! TF.GenerationSoftware,KiCad,Pcbnew,(5.1.9)-1*
G04 #@! TF.CreationDate,2021-09-01T12:59:26+02:00*
G04 #@! TF.ProjectId,Buffered Multiple Front,42756666-6572-4656-9420-4d756c746970,rev?*
G04 #@! TF.SameCoordinates,Original*
G04 #@! TF.FileFunction,Legend,Top*
G04 #@! TF.FilePolarity,Positive*
%FSLAX46Y46*%
G04 Gerber Fmt 4.6, Leading zero omitted, Abs format (unit mm)*
G04 Created by KiCad (PCBNEW (5.1.9)-1) date 2021-09-01 12:59:26*
%MOMM*%
%LPD*%
G01*
G04 APERTURE LIST*
G04 #@! TA.AperFunction,Profile*
%ADD10C,0.050000*%
G04 #@! TD*
%ADD11C,0.010000*%
G04 APERTURE END LIST*
D10*
X0Y-128500000D02*
X0Y0D01*
X9800000Y-128500000D02*
X0Y-128500000D01*
X9800000Y0D02*
X9800000Y-128500000D01*
X0Y0D02*
X9800000Y0D01*
D11*
G04 #@! TO.C,G\u002A\u002A\u002A*
G36*
X440889Y-125774444D02*
G01*
X-10666Y-125774444D01*
X-10666Y-125238222D01*
X440889Y-125238222D01*
X440889Y-125774444D01*
G37*
X440889Y-125774444D02*
X-10666Y-125774444D01*
X-10666Y-125238222D01*
X440889Y-125238222D01*
X440889Y-125774444D01*
G36*
X9810667Y-125774444D02*
G01*
X7114559Y-125774444D01*
X6653110Y-125774331D01*
X6245057Y-125773963D01*
X5887353Y-125773298D01*
X5576949Y-125772294D01*
X5310798Y-125770907D01*
X5085852Y-125769096D01*
X4899063Y-125766818D01*
X4747384Y-125764031D01*
X4627765Y-125760692D01*
X4537160Y-125756758D01*
X4472522Y-125752187D01*
X4430801Y-125746937D01*
X4408950Y-125740966D01*
X4403956Y-125736672D01*
X4398082Y-125691831D01*
X4395628Y-125607227D01*
X4396987Y-125499456D01*
X4397786Y-125475616D01*
X4406111Y-125252333D01*
X7108389Y-125245136D01*
X9810667Y-125237938D01*
X9810667Y-125774444D01*
G37*
X9810667Y-125774444D02*
X7114559Y-125774444D01*
X6653110Y-125774331D01*
X6245057Y-125773963D01*
X5887353Y-125773298D01*
X5576949Y-125772294D01*
X5310798Y-125770907D01*
X5085852Y-125769096D01*
X4899063Y-125766818D01*
X4747384Y-125764031D01*
X4627765Y-125760692D01*
X4537160Y-125756758D01*
X4472522Y-125752187D01*
X4430801Y-125746937D01*
X4408950Y-125740966D01*
X4403956Y-125736672D01*
X4398082Y-125691831D01*
X4395628Y-125607227D01*
X4396987Y-125499456D01*
X4397786Y-125475616D01*
X4406111Y-125252333D01*
X7108389Y-125245136D01*
X9810667Y-125237938D01*
X9810667Y-125774444D01*
G36*
X5774889Y-104128000D02*
G01*
X5930111Y-104128000D01*
X6015139Y-104130271D01*
X6071520Y-104136130D01*
X6085334Y-104141808D01*
X6071865Y-104169927D01*
X6034974Y-104237257D01*
X5979931Y-104334400D01*
X5912008Y-104451962D01*
X5894834Y-104481389D01*
X5814677Y-104619012D01*
X5736305Y-104754533D01*
X5668584Y-104872561D01*
X5620381Y-104957706D01*
X5619501Y-104959283D01*
X5563420Y-105057869D01*
X5526413Y-105112824D01*
X5500589Y-105130105D01*
X5478057Y-105115667D01*
X5455625Y-105082948D01*
X5407079Y-105003542D01*
X5343817Y-104896685D01*
X5271080Y-104771616D01*
X5194105Y-104637574D01*
X5118134Y-104503798D01*
X5048406Y-104379525D01*
X4990159Y-104273996D01*
X4948633Y-104196449D01*
X4929068Y-104156122D01*
X4928222Y-104152970D01*
X4953744Y-104139294D01*
X5019578Y-104130224D01*
X5083445Y-104128000D01*
X5238667Y-104128000D01*
X5238667Y-100826000D01*
X5774889Y-100826000D01*
X5774889Y-104128000D01*
G37*
X5774889Y-104128000D02*
X5930111Y-104128000D01*
X6015139Y-104130271D01*
X6071520Y-104136130D01*
X6085334Y-104141808D01*
X6071865Y-104169927D01*
X6034974Y-104237257D01*
X5979931Y-104334400D01*
X5912008Y-104451962D01*
X5894834Y-104481389D01*
X5814677Y-104619012D01*
X5736305Y-104754533D01*
X5668584Y-104872561D01*
X5620381Y-104957706D01*
X5619501Y-104959283D01*
X5563420Y-105057869D01*
X5526413Y-105112824D01*
X5500589Y-105130105D01*
X5478057Y-105115667D01*
X5455625Y-105082948D01*
X5407079Y-105003542D01*
X5343817Y-104896685D01*
X5271080Y-104771616D01*
X5194105Y-104637574D01*
X5118134Y-104503798D01*
X5048406Y-104379525D01*
X4990159Y-104273996D01*
X4948633Y-104196449D01*
X4929068Y-104156122D01*
X4928222Y-104152970D01*
X4953744Y-104139294D01*
X5019578Y-104130224D01*
X5083445Y-104128000D01*
X5238667Y-104128000D01*
X5238667Y-100826000D01*
X5774889Y-100826000D01*
X5774889Y-104128000D01*
G36*
X5499722Y-88131996D02*
G01*
X5760778Y-88140111D01*
X5768061Y-89784055D01*
X5775344Y-91428000D01*
X5930339Y-91428000D01*
X6015185Y-91431483D01*
X6071286Y-91440468D01*
X6084870Y-91449166D01*
X6070953Y-91482363D01*
X6033243Y-91554030D01*
X5977079Y-91655092D01*
X5907801Y-91776470D01*
X5830748Y-91909088D01*
X5751262Y-92043866D01*
X5674681Y-92171729D01*
X5606346Y-92283598D01*
X5551596Y-92370397D01*
X5515772Y-92423046D01*
X5505143Y-92434664D01*
X5483558Y-92413970D01*
X5439037Y-92351361D01*
X5376275Y-92254140D01*
X5299969Y-92129611D01*
X5214813Y-91985077D01*
X5203389Y-91965288D01*
X5118402Y-91816267D01*
X5044076Y-91683143D01*
X4984742Y-91573911D01*
X4944735Y-91496563D01*
X4928390Y-91459093D01*
X4928222Y-91457761D01*
X4954165Y-91440596D01*
X5023176Y-91430075D01*
X5083445Y-91428000D01*
X5238667Y-91428000D01*
X5238667Y-88123881D01*
X5499722Y-88131996D01*
G37*
X5499722Y-88131996D02*
X5760778Y-88140111D01*
X5768061Y-89784055D01*
X5775344Y-91428000D01*
X5930339Y-91428000D01*
X6015185Y-91431483D01*
X6071286Y-91440468D01*
X6084870Y-91449166D01*
X6070953Y-91482363D01*
X6033243Y-91554030D01*
X5977079Y-91655092D01*
X5907801Y-91776470D01*
X5830748Y-91909088D01*
X5751262Y-92043866D01*
X5674681Y-92171729D01*
X5606346Y-92283598D01*
X5551596Y-92370397D01*
X5515772Y-92423046D01*
X5505143Y-92434664D01*
X5483558Y-92413970D01*
X5439037Y-92351361D01*
X5376275Y-92254140D01*
X5299969Y-92129611D01*
X5214813Y-91985077D01*
X5203389Y-91965288D01*
X5118402Y-91816267D01*
X5044076Y-91683143D01*
X4984742Y-91573911D01*
X4944735Y-91496563D01*
X4928390Y-91459093D01*
X4928222Y-91457761D01*
X4954165Y-91440596D01*
X5023176Y-91430075D01*
X5083445Y-91428000D01*
X5238667Y-91428000D01*
X5238667Y-88123881D01*
X5499722Y-88131996D01*
G36*
X5499722Y-75544885D02*
G01*
X5760778Y-75553000D01*
X5775344Y-78840888D01*
X5930339Y-78840888D01*
X6015200Y-78844372D01*
X6071331Y-78853358D01*
X6084939Y-78862055D01*
X6070997Y-78895301D01*
X6033152Y-78967014D01*
X5976761Y-79068123D01*
X5907181Y-79189561D01*
X5829770Y-79322259D01*
X5749884Y-79457148D01*
X5672880Y-79585160D01*
X5604116Y-79697227D01*
X5548949Y-79784279D01*
X5512735Y-79837249D01*
X5501844Y-79849126D01*
X5475319Y-79831149D01*
X5434328Y-79775186D01*
X5396455Y-79709418D01*
X5351430Y-79626968D01*
X5285822Y-79511349D01*
X5208306Y-79377665D01*
X5127556Y-79241016D01*
X5124559Y-79236000D01*
X5052711Y-79113407D01*
X4992712Y-79006514D01*
X4950040Y-78925416D01*
X4930170Y-78880212D01*
X4929404Y-78876166D01*
X4952988Y-78853259D01*
X5027629Y-78842192D01*
X5083445Y-78840888D01*
X5238667Y-78840888D01*
X5238667Y-75536770D01*
X5499722Y-75544885D01*
G37*
X5499722Y-75544885D02*
X5760778Y-75553000D01*
X5775344Y-78840888D01*
X5930339Y-78840888D01*
X6015200Y-78844372D01*
X6071331Y-78853358D01*
X6084939Y-78862055D01*
X6070997Y-78895301D01*
X6033152Y-78967014D01*
X5976761Y-79068123D01*
X5907181Y-79189561D01*
X5829770Y-79322259D01*
X5749884Y-79457148D01*
X5672880Y-79585160D01*
X5604116Y-79697227D01*
X5548949Y-79784279D01*
X5512735Y-79837249D01*
X5501844Y-79849126D01*
X5475319Y-79831149D01*
X5434328Y-79775186D01*
X5396455Y-79709418D01*
X5351430Y-79626968D01*
X5285822Y-79511349D01*
X5208306Y-79377665D01*
X5127556Y-79241016D01*
X5124559Y-79236000D01*
X5052711Y-79113407D01*
X4992712Y-79006514D01*
X4950040Y-78925416D01*
X4930170Y-78880212D01*
X4929404Y-78876166D01*
X4952988Y-78853259D01*
X5027629Y-78842192D01*
X5083445Y-78840888D01*
X5238667Y-78840888D01*
X5238667Y-75536770D01*
X5499722Y-75544885D01*
G36*
X6079162Y-67552727D02*
G01*
X6604824Y-67553278D01*
X7075698Y-67554279D01*
X7492613Y-67555736D01*
X7856397Y-67557657D01*
X8167877Y-67560048D01*
X8427882Y-67562918D01*
X8637238Y-67566271D01*
X8796774Y-67570117D01*
X8907317Y-67574460D01*
X8969696Y-67579310D01*
X8983330Y-67582017D01*
X9087674Y-67642762D01*
X9190021Y-67737885D01*
X9269909Y-67848333D01*
X9277004Y-67864584D01*
X9283374Y-67888347D01*
X9289064Y-67922645D01*
X9294123Y-67970501D01*
X9298599Y-68034938D01*
X9302539Y-68118980D01*
X9305991Y-68225651D01*
X9309003Y-68357973D01*
X9311622Y-68518970D01*
X9313896Y-68711666D01*
X9315873Y-68939083D01*
X9317601Y-69204244D01*
X9319127Y-69510175D01*
X9320499Y-69859896D01*
X9321765Y-70256433D01*
X9322972Y-70702808D01*
X9324168Y-71202045D01*
X9324392Y-71300466D01*
X9325484Y-71881469D01*
X9326004Y-72406853D01*
X9325947Y-72877441D01*
X9325305Y-73294056D01*
X9324076Y-73657520D01*
X9322253Y-73968657D01*
X9319830Y-74228290D01*
X9316803Y-74437240D01*
X9313167Y-74596331D01*
X9308916Y-74706385D01*
X9304044Y-74768226D01*
X9302038Y-74779225D01*
X9248380Y-74899052D01*
X9161052Y-75013725D01*
X9057007Y-75103292D01*
X9000625Y-75133870D01*
X8978293Y-75139721D01*
X8938964Y-75144963D01*
X8879868Y-75149625D01*
X8798238Y-75153735D01*
X8691304Y-75157323D01*
X8556296Y-75160419D01*
X8390447Y-75163050D01*
X8190988Y-75165248D01*
X7955148Y-75167039D01*
X7680160Y-75168455D01*
X7363254Y-75169523D01*
X7001661Y-75170273D01*
X6592613Y-75170735D01*
X6133341Y-75170937D01*
X5621075Y-75170909D01*
X5486518Y-75170870D01*
X4971406Y-75170645D01*
X4509765Y-75170303D01*
X4098617Y-75169806D01*
X3734989Y-75169114D01*
X3415905Y-75168188D01*
X3138390Y-75166990D01*
X2899469Y-75165481D01*
X2696168Y-75163621D01*
X2525510Y-75161372D01*
X2384522Y-75158695D01*
X2270228Y-75155551D01*
X2179653Y-75151901D01*
X2109821Y-75147707D01*
X2057759Y-75142928D01*
X2020490Y-75137527D01*
X1995041Y-75131465D01*
X1979000Y-75125004D01*
X1865096Y-75052747D01*
X1787238Y-74968857D01*
X1735745Y-74875666D01*
X1727965Y-74856747D01*
X1721002Y-74833679D01*
X1714810Y-74803395D01*
X1709343Y-74762829D01*
X1704556Y-74708916D01*
X1700402Y-74638589D01*
X1696836Y-74548783D01*
X1693813Y-74436431D01*
X1691285Y-74298468D01*
X1689207Y-74131827D01*
X1687534Y-73933443D01*
X1686219Y-73700250D01*
X1685217Y-73429181D01*
X1684482Y-73117171D01*
X1683968Y-72761153D01*
X1683629Y-72358062D01*
X1683419Y-71904832D01*
X1683292Y-71398396D01*
X1683287Y-71368149D01*
X1683255Y-70853552D01*
X1683384Y-70392417D01*
X1683708Y-69981761D01*
X1684265Y-69618603D01*
X1685091Y-69299960D01*
X1686222Y-69022850D01*
X1687696Y-68784290D01*
X1689548Y-68581297D01*
X1691815Y-68410891D01*
X1694533Y-68270087D01*
X1697739Y-68155905D01*
X1701470Y-68065361D01*
X1705762Y-67995474D01*
X1710650Y-67943260D01*
X1716173Y-67905738D01*
X1722366Y-67879925D01*
X1726077Y-67869626D01*
X1791093Y-67747886D01*
X1875896Y-67663184D01*
X1979000Y-67605078D01*
X1997889Y-67597310D01*
X2020925Y-67590356D01*
X2051167Y-67584172D01*
X2091676Y-67578710D01*
X2145514Y-67573926D01*
X2215740Y-67569774D01*
X2305415Y-67566208D01*
X2417599Y-67563182D01*
X2555353Y-67560652D01*
X2721738Y-67558571D01*
X2919814Y-67556894D01*
X3152641Y-67555575D01*
X3423281Y-67554569D01*
X3734793Y-67553830D01*
X4090239Y-67553311D01*
X4492678Y-67552969D01*
X4945171Y-67552756D01*
X5450779Y-67552628D01*
X5497885Y-67552619D01*
X6079162Y-67552727D01*
G37*
X6079162Y-67552727D02*
X6604824Y-67553278D01*
X7075698Y-67554279D01*
X7492613Y-67555736D01*
X7856397Y-67557657D01*
X8167877Y-67560048D01*
X8427882Y-67562918D01*
X8637238Y-67566271D01*
X8796774Y-67570117D01*
X8907317Y-67574460D01*
X8969696Y-67579310D01*
X8983330Y-67582017D01*
X9087674Y-67642762D01*
X9190021Y-67737885D01*
X9269909Y-67848333D01*
X9277004Y-67864584D01*
X9283374Y-67888347D01*
X9289064Y-67922645D01*
X9294123Y-67970501D01*
X9298599Y-68034938D01*
X9302539Y-68118980D01*
X9305991Y-68225651D01*
X9309003Y-68357973D01*
X9311622Y-68518970D01*
X9313896Y-68711666D01*
X9315873Y-68939083D01*
X9317601Y-69204244D01*
X9319127Y-69510175D01*
X9320499Y-69859896D01*
X9321765Y-70256433D01*
X9322972Y-70702808D01*
X9324168Y-71202045D01*
X9324392Y-71300466D01*
X9325484Y-71881469D01*
X9326004Y-72406853D01*
X9325947Y-72877441D01*
X9325305Y-73294056D01*
X9324076Y-73657520D01*
X9322253Y-73968657D01*
X9319830Y-74228290D01*
X9316803Y-74437240D01*
X9313167Y-74596331D01*
X9308916Y-74706385D01*
X9304044Y-74768226D01*
X9302038Y-74779225D01*
X9248380Y-74899052D01*
X9161052Y-75013725D01*
X9057007Y-75103292D01*
X9000625Y-75133870D01*
X8978293Y-75139721D01*
X8938964Y-75144963D01*
X8879868Y-75149625D01*
X8798238Y-75153735D01*
X8691304Y-75157323D01*
X8556296Y-75160419D01*
X8390447Y-75163050D01*
X8190988Y-75165248D01*
X7955148Y-75167039D01*
X7680160Y-75168455D01*
X7363254Y-75169523D01*
X7001661Y-75170273D01*
X6592613Y-75170735D01*
X6133341Y-75170937D01*
X5621075Y-75170909D01*
X5486518Y-75170870D01*
X4971406Y-75170645D01*
X4509765Y-75170303D01*
X4098617Y-75169806D01*
X3734989Y-75169114D01*
X3415905Y-75168188D01*
X3138390Y-75166990D01*
X2899469Y-75165481D01*
X2696168Y-75163621D01*
X2525510Y-75161372D01*
X2384522Y-75158695D01*
X2270228Y-75155551D01*
X2179653Y-75151901D01*
X2109821Y-75147707D01*
X2057759Y-75142928D01*
X2020490Y-75137527D01*
X1995041Y-75131465D01*
X1979000Y-75125004D01*
X1865096Y-75052747D01*
X1787238Y-74968857D01*
X1735745Y-74875666D01*
X1727965Y-74856747D01*
X1721002Y-74833679D01*
X1714810Y-74803395D01*
X1709343Y-74762829D01*
X1704556Y-74708916D01*
X1700402Y-74638589D01*
X1696836Y-74548783D01*
X1693813Y-74436431D01*
X1691285Y-74298468D01*
X1689207Y-74131827D01*
X1687534Y-73933443D01*
X1686219Y-73700250D01*
X1685217Y-73429181D01*
X1684482Y-73117171D01*
X1683968Y-72761153D01*
X1683629Y-72358062D01*
X1683419Y-71904832D01*
X1683292Y-71398396D01*
X1683287Y-71368149D01*
X1683255Y-70853552D01*
X1683384Y-70392417D01*
X1683708Y-69981761D01*
X1684265Y-69618603D01*
X1685091Y-69299960D01*
X1686222Y-69022850D01*
X1687696Y-68784290D01*
X1689548Y-68581297D01*
X1691815Y-68410891D01*
X1694533Y-68270087D01*
X1697739Y-68155905D01*
X1701470Y-68065361D01*
X1705762Y-67995474D01*
X1710650Y-67943260D01*
X1716173Y-67905738D01*
X1722366Y-67879925D01*
X1726077Y-67869626D01*
X1791093Y-67747886D01*
X1875896Y-67663184D01*
X1979000Y-67605078D01*
X1997889Y-67597310D01*
X2020925Y-67590356D01*
X2051167Y-67584172D01*
X2091676Y-67578710D01*
X2145514Y-67573926D01*
X2215740Y-67569774D01*
X2305415Y-67566208D01*
X2417599Y-67563182D01*
X2555353Y-67560652D01*
X2721738Y-67558571D01*
X2919814Y-67556894D01*
X3152641Y-67555575D01*
X3423281Y-67554569D01*
X3734793Y-67553830D01*
X4090239Y-67553311D01*
X4492678Y-67552969D01*
X4945171Y-67552756D01*
X5450779Y-67552628D01*
X5497885Y-67552619D01*
X6079162Y-67552727D01*
G36*
X4166222Y-66099715D02*
G01*
X4475008Y-66360191D01*
X4587296Y-66453351D01*
X4685349Y-66531774D01*
X4760696Y-66588908D01*
X4804870Y-66618198D01*
X4811620Y-66620666D01*
X4844527Y-66600567D01*
X4896612Y-66549520D01*
X4925813Y-66515889D01*
X4986206Y-66453623D01*
X5027893Y-66433692D01*
X5037471Y-66438278D01*
X5056668Y-66474676D01*
X5089232Y-66552409D01*
X5130308Y-66659387D01*
X5167403Y-66761777D01*
X5212309Y-66887581D01*
X5252616Y-66998029D01*
X5283312Y-67079530D01*
X5297491Y-67114555D01*
X5331196Y-67197634D01*
X5364939Y-67293706D01*
X5392343Y-67383016D01*
X5407028Y-67445812D01*
X5408000Y-67456770D01*
X5403016Y-67474977D01*
X5383728Y-67486057D01*
X5343634Y-67489451D01*
X5276230Y-67484598D01*
X5175014Y-67470938D01*
X5033484Y-67447910D01*
X4845136Y-67414955D01*
X4773000Y-67402057D01*
X4615698Y-67373493D01*
X4478758Y-67347967D01*
X4371414Y-67327253D01*
X4302897Y-67313125D01*
X4282180Y-67307714D01*
X4292471Y-67283490D01*
X4330465Y-67229227D01*
X4374448Y-67173356D01*
X4477759Y-67047278D01*
X4053880Y-66691680D01*
X3630000Y-66336081D01*
X3630000Y-64786222D01*
X4166222Y-64786222D01*
X4166222Y-66099715D01*
G37*
X4166222Y-66099715D02*
X4475008Y-66360191D01*
X4587296Y-66453351D01*
X4685349Y-66531774D01*
X4760696Y-66588908D01*
X4804870Y-66618198D01*
X4811620Y-66620666D01*
X4844527Y-66600567D01*
X4896612Y-66549520D01*
X4925813Y-66515889D01*
X4986206Y-66453623D01*
X5027893Y-66433692D01*
X5037471Y-66438278D01*
X5056668Y-66474676D01*
X5089232Y-66552409D01*
X5130308Y-66659387D01*
X5167403Y-66761777D01*
X5212309Y-66887581D01*
X5252616Y-66998029D01*
X5283312Y-67079530D01*
X5297491Y-67114555D01*
X5331196Y-67197634D01*
X5364939Y-67293706D01*
X5392343Y-67383016D01*
X5407028Y-67445812D01*
X5408000Y-67456770D01*
X5403016Y-67474977D01*
X5383728Y-67486057D01*
X5343634Y-67489451D01*
X5276230Y-67484598D01*
X5175014Y-67470938D01*
X5033484Y-67447910D01*
X4845136Y-67414955D01*
X4773000Y-67402057D01*
X4615698Y-67373493D01*
X4478758Y-67347967D01*
X4371414Y-67327253D01*
X4302897Y-67313125D01*
X4282180Y-67307714D01*
X4292471Y-67283490D01*
X4330465Y-67229227D01*
X4374448Y-67173356D01*
X4477759Y-67047278D01*
X4053880Y-66691680D01*
X3630000Y-66336081D01*
X3630000Y-64786222D01*
X4166222Y-64786222D01*
X4166222Y-66099715D01*
G36*
X1090000Y-64504000D02*
G01*
X-10666Y-64504000D01*
X-10666Y-63996000D01*
X1090000Y-63996000D01*
X1090000Y-64504000D01*
G37*
X1090000Y-64504000D02*
X-10666Y-64504000D01*
X-10666Y-63996000D01*
X1090000Y-63996000D01*
X1090000Y-64504000D01*
G36*
X3291334Y-64504000D02*
G01*
X2162445Y-64504000D01*
X2162445Y-63996000D01*
X3291334Y-63996000D01*
X3291334Y-64504000D01*
G37*
X3291334Y-64504000D02*
X2162445Y-64504000D01*
X2162445Y-63996000D01*
X3291334Y-63996000D01*
X3291334Y-64504000D01*
G36*
X5464445Y-64504000D02*
G01*
X4335556Y-64504000D01*
X4335556Y-63996000D01*
X5464445Y-63996000D01*
X5464445Y-64504000D01*
G37*
X5464445Y-64504000D02*
X4335556Y-64504000D01*
X4335556Y-63996000D01*
X5464445Y-63996000D01*
X5464445Y-64504000D01*
G36*
X7637556Y-64504000D02*
G01*
X6508667Y-64504000D01*
X6508667Y-63996000D01*
X7637556Y-63996000D01*
X7637556Y-64504000D01*
G37*
X7637556Y-64504000D02*
X6508667Y-64504000D01*
X6508667Y-63996000D01*
X7637556Y-63996000D01*
X7637556Y-64504000D01*
G36*
X9810667Y-64504000D02*
G01*
X8710000Y-64504000D01*
X8710000Y-63996000D01*
X9810667Y-63996000D01*
X9810667Y-64504000D01*
G37*
X9810667Y-64504000D02*
X8710000Y-64504000D01*
X8710000Y-63996000D01*
X9810667Y-63996000D01*
X9810667Y-64504000D01*
G36*
X5774889Y-52678888D02*
G01*
X5930111Y-52678888D01*
X6014933Y-52682365D01*
X6070930Y-52691334D01*
X6084428Y-52700055D01*
X6070312Y-52732986D01*
X6032435Y-52804388D01*
X5976130Y-52905205D01*
X5906733Y-53026385D01*
X5829580Y-53158872D01*
X5750006Y-53293613D01*
X5673345Y-53421554D01*
X5604932Y-53533640D01*
X5550103Y-53620817D01*
X5514193Y-53674031D01*
X5503360Y-53686181D01*
X5482307Y-53665325D01*
X5438422Y-53602600D01*
X5376414Y-53505403D01*
X5300992Y-53381134D01*
X5216866Y-53237191D01*
X5210445Y-53225996D01*
X5126088Y-53077552D01*
X5051648Y-52944296D01*
X4991677Y-52834559D01*
X4950726Y-52756673D01*
X4933345Y-52718973D01*
X4933209Y-52718436D01*
X4941533Y-52694882D01*
X4986695Y-52682547D01*
X5078208Y-52678891D01*
X5081375Y-52678888D01*
X5238667Y-52678888D01*
X5238667Y-49376888D01*
X5774889Y-49376888D01*
X5774889Y-52678888D01*
G37*
X5774889Y-52678888D02*
X5930111Y-52678888D01*
X6014933Y-52682365D01*
X6070930Y-52691334D01*
X6084428Y-52700055D01*
X6070312Y-52732986D01*
X6032435Y-52804388D01*
X5976130Y-52905205D01*
X5906733Y-53026385D01*
X5829580Y-53158872D01*
X5750006Y-53293613D01*
X5673345Y-53421554D01*
X5604932Y-53533640D01*
X5550103Y-53620817D01*
X5514193Y-53674031D01*
X5503360Y-53686181D01*
X5482307Y-53665325D01*
X5438422Y-53602600D01*
X5376414Y-53505403D01*
X5300992Y-53381134D01*
X5216866Y-53237191D01*
X5210445Y-53225996D01*
X5126088Y-53077552D01*
X5051648Y-52944296D01*
X4991677Y-52834559D01*
X4950726Y-52756673D01*
X4933345Y-52718973D01*
X4933209Y-52718436D01*
X4941533Y-52694882D01*
X4986695Y-52682547D01*
X5078208Y-52678891D01*
X5081375Y-52678888D01*
X5238667Y-52678888D01*
X5238667Y-49376888D01*
X5774889Y-49376888D01*
X5774889Y-52678888D01*
G36*
X5774889Y-39978888D02*
G01*
X5930111Y-39978888D01*
X6015134Y-39981835D01*
X6071515Y-39989436D01*
X6085334Y-39996805D01*
X6072027Y-40026101D01*
X6036322Y-40092948D01*
X5984542Y-40186306D01*
X5923010Y-40295135D01*
X5858049Y-40408395D01*
X5795982Y-40515045D01*
X5743131Y-40604046D01*
X5705819Y-40664358D01*
X5691506Y-40684444D01*
X5670652Y-40715317D01*
X5633049Y-40780107D01*
X5600817Y-40838894D01*
X5555735Y-40916909D01*
X5518433Y-40970926D01*
X5502040Y-40986412D01*
X5481439Y-40965332D01*
X5438006Y-40902368D01*
X5376411Y-40804925D01*
X5301324Y-40680409D01*
X5217416Y-40536226D01*
X5210445Y-40524032D01*
X5126214Y-40375417D01*
X5051863Y-40242148D01*
X4991920Y-40132514D01*
X4950915Y-40054805D01*
X4933378Y-40017309D01*
X4933209Y-40016681D01*
X4943373Y-39993885D01*
X4993464Y-39982011D01*
X5081375Y-39978888D01*
X5238667Y-39978888D01*
X5238667Y-36676888D01*
X5774889Y-36676888D01*
X5774889Y-39978888D01*
G37*
X5774889Y-39978888D02*
X5930111Y-39978888D01*
X6015134Y-39981835D01*
X6071515Y-39989436D01*
X6085334Y-39996805D01*
X6072027Y-40026101D01*
X6036322Y-40092948D01*
X5984542Y-40186306D01*
X5923010Y-40295135D01*
X5858049Y-40408395D01*
X5795982Y-40515045D01*
X5743131Y-40604046D01*
X5705819Y-40664358D01*
X5691506Y-40684444D01*
X5670652Y-40715317D01*
X5633049Y-40780107D01*
X5600817Y-40838894D01*
X5555735Y-40916909D01*
X5518433Y-40970926D01*
X5502040Y-40986412D01*
X5481439Y-40965332D01*
X5438006Y-40902368D01*
X5376411Y-40804925D01*
X5301324Y-40680409D01*
X5217416Y-40536226D01*
X5210445Y-40524032D01*
X5126214Y-40375417D01*
X5051863Y-40242148D01*
X4991920Y-40132514D01*
X4950915Y-40054805D01*
X4933378Y-40017309D01*
X4933209Y-40016681D01*
X4943373Y-39993885D01*
X4993464Y-39982011D01*
X5081375Y-39978888D01*
X5238667Y-39978888D01*
X5238667Y-36676888D01*
X5774889Y-36676888D01*
X5774889Y-39978888D01*
G36*
X5774889Y-27278888D02*
G01*
X5930111Y-27278888D01*
X6015138Y-27281368D01*
X6071518Y-27287766D01*
X6085334Y-27293966D01*
X6072099Y-27322816D01*
X6036578Y-27389340D01*
X5985046Y-27482525D01*
X5923779Y-27591360D01*
X5859050Y-27704832D01*
X5797136Y-27811931D01*
X5744310Y-27901645D01*
X5706849Y-27962961D01*
X5691868Y-27984444D01*
X5670812Y-28015323D01*
X5633071Y-28080125D01*
X5600817Y-28138894D01*
X5555743Y-28216850D01*
X5518444Y-28270747D01*
X5502040Y-28286130D01*
X5481434Y-28264962D01*
X5437990Y-28201921D01*
X5376380Y-28104417D01*
X5301276Y-27979862D01*
X5217351Y-27835668D01*
X5210445Y-27823591D01*
X5126208Y-27675013D01*
X5051853Y-27541792D01*
X4991909Y-27432216D01*
X4950906Y-27354570D01*
X4933377Y-27317143D01*
X4933209Y-27316522D01*
X4943561Y-27293792D01*
X4994153Y-27281960D01*
X5081375Y-27278888D01*
X5238667Y-27278888D01*
X5238667Y-23976888D01*
X5774889Y-23976888D01*
X5774889Y-27278888D01*
G37*
X5774889Y-27278888D02*
X5930111Y-27278888D01*
X6015138Y-27281368D01*
X6071518Y-27287766D01*
X6085334Y-27293966D01*
X6072099Y-27322816D01*
X6036578Y-27389340D01*
X5985046Y-27482525D01*
X5923779Y-27591360D01*
X5859050Y-27704832D01*
X5797136Y-27811931D01*
X5744310Y-27901645D01*
X5706849Y-27962961D01*
X5691868Y-27984444D01*
X5670812Y-28015323D01*
X5633071Y-28080125D01*
X5600817Y-28138894D01*
X5555743Y-28216850D01*
X5518444Y-28270747D01*
X5502040Y-28286130D01*
X5481434Y-28264962D01*
X5437990Y-28201921D01*
X5376380Y-28104417D01*
X5301276Y-27979862D01*
X5217351Y-27835668D01*
X5210445Y-27823591D01*
X5126208Y-27675013D01*
X5051853Y-27541792D01*
X4991909Y-27432216D01*
X4950906Y-27354570D01*
X4933377Y-27317143D01*
X4933209Y-27316522D01*
X4943561Y-27293792D01*
X4994153Y-27281960D01*
X5081375Y-27278888D01*
X5238667Y-27278888D01*
X5238667Y-23976888D01*
X5774889Y-23976888D01*
X5774889Y-27278888D01*
G36*
X6521990Y-15680251D02*
G01*
X6955140Y-15680537D01*
X7340409Y-15681031D01*
X7680651Y-15681765D01*
X7978721Y-15682771D01*
X8237472Y-15684082D01*
X8459760Y-15685730D01*
X8648439Y-15687747D01*
X8806363Y-15690165D01*
X8936386Y-15693017D01*
X9041363Y-15696334D01*
X9124149Y-15700149D01*
X9187597Y-15704493D01*
X9234562Y-15709400D01*
X9267898Y-15714901D01*
X9290460Y-15721029D01*
X9295485Y-15722965D01*
X9418238Y-15789193D01*
X9505836Y-15877805D01*
X9559670Y-15967709D01*
X9567345Y-15984240D01*
X9574248Y-16004141D01*
X9580421Y-16030329D01*
X9585903Y-16065722D01*
X9590737Y-16113240D01*
X9594963Y-16175799D01*
X9598621Y-16256319D01*
X9601752Y-16357718D01*
X9604398Y-16482913D01*
X9606599Y-16634824D01*
X9608395Y-16816368D01*
X9609828Y-17030463D01*
X9610938Y-17280029D01*
X9611767Y-17567982D01*
X9612355Y-17897242D01*
X9612742Y-18270726D01*
X9612970Y-18691354D01*
X9613079Y-19162042D01*
X9613111Y-19685710D01*
X9613111Y-19789965D01*
X9613104Y-20323261D01*
X9613051Y-20803047D01*
X9612907Y-21232253D01*
X9612628Y-21613813D01*
X9612167Y-21950660D01*
X9611481Y-22245726D01*
X9610523Y-22501944D01*
X9609249Y-22722247D01*
X9607613Y-22909569D01*
X9605570Y-23066840D01*
X9603075Y-23196995D01*
X9600083Y-23302966D01*
X9596549Y-23387686D01*
X9592427Y-23454088D01*
X9587672Y-23505104D01*
X9582239Y-23543667D01*
X9576083Y-23572711D01*
X9569159Y-23595167D01*
X9561421Y-23613968D01*
X9553956Y-23629710D01*
X9472312Y-23746472D01*
X9363456Y-23829121D01*
X9232111Y-23906333D01*
X5549111Y-23910708D01*
X5096318Y-23911089D01*
X4658238Y-23911152D01*
X4238281Y-23910912D01*
X3839855Y-23910383D01*
X3466372Y-23909579D01*
X3121241Y-23908517D01*
X2807870Y-23907210D01*
X2529671Y-23905672D01*
X2290052Y-23903920D01*
X2092423Y-23901967D01*
X1940194Y-23899829D01*
X1836775Y-23897519D01*
X1785575Y-23895053D01*
X1781445Y-23894442D01*
X1624996Y-23829349D01*
X1501140Y-23722008D01*
X1417693Y-23579888D01*
X1401687Y-23531512D01*
X1397417Y-23488022D01*
X1393472Y-23392219D01*
X1389851Y-23248233D01*
X1386555Y-23060195D01*
X1383582Y-22832236D01*
X1380934Y-22568484D01*
X1378611Y-22273072D01*
X1376611Y-21950129D01*
X1374936Y-21603785D01*
X1373586Y-21238172D01*
X1372559Y-20857420D01*
X1371857Y-20465658D01*
X1371479Y-20067018D01*
X1371425Y-19665629D01*
X1371696Y-19265623D01*
X1372291Y-18871129D01*
X1373210Y-18486278D01*
X1374454Y-18115201D01*
X1376022Y-17762028D01*
X1377914Y-17430888D01*
X1380130Y-17125914D01*
X1382671Y-16851234D01*
X1385536Y-16610980D01*
X1388725Y-16409282D01*
X1392239Y-16250270D01*
X1396077Y-16138075D01*
X1400239Y-16076826D01*
X1401687Y-16068487D01*
X1468320Y-15927010D01*
X1577474Y-15807027D01*
X1695610Y-15732603D01*
X1713978Y-15725131D01*
X1736421Y-15718411D01*
X1765871Y-15712404D01*
X1805263Y-15707068D01*
X1857529Y-15702363D01*
X1925604Y-15698250D01*
X2012421Y-15694687D01*
X2120913Y-15691634D01*
X2254014Y-15689051D01*
X2414657Y-15686897D01*
X2605776Y-15685132D01*
X2830304Y-15683716D01*
X3091175Y-15682607D01*
X3391322Y-15681766D01*
X3733679Y-15681153D01*
X4121179Y-15680726D01*
X4556756Y-15680445D01*
X5043343Y-15680271D01*
X5500629Y-15680175D01*
X6038104Y-15680141D01*
X6521990Y-15680251D01*
G37*
X6521990Y-15680251D02*
X6955140Y-15680537D01*
X7340409Y-15681031D01*
X7680651Y-15681765D01*
X7978721Y-15682771D01*
X8237472Y-15684082D01*
X8459760Y-15685730D01*
X8648439Y-15687747D01*
X8806363Y-15690165D01*
X8936386Y-15693017D01*
X9041363Y-15696334D01*
X9124149Y-15700149D01*
X9187597Y-15704493D01*
X9234562Y-15709400D01*
X9267898Y-15714901D01*
X9290460Y-15721029D01*
X9295485Y-15722965D01*
X9418238Y-15789193D01*
X9505836Y-15877805D01*
X9559670Y-15967709D01*
X9567345Y-15984240D01*
X9574248Y-16004141D01*
X9580421Y-16030329D01*
X9585903Y-16065722D01*
X9590737Y-16113240D01*
X9594963Y-16175799D01*
X9598621Y-16256319D01*
X9601752Y-16357718D01*
X9604398Y-16482913D01*
X9606599Y-16634824D01*
X9608395Y-16816368D01*
X9609828Y-17030463D01*
X9610938Y-17280029D01*
X9611767Y-17567982D01*
X9612355Y-17897242D01*
X9612742Y-18270726D01*
X9612970Y-18691354D01*
X9613079Y-19162042D01*
X9613111Y-19685710D01*
X9613111Y-19789965D01*
X9613104Y-20323261D01*
X9613051Y-20803047D01*
X9612907Y-21232253D01*
X9612628Y-21613813D01*
X9612167Y-21950660D01*
X9611481Y-22245726D01*
X9610523Y-22501944D01*
X9609249Y-22722247D01*
X9607613Y-22909569D01*
X9605570Y-23066840D01*
X9603075Y-23196995D01*
X9600083Y-23302966D01*
X9596549Y-23387686D01*
X9592427Y-23454088D01*
X9587672Y-23505104D01*
X9582239Y-23543667D01*
X9576083Y-23572711D01*
X9569159Y-23595167D01*
X9561421Y-23613968D01*
X9553956Y-23629710D01*
X9472312Y-23746472D01*
X9363456Y-23829121D01*
X9232111Y-23906333D01*
X5549111Y-23910708D01*
X5096318Y-23911089D01*
X4658238Y-23911152D01*
X4238281Y-23910912D01*
X3839855Y-23910383D01*
X3466372Y-23909579D01*
X3121241Y-23908517D01*
X2807870Y-23907210D01*
X2529671Y-23905672D01*
X2290052Y-23903920D01*
X2092423Y-23901967D01*
X1940194Y-23899829D01*
X1836775Y-23897519D01*
X1785575Y-23895053D01*
X1781445Y-23894442D01*
X1624996Y-23829349D01*
X1501140Y-23722008D01*
X1417693Y-23579888D01*
X1401687Y-23531512D01*
X1397417Y-23488022D01*
X1393472Y-23392219D01*
X1389851Y-23248233D01*
X1386555Y-23060195D01*
X1383582Y-22832236D01*
X1380934Y-22568484D01*
X1378611Y-22273072D01*
X1376611Y-21950129D01*
X1374936Y-21603785D01*
X1373586Y-21238172D01*
X1372559Y-20857420D01*
X1371857Y-20465658D01*
X1371479Y-20067018D01*
X1371425Y-19665629D01*
X1371696Y-19265623D01*
X1372291Y-18871129D01*
X1373210Y-18486278D01*
X1374454Y-18115201D01*
X1376022Y-17762028D01*
X1377914Y-17430888D01*
X1380130Y-17125914D01*
X1382671Y-16851234D01*
X1385536Y-16610980D01*
X1388725Y-16409282D01*
X1392239Y-16250270D01*
X1396077Y-16138075D01*
X1400239Y-16076826D01*
X1401687Y-16068487D01*
X1468320Y-15927010D01*
X1577474Y-15807027D01*
X1695610Y-15732603D01*
X1713978Y-15725131D01*
X1736421Y-15718411D01*
X1765871Y-15712404D01*
X1805263Y-15707068D01*
X1857529Y-15702363D01*
X1925604Y-15698250D01*
X2012421Y-15694687D01*
X2120913Y-15691634D01*
X2254014Y-15689051D01*
X2414657Y-15686897D01*
X2605776Y-15685132D01*
X2830304Y-15683716D01*
X3091175Y-15682607D01*
X3391322Y-15681766D01*
X3733679Y-15681153D01*
X4121179Y-15680726D01*
X4556756Y-15680445D01*
X5043343Y-15680271D01*
X5500629Y-15680175D01*
X6038104Y-15680141D01*
X6521990Y-15680251D01*
G36*
X7174667Y-5134193D02*
G01*
X7245031Y-5183395D01*
X7289369Y-5271786D01*
X7298889Y-5351492D01*
X7292032Y-5418011D01*
X7273116Y-5526673D01*
X7244620Y-5665082D01*
X7209025Y-5820842D01*
X7186951Y-5910885D01*
X7107483Y-6251195D01*
X7050511Y-6555945D01*
X7014222Y-6840516D01*
X6996807Y-7120292D01*
X6996455Y-7410655D01*
X6999469Y-7503730D01*
X7005713Y-7689269D01*
X7006589Y-7827161D01*
X7000303Y-7926091D01*
X6985065Y-7994746D01*
X6959082Y-8041808D01*
X6920563Y-8075963D01*
X6876121Y-8101596D01*
X6806292Y-8134220D01*
X6757574Y-8139918D01*
X6701979Y-8119612D01*
X6678780Y-8108083D01*
X6618727Y-8053186D01*
X6576227Y-7955891D01*
X6550217Y-7812268D01*
X6539629Y-7618387D01*
X6539360Y-7593888D01*
X6543409Y-7408732D01*
X6557143Y-7194435D01*
X6579245Y-6959099D01*
X6608397Y-6710826D01*
X6643281Y-6457719D01*
X6682579Y-6207877D01*
X6724973Y-5969404D01*
X6769145Y-5750401D01*
X6813777Y-5558970D01*
X6857551Y-5403212D01*
X6899149Y-5291229D01*
X6920408Y-5251560D01*
X7001057Y-5165293D01*
X7089576Y-5127165D01*
X7174667Y-5134193D01*
G37*
X7174667Y-5134193D02*
X7245031Y-5183395D01*
X7289369Y-5271786D01*
X7298889Y-5351492D01*
X7292032Y-5418011D01*
X7273116Y-5526673D01*
X7244620Y-5665082D01*
X7209025Y-5820842D01*
X7186951Y-5910885D01*
X7107483Y-6251195D01*
X7050511Y-6555945D01*
X7014222Y-6840516D01*
X6996807Y-7120292D01*
X6996455Y-7410655D01*
X6999469Y-7503730D01*
X7005713Y-7689269D01*
X7006589Y-7827161D01*
X7000303Y-7926091D01*
X6985065Y-7994746D01*
X6959082Y-8041808D01*
X6920563Y-8075963D01*
X6876121Y-8101596D01*
X6806292Y-8134220D01*
X6757574Y-8139918D01*
X6701979Y-8119612D01*
X6678780Y-8108083D01*
X6618727Y-8053186D01*
X6576227Y-7955891D01*
X6550217Y-7812268D01*
X6539629Y-7618387D01*
X6539360Y-7593888D01*
X6543409Y-7408732D01*
X6557143Y-7194435D01*
X6579245Y-6959099D01*
X6608397Y-6710826D01*
X6643281Y-6457719D01*
X6682579Y-6207877D01*
X6724973Y-5969404D01*
X6769145Y-5750401D01*
X6813777Y-5558970D01*
X6857551Y-5403212D01*
X6899149Y-5291229D01*
X6920408Y-5251560D01*
X7001057Y-5165293D01*
X7089576Y-5127165D01*
X7174667Y-5134193D01*
G36*
X3758059Y-5506998D02*
G01*
X3843148Y-5545475D01*
X3916754Y-5594836D01*
X3957028Y-5642820D01*
X3958542Y-5683288D01*
X3952721Y-5768510D01*
X3940605Y-5887422D01*
X3923231Y-6028956D01*
X3915356Y-6087159D01*
X3869366Y-6436617D01*
X3833135Y-6750861D01*
X3806952Y-7026156D01*
X3791108Y-7258767D01*
X3785891Y-7444961D01*
X3791592Y-7581002D01*
X3796651Y-7618597D01*
X3810624Y-7773311D01*
X3796361Y-7901494D01*
X3755744Y-7993926D01*
X3712237Y-8032633D01*
X3611416Y-8058499D01*
X3504674Y-8042754D01*
X3414959Y-7990220D01*
X3392915Y-7965518D01*
X3365811Y-7922534D01*
X3348879Y-7873308D01*
X3340209Y-7804572D01*
X3337889Y-7703057D01*
X3339253Y-7592909D01*
X3347989Y-7402615D01*
X3366518Y-7175418D01*
X3392812Y-6929610D01*
X3424843Y-6683481D01*
X3460582Y-6455321D01*
X3473086Y-6385796D01*
X3488052Y-6294804D01*
X3494008Y-6234074D01*
X3489850Y-6215510D01*
X3488806Y-6216463D01*
X3466362Y-6245131D01*
X3415581Y-6311769D01*
X3341932Y-6409146D01*
X3250882Y-6530030D01*
X3147899Y-6667189D01*
X3130218Y-6690777D01*
X3017529Y-6839034D01*
X2907282Y-6980254D01*
X2807182Y-7104849D01*
X2724933Y-7203235D01*
X2668237Y-7265823D01*
X2667638Y-7266424D01*
X2548891Y-7371689D01*
X2443851Y-7433463D01*
X2349783Y-7449931D01*
X2263951Y-7419280D01*
X2183621Y-7339698D01*
X2106058Y-7209371D01*
X2028528Y-7026486D01*
X1948397Y-6789555D01*
X1907720Y-6659354D01*
X1872206Y-6546537D01*
X1845740Y-6463392D01*
X1832372Y-6422666D01*
X1822043Y-6434275D01*
X1802927Y-6493193D01*
X1777180Y-6591356D01*
X1746960Y-6720697D01*
X1722954Y-6831888D01*
X1685431Y-7010954D01*
X1646599Y-7195639D01*
X1610257Y-7367915D01*
X1580204Y-7509751D01*
X1571300Y-7551555D01*
X1546231Y-7676448D01*
X1526657Y-7788099D01*
X1515370Y-7869867D01*
X1513704Y-7894769D01*
X1490037Y-7965373D01*
X1431942Y-8037790D01*
X1357841Y-8094001D01*
X1287556Y-8116000D01*
X1233246Y-8098615D01*
X1164404Y-8055565D01*
X1148610Y-8042935D01*
X1093730Y-7988016D01*
X1068299Y-7929445D01*
X1061796Y-7841948D01*
X1061778Y-7834333D01*
X1068730Y-7766790D01*
X1088161Y-7654993D01*
X1117939Y-7509208D01*
X1155927Y-7339702D01*
X1199993Y-7156739D01*
X1215288Y-7096008D01*
X1288824Y-6802269D01*
X1347353Y-6556589D01*
X1392059Y-6352955D01*
X1424129Y-6185354D01*
X1444748Y-6047773D01*
X1455102Y-5934199D01*
X1456889Y-5870789D01*
X1473855Y-5732015D01*
X1526818Y-5635303D01*
X1618876Y-5576851D01*
X1713283Y-5556072D01*
X1794315Y-5550976D01*
X1848259Y-5565615D01*
X1900072Y-5610088D01*
X1930666Y-5644033D01*
X1989408Y-5722329D01*
X2031319Y-5798735D01*
X2039736Y-5822939D01*
X2058255Y-5884627D01*
X2091325Y-5983205D01*
X2135283Y-6108751D01*
X2186467Y-6251343D01*
X2241216Y-6401057D01*
X2295866Y-6547973D01*
X2346757Y-6682166D01*
X2390226Y-6793715D01*
X2422610Y-6872698D01*
X2440248Y-6909191D01*
X2440946Y-6910012D01*
X2468955Y-6898948D01*
X2528121Y-6841185D01*
X2618250Y-6736958D01*
X2739147Y-6586505D01*
X2890617Y-6390063D01*
X3072466Y-6147868D01*
X3109388Y-6098111D01*
X3258299Y-5900574D01*
X3380474Y-5746764D01*
X3479550Y-5632834D01*
X3559168Y-5554937D01*
X3622967Y-5509225D01*
X3674585Y-5491853D01*
X3683251Y-5491438D01*
X3758059Y-5506998D01*
G37*
X3758059Y-5506998D02*
X3843148Y-5545475D01*
X3916754Y-5594836D01*
X3957028Y-5642820D01*
X3958542Y-5683288D01*
X3952721Y-5768510D01*
X3940605Y-5887422D01*
X3923231Y-6028956D01*
X3915356Y-6087159D01*
X3869366Y-6436617D01*
X3833135Y-6750861D01*
X3806952Y-7026156D01*
X3791108Y-7258767D01*
X3785891Y-7444961D01*
X3791592Y-7581002D01*
X3796651Y-7618597D01*
X3810624Y-7773311D01*
X3796361Y-7901494D01*
X3755744Y-7993926D01*
X3712237Y-8032633D01*
X3611416Y-8058499D01*
X3504674Y-8042754D01*
X3414959Y-7990220D01*
X3392915Y-7965518D01*
X3365811Y-7922534D01*
X3348879Y-7873308D01*
X3340209Y-7804572D01*
X3337889Y-7703057D01*
X3339253Y-7592909D01*
X3347989Y-7402615D01*
X3366518Y-7175418D01*
X3392812Y-6929610D01*
X3424843Y-6683481D01*
X3460582Y-6455321D01*
X3473086Y-6385796D01*
X3488052Y-6294804D01*
X3494008Y-6234074D01*
X3489850Y-6215510D01*
X3488806Y-6216463D01*
X3466362Y-6245131D01*
X3415581Y-6311769D01*
X3341932Y-6409146D01*
X3250882Y-6530030D01*
X3147899Y-6667189D01*
X3130218Y-6690777D01*
X3017529Y-6839034D01*
X2907282Y-6980254D01*
X2807182Y-7104849D01*
X2724933Y-7203235D01*
X2668237Y-7265823D01*
X2667638Y-7266424D01*
X2548891Y-7371689D01*
X2443851Y-7433463D01*
X2349783Y-7449931D01*
X2263951Y-7419280D01*
X2183621Y-7339698D01*
X2106058Y-7209371D01*
X2028528Y-7026486D01*
X1948397Y-6789555D01*
X1907720Y-6659354D01*
X1872206Y-6546537D01*
X1845740Y-6463392D01*
X1832372Y-6422666D01*
X1822043Y-6434275D01*
X1802927Y-6493193D01*
X1777180Y-6591356D01*
X1746960Y-6720697D01*
X1722954Y-6831888D01*
X1685431Y-7010954D01*
X1646599Y-7195639D01*
X1610257Y-7367915D01*
X1580204Y-7509751D01*
X1571300Y-7551555D01*
X1546231Y-7676448D01*
X1526657Y-7788099D01*
X1515370Y-7869867D01*
X1513704Y-7894769D01*
X1490037Y-7965373D01*
X1431942Y-8037790D01*
X1357841Y-8094001D01*
X1287556Y-8116000D01*
X1233246Y-8098615D01*
X1164404Y-8055565D01*
X1148610Y-8042935D01*
X1093730Y-7988016D01*
X1068299Y-7929445D01*
X1061796Y-7841948D01*
X1061778Y-7834333D01*
X1068730Y-7766790D01*
X1088161Y-7654993D01*
X1117939Y-7509208D01*
X1155927Y-7339702D01*
X1199993Y-7156739D01*
X1215288Y-7096008D01*
X1288824Y-6802269D01*
X1347353Y-6556589D01*
X1392059Y-6352955D01*
X1424129Y-6185354D01*
X1444748Y-6047773D01*
X1455102Y-5934199D01*
X1456889Y-5870789D01*
X1473855Y-5732015D01*
X1526818Y-5635303D01*
X1618876Y-5576851D01*
X1713283Y-5556072D01*
X1794315Y-5550976D01*
X1848259Y-5565615D01*
X1900072Y-5610088D01*
X1930666Y-5644033D01*
X1989408Y-5722329D01*
X2031319Y-5798735D01*
X2039736Y-5822939D01*
X2058255Y-5884627D01*
X2091325Y-5983205D01*
X2135283Y-6108751D01*
X2186467Y-6251343D01*
X2241216Y-6401057D01*
X2295866Y-6547973D01*
X2346757Y-6682166D01*
X2390226Y-6793715D01*
X2422610Y-6872698D01*
X2440248Y-6909191D01*
X2440946Y-6910012D01*
X2468955Y-6898948D01*
X2528121Y-6841185D01*
X2618250Y-6736958D01*
X2739147Y-6586505D01*
X2890617Y-6390063D01*
X3072466Y-6147868D01*
X3109388Y-6098111D01*
X3258299Y-5900574D01*
X3380474Y-5746764D01*
X3479550Y-5632834D01*
X3559168Y-5554937D01*
X3622967Y-5509225D01*
X3674585Y-5491853D01*
X3683251Y-5491438D01*
X3758059Y-5506998D01*
G36*
X4824655Y-6215543D02*
G01*
X4901226Y-6270075D01*
X4948261Y-6352561D01*
X4956270Y-6410374D01*
X4948472Y-6472299D01*
X4927615Y-6572188D01*
X4897268Y-6694064D01*
X4874739Y-6775444D01*
X4808681Y-7024581D01*
X4765386Y-7233480D01*
X4744913Y-7400076D01*
X4747321Y-7522302D01*
X4772668Y-7598092D01*
X4821013Y-7625379D01*
X4850633Y-7621182D01*
X4991940Y-7553225D01*
X5133733Y-7437105D01*
X5269940Y-7280721D01*
X5394487Y-7091973D01*
X5501301Y-6878760D01*
X5575404Y-6678466D01*
X5635313Y-6508590D01*
X5695025Y-6389840D01*
X5758279Y-6317037D01*
X5828818Y-6285000D01*
X5861375Y-6282453D01*
X5953353Y-6299245D01*
X6011552Y-6349319D01*
X6037152Y-6436496D01*
X6031332Y-6564599D01*
X5998223Y-6725923D01*
X5944830Y-7031395D01*
X5932863Y-7255222D01*
X5934472Y-7439556D01*
X5944758Y-7577866D01*
X5965748Y-7680176D01*
X5999470Y-7756514D01*
X6046042Y-7815011D01*
X6099861Y-7890819D01*
X6098311Y-7958852D01*
X6040996Y-8024140D01*
X6028889Y-8033072D01*
X5924752Y-8090198D01*
X5834490Y-8099652D01*
X5774889Y-8080104D01*
X5705291Y-8019364D01*
X5642347Y-7915799D01*
X5592385Y-7783029D01*
X5561734Y-7634671D01*
X5559713Y-7617027D01*
X5541539Y-7443147D01*
X5416819Y-7609062D01*
X5264888Y-7784479D01*
X5108963Y-7914587D01*
X4953374Y-7997774D01*
X4802450Y-8032432D01*
X4660521Y-8016951D01*
X4531917Y-7949721D01*
X4521924Y-7941721D01*
X4447809Y-7868004D01*
X4388983Y-7787724D01*
X4374383Y-7759183D01*
X4343506Y-7630791D01*
X4337465Y-7455942D01*
X4356042Y-7238760D01*
X4399023Y-6983371D01*
X4420222Y-6883790D01*
X4451566Y-6737906D01*
X4477665Y-6605581D01*
X4496138Y-6499705D01*
X4504605Y-6433170D01*
X4504889Y-6425363D01*
X4522500Y-6346070D01*
X4563382Y-6271250D01*
X4641166Y-6210972D01*
X4733112Y-6194123D01*
X4824655Y-6215543D01*
G37*
X4824655Y-6215543D02*
X4901226Y-6270075D01*
X4948261Y-6352561D01*
X4956270Y-6410374D01*
X4948472Y-6472299D01*
X4927615Y-6572188D01*
X4897268Y-6694064D01*
X4874739Y-6775444D01*
X4808681Y-7024581D01*
X4765386Y-7233480D01*
X4744913Y-7400076D01*
X4747321Y-7522302D01*
X4772668Y-7598092D01*
X4821013Y-7625379D01*
X4850633Y-7621182D01*
X4991940Y-7553225D01*
X5133733Y-7437105D01*
X5269940Y-7280721D01*
X5394487Y-7091973D01*
X5501301Y-6878760D01*
X5575404Y-6678466D01*
X5635313Y-6508590D01*
X5695025Y-6389840D01*
X5758279Y-6317037D01*
X5828818Y-6285000D01*
X5861375Y-6282453D01*
X5953353Y-6299245D01*
X6011552Y-6349319D01*
X6037152Y-6436496D01*
X6031332Y-6564599D01*
X5998223Y-6725923D01*
X5944830Y-7031395D01*
X5932863Y-7255222D01*
X5934472Y-7439556D01*
X5944758Y-7577866D01*
X5965748Y-7680176D01*
X5999470Y-7756514D01*
X6046042Y-7815011D01*
X6099861Y-7890819D01*
X6098311Y-7958852D01*
X6040996Y-8024140D01*
X6028889Y-8033072D01*
X5924752Y-8090198D01*
X5834490Y-8099652D01*
X5774889Y-8080104D01*
X5705291Y-8019364D01*
X5642347Y-7915799D01*
X5592385Y-7783029D01*
X5561734Y-7634671D01*
X5559713Y-7617027D01*
X5541539Y-7443147D01*
X5416819Y-7609062D01*
X5264888Y-7784479D01*
X5108963Y-7914587D01*
X4953374Y-7997774D01*
X4802450Y-8032432D01*
X4660521Y-8016951D01*
X4531917Y-7949721D01*
X4521924Y-7941721D01*
X4447809Y-7868004D01*
X4388983Y-7787724D01*
X4374383Y-7759183D01*
X4343506Y-7630791D01*
X4337465Y-7455942D01*
X4356042Y-7238760D01*
X4399023Y-6983371D01*
X4420222Y-6883790D01*
X4451566Y-6737906D01*
X4477665Y-6605581D01*
X4496138Y-6499705D01*
X4504605Y-6433170D01*
X4504889Y-6425363D01*
X4522500Y-6346070D01*
X4563382Y-6271250D01*
X4641166Y-6210972D01*
X4733112Y-6194123D01*
X4824655Y-6215543D01*
G36*
X8342814Y-5564584D02*
G01*
X8372823Y-5591696D01*
X8440596Y-5663837D01*
X8299216Y-6218605D01*
X8642601Y-6203776D01*
X8787167Y-6198075D01*
X8885573Y-6196540D01*
X8948025Y-6200363D01*
X8984731Y-6210735D01*
X9005896Y-6228847D01*
X9017330Y-6247514D01*
X9033418Y-6330693D01*
X9001936Y-6412059D01*
X8930160Y-6476447D01*
X8900680Y-6490664D01*
X8834938Y-6510479D01*
X8729438Y-6534939D01*
X8600275Y-6560540D01*
X8498334Y-6578255D01*
X8371733Y-6600035D01*
X8266262Y-6620375D01*
X8194093Y-6636785D01*
X8168037Y-6645773D01*
X8156151Y-6678203D01*
X8136864Y-6755934D01*
X8112480Y-6868663D01*
X8085298Y-7006090D01*
X8073750Y-7067886D01*
X8038434Y-7280114D01*
X8020109Y-7442903D01*
X8018794Y-7560649D01*
X8034513Y-7637746D01*
X8067286Y-7678589D01*
X8076770Y-7683139D01*
X8162752Y-7689411D01*
X8277787Y-7658093D01*
X8411978Y-7592445D01*
X8478916Y-7550616D01*
X8600911Y-7477446D01*
X8690314Y-7444547D01*
X8752991Y-7450874D01*
X8794322Y-7494466D01*
X8805899Y-7574097D01*
X8769060Y-7672346D01*
X8686485Y-7783845D01*
X8613291Y-7857459D01*
X8449274Y-7979914D01*
X8272491Y-8062081D01*
X8094101Y-8100470D01*
X7925263Y-8091589D01*
X7891556Y-8083245D01*
X7753048Y-8018081D01*
X7654144Y-7913094D01*
X7594650Y-7767967D01*
X7574370Y-7582384D01*
X7574437Y-7565666D01*
X7580462Y-7469753D01*
X7595191Y-7339921D01*
X7616152Y-7191455D01*
X7640874Y-7039641D01*
X7666885Y-6899765D01*
X7691714Y-6787112D01*
X7710847Y-6722047D01*
X7703102Y-6696797D01*
X7651785Y-6679588D01*
X7580339Y-6670214D01*
X7450407Y-6641403D01*
X7364133Y-6581537D01*
X7315374Y-6486131D01*
X7312334Y-6474501D01*
X7312437Y-6399382D01*
X7352888Y-6340445D01*
X7392172Y-6309834D01*
X7444008Y-6291894D01*
X7523331Y-6283509D01*
X7635094Y-6281555D01*
X7858410Y-6281555D01*
X7933899Y-5964055D01*
X7978197Y-5796362D01*
X8020839Y-5670890D01*
X8059649Y-5593808D01*
X8068280Y-5583055D01*
X8152705Y-5528789D01*
X8249571Y-5522784D01*
X8342814Y-5564584D01*
G37*
X8342814Y-5564584D02*
X8372823Y-5591696D01*
X8440596Y-5663837D01*
X8299216Y-6218605D01*
X8642601Y-6203776D01*
X8787167Y-6198075D01*
X8885573Y-6196540D01*
X8948025Y-6200363D01*
X8984731Y-6210735D01*
X9005896Y-6228847D01*
X9017330Y-6247514D01*
X9033418Y-6330693D01*
X9001936Y-6412059D01*
X8930160Y-6476447D01*
X8900680Y-6490664D01*
X8834938Y-6510479D01*
X8729438Y-6534939D01*
X8600275Y-6560540D01*
X8498334Y-6578255D01*
X8371733Y-6600035D01*
X8266262Y-6620375D01*
X8194093Y-6636785D01*
X8168037Y-6645773D01*
X8156151Y-6678203D01*
X8136864Y-6755934D01*
X8112480Y-6868663D01*
X8085298Y-7006090D01*
X8073750Y-7067886D01*
X8038434Y-7280114D01*
X8020109Y-7442903D01*
X8018794Y-7560649D01*
X8034513Y-7637746D01*
X8067286Y-7678589D01*
X8076770Y-7683139D01*
X8162752Y-7689411D01*
X8277787Y-7658093D01*
X8411978Y-7592445D01*
X8478916Y-7550616D01*
X8600911Y-7477446D01*
X8690314Y-7444547D01*
X8752991Y-7450874D01*
X8794322Y-7494466D01*
X8805899Y-7574097D01*
X8769060Y-7672346D01*
X8686485Y-7783845D01*
X8613291Y-7857459D01*
X8449274Y-7979914D01*
X8272491Y-8062081D01*
X8094101Y-8100470D01*
X7925263Y-8091589D01*
X7891556Y-8083245D01*
X7753048Y-8018081D01*
X7654144Y-7913094D01*
X7594650Y-7767967D01*
X7574370Y-7582384D01*
X7574437Y-7565666D01*
X7580462Y-7469753D01*
X7595191Y-7339921D01*
X7616152Y-7191455D01*
X7640874Y-7039641D01*
X7666885Y-6899765D01*
X7691714Y-6787112D01*
X7710847Y-6722047D01*
X7703102Y-6696797D01*
X7651785Y-6679588D01*
X7580339Y-6670214D01*
X7450407Y-6641403D01*
X7364133Y-6581537D01*
X7315374Y-6486131D01*
X7312334Y-6474501D01*
X7312437Y-6399382D01*
X7352888Y-6340445D01*
X7392172Y-6309834D01*
X7444008Y-6291894D01*
X7523331Y-6283509D01*
X7635094Y-6281555D01*
X7858410Y-6281555D01*
X7933899Y-5964055D01*
X7978197Y-5796362D01*
X8020839Y-5670890D01*
X8059649Y-5593808D01*
X8068280Y-5583055D01*
X8152705Y-5528789D01*
X8249571Y-5522784D01*
X8342814Y-5564584D01*
G36*
X440889Y-3261777D02*
G01*
X-10666Y-3261777D01*
X-10666Y-2725555D01*
X440889Y-2725555D01*
X440889Y-3261777D01*
G37*
X440889Y-3261777D02*
X-10666Y-3261777D01*
X-10666Y-2725555D01*
X440889Y-2725555D01*
X440889Y-3261777D01*
G36*
X9810667Y-3261777D02*
G01*
X7114559Y-3261777D01*
X6653110Y-3261664D01*
X6245057Y-3261296D01*
X5887353Y-3260631D01*
X5576949Y-3259627D01*
X5310798Y-3258241D01*
X5085852Y-3256430D01*
X4899063Y-3254152D01*
X4747384Y-3251364D01*
X4627765Y-3248025D01*
X4537160Y-3244091D01*
X4472522Y-3239521D01*
X4430801Y-3234271D01*
X4408950Y-3228299D01*
X4403956Y-3224005D01*
X4398082Y-3179165D01*
X4395628Y-3094560D01*
X4396987Y-2986790D01*
X4397786Y-2962949D01*
X4406111Y-2739666D01*
X9810667Y-2725272D01*
X9810667Y-3261777D01*
G37*
X9810667Y-3261777D02*
X7114559Y-3261777D01*
X6653110Y-3261664D01*
X6245057Y-3261296D01*
X5887353Y-3260631D01*
X5576949Y-3259627D01*
X5310798Y-3258241D01*
X5085852Y-3256430D01*
X4899063Y-3254152D01*
X4747384Y-3251364D01*
X4627765Y-3248025D01*
X4537160Y-3244091D01*
X4472522Y-3239521D01*
X4430801Y-3234271D01*
X4408950Y-3228299D01*
X4403956Y-3224005D01*
X4398082Y-3179165D01*
X4395628Y-3094560D01*
X4396987Y-2986790D01*
X4397786Y-2962949D01*
X4406111Y-2739666D01*
X9810667Y-2725272D01*
X9810667Y-3261777D01*
G04 #@! TD*
M02*
