G04 #@! TF.GenerationSoftware,KiCad,Pcbnew,(5.1.9)-1*
G04 #@! TF.CreationDate,2021-09-01T12:59:26+02:00*
G04 #@! TF.ProjectId,Buffered Multiple Front,42756666-6572-4656-9420-4d756c746970,rev?*
G04 #@! TF.SameCoordinates,Original*
G04 #@! TF.FileFunction,Legend,Bot*
G04 #@! TF.FilePolarity,Positive*
%FSLAX46Y46*%
G04 Gerber Fmt 4.6, Leading zero omitted, Abs format (unit mm)*
G04 Created by KiCad (PCBNEW (5.1.9)-1) date 2021-09-01 12:59:26*
%MOMM*%
%LPD*%
G01*
G04 APERTURE LIST*
%ADD10C,0.100000*%
G04 #@! TA.AperFunction,Profile*
%ADD11C,0.050000*%
G04 #@! TD*
G04 APERTURE END LIST*
D10*
X8761904Y-584047D02*
X9333333Y-584047D01*
X9447619Y-545952D01*
X9523809Y-469761D01*
X9561904Y-355476D01*
X9561904Y-279285D01*
X9561904Y-1345952D02*
X9561904Y-965000D01*
X8761904Y-965000D01*
X9485714Y-2069761D02*
X9523809Y-2031666D01*
X9561904Y-1917380D01*
X9561904Y-1841190D01*
X9523809Y-1726904D01*
X9447619Y-1650714D01*
X9371428Y-1612619D01*
X9219047Y-1574523D01*
X9104761Y-1574523D01*
X8952380Y-1612619D01*
X8876190Y-1650714D01*
X8800000Y-1726904D01*
X8761904Y-1841190D01*
X8761904Y-1917380D01*
X8800000Y-2031666D01*
X8838095Y-2069761D01*
X8761904Y-2641190D02*
X9333333Y-2641190D01*
X9447619Y-2603095D01*
X9523809Y-2526904D01*
X9561904Y-2412619D01*
X9561904Y-2336428D01*
X9561904Y-3403095D02*
X9561904Y-3022142D01*
X8761904Y-3022142D01*
X9485714Y-4126904D02*
X9523809Y-4088809D01*
X9561904Y-3974523D01*
X9561904Y-3898333D01*
X9523809Y-3784047D01*
X9447619Y-3707857D01*
X9371428Y-3669761D01*
X9219047Y-3631666D01*
X9104761Y-3631666D01*
X8952380Y-3669761D01*
X8876190Y-3707857D01*
X8800000Y-3784047D01*
X8761904Y-3898333D01*
X8761904Y-3974523D01*
X8800000Y-4088809D01*
X8838095Y-4126904D01*
X8761904Y-4698333D02*
X9333333Y-4698333D01*
X9447619Y-4660238D01*
X9523809Y-4584047D01*
X9561904Y-4469761D01*
X9561904Y-4393571D01*
X9561904Y-5460238D02*
X9561904Y-5079285D01*
X8761904Y-5079285D01*
X9485714Y-6184047D02*
X9523809Y-6145952D01*
X9561904Y-6031666D01*
X9561904Y-5955476D01*
X9523809Y-5841190D01*
X9447619Y-5765000D01*
X9371428Y-5726904D01*
X9219047Y-5688809D01*
X9104761Y-5688809D01*
X8952380Y-5726904D01*
X8876190Y-5765000D01*
X8800000Y-5841190D01*
X8761904Y-5955476D01*
X8761904Y-6031666D01*
X8800000Y-6145952D01*
X8838095Y-6184047D01*
X8761904Y-6755476D02*
X9333333Y-6755476D01*
X9447619Y-6717380D01*
X9523809Y-6641190D01*
X9561904Y-6526904D01*
X9561904Y-6450714D01*
X9561904Y-7517380D02*
X9561904Y-7136428D01*
X8761904Y-7136428D01*
X9485714Y-8241190D02*
X9523809Y-8203095D01*
X9561904Y-8088809D01*
X9561904Y-8012619D01*
X9523809Y-7898333D01*
X9447619Y-7822142D01*
X9371428Y-7784047D01*
X9219047Y-7745952D01*
X9104761Y-7745952D01*
X8952380Y-7784047D01*
X8876190Y-7822142D01*
X8800000Y-7898333D01*
X8761904Y-8012619D01*
X8761904Y-8088809D01*
X8800000Y-8203095D01*
X8838095Y-8241190D01*
D11*
X0Y-128500000D02*
X0Y0D01*
X9800000Y-128500000D02*
X0Y-128500000D01*
X9800000Y0D02*
X9800000Y-128500000D01*
X0Y0D02*
X9800000Y0D01*
M02*
