G04 #@! TF.GenerationSoftware,KiCad,Pcbnew,(5.1.9)-1*
G04 #@! TF.CreationDate,2021-09-01T12:59:26+02:00*
G04 #@! TF.ProjectId,Buffered Multiple Front,42756666-6572-4656-9420-4d756c746970,rev?*
G04 #@! TF.SameCoordinates,Original*
G04 #@! TF.FileFunction,Copper,L2,Bot*
G04 #@! TF.FilePolarity,Positive*
%FSLAX46Y46*%
G04 Gerber Fmt 4.6, Leading zero omitted, Abs format (unit mm)*
G04 Created by KiCad (PCBNEW (5.1.9)-1) date 2021-09-01 12:59:26*
%MOMM*%
%LPD*%
G01*
G04 APERTURE LIST*
G04 #@! TA.AperFunction,Profile*
%ADD10C,0.050000*%
G04 #@! TD*
G04 #@! TA.AperFunction,NonConductor*
%ADD11C,0.254000*%
G04 #@! TD*
G04 #@! TA.AperFunction,NonConductor*
%ADD12C,0.100000*%
G04 #@! TD*
G04 APERTURE END LIST*
D10*
X0Y-128500000D02*
X0Y0D01*
X9800000Y-128500000D02*
X0Y-128500000D01*
X9800000Y0D02*
X9800000Y-128500000D01*
X0Y0D02*
X9800000Y0D01*
D11*
X9140000Y-19210830D02*
X9043387Y-18725125D01*
X8765605Y-18054498D01*
X8362326Y-17450950D01*
X7849050Y-16937674D01*
X7245502Y-16534395D01*
X6574875Y-16256613D01*
X5862941Y-16115000D01*
X5137059Y-16115000D01*
X4425125Y-16256613D01*
X3754498Y-16534395D01*
X3150950Y-16937674D01*
X2637674Y-17450950D01*
X2234395Y-18054498D01*
X1956613Y-18725125D01*
X1815000Y-19437059D01*
X1815000Y-20162941D01*
X1956613Y-20874875D01*
X2234395Y-21545502D01*
X2637674Y-22149050D01*
X3150950Y-22662326D01*
X3754498Y-23065605D01*
X4425125Y-23343387D01*
X5137059Y-23485000D01*
X5862941Y-23485000D01*
X6574875Y-23343387D01*
X7245502Y-23065605D01*
X7849050Y-22662326D01*
X8362326Y-22149050D01*
X8765605Y-21545502D01*
X9043387Y-20874875D01*
X9140000Y-20389170D01*
X9140000Y-31910831D01*
X9043387Y-31425125D01*
X8765605Y-30754498D01*
X8362326Y-30150950D01*
X7849050Y-29637674D01*
X7245502Y-29234395D01*
X6574875Y-28956613D01*
X5862941Y-28815000D01*
X5137059Y-28815000D01*
X4425125Y-28956613D01*
X3754498Y-29234395D01*
X3150950Y-29637674D01*
X2637674Y-30150950D01*
X2234395Y-30754498D01*
X1956613Y-31425125D01*
X1815000Y-32137059D01*
X1815000Y-32862941D01*
X1956613Y-33574875D01*
X2234395Y-34245502D01*
X2637674Y-34849050D01*
X3150950Y-35362326D01*
X3754498Y-35765605D01*
X4425125Y-36043387D01*
X5137059Y-36185000D01*
X5862941Y-36185000D01*
X6574875Y-36043387D01*
X7245502Y-35765605D01*
X7849050Y-35362326D01*
X8362326Y-34849050D01*
X8765605Y-34245502D01*
X9043387Y-33574875D01*
X9140000Y-33089169D01*
X9140000Y-44610831D01*
X9043387Y-44125125D01*
X8765605Y-43454498D01*
X8362326Y-42850950D01*
X7849050Y-42337674D01*
X7245502Y-41934395D01*
X6574875Y-41656613D01*
X5862941Y-41515000D01*
X5137059Y-41515000D01*
X4425125Y-41656613D01*
X3754498Y-41934395D01*
X3150950Y-42337674D01*
X2637674Y-42850950D01*
X2234395Y-43454498D01*
X1956613Y-44125125D01*
X1815000Y-44837059D01*
X1815000Y-45562941D01*
X1956613Y-46274875D01*
X2234395Y-46945502D01*
X2637674Y-47549050D01*
X3150950Y-48062326D01*
X3754498Y-48465605D01*
X4425125Y-48743387D01*
X5137059Y-48885000D01*
X5862941Y-48885000D01*
X6574875Y-48743387D01*
X7245502Y-48465605D01*
X7849050Y-48062326D01*
X8362326Y-47549050D01*
X8765605Y-46945502D01*
X9043387Y-46274875D01*
X9140000Y-45789169D01*
X9140000Y-57310832D01*
X9043387Y-56825125D01*
X8765605Y-56154498D01*
X8362326Y-55550950D01*
X7849050Y-55037674D01*
X7245502Y-54634395D01*
X6574875Y-54356613D01*
X5862941Y-54215000D01*
X5137059Y-54215000D01*
X4425125Y-54356613D01*
X3754498Y-54634395D01*
X3150950Y-55037674D01*
X2637674Y-55550950D01*
X2234395Y-56154498D01*
X1956613Y-56825125D01*
X1815000Y-57537059D01*
X1815000Y-58262941D01*
X1956613Y-58974875D01*
X2234395Y-59645502D01*
X2637674Y-60249050D01*
X3150950Y-60762326D01*
X3754498Y-61165605D01*
X4425125Y-61443387D01*
X5137059Y-61585000D01*
X5862941Y-61585000D01*
X6574875Y-61443387D01*
X7245502Y-61165605D01*
X7849050Y-60762326D01*
X8362326Y-60249050D01*
X8765605Y-59645502D01*
X9043387Y-58974875D01*
X9140000Y-58489168D01*
X9140001Y-70772832D01*
X9043387Y-70287125D01*
X8765605Y-69616498D01*
X8362326Y-69012950D01*
X7849050Y-68499674D01*
X7245502Y-68096395D01*
X6574875Y-67818613D01*
X5862941Y-67677000D01*
X5137059Y-67677000D01*
X4425125Y-67818613D01*
X3754498Y-68096395D01*
X3150950Y-68499674D01*
X2637674Y-69012950D01*
X2234395Y-69616498D01*
X1956613Y-70287125D01*
X1815000Y-70999059D01*
X1815000Y-71724941D01*
X1956613Y-72436875D01*
X2234395Y-73107502D01*
X2637674Y-73711050D01*
X3150950Y-74224326D01*
X3754498Y-74627605D01*
X4425125Y-74905387D01*
X5137059Y-75047000D01*
X5862941Y-75047000D01*
X6574875Y-74905387D01*
X7245502Y-74627605D01*
X7849050Y-74224326D01*
X8362326Y-73711050D01*
X8765605Y-73107502D01*
X9043387Y-72436875D01*
X9140001Y-71951168D01*
X9140001Y-83360833D01*
X9043387Y-82875125D01*
X8765605Y-82204498D01*
X8362326Y-81600950D01*
X7849050Y-81087674D01*
X7245502Y-80684395D01*
X6574875Y-80406613D01*
X5862941Y-80265000D01*
X5137059Y-80265000D01*
X4425125Y-80406613D01*
X3754498Y-80684395D01*
X3150950Y-81087674D01*
X2637674Y-81600950D01*
X2234395Y-82204498D01*
X1956613Y-82875125D01*
X1815000Y-83587059D01*
X1815000Y-84312941D01*
X1956613Y-85024875D01*
X2234395Y-85695502D01*
X2637674Y-86299050D01*
X3150950Y-86812326D01*
X3754498Y-87215605D01*
X4425125Y-87493387D01*
X5137059Y-87635000D01*
X5862941Y-87635000D01*
X6574875Y-87493387D01*
X7245502Y-87215605D01*
X7849050Y-86812326D01*
X8362326Y-86299050D01*
X8765605Y-85695502D01*
X9043387Y-85024875D01*
X9140001Y-84539167D01*
X9140001Y-96045833D01*
X9043387Y-95560125D01*
X8765605Y-94889498D01*
X8362326Y-94285950D01*
X7849050Y-93772674D01*
X7245502Y-93369395D01*
X6574875Y-93091613D01*
X5862941Y-92950000D01*
X5137059Y-92950000D01*
X4425125Y-93091613D01*
X3754498Y-93369395D01*
X3150950Y-93772674D01*
X2637674Y-94285950D01*
X2234395Y-94889498D01*
X1956613Y-95560125D01*
X1815000Y-96272059D01*
X1815000Y-96997941D01*
X1956613Y-97709875D01*
X2234395Y-98380502D01*
X2637674Y-98984050D01*
X3150950Y-99497326D01*
X3754498Y-99900605D01*
X4425125Y-100178387D01*
X5137059Y-100320000D01*
X5862941Y-100320000D01*
X6574875Y-100178387D01*
X7245502Y-99900605D01*
X7849050Y-99497326D01*
X8362326Y-98984050D01*
X8765605Y-98380502D01*
X9043387Y-97709875D01*
X9140001Y-97224167D01*
X9140001Y-108745834D01*
X9043387Y-108260125D01*
X8765605Y-107589498D01*
X8362326Y-106985950D01*
X7849050Y-106472674D01*
X7245502Y-106069395D01*
X6574875Y-105791613D01*
X5862941Y-105650000D01*
X5137059Y-105650000D01*
X4425125Y-105791613D01*
X3754498Y-106069395D01*
X3150950Y-106472674D01*
X2637674Y-106985950D01*
X2234395Y-107589498D01*
X1956613Y-108260125D01*
X1815000Y-108972059D01*
X1815000Y-109697941D01*
X1956613Y-110409875D01*
X2234395Y-111080502D01*
X2637674Y-111684050D01*
X3150950Y-112197326D01*
X3754498Y-112600605D01*
X4425125Y-112878387D01*
X5137059Y-113020000D01*
X5862941Y-113020000D01*
X6574875Y-112878387D01*
X7245502Y-112600605D01*
X7849050Y-112197326D01*
X8362326Y-111684050D01*
X8765605Y-111080502D01*
X9043387Y-110409875D01*
X9140001Y-109924166D01*
X9140001Y-127840000D01*
X660000Y-127840000D01*
X660000Y-126888867D01*
X683962Y-126924729D01*
X995271Y-127236038D01*
X1361331Y-127480631D01*
X1768075Y-127649110D01*
X2199872Y-127735000D01*
X2640128Y-127735000D01*
X3071925Y-127649110D01*
X3478669Y-127480631D01*
X3844729Y-127236038D01*
X4156038Y-126924729D01*
X4400631Y-126558669D01*
X4569110Y-126151925D01*
X4655000Y-125720128D01*
X4655000Y-125279872D01*
X4569110Y-124848075D01*
X4400631Y-124441331D01*
X4156038Y-124075271D01*
X3844729Y-123763962D01*
X3478669Y-123519369D01*
X3071925Y-123350890D01*
X2640128Y-123265000D01*
X2199872Y-123265000D01*
X1768075Y-123350890D01*
X1361331Y-123519369D01*
X995271Y-123763962D01*
X683962Y-124075271D01*
X660000Y-124111133D01*
X660000Y-4388867D01*
X683962Y-4424729D01*
X995271Y-4736038D01*
X1361331Y-4980631D01*
X1768075Y-5149110D01*
X2199872Y-5235000D01*
X2640128Y-5235000D01*
X3071925Y-5149110D01*
X3478669Y-4980631D01*
X3844729Y-4736038D01*
X4156038Y-4424729D01*
X4400631Y-4058669D01*
X4569110Y-3651925D01*
X4655000Y-3220128D01*
X4655000Y-2779872D01*
X4569110Y-2348075D01*
X4400631Y-1941331D01*
X4156038Y-1575271D01*
X3844729Y-1263962D01*
X3478669Y-1019369D01*
X3071925Y-850890D01*
X2640128Y-765000D01*
X2199872Y-765000D01*
X1768075Y-850890D01*
X1361331Y-1019369D01*
X995271Y-1263962D01*
X683962Y-1575271D01*
X660000Y-1611133D01*
X660000Y-660000D01*
X9140000Y-660000D01*
X9140000Y-19210830D01*
G04 #@! TA.AperFunction,NonConductor*
D12*
G36*
X9140000Y-19210830D02*
G01*
X9043387Y-18725125D01*
X8765605Y-18054498D01*
X8362326Y-17450950D01*
X7849050Y-16937674D01*
X7245502Y-16534395D01*
X6574875Y-16256613D01*
X5862941Y-16115000D01*
X5137059Y-16115000D01*
X4425125Y-16256613D01*
X3754498Y-16534395D01*
X3150950Y-16937674D01*
X2637674Y-17450950D01*
X2234395Y-18054498D01*
X1956613Y-18725125D01*
X1815000Y-19437059D01*
X1815000Y-20162941D01*
X1956613Y-20874875D01*
X2234395Y-21545502D01*
X2637674Y-22149050D01*
X3150950Y-22662326D01*
X3754498Y-23065605D01*
X4425125Y-23343387D01*
X5137059Y-23485000D01*
X5862941Y-23485000D01*
X6574875Y-23343387D01*
X7245502Y-23065605D01*
X7849050Y-22662326D01*
X8362326Y-22149050D01*
X8765605Y-21545502D01*
X9043387Y-20874875D01*
X9140000Y-20389170D01*
X9140000Y-31910831D01*
X9043387Y-31425125D01*
X8765605Y-30754498D01*
X8362326Y-30150950D01*
X7849050Y-29637674D01*
X7245502Y-29234395D01*
X6574875Y-28956613D01*
X5862941Y-28815000D01*
X5137059Y-28815000D01*
X4425125Y-28956613D01*
X3754498Y-29234395D01*
X3150950Y-29637674D01*
X2637674Y-30150950D01*
X2234395Y-30754498D01*
X1956613Y-31425125D01*
X1815000Y-32137059D01*
X1815000Y-32862941D01*
X1956613Y-33574875D01*
X2234395Y-34245502D01*
X2637674Y-34849050D01*
X3150950Y-35362326D01*
X3754498Y-35765605D01*
X4425125Y-36043387D01*
X5137059Y-36185000D01*
X5862941Y-36185000D01*
X6574875Y-36043387D01*
X7245502Y-35765605D01*
X7849050Y-35362326D01*
X8362326Y-34849050D01*
X8765605Y-34245502D01*
X9043387Y-33574875D01*
X9140000Y-33089169D01*
X9140000Y-44610831D01*
X9043387Y-44125125D01*
X8765605Y-43454498D01*
X8362326Y-42850950D01*
X7849050Y-42337674D01*
X7245502Y-41934395D01*
X6574875Y-41656613D01*
X5862941Y-41515000D01*
X5137059Y-41515000D01*
X4425125Y-41656613D01*
X3754498Y-41934395D01*
X3150950Y-42337674D01*
X2637674Y-42850950D01*
X2234395Y-43454498D01*
X1956613Y-44125125D01*
X1815000Y-44837059D01*
X1815000Y-45562941D01*
X1956613Y-46274875D01*
X2234395Y-46945502D01*
X2637674Y-47549050D01*
X3150950Y-48062326D01*
X3754498Y-48465605D01*
X4425125Y-48743387D01*
X5137059Y-48885000D01*
X5862941Y-48885000D01*
X6574875Y-48743387D01*
X7245502Y-48465605D01*
X7849050Y-48062326D01*
X8362326Y-47549050D01*
X8765605Y-46945502D01*
X9043387Y-46274875D01*
X9140000Y-45789169D01*
X9140000Y-57310832D01*
X9043387Y-56825125D01*
X8765605Y-56154498D01*
X8362326Y-55550950D01*
X7849050Y-55037674D01*
X7245502Y-54634395D01*
X6574875Y-54356613D01*
X5862941Y-54215000D01*
X5137059Y-54215000D01*
X4425125Y-54356613D01*
X3754498Y-54634395D01*
X3150950Y-55037674D01*
X2637674Y-55550950D01*
X2234395Y-56154498D01*
X1956613Y-56825125D01*
X1815000Y-57537059D01*
X1815000Y-58262941D01*
X1956613Y-58974875D01*
X2234395Y-59645502D01*
X2637674Y-60249050D01*
X3150950Y-60762326D01*
X3754498Y-61165605D01*
X4425125Y-61443387D01*
X5137059Y-61585000D01*
X5862941Y-61585000D01*
X6574875Y-61443387D01*
X7245502Y-61165605D01*
X7849050Y-60762326D01*
X8362326Y-60249050D01*
X8765605Y-59645502D01*
X9043387Y-58974875D01*
X9140000Y-58489168D01*
X9140001Y-70772832D01*
X9043387Y-70287125D01*
X8765605Y-69616498D01*
X8362326Y-69012950D01*
X7849050Y-68499674D01*
X7245502Y-68096395D01*
X6574875Y-67818613D01*
X5862941Y-67677000D01*
X5137059Y-67677000D01*
X4425125Y-67818613D01*
X3754498Y-68096395D01*
X3150950Y-68499674D01*
X2637674Y-69012950D01*
X2234395Y-69616498D01*
X1956613Y-70287125D01*
X1815000Y-70999059D01*
X1815000Y-71724941D01*
X1956613Y-72436875D01*
X2234395Y-73107502D01*
X2637674Y-73711050D01*
X3150950Y-74224326D01*
X3754498Y-74627605D01*
X4425125Y-74905387D01*
X5137059Y-75047000D01*
X5862941Y-75047000D01*
X6574875Y-74905387D01*
X7245502Y-74627605D01*
X7849050Y-74224326D01*
X8362326Y-73711050D01*
X8765605Y-73107502D01*
X9043387Y-72436875D01*
X9140001Y-71951168D01*
X9140001Y-83360833D01*
X9043387Y-82875125D01*
X8765605Y-82204498D01*
X8362326Y-81600950D01*
X7849050Y-81087674D01*
X7245502Y-80684395D01*
X6574875Y-80406613D01*
X5862941Y-80265000D01*
X5137059Y-80265000D01*
X4425125Y-80406613D01*
X3754498Y-80684395D01*
X3150950Y-81087674D01*
X2637674Y-81600950D01*
X2234395Y-82204498D01*
X1956613Y-82875125D01*
X1815000Y-83587059D01*
X1815000Y-84312941D01*
X1956613Y-85024875D01*
X2234395Y-85695502D01*
X2637674Y-86299050D01*
X3150950Y-86812326D01*
X3754498Y-87215605D01*
X4425125Y-87493387D01*
X5137059Y-87635000D01*
X5862941Y-87635000D01*
X6574875Y-87493387D01*
X7245502Y-87215605D01*
X7849050Y-86812326D01*
X8362326Y-86299050D01*
X8765605Y-85695502D01*
X9043387Y-85024875D01*
X9140001Y-84539167D01*
X9140001Y-96045833D01*
X9043387Y-95560125D01*
X8765605Y-94889498D01*
X8362326Y-94285950D01*
X7849050Y-93772674D01*
X7245502Y-93369395D01*
X6574875Y-93091613D01*
X5862941Y-92950000D01*
X5137059Y-92950000D01*
X4425125Y-93091613D01*
X3754498Y-93369395D01*
X3150950Y-93772674D01*
X2637674Y-94285950D01*
X2234395Y-94889498D01*
X1956613Y-95560125D01*
X1815000Y-96272059D01*
X1815000Y-96997941D01*
X1956613Y-97709875D01*
X2234395Y-98380502D01*
X2637674Y-98984050D01*
X3150950Y-99497326D01*
X3754498Y-99900605D01*
X4425125Y-100178387D01*
X5137059Y-100320000D01*
X5862941Y-100320000D01*
X6574875Y-100178387D01*
X7245502Y-99900605D01*
X7849050Y-99497326D01*
X8362326Y-98984050D01*
X8765605Y-98380502D01*
X9043387Y-97709875D01*
X9140001Y-97224167D01*
X9140001Y-108745834D01*
X9043387Y-108260125D01*
X8765605Y-107589498D01*
X8362326Y-106985950D01*
X7849050Y-106472674D01*
X7245502Y-106069395D01*
X6574875Y-105791613D01*
X5862941Y-105650000D01*
X5137059Y-105650000D01*
X4425125Y-105791613D01*
X3754498Y-106069395D01*
X3150950Y-106472674D01*
X2637674Y-106985950D01*
X2234395Y-107589498D01*
X1956613Y-108260125D01*
X1815000Y-108972059D01*
X1815000Y-109697941D01*
X1956613Y-110409875D01*
X2234395Y-111080502D01*
X2637674Y-111684050D01*
X3150950Y-112197326D01*
X3754498Y-112600605D01*
X4425125Y-112878387D01*
X5137059Y-113020000D01*
X5862941Y-113020000D01*
X6574875Y-112878387D01*
X7245502Y-112600605D01*
X7849050Y-112197326D01*
X8362326Y-111684050D01*
X8765605Y-111080502D01*
X9043387Y-110409875D01*
X9140001Y-109924166D01*
X9140001Y-127840000D01*
X660000Y-127840000D01*
X660000Y-126888867D01*
X683962Y-126924729D01*
X995271Y-127236038D01*
X1361331Y-127480631D01*
X1768075Y-127649110D01*
X2199872Y-127735000D01*
X2640128Y-127735000D01*
X3071925Y-127649110D01*
X3478669Y-127480631D01*
X3844729Y-127236038D01*
X4156038Y-126924729D01*
X4400631Y-126558669D01*
X4569110Y-126151925D01*
X4655000Y-125720128D01*
X4655000Y-125279872D01*
X4569110Y-124848075D01*
X4400631Y-124441331D01*
X4156038Y-124075271D01*
X3844729Y-123763962D01*
X3478669Y-123519369D01*
X3071925Y-123350890D01*
X2640128Y-123265000D01*
X2199872Y-123265000D01*
X1768075Y-123350890D01*
X1361331Y-123519369D01*
X995271Y-123763962D01*
X683962Y-124075271D01*
X660000Y-124111133D01*
X660000Y-4388867D01*
X683962Y-4424729D01*
X995271Y-4736038D01*
X1361331Y-4980631D01*
X1768075Y-5149110D01*
X2199872Y-5235000D01*
X2640128Y-5235000D01*
X3071925Y-5149110D01*
X3478669Y-4980631D01*
X3844729Y-4736038D01*
X4156038Y-4424729D01*
X4400631Y-4058669D01*
X4569110Y-3651925D01*
X4655000Y-3220128D01*
X4655000Y-2779872D01*
X4569110Y-2348075D01*
X4400631Y-1941331D01*
X4156038Y-1575271D01*
X3844729Y-1263962D01*
X3478669Y-1019369D01*
X3071925Y-850890D01*
X2640128Y-765000D01*
X2199872Y-765000D01*
X1768075Y-850890D01*
X1361331Y-1019369D01*
X995271Y-1263962D01*
X683962Y-1575271D01*
X660000Y-1611133D01*
X660000Y-660000D01*
X9140000Y-660000D01*
X9140000Y-19210830D01*
G37*
G04 #@! TD.AperFunction*
M02*
