M48
; DRILL file {KiCad (5.1.9)-1} date 04/27/21 02:13:12
; FORMAT={-:-/ absolute / metric / decimal}
; #@! TF.CreationDate,2021-04-27T02:13:12+02:00
; #@! TF.GenerationSoftware,Kicad,Pcbnew,(5.1.9)-1
; #@! TF.FileFunction,Plated,1,2,PTH
FMAT,2
METRIC
T1C0.400
T2C0.750
T3C0.800
T4C1.000
T5C2.700
%
G90
G05
T1
X2.54Y-15.875
X5.08Y-22.225
X8.255Y-71.12
X16.51Y-69.215
X16.51Y-83.82
X17.145Y-28.575
X19.685Y-29.845
X20.955Y-33.655
X23.495Y-32.385
X24.765Y-31.115
X28.575Y-33.655
X28.575Y-66.04
X29.21Y-18.415
X29.845Y-32.385
X29.845Y-60.325
X31.115Y-31.115
X31.115Y-54.61
X32.385Y-29.845
X32.385Y-48.895
X33.655Y-28.575
X33.655Y-43.18
X34.925Y-27.305
X34.925Y-37.465
X36.195Y-69.215
T2
X2.54Y-37.465
X2.54Y-66.675
X3.81Y-37.465
X3.81Y-66.675
X5.08Y-37.465
X5.08Y-66.675
X6.35Y-70.485
X6.35Y-71.755
X6.35Y-73.025
X14.605Y-27.305
X14.605Y-28.575
X14.605Y-29.845
X15.875Y-36.195
X15.875Y-37.465
X15.875Y-38.735
X15.875Y-41.91
X15.875Y-43.18
X15.875Y-44.45
X15.875Y-47.625
X15.875Y-48.895
X15.875Y-50.165
X15.875Y-53.34
X15.875Y-54.61
X15.875Y-55.88
X15.875Y-59.055
X15.875Y-60.325
X15.875Y-61.595
X15.875Y-64.77
X15.875Y-66.04
X15.875Y-67.31
X21.59Y-79.375
X22.86Y-79.375
X24.13Y-79.375
T3
X2.54Y-25.4
X2.54Y-33.02
X2.54Y-70.485
X2.54Y-78.105
X6.35Y-76.2
X6.35Y-83.82
X6.985Y-15.875
X6.985Y-20.875
X6.985Y-25.4
X6.985Y-33.02
X10.795Y-14.605
X10.795Y-22.225
X10.795Y-25.4
X10.795Y-33.02
X10.795Y-66.675
X10.795Y-74.295
X10.795Y-77.47
X10.835Y-87.63
X13.335Y-14.605
X13.335Y-22.225
X13.335Y-87.63
X15.875Y-14.605
X15.875Y-22.225
X17.78Y-87.63
X18.415Y-14.605
X18.415Y-22.225
X18.415Y-71.12
X18.415Y-74.295
X18.415Y-77.47
X19.05Y-37.465
X19.05Y-43.18
X19.05Y-48.895
X19.05Y-54.61
X19.05Y-60.325
X19.05Y-66.04
X20.28Y-87.63
X20.955Y-14.605
X20.955Y-22.225
X23.495Y-14.605
X23.495Y-22.225
X26.035Y-14.605
X26.035Y-22.225
X26.035Y-71.12
X26.035Y-74.295
X26.67Y-37.465
X26.67Y-43.18
X26.67Y-48.895
X26.67Y-54.61
X26.67Y-60.325
X26.67Y-66.04
X29.21Y-71.755
X29.21Y-79.375
X32.385Y-71.755
X32.385Y-76.755
T4
X3.81Y-43.18
X3.81Y-45.72
X3.81Y-48.26
X3.81Y-50.8
X3.81Y-53.34
X3.81Y-55.88
X3.81Y-58.42
X3.81Y-60.96
X8.255Y-43.18
X8.255Y-45.72
X8.255Y-48.26
X8.255Y-50.8
X8.255Y-53.34
X8.255Y-55.88
X8.255Y-58.42
X8.255Y-60.96
X10.16Y-94.615
X10.16Y-97.155
X12.7Y-94.615
X12.7Y-97.155
X15.24Y-94.615
X15.24Y-97.155
X17.78Y-94.615
X17.78Y-97.155
X20.32Y-94.615
X20.32Y-97.155
X22.86Y-94.615
X22.86Y-97.155
X25.4Y-94.615
X25.4Y-97.155
X27.94Y-94.615
X27.94Y-97.155
T5
X34.29Y-15.24
X34.29Y-86.36
T0
M30
