G04 #@! TF.GenerationSoftware,KiCad,Pcbnew,(5.1.9)-1*
G04 #@! TF.CreationDate,2021-04-27T02:13:11+02:00*
G04 #@! TF.ProjectId,Clock Divider Main,436c6f63-6b20-4446-9976-69646572204d,rev?*
G04 #@! TF.SameCoordinates,Original*
G04 #@! TF.FileFunction,Legend,Top*
G04 #@! TF.FilePolarity,Positive*
%FSLAX46Y46*%
G04 Gerber Fmt 4.6, Leading zero omitted, Abs format (unit mm)*
G04 Created by KiCad (PCBNEW (5.1.9)-1) date 2021-04-27 02:13:11*
%MOMM*%
%LPD*%
G01*
G04 APERTURE LIST*
%ADD10C,0.100000*%
%ADD11C,0.150000*%
%ADD12C,0.010000*%
%ADD13C,0.120000*%
G04 APERTURE END LIST*
D10*
X1521666Y-99898333D02*
X2021666Y-99898333D01*
X2121666Y-99931666D01*
X2188333Y-99998333D01*
X2221666Y-100098333D01*
X2221666Y-100165000D01*
X2221666Y-99231666D02*
X2221666Y-99565000D01*
X1521666Y-99565000D01*
X2155000Y-98598333D02*
X2188333Y-98631666D01*
X2221666Y-98731666D01*
X2221666Y-98798333D01*
X2188333Y-98898333D01*
X2121666Y-98965000D01*
X2055000Y-98998333D01*
X1921666Y-99031666D01*
X1821666Y-99031666D01*
X1688333Y-98998333D01*
X1621666Y-98965000D01*
X1555000Y-98898333D01*
X1521666Y-98798333D01*
X1521666Y-98731666D01*
X1555000Y-98631666D01*
X1588333Y-98598333D01*
X1521666Y-98098333D02*
X2021666Y-98098333D01*
X2121666Y-98131666D01*
X2188333Y-98198333D01*
X2221666Y-98298333D01*
X2221666Y-98365000D01*
X2221666Y-97431666D02*
X2221666Y-97765000D01*
X1521666Y-97765000D01*
X2155000Y-96798333D02*
X2188333Y-96831666D01*
X2221666Y-96931666D01*
X2221666Y-96998333D01*
X2188333Y-97098333D01*
X2121666Y-97165000D01*
X2055000Y-97198333D01*
X1921666Y-97231666D01*
X1821666Y-97231666D01*
X1688333Y-97198333D01*
X1621666Y-97165000D01*
X1555000Y-97098333D01*
X1521666Y-96998333D01*
X1521666Y-96931666D01*
X1555000Y-96831666D01*
X1588333Y-96798333D01*
X1521666Y-96298333D02*
X2021666Y-96298333D01*
X2121666Y-96331666D01*
X2188333Y-96398333D01*
X2221666Y-96498333D01*
X2221666Y-96565000D01*
X2221666Y-95631666D02*
X2221666Y-95965000D01*
X1521666Y-95965000D01*
X2155000Y-94998333D02*
X2188333Y-95031666D01*
X2221666Y-95131666D01*
X2221666Y-95198333D01*
X2188333Y-95298333D01*
X2121666Y-95365000D01*
X2055000Y-95398333D01*
X1921666Y-95431666D01*
X1821666Y-95431666D01*
X1688333Y-95398333D01*
X1621666Y-95365000D01*
X1555000Y-95298333D01*
X1521666Y-95198333D01*
X1521666Y-95131666D01*
X1555000Y-95031666D01*
X1588333Y-94998333D01*
X1521666Y-94498333D02*
X2021666Y-94498333D01*
X2121666Y-94531666D01*
X2188333Y-94598333D01*
X2221666Y-94698333D01*
X2221666Y-94765000D01*
X2221666Y-93831666D02*
X2221666Y-94165000D01*
X1521666Y-94165000D01*
X2155000Y-93198333D02*
X2188333Y-93231666D01*
X2221666Y-93331666D01*
X2221666Y-93398333D01*
X2188333Y-93498333D01*
X2121666Y-93565000D01*
X2055000Y-93598333D01*
X1921666Y-93631666D01*
X1821666Y-93631666D01*
X1688333Y-93598333D01*
X1621666Y-93565000D01*
X1555000Y-93498333D01*
X1521666Y-93398333D01*
X1521666Y-93331666D01*
X1555000Y-93231666D01*
X1588333Y-93198333D01*
D11*
X11702023Y-5882142D02*
X11654404Y-5929761D01*
X11511547Y-5977380D01*
X11416309Y-5977380D01*
X11273452Y-5929761D01*
X11178214Y-5834523D01*
X11130595Y-5739285D01*
X11082976Y-5548809D01*
X11082976Y-5405952D01*
X11130595Y-5215476D01*
X11178214Y-5120238D01*
X11273452Y-5025000D01*
X11416309Y-4977380D01*
X11511547Y-4977380D01*
X11654404Y-5025000D01*
X11702023Y-5072619D01*
X12273452Y-5977380D02*
X12178214Y-5929761D01*
X12130595Y-5834523D01*
X12130595Y-4977380D01*
X12797261Y-5977380D02*
X12702023Y-5929761D01*
X12654404Y-5882142D01*
X12606785Y-5786904D01*
X12606785Y-5501190D01*
X12654404Y-5405952D01*
X12702023Y-5358333D01*
X12797261Y-5310714D01*
X12940119Y-5310714D01*
X13035357Y-5358333D01*
X13082976Y-5405952D01*
X13130595Y-5501190D01*
X13130595Y-5786904D01*
X13082976Y-5882142D01*
X13035357Y-5929761D01*
X12940119Y-5977380D01*
X12797261Y-5977380D01*
X13987738Y-5929761D02*
X13892500Y-5977380D01*
X13702023Y-5977380D01*
X13606785Y-5929761D01*
X13559166Y-5882142D01*
X13511547Y-5786904D01*
X13511547Y-5501190D01*
X13559166Y-5405952D01*
X13606785Y-5358333D01*
X13702023Y-5310714D01*
X13892500Y-5310714D01*
X13987738Y-5358333D01*
X14416309Y-5977380D02*
X14416309Y-4977380D01*
X14511547Y-5596428D02*
X14797261Y-5977380D01*
X14797261Y-5310714D02*
X14416309Y-5691666D01*
X15987738Y-5977380D02*
X15987738Y-4977380D01*
X16225833Y-4977380D01*
X16368690Y-5025000D01*
X16463928Y-5120238D01*
X16511547Y-5215476D01*
X16559166Y-5405952D01*
X16559166Y-5548809D01*
X16511547Y-5739285D01*
X16463928Y-5834523D01*
X16368690Y-5929761D01*
X16225833Y-5977380D01*
X15987738Y-5977380D01*
X16987738Y-5977380D02*
X16987738Y-5310714D01*
X16987738Y-4977380D02*
X16940119Y-5025000D01*
X16987738Y-5072619D01*
X17035357Y-5025000D01*
X16987738Y-4977380D01*
X16987738Y-5072619D01*
X17368690Y-5310714D02*
X17606785Y-5977380D01*
X17844880Y-5310714D01*
X18225833Y-5977380D02*
X18225833Y-5310714D01*
X18225833Y-4977380D02*
X18178214Y-5025000D01*
X18225833Y-5072619D01*
X18273452Y-5025000D01*
X18225833Y-4977380D01*
X18225833Y-5072619D01*
X19130595Y-5977380D02*
X19130595Y-4977380D01*
X19130595Y-5929761D02*
X19035357Y-5977380D01*
X18844880Y-5977380D01*
X18749642Y-5929761D01*
X18702023Y-5882142D01*
X18654404Y-5786904D01*
X18654404Y-5501190D01*
X18702023Y-5405952D01*
X18749642Y-5358333D01*
X18844880Y-5310714D01*
X19035357Y-5310714D01*
X19130595Y-5358333D01*
X19987738Y-5929761D02*
X19892500Y-5977380D01*
X19702023Y-5977380D01*
X19606785Y-5929761D01*
X19559166Y-5834523D01*
X19559166Y-5453571D01*
X19606785Y-5358333D01*
X19702023Y-5310714D01*
X19892500Y-5310714D01*
X19987738Y-5358333D01*
X20035357Y-5453571D01*
X20035357Y-5548809D01*
X19559166Y-5644047D01*
X20463928Y-5977380D02*
X20463928Y-5310714D01*
X20463928Y-5501190D02*
X20511547Y-5405952D01*
X20559166Y-5358333D01*
X20654404Y-5310714D01*
X20749642Y-5310714D01*
X21844880Y-5977380D02*
X21844880Y-4977380D01*
X22178214Y-5691666D01*
X22511547Y-4977380D01*
X22511547Y-5977380D01*
X23416309Y-5977380D02*
X23416309Y-5453571D01*
X23368690Y-5358333D01*
X23273452Y-5310714D01*
X23082976Y-5310714D01*
X22987738Y-5358333D01*
X23416309Y-5929761D02*
X23321071Y-5977380D01*
X23082976Y-5977380D01*
X22987738Y-5929761D01*
X22940119Y-5834523D01*
X22940119Y-5739285D01*
X22987738Y-5644047D01*
X23082976Y-5596428D01*
X23321071Y-5596428D01*
X23416309Y-5548809D01*
X23892500Y-5977380D02*
X23892500Y-5310714D01*
X23892500Y-4977380D02*
X23844880Y-5025000D01*
X23892500Y-5072619D01*
X23940119Y-5025000D01*
X23892500Y-4977380D01*
X23892500Y-5072619D01*
X24368690Y-5310714D02*
X24368690Y-5977380D01*
X24368690Y-5405952D02*
X24416309Y-5358333D01*
X24511547Y-5310714D01*
X24654404Y-5310714D01*
X24749642Y-5358333D01*
X24797261Y-5453571D01*
X24797261Y-5977380D01*
X11702023Y-7627380D02*
X11368690Y-7151190D01*
X11130595Y-7627380D02*
X11130595Y-6627380D01*
X11511547Y-6627380D01*
X11606785Y-6675000D01*
X11654404Y-6722619D01*
X11702023Y-6817857D01*
X11702023Y-6960714D01*
X11654404Y-7055952D01*
X11606785Y-7103571D01*
X11511547Y-7151190D01*
X11130595Y-7151190D01*
X12511547Y-7579761D02*
X12416309Y-7627380D01*
X12225833Y-7627380D01*
X12130595Y-7579761D01*
X12082976Y-7484523D01*
X12082976Y-7103571D01*
X12130595Y-7008333D01*
X12225833Y-6960714D01*
X12416309Y-6960714D01*
X12511547Y-7008333D01*
X12559166Y-7103571D01*
X12559166Y-7198809D01*
X12082976Y-7294047D01*
X12892500Y-6960714D02*
X13130595Y-7627380D01*
X13368690Y-6960714D01*
X14702023Y-6627380D02*
X14797261Y-6627380D01*
X14892500Y-6675000D01*
X14940119Y-6722619D01*
X14987738Y-6817857D01*
X15035357Y-7008333D01*
X15035357Y-7246428D01*
X14987738Y-7436904D01*
X14940119Y-7532142D01*
X14892500Y-7579761D01*
X14797261Y-7627380D01*
X14702023Y-7627380D01*
X14606785Y-7579761D01*
X14559166Y-7532142D01*
X14511547Y-7436904D01*
X14463928Y-7246428D01*
X14463928Y-7008333D01*
X14511547Y-6817857D01*
X14559166Y-6722619D01*
X14606785Y-6675000D01*
X14702023Y-6627380D01*
X15987738Y-7627380D02*
X15416309Y-7627380D01*
X15702023Y-7627380D02*
X15702023Y-6627380D01*
X15606785Y-6770238D01*
X15511547Y-6865476D01*
X15416309Y-6913095D01*
X16606785Y-6627380D02*
X16702023Y-6627380D01*
X16797261Y-6675000D01*
X16844880Y-6722619D01*
X16892500Y-6817857D01*
X16940119Y-7008333D01*
X16940119Y-7246428D01*
X16892500Y-7436904D01*
X16844880Y-7532142D01*
X16797261Y-7579761D01*
X16702023Y-7627380D01*
X16606785Y-7627380D01*
X16511547Y-7579761D01*
X16463928Y-7532142D01*
X16416309Y-7436904D01*
X16368690Y-7246428D01*
X16368690Y-7008333D01*
X16416309Y-6817857D01*
X16463928Y-6722619D01*
X16511547Y-6675000D01*
X16606785Y-6627380D01*
X17797261Y-6960714D02*
X17797261Y-7627380D01*
X17559166Y-6579761D02*
X17321071Y-7294047D01*
X17940119Y-7294047D01*
X18273452Y-6722619D02*
X18321071Y-6675000D01*
X18416309Y-6627380D01*
X18654404Y-6627380D01*
X18749642Y-6675000D01*
X18797261Y-6722619D01*
X18844880Y-6817857D01*
X18844880Y-6913095D01*
X18797261Y-7055952D01*
X18225833Y-7627380D01*
X18844880Y-7627380D01*
X19797261Y-7627380D02*
X19225833Y-7627380D01*
X19511547Y-7627380D02*
X19511547Y-6627380D01*
X19416309Y-6770238D01*
X19321071Y-6865476D01*
X19225833Y-6913095D01*
D12*
G04 #@! TO.C,G\u002A\u002A\u002A*
G36*
X8643089Y-1676229D02*
G01*
X8658741Y-1797829D01*
X8656837Y-2001949D01*
X8656052Y-2107181D01*
X8649100Y-2396033D01*
X8626688Y-2566612D01*
X8586483Y-2633681D01*
X8572500Y-2635971D01*
X8481195Y-2598371D01*
X8312628Y-2502277D01*
X8098766Y-2366273D01*
X8034907Y-2323426D01*
X7580867Y-2015174D01*
X7968065Y-1854704D01*
X8272368Y-1726385D01*
X8471744Y-1648522D01*
X8588037Y-1629132D01*
X8643089Y-1676229D01*
G37*
X8643089Y-1676229D02*
X8658741Y-1797829D01*
X8656837Y-2001949D01*
X8656052Y-2107181D01*
X8649100Y-2396033D01*
X8626688Y-2566612D01*
X8586483Y-2633681D01*
X8572500Y-2635971D01*
X8481195Y-2598371D01*
X8312628Y-2502277D01*
X8098766Y-2366273D01*
X8034907Y-2323426D01*
X7580867Y-2015174D01*
X7968065Y-1854704D01*
X8272368Y-1726385D01*
X8471744Y-1648522D01*
X8588037Y-1629132D01*
X8643089Y-1676229D01*
G36*
X5422294Y-1745838D02*
G01*
X5654355Y-1830666D01*
X5701297Y-1849997D01*
X5926716Y-1951489D01*
X6091523Y-2039463D01*
X6167519Y-2098415D01*
X6169192Y-2107244D01*
X6111342Y-2165770D01*
X5977196Y-2276610D01*
X5798839Y-2415540D01*
X5608356Y-2558341D01*
X5437832Y-2680791D01*
X5319350Y-2758670D01*
X5286041Y-2773947D01*
X5267104Y-2712774D01*
X5242203Y-2551047D01*
X5216214Y-2321456D01*
X5212035Y-2277978D01*
X5192508Y-2028432D01*
X5184029Y-1829343D01*
X5188140Y-1719507D01*
X5189621Y-1713973D01*
X5258675Y-1704626D01*
X5422294Y-1745838D01*
G37*
X5422294Y-1745838D02*
X5654355Y-1830666D01*
X5701297Y-1849997D01*
X5926716Y-1951489D01*
X6091523Y-2039463D01*
X6167519Y-2098415D01*
X6169192Y-2107244D01*
X6111342Y-2165770D01*
X5977196Y-2276610D01*
X5798839Y-2415540D01*
X5608356Y-2558341D01*
X5437832Y-2680791D01*
X5319350Y-2758670D01*
X5286041Y-2773947D01*
X5267104Y-2712774D01*
X5242203Y-2551047D01*
X5216214Y-2321456D01*
X5212035Y-2277978D01*
X5192508Y-2028432D01*
X5184029Y-1829343D01*
X5188140Y-1719507D01*
X5189621Y-1713973D01*
X5258675Y-1704626D01*
X5422294Y-1745838D01*
G36*
X7441975Y-2155533D02*
G01*
X7829529Y-2304561D01*
X8176874Y-2567268D01*
X8210458Y-2600178D01*
X8449055Y-2877088D01*
X8599725Y-3160374D01*
X8682509Y-3496590D01*
X8708932Y-3758159D01*
X8719654Y-4033677D01*
X8701742Y-4235634D01*
X8644670Y-4422923D01*
X8554921Y-4619864D01*
X8369587Y-4998673D01*
X8639200Y-5222629D01*
X8988462Y-5593667D01*
X9262837Y-6050043D01*
X9446494Y-6557167D01*
X9523602Y-7080445D01*
X9525000Y-7158282D01*
X9464094Y-7686320D01*
X9291737Y-8184219D01*
X9023466Y-8635702D01*
X8674822Y-9024491D01*
X8261342Y-9334310D01*
X7798566Y-9548880D01*
X7302032Y-9651923D01*
X7138071Y-9658684D01*
X6950332Y-9668029D01*
X6844696Y-9717592D01*
X6769815Y-9839664D01*
X6739853Y-9909124D01*
X6656088Y-10277435D01*
X6686622Y-10687429D01*
X6826393Y-11120591D01*
X7070336Y-11558404D01*
X7259598Y-11809623D01*
X7428260Y-12030034D01*
X7505470Y-12186237D01*
X7499114Y-12303485D01*
X7439526Y-12385842D01*
X7309072Y-12459092D01*
X7158517Y-12425022D01*
X6973972Y-12278000D01*
X6854337Y-12148553D01*
X6504002Y-11662667D01*
X6271051Y-11155772D01*
X6162200Y-10643744D01*
X6154776Y-10494211D01*
X6159742Y-10222845D01*
X6177931Y-9975606D01*
X6202845Y-9818508D01*
X6225402Y-9703381D01*
X6204438Y-9623134D01*
X6116350Y-9549707D01*
X5937535Y-9455041D01*
X5868634Y-9421221D01*
X5435674Y-9144047D01*
X5046572Y-8769867D01*
X4737301Y-8335126D01*
X4669123Y-8205895D01*
X4580392Y-8009189D01*
X4524836Y-7833821D01*
X4494911Y-7637432D01*
X4483077Y-7377661D01*
X4481513Y-7152105D01*
X4485439Y-6828856D01*
X4502416Y-6596295D01*
X4540242Y-6411526D01*
X4606716Y-6231658D01*
X4675954Y-6082632D01*
X4841006Y-5804538D01*
X5061785Y-5512723D01*
X5229765Y-5329758D01*
X5589137Y-4977937D01*
X5460820Y-4795021D01*
X5267922Y-4405417D01*
X5191035Y-3958652D01*
X5197869Y-3711863D01*
X5302282Y-3238612D01*
X5515150Y-2831640D01*
X5822542Y-2503451D01*
X6210521Y-2266544D01*
X6665156Y-2133421D01*
X6985000Y-2108462D01*
X7441975Y-2155533D01*
G37*
X7441975Y-2155533D02*
X7829529Y-2304561D01*
X8176874Y-2567268D01*
X8210458Y-2600178D01*
X8449055Y-2877088D01*
X8599725Y-3160374D01*
X8682509Y-3496590D01*
X8708932Y-3758159D01*
X8719654Y-4033677D01*
X8701742Y-4235634D01*
X8644670Y-4422923D01*
X8554921Y-4619864D01*
X8369587Y-4998673D01*
X8639200Y-5222629D01*
X8988462Y-5593667D01*
X9262837Y-6050043D01*
X9446494Y-6557167D01*
X9523602Y-7080445D01*
X9525000Y-7158282D01*
X9464094Y-7686320D01*
X9291737Y-8184219D01*
X9023466Y-8635702D01*
X8674822Y-9024491D01*
X8261342Y-9334310D01*
X7798566Y-9548880D01*
X7302032Y-9651923D01*
X7138071Y-9658684D01*
X6950332Y-9668029D01*
X6844696Y-9717592D01*
X6769815Y-9839664D01*
X6739853Y-9909124D01*
X6656088Y-10277435D01*
X6686622Y-10687429D01*
X6826393Y-11120591D01*
X7070336Y-11558404D01*
X7259598Y-11809623D01*
X7428260Y-12030034D01*
X7505470Y-12186237D01*
X7499114Y-12303485D01*
X7439526Y-12385842D01*
X7309072Y-12459092D01*
X7158517Y-12425022D01*
X6973972Y-12278000D01*
X6854337Y-12148553D01*
X6504002Y-11662667D01*
X6271051Y-11155772D01*
X6162200Y-10643744D01*
X6154776Y-10494211D01*
X6159742Y-10222845D01*
X6177931Y-9975606D01*
X6202845Y-9818508D01*
X6225402Y-9703381D01*
X6204438Y-9623134D01*
X6116350Y-9549707D01*
X5937535Y-9455041D01*
X5868634Y-9421221D01*
X5435674Y-9144047D01*
X5046572Y-8769867D01*
X4737301Y-8335126D01*
X4669123Y-8205895D01*
X4580392Y-8009189D01*
X4524836Y-7833821D01*
X4494911Y-7637432D01*
X4483077Y-7377661D01*
X4481513Y-7152105D01*
X4485439Y-6828856D01*
X4502416Y-6596295D01*
X4540242Y-6411526D01*
X4606716Y-6231658D01*
X4675954Y-6082632D01*
X4841006Y-5804538D01*
X5061785Y-5512723D01*
X5229765Y-5329758D01*
X5589137Y-4977937D01*
X5460820Y-4795021D01*
X5267922Y-4405417D01*
X5191035Y-3958652D01*
X5197869Y-3711863D01*
X5302282Y-3238612D01*
X5515150Y-2831640D01*
X5822542Y-2503451D01*
X6210521Y-2266544D01*
X6665156Y-2133421D01*
X6985000Y-2108462D01*
X7441975Y-2155533D01*
D13*
G04 #@! TO.C,J2*
X6925000Y-62290000D02*
X9585000Y-62290000D01*
X6925000Y-44450000D02*
X6925000Y-62290000D01*
X9585000Y-44450000D02*
X9585000Y-62290000D01*
X6925000Y-44450000D02*
X9585000Y-44450000D01*
X6925000Y-43180000D02*
X6925000Y-41850000D01*
X6925000Y-41850000D02*
X8255000Y-41850000D01*
G04 #@! TO.C,J1*
X2480000Y-62290000D02*
X5140000Y-62290000D01*
X2480000Y-44450000D02*
X2480000Y-62290000D01*
X5140000Y-44450000D02*
X5140000Y-62290000D01*
X2480000Y-44450000D02*
X5140000Y-44450000D01*
X2480000Y-43180000D02*
X2480000Y-41850000D01*
X2480000Y-41850000D02*
X3810000Y-41850000D01*
G04 #@! TO.C,R27*
X19590000Y-36095000D02*
X19590000Y-36425000D01*
X26130000Y-36095000D02*
X19590000Y-36095000D01*
X26130000Y-36425000D02*
X26130000Y-36095000D01*
X19590000Y-38835000D02*
X19590000Y-38505000D01*
X26130000Y-38835000D02*
X19590000Y-38835000D01*
X26130000Y-38505000D02*
X26130000Y-38835000D01*
G04 #@! TO.C,Q11*
X17725000Y-39265000D02*
X17725000Y-35665000D01*
X17713478Y-35626522D02*
G75*
G03*
X13275000Y-37465000I-1838478J-1838478D01*
G01*
X17713478Y-39303478D02*
G75*
G02*
X13275000Y-37465000I-1838478J1838478D01*
G01*
G04 #@! TO.C,U1*
X9465000Y-16165000D02*
X9465000Y-17415000D01*
X27365000Y-16165000D02*
X9465000Y-16165000D01*
X27365000Y-20665000D02*
X27365000Y-16165000D01*
X9465000Y-20665000D02*
X27365000Y-20665000D01*
X9465000Y-19415000D02*
X9465000Y-20665000D01*
X9465000Y-17415000D02*
G75*
G02*
X9465000Y-19415000I0J-1000000D01*
G01*
G04 #@! TO.C,R16*
X19590000Y-64670000D02*
X19590000Y-65000000D01*
X26130000Y-64670000D02*
X19590000Y-64670000D01*
X26130000Y-65000000D02*
X26130000Y-64670000D01*
X19590000Y-67410000D02*
X19590000Y-67080000D01*
X26130000Y-67410000D02*
X19590000Y-67410000D01*
X26130000Y-67080000D02*
X26130000Y-67410000D01*
G04 #@! TO.C,R15*
X19590000Y-58955000D02*
X19590000Y-59285000D01*
X26130000Y-58955000D02*
X19590000Y-58955000D01*
X26130000Y-59285000D02*
X26130000Y-58955000D01*
X19590000Y-61695000D02*
X19590000Y-61365000D01*
X26130000Y-61695000D02*
X19590000Y-61695000D01*
X26130000Y-61365000D02*
X26130000Y-61695000D01*
G04 #@! TO.C,R14*
X19590000Y-53240000D02*
X19590000Y-53570000D01*
X26130000Y-53240000D02*
X19590000Y-53240000D01*
X26130000Y-53570000D02*
X26130000Y-53240000D01*
X19590000Y-55980000D02*
X19590000Y-55650000D01*
X26130000Y-55980000D02*
X19590000Y-55980000D01*
X26130000Y-55650000D02*
X26130000Y-55980000D01*
G04 #@! TO.C,R13*
X19590000Y-47525000D02*
X19590000Y-47855000D01*
X26130000Y-47525000D02*
X19590000Y-47525000D01*
X26130000Y-47855000D02*
X26130000Y-47525000D01*
X19590000Y-50265000D02*
X19590000Y-49935000D01*
X26130000Y-50265000D02*
X19590000Y-50265000D01*
X26130000Y-49935000D02*
X26130000Y-50265000D01*
G04 #@! TO.C,R12*
X19590000Y-41810000D02*
X19590000Y-42140000D01*
X26130000Y-41810000D02*
X19590000Y-41810000D01*
X26130000Y-42140000D02*
X26130000Y-41810000D01*
X19590000Y-44550000D02*
X19590000Y-44220000D01*
X26130000Y-44550000D02*
X19590000Y-44550000D01*
X26130000Y-44220000D02*
X26130000Y-44550000D01*
G04 #@! TO.C,R11*
X8355000Y-25940000D02*
X8025000Y-25940000D01*
X8355000Y-32480000D02*
X8355000Y-25940000D01*
X8025000Y-32480000D02*
X8355000Y-32480000D01*
X5615000Y-25940000D02*
X5945000Y-25940000D01*
X5615000Y-32480000D02*
X5615000Y-25940000D01*
X5945000Y-32480000D02*
X5615000Y-32480000D01*
G04 #@! TO.C,R10*
X12165000Y-25940000D02*
X11835000Y-25940000D01*
X12165000Y-32480000D02*
X12165000Y-25940000D01*
X11835000Y-32480000D02*
X12165000Y-32480000D01*
X9425000Y-25940000D02*
X9755000Y-25940000D01*
X9425000Y-32480000D02*
X9425000Y-25940000D01*
X9755000Y-32480000D02*
X9425000Y-32480000D01*
G04 #@! TO.C,R9*
X4980000Y-83280000D02*
X5310000Y-83280000D01*
X4980000Y-76740000D02*
X4980000Y-83280000D01*
X5310000Y-76740000D02*
X4980000Y-76740000D01*
X7720000Y-83280000D02*
X7390000Y-83280000D01*
X7720000Y-76740000D02*
X7720000Y-83280000D01*
X7390000Y-76740000D02*
X7720000Y-76740000D01*
G04 #@! TO.C,R8*
X12165000Y-67215000D02*
X11835000Y-67215000D01*
X12165000Y-73755000D02*
X12165000Y-67215000D01*
X11835000Y-73755000D02*
X12165000Y-73755000D01*
X9425000Y-67215000D02*
X9755000Y-67215000D01*
X9425000Y-73755000D02*
X9425000Y-67215000D01*
X9755000Y-73755000D02*
X9425000Y-73755000D01*
G04 #@! TO.C,R7*
X1170000Y-77565000D02*
X1500000Y-77565000D01*
X1170000Y-71025000D02*
X1170000Y-77565000D01*
X1500000Y-71025000D02*
X1170000Y-71025000D01*
X3910000Y-77565000D02*
X3580000Y-77565000D01*
X3910000Y-71025000D02*
X3910000Y-77565000D01*
X3580000Y-71025000D02*
X3910000Y-71025000D01*
G04 #@! TO.C,R6*
X3910000Y-25940000D02*
X3580000Y-25940000D01*
X3910000Y-32480000D02*
X3910000Y-25940000D01*
X3580000Y-32480000D02*
X3910000Y-32480000D01*
X1170000Y-25940000D02*
X1500000Y-25940000D01*
X1170000Y-32480000D02*
X1170000Y-25940000D01*
X1500000Y-32480000D02*
X1170000Y-32480000D01*
G04 #@! TO.C,R5*
X18955000Y-72925000D02*
X18955000Y-73255000D01*
X25495000Y-72925000D02*
X18955000Y-72925000D01*
X25495000Y-73255000D02*
X25495000Y-72925000D01*
X18955000Y-75665000D02*
X18955000Y-75335000D01*
X25495000Y-75665000D02*
X18955000Y-75665000D01*
X25495000Y-75335000D02*
X25495000Y-75665000D01*
G04 #@! TO.C,R2*
X27840000Y-78835000D02*
X28170000Y-78835000D01*
X27840000Y-72295000D02*
X27840000Y-78835000D01*
X28170000Y-72295000D02*
X27840000Y-72295000D01*
X30580000Y-78835000D02*
X30250000Y-78835000D01*
X30580000Y-72295000D02*
X30580000Y-78835000D01*
X30250000Y-72295000D02*
X30580000Y-72295000D01*
G04 #@! TO.C,R1*
X18955000Y-69750000D02*
X18955000Y-70080000D01*
X25495000Y-69750000D02*
X18955000Y-69750000D01*
X25495000Y-70080000D02*
X25495000Y-69750000D01*
X18955000Y-72490000D02*
X18955000Y-72160000D01*
X25495000Y-72490000D02*
X18955000Y-72490000D01*
X25495000Y-72160000D02*
X25495000Y-72490000D01*
G04 #@! TO.C,Q10*
X17725000Y-67840000D02*
X17725000Y-64240000D01*
X17713478Y-64201522D02*
G75*
G03*
X13275000Y-66040000I-1838478J-1838478D01*
G01*
X17713478Y-67878478D02*
G75*
G02*
X13275000Y-66040000I-1838478J1838478D01*
G01*
G04 #@! TO.C,Q9*
X17725000Y-62125000D02*
X17725000Y-58525000D01*
X17713478Y-58486522D02*
G75*
G03*
X13275000Y-60325000I-1838478J-1838478D01*
G01*
X17713478Y-62163478D02*
G75*
G02*
X13275000Y-60325000I-1838478J1838478D01*
G01*
G04 #@! TO.C,Q8*
X17725000Y-56410000D02*
X17725000Y-52810000D01*
X17713478Y-52771522D02*
G75*
G03*
X13275000Y-54610000I-1838478J-1838478D01*
G01*
X17713478Y-56448478D02*
G75*
G02*
X13275000Y-54610000I-1838478J1838478D01*
G01*
G04 #@! TO.C,Q7*
X17725000Y-50695000D02*
X17725000Y-47095000D01*
X17713478Y-47056522D02*
G75*
G03*
X13275000Y-48895000I-1838478J-1838478D01*
G01*
X17713478Y-50733478D02*
G75*
G02*
X13275000Y-48895000I-1838478J1838478D01*
G01*
G04 #@! TO.C,Q6*
X17725000Y-44980000D02*
X17725000Y-41380000D01*
X17713478Y-41341522D02*
G75*
G03*
X13275000Y-43180000I-1838478J-1838478D01*
G01*
X17713478Y-45018478D02*
G75*
G02*
X13275000Y-43180000I-1838478J1838478D01*
G01*
G04 #@! TO.C,Q5*
X12755000Y-26775000D02*
X12755000Y-30375000D01*
X12766522Y-30413478D02*
G75*
G03*
X17205000Y-28575000I1838478J1838478D01*
G01*
X12766522Y-26736522D02*
G75*
G02*
X17205000Y-28575000I1838478J-1838478D01*
G01*
G04 #@! TO.C,Q4*
X4500000Y-69955000D02*
X4500000Y-73555000D01*
X4511522Y-73593478D02*
G75*
G03*
X8950000Y-71755000I1838478J1838478D01*
G01*
X4511522Y-69916522D02*
G75*
G02*
X8950000Y-71755000I1838478J-1838478D01*
G01*
G04 #@! TO.C,Q3*
X2010000Y-68525000D02*
X5610000Y-68525000D01*
X5648478Y-68513478D02*
G75*
G03*
X3810000Y-64075000I-1838478J1838478D01*
G01*
X1971522Y-68513478D02*
G75*
G02*
X3810000Y-64075000I1838478J1838478D01*
G01*
G04 #@! TO.C,Q2*
X2010000Y-39315000D02*
X5610000Y-39315000D01*
X5648478Y-39303478D02*
G75*
G03*
X3810000Y-34865000I-1838478J1838478D01*
G01*
X1971522Y-39303478D02*
G75*
G02*
X3810000Y-34865000I1838478J1838478D01*
G01*
G04 #@! TO.C,Q1*
X21060000Y-81225000D02*
X24660000Y-81225000D01*
X24698478Y-81213478D02*
G75*
G03*
X22860000Y-76775000I-1838478J1838478D01*
G01*
X21021522Y-81213478D02*
G75*
G02*
X22860000Y-76775000I1838478J1838478D01*
G01*
G04 #@! TO.C,D3*
X13085000Y-76350000D02*
X13085000Y-78590000D01*
X13325000Y-76350000D02*
X13325000Y-78590000D01*
X13205000Y-76350000D02*
X13205000Y-78590000D01*
X17375000Y-77470000D02*
X16725000Y-77470000D01*
X11835000Y-77470000D02*
X12485000Y-77470000D01*
X16725000Y-76350000D02*
X12485000Y-76350000D01*
X16725000Y-78590000D02*
X16725000Y-76350000D01*
X12485000Y-78590000D02*
X16725000Y-78590000D01*
X12485000Y-76350000D02*
X12485000Y-78590000D01*
G04 #@! TO.C,C5*
X14639775Y-89355000D02*
X14639775Y-88855000D01*
X14889775Y-89105000D02*
X14389775Y-89105000D01*
X9484000Y-87914000D02*
X9484000Y-87346000D01*
X9524000Y-88148000D02*
X9524000Y-87112000D01*
X9564000Y-88307000D02*
X9564000Y-86953000D01*
X9604000Y-88435000D02*
X9604000Y-86825000D01*
X9644000Y-88545000D02*
X9644000Y-86715000D01*
X9684000Y-88641000D02*
X9684000Y-86619000D01*
X9724000Y-88728000D02*
X9724000Y-86532000D01*
X9764000Y-88808000D02*
X9764000Y-86452000D01*
X9804000Y-86590000D02*
X9804000Y-86379000D01*
X9804000Y-88881000D02*
X9804000Y-88670000D01*
X9844000Y-86590000D02*
X9844000Y-86311000D01*
X9844000Y-88949000D02*
X9844000Y-88670000D01*
X9884000Y-86590000D02*
X9884000Y-86247000D01*
X9884000Y-89013000D02*
X9884000Y-88670000D01*
X9924000Y-86590000D02*
X9924000Y-86187000D01*
X9924000Y-89073000D02*
X9924000Y-88670000D01*
X9964000Y-86590000D02*
X9964000Y-86130000D01*
X9964000Y-89130000D02*
X9964000Y-88670000D01*
X10004000Y-86590000D02*
X10004000Y-86076000D01*
X10004000Y-89184000D02*
X10004000Y-88670000D01*
X10044000Y-86590000D02*
X10044000Y-86025000D01*
X10044000Y-89235000D02*
X10044000Y-88670000D01*
X10084000Y-86590000D02*
X10084000Y-85977000D01*
X10084000Y-89283000D02*
X10084000Y-88670000D01*
X10124000Y-86590000D02*
X10124000Y-85931000D01*
X10124000Y-89329000D02*
X10124000Y-88670000D01*
X10164000Y-86590000D02*
X10164000Y-85887000D01*
X10164000Y-89373000D02*
X10164000Y-88670000D01*
X10204000Y-86590000D02*
X10204000Y-85845000D01*
X10204000Y-89415000D02*
X10204000Y-88670000D01*
X10244000Y-86590000D02*
X10244000Y-85804000D01*
X10244000Y-89456000D02*
X10244000Y-88670000D01*
X10284000Y-86590000D02*
X10284000Y-85766000D01*
X10284000Y-89494000D02*
X10284000Y-88670000D01*
X10324000Y-86590000D02*
X10324000Y-85729000D01*
X10324000Y-89531000D02*
X10324000Y-88670000D01*
X10364000Y-86590000D02*
X10364000Y-85693000D01*
X10364000Y-89567000D02*
X10364000Y-88670000D01*
X10404000Y-86590000D02*
X10404000Y-85659000D01*
X10404000Y-89601000D02*
X10404000Y-88670000D01*
X10444000Y-86590000D02*
X10444000Y-85626000D01*
X10444000Y-89634000D02*
X10444000Y-88670000D01*
X10484000Y-86590000D02*
X10484000Y-85595000D01*
X10484000Y-89665000D02*
X10484000Y-88670000D01*
X10524000Y-86590000D02*
X10524000Y-85565000D01*
X10524000Y-89695000D02*
X10524000Y-88670000D01*
X10564000Y-86590000D02*
X10564000Y-85535000D01*
X10564000Y-89725000D02*
X10564000Y-88670000D01*
X10604000Y-86590000D02*
X10604000Y-85508000D01*
X10604000Y-89752000D02*
X10604000Y-88670000D01*
X10644000Y-86590000D02*
X10644000Y-85481000D01*
X10644000Y-89779000D02*
X10644000Y-88670000D01*
X10684000Y-86590000D02*
X10684000Y-85455000D01*
X10684000Y-89805000D02*
X10684000Y-88670000D01*
X10724000Y-86590000D02*
X10724000Y-85430000D01*
X10724000Y-89830000D02*
X10724000Y-88670000D01*
X10764000Y-86590000D02*
X10764000Y-85406000D01*
X10764000Y-89854000D02*
X10764000Y-88670000D01*
X10804000Y-86590000D02*
X10804000Y-85383000D01*
X10804000Y-89877000D02*
X10804000Y-88670000D01*
X10844000Y-86590000D02*
X10844000Y-85362000D01*
X10844000Y-89898000D02*
X10844000Y-88670000D01*
X10884000Y-86590000D02*
X10884000Y-85340000D01*
X10884000Y-89920000D02*
X10884000Y-88670000D01*
X10924000Y-86590000D02*
X10924000Y-85320000D01*
X10924000Y-89940000D02*
X10924000Y-88670000D01*
X10964000Y-86590000D02*
X10964000Y-85301000D01*
X10964000Y-89959000D02*
X10964000Y-88670000D01*
X11004000Y-86590000D02*
X11004000Y-85282000D01*
X11004000Y-89978000D02*
X11004000Y-88670000D01*
X11044000Y-86590000D02*
X11044000Y-85265000D01*
X11044000Y-89995000D02*
X11044000Y-88670000D01*
X11084000Y-86590000D02*
X11084000Y-85248000D01*
X11084000Y-90012000D02*
X11084000Y-88670000D01*
X11124000Y-86590000D02*
X11124000Y-85232000D01*
X11124000Y-90028000D02*
X11124000Y-88670000D01*
X11164000Y-86590000D02*
X11164000Y-85216000D01*
X11164000Y-90044000D02*
X11164000Y-88670000D01*
X11204000Y-86590000D02*
X11204000Y-85202000D01*
X11204000Y-90058000D02*
X11204000Y-88670000D01*
X11244000Y-86590000D02*
X11244000Y-85188000D01*
X11244000Y-90072000D02*
X11244000Y-88670000D01*
X11284000Y-86590000D02*
X11284000Y-85175000D01*
X11284000Y-90085000D02*
X11284000Y-88670000D01*
X11324000Y-86590000D02*
X11324000Y-85162000D01*
X11324000Y-90098000D02*
X11324000Y-88670000D01*
X11364000Y-86590000D02*
X11364000Y-85150000D01*
X11364000Y-90110000D02*
X11364000Y-88670000D01*
X11405000Y-86590000D02*
X11405000Y-85139000D01*
X11405000Y-90121000D02*
X11405000Y-88670000D01*
X11445000Y-86590000D02*
X11445000Y-85129000D01*
X11445000Y-90131000D02*
X11445000Y-88670000D01*
X11485000Y-86590000D02*
X11485000Y-85119000D01*
X11485000Y-90141000D02*
X11485000Y-88670000D01*
X11525000Y-86590000D02*
X11525000Y-85110000D01*
X11525000Y-90150000D02*
X11525000Y-88670000D01*
X11565000Y-86590000D02*
X11565000Y-85102000D01*
X11565000Y-90158000D02*
X11565000Y-88670000D01*
X11605000Y-86590000D02*
X11605000Y-85094000D01*
X11605000Y-90166000D02*
X11605000Y-88670000D01*
X11645000Y-86590000D02*
X11645000Y-85087000D01*
X11645000Y-90173000D02*
X11645000Y-88670000D01*
X11685000Y-86590000D02*
X11685000Y-85080000D01*
X11685000Y-90180000D02*
X11685000Y-88670000D01*
X11725000Y-86590000D02*
X11725000Y-85074000D01*
X11725000Y-90186000D02*
X11725000Y-88670000D01*
X11765000Y-86590000D02*
X11765000Y-85069000D01*
X11765000Y-90191000D02*
X11765000Y-88670000D01*
X11805000Y-86590000D02*
X11805000Y-85065000D01*
X11805000Y-90195000D02*
X11805000Y-88670000D01*
X11845000Y-86590000D02*
X11845000Y-85061000D01*
X11845000Y-90199000D02*
X11845000Y-88670000D01*
X11885000Y-90203000D02*
X11885000Y-85057000D01*
X11925000Y-90206000D02*
X11925000Y-85054000D01*
X11965000Y-90208000D02*
X11965000Y-85052000D01*
X12005000Y-90209000D02*
X12005000Y-85051000D01*
X12045000Y-90210000D02*
X12045000Y-85050000D01*
X12085000Y-90210000D02*
X12085000Y-85050000D01*
X14705000Y-87630000D02*
G75*
G03*
X14705000Y-87630000I-2620000J0D01*
G01*
G04 #@! TO.C,C3*
X16475225Y-85905000D02*
X16475225Y-86405000D01*
X16225225Y-86155000D02*
X16725225Y-86155000D01*
X21631000Y-87346000D02*
X21631000Y-87914000D01*
X21591000Y-87112000D02*
X21591000Y-88148000D01*
X21551000Y-86953000D02*
X21551000Y-88307000D01*
X21511000Y-86825000D02*
X21511000Y-88435000D01*
X21471000Y-86715000D02*
X21471000Y-88545000D01*
X21431000Y-86619000D02*
X21431000Y-88641000D01*
X21391000Y-86532000D02*
X21391000Y-88728000D01*
X21351000Y-86452000D02*
X21351000Y-88808000D01*
X21311000Y-88670000D02*
X21311000Y-88881000D01*
X21311000Y-86379000D02*
X21311000Y-86590000D01*
X21271000Y-88670000D02*
X21271000Y-88949000D01*
X21271000Y-86311000D02*
X21271000Y-86590000D01*
X21231000Y-88670000D02*
X21231000Y-89013000D01*
X21231000Y-86247000D02*
X21231000Y-86590000D01*
X21191000Y-88670000D02*
X21191000Y-89073000D01*
X21191000Y-86187000D02*
X21191000Y-86590000D01*
X21151000Y-88670000D02*
X21151000Y-89130000D01*
X21151000Y-86130000D02*
X21151000Y-86590000D01*
X21111000Y-88670000D02*
X21111000Y-89184000D01*
X21111000Y-86076000D02*
X21111000Y-86590000D01*
X21071000Y-88670000D02*
X21071000Y-89235000D01*
X21071000Y-86025000D02*
X21071000Y-86590000D01*
X21031000Y-88670000D02*
X21031000Y-89283000D01*
X21031000Y-85977000D02*
X21031000Y-86590000D01*
X20991000Y-88670000D02*
X20991000Y-89329000D01*
X20991000Y-85931000D02*
X20991000Y-86590000D01*
X20951000Y-88670000D02*
X20951000Y-89373000D01*
X20951000Y-85887000D02*
X20951000Y-86590000D01*
X20911000Y-88670000D02*
X20911000Y-89415000D01*
X20911000Y-85845000D02*
X20911000Y-86590000D01*
X20871000Y-88670000D02*
X20871000Y-89456000D01*
X20871000Y-85804000D02*
X20871000Y-86590000D01*
X20831000Y-88670000D02*
X20831000Y-89494000D01*
X20831000Y-85766000D02*
X20831000Y-86590000D01*
X20791000Y-88670000D02*
X20791000Y-89531000D01*
X20791000Y-85729000D02*
X20791000Y-86590000D01*
X20751000Y-88670000D02*
X20751000Y-89567000D01*
X20751000Y-85693000D02*
X20751000Y-86590000D01*
X20711000Y-88670000D02*
X20711000Y-89601000D01*
X20711000Y-85659000D02*
X20711000Y-86590000D01*
X20671000Y-88670000D02*
X20671000Y-89634000D01*
X20671000Y-85626000D02*
X20671000Y-86590000D01*
X20631000Y-88670000D02*
X20631000Y-89665000D01*
X20631000Y-85595000D02*
X20631000Y-86590000D01*
X20591000Y-88670000D02*
X20591000Y-89695000D01*
X20591000Y-85565000D02*
X20591000Y-86590000D01*
X20551000Y-88670000D02*
X20551000Y-89725000D01*
X20551000Y-85535000D02*
X20551000Y-86590000D01*
X20511000Y-88670000D02*
X20511000Y-89752000D01*
X20511000Y-85508000D02*
X20511000Y-86590000D01*
X20471000Y-88670000D02*
X20471000Y-89779000D01*
X20471000Y-85481000D02*
X20471000Y-86590000D01*
X20431000Y-88670000D02*
X20431000Y-89805000D01*
X20431000Y-85455000D02*
X20431000Y-86590000D01*
X20391000Y-88670000D02*
X20391000Y-89830000D01*
X20391000Y-85430000D02*
X20391000Y-86590000D01*
X20351000Y-88670000D02*
X20351000Y-89854000D01*
X20351000Y-85406000D02*
X20351000Y-86590000D01*
X20311000Y-88670000D02*
X20311000Y-89877000D01*
X20311000Y-85383000D02*
X20311000Y-86590000D01*
X20271000Y-88670000D02*
X20271000Y-89898000D01*
X20271000Y-85362000D02*
X20271000Y-86590000D01*
X20231000Y-88670000D02*
X20231000Y-89920000D01*
X20231000Y-85340000D02*
X20231000Y-86590000D01*
X20191000Y-88670000D02*
X20191000Y-89940000D01*
X20191000Y-85320000D02*
X20191000Y-86590000D01*
X20151000Y-88670000D02*
X20151000Y-89959000D01*
X20151000Y-85301000D02*
X20151000Y-86590000D01*
X20111000Y-88670000D02*
X20111000Y-89978000D01*
X20111000Y-85282000D02*
X20111000Y-86590000D01*
X20071000Y-88670000D02*
X20071000Y-89995000D01*
X20071000Y-85265000D02*
X20071000Y-86590000D01*
X20031000Y-88670000D02*
X20031000Y-90012000D01*
X20031000Y-85248000D02*
X20031000Y-86590000D01*
X19991000Y-88670000D02*
X19991000Y-90028000D01*
X19991000Y-85232000D02*
X19991000Y-86590000D01*
X19951000Y-88670000D02*
X19951000Y-90044000D01*
X19951000Y-85216000D02*
X19951000Y-86590000D01*
X19911000Y-88670000D02*
X19911000Y-90058000D01*
X19911000Y-85202000D02*
X19911000Y-86590000D01*
X19871000Y-88670000D02*
X19871000Y-90072000D01*
X19871000Y-85188000D02*
X19871000Y-86590000D01*
X19831000Y-88670000D02*
X19831000Y-90085000D01*
X19831000Y-85175000D02*
X19831000Y-86590000D01*
X19791000Y-88670000D02*
X19791000Y-90098000D01*
X19791000Y-85162000D02*
X19791000Y-86590000D01*
X19751000Y-88670000D02*
X19751000Y-90110000D01*
X19751000Y-85150000D02*
X19751000Y-86590000D01*
X19710000Y-88670000D02*
X19710000Y-90121000D01*
X19710000Y-85139000D02*
X19710000Y-86590000D01*
X19670000Y-88670000D02*
X19670000Y-90131000D01*
X19670000Y-85129000D02*
X19670000Y-86590000D01*
X19630000Y-88670000D02*
X19630000Y-90141000D01*
X19630000Y-85119000D02*
X19630000Y-86590000D01*
X19590000Y-88670000D02*
X19590000Y-90150000D01*
X19590000Y-85110000D02*
X19590000Y-86590000D01*
X19550000Y-88670000D02*
X19550000Y-90158000D01*
X19550000Y-85102000D02*
X19550000Y-86590000D01*
X19510000Y-88670000D02*
X19510000Y-90166000D01*
X19510000Y-85094000D02*
X19510000Y-86590000D01*
X19470000Y-88670000D02*
X19470000Y-90173000D01*
X19470000Y-85087000D02*
X19470000Y-86590000D01*
X19430000Y-88670000D02*
X19430000Y-90180000D01*
X19430000Y-85080000D02*
X19430000Y-86590000D01*
X19390000Y-88670000D02*
X19390000Y-90186000D01*
X19390000Y-85074000D02*
X19390000Y-86590000D01*
X19350000Y-88670000D02*
X19350000Y-90191000D01*
X19350000Y-85069000D02*
X19350000Y-86590000D01*
X19310000Y-88670000D02*
X19310000Y-90195000D01*
X19310000Y-85065000D02*
X19310000Y-86590000D01*
X19270000Y-88670000D02*
X19270000Y-90199000D01*
X19270000Y-85061000D02*
X19270000Y-86590000D01*
X19230000Y-85057000D02*
X19230000Y-90203000D01*
X19190000Y-85054000D02*
X19190000Y-90206000D01*
X19150000Y-85052000D02*
X19150000Y-90208000D01*
X19110000Y-85051000D02*
X19110000Y-90209000D01*
X19070000Y-85050000D02*
X19070000Y-90210000D01*
X19030000Y-85050000D02*
X19030000Y-90210000D01*
X21650000Y-87630000D02*
G75*
G03*
X21650000Y-87630000I-2620000J0D01*
G01*
G04 #@! TO.C,C2*
X5930000Y-20995000D02*
X5615000Y-20995000D01*
X8355000Y-20995000D02*
X8040000Y-20995000D01*
X5930000Y-15755000D02*
X5615000Y-15755000D01*
X8355000Y-15755000D02*
X8040000Y-15755000D01*
X5615000Y-15755000D02*
X5615000Y-20995000D01*
X8355000Y-15755000D02*
X8355000Y-20995000D01*
G04 #@! TO.C,C1*
X31460000Y-77375000D02*
X31015000Y-77375000D01*
X33755000Y-77375000D02*
X33310000Y-77375000D01*
X31460000Y-71135000D02*
X31015000Y-71135000D01*
X33755000Y-71135000D02*
X33310000Y-71135000D01*
X31015000Y-71135000D02*
X31015000Y-77375000D01*
X33755000Y-71135000D02*
X33755000Y-77375000D01*
G04 #@! TO.C,J2*
D10*
X6838333Y-62906666D02*
X6971666Y-62906666D01*
X7038333Y-62940000D01*
X7105000Y-63006666D01*
X7138333Y-63140000D01*
X7138333Y-63373333D01*
X7105000Y-63506666D01*
X7038333Y-63573333D01*
X6971666Y-63606666D01*
X6838333Y-63606666D01*
X6771666Y-63573333D01*
X6705000Y-63506666D01*
X6671666Y-63373333D01*
X6671666Y-63140000D01*
X6705000Y-63006666D01*
X6771666Y-62940000D01*
X6838333Y-62906666D01*
X7738333Y-63140000D02*
X7738333Y-63606666D01*
X7438333Y-63140000D02*
X7438333Y-63506666D01*
X7471666Y-63573333D01*
X7538333Y-63606666D01*
X7638333Y-63606666D01*
X7705000Y-63573333D01*
X7738333Y-63540000D01*
X7971666Y-63140000D02*
X8238333Y-63140000D01*
X8071666Y-62906666D02*
X8071666Y-63506666D01*
X8105000Y-63573333D01*
X8171666Y-63606666D01*
X8238333Y-63606666D01*
X8471666Y-63140000D02*
X8471666Y-63840000D01*
X8471666Y-63173333D02*
X8538333Y-63140000D01*
X8671666Y-63140000D01*
X8738333Y-63173333D01*
X8771666Y-63206666D01*
X8805000Y-63273333D01*
X8805000Y-63473333D01*
X8771666Y-63540000D01*
X8738333Y-63573333D01*
X8671666Y-63606666D01*
X8538333Y-63606666D01*
X8471666Y-63573333D01*
X9405000Y-63140000D02*
X9405000Y-63606666D01*
X9105000Y-63140000D02*
X9105000Y-63506666D01*
X9138333Y-63573333D01*
X9205000Y-63606666D01*
X9305000Y-63606666D01*
X9371666Y-63573333D01*
X9405000Y-63540000D01*
X9638333Y-63140000D02*
X9905000Y-63140000D01*
X9738333Y-62906666D02*
X9738333Y-63506666D01*
X9771666Y-63573333D01*
X9838333Y-63606666D01*
X9905000Y-63606666D01*
G04 #@! TO.C,J1*
X2659999Y-63606666D02*
X2659999Y-62906666D01*
X2993333Y-63140000D02*
X2993333Y-63606666D01*
X2993333Y-63206666D02*
X3026666Y-63173333D01*
X3093333Y-63140000D01*
X3193333Y-63140000D01*
X3260000Y-63173333D01*
X3293333Y-63240000D01*
X3293333Y-63606666D01*
X3626666Y-63140000D02*
X3626666Y-63840000D01*
X3626666Y-63173333D02*
X3693333Y-63140000D01*
X3826666Y-63140000D01*
X3893333Y-63173333D01*
X3926666Y-63206666D01*
X3959999Y-63273333D01*
X3959999Y-63473333D01*
X3926666Y-63540000D01*
X3893333Y-63573333D01*
X3826666Y-63606666D01*
X3693333Y-63606666D01*
X3626666Y-63573333D01*
X4560000Y-63140000D02*
X4560000Y-63606666D01*
X4260000Y-63140000D02*
X4260000Y-63506666D01*
X4293333Y-63573333D01*
X4360000Y-63606666D01*
X4460000Y-63606666D01*
X4526666Y-63573333D01*
X4560000Y-63540000D01*
X4793333Y-63140000D02*
X5060000Y-63140000D01*
X4893333Y-62906666D02*
X4893333Y-63506666D01*
X4926666Y-63573333D01*
X4993333Y-63606666D01*
X5060000Y-63606666D01*
G04 #@! TO.C,R27*
D11*
X21788571Y-37917380D02*
X21217142Y-37917380D01*
X21502857Y-37917380D02*
X21502857Y-36917380D01*
X21407619Y-37060238D01*
X21312380Y-37155476D01*
X21217142Y-37203095D01*
X22407619Y-36917380D02*
X22502857Y-36917380D01*
X22598095Y-36965000D01*
X22645714Y-37012619D01*
X22693333Y-37107857D01*
X22740952Y-37298333D01*
X22740952Y-37536428D01*
X22693333Y-37726904D01*
X22645714Y-37822142D01*
X22598095Y-37869761D01*
X22502857Y-37917380D01*
X22407619Y-37917380D01*
X22312380Y-37869761D01*
X22264761Y-37822142D01*
X22217142Y-37726904D01*
X22169523Y-37536428D01*
X22169523Y-37298333D01*
X22217142Y-37107857D01*
X22264761Y-37012619D01*
X22312380Y-36965000D01*
X22407619Y-36917380D01*
X23360000Y-36917380D02*
X23455238Y-36917380D01*
X23550476Y-36965000D01*
X23598095Y-37012619D01*
X23645714Y-37107857D01*
X23693333Y-37298333D01*
X23693333Y-37536428D01*
X23645714Y-37726904D01*
X23598095Y-37822142D01*
X23550476Y-37869761D01*
X23455238Y-37917380D01*
X23360000Y-37917380D01*
X23264761Y-37869761D01*
X23217142Y-37822142D01*
X23169523Y-37726904D01*
X23121904Y-37536428D01*
X23121904Y-37298333D01*
X23169523Y-37107857D01*
X23217142Y-37012619D01*
X23264761Y-36965000D01*
X23360000Y-36917380D01*
X24121904Y-37917380D02*
X24121904Y-36917380D01*
X24217142Y-37536428D02*
X24502857Y-37917380D01*
X24502857Y-37250714D02*
X24121904Y-37631666D01*
G04 #@! TO.C,Q11*
X11993571Y-53927142D02*
X12041190Y-53784285D01*
X12088809Y-53736666D01*
X12184047Y-53689047D01*
X12326904Y-53689047D01*
X12422142Y-53736666D01*
X12469761Y-53784285D01*
X12517380Y-53879523D01*
X12517380Y-54260476D01*
X11517380Y-54260476D01*
X11517380Y-53927142D01*
X11565000Y-53831904D01*
X11612619Y-53784285D01*
X11707857Y-53736666D01*
X11803095Y-53736666D01*
X11898333Y-53784285D01*
X11945952Y-53831904D01*
X11993571Y-53927142D01*
X11993571Y-54260476D01*
X12422142Y-52689047D02*
X12469761Y-52736666D01*
X12517380Y-52879523D01*
X12517380Y-52974761D01*
X12469761Y-53117619D01*
X12374523Y-53212857D01*
X12279285Y-53260476D01*
X12088809Y-53308095D01*
X11945952Y-53308095D01*
X11755476Y-53260476D01*
X11660238Y-53212857D01*
X11565000Y-53117619D01*
X11517380Y-52974761D01*
X11517380Y-52879523D01*
X11565000Y-52736666D01*
X11612619Y-52689047D01*
X11517380Y-51784285D02*
X11517380Y-52260476D01*
X11993571Y-52308095D01*
X11945952Y-52260476D01*
X11898333Y-52165238D01*
X11898333Y-51927142D01*
X11945952Y-51831904D01*
X11993571Y-51784285D01*
X12088809Y-51736666D01*
X12326904Y-51736666D01*
X12422142Y-51784285D01*
X12469761Y-51831904D01*
X12517380Y-51927142D01*
X12517380Y-52165238D01*
X12469761Y-52260476D01*
X12422142Y-52308095D01*
X11517380Y-50831904D02*
X11517380Y-51308095D01*
X11993571Y-51355714D01*
X11945952Y-51308095D01*
X11898333Y-51212857D01*
X11898333Y-50974761D01*
X11945952Y-50879523D01*
X11993571Y-50831904D01*
X12088809Y-50784285D01*
X12326904Y-50784285D01*
X12422142Y-50831904D01*
X12469761Y-50879523D01*
X12517380Y-50974761D01*
X12517380Y-51212857D01*
X12469761Y-51308095D01*
X12422142Y-51355714D01*
X11517380Y-50165238D02*
X11517380Y-50070000D01*
X11565000Y-49974761D01*
X11612619Y-49927142D01*
X11707857Y-49879523D01*
X11898333Y-49831904D01*
X12136428Y-49831904D01*
X12326904Y-49879523D01*
X12422142Y-49927142D01*
X12469761Y-49974761D01*
X12517380Y-50070000D01*
X12517380Y-50165238D01*
X12469761Y-50260476D01*
X12422142Y-50308095D01*
X12326904Y-50355714D01*
X12136428Y-50403333D01*
X11898333Y-50403333D01*
X11707857Y-50355714D01*
X11612619Y-50308095D01*
X11565000Y-50260476D01*
X11517380Y-50165238D01*
G04 #@! TO.C,U1*
X14676904Y-17867380D02*
X15343571Y-17867380D01*
X14915000Y-18867380D01*
X16153095Y-18200714D02*
X16153095Y-18867380D01*
X15915000Y-17819761D02*
X15676904Y-18534047D01*
X16295952Y-18534047D01*
X16676904Y-18867380D02*
X16676904Y-17867380D01*
X16676904Y-18343571D02*
X17248333Y-18343571D01*
X17248333Y-18867380D02*
X17248333Y-17867380D01*
X18295952Y-18772142D02*
X18248333Y-18819761D01*
X18105476Y-18867380D01*
X18010238Y-18867380D01*
X17867380Y-18819761D01*
X17772142Y-18724523D01*
X17724523Y-18629285D01*
X17676904Y-18438809D01*
X17676904Y-18295952D01*
X17724523Y-18105476D01*
X17772142Y-18010238D01*
X17867380Y-17915000D01*
X18010238Y-17867380D01*
X18105476Y-17867380D01*
X18248333Y-17915000D01*
X18295952Y-17962619D01*
X19153095Y-18200714D02*
X19153095Y-18867380D01*
X18915000Y-17819761D02*
X18676904Y-18534047D01*
X19295952Y-18534047D01*
X19867380Y-17867380D02*
X19962619Y-17867380D01*
X20057857Y-17915000D01*
X20105476Y-17962619D01*
X20153095Y-18057857D01*
X20200714Y-18248333D01*
X20200714Y-18486428D01*
X20153095Y-18676904D01*
X20105476Y-18772142D01*
X20057857Y-18819761D01*
X19962619Y-18867380D01*
X19867380Y-18867380D01*
X19772142Y-18819761D01*
X19724523Y-18772142D01*
X19676904Y-18676904D01*
X19629285Y-18486428D01*
X19629285Y-18248333D01*
X19676904Y-18057857D01*
X19724523Y-17962619D01*
X19772142Y-17915000D01*
X19867380Y-17867380D01*
X20581666Y-17962619D02*
X20629285Y-17915000D01*
X20724523Y-17867380D01*
X20962619Y-17867380D01*
X21057857Y-17915000D01*
X21105476Y-17962619D01*
X21153095Y-18057857D01*
X21153095Y-18153095D01*
X21105476Y-18295952D01*
X20534047Y-18867380D01*
X21153095Y-18867380D01*
X22010238Y-18200714D02*
X22010238Y-18867380D01*
X21772142Y-17819761D02*
X21534047Y-18534047D01*
X22153095Y-18534047D01*
G04 #@! TO.C,R16*
X21788571Y-66492380D02*
X21217142Y-66492380D01*
X21502857Y-66492380D02*
X21502857Y-65492380D01*
X21407619Y-65635238D01*
X21312380Y-65730476D01*
X21217142Y-65778095D01*
X22407619Y-65492380D02*
X22502857Y-65492380D01*
X22598095Y-65540000D01*
X22645714Y-65587619D01*
X22693333Y-65682857D01*
X22740952Y-65873333D01*
X22740952Y-66111428D01*
X22693333Y-66301904D01*
X22645714Y-66397142D01*
X22598095Y-66444761D01*
X22502857Y-66492380D01*
X22407619Y-66492380D01*
X22312380Y-66444761D01*
X22264761Y-66397142D01*
X22217142Y-66301904D01*
X22169523Y-66111428D01*
X22169523Y-65873333D01*
X22217142Y-65682857D01*
X22264761Y-65587619D01*
X22312380Y-65540000D01*
X22407619Y-65492380D01*
X23360000Y-65492380D02*
X23455238Y-65492380D01*
X23550476Y-65540000D01*
X23598095Y-65587619D01*
X23645714Y-65682857D01*
X23693333Y-65873333D01*
X23693333Y-66111428D01*
X23645714Y-66301904D01*
X23598095Y-66397142D01*
X23550476Y-66444761D01*
X23455238Y-66492380D01*
X23360000Y-66492380D01*
X23264761Y-66444761D01*
X23217142Y-66397142D01*
X23169523Y-66301904D01*
X23121904Y-66111428D01*
X23121904Y-65873333D01*
X23169523Y-65682857D01*
X23217142Y-65587619D01*
X23264761Y-65540000D01*
X23360000Y-65492380D01*
X24121904Y-66492380D02*
X24121904Y-65492380D01*
X24217142Y-66111428D02*
X24502857Y-66492380D01*
X24502857Y-65825714D02*
X24121904Y-66206666D01*
G04 #@! TO.C,R15*
X21788571Y-60777380D02*
X21217142Y-60777380D01*
X21502857Y-60777380D02*
X21502857Y-59777380D01*
X21407619Y-59920238D01*
X21312380Y-60015476D01*
X21217142Y-60063095D01*
X22407619Y-59777380D02*
X22502857Y-59777380D01*
X22598095Y-59825000D01*
X22645714Y-59872619D01*
X22693333Y-59967857D01*
X22740952Y-60158333D01*
X22740952Y-60396428D01*
X22693333Y-60586904D01*
X22645714Y-60682142D01*
X22598095Y-60729761D01*
X22502857Y-60777380D01*
X22407619Y-60777380D01*
X22312380Y-60729761D01*
X22264761Y-60682142D01*
X22217142Y-60586904D01*
X22169523Y-60396428D01*
X22169523Y-60158333D01*
X22217142Y-59967857D01*
X22264761Y-59872619D01*
X22312380Y-59825000D01*
X22407619Y-59777380D01*
X23360000Y-59777380D02*
X23455238Y-59777380D01*
X23550476Y-59825000D01*
X23598095Y-59872619D01*
X23645714Y-59967857D01*
X23693333Y-60158333D01*
X23693333Y-60396428D01*
X23645714Y-60586904D01*
X23598095Y-60682142D01*
X23550476Y-60729761D01*
X23455238Y-60777380D01*
X23360000Y-60777380D01*
X23264761Y-60729761D01*
X23217142Y-60682142D01*
X23169523Y-60586904D01*
X23121904Y-60396428D01*
X23121904Y-60158333D01*
X23169523Y-59967857D01*
X23217142Y-59872619D01*
X23264761Y-59825000D01*
X23360000Y-59777380D01*
X24121904Y-60777380D02*
X24121904Y-59777380D01*
X24217142Y-60396428D02*
X24502857Y-60777380D01*
X24502857Y-60110714D02*
X24121904Y-60491666D01*
G04 #@! TO.C,R14*
X21788571Y-55062380D02*
X21217142Y-55062380D01*
X21502857Y-55062380D02*
X21502857Y-54062380D01*
X21407619Y-54205238D01*
X21312380Y-54300476D01*
X21217142Y-54348095D01*
X22407619Y-54062380D02*
X22502857Y-54062380D01*
X22598095Y-54110000D01*
X22645714Y-54157619D01*
X22693333Y-54252857D01*
X22740952Y-54443333D01*
X22740952Y-54681428D01*
X22693333Y-54871904D01*
X22645714Y-54967142D01*
X22598095Y-55014761D01*
X22502857Y-55062380D01*
X22407619Y-55062380D01*
X22312380Y-55014761D01*
X22264761Y-54967142D01*
X22217142Y-54871904D01*
X22169523Y-54681428D01*
X22169523Y-54443333D01*
X22217142Y-54252857D01*
X22264761Y-54157619D01*
X22312380Y-54110000D01*
X22407619Y-54062380D01*
X23360000Y-54062380D02*
X23455238Y-54062380D01*
X23550476Y-54110000D01*
X23598095Y-54157619D01*
X23645714Y-54252857D01*
X23693333Y-54443333D01*
X23693333Y-54681428D01*
X23645714Y-54871904D01*
X23598095Y-54967142D01*
X23550476Y-55014761D01*
X23455238Y-55062380D01*
X23360000Y-55062380D01*
X23264761Y-55014761D01*
X23217142Y-54967142D01*
X23169523Y-54871904D01*
X23121904Y-54681428D01*
X23121904Y-54443333D01*
X23169523Y-54252857D01*
X23217142Y-54157619D01*
X23264761Y-54110000D01*
X23360000Y-54062380D01*
X24121904Y-55062380D02*
X24121904Y-54062380D01*
X24217142Y-54681428D02*
X24502857Y-55062380D01*
X24502857Y-54395714D02*
X24121904Y-54776666D01*
G04 #@! TO.C,R13*
X21788571Y-49347380D02*
X21217142Y-49347380D01*
X21502857Y-49347380D02*
X21502857Y-48347380D01*
X21407619Y-48490238D01*
X21312380Y-48585476D01*
X21217142Y-48633095D01*
X22407619Y-48347380D02*
X22502857Y-48347380D01*
X22598095Y-48395000D01*
X22645714Y-48442619D01*
X22693333Y-48537857D01*
X22740952Y-48728333D01*
X22740952Y-48966428D01*
X22693333Y-49156904D01*
X22645714Y-49252142D01*
X22598095Y-49299761D01*
X22502857Y-49347380D01*
X22407619Y-49347380D01*
X22312380Y-49299761D01*
X22264761Y-49252142D01*
X22217142Y-49156904D01*
X22169523Y-48966428D01*
X22169523Y-48728333D01*
X22217142Y-48537857D01*
X22264761Y-48442619D01*
X22312380Y-48395000D01*
X22407619Y-48347380D01*
X23360000Y-48347380D02*
X23455238Y-48347380D01*
X23550476Y-48395000D01*
X23598095Y-48442619D01*
X23645714Y-48537857D01*
X23693333Y-48728333D01*
X23693333Y-48966428D01*
X23645714Y-49156904D01*
X23598095Y-49252142D01*
X23550476Y-49299761D01*
X23455238Y-49347380D01*
X23360000Y-49347380D01*
X23264761Y-49299761D01*
X23217142Y-49252142D01*
X23169523Y-49156904D01*
X23121904Y-48966428D01*
X23121904Y-48728333D01*
X23169523Y-48537857D01*
X23217142Y-48442619D01*
X23264761Y-48395000D01*
X23360000Y-48347380D01*
X24121904Y-49347380D02*
X24121904Y-48347380D01*
X24217142Y-48966428D02*
X24502857Y-49347380D01*
X24502857Y-48680714D02*
X24121904Y-49061666D01*
G04 #@! TO.C,R12*
X21788571Y-43632380D02*
X21217142Y-43632380D01*
X21502857Y-43632380D02*
X21502857Y-42632380D01*
X21407619Y-42775238D01*
X21312380Y-42870476D01*
X21217142Y-42918095D01*
X22407619Y-42632380D02*
X22502857Y-42632380D01*
X22598095Y-42680000D01*
X22645714Y-42727619D01*
X22693333Y-42822857D01*
X22740952Y-43013333D01*
X22740952Y-43251428D01*
X22693333Y-43441904D01*
X22645714Y-43537142D01*
X22598095Y-43584761D01*
X22502857Y-43632380D01*
X22407619Y-43632380D01*
X22312380Y-43584761D01*
X22264761Y-43537142D01*
X22217142Y-43441904D01*
X22169523Y-43251428D01*
X22169523Y-43013333D01*
X22217142Y-42822857D01*
X22264761Y-42727619D01*
X22312380Y-42680000D01*
X22407619Y-42632380D01*
X23360000Y-42632380D02*
X23455238Y-42632380D01*
X23550476Y-42680000D01*
X23598095Y-42727619D01*
X23645714Y-42822857D01*
X23693333Y-43013333D01*
X23693333Y-43251428D01*
X23645714Y-43441904D01*
X23598095Y-43537142D01*
X23550476Y-43584761D01*
X23455238Y-43632380D01*
X23360000Y-43632380D01*
X23264761Y-43584761D01*
X23217142Y-43537142D01*
X23169523Y-43441904D01*
X23121904Y-43251428D01*
X23121904Y-43013333D01*
X23169523Y-42822857D01*
X23217142Y-42727619D01*
X23264761Y-42680000D01*
X23360000Y-42632380D01*
X24121904Y-43632380D02*
X24121904Y-42632380D01*
X24217142Y-43251428D02*
X24502857Y-43632380D01*
X24502857Y-42965714D02*
X24121904Y-43346666D01*
G04 #@! TO.C,R11*
X7437380Y-30281428D02*
X7437380Y-30852857D01*
X7437380Y-30567142D02*
X6437380Y-30567142D01*
X6580238Y-30662380D01*
X6675476Y-30757619D01*
X6723095Y-30852857D01*
X6437380Y-29662380D02*
X6437380Y-29567142D01*
X6485000Y-29471904D01*
X6532619Y-29424285D01*
X6627857Y-29376666D01*
X6818333Y-29329047D01*
X7056428Y-29329047D01*
X7246904Y-29376666D01*
X7342142Y-29424285D01*
X7389761Y-29471904D01*
X7437380Y-29567142D01*
X7437380Y-29662380D01*
X7389761Y-29757619D01*
X7342142Y-29805238D01*
X7246904Y-29852857D01*
X7056428Y-29900476D01*
X6818333Y-29900476D01*
X6627857Y-29852857D01*
X6532619Y-29805238D01*
X6485000Y-29757619D01*
X6437380Y-29662380D01*
X6437380Y-28710000D02*
X6437380Y-28614761D01*
X6485000Y-28519523D01*
X6532619Y-28471904D01*
X6627857Y-28424285D01*
X6818333Y-28376666D01*
X7056428Y-28376666D01*
X7246904Y-28424285D01*
X7342142Y-28471904D01*
X7389761Y-28519523D01*
X7437380Y-28614761D01*
X7437380Y-28710000D01*
X7389761Y-28805238D01*
X7342142Y-28852857D01*
X7246904Y-28900476D01*
X7056428Y-28948095D01*
X6818333Y-28948095D01*
X6627857Y-28900476D01*
X6532619Y-28852857D01*
X6485000Y-28805238D01*
X6437380Y-28710000D01*
X7437380Y-27948095D02*
X6437380Y-27948095D01*
X7056428Y-27852857D02*
X7437380Y-27567142D01*
X6770714Y-27567142D02*
X7151666Y-27948095D01*
G04 #@! TO.C,R10*
X11247380Y-30281428D02*
X11247380Y-30852857D01*
X11247380Y-30567142D02*
X10247380Y-30567142D01*
X10390238Y-30662380D01*
X10485476Y-30757619D01*
X10533095Y-30852857D01*
X10247380Y-29662380D02*
X10247380Y-29567142D01*
X10295000Y-29471904D01*
X10342619Y-29424285D01*
X10437857Y-29376666D01*
X10628333Y-29329047D01*
X10866428Y-29329047D01*
X11056904Y-29376666D01*
X11152142Y-29424285D01*
X11199761Y-29471904D01*
X11247380Y-29567142D01*
X11247380Y-29662380D01*
X11199761Y-29757619D01*
X11152142Y-29805238D01*
X11056904Y-29852857D01*
X10866428Y-29900476D01*
X10628333Y-29900476D01*
X10437857Y-29852857D01*
X10342619Y-29805238D01*
X10295000Y-29757619D01*
X10247380Y-29662380D01*
X10247380Y-28710000D02*
X10247380Y-28614761D01*
X10295000Y-28519523D01*
X10342619Y-28471904D01*
X10437857Y-28424285D01*
X10628333Y-28376666D01*
X10866428Y-28376666D01*
X11056904Y-28424285D01*
X11152142Y-28471904D01*
X11199761Y-28519523D01*
X11247380Y-28614761D01*
X11247380Y-28710000D01*
X11199761Y-28805238D01*
X11152142Y-28852857D01*
X11056904Y-28900476D01*
X10866428Y-28948095D01*
X10628333Y-28948095D01*
X10437857Y-28900476D01*
X10342619Y-28852857D01*
X10295000Y-28805238D01*
X10247380Y-28710000D01*
X11247380Y-27948095D02*
X10247380Y-27948095D01*
X10866428Y-27852857D02*
X11247380Y-27567142D01*
X10580714Y-27567142D02*
X10961666Y-27948095D01*
G04 #@! TO.C,R9*
X6802380Y-80605238D02*
X6802380Y-81176666D01*
X6802380Y-80890952D02*
X5802380Y-80890952D01*
X5945238Y-80986190D01*
X6040476Y-81081428D01*
X6088095Y-81176666D01*
X5802380Y-79986190D02*
X5802380Y-79890952D01*
X5850000Y-79795714D01*
X5897619Y-79748095D01*
X5992857Y-79700476D01*
X6183333Y-79652857D01*
X6421428Y-79652857D01*
X6611904Y-79700476D01*
X6707142Y-79748095D01*
X6754761Y-79795714D01*
X6802380Y-79890952D01*
X6802380Y-79986190D01*
X6754761Y-80081428D01*
X6707142Y-80129047D01*
X6611904Y-80176666D01*
X6421428Y-80224285D01*
X6183333Y-80224285D01*
X5992857Y-80176666D01*
X5897619Y-80129047D01*
X5850000Y-80081428D01*
X5802380Y-79986190D01*
X6802380Y-79224285D02*
X5802380Y-79224285D01*
X6421428Y-79129047D02*
X6802380Y-78843333D01*
X6135714Y-78843333D02*
X6516666Y-79224285D01*
G04 #@! TO.C,R8*
X10580714Y-71175476D02*
X11247380Y-71175476D01*
X10199761Y-71413571D02*
X10914047Y-71651666D01*
X10914047Y-71032619D01*
X10247380Y-70746904D02*
X10247380Y-70080238D01*
X11247380Y-70508809D01*
X11247380Y-69699285D02*
X10247380Y-69699285D01*
X10866428Y-69604047D02*
X11247380Y-69318333D01*
X10580714Y-69318333D02*
X10961666Y-69699285D01*
G04 #@! TO.C,R7*
X2992380Y-74890238D02*
X2992380Y-75461666D01*
X2992380Y-75175952D02*
X1992380Y-75175952D01*
X2135238Y-75271190D01*
X2230476Y-75366428D01*
X2278095Y-75461666D01*
X1992380Y-74271190D02*
X1992380Y-74175952D01*
X2040000Y-74080714D01*
X2087619Y-74033095D01*
X2182857Y-73985476D01*
X2373333Y-73937857D01*
X2611428Y-73937857D01*
X2801904Y-73985476D01*
X2897142Y-74033095D01*
X2944761Y-74080714D01*
X2992380Y-74175952D01*
X2992380Y-74271190D01*
X2944761Y-74366428D01*
X2897142Y-74414047D01*
X2801904Y-74461666D01*
X2611428Y-74509285D01*
X2373333Y-74509285D01*
X2182857Y-74461666D01*
X2087619Y-74414047D01*
X2040000Y-74366428D01*
X1992380Y-74271190D01*
X2992380Y-73509285D02*
X1992380Y-73509285D01*
X2611428Y-73414047D02*
X2992380Y-73128333D01*
X2325714Y-73128333D02*
X2706666Y-73509285D01*
G04 #@! TO.C,R6*
X2992380Y-29805238D02*
X2992380Y-30376666D01*
X2992380Y-30090952D02*
X1992380Y-30090952D01*
X2135238Y-30186190D01*
X2230476Y-30281428D01*
X2278095Y-30376666D01*
X1992380Y-29186190D02*
X1992380Y-29090952D01*
X2040000Y-28995714D01*
X2087619Y-28948095D01*
X2182857Y-28900476D01*
X2373333Y-28852857D01*
X2611428Y-28852857D01*
X2801904Y-28900476D01*
X2897142Y-28948095D01*
X2944761Y-28995714D01*
X2992380Y-29090952D01*
X2992380Y-29186190D01*
X2944761Y-29281428D01*
X2897142Y-29329047D01*
X2801904Y-29376666D01*
X2611428Y-29424285D01*
X2373333Y-29424285D01*
X2182857Y-29376666D01*
X2087619Y-29329047D01*
X2040000Y-29281428D01*
X1992380Y-29186190D01*
X2992380Y-28424285D02*
X1992380Y-28424285D01*
X2611428Y-28329047D02*
X2992380Y-28043333D01*
X2325714Y-28043333D02*
X2706666Y-28424285D01*
G04 #@! TO.C,R5*
X21629761Y-74747380D02*
X21058333Y-74747380D01*
X21344047Y-74747380D02*
X21344047Y-73747380D01*
X21248809Y-73890238D01*
X21153571Y-73985476D01*
X21058333Y-74033095D01*
X22248809Y-73747380D02*
X22344047Y-73747380D01*
X22439285Y-73795000D01*
X22486904Y-73842619D01*
X22534523Y-73937857D01*
X22582142Y-74128333D01*
X22582142Y-74366428D01*
X22534523Y-74556904D01*
X22486904Y-74652142D01*
X22439285Y-74699761D01*
X22344047Y-74747380D01*
X22248809Y-74747380D01*
X22153571Y-74699761D01*
X22105952Y-74652142D01*
X22058333Y-74556904D01*
X22010714Y-74366428D01*
X22010714Y-74128333D01*
X22058333Y-73937857D01*
X22105952Y-73842619D01*
X22153571Y-73795000D01*
X22248809Y-73747380D01*
X23010714Y-74747380D02*
X23010714Y-73747380D01*
X23105952Y-74366428D02*
X23391666Y-74747380D01*
X23391666Y-74080714D02*
X23010714Y-74461666D01*
G04 #@! TO.C,R2*
X29662380Y-76160238D02*
X29662380Y-76731666D01*
X29662380Y-76445952D02*
X28662380Y-76445952D01*
X28805238Y-76541190D01*
X28900476Y-76636428D01*
X28948095Y-76731666D01*
X28662380Y-75541190D02*
X28662380Y-75445952D01*
X28710000Y-75350714D01*
X28757619Y-75303095D01*
X28852857Y-75255476D01*
X29043333Y-75207857D01*
X29281428Y-75207857D01*
X29471904Y-75255476D01*
X29567142Y-75303095D01*
X29614761Y-75350714D01*
X29662380Y-75445952D01*
X29662380Y-75541190D01*
X29614761Y-75636428D01*
X29567142Y-75684047D01*
X29471904Y-75731666D01*
X29281428Y-75779285D01*
X29043333Y-75779285D01*
X28852857Y-75731666D01*
X28757619Y-75684047D01*
X28710000Y-75636428D01*
X28662380Y-75541190D01*
X29662380Y-74779285D02*
X28662380Y-74779285D01*
X29281428Y-74684047D02*
X29662380Y-74398333D01*
X28995714Y-74398333D02*
X29376666Y-74779285D01*
G04 #@! TO.C,R1*
X21629761Y-71572380D02*
X21058333Y-71572380D01*
X21344047Y-71572380D02*
X21344047Y-70572380D01*
X21248809Y-70715238D01*
X21153571Y-70810476D01*
X21058333Y-70858095D01*
X22248809Y-70572380D02*
X22344047Y-70572380D01*
X22439285Y-70620000D01*
X22486904Y-70667619D01*
X22534523Y-70762857D01*
X22582142Y-70953333D01*
X22582142Y-71191428D01*
X22534523Y-71381904D01*
X22486904Y-71477142D01*
X22439285Y-71524761D01*
X22344047Y-71572380D01*
X22248809Y-71572380D01*
X22153571Y-71524761D01*
X22105952Y-71477142D01*
X22058333Y-71381904D01*
X22010714Y-71191428D01*
X22010714Y-70953333D01*
X22058333Y-70762857D01*
X22105952Y-70667619D01*
X22153571Y-70620000D01*
X22248809Y-70572380D01*
X23010714Y-71572380D02*
X23010714Y-70572380D01*
X23105952Y-71191428D02*
X23391666Y-71572380D01*
X23391666Y-70905714D02*
X23010714Y-71286666D01*
G04 #@! TO.C,Q5*
X18343571Y-30432142D02*
X18391190Y-30289285D01*
X18438809Y-30241666D01*
X18534047Y-30194047D01*
X18676904Y-30194047D01*
X18772142Y-30241666D01*
X18819761Y-30289285D01*
X18867380Y-30384523D01*
X18867380Y-30765476D01*
X17867380Y-30765476D01*
X17867380Y-30432142D01*
X17915000Y-30336904D01*
X17962619Y-30289285D01*
X18057857Y-30241666D01*
X18153095Y-30241666D01*
X18248333Y-30289285D01*
X18295952Y-30336904D01*
X18343571Y-30432142D01*
X18343571Y-30765476D01*
X18772142Y-29194047D02*
X18819761Y-29241666D01*
X18867380Y-29384523D01*
X18867380Y-29479761D01*
X18819761Y-29622619D01*
X18724523Y-29717857D01*
X18629285Y-29765476D01*
X18438809Y-29813095D01*
X18295952Y-29813095D01*
X18105476Y-29765476D01*
X18010238Y-29717857D01*
X17915000Y-29622619D01*
X17867380Y-29479761D01*
X17867380Y-29384523D01*
X17915000Y-29241666D01*
X17962619Y-29194047D01*
X17867380Y-28289285D02*
X17867380Y-28765476D01*
X18343571Y-28813095D01*
X18295952Y-28765476D01*
X18248333Y-28670238D01*
X18248333Y-28432142D01*
X18295952Y-28336904D01*
X18343571Y-28289285D01*
X18438809Y-28241666D01*
X18676904Y-28241666D01*
X18772142Y-28289285D01*
X18819761Y-28336904D01*
X18867380Y-28432142D01*
X18867380Y-28670238D01*
X18819761Y-28765476D01*
X18772142Y-28813095D01*
X17867380Y-27336904D02*
X17867380Y-27813095D01*
X18343571Y-27860714D01*
X18295952Y-27813095D01*
X18248333Y-27717857D01*
X18248333Y-27479761D01*
X18295952Y-27384523D01*
X18343571Y-27336904D01*
X18438809Y-27289285D01*
X18676904Y-27289285D01*
X18772142Y-27336904D01*
X18819761Y-27384523D01*
X18867380Y-27479761D01*
X18867380Y-27717857D01*
X18819761Y-27813095D01*
X18772142Y-27860714D01*
X17867380Y-26670238D02*
X17867380Y-26575000D01*
X17915000Y-26479761D01*
X17962619Y-26432142D01*
X18057857Y-26384523D01*
X18248333Y-26336904D01*
X18486428Y-26336904D01*
X18676904Y-26384523D01*
X18772142Y-26432142D01*
X18819761Y-26479761D01*
X18867380Y-26575000D01*
X18867380Y-26670238D01*
X18819761Y-26765476D01*
X18772142Y-26813095D01*
X18676904Y-26860714D01*
X18486428Y-26908333D01*
X18248333Y-26908333D01*
X18057857Y-26860714D01*
X17962619Y-26813095D01*
X17915000Y-26765476D01*
X17867380Y-26670238D01*
G04 #@! TO.C,Q3*
D10*
X7570000Y-67975000D02*
X7603333Y-67875000D01*
X7636666Y-67841666D01*
X7703333Y-67808333D01*
X7803333Y-67808333D01*
X7870000Y-67841666D01*
X7903333Y-67875000D01*
X7936666Y-67941666D01*
X7936666Y-68208333D01*
X7236666Y-68208333D01*
X7236666Y-67975000D01*
X7270000Y-67908333D01*
X7303333Y-67875000D01*
X7370000Y-67841666D01*
X7436666Y-67841666D01*
X7503333Y-67875000D01*
X7536666Y-67908333D01*
X7570000Y-67975000D01*
X7570000Y-68208333D01*
X7870000Y-67108333D02*
X7903333Y-67141666D01*
X7936666Y-67241666D01*
X7936666Y-67308333D01*
X7903333Y-67408333D01*
X7836666Y-67475000D01*
X7770000Y-67508333D01*
X7636666Y-67541666D01*
X7536666Y-67541666D01*
X7403333Y-67508333D01*
X7336666Y-67475000D01*
X7270000Y-67408333D01*
X7236666Y-67308333D01*
X7236666Y-67241666D01*
X7270000Y-67141666D01*
X7303333Y-67108333D01*
X7236666Y-66475000D02*
X7236666Y-66808333D01*
X7570000Y-66841666D01*
X7536666Y-66808333D01*
X7503333Y-66741666D01*
X7503333Y-66575000D01*
X7536666Y-66508333D01*
X7570000Y-66475000D01*
X7636666Y-66441666D01*
X7803333Y-66441666D01*
X7870000Y-66475000D01*
X7903333Y-66508333D01*
X7936666Y-66575000D01*
X7936666Y-66741666D01*
X7903333Y-66808333D01*
X7870000Y-66841666D01*
X7236666Y-65808333D02*
X7236666Y-66141666D01*
X7570000Y-66175000D01*
X7536666Y-66141666D01*
X7503333Y-66075000D01*
X7503333Y-65908333D01*
X7536666Y-65841666D01*
X7570000Y-65808333D01*
X7636666Y-65775000D01*
X7803333Y-65775000D01*
X7870000Y-65808333D01*
X7903333Y-65841666D01*
X7936666Y-65908333D01*
X7936666Y-66075000D01*
X7903333Y-66141666D01*
X7870000Y-66175000D01*
X7236666Y-65341666D02*
X7236666Y-65275000D01*
X7270000Y-65208333D01*
X7303333Y-65175000D01*
X7370000Y-65141666D01*
X7503333Y-65108333D01*
X7670000Y-65108333D01*
X7803333Y-65141666D01*
X7870000Y-65175000D01*
X7903333Y-65208333D01*
X7936666Y-65275000D01*
X7936666Y-65341666D01*
X7903333Y-65408333D01*
X7870000Y-65441666D01*
X7803333Y-65475000D01*
X7670000Y-65508333D01*
X7503333Y-65508333D01*
X7370000Y-65475000D01*
X7303333Y-65441666D01*
X7270000Y-65408333D01*
X7236666Y-65341666D01*
G04 #@! TO.C,Q2*
D11*
X7548571Y-38687142D02*
X7596190Y-38544285D01*
X7643809Y-38496666D01*
X7739047Y-38449047D01*
X7881904Y-38449047D01*
X7977142Y-38496666D01*
X8024761Y-38544285D01*
X8072380Y-38639523D01*
X8072380Y-39020476D01*
X7072380Y-39020476D01*
X7072380Y-38687142D01*
X7120000Y-38591904D01*
X7167619Y-38544285D01*
X7262857Y-38496666D01*
X7358095Y-38496666D01*
X7453333Y-38544285D01*
X7500952Y-38591904D01*
X7548571Y-38687142D01*
X7548571Y-39020476D01*
X7977142Y-37449047D02*
X8024761Y-37496666D01*
X8072380Y-37639523D01*
X8072380Y-37734761D01*
X8024761Y-37877619D01*
X7929523Y-37972857D01*
X7834285Y-38020476D01*
X7643809Y-38068095D01*
X7500952Y-38068095D01*
X7310476Y-38020476D01*
X7215238Y-37972857D01*
X7120000Y-37877619D01*
X7072380Y-37734761D01*
X7072380Y-37639523D01*
X7120000Y-37496666D01*
X7167619Y-37449047D01*
X7072380Y-36544285D02*
X7072380Y-37020476D01*
X7548571Y-37068095D01*
X7500952Y-37020476D01*
X7453333Y-36925238D01*
X7453333Y-36687142D01*
X7500952Y-36591904D01*
X7548571Y-36544285D01*
X7643809Y-36496666D01*
X7881904Y-36496666D01*
X7977142Y-36544285D01*
X8024761Y-36591904D01*
X8072380Y-36687142D01*
X8072380Y-36925238D01*
X8024761Y-37020476D01*
X7977142Y-37068095D01*
X7072380Y-35591904D02*
X7072380Y-36068095D01*
X7548571Y-36115714D01*
X7500952Y-36068095D01*
X7453333Y-35972857D01*
X7453333Y-35734761D01*
X7500952Y-35639523D01*
X7548571Y-35591904D01*
X7643809Y-35544285D01*
X7881904Y-35544285D01*
X7977142Y-35591904D01*
X8024761Y-35639523D01*
X8072380Y-35734761D01*
X8072380Y-35972857D01*
X8024761Y-36068095D01*
X7977142Y-36115714D01*
X7072380Y-34925238D02*
X7072380Y-34830000D01*
X7120000Y-34734761D01*
X7167619Y-34687142D01*
X7262857Y-34639523D01*
X7453333Y-34591904D01*
X7691428Y-34591904D01*
X7881904Y-34639523D01*
X7977142Y-34687142D01*
X8024761Y-34734761D01*
X8072380Y-34830000D01*
X8072380Y-34925238D01*
X8024761Y-35020476D01*
X7977142Y-35068095D01*
X7881904Y-35115714D01*
X7691428Y-35163333D01*
X7453333Y-35163333D01*
X7262857Y-35115714D01*
X7167619Y-35068095D01*
X7120000Y-35020476D01*
X7072380Y-34925238D01*
G04 #@! TO.C,Q1*
X21002857Y-82093571D02*
X21145714Y-82141190D01*
X21193333Y-82188809D01*
X21240952Y-82284047D01*
X21240952Y-82426904D01*
X21193333Y-82522142D01*
X21145714Y-82569761D01*
X21050476Y-82617380D01*
X20669523Y-82617380D01*
X20669523Y-81617380D01*
X21002857Y-81617380D01*
X21098095Y-81665000D01*
X21145714Y-81712619D01*
X21193333Y-81807857D01*
X21193333Y-81903095D01*
X21145714Y-81998333D01*
X21098095Y-82045952D01*
X21002857Y-82093571D01*
X20669523Y-82093571D01*
X22240952Y-82522142D02*
X22193333Y-82569761D01*
X22050476Y-82617380D01*
X21955238Y-82617380D01*
X21812380Y-82569761D01*
X21717142Y-82474523D01*
X21669523Y-82379285D01*
X21621904Y-82188809D01*
X21621904Y-82045952D01*
X21669523Y-81855476D01*
X21717142Y-81760238D01*
X21812380Y-81665000D01*
X21955238Y-81617380D01*
X22050476Y-81617380D01*
X22193333Y-81665000D01*
X22240952Y-81712619D01*
X23145714Y-81617380D02*
X22669523Y-81617380D01*
X22621904Y-82093571D01*
X22669523Y-82045952D01*
X22764761Y-81998333D01*
X23002857Y-81998333D01*
X23098095Y-82045952D01*
X23145714Y-82093571D01*
X23193333Y-82188809D01*
X23193333Y-82426904D01*
X23145714Y-82522142D01*
X23098095Y-82569761D01*
X23002857Y-82617380D01*
X22764761Y-82617380D01*
X22669523Y-82569761D01*
X22621904Y-82522142D01*
X24098095Y-81617380D02*
X23621904Y-81617380D01*
X23574285Y-82093571D01*
X23621904Y-82045952D01*
X23717142Y-81998333D01*
X23955238Y-81998333D01*
X24050476Y-82045952D01*
X24098095Y-82093571D01*
X24145714Y-82188809D01*
X24145714Y-82426904D01*
X24098095Y-82522142D01*
X24050476Y-82569761D01*
X23955238Y-82617380D01*
X23717142Y-82617380D01*
X23621904Y-82569761D01*
X23574285Y-82522142D01*
X24764761Y-81617380D02*
X24860000Y-81617380D01*
X24955238Y-81665000D01*
X25002857Y-81712619D01*
X25050476Y-81807857D01*
X25098095Y-81998333D01*
X25098095Y-82236428D01*
X25050476Y-82426904D01*
X25002857Y-82522142D01*
X24955238Y-82569761D01*
X24860000Y-82617380D01*
X24764761Y-82617380D01*
X24669523Y-82569761D01*
X24621904Y-82522142D01*
X24574285Y-82426904D01*
X24526666Y-82236428D01*
X24526666Y-81998333D01*
X24574285Y-81807857D01*
X24621904Y-81712619D01*
X24669523Y-81665000D01*
X24764761Y-81617380D01*
G04 #@! TO.C,D3*
D10*
X13105000Y-79906666D02*
X12705000Y-79906666D01*
X12905000Y-79906666D02*
X12905000Y-79206666D01*
X12838333Y-79306666D01*
X12771666Y-79373333D01*
X12705000Y-79406666D01*
X13405000Y-79906666D02*
X13405000Y-79206666D01*
X13805000Y-79906666D01*
X13805000Y-79206666D01*
X14438333Y-79440000D02*
X14438333Y-79906666D01*
X14271666Y-79173333D02*
X14105000Y-79673333D01*
X14538333Y-79673333D01*
X15171666Y-79906666D02*
X14771666Y-79906666D01*
X14971666Y-79906666D02*
X14971666Y-79206666D01*
X14905000Y-79306666D01*
X14838333Y-79373333D01*
X14771666Y-79406666D01*
X15771666Y-79440000D02*
X15771666Y-79906666D01*
X15605000Y-79173333D02*
X15438333Y-79673333D01*
X15871666Y-79673333D01*
X16238333Y-79506666D02*
X16171666Y-79473333D01*
X16138333Y-79440000D01*
X16105000Y-79373333D01*
X16105000Y-79340000D01*
X16138333Y-79273333D01*
X16171666Y-79240000D01*
X16238333Y-79206666D01*
X16371666Y-79206666D01*
X16438333Y-79240000D01*
X16471666Y-79273333D01*
X16505000Y-79340000D01*
X16505000Y-79373333D01*
X16471666Y-79440000D01*
X16438333Y-79473333D01*
X16371666Y-79506666D01*
X16238333Y-79506666D01*
X16171666Y-79540000D01*
X16138333Y-79573333D01*
X16105000Y-79640000D01*
X16105000Y-79773333D01*
X16138333Y-79840000D01*
X16171666Y-79873333D01*
X16238333Y-79906666D01*
X16371666Y-79906666D01*
X16438333Y-79873333D01*
X16471666Y-79840000D01*
X16505000Y-79773333D01*
X16505000Y-79640000D01*
X16471666Y-79573333D01*
X16438333Y-79540000D01*
X16371666Y-79506666D01*
G04 #@! TO.C,C5*
D11*
X5842142Y-88082380D02*
X5270714Y-88082380D01*
X5556428Y-88082380D02*
X5556428Y-87082380D01*
X5461190Y-87225238D01*
X5365952Y-87320476D01*
X5270714Y-87368095D01*
X6461190Y-87082380D02*
X6556428Y-87082380D01*
X6651666Y-87130000D01*
X6699285Y-87177619D01*
X6746904Y-87272857D01*
X6794523Y-87463333D01*
X6794523Y-87701428D01*
X6746904Y-87891904D01*
X6699285Y-87987142D01*
X6651666Y-88034761D01*
X6556428Y-88082380D01*
X6461190Y-88082380D01*
X6365952Y-88034761D01*
X6318333Y-87987142D01*
X6270714Y-87891904D01*
X6223095Y-87701428D01*
X6223095Y-87463333D01*
X6270714Y-87272857D01*
X6318333Y-87177619D01*
X6365952Y-87130000D01*
X6461190Y-87082380D01*
X7223095Y-87415714D02*
X7223095Y-88415714D01*
X7699285Y-87939523D02*
X7746904Y-88034761D01*
X7842142Y-88082380D01*
X7223095Y-87939523D02*
X7270714Y-88034761D01*
X7365952Y-88082380D01*
X7556428Y-88082380D01*
X7651666Y-88034761D01*
X7699285Y-87939523D01*
X7699285Y-87415714D01*
X8604047Y-87558571D02*
X8270714Y-87558571D01*
X8270714Y-88082380D02*
X8270714Y-87082380D01*
X8746904Y-87082380D01*
G04 #@! TO.C,C3*
X22987142Y-88082380D02*
X22415714Y-88082380D01*
X22701428Y-88082380D02*
X22701428Y-87082380D01*
X22606190Y-87225238D01*
X22510952Y-87320476D01*
X22415714Y-87368095D01*
X23606190Y-87082380D02*
X23701428Y-87082380D01*
X23796666Y-87130000D01*
X23844285Y-87177619D01*
X23891904Y-87272857D01*
X23939523Y-87463333D01*
X23939523Y-87701428D01*
X23891904Y-87891904D01*
X23844285Y-87987142D01*
X23796666Y-88034761D01*
X23701428Y-88082380D01*
X23606190Y-88082380D01*
X23510952Y-88034761D01*
X23463333Y-87987142D01*
X23415714Y-87891904D01*
X23368095Y-87701428D01*
X23368095Y-87463333D01*
X23415714Y-87272857D01*
X23463333Y-87177619D01*
X23510952Y-87130000D01*
X23606190Y-87082380D01*
X24368095Y-87415714D02*
X24368095Y-88415714D01*
X24844285Y-87939523D02*
X24891904Y-88034761D01*
X24987142Y-88082380D01*
X24368095Y-87939523D02*
X24415714Y-88034761D01*
X24510952Y-88082380D01*
X24701428Y-88082380D01*
X24796666Y-88034761D01*
X24844285Y-87939523D01*
X24844285Y-87415714D01*
X25749047Y-87558571D02*
X25415714Y-87558571D01*
X25415714Y-88082380D02*
X25415714Y-87082380D01*
X25891904Y-87082380D01*
G04 #@! TO.C,C2*
D10*
X7301666Y-19458333D02*
X7301666Y-19858333D01*
X7301666Y-19658333D02*
X6601666Y-19658333D01*
X6701666Y-19725000D01*
X6768333Y-19791666D01*
X6801666Y-19858333D01*
X6601666Y-19025000D02*
X6601666Y-18958333D01*
X6635000Y-18891666D01*
X6668333Y-18858333D01*
X6735000Y-18825000D01*
X6868333Y-18791666D01*
X7035000Y-18791666D01*
X7168333Y-18825000D01*
X7235000Y-18858333D01*
X7268333Y-18891666D01*
X7301666Y-18958333D01*
X7301666Y-19025000D01*
X7268333Y-19091666D01*
X7235000Y-19125000D01*
X7168333Y-19158333D01*
X7035000Y-19191666D01*
X6868333Y-19191666D01*
X6735000Y-19158333D01*
X6668333Y-19125000D01*
X6635000Y-19091666D01*
X6601666Y-19025000D01*
X6601666Y-18358333D02*
X6601666Y-18291666D01*
X6635000Y-18225000D01*
X6668333Y-18191666D01*
X6735000Y-18158333D01*
X6868333Y-18125000D01*
X7035000Y-18125000D01*
X7168333Y-18158333D01*
X7235000Y-18191666D01*
X7268333Y-18225000D01*
X7301666Y-18291666D01*
X7301666Y-18358333D01*
X7268333Y-18425000D01*
X7235000Y-18458333D01*
X7168333Y-18491666D01*
X7035000Y-18525000D01*
X6868333Y-18525000D01*
X6735000Y-18491666D01*
X6668333Y-18458333D01*
X6635000Y-18425000D01*
X6601666Y-18358333D01*
X6835000Y-17825000D02*
X7301666Y-17825000D01*
X6901666Y-17825000D02*
X6868333Y-17791666D01*
X6835000Y-17725000D01*
X6835000Y-17625000D01*
X6868333Y-17558333D01*
X6935000Y-17525000D01*
X7301666Y-17525000D01*
X6935000Y-16958333D02*
X6935000Y-17191666D01*
X7301666Y-17191666D02*
X6601666Y-17191666D01*
X6601666Y-16858333D01*
G04 #@! TO.C,C1*
D11*
X32837380Y-74961666D02*
X32837380Y-75533095D01*
X32837380Y-75247380D02*
X31837380Y-75247380D01*
X31980238Y-75342619D01*
X32075476Y-75437857D01*
X32123095Y-75533095D01*
X32170714Y-74533095D02*
X33170714Y-74533095D01*
X32694523Y-74056904D02*
X32789761Y-74009285D01*
X32837380Y-73914047D01*
X32694523Y-74533095D02*
X32789761Y-74485476D01*
X32837380Y-74390238D01*
X32837380Y-74199761D01*
X32789761Y-74104523D01*
X32694523Y-74056904D01*
X32170714Y-74056904D01*
X32313571Y-73152142D02*
X32313571Y-73485476D01*
X32837380Y-73485476D02*
X31837380Y-73485476D01*
X31837380Y-73009285D01*
G04 #@! TD*
M02*
