G04 #@! TF.GenerationSoftware,KiCad,Pcbnew,(5.1.9)-1*
G04 #@! TF.CreationDate,2021-04-27T02:13:11+02:00*
G04 #@! TF.ProjectId,Clock Divider Main,436c6f63-6b20-4446-9976-69646572204d,rev?*
G04 #@! TF.SameCoordinates,Original*
G04 #@! TF.FileFunction,Copper,L1,Top*
G04 #@! TF.FilePolarity,Positive*
%FSLAX46Y46*%
G04 Gerber Fmt 4.6, Leading zero omitted, Abs format (unit mm)*
G04 Created by KiCad (PCBNEW (5.1.9)-1) date 2021-04-27 02:13:11*
%MOMM*%
%LPD*%
G01*
G04 APERTURE LIST*
G04 #@! TA.AperFunction,ComponentPad*
%ADD10O,1.700000X1.700000*%
G04 #@! TD*
G04 #@! TA.AperFunction,ComponentPad*
%ADD11R,1.700000X1.700000*%
G04 #@! TD*
G04 #@! TA.AperFunction,ComponentPad*
%ADD12C,4.700000*%
G04 #@! TD*
G04 #@! TA.AperFunction,ComponentPad*
%ADD13O,1.600000X1.600000*%
G04 #@! TD*
G04 #@! TA.AperFunction,ComponentPad*
%ADD14C,1.600000*%
G04 #@! TD*
G04 #@! TA.AperFunction,ComponentPad*
%ADD15R,1.500000X1.050000*%
G04 #@! TD*
G04 #@! TA.AperFunction,ComponentPad*
%ADD16O,1.500000X1.050000*%
G04 #@! TD*
G04 #@! TA.AperFunction,ComponentPad*
%ADD17C,1.700000*%
G04 #@! TD*
G04 #@! TA.AperFunction,ComponentPad*
%ADD18O,1.600000X2.400000*%
G04 #@! TD*
G04 #@! TA.AperFunction,ComponentPad*
%ADD19R,1.600000X2.400000*%
G04 #@! TD*
G04 #@! TA.AperFunction,ComponentPad*
%ADD20R,1.050000X1.500000*%
G04 #@! TD*
G04 #@! TA.AperFunction,ComponentPad*
%ADD21O,1.050000X1.500000*%
G04 #@! TD*
G04 #@! TA.AperFunction,ComponentPad*
%ADD22R,1.600000X1.600000*%
G04 #@! TD*
G04 #@! TA.AperFunction,ViaPad*
%ADD23C,0.800000*%
G04 #@! TD*
G04 #@! TA.AperFunction,Conductor*
%ADD24C,0.250000*%
G04 #@! TD*
G04 APERTURE END LIST*
D10*
G04 #@! TO.P,J2,8*
G04 #@! TO.N,GND*
X8255000Y-60960000D03*
G04 #@! TO.P,J2,7*
G04 #@! TO.N,Net-(J2-Pad7)*
X8255000Y-58420000D03*
G04 #@! TO.P,J2,6*
G04 #@! TO.N,Net-(J2-Pad6)*
X8255000Y-55880000D03*
G04 #@! TO.P,J2,5*
G04 #@! TO.N,Net-(J2-Pad5)*
X8255000Y-53340000D03*
G04 #@! TO.P,J2,4*
G04 #@! TO.N,Net-(J2-Pad4)*
X8255000Y-50800000D03*
G04 #@! TO.P,J2,3*
G04 #@! TO.N,Net-(J2-Pad3)*
X8255000Y-48260000D03*
G04 #@! TO.P,J2,2*
G04 #@! TO.N,Net-(J2-Pad2)*
X8255000Y-45720000D03*
D11*
G04 #@! TO.P,J2,1*
G04 #@! TO.N,GND*
X8255000Y-43180000D03*
G04 #@! TD*
D10*
G04 #@! TO.P,J1,8*
G04 #@! TO.N,Net-(J1-Pad8)*
X3810000Y-60960000D03*
G04 #@! TO.P,J1,7*
G04 #@! TO.N,GND*
X3810000Y-58420000D03*
G04 #@! TO.P,J1,6*
X3810000Y-55880000D03*
G04 #@! TO.P,J1,5*
X3810000Y-53340000D03*
G04 #@! TO.P,J1,4*
X3810000Y-50800000D03*
G04 #@! TO.P,J1,3*
X3810000Y-48260000D03*
G04 #@! TO.P,J1,2*
X3810000Y-45720000D03*
D11*
G04 #@! TO.P,J1,1*
G04 #@! TO.N,Net-(J1-Pad1)*
X3810000Y-43180000D03*
G04 #@! TD*
D12*
G04 #@! TO.P,H2,1*
G04 #@! TO.N,GND*
X34290000Y-86360000D03*
G04 #@! TD*
G04 #@! TO.P,H1,1*
G04 #@! TO.N,GND*
X34290000Y-15240000D03*
G04 #@! TD*
D13*
G04 #@! TO.P,R27,2*
G04 #@! TO.N,Net-(Q11-Pad2)*
X19050000Y-37465000D03*
D14*
G04 #@! TO.P,R27,1*
G04 #@! TO.N,Net-(Q5-Pad1)*
X26670000Y-37465000D03*
G04 #@! TD*
D15*
G04 #@! TO.P,Q11,1*
G04 #@! TO.N,+5V*
X15875000Y-38735000D03*
D16*
G04 #@! TO.P,Q11,3*
G04 #@! TO.N,Net-(J2-Pad2)*
X15875000Y-36195000D03*
G04 #@! TO.P,Q11,2*
G04 #@! TO.N,Net-(Q11-Pad2)*
X15875000Y-37465000D03*
G04 #@! TD*
D17*
G04 #@! TO.P,J3,16*
G04 #@! TO.N,N/C*
X10160000Y-94615000D03*
G04 #@! TO.P,J3,14*
X12700000Y-94615000D03*
G04 #@! TO.P,J3,12*
G04 #@! TO.N,+5V*
X15240000Y-94615000D03*
G04 #@! TO.P,J3,10*
G04 #@! TO.N,+12V*
X17780000Y-94615000D03*
G04 #@! TO.P,J3,8*
G04 #@! TO.N,GND*
X20320000Y-94615000D03*
G04 #@! TO.P,J3,6*
X22860000Y-94615000D03*
G04 #@! TO.P,J3,4*
X25400000Y-94615000D03*
G04 #@! TO.P,J3,2*
G04 #@! TO.N,N/C*
X27940000Y-94615000D03*
G04 #@! TO.P,J3,15*
X10160000Y-97155000D03*
G04 #@! TO.P,J3,13*
X12700000Y-97155000D03*
G04 #@! TO.P,J3,11*
G04 #@! TO.N,+5V*
X15240000Y-97155000D03*
G04 #@! TO.P,J3,9*
G04 #@! TO.N,+12V*
X17780000Y-97155000D03*
G04 #@! TO.P,J3,7*
G04 #@! TO.N,GND*
X20320000Y-97155000D03*
G04 #@! TO.P,J3,5*
X22860000Y-97155000D03*
G04 #@! TO.P,J3,3*
X25400000Y-97155000D03*
G04 #@! TO.P,J3,1*
G04 #@! TO.N,N/C*
G04 #@! TA.AperFunction,ComponentPad*
G36*
G01*
X28540000Y-98005000D02*
X27340000Y-98005000D01*
G75*
G02*
X27090000Y-97755000I0J250000D01*
G01*
X27090000Y-96555000D01*
G75*
G02*
X27340000Y-96305000I250000J0D01*
G01*
X28540000Y-96305000D01*
G75*
G02*
X28790000Y-96555000I0J-250000D01*
G01*
X28790000Y-97755000D01*
G75*
G02*
X28540000Y-98005000I-250000J0D01*
G01*
G37*
G04 #@! TD.AperFunction*
G04 #@! TD*
D18*
G04 #@! TO.P,U1,14*
G04 #@! TO.N,+12V*
X10795000Y-14605000D03*
G04 #@! TO.P,U1,7*
G04 #@! TO.N,GND*
X26035000Y-22225000D03*
G04 #@! TO.P,U1,13*
G04 #@! TO.N,N/C*
X13335000Y-14605000D03*
G04 #@! TO.P,U1,6*
G04 #@! TO.N,Net-(R15-Pad1)*
X23495000Y-22225000D03*
G04 #@! TO.P,U1,12*
G04 #@! TO.N,Net-(R12-Pad1)*
X15875000Y-14605000D03*
G04 #@! TO.P,U1,5*
G04 #@! TO.N,Net-(R16-Pad1)*
X20955000Y-22225000D03*
G04 #@! TO.P,U1,11*
G04 #@! TO.N,Net-(R13-Pad1)*
X18415000Y-14605000D03*
G04 #@! TO.P,U1,4*
G04 #@! TO.N,N/C*
X18415000Y-22225000D03*
G04 #@! TO.P,U1,10*
X20955000Y-14605000D03*
G04 #@! TO.P,U1,3*
X15875000Y-22225000D03*
G04 #@! TO.P,U1,9*
G04 #@! TO.N,Net-(R14-Pad1)*
X23495000Y-14605000D03*
G04 #@! TO.P,U1,2*
G04 #@! TO.N,Net-(Q4-Pad1)*
X13335000Y-22225000D03*
G04 #@! TO.P,U1,8*
G04 #@! TO.N,N/C*
X26035000Y-14605000D03*
D19*
G04 #@! TO.P,U1,1*
G04 #@! TO.N,Net-(Q2-Pad1)*
X10795000Y-22225000D03*
G04 #@! TD*
D13*
G04 #@! TO.P,R16,2*
G04 #@! TO.N,Net-(Q10-Pad2)*
X19050000Y-66040000D03*
D14*
G04 #@! TO.P,R16,1*
G04 #@! TO.N,Net-(R16-Pad1)*
X26670000Y-66040000D03*
G04 #@! TD*
D13*
G04 #@! TO.P,R15,2*
G04 #@! TO.N,Net-(Q9-Pad2)*
X19050000Y-60325000D03*
D14*
G04 #@! TO.P,R15,1*
G04 #@! TO.N,Net-(R15-Pad1)*
X26670000Y-60325000D03*
G04 #@! TD*
D13*
G04 #@! TO.P,R14,2*
G04 #@! TO.N,Net-(Q8-Pad2)*
X19050000Y-54610000D03*
D14*
G04 #@! TO.P,R14,1*
G04 #@! TO.N,Net-(R14-Pad1)*
X26670000Y-54610000D03*
G04 #@! TD*
D13*
G04 #@! TO.P,R13,2*
G04 #@! TO.N,Net-(Q7-Pad2)*
X19050000Y-48895000D03*
D14*
G04 #@! TO.P,R13,1*
G04 #@! TO.N,Net-(R13-Pad1)*
X26670000Y-48895000D03*
G04 #@! TD*
D13*
G04 #@! TO.P,R12,2*
G04 #@! TO.N,Net-(Q6-Pad2)*
X19050000Y-43180000D03*
D14*
G04 #@! TO.P,R12,1*
G04 #@! TO.N,Net-(R12-Pad1)*
X26670000Y-43180000D03*
G04 #@! TD*
D13*
G04 #@! TO.P,R11,2*
G04 #@! TO.N,+12V*
X6985000Y-25400000D03*
D14*
G04 #@! TO.P,R11,1*
G04 #@! TO.N,Net-(Q5-Pad1)*
X6985000Y-33020000D03*
G04 #@! TD*
D13*
G04 #@! TO.P,R10,2*
G04 #@! TO.N,Net-(Q2-Pad1)*
X10795000Y-25400000D03*
D14*
G04 #@! TO.P,R10,1*
G04 #@! TO.N,Net-(Q5-Pad2)*
X10795000Y-33020000D03*
G04 #@! TD*
D13*
G04 #@! TO.P,R9,2*
G04 #@! TO.N,+12V*
X6350000Y-83820000D03*
D14*
G04 #@! TO.P,R9,1*
G04 #@! TO.N,Net-(Q4-Pad1)*
X6350000Y-76200000D03*
G04 #@! TD*
D13*
G04 #@! TO.P,R8,2*
G04 #@! TO.N,Net-(J1-Pad8)*
X10795000Y-66675000D03*
D14*
G04 #@! TO.P,R8,1*
G04 #@! TO.N,Net-(D3-Pad1)*
X10795000Y-74295000D03*
G04 #@! TD*
D13*
G04 #@! TO.P,R7,2*
G04 #@! TO.N,+12V*
X2540000Y-78105000D03*
D14*
G04 #@! TO.P,R7,1*
G04 #@! TO.N,Net-(Q3-Pad1)*
X2540000Y-70485000D03*
G04 #@! TD*
D13*
G04 #@! TO.P,R6,2*
G04 #@! TO.N,+12V*
X2540000Y-25400000D03*
D14*
G04 #@! TO.P,R6,1*
G04 #@! TO.N,Net-(Q2-Pad1)*
X2540000Y-33020000D03*
G04 #@! TD*
D13*
G04 #@! TO.P,R5,2*
G04 #@! TO.N,+12V*
X18415000Y-74295000D03*
D14*
G04 #@! TO.P,R5,1*
G04 #@! TO.N,Net-(D3-Pad2)*
X26035000Y-74295000D03*
G04 #@! TD*
D13*
G04 #@! TO.P,R2,2*
G04 #@! TO.N,Net-(Q1-Pad2)*
X29210000Y-79375000D03*
D14*
G04 #@! TO.P,R2,1*
G04 #@! TO.N,Net-(C1-Pad1)*
X29210000Y-71755000D03*
G04 #@! TD*
D13*
G04 #@! TO.P,R1,2*
G04 #@! TO.N,+12V*
X18415000Y-71120000D03*
D14*
G04 #@! TO.P,R1,1*
G04 #@! TO.N,Net-(C1-Pad1)*
X26035000Y-71120000D03*
G04 #@! TD*
D15*
G04 #@! TO.P,Q10,1*
G04 #@! TO.N,+5V*
X15875000Y-67310000D03*
D16*
G04 #@! TO.P,Q10,3*
G04 #@! TO.N,Net-(J2-Pad7)*
X15875000Y-64770000D03*
G04 #@! TO.P,Q10,2*
G04 #@! TO.N,Net-(Q10-Pad2)*
X15875000Y-66040000D03*
G04 #@! TD*
D15*
G04 #@! TO.P,Q9,1*
G04 #@! TO.N,+5V*
X15875000Y-61595000D03*
D16*
G04 #@! TO.P,Q9,3*
G04 #@! TO.N,Net-(J2-Pad6)*
X15875000Y-59055000D03*
G04 #@! TO.P,Q9,2*
G04 #@! TO.N,Net-(Q9-Pad2)*
X15875000Y-60325000D03*
G04 #@! TD*
D15*
G04 #@! TO.P,Q8,1*
G04 #@! TO.N,+5V*
X15875000Y-55880000D03*
D16*
G04 #@! TO.P,Q8,3*
G04 #@! TO.N,Net-(J2-Pad5)*
X15875000Y-53340000D03*
G04 #@! TO.P,Q8,2*
G04 #@! TO.N,Net-(Q8-Pad2)*
X15875000Y-54610000D03*
G04 #@! TD*
D15*
G04 #@! TO.P,Q7,1*
G04 #@! TO.N,+5V*
X15875000Y-50165000D03*
D16*
G04 #@! TO.P,Q7,3*
G04 #@! TO.N,Net-(J2-Pad4)*
X15875000Y-47625000D03*
G04 #@! TO.P,Q7,2*
G04 #@! TO.N,Net-(Q7-Pad2)*
X15875000Y-48895000D03*
G04 #@! TD*
D15*
G04 #@! TO.P,Q6,1*
G04 #@! TO.N,+5V*
X15875000Y-44450000D03*
D16*
G04 #@! TO.P,Q6,3*
G04 #@! TO.N,Net-(J2-Pad3)*
X15875000Y-41910000D03*
G04 #@! TO.P,Q6,2*
G04 #@! TO.N,Net-(Q6-Pad2)*
X15875000Y-43180000D03*
G04 #@! TD*
D15*
G04 #@! TO.P,Q5,1*
G04 #@! TO.N,Net-(Q5-Pad1)*
X14605000Y-27305000D03*
D16*
G04 #@! TO.P,Q5,3*
G04 #@! TO.N,GND*
X14605000Y-29845000D03*
G04 #@! TO.P,Q5,2*
G04 #@! TO.N,Net-(Q5-Pad2)*
X14605000Y-28575000D03*
G04 #@! TD*
D15*
G04 #@! TO.P,Q4,1*
G04 #@! TO.N,Net-(Q4-Pad1)*
X6350000Y-70485000D03*
D16*
G04 #@! TO.P,Q4,3*
G04 #@! TO.N,GND*
X6350000Y-73025000D03*
G04 #@! TO.P,Q4,2*
G04 #@! TO.N,Net-(Q3-Pad1)*
X6350000Y-71755000D03*
G04 #@! TD*
D20*
G04 #@! TO.P,Q3,1*
G04 #@! TO.N,Net-(Q3-Pad1)*
X2540000Y-66675000D03*
D21*
G04 #@! TO.P,Q3,3*
G04 #@! TO.N,GND*
X5080000Y-66675000D03*
G04 #@! TO.P,Q3,2*
G04 #@! TO.N,Net-(J1-Pad8)*
X3810000Y-66675000D03*
G04 #@! TD*
D20*
G04 #@! TO.P,Q2,1*
G04 #@! TO.N,Net-(Q2-Pad1)*
X2540000Y-37465000D03*
D21*
G04 #@! TO.P,Q2,3*
G04 #@! TO.N,GND*
X5080000Y-37465000D03*
G04 #@! TO.P,Q2,2*
G04 #@! TO.N,Net-(J1-Pad1)*
X3810000Y-37465000D03*
G04 #@! TD*
D20*
G04 #@! TO.P,Q1,1*
G04 #@! TO.N,Net-(D3-Pad2)*
X21590000Y-79375000D03*
D21*
G04 #@! TO.P,Q1,3*
G04 #@! TO.N,GND*
X24130000Y-79375000D03*
G04 #@! TO.P,Q1,2*
G04 #@! TO.N,Net-(Q1-Pad2)*
X22860000Y-79375000D03*
G04 #@! TD*
D13*
G04 #@! TO.P,D3,2*
G04 #@! TO.N,Net-(D3-Pad2)*
X18415000Y-77470000D03*
D22*
G04 #@! TO.P,D3,1*
G04 #@! TO.N,Net-(D3-Pad1)*
X10795000Y-77470000D03*
G04 #@! TD*
D14*
G04 #@! TO.P,C5,2*
G04 #@! TO.N,GND*
X10835000Y-87630000D03*
D22*
G04 #@! TO.P,C5,1*
G04 #@! TO.N,+5V*
X13335000Y-87630000D03*
G04 #@! TD*
D14*
G04 #@! TO.P,C3,2*
G04 #@! TO.N,GND*
X20280000Y-87630000D03*
D22*
G04 #@! TO.P,C3,1*
G04 #@! TO.N,+12V*
X17780000Y-87630000D03*
G04 #@! TD*
D14*
G04 #@! TO.P,C2,2*
G04 #@! TO.N,GND*
X6985000Y-20875000D03*
G04 #@! TO.P,C2,1*
G04 #@! TO.N,+12V*
X6985000Y-15875000D03*
G04 #@! TD*
G04 #@! TO.P,C1,2*
G04 #@! TO.N,GND*
X32385000Y-76755000D03*
G04 #@! TO.P,C1,1*
G04 #@! TO.N,Net-(C1-Pad1)*
X32385000Y-71755000D03*
G04 #@! TD*
D23*
G04 #@! TO.N,+12V*
X16510000Y-83820000D03*
X16510000Y-69215000D03*
X36195000Y-69215000D03*
X2540000Y-15875000D03*
X29210000Y-18415000D03*
G04 #@! TO.N,Net-(Q2-Pad1)*
X5080000Y-22225000D03*
G04 #@! TO.N,Net-(Q4-Pad1)*
X8255000Y-71120000D03*
G04 #@! TO.N,Net-(Q5-Pad1)*
X34925000Y-37465000D03*
X34925000Y-27305000D03*
G04 #@! TO.N,Net-(R12-Pad1)*
X33655000Y-43180000D03*
X33655000Y-28575000D03*
X17145000Y-28575000D03*
G04 #@! TO.N,Net-(R13-Pad1)*
X32385000Y-48895000D03*
X32385000Y-29845000D03*
X19685000Y-29845000D03*
G04 #@! TO.N,Net-(R14-Pad1)*
X31115000Y-54610000D03*
X31115000Y-31115000D03*
X24765000Y-31115000D03*
G04 #@! TO.N,Net-(R15-Pad1)*
X29845000Y-60325000D03*
X29845000Y-32385000D03*
X23495000Y-32385000D03*
G04 #@! TO.N,Net-(R16-Pad1)*
X28575000Y-66040000D03*
X28575000Y-33655000D03*
X20955000Y-33655000D03*
G04 #@! TD*
D24*
G04 #@! TO.N,+12V*
X16510000Y-71120000D02*
X18415000Y-71120000D01*
X18415000Y-74295000D02*
X16510000Y-74295000D01*
X16510000Y-74295000D02*
X16510000Y-71120000D01*
X16510000Y-83820000D02*
X16510000Y-74295000D01*
X16510000Y-71120000D02*
X16510000Y-69215000D01*
X16510000Y-69215000D02*
X16510000Y-69215000D01*
X36195000Y-69215000D02*
X36195000Y-27305000D01*
X2540000Y-25400000D02*
X2540000Y-15875000D01*
X2540000Y-15875000D02*
X2540000Y-15875000D01*
X36195000Y-27305000D02*
X36195000Y-19050000D01*
X36195000Y-19050000D02*
X35560000Y-18415000D01*
X35560000Y-18415000D02*
X29210000Y-18415000D01*
X29210000Y-18415000D02*
X29210000Y-18415000D01*
G04 #@! TO.N,+5V*
X13335000Y-38735000D02*
X15875000Y-38735000D01*
X15875000Y-44450000D02*
X13335000Y-44450000D01*
X13335000Y-44450000D02*
X13335000Y-38735000D01*
X15875000Y-50165000D02*
X13335000Y-50165000D01*
X13335000Y-50165000D02*
X13335000Y-44450000D01*
X15875000Y-55880000D02*
X13335000Y-55880000D01*
X15875000Y-61595000D02*
X13335000Y-61595000D01*
X13335000Y-61595000D02*
X13335000Y-50165000D01*
X13335000Y-87630000D02*
X13335000Y-61595000D01*
X15875000Y-67310000D02*
X13335000Y-67310000D01*
G04 #@! TO.N,Net-(D3-Pad1)*
X10795000Y-74295000D02*
X10795000Y-77470000D01*
G04 #@! TO.N,Net-(Q2-Pad1)*
X2540000Y-33020000D02*
X2540000Y-37465000D01*
X10795000Y-22225000D02*
X10795000Y-25400000D01*
X5080000Y-30480000D02*
X5080000Y-22225000D01*
X2540000Y-33020000D02*
X5080000Y-30480000D01*
X5080000Y-22225000D02*
X5080000Y-22225000D01*
G04 #@! TO.N,Net-(Q3-Pad1)*
X2540000Y-66675000D02*
X2540000Y-70485000D01*
G04 #@! TO.N,Net-(Q4-Pad1)*
X8255000Y-71120000D02*
X8255000Y-66040000D01*
X8255000Y-66040000D02*
X10160000Y-64135000D01*
X10160000Y-64135000D02*
X10160000Y-36195000D01*
X13335000Y-33020000D02*
X10160000Y-36195000D01*
X13335000Y-22225000D02*
X13335000Y-33020000D01*
G04 #@! TO.N,Net-(Q5-Pad1)*
X34925000Y-37465000D02*
X34925000Y-27305000D01*
X34925000Y-27305000D02*
X34925000Y-27305000D01*
G04 #@! TO.N,Net-(R12-Pad1)*
X33655000Y-43180000D02*
X33655000Y-33655000D01*
X33655000Y-33655000D02*
X33655000Y-28575000D01*
X33655000Y-28575000D02*
X33655000Y-28575000D01*
X15875000Y-14605000D02*
X15875000Y-17780000D01*
X15875000Y-17780000D02*
X17145000Y-19050000D01*
X17145000Y-19050000D02*
X17145000Y-28575000D01*
G04 #@! TO.N,Net-(R13-Pad1)*
X32385000Y-48895000D02*
X32385000Y-33655000D01*
X32385000Y-33655000D02*
X32385000Y-29845000D01*
X32385000Y-29845000D02*
X32385000Y-29845000D01*
X18415000Y-14605000D02*
X18415000Y-17780000D01*
X18415000Y-17780000D02*
X19685000Y-19050000D01*
X19685000Y-19050000D02*
X19685000Y-29845000D01*
G04 #@! TO.N,Net-(R14-Pad1)*
X31115000Y-54610000D02*
X31115000Y-33655000D01*
X31115000Y-33655000D02*
X31115000Y-31115000D01*
X31115000Y-31115000D02*
X31115000Y-31115000D01*
X24765000Y-21503996D02*
X24765000Y-31115000D01*
X24765000Y-19050000D02*
X24765000Y-21503996D01*
X23495000Y-17780000D02*
X24765000Y-19050000D01*
X23495000Y-14605000D02*
X23495000Y-17780000D01*
G04 #@! TO.N,Net-(R15-Pad1)*
X29845000Y-60325000D02*
X29845000Y-33655000D01*
X29845000Y-33655000D02*
X29845000Y-32385000D01*
X29845000Y-32385000D02*
X29845000Y-32385000D01*
X23495000Y-32385000D02*
X23495000Y-22225000D01*
G04 #@! TO.N,Net-(R16-Pad1)*
X28575000Y-66040000D02*
X28575000Y-33655000D01*
X28575000Y-33655000D02*
X28575000Y-33655000D01*
X20955000Y-33655000D02*
X20955000Y-22225000D01*
G04 #@! TO.N,Net-(J1-Pad8)*
X3810000Y-60960000D02*
X3810000Y-66675000D01*
G04 #@! TO.N,Net-(J1-Pad1)*
X3810000Y-37465000D02*
X3810000Y-43180000D01*
G04 #@! TD*
M02*
