G04 #@! TF.GenerationSoftware,KiCad,Pcbnew,(5.1.9)-1*
G04 #@! TF.CreationDate,2021-04-27T02:13:11+02:00*
G04 #@! TF.ProjectId,Clock Divider Main,436c6f63-6b20-4446-9976-69646572204d,rev?*
G04 #@! TF.SameCoordinates,Original*
G04 #@! TF.FileFunction,Soldermask,Top*
G04 #@! TF.FilePolarity,Negative*
%FSLAX46Y46*%
G04 Gerber Fmt 4.6, Leading zero omitted, Abs format (unit mm)*
G04 Created by KiCad (PCBNEW (5.1.9)-1) date 2021-04-27 02:13:11*
%MOMM*%
%LPD*%
G01*
G04 APERTURE LIST*
%ADD10O,1.700000X1.700000*%
%ADD11R,1.700000X1.700000*%
%ADD12C,4.700000*%
%ADD13O,1.600000X1.600000*%
%ADD14C,1.600000*%
%ADD15R,1.500000X1.050000*%
%ADD16O,1.500000X1.050000*%
%ADD17C,1.700000*%
%ADD18O,1.600000X2.400000*%
%ADD19R,1.600000X2.400000*%
%ADD20R,1.050000X1.500000*%
%ADD21O,1.050000X1.500000*%
%ADD22R,1.600000X1.600000*%
G04 APERTURE END LIST*
D10*
G04 #@! TO.C,J2*
X8255000Y-60960000D03*
X8255000Y-58420000D03*
X8255000Y-55880000D03*
X8255000Y-53340000D03*
X8255000Y-50800000D03*
X8255000Y-48260000D03*
X8255000Y-45720000D03*
D11*
X8255000Y-43180000D03*
G04 #@! TD*
D10*
G04 #@! TO.C,J1*
X3810000Y-60960000D03*
X3810000Y-58420000D03*
X3810000Y-55880000D03*
X3810000Y-53340000D03*
X3810000Y-50800000D03*
X3810000Y-48260000D03*
X3810000Y-45720000D03*
D11*
X3810000Y-43180000D03*
G04 #@! TD*
D12*
G04 #@! TO.C,H2*
X34290000Y-86360000D03*
G04 #@! TD*
G04 #@! TO.C,H1*
X34290000Y-15240000D03*
G04 #@! TD*
D13*
G04 #@! TO.C,R27*
X19050000Y-37465000D03*
D14*
X26670000Y-37465000D03*
G04 #@! TD*
D15*
G04 #@! TO.C,Q11*
X15875000Y-38735000D03*
D16*
X15875000Y-36195000D03*
X15875000Y-37465000D03*
G04 #@! TD*
D17*
G04 #@! TO.C,J3*
X10160000Y-94615000D03*
X12700000Y-94615000D03*
X15240000Y-94615000D03*
X17780000Y-94615000D03*
X20320000Y-94615000D03*
X22860000Y-94615000D03*
X25400000Y-94615000D03*
X27940000Y-94615000D03*
X10160000Y-97155000D03*
X12700000Y-97155000D03*
X15240000Y-97155000D03*
X17780000Y-97155000D03*
X20320000Y-97155000D03*
X22860000Y-97155000D03*
X25400000Y-97155000D03*
G36*
G01*
X28540000Y-98005000D02*
X27340000Y-98005000D01*
G75*
G02*
X27090000Y-97755000I0J250000D01*
G01*
X27090000Y-96555000D01*
G75*
G02*
X27340000Y-96305000I250000J0D01*
G01*
X28540000Y-96305000D01*
G75*
G02*
X28790000Y-96555000I0J-250000D01*
G01*
X28790000Y-97755000D01*
G75*
G02*
X28540000Y-98005000I-250000J0D01*
G01*
G37*
G04 #@! TD*
D18*
G04 #@! TO.C,U1*
X10795000Y-14605000D03*
X26035000Y-22225000D03*
X13335000Y-14605000D03*
X23495000Y-22225000D03*
X15875000Y-14605000D03*
X20955000Y-22225000D03*
X18415000Y-14605000D03*
X18415000Y-22225000D03*
X20955000Y-14605000D03*
X15875000Y-22225000D03*
X23495000Y-14605000D03*
X13335000Y-22225000D03*
X26035000Y-14605000D03*
D19*
X10795000Y-22225000D03*
G04 #@! TD*
D13*
G04 #@! TO.C,R16*
X19050000Y-66040000D03*
D14*
X26670000Y-66040000D03*
G04 #@! TD*
D13*
G04 #@! TO.C,R15*
X19050000Y-60325000D03*
D14*
X26670000Y-60325000D03*
G04 #@! TD*
D13*
G04 #@! TO.C,R14*
X19050000Y-54610000D03*
D14*
X26670000Y-54610000D03*
G04 #@! TD*
D13*
G04 #@! TO.C,R13*
X19050000Y-48895000D03*
D14*
X26670000Y-48895000D03*
G04 #@! TD*
D13*
G04 #@! TO.C,R12*
X19050000Y-43180000D03*
D14*
X26670000Y-43180000D03*
G04 #@! TD*
D13*
G04 #@! TO.C,R11*
X6985000Y-25400000D03*
D14*
X6985000Y-33020000D03*
G04 #@! TD*
D13*
G04 #@! TO.C,R10*
X10795000Y-25400000D03*
D14*
X10795000Y-33020000D03*
G04 #@! TD*
D13*
G04 #@! TO.C,R9*
X6350000Y-83820000D03*
D14*
X6350000Y-76200000D03*
G04 #@! TD*
D13*
G04 #@! TO.C,R8*
X10795000Y-66675000D03*
D14*
X10795000Y-74295000D03*
G04 #@! TD*
D13*
G04 #@! TO.C,R7*
X2540000Y-78105000D03*
D14*
X2540000Y-70485000D03*
G04 #@! TD*
D13*
G04 #@! TO.C,R6*
X2540000Y-25400000D03*
D14*
X2540000Y-33020000D03*
G04 #@! TD*
D13*
G04 #@! TO.C,R5*
X18415000Y-74295000D03*
D14*
X26035000Y-74295000D03*
G04 #@! TD*
D13*
G04 #@! TO.C,R2*
X29210000Y-79375000D03*
D14*
X29210000Y-71755000D03*
G04 #@! TD*
D13*
G04 #@! TO.C,R1*
X18415000Y-71120000D03*
D14*
X26035000Y-71120000D03*
G04 #@! TD*
D15*
G04 #@! TO.C,Q10*
X15875000Y-67310000D03*
D16*
X15875000Y-64770000D03*
X15875000Y-66040000D03*
G04 #@! TD*
D15*
G04 #@! TO.C,Q9*
X15875000Y-61595000D03*
D16*
X15875000Y-59055000D03*
X15875000Y-60325000D03*
G04 #@! TD*
D15*
G04 #@! TO.C,Q8*
X15875000Y-55880000D03*
D16*
X15875000Y-53340000D03*
X15875000Y-54610000D03*
G04 #@! TD*
D15*
G04 #@! TO.C,Q7*
X15875000Y-50165000D03*
D16*
X15875000Y-47625000D03*
X15875000Y-48895000D03*
G04 #@! TD*
D15*
G04 #@! TO.C,Q6*
X15875000Y-44450000D03*
D16*
X15875000Y-41910000D03*
X15875000Y-43180000D03*
G04 #@! TD*
D15*
G04 #@! TO.C,Q5*
X14605000Y-27305000D03*
D16*
X14605000Y-29845000D03*
X14605000Y-28575000D03*
G04 #@! TD*
D15*
G04 #@! TO.C,Q4*
X6350000Y-70485000D03*
D16*
X6350000Y-73025000D03*
X6350000Y-71755000D03*
G04 #@! TD*
D20*
G04 #@! TO.C,Q3*
X2540000Y-66675000D03*
D21*
X5080000Y-66675000D03*
X3810000Y-66675000D03*
G04 #@! TD*
D20*
G04 #@! TO.C,Q2*
X2540000Y-37465000D03*
D21*
X5080000Y-37465000D03*
X3810000Y-37465000D03*
G04 #@! TD*
D20*
G04 #@! TO.C,Q1*
X21590000Y-79375000D03*
D21*
X24130000Y-79375000D03*
X22860000Y-79375000D03*
G04 #@! TD*
D13*
G04 #@! TO.C,D3*
X18415000Y-77470000D03*
D22*
X10795000Y-77470000D03*
G04 #@! TD*
D14*
G04 #@! TO.C,C5*
X10835000Y-87630000D03*
D22*
X13335000Y-87630000D03*
G04 #@! TD*
D14*
G04 #@! TO.C,C3*
X20280000Y-87630000D03*
D22*
X17780000Y-87630000D03*
G04 #@! TD*
D14*
G04 #@! TO.C,C2*
X6985000Y-20875000D03*
X6985000Y-15875000D03*
G04 #@! TD*
G04 #@! TO.C,C1*
X32385000Y-76755000D03*
X32385000Y-71755000D03*
G04 #@! TD*
M02*
