<?xml version="1.0" encoding="UTF-8" standalone="no"?>
<!-- Created with Inkscape (http://www.inkscape.org/) -->

<svg
   width="105mm"
   height="148.5mm"
   viewBox="0 0 105 148.5"
   version="1.1"
   id="svg39968"
   inkscape:version="1.1.1 (3bf5ae0d25, 2021-09-20)"
   sodipodi:docname="Handbuch Seite 4.svg"
   xmlns:inkscape="http://www.inkscape.org/namespaces/inkscape"
   xmlns:sodipodi="http://sodipodi.sourceforge.net/DTD/sodipodi-0.dtd"
   xmlns="http://www.w3.org/2000/svg"
   xmlns:svg="http://www.w3.org/2000/svg">
  <sodipodi:namedview
     id="namedview39970"
     pagecolor="#ffffff"
     bordercolor="#666666"
     borderopacity="1.0"
     inkscape:pageshadow="2"
     inkscape:pageopacity="0.0"
     inkscape:pagecheckerboard="0"
     inkscape:document-units="mm"
     showgrid="false"
     showguides="true"
     inkscape:guide-bbox="true"
     inkscape:zoom="1.0985947"
     inkscape:cx="73.275428"
     inkscape:cy="235.3006"
     inkscape:window-width="1920"
     inkscape:window-height="1057"
     inkscape:window-x="1912"
     inkscape:window-y="-8"
     inkscape:window-maximized="1"
     inkscape:current-layer="layer1">
    <sodipodi:guide
       position="5,148.5"
       orientation="-1,0"
       id="guide40029"
       inkscape:label=""
       inkscape:locked="true"
       inkscape:color="rgb(204,0,0)" />
    <sodipodi:guide
       position="100,148.5"
       orientation="-1,0"
       id="guide40031"
       inkscape:label=""
       inkscape:locked="true"
       inkscape:color="rgb(204,0,0)" />
    <sodipodi:guide
       position="0,143.5"
       orientation="0,1"
       id="guide40033"
       inkscape:label=""
       inkscape:locked="true"
       inkscape:color="rgb(204,0,0)" />
    <sodipodi:guide
       position="0,5"
       orientation="0,1"
       id="guide40035"
       inkscape:label=""
       inkscape:locked="true"
       inkscape:color="rgb(204,0,0)" />
  </sodipodi:namedview>
  <defs
     id="defs39965" />
  <g
     inkscape:label="Ebene 1"
     inkscape:groupmode="layer"
     id="layer1">
    <rect
       style="vector-effect:non-scaling-stroke;fill:#000000;fill-opacity:1;stroke:none;stroke-width:0.00143078;stroke-linecap:round;-inkscape-stroke:hairline"
       id="rect55399"
       width="95"
       height="1"
       x="5"
       y="142.5" />
    <rect
       style="vector-effect:non-scaling-stroke;fill:#000000;fill-opacity:1;stroke:none;stroke-width:0.00143078;stroke-linecap:round;-inkscape-stroke:hairline"
       id="rect55399-6"
       width="95"
       height="1"
       x="5"
       y="5.0000005" />
    <text
       xml:space="preserve"
       style="font-style:normal;font-variant:normal;font-weight:normal;font-stretch:normal;font-size:5px;line-height:1.25;font-family:'OCR A Extended';-inkscape-font-specification:'OCR A Extended';text-align:end;text-anchor:end;fill:#000000;fill-opacity:1;stroke:none;stroke-width:0.264583"
       x="100.44919"
       y="126.54248"
       id="text85205"><tspan
         sodipodi:role="line"
         id="tspan85203"
         style="font-style:normal;font-variant:normal;font-weight:normal;font-stretch:normal;font-size:7px;font-family:'OCR A Extended';-inkscape-font-specification:'OCR A Extended';text-align:end;text-anchor:end;stroke-width:0.264583"
         x="100.44919"
         y="126.54248">CATs EuroSynth</tspan><tspan
         sodipodi:role="line"
         style="font-style:normal;font-variant:normal;font-weight:normal;font-stretch:normal;font-size:4px;font-family:'OCR A Extended';-inkscape-font-specification:'OCR A Extended';text-align:end;text-anchor:end;stroke-width:0.264583"
         x="100.44919"
         y="133.46877"
         id="tspan87649">Dr. Michael Zülch</tspan><tspan
         sodipodi:role="line"
         style="font-style:normal;font-variant:normal;font-weight:normal;font-stretch:normal;font-size:4px;font-family:'OCR A Extended';-inkscape-font-specification:'OCR A Extended';text-align:end;text-anchor:end;stroke-width:0.264583"
         x="100.44919"
         y="139.71877"
         id="tspan89433">cats.synth@gmx.de</tspan></text>
    <g
       inkscape:label="QR Code: https://github.com/mzuelch/CATs-Eurosynth"
       transform="matrix(0.264583,0,0,0.264583,32.921,54.671)"
       id="g127369">
      <rect
         x="0"
         y="0"
         width="148"
         height="148"
         style="fill:#ffffff;stroke:none"
         id="rect127363" />
      <g
         style="fill:#000000;stroke:none"
         id="g127367">
        <path
           d="m 127.6,132 h -3.2 c -0.22091,0 -0.4,-0.17909 -0.4,-0.4 v -7.2 c 0,-0.22091 0.17909,-0.4 0.4,-0.4 h 3.2 c 0.22091,0 0.4,0.17909 0.4,0.4 v 7.2 c 0,0.22091 -0.17909,0.4 -0.4,0.4 z m -8,0 H 96.4 c -0.220914,0 -0.4,-0.17909 -0.4,-0.4 v -3.2 C 96,128.17909 95.820914,128 95.6,128 H 84.4 c -0.220914,0 -0.4,0.17909 -0.4,0.4 v 3.2 c 0,0.22091 -0.179086,0.4 -0.4,0.4 h -3.2 c -0.220914,0 -0.4,-0.17909 -0.4,-0.4 v -3.2 c 0,-0.22091 -0.179086,-0.4 -0.4,-0.4 h -3.2 c -0.220914,0 -0.4,-0.17909 -0.4,-0.4 v -3.2 c 0,-0.22091 0.179086,-0.4 0.4,-0.4 h 3.2 c 0.220914,0 0.4,-0.17909 0.4,-0.4 v -3.2 c 0,-0.22091 0.179086,-0.4 0.4,-0.4 h 3.2 c 0.220914,0 0.4,-0.17909 0.4,-0.4 v -3.2 c 0,-0.22091 0.179086,-0.4 0.4,-0.4 h 3.2 c 0.220914,0 0.4,0.17909 0.4,0.4 v 3.2 c 0,0.22091 0.179086,0.4 0.4,0.4 h 3.2 c 0.220914,0 0.4,-0.17909 0.4,-0.4 v -3.2 c 0,-0.22091 0.179086,-0.4 0.4,-0.4 h 3.2 c 0.220914,0 0.4,-0.17909 0.4,-0.4 V 104.4 C 96,104.17909 95.820914,104 95.6,104 H 92.4 C 92.179086,104 92,103.82091 92,103.6 V 96.4 C 92,96.179086 92.179086,96 92.4,96 h 3.2 C 95.820914,96 96,95.820914 96,95.6 V 92.4 C 96,92.179086 96.179086,92 96.4,92 h 3.2 c 0.220914,0 0.4,-0.179086 0.4,-0.4 V 88.4 C 100,88.179086 99.820914,88 99.6,88 H 96.4 C 96.179086,88 96,87.820914 96,87.6 V 72.4 C 96,72.179086 95.820914,72 95.6,72 H 92.4 C 92.179086,72 92,71.820914 92,71.6 V 64.4 C 92,64.179086 91.820914,64 91.6,64 H 88.4 C 88.179086,64 88,63.820914 88,63.6 V 60.4 C 88,60.179086 87.820914,60 87.6,60 H 84.4 C 84.179086,60 84,60.179086 84,60.4 v 3.2 C 84,63.820914 83.820914,64 83.6,64 H 72.4 C 72.179086,64 72,64.179086 72,64.4 v 3.2 C 72,67.820914 71.820914,68 71.6,68 H 68.4 C 68.179086,68 68,67.820914 68,67.6 V 60.4 C 68,60.179086 68.179086,60 68.4,60 H 79.6 C 79.820914,60 80,59.820914 80,59.6 V 52.4 C 80,52.179086 80.179086,52 80.4,52 h 7.2 c 0.220914,0 0.4,0.179086 0.4,0.4 v 3.2 c 0,0.220914 0.179086,0.4 0.4,0.4 h 7.2 c 0.220914,0 0.4,0.179086 0.4,0.4 v 7.2 c 0,0.220914 0.179086,0.4 0.4,0.4 h 11.2 c 0.22091,0 0.4,0.179086 0.4,0.4 v 3.2 c 0,0.220914 -0.17909,0.4 -0.4,0.4 h -3.2 c -0.22091,0 -0.4,0.179086 -0.4,0.4 v 3.2 c 0,0.220914 -0.17909,0.4 -0.4,0.4 h -3.2 c -0.22091,0 -0.4,0.179086 -0.4,0.4 v 3.2 c 0,0.220914 0.17909,0.4 0.4,0.4 h 3.2 c 0.22091,0 0.4,-0.179086 0.4,-0.4 v -3.2 c 0,-0.220914 0.17909,-0.4 0.4,-0.4 h 27.2 c 0.22091,0 0.4,0.179086 0.4,0.4 v 3.2 c 0,0.220914 -0.17909,0.4 -0.4,0.4 h -3.2 c -0.22091,0 -0.4,0.179086 -0.4,0.4 v 7.2 c 0,0.220914 -0.17909,0.4 -0.4,0.4 h -3.2 c -0.22091,0 -0.4,-0.179086 -0.4,-0.4 v -7.2 c 0,-0.220914 -0.17909,-0.4 -0.4,-0.4 h -3.2 c -0.22091,0 -0.4,0.179086 -0.4,0.4 v 3.2 c 0,0.220914 -0.17909,0.4 -0.4,0.4 h -3.2 c -0.22091,0 -0.4,-0.179086 -0.4,-0.4 v -3.2 c 0,-0.220914 -0.17909,-0.4 -0.4,-0.4 h -7.2 c -0.22091,0 -0.4,0.179086 -0.4,0.4 v 3.2 c 0,0.220914 -0.17909,0.4 -0.4,0.4 h -7.2 c -0.22091,0 -0.4,0.179086 -0.4,0.4 v 3.2 c 0,0.220914 0.17909,0.4 0.4,0.4 h 7.2 c 0.22091,0 0.4,-0.179086 0.4,-0.4 v -3.2 c 0,-0.220914 0.17909,-0.4 0.4,-0.4 h 3.2 c 0.22091,0 0.4,0.179086 0.4,0.4 v 7.2 c 0,0.220914 0.17909,0.4 0.4,0.4 h 3.2 c 0.22091,0 0.4,0.179086 0.4,0.4 v 19.2 c 0,0.22091 0.17909,0.4 0.4,0.4 h 7.2 c 0.22091,0 0.4,0.17909 0.4,0.4 v 3.2 c 0,0.22091 -0.17909,0.4 -0.4,0.4 h -7.2 c -0.22091,0 -0.4,0.17909 -0.4,0.4 v 3.2 c 0,0.22091 0.17909,0.4 0.4,0.4 h 11.2 c 0.22091,0 0.4,0.17909 0.4,0.4 v 3.2 c 0,0.22091 -0.17909,0.4 -0.4,0.4 h -3.2 c -0.22091,0 -0.4,0.17909 -0.4,0.4 v 3.2 c 0,0.22091 -0.17909,0.4 -0.4,0.4 h -7.2 c -0.22091,0 -0.4,0.17909 -0.4,0.4 v 3.2 c 0,0.22091 0.17909,0.4 0.4,0.4 h 3.2 c 0.22091,0 0.4,0.17909 0.4,0.4 v 3.2 c 0,0.22091 -0.17909,0.4 -0.4,0.4 z m -52,0 h -7.2 c -0.220914,0 -0.4,-0.17909 -0.4,-0.4 v -7.2 c 0,-0.22091 -0.179086,-0.4 -0.4,-0.4 h -7.2 c -0.220914,0 -0.4,-0.17909 -0.4,-0.4 v -3.2 c 0,-0.22091 0.179086,-0.4 0.4,-0.4 h 3.2 c 0.220914,0 0.4,-0.17909 0.4,-0.4 v -3.2 c 0,-0.22091 0.179086,-0.4 0.4,-0.4 h 15.2 c 0.220914,0 0.4,0.17909 0.4,0.4 v 3.2 c 0,0.22091 0.179086,0.4 0.4,0.4 h 3.2 c 0.220914,0 0.4,0.17909 0.4,0.4 v 3.2 c 0,0.22091 -0.179086,0.4 -0.4,0.4 H 64.4 c -0.220914,0 -0.4,0.17909 -0.4,0.4 v 3.2 c 0,0.22091 0.179086,0.4 0.4,0.4 h 3.2 c 0.220914,0 0.4,0.17909 0.4,0.4 v 3.2 c 0,0.22091 -0.179086,0.4 -0.4,0.4 z m -16,0 h -3.2 c -0.220914,0 -0.4,-0.17909 -0.4,-0.4 v -3.2 c 0,-0.22091 0.179086,-0.4 0.4,-0.4 h 3.2 c 0.220914,0 0.4,0.17909 0.4,0.4 v 3.2 c 0,0.22091 -0.179086,0.4 -0.4,0.4 z m -8,0 H 16.4 c -0.220914,0 -0.4,-0.17909 -0.4,-0.4 v -27.2 c 0,-0.22091 0.179086,-0.4 0.4,-0.4 h 27.2 c 0.220914,0 0.4,0.17909 0.4,0.4 v 27.2 c 0,0.22091 -0.179086,0.4 -0.4,0.4 z m 68.4,-4.4 v -7.2 c 0,-0.22091 -0.17909,-0.4 -0.4,-0.4 h -7.2 c -0.22091,0 -0.4,-0.17909 -0.4,-0.4 v -3.2 c 0,-0.22091 -0.17909,-0.4 -0.4,-0.4 h -3.2 c -0.22091,0 -0.4,0.17909 -0.4,0.4 v 7.2 c 0,0.22091 0.17909,0.4 0.4,0.4 h 3.2 c 0.22091,0 0.4,0.17909 0.4,0.4 v 3.2 c 0,0.22091 0.17909,0.4 0.4,0.4 h 7.2 c 0.22091,0 0.4,-0.17909 0.4,-0.4 z m -72,0 V 108.4 C 40,108.17909 39.820914,108 39.6,108 H 20.4 c -0.220914,0 -0.4,0.17909 -0.4,0.4 v 19.2 c 0,0.22091 0.179086,0.4 0.4,0.4 h 19.2 c 0.220914,0 0.4,-0.17909 0.4,-0.4 z m 91.6,-3.6 h -3.2 c -0.22091,0 -0.4,-0.17909 -0.4,-0.4 v -3.2 c 0,-0.22091 0.17909,-0.4 0.4,-0.4 h 3.2 c 0.22091,0 0.4,0.17909 0.4,0.4 v 3.2 c 0,0.22091 -0.17909,0.4 -0.4,0.4 z m -96,0 H 24.4 c -0.220914,0 -0.4,-0.17909 -0.4,-0.4 v -11.2 c 0,-0.22091 0.179086,-0.4 0.4,-0.4 h 11.2 c 0.220914,0 0.4,0.17909 0.4,0.4 v 11.2 c 0,0.22091 -0.179086,0.4 -0.4,0.4 z m 16,-4 h -3.2 c -0.220914,0 -0.4,-0.17909 -0.4,-0.4 v -3.2 c 0,-0.22091 0.179086,-0.4 0.4,-0.4 h 3.2 c 0.220914,0 0.4,0.17909 0.4,0.4 v 3.2 c 0,0.22091 -0.179086,0.4 -0.4,0.4 z m 4,-4 h -3.2 c -0.220914,0 -0.4,-0.17909 -0.4,-0.4 v -3.2 c 0,-0.22091 -0.179086,-0.4 -0.4,-0.4 h -3.2 c -0.220914,0 -0.4,-0.17909 -0.4,-0.4 v -3.2 c 0,-0.22091 0.179086,-0.4 0.4,-0.4 h 3.2 c 0.220914,0 0.4,-0.17909 0.4,-0.4 v -3.2 c 0,-0.22091 -0.179086,-0.4 -0.4,-0.4 h -3.2 c -0.220914,0 -0.4,-0.17909 -0.4,-0.4 v -3.2 c 0,-0.22091 0.179086,-0.4 0.4,-0.4 h 7.2 c 0.220914,0 0.4,0.17909 0.4,0.4 v 3.2 c 0,0.22091 0.179086,0.4 0.4,0.4 h 3.2 c 0.220914,0 0.4,-0.17909 0.4,-0.4 v -3.2 C 60,100.17909 59.820914,100 59.6,100 H 56.4 C 56.179086,100 56,99.820914 56,99.6 V 96.4 C 56,96.179086 55.820914,96 55.6,96 H 48.4 C 48.179086,96 48,95.820914 48,95.6 V 92.4 C 48,92.179086 47.820914,92 47.6,92 H 40.4 C 40.179086,92 40,92.179086 40,92.4 v 3.2 c 0,0.220914 0.179086,0.4 0.4,0.4 h 3.2 c 0.220914,0 0.4,0.179086 0.4,0.4 v 3.2 c 0,0.220914 -0.179086,0.4 -0.4,0.4 H 36.4 C 36.179086,100 36,99.820914 36,99.6 V 88.4 C 36,88.179086 35.820914,88 35.6,88 H 28.4 C 28.179086,88 28,87.820914 28,87.6 V 72.4 C 28,72.179086 28.179086,72 28.4,72 h 3.2 C 31.820914,72 32,71.820914 32,71.6 V 68.4 C 32,68.179086 31.820914,68 31.6,68 H 28.4 C 28.179086,68 28,68.179086 28,68.4 v 3.2 C 28,71.820914 27.820914,72 27.6,72 H 20.4 C 20.179086,72 20,72.179086 20,72.4 v 3.2 C 20,75.820914 19.820914,76 19.6,76 H 16.4 C 16.179086,76 16,75.820914 16,75.6 V 64.4 C 16,64.179086 16.179086,64 16.4,64 h 3.2 c 0.220914,0 0.4,0.179086 0.4,0.4 v 3.2 c 0,0.220914 0.179086,0.4 0.4,0.4 h 3.2 C 23.820914,68 24,67.820914 24,67.6 V 64.4 C 24,64.179086 23.820914,64 23.6,64 H 20.4 C 20.179086,64 20,63.820914 20,63.6 V 56.4 C 20,56.179086 20.179086,56 20.4,56 h 3.2 c 0.220914,0 0.4,0.179086 0.4,0.4 v 3.2 c 0,0.220914 0.179086,0.4 0.4,0.4 h 3.2 c 0.220914,0 0.4,0.179086 0.4,0.4 v 3.2 c 0,0.220914 0.179086,0.4 0.4,0.4 h 3.2 C 31.820914,64 32,63.820914 32,63.6 V 60.4 C 32,60.179086 32.179086,60 32.4,60 h 3.2 c 0.220914,0 0.4,0.179086 0.4,0.4 V 75.6 C 36,75.820914 35.820914,76 35.6,76 H 32.4 C 32.179086,76 32,76.179086 32,76.4 v 3.2 c 0,0.220914 0.179086,0.4 0.4,0.4 h 3.2 c 0.220914,0 0.4,0.179086 0.4,0.4 v 3.2 c 0,0.220914 0.179086,0.4 0.4,0.4 h 3.2 c 0.220914,0 0.4,0.179086 0.4,0.4 v 3.2 c 0,0.220914 0.179086,0.4 0.4,0.4 h 3.2 C 43.820914,88 44,87.820914 44,87.6 V 84.4 C 44,84.179086 44.179086,84 44.4,84 h 3.2 c 0.220914,0 0.4,0.179086 0.4,0.4 v 3.2 c 0,0.220914 0.179086,0.4 0.4,0.4 h 3.2 c 0.220914,0 0.4,0.179086 0.4,0.4 v 3.2 c 0,0.220914 0.179086,0.4 0.4,0.4 h 15.2 c 0.220914,0 0.4,0.179086 0.4,0.4 v 15.2 c 0,0.22091 -0.179086,0.4 -0.4,0.4 h -3.2 c -0.220914,0 -0.4,0.17909 -0.4,0.4 v 3.2 c 0,0.22091 -0.179086,0.4 -0.4,0.4 h -3.2 c -0.220914,0 -0.4,-0.17909 -0.4,-0.4 v -3.2 c 0,-0.22091 -0.179086,-0.4 -0.4,-0.4 h -3.2 c -0.220914,0 -0.4,0.17909 -0.4,0.4 v 7.2 c 0,0.22091 -0.179086,0.4 -0.4,0.4 z m 56.4,-4.4 v -11.2 c 0,-0.22091 -0.17909,-0.4 -0.4,-0.4 h -11.2 c -0.22091,0 -0.4,0.17909 -0.4,0.4 v 11.2 c 0,0.22091 0.17909,0.4 0.4,0.4 h 11.2 c 0.22091,0 0.4,-0.17909 0.4,-0.4 z M 91.6,112 h -3.2 c -0.220914,0 -0.4,-0.17909 -0.4,-0.4 v -3.2 c 0,-0.22091 -0.179086,-0.4 -0.4,-0.4 h -7.2 c -0.220914,0 -0.4,-0.17909 -0.4,-0.4 v -3.2 c 0,-0.22091 0.179086,-0.4 0.4,-0.4 h 3.2 c 0.220914,0 0.4,-0.17909 0.4,-0.4 v -3.2 C 84,100.17909 83.820914,100 83.6,100 H 76.4 C 76.179086,100 76,99.820914 76,99.6 V 92.4 C 76,92.179086 76.179086,92 76.4,92 h 3.2 c 0.220914,0 0.4,0.179086 0.4,0.4 v 3.2 c 0,0.220914 0.179086,0.4 0.4,0.4 h 3.2 C 83.820914,96 84,95.820914 84,95.6 V 88.4 C 84,88.179086 83.820914,88 83.6,88 H 76.4 C 76.179086,88 76,88.179086 76,88.4 v 3.2 C 76,91.820914 75.820914,92 75.6,92 H 72.4 C 72.179086,92 72,91.820914 72,91.6 V 84.4 C 72,84.179086 72.179086,84 72.4,84 H 83.6 C 83.820914,84 84,83.820914 84,83.6 V 80.4 C 84,80.179086 83.820914,80 83.6,80 H 76.4 C 76.179086,80 76,79.820914 76,79.6 V 76.4 C 76,76.179086 76.179086,76 76.4,76 h 7.2 C 83.820914,76 84,75.820914 84,75.6 V 72.4 C 84,72.179086 84.179086,72 84.4,72 h 7.2 c 0.220914,0 0.4,0.179086 0.4,0.4 v 3.2 C 92,75.820914 91.820914,76 91.6,76 H 88.4 C 88.179086,76 88,76.179086 88,76.4 v 3.2 c 0,0.220914 0.179086,0.4 0.4,0.4 h 3.2 c 0.220914,0 0.4,0.179086 0.4,0.4 v 3.2 C 92,83.820914 91.820914,84 91.6,84 H 88.4 C 88.179086,84 88,84.179086 88,84.4 v 7.2 c 0,0.220914 0.179086,0.4 0.4,0.4 h 3.2 c 0.220914,0 0.4,0.179086 0.4,0.4 v 3.2 C 92,95.820914 91.820914,96 91.6,96 H 88.4 C 88.179086,96 88,96.179086 88,96.4 v 7.2 c 0,0.22091 0.179086,0.4 0.4,0.4 h 3.2 c 0.220914,0 0.4,0.17909 0.4,0.4 v 7.2 c 0,0.22091 -0.179086,0.4 -0.4,0.4 z m -16,0 h -3.2 c -0.220914,0 -0.4,-0.17909 -0.4,-0.4 v -3.2 c 0,-0.22091 0.179086,-0.4 0.4,-0.4 h 3.2 c 0.220914,0 0.4,0.17909 0.4,0.4 v 3.2 c 0,0.22091 -0.179086,0.4 -0.4,0.4 z m 52,-4 h -3.2 c -0.22091,0 -0.4,-0.17909 -0.4,-0.4 v -3.2 c 0,-0.22091 -0.17909,-0.4 -0.4,-0.4 h -3.2 c -0.22091,0 -0.4,-0.17909 -0.4,-0.4 v -7.2 c 0,-0.220914 0.17909,-0.4 0.4,-0.4 h 3.2 c 0.22091,0 0.4,0.179086 0.4,0.4 v 3.2 c 0,0.220914 0.17909,0.4 0.4,0.4 h 7.2 c 0.22091,0 0.4,0.17909 0.4,0.4 v 3.2 c 0,0.22091 -0.17909,0.4 -0.4,0.4 h -3.2 c -0.22091,0 -0.4,0.17909 -0.4,0.4 v 3.2 c 0,0.22091 -0.17909,0.4 -0.4,0.4 z m -20,0 h -3.2 c -0.22091,0 -0.4,-0.17909 -0.4,-0.4 v -3.2 c 0,-0.22091 0.17909,-0.4 0.4,-0.4 h 3.2 c 0.22091,0 0.4,0.17909 0.4,0.4 v 3.2 c 0,0.22091 -0.17909,0.4 -0.4,0.4 z m -76,-8 H 24.4 C 24.179086,100 24,99.820914 24,99.6 V 96.4 C 24,96.179086 24.179086,96 24.4,96 h 7.2 c 0.220914,0 0.4,0.179086 0.4,0.4 v 3.2 c 0,0.220914 -0.179086,0.4 -0.4,0.4 z m -12,0 H 16.4 C 16.179086,100 16,99.820914 16,99.6 V 96.4 C 16,96.179086 16.179086,96 16.4,96 h 3.2 c 0.220914,0 0.4,0.179086 0.4,0.4 v 3.2 c 0,0.220914 -0.179086,0.4 -0.4,0.4 z m 112,-4 h -7.2 c -0.22091,0 -0.4,-0.179086 -0.4,-0.4 v -7.2 c 0,-0.220914 0.17909,-0.4 0.4,-0.4 h 3.2 c 0.22091,0 0.4,-0.179086 0.4,-0.4 v -3.2 c 0,-0.220914 0.17909,-0.4 0.4,-0.4 h 3.2 c 0.22091,0 0.4,0.179086 0.4,0.4 v 11.2 c 0,0.220914 -0.17909,0.4 -0.4,0.4 z M 108,95.6 v -7.2 c 0,-0.220914 -0.17909,-0.4 -0.4,-0.4 h -3.2 c -0.22091,0 -0.4,0.179086 -0.4,0.4 v 7.2 c 0,0.220914 0.17909,0.4 0.4,0.4 h 3.2 c 0.22091,0 0.4,-0.179086 0.4,-0.4 z M 19.6,92 H 16.4 C 16.179086,92 16,91.820914 16,91.6 V 88.4 C 16,88.179086 16.179086,88 16.4,88 h 3.2 c 0.220914,0 0.4,0.179086 0.4,0.4 v 3.2 c 0,0.220914 -0.179086,0.4 -0.4,0.4 z m 100,-4 h -3.2 c -0.22091,0 -0.4,-0.179086 -0.4,-0.4 v -3.2 c 0,-0.220914 0.17909,-0.4 0.4,-0.4 h 3.2 c 0.22091,0 0.4,0.179086 0.4,0.4 v 3.2 c 0,0.220914 -0.17909,0.4 -0.4,0.4 z m -56,0 H 60.4 C 60.179086,88 60,87.820914 60,87.6 V 84.4 C 60,84.179086 60.179086,84 60.4,84 h 3.2 c 0.220914,0 0.4,0.179086 0.4,0.4 v 3.2 c 0,0.220914 -0.179086,0.4 -0.4,0.4 z m -8,0 H 52.4 C 52.179086,88 52,87.820914 52,87.6 V 84.4 C 52,84.179086 52.179086,84 52.4,84 h 3.2 c 0.220914,0 0.4,0.179086 0.4,0.4 v 3.2 c 0,0.220914 -0.179086,0.4 -0.4,0.4 z m -32,0 H 20.4 C 20.179086,88 20,87.820914 20,87.6 V 76.4 C 20,76.179086 20.179086,76 20.4,76 h 3.2 c 0.220914,0 0.4,0.179086 0.4,0.4 v 11.2 c 0,0.220914 -0.179086,0.4 -0.4,0.4 z m 36,-4 H 56.4 C 56.179086,84 56,83.820914 56,83.6 V 80.4 C 56,80.179086 55.820914,80 55.6,80 H 44.4 C 44.179086,80 44,79.820914 44,79.6 V 76.4 C 44,76.179086 44.179086,76 44.4,76 h 3.2 C 47.820914,76 48,75.820914 48,75.6 V 72.4 C 48,72.179086 48.179086,72 48.4,72 h 3.2 c 0.220914,0 0.4,0.179086 0.4,0.4 v 3.2 c 0,0.220914 0.179086,0.4 0.4,0.4 h 3.2 C 55.820914,76 56,75.820914 56,75.6 V 72.4 C 56,72.179086 56.179086,72 56.4,72 h 3.2 c 0.220914,0 0.4,0.179086 0.4,0.4 v 11.2 c 0,0.220914 -0.179086,0.4 -0.4,0.4 z m -16,0 H 40.4 C 40.179086,84 40,83.820914 40,83.6 V 80.4 C 40,80.179086 40.179086,80 40.4,80 h 3.2 c 0.220914,0 0.4,0.179086 0.4,0.4 v 3.2 c 0,0.220914 -0.179086,0.4 -0.4,0.4 z m 28,-4 H 68.4 C 68.179086,80 68,79.820914 68,79.6 V 76.4 C 68,76.179086 68.179086,76 68.4,76 h 3.2 c 0.220914,0 0.4,0.179086 0.4,0.4 v 3.2 c 0,0.220914 -0.179086,0.4 -0.4,0.4 z m 4,-4 H 72.4 C 72.179086,76 72,75.820914 72,75.6 V 68.4 C 72,68.179086 72.179086,68 72.4,68 h 3.2 c 0.220914,0 0.4,0.179086 0.4,0.4 v 7.2 c 0,0.220914 -0.179086,0.4 -0.4,0.4 z m -32,0 H 40.4 C 40.179086,76 40,75.820914 40,75.6 V 72.4 C 40,72.179086 40.179086,72 40.4,72 h 3.2 c 0.220914,0 0.4,0.179086 0.4,0.4 v 3.2 c 0,0.220914 -0.179086,0.4 -0.4,0.4 z m 4,-4 H 44.4 C 44.179086,72 44,71.820914 44,71.6 V 68.4 C 44,68.179086 44.179086,68 44.4,68 h 3.2 c 0.220914,0 0.4,0.179086 0.4,0.4 v 3.2 c 0,0.220914 -0.179086,0.4 -0.4,0.4 z m 84,-4 h -7.2 c -0.22091,0 -0.4,-0.179086 -0.4,-0.4 v -3.2 c 0,-0.220914 -0.17909,-0.4 -0.4,-0.4 h -3.2 c -0.22091,0 -0.4,-0.179086 -0.4,-0.4 v -3.2 c 0,-0.220914 -0.17909,-0.4 -0.4,-0.4 h -3.2 c -0.22091,0 -0.4,0.179086 -0.4,0.4 v 3.2 c 0,0.220914 -0.17909,0.4 -0.4,0.4 h -3.2 c -0.22091,0 -0.4,-0.179086 -0.4,-0.4 v -7.2 c 0,-0.220914 0.17909,-0.4 0.4,-0.4 h 3.2 c 0.22091,0 0.4,-0.179086 0.4,-0.4 v -3.2 c 0,-0.220914 0.17909,-0.4 0.4,-0.4 h 3.2 c 0.22091,0 0.4,0.179086 0.4,0.4 v 3.2 c 0,0.220914 0.17909,0.4 0.4,0.4 h 7.2 c 0.22091,0 0.4,0.179086 0.4,0.4 v 7.2 c 0,0.220914 0.17909,0.4 0.4,0.4 h 3.2 c 0.22091,0 0.4,0.179086 0.4,0.4 v 3.2 c 0,0.220914 -0.17909,0.4 -0.4,0.4 z m -12,0 h -3.2 c -0.22091,0 -0.4,-0.179086 -0.4,-0.4 v -3.2 c 0,-0.220914 0.17909,-0.4 0.4,-0.4 h 3.2 c 0.22091,0 0.4,0.179086 0.4,0.4 v 3.2 c 0,0.220914 -0.17909,0.4 -0.4,0.4 z m -32,0 H 84.4 C 84.179086,68 84,67.820914 84,67.6 V 64.4 C 84,64.179086 84.179086,64 84.4,64 h 3.2 c 0.220914,0 0.4,0.179086 0.4,0.4 v 3.2 c 0,0.220914 -0.179086,0.4 -0.4,0.4 z m -24,0 H 48.4 C 48.179086,68 48,67.820914 48,67.6 V 64.4 C 48,64.179086 48.179086,64 48.4,64 h 15.2 c 0.220914,0 0.4,0.179086 0.4,0.4 v 3.2 c 0,0.220914 -0.179086,0.4 -0.4,0.4 z m -20,0 H 40.4 C 40.179086,68 40,67.820914 40,67.6 V 64.4 C 40,64.179086 40.179086,64 40.4,64 h 3.2 c 0.220914,0 0.4,0.179086 0.4,0.4 v 3.2 c 0,0.220914 -0.179086,0.4 -0.4,0.4 z m 60,-8 h -3.2 c -0.22091,0 -0.4,-0.179086 -0.4,-0.4 v -3.2 c 0,-0.220914 0.17909,-0.4 0.4,-0.4 h 3.2 c 0.22091,0 0.4,0.179086 0.4,0.4 v 3.2 c 0,0.220914 -0.17909,0.4 -0.4,0.4 z m -36,0 H 52.4 C 52.179086,60 52,59.820914 52,59.6 V 56.4 C 52,56.179086 52.179086,56 52.4,56 H 63.6 C 63.820914,56 64,55.820914 64,55.6 V 48.4 C 64,48.179086 63.820914,48 63.6,48 H 60.4 C 60.179086,48 60,47.820914 60,47.6 V 44.4 C 60,44.179086 60.179086,44 60.4,44 h 3.2 C 63.820914,44 64,43.820914 64,43.6 V 40.4 C 64,40.179086 64.179086,40 64.4,40 h 3.2 c 0.220914,0 0.4,0.179086 0.4,0.4 v 7.2 c 0,0.220914 0.179086,0.4 0.4,0.4 h 3.2 C 71.820914,48 72,47.820914 72,47.6 V 40.4 C 72,40.179086 71.820914,40 71.6,40 H 68.4 C 68.179086,40 68,39.820914 68,39.6 V 36.4 C 68,36.179086 68.179086,36 68.4,36 h 7.2 C 75.820914,36 76,35.820914 76,35.6 V 32.4 C 76,32.179086 76.179086,32 76.4,32 H 87.6 C 87.820914,32 88,31.820914 88,31.6 V 28.4 C 88,28.179086 88.179086,28 88.4,28 h 7.2 C 95.820914,28 96,27.820914 96,27.6 V 20.4 C 96,20.179086 96.179086,20 96.4,20 h 3.2 c 0.220914,0 0.4,0.179086 0.4,0.4 v 11.2 c 0,0.220914 -0.179086,0.4 -0.4,0.4 H 92.4 C 92.179086,32 92,32.179086 92,32.4 v 3.2 c 0,0.220914 0.179086,0.4 0.4,0.4 h 7.2 c 0.220914,0 0.4,0.179086 0.4,0.4 v 7.2 c 0,0.220914 -0.179086,0.4 -0.4,0.4 H 96.4 C 96.179086,44 96,43.820914 96,43.6 V 40.4 C 96,40.179086 95.820914,40 95.6,40 H 92.4 C 92.179086,40 92,40.179086 92,40.4 v 3.2 C 92,43.820914 91.820914,44 91.6,44 H 88.4 C 88.179086,44 88,43.820914 88,43.6 V 36.4 C 88,36.179086 87.820914,36 87.6,36 H 80.4 C 80.179086,36 80,36.179086 80,36.4 v 3.2 C 80,39.820914 79.820914,40 79.6,40 H 76.4 C 76.179086,40 76,40.179086 76,40.4 V 51.6 C 76,51.820914 75.820914,52 75.6,52 H 68.4 C 68.179086,52 68,52.179086 68,52.4 v 7.2 c 0,0.220914 -0.179086,0.4 -0.4,0.4 z m -24,0 H 36.4 C 36.179086,60 36,59.820914 36,59.6 V 56.4 C 36,56.179086 35.820914,56 35.6,56 H 32.4 C 32.179086,56 32,55.820914 32,55.6 V 52.4 C 32,52.179086 32.179086,52 32.4,52 h 3.2 C 35.820914,52 36,51.820914 36,51.6 V 48.4 C 36,48.179086 36.179086,48 36.4,48 h 7.2 c 0.220914,0 0.4,0.179086 0.4,0.4 v 3.2 C 44,51.820914 43.820914,52 43.6,52 H 40.4 C 40.179086,52 40,52.179086 40,52.4 v 3.2 c 0,0.220914 0.179086,0.4 0.4,0.4 h 3.2 c 0.220914,0 0.4,0.179086 0.4,0.4 v 3.2 c 0,0.220914 -0.179086,0.4 -0.4,0.4 z m 88,-4 h -3.2 c -0.22091,0 -0.4,-0.179086 -0.4,-0.4 v -3.2 c 0,-0.220914 0.17909,-0.4 0.4,-0.4 h 3.2 c 0.22091,0 0.4,0.179086 0.4,0.4 v 3.2 c 0,0.220914 -0.17909,0.4 -0.4,0.4 z m -24,0 h -3.2 c -0.22091,0 -0.4,-0.179086 -0.4,-0.4 v -3.2 c 0,-0.220914 0.17909,-0.4 0.4,-0.4 h 3.2 c 0.22091,0 0.4,0.179086 0.4,0.4 v 3.2 c 0,0.220914 -0.17909,0.4 -0.4,0.4 z m -8,0 H 96.4 C 96.179086,56 96,55.820914 96,55.6 V 52.4 C 96,52.179086 95.820914,52 95.6,52 H 92.4 C 92.179086,52 92,51.820914 92,51.6 V 44.4 C 92,44.179086 92.179086,44 92.4,44 h 3.2 c 0.220914,0 0.4,0.179086 0.4,0.4 v 3.2 c 0,0.220914 0.179086,0.4 0.4,0.4 h 7.2 c 0.22091,0 0.4,0.179086 0.4,0.4 v 3.2 c 0,0.220914 -0.17909,0.4 -0.4,0.4 h -3.2 c -0.22091,0 -0.4,0.179086 -0.4,0.4 v 3.2 c 0,0.220914 -0.179086,0.4 -0.4,0.4 z m -48,0 H 48.4 C 48.179086,56 48,55.820914 48,55.6 V 48.4 C 48,48.179086 48.179086,48 48.4,48 h 3.2 c 0.220914,0 0.4,0.179086 0.4,0.4 v 7.2 c 0,0.220914 -0.179086,0.4 -0.4,0.4 z m -24,0 H 24.4 C 24.179086,56 24,55.820914 24,55.6 V 52.4 C 24,52.179086 24.179086,52 24.4,52 h 3.2 c 0.220914,0 0.4,0.179086 0.4,0.4 v 3.2 c 0,0.220914 -0.179086,0.4 -0.4,0.4 z m 84,-4 h -3.2 c -0.22091,0 -0.4,-0.179086 -0.4,-0.4 v -3.2 c 0,-0.220914 0.17909,-0.4 0.4,-0.4 h 3.2 c 0.22091,0 0.4,0.179086 0.4,0.4 v 3.2 c 0,0.220914 -0.17909,0.4 -0.4,0.4 z m -52,0 H 56.4 C 56.179086,52 56,51.820914 56,51.6 V 48.4 C 56,48.179086 56.179086,48 56.4,48 h 3.2 c 0.220914,0 0.4,0.179086 0.4,0.4 v 3.2 c 0,0.220914 -0.179086,0.4 -0.4,0.4 z m -28,0 H 28.4 C 28.179086,52 28,51.820914 28,51.6 V 48.4 C 28,48.179086 28.179086,48 28.4,48 h 3.2 c 0.220914,0 0.4,0.179086 0.4,0.4 v 3.2 c 0,0.220914 -0.179086,0.4 -0.4,0.4 z m -12,0 H 16.4 C 16.179086,52 16,51.820914 16,51.6 V 48.4 C 16,48.179086 16.179086,48 16.4,48 h 3.2 c 0.220914,0 0.4,0.179086 0.4,0.4 v 3.2 c 0,0.220914 -0.179086,0.4 -0.4,0.4 z m 68,-4 H 80.4 C 80.179086,48 80,47.820914 80,47.6 V 40.4 C 80,40.179086 80.179086,40 80.4,40 h 3.2 c 0.220914,0 0.4,0.179086 0.4,0.4 v 3.2 c 0,0.220914 0.179086,0.4 0.4,0.4 h 3.2 c 0.220914,0 0.4,0.179086 0.4,0.4 v 3.2 c 0,0.220914 -0.179086,0.4 -0.4,0.4 z m -32,0 H 52.4 C 52.179086,48 52,47.820914 52,47.6 V 44.4 C 52,44.179086 52.179086,44 52.4,44 h 3.2 c 0.220914,0 0.4,0.179086 0.4,0.4 v 3.2 c 0,0.220914 -0.179086,0.4 -0.4,0.4 z m 76,-4 H 104.4 C 104.17909,44 104,43.820914 104,43.6 V 16.4 c 0,-0.220914 0.17909,-0.4 0.4,-0.4 h 27.2 c 0.22091,0 0.4,0.179086 0.4,0.4 v 27.2 c 0,0.220914 -0.17909,0.4 -0.4,0.4 z m -72,0 H 56.4 C 56.179086,44 56,43.820914 56,43.6 V 40.4 C 56,40.179086 55.820914,40 55.6,40 H 52.4 C 52.179086,40 52,40.179086 52,40.4 v 3.2 C 52,43.820914 51.820914,44 51.6,44 H 48.4 C 48.179086,44 48,43.820914 48,43.6 V 36.4 C 48,36.179086 48.179086,36 48.4,36 h 3.2 C 51.820914,36 52,35.820914 52,35.6 V 32.4 C 52,32.179086 52.179086,32 52.4,32 h 15.2 c 0.220914,0 0.4,0.179086 0.4,0.4 v 3.2 C 68,35.820914 67.820914,36 67.6,36 H 60.4 C 60.179086,36 60,36.179086 60,36.4 v 7.2 c 0,0.220914 -0.179086,0.4 -0.4,0.4 z m -16,0 H 16.4 C 16.179086,44 16,43.820914 16,43.6 V 16.4 C 16,16.179086 16.179086,16 16.4,16 h 27.2 c 0.220914,0 0.4,0.179086 0.4,0.4 V 43.6 C 44,43.820914 43.820914,44 43.6,44 Z M 128,39.6 V 20.4 c 0,-0.220914 -0.17909,-0.4 -0.4,-0.4 h -19.2 c -0.22091,0 -0.4,0.179086 -0.4,0.4 v 19.2 c 0,0.220914 0.17909,0.4 0.4,0.4 h 19.2 c 0.22091,0 0.4,-0.179086 0.4,-0.4 z m -88,0 V 20.4 C 40,20.179086 39.820914,20 39.6,20 H 20.4 C 20.179086,20 20,20.179086 20,20.4 v 19.2 c 0,0.220914 0.179086,0.4 0.4,0.4 H 39.6 C 39.820914,40 40,39.820914 40,39.6 Z M 123.6,36 H 112.4 C 112.17909,36 112,35.820914 112,35.6 V 24.4 c 0,-0.220914 0.17909,-0.4 0.4,-0.4 h 11.2 c 0.22091,0 0.4,0.179086 0.4,0.4 v 11.2 c 0,0.220914 -0.17909,0.4 -0.4,0.4 z m -88,0 H 24.4 C 24.179086,36 24,35.820914 24,35.6 V 24.4 C 24,24.179086 24.179086,24 24.4,24 h 11.2 c 0.220914,0 0.4,0.179086 0.4,0.4 v 11.2 c 0,0.220914 -0.179086,0.4 -0.4,0.4 z m 40,-4 H 72.4 C 72.179086,32 72,31.820914 72,31.6 V 24.4 C 72,24.179086 72.179086,24 72.4,24 h 3.2 C 75.820914,24 76,23.820914 76,23.6 V 16.4 C 76,16.179086 76.179086,16 76.4,16 h 3.2 c 0.220914,0 0.4,0.179086 0.4,0.4 V 27.6 C 80,27.820914 79.820914,28 79.6,28 H 76.4 C 76.179086,28 76,28.179086 76,28.4 v 3.2 c 0,0.220914 -0.179086,0.4 -0.4,0.4 z m 12,-4 H 84.4 C 84.179086,28 84,27.820914 84,27.6 V 20.4 C 84,20.179086 84.179086,20 84.4,20 h 3.2 C 87.820914,20 88,19.820914 88,19.6 V 16.4 C 88,16.179086 88.179086,16 88.4,16 h 7.2 c 0.220914,0 0.4,0.179086 0.4,0.4 v 3.2 C 96,19.820914 95.820914,20 95.6,20 H 92.4 C 92.179086,20 92,20.179086 92,20.4 v 3.2 C 92,23.820914 91.820914,24 91.6,24 H 88.4 C 88.179086,24 88,24.179086 88,24.4 v 3.2 c 0,0.220914 -0.179086,0.4 -0.4,0.4 z m -20,0 H 60.4 C 60.179086,28 60,27.820914 60,27.6 V 24.4 C 60,24.179086 60.179086,24 60.4,24 h 7.2 c 0.220914,0 0.4,0.179086 0.4,0.4 v 3.2 c 0,0.220914 -0.179086,0.4 -0.4,0.4 z m 4,-4 H 68.4 C 68.179086,24 68,23.820914 68,23.6 V 20.4 C 68,20.179086 68.179086,20 68.4,20 h 3.2 c 0.220914,0 0.4,0.179086 0.4,0.4 v 3.2 c 0,0.220914 -0.179086,0.4 -0.4,0.4 z m -12,0 H 56.4 C 56.179086,24 56,23.820914 56,23.6 V 20.4 C 56,20.179086 56.179086,20 56.4,20 h 3.2 c 0.220914,0 0.4,0.179086 0.4,0.4 v 3.2 c 0,0.220914 -0.179086,0.4 -0.4,0.4 z m -4,-4 H 52.4 C 52.179086,20 52,19.820914 52,19.6 V 16.4 C 52,16.179086 52.179086,16 52.4,16 h 3.2 c 0.220914,0 0.4,0.179086 0.4,0.4 v 3.2 c 0,0.220914 -0.179086,0.4 -0.4,0.4 z"
           id="path127365" />
      </g>
    </g>
  </g>
</svg>
