999
"DXF R12 Output" (www.mydxf.blogspot.com)
 0 
SECTION
 2 
HEADER
 9 
$ACADVER
 1 
AC1009
 9 
$EXTMIN
 10 
 0 
 20 
 0 
 9 
$EXTMAX
 10 
 8.5 
 20 
 11 
 0 
ENDSEC
 0 
SECTION
 2 
ENTITIES
0
LINE
8
Layer 1
10
0.846666
20
137.914000
11
-0.846666
21
136.220000
0
LINE
8
Layer 1
10
0.000000
20
138.478000
11
0.000000
21
135.656000
0
LINE
8
Layer 1
10
2.257780
20
135.938000
11
1.128890
21
134.809110
0
LINE
8
Layer 1
10
1.693330
20
136.503000
11
0.564440
21
135.374110
0
LINE
8
Layer 1
10
1.128890
20
137.067000
11
0.000000
21
135.938110
0
LINE
8
0
10
571.485000
20
365.340000
11
571.453363
21
365.435464
0
LINE
8
0
10
571.453363
20
365.435464
11
571.424887
21
365.520907
0
LINE
8
0
10
571.424887
20
365.520907
11
571.399487
21
365.596856
0
LINE
8
0
10
571.399487
20
365.596856
11
571.377191
21
365.662786
0
LINE
8
0
10
571.377191
20
365.662786
11
571.357718
21
365.718691
0
LINE
8
0
10
571.357718
20
365.718691
11
571.340785
21
365.765105
0
LINE
8
0
10
571.340785
20
365.765105
11
571.327520
21
365.801498
0
LINE
8
0
10
571.327520
20
365.801498
11
571.317078
21
365.827857
0
LINE
8
0
10
571.317000
20
365.827000
11
571.290753
21
365.773203
0
LINE
8
0
10
571.290753
20
365.773203
11
571.261205
21
365.713603
0
LINE
8
0
10
571.261205
20
365.713603
11
571.228523
21
365.648732
0
LINE
8
0
10
571.228523
20
365.648732
11
571.192653
21
365.579110
0
LINE
8
0
10
571.192653
20
365.579110
11
571.153086
21
365.503162
0
LINE
8
0
10
571.153086
20
365.503162
11
571.109849
21
365.422466
0
LINE
8
0
10
571.109849
20
365.422466
11
571.063960
21
365.336495
0
LINE
8
0
10
571.063960
20
365.336495
11
571.014374
21
365.244723
0
LINE
8
0
10
571.014000
20
365.245000
11
570.692267
21
364.638505
0
LINE
8
0
10
570.691000
20
364.639000
11
570.717247
21
364.652716
0
LINE
8
0
10
570.717247
20
364.652716
11
570.758931
21
364.664851
0
LINE
8
0
10
570.758931
20
364.664851
11
570.816419
21
364.675943
0
LINE
8
0
10
570.816419
20
364.675943
11
570.888668
21
364.685425
0
LINE
8
0
10
570.889000
20
364.685000
11
570.948605
21
364.691322
0
LINE
8
0
10
570.948605
20
364.691322
11
571.003977
21
364.699224
0
LINE
8
0
10
571.003977
20
364.699224
11
571.055680
21
364.707126
0
LINE
8
0
10
571.055680
20
364.707126
11
571.103150
21
364.716609
0
LINE
8
0
10
571.103000
20
364.717000
11
571.217977
21
364.740199
0
LINE
8
0
10
571.217977
20
364.740199
11
571.320819
21
364.760236
0
LINE
8
0
10
571.320819
20
364.760236
11
571.410481
21
364.777649
0
LINE
8
0
10
571.410481
20
364.777649
11
571.487471
21
364.791874
0
LINE
8
0
10
571.487471
20
364.791874
11
571.551818
21
364.803473
0
LINE
8
0
10
571.551818
20
364.803473
11
571.602984
21
364.812447
0
LINE
8
0
10
571.602984
20
364.812447
11
571.642016
21
364.818261
0
LINE
8
0
10
571.642016
20
364.818261
11
571.667980
21
364.821422
0
LINE
8
0
10
571.668000
20
364.821000
11
571.651631
21
364.860028
0
LINE
8
0
10
571.651631
20
364.860028
11
571.633287
21
364.906443
0
LINE
8
0
10
571.633287
20
364.906443
11
571.613249
21
364.960240
0
LINE
8
0
10
571.613249
20
364.960240
11
571.591236
21
365.021423
0
LINE
8
0
10
571.591236
20
365.021423
11
571.567529
21
365.089986
0
LINE
8
0
10
571.567529
20
365.089986
11
571.541847
21
365.165410
0
LINE
8
0
10
571.541847
20
365.165410
11
571.514471
21
365.248741
0
LINE
8
0
10
571.514471
20
365.248741
11
571.484923
21
365.339459
0
LINE
8
0
10
571.559000
20
366.229000
11
571.565773
21
366.218981
0
LINE
8
0
10
571.565773
20
366.218981
11
571.571136
21
366.201032
0
LINE
8
0
10
571.571136
20
366.201032
11
571.573958
21
366.175717
0
LINE
8
0
10
571.573958
20
366.175717
11
571.573958
21
366.141963
0
LINE
8
0
10
571.575000
20
366.142000
11
571.575000
21
366.106135
0
LINE
8
0
10
571.575000
20
366.106135
11
571.572178
21
366.075542
0
LINE
8
0
10
571.572178
20
366.075542
11
571.566816
21
366.048647
0
LINE
8
0
10
571.566816
20
366.048647
11
571.560042
21
366.027028
0
LINE
8
0
10
571.559000
20
366.027000
11
571.581578
21
365.953058
0
LINE
8
0
10
571.582000
20
365.953000
11
571.611520
21
365.853844
0
LINE
8
0
10
571.611520
20
365.853844
11
571.640533
21
365.764182
0
LINE
8
0
10
571.640533
20
365.764182
11
571.669545
21
365.683486
0
LINE
8
0
10
571.669545
20
365.683486
11
571.698021
21
365.611757
0
LINE
8
0
10
571.698000
20
365.612000
11
571.768668
21
365.426346
0
LINE
8
0
10
571.768668
20
365.426346
11
571.838829
21
365.226979
0
LINE
8
0
10
571.839000
20
365.227000
11
571.879075
21
365.110967
0
LINE
8
0
10
571.879075
20
365.110967
11
571.919151
21
364.999153
0
LINE
8
0
10
571.919151
20
364.999153
11
571.959763
21
364.891556
0
LINE
8
0
10
571.959763
20
364.891556
11
572.000911
21
364.788181
0
LINE
8
0
10
572.000911
20
364.788181
11
572.042567
21
364.689025
0
LINE
8
0
10
572.042567
20
364.689025
11
572.084787
21
364.594088
0
LINE
8
0
10
572.084787
20
364.594088
11
572.126979
21
364.503371
0
LINE
8
0
10
572.126979
20
364.503371
11
572.169680
21
364.416873
0
LINE
8
0
10
572.169680
20
364.416873
11
572.212408
21
364.335649
0
LINE
8
0
10
572.212408
20
364.335649
11
572.254064
21
364.261284
0
LINE
8
0
10
572.254064
20
364.261284
11
572.294676
21
364.192718
0
LINE
8
0
10
572.294676
20
364.192718
11
572.334243
21
364.130482
0
LINE
8
0
10
572.334243
20
364.130482
11
572.373274
21
364.074046
0
LINE
8
0
10
572.373274
20
364.074046
11
572.411262
21
364.024469
0
LINE
8
0
10
572.411262
20
364.024469
11
572.448176
21
363.980693
0
LINE
8
0
10
572.448176
20
363.980693
11
572.484555
21
363.943245
0
LINE
8
0
10
572.485000
20
363.943000
11
572.525612
21
363.902916
0
LINE
8
0
10
572.525612
20
363.902916
11
572.557277
21
363.869687
0
LINE
8
0
10
572.557277
20
363.869687
11
572.580984
21
363.842791
0
LINE
8
0
10
572.580984
20
363.842791
11
572.596224
21
363.822754
0
LINE
8
0
10
572.596224
20
363.822754
11
572.613157
21
363.786889
0
LINE
8
0
10
572.613157
20
363.786889
11
572.618519
21
363.745222
0
LINE
8
0
10
572.618000
20
363.745000
11
572.614896
21
363.707552
0
LINE
8
0
10
572.614896
20
363.707552
11
572.605018
21
363.672743
0
LINE
8
0
10
572.605018
20
363.672743
11
572.588649
21
363.641097
0
LINE
8
0
10
572.588649
20
363.641097
11
572.565507
21
363.612615
0
LINE
8
0
10
572.565507
20
363.612615
11
572.538131
21
363.588880
0
LINE
8
0
10
572.538131
20
363.588880
11
572.508075
21
363.572003
0
LINE
8
0
10
572.508075
20
363.572003
11
572.475365
21
363.561448
0
LINE
8
0
10
572.475365
20
363.561448
11
572.440031
21
363.558288
0
LINE
8
0
10
571.888000
20
364.260000
11
571.856871
21
364.324874
0
LINE
8
0
10
571.856871
20
364.324874
11
571.829495
21
364.381307
0
LINE
8
0
10
571.829495
20
364.381307
11
571.804660
21
364.428777
0
LINE
8
0
10
571.804660
20
364.428777
11
571.783493
21
364.467806
0
LINE
8
0
10
571.783493
20
364.467806
11
571.765431
21
364.497868
0
LINE
8
0
10
571.765431
20
364.497868
11
571.750756
21
364.519486
0
LINE
8
0
10
571.750756
20
364.519486
11
571.739184
21
364.532666
0
LINE
8
0
10
571.739184
20
364.532666
11
571.730718
21
364.536871
0
LINE
8
0
10
571.730000
20
364.537000
11
571.705729
21
364.535871
0
LINE
8
0
10
571.705729
20
364.535871
11
571.675136
21
364.533896
0
LINE
8
0
10
571.675136
20
364.533896
11
571.638221
21
364.529690
0
LINE
8
0
10
571.638221
20
364.529690
11
571.595493
21
364.524413
0
LINE
8
0
10
571.595493
20
364.524413
11
571.545935
21
364.517019
0
LINE
8
0
10
571.545935
20
364.517019
11
571.491071
21
364.508044
0
LINE
8
0
10
571.491071
20
364.508044
11
571.429377
21
364.497489
0
LINE
8
0
10
571.429377
20
364.497489
11
571.361841
21
364.485353
0
LINE
8
0
10
571.361841
20
364.485353
11
571.223665
21
364.458458
0
LINE
8
0
10
571.223665
20
364.458458
11
571.091811
21
364.429448
0
LINE
8
0
10
571.091811
20
364.429448
11
570.966279
21
364.397802
0
LINE
8
0
10
570.966279
20
364.397802
11
570.846560
21
364.364576
0
LINE
8
0
10
570.847000
20
364.365000
11
570.786351
21
364.347079
0
LINE
8
0
10
570.786351
20
364.347079
11
570.737837
21
364.334435
0
LINE
8
0
10
570.737837
20
364.334435
11
570.701430
21
364.326533
0
LINE
8
0
10
570.701430
20
364.326533
11
570.677723
21
364.323993
0
LINE
8
0
10
570.678000
20
364.324000
11
570.655422
21
364.326540
0
LINE
8
0
10
570.655422
20
364.326540
11
570.632844
21
364.334978
0
LINE
8
0
10
570.632844
20
364.334978
11
570.609138
21
364.349202
0
LINE
8
0
10
570.609138
20
364.349202
11
570.585431
21
364.368732
0
LINE
8
0
10
570.585000
20
364.369000
11
570.575122
21
364.374278
0
LINE
8
0
10
570.575122
20
364.374278
11
570.563551
21
364.375971
0
LINE
8
0
10
570.563000
20
364.375000
11
570.551993
21
364.371303
0
LINE
8
0
10
570.551993
20
364.371303
11
570.537882
21
364.360748
0
LINE
8
0
10
570.537882
20
364.360748
11
570.520949
21
364.342827
0
LINE
8
0
10
570.520949
20
364.342827
11
570.501476
21
364.318048
0
LINE
8
0
10
570.501476
20
364.318048
11
570.478898
21
364.285874
0
LINE
8
0
10
570.478898
20
364.285874
11
570.453498
21
364.246846
0
LINE
8
0
10
570.453498
20
364.246846
11
570.424993
21
364.200432
0
LINE
8
0
10
570.424993
20
364.200432
11
570.393892
21
364.147162
0
LINE
8
0
10
570.394000
20
364.148000
11
570.342833
21
364.058866
0
LINE
8
0
10
570.342833
20
364.058866
11
570.296944
21
363.978695
0
LINE
8
0
10
570.296944
20
363.978695
11
570.255796
21
363.908549
0
LINE
8
0
10
570.255796
20
363.908549
11
570.219417
21
363.847894
0
LINE
8
0
10
570.219417
20
363.847894
11
570.188288
21
363.796207
0
LINE
8
0
10
570.188288
20
363.796207
11
570.162042
21
363.754540
0
LINE
8
0
10
570.162042
20
363.754540
11
570.140311
21
363.721839
0
LINE
8
0
10
570.140311
20
363.721839
11
570.123942
21
363.699148
0
LINE
8
0
10
570.123942
20
363.699148
11
570.095466
21
363.667503
0
LINE
8
0
10
570.095466
20
363.667503
11
570.064873
21
363.644812
0
LINE
8
0
10
570.064873
20
363.644812
11
570.033236
21
363.631096
0
LINE
8
0
10
570.033236
20
363.631096
11
570.000018
21
363.626355
0
LINE
8
0
10
570.000000
20
363.626000
11
569.974600
21
363.629697
0
LINE
8
0
10
569.974600
20
363.629697
11
569.947225
21
363.639716
0
LINE
8
0
10
569.947225
20
363.639716
11
569.916632
21
363.657129
0
LINE
8
0
10
569.916632
20
363.657129
11
569.883922
21
363.681400
0
LINE
8
0
10
569.883922
20
363.681400
11
569.854402
21
363.709368
0
LINE
8
0
10
569.854402
20
363.709368
11
569.833235
21
363.737850
0
LINE
8
0
10
569.833235
20
363.737850
11
569.820535
21
363.766857
0
LINE
8
0
10
569.820535
20
363.766857
11
569.816302
21
363.795867
0
LINE
8
0
10
569.816000
20
363.796000
11
569.820233
21
363.826590
0
LINE
8
0
10
569.820233
20
363.826590
11
569.831804
21
363.862455
0
LINE
8
0
10
569.831804
20
363.862455
11
569.851842
21
363.903067
0
LINE
8
0
10
569.851842
20
363.903067
11
569.879782
21
363.948953
0
LINE
8
0
10
569.879782
20
363.948953
11
569.897844
21
363.976385
0
LINE
8
0
10
569.897844
20
363.976385
11
569.920422
21
364.009611
0
LINE
8
0
10
569.920422
20
364.009611
11
569.946669
21
364.048642
0
LINE
8
0
10
569.946669
20
364.048642
11
569.977262
21
364.094529
0
LINE
8
0
10
569.977262
20
364.094529
11
570.012060
21
364.145687
0
LINE
8
0
10
570.012060
20
364.145687
11
570.051091
21
364.203704
0
LINE
8
0
10
570.051091
20
364.203704
11
570.094327
21
364.267522
0
LINE
8
0
10
570.094327
20
364.267522
11
570.141797
21
364.337144
0
LINE
8
0
10
570.142000
20
364.337000
11
570.228501
21
364.465690
0
LINE
8
0
10
570.228501
20
364.465690
11
570.311305
21
364.592272
0
LINE
8
0
10
570.311305
20
364.592272
11
570.390948
21
364.716746
0
LINE
8
0
10
570.390948
20
364.716746
11
570.467430
21
364.839109
0
LINE
8
0
10
570.467430
20
364.839109
11
570.539679
21
364.959889
0
LINE
8
0
10
570.539679
20
364.959889
11
570.608795
21
365.078561
0
LINE
8
0
10
570.608795
20
365.078561
11
570.674722
21
365.195122
0
LINE
8
0
10
570.674722
20
365.195122
11
570.736952
21
365.309574
0
LINE
8
0
10
570.737000
20
365.310000
11
570.783933
21
365.398079
0
LINE
8
0
10
570.783933
20
365.398079
11
570.828242
21
365.481413
0
LINE
8
0
10
570.828242
20
365.481413
11
570.870971
21
365.560526
0
LINE
8
0
10
570.870971
20
365.560526
11
570.911046
21
365.634366
0
LINE
8
0
10
570.911046
20
365.634366
11
570.949033
21
365.703988
0
LINE
8
0
10
570.949033
20
365.703988
11
570.984876
21
365.768859
0
LINE
8
0
10
570.984876
20
365.768859
11
571.018629
21
365.828986
0
LINE
8
0
10
571.018629
20
365.828986
11
571.050295
21
365.884895
0
LINE
8
0
10
571.050295
20
365.884895
11
571.079815
21
365.935525
0
LINE
8
0
10
571.079815
20
365.935525
11
571.106626
21
365.981939
0
LINE
8
0
10
571.106626
20
365.981939
11
571.131462
21
366.023607
0
LINE
8
0
10
571.131462
20
366.023607
11
571.154040
21
366.061055
0
LINE
8
0
10
571.154040
20
366.061055
11
571.174642
21
366.093225
0
LINE
8
0
10
571.174642
20
366.093225
11
571.192986
21
366.121193
0
LINE
8
0
10
571.192986
20
366.121193
11
571.209355
21
366.144392
0
LINE
8
0
10
571.209355
20
366.144392
11
571.223184
21
366.162849
0
LINE
8
0
10
571.223184
20
366.162849
11
571.248584
21
366.193439
0
LINE
8
0
10
571.248584
20
366.193439
11
571.271726
21
366.219799
0
LINE
8
0
10
571.271726
20
366.219799
11
571.293739
21
366.242489
0
LINE
8
0
10
571.293739
20
366.242489
11
571.314342
21
366.260439
0
LINE
8
0
10
571.314342
20
366.260439
11
571.333251
21
366.274663
0
LINE
8
0
10
571.333251
20
366.274663
11
571.351313
21
366.285218
0
LINE
8
0
10
571.351313
20
366.285218
11
571.367117
21
366.291032
0
LINE
8
0
10
571.367117
20
366.291032
11
571.381793
21
366.293007
0
LINE
8
0
10
571.382000
20
366.293000
11
571.437372
21
366.288795
0
LINE
8
0
10
571.437372
20
366.288795
11
571.484842
21
366.277196
0
LINE
8
0
10
571.484842
20
366.277196
11
571.525453
21
366.257158
0
LINE
8
0
10
571.525453
20
366.257158
11
571.558671
21
366.229190
0
LINE
8
0
10
572.440000
20
363.558000
11
572.410988
21
363.560540
0
LINE
8
0
10
572.410988
20
363.560540
11
572.381439
21
363.568978
0
LINE
8
0
10
572.381439
20
363.568978
11
572.351382
21
363.582694
0
LINE
8
0
10
572.351382
20
363.582694
11
572.320282
21
363.601688
0
LINE
8
0
10
572.320282
20
363.601688
11
572.288108
21
363.626467
0
LINE
8
0
10
572.288108
20
363.626467
11
572.255399
21
363.656529
0
LINE
8
0
10
572.255399
20
363.656529
11
572.222153
21
363.692394
0
LINE
8
0
10
572.222153
20
363.692394
11
572.187891
21
363.733534
0
LINE
8
0
10
572.187891
20
363.733534
11
572.153065
21
363.779948
0
LINE
8
0
10
572.153065
20
363.779948
11
572.117731
21
363.832165
0
LINE
8
0
10
572.117731
20
363.832165
11
572.081352
21
363.889653
0
LINE
8
0
10
572.081352
20
363.889653
11
572.043901
21
363.952944
0
LINE
8
0
10
572.043901
20
363.952944
11
572.005914
21
364.021510
0
LINE
8
0
10
572.005914
20
364.021510
11
571.967419
21
364.095348
0
LINE
8
0
10
571.967419
20
364.095348
11
571.927852
21
364.174991
0
LINE
8
0
10
571.927852
20
364.174991
11
571.887776
21
364.259906
0
LINE
8
0
10
571.393000
20
309.397000
11
571.484242
21
309.394460
0
LINE
8
0
10
571.484242
20
309.394460
11
571.570207
21
309.386022
0
LINE
8
0
10
571.570207
20
309.386022
11
571.651967
21
309.372306
0
LINE
8
0
10
571.651967
20
309.372306
11
571.728985
21
309.352804
0
LINE
8
0
10
571.728985
20
309.352804
11
571.801234
21
309.328025
0
LINE
8
0
10
571.801234
20
309.328025
11
571.868742
21
309.297435
0
LINE
8
0
10
571.868742
20
309.297435
11
571.931508
21
309.261570
0
LINE
8
0
10
571.931508
20
309.261570
11
571.989533
21
309.219903
0
LINE
8
0
10
571.989533
20
309.219903
11
572.041744
21
309.174019
0
LINE
8
0
10
572.041744
20
309.174019
11
572.087097
21
309.125494
0
LINE
8
0
10
572.087097
20
309.125494
11
572.125592
21
309.074335
0
LINE
8
0
10
572.125592
20
309.074335
11
572.156721
21
309.020011
0
LINE
8
0
10
572.156721
20
309.020011
11
572.181557
21
308.963047
0
LINE
8
0
10
572.181557
20
308.963047
11
572.199054
21
308.903447
0
LINE
8
0
10
572.199054
20
308.903447
11
572.208932
21
308.840684
0
LINE
8
0
10
572.208932
20
308.840684
11
572.212601
21
308.775285
0
LINE
8
0
10
572.213000
20
308.775000
11
572.209331
21
308.708545
0
LINE
8
0
10
572.209331
20
308.708545
11
572.198324
21
308.643143
0
LINE
8
0
10
572.198324
20
308.643143
11
572.179980
21
308.578269
0
LINE
8
0
10
572.179980
20
308.578269
11
572.154298
21
308.514978
0
LINE
8
0
10
572.154298
20
308.514978
11
572.120544
21
308.452214
0
LINE
8
0
10
572.120544
20
308.452214
11
572.079932
21
308.390506
0
LINE
8
0
10
572.079932
20
308.390506
11
572.031390
21
308.329851
0
LINE
8
0
10
572.031390
20
308.329851
11
571.976018
21
308.270254
0
LINE
8
0
10
571.976018
20
308.270254
11
571.914832
21
308.212763
0
LINE
8
0
10
571.914832
20
308.212763
11
571.849978
21
308.158438
0
LINE
8
0
10
571.849978
20
308.158438
11
571.781398
21
308.107280
0
LINE
8
0
10
571.781398
20
308.107280
11
571.708613
21
308.059282
0
LINE
8
0
10
571.708613
20
308.059282
11
571.632131
21
308.014451
0
LINE
8
0
10
571.632131
20
308.014451
11
571.551980
21
307.973312
0
LINE
8
0
10
571.551980
20
307.973312
11
571.468103
21
307.934811
0
LINE
8
0
10
571.468103
20
307.934811
11
571.380022
21
307.899474
0
LINE
8
0
10
571.380000
20
307.899000
11
571.360527
21
307.889517
0
LINE
8
0
10
571.360527
20
307.889517
11
571.346698
21
307.880035
0
LINE
8
0
10
571.346698
20
307.880035
11
571.338231
21
307.870016
0
LINE
8
0
10
571.338231
20
307.870016
11
571.335409
21
307.859997
0
LINE
8
0
10
571.335000
20
307.860000
11
571.340927
21
307.847865
0
LINE
8
0
10
571.340927
20
307.847865
11
571.357860
21
307.827827
0
LINE
8
0
10
571.357860
20
307.827827
11
571.386336
21
307.799348
0
LINE
8
0
10
571.386336
20
307.799348
11
571.425904
21
307.762955
0
LINE
8
0
10
571.425904
20
307.762955
11
571.476534
21
307.717597
0
LINE
8
0
10
571.476534
20
307.717597
11
571.538764
21
307.664324
0
LINE
8
0
10
571.538764
20
307.664324
11
571.612594
21
307.602617
0
LINE
8
0
10
571.612594
20
307.602617
11
571.697514
21
307.532998
0
LINE
8
0
10
571.697514
20
307.532998
11
571.875257
21
307.391647
0
LINE
8
0
10
571.875257
20
307.391647
11
572.045098
21
307.261901
0
LINE
8
0
10
572.045098
20
307.261901
11
572.208081
21
307.144813
0
LINE
8
0
10
572.208081
20
307.144813
11
572.363134
21
307.039327
0
LINE
8
0
10
572.363000
20
307.040000
11
572.400451
21
307.010990
0
LINE
8
0
10
572.400451
20
307.010990
11
572.427262
21
306.978289
0
LINE
8
0
10
572.427262
20
306.978289
11
572.443631
21
306.940844
0
LINE
8
0
10
572.443631
20
306.940844
11
572.448993
21
306.899177
0
LINE
8
0
10
572.449000
20
306.899000
11
572.445331
21
306.871032
0
LINE
8
0
10
572.445331
20
306.871032
11
572.434889
21
306.842553
0
LINE
8
0
10
572.434889
20
306.842553
11
572.416545
21
306.814585
0
LINE
8
0
10
572.416545
20
306.814585
11
572.391145
21
306.786103
0
LINE
8
0
10
572.391145
20
306.786103
11
572.362668
21
306.761832
0
LINE
8
0
10
572.362668
20
306.761832
11
572.335293
21
306.744419
0
LINE
8
0
10
572.335293
20
306.744419
11
572.308482
21
306.733864
0
LINE
8
0
10
572.308482
20
306.733864
11
572.283082
21
306.730166
0
LINE
8
0
10
572.283000
20
306.730000
11
572.255625
21
306.732540
0
LINE
8
0
10
572.255625
20
306.732540
11
572.224495
21
306.740978
0
LINE
8
0
10
572.224495
20
306.740978
11
572.189161
21
306.755231
0
LINE
8
0
10
572.189161
20
306.755231
11
572.150130
21
306.774732
0
LINE
8
0
10
572.150130
20
306.774732
11
572.107402
21
306.800047
0
LINE
8
0
10
572.107402
20
306.800047
11
572.061004
21
306.831165
0
LINE
8
0
10
572.061004
20
306.831165
11
572.010345
21
306.867558
0
LINE
8
0
10
572.010345
20
306.867558
11
571.956046
21
306.909750
0
LINE
8
0
10
571.956046
20
306.909750
11
571.843157
21
307.002051
0
LINE
8
0
10
571.843157
20
307.002051
11
571.727672
21
307.099623
0
LINE
8
0
10
571.727672
20
307.099623
11
571.610578
21
307.200890
0
LINE
8
0
10
571.610578
20
307.200890
11
571.490831
21
307.307429
0
LINE
8
0
10
571.491000
20
307.308000
11
571.427726
21
307.364436
0
LINE
8
0
10
571.427726
20
307.364436
11
571.367584
21
307.417177
0
LINE
8
0
10
571.367584
20
307.417177
11
571.311676
21
307.466228
0
LINE
8
0
10
571.311676
20
307.466228
11
571.258957
21
307.511589
0
LINE
8
0
10
571.258957
20
307.511589
11
571.209907
21
307.553781
0
LINE
8
0
10
571.209907
20
307.553781
11
571.164525
21
307.591757
0
LINE
8
0
10
571.164525
20
307.591757
11
571.122869
21
307.626567
0
LINE
8
0
10
571.122869
20
307.626567
11
571.084882
21
307.657684
0
LINE
8
0
10
571.084882
20
307.657684
11
571.050084
21
307.685116
0
LINE
8
0
10
571.050084
20
307.685116
11
571.018955
21
307.709387
0
LINE
8
0
10
571.018955
20
307.709387
11
570.991580
21
307.729425
0
LINE
8
0
10
570.991580
20
307.729425
11
570.967873
21
307.746302
0
LINE
8
0
10
570.967873
20
307.746302
11
570.947835
21
307.759482
0
LINE
8
0
10
570.947835
20
307.759482
11
570.930902
21
307.768965
0
LINE
8
0
10
570.930902
20
307.768965
11
570.918202
21
307.774778
0
LINE
8
0
10
570.918202
20
307.774778
11
570.908607
21
307.776754
0
LINE
8
0
10
570.909000
20
307.776000
11
570.854672
21
307.779697
0
LINE
8
0
10
570.854672
20
307.779697
11
570.808783
21
307.786019
0
LINE
8
0
10
570.808783
20
307.786019
11
570.771332
21
307.796038
0
LINE
8
0
10
570.771332
20
307.796038
11
570.742856
21
307.808710
0
LINE
8
0
10
570.742856
20
307.808710
11
570.721689
21
307.826631
0
LINE
8
0
10
570.721689
20
307.826631
11
570.706449
21
307.849829
0
LINE
8
0
10
570.706449
20
307.849829
11
570.697418
21
307.879367
0
LINE
8
0
10
570.697418
20
307.879367
11
570.694314
21
307.914704
0
LINE
8
0
10
570.694000
20
307.915000
11
570.697669
21
307.947173
0
LINE
8
0
10
570.697669
20
307.947173
11
570.709804
21
307.976708
0
LINE
8
0
10
570.709804
20
307.976708
11
570.729278
21
308.004648
0
LINE
8
0
10
570.729278
20
308.004648
11
570.756653
21
308.030499
0
LINE
8
0
10
570.756653
20
308.030499
11
570.789363
21
308.052118
0
LINE
8
0
10
570.789363
20
308.052118
11
570.825233
21
308.067950
0
LINE
8
0
10
570.825233
20
308.067950
11
570.863728
21
308.076925
0
LINE
8
0
10
570.863728
20
308.076925
11
570.904876
21
308.080086
0
LINE
8
0
10
570.905000
20
308.080000
11
570.921933
21
308.079436
0
LINE
8
0
10
570.921933
20
308.079436
11
570.943664
21
308.077742
0
LINE
8
0
10
570.943664
20
308.077742
11
570.969064
21
308.074581
0
LINE
8
0
10
570.969064
20
308.074581
11
570.999121
21
308.070884
0
LINE
8
0
10
570.999000
20
308.071000
11
571.029593
21
308.066259
0
LINE
8
0
10
571.029593
20
308.066259
11
571.055557
21
308.063098
0
LINE
8
0
10
571.055557
20
308.063098
11
571.077571
21
308.061122
0
LINE
8
0
10
571.077571
20
308.061122
11
571.095068
21
308.060558
0
LINE
8
0
10
571.909000
20
308.763000
11
571.906178
21
308.799920
0
LINE
8
0
10
571.906178
20
308.799920
11
571.899404
21
308.835257
0
LINE
8
0
10
571.899404
20
308.835257
11
571.887269
21
308.869014
0
LINE
8
0
10
571.887269
20
308.869014
11
571.870900
21
308.901715
0
LINE
8
0
10
571.870900
20
308.901715
11
571.849169
21
308.933361
0
LINE
8
0
10
571.849169
20
308.933361
11
571.822922
21
308.963423
0
LINE
8
0
10
571.822922
20
308.963423
11
571.791793
21
308.991905
0
LINE
8
0
10
571.791793
20
308.991905
11
571.755951
21
309.019337
0
LINE
8
0
10
571.755951
20
309.019337
11
571.716384
21
309.044652
0
LINE
8
0
10
571.716384
20
309.044652
11
571.674191
21
309.066270
0
LINE
8
0
10
571.674191
20
309.066270
11
571.629346
21
309.084727
0
LINE
8
0
10
571.629346
20
309.084727
11
571.581905
21
309.100024
0
LINE
8
0
10
571.581905
20
309.100024
11
571.531782
21
309.111623
0
LINE
8
0
10
571.531782
20
309.111623
11
571.479571
21
309.120062
0
LINE
8
0
10
571.479571
20
309.120062
11
571.424199
21
309.125339
0
LINE
8
0
10
571.424199
20
309.125339
11
571.366174
21
309.127033
0
LINE
8
0
10
571.367000
20
309.127000
11
571.190301
21
309.120678
0
LINE
8
0
10
571.190301
20
309.120678
11
571.013094
21
309.102221
0
LINE
8
0
10
571.013094
20
309.102221
11
570.932943
21
309.090085
0
LINE
8
0
10
570.932943
20
309.090085
11
570.868596
21
309.079022
0
LINE
8
0
10
570.868596
20
309.079022
11
570.820054
21
309.069003
0
LINE
8
0
10
570.820054
20
309.069003
11
570.787881
21
309.059521
0
LINE
8
0
10
570.787881
20
309.059521
11
570.764739
21
309.047385
0
LINE
8
0
10
570.764739
20
309.047385
11
570.744136
21
309.027855
0
LINE
8
0
10
570.744136
20
309.027855
11
570.725792
21
309.001496
0
LINE
8
0
10
570.725792
20
309.001496
11
570.709423
21
308.968267
0
LINE
8
0
10
570.709423
20
308.968267
11
570.701521
21
308.944532
0
LINE
8
0
10
570.701521
20
308.944532
11
570.691925
21
308.911306
0
LINE
8
0
10
570.691925
20
308.911306
11
570.680919
21
308.867528
0
LINE
8
0
10
570.680919
20
308.867528
11
570.669348
21
308.814259
0
LINE
8
0
10
570.669348
20
308.814259
11
570.656083
21
308.750440
0
LINE
8
0
10
570.656083
20
308.750440
11
570.641408
21
308.676602
0
LINE
8
0
10
570.641408
20
308.676602
11
570.625603
21
308.592740
0
LINE
8
0
10
570.625603
20
308.592740
11
570.608670
21
308.498859
0
LINE
8
0
10
570.608670
20
308.498859
11
570.575453
21
308.303711
0
LINE
8
0
10
570.575453
20
308.303711
11
570.545904
21
308.114365
0
LINE
8
0
10
570.545904
20
308.114365
11
570.520222
21
307.930294
0
LINE
8
0
10
570.520222
20
307.930294
11
570.498208
21
307.752023
0
LINE
8
0
10
570.498208
20
307.752023
11
570.488613
21
307.667108
0
LINE
8
0
10
570.488613
20
307.667108
11
570.480711
21
307.587995
0
LINE
8
0
10
570.480711
20
307.587995
11
570.473937
21
307.514682
0
LINE
8
0
10
570.473937
20
307.514682
11
570.468575
21
307.447700
0
LINE
8
0
10
570.468575
20
307.447700
11
570.464342
21
307.385989
0
LINE
8
0
10
570.464342
20
307.385989
11
570.461237
21
307.330084
0
LINE
8
0
10
570.461237
20
307.330084
11
570.458415
21
307.280506
0
LINE
8
0
10
570.458415
20
307.280506
11
570.458415
21
307.236200
0
LINE
8
0
10
570.458000
20
307.236000
11
570.458000
21
307.174292
0
LINE
8
0
10
570.458000
20
307.174292
11
570.461669
21
307.116276
0
LINE
8
0
10
570.461669
20
307.116276
11
570.467031
21
307.063006
0
LINE
8
0
10
570.467031
20
307.063006
11
570.474933
21
307.013953
0
LINE
8
0
10
570.476000
20
307.014000
11
570.482773
21
306.969172
0
LINE
8
0
10
570.482773
20
306.969172
11
570.488136
21
306.929613
0
LINE
8
0
10
570.488136
20
306.929613
11
570.490958
21
306.893748
0
LINE
8
0
10
570.490958
20
306.893748
11
570.490958
21
306.863158
0
LINE
8
0
10
570.492000
20
306.863000
11
570.488331
21
306.836104
0
LINE
8
0
10
570.488331
20
306.836104
11
570.477889
21
306.808672
0
LINE
8
0
10
570.477889
20
306.808672
11
570.460109
21
306.781240
0
LINE
8
0
10
570.460109
20
306.781240
11
570.435273
21
306.752758
0
LINE
8
0
10
570.435273
20
306.752758
11
570.406261
21
306.727979
0
LINE
8
0
10
570.406261
20
306.727979
11
570.375668
21
306.710566
0
LINE
8
0
10
570.375668
20
306.710566
11
570.344031
21
306.700011
0
LINE
8
0
10
570.344031
20
306.700011
11
570.311322
21
306.696314
0
LINE
8
0
10
570.311000
20
306.696000
11
570.266155
21
306.700741
0
LINE
8
0
10
570.266155
20
306.700741
11
570.227660
21
306.714994
0
LINE
8
0
10
570.227660
20
306.714994
11
570.194979
21
306.738728
0
LINE
8
0
10
570.194979
20
306.738728
11
570.168167
21
306.771957
0
LINE
8
0
10
570.168167
20
306.771957
11
570.147565
21
306.814680
0
LINE
8
0
10
570.147565
20
306.814680
11
570.132890
21
306.866366
0
LINE
8
0
10
570.132890
20
306.866366
11
570.123859
21
306.928077
0
LINE
8
0
10
570.123859
20
306.928077
11
570.120754
21
306.999279
0
LINE
8
0
10
570.120000
20
307.000000
11
570.120000
21
307.091245
0
LINE
8
0
10
570.120000
20
307.091245
11
570.122822
21
307.186179
0
LINE
8
0
10
570.122822
20
307.186179
11
570.128184
21
307.284810
0
LINE
8
0
10
570.128184
20
307.284810
11
570.134958
21
307.387130
0
LINE
8
0
10
570.134958
20
307.387130
11
570.143424
21
307.493144
0
LINE
8
0
10
570.143424
20
307.493144
11
570.154431
21
307.602847
0
LINE
8
0
10
570.154431
20
307.602847
11
570.167131
21
307.716244
0
LINE
8
0
10
570.167131
20
307.716244
11
570.181807
21
307.833332
0
LINE
8
0
10
570.181807
20
307.833332
11
570.198176
21
307.954115
0
LINE
8
0
10
570.198176
20
307.954115
11
570.217084
21
308.078586
0
LINE
8
0
10
570.217084
20
308.078586
11
570.237687
21
308.206751
0
LINE
8
0
10
570.237687
20
308.206751
11
570.259700
21
308.338605
0
LINE
8
0
10
570.259700
20
308.338605
11
570.284535
21
308.474156
0
LINE
8
0
10
570.284535
20
308.474156
11
570.310782
21
308.613396
0
LINE
8
0
10
570.310782
20
308.613396
11
570.338722
21
308.756327
0
LINE
8
0
10
570.338722
20
308.756327
11
570.369287
21
308.902953
0
LINE
8
0
10
570.371000
20
308.902000
11
570.375798
21
308.929940
0
LINE
8
0
10
570.375798
20
308.929940
11
570.379467
21
308.951558
0
LINE
8
0
10
570.379467
20
308.951558
11
570.382289
21
308.966855
0
LINE
8
0
10
570.382289
20
308.966855
11
570.382289
21
308.975293
0
LINE
8
0
10
570.382000
20
308.976000
11
570.379178
21
308.989180
0
LINE
8
0
10
570.379178
20
308.989180
11
570.370711
21
309.008173
0
LINE
8
0
10
570.371000
20
309.008000
11
570.335158
21
309.059689
0
LINE
8
0
10
570.335158
20
309.059689
11
570.309758
21
309.101884
0
LINE
8
0
10
570.309758
20
309.101884
11
570.294518
21
309.134582
0
LINE
8
0
10
570.294518
20
309.134582
11
570.289156
21
309.157781
0
LINE
8
0
10
570.289000
20
309.158000
11
570.293233
21
309.190701
0
LINE
8
0
10
570.293233
20
309.190701
11
570.306498
21
309.221291
0
LINE
8
0
10
570.306498
20
309.221291
11
570.328229
21
309.249231
0
LINE
8
0
10
570.328229
20
309.249231
11
570.358822
21
309.275083
0
LINE
8
0
10
570.358822
20
309.275083
11
570.392576
21
309.297237
0
LINE
8
0
10
570.392576
20
309.297237
11
570.425257
21
309.312533
0
LINE
8
0
10
570.425257
20
309.312533
11
570.455850
21
309.322016
0
LINE
8
0
10
570.455850
20
309.322016
11
570.484862
21
309.325177
0
LINE
8
0
10
570.484000
20
309.325000
11
570.633578
21
309.310889
0
LINE
8
0
10
571.095000
20
308.061000
11
571.132959
21
308.064161
0
LINE
8
0
10
571.132959
20
308.064161
11
571.177268
21
308.074180
0
LINE
8
0
10
571.177268
20
308.074180
11
571.227362
21
308.090520
0
LINE
8
0
10
571.227362
20
308.090520
11
571.284343
21
308.113211
0
LINE
8
0
10
571.284343
20
308.113211
11
571.346573
21
308.142748
0
LINE
8
0
10
571.346573
20
308.142748
11
571.415661
21
308.178613
0
LINE
8
0
10
571.415661
20
308.178613
11
571.490562
21
308.221333
0
LINE
8
0
10
571.490562
20
308.221333
11
571.571786
21
308.270386
0
LINE
8
0
10
571.571786
20
308.270386
11
571.650893
21
308.323656
0
LINE
8
0
10
571.650893
20
308.323656
11
571.719444
21
308.379561
0
LINE
8
0
10
571.719444
20
308.379561
11
571.777469
21
308.437577
0
LINE
8
0
10
571.777469
20
308.437577
11
571.824939
21
308.498233
0
LINE
8
0
10
571.824939
20
308.498233
11
571.861854
21
308.560996
0
LINE
8
0
10
571.861854
20
308.560996
11
571.888100
21
308.625870
0
LINE
8
0
10
571.888100
20
308.625870
11
571.903905
21
308.693381
0
LINE
8
0
10
571.903905
20
308.693381
11
571.909267
21
308.762999
0
LINE
8
0
10
570.635000
20
309.311000
11
570.760504
21
309.331038
0
LINE
8
0
10
570.760504
20
309.331038
11
570.877598
21
309.348451
0
LINE
8
0
10
570.877598
20
309.348451
11
570.985717
21
309.363211
0
LINE
8
0
10
570.985717
20
309.363211
11
571.084890
21
309.375347
0
LINE
8
0
10
571.084890
20
309.375347
11
571.175060
21
309.384829
0
LINE
8
0
10
571.175060
20
309.384829
11
571.256819
21
309.391687
0
LINE
8
0
10
571.256819
20
309.391687
11
571.329604
21
309.395384
0
LINE
8
0
10
571.329604
20
309.395384
11
571.393951
21
309.397078
0
LINE
8
0
10
571.842000
20
327.754000
11
571.839178
21
327.809378
0
LINE
8
0
10
571.839178
20
327.809378
11
571.833533
21
327.859483
0
LINE
8
0
10
571.833533
20
327.859483
11
571.823938
21
327.903787
0
LINE
8
0
10
571.823938
20
327.903787
11
571.810673
21
327.942290
0
LINE
8
0
10
571.810673
20
327.942290
11
571.793176
21
327.974991
0
LINE
8
0
10
571.793176
20
327.974991
11
571.772009
21
328.001887
0
LINE
8
0
10
571.772009
20
328.001887
11
571.747173
21
328.023505
0
LINE
8
0
10
571.747173
20
328.023505
11
571.718161
21
328.039338
0
LINE
8
0
10
571.718161
20
328.039338
11
571.653278
21
328.062028
0
LINE
8
0
10
571.653278
20
328.062028
11
571.580493
21
328.078369
0
LINE
8
0
10
571.580493
20
328.078369
11
571.500342
21
328.088388
0
LINE
8
0
10
571.500342
20
328.088388
11
571.412769
21
328.091549
0
LINE
8
0
10
571.414000
20
328.092000
11
571.321177
21
328.090024
0
LINE
8
0
10
571.321177
20
328.090024
11
571.229935
21
328.082630
0
LINE
8
0
10
571.229935
20
328.082630
11
571.141317
21
328.071031
0
LINE
8
0
10
571.141317
20
328.071031
11
571.054844
21
328.054690
0
LINE
8
0
10
571.054844
20
328.054690
11
570.970432
21
328.033608
0
LINE
8
0
10
570.970432
20
328.033608
11
570.888700
21
328.007757
0
LINE
8
0
10
570.888700
20
328.007757
11
570.808521
21
327.977692
0
LINE
8
0
10
570.808521
20
327.977692
11
570.730994
21
327.942355
0
LINE
8
0
10
570.730994
20
327.942355
11
570.659254
21
327.903854
0
LINE
8
0
10
570.659254
20
327.903854
11
570.597024
21
327.863767
0
LINE
8
0
10
570.597024
20
327.863767
11
570.544276
21
327.822103
0
LINE
8
0
10
570.544276
20
327.822103
11
570.501040
21
327.778324
0
LINE
8
0
10
570.501040
20
327.778324
11
570.467794
21
327.732441
0
LINE
8
0
10
570.467794
20
327.732441
11
570.443523
21
327.684443
0
LINE
8
0
10
570.443523
20
327.684443
11
570.429130
21
327.634865
0
LINE
8
0
10
570.429130
20
327.634865
11
570.424332
21
327.583704
0
LINE
8
0
10
570.424000
20
327.584000
11
570.426822
21
327.547082
0
LINE
8
0
10
570.426822
20
327.547082
11
570.433031
21
327.511218
0
LINE
8
0
10
570.433031
20
327.511218
11
570.443473
21
327.476406
0
LINE
8
0
10
570.443473
20
327.476406
11
570.457584
21
327.443180
0
LINE
8
0
10
570.457584
20
327.443180
11
570.476493
21
327.410478
0
LINE
8
0
10
570.476493
20
327.410478
11
570.499071
21
327.379888
0
LINE
8
0
10
570.499071
20
327.379888
11
570.526447
21
327.349823
0
LINE
8
0
10
570.526447
20
327.349823
11
570.557576
21
327.321344
0
LINE
8
0
10
570.557576
20
327.321344
11
570.596071
21
327.292863
0
LINE
8
0
10
570.596071
20
327.292863
11
570.644077
21
327.263853
0
LINE
8
0
10
570.644077
20
327.263853
11
570.702102
21
327.234318
0
LINE
8
0
10
570.702102
20
327.234318
11
570.770145
21
327.203728
0
LINE
8
0
10
570.770145
20
327.203728
11
570.847672
21
327.172611
0
LINE
8
0
10
570.847672
20
327.172611
11
570.935217
21
327.140965
0
LINE
8
0
10
570.935217
20
327.140965
11
571.032781
21
327.108264
0
LINE
8
0
10
571.032781
20
327.108264
11
571.139856
21
327.075035
0
LINE
8
0
10
571.140000
20
327.075000
11
571.244958
21
327.042827
0
LINE
8
0
10
571.244958
20
327.042827
11
571.342014
21
327.010128
0
LINE
8
0
10
571.342014
20
327.010128
11
571.431140
21
326.977427
0
LINE
8
0
10
571.431140
20
326.977427
11
571.512363
21
326.944199
0
LINE
8
0
10
571.512363
20
326.944199
11
571.585685
21
326.910970
0
LINE
8
0
10
571.585685
20
326.910970
11
571.651612
21
326.877216
0
LINE
8
0
10
571.651612
20
326.877216
11
571.709100
21
326.843459
0
LINE
8
0
10
571.709100
20
326.843459
11
571.759195
21
326.809178
0
LINE
8
0
10
571.759195
20
326.809178
11
571.802459
21
326.773841
0
LINE
8
0
10
571.802459
20
326.773841
11
571.839882
21
326.736921
0
LINE
8
0
10
571.839882
20
326.736921
11
571.871547
21
326.698420
0
LINE
8
0
10
571.871547
20
326.698420
11
571.897229
21
326.658333
0
LINE
8
0
10
571.897229
20
326.658333
11
571.917267
21
326.616141
0
LINE
8
0
10
571.917267
20
326.616141
11
571.931378
21
326.571838
0
LINE
8
0
10
571.931378
20
326.571838
11
571.940409
21
326.526479
0
LINE
8
0
10
571.940409
20
326.526479
11
571.943232
21
326.479009
0
LINE
8
0
10
571.943000
20
326.479000
11
571.938767
21
326.429950
0
LINE
8
0
10
571.938767
20
326.429950
11
571.927196
21
326.379316
0
LINE
8
0
10
571.927196
20
326.379316
11
571.906593
21
326.328155
0
LINE
8
0
10
571.906593
20
326.328155
11
571.878653
21
326.275941
0
LINE
8
0
10
571.878653
20
326.275941
11
571.842275
21
326.222672
0
LINE
8
0
10
571.842275
20
326.222672
11
571.798502
21
326.168347
0
LINE
8
0
10
571.798502
20
326.168347
11
571.745755
21
326.113494
0
LINE
8
0
10
571.745755
20
326.113494
11
571.685614
21
326.057058
0
LINE
8
0
10
571.685614
20
326.057058
11
571.619686
21
326.002209
0
LINE
8
0
10
571.619686
20
326.002209
11
571.550599
21
325.950520
0
LINE
8
0
10
571.550599
20
325.950520
11
571.477813
21
325.902525
0
LINE
8
0
10
571.477813
20
325.902525
11
571.402404
21
325.857694
0
LINE
8
0
10
571.402404
20
325.857694
11
571.323297
21
325.816554
0
LINE
8
0
10
571.323297
20
325.816554
11
571.240465
21
325.778579
0
LINE
8
0
10
571.240465
20
325.778579
11
571.155036
21
325.743769
0
LINE
8
0
10
571.155036
20
325.743769
11
571.065910
21
325.712651
0
LINE
8
0
10
571.065910
20
325.712651
11
570.976757
21
325.685219
0
LINE
8
0
10
570.976757
20
325.685219
11
570.891328
21
325.660948
0
LINE
8
0
10
570.891328
20
325.660948
11
570.809032
21
325.640911
0
LINE
8
0
10
570.809032
20
325.640911
11
570.730461
21
325.624034
0
LINE
8
0
10
570.730461
20
325.624034
11
570.655024
21
325.611390
0
LINE
8
0
10
570.655024
20
325.611390
11
570.582775
21
325.601908
0
LINE
8
0
10
570.582775
20
325.601908
11
570.514223
21
325.596630
0
LINE
8
0
10
570.514223
20
325.596630
11
570.449340
21
325.594654
0
LINE
8
0
10
570.449000
20
325.594000
11
570.349855
21
325.597161
0
LINE
8
0
10
570.349855
20
325.597161
11
570.262818
21
325.606136
0
LINE
8
0
10
570.262818
20
325.606136
11
570.188989
21
325.621432
0
LINE
8
0
10
570.188989
20
325.621432
11
570.127803
21
325.642514
0
LINE
8
0
10
570.127803
20
325.642514
11
570.079797
21
325.668365
0
LINE
8
0
10
570.079797
20
325.668365
11
570.046043
21
325.697903
0
LINE
8
0
10
570.046043
20
325.697903
11
570.025441
21
325.729548
0
LINE
8
0
10
570.025441
20
325.729548
11
570.018668
21
325.764885
0
LINE
8
0
10
570.019000
20
325.765000
11
570.021822
21
325.792432
0
LINE
8
0
10
570.021822
20
325.792432
11
570.027749
21
325.822494
0
LINE
8
0
10
570.027749
20
325.822494
11
570.037909
21
325.855195
0
LINE
8
0
10
570.037909
20
325.855195
11
570.052020
21
325.891060
0
LINE
8
0
10
570.052020
20
325.891060
11
570.068389
21
325.923761
0
LINE
8
0
10
570.068389
20
325.923761
11
570.085322
21
325.946960
0
LINE
8
0
10
570.085322
20
325.946960
11
570.101691
21
325.960676
0
LINE
8
0
10
570.101691
20
325.960676
11
570.118624
21
325.965417
0
LINE
8
0
10
570.118000
20
325.965000
11
570.153334
21
325.962460
0
LINE
8
0
10
570.153334
20
325.962460
11
570.189741
21
325.955066
0
LINE
8
0
10
570.189000
20
325.955000
11
570.282867
21
325.929685
0
LINE
8
0
10
570.282867
20
325.929685
11
570.376226
21
325.911764
0
LINE
8
0
10
570.376226
20
325.911764
11
570.469585
21
325.901208
0
LINE
8
0
10
570.469585
20
325.901208
11
570.561872
21
325.897511
0
LINE
8
0
10
570.562000
20
325.898000
11
570.645340
21
325.901161
0
LINE
8
0
10
570.645340
20
325.901161
11
570.730261
21
325.910644
0
LINE
8
0
10
570.730261
20
325.910644
11
570.816762
21
325.925940
0
LINE
8
0
10
570.816762
20
325.925940
11
570.903771
21
325.947558
0
LINE
8
0
10
570.903771
20
325.947558
11
570.992388
21
325.975498
0
LINE
8
0
10
570.992388
20
325.975498
11
571.082587
21
326.009782
0
LINE
8
0
10
571.082587
20
326.009782
11
571.173829
21
326.049866
0
LINE
8
0
10
571.173829
20
326.049866
11
571.266116
21
326.096281
0
LINE
8
0
10
571.266116
20
326.096281
11
571.353661
21
326.145331
0
LINE
8
0
10
571.353661
20
326.145331
11
571.429099
21
326.193853
0
LINE
8
0
10
571.429099
20
326.193853
11
571.493446
21
326.241320
0
LINE
8
0
10
571.493446
20
326.241320
11
571.545657
21
326.288262
0
LINE
8
0
10
571.545657
20
326.288262
11
571.586805
21
326.333621
0
LINE
8
0
10
571.586805
20
326.333621
11
571.615817
21
326.378980
0
LINE
8
0
10
571.615817
20
326.378980
11
571.633315
21
326.423283
0
LINE
8
0
10
571.633315
20
326.423283
11
571.639241
21
326.466533
0
LINE
8
0
10
570.953000
20
326.824000
11
570.817449
21
326.869359
0
LINE
8
0
10
570.817449
20
326.869359
11
570.695078
21
326.914717
0
LINE
8
0
10
570.695078
20
326.914717
11
570.586959
21
326.959548
0
LINE
8
0
10
570.586959
20
326.959548
11
570.492556
21
327.003852
0
LINE
8
0
10
570.492556
20
327.003852
11
570.411332
21
327.048155
0
LINE
8
0
10
570.411332
20
327.048155
11
570.344333
21
327.091930
0
LINE
8
0
10
570.344333
20
327.091930
11
570.291077
21
327.135709
0
LINE
8
0
10
570.291077
20
327.135709
11
570.251510
21
327.178956
0
LINE
8
0
10
570.251510
20
327.178956
11
570.220917
21
327.222207
0
LINE
8
0
10
570.220917
20
327.222207
11
570.194670
21
327.266510
0
LINE
8
0
10
570.194670
20
327.266510
11
570.172093
21
327.310813
0
LINE
8
0
10
570.172093
20
327.310813
11
570.153748
21
327.356172
0
LINE
8
0
10
570.153748
20
327.356172
11
570.139637
21
327.402058
0
LINE
8
0
10
570.139637
20
327.402058
11
570.129477
21
327.448473
0
LINE
8
0
10
570.129477
20
327.448473
11
570.123268
21
327.495412
0
LINE
8
0
10
570.123268
20
327.495412
11
570.120446
21
327.542882
0
LINE
8
0
10
571.438000
20
328.362000
11
571.512902
21
328.360307
0
LINE
8
0
10
571.512902
20
328.360307
11
571.583570
21
328.355565
0
LINE
8
0
10
571.583570
20
328.355565
11
571.649497
21
328.347663
0
LINE
8
0
10
571.649497
20
328.347663
11
571.710683
21
328.336600
0
LINE
8
0
10
571.710683
20
328.336600
11
571.767635
21
328.322348
0
LINE
8
0
10
571.767635
20
328.322348
11
571.820383
21
328.304935
0
LINE
8
0
10
571.820383
20
328.304935
11
571.868389
21
328.284361
0
LINE
8
0
10
571.868389
20
328.284361
11
571.912161
21
328.260626
0
LINE
8
0
10
571.912161
20
328.260626
11
571.951193
21
328.235311
0
LINE
8
0
10
571.951193
20
328.235311
11
571.984946
21
328.208951
0
LINE
8
0
10
571.984946
20
328.208951
11
572.013423
21
328.182055
0
LINE
8
0
10
572.013423
20
328.182055
11
572.036565
21
328.154623
0
LINE
8
0
10
572.036565
20
328.154623
11
572.054909
21
328.126141
0
LINE
8
0
10
572.054909
20
328.126141
11
572.067609
21
328.097135
0
LINE
8
0
10
572.067609
20
328.097135
11
572.075511
21
328.067597
0
LINE
8
0
10
572.075511
20
328.067597
11
572.078334
21
328.037535
0
LINE
8
0
10
572.078000
20
328.038000
11
572.075178
21
328.005299
0
LINE
8
0
10
572.075178
20
328.005299
11
572.068404
21
327.965743
0
LINE
8
0
10
572.068404
20
327.965743
11
572.055704
21
327.919329
0
LINE
8
0
10
572.055704
20
327.919329
11
572.038771
21
327.866587
0
LINE
8
0
10
572.038771
20
327.866587
11
572.027200
21
327.840227
0
LINE
8
0
10
572.027200
20
327.840227
11
572.011960
21
327.817537
0
LINE
8
0
10
572.011960
20
327.817537
11
571.993051
21
327.798543
0
LINE
8
0
10
571.993051
20
327.798543
11
571.970473
21
327.782711
0
LINE
8
0
10
571.970473
20
327.782711
11
571.943662
21
327.770575
0
LINE
8
0
10
571.943662
20
327.770575
11
571.913606
21
327.761600
0
LINE
8
0
10
571.913606
20
327.761600
11
571.879316
21
327.756323
0
LINE
8
0
10
571.879316
20
327.756323
11
571.841865
21
327.754630
0
LINE
8
0
10
570.120000
20
327.542000
11
570.126773
21
327.631662
0
LINE
8
0
10
570.126773
20
327.631662
11
570.146811
21
327.717105
0
LINE
8
0
10
570.146811
20
327.717105
11
570.180029
21
327.798328
0
LINE
8
0
10
570.180029
20
327.798328
11
570.226454
21
327.874805
0
LINE
8
0
10
570.226454
20
327.874805
11
570.286567
21
327.946534
0
LINE
8
0
10
570.286567
20
327.946534
11
570.359889
21
328.014044
0
LINE
8
0
10
570.359889
20
328.014044
11
570.446390
21
328.077336
0
LINE
8
0
10
570.446390
20
328.077336
11
570.546071
21
328.135880
0
LINE
8
0
10
570.546071
20
328.135880
11
570.653118
21
328.188624
0
LINE
8
0
10
570.653118
20
328.188624
11
570.761773
21
328.234508
0
LINE
8
0
10
570.761773
20
328.234508
11
570.870965
21
328.273539
0
LINE
8
0
10
570.870965
20
328.273539
11
570.982245
21
328.305185
0
LINE
8
0
10
570.982245
20
328.305185
11
571.094061
21
328.329964
0
LINE
8
0
10
571.094061
20
328.329964
11
571.207458
21
328.347377
0
LINE
8
0
10
571.207458
20
328.347377
11
571.321899
21
328.357932
0
LINE
8
0
10
571.321899
20
328.357932
11
571.437412
21
328.361629
0
LINE
8
0
10
571.639000
20
326.466000
11
571.632227
21
326.502392
0
LINE
8
0
10
571.632227
20
326.502392
11
571.610496
21
326.538257
0
LINE
8
0
10
571.610496
20
326.538257
11
571.575161
21
326.573067
0
LINE
8
0
10
571.575161
20
326.573067
11
571.525575
21
326.606820
0
LINE
8
0
10
571.525575
20
326.606820
11
571.491821
21
326.624742
0
LINE
8
0
10
571.491821
20
326.624742
11
571.446976
21
326.645824
0
LINE
8
0
10
571.446976
20
326.645824
11
571.391604
21
326.669022
0
LINE
8
0
10
571.391604
20
326.669022
11
571.325677
21
326.694874
0
LINE
8
0
10
571.325677
20
326.694874
11
571.248687
21
326.722842
0
LINE
8
0
10
571.248687
20
326.722842
11
571.160605
21
326.753960
0
LINE
8
0
10
571.160605
20
326.753960
11
571.061969
21
326.787188
0
LINE
8
0
10
571.061969
20
326.787188
11
570.952269
21
326.823053
0
LINE
8
0
10
570.746000
20
346.990000
11
570.719189
21
346.833356
0
LINE
8
0
10
570.719189
20
346.833356
11
570.694353
21
346.681983
0
LINE
8
0
10
570.694353
20
346.681983
11
570.671211
21
346.536941
0
LINE
8
0
10
570.671211
20
346.536941
11
570.649480
21
346.397701
0
LINE
8
0
10
570.649480
20
346.397701
11
570.629442
21
346.264261
0
LINE
8
0
10
570.629442
20
346.264261
11
570.611662
21
346.137154
0
LINE
8
0
10
570.611662
20
346.137154
11
570.595293
21
346.015319
0
LINE
8
0
10
570.595293
20
346.015319
11
570.580618
21
345.899811
0
LINE
8
0
10
570.580618
20
345.899811
11
570.567353
21
345.790106
0
LINE
8
0
10
570.567353
20
345.790106
11
570.556347
21
345.686203
0
LINE
8
0
10
570.556347
20
345.686203
11
570.546751
21
345.588103
0
LINE
8
0
10
570.546751
20
345.588103
11
570.538849
21
345.495805
0
LINE
8
0
10
570.538849
20
345.495805
11
570.532922
21
345.409834
0
LINE
8
0
10
570.532922
20
345.409834
11
570.528689
21
345.329136
0
LINE
8
0
10
570.528689
20
345.329136
11
570.525867
21
345.254770
0
LINE
8
0
10
570.525867
20
345.254770
11
570.525867
21
345.186204
0
LINE
8
0
10
570.525000
20
345.186000
11
570.527822
21
345.131675
0
LINE
8
0
10
570.527822
20
345.131675
11
570.532056
21
345.084208
0
LINE
8
0
10
570.532056
20
345.084208
11
570.539393
21
345.044124
0
LINE
8
0
10
570.539393
20
345.044124
11
570.549836
21
345.010895
0
LINE
8
0
10
570.549000
20
345.011000
11
570.570167
21
345.001517
0
LINE
8
0
10
570.570167
20
345.001517
11
570.604965
21
344.998356
0
LINE
8
0
10
570.605000
20
344.998000
11
570.639798
21
344.999976
0
LINE
8
0
10
570.639798
20
344.999976
11
570.686224
21
345.007370
0
LINE
8
0
10
570.686224
20
345.007370
11
570.744756
21
345.018969
0
LINE
8
0
10
570.744756
20
345.018969
11
570.814917
21
345.034802
0
LINE
8
0
10
570.814917
20
345.034802
11
570.896140
21
345.055912
0
LINE
8
0
10
570.896140
20
345.055912
11
570.989499
21
345.081227
0
LINE
8
0
10
570.989499
20
345.081227
11
571.094994
21
345.111290
0
LINE
8
0
10
571.094994
20
345.111290
11
571.211552
21
345.146102
0
LINE
8
0
10
571.211552
20
345.146102
11
571.331271
21
345.185658
0
LINE
8
0
10
571.331271
20
345.185658
11
571.445712
21
345.230489
0
LINE
8
0
10
571.445712
20
345.230489
11
571.553831
21
345.280067
0
LINE
8
0
10
571.553831
20
345.280067
11
571.656165
21
345.334392
0
LINE
8
0
10
571.656165
20
345.334392
11
571.753221
21
345.393991
0
LINE
8
0
10
571.753221
20
345.393991
11
571.843928
21
345.458866
0
LINE
8
0
10
571.843928
20
345.458866
11
571.929356
21
345.528484
0
LINE
8
0
10
571.929356
20
345.528484
11
572.008491
21
345.603380
0
LINE
8
0
10
572.008491
20
345.603380
11
572.080204
21
345.681965
0
LINE
8
0
10
572.080204
20
345.681965
11
572.142462
21
345.763188
0
LINE
8
0
10
572.142462
20
345.763188
11
572.194673
21
345.847051
0
LINE
8
0
10
572.194673
20
345.847051
11
572.237909
21
345.933549
0
LINE
8
0
10
572.237909
20
345.933549
11
572.271127
21
346.022683
0
LINE
8
0
10
572.271127
20
346.022683
11
572.295398
21
346.114981
0
LINE
8
0
10
572.295398
20
346.114981
11
572.309791
21
346.209390
0
LINE
8
0
10
572.309791
20
346.209390
11
572.314589
21
346.306438
0
LINE
8
0
10
572.314000
20
346.307000
11
572.310331
21
346.386643
0
LINE
8
0
10
572.310331
20
346.386643
11
572.299324
21
346.462064
0
LINE
8
0
10
572.299324
20
346.462064
11
572.280980
21
346.533266
0
LINE
8
0
10
572.280980
20
346.533266
11
572.255016
21
346.600776
0
LINE
8
0
10
572.255016
20
346.600776
11
572.221770
21
346.663539
0
LINE
8
0
10
572.221770
20
346.663539
11
572.181694
21
346.722611
0
LINE
8
0
10
572.181694
20
346.722611
11
572.133717
21
346.777992
0
LINE
8
0
10
572.133717
20
346.777992
11
572.078316
21
346.828625
0
LINE
8
0
10
572.078316
20
346.828625
11
572.017131
21
346.874509
0
LINE
8
0
10
572.017131
20
346.874509
11
571.951204
21
346.914068
0
LINE
8
0
10
571.951204
20
346.914068
11
571.880535
21
346.947294
0
LINE
8
0
10
571.880535
20
346.947294
11
571.805634
21
346.975262
0
LINE
8
0
10
571.805634
20
346.975262
11
571.725483
21
346.996344
0
LINE
8
0
10
571.725483
20
346.996344
11
571.640562
21
347.011641
0
LINE
8
0
10
571.640562
20
347.011641
11
571.551436
21
347.020615
0
LINE
8
0
10
571.551436
20
347.020615
11
571.457005
21
347.023776
0
LINE
8
0
10
571.457000
20
347.024000
11
571.333584
21
347.022307
0
LINE
8
0
10
571.333584
20
347.022307
11
571.198569
21
347.017565
0
LINE
8
0
10
571.198569
20
347.017565
11
571.051418
21
347.010171
0
LINE
8
0
10
571.051418
20
347.010171
11
570.892132
21
346.999108
0
LINE
8
0
10
570.892000
20
346.999000
11
570.818707
21
346.993722
0
LINE
8
0
10
570.818707
20
346.993722
11
570.745922
21
346.990025
0
LINE
8
0
10
570.424000
20
346.871000
11
570.418638
21
346.902646
0
LINE
8
0
10
570.418638
20
346.902646
11
570.402833
21
346.928497
0
LINE
8
0
10
570.402833
20
346.928497
11
570.377151
21
346.947999
0
LINE
8
0
10
570.377151
20
346.947999
11
570.340237
21
346.961715
0
LINE
8
0
10
570.340000
20
346.961000
11
570.304130
21
346.969975
0
LINE
8
0
10
570.304130
20
346.969975
11
570.273537
21
346.981038
0
LINE
8
0
10
570.273537
20
346.981038
11
570.247290
21
346.993173
0
LINE
8
0
10
570.247290
20
346.993173
11
570.225559
21
347.006889
0
LINE
8
0
10
570.225559
20
347.006889
11
570.209190
21
347.022186
0
LINE
8
0
10
570.209190
20
347.022186
11
570.197055
21
347.039063
0
LINE
8
0
10
570.197055
20
347.039063
11
570.190281
21
347.057520
0
LINE
8
0
10
570.190281
20
347.057520
11
570.187459
21
347.077558
0
LINE
8
0
10
570.188000
20
347.078000
11
570.191669
21
347.109121
0
LINE
8
0
10
570.191669
20
347.109121
11
570.202676
21
347.139711
0
LINE
8
0
10
570.202676
20
347.139711
11
570.220456
21
347.169773
0
LINE
8
0
10
570.220456
20
347.169773
11
570.246420
21
347.199838
0
LINE
8
0
10
570.246420
20
347.199838
11
570.275969
21
347.226198
0
LINE
8
0
10
570.275969
20
347.226198
11
570.307069
21
347.245191
0
LINE
8
0
10
570.307069
20
347.245191
11
570.338707
21
347.256254
0
LINE
8
0
10
570.338707
20
347.256254
11
570.371416
21
347.259951
0
LINE
8
0
10
570.371000
20
347.260000
11
570.625000
21
347.253227
0
LINE
8
0
10
570.624000
20
347.253000
11
570.718940
21
347.254129
0
LINE
8
0
10
570.718940
20
347.254129
11
570.828102
21
347.257826
0
LINE
8
0
10
570.828102
20
347.257826
11
570.951519
21
347.263104
0
LINE
8
0
10
570.951519
20
347.263104
11
571.088650
21
347.271006
0
LINE
8
0
10
571.089000
20
347.271000
11
571.158088
21
347.276278
0
LINE
8
0
10
571.158088
20
347.276278
11
571.222971
21
347.281019
0
LINE
8
0
10
571.222971
20
347.281019
11
571.283620
21
347.284716
0
LINE
8
0
10
571.283620
20
347.284716
11
571.339528
21
347.287877
0
LINE
8
0
10
571.339528
20
347.287877
11
571.390695
21
347.290417
0
LINE
8
0
10
571.390695
20
347.290417
11
571.437629
21
347.292110
0
LINE
8
0
10
571.437629
20
347.292110
11
571.479821
21
347.293239
0
LINE
8
0
10
571.479821
20
347.293239
11
571.517808
21
347.293804
0
LINE
8
0
10
572.618000
20
346.297000
11
572.611227
21
346.175165
0
LINE
8
0
10
572.611227
20
346.175165
11
572.591189
21
346.056493
0
LINE
8
0
10
572.591189
20
346.056493
11
572.557435
21
345.939932
0
LINE
8
0
10
572.557435
20
345.939932
11
572.510502
21
345.826535
0
LINE
8
0
10
572.510502
20
345.826535
11
572.450388
21
345.715777
0
LINE
8
0
10
572.450388
20
345.715777
11
572.376531
21
345.607655
0
LINE
8
0
10
572.376531
20
345.607655
11
572.288985
21
345.502697
0
LINE
8
0
10
572.288985
20
345.502697
11
572.188232
21
345.399850
0
LINE
8
0
10
572.188232
20
345.399850
11
572.074835
21
345.302275
0
LINE
8
0
10
572.074835
20
345.302275
11
571.950375
21
345.211032
0
LINE
8
0
10
571.950375
20
345.211032
11
571.814288
21
345.127170
0
LINE
8
0
10
571.814288
20
345.127170
11
571.667137
21
345.049638
0
LINE
8
0
10
571.667137
20
345.049638
11
571.508387
21
344.979492
0
LINE
8
0
10
571.508387
20
344.979492
11
571.338038
21
344.915673
0
LINE
8
0
10
571.338038
20
344.915673
11
571.156597
21
344.858712
0
LINE
8
0
10
571.156597
20
344.858712
11
570.963557
21
344.808606
0
LINE
8
0
10
570.964000
20
344.808000
11
570.888590
21
344.789543
0
LINE
8
0
10
570.888590
20
344.789543
11
570.820010
21
344.770549
0
LINE
8
0
10
570.820010
20
344.770549
11
570.757244
21
344.752092
0
LINE
8
0
10
570.757244
20
344.752092
11
570.700828
21
344.733098
0
LINE
8
0
10
570.700828
20
344.733098
11
570.650705
21
344.714641
0
LINE
8
0
10
570.650705
20
344.714641
11
570.607469
21
344.695648
0
LINE
8
0
10
570.607469
20
344.695648
11
570.570018
21
344.676654
0
LINE
8
0
10
570.570018
20
344.676654
11
570.538889
21
344.657661
0
LINE
8
0
10
570.538000
20
344.658000
11
570.467332
21
344.614750
0
LINE
8
0
10
570.467332
20
344.614750
11
570.403521
21
344.584159
0
LINE
8
0
10
570.403521
20
344.584159
11
570.345496
21
344.565702
0
LINE
8
0
10
570.345496
20
344.565702
11
570.293822
21
344.559380
0
LINE
8
0
10
570.294000
20
344.559000
11
570.260754
21
344.563741
0
LINE
8
0
10
570.260754
20
344.563741
11
570.229653
21
344.576921
0
LINE
8
0
10
570.229653
20
344.576921
11
570.200105
21
344.599612
0
LINE
8
0
10
570.200105
20
344.599612
11
570.172729
21
344.630730
0
LINE
8
0
10
570.172729
20
344.630730
11
570.149587
21
344.665011
0
LINE
8
0
10
570.149587
20
344.665011
11
570.133218
21
344.695604
0
LINE
8
0
10
570.133218
20
344.695604
11
570.123340
21
344.722500
0
LINE
8
0
10
570.123340
20
344.722500
11
570.120236
21
344.745698
0
LINE
8
0
10
570.120000
20
344.746000
11
570.122822
21
344.758672
0
LINE
8
0
10
570.122822
20
344.758672
11
570.128749
21
344.778173
0
LINE
8
0
10
570.128749
20
344.778173
11
570.138909
21
344.804533
0
LINE
8
0
10
570.138909
20
344.804533
11
570.152738
21
344.838289
0
LINE
8
0
10
570.152000
20
344.838000
11
570.180476
21
344.918696
0
LINE
8
0
10
570.180476
20
344.918696
11
570.198256
21
344.999919
0
LINE
8
0
10
570.198256
20
344.999919
11
570.205030
21
345.048969
0
LINE
8
0
10
570.205030
20
345.048969
11
570.210956
21
345.114372
0
LINE
8
0
10
570.210956
20
345.114372
11
570.216883
21
345.195595
0
LINE
8
0
10
570.216883
20
345.195595
11
570.221681
21
345.293168
0
LINE
8
0
10
570.222000
20
345.294000
11
570.225104
21
345.350436
0
LINE
8
0
10
570.225104
20
345.350436
11
570.229902
21
345.415307
0
LINE
8
0
10
570.229902
20
345.415307
11
570.236111
21
345.487565
0
LINE
8
0
10
570.236111
20
345.487565
11
570.244013
21
345.568791
0
LINE
8
0
10
570.244013
20
345.568791
11
570.253609
21
345.657397
0
LINE
8
0
10
570.253609
20
345.657397
11
570.264616
21
345.754442
0
LINE
8
0
10
570.264616
20
345.754442
11
570.277316
21
345.859400
0
LINE
8
0
10
570.277316
20
345.859400
11
570.291427
21
345.972269
0
LINE
8
0
10
570.291427
20
345.972269
11
570.306102
21
346.085138
0
LINE
8
0
10
570.306102
20
346.085138
11
570.319931
21
346.189569
0
LINE
8
0
10
570.319931
20
346.189569
11
570.333760
21
346.285034
0
LINE
8
0
10
570.333760
20
346.285034
11
570.346460
21
346.372587
0
LINE
8
0
10
570.346460
20
346.372587
11
570.358031
21
346.451172
0
LINE
8
0
10
570.358031
20
346.451172
11
570.369602
21
346.521321
0
LINE
8
0
10
570.369602
20
346.521321
11
570.380044
21
346.583029
0
LINE
8
0
10
570.380044
20
346.583029
11
570.389922
21
346.636298
0
LINE
8
0
10
570.390000
20
346.636000
11
570.404675
21
346.714588
0
LINE
8
0
10
570.404675
20
346.714588
11
570.415682
21
346.779987
0
LINE
8
0
10
570.415682
20
346.779987
11
570.421891
21
346.832204
0
LINE
8
0
10
570.421891
20
346.832204
11
570.424713
21
346.870704
0
LINE
8
0
10
571.517000
20
347.294000
11
571.638299
21
347.289795
0
LINE
8
0
10
571.638299
20
347.289795
11
571.753276
21
347.277123
0
LINE
8
0
10
571.753276
20
347.277123
11
571.862468
21
347.255505
0
LINE
8
0
10
571.862468
20
347.255505
11
571.965310
21
347.225443
0
LINE
8
0
10
571.965310
20
347.225443
11
572.062366
21
347.186939
0
LINE
8
0
10
572.062366
20
347.186939
11
572.153072
21
347.140000
0
LINE
8
0
10
572.153072
20
347.140000
11
572.237457
21
347.084092
0
LINE
8
0
10
572.237457
20
347.084092
11
572.316056
21
347.019745
0
LINE
8
0
10
572.316056
20
347.019745
11
572.386724
21
346.948543
0
LINE
8
0
10
572.386724
20
346.948543
11
572.447910
21
346.871539
0
LINE
8
0
10
572.447910
20
346.871539
11
572.500121
21
346.789788
0
LINE
8
0
10
572.500121
20
346.789788
11
572.542313
21
346.702237
0
LINE
8
0
10
572.542313
20
346.702237
11
572.575530
21
346.608881
0
LINE
8
0
10
572.575530
20
346.608881
11
572.598673
21
346.510253
0
LINE
8
0
10
572.598673
20
346.510253
11
572.612784
21
346.406350
0
LINE
8
0
10
572.612784
20
346.406350
11
572.617581
21
346.297172
0
LINE
8
0
10
587.451000
20
372.387000
11
583.184000
21
372.387000
0
LINE
8
0
10
587.451000
20
372.067000
11
587.451000
21
372.387000
0
LINE
8
0
10
583.184000
20
372.067000
11
587.451000
21
372.067000
0
LINE
8
0
10
583.184000
20
372.387000
11
583.184000
21
372.067000
0
LINE
8
0
10
571.607000
20
310.926000
11
575.301290
21
313.059320
0
LINE
8
0
10
571.446000
20
311.203000
11
571.606867
21
310.925858
0
LINE
8
0
10
575.143000
20
313.336000
11
571.445890
21
311.202680
0
LINE
8
0
10
575.301000
20
313.059000
11
575.142956
21
313.336142
0
LINE
8
0
10
583.045000
20
341.766000
11
580.911400
21
338.070870
0
LINE
8
0
10
581.188000
20
337.911000
11
583.321600
21
341.606130
0
LINE
8
0
10
583.322000
20
341.606000
11
583.045422
21
341.766020
0
LINE
8
0
10
580.912000
20
338.071000
11
581.188578
21
337.910980
0
LINE
8
0
10
571.446000
20
319.459000
11
575.143110
21
317.325680
0
LINE
8
0
10
571.607000
20
319.736000
11
571.446133
21
319.458858
0
LINE
8
0
10
575.301000
20
317.603000
11
571.606710
21
319.736320
0
LINE
8
0
10
575.143000
20
317.326000
11
575.301044
21
317.603142
0
LINE
8
0
10
574.065000
20
385.672000
11
568.251000
21
385.672000
0
LINE
8
0
10
568.251000
20
385.139000
11
574.065000
21
385.139000
0
LINE
8
0
10
568.251000
20
385.672000
11
568.251000
21
385.139000
0
LINE
8
0
10
574.065000
20
385.139000
11
574.065000
21
385.672000
0
LINE
8
0
10
578.651000
20
324.931000
11
578.651000
21
319.597000
0
LINE
8
0
10
579.184000
20
324.931000
11
578.651000
21
324.931000
0
LINE
8
0
10
579.184000
20
319.597000
11
579.184000
21
324.931000
0
LINE
8
0
10
578.651000
20
319.597000
11
579.184000
21
319.597000
0
LINE
8
0
10
589.584000
20
255.006000
11
578.329000
21
255.006000
0
LINE
8
0
10
578.329000
20
254.472000
11
589.584000
21
254.472000
0
LINE
8
0
10
578.329000
20
255.006000
11
578.329000
21
254.472000
0
LINE
8
0
10
589.584000
20
254.472000
11
589.584000
21
255.006000
0
LINE
8
0
10
574.065000
20
255.006000
11
568.251000
21
255.006000
0
LINE
8
0
10
574.065000
20
254.472000
11
574.065000
21
255.006000
0
LINE
8
0
10
568.251000
20
255.006000
11
568.251000
21
254.472000
0
LINE
8
0
10
568.251000
20
254.472000
11
574.065000
21
254.472000
0
LINE
8
0
10
582.532000
20
355.533000
11
582.692867
21
355.255858
0
LINE
8
0
10
586.226000
20
357.667000
11
582.531710
21
355.533680
0
LINE
8
0
10
586.387000
20
357.390000
11
586.226133
21
357.667142
0
LINE
8
0
10
582.692000
20
355.256000
11
586.386290
21
357.389320
0
LINE
8
0
10
574.347000
20
344.814000
11
577.014000
21
349.432850
0
LINE
8
0
10
573.887000
20
345.081000
11
574.347022
21
344.814300
0
LINE
8
0
10
576.551000
20
349.700000
11
573.886820
21
345.081150
0
LINE
8
0
10
577.014000
20
349.433000
11
576.551156
21
349.699700
0
LINE
8
0
10
574.347000
20
363.780000
11
577.014000
21
368.398850
0
LINE
8
0
10
573.887000
20
364.046000
11
574.347022
21
363.779300
0
LINE
8
0
10
576.551000
20
368.665000
11
573.886820
21
364.046150
0
LINE
8
0
10
577.014000
20
368.398000
11
576.551156
21
368.664700
0
LINE
8
0
10
571.446000
20
368.099000
11
571.606867
21
367.821858
0
LINE
8
0
10
575.143000
20
370.232000
11
571.445890
21
368.098680
0
LINE
8
0
10
575.301000
20
369.955000
11
575.142956
21
370.232142
0
LINE
8
0
10
571.607000
20
367.822000
11
575.301290
21
369.955320
0
LINE
8
0
10
570.385000
20
372.067000
11
574.649000
21
372.067000
0
LINE
8
0
10
570.385000
20
372.387000
11
570.385000
21
372.067000
0
LINE
8
0
10
574.649000
20
372.067000
11
574.649000
21
372.387000
0
LINE
8
0
10
574.649000
20
372.387000
11
570.385000
21
372.387000
0
LINE
8
0
10
571.446000
20
376.355000
11
575.143110
21
374.221680
0
LINE
8
0
10
571.607000
20
376.632000
11
571.446133
21
376.354858
0
LINE
8
0
10
575.301000
20
374.499000
11
571.606710
21
376.632320
0
LINE
8
0
10
575.143000
20
374.222000
11
575.301044
21
374.499142
0
LINE
8
0
10
574.511000
20
379.537000
11
576.644600
21
375.841870
0
LINE
8
0
10
574.787000
20
379.697000
11
574.510422
21
379.536980
0
LINE
8
0
10
576.921000
20
376.002000
11
574.787400
21
379.697130
0
LINE
8
0
10
576.644000
20
375.842000
11
576.920578
21
376.002020
0
LINE
8
0
10
579.184000
20
381.827000
11
578.651000
21
381.827000
0
LINE
8
0
10
579.184000
20
376.493000
11
579.184000
21
381.827000
0
LINE
8
0
10
578.651000
20
376.493000
11
579.184000
21
376.493000
0
LINE
8
0
10
578.651000
20
381.827000
11
578.651000
21
376.493000
0
LINE
8
0
10
583.322000
20
379.537000
11
583.045422
21
379.697020
0
LINE
8
0
10
581.188000
20
375.842000
11
583.321600
21
379.537130
0
LINE
8
0
10
580.912000
20
376.002000
11
581.188578
21
375.841980
0
LINE
8
0
10
583.045000
20
379.697000
11
580.911400
21
376.001870
0
LINE
8
0
10
578.329000
20
385.139000
11
589.584000
21
385.139000
0
LINE
8
0
10
578.329000
20
385.672000
11
578.329000
21
385.139000
0
LINE
8
0
10
589.584000
20
385.672000
11
578.329000
21
385.672000
0
LINE
8
0
10
589.584000
20
385.139000
11
589.584000
21
385.672000
0
LINE
8
0
10
570.385000
20
334.136000
11
574.649000
21
334.136000
0
LINE
8
0
10
570.385000
20
334.456000
11
570.385000
21
334.136000
0
LINE
8
0
10
574.649000
20
334.456000
11
570.385000
21
334.456000
0
LINE
8
0
10
574.649000
20
334.136000
11
574.649000
21
334.456000
0
LINE
8
0
10
587.451000
20
353.421000
11
583.184000
21
353.421000
0
LINE
8
0
10
587.451000
20
353.101000
11
587.451000
21
353.421000
0
LINE
8
0
10
583.184000
20
353.101000
11
587.451000
21
353.101000
0
LINE
8
0
10
583.184000
20
353.421000
11
583.184000
21
353.101000
0
LINE
8
0
10
570.385000
20
353.101000
11
574.649000
21
353.101000
0
LINE
8
0
10
570.385000
20
353.421000
11
570.385000
21
353.101000
0
LINE
8
0
10
574.649000
20
353.421000
11
570.385000
21
353.421000
0
LINE
8
0
10
574.649000
20
353.101000
11
574.649000
21
353.421000
0
LINE
8
0
10
583.045000
20
322.801000
11
580.911400
21
319.105870
0
LINE
8
0
10
583.322000
20
322.641000
11
583.045422
21
322.801020
0
LINE
8
0
10
581.188000
20
318.946000
11
583.321600
21
322.641130
0
LINE
8
0
10
580.912000
20
319.106000
11
581.188578
21
318.945980
0
LINE
8
0
10
586.226000
20
319.736000
11
582.531710
21
317.602680
0
LINE
8
0
10
586.387000
20
319.459000
11
586.226133
21
319.736142
0
LINE
8
0
10
582.692000
20
317.326000
11
586.386290
21
319.459320
0
LINE
8
0
10
582.532000
20
317.603000
11
582.692867
21
317.325858
0
LINE
8
0
10
574.347000
20
306.884000
11
577.014000
21
311.502850
0
LINE
8
0
10
573.887000
20
307.150000
11
574.347022
21
306.883300
0
LINE
8
0
10
576.551000
20
311.769000
11
573.886820
21
307.150150
0
LINE
8
0
10
577.014000
20
311.502000
11
576.551156
21
311.768700
0
LINE
8
0
10
586.226000
20
338.701000
11
582.531710
21
336.567680
0
LINE
8
0
10
586.387000
20
338.424000
11
586.226133
21
338.701142
0
LINE
8
0
10
582.692000
20
336.291000
11
586.386290
21
338.424320
0
LINE
8
0
10
582.532000
20
336.568000
11
582.692867
21
336.290858
0
LINE
8
0
10
574.347000
20
325.849000
11
577.014000
21
330.467850
0
LINE
8
0
10
573.887000
20
326.116000
11
574.347022
21
325.849300
0
LINE
8
0
10
576.551000
20
330.735000
11
573.886820
21
326.116150
0
LINE
8
0
10
577.014000
20
330.468000
11
576.551156
21
330.734700
0
LINE
8
0
10
571.607000
20
329.891000
11
575.301290
21
332.024320
0
LINE
8
0
10
571.446000
20
330.168000
11
571.606867
21
329.890858
0
LINE
8
0
10
575.143000
20
332.301000
11
571.445890
21
330.167680
0
LINE
8
0
10
575.301000
20
332.024000
11
575.142956
21
332.301142
0
LINE
8
0
10
583.045000
20
360.732000
11
580.911400
21
357.036870
0
LINE
8
0
10
583.322000
20
360.572000
11
583.045422
21
360.732020
0
LINE
8
0
10
581.188000
20
356.876000
11
583.321600
21
360.571130
0
LINE
8
0
10
580.912000
20
357.036000
11
581.188578
21
356.875980
0
LINE
8
0
10
575.301000
20
336.568000
11
571.606710
21
338.701320
0
LINE
8
0
10
575.143000
20
336.291000
11
575.301044
21
336.568142
0
LINE
8
0
10
571.446000
20
338.424000
11
575.143110
21
336.290680
0
LINE
8
0
10
571.607000
20
338.701000
11
571.446133
21
338.423858
0
LINE
8
0
10
574.511000
20
341.606000
11
576.644600
21
337.910870
0
LINE
8
0
10
574.787000
20
341.766000
11
574.510422
21
341.605980
0
LINE
8
0
10
576.644000
20
337.911000
11
576.920578
21
338.071020
0
LINE
8
0
10
576.921000
20
338.071000
11
574.787400
21
341.766130
0
LINE
8
0
10
571.607000
20
348.856000
11
575.301290
21
350.989320
0
LINE
8
0
10
571.446000
20
349.133000
11
571.606867
21
348.855858
0
LINE
8
0
10
575.143000
20
351.267000
11
571.445890
21
349.133680
0
LINE
8
0
10
575.301000
20
350.990000
11
575.142956
21
351.267142
0
LINE
8
0
10
586.226000
20
376.632000
11
582.531710
21
374.498680
0
LINE
8
0
10
586.387000
20
376.355000
11
586.226133
21
376.632142
0
LINE
8
0
10
582.692000
20
374.222000
11
586.386290
21
376.355320
0
LINE
8
0
10
582.532000
20
374.499000
11
582.692867
21
374.221858
0
LINE
8
0
10
586.387000
20
368.099000
11
582.692710
21
370.232320
0
LINE
8
0
10
586.226000
20
367.822000
11
586.386867
21
368.099142
0
LINE
8
0
10
582.532000
20
369.955000
11
586.226290
21
367.821680
0
LINE
8
0
10
582.692000
20
370.232000
11
582.531133
21
369.954858
0
LINE
8
0
10
583.948000
20
364.046000
11
581.281000
21
368.664850
0
LINE
8
0
10
583.486000
20
363.780000
11
583.948844
21
364.046700
0
LINE
8
0
10
580.819000
20
368.398000
11
583.486000
21
363.779150
0
LINE
8
0
10
581.281000
20
368.665000
11
580.818156
21
368.398300
0
LINE
8
0
10
578.651000
20
338.563000
11
579.184000
21
338.563000
0
LINE
8
0
10
579.184000
20
343.896000
11
578.651000
21
343.896000
0
LINE
8
0
10
579.184000
20
338.563000
11
579.184000
21
343.896000
0
LINE
8
0
10
578.651000
20
343.896000
11
578.651000
21
338.563000
0
LINE
8
0
10
579.184000
20
362.862000
11
578.651000
21
362.862000
0
LINE
8
0
10
579.184000
20
357.528000
11
579.184000
21
362.862000
0
LINE
8
0
10
578.651000
20
362.862000
11
578.651000
21
357.528000
0
LINE
8
0
10
578.651000
20
357.528000
11
579.184000
21
357.528000
0
LINE
8
0
10
574.787000
20
360.732000
11
574.510422
21
360.571980
0
LINE
8
0
10
576.921000
20
357.036000
11
574.787400
21
360.731130
0
LINE
8
0
10
576.644000
20
356.876000
11
576.920578
21
357.036020
0
LINE
8
0
10
574.511000
20
360.572000
11
576.644600
21
356.876870
0
LINE
8
0
10
582.532000
20
313.059000
11
586.226290
21
310.925680
0
LINE
8
0
10
582.692000
20
313.336000
11
582.531133
21
313.058858
0
LINE
8
0
10
586.387000
20
311.203000
11
582.692710
21
313.336320
0
LINE
8
0
10
586.226000
20
310.926000
11
586.386867
21
311.203142
0
LINE
8
0
10
583.486000
20
306.884000
11
583.948844
21
307.150700
0
LINE
8
0
10
580.819000
20
311.502000
11
583.486000
21
306.883150
0
LINE
8
0
10
583.948000
20
307.150000
11
581.281000
21
311.768850
0
LINE
8
0
10
581.281000
20
311.769000
11
580.818156
21
311.502300
0
LINE
8
0
10
587.451000
20
315.171000
11
587.451000
21
315.491000
0
LINE
8
0
10
583.184000
20
315.491000
11
583.184000
21
315.171000
0
LINE
8
0
10
587.451000
20
315.491000
11
583.184000
21
315.491000
0
LINE
8
0
10
583.184000
20
315.171000
11
587.451000
21
315.171000
0
LINE
8
0
10
574.511000
20
322.641000
11
576.644600
21
318.945870
0
LINE
8
0
10
574.787000
20
322.801000
11
574.510422
21
322.640980
0
LINE
8
0
10
576.921000
20
319.106000
11
574.787400
21
322.801130
0
LINE
8
0
10
576.644000
20
318.946000
11
576.920578
21
319.106020
0
LINE
8
0
10
586.387000
20
330.168000
11
582.692710
21
332.301320
0
LINE
8
0
10
586.226000
20
329.891000
11
586.386867
21
330.168142
0
LINE
8
0
10
582.532000
20
332.024000
11
586.226290
21
329.890680
0
LINE
8
0
10
582.692000
20
332.301000
11
582.531133
21
332.023858
0
LINE
8
0
10
583.486000
20
325.849000
11
583.948844
21
326.115700
0
LINE
8
0
10
580.819000
20
330.468000
11
583.486000
21
325.849150
0
LINE
8
0
10
583.948000
20
326.116000
11
581.281000
21
330.734850
0
LINE
8
0
10
581.281000
20
330.735000
11
580.818156
21
330.468300
0
LINE
8
0
10
569.851000
20
298.008000
11
572.411000
21
298.008000
0
LINE
8
0
10
569.851000
20
300.142000
11
569.851000
21
298.008000
0
LINE
8
0
10
572.411000
20
300.142000
11
569.851000
21
300.142000
0
LINE
8
0
10
574.011000
20
299.075000
11
572.410800
21
301.208320
0
LINE
8
0
10
572.411000
20
296.942000
11
574.011200
21
299.075320
0
LINE
8
0
10
572.411000
20
298.008000
11
572.411000
21
296.942000
0
LINE
8
0
10
572.411000
20
301.208000
11
572.411000
21
300.142000
0
LINE
8
0
10
586.387000
20
349.133000
11
582.692710
21
351.266320
0
LINE
8
0
10
586.226000
20
348.856000
11
586.386867
21
349.133142
0
LINE
8
0
10
582.532000
20
350.990000
11
586.226290
21
348.856680
0
LINE
8
0
10
582.692000
20
351.267000
11
582.531133
21
350.989858
0
LINE
8
0
10
583.486000
20
344.814000
11
583.948844
21
345.080700
0
LINE
8
0
10
580.819000
20
349.433000
11
583.486000
21
344.814150
0
LINE
8
0
10
583.948000
20
345.081000
11
581.281000
21
349.699850
0
LINE
8
0
10
581.281000
20
349.700000
11
580.818156
21
349.433300
0
LINE
8
0
10
571.446000
20
357.390000
11
575.143110
21
355.256680
0
LINE
8
0
10
571.607000
20
357.667000
11
571.446133
21
357.389858
0
LINE
8
0
10
575.143000
20
355.256000
11
575.301044
21
355.533142
0
LINE
8
0
10
575.301000
20
355.533000
11
571.606710
21
357.666320
0
LINE
8
0
10
587.451000
20
334.456000
11
583.184000
21
334.456000
0
LINE
8
0
10
583.184000
20
334.136000
11
587.451000
21
334.136000
0
LINE
8
0
10
587.451000
20
334.136000
11
587.451000
21
334.456000
0
LINE
8
0
10
583.184000
20
334.456000
11
583.184000
21
334.136000
0
LINE
8
0
10
570.385000
20
315.171000
11
574.649000
21
315.171000
0
LINE
8
0
10
570.385000
20
315.491000
11
570.385000
21
315.171000
0
LINE
8
0
10
574.649000
20
315.491000
11
570.385000
21
315.491000
0
LINE
8
0
10
574.649000
20
315.171000
11
574.649000
21
315.491000
0
LINE
8
0
10
586.920000
20
265.496000
11
586.920000
21
264.430000
0
LINE
8
0
10
584.360000
20
265.496000
11
586.920000
21
265.496000
0
LINE
8
0
10
584.360000
20
267.630000
11
584.360000
21
265.496000
0
LINE
8
0
10
586.920000
20
267.630000
11
584.360000
21
267.630000
0
LINE
8
0
10
586.920000
20
268.696000
11
586.920000
21
267.630000
0
LINE
8
0
10
588.520000
20
266.563000
11
586.919800
21
268.696320
0
LINE
8
0
10
586.920000
20
264.430000
11
588.520200
21
266.563320
0
LINE
8
0
10
587.242000
20
284.355000
11
588.122533
21
285.528200
0
LINE
8
0
10
588.122000
20
285.528000
11
587.241467
21
286.701480
0
LINE
8
0
10
584.682000
20
286.275000
11
584.682000
21
284.781000
0
LINE
8
0
10
588.520000
20
285.528000
11
586.919800
21
287.661320
0
LINE
8
0
10
587.242000
20
286.275000
11
584.682000
21
286.275000
0
LINE
8
0
10
586.920000
20
284.462000
11
586.920000
21
283.395000
0
LINE
8
0
10
584.360000
20
284.462000
11
586.920000
21
284.462000
0
LINE
8
0
10
584.682000
20
284.781000
11
587.242000
21
284.781000
0
LINE
8
0
10
584.360000
20
286.595000
11
584.360000
21
284.462000
0
LINE
8
0
10
586.920000
20
286.595000
11
584.360000
21
286.595000
0
LINE
8
0
10
586.920000
20
287.662000
11
586.920000
21
286.595000
0
LINE
8
0
10
586.920000
20
283.395000
11
588.520200
21
285.528320
0
LINE
8
0
10
587.242000
20
286.702000
11
587.242000
21
286.275000
0
LINE
8
0
10
587.242000
20
284.781000
11
587.242000
21
284.355000
 0 
ENDSEC
 0 
EOF