G04 #@! TF.GenerationSoftware,KiCad,Pcbnew,(5.1.10)-1*
G04 #@! TF.CreationDate,2021-09-05T05:59:59+02:00*
G04 #@! TF.ProjectId,Blindplatte 1TE Front,426c696e-6470-46c6-9174-746520315445,rev?*
G04 #@! TF.SameCoordinates,Original*
G04 #@! TF.FileFunction,Copper,L1,Top*
G04 #@! TF.FilePolarity,Positive*
%FSLAX46Y46*%
G04 Gerber Fmt 4.6, Leading zero omitted, Abs format (unit mm)*
G04 Created by KiCad (PCBNEW (5.1.10)-1) date 2021-09-05 05:59:59*
%MOMM*%
%LPD*%
G01*
G04 APERTURE LIST*
G04 #@! TA.AperFunction,NonConductor*
%ADD10C,0.254000*%
G04 #@! TD*
G04 #@! TA.AperFunction,NonConductor*
%ADD11C,0.100000*%
G04 #@! TD*
G04 APERTURE END LIST*
D10*
X4340001Y-127840000D02*
X660000Y-127840000D01*
X660000Y-126438041D01*
X660915Y-126440250D01*
X878149Y-126765364D01*
X1154636Y-127041851D01*
X1479750Y-127259085D01*
X1840997Y-127408718D01*
X2224495Y-127485000D01*
X2615505Y-127485000D01*
X2999003Y-127408718D01*
X3360250Y-127259085D01*
X3685364Y-127041851D01*
X3961851Y-126765364D01*
X4179085Y-126440250D01*
X4328718Y-126079003D01*
X4340001Y-126022279D01*
X4340001Y-127840000D01*
G04 #@! TA.AperFunction,NonConductor*
D11*
G36*
X4340001Y-127840000D02*
G01*
X660000Y-127840000D01*
X660000Y-126438041D01*
X660915Y-126440250D01*
X878149Y-126765364D01*
X1154636Y-127041851D01*
X1479750Y-127259085D01*
X1840997Y-127408718D01*
X2224495Y-127485000D01*
X2615505Y-127485000D01*
X2999003Y-127408718D01*
X3360250Y-127259085D01*
X3685364Y-127041851D01*
X3961851Y-126765364D01*
X4179085Y-126440250D01*
X4328718Y-126079003D01*
X4340001Y-126022279D01*
X4340001Y-127840000D01*
G37*
G04 #@! TD.AperFunction*
D10*
X4340001Y-124977721D02*
X4328718Y-124920997D01*
X4179085Y-124559750D01*
X3961851Y-124234636D01*
X3685364Y-123958149D01*
X3360250Y-123740915D01*
X2999003Y-123591282D01*
X2615505Y-123515000D01*
X2224495Y-123515000D01*
X1840997Y-123591282D01*
X1479750Y-123740915D01*
X1154636Y-123958149D01*
X878149Y-124234636D01*
X660915Y-124559750D01*
X660000Y-124561959D01*
X660000Y-3938041D01*
X660915Y-3940250D01*
X878149Y-4265364D01*
X1154636Y-4541851D01*
X1479750Y-4759085D01*
X1840997Y-4908718D01*
X2224495Y-4985000D01*
X2615505Y-4985000D01*
X2999003Y-4908718D01*
X3360250Y-4759085D01*
X3685364Y-4541851D01*
X3961851Y-4265364D01*
X4179085Y-3940250D01*
X4328718Y-3579003D01*
X4340000Y-3522284D01*
X4340001Y-124977721D01*
G04 #@! TA.AperFunction,NonConductor*
D11*
G36*
X4340001Y-124977721D02*
G01*
X4328718Y-124920997D01*
X4179085Y-124559750D01*
X3961851Y-124234636D01*
X3685364Y-123958149D01*
X3360250Y-123740915D01*
X2999003Y-123591282D01*
X2615505Y-123515000D01*
X2224495Y-123515000D01*
X1840997Y-123591282D01*
X1479750Y-123740915D01*
X1154636Y-123958149D01*
X878149Y-124234636D01*
X660915Y-124559750D01*
X660000Y-124561959D01*
X660000Y-3938041D01*
X660915Y-3940250D01*
X878149Y-4265364D01*
X1154636Y-4541851D01*
X1479750Y-4759085D01*
X1840997Y-4908718D01*
X2224495Y-4985000D01*
X2615505Y-4985000D01*
X2999003Y-4908718D01*
X3360250Y-4759085D01*
X3685364Y-4541851D01*
X3961851Y-4265364D01*
X4179085Y-3940250D01*
X4328718Y-3579003D01*
X4340000Y-3522284D01*
X4340001Y-124977721D01*
G37*
G04 #@! TD.AperFunction*
D10*
X4340000Y-2477716D02*
X4328718Y-2420997D01*
X4179085Y-2059750D01*
X3961851Y-1734636D01*
X3685364Y-1458149D01*
X3360250Y-1240915D01*
X2999003Y-1091282D01*
X2615505Y-1015000D01*
X2224495Y-1015000D01*
X1840997Y-1091282D01*
X1479750Y-1240915D01*
X1154636Y-1458149D01*
X878149Y-1734636D01*
X660915Y-2059750D01*
X660000Y-2061959D01*
X660000Y-660000D01*
X4340000Y-660000D01*
X4340000Y-2477716D01*
G04 #@! TA.AperFunction,NonConductor*
D11*
G36*
X4340000Y-2477716D02*
G01*
X4328718Y-2420997D01*
X4179085Y-2059750D01*
X3961851Y-1734636D01*
X3685364Y-1458149D01*
X3360250Y-1240915D01*
X2999003Y-1091282D01*
X2615505Y-1015000D01*
X2224495Y-1015000D01*
X1840997Y-1091282D01*
X1479750Y-1240915D01*
X1154636Y-1458149D01*
X878149Y-1734636D01*
X660915Y-2059750D01*
X660000Y-2061959D01*
X660000Y-660000D01*
X4340000Y-660000D01*
X4340000Y-2477716D01*
G37*
G04 #@! TD.AperFunction*
M02*
