M48
; DRILL file {KiCad (5.1.9)-1} date 03/02/21 09:31:57
; FORMAT={-:-/ absolute / inch / decimal}
; #@! TF.CreationDate,2021-03-02T09:31:57+01:00
; #@! TF.GenerationSoftware,Kicad,Pcbnew,(5.1.9)-1
; #@! TF.FileFunction,Plated,1,2,PTH
FMAT,2
INCH
T1C0.0157
T2C0.0197
T3C0.0315
T4C0.0394
%
G90
G05
T1
X0.575Y-2.525
X0.575Y-3.55
X0.6Y-2.0
X0.6Y-2.325
X0.625Y-2.775
X0.625Y-3.8
X0.675Y-3.375
X0.675Y-3.55
X0.725Y-2.225
X0.725Y-2.475
X0.725Y-2.825
X0.725Y-3.2
X0.8Y-1.4
X0.9Y-0.8
X0.9Y-2.025
X0.9Y-2.225
X0.95Y-1.925
X0.95Y-2.775
X1.0Y-2.025
X1.0Y-2.225
X1.0Y-2.6
X1.1Y-2.8
X1.175Y-2.525
T3
X0.15Y-0.8
X0.15Y-1.4
X0.15Y-2.0
X0.15Y-2.6
X0.15Y-3.2
X0.15Y-3.8
X0.45Y-0.8
X0.45Y-1.4
X0.45Y-2.0
X0.45Y-2.6
X0.45Y-3.2
X0.45Y-3.8
X0.675Y-1.9281
X0.675Y-2.125
X0.675Y-2.7
X0.7537Y-2.7
X0.8Y-1.825
X0.8Y-1.925
X0.8Y-2.025
X0.8Y-2.125
X0.8Y-2.225
X0.8Y-2.325
X0.8Y-2.425
X1.1Y-1.825
X1.1Y-1.925
X1.1Y-2.025
X1.1Y-2.125
X1.1Y-2.225
X1.1Y-2.325
X1.1Y-2.425
X1.1713Y-2.65
X1.225Y-1.925
X1.225Y-2.1219
X1.25Y-2.65
T4
X0.8Y-3.075
X0.8Y-3.175
X0.8Y-3.275
X0.8Y-3.375
X0.8Y-3.475
X0.8Y-3.575
X0.8Y-3.675
X0.8Y-3.775
X0.9Y-3.075
X0.9Y-3.175
X0.9Y-3.275
X0.9Y-3.375
X0.9Y-3.475
X0.9Y-3.575
X0.9Y-3.675
X0.9Y-3.775
T2
G00X0.2126Y-0.689
M15
G01X0.252Y-0.689
M16
G05
G00X0.2126Y-1.289
M15
G01X0.252Y-1.289
M16
G05
G00X0.2126Y-1.889
M15
G01X0.252Y-1.889
M16
G05
G00X0.2126Y-2.489
M15
G01X0.252Y-2.489
M16
G05
G00X0.2126Y-3.089
M15
G01X0.252Y-3.089
M16
G05
G00X0.2126Y-3.689
M15
G01X0.252Y-3.689
M16
G05
G00X0.3583Y-0.2953
M15
G01X0.3976Y-0.2953
M16
G05
G00X0.3583Y-0.8953
M15
G01X0.3976Y-0.8953
M16
G05
G00X0.3583Y-1.4953
M15
G01X0.3976Y-1.4953
M16
G05
G00X0.3583Y-2.0953
M15
G01X0.3976Y-2.0953
M16
G05
G00X0.3583Y-2.6953
M15
G01X0.3976Y-2.6953
M16
G05
G00X0.3583Y-3.2953
M15
G01X0.3976Y-3.2953
M16
G05
T3
G00X0.0669Y-0.4862
M15
G01X0.0669Y-0.5138
M16
G05
G00X0.0669Y-1.0862
M15
G01X0.0669Y-1.1138
M16
G05
G00X0.0669Y-1.6862
M15
G01X0.0669Y-1.7138
M16
G05
G00X0.0669Y-2.2862
M15
G01X0.0669Y-2.3138
M16
G05
G00X0.0669Y-2.8862
M15
G01X0.0669Y-2.9138
M16
G05
G00X0.0669Y-3.4862
M15
G01X0.0669Y-3.5138
M16
G05
G00X0.3248Y-0.3976
M15
G01X0.3524Y-0.3976
M16
G05
G00X0.3248Y-0.9976
M15
G01X0.3524Y-0.9976
M16
G05
G00X0.3248Y-1.5976
M15
G01X0.3524Y-1.5976
M16
G05
G00X0.3248Y-2.1976
M15
G01X0.3524Y-2.1976
M16
G05
G00X0.3248Y-2.7976
M15
G01X0.3524Y-2.7976
M16
G05
G00X0.3248Y-3.3976
M15
G01X0.3524Y-3.3976
M16
G05
G00X0.5118Y-0.6476
M15
G01X0.5118Y-0.6752
M16
G05
G00X0.5118Y-1.2476
M15
G01X0.5118Y-1.2752
M16
G05
G00X0.5118Y-1.8476
M15
G01X0.5118Y-1.8752
M16
G05
G00X0.5118Y-2.4476
M15
G01X0.5118Y-2.4752
M16
G05
G00X0.5118Y-3.0476
M15
G01X0.5118Y-3.0752
M16
G05
G00X0.5118Y-3.6476
M15
G01X0.5118Y-3.6752
M16
G05
T0
M30
