G04 #@! TF.GenerationSoftware,KiCad,Pcbnew,(5.1.9)-1*
G04 #@! TF.CreationDate,2021-03-02T09:31:52+01:00*
G04 #@! TF.ProjectId,Buffered Multiple Main,42756666-6572-4656-9420-4d756c746970,rev?*
G04 #@! TF.SameCoordinates,Original*
G04 #@! TF.FileFunction,Copper,L2,Bot*
G04 #@! TF.FilePolarity,Positive*
%FSLAX46Y46*%
G04 Gerber Fmt 4.6, Leading zero omitted, Abs format (unit mm)*
G04 Created by KiCad (PCBNEW (5.1.9)-1) date 2021-03-02 09:31:52*
%MOMM*%
%LPD*%
G01*
G04 APERTURE LIST*
G04 #@! TA.AperFunction,Profile*
%ADD10C,0.050000*%
G04 #@! TD*
G04 #@! TA.AperFunction,ComponentPad*
%ADD11O,2.300000X1.300000*%
G04 #@! TD*
G04 #@! TA.AperFunction,ComponentPad*
%ADD12O,2.300000X1.600000*%
G04 #@! TD*
G04 #@! TA.AperFunction,ComponentPad*
%ADD13O,1.600000X2.300000*%
G04 #@! TD*
G04 #@! TA.AperFunction,ComponentPad*
%ADD14O,1.600000X1.600000*%
G04 #@! TD*
G04 #@! TA.AperFunction,ComponentPad*
%ADD15C,1.600000*%
G04 #@! TD*
G04 #@! TA.AperFunction,ComponentPad*
%ADD16O,2.400000X1.600000*%
G04 #@! TD*
G04 #@! TA.AperFunction,ComponentPad*
%ADD17R,2.400000X1.600000*%
G04 #@! TD*
G04 #@! TA.AperFunction,ComponentPad*
%ADD18C,1.700000*%
G04 #@! TD*
G04 #@! TA.AperFunction,ComponentPad*
%ADD19R,1.600000X1.600000*%
G04 #@! TD*
G04 #@! TA.AperFunction,ViaPad*
%ADD20C,0.800000*%
G04 #@! TD*
G04 #@! TA.AperFunction,Conductor*
%ADD21C,0.250000*%
G04 #@! TD*
G04 #@! TA.AperFunction,Conductor*
%ADD22C,0.254000*%
G04 #@! TD*
G04 #@! TA.AperFunction,Conductor*
%ADD23C,0.100000*%
G04 #@! TD*
G04 APERTURE END LIST*
D10*
X24130000Y-72390000D02*
X24130000Y-101600000D01*
X34290000Y-72390000D02*
X24130000Y-72390000D01*
X0Y-101600000D02*
X0Y0D01*
X24130000Y-101600000D02*
X0Y-101600000D01*
X34290000Y0D02*
X34290000Y-72390000D01*
X0Y0D02*
X34290000Y0D01*
D11*
X5900000Y-63220000D03*
X9600000Y-53220000D03*
D12*
X8600000Y-55820000D03*
D13*
X13000000Y-62520000D03*
X1700000Y-58420000D03*
D11*
X5900000Y-93700000D03*
X9600000Y-83700000D03*
D12*
X8600000Y-86300000D03*
D13*
X13000000Y-93000000D03*
X1700000Y-88900000D03*
D11*
X5900000Y-78460000D03*
X9600000Y-68460000D03*
D12*
X8600000Y-71060000D03*
D13*
X13000000Y-77760000D03*
X1700000Y-73660000D03*
D11*
X5900000Y-47980000D03*
X9600000Y-37980000D03*
D12*
X8600000Y-40580000D03*
D13*
X13000000Y-47280000D03*
X1700000Y-43180000D03*
D11*
X5900000Y-32740000D03*
X9600000Y-22740000D03*
D12*
X8600000Y-25340000D03*
D13*
X13000000Y-32040000D03*
X1700000Y-27940000D03*
D11*
X5900000Y-17500000D03*
X9600000Y-7500000D03*
D12*
X8600000Y-10100000D03*
D13*
X13000000Y-16800000D03*
X1700000Y-12700000D03*
D14*
X3810000Y-66040000D03*
D15*
X11430000Y-66040000D03*
D14*
X11430000Y-35560000D03*
D15*
X3810000Y-35560000D03*
D16*
X27940000Y-46355000D03*
X20320000Y-61595000D03*
X27940000Y-48895000D03*
X20320000Y-59055000D03*
X27940000Y-51435000D03*
X20320000Y-56515000D03*
X27940000Y-53975000D03*
X20320000Y-53975000D03*
X27940000Y-56515000D03*
X20320000Y-51435000D03*
X27940000Y-59055000D03*
X20320000Y-48895000D03*
X27940000Y-61595000D03*
D17*
X20320000Y-46355000D03*
D14*
X11430000Y-96520000D03*
D15*
X3810000Y-96520000D03*
D14*
X11430000Y-81280000D03*
D15*
X3810000Y-81280000D03*
D14*
X11430000Y-50800000D03*
D15*
X3810000Y-50800000D03*
D14*
X3810000Y-20320000D03*
D15*
X11430000Y-20320000D03*
D18*
X22860000Y-95885000D03*
X22860000Y-93345000D03*
X22860000Y-90805000D03*
X22860000Y-88265000D03*
X22860000Y-85725000D03*
X22860000Y-83185000D03*
X22860000Y-80645000D03*
X22860000Y-78105000D03*
X20320000Y-95885000D03*
X20320000Y-93345000D03*
X20320000Y-90805000D03*
X20320000Y-88265000D03*
X20320000Y-85725000D03*
X20320000Y-83185000D03*
X20320000Y-80645000D03*
G04 #@! TA.AperFunction,ComponentPad*
G36*
G01*
X19470000Y-78705000D02*
X19470000Y-77505000D01*
G75*
G02*
X19720000Y-77255000I250000J0D01*
G01*
X20920000Y-77255000D01*
G75*
G02*
X21170000Y-77505000I0J-250000D01*
G01*
X21170000Y-78705000D01*
G75*
G02*
X20920000Y-78955000I-250000J0D01*
G01*
X19720000Y-78955000D01*
G75*
G02*
X19470000Y-78705000I0J250000D01*
G01*
G37*
G04 #@! TD.AperFunction*
D15*
X31115000Y-53895000D03*
X31115000Y-48895000D03*
X17145000Y-48975000D03*
X17145000Y-53975000D03*
X29750000Y-67310000D03*
D19*
X31750000Y-67310000D03*
D15*
X19145000Y-68580000D03*
D19*
X17145000Y-68580000D03*
D20*
X17145000Y-85725000D03*
X29845000Y-64135000D03*
X14605000Y-64135000D03*
X14605000Y-90170000D03*
X17145000Y-90170000D03*
X22860000Y-51435000D03*
X22860000Y-56515000D03*
X22860000Y-20320000D03*
X18415000Y-56515000D03*
X18415000Y-62865000D03*
X20320000Y-35560000D03*
X15240000Y-59055000D03*
X15240000Y-50800000D03*
X27940000Y-71120000D03*
X18415000Y-71755000D03*
X18415000Y-81280000D03*
X24130000Y-48895000D03*
X24130000Y-70485000D03*
X15875000Y-70485000D03*
X15875000Y-96520000D03*
X25400000Y-51435000D03*
X25400000Y-56515000D03*
X25400000Y-66040000D03*
D21*
X17145000Y-53975000D02*
X17145000Y-67310000D01*
X17145000Y-67310000D02*
X17145000Y-85725000D01*
X20320000Y-85725000D02*
X22860000Y-85725000D01*
X29750000Y-64230000D02*
X29750000Y-67310000D01*
X31115000Y-62865000D02*
X29845000Y-64135000D01*
X31115000Y-53895000D02*
X31115000Y-62865000D01*
X20320000Y-95885000D02*
X22860000Y-95885000D01*
X29845000Y-64135000D02*
X29750000Y-64230000D01*
X14605000Y-64135000D02*
X14605000Y-90170000D01*
X14605000Y-90170000D02*
X14605000Y-90170000D01*
X17145000Y-90170000D02*
X17145000Y-95885000D01*
X17145000Y-95885000D02*
X20320000Y-95885000D01*
X5715000Y-17685000D02*
X5900000Y-17500000D01*
X22860000Y-51435000D02*
X22860000Y-56515000D01*
X8610000Y-17500000D02*
X11430000Y-20320000D01*
X5900000Y-17500000D02*
X8610000Y-17500000D01*
X22860000Y-51435000D02*
X22860000Y-20320000D01*
X22860000Y-20320000D02*
X22860000Y-20320000D01*
X18415000Y-56515000D02*
X18415000Y-62865000D01*
X18415000Y-62865000D02*
X18415000Y-62865000D01*
X3810000Y-35560000D02*
X5080000Y-35560000D01*
X5900000Y-34740000D02*
X5900000Y-32740000D01*
X5080000Y-35560000D02*
X5900000Y-34740000D01*
X3810000Y-50800000D02*
X5080000Y-50800000D01*
X5900000Y-49980000D02*
X5900000Y-47980000D01*
X5080000Y-50800000D02*
X5900000Y-49980000D01*
X3810000Y-81280000D02*
X5080000Y-81280000D01*
X5900000Y-80460000D02*
X5900000Y-78460000D01*
X5080000Y-81280000D02*
X5900000Y-80460000D01*
X3810000Y-96520000D02*
X5080000Y-96520000D01*
X5900000Y-95700000D02*
X5900000Y-93700000D01*
X5080000Y-96520000D02*
X5900000Y-95700000D01*
X20320000Y-48895000D02*
X20320000Y-46355000D01*
X20320000Y-46355000D02*
X20320000Y-35560000D01*
X20320000Y-35560000D02*
X20320000Y-35560000D01*
X20320000Y-61595000D02*
X20320000Y-59055000D01*
X15240000Y-59055000D02*
X15240000Y-50800000D01*
X15240000Y-50800000D02*
X15240000Y-50800000D01*
X27940000Y-61595000D02*
X27940000Y-59055000D01*
X27940000Y-61595000D02*
X27940000Y-71120000D01*
X27940000Y-71120000D02*
X27940000Y-71120000D01*
X18415000Y-71755000D02*
X18415000Y-81280000D01*
X18415000Y-81280000D02*
X18415000Y-81280000D01*
X27940000Y-48895000D02*
X27940000Y-46355000D01*
X24130000Y-48895000D02*
X24130000Y-70485000D01*
X24130000Y-70485000D02*
X24130000Y-70485000D01*
X15875000Y-70485000D02*
X15875000Y-96520000D01*
X15875000Y-96520000D02*
X15875000Y-96520000D01*
X25400000Y-51435000D02*
X25400000Y-56515000D01*
X8610000Y-63220000D02*
X11430000Y-66040000D01*
X5900000Y-63220000D02*
X8610000Y-63220000D01*
X25400000Y-56515000D02*
X25400000Y-66040000D01*
D22*
X33630001Y-71730000D02*
X28777195Y-71730000D01*
X28857205Y-71610256D01*
X28935226Y-71421898D01*
X28975000Y-71221939D01*
X28975000Y-71018061D01*
X28935226Y-70818102D01*
X28857205Y-70629744D01*
X28743937Y-70460226D01*
X28700000Y-70416289D01*
X28700000Y-68289396D01*
X28835241Y-68424637D01*
X29070273Y-68581680D01*
X29331426Y-68689853D01*
X29608665Y-68745000D01*
X29891335Y-68745000D01*
X30168574Y-68689853D01*
X30429727Y-68581680D01*
X30485210Y-68544607D01*
X30498815Y-68561185D01*
X30595506Y-68640537D01*
X30705820Y-68699502D01*
X30825518Y-68735812D01*
X30950000Y-68748072D01*
X31464250Y-68745000D01*
X31623000Y-68586250D01*
X31623000Y-67437000D01*
X31877000Y-67437000D01*
X31877000Y-68586250D01*
X32035750Y-68745000D01*
X32550000Y-68748072D01*
X32674482Y-68735812D01*
X32794180Y-68699502D01*
X32904494Y-68640537D01*
X33001185Y-68561185D01*
X33080537Y-68464494D01*
X33139502Y-68354180D01*
X33175812Y-68234482D01*
X33188072Y-68110000D01*
X33185000Y-67595750D01*
X33026250Y-67437000D01*
X31877000Y-67437000D01*
X31623000Y-67437000D01*
X31603000Y-67437000D01*
X31603000Y-67183000D01*
X31623000Y-67183000D01*
X31623000Y-66033750D01*
X31877000Y-66033750D01*
X31877000Y-67183000D01*
X33026250Y-67183000D01*
X33185000Y-67024250D01*
X33188072Y-66510000D01*
X33175812Y-66385518D01*
X33139502Y-66265820D01*
X33080537Y-66155506D01*
X33001185Y-66058815D01*
X32904494Y-65979463D01*
X32794180Y-65920498D01*
X32674482Y-65884188D01*
X32550000Y-65871928D01*
X32035750Y-65875000D01*
X31877000Y-66033750D01*
X31623000Y-66033750D01*
X31464250Y-65875000D01*
X30950000Y-65871928D01*
X30825518Y-65884188D01*
X30705820Y-65920498D01*
X30595506Y-65979463D01*
X30510000Y-66049636D01*
X30510000Y-64933711D01*
X30648937Y-64794774D01*
X30762205Y-64625256D01*
X30840226Y-64436898D01*
X30880000Y-64236939D01*
X30880000Y-64174801D01*
X31626003Y-63428799D01*
X31655001Y-63405001D01*
X31749974Y-63289276D01*
X31820546Y-63157247D01*
X31864003Y-63013986D01*
X31875000Y-62902333D01*
X31875000Y-62902324D01*
X31878676Y-62865001D01*
X31875000Y-62827678D01*
X31875000Y-55113043D01*
X32029759Y-55009637D01*
X32229637Y-54809759D01*
X32386680Y-54574727D01*
X32494853Y-54313574D01*
X32550000Y-54036335D01*
X32550000Y-53753665D01*
X32494853Y-53476426D01*
X32386680Y-53215273D01*
X32229637Y-52980241D01*
X32029759Y-52780363D01*
X31794727Y-52623320D01*
X31533574Y-52515147D01*
X31256335Y-52460000D01*
X30973665Y-52460000D01*
X30696426Y-52515147D01*
X30435273Y-52623320D01*
X30200241Y-52780363D01*
X30000363Y-52980241D01*
X29843320Y-53215273D01*
X29735147Y-53476426D01*
X29716606Y-53569639D01*
X29672182Y-53423192D01*
X29538932Y-53173899D01*
X29359608Y-52955392D01*
X29141101Y-52776068D01*
X29008142Y-52705000D01*
X29141101Y-52633932D01*
X29359608Y-52454608D01*
X29538932Y-52236101D01*
X29672182Y-51986808D01*
X29754236Y-51716309D01*
X29781943Y-51435000D01*
X29754236Y-51153691D01*
X29672182Y-50883192D01*
X29538932Y-50633899D01*
X29359608Y-50415392D01*
X29141101Y-50236068D01*
X29008142Y-50165000D01*
X29141101Y-50093932D01*
X29359608Y-49914608D01*
X29381689Y-49887702D01*
X30301903Y-49887702D01*
X30373486Y-50131671D01*
X30628996Y-50252571D01*
X30903184Y-50321300D01*
X31185512Y-50335217D01*
X31465130Y-50293787D01*
X31731292Y-50198603D01*
X31856514Y-50131671D01*
X31928097Y-49887702D01*
X31115000Y-49074605D01*
X30301903Y-49887702D01*
X29381689Y-49887702D01*
X29538932Y-49696101D01*
X29672182Y-49446808D01*
X29725490Y-49271072D01*
X29811397Y-49511292D01*
X29878329Y-49636514D01*
X30122298Y-49708097D01*
X30935395Y-48895000D01*
X31294605Y-48895000D01*
X32107702Y-49708097D01*
X32351671Y-49636514D01*
X32472571Y-49381004D01*
X32541300Y-49106816D01*
X32555217Y-48824488D01*
X32513787Y-48544870D01*
X32418603Y-48278708D01*
X32351671Y-48153486D01*
X32107702Y-48081903D01*
X31294605Y-48895000D01*
X30935395Y-48895000D01*
X30122298Y-48081903D01*
X29878329Y-48153486D01*
X29757429Y-48408996D01*
X29727890Y-48526839D01*
X29672182Y-48343192D01*
X29538932Y-48093899D01*
X29381690Y-47902298D01*
X30301903Y-47902298D01*
X31115000Y-48715395D01*
X31928097Y-47902298D01*
X31856514Y-47658329D01*
X31601004Y-47537429D01*
X31326816Y-47468700D01*
X31044488Y-47454783D01*
X30764870Y-47496213D01*
X30498708Y-47591397D01*
X30373486Y-47658329D01*
X30301903Y-47902298D01*
X29381690Y-47902298D01*
X29359608Y-47875392D01*
X29141101Y-47696068D01*
X29008142Y-47625000D01*
X29141101Y-47553932D01*
X29359608Y-47374608D01*
X29538932Y-47156101D01*
X29672182Y-46906808D01*
X29754236Y-46636309D01*
X29781943Y-46355000D01*
X29754236Y-46073691D01*
X29672182Y-45803192D01*
X29538932Y-45553899D01*
X29359608Y-45335392D01*
X29141101Y-45156068D01*
X28891808Y-45022818D01*
X28621309Y-44940764D01*
X28410492Y-44920000D01*
X27469508Y-44920000D01*
X27258691Y-44940764D01*
X26988192Y-45022818D01*
X26738899Y-45156068D01*
X26520392Y-45335392D01*
X26341068Y-45553899D01*
X26207818Y-45803192D01*
X26125764Y-46073691D01*
X26098057Y-46355000D01*
X26125764Y-46636309D01*
X26207818Y-46906808D01*
X26341068Y-47156101D01*
X26520392Y-47374608D01*
X26738899Y-47553932D01*
X26871858Y-47625000D01*
X26738899Y-47696068D01*
X26520392Y-47875392D01*
X26341068Y-48093899D01*
X26207818Y-48343192D01*
X26125764Y-48613691D01*
X26098057Y-48895000D01*
X26125764Y-49176309D01*
X26207818Y-49446808D01*
X26341068Y-49696101D01*
X26520392Y-49914608D01*
X26738899Y-50093932D01*
X26871858Y-50165000D01*
X26738899Y-50236068D01*
X26520392Y-50415392D01*
X26341068Y-50633899D01*
X26238155Y-50826436D01*
X26203937Y-50775226D01*
X26059774Y-50631063D01*
X25890256Y-50517795D01*
X25701898Y-50439774D01*
X25501939Y-50400000D01*
X25298061Y-50400000D01*
X25098102Y-50439774D01*
X24909744Y-50517795D01*
X24890000Y-50530987D01*
X24890000Y-49598711D01*
X24933937Y-49554774D01*
X25047205Y-49385256D01*
X25125226Y-49196898D01*
X25165000Y-48996939D01*
X25165000Y-48793061D01*
X25125226Y-48593102D01*
X25047205Y-48404744D01*
X24933937Y-48235226D01*
X24789774Y-48091063D01*
X24620256Y-47977795D01*
X24431898Y-47899774D01*
X24231939Y-47860000D01*
X24028061Y-47860000D01*
X23828102Y-47899774D01*
X23639744Y-47977795D01*
X23620000Y-47990987D01*
X23620000Y-21023711D01*
X23663937Y-20979774D01*
X23777205Y-20810256D01*
X23855226Y-20621898D01*
X23895000Y-20421939D01*
X23895000Y-20218061D01*
X23855226Y-20018102D01*
X23777205Y-19829744D01*
X23663937Y-19660226D01*
X23519774Y-19516063D01*
X23350256Y-19402795D01*
X23161898Y-19324774D01*
X22961939Y-19285000D01*
X22758061Y-19285000D01*
X22558102Y-19324774D01*
X22369744Y-19402795D01*
X22200226Y-19516063D01*
X22056063Y-19660226D01*
X21942795Y-19829744D01*
X21864774Y-20018102D01*
X21825000Y-20218061D01*
X21825000Y-20421939D01*
X21864774Y-20621898D01*
X21942795Y-20810256D01*
X22056063Y-20979774D01*
X22100001Y-21023712D01*
X22100000Y-45293044D01*
X22050537Y-45200506D01*
X21971185Y-45103815D01*
X21874494Y-45024463D01*
X21764180Y-44965498D01*
X21644482Y-44929188D01*
X21520000Y-44916928D01*
X21080000Y-44916928D01*
X21080000Y-36263711D01*
X21123937Y-36219774D01*
X21237205Y-36050256D01*
X21315226Y-35861898D01*
X21355000Y-35661939D01*
X21355000Y-35458061D01*
X21315226Y-35258102D01*
X21237205Y-35069744D01*
X21123937Y-34900226D01*
X20979774Y-34756063D01*
X20810256Y-34642795D01*
X20621898Y-34564774D01*
X20421939Y-34525000D01*
X20218061Y-34525000D01*
X20018102Y-34564774D01*
X19829744Y-34642795D01*
X19660226Y-34756063D01*
X19516063Y-34900226D01*
X19402795Y-35069744D01*
X19324774Y-35258102D01*
X19285000Y-35458061D01*
X19285000Y-35661939D01*
X19324774Y-35861898D01*
X19402795Y-36050256D01*
X19516063Y-36219774D01*
X19560001Y-36263712D01*
X19560000Y-44916928D01*
X19120000Y-44916928D01*
X18995518Y-44929188D01*
X18875820Y-44965498D01*
X18765506Y-45024463D01*
X18668815Y-45103815D01*
X18589463Y-45200506D01*
X18530498Y-45310820D01*
X18494188Y-45430518D01*
X18481928Y-45555000D01*
X18481928Y-47155000D01*
X18494188Y-47279482D01*
X18530498Y-47399180D01*
X18589463Y-47509494D01*
X18668815Y-47606185D01*
X18765506Y-47685537D01*
X18875820Y-47744502D01*
X18995518Y-47780812D01*
X19013482Y-47782581D01*
X18900392Y-47875392D01*
X18721068Y-48093899D01*
X18587818Y-48343192D01*
X18521380Y-48562213D01*
X18448603Y-48358708D01*
X18381671Y-48233486D01*
X18137702Y-48161903D01*
X17324605Y-48975000D01*
X18137702Y-49788097D01*
X18381671Y-49716514D01*
X18502571Y-49461004D01*
X18543090Y-49299358D01*
X18587818Y-49446808D01*
X18721068Y-49696101D01*
X18900392Y-49914608D01*
X19118899Y-50093932D01*
X19251858Y-50165000D01*
X19118899Y-50236068D01*
X18900392Y-50415392D01*
X18721068Y-50633899D01*
X18587818Y-50883192D01*
X18505764Y-51153691D01*
X18478057Y-51435000D01*
X18505764Y-51716309D01*
X18587818Y-51986808D01*
X18721068Y-52236101D01*
X18900392Y-52454608D01*
X19118899Y-52633932D01*
X19251858Y-52705000D01*
X19118899Y-52776068D01*
X18900392Y-52955392D01*
X18721068Y-53173899D01*
X18587818Y-53423192D01*
X18533783Y-53601322D01*
X18524853Y-53556426D01*
X18416680Y-53295273D01*
X18259637Y-53060241D01*
X18059759Y-52860363D01*
X17824727Y-52703320D01*
X17563574Y-52595147D01*
X17286335Y-52540000D01*
X17003665Y-52540000D01*
X16726426Y-52595147D01*
X16465273Y-52703320D01*
X16230241Y-52860363D01*
X16030363Y-53060241D01*
X16000000Y-53105683D01*
X16000000Y-51503711D01*
X16043937Y-51459774D01*
X16157205Y-51290256D01*
X16235226Y-51101898D01*
X16275000Y-50901939D01*
X16275000Y-50698061D01*
X16235226Y-50498102D01*
X16157205Y-50309744D01*
X16043937Y-50140226D01*
X15899774Y-49996063D01*
X15857329Y-49967702D01*
X16331903Y-49967702D01*
X16403486Y-50211671D01*
X16658996Y-50332571D01*
X16933184Y-50401300D01*
X17215512Y-50415217D01*
X17495130Y-50373787D01*
X17761292Y-50278603D01*
X17886514Y-50211671D01*
X17958097Y-49967702D01*
X17145000Y-49154605D01*
X16331903Y-49967702D01*
X15857329Y-49967702D01*
X15730256Y-49882795D01*
X15541898Y-49804774D01*
X15341939Y-49765000D01*
X15138061Y-49765000D01*
X14938102Y-49804774D01*
X14749744Y-49882795D01*
X14580226Y-49996063D01*
X14436063Y-50140226D01*
X14322795Y-50309744D01*
X14244774Y-50498102D01*
X14205000Y-50698061D01*
X14205000Y-50901939D01*
X14244774Y-51101898D01*
X14322795Y-51290256D01*
X14436063Y-51459774D01*
X14480001Y-51503712D01*
X14480000Y-58351289D01*
X14436063Y-58395226D01*
X14322795Y-58564744D01*
X14244774Y-58753102D01*
X14205000Y-58953061D01*
X14205000Y-59156939D01*
X14244774Y-59356898D01*
X14322795Y-59545256D01*
X14436063Y-59714774D01*
X14580226Y-59858937D01*
X14749744Y-59972205D01*
X14938102Y-60050226D01*
X15138061Y-60090000D01*
X15341939Y-60090000D01*
X15541898Y-60050226D01*
X15730256Y-59972205D01*
X15899774Y-59858937D01*
X16043937Y-59714774D01*
X16157205Y-59545256D01*
X16235226Y-59356898D01*
X16275000Y-59156939D01*
X16275000Y-58953061D01*
X16235226Y-58753102D01*
X16157205Y-58564744D01*
X16043937Y-58395226D01*
X16000000Y-58351289D01*
X16000000Y-54844317D01*
X16030363Y-54889759D01*
X16230241Y-55089637D01*
X16385000Y-55193043D01*
X16385001Y-67141928D01*
X16345000Y-67141928D01*
X16220518Y-67154188D01*
X16100820Y-67190498D01*
X15990506Y-67249463D01*
X15893815Y-67328815D01*
X15814463Y-67425506D01*
X15755498Y-67535820D01*
X15719188Y-67655518D01*
X15706928Y-67780000D01*
X15706928Y-69380000D01*
X15714960Y-69461557D01*
X15573102Y-69489774D01*
X15384744Y-69567795D01*
X15365000Y-69580987D01*
X15365000Y-64838711D01*
X15408937Y-64794774D01*
X15522205Y-64625256D01*
X15600226Y-64436898D01*
X15640000Y-64236939D01*
X15640000Y-64033061D01*
X15600226Y-63833102D01*
X15522205Y-63644744D01*
X15408937Y-63475226D01*
X15264774Y-63331063D01*
X15095256Y-63217795D01*
X14906898Y-63139774D01*
X14706939Y-63100000D01*
X14503061Y-63100000D01*
X14417615Y-63116996D01*
X14435000Y-62940491D01*
X14435000Y-62099508D01*
X14414236Y-61888691D01*
X14332182Y-61618192D01*
X14198932Y-61368899D01*
X14019607Y-61150392D01*
X13801100Y-60971068D01*
X13551807Y-60837818D01*
X13281308Y-60755764D01*
X13000000Y-60728057D01*
X12718691Y-60755764D01*
X12448192Y-60837818D01*
X12198899Y-60971068D01*
X11980392Y-61150393D01*
X11801068Y-61368900D01*
X11667818Y-61618193D01*
X11585764Y-61888692D01*
X11565000Y-62099509D01*
X11565000Y-62940492D01*
X11585764Y-63151309D01*
X11667818Y-63421808D01*
X11801068Y-63671101D01*
X11980393Y-63889608D01*
X12198900Y-64068932D01*
X12448193Y-64202182D01*
X12718692Y-64284236D01*
X13000000Y-64311943D01*
X13281309Y-64284236D01*
X13551808Y-64202182D01*
X13570000Y-64192458D01*
X13570000Y-64236939D01*
X13609774Y-64436898D01*
X13687795Y-64625256D01*
X13801063Y-64794774D01*
X13845000Y-64838711D01*
X13845000Y-76247096D01*
X13801100Y-76211068D01*
X13551807Y-76077818D01*
X13281308Y-75995764D01*
X13000000Y-75968057D01*
X12718691Y-75995764D01*
X12448192Y-76077818D01*
X12198899Y-76211068D01*
X11980392Y-76390393D01*
X11801068Y-76608900D01*
X11667818Y-76858193D01*
X11585764Y-77128692D01*
X11565000Y-77339509D01*
X11565000Y-78180492D01*
X11585764Y-78391309D01*
X11667818Y-78661808D01*
X11801068Y-78911101D01*
X11980393Y-79129608D01*
X12198900Y-79308932D01*
X12448193Y-79442182D01*
X12718692Y-79524236D01*
X13000000Y-79551943D01*
X13281309Y-79524236D01*
X13551808Y-79442182D01*
X13801101Y-79308932D01*
X13845001Y-79272905D01*
X13845001Y-89466288D01*
X13801063Y-89510226D01*
X13687795Y-89679744D01*
X13609774Y-89868102D01*
X13570000Y-90068061D01*
X13570000Y-90271939D01*
X13609774Y-90471898D01*
X13687795Y-90660256D01*
X13801063Y-90829774D01*
X13945226Y-90973937D01*
X14114744Y-91087205D01*
X14303102Y-91165226D01*
X14503061Y-91205000D01*
X14706939Y-91205000D01*
X14906898Y-91165226D01*
X15095256Y-91087205D01*
X15115001Y-91074012D01*
X15115001Y-95816288D01*
X15071063Y-95860226D01*
X14957795Y-96029744D01*
X14879774Y-96218102D01*
X14840000Y-96418061D01*
X14840000Y-96621939D01*
X14879774Y-96821898D01*
X14957795Y-97010256D01*
X15071063Y-97179774D01*
X15215226Y-97323937D01*
X15384744Y-97437205D01*
X15573102Y-97515226D01*
X15773061Y-97555000D01*
X15976939Y-97555000D01*
X16176898Y-97515226D01*
X16365256Y-97437205D01*
X16534774Y-97323937D01*
X16678937Y-97179774D01*
X16792205Y-97010256D01*
X16870226Y-96821898D01*
X16910000Y-96621939D01*
X16910000Y-96607911D01*
X16996014Y-96634003D01*
X17107667Y-96645000D01*
X17145000Y-96648677D01*
X17182333Y-96645000D01*
X19041822Y-96645000D01*
X19166525Y-96831632D01*
X19373368Y-97038475D01*
X19616589Y-97200990D01*
X19886842Y-97312932D01*
X20173740Y-97370000D01*
X20466260Y-97370000D01*
X20753158Y-97312932D01*
X21023411Y-97200990D01*
X21266632Y-97038475D01*
X21473475Y-96831632D01*
X21590000Y-96657240D01*
X21706525Y-96831632D01*
X21913368Y-97038475D01*
X22156589Y-97200990D01*
X22426842Y-97312932D01*
X22713740Y-97370000D01*
X23006260Y-97370000D01*
X23293158Y-97312932D01*
X23470001Y-97239682D01*
X23470001Y-100940000D01*
X660000Y-100940000D01*
X660000Y-96378665D01*
X2375000Y-96378665D01*
X2375000Y-96661335D01*
X2430147Y-96938574D01*
X2538320Y-97199727D01*
X2695363Y-97434759D01*
X2895241Y-97634637D01*
X3130273Y-97791680D01*
X3391426Y-97899853D01*
X3668665Y-97955000D01*
X3951335Y-97955000D01*
X4228574Y-97899853D01*
X4489727Y-97791680D01*
X4724759Y-97634637D01*
X4924637Y-97434759D01*
X5028043Y-97280000D01*
X5042678Y-97280000D01*
X5080000Y-97283676D01*
X5117322Y-97280000D01*
X5117333Y-97280000D01*
X5228986Y-97269003D01*
X5372247Y-97225546D01*
X5504276Y-97154974D01*
X5620001Y-97060001D01*
X5643803Y-97030998D01*
X6296136Y-96378665D01*
X9995000Y-96378665D01*
X9995000Y-96661335D01*
X10050147Y-96938574D01*
X10158320Y-97199727D01*
X10315363Y-97434759D01*
X10515241Y-97634637D01*
X10750273Y-97791680D01*
X11011426Y-97899853D01*
X11288665Y-97955000D01*
X11571335Y-97955000D01*
X11848574Y-97899853D01*
X12109727Y-97791680D01*
X12344759Y-97634637D01*
X12544637Y-97434759D01*
X12701680Y-97199727D01*
X12809853Y-96938574D01*
X12865000Y-96661335D01*
X12865000Y-96378665D01*
X12809853Y-96101426D01*
X12701680Y-95840273D01*
X12544637Y-95605241D01*
X12344759Y-95405363D01*
X12109727Y-95248320D01*
X11848574Y-95140147D01*
X11571335Y-95085000D01*
X11288665Y-95085000D01*
X11011426Y-95140147D01*
X10750273Y-95248320D01*
X10515241Y-95405363D01*
X10315363Y-95605241D01*
X10158320Y-95840273D01*
X10050147Y-96101426D01*
X9995000Y-96378665D01*
X6296136Y-96378665D01*
X6411004Y-96263798D01*
X6440001Y-96240001D01*
X6491502Y-96177247D01*
X6534974Y-96124277D01*
X6605546Y-95992247D01*
X6609261Y-95979999D01*
X6649003Y-95848986D01*
X6660000Y-95737333D01*
X6660000Y-95737324D01*
X6663676Y-95700001D01*
X6660000Y-95662678D01*
X6660000Y-94963951D01*
X6894127Y-94892929D01*
X7117362Y-94773608D01*
X7313028Y-94613028D01*
X7473608Y-94417362D01*
X7592929Y-94194127D01*
X7666407Y-93951904D01*
X7691217Y-93700000D01*
X7666407Y-93448096D01*
X7592929Y-93205873D01*
X7473608Y-92982638D01*
X7313028Y-92786972D01*
X7117362Y-92626392D01*
X7029650Y-92579509D01*
X11565000Y-92579509D01*
X11565000Y-93420492D01*
X11585764Y-93631309D01*
X11667818Y-93901808D01*
X11801068Y-94151101D01*
X11980393Y-94369608D01*
X12198900Y-94548932D01*
X12448193Y-94682182D01*
X12718692Y-94764236D01*
X13000000Y-94791943D01*
X13281309Y-94764236D01*
X13551808Y-94682182D01*
X13801101Y-94548932D01*
X14019608Y-94369608D01*
X14198932Y-94151101D01*
X14332182Y-93901808D01*
X14414236Y-93631308D01*
X14435000Y-93420491D01*
X14435000Y-92579508D01*
X14414236Y-92368691D01*
X14332182Y-92098192D01*
X14198932Y-91848899D01*
X14019607Y-91630392D01*
X13801100Y-91451068D01*
X13551807Y-91317818D01*
X13281308Y-91235764D01*
X13000000Y-91208057D01*
X12718691Y-91235764D01*
X12448192Y-91317818D01*
X12198899Y-91451068D01*
X11980392Y-91630393D01*
X11801068Y-91848900D01*
X11667818Y-92098193D01*
X11585764Y-92368692D01*
X11565000Y-92579509D01*
X7029650Y-92579509D01*
X6894127Y-92507071D01*
X6651904Y-92433593D01*
X6463123Y-92415000D01*
X5336877Y-92415000D01*
X5148096Y-92433593D01*
X4905873Y-92507071D01*
X4682638Y-92626392D01*
X4486972Y-92786972D01*
X4326392Y-92982638D01*
X4207071Y-93205873D01*
X4133593Y-93448096D01*
X4108783Y-93700000D01*
X4133593Y-93951904D01*
X4207071Y-94194127D01*
X4326392Y-94417362D01*
X4486972Y-94613028D01*
X4682638Y-94773608D01*
X4905873Y-94892929D01*
X5140000Y-94963951D01*
X5140000Y-95385198D01*
X4922297Y-95602901D01*
X4724759Y-95405363D01*
X4489727Y-95248320D01*
X4228574Y-95140147D01*
X3951335Y-95085000D01*
X3668665Y-95085000D01*
X3391426Y-95140147D01*
X3130273Y-95248320D01*
X2895241Y-95405363D01*
X2695363Y-95605241D01*
X2538320Y-95840273D01*
X2430147Y-96101426D01*
X2375000Y-96378665D01*
X660000Y-96378665D01*
X660000Y-90237092D01*
X775105Y-90354500D01*
X1008354Y-90513715D01*
X1268182Y-90624367D01*
X1350961Y-90641904D01*
X1573000Y-90519915D01*
X1573000Y-89027000D01*
X1827000Y-89027000D01*
X1827000Y-90519915D01*
X2049039Y-90641904D01*
X2131818Y-90624367D01*
X2391646Y-90513715D01*
X2624895Y-90354500D01*
X2822601Y-90152839D01*
X2977166Y-89916483D01*
X3082650Y-89654514D01*
X3135000Y-89377000D01*
X3135000Y-89027000D01*
X1827000Y-89027000D01*
X1573000Y-89027000D01*
X1553000Y-89027000D01*
X1553000Y-88773000D01*
X1573000Y-88773000D01*
X1573000Y-87280085D01*
X1827000Y-87280085D01*
X1827000Y-88773000D01*
X3135000Y-88773000D01*
X3135000Y-88423000D01*
X3082650Y-88145486D01*
X2977166Y-87883517D01*
X2822601Y-87647161D01*
X2624895Y-87445500D01*
X2391646Y-87286285D01*
X2131818Y-87175633D01*
X2049039Y-87158096D01*
X1827000Y-87280085D01*
X1573000Y-87280085D01*
X1350961Y-87158096D01*
X1268182Y-87175633D01*
X1008354Y-87286285D01*
X775105Y-87445500D01*
X660000Y-87562908D01*
X660000Y-86300000D01*
X6808057Y-86300000D01*
X6835764Y-86581309D01*
X6917818Y-86851808D01*
X7051068Y-87101101D01*
X7230392Y-87319608D01*
X7448899Y-87498932D01*
X7698192Y-87632182D01*
X7968691Y-87714236D01*
X8179508Y-87735000D01*
X9020492Y-87735000D01*
X9231309Y-87714236D01*
X9501808Y-87632182D01*
X9751101Y-87498932D01*
X9969608Y-87319608D01*
X10148932Y-87101101D01*
X10282182Y-86851808D01*
X10364236Y-86581309D01*
X10391943Y-86300000D01*
X10364236Y-86018691D01*
X10282182Y-85748192D01*
X10148932Y-85498899D01*
X9969608Y-85280392D01*
X9751101Y-85101068D01*
X9533953Y-84985000D01*
X10163123Y-84985000D01*
X10351904Y-84966407D01*
X10594127Y-84892929D01*
X10817362Y-84773608D01*
X11013028Y-84613028D01*
X11173608Y-84417362D01*
X11292929Y-84194127D01*
X11366407Y-83951904D01*
X11391217Y-83700000D01*
X11366407Y-83448096D01*
X11292929Y-83205873D01*
X11173608Y-82982638D01*
X11013028Y-82786972D01*
X10817362Y-82626392D01*
X10594127Y-82507071D01*
X10351904Y-82433593D01*
X10163123Y-82415000D01*
X9036877Y-82415000D01*
X8848096Y-82433593D01*
X8605873Y-82507071D01*
X8382638Y-82626392D01*
X8186972Y-82786972D01*
X8026392Y-82982638D01*
X7907071Y-83205873D01*
X7833593Y-83448096D01*
X7808783Y-83700000D01*
X7833593Y-83951904D01*
X7907071Y-84194127D01*
X8026392Y-84417362D01*
X8186972Y-84613028D01*
X8382638Y-84773608D01*
X8553621Y-84865000D01*
X8179508Y-84865000D01*
X7968691Y-84885764D01*
X7698192Y-84967818D01*
X7448899Y-85101068D01*
X7230392Y-85280392D01*
X7051068Y-85498899D01*
X6917818Y-85748192D01*
X6835764Y-86018691D01*
X6808057Y-86300000D01*
X660000Y-86300000D01*
X660000Y-81138665D01*
X2375000Y-81138665D01*
X2375000Y-81421335D01*
X2430147Y-81698574D01*
X2538320Y-81959727D01*
X2695363Y-82194759D01*
X2895241Y-82394637D01*
X3130273Y-82551680D01*
X3391426Y-82659853D01*
X3668665Y-82715000D01*
X3951335Y-82715000D01*
X4228574Y-82659853D01*
X4489727Y-82551680D01*
X4724759Y-82394637D01*
X4924637Y-82194759D01*
X5028043Y-82040000D01*
X5042678Y-82040000D01*
X5080000Y-82043676D01*
X5117322Y-82040000D01*
X5117333Y-82040000D01*
X5228986Y-82029003D01*
X5372247Y-81985546D01*
X5504276Y-81914974D01*
X5620001Y-81820001D01*
X5643803Y-81790998D01*
X6296136Y-81138665D01*
X9995000Y-81138665D01*
X9995000Y-81421335D01*
X10050147Y-81698574D01*
X10158320Y-81959727D01*
X10315363Y-82194759D01*
X10515241Y-82394637D01*
X10750273Y-82551680D01*
X11011426Y-82659853D01*
X11288665Y-82715000D01*
X11571335Y-82715000D01*
X11848574Y-82659853D01*
X12109727Y-82551680D01*
X12344759Y-82394637D01*
X12544637Y-82194759D01*
X12701680Y-81959727D01*
X12809853Y-81698574D01*
X12865000Y-81421335D01*
X12865000Y-81138665D01*
X12809853Y-80861426D01*
X12701680Y-80600273D01*
X12544637Y-80365241D01*
X12344759Y-80165363D01*
X12109727Y-80008320D01*
X11848574Y-79900147D01*
X11571335Y-79845000D01*
X11288665Y-79845000D01*
X11011426Y-79900147D01*
X10750273Y-80008320D01*
X10515241Y-80165363D01*
X10315363Y-80365241D01*
X10158320Y-80600273D01*
X10050147Y-80861426D01*
X9995000Y-81138665D01*
X6296136Y-81138665D01*
X6411004Y-81023798D01*
X6440001Y-81000001D01*
X6466332Y-80967917D01*
X6534974Y-80884277D01*
X6605546Y-80752247D01*
X6609261Y-80739999D01*
X6649003Y-80608986D01*
X6660000Y-80497333D01*
X6660000Y-80497324D01*
X6663676Y-80460001D01*
X6660000Y-80422678D01*
X6660000Y-79723951D01*
X6894127Y-79652929D01*
X7117362Y-79533608D01*
X7313028Y-79373028D01*
X7473608Y-79177362D01*
X7592929Y-78954127D01*
X7666407Y-78711904D01*
X7691217Y-78460000D01*
X7666407Y-78208096D01*
X7592929Y-77965873D01*
X7473608Y-77742638D01*
X7313028Y-77546972D01*
X7117362Y-77386392D01*
X6894127Y-77267071D01*
X6651904Y-77193593D01*
X6463123Y-77175000D01*
X5336877Y-77175000D01*
X5148096Y-77193593D01*
X4905873Y-77267071D01*
X4682638Y-77386392D01*
X4486972Y-77546972D01*
X4326392Y-77742638D01*
X4207071Y-77965873D01*
X4133593Y-78208096D01*
X4108783Y-78460000D01*
X4133593Y-78711904D01*
X4207071Y-78954127D01*
X4326392Y-79177362D01*
X4486972Y-79373028D01*
X4682638Y-79533608D01*
X4905873Y-79652929D01*
X5140000Y-79723951D01*
X5140000Y-80145198D01*
X4922297Y-80362901D01*
X4724759Y-80165363D01*
X4489727Y-80008320D01*
X4228574Y-79900147D01*
X3951335Y-79845000D01*
X3668665Y-79845000D01*
X3391426Y-79900147D01*
X3130273Y-80008320D01*
X2895241Y-80165363D01*
X2695363Y-80365241D01*
X2538320Y-80600273D01*
X2430147Y-80861426D01*
X2375000Y-81138665D01*
X660000Y-81138665D01*
X660000Y-74997092D01*
X775105Y-75114500D01*
X1008354Y-75273715D01*
X1268182Y-75384367D01*
X1350961Y-75401904D01*
X1573000Y-75279915D01*
X1573000Y-73787000D01*
X1827000Y-73787000D01*
X1827000Y-75279915D01*
X2049039Y-75401904D01*
X2131818Y-75384367D01*
X2391646Y-75273715D01*
X2624895Y-75114500D01*
X2822601Y-74912839D01*
X2977166Y-74676483D01*
X3082650Y-74414514D01*
X3135000Y-74137000D01*
X3135000Y-73787000D01*
X1827000Y-73787000D01*
X1573000Y-73787000D01*
X1553000Y-73787000D01*
X1553000Y-73533000D01*
X1573000Y-73533000D01*
X1573000Y-72040085D01*
X1827000Y-72040085D01*
X1827000Y-73533000D01*
X3135000Y-73533000D01*
X3135000Y-73183000D01*
X3082650Y-72905486D01*
X2977166Y-72643517D01*
X2822601Y-72407161D01*
X2624895Y-72205500D01*
X2391646Y-72046285D01*
X2131818Y-71935633D01*
X2049039Y-71918096D01*
X1827000Y-72040085D01*
X1573000Y-72040085D01*
X1350961Y-71918096D01*
X1268182Y-71935633D01*
X1008354Y-72046285D01*
X775105Y-72205500D01*
X660000Y-72322908D01*
X660000Y-71060000D01*
X6808057Y-71060000D01*
X6835764Y-71341309D01*
X6917818Y-71611808D01*
X7051068Y-71861101D01*
X7230392Y-72079608D01*
X7448899Y-72258932D01*
X7698192Y-72392182D01*
X7968691Y-72474236D01*
X8179508Y-72495000D01*
X9020492Y-72495000D01*
X9231309Y-72474236D01*
X9501808Y-72392182D01*
X9751101Y-72258932D01*
X9969608Y-72079608D01*
X10148932Y-71861101D01*
X10282182Y-71611808D01*
X10364236Y-71341309D01*
X10391943Y-71060000D01*
X10364236Y-70778691D01*
X10282182Y-70508192D01*
X10148932Y-70258899D01*
X9969608Y-70040392D01*
X9751101Y-69861068D01*
X9533953Y-69745000D01*
X10163123Y-69745000D01*
X10351904Y-69726407D01*
X10594127Y-69652929D01*
X10817362Y-69533608D01*
X11013028Y-69373028D01*
X11173608Y-69177362D01*
X11292929Y-68954127D01*
X11366407Y-68711904D01*
X11391217Y-68460000D01*
X11366407Y-68208096D01*
X11292929Y-67965873D01*
X11173608Y-67742638D01*
X11013028Y-67546972D01*
X10817362Y-67386392D01*
X10594127Y-67267071D01*
X10351904Y-67193593D01*
X10163123Y-67175000D01*
X9036877Y-67175000D01*
X8848096Y-67193593D01*
X8605873Y-67267071D01*
X8382638Y-67386392D01*
X8186972Y-67546972D01*
X8026392Y-67742638D01*
X7907071Y-67965873D01*
X7833593Y-68208096D01*
X7808783Y-68460000D01*
X7833593Y-68711904D01*
X7907071Y-68954127D01*
X8026392Y-69177362D01*
X8186972Y-69373028D01*
X8382638Y-69533608D01*
X8553621Y-69625000D01*
X8179508Y-69625000D01*
X7968691Y-69645764D01*
X7698192Y-69727818D01*
X7448899Y-69861068D01*
X7230392Y-70040392D01*
X7051068Y-70258899D01*
X6917818Y-70508192D01*
X6835764Y-70778691D01*
X6808057Y-71060000D01*
X660000Y-71060000D01*
X660000Y-66389039D01*
X2418096Y-66389039D01*
X2458754Y-66523087D01*
X2578963Y-66777420D01*
X2746481Y-67003414D01*
X2954869Y-67192385D01*
X3196119Y-67337070D01*
X3460960Y-67431909D01*
X3683000Y-67310624D01*
X3683000Y-66167000D01*
X3937000Y-66167000D01*
X3937000Y-67310624D01*
X4159040Y-67431909D01*
X4423881Y-67337070D01*
X4665131Y-67192385D01*
X4873519Y-67003414D01*
X5041037Y-66777420D01*
X5161246Y-66523087D01*
X5201904Y-66389039D01*
X5079915Y-66167000D01*
X3937000Y-66167000D01*
X3683000Y-66167000D01*
X2540085Y-66167000D01*
X2418096Y-66389039D01*
X660000Y-66389039D01*
X660000Y-65690961D01*
X2418096Y-65690961D01*
X2540085Y-65913000D01*
X3683000Y-65913000D01*
X3683000Y-64769376D01*
X3937000Y-64769376D01*
X3937000Y-65913000D01*
X5079915Y-65913000D01*
X5201904Y-65690961D01*
X5161246Y-65556913D01*
X5041037Y-65302580D01*
X4873519Y-65076586D01*
X4665131Y-64887615D01*
X4423881Y-64742930D01*
X4159040Y-64648091D01*
X3937000Y-64769376D01*
X3683000Y-64769376D01*
X3460960Y-64648091D01*
X3196119Y-64742930D01*
X2954869Y-64887615D01*
X2746481Y-65076586D01*
X2578963Y-65302580D01*
X2458754Y-65556913D01*
X2418096Y-65690961D01*
X660000Y-65690961D01*
X660000Y-63220000D01*
X4108783Y-63220000D01*
X4133593Y-63471904D01*
X4207071Y-63714127D01*
X4326392Y-63937362D01*
X4486972Y-64133028D01*
X4682638Y-64293608D01*
X4905873Y-64412929D01*
X5148096Y-64486407D01*
X5336877Y-64505000D01*
X6463123Y-64505000D01*
X6651904Y-64486407D01*
X6894127Y-64412929D01*
X7117362Y-64293608D01*
X7313028Y-64133028D01*
X7438616Y-63980000D01*
X8295199Y-63980000D01*
X10031312Y-65716114D01*
X9995000Y-65898665D01*
X9995000Y-66181335D01*
X10050147Y-66458574D01*
X10158320Y-66719727D01*
X10315363Y-66954759D01*
X10515241Y-67154637D01*
X10750273Y-67311680D01*
X11011426Y-67419853D01*
X11288665Y-67475000D01*
X11571335Y-67475000D01*
X11848574Y-67419853D01*
X12109727Y-67311680D01*
X12344759Y-67154637D01*
X12544637Y-66954759D01*
X12701680Y-66719727D01*
X12809853Y-66458574D01*
X12865000Y-66181335D01*
X12865000Y-65898665D01*
X12809853Y-65621426D01*
X12701680Y-65360273D01*
X12544637Y-65125241D01*
X12344759Y-64925363D01*
X12109727Y-64768320D01*
X11848574Y-64660147D01*
X11571335Y-64605000D01*
X11288665Y-64605000D01*
X11106114Y-64641312D01*
X9173804Y-62709003D01*
X9150001Y-62679999D01*
X9034276Y-62585026D01*
X8902247Y-62514454D01*
X8758986Y-62470997D01*
X8647333Y-62460000D01*
X8647322Y-62460000D01*
X8610000Y-62456324D01*
X8572678Y-62460000D01*
X7438616Y-62460000D01*
X7313028Y-62306972D01*
X7117362Y-62146392D01*
X6894127Y-62027071D01*
X6651904Y-61953593D01*
X6463123Y-61935000D01*
X5336877Y-61935000D01*
X5148096Y-61953593D01*
X4905873Y-62027071D01*
X4682638Y-62146392D01*
X4486972Y-62306972D01*
X4326392Y-62502638D01*
X4207071Y-62725873D01*
X4133593Y-62968096D01*
X4108783Y-63220000D01*
X660000Y-63220000D01*
X660000Y-59757092D01*
X775105Y-59874500D01*
X1008354Y-60033715D01*
X1268182Y-60144367D01*
X1350961Y-60161904D01*
X1573000Y-60039915D01*
X1573000Y-58547000D01*
X1827000Y-58547000D01*
X1827000Y-60039915D01*
X2049039Y-60161904D01*
X2131818Y-60144367D01*
X2391646Y-60033715D01*
X2624895Y-59874500D01*
X2822601Y-59672839D01*
X2977166Y-59436483D01*
X3082650Y-59174514D01*
X3135000Y-58897000D01*
X3135000Y-58547000D01*
X1827000Y-58547000D01*
X1573000Y-58547000D01*
X1553000Y-58547000D01*
X1553000Y-58293000D01*
X1573000Y-58293000D01*
X1573000Y-56800085D01*
X1827000Y-56800085D01*
X1827000Y-58293000D01*
X3135000Y-58293000D01*
X3135000Y-57943000D01*
X3082650Y-57665486D01*
X2977166Y-57403517D01*
X2822601Y-57167161D01*
X2624895Y-56965500D01*
X2391646Y-56806285D01*
X2131818Y-56695633D01*
X2049039Y-56678096D01*
X1827000Y-56800085D01*
X1573000Y-56800085D01*
X1350961Y-56678096D01*
X1268182Y-56695633D01*
X1008354Y-56806285D01*
X775105Y-56965500D01*
X660000Y-57082908D01*
X660000Y-55820000D01*
X6808057Y-55820000D01*
X6835764Y-56101309D01*
X6917818Y-56371808D01*
X7051068Y-56621101D01*
X7230392Y-56839608D01*
X7448899Y-57018932D01*
X7698192Y-57152182D01*
X7968691Y-57234236D01*
X8179508Y-57255000D01*
X9020492Y-57255000D01*
X9231309Y-57234236D01*
X9501808Y-57152182D01*
X9751101Y-57018932D01*
X9969608Y-56839608D01*
X10148932Y-56621101D01*
X10282182Y-56371808D01*
X10364236Y-56101309D01*
X10391943Y-55820000D01*
X10364236Y-55538691D01*
X10282182Y-55268192D01*
X10148932Y-55018899D01*
X9969608Y-54800392D01*
X9751101Y-54621068D01*
X9533953Y-54505000D01*
X10163123Y-54505000D01*
X10351904Y-54486407D01*
X10594127Y-54412929D01*
X10817362Y-54293608D01*
X11013028Y-54133028D01*
X11173608Y-53937362D01*
X11292929Y-53714127D01*
X11366407Y-53471904D01*
X11391217Y-53220000D01*
X11366407Y-52968096D01*
X11292929Y-52725873D01*
X11173608Y-52502638D01*
X11013028Y-52306972D01*
X10817362Y-52146392D01*
X10594127Y-52027071D01*
X10351904Y-51953593D01*
X10163123Y-51935000D01*
X9036877Y-51935000D01*
X8848096Y-51953593D01*
X8605873Y-52027071D01*
X8382638Y-52146392D01*
X8186972Y-52306972D01*
X8026392Y-52502638D01*
X7907071Y-52725873D01*
X7833593Y-52968096D01*
X7808783Y-53220000D01*
X7833593Y-53471904D01*
X7907071Y-53714127D01*
X8026392Y-53937362D01*
X8186972Y-54133028D01*
X8382638Y-54293608D01*
X8553621Y-54385000D01*
X8179508Y-54385000D01*
X7968691Y-54405764D01*
X7698192Y-54487818D01*
X7448899Y-54621068D01*
X7230392Y-54800392D01*
X7051068Y-55018899D01*
X6917818Y-55268192D01*
X6835764Y-55538691D01*
X6808057Y-55820000D01*
X660000Y-55820000D01*
X660000Y-50658665D01*
X2375000Y-50658665D01*
X2375000Y-50941335D01*
X2430147Y-51218574D01*
X2538320Y-51479727D01*
X2695363Y-51714759D01*
X2895241Y-51914637D01*
X3130273Y-52071680D01*
X3391426Y-52179853D01*
X3668665Y-52235000D01*
X3951335Y-52235000D01*
X4228574Y-52179853D01*
X4489727Y-52071680D01*
X4724759Y-51914637D01*
X4924637Y-51714759D01*
X5028043Y-51560000D01*
X5042678Y-51560000D01*
X5080000Y-51563676D01*
X5117322Y-51560000D01*
X5117333Y-51560000D01*
X5228986Y-51549003D01*
X5372247Y-51505546D01*
X5504276Y-51434974D01*
X5620001Y-51340001D01*
X5643803Y-51310998D01*
X6296136Y-50658665D01*
X9995000Y-50658665D01*
X9995000Y-50941335D01*
X10050147Y-51218574D01*
X10158320Y-51479727D01*
X10315363Y-51714759D01*
X10515241Y-51914637D01*
X10750273Y-52071680D01*
X11011426Y-52179853D01*
X11288665Y-52235000D01*
X11571335Y-52235000D01*
X11848574Y-52179853D01*
X12109727Y-52071680D01*
X12344759Y-51914637D01*
X12544637Y-51714759D01*
X12701680Y-51479727D01*
X12809853Y-51218574D01*
X12865000Y-50941335D01*
X12865000Y-50658665D01*
X12809853Y-50381426D01*
X12701680Y-50120273D01*
X12544637Y-49885241D01*
X12344759Y-49685363D01*
X12109727Y-49528320D01*
X11848574Y-49420147D01*
X11571335Y-49365000D01*
X11288665Y-49365000D01*
X11011426Y-49420147D01*
X10750273Y-49528320D01*
X10515241Y-49685363D01*
X10315363Y-49885241D01*
X10158320Y-50120273D01*
X10050147Y-50381426D01*
X9995000Y-50658665D01*
X6296136Y-50658665D01*
X6411004Y-50543798D01*
X6440001Y-50520001D01*
X6505842Y-50439774D01*
X6534974Y-50404277D01*
X6605546Y-50272247D01*
X6609261Y-50259999D01*
X6649003Y-50128986D01*
X6660000Y-50017333D01*
X6660000Y-50017324D01*
X6663676Y-49980001D01*
X6660000Y-49942678D01*
X6660000Y-49243951D01*
X6894127Y-49172929D01*
X7117362Y-49053608D01*
X7313028Y-48893028D01*
X7473608Y-48697362D01*
X7592929Y-48474127D01*
X7666407Y-48231904D01*
X7691217Y-47980000D01*
X7666407Y-47728096D01*
X7592929Y-47485873D01*
X7473608Y-47262638D01*
X7313028Y-47066972D01*
X7117362Y-46906392D01*
X7029650Y-46859509D01*
X11565000Y-46859509D01*
X11565000Y-47700492D01*
X11585764Y-47911309D01*
X11667818Y-48181808D01*
X11801068Y-48431101D01*
X11980393Y-48649608D01*
X12198900Y-48828932D01*
X12448193Y-48962182D01*
X12718692Y-49044236D01*
X13000000Y-49071943D01*
X13268353Y-49045512D01*
X15704783Y-49045512D01*
X15746213Y-49325130D01*
X15841397Y-49591292D01*
X15908329Y-49716514D01*
X16152298Y-49788097D01*
X16965395Y-48975000D01*
X16152298Y-48161903D01*
X15908329Y-48233486D01*
X15787429Y-48488996D01*
X15718700Y-48763184D01*
X15704783Y-49045512D01*
X13268353Y-49045512D01*
X13281309Y-49044236D01*
X13551808Y-48962182D01*
X13801101Y-48828932D01*
X14019608Y-48649608D01*
X14198932Y-48431101D01*
X14332182Y-48181808D01*
X14392701Y-47982298D01*
X16331903Y-47982298D01*
X17145000Y-48795395D01*
X17958097Y-47982298D01*
X17886514Y-47738329D01*
X17631004Y-47617429D01*
X17356816Y-47548700D01*
X17074488Y-47534783D01*
X16794870Y-47576213D01*
X16528708Y-47671397D01*
X16403486Y-47738329D01*
X16331903Y-47982298D01*
X14392701Y-47982298D01*
X14414236Y-47911308D01*
X14435000Y-47700491D01*
X14435000Y-46859508D01*
X14414236Y-46648691D01*
X14332182Y-46378192D01*
X14198932Y-46128899D01*
X14019607Y-45910392D01*
X13801100Y-45731068D01*
X13551807Y-45597818D01*
X13281308Y-45515764D01*
X13000000Y-45488057D01*
X12718691Y-45515764D01*
X12448192Y-45597818D01*
X12198899Y-45731068D01*
X11980392Y-45910393D01*
X11801068Y-46128900D01*
X11667818Y-46378193D01*
X11585764Y-46648692D01*
X11565000Y-46859509D01*
X7029650Y-46859509D01*
X6894127Y-46787071D01*
X6651904Y-46713593D01*
X6463123Y-46695000D01*
X5336877Y-46695000D01*
X5148096Y-46713593D01*
X4905873Y-46787071D01*
X4682638Y-46906392D01*
X4486972Y-47066972D01*
X4326392Y-47262638D01*
X4207071Y-47485873D01*
X4133593Y-47728096D01*
X4108783Y-47980000D01*
X4133593Y-48231904D01*
X4207071Y-48474127D01*
X4326392Y-48697362D01*
X4486972Y-48893028D01*
X4682638Y-49053608D01*
X4905873Y-49172929D01*
X5140000Y-49243951D01*
X5140000Y-49665198D01*
X4922297Y-49882901D01*
X4724759Y-49685363D01*
X4489727Y-49528320D01*
X4228574Y-49420147D01*
X3951335Y-49365000D01*
X3668665Y-49365000D01*
X3391426Y-49420147D01*
X3130273Y-49528320D01*
X2895241Y-49685363D01*
X2695363Y-49885241D01*
X2538320Y-50120273D01*
X2430147Y-50381426D01*
X2375000Y-50658665D01*
X660000Y-50658665D01*
X660000Y-44517092D01*
X775105Y-44634500D01*
X1008354Y-44793715D01*
X1268182Y-44904367D01*
X1350961Y-44921904D01*
X1573000Y-44799915D01*
X1573000Y-43307000D01*
X1827000Y-43307000D01*
X1827000Y-44799915D01*
X2049039Y-44921904D01*
X2131818Y-44904367D01*
X2391646Y-44793715D01*
X2624895Y-44634500D01*
X2822601Y-44432839D01*
X2977166Y-44196483D01*
X3082650Y-43934514D01*
X3135000Y-43657000D01*
X3135000Y-43307000D01*
X1827000Y-43307000D01*
X1573000Y-43307000D01*
X1553000Y-43307000D01*
X1553000Y-43053000D01*
X1573000Y-43053000D01*
X1573000Y-41560085D01*
X1827000Y-41560085D01*
X1827000Y-43053000D01*
X3135000Y-43053000D01*
X3135000Y-42703000D01*
X3082650Y-42425486D01*
X2977166Y-42163517D01*
X2822601Y-41927161D01*
X2624895Y-41725500D01*
X2391646Y-41566285D01*
X2131818Y-41455633D01*
X2049039Y-41438096D01*
X1827000Y-41560085D01*
X1573000Y-41560085D01*
X1350961Y-41438096D01*
X1268182Y-41455633D01*
X1008354Y-41566285D01*
X775105Y-41725500D01*
X660000Y-41842908D01*
X660000Y-40580000D01*
X6808057Y-40580000D01*
X6835764Y-40861309D01*
X6917818Y-41131808D01*
X7051068Y-41381101D01*
X7230392Y-41599608D01*
X7448899Y-41778932D01*
X7698192Y-41912182D01*
X7968691Y-41994236D01*
X8179508Y-42015000D01*
X9020492Y-42015000D01*
X9231309Y-41994236D01*
X9501808Y-41912182D01*
X9751101Y-41778932D01*
X9969608Y-41599608D01*
X10148932Y-41381101D01*
X10282182Y-41131808D01*
X10364236Y-40861309D01*
X10391943Y-40580000D01*
X10364236Y-40298691D01*
X10282182Y-40028192D01*
X10148932Y-39778899D01*
X9969608Y-39560392D01*
X9751101Y-39381068D01*
X9533953Y-39265000D01*
X10163123Y-39265000D01*
X10351904Y-39246407D01*
X10594127Y-39172929D01*
X10817362Y-39053608D01*
X11013028Y-38893028D01*
X11173608Y-38697362D01*
X11292929Y-38474127D01*
X11366407Y-38231904D01*
X11391217Y-37980000D01*
X11366407Y-37728096D01*
X11292929Y-37485873D01*
X11173608Y-37262638D01*
X11013028Y-37066972D01*
X10817362Y-36906392D01*
X10594127Y-36787071D01*
X10351904Y-36713593D01*
X10163123Y-36695000D01*
X9036877Y-36695000D01*
X8848096Y-36713593D01*
X8605873Y-36787071D01*
X8382638Y-36906392D01*
X8186972Y-37066972D01*
X8026392Y-37262638D01*
X7907071Y-37485873D01*
X7833593Y-37728096D01*
X7808783Y-37980000D01*
X7833593Y-38231904D01*
X7907071Y-38474127D01*
X8026392Y-38697362D01*
X8186972Y-38893028D01*
X8382638Y-39053608D01*
X8553621Y-39145000D01*
X8179508Y-39145000D01*
X7968691Y-39165764D01*
X7698192Y-39247818D01*
X7448899Y-39381068D01*
X7230392Y-39560392D01*
X7051068Y-39778899D01*
X6917818Y-40028192D01*
X6835764Y-40298691D01*
X6808057Y-40580000D01*
X660000Y-40580000D01*
X660000Y-35418665D01*
X2375000Y-35418665D01*
X2375000Y-35701335D01*
X2430147Y-35978574D01*
X2538320Y-36239727D01*
X2695363Y-36474759D01*
X2895241Y-36674637D01*
X3130273Y-36831680D01*
X3391426Y-36939853D01*
X3668665Y-36995000D01*
X3951335Y-36995000D01*
X4228574Y-36939853D01*
X4489727Y-36831680D01*
X4724759Y-36674637D01*
X4924637Y-36474759D01*
X5028043Y-36320000D01*
X5042678Y-36320000D01*
X5080000Y-36323676D01*
X5117322Y-36320000D01*
X5117333Y-36320000D01*
X5228986Y-36309003D01*
X5372247Y-36265546D01*
X5504276Y-36194974D01*
X5620001Y-36100001D01*
X5643803Y-36070998D01*
X6296136Y-35418665D01*
X9995000Y-35418665D01*
X9995000Y-35701335D01*
X10050147Y-35978574D01*
X10158320Y-36239727D01*
X10315363Y-36474759D01*
X10515241Y-36674637D01*
X10750273Y-36831680D01*
X11011426Y-36939853D01*
X11288665Y-36995000D01*
X11571335Y-36995000D01*
X11848574Y-36939853D01*
X12109727Y-36831680D01*
X12344759Y-36674637D01*
X12544637Y-36474759D01*
X12701680Y-36239727D01*
X12809853Y-35978574D01*
X12865000Y-35701335D01*
X12865000Y-35418665D01*
X12809853Y-35141426D01*
X12701680Y-34880273D01*
X12544637Y-34645241D01*
X12344759Y-34445363D01*
X12109727Y-34288320D01*
X11848574Y-34180147D01*
X11571335Y-34125000D01*
X11288665Y-34125000D01*
X11011426Y-34180147D01*
X10750273Y-34288320D01*
X10515241Y-34445363D01*
X10315363Y-34645241D01*
X10158320Y-34880273D01*
X10050147Y-35141426D01*
X9995000Y-35418665D01*
X6296136Y-35418665D01*
X6411004Y-35303798D01*
X6440001Y-35280001D01*
X6466332Y-35247917D01*
X6534974Y-35164277D01*
X6605546Y-35032247D01*
X6609261Y-35019999D01*
X6649003Y-34888986D01*
X6660000Y-34777333D01*
X6660000Y-34777324D01*
X6663676Y-34740001D01*
X6660000Y-34702678D01*
X6660000Y-34003951D01*
X6894127Y-33932929D01*
X7117362Y-33813608D01*
X7313028Y-33653028D01*
X7473608Y-33457362D01*
X7592929Y-33234127D01*
X7666407Y-32991904D01*
X7691217Y-32740000D01*
X7666407Y-32488096D01*
X7592929Y-32245873D01*
X7473608Y-32022638D01*
X7313028Y-31826972D01*
X7117362Y-31666392D01*
X7029650Y-31619509D01*
X11565000Y-31619509D01*
X11565000Y-32460492D01*
X11585764Y-32671309D01*
X11667818Y-32941808D01*
X11801068Y-33191101D01*
X11980393Y-33409608D01*
X12198900Y-33588932D01*
X12448193Y-33722182D01*
X12718692Y-33804236D01*
X13000000Y-33831943D01*
X13281309Y-33804236D01*
X13551808Y-33722182D01*
X13801101Y-33588932D01*
X14019608Y-33409608D01*
X14198932Y-33191101D01*
X14332182Y-32941808D01*
X14414236Y-32671308D01*
X14435000Y-32460491D01*
X14435000Y-31619508D01*
X14414236Y-31408691D01*
X14332182Y-31138192D01*
X14198932Y-30888899D01*
X14019607Y-30670392D01*
X13801100Y-30491068D01*
X13551807Y-30357818D01*
X13281308Y-30275764D01*
X13000000Y-30248057D01*
X12718691Y-30275764D01*
X12448192Y-30357818D01*
X12198899Y-30491068D01*
X11980392Y-30670393D01*
X11801068Y-30888900D01*
X11667818Y-31138193D01*
X11585764Y-31408692D01*
X11565000Y-31619509D01*
X7029650Y-31619509D01*
X6894127Y-31547071D01*
X6651904Y-31473593D01*
X6463123Y-31455000D01*
X5336877Y-31455000D01*
X5148096Y-31473593D01*
X4905873Y-31547071D01*
X4682638Y-31666392D01*
X4486972Y-31826972D01*
X4326392Y-32022638D01*
X4207071Y-32245873D01*
X4133593Y-32488096D01*
X4108783Y-32740000D01*
X4133593Y-32991904D01*
X4207071Y-33234127D01*
X4326392Y-33457362D01*
X4486972Y-33653028D01*
X4682638Y-33813608D01*
X4905873Y-33932929D01*
X5140000Y-34003951D01*
X5140000Y-34425198D01*
X4922297Y-34642901D01*
X4724759Y-34445363D01*
X4489727Y-34288320D01*
X4228574Y-34180147D01*
X3951335Y-34125000D01*
X3668665Y-34125000D01*
X3391426Y-34180147D01*
X3130273Y-34288320D01*
X2895241Y-34445363D01*
X2695363Y-34645241D01*
X2538320Y-34880273D01*
X2430147Y-35141426D01*
X2375000Y-35418665D01*
X660000Y-35418665D01*
X660000Y-29277092D01*
X775105Y-29394500D01*
X1008354Y-29553715D01*
X1268182Y-29664367D01*
X1350961Y-29681904D01*
X1573000Y-29559915D01*
X1573000Y-28067000D01*
X1827000Y-28067000D01*
X1827000Y-29559915D01*
X2049039Y-29681904D01*
X2131818Y-29664367D01*
X2391646Y-29553715D01*
X2624895Y-29394500D01*
X2822601Y-29192839D01*
X2977166Y-28956483D01*
X3082650Y-28694514D01*
X3135000Y-28417000D01*
X3135000Y-28067000D01*
X1827000Y-28067000D01*
X1573000Y-28067000D01*
X1553000Y-28067000D01*
X1553000Y-27813000D01*
X1573000Y-27813000D01*
X1573000Y-26320085D01*
X1827000Y-26320085D01*
X1827000Y-27813000D01*
X3135000Y-27813000D01*
X3135000Y-27463000D01*
X3082650Y-27185486D01*
X2977166Y-26923517D01*
X2822601Y-26687161D01*
X2624895Y-26485500D01*
X2391646Y-26326285D01*
X2131818Y-26215633D01*
X2049039Y-26198096D01*
X1827000Y-26320085D01*
X1573000Y-26320085D01*
X1350961Y-26198096D01*
X1268182Y-26215633D01*
X1008354Y-26326285D01*
X775105Y-26485500D01*
X660000Y-26602908D01*
X660000Y-25340000D01*
X6808057Y-25340000D01*
X6835764Y-25621309D01*
X6917818Y-25891808D01*
X7051068Y-26141101D01*
X7230392Y-26359608D01*
X7448899Y-26538932D01*
X7698192Y-26672182D01*
X7968691Y-26754236D01*
X8179508Y-26775000D01*
X9020492Y-26775000D01*
X9231309Y-26754236D01*
X9501808Y-26672182D01*
X9751101Y-26538932D01*
X9969608Y-26359608D01*
X10148932Y-26141101D01*
X10282182Y-25891808D01*
X10364236Y-25621309D01*
X10391943Y-25340000D01*
X10364236Y-25058691D01*
X10282182Y-24788192D01*
X10148932Y-24538899D01*
X9969608Y-24320392D01*
X9751101Y-24141068D01*
X9533953Y-24025000D01*
X10163123Y-24025000D01*
X10351904Y-24006407D01*
X10594127Y-23932929D01*
X10817362Y-23813608D01*
X11013028Y-23653028D01*
X11173608Y-23457362D01*
X11292929Y-23234127D01*
X11366407Y-22991904D01*
X11391217Y-22740000D01*
X11366407Y-22488096D01*
X11292929Y-22245873D01*
X11173608Y-22022638D01*
X11013028Y-21826972D01*
X10817362Y-21666392D01*
X10594127Y-21547071D01*
X10351904Y-21473593D01*
X10163123Y-21455000D01*
X9036877Y-21455000D01*
X8848096Y-21473593D01*
X8605873Y-21547071D01*
X8382638Y-21666392D01*
X8186972Y-21826972D01*
X8026392Y-22022638D01*
X7907071Y-22245873D01*
X7833593Y-22488096D01*
X7808783Y-22740000D01*
X7833593Y-22991904D01*
X7907071Y-23234127D01*
X8026392Y-23457362D01*
X8186972Y-23653028D01*
X8382638Y-23813608D01*
X8553621Y-23905000D01*
X8179508Y-23905000D01*
X7968691Y-23925764D01*
X7698192Y-24007818D01*
X7448899Y-24141068D01*
X7230392Y-24320392D01*
X7051068Y-24538899D01*
X6917818Y-24788192D01*
X6835764Y-25058691D01*
X6808057Y-25340000D01*
X660000Y-25340000D01*
X660000Y-20669039D01*
X2418096Y-20669039D01*
X2458754Y-20803087D01*
X2578963Y-21057420D01*
X2746481Y-21283414D01*
X2954869Y-21472385D01*
X3196119Y-21617070D01*
X3460960Y-21711909D01*
X3683000Y-21590624D01*
X3683000Y-20447000D01*
X3937000Y-20447000D01*
X3937000Y-21590624D01*
X4159040Y-21711909D01*
X4423881Y-21617070D01*
X4665131Y-21472385D01*
X4873519Y-21283414D01*
X5041037Y-21057420D01*
X5161246Y-20803087D01*
X5201904Y-20669039D01*
X5079915Y-20447000D01*
X3937000Y-20447000D01*
X3683000Y-20447000D01*
X2540085Y-20447000D01*
X2418096Y-20669039D01*
X660000Y-20669039D01*
X660000Y-19970961D01*
X2418096Y-19970961D01*
X2540085Y-20193000D01*
X3683000Y-20193000D01*
X3683000Y-19049376D01*
X3937000Y-19049376D01*
X3937000Y-20193000D01*
X5079915Y-20193000D01*
X5201904Y-19970961D01*
X5161246Y-19836913D01*
X5041037Y-19582580D01*
X4873519Y-19356586D01*
X4665131Y-19167615D01*
X4423881Y-19022930D01*
X4159040Y-18928091D01*
X3937000Y-19049376D01*
X3683000Y-19049376D01*
X3460960Y-18928091D01*
X3196119Y-19022930D01*
X2954869Y-19167615D01*
X2746481Y-19356586D01*
X2578963Y-19582580D01*
X2458754Y-19836913D01*
X2418096Y-19970961D01*
X660000Y-19970961D01*
X660000Y-17500000D01*
X4108783Y-17500000D01*
X4133593Y-17751904D01*
X4207071Y-17994127D01*
X4326392Y-18217362D01*
X4486972Y-18413028D01*
X4682638Y-18573608D01*
X4905873Y-18692929D01*
X5148096Y-18766407D01*
X5336877Y-18785000D01*
X6463123Y-18785000D01*
X6651904Y-18766407D01*
X6894127Y-18692929D01*
X7117362Y-18573608D01*
X7313028Y-18413028D01*
X7438616Y-18260000D01*
X8295199Y-18260000D01*
X10031312Y-19996114D01*
X9995000Y-20178665D01*
X9995000Y-20461335D01*
X10050147Y-20738574D01*
X10158320Y-20999727D01*
X10315363Y-21234759D01*
X10515241Y-21434637D01*
X10750273Y-21591680D01*
X11011426Y-21699853D01*
X11288665Y-21755000D01*
X11571335Y-21755000D01*
X11848574Y-21699853D01*
X12109727Y-21591680D01*
X12344759Y-21434637D01*
X12544637Y-21234759D01*
X12701680Y-20999727D01*
X12809853Y-20738574D01*
X12865000Y-20461335D01*
X12865000Y-20178665D01*
X12809853Y-19901426D01*
X12701680Y-19640273D01*
X12544637Y-19405241D01*
X12344759Y-19205363D01*
X12109727Y-19048320D01*
X11848574Y-18940147D01*
X11571335Y-18885000D01*
X11288665Y-18885000D01*
X11106114Y-18921312D01*
X9173804Y-16989003D01*
X9150001Y-16959999D01*
X9034276Y-16865026D01*
X8902247Y-16794454D01*
X8758986Y-16750997D01*
X8647333Y-16740000D01*
X8647322Y-16740000D01*
X8610000Y-16736324D01*
X8572678Y-16740000D01*
X7438616Y-16740000D01*
X7313028Y-16586972D01*
X7117362Y-16426392D01*
X7029650Y-16379509D01*
X11565000Y-16379509D01*
X11565000Y-17220492D01*
X11585764Y-17431309D01*
X11667818Y-17701808D01*
X11801068Y-17951101D01*
X11980393Y-18169608D01*
X12198900Y-18348932D01*
X12448193Y-18482182D01*
X12718692Y-18564236D01*
X13000000Y-18591943D01*
X13281309Y-18564236D01*
X13551808Y-18482182D01*
X13801101Y-18348932D01*
X14019608Y-18169608D01*
X14198932Y-17951101D01*
X14332182Y-17701808D01*
X14414236Y-17431308D01*
X14435000Y-17220491D01*
X14435000Y-16379508D01*
X14414236Y-16168691D01*
X14332182Y-15898192D01*
X14198932Y-15648899D01*
X14019607Y-15430392D01*
X13801100Y-15251068D01*
X13551807Y-15117818D01*
X13281308Y-15035764D01*
X13000000Y-15008057D01*
X12718691Y-15035764D01*
X12448192Y-15117818D01*
X12198899Y-15251068D01*
X11980392Y-15430393D01*
X11801068Y-15648900D01*
X11667818Y-15898193D01*
X11585764Y-16168692D01*
X11565000Y-16379509D01*
X7029650Y-16379509D01*
X6894127Y-16307071D01*
X6651904Y-16233593D01*
X6463123Y-16215000D01*
X5336877Y-16215000D01*
X5148096Y-16233593D01*
X4905873Y-16307071D01*
X4682638Y-16426392D01*
X4486972Y-16586972D01*
X4326392Y-16782638D01*
X4207071Y-17005873D01*
X4133593Y-17248096D01*
X4108783Y-17500000D01*
X660000Y-17500000D01*
X660000Y-14037092D01*
X775105Y-14154500D01*
X1008354Y-14313715D01*
X1268182Y-14424367D01*
X1350961Y-14441904D01*
X1573000Y-14319915D01*
X1573000Y-12827000D01*
X1827000Y-12827000D01*
X1827000Y-14319915D01*
X2049039Y-14441904D01*
X2131818Y-14424367D01*
X2391646Y-14313715D01*
X2624895Y-14154500D01*
X2822601Y-13952839D01*
X2977166Y-13716483D01*
X3082650Y-13454514D01*
X3135000Y-13177000D01*
X3135000Y-12827000D01*
X1827000Y-12827000D01*
X1573000Y-12827000D01*
X1553000Y-12827000D01*
X1553000Y-12573000D01*
X1573000Y-12573000D01*
X1573000Y-11080085D01*
X1827000Y-11080085D01*
X1827000Y-12573000D01*
X3135000Y-12573000D01*
X3135000Y-12223000D01*
X3082650Y-11945486D01*
X2977166Y-11683517D01*
X2822601Y-11447161D01*
X2624895Y-11245500D01*
X2391646Y-11086285D01*
X2131818Y-10975633D01*
X2049039Y-10958096D01*
X1827000Y-11080085D01*
X1573000Y-11080085D01*
X1350961Y-10958096D01*
X1268182Y-10975633D01*
X1008354Y-11086285D01*
X775105Y-11245500D01*
X660000Y-11362908D01*
X660000Y-10100000D01*
X6808057Y-10100000D01*
X6835764Y-10381309D01*
X6917818Y-10651808D01*
X7051068Y-10901101D01*
X7230392Y-11119608D01*
X7448899Y-11298932D01*
X7698192Y-11432182D01*
X7968691Y-11514236D01*
X8179508Y-11535000D01*
X9020492Y-11535000D01*
X9231309Y-11514236D01*
X9501808Y-11432182D01*
X9751101Y-11298932D01*
X9969608Y-11119608D01*
X10148932Y-10901101D01*
X10282182Y-10651808D01*
X10364236Y-10381309D01*
X10391943Y-10100000D01*
X10364236Y-9818691D01*
X10282182Y-9548192D01*
X10148932Y-9298899D01*
X9969608Y-9080392D01*
X9751101Y-8901068D01*
X9533953Y-8785000D01*
X10163123Y-8785000D01*
X10351904Y-8766407D01*
X10594127Y-8692929D01*
X10817362Y-8573608D01*
X11013028Y-8413028D01*
X11173608Y-8217362D01*
X11292929Y-7994127D01*
X11366407Y-7751904D01*
X11391217Y-7500000D01*
X11366407Y-7248096D01*
X11292929Y-7005873D01*
X11173608Y-6782638D01*
X11013028Y-6586972D01*
X10817362Y-6426392D01*
X10594127Y-6307071D01*
X10351904Y-6233593D01*
X10163123Y-6215000D01*
X9036877Y-6215000D01*
X8848096Y-6233593D01*
X8605873Y-6307071D01*
X8382638Y-6426392D01*
X8186972Y-6586972D01*
X8026392Y-6782638D01*
X7907071Y-7005873D01*
X7833593Y-7248096D01*
X7808783Y-7500000D01*
X7833593Y-7751904D01*
X7907071Y-7994127D01*
X8026392Y-8217362D01*
X8186972Y-8413028D01*
X8382638Y-8573608D01*
X8553621Y-8665000D01*
X8179508Y-8665000D01*
X7968691Y-8685764D01*
X7698192Y-8767818D01*
X7448899Y-8901068D01*
X7230392Y-9080392D01*
X7051068Y-9298899D01*
X6917818Y-9548192D01*
X6835764Y-9818691D01*
X6808057Y-10100000D01*
X660000Y-10100000D01*
X660000Y-660000D01*
X33630000Y-660000D01*
X33630001Y-71730000D01*
G04 #@! TA.AperFunction,Conductor*
D23*
G36*
X33630001Y-71730000D02*
G01*
X28777195Y-71730000D01*
X28857205Y-71610256D01*
X28935226Y-71421898D01*
X28975000Y-71221939D01*
X28975000Y-71018061D01*
X28935226Y-70818102D01*
X28857205Y-70629744D01*
X28743937Y-70460226D01*
X28700000Y-70416289D01*
X28700000Y-68289396D01*
X28835241Y-68424637D01*
X29070273Y-68581680D01*
X29331426Y-68689853D01*
X29608665Y-68745000D01*
X29891335Y-68745000D01*
X30168574Y-68689853D01*
X30429727Y-68581680D01*
X30485210Y-68544607D01*
X30498815Y-68561185D01*
X30595506Y-68640537D01*
X30705820Y-68699502D01*
X30825518Y-68735812D01*
X30950000Y-68748072D01*
X31464250Y-68745000D01*
X31623000Y-68586250D01*
X31623000Y-67437000D01*
X31877000Y-67437000D01*
X31877000Y-68586250D01*
X32035750Y-68745000D01*
X32550000Y-68748072D01*
X32674482Y-68735812D01*
X32794180Y-68699502D01*
X32904494Y-68640537D01*
X33001185Y-68561185D01*
X33080537Y-68464494D01*
X33139502Y-68354180D01*
X33175812Y-68234482D01*
X33188072Y-68110000D01*
X33185000Y-67595750D01*
X33026250Y-67437000D01*
X31877000Y-67437000D01*
X31623000Y-67437000D01*
X31603000Y-67437000D01*
X31603000Y-67183000D01*
X31623000Y-67183000D01*
X31623000Y-66033750D01*
X31877000Y-66033750D01*
X31877000Y-67183000D01*
X33026250Y-67183000D01*
X33185000Y-67024250D01*
X33188072Y-66510000D01*
X33175812Y-66385518D01*
X33139502Y-66265820D01*
X33080537Y-66155506D01*
X33001185Y-66058815D01*
X32904494Y-65979463D01*
X32794180Y-65920498D01*
X32674482Y-65884188D01*
X32550000Y-65871928D01*
X32035750Y-65875000D01*
X31877000Y-66033750D01*
X31623000Y-66033750D01*
X31464250Y-65875000D01*
X30950000Y-65871928D01*
X30825518Y-65884188D01*
X30705820Y-65920498D01*
X30595506Y-65979463D01*
X30510000Y-66049636D01*
X30510000Y-64933711D01*
X30648937Y-64794774D01*
X30762205Y-64625256D01*
X30840226Y-64436898D01*
X30880000Y-64236939D01*
X30880000Y-64174801D01*
X31626003Y-63428799D01*
X31655001Y-63405001D01*
X31749974Y-63289276D01*
X31820546Y-63157247D01*
X31864003Y-63013986D01*
X31875000Y-62902333D01*
X31875000Y-62902324D01*
X31878676Y-62865001D01*
X31875000Y-62827678D01*
X31875000Y-55113043D01*
X32029759Y-55009637D01*
X32229637Y-54809759D01*
X32386680Y-54574727D01*
X32494853Y-54313574D01*
X32550000Y-54036335D01*
X32550000Y-53753665D01*
X32494853Y-53476426D01*
X32386680Y-53215273D01*
X32229637Y-52980241D01*
X32029759Y-52780363D01*
X31794727Y-52623320D01*
X31533574Y-52515147D01*
X31256335Y-52460000D01*
X30973665Y-52460000D01*
X30696426Y-52515147D01*
X30435273Y-52623320D01*
X30200241Y-52780363D01*
X30000363Y-52980241D01*
X29843320Y-53215273D01*
X29735147Y-53476426D01*
X29716606Y-53569639D01*
X29672182Y-53423192D01*
X29538932Y-53173899D01*
X29359608Y-52955392D01*
X29141101Y-52776068D01*
X29008142Y-52705000D01*
X29141101Y-52633932D01*
X29359608Y-52454608D01*
X29538932Y-52236101D01*
X29672182Y-51986808D01*
X29754236Y-51716309D01*
X29781943Y-51435000D01*
X29754236Y-51153691D01*
X29672182Y-50883192D01*
X29538932Y-50633899D01*
X29359608Y-50415392D01*
X29141101Y-50236068D01*
X29008142Y-50165000D01*
X29141101Y-50093932D01*
X29359608Y-49914608D01*
X29381689Y-49887702D01*
X30301903Y-49887702D01*
X30373486Y-50131671D01*
X30628996Y-50252571D01*
X30903184Y-50321300D01*
X31185512Y-50335217D01*
X31465130Y-50293787D01*
X31731292Y-50198603D01*
X31856514Y-50131671D01*
X31928097Y-49887702D01*
X31115000Y-49074605D01*
X30301903Y-49887702D01*
X29381689Y-49887702D01*
X29538932Y-49696101D01*
X29672182Y-49446808D01*
X29725490Y-49271072D01*
X29811397Y-49511292D01*
X29878329Y-49636514D01*
X30122298Y-49708097D01*
X30935395Y-48895000D01*
X31294605Y-48895000D01*
X32107702Y-49708097D01*
X32351671Y-49636514D01*
X32472571Y-49381004D01*
X32541300Y-49106816D01*
X32555217Y-48824488D01*
X32513787Y-48544870D01*
X32418603Y-48278708D01*
X32351671Y-48153486D01*
X32107702Y-48081903D01*
X31294605Y-48895000D01*
X30935395Y-48895000D01*
X30122298Y-48081903D01*
X29878329Y-48153486D01*
X29757429Y-48408996D01*
X29727890Y-48526839D01*
X29672182Y-48343192D01*
X29538932Y-48093899D01*
X29381690Y-47902298D01*
X30301903Y-47902298D01*
X31115000Y-48715395D01*
X31928097Y-47902298D01*
X31856514Y-47658329D01*
X31601004Y-47537429D01*
X31326816Y-47468700D01*
X31044488Y-47454783D01*
X30764870Y-47496213D01*
X30498708Y-47591397D01*
X30373486Y-47658329D01*
X30301903Y-47902298D01*
X29381690Y-47902298D01*
X29359608Y-47875392D01*
X29141101Y-47696068D01*
X29008142Y-47625000D01*
X29141101Y-47553932D01*
X29359608Y-47374608D01*
X29538932Y-47156101D01*
X29672182Y-46906808D01*
X29754236Y-46636309D01*
X29781943Y-46355000D01*
X29754236Y-46073691D01*
X29672182Y-45803192D01*
X29538932Y-45553899D01*
X29359608Y-45335392D01*
X29141101Y-45156068D01*
X28891808Y-45022818D01*
X28621309Y-44940764D01*
X28410492Y-44920000D01*
X27469508Y-44920000D01*
X27258691Y-44940764D01*
X26988192Y-45022818D01*
X26738899Y-45156068D01*
X26520392Y-45335392D01*
X26341068Y-45553899D01*
X26207818Y-45803192D01*
X26125764Y-46073691D01*
X26098057Y-46355000D01*
X26125764Y-46636309D01*
X26207818Y-46906808D01*
X26341068Y-47156101D01*
X26520392Y-47374608D01*
X26738899Y-47553932D01*
X26871858Y-47625000D01*
X26738899Y-47696068D01*
X26520392Y-47875392D01*
X26341068Y-48093899D01*
X26207818Y-48343192D01*
X26125764Y-48613691D01*
X26098057Y-48895000D01*
X26125764Y-49176309D01*
X26207818Y-49446808D01*
X26341068Y-49696101D01*
X26520392Y-49914608D01*
X26738899Y-50093932D01*
X26871858Y-50165000D01*
X26738899Y-50236068D01*
X26520392Y-50415392D01*
X26341068Y-50633899D01*
X26238155Y-50826436D01*
X26203937Y-50775226D01*
X26059774Y-50631063D01*
X25890256Y-50517795D01*
X25701898Y-50439774D01*
X25501939Y-50400000D01*
X25298061Y-50400000D01*
X25098102Y-50439774D01*
X24909744Y-50517795D01*
X24890000Y-50530987D01*
X24890000Y-49598711D01*
X24933937Y-49554774D01*
X25047205Y-49385256D01*
X25125226Y-49196898D01*
X25165000Y-48996939D01*
X25165000Y-48793061D01*
X25125226Y-48593102D01*
X25047205Y-48404744D01*
X24933937Y-48235226D01*
X24789774Y-48091063D01*
X24620256Y-47977795D01*
X24431898Y-47899774D01*
X24231939Y-47860000D01*
X24028061Y-47860000D01*
X23828102Y-47899774D01*
X23639744Y-47977795D01*
X23620000Y-47990987D01*
X23620000Y-21023711D01*
X23663937Y-20979774D01*
X23777205Y-20810256D01*
X23855226Y-20621898D01*
X23895000Y-20421939D01*
X23895000Y-20218061D01*
X23855226Y-20018102D01*
X23777205Y-19829744D01*
X23663937Y-19660226D01*
X23519774Y-19516063D01*
X23350256Y-19402795D01*
X23161898Y-19324774D01*
X22961939Y-19285000D01*
X22758061Y-19285000D01*
X22558102Y-19324774D01*
X22369744Y-19402795D01*
X22200226Y-19516063D01*
X22056063Y-19660226D01*
X21942795Y-19829744D01*
X21864774Y-20018102D01*
X21825000Y-20218061D01*
X21825000Y-20421939D01*
X21864774Y-20621898D01*
X21942795Y-20810256D01*
X22056063Y-20979774D01*
X22100001Y-21023712D01*
X22100000Y-45293044D01*
X22050537Y-45200506D01*
X21971185Y-45103815D01*
X21874494Y-45024463D01*
X21764180Y-44965498D01*
X21644482Y-44929188D01*
X21520000Y-44916928D01*
X21080000Y-44916928D01*
X21080000Y-36263711D01*
X21123937Y-36219774D01*
X21237205Y-36050256D01*
X21315226Y-35861898D01*
X21355000Y-35661939D01*
X21355000Y-35458061D01*
X21315226Y-35258102D01*
X21237205Y-35069744D01*
X21123937Y-34900226D01*
X20979774Y-34756063D01*
X20810256Y-34642795D01*
X20621898Y-34564774D01*
X20421939Y-34525000D01*
X20218061Y-34525000D01*
X20018102Y-34564774D01*
X19829744Y-34642795D01*
X19660226Y-34756063D01*
X19516063Y-34900226D01*
X19402795Y-35069744D01*
X19324774Y-35258102D01*
X19285000Y-35458061D01*
X19285000Y-35661939D01*
X19324774Y-35861898D01*
X19402795Y-36050256D01*
X19516063Y-36219774D01*
X19560001Y-36263712D01*
X19560000Y-44916928D01*
X19120000Y-44916928D01*
X18995518Y-44929188D01*
X18875820Y-44965498D01*
X18765506Y-45024463D01*
X18668815Y-45103815D01*
X18589463Y-45200506D01*
X18530498Y-45310820D01*
X18494188Y-45430518D01*
X18481928Y-45555000D01*
X18481928Y-47155000D01*
X18494188Y-47279482D01*
X18530498Y-47399180D01*
X18589463Y-47509494D01*
X18668815Y-47606185D01*
X18765506Y-47685537D01*
X18875820Y-47744502D01*
X18995518Y-47780812D01*
X19013482Y-47782581D01*
X18900392Y-47875392D01*
X18721068Y-48093899D01*
X18587818Y-48343192D01*
X18521380Y-48562213D01*
X18448603Y-48358708D01*
X18381671Y-48233486D01*
X18137702Y-48161903D01*
X17324605Y-48975000D01*
X18137702Y-49788097D01*
X18381671Y-49716514D01*
X18502571Y-49461004D01*
X18543090Y-49299358D01*
X18587818Y-49446808D01*
X18721068Y-49696101D01*
X18900392Y-49914608D01*
X19118899Y-50093932D01*
X19251858Y-50165000D01*
X19118899Y-50236068D01*
X18900392Y-50415392D01*
X18721068Y-50633899D01*
X18587818Y-50883192D01*
X18505764Y-51153691D01*
X18478057Y-51435000D01*
X18505764Y-51716309D01*
X18587818Y-51986808D01*
X18721068Y-52236101D01*
X18900392Y-52454608D01*
X19118899Y-52633932D01*
X19251858Y-52705000D01*
X19118899Y-52776068D01*
X18900392Y-52955392D01*
X18721068Y-53173899D01*
X18587818Y-53423192D01*
X18533783Y-53601322D01*
X18524853Y-53556426D01*
X18416680Y-53295273D01*
X18259637Y-53060241D01*
X18059759Y-52860363D01*
X17824727Y-52703320D01*
X17563574Y-52595147D01*
X17286335Y-52540000D01*
X17003665Y-52540000D01*
X16726426Y-52595147D01*
X16465273Y-52703320D01*
X16230241Y-52860363D01*
X16030363Y-53060241D01*
X16000000Y-53105683D01*
X16000000Y-51503711D01*
X16043937Y-51459774D01*
X16157205Y-51290256D01*
X16235226Y-51101898D01*
X16275000Y-50901939D01*
X16275000Y-50698061D01*
X16235226Y-50498102D01*
X16157205Y-50309744D01*
X16043937Y-50140226D01*
X15899774Y-49996063D01*
X15857329Y-49967702D01*
X16331903Y-49967702D01*
X16403486Y-50211671D01*
X16658996Y-50332571D01*
X16933184Y-50401300D01*
X17215512Y-50415217D01*
X17495130Y-50373787D01*
X17761292Y-50278603D01*
X17886514Y-50211671D01*
X17958097Y-49967702D01*
X17145000Y-49154605D01*
X16331903Y-49967702D01*
X15857329Y-49967702D01*
X15730256Y-49882795D01*
X15541898Y-49804774D01*
X15341939Y-49765000D01*
X15138061Y-49765000D01*
X14938102Y-49804774D01*
X14749744Y-49882795D01*
X14580226Y-49996063D01*
X14436063Y-50140226D01*
X14322795Y-50309744D01*
X14244774Y-50498102D01*
X14205000Y-50698061D01*
X14205000Y-50901939D01*
X14244774Y-51101898D01*
X14322795Y-51290256D01*
X14436063Y-51459774D01*
X14480001Y-51503712D01*
X14480000Y-58351289D01*
X14436063Y-58395226D01*
X14322795Y-58564744D01*
X14244774Y-58753102D01*
X14205000Y-58953061D01*
X14205000Y-59156939D01*
X14244774Y-59356898D01*
X14322795Y-59545256D01*
X14436063Y-59714774D01*
X14580226Y-59858937D01*
X14749744Y-59972205D01*
X14938102Y-60050226D01*
X15138061Y-60090000D01*
X15341939Y-60090000D01*
X15541898Y-60050226D01*
X15730256Y-59972205D01*
X15899774Y-59858937D01*
X16043937Y-59714774D01*
X16157205Y-59545256D01*
X16235226Y-59356898D01*
X16275000Y-59156939D01*
X16275000Y-58953061D01*
X16235226Y-58753102D01*
X16157205Y-58564744D01*
X16043937Y-58395226D01*
X16000000Y-58351289D01*
X16000000Y-54844317D01*
X16030363Y-54889759D01*
X16230241Y-55089637D01*
X16385000Y-55193043D01*
X16385001Y-67141928D01*
X16345000Y-67141928D01*
X16220518Y-67154188D01*
X16100820Y-67190498D01*
X15990506Y-67249463D01*
X15893815Y-67328815D01*
X15814463Y-67425506D01*
X15755498Y-67535820D01*
X15719188Y-67655518D01*
X15706928Y-67780000D01*
X15706928Y-69380000D01*
X15714960Y-69461557D01*
X15573102Y-69489774D01*
X15384744Y-69567795D01*
X15365000Y-69580987D01*
X15365000Y-64838711D01*
X15408937Y-64794774D01*
X15522205Y-64625256D01*
X15600226Y-64436898D01*
X15640000Y-64236939D01*
X15640000Y-64033061D01*
X15600226Y-63833102D01*
X15522205Y-63644744D01*
X15408937Y-63475226D01*
X15264774Y-63331063D01*
X15095256Y-63217795D01*
X14906898Y-63139774D01*
X14706939Y-63100000D01*
X14503061Y-63100000D01*
X14417615Y-63116996D01*
X14435000Y-62940491D01*
X14435000Y-62099508D01*
X14414236Y-61888691D01*
X14332182Y-61618192D01*
X14198932Y-61368899D01*
X14019607Y-61150392D01*
X13801100Y-60971068D01*
X13551807Y-60837818D01*
X13281308Y-60755764D01*
X13000000Y-60728057D01*
X12718691Y-60755764D01*
X12448192Y-60837818D01*
X12198899Y-60971068D01*
X11980392Y-61150393D01*
X11801068Y-61368900D01*
X11667818Y-61618193D01*
X11585764Y-61888692D01*
X11565000Y-62099509D01*
X11565000Y-62940492D01*
X11585764Y-63151309D01*
X11667818Y-63421808D01*
X11801068Y-63671101D01*
X11980393Y-63889608D01*
X12198900Y-64068932D01*
X12448193Y-64202182D01*
X12718692Y-64284236D01*
X13000000Y-64311943D01*
X13281309Y-64284236D01*
X13551808Y-64202182D01*
X13570000Y-64192458D01*
X13570000Y-64236939D01*
X13609774Y-64436898D01*
X13687795Y-64625256D01*
X13801063Y-64794774D01*
X13845000Y-64838711D01*
X13845000Y-76247096D01*
X13801100Y-76211068D01*
X13551807Y-76077818D01*
X13281308Y-75995764D01*
X13000000Y-75968057D01*
X12718691Y-75995764D01*
X12448192Y-76077818D01*
X12198899Y-76211068D01*
X11980392Y-76390393D01*
X11801068Y-76608900D01*
X11667818Y-76858193D01*
X11585764Y-77128692D01*
X11565000Y-77339509D01*
X11565000Y-78180492D01*
X11585764Y-78391309D01*
X11667818Y-78661808D01*
X11801068Y-78911101D01*
X11980393Y-79129608D01*
X12198900Y-79308932D01*
X12448193Y-79442182D01*
X12718692Y-79524236D01*
X13000000Y-79551943D01*
X13281309Y-79524236D01*
X13551808Y-79442182D01*
X13801101Y-79308932D01*
X13845001Y-79272905D01*
X13845001Y-89466288D01*
X13801063Y-89510226D01*
X13687795Y-89679744D01*
X13609774Y-89868102D01*
X13570000Y-90068061D01*
X13570000Y-90271939D01*
X13609774Y-90471898D01*
X13687795Y-90660256D01*
X13801063Y-90829774D01*
X13945226Y-90973937D01*
X14114744Y-91087205D01*
X14303102Y-91165226D01*
X14503061Y-91205000D01*
X14706939Y-91205000D01*
X14906898Y-91165226D01*
X15095256Y-91087205D01*
X15115001Y-91074012D01*
X15115001Y-95816288D01*
X15071063Y-95860226D01*
X14957795Y-96029744D01*
X14879774Y-96218102D01*
X14840000Y-96418061D01*
X14840000Y-96621939D01*
X14879774Y-96821898D01*
X14957795Y-97010256D01*
X15071063Y-97179774D01*
X15215226Y-97323937D01*
X15384744Y-97437205D01*
X15573102Y-97515226D01*
X15773061Y-97555000D01*
X15976939Y-97555000D01*
X16176898Y-97515226D01*
X16365256Y-97437205D01*
X16534774Y-97323937D01*
X16678937Y-97179774D01*
X16792205Y-97010256D01*
X16870226Y-96821898D01*
X16910000Y-96621939D01*
X16910000Y-96607911D01*
X16996014Y-96634003D01*
X17107667Y-96645000D01*
X17145000Y-96648677D01*
X17182333Y-96645000D01*
X19041822Y-96645000D01*
X19166525Y-96831632D01*
X19373368Y-97038475D01*
X19616589Y-97200990D01*
X19886842Y-97312932D01*
X20173740Y-97370000D01*
X20466260Y-97370000D01*
X20753158Y-97312932D01*
X21023411Y-97200990D01*
X21266632Y-97038475D01*
X21473475Y-96831632D01*
X21590000Y-96657240D01*
X21706525Y-96831632D01*
X21913368Y-97038475D01*
X22156589Y-97200990D01*
X22426842Y-97312932D01*
X22713740Y-97370000D01*
X23006260Y-97370000D01*
X23293158Y-97312932D01*
X23470001Y-97239682D01*
X23470001Y-100940000D01*
X660000Y-100940000D01*
X660000Y-96378665D01*
X2375000Y-96378665D01*
X2375000Y-96661335D01*
X2430147Y-96938574D01*
X2538320Y-97199727D01*
X2695363Y-97434759D01*
X2895241Y-97634637D01*
X3130273Y-97791680D01*
X3391426Y-97899853D01*
X3668665Y-97955000D01*
X3951335Y-97955000D01*
X4228574Y-97899853D01*
X4489727Y-97791680D01*
X4724759Y-97634637D01*
X4924637Y-97434759D01*
X5028043Y-97280000D01*
X5042678Y-97280000D01*
X5080000Y-97283676D01*
X5117322Y-97280000D01*
X5117333Y-97280000D01*
X5228986Y-97269003D01*
X5372247Y-97225546D01*
X5504276Y-97154974D01*
X5620001Y-97060001D01*
X5643803Y-97030998D01*
X6296136Y-96378665D01*
X9995000Y-96378665D01*
X9995000Y-96661335D01*
X10050147Y-96938574D01*
X10158320Y-97199727D01*
X10315363Y-97434759D01*
X10515241Y-97634637D01*
X10750273Y-97791680D01*
X11011426Y-97899853D01*
X11288665Y-97955000D01*
X11571335Y-97955000D01*
X11848574Y-97899853D01*
X12109727Y-97791680D01*
X12344759Y-97634637D01*
X12544637Y-97434759D01*
X12701680Y-97199727D01*
X12809853Y-96938574D01*
X12865000Y-96661335D01*
X12865000Y-96378665D01*
X12809853Y-96101426D01*
X12701680Y-95840273D01*
X12544637Y-95605241D01*
X12344759Y-95405363D01*
X12109727Y-95248320D01*
X11848574Y-95140147D01*
X11571335Y-95085000D01*
X11288665Y-95085000D01*
X11011426Y-95140147D01*
X10750273Y-95248320D01*
X10515241Y-95405363D01*
X10315363Y-95605241D01*
X10158320Y-95840273D01*
X10050147Y-96101426D01*
X9995000Y-96378665D01*
X6296136Y-96378665D01*
X6411004Y-96263798D01*
X6440001Y-96240001D01*
X6491502Y-96177247D01*
X6534974Y-96124277D01*
X6605546Y-95992247D01*
X6609261Y-95979999D01*
X6649003Y-95848986D01*
X6660000Y-95737333D01*
X6660000Y-95737324D01*
X6663676Y-95700001D01*
X6660000Y-95662678D01*
X6660000Y-94963951D01*
X6894127Y-94892929D01*
X7117362Y-94773608D01*
X7313028Y-94613028D01*
X7473608Y-94417362D01*
X7592929Y-94194127D01*
X7666407Y-93951904D01*
X7691217Y-93700000D01*
X7666407Y-93448096D01*
X7592929Y-93205873D01*
X7473608Y-92982638D01*
X7313028Y-92786972D01*
X7117362Y-92626392D01*
X7029650Y-92579509D01*
X11565000Y-92579509D01*
X11565000Y-93420492D01*
X11585764Y-93631309D01*
X11667818Y-93901808D01*
X11801068Y-94151101D01*
X11980393Y-94369608D01*
X12198900Y-94548932D01*
X12448193Y-94682182D01*
X12718692Y-94764236D01*
X13000000Y-94791943D01*
X13281309Y-94764236D01*
X13551808Y-94682182D01*
X13801101Y-94548932D01*
X14019608Y-94369608D01*
X14198932Y-94151101D01*
X14332182Y-93901808D01*
X14414236Y-93631308D01*
X14435000Y-93420491D01*
X14435000Y-92579508D01*
X14414236Y-92368691D01*
X14332182Y-92098192D01*
X14198932Y-91848899D01*
X14019607Y-91630392D01*
X13801100Y-91451068D01*
X13551807Y-91317818D01*
X13281308Y-91235764D01*
X13000000Y-91208057D01*
X12718691Y-91235764D01*
X12448192Y-91317818D01*
X12198899Y-91451068D01*
X11980392Y-91630393D01*
X11801068Y-91848900D01*
X11667818Y-92098193D01*
X11585764Y-92368692D01*
X11565000Y-92579509D01*
X7029650Y-92579509D01*
X6894127Y-92507071D01*
X6651904Y-92433593D01*
X6463123Y-92415000D01*
X5336877Y-92415000D01*
X5148096Y-92433593D01*
X4905873Y-92507071D01*
X4682638Y-92626392D01*
X4486972Y-92786972D01*
X4326392Y-92982638D01*
X4207071Y-93205873D01*
X4133593Y-93448096D01*
X4108783Y-93700000D01*
X4133593Y-93951904D01*
X4207071Y-94194127D01*
X4326392Y-94417362D01*
X4486972Y-94613028D01*
X4682638Y-94773608D01*
X4905873Y-94892929D01*
X5140000Y-94963951D01*
X5140000Y-95385198D01*
X4922297Y-95602901D01*
X4724759Y-95405363D01*
X4489727Y-95248320D01*
X4228574Y-95140147D01*
X3951335Y-95085000D01*
X3668665Y-95085000D01*
X3391426Y-95140147D01*
X3130273Y-95248320D01*
X2895241Y-95405363D01*
X2695363Y-95605241D01*
X2538320Y-95840273D01*
X2430147Y-96101426D01*
X2375000Y-96378665D01*
X660000Y-96378665D01*
X660000Y-90237092D01*
X775105Y-90354500D01*
X1008354Y-90513715D01*
X1268182Y-90624367D01*
X1350961Y-90641904D01*
X1573000Y-90519915D01*
X1573000Y-89027000D01*
X1827000Y-89027000D01*
X1827000Y-90519915D01*
X2049039Y-90641904D01*
X2131818Y-90624367D01*
X2391646Y-90513715D01*
X2624895Y-90354500D01*
X2822601Y-90152839D01*
X2977166Y-89916483D01*
X3082650Y-89654514D01*
X3135000Y-89377000D01*
X3135000Y-89027000D01*
X1827000Y-89027000D01*
X1573000Y-89027000D01*
X1553000Y-89027000D01*
X1553000Y-88773000D01*
X1573000Y-88773000D01*
X1573000Y-87280085D01*
X1827000Y-87280085D01*
X1827000Y-88773000D01*
X3135000Y-88773000D01*
X3135000Y-88423000D01*
X3082650Y-88145486D01*
X2977166Y-87883517D01*
X2822601Y-87647161D01*
X2624895Y-87445500D01*
X2391646Y-87286285D01*
X2131818Y-87175633D01*
X2049039Y-87158096D01*
X1827000Y-87280085D01*
X1573000Y-87280085D01*
X1350961Y-87158096D01*
X1268182Y-87175633D01*
X1008354Y-87286285D01*
X775105Y-87445500D01*
X660000Y-87562908D01*
X660000Y-86300000D01*
X6808057Y-86300000D01*
X6835764Y-86581309D01*
X6917818Y-86851808D01*
X7051068Y-87101101D01*
X7230392Y-87319608D01*
X7448899Y-87498932D01*
X7698192Y-87632182D01*
X7968691Y-87714236D01*
X8179508Y-87735000D01*
X9020492Y-87735000D01*
X9231309Y-87714236D01*
X9501808Y-87632182D01*
X9751101Y-87498932D01*
X9969608Y-87319608D01*
X10148932Y-87101101D01*
X10282182Y-86851808D01*
X10364236Y-86581309D01*
X10391943Y-86300000D01*
X10364236Y-86018691D01*
X10282182Y-85748192D01*
X10148932Y-85498899D01*
X9969608Y-85280392D01*
X9751101Y-85101068D01*
X9533953Y-84985000D01*
X10163123Y-84985000D01*
X10351904Y-84966407D01*
X10594127Y-84892929D01*
X10817362Y-84773608D01*
X11013028Y-84613028D01*
X11173608Y-84417362D01*
X11292929Y-84194127D01*
X11366407Y-83951904D01*
X11391217Y-83700000D01*
X11366407Y-83448096D01*
X11292929Y-83205873D01*
X11173608Y-82982638D01*
X11013028Y-82786972D01*
X10817362Y-82626392D01*
X10594127Y-82507071D01*
X10351904Y-82433593D01*
X10163123Y-82415000D01*
X9036877Y-82415000D01*
X8848096Y-82433593D01*
X8605873Y-82507071D01*
X8382638Y-82626392D01*
X8186972Y-82786972D01*
X8026392Y-82982638D01*
X7907071Y-83205873D01*
X7833593Y-83448096D01*
X7808783Y-83700000D01*
X7833593Y-83951904D01*
X7907071Y-84194127D01*
X8026392Y-84417362D01*
X8186972Y-84613028D01*
X8382638Y-84773608D01*
X8553621Y-84865000D01*
X8179508Y-84865000D01*
X7968691Y-84885764D01*
X7698192Y-84967818D01*
X7448899Y-85101068D01*
X7230392Y-85280392D01*
X7051068Y-85498899D01*
X6917818Y-85748192D01*
X6835764Y-86018691D01*
X6808057Y-86300000D01*
X660000Y-86300000D01*
X660000Y-81138665D01*
X2375000Y-81138665D01*
X2375000Y-81421335D01*
X2430147Y-81698574D01*
X2538320Y-81959727D01*
X2695363Y-82194759D01*
X2895241Y-82394637D01*
X3130273Y-82551680D01*
X3391426Y-82659853D01*
X3668665Y-82715000D01*
X3951335Y-82715000D01*
X4228574Y-82659853D01*
X4489727Y-82551680D01*
X4724759Y-82394637D01*
X4924637Y-82194759D01*
X5028043Y-82040000D01*
X5042678Y-82040000D01*
X5080000Y-82043676D01*
X5117322Y-82040000D01*
X5117333Y-82040000D01*
X5228986Y-82029003D01*
X5372247Y-81985546D01*
X5504276Y-81914974D01*
X5620001Y-81820001D01*
X5643803Y-81790998D01*
X6296136Y-81138665D01*
X9995000Y-81138665D01*
X9995000Y-81421335D01*
X10050147Y-81698574D01*
X10158320Y-81959727D01*
X10315363Y-82194759D01*
X10515241Y-82394637D01*
X10750273Y-82551680D01*
X11011426Y-82659853D01*
X11288665Y-82715000D01*
X11571335Y-82715000D01*
X11848574Y-82659853D01*
X12109727Y-82551680D01*
X12344759Y-82394637D01*
X12544637Y-82194759D01*
X12701680Y-81959727D01*
X12809853Y-81698574D01*
X12865000Y-81421335D01*
X12865000Y-81138665D01*
X12809853Y-80861426D01*
X12701680Y-80600273D01*
X12544637Y-80365241D01*
X12344759Y-80165363D01*
X12109727Y-80008320D01*
X11848574Y-79900147D01*
X11571335Y-79845000D01*
X11288665Y-79845000D01*
X11011426Y-79900147D01*
X10750273Y-80008320D01*
X10515241Y-80165363D01*
X10315363Y-80365241D01*
X10158320Y-80600273D01*
X10050147Y-80861426D01*
X9995000Y-81138665D01*
X6296136Y-81138665D01*
X6411004Y-81023798D01*
X6440001Y-81000001D01*
X6466332Y-80967917D01*
X6534974Y-80884277D01*
X6605546Y-80752247D01*
X6609261Y-80739999D01*
X6649003Y-80608986D01*
X6660000Y-80497333D01*
X6660000Y-80497324D01*
X6663676Y-80460001D01*
X6660000Y-80422678D01*
X6660000Y-79723951D01*
X6894127Y-79652929D01*
X7117362Y-79533608D01*
X7313028Y-79373028D01*
X7473608Y-79177362D01*
X7592929Y-78954127D01*
X7666407Y-78711904D01*
X7691217Y-78460000D01*
X7666407Y-78208096D01*
X7592929Y-77965873D01*
X7473608Y-77742638D01*
X7313028Y-77546972D01*
X7117362Y-77386392D01*
X6894127Y-77267071D01*
X6651904Y-77193593D01*
X6463123Y-77175000D01*
X5336877Y-77175000D01*
X5148096Y-77193593D01*
X4905873Y-77267071D01*
X4682638Y-77386392D01*
X4486972Y-77546972D01*
X4326392Y-77742638D01*
X4207071Y-77965873D01*
X4133593Y-78208096D01*
X4108783Y-78460000D01*
X4133593Y-78711904D01*
X4207071Y-78954127D01*
X4326392Y-79177362D01*
X4486972Y-79373028D01*
X4682638Y-79533608D01*
X4905873Y-79652929D01*
X5140000Y-79723951D01*
X5140000Y-80145198D01*
X4922297Y-80362901D01*
X4724759Y-80165363D01*
X4489727Y-80008320D01*
X4228574Y-79900147D01*
X3951335Y-79845000D01*
X3668665Y-79845000D01*
X3391426Y-79900147D01*
X3130273Y-80008320D01*
X2895241Y-80165363D01*
X2695363Y-80365241D01*
X2538320Y-80600273D01*
X2430147Y-80861426D01*
X2375000Y-81138665D01*
X660000Y-81138665D01*
X660000Y-74997092D01*
X775105Y-75114500D01*
X1008354Y-75273715D01*
X1268182Y-75384367D01*
X1350961Y-75401904D01*
X1573000Y-75279915D01*
X1573000Y-73787000D01*
X1827000Y-73787000D01*
X1827000Y-75279915D01*
X2049039Y-75401904D01*
X2131818Y-75384367D01*
X2391646Y-75273715D01*
X2624895Y-75114500D01*
X2822601Y-74912839D01*
X2977166Y-74676483D01*
X3082650Y-74414514D01*
X3135000Y-74137000D01*
X3135000Y-73787000D01*
X1827000Y-73787000D01*
X1573000Y-73787000D01*
X1553000Y-73787000D01*
X1553000Y-73533000D01*
X1573000Y-73533000D01*
X1573000Y-72040085D01*
X1827000Y-72040085D01*
X1827000Y-73533000D01*
X3135000Y-73533000D01*
X3135000Y-73183000D01*
X3082650Y-72905486D01*
X2977166Y-72643517D01*
X2822601Y-72407161D01*
X2624895Y-72205500D01*
X2391646Y-72046285D01*
X2131818Y-71935633D01*
X2049039Y-71918096D01*
X1827000Y-72040085D01*
X1573000Y-72040085D01*
X1350961Y-71918096D01*
X1268182Y-71935633D01*
X1008354Y-72046285D01*
X775105Y-72205500D01*
X660000Y-72322908D01*
X660000Y-71060000D01*
X6808057Y-71060000D01*
X6835764Y-71341309D01*
X6917818Y-71611808D01*
X7051068Y-71861101D01*
X7230392Y-72079608D01*
X7448899Y-72258932D01*
X7698192Y-72392182D01*
X7968691Y-72474236D01*
X8179508Y-72495000D01*
X9020492Y-72495000D01*
X9231309Y-72474236D01*
X9501808Y-72392182D01*
X9751101Y-72258932D01*
X9969608Y-72079608D01*
X10148932Y-71861101D01*
X10282182Y-71611808D01*
X10364236Y-71341309D01*
X10391943Y-71060000D01*
X10364236Y-70778691D01*
X10282182Y-70508192D01*
X10148932Y-70258899D01*
X9969608Y-70040392D01*
X9751101Y-69861068D01*
X9533953Y-69745000D01*
X10163123Y-69745000D01*
X10351904Y-69726407D01*
X10594127Y-69652929D01*
X10817362Y-69533608D01*
X11013028Y-69373028D01*
X11173608Y-69177362D01*
X11292929Y-68954127D01*
X11366407Y-68711904D01*
X11391217Y-68460000D01*
X11366407Y-68208096D01*
X11292929Y-67965873D01*
X11173608Y-67742638D01*
X11013028Y-67546972D01*
X10817362Y-67386392D01*
X10594127Y-67267071D01*
X10351904Y-67193593D01*
X10163123Y-67175000D01*
X9036877Y-67175000D01*
X8848096Y-67193593D01*
X8605873Y-67267071D01*
X8382638Y-67386392D01*
X8186972Y-67546972D01*
X8026392Y-67742638D01*
X7907071Y-67965873D01*
X7833593Y-68208096D01*
X7808783Y-68460000D01*
X7833593Y-68711904D01*
X7907071Y-68954127D01*
X8026392Y-69177362D01*
X8186972Y-69373028D01*
X8382638Y-69533608D01*
X8553621Y-69625000D01*
X8179508Y-69625000D01*
X7968691Y-69645764D01*
X7698192Y-69727818D01*
X7448899Y-69861068D01*
X7230392Y-70040392D01*
X7051068Y-70258899D01*
X6917818Y-70508192D01*
X6835764Y-70778691D01*
X6808057Y-71060000D01*
X660000Y-71060000D01*
X660000Y-66389039D01*
X2418096Y-66389039D01*
X2458754Y-66523087D01*
X2578963Y-66777420D01*
X2746481Y-67003414D01*
X2954869Y-67192385D01*
X3196119Y-67337070D01*
X3460960Y-67431909D01*
X3683000Y-67310624D01*
X3683000Y-66167000D01*
X3937000Y-66167000D01*
X3937000Y-67310624D01*
X4159040Y-67431909D01*
X4423881Y-67337070D01*
X4665131Y-67192385D01*
X4873519Y-67003414D01*
X5041037Y-66777420D01*
X5161246Y-66523087D01*
X5201904Y-66389039D01*
X5079915Y-66167000D01*
X3937000Y-66167000D01*
X3683000Y-66167000D01*
X2540085Y-66167000D01*
X2418096Y-66389039D01*
X660000Y-66389039D01*
X660000Y-65690961D01*
X2418096Y-65690961D01*
X2540085Y-65913000D01*
X3683000Y-65913000D01*
X3683000Y-64769376D01*
X3937000Y-64769376D01*
X3937000Y-65913000D01*
X5079915Y-65913000D01*
X5201904Y-65690961D01*
X5161246Y-65556913D01*
X5041037Y-65302580D01*
X4873519Y-65076586D01*
X4665131Y-64887615D01*
X4423881Y-64742930D01*
X4159040Y-64648091D01*
X3937000Y-64769376D01*
X3683000Y-64769376D01*
X3460960Y-64648091D01*
X3196119Y-64742930D01*
X2954869Y-64887615D01*
X2746481Y-65076586D01*
X2578963Y-65302580D01*
X2458754Y-65556913D01*
X2418096Y-65690961D01*
X660000Y-65690961D01*
X660000Y-63220000D01*
X4108783Y-63220000D01*
X4133593Y-63471904D01*
X4207071Y-63714127D01*
X4326392Y-63937362D01*
X4486972Y-64133028D01*
X4682638Y-64293608D01*
X4905873Y-64412929D01*
X5148096Y-64486407D01*
X5336877Y-64505000D01*
X6463123Y-64505000D01*
X6651904Y-64486407D01*
X6894127Y-64412929D01*
X7117362Y-64293608D01*
X7313028Y-64133028D01*
X7438616Y-63980000D01*
X8295199Y-63980000D01*
X10031312Y-65716114D01*
X9995000Y-65898665D01*
X9995000Y-66181335D01*
X10050147Y-66458574D01*
X10158320Y-66719727D01*
X10315363Y-66954759D01*
X10515241Y-67154637D01*
X10750273Y-67311680D01*
X11011426Y-67419853D01*
X11288665Y-67475000D01*
X11571335Y-67475000D01*
X11848574Y-67419853D01*
X12109727Y-67311680D01*
X12344759Y-67154637D01*
X12544637Y-66954759D01*
X12701680Y-66719727D01*
X12809853Y-66458574D01*
X12865000Y-66181335D01*
X12865000Y-65898665D01*
X12809853Y-65621426D01*
X12701680Y-65360273D01*
X12544637Y-65125241D01*
X12344759Y-64925363D01*
X12109727Y-64768320D01*
X11848574Y-64660147D01*
X11571335Y-64605000D01*
X11288665Y-64605000D01*
X11106114Y-64641312D01*
X9173804Y-62709003D01*
X9150001Y-62679999D01*
X9034276Y-62585026D01*
X8902247Y-62514454D01*
X8758986Y-62470997D01*
X8647333Y-62460000D01*
X8647322Y-62460000D01*
X8610000Y-62456324D01*
X8572678Y-62460000D01*
X7438616Y-62460000D01*
X7313028Y-62306972D01*
X7117362Y-62146392D01*
X6894127Y-62027071D01*
X6651904Y-61953593D01*
X6463123Y-61935000D01*
X5336877Y-61935000D01*
X5148096Y-61953593D01*
X4905873Y-62027071D01*
X4682638Y-62146392D01*
X4486972Y-62306972D01*
X4326392Y-62502638D01*
X4207071Y-62725873D01*
X4133593Y-62968096D01*
X4108783Y-63220000D01*
X660000Y-63220000D01*
X660000Y-59757092D01*
X775105Y-59874500D01*
X1008354Y-60033715D01*
X1268182Y-60144367D01*
X1350961Y-60161904D01*
X1573000Y-60039915D01*
X1573000Y-58547000D01*
X1827000Y-58547000D01*
X1827000Y-60039915D01*
X2049039Y-60161904D01*
X2131818Y-60144367D01*
X2391646Y-60033715D01*
X2624895Y-59874500D01*
X2822601Y-59672839D01*
X2977166Y-59436483D01*
X3082650Y-59174514D01*
X3135000Y-58897000D01*
X3135000Y-58547000D01*
X1827000Y-58547000D01*
X1573000Y-58547000D01*
X1553000Y-58547000D01*
X1553000Y-58293000D01*
X1573000Y-58293000D01*
X1573000Y-56800085D01*
X1827000Y-56800085D01*
X1827000Y-58293000D01*
X3135000Y-58293000D01*
X3135000Y-57943000D01*
X3082650Y-57665486D01*
X2977166Y-57403517D01*
X2822601Y-57167161D01*
X2624895Y-56965500D01*
X2391646Y-56806285D01*
X2131818Y-56695633D01*
X2049039Y-56678096D01*
X1827000Y-56800085D01*
X1573000Y-56800085D01*
X1350961Y-56678096D01*
X1268182Y-56695633D01*
X1008354Y-56806285D01*
X775105Y-56965500D01*
X660000Y-57082908D01*
X660000Y-55820000D01*
X6808057Y-55820000D01*
X6835764Y-56101309D01*
X6917818Y-56371808D01*
X7051068Y-56621101D01*
X7230392Y-56839608D01*
X7448899Y-57018932D01*
X7698192Y-57152182D01*
X7968691Y-57234236D01*
X8179508Y-57255000D01*
X9020492Y-57255000D01*
X9231309Y-57234236D01*
X9501808Y-57152182D01*
X9751101Y-57018932D01*
X9969608Y-56839608D01*
X10148932Y-56621101D01*
X10282182Y-56371808D01*
X10364236Y-56101309D01*
X10391943Y-55820000D01*
X10364236Y-55538691D01*
X10282182Y-55268192D01*
X10148932Y-55018899D01*
X9969608Y-54800392D01*
X9751101Y-54621068D01*
X9533953Y-54505000D01*
X10163123Y-54505000D01*
X10351904Y-54486407D01*
X10594127Y-54412929D01*
X10817362Y-54293608D01*
X11013028Y-54133028D01*
X11173608Y-53937362D01*
X11292929Y-53714127D01*
X11366407Y-53471904D01*
X11391217Y-53220000D01*
X11366407Y-52968096D01*
X11292929Y-52725873D01*
X11173608Y-52502638D01*
X11013028Y-52306972D01*
X10817362Y-52146392D01*
X10594127Y-52027071D01*
X10351904Y-51953593D01*
X10163123Y-51935000D01*
X9036877Y-51935000D01*
X8848096Y-51953593D01*
X8605873Y-52027071D01*
X8382638Y-52146392D01*
X8186972Y-52306972D01*
X8026392Y-52502638D01*
X7907071Y-52725873D01*
X7833593Y-52968096D01*
X7808783Y-53220000D01*
X7833593Y-53471904D01*
X7907071Y-53714127D01*
X8026392Y-53937362D01*
X8186972Y-54133028D01*
X8382638Y-54293608D01*
X8553621Y-54385000D01*
X8179508Y-54385000D01*
X7968691Y-54405764D01*
X7698192Y-54487818D01*
X7448899Y-54621068D01*
X7230392Y-54800392D01*
X7051068Y-55018899D01*
X6917818Y-55268192D01*
X6835764Y-55538691D01*
X6808057Y-55820000D01*
X660000Y-55820000D01*
X660000Y-50658665D01*
X2375000Y-50658665D01*
X2375000Y-50941335D01*
X2430147Y-51218574D01*
X2538320Y-51479727D01*
X2695363Y-51714759D01*
X2895241Y-51914637D01*
X3130273Y-52071680D01*
X3391426Y-52179853D01*
X3668665Y-52235000D01*
X3951335Y-52235000D01*
X4228574Y-52179853D01*
X4489727Y-52071680D01*
X4724759Y-51914637D01*
X4924637Y-51714759D01*
X5028043Y-51560000D01*
X5042678Y-51560000D01*
X5080000Y-51563676D01*
X5117322Y-51560000D01*
X5117333Y-51560000D01*
X5228986Y-51549003D01*
X5372247Y-51505546D01*
X5504276Y-51434974D01*
X5620001Y-51340001D01*
X5643803Y-51310998D01*
X6296136Y-50658665D01*
X9995000Y-50658665D01*
X9995000Y-50941335D01*
X10050147Y-51218574D01*
X10158320Y-51479727D01*
X10315363Y-51714759D01*
X10515241Y-51914637D01*
X10750273Y-52071680D01*
X11011426Y-52179853D01*
X11288665Y-52235000D01*
X11571335Y-52235000D01*
X11848574Y-52179853D01*
X12109727Y-52071680D01*
X12344759Y-51914637D01*
X12544637Y-51714759D01*
X12701680Y-51479727D01*
X12809853Y-51218574D01*
X12865000Y-50941335D01*
X12865000Y-50658665D01*
X12809853Y-50381426D01*
X12701680Y-50120273D01*
X12544637Y-49885241D01*
X12344759Y-49685363D01*
X12109727Y-49528320D01*
X11848574Y-49420147D01*
X11571335Y-49365000D01*
X11288665Y-49365000D01*
X11011426Y-49420147D01*
X10750273Y-49528320D01*
X10515241Y-49685363D01*
X10315363Y-49885241D01*
X10158320Y-50120273D01*
X10050147Y-50381426D01*
X9995000Y-50658665D01*
X6296136Y-50658665D01*
X6411004Y-50543798D01*
X6440001Y-50520001D01*
X6505842Y-50439774D01*
X6534974Y-50404277D01*
X6605546Y-50272247D01*
X6609261Y-50259999D01*
X6649003Y-50128986D01*
X6660000Y-50017333D01*
X6660000Y-50017324D01*
X6663676Y-49980001D01*
X6660000Y-49942678D01*
X6660000Y-49243951D01*
X6894127Y-49172929D01*
X7117362Y-49053608D01*
X7313028Y-48893028D01*
X7473608Y-48697362D01*
X7592929Y-48474127D01*
X7666407Y-48231904D01*
X7691217Y-47980000D01*
X7666407Y-47728096D01*
X7592929Y-47485873D01*
X7473608Y-47262638D01*
X7313028Y-47066972D01*
X7117362Y-46906392D01*
X7029650Y-46859509D01*
X11565000Y-46859509D01*
X11565000Y-47700492D01*
X11585764Y-47911309D01*
X11667818Y-48181808D01*
X11801068Y-48431101D01*
X11980393Y-48649608D01*
X12198900Y-48828932D01*
X12448193Y-48962182D01*
X12718692Y-49044236D01*
X13000000Y-49071943D01*
X13268353Y-49045512D01*
X15704783Y-49045512D01*
X15746213Y-49325130D01*
X15841397Y-49591292D01*
X15908329Y-49716514D01*
X16152298Y-49788097D01*
X16965395Y-48975000D01*
X16152298Y-48161903D01*
X15908329Y-48233486D01*
X15787429Y-48488996D01*
X15718700Y-48763184D01*
X15704783Y-49045512D01*
X13268353Y-49045512D01*
X13281309Y-49044236D01*
X13551808Y-48962182D01*
X13801101Y-48828932D01*
X14019608Y-48649608D01*
X14198932Y-48431101D01*
X14332182Y-48181808D01*
X14392701Y-47982298D01*
X16331903Y-47982298D01*
X17145000Y-48795395D01*
X17958097Y-47982298D01*
X17886514Y-47738329D01*
X17631004Y-47617429D01*
X17356816Y-47548700D01*
X17074488Y-47534783D01*
X16794870Y-47576213D01*
X16528708Y-47671397D01*
X16403486Y-47738329D01*
X16331903Y-47982298D01*
X14392701Y-47982298D01*
X14414236Y-47911308D01*
X14435000Y-47700491D01*
X14435000Y-46859508D01*
X14414236Y-46648691D01*
X14332182Y-46378192D01*
X14198932Y-46128899D01*
X14019607Y-45910392D01*
X13801100Y-45731068D01*
X13551807Y-45597818D01*
X13281308Y-45515764D01*
X13000000Y-45488057D01*
X12718691Y-45515764D01*
X12448192Y-45597818D01*
X12198899Y-45731068D01*
X11980392Y-45910393D01*
X11801068Y-46128900D01*
X11667818Y-46378193D01*
X11585764Y-46648692D01*
X11565000Y-46859509D01*
X7029650Y-46859509D01*
X6894127Y-46787071D01*
X6651904Y-46713593D01*
X6463123Y-46695000D01*
X5336877Y-46695000D01*
X5148096Y-46713593D01*
X4905873Y-46787071D01*
X4682638Y-46906392D01*
X4486972Y-47066972D01*
X4326392Y-47262638D01*
X4207071Y-47485873D01*
X4133593Y-47728096D01*
X4108783Y-47980000D01*
X4133593Y-48231904D01*
X4207071Y-48474127D01*
X4326392Y-48697362D01*
X4486972Y-48893028D01*
X4682638Y-49053608D01*
X4905873Y-49172929D01*
X5140000Y-49243951D01*
X5140000Y-49665198D01*
X4922297Y-49882901D01*
X4724759Y-49685363D01*
X4489727Y-49528320D01*
X4228574Y-49420147D01*
X3951335Y-49365000D01*
X3668665Y-49365000D01*
X3391426Y-49420147D01*
X3130273Y-49528320D01*
X2895241Y-49685363D01*
X2695363Y-49885241D01*
X2538320Y-50120273D01*
X2430147Y-50381426D01*
X2375000Y-50658665D01*
X660000Y-50658665D01*
X660000Y-44517092D01*
X775105Y-44634500D01*
X1008354Y-44793715D01*
X1268182Y-44904367D01*
X1350961Y-44921904D01*
X1573000Y-44799915D01*
X1573000Y-43307000D01*
X1827000Y-43307000D01*
X1827000Y-44799915D01*
X2049039Y-44921904D01*
X2131818Y-44904367D01*
X2391646Y-44793715D01*
X2624895Y-44634500D01*
X2822601Y-44432839D01*
X2977166Y-44196483D01*
X3082650Y-43934514D01*
X3135000Y-43657000D01*
X3135000Y-43307000D01*
X1827000Y-43307000D01*
X1573000Y-43307000D01*
X1553000Y-43307000D01*
X1553000Y-43053000D01*
X1573000Y-43053000D01*
X1573000Y-41560085D01*
X1827000Y-41560085D01*
X1827000Y-43053000D01*
X3135000Y-43053000D01*
X3135000Y-42703000D01*
X3082650Y-42425486D01*
X2977166Y-42163517D01*
X2822601Y-41927161D01*
X2624895Y-41725500D01*
X2391646Y-41566285D01*
X2131818Y-41455633D01*
X2049039Y-41438096D01*
X1827000Y-41560085D01*
X1573000Y-41560085D01*
X1350961Y-41438096D01*
X1268182Y-41455633D01*
X1008354Y-41566285D01*
X775105Y-41725500D01*
X660000Y-41842908D01*
X660000Y-40580000D01*
X6808057Y-40580000D01*
X6835764Y-40861309D01*
X6917818Y-41131808D01*
X7051068Y-41381101D01*
X7230392Y-41599608D01*
X7448899Y-41778932D01*
X7698192Y-41912182D01*
X7968691Y-41994236D01*
X8179508Y-42015000D01*
X9020492Y-42015000D01*
X9231309Y-41994236D01*
X9501808Y-41912182D01*
X9751101Y-41778932D01*
X9969608Y-41599608D01*
X10148932Y-41381101D01*
X10282182Y-41131808D01*
X10364236Y-40861309D01*
X10391943Y-40580000D01*
X10364236Y-40298691D01*
X10282182Y-40028192D01*
X10148932Y-39778899D01*
X9969608Y-39560392D01*
X9751101Y-39381068D01*
X9533953Y-39265000D01*
X10163123Y-39265000D01*
X10351904Y-39246407D01*
X10594127Y-39172929D01*
X10817362Y-39053608D01*
X11013028Y-38893028D01*
X11173608Y-38697362D01*
X11292929Y-38474127D01*
X11366407Y-38231904D01*
X11391217Y-37980000D01*
X11366407Y-37728096D01*
X11292929Y-37485873D01*
X11173608Y-37262638D01*
X11013028Y-37066972D01*
X10817362Y-36906392D01*
X10594127Y-36787071D01*
X10351904Y-36713593D01*
X10163123Y-36695000D01*
X9036877Y-36695000D01*
X8848096Y-36713593D01*
X8605873Y-36787071D01*
X8382638Y-36906392D01*
X8186972Y-37066972D01*
X8026392Y-37262638D01*
X7907071Y-37485873D01*
X7833593Y-37728096D01*
X7808783Y-37980000D01*
X7833593Y-38231904D01*
X7907071Y-38474127D01*
X8026392Y-38697362D01*
X8186972Y-38893028D01*
X8382638Y-39053608D01*
X8553621Y-39145000D01*
X8179508Y-39145000D01*
X7968691Y-39165764D01*
X7698192Y-39247818D01*
X7448899Y-39381068D01*
X7230392Y-39560392D01*
X7051068Y-39778899D01*
X6917818Y-40028192D01*
X6835764Y-40298691D01*
X6808057Y-40580000D01*
X660000Y-40580000D01*
X660000Y-35418665D01*
X2375000Y-35418665D01*
X2375000Y-35701335D01*
X2430147Y-35978574D01*
X2538320Y-36239727D01*
X2695363Y-36474759D01*
X2895241Y-36674637D01*
X3130273Y-36831680D01*
X3391426Y-36939853D01*
X3668665Y-36995000D01*
X3951335Y-36995000D01*
X4228574Y-36939853D01*
X4489727Y-36831680D01*
X4724759Y-36674637D01*
X4924637Y-36474759D01*
X5028043Y-36320000D01*
X5042678Y-36320000D01*
X5080000Y-36323676D01*
X5117322Y-36320000D01*
X5117333Y-36320000D01*
X5228986Y-36309003D01*
X5372247Y-36265546D01*
X5504276Y-36194974D01*
X5620001Y-36100001D01*
X5643803Y-36070998D01*
X6296136Y-35418665D01*
X9995000Y-35418665D01*
X9995000Y-35701335D01*
X10050147Y-35978574D01*
X10158320Y-36239727D01*
X10315363Y-36474759D01*
X10515241Y-36674637D01*
X10750273Y-36831680D01*
X11011426Y-36939853D01*
X11288665Y-36995000D01*
X11571335Y-36995000D01*
X11848574Y-36939853D01*
X12109727Y-36831680D01*
X12344759Y-36674637D01*
X12544637Y-36474759D01*
X12701680Y-36239727D01*
X12809853Y-35978574D01*
X12865000Y-35701335D01*
X12865000Y-35418665D01*
X12809853Y-35141426D01*
X12701680Y-34880273D01*
X12544637Y-34645241D01*
X12344759Y-34445363D01*
X12109727Y-34288320D01*
X11848574Y-34180147D01*
X11571335Y-34125000D01*
X11288665Y-34125000D01*
X11011426Y-34180147D01*
X10750273Y-34288320D01*
X10515241Y-34445363D01*
X10315363Y-34645241D01*
X10158320Y-34880273D01*
X10050147Y-35141426D01*
X9995000Y-35418665D01*
X6296136Y-35418665D01*
X6411004Y-35303798D01*
X6440001Y-35280001D01*
X6466332Y-35247917D01*
X6534974Y-35164277D01*
X6605546Y-35032247D01*
X6609261Y-35019999D01*
X6649003Y-34888986D01*
X6660000Y-34777333D01*
X6660000Y-34777324D01*
X6663676Y-34740001D01*
X6660000Y-34702678D01*
X6660000Y-34003951D01*
X6894127Y-33932929D01*
X7117362Y-33813608D01*
X7313028Y-33653028D01*
X7473608Y-33457362D01*
X7592929Y-33234127D01*
X7666407Y-32991904D01*
X7691217Y-32740000D01*
X7666407Y-32488096D01*
X7592929Y-32245873D01*
X7473608Y-32022638D01*
X7313028Y-31826972D01*
X7117362Y-31666392D01*
X7029650Y-31619509D01*
X11565000Y-31619509D01*
X11565000Y-32460492D01*
X11585764Y-32671309D01*
X11667818Y-32941808D01*
X11801068Y-33191101D01*
X11980393Y-33409608D01*
X12198900Y-33588932D01*
X12448193Y-33722182D01*
X12718692Y-33804236D01*
X13000000Y-33831943D01*
X13281309Y-33804236D01*
X13551808Y-33722182D01*
X13801101Y-33588932D01*
X14019608Y-33409608D01*
X14198932Y-33191101D01*
X14332182Y-32941808D01*
X14414236Y-32671308D01*
X14435000Y-32460491D01*
X14435000Y-31619508D01*
X14414236Y-31408691D01*
X14332182Y-31138192D01*
X14198932Y-30888899D01*
X14019607Y-30670392D01*
X13801100Y-30491068D01*
X13551807Y-30357818D01*
X13281308Y-30275764D01*
X13000000Y-30248057D01*
X12718691Y-30275764D01*
X12448192Y-30357818D01*
X12198899Y-30491068D01*
X11980392Y-30670393D01*
X11801068Y-30888900D01*
X11667818Y-31138193D01*
X11585764Y-31408692D01*
X11565000Y-31619509D01*
X7029650Y-31619509D01*
X6894127Y-31547071D01*
X6651904Y-31473593D01*
X6463123Y-31455000D01*
X5336877Y-31455000D01*
X5148096Y-31473593D01*
X4905873Y-31547071D01*
X4682638Y-31666392D01*
X4486972Y-31826972D01*
X4326392Y-32022638D01*
X4207071Y-32245873D01*
X4133593Y-32488096D01*
X4108783Y-32740000D01*
X4133593Y-32991904D01*
X4207071Y-33234127D01*
X4326392Y-33457362D01*
X4486972Y-33653028D01*
X4682638Y-33813608D01*
X4905873Y-33932929D01*
X5140000Y-34003951D01*
X5140000Y-34425198D01*
X4922297Y-34642901D01*
X4724759Y-34445363D01*
X4489727Y-34288320D01*
X4228574Y-34180147D01*
X3951335Y-34125000D01*
X3668665Y-34125000D01*
X3391426Y-34180147D01*
X3130273Y-34288320D01*
X2895241Y-34445363D01*
X2695363Y-34645241D01*
X2538320Y-34880273D01*
X2430147Y-35141426D01*
X2375000Y-35418665D01*
X660000Y-35418665D01*
X660000Y-29277092D01*
X775105Y-29394500D01*
X1008354Y-29553715D01*
X1268182Y-29664367D01*
X1350961Y-29681904D01*
X1573000Y-29559915D01*
X1573000Y-28067000D01*
X1827000Y-28067000D01*
X1827000Y-29559915D01*
X2049039Y-29681904D01*
X2131818Y-29664367D01*
X2391646Y-29553715D01*
X2624895Y-29394500D01*
X2822601Y-29192839D01*
X2977166Y-28956483D01*
X3082650Y-28694514D01*
X3135000Y-28417000D01*
X3135000Y-28067000D01*
X1827000Y-28067000D01*
X1573000Y-28067000D01*
X1553000Y-28067000D01*
X1553000Y-27813000D01*
X1573000Y-27813000D01*
X1573000Y-26320085D01*
X1827000Y-26320085D01*
X1827000Y-27813000D01*
X3135000Y-27813000D01*
X3135000Y-27463000D01*
X3082650Y-27185486D01*
X2977166Y-26923517D01*
X2822601Y-26687161D01*
X2624895Y-26485500D01*
X2391646Y-26326285D01*
X2131818Y-26215633D01*
X2049039Y-26198096D01*
X1827000Y-26320085D01*
X1573000Y-26320085D01*
X1350961Y-26198096D01*
X1268182Y-26215633D01*
X1008354Y-26326285D01*
X775105Y-26485500D01*
X660000Y-26602908D01*
X660000Y-25340000D01*
X6808057Y-25340000D01*
X6835764Y-25621309D01*
X6917818Y-25891808D01*
X7051068Y-26141101D01*
X7230392Y-26359608D01*
X7448899Y-26538932D01*
X7698192Y-26672182D01*
X7968691Y-26754236D01*
X8179508Y-26775000D01*
X9020492Y-26775000D01*
X9231309Y-26754236D01*
X9501808Y-26672182D01*
X9751101Y-26538932D01*
X9969608Y-26359608D01*
X10148932Y-26141101D01*
X10282182Y-25891808D01*
X10364236Y-25621309D01*
X10391943Y-25340000D01*
X10364236Y-25058691D01*
X10282182Y-24788192D01*
X10148932Y-24538899D01*
X9969608Y-24320392D01*
X9751101Y-24141068D01*
X9533953Y-24025000D01*
X10163123Y-24025000D01*
X10351904Y-24006407D01*
X10594127Y-23932929D01*
X10817362Y-23813608D01*
X11013028Y-23653028D01*
X11173608Y-23457362D01*
X11292929Y-23234127D01*
X11366407Y-22991904D01*
X11391217Y-22740000D01*
X11366407Y-22488096D01*
X11292929Y-22245873D01*
X11173608Y-22022638D01*
X11013028Y-21826972D01*
X10817362Y-21666392D01*
X10594127Y-21547071D01*
X10351904Y-21473593D01*
X10163123Y-21455000D01*
X9036877Y-21455000D01*
X8848096Y-21473593D01*
X8605873Y-21547071D01*
X8382638Y-21666392D01*
X8186972Y-21826972D01*
X8026392Y-22022638D01*
X7907071Y-22245873D01*
X7833593Y-22488096D01*
X7808783Y-22740000D01*
X7833593Y-22991904D01*
X7907071Y-23234127D01*
X8026392Y-23457362D01*
X8186972Y-23653028D01*
X8382638Y-23813608D01*
X8553621Y-23905000D01*
X8179508Y-23905000D01*
X7968691Y-23925764D01*
X7698192Y-24007818D01*
X7448899Y-24141068D01*
X7230392Y-24320392D01*
X7051068Y-24538899D01*
X6917818Y-24788192D01*
X6835764Y-25058691D01*
X6808057Y-25340000D01*
X660000Y-25340000D01*
X660000Y-20669039D01*
X2418096Y-20669039D01*
X2458754Y-20803087D01*
X2578963Y-21057420D01*
X2746481Y-21283414D01*
X2954869Y-21472385D01*
X3196119Y-21617070D01*
X3460960Y-21711909D01*
X3683000Y-21590624D01*
X3683000Y-20447000D01*
X3937000Y-20447000D01*
X3937000Y-21590624D01*
X4159040Y-21711909D01*
X4423881Y-21617070D01*
X4665131Y-21472385D01*
X4873519Y-21283414D01*
X5041037Y-21057420D01*
X5161246Y-20803087D01*
X5201904Y-20669039D01*
X5079915Y-20447000D01*
X3937000Y-20447000D01*
X3683000Y-20447000D01*
X2540085Y-20447000D01*
X2418096Y-20669039D01*
X660000Y-20669039D01*
X660000Y-19970961D01*
X2418096Y-19970961D01*
X2540085Y-20193000D01*
X3683000Y-20193000D01*
X3683000Y-19049376D01*
X3937000Y-19049376D01*
X3937000Y-20193000D01*
X5079915Y-20193000D01*
X5201904Y-19970961D01*
X5161246Y-19836913D01*
X5041037Y-19582580D01*
X4873519Y-19356586D01*
X4665131Y-19167615D01*
X4423881Y-19022930D01*
X4159040Y-18928091D01*
X3937000Y-19049376D01*
X3683000Y-19049376D01*
X3460960Y-18928091D01*
X3196119Y-19022930D01*
X2954869Y-19167615D01*
X2746481Y-19356586D01*
X2578963Y-19582580D01*
X2458754Y-19836913D01*
X2418096Y-19970961D01*
X660000Y-19970961D01*
X660000Y-17500000D01*
X4108783Y-17500000D01*
X4133593Y-17751904D01*
X4207071Y-17994127D01*
X4326392Y-18217362D01*
X4486972Y-18413028D01*
X4682638Y-18573608D01*
X4905873Y-18692929D01*
X5148096Y-18766407D01*
X5336877Y-18785000D01*
X6463123Y-18785000D01*
X6651904Y-18766407D01*
X6894127Y-18692929D01*
X7117362Y-18573608D01*
X7313028Y-18413028D01*
X7438616Y-18260000D01*
X8295199Y-18260000D01*
X10031312Y-19996114D01*
X9995000Y-20178665D01*
X9995000Y-20461335D01*
X10050147Y-20738574D01*
X10158320Y-20999727D01*
X10315363Y-21234759D01*
X10515241Y-21434637D01*
X10750273Y-21591680D01*
X11011426Y-21699853D01*
X11288665Y-21755000D01*
X11571335Y-21755000D01*
X11848574Y-21699853D01*
X12109727Y-21591680D01*
X12344759Y-21434637D01*
X12544637Y-21234759D01*
X12701680Y-20999727D01*
X12809853Y-20738574D01*
X12865000Y-20461335D01*
X12865000Y-20178665D01*
X12809853Y-19901426D01*
X12701680Y-19640273D01*
X12544637Y-19405241D01*
X12344759Y-19205363D01*
X12109727Y-19048320D01*
X11848574Y-18940147D01*
X11571335Y-18885000D01*
X11288665Y-18885000D01*
X11106114Y-18921312D01*
X9173804Y-16989003D01*
X9150001Y-16959999D01*
X9034276Y-16865026D01*
X8902247Y-16794454D01*
X8758986Y-16750997D01*
X8647333Y-16740000D01*
X8647322Y-16740000D01*
X8610000Y-16736324D01*
X8572678Y-16740000D01*
X7438616Y-16740000D01*
X7313028Y-16586972D01*
X7117362Y-16426392D01*
X7029650Y-16379509D01*
X11565000Y-16379509D01*
X11565000Y-17220492D01*
X11585764Y-17431309D01*
X11667818Y-17701808D01*
X11801068Y-17951101D01*
X11980393Y-18169608D01*
X12198900Y-18348932D01*
X12448193Y-18482182D01*
X12718692Y-18564236D01*
X13000000Y-18591943D01*
X13281309Y-18564236D01*
X13551808Y-18482182D01*
X13801101Y-18348932D01*
X14019608Y-18169608D01*
X14198932Y-17951101D01*
X14332182Y-17701808D01*
X14414236Y-17431308D01*
X14435000Y-17220491D01*
X14435000Y-16379508D01*
X14414236Y-16168691D01*
X14332182Y-15898192D01*
X14198932Y-15648899D01*
X14019607Y-15430392D01*
X13801100Y-15251068D01*
X13551807Y-15117818D01*
X13281308Y-15035764D01*
X13000000Y-15008057D01*
X12718691Y-15035764D01*
X12448192Y-15117818D01*
X12198899Y-15251068D01*
X11980392Y-15430393D01*
X11801068Y-15648900D01*
X11667818Y-15898193D01*
X11585764Y-16168692D01*
X11565000Y-16379509D01*
X7029650Y-16379509D01*
X6894127Y-16307071D01*
X6651904Y-16233593D01*
X6463123Y-16215000D01*
X5336877Y-16215000D01*
X5148096Y-16233593D01*
X4905873Y-16307071D01*
X4682638Y-16426392D01*
X4486972Y-16586972D01*
X4326392Y-16782638D01*
X4207071Y-17005873D01*
X4133593Y-17248096D01*
X4108783Y-17500000D01*
X660000Y-17500000D01*
X660000Y-14037092D01*
X775105Y-14154500D01*
X1008354Y-14313715D01*
X1268182Y-14424367D01*
X1350961Y-14441904D01*
X1573000Y-14319915D01*
X1573000Y-12827000D01*
X1827000Y-12827000D01*
X1827000Y-14319915D01*
X2049039Y-14441904D01*
X2131818Y-14424367D01*
X2391646Y-14313715D01*
X2624895Y-14154500D01*
X2822601Y-13952839D01*
X2977166Y-13716483D01*
X3082650Y-13454514D01*
X3135000Y-13177000D01*
X3135000Y-12827000D01*
X1827000Y-12827000D01*
X1573000Y-12827000D01*
X1553000Y-12827000D01*
X1553000Y-12573000D01*
X1573000Y-12573000D01*
X1573000Y-11080085D01*
X1827000Y-11080085D01*
X1827000Y-12573000D01*
X3135000Y-12573000D01*
X3135000Y-12223000D01*
X3082650Y-11945486D01*
X2977166Y-11683517D01*
X2822601Y-11447161D01*
X2624895Y-11245500D01*
X2391646Y-11086285D01*
X2131818Y-10975633D01*
X2049039Y-10958096D01*
X1827000Y-11080085D01*
X1573000Y-11080085D01*
X1350961Y-10958096D01*
X1268182Y-10975633D01*
X1008354Y-11086285D01*
X775105Y-11245500D01*
X660000Y-11362908D01*
X660000Y-10100000D01*
X6808057Y-10100000D01*
X6835764Y-10381309D01*
X6917818Y-10651808D01*
X7051068Y-10901101D01*
X7230392Y-11119608D01*
X7448899Y-11298932D01*
X7698192Y-11432182D01*
X7968691Y-11514236D01*
X8179508Y-11535000D01*
X9020492Y-11535000D01*
X9231309Y-11514236D01*
X9501808Y-11432182D01*
X9751101Y-11298932D01*
X9969608Y-11119608D01*
X10148932Y-10901101D01*
X10282182Y-10651808D01*
X10364236Y-10381309D01*
X10391943Y-10100000D01*
X10364236Y-9818691D01*
X10282182Y-9548192D01*
X10148932Y-9298899D01*
X9969608Y-9080392D01*
X9751101Y-8901068D01*
X9533953Y-8785000D01*
X10163123Y-8785000D01*
X10351904Y-8766407D01*
X10594127Y-8692929D01*
X10817362Y-8573608D01*
X11013028Y-8413028D01*
X11173608Y-8217362D01*
X11292929Y-7994127D01*
X11366407Y-7751904D01*
X11391217Y-7500000D01*
X11366407Y-7248096D01*
X11292929Y-7005873D01*
X11173608Y-6782638D01*
X11013028Y-6586972D01*
X10817362Y-6426392D01*
X10594127Y-6307071D01*
X10351904Y-6233593D01*
X10163123Y-6215000D01*
X9036877Y-6215000D01*
X8848096Y-6233593D01*
X8605873Y-6307071D01*
X8382638Y-6426392D01*
X8186972Y-6586972D01*
X8026392Y-6782638D01*
X7907071Y-7005873D01*
X7833593Y-7248096D01*
X7808783Y-7500000D01*
X7833593Y-7751904D01*
X7907071Y-7994127D01*
X8026392Y-8217362D01*
X8186972Y-8413028D01*
X8382638Y-8573608D01*
X8553621Y-8665000D01*
X8179508Y-8665000D01*
X7968691Y-8685764D01*
X7698192Y-8767818D01*
X7448899Y-8901068D01*
X7230392Y-9080392D01*
X7051068Y-9298899D01*
X6917818Y-9548192D01*
X6835764Y-9818691D01*
X6808057Y-10100000D01*
X660000Y-10100000D01*
X660000Y-660000D01*
X33630000Y-660000D01*
X33630001Y-71730000D01*
G37*
G04 #@! TD.AperFunction*
D22*
X19373368Y-81798475D02*
X19547760Y-81915000D01*
X19373368Y-82031525D01*
X19166525Y-82238368D01*
X19004010Y-82481589D01*
X18892068Y-82751842D01*
X18835000Y-83038740D01*
X18835000Y-83331260D01*
X18892068Y-83618158D01*
X19004010Y-83888411D01*
X19166525Y-84131632D01*
X19373368Y-84338475D01*
X19547760Y-84455000D01*
X19373368Y-84571525D01*
X19166525Y-84778368D01*
X19004010Y-85021589D01*
X18892068Y-85291842D01*
X18835000Y-85578740D01*
X18835000Y-85871260D01*
X18892068Y-86158158D01*
X19004010Y-86428411D01*
X19166525Y-86671632D01*
X19373368Y-86878475D01*
X19546729Y-86994311D01*
X19471208Y-87236603D01*
X20320000Y-88085395D01*
X21168792Y-87236603D01*
X21093271Y-86994311D01*
X21266632Y-86878475D01*
X21473475Y-86671632D01*
X21590000Y-86497240D01*
X21706525Y-86671632D01*
X21913368Y-86878475D01*
X22086729Y-86994311D01*
X22011208Y-87236603D01*
X22860000Y-88085395D01*
X22874143Y-88071253D01*
X23053748Y-88250858D01*
X23039605Y-88265000D01*
X23053748Y-88279143D01*
X22874143Y-88458748D01*
X22860000Y-88444605D01*
X22011208Y-89293397D01*
X22086514Y-89535000D01*
X22011208Y-89776603D01*
X22860000Y-90625395D01*
X22874143Y-90611253D01*
X23053748Y-90790858D01*
X23039605Y-90805000D01*
X23053748Y-90819143D01*
X22874143Y-90998748D01*
X22860000Y-90984605D01*
X22011208Y-91833397D01*
X22086514Y-92075000D01*
X22011208Y-92316603D01*
X22860000Y-93165395D01*
X22874143Y-93151253D01*
X23053748Y-93330858D01*
X23039605Y-93345000D01*
X23053748Y-93359143D01*
X22874143Y-93538748D01*
X22860000Y-93524605D01*
X22011208Y-94373397D01*
X22086729Y-94615689D01*
X21913368Y-94731525D01*
X21706525Y-94938368D01*
X21590000Y-95112760D01*
X21473475Y-94938368D01*
X21266632Y-94731525D01*
X21093271Y-94615689D01*
X21168792Y-94373397D01*
X20320000Y-93524605D01*
X19471208Y-94373397D01*
X19546729Y-94615689D01*
X19373368Y-94731525D01*
X19166525Y-94938368D01*
X19041822Y-95125000D01*
X17905000Y-95125000D01*
X17905000Y-93413531D01*
X18829389Y-93413531D01*
X18871401Y-93703019D01*
X18969081Y-93978747D01*
X19042528Y-94116157D01*
X19291603Y-94193792D01*
X20140395Y-93345000D01*
X20499605Y-93345000D01*
X21348397Y-94193792D01*
X21590000Y-94118486D01*
X21831603Y-94193792D01*
X22680395Y-93345000D01*
X21831603Y-92496208D01*
X21590000Y-92571514D01*
X21348397Y-92496208D01*
X20499605Y-93345000D01*
X20140395Y-93345000D01*
X19291603Y-92496208D01*
X19042528Y-92573843D01*
X18916629Y-92837883D01*
X18844661Y-93121411D01*
X18829389Y-93413531D01*
X17905000Y-93413531D01*
X17905000Y-91833397D01*
X19471208Y-91833397D01*
X19546514Y-92075000D01*
X19471208Y-92316603D01*
X20320000Y-93165395D01*
X21168792Y-92316603D01*
X21093486Y-92075000D01*
X21168792Y-91833397D01*
X20320000Y-90984605D01*
X19471208Y-91833397D01*
X17905000Y-91833397D01*
X17905000Y-90873711D01*
X17905180Y-90873531D01*
X18829389Y-90873531D01*
X18871401Y-91163019D01*
X18969081Y-91438747D01*
X19042528Y-91576157D01*
X19291603Y-91653792D01*
X20140395Y-90805000D01*
X20499605Y-90805000D01*
X21348397Y-91653792D01*
X21590000Y-91578486D01*
X21831603Y-91653792D01*
X22680395Y-90805000D01*
X21831603Y-89956208D01*
X21590000Y-90031514D01*
X21348397Y-89956208D01*
X20499605Y-90805000D01*
X20140395Y-90805000D01*
X19291603Y-89956208D01*
X19042528Y-90033843D01*
X18916629Y-90297883D01*
X18844661Y-90581411D01*
X18829389Y-90873531D01*
X17905180Y-90873531D01*
X17948937Y-90829774D01*
X18062205Y-90660256D01*
X18140226Y-90471898D01*
X18180000Y-90271939D01*
X18180000Y-90068061D01*
X18140226Y-89868102D01*
X18062205Y-89679744D01*
X17948937Y-89510226D01*
X17804774Y-89366063D01*
X17696022Y-89293397D01*
X19471208Y-89293397D01*
X19546514Y-89535000D01*
X19471208Y-89776603D01*
X20320000Y-90625395D01*
X21168792Y-89776603D01*
X21093486Y-89535000D01*
X21168792Y-89293397D01*
X20320000Y-88444605D01*
X19471208Y-89293397D01*
X17696022Y-89293397D01*
X17635256Y-89252795D01*
X17446898Y-89174774D01*
X17246939Y-89135000D01*
X17043061Y-89135000D01*
X16843102Y-89174774D01*
X16654744Y-89252795D01*
X16635000Y-89265987D01*
X16635000Y-88333531D01*
X18829389Y-88333531D01*
X18871401Y-88623019D01*
X18969081Y-88898747D01*
X19042528Y-89036157D01*
X19291603Y-89113792D01*
X20140395Y-88265000D01*
X20499605Y-88265000D01*
X21348397Y-89113792D01*
X21590000Y-89038486D01*
X21831603Y-89113792D01*
X22680395Y-88265000D01*
X21831603Y-87416208D01*
X21590000Y-87491514D01*
X21348397Y-87416208D01*
X20499605Y-88265000D01*
X20140395Y-88265000D01*
X19291603Y-87416208D01*
X19042528Y-87493843D01*
X18916629Y-87757883D01*
X18844661Y-88041411D01*
X18829389Y-88333531D01*
X16635000Y-88333531D01*
X16635000Y-86629013D01*
X16654744Y-86642205D01*
X16843102Y-86720226D01*
X17043061Y-86760000D01*
X17246939Y-86760000D01*
X17446898Y-86720226D01*
X17635256Y-86642205D01*
X17804774Y-86528937D01*
X17948937Y-86384774D01*
X18062205Y-86215256D01*
X18140226Y-86026898D01*
X18180000Y-85826939D01*
X18180000Y-85623061D01*
X18140226Y-85423102D01*
X18062205Y-85234744D01*
X17948937Y-85065226D01*
X17905000Y-85021289D01*
X17905000Y-82184013D01*
X17924744Y-82197205D01*
X18113102Y-82275226D01*
X18313061Y-82315000D01*
X18516939Y-82315000D01*
X18716898Y-82275226D01*
X18905256Y-82197205D01*
X19074774Y-82083937D01*
X19218937Y-81939774D01*
X19332205Y-81770256D01*
X19335996Y-81761103D01*
X19373368Y-81798475D01*
G04 #@! TA.AperFunction,Conductor*
D23*
G36*
X19373368Y-81798475D02*
G01*
X19547760Y-81915000D01*
X19373368Y-82031525D01*
X19166525Y-82238368D01*
X19004010Y-82481589D01*
X18892068Y-82751842D01*
X18835000Y-83038740D01*
X18835000Y-83331260D01*
X18892068Y-83618158D01*
X19004010Y-83888411D01*
X19166525Y-84131632D01*
X19373368Y-84338475D01*
X19547760Y-84455000D01*
X19373368Y-84571525D01*
X19166525Y-84778368D01*
X19004010Y-85021589D01*
X18892068Y-85291842D01*
X18835000Y-85578740D01*
X18835000Y-85871260D01*
X18892068Y-86158158D01*
X19004010Y-86428411D01*
X19166525Y-86671632D01*
X19373368Y-86878475D01*
X19546729Y-86994311D01*
X19471208Y-87236603D01*
X20320000Y-88085395D01*
X21168792Y-87236603D01*
X21093271Y-86994311D01*
X21266632Y-86878475D01*
X21473475Y-86671632D01*
X21590000Y-86497240D01*
X21706525Y-86671632D01*
X21913368Y-86878475D01*
X22086729Y-86994311D01*
X22011208Y-87236603D01*
X22860000Y-88085395D01*
X22874143Y-88071253D01*
X23053748Y-88250858D01*
X23039605Y-88265000D01*
X23053748Y-88279143D01*
X22874143Y-88458748D01*
X22860000Y-88444605D01*
X22011208Y-89293397D01*
X22086514Y-89535000D01*
X22011208Y-89776603D01*
X22860000Y-90625395D01*
X22874143Y-90611253D01*
X23053748Y-90790858D01*
X23039605Y-90805000D01*
X23053748Y-90819143D01*
X22874143Y-90998748D01*
X22860000Y-90984605D01*
X22011208Y-91833397D01*
X22086514Y-92075000D01*
X22011208Y-92316603D01*
X22860000Y-93165395D01*
X22874143Y-93151253D01*
X23053748Y-93330858D01*
X23039605Y-93345000D01*
X23053748Y-93359143D01*
X22874143Y-93538748D01*
X22860000Y-93524605D01*
X22011208Y-94373397D01*
X22086729Y-94615689D01*
X21913368Y-94731525D01*
X21706525Y-94938368D01*
X21590000Y-95112760D01*
X21473475Y-94938368D01*
X21266632Y-94731525D01*
X21093271Y-94615689D01*
X21168792Y-94373397D01*
X20320000Y-93524605D01*
X19471208Y-94373397D01*
X19546729Y-94615689D01*
X19373368Y-94731525D01*
X19166525Y-94938368D01*
X19041822Y-95125000D01*
X17905000Y-95125000D01*
X17905000Y-93413531D01*
X18829389Y-93413531D01*
X18871401Y-93703019D01*
X18969081Y-93978747D01*
X19042528Y-94116157D01*
X19291603Y-94193792D01*
X20140395Y-93345000D01*
X20499605Y-93345000D01*
X21348397Y-94193792D01*
X21590000Y-94118486D01*
X21831603Y-94193792D01*
X22680395Y-93345000D01*
X21831603Y-92496208D01*
X21590000Y-92571514D01*
X21348397Y-92496208D01*
X20499605Y-93345000D01*
X20140395Y-93345000D01*
X19291603Y-92496208D01*
X19042528Y-92573843D01*
X18916629Y-92837883D01*
X18844661Y-93121411D01*
X18829389Y-93413531D01*
X17905000Y-93413531D01*
X17905000Y-91833397D01*
X19471208Y-91833397D01*
X19546514Y-92075000D01*
X19471208Y-92316603D01*
X20320000Y-93165395D01*
X21168792Y-92316603D01*
X21093486Y-92075000D01*
X21168792Y-91833397D01*
X20320000Y-90984605D01*
X19471208Y-91833397D01*
X17905000Y-91833397D01*
X17905000Y-90873711D01*
X17905180Y-90873531D01*
X18829389Y-90873531D01*
X18871401Y-91163019D01*
X18969081Y-91438747D01*
X19042528Y-91576157D01*
X19291603Y-91653792D01*
X20140395Y-90805000D01*
X20499605Y-90805000D01*
X21348397Y-91653792D01*
X21590000Y-91578486D01*
X21831603Y-91653792D01*
X22680395Y-90805000D01*
X21831603Y-89956208D01*
X21590000Y-90031514D01*
X21348397Y-89956208D01*
X20499605Y-90805000D01*
X20140395Y-90805000D01*
X19291603Y-89956208D01*
X19042528Y-90033843D01*
X18916629Y-90297883D01*
X18844661Y-90581411D01*
X18829389Y-90873531D01*
X17905180Y-90873531D01*
X17948937Y-90829774D01*
X18062205Y-90660256D01*
X18140226Y-90471898D01*
X18180000Y-90271939D01*
X18180000Y-90068061D01*
X18140226Y-89868102D01*
X18062205Y-89679744D01*
X17948937Y-89510226D01*
X17804774Y-89366063D01*
X17696022Y-89293397D01*
X19471208Y-89293397D01*
X19546514Y-89535000D01*
X19471208Y-89776603D01*
X20320000Y-90625395D01*
X21168792Y-89776603D01*
X21093486Y-89535000D01*
X21168792Y-89293397D01*
X20320000Y-88444605D01*
X19471208Y-89293397D01*
X17696022Y-89293397D01*
X17635256Y-89252795D01*
X17446898Y-89174774D01*
X17246939Y-89135000D01*
X17043061Y-89135000D01*
X16843102Y-89174774D01*
X16654744Y-89252795D01*
X16635000Y-89265987D01*
X16635000Y-88333531D01*
X18829389Y-88333531D01*
X18871401Y-88623019D01*
X18969081Y-88898747D01*
X19042528Y-89036157D01*
X19291603Y-89113792D01*
X20140395Y-88265000D01*
X20499605Y-88265000D01*
X21348397Y-89113792D01*
X21590000Y-89038486D01*
X21831603Y-89113792D01*
X22680395Y-88265000D01*
X21831603Y-87416208D01*
X21590000Y-87491514D01*
X21348397Y-87416208D01*
X20499605Y-88265000D01*
X20140395Y-88265000D01*
X19291603Y-87416208D01*
X19042528Y-87493843D01*
X18916629Y-87757883D01*
X18844661Y-88041411D01*
X18829389Y-88333531D01*
X16635000Y-88333531D01*
X16635000Y-86629013D01*
X16654744Y-86642205D01*
X16843102Y-86720226D01*
X17043061Y-86760000D01*
X17246939Y-86760000D01*
X17446898Y-86720226D01*
X17635256Y-86642205D01*
X17804774Y-86528937D01*
X17948937Y-86384774D01*
X18062205Y-86215256D01*
X18140226Y-86026898D01*
X18180000Y-85826939D01*
X18180000Y-85623061D01*
X18140226Y-85423102D01*
X18062205Y-85234744D01*
X17948937Y-85065226D01*
X17905000Y-85021289D01*
X17905000Y-82184013D01*
X17924744Y-82197205D01*
X18113102Y-82275226D01*
X18313061Y-82315000D01*
X18516939Y-82315000D01*
X18716898Y-82275226D01*
X18905256Y-82197205D01*
X19074774Y-82083937D01*
X19218937Y-81939774D01*
X19332205Y-81770256D01*
X19335996Y-81761103D01*
X19373368Y-81798475D01*
G37*
G04 #@! TD.AperFunction*
D22*
X22056063Y-57174774D02*
X22200226Y-57318937D01*
X22369744Y-57432205D01*
X22558102Y-57510226D01*
X22758061Y-57550000D01*
X22961939Y-57550000D01*
X23161898Y-57510226D01*
X23350256Y-57432205D01*
X23370000Y-57419012D01*
X23370001Y-69781288D01*
X23326063Y-69825226D01*
X23212795Y-69994744D01*
X23134774Y-70183102D01*
X23095000Y-70383061D01*
X23095000Y-70586939D01*
X23134774Y-70786898D01*
X23212795Y-70975256D01*
X23326063Y-71144774D01*
X23470226Y-71288937D01*
X23639744Y-71402205D01*
X23828102Y-71480226D01*
X24028061Y-71520000D01*
X24231939Y-71520000D01*
X24431898Y-71480226D01*
X24620256Y-71402205D01*
X24789774Y-71288937D01*
X24933937Y-71144774D01*
X25047205Y-70975256D01*
X25125226Y-70786898D01*
X25165000Y-70586939D01*
X25165000Y-70383061D01*
X25125226Y-70183102D01*
X25047205Y-69994744D01*
X24933937Y-69825226D01*
X24890000Y-69781289D01*
X24890000Y-66944013D01*
X24909744Y-66957205D01*
X25098102Y-67035226D01*
X25298061Y-67075000D01*
X25501939Y-67075000D01*
X25701898Y-67035226D01*
X25890256Y-66957205D01*
X26059774Y-66843937D01*
X26203937Y-66699774D01*
X26317205Y-66530256D01*
X26395226Y-66341898D01*
X26435000Y-66141939D01*
X26435000Y-65938061D01*
X26395226Y-65738102D01*
X26317205Y-65549744D01*
X26203937Y-65380226D01*
X26160000Y-65336289D01*
X26160000Y-61989171D01*
X26207818Y-62146808D01*
X26341068Y-62396101D01*
X26520392Y-62614608D01*
X26738899Y-62793932D01*
X26988192Y-62927182D01*
X27180000Y-62985366D01*
X27180001Y-70416288D01*
X27136063Y-70460226D01*
X27022795Y-70629744D01*
X26944774Y-70818102D01*
X26905000Y-71018061D01*
X26905000Y-71221939D01*
X26944774Y-71421898D01*
X27022795Y-71610256D01*
X27102805Y-71730000D01*
X24162419Y-71730000D01*
X24130000Y-71726807D01*
X24097581Y-71730000D01*
X24000617Y-71739550D01*
X23876207Y-71777290D01*
X23761550Y-71838575D01*
X23661052Y-71921052D01*
X23578575Y-72021550D01*
X23517290Y-72136207D01*
X23479550Y-72260617D01*
X23466807Y-72390000D01*
X23470000Y-72422419D01*
X23470000Y-76750318D01*
X23293158Y-76677068D01*
X23006260Y-76620000D01*
X22713740Y-76620000D01*
X22426842Y-76677068D01*
X22156589Y-76789010D01*
X21913368Y-76951525D01*
X21726285Y-77138608D01*
X21658405Y-77011614D01*
X21547962Y-76877038D01*
X21413386Y-76766595D01*
X21259850Y-76684528D01*
X21093254Y-76633992D01*
X20920000Y-76616928D01*
X19720000Y-76616928D01*
X19546746Y-76633992D01*
X19380150Y-76684528D01*
X19226614Y-76766595D01*
X19175000Y-76808953D01*
X19175000Y-72458711D01*
X19218937Y-72414774D01*
X19332205Y-72245256D01*
X19410226Y-72056898D01*
X19450000Y-71856939D01*
X19450000Y-71653061D01*
X19410226Y-71453102D01*
X19332205Y-71264744D01*
X19218937Y-71095226D01*
X19074774Y-70951063D01*
X18905256Y-70837795D01*
X18716898Y-70759774D01*
X18516939Y-70720000D01*
X18313061Y-70720000D01*
X18113102Y-70759774D01*
X17924744Y-70837795D01*
X17905000Y-70850987D01*
X17905000Y-70018072D01*
X17945000Y-70018072D01*
X18069482Y-70005812D01*
X18189180Y-69969502D01*
X18299494Y-69910537D01*
X18396185Y-69831185D01*
X18406807Y-69818242D01*
X18658996Y-69937571D01*
X18933184Y-70006300D01*
X19215512Y-70020217D01*
X19495130Y-69978787D01*
X19761292Y-69883603D01*
X19886514Y-69816671D01*
X19958097Y-69572702D01*
X19145000Y-68759605D01*
X19130858Y-68773748D01*
X18951253Y-68594143D01*
X18965395Y-68580000D01*
X19324605Y-68580000D01*
X20137702Y-69393097D01*
X20381671Y-69321514D01*
X20502571Y-69066004D01*
X20571300Y-68791816D01*
X20585217Y-68509488D01*
X20543787Y-68229870D01*
X20448603Y-67963708D01*
X20381671Y-67838486D01*
X20137702Y-67766903D01*
X19324605Y-68580000D01*
X18965395Y-68580000D01*
X18951253Y-68565858D01*
X19130858Y-68386253D01*
X19145000Y-68400395D01*
X19958097Y-67587298D01*
X19886514Y-67343329D01*
X19631004Y-67222429D01*
X19356816Y-67153700D01*
X19074488Y-67139783D01*
X18794870Y-67181213D01*
X18528708Y-67276397D01*
X18406691Y-67341616D01*
X18396185Y-67328815D01*
X18299494Y-67249463D01*
X18189180Y-67190498D01*
X18069482Y-67154188D01*
X17945000Y-67141928D01*
X17905000Y-67141928D01*
X17905000Y-63769013D01*
X17924744Y-63782205D01*
X18113102Y-63860226D01*
X18313061Y-63900000D01*
X18516939Y-63900000D01*
X18716898Y-63860226D01*
X18905256Y-63782205D01*
X19074774Y-63668937D01*
X19218937Y-63524774D01*
X19332205Y-63355256D01*
X19410226Y-63166898D01*
X19450000Y-62966939D01*
X19450000Y-62951998D01*
X19638691Y-63009236D01*
X19849508Y-63030000D01*
X20790492Y-63030000D01*
X21001309Y-63009236D01*
X21271808Y-62927182D01*
X21521101Y-62793932D01*
X21739608Y-62614608D01*
X21918932Y-62396101D01*
X22052182Y-62146808D01*
X22134236Y-61876309D01*
X22161943Y-61595000D01*
X22134236Y-61313691D01*
X22052182Y-61043192D01*
X21918932Y-60793899D01*
X21739608Y-60575392D01*
X21521101Y-60396068D01*
X21388142Y-60325000D01*
X21521101Y-60253932D01*
X21739608Y-60074608D01*
X21918932Y-59856101D01*
X22052182Y-59606808D01*
X22134236Y-59336309D01*
X22161943Y-59055000D01*
X22134236Y-58773691D01*
X22052182Y-58503192D01*
X21918932Y-58253899D01*
X21739608Y-58035392D01*
X21521101Y-57856068D01*
X21388142Y-57785000D01*
X21521101Y-57713932D01*
X21739608Y-57534608D01*
X21918932Y-57316101D01*
X22021845Y-57123564D01*
X22056063Y-57174774D01*
G04 #@! TA.AperFunction,Conductor*
D23*
G36*
X22056063Y-57174774D02*
G01*
X22200226Y-57318937D01*
X22369744Y-57432205D01*
X22558102Y-57510226D01*
X22758061Y-57550000D01*
X22961939Y-57550000D01*
X23161898Y-57510226D01*
X23350256Y-57432205D01*
X23370000Y-57419012D01*
X23370001Y-69781288D01*
X23326063Y-69825226D01*
X23212795Y-69994744D01*
X23134774Y-70183102D01*
X23095000Y-70383061D01*
X23095000Y-70586939D01*
X23134774Y-70786898D01*
X23212795Y-70975256D01*
X23326063Y-71144774D01*
X23470226Y-71288937D01*
X23639744Y-71402205D01*
X23828102Y-71480226D01*
X24028061Y-71520000D01*
X24231939Y-71520000D01*
X24431898Y-71480226D01*
X24620256Y-71402205D01*
X24789774Y-71288937D01*
X24933937Y-71144774D01*
X25047205Y-70975256D01*
X25125226Y-70786898D01*
X25165000Y-70586939D01*
X25165000Y-70383061D01*
X25125226Y-70183102D01*
X25047205Y-69994744D01*
X24933937Y-69825226D01*
X24890000Y-69781289D01*
X24890000Y-66944013D01*
X24909744Y-66957205D01*
X25098102Y-67035226D01*
X25298061Y-67075000D01*
X25501939Y-67075000D01*
X25701898Y-67035226D01*
X25890256Y-66957205D01*
X26059774Y-66843937D01*
X26203937Y-66699774D01*
X26317205Y-66530256D01*
X26395226Y-66341898D01*
X26435000Y-66141939D01*
X26435000Y-65938061D01*
X26395226Y-65738102D01*
X26317205Y-65549744D01*
X26203937Y-65380226D01*
X26160000Y-65336289D01*
X26160000Y-61989171D01*
X26207818Y-62146808D01*
X26341068Y-62396101D01*
X26520392Y-62614608D01*
X26738899Y-62793932D01*
X26988192Y-62927182D01*
X27180000Y-62985366D01*
X27180001Y-70416288D01*
X27136063Y-70460226D01*
X27022795Y-70629744D01*
X26944774Y-70818102D01*
X26905000Y-71018061D01*
X26905000Y-71221939D01*
X26944774Y-71421898D01*
X27022795Y-71610256D01*
X27102805Y-71730000D01*
X24162419Y-71730000D01*
X24130000Y-71726807D01*
X24097581Y-71730000D01*
X24000617Y-71739550D01*
X23876207Y-71777290D01*
X23761550Y-71838575D01*
X23661052Y-71921052D01*
X23578575Y-72021550D01*
X23517290Y-72136207D01*
X23479550Y-72260617D01*
X23466807Y-72390000D01*
X23470000Y-72422419D01*
X23470000Y-76750318D01*
X23293158Y-76677068D01*
X23006260Y-76620000D01*
X22713740Y-76620000D01*
X22426842Y-76677068D01*
X22156589Y-76789010D01*
X21913368Y-76951525D01*
X21726285Y-77138608D01*
X21658405Y-77011614D01*
X21547962Y-76877038D01*
X21413386Y-76766595D01*
X21259850Y-76684528D01*
X21093254Y-76633992D01*
X20920000Y-76616928D01*
X19720000Y-76616928D01*
X19546746Y-76633992D01*
X19380150Y-76684528D01*
X19226614Y-76766595D01*
X19175000Y-76808953D01*
X19175000Y-72458711D01*
X19218937Y-72414774D01*
X19332205Y-72245256D01*
X19410226Y-72056898D01*
X19450000Y-71856939D01*
X19450000Y-71653061D01*
X19410226Y-71453102D01*
X19332205Y-71264744D01*
X19218937Y-71095226D01*
X19074774Y-70951063D01*
X18905256Y-70837795D01*
X18716898Y-70759774D01*
X18516939Y-70720000D01*
X18313061Y-70720000D01*
X18113102Y-70759774D01*
X17924744Y-70837795D01*
X17905000Y-70850987D01*
X17905000Y-70018072D01*
X17945000Y-70018072D01*
X18069482Y-70005812D01*
X18189180Y-69969502D01*
X18299494Y-69910537D01*
X18396185Y-69831185D01*
X18406807Y-69818242D01*
X18658996Y-69937571D01*
X18933184Y-70006300D01*
X19215512Y-70020217D01*
X19495130Y-69978787D01*
X19761292Y-69883603D01*
X19886514Y-69816671D01*
X19958097Y-69572702D01*
X19145000Y-68759605D01*
X19130858Y-68773748D01*
X18951253Y-68594143D01*
X18965395Y-68580000D01*
X19324605Y-68580000D01*
X20137702Y-69393097D01*
X20381671Y-69321514D01*
X20502571Y-69066004D01*
X20571300Y-68791816D01*
X20585217Y-68509488D01*
X20543787Y-68229870D01*
X20448603Y-67963708D01*
X20381671Y-67838486D01*
X20137702Y-67766903D01*
X19324605Y-68580000D01*
X18965395Y-68580000D01*
X18951253Y-68565858D01*
X19130858Y-68386253D01*
X19145000Y-68400395D01*
X19958097Y-67587298D01*
X19886514Y-67343329D01*
X19631004Y-67222429D01*
X19356816Y-67153700D01*
X19074488Y-67139783D01*
X18794870Y-67181213D01*
X18528708Y-67276397D01*
X18406691Y-67341616D01*
X18396185Y-67328815D01*
X18299494Y-67249463D01*
X18189180Y-67190498D01*
X18069482Y-67154188D01*
X17945000Y-67141928D01*
X17905000Y-67141928D01*
X17905000Y-63769013D01*
X17924744Y-63782205D01*
X18113102Y-63860226D01*
X18313061Y-63900000D01*
X18516939Y-63900000D01*
X18716898Y-63860226D01*
X18905256Y-63782205D01*
X19074774Y-63668937D01*
X19218937Y-63524774D01*
X19332205Y-63355256D01*
X19410226Y-63166898D01*
X19450000Y-62966939D01*
X19450000Y-62951998D01*
X19638691Y-63009236D01*
X19849508Y-63030000D01*
X20790492Y-63030000D01*
X21001309Y-63009236D01*
X21271808Y-62927182D01*
X21521101Y-62793932D01*
X21739608Y-62614608D01*
X21918932Y-62396101D01*
X22052182Y-62146808D01*
X22134236Y-61876309D01*
X22161943Y-61595000D01*
X22134236Y-61313691D01*
X22052182Y-61043192D01*
X21918932Y-60793899D01*
X21739608Y-60575392D01*
X21521101Y-60396068D01*
X21388142Y-60325000D01*
X21521101Y-60253932D01*
X21739608Y-60074608D01*
X21918932Y-59856101D01*
X22052182Y-59606808D01*
X22134236Y-59336309D01*
X22161943Y-59055000D01*
X22134236Y-58773691D01*
X22052182Y-58503192D01*
X21918932Y-58253899D01*
X21739608Y-58035392D01*
X21521101Y-57856068D01*
X21388142Y-57785000D01*
X21521101Y-57713932D01*
X21739608Y-57534608D01*
X21918932Y-57316101D01*
X22021845Y-57123564D01*
X22056063Y-57174774D01*
G37*
G04 #@! TD.AperFunction*
M02*
