G04 #@! TF.GenerationSoftware,KiCad,Pcbnew,(5.1.9)-1*
G04 #@! TF.CreationDate,2022-06-14T08:32:34+02:00*
G04 #@! TF.ProjectId,Manual Gate Main,4d616e75-616c-4204-9761-7465204d6169,rev?*
G04 #@! TF.SameCoordinates,Original*
G04 #@! TF.FileFunction,Soldermask,Bot*
G04 #@! TF.FilePolarity,Negative*
%FSLAX46Y46*%
G04 Gerber Fmt 4.6, Leading zero omitted, Abs format (unit mm)*
G04 Created by KiCad (PCBNEW (5.1.9)-1) date 2022-06-14 08:32:34*
%MOMM*%
%LPD*%
G01*
G04 APERTURE LIST*
%ADD10O,1.600000X1.600000*%
%ADD11C,1.600000*%
%ADD12R,1.600000X1.600000*%
%ADD13O,2.200000X2.200000*%
%ADD14R,2.200000X2.200000*%
%ADD15O,1.700000X1.700000*%
%ADD16R,1.700000X1.700000*%
%ADD17R,1.050000X1.500000*%
%ADD18O,1.050000X1.500000*%
%ADD19R,1.500000X1.050000*%
%ADD20O,1.500000X1.050000*%
G04 APERTURE END LIST*
D10*
G04 #@! TO.C,R1*
X4826000Y-35560000D03*
D11*
X4826000Y-33020000D03*
G04 #@! TD*
D10*
G04 #@! TO.C,D12*
X12065000Y-7302500D03*
D12*
X12065000Y-9842500D03*
G04 #@! TD*
D10*
G04 #@! TO.C,D9*
X12700000Y-50165000D03*
D12*
X12700000Y-47625000D03*
G04 #@! TD*
D10*
G04 #@! TO.C,D8*
X12700000Y-66675000D03*
D12*
X12700000Y-64135000D03*
G04 #@! TD*
D10*
G04 #@! TO.C,D5*
X2540000Y-50165000D03*
D12*
X2540000Y-47625000D03*
G04 #@! TD*
D10*
G04 #@! TO.C,D2*
X1700000Y-30340000D03*
D12*
X1700000Y-27800000D03*
G04 #@! TD*
D10*
G04 #@! TO.C,D1*
X2540000Y-66675000D03*
D12*
X2540000Y-64135000D03*
G04 #@! TD*
D13*
G04 #@! TO.C,D7*
X10795000Y-86360000D03*
D14*
X8255000Y-86360000D03*
G04 #@! TD*
D10*
G04 #@! TO.C,R43*
X12382500Y-12700000D03*
D11*
X9842500Y-12700000D03*
G04 #@! TD*
D10*
G04 #@! TO.C,R42*
X14605000Y-15557500D03*
D11*
X17145000Y-15557500D03*
G04 #@! TD*
D10*
G04 #@! TO.C,R41*
X17462500Y-1587500D03*
D11*
X14922500Y-1587500D03*
G04 #@! TD*
D10*
G04 #@! TO.C,R40*
X9207500Y-7620000D03*
D11*
X9207500Y-5080000D03*
G04 #@! TD*
D10*
G04 #@! TO.C,R39*
X6032500Y-7620000D03*
D11*
X6032500Y-5080000D03*
G04 #@! TD*
D10*
G04 #@! TO.C,R36*
X17145000Y-59690000D03*
D11*
X17145000Y-57150000D03*
G04 #@! TD*
D10*
G04 #@! TO.C,R35*
X15875000Y-51435000D03*
D11*
X15875000Y-53975000D03*
G04 #@! TD*
D10*
G04 #@! TO.C,R33*
X12700000Y-52705000D03*
D11*
X12700000Y-55245000D03*
G04 #@! TD*
D10*
G04 #@! TO.C,R31*
X16764000Y-46228000D03*
D11*
X16764000Y-48768000D03*
G04 #@! TD*
D10*
G04 #@! TO.C,R30*
X17145000Y-76200000D03*
D11*
X17145000Y-73660000D03*
G04 #@! TD*
D10*
G04 #@! TO.C,R29*
X15875000Y-67945000D03*
D11*
X15875000Y-70485000D03*
G04 #@! TD*
D10*
G04 #@! TO.C,R28*
X16764000Y-40640000D03*
D11*
X16764000Y-43180000D03*
G04 #@! TD*
D10*
G04 #@! TO.C,R27*
X12700000Y-69215000D03*
D11*
X12700000Y-71755000D03*
G04 #@! TD*
D10*
G04 #@! TO.C,R25*
X17145000Y-32067500D03*
D11*
X17145000Y-29527500D03*
G04 #@! TD*
D10*
G04 #@! TO.C,R23*
X14922500Y-26670000D03*
D11*
X14922500Y-24130000D03*
G04 #@! TD*
D10*
G04 #@! TO.C,R22*
X6985000Y-59690000D03*
D11*
X6985000Y-57150000D03*
G04 #@! TD*
D10*
G04 #@! TO.C,R21*
X5715000Y-51435000D03*
D11*
X5715000Y-53975000D03*
G04 #@! TD*
D10*
G04 #@! TO.C,R20*
X17462500Y-20955000D03*
D11*
X14922500Y-20955000D03*
G04 #@! TD*
D10*
G04 #@! TO.C,R19*
X2540000Y-52705000D03*
D11*
X2540000Y-55245000D03*
G04 #@! TD*
D10*
G04 #@! TO.C,R18*
X6032500Y-18415000D03*
D11*
X6032500Y-20955000D03*
G04 #@! TD*
D10*
G04 #@! TO.C,R17*
X5715000Y-29527500D03*
D11*
X8255000Y-29527500D03*
G04 #@! TD*
D10*
G04 #@! TO.C,R16*
X6032500Y-26670000D03*
D11*
X6032500Y-24130000D03*
G04 #@! TD*
D10*
G04 #@! TO.C,R11*
X6096000Y-44196000D03*
D11*
X3556000Y-44196000D03*
G04 #@! TD*
D10*
G04 #@! TO.C,R10*
X1500000Y-32960000D03*
D11*
X1500000Y-35500000D03*
G04 #@! TD*
D10*
G04 #@! TO.C,R9*
X6985000Y-76200000D03*
D11*
X6985000Y-73660000D03*
G04 #@! TD*
D10*
G04 #@! TO.C,R8*
X2857500Y-16192500D03*
D11*
X2857500Y-13652500D03*
G04 #@! TD*
D10*
G04 #@! TO.C,R6*
X5715000Y-67945000D03*
D11*
X5715000Y-70485000D03*
G04 #@! TD*
D10*
G04 #@! TO.C,R5*
X2540000Y-69215000D03*
D11*
X2540000Y-71755000D03*
G04 #@! TD*
D10*
G04 #@! TO.C,R4*
X3556000Y-41148000D03*
D11*
X3556000Y-38608000D03*
G04 #@! TD*
D10*
G04 #@! TO.C,R3*
X9207500Y-15875000D03*
D11*
X11747500Y-15875000D03*
G04 #@! TD*
D10*
G04 #@! TO.C,R2*
X10440000Y-35052000D03*
D11*
X7900000Y-35052000D03*
G04 #@! TD*
D15*
G04 #@! TO.C,J10*
X16510000Y-99060000D03*
X16510000Y-96520000D03*
X16510000Y-93980000D03*
D16*
X16510000Y-91440000D03*
G04 #@! TD*
D15*
G04 #@! TO.C,J9*
X2540000Y-99060000D03*
X2540000Y-96520000D03*
X2540000Y-93980000D03*
D16*
X2540000Y-91440000D03*
G04 #@! TD*
D15*
G04 #@! TO.C,J8*
X2540000Y-10160000D03*
X2540000Y-7620000D03*
X2540000Y-5080000D03*
D16*
X2540000Y-2540000D03*
G04 #@! TD*
D17*
G04 #@! TO.C,Q12*
X14922500Y-11747500D03*
D18*
X17462500Y-11747500D03*
X16192500Y-11747500D03*
G04 #@! TD*
D19*
G04 #@! TO.C,Q11*
X15557500Y-4762500D03*
D20*
X15557500Y-7302500D03*
X15557500Y-6032500D03*
G04 #@! TD*
D19*
G04 #@! TO.C,Q10*
X12700000Y-58420000D03*
D20*
X12700000Y-60960000D03*
X12700000Y-59690000D03*
G04 #@! TD*
D19*
G04 #@! TO.C,Q9*
X12700000Y-74930000D03*
D20*
X12700000Y-77470000D03*
X12700000Y-76200000D03*
G04 #@! TD*
D19*
G04 #@! TO.C,Q8*
X12700000Y-44704000D03*
D20*
X12700000Y-42164000D03*
X12700000Y-43434000D03*
G04 #@! TD*
D19*
G04 #@! TO.C,Q7*
X2540000Y-58420000D03*
D20*
X2540000Y-60960000D03*
X2540000Y-59690000D03*
G04 #@! TD*
D17*
G04 #@! TO.C,Q6*
X13970000Y-29845000D03*
D18*
X11430000Y-29845000D03*
X12700000Y-29845000D03*
G04 #@! TD*
D17*
G04 #@! TO.C,Q5*
X11747500Y-24765000D03*
D18*
X9207500Y-24765000D03*
X10477500Y-24765000D03*
G04 #@! TD*
D19*
G04 #@! TO.C,Q4*
X8000000Y-46400000D03*
D20*
X8000000Y-48940000D03*
X8000000Y-47670000D03*
G04 #@! TD*
D19*
G04 #@! TO.C,Q3*
X2540000Y-74930000D03*
D20*
X2540000Y-77470000D03*
X2540000Y-76200000D03*
G04 #@! TD*
D17*
G04 #@! TO.C,Q2*
X9207500Y-20320000D03*
D18*
X11747500Y-20320000D03*
X10477500Y-20320000D03*
G04 #@! TD*
D19*
G04 #@! TO.C,Q1*
X7112000Y-38608000D03*
D20*
X7112000Y-41148000D03*
X7112000Y-39878000D03*
G04 #@! TD*
D15*
G04 #@! TO.C,J3*
X8255000Y-100330000D03*
X10795000Y-100330000D03*
X8255000Y-97790000D03*
X10795000Y-97790000D03*
X8255000Y-95250000D03*
X10795000Y-95250000D03*
X8255000Y-92710000D03*
X10795000Y-92710000D03*
X8255000Y-90170000D03*
D16*
X10795000Y-90170000D03*
G04 #@! TD*
D11*
G04 #@! TO.C,C5*
X10755000Y-81280000D03*
D12*
X8255000Y-81280000D03*
G04 #@! TD*
D11*
G04 #@! TO.C,C4*
X2857500Y-23415000D03*
X2857500Y-18415000D03*
G04 #@! TD*
G04 #@! TO.C,C3*
X6350000Y-11192500D03*
X6350000Y-16192500D03*
G04 #@! TD*
G04 #@! TO.C,C2*
X17700000Y-35052000D03*
X12700000Y-35052000D03*
G04 #@! TD*
M02*
