G04 #@! TF.GenerationSoftware,KiCad,Pcbnew,(5.1.9)-1*
G04 #@! TF.CreationDate,2022-06-14T08:32:34+02:00*
G04 #@! TF.ProjectId,Manual Gate Main,4d616e75-616c-4204-9761-7465204d6169,rev?*
G04 #@! TF.SameCoordinates,Original*
G04 #@! TF.FileFunction,Legend,Bot*
G04 #@! TF.FilePolarity,Positive*
%FSLAX46Y46*%
G04 Gerber Fmt 4.6, Leading zero omitted, Abs format (unit mm)*
G04 Created by KiCad (PCBNEW (5.1.9)-1) date 2022-06-14 08:32:34*
%MOMM*%
%LPD*%
G01*
G04 APERTURE LIST*
%ADD10C,0.100000*%
%ADD11C,0.120000*%
%ADD12C,0.150000*%
G04 APERTURE END LIST*
D10*
G04 #@! TO.C,J3*
G36*
X5715000Y-101600000D02*
G01*
X13335000Y-101600000D01*
X13335000Y-99060000D01*
X5715000Y-99060000D01*
X5715000Y-101600000D01*
G37*
X5715000Y-101600000D02*
X13335000Y-101600000D01*
X13335000Y-99060000D01*
X5715000Y-99060000D01*
X5715000Y-101600000D01*
D11*
X12125000Y-101660000D02*
X6925000Y-101660000D01*
D12*
X11501190Y-88082380D02*
X11501190Y-87082380D01*
X11120238Y-87082380D01*
X11025000Y-87130000D01*
X10977380Y-87177619D01*
X10929761Y-87272857D01*
X10929761Y-87415714D01*
X10977380Y-87510952D01*
X11025000Y-87558571D01*
X11120238Y-87606190D01*
X11501190Y-87606190D01*
X10358333Y-88082380D02*
X10453571Y-88034761D01*
X10501190Y-87987142D01*
X10548809Y-87891904D01*
X10548809Y-87606190D01*
X10501190Y-87510952D01*
X10453571Y-87463333D01*
X10358333Y-87415714D01*
X10215476Y-87415714D01*
X10120238Y-87463333D01*
X10072619Y-87510952D01*
X10025000Y-87606190D01*
X10025000Y-87891904D01*
X10072619Y-87987142D01*
X10120238Y-88034761D01*
X10215476Y-88082380D01*
X10358333Y-88082380D01*
X9691666Y-87415714D02*
X9501190Y-88082380D01*
X9310714Y-87606190D01*
X9120238Y-88082380D01*
X8929761Y-87415714D01*
X8167857Y-88034761D02*
X8263095Y-88082380D01*
X8453571Y-88082380D01*
X8548809Y-88034761D01*
X8596428Y-87939523D01*
X8596428Y-87558571D01*
X8548809Y-87463333D01*
X8453571Y-87415714D01*
X8263095Y-87415714D01*
X8167857Y-87463333D01*
X8120238Y-87558571D01*
X8120238Y-87653809D01*
X8596428Y-87749047D01*
X7691666Y-88082380D02*
X7691666Y-87415714D01*
X7691666Y-87606190D02*
X7644047Y-87510952D01*
X7596428Y-87463333D01*
X7501190Y-87415714D01*
X7405952Y-87415714D01*
D10*
X14331904Y-99872857D02*
X13950952Y-99606190D01*
X14331904Y-99415714D02*
X13531904Y-99415714D01*
X13531904Y-99720476D01*
X13570000Y-99796666D01*
X13608095Y-99834761D01*
X13684285Y-99872857D01*
X13798571Y-99872857D01*
X13874761Y-99834761D01*
X13912857Y-99796666D01*
X13950952Y-99720476D01*
X13950952Y-99415714D01*
X14293809Y-100520476D02*
X14331904Y-100444285D01*
X14331904Y-100291904D01*
X14293809Y-100215714D01*
X14217619Y-100177619D01*
X13912857Y-100177619D01*
X13836666Y-100215714D01*
X13798571Y-100291904D01*
X13798571Y-100444285D01*
X13836666Y-100520476D01*
X13912857Y-100558571D01*
X13989047Y-100558571D01*
X14065238Y-100177619D01*
X14331904Y-101244285D02*
X13531904Y-101244285D01*
X14293809Y-101244285D02*
X14331904Y-101168095D01*
X14331904Y-101015714D01*
X14293809Y-100939523D01*
X14255714Y-100901428D01*
X14179523Y-100863333D01*
X13950952Y-100863333D01*
X13874761Y-100901428D01*
X13836666Y-100939523D01*
X13798571Y-101015714D01*
X13798571Y-101168095D01*
X13836666Y-101244285D01*
X5441904Y-99872857D02*
X5060952Y-99606190D01*
X5441904Y-99415714D02*
X4641904Y-99415714D01*
X4641904Y-99720476D01*
X4680000Y-99796666D01*
X4718095Y-99834761D01*
X4794285Y-99872857D01*
X4908571Y-99872857D01*
X4984761Y-99834761D01*
X5022857Y-99796666D01*
X5060952Y-99720476D01*
X5060952Y-99415714D01*
X5403809Y-100520476D02*
X5441904Y-100444285D01*
X5441904Y-100291904D01*
X5403809Y-100215714D01*
X5327619Y-100177619D01*
X5022857Y-100177619D01*
X4946666Y-100215714D01*
X4908571Y-100291904D01*
X4908571Y-100444285D01*
X4946666Y-100520476D01*
X5022857Y-100558571D01*
X5099047Y-100558571D01*
X5175238Y-100177619D01*
X5441904Y-101244285D02*
X4641904Y-101244285D01*
X5403809Y-101244285D02*
X5441904Y-101168095D01*
X5441904Y-101015714D01*
X5403809Y-100939523D01*
X5365714Y-100901428D01*
X5289523Y-100863333D01*
X5060952Y-100863333D01*
X4984761Y-100901428D01*
X4946666Y-100939523D01*
X4908571Y-101015714D01*
X4908571Y-101168095D01*
X4946666Y-101244285D01*
G04 #@! TD*
M02*
