M48
; DRILL file {KiCad (5.1.9)-1} date 06/14/22 08:32:37
; FORMAT={-:-/ absolute / metric / decimal}
; #@! TF.CreationDate,2022-06-14T08:32:37+02:00
; #@! TF.GenerationSoftware,Kicad,Pcbnew,(5.1.9)-1
; #@! TF.FileFunction,Plated,1,2,PTH
FMAT,2
METRIC
T1C0.400
T2C0.750
T3C0.800
T4C1.000
T5C1.100
%
G90
G05
T1
X3.048Y-25.527
X7.62Y-25.527
X9.398Y-74.93
T2
X2.54Y-58.42
X2.54Y-59.69
X2.54Y-60.96
X2.54Y-74.93
X2.54Y-76.2
X2.54Y-77.47
X7.112Y-38.608
X7.112Y-39.878
X7.112Y-41.148
X8.0Y-46.4
X8.0Y-47.67
X8.0Y-48.94
X9.207Y-20.32
X9.207Y-24.765
X10.477Y-20.32
X10.477Y-24.765
X11.43Y-29.845
X11.747Y-20.32
X11.747Y-24.765
X12.7Y-29.845
X12.7Y-42.164
X12.7Y-43.434
X12.7Y-44.704
X12.7Y-58.42
X12.7Y-59.69
X12.7Y-60.96
X12.7Y-74.93
X12.7Y-76.2
X12.7Y-77.47
X13.97Y-29.845
X14.922Y-11.747
X15.557Y-4.763
X15.557Y-6.032
X15.557Y-7.302
X16.192Y-11.747
X17.462Y-11.747
T3
X1.5Y-32.96
X1.5Y-35.5
X1.7Y-27.8
X1.7Y-30.34
X2.54Y-47.625
X2.54Y-50.165
X2.54Y-52.705
X2.54Y-55.245
X2.54Y-64.135
X2.54Y-66.675
X2.54Y-69.215
X2.54Y-71.755
X2.857Y-13.652
X2.857Y-16.192
X2.857Y-18.415
X2.857Y-23.415
X3.556Y-38.608
X3.556Y-41.148
X3.556Y-44.196
X4.826Y-33.02
X4.826Y-35.56
X5.715Y-29.527
X5.715Y-51.435
X5.715Y-53.975
X5.715Y-67.945
X5.715Y-70.485
X6.032Y-5.08
X6.032Y-7.62
X6.032Y-18.415
X6.032Y-20.955
X6.032Y-24.13
X6.032Y-26.67
X6.096Y-44.196
X6.35Y-11.192
X6.35Y-16.192
X6.985Y-57.15
X6.985Y-59.69
X6.985Y-73.66
X6.985Y-76.2
X7.9Y-35.052
X8.255Y-29.527
X8.255Y-81.28
X9.207Y-5.08
X9.207Y-7.62
X9.207Y-15.875
X9.842Y-12.7
X10.44Y-35.052
X10.755Y-81.28
X11.747Y-15.875
X12.065Y-7.302
X12.065Y-9.842
X12.383Y-12.7
X12.7Y-35.052
X12.7Y-47.625
X12.7Y-50.165
X12.7Y-52.705
X12.7Y-55.245
X12.7Y-64.135
X12.7Y-66.675
X12.7Y-69.215
X12.7Y-71.755
X14.605Y-15.557
X14.922Y-1.587
X14.922Y-20.955
X14.922Y-24.13
X14.922Y-26.67
X15.875Y-51.435
X15.875Y-53.975
X15.875Y-67.945
X15.875Y-70.485
X16.764Y-40.64
X16.764Y-43.18
X16.764Y-46.228
X16.764Y-48.768
X17.145Y-15.557
X17.145Y-29.527
X17.145Y-32.067
X17.145Y-57.15
X17.145Y-59.69
X17.145Y-73.66
X17.145Y-76.2
X17.462Y-1.587
X17.462Y-20.955
X17.7Y-35.052
T4
X2.54Y-2.54
X2.54Y-5.08
X2.54Y-7.62
X2.54Y-10.16
X2.54Y-91.44
X2.54Y-93.98
X2.54Y-96.52
X2.54Y-99.06
X8.255Y-90.17
X8.255Y-92.71
X8.255Y-95.25
X8.255Y-97.79
X8.255Y-100.33
X10.795Y-90.17
X10.795Y-92.71
X10.795Y-95.25
X10.795Y-97.79
X10.795Y-100.33
X16.51Y-91.44
X16.51Y-93.98
X16.51Y-96.52
X16.51Y-99.06
T5
X8.255Y-86.36
X10.795Y-86.36
T0
M30
