M48
; DRILL file {KiCad (5.1.9)-1} date 05/09/21 15:32:19
; FORMAT={-:-/ absolute / metric / decimal}
; #@! TF.CreationDate,2021-05-09T15:32:19+02:00
; #@! TF.GenerationSoftware,Kicad,Pcbnew,(5.1.9)-1
; #@! TF.FileFunction,Plated,1,2,PTH
FMAT,2
METRIC
T1C0.400
T2C0.500
T3C0.750
T4C0.800
T5C1.000
%
G90
G05
T1
X8.255Y-59.69
X8.255Y-63.5
X8.255Y-69.85
X13.335Y-74.93
X13.335Y-78.74
X15.875Y-59.69
X15.875Y-69.85
X15.875Y-88.9
X16.51Y-16.51
X18.415Y-46.99
X19.05Y-38.735
X19.685Y-16.51
X20.32Y-64.77
X20.32Y-72.39
X23.495Y-14.605
X25.4Y-67.31
X26.035Y-5.715
X26.035Y-16.51
X26.035Y-36.83
X28.575Y-5.715
X28.575Y-8.89
X29.845Y-66.04
X31.115Y-67.31
X31.75Y-38.735
X33.02Y-14.605
X33.02Y-29.21
X33.02Y-46.99
X33.02Y-68.58
X34.29Y-8.89
X34.29Y-31.75
T3
X23.495Y-63.5
X23.495Y-66.04
X24.765Y-64.77
T4
X1.905Y-28.575
X1.905Y-31.75
X2.62Y-74.93
X5.08Y-82.55
X5.715Y-16.51
X5.715Y-62.23
X5.715Y-69.85
X7.62Y-74.93
X9.525Y-28.575
X9.525Y-31.75
X10.795Y-59.69
X10.795Y-63.5
X10.795Y-67.31
X10.795Y-69.85
X10.795Y-72.39
X10.795Y-74.93
X12.7Y-29.21
X12.7Y-36.83
X12.7Y-82.55
X13.335Y-16.51
X15.875Y-24.13
X15.875Y-31.75
X15.875Y-34.29
X15.875Y-39.29
X15.875Y-55.245
X16.51Y-12.7
X16.51Y-20.32
X18.415Y-59.69
X18.415Y-63.5
X18.415Y-67.31
X18.415Y-69.85
X18.415Y-72.39
X18.415Y-74.93
X18.495Y-8.89
X19.05Y-26.67
X19.05Y-29.21
X19.05Y-31.75
X19.05Y-34.29
X19.685Y-14.05
X19.685Y-19.05
X20.955Y-59.69
X21.67Y-69.85
X23.495Y-5.715
X23.495Y-8.89
X23.495Y-12.065
X23.495Y-19.685
X23.495Y-55.245
X24.765Y-2.54
X26.035Y-12.065
X26.035Y-19.685
X26.115Y-22.86
X26.67Y-26.67
X26.67Y-29.21
X26.67Y-31.75
X26.67Y-34.29
X26.67Y-69.85
X28.575Y-12.065
X28.575Y-19.685
X28.575Y-59.69
X29.765Y-2.54
X29.845Y-29.29
X29.845Y-34.29
X31.115Y-5.715
X31.115Y-12.065
X31.115Y-19.685
X31.115Y-22.86
T5
X18.415Y-42.545
X18.415Y-48.895
X22.86Y-78.74
X22.86Y-81.28
X22.86Y-83.82
X22.86Y-86.36
X22.86Y-88.9
X22.86Y-91.44
X22.86Y-93.98
X22.86Y-96.52
X25.4Y-78.74
X25.4Y-81.28
X25.4Y-83.82
X25.4Y-86.36
X25.4Y-88.9
X25.4Y-91.44
X25.4Y-93.98
X25.4Y-96.52
X26.035Y-45.085
X26.035Y-51.435
X31.115Y-42.545
X31.115Y-48.895
T2
G00X5.4Y-13.69
M15
G01X6.4Y-13.69
M16
G05
G00X5.4Y-55.6
M15
G01X6.4Y-55.6
M16
G05
G00X5.4Y-97.51
M15
G01X6.4Y-97.51
M16
G05
G00X9.1Y-3.69
M15
G01X10.1Y-3.69
M16
G05
G00X9.1Y-45.6
M15
G01X10.1Y-45.6
M16
G05
G00X9.1Y-87.51
M15
G01X10.1Y-87.51
M16
G05
T4
G00X1.7Y-8.54
M15
G01X1.7Y-9.24
M16
G05
G00X1.7Y-50.45
M15
G01X1.7Y-51.15
M16
G05
G00X1.7Y-92.36
M15
G01X1.7Y-93.06
M16
G05
G00X8.25Y-6.29
M15
G01X8.95Y-6.29
M16
G05
G00X8.25Y-48.2
M15
G01X8.95Y-48.2
M16
G05
G00X8.25Y-90.11
M15
G01X8.95Y-90.11
M16
G05
G00X13.0Y-12.64
M15
G01X13.0Y-13.34
M16
G05
G00X13.0Y-54.55
M15
G01X13.0Y-55.25
M16
G05
G00X13.0Y-96.46
M15
G01X13.0Y-97.16
M16
G05
T0
M30
