G04 #@! TF.GenerationSoftware,KiCad,Pcbnew,(5.1.9)-1*
G04 #@! TF.CreationDate,2021-05-09T15:32:16+02:00*
G04 #@! TF.ProjectId,Dual VCA Main,4475616c-2056-4434-9120-4d61696e2e6b,rev?*
G04 #@! TF.SameCoordinates,Original*
G04 #@! TF.FileFunction,Copper,L2,Bot*
G04 #@! TF.FilePolarity,Positive*
%FSLAX46Y46*%
G04 Gerber Fmt 4.6, Leading zero omitted, Abs format (unit mm)*
G04 Created by KiCad (PCBNEW (5.1.9)-1) date 2021-05-09 15:32:16*
%MOMM*%
%LPD*%
G01*
G04 APERTURE LIST*
G04 #@! TA.AperFunction,ComponentPad*
%ADD10O,2.400000X1.600000*%
G04 #@! TD*
G04 #@! TA.AperFunction,ComponentPad*
%ADD11R,2.400000X1.600000*%
G04 #@! TD*
G04 #@! TA.AperFunction,ComponentPad*
%ADD12O,1.600000X2.400000*%
G04 #@! TD*
G04 #@! TA.AperFunction,ComponentPad*
%ADD13R,1.600000X2.400000*%
G04 #@! TD*
G04 #@! TA.AperFunction,ComponentPad*
%ADD14C,1.600000*%
G04 #@! TD*
G04 #@! TA.AperFunction,ComponentPad*
%ADD15O,1.600000X1.600000*%
G04 #@! TD*
G04 #@! TA.AperFunction,ComponentPad*
%ADD16C,1.800000*%
G04 #@! TD*
G04 #@! TA.AperFunction,ComponentPad*
%ADD17R,1.800000X1.100000*%
G04 #@! TD*
G04 #@! TA.AperFunction,ComponentPad*
%ADD18C,1.700000*%
G04 #@! TD*
G04 #@! TA.AperFunction,ComponentPad*
%ADD19O,2.300000X1.300000*%
G04 #@! TD*
G04 #@! TA.AperFunction,ComponentPad*
%ADD20O,2.300000X1.600000*%
G04 #@! TD*
G04 #@! TA.AperFunction,ComponentPad*
%ADD21O,1.600000X2.300000*%
G04 #@! TD*
G04 #@! TA.AperFunction,ComponentPad*
%ADD22R,1.600000X1.600000*%
G04 #@! TD*
G04 #@! TA.AperFunction,ViaPad*
%ADD23C,0.800000*%
G04 #@! TD*
G04 #@! TA.AperFunction,Conductor*
%ADD24C,0.250000*%
G04 #@! TD*
G04 #@! TA.AperFunction,Conductor*
%ADD25C,0.254000*%
G04 #@! TD*
G04 #@! TA.AperFunction,Conductor*
%ADD26C,0.100000*%
G04 #@! TD*
G04 APERTURE END LIST*
D10*
G04 #@! TO.P,U3,8*
G04 #@! TO.N,N/C*
X18415000Y-67310000D03*
G04 #@! TO.P,U3,4*
G04 #@! TO.N,-12V*
X10795000Y-74930000D03*
G04 #@! TO.P,U3,7*
G04 #@! TO.N,+12V*
X18415000Y-69850000D03*
G04 #@! TO.P,U3,3*
G04 #@! TO.N,GND*
X10795000Y-72390000D03*
G04 #@! TO.P,U3,6*
G04 #@! TO.N,Net-(D1-Pad2)*
X18415000Y-72390000D03*
G04 #@! TO.P,U3,2*
G04 #@! TO.N,Net-(D1-Pad1)*
X10795000Y-69850000D03*
G04 #@! TO.P,U3,5*
G04 #@! TO.N,N/C*
X18415000Y-74930000D03*
D11*
G04 #@! TO.P,U3,1*
X10795000Y-67310000D03*
G04 #@! TD*
D10*
G04 #@! TO.P,U2,8*
G04 #@! TO.N,N/C*
X26670000Y-26670000D03*
G04 #@! TO.P,U2,4*
G04 #@! TO.N,-12V*
X19050000Y-34290000D03*
G04 #@! TO.P,U2,7*
G04 #@! TO.N,+12V*
X26670000Y-29210000D03*
G04 #@! TO.P,U2,3*
G04 #@! TO.N,Net-(R3-Pad1)*
X19050000Y-31750000D03*
G04 #@! TO.P,U2,6*
G04 #@! TO.N,Net-(C2-Pad2)*
X26670000Y-31750000D03*
G04 #@! TO.P,U2,2*
G04 #@! TO.N,Net-(R7-Pad1)*
X19050000Y-29210000D03*
G04 #@! TO.P,U2,5*
G04 #@! TO.N,Net-(Q1-Pad3)*
X26670000Y-34290000D03*
D11*
G04 #@! TO.P,U2,1*
G04 #@! TO.N,N/C*
X19050000Y-26670000D03*
G04 #@! TD*
D12*
G04 #@! TO.P,U1,8*
G04 #@! TO.N,+12V*
X23495000Y-12065000D03*
G04 #@! TO.P,U1,4*
G04 #@! TO.N,-12V*
X31115000Y-19685000D03*
G04 #@! TO.P,U1,7*
G04 #@! TO.N,Net-(C2-Pad1)*
X26035000Y-12065000D03*
G04 #@! TO.P,U1,3*
G04 #@! TO.N,GND*
X28575000Y-19685000D03*
G04 #@! TO.P,U1,6*
G04 #@! TO.N,Net-(C2-Pad2)*
X28575000Y-12065000D03*
G04 #@! TO.P,U1,2*
G04 #@! TO.N,Net-(C1-Pad2)*
X26035000Y-19685000D03*
G04 #@! TO.P,U1,5*
G04 #@! TO.N,GND*
X31115000Y-12065000D03*
D13*
G04 #@! TO.P,U1,1*
G04 #@! TO.N,Net-(C1-Pad1)*
X23495000Y-19685000D03*
G04 #@! TD*
D14*
G04 #@! TO.P,C8,2*
G04 #@! TO.N,GND*
X2620000Y-74930000D03*
G04 #@! TO.P,C8,1*
G04 #@! TO.N,-12V*
X7620000Y-74930000D03*
G04 #@! TD*
G04 #@! TO.P,C7,2*
G04 #@! TO.N,GND*
X15875000Y-39290000D03*
G04 #@! TO.P,C7,1*
G04 #@! TO.N,-12V*
X15875000Y-34290000D03*
G04 #@! TD*
G04 #@! TO.P,C4,2*
G04 #@! TO.N,GND*
X26115000Y-22860000D03*
G04 #@! TO.P,C4,1*
G04 #@! TO.N,-12V*
X31115000Y-22860000D03*
G04 #@! TD*
D15*
G04 #@! TO.P,R12,2*
G04 #@! TO.N,Net-(Q1-Pad1)*
X18415000Y-59690000D03*
D14*
G04 #@! TO.P,R12,1*
G04 #@! TO.N,Net-(D1-Pad1)*
X10795000Y-59690000D03*
G04 #@! TD*
D15*
G04 #@! TO.P,R11,2*
G04 #@! TO.N,GND*
X28575000Y-59690000D03*
D14*
G04 #@! TO.P,R11,1*
G04 #@! TO.N,Net-(Q1-Pad1)*
X20955000Y-59690000D03*
G04 #@! TD*
D15*
G04 #@! TO.P,R10,2*
G04 #@! TO.N,Net-(R10-Pad2)*
X23495000Y-55245000D03*
D14*
G04 #@! TO.P,R10,1*
G04 #@! TO.N,Net-(D1-Pad1)*
X15875000Y-55245000D03*
G04 #@! TD*
D15*
G04 #@! TO.P,R9,2*
G04 #@! TO.N,Net-(J3-PadT)*
X5715000Y-62230000D03*
D14*
G04 #@! TO.P,R9,1*
G04 #@! TO.N,Net-(D1-Pad1)*
X5715000Y-69850000D03*
G04 #@! TD*
D15*
G04 #@! TO.P,R8,2*
G04 #@! TO.N,Net-(R7-Pad1)*
X9525000Y-28575000D03*
D14*
G04 #@! TO.P,R8,1*
G04 #@! TO.N,GND*
X1905000Y-28575000D03*
G04 #@! TD*
D15*
G04 #@! TO.P,R7,2*
G04 #@! TO.N,Net-(R7-Pad2)*
X12700000Y-36830000D03*
D14*
G04 #@! TO.P,R7,1*
G04 #@! TO.N,Net-(R7-Pad1)*
X12700000Y-29210000D03*
G04 #@! TD*
D15*
G04 #@! TO.P,R6,2*
G04 #@! TO.N,Net-(C2-Pad1)*
X5080000Y-82550000D03*
D14*
G04 #@! TO.P,R6,1*
G04 #@! TO.N,Net-(J2-PadT)*
X12700000Y-82550000D03*
G04 #@! TD*
D15*
G04 #@! TO.P,R5,2*
G04 #@! TO.N,Net-(C2-Pad2)*
X31115000Y-5715000D03*
D14*
G04 #@! TO.P,R5,1*
G04 #@! TO.N,Net-(C2-Pad1)*
X23495000Y-5715000D03*
G04 #@! TD*
D15*
G04 #@! TO.P,R4,2*
G04 #@! TO.N,Net-(R3-Pad1)*
X9525000Y-31750000D03*
D14*
G04 #@! TO.P,R4,1*
G04 #@! TO.N,GND*
X1905000Y-31750000D03*
G04 #@! TD*
D15*
G04 #@! TO.P,R3,2*
G04 #@! TO.N,Net-(C1-Pad1)*
X15875000Y-24130000D03*
D14*
G04 #@! TO.P,R3,1*
G04 #@! TO.N,Net-(R3-Pad1)*
X15875000Y-31750000D03*
G04 #@! TD*
D15*
G04 #@! TO.P,R2,2*
G04 #@! TO.N,Net-(C1-Pad2)*
X16510000Y-12700000D03*
D14*
G04 #@! TO.P,R2,1*
G04 #@! TO.N,Net-(C1-Pad1)*
X16510000Y-20320000D03*
G04 #@! TD*
D15*
G04 #@! TO.P,R1,2*
G04 #@! TO.N,Net-(J1-PadT)*
X5715000Y-16510000D03*
D14*
G04 #@! TO.P,R1,1*
G04 #@! TO.N,Net-(C1-Pad2)*
X13335000Y-16510000D03*
G04 #@! TD*
D16*
G04 #@! TO.P,RV2,3*
G04 #@! TO.N,-12V*
X31115000Y-48895000D03*
G04 #@! TO.P,RV2,2*
G04 #@! TO.N,Net-(R10-Pad2)*
X26035000Y-51435000D03*
G04 #@! TO.P,RV2,1*
G04 #@! TO.N,+12V*
X18415000Y-48895000D03*
G04 #@! TD*
G04 #@! TO.P,RV1,3*
G04 #@! TO.N,-12V*
X31115000Y-42545000D03*
G04 #@! TO.P,RV1,2*
G04 #@! TO.N,Net-(R7-Pad2)*
X26035000Y-45085000D03*
G04 #@! TO.P,RV1,1*
G04 #@! TO.N,+12V*
X18415000Y-42545000D03*
G04 #@! TD*
D17*
G04 #@! TO.P,Q1,1*
G04 #@! TO.N,Net-(Q1-Pad1)*
X23095000Y-63500000D03*
G04 #@! TO.P,Q1,3*
G04 #@! TO.N,Net-(Q1-Pad3)*
G04 #@! TA.AperFunction,ComponentPad*
G36*
G01*
X22470000Y-65490000D02*
X23720000Y-65490000D01*
G75*
G02*
X23995000Y-65765000I0J-275000D01*
G01*
X23995000Y-66315000D01*
G75*
G02*
X23720000Y-66590000I-275000J0D01*
G01*
X22470000Y-66590000D01*
G75*
G02*
X22195000Y-66315000I0J275000D01*
G01*
X22195000Y-65765000D01*
G75*
G02*
X22470000Y-65490000I275000J0D01*
G01*
G37*
G04 #@! TD.AperFunction*
G04 #@! TO.P,Q1,2*
G04 #@! TO.N,Net-(D1-Pad2)*
G04 #@! TA.AperFunction,ComponentPad*
G36*
G01*
X24540000Y-64220000D02*
X25790000Y-64220000D01*
G75*
G02*
X26065000Y-64495000I0J-275000D01*
G01*
X26065000Y-65045000D01*
G75*
G02*
X25790000Y-65320000I-275000J0D01*
G01*
X24540000Y-65320000D01*
G75*
G02*
X24265000Y-65045000I0J275000D01*
G01*
X24265000Y-64495000D01*
G75*
G02*
X24540000Y-64220000I275000J0D01*
G01*
G37*
G04 #@! TD.AperFunction*
G04 #@! TD*
D18*
G04 #@! TO.P,J7,16*
G04 #@! TO.N,N/C*
X25400000Y-96520000D03*
G04 #@! TO.P,J7,14*
X25400000Y-93980000D03*
G04 #@! TO.P,J7,12*
X25400000Y-91440000D03*
G04 #@! TO.P,J7,10*
G04 #@! TO.N,+12V*
X25400000Y-88900000D03*
G04 #@! TO.P,J7,8*
G04 #@! TO.N,GND*
X25400000Y-86360000D03*
G04 #@! TO.P,J7,6*
X25400000Y-83820000D03*
G04 #@! TO.P,J7,4*
X25400000Y-81280000D03*
G04 #@! TO.P,J7,2*
G04 #@! TO.N,-12V*
X25400000Y-78740000D03*
G04 #@! TO.P,J7,15*
G04 #@! TO.N,N/C*
X22860000Y-96520000D03*
G04 #@! TO.P,J7,13*
X22860000Y-93980000D03*
G04 #@! TO.P,J7,11*
X22860000Y-91440000D03*
G04 #@! TO.P,J7,9*
G04 #@! TO.N,+12V*
X22860000Y-88900000D03*
G04 #@! TO.P,J7,7*
G04 #@! TO.N,GND*
X22860000Y-86360000D03*
G04 #@! TO.P,J7,5*
X22860000Y-83820000D03*
G04 #@! TO.P,J7,3*
X22860000Y-81280000D03*
G04 #@! TO.P,J7,1*
G04 #@! TO.N,-12V*
G04 #@! TA.AperFunction,ComponentPad*
G36*
G01*
X22010000Y-79340000D02*
X22010000Y-78140000D01*
G75*
G02*
X22260000Y-77890000I250000J0D01*
G01*
X23460000Y-77890000D01*
G75*
G02*
X23710000Y-78140000I0J-250000D01*
G01*
X23710000Y-79340000D01*
G75*
G02*
X23460000Y-79590000I-250000J0D01*
G01*
X22260000Y-79590000D01*
G75*
G02*
X22010000Y-79340000I0J250000D01*
G01*
G37*
G04 #@! TD.AperFunction*
G04 #@! TD*
D19*
G04 #@! TO.P,J3,T*
G04 #@! TO.N,Net-(J3-PadT)*
X5900000Y-55600000D03*
G04 #@! TO.P,J3,*
G04 #@! TO.N,*
X9600000Y-45600000D03*
D20*
X8600000Y-48200000D03*
D21*
G04 #@! TO.P,J3,TN*
G04 #@! TO.N,N/C*
X13000000Y-54900000D03*
G04 #@! TO.P,J3,S*
G04 #@! TO.N,GND*
X1700000Y-50800000D03*
G04 #@! TD*
D19*
G04 #@! TO.P,J2,T*
G04 #@! TO.N,Net-(J2-PadT)*
X5900000Y-97510000D03*
G04 #@! TO.P,J2,*
G04 #@! TO.N,*
X9600000Y-87510000D03*
D20*
X8600000Y-90110000D03*
D21*
G04 #@! TO.P,J2,TN*
G04 #@! TO.N,N/C*
X13000000Y-96810000D03*
G04 #@! TO.P,J2,S*
G04 #@! TO.N,GND*
X1700000Y-92710000D03*
G04 #@! TD*
D19*
G04 #@! TO.P,J1,T*
G04 #@! TO.N,Net-(J1-PadT)*
X5900000Y-13690000D03*
G04 #@! TO.P,J1,*
G04 #@! TO.N,*
X9600000Y-3690000D03*
D20*
X8600000Y-6290000D03*
D21*
G04 #@! TO.P,J1,TN*
G04 #@! TO.N,N/C*
X13000000Y-12990000D03*
G04 #@! TO.P,J1,S*
G04 #@! TO.N,GND*
X1700000Y-8890000D03*
G04 #@! TD*
D15*
G04 #@! TO.P,D1,2*
G04 #@! TO.N,Net-(D1-Pad2)*
X18415000Y-63500000D03*
D22*
G04 #@! TO.P,D1,1*
G04 #@! TO.N,Net-(D1-Pad1)*
X10795000Y-63500000D03*
G04 #@! TD*
D14*
G04 #@! TO.P,C6,2*
G04 #@! TO.N,+12V*
X21670000Y-69850000D03*
G04 #@! TO.P,C6,1*
G04 #@! TO.N,GND*
X26670000Y-69850000D03*
G04 #@! TD*
G04 #@! TO.P,C5,2*
G04 #@! TO.N,+12V*
X29845000Y-29290000D03*
G04 #@! TO.P,C5,1*
G04 #@! TO.N,GND*
X29845000Y-34290000D03*
G04 #@! TD*
G04 #@! TO.P,C3,2*
G04 #@! TO.N,+12V*
X23495000Y-8890000D03*
G04 #@! TO.P,C3,1*
G04 #@! TO.N,GND*
X18495000Y-8890000D03*
G04 #@! TD*
G04 #@! TO.P,C2,2*
G04 #@! TO.N,Net-(C2-Pad2)*
X29765000Y-2540000D03*
G04 #@! TO.P,C2,1*
G04 #@! TO.N,Net-(C2-Pad1)*
X24765000Y-2540000D03*
G04 #@! TD*
G04 #@! TO.P,C1,2*
G04 #@! TO.N,Net-(C1-Pad2)*
X19685000Y-14050000D03*
G04 #@! TO.P,C1,1*
G04 #@! TO.N,Net-(C1-Pad1)*
X19685000Y-19050000D03*
G04 #@! TD*
D23*
G04 #@! TO.N,Net-(C1-Pad2)*
X26035000Y-16510000D03*
X19685000Y-16510000D03*
X16510000Y-16510000D03*
G04 #@! TO.N,Net-(C2-Pad2)*
X28575000Y-5715000D03*
X28575000Y-8890000D03*
X34290000Y-8890000D03*
X34290000Y-31750000D03*
G04 #@! TO.N,Net-(C2-Pad1)*
X26035000Y-5715000D03*
G04 #@! TO.N,+12V*
X15875000Y-88900000D03*
X15875000Y-69850000D03*
X33020000Y-46990000D03*
X18415000Y-46990000D03*
X33020000Y-68580000D03*
X33020000Y-29210000D03*
X33020000Y-14605000D03*
X23495000Y-14605000D03*
G04 #@! TO.N,-12V*
X13335000Y-78740000D03*
X13335000Y-74930000D03*
X25400000Y-67310000D03*
X31115000Y-67310000D03*
X31750000Y-38735000D03*
X19050000Y-38735000D03*
G04 #@! TO.N,Net-(D1-Pad2)*
X20320000Y-64770000D03*
X20320000Y-72390000D03*
G04 #@! TO.N,Net-(D1-Pad1)*
X8255000Y-69850000D03*
X8255000Y-59690000D03*
X8255000Y-63500000D03*
X15875000Y-59690000D03*
G04 #@! TO.N,Net-(Q1-Pad3)*
X29845000Y-66040000D03*
G04 #@! TO.N,Net-(R7-Pad2)*
X26035000Y-36830000D03*
G04 #@! TD*
D24*
G04 #@! TO.N,Net-(C1-Pad2)*
X13335000Y-16510000D02*
X16510000Y-16510000D01*
X26035000Y-16510000D02*
X26035000Y-16510000D01*
X19685000Y-16510000D02*
X26035000Y-16510000D01*
X16510000Y-16510000D02*
X19685000Y-16510000D01*
G04 #@! TO.N,Net-(C1-Pad1)*
X20320000Y-19685000D02*
X19685000Y-19050000D01*
X23495000Y-19685000D02*
X20320000Y-19685000D01*
X18415000Y-20320000D02*
X19685000Y-19050000D01*
X16510000Y-20320000D02*
X18415000Y-20320000D01*
G04 #@! TO.N,Net-(C2-Pad2)*
X28575000Y-5715000D02*
X31115000Y-5715000D01*
X28575000Y-8890000D02*
X34290000Y-8890000D01*
X34290000Y-8890000D02*
X34290000Y-8890000D01*
X34290000Y-31750000D02*
X26670000Y-31750000D01*
G04 #@! TO.N,Net-(C2-Pad1)*
X26035000Y-5715000D02*
X23495000Y-5715000D01*
G04 #@! TO.N,+12V*
X21670000Y-69850000D02*
X18415000Y-69850000D01*
X29765000Y-29210000D02*
X29845000Y-29290000D01*
X26670000Y-29210000D02*
X29765000Y-29210000D01*
G04 #@! TO.N,-12V*
X7620000Y-74930000D02*
X10795000Y-74930000D01*
X15875000Y-34290000D02*
X19050000Y-34290000D01*
X25400000Y-78740000D02*
X22860000Y-78740000D01*
G04 #@! TO.N,+12V*
X25400000Y-88900000D02*
X22860000Y-88900000D01*
X22860000Y-88900000D02*
X15875000Y-88900000D01*
X15875000Y-88900000D02*
X15875000Y-88900000D01*
X15875000Y-69850000D02*
X18415000Y-69850000D01*
X33020000Y-46990000D02*
X18415000Y-46990000D01*
X18415000Y-46990000D02*
X18415000Y-46990000D01*
X22860000Y-69850000D02*
X21670000Y-69850000D01*
X24130000Y-68580000D02*
X22860000Y-69850000D01*
X33020000Y-68580000D02*
X24130000Y-68580000D01*
X29925000Y-29210000D02*
X29845000Y-29290000D01*
X33020000Y-29210000D02*
X29925000Y-29210000D01*
X33020000Y-14605000D02*
X23495000Y-14605000D01*
X23495000Y-14605000D02*
X23495000Y-14605000D01*
G04 #@! TO.N,-12V*
X22860000Y-78740000D02*
X13335000Y-78740000D01*
X13335000Y-78740000D02*
X13335000Y-78740000D01*
X13335000Y-74930000D02*
X10795000Y-74930000D01*
X25400000Y-67310000D02*
X31115000Y-67310000D01*
X31750000Y-38735000D02*
X19050000Y-38735000D01*
X19050000Y-38735000D02*
X19050000Y-38735000D01*
G04 #@! TO.N,Net-(D1-Pad2)*
X19685000Y-64770000D02*
X18415000Y-63500000D01*
X24765000Y-64770000D02*
X20320000Y-64770000D01*
X20320000Y-64770000D02*
X19685000Y-64770000D01*
X20320000Y-72390000D02*
X18415000Y-72390000D01*
G04 #@! TO.N,Net-(D1-Pad1)*
X5715000Y-69850000D02*
X8255000Y-69850000D01*
X8255000Y-69850000D02*
X10795000Y-69850000D01*
X8255000Y-59690000D02*
X10795000Y-59690000D01*
X8255000Y-63500000D02*
X10795000Y-63500000D01*
X10795000Y-59690000D02*
X15875000Y-59690000D01*
X15875000Y-59690000D02*
X15875000Y-59690000D01*
G04 #@! TO.N,Net-(Q1-Pad1)*
X18415000Y-59690000D02*
X20955000Y-59690000D01*
X23495000Y-63500000D02*
X23495000Y-60325000D01*
X22860000Y-59690000D02*
X20955000Y-59690000D01*
X23495000Y-60325000D02*
X22860000Y-59690000D01*
G04 #@! TO.N,Net-(Q1-Pad3)*
X23495000Y-66040000D02*
X29845000Y-66040000D01*
X29845000Y-66040000D02*
X29845000Y-66040000D01*
G04 #@! TO.N,Net-(R3-Pad1)*
X9525000Y-31750000D02*
X15875000Y-31750000D01*
X15875000Y-31750000D02*
X19050000Y-31750000D01*
G04 #@! TO.N,Net-(R7-Pad2)*
X26035000Y-36830000D02*
X12700000Y-36830000D01*
G04 #@! TO.N,Net-(R7-Pad1)*
X12065000Y-28575000D02*
X12700000Y-29210000D01*
X9525000Y-28575000D02*
X12065000Y-28575000D01*
X12700000Y-29210000D02*
X19050000Y-29210000D01*
G04 #@! TD*
D25*
G04 #@! TO.N,GND*
X35535001Y-71730000D02*
X26702419Y-71730000D01*
X26670000Y-71726807D01*
X26637581Y-71730000D01*
X26540617Y-71739550D01*
X26416207Y-71777290D01*
X26301550Y-71838575D01*
X26201052Y-71921052D01*
X26118575Y-72021550D01*
X26057290Y-72136207D01*
X26019550Y-72260617D01*
X26006807Y-72390000D01*
X26010000Y-72422419D01*
X26010000Y-77385318D01*
X25833158Y-77312068D01*
X25546260Y-77255000D01*
X25253740Y-77255000D01*
X24966842Y-77312068D01*
X24696589Y-77424010D01*
X24453368Y-77586525D01*
X24266285Y-77773608D01*
X24198405Y-77646614D01*
X24087962Y-77512038D01*
X23953386Y-77401595D01*
X23799850Y-77319528D01*
X23633254Y-77268992D01*
X23460000Y-77251928D01*
X22260000Y-77251928D01*
X22086746Y-77268992D01*
X21920150Y-77319528D01*
X21766614Y-77401595D01*
X21632038Y-77512038D01*
X21521595Y-77646614D01*
X21439528Y-77800150D01*
X21388992Y-77966746D01*
X21387687Y-77980000D01*
X14038711Y-77980000D01*
X13994774Y-77936063D01*
X13825256Y-77822795D01*
X13636898Y-77744774D01*
X13436939Y-77705000D01*
X13233061Y-77705000D01*
X13033102Y-77744774D01*
X12844744Y-77822795D01*
X12675226Y-77936063D01*
X12531063Y-78080226D01*
X12417795Y-78249744D01*
X12339774Y-78438102D01*
X12300000Y-78638061D01*
X12300000Y-78841939D01*
X12339774Y-79041898D01*
X12417795Y-79230256D01*
X12531063Y-79399774D01*
X12675226Y-79543937D01*
X12844744Y-79657205D01*
X13033102Y-79735226D01*
X13233061Y-79775000D01*
X13436939Y-79775000D01*
X13636898Y-79735226D01*
X13825256Y-79657205D01*
X13994774Y-79543937D01*
X14038711Y-79500000D01*
X21387687Y-79500000D01*
X21388992Y-79513254D01*
X21439528Y-79679850D01*
X21521595Y-79833386D01*
X21632038Y-79967962D01*
X21766614Y-80078405D01*
X21920150Y-80160472D01*
X22029293Y-80193580D01*
X22011208Y-80251603D01*
X22860000Y-81100395D01*
X23708792Y-80251603D01*
X23690707Y-80193580D01*
X23799850Y-80160472D01*
X23953386Y-80078405D01*
X24087962Y-79967962D01*
X24198405Y-79833386D01*
X24266285Y-79706392D01*
X24453368Y-79893475D01*
X24626729Y-80009311D01*
X24551208Y-80251603D01*
X25400000Y-81100395D01*
X25414143Y-81086253D01*
X25593748Y-81265858D01*
X25579605Y-81280000D01*
X25593748Y-81294143D01*
X25414143Y-81473748D01*
X25400000Y-81459605D01*
X24551208Y-82308397D01*
X24626514Y-82550000D01*
X24551208Y-82791603D01*
X25400000Y-83640395D01*
X25414143Y-83626253D01*
X25593748Y-83805858D01*
X25579605Y-83820000D01*
X25593748Y-83834143D01*
X25414143Y-84013748D01*
X25400000Y-83999605D01*
X24551208Y-84848397D01*
X24626514Y-85090000D01*
X24551208Y-85331603D01*
X25400000Y-86180395D01*
X25414143Y-86166253D01*
X25593748Y-86345858D01*
X25579605Y-86360000D01*
X25593748Y-86374143D01*
X25414143Y-86553748D01*
X25400000Y-86539605D01*
X24551208Y-87388397D01*
X24626729Y-87630689D01*
X24453368Y-87746525D01*
X24246525Y-87953368D01*
X24130000Y-88127760D01*
X24013475Y-87953368D01*
X23806632Y-87746525D01*
X23633271Y-87630689D01*
X23708792Y-87388397D01*
X22860000Y-86539605D01*
X22011208Y-87388397D01*
X22086729Y-87630689D01*
X21913368Y-87746525D01*
X21706525Y-87953368D01*
X21581822Y-88140000D01*
X16578711Y-88140000D01*
X16534774Y-88096063D01*
X16365256Y-87982795D01*
X16176898Y-87904774D01*
X15976939Y-87865000D01*
X15773061Y-87865000D01*
X15573102Y-87904774D01*
X15384744Y-87982795D01*
X15215226Y-88096063D01*
X15071063Y-88240226D01*
X14957795Y-88409744D01*
X14879774Y-88598102D01*
X14840000Y-88798061D01*
X14840000Y-89001939D01*
X14879774Y-89201898D01*
X14957795Y-89390256D01*
X15071063Y-89559774D01*
X15215226Y-89703937D01*
X15384744Y-89817205D01*
X15573102Y-89895226D01*
X15773061Y-89935000D01*
X15976939Y-89935000D01*
X16176898Y-89895226D01*
X16365256Y-89817205D01*
X16534774Y-89703937D01*
X16578711Y-89660000D01*
X21581822Y-89660000D01*
X21706525Y-89846632D01*
X21913368Y-90053475D01*
X22087760Y-90170000D01*
X21913368Y-90286525D01*
X21706525Y-90493368D01*
X21544010Y-90736589D01*
X21432068Y-91006842D01*
X21375000Y-91293740D01*
X21375000Y-91586260D01*
X21432068Y-91873158D01*
X21544010Y-92143411D01*
X21706525Y-92386632D01*
X21913368Y-92593475D01*
X22087760Y-92710000D01*
X21913368Y-92826525D01*
X21706525Y-93033368D01*
X21544010Y-93276589D01*
X21432068Y-93546842D01*
X21375000Y-93833740D01*
X21375000Y-94126260D01*
X21432068Y-94413158D01*
X21544010Y-94683411D01*
X21706525Y-94926632D01*
X21913368Y-95133475D01*
X22087760Y-95250000D01*
X21913368Y-95366525D01*
X21706525Y-95573368D01*
X21544010Y-95816589D01*
X21432068Y-96086842D01*
X21375000Y-96373740D01*
X21375000Y-96666260D01*
X21432068Y-96953158D01*
X21544010Y-97223411D01*
X21706525Y-97466632D01*
X21913368Y-97673475D01*
X22156589Y-97835990D01*
X22426842Y-97947932D01*
X22713740Y-98005000D01*
X23006260Y-98005000D01*
X23293158Y-97947932D01*
X23563411Y-97835990D01*
X23806632Y-97673475D01*
X24013475Y-97466632D01*
X24130000Y-97292240D01*
X24246525Y-97466632D01*
X24453368Y-97673475D01*
X24696589Y-97835990D01*
X24966842Y-97947932D01*
X25253740Y-98005000D01*
X25546260Y-98005000D01*
X25833158Y-97947932D01*
X26010001Y-97874682D01*
X26010001Y-100940000D01*
X660000Y-100940000D01*
X660000Y-97510000D01*
X4108783Y-97510000D01*
X4133593Y-97761904D01*
X4207071Y-98004127D01*
X4326392Y-98227362D01*
X4486972Y-98423028D01*
X4682638Y-98583608D01*
X4905873Y-98702929D01*
X5148096Y-98776407D01*
X5336877Y-98795000D01*
X6463123Y-98795000D01*
X6651904Y-98776407D01*
X6894127Y-98702929D01*
X7117362Y-98583608D01*
X7313028Y-98423028D01*
X7473608Y-98227362D01*
X7592929Y-98004127D01*
X7666407Y-97761904D01*
X7691217Y-97510000D01*
X7666407Y-97258096D01*
X7592929Y-97015873D01*
X7473608Y-96792638D01*
X7313028Y-96596972D01*
X7117362Y-96436392D01*
X7029650Y-96389509D01*
X11565000Y-96389509D01*
X11565000Y-97230492D01*
X11585764Y-97441309D01*
X11667818Y-97711808D01*
X11801068Y-97961101D01*
X11980393Y-98179608D01*
X12198900Y-98358932D01*
X12448193Y-98492182D01*
X12718692Y-98574236D01*
X13000000Y-98601943D01*
X13281309Y-98574236D01*
X13551808Y-98492182D01*
X13801101Y-98358932D01*
X14019608Y-98179608D01*
X14198932Y-97961101D01*
X14332182Y-97711808D01*
X14414236Y-97441308D01*
X14435000Y-97230491D01*
X14435000Y-96389508D01*
X14414236Y-96178691D01*
X14332182Y-95908192D01*
X14198932Y-95658899D01*
X14019607Y-95440392D01*
X13801100Y-95261068D01*
X13551807Y-95127818D01*
X13281308Y-95045764D01*
X13000000Y-95018057D01*
X12718691Y-95045764D01*
X12448192Y-95127818D01*
X12198899Y-95261068D01*
X11980392Y-95440393D01*
X11801068Y-95658900D01*
X11667818Y-95908193D01*
X11585764Y-96178692D01*
X11565000Y-96389509D01*
X7029650Y-96389509D01*
X6894127Y-96317071D01*
X6651904Y-96243593D01*
X6463123Y-96225000D01*
X5336877Y-96225000D01*
X5148096Y-96243593D01*
X4905873Y-96317071D01*
X4682638Y-96436392D01*
X4486972Y-96596972D01*
X4326392Y-96792638D01*
X4207071Y-97015873D01*
X4133593Y-97258096D01*
X4108783Y-97510000D01*
X660000Y-97510000D01*
X660000Y-94047092D01*
X775105Y-94164500D01*
X1008354Y-94323715D01*
X1268182Y-94434367D01*
X1350961Y-94451904D01*
X1573000Y-94329915D01*
X1573000Y-92837000D01*
X1827000Y-92837000D01*
X1827000Y-94329915D01*
X2049039Y-94451904D01*
X2131818Y-94434367D01*
X2391646Y-94323715D01*
X2624895Y-94164500D01*
X2822601Y-93962839D01*
X2977166Y-93726483D01*
X3082650Y-93464514D01*
X3135000Y-93187000D01*
X3135000Y-92837000D01*
X1827000Y-92837000D01*
X1573000Y-92837000D01*
X1553000Y-92837000D01*
X1553000Y-92583000D01*
X1573000Y-92583000D01*
X1573000Y-91090085D01*
X1827000Y-91090085D01*
X1827000Y-92583000D01*
X3135000Y-92583000D01*
X3135000Y-92233000D01*
X3082650Y-91955486D01*
X2977166Y-91693517D01*
X2822601Y-91457161D01*
X2624895Y-91255500D01*
X2391646Y-91096285D01*
X2131818Y-90985633D01*
X2049039Y-90968096D01*
X1827000Y-91090085D01*
X1573000Y-91090085D01*
X1350961Y-90968096D01*
X1268182Y-90985633D01*
X1008354Y-91096285D01*
X775105Y-91255500D01*
X660000Y-91372908D01*
X660000Y-90110000D01*
X6808057Y-90110000D01*
X6835764Y-90391309D01*
X6917818Y-90661808D01*
X7051068Y-90911101D01*
X7230392Y-91129608D01*
X7448899Y-91308932D01*
X7698192Y-91442182D01*
X7968691Y-91524236D01*
X8179508Y-91545000D01*
X9020492Y-91545000D01*
X9231309Y-91524236D01*
X9501808Y-91442182D01*
X9751101Y-91308932D01*
X9969608Y-91129608D01*
X10148932Y-90911101D01*
X10282182Y-90661808D01*
X10364236Y-90391309D01*
X10391943Y-90110000D01*
X10364236Y-89828691D01*
X10282182Y-89558192D01*
X10148932Y-89308899D01*
X9969608Y-89090392D01*
X9751101Y-88911068D01*
X9533953Y-88795000D01*
X10163123Y-88795000D01*
X10351904Y-88776407D01*
X10594127Y-88702929D01*
X10817362Y-88583608D01*
X11013028Y-88423028D01*
X11173608Y-88227362D01*
X11292929Y-88004127D01*
X11366407Y-87761904D01*
X11391217Y-87510000D01*
X11366407Y-87258096D01*
X11292929Y-87015873D01*
X11173608Y-86792638D01*
X11013028Y-86596972D01*
X10817362Y-86436392D01*
X10802656Y-86428531D01*
X21369389Y-86428531D01*
X21411401Y-86718019D01*
X21509081Y-86993747D01*
X21582528Y-87131157D01*
X21831603Y-87208792D01*
X22680395Y-86360000D01*
X23039605Y-86360000D01*
X23888397Y-87208792D01*
X24130000Y-87133486D01*
X24371603Y-87208792D01*
X25220395Y-86360000D01*
X24371603Y-85511208D01*
X24130000Y-85586514D01*
X23888397Y-85511208D01*
X23039605Y-86360000D01*
X22680395Y-86360000D01*
X21831603Y-85511208D01*
X21582528Y-85588843D01*
X21456629Y-85852883D01*
X21384661Y-86136411D01*
X21369389Y-86428531D01*
X10802656Y-86428531D01*
X10594127Y-86317071D01*
X10351904Y-86243593D01*
X10163123Y-86225000D01*
X9036877Y-86225000D01*
X8848096Y-86243593D01*
X8605873Y-86317071D01*
X8382638Y-86436392D01*
X8186972Y-86596972D01*
X8026392Y-86792638D01*
X7907071Y-87015873D01*
X7833593Y-87258096D01*
X7808783Y-87510000D01*
X7833593Y-87761904D01*
X7907071Y-88004127D01*
X8026392Y-88227362D01*
X8186972Y-88423028D01*
X8382638Y-88583608D01*
X8553621Y-88675000D01*
X8179508Y-88675000D01*
X7968691Y-88695764D01*
X7698192Y-88777818D01*
X7448899Y-88911068D01*
X7230392Y-89090392D01*
X7051068Y-89308899D01*
X6917818Y-89558192D01*
X6835764Y-89828691D01*
X6808057Y-90110000D01*
X660000Y-90110000D01*
X660000Y-84848397D01*
X22011208Y-84848397D01*
X22086514Y-85090000D01*
X22011208Y-85331603D01*
X22860000Y-86180395D01*
X23708792Y-85331603D01*
X23633486Y-85090000D01*
X23708792Y-84848397D01*
X22860000Y-83999605D01*
X22011208Y-84848397D01*
X660000Y-84848397D01*
X660000Y-82408665D01*
X3645000Y-82408665D01*
X3645000Y-82691335D01*
X3700147Y-82968574D01*
X3808320Y-83229727D01*
X3965363Y-83464759D01*
X4165241Y-83664637D01*
X4400273Y-83821680D01*
X4661426Y-83929853D01*
X4938665Y-83985000D01*
X5221335Y-83985000D01*
X5498574Y-83929853D01*
X5759727Y-83821680D01*
X5994759Y-83664637D01*
X6194637Y-83464759D01*
X6351680Y-83229727D01*
X6459853Y-82968574D01*
X6515000Y-82691335D01*
X6515000Y-82408665D01*
X11265000Y-82408665D01*
X11265000Y-82691335D01*
X11320147Y-82968574D01*
X11428320Y-83229727D01*
X11585363Y-83464759D01*
X11785241Y-83664637D01*
X12020273Y-83821680D01*
X12281426Y-83929853D01*
X12558665Y-83985000D01*
X12841335Y-83985000D01*
X13118574Y-83929853D01*
X13218334Y-83888531D01*
X21369389Y-83888531D01*
X21411401Y-84178019D01*
X21509081Y-84453747D01*
X21582528Y-84591157D01*
X21831603Y-84668792D01*
X22680395Y-83820000D01*
X23039605Y-83820000D01*
X23888397Y-84668792D01*
X24130000Y-84593486D01*
X24371603Y-84668792D01*
X25220395Y-83820000D01*
X24371603Y-82971208D01*
X24130000Y-83046514D01*
X23888397Y-82971208D01*
X23039605Y-83820000D01*
X22680395Y-83820000D01*
X21831603Y-82971208D01*
X21582528Y-83048843D01*
X21456629Y-83312883D01*
X21384661Y-83596411D01*
X21369389Y-83888531D01*
X13218334Y-83888531D01*
X13379727Y-83821680D01*
X13614759Y-83664637D01*
X13814637Y-83464759D01*
X13971680Y-83229727D01*
X14079853Y-82968574D01*
X14135000Y-82691335D01*
X14135000Y-82408665D01*
X14115056Y-82308397D01*
X22011208Y-82308397D01*
X22086514Y-82550000D01*
X22011208Y-82791603D01*
X22860000Y-83640395D01*
X23708792Y-82791603D01*
X23633486Y-82550000D01*
X23708792Y-82308397D01*
X22860000Y-81459605D01*
X22011208Y-82308397D01*
X14115056Y-82308397D01*
X14079853Y-82131426D01*
X13971680Y-81870273D01*
X13814637Y-81635241D01*
X13614759Y-81435363D01*
X13484806Y-81348531D01*
X21369389Y-81348531D01*
X21411401Y-81638019D01*
X21509081Y-81913747D01*
X21582528Y-82051157D01*
X21831603Y-82128792D01*
X22680395Y-81280000D01*
X23039605Y-81280000D01*
X23888397Y-82128792D01*
X24130000Y-82053486D01*
X24371603Y-82128792D01*
X25220395Y-81280000D01*
X24371603Y-80431208D01*
X24130000Y-80506514D01*
X23888397Y-80431208D01*
X23039605Y-81280000D01*
X22680395Y-81280000D01*
X21831603Y-80431208D01*
X21582528Y-80508843D01*
X21456629Y-80772883D01*
X21384661Y-81056411D01*
X21369389Y-81348531D01*
X13484806Y-81348531D01*
X13379727Y-81278320D01*
X13118574Y-81170147D01*
X12841335Y-81115000D01*
X12558665Y-81115000D01*
X12281426Y-81170147D01*
X12020273Y-81278320D01*
X11785241Y-81435363D01*
X11585363Y-81635241D01*
X11428320Y-81870273D01*
X11320147Y-82131426D01*
X11265000Y-82408665D01*
X6515000Y-82408665D01*
X6459853Y-82131426D01*
X6351680Y-81870273D01*
X6194637Y-81635241D01*
X5994759Y-81435363D01*
X5759727Y-81278320D01*
X5498574Y-81170147D01*
X5221335Y-81115000D01*
X4938665Y-81115000D01*
X4661426Y-81170147D01*
X4400273Y-81278320D01*
X4165241Y-81435363D01*
X3965363Y-81635241D01*
X3808320Y-81870273D01*
X3700147Y-82131426D01*
X3645000Y-82408665D01*
X660000Y-82408665D01*
X660000Y-75922702D01*
X1806903Y-75922702D01*
X1878486Y-76166671D01*
X2133996Y-76287571D01*
X2408184Y-76356300D01*
X2690512Y-76370217D01*
X2970130Y-76328787D01*
X3236292Y-76233603D01*
X3361514Y-76166671D01*
X3433097Y-75922702D01*
X2620000Y-75109605D01*
X1806903Y-75922702D01*
X660000Y-75922702D01*
X660000Y-75000512D01*
X1179783Y-75000512D01*
X1221213Y-75280130D01*
X1316397Y-75546292D01*
X1383329Y-75671514D01*
X1627298Y-75743097D01*
X2440395Y-74930000D01*
X2799605Y-74930000D01*
X3612702Y-75743097D01*
X3856671Y-75671514D01*
X3977571Y-75416004D01*
X4046300Y-75141816D01*
X4060217Y-74859488D01*
X4049724Y-74788665D01*
X6185000Y-74788665D01*
X6185000Y-75071335D01*
X6240147Y-75348574D01*
X6348320Y-75609727D01*
X6505363Y-75844759D01*
X6705241Y-76044637D01*
X6940273Y-76201680D01*
X7201426Y-76309853D01*
X7478665Y-76365000D01*
X7761335Y-76365000D01*
X8038574Y-76309853D01*
X8299727Y-76201680D01*
X8534759Y-76044637D01*
X8734637Y-75844759D01*
X8838043Y-75690000D01*
X9174099Y-75690000D01*
X9196068Y-75731101D01*
X9375392Y-75949608D01*
X9593899Y-76128932D01*
X9843192Y-76262182D01*
X10113691Y-76344236D01*
X10324508Y-76365000D01*
X11265492Y-76365000D01*
X11476309Y-76344236D01*
X11746808Y-76262182D01*
X11996101Y-76128932D01*
X12214608Y-75949608D01*
X12393932Y-75731101D01*
X12415901Y-75690000D01*
X12631289Y-75690000D01*
X12675226Y-75733937D01*
X12844744Y-75847205D01*
X13033102Y-75925226D01*
X13233061Y-75965000D01*
X13436939Y-75965000D01*
X13636898Y-75925226D01*
X13825256Y-75847205D01*
X13994774Y-75733937D01*
X14138937Y-75589774D01*
X14252205Y-75420256D01*
X14330226Y-75231898D01*
X14370000Y-75031939D01*
X14370000Y-74828061D01*
X14330226Y-74628102D01*
X14252205Y-74439744D01*
X14138937Y-74270226D01*
X13994774Y-74126063D01*
X13825256Y-74012795D01*
X13636898Y-73934774D01*
X13436939Y-73895000D01*
X13233061Y-73895000D01*
X13033102Y-73934774D01*
X12844744Y-74012795D01*
X12675226Y-74126063D01*
X12631289Y-74170000D01*
X12415901Y-74170000D01*
X12393932Y-74128899D01*
X12214608Y-73910392D01*
X11996101Y-73731068D01*
X11868259Y-73662735D01*
X12097839Y-73512601D01*
X12299500Y-73314895D01*
X12458715Y-73081646D01*
X12569367Y-72821818D01*
X12586904Y-72739039D01*
X12464915Y-72517000D01*
X10922000Y-72517000D01*
X10922000Y-72537000D01*
X10668000Y-72537000D01*
X10668000Y-72517000D01*
X9125085Y-72517000D01*
X9003096Y-72739039D01*
X9020633Y-72821818D01*
X9131285Y-73081646D01*
X9290500Y-73314895D01*
X9492161Y-73512601D01*
X9721741Y-73662735D01*
X9593899Y-73731068D01*
X9375392Y-73910392D01*
X9196068Y-74128899D01*
X9174099Y-74170000D01*
X8838043Y-74170000D01*
X8734637Y-74015241D01*
X8534759Y-73815363D01*
X8299727Y-73658320D01*
X8038574Y-73550147D01*
X7761335Y-73495000D01*
X7478665Y-73495000D01*
X7201426Y-73550147D01*
X6940273Y-73658320D01*
X6705241Y-73815363D01*
X6505363Y-74015241D01*
X6348320Y-74250273D01*
X6240147Y-74511426D01*
X6185000Y-74788665D01*
X4049724Y-74788665D01*
X4018787Y-74579870D01*
X3923603Y-74313708D01*
X3856671Y-74188486D01*
X3612702Y-74116903D01*
X2799605Y-74930000D01*
X2440395Y-74930000D01*
X1627298Y-74116903D01*
X1383329Y-74188486D01*
X1262429Y-74443996D01*
X1193700Y-74718184D01*
X1179783Y-75000512D01*
X660000Y-75000512D01*
X660000Y-73937298D01*
X1806903Y-73937298D01*
X2620000Y-74750395D01*
X3433097Y-73937298D01*
X3361514Y-73693329D01*
X3106004Y-73572429D01*
X2831816Y-73503700D01*
X2549488Y-73489783D01*
X2269870Y-73531213D01*
X2003708Y-73626397D01*
X1878486Y-73693329D01*
X1806903Y-73937298D01*
X660000Y-73937298D01*
X660000Y-69708665D01*
X4280000Y-69708665D01*
X4280000Y-69991335D01*
X4335147Y-70268574D01*
X4443320Y-70529727D01*
X4600363Y-70764759D01*
X4800241Y-70964637D01*
X5035273Y-71121680D01*
X5296426Y-71229853D01*
X5573665Y-71285000D01*
X5856335Y-71285000D01*
X6133574Y-71229853D01*
X6394727Y-71121680D01*
X6629759Y-70964637D01*
X6829637Y-70764759D01*
X6933043Y-70610000D01*
X7551289Y-70610000D01*
X7595226Y-70653937D01*
X7764744Y-70767205D01*
X7953102Y-70845226D01*
X8153061Y-70885000D01*
X8356939Y-70885000D01*
X8556898Y-70845226D01*
X8745256Y-70767205D01*
X8914774Y-70653937D01*
X8958711Y-70610000D01*
X9174099Y-70610000D01*
X9196068Y-70651101D01*
X9375392Y-70869608D01*
X9593899Y-71048932D01*
X9721741Y-71117265D01*
X9492161Y-71267399D01*
X9290500Y-71465105D01*
X9131285Y-71698354D01*
X9020633Y-71958182D01*
X9003096Y-72040961D01*
X9125085Y-72263000D01*
X10668000Y-72263000D01*
X10668000Y-72243000D01*
X10922000Y-72243000D01*
X10922000Y-72263000D01*
X12464915Y-72263000D01*
X12586904Y-72040961D01*
X12569367Y-71958182D01*
X12458715Y-71698354D01*
X12299500Y-71465105D01*
X12097839Y-71267399D01*
X11868259Y-71117265D01*
X11996101Y-71048932D01*
X12214608Y-70869608D01*
X12393932Y-70651101D01*
X12527182Y-70401808D01*
X12609236Y-70131309D01*
X12636943Y-69850000D01*
X12626903Y-69748061D01*
X14840000Y-69748061D01*
X14840000Y-69951939D01*
X14879774Y-70151898D01*
X14957795Y-70340256D01*
X15071063Y-70509774D01*
X15215226Y-70653937D01*
X15384744Y-70767205D01*
X15573102Y-70845226D01*
X15773061Y-70885000D01*
X15976939Y-70885000D01*
X16176898Y-70845226D01*
X16365256Y-70767205D01*
X16534774Y-70653937D01*
X16578711Y-70610000D01*
X16794099Y-70610000D01*
X16816068Y-70651101D01*
X16995392Y-70869608D01*
X17213899Y-71048932D01*
X17346858Y-71120000D01*
X17213899Y-71191068D01*
X16995392Y-71370392D01*
X16816068Y-71588899D01*
X16682818Y-71838192D01*
X16600764Y-72108691D01*
X16573057Y-72390000D01*
X16600764Y-72671309D01*
X16682818Y-72941808D01*
X16816068Y-73191101D01*
X16995392Y-73409608D01*
X17213899Y-73588932D01*
X17346858Y-73660000D01*
X17213899Y-73731068D01*
X16995392Y-73910392D01*
X16816068Y-74128899D01*
X16682818Y-74378192D01*
X16600764Y-74648691D01*
X16573057Y-74930000D01*
X16600764Y-75211309D01*
X16682818Y-75481808D01*
X16816068Y-75731101D01*
X16995392Y-75949608D01*
X17213899Y-76128932D01*
X17463192Y-76262182D01*
X17733691Y-76344236D01*
X17944508Y-76365000D01*
X18885492Y-76365000D01*
X19096309Y-76344236D01*
X19366808Y-76262182D01*
X19616101Y-76128932D01*
X19834608Y-75949608D01*
X20013932Y-75731101D01*
X20147182Y-75481808D01*
X20229236Y-75211309D01*
X20256943Y-74930000D01*
X20229236Y-74648691D01*
X20147182Y-74378192D01*
X20013932Y-74128899D01*
X19834608Y-73910392D01*
X19616101Y-73731068D01*
X19483142Y-73660000D01*
X19616101Y-73588932D01*
X19834608Y-73409608D01*
X19896093Y-73334688D01*
X20018102Y-73385226D01*
X20218061Y-73425000D01*
X20421939Y-73425000D01*
X20621898Y-73385226D01*
X20810256Y-73307205D01*
X20979774Y-73193937D01*
X21123937Y-73049774D01*
X21237205Y-72880256D01*
X21315226Y-72691898D01*
X21355000Y-72491939D01*
X21355000Y-72288061D01*
X21315226Y-72088102D01*
X21237205Y-71899744D01*
X21123937Y-71730226D01*
X20979774Y-71586063D01*
X20810256Y-71472795D01*
X20621898Y-71394774D01*
X20421939Y-71355000D01*
X20218061Y-71355000D01*
X20018102Y-71394774D01*
X19896093Y-71445312D01*
X19834608Y-71370392D01*
X19616101Y-71191068D01*
X19483142Y-71120000D01*
X19616101Y-71048932D01*
X19834608Y-70869608D01*
X20013932Y-70651101D01*
X20035901Y-70610000D01*
X20451957Y-70610000D01*
X20555363Y-70764759D01*
X20755241Y-70964637D01*
X20990273Y-71121680D01*
X21251426Y-71229853D01*
X21528665Y-71285000D01*
X21811335Y-71285000D01*
X22088574Y-71229853D01*
X22349727Y-71121680D01*
X22584759Y-70964637D01*
X22706694Y-70842702D01*
X25856903Y-70842702D01*
X25928486Y-71086671D01*
X26183996Y-71207571D01*
X26458184Y-71276300D01*
X26740512Y-71290217D01*
X27020130Y-71248787D01*
X27286292Y-71153603D01*
X27411514Y-71086671D01*
X27483097Y-70842702D01*
X26670000Y-70029605D01*
X25856903Y-70842702D01*
X22706694Y-70842702D01*
X22784637Y-70764759D01*
X22887390Y-70610978D01*
X22897322Y-70610000D01*
X22897333Y-70610000D01*
X23008986Y-70599003D01*
X23152247Y-70555546D01*
X23284276Y-70484974D01*
X23400001Y-70390001D01*
X23423804Y-70360997D01*
X24444802Y-69340000D01*
X25323783Y-69340000D01*
X25312429Y-69363996D01*
X25243700Y-69638184D01*
X25229783Y-69920512D01*
X25271213Y-70200130D01*
X25366397Y-70466292D01*
X25433329Y-70591514D01*
X25677298Y-70663097D01*
X26490395Y-69850000D01*
X26476253Y-69835858D01*
X26655858Y-69656253D01*
X26670000Y-69670395D01*
X26684143Y-69656253D01*
X26863748Y-69835858D01*
X26849605Y-69850000D01*
X27662702Y-70663097D01*
X27906671Y-70591514D01*
X28027571Y-70336004D01*
X28096300Y-70061816D01*
X28110217Y-69779488D01*
X28068787Y-69499870D01*
X28011615Y-69340000D01*
X32316289Y-69340000D01*
X32360226Y-69383937D01*
X32529744Y-69497205D01*
X32718102Y-69575226D01*
X32918061Y-69615000D01*
X33121939Y-69615000D01*
X33321898Y-69575226D01*
X33510256Y-69497205D01*
X33679774Y-69383937D01*
X33823937Y-69239774D01*
X33937205Y-69070256D01*
X34015226Y-68881898D01*
X34055000Y-68681939D01*
X34055000Y-68478061D01*
X34015226Y-68278102D01*
X33937205Y-68089744D01*
X33823937Y-67920226D01*
X33679774Y-67776063D01*
X33510256Y-67662795D01*
X33321898Y-67584774D01*
X33121939Y-67545000D01*
X32918061Y-67545000D01*
X32718102Y-67584774D01*
X32529744Y-67662795D01*
X32360226Y-67776063D01*
X32316289Y-67820000D01*
X32019013Y-67820000D01*
X32032205Y-67800256D01*
X32110226Y-67611898D01*
X32150000Y-67411939D01*
X32150000Y-67208061D01*
X32110226Y-67008102D01*
X32032205Y-66819744D01*
X31918937Y-66650226D01*
X31774774Y-66506063D01*
X31605256Y-66392795D01*
X31416898Y-66314774D01*
X31216939Y-66275000D01*
X31013061Y-66275000D01*
X30846961Y-66308039D01*
X30880000Y-66141939D01*
X30880000Y-65938061D01*
X30840226Y-65738102D01*
X30762205Y-65549744D01*
X30648937Y-65380226D01*
X30504774Y-65236063D01*
X30335256Y-65122795D01*
X30146898Y-65044774D01*
X29946939Y-65005000D01*
X29743061Y-65005000D01*
X29543102Y-65044774D01*
X29354744Y-65122795D01*
X29185226Y-65236063D01*
X29141289Y-65280000D01*
X26668277Y-65280000D01*
X26685528Y-65223132D01*
X26703072Y-65045000D01*
X26703072Y-64495000D01*
X26685528Y-64316868D01*
X26633569Y-64145582D01*
X26549192Y-63987724D01*
X26435639Y-63849361D01*
X26297276Y-63735808D01*
X26139418Y-63651431D01*
X25968132Y-63599472D01*
X25790000Y-63581928D01*
X24633072Y-63581928D01*
X24633072Y-62950000D01*
X24620812Y-62825518D01*
X24584502Y-62705820D01*
X24525537Y-62595506D01*
X24446185Y-62498815D01*
X24349494Y-62419463D01*
X24255000Y-62368954D01*
X24255000Y-60362333D01*
X24258677Y-60325000D01*
X24244003Y-60176014D01*
X24202453Y-60039039D01*
X27183096Y-60039039D01*
X27223754Y-60173087D01*
X27343963Y-60427420D01*
X27511481Y-60653414D01*
X27719869Y-60842385D01*
X27961119Y-60987070D01*
X28225960Y-61081909D01*
X28448000Y-60960624D01*
X28448000Y-59817000D01*
X28702000Y-59817000D01*
X28702000Y-60960624D01*
X28924040Y-61081909D01*
X29188881Y-60987070D01*
X29430131Y-60842385D01*
X29638519Y-60653414D01*
X29806037Y-60427420D01*
X29926246Y-60173087D01*
X29966904Y-60039039D01*
X29844915Y-59817000D01*
X28702000Y-59817000D01*
X28448000Y-59817000D01*
X27305085Y-59817000D01*
X27183096Y-60039039D01*
X24202453Y-60039039D01*
X24200546Y-60032753D01*
X24129974Y-59900724D01*
X24073028Y-59831335D01*
X24035001Y-59784999D01*
X24006002Y-59761200D01*
X23585763Y-59340961D01*
X27183096Y-59340961D01*
X27305085Y-59563000D01*
X28448000Y-59563000D01*
X28448000Y-58419376D01*
X28702000Y-58419376D01*
X28702000Y-59563000D01*
X29844915Y-59563000D01*
X29966904Y-59340961D01*
X29926246Y-59206913D01*
X29806037Y-58952580D01*
X29638519Y-58726586D01*
X29430131Y-58537615D01*
X29188881Y-58392930D01*
X28924040Y-58298091D01*
X28702000Y-58419376D01*
X28448000Y-58419376D01*
X28225960Y-58298091D01*
X27961119Y-58392930D01*
X27719869Y-58537615D01*
X27511481Y-58726586D01*
X27343963Y-58952580D01*
X27223754Y-59206913D01*
X27183096Y-59340961D01*
X23585763Y-59340961D01*
X23423803Y-59179002D01*
X23400001Y-59149999D01*
X23284276Y-59055026D01*
X23152247Y-58984454D01*
X23008986Y-58940997D01*
X22897333Y-58930000D01*
X22897322Y-58930000D01*
X22860000Y-58926324D01*
X22822678Y-58930000D01*
X22173043Y-58930000D01*
X22069637Y-58775241D01*
X21869759Y-58575363D01*
X21634727Y-58418320D01*
X21373574Y-58310147D01*
X21096335Y-58255000D01*
X20813665Y-58255000D01*
X20536426Y-58310147D01*
X20275273Y-58418320D01*
X20040241Y-58575363D01*
X19840363Y-58775241D01*
X19736957Y-58930000D01*
X19633043Y-58930000D01*
X19529637Y-58775241D01*
X19329759Y-58575363D01*
X19094727Y-58418320D01*
X18833574Y-58310147D01*
X18556335Y-58255000D01*
X18273665Y-58255000D01*
X17996426Y-58310147D01*
X17735273Y-58418320D01*
X17500241Y-58575363D01*
X17300363Y-58775241D01*
X17143320Y-59010273D01*
X17035147Y-59271426D01*
X16980000Y-59548665D01*
X16980000Y-59831335D01*
X17035147Y-60108574D01*
X17143320Y-60369727D01*
X17300363Y-60604759D01*
X17500241Y-60804637D01*
X17735273Y-60961680D01*
X17996426Y-61069853D01*
X18273665Y-61125000D01*
X18556335Y-61125000D01*
X18833574Y-61069853D01*
X19094727Y-60961680D01*
X19329759Y-60804637D01*
X19529637Y-60604759D01*
X19633043Y-60450000D01*
X19736957Y-60450000D01*
X19840363Y-60604759D01*
X20040241Y-60804637D01*
X20275273Y-60961680D01*
X20536426Y-61069853D01*
X20813665Y-61125000D01*
X21096335Y-61125000D01*
X21373574Y-61069853D01*
X21634727Y-60961680D01*
X21869759Y-60804637D01*
X22069637Y-60604759D01*
X22173043Y-60450000D01*
X22545199Y-60450000D01*
X22735001Y-60639803D01*
X22735000Y-62311928D01*
X22195000Y-62311928D01*
X22070518Y-62324188D01*
X21950820Y-62360498D01*
X21840506Y-62419463D01*
X21743815Y-62498815D01*
X21664463Y-62595506D01*
X21605498Y-62705820D01*
X21569188Y-62825518D01*
X21556928Y-62950000D01*
X21556928Y-64010000D01*
X21023711Y-64010000D01*
X20979774Y-63966063D01*
X20810256Y-63852795D01*
X20621898Y-63774774D01*
X20421939Y-63735000D01*
X20218061Y-63735000D01*
X20018102Y-63774774D01*
X19838832Y-63849031D01*
X19813688Y-63823886D01*
X19850000Y-63641335D01*
X19850000Y-63358665D01*
X19794853Y-63081426D01*
X19686680Y-62820273D01*
X19529637Y-62585241D01*
X19329759Y-62385363D01*
X19094727Y-62228320D01*
X18833574Y-62120147D01*
X18556335Y-62065000D01*
X18273665Y-62065000D01*
X17996426Y-62120147D01*
X17735273Y-62228320D01*
X17500241Y-62385363D01*
X17300363Y-62585241D01*
X17143320Y-62820273D01*
X17035147Y-63081426D01*
X16980000Y-63358665D01*
X16980000Y-63641335D01*
X17035147Y-63918574D01*
X17143320Y-64179727D01*
X17300363Y-64414759D01*
X17500241Y-64614637D01*
X17735273Y-64771680D01*
X17996426Y-64879853D01*
X18273665Y-64935000D01*
X18556335Y-64935000D01*
X18738886Y-64898688D01*
X19121201Y-65281003D01*
X19144999Y-65310001D01*
X19260724Y-65404974D01*
X19392753Y-65475546D01*
X19536014Y-65519003D01*
X19612861Y-65526572D01*
X19660226Y-65573937D01*
X19829744Y-65687205D01*
X20018102Y-65765226D01*
X20218061Y-65805000D01*
X20421939Y-65805000D01*
X20621898Y-65765226D01*
X20810256Y-65687205D01*
X20979774Y-65573937D01*
X21023711Y-65530000D01*
X21591723Y-65530000D01*
X21574472Y-65586868D01*
X21556928Y-65765000D01*
X21556928Y-66315000D01*
X21574472Y-66493132D01*
X21626431Y-66664418D01*
X21710808Y-66822276D01*
X21824361Y-66960639D01*
X21962724Y-67074192D01*
X22120582Y-67158569D01*
X22291868Y-67210528D01*
X22470000Y-67228072D01*
X23720000Y-67228072D01*
X23898132Y-67210528D01*
X24069418Y-67158569D01*
X24227276Y-67074192D01*
X24365639Y-66960639D01*
X24479192Y-66822276D01*
X24491099Y-66800000D01*
X24495987Y-66800000D01*
X24482795Y-66819744D01*
X24404774Y-67008102D01*
X24365000Y-67208061D01*
X24365000Y-67411939D01*
X24404774Y-67611898D01*
X24482795Y-67800256D01*
X24495987Y-67820000D01*
X24167322Y-67820000D01*
X24129999Y-67816324D01*
X24092676Y-67820000D01*
X24092667Y-67820000D01*
X23981014Y-67830997D01*
X23837753Y-67874454D01*
X23705724Y-67945026D01*
X23589999Y-68039999D01*
X23566201Y-68068997D01*
X22742297Y-68892901D01*
X22584759Y-68735363D01*
X22349727Y-68578320D01*
X22088574Y-68470147D01*
X21811335Y-68415000D01*
X21528665Y-68415000D01*
X21251426Y-68470147D01*
X20990273Y-68578320D01*
X20755241Y-68735363D01*
X20555363Y-68935241D01*
X20451957Y-69090000D01*
X20035901Y-69090000D01*
X20013932Y-69048899D01*
X19834608Y-68830392D01*
X19616101Y-68651068D01*
X19483142Y-68580000D01*
X19616101Y-68508932D01*
X19834608Y-68329608D01*
X20013932Y-68111101D01*
X20147182Y-67861808D01*
X20229236Y-67591309D01*
X20256943Y-67310000D01*
X20229236Y-67028691D01*
X20147182Y-66758192D01*
X20013932Y-66508899D01*
X19834608Y-66290392D01*
X19616101Y-66111068D01*
X19366808Y-65977818D01*
X19096309Y-65895764D01*
X18885492Y-65875000D01*
X17944508Y-65875000D01*
X17733691Y-65895764D01*
X17463192Y-65977818D01*
X17213899Y-66111068D01*
X16995392Y-66290392D01*
X16816068Y-66508899D01*
X16682818Y-66758192D01*
X16600764Y-67028691D01*
X16573057Y-67310000D01*
X16600764Y-67591309D01*
X16682818Y-67861808D01*
X16816068Y-68111101D01*
X16995392Y-68329608D01*
X17213899Y-68508932D01*
X17346858Y-68580000D01*
X17213899Y-68651068D01*
X16995392Y-68830392D01*
X16816068Y-69048899D01*
X16794099Y-69090000D01*
X16578711Y-69090000D01*
X16534774Y-69046063D01*
X16365256Y-68932795D01*
X16176898Y-68854774D01*
X15976939Y-68815000D01*
X15773061Y-68815000D01*
X15573102Y-68854774D01*
X15384744Y-68932795D01*
X15215226Y-69046063D01*
X15071063Y-69190226D01*
X14957795Y-69359744D01*
X14879774Y-69548102D01*
X14840000Y-69748061D01*
X12626903Y-69748061D01*
X12609236Y-69568691D01*
X12527182Y-69298192D01*
X12393932Y-69048899D01*
X12214608Y-68830392D01*
X12101518Y-68737581D01*
X12119482Y-68735812D01*
X12239180Y-68699502D01*
X12349494Y-68640537D01*
X12446185Y-68561185D01*
X12525537Y-68464494D01*
X12584502Y-68354180D01*
X12620812Y-68234482D01*
X12633072Y-68110000D01*
X12633072Y-66510000D01*
X12620812Y-66385518D01*
X12584502Y-66265820D01*
X12525537Y-66155506D01*
X12446185Y-66058815D01*
X12349494Y-65979463D01*
X12239180Y-65920498D01*
X12119482Y-65884188D01*
X11995000Y-65871928D01*
X9595000Y-65871928D01*
X9470518Y-65884188D01*
X9350820Y-65920498D01*
X9240506Y-65979463D01*
X9143815Y-66058815D01*
X9064463Y-66155506D01*
X9005498Y-66265820D01*
X8969188Y-66385518D01*
X8956928Y-66510000D01*
X8956928Y-68110000D01*
X8969188Y-68234482D01*
X9005498Y-68354180D01*
X9064463Y-68464494D01*
X9143815Y-68561185D01*
X9240506Y-68640537D01*
X9350820Y-68699502D01*
X9470518Y-68735812D01*
X9488482Y-68737581D01*
X9375392Y-68830392D01*
X9196068Y-69048899D01*
X9174099Y-69090000D01*
X8958711Y-69090000D01*
X8914774Y-69046063D01*
X8745256Y-68932795D01*
X8556898Y-68854774D01*
X8356939Y-68815000D01*
X8153061Y-68815000D01*
X7953102Y-68854774D01*
X7764744Y-68932795D01*
X7595226Y-69046063D01*
X7551289Y-69090000D01*
X6933043Y-69090000D01*
X6829637Y-68935241D01*
X6629759Y-68735363D01*
X6394727Y-68578320D01*
X6133574Y-68470147D01*
X5856335Y-68415000D01*
X5573665Y-68415000D01*
X5296426Y-68470147D01*
X5035273Y-68578320D01*
X4800241Y-68735363D01*
X4600363Y-68935241D01*
X4443320Y-69170273D01*
X4335147Y-69431426D01*
X4280000Y-69708665D01*
X660000Y-69708665D01*
X660000Y-62088665D01*
X4280000Y-62088665D01*
X4280000Y-62371335D01*
X4335147Y-62648574D01*
X4443320Y-62909727D01*
X4600363Y-63144759D01*
X4800241Y-63344637D01*
X5035273Y-63501680D01*
X5296426Y-63609853D01*
X5573665Y-63665000D01*
X5856335Y-63665000D01*
X6133574Y-63609853D01*
X6394727Y-63501680D01*
X6549804Y-63398061D01*
X7220000Y-63398061D01*
X7220000Y-63601939D01*
X7259774Y-63801898D01*
X7337795Y-63990256D01*
X7451063Y-64159774D01*
X7595226Y-64303937D01*
X7764744Y-64417205D01*
X7953102Y-64495226D01*
X8153061Y-64535000D01*
X8356939Y-64535000D01*
X8556898Y-64495226D01*
X8745256Y-64417205D01*
X8914774Y-64303937D01*
X8958711Y-64260000D01*
X9356928Y-64260000D01*
X9356928Y-64300000D01*
X9369188Y-64424482D01*
X9405498Y-64544180D01*
X9464463Y-64654494D01*
X9543815Y-64751185D01*
X9640506Y-64830537D01*
X9750820Y-64889502D01*
X9870518Y-64925812D01*
X9995000Y-64938072D01*
X11595000Y-64938072D01*
X11719482Y-64925812D01*
X11839180Y-64889502D01*
X11949494Y-64830537D01*
X12046185Y-64751185D01*
X12125537Y-64654494D01*
X12184502Y-64544180D01*
X12220812Y-64424482D01*
X12233072Y-64300000D01*
X12233072Y-62700000D01*
X12220812Y-62575518D01*
X12184502Y-62455820D01*
X12125537Y-62345506D01*
X12046185Y-62248815D01*
X11949494Y-62169463D01*
X11839180Y-62110498D01*
X11719482Y-62074188D01*
X11595000Y-62061928D01*
X9995000Y-62061928D01*
X9870518Y-62074188D01*
X9750820Y-62110498D01*
X9640506Y-62169463D01*
X9543815Y-62248815D01*
X9464463Y-62345506D01*
X9405498Y-62455820D01*
X9369188Y-62575518D01*
X9356928Y-62700000D01*
X9356928Y-62740000D01*
X8958711Y-62740000D01*
X8914774Y-62696063D01*
X8745256Y-62582795D01*
X8556898Y-62504774D01*
X8356939Y-62465000D01*
X8153061Y-62465000D01*
X7953102Y-62504774D01*
X7764744Y-62582795D01*
X7595226Y-62696063D01*
X7451063Y-62840226D01*
X7337795Y-63009744D01*
X7259774Y-63198102D01*
X7220000Y-63398061D01*
X6549804Y-63398061D01*
X6629759Y-63344637D01*
X6829637Y-63144759D01*
X6986680Y-62909727D01*
X7094853Y-62648574D01*
X7150000Y-62371335D01*
X7150000Y-62088665D01*
X7094853Y-61811426D01*
X6986680Y-61550273D01*
X6829637Y-61315241D01*
X6629759Y-61115363D01*
X6394727Y-60958320D01*
X6133574Y-60850147D01*
X5856335Y-60795000D01*
X5573665Y-60795000D01*
X5296426Y-60850147D01*
X5035273Y-60958320D01*
X4800241Y-61115363D01*
X4600363Y-61315241D01*
X4443320Y-61550273D01*
X4335147Y-61811426D01*
X4280000Y-62088665D01*
X660000Y-62088665D01*
X660000Y-59588061D01*
X7220000Y-59588061D01*
X7220000Y-59791939D01*
X7259774Y-59991898D01*
X7337795Y-60180256D01*
X7451063Y-60349774D01*
X7595226Y-60493937D01*
X7764744Y-60607205D01*
X7953102Y-60685226D01*
X8153061Y-60725000D01*
X8356939Y-60725000D01*
X8556898Y-60685226D01*
X8745256Y-60607205D01*
X8914774Y-60493937D01*
X8958711Y-60450000D01*
X9576957Y-60450000D01*
X9680363Y-60604759D01*
X9880241Y-60804637D01*
X10115273Y-60961680D01*
X10376426Y-61069853D01*
X10653665Y-61125000D01*
X10936335Y-61125000D01*
X11213574Y-61069853D01*
X11474727Y-60961680D01*
X11709759Y-60804637D01*
X11909637Y-60604759D01*
X12013043Y-60450000D01*
X15171289Y-60450000D01*
X15215226Y-60493937D01*
X15384744Y-60607205D01*
X15573102Y-60685226D01*
X15773061Y-60725000D01*
X15976939Y-60725000D01*
X16176898Y-60685226D01*
X16365256Y-60607205D01*
X16534774Y-60493937D01*
X16678937Y-60349774D01*
X16792205Y-60180256D01*
X16870226Y-59991898D01*
X16910000Y-59791939D01*
X16910000Y-59588061D01*
X16870226Y-59388102D01*
X16792205Y-59199744D01*
X16678937Y-59030226D01*
X16534774Y-58886063D01*
X16365256Y-58772795D01*
X16176898Y-58694774D01*
X15976939Y-58655000D01*
X15773061Y-58655000D01*
X15573102Y-58694774D01*
X15384744Y-58772795D01*
X15215226Y-58886063D01*
X15171289Y-58930000D01*
X12013043Y-58930000D01*
X11909637Y-58775241D01*
X11709759Y-58575363D01*
X11474727Y-58418320D01*
X11213574Y-58310147D01*
X10936335Y-58255000D01*
X10653665Y-58255000D01*
X10376426Y-58310147D01*
X10115273Y-58418320D01*
X9880241Y-58575363D01*
X9680363Y-58775241D01*
X9576957Y-58930000D01*
X8958711Y-58930000D01*
X8914774Y-58886063D01*
X8745256Y-58772795D01*
X8556898Y-58694774D01*
X8356939Y-58655000D01*
X8153061Y-58655000D01*
X7953102Y-58694774D01*
X7764744Y-58772795D01*
X7595226Y-58886063D01*
X7451063Y-59030226D01*
X7337795Y-59199744D01*
X7259774Y-59388102D01*
X7220000Y-59588061D01*
X660000Y-59588061D01*
X660000Y-55600000D01*
X4108783Y-55600000D01*
X4133593Y-55851904D01*
X4207071Y-56094127D01*
X4326392Y-56317362D01*
X4486972Y-56513028D01*
X4682638Y-56673608D01*
X4905873Y-56792929D01*
X5148096Y-56866407D01*
X5336877Y-56885000D01*
X6463123Y-56885000D01*
X6651904Y-56866407D01*
X6894127Y-56792929D01*
X7117362Y-56673608D01*
X7313028Y-56513028D01*
X7473608Y-56317362D01*
X7592929Y-56094127D01*
X7666407Y-55851904D01*
X7691217Y-55600000D01*
X7666407Y-55348096D01*
X7592929Y-55105873D01*
X7473608Y-54882638D01*
X7313028Y-54686972D01*
X7117362Y-54526392D01*
X7029650Y-54479509D01*
X11565000Y-54479509D01*
X11565000Y-55320492D01*
X11585764Y-55531309D01*
X11667818Y-55801808D01*
X11801068Y-56051101D01*
X11980393Y-56269608D01*
X12198900Y-56448932D01*
X12448193Y-56582182D01*
X12718692Y-56664236D01*
X13000000Y-56691943D01*
X13281309Y-56664236D01*
X13551808Y-56582182D01*
X13801101Y-56448932D01*
X14019608Y-56269608D01*
X14198932Y-56051101D01*
X14332182Y-55801808D01*
X14414236Y-55531308D01*
X14435000Y-55320491D01*
X14435000Y-55103665D01*
X14440000Y-55103665D01*
X14440000Y-55386335D01*
X14495147Y-55663574D01*
X14603320Y-55924727D01*
X14760363Y-56159759D01*
X14960241Y-56359637D01*
X15195273Y-56516680D01*
X15456426Y-56624853D01*
X15733665Y-56680000D01*
X16016335Y-56680000D01*
X16293574Y-56624853D01*
X16554727Y-56516680D01*
X16789759Y-56359637D01*
X16989637Y-56159759D01*
X17146680Y-55924727D01*
X17254853Y-55663574D01*
X17310000Y-55386335D01*
X17310000Y-55103665D01*
X22060000Y-55103665D01*
X22060000Y-55386335D01*
X22115147Y-55663574D01*
X22223320Y-55924727D01*
X22380363Y-56159759D01*
X22580241Y-56359637D01*
X22815273Y-56516680D01*
X23076426Y-56624853D01*
X23353665Y-56680000D01*
X23636335Y-56680000D01*
X23913574Y-56624853D01*
X24174727Y-56516680D01*
X24409759Y-56359637D01*
X24609637Y-56159759D01*
X24766680Y-55924727D01*
X24874853Y-55663574D01*
X24930000Y-55386335D01*
X24930000Y-55103665D01*
X24874853Y-54826426D01*
X24766680Y-54565273D01*
X24609637Y-54330241D01*
X24409759Y-54130363D01*
X24174727Y-53973320D01*
X23913574Y-53865147D01*
X23636335Y-53810000D01*
X23353665Y-53810000D01*
X23076426Y-53865147D01*
X22815273Y-53973320D01*
X22580241Y-54130363D01*
X22380363Y-54330241D01*
X22223320Y-54565273D01*
X22115147Y-54826426D01*
X22060000Y-55103665D01*
X17310000Y-55103665D01*
X17254853Y-54826426D01*
X17146680Y-54565273D01*
X16989637Y-54330241D01*
X16789759Y-54130363D01*
X16554727Y-53973320D01*
X16293574Y-53865147D01*
X16016335Y-53810000D01*
X15733665Y-53810000D01*
X15456426Y-53865147D01*
X15195273Y-53973320D01*
X14960241Y-54130363D01*
X14760363Y-54330241D01*
X14603320Y-54565273D01*
X14495147Y-54826426D01*
X14440000Y-55103665D01*
X14435000Y-55103665D01*
X14435000Y-54479508D01*
X14414236Y-54268691D01*
X14332182Y-53998192D01*
X14198932Y-53748899D01*
X14019607Y-53530392D01*
X13801100Y-53351068D01*
X13551807Y-53217818D01*
X13281308Y-53135764D01*
X13000000Y-53108057D01*
X12718691Y-53135764D01*
X12448192Y-53217818D01*
X12198899Y-53351068D01*
X11980392Y-53530393D01*
X11801068Y-53748900D01*
X11667818Y-53998193D01*
X11585764Y-54268692D01*
X11565000Y-54479509D01*
X7029650Y-54479509D01*
X6894127Y-54407071D01*
X6651904Y-54333593D01*
X6463123Y-54315000D01*
X5336877Y-54315000D01*
X5148096Y-54333593D01*
X4905873Y-54407071D01*
X4682638Y-54526392D01*
X4486972Y-54686972D01*
X4326392Y-54882638D01*
X4207071Y-55105873D01*
X4133593Y-55348096D01*
X4108783Y-55600000D01*
X660000Y-55600000D01*
X660000Y-52137092D01*
X775105Y-52254500D01*
X1008354Y-52413715D01*
X1268182Y-52524367D01*
X1350961Y-52541904D01*
X1573000Y-52419915D01*
X1573000Y-50927000D01*
X1827000Y-50927000D01*
X1827000Y-52419915D01*
X2049039Y-52541904D01*
X2131818Y-52524367D01*
X2391646Y-52413715D01*
X2624895Y-52254500D01*
X2822601Y-52052839D01*
X2977166Y-51816483D01*
X3082650Y-51554514D01*
X3133714Y-51283816D01*
X24500000Y-51283816D01*
X24500000Y-51586184D01*
X24558989Y-51882743D01*
X24674701Y-52162095D01*
X24842688Y-52413505D01*
X25056495Y-52627312D01*
X25307905Y-52795299D01*
X25587257Y-52911011D01*
X25883816Y-52970000D01*
X26186184Y-52970000D01*
X26482743Y-52911011D01*
X26762095Y-52795299D01*
X27013505Y-52627312D01*
X27227312Y-52413505D01*
X27395299Y-52162095D01*
X27511011Y-51882743D01*
X27570000Y-51586184D01*
X27570000Y-51283816D01*
X27511011Y-50987257D01*
X27395299Y-50707905D01*
X27227312Y-50456495D01*
X27013505Y-50242688D01*
X26762095Y-50074701D01*
X26482743Y-49958989D01*
X26186184Y-49900000D01*
X25883816Y-49900000D01*
X25587257Y-49958989D01*
X25307905Y-50074701D01*
X25056495Y-50242688D01*
X24842688Y-50456495D01*
X24674701Y-50707905D01*
X24558989Y-50987257D01*
X24500000Y-51283816D01*
X3133714Y-51283816D01*
X3135000Y-51277000D01*
X3135000Y-50927000D01*
X1827000Y-50927000D01*
X1573000Y-50927000D01*
X1553000Y-50927000D01*
X1553000Y-50673000D01*
X1573000Y-50673000D01*
X1573000Y-49180085D01*
X1827000Y-49180085D01*
X1827000Y-50673000D01*
X3135000Y-50673000D01*
X3135000Y-50323000D01*
X3082650Y-50045486D01*
X2977166Y-49783517D01*
X2822601Y-49547161D01*
X2624895Y-49345500D01*
X2391646Y-49186285D01*
X2131818Y-49075633D01*
X2049039Y-49058096D01*
X1827000Y-49180085D01*
X1573000Y-49180085D01*
X1350961Y-49058096D01*
X1268182Y-49075633D01*
X1008354Y-49186285D01*
X775105Y-49345500D01*
X660000Y-49462908D01*
X660000Y-48200000D01*
X6808057Y-48200000D01*
X6835764Y-48481309D01*
X6917818Y-48751808D01*
X7051068Y-49001101D01*
X7230392Y-49219608D01*
X7448899Y-49398932D01*
X7698192Y-49532182D01*
X7968691Y-49614236D01*
X8179508Y-49635000D01*
X9020492Y-49635000D01*
X9231309Y-49614236D01*
X9501808Y-49532182D01*
X9751101Y-49398932D01*
X9969608Y-49219608D01*
X10148932Y-49001101D01*
X10282182Y-48751808D01*
X10284606Y-48743816D01*
X16880000Y-48743816D01*
X16880000Y-49046184D01*
X16938989Y-49342743D01*
X17054701Y-49622095D01*
X17222688Y-49873505D01*
X17436495Y-50087312D01*
X17687905Y-50255299D01*
X17967257Y-50371011D01*
X18263816Y-50430000D01*
X18566184Y-50430000D01*
X18862743Y-50371011D01*
X19142095Y-50255299D01*
X19393505Y-50087312D01*
X19607312Y-49873505D01*
X19775299Y-49622095D01*
X19891011Y-49342743D01*
X19950000Y-49046184D01*
X19950000Y-48743816D01*
X19891011Y-48447257D01*
X19775299Y-48167905D01*
X19607312Y-47916495D01*
X19440817Y-47750000D01*
X30089183Y-47750000D01*
X29922688Y-47916495D01*
X29754701Y-48167905D01*
X29638989Y-48447257D01*
X29580000Y-48743816D01*
X29580000Y-49046184D01*
X29638989Y-49342743D01*
X29754701Y-49622095D01*
X29922688Y-49873505D01*
X30136495Y-50087312D01*
X30387905Y-50255299D01*
X30667257Y-50371011D01*
X30963816Y-50430000D01*
X31266184Y-50430000D01*
X31562743Y-50371011D01*
X31842095Y-50255299D01*
X32093505Y-50087312D01*
X32307312Y-49873505D01*
X32475299Y-49622095D01*
X32591011Y-49342743D01*
X32650000Y-49046184D01*
X32650000Y-48743816D01*
X32591011Y-48447257D01*
X32475299Y-48167905D01*
X32307312Y-47916495D01*
X32140817Y-47750000D01*
X32316289Y-47750000D01*
X32360226Y-47793937D01*
X32529744Y-47907205D01*
X32718102Y-47985226D01*
X32918061Y-48025000D01*
X33121939Y-48025000D01*
X33321898Y-47985226D01*
X33510256Y-47907205D01*
X33679774Y-47793937D01*
X33823937Y-47649774D01*
X33937205Y-47480256D01*
X34015226Y-47291898D01*
X34055000Y-47091939D01*
X34055000Y-46888061D01*
X34015226Y-46688102D01*
X33937205Y-46499744D01*
X33823937Y-46330226D01*
X33679774Y-46186063D01*
X33510256Y-46072795D01*
X33321898Y-45994774D01*
X33121939Y-45955000D01*
X32918061Y-45955000D01*
X32718102Y-45994774D01*
X32529744Y-46072795D01*
X32360226Y-46186063D01*
X32316289Y-46230000D01*
X27060817Y-46230000D01*
X27227312Y-46063505D01*
X27395299Y-45812095D01*
X27511011Y-45532743D01*
X27570000Y-45236184D01*
X27570000Y-44933816D01*
X27511011Y-44637257D01*
X27395299Y-44357905D01*
X27227312Y-44106495D01*
X27013505Y-43892688D01*
X26762095Y-43724701D01*
X26482743Y-43608989D01*
X26186184Y-43550000D01*
X25883816Y-43550000D01*
X25587257Y-43608989D01*
X25307905Y-43724701D01*
X25056495Y-43892688D01*
X24842688Y-44106495D01*
X24674701Y-44357905D01*
X24558989Y-44637257D01*
X24500000Y-44933816D01*
X24500000Y-45236184D01*
X24558989Y-45532743D01*
X24674701Y-45812095D01*
X24842688Y-46063505D01*
X25009183Y-46230000D01*
X19118711Y-46230000D01*
X19074774Y-46186063D01*
X18905256Y-46072795D01*
X18716898Y-45994774D01*
X18516939Y-45955000D01*
X18313061Y-45955000D01*
X18113102Y-45994774D01*
X17924744Y-46072795D01*
X17755226Y-46186063D01*
X17611063Y-46330226D01*
X17497795Y-46499744D01*
X17419774Y-46688102D01*
X17380000Y-46888061D01*
X17380000Y-47091939D01*
X17419774Y-47291898D01*
X17497795Y-47480256D01*
X17581624Y-47605716D01*
X17436495Y-47702688D01*
X17222688Y-47916495D01*
X17054701Y-48167905D01*
X16938989Y-48447257D01*
X16880000Y-48743816D01*
X10284606Y-48743816D01*
X10364236Y-48481309D01*
X10391943Y-48200000D01*
X10364236Y-47918691D01*
X10282182Y-47648192D01*
X10148932Y-47398899D01*
X9969608Y-47180392D01*
X9751101Y-47001068D01*
X9533953Y-46885000D01*
X10163123Y-46885000D01*
X10351904Y-46866407D01*
X10594127Y-46792929D01*
X10817362Y-46673608D01*
X11013028Y-46513028D01*
X11173608Y-46317362D01*
X11292929Y-46094127D01*
X11366407Y-45851904D01*
X11391217Y-45600000D01*
X11366407Y-45348096D01*
X11292929Y-45105873D01*
X11173608Y-44882638D01*
X11013028Y-44686972D01*
X10817362Y-44526392D01*
X10594127Y-44407071D01*
X10351904Y-44333593D01*
X10163123Y-44315000D01*
X9036877Y-44315000D01*
X8848096Y-44333593D01*
X8605873Y-44407071D01*
X8382638Y-44526392D01*
X8186972Y-44686972D01*
X8026392Y-44882638D01*
X7907071Y-45105873D01*
X7833593Y-45348096D01*
X7808783Y-45600000D01*
X7833593Y-45851904D01*
X7907071Y-46094127D01*
X8026392Y-46317362D01*
X8186972Y-46513028D01*
X8382638Y-46673608D01*
X8553621Y-46765000D01*
X8179508Y-46765000D01*
X7968691Y-46785764D01*
X7698192Y-46867818D01*
X7448899Y-47001068D01*
X7230392Y-47180392D01*
X7051068Y-47398899D01*
X6917818Y-47648192D01*
X6835764Y-47918691D01*
X6808057Y-48200000D01*
X660000Y-48200000D01*
X660000Y-42393816D01*
X16880000Y-42393816D01*
X16880000Y-42696184D01*
X16938989Y-42992743D01*
X17054701Y-43272095D01*
X17222688Y-43523505D01*
X17436495Y-43737312D01*
X17687905Y-43905299D01*
X17967257Y-44021011D01*
X18263816Y-44080000D01*
X18566184Y-44080000D01*
X18862743Y-44021011D01*
X19142095Y-43905299D01*
X19393505Y-43737312D01*
X19607312Y-43523505D01*
X19775299Y-43272095D01*
X19891011Y-42992743D01*
X19950000Y-42696184D01*
X19950000Y-42393816D01*
X29580000Y-42393816D01*
X29580000Y-42696184D01*
X29638989Y-42992743D01*
X29754701Y-43272095D01*
X29922688Y-43523505D01*
X30136495Y-43737312D01*
X30387905Y-43905299D01*
X30667257Y-44021011D01*
X30963816Y-44080000D01*
X31266184Y-44080000D01*
X31562743Y-44021011D01*
X31842095Y-43905299D01*
X32093505Y-43737312D01*
X32307312Y-43523505D01*
X32475299Y-43272095D01*
X32591011Y-42992743D01*
X32650000Y-42696184D01*
X32650000Y-42393816D01*
X32591011Y-42097257D01*
X32475299Y-41817905D01*
X32307312Y-41566495D01*
X32093505Y-41352688D01*
X31842095Y-41184701D01*
X31562743Y-41068989D01*
X31266184Y-41010000D01*
X30963816Y-41010000D01*
X30667257Y-41068989D01*
X30387905Y-41184701D01*
X30136495Y-41352688D01*
X29922688Y-41566495D01*
X29754701Y-41817905D01*
X29638989Y-42097257D01*
X29580000Y-42393816D01*
X19950000Y-42393816D01*
X19891011Y-42097257D01*
X19775299Y-41817905D01*
X19607312Y-41566495D01*
X19393505Y-41352688D01*
X19142095Y-41184701D01*
X18862743Y-41068989D01*
X18566184Y-41010000D01*
X18263816Y-41010000D01*
X17967257Y-41068989D01*
X17687905Y-41184701D01*
X17436495Y-41352688D01*
X17222688Y-41566495D01*
X17054701Y-41817905D01*
X16938989Y-42097257D01*
X16880000Y-42393816D01*
X660000Y-42393816D01*
X660000Y-40282702D01*
X15061903Y-40282702D01*
X15133486Y-40526671D01*
X15388996Y-40647571D01*
X15663184Y-40716300D01*
X15945512Y-40730217D01*
X16225130Y-40688787D01*
X16491292Y-40593603D01*
X16616514Y-40526671D01*
X16688097Y-40282702D01*
X15875000Y-39469605D01*
X15061903Y-40282702D01*
X660000Y-40282702D01*
X660000Y-39360512D01*
X14434783Y-39360512D01*
X14476213Y-39640130D01*
X14571397Y-39906292D01*
X14638329Y-40031514D01*
X14882298Y-40103097D01*
X15695395Y-39290000D01*
X16054605Y-39290000D01*
X16867702Y-40103097D01*
X17111671Y-40031514D01*
X17232571Y-39776004D01*
X17301300Y-39501816D01*
X17315217Y-39219488D01*
X17273787Y-38939870D01*
X17178603Y-38673708D01*
X17156877Y-38633061D01*
X18015000Y-38633061D01*
X18015000Y-38836939D01*
X18054774Y-39036898D01*
X18132795Y-39225256D01*
X18246063Y-39394774D01*
X18390226Y-39538937D01*
X18559744Y-39652205D01*
X18748102Y-39730226D01*
X18948061Y-39770000D01*
X19151939Y-39770000D01*
X19351898Y-39730226D01*
X19540256Y-39652205D01*
X19709774Y-39538937D01*
X19753711Y-39495000D01*
X31046289Y-39495000D01*
X31090226Y-39538937D01*
X31259744Y-39652205D01*
X31448102Y-39730226D01*
X31648061Y-39770000D01*
X31851939Y-39770000D01*
X32051898Y-39730226D01*
X32240256Y-39652205D01*
X32409774Y-39538937D01*
X32553937Y-39394774D01*
X32667205Y-39225256D01*
X32745226Y-39036898D01*
X32785000Y-38836939D01*
X32785000Y-38633061D01*
X32745226Y-38433102D01*
X32667205Y-38244744D01*
X32553937Y-38075226D01*
X32409774Y-37931063D01*
X32240256Y-37817795D01*
X32051898Y-37739774D01*
X31851939Y-37700000D01*
X31648061Y-37700000D01*
X31448102Y-37739774D01*
X31259744Y-37817795D01*
X31090226Y-37931063D01*
X31046289Y-37975000D01*
X19753711Y-37975000D01*
X19709774Y-37931063D01*
X19540256Y-37817795D01*
X19351898Y-37739774D01*
X19151939Y-37700000D01*
X18948061Y-37700000D01*
X18748102Y-37739774D01*
X18559744Y-37817795D01*
X18390226Y-37931063D01*
X18246063Y-38075226D01*
X18132795Y-38244744D01*
X18054774Y-38433102D01*
X18015000Y-38633061D01*
X17156877Y-38633061D01*
X17111671Y-38548486D01*
X16867702Y-38476903D01*
X16054605Y-39290000D01*
X15695395Y-39290000D01*
X14882298Y-38476903D01*
X14638329Y-38548486D01*
X14517429Y-38803996D01*
X14448700Y-39078184D01*
X14434783Y-39360512D01*
X660000Y-39360512D01*
X660000Y-38297298D01*
X15061903Y-38297298D01*
X15875000Y-39110395D01*
X16688097Y-38297298D01*
X16616514Y-38053329D01*
X16361004Y-37932429D01*
X16086816Y-37863700D01*
X15804488Y-37849783D01*
X15524870Y-37891213D01*
X15258708Y-37986397D01*
X15133486Y-38053329D01*
X15061903Y-38297298D01*
X660000Y-38297298D01*
X660000Y-36688665D01*
X11265000Y-36688665D01*
X11265000Y-36971335D01*
X11320147Y-37248574D01*
X11428320Y-37509727D01*
X11585363Y-37744759D01*
X11785241Y-37944637D01*
X12020273Y-38101680D01*
X12281426Y-38209853D01*
X12558665Y-38265000D01*
X12841335Y-38265000D01*
X13118574Y-38209853D01*
X13379727Y-38101680D01*
X13614759Y-37944637D01*
X13814637Y-37744759D01*
X13918043Y-37590000D01*
X25331289Y-37590000D01*
X25375226Y-37633937D01*
X25544744Y-37747205D01*
X25733102Y-37825226D01*
X25933061Y-37865000D01*
X26136939Y-37865000D01*
X26336898Y-37825226D01*
X26525256Y-37747205D01*
X26694774Y-37633937D01*
X26838937Y-37489774D01*
X26952205Y-37320256D01*
X27030226Y-37131898D01*
X27070000Y-36931939D01*
X27070000Y-36728061D01*
X27030226Y-36528102D01*
X26952205Y-36339744D01*
X26838937Y-36170226D01*
X26694774Y-36026063D01*
X26525256Y-35912795D01*
X26336898Y-35834774D01*
X26136939Y-35795000D01*
X25933061Y-35795000D01*
X25733102Y-35834774D01*
X25544744Y-35912795D01*
X25375226Y-36026063D01*
X25331289Y-36070000D01*
X13918043Y-36070000D01*
X13814637Y-35915241D01*
X13614759Y-35715363D01*
X13379727Y-35558320D01*
X13118574Y-35450147D01*
X12841335Y-35395000D01*
X12558665Y-35395000D01*
X12281426Y-35450147D01*
X12020273Y-35558320D01*
X11785241Y-35715363D01*
X11585363Y-35915241D01*
X11428320Y-36150273D01*
X11320147Y-36411426D01*
X11265000Y-36688665D01*
X660000Y-36688665D01*
X660000Y-32742702D01*
X1091903Y-32742702D01*
X1163486Y-32986671D01*
X1418996Y-33107571D01*
X1693184Y-33176300D01*
X1975512Y-33190217D01*
X2255130Y-33148787D01*
X2521292Y-33053603D01*
X2646514Y-32986671D01*
X2718097Y-32742702D01*
X1905000Y-31929605D01*
X1091903Y-32742702D01*
X660000Y-32742702D01*
X660000Y-32475931D01*
X668329Y-32491514D01*
X912298Y-32563097D01*
X1725395Y-31750000D01*
X2084605Y-31750000D01*
X2897702Y-32563097D01*
X3141671Y-32491514D01*
X3262571Y-32236004D01*
X3331300Y-31961816D01*
X3345217Y-31679488D01*
X3303787Y-31399870D01*
X3208603Y-31133708D01*
X3141671Y-31008486D01*
X2897702Y-30936903D01*
X2084605Y-31750000D01*
X1725395Y-31750000D01*
X912298Y-30936903D01*
X668329Y-31008486D01*
X660000Y-31026089D01*
X660000Y-30757298D01*
X1091903Y-30757298D01*
X1905000Y-31570395D01*
X2718097Y-30757298D01*
X2646514Y-30513329D01*
X2391004Y-30392429D01*
X2116816Y-30323700D01*
X1834488Y-30309783D01*
X1554870Y-30351213D01*
X1288708Y-30446397D01*
X1163486Y-30513329D01*
X1091903Y-30757298D01*
X660000Y-30757298D01*
X660000Y-29567702D01*
X1091903Y-29567702D01*
X1163486Y-29811671D01*
X1418996Y-29932571D01*
X1693184Y-30001300D01*
X1975512Y-30015217D01*
X2255130Y-29973787D01*
X2521292Y-29878603D01*
X2646514Y-29811671D01*
X2718097Y-29567702D01*
X1905000Y-28754605D01*
X1091903Y-29567702D01*
X660000Y-29567702D01*
X660000Y-29300931D01*
X668329Y-29316514D01*
X912298Y-29388097D01*
X1725395Y-28575000D01*
X2084605Y-28575000D01*
X2897702Y-29388097D01*
X3141671Y-29316514D01*
X3262571Y-29061004D01*
X3331300Y-28786816D01*
X3345217Y-28504488D01*
X3334724Y-28433665D01*
X8090000Y-28433665D01*
X8090000Y-28716335D01*
X8145147Y-28993574D01*
X8253320Y-29254727D01*
X8410363Y-29489759D01*
X8610241Y-29689637D01*
X8845273Y-29846680D01*
X9106426Y-29954853D01*
X9383665Y-30010000D01*
X9666335Y-30010000D01*
X9943574Y-29954853D01*
X10204727Y-29846680D01*
X10439759Y-29689637D01*
X10639637Y-29489759D01*
X10743043Y-29335000D01*
X11265000Y-29335000D01*
X11265000Y-29351335D01*
X11320147Y-29628574D01*
X11428320Y-29889727D01*
X11585363Y-30124759D01*
X11785241Y-30324637D01*
X12020273Y-30481680D01*
X12281426Y-30589853D01*
X12558665Y-30645000D01*
X12841335Y-30645000D01*
X13118574Y-30589853D01*
X13379727Y-30481680D01*
X13614759Y-30324637D01*
X13814637Y-30124759D01*
X13918043Y-29970000D01*
X17429099Y-29970000D01*
X17451068Y-30011101D01*
X17630392Y-30229608D01*
X17848899Y-30408932D01*
X17981858Y-30480000D01*
X17848899Y-30551068D01*
X17630392Y-30730392D01*
X17451068Y-30948899D01*
X17429099Y-30990000D01*
X17093043Y-30990000D01*
X16989637Y-30835241D01*
X16789759Y-30635363D01*
X16554727Y-30478320D01*
X16293574Y-30370147D01*
X16016335Y-30315000D01*
X15733665Y-30315000D01*
X15456426Y-30370147D01*
X15195273Y-30478320D01*
X14960241Y-30635363D01*
X14760363Y-30835241D01*
X14656957Y-30990000D01*
X10743043Y-30990000D01*
X10639637Y-30835241D01*
X10439759Y-30635363D01*
X10204727Y-30478320D01*
X9943574Y-30370147D01*
X9666335Y-30315000D01*
X9383665Y-30315000D01*
X9106426Y-30370147D01*
X8845273Y-30478320D01*
X8610241Y-30635363D01*
X8410363Y-30835241D01*
X8253320Y-31070273D01*
X8145147Y-31331426D01*
X8090000Y-31608665D01*
X8090000Y-31891335D01*
X8145147Y-32168574D01*
X8253320Y-32429727D01*
X8410363Y-32664759D01*
X8610241Y-32864637D01*
X8845273Y-33021680D01*
X9106426Y-33129853D01*
X9383665Y-33185000D01*
X9666335Y-33185000D01*
X9943574Y-33129853D01*
X10204727Y-33021680D01*
X10439759Y-32864637D01*
X10639637Y-32664759D01*
X10743043Y-32510000D01*
X14656957Y-32510000D01*
X14760363Y-32664759D01*
X14960241Y-32864637D01*
X15192759Y-33020000D01*
X14960241Y-33175363D01*
X14760363Y-33375241D01*
X14603320Y-33610273D01*
X14495147Y-33871426D01*
X14440000Y-34148665D01*
X14440000Y-34431335D01*
X14495147Y-34708574D01*
X14603320Y-34969727D01*
X14760363Y-35204759D01*
X14960241Y-35404637D01*
X15195273Y-35561680D01*
X15456426Y-35669853D01*
X15733665Y-35725000D01*
X16016335Y-35725000D01*
X16293574Y-35669853D01*
X16554727Y-35561680D01*
X16789759Y-35404637D01*
X16989637Y-35204759D01*
X17093043Y-35050000D01*
X17429099Y-35050000D01*
X17451068Y-35091101D01*
X17630392Y-35309608D01*
X17848899Y-35488932D01*
X18098192Y-35622182D01*
X18368691Y-35704236D01*
X18579508Y-35725000D01*
X19520492Y-35725000D01*
X19731309Y-35704236D01*
X20001808Y-35622182D01*
X20251101Y-35488932D01*
X20469608Y-35309608D01*
X20648932Y-35091101D01*
X20782182Y-34841808D01*
X20864236Y-34571309D01*
X20891943Y-34290000D01*
X20864236Y-34008691D01*
X20782182Y-33738192D01*
X20648932Y-33488899D01*
X20469608Y-33270392D01*
X20251101Y-33091068D01*
X20118142Y-33020000D01*
X20251101Y-32948932D01*
X20469608Y-32769608D01*
X20648932Y-32551101D01*
X20782182Y-32301808D01*
X20864236Y-32031309D01*
X20891943Y-31750000D01*
X20864236Y-31468691D01*
X20782182Y-31198192D01*
X20648932Y-30948899D01*
X20469608Y-30730392D01*
X20251101Y-30551068D01*
X20118142Y-30480000D01*
X20251101Y-30408932D01*
X20469608Y-30229608D01*
X20648932Y-30011101D01*
X20782182Y-29761808D01*
X20864236Y-29491309D01*
X20891943Y-29210000D01*
X20864236Y-28928691D01*
X20782182Y-28658192D01*
X20648932Y-28408899D01*
X20469608Y-28190392D01*
X20356518Y-28097581D01*
X20374482Y-28095812D01*
X20494180Y-28059502D01*
X20604494Y-28000537D01*
X20701185Y-27921185D01*
X20780537Y-27824494D01*
X20839502Y-27714180D01*
X20875812Y-27594482D01*
X20888072Y-27470000D01*
X20888072Y-26670000D01*
X24828057Y-26670000D01*
X24855764Y-26951309D01*
X24937818Y-27221808D01*
X25071068Y-27471101D01*
X25250392Y-27689608D01*
X25468899Y-27868932D01*
X25601858Y-27940000D01*
X25468899Y-28011068D01*
X25250392Y-28190392D01*
X25071068Y-28408899D01*
X24937818Y-28658192D01*
X24855764Y-28928691D01*
X24828057Y-29210000D01*
X24855764Y-29491309D01*
X24937818Y-29761808D01*
X25071068Y-30011101D01*
X25250392Y-30229608D01*
X25468899Y-30408932D01*
X25601858Y-30480000D01*
X25468899Y-30551068D01*
X25250392Y-30730392D01*
X25071068Y-30948899D01*
X24937818Y-31198192D01*
X24855764Y-31468691D01*
X24828057Y-31750000D01*
X24855764Y-32031309D01*
X24937818Y-32301808D01*
X25071068Y-32551101D01*
X25250392Y-32769608D01*
X25468899Y-32948932D01*
X25601858Y-33020000D01*
X25468899Y-33091068D01*
X25250392Y-33270392D01*
X25071068Y-33488899D01*
X24937818Y-33738192D01*
X24855764Y-34008691D01*
X24828057Y-34290000D01*
X24855764Y-34571309D01*
X24937818Y-34841808D01*
X25071068Y-35091101D01*
X25250392Y-35309608D01*
X25468899Y-35488932D01*
X25718192Y-35622182D01*
X25988691Y-35704236D01*
X26199508Y-35725000D01*
X27140492Y-35725000D01*
X27351309Y-35704236D01*
X27621808Y-35622182D01*
X27871101Y-35488932D01*
X28089608Y-35309608D01*
X28111689Y-35282702D01*
X29031903Y-35282702D01*
X29103486Y-35526671D01*
X29358996Y-35647571D01*
X29633184Y-35716300D01*
X29915512Y-35730217D01*
X30195130Y-35688787D01*
X30461292Y-35593603D01*
X30586514Y-35526671D01*
X30658097Y-35282702D01*
X29845000Y-34469605D01*
X29031903Y-35282702D01*
X28111689Y-35282702D01*
X28268932Y-35091101D01*
X28402182Y-34841808D01*
X28455490Y-34666072D01*
X28541397Y-34906292D01*
X28608329Y-35031514D01*
X28852298Y-35103097D01*
X29665395Y-34290000D01*
X30024605Y-34290000D01*
X30837702Y-35103097D01*
X31081671Y-35031514D01*
X31202571Y-34776004D01*
X31271300Y-34501816D01*
X31285217Y-34219488D01*
X31243787Y-33939870D01*
X31148603Y-33673708D01*
X31081671Y-33548486D01*
X30837702Y-33476903D01*
X30024605Y-34290000D01*
X29665395Y-34290000D01*
X28852298Y-33476903D01*
X28608329Y-33548486D01*
X28487429Y-33803996D01*
X28457890Y-33921839D01*
X28402182Y-33738192D01*
X28268932Y-33488899D01*
X28111690Y-33297298D01*
X29031903Y-33297298D01*
X29845000Y-34110395D01*
X30658097Y-33297298D01*
X30586514Y-33053329D01*
X30331004Y-32932429D01*
X30056816Y-32863700D01*
X29774488Y-32849783D01*
X29494870Y-32891213D01*
X29228708Y-32986397D01*
X29103486Y-33053329D01*
X29031903Y-33297298D01*
X28111690Y-33297298D01*
X28089608Y-33270392D01*
X27871101Y-33091068D01*
X27738142Y-33020000D01*
X27871101Y-32948932D01*
X28089608Y-32769608D01*
X28268932Y-32551101D01*
X28290901Y-32510000D01*
X33586289Y-32510000D01*
X33630226Y-32553937D01*
X33799744Y-32667205D01*
X33988102Y-32745226D01*
X34188061Y-32785000D01*
X34391939Y-32785000D01*
X34591898Y-32745226D01*
X34780256Y-32667205D01*
X34949774Y-32553937D01*
X35093937Y-32409774D01*
X35207205Y-32240256D01*
X35285226Y-32051898D01*
X35325000Y-31851939D01*
X35325000Y-31648061D01*
X35285226Y-31448102D01*
X35207205Y-31259744D01*
X35093937Y-31090226D01*
X34949774Y-30946063D01*
X34780256Y-30832795D01*
X34591898Y-30754774D01*
X34391939Y-30715000D01*
X34188061Y-30715000D01*
X33988102Y-30754774D01*
X33799744Y-30832795D01*
X33630226Y-30946063D01*
X33586289Y-30990000D01*
X28290901Y-30990000D01*
X28268932Y-30948899D01*
X28089608Y-30730392D01*
X27871101Y-30551068D01*
X27738142Y-30480000D01*
X27871101Y-30408932D01*
X28089608Y-30229608D01*
X28268932Y-30011101D01*
X28290901Y-29970000D01*
X28573502Y-29970000D01*
X28730363Y-30204759D01*
X28930241Y-30404637D01*
X29165273Y-30561680D01*
X29426426Y-30669853D01*
X29703665Y-30725000D01*
X29986335Y-30725000D01*
X30263574Y-30669853D01*
X30524727Y-30561680D01*
X30759759Y-30404637D01*
X30959637Y-30204759D01*
X31116498Y-29970000D01*
X32316289Y-29970000D01*
X32360226Y-30013937D01*
X32529744Y-30127205D01*
X32718102Y-30205226D01*
X32918061Y-30245000D01*
X33121939Y-30245000D01*
X33321898Y-30205226D01*
X33510256Y-30127205D01*
X33679774Y-30013937D01*
X33823937Y-29869774D01*
X33937205Y-29700256D01*
X34015226Y-29511898D01*
X34055000Y-29311939D01*
X34055000Y-29108061D01*
X34015226Y-28908102D01*
X33937205Y-28719744D01*
X33823937Y-28550226D01*
X33679774Y-28406063D01*
X33510256Y-28292795D01*
X33321898Y-28214774D01*
X33121939Y-28175000D01*
X32918061Y-28175000D01*
X32718102Y-28214774D01*
X32529744Y-28292795D01*
X32360226Y-28406063D01*
X32316289Y-28450000D01*
X31009589Y-28450000D01*
X30959637Y-28375241D01*
X30759759Y-28175363D01*
X30524727Y-28018320D01*
X30263574Y-27910147D01*
X29986335Y-27855000D01*
X29703665Y-27855000D01*
X29426426Y-27910147D01*
X29165273Y-28018320D01*
X28930241Y-28175363D01*
X28730363Y-28375241D01*
X28680411Y-28450000D01*
X28290901Y-28450000D01*
X28268932Y-28408899D01*
X28089608Y-28190392D01*
X27871101Y-28011068D01*
X27738142Y-27940000D01*
X27871101Y-27868932D01*
X28089608Y-27689608D01*
X28268932Y-27471101D01*
X28402182Y-27221808D01*
X28484236Y-26951309D01*
X28511943Y-26670000D01*
X28484236Y-26388691D01*
X28402182Y-26118192D01*
X28268932Y-25868899D01*
X28089608Y-25650392D01*
X27871101Y-25471068D01*
X27621808Y-25337818D01*
X27351309Y-25255764D01*
X27140492Y-25235000D01*
X26199508Y-25235000D01*
X25988691Y-25255764D01*
X25718192Y-25337818D01*
X25468899Y-25471068D01*
X25250392Y-25650392D01*
X25071068Y-25868899D01*
X24937818Y-26118192D01*
X24855764Y-26388691D01*
X24828057Y-26670000D01*
X20888072Y-26670000D01*
X20888072Y-25870000D01*
X20875812Y-25745518D01*
X20839502Y-25625820D01*
X20780537Y-25515506D01*
X20701185Y-25418815D01*
X20604494Y-25339463D01*
X20494180Y-25280498D01*
X20374482Y-25244188D01*
X20250000Y-25231928D01*
X17850000Y-25231928D01*
X17725518Y-25244188D01*
X17605820Y-25280498D01*
X17495506Y-25339463D01*
X17398815Y-25418815D01*
X17319463Y-25515506D01*
X17260498Y-25625820D01*
X17224188Y-25745518D01*
X17211928Y-25870000D01*
X17211928Y-27470000D01*
X17224188Y-27594482D01*
X17260498Y-27714180D01*
X17319463Y-27824494D01*
X17398815Y-27921185D01*
X17495506Y-28000537D01*
X17605820Y-28059502D01*
X17725518Y-28095812D01*
X17743482Y-28097581D01*
X17630392Y-28190392D01*
X17451068Y-28408899D01*
X17429099Y-28450000D01*
X13918043Y-28450000D01*
X13814637Y-28295241D01*
X13614759Y-28095363D01*
X13379727Y-27938320D01*
X13118574Y-27830147D01*
X12841335Y-27775000D01*
X12558665Y-27775000D01*
X12281426Y-27830147D01*
X12258700Y-27839561D01*
X12213986Y-27825997D01*
X12102333Y-27815000D01*
X12102322Y-27815000D01*
X12065000Y-27811324D01*
X12027678Y-27815000D01*
X10743043Y-27815000D01*
X10639637Y-27660241D01*
X10439759Y-27460363D01*
X10204727Y-27303320D01*
X9943574Y-27195147D01*
X9666335Y-27140000D01*
X9383665Y-27140000D01*
X9106426Y-27195147D01*
X8845273Y-27303320D01*
X8610241Y-27460363D01*
X8410363Y-27660241D01*
X8253320Y-27895273D01*
X8145147Y-28156426D01*
X8090000Y-28433665D01*
X3334724Y-28433665D01*
X3303787Y-28224870D01*
X3208603Y-27958708D01*
X3141671Y-27833486D01*
X2897702Y-27761903D01*
X2084605Y-28575000D01*
X1725395Y-28575000D01*
X912298Y-27761903D01*
X668329Y-27833486D01*
X660000Y-27851089D01*
X660000Y-27582298D01*
X1091903Y-27582298D01*
X1905000Y-28395395D01*
X2718097Y-27582298D01*
X2646514Y-27338329D01*
X2391004Y-27217429D01*
X2116816Y-27148700D01*
X1834488Y-27134783D01*
X1554870Y-27176213D01*
X1288708Y-27271397D01*
X1163486Y-27338329D01*
X1091903Y-27582298D01*
X660000Y-27582298D01*
X660000Y-23988665D01*
X14440000Y-23988665D01*
X14440000Y-24271335D01*
X14495147Y-24548574D01*
X14603320Y-24809727D01*
X14760363Y-25044759D01*
X14960241Y-25244637D01*
X15195273Y-25401680D01*
X15456426Y-25509853D01*
X15733665Y-25565000D01*
X16016335Y-25565000D01*
X16293574Y-25509853D01*
X16554727Y-25401680D01*
X16789759Y-25244637D01*
X16989637Y-25044759D01*
X17146680Y-24809727D01*
X17254853Y-24548574D01*
X17310000Y-24271335D01*
X17310000Y-23988665D01*
X17282955Y-23852702D01*
X25301903Y-23852702D01*
X25373486Y-24096671D01*
X25628996Y-24217571D01*
X25903184Y-24286300D01*
X26185512Y-24300217D01*
X26465130Y-24258787D01*
X26731292Y-24163603D01*
X26856514Y-24096671D01*
X26928097Y-23852702D01*
X26115000Y-23039605D01*
X25301903Y-23852702D01*
X17282955Y-23852702D01*
X17254853Y-23711426D01*
X17146680Y-23450273D01*
X16989637Y-23215241D01*
X16789759Y-23015363D01*
X16662771Y-22930512D01*
X24674783Y-22930512D01*
X24716213Y-23210130D01*
X24811397Y-23476292D01*
X24878329Y-23601514D01*
X25122298Y-23673097D01*
X25935395Y-22860000D01*
X26294605Y-22860000D01*
X27107702Y-23673097D01*
X27351671Y-23601514D01*
X27472571Y-23346004D01*
X27541300Y-23071816D01*
X27555217Y-22789488D01*
X27513787Y-22509870D01*
X27418603Y-22243708D01*
X27351671Y-22118486D01*
X27107702Y-22046903D01*
X26294605Y-22860000D01*
X25935395Y-22860000D01*
X25122298Y-22046903D01*
X24878329Y-22118486D01*
X24757429Y-22373996D01*
X24688700Y-22648184D01*
X24674783Y-22930512D01*
X16662771Y-22930512D01*
X16554727Y-22858320D01*
X16293574Y-22750147D01*
X16016335Y-22695000D01*
X15733665Y-22695000D01*
X15456426Y-22750147D01*
X15195273Y-22858320D01*
X14960241Y-23015363D01*
X14760363Y-23215241D01*
X14603320Y-23450273D01*
X14495147Y-23711426D01*
X14440000Y-23988665D01*
X660000Y-23988665D01*
X660000Y-20178665D01*
X15075000Y-20178665D01*
X15075000Y-20461335D01*
X15130147Y-20738574D01*
X15238320Y-20999727D01*
X15395363Y-21234759D01*
X15595241Y-21434637D01*
X15830273Y-21591680D01*
X16091426Y-21699853D01*
X16368665Y-21755000D01*
X16651335Y-21755000D01*
X16928574Y-21699853D01*
X17189727Y-21591680D01*
X17424759Y-21434637D01*
X17624637Y-21234759D01*
X17728043Y-21080000D01*
X18377678Y-21080000D01*
X18415000Y-21083676D01*
X18452322Y-21080000D01*
X18452333Y-21080000D01*
X18563986Y-21069003D01*
X18707247Y-21025546D01*
X18839276Y-20954974D01*
X18955001Y-20860001D01*
X18978804Y-20830997D01*
X19361114Y-20448688D01*
X19543665Y-20485000D01*
X19826335Y-20485000D01*
X20103574Y-20429853D01*
X20126300Y-20420439D01*
X20171014Y-20434003D01*
X20320000Y-20448677D01*
X20357333Y-20445000D01*
X22056928Y-20445000D01*
X22056928Y-20885000D01*
X22069188Y-21009482D01*
X22105498Y-21129180D01*
X22164463Y-21239494D01*
X22243815Y-21336185D01*
X22340506Y-21415537D01*
X22450820Y-21474502D01*
X22570518Y-21510812D01*
X22695000Y-21523072D01*
X24295000Y-21523072D01*
X24419482Y-21510812D01*
X24539180Y-21474502D01*
X24649494Y-21415537D01*
X24746185Y-21336185D01*
X24825537Y-21239494D01*
X24884502Y-21129180D01*
X24920812Y-21009482D01*
X24922581Y-20991517D01*
X25015393Y-21104608D01*
X25233900Y-21283932D01*
X25483193Y-21417182D01*
X25702213Y-21483620D01*
X25498708Y-21556397D01*
X25373486Y-21623329D01*
X25301903Y-21867298D01*
X26115000Y-22680395D01*
X26928097Y-21867298D01*
X26856514Y-21623329D01*
X26601004Y-21502429D01*
X26439358Y-21461910D01*
X26586808Y-21417182D01*
X26836101Y-21283932D01*
X27054608Y-21104608D01*
X27233932Y-20886101D01*
X27302265Y-20758259D01*
X27452399Y-20987839D01*
X27650105Y-21189500D01*
X27883354Y-21348715D01*
X28143182Y-21459367D01*
X28225961Y-21476904D01*
X28448000Y-21354915D01*
X28448000Y-19812000D01*
X28428000Y-19812000D01*
X28428000Y-19558000D01*
X28448000Y-19558000D01*
X28448000Y-18015085D01*
X28702000Y-18015085D01*
X28702000Y-19558000D01*
X28722000Y-19558000D01*
X28722000Y-19812000D01*
X28702000Y-19812000D01*
X28702000Y-21354915D01*
X28924039Y-21476904D01*
X29006818Y-21459367D01*
X29266646Y-21348715D01*
X29499895Y-21189500D01*
X29697601Y-20987839D01*
X29847735Y-20758259D01*
X29916068Y-20886101D01*
X30095393Y-21104608D01*
X30313900Y-21283932D01*
X30563193Y-21417182D01*
X30741323Y-21471216D01*
X30696426Y-21480147D01*
X30435273Y-21588320D01*
X30200241Y-21745363D01*
X30000363Y-21945241D01*
X29843320Y-22180273D01*
X29735147Y-22441426D01*
X29680000Y-22718665D01*
X29680000Y-23001335D01*
X29735147Y-23278574D01*
X29843320Y-23539727D01*
X30000363Y-23774759D01*
X30200241Y-23974637D01*
X30435273Y-24131680D01*
X30696426Y-24239853D01*
X30973665Y-24295000D01*
X31256335Y-24295000D01*
X31533574Y-24239853D01*
X31794727Y-24131680D01*
X32029759Y-23974637D01*
X32229637Y-23774759D01*
X32386680Y-23539727D01*
X32494853Y-23278574D01*
X32550000Y-23001335D01*
X32550000Y-22718665D01*
X32494853Y-22441426D01*
X32386680Y-22180273D01*
X32229637Y-21945241D01*
X32029759Y-21745363D01*
X31794727Y-21588320D01*
X31533574Y-21480147D01*
X31488678Y-21471217D01*
X31666808Y-21417182D01*
X31916101Y-21283932D01*
X32134608Y-21104608D01*
X32313932Y-20886101D01*
X32447182Y-20636808D01*
X32529236Y-20366309D01*
X32550000Y-20155491D01*
X32550000Y-19214508D01*
X32529236Y-19003691D01*
X32447182Y-18733192D01*
X32313932Y-18483899D01*
X32134607Y-18265392D01*
X31916100Y-18086068D01*
X31666807Y-17952818D01*
X31396308Y-17870764D01*
X31115000Y-17843057D01*
X30833691Y-17870764D01*
X30563192Y-17952818D01*
X30313899Y-18086068D01*
X30095392Y-18265393D01*
X29916068Y-18483900D01*
X29847735Y-18611742D01*
X29697601Y-18382161D01*
X29499895Y-18180500D01*
X29266646Y-18021285D01*
X29006818Y-17910633D01*
X28924039Y-17893096D01*
X28702000Y-18015085D01*
X28448000Y-18015085D01*
X28225961Y-17893096D01*
X28143182Y-17910633D01*
X27883354Y-18021285D01*
X27650105Y-18180500D01*
X27452399Y-18382161D01*
X27302265Y-18611741D01*
X27233932Y-18483899D01*
X27054607Y-18265392D01*
X26836100Y-18086068D01*
X26586807Y-17952818D01*
X26316308Y-17870764D01*
X26035000Y-17843057D01*
X25753691Y-17870764D01*
X25483192Y-17952818D01*
X25233899Y-18086068D01*
X25015392Y-18265393D01*
X24922581Y-18378483D01*
X24920812Y-18360518D01*
X24884502Y-18240820D01*
X24825537Y-18130506D01*
X24746185Y-18033815D01*
X24649494Y-17954463D01*
X24539180Y-17895498D01*
X24419482Y-17859188D01*
X24295000Y-17846928D01*
X22695000Y-17846928D01*
X22570518Y-17859188D01*
X22450820Y-17895498D01*
X22340506Y-17954463D01*
X22243815Y-18033815D01*
X22164463Y-18130506D01*
X22105498Y-18240820D01*
X22069188Y-18360518D01*
X22056928Y-18485000D01*
X22056928Y-18925000D01*
X21120000Y-18925000D01*
X21120000Y-18908665D01*
X21064853Y-18631426D01*
X20956680Y-18370273D01*
X20799637Y-18135241D01*
X20599759Y-17935363D01*
X20364727Y-17778320D01*
X20103574Y-17670147D01*
X19826335Y-17615000D01*
X19543665Y-17615000D01*
X19266426Y-17670147D01*
X19005273Y-17778320D01*
X18770241Y-17935363D01*
X18570363Y-18135241D01*
X18413320Y-18370273D01*
X18305147Y-18631426D01*
X18250000Y-18908665D01*
X18250000Y-19191335D01*
X18286312Y-19373886D01*
X18100199Y-19560000D01*
X17728043Y-19560000D01*
X17624637Y-19405241D01*
X17424759Y-19205363D01*
X17189727Y-19048320D01*
X16928574Y-18940147D01*
X16651335Y-18885000D01*
X16368665Y-18885000D01*
X16091426Y-18940147D01*
X15830273Y-19048320D01*
X15595241Y-19205363D01*
X15395363Y-19405241D01*
X15238320Y-19640273D01*
X15130147Y-19901426D01*
X15075000Y-20178665D01*
X660000Y-20178665D01*
X660000Y-16368665D01*
X4280000Y-16368665D01*
X4280000Y-16651335D01*
X4335147Y-16928574D01*
X4443320Y-17189727D01*
X4600363Y-17424759D01*
X4800241Y-17624637D01*
X5035273Y-17781680D01*
X5296426Y-17889853D01*
X5573665Y-17945000D01*
X5856335Y-17945000D01*
X6133574Y-17889853D01*
X6394727Y-17781680D01*
X6629759Y-17624637D01*
X6829637Y-17424759D01*
X6986680Y-17189727D01*
X7094853Y-16928574D01*
X7150000Y-16651335D01*
X7150000Y-16368665D01*
X11900000Y-16368665D01*
X11900000Y-16651335D01*
X11955147Y-16928574D01*
X12063320Y-17189727D01*
X12220363Y-17424759D01*
X12420241Y-17624637D01*
X12655273Y-17781680D01*
X12916426Y-17889853D01*
X13193665Y-17945000D01*
X13476335Y-17945000D01*
X13753574Y-17889853D01*
X14014727Y-17781680D01*
X14249759Y-17624637D01*
X14449637Y-17424759D01*
X14553043Y-17270000D01*
X15806289Y-17270000D01*
X15850226Y-17313937D01*
X16019744Y-17427205D01*
X16208102Y-17505226D01*
X16408061Y-17545000D01*
X16611939Y-17545000D01*
X16811898Y-17505226D01*
X17000256Y-17427205D01*
X17169774Y-17313937D01*
X17213711Y-17270000D01*
X18981289Y-17270000D01*
X19025226Y-17313937D01*
X19194744Y-17427205D01*
X19383102Y-17505226D01*
X19583061Y-17545000D01*
X19786939Y-17545000D01*
X19986898Y-17505226D01*
X20175256Y-17427205D01*
X20344774Y-17313937D01*
X20388711Y-17270000D01*
X25331289Y-17270000D01*
X25375226Y-17313937D01*
X25544744Y-17427205D01*
X25733102Y-17505226D01*
X25933061Y-17545000D01*
X26136939Y-17545000D01*
X26336898Y-17505226D01*
X26525256Y-17427205D01*
X26694774Y-17313937D01*
X26838937Y-17169774D01*
X26952205Y-17000256D01*
X27030226Y-16811898D01*
X27070000Y-16611939D01*
X27070000Y-16408061D01*
X27030226Y-16208102D01*
X26952205Y-16019744D01*
X26838937Y-15850226D01*
X26694774Y-15706063D01*
X26525256Y-15592795D01*
X26336898Y-15514774D01*
X26136939Y-15475000D01*
X25933061Y-15475000D01*
X25733102Y-15514774D01*
X25544744Y-15592795D01*
X25375226Y-15706063D01*
X25331289Y-15750000D01*
X20388711Y-15750000D01*
X20344774Y-15706063D01*
X20175256Y-15592795D01*
X19986898Y-15514774D01*
X19831774Y-15483918D01*
X20103574Y-15429853D01*
X20364727Y-15321680D01*
X20599759Y-15164637D01*
X20799637Y-14964759D01*
X20956680Y-14729727D01*
X21064853Y-14468574D01*
X21120000Y-14191335D01*
X21120000Y-13908665D01*
X21064853Y-13631426D01*
X20956680Y-13370273D01*
X20799637Y-13135241D01*
X20599759Y-12935363D01*
X20364727Y-12778320D01*
X20103574Y-12670147D01*
X19826335Y-12615000D01*
X19543665Y-12615000D01*
X19266426Y-12670147D01*
X19005273Y-12778320D01*
X18770241Y-12935363D01*
X18570363Y-13135241D01*
X18413320Y-13370273D01*
X18305147Y-13631426D01*
X18250000Y-13908665D01*
X18250000Y-14191335D01*
X18305147Y-14468574D01*
X18413320Y-14729727D01*
X18570363Y-14964759D01*
X18770241Y-15164637D01*
X19005273Y-15321680D01*
X19266426Y-15429853D01*
X19538226Y-15483918D01*
X19383102Y-15514774D01*
X19194744Y-15592795D01*
X19025226Y-15706063D01*
X18981289Y-15750000D01*
X17213711Y-15750000D01*
X17169774Y-15706063D01*
X17000256Y-15592795D01*
X16811898Y-15514774D01*
X16611939Y-15475000D01*
X16408061Y-15475000D01*
X16208102Y-15514774D01*
X16019744Y-15592795D01*
X15850226Y-15706063D01*
X15806289Y-15750000D01*
X14553043Y-15750000D01*
X14449637Y-15595241D01*
X14249759Y-15395363D01*
X14014727Y-15238320D01*
X13753574Y-15130147D01*
X13476335Y-15075000D01*
X13193665Y-15075000D01*
X12916426Y-15130147D01*
X12655273Y-15238320D01*
X12420241Y-15395363D01*
X12220363Y-15595241D01*
X12063320Y-15830273D01*
X11955147Y-16091426D01*
X11900000Y-16368665D01*
X7150000Y-16368665D01*
X7094853Y-16091426D01*
X6986680Y-15830273D01*
X6829637Y-15595241D01*
X6629759Y-15395363D01*
X6394727Y-15238320D01*
X6133574Y-15130147D01*
X5856335Y-15075000D01*
X5573665Y-15075000D01*
X5296426Y-15130147D01*
X5035273Y-15238320D01*
X4800241Y-15395363D01*
X4600363Y-15595241D01*
X4443320Y-15830273D01*
X4335147Y-16091426D01*
X4280000Y-16368665D01*
X660000Y-16368665D01*
X660000Y-13690000D01*
X4108783Y-13690000D01*
X4133593Y-13941904D01*
X4207071Y-14184127D01*
X4326392Y-14407362D01*
X4486972Y-14603028D01*
X4682638Y-14763608D01*
X4905873Y-14882929D01*
X5148096Y-14956407D01*
X5336877Y-14975000D01*
X6463123Y-14975000D01*
X6651904Y-14956407D01*
X6894127Y-14882929D01*
X7117362Y-14763608D01*
X7313028Y-14603028D01*
X7473608Y-14407362D01*
X7592929Y-14184127D01*
X7666407Y-13941904D01*
X7691217Y-13690000D01*
X7666407Y-13438096D01*
X7592929Y-13195873D01*
X7473608Y-12972638D01*
X7313028Y-12776972D01*
X7117362Y-12616392D01*
X7029650Y-12569509D01*
X11565000Y-12569509D01*
X11565000Y-13410492D01*
X11585764Y-13621309D01*
X11667818Y-13891808D01*
X11801068Y-14141101D01*
X11980393Y-14359608D01*
X12198900Y-14538932D01*
X12448193Y-14672182D01*
X12718692Y-14754236D01*
X13000000Y-14781943D01*
X13281309Y-14754236D01*
X13551808Y-14672182D01*
X13801101Y-14538932D01*
X14019608Y-14359608D01*
X14198932Y-14141101D01*
X14332182Y-13891808D01*
X14414236Y-13621308D01*
X14435000Y-13410491D01*
X14435000Y-12569508D01*
X14433933Y-12558665D01*
X15075000Y-12558665D01*
X15075000Y-12841335D01*
X15130147Y-13118574D01*
X15238320Y-13379727D01*
X15395363Y-13614759D01*
X15595241Y-13814637D01*
X15830273Y-13971680D01*
X16091426Y-14079853D01*
X16368665Y-14135000D01*
X16651335Y-14135000D01*
X16928574Y-14079853D01*
X17189727Y-13971680D01*
X17424759Y-13814637D01*
X17624637Y-13614759D01*
X17781680Y-13379727D01*
X17889853Y-13118574D01*
X17945000Y-12841335D01*
X17945000Y-12558665D01*
X17889853Y-12281426D01*
X17781680Y-12020273D01*
X17624637Y-11785241D01*
X17424759Y-11585363D01*
X17189727Y-11428320D01*
X16928574Y-11320147D01*
X16651335Y-11265000D01*
X16368665Y-11265000D01*
X16091426Y-11320147D01*
X15830273Y-11428320D01*
X15595241Y-11585363D01*
X15395363Y-11785241D01*
X15238320Y-12020273D01*
X15130147Y-12281426D01*
X15075000Y-12558665D01*
X14433933Y-12558665D01*
X14414236Y-12358691D01*
X14332182Y-12088192D01*
X14198932Y-11838899D01*
X14019607Y-11620392D01*
X13801100Y-11441068D01*
X13551807Y-11307818D01*
X13281308Y-11225764D01*
X13000000Y-11198057D01*
X12718691Y-11225764D01*
X12448192Y-11307818D01*
X12198899Y-11441068D01*
X11980392Y-11620393D01*
X11801068Y-11838900D01*
X11667818Y-12088193D01*
X11585764Y-12358692D01*
X11565000Y-12569509D01*
X7029650Y-12569509D01*
X6894127Y-12497071D01*
X6651904Y-12423593D01*
X6463123Y-12405000D01*
X5336877Y-12405000D01*
X5148096Y-12423593D01*
X4905873Y-12497071D01*
X4682638Y-12616392D01*
X4486972Y-12776972D01*
X4326392Y-12972638D01*
X4207071Y-13195873D01*
X4133593Y-13438096D01*
X4108783Y-13690000D01*
X660000Y-13690000D01*
X660000Y-10227092D01*
X775105Y-10344500D01*
X1008354Y-10503715D01*
X1268182Y-10614367D01*
X1350961Y-10631904D01*
X1573000Y-10509915D01*
X1573000Y-9017000D01*
X1827000Y-9017000D01*
X1827000Y-10509915D01*
X2049039Y-10631904D01*
X2131818Y-10614367D01*
X2391646Y-10503715D01*
X2624895Y-10344500D01*
X2822601Y-10142839D01*
X2977166Y-9906483D01*
X2986741Y-9882702D01*
X17681903Y-9882702D01*
X17753486Y-10126671D01*
X18008996Y-10247571D01*
X18283184Y-10316300D01*
X18565512Y-10330217D01*
X18845130Y-10288787D01*
X19111292Y-10193603D01*
X19236514Y-10126671D01*
X19308097Y-9882702D01*
X18495000Y-9069605D01*
X17681903Y-9882702D01*
X2986741Y-9882702D01*
X3082650Y-9644514D01*
X3135000Y-9367000D01*
X3135000Y-9017000D01*
X1827000Y-9017000D01*
X1573000Y-9017000D01*
X1553000Y-9017000D01*
X1553000Y-8960512D01*
X17054783Y-8960512D01*
X17096213Y-9240130D01*
X17191397Y-9506292D01*
X17258329Y-9631514D01*
X17502298Y-9703097D01*
X18315395Y-8890000D01*
X18674605Y-8890000D01*
X19487702Y-9703097D01*
X19731671Y-9631514D01*
X19852571Y-9376004D01*
X19921300Y-9101816D01*
X19935217Y-8819488D01*
X19924724Y-8748665D01*
X22060000Y-8748665D01*
X22060000Y-9031335D01*
X22115147Y-9308574D01*
X22223320Y-9569727D01*
X22380363Y-9804759D01*
X22580241Y-10004637D01*
X22815273Y-10161680D01*
X23076426Y-10269853D01*
X23121322Y-10278783D01*
X22943192Y-10332818D01*
X22693899Y-10466068D01*
X22475392Y-10645393D01*
X22296068Y-10863900D01*
X22162818Y-11113193D01*
X22080764Y-11383692D01*
X22060000Y-11594509D01*
X22060000Y-12535492D01*
X22080764Y-12746309D01*
X22162818Y-13016808D01*
X22296068Y-13266101D01*
X22475393Y-13484608D01*
X22693900Y-13663932D01*
X22886437Y-13766845D01*
X22835226Y-13801063D01*
X22691063Y-13945226D01*
X22577795Y-14114744D01*
X22499774Y-14303102D01*
X22460000Y-14503061D01*
X22460000Y-14706939D01*
X22499774Y-14906898D01*
X22577795Y-15095256D01*
X22691063Y-15264774D01*
X22835226Y-15408937D01*
X23004744Y-15522205D01*
X23193102Y-15600226D01*
X23393061Y-15640000D01*
X23596939Y-15640000D01*
X23796898Y-15600226D01*
X23985256Y-15522205D01*
X24154774Y-15408937D01*
X24198711Y-15365000D01*
X32316289Y-15365000D01*
X32360226Y-15408937D01*
X32529744Y-15522205D01*
X32718102Y-15600226D01*
X32918061Y-15640000D01*
X33121939Y-15640000D01*
X33321898Y-15600226D01*
X33510256Y-15522205D01*
X33679774Y-15408937D01*
X33823937Y-15264774D01*
X33937205Y-15095256D01*
X34015226Y-14906898D01*
X34055000Y-14706939D01*
X34055000Y-14503061D01*
X34015226Y-14303102D01*
X33937205Y-14114744D01*
X33823937Y-13945226D01*
X33679774Y-13801063D01*
X33510256Y-13687795D01*
X33321898Y-13609774D01*
X33121939Y-13570000D01*
X32918061Y-13570000D01*
X32718102Y-13609774D01*
X32529744Y-13687795D01*
X32360226Y-13801063D01*
X32316289Y-13845000D01*
X31520229Y-13845000D01*
X31546818Y-13839367D01*
X31806646Y-13728715D01*
X32039895Y-13569500D01*
X32237601Y-13367839D01*
X32392166Y-13131483D01*
X32497650Y-12869514D01*
X32550000Y-12592000D01*
X32550000Y-12192000D01*
X31242000Y-12192000D01*
X31242000Y-12212000D01*
X30988000Y-12212000D01*
X30988000Y-12192000D01*
X30968000Y-12192000D01*
X30968000Y-11938000D01*
X30988000Y-11938000D01*
X30988000Y-10395085D01*
X31242000Y-10395085D01*
X31242000Y-11938000D01*
X32550000Y-11938000D01*
X32550000Y-11538000D01*
X32497650Y-11260486D01*
X32392166Y-10998517D01*
X32237601Y-10762161D01*
X32039895Y-10560500D01*
X31806646Y-10401285D01*
X31546818Y-10290633D01*
X31464039Y-10273096D01*
X31242000Y-10395085D01*
X30988000Y-10395085D01*
X30765961Y-10273096D01*
X30683182Y-10290633D01*
X30423354Y-10401285D01*
X30190105Y-10560500D01*
X29992399Y-10762161D01*
X29842265Y-10991741D01*
X29773932Y-10863899D01*
X29594607Y-10645392D01*
X29376100Y-10466068D01*
X29126807Y-10332818D01*
X28856308Y-10250764D01*
X28575000Y-10223057D01*
X28293691Y-10250764D01*
X28023192Y-10332818D01*
X27773899Y-10466068D01*
X27555392Y-10645393D01*
X27376068Y-10863900D01*
X27305000Y-10996858D01*
X27233932Y-10863899D01*
X27054607Y-10645392D01*
X26836100Y-10466068D01*
X26586807Y-10332818D01*
X26316308Y-10250764D01*
X26035000Y-10223057D01*
X25753691Y-10250764D01*
X25483192Y-10332818D01*
X25233899Y-10466068D01*
X25015392Y-10645393D01*
X24836068Y-10863900D01*
X24765000Y-10996858D01*
X24693932Y-10863899D01*
X24514607Y-10645392D01*
X24296100Y-10466068D01*
X24046807Y-10332818D01*
X23868677Y-10278784D01*
X23913574Y-10269853D01*
X24174727Y-10161680D01*
X24409759Y-10004637D01*
X24609637Y-9804759D01*
X24766680Y-9569727D01*
X24874853Y-9308574D01*
X24930000Y-9031335D01*
X24930000Y-8788061D01*
X27540000Y-8788061D01*
X27540000Y-8991939D01*
X27579774Y-9191898D01*
X27657795Y-9380256D01*
X27771063Y-9549774D01*
X27915226Y-9693937D01*
X28084744Y-9807205D01*
X28273102Y-9885226D01*
X28473061Y-9925000D01*
X28676939Y-9925000D01*
X28876898Y-9885226D01*
X29065256Y-9807205D01*
X29234774Y-9693937D01*
X29278711Y-9650000D01*
X33586289Y-9650000D01*
X33630226Y-9693937D01*
X33799744Y-9807205D01*
X33988102Y-9885226D01*
X34188061Y-9925000D01*
X34391939Y-9925000D01*
X34591898Y-9885226D01*
X34780256Y-9807205D01*
X34949774Y-9693937D01*
X35093937Y-9549774D01*
X35207205Y-9380256D01*
X35285226Y-9191898D01*
X35325000Y-8991939D01*
X35325000Y-8788061D01*
X35285226Y-8588102D01*
X35207205Y-8399744D01*
X35093937Y-8230226D01*
X34949774Y-8086063D01*
X34780256Y-7972795D01*
X34591898Y-7894774D01*
X34391939Y-7855000D01*
X34188061Y-7855000D01*
X33988102Y-7894774D01*
X33799744Y-7972795D01*
X33630226Y-8086063D01*
X33586289Y-8130000D01*
X29278711Y-8130000D01*
X29234774Y-8086063D01*
X29065256Y-7972795D01*
X28876898Y-7894774D01*
X28676939Y-7855000D01*
X28473061Y-7855000D01*
X28273102Y-7894774D01*
X28084744Y-7972795D01*
X27915226Y-8086063D01*
X27771063Y-8230226D01*
X27657795Y-8399744D01*
X27579774Y-8588102D01*
X27540000Y-8788061D01*
X24930000Y-8788061D01*
X24930000Y-8748665D01*
X24874853Y-8471426D01*
X24766680Y-8210273D01*
X24609637Y-7975241D01*
X24409759Y-7775363D01*
X24174727Y-7618320D01*
X23913574Y-7510147D01*
X23636335Y-7455000D01*
X23353665Y-7455000D01*
X23076426Y-7510147D01*
X22815273Y-7618320D01*
X22580241Y-7775363D01*
X22380363Y-7975241D01*
X22223320Y-8210273D01*
X22115147Y-8471426D01*
X22060000Y-8748665D01*
X19924724Y-8748665D01*
X19893787Y-8539870D01*
X19798603Y-8273708D01*
X19731671Y-8148486D01*
X19487702Y-8076903D01*
X18674605Y-8890000D01*
X18315395Y-8890000D01*
X17502298Y-8076903D01*
X17258329Y-8148486D01*
X17137429Y-8403996D01*
X17068700Y-8678184D01*
X17054783Y-8960512D01*
X1553000Y-8960512D01*
X1553000Y-8763000D01*
X1573000Y-8763000D01*
X1573000Y-7270085D01*
X1827000Y-7270085D01*
X1827000Y-8763000D01*
X3135000Y-8763000D01*
X3135000Y-8413000D01*
X3082650Y-8135486D01*
X2986742Y-7897298D01*
X17681903Y-7897298D01*
X18495000Y-8710395D01*
X19308097Y-7897298D01*
X19236514Y-7653329D01*
X18981004Y-7532429D01*
X18706816Y-7463700D01*
X18424488Y-7449783D01*
X18144870Y-7491213D01*
X17878708Y-7586397D01*
X17753486Y-7653329D01*
X17681903Y-7897298D01*
X2986742Y-7897298D01*
X2977166Y-7873517D01*
X2822601Y-7637161D01*
X2624895Y-7435500D01*
X2391646Y-7276285D01*
X2131818Y-7165633D01*
X2049039Y-7148096D01*
X1827000Y-7270085D01*
X1573000Y-7270085D01*
X1350961Y-7148096D01*
X1268182Y-7165633D01*
X1008354Y-7276285D01*
X775105Y-7435500D01*
X660000Y-7552908D01*
X660000Y-6290000D01*
X6808057Y-6290000D01*
X6835764Y-6571309D01*
X6917818Y-6841808D01*
X7051068Y-7091101D01*
X7230392Y-7309608D01*
X7448899Y-7488932D01*
X7698192Y-7622182D01*
X7968691Y-7704236D01*
X8179508Y-7725000D01*
X9020492Y-7725000D01*
X9231309Y-7704236D01*
X9501808Y-7622182D01*
X9751101Y-7488932D01*
X9969608Y-7309608D01*
X10148932Y-7091101D01*
X10282182Y-6841808D01*
X10364236Y-6571309D01*
X10391943Y-6290000D01*
X10364236Y-6008691D01*
X10282182Y-5738192D01*
X10194241Y-5573665D01*
X22060000Y-5573665D01*
X22060000Y-5856335D01*
X22115147Y-6133574D01*
X22223320Y-6394727D01*
X22380363Y-6629759D01*
X22580241Y-6829637D01*
X22815273Y-6986680D01*
X23076426Y-7094853D01*
X23353665Y-7150000D01*
X23636335Y-7150000D01*
X23913574Y-7094853D01*
X24174727Y-6986680D01*
X24409759Y-6829637D01*
X24609637Y-6629759D01*
X24713043Y-6475000D01*
X25331289Y-6475000D01*
X25375226Y-6518937D01*
X25544744Y-6632205D01*
X25733102Y-6710226D01*
X25933061Y-6750000D01*
X26136939Y-6750000D01*
X26336898Y-6710226D01*
X26525256Y-6632205D01*
X26694774Y-6518937D01*
X26838937Y-6374774D01*
X26952205Y-6205256D01*
X27030226Y-6016898D01*
X27070000Y-5816939D01*
X27070000Y-5613061D01*
X27540000Y-5613061D01*
X27540000Y-5816939D01*
X27579774Y-6016898D01*
X27657795Y-6205256D01*
X27771063Y-6374774D01*
X27915226Y-6518937D01*
X28084744Y-6632205D01*
X28273102Y-6710226D01*
X28473061Y-6750000D01*
X28676939Y-6750000D01*
X28876898Y-6710226D01*
X29065256Y-6632205D01*
X29234774Y-6518937D01*
X29278711Y-6475000D01*
X29896957Y-6475000D01*
X30000363Y-6629759D01*
X30200241Y-6829637D01*
X30435273Y-6986680D01*
X30696426Y-7094853D01*
X30973665Y-7150000D01*
X31256335Y-7150000D01*
X31533574Y-7094853D01*
X31794727Y-6986680D01*
X32029759Y-6829637D01*
X32229637Y-6629759D01*
X32386680Y-6394727D01*
X32494853Y-6133574D01*
X32550000Y-5856335D01*
X32550000Y-5573665D01*
X32494853Y-5296426D01*
X32386680Y-5035273D01*
X32229637Y-4800241D01*
X32029759Y-4600363D01*
X31794727Y-4443320D01*
X31533574Y-4335147D01*
X31256335Y-4280000D01*
X30973665Y-4280000D01*
X30696426Y-4335147D01*
X30435273Y-4443320D01*
X30200241Y-4600363D01*
X30000363Y-4800241D01*
X29896957Y-4955000D01*
X29278711Y-4955000D01*
X29234774Y-4911063D01*
X29065256Y-4797795D01*
X28876898Y-4719774D01*
X28676939Y-4680000D01*
X28473061Y-4680000D01*
X28273102Y-4719774D01*
X28084744Y-4797795D01*
X27915226Y-4911063D01*
X27771063Y-5055226D01*
X27657795Y-5224744D01*
X27579774Y-5413102D01*
X27540000Y-5613061D01*
X27070000Y-5613061D01*
X27030226Y-5413102D01*
X26952205Y-5224744D01*
X26838937Y-5055226D01*
X26694774Y-4911063D01*
X26525256Y-4797795D01*
X26336898Y-4719774D01*
X26136939Y-4680000D01*
X25933061Y-4680000D01*
X25733102Y-4719774D01*
X25544744Y-4797795D01*
X25375226Y-4911063D01*
X25331289Y-4955000D01*
X24713043Y-4955000D01*
X24609637Y-4800241D01*
X24409759Y-4600363D01*
X24174727Y-4443320D01*
X23913574Y-4335147D01*
X23636335Y-4280000D01*
X23353665Y-4280000D01*
X23076426Y-4335147D01*
X22815273Y-4443320D01*
X22580241Y-4600363D01*
X22380363Y-4800241D01*
X22223320Y-5035273D01*
X22115147Y-5296426D01*
X22060000Y-5573665D01*
X10194241Y-5573665D01*
X10148932Y-5488899D01*
X9969608Y-5270392D01*
X9751101Y-5091068D01*
X9533953Y-4975000D01*
X10163123Y-4975000D01*
X10351904Y-4956407D01*
X10594127Y-4882929D01*
X10817362Y-4763608D01*
X11013028Y-4603028D01*
X11173608Y-4407362D01*
X11292929Y-4184127D01*
X11366407Y-3941904D01*
X11391217Y-3690000D01*
X11366407Y-3438096D01*
X11292929Y-3195873D01*
X11173608Y-2972638D01*
X11013028Y-2776972D01*
X10817362Y-2616392D01*
X10594127Y-2497071D01*
X10351904Y-2423593D01*
X10163123Y-2405000D01*
X9036877Y-2405000D01*
X8848096Y-2423593D01*
X8605873Y-2497071D01*
X8382638Y-2616392D01*
X8186972Y-2776972D01*
X8026392Y-2972638D01*
X7907071Y-3195873D01*
X7833593Y-3438096D01*
X7808783Y-3690000D01*
X7833593Y-3941904D01*
X7907071Y-4184127D01*
X8026392Y-4407362D01*
X8186972Y-4603028D01*
X8382638Y-4763608D01*
X8553621Y-4855000D01*
X8179508Y-4855000D01*
X7968691Y-4875764D01*
X7698192Y-4957818D01*
X7448899Y-5091068D01*
X7230392Y-5270392D01*
X7051068Y-5488899D01*
X6917818Y-5738192D01*
X6835764Y-6008691D01*
X6808057Y-6290000D01*
X660000Y-6290000D01*
X660000Y-2398665D01*
X23330000Y-2398665D01*
X23330000Y-2681335D01*
X23385147Y-2958574D01*
X23493320Y-3219727D01*
X23650363Y-3454759D01*
X23850241Y-3654637D01*
X24085273Y-3811680D01*
X24346426Y-3919853D01*
X24623665Y-3975000D01*
X24906335Y-3975000D01*
X25183574Y-3919853D01*
X25444727Y-3811680D01*
X25679759Y-3654637D01*
X25879637Y-3454759D01*
X26036680Y-3219727D01*
X26144853Y-2958574D01*
X26200000Y-2681335D01*
X26200000Y-2398665D01*
X28330000Y-2398665D01*
X28330000Y-2681335D01*
X28385147Y-2958574D01*
X28493320Y-3219727D01*
X28650363Y-3454759D01*
X28850241Y-3654637D01*
X29085273Y-3811680D01*
X29346426Y-3919853D01*
X29623665Y-3975000D01*
X29906335Y-3975000D01*
X30183574Y-3919853D01*
X30444727Y-3811680D01*
X30679759Y-3654637D01*
X30879637Y-3454759D01*
X31036680Y-3219727D01*
X31144853Y-2958574D01*
X31200000Y-2681335D01*
X31200000Y-2398665D01*
X31144853Y-2121426D01*
X31036680Y-1860273D01*
X30879637Y-1625241D01*
X30679759Y-1425363D01*
X30444727Y-1268320D01*
X30183574Y-1160147D01*
X29906335Y-1105000D01*
X29623665Y-1105000D01*
X29346426Y-1160147D01*
X29085273Y-1268320D01*
X28850241Y-1425363D01*
X28650363Y-1625241D01*
X28493320Y-1860273D01*
X28385147Y-2121426D01*
X28330000Y-2398665D01*
X26200000Y-2398665D01*
X26144853Y-2121426D01*
X26036680Y-1860273D01*
X25879637Y-1625241D01*
X25679759Y-1425363D01*
X25444727Y-1268320D01*
X25183574Y-1160147D01*
X24906335Y-1105000D01*
X24623665Y-1105000D01*
X24346426Y-1160147D01*
X24085273Y-1268320D01*
X23850241Y-1425363D01*
X23650363Y-1625241D01*
X23493320Y-1860273D01*
X23385147Y-2121426D01*
X23330000Y-2398665D01*
X660000Y-2398665D01*
X660000Y-660000D01*
X35535000Y-660000D01*
X35535001Y-71730000D01*
G04 #@! TA.AperFunction,Conductor*
D26*
G36*
X35535001Y-71730000D02*
G01*
X26702419Y-71730000D01*
X26670000Y-71726807D01*
X26637581Y-71730000D01*
X26540617Y-71739550D01*
X26416207Y-71777290D01*
X26301550Y-71838575D01*
X26201052Y-71921052D01*
X26118575Y-72021550D01*
X26057290Y-72136207D01*
X26019550Y-72260617D01*
X26006807Y-72390000D01*
X26010000Y-72422419D01*
X26010000Y-77385318D01*
X25833158Y-77312068D01*
X25546260Y-77255000D01*
X25253740Y-77255000D01*
X24966842Y-77312068D01*
X24696589Y-77424010D01*
X24453368Y-77586525D01*
X24266285Y-77773608D01*
X24198405Y-77646614D01*
X24087962Y-77512038D01*
X23953386Y-77401595D01*
X23799850Y-77319528D01*
X23633254Y-77268992D01*
X23460000Y-77251928D01*
X22260000Y-77251928D01*
X22086746Y-77268992D01*
X21920150Y-77319528D01*
X21766614Y-77401595D01*
X21632038Y-77512038D01*
X21521595Y-77646614D01*
X21439528Y-77800150D01*
X21388992Y-77966746D01*
X21387687Y-77980000D01*
X14038711Y-77980000D01*
X13994774Y-77936063D01*
X13825256Y-77822795D01*
X13636898Y-77744774D01*
X13436939Y-77705000D01*
X13233061Y-77705000D01*
X13033102Y-77744774D01*
X12844744Y-77822795D01*
X12675226Y-77936063D01*
X12531063Y-78080226D01*
X12417795Y-78249744D01*
X12339774Y-78438102D01*
X12300000Y-78638061D01*
X12300000Y-78841939D01*
X12339774Y-79041898D01*
X12417795Y-79230256D01*
X12531063Y-79399774D01*
X12675226Y-79543937D01*
X12844744Y-79657205D01*
X13033102Y-79735226D01*
X13233061Y-79775000D01*
X13436939Y-79775000D01*
X13636898Y-79735226D01*
X13825256Y-79657205D01*
X13994774Y-79543937D01*
X14038711Y-79500000D01*
X21387687Y-79500000D01*
X21388992Y-79513254D01*
X21439528Y-79679850D01*
X21521595Y-79833386D01*
X21632038Y-79967962D01*
X21766614Y-80078405D01*
X21920150Y-80160472D01*
X22029293Y-80193580D01*
X22011208Y-80251603D01*
X22860000Y-81100395D01*
X23708792Y-80251603D01*
X23690707Y-80193580D01*
X23799850Y-80160472D01*
X23953386Y-80078405D01*
X24087962Y-79967962D01*
X24198405Y-79833386D01*
X24266285Y-79706392D01*
X24453368Y-79893475D01*
X24626729Y-80009311D01*
X24551208Y-80251603D01*
X25400000Y-81100395D01*
X25414143Y-81086253D01*
X25593748Y-81265858D01*
X25579605Y-81280000D01*
X25593748Y-81294143D01*
X25414143Y-81473748D01*
X25400000Y-81459605D01*
X24551208Y-82308397D01*
X24626514Y-82550000D01*
X24551208Y-82791603D01*
X25400000Y-83640395D01*
X25414143Y-83626253D01*
X25593748Y-83805858D01*
X25579605Y-83820000D01*
X25593748Y-83834143D01*
X25414143Y-84013748D01*
X25400000Y-83999605D01*
X24551208Y-84848397D01*
X24626514Y-85090000D01*
X24551208Y-85331603D01*
X25400000Y-86180395D01*
X25414143Y-86166253D01*
X25593748Y-86345858D01*
X25579605Y-86360000D01*
X25593748Y-86374143D01*
X25414143Y-86553748D01*
X25400000Y-86539605D01*
X24551208Y-87388397D01*
X24626729Y-87630689D01*
X24453368Y-87746525D01*
X24246525Y-87953368D01*
X24130000Y-88127760D01*
X24013475Y-87953368D01*
X23806632Y-87746525D01*
X23633271Y-87630689D01*
X23708792Y-87388397D01*
X22860000Y-86539605D01*
X22011208Y-87388397D01*
X22086729Y-87630689D01*
X21913368Y-87746525D01*
X21706525Y-87953368D01*
X21581822Y-88140000D01*
X16578711Y-88140000D01*
X16534774Y-88096063D01*
X16365256Y-87982795D01*
X16176898Y-87904774D01*
X15976939Y-87865000D01*
X15773061Y-87865000D01*
X15573102Y-87904774D01*
X15384744Y-87982795D01*
X15215226Y-88096063D01*
X15071063Y-88240226D01*
X14957795Y-88409744D01*
X14879774Y-88598102D01*
X14840000Y-88798061D01*
X14840000Y-89001939D01*
X14879774Y-89201898D01*
X14957795Y-89390256D01*
X15071063Y-89559774D01*
X15215226Y-89703937D01*
X15384744Y-89817205D01*
X15573102Y-89895226D01*
X15773061Y-89935000D01*
X15976939Y-89935000D01*
X16176898Y-89895226D01*
X16365256Y-89817205D01*
X16534774Y-89703937D01*
X16578711Y-89660000D01*
X21581822Y-89660000D01*
X21706525Y-89846632D01*
X21913368Y-90053475D01*
X22087760Y-90170000D01*
X21913368Y-90286525D01*
X21706525Y-90493368D01*
X21544010Y-90736589D01*
X21432068Y-91006842D01*
X21375000Y-91293740D01*
X21375000Y-91586260D01*
X21432068Y-91873158D01*
X21544010Y-92143411D01*
X21706525Y-92386632D01*
X21913368Y-92593475D01*
X22087760Y-92710000D01*
X21913368Y-92826525D01*
X21706525Y-93033368D01*
X21544010Y-93276589D01*
X21432068Y-93546842D01*
X21375000Y-93833740D01*
X21375000Y-94126260D01*
X21432068Y-94413158D01*
X21544010Y-94683411D01*
X21706525Y-94926632D01*
X21913368Y-95133475D01*
X22087760Y-95250000D01*
X21913368Y-95366525D01*
X21706525Y-95573368D01*
X21544010Y-95816589D01*
X21432068Y-96086842D01*
X21375000Y-96373740D01*
X21375000Y-96666260D01*
X21432068Y-96953158D01*
X21544010Y-97223411D01*
X21706525Y-97466632D01*
X21913368Y-97673475D01*
X22156589Y-97835990D01*
X22426842Y-97947932D01*
X22713740Y-98005000D01*
X23006260Y-98005000D01*
X23293158Y-97947932D01*
X23563411Y-97835990D01*
X23806632Y-97673475D01*
X24013475Y-97466632D01*
X24130000Y-97292240D01*
X24246525Y-97466632D01*
X24453368Y-97673475D01*
X24696589Y-97835990D01*
X24966842Y-97947932D01*
X25253740Y-98005000D01*
X25546260Y-98005000D01*
X25833158Y-97947932D01*
X26010001Y-97874682D01*
X26010001Y-100940000D01*
X660000Y-100940000D01*
X660000Y-97510000D01*
X4108783Y-97510000D01*
X4133593Y-97761904D01*
X4207071Y-98004127D01*
X4326392Y-98227362D01*
X4486972Y-98423028D01*
X4682638Y-98583608D01*
X4905873Y-98702929D01*
X5148096Y-98776407D01*
X5336877Y-98795000D01*
X6463123Y-98795000D01*
X6651904Y-98776407D01*
X6894127Y-98702929D01*
X7117362Y-98583608D01*
X7313028Y-98423028D01*
X7473608Y-98227362D01*
X7592929Y-98004127D01*
X7666407Y-97761904D01*
X7691217Y-97510000D01*
X7666407Y-97258096D01*
X7592929Y-97015873D01*
X7473608Y-96792638D01*
X7313028Y-96596972D01*
X7117362Y-96436392D01*
X7029650Y-96389509D01*
X11565000Y-96389509D01*
X11565000Y-97230492D01*
X11585764Y-97441309D01*
X11667818Y-97711808D01*
X11801068Y-97961101D01*
X11980393Y-98179608D01*
X12198900Y-98358932D01*
X12448193Y-98492182D01*
X12718692Y-98574236D01*
X13000000Y-98601943D01*
X13281309Y-98574236D01*
X13551808Y-98492182D01*
X13801101Y-98358932D01*
X14019608Y-98179608D01*
X14198932Y-97961101D01*
X14332182Y-97711808D01*
X14414236Y-97441308D01*
X14435000Y-97230491D01*
X14435000Y-96389508D01*
X14414236Y-96178691D01*
X14332182Y-95908192D01*
X14198932Y-95658899D01*
X14019607Y-95440392D01*
X13801100Y-95261068D01*
X13551807Y-95127818D01*
X13281308Y-95045764D01*
X13000000Y-95018057D01*
X12718691Y-95045764D01*
X12448192Y-95127818D01*
X12198899Y-95261068D01*
X11980392Y-95440393D01*
X11801068Y-95658900D01*
X11667818Y-95908193D01*
X11585764Y-96178692D01*
X11565000Y-96389509D01*
X7029650Y-96389509D01*
X6894127Y-96317071D01*
X6651904Y-96243593D01*
X6463123Y-96225000D01*
X5336877Y-96225000D01*
X5148096Y-96243593D01*
X4905873Y-96317071D01*
X4682638Y-96436392D01*
X4486972Y-96596972D01*
X4326392Y-96792638D01*
X4207071Y-97015873D01*
X4133593Y-97258096D01*
X4108783Y-97510000D01*
X660000Y-97510000D01*
X660000Y-94047092D01*
X775105Y-94164500D01*
X1008354Y-94323715D01*
X1268182Y-94434367D01*
X1350961Y-94451904D01*
X1573000Y-94329915D01*
X1573000Y-92837000D01*
X1827000Y-92837000D01*
X1827000Y-94329915D01*
X2049039Y-94451904D01*
X2131818Y-94434367D01*
X2391646Y-94323715D01*
X2624895Y-94164500D01*
X2822601Y-93962839D01*
X2977166Y-93726483D01*
X3082650Y-93464514D01*
X3135000Y-93187000D01*
X3135000Y-92837000D01*
X1827000Y-92837000D01*
X1573000Y-92837000D01*
X1553000Y-92837000D01*
X1553000Y-92583000D01*
X1573000Y-92583000D01*
X1573000Y-91090085D01*
X1827000Y-91090085D01*
X1827000Y-92583000D01*
X3135000Y-92583000D01*
X3135000Y-92233000D01*
X3082650Y-91955486D01*
X2977166Y-91693517D01*
X2822601Y-91457161D01*
X2624895Y-91255500D01*
X2391646Y-91096285D01*
X2131818Y-90985633D01*
X2049039Y-90968096D01*
X1827000Y-91090085D01*
X1573000Y-91090085D01*
X1350961Y-90968096D01*
X1268182Y-90985633D01*
X1008354Y-91096285D01*
X775105Y-91255500D01*
X660000Y-91372908D01*
X660000Y-90110000D01*
X6808057Y-90110000D01*
X6835764Y-90391309D01*
X6917818Y-90661808D01*
X7051068Y-90911101D01*
X7230392Y-91129608D01*
X7448899Y-91308932D01*
X7698192Y-91442182D01*
X7968691Y-91524236D01*
X8179508Y-91545000D01*
X9020492Y-91545000D01*
X9231309Y-91524236D01*
X9501808Y-91442182D01*
X9751101Y-91308932D01*
X9969608Y-91129608D01*
X10148932Y-90911101D01*
X10282182Y-90661808D01*
X10364236Y-90391309D01*
X10391943Y-90110000D01*
X10364236Y-89828691D01*
X10282182Y-89558192D01*
X10148932Y-89308899D01*
X9969608Y-89090392D01*
X9751101Y-88911068D01*
X9533953Y-88795000D01*
X10163123Y-88795000D01*
X10351904Y-88776407D01*
X10594127Y-88702929D01*
X10817362Y-88583608D01*
X11013028Y-88423028D01*
X11173608Y-88227362D01*
X11292929Y-88004127D01*
X11366407Y-87761904D01*
X11391217Y-87510000D01*
X11366407Y-87258096D01*
X11292929Y-87015873D01*
X11173608Y-86792638D01*
X11013028Y-86596972D01*
X10817362Y-86436392D01*
X10802656Y-86428531D01*
X21369389Y-86428531D01*
X21411401Y-86718019D01*
X21509081Y-86993747D01*
X21582528Y-87131157D01*
X21831603Y-87208792D01*
X22680395Y-86360000D01*
X23039605Y-86360000D01*
X23888397Y-87208792D01*
X24130000Y-87133486D01*
X24371603Y-87208792D01*
X25220395Y-86360000D01*
X24371603Y-85511208D01*
X24130000Y-85586514D01*
X23888397Y-85511208D01*
X23039605Y-86360000D01*
X22680395Y-86360000D01*
X21831603Y-85511208D01*
X21582528Y-85588843D01*
X21456629Y-85852883D01*
X21384661Y-86136411D01*
X21369389Y-86428531D01*
X10802656Y-86428531D01*
X10594127Y-86317071D01*
X10351904Y-86243593D01*
X10163123Y-86225000D01*
X9036877Y-86225000D01*
X8848096Y-86243593D01*
X8605873Y-86317071D01*
X8382638Y-86436392D01*
X8186972Y-86596972D01*
X8026392Y-86792638D01*
X7907071Y-87015873D01*
X7833593Y-87258096D01*
X7808783Y-87510000D01*
X7833593Y-87761904D01*
X7907071Y-88004127D01*
X8026392Y-88227362D01*
X8186972Y-88423028D01*
X8382638Y-88583608D01*
X8553621Y-88675000D01*
X8179508Y-88675000D01*
X7968691Y-88695764D01*
X7698192Y-88777818D01*
X7448899Y-88911068D01*
X7230392Y-89090392D01*
X7051068Y-89308899D01*
X6917818Y-89558192D01*
X6835764Y-89828691D01*
X6808057Y-90110000D01*
X660000Y-90110000D01*
X660000Y-84848397D01*
X22011208Y-84848397D01*
X22086514Y-85090000D01*
X22011208Y-85331603D01*
X22860000Y-86180395D01*
X23708792Y-85331603D01*
X23633486Y-85090000D01*
X23708792Y-84848397D01*
X22860000Y-83999605D01*
X22011208Y-84848397D01*
X660000Y-84848397D01*
X660000Y-82408665D01*
X3645000Y-82408665D01*
X3645000Y-82691335D01*
X3700147Y-82968574D01*
X3808320Y-83229727D01*
X3965363Y-83464759D01*
X4165241Y-83664637D01*
X4400273Y-83821680D01*
X4661426Y-83929853D01*
X4938665Y-83985000D01*
X5221335Y-83985000D01*
X5498574Y-83929853D01*
X5759727Y-83821680D01*
X5994759Y-83664637D01*
X6194637Y-83464759D01*
X6351680Y-83229727D01*
X6459853Y-82968574D01*
X6515000Y-82691335D01*
X6515000Y-82408665D01*
X11265000Y-82408665D01*
X11265000Y-82691335D01*
X11320147Y-82968574D01*
X11428320Y-83229727D01*
X11585363Y-83464759D01*
X11785241Y-83664637D01*
X12020273Y-83821680D01*
X12281426Y-83929853D01*
X12558665Y-83985000D01*
X12841335Y-83985000D01*
X13118574Y-83929853D01*
X13218334Y-83888531D01*
X21369389Y-83888531D01*
X21411401Y-84178019D01*
X21509081Y-84453747D01*
X21582528Y-84591157D01*
X21831603Y-84668792D01*
X22680395Y-83820000D01*
X23039605Y-83820000D01*
X23888397Y-84668792D01*
X24130000Y-84593486D01*
X24371603Y-84668792D01*
X25220395Y-83820000D01*
X24371603Y-82971208D01*
X24130000Y-83046514D01*
X23888397Y-82971208D01*
X23039605Y-83820000D01*
X22680395Y-83820000D01*
X21831603Y-82971208D01*
X21582528Y-83048843D01*
X21456629Y-83312883D01*
X21384661Y-83596411D01*
X21369389Y-83888531D01*
X13218334Y-83888531D01*
X13379727Y-83821680D01*
X13614759Y-83664637D01*
X13814637Y-83464759D01*
X13971680Y-83229727D01*
X14079853Y-82968574D01*
X14135000Y-82691335D01*
X14135000Y-82408665D01*
X14115056Y-82308397D01*
X22011208Y-82308397D01*
X22086514Y-82550000D01*
X22011208Y-82791603D01*
X22860000Y-83640395D01*
X23708792Y-82791603D01*
X23633486Y-82550000D01*
X23708792Y-82308397D01*
X22860000Y-81459605D01*
X22011208Y-82308397D01*
X14115056Y-82308397D01*
X14079853Y-82131426D01*
X13971680Y-81870273D01*
X13814637Y-81635241D01*
X13614759Y-81435363D01*
X13484806Y-81348531D01*
X21369389Y-81348531D01*
X21411401Y-81638019D01*
X21509081Y-81913747D01*
X21582528Y-82051157D01*
X21831603Y-82128792D01*
X22680395Y-81280000D01*
X23039605Y-81280000D01*
X23888397Y-82128792D01*
X24130000Y-82053486D01*
X24371603Y-82128792D01*
X25220395Y-81280000D01*
X24371603Y-80431208D01*
X24130000Y-80506514D01*
X23888397Y-80431208D01*
X23039605Y-81280000D01*
X22680395Y-81280000D01*
X21831603Y-80431208D01*
X21582528Y-80508843D01*
X21456629Y-80772883D01*
X21384661Y-81056411D01*
X21369389Y-81348531D01*
X13484806Y-81348531D01*
X13379727Y-81278320D01*
X13118574Y-81170147D01*
X12841335Y-81115000D01*
X12558665Y-81115000D01*
X12281426Y-81170147D01*
X12020273Y-81278320D01*
X11785241Y-81435363D01*
X11585363Y-81635241D01*
X11428320Y-81870273D01*
X11320147Y-82131426D01*
X11265000Y-82408665D01*
X6515000Y-82408665D01*
X6459853Y-82131426D01*
X6351680Y-81870273D01*
X6194637Y-81635241D01*
X5994759Y-81435363D01*
X5759727Y-81278320D01*
X5498574Y-81170147D01*
X5221335Y-81115000D01*
X4938665Y-81115000D01*
X4661426Y-81170147D01*
X4400273Y-81278320D01*
X4165241Y-81435363D01*
X3965363Y-81635241D01*
X3808320Y-81870273D01*
X3700147Y-82131426D01*
X3645000Y-82408665D01*
X660000Y-82408665D01*
X660000Y-75922702D01*
X1806903Y-75922702D01*
X1878486Y-76166671D01*
X2133996Y-76287571D01*
X2408184Y-76356300D01*
X2690512Y-76370217D01*
X2970130Y-76328787D01*
X3236292Y-76233603D01*
X3361514Y-76166671D01*
X3433097Y-75922702D01*
X2620000Y-75109605D01*
X1806903Y-75922702D01*
X660000Y-75922702D01*
X660000Y-75000512D01*
X1179783Y-75000512D01*
X1221213Y-75280130D01*
X1316397Y-75546292D01*
X1383329Y-75671514D01*
X1627298Y-75743097D01*
X2440395Y-74930000D01*
X2799605Y-74930000D01*
X3612702Y-75743097D01*
X3856671Y-75671514D01*
X3977571Y-75416004D01*
X4046300Y-75141816D01*
X4060217Y-74859488D01*
X4049724Y-74788665D01*
X6185000Y-74788665D01*
X6185000Y-75071335D01*
X6240147Y-75348574D01*
X6348320Y-75609727D01*
X6505363Y-75844759D01*
X6705241Y-76044637D01*
X6940273Y-76201680D01*
X7201426Y-76309853D01*
X7478665Y-76365000D01*
X7761335Y-76365000D01*
X8038574Y-76309853D01*
X8299727Y-76201680D01*
X8534759Y-76044637D01*
X8734637Y-75844759D01*
X8838043Y-75690000D01*
X9174099Y-75690000D01*
X9196068Y-75731101D01*
X9375392Y-75949608D01*
X9593899Y-76128932D01*
X9843192Y-76262182D01*
X10113691Y-76344236D01*
X10324508Y-76365000D01*
X11265492Y-76365000D01*
X11476309Y-76344236D01*
X11746808Y-76262182D01*
X11996101Y-76128932D01*
X12214608Y-75949608D01*
X12393932Y-75731101D01*
X12415901Y-75690000D01*
X12631289Y-75690000D01*
X12675226Y-75733937D01*
X12844744Y-75847205D01*
X13033102Y-75925226D01*
X13233061Y-75965000D01*
X13436939Y-75965000D01*
X13636898Y-75925226D01*
X13825256Y-75847205D01*
X13994774Y-75733937D01*
X14138937Y-75589774D01*
X14252205Y-75420256D01*
X14330226Y-75231898D01*
X14370000Y-75031939D01*
X14370000Y-74828061D01*
X14330226Y-74628102D01*
X14252205Y-74439744D01*
X14138937Y-74270226D01*
X13994774Y-74126063D01*
X13825256Y-74012795D01*
X13636898Y-73934774D01*
X13436939Y-73895000D01*
X13233061Y-73895000D01*
X13033102Y-73934774D01*
X12844744Y-74012795D01*
X12675226Y-74126063D01*
X12631289Y-74170000D01*
X12415901Y-74170000D01*
X12393932Y-74128899D01*
X12214608Y-73910392D01*
X11996101Y-73731068D01*
X11868259Y-73662735D01*
X12097839Y-73512601D01*
X12299500Y-73314895D01*
X12458715Y-73081646D01*
X12569367Y-72821818D01*
X12586904Y-72739039D01*
X12464915Y-72517000D01*
X10922000Y-72517000D01*
X10922000Y-72537000D01*
X10668000Y-72537000D01*
X10668000Y-72517000D01*
X9125085Y-72517000D01*
X9003096Y-72739039D01*
X9020633Y-72821818D01*
X9131285Y-73081646D01*
X9290500Y-73314895D01*
X9492161Y-73512601D01*
X9721741Y-73662735D01*
X9593899Y-73731068D01*
X9375392Y-73910392D01*
X9196068Y-74128899D01*
X9174099Y-74170000D01*
X8838043Y-74170000D01*
X8734637Y-74015241D01*
X8534759Y-73815363D01*
X8299727Y-73658320D01*
X8038574Y-73550147D01*
X7761335Y-73495000D01*
X7478665Y-73495000D01*
X7201426Y-73550147D01*
X6940273Y-73658320D01*
X6705241Y-73815363D01*
X6505363Y-74015241D01*
X6348320Y-74250273D01*
X6240147Y-74511426D01*
X6185000Y-74788665D01*
X4049724Y-74788665D01*
X4018787Y-74579870D01*
X3923603Y-74313708D01*
X3856671Y-74188486D01*
X3612702Y-74116903D01*
X2799605Y-74930000D01*
X2440395Y-74930000D01*
X1627298Y-74116903D01*
X1383329Y-74188486D01*
X1262429Y-74443996D01*
X1193700Y-74718184D01*
X1179783Y-75000512D01*
X660000Y-75000512D01*
X660000Y-73937298D01*
X1806903Y-73937298D01*
X2620000Y-74750395D01*
X3433097Y-73937298D01*
X3361514Y-73693329D01*
X3106004Y-73572429D01*
X2831816Y-73503700D01*
X2549488Y-73489783D01*
X2269870Y-73531213D01*
X2003708Y-73626397D01*
X1878486Y-73693329D01*
X1806903Y-73937298D01*
X660000Y-73937298D01*
X660000Y-69708665D01*
X4280000Y-69708665D01*
X4280000Y-69991335D01*
X4335147Y-70268574D01*
X4443320Y-70529727D01*
X4600363Y-70764759D01*
X4800241Y-70964637D01*
X5035273Y-71121680D01*
X5296426Y-71229853D01*
X5573665Y-71285000D01*
X5856335Y-71285000D01*
X6133574Y-71229853D01*
X6394727Y-71121680D01*
X6629759Y-70964637D01*
X6829637Y-70764759D01*
X6933043Y-70610000D01*
X7551289Y-70610000D01*
X7595226Y-70653937D01*
X7764744Y-70767205D01*
X7953102Y-70845226D01*
X8153061Y-70885000D01*
X8356939Y-70885000D01*
X8556898Y-70845226D01*
X8745256Y-70767205D01*
X8914774Y-70653937D01*
X8958711Y-70610000D01*
X9174099Y-70610000D01*
X9196068Y-70651101D01*
X9375392Y-70869608D01*
X9593899Y-71048932D01*
X9721741Y-71117265D01*
X9492161Y-71267399D01*
X9290500Y-71465105D01*
X9131285Y-71698354D01*
X9020633Y-71958182D01*
X9003096Y-72040961D01*
X9125085Y-72263000D01*
X10668000Y-72263000D01*
X10668000Y-72243000D01*
X10922000Y-72243000D01*
X10922000Y-72263000D01*
X12464915Y-72263000D01*
X12586904Y-72040961D01*
X12569367Y-71958182D01*
X12458715Y-71698354D01*
X12299500Y-71465105D01*
X12097839Y-71267399D01*
X11868259Y-71117265D01*
X11996101Y-71048932D01*
X12214608Y-70869608D01*
X12393932Y-70651101D01*
X12527182Y-70401808D01*
X12609236Y-70131309D01*
X12636943Y-69850000D01*
X12626903Y-69748061D01*
X14840000Y-69748061D01*
X14840000Y-69951939D01*
X14879774Y-70151898D01*
X14957795Y-70340256D01*
X15071063Y-70509774D01*
X15215226Y-70653937D01*
X15384744Y-70767205D01*
X15573102Y-70845226D01*
X15773061Y-70885000D01*
X15976939Y-70885000D01*
X16176898Y-70845226D01*
X16365256Y-70767205D01*
X16534774Y-70653937D01*
X16578711Y-70610000D01*
X16794099Y-70610000D01*
X16816068Y-70651101D01*
X16995392Y-70869608D01*
X17213899Y-71048932D01*
X17346858Y-71120000D01*
X17213899Y-71191068D01*
X16995392Y-71370392D01*
X16816068Y-71588899D01*
X16682818Y-71838192D01*
X16600764Y-72108691D01*
X16573057Y-72390000D01*
X16600764Y-72671309D01*
X16682818Y-72941808D01*
X16816068Y-73191101D01*
X16995392Y-73409608D01*
X17213899Y-73588932D01*
X17346858Y-73660000D01*
X17213899Y-73731068D01*
X16995392Y-73910392D01*
X16816068Y-74128899D01*
X16682818Y-74378192D01*
X16600764Y-74648691D01*
X16573057Y-74930000D01*
X16600764Y-75211309D01*
X16682818Y-75481808D01*
X16816068Y-75731101D01*
X16995392Y-75949608D01*
X17213899Y-76128932D01*
X17463192Y-76262182D01*
X17733691Y-76344236D01*
X17944508Y-76365000D01*
X18885492Y-76365000D01*
X19096309Y-76344236D01*
X19366808Y-76262182D01*
X19616101Y-76128932D01*
X19834608Y-75949608D01*
X20013932Y-75731101D01*
X20147182Y-75481808D01*
X20229236Y-75211309D01*
X20256943Y-74930000D01*
X20229236Y-74648691D01*
X20147182Y-74378192D01*
X20013932Y-74128899D01*
X19834608Y-73910392D01*
X19616101Y-73731068D01*
X19483142Y-73660000D01*
X19616101Y-73588932D01*
X19834608Y-73409608D01*
X19896093Y-73334688D01*
X20018102Y-73385226D01*
X20218061Y-73425000D01*
X20421939Y-73425000D01*
X20621898Y-73385226D01*
X20810256Y-73307205D01*
X20979774Y-73193937D01*
X21123937Y-73049774D01*
X21237205Y-72880256D01*
X21315226Y-72691898D01*
X21355000Y-72491939D01*
X21355000Y-72288061D01*
X21315226Y-72088102D01*
X21237205Y-71899744D01*
X21123937Y-71730226D01*
X20979774Y-71586063D01*
X20810256Y-71472795D01*
X20621898Y-71394774D01*
X20421939Y-71355000D01*
X20218061Y-71355000D01*
X20018102Y-71394774D01*
X19896093Y-71445312D01*
X19834608Y-71370392D01*
X19616101Y-71191068D01*
X19483142Y-71120000D01*
X19616101Y-71048932D01*
X19834608Y-70869608D01*
X20013932Y-70651101D01*
X20035901Y-70610000D01*
X20451957Y-70610000D01*
X20555363Y-70764759D01*
X20755241Y-70964637D01*
X20990273Y-71121680D01*
X21251426Y-71229853D01*
X21528665Y-71285000D01*
X21811335Y-71285000D01*
X22088574Y-71229853D01*
X22349727Y-71121680D01*
X22584759Y-70964637D01*
X22706694Y-70842702D01*
X25856903Y-70842702D01*
X25928486Y-71086671D01*
X26183996Y-71207571D01*
X26458184Y-71276300D01*
X26740512Y-71290217D01*
X27020130Y-71248787D01*
X27286292Y-71153603D01*
X27411514Y-71086671D01*
X27483097Y-70842702D01*
X26670000Y-70029605D01*
X25856903Y-70842702D01*
X22706694Y-70842702D01*
X22784637Y-70764759D01*
X22887390Y-70610978D01*
X22897322Y-70610000D01*
X22897333Y-70610000D01*
X23008986Y-70599003D01*
X23152247Y-70555546D01*
X23284276Y-70484974D01*
X23400001Y-70390001D01*
X23423804Y-70360997D01*
X24444802Y-69340000D01*
X25323783Y-69340000D01*
X25312429Y-69363996D01*
X25243700Y-69638184D01*
X25229783Y-69920512D01*
X25271213Y-70200130D01*
X25366397Y-70466292D01*
X25433329Y-70591514D01*
X25677298Y-70663097D01*
X26490395Y-69850000D01*
X26476253Y-69835858D01*
X26655858Y-69656253D01*
X26670000Y-69670395D01*
X26684143Y-69656253D01*
X26863748Y-69835858D01*
X26849605Y-69850000D01*
X27662702Y-70663097D01*
X27906671Y-70591514D01*
X28027571Y-70336004D01*
X28096300Y-70061816D01*
X28110217Y-69779488D01*
X28068787Y-69499870D01*
X28011615Y-69340000D01*
X32316289Y-69340000D01*
X32360226Y-69383937D01*
X32529744Y-69497205D01*
X32718102Y-69575226D01*
X32918061Y-69615000D01*
X33121939Y-69615000D01*
X33321898Y-69575226D01*
X33510256Y-69497205D01*
X33679774Y-69383937D01*
X33823937Y-69239774D01*
X33937205Y-69070256D01*
X34015226Y-68881898D01*
X34055000Y-68681939D01*
X34055000Y-68478061D01*
X34015226Y-68278102D01*
X33937205Y-68089744D01*
X33823937Y-67920226D01*
X33679774Y-67776063D01*
X33510256Y-67662795D01*
X33321898Y-67584774D01*
X33121939Y-67545000D01*
X32918061Y-67545000D01*
X32718102Y-67584774D01*
X32529744Y-67662795D01*
X32360226Y-67776063D01*
X32316289Y-67820000D01*
X32019013Y-67820000D01*
X32032205Y-67800256D01*
X32110226Y-67611898D01*
X32150000Y-67411939D01*
X32150000Y-67208061D01*
X32110226Y-67008102D01*
X32032205Y-66819744D01*
X31918937Y-66650226D01*
X31774774Y-66506063D01*
X31605256Y-66392795D01*
X31416898Y-66314774D01*
X31216939Y-66275000D01*
X31013061Y-66275000D01*
X30846961Y-66308039D01*
X30880000Y-66141939D01*
X30880000Y-65938061D01*
X30840226Y-65738102D01*
X30762205Y-65549744D01*
X30648937Y-65380226D01*
X30504774Y-65236063D01*
X30335256Y-65122795D01*
X30146898Y-65044774D01*
X29946939Y-65005000D01*
X29743061Y-65005000D01*
X29543102Y-65044774D01*
X29354744Y-65122795D01*
X29185226Y-65236063D01*
X29141289Y-65280000D01*
X26668277Y-65280000D01*
X26685528Y-65223132D01*
X26703072Y-65045000D01*
X26703072Y-64495000D01*
X26685528Y-64316868D01*
X26633569Y-64145582D01*
X26549192Y-63987724D01*
X26435639Y-63849361D01*
X26297276Y-63735808D01*
X26139418Y-63651431D01*
X25968132Y-63599472D01*
X25790000Y-63581928D01*
X24633072Y-63581928D01*
X24633072Y-62950000D01*
X24620812Y-62825518D01*
X24584502Y-62705820D01*
X24525537Y-62595506D01*
X24446185Y-62498815D01*
X24349494Y-62419463D01*
X24255000Y-62368954D01*
X24255000Y-60362333D01*
X24258677Y-60325000D01*
X24244003Y-60176014D01*
X24202453Y-60039039D01*
X27183096Y-60039039D01*
X27223754Y-60173087D01*
X27343963Y-60427420D01*
X27511481Y-60653414D01*
X27719869Y-60842385D01*
X27961119Y-60987070D01*
X28225960Y-61081909D01*
X28448000Y-60960624D01*
X28448000Y-59817000D01*
X28702000Y-59817000D01*
X28702000Y-60960624D01*
X28924040Y-61081909D01*
X29188881Y-60987070D01*
X29430131Y-60842385D01*
X29638519Y-60653414D01*
X29806037Y-60427420D01*
X29926246Y-60173087D01*
X29966904Y-60039039D01*
X29844915Y-59817000D01*
X28702000Y-59817000D01*
X28448000Y-59817000D01*
X27305085Y-59817000D01*
X27183096Y-60039039D01*
X24202453Y-60039039D01*
X24200546Y-60032753D01*
X24129974Y-59900724D01*
X24073028Y-59831335D01*
X24035001Y-59784999D01*
X24006002Y-59761200D01*
X23585763Y-59340961D01*
X27183096Y-59340961D01*
X27305085Y-59563000D01*
X28448000Y-59563000D01*
X28448000Y-58419376D01*
X28702000Y-58419376D01*
X28702000Y-59563000D01*
X29844915Y-59563000D01*
X29966904Y-59340961D01*
X29926246Y-59206913D01*
X29806037Y-58952580D01*
X29638519Y-58726586D01*
X29430131Y-58537615D01*
X29188881Y-58392930D01*
X28924040Y-58298091D01*
X28702000Y-58419376D01*
X28448000Y-58419376D01*
X28225960Y-58298091D01*
X27961119Y-58392930D01*
X27719869Y-58537615D01*
X27511481Y-58726586D01*
X27343963Y-58952580D01*
X27223754Y-59206913D01*
X27183096Y-59340961D01*
X23585763Y-59340961D01*
X23423803Y-59179002D01*
X23400001Y-59149999D01*
X23284276Y-59055026D01*
X23152247Y-58984454D01*
X23008986Y-58940997D01*
X22897333Y-58930000D01*
X22897322Y-58930000D01*
X22860000Y-58926324D01*
X22822678Y-58930000D01*
X22173043Y-58930000D01*
X22069637Y-58775241D01*
X21869759Y-58575363D01*
X21634727Y-58418320D01*
X21373574Y-58310147D01*
X21096335Y-58255000D01*
X20813665Y-58255000D01*
X20536426Y-58310147D01*
X20275273Y-58418320D01*
X20040241Y-58575363D01*
X19840363Y-58775241D01*
X19736957Y-58930000D01*
X19633043Y-58930000D01*
X19529637Y-58775241D01*
X19329759Y-58575363D01*
X19094727Y-58418320D01*
X18833574Y-58310147D01*
X18556335Y-58255000D01*
X18273665Y-58255000D01*
X17996426Y-58310147D01*
X17735273Y-58418320D01*
X17500241Y-58575363D01*
X17300363Y-58775241D01*
X17143320Y-59010273D01*
X17035147Y-59271426D01*
X16980000Y-59548665D01*
X16980000Y-59831335D01*
X17035147Y-60108574D01*
X17143320Y-60369727D01*
X17300363Y-60604759D01*
X17500241Y-60804637D01*
X17735273Y-60961680D01*
X17996426Y-61069853D01*
X18273665Y-61125000D01*
X18556335Y-61125000D01*
X18833574Y-61069853D01*
X19094727Y-60961680D01*
X19329759Y-60804637D01*
X19529637Y-60604759D01*
X19633043Y-60450000D01*
X19736957Y-60450000D01*
X19840363Y-60604759D01*
X20040241Y-60804637D01*
X20275273Y-60961680D01*
X20536426Y-61069853D01*
X20813665Y-61125000D01*
X21096335Y-61125000D01*
X21373574Y-61069853D01*
X21634727Y-60961680D01*
X21869759Y-60804637D01*
X22069637Y-60604759D01*
X22173043Y-60450000D01*
X22545199Y-60450000D01*
X22735001Y-60639803D01*
X22735000Y-62311928D01*
X22195000Y-62311928D01*
X22070518Y-62324188D01*
X21950820Y-62360498D01*
X21840506Y-62419463D01*
X21743815Y-62498815D01*
X21664463Y-62595506D01*
X21605498Y-62705820D01*
X21569188Y-62825518D01*
X21556928Y-62950000D01*
X21556928Y-64010000D01*
X21023711Y-64010000D01*
X20979774Y-63966063D01*
X20810256Y-63852795D01*
X20621898Y-63774774D01*
X20421939Y-63735000D01*
X20218061Y-63735000D01*
X20018102Y-63774774D01*
X19838832Y-63849031D01*
X19813688Y-63823886D01*
X19850000Y-63641335D01*
X19850000Y-63358665D01*
X19794853Y-63081426D01*
X19686680Y-62820273D01*
X19529637Y-62585241D01*
X19329759Y-62385363D01*
X19094727Y-62228320D01*
X18833574Y-62120147D01*
X18556335Y-62065000D01*
X18273665Y-62065000D01*
X17996426Y-62120147D01*
X17735273Y-62228320D01*
X17500241Y-62385363D01*
X17300363Y-62585241D01*
X17143320Y-62820273D01*
X17035147Y-63081426D01*
X16980000Y-63358665D01*
X16980000Y-63641335D01*
X17035147Y-63918574D01*
X17143320Y-64179727D01*
X17300363Y-64414759D01*
X17500241Y-64614637D01*
X17735273Y-64771680D01*
X17996426Y-64879853D01*
X18273665Y-64935000D01*
X18556335Y-64935000D01*
X18738886Y-64898688D01*
X19121201Y-65281003D01*
X19144999Y-65310001D01*
X19260724Y-65404974D01*
X19392753Y-65475546D01*
X19536014Y-65519003D01*
X19612861Y-65526572D01*
X19660226Y-65573937D01*
X19829744Y-65687205D01*
X20018102Y-65765226D01*
X20218061Y-65805000D01*
X20421939Y-65805000D01*
X20621898Y-65765226D01*
X20810256Y-65687205D01*
X20979774Y-65573937D01*
X21023711Y-65530000D01*
X21591723Y-65530000D01*
X21574472Y-65586868D01*
X21556928Y-65765000D01*
X21556928Y-66315000D01*
X21574472Y-66493132D01*
X21626431Y-66664418D01*
X21710808Y-66822276D01*
X21824361Y-66960639D01*
X21962724Y-67074192D01*
X22120582Y-67158569D01*
X22291868Y-67210528D01*
X22470000Y-67228072D01*
X23720000Y-67228072D01*
X23898132Y-67210528D01*
X24069418Y-67158569D01*
X24227276Y-67074192D01*
X24365639Y-66960639D01*
X24479192Y-66822276D01*
X24491099Y-66800000D01*
X24495987Y-66800000D01*
X24482795Y-66819744D01*
X24404774Y-67008102D01*
X24365000Y-67208061D01*
X24365000Y-67411939D01*
X24404774Y-67611898D01*
X24482795Y-67800256D01*
X24495987Y-67820000D01*
X24167322Y-67820000D01*
X24129999Y-67816324D01*
X24092676Y-67820000D01*
X24092667Y-67820000D01*
X23981014Y-67830997D01*
X23837753Y-67874454D01*
X23705724Y-67945026D01*
X23589999Y-68039999D01*
X23566201Y-68068997D01*
X22742297Y-68892901D01*
X22584759Y-68735363D01*
X22349727Y-68578320D01*
X22088574Y-68470147D01*
X21811335Y-68415000D01*
X21528665Y-68415000D01*
X21251426Y-68470147D01*
X20990273Y-68578320D01*
X20755241Y-68735363D01*
X20555363Y-68935241D01*
X20451957Y-69090000D01*
X20035901Y-69090000D01*
X20013932Y-69048899D01*
X19834608Y-68830392D01*
X19616101Y-68651068D01*
X19483142Y-68580000D01*
X19616101Y-68508932D01*
X19834608Y-68329608D01*
X20013932Y-68111101D01*
X20147182Y-67861808D01*
X20229236Y-67591309D01*
X20256943Y-67310000D01*
X20229236Y-67028691D01*
X20147182Y-66758192D01*
X20013932Y-66508899D01*
X19834608Y-66290392D01*
X19616101Y-66111068D01*
X19366808Y-65977818D01*
X19096309Y-65895764D01*
X18885492Y-65875000D01*
X17944508Y-65875000D01*
X17733691Y-65895764D01*
X17463192Y-65977818D01*
X17213899Y-66111068D01*
X16995392Y-66290392D01*
X16816068Y-66508899D01*
X16682818Y-66758192D01*
X16600764Y-67028691D01*
X16573057Y-67310000D01*
X16600764Y-67591309D01*
X16682818Y-67861808D01*
X16816068Y-68111101D01*
X16995392Y-68329608D01*
X17213899Y-68508932D01*
X17346858Y-68580000D01*
X17213899Y-68651068D01*
X16995392Y-68830392D01*
X16816068Y-69048899D01*
X16794099Y-69090000D01*
X16578711Y-69090000D01*
X16534774Y-69046063D01*
X16365256Y-68932795D01*
X16176898Y-68854774D01*
X15976939Y-68815000D01*
X15773061Y-68815000D01*
X15573102Y-68854774D01*
X15384744Y-68932795D01*
X15215226Y-69046063D01*
X15071063Y-69190226D01*
X14957795Y-69359744D01*
X14879774Y-69548102D01*
X14840000Y-69748061D01*
X12626903Y-69748061D01*
X12609236Y-69568691D01*
X12527182Y-69298192D01*
X12393932Y-69048899D01*
X12214608Y-68830392D01*
X12101518Y-68737581D01*
X12119482Y-68735812D01*
X12239180Y-68699502D01*
X12349494Y-68640537D01*
X12446185Y-68561185D01*
X12525537Y-68464494D01*
X12584502Y-68354180D01*
X12620812Y-68234482D01*
X12633072Y-68110000D01*
X12633072Y-66510000D01*
X12620812Y-66385518D01*
X12584502Y-66265820D01*
X12525537Y-66155506D01*
X12446185Y-66058815D01*
X12349494Y-65979463D01*
X12239180Y-65920498D01*
X12119482Y-65884188D01*
X11995000Y-65871928D01*
X9595000Y-65871928D01*
X9470518Y-65884188D01*
X9350820Y-65920498D01*
X9240506Y-65979463D01*
X9143815Y-66058815D01*
X9064463Y-66155506D01*
X9005498Y-66265820D01*
X8969188Y-66385518D01*
X8956928Y-66510000D01*
X8956928Y-68110000D01*
X8969188Y-68234482D01*
X9005498Y-68354180D01*
X9064463Y-68464494D01*
X9143815Y-68561185D01*
X9240506Y-68640537D01*
X9350820Y-68699502D01*
X9470518Y-68735812D01*
X9488482Y-68737581D01*
X9375392Y-68830392D01*
X9196068Y-69048899D01*
X9174099Y-69090000D01*
X8958711Y-69090000D01*
X8914774Y-69046063D01*
X8745256Y-68932795D01*
X8556898Y-68854774D01*
X8356939Y-68815000D01*
X8153061Y-68815000D01*
X7953102Y-68854774D01*
X7764744Y-68932795D01*
X7595226Y-69046063D01*
X7551289Y-69090000D01*
X6933043Y-69090000D01*
X6829637Y-68935241D01*
X6629759Y-68735363D01*
X6394727Y-68578320D01*
X6133574Y-68470147D01*
X5856335Y-68415000D01*
X5573665Y-68415000D01*
X5296426Y-68470147D01*
X5035273Y-68578320D01*
X4800241Y-68735363D01*
X4600363Y-68935241D01*
X4443320Y-69170273D01*
X4335147Y-69431426D01*
X4280000Y-69708665D01*
X660000Y-69708665D01*
X660000Y-62088665D01*
X4280000Y-62088665D01*
X4280000Y-62371335D01*
X4335147Y-62648574D01*
X4443320Y-62909727D01*
X4600363Y-63144759D01*
X4800241Y-63344637D01*
X5035273Y-63501680D01*
X5296426Y-63609853D01*
X5573665Y-63665000D01*
X5856335Y-63665000D01*
X6133574Y-63609853D01*
X6394727Y-63501680D01*
X6549804Y-63398061D01*
X7220000Y-63398061D01*
X7220000Y-63601939D01*
X7259774Y-63801898D01*
X7337795Y-63990256D01*
X7451063Y-64159774D01*
X7595226Y-64303937D01*
X7764744Y-64417205D01*
X7953102Y-64495226D01*
X8153061Y-64535000D01*
X8356939Y-64535000D01*
X8556898Y-64495226D01*
X8745256Y-64417205D01*
X8914774Y-64303937D01*
X8958711Y-64260000D01*
X9356928Y-64260000D01*
X9356928Y-64300000D01*
X9369188Y-64424482D01*
X9405498Y-64544180D01*
X9464463Y-64654494D01*
X9543815Y-64751185D01*
X9640506Y-64830537D01*
X9750820Y-64889502D01*
X9870518Y-64925812D01*
X9995000Y-64938072D01*
X11595000Y-64938072D01*
X11719482Y-64925812D01*
X11839180Y-64889502D01*
X11949494Y-64830537D01*
X12046185Y-64751185D01*
X12125537Y-64654494D01*
X12184502Y-64544180D01*
X12220812Y-64424482D01*
X12233072Y-64300000D01*
X12233072Y-62700000D01*
X12220812Y-62575518D01*
X12184502Y-62455820D01*
X12125537Y-62345506D01*
X12046185Y-62248815D01*
X11949494Y-62169463D01*
X11839180Y-62110498D01*
X11719482Y-62074188D01*
X11595000Y-62061928D01*
X9995000Y-62061928D01*
X9870518Y-62074188D01*
X9750820Y-62110498D01*
X9640506Y-62169463D01*
X9543815Y-62248815D01*
X9464463Y-62345506D01*
X9405498Y-62455820D01*
X9369188Y-62575518D01*
X9356928Y-62700000D01*
X9356928Y-62740000D01*
X8958711Y-62740000D01*
X8914774Y-62696063D01*
X8745256Y-62582795D01*
X8556898Y-62504774D01*
X8356939Y-62465000D01*
X8153061Y-62465000D01*
X7953102Y-62504774D01*
X7764744Y-62582795D01*
X7595226Y-62696063D01*
X7451063Y-62840226D01*
X7337795Y-63009744D01*
X7259774Y-63198102D01*
X7220000Y-63398061D01*
X6549804Y-63398061D01*
X6629759Y-63344637D01*
X6829637Y-63144759D01*
X6986680Y-62909727D01*
X7094853Y-62648574D01*
X7150000Y-62371335D01*
X7150000Y-62088665D01*
X7094853Y-61811426D01*
X6986680Y-61550273D01*
X6829637Y-61315241D01*
X6629759Y-61115363D01*
X6394727Y-60958320D01*
X6133574Y-60850147D01*
X5856335Y-60795000D01*
X5573665Y-60795000D01*
X5296426Y-60850147D01*
X5035273Y-60958320D01*
X4800241Y-61115363D01*
X4600363Y-61315241D01*
X4443320Y-61550273D01*
X4335147Y-61811426D01*
X4280000Y-62088665D01*
X660000Y-62088665D01*
X660000Y-59588061D01*
X7220000Y-59588061D01*
X7220000Y-59791939D01*
X7259774Y-59991898D01*
X7337795Y-60180256D01*
X7451063Y-60349774D01*
X7595226Y-60493937D01*
X7764744Y-60607205D01*
X7953102Y-60685226D01*
X8153061Y-60725000D01*
X8356939Y-60725000D01*
X8556898Y-60685226D01*
X8745256Y-60607205D01*
X8914774Y-60493937D01*
X8958711Y-60450000D01*
X9576957Y-60450000D01*
X9680363Y-60604759D01*
X9880241Y-60804637D01*
X10115273Y-60961680D01*
X10376426Y-61069853D01*
X10653665Y-61125000D01*
X10936335Y-61125000D01*
X11213574Y-61069853D01*
X11474727Y-60961680D01*
X11709759Y-60804637D01*
X11909637Y-60604759D01*
X12013043Y-60450000D01*
X15171289Y-60450000D01*
X15215226Y-60493937D01*
X15384744Y-60607205D01*
X15573102Y-60685226D01*
X15773061Y-60725000D01*
X15976939Y-60725000D01*
X16176898Y-60685226D01*
X16365256Y-60607205D01*
X16534774Y-60493937D01*
X16678937Y-60349774D01*
X16792205Y-60180256D01*
X16870226Y-59991898D01*
X16910000Y-59791939D01*
X16910000Y-59588061D01*
X16870226Y-59388102D01*
X16792205Y-59199744D01*
X16678937Y-59030226D01*
X16534774Y-58886063D01*
X16365256Y-58772795D01*
X16176898Y-58694774D01*
X15976939Y-58655000D01*
X15773061Y-58655000D01*
X15573102Y-58694774D01*
X15384744Y-58772795D01*
X15215226Y-58886063D01*
X15171289Y-58930000D01*
X12013043Y-58930000D01*
X11909637Y-58775241D01*
X11709759Y-58575363D01*
X11474727Y-58418320D01*
X11213574Y-58310147D01*
X10936335Y-58255000D01*
X10653665Y-58255000D01*
X10376426Y-58310147D01*
X10115273Y-58418320D01*
X9880241Y-58575363D01*
X9680363Y-58775241D01*
X9576957Y-58930000D01*
X8958711Y-58930000D01*
X8914774Y-58886063D01*
X8745256Y-58772795D01*
X8556898Y-58694774D01*
X8356939Y-58655000D01*
X8153061Y-58655000D01*
X7953102Y-58694774D01*
X7764744Y-58772795D01*
X7595226Y-58886063D01*
X7451063Y-59030226D01*
X7337795Y-59199744D01*
X7259774Y-59388102D01*
X7220000Y-59588061D01*
X660000Y-59588061D01*
X660000Y-55600000D01*
X4108783Y-55600000D01*
X4133593Y-55851904D01*
X4207071Y-56094127D01*
X4326392Y-56317362D01*
X4486972Y-56513028D01*
X4682638Y-56673608D01*
X4905873Y-56792929D01*
X5148096Y-56866407D01*
X5336877Y-56885000D01*
X6463123Y-56885000D01*
X6651904Y-56866407D01*
X6894127Y-56792929D01*
X7117362Y-56673608D01*
X7313028Y-56513028D01*
X7473608Y-56317362D01*
X7592929Y-56094127D01*
X7666407Y-55851904D01*
X7691217Y-55600000D01*
X7666407Y-55348096D01*
X7592929Y-55105873D01*
X7473608Y-54882638D01*
X7313028Y-54686972D01*
X7117362Y-54526392D01*
X7029650Y-54479509D01*
X11565000Y-54479509D01*
X11565000Y-55320492D01*
X11585764Y-55531309D01*
X11667818Y-55801808D01*
X11801068Y-56051101D01*
X11980393Y-56269608D01*
X12198900Y-56448932D01*
X12448193Y-56582182D01*
X12718692Y-56664236D01*
X13000000Y-56691943D01*
X13281309Y-56664236D01*
X13551808Y-56582182D01*
X13801101Y-56448932D01*
X14019608Y-56269608D01*
X14198932Y-56051101D01*
X14332182Y-55801808D01*
X14414236Y-55531308D01*
X14435000Y-55320491D01*
X14435000Y-55103665D01*
X14440000Y-55103665D01*
X14440000Y-55386335D01*
X14495147Y-55663574D01*
X14603320Y-55924727D01*
X14760363Y-56159759D01*
X14960241Y-56359637D01*
X15195273Y-56516680D01*
X15456426Y-56624853D01*
X15733665Y-56680000D01*
X16016335Y-56680000D01*
X16293574Y-56624853D01*
X16554727Y-56516680D01*
X16789759Y-56359637D01*
X16989637Y-56159759D01*
X17146680Y-55924727D01*
X17254853Y-55663574D01*
X17310000Y-55386335D01*
X17310000Y-55103665D01*
X22060000Y-55103665D01*
X22060000Y-55386335D01*
X22115147Y-55663574D01*
X22223320Y-55924727D01*
X22380363Y-56159759D01*
X22580241Y-56359637D01*
X22815273Y-56516680D01*
X23076426Y-56624853D01*
X23353665Y-56680000D01*
X23636335Y-56680000D01*
X23913574Y-56624853D01*
X24174727Y-56516680D01*
X24409759Y-56359637D01*
X24609637Y-56159759D01*
X24766680Y-55924727D01*
X24874853Y-55663574D01*
X24930000Y-55386335D01*
X24930000Y-55103665D01*
X24874853Y-54826426D01*
X24766680Y-54565273D01*
X24609637Y-54330241D01*
X24409759Y-54130363D01*
X24174727Y-53973320D01*
X23913574Y-53865147D01*
X23636335Y-53810000D01*
X23353665Y-53810000D01*
X23076426Y-53865147D01*
X22815273Y-53973320D01*
X22580241Y-54130363D01*
X22380363Y-54330241D01*
X22223320Y-54565273D01*
X22115147Y-54826426D01*
X22060000Y-55103665D01*
X17310000Y-55103665D01*
X17254853Y-54826426D01*
X17146680Y-54565273D01*
X16989637Y-54330241D01*
X16789759Y-54130363D01*
X16554727Y-53973320D01*
X16293574Y-53865147D01*
X16016335Y-53810000D01*
X15733665Y-53810000D01*
X15456426Y-53865147D01*
X15195273Y-53973320D01*
X14960241Y-54130363D01*
X14760363Y-54330241D01*
X14603320Y-54565273D01*
X14495147Y-54826426D01*
X14440000Y-55103665D01*
X14435000Y-55103665D01*
X14435000Y-54479508D01*
X14414236Y-54268691D01*
X14332182Y-53998192D01*
X14198932Y-53748899D01*
X14019607Y-53530392D01*
X13801100Y-53351068D01*
X13551807Y-53217818D01*
X13281308Y-53135764D01*
X13000000Y-53108057D01*
X12718691Y-53135764D01*
X12448192Y-53217818D01*
X12198899Y-53351068D01*
X11980392Y-53530393D01*
X11801068Y-53748900D01*
X11667818Y-53998193D01*
X11585764Y-54268692D01*
X11565000Y-54479509D01*
X7029650Y-54479509D01*
X6894127Y-54407071D01*
X6651904Y-54333593D01*
X6463123Y-54315000D01*
X5336877Y-54315000D01*
X5148096Y-54333593D01*
X4905873Y-54407071D01*
X4682638Y-54526392D01*
X4486972Y-54686972D01*
X4326392Y-54882638D01*
X4207071Y-55105873D01*
X4133593Y-55348096D01*
X4108783Y-55600000D01*
X660000Y-55600000D01*
X660000Y-52137092D01*
X775105Y-52254500D01*
X1008354Y-52413715D01*
X1268182Y-52524367D01*
X1350961Y-52541904D01*
X1573000Y-52419915D01*
X1573000Y-50927000D01*
X1827000Y-50927000D01*
X1827000Y-52419915D01*
X2049039Y-52541904D01*
X2131818Y-52524367D01*
X2391646Y-52413715D01*
X2624895Y-52254500D01*
X2822601Y-52052839D01*
X2977166Y-51816483D01*
X3082650Y-51554514D01*
X3133714Y-51283816D01*
X24500000Y-51283816D01*
X24500000Y-51586184D01*
X24558989Y-51882743D01*
X24674701Y-52162095D01*
X24842688Y-52413505D01*
X25056495Y-52627312D01*
X25307905Y-52795299D01*
X25587257Y-52911011D01*
X25883816Y-52970000D01*
X26186184Y-52970000D01*
X26482743Y-52911011D01*
X26762095Y-52795299D01*
X27013505Y-52627312D01*
X27227312Y-52413505D01*
X27395299Y-52162095D01*
X27511011Y-51882743D01*
X27570000Y-51586184D01*
X27570000Y-51283816D01*
X27511011Y-50987257D01*
X27395299Y-50707905D01*
X27227312Y-50456495D01*
X27013505Y-50242688D01*
X26762095Y-50074701D01*
X26482743Y-49958989D01*
X26186184Y-49900000D01*
X25883816Y-49900000D01*
X25587257Y-49958989D01*
X25307905Y-50074701D01*
X25056495Y-50242688D01*
X24842688Y-50456495D01*
X24674701Y-50707905D01*
X24558989Y-50987257D01*
X24500000Y-51283816D01*
X3133714Y-51283816D01*
X3135000Y-51277000D01*
X3135000Y-50927000D01*
X1827000Y-50927000D01*
X1573000Y-50927000D01*
X1553000Y-50927000D01*
X1553000Y-50673000D01*
X1573000Y-50673000D01*
X1573000Y-49180085D01*
X1827000Y-49180085D01*
X1827000Y-50673000D01*
X3135000Y-50673000D01*
X3135000Y-50323000D01*
X3082650Y-50045486D01*
X2977166Y-49783517D01*
X2822601Y-49547161D01*
X2624895Y-49345500D01*
X2391646Y-49186285D01*
X2131818Y-49075633D01*
X2049039Y-49058096D01*
X1827000Y-49180085D01*
X1573000Y-49180085D01*
X1350961Y-49058096D01*
X1268182Y-49075633D01*
X1008354Y-49186285D01*
X775105Y-49345500D01*
X660000Y-49462908D01*
X660000Y-48200000D01*
X6808057Y-48200000D01*
X6835764Y-48481309D01*
X6917818Y-48751808D01*
X7051068Y-49001101D01*
X7230392Y-49219608D01*
X7448899Y-49398932D01*
X7698192Y-49532182D01*
X7968691Y-49614236D01*
X8179508Y-49635000D01*
X9020492Y-49635000D01*
X9231309Y-49614236D01*
X9501808Y-49532182D01*
X9751101Y-49398932D01*
X9969608Y-49219608D01*
X10148932Y-49001101D01*
X10282182Y-48751808D01*
X10284606Y-48743816D01*
X16880000Y-48743816D01*
X16880000Y-49046184D01*
X16938989Y-49342743D01*
X17054701Y-49622095D01*
X17222688Y-49873505D01*
X17436495Y-50087312D01*
X17687905Y-50255299D01*
X17967257Y-50371011D01*
X18263816Y-50430000D01*
X18566184Y-50430000D01*
X18862743Y-50371011D01*
X19142095Y-50255299D01*
X19393505Y-50087312D01*
X19607312Y-49873505D01*
X19775299Y-49622095D01*
X19891011Y-49342743D01*
X19950000Y-49046184D01*
X19950000Y-48743816D01*
X19891011Y-48447257D01*
X19775299Y-48167905D01*
X19607312Y-47916495D01*
X19440817Y-47750000D01*
X30089183Y-47750000D01*
X29922688Y-47916495D01*
X29754701Y-48167905D01*
X29638989Y-48447257D01*
X29580000Y-48743816D01*
X29580000Y-49046184D01*
X29638989Y-49342743D01*
X29754701Y-49622095D01*
X29922688Y-49873505D01*
X30136495Y-50087312D01*
X30387905Y-50255299D01*
X30667257Y-50371011D01*
X30963816Y-50430000D01*
X31266184Y-50430000D01*
X31562743Y-50371011D01*
X31842095Y-50255299D01*
X32093505Y-50087312D01*
X32307312Y-49873505D01*
X32475299Y-49622095D01*
X32591011Y-49342743D01*
X32650000Y-49046184D01*
X32650000Y-48743816D01*
X32591011Y-48447257D01*
X32475299Y-48167905D01*
X32307312Y-47916495D01*
X32140817Y-47750000D01*
X32316289Y-47750000D01*
X32360226Y-47793937D01*
X32529744Y-47907205D01*
X32718102Y-47985226D01*
X32918061Y-48025000D01*
X33121939Y-48025000D01*
X33321898Y-47985226D01*
X33510256Y-47907205D01*
X33679774Y-47793937D01*
X33823937Y-47649774D01*
X33937205Y-47480256D01*
X34015226Y-47291898D01*
X34055000Y-47091939D01*
X34055000Y-46888061D01*
X34015226Y-46688102D01*
X33937205Y-46499744D01*
X33823937Y-46330226D01*
X33679774Y-46186063D01*
X33510256Y-46072795D01*
X33321898Y-45994774D01*
X33121939Y-45955000D01*
X32918061Y-45955000D01*
X32718102Y-45994774D01*
X32529744Y-46072795D01*
X32360226Y-46186063D01*
X32316289Y-46230000D01*
X27060817Y-46230000D01*
X27227312Y-46063505D01*
X27395299Y-45812095D01*
X27511011Y-45532743D01*
X27570000Y-45236184D01*
X27570000Y-44933816D01*
X27511011Y-44637257D01*
X27395299Y-44357905D01*
X27227312Y-44106495D01*
X27013505Y-43892688D01*
X26762095Y-43724701D01*
X26482743Y-43608989D01*
X26186184Y-43550000D01*
X25883816Y-43550000D01*
X25587257Y-43608989D01*
X25307905Y-43724701D01*
X25056495Y-43892688D01*
X24842688Y-44106495D01*
X24674701Y-44357905D01*
X24558989Y-44637257D01*
X24500000Y-44933816D01*
X24500000Y-45236184D01*
X24558989Y-45532743D01*
X24674701Y-45812095D01*
X24842688Y-46063505D01*
X25009183Y-46230000D01*
X19118711Y-46230000D01*
X19074774Y-46186063D01*
X18905256Y-46072795D01*
X18716898Y-45994774D01*
X18516939Y-45955000D01*
X18313061Y-45955000D01*
X18113102Y-45994774D01*
X17924744Y-46072795D01*
X17755226Y-46186063D01*
X17611063Y-46330226D01*
X17497795Y-46499744D01*
X17419774Y-46688102D01*
X17380000Y-46888061D01*
X17380000Y-47091939D01*
X17419774Y-47291898D01*
X17497795Y-47480256D01*
X17581624Y-47605716D01*
X17436495Y-47702688D01*
X17222688Y-47916495D01*
X17054701Y-48167905D01*
X16938989Y-48447257D01*
X16880000Y-48743816D01*
X10284606Y-48743816D01*
X10364236Y-48481309D01*
X10391943Y-48200000D01*
X10364236Y-47918691D01*
X10282182Y-47648192D01*
X10148932Y-47398899D01*
X9969608Y-47180392D01*
X9751101Y-47001068D01*
X9533953Y-46885000D01*
X10163123Y-46885000D01*
X10351904Y-46866407D01*
X10594127Y-46792929D01*
X10817362Y-46673608D01*
X11013028Y-46513028D01*
X11173608Y-46317362D01*
X11292929Y-46094127D01*
X11366407Y-45851904D01*
X11391217Y-45600000D01*
X11366407Y-45348096D01*
X11292929Y-45105873D01*
X11173608Y-44882638D01*
X11013028Y-44686972D01*
X10817362Y-44526392D01*
X10594127Y-44407071D01*
X10351904Y-44333593D01*
X10163123Y-44315000D01*
X9036877Y-44315000D01*
X8848096Y-44333593D01*
X8605873Y-44407071D01*
X8382638Y-44526392D01*
X8186972Y-44686972D01*
X8026392Y-44882638D01*
X7907071Y-45105873D01*
X7833593Y-45348096D01*
X7808783Y-45600000D01*
X7833593Y-45851904D01*
X7907071Y-46094127D01*
X8026392Y-46317362D01*
X8186972Y-46513028D01*
X8382638Y-46673608D01*
X8553621Y-46765000D01*
X8179508Y-46765000D01*
X7968691Y-46785764D01*
X7698192Y-46867818D01*
X7448899Y-47001068D01*
X7230392Y-47180392D01*
X7051068Y-47398899D01*
X6917818Y-47648192D01*
X6835764Y-47918691D01*
X6808057Y-48200000D01*
X660000Y-48200000D01*
X660000Y-42393816D01*
X16880000Y-42393816D01*
X16880000Y-42696184D01*
X16938989Y-42992743D01*
X17054701Y-43272095D01*
X17222688Y-43523505D01*
X17436495Y-43737312D01*
X17687905Y-43905299D01*
X17967257Y-44021011D01*
X18263816Y-44080000D01*
X18566184Y-44080000D01*
X18862743Y-44021011D01*
X19142095Y-43905299D01*
X19393505Y-43737312D01*
X19607312Y-43523505D01*
X19775299Y-43272095D01*
X19891011Y-42992743D01*
X19950000Y-42696184D01*
X19950000Y-42393816D01*
X29580000Y-42393816D01*
X29580000Y-42696184D01*
X29638989Y-42992743D01*
X29754701Y-43272095D01*
X29922688Y-43523505D01*
X30136495Y-43737312D01*
X30387905Y-43905299D01*
X30667257Y-44021011D01*
X30963816Y-44080000D01*
X31266184Y-44080000D01*
X31562743Y-44021011D01*
X31842095Y-43905299D01*
X32093505Y-43737312D01*
X32307312Y-43523505D01*
X32475299Y-43272095D01*
X32591011Y-42992743D01*
X32650000Y-42696184D01*
X32650000Y-42393816D01*
X32591011Y-42097257D01*
X32475299Y-41817905D01*
X32307312Y-41566495D01*
X32093505Y-41352688D01*
X31842095Y-41184701D01*
X31562743Y-41068989D01*
X31266184Y-41010000D01*
X30963816Y-41010000D01*
X30667257Y-41068989D01*
X30387905Y-41184701D01*
X30136495Y-41352688D01*
X29922688Y-41566495D01*
X29754701Y-41817905D01*
X29638989Y-42097257D01*
X29580000Y-42393816D01*
X19950000Y-42393816D01*
X19891011Y-42097257D01*
X19775299Y-41817905D01*
X19607312Y-41566495D01*
X19393505Y-41352688D01*
X19142095Y-41184701D01*
X18862743Y-41068989D01*
X18566184Y-41010000D01*
X18263816Y-41010000D01*
X17967257Y-41068989D01*
X17687905Y-41184701D01*
X17436495Y-41352688D01*
X17222688Y-41566495D01*
X17054701Y-41817905D01*
X16938989Y-42097257D01*
X16880000Y-42393816D01*
X660000Y-42393816D01*
X660000Y-40282702D01*
X15061903Y-40282702D01*
X15133486Y-40526671D01*
X15388996Y-40647571D01*
X15663184Y-40716300D01*
X15945512Y-40730217D01*
X16225130Y-40688787D01*
X16491292Y-40593603D01*
X16616514Y-40526671D01*
X16688097Y-40282702D01*
X15875000Y-39469605D01*
X15061903Y-40282702D01*
X660000Y-40282702D01*
X660000Y-39360512D01*
X14434783Y-39360512D01*
X14476213Y-39640130D01*
X14571397Y-39906292D01*
X14638329Y-40031514D01*
X14882298Y-40103097D01*
X15695395Y-39290000D01*
X16054605Y-39290000D01*
X16867702Y-40103097D01*
X17111671Y-40031514D01*
X17232571Y-39776004D01*
X17301300Y-39501816D01*
X17315217Y-39219488D01*
X17273787Y-38939870D01*
X17178603Y-38673708D01*
X17156877Y-38633061D01*
X18015000Y-38633061D01*
X18015000Y-38836939D01*
X18054774Y-39036898D01*
X18132795Y-39225256D01*
X18246063Y-39394774D01*
X18390226Y-39538937D01*
X18559744Y-39652205D01*
X18748102Y-39730226D01*
X18948061Y-39770000D01*
X19151939Y-39770000D01*
X19351898Y-39730226D01*
X19540256Y-39652205D01*
X19709774Y-39538937D01*
X19753711Y-39495000D01*
X31046289Y-39495000D01*
X31090226Y-39538937D01*
X31259744Y-39652205D01*
X31448102Y-39730226D01*
X31648061Y-39770000D01*
X31851939Y-39770000D01*
X32051898Y-39730226D01*
X32240256Y-39652205D01*
X32409774Y-39538937D01*
X32553937Y-39394774D01*
X32667205Y-39225256D01*
X32745226Y-39036898D01*
X32785000Y-38836939D01*
X32785000Y-38633061D01*
X32745226Y-38433102D01*
X32667205Y-38244744D01*
X32553937Y-38075226D01*
X32409774Y-37931063D01*
X32240256Y-37817795D01*
X32051898Y-37739774D01*
X31851939Y-37700000D01*
X31648061Y-37700000D01*
X31448102Y-37739774D01*
X31259744Y-37817795D01*
X31090226Y-37931063D01*
X31046289Y-37975000D01*
X19753711Y-37975000D01*
X19709774Y-37931063D01*
X19540256Y-37817795D01*
X19351898Y-37739774D01*
X19151939Y-37700000D01*
X18948061Y-37700000D01*
X18748102Y-37739774D01*
X18559744Y-37817795D01*
X18390226Y-37931063D01*
X18246063Y-38075226D01*
X18132795Y-38244744D01*
X18054774Y-38433102D01*
X18015000Y-38633061D01*
X17156877Y-38633061D01*
X17111671Y-38548486D01*
X16867702Y-38476903D01*
X16054605Y-39290000D01*
X15695395Y-39290000D01*
X14882298Y-38476903D01*
X14638329Y-38548486D01*
X14517429Y-38803996D01*
X14448700Y-39078184D01*
X14434783Y-39360512D01*
X660000Y-39360512D01*
X660000Y-38297298D01*
X15061903Y-38297298D01*
X15875000Y-39110395D01*
X16688097Y-38297298D01*
X16616514Y-38053329D01*
X16361004Y-37932429D01*
X16086816Y-37863700D01*
X15804488Y-37849783D01*
X15524870Y-37891213D01*
X15258708Y-37986397D01*
X15133486Y-38053329D01*
X15061903Y-38297298D01*
X660000Y-38297298D01*
X660000Y-36688665D01*
X11265000Y-36688665D01*
X11265000Y-36971335D01*
X11320147Y-37248574D01*
X11428320Y-37509727D01*
X11585363Y-37744759D01*
X11785241Y-37944637D01*
X12020273Y-38101680D01*
X12281426Y-38209853D01*
X12558665Y-38265000D01*
X12841335Y-38265000D01*
X13118574Y-38209853D01*
X13379727Y-38101680D01*
X13614759Y-37944637D01*
X13814637Y-37744759D01*
X13918043Y-37590000D01*
X25331289Y-37590000D01*
X25375226Y-37633937D01*
X25544744Y-37747205D01*
X25733102Y-37825226D01*
X25933061Y-37865000D01*
X26136939Y-37865000D01*
X26336898Y-37825226D01*
X26525256Y-37747205D01*
X26694774Y-37633937D01*
X26838937Y-37489774D01*
X26952205Y-37320256D01*
X27030226Y-37131898D01*
X27070000Y-36931939D01*
X27070000Y-36728061D01*
X27030226Y-36528102D01*
X26952205Y-36339744D01*
X26838937Y-36170226D01*
X26694774Y-36026063D01*
X26525256Y-35912795D01*
X26336898Y-35834774D01*
X26136939Y-35795000D01*
X25933061Y-35795000D01*
X25733102Y-35834774D01*
X25544744Y-35912795D01*
X25375226Y-36026063D01*
X25331289Y-36070000D01*
X13918043Y-36070000D01*
X13814637Y-35915241D01*
X13614759Y-35715363D01*
X13379727Y-35558320D01*
X13118574Y-35450147D01*
X12841335Y-35395000D01*
X12558665Y-35395000D01*
X12281426Y-35450147D01*
X12020273Y-35558320D01*
X11785241Y-35715363D01*
X11585363Y-35915241D01*
X11428320Y-36150273D01*
X11320147Y-36411426D01*
X11265000Y-36688665D01*
X660000Y-36688665D01*
X660000Y-32742702D01*
X1091903Y-32742702D01*
X1163486Y-32986671D01*
X1418996Y-33107571D01*
X1693184Y-33176300D01*
X1975512Y-33190217D01*
X2255130Y-33148787D01*
X2521292Y-33053603D01*
X2646514Y-32986671D01*
X2718097Y-32742702D01*
X1905000Y-31929605D01*
X1091903Y-32742702D01*
X660000Y-32742702D01*
X660000Y-32475931D01*
X668329Y-32491514D01*
X912298Y-32563097D01*
X1725395Y-31750000D01*
X2084605Y-31750000D01*
X2897702Y-32563097D01*
X3141671Y-32491514D01*
X3262571Y-32236004D01*
X3331300Y-31961816D01*
X3345217Y-31679488D01*
X3303787Y-31399870D01*
X3208603Y-31133708D01*
X3141671Y-31008486D01*
X2897702Y-30936903D01*
X2084605Y-31750000D01*
X1725395Y-31750000D01*
X912298Y-30936903D01*
X668329Y-31008486D01*
X660000Y-31026089D01*
X660000Y-30757298D01*
X1091903Y-30757298D01*
X1905000Y-31570395D01*
X2718097Y-30757298D01*
X2646514Y-30513329D01*
X2391004Y-30392429D01*
X2116816Y-30323700D01*
X1834488Y-30309783D01*
X1554870Y-30351213D01*
X1288708Y-30446397D01*
X1163486Y-30513329D01*
X1091903Y-30757298D01*
X660000Y-30757298D01*
X660000Y-29567702D01*
X1091903Y-29567702D01*
X1163486Y-29811671D01*
X1418996Y-29932571D01*
X1693184Y-30001300D01*
X1975512Y-30015217D01*
X2255130Y-29973787D01*
X2521292Y-29878603D01*
X2646514Y-29811671D01*
X2718097Y-29567702D01*
X1905000Y-28754605D01*
X1091903Y-29567702D01*
X660000Y-29567702D01*
X660000Y-29300931D01*
X668329Y-29316514D01*
X912298Y-29388097D01*
X1725395Y-28575000D01*
X2084605Y-28575000D01*
X2897702Y-29388097D01*
X3141671Y-29316514D01*
X3262571Y-29061004D01*
X3331300Y-28786816D01*
X3345217Y-28504488D01*
X3334724Y-28433665D01*
X8090000Y-28433665D01*
X8090000Y-28716335D01*
X8145147Y-28993574D01*
X8253320Y-29254727D01*
X8410363Y-29489759D01*
X8610241Y-29689637D01*
X8845273Y-29846680D01*
X9106426Y-29954853D01*
X9383665Y-30010000D01*
X9666335Y-30010000D01*
X9943574Y-29954853D01*
X10204727Y-29846680D01*
X10439759Y-29689637D01*
X10639637Y-29489759D01*
X10743043Y-29335000D01*
X11265000Y-29335000D01*
X11265000Y-29351335D01*
X11320147Y-29628574D01*
X11428320Y-29889727D01*
X11585363Y-30124759D01*
X11785241Y-30324637D01*
X12020273Y-30481680D01*
X12281426Y-30589853D01*
X12558665Y-30645000D01*
X12841335Y-30645000D01*
X13118574Y-30589853D01*
X13379727Y-30481680D01*
X13614759Y-30324637D01*
X13814637Y-30124759D01*
X13918043Y-29970000D01*
X17429099Y-29970000D01*
X17451068Y-30011101D01*
X17630392Y-30229608D01*
X17848899Y-30408932D01*
X17981858Y-30480000D01*
X17848899Y-30551068D01*
X17630392Y-30730392D01*
X17451068Y-30948899D01*
X17429099Y-30990000D01*
X17093043Y-30990000D01*
X16989637Y-30835241D01*
X16789759Y-30635363D01*
X16554727Y-30478320D01*
X16293574Y-30370147D01*
X16016335Y-30315000D01*
X15733665Y-30315000D01*
X15456426Y-30370147D01*
X15195273Y-30478320D01*
X14960241Y-30635363D01*
X14760363Y-30835241D01*
X14656957Y-30990000D01*
X10743043Y-30990000D01*
X10639637Y-30835241D01*
X10439759Y-30635363D01*
X10204727Y-30478320D01*
X9943574Y-30370147D01*
X9666335Y-30315000D01*
X9383665Y-30315000D01*
X9106426Y-30370147D01*
X8845273Y-30478320D01*
X8610241Y-30635363D01*
X8410363Y-30835241D01*
X8253320Y-31070273D01*
X8145147Y-31331426D01*
X8090000Y-31608665D01*
X8090000Y-31891335D01*
X8145147Y-32168574D01*
X8253320Y-32429727D01*
X8410363Y-32664759D01*
X8610241Y-32864637D01*
X8845273Y-33021680D01*
X9106426Y-33129853D01*
X9383665Y-33185000D01*
X9666335Y-33185000D01*
X9943574Y-33129853D01*
X10204727Y-33021680D01*
X10439759Y-32864637D01*
X10639637Y-32664759D01*
X10743043Y-32510000D01*
X14656957Y-32510000D01*
X14760363Y-32664759D01*
X14960241Y-32864637D01*
X15192759Y-33020000D01*
X14960241Y-33175363D01*
X14760363Y-33375241D01*
X14603320Y-33610273D01*
X14495147Y-33871426D01*
X14440000Y-34148665D01*
X14440000Y-34431335D01*
X14495147Y-34708574D01*
X14603320Y-34969727D01*
X14760363Y-35204759D01*
X14960241Y-35404637D01*
X15195273Y-35561680D01*
X15456426Y-35669853D01*
X15733665Y-35725000D01*
X16016335Y-35725000D01*
X16293574Y-35669853D01*
X16554727Y-35561680D01*
X16789759Y-35404637D01*
X16989637Y-35204759D01*
X17093043Y-35050000D01*
X17429099Y-35050000D01*
X17451068Y-35091101D01*
X17630392Y-35309608D01*
X17848899Y-35488932D01*
X18098192Y-35622182D01*
X18368691Y-35704236D01*
X18579508Y-35725000D01*
X19520492Y-35725000D01*
X19731309Y-35704236D01*
X20001808Y-35622182D01*
X20251101Y-35488932D01*
X20469608Y-35309608D01*
X20648932Y-35091101D01*
X20782182Y-34841808D01*
X20864236Y-34571309D01*
X20891943Y-34290000D01*
X20864236Y-34008691D01*
X20782182Y-33738192D01*
X20648932Y-33488899D01*
X20469608Y-33270392D01*
X20251101Y-33091068D01*
X20118142Y-33020000D01*
X20251101Y-32948932D01*
X20469608Y-32769608D01*
X20648932Y-32551101D01*
X20782182Y-32301808D01*
X20864236Y-32031309D01*
X20891943Y-31750000D01*
X20864236Y-31468691D01*
X20782182Y-31198192D01*
X20648932Y-30948899D01*
X20469608Y-30730392D01*
X20251101Y-30551068D01*
X20118142Y-30480000D01*
X20251101Y-30408932D01*
X20469608Y-30229608D01*
X20648932Y-30011101D01*
X20782182Y-29761808D01*
X20864236Y-29491309D01*
X20891943Y-29210000D01*
X20864236Y-28928691D01*
X20782182Y-28658192D01*
X20648932Y-28408899D01*
X20469608Y-28190392D01*
X20356518Y-28097581D01*
X20374482Y-28095812D01*
X20494180Y-28059502D01*
X20604494Y-28000537D01*
X20701185Y-27921185D01*
X20780537Y-27824494D01*
X20839502Y-27714180D01*
X20875812Y-27594482D01*
X20888072Y-27470000D01*
X20888072Y-26670000D01*
X24828057Y-26670000D01*
X24855764Y-26951309D01*
X24937818Y-27221808D01*
X25071068Y-27471101D01*
X25250392Y-27689608D01*
X25468899Y-27868932D01*
X25601858Y-27940000D01*
X25468899Y-28011068D01*
X25250392Y-28190392D01*
X25071068Y-28408899D01*
X24937818Y-28658192D01*
X24855764Y-28928691D01*
X24828057Y-29210000D01*
X24855764Y-29491309D01*
X24937818Y-29761808D01*
X25071068Y-30011101D01*
X25250392Y-30229608D01*
X25468899Y-30408932D01*
X25601858Y-30480000D01*
X25468899Y-30551068D01*
X25250392Y-30730392D01*
X25071068Y-30948899D01*
X24937818Y-31198192D01*
X24855764Y-31468691D01*
X24828057Y-31750000D01*
X24855764Y-32031309D01*
X24937818Y-32301808D01*
X25071068Y-32551101D01*
X25250392Y-32769608D01*
X25468899Y-32948932D01*
X25601858Y-33020000D01*
X25468899Y-33091068D01*
X25250392Y-33270392D01*
X25071068Y-33488899D01*
X24937818Y-33738192D01*
X24855764Y-34008691D01*
X24828057Y-34290000D01*
X24855764Y-34571309D01*
X24937818Y-34841808D01*
X25071068Y-35091101D01*
X25250392Y-35309608D01*
X25468899Y-35488932D01*
X25718192Y-35622182D01*
X25988691Y-35704236D01*
X26199508Y-35725000D01*
X27140492Y-35725000D01*
X27351309Y-35704236D01*
X27621808Y-35622182D01*
X27871101Y-35488932D01*
X28089608Y-35309608D01*
X28111689Y-35282702D01*
X29031903Y-35282702D01*
X29103486Y-35526671D01*
X29358996Y-35647571D01*
X29633184Y-35716300D01*
X29915512Y-35730217D01*
X30195130Y-35688787D01*
X30461292Y-35593603D01*
X30586514Y-35526671D01*
X30658097Y-35282702D01*
X29845000Y-34469605D01*
X29031903Y-35282702D01*
X28111689Y-35282702D01*
X28268932Y-35091101D01*
X28402182Y-34841808D01*
X28455490Y-34666072D01*
X28541397Y-34906292D01*
X28608329Y-35031514D01*
X28852298Y-35103097D01*
X29665395Y-34290000D01*
X30024605Y-34290000D01*
X30837702Y-35103097D01*
X31081671Y-35031514D01*
X31202571Y-34776004D01*
X31271300Y-34501816D01*
X31285217Y-34219488D01*
X31243787Y-33939870D01*
X31148603Y-33673708D01*
X31081671Y-33548486D01*
X30837702Y-33476903D01*
X30024605Y-34290000D01*
X29665395Y-34290000D01*
X28852298Y-33476903D01*
X28608329Y-33548486D01*
X28487429Y-33803996D01*
X28457890Y-33921839D01*
X28402182Y-33738192D01*
X28268932Y-33488899D01*
X28111690Y-33297298D01*
X29031903Y-33297298D01*
X29845000Y-34110395D01*
X30658097Y-33297298D01*
X30586514Y-33053329D01*
X30331004Y-32932429D01*
X30056816Y-32863700D01*
X29774488Y-32849783D01*
X29494870Y-32891213D01*
X29228708Y-32986397D01*
X29103486Y-33053329D01*
X29031903Y-33297298D01*
X28111690Y-33297298D01*
X28089608Y-33270392D01*
X27871101Y-33091068D01*
X27738142Y-33020000D01*
X27871101Y-32948932D01*
X28089608Y-32769608D01*
X28268932Y-32551101D01*
X28290901Y-32510000D01*
X33586289Y-32510000D01*
X33630226Y-32553937D01*
X33799744Y-32667205D01*
X33988102Y-32745226D01*
X34188061Y-32785000D01*
X34391939Y-32785000D01*
X34591898Y-32745226D01*
X34780256Y-32667205D01*
X34949774Y-32553937D01*
X35093937Y-32409774D01*
X35207205Y-32240256D01*
X35285226Y-32051898D01*
X35325000Y-31851939D01*
X35325000Y-31648061D01*
X35285226Y-31448102D01*
X35207205Y-31259744D01*
X35093937Y-31090226D01*
X34949774Y-30946063D01*
X34780256Y-30832795D01*
X34591898Y-30754774D01*
X34391939Y-30715000D01*
X34188061Y-30715000D01*
X33988102Y-30754774D01*
X33799744Y-30832795D01*
X33630226Y-30946063D01*
X33586289Y-30990000D01*
X28290901Y-30990000D01*
X28268932Y-30948899D01*
X28089608Y-30730392D01*
X27871101Y-30551068D01*
X27738142Y-30480000D01*
X27871101Y-30408932D01*
X28089608Y-30229608D01*
X28268932Y-30011101D01*
X28290901Y-29970000D01*
X28573502Y-29970000D01*
X28730363Y-30204759D01*
X28930241Y-30404637D01*
X29165273Y-30561680D01*
X29426426Y-30669853D01*
X29703665Y-30725000D01*
X29986335Y-30725000D01*
X30263574Y-30669853D01*
X30524727Y-30561680D01*
X30759759Y-30404637D01*
X30959637Y-30204759D01*
X31116498Y-29970000D01*
X32316289Y-29970000D01*
X32360226Y-30013937D01*
X32529744Y-30127205D01*
X32718102Y-30205226D01*
X32918061Y-30245000D01*
X33121939Y-30245000D01*
X33321898Y-30205226D01*
X33510256Y-30127205D01*
X33679774Y-30013937D01*
X33823937Y-29869774D01*
X33937205Y-29700256D01*
X34015226Y-29511898D01*
X34055000Y-29311939D01*
X34055000Y-29108061D01*
X34015226Y-28908102D01*
X33937205Y-28719744D01*
X33823937Y-28550226D01*
X33679774Y-28406063D01*
X33510256Y-28292795D01*
X33321898Y-28214774D01*
X33121939Y-28175000D01*
X32918061Y-28175000D01*
X32718102Y-28214774D01*
X32529744Y-28292795D01*
X32360226Y-28406063D01*
X32316289Y-28450000D01*
X31009589Y-28450000D01*
X30959637Y-28375241D01*
X30759759Y-28175363D01*
X30524727Y-28018320D01*
X30263574Y-27910147D01*
X29986335Y-27855000D01*
X29703665Y-27855000D01*
X29426426Y-27910147D01*
X29165273Y-28018320D01*
X28930241Y-28175363D01*
X28730363Y-28375241D01*
X28680411Y-28450000D01*
X28290901Y-28450000D01*
X28268932Y-28408899D01*
X28089608Y-28190392D01*
X27871101Y-28011068D01*
X27738142Y-27940000D01*
X27871101Y-27868932D01*
X28089608Y-27689608D01*
X28268932Y-27471101D01*
X28402182Y-27221808D01*
X28484236Y-26951309D01*
X28511943Y-26670000D01*
X28484236Y-26388691D01*
X28402182Y-26118192D01*
X28268932Y-25868899D01*
X28089608Y-25650392D01*
X27871101Y-25471068D01*
X27621808Y-25337818D01*
X27351309Y-25255764D01*
X27140492Y-25235000D01*
X26199508Y-25235000D01*
X25988691Y-25255764D01*
X25718192Y-25337818D01*
X25468899Y-25471068D01*
X25250392Y-25650392D01*
X25071068Y-25868899D01*
X24937818Y-26118192D01*
X24855764Y-26388691D01*
X24828057Y-26670000D01*
X20888072Y-26670000D01*
X20888072Y-25870000D01*
X20875812Y-25745518D01*
X20839502Y-25625820D01*
X20780537Y-25515506D01*
X20701185Y-25418815D01*
X20604494Y-25339463D01*
X20494180Y-25280498D01*
X20374482Y-25244188D01*
X20250000Y-25231928D01*
X17850000Y-25231928D01*
X17725518Y-25244188D01*
X17605820Y-25280498D01*
X17495506Y-25339463D01*
X17398815Y-25418815D01*
X17319463Y-25515506D01*
X17260498Y-25625820D01*
X17224188Y-25745518D01*
X17211928Y-25870000D01*
X17211928Y-27470000D01*
X17224188Y-27594482D01*
X17260498Y-27714180D01*
X17319463Y-27824494D01*
X17398815Y-27921185D01*
X17495506Y-28000537D01*
X17605820Y-28059502D01*
X17725518Y-28095812D01*
X17743482Y-28097581D01*
X17630392Y-28190392D01*
X17451068Y-28408899D01*
X17429099Y-28450000D01*
X13918043Y-28450000D01*
X13814637Y-28295241D01*
X13614759Y-28095363D01*
X13379727Y-27938320D01*
X13118574Y-27830147D01*
X12841335Y-27775000D01*
X12558665Y-27775000D01*
X12281426Y-27830147D01*
X12258700Y-27839561D01*
X12213986Y-27825997D01*
X12102333Y-27815000D01*
X12102322Y-27815000D01*
X12065000Y-27811324D01*
X12027678Y-27815000D01*
X10743043Y-27815000D01*
X10639637Y-27660241D01*
X10439759Y-27460363D01*
X10204727Y-27303320D01*
X9943574Y-27195147D01*
X9666335Y-27140000D01*
X9383665Y-27140000D01*
X9106426Y-27195147D01*
X8845273Y-27303320D01*
X8610241Y-27460363D01*
X8410363Y-27660241D01*
X8253320Y-27895273D01*
X8145147Y-28156426D01*
X8090000Y-28433665D01*
X3334724Y-28433665D01*
X3303787Y-28224870D01*
X3208603Y-27958708D01*
X3141671Y-27833486D01*
X2897702Y-27761903D01*
X2084605Y-28575000D01*
X1725395Y-28575000D01*
X912298Y-27761903D01*
X668329Y-27833486D01*
X660000Y-27851089D01*
X660000Y-27582298D01*
X1091903Y-27582298D01*
X1905000Y-28395395D01*
X2718097Y-27582298D01*
X2646514Y-27338329D01*
X2391004Y-27217429D01*
X2116816Y-27148700D01*
X1834488Y-27134783D01*
X1554870Y-27176213D01*
X1288708Y-27271397D01*
X1163486Y-27338329D01*
X1091903Y-27582298D01*
X660000Y-27582298D01*
X660000Y-23988665D01*
X14440000Y-23988665D01*
X14440000Y-24271335D01*
X14495147Y-24548574D01*
X14603320Y-24809727D01*
X14760363Y-25044759D01*
X14960241Y-25244637D01*
X15195273Y-25401680D01*
X15456426Y-25509853D01*
X15733665Y-25565000D01*
X16016335Y-25565000D01*
X16293574Y-25509853D01*
X16554727Y-25401680D01*
X16789759Y-25244637D01*
X16989637Y-25044759D01*
X17146680Y-24809727D01*
X17254853Y-24548574D01*
X17310000Y-24271335D01*
X17310000Y-23988665D01*
X17282955Y-23852702D01*
X25301903Y-23852702D01*
X25373486Y-24096671D01*
X25628996Y-24217571D01*
X25903184Y-24286300D01*
X26185512Y-24300217D01*
X26465130Y-24258787D01*
X26731292Y-24163603D01*
X26856514Y-24096671D01*
X26928097Y-23852702D01*
X26115000Y-23039605D01*
X25301903Y-23852702D01*
X17282955Y-23852702D01*
X17254853Y-23711426D01*
X17146680Y-23450273D01*
X16989637Y-23215241D01*
X16789759Y-23015363D01*
X16662771Y-22930512D01*
X24674783Y-22930512D01*
X24716213Y-23210130D01*
X24811397Y-23476292D01*
X24878329Y-23601514D01*
X25122298Y-23673097D01*
X25935395Y-22860000D01*
X26294605Y-22860000D01*
X27107702Y-23673097D01*
X27351671Y-23601514D01*
X27472571Y-23346004D01*
X27541300Y-23071816D01*
X27555217Y-22789488D01*
X27513787Y-22509870D01*
X27418603Y-22243708D01*
X27351671Y-22118486D01*
X27107702Y-22046903D01*
X26294605Y-22860000D01*
X25935395Y-22860000D01*
X25122298Y-22046903D01*
X24878329Y-22118486D01*
X24757429Y-22373996D01*
X24688700Y-22648184D01*
X24674783Y-22930512D01*
X16662771Y-22930512D01*
X16554727Y-22858320D01*
X16293574Y-22750147D01*
X16016335Y-22695000D01*
X15733665Y-22695000D01*
X15456426Y-22750147D01*
X15195273Y-22858320D01*
X14960241Y-23015363D01*
X14760363Y-23215241D01*
X14603320Y-23450273D01*
X14495147Y-23711426D01*
X14440000Y-23988665D01*
X660000Y-23988665D01*
X660000Y-20178665D01*
X15075000Y-20178665D01*
X15075000Y-20461335D01*
X15130147Y-20738574D01*
X15238320Y-20999727D01*
X15395363Y-21234759D01*
X15595241Y-21434637D01*
X15830273Y-21591680D01*
X16091426Y-21699853D01*
X16368665Y-21755000D01*
X16651335Y-21755000D01*
X16928574Y-21699853D01*
X17189727Y-21591680D01*
X17424759Y-21434637D01*
X17624637Y-21234759D01*
X17728043Y-21080000D01*
X18377678Y-21080000D01*
X18415000Y-21083676D01*
X18452322Y-21080000D01*
X18452333Y-21080000D01*
X18563986Y-21069003D01*
X18707247Y-21025546D01*
X18839276Y-20954974D01*
X18955001Y-20860001D01*
X18978804Y-20830997D01*
X19361114Y-20448688D01*
X19543665Y-20485000D01*
X19826335Y-20485000D01*
X20103574Y-20429853D01*
X20126300Y-20420439D01*
X20171014Y-20434003D01*
X20320000Y-20448677D01*
X20357333Y-20445000D01*
X22056928Y-20445000D01*
X22056928Y-20885000D01*
X22069188Y-21009482D01*
X22105498Y-21129180D01*
X22164463Y-21239494D01*
X22243815Y-21336185D01*
X22340506Y-21415537D01*
X22450820Y-21474502D01*
X22570518Y-21510812D01*
X22695000Y-21523072D01*
X24295000Y-21523072D01*
X24419482Y-21510812D01*
X24539180Y-21474502D01*
X24649494Y-21415537D01*
X24746185Y-21336185D01*
X24825537Y-21239494D01*
X24884502Y-21129180D01*
X24920812Y-21009482D01*
X24922581Y-20991517D01*
X25015393Y-21104608D01*
X25233900Y-21283932D01*
X25483193Y-21417182D01*
X25702213Y-21483620D01*
X25498708Y-21556397D01*
X25373486Y-21623329D01*
X25301903Y-21867298D01*
X26115000Y-22680395D01*
X26928097Y-21867298D01*
X26856514Y-21623329D01*
X26601004Y-21502429D01*
X26439358Y-21461910D01*
X26586808Y-21417182D01*
X26836101Y-21283932D01*
X27054608Y-21104608D01*
X27233932Y-20886101D01*
X27302265Y-20758259D01*
X27452399Y-20987839D01*
X27650105Y-21189500D01*
X27883354Y-21348715D01*
X28143182Y-21459367D01*
X28225961Y-21476904D01*
X28448000Y-21354915D01*
X28448000Y-19812000D01*
X28428000Y-19812000D01*
X28428000Y-19558000D01*
X28448000Y-19558000D01*
X28448000Y-18015085D01*
X28702000Y-18015085D01*
X28702000Y-19558000D01*
X28722000Y-19558000D01*
X28722000Y-19812000D01*
X28702000Y-19812000D01*
X28702000Y-21354915D01*
X28924039Y-21476904D01*
X29006818Y-21459367D01*
X29266646Y-21348715D01*
X29499895Y-21189500D01*
X29697601Y-20987839D01*
X29847735Y-20758259D01*
X29916068Y-20886101D01*
X30095393Y-21104608D01*
X30313900Y-21283932D01*
X30563193Y-21417182D01*
X30741323Y-21471216D01*
X30696426Y-21480147D01*
X30435273Y-21588320D01*
X30200241Y-21745363D01*
X30000363Y-21945241D01*
X29843320Y-22180273D01*
X29735147Y-22441426D01*
X29680000Y-22718665D01*
X29680000Y-23001335D01*
X29735147Y-23278574D01*
X29843320Y-23539727D01*
X30000363Y-23774759D01*
X30200241Y-23974637D01*
X30435273Y-24131680D01*
X30696426Y-24239853D01*
X30973665Y-24295000D01*
X31256335Y-24295000D01*
X31533574Y-24239853D01*
X31794727Y-24131680D01*
X32029759Y-23974637D01*
X32229637Y-23774759D01*
X32386680Y-23539727D01*
X32494853Y-23278574D01*
X32550000Y-23001335D01*
X32550000Y-22718665D01*
X32494853Y-22441426D01*
X32386680Y-22180273D01*
X32229637Y-21945241D01*
X32029759Y-21745363D01*
X31794727Y-21588320D01*
X31533574Y-21480147D01*
X31488678Y-21471217D01*
X31666808Y-21417182D01*
X31916101Y-21283932D01*
X32134608Y-21104608D01*
X32313932Y-20886101D01*
X32447182Y-20636808D01*
X32529236Y-20366309D01*
X32550000Y-20155491D01*
X32550000Y-19214508D01*
X32529236Y-19003691D01*
X32447182Y-18733192D01*
X32313932Y-18483899D01*
X32134607Y-18265392D01*
X31916100Y-18086068D01*
X31666807Y-17952818D01*
X31396308Y-17870764D01*
X31115000Y-17843057D01*
X30833691Y-17870764D01*
X30563192Y-17952818D01*
X30313899Y-18086068D01*
X30095392Y-18265393D01*
X29916068Y-18483900D01*
X29847735Y-18611742D01*
X29697601Y-18382161D01*
X29499895Y-18180500D01*
X29266646Y-18021285D01*
X29006818Y-17910633D01*
X28924039Y-17893096D01*
X28702000Y-18015085D01*
X28448000Y-18015085D01*
X28225961Y-17893096D01*
X28143182Y-17910633D01*
X27883354Y-18021285D01*
X27650105Y-18180500D01*
X27452399Y-18382161D01*
X27302265Y-18611741D01*
X27233932Y-18483899D01*
X27054607Y-18265392D01*
X26836100Y-18086068D01*
X26586807Y-17952818D01*
X26316308Y-17870764D01*
X26035000Y-17843057D01*
X25753691Y-17870764D01*
X25483192Y-17952818D01*
X25233899Y-18086068D01*
X25015392Y-18265393D01*
X24922581Y-18378483D01*
X24920812Y-18360518D01*
X24884502Y-18240820D01*
X24825537Y-18130506D01*
X24746185Y-18033815D01*
X24649494Y-17954463D01*
X24539180Y-17895498D01*
X24419482Y-17859188D01*
X24295000Y-17846928D01*
X22695000Y-17846928D01*
X22570518Y-17859188D01*
X22450820Y-17895498D01*
X22340506Y-17954463D01*
X22243815Y-18033815D01*
X22164463Y-18130506D01*
X22105498Y-18240820D01*
X22069188Y-18360518D01*
X22056928Y-18485000D01*
X22056928Y-18925000D01*
X21120000Y-18925000D01*
X21120000Y-18908665D01*
X21064853Y-18631426D01*
X20956680Y-18370273D01*
X20799637Y-18135241D01*
X20599759Y-17935363D01*
X20364727Y-17778320D01*
X20103574Y-17670147D01*
X19826335Y-17615000D01*
X19543665Y-17615000D01*
X19266426Y-17670147D01*
X19005273Y-17778320D01*
X18770241Y-17935363D01*
X18570363Y-18135241D01*
X18413320Y-18370273D01*
X18305147Y-18631426D01*
X18250000Y-18908665D01*
X18250000Y-19191335D01*
X18286312Y-19373886D01*
X18100199Y-19560000D01*
X17728043Y-19560000D01*
X17624637Y-19405241D01*
X17424759Y-19205363D01*
X17189727Y-19048320D01*
X16928574Y-18940147D01*
X16651335Y-18885000D01*
X16368665Y-18885000D01*
X16091426Y-18940147D01*
X15830273Y-19048320D01*
X15595241Y-19205363D01*
X15395363Y-19405241D01*
X15238320Y-19640273D01*
X15130147Y-19901426D01*
X15075000Y-20178665D01*
X660000Y-20178665D01*
X660000Y-16368665D01*
X4280000Y-16368665D01*
X4280000Y-16651335D01*
X4335147Y-16928574D01*
X4443320Y-17189727D01*
X4600363Y-17424759D01*
X4800241Y-17624637D01*
X5035273Y-17781680D01*
X5296426Y-17889853D01*
X5573665Y-17945000D01*
X5856335Y-17945000D01*
X6133574Y-17889853D01*
X6394727Y-17781680D01*
X6629759Y-17624637D01*
X6829637Y-17424759D01*
X6986680Y-17189727D01*
X7094853Y-16928574D01*
X7150000Y-16651335D01*
X7150000Y-16368665D01*
X11900000Y-16368665D01*
X11900000Y-16651335D01*
X11955147Y-16928574D01*
X12063320Y-17189727D01*
X12220363Y-17424759D01*
X12420241Y-17624637D01*
X12655273Y-17781680D01*
X12916426Y-17889853D01*
X13193665Y-17945000D01*
X13476335Y-17945000D01*
X13753574Y-17889853D01*
X14014727Y-17781680D01*
X14249759Y-17624637D01*
X14449637Y-17424759D01*
X14553043Y-17270000D01*
X15806289Y-17270000D01*
X15850226Y-17313937D01*
X16019744Y-17427205D01*
X16208102Y-17505226D01*
X16408061Y-17545000D01*
X16611939Y-17545000D01*
X16811898Y-17505226D01*
X17000256Y-17427205D01*
X17169774Y-17313937D01*
X17213711Y-17270000D01*
X18981289Y-17270000D01*
X19025226Y-17313937D01*
X19194744Y-17427205D01*
X19383102Y-17505226D01*
X19583061Y-17545000D01*
X19786939Y-17545000D01*
X19986898Y-17505226D01*
X20175256Y-17427205D01*
X20344774Y-17313937D01*
X20388711Y-17270000D01*
X25331289Y-17270000D01*
X25375226Y-17313937D01*
X25544744Y-17427205D01*
X25733102Y-17505226D01*
X25933061Y-17545000D01*
X26136939Y-17545000D01*
X26336898Y-17505226D01*
X26525256Y-17427205D01*
X26694774Y-17313937D01*
X26838937Y-17169774D01*
X26952205Y-17000256D01*
X27030226Y-16811898D01*
X27070000Y-16611939D01*
X27070000Y-16408061D01*
X27030226Y-16208102D01*
X26952205Y-16019744D01*
X26838937Y-15850226D01*
X26694774Y-15706063D01*
X26525256Y-15592795D01*
X26336898Y-15514774D01*
X26136939Y-15475000D01*
X25933061Y-15475000D01*
X25733102Y-15514774D01*
X25544744Y-15592795D01*
X25375226Y-15706063D01*
X25331289Y-15750000D01*
X20388711Y-15750000D01*
X20344774Y-15706063D01*
X20175256Y-15592795D01*
X19986898Y-15514774D01*
X19831774Y-15483918D01*
X20103574Y-15429853D01*
X20364727Y-15321680D01*
X20599759Y-15164637D01*
X20799637Y-14964759D01*
X20956680Y-14729727D01*
X21064853Y-14468574D01*
X21120000Y-14191335D01*
X21120000Y-13908665D01*
X21064853Y-13631426D01*
X20956680Y-13370273D01*
X20799637Y-13135241D01*
X20599759Y-12935363D01*
X20364727Y-12778320D01*
X20103574Y-12670147D01*
X19826335Y-12615000D01*
X19543665Y-12615000D01*
X19266426Y-12670147D01*
X19005273Y-12778320D01*
X18770241Y-12935363D01*
X18570363Y-13135241D01*
X18413320Y-13370273D01*
X18305147Y-13631426D01*
X18250000Y-13908665D01*
X18250000Y-14191335D01*
X18305147Y-14468574D01*
X18413320Y-14729727D01*
X18570363Y-14964759D01*
X18770241Y-15164637D01*
X19005273Y-15321680D01*
X19266426Y-15429853D01*
X19538226Y-15483918D01*
X19383102Y-15514774D01*
X19194744Y-15592795D01*
X19025226Y-15706063D01*
X18981289Y-15750000D01*
X17213711Y-15750000D01*
X17169774Y-15706063D01*
X17000256Y-15592795D01*
X16811898Y-15514774D01*
X16611939Y-15475000D01*
X16408061Y-15475000D01*
X16208102Y-15514774D01*
X16019744Y-15592795D01*
X15850226Y-15706063D01*
X15806289Y-15750000D01*
X14553043Y-15750000D01*
X14449637Y-15595241D01*
X14249759Y-15395363D01*
X14014727Y-15238320D01*
X13753574Y-15130147D01*
X13476335Y-15075000D01*
X13193665Y-15075000D01*
X12916426Y-15130147D01*
X12655273Y-15238320D01*
X12420241Y-15395363D01*
X12220363Y-15595241D01*
X12063320Y-15830273D01*
X11955147Y-16091426D01*
X11900000Y-16368665D01*
X7150000Y-16368665D01*
X7094853Y-16091426D01*
X6986680Y-15830273D01*
X6829637Y-15595241D01*
X6629759Y-15395363D01*
X6394727Y-15238320D01*
X6133574Y-15130147D01*
X5856335Y-15075000D01*
X5573665Y-15075000D01*
X5296426Y-15130147D01*
X5035273Y-15238320D01*
X4800241Y-15395363D01*
X4600363Y-15595241D01*
X4443320Y-15830273D01*
X4335147Y-16091426D01*
X4280000Y-16368665D01*
X660000Y-16368665D01*
X660000Y-13690000D01*
X4108783Y-13690000D01*
X4133593Y-13941904D01*
X4207071Y-14184127D01*
X4326392Y-14407362D01*
X4486972Y-14603028D01*
X4682638Y-14763608D01*
X4905873Y-14882929D01*
X5148096Y-14956407D01*
X5336877Y-14975000D01*
X6463123Y-14975000D01*
X6651904Y-14956407D01*
X6894127Y-14882929D01*
X7117362Y-14763608D01*
X7313028Y-14603028D01*
X7473608Y-14407362D01*
X7592929Y-14184127D01*
X7666407Y-13941904D01*
X7691217Y-13690000D01*
X7666407Y-13438096D01*
X7592929Y-13195873D01*
X7473608Y-12972638D01*
X7313028Y-12776972D01*
X7117362Y-12616392D01*
X7029650Y-12569509D01*
X11565000Y-12569509D01*
X11565000Y-13410492D01*
X11585764Y-13621309D01*
X11667818Y-13891808D01*
X11801068Y-14141101D01*
X11980393Y-14359608D01*
X12198900Y-14538932D01*
X12448193Y-14672182D01*
X12718692Y-14754236D01*
X13000000Y-14781943D01*
X13281309Y-14754236D01*
X13551808Y-14672182D01*
X13801101Y-14538932D01*
X14019608Y-14359608D01*
X14198932Y-14141101D01*
X14332182Y-13891808D01*
X14414236Y-13621308D01*
X14435000Y-13410491D01*
X14435000Y-12569508D01*
X14433933Y-12558665D01*
X15075000Y-12558665D01*
X15075000Y-12841335D01*
X15130147Y-13118574D01*
X15238320Y-13379727D01*
X15395363Y-13614759D01*
X15595241Y-13814637D01*
X15830273Y-13971680D01*
X16091426Y-14079853D01*
X16368665Y-14135000D01*
X16651335Y-14135000D01*
X16928574Y-14079853D01*
X17189727Y-13971680D01*
X17424759Y-13814637D01*
X17624637Y-13614759D01*
X17781680Y-13379727D01*
X17889853Y-13118574D01*
X17945000Y-12841335D01*
X17945000Y-12558665D01*
X17889853Y-12281426D01*
X17781680Y-12020273D01*
X17624637Y-11785241D01*
X17424759Y-11585363D01*
X17189727Y-11428320D01*
X16928574Y-11320147D01*
X16651335Y-11265000D01*
X16368665Y-11265000D01*
X16091426Y-11320147D01*
X15830273Y-11428320D01*
X15595241Y-11585363D01*
X15395363Y-11785241D01*
X15238320Y-12020273D01*
X15130147Y-12281426D01*
X15075000Y-12558665D01*
X14433933Y-12558665D01*
X14414236Y-12358691D01*
X14332182Y-12088192D01*
X14198932Y-11838899D01*
X14019607Y-11620392D01*
X13801100Y-11441068D01*
X13551807Y-11307818D01*
X13281308Y-11225764D01*
X13000000Y-11198057D01*
X12718691Y-11225764D01*
X12448192Y-11307818D01*
X12198899Y-11441068D01*
X11980392Y-11620393D01*
X11801068Y-11838900D01*
X11667818Y-12088193D01*
X11585764Y-12358692D01*
X11565000Y-12569509D01*
X7029650Y-12569509D01*
X6894127Y-12497071D01*
X6651904Y-12423593D01*
X6463123Y-12405000D01*
X5336877Y-12405000D01*
X5148096Y-12423593D01*
X4905873Y-12497071D01*
X4682638Y-12616392D01*
X4486972Y-12776972D01*
X4326392Y-12972638D01*
X4207071Y-13195873D01*
X4133593Y-13438096D01*
X4108783Y-13690000D01*
X660000Y-13690000D01*
X660000Y-10227092D01*
X775105Y-10344500D01*
X1008354Y-10503715D01*
X1268182Y-10614367D01*
X1350961Y-10631904D01*
X1573000Y-10509915D01*
X1573000Y-9017000D01*
X1827000Y-9017000D01*
X1827000Y-10509915D01*
X2049039Y-10631904D01*
X2131818Y-10614367D01*
X2391646Y-10503715D01*
X2624895Y-10344500D01*
X2822601Y-10142839D01*
X2977166Y-9906483D01*
X2986741Y-9882702D01*
X17681903Y-9882702D01*
X17753486Y-10126671D01*
X18008996Y-10247571D01*
X18283184Y-10316300D01*
X18565512Y-10330217D01*
X18845130Y-10288787D01*
X19111292Y-10193603D01*
X19236514Y-10126671D01*
X19308097Y-9882702D01*
X18495000Y-9069605D01*
X17681903Y-9882702D01*
X2986741Y-9882702D01*
X3082650Y-9644514D01*
X3135000Y-9367000D01*
X3135000Y-9017000D01*
X1827000Y-9017000D01*
X1573000Y-9017000D01*
X1553000Y-9017000D01*
X1553000Y-8960512D01*
X17054783Y-8960512D01*
X17096213Y-9240130D01*
X17191397Y-9506292D01*
X17258329Y-9631514D01*
X17502298Y-9703097D01*
X18315395Y-8890000D01*
X18674605Y-8890000D01*
X19487702Y-9703097D01*
X19731671Y-9631514D01*
X19852571Y-9376004D01*
X19921300Y-9101816D01*
X19935217Y-8819488D01*
X19924724Y-8748665D01*
X22060000Y-8748665D01*
X22060000Y-9031335D01*
X22115147Y-9308574D01*
X22223320Y-9569727D01*
X22380363Y-9804759D01*
X22580241Y-10004637D01*
X22815273Y-10161680D01*
X23076426Y-10269853D01*
X23121322Y-10278783D01*
X22943192Y-10332818D01*
X22693899Y-10466068D01*
X22475392Y-10645393D01*
X22296068Y-10863900D01*
X22162818Y-11113193D01*
X22080764Y-11383692D01*
X22060000Y-11594509D01*
X22060000Y-12535492D01*
X22080764Y-12746309D01*
X22162818Y-13016808D01*
X22296068Y-13266101D01*
X22475393Y-13484608D01*
X22693900Y-13663932D01*
X22886437Y-13766845D01*
X22835226Y-13801063D01*
X22691063Y-13945226D01*
X22577795Y-14114744D01*
X22499774Y-14303102D01*
X22460000Y-14503061D01*
X22460000Y-14706939D01*
X22499774Y-14906898D01*
X22577795Y-15095256D01*
X22691063Y-15264774D01*
X22835226Y-15408937D01*
X23004744Y-15522205D01*
X23193102Y-15600226D01*
X23393061Y-15640000D01*
X23596939Y-15640000D01*
X23796898Y-15600226D01*
X23985256Y-15522205D01*
X24154774Y-15408937D01*
X24198711Y-15365000D01*
X32316289Y-15365000D01*
X32360226Y-15408937D01*
X32529744Y-15522205D01*
X32718102Y-15600226D01*
X32918061Y-15640000D01*
X33121939Y-15640000D01*
X33321898Y-15600226D01*
X33510256Y-15522205D01*
X33679774Y-15408937D01*
X33823937Y-15264774D01*
X33937205Y-15095256D01*
X34015226Y-14906898D01*
X34055000Y-14706939D01*
X34055000Y-14503061D01*
X34015226Y-14303102D01*
X33937205Y-14114744D01*
X33823937Y-13945226D01*
X33679774Y-13801063D01*
X33510256Y-13687795D01*
X33321898Y-13609774D01*
X33121939Y-13570000D01*
X32918061Y-13570000D01*
X32718102Y-13609774D01*
X32529744Y-13687795D01*
X32360226Y-13801063D01*
X32316289Y-13845000D01*
X31520229Y-13845000D01*
X31546818Y-13839367D01*
X31806646Y-13728715D01*
X32039895Y-13569500D01*
X32237601Y-13367839D01*
X32392166Y-13131483D01*
X32497650Y-12869514D01*
X32550000Y-12592000D01*
X32550000Y-12192000D01*
X31242000Y-12192000D01*
X31242000Y-12212000D01*
X30988000Y-12212000D01*
X30988000Y-12192000D01*
X30968000Y-12192000D01*
X30968000Y-11938000D01*
X30988000Y-11938000D01*
X30988000Y-10395085D01*
X31242000Y-10395085D01*
X31242000Y-11938000D01*
X32550000Y-11938000D01*
X32550000Y-11538000D01*
X32497650Y-11260486D01*
X32392166Y-10998517D01*
X32237601Y-10762161D01*
X32039895Y-10560500D01*
X31806646Y-10401285D01*
X31546818Y-10290633D01*
X31464039Y-10273096D01*
X31242000Y-10395085D01*
X30988000Y-10395085D01*
X30765961Y-10273096D01*
X30683182Y-10290633D01*
X30423354Y-10401285D01*
X30190105Y-10560500D01*
X29992399Y-10762161D01*
X29842265Y-10991741D01*
X29773932Y-10863899D01*
X29594607Y-10645392D01*
X29376100Y-10466068D01*
X29126807Y-10332818D01*
X28856308Y-10250764D01*
X28575000Y-10223057D01*
X28293691Y-10250764D01*
X28023192Y-10332818D01*
X27773899Y-10466068D01*
X27555392Y-10645393D01*
X27376068Y-10863900D01*
X27305000Y-10996858D01*
X27233932Y-10863899D01*
X27054607Y-10645392D01*
X26836100Y-10466068D01*
X26586807Y-10332818D01*
X26316308Y-10250764D01*
X26035000Y-10223057D01*
X25753691Y-10250764D01*
X25483192Y-10332818D01*
X25233899Y-10466068D01*
X25015392Y-10645393D01*
X24836068Y-10863900D01*
X24765000Y-10996858D01*
X24693932Y-10863899D01*
X24514607Y-10645392D01*
X24296100Y-10466068D01*
X24046807Y-10332818D01*
X23868677Y-10278784D01*
X23913574Y-10269853D01*
X24174727Y-10161680D01*
X24409759Y-10004637D01*
X24609637Y-9804759D01*
X24766680Y-9569727D01*
X24874853Y-9308574D01*
X24930000Y-9031335D01*
X24930000Y-8788061D01*
X27540000Y-8788061D01*
X27540000Y-8991939D01*
X27579774Y-9191898D01*
X27657795Y-9380256D01*
X27771063Y-9549774D01*
X27915226Y-9693937D01*
X28084744Y-9807205D01*
X28273102Y-9885226D01*
X28473061Y-9925000D01*
X28676939Y-9925000D01*
X28876898Y-9885226D01*
X29065256Y-9807205D01*
X29234774Y-9693937D01*
X29278711Y-9650000D01*
X33586289Y-9650000D01*
X33630226Y-9693937D01*
X33799744Y-9807205D01*
X33988102Y-9885226D01*
X34188061Y-9925000D01*
X34391939Y-9925000D01*
X34591898Y-9885226D01*
X34780256Y-9807205D01*
X34949774Y-9693937D01*
X35093937Y-9549774D01*
X35207205Y-9380256D01*
X35285226Y-9191898D01*
X35325000Y-8991939D01*
X35325000Y-8788061D01*
X35285226Y-8588102D01*
X35207205Y-8399744D01*
X35093937Y-8230226D01*
X34949774Y-8086063D01*
X34780256Y-7972795D01*
X34591898Y-7894774D01*
X34391939Y-7855000D01*
X34188061Y-7855000D01*
X33988102Y-7894774D01*
X33799744Y-7972795D01*
X33630226Y-8086063D01*
X33586289Y-8130000D01*
X29278711Y-8130000D01*
X29234774Y-8086063D01*
X29065256Y-7972795D01*
X28876898Y-7894774D01*
X28676939Y-7855000D01*
X28473061Y-7855000D01*
X28273102Y-7894774D01*
X28084744Y-7972795D01*
X27915226Y-8086063D01*
X27771063Y-8230226D01*
X27657795Y-8399744D01*
X27579774Y-8588102D01*
X27540000Y-8788061D01*
X24930000Y-8788061D01*
X24930000Y-8748665D01*
X24874853Y-8471426D01*
X24766680Y-8210273D01*
X24609637Y-7975241D01*
X24409759Y-7775363D01*
X24174727Y-7618320D01*
X23913574Y-7510147D01*
X23636335Y-7455000D01*
X23353665Y-7455000D01*
X23076426Y-7510147D01*
X22815273Y-7618320D01*
X22580241Y-7775363D01*
X22380363Y-7975241D01*
X22223320Y-8210273D01*
X22115147Y-8471426D01*
X22060000Y-8748665D01*
X19924724Y-8748665D01*
X19893787Y-8539870D01*
X19798603Y-8273708D01*
X19731671Y-8148486D01*
X19487702Y-8076903D01*
X18674605Y-8890000D01*
X18315395Y-8890000D01*
X17502298Y-8076903D01*
X17258329Y-8148486D01*
X17137429Y-8403996D01*
X17068700Y-8678184D01*
X17054783Y-8960512D01*
X1553000Y-8960512D01*
X1553000Y-8763000D01*
X1573000Y-8763000D01*
X1573000Y-7270085D01*
X1827000Y-7270085D01*
X1827000Y-8763000D01*
X3135000Y-8763000D01*
X3135000Y-8413000D01*
X3082650Y-8135486D01*
X2986742Y-7897298D01*
X17681903Y-7897298D01*
X18495000Y-8710395D01*
X19308097Y-7897298D01*
X19236514Y-7653329D01*
X18981004Y-7532429D01*
X18706816Y-7463700D01*
X18424488Y-7449783D01*
X18144870Y-7491213D01*
X17878708Y-7586397D01*
X17753486Y-7653329D01*
X17681903Y-7897298D01*
X2986742Y-7897298D01*
X2977166Y-7873517D01*
X2822601Y-7637161D01*
X2624895Y-7435500D01*
X2391646Y-7276285D01*
X2131818Y-7165633D01*
X2049039Y-7148096D01*
X1827000Y-7270085D01*
X1573000Y-7270085D01*
X1350961Y-7148096D01*
X1268182Y-7165633D01*
X1008354Y-7276285D01*
X775105Y-7435500D01*
X660000Y-7552908D01*
X660000Y-6290000D01*
X6808057Y-6290000D01*
X6835764Y-6571309D01*
X6917818Y-6841808D01*
X7051068Y-7091101D01*
X7230392Y-7309608D01*
X7448899Y-7488932D01*
X7698192Y-7622182D01*
X7968691Y-7704236D01*
X8179508Y-7725000D01*
X9020492Y-7725000D01*
X9231309Y-7704236D01*
X9501808Y-7622182D01*
X9751101Y-7488932D01*
X9969608Y-7309608D01*
X10148932Y-7091101D01*
X10282182Y-6841808D01*
X10364236Y-6571309D01*
X10391943Y-6290000D01*
X10364236Y-6008691D01*
X10282182Y-5738192D01*
X10194241Y-5573665D01*
X22060000Y-5573665D01*
X22060000Y-5856335D01*
X22115147Y-6133574D01*
X22223320Y-6394727D01*
X22380363Y-6629759D01*
X22580241Y-6829637D01*
X22815273Y-6986680D01*
X23076426Y-7094853D01*
X23353665Y-7150000D01*
X23636335Y-7150000D01*
X23913574Y-7094853D01*
X24174727Y-6986680D01*
X24409759Y-6829637D01*
X24609637Y-6629759D01*
X24713043Y-6475000D01*
X25331289Y-6475000D01*
X25375226Y-6518937D01*
X25544744Y-6632205D01*
X25733102Y-6710226D01*
X25933061Y-6750000D01*
X26136939Y-6750000D01*
X26336898Y-6710226D01*
X26525256Y-6632205D01*
X26694774Y-6518937D01*
X26838937Y-6374774D01*
X26952205Y-6205256D01*
X27030226Y-6016898D01*
X27070000Y-5816939D01*
X27070000Y-5613061D01*
X27540000Y-5613061D01*
X27540000Y-5816939D01*
X27579774Y-6016898D01*
X27657795Y-6205256D01*
X27771063Y-6374774D01*
X27915226Y-6518937D01*
X28084744Y-6632205D01*
X28273102Y-6710226D01*
X28473061Y-6750000D01*
X28676939Y-6750000D01*
X28876898Y-6710226D01*
X29065256Y-6632205D01*
X29234774Y-6518937D01*
X29278711Y-6475000D01*
X29896957Y-6475000D01*
X30000363Y-6629759D01*
X30200241Y-6829637D01*
X30435273Y-6986680D01*
X30696426Y-7094853D01*
X30973665Y-7150000D01*
X31256335Y-7150000D01*
X31533574Y-7094853D01*
X31794727Y-6986680D01*
X32029759Y-6829637D01*
X32229637Y-6629759D01*
X32386680Y-6394727D01*
X32494853Y-6133574D01*
X32550000Y-5856335D01*
X32550000Y-5573665D01*
X32494853Y-5296426D01*
X32386680Y-5035273D01*
X32229637Y-4800241D01*
X32029759Y-4600363D01*
X31794727Y-4443320D01*
X31533574Y-4335147D01*
X31256335Y-4280000D01*
X30973665Y-4280000D01*
X30696426Y-4335147D01*
X30435273Y-4443320D01*
X30200241Y-4600363D01*
X30000363Y-4800241D01*
X29896957Y-4955000D01*
X29278711Y-4955000D01*
X29234774Y-4911063D01*
X29065256Y-4797795D01*
X28876898Y-4719774D01*
X28676939Y-4680000D01*
X28473061Y-4680000D01*
X28273102Y-4719774D01*
X28084744Y-4797795D01*
X27915226Y-4911063D01*
X27771063Y-5055226D01*
X27657795Y-5224744D01*
X27579774Y-5413102D01*
X27540000Y-5613061D01*
X27070000Y-5613061D01*
X27030226Y-5413102D01*
X26952205Y-5224744D01*
X26838937Y-5055226D01*
X26694774Y-4911063D01*
X26525256Y-4797795D01*
X26336898Y-4719774D01*
X26136939Y-4680000D01*
X25933061Y-4680000D01*
X25733102Y-4719774D01*
X25544744Y-4797795D01*
X25375226Y-4911063D01*
X25331289Y-4955000D01*
X24713043Y-4955000D01*
X24609637Y-4800241D01*
X24409759Y-4600363D01*
X24174727Y-4443320D01*
X23913574Y-4335147D01*
X23636335Y-4280000D01*
X23353665Y-4280000D01*
X23076426Y-4335147D01*
X22815273Y-4443320D01*
X22580241Y-4600363D01*
X22380363Y-4800241D01*
X22223320Y-5035273D01*
X22115147Y-5296426D01*
X22060000Y-5573665D01*
X10194241Y-5573665D01*
X10148932Y-5488899D01*
X9969608Y-5270392D01*
X9751101Y-5091068D01*
X9533953Y-4975000D01*
X10163123Y-4975000D01*
X10351904Y-4956407D01*
X10594127Y-4882929D01*
X10817362Y-4763608D01*
X11013028Y-4603028D01*
X11173608Y-4407362D01*
X11292929Y-4184127D01*
X11366407Y-3941904D01*
X11391217Y-3690000D01*
X11366407Y-3438096D01*
X11292929Y-3195873D01*
X11173608Y-2972638D01*
X11013028Y-2776972D01*
X10817362Y-2616392D01*
X10594127Y-2497071D01*
X10351904Y-2423593D01*
X10163123Y-2405000D01*
X9036877Y-2405000D01*
X8848096Y-2423593D01*
X8605873Y-2497071D01*
X8382638Y-2616392D01*
X8186972Y-2776972D01*
X8026392Y-2972638D01*
X7907071Y-3195873D01*
X7833593Y-3438096D01*
X7808783Y-3690000D01*
X7833593Y-3941904D01*
X7907071Y-4184127D01*
X8026392Y-4407362D01*
X8186972Y-4603028D01*
X8382638Y-4763608D01*
X8553621Y-4855000D01*
X8179508Y-4855000D01*
X7968691Y-4875764D01*
X7698192Y-4957818D01*
X7448899Y-5091068D01*
X7230392Y-5270392D01*
X7051068Y-5488899D01*
X6917818Y-5738192D01*
X6835764Y-6008691D01*
X6808057Y-6290000D01*
X660000Y-6290000D01*
X660000Y-2398665D01*
X23330000Y-2398665D01*
X23330000Y-2681335D01*
X23385147Y-2958574D01*
X23493320Y-3219727D01*
X23650363Y-3454759D01*
X23850241Y-3654637D01*
X24085273Y-3811680D01*
X24346426Y-3919853D01*
X24623665Y-3975000D01*
X24906335Y-3975000D01*
X25183574Y-3919853D01*
X25444727Y-3811680D01*
X25679759Y-3654637D01*
X25879637Y-3454759D01*
X26036680Y-3219727D01*
X26144853Y-2958574D01*
X26200000Y-2681335D01*
X26200000Y-2398665D01*
X28330000Y-2398665D01*
X28330000Y-2681335D01*
X28385147Y-2958574D01*
X28493320Y-3219727D01*
X28650363Y-3454759D01*
X28850241Y-3654637D01*
X29085273Y-3811680D01*
X29346426Y-3919853D01*
X29623665Y-3975000D01*
X29906335Y-3975000D01*
X30183574Y-3919853D01*
X30444727Y-3811680D01*
X30679759Y-3654637D01*
X30879637Y-3454759D01*
X31036680Y-3219727D01*
X31144853Y-2958574D01*
X31200000Y-2681335D01*
X31200000Y-2398665D01*
X31144853Y-2121426D01*
X31036680Y-1860273D01*
X30879637Y-1625241D01*
X30679759Y-1425363D01*
X30444727Y-1268320D01*
X30183574Y-1160147D01*
X29906335Y-1105000D01*
X29623665Y-1105000D01*
X29346426Y-1160147D01*
X29085273Y-1268320D01*
X28850241Y-1425363D01*
X28650363Y-1625241D01*
X28493320Y-1860273D01*
X28385147Y-2121426D01*
X28330000Y-2398665D01*
X26200000Y-2398665D01*
X26144853Y-2121426D01*
X26036680Y-1860273D01*
X25879637Y-1625241D01*
X25679759Y-1425363D01*
X25444727Y-1268320D01*
X25183574Y-1160147D01*
X24906335Y-1105000D01*
X24623665Y-1105000D01*
X24346426Y-1160147D01*
X24085273Y-1268320D01*
X23850241Y-1425363D01*
X23650363Y-1625241D01*
X23493320Y-1860273D01*
X23385147Y-2121426D01*
X23330000Y-2398665D01*
X660000Y-2398665D01*
X660000Y-660000D01*
X35535000Y-660000D01*
X35535001Y-71730000D01*
G37*
G04 #@! TD.AperFunction*
G04 #@! TD*
M02*
