G04 #@! TF.GenerationSoftware,KiCad,Pcbnew,(5.1.9)-1*
G04 #@! TF.CreationDate,2021-05-09T15:32:16+02:00*
G04 #@! TF.ProjectId,Dual VCA Main,4475616c-2056-4434-9120-4d61696e2e6b,rev?*
G04 #@! TF.SameCoordinates,Original*
G04 #@! TF.FileFunction,Soldermask,Bot*
G04 #@! TF.FilePolarity,Negative*
%FSLAX46Y46*%
G04 Gerber Fmt 4.6, Leading zero omitted, Abs format (unit mm)*
G04 Created by KiCad (PCBNEW (5.1.9)-1) date 2021-05-09 15:32:16*
%MOMM*%
%LPD*%
G01*
G04 APERTURE LIST*
%ADD10O,2.400000X1.600000*%
%ADD11R,2.400000X1.600000*%
%ADD12O,1.600000X2.400000*%
%ADD13R,1.600000X2.400000*%
%ADD14C,1.600000*%
%ADD15O,1.600000X1.600000*%
%ADD16C,1.800000*%
%ADD17R,1.800000X1.100000*%
%ADD18C,1.700000*%
%ADD19O,2.300000X1.300000*%
%ADD20O,2.300000X1.600000*%
%ADD21O,1.600000X2.300000*%
%ADD22R,1.600000X1.600000*%
G04 APERTURE END LIST*
D10*
G04 #@! TO.C,U3*
X18415000Y-67310000D03*
X10795000Y-74930000D03*
X18415000Y-69850000D03*
X10795000Y-72390000D03*
X18415000Y-72390000D03*
X10795000Y-69850000D03*
X18415000Y-74930000D03*
D11*
X10795000Y-67310000D03*
G04 #@! TD*
D10*
G04 #@! TO.C,U2*
X26670000Y-26670000D03*
X19050000Y-34290000D03*
X26670000Y-29210000D03*
X19050000Y-31750000D03*
X26670000Y-31750000D03*
X19050000Y-29210000D03*
X26670000Y-34290000D03*
D11*
X19050000Y-26670000D03*
G04 #@! TD*
D12*
G04 #@! TO.C,U1*
X23495000Y-12065000D03*
X31115000Y-19685000D03*
X26035000Y-12065000D03*
X28575000Y-19685000D03*
X28575000Y-12065000D03*
X26035000Y-19685000D03*
X31115000Y-12065000D03*
D13*
X23495000Y-19685000D03*
G04 #@! TD*
D14*
G04 #@! TO.C,C8*
X2620000Y-74930000D03*
X7620000Y-74930000D03*
G04 #@! TD*
G04 #@! TO.C,C7*
X15875000Y-39290000D03*
X15875000Y-34290000D03*
G04 #@! TD*
G04 #@! TO.C,C4*
X26115000Y-22860000D03*
X31115000Y-22860000D03*
G04 #@! TD*
D15*
G04 #@! TO.C,R12*
X18415000Y-59690000D03*
D14*
X10795000Y-59690000D03*
G04 #@! TD*
D15*
G04 #@! TO.C,R11*
X28575000Y-59690000D03*
D14*
X20955000Y-59690000D03*
G04 #@! TD*
D15*
G04 #@! TO.C,R10*
X23495000Y-55245000D03*
D14*
X15875000Y-55245000D03*
G04 #@! TD*
D15*
G04 #@! TO.C,R9*
X5715000Y-62230000D03*
D14*
X5715000Y-69850000D03*
G04 #@! TD*
D15*
G04 #@! TO.C,R8*
X9525000Y-28575000D03*
D14*
X1905000Y-28575000D03*
G04 #@! TD*
D15*
G04 #@! TO.C,R7*
X12700000Y-36830000D03*
D14*
X12700000Y-29210000D03*
G04 #@! TD*
D15*
G04 #@! TO.C,R6*
X5080000Y-82550000D03*
D14*
X12700000Y-82550000D03*
G04 #@! TD*
D15*
G04 #@! TO.C,R5*
X31115000Y-5715000D03*
D14*
X23495000Y-5715000D03*
G04 #@! TD*
D15*
G04 #@! TO.C,R4*
X9525000Y-31750000D03*
D14*
X1905000Y-31750000D03*
G04 #@! TD*
D15*
G04 #@! TO.C,R3*
X15875000Y-24130000D03*
D14*
X15875000Y-31750000D03*
G04 #@! TD*
D15*
G04 #@! TO.C,R2*
X16510000Y-12700000D03*
D14*
X16510000Y-20320000D03*
G04 #@! TD*
D15*
G04 #@! TO.C,R1*
X5715000Y-16510000D03*
D14*
X13335000Y-16510000D03*
G04 #@! TD*
D16*
G04 #@! TO.C,RV2*
X31115000Y-48895000D03*
X26035000Y-51435000D03*
X18415000Y-48895000D03*
G04 #@! TD*
G04 #@! TO.C,RV1*
X31115000Y-42545000D03*
X26035000Y-45085000D03*
X18415000Y-42545000D03*
G04 #@! TD*
D17*
G04 #@! TO.C,Q1*
X23095000Y-63500000D03*
G36*
G01*
X22470000Y-65490000D02*
X23720000Y-65490000D01*
G75*
G02*
X23995000Y-65765000I0J-275000D01*
G01*
X23995000Y-66315000D01*
G75*
G02*
X23720000Y-66590000I-275000J0D01*
G01*
X22470000Y-66590000D01*
G75*
G02*
X22195000Y-66315000I0J275000D01*
G01*
X22195000Y-65765000D01*
G75*
G02*
X22470000Y-65490000I275000J0D01*
G01*
G37*
G36*
G01*
X24540000Y-64220000D02*
X25790000Y-64220000D01*
G75*
G02*
X26065000Y-64495000I0J-275000D01*
G01*
X26065000Y-65045000D01*
G75*
G02*
X25790000Y-65320000I-275000J0D01*
G01*
X24540000Y-65320000D01*
G75*
G02*
X24265000Y-65045000I0J275000D01*
G01*
X24265000Y-64495000D01*
G75*
G02*
X24540000Y-64220000I275000J0D01*
G01*
G37*
G04 #@! TD*
D18*
G04 #@! TO.C,J7*
X25400000Y-96520000D03*
X25400000Y-93980000D03*
X25400000Y-91440000D03*
X25400000Y-88900000D03*
X25400000Y-86360000D03*
X25400000Y-83820000D03*
X25400000Y-81280000D03*
X25400000Y-78740000D03*
X22860000Y-96520000D03*
X22860000Y-93980000D03*
X22860000Y-91440000D03*
X22860000Y-88900000D03*
X22860000Y-86360000D03*
X22860000Y-83820000D03*
X22860000Y-81280000D03*
G36*
G01*
X22010000Y-79340000D02*
X22010000Y-78140000D01*
G75*
G02*
X22260000Y-77890000I250000J0D01*
G01*
X23460000Y-77890000D01*
G75*
G02*
X23710000Y-78140000I0J-250000D01*
G01*
X23710000Y-79340000D01*
G75*
G02*
X23460000Y-79590000I-250000J0D01*
G01*
X22260000Y-79590000D01*
G75*
G02*
X22010000Y-79340000I0J250000D01*
G01*
G37*
G04 #@! TD*
D19*
G04 #@! TO.C,J3*
X5900000Y-55600000D03*
X9600000Y-45600000D03*
D20*
X8600000Y-48200000D03*
D21*
X13000000Y-54900000D03*
X1700000Y-50800000D03*
G04 #@! TD*
D19*
G04 #@! TO.C,J2*
X5900000Y-97510000D03*
X9600000Y-87510000D03*
D20*
X8600000Y-90110000D03*
D21*
X13000000Y-96810000D03*
X1700000Y-92710000D03*
G04 #@! TD*
D19*
G04 #@! TO.C,J1*
X5900000Y-13690000D03*
X9600000Y-3690000D03*
D20*
X8600000Y-6290000D03*
D21*
X13000000Y-12990000D03*
X1700000Y-8890000D03*
G04 #@! TD*
D15*
G04 #@! TO.C,D1*
X18415000Y-63500000D03*
D22*
X10795000Y-63500000D03*
G04 #@! TD*
D14*
G04 #@! TO.C,C6*
X21670000Y-69850000D03*
X26670000Y-69850000D03*
G04 #@! TD*
G04 #@! TO.C,C5*
X29845000Y-29290000D03*
X29845000Y-34290000D03*
G04 #@! TD*
G04 #@! TO.C,C3*
X23495000Y-8890000D03*
X18495000Y-8890000D03*
G04 #@! TD*
G04 #@! TO.C,C2*
X29765000Y-2540000D03*
X24765000Y-2540000D03*
G04 #@! TD*
G04 #@! TO.C,C1*
X19685000Y-14050000D03*
X19685000Y-19050000D03*
G04 #@! TD*
M02*
