G04 #@! TF.GenerationSoftware,KiCad,Pcbnew,(5.1.9)-1*
G04 #@! TF.CreationDate,2021-05-09T15:32:16+02:00*
G04 #@! TF.ProjectId,Dual VCA Main,4475616c-2056-4434-9120-4d61696e2e6b,rev?*
G04 #@! TF.SameCoordinates,Original*
G04 #@! TF.FileFunction,Legend,Top*
G04 #@! TF.FilePolarity,Positive*
%FSLAX46Y46*%
G04 Gerber Fmt 4.6, Leading zero omitted, Abs format (unit mm)*
G04 Created by KiCad (PCBNEW (5.1.9)-1) date 2021-05-09 15:32:16*
%MOMM*%
%LPD*%
G01*
G04 APERTURE LIST*
%ADD10C,0.150000*%
%ADD11C,0.010000*%
%ADD12C,0.120000*%
%ADD13C,0.100000*%
%ADD14C,0.254000*%
G04 APERTURE END LIST*
D10*
X17042380Y-88072261D02*
X18042380Y-87738928D01*
X17042380Y-87405595D01*
X17947142Y-86500833D02*
X17994761Y-86548452D01*
X18042380Y-86691309D01*
X18042380Y-86786547D01*
X17994761Y-86929404D01*
X17899523Y-87024642D01*
X17804285Y-87072261D01*
X17613809Y-87119880D01*
X17470952Y-87119880D01*
X17280476Y-87072261D01*
X17185238Y-87024642D01*
X17090000Y-86929404D01*
X17042380Y-86786547D01*
X17042380Y-86691309D01*
X17090000Y-86548452D01*
X17137619Y-86500833D01*
X17756666Y-86119880D02*
X17756666Y-85643690D01*
X18042380Y-86215119D02*
X17042380Y-85881785D01*
X18042380Y-85548452D01*
X17994761Y-84500833D02*
X18042380Y-84357976D01*
X18042380Y-84119880D01*
X17994761Y-84024642D01*
X17947142Y-83977023D01*
X17851904Y-83929404D01*
X17756666Y-83929404D01*
X17661428Y-83977023D01*
X17613809Y-84024642D01*
X17566190Y-84119880D01*
X17518571Y-84310357D01*
X17470952Y-84405595D01*
X17423333Y-84453214D01*
X17328095Y-84500833D01*
X17232857Y-84500833D01*
X17137619Y-84453214D01*
X17090000Y-84405595D01*
X17042380Y-84310357D01*
X17042380Y-84072261D01*
X17090000Y-83929404D01*
X18042380Y-83357976D02*
X17994761Y-83453214D01*
X17899523Y-83500833D01*
X17042380Y-83500833D01*
X18042380Y-82977023D02*
X17375714Y-82977023D01*
X17042380Y-82977023D02*
X17090000Y-83024642D01*
X17137619Y-82977023D01*
X17090000Y-82929404D01*
X17042380Y-82977023D01*
X17137619Y-82977023D01*
X18042380Y-82500833D02*
X17375714Y-82500833D01*
X17470952Y-82500833D02*
X17423333Y-82453214D01*
X17375714Y-82357976D01*
X17375714Y-82215119D01*
X17423333Y-82119880D01*
X17518571Y-82072261D01*
X18042380Y-82072261D01*
X17518571Y-82072261D02*
X17423333Y-82024642D01*
X17375714Y-81929404D01*
X17375714Y-81786547D01*
X17423333Y-81691309D01*
X17518571Y-81643690D01*
X18042380Y-81643690D01*
X19692380Y-87357976D02*
X19216190Y-87691309D01*
X19692380Y-87929404D02*
X18692380Y-87929404D01*
X18692380Y-87548452D01*
X18740000Y-87453214D01*
X18787619Y-87405595D01*
X18882857Y-87357976D01*
X19025714Y-87357976D01*
X19120952Y-87405595D01*
X19168571Y-87453214D01*
X19216190Y-87548452D01*
X19216190Y-87929404D01*
X19644761Y-86548452D02*
X19692380Y-86643690D01*
X19692380Y-86834166D01*
X19644761Y-86929404D01*
X19549523Y-86977023D01*
X19168571Y-86977023D01*
X19073333Y-86929404D01*
X19025714Y-86834166D01*
X19025714Y-86643690D01*
X19073333Y-86548452D01*
X19168571Y-86500833D01*
X19263809Y-86500833D01*
X19359047Y-86977023D01*
X19025714Y-86167500D02*
X19692380Y-85929404D01*
X19025714Y-85691309D01*
X18692380Y-84357976D02*
X18692380Y-84262738D01*
X18740000Y-84167500D01*
X18787619Y-84119880D01*
X18882857Y-84072261D01*
X19073333Y-84024642D01*
X19311428Y-84024642D01*
X19501904Y-84072261D01*
X19597142Y-84119880D01*
X19644761Y-84167500D01*
X19692380Y-84262738D01*
X19692380Y-84357976D01*
X19644761Y-84453214D01*
X19597142Y-84500833D01*
X19501904Y-84548452D01*
X19311428Y-84596071D01*
X19073333Y-84596071D01*
X18882857Y-84548452D01*
X18787619Y-84500833D01*
X18740000Y-84453214D01*
X18692380Y-84357976D01*
X19692380Y-83072261D02*
X19692380Y-83643690D01*
X19692380Y-83357976D02*
X18692380Y-83357976D01*
X18835238Y-83453214D01*
X18930476Y-83548452D01*
X18978095Y-83643690D01*
X18787619Y-82691309D02*
X18740000Y-82643690D01*
X18692380Y-82548452D01*
X18692380Y-82310357D01*
X18740000Y-82215119D01*
X18787619Y-82167500D01*
X18882857Y-82119880D01*
X18978095Y-82119880D01*
X19120952Y-82167500D01*
X19692380Y-82738928D01*
X19692380Y-82119880D01*
X19692380Y-81167500D02*
X19692380Y-81738928D01*
X19692380Y-81453214D02*
X18692380Y-81453214D01*
X18835238Y-81548452D01*
X18930476Y-81643690D01*
X18978095Y-81738928D01*
X18692380Y-80548452D02*
X18692380Y-80453214D01*
X18740000Y-80357976D01*
X18787619Y-80310357D01*
X18882857Y-80262738D01*
X19073333Y-80215119D01*
X19311428Y-80215119D01*
X19501904Y-80262738D01*
X19597142Y-80310357D01*
X19644761Y-80357976D01*
X19692380Y-80453214D01*
X19692380Y-80548452D01*
X19644761Y-80643690D01*
X19597142Y-80691309D01*
X19501904Y-80738928D01*
X19311428Y-80786547D01*
X19073333Y-80786547D01*
X18882857Y-80738928D01*
X18787619Y-80691309D01*
X18740000Y-80643690D01*
X18692380Y-80548452D01*
X18692380Y-79310357D02*
X18692380Y-79786547D01*
X19168571Y-79834166D01*
X19120952Y-79786547D01*
X19073333Y-79691309D01*
X19073333Y-79453214D01*
X19120952Y-79357976D01*
X19168571Y-79310357D01*
X19263809Y-79262738D01*
X19501904Y-79262738D01*
X19597142Y-79310357D01*
X19644761Y-79357976D01*
X19692380Y-79453214D01*
X19692380Y-79691309D01*
X19644761Y-79786547D01*
X19597142Y-79834166D01*
X30732261Y-54427380D02*
X30732261Y-53427380D01*
X31208452Y-53760714D02*
X31208452Y-54427380D01*
X31208452Y-53855952D02*
X31256071Y-53808333D01*
X31351309Y-53760714D01*
X31494166Y-53760714D01*
X31589404Y-53808333D01*
X31637023Y-53903571D01*
X31637023Y-54427380D01*
X32113214Y-54427380D02*
X32113214Y-53760714D01*
X32113214Y-53427380D02*
X32065595Y-53475000D01*
X32113214Y-53522619D01*
X32160833Y-53475000D01*
X32113214Y-53427380D01*
X32113214Y-53522619D01*
X32446547Y-53760714D02*
X32827499Y-53760714D01*
X32589404Y-53427380D02*
X32589404Y-54284523D01*
X32637023Y-54379761D01*
X32732261Y-54427380D01*
X32827499Y-54427380D01*
X33160833Y-54427380D02*
X33160833Y-53760714D01*
X33160833Y-53427380D02*
X33113214Y-53475000D01*
X33160833Y-53522619D01*
X33208452Y-53475000D01*
X33160833Y-53427380D01*
X33160833Y-53522619D01*
X34065595Y-54427380D02*
X34065595Y-53903571D01*
X34017976Y-53808333D01*
X33922738Y-53760714D01*
X33732261Y-53760714D01*
X33637023Y-53808333D01*
X34065595Y-54379761D02*
X33970357Y-54427380D01*
X33732261Y-54427380D01*
X33637023Y-54379761D01*
X33589404Y-54284523D01*
X33589404Y-54189285D01*
X33637023Y-54094047D01*
X33732261Y-54046428D01*
X33970357Y-54046428D01*
X34065595Y-53998809D01*
X34684642Y-54427380D02*
X34589404Y-54379761D01*
X34541785Y-54284523D01*
X34541785Y-53427380D01*
X30827500Y-39457380D02*
X31017976Y-39457380D01*
X31113214Y-39505000D01*
X31208452Y-39600238D01*
X31256071Y-39790714D01*
X31256071Y-40124047D01*
X31208452Y-40314523D01*
X31113214Y-40409761D01*
X31017976Y-40457380D01*
X30827500Y-40457380D01*
X30732261Y-40409761D01*
X30637023Y-40314523D01*
X30589404Y-40124047D01*
X30589404Y-39790714D01*
X30637023Y-39600238D01*
X30732261Y-39505000D01*
X30827500Y-39457380D01*
X31541785Y-39790714D02*
X31922738Y-39790714D01*
X31684642Y-40457380D02*
X31684642Y-39600238D01*
X31732261Y-39505000D01*
X31827500Y-39457380D01*
X31922738Y-39457380D01*
X32113214Y-39790714D02*
X32494166Y-39790714D01*
X32256071Y-40457380D02*
X32256071Y-39600238D01*
X32303690Y-39505000D01*
X32398928Y-39457380D01*
X32494166Y-39457380D01*
X32779880Y-40409761D02*
X32875119Y-40457380D01*
X33065595Y-40457380D01*
X33160833Y-40409761D01*
X33208452Y-40314523D01*
X33208452Y-40266904D01*
X33160833Y-40171666D01*
X33065595Y-40124047D01*
X32922738Y-40124047D01*
X32827500Y-40076428D01*
X32779880Y-39981190D01*
X32779880Y-39933571D01*
X32827500Y-39838333D01*
X32922738Y-39790714D01*
X33065595Y-39790714D01*
X33160833Y-39838333D01*
X34017976Y-40409761D02*
X33922738Y-40457380D01*
X33732261Y-40457380D01*
X33637023Y-40409761D01*
X33589404Y-40314523D01*
X33589404Y-39933571D01*
X33637023Y-39838333D01*
X33732261Y-39790714D01*
X33922738Y-39790714D01*
X34017976Y-39838333D01*
X34065595Y-39933571D01*
X34065595Y-40028809D01*
X33589404Y-40124047D01*
X34351309Y-39790714D02*
X34732261Y-39790714D01*
X34494166Y-39457380D02*
X34494166Y-40314523D01*
X34541785Y-40409761D01*
X34637023Y-40457380D01*
X34732261Y-40457380D01*
D11*
G04 #@! TO.C,G\u002A\u002A\u002A*
G36*
X18236975Y-90420533D02*
G01*
X18624529Y-90569561D01*
X18971874Y-90832268D01*
X19005458Y-90865178D01*
X19244055Y-91142088D01*
X19394725Y-91425374D01*
X19477509Y-91761590D01*
X19503932Y-92023159D01*
X19514654Y-92298677D01*
X19496742Y-92500634D01*
X19439670Y-92687923D01*
X19349921Y-92884864D01*
X19164587Y-93263673D01*
X19434200Y-93487629D01*
X19783462Y-93858667D01*
X20057837Y-94315043D01*
X20241494Y-94822167D01*
X20318602Y-95345445D01*
X20320000Y-95423282D01*
X20259094Y-95951320D01*
X20086737Y-96449219D01*
X19818466Y-96900702D01*
X19469822Y-97289491D01*
X19056342Y-97599310D01*
X18593566Y-97813880D01*
X18097032Y-97916923D01*
X17933071Y-97923684D01*
X17745332Y-97933029D01*
X17639696Y-97982592D01*
X17564815Y-98104664D01*
X17534853Y-98174124D01*
X17451088Y-98542435D01*
X17481622Y-98952429D01*
X17621393Y-99385591D01*
X17865336Y-99823404D01*
X18054598Y-100074623D01*
X18223260Y-100295034D01*
X18300470Y-100451237D01*
X18294114Y-100568485D01*
X18234526Y-100650842D01*
X18104072Y-100724092D01*
X17953517Y-100690022D01*
X17768972Y-100543000D01*
X17649337Y-100413553D01*
X17299002Y-99927667D01*
X17066051Y-99420772D01*
X16957200Y-98908744D01*
X16949776Y-98759211D01*
X16954742Y-98487845D01*
X16972931Y-98240606D01*
X16997845Y-98083508D01*
X17020402Y-97968381D01*
X16999438Y-97888134D01*
X16911350Y-97814707D01*
X16732535Y-97720041D01*
X16663634Y-97686221D01*
X16230674Y-97409047D01*
X15841572Y-97034867D01*
X15532301Y-96600126D01*
X15464123Y-96470895D01*
X15375392Y-96274189D01*
X15319836Y-96098821D01*
X15289911Y-95902432D01*
X15278077Y-95642661D01*
X15276513Y-95417105D01*
X15280439Y-95093856D01*
X15297416Y-94861295D01*
X15335242Y-94676526D01*
X15401716Y-94496658D01*
X15470954Y-94347632D01*
X15636006Y-94069538D01*
X15856785Y-93777723D01*
X16024765Y-93594758D01*
X16384137Y-93242937D01*
X16255820Y-93060021D01*
X16062922Y-92670417D01*
X15986035Y-92223652D01*
X15992869Y-91976863D01*
X16097282Y-91503612D01*
X16310150Y-91096640D01*
X16617542Y-90768451D01*
X17005521Y-90531544D01*
X17460156Y-90398421D01*
X17780000Y-90373462D01*
X18236975Y-90420533D01*
G37*
X18236975Y-90420533D02*
X18624529Y-90569561D01*
X18971874Y-90832268D01*
X19005458Y-90865178D01*
X19244055Y-91142088D01*
X19394725Y-91425374D01*
X19477509Y-91761590D01*
X19503932Y-92023159D01*
X19514654Y-92298677D01*
X19496742Y-92500634D01*
X19439670Y-92687923D01*
X19349921Y-92884864D01*
X19164587Y-93263673D01*
X19434200Y-93487629D01*
X19783462Y-93858667D01*
X20057837Y-94315043D01*
X20241494Y-94822167D01*
X20318602Y-95345445D01*
X20320000Y-95423282D01*
X20259094Y-95951320D01*
X20086737Y-96449219D01*
X19818466Y-96900702D01*
X19469822Y-97289491D01*
X19056342Y-97599310D01*
X18593566Y-97813880D01*
X18097032Y-97916923D01*
X17933071Y-97923684D01*
X17745332Y-97933029D01*
X17639696Y-97982592D01*
X17564815Y-98104664D01*
X17534853Y-98174124D01*
X17451088Y-98542435D01*
X17481622Y-98952429D01*
X17621393Y-99385591D01*
X17865336Y-99823404D01*
X18054598Y-100074623D01*
X18223260Y-100295034D01*
X18300470Y-100451237D01*
X18294114Y-100568485D01*
X18234526Y-100650842D01*
X18104072Y-100724092D01*
X17953517Y-100690022D01*
X17768972Y-100543000D01*
X17649337Y-100413553D01*
X17299002Y-99927667D01*
X17066051Y-99420772D01*
X16957200Y-98908744D01*
X16949776Y-98759211D01*
X16954742Y-98487845D01*
X16972931Y-98240606D01*
X16997845Y-98083508D01*
X17020402Y-97968381D01*
X16999438Y-97888134D01*
X16911350Y-97814707D01*
X16732535Y-97720041D01*
X16663634Y-97686221D01*
X16230674Y-97409047D01*
X15841572Y-97034867D01*
X15532301Y-96600126D01*
X15464123Y-96470895D01*
X15375392Y-96274189D01*
X15319836Y-96098821D01*
X15289911Y-95902432D01*
X15278077Y-95642661D01*
X15276513Y-95417105D01*
X15280439Y-95093856D01*
X15297416Y-94861295D01*
X15335242Y-94676526D01*
X15401716Y-94496658D01*
X15470954Y-94347632D01*
X15636006Y-94069538D01*
X15856785Y-93777723D01*
X16024765Y-93594758D01*
X16384137Y-93242937D01*
X16255820Y-93060021D01*
X16062922Y-92670417D01*
X15986035Y-92223652D01*
X15992869Y-91976863D01*
X16097282Y-91503612D01*
X16310150Y-91096640D01*
X16617542Y-90768451D01*
X17005521Y-90531544D01*
X17460156Y-90398421D01*
X17780000Y-90373462D01*
X18236975Y-90420533D01*
G36*
X16217294Y-90010838D02*
G01*
X16449355Y-90095666D01*
X16496297Y-90114997D01*
X16721716Y-90216489D01*
X16886523Y-90304463D01*
X16962519Y-90363415D01*
X16964192Y-90372244D01*
X16906342Y-90430770D01*
X16772196Y-90541610D01*
X16593839Y-90680540D01*
X16403356Y-90823341D01*
X16232832Y-90945791D01*
X16114350Y-91023670D01*
X16081041Y-91038947D01*
X16062104Y-90977774D01*
X16037203Y-90816047D01*
X16011214Y-90586456D01*
X16007035Y-90542978D01*
X15987508Y-90293432D01*
X15979029Y-90094343D01*
X15983140Y-89984507D01*
X15984621Y-89978973D01*
X16053675Y-89969626D01*
X16217294Y-90010838D01*
G37*
X16217294Y-90010838D02*
X16449355Y-90095666D01*
X16496297Y-90114997D01*
X16721716Y-90216489D01*
X16886523Y-90304463D01*
X16962519Y-90363415D01*
X16964192Y-90372244D01*
X16906342Y-90430770D01*
X16772196Y-90541610D01*
X16593839Y-90680540D01*
X16403356Y-90823341D01*
X16232832Y-90945791D01*
X16114350Y-91023670D01*
X16081041Y-91038947D01*
X16062104Y-90977774D01*
X16037203Y-90816047D01*
X16011214Y-90586456D01*
X16007035Y-90542978D01*
X15987508Y-90293432D01*
X15979029Y-90094343D01*
X15983140Y-89984507D01*
X15984621Y-89978973D01*
X16053675Y-89969626D01*
X16217294Y-90010838D01*
G36*
X19438089Y-89941229D02*
G01*
X19453741Y-90062829D01*
X19451837Y-90266949D01*
X19451052Y-90372181D01*
X19444100Y-90661033D01*
X19421688Y-90831612D01*
X19381483Y-90898681D01*
X19367500Y-90900971D01*
X19276195Y-90863371D01*
X19107628Y-90767277D01*
X18893766Y-90631273D01*
X18829907Y-90588426D01*
X18375867Y-90280174D01*
X18763065Y-90119704D01*
X19067368Y-89991385D01*
X19266744Y-89913522D01*
X19383037Y-89894132D01*
X19438089Y-89941229D01*
G37*
X19438089Y-89941229D02*
X19453741Y-90062829D01*
X19451837Y-90266949D01*
X19451052Y-90372181D01*
X19444100Y-90661033D01*
X19421688Y-90831612D01*
X19381483Y-90898681D01*
X19367500Y-90900971D01*
X19276195Y-90863371D01*
X19107628Y-90767277D01*
X18893766Y-90631273D01*
X18829907Y-90588426D01*
X18375867Y-90280174D01*
X18763065Y-90119704D01*
X19067368Y-89991385D01*
X19266744Y-89913522D01*
X19383037Y-89894132D01*
X19438089Y-89941229D01*
D12*
G04 #@! TO.C,U3*
X15605000Y-65980000D02*
G75*
G02*
X13605000Y-65980000I-1000000J0D01*
G01*
X13605000Y-65980000D02*
X12355000Y-65980000D01*
X12355000Y-65980000D02*
X12355000Y-76260000D01*
X12355000Y-76260000D02*
X16855000Y-76260000D01*
X16855000Y-76260000D02*
X16855000Y-65980000D01*
X16855000Y-65980000D02*
X15605000Y-65980000D01*
G04 #@! TO.C,U2*
X23860000Y-25340000D02*
G75*
G02*
X21860000Y-25340000I-1000000J0D01*
G01*
X21860000Y-25340000D02*
X20610000Y-25340000D01*
X20610000Y-25340000D02*
X20610000Y-35620000D01*
X20610000Y-35620000D02*
X25110000Y-35620000D01*
X25110000Y-35620000D02*
X25110000Y-25340000D01*
X25110000Y-25340000D02*
X23860000Y-25340000D01*
G04 #@! TO.C,U1*
X22165000Y-14875000D02*
G75*
G02*
X22165000Y-16875000I0J-1000000D01*
G01*
X22165000Y-16875000D02*
X22165000Y-18125000D01*
X22165000Y-18125000D02*
X32445000Y-18125000D01*
X32445000Y-18125000D02*
X32445000Y-13625000D01*
X32445000Y-13625000D02*
X22165000Y-13625000D01*
X22165000Y-13625000D02*
X22165000Y-14875000D01*
G04 #@! TO.C,C8*
X7390000Y-76000000D02*
X2850000Y-76000000D01*
X7390000Y-73860000D02*
X2850000Y-73860000D01*
X7390000Y-76000000D02*
X7390000Y-75985000D01*
X7390000Y-73875000D02*
X7390000Y-73860000D01*
X2850000Y-76000000D02*
X2850000Y-75985000D01*
X2850000Y-73875000D02*
X2850000Y-73860000D01*
G04 #@! TO.C,C7*
X16945000Y-34520000D02*
X16945000Y-39060000D01*
X14805000Y-34520000D02*
X14805000Y-39060000D01*
X16945000Y-34520000D02*
X16930000Y-34520000D01*
X14820000Y-34520000D02*
X14805000Y-34520000D01*
X16945000Y-39060000D02*
X16930000Y-39060000D01*
X14820000Y-39060000D02*
X14805000Y-39060000D01*
G04 #@! TO.C,C4*
X30885000Y-23930000D02*
X26345000Y-23930000D01*
X30885000Y-21790000D02*
X26345000Y-21790000D01*
X30885000Y-23930000D02*
X30885000Y-23915000D01*
X30885000Y-21805000D02*
X30885000Y-21790000D01*
X26345000Y-23930000D02*
X26345000Y-23915000D01*
X26345000Y-21805000D02*
X26345000Y-21790000D01*
G04 #@! TO.C,R12*
X11335000Y-58650000D02*
X11335000Y-58320000D01*
X11335000Y-58320000D02*
X17875000Y-58320000D01*
X17875000Y-58320000D02*
X17875000Y-58650000D01*
X11335000Y-60730000D02*
X11335000Y-61060000D01*
X11335000Y-61060000D02*
X17875000Y-61060000D01*
X17875000Y-61060000D02*
X17875000Y-60730000D01*
G04 #@! TO.C,R11*
X21495000Y-58650000D02*
X21495000Y-58320000D01*
X21495000Y-58320000D02*
X28035000Y-58320000D01*
X28035000Y-58320000D02*
X28035000Y-58650000D01*
X21495000Y-60730000D02*
X21495000Y-61060000D01*
X21495000Y-61060000D02*
X28035000Y-61060000D01*
X28035000Y-61060000D02*
X28035000Y-60730000D01*
G04 #@! TO.C,R10*
X16415000Y-54205000D02*
X16415000Y-53875000D01*
X16415000Y-53875000D02*
X22955000Y-53875000D01*
X22955000Y-53875000D02*
X22955000Y-54205000D01*
X16415000Y-56285000D02*
X16415000Y-56615000D01*
X16415000Y-56615000D02*
X22955000Y-56615000D01*
X22955000Y-56615000D02*
X22955000Y-56285000D01*
G04 #@! TO.C,R9*
X4675000Y-69310000D02*
X4345000Y-69310000D01*
X4345000Y-69310000D02*
X4345000Y-62770000D01*
X4345000Y-62770000D02*
X4675000Y-62770000D01*
X6755000Y-69310000D02*
X7085000Y-69310000D01*
X7085000Y-69310000D02*
X7085000Y-62770000D01*
X7085000Y-62770000D02*
X6755000Y-62770000D01*
G04 #@! TO.C,R8*
X2445000Y-27535000D02*
X2445000Y-27205000D01*
X2445000Y-27205000D02*
X8985000Y-27205000D01*
X8985000Y-27205000D02*
X8985000Y-27535000D01*
X2445000Y-29615000D02*
X2445000Y-29945000D01*
X2445000Y-29945000D02*
X8985000Y-29945000D01*
X8985000Y-29945000D02*
X8985000Y-29615000D01*
G04 #@! TO.C,R7*
X13740000Y-29750000D02*
X14070000Y-29750000D01*
X14070000Y-29750000D02*
X14070000Y-36290000D01*
X14070000Y-36290000D02*
X13740000Y-36290000D01*
X11660000Y-29750000D02*
X11330000Y-29750000D01*
X11330000Y-29750000D02*
X11330000Y-36290000D01*
X11330000Y-36290000D02*
X11660000Y-36290000D01*
G04 #@! TO.C,R6*
X12160000Y-83590000D02*
X12160000Y-83920000D01*
X12160000Y-83920000D02*
X5620000Y-83920000D01*
X5620000Y-83920000D02*
X5620000Y-83590000D01*
X12160000Y-81510000D02*
X12160000Y-81180000D01*
X12160000Y-81180000D02*
X5620000Y-81180000D01*
X5620000Y-81180000D02*
X5620000Y-81510000D01*
G04 #@! TO.C,R5*
X24035000Y-4675000D02*
X24035000Y-4345000D01*
X24035000Y-4345000D02*
X30575000Y-4345000D01*
X30575000Y-4345000D02*
X30575000Y-4675000D01*
X24035000Y-6755000D02*
X24035000Y-7085000D01*
X24035000Y-7085000D02*
X30575000Y-7085000D01*
X30575000Y-7085000D02*
X30575000Y-6755000D01*
G04 #@! TO.C,R4*
X2445000Y-30710000D02*
X2445000Y-30380000D01*
X2445000Y-30380000D02*
X8985000Y-30380000D01*
X8985000Y-30380000D02*
X8985000Y-30710000D01*
X2445000Y-32790000D02*
X2445000Y-33120000D01*
X2445000Y-33120000D02*
X8985000Y-33120000D01*
X8985000Y-33120000D02*
X8985000Y-32790000D01*
G04 #@! TO.C,R3*
X14835000Y-31210000D02*
X14505000Y-31210000D01*
X14505000Y-31210000D02*
X14505000Y-24670000D01*
X14505000Y-24670000D02*
X14835000Y-24670000D01*
X16915000Y-31210000D02*
X17245000Y-31210000D01*
X17245000Y-31210000D02*
X17245000Y-24670000D01*
X17245000Y-24670000D02*
X16915000Y-24670000D01*
G04 #@! TO.C,R2*
X15470000Y-19780000D02*
X15140000Y-19780000D01*
X15140000Y-19780000D02*
X15140000Y-13240000D01*
X15140000Y-13240000D02*
X15470000Y-13240000D01*
X17550000Y-19780000D02*
X17880000Y-19780000D01*
X17880000Y-19780000D02*
X17880000Y-13240000D01*
X17880000Y-13240000D02*
X17550000Y-13240000D01*
G04 #@! TO.C,R1*
X12795000Y-17550000D02*
X12795000Y-17880000D01*
X12795000Y-17880000D02*
X6255000Y-17880000D01*
X6255000Y-17880000D02*
X6255000Y-17550000D01*
X12795000Y-15470000D02*
X12795000Y-15140000D01*
X12795000Y-15140000D02*
X6255000Y-15140000D01*
X6255000Y-15140000D02*
X6255000Y-15470000D01*
G04 #@! TO.C,RV2*
X34535000Y-52700000D02*
X15245000Y-52700000D01*
X34535000Y-47630000D02*
X15245000Y-47630000D01*
X34535000Y-52700000D02*
X34535000Y-47630000D01*
X15245000Y-52700000D02*
X15245000Y-47630000D01*
X36055000Y-51464000D02*
X34536000Y-51464000D01*
X36055000Y-48865000D02*
X34536000Y-48865000D01*
X36055000Y-51464000D02*
X36055000Y-48865000D01*
X34536000Y-51464000D02*
X34536000Y-48865000D01*
X36055000Y-50165000D02*
X35296000Y-50165000D01*
G04 #@! TO.C,RV1*
X34535000Y-46350000D02*
X15245000Y-46350000D01*
X34535000Y-41280000D02*
X15245000Y-41280000D01*
X34535000Y-46350000D02*
X34535000Y-41280000D01*
X15245000Y-46350000D02*
X15245000Y-41280000D01*
X36055000Y-45114000D02*
X34536000Y-45114000D01*
X36055000Y-42515000D02*
X34536000Y-42515000D01*
X36055000Y-45114000D02*
X36055000Y-42515000D01*
X34536000Y-45114000D02*
X34536000Y-42515000D01*
X36055000Y-43815000D02*
X35296000Y-43815000D01*
G04 #@! TO.C,Q1*
X21667316Y-66578445D02*
G75*
G03*
X25945000Y-65550000I1827684J1808445D01*
G01*
X21653259Y-62958125D02*
G75*
G02*
X25945000Y-63950000I1841741J-1811875D01*
G01*
X21645000Y-62970000D02*
X21645000Y-66570000D01*
G04 #@! TO.C,J7*
X27130000Y-85580000D02*
X36250000Y-85580000D01*
X27130000Y-89680000D02*
X36250000Y-89680000D01*
X27130000Y-73530000D02*
X36250000Y-73530000D01*
X36250000Y-73530000D02*
X36250000Y-101730000D01*
X36250000Y-101730000D02*
X27130000Y-101730000D01*
X27130000Y-101730000D02*
X27130000Y-73530000D01*
X21510000Y-78740000D02*
X20510000Y-78240000D01*
X20510000Y-78240000D02*
X20510000Y-79240000D01*
X20510000Y-79240000D02*
X21510000Y-78740000D01*
G04 #@! TO.C,J3*
X0Y-56300000D02*
X500000Y-56300000D01*
X0Y-56300000D02*
X0Y-55800000D01*
X14200000Y-56300000D02*
X13700000Y-56300000D01*
X14200000Y-56300000D02*
X14200000Y-55800000D01*
X14200000Y-44800000D02*
X13700000Y-44800000D01*
X14200000Y-44800000D02*
X14200000Y-45300000D01*
X0Y-44800000D02*
X500000Y-44800000D01*
X0Y-44800000D02*
X0Y-45300000D01*
G04 #@! TO.C,J2*
X0Y-98210000D02*
X500000Y-98210000D01*
X0Y-98210000D02*
X0Y-97710000D01*
X14200000Y-98210000D02*
X13700000Y-98210000D01*
X14200000Y-98210000D02*
X14200000Y-97710000D01*
X14200000Y-86710000D02*
X13700000Y-86710000D01*
X14200000Y-86710000D02*
X14200000Y-87210000D01*
X0Y-86710000D02*
X500000Y-86710000D01*
X0Y-86710000D02*
X0Y-87210000D01*
G04 #@! TO.C,J1*
X0Y-14390000D02*
X500000Y-14390000D01*
X0Y-14390000D02*
X0Y-13890000D01*
X14200000Y-14390000D02*
X13700000Y-14390000D01*
X14200000Y-14390000D02*
X14200000Y-13890000D01*
X14200000Y-2890000D02*
X13700000Y-2890000D01*
X14200000Y-2890000D02*
X14200000Y-3390000D01*
X0Y-2890000D02*
X500000Y-2890000D01*
X0Y-2890000D02*
X0Y-3390000D01*
G04 #@! TO.C,D1*
X12485000Y-62380000D02*
X12485000Y-64620000D01*
X12485000Y-64620000D02*
X16725000Y-64620000D01*
X16725000Y-64620000D02*
X16725000Y-62380000D01*
X16725000Y-62380000D02*
X12485000Y-62380000D01*
X11835000Y-63500000D02*
X12485000Y-63500000D01*
X17375000Y-63500000D02*
X16725000Y-63500000D01*
X13205000Y-62380000D02*
X13205000Y-64620000D01*
X13325000Y-62380000D02*
X13325000Y-64620000D01*
X13085000Y-62380000D02*
X13085000Y-64620000D01*
G04 #@! TO.C,C6*
X26440000Y-70920000D02*
X21900000Y-70920000D01*
X26440000Y-68780000D02*
X21900000Y-68780000D01*
X26440000Y-70920000D02*
X26440000Y-70905000D01*
X26440000Y-68795000D02*
X26440000Y-68780000D01*
X21900000Y-70920000D02*
X21900000Y-70905000D01*
X21900000Y-68795000D02*
X21900000Y-68780000D01*
G04 #@! TO.C,C5*
X28775000Y-34060000D02*
X28775000Y-29520000D01*
X30915000Y-34060000D02*
X30915000Y-29520000D01*
X28775000Y-34060000D02*
X28790000Y-34060000D01*
X30900000Y-34060000D02*
X30915000Y-34060000D01*
X28775000Y-29520000D02*
X28790000Y-29520000D01*
X30900000Y-29520000D02*
X30915000Y-29520000D01*
G04 #@! TO.C,C3*
X18725000Y-7820000D02*
X23265000Y-7820000D01*
X18725000Y-9960000D02*
X23265000Y-9960000D01*
X18725000Y-7820000D02*
X18725000Y-7835000D01*
X18725000Y-9945000D02*
X18725000Y-9960000D01*
X23265000Y-7820000D02*
X23265000Y-7835000D01*
X23265000Y-9945000D02*
X23265000Y-9960000D01*
G04 #@! TO.C,C2*
X24995000Y-1470000D02*
X29535000Y-1470000D01*
X24995000Y-3610000D02*
X29535000Y-3610000D01*
X24995000Y-1470000D02*
X24995000Y-1485000D01*
X24995000Y-3595000D02*
X24995000Y-3610000D01*
X29535000Y-1470000D02*
X29535000Y-1485000D01*
X29535000Y-3595000D02*
X29535000Y-3610000D01*
G04 #@! TO.C,C1*
X18615000Y-18820000D02*
X18615000Y-14280000D01*
X20755000Y-18820000D02*
X20755000Y-14280000D01*
X18615000Y-18820000D02*
X18630000Y-18820000D01*
X20740000Y-18820000D02*
X20755000Y-18820000D01*
X18615000Y-14280000D02*
X18630000Y-14280000D01*
X20740000Y-14280000D02*
X20755000Y-14280000D01*
G04 #@! TO.C,U3*
D10*
X14057380Y-73239047D02*
X14057380Y-72667619D01*
X15057380Y-72953333D02*
X14057380Y-72953333D01*
X15057380Y-71858095D02*
X15057380Y-72334285D01*
X14057380Y-72334285D01*
X14057380Y-71334285D02*
X14057380Y-71239047D01*
X14105000Y-71143809D01*
X14152619Y-71096190D01*
X14247857Y-71048571D01*
X14438333Y-71000952D01*
X14676428Y-71000952D01*
X14866904Y-71048571D01*
X14962142Y-71096190D01*
X15009761Y-71143809D01*
X15057380Y-71239047D01*
X15057380Y-71334285D01*
X15009761Y-71429523D01*
X14962142Y-71477142D01*
X14866904Y-71524761D01*
X14676428Y-71572380D01*
X14438333Y-71572380D01*
X14247857Y-71524761D01*
X14152619Y-71477142D01*
X14105000Y-71429523D01*
X14057380Y-71334285D01*
X14057380Y-70667619D02*
X14057380Y-70000952D01*
X15057380Y-70429523D01*
X15057380Y-69096190D02*
X15057380Y-69667619D01*
X15057380Y-69381904D02*
X14057380Y-69381904D01*
X14200238Y-69477142D01*
X14295476Y-69572380D01*
X14343095Y-69667619D01*
G04 #@! TO.C,U2*
X23217142Y-32503809D02*
X23264761Y-32551428D01*
X23312380Y-32694285D01*
X23312380Y-32789523D01*
X23264761Y-32932380D01*
X23169523Y-33027619D01*
X23074285Y-33075238D01*
X22883809Y-33122857D01*
X22740952Y-33122857D01*
X22550476Y-33075238D01*
X22455238Y-33027619D01*
X22360000Y-32932380D01*
X22312380Y-32789523D01*
X22312380Y-32694285D01*
X22360000Y-32551428D01*
X22407619Y-32503809D01*
X23026666Y-32122857D02*
X23026666Y-31646666D01*
X23312380Y-32218095D02*
X22312380Y-31884761D01*
X23312380Y-31551428D01*
X22312380Y-31313333D02*
X22312380Y-30694285D01*
X22693333Y-31027619D01*
X22693333Y-30884761D01*
X22740952Y-30789523D01*
X22788571Y-30741904D01*
X22883809Y-30694285D01*
X23121904Y-30694285D01*
X23217142Y-30741904D01*
X23264761Y-30789523D01*
X23312380Y-30884761D01*
X23312380Y-31170476D01*
X23264761Y-31265714D01*
X23217142Y-31313333D01*
X22312380Y-30075238D02*
X22312380Y-29980000D01*
X22360000Y-29884761D01*
X22407619Y-29837142D01*
X22502857Y-29789523D01*
X22693333Y-29741904D01*
X22931428Y-29741904D01*
X23121904Y-29789523D01*
X23217142Y-29837142D01*
X23264761Y-29884761D01*
X23312380Y-29980000D01*
X23312380Y-30075238D01*
X23264761Y-30170476D01*
X23217142Y-30218095D01*
X23121904Y-30265714D01*
X22931428Y-30313333D01*
X22693333Y-30313333D01*
X22502857Y-30265714D01*
X22407619Y-30218095D01*
X22360000Y-30170476D01*
X22312380Y-30075238D01*
X22740952Y-29170476D02*
X22693333Y-29265714D01*
X22645714Y-29313333D01*
X22550476Y-29360952D01*
X22502857Y-29360952D01*
X22407619Y-29313333D01*
X22360000Y-29265714D01*
X22312380Y-29170476D01*
X22312380Y-28980000D01*
X22360000Y-28884761D01*
X22407619Y-28837142D01*
X22502857Y-28789523D01*
X22550476Y-28789523D01*
X22645714Y-28837142D01*
X22693333Y-28884761D01*
X22740952Y-28980000D01*
X22740952Y-29170476D01*
X22788571Y-29265714D01*
X22836190Y-29313333D01*
X22931428Y-29360952D01*
X23121904Y-29360952D01*
X23217142Y-29313333D01*
X23264761Y-29265714D01*
X23312380Y-29170476D01*
X23312380Y-28980000D01*
X23264761Y-28884761D01*
X23217142Y-28837142D01*
X23121904Y-28789523D01*
X22931428Y-28789523D01*
X22836190Y-28837142D01*
X22788571Y-28884761D01*
X22740952Y-28980000D01*
X22312380Y-28170476D02*
X22312380Y-28075238D01*
X22360000Y-27980000D01*
X22407619Y-27932380D01*
X22502857Y-27884761D01*
X22693333Y-27837142D01*
X22931428Y-27837142D01*
X23121904Y-27884761D01*
X23217142Y-27932380D01*
X23264761Y-27980000D01*
X23312380Y-28075238D01*
X23312380Y-28170476D01*
X23264761Y-28265714D01*
X23217142Y-28313333D01*
X23121904Y-28360952D01*
X22931428Y-28408571D01*
X22693333Y-28408571D01*
X22502857Y-28360952D01*
X22407619Y-28313333D01*
X22360000Y-28265714D01*
X22312380Y-28170476D01*
G04 #@! TO.C,U1*
X25185952Y-15327380D02*
X25757380Y-15327380D01*
X25471666Y-16327380D02*
X25471666Y-15327380D01*
X26566904Y-16327380D02*
X26090714Y-16327380D01*
X26090714Y-15327380D01*
X27090714Y-15327380D02*
X27185952Y-15327380D01*
X27281190Y-15375000D01*
X27328809Y-15422619D01*
X27376428Y-15517857D01*
X27424047Y-15708333D01*
X27424047Y-15946428D01*
X27376428Y-16136904D01*
X27328809Y-16232142D01*
X27281190Y-16279761D01*
X27185952Y-16327380D01*
X27090714Y-16327380D01*
X26995476Y-16279761D01*
X26947857Y-16232142D01*
X26900238Y-16136904D01*
X26852619Y-15946428D01*
X26852619Y-15708333D01*
X26900238Y-15517857D01*
X26947857Y-15422619D01*
X26995476Y-15375000D01*
X27090714Y-15327380D01*
X27757380Y-15327380D02*
X28424047Y-15327380D01*
X27995476Y-16327380D01*
X28757380Y-15422619D02*
X28804999Y-15375000D01*
X28900238Y-15327380D01*
X29138333Y-15327380D01*
X29233571Y-15375000D01*
X29281190Y-15422619D01*
X29328809Y-15517857D01*
X29328809Y-15613095D01*
X29281190Y-15755952D01*
X28709761Y-16327380D01*
X29328809Y-16327380D01*
G04 #@! TO.C,C8*
D13*
X4036666Y-75246666D02*
X3636666Y-75246666D01*
X3836666Y-75246666D02*
X3836666Y-74546666D01*
X3770000Y-74646666D01*
X3703333Y-74713333D01*
X3636666Y-74746666D01*
X4470000Y-74546666D02*
X4536666Y-74546666D01*
X4603333Y-74580000D01*
X4636666Y-74613333D01*
X4670000Y-74680000D01*
X4703333Y-74813333D01*
X4703333Y-74980000D01*
X4670000Y-75113333D01*
X4636666Y-75180000D01*
X4603333Y-75213333D01*
X4536666Y-75246666D01*
X4470000Y-75246666D01*
X4403333Y-75213333D01*
X4370000Y-75180000D01*
X4336666Y-75113333D01*
X4303333Y-74980000D01*
X4303333Y-74813333D01*
X4336666Y-74680000D01*
X4370000Y-74613333D01*
X4403333Y-74580000D01*
X4470000Y-74546666D01*
X5136666Y-74546666D02*
X5203333Y-74546666D01*
X5270000Y-74580000D01*
X5303333Y-74613333D01*
X5336666Y-74680000D01*
X5370000Y-74813333D01*
X5370000Y-74980000D01*
X5336666Y-75113333D01*
X5303333Y-75180000D01*
X5270000Y-75213333D01*
X5203333Y-75246666D01*
X5136666Y-75246666D01*
X5070000Y-75213333D01*
X5036666Y-75180000D01*
X5003333Y-75113333D01*
X4970000Y-74980000D01*
X4970000Y-74813333D01*
X5003333Y-74680000D01*
X5036666Y-74613333D01*
X5070000Y-74580000D01*
X5136666Y-74546666D01*
X5670000Y-74780000D02*
X5670000Y-75246666D01*
X5670000Y-74846666D02*
X5703333Y-74813333D01*
X5770000Y-74780000D01*
X5870000Y-74780000D01*
X5936666Y-74813333D01*
X5970000Y-74880000D01*
X5970000Y-75246666D01*
X6536666Y-74880000D02*
X6303333Y-74880000D01*
X6303333Y-75246666D02*
X6303333Y-74546666D01*
X6636666Y-74546666D01*
G04 #@! TO.C,C7*
X16191666Y-37873333D02*
X16191666Y-38273333D01*
X16191666Y-38073333D02*
X15491666Y-38073333D01*
X15591666Y-38140000D01*
X15658333Y-38206666D01*
X15691666Y-38273333D01*
X15491666Y-37440000D02*
X15491666Y-37373333D01*
X15525000Y-37306666D01*
X15558333Y-37273333D01*
X15625000Y-37240000D01*
X15758333Y-37206666D01*
X15925000Y-37206666D01*
X16058333Y-37240000D01*
X16125000Y-37273333D01*
X16158333Y-37306666D01*
X16191666Y-37373333D01*
X16191666Y-37440000D01*
X16158333Y-37506666D01*
X16125000Y-37540000D01*
X16058333Y-37573333D01*
X15925000Y-37606666D01*
X15758333Y-37606666D01*
X15625000Y-37573333D01*
X15558333Y-37540000D01*
X15525000Y-37506666D01*
X15491666Y-37440000D01*
X15491666Y-36773333D02*
X15491666Y-36706666D01*
X15525000Y-36640000D01*
X15558333Y-36606666D01*
X15625000Y-36573333D01*
X15758333Y-36540000D01*
X15925000Y-36540000D01*
X16058333Y-36573333D01*
X16125000Y-36606666D01*
X16158333Y-36640000D01*
X16191666Y-36706666D01*
X16191666Y-36773333D01*
X16158333Y-36840000D01*
X16125000Y-36873333D01*
X16058333Y-36906666D01*
X15925000Y-36940000D01*
X15758333Y-36940000D01*
X15625000Y-36906666D01*
X15558333Y-36873333D01*
X15525000Y-36840000D01*
X15491666Y-36773333D01*
X15725000Y-36240000D02*
X16191666Y-36240000D01*
X15791666Y-36240000D02*
X15758333Y-36206666D01*
X15725000Y-36140000D01*
X15725000Y-36040000D01*
X15758333Y-35973333D01*
X15825000Y-35940000D01*
X16191666Y-35940000D01*
X15825000Y-35373333D02*
X15825000Y-35606666D01*
X16191666Y-35606666D02*
X15491666Y-35606666D01*
X15491666Y-35273333D01*
G04 #@! TO.C,C4*
X27491666Y-23176666D02*
X27091666Y-23176666D01*
X27291666Y-23176666D02*
X27291666Y-22476666D01*
X27225000Y-22576666D01*
X27158333Y-22643333D01*
X27091666Y-22676666D01*
X27925000Y-22476666D02*
X27991666Y-22476666D01*
X28058333Y-22510000D01*
X28091666Y-22543333D01*
X28125000Y-22610000D01*
X28158333Y-22743333D01*
X28158333Y-22910000D01*
X28125000Y-23043333D01*
X28091666Y-23110000D01*
X28058333Y-23143333D01*
X27991666Y-23176666D01*
X27925000Y-23176666D01*
X27858333Y-23143333D01*
X27825000Y-23110000D01*
X27791666Y-23043333D01*
X27758333Y-22910000D01*
X27758333Y-22743333D01*
X27791666Y-22610000D01*
X27825000Y-22543333D01*
X27858333Y-22510000D01*
X27925000Y-22476666D01*
X28591666Y-22476666D02*
X28658333Y-22476666D01*
X28725000Y-22510000D01*
X28758333Y-22543333D01*
X28791666Y-22610000D01*
X28825000Y-22743333D01*
X28825000Y-22910000D01*
X28791666Y-23043333D01*
X28758333Y-23110000D01*
X28725000Y-23143333D01*
X28658333Y-23176666D01*
X28591666Y-23176666D01*
X28525000Y-23143333D01*
X28491666Y-23110000D01*
X28458333Y-23043333D01*
X28425000Y-22910000D01*
X28425000Y-22743333D01*
X28458333Y-22610000D01*
X28491666Y-22543333D01*
X28525000Y-22510000D01*
X28591666Y-22476666D01*
X29125000Y-22710000D02*
X29125000Y-23176666D01*
X29125000Y-22776666D02*
X29158333Y-22743333D01*
X29225000Y-22710000D01*
X29325000Y-22710000D01*
X29391666Y-22743333D01*
X29425000Y-22810000D01*
X29425000Y-23176666D01*
X29991666Y-22810000D02*
X29758333Y-22810000D01*
X29758333Y-23176666D02*
X29758333Y-22476666D01*
X30091666Y-22476666D01*
G04 #@! TO.C,R12*
D10*
X13533571Y-60142380D02*
X12962142Y-60142380D01*
X13247857Y-60142380D02*
X13247857Y-59142380D01*
X13152619Y-59285238D01*
X13057380Y-59380476D01*
X12962142Y-59428095D01*
X14152619Y-59142380D02*
X14247857Y-59142380D01*
X14343095Y-59190000D01*
X14390714Y-59237619D01*
X14438333Y-59332857D01*
X14485952Y-59523333D01*
X14485952Y-59761428D01*
X14438333Y-59951904D01*
X14390714Y-60047142D01*
X14343095Y-60094761D01*
X14247857Y-60142380D01*
X14152619Y-60142380D01*
X14057380Y-60094761D01*
X14009761Y-60047142D01*
X13962142Y-59951904D01*
X13914523Y-59761428D01*
X13914523Y-59523333D01*
X13962142Y-59332857D01*
X14009761Y-59237619D01*
X14057380Y-59190000D01*
X14152619Y-59142380D01*
X15105000Y-59142380D02*
X15200238Y-59142380D01*
X15295476Y-59190000D01*
X15343095Y-59237619D01*
X15390714Y-59332857D01*
X15438333Y-59523333D01*
X15438333Y-59761428D01*
X15390714Y-59951904D01*
X15343095Y-60047142D01*
X15295476Y-60094761D01*
X15200238Y-60142380D01*
X15105000Y-60142380D01*
X15009761Y-60094761D01*
X14962142Y-60047142D01*
X14914523Y-59951904D01*
X14866904Y-59761428D01*
X14866904Y-59523333D01*
X14914523Y-59332857D01*
X14962142Y-59237619D01*
X15009761Y-59190000D01*
X15105000Y-59142380D01*
X15866904Y-60142380D02*
X15866904Y-59142380D01*
X15962142Y-59761428D02*
X16247857Y-60142380D01*
X16247857Y-59475714D02*
X15866904Y-59856666D01*
G04 #@! TO.C,R11*
X24169761Y-60142380D02*
X23598333Y-60142380D01*
X23884047Y-60142380D02*
X23884047Y-59142380D01*
X23788809Y-59285238D01*
X23693571Y-59380476D01*
X23598333Y-59428095D01*
X25122142Y-60142380D02*
X24550714Y-60142380D01*
X24836428Y-60142380D02*
X24836428Y-59142380D01*
X24741190Y-59285238D01*
X24645952Y-59380476D01*
X24550714Y-59428095D01*
X25550714Y-60142380D02*
X25550714Y-59142380D01*
X25645952Y-59761428D02*
X25931666Y-60142380D01*
X25931666Y-59475714D02*
X25550714Y-59856666D01*
G04 #@! TO.C,R10*
X17994523Y-54697380D02*
X18613571Y-54697380D01*
X18280238Y-55078333D01*
X18423095Y-55078333D01*
X18518333Y-55125952D01*
X18565952Y-55173571D01*
X18613571Y-55268809D01*
X18613571Y-55506904D01*
X18565952Y-55602142D01*
X18518333Y-55649761D01*
X18423095Y-55697380D01*
X18137380Y-55697380D01*
X18042142Y-55649761D01*
X17994523Y-55602142D01*
X18946904Y-54697380D02*
X19565952Y-54697380D01*
X19232619Y-55078333D01*
X19375476Y-55078333D01*
X19470714Y-55125952D01*
X19518333Y-55173571D01*
X19565952Y-55268809D01*
X19565952Y-55506904D01*
X19518333Y-55602142D01*
X19470714Y-55649761D01*
X19375476Y-55697380D01*
X19089761Y-55697380D01*
X18994523Y-55649761D01*
X18946904Y-55602142D01*
X20185000Y-54697380D02*
X20280238Y-54697380D01*
X20375476Y-54745000D01*
X20423095Y-54792619D01*
X20470714Y-54887857D01*
X20518333Y-55078333D01*
X20518333Y-55316428D01*
X20470714Y-55506904D01*
X20423095Y-55602142D01*
X20375476Y-55649761D01*
X20280238Y-55697380D01*
X20185000Y-55697380D01*
X20089761Y-55649761D01*
X20042142Y-55602142D01*
X19994523Y-55506904D01*
X19946904Y-55316428D01*
X19946904Y-55078333D01*
X19994523Y-54887857D01*
X20042142Y-54792619D01*
X20089761Y-54745000D01*
X20185000Y-54697380D01*
X20946904Y-55697380D02*
X20946904Y-54697380D01*
X21042142Y-55316428D02*
X21327857Y-55697380D01*
X21327857Y-55030714D02*
X20946904Y-55411666D01*
G04 #@! TO.C,R9*
X6167380Y-67111428D02*
X6167380Y-67682857D01*
X6167380Y-67397142D02*
X5167380Y-67397142D01*
X5310238Y-67492380D01*
X5405476Y-67587619D01*
X5453095Y-67682857D01*
X5167380Y-66492380D02*
X5167380Y-66397142D01*
X5215000Y-66301904D01*
X5262619Y-66254285D01*
X5357857Y-66206666D01*
X5548333Y-66159047D01*
X5786428Y-66159047D01*
X5976904Y-66206666D01*
X6072142Y-66254285D01*
X6119761Y-66301904D01*
X6167380Y-66397142D01*
X6167380Y-66492380D01*
X6119761Y-66587619D01*
X6072142Y-66635238D01*
X5976904Y-66682857D01*
X5786428Y-66730476D01*
X5548333Y-66730476D01*
X5357857Y-66682857D01*
X5262619Y-66635238D01*
X5215000Y-66587619D01*
X5167380Y-66492380D01*
X5167380Y-65540000D02*
X5167380Y-65444761D01*
X5215000Y-65349523D01*
X5262619Y-65301904D01*
X5357857Y-65254285D01*
X5548333Y-65206666D01*
X5786428Y-65206666D01*
X5976904Y-65254285D01*
X6072142Y-65301904D01*
X6119761Y-65349523D01*
X6167380Y-65444761D01*
X6167380Y-65540000D01*
X6119761Y-65635238D01*
X6072142Y-65682857D01*
X5976904Y-65730476D01*
X5786428Y-65778095D01*
X5548333Y-65778095D01*
X5357857Y-65730476D01*
X5262619Y-65682857D01*
X5215000Y-65635238D01*
X5167380Y-65540000D01*
X6167380Y-64778095D02*
X5167380Y-64778095D01*
X5786428Y-64682857D02*
X6167380Y-64397142D01*
X5500714Y-64397142D02*
X5881666Y-64778095D01*
G04 #@! TO.C,R8*
X4953095Y-28122619D02*
X5000714Y-28075000D01*
X5095952Y-28027380D01*
X5334047Y-28027380D01*
X5429285Y-28075000D01*
X5476904Y-28122619D01*
X5524523Y-28217857D01*
X5524523Y-28313095D01*
X5476904Y-28455952D01*
X4905476Y-29027380D01*
X5524523Y-29027380D01*
X5905476Y-28122619D02*
X5953095Y-28075000D01*
X6048333Y-28027380D01*
X6286428Y-28027380D01*
X6381666Y-28075000D01*
X6429285Y-28122619D01*
X6476904Y-28217857D01*
X6476904Y-28313095D01*
X6429285Y-28455952D01*
X5857857Y-29027380D01*
X6476904Y-29027380D01*
G04 #@! TO.C,R7*
X13152380Y-34091428D02*
X13152380Y-34662857D01*
X13152380Y-34377142D02*
X12152380Y-34377142D01*
X12295238Y-34472380D01*
X12390476Y-34567619D01*
X12438095Y-34662857D01*
X12152380Y-33472380D02*
X12152380Y-33377142D01*
X12200000Y-33281904D01*
X12247619Y-33234285D01*
X12342857Y-33186666D01*
X12533333Y-33139047D01*
X12771428Y-33139047D01*
X12961904Y-33186666D01*
X13057142Y-33234285D01*
X13104761Y-33281904D01*
X13152380Y-33377142D01*
X13152380Y-33472380D01*
X13104761Y-33567619D01*
X13057142Y-33615238D01*
X12961904Y-33662857D01*
X12771428Y-33710476D01*
X12533333Y-33710476D01*
X12342857Y-33662857D01*
X12247619Y-33615238D01*
X12200000Y-33567619D01*
X12152380Y-33472380D01*
X12152380Y-32520000D02*
X12152380Y-32424761D01*
X12200000Y-32329523D01*
X12247619Y-32281904D01*
X12342857Y-32234285D01*
X12533333Y-32186666D01*
X12771428Y-32186666D01*
X12961904Y-32234285D01*
X13057142Y-32281904D01*
X13104761Y-32329523D01*
X13152380Y-32424761D01*
X13152380Y-32520000D01*
X13104761Y-32615238D01*
X13057142Y-32662857D01*
X12961904Y-32710476D01*
X12771428Y-32758095D01*
X12533333Y-32758095D01*
X12342857Y-32710476D01*
X12247619Y-32662857D01*
X12200000Y-32615238D01*
X12152380Y-32520000D01*
X13152380Y-31758095D02*
X12152380Y-31758095D01*
X12771428Y-31662857D02*
X13152380Y-31377142D01*
X12485714Y-31377142D02*
X12866666Y-31758095D01*
G04 #@! TO.C,R6*
X8770952Y-83002380D02*
X8199523Y-83002380D01*
X8485238Y-83002380D02*
X8485238Y-82002380D01*
X8390000Y-82145238D01*
X8294761Y-82240476D01*
X8199523Y-82288095D01*
X9199523Y-83002380D02*
X9199523Y-82002380D01*
X9294761Y-82621428D02*
X9580476Y-83002380D01*
X9580476Y-82335714D02*
X9199523Y-82716666D01*
G04 #@! TO.C,R5*
X26662142Y-5167380D02*
X26185952Y-5167380D01*
X26138333Y-5643571D01*
X26185952Y-5595952D01*
X26281190Y-5548333D01*
X26519285Y-5548333D01*
X26614523Y-5595952D01*
X26662142Y-5643571D01*
X26709761Y-5738809D01*
X26709761Y-5976904D01*
X26662142Y-6072142D01*
X26614523Y-6119761D01*
X26519285Y-6167380D01*
X26281190Y-6167380D01*
X26185952Y-6119761D01*
X26138333Y-6072142D01*
X27662142Y-6167380D02*
X27090714Y-6167380D01*
X27376428Y-6167380D02*
X27376428Y-5167380D01*
X27281190Y-5310238D01*
X27185952Y-5405476D01*
X27090714Y-5453095D01*
X28090714Y-6167380D02*
X28090714Y-5167380D01*
X28185952Y-5786428D02*
X28471666Y-6167380D01*
X28471666Y-5500714D02*
X28090714Y-5881666D01*
G04 #@! TO.C,R4*
X4953095Y-31297619D02*
X5000714Y-31250000D01*
X5095952Y-31202380D01*
X5334047Y-31202380D01*
X5429285Y-31250000D01*
X5476904Y-31297619D01*
X5524523Y-31392857D01*
X5524523Y-31488095D01*
X5476904Y-31630952D01*
X4905476Y-32202380D01*
X5524523Y-32202380D01*
X5905476Y-31297619D02*
X5953095Y-31250000D01*
X6048333Y-31202380D01*
X6286428Y-31202380D01*
X6381666Y-31250000D01*
X6429285Y-31297619D01*
X6476904Y-31392857D01*
X6476904Y-31488095D01*
X6429285Y-31630952D01*
X5857857Y-32202380D01*
X6476904Y-32202380D01*
G04 #@! TO.C,R3*
X16327380Y-28535238D02*
X16327380Y-29106666D01*
X16327380Y-28820952D02*
X15327380Y-28820952D01*
X15470238Y-28916190D01*
X15565476Y-29011428D01*
X15613095Y-29106666D01*
X16327380Y-27582857D02*
X16327380Y-28154285D01*
X16327380Y-27868571D02*
X15327380Y-27868571D01*
X15470238Y-27963809D01*
X15565476Y-28059047D01*
X15613095Y-28154285D01*
X16327380Y-27154285D02*
X15327380Y-27154285D01*
X15946428Y-27059047D02*
X16327380Y-26773333D01*
X15660714Y-26773333D02*
X16041666Y-27154285D01*
G04 #@! TO.C,R2*
X16962380Y-17581428D02*
X16962380Y-18152857D01*
X16962380Y-17867142D02*
X15962380Y-17867142D01*
X16105238Y-17962380D01*
X16200476Y-18057619D01*
X16248095Y-18152857D01*
X15962380Y-16962380D02*
X15962380Y-16867142D01*
X16010000Y-16771904D01*
X16057619Y-16724285D01*
X16152857Y-16676666D01*
X16343333Y-16629047D01*
X16581428Y-16629047D01*
X16771904Y-16676666D01*
X16867142Y-16724285D01*
X16914761Y-16771904D01*
X16962380Y-16867142D01*
X16962380Y-16962380D01*
X16914761Y-17057619D01*
X16867142Y-17105238D01*
X16771904Y-17152857D01*
X16581428Y-17200476D01*
X16343333Y-17200476D01*
X16152857Y-17152857D01*
X16057619Y-17105238D01*
X16010000Y-17057619D01*
X15962380Y-16962380D01*
X15962380Y-16010000D02*
X15962380Y-15914761D01*
X16010000Y-15819523D01*
X16057619Y-15771904D01*
X16152857Y-15724285D01*
X16343333Y-15676666D01*
X16581428Y-15676666D01*
X16771904Y-15724285D01*
X16867142Y-15771904D01*
X16914761Y-15819523D01*
X16962380Y-15914761D01*
X16962380Y-16010000D01*
X16914761Y-16105238D01*
X16867142Y-16152857D01*
X16771904Y-16200476D01*
X16581428Y-16248095D01*
X16343333Y-16248095D01*
X16152857Y-16200476D01*
X16057619Y-16152857D01*
X16010000Y-16105238D01*
X15962380Y-16010000D01*
X16962380Y-15248095D02*
X15962380Y-15248095D01*
X16581428Y-15152857D02*
X16962380Y-14867142D01*
X16295714Y-14867142D02*
X16676666Y-15248095D01*
G04 #@! TO.C,R1*
X8453571Y-16962380D02*
X7882142Y-16962380D01*
X8167857Y-16962380D02*
X8167857Y-15962380D01*
X8072619Y-16105238D01*
X7977380Y-16200476D01*
X7882142Y-16248095D01*
X9072619Y-15962380D02*
X9167857Y-15962380D01*
X9263095Y-16010000D01*
X9310714Y-16057619D01*
X9358333Y-16152857D01*
X9405952Y-16343333D01*
X9405952Y-16581428D01*
X9358333Y-16771904D01*
X9310714Y-16867142D01*
X9263095Y-16914761D01*
X9167857Y-16962380D01*
X9072619Y-16962380D01*
X8977380Y-16914761D01*
X8929761Y-16867142D01*
X8882142Y-16771904D01*
X8834523Y-16581428D01*
X8834523Y-16343333D01*
X8882142Y-16152857D01*
X8929761Y-16057619D01*
X8977380Y-16010000D01*
X9072619Y-15962380D01*
X10025000Y-15962380D02*
X10120238Y-15962380D01*
X10215476Y-16010000D01*
X10263095Y-16057619D01*
X10310714Y-16152857D01*
X10358333Y-16343333D01*
X10358333Y-16581428D01*
X10310714Y-16771904D01*
X10263095Y-16867142D01*
X10215476Y-16914761D01*
X10120238Y-16962380D01*
X10025000Y-16962380D01*
X9929761Y-16914761D01*
X9882142Y-16867142D01*
X9834523Y-16771904D01*
X9786904Y-16581428D01*
X9786904Y-16343333D01*
X9834523Y-16152857D01*
X9882142Y-16057619D01*
X9929761Y-16010000D01*
X10025000Y-15962380D01*
X10786904Y-16962380D02*
X10786904Y-15962380D01*
X10882142Y-16581428D02*
X11167857Y-16962380D01*
X11167857Y-16295714D02*
X10786904Y-16676666D01*
G04 #@! TO.C,RV2*
X21153571Y-50617380D02*
X20582142Y-50617380D01*
X20867857Y-50617380D02*
X20867857Y-49617380D01*
X20772619Y-49760238D01*
X20677380Y-49855476D01*
X20582142Y-49903095D01*
X21772619Y-49617380D02*
X21867857Y-49617380D01*
X21963095Y-49665000D01*
X22010714Y-49712619D01*
X22058333Y-49807857D01*
X22105952Y-49998333D01*
X22105952Y-50236428D01*
X22058333Y-50426904D01*
X22010714Y-50522142D01*
X21963095Y-50569761D01*
X21867857Y-50617380D01*
X21772619Y-50617380D01*
X21677380Y-50569761D01*
X21629761Y-50522142D01*
X21582142Y-50426904D01*
X21534523Y-50236428D01*
X21534523Y-49998333D01*
X21582142Y-49807857D01*
X21629761Y-49712619D01*
X21677380Y-49665000D01*
X21772619Y-49617380D01*
X22725000Y-49617380D02*
X22820238Y-49617380D01*
X22915476Y-49665000D01*
X22963095Y-49712619D01*
X23010714Y-49807857D01*
X23058333Y-49998333D01*
X23058333Y-50236428D01*
X23010714Y-50426904D01*
X22963095Y-50522142D01*
X22915476Y-50569761D01*
X22820238Y-50617380D01*
X22725000Y-50617380D01*
X22629761Y-50569761D01*
X22582142Y-50522142D01*
X22534523Y-50426904D01*
X22486904Y-50236428D01*
X22486904Y-49998333D01*
X22534523Y-49807857D01*
X22582142Y-49712619D01*
X22629761Y-49665000D01*
X22725000Y-49617380D01*
X23486904Y-50617380D02*
X23486904Y-49617380D01*
X23582142Y-50236428D02*
X23867857Y-50617380D01*
X23867857Y-49950714D02*
X23486904Y-50331666D01*
G04 #@! TO.C,RV1*
X21153571Y-44267380D02*
X20582142Y-44267380D01*
X20867857Y-44267380D02*
X20867857Y-43267380D01*
X20772619Y-43410238D01*
X20677380Y-43505476D01*
X20582142Y-43553095D01*
X21772619Y-43267380D02*
X21867857Y-43267380D01*
X21963095Y-43315000D01*
X22010714Y-43362619D01*
X22058333Y-43457857D01*
X22105952Y-43648333D01*
X22105952Y-43886428D01*
X22058333Y-44076904D01*
X22010714Y-44172142D01*
X21963095Y-44219761D01*
X21867857Y-44267380D01*
X21772619Y-44267380D01*
X21677380Y-44219761D01*
X21629761Y-44172142D01*
X21582142Y-44076904D01*
X21534523Y-43886428D01*
X21534523Y-43648333D01*
X21582142Y-43457857D01*
X21629761Y-43362619D01*
X21677380Y-43315000D01*
X21772619Y-43267380D01*
X22725000Y-43267380D02*
X22820238Y-43267380D01*
X22915476Y-43315000D01*
X22963095Y-43362619D01*
X23010714Y-43457857D01*
X23058333Y-43648333D01*
X23058333Y-43886428D01*
X23010714Y-44076904D01*
X22963095Y-44172142D01*
X22915476Y-44219761D01*
X22820238Y-44267380D01*
X22725000Y-44267380D01*
X22629761Y-44219761D01*
X22582142Y-44172142D01*
X22534523Y-44076904D01*
X22486904Y-43886428D01*
X22486904Y-43648333D01*
X22534523Y-43457857D01*
X22582142Y-43362619D01*
X22629761Y-43315000D01*
X22725000Y-43267380D01*
X23486904Y-44267380D02*
X23486904Y-43267380D01*
X23582142Y-43886428D02*
X23867857Y-44267380D01*
X23867857Y-43600714D02*
X23486904Y-43981666D01*
G04 #@! TO.C,Q1*
X27130714Y-64317619D02*
X27178333Y-64270000D01*
X27273571Y-64222380D01*
X27511666Y-64222380D01*
X27606904Y-64270000D01*
X27654523Y-64317619D01*
X27702142Y-64412857D01*
X27702142Y-64508095D01*
X27654523Y-64650952D01*
X27083095Y-65222380D01*
X27702142Y-65222380D01*
X28130714Y-65222380D02*
X28130714Y-64222380D01*
X28702142Y-65222380D01*
X28702142Y-64222380D01*
X29083095Y-64222380D02*
X29702142Y-64222380D01*
X29368809Y-64603333D01*
X29511666Y-64603333D01*
X29606904Y-64650952D01*
X29654523Y-64698571D01*
X29702142Y-64793809D01*
X29702142Y-65031904D01*
X29654523Y-65127142D01*
X29606904Y-65174761D01*
X29511666Y-65222380D01*
X29225952Y-65222380D01*
X29130714Y-65174761D01*
X29083095Y-65127142D01*
X30178333Y-65222380D02*
X30368809Y-65222380D01*
X30464047Y-65174761D01*
X30511666Y-65127142D01*
X30606904Y-64984285D01*
X30654523Y-64793809D01*
X30654523Y-64412857D01*
X30606904Y-64317619D01*
X30559285Y-64270000D01*
X30464047Y-64222380D01*
X30273571Y-64222380D01*
X30178333Y-64270000D01*
X30130714Y-64317619D01*
X30083095Y-64412857D01*
X30083095Y-64650952D01*
X30130714Y-64746190D01*
X30178333Y-64793809D01*
X30273571Y-64841428D01*
X30464047Y-64841428D01*
X30559285Y-64793809D01*
X30606904Y-64746190D01*
X30654523Y-64650952D01*
X31273571Y-64222380D02*
X31368809Y-64222380D01*
X31464047Y-64270000D01*
X31511666Y-64317619D01*
X31559285Y-64412857D01*
X31606904Y-64603333D01*
X31606904Y-64841428D01*
X31559285Y-65031904D01*
X31511666Y-65127142D01*
X31464047Y-65174761D01*
X31368809Y-65222380D01*
X31273571Y-65222380D01*
X31178333Y-65174761D01*
X31130714Y-65127142D01*
X31083095Y-65031904D01*
X31035476Y-64841428D01*
X31035476Y-64603333D01*
X31083095Y-64412857D01*
X31130714Y-64317619D01*
X31178333Y-64270000D01*
X31273571Y-64222380D01*
X32464047Y-64222380D02*
X32273571Y-64222380D01*
X32178333Y-64270000D01*
X32130714Y-64317619D01*
X32035476Y-64460476D01*
X31987857Y-64650952D01*
X31987857Y-65031904D01*
X32035476Y-65127142D01*
X32083095Y-65174761D01*
X32178333Y-65222380D01*
X32368809Y-65222380D01*
X32464047Y-65174761D01*
X32511666Y-65127142D01*
X32559285Y-65031904D01*
X32559285Y-64793809D01*
X32511666Y-64698571D01*
X32464047Y-64650952D01*
X32368809Y-64603333D01*
X32178333Y-64603333D01*
X32083095Y-64650952D01*
X32035476Y-64698571D01*
X31987857Y-64793809D01*
G04 #@! TO.C,J7*
X22153809Y-76017380D02*
X22153809Y-75017380D01*
X22534761Y-75017380D01*
X22629999Y-75065000D01*
X22677619Y-75112619D01*
X22725238Y-75207857D01*
X22725238Y-75350714D01*
X22677619Y-75445952D01*
X22629999Y-75493571D01*
X22534761Y-75541190D01*
X22153809Y-75541190D01*
X23296666Y-76017380D02*
X23201428Y-75969761D01*
X23153809Y-75922142D01*
X23106190Y-75826904D01*
X23106190Y-75541190D01*
X23153809Y-75445952D01*
X23201428Y-75398333D01*
X23296666Y-75350714D01*
X23439523Y-75350714D01*
X23534761Y-75398333D01*
X23582380Y-75445952D01*
X23629999Y-75541190D01*
X23629999Y-75826904D01*
X23582380Y-75922142D01*
X23534761Y-75969761D01*
X23439523Y-76017380D01*
X23296666Y-76017380D01*
X23963333Y-75350714D02*
X24153809Y-76017380D01*
X24344285Y-75541190D01*
X24534761Y-76017380D01*
X24725238Y-75350714D01*
X25487142Y-75969761D02*
X25391904Y-76017380D01*
X25201428Y-76017380D01*
X25106190Y-75969761D01*
X25058571Y-75874523D01*
X25058571Y-75493571D01*
X25106190Y-75398333D01*
X25201428Y-75350714D01*
X25391904Y-75350714D01*
X25487142Y-75398333D01*
X25534761Y-75493571D01*
X25534761Y-75588809D01*
X25058571Y-75684047D01*
X25963333Y-76017380D02*
X25963333Y-75350714D01*
X25963333Y-75541190D02*
X26010952Y-75445952D01*
X26058571Y-75398333D01*
X26153809Y-75350714D01*
X26249047Y-75350714D01*
G04 #@! TO.C,J3*
X907023Y-44407142D02*
X859404Y-44454761D01*
X716547Y-44502380D01*
X621309Y-44502380D01*
X478452Y-44454761D01*
X383214Y-44359523D01*
X335595Y-44264285D01*
X287976Y-44073809D01*
X287976Y-43930952D01*
X335595Y-43740476D01*
X383214Y-43645238D01*
X478452Y-43550000D01*
X621309Y-43502380D01*
X716547Y-43502380D01*
X859404Y-43550000D01*
X907023Y-43597619D01*
X1192738Y-43502380D02*
X1526071Y-44502380D01*
X1859404Y-43502380D01*
G04 #@! TO.C,J2*
X526071Y-85412380D02*
X716547Y-85412380D01*
X811785Y-85460000D01*
X907023Y-85555238D01*
X954642Y-85745714D01*
X954642Y-86079047D01*
X907023Y-86269523D01*
X811785Y-86364761D01*
X716547Y-86412380D01*
X526071Y-86412380D01*
X430833Y-86364761D01*
X335595Y-86269523D01*
X287976Y-86079047D01*
X287976Y-85745714D01*
X335595Y-85555238D01*
X430833Y-85460000D01*
X526071Y-85412380D01*
X1811785Y-85745714D02*
X1811785Y-86412380D01*
X1383214Y-85745714D02*
X1383214Y-86269523D01*
X1430833Y-86364761D01*
X1526071Y-86412380D01*
X1668928Y-86412380D01*
X1764166Y-86364761D01*
X1811785Y-86317142D01*
X2145119Y-85745714D02*
X2526071Y-85745714D01*
X2287976Y-85412380D02*
X2287976Y-86269523D01*
X2335595Y-86364761D01*
X2430833Y-86412380D01*
X2526071Y-86412380D01*
G04 #@! TO.C,J1*
X335595Y-2592380D02*
X335595Y-1592380D01*
X811785Y-1925714D02*
X811785Y-2592380D01*
X811785Y-2020952D02*
X859404Y-1973333D01*
X954642Y-1925714D01*
X1097500Y-1925714D01*
X1192738Y-1973333D01*
X1240357Y-2068571D01*
X1240357Y-2592380D01*
G04 #@! TO.C,D1*
D13*
X13105000Y-62292666D02*
X12705000Y-62292666D01*
X12905000Y-62292666D02*
X12905000Y-61592666D01*
X12838333Y-61692666D01*
X12771666Y-61759333D01*
X12705000Y-61792666D01*
X13405000Y-62292666D02*
X13405000Y-61592666D01*
X13805000Y-62292666D01*
X13805000Y-61592666D01*
X14438333Y-61826000D02*
X14438333Y-62292666D01*
X14271666Y-61559333D02*
X14105000Y-62059333D01*
X14538333Y-62059333D01*
X15171666Y-62292666D02*
X14771666Y-62292666D01*
X14971666Y-62292666D02*
X14971666Y-61592666D01*
X14905000Y-61692666D01*
X14838333Y-61759333D01*
X14771666Y-61792666D01*
X15771666Y-61826000D02*
X15771666Y-62292666D01*
X15605000Y-61559333D02*
X15438333Y-62059333D01*
X15871666Y-62059333D01*
X16238333Y-61892666D02*
X16171666Y-61859333D01*
X16138333Y-61826000D01*
X16105000Y-61759333D01*
X16105000Y-61726000D01*
X16138333Y-61659333D01*
X16171666Y-61626000D01*
X16238333Y-61592666D01*
X16371666Y-61592666D01*
X16438333Y-61626000D01*
X16471666Y-61659333D01*
X16505000Y-61726000D01*
X16505000Y-61759333D01*
X16471666Y-61826000D01*
X16438333Y-61859333D01*
X16371666Y-61892666D01*
X16238333Y-61892666D01*
X16171666Y-61926000D01*
X16138333Y-61959333D01*
X16105000Y-62026000D01*
X16105000Y-62159333D01*
X16138333Y-62226000D01*
X16171666Y-62259333D01*
X16238333Y-62292666D01*
X16371666Y-62292666D01*
X16438333Y-62259333D01*
X16471666Y-62226000D01*
X16505000Y-62159333D01*
X16505000Y-62026000D01*
X16471666Y-61959333D01*
X16438333Y-61926000D01*
X16371666Y-61892666D01*
X10611666Y-62016666D02*
X10611666Y-61316666D01*
X11011666Y-62016666D02*
X10711666Y-61616666D01*
X11011666Y-61316666D02*
X10611666Y-61716666D01*
G04 #@! TO.C,C6*
X23086666Y-70166666D02*
X22686666Y-70166666D01*
X22886666Y-70166666D02*
X22886666Y-69466666D01*
X22820000Y-69566666D01*
X22753333Y-69633333D01*
X22686666Y-69666666D01*
X23520000Y-69466666D02*
X23586666Y-69466666D01*
X23653333Y-69500000D01*
X23686666Y-69533333D01*
X23720000Y-69600000D01*
X23753333Y-69733333D01*
X23753333Y-69900000D01*
X23720000Y-70033333D01*
X23686666Y-70100000D01*
X23653333Y-70133333D01*
X23586666Y-70166666D01*
X23520000Y-70166666D01*
X23453333Y-70133333D01*
X23420000Y-70100000D01*
X23386666Y-70033333D01*
X23353333Y-69900000D01*
X23353333Y-69733333D01*
X23386666Y-69600000D01*
X23420000Y-69533333D01*
X23453333Y-69500000D01*
X23520000Y-69466666D01*
X24186666Y-69466666D02*
X24253333Y-69466666D01*
X24320000Y-69500000D01*
X24353333Y-69533333D01*
X24386666Y-69600000D01*
X24420000Y-69733333D01*
X24420000Y-69900000D01*
X24386666Y-70033333D01*
X24353333Y-70100000D01*
X24320000Y-70133333D01*
X24253333Y-70166666D01*
X24186666Y-70166666D01*
X24120000Y-70133333D01*
X24086666Y-70100000D01*
X24053333Y-70033333D01*
X24020000Y-69900000D01*
X24020000Y-69733333D01*
X24053333Y-69600000D01*
X24086666Y-69533333D01*
X24120000Y-69500000D01*
X24186666Y-69466666D01*
X24720000Y-69700000D02*
X24720000Y-70166666D01*
X24720000Y-69766666D02*
X24753333Y-69733333D01*
X24820000Y-69700000D01*
X24920000Y-69700000D01*
X24986666Y-69733333D01*
X25020000Y-69800000D01*
X25020000Y-70166666D01*
X25586666Y-69800000D02*
X25353333Y-69800000D01*
X25353333Y-70166666D02*
X25353333Y-69466666D01*
X25686666Y-69466666D01*
G04 #@! TO.C,C5*
X30161666Y-32873333D02*
X30161666Y-33273333D01*
X30161666Y-33073333D02*
X29461666Y-33073333D01*
X29561666Y-33140000D01*
X29628333Y-33206666D01*
X29661666Y-33273333D01*
X29461666Y-32440000D02*
X29461666Y-32373333D01*
X29495000Y-32306666D01*
X29528333Y-32273333D01*
X29595000Y-32240000D01*
X29728333Y-32206666D01*
X29895000Y-32206666D01*
X30028333Y-32240000D01*
X30095000Y-32273333D01*
X30128333Y-32306666D01*
X30161666Y-32373333D01*
X30161666Y-32440000D01*
X30128333Y-32506666D01*
X30095000Y-32540000D01*
X30028333Y-32573333D01*
X29895000Y-32606666D01*
X29728333Y-32606666D01*
X29595000Y-32573333D01*
X29528333Y-32540000D01*
X29495000Y-32506666D01*
X29461666Y-32440000D01*
X29461666Y-31773333D02*
X29461666Y-31706666D01*
X29495000Y-31640000D01*
X29528333Y-31606666D01*
X29595000Y-31573333D01*
X29728333Y-31540000D01*
X29895000Y-31540000D01*
X30028333Y-31573333D01*
X30095000Y-31606666D01*
X30128333Y-31640000D01*
X30161666Y-31706666D01*
X30161666Y-31773333D01*
X30128333Y-31840000D01*
X30095000Y-31873333D01*
X30028333Y-31906666D01*
X29895000Y-31940000D01*
X29728333Y-31940000D01*
X29595000Y-31906666D01*
X29528333Y-31873333D01*
X29495000Y-31840000D01*
X29461666Y-31773333D01*
X29695000Y-31240000D02*
X30161666Y-31240000D01*
X29761666Y-31240000D02*
X29728333Y-31206666D01*
X29695000Y-31140000D01*
X29695000Y-31040000D01*
X29728333Y-30973333D01*
X29795000Y-30940000D01*
X30161666Y-30940000D01*
X29795000Y-30373333D02*
X29795000Y-30606666D01*
X30161666Y-30606666D02*
X29461666Y-30606666D01*
X29461666Y-30273333D01*
G04 #@! TO.C,C3*
X19911666Y-9206666D02*
X19511666Y-9206666D01*
X19711666Y-9206666D02*
X19711666Y-8506666D01*
X19645000Y-8606666D01*
X19578333Y-8673333D01*
X19511666Y-8706666D01*
X20345000Y-8506666D02*
X20411666Y-8506666D01*
X20478333Y-8540000D01*
X20511666Y-8573333D01*
X20545000Y-8640000D01*
X20578333Y-8773333D01*
X20578333Y-8940000D01*
X20545000Y-9073333D01*
X20511666Y-9140000D01*
X20478333Y-9173333D01*
X20411666Y-9206666D01*
X20345000Y-9206666D01*
X20278333Y-9173333D01*
X20245000Y-9140000D01*
X20211666Y-9073333D01*
X20178333Y-8940000D01*
X20178333Y-8773333D01*
X20211666Y-8640000D01*
X20245000Y-8573333D01*
X20278333Y-8540000D01*
X20345000Y-8506666D01*
X21011666Y-8506666D02*
X21078333Y-8506666D01*
X21145000Y-8540000D01*
X21178333Y-8573333D01*
X21211666Y-8640000D01*
X21245000Y-8773333D01*
X21245000Y-8940000D01*
X21211666Y-9073333D01*
X21178333Y-9140000D01*
X21145000Y-9173333D01*
X21078333Y-9206666D01*
X21011666Y-9206666D01*
X20945000Y-9173333D01*
X20911666Y-9140000D01*
X20878333Y-9073333D01*
X20845000Y-8940000D01*
X20845000Y-8773333D01*
X20878333Y-8640000D01*
X20911666Y-8573333D01*
X20945000Y-8540000D01*
X21011666Y-8506666D01*
X21545000Y-8740000D02*
X21545000Y-9206666D01*
X21545000Y-8806666D02*
X21578333Y-8773333D01*
X21645000Y-8740000D01*
X21745000Y-8740000D01*
X21811666Y-8773333D01*
X21845000Y-8840000D01*
X21845000Y-9206666D01*
X22411666Y-8840000D02*
X22178333Y-8840000D01*
X22178333Y-9206666D02*
X22178333Y-8506666D01*
X22511666Y-8506666D01*
G04 #@! TO.C,C2*
X26155000Y-2223333D02*
X26188333Y-2190000D01*
X26255000Y-2156666D01*
X26421666Y-2156666D01*
X26488333Y-2190000D01*
X26521666Y-2223333D01*
X26555000Y-2290000D01*
X26555000Y-2356666D01*
X26521666Y-2456666D01*
X26121666Y-2856666D01*
X26555000Y-2856666D01*
X26821666Y-2223333D02*
X26855000Y-2190000D01*
X26921666Y-2156666D01*
X27088333Y-2156666D01*
X27155000Y-2190000D01*
X27188333Y-2223333D01*
X27221666Y-2290000D01*
X27221666Y-2356666D01*
X27188333Y-2456666D01*
X26788333Y-2856666D01*
X27221666Y-2856666D01*
X27521666Y-2390000D02*
X27521666Y-3090000D01*
X27521666Y-2423333D02*
X27588333Y-2390000D01*
X27721666Y-2390000D01*
X27788333Y-2423333D01*
X27821666Y-2456666D01*
X27855000Y-2523333D01*
X27855000Y-2723333D01*
X27821666Y-2790000D01*
X27788333Y-2823333D01*
X27721666Y-2856666D01*
X27588333Y-2856666D01*
X27521666Y-2823333D01*
X28388333Y-2490000D02*
X28155000Y-2490000D01*
X28155000Y-2856666D02*
X28155000Y-2156666D01*
X28488333Y-2156666D01*
G04 #@! TO.C,C1*
X20001666Y-17260000D02*
X20001666Y-17660000D01*
X20001666Y-17460000D02*
X19301666Y-17460000D01*
X19401666Y-17526666D01*
X19468333Y-17593333D01*
X19501666Y-17660000D01*
X19301666Y-16826666D02*
X19301666Y-16760000D01*
X19335000Y-16693333D01*
X19368333Y-16660000D01*
X19435000Y-16626666D01*
X19568333Y-16593333D01*
X19735000Y-16593333D01*
X19868333Y-16626666D01*
X19935000Y-16660000D01*
X19968333Y-16693333D01*
X20001666Y-16760000D01*
X20001666Y-16826666D01*
X19968333Y-16893333D01*
X19935000Y-16926666D01*
X19868333Y-16960000D01*
X19735000Y-16993333D01*
X19568333Y-16993333D01*
X19435000Y-16960000D01*
X19368333Y-16926666D01*
X19335000Y-16893333D01*
X19301666Y-16826666D01*
X19535000Y-16293333D02*
X20235000Y-16293333D01*
X19568333Y-16293333D02*
X19535000Y-16226666D01*
X19535000Y-16093333D01*
X19568333Y-16026666D01*
X19601666Y-15993333D01*
X19668333Y-15960000D01*
X19868333Y-15960000D01*
X19935000Y-15993333D01*
X19968333Y-16026666D01*
X20001666Y-16093333D01*
X20001666Y-16226666D01*
X19968333Y-16293333D01*
X19635000Y-15426666D02*
X19635000Y-15660000D01*
X20001666Y-15660000D02*
X19301666Y-15660000D01*
X19301666Y-15326666D01*
G04 #@! TD*
D14*
X26543000Y-79883000D02*
X20447000Y-79883000D01*
X20447000Y-77597000D01*
X26543000Y-77597000D01*
X26543000Y-79883000D01*
D13*
G36*
X26543000Y-79883000D02*
G01*
X20447000Y-79883000D01*
X20447000Y-77597000D01*
X26543000Y-77597000D01*
X26543000Y-79883000D01*
G37*
M02*
