G04 #@! TF.GenerationSoftware,KiCad,Pcbnew,(5.1.10)-1*
G04 #@! TF.CreationDate,2021-07-12T18:34:54+02:00*
G04 #@! TF.ProjectId,YuSynth Improved Steiner VCF Control,59755379-6e74-4682-9049-6d70726f7665,rev?*
G04 #@! TF.SameCoordinates,Original*
G04 #@! TF.FileFunction,Legend,Bot*
G04 #@! TF.FilePolarity,Positive*
%FSLAX46Y46*%
G04 Gerber Fmt 4.6, Leading zero omitted, Abs format (unit mm)*
G04 Created by KiCad (PCBNEW (5.1.10)-1) date 2021-07-12 18:34:54*
%MOMM*%
%LPD*%
G01*
G04 APERTURE LIST*
%ADD10C,0.120000*%
%ADD11C,0.100000*%
%ADD12C,0.150000*%
G04 APERTURE END LIST*
D10*
G04 #@! TO.C,J13*
X25460000Y-110180000D02*
X25460000Y-112840000D01*
X15240000Y-110180000D02*
X25460000Y-110180000D01*
X15240000Y-112840000D02*
X25460000Y-112840000D01*
X15240000Y-110180000D02*
X15240000Y-112840000D01*
X13970000Y-110180000D02*
X12640000Y-110180000D01*
X12640000Y-110180000D02*
X12640000Y-111510000D01*
G04 #@! TO.C,J12*
X25460000Y-101540000D02*
X25460000Y-104200000D01*
X15240000Y-101540000D02*
X25460000Y-101540000D01*
X15240000Y-104200000D02*
X25460000Y-104200000D01*
X15240000Y-101540000D02*
X15240000Y-104200000D01*
X13970000Y-101540000D02*
X12640000Y-101540000D01*
X12640000Y-101540000D02*
X12640000Y-102870000D01*
G04 #@! TO.C,J11*
X36890000Y-19110000D02*
X34230000Y-19110000D01*
X36890000Y-6350000D02*
X36890000Y-19110000D01*
X34230000Y-6350000D02*
X34230000Y-19110000D01*
X36890000Y-6350000D02*
X34230000Y-6350000D01*
X36890000Y-5080000D02*
X36890000Y-3750000D01*
X36890000Y-3750000D02*
X35560000Y-3750000D01*
G04 #@! TO.C,J10*
X3870000Y-19110000D02*
X1210000Y-19110000D01*
X3870000Y-6350000D02*
X3870000Y-19110000D01*
X1210000Y-6350000D02*
X1210000Y-19110000D01*
X3870000Y-6350000D02*
X1210000Y-6350000D01*
X3870000Y-5080000D02*
X3870000Y-3750000D01*
X3870000Y-3750000D02*
X2540000Y-3750000D01*
G04 #@! TO.C,J9*
X34230000Y-87570000D02*
X36890000Y-87570000D01*
X34230000Y-95250000D02*
X34230000Y-87570000D01*
X36890000Y-95250000D02*
X36890000Y-87570000D01*
X34230000Y-95250000D02*
X36890000Y-95250000D01*
X34230000Y-96520000D02*
X34230000Y-97850000D01*
X34230000Y-97850000D02*
X35560000Y-97850000D01*
G04 #@! TO.C,J8*
X1210000Y-87570000D02*
X3870000Y-87570000D01*
X1210000Y-95250000D02*
X1210000Y-87570000D01*
X3870000Y-95250000D02*
X3870000Y-87570000D01*
X1210000Y-95250000D02*
X3870000Y-95250000D01*
X1210000Y-96520000D02*
X1210000Y-97850000D01*
X1210000Y-97850000D02*
X2540000Y-97850000D01*
G04 #@! TO.C,REF\u002A\u002A*
D11*
X22745238Y-831904D02*
X22745238Y-1403333D01*
X22783333Y-1517619D01*
X22859523Y-1593809D01*
X22973809Y-1631904D01*
X23050000Y-1631904D01*
X21983333Y-1631904D02*
X22364285Y-1631904D01*
X22364285Y-831904D01*
X21259523Y-1555714D02*
X21297619Y-1593809D01*
X21411904Y-1631904D01*
X21488095Y-1631904D01*
X21602380Y-1593809D01*
X21678571Y-1517619D01*
X21716666Y-1441428D01*
X21754761Y-1289047D01*
X21754761Y-1174761D01*
X21716666Y-1022380D01*
X21678571Y-946190D01*
X21602380Y-870000D01*
X21488095Y-831904D01*
X21411904Y-831904D01*
X21297619Y-870000D01*
X21259523Y-908095D01*
X20688095Y-831904D02*
X20688095Y-1403333D01*
X20726190Y-1517619D01*
X20802380Y-1593809D01*
X20916666Y-1631904D01*
X20992857Y-1631904D01*
X19926190Y-1631904D02*
X20307142Y-1631904D01*
X20307142Y-831904D01*
X19202380Y-1555714D02*
X19240476Y-1593809D01*
X19354761Y-1631904D01*
X19430952Y-1631904D01*
X19545238Y-1593809D01*
X19621428Y-1517619D01*
X19659523Y-1441428D01*
X19697619Y-1289047D01*
X19697619Y-1174761D01*
X19659523Y-1022380D01*
X19621428Y-946190D01*
X19545238Y-870000D01*
X19430952Y-831904D01*
X19354761Y-831904D01*
X19240476Y-870000D01*
X19202380Y-908095D01*
X18630952Y-831904D02*
X18630952Y-1403333D01*
X18669047Y-1517619D01*
X18745238Y-1593809D01*
X18859523Y-1631904D01*
X18935714Y-1631904D01*
X17869047Y-1631904D02*
X18250000Y-1631904D01*
X18250000Y-831904D01*
X17145238Y-1555714D02*
X17183333Y-1593809D01*
X17297619Y-1631904D01*
X17373809Y-1631904D01*
X17488095Y-1593809D01*
X17564285Y-1517619D01*
X17602380Y-1441428D01*
X17640476Y-1289047D01*
X17640476Y-1174761D01*
X17602380Y-1022380D01*
X17564285Y-946190D01*
X17488095Y-870000D01*
X17373809Y-831904D01*
X17297619Y-831904D01*
X17183333Y-870000D01*
X17145238Y-908095D01*
X16573809Y-831904D02*
X16573809Y-1403333D01*
X16611904Y-1517619D01*
X16688095Y-1593809D01*
X16802380Y-1631904D01*
X16878571Y-1631904D01*
X15811904Y-1631904D02*
X16192857Y-1631904D01*
X16192857Y-831904D01*
X15088095Y-1555714D02*
X15126190Y-1593809D01*
X15240476Y-1631904D01*
X15316666Y-1631904D01*
X15430952Y-1593809D01*
X15507142Y-1517619D01*
X15545238Y-1441428D01*
X15583333Y-1289047D01*
X15583333Y-1174761D01*
X15545238Y-1022380D01*
X15507142Y-946190D01*
X15430952Y-870000D01*
X15316666Y-831904D01*
X15240476Y-831904D01*
X15126190Y-870000D01*
X15088095Y-908095D01*
G04 #@! TO.C,J11*
X35926666Y-20636666D02*
X36160000Y-20303333D01*
X36326666Y-20636666D02*
X36326666Y-19936666D01*
X36060000Y-19936666D01*
X35993333Y-19970000D01*
X35960000Y-20003333D01*
X35926666Y-20070000D01*
X35926666Y-20170000D01*
X35960000Y-20236666D01*
X35993333Y-20270000D01*
X36060000Y-20303333D01*
X36326666Y-20303333D01*
X35360000Y-20603333D02*
X35426666Y-20636666D01*
X35560000Y-20636666D01*
X35626666Y-20603333D01*
X35660000Y-20536666D01*
X35660000Y-20270000D01*
X35626666Y-20203333D01*
X35560000Y-20170000D01*
X35426666Y-20170000D01*
X35360000Y-20203333D01*
X35326666Y-20270000D01*
X35326666Y-20336666D01*
X35660000Y-20403333D01*
X35060000Y-20603333D02*
X34993333Y-20636666D01*
X34860000Y-20636666D01*
X34793333Y-20603333D01*
X34760000Y-20536666D01*
X34760000Y-20503333D01*
X34793333Y-20436666D01*
X34860000Y-20403333D01*
X34960000Y-20403333D01*
X35026666Y-20370000D01*
X35060000Y-20303333D01*
X35060000Y-20270000D01*
X35026666Y-20203333D01*
X34960000Y-20170000D01*
X34860000Y-20170000D01*
X34793333Y-20203333D01*
G04 #@! TO.C,J10*
X3606666Y-20570000D02*
X3640000Y-20603333D01*
X3739999Y-20636666D01*
X3806666Y-20636666D01*
X3906666Y-20603333D01*
X3973333Y-20536666D01*
X4006666Y-20470000D01*
X4039999Y-20336666D01*
X4039999Y-20236666D01*
X4006666Y-20103333D01*
X3973333Y-20036666D01*
X3906666Y-19970000D01*
X3806666Y-19936666D01*
X3739999Y-19936666D01*
X3640000Y-19970000D01*
X3606666Y-20003333D01*
X3173333Y-19936666D02*
X3040000Y-19936666D01*
X2973333Y-19970000D01*
X2906666Y-20036666D01*
X2873333Y-20170000D01*
X2873333Y-20403333D01*
X2906666Y-20536666D01*
X2973333Y-20603333D01*
X3040000Y-20636666D01*
X3173333Y-20636666D01*
X3239999Y-20603333D01*
X3306666Y-20536666D01*
X3339999Y-20403333D01*
X3339999Y-20170000D01*
X3306666Y-20036666D01*
X3239999Y-19970000D01*
X3173333Y-19936666D01*
X2740000Y-20703333D02*
X2206666Y-20703333D01*
X1640000Y-20570000D02*
X1673333Y-20603333D01*
X1773333Y-20636666D01*
X1840000Y-20636666D01*
X1940000Y-20603333D01*
X2006666Y-20536666D01*
X2039999Y-20470000D01*
X2073333Y-20336666D01*
X2073333Y-20236666D01*
X2039999Y-20103333D01*
X2006666Y-20036666D01*
X1940000Y-19970000D01*
X1840000Y-19936666D01*
X1773333Y-19936666D01*
X1673333Y-19970000D01*
X1640000Y-20003333D01*
X1440000Y-19936666D02*
X1206666Y-20636666D01*
X973333Y-19936666D01*
G04 #@! TO.C,J9*
D12*
X36417142Y-86764761D02*
X36274285Y-86812380D01*
X36036190Y-86812380D01*
X35940952Y-86764761D01*
X35893333Y-86717142D01*
X35845714Y-86621904D01*
X35845714Y-86526666D01*
X35893333Y-86431428D01*
X35940952Y-86383809D01*
X36036190Y-86336190D01*
X36226666Y-86288571D01*
X36321904Y-86240952D01*
X36369523Y-86193333D01*
X36417142Y-86098095D01*
X36417142Y-86002857D01*
X36369523Y-85907619D01*
X36321904Y-85860000D01*
X36226666Y-85812380D01*
X35988571Y-85812380D01*
X35845714Y-85860000D01*
X35512380Y-85812380D02*
X35274285Y-86812380D01*
X35083809Y-86098095D01*
X34893333Y-86812380D01*
X34655238Y-85812380D01*
G04 #@! TO.C,J8*
D11*
X3823333Y-86476666D02*
X3490000Y-86476666D01*
X3890000Y-86676666D02*
X3656666Y-85976666D01*
X3423333Y-86676666D01*
X2890000Y-86210000D02*
X2890000Y-86676666D01*
X3190000Y-86210000D02*
X3190000Y-86576666D01*
X3156666Y-86643333D01*
X3090000Y-86676666D01*
X2990000Y-86676666D01*
X2923333Y-86643333D01*
X2890000Y-86610000D01*
X2256666Y-86676666D02*
X2256666Y-85976666D01*
X2256666Y-86643333D02*
X2323333Y-86676666D01*
X2456666Y-86676666D01*
X2523333Y-86643333D01*
X2556666Y-86610000D01*
X2590000Y-86543333D01*
X2590000Y-86343333D01*
X2556666Y-86276666D01*
X2523333Y-86243333D01*
X2456666Y-86210000D01*
X2323333Y-86210000D01*
X2256666Y-86243333D01*
X1923333Y-86676666D02*
X1923333Y-86210000D01*
X1923333Y-85976666D02*
X1956666Y-86010000D01*
X1923333Y-86043333D01*
X1890000Y-86010000D01*
X1923333Y-85976666D01*
X1923333Y-86043333D01*
X1490000Y-86676666D02*
X1556666Y-86643333D01*
X1590000Y-86610000D01*
X1623333Y-86543333D01*
X1623333Y-86343333D01*
X1590000Y-86276666D01*
X1556666Y-86243333D01*
X1490000Y-86210000D01*
X1390000Y-86210000D01*
X1323333Y-86243333D01*
X1290000Y-86276666D01*
X1256666Y-86343333D01*
X1256666Y-86543333D01*
X1290000Y-86610000D01*
X1323333Y-86643333D01*
X1390000Y-86676666D01*
X1490000Y-86676666D01*
G04 #@! TD*
M02*
