M48
; DRILL file {KiCad (5.1.10)-1} date 07/12/21 18:34:57
; FORMAT={-:-/ absolute / metric / decimal}
; #@! TF.CreationDate,2021-07-12T18:34:57+02:00
; #@! TF.GenerationSoftware,Kicad,Pcbnew,(5.1.10)-1
; #@! TF.FileFunction,Plated,1,2,PTH
FMAT,2
METRIC
T1C0.400
T2C0.500
T3C0.800
T4C1.000
T5C1.100
T6C1.800
T7C2.700
%
G90
G05
T1
X5.08Y-6.35
X5.08Y-13.97
X5.08Y-16.51
X5.08Y-80.01
X6.35Y-26.67
X7.62Y-25.4
X13.97Y-78.74
X16.51Y-77.47
X17.78Y-22.86
X24.13Y-78.74
X27.94Y-26.67
X29.125Y-25.4
X29.21Y-80.01
X30.48Y-10.16
X30.48Y-38.862
X30.48Y-82.55
X31.75Y-5.08
X31.75Y-40.52
X31.75Y-78.74
X33.02Y-77.47
X33.02Y-92.71
X34.29Y-81.28
T3
X15.494Y-43.434
X23.114Y-43.434
T4
X2.54Y-5.08
X2.54Y-7.62
X2.54Y-10.16
X2.54Y-12.7
X2.54Y-15.24
X2.54Y-17.78
X2.54Y-88.9
X2.54Y-91.44
X2.54Y-93.98
X2.54Y-96.52
X6.475Y-57.8
X8.975Y-57.8
X11.475Y-57.8
X13.97Y-74.42
X13.97Y-83.06
X13.97Y-102.87
X13.97Y-111.51
X16.51Y-74.42
X16.51Y-83.06
X16.51Y-102.87
X16.51Y-111.51
X16.55Y-15.12
X16.55Y-40.52
X16.563Y-98.44
X19.05Y-15.12
X19.05Y-40.52
X19.05Y-74.42
X19.05Y-83.06
X19.05Y-102.87
X19.05Y-111.51
X19.063Y-98.44
X21.55Y-15.12
X21.55Y-40.52
X21.563Y-98.44
X21.59Y-74.42
X21.59Y-83.06
X21.59Y-102.87
X21.59Y-111.51
X24.13Y-74.42
X24.13Y-83.06
X24.13Y-102.87
X24.13Y-111.51
X26.625Y-57.8
X29.125Y-57.8
X31.625Y-57.8
X35.56Y-5.08
X35.56Y-7.62
X35.56Y-10.16
X35.56Y-12.7
X35.56Y-15.24
X35.56Y-17.78
X35.56Y-88.9
X35.56Y-91.44
X35.56Y-93.98
X35.56Y-96.52
T7
X19.05Y-50.8
T2
G00X8.475Y-61.12
M15
G01X9.475Y-61.12
M16
G05
G00X8.475Y-69.42
M15
G01X9.475Y-69.42
M16
G05
G00X8.475Y-72.52
M15
G01X9.475Y-72.52
M16
G05
G00X8.475Y-86.52
M15
G01X9.475Y-86.52
M16
G05
G00X8.475Y-94.82
M15
G01X9.475Y-94.82
M16
G05
G00X8.475Y-97.92
M15
G01X9.475Y-97.92
M16
G05
G00X13.95Y-105.938
M15
G01X14.15Y-105.938
M16
G05
G00X13.95Y-108.438
M15
G01X14.15Y-108.438
M16
G05
G00X16.45Y-105.938
M15
G01X16.65Y-105.938
M16
G05
G00X16.45Y-108.438
M15
G01X16.65Y-108.438
M16
G05
G00X19.55Y-59.56
M15
G01X18.55Y-59.56
M16
G05
G00X19.55Y-62.66
M15
G01X18.55Y-62.66
M16
G05
G00X19.55Y-70.96
M15
G01X18.55Y-70.96
M16
G05
G00X21.45Y-105.938
M15
G01X21.65Y-105.938
M16
G05
G00X21.45Y-108.438
M15
G01X21.65Y-108.438
M16
G05
G00X23.95Y-105.938
M15
G01X24.15Y-105.938
M16
G05
G00X23.95Y-108.438
M15
G01X24.15Y-108.438
M16
G05
G00X26.45Y-105.938
M15
G01X26.65Y-105.938
M16
G05
G00X26.45Y-108.438
M15
G01X26.65Y-108.438
M16
G05
G00X28.625Y-61.12
M15
G01X29.625Y-61.12
M16
G05
G00X28.625Y-69.42
M15
G01X29.625Y-69.42
M16
G05
G00X28.625Y-72.52
M15
G01X29.625Y-72.52
M16
G05
G00X28.625Y-86.52
M15
G01X29.625Y-86.52
M16
G05
G00X28.625Y-94.82
M15
G01X29.625Y-94.82
M16
G05
G00X28.625Y-97.92
M15
G01X29.625Y-97.92
M16
G05
T5
G00X14.25Y-7.97
M15
G01X14.25Y-7.27
M16
G05
G00X14.25Y-33.37
M15
G01X14.25Y-32.67
M16
G05
G00X23.85Y-7.97
M15
G01X23.85Y-7.27
M16
G05
G00X23.85Y-33.37
M15
G01X23.85Y-32.67
M16
G05
T6
G00X4.175Y-50.45
M15
G01X4.175Y-50.15
M16
G05
G00X13.775Y-50.45
M15
G01X13.775Y-50.15
M16
G05
G00X14.263Y-91.09
M15
G01X14.263Y-90.79
M16
G05
G00X23.863Y-91.09
M15
G01X23.863Y-90.79
M16
G05
G00X24.325Y-50.45
M15
G01X24.325Y-50.15
M16
G05
G00X33.925Y-50.45
M15
G01X33.925Y-50.15
M16
G05
T0
M30
