M48
; DRILL file {KiCad (5.1.9)-1} date 04/11/21 10:04:52
; FORMAT={-:-/ absolute / metric / decimal}
; #@! TF.CreationDate,2021-04-11T10:04:52+02:00
; #@! TF.GenerationSoftware,Kicad,Pcbnew,(5.1.9)-1
; #@! TF.FileFunction,Plated,1,2,PTH
FMAT,2
METRIC
T1C0.400
T2C0.500
T3C0.800
T4C1.000
%
G90
G05
T1
X3.175Y-65.405
X11.43Y-39.37
T3
X8.255Y-31.115
X8.255Y-81.915
X10.795Y-31.115
X10.795Y-81.915
X15.875Y-3.175
X15.875Y-5.715
X15.875Y-8.255
X15.875Y-10.795
X15.875Y-41.91
X15.875Y-44.45
X15.875Y-46.99
X15.875Y-49.53
X17.145Y-20.32
X17.145Y-25.32
X17.145Y-59.055
X17.145Y-64.055
X19.05Y-3.175
X19.05Y-5.715
X19.05Y-8.255
X19.05Y-10.795
X19.05Y-41.91
X19.05Y-44.45
X19.05Y-46.99
X19.05Y-49.53
X20.32Y-17.78
X20.32Y-20.32
X20.32Y-22.86
X20.32Y-25.4
X20.32Y-29.21
X20.32Y-56.515
X20.32Y-59.055
X20.32Y-61.595
X20.32Y-64.135
X20.32Y-67.945
X20.32Y-76.2
X20.32Y-78.7
X20.32Y-88.9
X20.32Y-91.4
X22.225Y-3.175
X22.225Y-5.715
X22.225Y-8.255
X22.225Y-10.795
X22.225Y-41.91
X22.225Y-44.45
X22.225Y-46.99
X22.225Y-49.53
X23.575Y-13.97
X23.575Y-52.705
X27.94Y-17.78
X27.94Y-20.32
X27.94Y-22.86
X27.94Y-25.4
X27.94Y-29.21
X27.94Y-56.515
X27.94Y-59.055
X27.94Y-61.595
X27.94Y-64.135
X27.94Y-67.945
X28.575Y-13.97
X28.575Y-52.705
X29.845Y-3.175
X29.845Y-5.715
X29.845Y-8.255
X29.845Y-10.795
X29.845Y-41.91
X29.845Y-44.45
X29.845Y-46.99
X29.845Y-49.53
X31.115Y-22.86
X31.115Y-61.595
X33.02Y-8.335
X33.02Y-13.335
X33.02Y-47.07
X33.02Y-52.07
X33.655Y-17.78
X33.655Y-56.515
X36.115Y-22.86
X36.115Y-61.595
X36.195Y-5.715
X36.195Y-13.335
X36.195Y-17.78
X36.195Y-44.45
X36.195Y-52.07
X36.195Y-56.515
T4
X25.4Y-78.74
X25.4Y-81.28
X25.4Y-83.82
X25.4Y-86.36
X25.4Y-88.9
X25.4Y-91.44
X25.4Y-93.98
X25.4Y-96.52
X27.94Y-78.74
X27.94Y-81.28
X27.94Y-83.82
X27.94Y-86.36
X27.94Y-88.9
X27.94Y-91.44
X27.94Y-93.98
X27.94Y-96.52
T2
G00X5.4Y-12.42
M15
G01X6.4Y-12.42
M16
G05
G00X5.4Y-28.295
M15
G01X6.4Y-28.295
M16
G05
G00X5.4Y-44.17
M15
G01X6.4Y-44.17
M16
G05
G00X5.4Y-63.22
M15
G01X6.4Y-63.22
M16
G05
G00X5.4Y-79.095
M15
G01X6.4Y-79.095
M16
G05
G00X5.4Y-94.97
M15
G01X6.4Y-94.97
M16
G05
G00X9.1Y-2.42
M15
G01X10.1Y-2.42
M16
G05
G00X9.1Y-18.295
M15
G01X10.1Y-18.295
M16
G05
G00X9.1Y-34.17
M15
G01X10.1Y-34.17
M16
G05
G00X9.1Y-53.22
M15
G01X10.1Y-53.22
M16
G05
G00X9.1Y-69.095
M15
G01X10.1Y-69.095
M16
G05
G00X9.1Y-84.97
M15
G01X10.1Y-84.97
M16
G05
T3
G00X1.7Y-7.27
M15
G01X1.7Y-7.97
M16
G05
G00X1.7Y-23.145
M15
G01X1.7Y-23.845
M16
G05
G00X1.7Y-39.02
M15
G01X1.7Y-39.72
M16
G05
G00X1.7Y-58.07
M15
G01X1.7Y-58.77
M16
G05
G00X1.7Y-73.945
M15
G01X1.7Y-74.645
M16
G05
G00X1.7Y-89.82
M15
G01X1.7Y-90.52
M16
G05
G00X8.25Y-5.02
M15
G01X8.95Y-5.02
M16
G05
G00X8.25Y-20.895
M15
G01X8.95Y-20.895
M16
G05
G00X8.25Y-36.77
M15
G01X8.95Y-36.77
M16
G05
G00X8.25Y-55.82
M15
G01X8.95Y-55.82
M16
G05
G00X8.25Y-71.695
M15
G01X8.95Y-71.695
M16
G05
G00X8.25Y-87.57
M15
G01X8.95Y-87.57
M16
G05
G00X13.0Y-11.37
M15
G01X13.0Y-12.07
M16
G05
G00X13.0Y-27.245
M15
G01X13.0Y-27.945
M16
G05
G00X13.0Y-43.12
M15
G01X13.0Y-43.82
M16
G05
G00X13.0Y-62.17
M15
G01X13.0Y-62.87
M16
G05
G00X13.0Y-78.045
M15
G01X13.0Y-78.745
M16
G05
G00X13.0Y-93.92
M15
G01X13.0Y-94.62
M16
G05
T0
M30
