G04 #@! TF.GenerationSoftware,KiCad,Pcbnew,(5.1.9)-1*
G04 #@! TF.CreationDate,2021-04-11T10:04:50+02:00*
G04 #@! TF.ProjectId,S&H Main,53264820-4d61-4696-9e2e-6b696361645f,rev?*
G04 #@! TF.SameCoordinates,Original*
G04 #@! TF.FileFunction,Legend,Top*
G04 #@! TF.FilePolarity,Positive*
%FSLAX46Y46*%
G04 Gerber Fmt 4.6, Leading zero omitted, Abs format (unit mm)*
G04 Created by KiCad (PCBNEW (5.1.9)-1) date 2021-04-11 10:04:50*
%MOMM*%
%LPD*%
G01*
G04 APERTURE LIST*
%ADD10C,0.150000*%
%ADD11C,0.010000*%
%ADD12C,0.120000*%
%ADD13C,0.100000*%
%ADD14C,0.254000*%
G04 APERTURE END LIST*
D10*
X19272857Y-35139761D02*
X19415714Y-35187380D01*
X19653809Y-35187380D01*
X19749047Y-35139761D01*
X19796666Y-35092142D01*
X19844285Y-34996904D01*
X19844285Y-34901666D01*
X19796666Y-34806428D01*
X19749047Y-34758809D01*
X19653809Y-34711190D01*
X19463333Y-34663571D01*
X19368095Y-34615952D01*
X19320476Y-34568333D01*
X19272857Y-34473095D01*
X19272857Y-34377857D01*
X19320476Y-34282619D01*
X19368095Y-34235000D01*
X19463333Y-34187380D01*
X19701428Y-34187380D01*
X19844285Y-34235000D01*
X20701428Y-35187380D02*
X20701428Y-34663571D01*
X20653809Y-34568333D01*
X20558571Y-34520714D01*
X20368095Y-34520714D01*
X20272857Y-34568333D01*
X20701428Y-35139761D02*
X20606190Y-35187380D01*
X20368095Y-35187380D01*
X20272857Y-35139761D01*
X20225238Y-35044523D01*
X20225238Y-34949285D01*
X20272857Y-34854047D01*
X20368095Y-34806428D01*
X20606190Y-34806428D01*
X20701428Y-34758809D01*
X21177619Y-35187380D02*
X21177619Y-34520714D01*
X21177619Y-34615952D02*
X21225238Y-34568333D01*
X21320476Y-34520714D01*
X21463333Y-34520714D01*
X21558571Y-34568333D01*
X21606190Y-34663571D01*
X21606190Y-35187380D01*
X21606190Y-34663571D02*
X21653809Y-34568333D01*
X21749047Y-34520714D01*
X21891904Y-34520714D01*
X21987142Y-34568333D01*
X22034761Y-34663571D01*
X22034761Y-35187380D01*
X22510952Y-34520714D02*
X22510952Y-35520714D01*
X22510952Y-34568333D02*
X22606190Y-34520714D01*
X22796666Y-34520714D01*
X22891904Y-34568333D01*
X22939523Y-34615952D01*
X22987142Y-34711190D01*
X22987142Y-34996904D01*
X22939523Y-35092142D01*
X22891904Y-35139761D01*
X22796666Y-35187380D01*
X22606190Y-35187380D01*
X22510952Y-35139761D01*
X23558571Y-35187380D02*
X23463333Y-35139761D01*
X23415714Y-35044523D01*
X23415714Y-34187380D01*
X24320476Y-35139761D02*
X24225238Y-35187380D01*
X24034761Y-35187380D01*
X23939523Y-35139761D01*
X23891904Y-35044523D01*
X23891904Y-34663571D01*
X23939523Y-34568333D01*
X24034761Y-34520714D01*
X24225238Y-34520714D01*
X24320476Y-34568333D01*
X24368095Y-34663571D01*
X24368095Y-34758809D01*
X23891904Y-34854047D01*
X25606190Y-35187380D02*
X25558571Y-35187380D01*
X25463333Y-35139761D01*
X25320476Y-34996904D01*
X25082380Y-34711190D01*
X24987142Y-34568333D01*
X24939523Y-34425476D01*
X24939523Y-34330238D01*
X24987142Y-34235000D01*
X25082380Y-34187380D01*
X25130000Y-34187380D01*
X25225238Y-34235000D01*
X25272857Y-34330238D01*
X25272857Y-34377857D01*
X25225238Y-34473095D01*
X25177619Y-34520714D01*
X24891904Y-34711190D01*
X24844285Y-34758809D01*
X24796666Y-34854047D01*
X24796666Y-34996904D01*
X24844285Y-35092142D01*
X24891904Y-35139761D01*
X24987142Y-35187380D01*
X25130000Y-35187380D01*
X25225238Y-35139761D01*
X25272857Y-35092142D01*
X25415714Y-34901666D01*
X25463333Y-34758809D01*
X25463333Y-34663571D01*
X26034761Y-35187380D02*
X26034761Y-34187380D01*
X26034761Y-34663571D02*
X26606190Y-34663571D01*
X26606190Y-35187380D02*
X26606190Y-34187380D01*
X27225238Y-35187380D02*
X27130000Y-35139761D01*
X27082380Y-35092142D01*
X27034761Y-34996904D01*
X27034761Y-34711190D01*
X27082380Y-34615952D01*
X27130000Y-34568333D01*
X27225238Y-34520714D01*
X27368095Y-34520714D01*
X27463333Y-34568333D01*
X27510952Y-34615952D01*
X27558571Y-34711190D01*
X27558571Y-34996904D01*
X27510952Y-35092142D01*
X27463333Y-35139761D01*
X27368095Y-35187380D01*
X27225238Y-35187380D01*
X28130000Y-35187380D02*
X28034761Y-35139761D01*
X27987142Y-35044523D01*
X27987142Y-34187380D01*
X28939523Y-35187380D02*
X28939523Y-34187380D01*
X28939523Y-35139761D02*
X28844285Y-35187380D01*
X28653809Y-35187380D01*
X28558571Y-35139761D01*
X28510952Y-35092142D01*
X28463333Y-34996904D01*
X28463333Y-34711190D01*
X28510952Y-34615952D01*
X28558571Y-34568333D01*
X28653809Y-34520714D01*
X28844285Y-34520714D01*
X28939523Y-34568333D01*
X20391904Y-36837380D02*
X20058571Y-36361190D01*
X19820476Y-36837380D02*
X19820476Y-35837380D01*
X20201428Y-35837380D01*
X20296666Y-35885000D01*
X20344285Y-35932619D01*
X20391904Y-36027857D01*
X20391904Y-36170714D01*
X20344285Y-36265952D01*
X20296666Y-36313571D01*
X20201428Y-36361190D01*
X19820476Y-36361190D01*
X21201428Y-36789761D02*
X21106190Y-36837380D01*
X20915714Y-36837380D01*
X20820476Y-36789761D01*
X20772857Y-36694523D01*
X20772857Y-36313571D01*
X20820476Y-36218333D01*
X20915714Y-36170714D01*
X21106190Y-36170714D01*
X21201428Y-36218333D01*
X21249047Y-36313571D01*
X21249047Y-36408809D01*
X20772857Y-36504047D01*
X21582380Y-36170714D02*
X21820476Y-36837380D01*
X22058571Y-36170714D01*
X23391904Y-35837380D02*
X23487142Y-35837380D01*
X23582380Y-35885000D01*
X23630000Y-35932619D01*
X23677619Y-36027857D01*
X23725238Y-36218333D01*
X23725238Y-36456428D01*
X23677619Y-36646904D01*
X23630000Y-36742142D01*
X23582380Y-36789761D01*
X23487142Y-36837380D01*
X23391904Y-36837380D01*
X23296666Y-36789761D01*
X23249047Y-36742142D01*
X23201428Y-36646904D01*
X23153809Y-36456428D01*
X23153809Y-36218333D01*
X23201428Y-36027857D01*
X23249047Y-35932619D01*
X23296666Y-35885000D01*
X23391904Y-35837380D01*
X24677619Y-36837380D02*
X24106190Y-36837380D01*
X24391904Y-36837380D02*
X24391904Y-35837380D01*
X24296666Y-35980238D01*
X24201428Y-36075476D01*
X24106190Y-36123095D01*
X25296666Y-35837380D02*
X25391904Y-35837380D01*
X25487142Y-35885000D01*
X25534761Y-35932619D01*
X25582380Y-36027857D01*
X25630000Y-36218333D01*
X25630000Y-36456428D01*
X25582380Y-36646904D01*
X25534761Y-36742142D01*
X25487142Y-36789761D01*
X25391904Y-36837380D01*
X25296666Y-36837380D01*
X25201428Y-36789761D01*
X25153809Y-36742142D01*
X25106190Y-36646904D01*
X25058571Y-36456428D01*
X25058571Y-36218333D01*
X25106190Y-36027857D01*
X25153809Y-35932619D01*
X25201428Y-35885000D01*
X25296666Y-35837380D01*
X26487142Y-36170714D02*
X26487142Y-36837380D01*
X26249047Y-35789761D02*
X26010952Y-36504047D01*
X26630000Y-36504047D01*
X26963333Y-35932619D02*
X27010952Y-35885000D01*
X27106190Y-35837380D01*
X27344285Y-35837380D01*
X27439523Y-35885000D01*
X27487142Y-35932619D01*
X27534761Y-36027857D01*
X27534761Y-36123095D01*
X27487142Y-36265952D01*
X26915714Y-36837380D01*
X27534761Y-36837380D01*
X28487142Y-36837380D02*
X27915714Y-36837380D01*
X28201428Y-36837380D02*
X28201428Y-35837380D01*
X28106190Y-35980238D01*
X28010952Y-36075476D01*
X27915714Y-36123095D01*
D11*
G04 #@! TO.C,G\u002A\u002A\u002A*
G36*
X34111975Y-31365533D02*
G01*
X34499529Y-31514561D01*
X34846874Y-31777268D01*
X34880458Y-31810178D01*
X35119055Y-32087088D01*
X35269725Y-32370374D01*
X35352509Y-32706590D01*
X35378932Y-32968159D01*
X35389654Y-33243677D01*
X35371742Y-33445634D01*
X35314670Y-33632923D01*
X35224921Y-33829864D01*
X35039587Y-34208673D01*
X35309200Y-34432629D01*
X35658462Y-34803667D01*
X35932837Y-35260043D01*
X36116494Y-35767167D01*
X36193602Y-36290445D01*
X36195000Y-36368282D01*
X36134094Y-36896320D01*
X35961737Y-37394219D01*
X35693466Y-37845702D01*
X35344822Y-38234491D01*
X34931342Y-38544310D01*
X34468566Y-38758880D01*
X33972032Y-38861923D01*
X33808071Y-38868684D01*
X33620332Y-38878029D01*
X33514696Y-38927592D01*
X33439815Y-39049664D01*
X33409853Y-39119124D01*
X33326088Y-39487435D01*
X33356622Y-39897429D01*
X33496393Y-40330591D01*
X33740336Y-40768404D01*
X33929598Y-41019623D01*
X34098260Y-41240034D01*
X34175470Y-41396237D01*
X34169114Y-41513485D01*
X34109526Y-41595842D01*
X33979072Y-41669092D01*
X33828517Y-41635022D01*
X33643972Y-41488000D01*
X33524337Y-41358553D01*
X33174002Y-40872667D01*
X32941051Y-40365772D01*
X32832200Y-39853744D01*
X32824776Y-39704211D01*
X32829742Y-39432845D01*
X32847931Y-39185606D01*
X32872845Y-39028508D01*
X32895402Y-38913381D01*
X32874438Y-38833134D01*
X32786350Y-38759707D01*
X32607535Y-38665041D01*
X32538634Y-38631221D01*
X32105674Y-38354047D01*
X31716572Y-37979867D01*
X31407301Y-37545126D01*
X31339123Y-37415895D01*
X31250392Y-37219189D01*
X31194836Y-37043821D01*
X31164911Y-36847432D01*
X31153077Y-36587661D01*
X31151513Y-36362105D01*
X31155439Y-36038856D01*
X31172416Y-35806295D01*
X31210242Y-35621526D01*
X31276716Y-35441658D01*
X31345954Y-35292632D01*
X31511006Y-35014538D01*
X31731785Y-34722723D01*
X31899765Y-34539758D01*
X32259137Y-34187937D01*
X32130820Y-34005021D01*
X31937922Y-33615417D01*
X31861035Y-33168652D01*
X31867869Y-32921863D01*
X31972282Y-32448612D01*
X32185150Y-32041640D01*
X32492542Y-31713451D01*
X32880521Y-31476544D01*
X33335156Y-31343421D01*
X33655000Y-31318462D01*
X34111975Y-31365533D01*
G37*
X34111975Y-31365533D02*
X34499529Y-31514561D01*
X34846874Y-31777268D01*
X34880458Y-31810178D01*
X35119055Y-32087088D01*
X35269725Y-32370374D01*
X35352509Y-32706590D01*
X35378932Y-32968159D01*
X35389654Y-33243677D01*
X35371742Y-33445634D01*
X35314670Y-33632923D01*
X35224921Y-33829864D01*
X35039587Y-34208673D01*
X35309200Y-34432629D01*
X35658462Y-34803667D01*
X35932837Y-35260043D01*
X36116494Y-35767167D01*
X36193602Y-36290445D01*
X36195000Y-36368282D01*
X36134094Y-36896320D01*
X35961737Y-37394219D01*
X35693466Y-37845702D01*
X35344822Y-38234491D01*
X34931342Y-38544310D01*
X34468566Y-38758880D01*
X33972032Y-38861923D01*
X33808071Y-38868684D01*
X33620332Y-38878029D01*
X33514696Y-38927592D01*
X33439815Y-39049664D01*
X33409853Y-39119124D01*
X33326088Y-39487435D01*
X33356622Y-39897429D01*
X33496393Y-40330591D01*
X33740336Y-40768404D01*
X33929598Y-41019623D01*
X34098260Y-41240034D01*
X34175470Y-41396237D01*
X34169114Y-41513485D01*
X34109526Y-41595842D01*
X33979072Y-41669092D01*
X33828517Y-41635022D01*
X33643972Y-41488000D01*
X33524337Y-41358553D01*
X33174002Y-40872667D01*
X32941051Y-40365772D01*
X32832200Y-39853744D01*
X32824776Y-39704211D01*
X32829742Y-39432845D01*
X32847931Y-39185606D01*
X32872845Y-39028508D01*
X32895402Y-38913381D01*
X32874438Y-38833134D01*
X32786350Y-38759707D01*
X32607535Y-38665041D01*
X32538634Y-38631221D01*
X32105674Y-38354047D01*
X31716572Y-37979867D01*
X31407301Y-37545126D01*
X31339123Y-37415895D01*
X31250392Y-37219189D01*
X31194836Y-37043821D01*
X31164911Y-36847432D01*
X31153077Y-36587661D01*
X31151513Y-36362105D01*
X31155439Y-36038856D01*
X31172416Y-35806295D01*
X31210242Y-35621526D01*
X31276716Y-35441658D01*
X31345954Y-35292632D01*
X31511006Y-35014538D01*
X31731785Y-34722723D01*
X31899765Y-34539758D01*
X32259137Y-34187937D01*
X32130820Y-34005021D01*
X31937922Y-33615417D01*
X31861035Y-33168652D01*
X31867869Y-32921863D01*
X31972282Y-32448612D01*
X32185150Y-32041640D01*
X32492542Y-31713451D01*
X32880521Y-31476544D01*
X33335156Y-31343421D01*
X33655000Y-31318462D01*
X34111975Y-31365533D01*
G36*
X32092294Y-30955838D02*
G01*
X32324355Y-31040666D01*
X32371297Y-31059997D01*
X32596716Y-31161489D01*
X32761523Y-31249463D01*
X32837519Y-31308415D01*
X32839192Y-31317244D01*
X32781342Y-31375770D01*
X32647196Y-31486610D01*
X32468839Y-31625540D01*
X32278356Y-31768341D01*
X32107832Y-31890791D01*
X31989350Y-31968670D01*
X31956041Y-31983947D01*
X31937104Y-31922774D01*
X31912203Y-31761047D01*
X31886214Y-31531456D01*
X31882035Y-31487978D01*
X31862508Y-31238432D01*
X31854029Y-31039343D01*
X31858140Y-30929507D01*
X31859621Y-30923973D01*
X31928675Y-30914626D01*
X32092294Y-30955838D01*
G37*
X32092294Y-30955838D02*
X32324355Y-31040666D01*
X32371297Y-31059997D01*
X32596716Y-31161489D01*
X32761523Y-31249463D01*
X32837519Y-31308415D01*
X32839192Y-31317244D01*
X32781342Y-31375770D01*
X32647196Y-31486610D01*
X32468839Y-31625540D01*
X32278356Y-31768341D01*
X32107832Y-31890791D01*
X31989350Y-31968670D01*
X31956041Y-31983947D01*
X31937104Y-31922774D01*
X31912203Y-31761047D01*
X31886214Y-31531456D01*
X31882035Y-31487978D01*
X31862508Y-31238432D01*
X31854029Y-31039343D01*
X31858140Y-30929507D01*
X31859621Y-30923973D01*
X31928675Y-30914626D01*
X32092294Y-30955838D01*
G36*
X35313089Y-30886229D02*
G01*
X35328741Y-31007829D01*
X35326837Y-31211949D01*
X35326052Y-31317181D01*
X35319100Y-31606033D01*
X35296688Y-31776612D01*
X35256483Y-31843681D01*
X35242500Y-31845971D01*
X35151195Y-31808371D01*
X34982628Y-31712277D01*
X34768766Y-31576273D01*
X34704907Y-31533426D01*
X34250867Y-31225174D01*
X34638065Y-31064704D01*
X34942368Y-30936385D01*
X35141744Y-30858522D01*
X35258037Y-30839132D01*
X35313089Y-30886229D01*
G37*
X35313089Y-30886229D02*
X35328741Y-31007829D01*
X35326837Y-31211949D01*
X35326052Y-31317181D01*
X35319100Y-31606033D01*
X35296688Y-31776612D01*
X35256483Y-31843681D01*
X35242500Y-31845971D01*
X35151195Y-31808371D01*
X34982628Y-31712277D01*
X34768766Y-31576273D01*
X34704907Y-31533426D01*
X34250867Y-31225174D01*
X34638065Y-31064704D01*
X34942368Y-30936385D01*
X35141744Y-30858522D01*
X35258037Y-30839132D01*
X35313089Y-30886229D01*
D12*
G04 #@! TO.C,J7*
X0Y-44870000D02*
X500000Y-44870000D01*
X0Y-44870000D02*
X0Y-44370000D01*
X14200000Y-44870000D02*
X13700000Y-44870000D01*
X14200000Y-44870000D02*
X14200000Y-44370000D01*
X14200000Y-33370000D02*
X13700000Y-33370000D01*
X14200000Y-33370000D02*
X14200000Y-33870000D01*
X0Y-33370000D02*
X500000Y-33370000D01*
X0Y-33370000D02*
X0Y-33870000D01*
G04 #@! TO.C,J6*
X0Y-95670000D02*
X500000Y-95670000D01*
X0Y-95670000D02*
X0Y-95170000D01*
X14200000Y-95670000D02*
X13700000Y-95670000D01*
X14200000Y-95670000D02*
X14200000Y-95170000D01*
X14200000Y-84170000D02*
X13700000Y-84170000D01*
X14200000Y-84170000D02*
X14200000Y-84670000D01*
X0Y-84170000D02*
X500000Y-84170000D01*
X0Y-84170000D02*
X0Y-84670000D01*
G04 #@! TO.C,J4*
X0Y-28995000D02*
X500000Y-28995000D01*
X0Y-28995000D02*
X0Y-28495000D01*
X14200000Y-28995000D02*
X13700000Y-28995000D01*
X14200000Y-28995000D02*
X14200000Y-28495000D01*
X14200000Y-17495000D02*
X13700000Y-17495000D01*
X14200000Y-17495000D02*
X14200000Y-17995000D01*
X0Y-17495000D02*
X500000Y-17495000D01*
X0Y-17495000D02*
X0Y-17995000D01*
G04 #@! TO.C,J3*
X0Y-13120000D02*
X500000Y-13120000D01*
X0Y-13120000D02*
X0Y-12620000D01*
X14200000Y-13120000D02*
X13700000Y-13120000D01*
X14200000Y-13120000D02*
X14200000Y-12620000D01*
X14200000Y-1620000D02*
X13700000Y-1620000D01*
X14200000Y-1620000D02*
X14200000Y-2120000D01*
X0Y-1620000D02*
X500000Y-1620000D01*
X0Y-1620000D02*
X0Y-2120000D01*
G04 #@! TO.C,J2*
X0Y-79795000D02*
X500000Y-79795000D01*
X0Y-79795000D02*
X0Y-79295000D01*
X14200000Y-79795000D02*
X13700000Y-79795000D01*
X14200000Y-79795000D02*
X14200000Y-79295000D01*
X14200000Y-68295000D02*
X13700000Y-68295000D01*
X14200000Y-68295000D02*
X14200000Y-68795000D01*
X0Y-68295000D02*
X500000Y-68295000D01*
X0Y-68295000D02*
X0Y-68795000D01*
G04 #@! TO.C,J1*
X0Y-63920000D02*
X500000Y-63920000D01*
X0Y-63920000D02*
X0Y-63420000D01*
X14200000Y-63920000D02*
X13700000Y-63920000D01*
X14200000Y-63920000D02*
X14200000Y-63420000D01*
X14200000Y-52420000D02*
X13700000Y-52420000D01*
X14200000Y-52420000D02*
X14200000Y-52920000D01*
X0Y-52420000D02*
X500000Y-52420000D01*
X0Y-52420000D02*
X0Y-52920000D01*
G04 #@! TO.C,R1*
X12165000Y-81915000D02*
G75*
G03*
X12165000Y-81915000I-1370000J0D01*
G01*
X9425000Y-81915000D02*
X9355000Y-81915000D01*
G04 #@! TO.C,D1*
X37521371Y-56515000D02*
G75*
G03*
X37521371Y-56515000I-1326371J0D01*
G01*
X34868629Y-56515000D02*
X34755000Y-56515000D01*
G04 #@! TO.C,R8*
X20420000Y-41910000D02*
G75*
G03*
X20420000Y-41910000I-1370000J0D01*
G01*
X19050000Y-43280000D02*
X19050000Y-43350000D01*
G04 #@! TO.C,R7*
X20420000Y-49530000D02*
G75*
G03*
X20420000Y-49530000I-1370000J0D01*
G01*
X19050000Y-48160000D02*
X19050000Y-48090000D01*
G04 #@! TO.C,R5*
X17245000Y-41910000D02*
G75*
G03*
X17245000Y-41910000I-1370000J0D01*
G01*
X15875000Y-43280000D02*
X15875000Y-43350000D01*
G04 #@! TO.C,R3*
X17245000Y-49530000D02*
G75*
G03*
X17245000Y-49530000I-1370000J0D01*
G01*
X15875000Y-48160000D02*
X15875000Y-48090000D01*
G04 #@! TO.C,D2*
X37521371Y-17780000D02*
G75*
G03*
X37521371Y-17780000I-1326371J0D01*
G01*
X34868629Y-17780000D02*
X34755000Y-17780000D01*
G04 #@! TO.C,R10*
X20420000Y-3175000D02*
G75*
G03*
X20420000Y-3175000I-1370000J0D01*
G01*
X19050000Y-4545000D02*
X19050000Y-4615000D01*
G04 #@! TO.C,R9*
X20420000Y-10795000D02*
G75*
G03*
X20420000Y-10795000I-1370000J0D01*
G01*
X19050000Y-9425000D02*
X19050000Y-9355000D01*
G04 #@! TO.C,R2*
X12165000Y-31115000D02*
G75*
G03*
X12165000Y-31115000I-1370000J0D01*
G01*
X9425000Y-31115000D02*
X9355000Y-31115000D01*
G04 #@! TO.C,R6*
X17245000Y-3175000D02*
G75*
G03*
X17245000Y-3175000I-1370000J0D01*
G01*
X15875000Y-4545000D02*
X15875000Y-4615000D01*
G04 #@! TO.C,R4*
X17245000Y-10795000D02*
G75*
G03*
X17245000Y-10795000I-1370000J0D01*
G01*
X15875000Y-9425000D02*
X15875000Y-9355000D01*
G04 #@! TO.C,U4*
X27035000Y-1845000D02*
G75*
G02*
X25035000Y-1845000I-1000000J0D01*
G01*
X25035000Y-1845000D02*
X23785000Y-1845000D01*
X23785000Y-1845000D02*
X23785000Y-12125000D01*
X23785000Y-12125000D02*
X28285000Y-12125000D01*
X28285000Y-12125000D02*
X28285000Y-1845000D01*
X28285000Y-1845000D02*
X27035000Y-1845000D01*
G04 #@! TO.C,U1*
X27035000Y-40580000D02*
G75*
G02*
X25035000Y-40580000I-1000000J0D01*
G01*
X25035000Y-40580000D02*
X23785000Y-40580000D01*
X23785000Y-40580000D02*
X23785000Y-50860000D01*
X23785000Y-50860000D02*
X28285000Y-50860000D01*
X28285000Y-50860000D02*
X28285000Y-40580000D01*
X28285000Y-40580000D02*
X27035000Y-40580000D01*
G04 #@! TO.C,C10*
X18265000Y-19200000D02*
X18265000Y-26440000D01*
X16025000Y-19200000D02*
X16025000Y-26440000D01*
X18265000Y-19200000D02*
X16025000Y-19200000D01*
X18265000Y-26440000D02*
X16025000Y-26440000D01*
G04 #@! TO.C,C9*
X29695000Y-15090000D02*
X22455000Y-15090000D01*
X29695000Y-12850000D02*
X22455000Y-12850000D01*
X29695000Y-15090000D02*
X29695000Y-12850000D01*
X22455000Y-15090000D02*
X22455000Y-12850000D01*
G04 #@! TO.C,C8*
X18265000Y-57935000D02*
X18265000Y-65175000D01*
X16025000Y-57935000D02*
X16025000Y-65175000D01*
X18265000Y-57935000D02*
X16025000Y-57935000D01*
X18265000Y-65175000D02*
X16025000Y-65175000D01*
G04 #@! TO.C,U3*
X25130000Y-16450000D02*
G75*
G02*
X23130000Y-16450000I-1000000J0D01*
G01*
X23130000Y-16450000D02*
X21880000Y-16450000D01*
X21880000Y-16450000D02*
X21880000Y-26730000D01*
X21880000Y-26730000D02*
X26380000Y-26730000D01*
X26380000Y-26730000D02*
X26380000Y-16450000D01*
X26380000Y-16450000D02*
X25130000Y-16450000D01*
G04 #@! TO.C,U2*
X25130000Y-55185000D02*
G75*
G02*
X23130000Y-55185000I-1000000J0D01*
G01*
X23130000Y-55185000D02*
X21880000Y-55185000D01*
X21880000Y-55185000D02*
X21880000Y-65465000D01*
X21880000Y-65465000D02*
X26380000Y-65465000D01*
X26380000Y-65465000D02*
X26380000Y-55185000D01*
X26380000Y-55185000D02*
X25130000Y-55185000D01*
G04 #@! TO.C,R14*
X20860000Y-28170000D02*
X20860000Y-27840000D01*
X20860000Y-27840000D02*
X27400000Y-27840000D01*
X27400000Y-27840000D02*
X27400000Y-28170000D01*
X20860000Y-30250000D02*
X20860000Y-30580000D01*
X20860000Y-30580000D02*
X27400000Y-30580000D01*
X27400000Y-30580000D02*
X27400000Y-30250000D01*
G04 #@! TO.C,R13*
X20860000Y-66905000D02*
X20860000Y-66575000D01*
X20860000Y-66575000D02*
X27400000Y-66575000D01*
X27400000Y-66575000D02*
X27400000Y-66905000D01*
X20860000Y-68985000D02*
X20860000Y-69315000D01*
X20860000Y-69315000D02*
X27400000Y-69315000D01*
X27400000Y-69315000D02*
X27400000Y-68985000D01*
G04 #@! TO.C,R12*
X37235000Y-6255000D02*
X37565000Y-6255000D01*
X37565000Y-6255000D02*
X37565000Y-12795000D01*
X37565000Y-12795000D02*
X37235000Y-12795000D01*
X35155000Y-6255000D02*
X34825000Y-6255000D01*
X34825000Y-6255000D02*
X34825000Y-12795000D01*
X34825000Y-12795000D02*
X35155000Y-12795000D01*
G04 #@! TO.C,R11*
X37235000Y-44990000D02*
X37565000Y-44990000D01*
X37565000Y-44990000D02*
X37565000Y-51530000D01*
X37565000Y-51530000D02*
X37235000Y-51530000D01*
X35155000Y-44990000D02*
X34825000Y-44990000D01*
X34825000Y-44990000D02*
X34825000Y-51530000D01*
X34825000Y-51530000D02*
X35155000Y-51530000D01*
G04 #@! TO.C,J5*
X29670000Y-85580000D02*
X38790000Y-85580000D01*
X29670000Y-89680000D02*
X38790000Y-89680000D01*
X29670000Y-73530000D02*
X38790000Y-73530000D01*
X38790000Y-73530000D02*
X38790000Y-101730000D01*
X38790000Y-101730000D02*
X29670000Y-101730000D01*
X29670000Y-101730000D02*
X29670000Y-73530000D01*
X24050000Y-78740000D02*
X23050000Y-78240000D01*
X23050000Y-78240000D02*
X23050000Y-79240000D01*
X23050000Y-79240000D02*
X24050000Y-78740000D01*
G04 #@! TO.C,C7*
X29995000Y-21740000D02*
X37235000Y-21740000D01*
X29995000Y-23980000D02*
X37235000Y-23980000D01*
X29995000Y-21740000D02*
X29995000Y-23980000D01*
X37235000Y-21740000D02*
X37235000Y-23980000D01*
G04 #@! TO.C,C6*
X29995000Y-60475000D02*
X37235000Y-60475000D01*
X29995000Y-62715000D02*
X37235000Y-62715000D01*
X29995000Y-60475000D02*
X29995000Y-62715000D01*
X37235000Y-60475000D02*
X37235000Y-62715000D01*
G04 #@! TO.C,C5*
X22940000Y-77450000D02*
G75*
G03*
X22940000Y-77450000I-2620000J0D01*
G01*
X22900000Y-77450000D02*
X17740000Y-77450000D01*
X22900000Y-77490000D02*
X17740000Y-77490000D01*
X22899000Y-77530000D02*
X17741000Y-77530000D01*
X22898000Y-77570000D02*
X17742000Y-77570000D01*
X22896000Y-77610000D02*
X17744000Y-77610000D01*
X22893000Y-77650000D02*
X17747000Y-77650000D01*
X22889000Y-77690000D02*
X21360000Y-77690000D01*
X19280000Y-77690000D02*
X17751000Y-77690000D01*
X22885000Y-77730000D02*
X21360000Y-77730000D01*
X19280000Y-77730000D02*
X17755000Y-77730000D01*
X22881000Y-77770000D02*
X21360000Y-77770000D01*
X19280000Y-77770000D02*
X17759000Y-77770000D01*
X22876000Y-77810000D02*
X21360000Y-77810000D01*
X19280000Y-77810000D02*
X17764000Y-77810000D01*
X22870000Y-77850000D02*
X21360000Y-77850000D01*
X19280000Y-77850000D02*
X17770000Y-77850000D01*
X22863000Y-77890000D02*
X21360000Y-77890000D01*
X19280000Y-77890000D02*
X17777000Y-77890000D01*
X22856000Y-77930000D02*
X21360000Y-77930000D01*
X19280000Y-77930000D02*
X17784000Y-77930000D01*
X22848000Y-77970000D02*
X21360000Y-77970000D01*
X19280000Y-77970000D02*
X17792000Y-77970000D01*
X22840000Y-78010000D02*
X21360000Y-78010000D01*
X19280000Y-78010000D02*
X17800000Y-78010000D01*
X22831000Y-78050000D02*
X21360000Y-78050000D01*
X19280000Y-78050000D02*
X17809000Y-78050000D01*
X22821000Y-78090000D02*
X21360000Y-78090000D01*
X19280000Y-78090000D02*
X17819000Y-78090000D01*
X22811000Y-78130000D02*
X21360000Y-78130000D01*
X19280000Y-78130000D02*
X17829000Y-78130000D01*
X22800000Y-78171000D02*
X21360000Y-78171000D01*
X19280000Y-78171000D02*
X17840000Y-78171000D01*
X22788000Y-78211000D02*
X21360000Y-78211000D01*
X19280000Y-78211000D02*
X17852000Y-78211000D01*
X22775000Y-78251000D02*
X21360000Y-78251000D01*
X19280000Y-78251000D02*
X17865000Y-78251000D01*
X22762000Y-78291000D02*
X21360000Y-78291000D01*
X19280000Y-78291000D02*
X17878000Y-78291000D01*
X22748000Y-78331000D02*
X21360000Y-78331000D01*
X19280000Y-78331000D02*
X17892000Y-78331000D01*
X22734000Y-78371000D02*
X21360000Y-78371000D01*
X19280000Y-78371000D02*
X17906000Y-78371000D01*
X22718000Y-78411000D02*
X21360000Y-78411000D01*
X19280000Y-78411000D02*
X17922000Y-78411000D01*
X22702000Y-78451000D02*
X21360000Y-78451000D01*
X19280000Y-78451000D02*
X17938000Y-78451000D01*
X22685000Y-78491000D02*
X21360000Y-78491000D01*
X19280000Y-78491000D02*
X17955000Y-78491000D01*
X22668000Y-78531000D02*
X21360000Y-78531000D01*
X19280000Y-78531000D02*
X17972000Y-78531000D01*
X22649000Y-78571000D02*
X21360000Y-78571000D01*
X19280000Y-78571000D02*
X17991000Y-78571000D01*
X22630000Y-78611000D02*
X21360000Y-78611000D01*
X19280000Y-78611000D02*
X18010000Y-78611000D01*
X22610000Y-78651000D02*
X21360000Y-78651000D01*
X19280000Y-78651000D02*
X18030000Y-78651000D01*
X22588000Y-78691000D02*
X21360000Y-78691000D01*
X19280000Y-78691000D02*
X18052000Y-78691000D01*
X22567000Y-78731000D02*
X21360000Y-78731000D01*
X19280000Y-78731000D02*
X18073000Y-78731000D01*
X22544000Y-78771000D02*
X21360000Y-78771000D01*
X19280000Y-78771000D02*
X18096000Y-78771000D01*
X22520000Y-78811000D02*
X21360000Y-78811000D01*
X19280000Y-78811000D02*
X18120000Y-78811000D01*
X22495000Y-78851000D02*
X21360000Y-78851000D01*
X19280000Y-78851000D02*
X18145000Y-78851000D01*
X22469000Y-78891000D02*
X21360000Y-78891000D01*
X19280000Y-78891000D02*
X18171000Y-78891000D01*
X22442000Y-78931000D02*
X21360000Y-78931000D01*
X19280000Y-78931000D02*
X18198000Y-78931000D01*
X22415000Y-78971000D02*
X21360000Y-78971000D01*
X19280000Y-78971000D02*
X18225000Y-78971000D01*
X22385000Y-79011000D02*
X21360000Y-79011000D01*
X19280000Y-79011000D02*
X18255000Y-79011000D01*
X22355000Y-79051000D02*
X21360000Y-79051000D01*
X19280000Y-79051000D02*
X18285000Y-79051000D01*
X22324000Y-79091000D02*
X21360000Y-79091000D01*
X19280000Y-79091000D02*
X18316000Y-79091000D01*
X22291000Y-79131000D02*
X21360000Y-79131000D01*
X19280000Y-79131000D02*
X18349000Y-79131000D01*
X22257000Y-79171000D02*
X21360000Y-79171000D01*
X19280000Y-79171000D02*
X18383000Y-79171000D01*
X22221000Y-79211000D02*
X21360000Y-79211000D01*
X19280000Y-79211000D02*
X18419000Y-79211000D01*
X22184000Y-79251000D02*
X21360000Y-79251000D01*
X19280000Y-79251000D02*
X18456000Y-79251000D01*
X22146000Y-79291000D02*
X21360000Y-79291000D01*
X19280000Y-79291000D02*
X18494000Y-79291000D01*
X22105000Y-79331000D02*
X21360000Y-79331000D01*
X19280000Y-79331000D02*
X18535000Y-79331000D01*
X22063000Y-79371000D02*
X21360000Y-79371000D01*
X19280000Y-79371000D02*
X18577000Y-79371000D01*
X22019000Y-79411000D02*
X21360000Y-79411000D01*
X19280000Y-79411000D02*
X18621000Y-79411000D01*
X21973000Y-79451000D02*
X21360000Y-79451000D01*
X19280000Y-79451000D02*
X18667000Y-79451000D01*
X21925000Y-79491000D02*
X21360000Y-79491000D01*
X19280000Y-79491000D02*
X18715000Y-79491000D01*
X21874000Y-79531000D02*
X21360000Y-79531000D01*
X19280000Y-79531000D02*
X18766000Y-79531000D01*
X21820000Y-79571000D02*
X21360000Y-79571000D01*
X19280000Y-79571000D02*
X18820000Y-79571000D01*
X21763000Y-79611000D02*
X21360000Y-79611000D01*
X19280000Y-79611000D02*
X18877000Y-79611000D01*
X21703000Y-79651000D02*
X21360000Y-79651000D01*
X19280000Y-79651000D02*
X18937000Y-79651000D01*
X21639000Y-79691000D02*
X21360000Y-79691000D01*
X19280000Y-79691000D02*
X19001000Y-79691000D01*
X21571000Y-79731000D02*
X21360000Y-79731000D01*
X19280000Y-79731000D02*
X19069000Y-79731000D01*
X21498000Y-79771000D02*
X19142000Y-79771000D01*
X21418000Y-79811000D02*
X19222000Y-79811000D01*
X21331000Y-79851000D02*
X19309000Y-79851000D01*
X21235000Y-79891000D02*
X19405000Y-79891000D01*
X21125000Y-79931000D02*
X19515000Y-79931000D01*
X20997000Y-79971000D02*
X19643000Y-79971000D01*
X20838000Y-80011000D02*
X19802000Y-80011000D01*
X20604000Y-80051000D02*
X20036000Y-80051000D01*
X21795000Y-74645225D02*
X21795000Y-75145225D01*
X22045000Y-74895225D02*
X21545000Y-74895225D01*
G04 #@! TO.C,C4*
X22940000Y-90150000D02*
G75*
G03*
X22940000Y-90150000I-2620000J0D01*
G01*
X22900000Y-90150000D02*
X17740000Y-90150000D01*
X22900000Y-90190000D02*
X17740000Y-90190000D01*
X22899000Y-90230000D02*
X17741000Y-90230000D01*
X22898000Y-90270000D02*
X17742000Y-90270000D01*
X22896000Y-90310000D02*
X17744000Y-90310000D01*
X22893000Y-90350000D02*
X17747000Y-90350000D01*
X22889000Y-90390000D02*
X21360000Y-90390000D01*
X19280000Y-90390000D02*
X17751000Y-90390000D01*
X22885000Y-90430000D02*
X21360000Y-90430000D01*
X19280000Y-90430000D02*
X17755000Y-90430000D01*
X22881000Y-90470000D02*
X21360000Y-90470000D01*
X19280000Y-90470000D02*
X17759000Y-90470000D01*
X22876000Y-90510000D02*
X21360000Y-90510000D01*
X19280000Y-90510000D02*
X17764000Y-90510000D01*
X22870000Y-90550000D02*
X21360000Y-90550000D01*
X19280000Y-90550000D02*
X17770000Y-90550000D01*
X22863000Y-90590000D02*
X21360000Y-90590000D01*
X19280000Y-90590000D02*
X17777000Y-90590000D01*
X22856000Y-90630000D02*
X21360000Y-90630000D01*
X19280000Y-90630000D02*
X17784000Y-90630000D01*
X22848000Y-90670000D02*
X21360000Y-90670000D01*
X19280000Y-90670000D02*
X17792000Y-90670000D01*
X22840000Y-90710000D02*
X21360000Y-90710000D01*
X19280000Y-90710000D02*
X17800000Y-90710000D01*
X22831000Y-90750000D02*
X21360000Y-90750000D01*
X19280000Y-90750000D02*
X17809000Y-90750000D01*
X22821000Y-90790000D02*
X21360000Y-90790000D01*
X19280000Y-90790000D02*
X17819000Y-90790000D01*
X22811000Y-90830000D02*
X21360000Y-90830000D01*
X19280000Y-90830000D02*
X17829000Y-90830000D01*
X22800000Y-90871000D02*
X21360000Y-90871000D01*
X19280000Y-90871000D02*
X17840000Y-90871000D01*
X22788000Y-90911000D02*
X21360000Y-90911000D01*
X19280000Y-90911000D02*
X17852000Y-90911000D01*
X22775000Y-90951000D02*
X21360000Y-90951000D01*
X19280000Y-90951000D02*
X17865000Y-90951000D01*
X22762000Y-90991000D02*
X21360000Y-90991000D01*
X19280000Y-90991000D02*
X17878000Y-90991000D01*
X22748000Y-91031000D02*
X21360000Y-91031000D01*
X19280000Y-91031000D02*
X17892000Y-91031000D01*
X22734000Y-91071000D02*
X21360000Y-91071000D01*
X19280000Y-91071000D02*
X17906000Y-91071000D01*
X22718000Y-91111000D02*
X21360000Y-91111000D01*
X19280000Y-91111000D02*
X17922000Y-91111000D01*
X22702000Y-91151000D02*
X21360000Y-91151000D01*
X19280000Y-91151000D02*
X17938000Y-91151000D01*
X22685000Y-91191000D02*
X21360000Y-91191000D01*
X19280000Y-91191000D02*
X17955000Y-91191000D01*
X22668000Y-91231000D02*
X21360000Y-91231000D01*
X19280000Y-91231000D02*
X17972000Y-91231000D01*
X22649000Y-91271000D02*
X21360000Y-91271000D01*
X19280000Y-91271000D02*
X17991000Y-91271000D01*
X22630000Y-91311000D02*
X21360000Y-91311000D01*
X19280000Y-91311000D02*
X18010000Y-91311000D01*
X22610000Y-91351000D02*
X21360000Y-91351000D01*
X19280000Y-91351000D02*
X18030000Y-91351000D01*
X22588000Y-91391000D02*
X21360000Y-91391000D01*
X19280000Y-91391000D02*
X18052000Y-91391000D01*
X22567000Y-91431000D02*
X21360000Y-91431000D01*
X19280000Y-91431000D02*
X18073000Y-91431000D01*
X22544000Y-91471000D02*
X21360000Y-91471000D01*
X19280000Y-91471000D02*
X18096000Y-91471000D01*
X22520000Y-91511000D02*
X21360000Y-91511000D01*
X19280000Y-91511000D02*
X18120000Y-91511000D01*
X22495000Y-91551000D02*
X21360000Y-91551000D01*
X19280000Y-91551000D02*
X18145000Y-91551000D01*
X22469000Y-91591000D02*
X21360000Y-91591000D01*
X19280000Y-91591000D02*
X18171000Y-91591000D01*
X22442000Y-91631000D02*
X21360000Y-91631000D01*
X19280000Y-91631000D02*
X18198000Y-91631000D01*
X22415000Y-91671000D02*
X21360000Y-91671000D01*
X19280000Y-91671000D02*
X18225000Y-91671000D01*
X22385000Y-91711000D02*
X21360000Y-91711000D01*
X19280000Y-91711000D02*
X18255000Y-91711000D01*
X22355000Y-91751000D02*
X21360000Y-91751000D01*
X19280000Y-91751000D02*
X18285000Y-91751000D01*
X22324000Y-91791000D02*
X21360000Y-91791000D01*
X19280000Y-91791000D02*
X18316000Y-91791000D01*
X22291000Y-91831000D02*
X21360000Y-91831000D01*
X19280000Y-91831000D02*
X18349000Y-91831000D01*
X22257000Y-91871000D02*
X21360000Y-91871000D01*
X19280000Y-91871000D02*
X18383000Y-91871000D01*
X22221000Y-91911000D02*
X21360000Y-91911000D01*
X19280000Y-91911000D02*
X18419000Y-91911000D01*
X22184000Y-91951000D02*
X21360000Y-91951000D01*
X19280000Y-91951000D02*
X18456000Y-91951000D01*
X22146000Y-91991000D02*
X21360000Y-91991000D01*
X19280000Y-91991000D02*
X18494000Y-91991000D01*
X22105000Y-92031000D02*
X21360000Y-92031000D01*
X19280000Y-92031000D02*
X18535000Y-92031000D01*
X22063000Y-92071000D02*
X21360000Y-92071000D01*
X19280000Y-92071000D02*
X18577000Y-92071000D01*
X22019000Y-92111000D02*
X21360000Y-92111000D01*
X19280000Y-92111000D02*
X18621000Y-92111000D01*
X21973000Y-92151000D02*
X21360000Y-92151000D01*
X19280000Y-92151000D02*
X18667000Y-92151000D01*
X21925000Y-92191000D02*
X21360000Y-92191000D01*
X19280000Y-92191000D02*
X18715000Y-92191000D01*
X21874000Y-92231000D02*
X21360000Y-92231000D01*
X19280000Y-92231000D02*
X18766000Y-92231000D01*
X21820000Y-92271000D02*
X21360000Y-92271000D01*
X19280000Y-92271000D02*
X18820000Y-92271000D01*
X21763000Y-92311000D02*
X21360000Y-92311000D01*
X19280000Y-92311000D02*
X18877000Y-92311000D01*
X21703000Y-92351000D02*
X21360000Y-92351000D01*
X19280000Y-92351000D02*
X18937000Y-92351000D01*
X21639000Y-92391000D02*
X21360000Y-92391000D01*
X19280000Y-92391000D02*
X19001000Y-92391000D01*
X21571000Y-92431000D02*
X21360000Y-92431000D01*
X19280000Y-92431000D02*
X19069000Y-92431000D01*
X21498000Y-92471000D02*
X19142000Y-92471000D01*
X21418000Y-92511000D02*
X19222000Y-92511000D01*
X21331000Y-92551000D02*
X19309000Y-92551000D01*
X21235000Y-92591000D02*
X19405000Y-92591000D01*
X21125000Y-92631000D02*
X19515000Y-92631000D01*
X20997000Y-92671000D02*
X19643000Y-92671000D01*
X20838000Y-92711000D02*
X19802000Y-92711000D01*
X20604000Y-92751000D02*
X20036000Y-92751000D01*
X21795000Y-87345225D02*
X21795000Y-87845225D01*
X22045000Y-87595225D02*
X21545000Y-87595225D01*
G04 #@! TO.C,C3*
X29695000Y-53825000D02*
X22455000Y-53825000D01*
X29695000Y-51585000D02*
X22455000Y-51585000D01*
X29695000Y-53825000D02*
X29695000Y-51585000D01*
X22455000Y-53825000D02*
X22455000Y-51585000D01*
G04 #@! TO.C,C2*
X31900000Y-14455000D02*
X31900000Y-7215000D01*
X34140000Y-14455000D02*
X34140000Y-7215000D01*
X31900000Y-14455000D02*
X34140000Y-14455000D01*
X31900000Y-7215000D02*
X34140000Y-7215000D01*
G04 #@! TO.C,C1*
X31900000Y-53190000D02*
X31900000Y-45950000D01*
X34140000Y-53190000D02*
X34140000Y-45950000D01*
X31900000Y-53190000D02*
X34140000Y-53190000D01*
X31900000Y-45950000D02*
X34140000Y-45950000D01*
G04 #@! TO.C,J7*
D10*
X10062976Y-45172380D02*
X10253452Y-45172380D01*
X10348690Y-45220000D01*
X10443928Y-45315238D01*
X10491547Y-45505714D01*
X10491547Y-45839047D01*
X10443928Y-46029523D01*
X10348690Y-46124761D01*
X10253452Y-46172380D01*
X10062976Y-46172380D01*
X9967738Y-46124761D01*
X9872500Y-46029523D01*
X9824880Y-45839047D01*
X9824880Y-45505714D01*
X9872500Y-45315238D01*
X9967738Y-45220000D01*
X10062976Y-45172380D01*
X11348690Y-45505714D02*
X11348690Y-46172380D01*
X10920119Y-45505714D02*
X10920119Y-46029523D01*
X10967738Y-46124761D01*
X11062976Y-46172380D01*
X11205833Y-46172380D01*
X11301071Y-46124761D01*
X11348690Y-46077142D01*
X11682023Y-45505714D02*
X12062976Y-45505714D01*
X11824880Y-45172380D02*
X11824880Y-46029523D01*
X11872500Y-46124761D01*
X11967738Y-46172380D01*
X12062976Y-46172380D01*
X13682023Y-46172380D02*
X13110595Y-46172380D01*
X13396309Y-46172380D02*
X13396309Y-45172380D01*
X13301071Y-45315238D01*
X13205833Y-45410476D01*
X13110595Y-45458095D01*
G04 #@! TO.C,J6*
X10062976Y-95972380D02*
X10253452Y-95972380D01*
X10348690Y-96020000D01*
X10443928Y-96115238D01*
X10491547Y-96305714D01*
X10491547Y-96639047D01*
X10443928Y-96829523D01*
X10348690Y-96924761D01*
X10253452Y-96972380D01*
X10062976Y-96972380D01*
X9967738Y-96924761D01*
X9872500Y-96829523D01*
X9824880Y-96639047D01*
X9824880Y-96305714D01*
X9872500Y-96115238D01*
X9967738Y-96020000D01*
X10062976Y-95972380D01*
X11348690Y-96305714D02*
X11348690Y-96972380D01*
X10920119Y-96305714D02*
X10920119Y-96829523D01*
X10967738Y-96924761D01*
X11062976Y-96972380D01*
X11205833Y-96972380D01*
X11301071Y-96924761D01*
X11348690Y-96877142D01*
X11682023Y-96305714D02*
X12062976Y-96305714D01*
X11824880Y-95972380D02*
X11824880Y-96829523D01*
X11872500Y-96924761D01*
X11967738Y-96972380D01*
X12062976Y-96972380D01*
X13110595Y-96067619D02*
X13158214Y-96020000D01*
X13253452Y-95972380D01*
X13491547Y-95972380D01*
X13586785Y-96020000D01*
X13634404Y-96067619D01*
X13682023Y-96162857D01*
X13682023Y-96258095D01*
X13634404Y-96400952D01*
X13062976Y-96972380D01*
X13682023Y-96972380D01*
G04 #@! TO.C,J4*
X11015357Y-16962380D02*
X11015357Y-15962380D01*
X11491547Y-16295714D02*
X11491547Y-16962380D01*
X11491547Y-16390952D02*
X11539166Y-16343333D01*
X11634404Y-16295714D01*
X11777261Y-16295714D01*
X11872500Y-16343333D01*
X11920119Y-16438571D01*
X11920119Y-16962380D01*
X13682023Y-16962380D02*
X13110595Y-16962380D01*
X13396309Y-16962380D02*
X13396309Y-15962380D01*
X13301071Y-16105238D01*
X13205833Y-16200476D01*
X13110595Y-16248095D01*
G04 #@! TO.C,J3*
X7110595Y-13422380D02*
X7682023Y-13422380D01*
X7396309Y-14422380D02*
X7396309Y-13422380D01*
X8015357Y-14422380D02*
X8015357Y-13755714D01*
X8015357Y-13946190D02*
X8062976Y-13850952D01*
X8110595Y-13803333D01*
X8205833Y-13755714D01*
X8301071Y-13755714D01*
X8634404Y-14422380D02*
X8634404Y-13755714D01*
X8634404Y-13422380D02*
X8586785Y-13470000D01*
X8634404Y-13517619D01*
X8682023Y-13470000D01*
X8634404Y-13422380D01*
X8634404Y-13517619D01*
X9539166Y-13755714D02*
X9539166Y-14565238D01*
X9491547Y-14660476D01*
X9443928Y-14708095D01*
X9348690Y-14755714D01*
X9205833Y-14755714D01*
X9110595Y-14708095D01*
X9539166Y-14374761D02*
X9443928Y-14422380D01*
X9253452Y-14422380D01*
X9158214Y-14374761D01*
X9110595Y-14327142D01*
X9062976Y-14231904D01*
X9062976Y-13946190D01*
X9110595Y-13850952D01*
X9158214Y-13803333D01*
X9253452Y-13755714D01*
X9443928Y-13755714D01*
X9539166Y-13803333D01*
X10443928Y-13755714D02*
X10443928Y-14565238D01*
X10396309Y-14660476D01*
X10348690Y-14708095D01*
X10253452Y-14755714D01*
X10110595Y-14755714D01*
X10015357Y-14708095D01*
X10443928Y-14374761D02*
X10348690Y-14422380D01*
X10158214Y-14422380D01*
X10062976Y-14374761D01*
X10015357Y-14327142D01*
X9967738Y-14231904D01*
X9967738Y-13946190D01*
X10015357Y-13850952D01*
X10062976Y-13803333D01*
X10158214Y-13755714D01*
X10348690Y-13755714D01*
X10443928Y-13803333D01*
X11301071Y-14374761D02*
X11205833Y-14422380D01*
X11015357Y-14422380D01*
X10920119Y-14374761D01*
X10872500Y-14279523D01*
X10872500Y-13898571D01*
X10920119Y-13803333D01*
X11015357Y-13755714D01*
X11205833Y-13755714D01*
X11301071Y-13803333D01*
X11348690Y-13898571D01*
X11348690Y-13993809D01*
X10872500Y-14089047D01*
X11777261Y-14422380D02*
X11777261Y-13755714D01*
X11777261Y-13946190D02*
X11824880Y-13850952D01*
X11872500Y-13803333D01*
X11967738Y-13755714D01*
X12062976Y-13755714D01*
X13682023Y-14422380D02*
X13110595Y-14422380D01*
X13396309Y-14422380D02*
X13396309Y-13422380D01*
X13301071Y-13565238D01*
X13205833Y-13660476D01*
X13110595Y-13708095D01*
G04 #@! TO.C,J2*
X11015357Y-67762380D02*
X11015357Y-66762380D01*
X11491547Y-67095714D02*
X11491547Y-67762380D01*
X11491547Y-67190952D02*
X11539166Y-67143333D01*
X11634404Y-67095714D01*
X11777261Y-67095714D01*
X11872500Y-67143333D01*
X11920119Y-67238571D01*
X11920119Y-67762380D01*
X13110595Y-66857619D02*
X13158214Y-66810000D01*
X13253452Y-66762380D01*
X13491547Y-66762380D01*
X13586785Y-66810000D01*
X13634404Y-66857619D01*
X13682023Y-66952857D01*
X13682023Y-67048095D01*
X13634404Y-67190952D01*
X13062976Y-67762380D01*
X13682023Y-67762380D01*
G04 #@! TO.C,J1*
X7110595Y-64222380D02*
X7682023Y-64222380D01*
X7396309Y-65222380D02*
X7396309Y-64222380D01*
X8015357Y-65222380D02*
X8015357Y-64555714D01*
X8015357Y-64746190D02*
X8062976Y-64650952D01*
X8110595Y-64603333D01*
X8205833Y-64555714D01*
X8301071Y-64555714D01*
X8634404Y-65222380D02*
X8634404Y-64555714D01*
X8634404Y-64222380D02*
X8586785Y-64270000D01*
X8634404Y-64317619D01*
X8682023Y-64270000D01*
X8634404Y-64222380D01*
X8634404Y-64317619D01*
X9539166Y-64555714D02*
X9539166Y-65365238D01*
X9491547Y-65460476D01*
X9443928Y-65508095D01*
X9348690Y-65555714D01*
X9205833Y-65555714D01*
X9110595Y-65508095D01*
X9539166Y-65174761D02*
X9443928Y-65222380D01*
X9253452Y-65222380D01*
X9158214Y-65174761D01*
X9110595Y-65127142D01*
X9062976Y-65031904D01*
X9062976Y-64746190D01*
X9110595Y-64650952D01*
X9158214Y-64603333D01*
X9253452Y-64555714D01*
X9443928Y-64555714D01*
X9539166Y-64603333D01*
X10443928Y-64555714D02*
X10443928Y-65365238D01*
X10396309Y-65460476D01*
X10348690Y-65508095D01*
X10253452Y-65555714D01*
X10110595Y-65555714D01*
X10015357Y-65508095D01*
X10443928Y-65174761D02*
X10348690Y-65222380D01*
X10158214Y-65222380D01*
X10062976Y-65174761D01*
X10015357Y-65127142D01*
X9967738Y-65031904D01*
X9967738Y-64746190D01*
X10015357Y-64650952D01*
X10062976Y-64603333D01*
X10158214Y-64555714D01*
X10348690Y-64555714D01*
X10443928Y-64603333D01*
X11301071Y-65174761D02*
X11205833Y-65222380D01*
X11015357Y-65222380D01*
X10920119Y-65174761D01*
X10872500Y-65079523D01*
X10872500Y-64698571D01*
X10920119Y-64603333D01*
X11015357Y-64555714D01*
X11205833Y-64555714D01*
X11301071Y-64603333D01*
X11348690Y-64698571D01*
X11348690Y-64793809D01*
X10872500Y-64889047D01*
X11777261Y-65222380D02*
X11777261Y-64555714D01*
X11777261Y-64746190D02*
X11824880Y-64650952D01*
X11872500Y-64603333D01*
X11967738Y-64555714D01*
X12062976Y-64555714D01*
X13110595Y-64317619D02*
X13158214Y-64270000D01*
X13253452Y-64222380D01*
X13491547Y-64222380D01*
X13586785Y-64270000D01*
X13634404Y-64317619D01*
X13682023Y-64412857D01*
X13682023Y-64508095D01*
X13634404Y-64650952D01*
X13062976Y-65222380D01*
X13682023Y-65222380D01*
G04 #@! TO.C,R1*
X13533571Y-82367380D02*
X12962142Y-82367380D01*
X13247857Y-82367380D02*
X13247857Y-81367380D01*
X13152619Y-81510238D01*
X13057380Y-81605476D01*
X12962142Y-81653095D01*
X14152619Y-81367380D02*
X14247857Y-81367380D01*
X14343095Y-81415000D01*
X14390714Y-81462619D01*
X14438333Y-81557857D01*
X14485952Y-81748333D01*
X14485952Y-81986428D01*
X14438333Y-82176904D01*
X14390714Y-82272142D01*
X14343095Y-82319761D01*
X14247857Y-82367380D01*
X14152619Y-82367380D01*
X14057380Y-82319761D01*
X14009761Y-82272142D01*
X13962142Y-82176904D01*
X13914523Y-81986428D01*
X13914523Y-81748333D01*
X13962142Y-81557857D01*
X14009761Y-81462619D01*
X14057380Y-81415000D01*
X14152619Y-81367380D01*
X15105000Y-81367380D02*
X15200238Y-81367380D01*
X15295476Y-81415000D01*
X15343095Y-81462619D01*
X15390714Y-81557857D01*
X15438333Y-81748333D01*
X15438333Y-81986428D01*
X15390714Y-82176904D01*
X15343095Y-82272142D01*
X15295476Y-82319761D01*
X15200238Y-82367380D01*
X15105000Y-82367380D01*
X15009761Y-82319761D01*
X14962142Y-82272142D01*
X14914523Y-82176904D01*
X14866904Y-81986428D01*
X14866904Y-81748333D01*
X14914523Y-81557857D01*
X14962142Y-81462619D01*
X15009761Y-81415000D01*
X15105000Y-81367380D01*
X15866904Y-82367380D02*
X15866904Y-81367380D01*
X15962142Y-81986428D02*
X16247857Y-82367380D01*
X16247857Y-81700714D02*
X15866904Y-82081666D01*
G04 #@! TO.C,D1*
D13*
X33210714Y-54971904D02*
X32753571Y-54971904D01*
X32982142Y-54971904D02*
X32982142Y-54171904D01*
X32905952Y-54286190D01*
X32829761Y-54362380D01*
X32753571Y-54400476D01*
X33553571Y-54971904D02*
X33553571Y-54171904D01*
X34010714Y-54971904D01*
X34010714Y-54171904D01*
X34734523Y-54438571D02*
X34734523Y-54971904D01*
X34544047Y-54133809D02*
X34353571Y-54705238D01*
X34848809Y-54705238D01*
X35572619Y-54971904D02*
X35115476Y-54971904D01*
X35344047Y-54971904D02*
X35344047Y-54171904D01*
X35267857Y-54286190D01*
X35191666Y-54362380D01*
X35115476Y-54400476D01*
X36258333Y-54438571D02*
X36258333Y-54971904D01*
X36067857Y-54133809D02*
X35877380Y-54705238D01*
X36372619Y-54705238D01*
X36791666Y-54514761D02*
X36715476Y-54476666D01*
X36677380Y-54438571D01*
X36639285Y-54362380D01*
X36639285Y-54324285D01*
X36677380Y-54248095D01*
X36715476Y-54210000D01*
X36791666Y-54171904D01*
X36944047Y-54171904D01*
X37020238Y-54210000D01*
X37058333Y-54248095D01*
X37096428Y-54324285D01*
X37096428Y-54362380D01*
X37058333Y-54438571D01*
X37020238Y-54476666D01*
X36944047Y-54514761D01*
X36791666Y-54514761D01*
X36715476Y-54552857D01*
X36677380Y-54590952D01*
X36639285Y-54667142D01*
X36639285Y-54819523D01*
X36677380Y-54895714D01*
X36715476Y-54933809D01*
X36791666Y-54971904D01*
X36944047Y-54971904D01*
X37020238Y-54933809D01*
X37058333Y-54895714D01*
X37096428Y-54819523D01*
X37096428Y-54667142D01*
X37058333Y-54590952D01*
X37020238Y-54552857D01*
X36944047Y-54514761D01*
D10*
X31593095Y-56967380D02*
X31593095Y-55967380D01*
X32164523Y-56967380D02*
X31735952Y-56395952D01*
X32164523Y-55967380D02*
X31593095Y-56538809D01*
G04 #@! TO.C,R8*
D13*
X18731666Y-52788333D02*
X18731666Y-53188333D01*
X18731666Y-52988333D02*
X18031666Y-52988333D01*
X18131666Y-53055000D01*
X18198333Y-53121666D01*
X18231666Y-53188333D01*
X18731666Y-52488333D02*
X18031666Y-52488333D01*
X18465000Y-52421666D02*
X18731666Y-52221666D01*
X18265000Y-52221666D02*
X18531666Y-52488333D01*
G04 #@! TO.C,R7*
X20001666Y-53455000D02*
X20001666Y-53855000D01*
X20001666Y-53655000D02*
X19301666Y-53655000D01*
X19401666Y-53721666D01*
X19468333Y-53788333D01*
X19501666Y-53855000D01*
X19301666Y-53021666D02*
X19301666Y-52955000D01*
X19335000Y-52888333D01*
X19368333Y-52855000D01*
X19435000Y-52821666D01*
X19568333Y-52788333D01*
X19735000Y-52788333D01*
X19868333Y-52821666D01*
X19935000Y-52855000D01*
X19968333Y-52888333D01*
X20001666Y-52955000D01*
X20001666Y-53021666D01*
X19968333Y-53088333D01*
X19935000Y-53121666D01*
X19868333Y-53155000D01*
X19735000Y-53188333D01*
X19568333Y-53188333D01*
X19435000Y-53155000D01*
X19368333Y-53121666D01*
X19335000Y-53088333D01*
X19301666Y-53021666D01*
X19301666Y-52355000D02*
X19301666Y-52288333D01*
X19335000Y-52221666D01*
X19368333Y-52188333D01*
X19435000Y-52155000D01*
X19568333Y-52121666D01*
X19735000Y-52121666D01*
X19868333Y-52155000D01*
X19935000Y-52188333D01*
X19968333Y-52221666D01*
X20001666Y-52288333D01*
X20001666Y-52355000D01*
X19968333Y-52421666D01*
X19935000Y-52455000D01*
X19868333Y-52488333D01*
X19735000Y-52521666D01*
X19568333Y-52521666D01*
X19435000Y-52488333D01*
X19368333Y-52455000D01*
X19335000Y-52421666D01*
X19301666Y-52355000D01*
X20001666Y-51821666D02*
X19301666Y-51821666D01*
X19735000Y-51755000D02*
X20001666Y-51555000D01*
X19535000Y-51555000D02*
X19801666Y-51821666D01*
G04 #@! TO.C,R5*
X15556666Y-53455000D02*
X15556666Y-53855000D01*
X15556666Y-53655000D02*
X14856666Y-53655000D01*
X14956666Y-53721666D01*
X15023333Y-53788333D01*
X15056666Y-53855000D01*
X14856666Y-53021666D02*
X14856666Y-52955000D01*
X14890000Y-52888333D01*
X14923333Y-52855000D01*
X14990000Y-52821666D01*
X15123333Y-52788333D01*
X15290000Y-52788333D01*
X15423333Y-52821666D01*
X15490000Y-52855000D01*
X15523333Y-52888333D01*
X15556666Y-52955000D01*
X15556666Y-53021666D01*
X15523333Y-53088333D01*
X15490000Y-53121666D01*
X15423333Y-53155000D01*
X15290000Y-53188333D01*
X15123333Y-53188333D01*
X14990000Y-53155000D01*
X14923333Y-53121666D01*
X14890000Y-53088333D01*
X14856666Y-53021666D01*
X14856666Y-52355000D02*
X14856666Y-52288333D01*
X14890000Y-52221666D01*
X14923333Y-52188333D01*
X14990000Y-52155000D01*
X15123333Y-52121666D01*
X15290000Y-52121666D01*
X15423333Y-52155000D01*
X15490000Y-52188333D01*
X15523333Y-52221666D01*
X15556666Y-52288333D01*
X15556666Y-52355000D01*
X15523333Y-52421666D01*
X15490000Y-52455000D01*
X15423333Y-52488333D01*
X15290000Y-52521666D01*
X15123333Y-52521666D01*
X14990000Y-52488333D01*
X14923333Y-52455000D01*
X14890000Y-52421666D01*
X14856666Y-52355000D01*
X15556666Y-51821666D02*
X14856666Y-51821666D01*
X15290000Y-51755000D02*
X15556666Y-51555000D01*
X15090000Y-51555000D02*
X15356666Y-51821666D01*
G04 #@! TO.C,R3*
X16826666Y-53455000D02*
X16826666Y-53855000D01*
X16826666Y-53655000D02*
X16126666Y-53655000D01*
X16226666Y-53721666D01*
X16293333Y-53788333D01*
X16326666Y-53855000D01*
X16126666Y-53021666D02*
X16126666Y-52955000D01*
X16160000Y-52888333D01*
X16193333Y-52855000D01*
X16260000Y-52821666D01*
X16393333Y-52788333D01*
X16560000Y-52788333D01*
X16693333Y-52821666D01*
X16760000Y-52855000D01*
X16793333Y-52888333D01*
X16826666Y-52955000D01*
X16826666Y-53021666D01*
X16793333Y-53088333D01*
X16760000Y-53121666D01*
X16693333Y-53155000D01*
X16560000Y-53188333D01*
X16393333Y-53188333D01*
X16260000Y-53155000D01*
X16193333Y-53121666D01*
X16160000Y-53088333D01*
X16126666Y-53021666D01*
X16126666Y-52355000D02*
X16126666Y-52288333D01*
X16160000Y-52221666D01*
X16193333Y-52188333D01*
X16260000Y-52155000D01*
X16393333Y-52121666D01*
X16560000Y-52121666D01*
X16693333Y-52155000D01*
X16760000Y-52188333D01*
X16793333Y-52221666D01*
X16826666Y-52288333D01*
X16826666Y-52355000D01*
X16793333Y-52421666D01*
X16760000Y-52455000D01*
X16693333Y-52488333D01*
X16560000Y-52521666D01*
X16393333Y-52521666D01*
X16260000Y-52488333D01*
X16193333Y-52455000D01*
X16160000Y-52421666D01*
X16126666Y-52355000D01*
X16826666Y-51821666D02*
X16126666Y-51821666D01*
X16560000Y-51755000D02*
X16826666Y-51555000D01*
X16360000Y-51555000D02*
X16626666Y-51821666D01*
G04 #@! TO.C,D2*
X33210714Y-16236904D02*
X32753571Y-16236904D01*
X32982142Y-16236904D02*
X32982142Y-15436904D01*
X32905952Y-15551190D01*
X32829761Y-15627380D01*
X32753571Y-15665476D01*
X33553571Y-16236904D02*
X33553571Y-15436904D01*
X34010714Y-16236904D01*
X34010714Y-15436904D01*
X34734523Y-15703571D02*
X34734523Y-16236904D01*
X34544047Y-15398809D02*
X34353571Y-15970238D01*
X34848809Y-15970238D01*
X35572619Y-16236904D02*
X35115476Y-16236904D01*
X35344047Y-16236904D02*
X35344047Y-15436904D01*
X35267857Y-15551190D01*
X35191666Y-15627380D01*
X35115476Y-15665476D01*
X36258333Y-15703571D02*
X36258333Y-16236904D01*
X36067857Y-15398809D02*
X35877380Y-15970238D01*
X36372619Y-15970238D01*
X36791666Y-15779761D02*
X36715476Y-15741666D01*
X36677380Y-15703571D01*
X36639285Y-15627380D01*
X36639285Y-15589285D01*
X36677380Y-15513095D01*
X36715476Y-15475000D01*
X36791666Y-15436904D01*
X36944047Y-15436904D01*
X37020238Y-15475000D01*
X37058333Y-15513095D01*
X37096428Y-15589285D01*
X37096428Y-15627380D01*
X37058333Y-15703571D01*
X37020238Y-15741666D01*
X36944047Y-15779761D01*
X36791666Y-15779761D01*
X36715476Y-15817857D01*
X36677380Y-15855952D01*
X36639285Y-15932142D01*
X36639285Y-16084523D01*
X36677380Y-16160714D01*
X36715476Y-16198809D01*
X36791666Y-16236904D01*
X36944047Y-16236904D01*
X37020238Y-16198809D01*
X37058333Y-16160714D01*
X37096428Y-16084523D01*
X37096428Y-15932142D01*
X37058333Y-15855952D01*
X37020238Y-15817857D01*
X36944047Y-15779761D01*
D10*
X31593095Y-18232380D02*
X31593095Y-17232380D01*
X32164523Y-18232380D02*
X31735952Y-17660952D01*
X32164523Y-17232380D02*
X31593095Y-17803809D01*
G04 #@! TO.C,R10*
D13*
X18731666Y-14053333D02*
X18731666Y-14453333D01*
X18731666Y-14253333D02*
X18031666Y-14253333D01*
X18131666Y-14320000D01*
X18198333Y-14386666D01*
X18231666Y-14453333D01*
X18731666Y-13753333D02*
X18031666Y-13753333D01*
X18465000Y-13686666D02*
X18731666Y-13486666D01*
X18265000Y-13486666D02*
X18531666Y-13753333D01*
G04 #@! TO.C,R9*
X20001666Y-14720000D02*
X20001666Y-15120000D01*
X20001666Y-14920000D02*
X19301666Y-14920000D01*
X19401666Y-14986666D01*
X19468333Y-15053333D01*
X19501666Y-15120000D01*
X19301666Y-14286666D02*
X19301666Y-14220000D01*
X19335000Y-14153333D01*
X19368333Y-14120000D01*
X19435000Y-14086666D01*
X19568333Y-14053333D01*
X19735000Y-14053333D01*
X19868333Y-14086666D01*
X19935000Y-14120000D01*
X19968333Y-14153333D01*
X20001666Y-14220000D01*
X20001666Y-14286666D01*
X19968333Y-14353333D01*
X19935000Y-14386666D01*
X19868333Y-14420000D01*
X19735000Y-14453333D01*
X19568333Y-14453333D01*
X19435000Y-14420000D01*
X19368333Y-14386666D01*
X19335000Y-14353333D01*
X19301666Y-14286666D01*
X19301666Y-13620000D02*
X19301666Y-13553333D01*
X19335000Y-13486666D01*
X19368333Y-13453333D01*
X19435000Y-13420000D01*
X19568333Y-13386666D01*
X19735000Y-13386666D01*
X19868333Y-13420000D01*
X19935000Y-13453333D01*
X19968333Y-13486666D01*
X20001666Y-13553333D01*
X20001666Y-13620000D01*
X19968333Y-13686666D01*
X19935000Y-13720000D01*
X19868333Y-13753333D01*
X19735000Y-13786666D01*
X19568333Y-13786666D01*
X19435000Y-13753333D01*
X19368333Y-13720000D01*
X19335000Y-13686666D01*
X19301666Y-13620000D01*
X20001666Y-13086666D02*
X19301666Y-13086666D01*
X19735000Y-13020000D02*
X20001666Y-12820000D01*
X19535000Y-12820000D02*
X19801666Y-13086666D01*
G04 #@! TO.C,R2*
D10*
X13533571Y-31567380D02*
X12962142Y-31567380D01*
X13247857Y-31567380D02*
X13247857Y-30567380D01*
X13152619Y-30710238D01*
X13057380Y-30805476D01*
X12962142Y-30853095D01*
X14152619Y-30567380D02*
X14247857Y-30567380D01*
X14343095Y-30615000D01*
X14390714Y-30662619D01*
X14438333Y-30757857D01*
X14485952Y-30948333D01*
X14485952Y-31186428D01*
X14438333Y-31376904D01*
X14390714Y-31472142D01*
X14343095Y-31519761D01*
X14247857Y-31567380D01*
X14152619Y-31567380D01*
X14057380Y-31519761D01*
X14009761Y-31472142D01*
X13962142Y-31376904D01*
X13914523Y-31186428D01*
X13914523Y-30948333D01*
X13962142Y-30757857D01*
X14009761Y-30662619D01*
X14057380Y-30615000D01*
X14152619Y-30567380D01*
X15105000Y-30567380D02*
X15200238Y-30567380D01*
X15295476Y-30615000D01*
X15343095Y-30662619D01*
X15390714Y-30757857D01*
X15438333Y-30948333D01*
X15438333Y-31186428D01*
X15390714Y-31376904D01*
X15343095Y-31472142D01*
X15295476Y-31519761D01*
X15200238Y-31567380D01*
X15105000Y-31567380D01*
X15009761Y-31519761D01*
X14962142Y-31472142D01*
X14914523Y-31376904D01*
X14866904Y-31186428D01*
X14866904Y-30948333D01*
X14914523Y-30757857D01*
X14962142Y-30662619D01*
X15009761Y-30615000D01*
X15105000Y-30567380D01*
X15866904Y-31567380D02*
X15866904Y-30567380D01*
X15962142Y-31186428D02*
X16247857Y-31567380D01*
X16247857Y-30900714D02*
X15866904Y-31281666D01*
G04 #@! TO.C,R6*
D13*
X16826666Y-14719999D02*
X16826666Y-15119999D01*
X16826666Y-14919999D02*
X16126666Y-14919999D01*
X16226666Y-14986666D01*
X16293333Y-15053333D01*
X16326666Y-15119999D01*
X16126666Y-14286666D02*
X16126666Y-14219999D01*
X16160000Y-14153333D01*
X16193333Y-14119999D01*
X16260000Y-14086666D01*
X16393333Y-14053333D01*
X16560000Y-14053333D01*
X16693333Y-14086666D01*
X16760000Y-14119999D01*
X16793333Y-14153333D01*
X16826666Y-14219999D01*
X16826666Y-14286666D01*
X16793333Y-14353333D01*
X16760000Y-14386666D01*
X16693333Y-14419999D01*
X16560000Y-14453333D01*
X16393333Y-14453333D01*
X16260000Y-14419999D01*
X16193333Y-14386666D01*
X16160000Y-14353333D01*
X16126666Y-14286666D01*
X16126666Y-13620000D02*
X16126666Y-13553333D01*
X16160000Y-13486666D01*
X16193333Y-13453333D01*
X16260000Y-13420000D01*
X16393333Y-13386666D01*
X16560000Y-13386666D01*
X16693333Y-13420000D01*
X16760000Y-13453333D01*
X16793333Y-13486666D01*
X16826666Y-13553333D01*
X16826666Y-13620000D01*
X16793333Y-13686666D01*
X16760000Y-13719999D01*
X16693333Y-13753333D01*
X16560000Y-13786666D01*
X16393333Y-13786666D01*
X16260000Y-13753333D01*
X16193333Y-13719999D01*
X16160000Y-13686666D01*
X16126666Y-13620000D01*
X16826666Y-13086666D02*
X16126666Y-13086666D01*
X16560000Y-13020000D02*
X16826666Y-12820000D01*
X16360000Y-12820000D02*
X16626666Y-13086666D01*
G04 #@! TO.C,R4*
X15556666Y-14719999D02*
X15556666Y-15119999D01*
X15556666Y-14919999D02*
X14856666Y-14919999D01*
X14956666Y-14986666D01*
X15023333Y-15053333D01*
X15056666Y-15119999D01*
X14856666Y-14286666D02*
X14856666Y-14219999D01*
X14890000Y-14153333D01*
X14923333Y-14119999D01*
X14990000Y-14086666D01*
X15123333Y-14053333D01*
X15290000Y-14053333D01*
X15423333Y-14086666D01*
X15490000Y-14119999D01*
X15523333Y-14153333D01*
X15556666Y-14219999D01*
X15556666Y-14286666D01*
X15523333Y-14353333D01*
X15490000Y-14386666D01*
X15423333Y-14419999D01*
X15290000Y-14453333D01*
X15123333Y-14453333D01*
X14990000Y-14419999D01*
X14923333Y-14386666D01*
X14890000Y-14353333D01*
X14856666Y-14286666D01*
X14856666Y-13619999D02*
X14856666Y-13553333D01*
X14890000Y-13486666D01*
X14923333Y-13453333D01*
X14990000Y-13419999D01*
X15123333Y-13386666D01*
X15290000Y-13386666D01*
X15423333Y-13419999D01*
X15490000Y-13453333D01*
X15523333Y-13486666D01*
X15556666Y-13553333D01*
X15556666Y-13619999D01*
X15523333Y-13686666D01*
X15490000Y-13719999D01*
X15423333Y-13753333D01*
X15290000Y-13786666D01*
X15123333Y-13786666D01*
X14990000Y-13753333D01*
X14923333Y-13719999D01*
X14890000Y-13686666D01*
X14856666Y-13619999D01*
X15556666Y-13086666D02*
X14856666Y-13086666D01*
X15290000Y-13019999D02*
X15556666Y-12819999D01*
X15090000Y-12819999D02*
X15356666Y-13086666D01*
G04 #@! TO.C,U4*
D10*
X25487380Y-9104047D02*
X25487380Y-8532619D01*
X26487380Y-8818333D02*
X25487380Y-8818333D01*
X26487380Y-7723095D02*
X26487380Y-8199285D01*
X25487380Y-8199285D01*
X25487380Y-7199285D02*
X25487380Y-7104047D01*
X25535000Y-7008809D01*
X25582619Y-6961190D01*
X25677857Y-6913571D01*
X25868333Y-6865952D01*
X26106428Y-6865952D01*
X26296904Y-6913571D01*
X26392142Y-6961190D01*
X26439761Y-7008809D01*
X26487380Y-7104047D01*
X26487380Y-7199285D01*
X26439761Y-7294523D01*
X26392142Y-7342142D01*
X26296904Y-7389761D01*
X26106428Y-7437380D01*
X25868333Y-7437380D01*
X25677857Y-7389761D01*
X25582619Y-7342142D01*
X25535000Y-7294523D01*
X25487380Y-7199285D01*
X25487380Y-6532619D02*
X25487380Y-5865952D01*
X26487380Y-6294523D01*
X26487380Y-4961190D02*
X26487380Y-5532619D01*
X26487380Y-5246904D02*
X25487380Y-5246904D01*
X25630238Y-5342142D01*
X25725476Y-5437380D01*
X25773095Y-5532619D01*
G04 #@! TO.C,U1*
X25487380Y-47839047D02*
X25487380Y-47267619D01*
X26487380Y-47553333D02*
X25487380Y-47553333D01*
X26487380Y-46458095D02*
X26487380Y-46934285D01*
X25487380Y-46934285D01*
X25487380Y-45934285D02*
X25487380Y-45839047D01*
X25535000Y-45743809D01*
X25582619Y-45696190D01*
X25677857Y-45648571D01*
X25868333Y-45600952D01*
X26106428Y-45600952D01*
X26296904Y-45648571D01*
X26392142Y-45696190D01*
X26439761Y-45743809D01*
X26487380Y-45839047D01*
X26487380Y-45934285D01*
X26439761Y-46029523D01*
X26392142Y-46077142D01*
X26296904Y-46124761D01*
X26106428Y-46172380D01*
X25868333Y-46172380D01*
X25677857Y-46124761D01*
X25582619Y-46077142D01*
X25535000Y-46029523D01*
X25487380Y-45934285D01*
X25487380Y-45267619D02*
X25487380Y-44600952D01*
X26487380Y-45029523D01*
X26487380Y-43696190D02*
X26487380Y-44267619D01*
X26487380Y-43981904D02*
X25487380Y-43981904D01*
X25630238Y-44077142D01*
X25725476Y-44172380D01*
X25773095Y-44267619D01*
G04 #@! TO.C,C10*
D13*
X17461666Y-23903333D02*
X17461666Y-24303333D01*
X17461666Y-24103333D02*
X16761666Y-24103333D01*
X16861666Y-24170000D01*
X16928333Y-24236666D01*
X16961666Y-24303333D01*
X16761666Y-23470000D02*
X16761666Y-23403333D01*
X16795000Y-23336666D01*
X16828333Y-23303333D01*
X16895000Y-23270000D01*
X17028333Y-23236666D01*
X17195000Y-23236666D01*
X17328333Y-23270000D01*
X17395000Y-23303333D01*
X17428333Y-23336666D01*
X17461666Y-23403333D01*
X17461666Y-23470000D01*
X17428333Y-23536666D01*
X17395000Y-23570000D01*
X17328333Y-23603333D01*
X17195000Y-23636666D01*
X17028333Y-23636666D01*
X16895000Y-23603333D01*
X16828333Y-23570000D01*
X16795000Y-23536666D01*
X16761666Y-23470000D01*
X16761666Y-22803333D02*
X16761666Y-22736666D01*
X16795000Y-22670000D01*
X16828333Y-22636666D01*
X16895000Y-22603333D01*
X17028333Y-22570000D01*
X17195000Y-22570000D01*
X17328333Y-22603333D01*
X17395000Y-22636666D01*
X17428333Y-22670000D01*
X17461666Y-22736666D01*
X17461666Y-22803333D01*
X17428333Y-22870000D01*
X17395000Y-22903333D01*
X17328333Y-22936666D01*
X17195000Y-22970000D01*
X17028333Y-22970000D01*
X16895000Y-22936666D01*
X16828333Y-22903333D01*
X16795000Y-22870000D01*
X16761666Y-22803333D01*
X16995000Y-22270000D02*
X17461666Y-22270000D01*
X17061666Y-22270000D02*
X17028333Y-22236666D01*
X16995000Y-22170000D01*
X16995000Y-22070000D01*
X17028333Y-22003333D01*
X17095000Y-21970000D01*
X17461666Y-21970000D01*
X17095000Y-21403333D02*
X17095000Y-21636666D01*
X17461666Y-21636666D02*
X16761666Y-21636666D01*
X16761666Y-21303333D01*
G04 #@! TO.C,C9*
X24951666Y-14286666D02*
X24551666Y-14286666D01*
X24751666Y-14286666D02*
X24751666Y-13586666D01*
X24685000Y-13686666D01*
X24618333Y-13753333D01*
X24551666Y-13786666D01*
X25385000Y-13586666D02*
X25451666Y-13586666D01*
X25518333Y-13620000D01*
X25551666Y-13653333D01*
X25585000Y-13720000D01*
X25618333Y-13853333D01*
X25618333Y-14020000D01*
X25585000Y-14153333D01*
X25551666Y-14220000D01*
X25518333Y-14253333D01*
X25451666Y-14286666D01*
X25385000Y-14286666D01*
X25318333Y-14253333D01*
X25285000Y-14220000D01*
X25251666Y-14153333D01*
X25218333Y-14020000D01*
X25218333Y-13853333D01*
X25251666Y-13720000D01*
X25285000Y-13653333D01*
X25318333Y-13620000D01*
X25385000Y-13586666D01*
X26051666Y-13586666D02*
X26118333Y-13586666D01*
X26185000Y-13620000D01*
X26218333Y-13653333D01*
X26251666Y-13720000D01*
X26285000Y-13853333D01*
X26285000Y-14020000D01*
X26251666Y-14153333D01*
X26218333Y-14220000D01*
X26185000Y-14253333D01*
X26118333Y-14286666D01*
X26051666Y-14286666D01*
X25985000Y-14253333D01*
X25951666Y-14220000D01*
X25918333Y-14153333D01*
X25885000Y-14020000D01*
X25885000Y-13853333D01*
X25918333Y-13720000D01*
X25951666Y-13653333D01*
X25985000Y-13620000D01*
X26051666Y-13586666D01*
X26585000Y-13820000D02*
X26585000Y-14286666D01*
X26585000Y-13886666D02*
X26618333Y-13853333D01*
X26685000Y-13820000D01*
X26785000Y-13820000D01*
X26851666Y-13853333D01*
X26885000Y-13920000D01*
X26885000Y-14286666D01*
X27451666Y-13920000D02*
X27218333Y-13920000D01*
X27218333Y-14286666D02*
X27218333Y-13586666D01*
X27551666Y-13586666D01*
G04 #@! TO.C,C8*
X17461666Y-62678333D02*
X17461666Y-63078333D01*
X17461666Y-62878333D02*
X16761666Y-62878333D01*
X16861666Y-62945000D01*
X16928333Y-63011666D01*
X16961666Y-63078333D01*
X16761666Y-62245000D02*
X16761666Y-62178333D01*
X16795000Y-62111666D01*
X16828333Y-62078333D01*
X16895000Y-62045000D01*
X17028333Y-62011666D01*
X17195000Y-62011666D01*
X17328333Y-62045000D01*
X17395000Y-62078333D01*
X17428333Y-62111666D01*
X17461666Y-62178333D01*
X17461666Y-62245000D01*
X17428333Y-62311666D01*
X17395000Y-62345000D01*
X17328333Y-62378333D01*
X17195000Y-62411666D01*
X17028333Y-62411666D01*
X16895000Y-62378333D01*
X16828333Y-62345000D01*
X16795000Y-62311666D01*
X16761666Y-62245000D01*
X16761666Y-61578333D02*
X16761666Y-61511666D01*
X16795000Y-61445000D01*
X16828333Y-61411666D01*
X16895000Y-61378333D01*
X17028333Y-61345000D01*
X17195000Y-61345000D01*
X17328333Y-61378333D01*
X17395000Y-61411666D01*
X17428333Y-61445000D01*
X17461666Y-61511666D01*
X17461666Y-61578333D01*
X17428333Y-61645000D01*
X17395000Y-61678333D01*
X17328333Y-61711666D01*
X17195000Y-61745000D01*
X17028333Y-61745000D01*
X16895000Y-61711666D01*
X16828333Y-61678333D01*
X16795000Y-61645000D01*
X16761666Y-61578333D01*
X16995000Y-61045000D02*
X17461666Y-61045000D01*
X17061666Y-61045000D02*
X17028333Y-61011666D01*
X16995000Y-60945000D01*
X16995000Y-60845000D01*
X17028333Y-60778333D01*
X17095000Y-60745000D01*
X17461666Y-60745000D01*
X17095000Y-60178333D02*
X17095000Y-60411666D01*
X17461666Y-60411666D02*
X16761666Y-60411666D01*
X16761666Y-60078333D01*
G04 #@! TO.C,U3*
D10*
X24582380Y-23137619D02*
X24582380Y-23613809D01*
X23582380Y-23613809D01*
X24058571Y-22470952D02*
X24058571Y-22804285D01*
X24582380Y-22804285D02*
X23582380Y-22804285D01*
X23582380Y-22328095D01*
X23582380Y-22042380D02*
X23582380Y-21423333D01*
X23963333Y-21756666D01*
X23963333Y-21613809D01*
X24010952Y-21518571D01*
X24058571Y-21470952D01*
X24153809Y-21423333D01*
X24391904Y-21423333D01*
X24487142Y-21470952D01*
X24534761Y-21518571D01*
X24582380Y-21613809D01*
X24582380Y-21899523D01*
X24534761Y-21994761D01*
X24487142Y-22042380D01*
X24582380Y-20947142D02*
X24582380Y-20756666D01*
X24534761Y-20661428D01*
X24487142Y-20613809D01*
X24344285Y-20518571D01*
X24153809Y-20470952D01*
X23772857Y-20470952D01*
X23677619Y-20518571D01*
X23630000Y-20566190D01*
X23582380Y-20661428D01*
X23582380Y-20851904D01*
X23630000Y-20947142D01*
X23677619Y-20994761D01*
X23772857Y-21042380D01*
X24010952Y-21042380D01*
X24106190Y-20994761D01*
X24153809Y-20947142D01*
X24201428Y-20851904D01*
X24201428Y-20661428D01*
X24153809Y-20566190D01*
X24106190Y-20518571D01*
X24010952Y-20470952D01*
X24010952Y-19899523D02*
X23963333Y-19994761D01*
X23915714Y-20042380D01*
X23820476Y-20090000D01*
X23772857Y-20090000D01*
X23677619Y-20042380D01*
X23630000Y-19994761D01*
X23582380Y-19899523D01*
X23582380Y-19709047D01*
X23630000Y-19613809D01*
X23677619Y-19566190D01*
X23772857Y-19518571D01*
X23820476Y-19518571D01*
X23915714Y-19566190D01*
X23963333Y-19613809D01*
X24010952Y-19709047D01*
X24010952Y-19899523D01*
X24058571Y-19994761D01*
X24106190Y-20042380D01*
X24201428Y-20090000D01*
X24391904Y-20090000D01*
X24487142Y-20042380D01*
X24534761Y-19994761D01*
X24582380Y-19899523D01*
X24582380Y-19709047D01*
X24534761Y-19613809D01*
X24487142Y-19566190D01*
X24391904Y-19518571D01*
X24201428Y-19518571D01*
X24106190Y-19566190D01*
X24058571Y-19613809D01*
X24010952Y-19709047D01*
G04 #@! TO.C,U2*
X24582380Y-61872619D02*
X24582380Y-62348809D01*
X23582380Y-62348809D01*
X24058571Y-61205952D02*
X24058571Y-61539285D01*
X24582380Y-61539285D02*
X23582380Y-61539285D01*
X23582380Y-61063095D01*
X23582380Y-60777380D02*
X23582380Y-60158333D01*
X23963333Y-60491666D01*
X23963333Y-60348809D01*
X24010952Y-60253571D01*
X24058571Y-60205952D01*
X24153809Y-60158333D01*
X24391904Y-60158333D01*
X24487142Y-60205952D01*
X24534761Y-60253571D01*
X24582380Y-60348809D01*
X24582380Y-60634523D01*
X24534761Y-60729761D01*
X24487142Y-60777380D01*
X24582380Y-59682142D02*
X24582380Y-59491666D01*
X24534761Y-59396428D01*
X24487142Y-59348809D01*
X24344285Y-59253571D01*
X24153809Y-59205952D01*
X23772857Y-59205952D01*
X23677619Y-59253571D01*
X23630000Y-59301190D01*
X23582380Y-59396428D01*
X23582380Y-59586904D01*
X23630000Y-59682142D01*
X23677619Y-59729761D01*
X23772857Y-59777380D01*
X24010952Y-59777380D01*
X24106190Y-59729761D01*
X24153809Y-59682142D01*
X24201428Y-59586904D01*
X24201428Y-59396428D01*
X24153809Y-59301190D01*
X24106190Y-59253571D01*
X24010952Y-59205952D01*
X24010952Y-58634523D02*
X23963333Y-58729761D01*
X23915714Y-58777380D01*
X23820476Y-58825000D01*
X23772857Y-58825000D01*
X23677619Y-58777380D01*
X23630000Y-58729761D01*
X23582380Y-58634523D01*
X23582380Y-58444047D01*
X23630000Y-58348809D01*
X23677619Y-58301190D01*
X23772857Y-58253571D01*
X23820476Y-58253571D01*
X23915714Y-58301190D01*
X23963333Y-58348809D01*
X24010952Y-58444047D01*
X24010952Y-58634523D01*
X24058571Y-58729761D01*
X24106190Y-58777380D01*
X24201428Y-58825000D01*
X24391904Y-58825000D01*
X24487142Y-58777380D01*
X24534761Y-58729761D01*
X24582380Y-58634523D01*
X24582380Y-58444047D01*
X24534761Y-58348809D01*
X24487142Y-58301190D01*
X24391904Y-58253571D01*
X24201428Y-58253571D01*
X24106190Y-58301190D01*
X24058571Y-58348809D01*
X24010952Y-58444047D01*
G04 #@! TO.C,R14*
X24010952Y-29662380D02*
X23439523Y-29662380D01*
X23725238Y-29662380D02*
X23725238Y-28662380D01*
X23630000Y-28805238D01*
X23534761Y-28900476D01*
X23439523Y-28948095D01*
X24439523Y-29662380D02*
X24439523Y-28662380D01*
X24534761Y-29281428D02*
X24820476Y-29662380D01*
X24820476Y-28995714D02*
X24439523Y-29376666D01*
G04 #@! TO.C,R13*
X24010952Y-68397380D02*
X23439523Y-68397380D01*
X23725238Y-68397380D02*
X23725238Y-67397380D01*
X23630000Y-67540238D01*
X23534761Y-67635476D01*
X23439523Y-67683095D01*
X24439523Y-68397380D02*
X24439523Y-67397380D01*
X24534761Y-68016428D02*
X24820476Y-68397380D01*
X24820476Y-67730714D02*
X24439523Y-68111666D01*
G04 #@! TO.C,R12*
X36647380Y-10596428D02*
X36647380Y-11167857D01*
X36647380Y-10882142D02*
X35647380Y-10882142D01*
X35790238Y-10977380D01*
X35885476Y-11072619D01*
X35933095Y-11167857D01*
X35647380Y-9977380D02*
X35647380Y-9882142D01*
X35695000Y-9786904D01*
X35742619Y-9739285D01*
X35837857Y-9691666D01*
X36028333Y-9644047D01*
X36266428Y-9644047D01*
X36456904Y-9691666D01*
X36552142Y-9739285D01*
X36599761Y-9786904D01*
X36647380Y-9882142D01*
X36647380Y-9977380D01*
X36599761Y-10072619D01*
X36552142Y-10120238D01*
X36456904Y-10167857D01*
X36266428Y-10215476D01*
X36028333Y-10215476D01*
X35837857Y-10167857D01*
X35742619Y-10120238D01*
X35695000Y-10072619D01*
X35647380Y-9977380D01*
X35647380Y-9025000D02*
X35647380Y-8929761D01*
X35695000Y-8834523D01*
X35742619Y-8786904D01*
X35837857Y-8739285D01*
X36028333Y-8691666D01*
X36266428Y-8691666D01*
X36456904Y-8739285D01*
X36552142Y-8786904D01*
X36599761Y-8834523D01*
X36647380Y-8929761D01*
X36647380Y-9025000D01*
X36599761Y-9120238D01*
X36552142Y-9167857D01*
X36456904Y-9215476D01*
X36266428Y-9263095D01*
X36028333Y-9263095D01*
X35837857Y-9215476D01*
X35742619Y-9167857D01*
X35695000Y-9120238D01*
X35647380Y-9025000D01*
X36647380Y-8263095D02*
X35647380Y-8263095D01*
X36266428Y-8167857D02*
X36647380Y-7882142D01*
X35980714Y-7882142D02*
X36361666Y-8263095D01*
G04 #@! TO.C,R11*
X36647380Y-49331428D02*
X36647380Y-49902857D01*
X36647380Y-49617142D02*
X35647380Y-49617142D01*
X35790238Y-49712380D01*
X35885476Y-49807619D01*
X35933095Y-49902857D01*
X35647380Y-48712380D02*
X35647380Y-48617142D01*
X35695000Y-48521904D01*
X35742619Y-48474285D01*
X35837857Y-48426666D01*
X36028333Y-48379047D01*
X36266428Y-48379047D01*
X36456904Y-48426666D01*
X36552142Y-48474285D01*
X36599761Y-48521904D01*
X36647380Y-48617142D01*
X36647380Y-48712380D01*
X36599761Y-48807619D01*
X36552142Y-48855238D01*
X36456904Y-48902857D01*
X36266428Y-48950476D01*
X36028333Y-48950476D01*
X35837857Y-48902857D01*
X35742619Y-48855238D01*
X35695000Y-48807619D01*
X35647380Y-48712380D01*
X35647380Y-47760000D02*
X35647380Y-47664761D01*
X35695000Y-47569523D01*
X35742619Y-47521904D01*
X35837857Y-47474285D01*
X36028333Y-47426666D01*
X36266428Y-47426666D01*
X36456904Y-47474285D01*
X36552142Y-47521904D01*
X36599761Y-47569523D01*
X36647380Y-47664761D01*
X36647380Y-47760000D01*
X36599761Y-47855238D01*
X36552142Y-47902857D01*
X36456904Y-47950476D01*
X36266428Y-47998095D01*
X36028333Y-47998095D01*
X35837857Y-47950476D01*
X35742619Y-47902857D01*
X35695000Y-47855238D01*
X35647380Y-47760000D01*
X36647380Y-46998095D02*
X35647380Y-46998095D01*
X36266428Y-46902857D02*
X36647380Y-46617142D01*
X35980714Y-46617142D02*
X36361666Y-46998095D01*
G04 #@! TO.C,J5*
X24693809Y-76017380D02*
X24693809Y-75017380D01*
X25074761Y-75017380D01*
X25169999Y-75065000D01*
X25217619Y-75112619D01*
X25265238Y-75207857D01*
X25265238Y-75350714D01*
X25217619Y-75445952D01*
X25169999Y-75493571D01*
X25074761Y-75541190D01*
X24693809Y-75541190D01*
X25836666Y-76017380D02*
X25741428Y-75969761D01*
X25693809Y-75922142D01*
X25646190Y-75826904D01*
X25646190Y-75541190D01*
X25693809Y-75445952D01*
X25741428Y-75398333D01*
X25836666Y-75350714D01*
X25979523Y-75350714D01*
X26074761Y-75398333D01*
X26122380Y-75445952D01*
X26169999Y-75541190D01*
X26169999Y-75826904D01*
X26122380Y-75922142D01*
X26074761Y-75969761D01*
X25979523Y-76017380D01*
X25836666Y-76017380D01*
X26503333Y-75350714D02*
X26693809Y-76017380D01*
X26884285Y-75541190D01*
X27074761Y-76017380D01*
X27265238Y-75350714D01*
X28027142Y-75969761D02*
X27931904Y-76017380D01*
X27741428Y-76017380D01*
X27646190Y-75969761D01*
X27598571Y-75874523D01*
X27598571Y-75493571D01*
X27646190Y-75398333D01*
X27741428Y-75350714D01*
X27931904Y-75350714D01*
X28027142Y-75398333D01*
X28074761Y-75493571D01*
X28074761Y-75588809D01*
X27598571Y-75684047D01*
X28503333Y-76017380D02*
X28503333Y-75350714D01*
X28503333Y-75541190D02*
X28550952Y-75445952D01*
X28598571Y-75398333D01*
X28693809Y-75350714D01*
X28789047Y-75350714D01*
G04 #@! TO.C,C7*
D13*
X32905000Y-23176666D02*
X32505000Y-23176666D01*
X32705000Y-23176666D02*
X32705000Y-22476666D01*
X32638333Y-22576666D01*
X32571666Y-22643333D01*
X32505000Y-22676666D01*
X33338333Y-22476666D02*
X33405000Y-22476666D01*
X33471666Y-22510000D01*
X33505000Y-22543333D01*
X33538333Y-22610000D01*
X33571666Y-22743333D01*
X33571666Y-22910000D01*
X33538333Y-23043333D01*
X33505000Y-23110000D01*
X33471666Y-23143333D01*
X33405000Y-23176666D01*
X33338333Y-23176666D01*
X33271666Y-23143333D01*
X33238333Y-23110000D01*
X33205000Y-23043333D01*
X33171666Y-22910000D01*
X33171666Y-22743333D01*
X33205000Y-22610000D01*
X33238333Y-22543333D01*
X33271666Y-22510000D01*
X33338333Y-22476666D01*
X33871666Y-22710000D02*
X33871666Y-23176666D01*
X33871666Y-22776666D02*
X33905000Y-22743333D01*
X33971666Y-22710000D01*
X34071666Y-22710000D01*
X34138333Y-22743333D01*
X34171666Y-22810000D01*
X34171666Y-23176666D01*
X34738333Y-22810000D02*
X34505000Y-22810000D01*
X34505000Y-23176666D02*
X34505000Y-22476666D01*
X34838333Y-22476666D01*
G04 #@! TO.C,C6*
X32865000Y-61911666D02*
X32465000Y-61911666D01*
X32665000Y-61911666D02*
X32665000Y-61211666D01*
X32598333Y-61311666D01*
X32531666Y-61378333D01*
X32465000Y-61411666D01*
X33298333Y-61211666D02*
X33365000Y-61211666D01*
X33431666Y-61245000D01*
X33465000Y-61278333D01*
X33498333Y-61345000D01*
X33531666Y-61478333D01*
X33531666Y-61645000D01*
X33498333Y-61778333D01*
X33465000Y-61845000D01*
X33431666Y-61878333D01*
X33365000Y-61911666D01*
X33298333Y-61911666D01*
X33231666Y-61878333D01*
X33198333Y-61845000D01*
X33165000Y-61778333D01*
X33131666Y-61645000D01*
X33131666Y-61478333D01*
X33165000Y-61345000D01*
X33198333Y-61278333D01*
X33231666Y-61245000D01*
X33298333Y-61211666D01*
X33831666Y-61445000D02*
X33831666Y-61911666D01*
X33831666Y-61511666D02*
X33865000Y-61478333D01*
X33931666Y-61445000D01*
X34031666Y-61445000D01*
X34098333Y-61478333D01*
X34131666Y-61545000D01*
X34131666Y-61911666D01*
X34698333Y-61545000D02*
X34465000Y-61545000D01*
X34465000Y-61911666D02*
X34465000Y-61211666D01*
X34798333Y-61211666D01*
G04 #@! TO.C,C5*
D10*
X18605714Y-80827619D02*
X18653333Y-80780000D01*
X18748571Y-80732380D01*
X18986666Y-80732380D01*
X19081904Y-80780000D01*
X19129523Y-80827619D01*
X19177142Y-80922857D01*
X19177142Y-81018095D01*
X19129523Y-81160952D01*
X18558095Y-81732380D01*
X19177142Y-81732380D01*
X19558095Y-80827619D02*
X19605714Y-80780000D01*
X19700952Y-80732380D01*
X19939047Y-80732380D01*
X20034285Y-80780000D01*
X20081904Y-80827619D01*
X20129523Y-80922857D01*
X20129523Y-81018095D01*
X20081904Y-81160952D01*
X19510476Y-81732380D01*
X20129523Y-81732380D01*
X20558095Y-81065714D02*
X20558095Y-82065714D01*
X21034285Y-81589523D02*
X21081904Y-81684761D01*
X21177142Y-81732380D01*
X20558095Y-81589523D02*
X20605714Y-81684761D01*
X20700952Y-81732380D01*
X20891428Y-81732380D01*
X20986666Y-81684761D01*
X21034285Y-81589523D01*
X21034285Y-81065714D01*
X21939047Y-81208571D02*
X21605714Y-81208571D01*
X21605714Y-81732380D02*
X21605714Y-80732380D01*
X22081904Y-80732380D01*
G04 #@! TO.C,C4*
X18605714Y-93527619D02*
X18653333Y-93480000D01*
X18748571Y-93432380D01*
X18986666Y-93432380D01*
X19081904Y-93480000D01*
X19129523Y-93527619D01*
X19177142Y-93622857D01*
X19177142Y-93718095D01*
X19129523Y-93860952D01*
X18558095Y-94432380D01*
X19177142Y-94432380D01*
X19558095Y-93527619D02*
X19605714Y-93480000D01*
X19700952Y-93432380D01*
X19939047Y-93432380D01*
X20034285Y-93480000D01*
X20081904Y-93527619D01*
X20129523Y-93622857D01*
X20129523Y-93718095D01*
X20081904Y-93860952D01*
X19510476Y-94432380D01*
X20129523Y-94432380D01*
X20558095Y-93765714D02*
X20558095Y-94765714D01*
X21034285Y-94289523D02*
X21081904Y-94384761D01*
X21177142Y-94432380D01*
X20558095Y-94289523D02*
X20605714Y-94384761D01*
X20700952Y-94432380D01*
X20891428Y-94432380D01*
X20986666Y-94384761D01*
X21034285Y-94289523D01*
X21034285Y-93765714D01*
X21939047Y-93908571D02*
X21605714Y-93908571D01*
X21605714Y-94432380D02*
X21605714Y-93432380D01*
X22081904Y-93432380D01*
G04 #@! TO.C,C3*
D13*
X24951666Y-53021666D02*
X24551666Y-53021666D01*
X24751666Y-53021666D02*
X24751666Y-52321666D01*
X24685000Y-52421666D01*
X24618333Y-52488333D01*
X24551666Y-52521666D01*
X25385000Y-52321666D02*
X25451666Y-52321666D01*
X25518333Y-52355000D01*
X25551666Y-52388333D01*
X25585000Y-52455000D01*
X25618333Y-52588333D01*
X25618333Y-52755000D01*
X25585000Y-52888333D01*
X25551666Y-52955000D01*
X25518333Y-52988333D01*
X25451666Y-53021666D01*
X25385000Y-53021666D01*
X25318333Y-52988333D01*
X25285000Y-52955000D01*
X25251666Y-52888333D01*
X25218333Y-52755000D01*
X25218333Y-52588333D01*
X25251666Y-52455000D01*
X25285000Y-52388333D01*
X25318333Y-52355000D01*
X25385000Y-52321666D01*
X26051666Y-52321666D02*
X26118333Y-52321666D01*
X26185000Y-52355000D01*
X26218333Y-52388333D01*
X26251666Y-52455000D01*
X26285000Y-52588333D01*
X26285000Y-52755000D01*
X26251666Y-52888333D01*
X26218333Y-52955000D01*
X26185000Y-52988333D01*
X26118333Y-53021666D01*
X26051666Y-53021666D01*
X25985000Y-52988333D01*
X25951666Y-52955000D01*
X25918333Y-52888333D01*
X25885000Y-52755000D01*
X25885000Y-52588333D01*
X25918333Y-52455000D01*
X25951666Y-52388333D01*
X25985000Y-52355000D01*
X26051666Y-52321666D01*
X26585000Y-52555000D02*
X26585000Y-53021666D01*
X26585000Y-52621666D02*
X26618333Y-52588333D01*
X26685000Y-52555000D01*
X26785000Y-52555000D01*
X26851666Y-52588333D01*
X26885000Y-52655000D01*
X26885000Y-53021666D01*
X27451666Y-52655000D02*
X27218333Y-52655000D01*
X27218333Y-53021666D02*
X27218333Y-52321666D01*
X27551666Y-52321666D01*
G04 #@! TO.C,C2*
X33336666Y-11211666D02*
X33336666Y-11611666D01*
X33336666Y-11411666D02*
X32636666Y-11411666D01*
X32736666Y-11478333D01*
X32803333Y-11545000D01*
X32836666Y-11611666D01*
X32870000Y-10911666D02*
X33336666Y-10911666D01*
X32936666Y-10911666D02*
X32903333Y-10878333D01*
X32870000Y-10811666D01*
X32870000Y-10711666D01*
X32903333Y-10645000D01*
X32970000Y-10611666D01*
X33336666Y-10611666D01*
X32970000Y-10045000D02*
X32970000Y-10278333D01*
X33336666Y-10278333D02*
X32636666Y-10278333D01*
X32636666Y-9945000D01*
G04 #@! TO.C,C1*
X33336666Y-49986666D02*
X33336666Y-50386666D01*
X33336666Y-50186666D02*
X32636666Y-50186666D01*
X32736666Y-50253333D01*
X32803333Y-50320000D01*
X32836666Y-50386666D01*
X32870000Y-49686666D02*
X33336666Y-49686666D01*
X32936666Y-49686666D02*
X32903333Y-49653333D01*
X32870000Y-49586666D01*
X32870000Y-49486666D01*
X32903333Y-49420000D01*
X32970000Y-49386666D01*
X33336666Y-49386666D01*
X32970000Y-48820000D02*
X32970000Y-49053333D01*
X33336666Y-49053333D02*
X32636666Y-49053333D01*
X32636666Y-48720000D01*
G04 #@! TD*
D14*
X29083000Y-79883000D02*
X23622000Y-79883000D01*
X23622000Y-77597000D01*
X29083000Y-77597000D01*
X29083000Y-79883000D01*
D13*
G36*
X29083000Y-79883000D02*
G01*
X23622000Y-79883000D01*
X23622000Y-77597000D01*
X29083000Y-77597000D01*
X29083000Y-79883000D01*
G37*
M02*
