G04 #@! TF.GenerationSoftware,KiCad,Pcbnew,(5.1.10)-1*
G04 #@! TF.CreationDate,2022-12-08T17:23:54+01:00*
G04 #@! TF.ProjectId,S&H Main,53264820-4d61-4696-9e2e-6b696361645f,rev?*
G04 #@! TF.SameCoordinates,Original*
G04 #@! TF.FileFunction,Legend,Top*
G04 #@! TF.FilePolarity,Positive*
%FSLAX46Y46*%
G04 Gerber Fmt 4.6, Leading zero omitted, Abs format (unit mm)*
G04 Created by KiCad (PCBNEW (5.1.10)-1) date 2022-12-08 17:23:54*
%MOMM*%
%LPD*%
G01*
G04 APERTURE LIST*
%ADD10C,0.080000*%
%ADD11C,0.150000*%
%ADD12C,0.010000*%
%ADD13C,0.100000*%
%ADD14C,0.120000*%
G04 APERTURE END LIST*
D10*
X1053666Y-99946666D02*
X1053666Y-100446666D01*
X1020333Y-100546666D01*
X953666Y-100613333D01*
X853666Y-100646666D01*
X787000Y-100646666D01*
X1720333Y-100646666D02*
X1387000Y-100646666D01*
X1387000Y-99946666D01*
X2353666Y-100580000D02*
X2320333Y-100613333D01*
X2220333Y-100646666D01*
X2153666Y-100646666D01*
X2053666Y-100613333D01*
X1987000Y-100546666D01*
X1953666Y-100480000D01*
X1920333Y-100346666D01*
X1920333Y-100246666D01*
X1953666Y-100113333D01*
X1987000Y-100046666D01*
X2053666Y-99980000D01*
X2153666Y-99946666D01*
X2220333Y-99946666D01*
X2320333Y-99980000D01*
X2353666Y-100013333D01*
X2853666Y-99946666D02*
X2853666Y-100446666D01*
X2820333Y-100546666D01*
X2753666Y-100613333D01*
X2653666Y-100646666D01*
X2587000Y-100646666D01*
X3520333Y-100646666D02*
X3186999Y-100646666D01*
X3186999Y-99946666D01*
X4153666Y-100580000D02*
X4120333Y-100613333D01*
X4020333Y-100646666D01*
X3953666Y-100646666D01*
X3853666Y-100613333D01*
X3786999Y-100546666D01*
X3753666Y-100480000D01*
X3720333Y-100346666D01*
X3720333Y-100246666D01*
X3753666Y-100113333D01*
X3786999Y-100046666D01*
X3853666Y-99980000D01*
X3953666Y-99946666D01*
X4020333Y-99946666D01*
X4120333Y-99980000D01*
X4153666Y-100013333D01*
X4653666Y-99946666D02*
X4653666Y-100446666D01*
X4620333Y-100546666D01*
X4553666Y-100613333D01*
X4453666Y-100646666D01*
X4387000Y-100646666D01*
X5320333Y-100646666D02*
X4987000Y-100646666D01*
X4987000Y-99946666D01*
X5953666Y-100580000D02*
X5920333Y-100613333D01*
X5820333Y-100646666D01*
X5753666Y-100646666D01*
X5653666Y-100613333D01*
X5587000Y-100546666D01*
X5553666Y-100480000D01*
X5520333Y-100346666D01*
X5520333Y-100246666D01*
X5553666Y-100113333D01*
X5587000Y-100046666D01*
X5653666Y-99980000D01*
X5753666Y-99946666D01*
X5820333Y-99946666D01*
X5920333Y-99980000D01*
X5953666Y-100013333D01*
X6453666Y-99946666D02*
X6453666Y-100446666D01*
X6420333Y-100546666D01*
X6353666Y-100613333D01*
X6253666Y-100646666D01*
X6187000Y-100646666D01*
X7120333Y-100646666D02*
X6787000Y-100646666D01*
X6787000Y-99946666D01*
X7753666Y-100580000D02*
X7720333Y-100613333D01*
X7620333Y-100646666D01*
X7553666Y-100646666D01*
X7453666Y-100613333D01*
X7387000Y-100546666D01*
X7353666Y-100480000D01*
X7320333Y-100346666D01*
X7320333Y-100246666D01*
X7353666Y-100113333D01*
X7387000Y-100046666D01*
X7453666Y-99980000D01*
X7553666Y-99946666D01*
X7620333Y-99946666D01*
X7720333Y-99980000D01*
X7753666Y-100013333D01*
D11*
X18067976Y-35139761D02*
X18210833Y-35187380D01*
X18448928Y-35187380D01*
X18544166Y-35139761D01*
X18591785Y-35092142D01*
X18639404Y-34996904D01*
X18639404Y-34901666D01*
X18591785Y-34806428D01*
X18544166Y-34758809D01*
X18448928Y-34711190D01*
X18258452Y-34663571D01*
X18163214Y-34615952D01*
X18115595Y-34568333D01*
X18067976Y-34473095D01*
X18067976Y-34377857D01*
X18115595Y-34282619D01*
X18163214Y-34235000D01*
X18258452Y-34187380D01*
X18496547Y-34187380D01*
X18639404Y-34235000D01*
X19496547Y-35187380D02*
X19496547Y-34663571D01*
X19448928Y-34568333D01*
X19353690Y-34520714D01*
X19163214Y-34520714D01*
X19067976Y-34568333D01*
X19496547Y-35139761D02*
X19401309Y-35187380D01*
X19163214Y-35187380D01*
X19067976Y-35139761D01*
X19020357Y-35044523D01*
X19020357Y-34949285D01*
X19067976Y-34854047D01*
X19163214Y-34806428D01*
X19401309Y-34806428D01*
X19496547Y-34758809D01*
X19972738Y-35187380D02*
X19972738Y-34520714D01*
X19972738Y-34615952D02*
X20020357Y-34568333D01*
X20115595Y-34520714D01*
X20258452Y-34520714D01*
X20353690Y-34568333D01*
X20401309Y-34663571D01*
X20401309Y-35187380D01*
X20401309Y-34663571D02*
X20448928Y-34568333D01*
X20544166Y-34520714D01*
X20687023Y-34520714D01*
X20782261Y-34568333D01*
X20829880Y-34663571D01*
X20829880Y-35187380D01*
X21306071Y-34520714D02*
X21306071Y-35520714D01*
X21306071Y-34568333D02*
X21401309Y-34520714D01*
X21591785Y-34520714D01*
X21687023Y-34568333D01*
X21734642Y-34615952D01*
X21782261Y-34711190D01*
X21782261Y-34996904D01*
X21734642Y-35092142D01*
X21687023Y-35139761D01*
X21591785Y-35187380D01*
X21401309Y-35187380D01*
X21306071Y-35139761D01*
X22353690Y-35187380D02*
X22258452Y-35139761D01*
X22210833Y-35044523D01*
X22210833Y-34187380D01*
X23115595Y-35139761D02*
X23020357Y-35187380D01*
X22829880Y-35187380D01*
X22734642Y-35139761D01*
X22687023Y-35044523D01*
X22687023Y-34663571D01*
X22734642Y-34568333D01*
X22829880Y-34520714D01*
X23020357Y-34520714D01*
X23115595Y-34568333D01*
X23163214Y-34663571D01*
X23163214Y-34758809D01*
X22687023Y-34854047D01*
X24401309Y-35187380D02*
X24353690Y-35187380D01*
X24258452Y-35139761D01*
X24115595Y-34996904D01*
X23877500Y-34711190D01*
X23782261Y-34568333D01*
X23734642Y-34425476D01*
X23734642Y-34330238D01*
X23782261Y-34235000D01*
X23877500Y-34187380D01*
X23925119Y-34187380D01*
X24020357Y-34235000D01*
X24067976Y-34330238D01*
X24067976Y-34377857D01*
X24020357Y-34473095D01*
X23972738Y-34520714D01*
X23687023Y-34711190D01*
X23639404Y-34758809D01*
X23591785Y-34854047D01*
X23591785Y-34996904D01*
X23639404Y-35092142D01*
X23687023Y-35139761D01*
X23782261Y-35187380D01*
X23925119Y-35187380D01*
X24020357Y-35139761D01*
X24067976Y-35092142D01*
X24210833Y-34901666D01*
X24258452Y-34758809D01*
X24258452Y-34663571D01*
X24829880Y-35187380D02*
X24829880Y-34187380D01*
X24829880Y-34663571D02*
X25401309Y-34663571D01*
X25401309Y-35187380D02*
X25401309Y-34187380D01*
X26020357Y-35187380D02*
X25925119Y-35139761D01*
X25877500Y-35092142D01*
X25829880Y-34996904D01*
X25829880Y-34711190D01*
X25877500Y-34615952D01*
X25925119Y-34568333D01*
X26020357Y-34520714D01*
X26163214Y-34520714D01*
X26258452Y-34568333D01*
X26306071Y-34615952D01*
X26353690Y-34711190D01*
X26353690Y-34996904D01*
X26306071Y-35092142D01*
X26258452Y-35139761D01*
X26163214Y-35187380D01*
X26020357Y-35187380D01*
X26925119Y-35187380D02*
X26829880Y-35139761D01*
X26782261Y-35044523D01*
X26782261Y-34187380D01*
X27734642Y-35187380D02*
X27734642Y-34187380D01*
X27734642Y-35139761D02*
X27639404Y-35187380D01*
X27448928Y-35187380D01*
X27353690Y-35139761D01*
X27306071Y-35092142D01*
X27258452Y-34996904D01*
X27258452Y-34711190D01*
X27306071Y-34615952D01*
X27353690Y-34568333D01*
X27448928Y-34520714D01*
X27639404Y-34520714D01*
X27734642Y-34568333D01*
X18687023Y-36837380D02*
X18353690Y-36361190D01*
X18115595Y-36837380D02*
X18115595Y-35837380D01*
X18496547Y-35837380D01*
X18591785Y-35885000D01*
X18639404Y-35932619D01*
X18687023Y-36027857D01*
X18687023Y-36170714D01*
X18639404Y-36265952D01*
X18591785Y-36313571D01*
X18496547Y-36361190D01*
X18115595Y-36361190D01*
X19496547Y-36789761D02*
X19401309Y-36837380D01*
X19210833Y-36837380D01*
X19115595Y-36789761D01*
X19067976Y-36694523D01*
X19067976Y-36313571D01*
X19115595Y-36218333D01*
X19210833Y-36170714D01*
X19401309Y-36170714D01*
X19496547Y-36218333D01*
X19544166Y-36313571D01*
X19544166Y-36408809D01*
X19067976Y-36504047D01*
X19877500Y-36170714D02*
X20115595Y-36837380D01*
X20353690Y-36170714D01*
X21687023Y-35837380D02*
X21782261Y-35837380D01*
X21877500Y-35885000D01*
X21925119Y-35932619D01*
X21972738Y-36027857D01*
X22020357Y-36218333D01*
X22020357Y-36456428D01*
X21972738Y-36646904D01*
X21925119Y-36742142D01*
X21877500Y-36789761D01*
X21782261Y-36837380D01*
X21687023Y-36837380D01*
X21591785Y-36789761D01*
X21544166Y-36742142D01*
X21496547Y-36646904D01*
X21448928Y-36456428D01*
X21448928Y-36218333D01*
X21496547Y-36027857D01*
X21544166Y-35932619D01*
X21591785Y-35885000D01*
X21687023Y-35837380D01*
X22401309Y-35932619D02*
X22448928Y-35885000D01*
X22544166Y-35837380D01*
X22782261Y-35837380D01*
X22877500Y-35885000D01*
X22925119Y-35932619D01*
X22972738Y-36027857D01*
X22972738Y-36123095D01*
X22925119Y-36265952D01*
X22353690Y-36837380D01*
X22972738Y-36837380D01*
X23353690Y-35932619D02*
X23401309Y-35885000D01*
X23496547Y-35837380D01*
X23734642Y-35837380D01*
X23829880Y-35885000D01*
X23877500Y-35932619D01*
X23925119Y-36027857D01*
X23925119Y-36123095D01*
X23877500Y-36265952D01*
X23306071Y-36837380D01*
X23925119Y-36837380D01*
X24306071Y-35932619D02*
X24353690Y-35885000D01*
X24448928Y-35837380D01*
X24687023Y-35837380D01*
X24782261Y-35885000D01*
X24829880Y-35932619D01*
X24877500Y-36027857D01*
X24877500Y-36123095D01*
X24829880Y-36265952D01*
X24258452Y-36837380D01*
X24877500Y-36837380D01*
X25829880Y-36837380D02*
X25258452Y-36837380D01*
X25544166Y-36837380D02*
X25544166Y-35837380D01*
X25448928Y-35980238D01*
X25353690Y-36075476D01*
X25258452Y-36123095D01*
X26210833Y-35932619D02*
X26258452Y-35885000D01*
X26353690Y-35837380D01*
X26591785Y-35837380D01*
X26687023Y-35885000D01*
X26734642Y-35932619D01*
X26782261Y-36027857D01*
X26782261Y-36123095D01*
X26734642Y-36265952D01*
X26163214Y-36837380D01*
X26782261Y-36837380D01*
D12*
G04 #@! TO.C,G\u002A\u002A\u002A*
G36*
X35313089Y-28981229D02*
G01*
X35328741Y-29102829D01*
X35326837Y-29306949D01*
X35326052Y-29412181D01*
X35319100Y-29701033D01*
X35296688Y-29871612D01*
X35256483Y-29938681D01*
X35242500Y-29940971D01*
X35151195Y-29903371D01*
X34982628Y-29807277D01*
X34768766Y-29671273D01*
X34704907Y-29628426D01*
X34250867Y-29320174D01*
X34638065Y-29159704D01*
X34942368Y-29031385D01*
X35141744Y-28953522D01*
X35258037Y-28934132D01*
X35313089Y-28981229D01*
G37*
X35313089Y-28981229D02*
X35328741Y-29102829D01*
X35326837Y-29306949D01*
X35326052Y-29412181D01*
X35319100Y-29701033D01*
X35296688Y-29871612D01*
X35256483Y-29938681D01*
X35242500Y-29940971D01*
X35151195Y-29903371D01*
X34982628Y-29807277D01*
X34768766Y-29671273D01*
X34704907Y-29628426D01*
X34250867Y-29320174D01*
X34638065Y-29159704D01*
X34942368Y-29031385D01*
X35141744Y-28953522D01*
X35258037Y-28934132D01*
X35313089Y-28981229D01*
G36*
X32092294Y-29050838D02*
G01*
X32324355Y-29135666D01*
X32371297Y-29154997D01*
X32596716Y-29256489D01*
X32761523Y-29344463D01*
X32837519Y-29403415D01*
X32839192Y-29412244D01*
X32781342Y-29470770D01*
X32647196Y-29581610D01*
X32468839Y-29720540D01*
X32278356Y-29863341D01*
X32107832Y-29985791D01*
X31989350Y-30063670D01*
X31956041Y-30078947D01*
X31937104Y-30017774D01*
X31912203Y-29856047D01*
X31886214Y-29626456D01*
X31882035Y-29582978D01*
X31862508Y-29333432D01*
X31854029Y-29134343D01*
X31858140Y-29024507D01*
X31859621Y-29018973D01*
X31928675Y-29009626D01*
X32092294Y-29050838D01*
G37*
X32092294Y-29050838D02*
X32324355Y-29135666D01*
X32371297Y-29154997D01*
X32596716Y-29256489D01*
X32761523Y-29344463D01*
X32837519Y-29403415D01*
X32839192Y-29412244D01*
X32781342Y-29470770D01*
X32647196Y-29581610D01*
X32468839Y-29720540D01*
X32278356Y-29863341D01*
X32107832Y-29985791D01*
X31989350Y-30063670D01*
X31956041Y-30078947D01*
X31937104Y-30017774D01*
X31912203Y-29856047D01*
X31886214Y-29626456D01*
X31882035Y-29582978D01*
X31862508Y-29333432D01*
X31854029Y-29134343D01*
X31858140Y-29024507D01*
X31859621Y-29018973D01*
X31928675Y-29009626D01*
X32092294Y-29050838D01*
G36*
X34111975Y-29460533D02*
G01*
X34499529Y-29609561D01*
X34846874Y-29872268D01*
X34880458Y-29905178D01*
X35119055Y-30182088D01*
X35269725Y-30465374D01*
X35352509Y-30801590D01*
X35378932Y-31063159D01*
X35389654Y-31338677D01*
X35371742Y-31540634D01*
X35314670Y-31727923D01*
X35224921Y-31924864D01*
X35039587Y-32303673D01*
X35309200Y-32527629D01*
X35658462Y-32898667D01*
X35932837Y-33355043D01*
X36116494Y-33862167D01*
X36193602Y-34385445D01*
X36195000Y-34463282D01*
X36134094Y-34991320D01*
X35961737Y-35489219D01*
X35693466Y-35940702D01*
X35344822Y-36329491D01*
X34931342Y-36639310D01*
X34468566Y-36853880D01*
X33972032Y-36956923D01*
X33808071Y-36963684D01*
X33620332Y-36973029D01*
X33514696Y-37022592D01*
X33439815Y-37144664D01*
X33409853Y-37214124D01*
X33326088Y-37582435D01*
X33356622Y-37992429D01*
X33496393Y-38425591D01*
X33740336Y-38863404D01*
X33929598Y-39114623D01*
X34098260Y-39335034D01*
X34175470Y-39491237D01*
X34169114Y-39608485D01*
X34109526Y-39690842D01*
X33979072Y-39764092D01*
X33828517Y-39730022D01*
X33643972Y-39583000D01*
X33524337Y-39453553D01*
X33174002Y-38967667D01*
X32941051Y-38460772D01*
X32832200Y-37948744D01*
X32824776Y-37799211D01*
X32829742Y-37527845D01*
X32847931Y-37280606D01*
X32872845Y-37123508D01*
X32895402Y-37008381D01*
X32874438Y-36928134D01*
X32786350Y-36854707D01*
X32607535Y-36760041D01*
X32538634Y-36726221D01*
X32105674Y-36449047D01*
X31716572Y-36074867D01*
X31407301Y-35640126D01*
X31339123Y-35510895D01*
X31250392Y-35314189D01*
X31194836Y-35138821D01*
X31164911Y-34942432D01*
X31153077Y-34682661D01*
X31151513Y-34457105D01*
X31155439Y-34133856D01*
X31172416Y-33901295D01*
X31210242Y-33716526D01*
X31276716Y-33536658D01*
X31345954Y-33387632D01*
X31511006Y-33109538D01*
X31731785Y-32817723D01*
X31899765Y-32634758D01*
X32259137Y-32282937D01*
X32130820Y-32100021D01*
X31937922Y-31710417D01*
X31861035Y-31263652D01*
X31867869Y-31016863D01*
X31972282Y-30543612D01*
X32185150Y-30136640D01*
X32492542Y-29808451D01*
X32880521Y-29571544D01*
X33335156Y-29438421D01*
X33655000Y-29413462D01*
X34111975Y-29460533D01*
G37*
X34111975Y-29460533D02*
X34499529Y-29609561D01*
X34846874Y-29872268D01*
X34880458Y-29905178D01*
X35119055Y-30182088D01*
X35269725Y-30465374D01*
X35352509Y-30801590D01*
X35378932Y-31063159D01*
X35389654Y-31338677D01*
X35371742Y-31540634D01*
X35314670Y-31727923D01*
X35224921Y-31924864D01*
X35039587Y-32303673D01*
X35309200Y-32527629D01*
X35658462Y-32898667D01*
X35932837Y-33355043D01*
X36116494Y-33862167D01*
X36193602Y-34385445D01*
X36195000Y-34463282D01*
X36134094Y-34991320D01*
X35961737Y-35489219D01*
X35693466Y-35940702D01*
X35344822Y-36329491D01*
X34931342Y-36639310D01*
X34468566Y-36853880D01*
X33972032Y-36956923D01*
X33808071Y-36963684D01*
X33620332Y-36973029D01*
X33514696Y-37022592D01*
X33439815Y-37144664D01*
X33409853Y-37214124D01*
X33326088Y-37582435D01*
X33356622Y-37992429D01*
X33496393Y-38425591D01*
X33740336Y-38863404D01*
X33929598Y-39114623D01*
X34098260Y-39335034D01*
X34175470Y-39491237D01*
X34169114Y-39608485D01*
X34109526Y-39690842D01*
X33979072Y-39764092D01*
X33828517Y-39730022D01*
X33643972Y-39583000D01*
X33524337Y-39453553D01*
X33174002Y-38967667D01*
X32941051Y-38460772D01*
X32832200Y-37948744D01*
X32824776Y-37799211D01*
X32829742Y-37527845D01*
X32847931Y-37280606D01*
X32872845Y-37123508D01*
X32895402Y-37008381D01*
X32874438Y-36928134D01*
X32786350Y-36854707D01*
X32607535Y-36760041D01*
X32538634Y-36726221D01*
X32105674Y-36449047D01*
X31716572Y-36074867D01*
X31407301Y-35640126D01*
X31339123Y-35510895D01*
X31250392Y-35314189D01*
X31194836Y-35138821D01*
X31164911Y-34942432D01*
X31153077Y-34682661D01*
X31151513Y-34457105D01*
X31155439Y-34133856D01*
X31172416Y-33901295D01*
X31210242Y-33716526D01*
X31276716Y-33536658D01*
X31345954Y-33387632D01*
X31511006Y-33109538D01*
X31731785Y-32817723D01*
X31899765Y-32634758D01*
X32259137Y-32282937D01*
X32130820Y-32100021D01*
X31937922Y-31710417D01*
X31861035Y-31263652D01*
X31867869Y-31016863D01*
X31972282Y-30543612D01*
X32185150Y-30136640D01*
X32492542Y-29808451D01*
X32880521Y-29571544D01*
X33335156Y-29438421D01*
X33655000Y-29413462D01*
X34111975Y-29460533D01*
D13*
G04 #@! TO.C,J5*
G36*
X28575000Y-97790000D02*
G01*
X23495000Y-97790000D01*
X23495000Y-95250000D01*
X28575000Y-95250000D01*
X28575000Y-97790000D01*
G37*
X28575000Y-97790000D02*
X23495000Y-97790000D01*
X23495000Y-95250000D01*
X28575000Y-95250000D01*
X28575000Y-97790000D01*
D14*
G04 #@! TO.C,D4*
X16310000Y-94160000D02*
X19250000Y-94160000D01*
X19250000Y-94160000D02*
X19250000Y-88720000D01*
X19250000Y-88720000D02*
X16310000Y-88720000D01*
X16310000Y-88720000D02*
X16310000Y-94160000D01*
X17780000Y-95180000D02*
X17780000Y-94160000D01*
X17780000Y-87700000D02*
X17780000Y-88720000D01*
X16310000Y-93260000D02*
X19250000Y-93260000D01*
X16310000Y-93140000D02*
X19250000Y-93140000D01*
X16310000Y-93380000D02*
X19250000Y-93380000D01*
G04 #@! TO.C,D3*
X23060000Y-81100000D02*
X20120000Y-81100000D01*
X20120000Y-81100000D02*
X20120000Y-86540000D01*
X20120000Y-86540000D02*
X23060000Y-86540000D01*
X23060000Y-86540000D02*
X23060000Y-81100000D01*
X21590000Y-80080000D02*
X21590000Y-81100000D01*
X21590000Y-87560000D02*
X21590000Y-86540000D01*
X23060000Y-82000000D02*
X20120000Y-82000000D01*
X23060000Y-82120000D02*
X20120000Y-82120000D01*
X23060000Y-81880000D02*
X20120000Y-81880000D01*
G04 #@! TO.C,J7*
X0Y-44870000D02*
X500000Y-44870000D01*
X0Y-44870000D02*
X0Y-44370000D01*
X14200000Y-44870000D02*
X13700000Y-44870000D01*
X14200000Y-44870000D02*
X14200000Y-44370000D01*
X14200000Y-33370000D02*
X13700000Y-33370000D01*
X14200000Y-33370000D02*
X14200000Y-33870000D01*
X0Y-33370000D02*
X500000Y-33370000D01*
X0Y-33370000D02*
X0Y-33870000D01*
G04 #@! TO.C,J6*
X0Y-95670000D02*
X500000Y-95670000D01*
X0Y-95670000D02*
X0Y-95170000D01*
X14200000Y-95670000D02*
X13700000Y-95670000D01*
X14200000Y-95670000D02*
X14200000Y-95170000D01*
X14200000Y-84170000D02*
X13700000Y-84170000D01*
X14200000Y-84170000D02*
X14200000Y-84670000D01*
X0Y-84170000D02*
X500000Y-84170000D01*
X0Y-84170000D02*
X0Y-84670000D01*
G04 #@! TO.C,J4*
X0Y-28995000D02*
X500000Y-28995000D01*
X0Y-28995000D02*
X0Y-28495000D01*
X14200000Y-28995000D02*
X13700000Y-28995000D01*
X14200000Y-28995000D02*
X14200000Y-28495000D01*
X14200000Y-17495000D02*
X13700000Y-17495000D01*
X14200000Y-17495000D02*
X14200000Y-17995000D01*
X0Y-17495000D02*
X500000Y-17495000D01*
X0Y-17495000D02*
X0Y-17995000D01*
G04 #@! TO.C,J3*
X0Y-13120000D02*
X500000Y-13120000D01*
X0Y-13120000D02*
X0Y-12620000D01*
X14200000Y-13120000D02*
X13700000Y-13120000D01*
X14200000Y-13120000D02*
X14200000Y-12620000D01*
X14200000Y-1620000D02*
X13700000Y-1620000D01*
X14200000Y-1620000D02*
X14200000Y-2120000D01*
X0Y-1620000D02*
X500000Y-1620000D01*
X0Y-1620000D02*
X0Y-2120000D01*
G04 #@! TO.C,J2*
X0Y-79795000D02*
X500000Y-79795000D01*
X0Y-79795000D02*
X0Y-79295000D01*
X14200000Y-79795000D02*
X13700000Y-79795000D01*
X14200000Y-79795000D02*
X14200000Y-79295000D01*
X14200000Y-68295000D02*
X13700000Y-68295000D01*
X14200000Y-68295000D02*
X14200000Y-68795000D01*
X0Y-68295000D02*
X500000Y-68295000D01*
X0Y-68295000D02*
X0Y-68795000D01*
G04 #@! TO.C,J1*
X0Y-63920000D02*
X500000Y-63920000D01*
X0Y-63920000D02*
X0Y-63420000D01*
X14200000Y-63920000D02*
X13700000Y-63920000D01*
X14200000Y-63920000D02*
X14200000Y-63420000D01*
X14200000Y-52420000D02*
X13700000Y-52420000D01*
X14200000Y-52420000D02*
X14200000Y-52920000D01*
X0Y-52420000D02*
X500000Y-52420000D01*
X0Y-52420000D02*
X0Y-52920000D01*
G04 #@! TO.C,R1*
X12165000Y-81915000D02*
G75*
G03*
X12165000Y-81915000I-1370000J0D01*
G01*
X9425000Y-81915000D02*
X9355000Y-81915000D01*
G04 #@! TO.C,D1*
X37521371Y-56515000D02*
G75*
G03*
X37521371Y-56515000I-1326371J0D01*
G01*
X34868629Y-56515000D02*
X34755000Y-56515000D01*
G04 #@! TO.C,R8*
X20420000Y-41910000D02*
G75*
G03*
X20420000Y-41910000I-1370000J0D01*
G01*
X19050000Y-43280000D02*
X19050000Y-43350000D01*
G04 #@! TO.C,R7*
X20420000Y-49530000D02*
G75*
G03*
X20420000Y-49530000I-1370000J0D01*
G01*
X19050000Y-48160000D02*
X19050000Y-48090000D01*
G04 #@! TO.C,R5*
X17245000Y-41910000D02*
G75*
G03*
X17245000Y-41910000I-1370000J0D01*
G01*
X15875000Y-43280000D02*
X15875000Y-43350000D01*
G04 #@! TO.C,R3*
X17245000Y-49530000D02*
G75*
G03*
X17245000Y-49530000I-1370000J0D01*
G01*
X15875000Y-48160000D02*
X15875000Y-48090000D01*
G04 #@! TO.C,D2*
X37521371Y-17780000D02*
G75*
G03*
X37521371Y-17780000I-1326371J0D01*
G01*
X34868629Y-17780000D02*
X34755000Y-17780000D01*
G04 #@! TO.C,R10*
X20420000Y-3175000D02*
G75*
G03*
X20420000Y-3175000I-1370000J0D01*
G01*
X19050000Y-4545000D02*
X19050000Y-4615000D01*
G04 #@! TO.C,R9*
X20420000Y-10795000D02*
G75*
G03*
X20420000Y-10795000I-1370000J0D01*
G01*
X19050000Y-9425000D02*
X19050000Y-9355000D01*
G04 #@! TO.C,R2*
X12165000Y-31115000D02*
G75*
G03*
X12165000Y-31115000I-1370000J0D01*
G01*
X9425000Y-31115000D02*
X9355000Y-31115000D01*
G04 #@! TO.C,R6*
X17245000Y-3175000D02*
G75*
G03*
X17245000Y-3175000I-1370000J0D01*
G01*
X15875000Y-4545000D02*
X15875000Y-4615000D01*
G04 #@! TO.C,R4*
X17245000Y-10795000D02*
G75*
G03*
X17245000Y-10795000I-1370000J0D01*
G01*
X15875000Y-9425000D02*
X15875000Y-9355000D01*
G04 #@! TO.C,U4*
X25035000Y-1845000D02*
X23785000Y-1845000D01*
X23785000Y-1845000D02*
X23785000Y-12125000D01*
X23785000Y-12125000D02*
X28285000Y-12125000D01*
X28285000Y-12125000D02*
X28285000Y-1845000D01*
X28285000Y-1845000D02*
X27035000Y-1845000D01*
X27035000Y-1845000D02*
G75*
G02*
X25035000Y-1845000I-1000000J0D01*
G01*
G04 #@! TO.C,U1*
X25035000Y-40580000D02*
X23785000Y-40580000D01*
X23785000Y-40580000D02*
X23785000Y-50860000D01*
X23785000Y-50860000D02*
X28285000Y-50860000D01*
X28285000Y-50860000D02*
X28285000Y-40580000D01*
X28285000Y-40580000D02*
X27035000Y-40580000D01*
X27035000Y-40580000D02*
G75*
G02*
X25035000Y-40580000I-1000000J0D01*
G01*
G04 #@! TO.C,C10*
X18265000Y-19200000D02*
X18265000Y-26440000D01*
X16025000Y-19200000D02*
X16025000Y-26440000D01*
X18265000Y-19200000D02*
X16025000Y-19200000D01*
X18265000Y-26440000D02*
X16025000Y-26440000D01*
G04 #@! TO.C,C9*
X29695000Y-15090000D02*
X22455000Y-15090000D01*
X29695000Y-12850000D02*
X22455000Y-12850000D01*
X29695000Y-15090000D02*
X29695000Y-12850000D01*
X22455000Y-15090000D02*
X22455000Y-12850000D01*
G04 #@! TO.C,C8*
X18265000Y-57935000D02*
X18265000Y-65175000D01*
X16025000Y-57935000D02*
X16025000Y-65175000D01*
X18265000Y-57935000D02*
X16025000Y-57935000D01*
X18265000Y-65175000D02*
X16025000Y-65175000D01*
G04 #@! TO.C,U3*
X23130000Y-16450000D02*
X21880000Y-16450000D01*
X21880000Y-16450000D02*
X21880000Y-26730000D01*
X21880000Y-26730000D02*
X26380000Y-26730000D01*
X26380000Y-26730000D02*
X26380000Y-16450000D01*
X26380000Y-16450000D02*
X25130000Y-16450000D01*
X25130000Y-16450000D02*
G75*
G02*
X23130000Y-16450000I-1000000J0D01*
G01*
G04 #@! TO.C,U2*
X23130000Y-55185000D02*
X21880000Y-55185000D01*
X21880000Y-55185000D02*
X21880000Y-65465000D01*
X21880000Y-65465000D02*
X26380000Y-65465000D01*
X26380000Y-65465000D02*
X26380000Y-55185000D01*
X26380000Y-55185000D02*
X25130000Y-55185000D01*
X25130000Y-55185000D02*
G75*
G02*
X23130000Y-55185000I-1000000J0D01*
G01*
G04 #@! TO.C,R14*
X20860000Y-28170000D02*
X20860000Y-27840000D01*
X20860000Y-27840000D02*
X27400000Y-27840000D01*
X27400000Y-27840000D02*
X27400000Y-28170000D01*
X20860000Y-30250000D02*
X20860000Y-30580000D01*
X20860000Y-30580000D02*
X27400000Y-30580000D01*
X27400000Y-30580000D02*
X27400000Y-30250000D01*
G04 #@! TO.C,R13*
X20860000Y-66905000D02*
X20860000Y-66575000D01*
X20860000Y-66575000D02*
X27400000Y-66575000D01*
X27400000Y-66575000D02*
X27400000Y-66905000D01*
X20860000Y-68985000D02*
X20860000Y-69315000D01*
X20860000Y-69315000D02*
X27400000Y-69315000D01*
X27400000Y-69315000D02*
X27400000Y-68985000D01*
G04 #@! TO.C,R12*
X37235000Y-6255000D02*
X37565000Y-6255000D01*
X37565000Y-6255000D02*
X37565000Y-12795000D01*
X37565000Y-12795000D02*
X37235000Y-12795000D01*
X35155000Y-6255000D02*
X34825000Y-6255000D01*
X34825000Y-6255000D02*
X34825000Y-12795000D01*
X34825000Y-12795000D02*
X35155000Y-12795000D01*
G04 #@! TO.C,R11*
X37235000Y-44990000D02*
X37565000Y-44990000D01*
X37565000Y-44990000D02*
X37565000Y-51530000D01*
X37565000Y-51530000D02*
X37235000Y-51530000D01*
X35155000Y-44990000D02*
X34825000Y-44990000D01*
X34825000Y-44990000D02*
X34825000Y-51530000D01*
X34825000Y-51530000D02*
X35155000Y-51530000D01*
G04 #@! TO.C,C7*
X29995000Y-21740000D02*
X37235000Y-21740000D01*
X29995000Y-23980000D02*
X37235000Y-23980000D01*
X29995000Y-21740000D02*
X29995000Y-23980000D01*
X37235000Y-21740000D02*
X37235000Y-23980000D01*
G04 #@! TO.C,C6*
X29995000Y-60475000D02*
X37235000Y-60475000D01*
X29995000Y-62715000D02*
X37235000Y-62715000D01*
X29995000Y-60475000D02*
X29995000Y-62715000D01*
X37235000Y-60475000D02*
X37235000Y-62715000D01*
G04 #@! TO.C,C5*
X21690000Y-74295000D02*
G75*
G03*
X21690000Y-74295000I-2620000J0D01*
G01*
X19070000Y-76875000D02*
X19070000Y-71715000D01*
X19030000Y-76875000D02*
X19030000Y-71715000D01*
X18990000Y-76874000D02*
X18990000Y-71716000D01*
X18950000Y-76873000D02*
X18950000Y-71717000D01*
X18910000Y-76871000D02*
X18910000Y-71719000D01*
X18870000Y-76868000D02*
X18870000Y-71722000D01*
X18830000Y-76864000D02*
X18830000Y-75335000D01*
X18830000Y-73255000D02*
X18830000Y-71726000D01*
X18790000Y-76860000D02*
X18790000Y-75335000D01*
X18790000Y-73255000D02*
X18790000Y-71730000D01*
X18750000Y-76856000D02*
X18750000Y-75335000D01*
X18750000Y-73255000D02*
X18750000Y-71734000D01*
X18710000Y-76851000D02*
X18710000Y-75335000D01*
X18710000Y-73255000D02*
X18710000Y-71739000D01*
X18670000Y-76845000D02*
X18670000Y-75335000D01*
X18670000Y-73255000D02*
X18670000Y-71745000D01*
X18630000Y-76838000D02*
X18630000Y-75335000D01*
X18630000Y-73255000D02*
X18630000Y-71752000D01*
X18590000Y-76831000D02*
X18590000Y-75335000D01*
X18590000Y-73255000D02*
X18590000Y-71759000D01*
X18550000Y-76823000D02*
X18550000Y-75335000D01*
X18550000Y-73255000D02*
X18550000Y-71767000D01*
X18510000Y-76815000D02*
X18510000Y-75335000D01*
X18510000Y-73255000D02*
X18510000Y-71775000D01*
X18470000Y-76806000D02*
X18470000Y-75335000D01*
X18470000Y-73255000D02*
X18470000Y-71784000D01*
X18430000Y-76796000D02*
X18430000Y-75335000D01*
X18430000Y-73255000D02*
X18430000Y-71794000D01*
X18390000Y-76786000D02*
X18390000Y-75335000D01*
X18390000Y-73255000D02*
X18390000Y-71804000D01*
X18349000Y-76775000D02*
X18349000Y-75335000D01*
X18349000Y-73255000D02*
X18349000Y-71815000D01*
X18309000Y-76763000D02*
X18309000Y-75335000D01*
X18309000Y-73255000D02*
X18309000Y-71827000D01*
X18269000Y-76750000D02*
X18269000Y-75335000D01*
X18269000Y-73255000D02*
X18269000Y-71840000D01*
X18229000Y-76737000D02*
X18229000Y-75335000D01*
X18229000Y-73255000D02*
X18229000Y-71853000D01*
X18189000Y-76723000D02*
X18189000Y-75335000D01*
X18189000Y-73255000D02*
X18189000Y-71867000D01*
X18149000Y-76709000D02*
X18149000Y-75335000D01*
X18149000Y-73255000D02*
X18149000Y-71881000D01*
X18109000Y-76693000D02*
X18109000Y-75335000D01*
X18109000Y-73255000D02*
X18109000Y-71897000D01*
X18069000Y-76677000D02*
X18069000Y-75335000D01*
X18069000Y-73255000D02*
X18069000Y-71913000D01*
X18029000Y-76660000D02*
X18029000Y-75335000D01*
X18029000Y-73255000D02*
X18029000Y-71930000D01*
X17989000Y-76643000D02*
X17989000Y-75335000D01*
X17989000Y-73255000D02*
X17989000Y-71947000D01*
X17949000Y-76624000D02*
X17949000Y-75335000D01*
X17949000Y-73255000D02*
X17949000Y-71966000D01*
X17909000Y-76605000D02*
X17909000Y-75335000D01*
X17909000Y-73255000D02*
X17909000Y-71985000D01*
X17869000Y-76585000D02*
X17869000Y-75335000D01*
X17869000Y-73255000D02*
X17869000Y-72005000D01*
X17829000Y-76563000D02*
X17829000Y-75335000D01*
X17829000Y-73255000D02*
X17829000Y-72027000D01*
X17789000Y-76542000D02*
X17789000Y-75335000D01*
X17789000Y-73255000D02*
X17789000Y-72048000D01*
X17749000Y-76519000D02*
X17749000Y-75335000D01*
X17749000Y-73255000D02*
X17749000Y-72071000D01*
X17709000Y-76495000D02*
X17709000Y-75335000D01*
X17709000Y-73255000D02*
X17709000Y-72095000D01*
X17669000Y-76470000D02*
X17669000Y-75335000D01*
X17669000Y-73255000D02*
X17669000Y-72120000D01*
X17629000Y-76444000D02*
X17629000Y-75335000D01*
X17629000Y-73255000D02*
X17629000Y-72146000D01*
X17589000Y-76417000D02*
X17589000Y-75335000D01*
X17589000Y-73255000D02*
X17589000Y-72173000D01*
X17549000Y-76390000D02*
X17549000Y-75335000D01*
X17549000Y-73255000D02*
X17549000Y-72200000D01*
X17509000Y-76360000D02*
X17509000Y-75335000D01*
X17509000Y-73255000D02*
X17509000Y-72230000D01*
X17469000Y-76330000D02*
X17469000Y-75335000D01*
X17469000Y-73255000D02*
X17469000Y-72260000D01*
X17429000Y-76299000D02*
X17429000Y-75335000D01*
X17429000Y-73255000D02*
X17429000Y-72291000D01*
X17389000Y-76266000D02*
X17389000Y-75335000D01*
X17389000Y-73255000D02*
X17389000Y-72324000D01*
X17349000Y-76232000D02*
X17349000Y-75335000D01*
X17349000Y-73255000D02*
X17349000Y-72358000D01*
X17309000Y-76196000D02*
X17309000Y-75335000D01*
X17309000Y-73255000D02*
X17309000Y-72394000D01*
X17269000Y-76159000D02*
X17269000Y-75335000D01*
X17269000Y-73255000D02*
X17269000Y-72431000D01*
X17229000Y-76121000D02*
X17229000Y-75335000D01*
X17229000Y-73255000D02*
X17229000Y-72469000D01*
X17189000Y-76080000D02*
X17189000Y-75335000D01*
X17189000Y-73255000D02*
X17189000Y-72510000D01*
X17149000Y-76038000D02*
X17149000Y-75335000D01*
X17149000Y-73255000D02*
X17149000Y-72552000D01*
X17109000Y-75994000D02*
X17109000Y-75335000D01*
X17109000Y-73255000D02*
X17109000Y-72596000D01*
X17069000Y-75948000D02*
X17069000Y-75335000D01*
X17069000Y-73255000D02*
X17069000Y-72642000D01*
X17029000Y-75900000D02*
X17029000Y-75335000D01*
X17029000Y-73255000D02*
X17029000Y-72690000D01*
X16989000Y-75849000D02*
X16989000Y-75335000D01*
X16989000Y-73255000D02*
X16989000Y-72741000D01*
X16949000Y-75795000D02*
X16949000Y-75335000D01*
X16949000Y-73255000D02*
X16949000Y-72795000D01*
X16909000Y-75738000D02*
X16909000Y-75335000D01*
X16909000Y-73255000D02*
X16909000Y-72852000D01*
X16869000Y-75678000D02*
X16869000Y-75335000D01*
X16869000Y-73255000D02*
X16869000Y-72912000D01*
X16829000Y-75614000D02*
X16829000Y-75335000D01*
X16829000Y-73255000D02*
X16829000Y-72976000D01*
X16789000Y-75546000D02*
X16789000Y-75335000D01*
X16789000Y-73255000D02*
X16789000Y-73044000D01*
X16749000Y-75473000D02*
X16749000Y-73117000D01*
X16709000Y-75393000D02*
X16709000Y-73197000D01*
X16669000Y-75306000D02*
X16669000Y-73284000D01*
X16629000Y-75210000D02*
X16629000Y-73380000D01*
X16589000Y-75100000D02*
X16589000Y-73490000D01*
X16549000Y-74972000D02*
X16549000Y-73618000D01*
X16509000Y-74813000D02*
X16509000Y-73777000D01*
X16469000Y-74579000D02*
X16469000Y-74011000D01*
X21874775Y-75770000D02*
X21374775Y-75770000D01*
X21624775Y-76020000D02*
X21624775Y-75520000D01*
G04 #@! TO.C,C4*
X36255000Y-68580000D02*
G75*
G03*
X36255000Y-68580000I-2620000J0D01*
G01*
X33635000Y-66000000D02*
X33635000Y-71160000D01*
X33675000Y-66000000D02*
X33675000Y-71160000D01*
X33715000Y-66001000D02*
X33715000Y-71159000D01*
X33755000Y-66002000D02*
X33755000Y-71158000D01*
X33795000Y-66004000D02*
X33795000Y-71156000D01*
X33835000Y-66007000D02*
X33835000Y-71153000D01*
X33875000Y-66011000D02*
X33875000Y-67540000D01*
X33875000Y-69620000D02*
X33875000Y-71149000D01*
X33915000Y-66015000D02*
X33915000Y-67540000D01*
X33915000Y-69620000D02*
X33915000Y-71145000D01*
X33955000Y-66019000D02*
X33955000Y-67540000D01*
X33955000Y-69620000D02*
X33955000Y-71141000D01*
X33995000Y-66024000D02*
X33995000Y-67540000D01*
X33995000Y-69620000D02*
X33995000Y-71136000D01*
X34035000Y-66030000D02*
X34035000Y-67540000D01*
X34035000Y-69620000D02*
X34035000Y-71130000D01*
X34075000Y-66037000D02*
X34075000Y-67540000D01*
X34075000Y-69620000D02*
X34075000Y-71123000D01*
X34115000Y-66044000D02*
X34115000Y-67540000D01*
X34115000Y-69620000D02*
X34115000Y-71116000D01*
X34155000Y-66052000D02*
X34155000Y-67540000D01*
X34155000Y-69620000D02*
X34155000Y-71108000D01*
X34195000Y-66060000D02*
X34195000Y-67540000D01*
X34195000Y-69620000D02*
X34195000Y-71100000D01*
X34235000Y-66069000D02*
X34235000Y-67540000D01*
X34235000Y-69620000D02*
X34235000Y-71091000D01*
X34275000Y-66079000D02*
X34275000Y-67540000D01*
X34275000Y-69620000D02*
X34275000Y-71081000D01*
X34315000Y-66089000D02*
X34315000Y-67540000D01*
X34315000Y-69620000D02*
X34315000Y-71071000D01*
X34356000Y-66100000D02*
X34356000Y-67540000D01*
X34356000Y-69620000D02*
X34356000Y-71060000D01*
X34396000Y-66112000D02*
X34396000Y-67540000D01*
X34396000Y-69620000D02*
X34396000Y-71048000D01*
X34436000Y-66125000D02*
X34436000Y-67540000D01*
X34436000Y-69620000D02*
X34436000Y-71035000D01*
X34476000Y-66138000D02*
X34476000Y-67540000D01*
X34476000Y-69620000D02*
X34476000Y-71022000D01*
X34516000Y-66152000D02*
X34516000Y-67540000D01*
X34516000Y-69620000D02*
X34516000Y-71008000D01*
X34556000Y-66166000D02*
X34556000Y-67540000D01*
X34556000Y-69620000D02*
X34556000Y-70994000D01*
X34596000Y-66182000D02*
X34596000Y-67540000D01*
X34596000Y-69620000D02*
X34596000Y-70978000D01*
X34636000Y-66198000D02*
X34636000Y-67540000D01*
X34636000Y-69620000D02*
X34636000Y-70962000D01*
X34676000Y-66215000D02*
X34676000Y-67540000D01*
X34676000Y-69620000D02*
X34676000Y-70945000D01*
X34716000Y-66232000D02*
X34716000Y-67540000D01*
X34716000Y-69620000D02*
X34716000Y-70928000D01*
X34756000Y-66251000D02*
X34756000Y-67540000D01*
X34756000Y-69620000D02*
X34756000Y-70909000D01*
X34796000Y-66270000D02*
X34796000Y-67540000D01*
X34796000Y-69620000D02*
X34796000Y-70890000D01*
X34836000Y-66290000D02*
X34836000Y-67540000D01*
X34836000Y-69620000D02*
X34836000Y-70870000D01*
X34876000Y-66312000D02*
X34876000Y-67540000D01*
X34876000Y-69620000D02*
X34876000Y-70848000D01*
X34916000Y-66333000D02*
X34916000Y-67540000D01*
X34916000Y-69620000D02*
X34916000Y-70827000D01*
X34956000Y-66356000D02*
X34956000Y-67540000D01*
X34956000Y-69620000D02*
X34956000Y-70804000D01*
X34996000Y-66380000D02*
X34996000Y-67540000D01*
X34996000Y-69620000D02*
X34996000Y-70780000D01*
X35036000Y-66405000D02*
X35036000Y-67540000D01*
X35036000Y-69620000D02*
X35036000Y-70755000D01*
X35076000Y-66431000D02*
X35076000Y-67540000D01*
X35076000Y-69620000D02*
X35076000Y-70729000D01*
X35116000Y-66458000D02*
X35116000Y-67540000D01*
X35116000Y-69620000D02*
X35116000Y-70702000D01*
X35156000Y-66485000D02*
X35156000Y-67540000D01*
X35156000Y-69620000D02*
X35156000Y-70675000D01*
X35196000Y-66515000D02*
X35196000Y-67540000D01*
X35196000Y-69620000D02*
X35196000Y-70645000D01*
X35236000Y-66545000D02*
X35236000Y-67540000D01*
X35236000Y-69620000D02*
X35236000Y-70615000D01*
X35276000Y-66576000D02*
X35276000Y-67540000D01*
X35276000Y-69620000D02*
X35276000Y-70584000D01*
X35316000Y-66609000D02*
X35316000Y-67540000D01*
X35316000Y-69620000D02*
X35316000Y-70551000D01*
X35356000Y-66643000D02*
X35356000Y-67540000D01*
X35356000Y-69620000D02*
X35356000Y-70517000D01*
X35396000Y-66679000D02*
X35396000Y-67540000D01*
X35396000Y-69620000D02*
X35396000Y-70481000D01*
X35436000Y-66716000D02*
X35436000Y-67540000D01*
X35436000Y-69620000D02*
X35436000Y-70444000D01*
X35476000Y-66754000D02*
X35476000Y-67540000D01*
X35476000Y-69620000D02*
X35476000Y-70406000D01*
X35516000Y-66795000D02*
X35516000Y-67540000D01*
X35516000Y-69620000D02*
X35516000Y-70365000D01*
X35556000Y-66837000D02*
X35556000Y-67540000D01*
X35556000Y-69620000D02*
X35556000Y-70323000D01*
X35596000Y-66881000D02*
X35596000Y-67540000D01*
X35596000Y-69620000D02*
X35596000Y-70279000D01*
X35636000Y-66927000D02*
X35636000Y-67540000D01*
X35636000Y-69620000D02*
X35636000Y-70233000D01*
X35676000Y-66975000D02*
X35676000Y-67540000D01*
X35676000Y-69620000D02*
X35676000Y-70185000D01*
X35716000Y-67026000D02*
X35716000Y-67540000D01*
X35716000Y-69620000D02*
X35716000Y-70134000D01*
X35756000Y-67080000D02*
X35756000Y-67540000D01*
X35756000Y-69620000D02*
X35756000Y-70080000D01*
X35796000Y-67137000D02*
X35796000Y-67540000D01*
X35796000Y-69620000D02*
X35796000Y-70023000D01*
X35836000Y-67197000D02*
X35836000Y-67540000D01*
X35836000Y-69620000D02*
X35836000Y-69963000D01*
X35876000Y-67261000D02*
X35876000Y-67540000D01*
X35876000Y-69620000D02*
X35876000Y-69899000D01*
X35916000Y-67329000D02*
X35916000Y-67540000D01*
X35916000Y-69620000D02*
X35916000Y-69831000D01*
X35956000Y-67402000D02*
X35956000Y-69758000D01*
X35996000Y-67482000D02*
X35996000Y-69678000D01*
X36036000Y-67569000D02*
X36036000Y-69591000D01*
X36076000Y-67665000D02*
X36076000Y-69495000D01*
X36116000Y-67775000D02*
X36116000Y-69385000D01*
X36156000Y-67903000D02*
X36156000Y-69257000D01*
X36196000Y-68062000D02*
X36196000Y-69098000D01*
X36236000Y-68296000D02*
X36236000Y-68864000D01*
X30830225Y-67105000D02*
X31330225Y-67105000D01*
X31080225Y-66855000D02*
X31080225Y-67355000D01*
G04 #@! TO.C,C3*
X29695000Y-53825000D02*
X22455000Y-53825000D01*
X29695000Y-51585000D02*
X22455000Y-51585000D01*
X29695000Y-53825000D02*
X29695000Y-51585000D01*
X22455000Y-53825000D02*
X22455000Y-51585000D01*
G04 #@! TO.C,C2*
X31900000Y-14455000D02*
X31900000Y-7215000D01*
X34140000Y-14455000D02*
X34140000Y-7215000D01*
X31900000Y-14455000D02*
X34140000Y-14455000D01*
X31900000Y-7215000D02*
X34140000Y-7215000D01*
G04 #@! TO.C,C1*
X31900000Y-53190000D02*
X31900000Y-45950000D01*
X34140000Y-53190000D02*
X34140000Y-45950000D01*
X31900000Y-53190000D02*
X34140000Y-53190000D01*
X31900000Y-45950000D02*
X34140000Y-45950000D01*
G04 #@! TO.C,J5*
D11*
X22677380Y-97091428D02*
X22201190Y-97424761D01*
X22677380Y-97662857D02*
X21677380Y-97662857D01*
X21677380Y-97281904D01*
X21725000Y-97186666D01*
X21772619Y-97139047D01*
X21867857Y-97091428D01*
X22010714Y-97091428D01*
X22105952Y-97139047D01*
X22153571Y-97186666D01*
X22201190Y-97281904D01*
X22201190Y-97662857D01*
X22629761Y-96281904D02*
X22677380Y-96377142D01*
X22677380Y-96567619D01*
X22629761Y-96662857D01*
X22534523Y-96710476D01*
X22153571Y-96710476D01*
X22058333Y-96662857D01*
X22010714Y-96567619D01*
X22010714Y-96377142D01*
X22058333Y-96281904D01*
X22153571Y-96234285D01*
X22248809Y-96234285D01*
X22344047Y-96710476D01*
X22677380Y-95377142D02*
X21677380Y-95377142D01*
X22629761Y-95377142D02*
X22677380Y-95472380D01*
X22677380Y-95662857D01*
X22629761Y-95758095D01*
X22582142Y-95805714D01*
X22486904Y-95853333D01*
X22201190Y-95853333D01*
X22105952Y-95805714D01*
X22058333Y-95758095D01*
X22010714Y-95662857D01*
X22010714Y-95472380D01*
X22058333Y-95377142D01*
X24058809Y-76652380D02*
X24058809Y-75652380D01*
X24439761Y-75652380D01*
X24534999Y-75700000D01*
X24582619Y-75747619D01*
X24630238Y-75842857D01*
X24630238Y-75985714D01*
X24582619Y-76080952D01*
X24534999Y-76128571D01*
X24439761Y-76176190D01*
X24058809Y-76176190D01*
X25201666Y-76652380D02*
X25106428Y-76604761D01*
X25058809Y-76557142D01*
X25011190Y-76461904D01*
X25011190Y-76176190D01*
X25058809Y-76080952D01*
X25106428Y-76033333D01*
X25201666Y-75985714D01*
X25344523Y-75985714D01*
X25439761Y-76033333D01*
X25487380Y-76080952D01*
X25534999Y-76176190D01*
X25534999Y-76461904D01*
X25487380Y-76557142D01*
X25439761Y-76604761D01*
X25344523Y-76652380D01*
X25201666Y-76652380D01*
X25868333Y-75985714D02*
X26058809Y-76652380D01*
X26249285Y-76176190D01*
X26439761Y-76652380D01*
X26630238Y-75985714D01*
X27392142Y-76604761D02*
X27296904Y-76652380D01*
X27106428Y-76652380D01*
X27011190Y-76604761D01*
X26963571Y-76509523D01*
X26963571Y-76128571D01*
X27011190Y-76033333D01*
X27106428Y-75985714D01*
X27296904Y-75985714D01*
X27392142Y-76033333D01*
X27439761Y-76128571D01*
X27439761Y-76223809D01*
X26963571Y-76319047D01*
X27868333Y-76652380D02*
X27868333Y-75985714D01*
X27868333Y-76176190D02*
X27915952Y-76080952D01*
X27963571Y-76033333D01*
X28058809Y-75985714D01*
X28154047Y-75985714D01*
G04 #@! TO.C,D4*
D10*
X18096666Y-92940000D02*
X18096666Y-93340000D01*
X18096666Y-93140000D02*
X17396666Y-93140000D01*
X17496666Y-93206666D01*
X17563333Y-93273333D01*
X17596666Y-93340000D01*
X18096666Y-92640000D02*
X17396666Y-92640000D01*
X18096666Y-92240000D01*
X17396666Y-92240000D01*
X17396666Y-91573333D02*
X17396666Y-91906666D01*
X17730000Y-91940000D01*
X17696666Y-91906666D01*
X17663333Y-91840000D01*
X17663333Y-91673333D01*
X17696666Y-91606666D01*
X17730000Y-91573333D01*
X17796666Y-91540000D01*
X17963333Y-91540000D01*
X18030000Y-91573333D01*
X18063333Y-91606666D01*
X18096666Y-91673333D01*
X18096666Y-91840000D01*
X18063333Y-91906666D01*
X18030000Y-91940000D01*
X17696666Y-91140000D02*
X17663333Y-91206666D01*
X17630000Y-91240000D01*
X17563333Y-91273333D01*
X17530000Y-91273333D01*
X17463333Y-91240000D01*
X17430000Y-91206666D01*
X17396666Y-91140000D01*
X17396666Y-91006666D01*
X17430000Y-90940000D01*
X17463333Y-90906666D01*
X17530000Y-90873333D01*
X17563333Y-90873333D01*
X17630000Y-90906666D01*
X17663333Y-90940000D01*
X17696666Y-91006666D01*
X17696666Y-91140000D01*
X17730000Y-91206666D01*
X17763333Y-91240000D01*
X17830000Y-91273333D01*
X17963333Y-91273333D01*
X18030000Y-91240000D01*
X18063333Y-91206666D01*
X18096666Y-91140000D01*
X18096666Y-91006666D01*
X18063333Y-90940000D01*
X18030000Y-90906666D01*
X17963333Y-90873333D01*
X17830000Y-90873333D01*
X17763333Y-90906666D01*
X17730000Y-90940000D01*
X17696666Y-91006666D01*
X18096666Y-90206666D02*
X18096666Y-90606666D01*
X18096666Y-90406666D02*
X17396666Y-90406666D01*
X17496666Y-90473333D01*
X17563333Y-90540000D01*
X17596666Y-90606666D01*
X17396666Y-89973333D02*
X17396666Y-89506666D01*
X18096666Y-89806666D01*
D11*
X16132380Y-96781904D02*
X15132380Y-96781904D01*
X16132380Y-96210476D02*
X15560952Y-96639047D01*
X15132380Y-96210476D02*
X15703809Y-96781904D01*
G04 #@! TO.C,D3*
D10*
X21906666Y-85320000D02*
X21906666Y-85720000D01*
X21906666Y-85520000D02*
X21206666Y-85520000D01*
X21306666Y-85586666D01*
X21373333Y-85653333D01*
X21406666Y-85720000D01*
X21906666Y-85020000D02*
X21206666Y-85020000D01*
X21906666Y-84620000D01*
X21206666Y-84620000D01*
X21206666Y-83953333D02*
X21206666Y-84286666D01*
X21540000Y-84320000D01*
X21506666Y-84286666D01*
X21473333Y-84220000D01*
X21473333Y-84053333D01*
X21506666Y-83986666D01*
X21540000Y-83953333D01*
X21606666Y-83920000D01*
X21773333Y-83920000D01*
X21840000Y-83953333D01*
X21873333Y-83986666D01*
X21906666Y-84053333D01*
X21906666Y-84220000D01*
X21873333Y-84286666D01*
X21840000Y-84320000D01*
X21506666Y-83520000D02*
X21473333Y-83586666D01*
X21440000Y-83620000D01*
X21373333Y-83653333D01*
X21340000Y-83653333D01*
X21273333Y-83620000D01*
X21240000Y-83586666D01*
X21206666Y-83520000D01*
X21206666Y-83386666D01*
X21240000Y-83320000D01*
X21273333Y-83286666D01*
X21340000Y-83253333D01*
X21373333Y-83253333D01*
X21440000Y-83286666D01*
X21473333Y-83320000D01*
X21506666Y-83386666D01*
X21506666Y-83520000D01*
X21540000Y-83586666D01*
X21573333Y-83620000D01*
X21640000Y-83653333D01*
X21773333Y-83653333D01*
X21840000Y-83620000D01*
X21873333Y-83586666D01*
X21906666Y-83520000D01*
X21906666Y-83386666D01*
X21873333Y-83320000D01*
X21840000Y-83286666D01*
X21773333Y-83253333D01*
X21640000Y-83253333D01*
X21573333Y-83286666D01*
X21540000Y-83320000D01*
X21506666Y-83386666D01*
X21906666Y-82586666D02*
X21906666Y-82986666D01*
X21906666Y-82786666D02*
X21206666Y-82786666D01*
X21306666Y-82853333D01*
X21373333Y-82920000D01*
X21406666Y-82986666D01*
X21206666Y-82353333D02*
X21206666Y-81886666D01*
X21906666Y-82186666D01*
D11*
X20137380Y-79001904D02*
X19137380Y-79001904D01*
X20137380Y-78430476D02*
X19565952Y-78859047D01*
X19137380Y-78430476D02*
X19708809Y-79001904D01*
G04 #@! TO.C,J7*
X10062976Y-45172380D02*
X10253452Y-45172380D01*
X10348690Y-45220000D01*
X10443928Y-45315238D01*
X10491547Y-45505714D01*
X10491547Y-45839047D01*
X10443928Y-46029523D01*
X10348690Y-46124761D01*
X10253452Y-46172380D01*
X10062976Y-46172380D01*
X9967738Y-46124761D01*
X9872500Y-46029523D01*
X9824880Y-45839047D01*
X9824880Y-45505714D01*
X9872500Y-45315238D01*
X9967738Y-45220000D01*
X10062976Y-45172380D01*
X11348690Y-45505714D02*
X11348690Y-46172380D01*
X10920119Y-45505714D02*
X10920119Y-46029523D01*
X10967738Y-46124761D01*
X11062976Y-46172380D01*
X11205833Y-46172380D01*
X11301071Y-46124761D01*
X11348690Y-46077142D01*
X11682023Y-45505714D02*
X12062976Y-45505714D01*
X11824880Y-45172380D02*
X11824880Y-46029523D01*
X11872500Y-46124761D01*
X11967738Y-46172380D01*
X12062976Y-46172380D01*
X13682023Y-46172380D02*
X13110595Y-46172380D01*
X13396309Y-46172380D02*
X13396309Y-45172380D01*
X13301071Y-45315238D01*
X13205833Y-45410476D01*
X13110595Y-45458095D01*
G04 #@! TO.C,J6*
X10062976Y-95972380D02*
X10253452Y-95972380D01*
X10348690Y-96020000D01*
X10443928Y-96115238D01*
X10491547Y-96305714D01*
X10491547Y-96639047D01*
X10443928Y-96829523D01*
X10348690Y-96924761D01*
X10253452Y-96972380D01*
X10062976Y-96972380D01*
X9967738Y-96924761D01*
X9872500Y-96829523D01*
X9824880Y-96639047D01*
X9824880Y-96305714D01*
X9872500Y-96115238D01*
X9967738Y-96020000D01*
X10062976Y-95972380D01*
X11348690Y-96305714D02*
X11348690Y-96972380D01*
X10920119Y-96305714D02*
X10920119Y-96829523D01*
X10967738Y-96924761D01*
X11062976Y-96972380D01*
X11205833Y-96972380D01*
X11301071Y-96924761D01*
X11348690Y-96877142D01*
X11682023Y-96305714D02*
X12062976Y-96305714D01*
X11824880Y-95972380D02*
X11824880Y-96829523D01*
X11872500Y-96924761D01*
X11967738Y-96972380D01*
X12062976Y-96972380D01*
X13110595Y-96067619D02*
X13158214Y-96020000D01*
X13253452Y-95972380D01*
X13491547Y-95972380D01*
X13586785Y-96020000D01*
X13634404Y-96067619D01*
X13682023Y-96162857D01*
X13682023Y-96258095D01*
X13634404Y-96400952D01*
X13062976Y-96972380D01*
X13682023Y-96972380D01*
G04 #@! TO.C,J4*
X11015357Y-16962380D02*
X11015357Y-15962380D01*
X11491547Y-16295714D02*
X11491547Y-16962380D01*
X11491547Y-16390952D02*
X11539166Y-16343333D01*
X11634404Y-16295714D01*
X11777261Y-16295714D01*
X11872500Y-16343333D01*
X11920119Y-16438571D01*
X11920119Y-16962380D01*
X13682023Y-16962380D02*
X13110595Y-16962380D01*
X13396309Y-16962380D02*
X13396309Y-15962380D01*
X13301071Y-16105238D01*
X13205833Y-16200476D01*
X13110595Y-16248095D01*
G04 #@! TO.C,J3*
X7110595Y-13422380D02*
X7682023Y-13422380D01*
X7396309Y-14422380D02*
X7396309Y-13422380D01*
X8015357Y-14422380D02*
X8015357Y-13755714D01*
X8015357Y-13946190D02*
X8062976Y-13850952D01*
X8110595Y-13803333D01*
X8205833Y-13755714D01*
X8301071Y-13755714D01*
X8634404Y-14422380D02*
X8634404Y-13755714D01*
X8634404Y-13422380D02*
X8586785Y-13470000D01*
X8634404Y-13517619D01*
X8682023Y-13470000D01*
X8634404Y-13422380D01*
X8634404Y-13517619D01*
X9539166Y-13755714D02*
X9539166Y-14565238D01*
X9491547Y-14660476D01*
X9443928Y-14708095D01*
X9348690Y-14755714D01*
X9205833Y-14755714D01*
X9110595Y-14708095D01*
X9539166Y-14374761D02*
X9443928Y-14422380D01*
X9253452Y-14422380D01*
X9158214Y-14374761D01*
X9110595Y-14327142D01*
X9062976Y-14231904D01*
X9062976Y-13946190D01*
X9110595Y-13850952D01*
X9158214Y-13803333D01*
X9253452Y-13755714D01*
X9443928Y-13755714D01*
X9539166Y-13803333D01*
X10443928Y-13755714D02*
X10443928Y-14565238D01*
X10396309Y-14660476D01*
X10348690Y-14708095D01*
X10253452Y-14755714D01*
X10110595Y-14755714D01*
X10015357Y-14708095D01*
X10443928Y-14374761D02*
X10348690Y-14422380D01*
X10158214Y-14422380D01*
X10062976Y-14374761D01*
X10015357Y-14327142D01*
X9967738Y-14231904D01*
X9967738Y-13946190D01*
X10015357Y-13850952D01*
X10062976Y-13803333D01*
X10158214Y-13755714D01*
X10348690Y-13755714D01*
X10443928Y-13803333D01*
X11301071Y-14374761D02*
X11205833Y-14422380D01*
X11015357Y-14422380D01*
X10920119Y-14374761D01*
X10872500Y-14279523D01*
X10872500Y-13898571D01*
X10920119Y-13803333D01*
X11015357Y-13755714D01*
X11205833Y-13755714D01*
X11301071Y-13803333D01*
X11348690Y-13898571D01*
X11348690Y-13993809D01*
X10872500Y-14089047D01*
X11777261Y-14422380D02*
X11777261Y-13755714D01*
X11777261Y-13946190D02*
X11824880Y-13850952D01*
X11872500Y-13803333D01*
X11967738Y-13755714D01*
X12062976Y-13755714D01*
X13682023Y-14422380D02*
X13110595Y-14422380D01*
X13396309Y-14422380D02*
X13396309Y-13422380D01*
X13301071Y-13565238D01*
X13205833Y-13660476D01*
X13110595Y-13708095D01*
G04 #@! TO.C,J2*
X11015357Y-67762380D02*
X11015357Y-66762380D01*
X11491547Y-67095714D02*
X11491547Y-67762380D01*
X11491547Y-67190952D02*
X11539166Y-67143333D01*
X11634404Y-67095714D01*
X11777261Y-67095714D01*
X11872500Y-67143333D01*
X11920119Y-67238571D01*
X11920119Y-67762380D01*
X13110595Y-66857619D02*
X13158214Y-66810000D01*
X13253452Y-66762380D01*
X13491547Y-66762380D01*
X13586785Y-66810000D01*
X13634404Y-66857619D01*
X13682023Y-66952857D01*
X13682023Y-67048095D01*
X13634404Y-67190952D01*
X13062976Y-67762380D01*
X13682023Y-67762380D01*
G04 #@! TO.C,J1*
X7110595Y-64222380D02*
X7682023Y-64222380D01*
X7396309Y-65222380D02*
X7396309Y-64222380D01*
X8015357Y-65222380D02*
X8015357Y-64555714D01*
X8015357Y-64746190D02*
X8062976Y-64650952D01*
X8110595Y-64603333D01*
X8205833Y-64555714D01*
X8301071Y-64555714D01*
X8634404Y-65222380D02*
X8634404Y-64555714D01*
X8634404Y-64222380D02*
X8586785Y-64270000D01*
X8634404Y-64317619D01*
X8682023Y-64270000D01*
X8634404Y-64222380D01*
X8634404Y-64317619D01*
X9539166Y-64555714D02*
X9539166Y-65365238D01*
X9491547Y-65460476D01*
X9443928Y-65508095D01*
X9348690Y-65555714D01*
X9205833Y-65555714D01*
X9110595Y-65508095D01*
X9539166Y-65174761D02*
X9443928Y-65222380D01*
X9253452Y-65222380D01*
X9158214Y-65174761D01*
X9110595Y-65127142D01*
X9062976Y-65031904D01*
X9062976Y-64746190D01*
X9110595Y-64650952D01*
X9158214Y-64603333D01*
X9253452Y-64555714D01*
X9443928Y-64555714D01*
X9539166Y-64603333D01*
X10443928Y-64555714D02*
X10443928Y-65365238D01*
X10396309Y-65460476D01*
X10348690Y-65508095D01*
X10253452Y-65555714D01*
X10110595Y-65555714D01*
X10015357Y-65508095D01*
X10443928Y-65174761D02*
X10348690Y-65222380D01*
X10158214Y-65222380D01*
X10062976Y-65174761D01*
X10015357Y-65127142D01*
X9967738Y-65031904D01*
X9967738Y-64746190D01*
X10015357Y-64650952D01*
X10062976Y-64603333D01*
X10158214Y-64555714D01*
X10348690Y-64555714D01*
X10443928Y-64603333D01*
X11301071Y-65174761D02*
X11205833Y-65222380D01*
X11015357Y-65222380D01*
X10920119Y-65174761D01*
X10872500Y-65079523D01*
X10872500Y-64698571D01*
X10920119Y-64603333D01*
X11015357Y-64555714D01*
X11205833Y-64555714D01*
X11301071Y-64603333D01*
X11348690Y-64698571D01*
X11348690Y-64793809D01*
X10872500Y-64889047D01*
X11777261Y-65222380D02*
X11777261Y-64555714D01*
X11777261Y-64746190D02*
X11824880Y-64650952D01*
X11872500Y-64603333D01*
X11967738Y-64555714D01*
X12062976Y-64555714D01*
X13110595Y-64317619D02*
X13158214Y-64270000D01*
X13253452Y-64222380D01*
X13491547Y-64222380D01*
X13586785Y-64270000D01*
X13634404Y-64317619D01*
X13682023Y-64412857D01*
X13682023Y-64508095D01*
X13634404Y-64650952D01*
X13062976Y-65222380D01*
X13682023Y-65222380D01*
G04 #@! TO.C,R1*
X13533571Y-82367380D02*
X12962142Y-82367380D01*
X13247857Y-82367380D02*
X13247857Y-81367380D01*
X13152619Y-81510238D01*
X13057380Y-81605476D01*
X12962142Y-81653095D01*
X14152619Y-81367380D02*
X14247857Y-81367380D01*
X14343095Y-81415000D01*
X14390714Y-81462619D01*
X14438333Y-81557857D01*
X14485952Y-81748333D01*
X14485952Y-81986428D01*
X14438333Y-82176904D01*
X14390714Y-82272142D01*
X14343095Y-82319761D01*
X14247857Y-82367380D01*
X14152619Y-82367380D01*
X14057380Y-82319761D01*
X14009761Y-82272142D01*
X13962142Y-82176904D01*
X13914523Y-81986428D01*
X13914523Y-81748333D01*
X13962142Y-81557857D01*
X14009761Y-81462619D01*
X14057380Y-81415000D01*
X14152619Y-81367380D01*
X15105000Y-81367380D02*
X15200238Y-81367380D01*
X15295476Y-81415000D01*
X15343095Y-81462619D01*
X15390714Y-81557857D01*
X15438333Y-81748333D01*
X15438333Y-81986428D01*
X15390714Y-82176904D01*
X15343095Y-82272142D01*
X15295476Y-82319761D01*
X15200238Y-82367380D01*
X15105000Y-82367380D01*
X15009761Y-82319761D01*
X14962142Y-82272142D01*
X14914523Y-82176904D01*
X14866904Y-81986428D01*
X14866904Y-81748333D01*
X14914523Y-81557857D01*
X14962142Y-81462619D01*
X15009761Y-81415000D01*
X15105000Y-81367380D01*
X15866904Y-82367380D02*
X15866904Y-81367380D01*
X15962142Y-81986428D02*
X16247857Y-82367380D01*
X16247857Y-81700714D02*
X15866904Y-82081666D01*
G04 #@! TO.C,D1*
D13*
X33210714Y-54971904D02*
X32753571Y-54971904D01*
X32982142Y-54971904D02*
X32982142Y-54171904D01*
X32905952Y-54286190D01*
X32829761Y-54362380D01*
X32753571Y-54400476D01*
X33553571Y-54971904D02*
X33553571Y-54171904D01*
X34010714Y-54971904D01*
X34010714Y-54171904D01*
X34734523Y-54438571D02*
X34734523Y-54971904D01*
X34544047Y-54133809D02*
X34353571Y-54705238D01*
X34848809Y-54705238D01*
X35572619Y-54971904D02*
X35115476Y-54971904D01*
X35344047Y-54971904D02*
X35344047Y-54171904D01*
X35267857Y-54286190D01*
X35191666Y-54362380D01*
X35115476Y-54400476D01*
X36258333Y-54438571D02*
X36258333Y-54971904D01*
X36067857Y-54133809D02*
X35877380Y-54705238D01*
X36372619Y-54705238D01*
X36791666Y-54514761D02*
X36715476Y-54476666D01*
X36677380Y-54438571D01*
X36639285Y-54362380D01*
X36639285Y-54324285D01*
X36677380Y-54248095D01*
X36715476Y-54210000D01*
X36791666Y-54171904D01*
X36944047Y-54171904D01*
X37020238Y-54210000D01*
X37058333Y-54248095D01*
X37096428Y-54324285D01*
X37096428Y-54362380D01*
X37058333Y-54438571D01*
X37020238Y-54476666D01*
X36944047Y-54514761D01*
X36791666Y-54514761D01*
X36715476Y-54552857D01*
X36677380Y-54590952D01*
X36639285Y-54667142D01*
X36639285Y-54819523D01*
X36677380Y-54895714D01*
X36715476Y-54933809D01*
X36791666Y-54971904D01*
X36944047Y-54971904D01*
X37020238Y-54933809D01*
X37058333Y-54895714D01*
X37096428Y-54819523D01*
X37096428Y-54667142D01*
X37058333Y-54590952D01*
X37020238Y-54552857D01*
X36944047Y-54514761D01*
D11*
X31593095Y-56967380D02*
X31593095Y-55967380D01*
X32164523Y-56967380D02*
X31735952Y-56395952D01*
X32164523Y-55967380D02*
X31593095Y-56538809D01*
G04 #@! TO.C,R8*
D13*
X19366666Y-39406666D02*
X19366666Y-39806666D01*
X19366666Y-39606666D02*
X18666666Y-39606666D01*
X18766666Y-39673333D01*
X18833333Y-39740000D01*
X18866666Y-39806666D01*
X19366666Y-39106666D02*
X18666666Y-39106666D01*
X19100000Y-39040000D02*
X19366666Y-38840000D01*
X18900000Y-38840000D02*
X19166666Y-39106666D01*
G04 #@! TO.C,R7*
X19366666Y-53533333D02*
X19366666Y-53933333D01*
X19366666Y-53733333D02*
X18666666Y-53733333D01*
X18766666Y-53800000D01*
X18833333Y-53866666D01*
X18866666Y-53933333D01*
X18666666Y-53100000D02*
X18666666Y-53033333D01*
X18700000Y-52966666D01*
X18733333Y-52933333D01*
X18800000Y-52900000D01*
X18933333Y-52866666D01*
X19100000Y-52866666D01*
X19233333Y-52900000D01*
X19300000Y-52933333D01*
X19333333Y-52966666D01*
X19366666Y-53033333D01*
X19366666Y-53100000D01*
X19333333Y-53166666D01*
X19300000Y-53200000D01*
X19233333Y-53233333D01*
X19100000Y-53266666D01*
X18933333Y-53266666D01*
X18800000Y-53233333D01*
X18733333Y-53200000D01*
X18700000Y-53166666D01*
X18666666Y-53100000D01*
X18666666Y-52433333D02*
X18666666Y-52366666D01*
X18700000Y-52300000D01*
X18733333Y-52266666D01*
X18800000Y-52233333D01*
X18933333Y-52200000D01*
X19100000Y-52200000D01*
X19233333Y-52233333D01*
X19300000Y-52266666D01*
X19333333Y-52300000D01*
X19366666Y-52366666D01*
X19366666Y-52433333D01*
X19333333Y-52500000D01*
X19300000Y-52533333D01*
X19233333Y-52566666D01*
X19100000Y-52600000D01*
X18933333Y-52600000D01*
X18800000Y-52566666D01*
X18733333Y-52533333D01*
X18700000Y-52500000D01*
X18666666Y-52433333D01*
X19366666Y-51900000D02*
X18666666Y-51900000D01*
X19100000Y-51833333D02*
X19366666Y-51633333D01*
X18900000Y-51633333D02*
X19166666Y-51900000D01*
G04 #@! TO.C,R5*
X16191666Y-39406666D02*
X16191666Y-39806666D01*
X16191666Y-39606666D02*
X15491666Y-39606666D01*
X15591666Y-39673333D01*
X15658333Y-39740000D01*
X15691666Y-39806666D01*
X15491666Y-38973333D02*
X15491666Y-38906666D01*
X15525000Y-38840000D01*
X15558333Y-38806666D01*
X15625000Y-38773333D01*
X15758333Y-38740000D01*
X15925000Y-38740000D01*
X16058333Y-38773333D01*
X16125000Y-38806666D01*
X16158333Y-38840000D01*
X16191666Y-38906666D01*
X16191666Y-38973333D01*
X16158333Y-39040000D01*
X16125000Y-39073333D01*
X16058333Y-39106666D01*
X15925000Y-39140000D01*
X15758333Y-39140000D01*
X15625000Y-39106666D01*
X15558333Y-39073333D01*
X15525000Y-39040000D01*
X15491666Y-38973333D01*
X15491666Y-38306666D02*
X15491666Y-38240000D01*
X15525000Y-38173333D01*
X15558333Y-38140000D01*
X15625000Y-38106666D01*
X15758333Y-38073333D01*
X15925000Y-38073333D01*
X16058333Y-38106666D01*
X16125000Y-38140000D01*
X16158333Y-38173333D01*
X16191666Y-38240000D01*
X16191666Y-38306666D01*
X16158333Y-38373333D01*
X16125000Y-38406666D01*
X16058333Y-38440000D01*
X15925000Y-38473333D01*
X15758333Y-38473333D01*
X15625000Y-38440000D01*
X15558333Y-38406666D01*
X15525000Y-38373333D01*
X15491666Y-38306666D01*
X16191666Y-37773333D02*
X15491666Y-37773333D01*
X15925000Y-37706666D02*
X16191666Y-37506666D01*
X15725000Y-37506666D02*
X15991666Y-37773333D01*
G04 #@! TO.C,R3*
X16191666Y-53533333D02*
X16191666Y-53933333D01*
X16191666Y-53733333D02*
X15491666Y-53733333D01*
X15591666Y-53800000D01*
X15658333Y-53866666D01*
X15691666Y-53933333D01*
X15491666Y-53100000D02*
X15491666Y-53033333D01*
X15525000Y-52966666D01*
X15558333Y-52933333D01*
X15625000Y-52900000D01*
X15758333Y-52866666D01*
X15925000Y-52866666D01*
X16058333Y-52900000D01*
X16125000Y-52933333D01*
X16158333Y-52966666D01*
X16191666Y-53033333D01*
X16191666Y-53100000D01*
X16158333Y-53166666D01*
X16125000Y-53200000D01*
X16058333Y-53233333D01*
X15925000Y-53266666D01*
X15758333Y-53266666D01*
X15625000Y-53233333D01*
X15558333Y-53200000D01*
X15525000Y-53166666D01*
X15491666Y-53100000D01*
X15491666Y-52433333D02*
X15491666Y-52366666D01*
X15525000Y-52300000D01*
X15558333Y-52266666D01*
X15625000Y-52233333D01*
X15758333Y-52200000D01*
X15925000Y-52200000D01*
X16058333Y-52233333D01*
X16125000Y-52266666D01*
X16158333Y-52300000D01*
X16191666Y-52366666D01*
X16191666Y-52433333D01*
X16158333Y-52500000D01*
X16125000Y-52533333D01*
X16058333Y-52566666D01*
X15925000Y-52600000D01*
X15758333Y-52600000D01*
X15625000Y-52566666D01*
X15558333Y-52533333D01*
X15525000Y-52500000D01*
X15491666Y-52433333D01*
X16191666Y-51900000D02*
X15491666Y-51900000D01*
X15925000Y-51833333D02*
X16191666Y-51633333D01*
X15725000Y-51633333D02*
X15991666Y-51900000D01*
G04 #@! TO.C,D2*
X33210714Y-16236904D02*
X32753571Y-16236904D01*
X32982142Y-16236904D02*
X32982142Y-15436904D01*
X32905952Y-15551190D01*
X32829761Y-15627380D01*
X32753571Y-15665476D01*
X33553571Y-16236904D02*
X33553571Y-15436904D01*
X34010714Y-16236904D01*
X34010714Y-15436904D01*
X34734523Y-15703571D02*
X34734523Y-16236904D01*
X34544047Y-15398809D02*
X34353571Y-15970238D01*
X34848809Y-15970238D01*
X35572619Y-16236904D02*
X35115476Y-16236904D01*
X35344047Y-16236904D02*
X35344047Y-15436904D01*
X35267857Y-15551190D01*
X35191666Y-15627380D01*
X35115476Y-15665476D01*
X36258333Y-15703571D02*
X36258333Y-16236904D01*
X36067857Y-15398809D02*
X35877380Y-15970238D01*
X36372619Y-15970238D01*
X36791666Y-15779761D02*
X36715476Y-15741666D01*
X36677380Y-15703571D01*
X36639285Y-15627380D01*
X36639285Y-15589285D01*
X36677380Y-15513095D01*
X36715476Y-15475000D01*
X36791666Y-15436904D01*
X36944047Y-15436904D01*
X37020238Y-15475000D01*
X37058333Y-15513095D01*
X37096428Y-15589285D01*
X37096428Y-15627380D01*
X37058333Y-15703571D01*
X37020238Y-15741666D01*
X36944047Y-15779761D01*
X36791666Y-15779761D01*
X36715476Y-15817857D01*
X36677380Y-15855952D01*
X36639285Y-15932142D01*
X36639285Y-16084523D01*
X36677380Y-16160714D01*
X36715476Y-16198809D01*
X36791666Y-16236904D01*
X36944047Y-16236904D01*
X37020238Y-16198809D01*
X37058333Y-16160714D01*
X37096428Y-16084523D01*
X37096428Y-15932142D01*
X37058333Y-15855952D01*
X37020238Y-15817857D01*
X36944047Y-15779761D01*
D11*
X31593095Y-18232380D02*
X31593095Y-17232380D01*
X32164523Y-18232380D02*
X31735952Y-17660952D01*
X32164523Y-17232380D02*
X31593095Y-17803809D01*
G04 #@! TO.C,R10*
D13*
X18966666Y-1586666D02*
X18566666Y-1586666D01*
X18766666Y-1586666D02*
X18766666Y-886666D01*
X18700000Y-986666D01*
X18633333Y-1053333D01*
X18566666Y-1086666D01*
X19266666Y-1586666D02*
X19266666Y-886666D01*
X19333333Y-1320000D02*
X19533333Y-1586666D01*
X19533333Y-1120000D02*
X19266666Y-1386666D01*
G04 #@! TO.C,R9*
X19366666Y-14798333D02*
X19366666Y-15198333D01*
X19366666Y-14998333D02*
X18666666Y-14998333D01*
X18766666Y-15065000D01*
X18833333Y-15131666D01*
X18866666Y-15198333D01*
X18666666Y-14365000D02*
X18666666Y-14298333D01*
X18700000Y-14231666D01*
X18733333Y-14198333D01*
X18800000Y-14165000D01*
X18933333Y-14131666D01*
X19100000Y-14131666D01*
X19233333Y-14165000D01*
X19300000Y-14198333D01*
X19333333Y-14231666D01*
X19366666Y-14298333D01*
X19366666Y-14365000D01*
X19333333Y-14431666D01*
X19300000Y-14465000D01*
X19233333Y-14498333D01*
X19100000Y-14531666D01*
X18933333Y-14531666D01*
X18800000Y-14498333D01*
X18733333Y-14465000D01*
X18700000Y-14431666D01*
X18666666Y-14365000D01*
X18666666Y-13698333D02*
X18666666Y-13631666D01*
X18700000Y-13565000D01*
X18733333Y-13531666D01*
X18800000Y-13498333D01*
X18933333Y-13465000D01*
X19100000Y-13465000D01*
X19233333Y-13498333D01*
X19300000Y-13531666D01*
X19333333Y-13565000D01*
X19366666Y-13631666D01*
X19366666Y-13698333D01*
X19333333Y-13765000D01*
X19300000Y-13798333D01*
X19233333Y-13831666D01*
X19100000Y-13865000D01*
X18933333Y-13865000D01*
X18800000Y-13831666D01*
X18733333Y-13798333D01*
X18700000Y-13765000D01*
X18666666Y-13698333D01*
X19366666Y-13165000D02*
X18666666Y-13165000D01*
X19100000Y-13098333D02*
X19366666Y-12898333D01*
X18900000Y-12898333D02*
X19166666Y-13165000D01*
G04 #@! TO.C,R2*
D11*
X13533571Y-31567380D02*
X12962142Y-31567380D01*
X13247857Y-31567380D02*
X13247857Y-30567380D01*
X13152619Y-30710238D01*
X13057380Y-30805476D01*
X12962142Y-30853095D01*
X14152619Y-30567380D02*
X14247857Y-30567380D01*
X14343095Y-30615000D01*
X14390714Y-30662619D01*
X14438333Y-30757857D01*
X14485952Y-30948333D01*
X14485952Y-31186428D01*
X14438333Y-31376904D01*
X14390714Y-31472142D01*
X14343095Y-31519761D01*
X14247857Y-31567380D01*
X14152619Y-31567380D01*
X14057380Y-31519761D01*
X14009761Y-31472142D01*
X13962142Y-31376904D01*
X13914523Y-31186428D01*
X13914523Y-30948333D01*
X13962142Y-30757857D01*
X14009761Y-30662619D01*
X14057380Y-30615000D01*
X14152619Y-30567380D01*
X15105000Y-30567380D02*
X15200238Y-30567380D01*
X15295476Y-30615000D01*
X15343095Y-30662619D01*
X15390714Y-30757857D01*
X15438333Y-30948333D01*
X15438333Y-31186428D01*
X15390714Y-31376904D01*
X15343095Y-31472142D01*
X15295476Y-31519761D01*
X15200238Y-31567380D01*
X15105000Y-31567380D01*
X15009761Y-31519761D01*
X14962142Y-31472142D01*
X14914523Y-31376904D01*
X14866904Y-31186428D01*
X14866904Y-30948333D01*
X14914523Y-30757857D01*
X14962142Y-30662619D01*
X15009761Y-30615000D01*
X15105000Y-30567380D01*
X15866904Y-31567380D02*
X15866904Y-30567380D01*
X15962142Y-31186428D02*
X16247857Y-31567380D01*
X16247857Y-30900714D02*
X15866904Y-31281666D01*
G04 #@! TO.C,R6*
D13*
X15125000Y-1586666D02*
X14725000Y-1586666D01*
X14925000Y-1586666D02*
X14925000Y-886666D01*
X14858333Y-986666D01*
X14791666Y-1053333D01*
X14725000Y-1086666D01*
X15558333Y-886666D02*
X15625000Y-886666D01*
X15691666Y-920000D01*
X15725000Y-953333D01*
X15758333Y-1020000D01*
X15791666Y-1153333D01*
X15791666Y-1320000D01*
X15758333Y-1453333D01*
X15725000Y-1520000D01*
X15691666Y-1553333D01*
X15625000Y-1586666D01*
X15558333Y-1586666D01*
X15491666Y-1553333D01*
X15458333Y-1520000D01*
X15425000Y-1453333D01*
X15391666Y-1320000D01*
X15391666Y-1153333D01*
X15425000Y-1020000D01*
X15458333Y-953333D01*
X15491666Y-920000D01*
X15558333Y-886666D01*
X16225000Y-886666D02*
X16291666Y-886666D01*
X16358333Y-920000D01*
X16391666Y-953333D01*
X16425000Y-1020000D01*
X16458333Y-1153333D01*
X16458333Y-1320000D01*
X16425000Y-1453333D01*
X16391666Y-1520000D01*
X16358333Y-1553333D01*
X16291666Y-1586666D01*
X16225000Y-1586666D01*
X16158333Y-1553333D01*
X16125000Y-1520000D01*
X16091666Y-1453333D01*
X16058333Y-1320000D01*
X16058333Y-1153333D01*
X16091666Y-1020000D01*
X16125000Y-953333D01*
X16158333Y-920000D01*
X16225000Y-886666D01*
X16758333Y-1586666D02*
X16758333Y-886666D01*
X16825000Y-1320000D02*
X17025000Y-1586666D01*
X17025000Y-1120000D02*
X16758333Y-1386666D01*
G04 #@! TO.C,R4*
X16191666Y-14798333D02*
X16191666Y-15198333D01*
X16191666Y-14998333D02*
X15491666Y-14998333D01*
X15591666Y-15065000D01*
X15658333Y-15131666D01*
X15691666Y-15198333D01*
X15491666Y-14365000D02*
X15491666Y-14298333D01*
X15525000Y-14231666D01*
X15558333Y-14198333D01*
X15625000Y-14165000D01*
X15758333Y-14131666D01*
X15925000Y-14131666D01*
X16058333Y-14165000D01*
X16125000Y-14198333D01*
X16158333Y-14231666D01*
X16191666Y-14298333D01*
X16191666Y-14365000D01*
X16158333Y-14431666D01*
X16125000Y-14465000D01*
X16058333Y-14498333D01*
X15925000Y-14531666D01*
X15758333Y-14531666D01*
X15625000Y-14498333D01*
X15558333Y-14465000D01*
X15525000Y-14431666D01*
X15491666Y-14365000D01*
X15491666Y-13698333D02*
X15491666Y-13631666D01*
X15525000Y-13565000D01*
X15558333Y-13531666D01*
X15625000Y-13498333D01*
X15758333Y-13465000D01*
X15925000Y-13465000D01*
X16058333Y-13498333D01*
X16125000Y-13531666D01*
X16158333Y-13565000D01*
X16191666Y-13631666D01*
X16191666Y-13698333D01*
X16158333Y-13765000D01*
X16125000Y-13798333D01*
X16058333Y-13831666D01*
X15925000Y-13865000D01*
X15758333Y-13865000D01*
X15625000Y-13831666D01*
X15558333Y-13798333D01*
X15525000Y-13765000D01*
X15491666Y-13698333D01*
X16191666Y-13165000D02*
X15491666Y-13165000D01*
X15925000Y-13098333D02*
X16191666Y-12898333D01*
X15725000Y-12898333D02*
X15991666Y-13165000D01*
G04 #@! TO.C,U4*
D11*
X25487380Y-9104047D02*
X25487380Y-8532619D01*
X26487380Y-8818333D02*
X25487380Y-8818333D01*
X26487380Y-7723095D02*
X26487380Y-8199285D01*
X25487380Y-8199285D01*
X25487380Y-7199285D02*
X25487380Y-7104047D01*
X25535000Y-7008809D01*
X25582619Y-6961190D01*
X25677857Y-6913571D01*
X25868333Y-6865952D01*
X26106428Y-6865952D01*
X26296904Y-6913571D01*
X26392142Y-6961190D01*
X26439761Y-7008809D01*
X26487380Y-7104047D01*
X26487380Y-7199285D01*
X26439761Y-7294523D01*
X26392142Y-7342142D01*
X26296904Y-7389761D01*
X26106428Y-7437380D01*
X25868333Y-7437380D01*
X25677857Y-7389761D01*
X25582619Y-7342142D01*
X25535000Y-7294523D01*
X25487380Y-7199285D01*
X25487380Y-6532619D02*
X25487380Y-5865952D01*
X26487380Y-6294523D01*
X26487380Y-4961190D02*
X26487380Y-5532619D01*
X26487380Y-5246904D02*
X25487380Y-5246904D01*
X25630238Y-5342142D01*
X25725476Y-5437380D01*
X25773095Y-5532619D01*
G04 #@! TO.C,U1*
X25487380Y-47839047D02*
X25487380Y-47267619D01*
X26487380Y-47553333D02*
X25487380Y-47553333D01*
X26487380Y-46458095D02*
X26487380Y-46934285D01*
X25487380Y-46934285D01*
X25487380Y-45934285D02*
X25487380Y-45839047D01*
X25535000Y-45743809D01*
X25582619Y-45696190D01*
X25677857Y-45648571D01*
X25868333Y-45600952D01*
X26106428Y-45600952D01*
X26296904Y-45648571D01*
X26392142Y-45696190D01*
X26439761Y-45743809D01*
X26487380Y-45839047D01*
X26487380Y-45934285D01*
X26439761Y-46029523D01*
X26392142Y-46077142D01*
X26296904Y-46124761D01*
X26106428Y-46172380D01*
X25868333Y-46172380D01*
X25677857Y-46124761D01*
X25582619Y-46077142D01*
X25535000Y-46029523D01*
X25487380Y-45934285D01*
X25487380Y-45267619D02*
X25487380Y-44600952D01*
X26487380Y-45029523D01*
X26487380Y-43696190D02*
X26487380Y-44267619D01*
X26487380Y-43981904D02*
X25487380Y-43981904D01*
X25630238Y-44077142D01*
X25725476Y-44172380D01*
X25773095Y-44267619D01*
G04 #@! TO.C,C10*
D13*
X17461666Y-23903333D02*
X17461666Y-24303333D01*
X17461666Y-24103333D02*
X16761666Y-24103333D01*
X16861666Y-24170000D01*
X16928333Y-24236666D01*
X16961666Y-24303333D01*
X16761666Y-23470000D02*
X16761666Y-23403333D01*
X16795000Y-23336666D01*
X16828333Y-23303333D01*
X16895000Y-23270000D01*
X17028333Y-23236666D01*
X17195000Y-23236666D01*
X17328333Y-23270000D01*
X17395000Y-23303333D01*
X17428333Y-23336666D01*
X17461666Y-23403333D01*
X17461666Y-23470000D01*
X17428333Y-23536666D01*
X17395000Y-23570000D01*
X17328333Y-23603333D01*
X17195000Y-23636666D01*
X17028333Y-23636666D01*
X16895000Y-23603333D01*
X16828333Y-23570000D01*
X16795000Y-23536666D01*
X16761666Y-23470000D01*
X16761666Y-22803333D02*
X16761666Y-22736666D01*
X16795000Y-22670000D01*
X16828333Y-22636666D01*
X16895000Y-22603333D01*
X17028333Y-22570000D01*
X17195000Y-22570000D01*
X17328333Y-22603333D01*
X17395000Y-22636666D01*
X17428333Y-22670000D01*
X17461666Y-22736666D01*
X17461666Y-22803333D01*
X17428333Y-22870000D01*
X17395000Y-22903333D01*
X17328333Y-22936666D01*
X17195000Y-22970000D01*
X17028333Y-22970000D01*
X16895000Y-22936666D01*
X16828333Y-22903333D01*
X16795000Y-22870000D01*
X16761666Y-22803333D01*
X16995000Y-22270000D02*
X17461666Y-22270000D01*
X17061666Y-22270000D02*
X17028333Y-22236666D01*
X16995000Y-22170000D01*
X16995000Y-22070000D01*
X17028333Y-22003333D01*
X17095000Y-21970000D01*
X17461666Y-21970000D01*
X17095000Y-21403333D02*
X17095000Y-21636666D01*
X17461666Y-21636666D02*
X16761666Y-21636666D01*
X16761666Y-21303333D01*
G04 #@! TO.C,C9*
X24951666Y-14286666D02*
X24551666Y-14286666D01*
X24751666Y-14286666D02*
X24751666Y-13586666D01*
X24685000Y-13686666D01*
X24618333Y-13753333D01*
X24551666Y-13786666D01*
X25385000Y-13586666D02*
X25451666Y-13586666D01*
X25518333Y-13620000D01*
X25551666Y-13653333D01*
X25585000Y-13720000D01*
X25618333Y-13853333D01*
X25618333Y-14020000D01*
X25585000Y-14153333D01*
X25551666Y-14220000D01*
X25518333Y-14253333D01*
X25451666Y-14286666D01*
X25385000Y-14286666D01*
X25318333Y-14253333D01*
X25285000Y-14220000D01*
X25251666Y-14153333D01*
X25218333Y-14020000D01*
X25218333Y-13853333D01*
X25251666Y-13720000D01*
X25285000Y-13653333D01*
X25318333Y-13620000D01*
X25385000Y-13586666D01*
X26051666Y-13586666D02*
X26118333Y-13586666D01*
X26185000Y-13620000D01*
X26218333Y-13653333D01*
X26251666Y-13720000D01*
X26285000Y-13853333D01*
X26285000Y-14020000D01*
X26251666Y-14153333D01*
X26218333Y-14220000D01*
X26185000Y-14253333D01*
X26118333Y-14286666D01*
X26051666Y-14286666D01*
X25985000Y-14253333D01*
X25951666Y-14220000D01*
X25918333Y-14153333D01*
X25885000Y-14020000D01*
X25885000Y-13853333D01*
X25918333Y-13720000D01*
X25951666Y-13653333D01*
X25985000Y-13620000D01*
X26051666Y-13586666D01*
X26585000Y-13820000D02*
X26585000Y-14286666D01*
X26585000Y-13886666D02*
X26618333Y-13853333D01*
X26685000Y-13820000D01*
X26785000Y-13820000D01*
X26851666Y-13853333D01*
X26885000Y-13920000D01*
X26885000Y-14286666D01*
X27451666Y-13920000D02*
X27218333Y-13920000D01*
X27218333Y-14286666D02*
X27218333Y-13586666D01*
X27551666Y-13586666D01*
G04 #@! TO.C,C8*
X17461666Y-62678333D02*
X17461666Y-63078333D01*
X17461666Y-62878333D02*
X16761666Y-62878333D01*
X16861666Y-62945000D01*
X16928333Y-63011666D01*
X16961666Y-63078333D01*
X16761666Y-62245000D02*
X16761666Y-62178333D01*
X16795000Y-62111666D01*
X16828333Y-62078333D01*
X16895000Y-62045000D01*
X17028333Y-62011666D01*
X17195000Y-62011666D01*
X17328333Y-62045000D01*
X17395000Y-62078333D01*
X17428333Y-62111666D01*
X17461666Y-62178333D01*
X17461666Y-62245000D01*
X17428333Y-62311666D01*
X17395000Y-62345000D01*
X17328333Y-62378333D01*
X17195000Y-62411666D01*
X17028333Y-62411666D01*
X16895000Y-62378333D01*
X16828333Y-62345000D01*
X16795000Y-62311666D01*
X16761666Y-62245000D01*
X16761666Y-61578333D02*
X16761666Y-61511666D01*
X16795000Y-61445000D01*
X16828333Y-61411666D01*
X16895000Y-61378333D01*
X17028333Y-61345000D01*
X17195000Y-61345000D01*
X17328333Y-61378333D01*
X17395000Y-61411666D01*
X17428333Y-61445000D01*
X17461666Y-61511666D01*
X17461666Y-61578333D01*
X17428333Y-61645000D01*
X17395000Y-61678333D01*
X17328333Y-61711666D01*
X17195000Y-61745000D01*
X17028333Y-61745000D01*
X16895000Y-61711666D01*
X16828333Y-61678333D01*
X16795000Y-61645000D01*
X16761666Y-61578333D01*
X16995000Y-61045000D02*
X17461666Y-61045000D01*
X17061666Y-61045000D02*
X17028333Y-61011666D01*
X16995000Y-60945000D01*
X16995000Y-60845000D01*
X17028333Y-60778333D01*
X17095000Y-60745000D01*
X17461666Y-60745000D01*
X17095000Y-60178333D02*
X17095000Y-60411666D01*
X17461666Y-60411666D02*
X16761666Y-60411666D01*
X16761666Y-60078333D01*
G04 #@! TO.C,U3*
D11*
X24582380Y-23137619D02*
X24582380Y-23613809D01*
X23582380Y-23613809D01*
X24058571Y-22470952D02*
X24058571Y-22804285D01*
X24582380Y-22804285D02*
X23582380Y-22804285D01*
X23582380Y-22328095D01*
X23582380Y-22042380D02*
X23582380Y-21423333D01*
X23963333Y-21756666D01*
X23963333Y-21613809D01*
X24010952Y-21518571D01*
X24058571Y-21470952D01*
X24153809Y-21423333D01*
X24391904Y-21423333D01*
X24487142Y-21470952D01*
X24534761Y-21518571D01*
X24582380Y-21613809D01*
X24582380Y-21899523D01*
X24534761Y-21994761D01*
X24487142Y-22042380D01*
X24582380Y-20947142D02*
X24582380Y-20756666D01*
X24534761Y-20661428D01*
X24487142Y-20613809D01*
X24344285Y-20518571D01*
X24153809Y-20470952D01*
X23772857Y-20470952D01*
X23677619Y-20518571D01*
X23630000Y-20566190D01*
X23582380Y-20661428D01*
X23582380Y-20851904D01*
X23630000Y-20947142D01*
X23677619Y-20994761D01*
X23772857Y-21042380D01*
X24010952Y-21042380D01*
X24106190Y-20994761D01*
X24153809Y-20947142D01*
X24201428Y-20851904D01*
X24201428Y-20661428D01*
X24153809Y-20566190D01*
X24106190Y-20518571D01*
X24010952Y-20470952D01*
X24010952Y-19899523D02*
X23963333Y-19994761D01*
X23915714Y-20042380D01*
X23820476Y-20090000D01*
X23772857Y-20090000D01*
X23677619Y-20042380D01*
X23630000Y-19994761D01*
X23582380Y-19899523D01*
X23582380Y-19709047D01*
X23630000Y-19613809D01*
X23677619Y-19566190D01*
X23772857Y-19518571D01*
X23820476Y-19518571D01*
X23915714Y-19566190D01*
X23963333Y-19613809D01*
X24010952Y-19709047D01*
X24010952Y-19899523D01*
X24058571Y-19994761D01*
X24106190Y-20042380D01*
X24201428Y-20090000D01*
X24391904Y-20090000D01*
X24487142Y-20042380D01*
X24534761Y-19994761D01*
X24582380Y-19899523D01*
X24582380Y-19709047D01*
X24534761Y-19613809D01*
X24487142Y-19566190D01*
X24391904Y-19518571D01*
X24201428Y-19518571D01*
X24106190Y-19566190D01*
X24058571Y-19613809D01*
X24010952Y-19709047D01*
G04 #@! TO.C,U2*
X24582380Y-61872619D02*
X24582380Y-62348809D01*
X23582380Y-62348809D01*
X24058571Y-61205952D02*
X24058571Y-61539285D01*
X24582380Y-61539285D02*
X23582380Y-61539285D01*
X23582380Y-61063095D01*
X23582380Y-60777380D02*
X23582380Y-60158333D01*
X23963333Y-60491666D01*
X23963333Y-60348809D01*
X24010952Y-60253571D01*
X24058571Y-60205952D01*
X24153809Y-60158333D01*
X24391904Y-60158333D01*
X24487142Y-60205952D01*
X24534761Y-60253571D01*
X24582380Y-60348809D01*
X24582380Y-60634523D01*
X24534761Y-60729761D01*
X24487142Y-60777380D01*
X24582380Y-59682142D02*
X24582380Y-59491666D01*
X24534761Y-59396428D01*
X24487142Y-59348809D01*
X24344285Y-59253571D01*
X24153809Y-59205952D01*
X23772857Y-59205952D01*
X23677619Y-59253571D01*
X23630000Y-59301190D01*
X23582380Y-59396428D01*
X23582380Y-59586904D01*
X23630000Y-59682142D01*
X23677619Y-59729761D01*
X23772857Y-59777380D01*
X24010952Y-59777380D01*
X24106190Y-59729761D01*
X24153809Y-59682142D01*
X24201428Y-59586904D01*
X24201428Y-59396428D01*
X24153809Y-59301190D01*
X24106190Y-59253571D01*
X24010952Y-59205952D01*
X24010952Y-58634523D02*
X23963333Y-58729761D01*
X23915714Y-58777380D01*
X23820476Y-58825000D01*
X23772857Y-58825000D01*
X23677619Y-58777380D01*
X23630000Y-58729761D01*
X23582380Y-58634523D01*
X23582380Y-58444047D01*
X23630000Y-58348809D01*
X23677619Y-58301190D01*
X23772857Y-58253571D01*
X23820476Y-58253571D01*
X23915714Y-58301190D01*
X23963333Y-58348809D01*
X24010952Y-58444047D01*
X24010952Y-58634523D01*
X24058571Y-58729761D01*
X24106190Y-58777380D01*
X24201428Y-58825000D01*
X24391904Y-58825000D01*
X24487142Y-58777380D01*
X24534761Y-58729761D01*
X24582380Y-58634523D01*
X24582380Y-58444047D01*
X24534761Y-58348809D01*
X24487142Y-58301190D01*
X24391904Y-58253571D01*
X24201428Y-58253571D01*
X24106190Y-58301190D01*
X24058571Y-58348809D01*
X24010952Y-58444047D01*
G04 #@! TO.C,R14*
X24010952Y-29662380D02*
X23439523Y-29662380D01*
X23725238Y-29662380D02*
X23725238Y-28662380D01*
X23630000Y-28805238D01*
X23534761Y-28900476D01*
X23439523Y-28948095D01*
X24439523Y-29662380D02*
X24439523Y-28662380D01*
X24534761Y-29281428D02*
X24820476Y-29662380D01*
X24820476Y-28995714D02*
X24439523Y-29376666D01*
G04 #@! TO.C,R13*
X24010952Y-68397380D02*
X23439523Y-68397380D01*
X23725238Y-68397380D02*
X23725238Y-67397380D01*
X23630000Y-67540238D01*
X23534761Y-67635476D01*
X23439523Y-67683095D01*
X24439523Y-68397380D02*
X24439523Y-67397380D01*
X24534761Y-68016428D02*
X24820476Y-68397380D01*
X24820476Y-67730714D02*
X24439523Y-68111666D01*
G04 #@! TO.C,R12*
X36647380Y-10596428D02*
X36647380Y-11167857D01*
X36647380Y-10882142D02*
X35647380Y-10882142D01*
X35790238Y-10977380D01*
X35885476Y-11072619D01*
X35933095Y-11167857D01*
X35647380Y-9977380D02*
X35647380Y-9882142D01*
X35695000Y-9786904D01*
X35742619Y-9739285D01*
X35837857Y-9691666D01*
X36028333Y-9644047D01*
X36266428Y-9644047D01*
X36456904Y-9691666D01*
X36552142Y-9739285D01*
X36599761Y-9786904D01*
X36647380Y-9882142D01*
X36647380Y-9977380D01*
X36599761Y-10072619D01*
X36552142Y-10120238D01*
X36456904Y-10167857D01*
X36266428Y-10215476D01*
X36028333Y-10215476D01*
X35837857Y-10167857D01*
X35742619Y-10120238D01*
X35695000Y-10072619D01*
X35647380Y-9977380D01*
X35647380Y-9025000D02*
X35647380Y-8929761D01*
X35695000Y-8834523D01*
X35742619Y-8786904D01*
X35837857Y-8739285D01*
X36028333Y-8691666D01*
X36266428Y-8691666D01*
X36456904Y-8739285D01*
X36552142Y-8786904D01*
X36599761Y-8834523D01*
X36647380Y-8929761D01*
X36647380Y-9025000D01*
X36599761Y-9120238D01*
X36552142Y-9167857D01*
X36456904Y-9215476D01*
X36266428Y-9263095D01*
X36028333Y-9263095D01*
X35837857Y-9215476D01*
X35742619Y-9167857D01*
X35695000Y-9120238D01*
X35647380Y-9025000D01*
X36647380Y-8263095D02*
X35647380Y-8263095D01*
X36266428Y-8167857D02*
X36647380Y-7882142D01*
X35980714Y-7882142D02*
X36361666Y-8263095D01*
G04 #@! TO.C,R11*
X36647380Y-49331428D02*
X36647380Y-49902857D01*
X36647380Y-49617142D02*
X35647380Y-49617142D01*
X35790238Y-49712380D01*
X35885476Y-49807619D01*
X35933095Y-49902857D01*
X35647380Y-48712380D02*
X35647380Y-48617142D01*
X35695000Y-48521904D01*
X35742619Y-48474285D01*
X35837857Y-48426666D01*
X36028333Y-48379047D01*
X36266428Y-48379047D01*
X36456904Y-48426666D01*
X36552142Y-48474285D01*
X36599761Y-48521904D01*
X36647380Y-48617142D01*
X36647380Y-48712380D01*
X36599761Y-48807619D01*
X36552142Y-48855238D01*
X36456904Y-48902857D01*
X36266428Y-48950476D01*
X36028333Y-48950476D01*
X35837857Y-48902857D01*
X35742619Y-48855238D01*
X35695000Y-48807619D01*
X35647380Y-48712380D01*
X35647380Y-47760000D02*
X35647380Y-47664761D01*
X35695000Y-47569523D01*
X35742619Y-47521904D01*
X35837857Y-47474285D01*
X36028333Y-47426666D01*
X36266428Y-47426666D01*
X36456904Y-47474285D01*
X36552142Y-47521904D01*
X36599761Y-47569523D01*
X36647380Y-47664761D01*
X36647380Y-47760000D01*
X36599761Y-47855238D01*
X36552142Y-47902857D01*
X36456904Y-47950476D01*
X36266428Y-47998095D01*
X36028333Y-47998095D01*
X35837857Y-47950476D01*
X35742619Y-47902857D01*
X35695000Y-47855238D01*
X35647380Y-47760000D01*
X36647380Y-46998095D02*
X35647380Y-46998095D01*
X36266428Y-46902857D02*
X36647380Y-46617142D01*
X35980714Y-46617142D02*
X36361666Y-46998095D01*
G04 #@! TO.C,C7*
D13*
X32905000Y-23176666D02*
X32505000Y-23176666D01*
X32705000Y-23176666D02*
X32705000Y-22476666D01*
X32638333Y-22576666D01*
X32571666Y-22643333D01*
X32505000Y-22676666D01*
X33338333Y-22476666D02*
X33405000Y-22476666D01*
X33471666Y-22510000D01*
X33505000Y-22543333D01*
X33538333Y-22610000D01*
X33571666Y-22743333D01*
X33571666Y-22910000D01*
X33538333Y-23043333D01*
X33505000Y-23110000D01*
X33471666Y-23143333D01*
X33405000Y-23176666D01*
X33338333Y-23176666D01*
X33271666Y-23143333D01*
X33238333Y-23110000D01*
X33205000Y-23043333D01*
X33171666Y-22910000D01*
X33171666Y-22743333D01*
X33205000Y-22610000D01*
X33238333Y-22543333D01*
X33271666Y-22510000D01*
X33338333Y-22476666D01*
X33871666Y-22710000D02*
X33871666Y-23176666D01*
X33871666Y-22776666D02*
X33905000Y-22743333D01*
X33971666Y-22710000D01*
X34071666Y-22710000D01*
X34138333Y-22743333D01*
X34171666Y-22810000D01*
X34171666Y-23176666D01*
X34738333Y-22810000D02*
X34505000Y-22810000D01*
X34505000Y-23176666D02*
X34505000Y-22476666D01*
X34838333Y-22476666D01*
G04 #@! TO.C,C6*
X32865000Y-61911666D02*
X32465000Y-61911666D01*
X32665000Y-61911666D02*
X32665000Y-61211666D01*
X32598333Y-61311666D01*
X32531666Y-61378333D01*
X32465000Y-61411666D01*
X33298333Y-61211666D02*
X33365000Y-61211666D01*
X33431666Y-61245000D01*
X33465000Y-61278333D01*
X33498333Y-61345000D01*
X33531666Y-61478333D01*
X33531666Y-61645000D01*
X33498333Y-61778333D01*
X33465000Y-61845000D01*
X33431666Y-61878333D01*
X33365000Y-61911666D01*
X33298333Y-61911666D01*
X33231666Y-61878333D01*
X33198333Y-61845000D01*
X33165000Y-61778333D01*
X33131666Y-61645000D01*
X33131666Y-61478333D01*
X33165000Y-61345000D01*
X33198333Y-61278333D01*
X33231666Y-61245000D01*
X33298333Y-61211666D01*
X33831666Y-61445000D02*
X33831666Y-61911666D01*
X33831666Y-61511666D02*
X33865000Y-61478333D01*
X33931666Y-61445000D01*
X34031666Y-61445000D01*
X34098333Y-61478333D01*
X34131666Y-61545000D01*
X34131666Y-61911666D01*
X34698333Y-61545000D02*
X34465000Y-61545000D01*
X34465000Y-61911666D02*
X34465000Y-61211666D01*
X34798333Y-61211666D01*
G04 #@! TO.C,C5*
X18135714Y-70846904D02*
X17678571Y-70846904D01*
X17907142Y-70846904D02*
X17907142Y-70046904D01*
X17830952Y-70161190D01*
X17754761Y-70237380D01*
X17678571Y-70275476D01*
X18630952Y-70046904D02*
X18707142Y-70046904D01*
X18783333Y-70085000D01*
X18821428Y-70123095D01*
X18859523Y-70199285D01*
X18897619Y-70351666D01*
X18897619Y-70542142D01*
X18859523Y-70694523D01*
X18821428Y-70770714D01*
X18783333Y-70808809D01*
X18707142Y-70846904D01*
X18630952Y-70846904D01*
X18554761Y-70808809D01*
X18516666Y-70770714D01*
X18478571Y-70694523D01*
X18440476Y-70542142D01*
X18440476Y-70351666D01*
X18478571Y-70199285D01*
X18516666Y-70123095D01*
X18554761Y-70085000D01*
X18630952Y-70046904D01*
X19240476Y-70313571D02*
X19240476Y-71113571D01*
X19621428Y-70732619D02*
X19659523Y-70808809D01*
X19735714Y-70846904D01*
X19240476Y-70732619D02*
X19278571Y-70808809D01*
X19354761Y-70846904D01*
X19507142Y-70846904D01*
X19583333Y-70808809D01*
X19621428Y-70732619D01*
X19621428Y-70313571D01*
X20345238Y-70427857D02*
X20078571Y-70427857D01*
X20078571Y-70846904D02*
X20078571Y-70046904D01*
X20459523Y-70046904D01*
G04 #@! TO.C,C4*
X32740714Y-65131904D02*
X32283571Y-65131904D01*
X32512142Y-65131904D02*
X32512142Y-64331904D01*
X32435952Y-64446190D01*
X32359761Y-64522380D01*
X32283571Y-64560476D01*
X33235952Y-64331904D02*
X33312142Y-64331904D01*
X33388333Y-64370000D01*
X33426428Y-64408095D01*
X33464523Y-64484285D01*
X33502619Y-64636666D01*
X33502619Y-64827142D01*
X33464523Y-64979523D01*
X33426428Y-65055714D01*
X33388333Y-65093809D01*
X33312142Y-65131904D01*
X33235952Y-65131904D01*
X33159761Y-65093809D01*
X33121666Y-65055714D01*
X33083571Y-64979523D01*
X33045476Y-64827142D01*
X33045476Y-64636666D01*
X33083571Y-64484285D01*
X33121666Y-64408095D01*
X33159761Y-64370000D01*
X33235952Y-64331904D01*
X33845476Y-64598571D02*
X33845476Y-65398571D01*
X34226428Y-65017619D02*
X34264523Y-65093809D01*
X34340714Y-65131904D01*
X33845476Y-65017619D02*
X33883571Y-65093809D01*
X33959761Y-65131904D01*
X34112142Y-65131904D01*
X34188333Y-65093809D01*
X34226428Y-65017619D01*
X34226428Y-64598571D01*
X34950238Y-64712857D02*
X34683571Y-64712857D01*
X34683571Y-65131904D02*
X34683571Y-64331904D01*
X35064523Y-64331904D01*
G04 #@! TO.C,C3*
X24951666Y-53021666D02*
X24551666Y-53021666D01*
X24751666Y-53021666D02*
X24751666Y-52321666D01*
X24685000Y-52421666D01*
X24618333Y-52488333D01*
X24551666Y-52521666D01*
X25385000Y-52321666D02*
X25451666Y-52321666D01*
X25518333Y-52355000D01*
X25551666Y-52388333D01*
X25585000Y-52455000D01*
X25618333Y-52588333D01*
X25618333Y-52755000D01*
X25585000Y-52888333D01*
X25551666Y-52955000D01*
X25518333Y-52988333D01*
X25451666Y-53021666D01*
X25385000Y-53021666D01*
X25318333Y-52988333D01*
X25285000Y-52955000D01*
X25251666Y-52888333D01*
X25218333Y-52755000D01*
X25218333Y-52588333D01*
X25251666Y-52455000D01*
X25285000Y-52388333D01*
X25318333Y-52355000D01*
X25385000Y-52321666D01*
X26051666Y-52321666D02*
X26118333Y-52321666D01*
X26185000Y-52355000D01*
X26218333Y-52388333D01*
X26251666Y-52455000D01*
X26285000Y-52588333D01*
X26285000Y-52755000D01*
X26251666Y-52888333D01*
X26218333Y-52955000D01*
X26185000Y-52988333D01*
X26118333Y-53021666D01*
X26051666Y-53021666D01*
X25985000Y-52988333D01*
X25951666Y-52955000D01*
X25918333Y-52888333D01*
X25885000Y-52755000D01*
X25885000Y-52588333D01*
X25918333Y-52455000D01*
X25951666Y-52388333D01*
X25985000Y-52355000D01*
X26051666Y-52321666D01*
X26585000Y-52555000D02*
X26585000Y-53021666D01*
X26585000Y-52621666D02*
X26618333Y-52588333D01*
X26685000Y-52555000D01*
X26785000Y-52555000D01*
X26851666Y-52588333D01*
X26885000Y-52655000D01*
X26885000Y-53021666D01*
X27451666Y-52655000D02*
X27218333Y-52655000D01*
X27218333Y-53021666D02*
X27218333Y-52321666D01*
X27551666Y-52321666D01*
G04 #@! TO.C,C2*
X33336666Y-11211666D02*
X33336666Y-11611666D01*
X33336666Y-11411666D02*
X32636666Y-11411666D01*
X32736666Y-11478333D01*
X32803333Y-11545000D01*
X32836666Y-11611666D01*
X32870000Y-10911666D02*
X33336666Y-10911666D01*
X32936666Y-10911666D02*
X32903333Y-10878333D01*
X32870000Y-10811666D01*
X32870000Y-10711666D01*
X32903333Y-10645000D01*
X32970000Y-10611666D01*
X33336666Y-10611666D01*
X32970000Y-10045000D02*
X32970000Y-10278333D01*
X33336666Y-10278333D02*
X32636666Y-10278333D01*
X32636666Y-9945000D01*
G04 #@! TO.C,C1*
X33336666Y-49986666D02*
X33336666Y-50386666D01*
X33336666Y-50186666D02*
X32636666Y-50186666D01*
X32736666Y-50253333D01*
X32803333Y-50320000D01*
X32836666Y-50386666D01*
X32870000Y-49686666D02*
X33336666Y-49686666D01*
X32936666Y-49686666D02*
X32903333Y-49653333D01*
X32870000Y-49586666D01*
X32870000Y-49486666D01*
X32903333Y-49420000D01*
X32970000Y-49386666D01*
X33336666Y-49386666D01*
X32970000Y-48820000D02*
X32970000Y-49053333D01*
X33336666Y-49053333D02*
X32636666Y-49053333D01*
X32636666Y-48720000D01*
G04 #@! TD*
M02*
