G04 #@! TF.GenerationSoftware,KiCad,Pcbnew,(5.1.9)-1*
G04 #@! TF.CreationDate,2021-04-11T10:04:50+02:00*
G04 #@! TF.ProjectId,S&H Main,53264820-4d61-4696-9e2e-6b696361645f,rev?*
G04 #@! TF.SameCoordinates,Original*
G04 #@! TF.FileFunction,Copper,L1,Top*
G04 #@! TF.FilePolarity,Positive*
%FSLAX46Y46*%
G04 Gerber Fmt 4.6, Leading zero omitted, Abs format (unit mm)*
G04 Created by KiCad (PCBNEW (5.1.9)-1) date 2021-04-11 10:04:50*
%MOMM*%
%LPD*%
G01*
G04 APERTURE LIST*
G04 #@! TA.AperFunction,ComponentPad*
%ADD10O,2.300000X1.300000*%
G04 #@! TD*
G04 #@! TA.AperFunction,ComponentPad*
%ADD11O,2.300000X1.600000*%
G04 #@! TD*
G04 #@! TA.AperFunction,ComponentPad*
%ADD12O,1.600000X2.300000*%
G04 #@! TD*
G04 #@! TA.AperFunction,ComponentPad*
%ADD13O,1.600000X1.600000*%
G04 #@! TD*
G04 #@! TA.AperFunction,ComponentPad*
%ADD14C,1.600000*%
G04 #@! TD*
G04 #@! TA.AperFunction,ComponentPad*
%ADD15R,1.600000X1.600000*%
G04 #@! TD*
G04 #@! TA.AperFunction,ComponentPad*
%ADD16O,2.400000X1.600000*%
G04 #@! TD*
G04 #@! TA.AperFunction,ComponentPad*
%ADD17R,2.400000X1.600000*%
G04 #@! TD*
G04 #@! TA.AperFunction,ComponentPad*
%ADD18C,1.700000*%
G04 #@! TD*
G04 #@! TA.AperFunction,ViaPad*
%ADD19C,0.800000*%
G04 #@! TD*
G04 #@! TA.AperFunction,Conductor*
%ADD20C,0.250000*%
G04 #@! TD*
G04 #@! TA.AperFunction,Conductor*
%ADD21C,0.254000*%
G04 #@! TD*
G04 #@! TA.AperFunction,Conductor*
%ADD22C,0.100000*%
G04 #@! TD*
G04 APERTURE END LIST*
D10*
G04 #@! TO.P,J7,T*
G04 #@! TO.N,Net-(J7-PadT)*
X5900000Y-44170000D03*
G04 #@! TO.P,J7,*
G04 #@! TO.N,*
X9600000Y-34170000D03*
D11*
X8600000Y-36770000D03*
D12*
G04 #@! TO.P,J7,TN*
G04 #@! TO.N,N/C*
X13000000Y-43470000D03*
G04 #@! TO.P,J7,S*
G04 #@! TO.N,GND*
X1700000Y-39370000D03*
G04 #@! TD*
D10*
G04 #@! TO.P,J6,T*
G04 #@! TO.N,Net-(J6-PadT)*
X5900000Y-94970000D03*
G04 #@! TO.P,J6,*
G04 #@! TO.N,*
X9600000Y-84970000D03*
D11*
X8600000Y-87570000D03*
D12*
G04 #@! TO.P,J6,TN*
G04 #@! TO.N,N/C*
X13000000Y-94270000D03*
G04 #@! TO.P,J6,S*
G04 #@! TO.N,GND*
X1700000Y-90170000D03*
G04 #@! TD*
D10*
G04 #@! TO.P,J4,T*
G04 #@! TO.N,Net-(J2-PadTN)*
X5900000Y-28295000D03*
G04 #@! TO.P,J4,*
G04 #@! TO.N,*
X9600000Y-18295000D03*
D11*
X8600000Y-20895000D03*
D12*
G04 #@! TO.P,J4,TN*
G04 #@! TO.N,GND*
X13000000Y-27595000D03*
G04 #@! TO.P,J4,S*
X1700000Y-23495000D03*
G04 #@! TD*
D10*
G04 #@! TO.P,J3,T*
G04 #@! TO.N,Net-(J1-PadTN)*
X5900000Y-12420000D03*
G04 #@! TO.P,J3,*
G04 #@! TO.N,*
X9600000Y-2420000D03*
D11*
X8600000Y-5020000D03*
D12*
G04 #@! TO.P,J3,TN*
G04 #@! TO.N,GND*
X13000000Y-11720000D03*
G04 #@! TO.P,J3,S*
X1700000Y-7620000D03*
G04 #@! TD*
D10*
G04 #@! TO.P,J2,T*
G04 #@! TO.N,Net-(J2-PadT)*
X5900000Y-79095000D03*
G04 #@! TO.P,J2,*
G04 #@! TO.N,*
X9600000Y-69095000D03*
D11*
X8600000Y-71695000D03*
D12*
G04 #@! TO.P,J2,TN*
G04 #@! TO.N,Net-(J2-PadTN)*
X13000000Y-78395000D03*
G04 #@! TO.P,J2,S*
G04 #@! TO.N,GND*
X1700000Y-74295000D03*
G04 #@! TD*
D10*
G04 #@! TO.P,J1,T*
G04 #@! TO.N,Net-(J1-PadT)*
X5900000Y-63220000D03*
G04 #@! TO.P,J1,*
G04 #@! TO.N,*
X9600000Y-53220000D03*
D11*
X8600000Y-55820000D03*
D12*
G04 #@! TO.P,J1,TN*
G04 #@! TO.N,Net-(J1-PadTN)*
X13000000Y-62520000D03*
G04 #@! TO.P,J1,S*
G04 #@! TO.N,GND*
X1700000Y-58420000D03*
G04 #@! TD*
D13*
G04 #@! TO.P,R1,2*
G04 #@! TO.N,Net-(J2-PadT)*
X8255000Y-81915000D03*
D14*
G04 #@! TO.P,R1,1*
G04 #@! TO.N,GND*
X10795000Y-81915000D03*
G04 #@! TD*
D13*
G04 #@! TO.P,D1,2*
G04 #@! TO.N,Net-(C1-Pad1)*
X36195000Y-56515000D03*
D15*
G04 #@! TO.P,D1,1*
G04 #@! TO.N,Net-(D1-Pad1)*
X33655000Y-56515000D03*
G04 #@! TD*
D13*
G04 #@! TO.P,R8,2*
G04 #@! TO.N,Net-(R7-Pad2)*
X19050000Y-44450000D03*
D14*
G04 #@! TO.P,R8,1*
G04 #@! TO.N,GND*
X19050000Y-41910000D03*
G04 #@! TD*
D13*
G04 #@! TO.P,R7,2*
G04 #@! TO.N,Net-(R7-Pad2)*
X19050000Y-46990000D03*
D14*
G04 #@! TO.P,R7,1*
G04 #@! TO.N,+12V*
X19050000Y-49530000D03*
G04 #@! TD*
D13*
G04 #@! TO.P,R5,2*
G04 #@! TO.N,Net-(R3-Pad2)*
X15875000Y-44450000D03*
D14*
G04 #@! TO.P,R5,1*
G04 #@! TO.N,GND*
X15875000Y-41910000D03*
G04 #@! TD*
D13*
G04 #@! TO.P,R3,2*
G04 #@! TO.N,Net-(R3-Pad2)*
X15875000Y-46990000D03*
D14*
G04 #@! TO.P,R3,1*
G04 #@! TO.N,Net-(J1-PadT)*
X15875000Y-49530000D03*
G04 #@! TD*
D13*
G04 #@! TO.P,D2,2*
G04 #@! TO.N,Net-(C2-Pad1)*
X36195000Y-17780000D03*
D15*
G04 #@! TO.P,D2,1*
G04 #@! TO.N,Net-(D2-Pad1)*
X33655000Y-17780000D03*
G04 #@! TD*
D13*
G04 #@! TO.P,R10,2*
G04 #@! TO.N,Net-(R10-Pad2)*
X19050000Y-5715000D03*
D14*
G04 #@! TO.P,R10,1*
G04 #@! TO.N,GND*
X19050000Y-3175000D03*
G04 #@! TD*
D13*
G04 #@! TO.P,R9,2*
G04 #@! TO.N,Net-(R10-Pad2)*
X19050000Y-8255000D03*
D14*
G04 #@! TO.P,R9,1*
G04 #@! TO.N,+12V*
X19050000Y-10795000D03*
G04 #@! TD*
D13*
G04 #@! TO.P,R2,2*
G04 #@! TO.N,Net-(J2-PadTN)*
X8255000Y-31115000D03*
D14*
G04 #@! TO.P,R2,1*
G04 #@! TO.N,GND*
X10795000Y-31115000D03*
G04 #@! TD*
D13*
G04 #@! TO.P,R6,2*
G04 #@! TO.N,Net-(R4-Pad2)*
X15875000Y-5715000D03*
D14*
G04 #@! TO.P,R6,1*
G04 #@! TO.N,GND*
X15875000Y-3175000D03*
G04 #@! TD*
D13*
G04 #@! TO.P,R4,2*
G04 #@! TO.N,Net-(R4-Pad2)*
X15875000Y-8255000D03*
D14*
G04 #@! TO.P,R4,1*
G04 #@! TO.N,Net-(J1-PadTN)*
X15875000Y-10795000D03*
G04 #@! TD*
D16*
G04 #@! TO.P,U4,8*
G04 #@! TO.N,N/C*
X29845000Y-3175000D03*
G04 #@! TO.P,U4,4*
G04 #@! TO.N,-12V*
X22225000Y-10795000D03*
G04 #@! TO.P,U4,7*
G04 #@! TO.N,+12V*
X29845000Y-5715000D03*
G04 #@! TO.P,U4,3*
G04 #@! TO.N,Net-(R4-Pad2)*
X22225000Y-8255000D03*
G04 #@! TO.P,U4,6*
G04 #@! TO.N,Net-(C2-Pad2)*
X29845000Y-8255000D03*
G04 #@! TO.P,U4,2*
G04 #@! TO.N,Net-(R10-Pad2)*
X22225000Y-5715000D03*
G04 #@! TO.P,U4,5*
G04 #@! TO.N,N/C*
X29845000Y-10795000D03*
D17*
G04 #@! TO.P,U4,1*
X22225000Y-3175000D03*
G04 #@! TD*
D16*
G04 #@! TO.P,U1,8*
G04 #@! TO.N,N/C*
X29845000Y-41910000D03*
G04 #@! TO.P,U1,4*
G04 #@! TO.N,-12V*
X22225000Y-49530000D03*
G04 #@! TO.P,U1,7*
G04 #@! TO.N,+12V*
X29845000Y-44450000D03*
G04 #@! TO.P,U1,3*
G04 #@! TO.N,Net-(R3-Pad2)*
X22225000Y-46990000D03*
G04 #@! TO.P,U1,6*
G04 #@! TO.N,Net-(C1-Pad2)*
X29845000Y-46990000D03*
G04 #@! TO.P,U1,2*
G04 #@! TO.N,Net-(R7-Pad2)*
X22225000Y-44450000D03*
G04 #@! TO.P,U1,5*
G04 #@! TO.N,N/C*
X29845000Y-49530000D03*
D17*
G04 #@! TO.P,U1,1*
X22225000Y-41910000D03*
G04 #@! TD*
D14*
G04 #@! TO.P,C10,2*
G04 #@! TO.N,-12V*
X17145000Y-25320000D03*
G04 #@! TO.P,C10,1*
G04 #@! TO.N,+12V*
X17145000Y-20320000D03*
G04 #@! TD*
G04 #@! TO.P,C9,2*
G04 #@! TO.N,-12V*
X23575000Y-13970000D03*
G04 #@! TO.P,C9,1*
G04 #@! TO.N,+12V*
X28575000Y-13970000D03*
G04 #@! TD*
G04 #@! TO.P,C8,2*
G04 #@! TO.N,-12V*
X17145000Y-64055000D03*
G04 #@! TO.P,C8,1*
G04 #@! TO.N,+12V*
X17145000Y-59055000D03*
G04 #@! TD*
D16*
G04 #@! TO.P,U3,8*
G04 #@! TO.N,Net-(D2-Pad1)*
X27940000Y-17780000D03*
G04 #@! TO.P,U3,4*
G04 #@! TO.N,-12V*
X20320000Y-25400000D03*
G04 #@! TO.P,U3,7*
G04 #@! TO.N,GND*
X27940000Y-20320000D03*
G04 #@! TO.P,U3,3*
G04 #@! TO.N,Net-(J2-PadTN)*
X20320000Y-22860000D03*
G04 #@! TO.P,U3,6*
G04 #@! TO.N,Net-(C7-Pad1)*
X27940000Y-22860000D03*
G04 #@! TO.P,U3,2*
G04 #@! TO.N,N/C*
X20320000Y-20320000D03*
G04 #@! TO.P,U3,5*
G04 #@! TO.N,Net-(R14-Pad2)*
X27940000Y-25400000D03*
D17*
G04 #@! TO.P,U3,1*
G04 #@! TO.N,+12V*
X20320000Y-17780000D03*
G04 #@! TD*
D16*
G04 #@! TO.P,U2,8*
G04 #@! TO.N,Net-(D1-Pad1)*
X27940000Y-56515000D03*
G04 #@! TO.P,U2,4*
G04 #@! TO.N,-12V*
X20320000Y-64135000D03*
G04 #@! TO.P,U2,7*
G04 #@! TO.N,GND*
X27940000Y-59055000D03*
G04 #@! TO.P,U2,3*
G04 #@! TO.N,Net-(J2-PadT)*
X20320000Y-61595000D03*
G04 #@! TO.P,U2,6*
G04 #@! TO.N,Net-(C6-Pad1)*
X27940000Y-61595000D03*
G04 #@! TO.P,U2,2*
G04 #@! TO.N,N/C*
X20320000Y-59055000D03*
G04 #@! TO.P,U2,5*
G04 #@! TO.N,Net-(R13-Pad2)*
X27940000Y-64135000D03*
D17*
G04 #@! TO.P,U2,1*
G04 #@! TO.N,+12V*
X20320000Y-56515000D03*
G04 #@! TD*
D13*
G04 #@! TO.P,R14,2*
G04 #@! TO.N,Net-(R14-Pad2)*
X27940000Y-29210000D03*
D14*
G04 #@! TO.P,R14,1*
G04 #@! TO.N,Net-(J7-PadT)*
X20320000Y-29210000D03*
G04 #@! TD*
D13*
G04 #@! TO.P,R13,2*
G04 #@! TO.N,Net-(R13-Pad2)*
X27940000Y-67945000D03*
D14*
G04 #@! TO.P,R13,1*
G04 #@! TO.N,Net-(J6-PadT)*
X20320000Y-67945000D03*
G04 #@! TD*
D13*
G04 #@! TO.P,R12,2*
G04 #@! TO.N,Net-(C2-Pad1)*
X36195000Y-13335000D03*
D14*
G04 #@! TO.P,R12,1*
G04 #@! TO.N,GND*
X36195000Y-5715000D03*
G04 #@! TD*
D13*
G04 #@! TO.P,R11,2*
G04 #@! TO.N,Net-(C1-Pad1)*
X36195000Y-52070000D03*
D14*
G04 #@! TO.P,R11,1*
G04 #@! TO.N,GND*
X36195000Y-44450000D03*
G04 #@! TD*
D18*
G04 #@! TO.P,J5,16*
G04 #@! TO.N,N/C*
X27940000Y-96520000D03*
G04 #@! TO.P,J5,14*
X27940000Y-93980000D03*
G04 #@! TO.P,J5,12*
X27940000Y-91440000D03*
G04 #@! TO.P,J5,10*
G04 #@! TO.N,+12V*
X27940000Y-88900000D03*
G04 #@! TO.P,J5,8*
G04 #@! TO.N,GND*
X27940000Y-86360000D03*
G04 #@! TO.P,J5,6*
X27940000Y-83820000D03*
G04 #@! TO.P,J5,4*
X27940000Y-81280000D03*
G04 #@! TO.P,J5,2*
G04 #@! TO.N,-12V*
X27940000Y-78740000D03*
G04 #@! TO.P,J5,15*
G04 #@! TO.N,N/C*
X25400000Y-96520000D03*
G04 #@! TO.P,J5,13*
X25400000Y-93980000D03*
G04 #@! TO.P,J5,11*
X25400000Y-91440000D03*
G04 #@! TO.P,J5,9*
G04 #@! TO.N,+12V*
X25400000Y-88900000D03*
G04 #@! TO.P,J5,7*
G04 #@! TO.N,GND*
X25400000Y-86360000D03*
G04 #@! TO.P,J5,5*
X25400000Y-83820000D03*
G04 #@! TO.P,J5,3*
X25400000Y-81280000D03*
G04 #@! TO.P,J5,1*
G04 #@! TO.N,-12V*
G04 #@! TA.AperFunction,ComponentPad*
G36*
G01*
X24550000Y-79340000D02*
X24550000Y-78140000D01*
G75*
G02*
X24800000Y-77890000I250000J0D01*
G01*
X26000000Y-77890000D01*
G75*
G02*
X26250000Y-78140000I0J-250000D01*
G01*
X26250000Y-79340000D01*
G75*
G02*
X26000000Y-79590000I-250000J0D01*
G01*
X24800000Y-79590000D01*
G75*
G02*
X24550000Y-79340000I0J250000D01*
G01*
G37*
G04 #@! TD.AperFunction*
G04 #@! TD*
D14*
G04 #@! TO.P,C7,2*
G04 #@! TO.N,GND*
X36115000Y-22860000D03*
G04 #@! TO.P,C7,1*
G04 #@! TO.N,Net-(C7-Pad1)*
X31115000Y-22860000D03*
G04 #@! TD*
G04 #@! TO.P,C6,2*
G04 #@! TO.N,GND*
X36115000Y-61595000D03*
G04 #@! TO.P,C6,1*
G04 #@! TO.N,Net-(C6-Pad1)*
X31115000Y-61595000D03*
G04 #@! TD*
G04 #@! TO.P,C5,2*
G04 #@! TO.N,-12V*
X20320000Y-78700000D03*
D15*
G04 #@! TO.P,C5,1*
G04 #@! TO.N,GND*
X20320000Y-76200000D03*
G04 #@! TD*
D14*
G04 #@! TO.P,C4,2*
G04 #@! TO.N,GND*
X20320000Y-91400000D03*
D15*
G04 #@! TO.P,C4,1*
G04 #@! TO.N,+12V*
X20320000Y-88900000D03*
G04 #@! TD*
D14*
G04 #@! TO.P,C3,2*
G04 #@! TO.N,-12V*
X23575000Y-52705000D03*
G04 #@! TO.P,C3,1*
G04 #@! TO.N,+12V*
X28575000Y-52705000D03*
G04 #@! TD*
G04 #@! TO.P,C2,2*
G04 #@! TO.N,Net-(C2-Pad2)*
X33020000Y-8335000D03*
G04 #@! TO.P,C2,1*
G04 #@! TO.N,Net-(C2-Pad1)*
X33020000Y-13335000D03*
G04 #@! TD*
G04 #@! TO.P,C1,2*
G04 #@! TO.N,Net-(C1-Pad2)*
X33020000Y-47070000D03*
G04 #@! TO.P,C1,1*
G04 #@! TO.N,Net-(C1-Pad1)*
X33020000Y-52070000D03*
G04 #@! TD*
D19*
G04 #@! TO.N,Net-(J1-PadTN)*
X3175000Y-65405000D03*
G04 #@! TO.N,Net-(J2-PadTN)*
X11430000Y-39370000D03*
G04 #@! TD*
D20*
G04 #@! TO.N,-12V*
X23575000Y-13970000D02*
X23575000Y-24685000D01*
X22860000Y-25400000D02*
X20320000Y-25400000D01*
X23575000Y-24685000D02*
X22860000Y-25400000D01*
X23575000Y-24685000D02*
X23575000Y-28655000D01*
X23575000Y-28655000D02*
X26035000Y-31115000D01*
X26035000Y-31115000D02*
X26035000Y-48895000D01*
X25400000Y-49530000D02*
X22225000Y-49530000D01*
X26035000Y-48895000D02*
X25400000Y-49530000D01*
X23575000Y-52705000D02*
X23575000Y-63420000D01*
X22860000Y-64135000D02*
X20320000Y-64135000D01*
X23575000Y-63420000D02*
X22860000Y-64135000D01*
X22860000Y-64135000D02*
X22860000Y-78740000D01*
X20360000Y-78740000D02*
X20320000Y-78700000D01*
X22860000Y-78740000D02*
X20360000Y-78740000D01*
X22860000Y-78740000D02*
X25400000Y-78740000D01*
X25400000Y-78740000D02*
X27940000Y-78740000D01*
G04 #@! TO.N,Net-(J1-PadTN)*
X3175000Y-14605000D02*
X3175000Y-65405000D01*
X5360000Y-12420000D02*
X3175000Y-14605000D01*
X5900000Y-12420000D02*
X5360000Y-12420000D01*
X3175000Y-65405000D02*
X3175000Y-65405000D01*
G04 #@! TO.N,Net-(J2-PadTN)*
X11430000Y-77470000D02*
X12355000Y-78395000D01*
X12355000Y-78395000D02*
X13000000Y-78395000D01*
X11430000Y-39370000D02*
X11430000Y-77470000D01*
G04 #@! TD*
D21*
G04 #@! TO.N,GND*
X37440000Y-4989069D02*
X37431671Y-4973486D01*
X37187702Y-4901903D01*
X36374605Y-5715000D01*
X37187702Y-6528097D01*
X37431671Y-6456514D01*
X37440000Y-6438911D01*
X37440000Y-12615344D01*
X37309637Y-12420241D01*
X37109759Y-12220363D01*
X36874727Y-12063320D01*
X36613574Y-11955147D01*
X36336335Y-11900000D01*
X36053665Y-11900000D01*
X35776426Y-11955147D01*
X35515273Y-12063320D01*
X35280241Y-12220363D01*
X35080363Y-12420241D01*
X34923320Y-12655273D01*
X34815147Y-12916426D01*
X34760000Y-13193665D01*
X34760000Y-13476335D01*
X34815147Y-13753574D01*
X34923320Y-14014727D01*
X35080363Y-14249759D01*
X35280241Y-14449637D01*
X35515273Y-14606680D01*
X35776426Y-14714853D01*
X36053665Y-14770000D01*
X36336335Y-14770000D01*
X36613574Y-14714853D01*
X36874727Y-14606680D01*
X37109759Y-14449637D01*
X37309637Y-14249759D01*
X37440000Y-14054656D01*
X37440000Y-17060344D01*
X37309637Y-16865241D01*
X37109759Y-16665363D01*
X36874727Y-16508320D01*
X36613574Y-16400147D01*
X36336335Y-16345000D01*
X36053665Y-16345000D01*
X35776426Y-16400147D01*
X35515273Y-16508320D01*
X35280241Y-16665363D01*
X35081643Y-16863961D01*
X35080812Y-16855518D01*
X35044502Y-16735820D01*
X34985537Y-16625506D01*
X34906185Y-16528815D01*
X34809494Y-16449463D01*
X34699180Y-16390498D01*
X34579482Y-16354188D01*
X34455000Y-16341928D01*
X32855000Y-16341928D01*
X32730518Y-16354188D01*
X32610820Y-16390498D01*
X32500506Y-16449463D01*
X32403815Y-16528815D01*
X32324463Y-16625506D01*
X32265498Y-16735820D01*
X32229188Y-16855518D01*
X32216928Y-16980000D01*
X32216928Y-18580000D01*
X32229188Y-18704482D01*
X32265498Y-18824180D01*
X32324463Y-18934494D01*
X32403815Y-19031185D01*
X32500506Y-19110537D01*
X32610820Y-19169502D01*
X32730518Y-19205812D01*
X32855000Y-19218072D01*
X34455000Y-19218072D01*
X34579482Y-19205812D01*
X34699180Y-19169502D01*
X34809494Y-19110537D01*
X34906185Y-19031185D01*
X34985537Y-18934494D01*
X35044502Y-18824180D01*
X35080812Y-18704482D01*
X35081643Y-18696039D01*
X35280241Y-18894637D01*
X35515273Y-19051680D01*
X35776426Y-19159853D01*
X36053665Y-19215000D01*
X36336335Y-19215000D01*
X36613574Y-19159853D01*
X36874727Y-19051680D01*
X37109759Y-18894637D01*
X37309637Y-18694759D01*
X37440000Y-18499656D01*
X37440000Y-22303541D01*
X37418603Y-22243708D01*
X37351671Y-22118486D01*
X37107702Y-22046903D01*
X36294605Y-22860000D01*
X37107702Y-23673097D01*
X37351671Y-23601514D01*
X37440000Y-23414839D01*
X37440001Y-43724070D01*
X37431671Y-43708486D01*
X37187702Y-43636903D01*
X36374605Y-44450000D01*
X37187702Y-45263097D01*
X37431671Y-45191514D01*
X37440001Y-45173910D01*
X37440001Y-51350345D01*
X37309637Y-51155241D01*
X37109759Y-50955363D01*
X36874727Y-50798320D01*
X36613574Y-50690147D01*
X36336335Y-50635000D01*
X36053665Y-50635000D01*
X35776426Y-50690147D01*
X35515273Y-50798320D01*
X35280241Y-50955363D01*
X35080363Y-51155241D01*
X34923320Y-51390273D01*
X34815147Y-51651426D01*
X34760000Y-51928665D01*
X34760000Y-52211335D01*
X34815147Y-52488574D01*
X34923320Y-52749727D01*
X35080363Y-52984759D01*
X35280241Y-53184637D01*
X35515273Y-53341680D01*
X35776426Y-53449853D01*
X36053665Y-53505000D01*
X36336335Y-53505000D01*
X36613574Y-53449853D01*
X36874727Y-53341680D01*
X37109759Y-53184637D01*
X37309637Y-52984759D01*
X37440001Y-52789655D01*
X37440001Y-55795345D01*
X37309637Y-55600241D01*
X37109759Y-55400363D01*
X36874727Y-55243320D01*
X36613574Y-55135147D01*
X36336335Y-55080000D01*
X36053665Y-55080000D01*
X35776426Y-55135147D01*
X35515273Y-55243320D01*
X35280241Y-55400363D01*
X35081643Y-55598961D01*
X35080812Y-55590518D01*
X35044502Y-55470820D01*
X34985537Y-55360506D01*
X34906185Y-55263815D01*
X34809494Y-55184463D01*
X34699180Y-55125498D01*
X34579482Y-55089188D01*
X34455000Y-55076928D01*
X32855000Y-55076928D01*
X32730518Y-55089188D01*
X32610820Y-55125498D01*
X32500506Y-55184463D01*
X32403815Y-55263815D01*
X32324463Y-55360506D01*
X32265498Y-55470820D01*
X32229188Y-55590518D01*
X32216928Y-55715000D01*
X32216928Y-57315000D01*
X32229188Y-57439482D01*
X32265498Y-57559180D01*
X32324463Y-57669494D01*
X32403815Y-57766185D01*
X32500506Y-57845537D01*
X32610820Y-57904502D01*
X32730518Y-57940812D01*
X32855000Y-57953072D01*
X34455000Y-57953072D01*
X34579482Y-57940812D01*
X34699180Y-57904502D01*
X34809494Y-57845537D01*
X34906185Y-57766185D01*
X34985537Y-57669494D01*
X35044502Y-57559180D01*
X35080812Y-57439482D01*
X35081643Y-57431039D01*
X35280241Y-57629637D01*
X35515273Y-57786680D01*
X35776426Y-57894853D01*
X36053665Y-57950000D01*
X36336335Y-57950000D01*
X36613574Y-57894853D01*
X36874727Y-57786680D01*
X37109759Y-57629637D01*
X37309637Y-57429759D01*
X37440001Y-57234655D01*
X37440001Y-61038543D01*
X37418603Y-60978708D01*
X37351671Y-60853486D01*
X37107702Y-60781903D01*
X36294605Y-61595000D01*
X37107702Y-62408097D01*
X37351671Y-62336514D01*
X37440001Y-62149838D01*
X37440001Y-71730000D01*
X29242419Y-71730000D01*
X29210000Y-71726807D01*
X29177581Y-71730000D01*
X29080617Y-71739550D01*
X28956207Y-71777290D01*
X28841550Y-71838575D01*
X28741052Y-71921052D01*
X28658575Y-72021550D01*
X28597290Y-72136207D01*
X28559550Y-72260617D01*
X28546807Y-72390000D01*
X28550001Y-72422429D01*
X28550001Y-77385318D01*
X28373158Y-77312068D01*
X28086260Y-77255000D01*
X27793740Y-77255000D01*
X27506842Y-77312068D01*
X27236589Y-77424010D01*
X26993368Y-77586525D01*
X26806285Y-77773608D01*
X26738405Y-77646614D01*
X26627962Y-77512038D01*
X26493386Y-77401595D01*
X26339850Y-77319528D01*
X26173254Y-77268992D01*
X26000000Y-77251928D01*
X24800000Y-77251928D01*
X24626746Y-77268992D01*
X24460150Y-77319528D01*
X24306614Y-77401595D01*
X24172038Y-77512038D01*
X24061595Y-77646614D01*
X23979528Y-77800150D01*
X23928992Y-77966746D01*
X23927687Y-77980000D01*
X23620000Y-77980000D01*
X23620000Y-67803665D01*
X26505000Y-67803665D01*
X26505000Y-68086335D01*
X26560147Y-68363574D01*
X26668320Y-68624727D01*
X26825363Y-68859759D01*
X27025241Y-69059637D01*
X27260273Y-69216680D01*
X27521426Y-69324853D01*
X27798665Y-69380000D01*
X28081335Y-69380000D01*
X28358574Y-69324853D01*
X28619727Y-69216680D01*
X28854759Y-69059637D01*
X29054637Y-68859759D01*
X29211680Y-68624727D01*
X29319853Y-68363574D01*
X29375000Y-68086335D01*
X29375000Y-67803665D01*
X29319853Y-67526426D01*
X29211680Y-67265273D01*
X29054637Y-67030241D01*
X28854759Y-66830363D01*
X28619727Y-66673320D01*
X28358574Y-66565147D01*
X28081335Y-66510000D01*
X27798665Y-66510000D01*
X27521426Y-66565147D01*
X27260273Y-66673320D01*
X27025241Y-66830363D01*
X26825363Y-67030241D01*
X26668320Y-67265273D01*
X26560147Y-67526426D01*
X26505000Y-67803665D01*
X23620000Y-67803665D01*
X23620000Y-64449801D01*
X24086002Y-63983799D01*
X24115001Y-63960001D01*
X24209974Y-63844276D01*
X24280546Y-63712247D01*
X24324003Y-63568986D01*
X24335000Y-63457333D01*
X24335000Y-63457325D01*
X24338676Y-63420000D01*
X24335000Y-63382675D01*
X24335000Y-61595000D01*
X26098057Y-61595000D01*
X26125764Y-61876309D01*
X26207818Y-62146808D01*
X26341068Y-62396101D01*
X26520392Y-62614608D01*
X26738899Y-62793932D01*
X26871858Y-62865000D01*
X26738899Y-62936068D01*
X26520392Y-63115392D01*
X26341068Y-63333899D01*
X26207818Y-63583192D01*
X26125764Y-63853691D01*
X26098057Y-64135000D01*
X26125764Y-64416309D01*
X26207818Y-64686808D01*
X26341068Y-64936101D01*
X26520392Y-65154608D01*
X26738899Y-65333932D01*
X26988192Y-65467182D01*
X27258691Y-65549236D01*
X27469508Y-65570000D01*
X28410492Y-65570000D01*
X28621309Y-65549236D01*
X28891808Y-65467182D01*
X29141101Y-65333932D01*
X29359608Y-65154608D01*
X29538932Y-64936101D01*
X29672182Y-64686808D01*
X29754236Y-64416309D01*
X29781943Y-64135000D01*
X29754236Y-63853691D01*
X29672182Y-63583192D01*
X29538932Y-63333899D01*
X29359608Y-63115392D01*
X29141101Y-62936068D01*
X29008142Y-62865000D01*
X29141101Y-62793932D01*
X29359608Y-62614608D01*
X29538932Y-62396101D01*
X29672182Y-62146808D01*
X29726217Y-61968678D01*
X29735147Y-62013574D01*
X29843320Y-62274727D01*
X30000363Y-62509759D01*
X30200241Y-62709637D01*
X30435273Y-62866680D01*
X30696426Y-62974853D01*
X30973665Y-63030000D01*
X31256335Y-63030000D01*
X31533574Y-62974853D01*
X31794727Y-62866680D01*
X32029759Y-62709637D01*
X32151694Y-62587702D01*
X35301903Y-62587702D01*
X35373486Y-62831671D01*
X35628996Y-62952571D01*
X35903184Y-63021300D01*
X36185512Y-63035217D01*
X36465130Y-62993787D01*
X36731292Y-62898603D01*
X36856514Y-62831671D01*
X36928097Y-62587702D01*
X36115000Y-61774605D01*
X35301903Y-62587702D01*
X32151694Y-62587702D01*
X32229637Y-62509759D01*
X32386680Y-62274727D01*
X32494853Y-62013574D01*
X32550000Y-61736335D01*
X32550000Y-61665512D01*
X34674783Y-61665512D01*
X34716213Y-61945130D01*
X34811397Y-62211292D01*
X34878329Y-62336514D01*
X35122298Y-62408097D01*
X35935395Y-61595000D01*
X35122298Y-60781903D01*
X34878329Y-60853486D01*
X34757429Y-61108996D01*
X34688700Y-61383184D01*
X34674783Y-61665512D01*
X32550000Y-61665512D01*
X32550000Y-61453665D01*
X32494853Y-61176426D01*
X32386680Y-60915273D01*
X32229637Y-60680241D01*
X32151694Y-60602298D01*
X35301903Y-60602298D01*
X36115000Y-61415395D01*
X36928097Y-60602298D01*
X36856514Y-60358329D01*
X36601004Y-60237429D01*
X36326816Y-60168700D01*
X36044488Y-60154783D01*
X35764870Y-60196213D01*
X35498708Y-60291397D01*
X35373486Y-60358329D01*
X35301903Y-60602298D01*
X32151694Y-60602298D01*
X32029759Y-60480363D01*
X31794727Y-60323320D01*
X31533574Y-60215147D01*
X31256335Y-60160000D01*
X30973665Y-60160000D01*
X30696426Y-60215147D01*
X30435273Y-60323320D01*
X30200241Y-60480363D01*
X30000363Y-60680241D01*
X29843320Y-60915273D01*
X29735147Y-61176426D01*
X29726217Y-61221322D01*
X29672182Y-61043192D01*
X29538932Y-60793899D01*
X29359608Y-60575392D01*
X29141101Y-60396068D01*
X29013259Y-60327735D01*
X29242839Y-60177601D01*
X29444500Y-59979895D01*
X29603715Y-59746646D01*
X29714367Y-59486818D01*
X29731904Y-59404039D01*
X29609915Y-59182000D01*
X28067000Y-59182000D01*
X28067000Y-59202000D01*
X27813000Y-59202000D01*
X27813000Y-59182000D01*
X26270085Y-59182000D01*
X26148096Y-59404039D01*
X26165633Y-59486818D01*
X26276285Y-59746646D01*
X26435500Y-59979895D01*
X26637161Y-60177601D01*
X26866741Y-60327735D01*
X26738899Y-60396068D01*
X26520392Y-60575392D01*
X26341068Y-60793899D01*
X26207818Y-61043192D01*
X26125764Y-61313691D01*
X26098057Y-61595000D01*
X24335000Y-61595000D01*
X24335000Y-56515000D01*
X26098057Y-56515000D01*
X26125764Y-56796309D01*
X26207818Y-57066808D01*
X26341068Y-57316101D01*
X26520392Y-57534608D01*
X26738899Y-57713932D01*
X26866741Y-57782265D01*
X26637161Y-57932399D01*
X26435500Y-58130105D01*
X26276285Y-58363354D01*
X26165633Y-58623182D01*
X26148096Y-58705961D01*
X26270085Y-58928000D01*
X27813000Y-58928000D01*
X27813000Y-58908000D01*
X28067000Y-58908000D01*
X28067000Y-58928000D01*
X29609915Y-58928000D01*
X29731904Y-58705961D01*
X29714367Y-58623182D01*
X29603715Y-58363354D01*
X29444500Y-58130105D01*
X29242839Y-57932399D01*
X29013259Y-57782265D01*
X29141101Y-57713932D01*
X29359608Y-57534608D01*
X29538932Y-57316101D01*
X29672182Y-57066808D01*
X29754236Y-56796309D01*
X29781943Y-56515000D01*
X29754236Y-56233691D01*
X29672182Y-55963192D01*
X29538932Y-55713899D01*
X29359608Y-55495392D01*
X29141101Y-55316068D01*
X28891808Y-55182818D01*
X28621309Y-55100764D01*
X28410492Y-55080000D01*
X27469508Y-55080000D01*
X27258691Y-55100764D01*
X26988192Y-55182818D01*
X26738899Y-55316068D01*
X26520392Y-55495392D01*
X26341068Y-55713899D01*
X26207818Y-55963192D01*
X26125764Y-56233691D01*
X26098057Y-56515000D01*
X24335000Y-56515000D01*
X24335000Y-53923043D01*
X24489759Y-53819637D01*
X24689637Y-53619759D01*
X24846680Y-53384727D01*
X24954853Y-53123574D01*
X25010000Y-52846335D01*
X25010000Y-52563665D01*
X27140000Y-52563665D01*
X27140000Y-52846335D01*
X27195147Y-53123574D01*
X27303320Y-53384727D01*
X27460363Y-53619759D01*
X27660241Y-53819637D01*
X27895273Y-53976680D01*
X28156426Y-54084853D01*
X28433665Y-54140000D01*
X28716335Y-54140000D01*
X28993574Y-54084853D01*
X29254727Y-53976680D01*
X29489759Y-53819637D01*
X29689637Y-53619759D01*
X29846680Y-53384727D01*
X29954853Y-53123574D01*
X30010000Y-52846335D01*
X30010000Y-52563665D01*
X29954853Y-52286426D01*
X29846680Y-52025273D01*
X29782129Y-51928665D01*
X31585000Y-51928665D01*
X31585000Y-52211335D01*
X31640147Y-52488574D01*
X31748320Y-52749727D01*
X31905363Y-52984759D01*
X32105241Y-53184637D01*
X32340273Y-53341680D01*
X32601426Y-53449853D01*
X32878665Y-53505000D01*
X33161335Y-53505000D01*
X33438574Y-53449853D01*
X33699727Y-53341680D01*
X33934759Y-53184637D01*
X34134637Y-52984759D01*
X34291680Y-52749727D01*
X34399853Y-52488574D01*
X34455000Y-52211335D01*
X34455000Y-51928665D01*
X34399853Y-51651426D01*
X34291680Y-51390273D01*
X34134637Y-51155241D01*
X33934759Y-50955363D01*
X33699727Y-50798320D01*
X33438574Y-50690147D01*
X33161335Y-50635000D01*
X32878665Y-50635000D01*
X32601426Y-50690147D01*
X32340273Y-50798320D01*
X32105241Y-50955363D01*
X31905363Y-51155241D01*
X31748320Y-51390273D01*
X31640147Y-51651426D01*
X31585000Y-51928665D01*
X29782129Y-51928665D01*
X29689637Y-51790241D01*
X29489759Y-51590363D01*
X29254727Y-51433320D01*
X28993574Y-51325147D01*
X28716335Y-51270000D01*
X28433665Y-51270000D01*
X28156426Y-51325147D01*
X27895273Y-51433320D01*
X27660241Y-51590363D01*
X27460363Y-51790241D01*
X27303320Y-52025273D01*
X27195147Y-52286426D01*
X27140000Y-52563665D01*
X25010000Y-52563665D01*
X24954853Y-52286426D01*
X24846680Y-52025273D01*
X24689637Y-51790241D01*
X24489759Y-51590363D01*
X24254727Y-51433320D01*
X23993574Y-51325147D01*
X23716335Y-51270000D01*
X23433665Y-51270000D01*
X23156426Y-51325147D01*
X22895273Y-51433320D01*
X22660241Y-51590363D01*
X22460363Y-51790241D01*
X22303320Y-52025273D01*
X22195147Y-52286426D01*
X22140000Y-52563665D01*
X22140000Y-52846335D01*
X22195147Y-53123574D01*
X22303320Y-53384727D01*
X22460363Y-53619759D01*
X22660241Y-53819637D01*
X22815000Y-53923043D01*
X22815001Y-63105197D01*
X22545199Y-63375000D01*
X21940901Y-63375000D01*
X21918932Y-63333899D01*
X21739608Y-63115392D01*
X21521101Y-62936068D01*
X21388142Y-62865000D01*
X21521101Y-62793932D01*
X21739608Y-62614608D01*
X21918932Y-62396101D01*
X22052182Y-62146808D01*
X22134236Y-61876309D01*
X22161943Y-61595000D01*
X22134236Y-61313691D01*
X22052182Y-61043192D01*
X21918932Y-60793899D01*
X21739608Y-60575392D01*
X21521101Y-60396068D01*
X21388142Y-60325000D01*
X21521101Y-60253932D01*
X21739608Y-60074608D01*
X21918932Y-59856101D01*
X22052182Y-59606808D01*
X22134236Y-59336309D01*
X22161943Y-59055000D01*
X22134236Y-58773691D01*
X22052182Y-58503192D01*
X21918932Y-58253899D01*
X21739608Y-58035392D01*
X21626518Y-57942581D01*
X21644482Y-57940812D01*
X21764180Y-57904502D01*
X21874494Y-57845537D01*
X21971185Y-57766185D01*
X22050537Y-57669494D01*
X22109502Y-57559180D01*
X22145812Y-57439482D01*
X22158072Y-57315000D01*
X22158072Y-55715000D01*
X22145812Y-55590518D01*
X22109502Y-55470820D01*
X22050537Y-55360506D01*
X21971185Y-55263815D01*
X21874494Y-55184463D01*
X21764180Y-55125498D01*
X21644482Y-55089188D01*
X21520000Y-55076928D01*
X19120000Y-55076928D01*
X18995518Y-55089188D01*
X18875820Y-55125498D01*
X18765506Y-55184463D01*
X18668815Y-55263815D01*
X18589463Y-55360506D01*
X18530498Y-55470820D01*
X18494188Y-55590518D01*
X18481928Y-55715000D01*
X18481928Y-57315000D01*
X18494188Y-57439482D01*
X18530498Y-57559180D01*
X18589463Y-57669494D01*
X18668815Y-57766185D01*
X18765506Y-57845537D01*
X18875820Y-57904502D01*
X18995518Y-57940812D01*
X19013482Y-57942581D01*
X18900392Y-58035392D01*
X18721068Y-58253899D01*
X18587818Y-58503192D01*
X18533783Y-58681322D01*
X18524853Y-58636426D01*
X18416680Y-58375273D01*
X18259637Y-58140241D01*
X18059759Y-57940363D01*
X17824727Y-57783320D01*
X17563574Y-57675147D01*
X17286335Y-57620000D01*
X17003665Y-57620000D01*
X16726426Y-57675147D01*
X16465273Y-57783320D01*
X16230241Y-57940363D01*
X16030363Y-58140241D01*
X15873320Y-58375273D01*
X15765147Y-58636426D01*
X15710000Y-58913665D01*
X15710000Y-59196335D01*
X15765147Y-59473574D01*
X15873320Y-59734727D01*
X16030363Y-59969759D01*
X16230241Y-60169637D01*
X16465273Y-60326680D01*
X16726426Y-60434853D01*
X17003665Y-60490000D01*
X17286335Y-60490000D01*
X17563574Y-60434853D01*
X17824727Y-60326680D01*
X18059759Y-60169637D01*
X18259637Y-59969759D01*
X18416680Y-59734727D01*
X18524853Y-59473574D01*
X18533783Y-59428678D01*
X18587818Y-59606808D01*
X18721068Y-59856101D01*
X18900392Y-60074608D01*
X19118899Y-60253932D01*
X19251858Y-60325000D01*
X19118899Y-60396068D01*
X18900392Y-60575392D01*
X18721068Y-60793899D01*
X18587818Y-61043192D01*
X18505764Y-61313691D01*
X18478057Y-61595000D01*
X18505764Y-61876309D01*
X18587818Y-62146808D01*
X18721068Y-62396101D01*
X18900392Y-62614608D01*
X19118899Y-62793932D01*
X19251858Y-62865000D01*
X19118899Y-62936068D01*
X18900392Y-63115392D01*
X18721068Y-63333899D01*
X18587818Y-63583192D01*
X18543394Y-63729639D01*
X18524853Y-63636426D01*
X18416680Y-63375273D01*
X18259637Y-63140241D01*
X18059759Y-62940363D01*
X17824727Y-62783320D01*
X17563574Y-62675147D01*
X17286335Y-62620000D01*
X17003665Y-62620000D01*
X16726426Y-62675147D01*
X16465273Y-62783320D01*
X16230241Y-62940363D01*
X16030363Y-63140241D01*
X15873320Y-63375273D01*
X15765147Y-63636426D01*
X15710000Y-63913665D01*
X15710000Y-64196335D01*
X15765147Y-64473574D01*
X15873320Y-64734727D01*
X16030363Y-64969759D01*
X16230241Y-65169637D01*
X16465273Y-65326680D01*
X16726426Y-65434853D01*
X17003665Y-65490000D01*
X17286335Y-65490000D01*
X17563574Y-65434853D01*
X17824727Y-65326680D01*
X18059759Y-65169637D01*
X18259637Y-64969759D01*
X18416680Y-64734727D01*
X18523861Y-64475968D01*
X18587818Y-64686808D01*
X18721068Y-64936101D01*
X18900392Y-65154608D01*
X19118899Y-65333932D01*
X19368192Y-65467182D01*
X19638691Y-65549236D01*
X19849508Y-65570000D01*
X20790492Y-65570000D01*
X21001309Y-65549236D01*
X21271808Y-65467182D01*
X21521101Y-65333932D01*
X21739608Y-65154608D01*
X21918932Y-64936101D01*
X21940901Y-64895000D01*
X22100000Y-64895000D01*
X22100001Y-77980000D01*
X21564771Y-77980000D01*
X21434637Y-77785241D01*
X21268057Y-77618661D01*
X21364180Y-77589502D01*
X21474494Y-77530537D01*
X21571185Y-77451185D01*
X21650537Y-77354494D01*
X21709502Y-77244180D01*
X21745812Y-77124482D01*
X21758072Y-77000000D01*
X21755000Y-76485750D01*
X21596250Y-76327000D01*
X20447000Y-76327000D01*
X20447000Y-76347000D01*
X20193000Y-76347000D01*
X20193000Y-76327000D01*
X19043750Y-76327000D01*
X18885000Y-76485750D01*
X18881928Y-77000000D01*
X18894188Y-77124482D01*
X18930498Y-77244180D01*
X18989463Y-77354494D01*
X19068815Y-77451185D01*
X19165506Y-77530537D01*
X19275820Y-77589502D01*
X19371943Y-77618661D01*
X19205363Y-77785241D01*
X19048320Y-78020273D01*
X18940147Y-78281426D01*
X18885000Y-78558665D01*
X18885000Y-78841335D01*
X18940147Y-79118574D01*
X19048320Y-79379727D01*
X19205363Y-79614759D01*
X19405241Y-79814637D01*
X19640273Y-79971680D01*
X19901426Y-80079853D01*
X20178665Y-80135000D01*
X20461335Y-80135000D01*
X20738574Y-80079853D01*
X20999727Y-79971680D01*
X21234759Y-79814637D01*
X21434637Y-79614759D01*
X21511316Y-79500000D01*
X22822667Y-79500000D01*
X22860000Y-79503677D01*
X22897333Y-79500000D01*
X23927687Y-79500000D01*
X23928992Y-79513254D01*
X23979528Y-79679850D01*
X24061595Y-79833386D01*
X24172038Y-79967962D01*
X24306614Y-80078405D01*
X24460150Y-80160472D01*
X24569293Y-80193580D01*
X24551208Y-80251603D01*
X25400000Y-81100395D01*
X26248792Y-80251603D01*
X26230707Y-80193580D01*
X26339850Y-80160472D01*
X26493386Y-80078405D01*
X26627962Y-79967962D01*
X26738405Y-79833386D01*
X26806285Y-79706392D01*
X26993368Y-79893475D01*
X27166729Y-80009311D01*
X27091208Y-80251603D01*
X27940000Y-81100395D01*
X27954143Y-81086253D01*
X28133748Y-81265858D01*
X28119605Y-81280000D01*
X28133748Y-81294143D01*
X27954143Y-81473748D01*
X27940000Y-81459605D01*
X27091208Y-82308397D01*
X27166514Y-82550000D01*
X27091208Y-82791603D01*
X27940000Y-83640395D01*
X27954143Y-83626253D01*
X28133748Y-83805858D01*
X28119605Y-83820000D01*
X28133748Y-83834143D01*
X27954143Y-84013748D01*
X27940000Y-83999605D01*
X27091208Y-84848397D01*
X27166514Y-85090000D01*
X27091208Y-85331603D01*
X27940000Y-86180395D01*
X27954143Y-86166253D01*
X28133748Y-86345858D01*
X28119605Y-86360000D01*
X28133748Y-86374143D01*
X27954143Y-86553748D01*
X27940000Y-86539605D01*
X27091208Y-87388397D01*
X27166729Y-87630689D01*
X26993368Y-87746525D01*
X26786525Y-87953368D01*
X26670000Y-88127760D01*
X26553475Y-87953368D01*
X26346632Y-87746525D01*
X26173271Y-87630689D01*
X26248792Y-87388397D01*
X25400000Y-86539605D01*
X24551208Y-87388397D01*
X24626729Y-87630689D01*
X24453368Y-87746525D01*
X24246525Y-87953368D01*
X24084010Y-88196589D01*
X23972068Y-88466842D01*
X23915000Y-88753740D01*
X23915000Y-89046260D01*
X23972068Y-89333158D01*
X24084010Y-89603411D01*
X24246525Y-89846632D01*
X24453368Y-90053475D01*
X24627760Y-90170000D01*
X24453368Y-90286525D01*
X24246525Y-90493368D01*
X24084010Y-90736589D01*
X23972068Y-91006842D01*
X23915000Y-91293740D01*
X23915000Y-91586260D01*
X23972068Y-91873158D01*
X24084010Y-92143411D01*
X24246525Y-92386632D01*
X24453368Y-92593475D01*
X24627760Y-92710000D01*
X24453368Y-92826525D01*
X24246525Y-93033368D01*
X24084010Y-93276589D01*
X23972068Y-93546842D01*
X23915000Y-93833740D01*
X23915000Y-94126260D01*
X23972068Y-94413158D01*
X24084010Y-94683411D01*
X24246525Y-94926632D01*
X24453368Y-95133475D01*
X24627760Y-95250000D01*
X24453368Y-95366525D01*
X24246525Y-95573368D01*
X24084010Y-95816589D01*
X23972068Y-96086842D01*
X23915000Y-96373740D01*
X23915000Y-96666260D01*
X23972068Y-96953158D01*
X24084010Y-97223411D01*
X24246525Y-97466632D01*
X24453368Y-97673475D01*
X24696589Y-97835990D01*
X24966842Y-97947932D01*
X25253740Y-98005000D01*
X25546260Y-98005000D01*
X25833158Y-97947932D01*
X26103411Y-97835990D01*
X26346632Y-97673475D01*
X26553475Y-97466632D01*
X26670000Y-97292240D01*
X26786525Y-97466632D01*
X26993368Y-97673475D01*
X27236589Y-97835990D01*
X27506842Y-97947932D01*
X27793740Y-98005000D01*
X28086260Y-98005000D01*
X28373158Y-97947932D01*
X28550000Y-97874682D01*
X28550000Y-100940000D01*
X660000Y-100940000D01*
X660000Y-94970000D01*
X4108783Y-94970000D01*
X4133593Y-95221904D01*
X4207071Y-95464127D01*
X4326392Y-95687362D01*
X4486972Y-95883028D01*
X4682638Y-96043608D01*
X4905873Y-96162929D01*
X5148096Y-96236407D01*
X5336877Y-96255000D01*
X6463123Y-96255000D01*
X6651904Y-96236407D01*
X6894127Y-96162929D01*
X7117362Y-96043608D01*
X7313028Y-95883028D01*
X7473608Y-95687362D01*
X7592929Y-95464127D01*
X7666407Y-95221904D01*
X7691217Y-94970000D01*
X7666407Y-94718096D01*
X7592929Y-94475873D01*
X7473608Y-94252638D01*
X7313028Y-94056972D01*
X7117362Y-93896392D01*
X7029650Y-93849509D01*
X11565000Y-93849509D01*
X11565000Y-94690492D01*
X11585764Y-94901309D01*
X11667818Y-95171808D01*
X11801068Y-95421101D01*
X11980393Y-95639608D01*
X12198900Y-95818932D01*
X12448193Y-95952182D01*
X12718692Y-96034236D01*
X13000000Y-96061943D01*
X13281309Y-96034236D01*
X13551808Y-95952182D01*
X13801101Y-95818932D01*
X14019608Y-95639608D01*
X14198932Y-95421101D01*
X14332182Y-95171808D01*
X14414236Y-94901308D01*
X14435000Y-94690491D01*
X14435000Y-93849508D01*
X14414236Y-93638691D01*
X14332182Y-93368192D01*
X14198932Y-93118899D01*
X14019607Y-92900392D01*
X13801100Y-92721068D01*
X13551807Y-92587818D01*
X13281308Y-92505764D01*
X13000000Y-92478057D01*
X12718691Y-92505764D01*
X12448192Y-92587818D01*
X12198899Y-92721068D01*
X11980392Y-92900393D01*
X11801068Y-93118900D01*
X11667818Y-93368193D01*
X11585764Y-93638692D01*
X11565000Y-93849509D01*
X7029650Y-93849509D01*
X6894127Y-93777071D01*
X6651904Y-93703593D01*
X6463123Y-93685000D01*
X5336877Y-93685000D01*
X5148096Y-93703593D01*
X4905873Y-93777071D01*
X4682638Y-93896392D01*
X4486972Y-94056972D01*
X4326392Y-94252638D01*
X4207071Y-94475873D01*
X4133593Y-94718096D01*
X4108783Y-94970000D01*
X660000Y-94970000D01*
X660000Y-92392702D01*
X19506903Y-92392702D01*
X19578486Y-92636671D01*
X19833996Y-92757571D01*
X20108184Y-92826300D01*
X20390512Y-92840217D01*
X20670130Y-92798787D01*
X20936292Y-92703603D01*
X21061514Y-92636671D01*
X21133097Y-92392702D01*
X20320000Y-91579605D01*
X19506903Y-92392702D01*
X660000Y-92392702D01*
X660000Y-91507092D01*
X775105Y-91624500D01*
X1008354Y-91783715D01*
X1268182Y-91894367D01*
X1350961Y-91911904D01*
X1573000Y-91789915D01*
X1573000Y-90297000D01*
X1827000Y-90297000D01*
X1827000Y-91789915D01*
X2049039Y-91911904D01*
X2131818Y-91894367D01*
X2391646Y-91783715D01*
X2624895Y-91624500D01*
X2775862Y-91470512D01*
X18879783Y-91470512D01*
X18921213Y-91750130D01*
X19016397Y-92016292D01*
X19083329Y-92141514D01*
X19327298Y-92213097D01*
X20140395Y-91400000D01*
X20499605Y-91400000D01*
X21312702Y-92213097D01*
X21556671Y-92141514D01*
X21677571Y-91886004D01*
X21746300Y-91611816D01*
X21760217Y-91329488D01*
X21718787Y-91049870D01*
X21623603Y-90783708D01*
X21556671Y-90658486D01*
X21312702Y-90586903D01*
X20499605Y-91400000D01*
X20140395Y-91400000D01*
X19327298Y-90586903D01*
X19083329Y-90658486D01*
X18962429Y-90913996D01*
X18893700Y-91188184D01*
X18879783Y-91470512D01*
X2775862Y-91470512D01*
X2822601Y-91422839D01*
X2977166Y-91186483D01*
X3082650Y-90924514D01*
X3135000Y-90647000D01*
X3135000Y-90297000D01*
X1827000Y-90297000D01*
X1573000Y-90297000D01*
X1553000Y-90297000D01*
X1553000Y-90043000D01*
X1573000Y-90043000D01*
X1573000Y-88550085D01*
X1827000Y-88550085D01*
X1827000Y-90043000D01*
X3135000Y-90043000D01*
X3135000Y-89693000D01*
X3082650Y-89415486D01*
X2977166Y-89153517D01*
X2822601Y-88917161D01*
X2624895Y-88715500D01*
X2391646Y-88556285D01*
X2131818Y-88445633D01*
X2049039Y-88428096D01*
X1827000Y-88550085D01*
X1573000Y-88550085D01*
X1350961Y-88428096D01*
X1268182Y-88445633D01*
X1008354Y-88556285D01*
X775105Y-88715500D01*
X660000Y-88832908D01*
X660000Y-87570000D01*
X6808057Y-87570000D01*
X6835764Y-87851309D01*
X6917818Y-88121808D01*
X7051068Y-88371101D01*
X7230392Y-88589608D01*
X7448899Y-88768932D01*
X7698192Y-88902182D01*
X7968691Y-88984236D01*
X8179508Y-89005000D01*
X9020492Y-89005000D01*
X9231309Y-88984236D01*
X9501808Y-88902182D01*
X9751101Y-88768932D01*
X9969608Y-88589608D01*
X10148932Y-88371101D01*
X10282182Y-88121808D01*
X10288797Y-88100000D01*
X18881928Y-88100000D01*
X18881928Y-89700000D01*
X18894188Y-89824482D01*
X18930498Y-89944180D01*
X18989463Y-90054494D01*
X19068815Y-90151185D01*
X19165506Y-90230537D01*
X19275820Y-90289502D01*
X19395518Y-90325812D01*
X19520000Y-90338072D01*
X19527215Y-90338072D01*
X19506903Y-90407298D01*
X20320000Y-91220395D01*
X21133097Y-90407298D01*
X21112785Y-90338072D01*
X21120000Y-90338072D01*
X21244482Y-90325812D01*
X21364180Y-90289502D01*
X21474494Y-90230537D01*
X21571185Y-90151185D01*
X21650537Y-90054494D01*
X21709502Y-89944180D01*
X21745812Y-89824482D01*
X21758072Y-89700000D01*
X21758072Y-88100000D01*
X21745812Y-87975518D01*
X21709502Y-87855820D01*
X21650537Y-87745506D01*
X21571185Y-87648815D01*
X21474494Y-87569463D01*
X21364180Y-87510498D01*
X21244482Y-87474188D01*
X21120000Y-87461928D01*
X19520000Y-87461928D01*
X19395518Y-87474188D01*
X19275820Y-87510498D01*
X19165506Y-87569463D01*
X19068815Y-87648815D01*
X18989463Y-87745506D01*
X18930498Y-87855820D01*
X18894188Y-87975518D01*
X18881928Y-88100000D01*
X10288797Y-88100000D01*
X10364236Y-87851309D01*
X10391943Y-87570000D01*
X10364236Y-87288691D01*
X10282182Y-87018192D01*
X10148932Y-86768899D01*
X9969608Y-86550392D01*
X9821120Y-86428531D01*
X23909389Y-86428531D01*
X23951401Y-86718019D01*
X24049081Y-86993747D01*
X24122528Y-87131157D01*
X24371603Y-87208792D01*
X25220395Y-86360000D01*
X25579605Y-86360000D01*
X26428397Y-87208792D01*
X26670000Y-87133486D01*
X26911603Y-87208792D01*
X27760395Y-86360000D01*
X26911603Y-85511208D01*
X26670000Y-85586514D01*
X26428397Y-85511208D01*
X25579605Y-86360000D01*
X25220395Y-86360000D01*
X24371603Y-85511208D01*
X24122528Y-85588843D01*
X23996629Y-85852883D01*
X23924661Y-86136411D01*
X23909389Y-86428531D01*
X9821120Y-86428531D01*
X9751101Y-86371068D01*
X9533953Y-86255000D01*
X10163123Y-86255000D01*
X10351904Y-86236407D01*
X10594127Y-86162929D01*
X10817362Y-86043608D01*
X11013028Y-85883028D01*
X11173608Y-85687362D01*
X11292929Y-85464127D01*
X11366407Y-85221904D01*
X11391217Y-84970000D01*
X11379241Y-84848397D01*
X24551208Y-84848397D01*
X24626514Y-85090000D01*
X24551208Y-85331603D01*
X25400000Y-86180395D01*
X26248792Y-85331603D01*
X26173486Y-85090000D01*
X26248792Y-84848397D01*
X25400000Y-83999605D01*
X24551208Y-84848397D01*
X11379241Y-84848397D01*
X11366407Y-84718096D01*
X11292929Y-84475873D01*
X11173608Y-84252638D01*
X11013028Y-84056972D01*
X10817362Y-83896392D01*
X10802656Y-83888531D01*
X23909389Y-83888531D01*
X23951401Y-84178019D01*
X24049081Y-84453747D01*
X24122528Y-84591157D01*
X24371603Y-84668792D01*
X25220395Y-83820000D01*
X25579605Y-83820000D01*
X26428397Y-84668792D01*
X26670000Y-84593486D01*
X26911603Y-84668792D01*
X27760395Y-83820000D01*
X26911603Y-82971208D01*
X26670000Y-83046514D01*
X26428397Y-82971208D01*
X25579605Y-83820000D01*
X25220395Y-83820000D01*
X24371603Y-82971208D01*
X24122528Y-83048843D01*
X23996629Y-83312883D01*
X23924661Y-83596411D01*
X23909389Y-83888531D01*
X10802656Y-83888531D01*
X10594127Y-83777071D01*
X10351904Y-83703593D01*
X10163123Y-83685000D01*
X9036877Y-83685000D01*
X8848096Y-83703593D01*
X8605873Y-83777071D01*
X8382638Y-83896392D01*
X8186972Y-84056972D01*
X8026392Y-84252638D01*
X7907071Y-84475873D01*
X7833593Y-84718096D01*
X7808783Y-84970000D01*
X7833593Y-85221904D01*
X7907071Y-85464127D01*
X8026392Y-85687362D01*
X8186972Y-85883028D01*
X8382638Y-86043608D01*
X8553621Y-86135000D01*
X8179508Y-86135000D01*
X7968691Y-86155764D01*
X7698192Y-86237818D01*
X7448899Y-86371068D01*
X7230392Y-86550392D01*
X7051068Y-86768899D01*
X6917818Y-87018192D01*
X6835764Y-87288691D01*
X6808057Y-87570000D01*
X660000Y-87570000D01*
X660000Y-81773665D01*
X6820000Y-81773665D01*
X6820000Y-82056335D01*
X6875147Y-82333574D01*
X6983320Y-82594727D01*
X7140363Y-82829759D01*
X7340241Y-83029637D01*
X7575273Y-83186680D01*
X7836426Y-83294853D01*
X8113665Y-83350000D01*
X8396335Y-83350000D01*
X8673574Y-83294853D01*
X8934727Y-83186680D01*
X9169759Y-83029637D01*
X9291694Y-82907702D01*
X9981903Y-82907702D01*
X10053486Y-83151671D01*
X10308996Y-83272571D01*
X10583184Y-83341300D01*
X10865512Y-83355217D01*
X11145130Y-83313787D01*
X11411292Y-83218603D01*
X11536514Y-83151671D01*
X11608097Y-82907702D01*
X10795000Y-82094605D01*
X9981903Y-82907702D01*
X9291694Y-82907702D01*
X9369637Y-82829759D01*
X9525915Y-82595872D01*
X9558329Y-82656514D01*
X9802298Y-82728097D01*
X10615395Y-81915000D01*
X10974605Y-81915000D01*
X11787702Y-82728097D01*
X12031671Y-82656514D01*
X12152571Y-82401004D01*
X12175784Y-82308397D01*
X24551208Y-82308397D01*
X24626514Y-82550000D01*
X24551208Y-82791603D01*
X25400000Y-83640395D01*
X26248792Y-82791603D01*
X26173486Y-82550000D01*
X26248792Y-82308397D01*
X25400000Y-81459605D01*
X24551208Y-82308397D01*
X12175784Y-82308397D01*
X12221300Y-82126816D01*
X12235217Y-81844488D01*
X12193787Y-81564870D01*
X12116421Y-81348531D01*
X23909389Y-81348531D01*
X23951401Y-81638019D01*
X24049081Y-81913747D01*
X24122528Y-82051157D01*
X24371603Y-82128792D01*
X25220395Y-81280000D01*
X25579605Y-81280000D01*
X26428397Y-82128792D01*
X26670000Y-82053486D01*
X26911603Y-82128792D01*
X27760395Y-81280000D01*
X26911603Y-80431208D01*
X26670000Y-80506514D01*
X26428397Y-80431208D01*
X25579605Y-81280000D01*
X25220395Y-81280000D01*
X24371603Y-80431208D01*
X24122528Y-80508843D01*
X23996629Y-80772883D01*
X23924661Y-81056411D01*
X23909389Y-81348531D01*
X12116421Y-81348531D01*
X12098603Y-81298708D01*
X12031671Y-81173486D01*
X11787702Y-81101903D01*
X10974605Y-81915000D01*
X10615395Y-81915000D01*
X9802298Y-81101903D01*
X9558329Y-81173486D01*
X9527806Y-81237992D01*
X9526680Y-81235273D01*
X9369637Y-81000241D01*
X9291694Y-80922298D01*
X9981903Y-80922298D01*
X10795000Y-81735395D01*
X11608097Y-80922298D01*
X11536514Y-80678329D01*
X11281004Y-80557429D01*
X11006816Y-80488700D01*
X10724488Y-80474783D01*
X10444870Y-80516213D01*
X10178708Y-80611397D01*
X10053486Y-80678329D01*
X9981903Y-80922298D01*
X9291694Y-80922298D01*
X9169759Y-80800363D01*
X8934727Y-80643320D01*
X8673574Y-80535147D01*
X8396335Y-80480000D01*
X8113665Y-80480000D01*
X7836426Y-80535147D01*
X7575273Y-80643320D01*
X7340241Y-80800363D01*
X7140363Y-81000241D01*
X6983320Y-81235273D01*
X6875147Y-81496426D01*
X6820000Y-81773665D01*
X660000Y-81773665D01*
X660000Y-79095000D01*
X4108783Y-79095000D01*
X4133593Y-79346904D01*
X4207071Y-79589127D01*
X4326392Y-79812362D01*
X4486972Y-80008028D01*
X4682638Y-80168608D01*
X4905873Y-80287929D01*
X5148096Y-80361407D01*
X5336877Y-80380000D01*
X6463123Y-80380000D01*
X6651904Y-80361407D01*
X6894127Y-80287929D01*
X7117362Y-80168608D01*
X7313028Y-80008028D01*
X7473608Y-79812362D01*
X7592929Y-79589127D01*
X7666407Y-79346904D01*
X7691217Y-79095000D01*
X7666407Y-78843096D01*
X7592929Y-78600873D01*
X7473608Y-78377638D01*
X7313028Y-78181972D01*
X7117362Y-78021392D01*
X6894127Y-77902071D01*
X6651904Y-77828593D01*
X6463123Y-77810000D01*
X5336877Y-77810000D01*
X5148096Y-77828593D01*
X4905873Y-77902071D01*
X4682638Y-78021392D01*
X4486972Y-78181972D01*
X4326392Y-78377638D01*
X4207071Y-78600873D01*
X4133593Y-78843096D01*
X4108783Y-79095000D01*
X660000Y-79095000D01*
X660000Y-75632092D01*
X775105Y-75749500D01*
X1008354Y-75908715D01*
X1268182Y-76019367D01*
X1350961Y-76036904D01*
X1573000Y-75914915D01*
X1573000Y-74422000D01*
X1827000Y-74422000D01*
X1827000Y-75914915D01*
X2049039Y-76036904D01*
X2131818Y-76019367D01*
X2391646Y-75908715D01*
X2624895Y-75749500D01*
X2822601Y-75547839D01*
X2977166Y-75311483D01*
X3082650Y-75049514D01*
X3135000Y-74772000D01*
X3135000Y-74422000D01*
X1827000Y-74422000D01*
X1573000Y-74422000D01*
X1553000Y-74422000D01*
X1553000Y-74168000D01*
X1573000Y-74168000D01*
X1573000Y-72675085D01*
X1827000Y-72675085D01*
X1827000Y-74168000D01*
X3135000Y-74168000D01*
X3135000Y-73818000D01*
X3082650Y-73540486D01*
X2977166Y-73278517D01*
X2822601Y-73042161D01*
X2624895Y-72840500D01*
X2391646Y-72681285D01*
X2131818Y-72570633D01*
X2049039Y-72553096D01*
X1827000Y-72675085D01*
X1573000Y-72675085D01*
X1350961Y-72553096D01*
X1268182Y-72570633D01*
X1008354Y-72681285D01*
X775105Y-72840500D01*
X660000Y-72957908D01*
X660000Y-59757092D01*
X775105Y-59874500D01*
X1008354Y-60033715D01*
X1268182Y-60144367D01*
X1350961Y-60161904D01*
X1573000Y-60039915D01*
X1573000Y-58547000D01*
X1553000Y-58547000D01*
X1553000Y-58293000D01*
X1573000Y-58293000D01*
X1573000Y-56800085D01*
X1350961Y-56678096D01*
X1268182Y-56695633D01*
X1008354Y-56806285D01*
X775105Y-56965500D01*
X660000Y-57082908D01*
X660000Y-40707092D01*
X775105Y-40824500D01*
X1008354Y-40983715D01*
X1268182Y-41094367D01*
X1350961Y-41111904D01*
X1573000Y-40989915D01*
X1573000Y-39497000D01*
X1553000Y-39497000D01*
X1553000Y-39243000D01*
X1573000Y-39243000D01*
X1573000Y-37750085D01*
X1350961Y-37628096D01*
X1268182Y-37645633D01*
X1008354Y-37756285D01*
X775105Y-37915500D01*
X660000Y-38032908D01*
X660000Y-24832092D01*
X775105Y-24949500D01*
X1008354Y-25108715D01*
X1268182Y-25219367D01*
X1350961Y-25236904D01*
X1573000Y-25114915D01*
X1573000Y-23622000D01*
X1553000Y-23622000D01*
X1553000Y-23368000D01*
X1573000Y-23368000D01*
X1573000Y-21875085D01*
X1827000Y-21875085D01*
X1827000Y-23368000D01*
X1847000Y-23368000D01*
X1847000Y-23622000D01*
X1827000Y-23622000D01*
X1827000Y-25114915D01*
X2049039Y-25236904D01*
X2131818Y-25219367D01*
X2391646Y-25108715D01*
X2415000Y-25092773D01*
X2415000Y-37772227D01*
X2391646Y-37756285D01*
X2131818Y-37645633D01*
X2049039Y-37628096D01*
X1827000Y-37750085D01*
X1827000Y-39243000D01*
X1847000Y-39243000D01*
X1847000Y-39497000D01*
X1827000Y-39497000D01*
X1827000Y-40989915D01*
X2049039Y-41111904D01*
X2131818Y-41094367D01*
X2391646Y-40983715D01*
X2415001Y-40967773D01*
X2415001Y-56822227D01*
X2391646Y-56806285D01*
X2131818Y-56695633D01*
X2049039Y-56678096D01*
X1827000Y-56800085D01*
X1827000Y-58293000D01*
X1847000Y-58293000D01*
X1847000Y-58547000D01*
X1827000Y-58547000D01*
X1827000Y-60039915D01*
X2049039Y-60161904D01*
X2131818Y-60144367D01*
X2391646Y-60033715D01*
X2415001Y-60017773D01*
X2415001Y-64701288D01*
X2371063Y-64745226D01*
X2257795Y-64914744D01*
X2179774Y-65103102D01*
X2140000Y-65303061D01*
X2140000Y-65506939D01*
X2179774Y-65706898D01*
X2257795Y-65895256D01*
X2371063Y-66064774D01*
X2515226Y-66208937D01*
X2684744Y-66322205D01*
X2873102Y-66400226D01*
X3073061Y-66440000D01*
X3276939Y-66440000D01*
X3476898Y-66400226D01*
X3665256Y-66322205D01*
X3834774Y-66208937D01*
X3978937Y-66064774D01*
X4092205Y-65895256D01*
X4170226Y-65706898D01*
X4210000Y-65506939D01*
X4210000Y-65303061D01*
X4170226Y-65103102D01*
X4092205Y-64914744D01*
X3978937Y-64745226D01*
X3935000Y-64701289D01*
X3935000Y-63220000D01*
X4108783Y-63220000D01*
X4133593Y-63471904D01*
X4207071Y-63714127D01*
X4326392Y-63937362D01*
X4486972Y-64133028D01*
X4682638Y-64293608D01*
X4905873Y-64412929D01*
X5148096Y-64486407D01*
X5336877Y-64505000D01*
X6463123Y-64505000D01*
X6651904Y-64486407D01*
X6894127Y-64412929D01*
X7117362Y-64293608D01*
X7313028Y-64133028D01*
X7473608Y-63937362D01*
X7592929Y-63714127D01*
X7666407Y-63471904D01*
X7691217Y-63220000D01*
X7666407Y-62968096D01*
X7592929Y-62725873D01*
X7473608Y-62502638D01*
X7313028Y-62306972D01*
X7117362Y-62146392D01*
X6894127Y-62027071D01*
X6651904Y-61953593D01*
X6463123Y-61935000D01*
X5336877Y-61935000D01*
X5148096Y-61953593D01*
X4905873Y-62027071D01*
X4682638Y-62146392D01*
X4486972Y-62306972D01*
X4326392Y-62502638D01*
X4207071Y-62725873D01*
X4133593Y-62968096D01*
X4108783Y-63220000D01*
X3935000Y-63220000D01*
X3935000Y-55820000D01*
X6808057Y-55820000D01*
X6835764Y-56101309D01*
X6917818Y-56371808D01*
X7051068Y-56621101D01*
X7230392Y-56839608D01*
X7448899Y-57018932D01*
X7698192Y-57152182D01*
X7968691Y-57234236D01*
X8179508Y-57255000D01*
X9020492Y-57255000D01*
X9231309Y-57234236D01*
X9501808Y-57152182D01*
X9751101Y-57018932D01*
X9969608Y-56839608D01*
X10148932Y-56621101D01*
X10282182Y-56371808D01*
X10364236Y-56101309D01*
X10391943Y-55820000D01*
X10364236Y-55538691D01*
X10282182Y-55268192D01*
X10148932Y-55018899D01*
X9969608Y-54800392D01*
X9751101Y-54621068D01*
X9533953Y-54505000D01*
X10163123Y-54505000D01*
X10351904Y-54486407D01*
X10594127Y-54412929D01*
X10670000Y-54372374D01*
X10670001Y-67942626D01*
X10594127Y-67902071D01*
X10351904Y-67828593D01*
X10163123Y-67810000D01*
X9036877Y-67810000D01*
X8848096Y-67828593D01*
X8605873Y-67902071D01*
X8382638Y-68021392D01*
X8186972Y-68181972D01*
X8026392Y-68377638D01*
X7907071Y-68600873D01*
X7833593Y-68843096D01*
X7808783Y-69095000D01*
X7833593Y-69346904D01*
X7907071Y-69589127D01*
X8026392Y-69812362D01*
X8186972Y-70008028D01*
X8382638Y-70168608D01*
X8553621Y-70260000D01*
X8179508Y-70260000D01*
X7968691Y-70280764D01*
X7698192Y-70362818D01*
X7448899Y-70496068D01*
X7230392Y-70675392D01*
X7051068Y-70893899D01*
X6917818Y-71143192D01*
X6835764Y-71413691D01*
X6808057Y-71695000D01*
X6835764Y-71976309D01*
X6917818Y-72246808D01*
X7051068Y-72496101D01*
X7230392Y-72714608D01*
X7448899Y-72893932D01*
X7698192Y-73027182D01*
X7968691Y-73109236D01*
X8179508Y-73130000D01*
X9020492Y-73130000D01*
X9231309Y-73109236D01*
X9501808Y-73027182D01*
X9751101Y-72893932D01*
X9969608Y-72714608D01*
X10148932Y-72496101D01*
X10282182Y-72246808D01*
X10364236Y-71976309D01*
X10391943Y-71695000D01*
X10364236Y-71413691D01*
X10282182Y-71143192D01*
X10148932Y-70893899D01*
X9969608Y-70675392D01*
X9751101Y-70496068D01*
X9533953Y-70380000D01*
X10163123Y-70380000D01*
X10351904Y-70361407D01*
X10594127Y-70287929D01*
X10670001Y-70247374D01*
X10670001Y-77432667D01*
X10666324Y-77470000D01*
X10680998Y-77618985D01*
X10724454Y-77762246D01*
X10795026Y-77894276D01*
X10860872Y-77974509D01*
X10890000Y-78010001D01*
X10918998Y-78033799D01*
X11565000Y-78679802D01*
X11565000Y-78815492D01*
X11585764Y-79026309D01*
X11667818Y-79296808D01*
X11801068Y-79546101D01*
X11980393Y-79764608D01*
X12198900Y-79943932D01*
X12448193Y-80077182D01*
X12718692Y-80159236D01*
X13000000Y-80186943D01*
X13281309Y-80159236D01*
X13551808Y-80077182D01*
X13801101Y-79943932D01*
X14019608Y-79764608D01*
X14198932Y-79546101D01*
X14332182Y-79296808D01*
X14414236Y-79026308D01*
X14435000Y-78815491D01*
X14435000Y-77974508D01*
X14414236Y-77763691D01*
X14332182Y-77493192D01*
X14198932Y-77243899D01*
X14019607Y-77025392D01*
X13801100Y-76846068D01*
X13551807Y-76712818D01*
X13281308Y-76630764D01*
X13000000Y-76603057D01*
X12718691Y-76630764D01*
X12448192Y-76712818D01*
X12198899Y-76846068D01*
X12190000Y-76853371D01*
X12190000Y-75400000D01*
X18881928Y-75400000D01*
X18885000Y-75914250D01*
X19043750Y-76073000D01*
X20193000Y-76073000D01*
X20193000Y-74923750D01*
X20447000Y-74923750D01*
X20447000Y-76073000D01*
X21596250Y-76073000D01*
X21755000Y-75914250D01*
X21758072Y-75400000D01*
X21745812Y-75275518D01*
X21709502Y-75155820D01*
X21650537Y-75045506D01*
X21571185Y-74948815D01*
X21474494Y-74869463D01*
X21364180Y-74810498D01*
X21244482Y-74774188D01*
X21120000Y-74761928D01*
X20605750Y-74765000D01*
X20447000Y-74923750D01*
X20193000Y-74923750D01*
X20034250Y-74765000D01*
X19520000Y-74761928D01*
X19395518Y-74774188D01*
X19275820Y-74810498D01*
X19165506Y-74869463D01*
X19068815Y-74948815D01*
X18989463Y-75045506D01*
X18930498Y-75155820D01*
X18894188Y-75275518D01*
X18881928Y-75400000D01*
X12190000Y-75400000D01*
X12190000Y-67803665D01*
X18885000Y-67803665D01*
X18885000Y-68086335D01*
X18940147Y-68363574D01*
X19048320Y-68624727D01*
X19205363Y-68859759D01*
X19405241Y-69059637D01*
X19640273Y-69216680D01*
X19901426Y-69324853D01*
X20178665Y-69380000D01*
X20461335Y-69380000D01*
X20738574Y-69324853D01*
X20999727Y-69216680D01*
X21234759Y-69059637D01*
X21434637Y-68859759D01*
X21591680Y-68624727D01*
X21699853Y-68363574D01*
X21755000Y-68086335D01*
X21755000Y-67803665D01*
X21699853Y-67526426D01*
X21591680Y-67265273D01*
X21434637Y-67030241D01*
X21234759Y-66830363D01*
X20999727Y-66673320D01*
X20738574Y-66565147D01*
X20461335Y-66510000D01*
X20178665Y-66510000D01*
X19901426Y-66565147D01*
X19640273Y-66673320D01*
X19405241Y-66830363D01*
X19205363Y-67030241D01*
X19048320Y-67265273D01*
X18940147Y-67526426D01*
X18885000Y-67803665D01*
X12190000Y-67803665D01*
X12190000Y-64061628D01*
X12198900Y-64068932D01*
X12448193Y-64202182D01*
X12718692Y-64284236D01*
X13000000Y-64311943D01*
X13281309Y-64284236D01*
X13551808Y-64202182D01*
X13801101Y-64068932D01*
X14019608Y-63889608D01*
X14198932Y-63671101D01*
X14332182Y-63421808D01*
X14414236Y-63151308D01*
X14435000Y-62940491D01*
X14435000Y-62099508D01*
X14414236Y-61888691D01*
X14332182Y-61618192D01*
X14198932Y-61368899D01*
X14019607Y-61150392D01*
X13801100Y-60971068D01*
X13551807Y-60837818D01*
X13281308Y-60755764D01*
X13000000Y-60728057D01*
X12718691Y-60755764D01*
X12448192Y-60837818D01*
X12198899Y-60971068D01*
X12190000Y-60978371D01*
X12190000Y-45011628D01*
X12198900Y-45018932D01*
X12448193Y-45152182D01*
X12718692Y-45234236D01*
X13000000Y-45261943D01*
X13281309Y-45234236D01*
X13551808Y-45152182D01*
X13801101Y-45018932D01*
X14019608Y-44839608D01*
X14198932Y-44621101D01*
X14332182Y-44371808D01*
X14351335Y-44308665D01*
X14440000Y-44308665D01*
X14440000Y-44591335D01*
X14495147Y-44868574D01*
X14603320Y-45129727D01*
X14760363Y-45364759D01*
X14960241Y-45564637D01*
X15192759Y-45720000D01*
X14960241Y-45875363D01*
X14760363Y-46075241D01*
X14603320Y-46310273D01*
X14495147Y-46571426D01*
X14440000Y-46848665D01*
X14440000Y-47131335D01*
X14495147Y-47408574D01*
X14603320Y-47669727D01*
X14760363Y-47904759D01*
X14960241Y-48104637D01*
X15192759Y-48260000D01*
X14960241Y-48415363D01*
X14760363Y-48615241D01*
X14603320Y-48850273D01*
X14495147Y-49111426D01*
X14440000Y-49388665D01*
X14440000Y-49671335D01*
X14495147Y-49948574D01*
X14603320Y-50209727D01*
X14760363Y-50444759D01*
X14960241Y-50644637D01*
X15195273Y-50801680D01*
X15456426Y-50909853D01*
X15733665Y-50965000D01*
X16016335Y-50965000D01*
X16293574Y-50909853D01*
X16554727Y-50801680D01*
X16789759Y-50644637D01*
X16989637Y-50444759D01*
X17146680Y-50209727D01*
X17254853Y-49948574D01*
X17310000Y-49671335D01*
X17310000Y-49388665D01*
X17254853Y-49111426D01*
X17146680Y-48850273D01*
X16989637Y-48615241D01*
X16789759Y-48415363D01*
X16557241Y-48260000D01*
X16789759Y-48104637D01*
X16989637Y-47904759D01*
X17146680Y-47669727D01*
X17254853Y-47408574D01*
X17310000Y-47131335D01*
X17310000Y-46848665D01*
X17254853Y-46571426D01*
X17146680Y-46310273D01*
X16989637Y-46075241D01*
X16789759Y-45875363D01*
X16557241Y-45720000D01*
X16789759Y-45564637D01*
X16989637Y-45364759D01*
X17146680Y-45129727D01*
X17254853Y-44868574D01*
X17310000Y-44591335D01*
X17310000Y-44308665D01*
X17254853Y-44031426D01*
X17146680Y-43770273D01*
X16989637Y-43535241D01*
X16789759Y-43335363D01*
X16555872Y-43179085D01*
X16616514Y-43146671D01*
X16688097Y-42902702D01*
X15875000Y-42089605D01*
X15061903Y-42902702D01*
X15133486Y-43146671D01*
X15197992Y-43177194D01*
X15195273Y-43178320D01*
X14960241Y-43335363D01*
X14760363Y-43535241D01*
X14603320Y-43770273D01*
X14495147Y-44031426D01*
X14440000Y-44308665D01*
X14351335Y-44308665D01*
X14414236Y-44101308D01*
X14435000Y-43890491D01*
X14435000Y-43049508D01*
X14414236Y-42838691D01*
X14332182Y-42568192D01*
X14198932Y-42318899D01*
X14019607Y-42100392D01*
X13873533Y-41980512D01*
X14434783Y-41980512D01*
X14476213Y-42260130D01*
X14571397Y-42526292D01*
X14638329Y-42651514D01*
X14882298Y-42723097D01*
X15695395Y-41910000D01*
X16054605Y-41910000D01*
X16867702Y-42723097D01*
X17111671Y-42651514D01*
X17232571Y-42396004D01*
X17301300Y-42121816D01*
X17308265Y-41980512D01*
X17609783Y-41980512D01*
X17651213Y-42260130D01*
X17746397Y-42526292D01*
X17813329Y-42651514D01*
X18057298Y-42723097D01*
X18870395Y-41910000D01*
X18057298Y-41096903D01*
X17813329Y-41168486D01*
X17692429Y-41423996D01*
X17623700Y-41698184D01*
X17609783Y-41980512D01*
X17308265Y-41980512D01*
X17315217Y-41839488D01*
X17273787Y-41559870D01*
X17178603Y-41293708D01*
X17111671Y-41168486D01*
X16867702Y-41096903D01*
X16054605Y-41910000D01*
X15695395Y-41910000D01*
X14882298Y-41096903D01*
X14638329Y-41168486D01*
X14517429Y-41423996D01*
X14448700Y-41698184D01*
X14434783Y-41980512D01*
X13873533Y-41980512D01*
X13801100Y-41921068D01*
X13551807Y-41787818D01*
X13281308Y-41705764D01*
X13000000Y-41678057D01*
X12718691Y-41705764D01*
X12448192Y-41787818D01*
X12198899Y-41921068D01*
X12190000Y-41928371D01*
X12190000Y-40917298D01*
X15061903Y-40917298D01*
X15875000Y-41730395D01*
X16688097Y-40917298D01*
X18236903Y-40917298D01*
X19050000Y-41730395D01*
X19863097Y-40917298D01*
X19791514Y-40673329D01*
X19536004Y-40552429D01*
X19261816Y-40483700D01*
X18979488Y-40469783D01*
X18699870Y-40511213D01*
X18433708Y-40606397D01*
X18308486Y-40673329D01*
X18236903Y-40917298D01*
X16688097Y-40917298D01*
X16616514Y-40673329D01*
X16361004Y-40552429D01*
X16086816Y-40483700D01*
X15804488Y-40469783D01*
X15524870Y-40511213D01*
X15258708Y-40606397D01*
X15133486Y-40673329D01*
X15061903Y-40917298D01*
X12190000Y-40917298D01*
X12190000Y-40073711D01*
X12233937Y-40029774D01*
X12347205Y-39860256D01*
X12425226Y-39671898D01*
X12465000Y-39471939D01*
X12465000Y-39268061D01*
X12425226Y-39068102D01*
X12347205Y-38879744D01*
X12233937Y-38710226D01*
X12089774Y-38566063D01*
X11920256Y-38452795D01*
X11731898Y-38374774D01*
X11531939Y-38335000D01*
X11328061Y-38335000D01*
X11128102Y-38374774D01*
X10939744Y-38452795D01*
X10770226Y-38566063D01*
X10626063Y-38710226D01*
X10512795Y-38879744D01*
X10434774Y-39068102D01*
X10395000Y-39268061D01*
X10395000Y-39471939D01*
X10434774Y-39671898D01*
X10512795Y-39860256D01*
X10626063Y-40029774D01*
X10670000Y-40073711D01*
X10670000Y-52067626D01*
X10594127Y-52027071D01*
X10351904Y-51953593D01*
X10163123Y-51935000D01*
X9036877Y-51935000D01*
X8848096Y-51953593D01*
X8605873Y-52027071D01*
X8382638Y-52146392D01*
X8186972Y-52306972D01*
X8026392Y-52502638D01*
X7907071Y-52725873D01*
X7833593Y-52968096D01*
X7808783Y-53220000D01*
X7833593Y-53471904D01*
X7907071Y-53714127D01*
X8026392Y-53937362D01*
X8186972Y-54133028D01*
X8382638Y-54293608D01*
X8553621Y-54385000D01*
X8179508Y-54385000D01*
X7968691Y-54405764D01*
X7698192Y-54487818D01*
X7448899Y-54621068D01*
X7230392Y-54800392D01*
X7051068Y-55018899D01*
X6917818Y-55268192D01*
X6835764Y-55538691D01*
X6808057Y-55820000D01*
X3935000Y-55820000D01*
X3935000Y-44170000D01*
X4108783Y-44170000D01*
X4133593Y-44421904D01*
X4207071Y-44664127D01*
X4326392Y-44887362D01*
X4486972Y-45083028D01*
X4682638Y-45243608D01*
X4905873Y-45362929D01*
X5148096Y-45436407D01*
X5336877Y-45455000D01*
X6463123Y-45455000D01*
X6651904Y-45436407D01*
X6894127Y-45362929D01*
X7117362Y-45243608D01*
X7313028Y-45083028D01*
X7473608Y-44887362D01*
X7592929Y-44664127D01*
X7666407Y-44421904D01*
X7691217Y-44170000D01*
X7666407Y-43918096D01*
X7592929Y-43675873D01*
X7473608Y-43452638D01*
X7313028Y-43256972D01*
X7117362Y-43096392D01*
X6894127Y-42977071D01*
X6651904Y-42903593D01*
X6463123Y-42885000D01*
X5336877Y-42885000D01*
X5148096Y-42903593D01*
X4905873Y-42977071D01*
X4682638Y-43096392D01*
X4486972Y-43256972D01*
X4326392Y-43452638D01*
X4207071Y-43675873D01*
X4133593Y-43918096D01*
X4108783Y-44170000D01*
X3935000Y-44170000D01*
X3935000Y-36770000D01*
X6808057Y-36770000D01*
X6835764Y-37051309D01*
X6917818Y-37321808D01*
X7051068Y-37571101D01*
X7230392Y-37789608D01*
X7448899Y-37968932D01*
X7698192Y-38102182D01*
X7968691Y-38184236D01*
X8179508Y-38205000D01*
X9020492Y-38205000D01*
X9231309Y-38184236D01*
X9501808Y-38102182D01*
X9751101Y-37968932D01*
X9969608Y-37789608D01*
X10148932Y-37571101D01*
X10282182Y-37321808D01*
X10364236Y-37051309D01*
X10391943Y-36770000D01*
X10364236Y-36488691D01*
X10282182Y-36218192D01*
X10148932Y-35968899D01*
X9969608Y-35750392D01*
X9751101Y-35571068D01*
X9533953Y-35455000D01*
X10163123Y-35455000D01*
X10351904Y-35436407D01*
X10594127Y-35362929D01*
X10817362Y-35243608D01*
X11013028Y-35083028D01*
X11173608Y-34887362D01*
X11292929Y-34664127D01*
X11366407Y-34421904D01*
X11391217Y-34170000D01*
X11366407Y-33918096D01*
X11292929Y-33675873D01*
X11173608Y-33452638D01*
X11013028Y-33256972D01*
X10817362Y-33096392D01*
X10594127Y-32977071D01*
X10351904Y-32903593D01*
X10163123Y-32885000D01*
X9036877Y-32885000D01*
X8848096Y-32903593D01*
X8605873Y-32977071D01*
X8382638Y-33096392D01*
X8186972Y-33256972D01*
X8026392Y-33452638D01*
X7907071Y-33675873D01*
X7833593Y-33918096D01*
X7808783Y-34170000D01*
X7833593Y-34421904D01*
X7907071Y-34664127D01*
X8026392Y-34887362D01*
X8186972Y-35083028D01*
X8382638Y-35243608D01*
X8553621Y-35335000D01*
X8179508Y-35335000D01*
X7968691Y-35355764D01*
X7698192Y-35437818D01*
X7448899Y-35571068D01*
X7230392Y-35750392D01*
X7051068Y-35968899D01*
X6917818Y-36218192D01*
X6835764Y-36488691D01*
X6808057Y-36770000D01*
X3935000Y-36770000D01*
X3935000Y-30973665D01*
X6820000Y-30973665D01*
X6820000Y-31256335D01*
X6875147Y-31533574D01*
X6983320Y-31794727D01*
X7140363Y-32029759D01*
X7340241Y-32229637D01*
X7575273Y-32386680D01*
X7836426Y-32494853D01*
X8113665Y-32550000D01*
X8396335Y-32550000D01*
X8673574Y-32494853D01*
X8934727Y-32386680D01*
X9169759Y-32229637D01*
X9291694Y-32107702D01*
X9981903Y-32107702D01*
X10053486Y-32351671D01*
X10308996Y-32472571D01*
X10583184Y-32541300D01*
X10865512Y-32555217D01*
X11145130Y-32513787D01*
X11411292Y-32418603D01*
X11536514Y-32351671D01*
X11608097Y-32107702D01*
X10795000Y-31294605D01*
X9981903Y-32107702D01*
X9291694Y-32107702D01*
X9369637Y-32029759D01*
X9525915Y-31795872D01*
X9558329Y-31856514D01*
X9802298Y-31928097D01*
X10615395Y-31115000D01*
X10974605Y-31115000D01*
X11787702Y-31928097D01*
X12031671Y-31856514D01*
X12152571Y-31601004D01*
X12221300Y-31326816D01*
X12235217Y-31044488D01*
X12193787Y-30764870D01*
X12098603Y-30498708D01*
X12031671Y-30373486D01*
X11787702Y-30301903D01*
X10974605Y-31115000D01*
X10615395Y-31115000D01*
X9802298Y-30301903D01*
X9558329Y-30373486D01*
X9527806Y-30437992D01*
X9526680Y-30435273D01*
X9369637Y-30200241D01*
X9291694Y-30122298D01*
X9981903Y-30122298D01*
X10795000Y-30935395D01*
X11608097Y-30122298D01*
X11536514Y-29878329D01*
X11281004Y-29757429D01*
X11006816Y-29688700D01*
X10724488Y-29674783D01*
X10444870Y-29716213D01*
X10178708Y-29811397D01*
X10053486Y-29878329D01*
X9981903Y-30122298D01*
X9291694Y-30122298D01*
X9169759Y-30000363D01*
X8934727Y-29843320D01*
X8673574Y-29735147D01*
X8396335Y-29680000D01*
X8113665Y-29680000D01*
X7836426Y-29735147D01*
X7575273Y-29843320D01*
X7340241Y-30000363D01*
X7140363Y-30200241D01*
X6983320Y-30435273D01*
X6875147Y-30696426D01*
X6820000Y-30973665D01*
X3935000Y-30973665D01*
X3935000Y-28295000D01*
X4108783Y-28295000D01*
X4133593Y-28546904D01*
X4207071Y-28789127D01*
X4326392Y-29012362D01*
X4486972Y-29208028D01*
X4682638Y-29368608D01*
X4905873Y-29487929D01*
X5148096Y-29561407D01*
X5336877Y-29580000D01*
X6463123Y-29580000D01*
X6651904Y-29561407D01*
X6894127Y-29487929D01*
X7117362Y-29368608D01*
X7313028Y-29208028D01*
X7473608Y-29012362D01*
X7592929Y-28789127D01*
X7666407Y-28546904D01*
X7691217Y-28295000D01*
X7666407Y-28043096D01*
X7592929Y-27800873D01*
X7550771Y-27722000D01*
X11565000Y-27722000D01*
X11565000Y-28072000D01*
X11617350Y-28349514D01*
X11722834Y-28611483D01*
X11877399Y-28847839D01*
X12075105Y-29049500D01*
X12308354Y-29208715D01*
X12568182Y-29319367D01*
X12650961Y-29336904D01*
X12873000Y-29214915D01*
X12873000Y-27722000D01*
X13127000Y-27722000D01*
X13127000Y-29214915D01*
X13349039Y-29336904D01*
X13431818Y-29319367D01*
X13691646Y-29208715D01*
X13896818Y-29068665D01*
X18885000Y-29068665D01*
X18885000Y-29351335D01*
X18940147Y-29628574D01*
X19048320Y-29889727D01*
X19205363Y-30124759D01*
X19405241Y-30324637D01*
X19640273Y-30481680D01*
X19901426Y-30589853D01*
X20178665Y-30645000D01*
X20461335Y-30645000D01*
X20738574Y-30589853D01*
X20999727Y-30481680D01*
X21234759Y-30324637D01*
X21434637Y-30124759D01*
X21591680Y-29889727D01*
X21699853Y-29628574D01*
X21755000Y-29351335D01*
X21755000Y-29068665D01*
X21699853Y-28791426D01*
X21591680Y-28530273D01*
X21434637Y-28295241D01*
X21234759Y-28095363D01*
X20999727Y-27938320D01*
X20738574Y-27830147D01*
X20461335Y-27775000D01*
X20178665Y-27775000D01*
X19901426Y-27830147D01*
X19640273Y-27938320D01*
X19405241Y-28095363D01*
X19205363Y-28295241D01*
X19048320Y-28530273D01*
X18940147Y-28791426D01*
X18885000Y-29068665D01*
X13896818Y-29068665D01*
X13924895Y-29049500D01*
X14122601Y-28847839D01*
X14277166Y-28611483D01*
X14382650Y-28349514D01*
X14435000Y-28072000D01*
X14435000Y-27722000D01*
X13127000Y-27722000D01*
X12873000Y-27722000D01*
X11565000Y-27722000D01*
X7550771Y-27722000D01*
X7473608Y-27577638D01*
X7313028Y-27381972D01*
X7117362Y-27221392D01*
X6923929Y-27118000D01*
X11565000Y-27118000D01*
X11565000Y-27468000D01*
X12873000Y-27468000D01*
X12873000Y-25975085D01*
X13127000Y-25975085D01*
X13127000Y-27468000D01*
X14435000Y-27468000D01*
X14435000Y-27118000D01*
X14382650Y-26840486D01*
X14277166Y-26578517D01*
X14122601Y-26342161D01*
X13924895Y-26140500D01*
X13691646Y-25981285D01*
X13431818Y-25870633D01*
X13349039Y-25853096D01*
X13127000Y-25975085D01*
X12873000Y-25975085D01*
X12650961Y-25853096D01*
X12568182Y-25870633D01*
X12308354Y-25981285D01*
X12075105Y-26140500D01*
X11877399Y-26342161D01*
X11722834Y-26578517D01*
X11617350Y-26840486D01*
X11565000Y-27118000D01*
X6923929Y-27118000D01*
X6894127Y-27102071D01*
X6651904Y-27028593D01*
X6463123Y-27010000D01*
X5336877Y-27010000D01*
X5148096Y-27028593D01*
X4905873Y-27102071D01*
X4682638Y-27221392D01*
X4486972Y-27381972D01*
X4326392Y-27577638D01*
X4207071Y-27800873D01*
X4133593Y-28043096D01*
X4108783Y-28295000D01*
X3935000Y-28295000D01*
X3935000Y-20895000D01*
X6808057Y-20895000D01*
X6835764Y-21176309D01*
X6917818Y-21446808D01*
X7051068Y-21696101D01*
X7230392Y-21914608D01*
X7448899Y-22093932D01*
X7698192Y-22227182D01*
X7968691Y-22309236D01*
X8179508Y-22330000D01*
X9020492Y-22330000D01*
X9231309Y-22309236D01*
X9501808Y-22227182D01*
X9751101Y-22093932D01*
X9969608Y-21914608D01*
X10148932Y-21696101D01*
X10282182Y-21446808D01*
X10364236Y-21176309D01*
X10391943Y-20895000D01*
X10364236Y-20613691D01*
X10282182Y-20343192D01*
X10194241Y-20178665D01*
X15710000Y-20178665D01*
X15710000Y-20461335D01*
X15765147Y-20738574D01*
X15873320Y-20999727D01*
X16030363Y-21234759D01*
X16230241Y-21434637D01*
X16465273Y-21591680D01*
X16726426Y-21699853D01*
X17003665Y-21755000D01*
X17286335Y-21755000D01*
X17563574Y-21699853D01*
X17824727Y-21591680D01*
X18059759Y-21434637D01*
X18259637Y-21234759D01*
X18416680Y-20999727D01*
X18524853Y-20738574D01*
X18533783Y-20693678D01*
X18587818Y-20871808D01*
X18721068Y-21121101D01*
X18900392Y-21339608D01*
X19118899Y-21518932D01*
X19251858Y-21590000D01*
X19118899Y-21661068D01*
X18900392Y-21840392D01*
X18721068Y-22058899D01*
X18587818Y-22308192D01*
X18505764Y-22578691D01*
X18478057Y-22860000D01*
X18505764Y-23141309D01*
X18587818Y-23411808D01*
X18721068Y-23661101D01*
X18900392Y-23879608D01*
X19118899Y-24058932D01*
X19251858Y-24130000D01*
X19118899Y-24201068D01*
X18900392Y-24380392D01*
X18721068Y-24598899D01*
X18587818Y-24848192D01*
X18543394Y-24994639D01*
X18524853Y-24901426D01*
X18416680Y-24640273D01*
X18259637Y-24405241D01*
X18059759Y-24205363D01*
X17824727Y-24048320D01*
X17563574Y-23940147D01*
X17286335Y-23885000D01*
X17003665Y-23885000D01*
X16726426Y-23940147D01*
X16465273Y-24048320D01*
X16230241Y-24205363D01*
X16030363Y-24405241D01*
X15873320Y-24640273D01*
X15765147Y-24901426D01*
X15710000Y-25178665D01*
X15710000Y-25461335D01*
X15765147Y-25738574D01*
X15873320Y-25999727D01*
X16030363Y-26234759D01*
X16230241Y-26434637D01*
X16465273Y-26591680D01*
X16726426Y-26699853D01*
X17003665Y-26755000D01*
X17286335Y-26755000D01*
X17563574Y-26699853D01*
X17824727Y-26591680D01*
X18059759Y-26434637D01*
X18259637Y-26234759D01*
X18416680Y-25999727D01*
X18523861Y-25740968D01*
X18587818Y-25951808D01*
X18721068Y-26201101D01*
X18900392Y-26419608D01*
X19118899Y-26598932D01*
X19368192Y-26732182D01*
X19638691Y-26814236D01*
X19849508Y-26835000D01*
X20790492Y-26835000D01*
X21001309Y-26814236D01*
X21271808Y-26732182D01*
X21521101Y-26598932D01*
X21739608Y-26419608D01*
X21918932Y-26201101D01*
X21940901Y-26160000D01*
X22815000Y-26160000D01*
X22815001Y-28617668D01*
X22811324Y-28655000D01*
X22815001Y-28692333D01*
X22824535Y-28789127D01*
X22825998Y-28803985D01*
X22869454Y-28947246D01*
X22940026Y-29079276D01*
X23011201Y-29166002D01*
X23035000Y-29195001D01*
X23063998Y-29218799D01*
X25275000Y-31429802D01*
X25275001Y-48580197D01*
X25085199Y-48770000D01*
X23845901Y-48770000D01*
X23823932Y-48728899D01*
X23644608Y-48510392D01*
X23426101Y-48331068D01*
X23293142Y-48260000D01*
X23426101Y-48188932D01*
X23644608Y-48009608D01*
X23823932Y-47791101D01*
X23957182Y-47541808D01*
X24039236Y-47271309D01*
X24066943Y-46990000D01*
X24039236Y-46708691D01*
X23957182Y-46438192D01*
X23823932Y-46188899D01*
X23644608Y-45970392D01*
X23426101Y-45791068D01*
X23293142Y-45720000D01*
X23426101Y-45648932D01*
X23644608Y-45469608D01*
X23823932Y-45251101D01*
X23957182Y-45001808D01*
X24039236Y-44731309D01*
X24066943Y-44450000D01*
X24039236Y-44168691D01*
X23957182Y-43898192D01*
X23823932Y-43648899D01*
X23644608Y-43430392D01*
X23531518Y-43337581D01*
X23549482Y-43335812D01*
X23669180Y-43299502D01*
X23779494Y-43240537D01*
X23876185Y-43161185D01*
X23955537Y-43064494D01*
X24014502Y-42954180D01*
X24050812Y-42834482D01*
X24063072Y-42710000D01*
X24063072Y-41110000D01*
X24050812Y-40985518D01*
X24014502Y-40865820D01*
X23955537Y-40755506D01*
X23876185Y-40658815D01*
X23779494Y-40579463D01*
X23669180Y-40520498D01*
X23549482Y-40484188D01*
X23425000Y-40471928D01*
X21025000Y-40471928D01*
X20900518Y-40484188D01*
X20780820Y-40520498D01*
X20670506Y-40579463D01*
X20573815Y-40658815D01*
X20494463Y-40755506D01*
X20435498Y-40865820D01*
X20399188Y-40985518D01*
X20386928Y-41110000D01*
X20386928Y-41386894D01*
X20353603Y-41293708D01*
X20286671Y-41168486D01*
X20042702Y-41096903D01*
X19229605Y-41910000D01*
X20042702Y-42723097D01*
X20286671Y-42651514D01*
X20386928Y-42439631D01*
X20386928Y-42710000D01*
X20399188Y-42834482D01*
X20435498Y-42954180D01*
X20494463Y-43064494D01*
X20573815Y-43161185D01*
X20670506Y-43240537D01*
X20780820Y-43299502D01*
X20900518Y-43335812D01*
X20918482Y-43337581D01*
X20805392Y-43430392D01*
X20626068Y-43648899D01*
X20492818Y-43898192D01*
X20438783Y-44076322D01*
X20429853Y-44031426D01*
X20321680Y-43770273D01*
X20164637Y-43535241D01*
X19964759Y-43335363D01*
X19730872Y-43179085D01*
X19791514Y-43146671D01*
X19863097Y-42902702D01*
X19050000Y-42089605D01*
X18236903Y-42902702D01*
X18308486Y-43146671D01*
X18372992Y-43177194D01*
X18370273Y-43178320D01*
X18135241Y-43335363D01*
X17935363Y-43535241D01*
X17778320Y-43770273D01*
X17670147Y-44031426D01*
X17615000Y-44308665D01*
X17615000Y-44591335D01*
X17670147Y-44868574D01*
X17778320Y-45129727D01*
X17935363Y-45364759D01*
X18135241Y-45564637D01*
X18367759Y-45720000D01*
X18135241Y-45875363D01*
X17935363Y-46075241D01*
X17778320Y-46310273D01*
X17670147Y-46571426D01*
X17615000Y-46848665D01*
X17615000Y-47131335D01*
X17670147Y-47408574D01*
X17778320Y-47669727D01*
X17935363Y-47904759D01*
X18135241Y-48104637D01*
X18367759Y-48260000D01*
X18135241Y-48415363D01*
X17935363Y-48615241D01*
X17778320Y-48850273D01*
X17670147Y-49111426D01*
X17615000Y-49388665D01*
X17615000Y-49671335D01*
X17670147Y-49948574D01*
X17778320Y-50209727D01*
X17935363Y-50444759D01*
X18135241Y-50644637D01*
X18370273Y-50801680D01*
X18631426Y-50909853D01*
X18908665Y-50965000D01*
X19191335Y-50965000D01*
X19468574Y-50909853D01*
X19729727Y-50801680D01*
X19964759Y-50644637D01*
X20164637Y-50444759D01*
X20321680Y-50209727D01*
X20429853Y-49948574D01*
X20438783Y-49903678D01*
X20492818Y-50081808D01*
X20626068Y-50331101D01*
X20805392Y-50549608D01*
X21023899Y-50728932D01*
X21273192Y-50862182D01*
X21543691Y-50944236D01*
X21754508Y-50965000D01*
X22695492Y-50965000D01*
X22906309Y-50944236D01*
X23176808Y-50862182D01*
X23426101Y-50728932D01*
X23644608Y-50549608D01*
X23823932Y-50331101D01*
X23845901Y-50290000D01*
X25362678Y-50290000D01*
X25400000Y-50293676D01*
X25437322Y-50290000D01*
X25437333Y-50290000D01*
X25548986Y-50279003D01*
X25692247Y-50235546D01*
X25824276Y-50164974D01*
X25940001Y-50070001D01*
X25963803Y-50040998D01*
X26546002Y-49458800D01*
X26575001Y-49435001D01*
X26669974Y-49319276D01*
X26740546Y-49187247D01*
X26784003Y-49043986D01*
X26795000Y-48932333D01*
X26798677Y-48895000D01*
X26795000Y-48857667D01*
X26795000Y-41910000D01*
X28003057Y-41910000D01*
X28030764Y-42191309D01*
X28112818Y-42461808D01*
X28246068Y-42711101D01*
X28425392Y-42929608D01*
X28643899Y-43108932D01*
X28776858Y-43180000D01*
X28643899Y-43251068D01*
X28425392Y-43430392D01*
X28246068Y-43648899D01*
X28112818Y-43898192D01*
X28030764Y-44168691D01*
X28003057Y-44450000D01*
X28030764Y-44731309D01*
X28112818Y-45001808D01*
X28246068Y-45251101D01*
X28425392Y-45469608D01*
X28643899Y-45648932D01*
X28776858Y-45720000D01*
X28643899Y-45791068D01*
X28425392Y-45970392D01*
X28246068Y-46188899D01*
X28112818Y-46438192D01*
X28030764Y-46708691D01*
X28003057Y-46990000D01*
X28030764Y-47271309D01*
X28112818Y-47541808D01*
X28246068Y-47791101D01*
X28425392Y-48009608D01*
X28643899Y-48188932D01*
X28776858Y-48260000D01*
X28643899Y-48331068D01*
X28425392Y-48510392D01*
X28246068Y-48728899D01*
X28112818Y-48978192D01*
X28030764Y-49248691D01*
X28003057Y-49530000D01*
X28030764Y-49811309D01*
X28112818Y-50081808D01*
X28246068Y-50331101D01*
X28425392Y-50549608D01*
X28643899Y-50728932D01*
X28893192Y-50862182D01*
X29163691Y-50944236D01*
X29374508Y-50965000D01*
X30315492Y-50965000D01*
X30526309Y-50944236D01*
X30796808Y-50862182D01*
X31046101Y-50728932D01*
X31264608Y-50549608D01*
X31443932Y-50331101D01*
X31577182Y-50081808D01*
X31659236Y-49811309D01*
X31686943Y-49530000D01*
X31659236Y-49248691D01*
X31577182Y-48978192D01*
X31443932Y-48728899D01*
X31264608Y-48510392D01*
X31046101Y-48331068D01*
X30913142Y-48260000D01*
X31046101Y-48188932D01*
X31264608Y-48009608D01*
X31443932Y-47791101D01*
X31577182Y-47541808D01*
X31621606Y-47395361D01*
X31640147Y-47488574D01*
X31748320Y-47749727D01*
X31905363Y-47984759D01*
X32105241Y-48184637D01*
X32340273Y-48341680D01*
X32601426Y-48449853D01*
X32878665Y-48505000D01*
X33161335Y-48505000D01*
X33438574Y-48449853D01*
X33699727Y-48341680D01*
X33934759Y-48184637D01*
X34134637Y-47984759D01*
X34291680Y-47749727D01*
X34399853Y-47488574D01*
X34455000Y-47211335D01*
X34455000Y-46928665D01*
X34399853Y-46651426D01*
X34291680Y-46390273D01*
X34134637Y-46155241D01*
X33934759Y-45955363D01*
X33699727Y-45798320D01*
X33438574Y-45690147D01*
X33161335Y-45635000D01*
X32878665Y-45635000D01*
X32601426Y-45690147D01*
X32340273Y-45798320D01*
X32105241Y-45955363D01*
X31905363Y-46155241D01*
X31748320Y-46390273D01*
X31641139Y-46649032D01*
X31577182Y-46438192D01*
X31443932Y-46188899D01*
X31264608Y-45970392D01*
X31046101Y-45791068D01*
X30913142Y-45720000D01*
X31046101Y-45648932D01*
X31264608Y-45469608D01*
X31286689Y-45442702D01*
X35381903Y-45442702D01*
X35453486Y-45686671D01*
X35708996Y-45807571D01*
X35983184Y-45876300D01*
X36265512Y-45890217D01*
X36545130Y-45848787D01*
X36811292Y-45753603D01*
X36936514Y-45686671D01*
X37008097Y-45442702D01*
X36195000Y-44629605D01*
X35381903Y-45442702D01*
X31286689Y-45442702D01*
X31443932Y-45251101D01*
X31577182Y-45001808D01*
X31659236Y-44731309D01*
X31679998Y-44520512D01*
X34754783Y-44520512D01*
X34796213Y-44800130D01*
X34891397Y-45066292D01*
X34958329Y-45191514D01*
X35202298Y-45263097D01*
X36015395Y-44450000D01*
X35202298Y-43636903D01*
X34958329Y-43708486D01*
X34837429Y-43963996D01*
X34768700Y-44238184D01*
X34754783Y-44520512D01*
X31679998Y-44520512D01*
X31686943Y-44450000D01*
X31659236Y-44168691D01*
X31577182Y-43898192D01*
X31443932Y-43648899D01*
X31286690Y-43457298D01*
X35381903Y-43457298D01*
X36195000Y-44270395D01*
X37008097Y-43457298D01*
X36936514Y-43213329D01*
X36681004Y-43092429D01*
X36406816Y-43023700D01*
X36124488Y-43009783D01*
X35844870Y-43051213D01*
X35578708Y-43146397D01*
X35453486Y-43213329D01*
X35381903Y-43457298D01*
X31286690Y-43457298D01*
X31264608Y-43430392D01*
X31046101Y-43251068D01*
X30913142Y-43180000D01*
X31046101Y-43108932D01*
X31264608Y-42929608D01*
X31443932Y-42711101D01*
X31577182Y-42461808D01*
X31659236Y-42191309D01*
X31686943Y-41910000D01*
X31659236Y-41628691D01*
X31577182Y-41358192D01*
X31443932Y-41108899D01*
X31264608Y-40890392D01*
X31046101Y-40711068D01*
X30796808Y-40577818D01*
X30526309Y-40495764D01*
X30315492Y-40475000D01*
X29374508Y-40475000D01*
X29163691Y-40495764D01*
X28893192Y-40577818D01*
X28643899Y-40711068D01*
X28425392Y-40890392D01*
X28246068Y-41108899D01*
X28112818Y-41358192D01*
X28030764Y-41628691D01*
X28003057Y-41910000D01*
X26795000Y-41910000D01*
X26795000Y-31152322D01*
X26798676Y-31114999D01*
X26795000Y-31077676D01*
X26795000Y-31077667D01*
X26784003Y-30966014D01*
X26740546Y-30822753D01*
X26669974Y-30690724D01*
X26575001Y-30574999D01*
X26546004Y-30551202D01*
X25063467Y-29068665D01*
X26505000Y-29068665D01*
X26505000Y-29351335D01*
X26560147Y-29628574D01*
X26668320Y-29889727D01*
X26825363Y-30124759D01*
X27025241Y-30324637D01*
X27260273Y-30481680D01*
X27521426Y-30589853D01*
X27798665Y-30645000D01*
X28081335Y-30645000D01*
X28358574Y-30589853D01*
X28619727Y-30481680D01*
X28854759Y-30324637D01*
X29054637Y-30124759D01*
X29211680Y-29889727D01*
X29319853Y-29628574D01*
X29375000Y-29351335D01*
X29375000Y-29068665D01*
X29319853Y-28791426D01*
X29211680Y-28530273D01*
X29054637Y-28295241D01*
X28854759Y-28095363D01*
X28619727Y-27938320D01*
X28358574Y-27830147D01*
X28081335Y-27775000D01*
X27798665Y-27775000D01*
X27521426Y-27830147D01*
X27260273Y-27938320D01*
X27025241Y-28095363D01*
X26825363Y-28295241D01*
X26668320Y-28530273D01*
X26560147Y-28791426D01*
X26505000Y-29068665D01*
X25063467Y-29068665D01*
X24335000Y-28340199D01*
X24335000Y-24722325D01*
X24338676Y-24685000D01*
X24335000Y-24647675D01*
X24335000Y-22860000D01*
X26098057Y-22860000D01*
X26125764Y-23141309D01*
X26207818Y-23411808D01*
X26341068Y-23661101D01*
X26520392Y-23879608D01*
X26738899Y-24058932D01*
X26871858Y-24130000D01*
X26738899Y-24201068D01*
X26520392Y-24380392D01*
X26341068Y-24598899D01*
X26207818Y-24848192D01*
X26125764Y-25118691D01*
X26098057Y-25400000D01*
X26125764Y-25681309D01*
X26207818Y-25951808D01*
X26341068Y-26201101D01*
X26520392Y-26419608D01*
X26738899Y-26598932D01*
X26988192Y-26732182D01*
X27258691Y-26814236D01*
X27469508Y-26835000D01*
X28410492Y-26835000D01*
X28621309Y-26814236D01*
X28891808Y-26732182D01*
X29141101Y-26598932D01*
X29359608Y-26419608D01*
X29538932Y-26201101D01*
X29672182Y-25951808D01*
X29754236Y-25681309D01*
X29781943Y-25400000D01*
X29754236Y-25118691D01*
X29672182Y-24848192D01*
X29538932Y-24598899D01*
X29359608Y-24380392D01*
X29141101Y-24201068D01*
X29008142Y-24130000D01*
X29141101Y-24058932D01*
X29359608Y-23879608D01*
X29538932Y-23661101D01*
X29672182Y-23411808D01*
X29726217Y-23233678D01*
X29735147Y-23278574D01*
X29843320Y-23539727D01*
X30000363Y-23774759D01*
X30200241Y-23974637D01*
X30435273Y-24131680D01*
X30696426Y-24239853D01*
X30973665Y-24295000D01*
X31256335Y-24295000D01*
X31533574Y-24239853D01*
X31794727Y-24131680D01*
X32029759Y-23974637D01*
X32151694Y-23852702D01*
X35301903Y-23852702D01*
X35373486Y-24096671D01*
X35628996Y-24217571D01*
X35903184Y-24286300D01*
X36185512Y-24300217D01*
X36465130Y-24258787D01*
X36731292Y-24163603D01*
X36856514Y-24096671D01*
X36928097Y-23852702D01*
X36115000Y-23039605D01*
X35301903Y-23852702D01*
X32151694Y-23852702D01*
X32229637Y-23774759D01*
X32386680Y-23539727D01*
X32494853Y-23278574D01*
X32550000Y-23001335D01*
X32550000Y-22930512D01*
X34674783Y-22930512D01*
X34716213Y-23210130D01*
X34811397Y-23476292D01*
X34878329Y-23601514D01*
X35122298Y-23673097D01*
X35935395Y-22860000D01*
X35122298Y-22046903D01*
X34878329Y-22118486D01*
X34757429Y-22373996D01*
X34688700Y-22648184D01*
X34674783Y-22930512D01*
X32550000Y-22930512D01*
X32550000Y-22718665D01*
X32494853Y-22441426D01*
X32386680Y-22180273D01*
X32229637Y-21945241D01*
X32151694Y-21867298D01*
X35301903Y-21867298D01*
X36115000Y-22680395D01*
X36928097Y-21867298D01*
X36856514Y-21623329D01*
X36601004Y-21502429D01*
X36326816Y-21433700D01*
X36044488Y-21419783D01*
X35764870Y-21461213D01*
X35498708Y-21556397D01*
X35373486Y-21623329D01*
X35301903Y-21867298D01*
X32151694Y-21867298D01*
X32029759Y-21745363D01*
X31794727Y-21588320D01*
X31533574Y-21480147D01*
X31256335Y-21425000D01*
X30973665Y-21425000D01*
X30696426Y-21480147D01*
X30435273Y-21588320D01*
X30200241Y-21745363D01*
X30000363Y-21945241D01*
X29843320Y-22180273D01*
X29735147Y-22441426D01*
X29726217Y-22486322D01*
X29672182Y-22308192D01*
X29538932Y-22058899D01*
X29359608Y-21840392D01*
X29141101Y-21661068D01*
X29013259Y-21592735D01*
X29242839Y-21442601D01*
X29444500Y-21244895D01*
X29603715Y-21011646D01*
X29714367Y-20751818D01*
X29731904Y-20669039D01*
X29609915Y-20447000D01*
X28067000Y-20447000D01*
X28067000Y-20467000D01*
X27813000Y-20467000D01*
X27813000Y-20447000D01*
X26270085Y-20447000D01*
X26148096Y-20669039D01*
X26165633Y-20751818D01*
X26276285Y-21011646D01*
X26435500Y-21244895D01*
X26637161Y-21442601D01*
X26866741Y-21592735D01*
X26738899Y-21661068D01*
X26520392Y-21840392D01*
X26341068Y-22058899D01*
X26207818Y-22308192D01*
X26125764Y-22578691D01*
X26098057Y-22860000D01*
X24335000Y-22860000D01*
X24335000Y-17780000D01*
X26098057Y-17780000D01*
X26125764Y-18061309D01*
X26207818Y-18331808D01*
X26341068Y-18581101D01*
X26520392Y-18799608D01*
X26738899Y-18978932D01*
X26866741Y-19047265D01*
X26637161Y-19197399D01*
X26435500Y-19395105D01*
X26276285Y-19628354D01*
X26165633Y-19888182D01*
X26148096Y-19970961D01*
X26270085Y-20193000D01*
X27813000Y-20193000D01*
X27813000Y-20173000D01*
X28067000Y-20173000D01*
X28067000Y-20193000D01*
X29609915Y-20193000D01*
X29731904Y-19970961D01*
X29714367Y-19888182D01*
X29603715Y-19628354D01*
X29444500Y-19395105D01*
X29242839Y-19197399D01*
X29013259Y-19047265D01*
X29141101Y-18978932D01*
X29359608Y-18799608D01*
X29538932Y-18581101D01*
X29672182Y-18331808D01*
X29754236Y-18061309D01*
X29781943Y-17780000D01*
X29754236Y-17498691D01*
X29672182Y-17228192D01*
X29538932Y-16978899D01*
X29359608Y-16760392D01*
X29141101Y-16581068D01*
X28891808Y-16447818D01*
X28621309Y-16365764D01*
X28410492Y-16345000D01*
X27469508Y-16345000D01*
X27258691Y-16365764D01*
X26988192Y-16447818D01*
X26738899Y-16581068D01*
X26520392Y-16760392D01*
X26341068Y-16978899D01*
X26207818Y-17228192D01*
X26125764Y-17498691D01*
X26098057Y-17780000D01*
X24335000Y-17780000D01*
X24335000Y-15188043D01*
X24489759Y-15084637D01*
X24689637Y-14884759D01*
X24846680Y-14649727D01*
X24954853Y-14388574D01*
X25010000Y-14111335D01*
X25010000Y-13828665D01*
X27140000Y-13828665D01*
X27140000Y-14111335D01*
X27195147Y-14388574D01*
X27303320Y-14649727D01*
X27460363Y-14884759D01*
X27660241Y-15084637D01*
X27895273Y-15241680D01*
X28156426Y-15349853D01*
X28433665Y-15405000D01*
X28716335Y-15405000D01*
X28993574Y-15349853D01*
X29254727Y-15241680D01*
X29489759Y-15084637D01*
X29689637Y-14884759D01*
X29846680Y-14649727D01*
X29954853Y-14388574D01*
X30010000Y-14111335D01*
X30010000Y-13828665D01*
X29954853Y-13551426D01*
X29846680Y-13290273D01*
X29782129Y-13193665D01*
X31585000Y-13193665D01*
X31585000Y-13476335D01*
X31640147Y-13753574D01*
X31748320Y-14014727D01*
X31905363Y-14249759D01*
X32105241Y-14449637D01*
X32340273Y-14606680D01*
X32601426Y-14714853D01*
X32878665Y-14770000D01*
X33161335Y-14770000D01*
X33438574Y-14714853D01*
X33699727Y-14606680D01*
X33934759Y-14449637D01*
X34134637Y-14249759D01*
X34291680Y-14014727D01*
X34399853Y-13753574D01*
X34455000Y-13476335D01*
X34455000Y-13193665D01*
X34399853Y-12916426D01*
X34291680Y-12655273D01*
X34134637Y-12420241D01*
X33934759Y-12220363D01*
X33699727Y-12063320D01*
X33438574Y-11955147D01*
X33161335Y-11900000D01*
X32878665Y-11900000D01*
X32601426Y-11955147D01*
X32340273Y-12063320D01*
X32105241Y-12220363D01*
X31905363Y-12420241D01*
X31748320Y-12655273D01*
X31640147Y-12916426D01*
X31585000Y-13193665D01*
X29782129Y-13193665D01*
X29689637Y-13055241D01*
X29489759Y-12855363D01*
X29254727Y-12698320D01*
X28993574Y-12590147D01*
X28716335Y-12535000D01*
X28433665Y-12535000D01*
X28156426Y-12590147D01*
X27895273Y-12698320D01*
X27660241Y-12855363D01*
X27460363Y-13055241D01*
X27303320Y-13290273D01*
X27195147Y-13551426D01*
X27140000Y-13828665D01*
X25010000Y-13828665D01*
X24954853Y-13551426D01*
X24846680Y-13290273D01*
X24689637Y-13055241D01*
X24489759Y-12855363D01*
X24254727Y-12698320D01*
X23993574Y-12590147D01*
X23716335Y-12535000D01*
X23433665Y-12535000D01*
X23156426Y-12590147D01*
X22895273Y-12698320D01*
X22660241Y-12855363D01*
X22460363Y-13055241D01*
X22303320Y-13290273D01*
X22195147Y-13551426D01*
X22140000Y-13828665D01*
X22140000Y-14111335D01*
X22195147Y-14388574D01*
X22303320Y-14649727D01*
X22460363Y-14884759D01*
X22660241Y-15084637D01*
X22815000Y-15188043D01*
X22815001Y-24370197D01*
X22545199Y-24640000D01*
X21940901Y-24640000D01*
X21918932Y-24598899D01*
X21739608Y-24380392D01*
X21521101Y-24201068D01*
X21388142Y-24130000D01*
X21521101Y-24058932D01*
X21739608Y-23879608D01*
X21918932Y-23661101D01*
X22052182Y-23411808D01*
X22134236Y-23141309D01*
X22161943Y-22860000D01*
X22134236Y-22578691D01*
X22052182Y-22308192D01*
X21918932Y-22058899D01*
X21739608Y-21840392D01*
X21521101Y-21661068D01*
X21388142Y-21590000D01*
X21521101Y-21518932D01*
X21739608Y-21339608D01*
X21918932Y-21121101D01*
X22052182Y-20871808D01*
X22134236Y-20601309D01*
X22161943Y-20320000D01*
X22134236Y-20038691D01*
X22052182Y-19768192D01*
X21918932Y-19518899D01*
X21739608Y-19300392D01*
X21626518Y-19207581D01*
X21644482Y-19205812D01*
X21764180Y-19169502D01*
X21874494Y-19110537D01*
X21971185Y-19031185D01*
X22050537Y-18934494D01*
X22109502Y-18824180D01*
X22145812Y-18704482D01*
X22158072Y-18580000D01*
X22158072Y-16980000D01*
X22145812Y-16855518D01*
X22109502Y-16735820D01*
X22050537Y-16625506D01*
X21971185Y-16528815D01*
X21874494Y-16449463D01*
X21764180Y-16390498D01*
X21644482Y-16354188D01*
X21520000Y-16341928D01*
X19120000Y-16341928D01*
X18995518Y-16354188D01*
X18875820Y-16390498D01*
X18765506Y-16449463D01*
X18668815Y-16528815D01*
X18589463Y-16625506D01*
X18530498Y-16735820D01*
X18494188Y-16855518D01*
X18481928Y-16980000D01*
X18481928Y-18580000D01*
X18494188Y-18704482D01*
X18530498Y-18824180D01*
X18589463Y-18934494D01*
X18668815Y-19031185D01*
X18765506Y-19110537D01*
X18875820Y-19169502D01*
X18995518Y-19205812D01*
X19013482Y-19207581D01*
X18900392Y-19300392D01*
X18721068Y-19518899D01*
X18587818Y-19768192D01*
X18533783Y-19946322D01*
X18524853Y-19901426D01*
X18416680Y-19640273D01*
X18259637Y-19405241D01*
X18059759Y-19205363D01*
X17824727Y-19048320D01*
X17563574Y-18940147D01*
X17286335Y-18885000D01*
X17003665Y-18885000D01*
X16726426Y-18940147D01*
X16465273Y-19048320D01*
X16230241Y-19205363D01*
X16030363Y-19405241D01*
X15873320Y-19640273D01*
X15765147Y-19901426D01*
X15710000Y-20178665D01*
X10194241Y-20178665D01*
X10148932Y-20093899D01*
X9969608Y-19875392D01*
X9751101Y-19696068D01*
X9533953Y-19580000D01*
X10163123Y-19580000D01*
X10351904Y-19561407D01*
X10594127Y-19487929D01*
X10817362Y-19368608D01*
X11013028Y-19208028D01*
X11173608Y-19012362D01*
X11292929Y-18789127D01*
X11366407Y-18546904D01*
X11391217Y-18295000D01*
X11366407Y-18043096D01*
X11292929Y-17800873D01*
X11173608Y-17577638D01*
X11013028Y-17381972D01*
X10817362Y-17221392D01*
X10594127Y-17102071D01*
X10351904Y-17028593D01*
X10163123Y-17010000D01*
X9036877Y-17010000D01*
X8848096Y-17028593D01*
X8605873Y-17102071D01*
X8382638Y-17221392D01*
X8186972Y-17381972D01*
X8026392Y-17577638D01*
X7907071Y-17800873D01*
X7833593Y-18043096D01*
X7808783Y-18295000D01*
X7833593Y-18546904D01*
X7907071Y-18789127D01*
X8026392Y-19012362D01*
X8186972Y-19208028D01*
X8382638Y-19368608D01*
X8553621Y-19460000D01*
X8179508Y-19460000D01*
X7968691Y-19480764D01*
X7698192Y-19562818D01*
X7448899Y-19696068D01*
X7230392Y-19875392D01*
X7051068Y-20093899D01*
X6917818Y-20343192D01*
X6835764Y-20613691D01*
X6808057Y-20895000D01*
X3935000Y-20895000D01*
X3935000Y-14919801D01*
X5166575Y-13688227D01*
X5336877Y-13705000D01*
X6463123Y-13705000D01*
X6651904Y-13686407D01*
X6894127Y-13612929D01*
X7117362Y-13493608D01*
X7313028Y-13333028D01*
X7473608Y-13137362D01*
X7592929Y-12914127D01*
X7666407Y-12671904D01*
X7691217Y-12420000D01*
X7666407Y-12168096D01*
X7592929Y-11925873D01*
X7550771Y-11847000D01*
X11565000Y-11847000D01*
X11565000Y-12197000D01*
X11617350Y-12474514D01*
X11722834Y-12736483D01*
X11877399Y-12972839D01*
X12075105Y-13174500D01*
X12308354Y-13333715D01*
X12568182Y-13444367D01*
X12650961Y-13461904D01*
X12873000Y-13339915D01*
X12873000Y-11847000D01*
X13127000Y-11847000D01*
X13127000Y-13339915D01*
X13349039Y-13461904D01*
X13431818Y-13444367D01*
X13691646Y-13333715D01*
X13924895Y-13174500D01*
X14122601Y-12972839D01*
X14277166Y-12736483D01*
X14382650Y-12474514D01*
X14435000Y-12197000D01*
X14435000Y-11847000D01*
X13127000Y-11847000D01*
X12873000Y-11847000D01*
X11565000Y-11847000D01*
X7550771Y-11847000D01*
X7473608Y-11702638D01*
X7313028Y-11506972D01*
X7117362Y-11346392D01*
X6923929Y-11243000D01*
X11565000Y-11243000D01*
X11565000Y-11593000D01*
X12873000Y-11593000D01*
X12873000Y-10100085D01*
X13127000Y-10100085D01*
X13127000Y-11593000D01*
X14435000Y-11593000D01*
X14435000Y-11243000D01*
X14382650Y-10965486D01*
X14277166Y-10703517D01*
X14122601Y-10467161D01*
X13924895Y-10265500D01*
X13691646Y-10106285D01*
X13431818Y-9995633D01*
X13349039Y-9978096D01*
X13127000Y-10100085D01*
X12873000Y-10100085D01*
X12650961Y-9978096D01*
X12568182Y-9995633D01*
X12308354Y-10106285D01*
X12075105Y-10265500D01*
X11877399Y-10467161D01*
X11722834Y-10703517D01*
X11617350Y-10965486D01*
X11565000Y-11243000D01*
X6923929Y-11243000D01*
X6894127Y-11227071D01*
X6651904Y-11153593D01*
X6463123Y-11135000D01*
X5336877Y-11135000D01*
X5148096Y-11153593D01*
X4905873Y-11227071D01*
X4682638Y-11346392D01*
X4486972Y-11506972D01*
X4326392Y-11702638D01*
X4207071Y-11925873D01*
X4133593Y-12168096D01*
X4108783Y-12420000D01*
X4124600Y-12580598D01*
X2664003Y-14041196D01*
X2634999Y-14064999D01*
X2579871Y-14132174D01*
X2540026Y-14180724D01*
X2503126Y-14249759D01*
X2469454Y-14312754D01*
X2425997Y-14456015D01*
X2415000Y-14567668D01*
X2415000Y-14567678D01*
X2411324Y-14605000D01*
X2415000Y-14642322D01*
X2415000Y-21897226D01*
X2391646Y-21881285D01*
X2131818Y-21770633D01*
X2049039Y-21753096D01*
X1827000Y-21875085D01*
X1573000Y-21875085D01*
X1350961Y-21753096D01*
X1268182Y-21770633D01*
X1008354Y-21881285D01*
X775105Y-22040500D01*
X660000Y-22157908D01*
X660000Y-8957092D01*
X775105Y-9074500D01*
X1008354Y-9233715D01*
X1268182Y-9344367D01*
X1350961Y-9361904D01*
X1573000Y-9239915D01*
X1573000Y-7747000D01*
X1827000Y-7747000D01*
X1827000Y-9239915D01*
X2049039Y-9361904D01*
X2131818Y-9344367D01*
X2391646Y-9233715D01*
X2624895Y-9074500D01*
X2822601Y-8872839D01*
X2977166Y-8636483D01*
X3082650Y-8374514D01*
X3135000Y-8097000D01*
X3135000Y-7747000D01*
X1827000Y-7747000D01*
X1573000Y-7747000D01*
X1553000Y-7747000D01*
X1553000Y-7493000D01*
X1573000Y-7493000D01*
X1573000Y-6000085D01*
X1827000Y-6000085D01*
X1827000Y-7493000D01*
X3135000Y-7493000D01*
X3135000Y-7143000D01*
X3082650Y-6865486D01*
X2977166Y-6603517D01*
X2822601Y-6367161D01*
X2624895Y-6165500D01*
X2391646Y-6006285D01*
X2131818Y-5895633D01*
X2049039Y-5878096D01*
X1827000Y-6000085D01*
X1573000Y-6000085D01*
X1350961Y-5878096D01*
X1268182Y-5895633D01*
X1008354Y-6006285D01*
X775105Y-6165500D01*
X660000Y-6282908D01*
X660000Y-5020000D01*
X6808057Y-5020000D01*
X6835764Y-5301309D01*
X6917818Y-5571808D01*
X7051068Y-5821101D01*
X7230392Y-6039608D01*
X7448899Y-6218932D01*
X7698192Y-6352182D01*
X7968691Y-6434236D01*
X8179508Y-6455000D01*
X9020492Y-6455000D01*
X9231309Y-6434236D01*
X9501808Y-6352182D01*
X9751101Y-6218932D01*
X9969608Y-6039608D01*
X10148932Y-5821101D01*
X10281189Y-5573665D01*
X14440000Y-5573665D01*
X14440000Y-5856335D01*
X14495147Y-6133574D01*
X14603320Y-6394727D01*
X14760363Y-6629759D01*
X14960241Y-6829637D01*
X15192759Y-6985000D01*
X14960241Y-7140363D01*
X14760363Y-7340241D01*
X14603320Y-7575273D01*
X14495147Y-7836426D01*
X14440000Y-8113665D01*
X14440000Y-8396335D01*
X14495147Y-8673574D01*
X14603320Y-8934727D01*
X14760363Y-9169759D01*
X14960241Y-9369637D01*
X15192759Y-9525000D01*
X14960241Y-9680363D01*
X14760363Y-9880241D01*
X14603320Y-10115273D01*
X14495147Y-10376426D01*
X14440000Y-10653665D01*
X14440000Y-10936335D01*
X14495147Y-11213574D01*
X14603320Y-11474727D01*
X14760363Y-11709759D01*
X14960241Y-11909637D01*
X15195273Y-12066680D01*
X15456426Y-12174853D01*
X15733665Y-12230000D01*
X16016335Y-12230000D01*
X16293574Y-12174853D01*
X16554727Y-12066680D01*
X16789759Y-11909637D01*
X16989637Y-11709759D01*
X17146680Y-11474727D01*
X17254853Y-11213574D01*
X17310000Y-10936335D01*
X17310000Y-10653665D01*
X17254853Y-10376426D01*
X17146680Y-10115273D01*
X16989637Y-9880241D01*
X16789759Y-9680363D01*
X16557241Y-9525000D01*
X16789759Y-9369637D01*
X16989637Y-9169759D01*
X17146680Y-8934727D01*
X17254853Y-8673574D01*
X17310000Y-8396335D01*
X17310000Y-8113665D01*
X17254853Y-7836426D01*
X17146680Y-7575273D01*
X16989637Y-7340241D01*
X16789759Y-7140363D01*
X16557241Y-6985000D01*
X16789759Y-6829637D01*
X16989637Y-6629759D01*
X17146680Y-6394727D01*
X17254853Y-6133574D01*
X17310000Y-5856335D01*
X17310000Y-5573665D01*
X17615000Y-5573665D01*
X17615000Y-5856335D01*
X17670147Y-6133574D01*
X17778320Y-6394727D01*
X17935363Y-6629759D01*
X18135241Y-6829637D01*
X18367759Y-6985000D01*
X18135241Y-7140363D01*
X17935363Y-7340241D01*
X17778320Y-7575273D01*
X17670147Y-7836426D01*
X17615000Y-8113665D01*
X17615000Y-8396335D01*
X17670147Y-8673574D01*
X17778320Y-8934727D01*
X17935363Y-9169759D01*
X18135241Y-9369637D01*
X18367759Y-9525000D01*
X18135241Y-9680363D01*
X17935363Y-9880241D01*
X17778320Y-10115273D01*
X17670147Y-10376426D01*
X17615000Y-10653665D01*
X17615000Y-10936335D01*
X17670147Y-11213574D01*
X17778320Y-11474727D01*
X17935363Y-11709759D01*
X18135241Y-11909637D01*
X18370273Y-12066680D01*
X18631426Y-12174853D01*
X18908665Y-12230000D01*
X19191335Y-12230000D01*
X19468574Y-12174853D01*
X19729727Y-12066680D01*
X19964759Y-11909637D01*
X20164637Y-11709759D01*
X20321680Y-11474727D01*
X20429853Y-11213574D01*
X20438783Y-11168678D01*
X20492818Y-11346808D01*
X20626068Y-11596101D01*
X20805392Y-11814608D01*
X21023899Y-11993932D01*
X21273192Y-12127182D01*
X21543691Y-12209236D01*
X21754508Y-12230000D01*
X22695492Y-12230000D01*
X22906309Y-12209236D01*
X23176808Y-12127182D01*
X23426101Y-11993932D01*
X23644608Y-11814608D01*
X23823932Y-11596101D01*
X23957182Y-11346808D01*
X24039236Y-11076309D01*
X24066943Y-10795000D01*
X24039236Y-10513691D01*
X23957182Y-10243192D01*
X23823932Y-9993899D01*
X23644608Y-9775392D01*
X23426101Y-9596068D01*
X23293142Y-9525000D01*
X23426101Y-9453932D01*
X23644608Y-9274608D01*
X23823932Y-9056101D01*
X23957182Y-8806808D01*
X24039236Y-8536309D01*
X24066943Y-8255000D01*
X24039236Y-7973691D01*
X23957182Y-7703192D01*
X23823932Y-7453899D01*
X23644608Y-7235392D01*
X23426101Y-7056068D01*
X23293142Y-6985000D01*
X23426101Y-6913932D01*
X23644608Y-6734608D01*
X23823932Y-6516101D01*
X23957182Y-6266808D01*
X24039236Y-5996309D01*
X24066943Y-5715000D01*
X24039236Y-5433691D01*
X23957182Y-5163192D01*
X23823932Y-4913899D01*
X23644608Y-4695392D01*
X23531518Y-4602581D01*
X23549482Y-4600812D01*
X23669180Y-4564502D01*
X23779494Y-4505537D01*
X23876185Y-4426185D01*
X23955537Y-4329494D01*
X24014502Y-4219180D01*
X24050812Y-4099482D01*
X24063072Y-3975000D01*
X24063072Y-3175000D01*
X28003057Y-3175000D01*
X28030764Y-3456309D01*
X28112818Y-3726808D01*
X28246068Y-3976101D01*
X28425392Y-4194608D01*
X28643899Y-4373932D01*
X28776858Y-4445000D01*
X28643899Y-4516068D01*
X28425392Y-4695392D01*
X28246068Y-4913899D01*
X28112818Y-5163192D01*
X28030764Y-5433691D01*
X28003057Y-5715000D01*
X28030764Y-5996309D01*
X28112818Y-6266808D01*
X28246068Y-6516101D01*
X28425392Y-6734608D01*
X28643899Y-6913932D01*
X28776858Y-6985000D01*
X28643899Y-7056068D01*
X28425392Y-7235392D01*
X28246068Y-7453899D01*
X28112818Y-7703192D01*
X28030764Y-7973691D01*
X28003057Y-8255000D01*
X28030764Y-8536309D01*
X28112818Y-8806808D01*
X28246068Y-9056101D01*
X28425392Y-9274608D01*
X28643899Y-9453932D01*
X28776858Y-9525000D01*
X28643899Y-9596068D01*
X28425392Y-9775392D01*
X28246068Y-9993899D01*
X28112818Y-10243192D01*
X28030764Y-10513691D01*
X28003057Y-10795000D01*
X28030764Y-11076309D01*
X28112818Y-11346808D01*
X28246068Y-11596101D01*
X28425392Y-11814608D01*
X28643899Y-11993932D01*
X28893192Y-12127182D01*
X29163691Y-12209236D01*
X29374508Y-12230000D01*
X30315492Y-12230000D01*
X30526309Y-12209236D01*
X30796808Y-12127182D01*
X31046101Y-11993932D01*
X31264608Y-11814608D01*
X31443932Y-11596101D01*
X31577182Y-11346808D01*
X31659236Y-11076309D01*
X31686943Y-10795000D01*
X31659236Y-10513691D01*
X31577182Y-10243192D01*
X31443932Y-9993899D01*
X31264608Y-9775392D01*
X31046101Y-9596068D01*
X30913142Y-9525000D01*
X31046101Y-9453932D01*
X31264608Y-9274608D01*
X31443932Y-9056101D01*
X31577182Y-8806808D01*
X31621606Y-8660361D01*
X31640147Y-8753574D01*
X31748320Y-9014727D01*
X31905363Y-9249759D01*
X32105241Y-9449637D01*
X32340273Y-9606680D01*
X32601426Y-9714853D01*
X32878665Y-9770000D01*
X33161335Y-9770000D01*
X33438574Y-9714853D01*
X33699727Y-9606680D01*
X33934759Y-9449637D01*
X34134637Y-9249759D01*
X34291680Y-9014727D01*
X34399853Y-8753574D01*
X34455000Y-8476335D01*
X34455000Y-8193665D01*
X34399853Y-7916426D01*
X34291680Y-7655273D01*
X34134637Y-7420241D01*
X33934759Y-7220363D01*
X33699727Y-7063320D01*
X33438574Y-6955147D01*
X33161335Y-6900000D01*
X32878665Y-6900000D01*
X32601426Y-6955147D01*
X32340273Y-7063320D01*
X32105241Y-7220363D01*
X31905363Y-7420241D01*
X31748320Y-7655273D01*
X31641139Y-7914032D01*
X31577182Y-7703192D01*
X31443932Y-7453899D01*
X31264608Y-7235392D01*
X31046101Y-7056068D01*
X30913142Y-6985000D01*
X31046101Y-6913932D01*
X31264608Y-6734608D01*
X31286689Y-6707702D01*
X35381903Y-6707702D01*
X35453486Y-6951671D01*
X35708996Y-7072571D01*
X35983184Y-7141300D01*
X36265512Y-7155217D01*
X36545130Y-7113787D01*
X36811292Y-7018603D01*
X36936514Y-6951671D01*
X37008097Y-6707702D01*
X36195000Y-5894605D01*
X35381903Y-6707702D01*
X31286689Y-6707702D01*
X31443932Y-6516101D01*
X31577182Y-6266808D01*
X31659236Y-5996309D01*
X31679998Y-5785512D01*
X34754783Y-5785512D01*
X34796213Y-6065130D01*
X34891397Y-6331292D01*
X34958329Y-6456514D01*
X35202298Y-6528097D01*
X36015395Y-5715000D01*
X35202298Y-4901903D01*
X34958329Y-4973486D01*
X34837429Y-5228996D01*
X34768700Y-5503184D01*
X34754783Y-5785512D01*
X31679998Y-5785512D01*
X31686943Y-5715000D01*
X31659236Y-5433691D01*
X31577182Y-5163192D01*
X31443932Y-4913899D01*
X31286690Y-4722298D01*
X35381903Y-4722298D01*
X36195000Y-5535395D01*
X37008097Y-4722298D01*
X36936514Y-4478329D01*
X36681004Y-4357429D01*
X36406816Y-4288700D01*
X36124488Y-4274783D01*
X35844870Y-4316213D01*
X35578708Y-4411397D01*
X35453486Y-4478329D01*
X35381903Y-4722298D01*
X31286690Y-4722298D01*
X31264608Y-4695392D01*
X31046101Y-4516068D01*
X30913142Y-4445000D01*
X31046101Y-4373932D01*
X31264608Y-4194608D01*
X31443932Y-3976101D01*
X31577182Y-3726808D01*
X31659236Y-3456309D01*
X31686943Y-3175000D01*
X31659236Y-2893691D01*
X31577182Y-2623192D01*
X31443932Y-2373899D01*
X31264608Y-2155392D01*
X31046101Y-1976068D01*
X30796808Y-1842818D01*
X30526309Y-1760764D01*
X30315492Y-1740000D01*
X29374508Y-1740000D01*
X29163691Y-1760764D01*
X28893192Y-1842818D01*
X28643899Y-1976068D01*
X28425392Y-2155392D01*
X28246068Y-2373899D01*
X28112818Y-2623192D01*
X28030764Y-2893691D01*
X28003057Y-3175000D01*
X24063072Y-3175000D01*
X24063072Y-2375000D01*
X24050812Y-2250518D01*
X24014502Y-2130820D01*
X23955537Y-2020506D01*
X23876185Y-1923815D01*
X23779494Y-1844463D01*
X23669180Y-1785498D01*
X23549482Y-1749188D01*
X23425000Y-1736928D01*
X21025000Y-1736928D01*
X20900518Y-1749188D01*
X20780820Y-1785498D01*
X20670506Y-1844463D01*
X20573815Y-1923815D01*
X20494463Y-2020506D01*
X20435498Y-2130820D01*
X20399188Y-2250518D01*
X20386928Y-2375000D01*
X20386928Y-2651894D01*
X20353603Y-2558708D01*
X20286671Y-2433486D01*
X20042702Y-2361903D01*
X19229605Y-3175000D01*
X20042702Y-3988097D01*
X20286671Y-3916514D01*
X20386928Y-3704631D01*
X20386928Y-3975000D01*
X20399188Y-4099482D01*
X20435498Y-4219180D01*
X20494463Y-4329494D01*
X20573815Y-4426185D01*
X20670506Y-4505537D01*
X20780820Y-4564502D01*
X20900518Y-4600812D01*
X20918482Y-4602581D01*
X20805392Y-4695392D01*
X20626068Y-4913899D01*
X20492818Y-5163192D01*
X20438783Y-5341322D01*
X20429853Y-5296426D01*
X20321680Y-5035273D01*
X20164637Y-4800241D01*
X19964759Y-4600363D01*
X19730872Y-4444085D01*
X19791514Y-4411671D01*
X19863097Y-4167702D01*
X19050000Y-3354605D01*
X18236903Y-4167702D01*
X18308486Y-4411671D01*
X18372992Y-4442194D01*
X18370273Y-4443320D01*
X18135241Y-4600363D01*
X17935363Y-4800241D01*
X17778320Y-5035273D01*
X17670147Y-5296426D01*
X17615000Y-5573665D01*
X17310000Y-5573665D01*
X17254853Y-5296426D01*
X17146680Y-5035273D01*
X16989637Y-4800241D01*
X16789759Y-4600363D01*
X16555872Y-4444085D01*
X16616514Y-4411671D01*
X16688097Y-4167702D01*
X15875000Y-3354605D01*
X15061903Y-4167702D01*
X15133486Y-4411671D01*
X15197992Y-4442194D01*
X15195273Y-4443320D01*
X14960241Y-4600363D01*
X14760363Y-4800241D01*
X14603320Y-5035273D01*
X14495147Y-5296426D01*
X14440000Y-5573665D01*
X10281189Y-5573665D01*
X10282182Y-5571808D01*
X10364236Y-5301309D01*
X10391943Y-5020000D01*
X10364236Y-4738691D01*
X10282182Y-4468192D01*
X10148932Y-4218899D01*
X9969608Y-4000392D01*
X9751101Y-3821068D01*
X9533953Y-3705000D01*
X10163123Y-3705000D01*
X10351904Y-3686407D01*
X10594127Y-3612929D01*
X10817362Y-3493608D01*
X11013028Y-3333028D01*
X11084851Y-3245512D01*
X14434783Y-3245512D01*
X14476213Y-3525130D01*
X14571397Y-3791292D01*
X14638329Y-3916514D01*
X14882298Y-3988097D01*
X15695395Y-3175000D01*
X16054605Y-3175000D01*
X16867702Y-3988097D01*
X17111671Y-3916514D01*
X17232571Y-3661004D01*
X17301300Y-3386816D01*
X17308265Y-3245512D01*
X17609783Y-3245512D01*
X17651213Y-3525130D01*
X17746397Y-3791292D01*
X17813329Y-3916514D01*
X18057298Y-3988097D01*
X18870395Y-3175000D01*
X18057298Y-2361903D01*
X17813329Y-2433486D01*
X17692429Y-2688996D01*
X17623700Y-2963184D01*
X17609783Y-3245512D01*
X17308265Y-3245512D01*
X17315217Y-3104488D01*
X17273787Y-2824870D01*
X17178603Y-2558708D01*
X17111671Y-2433486D01*
X16867702Y-2361903D01*
X16054605Y-3175000D01*
X15695395Y-3175000D01*
X14882298Y-2361903D01*
X14638329Y-2433486D01*
X14517429Y-2688996D01*
X14448700Y-2963184D01*
X14434783Y-3245512D01*
X11084851Y-3245512D01*
X11173608Y-3137362D01*
X11292929Y-2914127D01*
X11366407Y-2671904D01*
X11391217Y-2420000D01*
X11367806Y-2182298D01*
X15061903Y-2182298D01*
X15875000Y-2995395D01*
X16688097Y-2182298D01*
X18236903Y-2182298D01*
X19050000Y-2995395D01*
X19863097Y-2182298D01*
X19791514Y-1938329D01*
X19536004Y-1817429D01*
X19261816Y-1748700D01*
X18979488Y-1734783D01*
X18699870Y-1776213D01*
X18433708Y-1871397D01*
X18308486Y-1938329D01*
X18236903Y-2182298D01*
X16688097Y-2182298D01*
X16616514Y-1938329D01*
X16361004Y-1817429D01*
X16086816Y-1748700D01*
X15804488Y-1734783D01*
X15524870Y-1776213D01*
X15258708Y-1871397D01*
X15133486Y-1938329D01*
X15061903Y-2182298D01*
X11367806Y-2182298D01*
X11366407Y-2168096D01*
X11292929Y-1925873D01*
X11173608Y-1702638D01*
X11013028Y-1506972D01*
X10817362Y-1346392D01*
X10594127Y-1227071D01*
X10351904Y-1153593D01*
X10163123Y-1135000D01*
X9036877Y-1135000D01*
X8848096Y-1153593D01*
X8605873Y-1227071D01*
X8382638Y-1346392D01*
X8186972Y-1506972D01*
X8026392Y-1702638D01*
X7907071Y-1925873D01*
X7833593Y-2168096D01*
X7808783Y-2420000D01*
X7833593Y-2671904D01*
X7907071Y-2914127D01*
X8026392Y-3137362D01*
X8186972Y-3333028D01*
X8382638Y-3493608D01*
X8553621Y-3585000D01*
X8179508Y-3585000D01*
X7968691Y-3605764D01*
X7698192Y-3687818D01*
X7448899Y-3821068D01*
X7230392Y-4000392D01*
X7051068Y-4218899D01*
X6917818Y-4468192D01*
X6835764Y-4738691D01*
X6808057Y-5020000D01*
X660000Y-5020000D01*
X660000Y-660000D01*
X37440000Y-660000D01*
X37440000Y-4989069D01*
G04 #@! TA.AperFunction,Conductor*
D22*
G36*
X37440000Y-4989069D02*
G01*
X37431671Y-4973486D01*
X37187702Y-4901903D01*
X36374605Y-5715000D01*
X37187702Y-6528097D01*
X37431671Y-6456514D01*
X37440000Y-6438911D01*
X37440000Y-12615344D01*
X37309637Y-12420241D01*
X37109759Y-12220363D01*
X36874727Y-12063320D01*
X36613574Y-11955147D01*
X36336335Y-11900000D01*
X36053665Y-11900000D01*
X35776426Y-11955147D01*
X35515273Y-12063320D01*
X35280241Y-12220363D01*
X35080363Y-12420241D01*
X34923320Y-12655273D01*
X34815147Y-12916426D01*
X34760000Y-13193665D01*
X34760000Y-13476335D01*
X34815147Y-13753574D01*
X34923320Y-14014727D01*
X35080363Y-14249759D01*
X35280241Y-14449637D01*
X35515273Y-14606680D01*
X35776426Y-14714853D01*
X36053665Y-14770000D01*
X36336335Y-14770000D01*
X36613574Y-14714853D01*
X36874727Y-14606680D01*
X37109759Y-14449637D01*
X37309637Y-14249759D01*
X37440000Y-14054656D01*
X37440000Y-17060344D01*
X37309637Y-16865241D01*
X37109759Y-16665363D01*
X36874727Y-16508320D01*
X36613574Y-16400147D01*
X36336335Y-16345000D01*
X36053665Y-16345000D01*
X35776426Y-16400147D01*
X35515273Y-16508320D01*
X35280241Y-16665363D01*
X35081643Y-16863961D01*
X35080812Y-16855518D01*
X35044502Y-16735820D01*
X34985537Y-16625506D01*
X34906185Y-16528815D01*
X34809494Y-16449463D01*
X34699180Y-16390498D01*
X34579482Y-16354188D01*
X34455000Y-16341928D01*
X32855000Y-16341928D01*
X32730518Y-16354188D01*
X32610820Y-16390498D01*
X32500506Y-16449463D01*
X32403815Y-16528815D01*
X32324463Y-16625506D01*
X32265498Y-16735820D01*
X32229188Y-16855518D01*
X32216928Y-16980000D01*
X32216928Y-18580000D01*
X32229188Y-18704482D01*
X32265498Y-18824180D01*
X32324463Y-18934494D01*
X32403815Y-19031185D01*
X32500506Y-19110537D01*
X32610820Y-19169502D01*
X32730518Y-19205812D01*
X32855000Y-19218072D01*
X34455000Y-19218072D01*
X34579482Y-19205812D01*
X34699180Y-19169502D01*
X34809494Y-19110537D01*
X34906185Y-19031185D01*
X34985537Y-18934494D01*
X35044502Y-18824180D01*
X35080812Y-18704482D01*
X35081643Y-18696039D01*
X35280241Y-18894637D01*
X35515273Y-19051680D01*
X35776426Y-19159853D01*
X36053665Y-19215000D01*
X36336335Y-19215000D01*
X36613574Y-19159853D01*
X36874727Y-19051680D01*
X37109759Y-18894637D01*
X37309637Y-18694759D01*
X37440000Y-18499656D01*
X37440000Y-22303541D01*
X37418603Y-22243708D01*
X37351671Y-22118486D01*
X37107702Y-22046903D01*
X36294605Y-22860000D01*
X37107702Y-23673097D01*
X37351671Y-23601514D01*
X37440000Y-23414839D01*
X37440001Y-43724070D01*
X37431671Y-43708486D01*
X37187702Y-43636903D01*
X36374605Y-44450000D01*
X37187702Y-45263097D01*
X37431671Y-45191514D01*
X37440001Y-45173910D01*
X37440001Y-51350345D01*
X37309637Y-51155241D01*
X37109759Y-50955363D01*
X36874727Y-50798320D01*
X36613574Y-50690147D01*
X36336335Y-50635000D01*
X36053665Y-50635000D01*
X35776426Y-50690147D01*
X35515273Y-50798320D01*
X35280241Y-50955363D01*
X35080363Y-51155241D01*
X34923320Y-51390273D01*
X34815147Y-51651426D01*
X34760000Y-51928665D01*
X34760000Y-52211335D01*
X34815147Y-52488574D01*
X34923320Y-52749727D01*
X35080363Y-52984759D01*
X35280241Y-53184637D01*
X35515273Y-53341680D01*
X35776426Y-53449853D01*
X36053665Y-53505000D01*
X36336335Y-53505000D01*
X36613574Y-53449853D01*
X36874727Y-53341680D01*
X37109759Y-53184637D01*
X37309637Y-52984759D01*
X37440001Y-52789655D01*
X37440001Y-55795345D01*
X37309637Y-55600241D01*
X37109759Y-55400363D01*
X36874727Y-55243320D01*
X36613574Y-55135147D01*
X36336335Y-55080000D01*
X36053665Y-55080000D01*
X35776426Y-55135147D01*
X35515273Y-55243320D01*
X35280241Y-55400363D01*
X35081643Y-55598961D01*
X35080812Y-55590518D01*
X35044502Y-55470820D01*
X34985537Y-55360506D01*
X34906185Y-55263815D01*
X34809494Y-55184463D01*
X34699180Y-55125498D01*
X34579482Y-55089188D01*
X34455000Y-55076928D01*
X32855000Y-55076928D01*
X32730518Y-55089188D01*
X32610820Y-55125498D01*
X32500506Y-55184463D01*
X32403815Y-55263815D01*
X32324463Y-55360506D01*
X32265498Y-55470820D01*
X32229188Y-55590518D01*
X32216928Y-55715000D01*
X32216928Y-57315000D01*
X32229188Y-57439482D01*
X32265498Y-57559180D01*
X32324463Y-57669494D01*
X32403815Y-57766185D01*
X32500506Y-57845537D01*
X32610820Y-57904502D01*
X32730518Y-57940812D01*
X32855000Y-57953072D01*
X34455000Y-57953072D01*
X34579482Y-57940812D01*
X34699180Y-57904502D01*
X34809494Y-57845537D01*
X34906185Y-57766185D01*
X34985537Y-57669494D01*
X35044502Y-57559180D01*
X35080812Y-57439482D01*
X35081643Y-57431039D01*
X35280241Y-57629637D01*
X35515273Y-57786680D01*
X35776426Y-57894853D01*
X36053665Y-57950000D01*
X36336335Y-57950000D01*
X36613574Y-57894853D01*
X36874727Y-57786680D01*
X37109759Y-57629637D01*
X37309637Y-57429759D01*
X37440001Y-57234655D01*
X37440001Y-61038543D01*
X37418603Y-60978708D01*
X37351671Y-60853486D01*
X37107702Y-60781903D01*
X36294605Y-61595000D01*
X37107702Y-62408097D01*
X37351671Y-62336514D01*
X37440001Y-62149838D01*
X37440001Y-71730000D01*
X29242419Y-71730000D01*
X29210000Y-71726807D01*
X29177581Y-71730000D01*
X29080617Y-71739550D01*
X28956207Y-71777290D01*
X28841550Y-71838575D01*
X28741052Y-71921052D01*
X28658575Y-72021550D01*
X28597290Y-72136207D01*
X28559550Y-72260617D01*
X28546807Y-72390000D01*
X28550001Y-72422429D01*
X28550001Y-77385318D01*
X28373158Y-77312068D01*
X28086260Y-77255000D01*
X27793740Y-77255000D01*
X27506842Y-77312068D01*
X27236589Y-77424010D01*
X26993368Y-77586525D01*
X26806285Y-77773608D01*
X26738405Y-77646614D01*
X26627962Y-77512038D01*
X26493386Y-77401595D01*
X26339850Y-77319528D01*
X26173254Y-77268992D01*
X26000000Y-77251928D01*
X24800000Y-77251928D01*
X24626746Y-77268992D01*
X24460150Y-77319528D01*
X24306614Y-77401595D01*
X24172038Y-77512038D01*
X24061595Y-77646614D01*
X23979528Y-77800150D01*
X23928992Y-77966746D01*
X23927687Y-77980000D01*
X23620000Y-77980000D01*
X23620000Y-67803665D01*
X26505000Y-67803665D01*
X26505000Y-68086335D01*
X26560147Y-68363574D01*
X26668320Y-68624727D01*
X26825363Y-68859759D01*
X27025241Y-69059637D01*
X27260273Y-69216680D01*
X27521426Y-69324853D01*
X27798665Y-69380000D01*
X28081335Y-69380000D01*
X28358574Y-69324853D01*
X28619727Y-69216680D01*
X28854759Y-69059637D01*
X29054637Y-68859759D01*
X29211680Y-68624727D01*
X29319853Y-68363574D01*
X29375000Y-68086335D01*
X29375000Y-67803665D01*
X29319853Y-67526426D01*
X29211680Y-67265273D01*
X29054637Y-67030241D01*
X28854759Y-66830363D01*
X28619727Y-66673320D01*
X28358574Y-66565147D01*
X28081335Y-66510000D01*
X27798665Y-66510000D01*
X27521426Y-66565147D01*
X27260273Y-66673320D01*
X27025241Y-66830363D01*
X26825363Y-67030241D01*
X26668320Y-67265273D01*
X26560147Y-67526426D01*
X26505000Y-67803665D01*
X23620000Y-67803665D01*
X23620000Y-64449801D01*
X24086002Y-63983799D01*
X24115001Y-63960001D01*
X24209974Y-63844276D01*
X24280546Y-63712247D01*
X24324003Y-63568986D01*
X24335000Y-63457333D01*
X24335000Y-63457325D01*
X24338676Y-63420000D01*
X24335000Y-63382675D01*
X24335000Y-61595000D01*
X26098057Y-61595000D01*
X26125764Y-61876309D01*
X26207818Y-62146808D01*
X26341068Y-62396101D01*
X26520392Y-62614608D01*
X26738899Y-62793932D01*
X26871858Y-62865000D01*
X26738899Y-62936068D01*
X26520392Y-63115392D01*
X26341068Y-63333899D01*
X26207818Y-63583192D01*
X26125764Y-63853691D01*
X26098057Y-64135000D01*
X26125764Y-64416309D01*
X26207818Y-64686808D01*
X26341068Y-64936101D01*
X26520392Y-65154608D01*
X26738899Y-65333932D01*
X26988192Y-65467182D01*
X27258691Y-65549236D01*
X27469508Y-65570000D01*
X28410492Y-65570000D01*
X28621309Y-65549236D01*
X28891808Y-65467182D01*
X29141101Y-65333932D01*
X29359608Y-65154608D01*
X29538932Y-64936101D01*
X29672182Y-64686808D01*
X29754236Y-64416309D01*
X29781943Y-64135000D01*
X29754236Y-63853691D01*
X29672182Y-63583192D01*
X29538932Y-63333899D01*
X29359608Y-63115392D01*
X29141101Y-62936068D01*
X29008142Y-62865000D01*
X29141101Y-62793932D01*
X29359608Y-62614608D01*
X29538932Y-62396101D01*
X29672182Y-62146808D01*
X29726217Y-61968678D01*
X29735147Y-62013574D01*
X29843320Y-62274727D01*
X30000363Y-62509759D01*
X30200241Y-62709637D01*
X30435273Y-62866680D01*
X30696426Y-62974853D01*
X30973665Y-63030000D01*
X31256335Y-63030000D01*
X31533574Y-62974853D01*
X31794727Y-62866680D01*
X32029759Y-62709637D01*
X32151694Y-62587702D01*
X35301903Y-62587702D01*
X35373486Y-62831671D01*
X35628996Y-62952571D01*
X35903184Y-63021300D01*
X36185512Y-63035217D01*
X36465130Y-62993787D01*
X36731292Y-62898603D01*
X36856514Y-62831671D01*
X36928097Y-62587702D01*
X36115000Y-61774605D01*
X35301903Y-62587702D01*
X32151694Y-62587702D01*
X32229637Y-62509759D01*
X32386680Y-62274727D01*
X32494853Y-62013574D01*
X32550000Y-61736335D01*
X32550000Y-61665512D01*
X34674783Y-61665512D01*
X34716213Y-61945130D01*
X34811397Y-62211292D01*
X34878329Y-62336514D01*
X35122298Y-62408097D01*
X35935395Y-61595000D01*
X35122298Y-60781903D01*
X34878329Y-60853486D01*
X34757429Y-61108996D01*
X34688700Y-61383184D01*
X34674783Y-61665512D01*
X32550000Y-61665512D01*
X32550000Y-61453665D01*
X32494853Y-61176426D01*
X32386680Y-60915273D01*
X32229637Y-60680241D01*
X32151694Y-60602298D01*
X35301903Y-60602298D01*
X36115000Y-61415395D01*
X36928097Y-60602298D01*
X36856514Y-60358329D01*
X36601004Y-60237429D01*
X36326816Y-60168700D01*
X36044488Y-60154783D01*
X35764870Y-60196213D01*
X35498708Y-60291397D01*
X35373486Y-60358329D01*
X35301903Y-60602298D01*
X32151694Y-60602298D01*
X32029759Y-60480363D01*
X31794727Y-60323320D01*
X31533574Y-60215147D01*
X31256335Y-60160000D01*
X30973665Y-60160000D01*
X30696426Y-60215147D01*
X30435273Y-60323320D01*
X30200241Y-60480363D01*
X30000363Y-60680241D01*
X29843320Y-60915273D01*
X29735147Y-61176426D01*
X29726217Y-61221322D01*
X29672182Y-61043192D01*
X29538932Y-60793899D01*
X29359608Y-60575392D01*
X29141101Y-60396068D01*
X29013259Y-60327735D01*
X29242839Y-60177601D01*
X29444500Y-59979895D01*
X29603715Y-59746646D01*
X29714367Y-59486818D01*
X29731904Y-59404039D01*
X29609915Y-59182000D01*
X28067000Y-59182000D01*
X28067000Y-59202000D01*
X27813000Y-59202000D01*
X27813000Y-59182000D01*
X26270085Y-59182000D01*
X26148096Y-59404039D01*
X26165633Y-59486818D01*
X26276285Y-59746646D01*
X26435500Y-59979895D01*
X26637161Y-60177601D01*
X26866741Y-60327735D01*
X26738899Y-60396068D01*
X26520392Y-60575392D01*
X26341068Y-60793899D01*
X26207818Y-61043192D01*
X26125764Y-61313691D01*
X26098057Y-61595000D01*
X24335000Y-61595000D01*
X24335000Y-56515000D01*
X26098057Y-56515000D01*
X26125764Y-56796309D01*
X26207818Y-57066808D01*
X26341068Y-57316101D01*
X26520392Y-57534608D01*
X26738899Y-57713932D01*
X26866741Y-57782265D01*
X26637161Y-57932399D01*
X26435500Y-58130105D01*
X26276285Y-58363354D01*
X26165633Y-58623182D01*
X26148096Y-58705961D01*
X26270085Y-58928000D01*
X27813000Y-58928000D01*
X27813000Y-58908000D01*
X28067000Y-58908000D01*
X28067000Y-58928000D01*
X29609915Y-58928000D01*
X29731904Y-58705961D01*
X29714367Y-58623182D01*
X29603715Y-58363354D01*
X29444500Y-58130105D01*
X29242839Y-57932399D01*
X29013259Y-57782265D01*
X29141101Y-57713932D01*
X29359608Y-57534608D01*
X29538932Y-57316101D01*
X29672182Y-57066808D01*
X29754236Y-56796309D01*
X29781943Y-56515000D01*
X29754236Y-56233691D01*
X29672182Y-55963192D01*
X29538932Y-55713899D01*
X29359608Y-55495392D01*
X29141101Y-55316068D01*
X28891808Y-55182818D01*
X28621309Y-55100764D01*
X28410492Y-55080000D01*
X27469508Y-55080000D01*
X27258691Y-55100764D01*
X26988192Y-55182818D01*
X26738899Y-55316068D01*
X26520392Y-55495392D01*
X26341068Y-55713899D01*
X26207818Y-55963192D01*
X26125764Y-56233691D01*
X26098057Y-56515000D01*
X24335000Y-56515000D01*
X24335000Y-53923043D01*
X24489759Y-53819637D01*
X24689637Y-53619759D01*
X24846680Y-53384727D01*
X24954853Y-53123574D01*
X25010000Y-52846335D01*
X25010000Y-52563665D01*
X27140000Y-52563665D01*
X27140000Y-52846335D01*
X27195147Y-53123574D01*
X27303320Y-53384727D01*
X27460363Y-53619759D01*
X27660241Y-53819637D01*
X27895273Y-53976680D01*
X28156426Y-54084853D01*
X28433665Y-54140000D01*
X28716335Y-54140000D01*
X28993574Y-54084853D01*
X29254727Y-53976680D01*
X29489759Y-53819637D01*
X29689637Y-53619759D01*
X29846680Y-53384727D01*
X29954853Y-53123574D01*
X30010000Y-52846335D01*
X30010000Y-52563665D01*
X29954853Y-52286426D01*
X29846680Y-52025273D01*
X29782129Y-51928665D01*
X31585000Y-51928665D01*
X31585000Y-52211335D01*
X31640147Y-52488574D01*
X31748320Y-52749727D01*
X31905363Y-52984759D01*
X32105241Y-53184637D01*
X32340273Y-53341680D01*
X32601426Y-53449853D01*
X32878665Y-53505000D01*
X33161335Y-53505000D01*
X33438574Y-53449853D01*
X33699727Y-53341680D01*
X33934759Y-53184637D01*
X34134637Y-52984759D01*
X34291680Y-52749727D01*
X34399853Y-52488574D01*
X34455000Y-52211335D01*
X34455000Y-51928665D01*
X34399853Y-51651426D01*
X34291680Y-51390273D01*
X34134637Y-51155241D01*
X33934759Y-50955363D01*
X33699727Y-50798320D01*
X33438574Y-50690147D01*
X33161335Y-50635000D01*
X32878665Y-50635000D01*
X32601426Y-50690147D01*
X32340273Y-50798320D01*
X32105241Y-50955363D01*
X31905363Y-51155241D01*
X31748320Y-51390273D01*
X31640147Y-51651426D01*
X31585000Y-51928665D01*
X29782129Y-51928665D01*
X29689637Y-51790241D01*
X29489759Y-51590363D01*
X29254727Y-51433320D01*
X28993574Y-51325147D01*
X28716335Y-51270000D01*
X28433665Y-51270000D01*
X28156426Y-51325147D01*
X27895273Y-51433320D01*
X27660241Y-51590363D01*
X27460363Y-51790241D01*
X27303320Y-52025273D01*
X27195147Y-52286426D01*
X27140000Y-52563665D01*
X25010000Y-52563665D01*
X24954853Y-52286426D01*
X24846680Y-52025273D01*
X24689637Y-51790241D01*
X24489759Y-51590363D01*
X24254727Y-51433320D01*
X23993574Y-51325147D01*
X23716335Y-51270000D01*
X23433665Y-51270000D01*
X23156426Y-51325147D01*
X22895273Y-51433320D01*
X22660241Y-51590363D01*
X22460363Y-51790241D01*
X22303320Y-52025273D01*
X22195147Y-52286426D01*
X22140000Y-52563665D01*
X22140000Y-52846335D01*
X22195147Y-53123574D01*
X22303320Y-53384727D01*
X22460363Y-53619759D01*
X22660241Y-53819637D01*
X22815000Y-53923043D01*
X22815001Y-63105197D01*
X22545199Y-63375000D01*
X21940901Y-63375000D01*
X21918932Y-63333899D01*
X21739608Y-63115392D01*
X21521101Y-62936068D01*
X21388142Y-62865000D01*
X21521101Y-62793932D01*
X21739608Y-62614608D01*
X21918932Y-62396101D01*
X22052182Y-62146808D01*
X22134236Y-61876309D01*
X22161943Y-61595000D01*
X22134236Y-61313691D01*
X22052182Y-61043192D01*
X21918932Y-60793899D01*
X21739608Y-60575392D01*
X21521101Y-60396068D01*
X21388142Y-60325000D01*
X21521101Y-60253932D01*
X21739608Y-60074608D01*
X21918932Y-59856101D01*
X22052182Y-59606808D01*
X22134236Y-59336309D01*
X22161943Y-59055000D01*
X22134236Y-58773691D01*
X22052182Y-58503192D01*
X21918932Y-58253899D01*
X21739608Y-58035392D01*
X21626518Y-57942581D01*
X21644482Y-57940812D01*
X21764180Y-57904502D01*
X21874494Y-57845537D01*
X21971185Y-57766185D01*
X22050537Y-57669494D01*
X22109502Y-57559180D01*
X22145812Y-57439482D01*
X22158072Y-57315000D01*
X22158072Y-55715000D01*
X22145812Y-55590518D01*
X22109502Y-55470820D01*
X22050537Y-55360506D01*
X21971185Y-55263815D01*
X21874494Y-55184463D01*
X21764180Y-55125498D01*
X21644482Y-55089188D01*
X21520000Y-55076928D01*
X19120000Y-55076928D01*
X18995518Y-55089188D01*
X18875820Y-55125498D01*
X18765506Y-55184463D01*
X18668815Y-55263815D01*
X18589463Y-55360506D01*
X18530498Y-55470820D01*
X18494188Y-55590518D01*
X18481928Y-55715000D01*
X18481928Y-57315000D01*
X18494188Y-57439482D01*
X18530498Y-57559180D01*
X18589463Y-57669494D01*
X18668815Y-57766185D01*
X18765506Y-57845537D01*
X18875820Y-57904502D01*
X18995518Y-57940812D01*
X19013482Y-57942581D01*
X18900392Y-58035392D01*
X18721068Y-58253899D01*
X18587818Y-58503192D01*
X18533783Y-58681322D01*
X18524853Y-58636426D01*
X18416680Y-58375273D01*
X18259637Y-58140241D01*
X18059759Y-57940363D01*
X17824727Y-57783320D01*
X17563574Y-57675147D01*
X17286335Y-57620000D01*
X17003665Y-57620000D01*
X16726426Y-57675147D01*
X16465273Y-57783320D01*
X16230241Y-57940363D01*
X16030363Y-58140241D01*
X15873320Y-58375273D01*
X15765147Y-58636426D01*
X15710000Y-58913665D01*
X15710000Y-59196335D01*
X15765147Y-59473574D01*
X15873320Y-59734727D01*
X16030363Y-59969759D01*
X16230241Y-60169637D01*
X16465273Y-60326680D01*
X16726426Y-60434853D01*
X17003665Y-60490000D01*
X17286335Y-60490000D01*
X17563574Y-60434853D01*
X17824727Y-60326680D01*
X18059759Y-60169637D01*
X18259637Y-59969759D01*
X18416680Y-59734727D01*
X18524853Y-59473574D01*
X18533783Y-59428678D01*
X18587818Y-59606808D01*
X18721068Y-59856101D01*
X18900392Y-60074608D01*
X19118899Y-60253932D01*
X19251858Y-60325000D01*
X19118899Y-60396068D01*
X18900392Y-60575392D01*
X18721068Y-60793899D01*
X18587818Y-61043192D01*
X18505764Y-61313691D01*
X18478057Y-61595000D01*
X18505764Y-61876309D01*
X18587818Y-62146808D01*
X18721068Y-62396101D01*
X18900392Y-62614608D01*
X19118899Y-62793932D01*
X19251858Y-62865000D01*
X19118899Y-62936068D01*
X18900392Y-63115392D01*
X18721068Y-63333899D01*
X18587818Y-63583192D01*
X18543394Y-63729639D01*
X18524853Y-63636426D01*
X18416680Y-63375273D01*
X18259637Y-63140241D01*
X18059759Y-62940363D01*
X17824727Y-62783320D01*
X17563574Y-62675147D01*
X17286335Y-62620000D01*
X17003665Y-62620000D01*
X16726426Y-62675147D01*
X16465273Y-62783320D01*
X16230241Y-62940363D01*
X16030363Y-63140241D01*
X15873320Y-63375273D01*
X15765147Y-63636426D01*
X15710000Y-63913665D01*
X15710000Y-64196335D01*
X15765147Y-64473574D01*
X15873320Y-64734727D01*
X16030363Y-64969759D01*
X16230241Y-65169637D01*
X16465273Y-65326680D01*
X16726426Y-65434853D01*
X17003665Y-65490000D01*
X17286335Y-65490000D01*
X17563574Y-65434853D01*
X17824727Y-65326680D01*
X18059759Y-65169637D01*
X18259637Y-64969759D01*
X18416680Y-64734727D01*
X18523861Y-64475968D01*
X18587818Y-64686808D01*
X18721068Y-64936101D01*
X18900392Y-65154608D01*
X19118899Y-65333932D01*
X19368192Y-65467182D01*
X19638691Y-65549236D01*
X19849508Y-65570000D01*
X20790492Y-65570000D01*
X21001309Y-65549236D01*
X21271808Y-65467182D01*
X21521101Y-65333932D01*
X21739608Y-65154608D01*
X21918932Y-64936101D01*
X21940901Y-64895000D01*
X22100000Y-64895000D01*
X22100001Y-77980000D01*
X21564771Y-77980000D01*
X21434637Y-77785241D01*
X21268057Y-77618661D01*
X21364180Y-77589502D01*
X21474494Y-77530537D01*
X21571185Y-77451185D01*
X21650537Y-77354494D01*
X21709502Y-77244180D01*
X21745812Y-77124482D01*
X21758072Y-77000000D01*
X21755000Y-76485750D01*
X21596250Y-76327000D01*
X20447000Y-76327000D01*
X20447000Y-76347000D01*
X20193000Y-76347000D01*
X20193000Y-76327000D01*
X19043750Y-76327000D01*
X18885000Y-76485750D01*
X18881928Y-77000000D01*
X18894188Y-77124482D01*
X18930498Y-77244180D01*
X18989463Y-77354494D01*
X19068815Y-77451185D01*
X19165506Y-77530537D01*
X19275820Y-77589502D01*
X19371943Y-77618661D01*
X19205363Y-77785241D01*
X19048320Y-78020273D01*
X18940147Y-78281426D01*
X18885000Y-78558665D01*
X18885000Y-78841335D01*
X18940147Y-79118574D01*
X19048320Y-79379727D01*
X19205363Y-79614759D01*
X19405241Y-79814637D01*
X19640273Y-79971680D01*
X19901426Y-80079853D01*
X20178665Y-80135000D01*
X20461335Y-80135000D01*
X20738574Y-80079853D01*
X20999727Y-79971680D01*
X21234759Y-79814637D01*
X21434637Y-79614759D01*
X21511316Y-79500000D01*
X22822667Y-79500000D01*
X22860000Y-79503677D01*
X22897333Y-79500000D01*
X23927687Y-79500000D01*
X23928992Y-79513254D01*
X23979528Y-79679850D01*
X24061595Y-79833386D01*
X24172038Y-79967962D01*
X24306614Y-80078405D01*
X24460150Y-80160472D01*
X24569293Y-80193580D01*
X24551208Y-80251603D01*
X25400000Y-81100395D01*
X26248792Y-80251603D01*
X26230707Y-80193580D01*
X26339850Y-80160472D01*
X26493386Y-80078405D01*
X26627962Y-79967962D01*
X26738405Y-79833386D01*
X26806285Y-79706392D01*
X26993368Y-79893475D01*
X27166729Y-80009311D01*
X27091208Y-80251603D01*
X27940000Y-81100395D01*
X27954143Y-81086253D01*
X28133748Y-81265858D01*
X28119605Y-81280000D01*
X28133748Y-81294143D01*
X27954143Y-81473748D01*
X27940000Y-81459605D01*
X27091208Y-82308397D01*
X27166514Y-82550000D01*
X27091208Y-82791603D01*
X27940000Y-83640395D01*
X27954143Y-83626253D01*
X28133748Y-83805858D01*
X28119605Y-83820000D01*
X28133748Y-83834143D01*
X27954143Y-84013748D01*
X27940000Y-83999605D01*
X27091208Y-84848397D01*
X27166514Y-85090000D01*
X27091208Y-85331603D01*
X27940000Y-86180395D01*
X27954143Y-86166253D01*
X28133748Y-86345858D01*
X28119605Y-86360000D01*
X28133748Y-86374143D01*
X27954143Y-86553748D01*
X27940000Y-86539605D01*
X27091208Y-87388397D01*
X27166729Y-87630689D01*
X26993368Y-87746525D01*
X26786525Y-87953368D01*
X26670000Y-88127760D01*
X26553475Y-87953368D01*
X26346632Y-87746525D01*
X26173271Y-87630689D01*
X26248792Y-87388397D01*
X25400000Y-86539605D01*
X24551208Y-87388397D01*
X24626729Y-87630689D01*
X24453368Y-87746525D01*
X24246525Y-87953368D01*
X24084010Y-88196589D01*
X23972068Y-88466842D01*
X23915000Y-88753740D01*
X23915000Y-89046260D01*
X23972068Y-89333158D01*
X24084010Y-89603411D01*
X24246525Y-89846632D01*
X24453368Y-90053475D01*
X24627760Y-90170000D01*
X24453368Y-90286525D01*
X24246525Y-90493368D01*
X24084010Y-90736589D01*
X23972068Y-91006842D01*
X23915000Y-91293740D01*
X23915000Y-91586260D01*
X23972068Y-91873158D01*
X24084010Y-92143411D01*
X24246525Y-92386632D01*
X24453368Y-92593475D01*
X24627760Y-92710000D01*
X24453368Y-92826525D01*
X24246525Y-93033368D01*
X24084010Y-93276589D01*
X23972068Y-93546842D01*
X23915000Y-93833740D01*
X23915000Y-94126260D01*
X23972068Y-94413158D01*
X24084010Y-94683411D01*
X24246525Y-94926632D01*
X24453368Y-95133475D01*
X24627760Y-95250000D01*
X24453368Y-95366525D01*
X24246525Y-95573368D01*
X24084010Y-95816589D01*
X23972068Y-96086842D01*
X23915000Y-96373740D01*
X23915000Y-96666260D01*
X23972068Y-96953158D01*
X24084010Y-97223411D01*
X24246525Y-97466632D01*
X24453368Y-97673475D01*
X24696589Y-97835990D01*
X24966842Y-97947932D01*
X25253740Y-98005000D01*
X25546260Y-98005000D01*
X25833158Y-97947932D01*
X26103411Y-97835990D01*
X26346632Y-97673475D01*
X26553475Y-97466632D01*
X26670000Y-97292240D01*
X26786525Y-97466632D01*
X26993368Y-97673475D01*
X27236589Y-97835990D01*
X27506842Y-97947932D01*
X27793740Y-98005000D01*
X28086260Y-98005000D01*
X28373158Y-97947932D01*
X28550000Y-97874682D01*
X28550000Y-100940000D01*
X660000Y-100940000D01*
X660000Y-94970000D01*
X4108783Y-94970000D01*
X4133593Y-95221904D01*
X4207071Y-95464127D01*
X4326392Y-95687362D01*
X4486972Y-95883028D01*
X4682638Y-96043608D01*
X4905873Y-96162929D01*
X5148096Y-96236407D01*
X5336877Y-96255000D01*
X6463123Y-96255000D01*
X6651904Y-96236407D01*
X6894127Y-96162929D01*
X7117362Y-96043608D01*
X7313028Y-95883028D01*
X7473608Y-95687362D01*
X7592929Y-95464127D01*
X7666407Y-95221904D01*
X7691217Y-94970000D01*
X7666407Y-94718096D01*
X7592929Y-94475873D01*
X7473608Y-94252638D01*
X7313028Y-94056972D01*
X7117362Y-93896392D01*
X7029650Y-93849509D01*
X11565000Y-93849509D01*
X11565000Y-94690492D01*
X11585764Y-94901309D01*
X11667818Y-95171808D01*
X11801068Y-95421101D01*
X11980393Y-95639608D01*
X12198900Y-95818932D01*
X12448193Y-95952182D01*
X12718692Y-96034236D01*
X13000000Y-96061943D01*
X13281309Y-96034236D01*
X13551808Y-95952182D01*
X13801101Y-95818932D01*
X14019608Y-95639608D01*
X14198932Y-95421101D01*
X14332182Y-95171808D01*
X14414236Y-94901308D01*
X14435000Y-94690491D01*
X14435000Y-93849508D01*
X14414236Y-93638691D01*
X14332182Y-93368192D01*
X14198932Y-93118899D01*
X14019607Y-92900392D01*
X13801100Y-92721068D01*
X13551807Y-92587818D01*
X13281308Y-92505764D01*
X13000000Y-92478057D01*
X12718691Y-92505764D01*
X12448192Y-92587818D01*
X12198899Y-92721068D01*
X11980392Y-92900393D01*
X11801068Y-93118900D01*
X11667818Y-93368193D01*
X11585764Y-93638692D01*
X11565000Y-93849509D01*
X7029650Y-93849509D01*
X6894127Y-93777071D01*
X6651904Y-93703593D01*
X6463123Y-93685000D01*
X5336877Y-93685000D01*
X5148096Y-93703593D01*
X4905873Y-93777071D01*
X4682638Y-93896392D01*
X4486972Y-94056972D01*
X4326392Y-94252638D01*
X4207071Y-94475873D01*
X4133593Y-94718096D01*
X4108783Y-94970000D01*
X660000Y-94970000D01*
X660000Y-92392702D01*
X19506903Y-92392702D01*
X19578486Y-92636671D01*
X19833996Y-92757571D01*
X20108184Y-92826300D01*
X20390512Y-92840217D01*
X20670130Y-92798787D01*
X20936292Y-92703603D01*
X21061514Y-92636671D01*
X21133097Y-92392702D01*
X20320000Y-91579605D01*
X19506903Y-92392702D01*
X660000Y-92392702D01*
X660000Y-91507092D01*
X775105Y-91624500D01*
X1008354Y-91783715D01*
X1268182Y-91894367D01*
X1350961Y-91911904D01*
X1573000Y-91789915D01*
X1573000Y-90297000D01*
X1827000Y-90297000D01*
X1827000Y-91789915D01*
X2049039Y-91911904D01*
X2131818Y-91894367D01*
X2391646Y-91783715D01*
X2624895Y-91624500D01*
X2775862Y-91470512D01*
X18879783Y-91470512D01*
X18921213Y-91750130D01*
X19016397Y-92016292D01*
X19083329Y-92141514D01*
X19327298Y-92213097D01*
X20140395Y-91400000D01*
X20499605Y-91400000D01*
X21312702Y-92213097D01*
X21556671Y-92141514D01*
X21677571Y-91886004D01*
X21746300Y-91611816D01*
X21760217Y-91329488D01*
X21718787Y-91049870D01*
X21623603Y-90783708D01*
X21556671Y-90658486D01*
X21312702Y-90586903D01*
X20499605Y-91400000D01*
X20140395Y-91400000D01*
X19327298Y-90586903D01*
X19083329Y-90658486D01*
X18962429Y-90913996D01*
X18893700Y-91188184D01*
X18879783Y-91470512D01*
X2775862Y-91470512D01*
X2822601Y-91422839D01*
X2977166Y-91186483D01*
X3082650Y-90924514D01*
X3135000Y-90647000D01*
X3135000Y-90297000D01*
X1827000Y-90297000D01*
X1573000Y-90297000D01*
X1553000Y-90297000D01*
X1553000Y-90043000D01*
X1573000Y-90043000D01*
X1573000Y-88550085D01*
X1827000Y-88550085D01*
X1827000Y-90043000D01*
X3135000Y-90043000D01*
X3135000Y-89693000D01*
X3082650Y-89415486D01*
X2977166Y-89153517D01*
X2822601Y-88917161D01*
X2624895Y-88715500D01*
X2391646Y-88556285D01*
X2131818Y-88445633D01*
X2049039Y-88428096D01*
X1827000Y-88550085D01*
X1573000Y-88550085D01*
X1350961Y-88428096D01*
X1268182Y-88445633D01*
X1008354Y-88556285D01*
X775105Y-88715500D01*
X660000Y-88832908D01*
X660000Y-87570000D01*
X6808057Y-87570000D01*
X6835764Y-87851309D01*
X6917818Y-88121808D01*
X7051068Y-88371101D01*
X7230392Y-88589608D01*
X7448899Y-88768932D01*
X7698192Y-88902182D01*
X7968691Y-88984236D01*
X8179508Y-89005000D01*
X9020492Y-89005000D01*
X9231309Y-88984236D01*
X9501808Y-88902182D01*
X9751101Y-88768932D01*
X9969608Y-88589608D01*
X10148932Y-88371101D01*
X10282182Y-88121808D01*
X10288797Y-88100000D01*
X18881928Y-88100000D01*
X18881928Y-89700000D01*
X18894188Y-89824482D01*
X18930498Y-89944180D01*
X18989463Y-90054494D01*
X19068815Y-90151185D01*
X19165506Y-90230537D01*
X19275820Y-90289502D01*
X19395518Y-90325812D01*
X19520000Y-90338072D01*
X19527215Y-90338072D01*
X19506903Y-90407298D01*
X20320000Y-91220395D01*
X21133097Y-90407298D01*
X21112785Y-90338072D01*
X21120000Y-90338072D01*
X21244482Y-90325812D01*
X21364180Y-90289502D01*
X21474494Y-90230537D01*
X21571185Y-90151185D01*
X21650537Y-90054494D01*
X21709502Y-89944180D01*
X21745812Y-89824482D01*
X21758072Y-89700000D01*
X21758072Y-88100000D01*
X21745812Y-87975518D01*
X21709502Y-87855820D01*
X21650537Y-87745506D01*
X21571185Y-87648815D01*
X21474494Y-87569463D01*
X21364180Y-87510498D01*
X21244482Y-87474188D01*
X21120000Y-87461928D01*
X19520000Y-87461928D01*
X19395518Y-87474188D01*
X19275820Y-87510498D01*
X19165506Y-87569463D01*
X19068815Y-87648815D01*
X18989463Y-87745506D01*
X18930498Y-87855820D01*
X18894188Y-87975518D01*
X18881928Y-88100000D01*
X10288797Y-88100000D01*
X10364236Y-87851309D01*
X10391943Y-87570000D01*
X10364236Y-87288691D01*
X10282182Y-87018192D01*
X10148932Y-86768899D01*
X9969608Y-86550392D01*
X9821120Y-86428531D01*
X23909389Y-86428531D01*
X23951401Y-86718019D01*
X24049081Y-86993747D01*
X24122528Y-87131157D01*
X24371603Y-87208792D01*
X25220395Y-86360000D01*
X25579605Y-86360000D01*
X26428397Y-87208792D01*
X26670000Y-87133486D01*
X26911603Y-87208792D01*
X27760395Y-86360000D01*
X26911603Y-85511208D01*
X26670000Y-85586514D01*
X26428397Y-85511208D01*
X25579605Y-86360000D01*
X25220395Y-86360000D01*
X24371603Y-85511208D01*
X24122528Y-85588843D01*
X23996629Y-85852883D01*
X23924661Y-86136411D01*
X23909389Y-86428531D01*
X9821120Y-86428531D01*
X9751101Y-86371068D01*
X9533953Y-86255000D01*
X10163123Y-86255000D01*
X10351904Y-86236407D01*
X10594127Y-86162929D01*
X10817362Y-86043608D01*
X11013028Y-85883028D01*
X11173608Y-85687362D01*
X11292929Y-85464127D01*
X11366407Y-85221904D01*
X11391217Y-84970000D01*
X11379241Y-84848397D01*
X24551208Y-84848397D01*
X24626514Y-85090000D01*
X24551208Y-85331603D01*
X25400000Y-86180395D01*
X26248792Y-85331603D01*
X26173486Y-85090000D01*
X26248792Y-84848397D01*
X25400000Y-83999605D01*
X24551208Y-84848397D01*
X11379241Y-84848397D01*
X11366407Y-84718096D01*
X11292929Y-84475873D01*
X11173608Y-84252638D01*
X11013028Y-84056972D01*
X10817362Y-83896392D01*
X10802656Y-83888531D01*
X23909389Y-83888531D01*
X23951401Y-84178019D01*
X24049081Y-84453747D01*
X24122528Y-84591157D01*
X24371603Y-84668792D01*
X25220395Y-83820000D01*
X25579605Y-83820000D01*
X26428397Y-84668792D01*
X26670000Y-84593486D01*
X26911603Y-84668792D01*
X27760395Y-83820000D01*
X26911603Y-82971208D01*
X26670000Y-83046514D01*
X26428397Y-82971208D01*
X25579605Y-83820000D01*
X25220395Y-83820000D01*
X24371603Y-82971208D01*
X24122528Y-83048843D01*
X23996629Y-83312883D01*
X23924661Y-83596411D01*
X23909389Y-83888531D01*
X10802656Y-83888531D01*
X10594127Y-83777071D01*
X10351904Y-83703593D01*
X10163123Y-83685000D01*
X9036877Y-83685000D01*
X8848096Y-83703593D01*
X8605873Y-83777071D01*
X8382638Y-83896392D01*
X8186972Y-84056972D01*
X8026392Y-84252638D01*
X7907071Y-84475873D01*
X7833593Y-84718096D01*
X7808783Y-84970000D01*
X7833593Y-85221904D01*
X7907071Y-85464127D01*
X8026392Y-85687362D01*
X8186972Y-85883028D01*
X8382638Y-86043608D01*
X8553621Y-86135000D01*
X8179508Y-86135000D01*
X7968691Y-86155764D01*
X7698192Y-86237818D01*
X7448899Y-86371068D01*
X7230392Y-86550392D01*
X7051068Y-86768899D01*
X6917818Y-87018192D01*
X6835764Y-87288691D01*
X6808057Y-87570000D01*
X660000Y-87570000D01*
X660000Y-81773665D01*
X6820000Y-81773665D01*
X6820000Y-82056335D01*
X6875147Y-82333574D01*
X6983320Y-82594727D01*
X7140363Y-82829759D01*
X7340241Y-83029637D01*
X7575273Y-83186680D01*
X7836426Y-83294853D01*
X8113665Y-83350000D01*
X8396335Y-83350000D01*
X8673574Y-83294853D01*
X8934727Y-83186680D01*
X9169759Y-83029637D01*
X9291694Y-82907702D01*
X9981903Y-82907702D01*
X10053486Y-83151671D01*
X10308996Y-83272571D01*
X10583184Y-83341300D01*
X10865512Y-83355217D01*
X11145130Y-83313787D01*
X11411292Y-83218603D01*
X11536514Y-83151671D01*
X11608097Y-82907702D01*
X10795000Y-82094605D01*
X9981903Y-82907702D01*
X9291694Y-82907702D01*
X9369637Y-82829759D01*
X9525915Y-82595872D01*
X9558329Y-82656514D01*
X9802298Y-82728097D01*
X10615395Y-81915000D01*
X10974605Y-81915000D01*
X11787702Y-82728097D01*
X12031671Y-82656514D01*
X12152571Y-82401004D01*
X12175784Y-82308397D01*
X24551208Y-82308397D01*
X24626514Y-82550000D01*
X24551208Y-82791603D01*
X25400000Y-83640395D01*
X26248792Y-82791603D01*
X26173486Y-82550000D01*
X26248792Y-82308397D01*
X25400000Y-81459605D01*
X24551208Y-82308397D01*
X12175784Y-82308397D01*
X12221300Y-82126816D01*
X12235217Y-81844488D01*
X12193787Y-81564870D01*
X12116421Y-81348531D01*
X23909389Y-81348531D01*
X23951401Y-81638019D01*
X24049081Y-81913747D01*
X24122528Y-82051157D01*
X24371603Y-82128792D01*
X25220395Y-81280000D01*
X25579605Y-81280000D01*
X26428397Y-82128792D01*
X26670000Y-82053486D01*
X26911603Y-82128792D01*
X27760395Y-81280000D01*
X26911603Y-80431208D01*
X26670000Y-80506514D01*
X26428397Y-80431208D01*
X25579605Y-81280000D01*
X25220395Y-81280000D01*
X24371603Y-80431208D01*
X24122528Y-80508843D01*
X23996629Y-80772883D01*
X23924661Y-81056411D01*
X23909389Y-81348531D01*
X12116421Y-81348531D01*
X12098603Y-81298708D01*
X12031671Y-81173486D01*
X11787702Y-81101903D01*
X10974605Y-81915000D01*
X10615395Y-81915000D01*
X9802298Y-81101903D01*
X9558329Y-81173486D01*
X9527806Y-81237992D01*
X9526680Y-81235273D01*
X9369637Y-81000241D01*
X9291694Y-80922298D01*
X9981903Y-80922298D01*
X10795000Y-81735395D01*
X11608097Y-80922298D01*
X11536514Y-80678329D01*
X11281004Y-80557429D01*
X11006816Y-80488700D01*
X10724488Y-80474783D01*
X10444870Y-80516213D01*
X10178708Y-80611397D01*
X10053486Y-80678329D01*
X9981903Y-80922298D01*
X9291694Y-80922298D01*
X9169759Y-80800363D01*
X8934727Y-80643320D01*
X8673574Y-80535147D01*
X8396335Y-80480000D01*
X8113665Y-80480000D01*
X7836426Y-80535147D01*
X7575273Y-80643320D01*
X7340241Y-80800363D01*
X7140363Y-81000241D01*
X6983320Y-81235273D01*
X6875147Y-81496426D01*
X6820000Y-81773665D01*
X660000Y-81773665D01*
X660000Y-79095000D01*
X4108783Y-79095000D01*
X4133593Y-79346904D01*
X4207071Y-79589127D01*
X4326392Y-79812362D01*
X4486972Y-80008028D01*
X4682638Y-80168608D01*
X4905873Y-80287929D01*
X5148096Y-80361407D01*
X5336877Y-80380000D01*
X6463123Y-80380000D01*
X6651904Y-80361407D01*
X6894127Y-80287929D01*
X7117362Y-80168608D01*
X7313028Y-80008028D01*
X7473608Y-79812362D01*
X7592929Y-79589127D01*
X7666407Y-79346904D01*
X7691217Y-79095000D01*
X7666407Y-78843096D01*
X7592929Y-78600873D01*
X7473608Y-78377638D01*
X7313028Y-78181972D01*
X7117362Y-78021392D01*
X6894127Y-77902071D01*
X6651904Y-77828593D01*
X6463123Y-77810000D01*
X5336877Y-77810000D01*
X5148096Y-77828593D01*
X4905873Y-77902071D01*
X4682638Y-78021392D01*
X4486972Y-78181972D01*
X4326392Y-78377638D01*
X4207071Y-78600873D01*
X4133593Y-78843096D01*
X4108783Y-79095000D01*
X660000Y-79095000D01*
X660000Y-75632092D01*
X775105Y-75749500D01*
X1008354Y-75908715D01*
X1268182Y-76019367D01*
X1350961Y-76036904D01*
X1573000Y-75914915D01*
X1573000Y-74422000D01*
X1827000Y-74422000D01*
X1827000Y-75914915D01*
X2049039Y-76036904D01*
X2131818Y-76019367D01*
X2391646Y-75908715D01*
X2624895Y-75749500D01*
X2822601Y-75547839D01*
X2977166Y-75311483D01*
X3082650Y-75049514D01*
X3135000Y-74772000D01*
X3135000Y-74422000D01*
X1827000Y-74422000D01*
X1573000Y-74422000D01*
X1553000Y-74422000D01*
X1553000Y-74168000D01*
X1573000Y-74168000D01*
X1573000Y-72675085D01*
X1827000Y-72675085D01*
X1827000Y-74168000D01*
X3135000Y-74168000D01*
X3135000Y-73818000D01*
X3082650Y-73540486D01*
X2977166Y-73278517D01*
X2822601Y-73042161D01*
X2624895Y-72840500D01*
X2391646Y-72681285D01*
X2131818Y-72570633D01*
X2049039Y-72553096D01*
X1827000Y-72675085D01*
X1573000Y-72675085D01*
X1350961Y-72553096D01*
X1268182Y-72570633D01*
X1008354Y-72681285D01*
X775105Y-72840500D01*
X660000Y-72957908D01*
X660000Y-59757092D01*
X775105Y-59874500D01*
X1008354Y-60033715D01*
X1268182Y-60144367D01*
X1350961Y-60161904D01*
X1573000Y-60039915D01*
X1573000Y-58547000D01*
X1553000Y-58547000D01*
X1553000Y-58293000D01*
X1573000Y-58293000D01*
X1573000Y-56800085D01*
X1350961Y-56678096D01*
X1268182Y-56695633D01*
X1008354Y-56806285D01*
X775105Y-56965500D01*
X660000Y-57082908D01*
X660000Y-40707092D01*
X775105Y-40824500D01*
X1008354Y-40983715D01*
X1268182Y-41094367D01*
X1350961Y-41111904D01*
X1573000Y-40989915D01*
X1573000Y-39497000D01*
X1553000Y-39497000D01*
X1553000Y-39243000D01*
X1573000Y-39243000D01*
X1573000Y-37750085D01*
X1350961Y-37628096D01*
X1268182Y-37645633D01*
X1008354Y-37756285D01*
X775105Y-37915500D01*
X660000Y-38032908D01*
X660000Y-24832092D01*
X775105Y-24949500D01*
X1008354Y-25108715D01*
X1268182Y-25219367D01*
X1350961Y-25236904D01*
X1573000Y-25114915D01*
X1573000Y-23622000D01*
X1553000Y-23622000D01*
X1553000Y-23368000D01*
X1573000Y-23368000D01*
X1573000Y-21875085D01*
X1827000Y-21875085D01*
X1827000Y-23368000D01*
X1847000Y-23368000D01*
X1847000Y-23622000D01*
X1827000Y-23622000D01*
X1827000Y-25114915D01*
X2049039Y-25236904D01*
X2131818Y-25219367D01*
X2391646Y-25108715D01*
X2415000Y-25092773D01*
X2415000Y-37772227D01*
X2391646Y-37756285D01*
X2131818Y-37645633D01*
X2049039Y-37628096D01*
X1827000Y-37750085D01*
X1827000Y-39243000D01*
X1847000Y-39243000D01*
X1847000Y-39497000D01*
X1827000Y-39497000D01*
X1827000Y-40989915D01*
X2049039Y-41111904D01*
X2131818Y-41094367D01*
X2391646Y-40983715D01*
X2415001Y-40967773D01*
X2415001Y-56822227D01*
X2391646Y-56806285D01*
X2131818Y-56695633D01*
X2049039Y-56678096D01*
X1827000Y-56800085D01*
X1827000Y-58293000D01*
X1847000Y-58293000D01*
X1847000Y-58547000D01*
X1827000Y-58547000D01*
X1827000Y-60039915D01*
X2049039Y-60161904D01*
X2131818Y-60144367D01*
X2391646Y-60033715D01*
X2415001Y-60017773D01*
X2415001Y-64701288D01*
X2371063Y-64745226D01*
X2257795Y-64914744D01*
X2179774Y-65103102D01*
X2140000Y-65303061D01*
X2140000Y-65506939D01*
X2179774Y-65706898D01*
X2257795Y-65895256D01*
X2371063Y-66064774D01*
X2515226Y-66208937D01*
X2684744Y-66322205D01*
X2873102Y-66400226D01*
X3073061Y-66440000D01*
X3276939Y-66440000D01*
X3476898Y-66400226D01*
X3665256Y-66322205D01*
X3834774Y-66208937D01*
X3978937Y-66064774D01*
X4092205Y-65895256D01*
X4170226Y-65706898D01*
X4210000Y-65506939D01*
X4210000Y-65303061D01*
X4170226Y-65103102D01*
X4092205Y-64914744D01*
X3978937Y-64745226D01*
X3935000Y-64701289D01*
X3935000Y-63220000D01*
X4108783Y-63220000D01*
X4133593Y-63471904D01*
X4207071Y-63714127D01*
X4326392Y-63937362D01*
X4486972Y-64133028D01*
X4682638Y-64293608D01*
X4905873Y-64412929D01*
X5148096Y-64486407D01*
X5336877Y-64505000D01*
X6463123Y-64505000D01*
X6651904Y-64486407D01*
X6894127Y-64412929D01*
X7117362Y-64293608D01*
X7313028Y-64133028D01*
X7473608Y-63937362D01*
X7592929Y-63714127D01*
X7666407Y-63471904D01*
X7691217Y-63220000D01*
X7666407Y-62968096D01*
X7592929Y-62725873D01*
X7473608Y-62502638D01*
X7313028Y-62306972D01*
X7117362Y-62146392D01*
X6894127Y-62027071D01*
X6651904Y-61953593D01*
X6463123Y-61935000D01*
X5336877Y-61935000D01*
X5148096Y-61953593D01*
X4905873Y-62027071D01*
X4682638Y-62146392D01*
X4486972Y-62306972D01*
X4326392Y-62502638D01*
X4207071Y-62725873D01*
X4133593Y-62968096D01*
X4108783Y-63220000D01*
X3935000Y-63220000D01*
X3935000Y-55820000D01*
X6808057Y-55820000D01*
X6835764Y-56101309D01*
X6917818Y-56371808D01*
X7051068Y-56621101D01*
X7230392Y-56839608D01*
X7448899Y-57018932D01*
X7698192Y-57152182D01*
X7968691Y-57234236D01*
X8179508Y-57255000D01*
X9020492Y-57255000D01*
X9231309Y-57234236D01*
X9501808Y-57152182D01*
X9751101Y-57018932D01*
X9969608Y-56839608D01*
X10148932Y-56621101D01*
X10282182Y-56371808D01*
X10364236Y-56101309D01*
X10391943Y-55820000D01*
X10364236Y-55538691D01*
X10282182Y-55268192D01*
X10148932Y-55018899D01*
X9969608Y-54800392D01*
X9751101Y-54621068D01*
X9533953Y-54505000D01*
X10163123Y-54505000D01*
X10351904Y-54486407D01*
X10594127Y-54412929D01*
X10670000Y-54372374D01*
X10670001Y-67942626D01*
X10594127Y-67902071D01*
X10351904Y-67828593D01*
X10163123Y-67810000D01*
X9036877Y-67810000D01*
X8848096Y-67828593D01*
X8605873Y-67902071D01*
X8382638Y-68021392D01*
X8186972Y-68181972D01*
X8026392Y-68377638D01*
X7907071Y-68600873D01*
X7833593Y-68843096D01*
X7808783Y-69095000D01*
X7833593Y-69346904D01*
X7907071Y-69589127D01*
X8026392Y-69812362D01*
X8186972Y-70008028D01*
X8382638Y-70168608D01*
X8553621Y-70260000D01*
X8179508Y-70260000D01*
X7968691Y-70280764D01*
X7698192Y-70362818D01*
X7448899Y-70496068D01*
X7230392Y-70675392D01*
X7051068Y-70893899D01*
X6917818Y-71143192D01*
X6835764Y-71413691D01*
X6808057Y-71695000D01*
X6835764Y-71976309D01*
X6917818Y-72246808D01*
X7051068Y-72496101D01*
X7230392Y-72714608D01*
X7448899Y-72893932D01*
X7698192Y-73027182D01*
X7968691Y-73109236D01*
X8179508Y-73130000D01*
X9020492Y-73130000D01*
X9231309Y-73109236D01*
X9501808Y-73027182D01*
X9751101Y-72893932D01*
X9969608Y-72714608D01*
X10148932Y-72496101D01*
X10282182Y-72246808D01*
X10364236Y-71976309D01*
X10391943Y-71695000D01*
X10364236Y-71413691D01*
X10282182Y-71143192D01*
X10148932Y-70893899D01*
X9969608Y-70675392D01*
X9751101Y-70496068D01*
X9533953Y-70380000D01*
X10163123Y-70380000D01*
X10351904Y-70361407D01*
X10594127Y-70287929D01*
X10670001Y-70247374D01*
X10670001Y-77432667D01*
X10666324Y-77470000D01*
X10680998Y-77618985D01*
X10724454Y-77762246D01*
X10795026Y-77894276D01*
X10860872Y-77974509D01*
X10890000Y-78010001D01*
X10918998Y-78033799D01*
X11565000Y-78679802D01*
X11565000Y-78815492D01*
X11585764Y-79026309D01*
X11667818Y-79296808D01*
X11801068Y-79546101D01*
X11980393Y-79764608D01*
X12198900Y-79943932D01*
X12448193Y-80077182D01*
X12718692Y-80159236D01*
X13000000Y-80186943D01*
X13281309Y-80159236D01*
X13551808Y-80077182D01*
X13801101Y-79943932D01*
X14019608Y-79764608D01*
X14198932Y-79546101D01*
X14332182Y-79296808D01*
X14414236Y-79026308D01*
X14435000Y-78815491D01*
X14435000Y-77974508D01*
X14414236Y-77763691D01*
X14332182Y-77493192D01*
X14198932Y-77243899D01*
X14019607Y-77025392D01*
X13801100Y-76846068D01*
X13551807Y-76712818D01*
X13281308Y-76630764D01*
X13000000Y-76603057D01*
X12718691Y-76630764D01*
X12448192Y-76712818D01*
X12198899Y-76846068D01*
X12190000Y-76853371D01*
X12190000Y-75400000D01*
X18881928Y-75400000D01*
X18885000Y-75914250D01*
X19043750Y-76073000D01*
X20193000Y-76073000D01*
X20193000Y-74923750D01*
X20447000Y-74923750D01*
X20447000Y-76073000D01*
X21596250Y-76073000D01*
X21755000Y-75914250D01*
X21758072Y-75400000D01*
X21745812Y-75275518D01*
X21709502Y-75155820D01*
X21650537Y-75045506D01*
X21571185Y-74948815D01*
X21474494Y-74869463D01*
X21364180Y-74810498D01*
X21244482Y-74774188D01*
X21120000Y-74761928D01*
X20605750Y-74765000D01*
X20447000Y-74923750D01*
X20193000Y-74923750D01*
X20034250Y-74765000D01*
X19520000Y-74761928D01*
X19395518Y-74774188D01*
X19275820Y-74810498D01*
X19165506Y-74869463D01*
X19068815Y-74948815D01*
X18989463Y-75045506D01*
X18930498Y-75155820D01*
X18894188Y-75275518D01*
X18881928Y-75400000D01*
X12190000Y-75400000D01*
X12190000Y-67803665D01*
X18885000Y-67803665D01*
X18885000Y-68086335D01*
X18940147Y-68363574D01*
X19048320Y-68624727D01*
X19205363Y-68859759D01*
X19405241Y-69059637D01*
X19640273Y-69216680D01*
X19901426Y-69324853D01*
X20178665Y-69380000D01*
X20461335Y-69380000D01*
X20738574Y-69324853D01*
X20999727Y-69216680D01*
X21234759Y-69059637D01*
X21434637Y-68859759D01*
X21591680Y-68624727D01*
X21699853Y-68363574D01*
X21755000Y-68086335D01*
X21755000Y-67803665D01*
X21699853Y-67526426D01*
X21591680Y-67265273D01*
X21434637Y-67030241D01*
X21234759Y-66830363D01*
X20999727Y-66673320D01*
X20738574Y-66565147D01*
X20461335Y-66510000D01*
X20178665Y-66510000D01*
X19901426Y-66565147D01*
X19640273Y-66673320D01*
X19405241Y-66830363D01*
X19205363Y-67030241D01*
X19048320Y-67265273D01*
X18940147Y-67526426D01*
X18885000Y-67803665D01*
X12190000Y-67803665D01*
X12190000Y-64061628D01*
X12198900Y-64068932D01*
X12448193Y-64202182D01*
X12718692Y-64284236D01*
X13000000Y-64311943D01*
X13281309Y-64284236D01*
X13551808Y-64202182D01*
X13801101Y-64068932D01*
X14019608Y-63889608D01*
X14198932Y-63671101D01*
X14332182Y-63421808D01*
X14414236Y-63151308D01*
X14435000Y-62940491D01*
X14435000Y-62099508D01*
X14414236Y-61888691D01*
X14332182Y-61618192D01*
X14198932Y-61368899D01*
X14019607Y-61150392D01*
X13801100Y-60971068D01*
X13551807Y-60837818D01*
X13281308Y-60755764D01*
X13000000Y-60728057D01*
X12718691Y-60755764D01*
X12448192Y-60837818D01*
X12198899Y-60971068D01*
X12190000Y-60978371D01*
X12190000Y-45011628D01*
X12198900Y-45018932D01*
X12448193Y-45152182D01*
X12718692Y-45234236D01*
X13000000Y-45261943D01*
X13281309Y-45234236D01*
X13551808Y-45152182D01*
X13801101Y-45018932D01*
X14019608Y-44839608D01*
X14198932Y-44621101D01*
X14332182Y-44371808D01*
X14351335Y-44308665D01*
X14440000Y-44308665D01*
X14440000Y-44591335D01*
X14495147Y-44868574D01*
X14603320Y-45129727D01*
X14760363Y-45364759D01*
X14960241Y-45564637D01*
X15192759Y-45720000D01*
X14960241Y-45875363D01*
X14760363Y-46075241D01*
X14603320Y-46310273D01*
X14495147Y-46571426D01*
X14440000Y-46848665D01*
X14440000Y-47131335D01*
X14495147Y-47408574D01*
X14603320Y-47669727D01*
X14760363Y-47904759D01*
X14960241Y-48104637D01*
X15192759Y-48260000D01*
X14960241Y-48415363D01*
X14760363Y-48615241D01*
X14603320Y-48850273D01*
X14495147Y-49111426D01*
X14440000Y-49388665D01*
X14440000Y-49671335D01*
X14495147Y-49948574D01*
X14603320Y-50209727D01*
X14760363Y-50444759D01*
X14960241Y-50644637D01*
X15195273Y-50801680D01*
X15456426Y-50909853D01*
X15733665Y-50965000D01*
X16016335Y-50965000D01*
X16293574Y-50909853D01*
X16554727Y-50801680D01*
X16789759Y-50644637D01*
X16989637Y-50444759D01*
X17146680Y-50209727D01*
X17254853Y-49948574D01*
X17310000Y-49671335D01*
X17310000Y-49388665D01*
X17254853Y-49111426D01*
X17146680Y-48850273D01*
X16989637Y-48615241D01*
X16789759Y-48415363D01*
X16557241Y-48260000D01*
X16789759Y-48104637D01*
X16989637Y-47904759D01*
X17146680Y-47669727D01*
X17254853Y-47408574D01*
X17310000Y-47131335D01*
X17310000Y-46848665D01*
X17254853Y-46571426D01*
X17146680Y-46310273D01*
X16989637Y-46075241D01*
X16789759Y-45875363D01*
X16557241Y-45720000D01*
X16789759Y-45564637D01*
X16989637Y-45364759D01*
X17146680Y-45129727D01*
X17254853Y-44868574D01*
X17310000Y-44591335D01*
X17310000Y-44308665D01*
X17254853Y-44031426D01*
X17146680Y-43770273D01*
X16989637Y-43535241D01*
X16789759Y-43335363D01*
X16555872Y-43179085D01*
X16616514Y-43146671D01*
X16688097Y-42902702D01*
X15875000Y-42089605D01*
X15061903Y-42902702D01*
X15133486Y-43146671D01*
X15197992Y-43177194D01*
X15195273Y-43178320D01*
X14960241Y-43335363D01*
X14760363Y-43535241D01*
X14603320Y-43770273D01*
X14495147Y-44031426D01*
X14440000Y-44308665D01*
X14351335Y-44308665D01*
X14414236Y-44101308D01*
X14435000Y-43890491D01*
X14435000Y-43049508D01*
X14414236Y-42838691D01*
X14332182Y-42568192D01*
X14198932Y-42318899D01*
X14019607Y-42100392D01*
X13873533Y-41980512D01*
X14434783Y-41980512D01*
X14476213Y-42260130D01*
X14571397Y-42526292D01*
X14638329Y-42651514D01*
X14882298Y-42723097D01*
X15695395Y-41910000D01*
X16054605Y-41910000D01*
X16867702Y-42723097D01*
X17111671Y-42651514D01*
X17232571Y-42396004D01*
X17301300Y-42121816D01*
X17308265Y-41980512D01*
X17609783Y-41980512D01*
X17651213Y-42260130D01*
X17746397Y-42526292D01*
X17813329Y-42651514D01*
X18057298Y-42723097D01*
X18870395Y-41910000D01*
X18057298Y-41096903D01*
X17813329Y-41168486D01*
X17692429Y-41423996D01*
X17623700Y-41698184D01*
X17609783Y-41980512D01*
X17308265Y-41980512D01*
X17315217Y-41839488D01*
X17273787Y-41559870D01*
X17178603Y-41293708D01*
X17111671Y-41168486D01*
X16867702Y-41096903D01*
X16054605Y-41910000D01*
X15695395Y-41910000D01*
X14882298Y-41096903D01*
X14638329Y-41168486D01*
X14517429Y-41423996D01*
X14448700Y-41698184D01*
X14434783Y-41980512D01*
X13873533Y-41980512D01*
X13801100Y-41921068D01*
X13551807Y-41787818D01*
X13281308Y-41705764D01*
X13000000Y-41678057D01*
X12718691Y-41705764D01*
X12448192Y-41787818D01*
X12198899Y-41921068D01*
X12190000Y-41928371D01*
X12190000Y-40917298D01*
X15061903Y-40917298D01*
X15875000Y-41730395D01*
X16688097Y-40917298D01*
X18236903Y-40917298D01*
X19050000Y-41730395D01*
X19863097Y-40917298D01*
X19791514Y-40673329D01*
X19536004Y-40552429D01*
X19261816Y-40483700D01*
X18979488Y-40469783D01*
X18699870Y-40511213D01*
X18433708Y-40606397D01*
X18308486Y-40673329D01*
X18236903Y-40917298D01*
X16688097Y-40917298D01*
X16616514Y-40673329D01*
X16361004Y-40552429D01*
X16086816Y-40483700D01*
X15804488Y-40469783D01*
X15524870Y-40511213D01*
X15258708Y-40606397D01*
X15133486Y-40673329D01*
X15061903Y-40917298D01*
X12190000Y-40917298D01*
X12190000Y-40073711D01*
X12233937Y-40029774D01*
X12347205Y-39860256D01*
X12425226Y-39671898D01*
X12465000Y-39471939D01*
X12465000Y-39268061D01*
X12425226Y-39068102D01*
X12347205Y-38879744D01*
X12233937Y-38710226D01*
X12089774Y-38566063D01*
X11920256Y-38452795D01*
X11731898Y-38374774D01*
X11531939Y-38335000D01*
X11328061Y-38335000D01*
X11128102Y-38374774D01*
X10939744Y-38452795D01*
X10770226Y-38566063D01*
X10626063Y-38710226D01*
X10512795Y-38879744D01*
X10434774Y-39068102D01*
X10395000Y-39268061D01*
X10395000Y-39471939D01*
X10434774Y-39671898D01*
X10512795Y-39860256D01*
X10626063Y-40029774D01*
X10670000Y-40073711D01*
X10670000Y-52067626D01*
X10594127Y-52027071D01*
X10351904Y-51953593D01*
X10163123Y-51935000D01*
X9036877Y-51935000D01*
X8848096Y-51953593D01*
X8605873Y-52027071D01*
X8382638Y-52146392D01*
X8186972Y-52306972D01*
X8026392Y-52502638D01*
X7907071Y-52725873D01*
X7833593Y-52968096D01*
X7808783Y-53220000D01*
X7833593Y-53471904D01*
X7907071Y-53714127D01*
X8026392Y-53937362D01*
X8186972Y-54133028D01*
X8382638Y-54293608D01*
X8553621Y-54385000D01*
X8179508Y-54385000D01*
X7968691Y-54405764D01*
X7698192Y-54487818D01*
X7448899Y-54621068D01*
X7230392Y-54800392D01*
X7051068Y-55018899D01*
X6917818Y-55268192D01*
X6835764Y-55538691D01*
X6808057Y-55820000D01*
X3935000Y-55820000D01*
X3935000Y-44170000D01*
X4108783Y-44170000D01*
X4133593Y-44421904D01*
X4207071Y-44664127D01*
X4326392Y-44887362D01*
X4486972Y-45083028D01*
X4682638Y-45243608D01*
X4905873Y-45362929D01*
X5148096Y-45436407D01*
X5336877Y-45455000D01*
X6463123Y-45455000D01*
X6651904Y-45436407D01*
X6894127Y-45362929D01*
X7117362Y-45243608D01*
X7313028Y-45083028D01*
X7473608Y-44887362D01*
X7592929Y-44664127D01*
X7666407Y-44421904D01*
X7691217Y-44170000D01*
X7666407Y-43918096D01*
X7592929Y-43675873D01*
X7473608Y-43452638D01*
X7313028Y-43256972D01*
X7117362Y-43096392D01*
X6894127Y-42977071D01*
X6651904Y-42903593D01*
X6463123Y-42885000D01*
X5336877Y-42885000D01*
X5148096Y-42903593D01*
X4905873Y-42977071D01*
X4682638Y-43096392D01*
X4486972Y-43256972D01*
X4326392Y-43452638D01*
X4207071Y-43675873D01*
X4133593Y-43918096D01*
X4108783Y-44170000D01*
X3935000Y-44170000D01*
X3935000Y-36770000D01*
X6808057Y-36770000D01*
X6835764Y-37051309D01*
X6917818Y-37321808D01*
X7051068Y-37571101D01*
X7230392Y-37789608D01*
X7448899Y-37968932D01*
X7698192Y-38102182D01*
X7968691Y-38184236D01*
X8179508Y-38205000D01*
X9020492Y-38205000D01*
X9231309Y-38184236D01*
X9501808Y-38102182D01*
X9751101Y-37968932D01*
X9969608Y-37789608D01*
X10148932Y-37571101D01*
X10282182Y-37321808D01*
X10364236Y-37051309D01*
X10391943Y-36770000D01*
X10364236Y-36488691D01*
X10282182Y-36218192D01*
X10148932Y-35968899D01*
X9969608Y-35750392D01*
X9751101Y-35571068D01*
X9533953Y-35455000D01*
X10163123Y-35455000D01*
X10351904Y-35436407D01*
X10594127Y-35362929D01*
X10817362Y-35243608D01*
X11013028Y-35083028D01*
X11173608Y-34887362D01*
X11292929Y-34664127D01*
X11366407Y-34421904D01*
X11391217Y-34170000D01*
X11366407Y-33918096D01*
X11292929Y-33675873D01*
X11173608Y-33452638D01*
X11013028Y-33256972D01*
X10817362Y-33096392D01*
X10594127Y-32977071D01*
X10351904Y-32903593D01*
X10163123Y-32885000D01*
X9036877Y-32885000D01*
X8848096Y-32903593D01*
X8605873Y-32977071D01*
X8382638Y-33096392D01*
X8186972Y-33256972D01*
X8026392Y-33452638D01*
X7907071Y-33675873D01*
X7833593Y-33918096D01*
X7808783Y-34170000D01*
X7833593Y-34421904D01*
X7907071Y-34664127D01*
X8026392Y-34887362D01*
X8186972Y-35083028D01*
X8382638Y-35243608D01*
X8553621Y-35335000D01*
X8179508Y-35335000D01*
X7968691Y-35355764D01*
X7698192Y-35437818D01*
X7448899Y-35571068D01*
X7230392Y-35750392D01*
X7051068Y-35968899D01*
X6917818Y-36218192D01*
X6835764Y-36488691D01*
X6808057Y-36770000D01*
X3935000Y-36770000D01*
X3935000Y-30973665D01*
X6820000Y-30973665D01*
X6820000Y-31256335D01*
X6875147Y-31533574D01*
X6983320Y-31794727D01*
X7140363Y-32029759D01*
X7340241Y-32229637D01*
X7575273Y-32386680D01*
X7836426Y-32494853D01*
X8113665Y-32550000D01*
X8396335Y-32550000D01*
X8673574Y-32494853D01*
X8934727Y-32386680D01*
X9169759Y-32229637D01*
X9291694Y-32107702D01*
X9981903Y-32107702D01*
X10053486Y-32351671D01*
X10308996Y-32472571D01*
X10583184Y-32541300D01*
X10865512Y-32555217D01*
X11145130Y-32513787D01*
X11411292Y-32418603D01*
X11536514Y-32351671D01*
X11608097Y-32107702D01*
X10795000Y-31294605D01*
X9981903Y-32107702D01*
X9291694Y-32107702D01*
X9369637Y-32029759D01*
X9525915Y-31795872D01*
X9558329Y-31856514D01*
X9802298Y-31928097D01*
X10615395Y-31115000D01*
X10974605Y-31115000D01*
X11787702Y-31928097D01*
X12031671Y-31856514D01*
X12152571Y-31601004D01*
X12221300Y-31326816D01*
X12235217Y-31044488D01*
X12193787Y-30764870D01*
X12098603Y-30498708D01*
X12031671Y-30373486D01*
X11787702Y-30301903D01*
X10974605Y-31115000D01*
X10615395Y-31115000D01*
X9802298Y-30301903D01*
X9558329Y-30373486D01*
X9527806Y-30437992D01*
X9526680Y-30435273D01*
X9369637Y-30200241D01*
X9291694Y-30122298D01*
X9981903Y-30122298D01*
X10795000Y-30935395D01*
X11608097Y-30122298D01*
X11536514Y-29878329D01*
X11281004Y-29757429D01*
X11006816Y-29688700D01*
X10724488Y-29674783D01*
X10444870Y-29716213D01*
X10178708Y-29811397D01*
X10053486Y-29878329D01*
X9981903Y-30122298D01*
X9291694Y-30122298D01*
X9169759Y-30000363D01*
X8934727Y-29843320D01*
X8673574Y-29735147D01*
X8396335Y-29680000D01*
X8113665Y-29680000D01*
X7836426Y-29735147D01*
X7575273Y-29843320D01*
X7340241Y-30000363D01*
X7140363Y-30200241D01*
X6983320Y-30435273D01*
X6875147Y-30696426D01*
X6820000Y-30973665D01*
X3935000Y-30973665D01*
X3935000Y-28295000D01*
X4108783Y-28295000D01*
X4133593Y-28546904D01*
X4207071Y-28789127D01*
X4326392Y-29012362D01*
X4486972Y-29208028D01*
X4682638Y-29368608D01*
X4905873Y-29487929D01*
X5148096Y-29561407D01*
X5336877Y-29580000D01*
X6463123Y-29580000D01*
X6651904Y-29561407D01*
X6894127Y-29487929D01*
X7117362Y-29368608D01*
X7313028Y-29208028D01*
X7473608Y-29012362D01*
X7592929Y-28789127D01*
X7666407Y-28546904D01*
X7691217Y-28295000D01*
X7666407Y-28043096D01*
X7592929Y-27800873D01*
X7550771Y-27722000D01*
X11565000Y-27722000D01*
X11565000Y-28072000D01*
X11617350Y-28349514D01*
X11722834Y-28611483D01*
X11877399Y-28847839D01*
X12075105Y-29049500D01*
X12308354Y-29208715D01*
X12568182Y-29319367D01*
X12650961Y-29336904D01*
X12873000Y-29214915D01*
X12873000Y-27722000D01*
X13127000Y-27722000D01*
X13127000Y-29214915D01*
X13349039Y-29336904D01*
X13431818Y-29319367D01*
X13691646Y-29208715D01*
X13896818Y-29068665D01*
X18885000Y-29068665D01*
X18885000Y-29351335D01*
X18940147Y-29628574D01*
X19048320Y-29889727D01*
X19205363Y-30124759D01*
X19405241Y-30324637D01*
X19640273Y-30481680D01*
X19901426Y-30589853D01*
X20178665Y-30645000D01*
X20461335Y-30645000D01*
X20738574Y-30589853D01*
X20999727Y-30481680D01*
X21234759Y-30324637D01*
X21434637Y-30124759D01*
X21591680Y-29889727D01*
X21699853Y-29628574D01*
X21755000Y-29351335D01*
X21755000Y-29068665D01*
X21699853Y-28791426D01*
X21591680Y-28530273D01*
X21434637Y-28295241D01*
X21234759Y-28095363D01*
X20999727Y-27938320D01*
X20738574Y-27830147D01*
X20461335Y-27775000D01*
X20178665Y-27775000D01*
X19901426Y-27830147D01*
X19640273Y-27938320D01*
X19405241Y-28095363D01*
X19205363Y-28295241D01*
X19048320Y-28530273D01*
X18940147Y-28791426D01*
X18885000Y-29068665D01*
X13896818Y-29068665D01*
X13924895Y-29049500D01*
X14122601Y-28847839D01*
X14277166Y-28611483D01*
X14382650Y-28349514D01*
X14435000Y-28072000D01*
X14435000Y-27722000D01*
X13127000Y-27722000D01*
X12873000Y-27722000D01*
X11565000Y-27722000D01*
X7550771Y-27722000D01*
X7473608Y-27577638D01*
X7313028Y-27381972D01*
X7117362Y-27221392D01*
X6923929Y-27118000D01*
X11565000Y-27118000D01*
X11565000Y-27468000D01*
X12873000Y-27468000D01*
X12873000Y-25975085D01*
X13127000Y-25975085D01*
X13127000Y-27468000D01*
X14435000Y-27468000D01*
X14435000Y-27118000D01*
X14382650Y-26840486D01*
X14277166Y-26578517D01*
X14122601Y-26342161D01*
X13924895Y-26140500D01*
X13691646Y-25981285D01*
X13431818Y-25870633D01*
X13349039Y-25853096D01*
X13127000Y-25975085D01*
X12873000Y-25975085D01*
X12650961Y-25853096D01*
X12568182Y-25870633D01*
X12308354Y-25981285D01*
X12075105Y-26140500D01*
X11877399Y-26342161D01*
X11722834Y-26578517D01*
X11617350Y-26840486D01*
X11565000Y-27118000D01*
X6923929Y-27118000D01*
X6894127Y-27102071D01*
X6651904Y-27028593D01*
X6463123Y-27010000D01*
X5336877Y-27010000D01*
X5148096Y-27028593D01*
X4905873Y-27102071D01*
X4682638Y-27221392D01*
X4486972Y-27381972D01*
X4326392Y-27577638D01*
X4207071Y-27800873D01*
X4133593Y-28043096D01*
X4108783Y-28295000D01*
X3935000Y-28295000D01*
X3935000Y-20895000D01*
X6808057Y-20895000D01*
X6835764Y-21176309D01*
X6917818Y-21446808D01*
X7051068Y-21696101D01*
X7230392Y-21914608D01*
X7448899Y-22093932D01*
X7698192Y-22227182D01*
X7968691Y-22309236D01*
X8179508Y-22330000D01*
X9020492Y-22330000D01*
X9231309Y-22309236D01*
X9501808Y-22227182D01*
X9751101Y-22093932D01*
X9969608Y-21914608D01*
X10148932Y-21696101D01*
X10282182Y-21446808D01*
X10364236Y-21176309D01*
X10391943Y-20895000D01*
X10364236Y-20613691D01*
X10282182Y-20343192D01*
X10194241Y-20178665D01*
X15710000Y-20178665D01*
X15710000Y-20461335D01*
X15765147Y-20738574D01*
X15873320Y-20999727D01*
X16030363Y-21234759D01*
X16230241Y-21434637D01*
X16465273Y-21591680D01*
X16726426Y-21699853D01*
X17003665Y-21755000D01*
X17286335Y-21755000D01*
X17563574Y-21699853D01*
X17824727Y-21591680D01*
X18059759Y-21434637D01*
X18259637Y-21234759D01*
X18416680Y-20999727D01*
X18524853Y-20738574D01*
X18533783Y-20693678D01*
X18587818Y-20871808D01*
X18721068Y-21121101D01*
X18900392Y-21339608D01*
X19118899Y-21518932D01*
X19251858Y-21590000D01*
X19118899Y-21661068D01*
X18900392Y-21840392D01*
X18721068Y-22058899D01*
X18587818Y-22308192D01*
X18505764Y-22578691D01*
X18478057Y-22860000D01*
X18505764Y-23141309D01*
X18587818Y-23411808D01*
X18721068Y-23661101D01*
X18900392Y-23879608D01*
X19118899Y-24058932D01*
X19251858Y-24130000D01*
X19118899Y-24201068D01*
X18900392Y-24380392D01*
X18721068Y-24598899D01*
X18587818Y-24848192D01*
X18543394Y-24994639D01*
X18524853Y-24901426D01*
X18416680Y-24640273D01*
X18259637Y-24405241D01*
X18059759Y-24205363D01*
X17824727Y-24048320D01*
X17563574Y-23940147D01*
X17286335Y-23885000D01*
X17003665Y-23885000D01*
X16726426Y-23940147D01*
X16465273Y-24048320D01*
X16230241Y-24205363D01*
X16030363Y-24405241D01*
X15873320Y-24640273D01*
X15765147Y-24901426D01*
X15710000Y-25178665D01*
X15710000Y-25461335D01*
X15765147Y-25738574D01*
X15873320Y-25999727D01*
X16030363Y-26234759D01*
X16230241Y-26434637D01*
X16465273Y-26591680D01*
X16726426Y-26699853D01*
X17003665Y-26755000D01*
X17286335Y-26755000D01*
X17563574Y-26699853D01*
X17824727Y-26591680D01*
X18059759Y-26434637D01*
X18259637Y-26234759D01*
X18416680Y-25999727D01*
X18523861Y-25740968D01*
X18587818Y-25951808D01*
X18721068Y-26201101D01*
X18900392Y-26419608D01*
X19118899Y-26598932D01*
X19368192Y-26732182D01*
X19638691Y-26814236D01*
X19849508Y-26835000D01*
X20790492Y-26835000D01*
X21001309Y-26814236D01*
X21271808Y-26732182D01*
X21521101Y-26598932D01*
X21739608Y-26419608D01*
X21918932Y-26201101D01*
X21940901Y-26160000D01*
X22815000Y-26160000D01*
X22815001Y-28617668D01*
X22811324Y-28655000D01*
X22815001Y-28692333D01*
X22824535Y-28789127D01*
X22825998Y-28803985D01*
X22869454Y-28947246D01*
X22940026Y-29079276D01*
X23011201Y-29166002D01*
X23035000Y-29195001D01*
X23063998Y-29218799D01*
X25275000Y-31429802D01*
X25275001Y-48580197D01*
X25085199Y-48770000D01*
X23845901Y-48770000D01*
X23823932Y-48728899D01*
X23644608Y-48510392D01*
X23426101Y-48331068D01*
X23293142Y-48260000D01*
X23426101Y-48188932D01*
X23644608Y-48009608D01*
X23823932Y-47791101D01*
X23957182Y-47541808D01*
X24039236Y-47271309D01*
X24066943Y-46990000D01*
X24039236Y-46708691D01*
X23957182Y-46438192D01*
X23823932Y-46188899D01*
X23644608Y-45970392D01*
X23426101Y-45791068D01*
X23293142Y-45720000D01*
X23426101Y-45648932D01*
X23644608Y-45469608D01*
X23823932Y-45251101D01*
X23957182Y-45001808D01*
X24039236Y-44731309D01*
X24066943Y-44450000D01*
X24039236Y-44168691D01*
X23957182Y-43898192D01*
X23823932Y-43648899D01*
X23644608Y-43430392D01*
X23531518Y-43337581D01*
X23549482Y-43335812D01*
X23669180Y-43299502D01*
X23779494Y-43240537D01*
X23876185Y-43161185D01*
X23955537Y-43064494D01*
X24014502Y-42954180D01*
X24050812Y-42834482D01*
X24063072Y-42710000D01*
X24063072Y-41110000D01*
X24050812Y-40985518D01*
X24014502Y-40865820D01*
X23955537Y-40755506D01*
X23876185Y-40658815D01*
X23779494Y-40579463D01*
X23669180Y-40520498D01*
X23549482Y-40484188D01*
X23425000Y-40471928D01*
X21025000Y-40471928D01*
X20900518Y-40484188D01*
X20780820Y-40520498D01*
X20670506Y-40579463D01*
X20573815Y-40658815D01*
X20494463Y-40755506D01*
X20435498Y-40865820D01*
X20399188Y-40985518D01*
X20386928Y-41110000D01*
X20386928Y-41386894D01*
X20353603Y-41293708D01*
X20286671Y-41168486D01*
X20042702Y-41096903D01*
X19229605Y-41910000D01*
X20042702Y-42723097D01*
X20286671Y-42651514D01*
X20386928Y-42439631D01*
X20386928Y-42710000D01*
X20399188Y-42834482D01*
X20435498Y-42954180D01*
X20494463Y-43064494D01*
X20573815Y-43161185D01*
X20670506Y-43240537D01*
X20780820Y-43299502D01*
X20900518Y-43335812D01*
X20918482Y-43337581D01*
X20805392Y-43430392D01*
X20626068Y-43648899D01*
X20492818Y-43898192D01*
X20438783Y-44076322D01*
X20429853Y-44031426D01*
X20321680Y-43770273D01*
X20164637Y-43535241D01*
X19964759Y-43335363D01*
X19730872Y-43179085D01*
X19791514Y-43146671D01*
X19863097Y-42902702D01*
X19050000Y-42089605D01*
X18236903Y-42902702D01*
X18308486Y-43146671D01*
X18372992Y-43177194D01*
X18370273Y-43178320D01*
X18135241Y-43335363D01*
X17935363Y-43535241D01*
X17778320Y-43770273D01*
X17670147Y-44031426D01*
X17615000Y-44308665D01*
X17615000Y-44591335D01*
X17670147Y-44868574D01*
X17778320Y-45129727D01*
X17935363Y-45364759D01*
X18135241Y-45564637D01*
X18367759Y-45720000D01*
X18135241Y-45875363D01*
X17935363Y-46075241D01*
X17778320Y-46310273D01*
X17670147Y-46571426D01*
X17615000Y-46848665D01*
X17615000Y-47131335D01*
X17670147Y-47408574D01*
X17778320Y-47669727D01*
X17935363Y-47904759D01*
X18135241Y-48104637D01*
X18367759Y-48260000D01*
X18135241Y-48415363D01*
X17935363Y-48615241D01*
X17778320Y-48850273D01*
X17670147Y-49111426D01*
X17615000Y-49388665D01*
X17615000Y-49671335D01*
X17670147Y-49948574D01*
X17778320Y-50209727D01*
X17935363Y-50444759D01*
X18135241Y-50644637D01*
X18370273Y-50801680D01*
X18631426Y-50909853D01*
X18908665Y-50965000D01*
X19191335Y-50965000D01*
X19468574Y-50909853D01*
X19729727Y-50801680D01*
X19964759Y-50644637D01*
X20164637Y-50444759D01*
X20321680Y-50209727D01*
X20429853Y-49948574D01*
X20438783Y-49903678D01*
X20492818Y-50081808D01*
X20626068Y-50331101D01*
X20805392Y-50549608D01*
X21023899Y-50728932D01*
X21273192Y-50862182D01*
X21543691Y-50944236D01*
X21754508Y-50965000D01*
X22695492Y-50965000D01*
X22906309Y-50944236D01*
X23176808Y-50862182D01*
X23426101Y-50728932D01*
X23644608Y-50549608D01*
X23823932Y-50331101D01*
X23845901Y-50290000D01*
X25362678Y-50290000D01*
X25400000Y-50293676D01*
X25437322Y-50290000D01*
X25437333Y-50290000D01*
X25548986Y-50279003D01*
X25692247Y-50235546D01*
X25824276Y-50164974D01*
X25940001Y-50070001D01*
X25963803Y-50040998D01*
X26546002Y-49458800D01*
X26575001Y-49435001D01*
X26669974Y-49319276D01*
X26740546Y-49187247D01*
X26784003Y-49043986D01*
X26795000Y-48932333D01*
X26798677Y-48895000D01*
X26795000Y-48857667D01*
X26795000Y-41910000D01*
X28003057Y-41910000D01*
X28030764Y-42191309D01*
X28112818Y-42461808D01*
X28246068Y-42711101D01*
X28425392Y-42929608D01*
X28643899Y-43108932D01*
X28776858Y-43180000D01*
X28643899Y-43251068D01*
X28425392Y-43430392D01*
X28246068Y-43648899D01*
X28112818Y-43898192D01*
X28030764Y-44168691D01*
X28003057Y-44450000D01*
X28030764Y-44731309D01*
X28112818Y-45001808D01*
X28246068Y-45251101D01*
X28425392Y-45469608D01*
X28643899Y-45648932D01*
X28776858Y-45720000D01*
X28643899Y-45791068D01*
X28425392Y-45970392D01*
X28246068Y-46188899D01*
X28112818Y-46438192D01*
X28030764Y-46708691D01*
X28003057Y-46990000D01*
X28030764Y-47271309D01*
X28112818Y-47541808D01*
X28246068Y-47791101D01*
X28425392Y-48009608D01*
X28643899Y-48188932D01*
X28776858Y-48260000D01*
X28643899Y-48331068D01*
X28425392Y-48510392D01*
X28246068Y-48728899D01*
X28112818Y-48978192D01*
X28030764Y-49248691D01*
X28003057Y-49530000D01*
X28030764Y-49811309D01*
X28112818Y-50081808D01*
X28246068Y-50331101D01*
X28425392Y-50549608D01*
X28643899Y-50728932D01*
X28893192Y-50862182D01*
X29163691Y-50944236D01*
X29374508Y-50965000D01*
X30315492Y-50965000D01*
X30526309Y-50944236D01*
X30796808Y-50862182D01*
X31046101Y-50728932D01*
X31264608Y-50549608D01*
X31443932Y-50331101D01*
X31577182Y-50081808D01*
X31659236Y-49811309D01*
X31686943Y-49530000D01*
X31659236Y-49248691D01*
X31577182Y-48978192D01*
X31443932Y-48728899D01*
X31264608Y-48510392D01*
X31046101Y-48331068D01*
X30913142Y-48260000D01*
X31046101Y-48188932D01*
X31264608Y-48009608D01*
X31443932Y-47791101D01*
X31577182Y-47541808D01*
X31621606Y-47395361D01*
X31640147Y-47488574D01*
X31748320Y-47749727D01*
X31905363Y-47984759D01*
X32105241Y-48184637D01*
X32340273Y-48341680D01*
X32601426Y-48449853D01*
X32878665Y-48505000D01*
X33161335Y-48505000D01*
X33438574Y-48449853D01*
X33699727Y-48341680D01*
X33934759Y-48184637D01*
X34134637Y-47984759D01*
X34291680Y-47749727D01*
X34399853Y-47488574D01*
X34455000Y-47211335D01*
X34455000Y-46928665D01*
X34399853Y-46651426D01*
X34291680Y-46390273D01*
X34134637Y-46155241D01*
X33934759Y-45955363D01*
X33699727Y-45798320D01*
X33438574Y-45690147D01*
X33161335Y-45635000D01*
X32878665Y-45635000D01*
X32601426Y-45690147D01*
X32340273Y-45798320D01*
X32105241Y-45955363D01*
X31905363Y-46155241D01*
X31748320Y-46390273D01*
X31641139Y-46649032D01*
X31577182Y-46438192D01*
X31443932Y-46188899D01*
X31264608Y-45970392D01*
X31046101Y-45791068D01*
X30913142Y-45720000D01*
X31046101Y-45648932D01*
X31264608Y-45469608D01*
X31286689Y-45442702D01*
X35381903Y-45442702D01*
X35453486Y-45686671D01*
X35708996Y-45807571D01*
X35983184Y-45876300D01*
X36265512Y-45890217D01*
X36545130Y-45848787D01*
X36811292Y-45753603D01*
X36936514Y-45686671D01*
X37008097Y-45442702D01*
X36195000Y-44629605D01*
X35381903Y-45442702D01*
X31286689Y-45442702D01*
X31443932Y-45251101D01*
X31577182Y-45001808D01*
X31659236Y-44731309D01*
X31679998Y-44520512D01*
X34754783Y-44520512D01*
X34796213Y-44800130D01*
X34891397Y-45066292D01*
X34958329Y-45191514D01*
X35202298Y-45263097D01*
X36015395Y-44450000D01*
X35202298Y-43636903D01*
X34958329Y-43708486D01*
X34837429Y-43963996D01*
X34768700Y-44238184D01*
X34754783Y-44520512D01*
X31679998Y-44520512D01*
X31686943Y-44450000D01*
X31659236Y-44168691D01*
X31577182Y-43898192D01*
X31443932Y-43648899D01*
X31286690Y-43457298D01*
X35381903Y-43457298D01*
X36195000Y-44270395D01*
X37008097Y-43457298D01*
X36936514Y-43213329D01*
X36681004Y-43092429D01*
X36406816Y-43023700D01*
X36124488Y-43009783D01*
X35844870Y-43051213D01*
X35578708Y-43146397D01*
X35453486Y-43213329D01*
X35381903Y-43457298D01*
X31286690Y-43457298D01*
X31264608Y-43430392D01*
X31046101Y-43251068D01*
X30913142Y-43180000D01*
X31046101Y-43108932D01*
X31264608Y-42929608D01*
X31443932Y-42711101D01*
X31577182Y-42461808D01*
X31659236Y-42191309D01*
X31686943Y-41910000D01*
X31659236Y-41628691D01*
X31577182Y-41358192D01*
X31443932Y-41108899D01*
X31264608Y-40890392D01*
X31046101Y-40711068D01*
X30796808Y-40577818D01*
X30526309Y-40495764D01*
X30315492Y-40475000D01*
X29374508Y-40475000D01*
X29163691Y-40495764D01*
X28893192Y-40577818D01*
X28643899Y-40711068D01*
X28425392Y-40890392D01*
X28246068Y-41108899D01*
X28112818Y-41358192D01*
X28030764Y-41628691D01*
X28003057Y-41910000D01*
X26795000Y-41910000D01*
X26795000Y-31152322D01*
X26798676Y-31114999D01*
X26795000Y-31077676D01*
X26795000Y-31077667D01*
X26784003Y-30966014D01*
X26740546Y-30822753D01*
X26669974Y-30690724D01*
X26575001Y-30574999D01*
X26546004Y-30551202D01*
X25063467Y-29068665D01*
X26505000Y-29068665D01*
X26505000Y-29351335D01*
X26560147Y-29628574D01*
X26668320Y-29889727D01*
X26825363Y-30124759D01*
X27025241Y-30324637D01*
X27260273Y-30481680D01*
X27521426Y-30589853D01*
X27798665Y-30645000D01*
X28081335Y-30645000D01*
X28358574Y-30589853D01*
X28619727Y-30481680D01*
X28854759Y-30324637D01*
X29054637Y-30124759D01*
X29211680Y-29889727D01*
X29319853Y-29628574D01*
X29375000Y-29351335D01*
X29375000Y-29068665D01*
X29319853Y-28791426D01*
X29211680Y-28530273D01*
X29054637Y-28295241D01*
X28854759Y-28095363D01*
X28619727Y-27938320D01*
X28358574Y-27830147D01*
X28081335Y-27775000D01*
X27798665Y-27775000D01*
X27521426Y-27830147D01*
X27260273Y-27938320D01*
X27025241Y-28095363D01*
X26825363Y-28295241D01*
X26668320Y-28530273D01*
X26560147Y-28791426D01*
X26505000Y-29068665D01*
X25063467Y-29068665D01*
X24335000Y-28340199D01*
X24335000Y-24722325D01*
X24338676Y-24685000D01*
X24335000Y-24647675D01*
X24335000Y-22860000D01*
X26098057Y-22860000D01*
X26125764Y-23141309D01*
X26207818Y-23411808D01*
X26341068Y-23661101D01*
X26520392Y-23879608D01*
X26738899Y-24058932D01*
X26871858Y-24130000D01*
X26738899Y-24201068D01*
X26520392Y-24380392D01*
X26341068Y-24598899D01*
X26207818Y-24848192D01*
X26125764Y-25118691D01*
X26098057Y-25400000D01*
X26125764Y-25681309D01*
X26207818Y-25951808D01*
X26341068Y-26201101D01*
X26520392Y-26419608D01*
X26738899Y-26598932D01*
X26988192Y-26732182D01*
X27258691Y-26814236D01*
X27469508Y-26835000D01*
X28410492Y-26835000D01*
X28621309Y-26814236D01*
X28891808Y-26732182D01*
X29141101Y-26598932D01*
X29359608Y-26419608D01*
X29538932Y-26201101D01*
X29672182Y-25951808D01*
X29754236Y-25681309D01*
X29781943Y-25400000D01*
X29754236Y-25118691D01*
X29672182Y-24848192D01*
X29538932Y-24598899D01*
X29359608Y-24380392D01*
X29141101Y-24201068D01*
X29008142Y-24130000D01*
X29141101Y-24058932D01*
X29359608Y-23879608D01*
X29538932Y-23661101D01*
X29672182Y-23411808D01*
X29726217Y-23233678D01*
X29735147Y-23278574D01*
X29843320Y-23539727D01*
X30000363Y-23774759D01*
X30200241Y-23974637D01*
X30435273Y-24131680D01*
X30696426Y-24239853D01*
X30973665Y-24295000D01*
X31256335Y-24295000D01*
X31533574Y-24239853D01*
X31794727Y-24131680D01*
X32029759Y-23974637D01*
X32151694Y-23852702D01*
X35301903Y-23852702D01*
X35373486Y-24096671D01*
X35628996Y-24217571D01*
X35903184Y-24286300D01*
X36185512Y-24300217D01*
X36465130Y-24258787D01*
X36731292Y-24163603D01*
X36856514Y-24096671D01*
X36928097Y-23852702D01*
X36115000Y-23039605D01*
X35301903Y-23852702D01*
X32151694Y-23852702D01*
X32229637Y-23774759D01*
X32386680Y-23539727D01*
X32494853Y-23278574D01*
X32550000Y-23001335D01*
X32550000Y-22930512D01*
X34674783Y-22930512D01*
X34716213Y-23210130D01*
X34811397Y-23476292D01*
X34878329Y-23601514D01*
X35122298Y-23673097D01*
X35935395Y-22860000D01*
X35122298Y-22046903D01*
X34878329Y-22118486D01*
X34757429Y-22373996D01*
X34688700Y-22648184D01*
X34674783Y-22930512D01*
X32550000Y-22930512D01*
X32550000Y-22718665D01*
X32494853Y-22441426D01*
X32386680Y-22180273D01*
X32229637Y-21945241D01*
X32151694Y-21867298D01*
X35301903Y-21867298D01*
X36115000Y-22680395D01*
X36928097Y-21867298D01*
X36856514Y-21623329D01*
X36601004Y-21502429D01*
X36326816Y-21433700D01*
X36044488Y-21419783D01*
X35764870Y-21461213D01*
X35498708Y-21556397D01*
X35373486Y-21623329D01*
X35301903Y-21867298D01*
X32151694Y-21867298D01*
X32029759Y-21745363D01*
X31794727Y-21588320D01*
X31533574Y-21480147D01*
X31256335Y-21425000D01*
X30973665Y-21425000D01*
X30696426Y-21480147D01*
X30435273Y-21588320D01*
X30200241Y-21745363D01*
X30000363Y-21945241D01*
X29843320Y-22180273D01*
X29735147Y-22441426D01*
X29726217Y-22486322D01*
X29672182Y-22308192D01*
X29538932Y-22058899D01*
X29359608Y-21840392D01*
X29141101Y-21661068D01*
X29013259Y-21592735D01*
X29242839Y-21442601D01*
X29444500Y-21244895D01*
X29603715Y-21011646D01*
X29714367Y-20751818D01*
X29731904Y-20669039D01*
X29609915Y-20447000D01*
X28067000Y-20447000D01*
X28067000Y-20467000D01*
X27813000Y-20467000D01*
X27813000Y-20447000D01*
X26270085Y-20447000D01*
X26148096Y-20669039D01*
X26165633Y-20751818D01*
X26276285Y-21011646D01*
X26435500Y-21244895D01*
X26637161Y-21442601D01*
X26866741Y-21592735D01*
X26738899Y-21661068D01*
X26520392Y-21840392D01*
X26341068Y-22058899D01*
X26207818Y-22308192D01*
X26125764Y-22578691D01*
X26098057Y-22860000D01*
X24335000Y-22860000D01*
X24335000Y-17780000D01*
X26098057Y-17780000D01*
X26125764Y-18061309D01*
X26207818Y-18331808D01*
X26341068Y-18581101D01*
X26520392Y-18799608D01*
X26738899Y-18978932D01*
X26866741Y-19047265D01*
X26637161Y-19197399D01*
X26435500Y-19395105D01*
X26276285Y-19628354D01*
X26165633Y-19888182D01*
X26148096Y-19970961D01*
X26270085Y-20193000D01*
X27813000Y-20193000D01*
X27813000Y-20173000D01*
X28067000Y-20173000D01*
X28067000Y-20193000D01*
X29609915Y-20193000D01*
X29731904Y-19970961D01*
X29714367Y-19888182D01*
X29603715Y-19628354D01*
X29444500Y-19395105D01*
X29242839Y-19197399D01*
X29013259Y-19047265D01*
X29141101Y-18978932D01*
X29359608Y-18799608D01*
X29538932Y-18581101D01*
X29672182Y-18331808D01*
X29754236Y-18061309D01*
X29781943Y-17780000D01*
X29754236Y-17498691D01*
X29672182Y-17228192D01*
X29538932Y-16978899D01*
X29359608Y-16760392D01*
X29141101Y-16581068D01*
X28891808Y-16447818D01*
X28621309Y-16365764D01*
X28410492Y-16345000D01*
X27469508Y-16345000D01*
X27258691Y-16365764D01*
X26988192Y-16447818D01*
X26738899Y-16581068D01*
X26520392Y-16760392D01*
X26341068Y-16978899D01*
X26207818Y-17228192D01*
X26125764Y-17498691D01*
X26098057Y-17780000D01*
X24335000Y-17780000D01*
X24335000Y-15188043D01*
X24489759Y-15084637D01*
X24689637Y-14884759D01*
X24846680Y-14649727D01*
X24954853Y-14388574D01*
X25010000Y-14111335D01*
X25010000Y-13828665D01*
X27140000Y-13828665D01*
X27140000Y-14111335D01*
X27195147Y-14388574D01*
X27303320Y-14649727D01*
X27460363Y-14884759D01*
X27660241Y-15084637D01*
X27895273Y-15241680D01*
X28156426Y-15349853D01*
X28433665Y-15405000D01*
X28716335Y-15405000D01*
X28993574Y-15349853D01*
X29254727Y-15241680D01*
X29489759Y-15084637D01*
X29689637Y-14884759D01*
X29846680Y-14649727D01*
X29954853Y-14388574D01*
X30010000Y-14111335D01*
X30010000Y-13828665D01*
X29954853Y-13551426D01*
X29846680Y-13290273D01*
X29782129Y-13193665D01*
X31585000Y-13193665D01*
X31585000Y-13476335D01*
X31640147Y-13753574D01*
X31748320Y-14014727D01*
X31905363Y-14249759D01*
X32105241Y-14449637D01*
X32340273Y-14606680D01*
X32601426Y-14714853D01*
X32878665Y-14770000D01*
X33161335Y-14770000D01*
X33438574Y-14714853D01*
X33699727Y-14606680D01*
X33934759Y-14449637D01*
X34134637Y-14249759D01*
X34291680Y-14014727D01*
X34399853Y-13753574D01*
X34455000Y-13476335D01*
X34455000Y-13193665D01*
X34399853Y-12916426D01*
X34291680Y-12655273D01*
X34134637Y-12420241D01*
X33934759Y-12220363D01*
X33699727Y-12063320D01*
X33438574Y-11955147D01*
X33161335Y-11900000D01*
X32878665Y-11900000D01*
X32601426Y-11955147D01*
X32340273Y-12063320D01*
X32105241Y-12220363D01*
X31905363Y-12420241D01*
X31748320Y-12655273D01*
X31640147Y-12916426D01*
X31585000Y-13193665D01*
X29782129Y-13193665D01*
X29689637Y-13055241D01*
X29489759Y-12855363D01*
X29254727Y-12698320D01*
X28993574Y-12590147D01*
X28716335Y-12535000D01*
X28433665Y-12535000D01*
X28156426Y-12590147D01*
X27895273Y-12698320D01*
X27660241Y-12855363D01*
X27460363Y-13055241D01*
X27303320Y-13290273D01*
X27195147Y-13551426D01*
X27140000Y-13828665D01*
X25010000Y-13828665D01*
X24954853Y-13551426D01*
X24846680Y-13290273D01*
X24689637Y-13055241D01*
X24489759Y-12855363D01*
X24254727Y-12698320D01*
X23993574Y-12590147D01*
X23716335Y-12535000D01*
X23433665Y-12535000D01*
X23156426Y-12590147D01*
X22895273Y-12698320D01*
X22660241Y-12855363D01*
X22460363Y-13055241D01*
X22303320Y-13290273D01*
X22195147Y-13551426D01*
X22140000Y-13828665D01*
X22140000Y-14111335D01*
X22195147Y-14388574D01*
X22303320Y-14649727D01*
X22460363Y-14884759D01*
X22660241Y-15084637D01*
X22815000Y-15188043D01*
X22815001Y-24370197D01*
X22545199Y-24640000D01*
X21940901Y-24640000D01*
X21918932Y-24598899D01*
X21739608Y-24380392D01*
X21521101Y-24201068D01*
X21388142Y-24130000D01*
X21521101Y-24058932D01*
X21739608Y-23879608D01*
X21918932Y-23661101D01*
X22052182Y-23411808D01*
X22134236Y-23141309D01*
X22161943Y-22860000D01*
X22134236Y-22578691D01*
X22052182Y-22308192D01*
X21918932Y-22058899D01*
X21739608Y-21840392D01*
X21521101Y-21661068D01*
X21388142Y-21590000D01*
X21521101Y-21518932D01*
X21739608Y-21339608D01*
X21918932Y-21121101D01*
X22052182Y-20871808D01*
X22134236Y-20601309D01*
X22161943Y-20320000D01*
X22134236Y-20038691D01*
X22052182Y-19768192D01*
X21918932Y-19518899D01*
X21739608Y-19300392D01*
X21626518Y-19207581D01*
X21644482Y-19205812D01*
X21764180Y-19169502D01*
X21874494Y-19110537D01*
X21971185Y-19031185D01*
X22050537Y-18934494D01*
X22109502Y-18824180D01*
X22145812Y-18704482D01*
X22158072Y-18580000D01*
X22158072Y-16980000D01*
X22145812Y-16855518D01*
X22109502Y-16735820D01*
X22050537Y-16625506D01*
X21971185Y-16528815D01*
X21874494Y-16449463D01*
X21764180Y-16390498D01*
X21644482Y-16354188D01*
X21520000Y-16341928D01*
X19120000Y-16341928D01*
X18995518Y-16354188D01*
X18875820Y-16390498D01*
X18765506Y-16449463D01*
X18668815Y-16528815D01*
X18589463Y-16625506D01*
X18530498Y-16735820D01*
X18494188Y-16855518D01*
X18481928Y-16980000D01*
X18481928Y-18580000D01*
X18494188Y-18704482D01*
X18530498Y-18824180D01*
X18589463Y-18934494D01*
X18668815Y-19031185D01*
X18765506Y-19110537D01*
X18875820Y-19169502D01*
X18995518Y-19205812D01*
X19013482Y-19207581D01*
X18900392Y-19300392D01*
X18721068Y-19518899D01*
X18587818Y-19768192D01*
X18533783Y-19946322D01*
X18524853Y-19901426D01*
X18416680Y-19640273D01*
X18259637Y-19405241D01*
X18059759Y-19205363D01*
X17824727Y-19048320D01*
X17563574Y-18940147D01*
X17286335Y-18885000D01*
X17003665Y-18885000D01*
X16726426Y-18940147D01*
X16465273Y-19048320D01*
X16230241Y-19205363D01*
X16030363Y-19405241D01*
X15873320Y-19640273D01*
X15765147Y-19901426D01*
X15710000Y-20178665D01*
X10194241Y-20178665D01*
X10148932Y-20093899D01*
X9969608Y-19875392D01*
X9751101Y-19696068D01*
X9533953Y-19580000D01*
X10163123Y-19580000D01*
X10351904Y-19561407D01*
X10594127Y-19487929D01*
X10817362Y-19368608D01*
X11013028Y-19208028D01*
X11173608Y-19012362D01*
X11292929Y-18789127D01*
X11366407Y-18546904D01*
X11391217Y-18295000D01*
X11366407Y-18043096D01*
X11292929Y-17800873D01*
X11173608Y-17577638D01*
X11013028Y-17381972D01*
X10817362Y-17221392D01*
X10594127Y-17102071D01*
X10351904Y-17028593D01*
X10163123Y-17010000D01*
X9036877Y-17010000D01*
X8848096Y-17028593D01*
X8605873Y-17102071D01*
X8382638Y-17221392D01*
X8186972Y-17381972D01*
X8026392Y-17577638D01*
X7907071Y-17800873D01*
X7833593Y-18043096D01*
X7808783Y-18295000D01*
X7833593Y-18546904D01*
X7907071Y-18789127D01*
X8026392Y-19012362D01*
X8186972Y-19208028D01*
X8382638Y-19368608D01*
X8553621Y-19460000D01*
X8179508Y-19460000D01*
X7968691Y-19480764D01*
X7698192Y-19562818D01*
X7448899Y-19696068D01*
X7230392Y-19875392D01*
X7051068Y-20093899D01*
X6917818Y-20343192D01*
X6835764Y-20613691D01*
X6808057Y-20895000D01*
X3935000Y-20895000D01*
X3935000Y-14919801D01*
X5166575Y-13688227D01*
X5336877Y-13705000D01*
X6463123Y-13705000D01*
X6651904Y-13686407D01*
X6894127Y-13612929D01*
X7117362Y-13493608D01*
X7313028Y-13333028D01*
X7473608Y-13137362D01*
X7592929Y-12914127D01*
X7666407Y-12671904D01*
X7691217Y-12420000D01*
X7666407Y-12168096D01*
X7592929Y-11925873D01*
X7550771Y-11847000D01*
X11565000Y-11847000D01*
X11565000Y-12197000D01*
X11617350Y-12474514D01*
X11722834Y-12736483D01*
X11877399Y-12972839D01*
X12075105Y-13174500D01*
X12308354Y-13333715D01*
X12568182Y-13444367D01*
X12650961Y-13461904D01*
X12873000Y-13339915D01*
X12873000Y-11847000D01*
X13127000Y-11847000D01*
X13127000Y-13339915D01*
X13349039Y-13461904D01*
X13431818Y-13444367D01*
X13691646Y-13333715D01*
X13924895Y-13174500D01*
X14122601Y-12972839D01*
X14277166Y-12736483D01*
X14382650Y-12474514D01*
X14435000Y-12197000D01*
X14435000Y-11847000D01*
X13127000Y-11847000D01*
X12873000Y-11847000D01*
X11565000Y-11847000D01*
X7550771Y-11847000D01*
X7473608Y-11702638D01*
X7313028Y-11506972D01*
X7117362Y-11346392D01*
X6923929Y-11243000D01*
X11565000Y-11243000D01*
X11565000Y-11593000D01*
X12873000Y-11593000D01*
X12873000Y-10100085D01*
X13127000Y-10100085D01*
X13127000Y-11593000D01*
X14435000Y-11593000D01*
X14435000Y-11243000D01*
X14382650Y-10965486D01*
X14277166Y-10703517D01*
X14122601Y-10467161D01*
X13924895Y-10265500D01*
X13691646Y-10106285D01*
X13431818Y-9995633D01*
X13349039Y-9978096D01*
X13127000Y-10100085D01*
X12873000Y-10100085D01*
X12650961Y-9978096D01*
X12568182Y-9995633D01*
X12308354Y-10106285D01*
X12075105Y-10265500D01*
X11877399Y-10467161D01*
X11722834Y-10703517D01*
X11617350Y-10965486D01*
X11565000Y-11243000D01*
X6923929Y-11243000D01*
X6894127Y-11227071D01*
X6651904Y-11153593D01*
X6463123Y-11135000D01*
X5336877Y-11135000D01*
X5148096Y-11153593D01*
X4905873Y-11227071D01*
X4682638Y-11346392D01*
X4486972Y-11506972D01*
X4326392Y-11702638D01*
X4207071Y-11925873D01*
X4133593Y-12168096D01*
X4108783Y-12420000D01*
X4124600Y-12580598D01*
X2664003Y-14041196D01*
X2634999Y-14064999D01*
X2579871Y-14132174D01*
X2540026Y-14180724D01*
X2503126Y-14249759D01*
X2469454Y-14312754D01*
X2425997Y-14456015D01*
X2415000Y-14567668D01*
X2415000Y-14567678D01*
X2411324Y-14605000D01*
X2415000Y-14642322D01*
X2415000Y-21897226D01*
X2391646Y-21881285D01*
X2131818Y-21770633D01*
X2049039Y-21753096D01*
X1827000Y-21875085D01*
X1573000Y-21875085D01*
X1350961Y-21753096D01*
X1268182Y-21770633D01*
X1008354Y-21881285D01*
X775105Y-22040500D01*
X660000Y-22157908D01*
X660000Y-8957092D01*
X775105Y-9074500D01*
X1008354Y-9233715D01*
X1268182Y-9344367D01*
X1350961Y-9361904D01*
X1573000Y-9239915D01*
X1573000Y-7747000D01*
X1827000Y-7747000D01*
X1827000Y-9239915D01*
X2049039Y-9361904D01*
X2131818Y-9344367D01*
X2391646Y-9233715D01*
X2624895Y-9074500D01*
X2822601Y-8872839D01*
X2977166Y-8636483D01*
X3082650Y-8374514D01*
X3135000Y-8097000D01*
X3135000Y-7747000D01*
X1827000Y-7747000D01*
X1573000Y-7747000D01*
X1553000Y-7747000D01*
X1553000Y-7493000D01*
X1573000Y-7493000D01*
X1573000Y-6000085D01*
X1827000Y-6000085D01*
X1827000Y-7493000D01*
X3135000Y-7493000D01*
X3135000Y-7143000D01*
X3082650Y-6865486D01*
X2977166Y-6603517D01*
X2822601Y-6367161D01*
X2624895Y-6165500D01*
X2391646Y-6006285D01*
X2131818Y-5895633D01*
X2049039Y-5878096D01*
X1827000Y-6000085D01*
X1573000Y-6000085D01*
X1350961Y-5878096D01*
X1268182Y-5895633D01*
X1008354Y-6006285D01*
X775105Y-6165500D01*
X660000Y-6282908D01*
X660000Y-5020000D01*
X6808057Y-5020000D01*
X6835764Y-5301309D01*
X6917818Y-5571808D01*
X7051068Y-5821101D01*
X7230392Y-6039608D01*
X7448899Y-6218932D01*
X7698192Y-6352182D01*
X7968691Y-6434236D01*
X8179508Y-6455000D01*
X9020492Y-6455000D01*
X9231309Y-6434236D01*
X9501808Y-6352182D01*
X9751101Y-6218932D01*
X9969608Y-6039608D01*
X10148932Y-5821101D01*
X10281189Y-5573665D01*
X14440000Y-5573665D01*
X14440000Y-5856335D01*
X14495147Y-6133574D01*
X14603320Y-6394727D01*
X14760363Y-6629759D01*
X14960241Y-6829637D01*
X15192759Y-6985000D01*
X14960241Y-7140363D01*
X14760363Y-7340241D01*
X14603320Y-7575273D01*
X14495147Y-7836426D01*
X14440000Y-8113665D01*
X14440000Y-8396335D01*
X14495147Y-8673574D01*
X14603320Y-8934727D01*
X14760363Y-9169759D01*
X14960241Y-9369637D01*
X15192759Y-9525000D01*
X14960241Y-9680363D01*
X14760363Y-9880241D01*
X14603320Y-10115273D01*
X14495147Y-10376426D01*
X14440000Y-10653665D01*
X14440000Y-10936335D01*
X14495147Y-11213574D01*
X14603320Y-11474727D01*
X14760363Y-11709759D01*
X14960241Y-11909637D01*
X15195273Y-12066680D01*
X15456426Y-12174853D01*
X15733665Y-12230000D01*
X16016335Y-12230000D01*
X16293574Y-12174853D01*
X16554727Y-12066680D01*
X16789759Y-11909637D01*
X16989637Y-11709759D01*
X17146680Y-11474727D01*
X17254853Y-11213574D01*
X17310000Y-10936335D01*
X17310000Y-10653665D01*
X17254853Y-10376426D01*
X17146680Y-10115273D01*
X16989637Y-9880241D01*
X16789759Y-9680363D01*
X16557241Y-9525000D01*
X16789759Y-9369637D01*
X16989637Y-9169759D01*
X17146680Y-8934727D01*
X17254853Y-8673574D01*
X17310000Y-8396335D01*
X17310000Y-8113665D01*
X17254853Y-7836426D01*
X17146680Y-7575273D01*
X16989637Y-7340241D01*
X16789759Y-7140363D01*
X16557241Y-6985000D01*
X16789759Y-6829637D01*
X16989637Y-6629759D01*
X17146680Y-6394727D01*
X17254853Y-6133574D01*
X17310000Y-5856335D01*
X17310000Y-5573665D01*
X17615000Y-5573665D01*
X17615000Y-5856335D01*
X17670147Y-6133574D01*
X17778320Y-6394727D01*
X17935363Y-6629759D01*
X18135241Y-6829637D01*
X18367759Y-6985000D01*
X18135241Y-7140363D01*
X17935363Y-7340241D01*
X17778320Y-7575273D01*
X17670147Y-7836426D01*
X17615000Y-8113665D01*
X17615000Y-8396335D01*
X17670147Y-8673574D01*
X17778320Y-8934727D01*
X17935363Y-9169759D01*
X18135241Y-9369637D01*
X18367759Y-9525000D01*
X18135241Y-9680363D01*
X17935363Y-9880241D01*
X17778320Y-10115273D01*
X17670147Y-10376426D01*
X17615000Y-10653665D01*
X17615000Y-10936335D01*
X17670147Y-11213574D01*
X17778320Y-11474727D01*
X17935363Y-11709759D01*
X18135241Y-11909637D01*
X18370273Y-12066680D01*
X18631426Y-12174853D01*
X18908665Y-12230000D01*
X19191335Y-12230000D01*
X19468574Y-12174853D01*
X19729727Y-12066680D01*
X19964759Y-11909637D01*
X20164637Y-11709759D01*
X20321680Y-11474727D01*
X20429853Y-11213574D01*
X20438783Y-11168678D01*
X20492818Y-11346808D01*
X20626068Y-11596101D01*
X20805392Y-11814608D01*
X21023899Y-11993932D01*
X21273192Y-12127182D01*
X21543691Y-12209236D01*
X21754508Y-12230000D01*
X22695492Y-12230000D01*
X22906309Y-12209236D01*
X23176808Y-12127182D01*
X23426101Y-11993932D01*
X23644608Y-11814608D01*
X23823932Y-11596101D01*
X23957182Y-11346808D01*
X24039236Y-11076309D01*
X24066943Y-10795000D01*
X24039236Y-10513691D01*
X23957182Y-10243192D01*
X23823932Y-9993899D01*
X23644608Y-9775392D01*
X23426101Y-9596068D01*
X23293142Y-9525000D01*
X23426101Y-9453932D01*
X23644608Y-9274608D01*
X23823932Y-9056101D01*
X23957182Y-8806808D01*
X24039236Y-8536309D01*
X24066943Y-8255000D01*
X24039236Y-7973691D01*
X23957182Y-7703192D01*
X23823932Y-7453899D01*
X23644608Y-7235392D01*
X23426101Y-7056068D01*
X23293142Y-6985000D01*
X23426101Y-6913932D01*
X23644608Y-6734608D01*
X23823932Y-6516101D01*
X23957182Y-6266808D01*
X24039236Y-5996309D01*
X24066943Y-5715000D01*
X24039236Y-5433691D01*
X23957182Y-5163192D01*
X23823932Y-4913899D01*
X23644608Y-4695392D01*
X23531518Y-4602581D01*
X23549482Y-4600812D01*
X23669180Y-4564502D01*
X23779494Y-4505537D01*
X23876185Y-4426185D01*
X23955537Y-4329494D01*
X24014502Y-4219180D01*
X24050812Y-4099482D01*
X24063072Y-3975000D01*
X24063072Y-3175000D01*
X28003057Y-3175000D01*
X28030764Y-3456309D01*
X28112818Y-3726808D01*
X28246068Y-3976101D01*
X28425392Y-4194608D01*
X28643899Y-4373932D01*
X28776858Y-4445000D01*
X28643899Y-4516068D01*
X28425392Y-4695392D01*
X28246068Y-4913899D01*
X28112818Y-5163192D01*
X28030764Y-5433691D01*
X28003057Y-5715000D01*
X28030764Y-5996309D01*
X28112818Y-6266808D01*
X28246068Y-6516101D01*
X28425392Y-6734608D01*
X28643899Y-6913932D01*
X28776858Y-6985000D01*
X28643899Y-7056068D01*
X28425392Y-7235392D01*
X28246068Y-7453899D01*
X28112818Y-7703192D01*
X28030764Y-7973691D01*
X28003057Y-8255000D01*
X28030764Y-8536309D01*
X28112818Y-8806808D01*
X28246068Y-9056101D01*
X28425392Y-9274608D01*
X28643899Y-9453932D01*
X28776858Y-9525000D01*
X28643899Y-9596068D01*
X28425392Y-9775392D01*
X28246068Y-9993899D01*
X28112818Y-10243192D01*
X28030764Y-10513691D01*
X28003057Y-10795000D01*
X28030764Y-11076309D01*
X28112818Y-11346808D01*
X28246068Y-11596101D01*
X28425392Y-11814608D01*
X28643899Y-11993932D01*
X28893192Y-12127182D01*
X29163691Y-12209236D01*
X29374508Y-12230000D01*
X30315492Y-12230000D01*
X30526309Y-12209236D01*
X30796808Y-12127182D01*
X31046101Y-11993932D01*
X31264608Y-11814608D01*
X31443932Y-11596101D01*
X31577182Y-11346808D01*
X31659236Y-11076309D01*
X31686943Y-10795000D01*
X31659236Y-10513691D01*
X31577182Y-10243192D01*
X31443932Y-9993899D01*
X31264608Y-9775392D01*
X31046101Y-9596068D01*
X30913142Y-9525000D01*
X31046101Y-9453932D01*
X31264608Y-9274608D01*
X31443932Y-9056101D01*
X31577182Y-8806808D01*
X31621606Y-8660361D01*
X31640147Y-8753574D01*
X31748320Y-9014727D01*
X31905363Y-9249759D01*
X32105241Y-9449637D01*
X32340273Y-9606680D01*
X32601426Y-9714853D01*
X32878665Y-9770000D01*
X33161335Y-9770000D01*
X33438574Y-9714853D01*
X33699727Y-9606680D01*
X33934759Y-9449637D01*
X34134637Y-9249759D01*
X34291680Y-9014727D01*
X34399853Y-8753574D01*
X34455000Y-8476335D01*
X34455000Y-8193665D01*
X34399853Y-7916426D01*
X34291680Y-7655273D01*
X34134637Y-7420241D01*
X33934759Y-7220363D01*
X33699727Y-7063320D01*
X33438574Y-6955147D01*
X33161335Y-6900000D01*
X32878665Y-6900000D01*
X32601426Y-6955147D01*
X32340273Y-7063320D01*
X32105241Y-7220363D01*
X31905363Y-7420241D01*
X31748320Y-7655273D01*
X31641139Y-7914032D01*
X31577182Y-7703192D01*
X31443932Y-7453899D01*
X31264608Y-7235392D01*
X31046101Y-7056068D01*
X30913142Y-6985000D01*
X31046101Y-6913932D01*
X31264608Y-6734608D01*
X31286689Y-6707702D01*
X35381903Y-6707702D01*
X35453486Y-6951671D01*
X35708996Y-7072571D01*
X35983184Y-7141300D01*
X36265512Y-7155217D01*
X36545130Y-7113787D01*
X36811292Y-7018603D01*
X36936514Y-6951671D01*
X37008097Y-6707702D01*
X36195000Y-5894605D01*
X35381903Y-6707702D01*
X31286689Y-6707702D01*
X31443932Y-6516101D01*
X31577182Y-6266808D01*
X31659236Y-5996309D01*
X31679998Y-5785512D01*
X34754783Y-5785512D01*
X34796213Y-6065130D01*
X34891397Y-6331292D01*
X34958329Y-6456514D01*
X35202298Y-6528097D01*
X36015395Y-5715000D01*
X35202298Y-4901903D01*
X34958329Y-4973486D01*
X34837429Y-5228996D01*
X34768700Y-5503184D01*
X34754783Y-5785512D01*
X31679998Y-5785512D01*
X31686943Y-5715000D01*
X31659236Y-5433691D01*
X31577182Y-5163192D01*
X31443932Y-4913899D01*
X31286690Y-4722298D01*
X35381903Y-4722298D01*
X36195000Y-5535395D01*
X37008097Y-4722298D01*
X36936514Y-4478329D01*
X36681004Y-4357429D01*
X36406816Y-4288700D01*
X36124488Y-4274783D01*
X35844870Y-4316213D01*
X35578708Y-4411397D01*
X35453486Y-4478329D01*
X35381903Y-4722298D01*
X31286690Y-4722298D01*
X31264608Y-4695392D01*
X31046101Y-4516068D01*
X30913142Y-4445000D01*
X31046101Y-4373932D01*
X31264608Y-4194608D01*
X31443932Y-3976101D01*
X31577182Y-3726808D01*
X31659236Y-3456309D01*
X31686943Y-3175000D01*
X31659236Y-2893691D01*
X31577182Y-2623192D01*
X31443932Y-2373899D01*
X31264608Y-2155392D01*
X31046101Y-1976068D01*
X30796808Y-1842818D01*
X30526309Y-1760764D01*
X30315492Y-1740000D01*
X29374508Y-1740000D01*
X29163691Y-1760764D01*
X28893192Y-1842818D01*
X28643899Y-1976068D01*
X28425392Y-2155392D01*
X28246068Y-2373899D01*
X28112818Y-2623192D01*
X28030764Y-2893691D01*
X28003057Y-3175000D01*
X24063072Y-3175000D01*
X24063072Y-2375000D01*
X24050812Y-2250518D01*
X24014502Y-2130820D01*
X23955537Y-2020506D01*
X23876185Y-1923815D01*
X23779494Y-1844463D01*
X23669180Y-1785498D01*
X23549482Y-1749188D01*
X23425000Y-1736928D01*
X21025000Y-1736928D01*
X20900518Y-1749188D01*
X20780820Y-1785498D01*
X20670506Y-1844463D01*
X20573815Y-1923815D01*
X20494463Y-2020506D01*
X20435498Y-2130820D01*
X20399188Y-2250518D01*
X20386928Y-2375000D01*
X20386928Y-2651894D01*
X20353603Y-2558708D01*
X20286671Y-2433486D01*
X20042702Y-2361903D01*
X19229605Y-3175000D01*
X20042702Y-3988097D01*
X20286671Y-3916514D01*
X20386928Y-3704631D01*
X20386928Y-3975000D01*
X20399188Y-4099482D01*
X20435498Y-4219180D01*
X20494463Y-4329494D01*
X20573815Y-4426185D01*
X20670506Y-4505537D01*
X20780820Y-4564502D01*
X20900518Y-4600812D01*
X20918482Y-4602581D01*
X20805392Y-4695392D01*
X20626068Y-4913899D01*
X20492818Y-5163192D01*
X20438783Y-5341322D01*
X20429853Y-5296426D01*
X20321680Y-5035273D01*
X20164637Y-4800241D01*
X19964759Y-4600363D01*
X19730872Y-4444085D01*
X19791514Y-4411671D01*
X19863097Y-4167702D01*
X19050000Y-3354605D01*
X18236903Y-4167702D01*
X18308486Y-4411671D01*
X18372992Y-4442194D01*
X18370273Y-4443320D01*
X18135241Y-4600363D01*
X17935363Y-4800241D01*
X17778320Y-5035273D01*
X17670147Y-5296426D01*
X17615000Y-5573665D01*
X17310000Y-5573665D01*
X17254853Y-5296426D01*
X17146680Y-5035273D01*
X16989637Y-4800241D01*
X16789759Y-4600363D01*
X16555872Y-4444085D01*
X16616514Y-4411671D01*
X16688097Y-4167702D01*
X15875000Y-3354605D01*
X15061903Y-4167702D01*
X15133486Y-4411671D01*
X15197992Y-4442194D01*
X15195273Y-4443320D01*
X14960241Y-4600363D01*
X14760363Y-4800241D01*
X14603320Y-5035273D01*
X14495147Y-5296426D01*
X14440000Y-5573665D01*
X10281189Y-5573665D01*
X10282182Y-5571808D01*
X10364236Y-5301309D01*
X10391943Y-5020000D01*
X10364236Y-4738691D01*
X10282182Y-4468192D01*
X10148932Y-4218899D01*
X9969608Y-4000392D01*
X9751101Y-3821068D01*
X9533953Y-3705000D01*
X10163123Y-3705000D01*
X10351904Y-3686407D01*
X10594127Y-3612929D01*
X10817362Y-3493608D01*
X11013028Y-3333028D01*
X11084851Y-3245512D01*
X14434783Y-3245512D01*
X14476213Y-3525130D01*
X14571397Y-3791292D01*
X14638329Y-3916514D01*
X14882298Y-3988097D01*
X15695395Y-3175000D01*
X16054605Y-3175000D01*
X16867702Y-3988097D01*
X17111671Y-3916514D01*
X17232571Y-3661004D01*
X17301300Y-3386816D01*
X17308265Y-3245512D01*
X17609783Y-3245512D01*
X17651213Y-3525130D01*
X17746397Y-3791292D01*
X17813329Y-3916514D01*
X18057298Y-3988097D01*
X18870395Y-3175000D01*
X18057298Y-2361903D01*
X17813329Y-2433486D01*
X17692429Y-2688996D01*
X17623700Y-2963184D01*
X17609783Y-3245512D01*
X17308265Y-3245512D01*
X17315217Y-3104488D01*
X17273787Y-2824870D01*
X17178603Y-2558708D01*
X17111671Y-2433486D01*
X16867702Y-2361903D01*
X16054605Y-3175000D01*
X15695395Y-3175000D01*
X14882298Y-2361903D01*
X14638329Y-2433486D01*
X14517429Y-2688996D01*
X14448700Y-2963184D01*
X14434783Y-3245512D01*
X11084851Y-3245512D01*
X11173608Y-3137362D01*
X11292929Y-2914127D01*
X11366407Y-2671904D01*
X11391217Y-2420000D01*
X11367806Y-2182298D01*
X15061903Y-2182298D01*
X15875000Y-2995395D01*
X16688097Y-2182298D01*
X18236903Y-2182298D01*
X19050000Y-2995395D01*
X19863097Y-2182298D01*
X19791514Y-1938329D01*
X19536004Y-1817429D01*
X19261816Y-1748700D01*
X18979488Y-1734783D01*
X18699870Y-1776213D01*
X18433708Y-1871397D01*
X18308486Y-1938329D01*
X18236903Y-2182298D01*
X16688097Y-2182298D01*
X16616514Y-1938329D01*
X16361004Y-1817429D01*
X16086816Y-1748700D01*
X15804488Y-1734783D01*
X15524870Y-1776213D01*
X15258708Y-1871397D01*
X15133486Y-1938329D01*
X15061903Y-2182298D01*
X11367806Y-2182298D01*
X11366407Y-2168096D01*
X11292929Y-1925873D01*
X11173608Y-1702638D01*
X11013028Y-1506972D01*
X10817362Y-1346392D01*
X10594127Y-1227071D01*
X10351904Y-1153593D01*
X10163123Y-1135000D01*
X9036877Y-1135000D01*
X8848096Y-1153593D01*
X8605873Y-1227071D01*
X8382638Y-1346392D01*
X8186972Y-1506972D01*
X8026392Y-1702638D01*
X7907071Y-1925873D01*
X7833593Y-2168096D01*
X7808783Y-2420000D01*
X7833593Y-2671904D01*
X7907071Y-2914127D01*
X8026392Y-3137362D01*
X8186972Y-3333028D01*
X8382638Y-3493608D01*
X8553621Y-3585000D01*
X8179508Y-3585000D01*
X7968691Y-3605764D01*
X7698192Y-3687818D01*
X7448899Y-3821068D01*
X7230392Y-4000392D01*
X7051068Y-4218899D01*
X6917818Y-4468192D01*
X6835764Y-4738691D01*
X6808057Y-5020000D01*
X660000Y-5020000D01*
X660000Y-660000D01*
X37440000Y-660000D01*
X37440000Y-4989069D01*
G37*
G04 #@! TD.AperFunction*
G04 #@! TD*
M02*
