G04 #@! TF.GenerationSoftware,KiCad,Pcbnew,(5.1.9)-1*
G04 #@! TF.CreationDate,2021-04-27T02:12:15+02:00*
G04 #@! TF.ProjectId,Clock Divider Control,436c6f63-6b20-4446-9976-696465722043,rev?*
G04 #@! TF.SameCoordinates,Original*
G04 #@! TF.FileFunction,Copper,L2,Bot*
G04 #@! TF.FilePolarity,Positive*
%FSLAX46Y46*%
G04 Gerber Fmt 4.6, Leading zero omitted, Abs format (unit mm)*
G04 Created by KiCad (PCBNEW (5.1.9)-1) date 2021-04-27 02:12:15*
%MOMM*%
%LPD*%
G01*
G04 APERTURE LIST*
G04 #@! TA.AperFunction,ComponentPad*
%ADD10C,4.700000*%
G04 #@! TD*
G04 #@! TA.AperFunction,ComponentPad*
%ADD11O,1.700000X1.700000*%
G04 #@! TD*
G04 #@! TA.AperFunction,ComponentPad*
%ADD12R,1.700000X1.700000*%
G04 #@! TD*
G04 #@! TA.AperFunction,ComponentPad*
%ADD13O,1.600000X1.600000*%
G04 #@! TD*
G04 #@! TA.AperFunction,ComponentPad*
%ADD14C,1.600000*%
G04 #@! TD*
G04 #@! TA.AperFunction,ComponentPad*
%ADD15O,1.300000X2.300000*%
G04 #@! TD*
G04 #@! TA.AperFunction,ComponentPad*
%ADD16C,1.800000*%
G04 #@! TD*
G04 #@! TA.AperFunction,ComponentPad*
%ADD17R,1.800000X1.800000*%
G04 #@! TD*
G04 #@! TA.AperFunction,ComponentPad*
%ADD18R,1.600000X1.600000*%
G04 #@! TD*
G04 #@! TA.AperFunction,ViaPad*
%ADD19C,0.800000*%
G04 #@! TD*
G04 #@! TA.AperFunction,Conductor*
%ADD20C,0.250000*%
G04 #@! TD*
G04 #@! TA.AperFunction,Conductor*
%ADD21C,0.254000*%
G04 #@! TD*
G04 #@! TA.AperFunction,Conductor*
%ADD22C,0.100000*%
G04 #@! TD*
G04 APERTURE END LIST*
D10*
G04 #@! TO.P,H2,1*
G04 #@! TO.N,GND*
X34290000Y-86360000D03*
G04 #@! TD*
G04 #@! TO.P,H1,1*
G04 #@! TO.N,GND*
X34290000Y-15240000D03*
G04 #@! TD*
D11*
G04 #@! TO.P,J10,8*
G04 #@! TO.N,GND*
X8255000Y-60960000D03*
G04 #@! TO.P,J10,7*
G04 #@! TO.N,Net-(J10-Pad7)*
X8255000Y-58420000D03*
G04 #@! TO.P,J10,6*
G04 #@! TO.N,Net-(J10-Pad6)*
X8255000Y-55880000D03*
G04 #@! TO.P,J10,5*
G04 #@! TO.N,Net-(J10-Pad5)*
X8255000Y-53340000D03*
G04 #@! TO.P,J10,4*
G04 #@! TO.N,Net-(J10-Pad4)*
X8255000Y-50800000D03*
G04 #@! TO.P,J10,3*
G04 #@! TO.N,Net-(J10-Pad3)*
X8255000Y-48260000D03*
G04 #@! TO.P,J10,2*
G04 #@! TO.N,Net-(J10-Pad2)*
X8255000Y-45720000D03*
D12*
G04 #@! TO.P,J10,1*
G04 #@! TO.N,GND*
X8255000Y-43180000D03*
G04 #@! TD*
D11*
G04 #@! TO.P,J3,8*
G04 #@! TO.N,Net-(J3-Pad8)*
X3810000Y-60960000D03*
G04 #@! TO.P,J3,7*
G04 #@! TO.N,GND*
X3810000Y-58420000D03*
G04 #@! TO.P,J3,6*
X3810000Y-55880000D03*
G04 #@! TO.P,J3,5*
X3810000Y-53340000D03*
G04 #@! TO.P,J3,4*
X3810000Y-50800000D03*
G04 #@! TO.P,J3,3*
X3810000Y-48260000D03*
G04 #@! TO.P,J3,2*
X3810000Y-45720000D03*
D12*
G04 #@! TO.P,J3,1*
G04 #@! TO.N,Net-(J3-Pad1)*
X3810000Y-43180000D03*
G04 #@! TD*
D13*
G04 #@! TO.P,R29,2*
G04 #@! TO.N,Net-(D9-Pad2)*
X25400000Y-1905000D03*
D14*
G04 #@! TO.P,R29,1*
G04 #@! TO.N,Net-(J10-Pad2)*
X17780000Y-1905000D03*
G04 #@! TD*
D13*
G04 #@! TO.P,R28,2*
G04 #@! TO.N,Net-(J9-PadT)*
X25400000Y-10795000D03*
D14*
G04 #@! TO.P,R28,1*
G04 #@! TO.N,Net-(J10-Pad2)*
X17780000Y-10795000D03*
G04 #@! TD*
D15*
G04 #@! TO.P,J9,T*
G04 #@! TO.N,Net-(J9-PadT)*
X36670000Y-6350000D03*
G04 #@! TO.P,J9,TN*
G04 #@! TO.N,N/C*
X28370000Y-6350000D03*
G04 #@! TO.P,J9,S*
G04 #@! TO.N,GND*
X25270000Y-6350000D03*
G04 #@! TD*
D16*
G04 #@! TO.P,D9,2*
G04 #@! TO.N,Net-(D9-Pad2)*
X19050000Y-5080000D03*
D17*
G04 #@! TO.P,D9,1*
G04 #@! TO.N,GND*
X19050000Y-7620000D03*
G04 #@! TD*
D15*
G04 #@! TO.P,J8,T*
G04 #@! TO.N,Net-(J8-PadT)*
X36670000Y-95250000D03*
G04 #@! TO.P,J8,TN*
G04 #@! TO.N,N/C*
X28370000Y-95250000D03*
G04 #@! TO.P,J8,S*
G04 #@! TO.N,GND*
X25270000Y-95250000D03*
G04 #@! TD*
G04 #@! TO.P,J7,T*
G04 #@! TO.N,Net-(J7-PadT)*
X36670000Y-77470000D03*
G04 #@! TO.P,J7,TN*
G04 #@! TO.N,N/C*
X28370000Y-77470000D03*
G04 #@! TO.P,J7,S*
G04 #@! TO.N,GND*
X25270000Y-77470000D03*
G04 #@! TD*
G04 #@! TO.P,J6,T*
G04 #@! TO.N,Net-(J6-PadT)*
X36670000Y-59690000D03*
G04 #@! TO.P,J6,TN*
G04 #@! TO.N,N/C*
X28370000Y-59690000D03*
G04 #@! TO.P,J6,S*
G04 #@! TO.N,GND*
X25270000Y-59690000D03*
G04 #@! TD*
G04 #@! TO.P,J5,T*
G04 #@! TO.N,Net-(J5-PadT)*
X36670000Y-41910000D03*
G04 #@! TO.P,J5,TN*
G04 #@! TO.N,N/C*
X28370000Y-41910000D03*
G04 #@! TO.P,J5,S*
G04 #@! TO.N,GND*
X25270000Y-41910000D03*
G04 #@! TD*
G04 #@! TO.P,J4,T*
G04 #@! TO.N,Net-(J4-PadT)*
X36670000Y-24130000D03*
G04 #@! TO.P,J4,TN*
G04 #@! TO.N,N/C*
X28370000Y-24130000D03*
G04 #@! TO.P,J4,S*
G04 #@! TO.N,GND*
X25270000Y-24130000D03*
G04 #@! TD*
G04 #@! TO.P,J2,T*
G04 #@! TO.N,Net-(D2-Pad2)*
X2065000Y-95250000D03*
G04 #@! TO.P,J2,TN*
G04 #@! TO.N,N/C*
X10365000Y-95250000D03*
G04 #@! TO.P,J2,S*
G04 #@! TO.N,GND*
X13465000Y-95250000D03*
G04 #@! TD*
G04 #@! TO.P,J1,T*
G04 #@! TO.N,Net-(D1-Pad2)*
X2065000Y-6350000D03*
G04 #@! TO.P,J1,TN*
G04 #@! TO.N,N/C*
X10365000Y-6350000D03*
G04 #@! TO.P,J1,S*
G04 #@! TO.N,GND*
X13465000Y-6350000D03*
G04 #@! TD*
D16*
G04 #@! TO.P,D8,2*
G04 #@! TO.N,Net-(D8-Pad2)*
X19050000Y-93980000D03*
D17*
G04 #@! TO.P,D8,1*
G04 #@! TO.N,GND*
X19050000Y-96520000D03*
G04 #@! TD*
D16*
G04 #@! TO.P,D7,2*
G04 #@! TO.N,Net-(D7-Pad2)*
X19050000Y-76200000D03*
D17*
G04 #@! TO.P,D7,1*
G04 #@! TO.N,GND*
X19050000Y-78740000D03*
G04 #@! TD*
D16*
G04 #@! TO.P,D6,2*
G04 #@! TO.N,Net-(D6-Pad2)*
X19050000Y-58420000D03*
D17*
G04 #@! TO.P,D6,1*
G04 #@! TO.N,GND*
X19050000Y-60960000D03*
G04 #@! TD*
D16*
G04 #@! TO.P,D5,2*
G04 #@! TO.N,Net-(D5-Pad2)*
X19050000Y-40640000D03*
D17*
G04 #@! TO.P,D5,1*
G04 #@! TO.N,GND*
X19050000Y-43180000D03*
G04 #@! TD*
D16*
G04 #@! TO.P,D4,2*
G04 #@! TO.N,Net-(D4-Pad2)*
X19050000Y-22860000D03*
D17*
G04 #@! TO.P,D4,1*
G04 #@! TO.N,GND*
X19050000Y-25400000D03*
G04 #@! TD*
D13*
G04 #@! TO.P,R26,2*
G04 #@! TO.N,Net-(D8-Pad2)*
X25400000Y-90805000D03*
D14*
G04 #@! TO.P,R26,1*
G04 #@! TO.N,Net-(J10-Pad7)*
X17780000Y-90805000D03*
G04 #@! TD*
D13*
G04 #@! TO.P,R25,2*
G04 #@! TO.N,Net-(J8-PadT)*
X25400000Y-99695000D03*
D14*
G04 #@! TO.P,R25,1*
G04 #@! TO.N,Net-(J10-Pad7)*
X17780000Y-99695000D03*
G04 #@! TD*
D13*
G04 #@! TO.P,R24,2*
G04 #@! TO.N,Net-(D7-Pad2)*
X25400000Y-73025000D03*
D14*
G04 #@! TO.P,R24,1*
G04 #@! TO.N,Net-(J10-Pad6)*
X17780000Y-73025000D03*
G04 #@! TD*
D13*
G04 #@! TO.P,R23,2*
G04 #@! TO.N,Net-(J7-PadT)*
X25400000Y-81915000D03*
D14*
G04 #@! TO.P,R23,1*
G04 #@! TO.N,Net-(J10-Pad6)*
X17780000Y-81915000D03*
G04 #@! TD*
D13*
G04 #@! TO.P,R22,2*
G04 #@! TO.N,Net-(D6-Pad2)*
X25400000Y-55245000D03*
D14*
G04 #@! TO.P,R22,1*
G04 #@! TO.N,Net-(J10-Pad5)*
X17780000Y-55245000D03*
G04 #@! TD*
D13*
G04 #@! TO.P,R21,2*
G04 #@! TO.N,Net-(J6-PadT)*
X25400000Y-64135000D03*
D14*
G04 #@! TO.P,R21,1*
G04 #@! TO.N,Net-(J10-Pad5)*
X17780000Y-64135000D03*
G04 #@! TD*
D13*
G04 #@! TO.P,R20,2*
G04 #@! TO.N,Net-(D5-Pad2)*
X25400000Y-37465000D03*
D14*
G04 #@! TO.P,R20,1*
G04 #@! TO.N,Net-(J10-Pad4)*
X17780000Y-37465000D03*
G04 #@! TD*
D13*
G04 #@! TO.P,R19,2*
G04 #@! TO.N,Net-(J5-PadT)*
X25400000Y-46355000D03*
D14*
G04 #@! TO.P,R19,1*
G04 #@! TO.N,Net-(J10-Pad4)*
X17780000Y-46355000D03*
G04 #@! TD*
D13*
G04 #@! TO.P,R18,2*
G04 #@! TO.N,Net-(D4-Pad2)*
X25400000Y-19685000D03*
D14*
G04 #@! TO.P,R18,1*
G04 #@! TO.N,Net-(J10-Pad3)*
X17780000Y-19685000D03*
G04 #@! TD*
D13*
G04 #@! TO.P,R17,2*
G04 #@! TO.N,Net-(J4-PadT)*
X25400000Y-28575000D03*
D14*
G04 #@! TO.P,R17,1*
G04 #@! TO.N,Net-(J10-Pad3)*
X17780000Y-28575000D03*
G04 #@! TD*
D13*
G04 #@! TO.P,R4,2*
G04 #@! TO.N,Net-(D2-Pad1)*
X3810000Y-78105000D03*
D14*
G04 #@! TO.P,R4,1*
G04 #@! TO.N,Net-(J3-Pad8)*
X3810000Y-70485000D03*
G04 #@! TD*
D13*
G04 #@! TO.P,R3,2*
G04 #@! TO.N,Net-(D1-Pad1)*
X3810000Y-23495000D03*
D14*
G04 #@! TO.P,R3,1*
G04 #@! TO.N,Net-(J3-Pad1)*
X3810000Y-31115000D03*
G04 #@! TD*
D13*
G04 #@! TO.P,D2,2*
G04 #@! TO.N,Net-(D2-Pad2)*
X3810000Y-88265000D03*
D18*
G04 #@! TO.P,D2,1*
G04 #@! TO.N,Net-(D2-Pad1)*
X3810000Y-80645000D03*
G04 #@! TD*
D13*
G04 #@! TO.P,D1,2*
G04 #@! TO.N,Net-(D1-Pad2)*
X3810000Y-13335000D03*
D18*
G04 #@! TO.P,D1,1*
G04 #@! TO.N,Net-(D1-Pad1)*
X3810000Y-20955000D03*
G04 #@! TD*
D19*
G04 #@! TO.N,GND*
X36830000Y-100330000D03*
G04 #@! TO.N,Net-(J10-Pad7)*
X10795000Y-58420000D03*
X10795000Y-90805000D03*
G04 #@! TO.N,Net-(J10-Pad6)*
X12065000Y-55880000D03*
X12065000Y-73025000D03*
G04 #@! TO.N,Net-(J10-Pad4)*
X13335000Y-50800000D03*
X13335000Y-46355000D03*
G04 #@! TO.N,Net-(J10-Pad3)*
X12065000Y-48260000D03*
X12065000Y-28575000D03*
G04 #@! TO.N,Net-(J10-Pad2)*
X10795000Y-45720000D03*
X10795000Y-10795000D03*
G04 #@! TD*
D20*
G04 #@! TO.N,Net-(D4-Pad2)*
X19050000Y-22860000D02*
X22225000Y-19685000D01*
X22225000Y-19685000D02*
X25400000Y-19685000D01*
G04 #@! TO.N,Net-(D5-Pad2)*
X19050000Y-40640000D02*
X22225000Y-37465000D01*
X22225000Y-37465000D02*
X25400000Y-37465000D01*
G04 #@! TO.N,Net-(D6-Pad2)*
X19050000Y-58420000D02*
X22225000Y-55245000D01*
X22225000Y-55245000D02*
X25400000Y-55245000D01*
G04 #@! TO.N,Net-(D7-Pad2)*
X19050000Y-76200000D02*
X22225000Y-73025000D01*
X22225000Y-73025000D02*
X25400000Y-73025000D01*
G04 #@! TO.N,Net-(D8-Pad2)*
X19050000Y-93980000D02*
X22225000Y-90805000D01*
X22225000Y-90805000D02*
X25400000Y-90805000D01*
G04 #@! TO.N,Net-(J4-PadT)*
X25400000Y-28575000D02*
X35560000Y-28575000D01*
X36670000Y-24130000D02*
X36670000Y-27465000D01*
X36670000Y-27465000D02*
X35560000Y-28575000D01*
G04 #@! TO.N,Net-(J5-PadT)*
X25400000Y-46355000D02*
X35560000Y-46355000D01*
X36670000Y-45245000D02*
X35560000Y-46355000D01*
X36670000Y-41910000D02*
X36670000Y-45245000D01*
G04 #@! TO.N,Net-(J6-PadT)*
X25400000Y-64135000D02*
X35560000Y-64135000D01*
X36670000Y-63025000D02*
X35560000Y-64135000D01*
X36670000Y-59690000D02*
X36670000Y-63025000D01*
G04 #@! TO.N,Net-(J7-PadT)*
X25400000Y-81915000D02*
X35560000Y-81915000D01*
X36670000Y-77470000D02*
X36670000Y-80805000D01*
X36670000Y-80805000D02*
X35560000Y-81915000D01*
G04 #@! TO.N,Net-(J8-PadT)*
X25400000Y-99695000D02*
X35560000Y-99695000D01*
X36670000Y-98585000D02*
X35560000Y-99695000D01*
X36670000Y-95250000D02*
X36670000Y-98585000D01*
G04 #@! TO.N,Net-(D9-Pad2)*
X19050000Y-5080000D02*
X22225000Y-1905000D01*
X22225000Y-1905000D02*
X25400000Y-1905000D01*
G04 #@! TO.N,Net-(J9-PadT)*
X25400000Y-10795000D02*
X35560000Y-10795000D01*
X36670000Y-9685000D02*
X35560000Y-10795000D01*
X36670000Y-6350000D02*
X36670000Y-9685000D01*
G04 #@! TO.N,Net-(J10-Pad7)*
X8255000Y-58420000D02*
X10795000Y-58420000D01*
X10795000Y-58420000D02*
X10795000Y-58420000D01*
X10795000Y-90805000D02*
X17780000Y-90805000D01*
G04 #@! TO.N,Net-(J10-Pad6)*
X8255000Y-55880000D02*
X12065000Y-55880000D01*
X12065000Y-55880000D02*
X12065000Y-55880000D01*
X12065000Y-73025000D02*
X17780000Y-73025000D01*
G04 #@! TO.N,Net-(J10-Pad5)*
X8255000Y-53340000D02*
X13335000Y-53340000D01*
X15240000Y-55245000D02*
X17780000Y-55245000D01*
X13335000Y-53340000D02*
X15240000Y-55245000D01*
G04 #@! TO.N,Net-(J10-Pad4)*
X8255000Y-50800000D02*
X13335000Y-50800000D01*
X13335000Y-50800000D02*
X13335000Y-50800000D01*
X17780000Y-46355000D02*
X13335000Y-46355000D01*
G04 #@! TO.N,Net-(J10-Pad3)*
X8255000Y-48260000D02*
X12065000Y-48260000D01*
X12065000Y-48260000D02*
X12065000Y-48260000D01*
X17780000Y-28575000D02*
X12065000Y-28575000D01*
G04 #@! TO.N,Net-(J10-Pad2)*
X8255000Y-45720000D02*
X10795000Y-45720000D01*
X10795000Y-45720000D02*
X10795000Y-45720000D01*
X10795000Y-10795000D02*
X17780000Y-10795000D01*
G04 #@! TD*
D21*
G04 #@! TO.N,GND*
X37440001Y-100940000D02*
X26119657Y-100940000D01*
X26314759Y-100809637D01*
X26514637Y-100609759D01*
X26618043Y-100455000D01*
X35522678Y-100455000D01*
X35560000Y-100458676D01*
X35597322Y-100455000D01*
X35597333Y-100455000D01*
X35708986Y-100444003D01*
X35852247Y-100400546D01*
X35984276Y-100329974D01*
X36100001Y-100235001D01*
X36123804Y-100205998D01*
X37181003Y-99148799D01*
X37210001Y-99125001D01*
X37263325Y-99060026D01*
X37304974Y-99009277D01*
X37375546Y-98877247D01*
X37419003Y-98733986D01*
X37430000Y-98622333D01*
X37430000Y-98622324D01*
X37433676Y-98585001D01*
X37430000Y-98547678D01*
X37430000Y-96788615D01*
X37440001Y-96780407D01*
X37440001Y-100940000D01*
G04 #@! TA.AperFunction,Conductor*
D22*
G36*
X37440001Y-100940000D02*
G01*
X26119657Y-100940000D01*
X26314759Y-100809637D01*
X26514637Y-100609759D01*
X26618043Y-100455000D01*
X35522678Y-100455000D01*
X35560000Y-100458676D01*
X35597322Y-100455000D01*
X35597333Y-100455000D01*
X35708986Y-100444003D01*
X35852247Y-100400546D01*
X35984276Y-100329974D01*
X36100001Y-100235001D01*
X36123804Y-100205998D01*
X37181003Y-99148799D01*
X37210001Y-99125001D01*
X37263325Y-99060026D01*
X37304974Y-99009277D01*
X37375546Y-98877247D01*
X37419003Y-98733986D01*
X37430000Y-98622333D01*
X37430000Y-98622324D01*
X37433676Y-98585001D01*
X37430000Y-98547678D01*
X37430000Y-96788615D01*
X37440001Y-96780407D01*
X37440001Y-100940000D01*
G37*
G04 #@! TD.AperFunction*
D21*
X16865241Y-790363D02*
X16665363Y-990241D01*
X16508320Y-1225273D01*
X16400147Y-1486426D01*
X16345000Y-1763665D01*
X16345000Y-2046335D01*
X16400147Y-2323574D01*
X16508320Y-2584727D01*
X16665363Y-2819759D01*
X16865241Y-3019637D01*
X17100273Y-3176680D01*
X17361426Y-3284853D01*
X17638665Y-3340000D01*
X17921335Y-3340000D01*
X18198574Y-3284853D01*
X18459727Y-3176680D01*
X18694759Y-3019637D01*
X18894637Y-2819759D01*
X19051680Y-2584727D01*
X19159853Y-2323574D01*
X19215000Y-2046335D01*
X19215000Y-1763665D01*
X19159853Y-1486426D01*
X19051680Y-1225273D01*
X18894637Y-990241D01*
X18694759Y-790363D01*
X18499657Y-660000D01*
X24680343Y-660000D01*
X24485241Y-790363D01*
X24285363Y-990241D01*
X24181957Y-1145000D01*
X22262322Y-1145000D01*
X22224999Y-1141324D01*
X22187676Y-1145000D01*
X22187667Y-1145000D01*
X22076014Y-1155997D01*
X21932753Y-1199454D01*
X21800723Y-1270026D01*
X21717083Y-1338668D01*
X21684999Y-1364999D01*
X21661201Y-1393997D01*
X19458930Y-3596269D01*
X19201184Y-3545000D01*
X18898816Y-3545000D01*
X18602257Y-3603989D01*
X18322905Y-3719701D01*
X18071495Y-3887688D01*
X17857688Y-4101495D01*
X17689701Y-4352905D01*
X17573989Y-4632257D01*
X17515000Y-4928816D01*
X17515000Y-5231184D01*
X17573989Y-5527743D01*
X17689701Y-5807095D01*
X17857688Y-6058505D01*
X17924127Y-6124944D01*
X17905820Y-6130498D01*
X17795506Y-6189463D01*
X17698815Y-6268815D01*
X17619463Y-6365506D01*
X17560498Y-6475820D01*
X17524188Y-6595518D01*
X17511928Y-6720000D01*
X17515000Y-7334250D01*
X17673750Y-7493000D01*
X18923000Y-7493000D01*
X18923000Y-7473000D01*
X19177000Y-7473000D01*
X19177000Y-7493000D01*
X20426250Y-7493000D01*
X20585000Y-7334250D01*
X20588072Y-6720000D01*
X20575812Y-6595518D01*
X20539860Y-6477000D01*
X23985000Y-6477000D01*
X23985000Y-6977000D01*
X24034467Y-7225251D01*
X24131415Y-7459081D01*
X24272118Y-7669505D01*
X24451170Y-7848436D01*
X24661689Y-7988997D01*
X24895585Y-8085787D01*
X24944529Y-8093099D01*
X25143000Y-7969067D01*
X25143000Y-6477000D01*
X25397000Y-6477000D01*
X25397000Y-7969067D01*
X25595471Y-8093099D01*
X25644415Y-8085787D01*
X25878311Y-7988997D01*
X26088830Y-7848436D01*
X26267882Y-7669505D01*
X26408585Y-7459081D01*
X26505533Y-7225251D01*
X26555000Y-6977000D01*
X26555000Y-6477000D01*
X25397000Y-6477000D01*
X25143000Y-6477000D01*
X23985000Y-6477000D01*
X20539860Y-6477000D01*
X20539502Y-6475820D01*
X20480537Y-6365506D01*
X20401185Y-6268815D01*
X20304494Y-6189463D01*
X20194180Y-6130498D01*
X20175873Y-6124944D01*
X20242312Y-6058505D01*
X20410299Y-5807095D01*
X20445132Y-5723000D01*
X23985000Y-5723000D01*
X23985000Y-6223000D01*
X25143000Y-6223000D01*
X25143000Y-4730933D01*
X25397000Y-4730933D01*
X25397000Y-6223000D01*
X26555000Y-6223000D01*
X26555000Y-5786877D01*
X27085000Y-5786877D01*
X27085000Y-6913122D01*
X27103593Y-7101903D01*
X27177071Y-7344126D01*
X27296392Y-7567361D01*
X27456972Y-7763028D01*
X27652638Y-7923608D01*
X27875873Y-8042929D01*
X28118096Y-8116407D01*
X28370000Y-8141217D01*
X28621903Y-8116407D01*
X28864126Y-8042929D01*
X29087361Y-7923608D01*
X29283028Y-7763028D01*
X29443608Y-7567362D01*
X29562929Y-7344127D01*
X29570262Y-7319953D01*
X29636440Y-7479721D01*
X29897450Y-7870349D01*
X30229651Y-8202550D01*
X30620279Y-8463560D01*
X31054321Y-8643346D01*
X31515098Y-8735000D01*
X31984902Y-8735000D01*
X32445679Y-8643346D01*
X32879721Y-8463560D01*
X33270349Y-8202550D01*
X33602550Y-7870349D01*
X33863560Y-7479721D01*
X34043346Y-7045679D01*
X34135000Y-6584902D01*
X34135000Y-6115098D01*
X34043346Y-5654321D01*
X33863560Y-5220279D01*
X33602550Y-4829651D01*
X33270349Y-4497450D01*
X32879721Y-4236440D01*
X32445679Y-4056654D01*
X31984902Y-3965000D01*
X31515098Y-3965000D01*
X31054321Y-4056654D01*
X30620279Y-4236440D01*
X30229651Y-4497450D01*
X29897450Y-4829651D01*
X29636440Y-5220279D01*
X29570262Y-5380047D01*
X29562929Y-5355873D01*
X29443608Y-5132638D01*
X29283028Y-4936972D01*
X29087362Y-4776392D01*
X28864127Y-4657071D01*
X28621904Y-4583593D01*
X28370000Y-4558783D01*
X28118097Y-4583593D01*
X27875874Y-4657071D01*
X27652639Y-4776392D01*
X27456973Y-4936972D01*
X27296392Y-5132638D01*
X27177071Y-5355873D01*
X27103593Y-5598096D01*
X27085000Y-5786877D01*
X26555000Y-5786877D01*
X26555000Y-5723000D01*
X26505533Y-5474749D01*
X26408585Y-5240919D01*
X26267882Y-5030495D01*
X26088830Y-4851564D01*
X25878311Y-4711003D01*
X25644415Y-4614213D01*
X25595471Y-4606901D01*
X25397000Y-4730933D01*
X25143000Y-4730933D01*
X24944529Y-4606901D01*
X24895585Y-4614213D01*
X24661689Y-4711003D01*
X24451170Y-4851564D01*
X24272118Y-5030495D01*
X24131415Y-5240919D01*
X24034467Y-5474749D01*
X23985000Y-5723000D01*
X20445132Y-5723000D01*
X20526011Y-5527743D01*
X20585000Y-5231184D01*
X20585000Y-4928816D01*
X20533731Y-4671070D01*
X22539802Y-2665000D01*
X24181957Y-2665000D01*
X24285363Y-2819759D01*
X24485241Y-3019637D01*
X24720273Y-3176680D01*
X24981426Y-3284853D01*
X25258665Y-3340000D01*
X25541335Y-3340000D01*
X25818574Y-3284853D01*
X26079727Y-3176680D01*
X26314759Y-3019637D01*
X26514637Y-2819759D01*
X26671680Y-2584727D01*
X26779853Y-2323574D01*
X26835000Y-2046335D01*
X26835000Y-1763665D01*
X26779853Y-1486426D01*
X26671680Y-1225273D01*
X26514637Y-990241D01*
X26314759Y-790363D01*
X26119657Y-660000D01*
X37440000Y-660000D01*
X37440000Y-4819591D01*
X37387362Y-4776392D01*
X37164127Y-4657071D01*
X36921904Y-4583593D01*
X36670000Y-4558783D01*
X36418097Y-4583593D01*
X36175874Y-4657071D01*
X35952639Y-4776392D01*
X35756973Y-4936972D01*
X35596392Y-5132638D01*
X35477071Y-5355873D01*
X35403593Y-5598096D01*
X35385000Y-5786877D01*
X35385000Y-6913122D01*
X35403593Y-7101903D01*
X35477071Y-7344126D01*
X35596392Y-7567361D01*
X35756972Y-7763028D01*
X35910000Y-7888616D01*
X35910001Y-9370197D01*
X35245199Y-10035000D01*
X26618043Y-10035000D01*
X26514637Y-9880241D01*
X26314759Y-9680363D01*
X26079727Y-9523320D01*
X25818574Y-9415147D01*
X25541335Y-9360000D01*
X25258665Y-9360000D01*
X24981426Y-9415147D01*
X24720273Y-9523320D01*
X24485241Y-9680363D01*
X24285363Y-9880241D01*
X24128320Y-10115273D01*
X24020147Y-10376426D01*
X23965000Y-10653665D01*
X23965000Y-10936335D01*
X24020147Y-11213574D01*
X24128320Y-11474727D01*
X24285363Y-11709759D01*
X24485241Y-11909637D01*
X24720273Y-12066680D01*
X24981426Y-12174853D01*
X25258665Y-12230000D01*
X25541335Y-12230000D01*
X25818574Y-12174853D01*
X26079727Y-12066680D01*
X26314759Y-11909637D01*
X26514637Y-11709759D01*
X26618043Y-11555000D01*
X35522678Y-11555000D01*
X35560000Y-11558676D01*
X35597322Y-11555000D01*
X35597333Y-11555000D01*
X35708986Y-11544003D01*
X35852247Y-11500546D01*
X35984276Y-11429974D01*
X36100001Y-11335001D01*
X36123804Y-11305998D01*
X37181003Y-10248799D01*
X37210001Y-10225001D01*
X37263325Y-10160026D01*
X37304974Y-10109277D01*
X37375546Y-9977247D01*
X37419003Y-9833986D01*
X37430000Y-9722333D01*
X37430000Y-9722324D01*
X37433676Y-9685001D01*
X37430000Y-9647678D01*
X37430000Y-7888615D01*
X37440000Y-7880408D01*
X37440000Y-22599591D01*
X37387362Y-22556392D01*
X37164127Y-22437071D01*
X36921904Y-22363593D01*
X36670000Y-22338783D01*
X36418097Y-22363593D01*
X36175874Y-22437071D01*
X35952639Y-22556392D01*
X35756973Y-22716972D01*
X35596392Y-22912638D01*
X35477071Y-23135873D01*
X35403593Y-23378096D01*
X35385000Y-23566877D01*
X35385000Y-24693122D01*
X35403593Y-24881903D01*
X35477071Y-25124126D01*
X35596392Y-25347361D01*
X35756972Y-25543028D01*
X35910000Y-25668616D01*
X35910001Y-27150197D01*
X35245199Y-27815000D01*
X26618043Y-27815000D01*
X26514637Y-27660241D01*
X26314759Y-27460363D01*
X26079727Y-27303320D01*
X25818574Y-27195147D01*
X25541335Y-27140000D01*
X25258665Y-27140000D01*
X24981426Y-27195147D01*
X24720273Y-27303320D01*
X24485241Y-27460363D01*
X24285363Y-27660241D01*
X24128320Y-27895273D01*
X24020147Y-28156426D01*
X23965000Y-28433665D01*
X23965000Y-28716335D01*
X24020147Y-28993574D01*
X24128320Y-29254727D01*
X24285363Y-29489759D01*
X24485241Y-29689637D01*
X24720273Y-29846680D01*
X24981426Y-29954853D01*
X25258665Y-30010000D01*
X25541335Y-30010000D01*
X25818574Y-29954853D01*
X26079727Y-29846680D01*
X26314759Y-29689637D01*
X26514637Y-29489759D01*
X26618043Y-29335000D01*
X35522678Y-29335000D01*
X35560000Y-29338676D01*
X35597322Y-29335000D01*
X35597333Y-29335000D01*
X35708986Y-29324003D01*
X35852247Y-29280546D01*
X35984276Y-29209974D01*
X36100001Y-29115001D01*
X36123804Y-29085998D01*
X37181003Y-28028799D01*
X37210001Y-28005001D01*
X37263325Y-27940026D01*
X37304974Y-27889277D01*
X37375546Y-27757247D01*
X37419003Y-27613986D01*
X37430000Y-27502333D01*
X37430000Y-27502324D01*
X37433676Y-27465001D01*
X37430000Y-27427678D01*
X37430000Y-25668615D01*
X37440000Y-25660408D01*
X37440000Y-40379592D01*
X37387362Y-40336392D01*
X37164127Y-40217071D01*
X36921904Y-40143593D01*
X36670000Y-40118783D01*
X36418097Y-40143593D01*
X36175874Y-40217071D01*
X35952639Y-40336392D01*
X35756973Y-40496972D01*
X35596392Y-40692638D01*
X35477071Y-40915873D01*
X35403593Y-41158096D01*
X35385000Y-41346877D01*
X35385000Y-42473122D01*
X35403593Y-42661903D01*
X35477071Y-42904126D01*
X35596392Y-43127361D01*
X35756972Y-43323028D01*
X35910000Y-43448616D01*
X35910001Y-44930197D01*
X35245199Y-45595000D01*
X26618043Y-45595000D01*
X26514637Y-45440241D01*
X26314759Y-45240363D01*
X26079727Y-45083320D01*
X25818574Y-44975147D01*
X25541335Y-44920000D01*
X25258665Y-44920000D01*
X24981426Y-44975147D01*
X24720273Y-45083320D01*
X24485241Y-45240363D01*
X24285363Y-45440241D01*
X24128320Y-45675273D01*
X24020147Y-45936426D01*
X23965000Y-46213665D01*
X23965000Y-46496335D01*
X24020147Y-46773574D01*
X24128320Y-47034727D01*
X24285363Y-47269759D01*
X24485241Y-47469637D01*
X24720273Y-47626680D01*
X24981426Y-47734853D01*
X25258665Y-47790000D01*
X25541335Y-47790000D01*
X25818574Y-47734853D01*
X26079727Y-47626680D01*
X26314759Y-47469637D01*
X26514637Y-47269759D01*
X26618043Y-47115000D01*
X35522678Y-47115000D01*
X35560000Y-47118676D01*
X35597322Y-47115000D01*
X35597333Y-47115000D01*
X35708986Y-47104003D01*
X35852247Y-47060546D01*
X35984276Y-46989974D01*
X36100001Y-46895001D01*
X36123804Y-46865998D01*
X37181003Y-45808799D01*
X37210001Y-45785001D01*
X37263346Y-45720000D01*
X37304974Y-45669277D01*
X37375546Y-45537247D01*
X37419003Y-45393986D01*
X37430000Y-45282333D01*
X37430000Y-45282324D01*
X37433676Y-45245001D01*
X37430000Y-45207678D01*
X37430000Y-43448615D01*
X37440000Y-43440408D01*
X37440001Y-58159592D01*
X37387362Y-58116392D01*
X37164127Y-57997071D01*
X36921904Y-57923593D01*
X36670000Y-57898783D01*
X36418097Y-57923593D01*
X36175874Y-57997071D01*
X35952639Y-58116392D01*
X35756973Y-58276972D01*
X35596392Y-58472638D01*
X35477071Y-58695873D01*
X35403593Y-58938096D01*
X35385000Y-59126877D01*
X35385000Y-60253122D01*
X35403593Y-60441903D01*
X35477071Y-60684126D01*
X35596392Y-60907361D01*
X35756972Y-61103028D01*
X35910000Y-61228616D01*
X35910001Y-62710197D01*
X35245199Y-63375000D01*
X26618043Y-63375000D01*
X26514637Y-63220241D01*
X26314759Y-63020363D01*
X26079727Y-62863320D01*
X25818574Y-62755147D01*
X25541335Y-62700000D01*
X25258665Y-62700000D01*
X24981426Y-62755147D01*
X24720273Y-62863320D01*
X24485241Y-63020363D01*
X24285363Y-63220241D01*
X24128320Y-63455273D01*
X24020147Y-63716426D01*
X23965000Y-63993665D01*
X23965000Y-64276335D01*
X24020147Y-64553574D01*
X24128320Y-64814727D01*
X24285363Y-65049759D01*
X24485241Y-65249637D01*
X24720273Y-65406680D01*
X24981426Y-65514853D01*
X25258665Y-65570000D01*
X25541335Y-65570000D01*
X25818574Y-65514853D01*
X26079727Y-65406680D01*
X26314759Y-65249637D01*
X26514637Y-65049759D01*
X26618043Y-64895000D01*
X35522678Y-64895000D01*
X35560000Y-64898676D01*
X35597322Y-64895000D01*
X35597333Y-64895000D01*
X35708986Y-64884003D01*
X35852247Y-64840546D01*
X35984276Y-64769974D01*
X36100001Y-64675001D01*
X36123804Y-64645998D01*
X37181003Y-63588799D01*
X37210001Y-63565001D01*
X37263325Y-63500026D01*
X37304974Y-63449277D01*
X37375546Y-63317247D01*
X37419003Y-63173986D01*
X37430000Y-63062333D01*
X37430000Y-63062324D01*
X37433676Y-63025001D01*
X37430000Y-62987678D01*
X37430000Y-61228615D01*
X37440001Y-61220408D01*
X37440001Y-75939592D01*
X37387362Y-75896392D01*
X37164127Y-75777071D01*
X36921904Y-75703593D01*
X36670000Y-75678783D01*
X36418097Y-75703593D01*
X36175874Y-75777071D01*
X35952639Y-75896392D01*
X35756973Y-76056972D01*
X35596392Y-76252638D01*
X35477071Y-76475873D01*
X35403593Y-76718096D01*
X35385000Y-76906877D01*
X35385000Y-78033122D01*
X35403593Y-78221903D01*
X35477071Y-78464126D01*
X35596392Y-78687361D01*
X35756972Y-78883028D01*
X35910000Y-79008616D01*
X35910001Y-80490197D01*
X35245199Y-81155000D01*
X26618043Y-81155000D01*
X26514637Y-81000241D01*
X26314759Y-80800363D01*
X26079727Y-80643320D01*
X25818574Y-80535147D01*
X25541335Y-80480000D01*
X25258665Y-80480000D01*
X24981426Y-80535147D01*
X24720273Y-80643320D01*
X24485241Y-80800363D01*
X24285363Y-81000241D01*
X24128320Y-81235273D01*
X24020147Y-81496426D01*
X23965000Y-81773665D01*
X23965000Y-82056335D01*
X24020147Y-82333574D01*
X24128320Y-82594727D01*
X24285363Y-82829759D01*
X24485241Y-83029637D01*
X24720273Y-83186680D01*
X24981426Y-83294853D01*
X25258665Y-83350000D01*
X25541335Y-83350000D01*
X25818574Y-83294853D01*
X26079727Y-83186680D01*
X26314759Y-83029637D01*
X26514637Y-82829759D01*
X26618043Y-82675000D01*
X35522678Y-82675000D01*
X35560000Y-82678676D01*
X35597322Y-82675000D01*
X35597333Y-82675000D01*
X35708986Y-82664003D01*
X35852247Y-82620546D01*
X35984276Y-82549974D01*
X36100001Y-82455001D01*
X36123804Y-82425998D01*
X37181003Y-81368799D01*
X37210001Y-81345001D01*
X37263325Y-81280026D01*
X37304974Y-81229277D01*
X37375546Y-81097247D01*
X37419003Y-80953986D01*
X37430000Y-80842333D01*
X37430000Y-80842324D01*
X37433676Y-80805001D01*
X37430000Y-80767678D01*
X37430000Y-79008615D01*
X37440001Y-79000408D01*
X37440001Y-93719592D01*
X37387362Y-93676392D01*
X37164127Y-93557071D01*
X36921904Y-93483593D01*
X36670000Y-93458783D01*
X36418097Y-93483593D01*
X36175874Y-93557071D01*
X35952639Y-93676392D01*
X35756973Y-93836972D01*
X35596392Y-94032638D01*
X35477071Y-94255873D01*
X35403593Y-94498096D01*
X35385000Y-94686877D01*
X35385000Y-95813122D01*
X35403593Y-96001903D01*
X35477071Y-96244126D01*
X35596392Y-96467361D01*
X35756972Y-96663028D01*
X35910000Y-96788616D01*
X35910001Y-98270197D01*
X35245199Y-98935000D01*
X26618043Y-98935000D01*
X26514637Y-98780241D01*
X26314759Y-98580363D01*
X26079727Y-98423320D01*
X25818574Y-98315147D01*
X25541335Y-98260000D01*
X25258665Y-98260000D01*
X24981426Y-98315147D01*
X24720273Y-98423320D01*
X24485241Y-98580363D01*
X24285363Y-98780241D01*
X24128320Y-99015273D01*
X24020147Y-99276426D01*
X23965000Y-99553665D01*
X23965000Y-99836335D01*
X24020147Y-100113574D01*
X24128320Y-100374727D01*
X24285363Y-100609759D01*
X24485241Y-100809637D01*
X24680343Y-100940000D01*
X18499657Y-100940000D01*
X18694759Y-100809637D01*
X18894637Y-100609759D01*
X19051680Y-100374727D01*
X19159853Y-100113574D01*
X19215000Y-99836335D01*
X19215000Y-99553665D01*
X19159853Y-99276426D01*
X19051680Y-99015273D01*
X18894637Y-98780241D01*
X18694759Y-98580363D01*
X18459727Y-98423320D01*
X18198574Y-98315147D01*
X17921335Y-98260000D01*
X17638665Y-98260000D01*
X17361426Y-98315147D01*
X17100273Y-98423320D01*
X16865241Y-98580363D01*
X16665363Y-98780241D01*
X16508320Y-99015273D01*
X16400147Y-99276426D01*
X16345000Y-99553665D01*
X16345000Y-99836335D01*
X16400147Y-100113574D01*
X16508320Y-100374727D01*
X16665363Y-100609759D01*
X16865241Y-100809637D01*
X17060343Y-100940000D01*
X660000Y-100940000D01*
X660000Y-94686878D01*
X780000Y-94686878D01*
X780000Y-95813123D01*
X798593Y-96001904D01*
X872071Y-96244127D01*
X991392Y-96467362D01*
X1151973Y-96663028D01*
X1347639Y-96823608D01*
X1570874Y-96942929D01*
X1813097Y-97016407D01*
X2065000Y-97041217D01*
X2316904Y-97016407D01*
X2559127Y-96942929D01*
X2782362Y-96823608D01*
X2978028Y-96663028D01*
X3138608Y-96467362D01*
X3257929Y-96244127D01*
X3331407Y-96001904D01*
X3350000Y-95813123D01*
X3350000Y-95015098D01*
X4600000Y-95015098D01*
X4600000Y-95484902D01*
X4691654Y-95945679D01*
X4871440Y-96379721D01*
X5132450Y-96770349D01*
X5464651Y-97102550D01*
X5855279Y-97363560D01*
X6289321Y-97543346D01*
X6750098Y-97635000D01*
X7219902Y-97635000D01*
X7680679Y-97543346D01*
X7978462Y-97420000D01*
X17511928Y-97420000D01*
X17524188Y-97544482D01*
X17560498Y-97664180D01*
X17619463Y-97774494D01*
X17698815Y-97871185D01*
X17795506Y-97950537D01*
X17905820Y-98009502D01*
X18025518Y-98045812D01*
X18150000Y-98058072D01*
X18764250Y-98055000D01*
X18923000Y-97896250D01*
X18923000Y-96647000D01*
X19177000Y-96647000D01*
X19177000Y-97896250D01*
X19335750Y-98055000D01*
X19950000Y-98058072D01*
X20074482Y-98045812D01*
X20194180Y-98009502D01*
X20304494Y-97950537D01*
X20401185Y-97871185D01*
X20480537Y-97774494D01*
X20539502Y-97664180D01*
X20575812Y-97544482D01*
X20588072Y-97420000D01*
X20585000Y-96805750D01*
X20426250Y-96647000D01*
X19177000Y-96647000D01*
X18923000Y-96647000D01*
X17673750Y-96647000D01*
X17515000Y-96805750D01*
X17511928Y-97420000D01*
X7978462Y-97420000D01*
X8114721Y-97363560D01*
X8505349Y-97102550D01*
X8837550Y-96770349D01*
X9098560Y-96379721D01*
X9164738Y-96219953D01*
X9172071Y-96244127D01*
X9291392Y-96467362D01*
X9451973Y-96663028D01*
X9647639Y-96823608D01*
X9870874Y-96942929D01*
X10113097Y-97016407D01*
X10365000Y-97041217D01*
X10616904Y-97016407D01*
X10859127Y-96942929D01*
X11082362Y-96823608D01*
X11278028Y-96663028D01*
X11438608Y-96467362D01*
X11557929Y-96244127D01*
X11631407Y-96001904D01*
X11650000Y-95813123D01*
X11650000Y-95377000D01*
X12180000Y-95377000D01*
X12180000Y-95877000D01*
X12229467Y-96125251D01*
X12326415Y-96359081D01*
X12467118Y-96569505D01*
X12646170Y-96748436D01*
X12856689Y-96888997D01*
X13090585Y-96985787D01*
X13139529Y-96993099D01*
X13338000Y-96869067D01*
X13338000Y-95377000D01*
X13592000Y-95377000D01*
X13592000Y-96869067D01*
X13790471Y-96993099D01*
X13839415Y-96985787D01*
X14073311Y-96888997D01*
X14283830Y-96748436D01*
X14462882Y-96569505D01*
X14603585Y-96359081D01*
X14700533Y-96125251D01*
X14750000Y-95877000D01*
X14750000Y-95620000D01*
X17511928Y-95620000D01*
X17515000Y-96234250D01*
X17673750Y-96393000D01*
X18923000Y-96393000D01*
X18923000Y-96373000D01*
X19177000Y-96373000D01*
X19177000Y-96393000D01*
X20426250Y-96393000D01*
X20585000Y-96234250D01*
X20588072Y-95620000D01*
X20575812Y-95495518D01*
X20539860Y-95377000D01*
X23985000Y-95377000D01*
X23985000Y-95877000D01*
X24034467Y-96125251D01*
X24131415Y-96359081D01*
X24272118Y-96569505D01*
X24451170Y-96748436D01*
X24661689Y-96888997D01*
X24895585Y-96985787D01*
X24944529Y-96993099D01*
X25143000Y-96869067D01*
X25143000Y-95377000D01*
X25397000Y-95377000D01*
X25397000Y-96869067D01*
X25595471Y-96993099D01*
X25644415Y-96985787D01*
X25878311Y-96888997D01*
X26088830Y-96748436D01*
X26267882Y-96569505D01*
X26408585Y-96359081D01*
X26505533Y-96125251D01*
X26555000Y-95877000D01*
X26555000Y-95377000D01*
X25397000Y-95377000D01*
X25143000Y-95377000D01*
X23985000Y-95377000D01*
X20539860Y-95377000D01*
X20539502Y-95375820D01*
X20480537Y-95265506D01*
X20401185Y-95168815D01*
X20304494Y-95089463D01*
X20194180Y-95030498D01*
X20175873Y-95024944D01*
X20242312Y-94958505D01*
X20410299Y-94707095D01*
X20445132Y-94623000D01*
X23985000Y-94623000D01*
X23985000Y-95123000D01*
X25143000Y-95123000D01*
X25143000Y-93630933D01*
X25397000Y-93630933D01*
X25397000Y-95123000D01*
X26555000Y-95123000D01*
X26555000Y-94686877D01*
X27085000Y-94686877D01*
X27085000Y-95813122D01*
X27103593Y-96001903D01*
X27177071Y-96244126D01*
X27296392Y-96467361D01*
X27456972Y-96663028D01*
X27652638Y-96823608D01*
X27875873Y-96942929D01*
X28118096Y-97016407D01*
X28370000Y-97041217D01*
X28621903Y-97016407D01*
X28864126Y-96942929D01*
X29087361Y-96823608D01*
X29283028Y-96663028D01*
X29443608Y-96467362D01*
X29562929Y-96244127D01*
X29570262Y-96219953D01*
X29636440Y-96379721D01*
X29897450Y-96770349D01*
X30229651Y-97102550D01*
X30620279Y-97363560D01*
X31054321Y-97543346D01*
X31515098Y-97635000D01*
X31984902Y-97635000D01*
X32445679Y-97543346D01*
X32879721Y-97363560D01*
X33270349Y-97102550D01*
X33602550Y-96770349D01*
X33863560Y-96379721D01*
X34043346Y-95945679D01*
X34135000Y-95484902D01*
X34135000Y-95015098D01*
X34043346Y-94554321D01*
X33863560Y-94120279D01*
X33602550Y-93729651D01*
X33270349Y-93397450D01*
X32879721Y-93136440D01*
X32445679Y-92956654D01*
X31984902Y-92865000D01*
X31515098Y-92865000D01*
X31054321Y-92956654D01*
X30620279Y-93136440D01*
X30229651Y-93397450D01*
X29897450Y-93729651D01*
X29636440Y-94120279D01*
X29570262Y-94280047D01*
X29562929Y-94255873D01*
X29443608Y-94032638D01*
X29283028Y-93836972D01*
X29087362Y-93676392D01*
X28864127Y-93557071D01*
X28621904Y-93483593D01*
X28370000Y-93458783D01*
X28118097Y-93483593D01*
X27875874Y-93557071D01*
X27652639Y-93676392D01*
X27456973Y-93836972D01*
X27296392Y-94032638D01*
X27177071Y-94255873D01*
X27103593Y-94498096D01*
X27085000Y-94686877D01*
X26555000Y-94686877D01*
X26555000Y-94623000D01*
X26505533Y-94374749D01*
X26408585Y-94140919D01*
X26267882Y-93930495D01*
X26088830Y-93751564D01*
X25878311Y-93611003D01*
X25644415Y-93514213D01*
X25595471Y-93506901D01*
X25397000Y-93630933D01*
X25143000Y-93630933D01*
X24944529Y-93506901D01*
X24895585Y-93514213D01*
X24661689Y-93611003D01*
X24451170Y-93751564D01*
X24272118Y-93930495D01*
X24131415Y-94140919D01*
X24034467Y-94374749D01*
X23985000Y-94623000D01*
X20445132Y-94623000D01*
X20526011Y-94427743D01*
X20585000Y-94131184D01*
X20585000Y-93828816D01*
X20533731Y-93571070D01*
X22539802Y-91565000D01*
X24181957Y-91565000D01*
X24285363Y-91719759D01*
X24485241Y-91919637D01*
X24720273Y-92076680D01*
X24981426Y-92184853D01*
X25258665Y-92240000D01*
X25541335Y-92240000D01*
X25818574Y-92184853D01*
X26079727Y-92076680D01*
X26314759Y-91919637D01*
X26514637Y-91719759D01*
X26671680Y-91484727D01*
X26779853Y-91223574D01*
X26835000Y-90946335D01*
X26835000Y-90663665D01*
X26779853Y-90386426D01*
X26671680Y-90125273D01*
X26514637Y-89890241D01*
X26314759Y-89690363D01*
X26079727Y-89533320D01*
X25818574Y-89425147D01*
X25541335Y-89370000D01*
X25258665Y-89370000D01*
X24981426Y-89425147D01*
X24720273Y-89533320D01*
X24485241Y-89690363D01*
X24285363Y-89890241D01*
X24181957Y-90045000D01*
X22262322Y-90045000D01*
X22224999Y-90041324D01*
X22187676Y-90045000D01*
X22187667Y-90045000D01*
X22076014Y-90055997D01*
X21932753Y-90099454D01*
X21800723Y-90170026D01*
X21717083Y-90238668D01*
X21684999Y-90264999D01*
X21661201Y-90293997D01*
X19458930Y-92496269D01*
X19201184Y-92445000D01*
X18898816Y-92445000D01*
X18602257Y-92503989D01*
X18322905Y-92619701D01*
X18071495Y-92787688D01*
X17857688Y-93001495D01*
X17689701Y-93252905D01*
X17573989Y-93532257D01*
X17515000Y-93828816D01*
X17515000Y-94131184D01*
X17573989Y-94427743D01*
X17689701Y-94707095D01*
X17857688Y-94958505D01*
X17924127Y-95024944D01*
X17905820Y-95030498D01*
X17795506Y-95089463D01*
X17698815Y-95168815D01*
X17619463Y-95265506D01*
X17560498Y-95375820D01*
X17524188Y-95495518D01*
X17511928Y-95620000D01*
X14750000Y-95620000D01*
X14750000Y-95377000D01*
X13592000Y-95377000D01*
X13338000Y-95377000D01*
X12180000Y-95377000D01*
X11650000Y-95377000D01*
X11650000Y-94686877D01*
X11643709Y-94623000D01*
X12180000Y-94623000D01*
X12180000Y-95123000D01*
X13338000Y-95123000D01*
X13338000Y-93630933D01*
X13592000Y-93630933D01*
X13592000Y-95123000D01*
X14750000Y-95123000D01*
X14750000Y-94623000D01*
X14700533Y-94374749D01*
X14603585Y-94140919D01*
X14462882Y-93930495D01*
X14283830Y-93751564D01*
X14073311Y-93611003D01*
X13839415Y-93514213D01*
X13790471Y-93506901D01*
X13592000Y-93630933D01*
X13338000Y-93630933D01*
X13139529Y-93506901D01*
X13090585Y-93514213D01*
X12856689Y-93611003D01*
X12646170Y-93751564D01*
X12467118Y-93930495D01*
X12326415Y-94140919D01*
X12229467Y-94374749D01*
X12180000Y-94623000D01*
X11643709Y-94623000D01*
X11631407Y-94498096D01*
X11557929Y-94255873D01*
X11438608Y-94032638D01*
X11278028Y-93836972D01*
X11082361Y-93676392D01*
X10859126Y-93557071D01*
X10616903Y-93483593D01*
X10365000Y-93458783D01*
X10113096Y-93483593D01*
X9870873Y-93557071D01*
X9647638Y-93676392D01*
X9451972Y-93836972D01*
X9291392Y-94032639D01*
X9172071Y-94255874D01*
X9164738Y-94280047D01*
X9098560Y-94120279D01*
X8837550Y-93729651D01*
X8505349Y-93397450D01*
X8114721Y-93136440D01*
X7680679Y-92956654D01*
X7219902Y-92865000D01*
X6750098Y-92865000D01*
X6289321Y-92956654D01*
X5855279Y-93136440D01*
X5464651Y-93397450D01*
X5132450Y-93729651D01*
X4871440Y-94120279D01*
X4691654Y-94554321D01*
X4600000Y-95015098D01*
X3350000Y-95015098D01*
X3350000Y-94686877D01*
X3331407Y-94498096D01*
X3257929Y-94255873D01*
X3138608Y-94032638D01*
X2978028Y-93836972D01*
X2782361Y-93676392D01*
X2559126Y-93557071D01*
X2316903Y-93483593D01*
X2065000Y-93458783D01*
X1813096Y-93483593D01*
X1570873Y-93557071D01*
X1347638Y-93676392D01*
X1151972Y-93836972D01*
X991392Y-94032639D01*
X872071Y-94255874D01*
X798593Y-94498097D01*
X780000Y-94686878D01*
X660000Y-94686878D01*
X660000Y-90703061D01*
X9760000Y-90703061D01*
X9760000Y-90906939D01*
X9799774Y-91106898D01*
X9877795Y-91295256D01*
X9991063Y-91464774D01*
X10135226Y-91608937D01*
X10304744Y-91722205D01*
X10493102Y-91800226D01*
X10693061Y-91840000D01*
X10896939Y-91840000D01*
X11096898Y-91800226D01*
X11285256Y-91722205D01*
X11454774Y-91608937D01*
X11498711Y-91565000D01*
X16561957Y-91565000D01*
X16665363Y-91719759D01*
X16865241Y-91919637D01*
X17100273Y-92076680D01*
X17361426Y-92184853D01*
X17638665Y-92240000D01*
X17921335Y-92240000D01*
X18198574Y-92184853D01*
X18459727Y-92076680D01*
X18694759Y-91919637D01*
X18894637Y-91719759D01*
X19051680Y-91484727D01*
X19159853Y-91223574D01*
X19215000Y-90946335D01*
X19215000Y-90663665D01*
X19159853Y-90386426D01*
X19051680Y-90125273D01*
X18894637Y-89890241D01*
X18694759Y-89690363D01*
X18459727Y-89533320D01*
X18198574Y-89425147D01*
X17921335Y-89370000D01*
X17638665Y-89370000D01*
X17361426Y-89425147D01*
X17100273Y-89533320D01*
X16865241Y-89690363D01*
X16665363Y-89890241D01*
X16561957Y-90045000D01*
X11498711Y-90045000D01*
X11454774Y-90001063D01*
X11285256Y-89887795D01*
X11096898Y-89809774D01*
X10896939Y-89770000D01*
X10693061Y-89770000D01*
X10493102Y-89809774D01*
X10304744Y-89887795D01*
X10135226Y-90001063D01*
X9991063Y-90145226D01*
X9877795Y-90314744D01*
X9799774Y-90503102D01*
X9760000Y-90703061D01*
X660000Y-90703061D01*
X660000Y-88123665D01*
X2375000Y-88123665D01*
X2375000Y-88406335D01*
X2430147Y-88683574D01*
X2538320Y-88944727D01*
X2695363Y-89179759D01*
X2895241Y-89379637D01*
X3130273Y-89536680D01*
X3391426Y-89644853D01*
X3668665Y-89700000D01*
X3951335Y-89700000D01*
X4228574Y-89644853D01*
X4489727Y-89536680D01*
X4724759Y-89379637D01*
X4924637Y-89179759D01*
X5081680Y-88944727D01*
X5189853Y-88683574D01*
X5235027Y-88456468D01*
X32373137Y-88456468D01*
X32631298Y-88859073D01*
X33150715Y-89134651D01*
X33713913Y-89303601D01*
X34299250Y-89359430D01*
X34884233Y-89299992D01*
X35446379Y-89127571D01*
X35948702Y-88859073D01*
X36206863Y-88456468D01*
X34290000Y-86539605D01*
X32373137Y-88456468D01*
X5235027Y-88456468D01*
X5245000Y-88406335D01*
X5245000Y-88123665D01*
X5189853Y-87846426D01*
X5081680Y-87585273D01*
X4924637Y-87350241D01*
X4724759Y-87150363D01*
X4489727Y-86993320D01*
X4228574Y-86885147D01*
X3951335Y-86830000D01*
X3668665Y-86830000D01*
X3391426Y-86885147D01*
X3130273Y-86993320D01*
X2895241Y-87150363D01*
X2695363Y-87350241D01*
X2538320Y-87585273D01*
X2430147Y-87846426D01*
X2375000Y-88123665D01*
X660000Y-88123665D01*
X660000Y-86369250D01*
X31290570Y-86369250D01*
X31350008Y-86954233D01*
X31522429Y-87516379D01*
X31790927Y-88018702D01*
X32193532Y-88276863D01*
X34110395Y-86360000D01*
X34469605Y-86360000D01*
X36386468Y-88276863D01*
X36789073Y-88018702D01*
X37064651Y-87499285D01*
X37233601Y-86936087D01*
X37289430Y-86350750D01*
X37229992Y-85765767D01*
X37057571Y-85203621D01*
X36789073Y-84701298D01*
X36386468Y-84443137D01*
X34469605Y-86360000D01*
X34110395Y-86360000D01*
X32193532Y-84443137D01*
X31790927Y-84701298D01*
X31515349Y-85220715D01*
X31346399Y-85783913D01*
X31290570Y-86369250D01*
X660000Y-86369250D01*
X660000Y-84263532D01*
X32373137Y-84263532D01*
X34290000Y-86180395D01*
X36206863Y-84263532D01*
X35948702Y-83860927D01*
X35429285Y-83585349D01*
X34866087Y-83416399D01*
X34280750Y-83360570D01*
X33695767Y-83420008D01*
X33133621Y-83592429D01*
X32631298Y-83860927D01*
X32373137Y-84263532D01*
X660000Y-84263532D01*
X660000Y-79845000D01*
X2371928Y-79845000D01*
X2371928Y-81445000D01*
X2384188Y-81569482D01*
X2420498Y-81689180D01*
X2479463Y-81799494D01*
X2558815Y-81896185D01*
X2655506Y-81975537D01*
X2765820Y-82034502D01*
X2885518Y-82070812D01*
X3010000Y-82083072D01*
X4610000Y-82083072D01*
X4734482Y-82070812D01*
X4854180Y-82034502D01*
X4964494Y-81975537D01*
X5061185Y-81896185D01*
X5140537Y-81799494D01*
X5154343Y-81773665D01*
X16345000Y-81773665D01*
X16345000Y-82056335D01*
X16400147Y-82333574D01*
X16508320Y-82594727D01*
X16665363Y-82829759D01*
X16865241Y-83029637D01*
X17100273Y-83186680D01*
X17361426Y-83294853D01*
X17638665Y-83350000D01*
X17921335Y-83350000D01*
X18198574Y-83294853D01*
X18459727Y-83186680D01*
X18694759Y-83029637D01*
X18894637Y-82829759D01*
X19051680Y-82594727D01*
X19159853Y-82333574D01*
X19215000Y-82056335D01*
X19215000Y-81773665D01*
X19159853Y-81496426D01*
X19051680Y-81235273D01*
X18894637Y-81000241D01*
X18694759Y-80800363D01*
X18459727Y-80643320D01*
X18198574Y-80535147D01*
X17921335Y-80480000D01*
X17638665Y-80480000D01*
X17361426Y-80535147D01*
X17100273Y-80643320D01*
X16865241Y-80800363D01*
X16665363Y-81000241D01*
X16508320Y-81235273D01*
X16400147Y-81496426D01*
X16345000Y-81773665D01*
X5154343Y-81773665D01*
X5199502Y-81689180D01*
X5235812Y-81569482D01*
X5248072Y-81445000D01*
X5248072Y-79845000D01*
X5235812Y-79720518D01*
X5211388Y-79640000D01*
X17511928Y-79640000D01*
X17524188Y-79764482D01*
X17560498Y-79884180D01*
X17619463Y-79994494D01*
X17698815Y-80091185D01*
X17795506Y-80170537D01*
X17905820Y-80229502D01*
X18025518Y-80265812D01*
X18150000Y-80278072D01*
X18764250Y-80275000D01*
X18923000Y-80116250D01*
X18923000Y-78867000D01*
X19177000Y-78867000D01*
X19177000Y-80116250D01*
X19335750Y-80275000D01*
X19950000Y-80278072D01*
X20074482Y-80265812D01*
X20194180Y-80229502D01*
X20304494Y-80170537D01*
X20401185Y-80091185D01*
X20480537Y-79994494D01*
X20539502Y-79884180D01*
X20575812Y-79764482D01*
X20588072Y-79640000D01*
X20585000Y-79025750D01*
X20426250Y-78867000D01*
X19177000Y-78867000D01*
X18923000Y-78867000D01*
X17673750Y-78867000D01*
X17515000Y-79025750D01*
X17511928Y-79640000D01*
X5211388Y-79640000D01*
X5199502Y-79600820D01*
X5140537Y-79490506D01*
X5061185Y-79393815D01*
X4964494Y-79314463D01*
X4854180Y-79255498D01*
X4734482Y-79219188D01*
X4726039Y-79218357D01*
X4924637Y-79019759D01*
X5081680Y-78784727D01*
X5189853Y-78523574D01*
X5245000Y-78246335D01*
X5245000Y-77963665D01*
X5220402Y-77840000D01*
X17511928Y-77840000D01*
X17515000Y-78454250D01*
X17673750Y-78613000D01*
X18923000Y-78613000D01*
X18923000Y-78593000D01*
X19177000Y-78593000D01*
X19177000Y-78613000D01*
X20426250Y-78613000D01*
X20585000Y-78454250D01*
X20588072Y-77840000D01*
X20575812Y-77715518D01*
X20539860Y-77597000D01*
X23985000Y-77597000D01*
X23985000Y-78097000D01*
X24034467Y-78345251D01*
X24131415Y-78579081D01*
X24272118Y-78789505D01*
X24451170Y-78968436D01*
X24661689Y-79108997D01*
X24895585Y-79205787D01*
X24944529Y-79213099D01*
X25143000Y-79089067D01*
X25143000Y-77597000D01*
X25397000Y-77597000D01*
X25397000Y-79089067D01*
X25595471Y-79213099D01*
X25644415Y-79205787D01*
X25878311Y-79108997D01*
X26088830Y-78968436D01*
X26267882Y-78789505D01*
X26408585Y-78579081D01*
X26505533Y-78345251D01*
X26555000Y-78097000D01*
X26555000Y-77597000D01*
X25397000Y-77597000D01*
X25143000Y-77597000D01*
X23985000Y-77597000D01*
X20539860Y-77597000D01*
X20539502Y-77595820D01*
X20480537Y-77485506D01*
X20401185Y-77388815D01*
X20304494Y-77309463D01*
X20194180Y-77250498D01*
X20175873Y-77244944D01*
X20242312Y-77178505D01*
X20410299Y-76927095D01*
X20445132Y-76843000D01*
X23985000Y-76843000D01*
X23985000Y-77343000D01*
X25143000Y-77343000D01*
X25143000Y-75850933D01*
X25397000Y-75850933D01*
X25397000Y-77343000D01*
X26555000Y-77343000D01*
X26555000Y-76906877D01*
X27085000Y-76906877D01*
X27085000Y-78033122D01*
X27103593Y-78221903D01*
X27177071Y-78464126D01*
X27296392Y-78687361D01*
X27456972Y-78883028D01*
X27652638Y-79043608D01*
X27875873Y-79162929D01*
X28118096Y-79236407D01*
X28370000Y-79261217D01*
X28621903Y-79236407D01*
X28864126Y-79162929D01*
X29087361Y-79043608D01*
X29283028Y-78883028D01*
X29443608Y-78687362D01*
X29562929Y-78464127D01*
X29570262Y-78439953D01*
X29636440Y-78599721D01*
X29897450Y-78990349D01*
X30229651Y-79322550D01*
X30620279Y-79583560D01*
X31054321Y-79763346D01*
X31515098Y-79855000D01*
X31984902Y-79855000D01*
X32445679Y-79763346D01*
X32879721Y-79583560D01*
X33270349Y-79322550D01*
X33602550Y-78990349D01*
X33863560Y-78599721D01*
X34043346Y-78165679D01*
X34135000Y-77704902D01*
X34135000Y-77235098D01*
X34043346Y-76774321D01*
X33863560Y-76340279D01*
X33602550Y-75949651D01*
X33270349Y-75617450D01*
X32879721Y-75356440D01*
X32445679Y-75176654D01*
X31984902Y-75085000D01*
X31515098Y-75085000D01*
X31054321Y-75176654D01*
X30620279Y-75356440D01*
X30229651Y-75617450D01*
X29897450Y-75949651D01*
X29636440Y-76340279D01*
X29570262Y-76500047D01*
X29562929Y-76475873D01*
X29443608Y-76252638D01*
X29283028Y-76056972D01*
X29087362Y-75896392D01*
X28864127Y-75777071D01*
X28621904Y-75703593D01*
X28370000Y-75678783D01*
X28118097Y-75703593D01*
X27875874Y-75777071D01*
X27652639Y-75896392D01*
X27456973Y-76056972D01*
X27296392Y-76252638D01*
X27177071Y-76475873D01*
X27103593Y-76718096D01*
X27085000Y-76906877D01*
X26555000Y-76906877D01*
X26555000Y-76843000D01*
X26505533Y-76594749D01*
X26408585Y-76360919D01*
X26267882Y-76150495D01*
X26088830Y-75971564D01*
X25878311Y-75831003D01*
X25644415Y-75734213D01*
X25595471Y-75726901D01*
X25397000Y-75850933D01*
X25143000Y-75850933D01*
X24944529Y-75726901D01*
X24895585Y-75734213D01*
X24661689Y-75831003D01*
X24451170Y-75971564D01*
X24272118Y-76150495D01*
X24131415Y-76360919D01*
X24034467Y-76594749D01*
X23985000Y-76843000D01*
X20445132Y-76843000D01*
X20526011Y-76647743D01*
X20585000Y-76351184D01*
X20585000Y-76048816D01*
X20533731Y-75791070D01*
X22539802Y-73785000D01*
X24181957Y-73785000D01*
X24285363Y-73939759D01*
X24485241Y-74139637D01*
X24720273Y-74296680D01*
X24981426Y-74404853D01*
X25258665Y-74460000D01*
X25541335Y-74460000D01*
X25818574Y-74404853D01*
X26079727Y-74296680D01*
X26314759Y-74139637D01*
X26514637Y-73939759D01*
X26671680Y-73704727D01*
X26779853Y-73443574D01*
X26835000Y-73166335D01*
X26835000Y-72883665D01*
X26779853Y-72606426D01*
X26671680Y-72345273D01*
X26514637Y-72110241D01*
X26314759Y-71910363D01*
X26079727Y-71753320D01*
X25818574Y-71645147D01*
X25541335Y-71590000D01*
X25258665Y-71590000D01*
X24981426Y-71645147D01*
X24720273Y-71753320D01*
X24485241Y-71910363D01*
X24285363Y-72110241D01*
X24181957Y-72265000D01*
X22262322Y-72265000D01*
X22224999Y-72261324D01*
X22187676Y-72265000D01*
X22187667Y-72265000D01*
X22076014Y-72275997D01*
X21932753Y-72319454D01*
X21800723Y-72390026D01*
X21717083Y-72458668D01*
X21684999Y-72484999D01*
X21661201Y-72513997D01*
X19458930Y-74716269D01*
X19201184Y-74665000D01*
X18898816Y-74665000D01*
X18602257Y-74723989D01*
X18322905Y-74839701D01*
X18071495Y-75007688D01*
X17857688Y-75221495D01*
X17689701Y-75472905D01*
X17573989Y-75752257D01*
X17515000Y-76048816D01*
X17515000Y-76351184D01*
X17573989Y-76647743D01*
X17689701Y-76927095D01*
X17857688Y-77178505D01*
X17924127Y-77244944D01*
X17905820Y-77250498D01*
X17795506Y-77309463D01*
X17698815Y-77388815D01*
X17619463Y-77485506D01*
X17560498Y-77595820D01*
X17524188Y-77715518D01*
X17511928Y-77840000D01*
X5220402Y-77840000D01*
X5189853Y-77686426D01*
X5081680Y-77425273D01*
X4924637Y-77190241D01*
X4724759Y-76990363D01*
X4489727Y-76833320D01*
X4228574Y-76725147D01*
X3951335Y-76670000D01*
X3668665Y-76670000D01*
X3391426Y-76725147D01*
X3130273Y-76833320D01*
X2895241Y-76990363D01*
X2695363Y-77190241D01*
X2538320Y-77425273D01*
X2430147Y-77686426D01*
X2375000Y-77963665D01*
X2375000Y-78246335D01*
X2430147Y-78523574D01*
X2538320Y-78784727D01*
X2695363Y-79019759D01*
X2893961Y-79218357D01*
X2885518Y-79219188D01*
X2765820Y-79255498D01*
X2655506Y-79314463D01*
X2558815Y-79393815D01*
X2479463Y-79490506D01*
X2420498Y-79600820D01*
X2384188Y-79720518D01*
X2371928Y-79845000D01*
X660000Y-79845000D01*
X660000Y-72923061D01*
X11030000Y-72923061D01*
X11030000Y-73126939D01*
X11069774Y-73326898D01*
X11147795Y-73515256D01*
X11261063Y-73684774D01*
X11405226Y-73828937D01*
X11574744Y-73942205D01*
X11763102Y-74020226D01*
X11963061Y-74060000D01*
X12166939Y-74060000D01*
X12366898Y-74020226D01*
X12555256Y-73942205D01*
X12724774Y-73828937D01*
X12768711Y-73785000D01*
X16561957Y-73785000D01*
X16665363Y-73939759D01*
X16865241Y-74139637D01*
X17100273Y-74296680D01*
X17361426Y-74404853D01*
X17638665Y-74460000D01*
X17921335Y-74460000D01*
X18198574Y-74404853D01*
X18459727Y-74296680D01*
X18694759Y-74139637D01*
X18894637Y-73939759D01*
X19051680Y-73704727D01*
X19159853Y-73443574D01*
X19215000Y-73166335D01*
X19215000Y-72883665D01*
X19159853Y-72606426D01*
X19051680Y-72345273D01*
X18894637Y-72110241D01*
X18694759Y-71910363D01*
X18459727Y-71753320D01*
X18198574Y-71645147D01*
X17921335Y-71590000D01*
X17638665Y-71590000D01*
X17361426Y-71645147D01*
X17100273Y-71753320D01*
X16865241Y-71910363D01*
X16665363Y-72110241D01*
X16561957Y-72265000D01*
X12768711Y-72265000D01*
X12724774Y-72221063D01*
X12555256Y-72107795D01*
X12366898Y-72029774D01*
X12166939Y-71990000D01*
X11963061Y-71990000D01*
X11763102Y-72029774D01*
X11574744Y-72107795D01*
X11405226Y-72221063D01*
X11261063Y-72365226D01*
X11147795Y-72534744D01*
X11069774Y-72723102D01*
X11030000Y-72923061D01*
X660000Y-72923061D01*
X660000Y-70343665D01*
X2375000Y-70343665D01*
X2375000Y-70626335D01*
X2430147Y-70903574D01*
X2538320Y-71164727D01*
X2695363Y-71399759D01*
X2895241Y-71599637D01*
X3130273Y-71756680D01*
X3391426Y-71864853D01*
X3668665Y-71920000D01*
X3951335Y-71920000D01*
X4228574Y-71864853D01*
X4489727Y-71756680D01*
X4724759Y-71599637D01*
X4924637Y-71399759D01*
X5081680Y-71164727D01*
X5189853Y-70903574D01*
X5245000Y-70626335D01*
X5245000Y-70343665D01*
X5189853Y-70066426D01*
X5081680Y-69805273D01*
X4924637Y-69570241D01*
X4724759Y-69370363D01*
X4489727Y-69213320D01*
X4228574Y-69105147D01*
X3951335Y-69050000D01*
X3668665Y-69050000D01*
X3391426Y-69105147D01*
X3130273Y-69213320D01*
X2895241Y-69370363D01*
X2695363Y-69570241D01*
X2538320Y-69805273D01*
X2430147Y-70066426D01*
X2375000Y-70343665D01*
X660000Y-70343665D01*
X660000Y-63993665D01*
X16345000Y-63993665D01*
X16345000Y-64276335D01*
X16400147Y-64553574D01*
X16508320Y-64814727D01*
X16665363Y-65049759D01*
X16865241Y-65249637D01*
X17100273Y-65406680D01*
X17361426Y-65514853D01*
X17638665Y-65570000D01*
X17921335Y-65570000D01*
X18198574Y-65514853D01*
X18459727Y-65406680D01*
X18694759Y-65249637D01*
X18894637Y-65049759D01*
X19051680Y-64814727D01*
X19159853Y-64553574D01*
X19215000Y-64276335D01*
X19215000Y-63993665D01*
X19159853Y-63716426D01*
X19051680Y-63455273D01*
X18894637Y-63220241D01*
X18694759Y-63020363D01*
X18459727Y-62863320D01*
X18198574Y-62755147D01*
X17921335Y-62700000D01*
X17638665Y-62700000D01*
X17361426Y-62755147D01*
X17100273Y-62863320D01*
X16865241Y-63020363D01*
X16665363Y-63220241D01*
X16508320Y-63455273D01*
X16400147Y-63716426D01*
X16345000Y-63993665D01*
X660000Y-63993665D01*
X660000Y-60813740D01*
X2325000Y-60813740D01*
X2325000Y-61106260D01*
X2382068Y-61393158D01*
X2494010Y-61663411D01*
X2656525Y-61906632D01*
X2863368Y-62113475D01*
X3106589Y-62275990D01*
X3376842Y-62387932D01*
X3663740Y-62445000D01*
X3956260Y-62445000D01*
X4243158Y-62387932D01*
X4513411Y-62275990D01*
X4756632Y-62113475D01*
X4963475Y-61906632D01*
X5125990Y-61663411D01*
X5237932Y-61393158D01*
X5253102Y-61316890D01*
X6813524Y-61316890D01*
X6858175Y-61464099D01*
X6983359Y-61726920D01*
X7157412Y-61960269D01*
X7373645Y-62155178D01*
X7623748Y-62304157D01*
X7898109Y-62401481D01*
X8128000Y-62280814D01*
X8128000Y-61087000D01*
X8382000Y-61087000D01*
X8382000Y-62280814D01*
X8611891Y-62401481D01*
X8886252Y-62304157D01*
X9136355Y-62155178D01*
X9352588Y-61960269D01*
X9427377Y-61860000D01*
X17511928Y-61860000D01*
X17524188Y-61984482D01*
X17560498Y-62104180D01*
X17619463Y-62214494D01*
X17698815Y-62311185D01*
X17795506Y-62390537D01*
X17905820Y-62449502D01*
X18025518Y-62485812D01*
X18150000Y-62498072D01*
X18764250Y-62495000D01*
X18923000Y-62336250D01*
X18923000Y-61087000D01*
X19177000Y-61087000D01*
X19177000Y-62336250D01*
X19335750Y-62495000D01*
X19950000Y-62498072D01*
X20074482Y-62485812D01*
X20194180Y-62449502D01*
X20304494Y-62390537D01*
X20401185Y-62311185D01*
X20480537Y-62214494D01*
X20539502Y-62104180D01*
X20575812Y-61984482D01*
X20588072Y-61860000D01*
X20585000Y-61245750D01*
X20426250Y-61087000D01*
X19177000Y-61087000D01*
X18923000Y-61087000D01*
X17673750Y-61087000D01*
X17515000Y-61245750D01*
X17511928Y-61860000D01*
X9427377Y-61860000D01*
X9526641Y-61726920D01*
X9651825Y-61464099D01*
X9696476Y-61316890D01*
X9575155Y-61087000D01*
X8382000Y-61087000D01*
X8128000Y-61087000D01*
X6934845Y-61087000D01*
X6813524Y-61316890D01*
X5253102Y-61316890D01*
X5295000Y-61106260D01*
X5295000Y-60813740D01*
X5237932Y-60526842D01*
X5125990Y-60256589D01*
X4963475Y-60013368D01*
X4756632Y-59806525D01*
X4574466Y-59684805D01*
X4691355Y-59615178D01*
X4907588Y-59420269D01*
X5081641Y-59186920D01*
X5206825Y-58924099D01*
X5251476Y-58776890D01*
X5130155Y-58547000D01*
X3937000Y-58547000D01*
X3937000Y-58567000D01*
X3683000Y-58567000D01*
X3683000Y-58547000D01*
X2489845Y-58547000D01*
X2368524Y-58776890D01*
X2413175Y-58924099D01*
X2538359Y-59186920D01*
X2712412Y-59420269D01*
X2928645Y-59615178D01*
X3045534Y-59684805D01*
X2863368Y-59806525D01*
X2656525Y-60013368D01*
X2494010Y-60256589D01*
X2382068Y-60526842D01*
X2325000Y-60813740D01*
X660000Y-60813740D01*
X660000Y-56236890D01*
X2368524Y-56236890D01*
X2413175Y-56384099D01*
X2538359Y-56646920D01*
X2712412Y-56880269D01*
X2928645Y-57075178D01*
X3054255Y-57150000D01*
X2928645Y-57224822D01*
X2712412Y-57419731D01*
X2538359Y-57653080D01*
X2413175Y-57915901D01*
X2368524Y-58063110D01*
X2489845Y-58293000D01*
X3683000Y-58293000D01*
X3683000Y-56007000D01*
X3937000Y-56007000D01*
X3937000Y-58293000D01*
X5130155Y-58293000D01*
X5251476Y-58063110D01*
X5206825Y-57915901D01*
X5081641Y-57653080D01*
X4907588Y-57419731D01*
X4691355Y-57224822D01*
X4565745Y-57150000D01*
X4691355Y-57075178D01*
X4907588Y-56880269D01*
X5081641Y-56646920D01*
X5206825Y-56384099D01*
X5251476Y-56236890D01*
X5130155Y-56007000D01*
X3937000Y-56007000D01*
X3683000Y-56007000D01*
X2489845Y-56007000D01*
X2368524Y-56236890D01*
X660000Y-56236890D01*
X660000Y-53696890D01*
X2368524Y-53696890D01*
X2413175Y-53844099D01*
X2538359Y-54106920D01*
X2712412Y-54340269D01*
X2928645Y-54535178D01*
X3054255Y-54610000D01*
X2928645Y-54684822D01*
X2712412Y-54879731D01*
X2538359Y-55113080D01*
X2413175Y-55375901D01*
X2368524Y-55523110D01*
X2489845Y-55753000D01*
X3683000Y-55753000D01*
X3683000Y-53467000D01*
X3937000Y-53467000D01*
X3937000Y-55753000D01*
X5130155Y-55753000D01*
X5251476Y-55523110D01*
X5206825Y-55375901D01*
X5081641Y-55113080D01*
X4907588Y-54879731D01*
X4691355Y-54684822D01*
X4565745Y-54610000D01*
X4691355Y-54535178D01*
X4907588Y-54340269D01*
X5081641Y-54106920D01*
X5206825Y-53844099D01*
X5251476Y-53696890D01*
X5130155Y-53467000D01*
X3937000Y-53467000D01*
X3683000Y-53467000D01*
X2489845Y-53467000D01*
X2368524Y-53696890D01*
X660000Y-53696890D01*
X660000Y-51156890D01*
X2368524Y-51156890D01*
X2413175Y-51304099D01*
X2538359Y-51566920D01*
X2712412Y-51800269D01*
X2928645Y-51995178D01*
X3054255Y-52070000D01*
X2928645Y-52144822D01*
X2712412Y-52339731D01*
X2538359Y-52573080D01*
X2413175Y-52835901D01*
X2368524Y-52983110D01*
X2489845Y-53213000D01*
X3683000Y-53213000D01*
X3683000Y-50927000D01*
X3937000Y-50927000D01*
X3937000Y-53213000D01*
X5130155Y-53213000D01*
X5251476Y-52983110D01*
X5206825Y-52835901D01*
X5081641Y-52573080D01*
X4907588Y-52339731D01*
X4691355Y-52144822D01*
X4565745Y-52070000D01*
X4691355Y-51995178D01*
X4907588Y-51800269D01*
X5081641Y-51566920D01*
X5206825Y-51304099D01*
X5251476Y-51156890D01*
X5130155Y-50927000D01*
X3937000Y-50927000D01*
X3683000Y-50927000D01*
X2489845Y-50927000D01*
X2368524Y-51156890D01*
X660000Y-51156890D01*
X660000Y-48616890D01*
X2368524Y-48616890D01*
X2413175Y-48764099D01*
X2538359Y-49026920D01*
X2712412Y-49260269D01*
X2928645Y-49455178D01*
X3054255Y-49530000D01*
X2928645Y-49604822D01*
X2712412Y-49799731D01*
X2538359Y-50033080D01*
X2413175Y-50295901D01*
X2368524Y-50443110D01*
X2489845Y-50673000D01*
X3683000Y-50673000D01*
X3683000Y-48387000D01*
X3937000Y-48387000D01*
X3937000Y-50673000D01*
X5130155Y-50673000D01*
X5251476Y-50443110D01*
X5206825Y-50295901D01*
X5081641Y-50033080D01*
X4907588Y-49799731D01*
X4691355Y-49604822D01*
X4565745Y-49530000D01*
X4691355Y-49455178D01*
X4907588Y-49260269D01*
X5081641Y-49026920D01*
X5206825Y-48764099D01*
X5251476Y-48616890D01*
X5130155Y-48387000D01*
X3937000Y-48387000D01*
X3683000Y-48387000D01*
X2489845Y-48387000D01*
X2368524Y-48616890D01*
X660000Y-48616890D01*
X660000Y-46076890D01*
X2368524Y-46076890D01*
X2413175Y-46224099D01*
X2538359Y-46486920D01*
X2712412Y-46720269D01*
X2928645Y-46915178D01*
X3054255Y-46990000D01*
X2928645Y-47064822D01*
X2712412Y-47259731D01*
X2538359Y-47493080D01*
X2413175Y-47755901D01*
X2368524Y-47903110D01*
X2489845Y-48133000D01*
X3683000Y-48133000D01*
X3683000Y-45847000D01*
X3937000Y-45847000D01*
X3937000Y-48133000D01*
X5130155Y-48133000D01*
X5251476Y-47903110D01*
X5206825Y-47755901D01*
X5081641Y-47493080D01*
X4907588Y-47259731D01*
X4691355Y-47064822D01*
X4565745Y-46990000D01*
X4691355Y-46915178D01*
X4907588Y-46720269D01*
X5081641Y-46486920D01*
X5206825Y-46224099D01*
X5251476Y-46076890D01*
X5130155Y-45847000D01*
X3937000Y-45847000D01*
X3683000Y-45847000D01*
X2489845Y-45847000D01*
X2368524Y-46076890D01*
X660000Y-46076890D01*
X660000Y-42330000D01*
X2321928Y-42330000D01*
X2321928Y-44030000D01*
X2334188Y-44154482D01*
X2370498Y-44274180D01*
X2429463Y-44384494D01*
X2508815Y-44481185D01*
X2605506Y-44560537D01*
X2715820Y-44619502D01*
X2796466Y-44643966D01*
X2712412Y-44719731D01*
X2538359Y-44953080D01*
X2413175Y-45215901D01*
X2368524Y-45363110D01*
X2489845Y-45593000D01*
X3683000Y-45593000D01*
X3683000Y-45573000D01*
X3937000Y-45573000D01*
X3937000Y-45593000D01*
X5130155Y-45593000D01*
X5251476Y-45363110D01*
X5206825Y-45215901D01*
X5081641Y-44953080D01*
X4907588Y-44719731D01*
X4823534Y-44643966D01*
X4904180Y-44619502D01*
X5014494Y-44560537D01*
X5111185Y-44481185D01*
X5190537Y-44384494D01*
X5249502Y-44274180D01*
X5285812Y-44154482D01*
X5298072Y-44030000D01*
X6766928Y-44030000D01*
X6779188Y-44154482D01*
X6815498Y-44274180D01*
X6874463Y-44384494D01*
X6953815Y-44481185D01*
X7050506Y-44560537D01*
X7160820Y-44619502D01*
X7233380Y-44641513D01*
X7101525Y-44773368D01*
X6939010Y-45016589D01*
X6827068Y-45286842D01*
X6770000Y-45573740D01*
X6770000Y-45866260D01*
X6827068Y-46153158D01*
X6939010Y-46423411D01*
X7101525Y-46666632D01*
X7308368Y-46873475D01*
X7482760Y-46990000D01*
X7308368Y-47106525D01*
X7101525Y-47313368D01*
X6939010Y-47556589D01*
X6827068Y-47826842D01*
X6770000Y-48113740D01*
X6770000Y-48406260D01*
X6827068Y-48693158D01*
X6939010Y-48963411D01*
X7101525Y-49206632D01*
X7308368Y-49413475D01*
X7482760Y-49530000D01*
X7308368Y-49646525D01*
X7101525Y-49853368D01*
X6939010Y-50096589D01*
X6827068Y-50366842D01*
X6770000Y-50653740D01*
X6770000Y-50946260D01*
X6827068Y-51233158D01*
X6939010Y-51503411D01*
X7101525Y-51746632D01*
X7308368Y-51953475D01*
X7482760Y-52070000D01*
X7308368Y-52186525D01*
X7101525Y-52393368D01*
X6939010Y-52636589D01*
X6827068Y-52906842D01*
X6770000Y-53193740D01*
X6770000Y-53486260D01*
X6827068Y-53773158D01*
X6939010Y-54043411D01*
X7101525Y-54286632D01*
X7308368Y-54493475D01*
X7482760Y-54610000D01*
X7308368Y-54726525D01*
X7101525Y-54933368D01*
X6939010Y-55176589D01*
X6827068Y-55446842D01*
X6770000Y-55733740D01*
X6770000Y-56026260D01*
X6827068Y-56313158D01*
X6939010Y-56583411D01*
X7101525Y-56826632D01*
X7308368Y-57033475D01*
X7482760Y-57150000D01*
X7308368Y-57266525D01*
X7101525Y-57473368D01*
X6939010Y-57716589D01*
X6827068Y-57986842D01*
X6770000Y-58273740D01*
X6770000Y-58566260D01*
X6827068Y-58853158D01*
X6939010Y-59123411D01*
X7101525Y-59366632D01*
X7308368Y-59573475D01*
X7490534Y-59695195D01*
X7373645Y-59764822D01*
X7157412Y-59959731D01*
X6983359Y-60193080D01*
X6858175Y-60455901D01*
X6813524Y-60603110D01*
X6934845Y-60833000D01*
X8128000Y-60833000D01*
X8128000Y-60813000D01*
X8382000Y-60813000D01*
X8382000Y-60833000D01*
X9575155Y-60833000D01*
X9696476Y-60603110D01*
X9651825Y-60455901D01*
X9526641Y-60193080D01*
X9427378Y-60060000D01*
X17511928Y-60060000D01*
X17515000Y-60674250D01*
X17673750Y-60833000D01*
X18923000Y-60833000D01*
X18923000Y-60813000D01*
X19177000Y-60813000D01*
X19177000Y-60833000D01*
X20426250Y-60833000D01*
X20585000Y-60674250D01*
X20588072Y-60060000D01*
X20575812Y-59935518D01*
X20539860Y-59817000D01*
X23985000Y-59817000D01*
X23985000Y-60317000D01*
X24034467Y-60565251D01*
X24131415Y-60799081D01*
X24272118Y-61009505D01*
X24451170Y-61188436D01*
X24661689Y-61328997D01*
X24895585Y-61425787D01*
X24944529Y-61433099D01*
X25143000Y-61309067D01*
X25143000Y-59817000D01*
X25397000Y-59817000D01*
X25397000Y-61309067D01*
X25595471Y-61433099D01*
X25644415Y-61425787D01*
X25878311Y-61328997D01*
X26088830Y-61188436D01*
X26267882Y-61009505D01*
X26408585Y-60799081D01*
X26505533Y-60565251D01*
X26555000Y-60317000D01*
X26555000Y-59817000D01*
X25397000Y-59817000D01*
X25143000Y-59817000D01*
X23985000Y-59817000D01*
X20539860Y-59817000D01*
X20539502Y-59815820D01*
X20480537Y-59705506D01*
X20401185Y-59608815D01*
X20304494Y-59529463D01*
X20194180Y-59470498D01*
X20175873Y-59464944D01*
X20242312Y-59398505D01*
X20410299Y-59147095D01*
X20445132Y-59063000D01*
X23985000Y-59063000D01*
X23985000Y-59563000D01*
X25143000Y-59563000D01*
X25143000Y-58070933D01*
X25397000Y-58070933D01*
X25397000Y-59563000D01*
X26555000Y-59563000D01*
X26555000Y-59126877D01*
X27085000Y-59126877D01*
X27085000Y-60253122D01*
X27103593Y-60441903D01*
X27177071Y-60684126D01*
X27296392Y-60907361D01*
X27456972Y-61103028D01*
X27652638Y-61263608D01*
X27875873Y-61382929D01*
X28118096Y-61456407D01*
X28370000Y-61481217D01*
X28621903Y-61456407D01*
X28864126Y-61382929D01*
X29087361Y-61263608D01*
X29283028Y-61103028D01*
X29443608Y-60907362D01*
X29562929Y-60684127D01*
X29570262Y-60659953D01*
X29636440Y-60819721D01*
X29897450Y-61210349D01*
X30229651Y-61542550D01*
X30620279Y-61803560D01*
X31054321Y-61983346D01*
X31515098Y-62075000D01*
X31984902Y-62075000D01*
X32445679Y-61983346D01*
X32879721Y-61803560D01*
X33270349Y-61542550D01*
X33602550Y-61210349D01*
X33863560Y-60819721D01*
X34043346Y-60385679D01*
X34135000Y-59924902D01*
X34135000Y-59455098D01*
X34043346Y-58994321D01*
X33863560Y-58560279D01*
X33602550Y-58169651D01*
X33270349Y-57837450D01*
X32879721Y-57576440D01*
X32445679Y-57396654D01*
X31984902Y-57305000D01*
X31515098Y-57305000D01*
X31054321Y-57396654D01*
X30620279Y-57576440D01*
X30229651Y-57837450D01*
X29897450Y-58169651D01*
X29636440Y-58560279D01*
X29570262Y-58720047D01*
X29562929Y-58695873D01*
X29443608Y-58472638D01*
X29283028Y-58276972D01*
X29087362Y-58116392D01*
X28864127Y-57997071D01*
X28621904Y-57923593D01*
X28370000Y-57898783D01*
X28118097Y-57923593D01*
X27875874Y-57997071D01*
X27652639Y-58116392D01*
X27456973Y-58276972D01*
X27296392Y-58472638D01*
X27177071Y-58695873D01*
X27103593Y-58938096D01*
X27085000Y-59126877D01*
X26555000Y-59126877D01*
X26555000Y-59063000D01*
X26505533Y-58814749D01*
X26408585Y-58580919D01*
X26267882Y-58370495D01*
X26088830Y-58191564D01*
X25878311Y-58051003D01*
X25644415Y-57954213D01*
X25595471Y-57946901D01*
X25397000Y-58070933D01*
X25143000Y-58070933D01*
X24944529Y-57946901D01*
X24895585Y-57954213D01*
X24661689Y-58051003D01*
X24451170Y-58191564D01*
X24272118Y-58370495D01*
X24131415Y-58580919D01*
X24034467Y-58814749D01*
X23985000Y-59063000D01*
X20445132Y-59063000D01*
X20526011Y-58867743D01*
X20585000Y-58571184D01*
X20585000Y-58268816D01*
X20533731Y-58011070D01*
X22539802Y-56005000D01*
X24181957Y-56005000D01*
X24285363Y-56159759D01*
X24485241Y-56359637D01*
X24720273Y-56516680D01*
X24981426Y-56624853D01*
X25258665Y-56680000D01*
X25541335Y-56680000D01*
X25818574Y-56624853D01*
X26079727Y-56516680D01*
X26314759Y-56359637D01*
X26514637Y-56159759D01*
X26671680Y-55924727D01*
X26779853Y-55663574D01*
X26835000Y-55386335D01*
X26835000Y-55103665D01*
X26779853Y-54826426D01*
X26671680Y-54565273D01*
X26514637Y-54330241D01*
X26314759Y-54130363D01*
X26079727Y-53973320D01*
X25818574Y-53865147D01*
X25541335Y-53810000D01*
X25258665Y-53810000D01*
X24981426Y-53865147D01*
X24720273Y-53973320D01*
X24485241Y-54130363D01*
X24285363Y-54330241D01*
X24181957Y-54485000D01*
X22262322Y-54485000D01*
X22224999Y-54481324D01*
X22187676Y-54485000D01*
X22187667Y-54485000D01*
X22076014Y-54495997D01*
X21944657Y-54535843D01*
X21932753Y-54539454D01*
X21800723Y-54610026D01*
X21717083Y-54678668D01*
X21684999Y-54704999D01*
X21661201Y-54733997D01*
X19458930Y-56936269D01*
X19201184Y-56885000D01*
X18898816Y-56885000D01*
X18602257Y-56943989D01*
X18322905Y-57059701D01*
X18071495Y-57227688D01*
X17857688Y-57441495D01*
X17689701Y-57692905D01*
X17573989Y-57972257D01*
X17515000Y-58268816D01*
X17515000Y-58571184D01*
X17573989Y-58867743D01*
X17689701Y-59147095D01*
X17857688Y-59398505D01*
X17924127Y-59464944D01*
X17905820Y-59470498D01*
X17795506Y-59529463D01*
X17698815Y-59608815D01*
X17619463Y-59705506D01*
X17560498Y-59815820D01*
X17524188Y-59935518D01*
X17511928Y-60060000D01*
X9427378Y-60060000D01*
X9352588Y-59959731D01*
X9136355Y-59764822D01*
X9019466Y-59695195D01*
X9201632Y-59573475D01*
X9408475Y-59366632D01*
X9533178Y-59180000D01*
X10091289Y-59180000D01*
X10135226Y-59223937D01*
X10304744Y-59337205D01*
X10493102Y-59415226D01*
X10693061Y-59455000D01*
X10896939Y-59455000D01*
X11096898Y-59415226D01*
X11285256Y-59337205D01*
X11454774Y-59223937D01*
X11598937Y-59079774D01*
X11712205Y-58910256D01*
X11790226Y-58721898D01*
X11830000Y-58521939D01*
X11830000Y-58318061D01*
X11790226Y-58118102D01*
X11712205Y-57929744D01*
X11598937Y-57760226D01*
X11454774Y-57616063D01*
X11285256Y-57502795D01*
X11096898Y-57424774D01*
X10896939Y-57385000D01*
X10693061Y-57385000D01*
X10493102Y-57424774D01*
X10304744Y-57502795D01*
X10135226Y-57616063D01*
X10091289Y-57660000D01*
X9533178Y-57660000D01*
X9408475Y-57473368D01*
X9201632Y-57266525D01*
X9027240Y-57150000D01*
X9201632Y-57033475D01*
X9408475Y-56826632D01*
X9533178Y-56640000D01*
X11361289Y-56640000D01*
X11405226Y-56683937D01*
X11574744Y-56797205D01*
X11763102Y-56875226D01*
X11963061Y-56915000D01*
X12166939Y-56915000D01*
X12366898Y-56875226D01*
X12555256Y-56797205D01*
X12724774Y-56683937D01*
X12868937Y-56539774D01*
X12982205Y-56370256D01*
X13060226Y-56181898D01*
X13100000Y-55981939D01*
X13100000Y-55778061D01*
X13060226Y-55578102D01*
X12982205Y-55389744D01*
X12868937Y-55220226D01*
X12724774Y-55076063D01*
X12555256Y-54962795D01*
X12366898Y-54884774D01*
X12166939Y-54845000D01*
X11963061Y-54845000D01*
X11763102Y-54884774D01*
X11574744Y-54962795D01*
X11405226Y-55076063D01*
X11361289Y-55120000D01*
X9533178Y-55120000D01*
X9408475Y-54933368D01*
X9201632Y-54726525D01*
X9027240Y-54610000D01*
X9201632Y-54493475D01*
X9408475Y-54286632D01*
X9533178Y-54100000D01*
X13020199Y-54100000D01*
X14676201Y-55756003D01*
X14699999Y-55785001D01*
X14815724Y-55879974D01*
X14947753Y-55950546D01*
X15091014Y-55994003D01*
X15202667Y-56005000D01*
X15202677Y-56005000D01*
X15240000Y-56008676D01*
X15277323Y-56005000D01*
X16561957Y-56005000D01*
X16665363Y-56159759D01*
X16865241Y-56359637D01*
X17100273Y-56516680D01*
X17361426Y-56624853D01*
X17638665Y-56680000D01*
X17921335Y-56680000D01*
X18198574Y-56624853D01*
X18459727Y-56516680D01*
X18694759Y-56359637D01*
X18894637Y-56159759D01*
X19051680Y-55924727D01*
X19159853Y-55663574D01*
X19215000Y-55386335D01*
X19215000Y-55103665D01*
X19159853Y-54826426D01*
X19051680Y-54565273D01*
X18894637Y-54330241D01*
X18694759Y-54130363D01*
X18459727Y-53973320D01*
X18198574Y-53865147D01*
X17921335Y-53810000D01*
X17638665Y-53810000D01*
X17361426Y-53865147D01*
X17100273Y-53973320D01*
X16865241Y-54130363D01*
X16665363Y-54330241D01*
X16561957Y-54485000D01*
X15554802Y-54485000D01*
X13898804Y-52829003D01*
X13875001Y-52799999D01*
X13759276Y-52705026D01*
X13627247Y-52634454D01*
X13483986Y-52590997D01*
X13372333Y-52580000D01*
X13372322Y-52580000D01*
X13335000Y-52576324D01*
X13297678Y-52580000D01*
X9533178Y-52580000D01*
X9408475Y-52393368D01*
X9201632Y-52186525D01*
X9027240Y-52070000D01*
X9201632Y-51953475D01*
X9408475Y-51746632D01*
X9533178Y-51560000D01*
X12631289Y-51560000D01*
X12675226Y-51603937D01*
X12844744Y-51717205D01*
X13033102Y-51795226D01*
X13233061Y-51835000D01*
X13436939Y-51835000D01*
X13636898Y-51795226D01*
X13825256Y-51717205D01*
X13994774Y-51603937D01*
X14138937Y-51459774D01*
X14252205Y-51290256D01*
X14330226Y-51101898D01*
X14370000Y-50901939D01*
X14370000Y-50698061D01*
X14330226Y-50498102D01*
X14252205Y-50309744D01*
X14138937Y-50140226D01*
X13994774Y-49996063D01*
X13825256Y-49882795D01*
X13636898Y-49804774D01*
X13436939Y-49765000D01*
X13233061Y-49765000D01*
X13033102Y-49804774D01*
X12844744Y-49882795D01*
X12675226Y-49996063D01*
X12631289Y-50040000D01*
X9533178Y-50040000D01*
X9408475Y-49853368D01*
X9201632Y-49646525D01*
X9027240Y-49530000D01*
X9201632Y-49413475D01*
X9408475Y-49206632D01*
X9533178Y-49020000D01*
X11361289Y-49020000D01*
X11405226Y-49063937D01*
X11574744Y-49177205D01*
X11763102Y-49255226D01*
X11963061Y-49295000D01*
X12166939Y-49295000D01*
X12366898Y-49255226D01*
X12555256Y-49177205D01*
X12724774Y-49063937D01*
X12868937Y-48919774D01*
X12982205Y-48750256D01*
X13060226Y-48561898D01*
X13100000Y-48361939D01*
X13100000Y-48158061D01*
X13060226Y-47958102D01*
X12982205Y-47769744D01*
X12868937Y-47600226D01*
X12724774Y-47456063D01*
X12555256Y-47342795D01*
X12366898Y-47264774D01*
X12166939Y-47225000D01*
X11963061Y-47225000D01*
X11763102Y-47264774D01*
X11574744Y-47342795D01*
X11405226Y-47456063D01*
X11361289Y-47500000D01*
X9533178Y-47500000D01*
X9408475Y-47313368D01*
X9201632Y-47106525D01*
X9027240Y-46990000D01*
X9201632Y-46873475D01*
X9408475Y-46666632D01*
X9533178Y-46480000D01*
X10091289Y-46480000D01*
X10135226Y-46523937D01*
X10304744Y-46637205D01*
X10493102Y-46715226D01*
X10693061Y-46755000D01*
X10896939Y-46755000D01*
X11096898Y-46715226D01*
X11285256Y-46637205D01*
X11454774Y-46523937D01*
X11598937Y-46379774D01*
X11683603Y-46253061D01*
X12300000Y-46253061D01*
X12300000Y-46456939D01*
X12339774Y-46656898D01*
X12417795Y-46845256D01*
X12531063Y-47014774D01*
X12675226Y-47158937D01*
X12844744Y-47272205D01*
X13033102Y-47350226D01*
X13233061Y-47390000D01*
X13436939Y-47390000D01*
X13636898Y-47350226D01*
X13825256Y-47272205D01*
X13994774Y-47158937D01*
X14038711Y-47115000D01*
X16561957Y-47115000D01*
X16665363Y-47269759D01*
X16865241Y-47469637D01*
X17100273Y-47626680D01*
X17361426Y-47734853D01*
X17638665Y-47790000D01*
X17921335Y-47790000D01*
X18198574Y-47734853D01*
X18459727Y-47626680D01*
X18694759Y-47469637D01*
X18894637Y-47269759D01*
X19051680Y-47034727D01*
X19159853Y-46773574D01*
X19215000Y-46496335D01*
X19215000Y-46213665D01*
X19159853Y-45936426D01*
X19051680Y-45675273D01*
X18894637Y-45440241D01*
X18694759Y-45240363D01*
X18459727Y-45083320D01*
X18198574Y-44975147D01*
X17921335Y-44920000D01*
X17638665Y-44920000D01*
X17361426Y-44975147D01*
X17100273Y-45083320D01*
X16865241Y-45240363D01*
X16665363Y-45440241D01*
X16561957Y-45595000D01*
X14038711Y-45595000D01*
X13994774Y-45551063D01*
X13825256Y-45437795D01*
X13636898Y-45359774D01*
X13436939Y-45320000D01*
X13233061Y-45320000D01*
X13033102Y-45359774D01*
X12844744Y-45437795D01*
X12675226Y-45551063D01*
X12531063Y-45695226D01*
X12417795Y-45864744D01*
X12339774Y-46053102D01*
X12300000Y-46253061D01*
X11683603Y-46253061D01*
X11712205Y-46210256D01*
X11790226Y-46021898D01*
X11830000Y-45821939D01*
X11830000Y-45618061D01*
X11790226Y-45418102D01*
X11712205Y-45229744D01*
X11598937Y-45060226D01*
X11454774Y-44916063D01*
X11285256Y-44802795D01*
X11096898Y-44724774D01*
X10896939Y-44685000D01*
X10693061Y-44685000D01*
X10493102Y-44724774D01*
X10304744Y-44802795D01*
X10135226Y-44916063D01*
X10091289Y-44960000D01*
X9533178Y-44960000D01*
X9408475Y-44773368D01*
X9276620Y-44641513D01*
X9349180Y-44619502D01*
X9459494Y-44560537D01*
X9556185Y-44481185D01*
X9635537Y-44384494D01*
X9694502Y-44274180D01*
X9730812Y-44154482D01*
X9738147Y-44080000D01*
X17511928Y-44080000D01*
X17524188Y-44204482D01*
X17560498Y-44324180D01*
X17619463Y-44434494D01*
X17698815Y-44531185D01*
X17795506Y-44610537D01*
X17905820Y-44669502D01*
X18025518Y-44705812D01*
X18150000Y-44718072D01*
X18764250Y-44715000D01*
X18923000Y-44556250D01*
X18923000Y-43307000D01*
X19177000Y-43307000D01*
X19177000Y-44556250D01*
X19335750Y-44715000D01*
X19950000Y-44718072D01*
X20074482Y-44705812D01*
X20194180Y-44669502D01*
X20304494Y-44610537D01*
X20401185Y-44531185D01*
X20480537Y-44434494D01*
X20539502Y-44324180D01*
X20575812Y-44204482D01*
X20588072Y-44080000D01*
X20585000Y-43465750D01*
X20426250Y-43307000D01*
X19177000Y-43307000D01*
X18923000Y-43307000D01*
X17673750Y-43307000D01*
X17515000Y-43465750D01*
X17511928Y-44080000D01*
X9738147Y-44080000D01*
X9743072Y-44030000D01*
X9740000Y-43465750D01*
X9581250Y-43307000D01*
X8382000Y-43307000D01*
X8382000Y-43327000D01*
X8128000Y-43327000D01*
X8128000Y-43307000D01*
X6928750Y-43307000D01*
X6770000Y-43465750D01*
X6766928Y-44030000D01*
X5298072Y-44030000D01*
X5298072Y-42330000D01*
X6766928Y-42330000D01*
X6770000Y-42894250D01*
X6928750Y-43053000D01*
X8128000Y-43053000D01*
X8128000Y-41853750D01*
X8382000Y-41853750D01*
X8382000Y-43053000D01*
X9581250Y-43053000D01*
X9740000Y-42894250D01*
X9743072Y-42330000D01*
X9738148Y-42280000D01*
X17511928Y-42280000D01*
X17515000Y-42894250D01*
X17673750Y-43053000D01*
X18923000Y-43053000D01*
X18923000Y-43033000D01*
X19177000Y-43033000D01*
X19177000Y-43053000D01*
X20426250Y-43053000D01*
X20585000Y-42894250D01*
X20588072Y-42280000D01*
X20575812Y-42155518D01*
X20539860Y-42037000D01*
X23985000Y-42037000D01*
X23985000Y-42537000D01*
X24034467Y-42785251D01*
X24131415Y-43019081D01*
X24272118Y-43229505D01*
X24451170Y-43408436D01*
X24661689Y-43548997D01*
X24895585Y-43645787D01*
X24944529Y-43653099D01*
X25143000Y-43529067D01*
X25143000Y-42037000D01*
X25397000Y-42037000D01*
X25397000Y-43529067D01*
X25595471Y-43653099D01*
X25644415Y-43645787D01*
X25878311Y-43548997D01*
X26088830Y-43408436D01*
X26267882Y-43229505D01*
X26408585Y-43019081D01*
X26505533Y-42785251D01*
X26555000Y-42537000D01*
X26555000Y-42037000D01*
X25397000Y-42037000D01*
X25143000Y-42037000D01*
X23985000Y-42037000D01*
X20539860Y-42037000D01*
X20539502Y-42035820D01*
X20480537Y-41925506D01*
X20401185Y-41828815D01*
X20304494Y-41749463D01*
X20194180Y-41690498D01*
X20175873Y-41684944D01*
X20242312Y-41618505D01*
X20410299Y-41367095D01*
X20445132Y-41283000D01*
X23985000Y-41283000D01*
X23985000Y-41783000D01*
X25143000Y-41783000D01*
X25143000Y-40290933D01*
X25397000Y-40290933D01*
X25397000Y-41783000D01*
X26555000Y-41783000D01*
X26555000Y-41346877D01*
X27085000Y-41346877D01*
X27085000Y-42473122D01*
X27103593Y-42661903D01*
X27177071Y-42904126D01*
X27296392Y-43127361D01*
X27456972Y-43323028D01*
X27652638Y-43483608D01*
X27875873Y-43602929D01*
X28118096Y-43676407D01*
X28370000Y-43701217D01*
X28621903Y-43676407D01*
X28864126Y-43602929D01*
X29087361Y-43483608D01*
X29283028Y-43323028D01*
X29443608Y-43127362D01*
X29562929Y-42904127D01*
X29570262Y-42879953D01*
X29636440Y-43039721D01*
X29897450Y-43430349D01*
X30229651Y-43762550D01*
X30620279Y-44023560D01*
X31054321Y-44203346D01*
X31515098Y-44295000D01*
X31984902Y-44295000D01*
X32445679Y-44203346D01*
X32879721Y-44023560D01*
X33270349Y-43762550D01*
X33602550Y-43430349D01*
X33863560Y-43039721D01*
X34043346Y-42605679D01*
X34135000Y-42144902D01*
X34135000Y-41675098D01*
X34043346Y-41214321D01*
X33863560Y-40780279D01*
X33602550Y-40389651D01*
X33270349Y-40057450D01*
X32879721Y-39796440D01*
X32445679Y-39616654D01*
X31984902Y-39525000D01*
X31515098Y-39525000D01*
X31054321Y-39616654D01*
X30620279Y-39796440D01*
X30229651Y-40057450D01*
X29897450Y-40389651D01*
X29636440Y-40780279D01*
X29570262Y-40940047D01*
X29562929Y-40915873D01*
X29443608Y-40692638D01*
X29283028Y-40496972D01*
X29087362Y-40336392D01*
X28864127Y-40217071D01*
X28621904Y-40143593D01*
X28370000Y-40118783D01*
X28118097Y-40143593D01*
X27875874Y-40217071D01*
X27652639Y-40336392D01*
X27456973Y-40496972D01*
X27296392Y-40692638D01*
X27177071Y-40915873D01*
X27103593Y-41158096D01*
X27085000Y-41346877D01*
X26555000Y-41346877D01*
X26555000Y-41283000D01*
X26505533Y-41034749D01*
X26408585Y-40800919D01*
X26267882Y-40590495D01*
X26088830Y-40411564D01*
X25878311Y-40271003D01*
X25644415Y-40174213D01*
X25595471Y-40166901D01*
X25397000Y-40290933D01*
X25143000Y-40290933D01*
X24944529Y-40166901D01*
X24895585Y-40174213D01*
X24661689Y-40271003D01*
X24451170Y-40411564D01*
X24272118Y-40590495D01*
X24131415Y-40800919D01*
X24034467Y-41034749D01*
X23985000Y-41283000D01*
X20445132Y-41283000D01*
X20526011Y-41087743D01*
X20585000Y-40791184D01*
X20585000Y-40488816D01*
X20533731Y-40231070D01*
X22539802Y-38225000D01*
X24181957Y-38225000D01*
X24285363Y-38379759D01*
X24485241Y-38579637D01*
X24720273Y-38736680D01*
X24981426Y-38844853D01*
X25258665Y-38900000D01*
X25541335Y-38900000D01*
X25818574Y-38844853D01*
X26079727Y-38736680D01*
X26314759Y-38579637D01*
X26514637Y-38379759D01*
X26671680Y-38144727D01*
X26779853Y-37883574D01*
X26835000Y-37606335D01*
X26835000Y-37323665D01*
X26779853Y-37046426D01*
X26671680Y-36785273D01*
X26514637Y-36550241D01*
X26314759Y-36350363D01*
X26079727Y-36193320D01*
X25818574Y-36085147D01*
X25541335Y-36030000D01*
X25258665Y-36030000D01*
X24981426Y-36085147D01*
X24720273Y-36193320D01*
X24485241Y-36350363D01*
X24285363Y-36550241D01*
X24181957Y-36705000D01*
X22262322Y-36705000D01*
X22224999Y-36701324D01*
X22187676Y-36705000D01*
X22187667Y-36705000D01*
X22076014Y-36715997D01*
X21932753Y-36759454D01*
X21800723Y-36830026D01*
X21717083Y-36898668D01*
X21684999Y-36924999D01*
X21661201Y-36953997D01*
X19458930Y-39156269D01*
X19201184Y-39105000D01*
X18898816Y-39105000D01*
X18602257Y-39163989D01*
X18322905Y-39279701D01*
X18071495Y-39447688D01*
X17857688Y-39661495D01*
X17689701Y-39912905D01*
X17573989Y-40192257D01*
X17515000Y-40488816D01*
X17515000Y-40791184D01*
X17573989Y-41087743D01*
X17689701Y-41367095D01*
X17857688Y-41618505D01*
X17924127Y-41684944D01*
X17905820Y-41690498D01*
X17795506Y-41749463D01*
X17698815Y-41828815D01*
X17619463Y-41925506D01*
X17560498Y-42035820D01*
X17524188Y-42155518D01*
X17511928Y-42280000D01*
X9738148Y-42280000D01*
X9730812Y-42205518D01*
X9694502Y-42085820D01*
X9635537Y-41975506D01*
X9556185Y-41878815D01*
X9459494Y-41799463D01*
X9349180Y-41740498D01*
X9229482Y-41704188D01*
X9105000Y-41691928D01*
X8540750Y-41695000D01*
X8382000Y-41853750D01*
X8128000Y-41853750D01*
X7969250Y-41695000D01*
X7405000Y-41691928D01*
X7280518Y-41704188D01*
X7160820Y-41740498D01*
X7050506Y-41799463D01*
X6953815Y-41878815D01*
X6874463Y-41975506D01*
X6815498Y-42085820D01*
X6779188Y-42205518D01*
X6766928Y-42330000D01*
X5298072Y-42330000D01*
X5285812Y-42205518D01*
X5249502Y-42085820D01*
X5190537Y-41975506D01*
X5111185Y-41878815D01*
X5014494Y-41799463D01*
X4904180Y-41740498D01*
X4784482Y-41704188D01*
X4660000Y-41691928D01*
X2960000Y-41691928D01*
X2835518Y-41704188D01*
X2715820Y-41740498D01*
X2605506Y-41799463D01*
X2508815Y-41878815D01*
X2429463Y-41975506D01*
X2370498Y-42085820D01*
X2334188Y-42205518D01*
X2321928Y-42330000D01*
X660000Y-42330000D01*
X660000Y-37323665D01*
X16345000Y-37323665D01*
X16345000Y-37606335D01*
X16400147Y-37883574D01*
X16508320Y-38144727D01*
X16665363Y-38379759D01*
X16865241Y-38579637D01*
X17100273Y-38736680D01*
X17361426Y-38844853D01*
X17638665Y-38900000D01*
X17921335Y-38900000D01*
X18198574Y-38844853D01*
X18459727Y-38736680D01*
X18694759Y-38579637D01*
X18894637Y-38379759D01*
X19051680Y-38144727D01*
X19159853Y-37883574D01*
X19215000Y-37606335D01*
X19215000Y-37323665D01*
X19159853Y-37046426D01*
X19051680Y-36785273D01*
X18894637Y-36550241D01*
X18694759Y-36350363D01*
X18459727Y-36193320D01*
X18198574Y-36085147D01*
X17921335Y-36030000D01*
X17638665Y-36030000D01*
X17361426Y-36085147D01*
X17100273Y-36193320D01*
X16865241Y-36350363D01*
X16665363Y-36550241D01*
X16508320Y-36785273D01*
X16400147Y-37046426D01*
X16345000Y-37323665D01*
X660000Y-37323665D01*
X660000Y-30973665D01*
X2375000Y-30973665D01*
X2375000Y-31256335D01*
X2430147Y-31533574D01*
X2538320Y-31794727D01*
X2695363Y-32029759D01*
X2895241Y-32229637D01*
X3130273Y-32386680D01*
X3391426Y-32494853D01*
X3668665Y-32550000D01*
X3951335Y-32550000D01*
X4228574Y-32494853D01*
X4489727Y-32386680D01*
X4724759Y-32229637D01*
X4924637Y-32029759D01*
X5081680Y-31794727D01*
X5189853Y-31533574D01*
X5245000Y-31256335D01*
X5245000Y-30973665D01*
X5189853Y-30696426D01*
X5081680Y-30435273D01*
X4924637Y-30200241D01*
X4724759Y-30000363D01*
X4489727Y-29843320D01*
X4228574Y-29735147D01*
X3951335Y-29680000D01*
X3668665Y-29680000D01*
X3391426Y-29735147D01*
X3130273Y-29843320D01*
X2895241Y-30000363D01*
X2695363Y-30200241D01*
X2538320Y-30435273D01*
X2430147Y-30696426D01*
X2375000Y-30973665D01*
X660000Y-30973665D01*
X660000Y-28473061D01*
X11030000Y-28473061D01*
X11030000Y-28676939D01*
X11069774Y-28876898D01*
X11147795Y-29065256D01*
X11261063Y-29234774D01*
X11405226Y-29378937D01*
X11574744Y-29492205D01*
X11763102Y-29570226D01*
X11963061Y-29610000D01*
X12166939Y-29610000D01*
X12366898Y-29570226D01*
X12555256Y-29492205D01*
X12724774Y-29378937D01*
X12768711Y-29335000D01*
X16561957Y-29335000D01*
X16665363Y-29489759D01*
X16865241Y-29689637D01*
X17100273Y-29846680D01*
X17361426Y-29954853D01*
X17638665Y-30010000D01*
X17921335Y-30010000D01*
X18198574Y-29954853D01*
X18459727Y-29846680D01*
X18694759Y-29689637D01*
X18894637Y-29489759D01*
X19051680Y-29254727D01*
X19159853Y-28993574D01*
X19215000Y-28716335D01*
X19215000Y-28433665D01*
X19159853Y-28156426D01*
X19051680Y-27895273D01*
X18894637Y-27660241D01*
X18694759Y-27460363D01*
X18459727Y-27303320D01*
X18198574Y-27195147D01*
X17921335Y-27140000D01*
X17638665Y-27140000D01*
X17361426Y-27195147D01*
X17100273Y-27303320D01*
X16865241Y-27460363D01*
X16665363Y-27660241D01*
X16561957Y-27815000D01*
X12768711Y-27815000D01*
X12724774Y-27771063D01*
X12555256Y-27657795D01*
X12366898Y-27579774D01*
X12166939Y-27540000D01*
X11963061Y-27540000D01*
X11763102Y-27579774D01*
X11574744Y-27657795D01*
X11405226Y-27771063D01*
X11261063Y-27915226D01*
X11147795Y-28084744D01*
X11069774Y-28273102D01*
X11030000Y-28473061D01*
X660000Y-28473061D01*
X660000Y-26300000D01*
X17511928Y-26300000D01*
X17524188Y-26424482D01*
X17560498Y-26544180D01*
X17619463Y-26654494D01*
X17698815Y-26751185D01*
X17795506Y-26830537D01*
X17905820Y-26889502D01*
X18025518Y-26925812D01*
X18150000Y-26938072D01*
X18764250Y-26935000D01*
X18923000Y-26776250D01*
X18923000Y-25527000D01*
X19177000Y-25527000D01*
X19177000Y-26776250D01*
X19335750Y-26935000D01*
X19950000Y-26938072D01*
X20074482Y-26925812D01*
X20194180Y-26889502D01*
X20304494Y-26830537D01*
X20401185Y-26751185D01*
X20480537Y-26654494D01*
X20539502Y-26544180D01*
X20575812Y-26424482D01*
X20588072Y-26300000D01*
X20585000Y-25685750D01*
X20426250Y-25527000D01*
X19177000Y-25527000D01*
X18923000Y-25527000D01*
X17673750Y-25527000D01*
X17515000Y-25685750D01*
X17511928Y-26300000D01*
X660000Y-26300000D01*
X660000Y-20155000D01*
X2371928Y-20155000D01*
X2371928Y-21755000D01*
X2384188Y-21879482D01*
X2420498Y-21999180D01*
X2479463Y-22109494D01*
X2558815Y-22206185D01*
X2655506Y-22285537D01*
X2765820Y-22344502D01*
X2885518Y-22380812D01*
X2893961Y-22381643D01*
X2695363Y-22580241D01*
X2538320Y-22815273D01*
X2430147Y-23076426D01*
X2375000Y-23353665D01*
X2375000Y-23636335D01*
X2430147Y-23913574D01*
X2538320Y-24174727D01*
X2695363Y-24409759D01*
X2895241Y-24609637D01*
X3130273Y-24766680D01*
X3391426Y-24874853D01*
X3668665Y-24930000D01*
X3951335Y-24930000D01*
X4228574Y-24874853D01*
X4489727Y-24766680D01*
X4724759Y-24609637D01*
X4834396Y-24500000D01*
X17511928Y-24500000D01*
X17515000Y-25114250D01*
X17673750Y-25273000D01*
X18923000Y-25273000D01*
X18923000Y-25253000D01*
X19177000Y-25253000D01*
X19177000Y-25273000D01*
X20426250Y-25273000D01*
X20585000Y-25114250D01*
X20588072Y-24500000D01*
X20575812Y-24375518D01*
X20539860Y-24257000D01*
X23985000Y-24257000D01*
X23985000Y-24757000D01*
X24034467Y-25005251D01*
X24131415Y-25239081D01*
X24272118Y-25449505D01*
X24451170Y-25628436D01*
X24661689Y-25768997D01*
X24895585Y-25865787D01*
X24944529Y-25873099D01*
X25143000Y-25749067D01*
X25143000Y-24257000D01*
X25397000Y-24257000D01*
X25397000Y-25749067D01*
X25595471Y-25873099D01*
X25644415Y-25865787D01*
X25878311Y-25768997D01*
X26088830Y-25628436D01*
X26267882Y-25449505D01*
X26408585Y-25239081D01*
X26505533Y-25005251D01*
X26555000Y-24757000D01*
X26555000Y-24257000D01*
X25397000Y-24257000D01*
X25143000Y-24257000D01*
X23985000Y-24257000D01*
X20539860Y-24257000D01*
X20539502Y-24255820D01*
X20480537Y-24145506D01*
X20401185Y-24048815D01*
X20304494Y-23969463D01*
X20194180Y-23910498D01*
X20175873Y-23904944D01*
X20242312Y-23838505D01*
X20410299Y-23587095D01*
X20445132Y-23503000D01*
X23985000Y-23503000D01*
X23985000Y-24003000D01*
X25143000Y-24003000D01*
X25143000Y-22510933D01*
X25397000Y-22510933D01*
X25397000Y-24003000D01*
X26555000Y-24003000D01*
X26555000Y-23566877D01*
X27085000Y-23566877D01*
X27085000Y-24693122D01*
X27103593Y-24881903D01*
X27177071Y-25124126D01*
X27296392Y-25347361D01*
X27456972Y-25543028D01*
X27652638Y-25703608D01*
X27875873Y-25822929D01*
X28118096Y-25896407D01*
X28370000Y-25921217D01*
X28621903Y-25896407D01*
X28864126Y-25822929D01*
X29087361Y-25703608D01*
X29283028Y-25543028D01*
X29443608Y-25347362D01*
X29562929Y-25124127D01*
X29570262Y-25099953D01*
X29636440Y-25259721D01*
X29897450Y-25650349D01*
X30229651Y-25982550D01*
X30620279Y-26243560D01*
X31054321Y-26423346D01*
X31515098Y-26515000D01*
X31984902Y-26515000D01*
X32445679Y-26423346D01*
X32879721Y-26243560D01*
X33270349Y-25982550D01*
X33602550Y-25650349D01*
X33863560Y-25259721D01*
X34043346Y-24825679D01*
X34135000Y-24364902D01*
X34135000Y-23895098D01*
X34043346Y-23434321D01*
X33863560Y-23000279D01*
X33602550Y-22609651D01*
X33270349Y-22277450D01*
X32879721Y-22016440D01*
X32445679Y-21836654D01*
X31984902Y-21745000D01*
X31515098Y-21745000D01*
X31054321Y-21836654D01*
X30620279Y-22016440D01*
X30229651Y-22277450D01*
X29897450Y-22609651D01*
X29636440Y-23000279D01*
X29570262Y-23160047D01*
X29562929Y-23135873D01*
X29443608Y-22912638D01*
X29283028Y-22716972D01*
X29087362Y-22556392D01*
X28864127Y-22437071D01*
X28621904Y-22363593D01*
X28370000Y-22338783D01*
X28118097Y-22363593D01*
X27875874Y-22437071D01*
X27652639Y-22556392D01*
X27456973Y-22716972D01*
X27296392Y-22912638D01*
X27177071Y-23135873D01*
X27103593Y-23378096D01*
X27085000Y-23566877D01*
X26555000Y-23566877D01*
X26555000Y-23503000D01*
X26505533Y-23254749D01*
X26408585Y-23020919D01*
X26267882Y-22810495D01*
X26088830Y-22631564D01*
X25878311Y-22491003D01*
X25644415Y-22394213D01*
X25595471Y-22386901D01*
X25397000Y-22510933D01*
X25143000Y-22510933D01*
X24944529Y-22386901D01*
X24895585Y-22394213D01*
X24661689Y-22491003D01*
X24451170Y-22631564D01*
X24272118Y-22810495D01*
X24131415Y-23020919D01*
X24034467Y-23254749D01*
X23985000Y-23503000D01*
X20445132Y-23503000D01*
X20526011Y-23307743D01*
X20585000Y-23011184D01*
X20585000Y-22708816D01*
X20533731Y-22451070D01*
X22539802Y-20445000D01*
X24181957Y-20445000D01*
X24285363Y-20599759D01*
X24485241Y-20799637D01*
X24720273Y-20956680D01*
X24981426Y-21064853D01*
X25258665Y-21120000D01*
X25541335Y-21120000D01*
X25818574Y-21064853D01*
X26079727Y-20956680D01*
X26314759Y-20799637D01*
X26514637Y-20599759D01*
X26671680Y-20364727D01*
X26779853Y-20103574D01*
X26835000Y-19826335D01*
X26835000Y-19543665D01*
X26779853Y-19266426D01*
X26671680Y-19005273D01*
X26514637Y-18770241D01*
X26314759Y-18570363D01*
X26079727Y-18413320D01*
X25818574Y-18305147D01*
X25541335Y-18250000D01*
X25258665Y-18250000D01*
X24981426Y-18305147D01*
X24720273Y-18413320D01*
X24485241Y-18570363D01*
X24285363Y-18770241D01*
X24181957Y-18925000D01*
X22262322Y-18925000D01*
X22224999Y-18921324D01*
X22187676Y-18925000D01*
X22187667Y-18925000D01*
X22076014Y-18935997D01*
X21932753Y-18979454D01*
X21800723Y-19050026D01*
X21717083Y-19118668D01*
X21684999Y-19144999D01*
X21661201Y-19173997D01*
X19458930Y-21376269D01*
X19201184Y-21325000D01*
X18898816Y-21325000D01*
X18602257Y-21383989D01*
X18322905Y-21499701D01*
X18071495Y-21667688D01*
X17857688Y-21881495D01*
X17689701Y-22132905D01*
X17573989Y-22412257D01*
X17515000Y-22708816D01*
X17515000Y-23011184D01*
X17573989Y-23307743D01*
X17689701Y-23587095D01*
X17857688Y-23838505D01*
X17924127Y-23904944D01*
X17905820Y-23910498D01*
X17795506Y-23969463D01*
X17698815Y-24048815D01*
X17619463Y-24145506D01*
X17560498Y-24255820D01*
X17524188Y-24375518D01*
X17511928Y-24500000D01*
X4834396Y-24500000D01*
X4924637Y-24409759D01*
X5081680Y-24174727D01*
X5189853Y-23913574D01*
X5245000Y-23636335D01*
X5245000Y-23353665D01*
X5189853Y-23076426D01*
X5081680Y-22815273D01*
X4924637Y-22580241D01*
X4726039Y-22381643D01*
X4734482Y-22380812D01*
X4854180Y-22344502D01*
X4964494Y-22285537D01*
X5061185Y-22206185D01*
X5140537Y-22109494D01*
X5199502Y-21999180D01*
X5235812Y-21879482D01*
X5248072Y-21755000D01*
X5248072Y-20155000D01*
X5235812Y-20030518D01*
X5199502Y-19910820D01*
X5140537Y-19800506D01*
X5061185Y-19703815D01*
X4964494Y-19624463D01*
X4854180Y-19565498D01*
X4782207Y-19543665D01*
X16345000Y-19543665D01*
X16345000Y-19826335D01*
X16400147Y-20103574D01*
X16508320Y-20364727D01*
X16665363Y-20599759D01*
X16865241Y-20799637D01*
X17100273Y-20956680D01*
X17361426Y-21064853D01*
X17638665Y-21120000D01*
X17921335Y-21120000D01*
X18198574Y-21064853D01*
X18459727Y-20956680D01*
X18694759Y-20799637D01*
X18894637Y-20599759D01*
X19051680Y-20364727D01*
X19159853Y-20103574D01*
X19215000Y-19826335D01*
X19215000Y-19543665D01*
X19159853Y-19266426D01*
X19051680Y-19005273D01*
X18894637Y-18770241D01*
X18694759Y-18570363D01*
X18459727Y-18413320D01*
X18198574Y-18305147D01*
X17921335Y-18250000D01*
X17638665Y-18250000D01*
X17361426Y-18305147D01*
X17100273Y-18413320D01*
X16865241Y-18570363D01*
X16665363Y-18770241D01*
X16508320Y-19005273D01*
X16400147Y-19266426D01*
X16345000Y-19543665D01*
X4782207Y-19543665D01*
X4734482Y-19529188D01*
X4610000Y-19516928D01*
X3010000Y-19516928D01*
X2885518Y-19529188D01*
X2765820Y-19565498D01*
X2655506Y-19624463D01*
X2558815Y-19703815D01*
X2479463Y-19800506D01*
X2420498Y-19910820D01*
X2384188Y-20030518D01*
X2371928Y-20155000D01*
X660000Y-20155000D01*
X660000Y-17336468D01*
X32373137Y-17336468D01*
X32631298Y-17739073D01*
X33150715Y-18014651D01*
X33713913Y-18183601D01*
X34299250Y-18239430D01*
X34884233Y-18179992D01*
X35446379Y-18007571D01*
X35948702Y-17739073D01*
X36206863Y-17336468D01*
X34290000Y-15419605D01*
X32373137Y-17336468D01*
X660000Y-17336468D01*
X660000Y-15249250D01*
X31290570Y-15249250D01*
X31350008Y-15834233D01*
X31522429Y-16396379D01*
X31790927Y-16898702D01*
X32193532Y-17156863D01*
X34110395Y-15240000D01*
X34469605Y-15240000D01*
X36386468Y-17156863D01*
X36789073Y-16898702D01*
X37064651Y-16379285D01*
X37233601Y-15816087D01*
X37289430Y-15230750D01*
X37229992Y-14645767D01*
X37057571Y-14083621D01*
X36789073Y-13581298D01*
X36386468Y-13323137D01*
X34469605Y-15240000D01*
X34110395Y-15240000D01*
X32193532Y-13323137D01*
X31790927Y-13581298D01*
X31515349Y-14100715D01*
X31346399Y-14663913D01*
X31290570Y-15249250D01*
X660000Y-15249250D01*
X660000Y-13193665D01*
X2375000Y-13193665D01*
X2375000Y-13476335D01*
X2430147Y-13753574D01*
X2538320Y-14014727D01*
X2695363Y-14249759D01*
X2895241Y-14449637D01*
X3130273Y-14606680D01*
X3391426Y-14714853D01*
X3668665Y-14770000D01*
X3951335Y-14770000D01*
X4228574Y-14714853D01*
X4489727Y-14606680D01*
X4724759Y-14449637D01*
X4924637Y-14249759D01*
X5081680Y-14014727D01*
X5189853Y-13753574D01*
X5245000Y-13476335D01*
X5245000Y-13193665D01*
X5235028Y-13143532D01*
X32373137Y-13143532D01*
X34290000Y-15060395D01*
X36206863Y-13143532D01*
X35948702Y-12740927D01*
X35429285Y-12465349D01*
X34866087Y-12296399D01*
X34280750Y-12240570D01*
X33695767Y-12300008D01*
X33133621Y-12472429D01*
X32631298Y-12740927D01*
X32373137Y-13143532D01*
X5235028Y-13143532D01*
X5189853Y-12916426D01*
X5081680Y-12655273D01*
X4924637Y-12420241D01*
X4724759Y-12220363D01*
X4489727Y-12063320D01*
X4228574Y-11955147D01*
X3951335Y-11900000D01*
X3668665Y-11900000D01*
X3391426Y-11955147D01*
X3130273Y-12063320D01*
X2895241Y-12220363D01*
X2695363Y-12420241D01*
X2538320Y-12655273D01*
X2430147Y-12916426D01*
X2375000Y-13193665D01*
X660000Y-13193665D01*
X660000Y-10693061D01*
X9760000Y-10693061D01*
X9760000Y-10896939D01*
X9799774Y-11096898D01*
X9877795Y-11285256D01*
X9991063Y-11454774D01*
X10135226Y-11598937D01*
X10304744Y-11712205D01*
X10493102Y-11790226D01*
X10693061Y-11830000D01*
X10896939Y-11830000D01*
X11096898Y-11790226D01*
X11285256Y-11712205D01*
X11454774Y-11598937D01*
X11498711Y-11555000D01*
X16561957Y-11555000D01*
X16665363Y-11709759D01*
X16865241Y-11909637D01*
X17100273Y-12066680D01*
X17361426Y-12174853D01*
X17638665Y-12230000D01*
X17921335Y-12230000D01*
X18198574Y-12174853D01*
X18459727Y-12066680D01*
X18694759Y-11909637D01*
X18894637Y-11709759D01*
X19051680Y-11474727D01*
X19159853Y-11213574D01*
X19215000Y-10936335D01*
X19215000Y-10653665D01*
X19159853Y-10376426D01*
X19051680Y-10115273D01*
X18894637Y-9880241D01*
X18694759Y-9680363D01*
X18459727Y-9523320D01*
X18198574Y-9415147D01*
X17921335Y-9360000D01*
X17638665Y-9360000D01*
X17361426Y-9415147D01*
X17100273Y-9523320D01*
X16865241Y-9680363D01*
X16665363Y-9880241D01*
X16561957Y-10035000D01*
X11498711Y-10035000D01*
X11454774Y-9991063D01*
X11285256Y-9877795D01*
X11096898Y-9799774D01*
X10896939Y-9760000D01*
X10693061Y-9760000D01*
X10493102Y-9799774D01*
X10304744Y-9877795D01*
X10135226Y-9991063D01*
X9991063Y-10135226D01*
X9877795Y-10304744D01*
X9799774Y-10493102D01*
X9760000Y-10693061D01*
X660000Y-10693061D01*
X660000Y-5786878D01*
X780000Y-5786878D01*
X780000Y-6913123D01*
X798593Y-7101904D01*
X872071Y-7344127D01*
X991392Y-7567362D01*
X1151973Y-7763028D01*
X1347639Y-7923608D01*
X1570874Y-8042929D01*
X1813097Y-8116407D01*
X2065000Y-8141217D01*
X2316904Y-8116407D01*
X2559127Y-8042929D01*
X2782362Y-7923608D01*
X2978028Y-7763028D01*
X3138608Y-7567362D01*
X3257929Y-7344127D01*
X3331407Y-7101904D01*
X3350000Y-6913123D01*
X3350000Y-6115098D01*
X4600000Y-6115098D01*
X4600000Y-6584902D01*
X4691654Y-7045679D01*
X4871440Y-7479721D01*
X5132450Y-7870349D01*
X5464651Y-8202550D01*
X5855279Y-8463560D01*
X6289321Y-8643346D01*
X6750098Y-8735000D01*
X7219902Y-8735000D01*
X7680679Y-8643346D01*
X7978462Y-8520000D01*
X17511928Y-8520000D01*
X17524188Y-8644482D01*
X17560498Y-8764180D01*
X17619463Y-8874494D01*
X17698815Y-8971185D01*
X17795506Y-9050537D01*
X17905820Y-9109502D01*
X18025518Y-9145812D01*
X18150000Y-9158072D01*
X18764250Y-9155000D01*
X18923000Y-8996250D01*
X18923000Y-7747000D01*
X19177000Y-7747000D01*
X19177000Y-8996250D01*
X19335750Y-9155000D01*
X19950000Y-9158072D01*
X20074482Y-9145812D01*
X20194180Y-9109502D01*
X20304494Y-9050537D01*
X20401185Y-8971185D01*
X20480537Y-8874494D01*
X20539502Y-8764180D01*
X20575812Y-8644482D01*
X20588072Y-8520000D01*
X20585000Y-7905750D01*
X20426250Y-7747000D01*
X19177000Y-7747000D01*
X18923000Y-7747000D01*
X17673750Y-7747000D01*
X17515000Y-7905750D01*
X17511928Y-8520000D01*
X7978462Y-8520000D01*
X8114721Y-8463560D01*
X8505349Y-8202550D01*
X8837550Y-7870349D01*
X9098560Y-7479721D01*
X9164738Y-7319953D01*
X9172071Y-7344127D01*
X9291392Y-7567362D01*
X9451973Y-7763028D01*
X9647639Y-7923608D01*
X9870874Y-8042929D01*
X10113097Y-8116407D01*
X10365000Y-8141217D01*
X10616904Y-8116407D01*
X10859127Y-8042929D01*
X11082362Y-7923608D01*
X11278028Y-7763028D01*
X11438608Y-7567362D01*
X11557929Y-7344127D01*
X11631407Y-7101904D01*
X11650000Y-6913123D01*
X11650000Y-6477000D01*
X12180000Y-6477000D01*
X12180000Y-6977000D01*
X12229467Y-7225251D01*
X12326415Y-7459081D01*
X12467118Y-7669505D01*
X12646170Y-7848436D01*
X12856689Y-7988997D01*
X13090585Y-8085787D01*
X13139529Y-8093099D01*
X13338000Y-7969067D01*
X13338000Y-6477000D01*
X13592000Y-6477000D01*
X13592000Y-7969067D01*
X13790471Y-8093099D01*
X13839415Y-8085787D01*
X14073311Y-7988997D01*
X14283830Y-7848436D01*
X14462882Y-7669505D01*
X14603585Y-7459081D01*
X14700533Y-7225251D01*
X14750000Y-6977000D01*
X14750000Y-6477000D01*
X13592000Y-6477000D01*
X13338000Y-6477000D01*
X12180000Y-6477000D01*
X11650000Y-6477000D01*
X11650000Y-5786877D01*
X11643709Y-5723000D01*
X12180000Y-5723000D01*
X12180000Y-6223000D01*
X13338000Y-6223000D01*
X13338000Y-4730933D01*
X13592000Y-4730933D01*
X13592000Y-6223000D01*
X14750000Y-6223000D01*
X14750000Y-5723000D01*
X14700533Y-5474749D01*
X14603585Y-5240919D01*
X14462882Y-5030495D01*
X14283830Y-4851564D01*
X14073311Y-4711003D01*
X13839415Y-4614213D01*
X13790471Y-4606901D01*
X13592000Y-4730933D01*
X13338000Y-4730933D01*
X13139529Y-4606901D01*
X13090585Y-4614213D01*
X12856689Y-4711003D01*
X12646170Y-4851564D01*
X12467118Y-5030495D01*
X12326415Y-5240919D01*
X12229467Y-5474749D01*
X12180000Y-5723000D01*
X11643709Y-5723000D01*
X11631407Y-5598096D01*
X11557929Y-5355873D01*
X11438608Y-5132638D01*
X11278028Y-4936972D01*
X11082361Y-4776392D01*
X10859126Y-4657071D01*
X10616903Y-4583593D01*
X10365000Y-4558783D01*
X10113096Y-4583593D01*
X9870873Y-4657071D01*
X9647638Y-4776392D01*
X9451972Y-4936972D01*
X9291392Y-5132639D01*
X9172071Y-5355874D01*
X9164738Y-5380047D01*
X9098560Y-5220279D01*
X8837550Y-4829651D01*
X8505349Y-4497450D01*
X8114721Y-4236440D01*
X7680679Y-4056654D01*
X7219902Y-3965000D01*
X6750098Y-3965000D01*
X6289321Y-4056654D01*
X5855279Y-4236440D01*
X5464651Y-4497450D01*
X5132450Y-4829651D01*
X4871440Y-5220279D01*
X4691654Y-5654321D01*
X4600000Y-6115098D01*
X3350000Y-6115098D01*
X3350000Y-5786877D01*
X3331407Y-5598096D01*
X3257929Y-5355873D01*
X3138608Y-5132638D01*
X2978028Y-4936972D01*
X2782361Y-4776392D01*
X2559126Y-4657071D01*
X2316903Y-4583593D01*
X2065000Y-4558783D01*
X1813096Y-4583593D01*
X1570873Y-4657071D01*
X1347638Y-4776392D01*
X1151972Y-4936972D01*
X991392Y-5132639D01*
X872071Y-5355874D01*
X798593Y-5598097D01*
X780000Y-5786878D01*
X660000Y-5786878D01*
X660000Y-660000D01*
X17060343Y-660000D01*
X16865241Y-790363D01*
G04 #@! TA.AperFunction,Conductor*
D22*
G36*
X16865241Y-790363D02*
G01*
X16665363Y-990241D01*
X16508320Y-1225273D01*
X16400147Y-1486426D01*
X16345000Y-1763665D01*
X16345000Y-2046335D01*
X16400147Y-2323574D01*
X16508320Y-2584727D01*
X16665363Y-2819759D01*
X16865241Y-3019637D01*
X17100273Y-3176680D01*
X17361426Y-3284853D01*
X17638665Y-3340000D01*
X17921335Y-3340000D01*
X18198574Y-3284853D01*
X18459727Y-3176680D01*
X18694759Y-3019637D01*
X18894637Y-2819759D01*
X19051680Y-2584727D01*
X19159853Y-2323574D01*
X19215000Y-2046335D01*
X19215000Y-1763665D01*
X19159853Y-1486426D01*
X19051680Y-1225273D01*
X18894637Y-990241D01*
X18694759Y-790363D01*
X18499657Y-660000D01*
X24680343Y-660000D01*
X24485241Y-790363D01*
X24285363Y-990241D01*
X24181957Y-1145000D01*
X22262322Y-1145000D01*
X22224999Y-1141324D01*
X22187676Y-1145000D01*
X22187667Y-1145000D01*
X22076014Y-1155997D01*
X21932753Y-1199454D01*
X21800723Y-1270026D01*
X21717083Y-1338668D01*
X21684999Y-1364999D01*
X21661201Y-1393997D01*
X19458930Y-3596269D01*
X19201184Y-3545000D01*
X18898816Y-3545000D01*
X18602257Y-3603989D01*
X18322905Y-3719701D01*
X18071495Y-3887688D01*
X17857688Y-4101495D01*
X17689701Y-4352905D01*
X17573989Y-4632257D01*
X17515000Y-4928816D01*
X17515000Y-5231184D01*
X17573989Y-5527743D01*
X17689701Y-5807095D01*
X17857688Y-6058505D01*
X17924127Y-6124944D01*
X17905820Y-6130498D01*
X17795506Y-6189463D01*
X17698815Y-6268815D01*
X17619463Y-6365506D01*
X17560498Y-6475820D01*
X17524188Y-6595518D01*
X17511928Y-6720000D01*
X17515000Y-7334250D01*
X17673750Y-7493000D01*
X18923000Y-7493000D01*
X18923000Y-7473000D01*
X19177000Y-7473000D01*
X19177000Y-7493000D01*
X20426250Y-7493000D01*
X20585000Y-7334250D01*
X20588072Y-6720000D01*
X20575812Y-6595518D01*
X20539860Y-6477000D01*
X23985000Y-6477000D01*
X23985000Y-6977000D01*
X24034467Y-7225251D01*
X24131415Y-7459081D01*
X24272118Y-7669505D01*
X24451170Y-7848436D01*
X24661689Y-7988997D01*
X24895585Y-8085787D01*
X24944529Y-8093099D01*
X25143000Y-7969067D01*
X25143000Y-6477000D01*
X25397000Y-6477000D01*
X25397000Y-7969067D01*
X25595471Y-8093099D01*
X25644415Y-8085787D01*
X25878311Y-7988997D01*
X26088830Y-7848436D01*
X26267882Y-7669505D01*
X26408585Y-7459081D01*
X26505533Y-7225251D01*
X26555000Y-6977000D01*
X26555000Y-6477000D01*
X25397000Y-6477000D01*
X25143000Y-6477000D01*
X23985000Y-6477000D01*
X20539860Y-6477000D01*
X20539502Y-6475820D01*
X20480537Y-6365506D01*
X20401185Y-6268815D01*
X20304494Y-6189463D01*
X20194180Y-6130498D01*
X20175873Y-6124944D01*
X20242312Y-6058505D01*
X20410299Y-5807095D01*
X20445132Y-5723000D01*
X23985000Y-5723000D01*
X23985000Y-6223000D01*
X25143000Y-6223000D01*
X25143000Y-4730933D01*
X25397000Y-4730933D01*
X25397000Y-6223000D01*
X26555000Y-6223000D01*
X26555000Y-5786877D01*
X27085000Y-5786877D01*
X27085000Y-6913122D01*
X27103593Y-7101903D01*
X27177071Y-7344126D01*
X27296392Y-7567361D01*
X27456972Y-7763028D01*
X27652638Y-7923608D01*
X27875873Y-8042929D01*
X28118096Y-8116407D01*
X28370000Y-8141217D01*
X28621903Y-8116407D01*
X28864126Y-8042929D01*
X29087361Y-7923608D01*
X29283028Y-7763028D01*
X29443608Y-7567362D01*
X29562929Y-7344127D01*
X29570262Y-7319953D01*
X29636440Y-7479721D01*
X29897450Y-7870349D01*
X30229651Y-8202550D01*
X30620279Y-8463560D01*
X31054321Y-8643346D01*
X31515098Y-8735000D01*
X31984902Y-8735000D01*
X32445679Y-8643346D01*
X32879721Y-8463560D01*
X33270349Y-8202550D01*
X33602550Y-7870349D01*
X33863560Y-7479721D01*
X34043346Y-7045679D01*
X34135000Y-6584902D01*
X34135000Y-6115098D01*
X34043346Y-5654321D01*
X33863560Y-5220279D01*
X33602550Y-4829651D01*
X33270349Y-4497450D01*
X32879721Y-4236440D01*
X32445679Y-4056654D01*
X31984902Y-3965000D01*
X31515098Y-3965000D01*
X31054321Y-4056654D01*
X30620279Y-4236440D01*
X30229651Y-4497450D01*
X29897450Y-4829651D01*
X29636440Y-5220279D01*
X29570262Y-5380047D01*
X29562929Y-5355873D01*
X29443608Y-5132638D01*
X29283028Y-4936972D01*
X29087362Y-4776392D01*
X28864127Y-4657071D01*
X28621904Y-4583593D01*
X28370000Y-4558783D01*
X28118097Y-4583593D01*
X27875874Y-4657071D01*
X27652639Y-4776392D01*
X27456973Y-4936972D01*
X27296392Y-5132638D01*
X27177071Y-5355873D01*
X27103593Y-5598096D01*
X27085000Y-5786877D01*
X26555000Y-5786877D01*
X26555000Y-5723000D01*
X26505533Y-5474749D01*
X26408585Y-5240919D01*
X26267882Y-5030495D01*
X26088830Y-4851564D01*
X25878311Y-4711003D01*
X25644415Y-4614213D01*
X25595471Y-4606901D01*
X25397000Y-4730933D01*
X25143000Y-4730933D01*
X24944529Y-4606901D01*
X24895585Y-4614213D01*
X24661689Y-4711003D01*
X24451170Y-4851564D01*
X24272118Y-5030495D01*
X24131415Y-5240919D01*
X24034467Y-5474749D01*
X23985000Y-5723000D01*
X20445132Y-5723000D01*
X20526011Y-5527743D01*
X20585000Y-5231184D01*
X20585000Y-4928816D01*
X20533731Y-4671070D01*
X22539802Y-2665000D01*
X24181957Y-2665000D01*
X24285363Y-2819759D01*
X24485241Y-3019637D01*
X24720273Y-3176680D01*
X24981426Y-3284853D01*
X25258665Y-3340000D01*
X25541335Y-3340000D01*
X25818574Y-3284853D01*
X26079727Y-3176680D01*
X26314759Y-3019637D01*
X26514637Y-2819759D01*
X26671680Y-2584727D01*
X26779853Y-2323574D01*
X26835000Y-2046335D01*
X26835000Y-1763665D01*
X26779853Y-1486426D01*
X26671680Y-1225273D01*
X26514637Y-990241D01*
X26314759Y-790363D01*
X26119657Y-660000D01*
X37440000Y-660000D01*
X37440000Y-4819591D01*
X37387362Y-4776392D01*
X37164127Y-4657071D01*
X36921904Y-4583593D01*
X36670000Y-4558783D01*
X36418097Y-4583593D01*
X36175874Y-4657071D01*
X35952639Y-4776392D01*
X35756973Y-4936972D01*
X35596392Y-5132638D01*
X35477071Y-5355873D01*
X35403593Y-5598096D01*
X35385000Y-5786877D01*
X35385000Y-6913122D01*
X35403593Y-7101903D01*
X35477071Y-7344126D01*
X35596392Y-7567361D01*
X35756972Y-7763028D01*
X35910000Y-7888616D01*
X35910001Y-9370197D01*
X35245199Y-10035000D01*
X26618043Y-10035000D01*
X26514637Y-9880241D01*
X26314759Y-9680363D01*
X26079727Y-9523320D01*
X25818574Y-9415147D01*
X25541335Y-9360000D01*
X25258665Y-9360000D01*
X24981426Y-9415147D01*
X24720273Y-9523320D01*
X24485241Y-9680363D01*
X24285363Y-9880241D01*
X24128320Y-10115273D01*
X24020147Y-10376426D01*
X23965000Y-10653665D01*
X23965000Y-10936335D01*
X24020147Y-11213574D01*
X24128320Y-11474727D01*
X24285363Y-11709759D01*
X24485241Y-11909637D01*
X24720273Y-12066680D01*
X24981426Y-12174853D01*
X25258665Y-12230000D01*
X25541335Y-12230000D01*
X25818574Y-12174853D01*
X26079727Y-12066680D01*
X26314759Y-11909637D01*
X26514637Y-11709759D01*
X26618043Y-11555000D01*
X35522678Y-11555000D01*
X35560000Y-11558676D01*
X35597322Y-11555000D01*
X35597333Y-11555000D01*
X35708986Y-11544003D01*
X35852247Y-11500546D01*
X35984276Y-11429974D01*
X36100001Y-11335001D01*
X36123804Y-11305998D01*
X37181003Y-10248799D01*
X37210001Y-10225001D01*
X37263325Y-10160026D01*
X37304974Y-10109277D01*
X37375546Y-9977247D01*
X37419003Y-9833986D01*
X37430000Y-9722333D01*
X37430000Y-9722324D01*
X37433676Y-9685001D01*
X37430000Y-9647678D01*
X37430000Y-7888615D01*
X37440000Y-7880408D01*
X37440000Y-22599591D01*
X37387362Y-22556392D01*
X37164127Y-22437071D01*
X36921904Y-22363593D01*
X36670000Y-22338783D01*
X36418097Y-22363593D01*
X36175874Y-22437071D01*
X35952639Y-22556392D01*
X35756973Y-22716972D01*
X35596392Y-22912638D01*
X35477071Y-23135873D01*
X35403593Y-23378096D01*
X35385000Y-23566877D01*
X35385000Y-24693122D01*
X35403593Y-24881903D01*
X35477071Y-25124126D01*
X35596392Y-25347361D01*
X35756972Y-25543028D01*
X35910000Y-25668616D01*
X35910001Y-27150197D01*
X35245199Y-27815000D01*
X26618043Y-27815000D01*
X26514637Y-27660241D01*
X26314759Y-27460363D01*
X26079727Y-27303320D01*
X25818574Y-27195147D01*
X25541335Y-27140000D01*
X25258665Y-27140000D01*
X24981426Y-27195147D01*
X24720273Y-27303320D01*
X24485241Y-27460363D01*
X24285363Y-27660241D01*
X24128320Y-27895273D01*
X24020147Y-28156426D01*
X23965000Y-28433665D01*
X23965000Y-28716335D01*
X24020147Y-28993574D01*
X24128320Y-29254727D01*
X24285363Y-29489759D01*
X24485241Y-29689637D01*
X24720273Y-29846680D01*
X24981426Y-29954853D01*
X25258665Y-30010000D01*
X25541335Y-30010000D01*
X25818574Y-29954853D01*
X26079727Y-29846680D01*
X26314759Y-29689637D01*
X26514637Y-29489759D01*
X26618043Y-29335000D01*
X35522678Y-29335000D01*
X35560000Y-29338676D01*
X35597322Y-29335000D01*
X35597333Y-29335000D01*
X35708986Y-29324003D01*
X35852247Y-29280546D01*
X35984276Y-29209974D01*
X36100001Y-29115001D01*
X36123804Y-29085998D01*
X37181003Y-28028799D01*
X37210001Y-28005001D01*
X37263325Y-27940026D01*
X37304974Y-27889277D01*
X37375546Y-27757247D01*
X37419003Y-27613986D01*
X37430000Y-27502333D01*
X37430000Y-27502324D01*
X37433676Y-27465001D01*
X37430000Y-27427678D01*
X37430000Y-25668615D01*
X37440000Y-25660408D01*
X37440000Y-40379592D01*
X37387362Y-40336392D01*
X37164127Y-40217071D01*
X36921904Y-40143593D01*
X36670000Y-40118783D01*
X36418097Y-40143593D01*
X36175874Y-40217071D01*
X35952639Y-40336392D01*
X35756973Y-40496972D01*
X35596392Y-40692638D01*
X35477071Y-40915873D01*
X35403593Y-41158096D01*
X35385000Y-41346877D01*
X35385000Y-42473122D01*
X35403593Y-42661903D01*
X35477071Y-42904126D01*
X35596392Y-43127361D01*
X35756972Y-43323028D01*
X35910000Y-43448616D01*
X35910001Y-44930197D01*
X35245199Y-45595000D01*
X26618043Y-45595000D01*
X26514637Y-45440241D01*
X26314759Y-45240363D01*
X26079727Y-45083320D01*
X25818574Y-44975147D01*
X25541335Y-44920000D01*
X25258665Y-44920000D01*
X24981426Y-44975147D01*
X24720273Y-45083320D01*
X24485241Y-45240363D01*
X24285363Y-45440241D01*
X24128320Y-45675273D01*
X24020147Y-45936426D01*
X23965000Y-46213665D01*
X23965000Y-46496335D01*
X24020147Y-46773574D01*
X24128320Y-47034727D01*
X24285363Y-47269759D01*
X24485241Y-47469637D01*
X24720273Y-47626680D01*
X24981426Y-47734853D01*
X25258665Y-47790000D01*
X25541335Y-47790000D01*
X25818574Y-47734853D01*
X26079727Y-47626680D01*
X26314759Y-47469637D01*
X26514637Y-47269759D01*
X26618043Y-47115000D01*
X35522678Y-47115000D01*
X35560000Y-47118676D01*
X35597322Y-47115000D01*
X35597333Y-47115000D01*
X35708986Y-47104003D01*
X35852247Y-47060546D01*
X35984276Y-46989974D01*
X36100001Y-46895001D01*
X36123804Y-46865998D01*
X37181003Y-45808799D01*
X37210001Y-45785001D01*
X37263346Y-45720000D01*
X37304974Y-45669277D01*
X37375546Y-45537247D01*
X37419003Y-45393986D01*
X37430000Y-45282333D01*
X37430000Y-45282324D01*
X37433676Y-45245001D01*
X37430000Y-45207678D01*
X37430000Y-43448615D01*
X37440000Y-43440408D01*
X37440001Y-58159592D01*
X37387362Y-58116392D01*
X37164127Y-57997071D01*
X36921904Y-57923593D01*
X36670000Y-57898783D01*
X36418097Y-57923593D01*
X36175874Y-57997071D01*
X35952639Y-58116392D01*
X35756973Y-58276972D01*
X35596392Y-58472638D01*
X35477071Y-58695873D01*
X35403593Y-58938096D01*
X35385000Y-59126877D01*
X35385000Y-60253122D01*
X35403593Y-60441903D01*
X35477071Y-60684126D01*
X35596392Y-60907361D01*
X35756972Y-61103028D01*
X35910000Y-61228616D01*
X35910001Y-62710197D01*
X35245199Y-63375000D01*
X26618043Y-63375000D01*
X26514637Y-63220241D01*
X26314759Y-63020363D01*
X26079727Y-62863320D01*
X25818574Y-62755147D01*
X25541335Y-62700000D01*
X25258665Y-62700000D01*
X24981426Y-62755147D01*
X24720273Y-62863320D01*
X24485241Y-63020363D01*
X24285363Y-63220241D01*
X24128320Y-63455273D01*
X24020147Y-63716426D01*
X23965000Y-63993665D01*
X23965000Y-64276335D01*
X24020147Y-64553574D01*
X24128320Y-64814727D01*
X24285363Y-65049759D01*
X24485241Y-65249637D01*
X24720273Y-65406680D01*
X24981426Y-65514853D01*
X25258665Y-65570000D01*
X25541335Y-65570000D01*
X25818574Y-65514853D01*
X26079727Y-65406680D01*
X26314759Y-65249637D01*
X26514637Y-65049759D01*
X26618043Y-64895000D01*
X35522678Y-64895000D01*
X35560000Y-64898676D01*
X35597322Y-64895000D01*
X35597333Y-64895000D01*
X35708986Y-64884003D01*
X35852247Y-64840546D01*
X35984276Y-64769974D01*
X36100001Y-64675001D01*
X36123804Y-64645998D01*
X37181003Y-63588799D01*
X37210001Y-63565001D01*
X37263325Y-63500026D01*
X37304974Y-63449277D01*
X37375546Y-63317247D01*
X37419003Y-63173986D01*
X37430000Y-63062333D01*
X37430000Y-63062324D01*
X37433676Y-63025001D01*
X37430000Y-62987678D01*
X37430000Y-61228615D01*
X37440001Y-61220408D01*
X37440001Y-75939592D01*
X37387362Y-75896392D01*
X37164127Y-75777071D01*
X36921904Y-75703593D01*
X36670000Y-75678783D01*
X36418097Y-75703593D01*
X36175874Y-75777071D01*
X35952639Y-75896392D01*
X35756973Y-76056972D01*
X35596392Y-76252638D01*
X35477071Y-76475873D01*
X35403593Y-76718096D01*
X35385000Y-76906877D01*
X35385000Y-78033122D01*
X35403593Y-78221903D01*
X35477071Y-78464126D01*
X35596392Y-78687361D01*
X35756972Y-78883028D01*
X35910000Y-79008616D01*
X35910001Y-80490197D01*
X35245199Y-81155000D01*
X26618043Y-81155000D01*
X26514637Y-81000241D01*
X26314759Y-80800363D01*
X26079727Y-80643320D01*
X25818574Y-80535147D01*
X25541335Y-80480000D01*
X25258665Y-80480000D01*
X24981426Y-80535147D01*
X24720273Y-80643320D01*
X24485241Y-80800363D01*
X24285363Y-81000241D01*
X24128320Y-81235273D01*
X24020147Y-81496426D01*
X23965000Y-81773665D01*
X23965000Y-82056335D01*
X24020147Y-82333574D01*
X24128320Y-82594727D01*
X24285363Y-82829759D01*
X24485241Y-83029637D01*
X24720273Y-83186680D01*
X24981426Y-83294853D01*
X25258665Y-83350000D01*
X25541335Y-83350000D01*
X25818574Y-83294853D01*
X26079727Y-83186680D01*
X26314759Y-83029637D01*
X26514637Y-82829759D01*
X26618043Y-82675000D01*
X35522678Y-82675000D01*
X35560000Y-82678676D01*
X35597322Y-82675000D01*
X35597333Y-82675000D01*
X35708986Y-82664003D01*
X35852247Y-82620546D01*
X35984276Y-82549974D01*
X36100001Y-82455001D01*
X36123804Y-82425998D01*
X37181003Y-81368799D01*
X37210001Y-81345001D01*
X37263325Y-81280026D01*
X37304974Y-81229277D01*
X37375546Y-81097247D01*
X37419003Y-80953986D01*
X37430000Y-80842333D01*
X37430000Y-80842324D01*
X37433676Y-80805001D01*
X37430000Y-80767678D01*
X37430000Y-79008615D01*
X37440001Y-79000408D01*
X37440001Y-93719592D01*
X37387362Y-93676392D01*
X37164127Y-93557071D01*
X36921904Y-93483593D01*
X36670000Y-93458783D01*
X36418097Y-93483593D01*
X36175874Y-93557071D01*
X35952639Y-93676392D01*
X35756973Y-93836972D01*
X35596392Y-94032638D01*
X35477071Y-94255873D01*
X35403593Y-94498096D01*
X35385000Y-94686877D01*
X35385000Y-95813122D01*
X35403593Y-96001903D01*
X35477071Y-96244126D01*
X35596392Y-96467361D01*
X35756972Y-96663028D01*
X35910000Y-96788616D01*
X35910001Y-98270197D01*
X35245199Y-98935000D01*
X26618043Y-98935000D01*
X26514637Y-98780241D01*
X26314759Y-98580363D01*
X26079727Y-98423320D01*
X25818574Y-98315147D01*
X25541335Y-98260000D01*
X25258665Y-98260000D01*
X24981426Y-98315147D01*
X24720273Y-98423320D01*
X24485241Y-98580363D01*
X24285363Y-98780241D01*
X24128320Y-99015273D01*
X24020147Y-99276426D01*
X23965000Y-99553665D01*
X23965000Y-99836335D01*
X24020147Y-100113574D01*
X24128320Y-100374727D01*
X24285363Y-100609759D01*
X24485241Y-100809637D01*
X24680343Y-100940000D01*
X18499657Y-100940000D01*
X18694759Y-100809637D01*
X18894637Y-100609759D01*
X19051680Y-100374727D01*
X19159853Y-100113574D01*
X19215000Y-99836335D01*
X19215000Y-99553665D01*
X19159853Y-99276426D01*
X19051680Y-99015273D01*
X18894637Y-98780241D01*
X18694759Y-98580363D01*
X18459727Y-98423320D01*
X18198574Y-98315147D01*
X17921335Y-98260000D01*
X17638665Y-98260000D01*
X17361426Y-98315147D01*
X17100273Y-98423320D01*
X16865241Y-98580363D01*
X16665363Y-98780241D01*
X16508320Y-99015273D01*
X16400147Y-99276426D01*
X16345000Y-99553665D01*
X16345000Y-99836335D01*
X16400147Y-100113574D01*
X16508320Y-100374727D01*
X16665363Y-100609759D01*
X16865241Y-100809637D01*
X17060343Y-100940000D01*
X660000Y-100940000D01*
X660000Y-94686878D01*
X780000Y-94686878D01*
X780000Y-95813123D01*
X798593Y-96001904D01*
X872071Y-96244127D01*
X991392Y-96467362D01*
X1151973Y-96663028D01*
X1347639Y-96823608D01*
X1570874Y-96942929D01*
X1813097Y-97016407D01*
X2065000Y-97041217D01*
X2316904Y-97016407D01*
X2559127Y-96942929D01*
X2782362Y-96823608D01*
X2978028Y-96663028D01*
X3138608Y-96467362D01*
X3257929Y-96244127D01*
X3331407Y-96001904D01*
X3350000Y-95813123D01*
X3350000Y-95015098D01*
X4600000Y-95015098D01*
X4600000Y-95484902D01*
X4691654Y-95945679D01*
X4871440Y-96379721D01*
X5132450Y-96770349D01*
X5464651Y-97102550D01*
X5855279Y-97363560D01*
X6289321Y-97543346D01*
X6750098Y-97635000D01*
X7219902Y-97635000D01*
X7680679Y-97543346D01*
X7978462Y-97420000D01*
X17511928Y-97420000D01*
X17524188Y-97544482D01*
X17560498Y-97664180D01*
X17619463Y-97774494D01*
X17698815Y-97871185D01*
X17795506Y-97950537D01*
X17905820Y-98009502D01*
X18025518Y-98045812D01*
X18150000Y-98058072D01*
X18764250Y-98055000D01*
X18923000Y-97896250D01*
X18923000Y-96647000D01*
X19177000Y-96647000D01*
X19177000Y-97896250D01*
X19335750Y-98055000D01*
X19950000Y-98058072D01*
X20074482Y-98045812D01*
X20194180Y-98009502D01*
X20304494Y-97950537D01*
X20401185Y-97871185D01*
X20480537Y-97774494D01*
X20539502Y-97664180D01*
X20575812Y-97544482D01*
X20588072Y-97420000D01*
X20585000Y-96805750D01*
X20426250Y-96647000D01*
X19177000Y-96647000D01*
X18923000Y-96647000D01*
X17673750Y-96647000D01*
X17515000Y-96805750D01*
X17511928Y-97420000D01*
X7978462Y-97420000D01*
X8114721Y-97363560D01*
X8505349Y-97102550D01*
X8837550Y-96770349D01*
X9098560Y-96379721D01*
X9164738Y-96219953D01*
X9172071Y-96244127D01*
X9291392Y-96467362D01*
X9451973Y-96663028D01*
X9647639Y-96823608D01*
X9870874Y-96942929D01*
X10113097Y-97016407D01*
X10365000Y-97041217D01*
X10616904Y-97016407D01*
X10859127Y-96942929D01*
X11082362Y-96823608D01*
X11278028Y-96663028D01*
X11438608Y-96467362D01*
X11557929Y-96244127D01*
X11631407Y-96001904D01*
X11650000Y-95813123D01*
X11650000Y-95377000D01*
X12180000Y-95377000D01*
X12180000Y-95877000D01*
X12229467Y-96125251D01*
X12326415Y-96359081D01*
X12467118Y-96569505D01*
X12646170Y-96748436D01*
X12856689Y-96888997D01*
X13090585Y-96985787D01*
X13139529Y-96993099D01*
X13338000Y-96869067D01*
X13338000Y-95377000D01*
X13592000Y-95377000D01*
X13592000Y-96869067D01*
X13790471Y-96993099D01*
X13839415Y-96985787D01*
X14073311Y-96888997D01*
X14283830Y-96748436D01*
X14462882Y-96569505D01*
X14603585Y-96359081D01*
X14700533Y-96125251D01*
X14750000Y-95877000D01*
X14750000Y-95620000D01*
X17511928Y-95620000D01*
X17515000Y-96234250D01*
X17673750Y-96393000D01*
X18923000Y-96393000D01*
X18923000Y-96373000D01*
X19177000Y-96373000D01*
X19177000Y-96393000D01*
X20426250Y-96393000D01*
X20585000Y-96234250D01*
X20588072Y-95620000D01*
X20575812Y-95495518D01*
X20539860Y-95377000D01*
X23985000Y-95377000D01*
X23985000Y-95877000D01*
X24034467Y-96125251D01*
X24131415Y-96359081D01*
X24272118Y-96569505D01*
X24451170Y-96748436D01*
X24661689Y-96888997D01*
X24895585Y-96985787D01*
X24944529Y-96993099D01*
X25143000Y-96869067D01*
X25143000Y-95377000D01*
X25397000Y-95377000D01*
X25397000Y-96869067D01*
X25595471Y-96993099D01*
X25644415Y-96985787D01*
X25878311Y-96888997D01*
X26088830Y-96748436D01*
X26267882Y-96569505D01*
X26408585Y-96359081D01*
X26505533Y-96125251D01*
X26555000Y-95877000D01*
X26555000Y-95377000D01*
X25397000Y-95377000D01*
X25143000Y-95377000D01*
X23985000Y-95377000D01*
X20539860Y-95377000D01*
X20539502Y-95375820D01*
X20480537Y-95265506D01*
X20401185Y-95168815D01*
X20304494Y-95089463D01*
X20194180Y-95030498D01*
X20175873Y-95024944D01*
X20242312Y-94958505D01*
X20410299Y-94707095D01*
X20445132Y-94623000D01*
X23985000Y-94623000D01*
X23985000Y-95123000D01*
X25143000Y-95123000D01*
X25143000Y-93630933D01*
X25397000Y-93630933D01*
X25397000Y-95123000D01*
X26555000Y-95123000D01*
X26555000Y-94686877D01*
X27085000Y-94686877D01*
X27085000Y-95813122D01*
X27103593Y-96001903D01*
X27177071Y-96244126D01*
X27296392Y-96467361D01*
X27456972Y-96663028D01*
X27652638Y-96823608D01*
X27875873Y-96942929D01*
X28118096Y-97016407D01*
X28370000Y-97041217D01*
X28621903Y-97016407D01*
X28864126Y-96942929D01*
X29087361Y-96823608D01*
X29283028Y-96663028D01*
X29443608Y-96467362D01*
X29562929Y-96244127D01*
X29570262Y-96219953D01*
X29636440Y-96379721D01*
X29897450Y-96770349D01*
X30229651Y-97102550D01*
X30620279Y-97363560D01*
X31054321Y-97543346D01*
X31515098Y-97635000D01*
X31984902Y-97635000D01*
X32445679Y-97543346D01*
X32879721Y-97363560D01*
X33270349Y-97102550D01*
X33602550Y-96770349D01*
X33863560Y-96379721D01*
X34043346Y-95945679D01*
X34135000Y-95484902D01*
X34135000Y-95015098D01*
X34043346Y-94554321D01*
X33863560Y-94120279D01*
X33602550Y-93729651D01*
X33270349Y-93397450D01*
X32879721Y-93136440D01*
X32445679Y-92956654D01*
X31984902Y-92865000D01*
X31515098Y-92865000D01*
X31054321Y-92956654D01*
X30620279Y-93136440D01*
X30229651Y-93397450D01*
X29897450Y-93729651D01*
X29636440Y-94120279D01*
X29570262Y-94280047D01*
X29562929Y-94255873D01*
X29443608Y-94032638D01*
X29283028Y-93836972D01*
X29087362Y-93676392D01*
X28864127Y-93557071D01*
X28621904Y-93483593D01*
X28370000Y-93458783D01*
X28118097Y-93483593D01*
X27875874Y-93557071D01*
X27652639Y-93676392D01*
X27456973Y-93836972D01*
X27296392Y-94032638D01*
X27177071Y-94255873D01*
X27103593Y-94498096D01*
X27085000Y-94686877D01*
X26555000Y-94686877D01*
X26555000Y-94623000D01*
X26505533Y-94374749D01*
X26408585Y-94140919D01*
X26267882Y-93930495D01*
X26088830Y-93751564D01*
X25878311Y-93611003D01*
X25644415Y-93514213D01*
X25595471Y-93506901D01*
X25397000Y-93630933D01*
X25143000Y-93630933D01*
X24944529Y-93506901D01*
X24895585Y-93514213D01*
X24661689Y-93611003D01*
X24451170Y-93751564D01*
X24272118Y-93930495D01*
X24131415Y-94140919D01*
X24034467Y-94374749D01*
X23985000Y-94623000D01*
X20445132Y-94623000D01*
X20526011Y-94427743D01*
X20585000Y-94131184D01*
X20585000Y-93828816D01*
X20533731Y-93571070D01*
X22539802Y-91565000D01*
X24181957Y-91565000D01*
X24285363Y-91719759D01*
X24485241Y-91919637D01*
X24720273Y-92076680D01*
X24981426Y-92184853D01*
X25258665Y-92240000D01*
X25541335Y-92240000D01*
X25818574Y-92184853D01*
X26079727Y-92076680D01*
X26314759Y-91919637D01*
X26514637Y-91719759D01*
X26671680Y-91484727D01*
X26779853Y-91223574D01*
X26835000Y-90946335D01*
X26835000Y-90663665D01*
X26779853Y-90386426D01*
X26671680Y-90125273D01*
X26514637Y-89890241D01*
X26314759Y-89690363D01*
X26079727Y-89533320D01*
X25818574Y-89425147D01*
X25541335Y-89370000D01*
X25258665Y-89370000D01*
X24981426Y-89425147D01*
X24720273Y-89533320D01*
X24485241Y-89690363D01*
X24285363Y-89890241D01*
X24181957Y-90045000D01*
X22262322Y-90045000D01*
X22224999Y-90041324D01*
X22187676Y-90045000D01*
X22187667Y-90045000D01*
X22076014Y-90055997D01*
X21932753Y-90099454D01*
X21800723Y-90170026D01*
X21717083Y-90238668D01*
X21684999Y-90264999D01*
X21661201Y-90293997D01*
X19458930Y-92496269D01*
X19201184Y-92445000D01*
X18898816Y-92445000D01*
X18602257Y-92503989D01*
X18322905Y-92619701D01*
X18071495Y-92787688D01*
X17857688Y-93001495D01*
X17689701Y-93252905D01*
X17573989Y-93532257D01*
X17515000Y-93828816D01*
X17515000Y-94131184D01*
X17573989Y-94427743D01*
X17689701Y-94707095D01*
X17857688Y-94958505D01*
X17924127Y-95024944D01*
X17905820Y-95030498D01*
X17795506Y-95089463D01*
X17698815Y-95168815D01*
X17619463Y-95265506D01*
X17560498Y-95375820D01*
X17524188Y-95495518D01*
X17511928Y-95620000D01*
X14750000Y-95620000D01*
X14750000Y-95377000D01*
X13592000Y-95377000D01*
X13338000Y-95377000D01*
X12180000Y-95377000D01*
X11650000Y-95377000D01*
X11650000Y-94686877D01*
X11643709Y-94623000D01*
X12180000Y-94623000D01*
X12180000Y-95123000D01*
X13338000Y-95123000D01*
X13338000Y-93630933D01*
X13592000Y-93630933D01*
X13592000Y-95123000D01*
X14750000Y-95123000D01*
X14750000Y-94623000D01*
X14700533Y-94374749D01*
X14603585Y-94140919D01*
X14462882Y-93930495D01*
X14283830Y-93751564D01*
X14073311Y-93611003D01*
X13839415Y-93514213D01*
X13790471Y-93506901D01*
X13592000Y-93630933D01*
X13338000Y-93630933D01*
X13139529Y-93506901D01*
X13090585Y-93514213D01*
X12856689Y-93611003D01*
X12646170Y-93751564D01*
X12467118Y-93930495D01*
X12326415Y-94140919D01*
X12229467Y-94374749D01*
X12180000Y-94623000D01*
X11643709Y-94623000D01*
X11631407Y-94498096D01*
X11557929Y-94255873D01*
X11438608Y-94032638D01*
X11278028Y-93836972D01*
X11082361Y-93676392D01*
X10859126Y-93557071D01*
X10616903Y-93483593D01*
X10365000Y-93458783D01*
X10113096Y-93483593D01*
X9870873Y-93557071D01*
X9647638Y-93676392D01*
X9451972Y-93836972D01*
X9291392Y-94032639D01*
X9172071Y-94255874D01*
X9164738Y-94280047D01*
X9098560Y-94120279D01*
X8837550Y-93729651D01*
X8505349Y-93397450D01*
X8114721Y-93136440D01*
X7680679Y-92956654D01*
X7219902Y-92865000D01*
X6750098Y-92865000D01*
X6289321Y-92956654D01*
X5855279Y-93136440D01*
X5464651Y-93397450D01*
X5132450Y-93729651D01*
X4871440Y-94120279D01*
X4691654Y-94554321D01*
X4600000Y-95015098D01*
X3350000Y-95015098D01*
X3350000Y-94686877D01*
X3331407Y-94498096D01*
X3257929Y-94255873D01*
X3138608Y-94032638D01*
X2978028Y-93836972D01*
X2782361Y-93676392D01*
X2559126Y-93557071D01*
X2316903Y-93483593D01*
X2065000Y-93458783D01*
X1813096Y-93483593D01*
X1570873Y-93557071D01*
X1347638Y-93676392D01*
X1151972Y-93836972D01*
X991392Y-94032639D01*
X872071Y-94255874D01*
X798593Y-94498097D01*
X780000Y-94686878D01*
X660000Y-94686878D01*
X660000Y-90703061D01*
X9760000Y-90703061D01*
X9760000Y-90906939D01*
X9799774Y-91106898D01*
X9877795Y-91295256D01*
X9991063Y-91464774D01*
X10135226Y-91608937D01*
X10304744Y-91722205D01*
X10493102Y-91800226D01*
X10693061Y-91840000D01*
X10896939Y-91840000D01*
X11096898Y-91800226D01*
X11285256Y-91722205D01*
X11454774Y-91608937D01*
X11498711Y-91565000D01*
X16561957Y-91565000D01*
X16665363Y-91719759D01*
X16865241Y-91919637D01*
X17100273Y-92076680D01*
X17361426Y-92184853D01*
X17638665Y-92240000D01*
X17921335Y-92240000D01*
X18198574Y-92184853D01*
X18459727Y-92076680D01*
X18694759Y-91919637D01*
X18894637Y-91719759D01*
X19051680Y-91484727D01*
X19159853Y-91223574D01*
X19215000Y-90946335D01*
X19215000Y-90663665D01*
X19159853Y-90386426D01*
X19051680Y-90125273D01*
X18894637Y-89890241D01*
X18694759Y-89690363D01*
X18459727Y-89533320D01*
X18198574Y-89425147D01*
X17921335Y-89370000D01*
X17638665Y-89370000D01*
X17361426Y-89425147D01*
X17100273Y-89533320D01*
X16865241Y-89690363D01*
X16665363Y-89890241D01*
X16561957Y-90045000D01*
X11498711Y-90045000D01*
X11454774Y-90001063D01*
X11285256Y-89887795D01*
X11096898Y-89809774D01*
X10896939Y-89770000D01*
X10693061Y-89770000D01*
X10493102Y-89809774D01*
X10304744Y-89887795D01*
X10135226Y-90001063D01*
X9991063Y-90145226D01*
X9877795Y-90314744D01*
X9799774Y-90503102D01*
X9760000Y-90703061D01*
X660000Y-90703061D01*
X660000Y-88123665D01*
X2375000Y-88123665D01*
X2375000Y-88406335D01*
X2430147Y-88683574D01*
X2538320Y-88944727D01*
X2695363Y-89179759D01*
X2895241Y-89379637D01*
X3130273Y-89536680D01*
X3391426Y-89644853D01*
X3668665Y-89700000D01*
X3951335Y-89700000D01*
X4228574Y-89644853D01*
X4489727Y-89536680D01*
X4724759Y-89379637D01*
X4924637Y-89179759D01*
X5081680Y-88944727D01*
X5189853Y-88683574D01*
X5235027Y-88456468D01*
X32373137Y-88456468D01*
X32631298Y-88859073D01*
X33150715Y-89134651D01*
X33713913Y-89303601D01*
X34299250Y-89359430D01*
X34884233Y-89299992D01*
X35446379Y-89127571D01*
X35948702Y-88859073D01*
X36206863Y-88456468D01*
X34290000Y-86539605D01*
X32373137Y-88456468D01*
X5235027Y-88456468D01*
X5245000Y-88406335D01*
X5245000Y-88123665D01*
X5189853Y-87846426D01*
X5081680Y-87585273D01*
X4924637Y-87350241D01*
X4724759Y-87150363D01*
X4489727Y-86993320D01*
X4228574Y-86885147D01*
X3951335Y-86830000D01*
X3668665Y-86830000D01*
X3391426Y-86885147D01*
X3130273Y-86993320D01*
X2895241Y-87150363D01*
X2695363Y-87350241D01*
X2538320Y-87585273D01*
X2430147Y-87846426D01*
X2375000Y-88123665D01*
X660000Y-88123665D01*
X660000Y-86369250D01*
X31290570Y-86369250D01*
X31350008Y-86954233D01*
X31522429Y-87516379D01*
X31790927Y-88018702D01*
X32193532Y-88276863D01*
X34110395Y-86360000D01*
X34469605Y-86360000D01*
X36386468Y-88276863D01*
X36789073Y-88018702D01*
X37064651Y-87499285D01*
X37233601Y-86936087D01*
X37289430Y-86350750D01*
X37229992Y-85765767D01*
X37057571Y-85203621D01*
X36789073Y-84701298D01*
X36386468Y-84443137D01*
X34469605Y-86360000D01*
X34110395Y-86360000D01*
X32193532Y-84443137D01*
X31790927Y-84701298D01*
X31515349Y-85220715D01*
X31346399Y-85783913D01*
X31290570Y-86369250D01*
X660000Y-86369250D01*
X660000Y-84263532D01*
X32373137Y-84263532D01*
X34290000Y-86180395D01*
X36206863Y-84263532D01*
X35948702Y-83860927D01*
X35429285Y-83585349D01*
X34866087Y-83416399D01*
X34280750Y-83360570D01*
X33695767Y-83420008D01*
X33133621Y-83592429D01*
X32631298Y-83860927D01*
X32373137Y-84263532D01*
X660000Y-84263532D01*
X660000Y-79845000D01*
X2371928Y-79845000D01*
X2371928Y-81445000D01*
X2384188Y-81569482D01*
X2420498Y-81689180D01*
X2479463Y-81799494D01*
X2558815Y-81896185D01*
X2655506Y-81975537D01*
X2765820Y-82034502D01*
X2885518Y-82070812D01*
X3010000Y-82083072D01*
X4610000Y-82083072D01*
X4734482Y-82070812D01*
X4854180Y-82034502D01*
X4964494Y-81975537D01*
X5061185Y-81896185D01*
X5140537Y-81799494D01*
X5154343Y-81773665D01*
X16345000Y-81773665D01*
X16345000Y-82056335D01*
X16400147Y-82333574D01*
X16508320Y-82594727D01*
X16665363Y-82829759D01*
X16865241Y-83029637D01*
X17100273Y-83186680D01*
X17361426Y-83294853D01*
X17638665Y-83350000D01*
X17921335Y-83350000D01*
X18198574Y-83294853D01*
X18459727Y-83186680D01*
X18694759Y-83029637D01*
X18894637Y-82829759D01*
X19051680Y-82594727D01*
X19159853Y-82333574D01*
X19215000Y-82056335D01*
X19215000Y-81773665D01*
X19159853Y-81496426D01*
X19051680Y-81235273D01*
X18894637Y-81000241D01*
X18694759Y-80800363D01*
X18459727Y-80643320D01*
X18198574Y-80535147D01*
X17921335Y-80480000D01*
X17638665Y-80480000D01*
X17361426Y-80535147D01*
X17100273Y-80643320D01*
X16865241Y-80800363D01*
X16665363Y-81000241D01*
X16508320Y-81235273D01*
X16400147Y-81496426D01*
X16345000Y-81773665D01*
X5154343Y-81773665D01*
X5199502Y-81689180D01*
X5235812Y-81569482D01*
X5248072Y-81445000D01*
X5248072Y-79845000D01*
X5235812Y-79720518D01*
X5211388Y-79640000D01*
X17511928Y-79640000D01*
X17524188Y-79764482D01*
X17560498Y-79884180D01*
X17619463Y-79994494D01*
X17698815Y-80091185D01*
X17795506Y-80170537D01*
X17905820Y-80229502D01*
X18025518Y-80265812D01*
X18150000Y-80278072D01*
X18764250Y-80275000D01*
X18923000Y-80116250D01*
X18923000Y-78867000D01*
X19177000Y-78867000D01*
X19177000Y-80116250D01*
X19335750Y-80275000D01*
X19950000Y-80278072D01*
X20074482Y-80265812D01*
X20194180Y-80229502D01*
X20304494Y-80170537D01*
X20401185Y-80091185D01*
X20480537Y-79994494D01*
X20539502Y-79884180D01*
X20575812Y-79764482D01*
X20588072Y-79640000D01*
X20585000Y-79025750D01*
X20426250Y-78867000D01*
X19177000Y-78867000D01*
X18923000Y-78867000D01*
X17673750Y-78867000D01*
X17515000Y-79025750D01*
X17511928Y-79640000D01*
X5211388Y-79640000D01*
X5199502Y-79600820D01*
X5140537Y-79490506D01*
X5061185Y-79393815D01*
X4964494Y-79314463D01*
X4854180Y-79255498D01*
X4734482Y-79219188D01*
X4726039Y-79218357D01*
X4924637Y-79019759D01*
X5081680Y-78784727D01*
X5189853Y-78523574D01*
X5245000Y-78246335D01*
X5245000Y-77963665D01*
X5220402Y-77840000D01*
X17511928Y-77840000D01*
X17515000Y-78454250D01*
X17673750Y-78613000D01*
X18923000Y-78613000D01*
X18923000Y-78593000D01*
X19177000Y-78593000D01*
X19177000Y-78613000D01*
X20426250Y-78613000D01*
X20585000Y-78454250D01*
X20588072Y-77840000D01*
X20575812Y-77715518D01*
X20539860Y-77597000D01*
X23985000Y-77597000D01*
X23985000Y-78097000D01*
X24034467Y-78345251D01*
X24131415Y-78579081D01*
X24272118Y-78789505D01*
X24451170Y-78968436D01*
X24661689Y-79108997D01*
X24895585Y-79205787D01*
X24944529Y-79213099D01*
X25143000Y-79089067D01*
X25143000Y-77597000D01*
X25397000Y-77597000D01*
X25397000Y-79089067D01*
X25595471Y-79213099D01*
X25644415Y-79205787D01*
X25878311Y-79108997D01*
X26088830Y-78968436D01*
X26267882Y-78789505D01*
X26408585Y-78579081D01*
X26505533Y-78345251D01*
X26555000Y-78097000D01*
X26555000Y-77597000D01*
X25397000Y-77597000D01*
X25143000Y-77597000D01*
X23985000Y-77597000D01*
X20539860Y-77597000D01*
X20539502Y-77595820D01*
X20480537Y-77485506D01*
X20401185Y-77388815D01*
X20304494Y-77309463D01*
X20194180Y-77250498D01*
X20175873Y-77244944D01*
X20242312Y-77178505D01*
X20410299Y-76927095D01*
X20445132Y-76843000D01*
X23985000Y-76843000D01*
X23985000Y-77343000D01*
X25143000Y-77343000D01*
X25143000Y-75850933D01*
X25397000Y-75850933D01*
X25397000Y-77343000D01*
X26555000Y-77343000D01*
X26555000Y-76906877D01*
X27085000Y-76906877D01*
X27085000Y-78033122D01*
X27103593Y-78221903D01*
X27177071Y-78464126D01*
X27296392Y-78687361D01*
X27456972Y-78883028D01*
X27652638Y-79043608D01*
X27875873Y-79162929D01*
X28118096Y-79236407D01*
X28370000Y-79261217D01*
X28621903Y-79236407D01*
X28864126Y-79162929D01*
X29087361Y-79043608D01*
X29283028Y-78883028D01*
X29443608Y-78687362D01*
X29562929Y-78464127D01*
X29570262Y-78439953D01*
X29636440Y-78599721D01*
X29897450Y-78990349D01*
X30229651Y-79322550D01*
X30620279Y-79583560D01*
X31054321Y-79763346D01*
X31515098Y-79855000D01*
X31984902Y-79855000D01*
X32445679Y-79763346D01*
X32879721Y-79583560D01*
X33270349Y-79322550D01*
X33602550Y-78990349D01*
X33863560Y-78599721D01*
X34043346Y-78165679D01*
X34135000Y-77704902D01*
X34135000Y-77235098D01*
X34043346Y-76774321D01*
X33863560Y-76340279D01*
X33602550Y-75949651D01*
X33270349Y-75617450D01*
X32879721Y-75356440D01*
X32445679Y-75176654D01*
X31984902Y-75085000D01*
X31515098Y-75085000D01*
X31054321Y-75176654D01*
X30620279Y-75356440D01*
X30229651Y-75617450D01*
X29897450Y-75949651D01*
X29636440Y-76340279D01*
X29570262Y-76500047D01*
X29562929Y-76475873D01*
X29443608Y-76252638D01*
X29283028Y-76056972D01*
X29087362Y-75896392D01*
X28864127Y-75777071D01*
X28621904Y-75703593D01*
X28370000Y-75678783D01*
X28118097Y-75703593D01*
X27875874Y-75777071D01*
X27652639Y-75896392D01*
X27456973Y-76056972D01*
X27296392Y-76252638D01*
X27177071Y-76475873D01*
X27103593Y-76718096D01*
X27085000Y-76906877D01*
X26555000Y-76906877D01*
X26555000Y-76843000D01*
X26505533Y-76594749D01*
X26408585Y-76360919D01*
X26267882Y-76150495D01*
X26088830Y-75971564D01*
X25878311Y-75831003D01*
X25644415Y-75734213D01*
X25595471Y-75726901D01*
X25397000Y-75850933D01*
X25143000Y-75850933D01*
X24944529Y-75726901D01*
X24895585Y-75734213D01*
X24661689Y-75831003D01*
X24451170Y-75971564D01*
X24272118Y-76150495D01*
X24131415Y-76360919D01*
X24034467Y-76594749D01*
X23985000Y-76843000D01*
X20445132Y-76843000D01*
X20526011Y-76647743D01*
X20585000Y-76351184D01*
X20585000Y-76048816D01*
X20533731Y-75791070D01*
X22539802Y-73785000D01*
X24181957Y-73785000D01*
X24285363Y-73939759D01*
X24485241Y-74139637D01*
X24720273Y-74296680D01*
X24981426Y-74404853D01*
X25258665Y-74460000D01*
X25541335Y-74460000D01*
X25818574Y-74404853D01*
X26079727Y-74296680D01*
X26314759Y-74139637D01*
X26514637Y-73939759D01*
X26671680Y-73704727D01*
X26779853Y-73443574D01*
X26835000Y-73166335D01*
X26835000Y-72883665D01*
X26779853Y-72606426D01*
X26671680Y-72345273D01*
X26514637Y-72110241D01*
X26314759Y-71910363D01*
X26079727Y-71753320D01*
X25818574Y-71645147D01*
X25541335Y-71590000D01*
X25258665Y-71590000D01*
X24981426Y-71645147D01*
X24720273Y-71753320D01*
X24485241Y-71910363D01*
X24285363Y-72110241D01*
X24181957Y-72265000D01*
X22262322Y-72265000D01*
X22224999Y-72261324D01*
X22187676Y-72265000D01*
X22187667Y-72265000D01*
X22076014Y-72275997D01*
X21932753Y-72319454D01*
X21800723Y-72390026D01*
X21717083Y-72458668D01*
X21684999Y-72484999D01*
X21661201Y-72513997D01*
X19458930Y-74716269D01*
X19201184Y-74665000D01*
X18898816Y-74665000D01*
X18602257Y-74723989D01*
X18322905Y-74839701D01*
X18071495Y-75007688D01*
X17857688Y-75221495D01*
X17689701Y-75472905D01*
X17573989Y-75752257D01*
X17515000Y-76048816D01*
X17515000Y-76351184D01*
X17573989Y-76647743D01*
X17689701Y-76927095D01*
X17857688Y-77178505D01*
X17924127Y-77244944D01*
X17905820Y-77250498D01*
X17795506Y-77309463D01*
X17698815Y-77388815D01*
X17619463Y-77485506D01*
X17560498Y-77595820D01*
X17524188Y-77715518D01*
X17511928Y-77840000D01*
X5220402Y-77840000D01*
X5189853Y-77686426D01*
X5081680Y-77425273D01*
X4924637Y-77190241D01*
X4724759Y-76990363D01*
X4489727Y-76833320D01*
X4228574Y-76725147D01*
X3951335Y-76670000D01*
X3668665Y-76670000D01*
X3391426Y-76725147D01*
X3130273Y-76833320D01*
X2895241Y-76990363D01*
X2695363Y-77190241D01*
X2538320Y-77425273D01*
X2430147Y-77686426D01*
X2375000Y-77963665D01*
X2375000Y-78246335D01*
X2430147Y-78523574D01*
X2538320Y-78784727D01*
X2695363Y-79019759D01*
X2893961Y-79218357D01*
X2885518Y-79219188D01*
X2765820Y-79255498D01*
X2655506Y-79314463D01*
X2558815Y-79393815D01*
X2479463Y-79490506D01*
X2420498Y-79600820D01*
X2384188Y-79720518D01*
X2371928Y-79845000D01*
X660000Y-79845000D01*
X660000Y-72923061D01*
X11030000Y-72923061D01*
X11030000Y-73126939D01*
X11069774Y-73326898D01*
X11147795Y-73515256D01*
X11261063Y-73684774D01*
X11405226Y-73828937D01*
X11574744Y-73942205D01*
X11763102Y-74020226D01*
X11963061Y-74060000D01*
X12166939Y-74060000D01*
X12366898Y-74020226D01*
X12555256Y-73942205D01*
X12724774Y-73828937D01*
X12768711Y-73785000D01*
X16561957Y-73785000D01*
X16665363Y-73939759D01*
X16865241Y-74139637D01*
X17100273Y-74296680D01*
X17361426Y-74404853D01*
X17638665Y-74460000D01*
X17921335Y-74460000D01*
X18198574Y-74404853D01*
X18459727Y-74296680D01*
X18694759Y-74139637D01*
X18894637Y-73939759D01*
X19051680Y-73704727D01*
X19159853Y-73443574D01*
X19215000Y-73166335D01*
X19215000Y-72883665D01*
X19159853Y-72606426D01*
X19051680Y-72345273D01*
X18894637Y-72110241D01*
X18694759Y-71910363D01*
X18459727Y-71753320D01*
X18198574Y-71645147D01*
X17921335Y-71590000D01*
X17638665Y-71590000D01*
X17361426Y-71645147D01*
X17100273Y-71753320D01*
X16865241Y-71910363D01*
X16665363Y-72110241D01*
X16561957Y-72265000D01*
X12768711Y-72265000D01*
X12724774Y-72221063D01*
X12555256Y-72107795D01*
X12366898Y-72029774D01*
X12166939Y-71990000D01*
X11963061Y-71990000D01*
X11763102Y-72029774D01*
X11574744Y-72107795D01*
X11405226Y-72221063D01*
X11261063Y-72365226D01*
X11147795Y-72534744D01*
X11069774Y-72723102D01*
X11030000Y-72923061D01*
X660000Y-72923061D01*
X660000Y-70343665D01*
X2375000Y-70343665D01*
X2375000Y-70626335D01*
X2430147Y-70903574D01*
X2538320Y-71164727D01*
X2695363Y-71399759D01*
X2895241Y-71599637D01*
X3130273Y-71756680D01*
X3391426Y-71864853D01*
X3668665Y-71920000D01*
X3951335Y-71920000D01*
X4228574Y-71864853D01*
X4489727Y-71756680D01*
X4724759Y-71599637D01*
X4924637Y-71399759D01*
X5081680Y-71164727D01*
X5189853Y-70903574D01*
X5245000Y-70626335D01*
X5245000Y-70343665D01*
X5189853Y-70066426D01*
X5081680Y-69805273D01*
X4924637Y-69570241D01*
X4724759Y-69370363D01*
X4489727Y-69213320D01*
X4228574Y-69105147D01*
X3951335Y-69050000D01*
X3668665Y-69050000D01*
X3391426Y-69105147D01*
X3130273Y-69213320D01*
X2895241Y-69370363D01*
X2695363Y-69570241D01*
X2538320Y-69805273D01*
X2430147Y-70066426D01*
X2375000Y-70343665D01*
X660000Y-70343665D01*
X660000Y-63993665D01*
X16345000Y-63993665D01*
X16345000Y-64276335D01*
X16400147Y-64553574D01*
X16508320Y-64814727D01*
X16665363Y-65049759D01*
X16865241Y-65249637D01*
X17100273Y-65406680D01*
X17361426Y-65514853D01*
X17638665Y-65570000D01*
X17921335Y-65570000D01*
X18198574Y-65514853D01*
X18459727Y-65406680D01*
X18694759Y-65249637D01*
X18894637Y-65049759D01*
X19051680Y-64814727D01*
X19159853Y-64553574D01*
X19215000Y-64276335D01*
X19215000Y-63993665D01*
X19159853Y-63716426D01*
X19051680Y-63455273D01*
X18894637Y-63220241D01*
X18694759Y-63020363D01*
X18459727Y-62863320D01*
X18198574Y-62755147D01*
X17921335Y-62700000D01*
X17638665Y-62700000D01*
X17361426Y-62755147D01*
X17100273Y-62863320D01*
X16865241Y-63020363D01*
X16665363Y-63220241D01*
X16508320Y-63455273D01*
X16400147Y-63716426D01*
X16345000Y-63993665D01*
X660000Y-63993665D01*
X660000Y-60813740D01*
X2325000Y-60813740D01*
X2325000Y-61106260D01*
X2382068Y-61393158D01*
X2494010Y-61663411D01*
X2656525Y-61906632D01*
X2863368Y-62113475D01*
X3106589Y-62275990D01*
X3376842Y-62387932D01*
X3663740Y-62445000D01*
X3956260Y-62445000D01*
X4243158Y-62387932D01*
X4513411Y-62275990D01*
X4756632Y-62113475D01*
X4963475Y-61906632D01*
X5125990Y-61663411D01*
X5237932Y-61393158D01*
X5253102Y-61316890D01*
X6813524Y-61316890D01*
X6858175Y-61464099D01*
X6983359Y-61726920D01*
X7157412Y-61960269D01*
X7373645Y-62155178D01*
X7623748Y-62304157D01*
X7898109Y-62401481D01*
X8128000Y-62280814D01*
X8128000Y-61087000D01*
X8382000Y-61087000D01*
X8382000Y-62280814D01*
X8611891Y-62401481D01*
X8886252Y-62304157D01*
X9136355Y-62155178D01*
X9352588Y-61960269D01*
X9427377Y-61860000D01*
X17511928Y-61860000D01*
X17524188Y-61984482D01*
X17560498Y-62104180D01*
X17619463Y-62214494D01*
X17698815Y-62311185D01*
X17795506Y-62390537D01*
X17905820Y-62449502D01*
X18025518Y-62485812D01*
X18150000Y-62498072D01*
X18764250Y-62495000D01*
X18923000Y-62336250D01*
X18923000Y-61087000D01*
X19177000Y-61087000D01*
X19177000Y-62336250D01*
X19335750Y-62495000D01*
X19950000Y-62498072D01*
X20074482Y-62485812D01*
X20194180Y-62449502D01*
X20304494Y-62390537D01*
X20401185Y-62311185D01*
X20480537Y-62214494D01*
X20539502Y-62104180D01*
X20575812Y-61984482D01*
X20588072Y-61860000D01*
X20585000Y-61245750D01*
X20426250Y-61087000D01*
X19177000Y-61087000D01*
X18923000Y-61087000D01*
X17673750Y-61087000D01*
X17515000Y-61245750D01*
X17511928Y-61860000D01*
X9427377Y-61860000D01*
X9526641Y-61726920D01*
X9651825Y-61464099D01*
X9696476Y-61316890D01*
X9575155Y-61087000D01*
X8382000Y-61087000D01*
X8128000Y-61087000D01*
X6934845Y-61087000D01*
X6813524Y-61316890D01*
X5253102Y-61316890D01*
X5295000Y-61106260D01*
X5295000Y-60813740D01*
X5237932Y-60526842D01*
X5125990Y-60256589D01*
X4963475Y-60013368D01*
X4756632Y-59806525D01*
X4574466Y-59684805D01*
X4691355Y-59615178D01*
X4907588Y-59420269D01*
X5081641Y-59186920D01*
X5206825Y-58924099D01*
X5251476Y-58776890D01*
X5130155Y-58547000D01*
X3937000Y-58547000D01*
X3937000Y-58567000D01*
X3683000Y-58567000D01*
X3683000Y-58547000D01*
X2489845Y-58547000D01*
X2368524Y-58776890D01*
X2413175Y-58924099D01*
X2538359Y-59186920D01*
X2712412Y-59420269D01*
X2928645Y-59615178D01*
X3045534Y-59684805D01*
X2863368Y-59806525D01*
X2656525Y-60013368D01*
X2494010Y-60256589D01*
X2382068Y-60526842D01*
X2325000Y-60813740D01*
X660000Y-60813740D01*
X660000Y-56236890D01*
X2368524Y-56236890D01*
X2413175Y-56384099D01*
X2538359Y-56646920D01*
X2712412Y-56880269D01*
X2928645Y-57075178D01*
X3054255Y-57150000D01*
X2928645Y-57224822D01*
X2712412Y-57419731D01*
X2538359Y-57653080D01*
X2413175Y-57915901D01*
X2368524Y-58063110D01*
X2489845Y-58293000D01*
X3683000Y-58293000D01*
X3683000Y-56007000D01*
X3937000Y-56007000D01*
X3937000Y-58293000D01*
X5130155Y-58293000D01*
X5251476Y-58063110D01*
X5206825Y-57915901D01*
X5081641Y-57653080D01*
X4907588Y-57419731D01*
X4691355Y-57224822D01*
X4565745Y-57150000D01*
X4691355Y-57075178D01*
X4907588Y-56880269D01*
X5081641Y-56646920D01*
X5206825Y-56384099D01*
X5251476Y-56236890D01*
X5130155Y-56007000D01*
X3937000Y-56007000D01*
X3683000Y-56007000D01*
X2489845Y-56007000D01*
X2368524Y-56236890D01*
X660000Y-56236890D01*
X660000Y-53696890D01*
X2368524Y-53696890D01*
X2413175Y-53844099D01*
X2538359Y-54106920D01*
X2712412Y-54340269D01*
X2928645Y-54535178D01*
X3054255Y-54610000D01*
X2928645Y-54684822D01*
X2712412Y-54879731D01*
X2538359Y-55113080D01*
X2413175Y-55375901D01*
X2368524Y-55523110D01*
X2489845Y-55753000D01*
X3683000Y-55753000D01*
X3683000Y-53467000D01*
X3937000Y-53467000D01*
X3937000Y-55753000D01*
X5130155Y-55753000D01*
X5251476Y-55523110D01*
X5206825Y-55375901D01*
X5081641Y-55113080D01*
X4907588Y-54879731D01*
X4691355Y-54684822D01*
X4565745Y-54610000D01*
X4691355Y-54535178D01*
X4907588Y-54340269D01*
X5081641Y-54106920D01*
X5206825Y-53844099D01*
X5251476Y-53696890D01*
X5130155Y-53467000D01*
X3937000Y-53467000D01*
X3683000Y-53467000D01*
X2489845Y-53467000D01*
X2368524Y-53696890D01*
X660000Y-53696890D01*
X660000Y-51156890D01*
X2368524Y-51156890D01*
X2413175Y-51304099D01*
X2538359Y-51566920D01*
X2712412Y-51800269D01*
X2928645Y-51995178D01*
X3054255Y-52070000D01*
X2928645Y-52144822D01*
X2712412Y-52339731D01*
X2538359Y-52573080D01*
X2413175Y-52835901D01*
X2368524Y-52983110D01*
X2489845Y-53213000D01*
X3683000Y-53213000D01*
X3683000Y-50927000D01*
X3937000Y-50927000D01*
X3937000Y-53213000D01*
X5130155Y-53213000D01*
X5251476Y-52983110D01*
X5206825Y-52835901D01*
X5081641Y-52573080D01*
X4907588Y-52339731D01*
X4691355Y-52144822D01*
X4565745Y-52070000D01*
X4691355Y-51995178D01*
X4907588Y-51800269D01*
X5081641Y-51566920D01*
X5206825Y-51304099D01*
X5251476Y-51156890D01*
X5130155Y-50927000D01*
X3937000Y-50927000D01*
X3683000Y-50927000D01*
X2489845Y-50927000D01*
X2368524Y-51156890D01*
X660000Y-51156890D01*
X660000Y-48616890D01*
X2368524Y-48616890D01*
X2413175Y-48764099D01*
X2538359Y-49026920D01*
X2712412Y-49260269D01*
X2928645Y-49455178D01*
X3054255Y-49530000D01*
X2928645Y-49604822D01*
X2712412Y-49799731D01*
X2538359Y-50033080D01*
X2413175Y-50295901D01*
X2368524Y-50443110D01*
X2489845Y-50673000D01*
X3683000Y-50673000D01*
X3683000Y-48387000D01*
X3937000Y-48387000D01*
X3937000Y-50673000D01*
X5130155Y-50673000D01*
X5251476Y-50443110D01*
X5206825Y-50295901D01*
X5081641Y-50033080D01*
X4907588Y-49799731D01*
X4691355Y-49604822D01*
X4565745Y-49530000D01*
X4691355Y-49455178D01*
X4907588Y-49260269D01*
X5081641Y-49026920D01*
X5206825Y-48764099D01*
X5251476Y-48616890D01*
X5130155Y-48387000D01*
X3937000Y-48387000D01*
X3683000Y-48387000D01*
X2489845Y-48387000D01*
X2368524Y-48616890D01*
X660000Y-48616890D01*
X660000Y-46076890D01*
X2368524Y-46076890D01*
X2413175Y-46224099D01*
X2538359Y-46486920D01*
X2712412Y-46720269D01*
X2928645Y-46915178D01*
X3054255Y-46990000D01*
X2928645Y-47064822D01*
X2712412Y-47259731D01*
X2538359Y-47493080D01*
X2413175Y-47755901D01*
X2368524Y-47903110D01*
X2489845Y-48133000D01*
X3683000Y-48133000D01*
X3683000Y-45847000D01*
X3937000Y-45847000D01*
X3937000Y-48133000D01*
X5130155Y-48133000D01*
X5251476Y-47903110D01*
X5206825Y-47755901D01*
X5081641Y-47493080D01*
X4907588Y-47259731D01*
X4691355Y-47064822D01*
X4565745Y-46990000D01*
X4691355Y-46915178D01*
X4907588Y-46720269D01*
X5081641Y-46486920D01*
X5206825Y-46224099D01*
X5251476Y-46076890D01*
X5130155Y-45847000D01*
X3937000Y-45847000D01*
X3683000Y-45847000D01*
X2489845Y-45847000D01*
X2368524Y-46076890D01*
X660000Y-46076890D01*
X660000Y-42330000D01*
X2321928Y-42330000D01*
X2321928Y-44030000D01*
X2334188Y-44154482D01*
X2370498Y-44274180D01*
X2429463Y-44384494D01*
X2508815Y-44481185D01*
X2605506Y-44560537D01*
X2715820Y-44619502D01*
X2796466Y-44643966D01*
X2712412Y-44719731D01*
X2538359Y-44953080D01*
X2413175Y-45215901D01*
X2368524Y-45363110D01*
X2489845Y-45593000D01*
X3683000Y-45593000D01*
X3683000Y-45573000D01*
X3937000Y-45573000D01*
X3937000Y-45593000D01*
X5130155Y-45593000D01*
X5251476Y-45363110D01*
X5206825Y-45215901D01*
X5081641Y-44953080D01*
X4907588Y-44719731D01*
X4823534Y-44643966D01*
X4904180Y-44619502D01*
X5014494Y-44560537D01*
X5111185Y-44481185D01*
X5190537Y-44384494D01*
X5249502Y-44274180D01*
X5285812Y-44154482D01*
X5298072Y-44030000D01*
X6766928Y-44030000D01*
X6779188Y-44154482D01*
X6815498Y-44274180D01*
X6874463Y-44384494D01*
X6953815Y-44481185D01*
X7050506Y-44560537D01*
X7160820Y-44619502D01*
X7233380Y-44641513D01*
X7101525Y-44773368D01*
X6939010Y-45016589D01*
X6827068Y-45286842D01*
X6770000Y-45573740D01*
X6770000Y-45866260D01*
X6827068Y-46153158D01*
X6939010Y-46423411D01*
X7101525Y-46666632D01*
X7308368Y-46873475D01*
X7482760Y-46990000D01*
X7308368Y-47106525D01*
X7101525Y-47313368D01*
X6939010Y-47556589D01*
X6827068Y-47826842D01*
X6770000Y-48113740D01*
X6770000Y-48406260D01*
X6827068Y-48693158D01*
X6939010Y-48963411D01*
X7101525Y-49206632D01*
X7308368Y-49413475D01*
X7482760Y-49530000D01*
X7308368Y-49646525D01*
X7101525Y-49853368D01*
X6939010Y-50096589D01*
X6827068Y-50366842D01*
X6770000Y-50653740D01*
X6770000Y-50946260D01*
X6827068Y-51233158D01*
X6939010Y-51503411D01*
X7101525Y-51746632D01*
X7308368Y-51953475D01*
X7482760Y-52070000D01*
X7308368Y-52186525D01*
X7101525Y-52393368D01*
X6939010Y-52636589D01*
X6827068Y-52906842D01*
X6770000Y-53193740D01*
X6770000Y-53486260D01*
X6827068Y-53773158D01*
X6939010Y-54043411D01*
X7101525Y-54286632D01*
X7308368Y-54493475D01*
X7482760Y-54610000D01*
X7308368Y-54726525D01*
X7101525Y-54933368D01*
X6939010Y-55176589D01*
X6827068Y-55446842D01*
X6770000Y-55733740D01*
X6770000Y-56026260D01*
X6827068Y-56313158D01*
X6939010Y-56583411D01*
X7101525Y-56826632D01*
X7308368Y-57033475D01*
X7482760Y-57150000D01*
X7308368Y-57266525D01*
X7101525Y-57473368D01*
X6939010Y-57716589D01*
X6827068Y-57986842D01*
X6770000Y-58273740D01*
X6770000Y-58566260D01*
X6827068Y-58853158D01*
X6939010Y-59123411D01*
X7101525Y-59366632D01*
X7308368Y-59573475D01*
X7490534Y-59695195D01*
X7373645Y-59764822D01*
X7157412Y-59959731D01*
X6983359Y-60193080D01*
X6858175Y-60455901D01*
X6813524Y-60603110D01*
X6934845Y-60833000D01*
X8128000Y-60833000D01*
X8128000Y-60813000D01*
X8382000Y-60813000D01*
X8382000Y-60833000D01*
X9575155Y-60833000D01*
X9696476Y-60603110D01*
X9651825Y-60455901D01*
X9526641Y-60193080D01*
X9427378Y-60060000D01*
X17511928Y-60060000D01*
X17515000Y-60674250D01*
X17673750Y-60833000D01*
X18923000Y-60833000D01*
X18923000Y-60813000D01*
X19177000Y-60813000D01*
X19177000Y-60833000D01*
X20426250Y-60833000D01*
X20585000Y-60674250D01*
X20588072Y-60060000D01*
X20575812Y-59935518D01*
X20539860Y-59817000D01*
X23985000Y-59817000D01*
X23985000Y-60317000D01*
X24034467Y-60565251D01*
X24131415Y-60799081D01*
X24272118Y-61009505D01*
X24451170Y-61188436D01*
X24661689Y-61328997D01*
X24895585Y-61425787D01*
X24944529Y-61433099D01*
X25143000Y-61309067D01*
X25143000Y-59817000D01*
X25397000Y-59817000D01*
X25397000Y-61309067D01*
X25595471Y-61433099D01*
X25644415Y-61425787D01*
X25878311Y-61328997D01*
X26088830Y-61188436D01*
X26267882Y-61009505D01*
X26408585Y-60799081D01*
X26505533Y-60565251D01*
X26555000Y-60317000D01*
X26555000Y-59817000D01*
X25397000Y-59817000D01*
X25143000Y-59817000D01*
X23985000Y-59817000D01*
X20539860Y-59817000D01*
X20539502Y-59815820D01*
X20480537Y-59705506D01*
X20401185Y-59608815D01*
X20304494Y-59529463D01*
X20194180Y-59470498D01*
X20175873Y-59464944D01*
X20242312Y-59398505D01*
X20410299Y-59147095D01*
X20445132Y-59063000D01*
X23985000Y-59063000D01*
X23985000Y-59563000D01*
X25143000Y-59563000D01*
X25143000Y-58070933D01*
X25397000Y-58070933D01*
X25397000Y-59563000D01*
X26555000Y-59563000D01*
X26555000Y-59126877D01*
X27085000Y-59126877D01*
X27085000Y-60253122D01*
X27103593Y-60441903D01*
X27177071Y-60684126D01*
X27296392Y-60907361D01*
X27456972Y-61103028D01*
X27652638Y-61263608D01*
X27875873Y-61382929D01*
X28118096Y-61456407D01*
X28370000Y-61481217D01*
X28621903Y-61456407D01*
X28864126Y-61382929D01*
X29087361Y-61263608D01*
X29283028Y-61103028D01*
X29443608Y-60907362D01*
X29562929Y-60684127D01*
X29570262Y-60659953D01*
X29636440Y-60819721D01*
X29897450Y-61210349D01*
X30229651Y-61542550D01*
X30620279Y-61803560D01*
X31054321Y-61983346D01*
X31515098Y-62075000D01*
X31984902Y-62075000D01*
X32445679Y-61983346D01*
X32879721Y-61803560D01*
X33270349Y-61542550D01*
X33602550Y-61210349D01*
X33863560Y-60819721D01*
X34043346Y-60385679D01*
X34135000Y-59924902D01*
X34135000Y-59455098D01*
X34043346Y-58994321D01*
X33863560Y-58560279D01*
X33602550Y-58169651D01*
X33270349Y-57837450D01*
X32879721Y-57576440D01*
X32445679Y-57396654D01*
X31984902Y-57305000D01*
X31515098Y-57305000D01*
X31054321Y-57396654D01*
X30620279Y-57576440D01*
X30229651Y-57837450D01*
X29897450Y-58169651D01*
X29636440Y-58560279D01*
X29570262Y-58720047D01*
X29562929Y-58695873D01*
X29443608Y-58472638D01*
X29283028Y-58276972D01*
X29087362Y-58116392D01*
X28864127Y-57997071D01*
X28621904Y-57923593D01*
X28370000Y-57898783D01*
X28118097Y-57923593D01*
X27875874Y-57997071D01*
X27652639Y-58116392D01*
X27456973Y-58276972D01*
X27296392Y-58472638D01*
X27177071Y-58695873D01*
X27103593Y-58938096D01*
X27085000Y-59126877D01*
X26555000Y-59126877D01*
X26555000Y-59063000D01*
X26505533Y-58814749D01*
X26408585Y-58580919D01*
X26267882Y-58370495D01*
X26088830Y-58191564D01*
X25878311Y-58051003D01*
X25644415Y-57954213D01*
X25595471Y-57946901D01*
X25397000Y-58070933D01*
X25143000Y-58070933D01*
X24944529Y-57946901D01*
X24895585Y-57954213D01*
X24661689Y-58051003D01*
X24451170Y-58191564D01*
X24272118Y-58370495D01*
X24131415Y-58580919D01*
X24034467Y-58814749D01*
X23985000Y-59063000D01*
X20445132Y-59063000D01*
X20526011Y-58867743D01*
X20585000Y-58571184D01*
X20585000Y-58268816D01*
X20533731Y-58011070D01*
X22539802Y-56005000D01*
X24181957Y-56005000D01*
X24285363Y-56159759D01*
X24485241Y-56359637D01*
X24720273Y-56516680D01*
X24981426Y-56624853D01*
X25258665Y-56680000D01*
X25541335Y-56680000D01*
X25818574Y-56624853D01*
X26079727Y-56516680D01*
X26314759Y-56359637D01*
X26514637Y-56159759D01*
X26671680Y-55924727D01*
X26779853Y-55663574D01*
X26835000Y-55386335D01*
X26835000Y-55103665D01*
X26779853Y-54826426D01*
X26671680Y-54565273D01*
X26514637Y-54330241D01*
X26314759Y-54130363D01*
X26079727Y-53973320D01*
X25818574Y-53865147D01*
X25541335Y-53810000D01*
X25258665Y-53810000D01*
X24981426Y-53865147D01*
X24720273Y-53973320D01*
X24485241Y-54130363D01*
X24285363Y-54330241D01*
X24181957Y-54485000D01*
X22262322Y-54485000D01*
X22224999Y-54481324D01*
X22187676Y-54485000D01*
X22187667Y-54485000D01*
X22076014Y-54495997D01*
X21944657Y-54535843D01*
X21932753Y-54539454D01*
X21800723Y-54610026D01*
X21717083Y-54678668D01*
X21684999Y-54704999D01*
X21661201Y-54733997D01*
X19458930Y-56936269D01*
X19201184Y-56885000D01*
X18898816Y-56885000D01*
X18602257Y-56943989D01*
X18322905Y-57059701D01*
X18071495Y-57227688D01*
X17857688Y-57441495D01*
X17689701Y-57692905D01*
X17573989Y-57972257D01*
X17515000Y-58268816D01*
X17515000Y-58571184D01*
X17573989Y-58867743D01*
X17689701Y-59147095D01*
X17857688Y-59398505D01*
X17924127Y-59464944D01*
X17905820Y-59470498D01*
X17795506Y-59529463D01*
X17698815Y-59608815D01*
X17619463Y-59705506D01*
X17560498Y-59815820D01*
X17524188Y-59935518D01*
X17511928Y-60060000D01*
X9427378Y-60060000D01*
X9352588Y-59959731D01*
X9136355Y-59764822D01*
X9019466Y-59695195D01*
X9201632Y-59573475D01*
X9408475Y-59366632D01*
X9533178Y-59180000D01*
X10091289Y-59180000D01*
X10135226Y-59223937D01*
X10304744Y-59337205D01*
X10493102Y-59415226D01*
X10693061Y-59455000D01*
X10896939Y-59455000D01*
X11096898Y-59415226D01*
X11285256Y-59337205D01*
X11454774Y-59223937D01*
X11598937Y-59079774D01*
X11712205Y-58910256D01*
X11790226Y-58721898D01*
X11830000Y-58521939D01*
X11830000Y-58318061D01*
X11790226Y-58118102D01*
X11712205Y-57929744D01*
X11598937Y-57760226D01*
X11454774Y-57616063D01*
X11285256Y-57502795D01*
X11096898Y-57424774D01*
X10896939Y-57385000D01*
X10693061Y-57385000D01*
X10493102Y-57424774D01*
X10304744Y-57502795D01*
X10135226Y-57616063D01*
X10091289Y-57660000D01*
X9533178Y-57660000D01*
X9408475Y-57473368D01*
X9201632Y-57266525D01*
X9027240Y-57150000D01*
X9201632Y-57033475D01*
X9408475Y-56826632D01*
X9533178Y-56640000D01*
X11361289Y-56640000D01*
X11405226Y-56683937D01*
X11574744Y-56797205D01*
X11763102Y-56875226D01*
X11963061Y-56915000D01*
X12166939Y-56915000D01*
X12366898Y-56875226D01*
X12555256Y-56797205D01*
X12724774Y-56683937D01*
X12868937Y-56539774D01*
X12982205Y-56370256D01*
X13060226Y-56181898D01*
X13100000Y-55981939D01*
X13100000Y-55778061D01*
X13060226Y-55578102D01*
X12982205Y-55389744D01*
X12868937Y-55220226D01*
X12724774Y-55076063D01*
X12555256Y-54962795D01*
X12366898Y-54884774D01*
X12166939Y-54845000D01*
X11963061Y-54845000D01*
X11763102Y-54884774D01*
X11574744Y-54962795D01*
X11405226Y-55076063D01*
X11361289Y-55120000D01*
X9533178Y-55120000D01*
X9408475Y-54933368D01*
X9201632Y-54726525D01*
X9027240Y-54610000D01*
X9201632Y-54493475D01*
X9408475Y-54286632D01*
X9533178Y-54100000D01*
X13020199Y-54100000D01*
X14676201Y-55756003D01*
X14699999Y-55785001D01*
X14815724Y-55879974D01*
X14947753Y-55950546D01*
X15091014Y-55994003D01*
X15202667Y-56005000D01*
X15202677Y-56005000D01*
X15240000Y-56008676D01*
X15277323Y-56005000D01*
X16561957Y-56005000D01*
X16665363Y-56159759D01*
X16865241Y-56359637D01*
X17100273Y-56516680D01*
X17361426Y-56624853D01*
X17638665Y-56680000D01*
X17921335Y-56680000D01*
X18198574Y-56624853D01*
X18459727Y-56516680D01*
X18694759Y-56359637D01*
X18894637Y-56159759D01*
X19051680Y-55924727D01*
X19159853Y-55663574D01*
X19215000Y-55386335D01*
X19215000Y-55103665D01*
X19159853Y-54826426D01*
X19051680Y-54565273D01*
X18894637Y-54330241D01*
X18694759Y-54130363D01*
X18459727Y-53973320D01*
X18198574Y-53865147D01*
X17921335Y-53810000D01*
X17638665Y-53810000D01*
X17361426Y-53865147D01*
X17100273Y-53973320D01*
X16865241Y-54130363D01*
X16665363Y-54330241D01*
X16561957Y-54485000D01*
X15554802Y-54485000D01*
X13898804Y-52829003D01*
X13875001Y-52799999D01*
X13759276Y-52705026D01*
X13627247Y-52634454D01*
X13483986Y-52590997D01*
X13372333Y-52580000D01*
X13372322Y-52580000D01*
X13335000Y-52576324D01*
X13297678Y-52580000D01*
X9533178Y-52580000D01*
X9408475Y-52393368D01*
X9201632Y-52186525D01*
X9027240Y-52070000D01*
X9201632Y-51953475D01*
X9408475Y-51746632D01*
X9533178Y-51560000D01*
X12631289Y-51560000D01*
X12675226Y-51603937D01*
X12844744Y-51717205D01*
X13033102Y-51795226D01*
X13233061Y-51835000D01*
X13436939Y-51835000D01*
X13636898Y-51795226D01*
X13825256Y-51717205D01*
X13994774Y-51603937D01*
X14138937Y-51459774D01*
X14252205Y-51290256D01*
X14330226Y-51101898D01*
X14370000Y-50901939D01*
X14370000Y-50698061D01*
X14330226Y-50498102D01*
X14252205Y-50309744D01*
X14138937Y-50140226D01*
X13994774Y-49996063D01*
X13825256Y-49882795D01*
X13636898Y-49804774D01*
X13436939Y-49765000D01*
X13233061Y-49765000D01*
X13033102Y-49804774D01*
X12844744Y-49882795D01*
X12675226Y-49996063D01*
X12631289Y-50040000D01*
X9533178Y-50040000D01*
X9408475Y-49853368D01*
X9201632Y-49646525D01*
X9027240Y-49530000D01*
X9201632Y-49413475D01*
X9408475Y-49206632D01*
X9533178Y-49020000D01*
X11361289Y-49020000D01*
X11405226Y-49063937D01*
X11574744Y-49177205D01*
X11763102Y-49255226D01*
X11963061Y-49295000D01*
X12166939Y-49295000D01*
X12366898Y-49255226D01*
X12555256Y-49177205D01*
X12724774Y-49063937D01*
X12868937Y-48919774D01*
X12982205Y-48750256D01*
X13060226Y-48561898D01*
X13100000Y-48361939D01*
X13100000Y-48158061D01*
X13060226Y-47958102D01*
X12982205Y-47769744D01*
X12868937Y-47600226D01*
X12724774Y-47456063D01*
X12555256Y-47342795D01*
X12366898Y-47264774D01*
X12166939Y-47225000D01*
X11963061Y-47225000D01*
X11763102Y-47264774D01*
X11574744Y-47342795D01*
X11405226Y-47456063D01*
X11361289Y-47500000D01*
X9533178Y-47500000D01*
X9408475Y-47313368D01*
X9201632Y-47106525D01*
X9027240Y-46990000D01*
X9201632Y-46873475D01*
X9408475Y-46666632D01*
X9533178Y-46480000D01*
X10091289Y-46480000D01*
X10135226Y-46523937D01*
X10304744Y-46637205D01*
X10493102Y-46715226D01*
X10693061Y-46755000D01*
X10896939Y-46755000D01*
X11096898Y-46715226D01*
X11285256Y-46637205D01*
X11454774Y-46523937D01*
X11598937Y-46379774D01*
X11683603Y-46253061D01*
X12300000Y-46253061D01*
X12300000Y-46456939D01*
X12339774Y-46656898D01*
X12417795Y-46845256D01*
X12531063Y-47014774D01*
X12675226Y-47158937D01*
X12844744Y-47272205D01*
X13033102Y-47350226D01*
X13233061Y-47390000D01*
X13436939Y-47390000D01*
X13636898Y-47350226D01*
X13825256Y-47272205D01*
X13994774Y-47158937D01*
X14038711Y-47115000D01*
X16561957Y-47115000D01*
X16665363Y-47269759D01*
X16865241Y-47469637D01*
X17100273Y-47626680D01*
X17361426Y-47734853D01*
X17638665Y-47790000D01*
X17921335Y-47790000D01*
X18198574Y-47734853D01*
X18459727Y-47626680D01*
X18694759Y-47469637D01*
X18894637Y-47269759D01*
X19051680Y-47034727D01*
X19159853Y-46773574D01*
X19215000Y-46496335D01*
X19215000Y-46213665D01*
X19159853Y-45936426D01*
X19051680Y-45675273D01*
X18894637Y-45440241D01*
X18694759Y-45240363D01*
X18459727Y-45083320D01*
X18198574Y-44975147D01*
X17921335Y-44920000D01*
X17638665Y-44920000D01*
X17361426Y-44975147D01*
X17100273Y-45083320D01*
X16865241Y-45240363D01*
X16665363Y-45440241D01*
X16561957Y-45595000D01*
X14038711Y-45595000D01*
X13994774Y-45551063D01*
X13825256Y-45437795D01*
X13636898Y-45359774D01*
X13436939Y-45320000D01*
X13233061Y-45320000D01*
X13033102Y-45359774D01*
X12844744Y-45437795D01*
X12675226Y-45551063D01*
X12531063Y-45695226D01*
X12417795Y-45864744D01*
X12339774Y-46053102D01*
X12300000Y-46253061D01*
X11683603Y-46253061D01*
X11712205Y-46210256D01*
X11790226Y-46021898D01*
X11830000Y-45821939D01*
X11830000Y-45618061D01*
X11790226Y-45418102D01*
X11712205Y-45229744D01*
X11598937Y-45060226D01*
X11454774Y-44916063D01*
X11285256Y-44802795D01*
X11096898Y-44724774D01*
X10896939Y-44685000D01*
X10693061Y-44685000D01*
X10493102Y-44724774D01*
X10304744Y-44802795D01*
X10135226Y-44916063D01*
X10091289Y-44960000D01*
X9533178Y-44960000D01*
X9408475Y-44773368D01*
X9276620Y-44641513D01*
X9349180Y-44619502D01*
X9459494Y-44560537D01*
X9556185Y-44481185D01*
X9635537Y-44384494D01*
X9694502Y-44274180D01*
X9730812Y-44154482D01*
X9738147Y-44080000D01*
X17511928Y-44080000D01*
X17524188Y-44204482D01*
X17560498Y-44324180D01*
X17619463Y-44434494D01*
X17698815Y-44531185D01*
X17795506Y-44610537D01*
X17905820Y-44669502D01*
X18025518Y-44705812D01*
X18150000Y-44718072D01*
X18764250Y-44715000D01*
X18923000Y-44556250D01*
X18923000Y-43307000D01*
X19177000Y-43307000D01*
X19177000Y-44556250D01*
X19335750Y-44715000D01*
X19950000Y-44718072D01*
X20074482Y-44705812D01*
X20194180Y-44669502D01*
X20304494Y-44610537D01*
X20401185Y-44531185D01*
X20480537Y-44434494D01*
X20539502Y-44324180D01*
X20575812Y-44204482D01*
X20588072Y-44080000D01*
X20585000Y-43465750D01*
X20426250Y-43307000D01*
X19177000Y-43307000D01*
X18923000Y-43307000D01*
X17673750Y-43307000D01*
X17515000Y-43465750D01*
X17511928Y-44080000D01*
X9738147Y-44080000D01*
X9743072Y-44030000D01*
X9740000Y-43465750D01*
X9581250Y-43307000D01*
X8382000Y-43307000D01*
X8382000Y-43327000D01*
X8128000Y-43327000D01*
X8128000Y-43307000D01*
X6928750Y-43307000D01*
X6770000Y-43465750D01*
X6766928Y-44030000D01*
X5298072Y-44030000D01*
X5298072Y-42330000D01*
X6766928Y-42330000D01*
X6770000Y-42894250D01*
X6928750Y-43053000D01*
X8128000Y-43053000D01*
X8128000Y-41853750D01*
X8382000Y-41853750D01*
X8382000Y-43053000D01*
X9581250Y-43053000D01*
X9740000Y-42894250D01*
X9743072Y-42330000D01*
X9738148Y-42280000D01*
X17511928Y-42280000D01*
X17515000Y-42894250D01*
X17673750Y-43053000D01*
X18923000Y-43053000D01*
X18923000Y-43033000D01*
X19177000Y-43033000D01*
X19177000Y-43053000D01*
X20426250Y-43053000D01*
X20585000Y-42894250D01*
X20588072Y-42280000D01*
X20575812Y-42155518D01*
X20539860Y-42037000D01*
X23985000Y-42037000D01*
X23985000Y-42537000D01*
X24034467Y-42785251D01*
X24131415Y-43019081D01*
X24272118Y-43229505D01*
X24451170Y-43408436D01*
X24661689Y-43548997D01*
X24895585Y-43645787D01*
X24944529Y-43653099D01*
X25143000Y-43529067D01*
X25143000Y-42037000D01*
X25397000Y-42037000D01*
X25397000Y-43529067D01*
X25595471Y-43653099D01*
X25644415Y-43645787D01*
X25878311Y-43548997D01*
X26088830Y-43408436D01*
X26267882Y-43229505D01*
X26408585Y-43019081D01*
X26505533Y-42785251D01*
X26555000Y-42537000D01*
X26555000Y-42037000D01*
X25397000Y-42037000D01*
X25143000Y-42037000D01*
X23985000Y-42037000D01*
X20539860Y-42037000D01*
X20539502Y-42035820D01*
X20480537Y-41925506D01*
X20401185Y-41828815D01*
X20304494Y-41749463D01*
X20194180Y-41690498D01*
X20175873Y-41684944D01*
X20242312Y-41618505D01*
X20410299Y-41367095D01*
X20445132Y-41283000D01*
X23985000Y-41283000D01*
X23985000Y-41783000D01*
X25143000Y-41783000D01*
X25143000Y-40290933D01*
X25397000Y-40290933D01*
X25397000Y-41783000D01*
X26555000Y-41783000D01*
X26555000Y-41346877D01*
X27085000Y-41346877D01*
X27085000Y-42473122D01*
X27103593Y-42661903D01*
X27177071Y-42904126D01*
X27296392Y-43127361D01*
X27456972Y-43323028D01*
X27652638Y-43483608D01*
X27875873Y-43602929D01*
X28118096Y-43676407D01*
X28370000Y-43701217D01*
X28621903Y-43676407D01*
X28864126Y-43602929D01*
X29087361Y-43483608D01*
X29283028Y-43323028D01*
X29443608Y-43127362D01*
X29562929Y-42904127D01*
X29570262Y-42879953D01*
X29636440Y-43039721D01*
X29897450Y-43430349D01*
X30229651Y-43762550D01*
X30620279Y-44023560D01*
X31054321Y-44203346D01*
X31515098Y-44295000D01*
X31984902Y-44295000D01*
X32445679Y-44203346D01*
X32879721Y-44023560D01*
X33270349Y-43762550D01*
X33602550Y-43430349D01*
X33863560Y-43039721D01*
X34043346Y-42605679D01*
X34135000Y-42144902D01*
X34135000Y-41675098D01*
X34043346Y-41214321D01*
X33863560Y-40780279D01*
X33602550Y-40389651D01*
X33270349Y-40057450D01*
X32879721Y-39796440D01*
X32445679Y-39616654D01*
X31984902Y-39525000D01*
X31515098Y-39525000D01*
X31054321Y-39616654D01*
X30620279Y-39796440D01*
X30229651Y-40057450D01*
X29897450Y-40389651D01*
X29636440Y-40780279D01*
X29570262Y-40940047D01*
X29562929Y-40915873D01*
X29443608Y-40692638D01*
X29283028Y-40496972D01*
X29087362Y-40336392D01*
X28864127Y-40217071D01*
X28621904Y-40143593D01*
X28370000Y-40118783D01*
X28118097Y-40143593D01*
X27875874Y-40217071D01*
X27652639Y-40336392D01*
X27456973Y-40496972D01*
X27296392Y-40692638D01*
X27177071Y-40915873D01*
X27103593Y-41158096D01*
X27085000Y-41346877D01*
X26555000Y-41346877D01*
X26555000Y-41283000D01*
X26505533Y-41034749D01*
X26408585Y-40800919D01*
X26267882Y-40590495D01*
X26088830Y-40411564D01*
X25878311Y-40271003D01*
X25644415Y-40174213D01*
X25595471Y-40166901D01*
X25397000Y-40290933D01*
X25143000Y-40290933D01*
X24944529Y-40166901D01*
X24895585Y-40174213D01*
X24661689Y-40271003D01*
X24451170Y-40411564D01*
X24272118Y-40590495D01*
X24131415Y-40800919D01*
X24034467Y-41034749D01*
X23985000Y-41283000D01*
X20445132Y-41283000D01*
X20526011Y-41087743D01*
X20585000Y-40791184D01*
X20585000Y-40488816D01*
X20533731Y-40231070D01*
X22539802Y-38225000D01*
X24181957Y-38225000D01*
X24285363Y-38379759D01*
X24485241Y-38579637D01*
X24720273Y-38736680D01*
X24981426Y-38844853D01*
X25258665Y-38900000D01*
X25541335Y-38900000D01*
X25818574Y-38844853D01*
X26079727Y-38736680D01*
X26314759Y-38579637D01*
X26514637Y-38379759D01*
X26671680Y-38144727D01*
X26779853Y-37883574D01*
X26835000Y-37606335D01*
X26835000Y-37323665D01*
X26779853Y-37046426D01*
X26671680Y-36785273D01*
X26514637Y-36550241D01*
X26314759Y-36350363D01*
X26079727Y-36193320D01*
X25818574Y-36085147D01*
X25541335Y-36030000D01*
X25258665Y-36030000D01*
X24981426Y-36085147D01*
X24720273Y-36193320D01*
X24485241Y-36350363D01*
X24285363Y-36550241D01*
X24181957Y-36705000D01*
X22262322Y-36705000D01*
X22224999Y-36701324D01*
X22187676Y-36705000D01*
X22187667Y-36705000D01*
X22076014Y-36715997D01*
X21932753Y-36759454D01*
X21800723Y-36830026D01*
X21717083Y-36898668D01*
X21684999Y-36924999D01*
X21661201Y-36953997D01*
X19458930Y-39156269D01*
X19201184Y-39105000D01*
X18898816Y-39105000D01*
X18602257Y-39163989D01*
X18322905Y-39279701D01*
X18071495Y-39447688D01*
X17857688Y-39661495D01*
X17689701Y-39912905D01*
X17573989Y-40192257D01*
X17515000Y-40488816D01*
X17515000Y-40791184D01*
X17573989Y-41087743D01*
X17689701Y-41367095D01*
X17857688Y-41618505D01*
X17924127Y-41684944D01*
X17905820Y-41690498D01*
X17795506Y-41749463D01*
X17698815Y-41828815D01*
X17619463Y-41925506D01*
X17560498Y-42035820D01*
X17524188Y-42155518D01*
X17511928Y-42280000D01*
X9738148Y-42280000D01*
X9730812Y-42205518D01*
X9694502Y-42085820D01*
X9635537Y-41975506D01*
X9556185Y-41878815D01*
X9459494Y-41799463D01*
X9349180Y-41740498D01*
X9229482Y-41704188D01*
X9105000Y-41691928D01*
X8540750Y-41695000D01*
X8382000Y-41853750D01*
X8128000Y-41853750D01*
X7969250Y-41695000D01*
X7405000Y-41691928D01*
X7280518Y-41704188D01*
X7160820Y-41740498D01*
X7050506Y-41799463D01*
X6953815Y-41878815D01*
X6874463Y-41975506D01*
X6815498Y-42085820D01*
X6779188Y-42205518D01*
X6766928Y-42330000D01*
X5298072Y-42330000D01*
X5285812Y-42205518D01*
X5249502Y-42085820D01*
X5190537Y-41975506D01*
X5111185Y-41878815D01*
X5014494Y-41799463D01*
X4904180Y-41740498D01*
X4784482Y-41704188D01*
X4660000Y-41691928D01*
X2960000Y-41691928D01*
X2835518Y-41704188D01*
X2715820Y-41740498D01*
X2605506Y-41799463D01*
X2508815Y-41878815D01*
X2429463Y-41975506D01*
X2370498Y-42085820D01*
X2334188Y-42205518D01*
X2321928Y-42330000D01*
X660000Y-42330000D01*
X660000Y-37323665D01*
X16345000Y-37323665D01*
X16345000Y-37606335D01*
X16400147Y-37883574D01*
X16508320Y-38144727D01*
X16665363Y-38379759D01*
X16865241Y-38579637D01*
X17100273Y-38736680D01*
X17361426Y-38844853D01*
X17638665Y-38900000D01*
X17921335Y-38900000D01*
X18198574Y-38844853D01*
X18459727Y-38736680D01*
X18694759Y-38579637D01*
X18894637Y-38379759D01*
X19051680Y-38144727D01*
X19159853Y-37883574D01*
X19215000Y-37606335D01*
X19215000Y-37323665D01*
X19159853Y-37046426D01*
X19051680Y-36785273D01*
X18894637Y-36550241D01*
X18694759Y-36350363D01*
X18459727Y-36193320D01*
X18198574Y-36085147D01*
X17921335Y-36030000D01*
X17638665Y-36030000D01*
X17361426Y-36085147D01*
X17100273Y-36193320D01*
X16865241Y-36350363D01*
X16665363Y-36550241D01*
X16508320Y-36785273D01*
X16400147Y-37046426D01*
X16345000Y-37323665D01*
X660000Y-37323665D01*
X660000Y-30973665D01*
X2375000Y-30973665D01*
X2375000Y-31256335D01*
X2430147Y-31533574D01*
X2538320Y-31794727D01*
X2695363Y-32029759D01*
X2895241Y-32229637D01*
X3130273Y-32386680D01*
X3391426Y-32494853D01*
X3668665Y-32550000D01*
X3951335Y-32550000D01*
X4228574Y-32494853D01*
X4489727Y-32386680D01*
X4724759Y-32229637D01*
X4924637Y-32029759D01*
X5081680Y-31794727D01*
X5189853Y-31533574D01*
X5245000Y-31256335D01*
X5245000Y-30973665D01*
X5189853Y-30696426D01*
X5081680Y-30435273D01*
X4924637Y-30200241D01*
X4724759Y-30000363D01*
X4489727Y-29843320D01*
X4228574Y-29735147D01*
X3951335Y-29680000D01*
X3668665Y-29680000D01*
X3391426Y-29735147D01*
X3130273Y-29843320D01*
X2895241Y-30000363D01*
X2695363Y-30200241D01*
X2538320Y-30435273D01*
X2430147Y-30696426D01*
X2375000Y-30973665D01*
X660000Y-30973665D01*
X660000Y-28473061D01*
X11030000Y-28473061D01*
X11030000Y-28676939D01*
X11069774Y-28876898D01*
X11147795Y-29065256D01*
X11261063Y-29234774D01*
X11405226Y-29378937D01*
X11574744Y-29492205D01*
X11763102Y-29570226D01*
X11963061Y-29610000D01*
X12166939Y-29610000D01*
X12366898Y-29570226D01*
X12555256Y-29492205D01*
X12724774Y-29378937D01*
X12768711Y-29335000D01*
X16561957Y-29335000D01*
X16665363Y-29489759D01*
X16865241Y-29689637D01*
X17100273Y-29846680D01*
X17361426Y-29954853D01*
X17638665Y-30010000D01*
X17921335Y-30010000D01*
X18198574Y-29954853D01*
X18459727Y-29846680D01*
X18694759Y-29689637D01*
X18894637Y-29489759D01*
X19051680Y-29254727D01*
X19159853Y-28993574D01*
X19215000Y-28716335D01*
X19215000Y-28433665D01*
X19159853Y-28156426D01*
X19051680Y-27895273D01*
X18894637Y-27660241D01*
X18694759Y-27460363D01*
X18459727Y-27303320D01*
X18198574Y-27195147D01*
X17921335Y-27140000D01*
X17638665Y-27140000D01*
X17361426Y-27195147D01*
X17100273Y-27303320D01*
X16865241Y-27460363D01*
X16665363Y-27660241D01*
X16561957Y-27815000D01*
X12768711Y-27815000D01*
X12724774Y-27771063D01*
X12555256Y-27657795D01*
X12366898Y-27579774D01*
X12166939Y-27540000D01*
X11963061Y-27540000D01*
X11763102Y-27579774D01*
X11574744Y-27657795D01*
X11405226Y-27771063D01*
X11261063Y-27915226D01*
X11147795Y-28084744D01*
X11069774Y-28273102D01*
X11030000Y-28473061D01*
X660000Y-28473061D01*
X660000Y-26300000D01*
X17511928Y-26300000D01*
X17524188Y-26424482D01*
X17560498Y-26544180D01*
X17619463Y-26654494D01*
X17698815Y-26751185D01*
X17795506Y-26830537D01*
X17905820Y-26889502D01*
X18025518Y-26925812D01*
X18150000Y-26938072D01*
X18764250Y-26935000D01*
X18923000Y-26776250D01*
X18923000Y-25527000D01*
X19177000Y-25527000D01*
X19177000Y-26776250D01*
X19335750Y-26935000D01*
X19950000Y-26938072D01*
X20074482Y-26925812D01*
X20194180Y-26889502D01*
X20304494Y-26830537D01*
X20401185Y-26751185D01*
X20480537Y-26654494D01*
X20539502Y-26544180D01*
X20575812Y-26424482D01*
X20588072Y-26300000D01*
X20585000Y-25685750D01*
X20426250Y-25527000D01*
X19177000Y-25527000D01*
X18923000Y-25527000D01*
X17673750Y-25527000D01*
X17515000Y-25685750D01*
X17511928Y-26300000D01*
X660000Y-26300000D01*
X660000Y-20155000D01*
X2371928Y-20155000D01*
X2371928Y-21755000D01*
X2384188Y-21879482D01*
X2420498Y-21999180D01*
X2479463Y-22109494D01*
X2558815Y-22206185D01*
X2655506Y-22285537D01*
X2765820Y-22344502D01*
X2885518Y-22380812D01*
X2893961Y-22381643D01*
X2695363Y-22580241D01*
X2538320Y-22815273D01*
X2430147Y-23076426D01*
X2375000Y-23353665D01*
X2375000Y-23636335D01*
X2430147Y-23913574D01*
X2538320Y-24174727D01*
X2695363Y-24409759D01*
X2895241Y-24609637D01*
X3130273Y-24766680D01*
X3391426Y-24874853D01*
X3668665Y-24930000D01*
X3951335Y-24930000D01*
X4228574Y-24874853D01*
X4489727Y-24766680D01*
X4724759Y-24609637D01*
X4834396Y-24500000D01*
X17511928Y-24500000D01*
X17515000Y-25114250D01*
X17673750Y-25273000D01*
X18923000Y-25273000D01*
X18923000Y-25253000D01*
X19177000Y-25253000D01*
X19177000Y-25273000D01*
X20426250Y-25273000D01*
X20585000Y-25114250D01*
X20588072Y-24500000D01*
X20575812Y-24375518D01*
X20539860Y-24257000D01*
X23985000Y-24257000D01*
X23985000Y-24757000D01*
X24034467Y-25005251D01*
X24131415Y-25239081D01*
X24272118Y-25449505D01*
X24451170Y-25628436D01*
X24661689Y-25768997D01*
X24895585Y-25865787D01*
X24944529Y-25873099D01*
X25143000Y-25749067D01*
X25143000Y-24257000D01*
X25397000Y-24257000D01*
X25397000Y-25749067D01*
X25595471Y-25873099D01*
X25644415Y-25865787D01*
X25878311Y-25768997D01*
X26088830Y-25628436D01*
X26267882Y-25449505D01*
X26408585Y-25239081D01*
X26505533Y-25005251D01*
X26555000Y-24757000D01*
X26555000Y-24257000D01*
X25397000Y-24257000D01*
X25143000Y-24257000D01*
X23985000Y-24257000D01*
X20539860Y-24257000D01*
X20539502Y-24255820D01*
X20480537Y-24145506D01*
X20401185Y-24048815D01*
X20304494Y-23969463D01*
X20194180Y-23910498D01*
X20175873Y-23904944D01*
X20242312Y-23838505D01*
X20410299Y-23587095D01*
X20445132Y-23503000D01*
X23985000Y-23503000D01*
X23985000Y-24003000D01*
X25143000Y-24003000D01*
X25143000Y-22510933D01*
X25397000Y-22510933D01*
X25397000Y-24003000D01*
X26555000Y-24003000D01*
X26555000Y-23566877D01*
X27085000Y-23566877D01*
X27085000Y-24693122D01*
X27103593Y-24881903D01*
X27177071Y-25124126D01*
X27296392Y-25347361D01*
X27456972Y-25543028D01*
X27652638Y-25703608D01*
X27875873Y-25822929D01*
X28118096Y-25896407D01*
X28370000Y-25921217D01*
X28621903Y-25896407D01*
X28864126Y-25822929D01*
X29087361Y-25703608D01*
X29283028Y-25543028D01*
X29443608Y-25347362D01*
X29562929Y-25124127D01*
X29570262Y-25099953D01*
X29636440Y-25259721D01*
X29897450Y-25650349D01*
X30229651Y-25982550D01*
X30620279Y-26243560D01*
X31054321Y-26423346D01*
X31515098Y-26515000D01*
X31984902Y-26515000D01*
X32445679Y-26423346D01*
X32879721Y-26243560D01*
X33270349Y-25982550D01*
X33602550Y-25650349D01*
X33863560Y-25259721D01*
X34043346Y-24825679D01*
X34135000Y-24364902D01*
X34135000Y-23895098D01*
X34043346Y-23434321D01*
X33863560Y-23000279D01*
X33602550Y-22609651D01*
X33270349Y-22277450D01*
X32879721Y-22016440D01*
X32445679Y-21836654D01*
X31984902Y-21745000D01*
X31515098Y-21745000D01*
X31054321Y-21836654D01*
X30620279Y-22016440D01*
X30229651Y-22277450D01*
X29897450Y-22609651D01*
X29636440Y-23000279D01*
X29570262Y-23160047D01*
X29562929Y-23135873D01*
X29443608Y-22912638D01*
X29283028Y-22716972D01*
X29087362Y-22556392D01*
X28864127Y-22437071D01*
X28621904Y-22363593D01*
X28370000Y-22338783D01*
X28118097Y-22363593D01*
X27875874Y-22437071D01*
X27652639Y-22556392D01*
X27456973Y-22716972D01*
X27296392Y-22912638D01*
X27177071Y-23135873D01*
X27103593Y-23378096D01*
X27085000Y-23566877D01*
X26555000Y-23566877D01*
X26555000Y-23503000D01*
X26505533Y-23254749D01*
X26408585Y-23020919D01*
X26267882Y-22810495D01*
X26088830Y-22631564D01*
X25878311Y-22491003D01*
X25644415Y-22394213D01*
X25595471Y-22386901D01*
X25397000Y-22510933D01*
X25143000Y-22510933D01*
X24944529Y-22386901D01*
X24895585Y-22394213D01*
X24661689Y-22491003D01*
X24451170Y-22631564D01*
X24272118Y-22810495D01*
X24131415Y-23020919D01*
X24034467Y-23254749D01*
X23985000Y-23503000D01*
X20445132Y-23503000D01*
X20526011Y-23307743D01*
X20585000Y-23011184D01*
X20585000Y-22708816D01*
X20533731Y-22451070D01*
X22539802Y-20445000D01*
X24181957Y-20445000D01*
X24285363Y-20599759D01*
X24485241Y-20799637D01*
X24720273Y-20956680D01*
X24981426Y-21064853D01*
X25258665Y-21120000D01*
X25541335Y-21120000D01*
X25818574Y-21064853D01*
X26079727Y-20956680D01*
X26314759Y-20799637D01*
X26514637Y-20599759D01*
X26671680Y-20364727D01*
X26779853Y-20103574D01*
X26835000Y-19826335D01*
X26835000Y-19543665D01*
X26779853Y-19266426D01*
X26671680Y-19005273D01*
X26514637Y-18770241D01*
X26314759Y-18570363D01*
X26079727Y-18413320D01*
X25818574Y-18305147D01*
X25541335Y-18250000D01*
X25258665Y-18250000D01*
X24981426Y-18305147D01*
X24720273Y-18413320D01*
X24485241Y-18570363D01*
X24285363Y-18770241D01*
X24181957Y-18925000D01*
X22262322Y-18925000D01*
X22224999Y-18921324D01*
X22187676Y-18925000D01*
X22187667Y-18925000D01*
X22076014Y-18935997D01*
X21932753Y-18979454D01*
X21800723Y-19050026D01*
X21717083Y-19118668D01*
X21684999Y-19144999D01*
X21661201Y-19173997D01*
X19458930Y-21376269D01*
X19201184Y-21325000D01*
X18898816Y-21325000D01*
X18602257Y-21383989D01*
X18322905Y-21499701D01*
X18071495Y-21667688D01*
X17857688Y-21881495D01*
X17689701Y-22132905D01*
X17573989Y-22412257D01*
X17515000Y-22708816D01*
X17515000Y-23011184D01*
X17573989Y-23307743D01*
X17689701Y-23587095D01*
X17857688Y-23838505D01*
X17924127Y-23904944D01*
X17905820Y-23910498D01*
X17795506Y-23969463D01*
X17698815Y-24048815D01*
X17619463Y-24145506D01*
X17560498Y-24255820D01*
X17524188Y-24375518D01*
X17511928Y-24500000D01*
X4834396Y-24500000D01*
X4924637Y-24409759D01*
X5081680Y-24174727D01*
X5189853Y-23913574D01*
X5245000Y-23636335D01*
X5245000Y-23353665D01*
X5189853Y-23076426D01*
X5081680Y-22815273D01*
X4924637Y-22580241D01*
X4726039Y-22381643D01*
X4734482Y-22380812D01*
X4854180Y-22344502D01*
X4964494Y-22285537D01*
X5061185Y-22206185D01*
X5140537Y-22109494D01*
X5199502Y-21999180D01*
X5235812Y-21879482D01*
X5248072Y-21755000D01*
X5248072Y-20155000D01*
X5235812Y-20030518D01*
X5199502Y-19910820D01*
X5140537Y-19800506D01*
X5061185Y-19703815D01*
X4964494Y-19624463D01*
X4854180Y-19565498D01*
X4782207Y-19543665D01*
X16345000Y-19543665D01*
X16345000Y-19826335D01*
X16400147Y-20103574D01*
X16508320Y-20364727D01*
X16665363Y-20599759D01*
X16865241Y-20799637D01*
X17100273Y-20956680D01*
X17361426Y-21064853D01*
X17638665Y-21120000D01*
X17921335Y-21120000D01*
X18198574Y-21064853D01*
X18459727Y-20956680D01*
X18694759Y-20799637D01*
X18894637Y-20599759D01*
X19051680Y-20364727D01*
X19159853Y-20103574D01*
X19215000Y-19826335D01*
X19215000Y-19543665D01*
X19159853Y-19266426D01*
X19051680Y-19005273D01*
X18894637Y-18770241D01*
X18694759Y-18570363D01*
X18459727Y-18413320D01*
X18198574Y-18305147D01*
X17921335Y-18250000D01*
X17638665Y-18250000D01*
X17361426Y-18305147D01*
X17100273Y-18413320D01*
X16865241Y-18570363D01*
X16665363Y-18770241D01*
X16508320Y-19005273D01*
X16400147Y-19266426D01*
X16345000Y-19543665D01*
X4782207Y-19543665D01*
X4734482Y-19529188D01*
X4610000Y-19516928D01*
X3010000Y-19516928D01*
X2885518Y-19529188D01*
X2765820Y-19565498D01*
X2655506Y-19624463D01*
X2558815Y-19703815D01*
X2479463Y-19800506D01*
X2420498Y-19910820D01*
X2384188Y-20030518D01*
X2371928Y-20155000D01*
X660000Y-20155000D01*
X660000Y-17336468D01*
X32373137Y-17336468D01*
X32631298Y-17739073D01*
X33150715Y-18014651D01*
X33713913Y-18183601D01*
X34299250Y-18239430D01*
X34884233Y-18179992D01*
X35446379Y-18007571D01*
X35948702Y-17739073D01*
X36206863Y-17336468D01*
X34290000Y-15419605D01*
X32373137Y-17336468D01*
X660000Y-17336468D01*
X660000Y-15249250D01*
X31290570Y-15249250D01*
X31350008Y-15834233D01*
X31522429Y-16396379D01*
X31790927Y-16898702D01*
X32193532Y-17156863D01*
X34110395Y-15240000D01*
X34469605Y-15240000D01*
X36386468Y-17156863D01*
X36789073Y-16898702D01*
X37064651Y-16379285D01*
X37233601Y-15816087D01*
X37289430Y-15230750D01*
X37229992Y-14645767D01*
X37057571Y-14083621D01*
X36789073Y-13581298D01*
X36386468Y-13323137D01*
X34469605Y-15240000D01*
X34110395Y-15240000D01*
X32193532Y-13323137D01*
X31790927Y-13581298D01*
X31515349Y-14100715D01*
X31346399Y-14663913D01*
X31290570Y-15249250D01*
X660000Y-15249250D01*
X660000Y-13193665D01*
X2375000Y-13193665D01*
X2375000Y-13476335D01*
X2430147Y-13753574D01*
X2538320Y-14014727D01*
X2695363Y-14249759D01*
X2895241Y-14449637D01*
X3130273Y-14606680D01*
X3391426Y-14714853D01*
X3668665Y-14770000D01*
X3951335Y-14770000D01*
X4228574Y-14714853D01*
X4489727Y-14606680D01*
X4724759Y-14449637D01*
X4924637Y-14249759D01*
X5081680Y-14014727D01*
X5189853Y-13753574D01*
X5245000Y-13476335D01*
X5245000Y-13193665D01*
X5235028Y-13143532D01*
X32373137Y-13143532D01*
X34290000Y-15060395D01*
X36206863Y-13143532D01*
X35948702Y-12740927D01*
X35429285Y-12465349D01*
X34866087Y-12296399D01*
X34280750Y-12240570D01*
X33695767Y-12300008D01*
X33133621Y-12472429D01*
X32631298Y-12740927D01*
X32373137Y-13143532D01*
X5235028Y-13143532D01*
X5189853Y-12916426D01*
X5081680Y-12655273D01*
X4924637Y-12420241D01*
X4724759Y-12220363D01*
X4489727Y-12063320D01*
X4228574Y-11955147D01*
X3951335Y-11900000D01*
X3668665Y-11900000D01*
X3391426Y-11955147D01*
X3130273Y-12063320D01*
X2895241Y-12220363D01*
X2695363Y-12420241D01*
X2538320Y-12655273D01*
X2430147Y-12916426D01*
X2375000Y-13193665D01*
X660000Y-13193665D01*
X660000Y-10693061D01*
X9760000Y-10693061D01*
X9760000Y-10896939D01*
X9799774Y-11096898D01*
X9877795Y-11285256D01*
X9991063Y-11454774D01*
X10135226Y-11598937D01*
X10304744Y-11712205D01*
X10493102Y-11790226D01*
X10693061Y-11830000D01*
X10896939Y-11830000D01*
X11096898Y-11790226D01*
X11285256Y-11712205D01*
X11454774Y-11598937D01*
X11498711Y-11555000D01*
X16561957Y-11555000D01*
X16665363Y-11709759D01*
X16865241Y-11909637D01*
X17100273Y-12066680D01*
X17361426Y-12174853D01*
X17638665Y-12230000D01*
X17921335Y-12230000D01*
X18198574Y-12174853D01*
X18459727Y-12066680D01*
X18694759Y-11909637D01*
X18894637Y-11709759D01*
X19051680Y-11474727D01*
X19159853Y-11213574D01*
X19215000Y-10936335D01*
X19215000Y-10653665D01*
X19159853Y-10376426D01*
X19051680Y-10115273D01*
X18894637Y-9880241D01*
X18694759Y-9680363D01*
X18459727Y-9523320D01*
X18198574Y-9415147D01*
X17921335Y-9360000D01*
X17638665Y-9360000D01*
X17361426Y-9415147D01*
X17100273Y-9523320D01*
X16865241Y-9680363D01*
X16665363Y-9880241D01*
X16561957Y-10035000D01*
X11498711Y-10035000D01*
X11454774Y-9991063D01*
X11285256Y-9877795D01*
X11096898Y-9799774D01*
X10896939Y-9760000D01*
X10693061Y-9760000D01*
X10493102Y-9799774D01*
X10304744Y-9877795D01*
X10135226Y-9991063D01*
X9991063Y-10135226D01*
X9877795Y-10304744D01*
X9799774Y-10493102D01*
X9760000Y-10693061D01*
X660000Y-10693061D01*
X660000Y-5786878D01*
X780000Y-5786878D01*
X780000Y-6913123D01*
X798593Y-7101904D01*
X872071Y-7344127D01*
X991392Y-7567362D01*
X1151973Y-7763028D01*
X1347639Y-7923608D01*
X1570874Y-8042929D01*
X1813097Y-8116407D01*
X2065000Y-8141217D01*
X2316904Y-8116407D01*
X2559127Y-8042929D01*
X2782362Y-7923608D01*
X2978028Y-7763028D01*
X3138608Y-7567362D01*
X3257929Y-7344127D01*
X3331407Y-7101904D01*
X3350000Y-6913123D01*
X3350000Y-6115098D01*
X4600000Y-6115098D01*
X4600000Y-6584902D01*
X4691654Y-7045679D01*
X4871440Y-7479721D01*
X5132450Y-7870349D01*
X5464651Y-8202550D01*
X5855279Y-8463560D01*
X6289321Y-8643346D01*
X6750098Y-8735000D01*
X7219902Y-8735000D01*
X7680679Y-8643346D01*
X7978462Y-8520000D01*
X17511928Y-8520000D01*
X17524188Y-8644482D01*
X17560498Y-8764180D01*
X17619463Y-8874494D01*
X17698815Y-8971185D01*
X17795506Y-9050537D01*
X17905820Y-9109502D01*
X18025518Y-9145812D01*
X18150000Y-9158072D01*
X18764250Y-9155000D01*
X18923000Y-8996250D01*
X18923000Y-7747000D01*
X19177000Y-7747000D01*
X19177000Y-8996250D01*
X19335750Y-9155000D01*
X19950000Y-9158072D01*
X20074482Y-9145812D01*
X20194180Y-9109502D01*
X20304494Y-9050537D01*
X20401185Y-8971185D01*
X20480537Y-8874494D01*
X20539502Y-8764180D01*
X20575812Y-8644482D01*
X20588072Y-8520000D01*
X20585000Y-7905750D01*
X20426250Y-7747000D01*
X19177000Y-7747000D01*
X18923000Y-7747000D01*
X17673750Y-7747000D01*
X17515000Y-7905750D01*
X17511928Y-8520000D01*
X7978462Y-8520000D01*
X8114721Y-8463560D01*
X8505349Y-8202550D01*
X8837550Y-7870349D01*
X9098560Y-7479721D01*
X9164738Y-7319953D01*
X9172071Y-7344127D01*
X9291392Y-7567362D01*
X9451973Y-7763028D01*
X9647639Y-7923608D01*
X9870874Y-8042929D01*
X10113097Y-8116407D01*
X10365000Y-8141217D01*
X10616904Y-8116407D01*
X10859127Y-8042929D01*
X11082362Y-7923608D01*
X11278028Y-7763028D01*
X11438608Y-7567362D01*
X11557929Y-7344127D01*
X11631407Y-7101904D01*
X11650000Y-6913123D01*
X11650000Y-6477000D01*
X12180000Y-6477000D01*
X12180000Y-6977000D01*
X12229467Y-7225251D01*
X12326415Y-7459081D01*
X12467118Y-7669505D01*
X12646170Y-7848436D01*
X12856689Y-7988997D01*
X13090585Y-8085787D01*
X13139529Y-8093099D01*
X13338000Y-7969067D01*
X13338000Y-6477000D01*
X13592000Y-6477000D01*
X13592000Y-7969067D01*
X13790471Y-8093099D01*
X13839415Y-8085787D01*
X14073311Y-7988997D01*
X14283830Y-7848436D01*
X14462882Y-7669505D01*
X14603585Y-7459081D01*
X14700533Y-7225251D01*
X14750000Y-6977000D01*
X14750000Y-6477000D01*
X13592000Y-6477000D01*
X13338000Y-6477000D01*
X12180000Y-6477000D01*
X11650000Y-6477000D01*
X11650000Y-5786877D01*
X11643709Y-5723000D01*
X12180000Y-5723000D01*
X12180000Y-6223000D01*
X13338000Y-6223000D01*
X13338000Y-4730933D01*
X13592000Y-4730933D01*
X13592000Y-6223000D01*
X14750000Y-6223000D01*
X14750000Y-5723000D01*
X14700533Y-5474749D01*
X14603585Y-5240919D01*
X14462882Y-5030495D01*
X14283830Y-4851564D01*
X14073311Y-4711003D01*
X13839415Y-4614213D01*
X13790471Y-4606901D01*
X13592000Y-4730933D01*
X13338000Y-4730933D01*
X13139529Y-4606901D01*
X13090585Y-4614213D01*
X12856689Y-4711003D01*
X12646170Y-4851564D01*
X12467118Y-5030495D01*
X12326415Y-5240919D01*
X12229467Y-5474749D01*
X12180000Y-5723000D01*
X11643709Y-5723000D01*
X11631407Y-5598096D01*
X11557929Y-5355873D01*
X11438608Y-5132638D01*
X11278028Y-4936972D01*
X11082361Y-4776392D01*
X10859126Y-4657071D01*
X10616903Y-4583593D01*
X10365000Y-4558783D01*
X10113096Y-4583593D01*
X9870873Y-4657071D01*
X9647638Y-4776392D01*
X9451972Y-4936972D01*
X9291392Y-5132639D01*
X9172071Y-5355874D01*
X9164738Y-5380047D01*
X9098560Y-5220279D01*
X8837550Y-4829651D01*
X8505349Y-4497450D01*
X8114721Y-4236440D01*
X7680679Y-4056654D01*
X7219902Y-3965000D01*
X6750098Y-3965000D01*
X6289321Y-4056654D01*
X5855279Y-4236440D01*
X5464651Y-4497450D01*
X5132450Y-4829651D01*
X4871440Y-5220279D01*
X4691654Y-5654321D01*
X4600000Y-6115098D01*
X3350000Y-6115098D01*
X3350000Y-5786877D01*
X3331407Y-5598096D01*
X3257929Y-5355873D01*
X3138608Y-5132638D01*
X2978028Y-4936972D01*
X2782361Y-4776392D01*
X2559126Y-4657071D01*
X2316903Y-4583593D01*
X2065000Y-4558783D01*
X1813096Y-4583593D01*
X1570873Y-4657071D01*
X1347638Y-4776392D01*
X1151972Y-4936972D01*
X991392Y-5132639D01*
X872071Y-5355874D01*
X798593Y-5598097D01*
X780000Y-5786878D01*
X660000Y-5786878D01*
X660000Y-660000D01*
X17060343Y-660000D01*
X16865241Y-790363D01*
G37*
G04 #@! TD.AperFunction*
G04 #@! TD*
M02*
