M48
; DRILL file {KiCad (5.1.9)-1} date 04/27/21 02:12:17
; FORMAT={-:-/ absolute / metric / decimal}
; #@! TF.CreationDate,2021-04-27T02:12:17+02:00
; #@! TF.GenerationSoftware,Kicad,Pcbnew,(5.1.9)-1
; #@! TF.FileFunction,Plated,1,2,PTH
FMAT,2
METRIC
T1C0.400
T2C0.500
T3C0.800
T4C0.900
T5C1.000
T6C2.700
%
G90
G05
T1
X10.795Y-10.795
X10.795Y-45.72
X10.795Y-58.42
X10.795Y-90.805
X12.065Y-28.575
X12.065Y-48.26
X12.065Y-55.88
X12.065Y-73.025
X13.335Y-46.355
X13.335Y-50.8
X36.83Y-100.33
T3
X3.81Y-13.335
X3.81Y-20.955
X3.81Y-23.495
X3.81Y-31.115
X3.81Y-70.485
X3.81Y-78.105
X3.81Y-80.645
X3.81Y-88.265
X17.78Y-1.905
X17.78Y-10.795
X17.78Y-19.685
X17.78Y-28.575
X17.78Y-37.465
X17.78Y-46.355
X17.78Y-55.245
X17.78Y-64.135
X17.78Y-73.025
X17.78Y-81.915
X17.78Y-90.805
X17.78Y-99.695
X25.4Y-1.905
X25.4Y-10.795
X25.4Y-19.685
X25.4Y-28.575
X25.4Y-37.465
X25.4Y-46.355
X25.4Y-55.245
X25.4Y-64.135
X25.4Y-73.025
X25.4Y-81.915
X25.4Y-90.805
X25.4Y-99.695
T4
X19.05Y-5.08
X19.05Y-7.62
X19.05Y-22.86
X19.05Y-25.4
X19.05Y-40.64
X19.05Y-43.18
X19.05Y-58.42
X19.05Y-60.96
X19.05Y-76.2
X19.05Y-78.74
X19.05Y-93.98
X19.05Y-96.52
T5
X3.81Y-43.18
X3.81Y-45.72
X3.81Y-48.26
X3.81Y-50.8
X3.81Y-53.34
X3.81Y-55.88
X3.81Y-58.42
X3.81Y-60.96
X8.255Y-43.18
X8.255Y-45.72
X8.255Y-48.26
X8.255Y-50.8
X8.255Y-53.34
X8.255Y-55.88
X8.255Y-58.42
X8.255Y-60.96
T6
X34.29Y-15.24
X34.29Y-86.36
T2
G00X2.065Y-6.85
M15
G01X2.065Y-5.85
M16
G05
G00X2.065Y-95.75
M15
G01X2.065Y-94.75
M16
G05
G00X10.365Y-6.85
M15
G01X10.365Y-5.85
M16
G05
G00X10.365Y-95.75
M15
G01X10.365Y-94.75
M16
G05
G00X13.465Y-6.85
M15
G01X13.465Y-5.85
M16
G05
G00X13.465Y-95.75
M15
G01X13.465Y-94.75
M16
G05
G00X25.27Y-5.85
M15
G01X25.27Y-6.85
M16
G05
G00X25.27Y-23.63
M15
G01X25.27Y-24.63
M16
G05
G00X25.27Y-41.41
M15
G01X25.27Y-42.41
M16
G05
G00X25.27Y-59.19
M15
G01X25.27Y-60.19
M16
G05
G00X25.27Y-76.97
M15
G01X25.27Y-77.97
M16
G05
G00X25.27Y-94.75
M15
G01X25.27Y-95.75
M16
G05
G00X28.37Y-5.85
M15
G01X28.37Y-6.85
M16
G05
G00X28.37Y-23.63
M15
G01X28.37Y-24.63
M16
G05
G00X28.37Y-41.41
M15
G01X28.37Y-42.41
M16
G05
G00X28.37Y-59.19
M15
G01X28.37Y-60.19
M16
G05
G00X28.37Y-76.97
M15
G01X28.37Y-77.97
M16
G05
G00X28.37Y-94.75
M15
G01X28.37Y-95.75
M16
G05
G00X36.67Y-5.85
M15
G01X36.67Y-6.85
M16
G05
G00X36.67Y-23.63
M15
G01X36.67Y-24.63
M16
G05
G00X36.67Y-41.41
M15
G01X36.67Y-42.41
M16
G05
G00X36.67Y-59.19
M15
G01X36.67Y-60.19
M16
G05
G00X36.67Y-76.97
M15
G01X36.67Y-77.97
M16
G05
G00X36.67Y-94.75
M15
G01X36.67Y-95.75
M16
G05
T0
M30
