G04 #@! TF.GenerationSoftware,KiCad,Pcbnew,(5.1.9)-1*
G04 #@! TF.CreationDate,2021-04-27T02:12:15+02:00*
G04 #@! TF.ProjectId,Clock Divider Control,436c6f63-6b20-4446-9976-696465722043,rev?*
G04 #@! TF.SameCoordinates,Original*
G04 #@! TF.FileFunction,Legend,Top*
G04 #@! TF.FilePolarity,Positive*
%FSLAX46Y46*%
G04 Gerber Fmt 4.6, Leading zero omitted, Abs format (unit mm)*
G04 Created by KiCad (PCBNEW (5.1.9)-1) date 2021-04-27 02:12:15*
%MOMM*%
%LPD*%
G01*
G04 APERTURE LIST*
%ADD10C,0.100000*%
%ADD11C,0.150000*%
%ADD12C,0.010000*%
%ADD13C,0.120000*%
G04 APERTURE END LIST*
D10*
X23291666Y-85976666D02*
X23291666Y-86476666D01*
X23258333Y-86576666D01*
X23191666Y-86643333D01*
X23091666Y-86676666D01*
X23025000Y-86676666D01*
X23958333Y-86676666D02*
X23625000Y-86676666D01*
X23625000Y-85976666D01*
X24591666Y-86610000D02*
X24558333Y-86643333D01*
X24458333Y-86676666D01*
X24391666Y-86676666D01*
X24291666Y-86643333D01*
X24225000Y-86576666D01*
X24191666Y-86510000D01*
X24158333Y-86376666D01*
X24158333Y-86276666D01*
X24191666Y-86143333D01*
X24225000Y-86076666D01*
X24291666Y-86010000D01*
X24391666Y-85976666D01*
X24458333Y-85976666D01*
X24558333Y-86010000D01*
X24591666Y-86043333D01*
X25091666Y-85976666D02*
X25091666Y-86476666D01*
X25058333Y-86576666D01*
X24991666Y-86643333D01*
X24891666Y-86676666D01*
X24825000Y-86676666D01*
X25758333Y-86676666D02*
X25425000Y-86676666D01*
X25425000Y-85976666D01*
X26391666Y-86610000D02*
X26358333Y-86643333D01*
X26258333Y-86676666D01*
X26191666Y-86676666D01*
X26091666Y-86643333D01*
X26025000Y-86576666D01*
X25991666Y-86510000D01*
X25958333Y-86376666D01*
X25958333Y-86276666D01*
X25991666Y-86143333D01*
X26025000Y-86076666D01*
X26091666Y-86010000D01*
X26191666Y-85976666D01*
X26258333Y-85976666D01*
X26358333Y-86010000D01*
X26391666Y-86043333D01*
X26891666Y-85976666D02*
X26891666Y-86476666D01*
X26858333Y-86576666D01*
X26791666Y-86643333D01*
X26691666Y-86676666D01*
X26625000Y-86676666D01*
X27558333Y-86676666D02*
X27225000Y-86676666D01*
X27225000Y-85976666D01*
X28191666Y-86610000D02*
X28158333Y-86643333D01*
X28058333Y-86676666D01*
X27991666Y-86676666D01*
X27891666Y-86643333D01*
X27825000Y-86576666D01*
X27791666Y-86510000D01*
X27758333Y-86376666D01*
X27758333Y-86276666D01*
X27791666Y-86143333D01*
X27825000Y-86076666D01*
X27891666Y-86010000D01*
X27991666Y-85976666D01*
X28058333Y-85976666D01*
X28158333Y-86010000D01*
X28191666Y-86043333D01*
X28691666Y-85976666D02*
X28691666Y-86476666D01*
X28658333Y-86576666D01*
X28591666Y-86643333D01*
X28491666Y-86676666D01*
X28425000Y-86676666D01*
X29358333Y-86676666D02*
X29025000Y-86676666D01*
X29025000Y-85976666D01*
X29991666Y-86610000D02*
X29958333Y-86643333D01*
X29858333Y-86676666D01*
X29791666Y-86676666D01*
X29691666Y-86643333D01*
X29625000Y-86576666D01*
X29591666Y-86510000D01*
X29558333Y-86376666D01*
X29558333Y-86276666D01*
X29591666Y-86143333D01*
X29625000Y-86076666D01*
X29691666Y-86010000D01*
X29791666Y-85976666D01*
X29858333Y-85976666D01*
X29958333Y-86010000D01*
X29991666Y-86043333D01*
D11*
X18052023Y-68112142D02*
X18004404Y-68159761D01*
X17861547Y-68207380D01*
X17766309Y-68207380D01*
X17623452Y-68159761D01*
X17528214Y-68064523D01*
X17480595Y-67969285D01*
X17432976Y-67778809D01*
X17432976Y-67635952D01*
X17480595Y-67445476D01*
X17528214Y-67350238D01*
X17623452Y-67255000D01*
X17766309Y-67207380D01*
X17861547Y-67207380D01*
X18004404Y-67255000D01*
X18052023Y-67302619D01*
X18623452Y-68207380D02*
X18528214Y-68159761D01*
X18480595Y-68064523D01*
X18480595Y-67207380D01*
X19147261Y-68207380D02*
X19052023Y-68159761D01*
X19004404Y-68112142D01*
X18956785Y-68016904D01*
X18956785Y-67731190D01*
X19004404Y-67635952D01*
X19052023Y-67588333D01*
X19147261Y-67540714D01*
X19290119Y-67540714D01*
X19385357Y-67588333D01*
X19432976Y-67635952D01*
X19480595Y-67731190D01*
X19480595Y-68016904D01*
X19432976Y-68112142D01*
X19385357Y-68159761D01*
X19290119Y-68207380D01*
X19147261Y-68207380D01*
X20337738Y-68159761D02*
X20242500Y-68207380D01*
X20052023Y-68207380D01*
X19956785Y-68159761D01*
X19909166Y-68112142D01*
X19861547Y-68016904D01*
X19861547Y-67731190D01*
X19909166Y-67635952D01*
X19956785Y-67588333D01*
X20052023Y-67540714D01*
X20242500Y-67540714D01*
X20337738Y-67588333D01*
X20766309Y-68207380D02*
X20766309Y-67207380D01*
X20861547Y-67826428D02*
X21147261Y-68207380D01*
X21147261Y-67540714D02*
X20766309Y-67921666D01*
X22337738Y-68207380D02*
X22337738Y-67207380D01*
X22575833Y-67207380D01*
X22718690Y-67255000D01*
X22813928Y-67350238D01*
X22861547Y-67445476D01*
X22909166Y-67635952D01*
X22909166Y-67778809D01*
X22861547Y-67969285D01*
X22813928Y-68064523D01*
X22718690Y-68159761D01*
X22575833Y-68207380D01*
X22337738Y-68207380D01*
X23337738Y-68207380D02*
X23337738Y-67540714D01*
X23337738Y-67207380D02*
X23290119Y-67255000D01*
X23337738Y-67302619D01*
X23385357Y-67255000D01*
X23337738Y-67207380D01*
X23337738Y-67302619D01*
X23718690Y-67540714D02*
X23956785Y-68207380D01*
X24194880Y-67540714D01*
X24575833Y-68207380D02*
X24575833Y-67540714D01*
X24575833Y-67207380D02*
X24528214Y-67255000D01*
X24575833Y-67302619D01*
X24623452Y-67255000D01*
X24575833Y-67207380D01*
X24575833Y-67302619D01*
X25480595Y-68207380D02*
X25480595Y-67207380D01*
X25480595Y-68159761D02*
X25385357Y-68207380D01*
X25194880Y-68207380D01*
X25099642Y-68159761D01*
X25052023Y-68112142D01*
X25004404Y-68016904D01*
X25004404Y-67731190D01*
X25052023Y-67635952D01*
X25099642Y-67588333D01*
X25194880Y-67540714D01*
X25385357Y-67540714D01*
X25480595Y-67588333D01*
X26337738Y-68159761D02*
X26242500Y-68207380D01*
X26052023Y-68207380D01*
X25956785Y-68159761D01*
X25909166Y-68064523D01*
X25909166Y-67683571D01*
X25956785Y-67588333D01*
X26052023Y-67540714D01*
X26242500Y-67540714D01*
X26337738Y-67588333D01*
X26385357Y-67683571D01*
X26385357Y-67778809D01*
X25909166Y-67874047D01*
X26813928Y-68207380D02*
X26813928Y-67540714D01*
X26813928Y-67731190D02*
X26861547Y-67635952D01*
X26909166Y-67588333D01*
X27004404Y-67540714D01*
X27099642Y-67540714D01*
X28766309Y-68112142D02*
X28718690Y-68159761D01*
X28575833Y-68207380D01*
X28480595Y-68207380D01*
X28337738Y-68159761D01*
X28242500Y-68064523D01*
X28194880Y-67969285D01*
X28147261Y-67778809D01*
X28147261Y-67635952D01*
X28194880Y-67445476D01*
X28242500Y-67350238D01*
X28337738Y-67255000D01*
X28480595Y-67207380D01*
X28575833Y-67207380D01*
X28718690Y-67255000D01*
X28766309Y-67302619D01*
X29337738Y-68207380D02*
X29242500Y-68159761D01*
X29194880Y-68112142D01*
X29147261Y-68016904D01*
X29147261Y-67731190D01*
X29194880Y-67635952D01*
X29242500Y-67588333D01*
X29337738Y-67540714D01*
X29480595Y-67540714D01*
X29575833Y-67588333D01*
X29623452Y-67635952D01*
X29671071Y-67731190D01*
X29671071Y-68016904D01*
X29623452Y-68112142D01*
X29575833Y-68159761D01*
X29480595Y-68207380D01*
X29337738Y-68207380D01*
X30099642Y-67540714D02*
X30099642Y-68207380D01*
X30099642Y-67635952D02*
X30147261Y-67588333D01*
X30242500Y-67540714D01*
X30385357Y-67540714D01*
X30480595Y-67588333D01*
X30528214Y-67683571D01*
X30528214Y-68207380D01*
X30861547Y-67540714D02*
X31242500Y-67540714D01*
X31004404Y-67207380D02*
X31004404Y-68064523D01*
X31052023Y-68159761D01*
X31147261Y-68207380D01*
X31242500Y-68207380D01*
X31575833Y-68207380D02*
X31575833Y-67540714D01*
X31575833Y-67731190D02*
X31623452Y-67635952D01*
X31671071Y-67588333D01*
X31766309Y-67540714D01*
X31861547Y-67540714D01*
X32337738Y-68207380D02*
X32242500Y-68159761D01*
X32194880Y-68112142D01*
X32147261Y-68016904D01*
X32147261Y-67731190D01*
X32194880Y-67635952D01*
X32242500Y-67588333D01*
X32337738Y-67540714D01*
X32480595Y-67540714D01*
X32575833Y-67588333D01*
X32623452Y-67635952D01*
X32671071Y-67731190D01*
X32671071Y-68016904D01*
X32623452Y-68112142D01*
X32575833Y-68159761D01*
X32480595Y-68207380D01*
X32337738Y-68207380D01*
X33242500Y-68207380D02*
X33147261Y-68159761D01*
X33099642Y-68064523D01*
X33099642Y-67207380D01*
X18052023Y-69857380D02*
X17718690Y-69381190D01*
X17480595Y-69857380D02*
X17480595Y-68857380D01*
X17861547Y-68857380D01*
X17956785Y-68905000D01*
X18004404Y-68952619D01*
X18052023Y-69047857D01*
X18052023Y-69190714D01*
X18004404Y-69285952D01*
X17956785Y-69333571D01*
X17861547Y-69381190D01*
X17480595Y-69381190D01*
X18861547Y-69809761D02*
X18766309Y-69857380D01*
X18575833Y-69857380D01*
X18480595Y-69809761D01*
X18432976Y-69714523D01*
X18432976Y-69333571D01*
X18480595Y-69238333D01*
X18575833Y-69190714D01*
X18766309Y-69190714D01*
X18861547Y-69238333D01*
X18909166Y-69333571D01*
X18909166Y-69428809D01*
X18432976Y-69524047D01*
X19242500Y-69190714D02*
X19480595Y-69857380D01*
X19718690Y-69190714D01*
X21052023Y-68857380D02*
X21147261Y-68857380D01*
X21242500Y-68905000D01*
X21290119Y-68952619D01*
X21337738Y-69047857D01*
X21385357Y-69238333D01*
X21385357Y-69476428D01*
X21337738Y-69666904D01*
X21290119Y-69762142D01*
X21242500Y-69809761D01*
X21147261Y-69857380D01*
X21052023Y-69857380D01*
X20956785Y-69809761D01*
X20909166Y-69762142D01*
X20861547Y-69666904D01*
X20813928Y-69476428D01*
X20813928Y-69238333D01*
X20861547Y-69047857D01*
X20909166Y-68952619D01*
X20956785Y-68905000D01*
X21052023Y-68857380D01*
X22337738Y-69857380D02*
X21766309Y-69857380D01*
X22052023Y-69857380D02*
X22052023Y-68857380D01*
X21956785Y-69000238D01*
X21861547Y-69095476D01*
X21766309Y-69143095D01*
X22956785Y-68857380D02*
X23052023Y-68857380D01*
X23147261Y-68905000D01*
X23194880Y-68952619D01*
X23242500Y-69047857D01*
X23290119Y-69238333D01*
X23290119Y-69476428D01*
X23242500Y-69666904D01*
X23194880Y-69762142D01*
X23147261Y-69809761D01*
X23052023Y-69857380D01*
X22956785Y-69857380D01*
X22861547Y-69809761D01*
X22813928Y-69762142D01*
X22766309Y-69666904D01*
X22718690Y-69476428D01*
X22718690Y-69238333D01*
X22766309Y-69047857D01*
X22813928Y-68952619D01*
X22861547Y-68905000D01*
X22956785Y-68857380D01*
X24147261Y-69190714D02*
X24147261Y-69857380D01*
X23909166Y-68809761D02*
X23671071Y-69524047D01*
X24290119Y-69524047D01*
X24623452Y-68952619D02*
X24671071Y-68905000D01*
X24766309Y-68857380D01*
X25004404Y-68857380D01*
X25099642Y-68905000D01*
X25147261Y-68952619D01*
X25194880Y-69047857D01*
X25194880Y-69143095D01*
X25147261Y-69285952D01*
X24575833Y-69857380D01*
X25194880Y-69857380D01*
X26147261Y-69857380D02*
X25575833Y-69857380D01*
X25861547Y-69857380D02*
X25861547Y-68857380D01*
X25766309Y-69000238D01*
X25671071Y-69095476D01*
X25575833Y-69143095D01*
D12*
G04 #@! TO.C,G\u002A\u002A\u002A*
G36*
X11251975Y-75180533D02*
G01*
X11639529Y-75329561D01*
X11986874Y-75592268D01*
X12020458Y-75625178D01*
X12259055Y-75902088D01*
X12409725Y-76185374D01*
X12492509Y-76521590D01*
X12518932Y-76783159D01*
X12529654Y-77058677D01*
X12511742Y-77260634D01*
X12454670Y-77447923D01*
X12364921Y-77644864D01*
X12179587Y-78023673D01*
X12449200Y-78247629D01*
X12798462Y-78618667D01*
X13072837Y-79075043D01*
X13256494Y-79582167D01*
X13333602Y-80105445D01*
X13335000Y-80183282D01*
X13274094Y-80711320D01*
X13101737Y-81209219D01*
X12833466Y-81660702D01*
X12484822Y-82049491D01*
X12071342Y-82359310D01*
X11608566Y-82573880D01*
X11112032Y-82676923D01*
X10948071Y-82683684D01*
X10760332Y-82693029D01*
X10654696Y-82742592D01*
X10579815Y-82864664D01*
X10549853Y-82934124D01*
X10466088Y-83302435D01*
X10496622Y-83712429D01*
X10636393Y-84145591D01*
X10880336Y-84583404D01*
X11069598Y-84834623D01*
X11238260Y-85055034D01*
X11315470Y-85211237D01*
X11309114Y-85328485D01*
X11249526Y-85410842D01*
X11119072Y-85484092D01*
X10968517Y-85450022D01*
X10783972Y-85303000D01*
X10664337Y-85173553D01*
X10314002Y-84687667D01*
X10081051Y-84180772D01*
X9972200Y-83668744D01*
X9964776Y-83519211D01*
X9969742Y-83247845D01*
X9987931Y-83000606D01*
X10012845Y-82843508D01*
X10035402Y-82728381D01*
X10014438Y-82648134D01*
X9926350Y-82574707D01*
X9747535Y-82480041D01*
X9678634Y-82446221D01*
X9245674Y-82169047D01*
X8856572Y-81794867D01*
X8547301Y-81360126D01*
X8479123Y-81230895D01*
X8390392Y-81034189D01*
X8334836Y-80858821D01*
X8304911Y-80662432D01*
X8293077Y-80402661D01*
X8291513Y-80177105D01*
X8295439Y-79853856D01*
X8312416Y-79621295D01*
X8350242Y-79436526D01*
X8416716Y-79256658D01*
X8485954Y-79107632D01*
X8651006Y-78829538D01*
X8871785Y-78537723D01*
X9039765Y-78354758D01*
X9399137Y-78002937D01*
X9270820Y-77820021D01*
X9077922Y-77430417D01*
X9001035Y-76983652D01*
X9007869Y-76736863D01*
X9112282Y-76263612D01*
X9325150Y-75856640D01*
X9632542Y-75528451D01*
X10020521Y-75291544D01*
X10475156Y-75158421D01*
X10795000Y-75133462D01*
X11251975Y-75180533D01*
G37*
X11251975Y-75180533D02*
X11639529Y-75329561D01*
X11986874Y-75592268D01*
X12020458Y-75625178D01*
X12259055Y-75902088D01*
X12409725Y-76185374D01*
X12492509Y-76521590D01*
X12518932Y-76783159D01*
X12529654Y-77058677D01*
X12511742Y-77260634D01*
X12454670Y-77447923D01*
X12364921Y-77644864D01*
X12179587Y-78023673D01*
X12449200Y-78247629D01*
X12798462Y-78618667D01*
X13072837Y-79075043D01*
X13256494Y-79582167D01*
X13333602Y-80105445D01*
X13335000Y-80183282D01*
X13274094Y-80711320D01*
X13101737Y-81209219D01*
X12833466Y-81660702D01*
X12484822Y-82049491D01*
X12071342Y-82359310D01*
X11608566Y-82573880D01*
X11112032Y-82676923D01*
X10948071Y-82683684D01*
X10760332Y-82693029D01*
X10654696Y-82742592D01*
X10579815Y-82864664D01*
X10549853Y-82934124D01*
X10466088Y-83302435D01*
X10496622Y-83712429D01*
X10636393Y-84145591D01*
X10880336Y-84583404D01*
X11069598Y-84834623D01*
X11238260Y-85055034D01*
X11315470Y-85211237D01*
X11309114Y-85328485D01*
X11249526Y-85410842D01*
X11119072Y-85484092D01*
X10968517Y-85450022D01*
X10783972Y-85303000D01*
X10664337Y-85173553D01*
X10314002Y-84687667D01*
X10081051Y-84180772D01*
X9972200Y-83668744D01*
X9964776Y-83519211D01*
X9969742Y-83247845D01*
X9987931Y-83000606D01*
X10012845Y-82843508D01*
X10035402Y-82728381D01*
X10014438Y-82648134D01*
X9926350Y-82574707D01*
X9747535Y-82480041D01*
X9678634Y-82446221D01*
X9245674Y-82169047D01*
X8856572Y-81794867D01*
X8547301Y-81360126D01*
X8479123Y-81230895D01*
X8390392Y-81034189D01*
X8334836Y-80858821D01*
X8304911Y-80662432D01*
X8293077Y-80402661D01*
X8291513Y-80177105D01*
X8295439Y-79853856D01*
X8312416Y-79621295D01*
X8350242Y-79436526D01*
X8416716Y-79256658D01*
X8485954Y-79107632D01*
X8651006Y-78829538D01*
X8871785Y-78537723D01*
X9039765Y-78354758D01*
X9399137Y-78002937D01*
X9270820Y-77820021D01*
X9077922Y-77430417D01*
X9001035Y-76983652D01*
X9007869Y-76736863D01*
X9112282Y-76263612D01*
X9325150Y-75856640D01*
X9632542Y-75528451D01*
X10020521Y-75291544D01*
X10475156Y-75158421D01*
X10795000Y-75133462D01*
X11251975Y-75180533D01*
G36*
X9232294Y-74770838D02*
G01*
X9464355Y-74855666D01*
X9511297Y-74874997D01*
X9736716Y-74976489D01*
X9901523Y-75064463D01*
X9977519Y-75123415D01*
X9979192Y-75132244D01*
X9921342Y-75190770D01*
X9787196Y-75301610D01*
X9608839Y-75440540D01*
X9418356Y-75583341D01*
X9247832Y-75705791D01*
X9129350Y-75783670D01*
X9096041Y-75798947D01*
X9077104Y-75737774D01*
X9052203Y-75576047D01*
X9026214Y-75346456D01*
X9022035Y-75302978D01*
X9002508Y-75053432D01*
X8994029Y-74854343D01*
X8998140Y-74744507D01*
X8999621Y-74738973D01*
X9068675Y-74729626D01*
X9232294Y-74770838D01*
G37*
X9232294Y-74770838D02*
X9464355Y-74855666D01*
X9511297Y-74874997D01*
X9736716Y-74976489D01*
X9901523Y-75064463D01*
X9977519Y-75123415D01*
X9979192Y-75132244D01*
X9921342Y-75190770D01*
X9787196Y-75301610D01*
X9608839Y-75440540D01*
X9418356Y-75583341D01*
X9247832Y-75705791D01*
X9129350Y-75783670D01*
X9096041Y-75798947D01*
X9077104Y-75737774D01*
X9052203Y-75576047D01*
X9026214Y-75346456D01*
X9022035Y-75302978D01*
X9002508Y-75053432D01*
X8994029Y-74854343D01*
X8998140Y-74744507D01*
X8999621Y-74738973D01*
X9068675Y-74729626D01*
X9232294Y-74770838D01*
G36*
X12453089Y-74701229D02*
G01*
X12468741Y-74822829D01*
X12466837Y-75026949D01*
X12466052Y-75132181D01*
X12459100Y-75421033D01*
X12436688Y-75591612D01*
X12396483Y-75658681D01*
X12382500Y-75660971D01*
X12291195Y-75623371D01*
X12122628Y-75527277D01*
X11908766Y-75391273D01*
X11844907Y-75348426D01*
X11390867Y-75040174D01*
X11778065Y-74879704D01*
X12082368Y-74751385D01*
X12281744Y-74673522D01*
X12398037Y-74654132D01*
X12453089Y-74701229D01*
G37*
X12453089Y-74701229D02*
X12468741Y-74822829D01*
X12466837Y-75026949D01*
X12466052Y-75132181D01*
X12459100Y-75421033D01*
X12436688Y-75591612D01*
X12396483Y-75658681D01*
X12382500Y-75660971D01*
X12291195Y-75623371D01*
X12122628Y-75527277D01*
X11908766Y-75391273D01*
X11844907Y-75348426D01*
X11390867Y-75040174D01*
X11778065Y-74879704D01*
X12082368Y-74751385D01*
X12281744Y-74673522D01*
X12398037Y-74654132D01*
X12453089Y-74701229D01*
D13*
G04 #@! TO.C,J10*
X8255000Y-41850000D02*
X9585000Y-41850000D01*
X9585000Y-41850000D02*
X9585000Y-43180000D01*
X9585000Y-44450000D02*
X9585000Y-62290000D01*
X6925000Y-62290000D02*
X9585000Y-62290000D01*
X6925000Y-44450000D02*
X6925000Y-62290000D01*
X6925000Y-44450000D02*
X9585000Y-44450000D01*
G04 #@! TO.C,J3*
X3810000Y-41850000D02*
X5140000Y-41850000D01*
X5140000Y-41850000D02*
X5140000Y-43180000D01*
X5140000Y-44450000D02*
X5140000Y-62290000D01*
X2480000Y-62290000D02*
X5140000Y-62290000D01*
X2480000Y-44450000D02*
X2480000Y-62290000D01*
X2480000Y-44450000D02*
X5140000Y-44450000D01*
G04 #@! TO.C,R29*
X18320000Y-865000D02*
X18320000Y-535000D01*
X18320000Y-535000D02*
X24860000Y-535000D01*
X24860000Y-535000D02*
X24860000Y-865000D01*
X18320000Y-2945000D02*
X18320000Y-3275000D01*
X18320000Y-3275000D02*
X24860000Y-3275000D01*
X24860000Y-3275000D02*
X24860000Y-2945000D01*
G04 #@! TO.C,R28*
X18320000Y-9755000D02*
X18320000Y-9425000D01*
X18320000Y-9425000D02*
X24860000Y-9425000D01*
X24860000Y-9425000D02*
X24860000Y-9755000D01*
X18320000Y-11835000D02*
X18320000Y-12165000D01*
X18320000Y-12165000D02*
X24860000Y-12165000D01*
X24860000Y-12165000D02*
X24860000Y-11835000D01*
G04 #@! TO.C,J9*
X23750000Y-7850000D02*
X24750000Y-7850000D01*
X23750000Y-6850000D02*
X23750000Y-7850000D01*
X23750000Y-4850000D02*
X23750000Y-5850000D01*
X24750000Y-4850000D02*
X23750000Y-4850000D01*
X37750000Y-10350000D02*
X37750000Y-11350000D01*
X37750000Y-11350000D02*
X36750000Y-11350000D01*
X37750000Y-2350000D02*
X37750000Y-1350000D01*
X37750000Y-1350000D02*
X36750000Y-1350000D01*
X28250000Y-1350000D02*
X27250000Y-1350000D01*
X27250000Y-1350000D02*
X27250000Y-2350000D01*
X28250000Y-11350000D02*
X27250000Y-11350000D01*
X27250000Y-11350000D02*
X27250000Y-10350000D01*
G04 #@! TO.C,D9*
X17814000Y-7910000D02*
X17970000Y-7910000D01*
X20130000Y-7910000D02*
X20286000Y-7910000D01*
X20129837Y-5308870D02*
G75*
G02*
X20130000Y-7390961I-1079837J-1041130D01*
G01*
X17970163Y-5308870D02*
G75*
G03*
X17970000Y-7390961I1079837J-1041130D01*
G01*
X20128608Y-4677665D02*
G75*
G02*
X20285516Y-7910000I-1078608J-1672335D01*
G01*
X17971392Y-4677665D02*
G75*
G03*
X17814484Y-7910000I1078608J-1672335D01*
G01*
G04 #@! TO.C,J8*
X23750000Y-96750000D02*
X24750000Y-96750000D01*
X23750000Y-95750000D02*
X23750000Y-96750000D01*
X23750000Y-93750000D02*
X23750000Y-94750000D01*
X24750000Y-93750000D02*
X23750000Y-93750000D01*
X37750000Y-99250000D02*
X37750000Y-100250000D01*
X37750000Y-100250000D02*
X36750000Y-100250000D01*
X37750000Y-91250000D02*
X37750000Y-90250000D01*
X37750000Y-90250000D02*
X36750000Y-90250000D01*
X28250000Y-90250000D02*
X27250000Y-90250000D01*
X27250000Y-90250000D02*
X27250000Y-91250000D01*
X28250000Y-100250000D02*
X27250000Y-100250000D01*
X27250000Y-100250000D02*
X27250000Y-99250000D01*
G04 #@! TO.C,J7*
X23750000Y-78970000D02*
X24750000Y-78970000D01*
X23750000Y-77970000D02*
X23750000Y-78970000D01*
X23750000Y-75970000D02*
X23750000Y-76970000D01*
X24750000Y-75970000D02*
X23750000Y-75970000D01*
X37750000Y-81470000D02*
X37750000Y-82470000D01*
X37750000Y-82470000D02*
X36750000Y-82470000D01*
X37750000Y-73470000D02*
X37750000Y-72470000D01*
X37750000Y-72470000D02*
X36750000Y-72470000D01*
X28250000Y-72470000D02*
X27250000Y-72470000D01*
X27250000Y-72470000D02*
X27250000Y-73470000D01*
X28250000Y-82470000D02*
X27250000Y-82470000D01*
X27250000Y-82470000D02*
X27250000Y-81470000D01*
G04 #@! TO.C,J6*
X23750000Y-61190000D02*
X24750000Y-61190000D01*
X23750000Y-60190000D02*
X23750000Y-61190000D01*
X23750000Y-58190000D02*
X23750000Y-59190000D01*
X24750000Y-58190000D02*
X23750000Y-58190000D01*
X37750000Y-63690000D02*
X37750000Y-64690000D01*
X37750000Y-64690000D02*
X36750000Y-64690000D01*
X37750000Y-55690000D02*
X37750000Y-54690000D01*
X37750000Y-54690000D02*
X36750000Y-54690000D01*
X28250000Y-54690000D02*
X27250000Y-54690000D01*
X27250000Y-54690000D02*
X27250000Y-55690000D01*
X28250000Y-64690000D02*
X27250000Y-64690000D01*
X27250000Y-64690000D02*
X27250000Y-63690000D01*
G04 #@! TO.C,J5*
X23750000Y-43410000D02*
X24750000Y-43410000D01*
X23750000Y-42410000D02*
X23750000Y-43410000D01*
X23750000Y-40410000D02*
X23750000Y-41410000D01*
X24750000Y-40410000D02*
X23750000Y-40410000D01*
X37750000Y-45910000D02*
X37750000Y-46910000D01*
X37750000Y-46910000D02*
X36750000Y-46910000D01*
X37750000Y-37910000D02*
X37750000Y-36910000D01*
X37750000Y-36910000D02*
X36750000Y-36910000D01*
X28250000Y-36910000D02*
X27250000Y-36910000D01*
X27250000Y-36910000D02*
X27250000Y-37910000D01*
X28250000Y-46910000D02*
X27250000Y-46910000D01*
X27250000Y-46910000D02*
X27250000Y-45910000D01*
G04 #@! TO.C,J4*
X23750000Y-25630000D02*
X24750000Y-25630000D01*
X23750000Y-24630000D02*
X23750000Y-25630000D01*
X23750000Y-22630000D02*
X23750000Y-23630000D01*
X24750000Y-22630000D02*
X23750000Y-22630000D01*
X37750000Y-28130000D02*
X37750000Y-29130000D01*
X37750000Y-29130000D02*
X36750000Y-29130000D01*
X37750000Y-20130000D02*
X37750000Y-19130000D01*
X37750000Y-19130000D02*
X36750000Y-19130000D01*
X28250000Y-19130000D02*
X27250000Y-19130000D01*
X27250000Y-19130000D02*
X27250000Y-20130000D01*
X28250000Y-29130000D02*
X27250000Y-29130000D01*
X27250000Y-29130000D02*
X27250000Y-28130000D01*
G04 #@! TO.C,J2*
X14985000Y-93750000D02*
X13985000Y-93750000D01*
X14985000Y-94750000D02*
X14985000Y-93750000D01*
X14985000Y-96750000D02*
X14985000Y-95750000D01*
X13985000Y-96750000D02*
X14985000Y-96750000D01*
X985000Y-91250000D02*
X985000Y-90250000D01*
X985000Y-90250000D02*
X1985000Y-90250000D01*
X985000Y-99250000D02*
X985000Y-100250000D01*
X985000Y-100250000D02*
X1985000Y-100250000D01*
X10485000Y-100250000D02*
X11485000Y-100250000D01*
X11485000Y-100250000D02*
X11485000Y-99250000D01*
X10485000Y-90250000D02*
X11485000Y-90250000D01*
X11485000Y-90250000D02*
X11485000Y-91250000D01*
G04 #@! TO.C,J1*
X14985000Y-4850000D02*
X13985000Y-4850000D01*
X14985000Y-5850000D02*
X14985000Y-4850000D01*
X14985000Y-7850000D02*
X14985000Y-6850000D01*
X13985000Y-7850000D02*
X14985000Y-7850000D01*
X985000Y-2350000D02*
X985000Y-1350000D01*
X985000Y-1350000D02*
X1985000Y-1350000D01*
X985000Y-10350000D02*
X985000Y-11350000D01*
X985000Y-11350000D02*
X1985000Y-11350000D01*
X10485000Y-11350000D02*
X11485000Y-11350000D01*
X11485000Y-11350000D02*
X11485000Y-10350000D01*
X10485000Y-1350000D02*
X11485000Y-1350000D01*
X11485000Y-1350000D02*
X11485000Y-2350000D01*
G04 #@! TO.C,D8*
X17814000Y-96810000D02*
X17970000Y-96810000D01*
X20130000Y-96810000D02*
X20286000Y-96810000D01*
X20129837Y-94208870D02*
G75*
G02*
X20130000Y-96290961I-1079837J-1041130D01*
G01*
X17970163Y-94208870D02*
G75*
G03*
X17970000Y-96290961I1079837J-1041130D01*
G01*
X20128608Y-93577665D02*
G75*
G02*
X20285516Y-96810000I-1078608J-1672335D01*
G01*
X17971392Y-93577665D02*
G75*
G03*
X17814484Y-96810000I1078608J-1672335D01*
G01*
G04 #@! TO.C,D7*
X17814000Y-79030000D02*
X17970000Y-79030000D01*
X20130000Y-79030000D02*
X20286000Y-79030000D01*
X20129837Y-76428870D02*
G75*
G02*
X20130000Y-78510961I-1079837J-1041130D01*
G01*
X17970163Y-76428870D02*
G75*
G03*
X17970000Y-78510961I1079837J-1041130D01*
G01*
X20128608Y-75797665D02*
G75*
G02*
X20285516Y-79030000I-1078608J-1672335D01*
G01*
X17971392Y-75797665D02*
G75*
G03*
X17814484Y-79030000I1078608J-1672335D01*
G01*
G04 #@! TO.C,D6*
X17814000Y-61250000D02*
X17970000Y-61250000D01*
X20130000Y-61250000D02*
X20286000Y-61250000D01*
X20129837Y-58648870D02*
G75*
G02*
X20130000Y-60730961I-1079837J-1041130D01*
G01*
X17970163Y-58648870D02*
G75*
G03*
X17970000Y-60730961I1079837J-1041130D01*
G01*
X20128608Y-58017665D02*
G75*
G02*
X20285516Y-61250000I-1078608J-1672335D01*
G01*
X17971392Y-58017665D02*
G75*
G03*
X17814484Y-61250000I1078608J-1672335D01*
G01*
G04 #@! TO.C,D5*
X17814000Y-43470000D02*
X17970000Y-43470000D01*
X20130000Y-43470000D02*
X20286000Y-43470000D01*
X20129837Y-40868870D02*
G75*
G02*
X20130000Y-42950961I-1079837J-1041130D01*
G01*
X17970163Y-40868870D02*
G75*
G03*
X17970000Y-42950961I1079837J-1041130D01*
G01*
X20128608Y-40237665D02*
G75*
G02*
X20285516Y-43470000I-1078608J-1672335D01*
G01*
X17971392Y-40237665D02*
G75*
G03*
X17814484Y-43470000I1078608J-1672335D01*
G01*
G04 #@! TO.C,D4*
X17814000Y-25690000D02*
X17970000Y-25690000D01*
X20130000Y-25690000D02*
X20286000Y-25690000D01*
X20129837Y-23088870D02*
G75*
G02*
X20130000Y-25170961I-1079837J-1041130D01*
G01*
X17970163Y-23088870D02*
G75*
G03*
X17970000Y-25170961I1079837J-1041130D01*
G01*
X20128608Y-22457665D02*
G75*
G02*
X20285516Y-25690000I-1078608J-1672335D01*
G01*
X17971392Y-22457665D02*
G75*
G03*
X17814484Y-25690000I1078608J-1672335D01*
G01*
G04 #@! TO.C,R26*
X18320000Y-89765000D02*
X18320000Y-89435000D01*
X18320000Y-89435000D02*
X24860000Y-89435000D01*
X24860000Y-89435000D02*
X24860000Y-89765000D01*
X18320000Y-91845000D02*
X18320000Y-92175000D01*
X18320000Y-92175000D02*
X24860000Y-92175000D01*
X24860000Y-92175000D02*
X24860000Y-91845000D01*
G04 #@! TO.C,R25*
X18320000Y-98655000D02*
X18320000Y-98325000D01*
X18320000Y-98325000D02*
X24860000Y-98325000D01*
X24860000Y-98325000D02*
X24860000Y-98655000D01*
X18320000Y-100735000D02*
X18320000Y-101065000D01*
X18320000Y-101065000D02*
X24860000Y-101065000D01*
X24860000Y-101065000D02*
X24860000Y-100735000D01*
G04 #@! TO.C,R24*
X18320000Y-71985000D02*
X18320000Y-71655000D01*
X18320000Y-71655000D02*
X24860000Y-71655000D01*
X24860000Y-71655000D02*
X24860000Y-71985000D01*
X18320000Y-74065000D02*
X18320000Y-74395000D01*
X18320000Y-74395000D02*
X24860000Y-74395000D01*
X24860000Y-74395000D02*
X24860000Y-74065000D01*
G04 #@! TO.C,R23*
X18320000Y-80875000D02*
X18320000Y-80545000D01*
X18320000Y-80545000D02*
X24860000Y-80545000D01*
X24860000Y-80545000D02*
X24860000Y-80875000D01*
X18320000Y-82955000D02*
X18320000Y-83285000D01*
X18320000Y-83285000D02*
X24860000Y-83285000D01*
X24860000Y-83285000D02*
X24860000Y-82955000D01*
G04 #@! TO.C,R22*
X18320000Y-54205000D02*
X18320000Y-53875000D01*
X18320000Y-53875000D02*
X24860000Y-53875000D01*
X24860000Y-53875000D02*
X24860000Y-54205000D01*
X18320000Y-56285000D02*
X18320000Y-56615000D01*
X18320000Y-56615000D02*
X24860000Y-56615000D01*
X24860000Y-56615000D02*
X24860000Y-56285000D01*
G04 #@! TO.C,R21*
X18320000Y-63095000D02*
X18320000Y-62765000D01*
X18320000Y-62765000D02*
X24860000Y-62765000D01*
X24860000Y-62765000D02*
X24860000Y-63095000D01*
X18320000Y-65175000D02*
X18320000Y-65505000D01*
X18320000Y-65505000D02*
X24860000Y-65505000D01*
X24860000Y-65505000D02*
X24860000Y-65175000D01*
G04 #@! TO.C,R20*
X18320000Y-36425000D02*
X18320000Y-36095000D01*
X18320000Y-36095000D02*
X24860000Y-36095000D01*
X24860000Y-36095000D02*
X24860000Y-36425000D01*
X18320000Y-38505000D02*
X18320000Y-38835000D01*
X18320000Y-38835000D02*
X24860000Y-38835000D01*
X24860000Y-38835000D02*
X24860000Y-38505000D01*
G04 #@! TO.C,R19*
X18320000Y-45315000D02*
X18320000Y-44985000D01*
X18320000Y-44985000D02*
X24860000Y-44985000D01*
X24860000Y-44985000D02*
X24860000Y-45315000D01*
X18320000Y-47395000D02*
X18320000Y-47725000D01*
X18320000Y-47725000D02*
X24860000Y-47725000D01*
X24860000Y-47725000D02*
X24860000Y-47395000D01*
G04 #@! TO.C,R18*
X18320000Y-18645000D02*
X18320000Y-18315000D01*
X18320000Y-18315000D02*
X24860000Y-18315000D01*
X24860000Y-18315000D02*
X24860000Y-18645000D01*
X18320000Y-20725000D02*
X18320000Y-21055000D01*
X18320000Y-21055000D02*
X24860000Y-21055000D01*
X24860000Y-21055000D02*
X24860000Y-20725000D01*
G04 #@! TO.C,R17*
X18320000Y-27535000D02*
X18320000Y-27205000D01*
X18320000Y-27205000D02*
X24860000Y-27205000D01*
X24860000Y-27205000D02*
X24860000Y-27535000D01*
X18320000Y-29615000D02*
X18320000Y-29945000D01*
X18320000Y-29945000D02*
X24860000Y-29945000D01*
X24860000Y-29945000D02*
X24860000Y-29615000D01*
G04 #@! TO.C,R4*
X4850000Y-71025000D02*
X5180000Y-71025000D01*
X5180000Y-71025000D02*
X5180000Y-77565000D01*
X5180000Y-77565000D02*
X4850000Y-77565000D01*
X2770000Y-71025000D02*
X2440000Y-71025000D01*
X2440000Y-71025000D02*
X2440000Y-77565000D01*
X2440000Y-77565000D02*
X2770000Y-77565000D01*
G04 #@! TO.C,R3*
X2770000Y-30575000D02*
X2440000Y-30575000D01*
X2440000Y-30575000D02*
X2440000Y-24035000D01*
X2440000Y-24035000D02*
X2770000Y-24035000D01*
X4850000Y-30575000D02*
X5180000Y-30575000D01*
X5180000Y-30575000D02*
X5180000Y-24035000D01*
X5180000Y-24035000D02*
X4850000Y-24035000D01*
G04 #@! TO.C,D2*
X4930000Y-82335000D02*
X2690000Y-82335000D01*
X2690000Y-82335000D02*
X2690000Y-86575000D01*
X2690000Y-86575000D02*
X4930000Y-86575000D01*
X4930000Y-86575000D02*
X4930000Y-82335000D01*
X3810000Y-81685000D02*
X3810000Y-82335000D01*
X3810000Y-87225000D02*
X3810000Y-86575000D01*
X4930000Y-83055000D02*
X2690000Y-83055000D01*
X4930000Y-83175000D02*
X2690000Y-83175000D01*
X4930000Y-82935000D02*
X2690000Y-82935000D01*
G04 #@! TO.C,D1*
X2690000Y-19265000D02*
X4930000Y-19265000D01*
X4930000Y-19265000D02*
X4930000Y-15025000D01*
X4930000Y-15025000D02*
X2690000Y-15025000D01*
X2690000Y-15025000D02*
X2690000Y-19265000D01*
X3810000Y-19915000D02*
X3810000Y-19265000D01*
X3810000Y-14375000D02*
X3810000Y-15025000D01*
X2690000Y-18545000D02*
X4930000Y-18545000D01*
X2690000Y-18425000D02*
X4930000Y-18425000D01*
X2690000Y-18665000D02*
X4930000Y-18665000D01*
G04 #@! TO.C,J10*
D11*
X7707380Y-67438690D02*
X7707380Y-67248214D01*
X7755000Y-67152976D01*
X7850238Y-67057738D01*
X8040714Y-67010119D01*
X8374047Y-67010119D01*
X8564523Y-67057738D01*
X8659761Y-67152976D01*
X8707380Y-67248214D01*
X8707380Y-67438690D01*
X8659761Y-67533928D01*
X8564523Y-67629166D01*
X8374047Y-67676785D01*
X8040714Y-67676785D01*
X7850238Y-67629166D01*
X7755000Y-67533928D01*
X7707380Y-67438690D01*
X8040714Y-66152976D02*
X8707380Y-66152976D01*
X8040714Y-66581547D02*
X8564523Y-66581547D01*
X8659761Y-66533928D01*
X8707380Y-66438690D01*
X8707380Y-66295833D01*
X8659761Y-66200595D01*
X8612142Y-66152976D01*
X8040714Y-65819642D02*
X8040714Y-65438690D01*
X7707380Y-65676785D02*
X8564523Y-65676785D01*
X8659761Y-65629166D01*
X8707380Y-65533928D01*
X8707380Y-65438690D01*
X8040714Y-65105357D02*
X9040714Y-65105357D01*
X8088333Y-65105357D02*
X8040714Y-65010119D01*
X8040714Y-64819642D01*
X8088333Y-64724404D01*
X8135952Y-64676785D01*
X8231190Y-64629166D01*
X8516904Y-64629166D01*
X8612142Y-64676785D01*
X8659761Y-64724404D01*
X8707380Y-64819642D01*
X8707380Y-65010119D01*
X8659761Y-65105357D01*
X8040714Y-63772023D02*
X8707380Y-63772023D01*
X8040714Y-64200595D02*
X8564523Y-64200595D01*
X8659761Y-64152976D01*
X8707380Y-64057738D01*
X8707380Y-63914880D01*
X8659761Y-63819642D01*
X8612142Y-63772023D01*
X8040714Y-63438690D02*
X8040714Y-63057738D01*
X7707380Y-63295833D02*
X8564523Y-63295833D01*
X8659761Y-63248214D01*
X8707380Y-63152976D01*
X8707380Y-63057738D01*
G04 #@! TO.C,J3*
X4262380Y-66486309D02*
X3262380Y-66486309D01*
X3595714Y-66010119D02*
X4262380Y-66010119D01*
X3690952Y-66010119D02*
X3643333Y-65962500D01*
X3595714Y-65867261D01*
X3595714Y-65724404D01*
X3643333Y-65629166D01*
X3738571Y-65581547D01*
X4262380Y-65581547D01*
X3595714Y-65105357D02*
X4595714Y-65105357D01*
X3643333Y-65105357D02*
X3595714Y-65010119D01*
X3595714Y-64819642D01*
X3643333Y-64724404D01*
X3690952Y-64676785D01*
X3786190Y-64629166D01*
X4071904Y-64629166D01*
X4167142Y-64676785D01*
X4214761Y-64724404D01*
X4262380Y-64819642D01*
X4262380Y-65010119D01*
X4214761Y-65105357D01*
X3595714Y-63772023D02*
X4262380Y-63772023D01*
X3595714Y-64200595D02*
X4119523Y-64200595D01*
X4214761Y-64152976D01*
X4262380Y-64057738D01*
X4262380Y-63914880D01*
X4214761Y-63819642D01*
X4167142Y-63772023D01*
X3595714Y-63438690D02*
X3595714Y-63057738D01*
X3262380Y-63295833D02*
X4119523Y-63295833D01*
X4214761Y-63248214D01*
X4262380Y-63152976D01*
X4262380Y-63057738D01*
G04 #@! TO.C,R29*
X20828095Y-1690714D02*
X20828095Y-2357380D01*
X20590000Y-1309761D02*
X20351904Y-2024047D01*
X20970952Y-2024047D01*
X21256666Y-1357380D02*
X21923333Y-1357380D01*
X21494761Y-2357380D01*
X22494761Y-1357380D02*
X22590000Y-1357380D01*
X22685238Y-1405000D01*
X22732857Y-1452619D01*
X22780476Y-1547857D01*
X22828095Y-1738333D01*
X22828095Y-1976428D01*
X22780476Y-2166904D01*
X22732857Y-2262142D01*
X22685238Y-2309761D01*
X22590000Y-2357380D01*
X22494761Y-2357380D01*
X22399523Y-2309761D01*
X22351904Y-2262142D01*
X22304285Y-2166904D01*
X22256666Y-1976428D01*
X22256666Y-1738333D01*
X22304285Y-1547857D01*
X22351904Y-1452619D01*
X22399523Y-1405000D01*
X22494761Y-1357380D01*
G04 #@! TO.C,R28*
X21470952Y-11247380D02*
X20899523Y-11247380D01*
X21185238Y-11247380D02*
X21185238Y-10247380D01*
X21090000Y-10390238D01*
X20994761Y-10485476D01*
X20899523Y-10533095D01*
X21899523Y-11247380D02*
X21899523Y-10247380D01*
X21994761Y-10866428D02*
X22280476Y-11247380D01*
X22280476Y-10580714D02*
X21899523Y-10961666D01*
G04 #@! TO.C,J9*
D10*
X27936666Y-12315000D02*
X27903333Y-12348333D01*
X27803333Y-12381666D01*
X27736666Y-12381666D01*
X27636666Y-12348333D01*
X27570000Y-12281666D01*
X27536666Y-12215000D01*
X27503333Y-12081666D01*
X27503333Y-11981666D01*
X27536666Y-11848333D01*
X27570000Y-11781666D01*
X27636666Y-11715000D01*
X27736666Y-11681666D01*
X27803333Y-11681666D01*
X27903333Y-11715000D01*
X27936666Y-11748333D01*
X28570000Y-12381666D02*
X28236666Y-12381666D01*
X28236666Y-11681666D01*
X28803333Y-12381666D02*
X28803333Y-11681666D01*
X29203333Y-12381666D02*
X28903333Y-11981666D01*
X29203333Y-11681666D02*
X28803333Y-12081666D01*
X30170000Y-11681666D02*
X30303333Y-11681666D01*
X30370000Y-11715000D01*
X30436666Y-11781666D01*
X30470000Y-11915000D01*
X30470000Y-12148333D01*
X30436666Y-12281666D01*
X30370000Y-12348333D01*
X30303333Y-12381666D01*
X30170000Y-12381666D01*
X30103333Y-12348333D01*
X30036666Y-12281666D01*
X30003333Y-12148333D01*
X30003333Y-11915000D01*
X30036666Y-11781666D01*
X30103333Y-11715000D01*
X30170000Y-11681666D01*
X31070000Y-11915000D02*
X31070000Y-12381666D01*
X30770000Y-11915000D02*
X30770000Y-12281666D01*
X30803333Y-12348333D01*
X30870000Y-12381666D01*
X30970000Y-12381666D01*
X31036666Y-12348333D01*
X31070000Y-12315000D01*
X31303333Y-11915000D02*
X31570000Y-11915000D01*
X31403333Y-11681666D02*
X31403333Y-12281666D01*
X31436666Y-12348333D01*
X31503333Y-12381666D01*
X31570000Y-12381666D01*
G04 #@! TO.C,J8*
X27936666Y-89500000D02*
X27903333Y-89533333D01*
X27803333Y-89566666D01*
X27736666Y-89566666D01*
X27636666Y-89533333D01*
X27570000Y-89466666D01*
X27536666Y-89400000D01*
X27503333Y-89266666D01*
X27503333Y-89166666D01*
X27536666Y-89033333D01*
X27570000Y-88966666D01*
X27636666Y-88900000D01*
X27736666Y-88866666D01*
X27803333Y-88866666D01*
X27903333Y-88900000D01*
X27936666Y-88933333D01*
X28570000Y-89566666D02*
X28236666Y-89566666D01*
X28236666Y-88866666D01*
X28803333Y-89566666D02*
X28803333Y-88866666D01*
X29203333Y-89566666D02*
X28903333Y-89166666D01*
X29203333Y-88866666D02*
X28803333Y-89266666D01*
X30003333Y-88833333D02*
X29403333Y-89733333D01*
X30170000Y-88866666D02*
X30603333Y-88866666D01*
X30370000Y-89133333D01*
X30470000Y-89133333D01*
X30536666Y-89166666D01*
X30570000Y-89200000D01*
X30603333Y-89266666D01*
X30603333Y-89433333D01*
X30570000Y-89500000D01*
X30536666Y-89533333D01*
X30470000Y-89566666D01*
X30270000Y-89566666D01*
X30203333Y-89533333D01*
X30170000Y-89500000D01*
X30870000Y-88933333D02*
X30903333Y-88900000D01*
X30970000Y-88866666D01*
X31136666Y-88866666D01*
X31203333Y-88900000D01*
X31236666Y-88933333D01*
X31270000Y-89000000D01*
X31270000Y-89066666D01*
X31236666Y-89166666D01*
X30836666Y-89566666D01*
X31270000Y-89566666D01*
G04 #@! TO.C,J7*
X27936666Y-71720000D02*
X27903333Y-71753333D01*
X27803333Y-71786666D01*
X27736666Y-71786666D01*
X27636666Y-71753333D01*
X27570000Y-71686666D01*
X27536666Y-71620000D01*
X27503333Y-71486666D01*
X27503333Y-71386666D01*
X27536666Y-71253333D01*
X27570000Y-71186666D01*
X27636666Y-71120000D01*
X27736666Y-71086666D01*
X27803333Y-71086666D01*
X27903333Y-71120000D01*
X27936666Y-71153333D01*
X28570000Y-71786666D02*
X28236666Y-71786666D01*
X28236666Y-71086666D01*
X28803333Y-71786666D02*
X28803333Y-71086666D01*
X29203333Y-71786666D02*
X28903333Y-71386666D01*
X29203333Y-71086666D02*
X28803333Y-71486666D01*
X30003333Y-71053333D02*
X29403333Y-71953333D01*
X30603333Y-71786666D02*
X30203333Y-71786666D01*
X30403333Y-71786666D02*
X30403333Y-71086666D01*
X30336666Y-71186666D01*
X30270000Y-71253333D01*
X30203333Y-71286666D01*
X31203333Y-71086666D02*
X31070000Y-71086666D01*
X31003333Y-71120000D01*
X30970000Y-71153333D01*
X30903333Y-71253333D01*
X30870000Y-71386666D01*
X30870000Y-71653333D01*
X30903333Y-71720000D01*
X30936666Y-71753333D01*
X31003333Y-71786666D01*
X31136666Y-71786666D01*
X31203333Y-71753333D01*
X31236666Y-71720000D01*
X31270000Y-71653333D01*
X31270000Y-71486666D01*
X31236666Y-71420000D01*
X31203333Y-71386666D01*
X31136666Y-71353333D01*
X31003333Y-71353333D01*
X30936666Y-71386666D01*
X30903333Y-71420000D01*
X30870000Y-71486666D01*
G04 #@! TO.C,J6*
X27936666Y-54225000D02*
X27903333Y-54258333D01*
X27803333Y-54291666D01*
X27736666Y-54291666D01*
X27636666Y-54258333D01*
X27570000Y-54191666D01*
X27536666Y-54125000D01*
X27503333Y-53991666D01*
X27503333Y-53891666D01*
X27536666Y-53758333D01*
X27570000Y-53691666D01*
X27636666Y-53625000D01*
X27736666Y-53591666D01*
X27803333Y-53591666D01*
X27903333Y-53625000D01*
X27936666Y-53658333D01*
X28570000Y-54291666D02*
X28236666Y-54291666D01*
X28236666Y-53591666D01*
X28803333Y-54291666D02*
X28803333Y-53591666D01*
X29203333Y-54291666D02*
X28903333Y-53891666D01*
X29203333Y-53591666D02*
X28803333Y-53991666D01*
X30003333Y-53558333D02*
X29403333Y-54458333D01*
X30336666Y-53891666D02*
X30270000Y-53858333D01*
X30236666Y-53825000D01*
X30203333Y-53758333D01*
X30203333Y-53725000D01*
X30236666Y-53658333D01*
X30270000Y-53625000D01*
X30336666Y-53591666D01*
X30470000Y-53591666D01*
X30536666Y-53625000D01*
X30570000Y-53658333D01*
X30603333Y-53725000D01*
X30603333Y-53758333D01*
X30570000Y-53825000D01*
X30536666Y-53858333D01*
X30470000Y-53891666D01*
X30336666Y-53891666D01*
X30270000Y-53925000D01*
X30236666Y-53958333D01*
X30203333Y-54025000D01*
X30203333Y-54158333D01*
X30236666Y-54225000D01*
X30270000Y-54258333D01*
X30336666Y-54291666D01*
X30470000Y-54291666D01*
X30536666Y-54258333D01*
X30570000Y-54225000D01*
X30603333Y-54158333D01*
X30603333Y-54025000D01*
X30570000Y-53958333D01*
X30536666Y-53925000D01*
X30470000Y-53891666D01*
G04 #@! TO.C,J5*
X27936666Y-36160000D02*
X27903333Y-36193333D01*
X27803333Y-36226666D01*
X27736666Y-36226666D01*
X27636666Y-36193333D01*
X27570000Y-36126666D01*
X27536666Y-36060000D01*
X27503333Y-35926666D01*
X27503333Y-35826666D01*
X27536666Y-35693333D01*
X27570000Y-35626666D01*
X27636666Y-35560000D01*
X27736666Y-35526666D01*
X27803333Y-35526666D01*
X27903333Y-35560000D01*
X27936666Y-35593333D01*
X28570000Y-36226666D02*
X28236666Y-36226666D01*
X28236666Y-35526666D01*
X28803333Y-36226666D02*
X28803333Y-35526666D01*
X29203333Y-36226666D02*
X28903333Y-35826666D01*
X29203333Y-35526666D02*
X28803333Y-35926666D01*
X30003333Y-35493333D02*
X29403333Y-36393333D01*
X30536666Y-35760000D02*
X30536666Y-36226666D01*
X30370000Y-35493333D02*
X30203333Y-35993333D01*
X30636666Y-35993333D01*
G04 #@! TO.C,J4*
X27936666Y-18380000D02*
X27903333Y-18413333D01*
X27803333Y-18446666D01*
X27736666Y-18446666D01*
X27636666Y-18413333D01*
X27570000Y-18346666D01*
X27536666Y-18280000D01*
X27503333Y-18146666D01*
X27503333Y-18046666D01*
X27536666Y-17913333D01*
X27570000Y-17846666D01*
X27636666Y-17780000D01*
X27736666Y-17746666D01*
X27803333Y-17746666D01*
X27903333Y-17780000D01*
X27936666Y-17813333D01*
X28570000Y-18446666D02*
X28236666Y-18446666D01*
X28236666Y-17746666D01*
X28803333Y-18446666D02*
X28803333Y-17746666D01*
X29203333Y-18446666D02*
X28903333Y-18046666D01*
X29203333Y-17746666D02*
X28803333Y-18146666D01*
X30003333Y-17713333D02*
X29403333Y-18613333D01*
X30203333Y-17813333D02*
X30236666Y-17780000D01*
X30303333Y-17746666D01*
X30470000Y-17746666D01*
X30536666Y-17780000D01*
X30570000Y-17813333D01*
X30603333Y-17880000D01*
X30603333Y-17946666D01*
X30570000Y-18046666D01*
X30170000Y-18446666D01*
X30603333Y-18446666D01*
G04 #@! TO.C,J2*
X7265000Y-89851666D02*
X7031666Y-89518333D01*
X6865000Y-89851666D02*
X6865000Y-89151666D01*
X7131666Y-89151666D01*
X7198333Y-89185000D01*
X7231666Y-89218333D01*
X7265000Y-89285000D01*
X7265000Y-89385000D01*
X7231666Y-89451666D01*
X7198333Y-89485000D01*
X7131666Y-89518333D01*
X6865000Y-89518333D01*
X7565000Y-89485000D02*
X7798333Y-89485000D01*
X7898333Y-89851666D02*
X7565000Y-89851666D01*
X7565000Y-89151666D01*
X7898333Y-89151666D01*
X8165000Y-89818333D02*
X8265000Y-89851666D01*
X8431666Y-89851666D01*
X8498333Y-89818333D01*
X8531666Y-89785000D01*
X8565000Y-89718333D01*
X8565000Y-89651666D01*
X8531666Y-89585000D01*
X8498333Y-89551666D01*
X8431666Y-89518333D01*
X8298333Y-89485000D01*
X8231666Y-89451666D01*
X8198333Y-89418333D01*
X8165000Y-89351666D01*
X8165000Y-89285000D01*
X8198333Y-89218333D01*
X8231666Y-89185000D01*
X8298333Y-89151666D01*
X8465000Y-89151666D01*
X8565000Y-89185000D01*
X8865000Y-89485000D02*
X9098333Y-89485000D01*
X9198333Y-89851666D02*
X8865000Y-89851666D01*
X8865000Y-89151666D01*
X9198333Y-89151666D01*
X9398333Y-89151666D02*
X9798333Y-89151666D01*
X9598333Y-89851666D02*
X9598333Y-89151666D01*
X10565000Y-89851666D02*
X10565000Y-89151666D01*
X10898333Y-89385000D02*
X10898333Y-89851666D01*
X10898333Y-89451666D02*
X10931666Y-89418333D01*
X10998333Y-89385000D01*
X11098333Y-89385000D01*
X11165000Y-89418333D01*
X11198333Y-89485000D01*
X11198333Y-89851666D01*
G04 #@! TO.C,J1*
D11*
X7189642Y-12707142D02*
X7142023Y-12754761D01*
X6999166Y-12802380D01*
X6903928Y-12802380D01*
X6761071Y-12754761D01*
X6665833Y-12659523D01*
X6618214Y-12564285D01*
X6570595Y-12373809D01*
X6570595Y-12230952D01*
X6618214Y-12040476D01*
X6665833Y-11945238D01*
X6761071Y-11850000D01*
X6903928Y-11802380D01*
X6999166Y-11802380D01*
X7142023Y-11850000D01*
X7189642Y-11897619D01*
X8094404Y-12802380D02*
X7618214Y-12802380D01*
X7618214Y-11802380D01*
X8427738Y-12802380D02*
X8427738Y-11802380D01*
X8999166Y-12802380D02*
X8570595Y-12230952D01*
X8999166Y-11802380D02*
X8427738Y-12373809D01*
X10189642Y-12802380D02*
X10189642Y-11802380D01*
X10665833Y-12135714D02*
X10665833Y-12802380D01*
X10665833Y-12230952D02*
X10713452Y-12183333D01*
X10808690Y-12135714D01*
X10951547Y-12135714D01*
X11046785Y-12183333D01*
X11094404Y-12278571D01*
X11094404Y-12802380D01*
G04 #@! TO.C,R26*
X20828095Y-90590714D02*
X20828095Y-91257380D01*
X20590000Y-90209761D02*
X20351904Y-90924047D01*
X20970952Y-90924047D01*
X21256666Y-90257380D02*
X21923333Y-90257380D01*
X21494761Y-91257380D01*
X22494761Y-90257380D02*
X22590000Y-90257380D01*
X22685238Y-90305000D01*
X22732857Y-90352619D01*
X22780476Y-90447857D01*
X22828095Y-90638333D01*
X22828095Y-90876428D01*
X22780476Y-91066904D01*
X22732857Y-91162142D01*
X22685238Y-91209761D01*
X22590000Y-91257380D01*
X22494761Y-91257380D01*
X22399523Y-91209761D01*
X22351904Y-91162142D01*
X22304285Y-91066904D01*
X22256666Y-90876428D01*
X22256666Y-90638333D01*
X22304285Y-90447857D01*
X22351904Y-90352619D01*
X22399523Y-90305000D01*
X22494761Y-90257380D01*
G04 #@! TO.C,R25*
X21470952Y-100147380D02*
X20899523Y-100147380D01*
X21185238Y-100147380D02*
X21185238Y-99147380D01*
X21090000Y-99290238D01*
X20994761Y-99385476D01*
X20899523Y-99433095D01*
X21899523Y-100147380D02*
X21899523Y-99147380D01*
X21994761Y-99766428D02*
X22280476Y-100147380D01*
X22280476Y-99480714D02*
X21899523Y-99861666D01*
G04 #@! TO.C,R24*
X20828095Y-72810714D02*
X20828095Y-73477380D01*
X20590000Y-72429761D02*
X20351904Y-73144047D01*
X20970952Y-73144047D01*
X21256666Y-72477380D02*
X21923333Y-72477380D01*
X21494761Y-73477380D01*
X22494761Y-72477380D02*
X22590000Y-72477380D01*
X22685238Y-72525000D01*
X22732857Y-72572619D01*
X22780476Y-72667857D01*
X22828095Y-72858333D01*
X22828095Y-73096428D01*
X22780476Y-73286904D01*
X22732857Y-73382142D01*
X22685238Y-73429761D01*
X22590000Y-73477380D01*
X22494761Y-73477380D01*
X22399523Y-73429761D01*
X22351904Y-73382142D01*
X22304285Y-73286904D01*
X22256666Y-73096428D01*
X22256666Y-72858333D01*
X22304285Y-72667857D01*
X22351904Y-72572619D01*
X22399523Y-72525000D01*
X22494761Y-72477380D01*
G04 #@! TO.C,R23*
X21470952Y-82367380D02*
X20899523Y-82367380D01*
X21185238Y-82367380D02*
X21185238Y-81367380D01*
X21090000Y-81510238D01*
X20994761Y-81605476D01*
X20899523Y-81653095D01*
X21899523Y-82367380D02*
X21899523Y-81367380D01*
X21994761Y-81986428D02*
X22280476Y-82367380D01*
X22280476Y-81700714D02*
X21899523Y-82081666D01*
G04 #@! TO.C,R22*
X20828095Y-55030714D02*
X20828095Y-55697380D01*
X20590000Y-54649761D02*
X20351904Y-55364047D01*
X20970952Y-55364047D01*
X21256666Y-54697380D02*
X21923333Y-54697380D01*
X21494761Y-55697380D01*
X22494761Y-54697380D02*
X22590000Y-54697380D01*
X22685238Y-54745000D01*
X22732857Y-54792619D01*
X22780476Y-54887857D01*
X22828095Y-55078333D01*
X22828095Y-55316428D01*
X22780476Y-55506904D01*
X22732857Y-55602142D01*
X22685238Y-55649761D01*
X22590000Y-55697380D01*
X22494761Y-55697380D01*
X22399523Y-55649761D01*
X22351904Y-55602142D01*
X22304285Y-55506904D01*
X22256666Y-55316428D01*
X22256666Y-55078333D01*
X22304285Y-54887857D01*
X22351904Y-54792619D01*
X22399523Y-54745000D01*
X22494761Y-54697380D01*
G04 #@! TO.C,R21*
X21470952Y-64587380D02*
X20899523Y-64587380D01*
X21185238Y-64587380D02*
X21185238Y-63587380D01*
X21090000Y-63730238D01*
X20994761Y-63825476D01*
X20899523Y-63873095D01*
X21899523Y-64587380D02*
X21899523Y-63587380D01*
X21994761Y-64206428D02*
X22280476Y-64587380D01*
X22280476Y-63920714D02*
X21899523Y-64301666D01*
G04 #@! TO.C,R20*
X20828095Y-37250714D02*
X20828095Y-37917380D01*
X20590000Y-36869761D02*
X20351904Y-37584047D01*
X20970952Y-37584047D01*
X21256666Y-36917380D02*
X21923333Y-36917380D01*
X21494761Y-37917380D01*
X22494761Y-36917380D02*
X22590000Y-36917380D01*
X22685238Y-36965000D01*
X22732857Y-37012619D01*
X22780476Y-37107857D01*
X22828095Y-37298333D01*
X22828095Y-37536428D01*
X22780476Y-37726904D01*
X22732857Y-37822142D01*
X22685238Y-37869761D01*
X22590000Y-37917380D01*
X22494761Y-37917380D01*
X22399523Y-37869761D01*
X22351904Y-37822142D01*
X22304285Y-37726904D01*
X22256666Y-37536428D01*
X22256666Y-37298333D01*
X22304285Y-37107857D01*
X22351904Y-37012619D01*
X22399523Y-36965000D01*
X22494761Y-36917380D01*
G04 #@! TO.C,R19*
X21470952Y-46807380D02*
X20899523Y-46807380D01*
X21185238Y-46807380D02*
X21185238Y-45807380D01*
X21090000Y-45950238D01*
X20994761Y-46045476D01*
X20899523Y-46093095D01*
X21899523Y-46807380D02*
X21899523Y-45807380D01*
X21994761Y-46426428D02*
X22280476Y-46807380D01*
X22280476Y-46140714D02*
X21899523Y-46521666D01*
G04 #@! TO.C,R18*
X20828095Y-19470714D02*
X20828095Y-20137380D01*
X20590000Y-19089761D02*
X20351904Y-19804047D01*
X20970952Y-19804047D01*
X21256666Y-19137380D02*
X21923333Y-19137380D01*
X21494761Y-20137380D01*
X22494761Y-19137380D02*
X22590000Y-19137380D01*
X22685238Y-19185000D01*
X22732857Y-19232619D01*
X22780476Y-19327857D01*
X22828095Y-19518333D01*
X22828095Y-19756428D01*
X22780476Y-19946904D01*
X22732857Y-20042142D01*
X22685238Y-20089761D01*
X22590000Y-20137380D01*
X22494761Y-20137380D01*
X22399523Y-20089761D01*
X22351904Y-20042142D01*
X22304285Y-19946904D01*
X22256666Y-19756428D01*
X22256666Y-19518333D01*
X22304285Y-19327857D01*
X22351904Y-19232619D01*
X22399523Y-19185000D01*
X22494761Y-19137380D01*
G04 #@! TO.C,R17*
X21470952Y-29027380D02*
X20899523Y-29027380D01*
X21185238Y-29027380D02*
X21185238Y-28027380D01*
X21090000Y-28170238D01*
X20994761Y-28265476D01*
X20899523Y-28313095D01*
X21899523Y-29027380D02*
X21899523Y-28027380D01*
X21994761Y-28646428D02*
X22280476Y-29027380D01*
X22280476Y-28360714D02*
X21899523Y-28741666D01*
G04 #@! TO.C,R4*
X3595714Y-74985476D02*
X4262380Y-74985476D01*
X3214761Y-75223571D02*
X3929047Y-75461666D01*
X3929047Y-74842619D01*
X3262380Y-74556904D02*
X3262380Y-73890238D01*
X4262380Y-74318809D01*
X4262380Y-73509285D02*
X3262380Y-73509285D01*
X3881428Y-73414047D02*
X4262380Y-73128333D01*
X3595714Y-73128333D02*
X3976666Y-73509285D01*
G04 #@! TO.C,R3*
X3595714Y-27995476D02*
X4262380Y-27995476D01*
X3214761Y-28233571D02*
X3929047Y-28471666D01*
X3929047Y-27852619D01*
X3262380Y-27566904D02*
X3262380Y-26900238D01*
X4262380Y-27328809D01*
X4262380Y-26519285D02*
X3262380Y-26519285D01*
X3881428Y-26424047D02*
X4262380Y-26138333D01*
X3595714Y-26138333D02*
X3976666Y-26519285D01*
G04 #@! TO.C,D2*
D10*
X6031666Y-85955000D02*
X6031666Y-86355000D01*
X6031666Y-86155000D02*
X5331666Y-86155000D01*
X5431666Y-86221666D01*
X5498333Y-86288333D01*
X5531666Y-86355000D01*
X6031666Y-85655000D02*
X5331666Y-85655000D01*
X6031666Y-85255000D01*
X5331666Y-85255000D01*
X5565000Y-84621666D02*
X6031666Y-84621666D01*
X5298333Y-84788333D02*
X5798333Y-84955000D01*
X5798333Y-84521666D01*
X6031666Y-83888333D02*
X6031666Y-84288333D01*
X6031666Y-84088333D02*
X5331666Y-84088333D01*
X5431666Y-84155000D01*
X5498333Y-84221666D01*
X5531666Y-84288333D01*
X5565000Y-83288333D02*
X6031666Y-83288333D01*
X5298333Y-83455000D02*
X5798333Y-83621666D01*
X5798333Y-83188333D01*
X5631666Y-82821666D02*
X5598333Y-82888333D01*
X5565000Y-82921666D01*
X5498333Y-82955000D01*
X5465000Y-82955000D01*
X5398333Y-82921666D01*
X5365000Y-82888333D01*
X5331666Y-82821666D01*
X5331666Y-82688333D01*
X5365000Y-82621666D01*
X5398333Y-82588333D01*
X5465000Y-82555000D01*
X5498333Y-82555000D01*
X5565000Y-82588333D01*
X5598333Y-82621666D01*
X5631666Y-82688333D01*
X5631666Y-82821666D01*
X5665000Y-82888333D01*
X5698333Y-82921666D01*
X5765000Y-82955000D01*
X5898333Y-82955000D01*
X5965000Y-82921666D01*
X5998333Y-82888333D01*
X6031666Y-82821666D01*
X6031666Y-82688333D01*
X5998333Y-82621666D01*
X5965000Y-82588333D01*
X5898333Y-82555000D01*
X5765000Y-82555000D01*
X5698333Y-82588333D01*
X5665000Y-82621666D01*
X5631666Y-82688333D01*
G04 #@! TO.C,D1*
X6246666Y-18645000D02*
X6246666Y-19045000D01*
X6246666Y-18845000D02*
X5546666Y-18845000D01*
X5646666Y-18911666D01*
X5713333Y-18978333D01*
X5746666Y-19045000D01*
X6246666Y-18345000D02*
X5546666Y-18345000D01*
X6246666Y-17945000D01*
X5546666Y-17945000D01*
X5780000Y-17311666D02*
X6246666Y-17311666D01*
X5513333Y-17478333D02*
X6013333Y-17645000D01*
X6013333Y-17211666D01*
X6246666Y-16578333D02*
X6246666Y-16978333D01*
X6246666Y-16778333D02*
X5546666Y-16778333D01*
X5646666Y-16845000D01*
X5713333Y-16911666D01*
X5746666Y-16978333D01*
X5780000Y-15978333D02*
X6246666Y-15978333D01*
X5513333Y-16145000D02*
X6013333Y-16311666D01*
X6013333Y-15878333D01*
X5846666Y-15511666D02*
X5813333Y-15578333D01*
X5780000Y-15611666D01*
X5713333Y-15645000D01*
X5680000Y-15645000D01*
X5613333Y-15611666D01*
X5580000Y-15578333D01*
X5546666Y-15511666D01*
X5546666Y-15378333D01*
X5580000Y-15311666D01*
X5613333Y-15278333D01*
X5680000Y-15245000D01*
X5713333Y-15245000D01*
X5780000Y-15278333D01*
X5813333Y-15311666D01*
X5846666Y-15378333D01*
X5846666Y-15511666D01*
X5880000Y-15578333D01*
X5913333Y-15611666D01*
X5980000Y-15645000D01*
X6113333Y-15645000D01*
X6180000Y-15611666D01*
X6213333Y-15578333D01*
X6246666Y-15511666D01*
X6246666Y-15378333D01*
X6213333Y-15311666D01*
X6180000Y-15278333D01*
X6113333Y-15245000D01*
X5980000Y-15245000D01*
X5913333Y-15278333D01*
X5880000Y-15311666D01*
X5846666Y-15378333D01*
G04 #@! TD*
M02*
