G04 #@! TF.GenerationSoftware,KiCad,Pcbnew,(5.1.9)-1*
G04 #@! TF.CreationDate,2021-05-09T16:18:39+02:00*
G04 #@! TF.ProjectId,Slimline VCA Front,536c696d-6c69-46e6-9520-564341204672,rev?*
G04 #@! TF.SameCoordinates,Original*
G04 #@! TF.FileFunction,Legend,Top*
G04 #@! TF.FilePolarity,Positive*
%FSLAX46Y46*%
G04 Gerber Fmt 4.6, Leading zero omitted, Abs format (unit mm)*
G04 Created by KiCad (PCBNEW (5.1.9)-1) date 2021-05-09 16:18:39*
%MOMM*%
%LPD*%
G01*
G04 APERTURE LIST*
%ADD10C,0.010000*%
G04 APERTURE END LIST*
D10*
G04 #@! TO.C,G\u002A\u002A\u002A*
G36*
X440889Y-125774445D02*
G01*
X17556Y-125774445D01*
X17556Y-125238223D01*
X440889Y-125238223D01*
X440889Y-125774445D01*
G37*
X440889Y-125774445D02*
X17556Y-125774445D01*
X17556Y-125238223D01*
X440889Y-125238223D01*
X440889Y-125774445D01*
G36*
X9810667Y-125774445D02*
G01*
X4420222Y-125774445D01*
X4420222Y-125238223D01*
X9810667Y-125238223D01*
X9810667Y-125774445D01*
G37*
X9810667Y-125774445D02*
X4420222Y-125774445D01*
X4420222Y-125238223D01*
X9810667Y-125238223D01*
X9810667Y-125774445D01*
G36*
X8715976Y-99490436D02*
G01*
X8915705Y-99607631D01*
X9077605Y-99760420D01*
X9147566Y-99852334D01*
X9168017Y-99880661D01*
X9186905Y-99905362D01*
X9204290Y-99928671D01*
X9220231Y-99952825D01*
X9234788Y-99980060D01*
X9248020Y-100012610D01*
X9259985Y-100052713D01*
X9270745Y-100102603D01*
X9280358Y-100164516D01*
X9288883Y-100240689D01*
X9296380Y-100333358D01*
X9302909Y-100444757D01*
X9308528Y-100577122D01*
X9313297Y-100732691D01*
X9317276Y-100913697D01*
X9320524Y-101122378D01*
X9323100Y-101360968D01*
X9325064Y-101631704D01*
X9326474Y-101936821D01*
X9327392Y-102278556D01*
X9327875Y-102659144D01*
X9327983Y-103080820D01*
X9327777Y-103545821D01*
X9327314Y-104056383D01*
X9326655Y-104614741D01*
X9325858Y-105223130D01*
X9324984Y-105883788D01*
X9324208Y-106501416D01*
X9316778Y-112666421D01*
X9225057Y-112852726D01*
X9093015Y-113058596D01*
X8919451Y-113227540D01*
X8714943Y-113352140D01*
X8554778Y-113427223D01*
X5478556Y-113432731D01*
X4986208Y-113433528D01*
X4547150Y-113434035D01*
X4158231Y-113434216D01*
X3816297Y-113434035D01*
X3518194Y-113433458D01*
X3260770Y-113432448D01*
X3040872Y-113430970D01*
X2855347Y-113428989D01*
X2701041Y-113426470D01*
X2574802Y-113423377D01*
X2473477Y-113419674D01*
X2393913Y-113415327D01*
X2332956Y-113410300D01*
X2287455Y-113404557D01*
X2254254Y-113398063D01*
X2248040Y-113396463D01*
X2029073Y-113311258D01*
X1843860Y-113182298D01*
X1689532Y-113007220D01*
X1603492Y-112865810D01*
X1527444Y-112721667D01*
X1526977Y-112321138D01*
X3009550Y-112321138D01*
X3021381Y-112502720D01*
X3052619Y-112607236D01*
X3109162Y-112707778D01*
X3190849Y-112811732D01*
X3283358Y-112904015D01*
X3372365Y-112969547D01*
X3415023Y-112988840D01*
X3516095Y-113003644D01*
X3648898Y-113001405D01*
X3791943Y-112983886D01*
X3923742Y-112952854D01*
X3946919Y-112945160D01*
X4125025Y-112861807D01*
X4305551Y-112734937D01*
X4495158Y-112559747D01*
X4524231Y-112529563D01*
X5229068Y-112529563D01*
X5231758Y-112590088D01*
X5240342Y-112645775D01*
X5242769Y-112657507D01*
X5284393Y-112767526D01*
X5351914Y-112858871D01*
X5432970Y-112918090D01*
X5496233Y-112933334D01*
X5588553Y-112910880D01*
X5699714Y-112849285D01*
X5818528Y-112757201D01*
X5933804Y-112643277D01*
X6032633Y-112518670D01*
X6084313Y-112449989D01*
X6125978Y-112405916D01*
X6141404Y-112397111D01*
X6159364Y-112422348D01*
X6176885Y-112486570D01*
X6184197Y-112531167D01*
X6203157Y-112663854D01*
X6221013Y-112754520D01*
X6241828Y-112817351D01*
X6269667Y-112866533D01*
X6286889Y-112889675D01*
X6347184Y-112948140D01*
X6404920Y-112955926D01*
X6465684Y-112923187D01*
X6496949Y-112895688D01*
X6499182Y-112866818D01*
X6470407Y-112818031D01*
X6451658Y-112791430D01*
X6403950Y-112685682D01*
X6376269Y-112536424D01*
X6369072Y-112353089D01*
X6382818Y-112145112D01*
X6411193Y-111956614D01*
X6433950Y-111828663D01*
X6444646Y-111745194D01*
X6443718Y-111695647D01*
X6431602Y-111669462D01*
X6429349Y-111667679D01*
X6798649Y-111667679D01*
X6802915Y-111713207D01*
X6848013Y-111769091D01*
X6931354Y-111793265D01*
X7013807Y-111788023D01*
X7094983Y-111787092D01*
X7139634Y-111815413D01*
X7139702Y-111866951D01*
X7134332Y-111878274D01*
X7114377Y-111934350D01*
X7089362Y-112032031D01*
X7062235Y-112157048D01*
X7035942Y-112295132D01*
X7013430Y-112432014D01*
X7000943Y-112524111D01*
X6999972Y-112687370D01*
X7038119Y-112818483D01*
X7113431Y-112912270D01*
X7157778Y-112940345D01*
X7250409Y-112977830D01*
X7332532Y-112984782D01*
X7426066Y-112960600D01*
X7496444Y-112931050D01*
X7650854Y-112839277D01*
X7772158Y-112722773D01*
X7824506Y-112643549D01*
X7846994Y-112577869D01*
X7831469Y-112547725D01*
X7784033Y-112553443D01*
X7710788Y-112595346D01*
X7660660Y-112634833D01*
X7532953Y-112726653D01*
X7418698Y-112774999D01*
X7323230Y-112779842D01*
X7251882Y-112741156D01*
X7209991Y-112658913D01*
X7205606Y-112637170D01*
X7202928Y-112562620D01*
X7210771Y-112454293D01*
X7226896Y-112324650D01*
X7249064Y-112186149D01*
X7275037Y-112051250D01*
X7302578Y-111932413D01*
X7329447Y-111842097D01*
X7353406Y-111792762D01*
X7358033Y-111788665D01*
X7395034Y-111779011D01*
X7475260Y-111765140D01*
X7585844Y-111749115D01*
X7680748Y-111736950D01*
X7835004Y-111715625D01*
X7939639Y-111693760D01*
X8001428Y-111668453D01*
X8027144Y-111636802D01*
X8023561Y-111595904D01*
X8021726Y-111590862D01*
X8007806Y-111569574D01*
X7979014Y-111557121D01*
X7924840Y-111552550D01*
X7834778Y-111554910D01*
X7708927Y-111562537D01*
X7414564Y-111582255D01*
X7482301Y-111336053D01*
X7516649Y-111198481D01*
X7531046Y-111105218D01*
X7526572Y-111048194D01*
X7522248Y-111037926D01*
X7478062Y-110988784D01*
X7429778Y-110991827D01*
X7381021Y-111043325D01*
X7335412Y-111139550D01*
X7298476Y-111268223D01*
X7271400Y-111374727D01*
X7241203Y-111473974D01*
X7226184Y-111515167D01*
X7201864Y-111566786D01*
X7171623Y-111594220D01*
X7118673Y-111605166D01*
X7026228Y-111607318D01*
X7025162Y-111607321D01*
X6902234Y-111613329D01*
X6828750Y-111632485D01*
X6798649Y-111667679D01*
X6429349Y-111667679D01*
X6423344Y-111662928D01*
X6371587Y-111651616D01*
X6320847Y-111685911D01*
X6267969Y-111769302D01*
X6213940Y-111894403D01*
X6130492Y-112085039D01*
X6034382Y-112260330D01*
X5930389Y-112415370D01*
X5823290Y-112545250D01*
X5717863Y-112645065D01*
X5618887Y-112709908D01*
X5531139Y-112734872D01*
X5459398Y-112715050D01*
X5436063Y-112693253D01*
X5412721Y-112629316D01*
X5406872Y-112523228D01*
X5417276Y-112386082D01*
X5442691Y-112228973D01*
X5481875Y-112062993D01*
X5520884Y-111935432D01*
X5567408Y-111788215D01*
X5590012Y-111684566D01*
X5588298Y-111616745D01*
X5561869Y-111577009D01*
X5510328Y-111557619D01*
X5501426Y-111556138D01*
X5457355Y-111557790D01*
X5423031Y-111583440D01*
X5394038Y-111641411D01*
X5365962Y-111740023D01*
X5339749Y-111860889D01*
X5297659Y-112071382D01*
X5266567Y-112235110D01*
X5245452Y-112360459D01*
X5233292Y-112455815D01*
X5229068Y-112529563D01*
X4524231Y-112529563D01*
X4526521Y-112527186D01*
X4693617Y-112325874D01*
X4819357Y-112120190D01*
X4902445Y-111915847D01*
X4941582Y-111718557D01*
X4935474Y-111534033D01*
X4882823Y-111367988D01*
X4813867Y-111261256D01*
X4688996Y-111149386D01*
X4525710Y-111062594D01*
X4339025Y-111007750D01*
X4228630Y-110993467D01*
X4047259Y-110996100D01*
X3885633Y-111034247D01*
X3732181Y-111112915D01*
X3575328Y-111237110D01*
X3501849Y-111307878D01*
X3339900Y-111495542D01*
X3206684Y-111699411D01*
X3105213Y-111910774D01*
X3038498Y-112120920D01*
X3009550Y-112321138D01*
X1526977Y-112321138D01*
X1520142Y-106465108D01*
X1512839Y-100208549D01*
X1571523Y-100051702D01*
X1658236Y-99886132D01*
X1786130Y-99727476D01*
X1940647Y-99591540D01*
X2068144Y-99512531D01*
X2233000Y-99429000D01*
X8583000Y-99429000D01*
X8715976Y-99490436D01*
G37*
X8715976Y-99490436D02*
X8915705Y-99607631D01*
X9077605Y-99760420D01*
X9147566Y-99852334D01*
X9168017Y-99880661D01*
X9186905Y-99905362D01*
X9204290Y-99928671D01*
X9220231Y-99952825D01*
X9234788Y-99980060D01*
X9248020Y-100012610D01*
X9259985Y-100052713D01*
X9270745Y-100102603D01*
X9280358Y-100164516D01*
X9288883Y-100240689D01*
X9296380Y-100333358D01*
X9302909Y-100444757D01*
X9308528Y-100577122D01*
X9313297Y-100732691D01*
X9317276Y-100913697D01*
X9320524Y-101122378D01*
X9323100Y-101360968D01*
X9325064Y-101631704D01*
X9326474Y-101936821D01*
X9327392Y-102278556D01*
X9327875Y-102659144D01*
X9327983Y-103080820D01*
X9327777Y-103545821D01*
X9327314Y-104056383D01*
X9326655Y-104614741D01*
X9325858Y-105223130D01*
X9324984Y-105883788D01*
X9324208Y-106501416D01*
X9316778Y-112666421D01*
X9225057Y-112852726D01*
X9093015Y-113058596D01*
X8919451Y-113227540D01*
X8714943Y-113352140D01*
X8554778Y-113427223D01*
X5478556Y-113432731D01*
X4986208Y-113433528D01*
X4547150Y-113434035D01*
X4158231Y-113434216D01*
X3816297Y-113434035D01*
X3518194Y-113433458D01*
X3260770Y-113432448D01*
X3040872Y-113430970D01*
X2855347Y-113428989D01*
X2701041Y-113426470D01*
X2574802Y-113423377D01*
X2473477Y-113419674D01*
X2393913Y-113415327D01*
X2332956Y-113410300D01*
X2287455Y-113404557D01*
X2254254Y-113398063D01*
X2248040Y-113396463D01*
X2029073Y-113311258D01*
X1843860Y-113182298D01*
X1689532Y-113007220D01*
X1603492Y-112865810D01*
X1527444Y-112721667D01*
X1526977Y-112321138D01*
X3009550Y-112321138D01*
X3021381Y-112502720D01*
X3052619Y-112607236D01*
X3109162Y-112707778D01*
X3190849Y-112811732D01*
X3283358Y-112904015D01*
X3372365Y-112969547D01*
X3415023Y-112988840D01*
X3516095Y-113003644D01*
X3648898Y-113001405D01*
X3791943Y-112983886D01*
X3923742Y-112952854D01*
X3946919Y-112945160D01*
X4125025Y-112861807D01*
X4305551Y-112734937D01*
X4495158Y-112559747D01*
X4524231Y-112529563D01*
X5229068Y-112529563D01*
X5231758Y-112590088D01*
X5240342Y-112645775D01*
X5242769Y-112657507D01*
X5284393Y-112767526D01*
X5351914Y-112858871D01*
X5432970Y-112918090D01*
X5496233Y-112933334D01*
X5588553Y-112910880D01*
X5699714Y-112849285D01*
X5818528Y-112757201D01*
X5933804Y-112643277D01*
X6032633Y-112518670D01*
X6084313Y-112449989D01*
X6125978Y-112405916D01*
X6141404Y-112397111D01*
X6159364Y-112422348D01*
X6176885Y-112486570D01*
X6184197Y-112531167D01*
X6203157Y-112663854D01*
X6221013Y-112754520D01*
X6241828Y-112817351D01*
X6269667Y-112866533D01*
X6286889Y-112889675D01*
X6347184Y-112948140D01*
X6404920Y-112955926D01*
X6465684Y-112923187D01*
X6496949Y-112895688D01*
X6499182Y-112866818D01*
X6470407Y-112818031D01*
X6451658Y-112791430D01*
X6403950Y-112685682D01*
X6376269Y-112536424D01*
X6369072Y-112353089D01*
X6382818Y-112145112D01*
X6411193Y-111956614D01*
X6433950Y-111828663D01*
X6444646Y-111745194D01*
X6443718Y-111695647D01*
X6431602Y-111669462D01*
X6429349Y-111667679D01*
X6798649Y-111667679D01*
X6802915Y-111713207D01*
X6848013Y-111769091D01*
X6931354Y-111793265D01*
X7013807Y-111788023D01*
X7094983Y-111787092D01*
X7139634Y-111815413D01*
X7139702Y-111866951D01*
X7134332Y-111878274D01*
X7114377Y-111934350D01*
X7089362Y-112032031D01*
X7062235Y-112157048D01*
X7035942Y-112295132D01*
X7013430Y-112432014D01*
X7000943Y-112524111D01*
X6999972Y-112687370D01*
X7038119Y-112818483D01*
X7113431Y-112912270D01*
X7157778Y-112940345D01*
X7250409Y-112977830D01*
X7332532Y-112984782D01*
X7426066Y-112960600D01*
X7496444Y-112931050D01*
X7650854Y-112839277D01*
X7772158Y-112722773D01*
X7824506Y-112643549D01*
X7846994Y-112577869D01*
X7831469Y-112547725D01*
X7784033Y-112553443D01*
X7710788Y-112595346D01*
X7660660Y-112634833D01*
X7532953Y-112726653D01*
X7418698Y-112774999D01*
X7323230Y-112779842D01*
X7251882Y-112741156D01*
X7209991Y-112658913D01*
X7205606Y-112637170D01*
X7202928Y-112562620D01*
X7210771Y-112454293D01*
X7226896Y-112324650D01*
X7249064Y-112186149D01*
X7275037Y-112051250D01*
X7302578Y-111932413D01*
X7329447Y-111842097D01*
X7353406Y-111792762D01*
X7358033Y-111788665D01*
X7395034Y-111779011D01*
X7475260Y-111765140D01*
X7585844Y-111749115D01*
X7680748Y-111736950D01*
X7835004Y-111715625D01*
X7939639Y-111693760D01*
X8001428Y-111668453D01*
X8027144Y-111636802D01*
X8023561Y-111595904D01*
X8021726Y-111590862D01*
X8007806Y-111569574D01*
X7979014Y-111557121D01*
X7924840Y-111552550D01*
X7834778Y-111554910D01*
X7708927Y-111562537D01*
X7414564Y-111582255D01*
X7482301Y-111336053D01*
X7516649Y-111198481D01*
X7531046Y-111105218D01*
X7526572Y-111048194D01*
X7522248Y-111037926D01*
X7478062Y-110988784D01*
X7429778Y-110991827D01*
X7381021Y-111043325D01*
X7335412Y-111139550D01*
X7298476Y-111268223D01*
X7271400Y-111374727D01*
X7241203Y-111473974D01*
X7226184Y-111515167D01*
X7201864Y-111566786D01*
X7171623Y-111594220D01*
X7118673Y-111605166D01*
X7026228Y-111607318D01*
X7025162Y-111607321D01*
X6902234Y-111613329D01*
X6828750Y-111632485D01*
X6798649Y-111667679D01*
X6429349Y-111667679D01*
X6423344Y-111662928D01*
X6371587Y-111651616D01*
X6320847Y-111685911D01*
X6267969Y-111769302D01*
X6213940Y-111894403D01*
X6130492Y-112085039D01*
X6034382Y-112260330D01*
X5930389Y-112415370D01*
X5823290Y-112545250D01*
X5717863Y-112645065D01*
X5618887Y-112709908D01*
X5531139Y-112734872D01*
X5459398Y-112715050D01*
X5436063Y-112693253D01*
X5412721Y-112629316D01*
X5406872Y-112523228D01*
X5417276Y-112386082D01*
X5442691Y-112228973D01*
X5481875Y-112062993D01*
X5520884Y-111935432D01*
X5567408Y-111788215D01*
X5590012Y-111684566D01*
X5588298Y-111616745D01*
X5561869Y-111577009D01*
X5510328Y-111557619D01*
X5501426Y-111556138D01*
X5457355Y-111557790D01*
X5423031Y-111583440D01*
X5394038Y-111641411D01*
X5365962Y-111740023D01*
X5339749Y-111860889D01*
X5297659Y-112071382D01*
X5266567Y-112235110D01*
X5245452Y-112360459D01*
X5233292Y-112455815D01*
X5229068Y-112529563D01*
X4524231Y-112529563D01*
X4526521Y-112527186D01*
X4693617Y-112325874D01*
X4819357Y-112120190D01*
X4902445Y-111915847D01*
X4941582Y-111718557D01*
X4935474Y-111534033D01*
X4882823Y-111367988D01*
X4813867Y-111261256D01*
X4688996Y-111149386D01*
X4525710Y-111062594D01*
X4339025Y-111007750D01*
X4228630Y-110993467D01*
X4047259Y-110996100D01*
X3885633Y-111034247D01*
X3732181Y-111112915D01*
X3575328Y-111237110D01*
X3501849Y-111307878D01*
X3339900Y-111495542D01*
X3206684Y-111699411D01*
X3105213Y-111910774D01*
X3038498Y-112120920D01*
X3009550Y-112321138D01*
X1526977Y-112321138D01*
X1520142Y-106465108D01*
X1512839Y-100208549D01*
X1571523Y-100051702D01*
X1658236Y-99886132D01*
X1786130Y-99727476D01*
X1940647Y-99591540D01*
X2068144Y-99512531D01*
X2233000Y-99429000D01*
X8583000Y-99429000D01*
X8715976Y-99490436D01*
G36*
X5097410Y-68965018D02*
G01*
X5166228Y-68974915D01*
X5216842Y-68999071D01*
X5268360Y-69043753D01*
X5283822Y-69059067D01*
X5336292Y-69116074D01*
X5365089Y-69167456D01*
X5377242Y-69233698D01*
X5379777Y-69335283D01*
X5379778Y-69338780D01*
X5377574Y-69440874D01*
X5366777Y-69505140D01*
X5341107Y-69550150D01*
X5294288Y-69594472D01*
X5292946Y-69595603D01*
X5216759Y-69650767D01*
X5159341Y-69665921D01*
X5104392Y-69645280D01*
X5103370Y-69644635D01*
X5083598Y-69610536D01*
X5074292Y-69535570D01*
X5074639Y-69412629D01*
X5075147Y-69398123D01*
X5083444Y-69174778D01*
X5003379Y-69165611D01*
X4888822Y-69177981D01*
X4756566Y-69234139D01*
X4613697Y-69327164D01*
X4467301Y-69450132D01*
X4324465Y-69596121D01*
X4192273Y-69758207D01*
X4077813Y-69929467D01*
X3988170Y-70102980D01*
X3954062Y-70190778D01*
X3908910Y-70381912D01*
X3908248Y-70549413D01*
X3948545Y-70688730D01*
X4026267Y-70795312D01*
X4137883Y-70864608D01*
X4279858Y-70892067D01*
X4448661Y-70873138D01*
X4477847Y-70865521D01*
X4587411Y-70825995D01*
X4716637Y-70766622D01*
X4838829Y-70699749D01*
X4846733Y-70694918D01*
X4966115Y-70624301D01*
X5046753Y-70585593D01*
X5095603Y-70577577D01*
X5119622Y-70599032D01*
X5125778Y-70646057D01*
X5100089Y-70723770D01*
X5029468Y-70809186D01*
X4923588Y-70895704D01*
X4792120Y-70976725D01*
X4644733Y-71045648D01*
X4491100Y-71095871D01*
X4454111Y-71104465D01*
X4327236Y-71126946D01*
X4227949Y-71131263D01*
X4130525Y-71117802D01*
X4095667Y-71109833D01*
X3941026Y-71050386D01*
X3805173Y-70957197D01*
X3702294Y-70841644D01*
X3660018Y-70760441D01*
X3636558Y-70652134D01*
X3629607Y-70509489D01*
X3638324Y-70351880D01*
X3661867Y-70198683D01*
X3688776Y-70098248D01*
X3785248Y-69882037D01*
X3924853Y-69663434D01*
X4096377Y-69455282D01*
X4288602Y-69270423D01*
X4490315Y-69121701D01*
X4591212Y-69064910D01*
X4707200Y-69010610D01*
X4799348Y-68979667D01*
X4891917Y-68965908D01*
X4991281Y-68963111D01*
X5097410Y-68965018D01*
G37*
X5097410Y-68965018D02*
X5166228Y-68974915D01*
X5216842Y-68999071D01*
X5268360Y-69043753D01*
X5283822Y-69059067D01*
X5336292Y-69116074D01*
X5365089Y-69167456D01*
X5377242Y-69233698D01*
X5379777Y-69335283D01*
X5379778Y-69338780D01*
X5377574Y-69440874D01*
X5366777Y-69505140D01*
X5341107Y-69550150D01*
X5294288Y-69594472D01*
X5292946Y-69595603D01*
X5216759Y-69650767D01*
X5159341Y-69665921D01*
X5104392Y-69645280D01*
X5103370Y-69644635D01*
X5083598Y-69610536D01*
X5074292Y-69535570D01*
X5074639Y-69412629D01*
X5075147Y-69398123D01*
X5083444Y-69174778D01*
X5003379Y-69165611D01*
X4888822Y-69177981D01*
X4756566Y-69234139D01*
X4613697Y-69327164D01*
X4467301Y-69450132D01*
X4324465Y-69596121D01*
X4192273Y-69758207D01*
X4077813Y-69929467D01*
X3988170Y-70102980D01*
X3954062Y-70190778D01*
X3908910Y-70381912D01*
X3908248Y-70549413D01*
X3948545Y-70688730D01*
X4026267Y-70795312D01*
X4137883Y-70864608D01*
X4279858Y-70892067D01*
X4448661Y-70873138D01*
X4477847Y-70865521D01*
X4587411Y-70825995D01*
X4716637Y-70766622D01*
X4838829Y-70699749D01*
X4846733Y-70694918D01*
X4966115Y-70624301D01*
X5046753Y-70585593D01*
X5095603Y-70577577D01*
X5119622Y-70599032D01*
X5125778Y-70646057D01*
X5100089Y-70723770D01*
X5029468Y-70809186D01*
X4923588Y-70895704D01*
X4792120Y-70976725D01*
X4644733Y-71045648D01*
X4491100Y-71095871D01*
X4454111Y-71104465D01*
X4327236Y-71126946D01*
X4227949Y-71131263D01*
X4130525Y-71117802D01*
X4095667Y-71109833D01*
X3941026Y-71050386D01*
X3805173Y-70957197D01*
X3702294Y-70841644D01*
X3660018Y-70760441D01*
X3636558Y-70652134D01*
X3629607Y-70509489D01*
X3638324Y-70351880D01*
X3661867Y-70198683D01*
X3688776Y-70098248D01*
X3785248Y-69882037D01*
X3924853Y-69663434D01*
X4096377Y-69455282D01*
X4288602Y-69270423D01*
X4490315Y-69121701D01*
X4591212Y-69064910D01*
X4707200Y-69010610D01*
X4799348Y-68979667D01*
X4891917Y-68965908D01*
X4991281Y-68963111D01*
X5097410Y-68965018D01*
G36*
X7495063Y-69005006D02*
G01*
X7537064Y-69030931D01*
X7551249Y-69076909D01*
X7535985Y-69147961D01*
X7489637Y-69249107D01*
X7410572Y-69385368D01*
X7330353Y-69511284D01*
X7233738Y-69661155D01*
X7128017Y-69828396D01*
X7017774Y-70005428D01*
X6907592Y-70184670D01*
X6802054Y-70358542D01*
X6705745Y-70519463D01*
X6623248Y-70659852D01*
X6559146Y-70772130D01*
X6518022Y-70848716D01*
X6506502Y-70873804D01*
X6467945Y-70943344D01*
X6429946Y-70984858D01*
X6357317Y-71016681D01*
X6278633Y-71018846D01*
X6217033Y-70992462D01*
X6202242Y-70973945D01*
X6177173Y-70919409D01*
X6136904Y-70823164D01*
X6084438Y-70693078D01*
X6022775Y-70537015D01*
X5954915Y-70362845D01*
X5883861Y-70178432D01*
X5812613Y-69991645D01*
X5744173Y-69810349D01*
X5681540Y-69642413D01*
X5627718Y-69495702D01*
X5585706Y-69378083D01*
X5558505Y-69297424D01*
X5549111Y-69261877D01*
X5567389Y-69185295D01*
X5612241Y-69117617D01*
X5668696Y-69078960D01*
X5687448Y-69076000D01*
X5749993Y-69096761D01*
X5802384Y-69162065D01*
X5847452Y-69276446D01*
X5872577Y-69372334D01*
X5902475Y-69478906D01*
X5951207Y-69625767D01*
X6014550Y-69801682D01*
X6088283Y-69995418D01*
X6168182Y-70195744D01*
X6250025Y-70391425D01*
X6290986Y-70485435D01*
X6358939Y-70638980D01*
X6466448Y-70471324D01*
X6522259Y-70381151D01*
X6596066Y-70257495D01*
X6678503Y-70116245D01*
X6760207Y-69973288D01*
X6764882Y-69965000D01*
X6886260Y-69753894D01*
X7003389Y-69558078D01*
X7112282Y-69383682D01*
X7208947Y-69236836D01*
X7289396Y-69123669D01*
X7349637Y-69050312D01*
X7375118Y-69027492D01*
X7446672Y-69001984D01*
X7495063Y-69005006D01*
G37*
X7495063Y-69005006D02*
X7537064Y-69030931D01*
X7551249Y-69076909D01*
X7535985Y-69147961D01*
X7489637Y-69249107D01*
X7410572Y-69385368D01*
X7330353Y-69511284D01*
X7233738Y-69661155D01*
X7128017Y-69828396D01*
X7017774Y-70005428D01*
X6907592Y-70184670D01*
X6802054Y-70358542D01*
X6705745Y-70519463D01*
X6623248Y-70659852D01*
X6559146Y-70772130D01*
X6518022Y-70848716D01*
X6506502Y-70873804D01*
X6467945Y-70943344D01*
X6429946Y-70984858D01*
X6357317Y-71016681D01*
X6278633Y-71018846D01*
X6217033Y-70992462D01*
X6202242Y-70973945D01*
X6177173Y-70919409D01*
X6136904Y-70823164D01*
X6084438Y-70693078D01*
X6022775Y-70537015D01*
X5954915Y-70362845D01*
X5883861Y-70178432D01*
X5812613Y-69991645D01*
X5744173Y-69810349D01*
X5681540Y-69642413D01*
X5627718Y-69495702D01*
X5585706Y-69378083D01*
X5558505Y-69297424D01*
X5549111Y-69261877D01*
X5567389Y-69185295D01*
X5612241Y-69117617D01*
X5668696Y-69078960D01*
X5687448Y-69076000D01*
X5749993Y-69096761D01*
X5802384Y-69162065D01*
X5847452Y-69276446D01*
X5872577Y-69372334D01*
X5902475Y-69478906D01*
X5951207Y-69625767D01*
X6014550Y-69801682D01*
X6088283Y-69995418D01*
X6168182Y-70195744D01*
X6250025Y-70391425D01*
X6290986Y-70485435D01*
X6358939Y-70638980D01*
X6466448Y-70471324D01*
X6522259Y-70381151D01*
X6596066Y-70257495D01*
X6678503Y-70116245D01*
X6760207Y-69973288D01*
X6764882Y-69965000D01*
X6886260Y-69753894D01*
X7003389Y-69558078D01*
X7112282Y-69383682D01*
X7208947Y-69236836D01*
X7289396Y-69123669D01*
X7349637Y-69050312D01*
X7375118Y-69027492D01*
X7446672Y-69001984D01*
X7495063Y-69005006D01*
G36*
X4687765Y-27145116D02*
G01*
X4746293Y-27175548D01*
X4775988Y-27250190D01*
X4777096Y-27370613D01*
X4749858Y-27538391D01*
X4749142Y-27541709D01*
X4694168Y-27809583D01*
X4654516Y-28040145D01*
X4628136Y-28249789D01*
X4612976Y-28454906D01*
X4606987Y-28671891D01*
X4606929Y-28678604D01*
X4603653Y-28857898D01*
X4595745Y-28988259D01*
X4581014Y-29077147D01*
X4557266Y-29132022D01*
X4522310Y-29160342D01*
X4473951Y-29169568D01*
X4462556Y-29169778D01*
X4394178Y-29149966D01*
X4360178Y-29123060D01*
X4334063Y-29064918D01*
X4319996Y-28966437D01*
X4318137Y-28825438D01*
X4328645Y-28639737D01*
X4351680Y-28407152D01*
X4387402Y-28125503D01*
X4435970Y-27792608D01*
X4476066Y-27538015D01*
X4505812Y-27374861D01*
X4536251Y-27260954D01*
X4571214Y-27189184D01*
X4614530Y-27152441D01*
X4670033Y-27143615D01*
X4687765Y-27145116D01*
G37*
X4687765Y-27145116D02*
X4746293Y-27175548D01*
X4775988Y-27250190D01*
X4777096Y-27370613D01*
X4749858Y-27538391D01*
X4749142Y-27541709D01*
X4694168Y-27809583D01*
X4654516Y-28040145D01*
X4628136Y-28249789D01*
X4612976Y-28454906D01*
X4606987Y-28671891D01*
X4606929Y-28678604D01*
X4603653Y-28857898D01*
X4595745Y-28988259D01*
X4581014Y-29077147D01*
X4557266Y-29132022D01*
X4522310Y-29160342D01*
X4473951Y-29169568D01*
X4462556Y-29169778D01*
X4394178Y-29149966D01*
X4360178Y-29123060D01*
X4334063Y-29064918D01*
X4319996Y-28966437D01*
X4318137Y-28825438D01*
X4328645Y-28639737D01*
X4351680Y-28407152D01*
X4387402Y-28125503D01*
X4435970Y-27792608D01*
X4476066Y-27538015D01*
X4505812Y-27374861D01*
X4536251Y-27260954D01*
X4571214Y-27189184D01*
X4614530Y-27152441D01*
X4670033Y-27143615D01*
X4687765Y-27145116D01*
G36*
X5326162Y-27763455D02*
G01*
X5382436Y-27798745D01*
X5414093Y-27884166D01*
X5421121Y-28019053D01*
X5403510Y-28202738D01*
X5361247Y-28434555D01*
X5338858Y-28534545D01*
X5319081Y-28623882D01*
X5307093Y-28687400D01*
X5305322Y-28709619D01*
X5320953Y-28688886D01*
X5359950Y-28627820D01*
X5417133Y-28534781D01*
X5487322Y-28418130D01*
X5520744Y-28361895D01*
X5630547Y-28182198D01*
X5722014Y-28047637D01*
X5801020Y-27952363D01*
X5873444Y-27890524D01*
X5945163Y-27856271D01*
X6022052Y-27843754D01*
X6041674Y-27843334D01*
X6129117Y-27847218D01*
X6197566Y-27856928D01*
X6211227Y-27860926D01*
X6268946Y-27911766D01*
X6321170Y-28016578D01*
X6367053Y-28173080D01*
X6405748Y-28378990D01*
X6407294Y-28389293D01*
X6432445Y-28549622D01*
X6455245Y-28662255D01*
X6480038Y-28735540D01*
X6511171Y-28777827D01*
X6552987Y-28797465D01*
X6609833Y-28802803D01*
X6622548Y-28802889D01*
X6694967Y-28806917D01*
X6726983Y-28825466D01*
X6734433Y-28868230D01*
X6734444Y-28871396D01*
X6708806Y-28951849D01*
X6639875Y-29013095D01*
X6539630Y-29047384D01*
X6456631Y-29051156D01*
X6369998Y-29036877D01*
X6305474Y-29001933D01*
X6258105Y-28938307D01*
X6222940Y-28837981D01*
X6195027Y-28692940D01*
X6183186Y-28608439D01*
X6155007Y-28417159D01*
X6126283Y-28276977D01*
X6095449Y-28182559D01*
X6060936Y-28128568D01*
X6037816Y-28113361D01*
X5984806Y-28122668D01*
X5913802Y-28182049D01*
X5826947Y-28288847D01*
X5726381Y-28440406D01*
X5614246Y-28634067D01*
X5605777Y-28649574D01*
X5531480Y-28781618D01*
X5459307Y-28901932D01*
X5396858Y-28998353D01*
X5351733Y-29058715D01*
X5346893Y-29063945D01*
X5260013Y-29124749D01*
X5171120Y-29138831D01*
X5093303Y-29104525D01*
X5085460Y-29097207D01*
X5060089Y-29064581D01*
X5046692Y-29022229D01*
X5045218Y-28959308D01*
X5055614Y-28864978D01*
X5077829Y-28728397D01*
X5083532Y-28695921D01*
X5103570Y-28562008D01*
X5122776Y-28398141D01*
X5138220Y-28230772D01*
X5143665Y-28153208D01*
X5157348Y-27989677D01*
X5177397Y-27875617D01*
X5207037Y-27804142D01*
X5249491Y-27768366D01*
X5307985Y-27761403D01*
X5326162Y-27763455D01*
G37*
X5326162Y-27763455D02*
X5382436Y-27798745D01*
X5414093Y-27884166D01*
X5421121Y-28019053D01*
X5403510Y-28202738D01*
X5361247Y-28434555D01*
X5338858Y-28534545D01*
X5319081Y-28623882D01*
X5307093Y-28687400D01*
X5305322Y-28709619D01*
X5320953Y-28688886D01*
X5359950Y-28627820D01*
X5417133Y-28534781D01*
X5487322Y-28418130D01*
X5520744Y-28361895D01*
X5630547Y-28182198D01*
X5722014Y-28047637D01*
X5801020Y-27952363D01*
X5873444Y-27890524D01*
X5945163Y-27856271D01*
X6022052Y-27843754D01*
X6041674Y-27843334D01*
X6129117Y-27847218D01*
X6197566Y-27856928D01*
X6211227Y-27860926D01*
X6268946Y-27911766D01*
X6321170Y-28016578D01*
X6367053Y-28173080D01*
X6405748Y-28378990D01*
X6407294Y-28389293D01*
X6432445Y-28549622D01*
X6455245Y-28662255D01*
X6480038Y-28735540D01*
X6511171Y-28777827D01*
X6552987Y-28797465D01*
X6609833Y-28802803D01*
X6622548Y-28802889D01*
X6694967Y-28806917D01*
X6726983Y-28825466D01*
X6734433Y-28868230D01*
X6734444Y-28871396D01*
X6708806Y-28951849D01*
X6639875Y-29013095D01*
X6539630Y-29047384D01*
X6456631Y-29051156D01*
X6369998Y-29036877D01*
X6305474Y-29001933D01*
X6258105Y-28938307D01*
X6222940Y-28837981D01*
X6195027Y-28692940D01*
X6183186Y-28608439D01*
X6155007Y-28417159D01*
X6126283Y-28276977D01*
X6095449Y-28182559D01*
X6060936Y-28128568D01*
X6037816Y-28113361D01*
X5984806Y-28122668D01*
X5913802Y-28182049D01*
X5826947Y-28288847D01*
X5726381Y-28440406D01*
X5614246Y-28634067D01*
X5605777Y-28649574D01*
X5531480Y-28781618D01*
X5459307Y-28901932D01*
X5396858Y-28998353D01*
X5351733Y-29058715D01*
X5346893Y-29063945D01*
X5260013Y-29124749D01*
X5171120Y-29138831D01*
X5093303Y-29104525D01*
X5085460Y-29097207D01*
X5060089Y-29064581D01*
X5046692Y-29022229D01*
X5045218Y-28959308D01*
X5055614Y-28864978D01*
X5077829Y-28728397D01*
X5083532Y-28695921D01*
X5103570Y-28562008D01*
X5122776Y-28398141D01*
X5138220Y-28230772D01*
X5143665Y-28153208D01*
X5157348Y-27989677D01*
X5177397Y-27875617D01*
X5207037Y-27804142D01*
X5249491Y-27768366D01*
X5307985Y-27761403D01*
X5326162Y-27763455D01*
G36*
X5746051Y-6941632D02*
G01*
X5904451Y-6983848D01*
X6032646Y-7067087D01*
X6102181Y-7143413D01*
X6147874Y-7212405D01*
X6174647Y-7283333D01*
X6188752Y-7377248D01*
X6193635Y-7451433D01*
X6189235Y-7631352D01*
X6154034Y-7768664D01*
X6085821Y-7869432D01*
X6023532Y-7917721D01*
X5920173Y-7962857D01*
X5825777Y-7972207D01*
X5755922Y-7944434D01*
X5752311Y-7941022D01*
X5724670Y-7876577D01*
X5724429Y-7765187D01*
X5751612Y-7605767D01*
X5759938Y-7569708D01*
X5781503Y-7421272D01*
X5765165Y-7314637D01*
X5710762Y-7249628D01*
X5618129Y-7226074D01*
X5487105Y-7243802D01*
X5459455Y-7251356D01*
X5263588Y-7331940D01*
X5058582Y-7458752D01*
X4851861Y-7624058D01*
X4650845Y-7820127D01*
X4462958Y-8039225D01*
X4295622Y-8273620D01*
X4156259Y-8515579D01*
X4076689Y-8691945D01*
X4031917Y-8812972D01*
X4004590Y-8913496D01*
X3990421Y-9016842D01*
X3985124Y-9146339D01*
X3984629Y-9192862D01*
X3984833Y-9321266D01*
X3989744Y-9408898D01*
X4002669Y-9471412D01*
X4026916Y-9524464D01*
X4065794Y-9583708D01*
X4067835Y-9586620D01*
X4191778Y-9718260D01*
X4344050Y-9802862D01*
X4522022Y-9840581D01*
X4723063Y-9831576D01*
X4944542Y-9776003D01*
X5183830Y-9674018D01*
X5438296Y-9525780D01*
X5472894Y-9502755D01*
X5598497Y-9422544D01*
X5687518Y-9378506D01*
X5746143Y-9369980D01*
X5780557Y-9396301D01*
X5796945Y-9456807D01*
X5798144Y-9467877D01*
X5798176Y-9521407D01*
X5781106Y-9568961D01*
X5738706Y-9624011D01*
X5662749Y-9700032D01*
X5647620Y-9714391D01*
X5496318Y-9834787D01*
X5308476Y-9949805D01*
X5103770Y-10048990D01*
X4901875Y-10121885D01*
X4858793Y-10133609D01*
X4657028Y-10167316D01*
X4449337Y-10171611D01*
X4257563Y-10146809D01*
X4174684Y-10123670D01*
X3959212Y-10023394D01*
X3786158Y-9886363D01*
X3656173Y-9713158D01*
X3612250Y-9624370D01*
X3583792Y-9518409D01*
X3567979Y-9373871D01*
X3564780Y-9207181D01*
X3574163Y-9034764D01*
X3596096Y-8873044D01*
X3613835Y-8793334D01*
X3722078Y-8489088D01*
X3885107Y-8185573D01*
X4101294Y-7885314D01*
X4369008Y-7590836D01*
X4424289Y-7536968D01*
X4664625Y-7324512D01*
X4891585Y-7161675D01*
X5111399Y-7045141D01*
X5330299Y-6971600D01*
X5550858Y-6937983D01*
X5746051Y-6941632D01*
G37*
X5746051Y-6941632D02*
X5904451Y-6983848D01*
X6032646Y-7067087D01*
X6102181Y-7143413D01*
X6147874Y-7212405D01*
X6174647Y-7283333D01*
X6188752Y-7377248D01*
X6193635Y-7451433D01*
X6189235Y-7631352D01*
X6154034Y-7768664D01*
X6085821Y-7869432D01*
X6023532Y-7917721D01*
X5920173Y-7962857D01*
X5825777Y-7972207D01*
X5755922Y-7944434D01*
X5752311Y-7941022D01*
X5724670Y-7876577D01*
X5724429Y-7765187D01*
X5751612Y-7605767D01*
X5759938Y-7569708D01*
X5781503Y-7421272D01*
X5765165Y-7314637D01*
X5710762Y-7249628D01*
X5618129Y-7226074D01*
X5487105Y-7243802D01*
X5459455Y-7251356D01*
X5263588Y-7331940D01*
X5058582Y-7458752D01*
X4851861Y-7624058D01*
X4650845Y-7820127D01*
X4462958Y-8039225D01*
X4295622Y-8273620D01*
X4156259Y-8515579D01*
X4076689Y-8691945D01*
X4031917Y-8812972D01*
X4004590Y-8913496D01*
X3990421Y-9016842D01*
X3985124Y-9146339D01*
X3984629Y-9192862D01*
X3984833Y-9321266D01*
X3989744Y-9408898D01*
X4002669Y-9471412D01*
X4026916Y-9524464D01*
X4065794Y-9583708D01*
X4067835Y-9586620D01*
X4191778Y-9718260D01*
X4344050Y-9802862D01*
X4522022Y-9840581D01*
X4723063Y-9831576D01*
X4944542Y-9776003D01*
X5183830Y-9674018D01*
X5438296Y-9525780D01*
X5472894Y-9502755D01*
X5598497Y-9422544D01*
X5687518Y-9378506D01*
X5746143Y-9369980D01*
X5780557Y-9396301D01*
X5796945Y-9456807D01*
X5798144Y-9467877D01*
X5798176Y-9521407D01*
X5781106Y-9568961D01*
X5738706Y-9624011D01*
X5662749Y-9700032D01*
X5647620Y-9714391D01*
X5496318Y-9834787D01*
X5308476Y-9949805D01*
X5103770Y-10048990D01*
X4901875Y-10121885D01*
X4858793Y-10133609D01*
X4657028Y-10167316D01*
X4449337Y-10171611D01*
X4257563Y-10146809D01*
X4174684Y-10123670D01*
X3959212Y-10023394D01*
X3786158Y-9886363D01*
X3656173Y-9713158D01*
X3612250Y-9624370D01*
X3583792Y-9518409D01*
X3567979Y-9373871D01*
X3564780Y-9207181D01*
X3574163Y-9034764D01*
X3596096Y-8873044D01*
X3613835Y-8793334D01*
X3722078Y-8489088D01*
X3885107Y-8185573D01*
X4101294Y-7885314D01*
X4369008Y-7590836D01*
X4424289Y-7536968D01*
X4664625Y-7324512D01*
X4891585Y-7161675D01*
X5111399Y-7045141D01*
X5330299Y-6971600D01*
X5550858Y-6937983D01*
X5746051Y-6941632D01*
G36*
X8007297Y-7082226D02*
G01*
X8097897Y-7109588D01*
X8149006Y-7155386D01*
X8170834Y-7233437D01*
X8174155Y-7308067D01*
X8186794Y-7425854D01*
X8220975Y-7571423D01*
X8255322Y-7678556D01*
X8365051Y-7984227D01*
X8458763Y-8242646D01*
X8538907Y-8459900D01*
X8607934Y-8642073D01*
X8668297Y-8795252D01*
X8722445Y-8925522D01*
X8772830Y-9038970D01*
X8821902Y-9141680D01*
X8872114Y-9239738D01*
X8919409Y-9327414D01*
X8996763Y-9453605D01*
X9090281Y-9585520D01*
X9180124Y-9695237D01*
X9182722Y-9698075D01*
X9260350Y-9786563D01*
X9305311Y-9851991D01*
X9326019Y-9910013D01*
X9330889Y-9973783D01*
X9309817Y-10079795D01*
X9247499Y-10147465D01*
X9145287Y-10175488D01*
X9121595Y-10176223D01*
X9063009Y-10164830D01*
X8998422Y-10125367D01*
X8915712Y-10049905D01*
X8892738Y-10026505D01*
X8813365Y-9933732D01*
X8731341Y-9814477D01*
X8640936Y-9659688D01*
X8544449Y-9476172D01*
X8474301Y-9340300D01*
X8412047Y-9224175D01*
X8362430Y-9136297D01*
X8330193Y-9085165D01*
X8320976Y-9075646D01*
X8259206Y-9082001D01*
X8155221Y-9099033D01*
X8021671Y-9124180D01*
X7871211Y-9154878D01*
X7716494Y-9188567D01*
X7570172Y-9222683D01*
X7469531Y-9248068D01*
X7322979Y-9285188D01*
X7219624Y-9306887D01*
X7148805Y-9314624D01*
X7099858Y-9309859D01*
X7076978Y-9301801D01*
X7049675Y-9288386D01*
X7028477Y-9281676D01*
X7007934Y-9288000D01*
X6982593Y-9313685D01*
X6947001Y-9365060D01*
X6895706Y-9448451D01*
X6823256Y-9570187D01*
X6773408Y-9654111D01*
X6676972Y-9813354D01*
X6601661Y-9929410D01*
X6541785Y-10008762D01*
X6491658Y-10057893D01*
X6445590Y-10083285D01*
X6397894Y-10091422D01*
X6389575Y-10091556D01*
X6313797Y-10071415D01*
X6239482Y-10021573D01*
X6185615Y-9957900D01*
X6170000Y-9907993D01*
X6177569Y-9864120D01*
X6202616Y-9803171D01*
X6248653Y-9719047D01*
X6319190Y-9605646D01*
X6417738Y-9456870D01*
X6494802Y-9343667D01*
X6711348Y-9015787D01*
X6774978Y-8913132D01*
X7210885Y-8913132D01*
X7346609Y-8893984D01*
X7427028Y-8881211D01*
X7546916Y-8860404D01*
X7690350Y-8834397D01*
X7841409Y-8806024D01*
X7847965Y-8804768D01*
X7983972Y-8778250D01*
X8098268Y-8755101D01*
X8180329Y-8737519D01*
X8219631Y-8727700D01*
X8221462Y-8726834D01*
X8216554Y-8697927D01*
X8195904Y-8626074D01*
X8162935Y-8521268D01*
X8121070Y-8393501D01*
X8073731Y-8252765D01*
X8024341Y-8109054D01*
X7976322Y-7972360D01*
X7933097Y-7852675D01*
X7898088Y-7759993D01*
X7874717Y-7704305D01*
X7867260Y-7692667D01*
X7847294Y-7716257D01*
X7808664Y-7779975D01*
X7757506Y-7873243D01*
X7715870Y-7953723D01*
X7649496Y-8083436D01*
X7566932Y-8242468D01*
X7478798Y-8410467D01*
X7397387Y-8563955D01*
X7210885Y-8913132D01*
X6774978Y-8913132D01*
X6931996Y-8659818D01*
X7142075Y-8300045D01*
X7305391Y-8001785D01*
X7442431Y-7747969D01*
X7565311Y-7532331D01*
X7671972Y-7358231D01*
X7760352Y-7229026D01*
X7828388Y-7148074D01*
X7831002Y-7145559D01*
X7897007Y-7092606D01*
X7955437Y-7076325D01*
X8007297Y-7082226D01*
G37*
X8007297Y-7082226D02*
X8097897Y-7109588D01*
X8149006Y-7155386D01*
X8170834Y-7233437D01*
X8174155Y-7308067D01*
X8186794Y-7425854D01*
X8220975Y-7571423D01*
X8255322Y-7678556D01*
X8365051Y-7984227D01*
X8458763Y-8242646D01*
X8538907Y-8459900D01*
X8607934Y-8642073D01*
X8668297Y-8795252D01*
X8722445Y-8925522D01*
X8772830Y-9038970D01*
X8821902Y-9141680D01*
X8872114Y-9239738D01*
X8919409Y-9327414D01*
X8996763Y-9453605D01*
X9090281Y-9585520D01*
X9180124Y-9695237D01*
X9182722Y-9698075D01*
X9260350Y-9786563D01*
X9305311Y-9851991D01*
X9326019Y-9910013D01*
X9330889Y-9973783D01*
X9309817Y-10079795D01*
X9247499Y-10147465D01*
X9145287Y-10175488D01*
X9121595Y-10176223D01*
X9063009Y-10164830D01*
X8998422Y-10125367D01*
X8915712Y-10049905D01*
X8892738Y-10026505D01*
X8813365Y-9933732D01*
X8731341Y-9814477D01*
X8640936Y-9659688D01*
X8544449Y-9476172D01*
X8474301Y-9340300D01*
X8412047Y-9224175D01*
X8362430Y-9136297D01*
X8330193Y-9085165D01*
X8320976Y-9075646D01*
X8259206Y-9082001D01*
X8155221Y-9099033D01*
X8021671Y-9124180D01*
X7871211Y-9154878D01*
X7716494Y-9188567D01*
X7570172Y-9222683D01*
X7469531Y-9248068D01*
X7322979Y-9285188D01*
X7219624Y-9306887D01*
X7148805Y-9314624D01*
X7099858Y-9309859D01*
X7076978Y-9301801D01*
X7049675Y-9288386D01*
X7028477Y-9281676D01*
X7007934Y-9288000D01*
X6982593Y-9313685D01*
X6947001Y-9365060D01*
X6895706Y-9448451D01*
X6823256Y-9570187D01*
X6773408Y-9654111D01*
X6676972Y-9813354D01*
X6601661Y-9929410D01*
X6541785Y-10008762D01*
X6491658Y-10057893D01*
X6445590Y-10083285D01*
X6397894Y-10091422D01*
X6389575Y-10091556D01*
X6313797Y-10071415D01*
X6239482Y-10021573D01*
X6185615Y-9957900D01*
X6170000Y-9907993D01*
X6177569Y-9864120D01*
X6202616Y-9803171D01*
X6248653Y-9719047D01*
X6319190Y-9605646D01*
X6417738Y-9456870D01*
X6494802Y-9343667D01*
X6711348Y-9015787D01*
X6774978Y-8913132D01*
X7210885Y-8913132D01*
X7346609Y-8893984D01*
X7427028Y-8881211D01*
X7546916Y-8860404D01*
X7690350Y-8834397D01*
X7841409Y-8806024D01*
X7847965Y-8804768D01*
X7983972Y-8778250D01*
X8098268Y-8755101D01*
X8180329Y-8737519D01*
X8219631Y-8727700D01*
X8221462Y-8726834D01*
X8216554Y-8697927D01*
X8195904Y-8626074D01*
X8162935Y-8521268D01*
X8121070Y-8393501D01*
X8073731Y-8252765D01*
X8024341Y-8109054D01*
X7976322Y-7972360D01*
X7933097Y-7852675D01*
X7898088Y-7759993D01*
X7874717Y-7704305D01*
X7867260Y-7692667D01*
X7847294Y-7716257D01*
X7808664Y-7779975D01*
X7757506Y-7873243D01*
X7715870Y-7953723D01*
X7649496Y-8083436D01*
X7566932Y-8242468D01*
X7478798Y-8410467D01*
X7397387Y-8563955D01*
X7210885Y-8913132D01*
X6774978Y-8913132D01*
X6931996Y-8659818D01*
X7142075Y-8300045D01*
X7305391Y-8001785D01*
X7442431Y-7747969D01*
X7565311Y-7532331D01*
X7671972Y-7358231D01*
X7760352Y-7229026D01*
X7828388Y-7148074D01*
X7831002Y-7145559D01*
X7897007Y-7092606D01*
X7955437Y-7076325D01*
X8007297Y-7082226D01*
G36*
X3595312Y-7038011D02*
G01*
X3646577Y-7102466D01*
X3658222Y-7172754D01*
X3643145Y-7210649D01*
X3601221Y-7286904D01*
X3537409Y-7393253D01*
X3456669Y-7521427D01*
X3365100Y-7661443D01*
X3246225Y-7842805D01*
X3113290Y-8050314D01*
X2971240Y-8275849D01*
X2825021Y-8511289D01*
X2679578Y-8748511D01*
X2539858Y-8979396D01*
X2410805Y-9195822D01*
X2297367Y-9389668D01*
X2204487Y-9552812D01*
X2137112Y-9677133D01*
X2134425Y-9682334D01*
X2064794Y-9810762D01*
X2008039Y-9897460D01*
X1956126Y-9953126D01*
X1906621Y-9985679D01*
X1792629Y-10028329D01*
X1706261Y-10024438D01*
X1642846Y-9973759D01*
X1641319Y-9971611D01*
X1610591Y-9916024D01*
X1568399Y-9824564D01*
X1522541Y-9714415D01*
X1510018Y-9682334D01*
X1479852Y-9604286D01*
X1432038Y-9481162D01*
X1369493Y-9320450D01*
X1295137Y-9129636D01*
X1211886Y-8916210D01*
X1122659Y-8687658D01*
X1030374Y-8451468D01*
X1027848Y-8445007D01*
X922273Y-8174313D01*
X836171Y-7950833D01*
X768277Y-7769285D01*
X717328Y-7624385D01*
X682062Y-7510851D01*
X661214Y-7423399D01*
X653522Y-7356746D01*
X657721Y-7305610D01*
X672549Y-7264708D01*
X696742Y-7228755D01*
X728465Y-7193079D01*
X808205Y-7140994D01*
X896671Y-7132229D01*
X974634Y-7167790D01*
X986634Y-7179597D01*
X1012582Y-7227651D01*
X1045806Y-7316683D01*
X1081418Y-7432553D01*
X1105454Y-7523289D01*
X1146469Y-7673010D01*
X1201065Y-7850255D01*
X1261376Y-8030334D01*
X1307107Y-8156303D01*
X1349734Y-8266184D01*
X1404711Y-8404308D01*
X1468325Y-8561723D01*
X1536868Y-8729473D01*
X1606628Y-8898604D01*
X1673895Y-9060161D01*
X1734958Y-9205191D01*
X1786108Y-9324738D01*
X1823633Y-9409849D01*
X1843823Y-9451568D01*
X1843851Y-9451615D01*
X1863153Y-9437970D01*
X1906596Y-9380960D01*
X1970595Y-9286386D01*
X2051569Y-9160049D01*
X2145932Y-9007749D01*
X2250100Y-8835287D01*
X2360490Y-8648465D01*
X2473518Y-8453083D01*
X2585600Y-8254942D01*
X2607985Y-8214778D01*
X2776131Y-7917032D01*
X2923095Y-7667610D01*
X3051143Y-7463492D01*
X3162539Y-7301658D01*
X3259551Y-7179089D01*
X3344442Y-7092766D01*
X3419480Y-7039667D01*
X3486928Y-7016774D01*
X3507883Y-7015334D01*
X3595312Y-7038011D01*
G37*
X3595312Y-7038011D02*
X3646577Y-7102466D01*
X3658222Y-7172754D01*
X3643145Y-7210649D01*
X3601221Y-7286904D01*
X3537409Y-7393253D01*
X3456669Y-7521427D01*
X3365100Y-7661443D01*
X3246225Y-7842805D01*
X3113290Y-8050314D01*
X2971240Y-8275849D01*
X2825021Y-8511289D01*
X2679578Y-8748511D01*
X2539858Y-8979396D01*
X2410805Y-9195822D01*
X2297367Y-9389668D01*
X2204487Y-9552812D01*
X2137112Y-9677133D01*
X2134425Y-9682334D01*
X2064794Y-9810762D01*
X2008039Y-9897460D01*
X1956126Y-9953126D01*
X1906621Y-9985679D01*
X1792629Y-10028329D01*
X1706261Y-10024438D01*
X1642846Y-9973759D01*
X1641319Y-9971611D01*
X1610591Y-9916024D01*
X1568399Y-9824564D01*
X1522541Y-9714415D01*
X1510018Y-9682334D01*
X1479852Y-9604286D01*
X1432038Y-9481162D01*
X1369493Y-9320450D01*
X1295137Y-9129636D01*
X1211886Y-8916210D01*
X1122659Y-8687658D01*
X1030374Y-8451468D01*
X1027848Y-8445007D01*
X922273Y-8174313D01*
X836171Y-7950833D01*
X768277Y-7769285D01*
X717328Y-7624385D01*
X682062Y-7510851D01*
X661214Y-7423399D01*
X653522Y-7356746D01*
X657721Y-7305610D01*
X672549Y-7264708D01*
X696742Y-7228755D01*
X728465Y-7193079D01*
X808205Y-7140994D01*
X896671Y-7132229D01*
X974634Y-7167790D01*
X986634Y-7179597D01*
X1012582Y-7227651D01*
X1045806Y-7316683D01*
X1081418Y-7432553D01*
X1105454Y-7523289D01*
X1146469Y-7673010D01*
X1201065Y-7850255D01*
X1261376Y-8030334D01*
X1307107Y-8156303D01*
X1349734Y-8266184D01*
X1404711Y-8404308D01*
X1468325Y-8561723D01*
X1536868Y-8729473D01*
X1606628Y-8898604D01*
X1673895Y-9060161D01*
X1734958Y-9205191D01*
X1786108Y-9324738D01*
X1823633Y-9409849D01*
X1843823Y-9451568D01*
X1843851Y-9451615D01*
X1863153Y-9437970D01*
X1906596Y-9380960D01*
X1970595Y-9286386D01*
X2051569Y-9160049D01*
X2145932Y-9007749D01*
X2250100Y-8835287D01*
X2360490Y-8648465D01*
X2473518Y-8453083D01*
X2585600Y-8254942D01*
X2607985Y-8214778D01*
X2776131Y-7917032D01*
X2923095Y-7667610D01*
X3051143Y-7463492D01*
X3162539Y-7301658D01*
X3259551Y-7179089D01*
X3344442Y-7092766D01*
X3419480Y-7039667D01*
X3486928Y-7016774D01*
X3507883Y-7015334D01*
X3595312Y-7038011D01*
G36*
X440889Y-3290000D02*
G01*
X17556Y-3290000D01*
X17556Y-2753778D01*
X440889Y-2753778D01*
X440889Y-3290000D01*
G37*
X440889Y-3290000D02*
X17556Y-3290000D01*
X17556Y-2753778D01*
X440889Y-2753778D01*
X440889Y-3290000D01*
G36*
X9810667Y-3290000D02*
G01*
X4420222Y-3290000D01*
X4420222Y-2753778D01*
X9810667Y-2753778D01*
X9810667Y-3290000D01*
G37*
X9810667Y-3290000D02*
X4420222Y-3290000D01*
X4420222Y-2753778D01*
X9810667Y-2753778D01*
X9810667Y-3290000D01*
G36*
X4323392Y-111185615D02*
G01*
X4476724Y-111241890D01*
X4603108Y-111327217D01*
X4646198Y-111373268D01*
X4675939Y-111416748D01*
X4693314Y-111464202D01*
X4700566Y-111530318D01*
X4699939Y-111629783D01*
X4696977Y-111705667D01*
X4688648Y-111838172D01*
X4673983Y-111935674D01*
X4647672Y-112019606D01*
X4604406Y-112111402D01*
X4589490Y-112139641D01*
X4493004Y-112289770D01*
X4368969Y-112438947D01*
X4231604Y-112572569D01*
X4095128Y-112676035D01*
X4032670Y-112711408D01*
X3902904Y-112758608D01*
X3745041Y-112783493D01*
X3683147Y-112787543D01*
X3573573Y-112791807D01*
X3502977Y-112788298D01*
X3453958Y-112771977D01*
X3409116Y-112737806D01*
X3366050Y-112695724D01*
X3298361Y-112619160D01*
X3257305Y-112543757D01*
X3238365Y-112453410D01*
X3237022Y-112332016D01*
X3241691Y-112252490D01*
X3275137Y-112068329D01*
X3345219Y-111877746D01*
X3444659Y-111690942D01*
X3566179Y-111518122D01*
X3702503Y-111369489D01*
X3846354Y-111255248D01*
X3990455Y-111185601D01*
X4005737Y-111181173D01*
X4160576Y-111163630D01*
X4323392Y-111185615D01*
G37*
X4323392Y-111185615D02*
X4476724Y-111241890D01*
X4603108Y-111327217D01*
X4646198Y-111373268D01*
X4675939Y-111416748D01*
X4693314Y-111464202D01*
X4700566Y-111530318D01*
X4699939Y-111629783D01*
X4696977Y-111705667D01*
X4688648Y-111838172D01*
X4673983Y-111935674D01*
X4647672Y-112019606D01*
X4604406Y-112111402D01*
X4589490Y-112139641D01*
X4493004Y-112289770D01*
X4368969Y-112438947D01*
X4231604Y-112572569D01*
X4095128Y-112676035D01*
X4032670Y-112711408D01*
X3902904Y-112758608D01*
X3745041Y-112783493D01*
X3683147Y-112787543D01*
X3573573Y-112791807D01*
X3502977Y-112788298D01*
X3453958Y-112771977D01*
X3409116Y-112737806D01*
X3366050Y-112695724D01*
X3298361Y-112619160D01*
X3257305Y-112543757D01*
X3238365Y-112453410D01*
X3237022Y-112332016D01*
X3241691Y-112252490D01*
X3275137Y-112068329D01*
X3345219Y-111877746D01*
X3444659Y-111690942D01*
X3566179Y-111518122D01*
X3702503Y-111369489D01*
X3846354Y-111255248D01*
X3990455Y-111185601D01*
X4005737Y-111181173D01*
X4160576Y-111163630D01*
X4323392Y-111185615D01*
G36*
X6170000Y-112354778D02*
G01*
X6155889Y-112368889D01*
X6141778Y-112354778D01*
X6155889Y-112340667D01*
X6170000Y-112354778D01*
G37*
X6170000Y-112354778D02*
X6155889Y-112368889D01*
X6141778Y-112354778D01*
X6155889Y-112340667D01*
X6170000Y-112354778D01*
G04 #@! TD*
M02*
