M48
; DRILL file {KiCad (5.1.10)-1} date 10/23/22 13:04:43
; FORMAT={-:-/ absolute / metric / decimal}
; #@! TF.CreationDate,2022-10-23T13:04:43+02:00
; #@! TF.GenerationSoftware,Kicad,Pcbnew,(5.1.10)-1
; #@! TF.FileFunction,Plated,1,2,PTH
FMAT,2
METRIC
T1C0.300
T2C0.500
T3C0.600
T4C0.900
T5C1.000
%
G90
G05
T1
X6.35Y-66.675
X6.985Y-23.495
X6.985Y-46.355
X8.255Y-26.035
X8.255Y-34.925
X9.525Y-26.035
X9.525Y-88.265
X10.795Y-26.035
X10.795Y-39.37
X10.795Y-49.53
X10.795Y-88.265
X12.065Y-26.035
X12.065Y-38.1
X12.065Y-53.975
X15.24Y-12.065
X15.24Y-23.495
X19.05Y-5.08
X19.05Y-7.62
X20.955Y-33.655
X20.955Y-78.105
X21.59Y-10.795
X22.225Y-36.83
X23.495Y-13.97
X23.495Y-25.4
X23.495Y-29.21
X23.495Y-80.01
X24.13Y-15.24
X24.13Y-27.94
X24.765Y-12.065
X24.765Y-39.37
X24.765Y-57.15
X26.035Y-13.97
T2
X16.51Y-17.78
X16.51Y-31.75
X16.51Y-41.91
X16.51Y-94.615
X17.78Y-13.97
X17.78Y-27.94
X17.78Y-38.1
X17.78Y-85.725
T4
X2.54Y-52.705
X2.54Y-55.245
X6.985Y-52.705
X6.985Y-55.245
T5
X5.0Y-9.565
X5.0Y-12.065
X5.0Y-14.565
X14.605Y-3.81
X14.605Y-6.35
X14.605Y-8.89
X17.145Y-3.81
X17.145Y-6.35
X17.145Y-8.89
X22.86Y-88.9
X22.86Y-91.44
X22.86Y-93.98
X22.86Y-96.52
X22.86Y-99.06
X25.4Y-88.9
X25.4Y-91.44
X25.4Y-93.98
X25.4Y-96.52
X25.4Y-99.06
T3
G00X1.7Y-61.28
M15
G01X1.7Y-63.18
M16
G05
G00X1.7Y-72.71
M15
G01X1.7Y-74.61
M16
G05
G00X1.7Y-84.14
M15
G01X1.7Y-86.04
M16
G05
G00X1.7Y-95.57
M15
G01X1.7Y-97.47
M16
G05
G00X7.0Y-61.28
M15
G01X7.0Y-63.18
M16
G05
G00X7.0Y-72.71
M15
G01X7.0Y-74.61
M16
G05
G00X7.0Y-84.14
M15
G01X7.0Y-86.04
M16
G05
G00X7.0Y-95.57
M15
G01X7.0Y-97.47
M16
G05
G00X12.8Y-61.28
M15
G01X12.8Y-63.18
M16
G05
G00X12.8Y-72.71
M15
G01X12.8Y-74.61
M16
G05
G00X12.8Y-84.14
M15
G01X12.8Y-86.04
M16
G05
G00X12.8Y-95.57
M15
G01X12.8Y-97.47
M16
G05
T0
M30
