G04 #@! TF.GenerationSoftware,KiCad,Pcbnew,(5.1.10)-1*
G04 #@! TF.CreationDate,2022-10-23T13:04:41+02:00*
G04 #@! TF.ProjectId,LFO Main,4c464f20-4d61-4696-9e2e-6b696361645f,rev?*
G04 #@! TF.SameCoordinates,Original*
G04 #@! TF.FileFunction,Soldermask,Top*
G04 #@! TF.FilePolarity,Negative*
%FSLAX46Y46*%
G04 Gerber Fmt 4.6, Leading zero omitted, Abs format (unit mm)*
G04 Created by KiCad (PCBNEW (5.1.10)-1) date 2022-10-23 13:04:41*
%MOMM*%
%LPD*%
G01*
G04 APERTURE LIST*
%ADD10O,1.700000X1.700000*%
%ADD11R,1.700000X1.700000*%
%ADD12R,1.500000X1.600000*%
%ADD13R,1.200000X1.200000*%
%ADD14R,0.900000X0.800000*%
%ADD15R,0.600000X0.450000*%
%ADD16R,1.600000X3.500000*%
%ADD17C,2.000000*%
%ADD18C,1.800000*%
%ADD19R,1.800000X1.800000*%
G04 APERTURE END LIST*
D10*
G04 #@! TO.C,J6*
X17145000Y-8890000D03*
X14605000Y-8890000D03*
X17145000Y-6350000D03*
X14605000Y-6350000D03*
X17145000Y-3810000D03*
D11*
X14605000Y-3810000D03*
G04 #@! TD*
G04 #@! TO.C,R20*
G36*
G01*
X26220000Y-39765000D02*
X25850000Y-39765000D01*
G75*
G02*
X25715000Y-39630000I0J135000D01*
G01*
X25715000Y-39360000D01*
G75*
G02*
X25850000Y-39225000I135000J0D01*
G01*
X26220000Y-39225000D01*
G75*
G02*
X26355000Y-39360000I0J-135000D01*
G01*
X26355000Y-39630000D01*
G75*
G02*
X26220000Y-39765000I-135000J0D01*
G01*
G37*
G36*
G01*
X26220000Y-40785000D02*
X25850000Y-40785000D01*
G75*
G02*
X25715000Y-40650000I0J135000D01*
G01*
X25715000Y-40380000D01*
G75*
G02*
X25850000Y-40245000I135000J0D01*
G01*
X26220000Y-40245000D01*
G75*
G02*
X26355000Y-40380000I0J-135000D01*
G01*
X26355000Y-40650000D01*
G75*
G02*
X26220000Y-40785000I-135000J0D01*
G01*
G37*
G04 #@! TD*
G04 #@! TO.C,R19*
G36*
G01*
X26220000Y-42305000D02*
X25850000Y-42305000D01*
G75*
G02*
X25715000Y-42170000I0J135000D01*
G01*
X25715000Y-41900000D01*
G75*
G02*
X25850000Y-41765000I135000J0D01*
G01*
X26220000Y-41765000D01*
G75*
G02*
X26355000Y-41900000I0J-135000D01*
G01*
X26355000Y-42170000D01*
G75*
G02*
X26220000Y-42305000I-135000J0D01*
G01*
G37*
G36*
G01*
X26220000Y-43325000D02*
X25850000Y-43325000D01*
G75*
G02*
X25715000Y-43190000I0J135000D01*
G01*
X25715000Y-42920000D01*
G75*
G02*
X25850000Y-42785000I135000J0D01*
G01*
X26220000Y-42785000D01*
G75*
G02*
X26355000Y-42920000I0J-135000D01*
G01*
X26355000Y-43190000D01*
G75*
G02*
X26220000Y-43325000I-135000J0D01*
G01*
G37*
G04 #@! TD*
G04 #@! TO.C,R14*
G36*
G01*
X25585000Y-29605000D02*
X25215000Y-29605000D01*
G75*
G02*
X25080000Y-29470000I0J135000D01*
G01*
X25080000Y-29200000D01*
G75*
G02*
X25215000Y-29065000I135000J0D01*
G01*
X25585000Y-29065000D01*
G75*
G02*
X25720000Y-29200000I0J-135000D01*
G01*
X25720000Y-29470000D01*
G75*
G02*
X25585000Y-29605000I-135000J0D01*
G01*
G37*
G36*
G01*
X25585000Y-30625000D02*
X25215000Y-30625000D01*
G75*
G02*
X25080000Y-30490000I0J135000D01*
G01*
X25080000Y-30220000D01*
G75*
G02*
X25215000Y-30085000I135000J0D01*
G01*
X25585000Y-30085000D01*
G75*
G02*
X25720000Y-30220000I0J-135000D01*
G01*
X25720000Y-30490000D01*
G75*
G02*
X25585000Y-30625000I-135000J0D01*
G01*
G37*
G04 #@! TD*
G04 #@! TO.C,R13*
G36*
G01*
X22410000Y-32145000D02*
X22040000Y-32145000D01*
G75*
G02*
X21905000Y-32010000I0J135000D01*
G01*
X21905000Y-31740000D01*
G75*
G02*
X22040000Y-31605000I135000J0D01*
G01*
X22410000Y-31605000D01*
G75*
G02*
X22545000Y-31740000I0J-135000D01*
G01*
X22545000Y-32010000D01*
G75*
G02*
X22410000Y-32145000I-135000J0D01*
G01*
G37*
G36*
G01*
X22410000Y-33165000D02*
X22040000Y-33165000D01*
G75*
G02*
X21905000Y-33030000I0J135000D01*
G01*
X21905000Y-32760000D01*
G75*
G02*
X22040000Y-32625000I135000J0D01*
G01*
X22410000Y-32625000D01*
G75*
G02*
X22545000Y-32760000I0J-135000D01*
G01*
X22545000Y-33030000D01*
G75*
G02*
X22410000Y-33165000I-135000J0D01*
G01*
G37*
G04 #@! TD*
G04 #@! TO.C,C14*
G36*
G01*
X22055000Y-40205000D02*
X22395000Y-40205000D01*
G75*
G02*
X22535000Y-40345000I0J-140000D01*
G01*
X22535000Y-40625000D01*
G75*
G02*
X22395000Y-40765000I-140000J0D01*
G01*
X22055000Y-40765000D01*
G75*
G02*
X21915000Y-40625000I0J140000D01*
G01*
X21915000Y-40345000D01*
G75*
G02*
X22055000Y-40205000I140000J0D01*
G01*
G37*
G36*
G01*
X22055000Y-39245000D02*
X22395000Y-39245000D01*
G75*
G02*
X22535000Y-39385000I0J-140000D01*
G01*
X22535000Y-39665000D01*
G75*
G02*
X22395000Y-39805000I-140000J0D01*
G01*
X22055000Y-39805000D01*
G75*
G02*
X21915000Y-39665000I0J140000D01*
G01*
X21915000Y-39385000D01*
G75*
G02*
X22055000Y-39245000I140000J0D01*
G01*
G37*
G04 #@! TD*
G04 #@! TO.C,C13*
G36*
G01*
X22055000Y-30045000D02*
X22395000Y-30045000D01*
G75*
G02*
X22535000Y-30185000I0J-140000D01*
G01*
X22535000Y-30465000D01*
G75*
G02*
X22395000Y-30605000I-140000J0D01*
G01*
X22055000Y-30605000D01*
G75*
G02*
X21915000Y-30465000I0J140000D01*
G01*
X21915000Y-30185000D01*
G75*
G02*
X22055000Y-30045000I140000J0D01*
G01*
G37*
G36*
G01*
X22055000Y-29085000D02*
X22395000Y-29085000D01*
G75*
G02*
X22535000Y-29225000I0J-140000D01*
G01*
X22535000Y-29505000D01*
G75*
G02*
X22395000Y-29645000I-140000J0D01*
G01*
X22055000Y-29645000D01*
G75*
G02*
X21915000Y-29505000I0J140000D01*
G01*
X21915000Y-29225000D01*
G75*
G02*
X22055000Y-29085000I140000J0D01*
G01*
G37*
G04 #@! TD*
G04 #@! TO.C,C12*
G36*
G01*
X11895000Y-28775000D02*
X12235000Y-28775000D01*
G75*
G02*
X12375000Y-28915000I0J-140000D01*
G01*
X12375000Y-29195000D01*
G75*
G02*
X12235000Y-29335000I-140000J0D01*
G01*
X11895000Y-29335000D01*
G75*
G02*
X11755000Y-29195000I0J140000D01*
G01*
X11755000Y-28915000D01*
G75*
G02*
X11895000Y-28775000I140000J0D01*
G01*
G37*
G36*
G01*
X11895000Y-27815000D02*
X12235000Y-27815000D01*
G75*
G02*
X12375000Y-27955000I0J-140000D01*
G01*
X12375000Y-28235000D01*
G75*
G02*
X12235000Y-28375000I-140000J0D01*
G01*
X11895000Y-28375000D01*
G75*
G02*
X11755000Y-28235000I0J140000D01*
G01*
X11755000Y-27955000D01*
G75*
G02*
X11895000Y-27815000I140000J0D01*
G01*
G37*
G04 #@! TD*
G04 #@! TO.C,C6*
G36*
G01*
X22425000Y-28110000D02*
X22425000Y-27770000D01*
G75*
G02*
X22565000Y-27630000I140000J0D01*
G01*
X22845000Y-27630000D01*
G75*
G02*
X22985000Y-27770000I0J-140000D01*
G01*
X22985000Y-28110000D01*
G75*
G02*
X22845000Y-28250000I-140000J0D01*
G01*
X22565000Y-28250000D01*
G75*
G02*
X22425000Y-28110000I0J140000D01*
G01*
G37*
G36*
G01*
X21465000Y-28110000D02*
X21465000Y-27770000D01*
G75*
G02*
X21605000Y-27630000I140000J0D01*
G01*
X21885000Y-27630000D01*
G75*
G02*
X22025000Y-27770000I0J-140000D01*
G01*
X22025000Y-28110000D01*
G75*
G02*
X21885000Y-28250000I-140000J0D01*
G01*
X21605000Y-28250000D01*
G75*
G02*
X21465000Y-28110000I0J140000D01*
G01*
G37*
G04 #@! TD*
G04 #@! TO.C,C3*
G36*
G01*
X16495000Y-96094999D02*
X16495000Y-96945001D01*
G75*
G02*
X16245001Y-97195000I-249999J0D01*
G01*
X15344999Y-97195000D01*
G75*
G02*
X15095000Y-96945001I0J249999D01*
G01*
X15095000Y-96094999D01*
G75*
G02*
X15344999Y-95845000I249999J0D01*
G01*
X16245001Y-95845000D01*
G75*
G02*
X16495000Y-96094999I0J-249999D01*
G01*
G37*
G36*
G01*
X19195000Y-96094999D02*
X19195000Y-96945001D01*
G75*
G02*
X18945001Y-97195000I-249999J0D01*
G01*
X18044999Y-97195000D01*
G75*
G02*
X17795000Y-96945001I0J249999D01*
G01*
X17795000Y-96094999D01*
G75*
G02*
X18044999Y-95845000I249999J0D01*
G01*
X18945001Y-95845000D01*
G75*
G02*
X19195000Y-96094999I0J-249999D01*
G01*
G37*
G04 #@! TD*
G04 #@! TO.C,C2*
G36*
G01*
X17795000Y-91865001D02*
X17795000Y-91014999D01*
G75*
G02*
X18044999Y-90765000I249999J0D01*
G01*
X18945001Y-90765000D01*
G75*
G02*
X19195000Y-91014999I0J-249999D01*
G01*
X19195000Y-91865001D01*
G75*
G02*
X18945001Y-92115000I-249999J0D01*
G01*
X18044999Y-92115000D01*
G75*
G02*
X17795000Y-91865001I0J249999D01*
G01*
G37*
G36*
G01*
X15095000Y-91865001D02*
X15095000Y-91014999D01*
G75*
G02*
X15344999Y-90765000I249999J0D01*
G01*
X16245001Y-90765000D01*
G75*
G02*
X16495000Y-91014999I0J-249999D01*
G01*
X16495000Y-91865001D01*
G75*
G02*
X16245001Y-92115000I-249999J0D01*
G01*
X15344999Y-92115000D01*
G75*
G02*
X15095000Y-91865001I0J249999D01*
G01*
G37*
G04 #@! TD*
G04 #@! TO.C,U3*
G36*
G01*
X18645000Y-38250000D02*
X18645000Y-37950000D01*
G75*
G02*
X18795000Y-37800000I150000J0D01*
G01*
X20445000Y-37800000D01*
G75*
G02*
X20595000Y-37950000I0J-150000D01*
G01*
X20595000Y-38250000D01*
G75*
G02*
X20445000Y-38400000I-150000J0D01*
G01*
X18795000Y-38400000D01*
G75*
G02*
X18645000Y-38250000I0J150000D01*
G01*
G37*
G36*
G01*
X18645000Y-39520000D02*
X18645000Y-39220000D01*
G75*
G02*
X18795000Y-39070000I150000J0D01*
G01*
X20445000Y-39070000D01*
G75*
G02*
X20595000Y-39220000I0J-150000D01*
G01*
X20595000Y-39520000D01*
G75*
G02*
X20445000Y-39670000I-150000J0D01*
G01*
X18795000Y-39670000D01*
G75*
G02*
X18645000Y-39520000I0J150000D01*
G01*
G37*
G36*
G01*
X18645000Y-40790000D02*
X18645000Y-40490000D01*
G75*
G02*
X18795000Y-40340000I150000J0D01*
G01*
X20445000Y-40340000D01*
G75*
G02*
X20595000Y-40490000I0J-150000D01*
G01*
X20595000Y-40790000D01*
G75*
G02*
X20445000Y-40940000I-150000J0D01*
G01*
X18795000Y-40940000D01*
G75*
G02*
X18645000Y-40790000I0J150000D01*
G01*
G37*
G36*
G01*
X18645000Y-42060000D02*
X18645000Y-41760000D01*
G75*
G02*
X18795000Y-41610000I150000J0D01*
G01*
X20445000Y-41610000D01*
G75*
G02*
X20595000Y-41760000I0J-150000D01*
G01*
X20595000Y-42060000D01*
G75*
G02*
X20445000Y-42210000I-150000J0D01*
G01*
X18795000Y-42210000D01*
G75*
G02*
X18645000Y-42060000I0J150000D01*
G01*
G37*
G36*
G01*
X13695000Y-42060000D02*
X13695000Y-41760000D01*
G75*
G02*
X13845000Y-41610000I150000J0D01*
G01*
X15495000Y-41610000D01*
G75*
G02*
X15645000Y-41760000I0J-150000D01*
G01*
X15645000Y-42060000D01*
G75*
G02*
X15495000Y-42210000I-150000J0D01*
G01*
X13845000Y-42210000D01*
G75*
G02*
X13695000Y-42060000I0J150000D01*
G01*
G37*
G36*
G01*
X13695000Y-40790000D02*
X13695000Y-40490000D01*
G75*
G02*
X13845000Y-40340000I150000J0D01*
G01*
X15495000Y-40340000D01*
G75*
G02*
X15645000Y-40490000I0J-150000D01*
G01*
X15645000Y-40790000D01*
G75*
G02*
X15495000Y-40940000I-150000J0D01*
G01*
X13845000Y-40940000D01*
G75*
G02*
X13695000Y-40790000I0J150000D01*
G01*
G37*
G36*
G01*
X13695000Y-39520000D02*
X13695000Y-39220000D01*
G75*
G02*
X13845000Y-39070000I150000J0D01*
G01*
X15495000Y-39070000D01*
G75*
G02*
X15645000Y-39220000I0J-150000D01*
G01*
X15645000Y-39520000D01*
G75*
G02*
X15495000Y-39670000I-150000J0D01*
G01*
X13845000Y-39670000D01*
G75*
G02*
X13695000Y-39520000I0J150000D01*
G01*
G37*
G36*
G01*
X13695000Y-38250000D02*
X13695000Y-37950000D01*
G75*
G02*
X13845000Y-37800000I150000J0D01*
G01*
X15495000Y-37800000D01*
G75*
G02*
X15645000Y-37950000I0J-150000D01*
G01*
X15645000Y-38250000D01*
G75*
G02*
X15495000Y-38400000I-150000J0D01*
G01*
X13845000Y-38400000D01*
G75*
G02*
X13695000Y-38250000I0J150000D01*
G01*
G37*
G04 #@! TD*
G04 #@! TO.C,U2*
G36*
G01*
X18645000Y-28090000D02*
X18645000Y-27790000D01*
G75*
G02*
X18795000Y-27640000I150000J0D01*
G01*
X20445000Y-27640000D01*
G75*
G02*
X20595000Y-27790000I0J-150000D01*
G01*
X20595000Y-28090000D01*
G75*
G02*
X20445000Y-28240000I-150000J0D01*
G01*
X18795000Y-28240000D01*
G75*
G02*
X18645000Y-28090000I0J150000D01*
G01*
G37*
G36*
G01*
X18645000Y-29360000D02*
X18645000Y-29060000D01*
G75*
G02*
X18795000Y-28910000I150000J0D01*
G01*
X20445000Y-28910000D01*
G75*
G02*
X20595000Y-29060000I0J-150000D01*
G01*
X20595000Y-29360000D01*
G75*
G02*
X20445000Y-29510000I-150000J0D01*
G01*
X18795000Y-29510000D01*
G75*
G02*
X18645000Y-29360000I0J150000D01*
G01*
G37*
G36*
G01*
X18645000Y-30630000D02*
X18645000Y-30330000D01*
G75*
G02*
X18795000Y-30180000I150000J0D01*
G01*
X20445000Y-30180000D01*
G75*
G02*
X20595000Y-30330000I0J-150000D01*
G01*
X20595000Y-30630000D01*
G75*
G02*
X20445000Y-30780000I-150000J0D01*
G01*
X18795000Y-30780000D01*
G75*
G02*
X18645000Y-30630000I0J150000D01*
G01*
G37*
G36*
G01*
X18645000Y-31900000D02*
X18645000Y-31600000D01*
G75*
G02*
X18795000Y-31450000I150000J0D01*
G01*
X20445000Y-31450000D01*
G75*
G02*
X20595000Y-31600000I0J-150000D01*
G01*
X20595000Y-31900000D01*
G75*
G02*
X20445000Y-32050000I-150000J0D01*
G01*
X18795000Y-32050000D01*
G75*
G02*
X18645000Y-31900000I0J150000D01*
G01*
G37*
G36*
G01*
X13695000Y-31900000D02*
X13695000Y-31600000D01*
G75*
G02*
X13845000Y-31450000I150000J0D01*
G01*
X15495000Y-31450000D01*
G75*
G02*
X15645000Y-31600000I0J-150000D01*
G01*
X15645000Y-31900000D01*
G75*
G02*
X15495000Y-32050000I-150000J0D01*
G01*
X13845000Y-32050000D01*
G75*
G02*
X13695000Y-31900000I0J150000D01*
G01*
G37*
G36*
G01*
X13695000Y-30630000D02*
X13695000Y-30330000D01*
G75*
G02*
X13845000Y-30180000I150000J0D01*
G01*
X15495000Y-30180000D01*
G75*
G02*
X15645000Y-30330000I0J-150000D01*
G01*
X15645000Y-30630000D01*
G75*
G02*
X15495000Y-30780000I-150000J0D01*
G01*
X13845000Y-30780000D01*
G75*
G02*
X13695000Y-30630000I0J150000D01*
G01*
G37*
G36*
G01*
X13695000Y-29360000D02*
X13695000Y-29060000D01*
G75*
G02*
X13845000Y-28910000I150000J0D01*
G01*
X15495000Y-28910000D01*
G75*
G02*
X15645000Y-29060000I0J-150000D01*
G01*
X15645000Y-29360000D01*
G75*
G02*
X15495000Y-29510000I-150000J0D01*
G01*
X13845000Y-29510000D01*
G75*
G02*
X13695000Y-29360000I0J150000D01*
G01*
G37*
G36*
G01*
X13695000Y-28090000D02*
X13695000Y-27790000D01*
G75*
G02*
X13845000Y-27640000I150000J0D01*
G01*
X15495000Y-27640000D01*
G75*
G02*
X15645000Y-27790000I0J-150000D01*
G01*
X15645000Y-28090000D01*
G75*
G02*
X15495000Y-28240000I-150000J0D01*
G01*
X13845000Y-28240000D01*
G75*
G02*
X13695000Y-28090000I0J150000D01*
G01*
G37*
G04 #@! TD*
G04 #@! TO.C,U1*
G36*
G01*
X18645000Y-14120000D02*
X18645000Y-13820000D01*
G75*
G02*
X18795000Y-13670000I150000J0D01*
G01*
X20445000Y-13670000D01*
G75*
G02*
X20595000Y-13820000I0J-150000D01*
G01*
X20595000Y-14120000D01*
G75*
G02*
X20445000Y-14270000I-150000J0D01*
G01*
X18795000Y-14270000D01*
G75*
G02*
X18645000Y-14120000I0J150000D01*
G01*
G37*
G36*
G01*
X18645000Y-15390000D02*
X18645000Y-15090000D01*
G75*
G02*
X18795000Y-14940000I150000J0D01*
G01*
X20445000Y-14940000D01*
G75*
G02*
X20595000Y-15090000I0J-150000D01*
G01*
X20595000Y-15390000D01*
G75*
G02*
X20445000Y-15540000I-150000J0D01*
G01*
X18795000Y-15540000D01*
G75*
G02*
X18645000Y-15390000I0J150000D01*
G01*
G37*
G36*
G01*
X18645000Y-16660000D02*
X18645000Y-16360000D01*
G75*
G02*
X18795000Y-16210000I150000J0D01*
G01*
X20445000Y-16210000D01*
G75*
G02*
X20595000Y-16360000I0J-150000D01*
G01*
X20595000Y-16660000D01*
G75*
G02*
X20445000Y-16810000I-150000J0D01*
G01*
X18795000Y-16810000D01*
G75*
G02*
X18645000Y-16660000I0J150000D01*
G01*
G37*
G36*
G01*
X18645000Y-17930000D02*
X18645000Y-17630000D01*
G75*
G02*
X18795000Y-17480000I150000J0D01*
G01*
X20445000Y-17480000D01*
G75*
G02*
X20595000Y-17630000I0J-150000D01*
G01*
X20595000Y-17930000D01*
G75*
G02*
X20445000Y-18080000I-150000J0D01*
G01*
X18795000Y-18080000D01*
G75*
G02*
X18645000Y-17930000I0J150000D01*
G01*
G37*
G36*
G01*
X13695000Y-17930000D02*
X13695000Y-17630000D01*
G75*
G02*
X13845000Y-17480000I150000J0D01*
G01*
X15495000Y-17480000D01*
G75*
G02*
X15645000Y-17630000I0J-150000D01*
G01*
X15645000Y-17930000D01*
G75*
G02*
X15495000Y-18080000I-150000J0D01*
G01*
X13845000Y-18080000D01*
G75*
G02*
X13695000Y-17930000I0J150000D01*
G01*
G37*
G36*
G01*
X13695000Y-16660000D02*
X13695000Y-16360000D01*
G75*
G02*
X13845000Y-16210000I150000J0D01*
G01*
X15495000Y-16210000D01*
G75*
G02*
X15645000Y-16360000I0J-150000D01*
G01*
X15645000Y-16660000D01*
G75*
G02*
X15495000Y-16810000I-150000J0D01*
G01*
X13845000Y-16810000D01*
G75*
G02*
X13695000Y-16660000I0J150000D01*
G01*
G37*
G36*
G01*
X13695000Y-15390000D02*
X13695000Y-15090000D01*
G75*
G02*
X13845000Y-14940000I150000J0D01*
G01*
X15495000Y-14940000D01*
G75*
G02*
X15645000Y-15090000I0J-150000D01*
G01*
X15645000Y-15390000D01*
G75*
G02*
X15495000Y-15540000I-150000J0D01*
G01*
X13845000Y-15540000D01*
G75*
G02*
X13695000Y-15390000I0J150000D01*
G01*
G37*
G36*
G01*
X13695000Y-14120000D02*
X13695000Y-13820000D01*
G75*
G02*
X13845000Y-13670000I150000J0D01*
G01*
X15495000Y-13670000D01*
G75*
G02*
X15645000Y-13820000I0J-150000D01*
G01*
X15645000Y-14120000D01*
G75*
G02*
X15495000Y-14270000I-150000J0D01*
G01*
X13845000Y-14270000D01*
G75*
G02*
X13695000Y-14120000I0J150000D01*
G01*
G37*
G04 #@! TD*
D12*
G04 #@! TO.C,T1*
X22680000Y-22225000D03*
D13*
X25930000Y-21225000D03*
X25930000Y-23225000D03*
G04 #@! TD*
G04 #@! TO.C,R18*
G36*
G01*
X6710000Y-49510000D02*
X7260000Y-49510000D01*
G75*
G02*
X7460000Y-49710000I0J-200000D01*
G01*
X7460000Y-50110000D01*
G75*
G02*
X7260000Y-50310000I-200000J0D01*
G01*
X6710000Y-50310000D01*
G75*
G02*
X6510000Y-50110000I0J200000D01*
G01*
X6510000Y-49710000D01*
G75*
G02*
X6710000Y-49510000I200000J0D01*
G01*
G37*
G36*
G01*
X6710000Y-47860000D02*
X7260000Y-47860000D01*
G75*
G02*
X7460000Y-48060000I0J-200000D01*
G01*
X7460000Y-48460000D01*
G75*
G02*
X7260000Y-48660000I-200000J0D01*
G01*
X6710000Y-48660000D01*
G75*
G02*
X6510000Y-48460000I0J200000D01*
G01*
X6510000Y-48060000D01*
G75*
G02*
X6710000Y-47860000I200000J0D01*
G01*
G37*
G04 #@! TD*
G04 #@! TO.C,R17*
G36*
G01*
X12965000Y-57775001D02*
X12965000Y-56524999D01*
G75*
G02*
X13214999Y-56275000I249999J0D01*
G01*
X13840001Y-56275000D01*
G75*
G02*
X14090000Y-56524999I0J-249999D01*
G01*
X14090000Y-57775001D01*
G75*
G02*
X13840001Y-58025000I-249999J0D01*
G01*
X13214999Y-58025000D01*
G75*
G02*
X12965000Y-57775001I0J249999D01*
G01*
G37*
G36*
G01*
X10040000Y-57775001D02*
X10040000Y-56524999D01*
G75*
G02*
X10289999Y-56275000I249999J0D01*
G01*
X10915001Y-56275000D01*
G75*
G02*
X11165000Y-56524999I0J-249999D01*
G01*
X11165000Y-57775001D01*
G75*
G02*
X10915001Y-58025000I-249999J0D01*
G01*
X10289999Y-58025000D01*
G75*
G02*
X10040000Y-57775001I0J249999D01*
G01*
G37*
G04 #@! TD*
G04 #@! TO.C,R16*
G36*
G01*
X11060000Y-69205001D02*
X11060000Y-67954999D01*
G75*
G02*
X11309999Y-67705000I249999J0D01*
G01*
X11935001Y-67705000D01*
G75*
G02*
X12185000Y-67954999I0J-249999D01*
G01*
X12185000Y-69205001D01*
G75*
G02*
X11935001Y-69455000I-249999J0D01*
G01*
X11309999Y-69455000D01*
G75*
G02*
X11060000Y-69205001I0J249999D01*
G01*
G37*
G36*
G01*
X8135000Y-69205001D02*
X8135000Y-67954999D01*
G75*
G02*
X8384999Y-67705000I249999J0D01*
G01*
X9010001Y-67705000D01*
G75*
G02*
X9260000Y-67954999I0J-249999D01*
G01*
X9260000Y-69205001D01*
G75*
G02*
X9010001Y-69455000I-249999J0D01*
G01*
X8384999Y-69455000D01*
G75*
G02*
X8135000Y-69205001I0J249999D01*
G01*
G37*
G04 #@! TD*
G04 #@! TO.C,R15*
G36*
G01*
X11060000Y-80635001D02*
X11060000Y-79384999D01*
G75*
G02*
X11309999Y-79135000I249999J0D01*
G01*
X11935001Y-79135000D01*
G75*
G02*
X12185000Y-79384999I0J-249999D01*
G01*
X12185000Y-80635001D01*
G75*
G02*
X11935001Y-80885000I-249999J0D01*
G01*
X11309999Y-80885000D01*
G75*
G02*
X11060000Y-80635001I0J249999D01*
G01*
G37*
G36*
G01*
X8135000Y-80635001D02*
X8135000Y-79384999D01*
G75*
G02*
X8384999Y-79135000I249999J0D01*
G01*
X9010001Y-79135000D01*
G75*
G02*
X9260000Y-79384999I0J-249999D01*
G01*
X9260000Y-80635001D01*
G75*
G02*
X9010001Y-80885000I-249999J0D01*
G01*
X8384999Y-80885000D01*
G75*
G02*
X8135000Y-80635001I0J249999D01*
G01*
G37*
G04 #@! TD*
G04 #@! TO.C,R12*
G36*
G01*
X11060000Y-92065001D02*
X11060000Y-90814999D01*
G75*
G02*
X11309999Y-90565000I249999J0D01*
G01*
X11935001Y-90565000D01*
G75*
G02*
X12185000Y-90814999I0J-249999D01*
G01*
X12185000Y-92065001D01*
G75*
G02*
X11935001Y-92315000I-249999J0D01*
G01*
X11309999Y-92315000D01*
G75*
G02*
X11060000Y-92065001I0J249999D01*
G01*
G37*
G36*
G01*
X8135000Y-92065001D02*
X8135000Y-90814999D01*
G75*
G02*
X8384999Y-90565000I249999J0D01*
G01*
X9010001Y-90565000D01*
G75*
G02*
X9260000Y-90814999I0J-249999D01*
G01*
X9260000Y-92065001D01*
G75*
G02*
X9010001Y-92315000I-249999J0D01*
G01*
X8384999Y-92315000D01*
G75*
G02*
X8135000Y-92065001I0J249999D01*
G01*
G37*
G04 #@! TD*
G04 #@! TO.C,R11*
G36*
G01*
X10610000Y-28815000D02*
X10980000Y-28815000D01*
G75*
G02*
X11115000Y-28950000I0J-135000D01*
G01*
X11115000Y-29220000D01*
G75*
G02*
X10980000Y-29355000I-135000J0D01*
G01*
X10610000Y-29355000D01*
G75*
G02*
X10475000Y-29220000I0J135000D01*
G01*
X10475000Y-28950000D01*
G75*
G02*
X10610000Y-28815000I135000J0D01*
G01*
G37*
G36*
G01*
X10610000Y-27795000D02*
X10980000Y-27795000D01*
G75*
G02*
X11115000Y-27930000I0J-135000D01*
G01*
X11115000Y-28200000D01*
G75*
G02*
X10980000Y-28335000I-135000J0D01*
G01*
X10610000Y-28335000D01*
G75*
G02*
X10475000Y-28200000I0J135000D01*
G01*
X10475000Y-27930000D01*
G75*
G02*
X10610000Y-27795000I135000J0D01*
G01*
G37*
G04 #@! TD*
G04 #@! TO.C,R10*
G36*
G01*
X8440000Y-28335000D02*
X8070000Y-28335000D01*
G75*
G02*
X7935000Y-28200000I0J135000D01*
G01*
X7935000Y-27930000D01*
G75*
G02*
X8070000Y-27795000I135000J0D01*
G01*
X8440000Y-27795000D01*
G75*
G02*
X8575000Y-27930000I0J-135000D01*
G01*
X8575000Y-28200000D01*
G75*
G02*
X8440000Y-28335000I-135000J0D01*
G01*
G37*
G36*
G01*
X8440000Y-29355000D02*
X8070000Y-29355000D01*
G75*
G02*
X7935000Y-29220000I0J135000D01*
G01*
X7935000Y-28950000D01*
G75*
G02*
X8070000Y-28815000I135000J0D01*
G01*
X8440000Y-28815000D01*
G75*
G02*
X8575000Y-28950000I0J-135000D01*
G01*
X8575000Y-29220000D01*
G75*
G02*
X8440000Y-29355000I-135000J0D01*
G01*
G37*
G04 #@! TD*
G04 #@! TO.C,R9*
G36*
G01*
X9710000Y-28335000D02*
X9340000Y-28335000D01*
G75*
G02*
X9205000Y-28200000I0J135000D01*
G01*
X9205000Y-27930000D01*
G75*
G02*
X9340000Y-27795000I135000J0D01*
G01*
X9710000Y-27795000D01*
G75*
G02*
X9845000Y-27930000I0J-135000D01*
G01*
X9845000Y-28200000D01*
G75*
G02*
X9710000Y-28335000I-135000J0D01*
G01*
G37*
G36*
G01*
X9710000Y-29355000D02*
X9340000Y-29355000D01*
G75*
G02*
X9205000Y-29220000I0J135000D01*
G01*
X9205000Y-28950000D01*
G75*
G02*
X9340000Y-28815000I135000J0D01*
G01*
X9710000Y-28815000D01*
G75*
G02*
X9845000Y-28950000I0J-135000D01*
G01*
X9845000Y-29220000D01*
G75*
G02*
X9710000Y-29355000I-135000J0D01*
G01*
G37*
G04 #@! TD*
G04 #@! TO.C,R8*
G36*
G01*
X5320000Y-24950000D02*
X5320000Y-24580000D01*
G75*
G02*
X5455000Y-24445000I135000J0D01*
G01*
X5725000Y-24445000D01*
G75*
G02*
X5860000Y-24580000I0J-135000D01*
G01*
X5860000Y-24950000D01*
G75*
G02*
X5725000Y-25085000I-135000J0D01*
G01*
X5455000Y-25085000D01*
G75*
G02*
X5320000Y-24950000I0J135000D01*
G01*
G37*
G36*
G01*
X4300000Y-24950000D02*
X4300000Y-24580000D01*
G75*
G02*
X4435000Y-24445000I135000J0D01*
G01*
X4705000Y-24445000D01*
G75*
G02*
X4840000Y-24580000I0J-135000D01*
G01*
X4840000Y-24950000D01*
G75*
G02*
X4705000Y-25085000I-135000J0D01*
G01*
X4435000Y-25085000D01*
G75*
G02*
X4300000Y-24950000I0J135000D01*
G01*
G37*
G04 #@! TD*
G04 #@! TO.C,R7*
G36*
G01*
X25640000Y-25585000D02*
X25640000Y-25215000D01*
G75*
G02*
X25775000Y-25080000I135000J0D01*
G01*
X26045000Y-25080000D01*
G75*
G02*
X26180000Y-25215000I0J-135000D01*
G01*
X26180000Y-25585000D01*
G75*
G02*
X26045000Y-25720000I-135000J0D01*
G01*
X25775000Y-25720000D01*
G75*
G02*
X25640000Y-25585000I0J135000D01*
G01*
G37*
G36*
G01*
X24620000Y-25585000D02*
X24620000Y-25215000D01*
G75*
G02*
X24755000Y-25080000I135000J0D01*
G01*
X25025000Y-25080000D01*
G75*
G02*
X25160000Y-25215000I0J-135000D01*
G01*
X25160000Y-25585000D01*
G75*
G02*
X25025000Y-25720000I-135000J0D01*
G01*
X24755000Y-25720000D01*
G75*
G02*
X24620000Y-25585000I0J135000D01*
G01*
G37*
G04 #@! TD*
G04 #@! TO.C,R6*
G36*
G01*
X21985000Y-15055000D02*
X21985000Y-15425000D01*
G75*
G02*
X21850000Y-15560000I-135000J0D01*
G01*
X21580000Y-15560000D01*
G75*
G02*
X21445000Y-15425000I0J135000D01*
G01*
X21445000Y-15055000D01*
G75*
G02*
X21580000Y-14920000I135000J0D01*
G01*
X21850000Y-14920000D01*
G75*
G02*
X21985000Y-15055000I0J-135000D01*
G01*
G37*
G36*
G01*
X23005000Y-15055000D02*
X23005000Y-15425000D01*
G75*
G02*
X22870000Y-15560000I-135000J0D01*
G01*
X22600000Y-15560000D01*
G75*
G02*
X22465000Y-15425000I0J135000D01*
G01*
X22465000Y-15055000D01*
G75*
G02*
X22600000Y-14920000I135000J0D01*
G01*
X22870000Y-14920000D01*
G75*
G02*
X23005000Y-15055000I0J-135000D01*
G01*
G37*
G04 #@! TD*
G04 #@! TO.C,R5*
G36*
G01*
X21985000Y-17595000D02*
X21985000Y-17965000D01*
G75*
G02*
X21850000Y-18100000I-135000J0D01*
G01*
X21580000Y-18100000D01*
G75*
G02*
X21445000Y-17965000I0J135000D01*
G01*
X21445000Y-17595000D01*
G75*
G02*
X21580000Y-17460000I135000J0D01*
G01*
X21850000Y-17460000D01*
G75*
G02*
X21985000Y-17595000I0J-135000D01*
G01*
G37*
G36*
G01*
X23005000Y-17595000D02*
X23005000Y-17965000D01*
G75*
G02*
X22870000Y-18100000I-135000J0D01*
G01*
X22600000Y-18100000D01*
G75*
G02*
X22465000Y-17965000I0J135000D01*
G01*
X22465000Y-17595000D01*
G75*
G02*
X22600000Y-17460000I135000J0D01*
G01*
X22870000Y-17460000D01*
G75*
G02*
X23005000Y-17595000I0J-135000D01*
G01*
G37*
G04 #@! TD*
G04 #@! TO.C,R4*
G36*
G01*
X22465000Y-16695000D02*
X22465000Y-16325000D01*
G75*
G02*
X22600000Y-16190000I135000J0D01*
G01*
X22870000Y-16190000D01*
G75*
G02*
X23005000Y-16325000I0J-135000D01*
G01*
X23005000Y-16695000D01*
G75*
G02*
X22870000Y-16830000I-135000J0D01*
G01*
X22600000Y-16830000D01*
G75*
G02*
X22465000Y-16695000I0J135000D01*
G01*
G37*
G36*
G01*
X21445000Y-16695000D02*
X21445000Y-16325000D01*
G75*
G02*
X21580000Y-16190000I135000J0D01*
G01*
X21850000Y-16190000D01*
G75*
G02*
X21985000Y-16325000I0J-135000D01*
G01*
X21985000Y-16695000D01*
G75*
G02*
X21850000Y-16830000I-135000J0D01*
G01*
X21580000Y-16830000D01*
G75*
G02*
X21445000Y-16695000I0J135000D01*
G01*
G37*
G04 #@! TD*
G04 #@! TO.C,R2*
G36*
G01*
X8650000Y-11880000D02*
X8650000Y-12250000D01*
G75*
G02*
X8515000Y-12385000I-135000J0D01*
G01*
X8245000Y-12385000D01*
G75*
G02*
X8110000Y-12250000I0J135000D01*
G01*
X8110000Y-11880000D01*
G75*
G02*
X8245000Y-11745000I135000J0D01*
G01*
X8515000Y-11745000D01*
G75*
G02*
X8650000Y-11880000I0J-135000D01*
G01*
G37*
G36*
G01*
X9670000Y-11880000D02*
X9670000Y-12250000D01*
G75*
G02*
X9535000Y-12385000I-135000J0D01*
G01*
X9265000Y-12385000D01*
G75*
G02*
X9130000Y-12250000I0J135000D01*
G01*
X9130000Y-11880000D01*
G75*
G02*
X9265000Y-11745000I135000J0D01*
G01*
X9535000Y-11745000D01*
G75*
G02*
X9670000Y-11880000I0J-135000D01*
G01*
G37*
G04 #@! TD*
G04 #@! TO.C,R1*
G36*
G01*
X8525000Y-14420000D02*
X8525000Y-14790000D01*
G75*
G02*
X8390000Y-14925000I-135000J0D01*
G01*
X8120000Y-14925000D01*
G75*
G02*
X7985000Y-14790000I0J135000D01*
G01*
X7985000Y-14420000D01*
G75*
G02*
X8120000Y-14285000I135000J0D01*
G01*
X8390000Y-14285000D01*
G75*
G02*
X8525000Y-14420000I0J-135000D01*
G01*
G37*
G36*
G01*
X9545000Y-14420000D02*
X9545000Y-14790000D01*
G75*
G02*
X9410000Y-14925000I-135000J0D01*
G01*
X9140000Y-14925000D01*
G75*
G02*
X9005000Y-14790000I0J135000D01*
G01*
X9005000Y-14420000D01*
G75*
G02*
X9140000Y-14285000I135000J0D01*
G01*
X9410000Y-14285000D01*
G75*
G02*
X9545000Y-14420000I0J-135000D01*
G01*
G37*
G04 #@! TD*
D14*
G04 #@! TO.C,Q1*
X6715000Y-28575000D03*
X4715000Y-29525000D03*
X4715000Y-27625000D03*
G04 #@! TD*
D15*
G04 #@! TO.C,D4*
X16095000Y-99060000D03*
X18195000Y-99060000D03*
G04 #@! TD*
G04 #@! TO.C,D3*
X18195000Y-88900000D03*
X16095000Y-88900000D03*
G04 #@! TD*
G04 #@! TO.C,C11*
G36*
G01*
X21140000Y-5875000D02*
X21140000Y-6825000D01*
G75*
G02*
X20890000Y-7075000I-250000J0D01*
G01*
X20390000Y-7075000D01*
G75*
G02*
X20140000Y-6825000I0J250000D01*
G01*
X20140000Y-5875000D01*
G75*
G02*
X20390000Y-5625000I250000J0D01*
G01*
X20890000Y-5625000D01*
G75*
G02*
X21140000Y-5875000I0J-250000D01*
G01*
G37*
G36*
G01*
X23040000Y-5875000D02*
X23040000Y-6825000D01*
G75*
G02*
X22790000Y-7075000I-250000J0D01*
G01*
X22290000Y-7075000D01*
G75*
G02*
X22040000Y-6825000I0J250000D01*
G01*
X22040000Y-5875000D01*
G75*
G02*
X22290000Y-5625000I250000J0D01*
G01*
X22790000Y-5625000D01*
G75*
G02*
X23040000Y-5875000I0J-250000D01*
G01*
G37*
G04 #@! TD*
G04 #@! TO.C,C10*
G36*
G01*
X21265000Y-3560000D02*
X21265000Y-4060000D01*
G75*
G02*
X21040000Y-4285000I-225000J0D01*
G01*
X20590000Y-4285000D01*
G75*
G02*
X20365000Y-4060000I0J225000D01*
G01*
X20365000Y-3560000D01*
G75*
G02*
X20590000Y-3335000I225000J0D01*
G01*
X21040000Y-3335000D01*
G75*
G02*
X21265000Y-3560000I0J-225000D01*
G01*
G37*
G36*
G01*
X22815000Y-3560000D02*
X22815000Y-4060000D01*
G75*
G02*
X22590000Y-4285000I-225000J0D01*
G01*
X22140000Y-4285000D01*
G75*
G02*
X21915000Y-4060000I0J225000D01*
G01*
X21915000Y-3560000D01*
G75*
G02*
X22140000Y-3335000I225000J0D01*
G01*
X22590000Y-3335000D01*
G75*
G02*
X22815000Y-3560000I0J-225000D01*
G01*
G37*
G04 #@! TD*
G04 #@! TO.C,C9*
G36*
G01*
X12265000Y-42080000D02*
X12265000Y-41740000D01*
G75*
G02*
X12405000Y-41600000I140000J0D01*
G01*
X12685000Y-41600000D01*
G75*
G02*
X12825000Y-41740000I0J-140000D01*
G01*
X12825000Y-42080000D01*
G75*
G02*
X12685000Y-42220000I-140000J0D01*
G01*
X12405000Y-42220000D01*
G75*
G02*
X12265000Y-42080000I0J140000D01*
G01*
G37*
G36*
G01*
X11305000Y-42080000D02*
X11305000Y-41740000D01*
G75*
G02*
X11445000Y-41600000I140000J0D01*
G01*
X11725000Y-41600000D01*
G75*
G02*
X11865000Y-41740000I0J-140000D01*
G01*
X11865000Y-42080000D01*
G75*
G02*
X11725000Y-42220000I-140000J0D01*
G01*
X11445000Y-42220000D01*
G75*
G02*
X11305000Y-42080000I0J140000D01*
G01*
G37*
G04 #@! TD*
G04 #@! TO.C,C8*
G36*
G01*
X22580000Y-38270000D02*
X22580000Y-37930000D01*
G75*
G02*
X22720000Y-37790000I140000J0D01*
G01*
X23000000Y-37790000D01*
G75*
G02*
X23140000Y-37930000I0J-140000D01*
G01*
X23140000Y-38270000D01*
G75*
G02*
X23000000Y-38410000I-140000J0D01*
G01*
X22720000Y-38410000D01*
G75*
G02*
X22580000Y-38270000I0J140000D01*
G01*
G37*
G36*
G01*
X21620000Y-38270000D02*
X21620000Y-37930000D01*
G75*
G02*
X21760000Y-37790000I140000J0D01*
G01*
X22040000Y-37790000D01*
G75*
G02*
X22180000Y-37930000I0J-140000D01*
G01*
X22180000Y-38270000D01*
G75*
G02*
X22040000Y-38410000I-140000J0D01*
G01*
X21760000Y-38410000D01*
G75*
G02*
X21620000Y-38270000I0J140000D01*
G01*
G37*
G04 #@! TD*
G04 #@! TO.C,C7*
G36*
G01*
X12265000Y-31920000D02*
X12265000Y-31580000D01*
G75*
G02*
X12405000Y-31440000I140000J0D01*
G01*
X12685000Y-31440000D01*
G75*
G02*
X12825000Y-31580000I0J-140000D01*
G01*
X12825000Y-31920000D01*
G75*
G02*
X12685000Y-32060000I-140000J0D01*
G01*
X12405000Y-32060000D01*
G75*
G02*
X12265000Y-31920000I0J140000D01*
G01*
G37*
G36*
G01*
X11305000Y-31920000D02*
X11305000Y-31580000D01*
G75*
G02*
X11445000Y-31440000I140000J0D01*
G01*
X11725000Y-31440000D01*
G75*
G02*
X11865000Y-31580000I0J-140000D01*
G01*
X11865000Y-31920000D01*
G75*
G02*
X11725000Y-32060000I-140000J0D01*
G01*
X11445000Y-32060000D01*
G75*
G02*
X11305000Y-31920000I0J140000D01*
G01*
G37*
G04 #@! TD*
G04 #@! TO.C,C5*
G36*
G01*
X12265000Y-17950000D02*
X12265000Y-17610000D01*
G75*
G02*
X12405000Y-17470000I140000J0D01*
G01*
X12685000Y-17470000D01*
G75*
G02*
X12825000Y-17610000I0J-140000D01*
G01*
X12825000Y-17950000D01*
G75*
G02*
X12685000Y-18090000I-140000J0D01*
G01*
X12405000Y-18090000D01*
G75*
G02*
X12265000Y-17950000I0J140000D01*
G01*
G37*
G36*
G01*
X11305000Y-17950000D02*
X11305000Y-17610000D01*
G75*
G02*
X11445000Y-17470000I140000J0D01*
G01*
X11725000Y-17470000D01*
G75*
G02*
X11865000Y-17610000I0J-140000D01*
G01*
X11865000Y-17950000D01*
G75*
G02*
X11725000Y-18090000I-140000J0D01*
G01*
X11445000Y-18090000D01*
G75*
G02*
X11305000Y-17950000I0J140000D01*
G01*
G37*
G04 #@! TD*
G04 #@! TO.C,C4*
G36*
G01*
X19855000Y-11865000D02*
X19515000Y-11865000D01*
G75*
G02*
X19375000Y-11725000I0J140000D01*
G01*
X19375000Y-11445000D01*
G75*
G02*
X19515000Y-11305000I140000J0D01*
G01*
X19855000Y-11305000D01*
G75*
G02*
X19995000Y-11445000I0J-140000D01*
G01*
X19995000Y-11725000D01*
G75*
G02*
X19855000Y-11865000I-140000J0D01*
G01*
G37*
G36*
G01*
X19855000Y-12825000D02*
X19515000Y-12825000D01*
G75*
G02*
X19375000Y-12685000I0J140000D01*
G01*
X19375000Y-12405000D01*
G75*
G02*
X19515000Y-12265000I140000J0D01*
G01*
X19855000Y-12265000D01*
G75*
G02*
X19995000Y-12405000I0J-140000D01*
G01*
X19995000Y-12685000D01*
G75*
G02*
X19855000Y-12825000I-140000J0D01*
G01*
G37*
G04 #@! TD*
G04 #@! TO.C,C1*
G36*
G01*
X21390000Y-8720000D02*
X21390000Y-9060000D01*
G75*
G02*
X21250000Y-9200000I-140000J0D01*
G01*
X20970000Y-9200000D01*
G75*
G02*
X20830000Y-9060000I0J140000D01*
G01*
X20830000Y-8720000D01*
G75*
G02*
X20970000Y-8580000I140000J0D01*
G01*
X21250000Y-8580000D01*
G75*
G02*
X21390000Y-8720000I0J-140000D01*
G01*
G37*
G36*
G01*
X22350000Y-8720000D02*
X22350000Y-9060000D01*
G75*
G02*
X22210000Y-9200000I-140000J0D01*
G01*
X21930000Y-9200000D01*
G75*
G02*
X21790000Y-9060000I0J140000D01*
G01*
X21790000Y-8720000D01*
G75*
G02*
X21930000Y-8580000I140000J0D01*
G01*
X22210000Y-8580000D01*
G75*
G02*
X22350000Y-8720000I0J-140000D01*
G01*
G37*
G04 #@! TD*
D16*
G04 #@! TO.C,J4*
X12800000Y-62230000D03*
X7000000Y-62230000D03*
X1700000Y-62230000D03*
G04 #@! TD*
G04 #@! TO.C,J3*
X12800000Y-73660000D03*
X7000000Y-73660000D03*
X1700000Y-73660000D03*
G04 #@! TD*
G04 #@! TO.C,J2*
X12800000Y-85090000D03*
X7000000Y-85090000D03*
X1700000Y-85090000D03*
G04 #@! TD*
G04 #@! TO.C,J1*
X12800000Y-96520000D03*
X7000000Y-96520000D03*
X1700000Y-96520000D03*
G04 #@! TD*
D10*
G04 #@! TO.C,J5*
X25400000Y-99060000D03*
X22860000Y-99060000D03*
X25400000Y-96520000D03*
X22860000Y-96520000D03*
X25400000Y-93980000D03*
X22860000Y-93980000D03*
X25400000Y-91440000D03*
X22860000Y-91440000D03*
X25400000Y-88900000D03*
D11*
X22860000Y-88900000D03*
G04 #@! TD*
D17*
G04 #@! TO.C,RV1*
X5000000Y-14565000D03*
X5000000Y-12065000D03*
X5000000Y-9565000D03*
G04 #@! TD*
D18*
G04 #@! TO.C,D2*
X2540000Y-55245000D03*
D19*
X2540000Y-52705000D03*
G04 #@! TD*
D18*
G04 #@! TO.C,D1*
X6985000Y-52705000D03*
D19*
X6985000Y-55245000D03*
G04 #@! TD*
M02*
