<?xml version="1.0" encoding="UTF-8" standalone="no"?>
<!-- Created with Inkscape (http://www.inkscape.org/) -->

<svg
   version="1.1"
   id="svg2"
   xml:space="preserve"
   width="20.002499mm"
   height="128.51694mm"
   viewBox="0 0 75.599993 485.73329"
   sodipodi:docname="4CH Mixer Front.svg"
   inkscape:export-filename="H:\+--- Sortierte Dokumente ---+\GitHub\CATs-Eurosynth\GitHub\Media\Standard Line\4Ch Mixer Front.png"
   inkscape:export-xdpi="72"
   inkscape:export-ydpi="72"
   inkscape:version="1.1.1 (3bf5ae0d25, 2021-09-20)"
   xmlns:inkscape="http://www.inkscape.org/namespaces/inkscape"
   xmlns:sodipodi="http://sodipodi.sourceforge.net/DTD/sodipodi-0.dtd"
   xmlns="http://www.w3.org/2000/svg"
   xmlns:svg="http://www.w3.org/2000/svg"><defs
     id="defs6" /><sodipodi:namedview
     id="namedview4"
     pagecolor="#ffffff"
     bordercolor="#666666"
     borderopacity="1.0"
     inkscape:pageshadow="2"
     inkscape:pageopacity="0.0"
     inkscape:pagecheckerboard="0"
     showgrid="false"
     units="mm"
     inkscape:document-units="mm"
     fit-margin-top="0"
     fit-margin-left="0"
     fit-margin-right="0"
     fit-margin-bottom="0"
     inkscape:zoom="1.5536471"
     inkscape:cx="2.2527638"
     inkscape:cy="215.29985"
     inkscape:window-width="1920"
     inkscape:window-height="1057"
     inkscape:window-x="1912"
     inkscape:window-y="-8"
     inkscape:window-maximized="1"
     inkscape:current-layer="g8" /><g
     id="g8"
     inkscape:groupmode="layer"
     inkscape:label="4CH Mixer Front"
     transform="matrix(1.3333333,0,0,-1.3333333,-384.93332,860.79998)"><g
       id="g10"
       transform="translate(315.6,636.4)"
       style="vector-effect:non-scaling-stroke;stroke-width:0.0075;stroke-miterlimit:4;stroke-dasharray:none;-inkscape-stroke:hairline"><path
         d="M 0,0 H 29.8 M 0,1.4 V 0 M 29.8,1.4 H 0 M 29.8,0 v 1.4 m -41.1,0 H -26.9 M -11.3,0 V 1.4 M -26.9,0 h 15.6 M -26.9,1.4 V 0 M 3.9,-15 4,-15.5 4.1,-15.9 m 0,0 0.1,-0.1 v -0.1 m 0,0 -0.1,-0.2 -0.2,-0.1 -0.3,-0.1 m 0,0 H 3.4 l -0.1,0.1 -0.2,0.1 v 0.1 L 3,-15.5 m 0,0 0.1,1.8 0.3,1.5 m 0,0 0.1,0.5 v 0.4 m 0,0 0.1,0.6 0.2,0.2 0.1,0.1 H 4 m 0,0 h 0.3 l 0.2,-0.1 0.1,-0.2 0.1,-0.2 m 0,0 v -0.2 l -0.1,-0.2 m 0,0 -0.5,-2 -0.2,-1.7 m 0.8,6.3 -0.1,0.1 H 4.5 v 0.2 m 0,0 v 0.1 l -0.1,0.1 m 0,0 -0.1,0.3 v 0.3 m 0,0 0.1,0.3 0.2,0.3 0.3,0.1 H 5.1 M 5.7,-7.2 5.6,-7.8 5.4,-8.3 5.1,-8.5 4.7,-8.7 m 0.4,1.8 H 5.3 L 5.5,-7 5.6,-7.1 5.7,-7.2 m -5.5,-2.4 -1,-1.2 -0.8,-1 m 0,0 -1.2,-1.6 -0.4,-0.4 -0.4,-0.3 -0.4,-0.2 m 0,0 -0.3,0.1 -0.2,0.2 -0.2,0.4 -0.4,1 m 0,0 -0.5,1.4 -0.4,1.1 m 0,0 -0.1,-0.3 -0.1,-0.3 m 0,0 -0.2,-1.3 -0.2,-1 m 0,0 -0.5,-1.8 -0.2,-1.5 m 0,0 -0.1,-0.2 -0.1,-0.1 h -0.3 m 0,0 H -8 l -0.2,0.2 -0.1,0.2 v 0.1 m 0,0 0.1,1 0.2,0.8 m 0,0 0.5,1.8 m 0,0 0.5,2.2 0.2,1.7 m 0,0 v 0.1 l 0.1,0.1 v 0.1 l 0.2,0.1 0.5,0.1 m 0,0 0.2,-0.2 0.2,-0.2 0.1,-0.4 m 0,0 0.1,-0.3 0.1,-0.2 m 0,0 0.8,-2.1 m 0,0 0.3,-0.9 0.1,-0.4 0.1,-0.2 0.2,-0.2 m 0,0 0.4,0.4 0.4,0.5 0.4,0.5 0.8,1.1 M 1.3,-8.4 1.2,-9.3 1.1,-9.8 1,-10.4 0.9,-10.9 m 0,0 -0.1,-1.2 -0.1,-0.8 v -0.8 l -0.1,-0.8 m 0,0 0.1,-0.4 v -0.3 m 0,0 0.1,-0.3 v -0.2 m 0,0 -0.1,-0.6 v -0.1 L 0.5,-16.5 H 0.2 m 0,0 H 0.1 l -0.2,0.1 -0.1,0.1 -0.1,0.1 -0.1,0.7 m 0,0 0.2,2.5 0.2,1.9 m 0,0 0.1,0.2 v 0.2 m 0,0 v 0.2 0.2 m 0,0 0.1,0.2 v 0.3 m 0,0 v 0.1 0.1 m -2,-1.1 1.2,1.6 0.4,0.4 0.3,0.4 0.4,0.4 m 0,0 0.5,-0.2 0.2,-0.1 0.1,-0.2 m 6.9,-5.8 -1.1,-1.1 -0.6,-1.1 m 0,0 -0.2,-0.3 -0.2,-0.3 m 0,0 -0.3,0.1 -0.2,0.1 -0.1,0.2 v 0.3 m 0,0 0.3,0.8 0.5,0.7 1.1,1.1 m 0,0 0.3,0.2 m 0,0 -0.8,1.4 -0.4,1.2 m 0,0 0.1,0.3 0.1,0.3 0.2,0.2 h 0.3 m 0,0 h 0.1 l 0.1,-0.1 0.1,-0.2 0.1,-0.6 m 0,0 0.3,-1.1 0.5,-0.8 m 0,0 1.3,1.3 0.8,1.1 m 0,0 0.2,0.4 0.2,0.1 H 11 m 0,0 h 0.3 l 0.2,-0.2 0.1,-0.1 v -0.2 m 0,0 -0.4,-0.7 -0.5,-0.6 -0.5,-0.6 -1.3,-1.2 m 0,0 1,-1.1 1,-0.7 m 0,0 0.1,-0.1 h 0.1 m 0,0 0.1,-0.1 v -0.1 m 0,0 -0.1,-0.3 -0.2,-0.2 -0.1,-0.1 h -0.2 m 0,0 -0.6,0.2 -0.5,0.4 -0.4,0.4 -0.9,1.1 m -8.3,-16.7 -0.6,0.1 -0.4,0.5 -0.2,0.4 v 0.5 m 0,0 0.3,1.5 0.9,1.2 1,0.7 1.1,0.4 m 0,0 0.9,-0.3 0.8,-0.5 0.3,-0.7 0.1,-0.7 m 0,0 -0.3,-1 -0.7,-0.8 -0.8,-0.6 -1.2,-0.5 -1.2,-0.2 m 2.4,4.4 H 2.2 m 0,0 -0.2,0.1 H 1.9 m 0,0 -1,-0.3 -0.9,-0.9 -0.4,-0.7 -0.2,-0.9 m 0,0 v -0.5 l 0.3,-0.4 0.7,-0.1 m 0,0 1.1,0.3 0.9,0.6 0.4,0.4 0.4,0.4 0.3,0.6 m 0,0 -0.1,0.5 -0.2,0.4 -0.6,0.6 m 0,0 -0.2,-0.1 H 2.3 M 1.8,-31.3 H 1 M 1,-37 h 0.8 m 0,0 v 5.7 m -0.8,0 V -37 m -20.3,-13.5 0.1,-0.3 m 0,0 -0.1,-0.2 h -0.1 l -0.2,-0.1 H -20 m 0,0 h -0.1 l -0.1,0.1 m 0,0 -0.1,0.2 h -0.1 m 0,0 -0.7,-0.2 -0.6,-0.1 m 0,0 -0.5,-0.2 -0.5,-0.1 m 0,0 -0.2,0.1 -0.2,0.1 -0.1,0.2 v 0.2 m 0,0 v 0.1 l 0.2,0.2 0.4,0.1 0.8,0.2 m 0,0 0.8,0.2 0.6,0.2 m 0,0 0.1,1.4 0.2,1.1 m 0,0 0.3,2.5 m 0,0 -0.5,-0.2 -0.4,-0.2 m 0,0 -1,-0.6 -0.8,-0.2 m 0,0 h -0.2 v 0.1 h -0.1 v 0.3 m 0,0 v 0.1 l 0.1,0.2 0.2,0.1 0.5,0.3 1.1,0.5 0.6,0.4 0.7,0.4 0.7,0.3 m 0,0 0.2,-0.1 0.1,-0.2 0.1,-0.4 m 0,0 v -0.1 l -0.1,-0.1 -0.1,-0.1 m 0,0 -0.6,-3 -0.1,-1.2 -0.1,-1.1 m 0,0 0.7,0.1 0.6,0.1 m 0,0 1,0.2 0.8,0.1 m 0,0 0.1,-0.2 0.1,-0.3 m 0,0 -0.1,-0.2 h -0.1 l -0.1,-0.1 -0.4,-0.1 -0.9,-0.2 m 0,0 -0.8,-0.1 -0.7,-0.2 m 31.1,-8.1 -3.7,4.4 m 3,-4.9 0.7,0.5 m -4.3,3.8 3.6,-4.3 m -3,4.9 -0.6,-0.6 m -15.8,-4.3 3.7,4.3 m -4.3,-3.8 0.6,-0.5 m 3,4.9 -3.6,-4.4 m 4.3,3.8 -0.7,0.6 m 20.6,-6.3 v -0.1 l -0.1,-0.1 -0.1,-0.1 m 0,0 -0.2,-0.1 -0.1,-0.1 m 0,0 -0.2,-0.1 -0.1,-0.1 m 0,0 -0.2,-0.2 m 0,0 h -0.1 v -0.1 m 0,0 -0.2,-0.1 m 0,0 v -0.1 h -0.1 m 0,0 0.1,-0.3 0.2,-0.2 m 0,0 0.2,-0.2 0.1,-0.2 m 0,0 0.2,-0.3 v -0.1 -0.1 h -0.1 m 0,0 v -0.1 h -0.1 -0.1 l -0.1,0.1 m 0,0 -0.2,0.3 -0.2,0.2 m 0,0 -0.2,0.3 -0.2,0.3 m 0,0 -0.3,-0.3 -0.2,-0.2 m 0,0 -0.1,-0.1 -0.1,-0.1 m 0,0 -0.1,-0.1 m 0,0 -0.1,-0.1 h -0.1 l -0.1,0.1 h -0.1 m 0,0 v 0.2 0.1 m 0,0 0.1,0.1 0.1,0.1 m 0,0 h 0.1 l 0.1,0.1 m 0,0 0.6,0.5 m 0,0 -0.1,0.2 -0.1,0.1 m 0,0 -0.2,0.3 -0.3,0.2 m 0,0 -0.1,0.1 -0.1,0.1 m 0,0 -0.1,0.2 v 0.1 0.1 l 0.1,0.1 m 0,0 h 0.1 0.1 l 0.1,-0.1 m 0,0 0.2,-0.2 0.1,-0.2 m 0,0 0.2,-0.2 0.1,-0.2 m 0,0 0.2,-0.2 0.1,-0.1 m 0,0 0.2,0.2 0.1,0.1 m 0,0 0.7,0.6 m 0,0 0.3,0.2 H 15 l 0.1,-0.1 0.2,-0.1 m -26,-0.8 0.2,-0.1 m 0,0 0.5,-0.4 0.4,-0.3 m 0,0 0.1,-0.1 0.1,-0.1 m 0,0 0.2,-0.3 0.1,-0.2 v -0.1 -0.1 m 0,0 h -0.1 l -0.1,-0.1 h -0.1 l -0.1,0.1 m 0,0 -0.1,0.1 -0.1,0.1 m 0,0 -0.1,0.1 -0.1,0.1 m 0,0 -0.1,0.1 -0.1,0.1 m 0,0 -0.2,0.2 -0.1,0.1 m 0,0 -0.2,0.1 -0.1,0.2 m 0,0 -0.2,0.1 -0.2,0.2 m 0,0 -0.3,0.2 -0.1,0.1 m 0,0 -0.2,0.2 h -0.1 v 0.1 l 0.1,0.1 m 0,0 0.1,0.1 h 0.1 l 0.2,-0.1 0.4,-0.3 m 0,0 0.2,-0.2 m 10.6,-9.2 -0.6,0.1 -0.4,0.5 -0.2,0.4 v 0.5 m 0,0 0.3,1.5 0.9,1.2 1,0.7 1.1,0.4 m 0,0 0.9,-0.3 0.8,-0.5 0.3,-0.7 0.1,-0.7 m 0,0 -0.3,-1 -0.7,-0.8 -0.8,-0.6 -1.2,-0.5 -1.2,-0.2 m 2.4,4.4 H 2.2 m 0,0 L 2,-66 H 1.9 m 0,0 -1,-0.3 -0.9,-0.9 -0.4,-0.7 -0.2,-0.9 m 0,0 v -0.5 l 0.3,-0.4 0.7,-0.1 m 0,0 1.1,0.3 0.9,0.6 0.4,0.4 0.4,0.4 0.3,0.6 m 0,0 -0.1,0.5 -0.2,0.4 -0.6,0.6 m 0,0 -0.2,-0.1 H 2.3 M 1.8,-70.9 H 1 m 0,-5.7 H 1.8 M 1,-70.9 v -5.7 m 0.8,0 v 5.7 M -21,-89.4 h 0.5 l 0.4,0.1 m 0,0 h 2.5 m 0,0 0.5,-0.1 0.4,0.1 m 0,0 h 0.2 l 0.1,0.1 m 0,0 0.2,-0.1 0.1,-0.1 v -0.1 l 0.1,-0.1 m 0,0 -0.1,-0.3 -0.1,-0.2 -0.3,-0.2 -0.6,-0.1 m 0,0 h -0.2 m 0,0 h -0.4 -0.4 m 0,0 -1,0.2 H -20 m 0,0 -1.6,-0.2 -0.6,-0.2 -0.5,-0.3 m 0,0 -0.4,-0.4 -0.1,-0.1 h -0.2 m 0,0 h -0.2 l -0.2,0.1 -0.1,0.1 v 0.2 m 0,0 0.3,0.8 0.6,0.6 1.2,0.7 m 0,0 1.2,0.8 1,0.9 0.7,0.9 0.4,1 m 0,0 -0.2,0.5 -0.4,0.4 -0.3,0.2 -0.4,0.1 m 0,0 -0.7,-0.2 -0.6,-0.3 -0.8,-0.7 m 0,0 -0.3,-0.2 -0.3,-0.1 m 0,0 -0.2,0.1 -0.1,0.2 -0.1,0.4 m 0,0 0.4,0.4 0.4,0.3 0.5,0.3 0.5,0.4 0.8,0.3 0.9,0.1 m 0,0 0.8,-0.3 0.6,-0.5 0.4,-0.6 0.3,-0.6 m 0,0 -0.3,-1 -0.7,-0.9 -0.7,-0.8 -2,-1.6 m 12.7,-9.3 3.7,4.3 m -4.3,-3.8 0.6,-0.5 m 3,4.9 -3.6,-4.4 m 4.3,3.8 -0.7,0.6 m 16.4,-4.9 0.7,0.5 m -4.3,3.8 3.6,-4.3 m 0.7,0.5 -3.7,4.4 m 0,0 -0.6,-0.6 m 7.8,-5.7 v -0.1 l -0.1,-0.1 -0.1,-0.1 m 0,0 -0.2,-0.1 -0.1,-0.1 m 0,0 -0.2,-0.1 -0.1,-0.1 m 0,0 -0.2,-0.2 m 0,0 h -0.1 v -0.1 m 0,0 -0.2,-0.1 m 0,0 v -0.1 h -0.1 m 0,0 0.1,-0.3 0.2,-0.2 m 0,0 0.2,-0.2 0.1,-0.2 m 0,0 0.2,-0.3 v -0.1 -0.1 h -0.1 m 0,0 v -0.1 h -0.1 -0.1 l -0.1,0.1 m 0,0 -0.2,0.3 -0.2,0.2 m 0,0 -0.2,0.3 -0.2,0.3 m 0,0 -0.3,-0.3 -0.2,-0.2 m 0,0 -0.1,-0.1 -0.1,-0.1 m 0,0 -0.1,-0.1 m 0,0 -0.1,-0.1 h -0.1 l -0.1,0.1 h -0.1 m 0,0 v 0.2 0.1 m 0,0 0.1,0.1 0.1,0.1 m 0,0 h 0.1 l 0.1,0.1 m 0,0 0.6,0.5 m 0,0 -0.1,0.2 -0.1,0.1 m 0,0 -0.2,0.3 -0.3,0.2 m 0,0 -0.1,0.1 -0.1,0.1 m 0,0 -0.1,0.2 v 0.1 0.1 l 0.1,0.1 m 0,0 h 0.1 0.1 l 0.1,-0.1 m 0,0 0.2,-0.2 0.1,-0.2 m 0,0 0.2,-0.2 0.1,-0.2 m 0,0 0.2,-0.2 0.1,-0.1 m 0,0 0.2,0.2 0.1,0.1 m 0,0 0.7,0.6 m 0,0 0.3,0.2 H 15 l 0.1,-0.1 0.2,-0.1 m -26,-0.8 0.2,-0.1 m 0,0 0.5,-0.4 0.4,-0.3 m 0,0 0.1,-0.1 0.1,-0.1 m 0,0 0.2,-0.3 0.1,-0.2 v -0.1 -0.1 m 0,0 h -0.1 l -0.1,-0.1 h -0.1 l -0.1,0.1 m 0,0 -0.1,0.1 -0.1,0.1 m 0,0 -0.1,0.1 -0.1,0.1 m 0,0 -0.1,0.1 -0.1,0.1 m 0,0 -0.2,0.2 -0.1,0.1 m 0,0 -0.2,0.1 -0.1,0.2 m 0,0 -0.2,0.1 -0.2,0.2 m 0,0 -0.3,0.2 -0.1,0.1 m 0,0 -0.2,0.2 h -0.1 v 0.1 l 0.1,0.1 m 0,0 0.1,0.1 h 0.1 l 0.2,-0.1 0.4,-0.3 m 0,0 0.2,-0.2 m 10.6,-9.2 -0.6,0.1 -0.4,0.5 -0.2,0.4 v 0.5 m 0,0 0.3,1.5 0.9,1.2 1,0.7 1.1,0.4 m 0,0 0.9,-0.3 0.8,-0.5 0.3,-0.7 0.1,-0.7 m 0,0 -0.3,-1 -0.7,-0.8 -0.8,-0.6 -1.2,-0.5 -1.2,-0.2 m 2.4,4.4 H 2.2 m 0,0 -0.2,0.1 H 1.9 m 0,0 -1,-0.3 -0.9,-0.9 -0.4,-0.7 -0.2,-0.9 m 0,0 v -0.5 l 0.3,-0.4 0.7,-0.1 m 0,0 1.1,0.3 0.9,0.6 0.4,0.4 0.4,0.4 0.3,0.6 m 0,0 -0.1,0.5 -0.2,0.4 -0.6,0.6 m 0,0 -0.2,-0.1 H 2.3 m -0.5,-4.8 H 1 m 0.8,-5.7 v 5.7 M 1,-116.2 h 0.8 m -0.8,5.7 v -5.7 m -22.4,-10.7 h -0.3 v 0.1 h -0.1 v 0.1 m 0,0 v 0.3 l 0.2,0.2 0.3,0.3 m 0,0 1,0.9 m 0,0 0.8,0.6 0.6,0.4 m 0,0 h -0.9 l -0.8,-0.1 m 0,0 -0.8,-0.1 H -22 m 0,0 h -0.4 l -0.4,0.2 -0.2,0.3 v 0.4 m 0.4,0.4 0.2,-0.1 h 0.1 m 0,0 0.4,-0.2 h 0.3 m 0,0 h 0.9 0.6 m 0,0 1.3,0.1 1,0.1 m 0,0 0.5,-0.1 0.1,-0.1 v -0.1 l 0.1,-0.2 m 0,0 -0.2,-0.4 -0.3,-0.3 -0.6,-0.4 m 0,0 -1,-0.6 -0.6,-0.6 m 0,0 0.5,0.1 h 0.4 m 0,0 0.8,-0.1 0.8,-0.3 0.6,-0.5 0.2,-0.4 0.1,-0.4 m 0,0 -0.3,-0.7 -0.4,-0.7 -1.2,-0.9 -1.5,-0.6 -1.6,-0.2 m 0,0 -1.2,0.2 h -0.3 l -0.2,0.2 -0.2,0.2 v 0.3 m 0,0 v 0.3 l 0.1,0.2 0.2,0.1 0.2,0.1 m 0,0 0.1,-0.1 m 0,0 0.4,-0.2 m 0,0 0.7,-0.2 0.5,-0.1 m 0,0 1.1,0.1 1.1,0.3 0.9,0.7 0.4,0.4 0.2,0.5 m 0,0 -0.1,0.3 -0.1,0.3 -0.6,0.3 -1.3,0.1 m 0,0 -1.1,-0.1 -0.8,-0.3 m -1.6,3.6 v 0.1 l 0.1,0.2 0.2,0.1 h 0.1 m 34.4,-14.9 -3.7,4.4 m 3,-4.9 0.7,0.5 m -4.3,3.8 3.6,-4.3 m -3,4.9 -0.6,-0.6 m -15.8,-4.3 3.7,4.3 m -4.3,-3.8 0.6,-0.5 m 3,4.9 -3.6,-4.4 m 4.3,3.8 -0.7,0.6 m 20.6,-6.3 v -0.1 l -0.1,-0.1 -0.1,-0.1 m 0,0 -0.2,-0.1 -0.1,-0.1 m 0,0 -0.2,-0.1 -0.1,-0.1 m 0,0 -0.2,-0.2 m 0,0 h -0.1 v -0.1 m 0,0 -0.2,-0.1 m 0,0 v -0.1 h -0.1 m 0,0 0.1,-0.3 0.2,-0.2 m 0,0 0.2,-0.2 0.1,-0.2 m 0,0 0.2,-0.3 v -0.1 -0.1 h -0.1 m 0,0 v -0.1 h -0.1 -0.1 l -0.1,0.1 m 0,0 -0.2,0.3 -0.2,0.2 m 0,0 -0.2,0.3 -0.2,0.3 m 0,0 -0.3,-0.3 -0.2,-0.2 m 0,0 -0.1,-0.1 -0.1,-0.1 m 0,0 -0.1,-0.1 m 0,0 -0.1,-0.1 h -0.1 l -0.1,0.1 h -0.1 m 0,0 v 0.2 0.1 m 0,0 0.1,0.1 0.1,0.1 m 0,0 h 0.1 l 0.1,0.1 m 0,0 0.6,0.5 m 0,0 -0.1,0.2 -0.1,0.1 m 0,0 -0.2,0.3 -0.3,0.2 m 0,0 -0.1,0.1 -0.1,0.1 m 0,0 -0.1,0.2 v 0.1 0.1 l 0.1,0.1 m 0,0 h 0.1 0.1 l 0.1,-0.1 m 0,0 0.2,-0.2 0.1,-0.2 m 0,0 0.2,-0.2 0.1,-0.2 m 0,0 0.2,-0.2 0.1,-0.1 m 0,0 0.2,0.2 0.1,0.1 m 0,0 0.7,0.6 m 0,0 0.3,0.2 H 15 l 0.1,-0.1 0.2,-0.1 m -26,-0.8 0.2,-0.1 m 0,0 0.5,-0.4 0.4,-0.3 m 0,0 0.1,-0.1 0.1,-0.1 m 0,0 0.2,-0.3 0.1,-0.2 v -0.1 -0.1 m 0,0 h -0.1 l -0.1,-0.1 h -0.1 l -0.1,0.1 m 0,0 -0.1,0.1 -0.1,0.1 m 0,0 -0.1,0.1 -0.1,0.1 m 0,0 -0.1,0.1 -0.1,0.1 m 0,0 -0.2,0.2 -0.1,0.1 m 0,0 -0.2,0.1 -0.1,0.2 m 0,0 -0.2,0.1 -0.2,0.2 m 0,0 -0.3,0.2 -0.1,0.1 m 0,0 -0.2,0.2 h -0.1 v 0.1 l 0.1,0.1 m 0,0 0.1,0.1 h 0.1 l 0.2,-0.1 0.4,-0.3 m 0,0 0.2,-0.2 m 10.6,-9.2 -0.6,0.1 -0.4,0.5 -0.2,0.4 v 0.5 m 0,0 0.3,1.5 0.9,1.2 1,0.7 1.1,0.4 m 0,0 0.9,-0.3 0.8,-0.5 0.3,-0.7 0.1,-0.7 m 0,0 -0.3,-1 -0.7,-0.8 -0.8,-0.6 -1.2,-0.5 -1.2,-0.2 m 2.4,4.4 H 2.2 m 0,0 -0.2,0.1 H 1.9 m 0,0 -1,-0.3 -0.9,-0.9 -0.4,-0.7 -0.2,-0.9 m 0,0 v -0.5 l 0.3,-0.4 0.7,-0.1 m 0,0 1.1,0.3 0.9,0.6 0.4,0.4 0.4,0.4 0.3,0.6 m 0,0 -0.1,0.5 -0.2,0.4 -0.6,0.6 m 0,0 -0.2,-0.1 H 2.3 M 1,-155.8 h 0.8 m -0.8,5.7 v -5.7 m 0.8,5.7 H 1 m 0.8,-5.7 v 5.7 m -18.4,-17.2 -1.1,0.2 -0.8,0.1 m 0,0 -0.2,-0.7 v -0.5 m 0,0 v -0.3 m 0,0 v -0.2 m 0,0 v -0.3 m 0,0 v -0.2 -0.1 l 0.2,-0.2 m 0,0 0.1,-0.2 v -0.1 m 0,0 -0.1,-0.2 -0.1,-0.2 -0.2,-0.1 -0.1,-0.1 m 0,0 h -0.3 l -0.2,0.1 -0.2,0.2 -0.1,0.5 m 0,0 v 0.7 m 0,0 0.1,0.4 v 0.3 m 0,0 0.1,0.6 v 0.5 m 0,0 h -0.2 -0.2 m 0,0 -1.1,-0.1 -0.8,-0.1 m 0,0 -0.8,-0.1 -0.7,-0.1 m 0,0 -0.2,0.1 -0.2,0.1 -0.2,0.2 m 0,0 0.7,0.9 0.8,0.7 1.3,1.1 m 0,0 0.7,0.6 0.6,0.5 m 0,0 1,0.9 0.5,0.3 0.4,0.2 m 0.5,-0.2 -0.2,-0.7 -0.1,-0.5 m 0,0 -0.4,-1.6 -0.3,-1.2 m 0,0 0.8,-0.2 h 0.6 m 0,0 h 0.4 m 0,0 h 0.2 l 0.2,-0.1 0.1,-0.1 0.1,-0.5 m 0,0 -0.1,-0.2 v -0.1 h -0.1 l -0.2,-0.1 m 0,0 -0.1,0.1 h -0.1 m -3.1,3.1 -0.5,-0.5 -0.3,-0.3 m 0,0 -0.9,-0.8 -0.8,-0.6 m 0,0 v -0.1 h 0.1 m 0,0 0.9,0.1 h 0.8 m 0,0 0.6,0.1 0.5,0.1 m 0,0 0.1,0.4 0.1,0.4 m 0,0 0.3,1.1 0.1,0.9 m 0,0 -0.5,-0.5 -0.5,-0.3 m 1.8,2.3 h 0.3 l 0.1,-0.1 h 0.1 v -0.1 m -1.5,-13.6 -0.1,-0.1 h -0.1 m 0,0 h -0.1 -0.1 v 0.1 0.1 m 0,0 v 0.5 l 0.1,0.3 m 0,0 v 0.3 0.3 m 0,0 v 0 0.1 m 0,0 h -0.1 v 0.1 m 0,0 v 0 0.1 l 0.1,0.1 m 0,0 0.1,0.1 v 0.1 l 0.1,0.2 m 0,0 0.2,0.7 0.2,0.3 0.2,0.1 h 0.2 m 0,0 0.2,-0.1 0.1,-0.1 0.1,-0.1 v -0.1 m 0,0 -0.1,-0.3 v -0.1 l -0.1,-0.1 m 0,0 v 0 h -0.1 m 0,0 v 0.2 m 0,0 v 0.3 l -0.1,0.1 h -0.1 m 0,0 -0.1,-0.1 -0.1,-0.1 -0.2,-0.3 -0.1,-0.6 m 0,0 v -0.1 h 0.1 m 0,0 h 0.4 0.2 0.1 v -0.1 m 0,0 v 0 -0.1 h -0.1 -0.1 l -0.3,-0.1 m 0,0 h -0.2 -0.1 m 0,0 -0.1,-0.7 -0.1,-0.6 m 0,0 v -0.1 l 0.1,-0.1 m 0,0 v -0.1 m -1.5,0 v -0.1 h -0.1 -0.1 m 0,0 h -0.1 v 0.1 l -0.1,0.1 m 0,0 0.1,0.5 v 0.3 m 0,0 0.1,0.3 v 0.3 m 0,0 v 0 l -0.1,0.1 m 0,0 v 0 0.1 h -0.1 m 0,0 h 0.1 v 0.1 l 0.1,0.1 m 0,0 0.1,0.1 v 0.1 0.2 m 0,0 0.2,0.7 0.3,0.3 0.2,0.1 h 0.2 m 0,0 0.1,-0.1 0.2,-0.1 v -0.1 l 0.1,-0.1 m 0,0 -0.1,-0.3 v -0.1 l -0.1,-0.1 h -0.1 m 0,0 v 0 m 0,0 v 0.2 m 0,0 v 0.3 h -0.1 v 0.1 h -0.1 m 0,0 -0.2,-0.1 -0.1,-0.1 -0.1,-0.3 -0.1,-0.6 m 0,0 v -0.1 h 0.1 m 0,0 h 0.4 0.1 0.1 l 0.1,-0.1 m 0,0 v 0 l -0.1,-0.1 h -0.2 l -0.2,-0.1 m 0,0 h -0.2 -0.2 m 0,0 -0.1,-0.7 v -0.6 m 0,0 v -0.1 -0.1 m 0,0 v -0.1 m 3.5,0.5 v 0.1 l -0.1,0.1 -0.2,0.1 m 0,0 -0.4,0.2 -0.2,0.2 v 0.2 m 0,0 0.1,0.3 0.3,0.3 0.2,0.2 h 0.4 m 0,0 h 0.1 0.1 v -0.1 -0.1 m 0,0 v -0.1 l -0.1,-0.1 m 0,0 v 0.1 h -0.1 m 0,0 v 0 m 0,0 -0.5,-0.1 -0.1,-0.2 h -0.1 v -0.1 m 0,0 v -0.2 l 0.2,-0.1 0.2,-0.1 m 0,0 0.4,-0.3 0.1,-0.1 v -0.1 m 0,0 v -0.2 l -0.1,-0.2 -0.4,-0.1 -0.7,-0.2 m 0,0 -0.2,0.1 v 0.1 l -0.1,0.1 m 0,0 v 0 h 0.1 v 0.1 h 0.1 m 0,0 h 0.1 0.1 m 0,0 v 0 h 0.1 m 0,0 h 0.4 l 0.2,0.1 0.1,0.1 m 3.5,1.5 h 0.2 0.2 m 0,0 h 0.1 l 0.1,0.1 m 0,0 0.2,-0.1 0.1,-0.1 m 0,0 v 0 l -0.1,-0.1 h -0.2 m 0,0 -0.4,-0.1 h -0.2 -0.1 v -0.1 -0.1 l -0.2,-0.9 m 0,0 v -0.2 l 0.1,-0.1 h 0.1 m 0,0 h 0.1 l 0.2,0.1 0.2,0.2 m 0,0 v 0 l 0.1,0.1 m 0,0 0.1,-0.1 m 0,0 -0.1,-0.3 -0.3,-0.2 -0.2,-0.1 h -0.2 m 0,0 h -0.1 l -0.2,0.1 -0.1,0.1 v 0.3 m 0,0 v 0.4 0.2 m 0,0 0.1,0.3 v 0.2 m 0,0 v 0.1 m 0,0 h -0.2 m 0,0 h -0.1 -0.1 v 0.1 m 0,0 v 0.1 h 0.1 m 0,0 h 0.4 m 0,0 v 0.1 l 0.1,0.1 v 0.2 l 0.1,0.3 m 0,0 0.1,0.2 h 0.1 m 0,0 h 0.1 l 0.1,-0.1 m 0,0 -0.1,-0.2 v -0.1 m 0,0 -0.1,-0.4 m -9.7,-2.1 -0.3,0.2 -0.3,0.2 -0.1,0.3 -0.1,0.3 m 0,0 0.2,0.7 0.4,0.7 0.5,0.4 0.6,0.1 m 1.1,-1 -0.2,-0.8 -0.6,-0.6 -0.5,-0.4 -0.7,-0.1 m 0.1,0.4 0.7,0.1 0.5,0.5 0.3,0.5 0.1,0.5 m 0,0 -0.1,0.3 -0.2,0.2 -0.5,0.2 m 0,0 -0.6,-0.3 -0.4,-0.5 -0.2,-0.4 -0.1,-0.5 m 0,0 v -0.3 l 0.2,-0.2 0.1,-0.1 h 0.2 m 0.8,2.5 h 0.4 l 0.5,-0.3 0.2,-0.3 v -0.4 m 12.8,-4 3.7,4.3 m -4.3,-3.8 0.6,-0.5 m 3,4.9 -3.6,-4.4 m 4.3,3.8 -0.7,0.6 m 16.4,-4.9 0.7,0.5 m -4.3,3.8 3.6,-4.3 m 0.7,0.5 -3.7,4.4 m 0,0 -0.6,-0.6 m -22.1,-1.4 -0.2,-0.3 -0.3,-0.2 -0.2,-0.1 -0.3,-0.1 m 0,0 -0.3,0.1 -0.2,0.1 -0.1,0.3 -0.1,0.2 m 1.5,1.2 -0.1,-0.4 -0.3,-0.3 -0.6,-0.4 m 0,0 -0.1,-0.1 m 0,0 v -0.2 l 0.1,-0.1 0.1,-0.1 h 0.1 m 0,0 0.3,0.1 0.2,0.1 0.4,0.3 m 0,0 v 0 h 0.1 m 0,0 v 0 -0.1 m -0.5,1.1 v 0 0.1 h -0.1 m 0,0 -0.3,-0.1 -0.2,-0.3 -0.2,-0.5 m 0,0 0.5,0.4 0.2,0.2 0.1,0.2 m -1.2,-1.1 0.1,0.6 0.3,0.5 0.4,0.3 0.4,0.1 m 0,0 h 0.1 l 0.2,-0.1 v -0.1 -0.1 m 30.1,-5.5 v -0.1 l -0.1,-0.1 -0.1,-0.1 m 0,0 -0.2,-0.1 -0.1,-0.1 m 0,0 -0.2,-0.1 -0.1,-0.1 m 0,0 -0.2,-0.2 m 0,0 h -0.1 v -0.1 m 0,0 -0.2,-0.1 m 0,0 v -0.1 h -0.1 m 0,0 0.1,-0.3 0.2,-0.2 m 0,0 0.2,-0.2 0.1,-0.2 m 0,0 0.2,-0.3 v -0.1 -0.1 h -0.1 m 0,0 v -0.1 h -0.1 -0.1 l -0.1,0.1 m 0,0 -0.2,0.3 -0.2,0.2 m 0,0 -0.2,0.3 -0.2,0.3 m 0,0 -0.3,-0.3 -0.2,-0.2 m 0,0 -0.1,-0.1 -0.1,-0.1 m 0,0 -0.1,-0.1 m 0,0 -0.1,-0.1 h -0.1 l -0.1,0.1 h -0.1 m 0,0 v 0.2 0.1 m 0,0 0.1,0.1 0.1,0.1 m 0,0 h 0.1 l 0.1,0.1 m 0,0 0.6,0.5 m 0,0 -0.1,0.2 -0.1,0.1 m 0,0 -0.2,0.3 -0.3,0.2 m 0,0 -0.1,0.1 -0.1,0.1 m 0,0 -0.1,0.2 v 0.1 0.1 l 0.1,0.1 m 0,0 h 0.1 0.1 l 0.1,-0.1 m 0,0 0.2,-0.2 0.1,-0.2 m 0,0 0.2,-0.2 0.1,-0.2 m 0,0 0.2,-0.2 0.1,-0.1 m 0,0 0.2,0.2 0.1,0.1 m 0,0 0.7,0.6 m 0,0 0.3,0.2 H 15 l 0.1,-0.1 0.2,-0.1 m -26,-0.8 0.2,-0.1 m 0,0 0.5,-0.4 0.4,-0.3 m 0,0 0.1,-0.1 0.1,-0.1 m 0,0 0.2,-0.3 0.1,-0.2 v -0.1 -0.1 m 0,0 h -0.1 l -0.1,-0.1 h -0.1 l -0.1,0.1 m 0,0 -0.1,0.1 -0.1,0.1 m 0,0 -0.1,0.1 -0.1,0.1 m 0,0 -0.1,0.1 -0.1,0.1 m 0,0 -0.2,0.2 -0.1,0.1 m 0,0 -0.2,0.1 -0.1,0.2 m 0,0 -0.2,0.1 -0.2,0.2 m 0,0 -0.3,0.2 -0.1,0.1 m 0,0 -0.2,0.2 h -0.1 v 0.1 l 0.1,0.1 m 0,0 0.1,0.1 h 0.1 l 0.2,-0.1 0.4,-0.3 m 0,0 0.2,-0.2 m 24.9,-15.2 h 0.3 0.3 m 0,0 h 1.6 m 0,0 h 0.3 l 0.3,0.1 m 0,0 h 0.1 0.1 m 0,0 h 0.1 l 0.1,-0.1 v -0.1 h 0.1 m 0,0 -0.1,-0.2 -0.1,-0.2 -0.1,-0.1 -0.4,-0.1 m 0,0 h -0.2 m 0,0 h -0.3 l -0.2,0.1 m 0,0 -0.7,0.1 h -0.6 m 0,0 -1,-0.2 -0.4,-0.1 -0.4,-0.2 m 0,0 -0.2,-0.3 h -0.1 -0.2 m 0,0 h -0.1 l -0.1,0.1 h -0.1 v 0.1 m 0,0 0.2,0.6 0.4,0.4 0.8,0.4 m 0,0 1.5,1.2 0.5,0.6 0.2,0.7 m 0,0 -0.1,0.3 -0.3,0.2 -0.2,0.2 -0.3,0.1 m 0,0 -0.4,-0.2 -0.4,-0.2 -0.5,-0.5 m 0,0 -0.3,-0.1 h -0.2 m 0,0 H 13 l -0.1,0.2 v 0.2 m 2.3,1.2 0.6,-0.2 0.4,-0.3 0.2,-0.4 0.2,-0.4 m 0,0 -0.4,-1 -0.7,-0.8 -1.3,-1.1 m -1.3,3 0.3,0.3 0.4,0.3 0.5,0.3 1.1,0.3 m -26.9,-4.7 v -0.2 m 0,0 v -0.1 h -0.1 l -0.1,-0.1 h -0.3 m 0,0 v 0 l -0.1,0.1 m 0,0 -0.1,0.1 -0.1,0.1 m 0,0 -0.3,-0.1 -0.1,-0.1 h -0.2 l -0.2,-0.1 m 0,0 -0.4,-0.1 H -14 m 0,0 h -0.1 l -0.1,0.1 -0.1,0.1 v 0.1 m 0,0 v 0.1 l 0.1,0.1 0.3,0.1 0.5,0.1 m 0,0 0.5,0.2 0.4,0.1 m 0,0 0.1,0.9 0.1,0.8 m 0,0 0.3,1.6 m 0,0 -0.4,-0.1 -0.2,-0.2 m 0,0 -0.7,-0.3 -0.6,-0.1 m 0,0 H -14 l -0.1,0.2 m 2.9,1.1 v -0.1 l -0.1,-0.1 m 0,0 -0.4,-2 -0.1,-0.8 v -0.8 m 0,0 0.4,0.1 0.4,0.1 m 0,0 0.7,0.1 0.5,0.1 m 0,0 0.1,-0.2 v -0.1 m 0,0 v -0.2 h -0.1 l -0.3,-0.1 -0.6,-0.1 m 0,0 -0.6,-0.1 -0.4,-0.2 m -2.4,3.3 0.1,0.1 v 0.1 l 0.1,0.1 0.4,0.2 0.7,0.3 0.6,0.4 0.7,0.4 m 0,0 0.2,-0.1 0.1,-0.2 v -0.2 m 28.3,-44.4 -0.7,0.1 -0.6,0.1 m 0,0 -0.1,-0.5 v -0.3 m 0,0 v -0.2 m 0,0 v -0.2 m 0,0 v -0.1 m 0,0 v -0.2 -0.1 l 0.1,-0.1 m 0,0 0.1,-0.1 v -0.1 m 0,0 -0.1,-0.1 -0.1,-0.2 h -0.1 l -0.1,-0.1 m 0,0 h -0.1 l -0.2,0.1 -0.1,0.1 -0.1,0.4 m 0,0 v 0.4 m 0,0 0.1,0.3 v 0.2 m 0,0 v 0.4 l 0.1,0.3 m 0,0 H 15 14.9 m 0,0 h -0.7 l -0.6,-0.1 m 0,0 -0.5,-0.1 h -0.5 m 0,0 h -0.1 l -0.1,0.1 -0.2,0.1 m 0,0 0.5,0.6 0.5,0.5 0.9,0.7 m 0,0 0.5,0.4 0.3,0.3 m 0,0 0.7,0.6 0.3,0.2 0.3,0.2 m 0,0 h 0.2 l 0.1,-0.1 v -0.1 m 0,0 -0.1,-0.4 -0.1,-0.3 m 0,0 -0.2,-1.1 -0.2,-0.8 m 0,0 0.5,-0.1 h 0.4 m 0,0 h 0.3 m 0,0 0.1,-0.1 h 0.1 l 0.1,-0.1 0.1,-0.3 m 0,0 -0.1,-0.1 v -0.1 h -0.1 l -0.1,-0.1 m 0,0 -0.1,0.1 m -2.1,2 -0.3,-0.3 -0.2,-0.2 m 0,0 -0.6,-0.5 -0.5,-0.4 m 0,0 v -0.1 m 0,0 0.6,0.1 h 0.5 m 0,0 H 15 l 0.3,0.1 m 0,0 v 0.3 l 0.1,0.3 m 0,0 0.2,0.7 0.1,0.6 m 0,0 -0.4,-0.3 -0.3,-0.3 m -28.1,-1.5 h -0.2 v 0.1 h -0.1 v 0.1 m 0,0 v 0.2 l 0.1,0.1 0.3,0.2 m 0,0 0.6,0.6 m 0,0 0.5,0.4 0.5,0.2 m 0,0 h -0.7 -0.5 m 0,0 -0.5,-0.1 h -0.4 m 0,0 h -0.3 l -0.3,0.2 -0.1,0.2 v 0.2 m 0,0 v 0.1 l 0.1,0.1 0.1,0.1 h 0.1 m 0,0 0.1,-0.1 h 0.1 m 0,0 0.2,-0.1 h 0.3 m 0,0 h 0.5 0.5 m 0,0 0.8,0.1 h 0.7 m 0,0 0.3,-0.1 h 0.1 v -0.1 l 0.1,-0.1 m 0,0 -0.2,-0.3 -0.2,-0.2 -0.4,-0.2 m 0,0 -0.6,-0.4 -0.5,-0.4 m 0,0 h 0.4 0.3 m 0,0 1,-0.2 0.4,-0.4 0.2,-0.2 v -0.3 m 0,0 -0.2,-0.5 -0.3,-0.4 -0.8,-0.7 -1,-0.3 -1,-0.2 m 0,0 -0.8,0.1 -0.2,0.1 -0.2,0.1 -0.1,0.1 v 0.2 m 0,0 v 0.2 l 0.1,0.2 h 0.1 0.2 m 0,0 v 0 m 0,0 0.3,-0.1 m 0,0 0.4,-0.2 h 0.4 m 0,0 0.7,0.1 0.7,0.2 0.6,0.4 0.3,0.3 0.1,0.3 m 0,0 v 0.2 l -0.1,0.2 -0.4,0.2 -0.9,0.1 m 0,0 -0.7,-0.1 -0.5,-0.2 m 9.2,-35 -0.7,0.3 -0.5,0.5 -0.3,0.5 -0.1,0.6 m 0,0 0.4,1.5 0.8,1.3 0.9,0.8 1.2,0.3 m 0,0 1,-0.1 0.8,-0.5 0.4,-0.6 0.1,-0.8 m 0,0 -0.2,-1.1 -0.6,-0.9 -0.8,-0.9 -1.1,-0.7 -1.3,-0.2 m 0.3,0.7 1.3,0.3 1,1 0.5,0.9 0.2,1 m 0,0 -0.1,0.7 -0.5,0.4 -1,0.3 m 0,0 -0.8,-0.3 -0.6,-0.5 -0.5,-0.7 -0.5,-0.9 -0.2,-1 m 0,0 0.1,-0.5 0.3,-0.4 0.4,-0.2 0.4,-0.1 m 10.7,3.4 0.4,0.1 h 0.4 m 0,0 0.3,0.1 h 0.2 m 0,0 0.3,-0.1 h 0.1 0.1 v -0.2 m 0,0 v -0.1 l -0.1,-0.1 -0.1,-0.1 H 8.5 m 0,0 -0.9,-0.1 -0.5,-0.1 H 7 6.9 v -0.1 -0.2 l -0.2,-0.9 -0.2,-0.9 m 0,0 0.1,-0.4 v -0.1 l 0.1,-0.1 0.3,-0.1 m 0,0 0.2,0.1 0.3,0.2 0.4,0.3 m 0,0 0.1,0.1 0.2,0.1 m 0,0 h 0.1 l 0.1,-0.1 v -0.1 m 0,0 -0.3,-0.5 -0.4,-0.4 -0.5,-0.2 -0.4,-0.1 m 0,0 H 6.5 l -0.3,0.2 -0.2,0.2 -0.1,0.7 m 0,0 v 0.7 l 0.2,0.5 m 0,0 0.1,0.6 v 0.5 m 0,0 v 0 H 6.1 m 0,0 H 5.8 m 0,0 H 5.6 l -0.2,0.1 -0.1,0.1 v 0.1 m 0,0 v 0.1 l 0.1,0.1 h 0.1 m 0,0 h 0.8 m 0,0 0.1,0.1 h 0.1 v 0.2 l 0.1,0.4 0.2,0.7 m 0,0 0.1,0.3 0.2,0.1 h 0.1 m 0,0 h 0.1 l 0.1,-0.1 0.1,-0.1 v -0.1 m 0,0 -0.1,-0.3 v -0.3 m 0,0 -0.3,-0.8 m -3.5,-2.1 -0.9,-1.2 -0.5,-0.4 -0.6,-0.2 m 0,0 -0.2,0.1 -0.1,0.1 -0.3,0.3 -0.2,0.7 m 0,0 0.1,0.9 0.2,0.6 m 0,0 0.1,0.6 0.1,0.5 m 0.7,-0.1 -0.1,-0.4 -0.1,-0.3 m 0,0 -0.3,-0.9 -0.1,-0.8 m 0,0 0.1,-0.4 v -0.1 l 0.1,-0.1 h 0.1 m 0,0 0.5,0.2 0.5,0.4 0.3,0.5 0.6,1.3 m 0,0 0.2,0.4 0.2,0.2 0.1,0.1 h 0.1 m 0,0 h 0.1 v -0.1 l 0.1,-0.1 v -0.2 m 0,0 v -0.1 -0.1 m 0,0 -0.2,-0.9 -0.1,-0.7 m 0,0 0.1,-0.7 0.1,-0.2 0.1,-0.2 m 0,0 0.1,-0.1 0.1,-0.1 m 0,0 -0.1,-0.2 -0.1,-0.1 H 4.2 m 0,0 H 4 l -0.2,0.2 -0.2,0.4 v 0.9 m 0,0 v 0.1 m 0,0 v 0.1 0.1 m -2,2.3 0.2,-0.1 0.1,-0.1 0.1,-0.1 v -0.1 m -0.7,0.1 v 0.1 l 0.1,0.1 0.2,0.1 m -12.9,-79.9 h -15.6 m 15.6,-1.4 v 1.4 m -15.6,-1.4 h 15.6 m -15.6,1.4 v -1.4 m 26.9,0 h 29.8 m 0,1.4 H 0 m 0,0 v -1.4 m 29.8,0 v 1.4 m -56.7,-9.2 h 56.7 m 0,364.3 h -56.7 m 21.2,-351.2 -1.1,-0.2 -1,-0.3 -0.9,-0.7 -0.7,-0.8 -0.5,-1 -0.3,-1 v -1.1 l 0.3,-1.1 0.5,-0.9 0.7,-0.9 0.9,-0.6 1,-0.4 1.1,-0.1 m 0,0 1.1,0.1 1,0.4 0.9,0.6 0.8,0.9 0.5,0.9 0.2,1.1 v 1.1 l -0.2,1 -0.5,1 -0.8,0.8 -0.9,0.7 -1,0.3 -1.1,0.2 M -5.7,5.2 -6.8,5.1 -7.8,4.7 -8.7,4.1 -9.4,3.3 -9.9,2.3 -10.2,1.2 V 0.1 l 0.3,-1 0.5,-1 0.7,-0.8 0.9,-0.6 1,-0.4 1.1,-0.2 m 0,0 1.1,0.2 1,0.4 0.9,0.6 0.8,0.8 0.5,1 0.2,1 v 1.1 l -0.2,1.1 -0.5,1 -0.8,0.8 -0.9,0.6 -1,0.4 -1.1,0.1 m 7.1,-43.3 -1.5,-0.1 -1.5,-0.4 -1.4,-0.7 -1.2,-0.9 -1.1,-1 -0.9,-1.3 -0.6,-1.4 -0.4,-1.5 -0.2,-1.5 0.2,-1.5 0.4,-1.5 0.6,-1.4 0.9,-1.2 1.1,-1.1 1.2,-0.9 1.4,-0.7 1.5,-0.4 1.5,-0.1 m 0,0 1.5,0.1 1.5,0.4 1.4,0.7 1.3,0.9 1.1,1.1 0.8,1.2 0.7,1.4 0.4,1.5 0.1,1.5 -0.1,1.5 -0.4,1.5 -0.7,1.4 -0.8,1.3 -1.1,1 -1.3,0.9 -1.4,0.7 -1.5,0.4 -1.5,0.1 m 0,-118.8 -1.5,-0.1 -1.5,-0.4 -1.4,-0.7 -1.2,-0.9 -1.1,-1 -0.9,-1.3 -0.6,-1.4 -0.4,-1.5 -0.2,-1.5 0.2,-1.5 0.4,-1.5 0.6,-1.4 0.9,-1.2 1.1,-1.1 1.2,-0.9 1.4,-0.7 1.5,-0.4 1.5,-0.1 m 0,0 1.5,0.1 1.5,0.4 1.4,0.7 1.3,0.9 1.1,1.1 0.8,1.2 0.7,1.4 0.4,1.5 0.1,1.5 -0.1,1.5 -0.4,1.5 -0.7,1.4 -0.8,1.3 -1.1,1 -1.3,0.9 -1.4,0.7 -1.5,0.4 -1.5,0.1 m 0,39.6 -1.5,-0.1 -1.5,-0.4 -1.4,-0.7 -1.2,-0.9 -1.1,-1 -0.9,-1.3 -0.6,-1.4 -0.4,-1.5 -0.2,-1.5 0.2,-1.5 0.4,-1.5 0.6,-1.4 0.9,-1.2 1.1,-1.1 1.2,-0.9 1.4,-0.7 1.5,-0.4 1.5,-0.1 m 0,0 1.5,0.1 1.5,0.4 1.4,0.7 1.3,0.9 1.1,1.1 0.8,1.2 0.7,1.4 0.4,1.5 0.1,1.5 -0.1,1.5 -0.4,1.5 -0.7,1.4 -0.8,1.3 -1.1,1 -1.3,0.9 -1.4,0.7 -1.5,0.4 -1.5,0.1 m 0,39.6 -1.5,-0.1 -1.5,-0.4 -1.4,-0.7 -1.2,-0.9 -1.1,-1 -0.9,-1.3 -0.6,-1.4 -0.4,-1.5 -0.2,-1.5 0.2,-1.5 0.4,-1.5 0.6,-1.4 0.9,-1.2 1.1,-1.1 1.2,-0.9 1.4,-0.7 1.5,-0.4 1.5,-0.1 m 0,0 1.5,0.1 1.5,0.4 1.4,0.7 1.3,0.9 1.1,1.1 0.8,1.2 0.7,1.4 0.4,1.5 0.1,1.5 -0.1,1.5 -0.4,1.5 -0.7,1.4 -0.8,1.3 -1.1,1 -1.3,0.9 -1.4,0.7 -1.5,0.4 -1.5,0.1 m 0,-196.3 -1.5,-0.1 -1.5,-0.4 -1.4,-0.6 -1.2,-0.9 -1.1,-1.1 -0.9,-1.2 -0.6,-1.4 -0.4,-1.5 -0.2,-1.5 0.2,-1.6 0.4,-1.4 0.6,-1.4 0.9,-1.3 1.1,-1.1 1.2,-0.8 1.4,-0.7 1.5,-0.4 1.5,-0.1 m 0,0 1.5,0.1 1.5,0.4 1.4,0.7 1.3,0.8 1.1,1.1 0.8,1.3 0.7,1.4 0.4,1.4 0.1,1.6 -0.1,1.5 -0.4,1.5 -0.7,1.4 -0.8,1.2 -1.1,1.1 -1.3,0.9 -1.4,0.6 -1.5,0.4 -1.5,0.1 m -13.5,32.4 -1.5,-0.1 -1.5,-0.4 -1.4,-0.6 -1.2,-0.9 -1.1,-1.1 -0.9,-1.2 -0.6,-1.4 -0.4,-1.5 -0.2,-1.5 0.2,-1.6 0.4,-1.4 0.6,-1.4 0.9,-1.3 1.1,-1.1 1.2,-0.8 1.4,-0.7 1.5,-0.4 1.5,-0.1 m 0,0 1.5,0.1 1.5,0.4 1.4,0.7 1.3,0.8 1.1,1.1 0.8,1.3 0.7,1.4 0.4,1.4 0.1,1.6 -0.1,1.5 -0.4,1.5 -0.7,1.4 -0.8,1.2 -1.1,1.1 -1.3,0.9 -1.4,0.6 -1.5,0.4 -1.5,0.1 m 27,0 -1.5,-0.1 -1.5,-0.4 -1.4,-0.6 -1.2,-0.9 -1.1,-1.1 -0.9,-1.2 -0.6,-1.4 -0.4,-1.5 -0.2,-1.5 0.2,-1.6 0.4,-1.4 0.6,-1.4 0.9,-1.3 1.1,-1.1 1.2,-0.8 1.4,-0.7 1.5,-0.4 1.5,-0.1 m 0,0 1.5,0.1 1.5,0.4 1.4,0.7 1.3,0.8 1.1,1.1 0.8,1.3 0.7,1.4 0.4,1.4 0.1,1.6 -0.1,1.5 -0.4,1.5 -0.7,1.4 -0.8,1.2 -1.1,1.1 -1.3,0.9 -1.4,0.6 -1.5,0.4 -1.5,0.1 m 0,41.4 -1.5,-0.1 -1.5,-0.4 -1.4,-0.6 -1.2,-0.9 -1.1,-1.1 -0.9,-1.2 -0.6,-1.4 -0.4,-1.5 -0.2,-1.5 0.2,-1.6 0.4,-1.4 0.6,-1.4 0.9,-1.3 1.1,-1.1 1.2,-0.8 1.4,-0.7 1.5,-0.4 1.5,-0.1 m 0,0 1.5,0.1 1.5,0.4 1.4,0.7 1.3,0.8 1.1,1.1 0.8,1.3 0.7,1.4 0.4,1.4 0.1,1.6 -0.1,1.5 -0.4,1.5 -0.7,1.4 -0.8,1.2 -1.1,1.1 -1.3,0.9 -1.4,0.6 -1.5,0.4 -1.5,0.1 m -27,0 -1.5,-0.1 -1.5,-0.4 -1.4,-0.6 -1.2,-0.9 -1.1,-1.1 -0.9,-1.2 -0.6,-1.4 -0.4,-1.5 -0.2,-1.5 0.2,-1.6 0.4,-1.4 0.6,-1.4 0.9,-1.3 1.1,-1.1 1.2,-0.8 1.4,-0.7 1.5,-0.4 1.5,-0.1 m 0,0 1.5,0.1 1.5,0.4 1.4,0.7 1.3,0.8 1.1,1.1 0.8,1.3 0.7,1.4 0.4,1.4 0.1,1.6 -0.1,1.5 -0.4,1.5 -0.7,1.4 -0.8,1.2 -1.1,1.1 -1.3,0.9 -1.4,0.6 -1.5,0.4 -1.5,0.1 m 41.9,-154.9 v 7.8 m 0,1.4 V 0 m 0,1.4 v 7.8 m -56.7,0 V 1.4 m 0,-1.4 v -345.9 m 0,-1.4 v -7.8"
         style="vector-effect:non-scaling-stroke;fill:none;stroke:#000000;stroke-width:0.0075;stroke-linecap:round;stroke-linejoin:round;stroke-miterlimit:4;stroke-dasharray:none;stroke-opacity:1;-inkscape-stroke:hairline"
         id="path12" /></g></g></svg>
