<?xml version="1.0" encoding="UTF-8" standalone="no"?>
<!-- Created with Inkscape (http://www.inkscape.org/) -->

<svg
   version="1.1"
   id="svg2"
   xml:space="preserve"
   width="20.002501mm"
   height="128.48166mm"
   viewBox="0 0 75.600001 485.59996"
   sodipodi:docname="Atari Punk Console.svg"
   inkscape:version="1.1.1 (3bf5ae0d25, 2021-09-20)"
   xmlns:inkscape="http://www.inkscape.org/namespaces/inkscape"
   xmlns:sodipodi="http://sodipodi.sourceforge.net/DTD/sodipodi-0.dtd"
   xmlns="http://www.w3.org/2000/svg"
   xmlns:svg="http://www.w3.org/2000/svg"><defs
     id="defs6" /><sodipodi:namedview
     id="namedview4"
     pagecolor="#ffffff"
     bordercolor="#666666"
     borderopacity="1.0"
     inkscape:pageshadow="2"
     inkscape:pageopacity="0"
     inkscape:pagecheckerboard="0"
     showgrid="false"
     inkscape:document-units="mm"
     units="mm"
     fit-margin-top="0"
     fit-margin-left="0"
     fit-margin-right="0"
     fit-margin-bottom="0"
     inkscape:zoom="1.0985944"
     inkscape:cx="-61.442147"
     inkscape:cy="320.86455"
     inkscape:window-width="1920"
     inkscape:window-height="1057"
     inkscape:window-x="1912"
     inkscape:window-y="-8"
     inkscape:window-maximized="1"
     inkscape:current-layer="g8" /><g
     id="g8"
     inkscape:groupmode="layer"
     inkscape:label="Atari Punk Console Front"
     transform="matrix(1.3333333,0,0,-1.3333333,-334.39999,904.93331)"><g
       id="g10"
       transform="translate(277.7,669.5)"
       style="stroke-width:0.75000002;stroke-miterlimit:4;stroke-dasharray:none"><path
         d="M 0,0 H 29.8 M 0,1.4 V 0 M 29.8,1.4 H 0 M 29.8,0 V 1.4 M -26.9,0 h 15.6 m 0,0 v 1.4 m 0,0 h -15.6 m 0,0 V 0 m 26.5,-57.5 h 0.8 m -0.8,13.6 v -13.6 m 0.8,0 v 13.6 m 0,0 h -0.8 m 11.3,-4.4 -0.5,0.3 M 4.3,-58.6 4.8,-58.9 M 10.4,-48 4.3,-58.6 m 0.5,-0.3 6.1,10.6 m -21.3,0.3 -0.5,-0.3 m 6.1,-10.6 0.5,0.3 m -6.6,10.3 6.1,-10.6 m 0.5,0.3 -6.1,10.6 m -7.9,-7.7 -0.3,-0.5 m 10.6,-6.1 0.3,0.5 m 0,0 -10.6,6.1 m -0.3,-0.5 10.6,-6.1 m 26.6,6.1 -0.3,0.5 M 7.7,-61.8 8,-62.3 m 0,0 10.6,6.1 m -0.3,0.5 -10.6,-6.1 m -29,-4.5 v -0.6 m 0,0 h 12.2 m 0,0.6 h -12.2 m 12.2,-0.6 v 0.6 m 30.4,-0.6 v 0.6 M 9.1,-66.9 h 12.2 m -12.2,0.6 v -0.6 m 12.2,0.6 H 9.1 m -27.7,-10.7 0.3,-0.5 m 10.6,6.1 -0.3,0.5 m -10.3,-6.6 10.6,6.1 M -8,-70.9 -18.6,-77 m 36.9,-0.5 0.3,0.5 m -10.9,5.6 10.6,-6.1 M 8,-70.9 7.7,-71.4 M 18.6,-77 8,-70.9 m 3,-15.5 0.7,0.4 M 4.2,-74.6 11,-86.4 m 0.7,0.4 -6.8,11.8 m 0,0 -0.7,-0.4 m -15.2,-11.8 6.8,11.7 m -7.5,-11.3 0.7,-0.4 m 6.1,12.2 -6.8,-11.8 m 7.5,11.3 -0.7,0.5 M -9.9,-89 H -10 v 0.1 0.1 m 0,0 -0.1,0.1 m 0,0 -0.1,0.2 v 0.2 m 0,0 0.1,0.3 0.1,0.1 0.2,0.1 h 0.2 m 0,0 h 0.1 l 0.1,-0.1 h 0.1 V -88 m 0,0 v -0.4 l -0.2,-0.3 -0.2,-0.2 -0.2,-0.1 m 9.2,-4 1.1,1.7 0.5,0.6 0.7,0.3 m 0,0 H 1.9 L 2,-90.6 2.2,-91 2.3,-91.9 m 0,0 0.1,-0.8 0.3,-0.6 m 0,0 0.1,-0.2 0.1,-0.2 m 0,0 -0.1,-0.1 -0.1,-0.1 H 2.5 m 0,0 H 2.3 l -0.2,0.2 -0.2,0.4 -0.2,0.9 m 0,0 v 0.7 l -0.1,0.3 -0.1,0.2 H 1.4 l -0.1,0.1 m 0,0 -0.4,-0.3 -0.3,-0.4 -0.2,-0.4 -0.7,-1 m 0,0 -0.4,-0.7 -0.1,-0.2 -0.3,-0.1 m 0,0 h -0.2 l -0.1,0.1 -0.1,0.1 v 0.1 m 0,0 v 0.2 l 0.1,0.2 m 0,0 0.4,2.7 0.3,2 m 0.4,1 0.2,-0.1 0.2,-0.1 v -0.2 -0.1 m -0.3,-1.9 -0.3,-1.5 -0.2,-1.2 m 0,0 v 0 -0.1 m 0,0 v 0 m 0.8,4.7 -0.1,-1.1 -0.2,-0.8 m -0.5,1.4 0.1,0.6 0.1,0.2 0.1,0.1 0.1,0.1 m 15.9,-5.9 v -0.2 m 0,0 V -94 h -0.1 l -0.1,-0.1 h -0.3 m 0,0 H 15 v 0.1 h -0.1 m 0,0 v 0.1 h -0.1 m 0,0 H 14.5 L 14.3,-94 h -0.2 l -0.2,-0.1 m 0,0 -0.3,-0.1 h -0.3 m 0,0 h -0.2 l -0.1,0.1 v 0.1 l -0.1,0.1 m 0,0 0.1,0.1 0.1,0.1 0.2,0.1 0.5,0.1 m 0,0 0.6,0.2 0.4,0.1 m 0,0 0.1,0.9 0.1,0.8 m 0,0 0.2,1.6 m 0,0 -0.3,-0.1 -0.3,-0.2 m 0,0 -0.6,-0.3 -0.6,-0.1 m 0,0 h -0.1 -0.1 v 0.2 m 0,0 v 0.1 0.1 l 0.2,0.1 0.4,0.2 0.6,0.3 0.7,0.4 0.7,0.4 m 0,0 0.1,-0.1 0.1,-0.2 0.1,-0.2 m 0,0 v -0.1 H 16 v -0.1 m 0,0 -0.5,-2 -0.1,-0.8 v -0.8 m 0,0 0.5,0.1 0.4,0.1 m 0,0 0.7,0.1 0.5,0.1 m 0,0 0.1,-0.2 V -93 m 0,0 v -0.2 h -0.1 -0.1 l -0.2,-0.1 -0.6,-0.1 m 0,0 -0.6,-0.1 -0.4,-0.2 m -31.5,4.1 -0.1,0.1 -0.1,0.1 v 0.2 m 0,0 0.1,0.2 h 0.1 l 0.3,0.2 0.8,0.1 1.4,0.2 m 1.8,-1.2 -0.3,-0.8 -0.5,-0.6 -0.7,-0.5 -1.9,-0.6 m 0,0 -0.3,-0.1 h -0.1 l -0.1,-0.1 v -0.1 -0.1 -0.3 l -0.1,-1 m 0,0 V -94 l -0.1,-0.2 -0.1,-0.1 h -0.1 m 0,0 h -0.2 l -0.1,0.1 v 0.1 l -0.1,0.2 m 0,0 0.1,0.8 0.1,0.6 m 0,0 0.2,2.3 m 0,0 v 0.3 0.3 m 0.8,0.2 -0.1,-0.2 v -0.2 m 0,0 -0.1,-0.6 v -0.5 m 0,0 -0.1,-0.4 v -0.4 m 0,0 1.8,0.6 0.9,0.5 0.3,0.3 0.1,0.5 m 0,0 v 0.2 l -0.1,0.2 -0.1,0.1 -0.2,0.1 -0.7,0.1 m 0,0 -1,-0.1 -0.7,-0.2 m 1.7,0.9 1.2,-0.2 0.4,-0.5 0.1,-0.2 0.1,-0.3 m 4.3,-0.6 0.4,0.1 h 0.3 m 0,0 h 0.3 l 0.3,0.1 m 0,0 0.3,-0.1 h 0.1 v -0.2 m 0,0 v -0.1 l -0.1,-0.1 -0.1,-0.1 H -6 m 0,0 -0.9,-0.1 -0.5,-0.1 H -7.5 L -7.6,-91 v -0.2 L -7.8,-92.1 -8,-93 m 0,0 0.1,-0.4 0.1,-0.1 0.1,-0.1 0.2,-0.1 m 0,0 0.3,0.1 0.2,0.2 0.4,0.3 m 0,0 0.2,0.1 0.1,0.1 m 0,0 0.1,-0.1 h 0.1 v -0.1 m 0,0 -0.3,-0.5 -0.4,-0.4 -0.4,-0.2 -0.5,-0.1 m 0,0 H -8 l -0.3,0.2 -0.2,0.2 -0.1,0.7 m 0,0 0.1,0.7 0.1,0.5 m 0,0 0.1,0.6 0.1,0.4 m 0,0 -0.1,0.1 m 0,0 h -0.4 m 0,0 h -0.2 l -0.2,0.1 -0.1,0.1 v 0.1 m 0,0 v 0.1 l 0.1,0.1 H -9 m 0,0 h 0.8 m 0,0 0.1,0.1 H -8 v 0.2 l 0.2,0.4 0.1,0.7 m 0,0 0.2,0.3 0.1,0.1 h 0.1 m 0,0 h 0.1 l 0.2,-0.1 v -0.1 -0.1 m 0,0 v -0.3 l -0.1,-0.3 m 0,0 -0.2,-0.8 m 17.7,-0.4 -0.1,-0.3 -0.1,-0.2 m 0,0 -0.1,-0.3 v -0.2 m 0,0 v -0.1 l 0.1,-0.1 m 0,0 0.3,0.1 h 0.2 m 0,0 0.3,0.1 0.3,0.1 m 0,0 0.2,-0.1 h 0.1 0.1 l 0.1,-0.2 v -0.2 m 0,0 -0.1,-0.1 h -0.1 l -0.1,-0.1 m 0,0 h -0.1 l -0.1,0.1 m 0,0 h -0.1 l -0.1,0.1 m 0,0 -0.3,-0.1 h -0.3 m 0,0 -0.3,-0.1 H 9.9 m 0,0 v -0.1 l -0.1,-0.1 m 0,0 -0.1,-0.3 v -0.3 m 0,0 v -0.2 m 0,0 v -0.1 l -0.1,-0.1 -0.1,-0.1 -0.1,-0.1 m 0,0 -0.1,0.1 -0.1,0.1 v 0.2 m 0,0 v 0.3 l 0.1,0.3 m 0,0 v 0.2 0.1 m 0,0 L 9,-92.5 H 8.7 m 0,0 -0.5,-0.1 m 0,0 -0.2,-0.6 -0.2,-0.3 v -0.1 l -0.2,-0.1 m 0,0 v 0 H 7.5 v 0.1 m 0,0 0.1,0.6 0.2,0.4 m 0,0 H 7 6.6 l -0.2,0.1 H 6.3 v 0.1 m 0,0 0.1,0.2 0.2,0.1 0.2,0.1 m 0,0 0.3,-0.1 h 0.2 m 0,0 h 0.3 0.2 m 0,0 0.1,0.2 0.1,0.2 m 0,0 0.1,0.4 0.1,0.3 m 0,0 H 7.8 l -0.3,-0.1 m 0,0 H 7.1 6.9 m 0,0 H 6.6 6.5 L 6.4,-91 m 0,0 v 0.1 0.1 h 0.1 l 0.2,0.1 0.5,0.1 m 0,0 h 0.2 0.1 m 0,0 0.4,0.1 h 0.3 m 0,0 0.3,0.4 0.2,0.4 m 0,0 0.2,0.3 0.1,0.2 h 0.2 m 0,0 v 0 -0.1 l 0.1,-0.1 m 0,0 -0.1,-0.3 -0.1,-0.2 m 0,0 -0.2,-0.3 -0.1,-0.2 m 0,0 1.3,0.1 m 0,0 0.1,0.4 0.1,0.3 m 0,0 0.1,0.6 0.1,0.4 m 0.2,0.1 h 0.1 l 0.1,-0.1 v -0.1 m 0,0 V -89 l -0.1,-0.1 m 0,0 -0.1,-0.4 -0.1,-0.3 m 0,0 -0.1,-0.3 v -0.1 m 0,0 h 0.4 0.2 m 0,0 0.4,0.1 h 0.3 m 0,0 0.2,-0.1 h 0.1 v -0.1 -0.1 m 0,0 v -0.1 L 12,-90.6 m 0,0 h -0.9 l -0.7,-0.1 M 9.9,-90.8 9.2,-90.9 H 8.6 m 0,0 -0.2,-0.7 -0.1,-0.4 m 0,0 H 8.7 9 m 0,0 h 0.3 l 0.3,0.2 m 0,0 v 0.1 l 0.1,0.2 m 0,0 0.1,0.1 v 0.2 m 0,0 0.1,0.2 v 0.2 m 0.6,2.2 0.1,0.1 h 0.1 m -21.1,-4.7 v -0.4 l 0.1,-0.2 m 0,0 v -0.1 m 0,0 v -0.2 l -0.1,-0.1 h -0.3 m 0,0 h -0.1 -0.1 v 0.1 L -11,-94 v 0.4 m 0,0 0.1,1.3 0.1,0.9 m 0,0 0.1,0.4 v 0.3 m 0,0 0.1,0.4 0.1,0.1 h 0.1 l 0.1,0.1 m 0,0 0.1,-0.1 h 0.2 l 0.1,-0.1 v -0.1 m 0,0 v -0.2 l -0.1,-0.1 m 0,0 -0.3,-1.4 -0.1,-1.1 m 6.2,-1 -0.5,0.1 -0.5,0.3 -0.1,0.4 -0.1,0.4 m 2.2,3.1 0.4,-0.1 0.2,-0.3 0.2,-0.6 m 0,0 -0.1,-0.3 -0.1,-0.2 h -0.1 m 0,0 h -0.1 -0.1 v 0.1 L -3,-91 m 0,0 -0.1,0.3 -0.1,0.1 v 0.1 h -0.1 m 0,0 -0.5,-0.3 -0.3,-0.4 -0.3,-0.5 -0.3,-1.3 m 0,0 v -0.3 l 0.2,-0.2 0.2,-0.1 0.3,-0.1 m 0,0 0.7,0.3 0.6,0.3 m 0,0 0.2,0.1 0.2,0.1 m 0,0 v 0 l 0.1,-0.1 v -0.1 m 0,0 -0.2,-0.4 -0.4,-0.2 -0.4,-0.3 -1,-0.2 m -1.2,1.2 0.3,1.1 0.5,1 0.6,0.7 0.8,0.3 m 2.8,-25.9 h 0.8 m -0.8,13.6 v -13.6 m 0.8,0 v 13.6 m 0,0 h -0.8 m 11.3,-4.4 -0.5,0.3 m -6.1,-10.6 0.5,-0.3 m 5.6,10.9 -6.1,-10.6 m 0.5,-0.3 6.1,10.6 m -21.3,0.3 -0.5,-0.3 m 6.1,-10.6 0.5,0.3 m -6.6,10.3 6.1,-10.6 m 0.5,0.3 -6.1,10.6 m -7.9,-7.7 -0.3,-0.5 m 10.6,-6.1 0.3,0.5 m -10.9,5.6 10.6,-6.1 m 0.3,0.5 -10.6,6.1 m 36.9,-0.5 -0.3,0.5 m -10.6,-6.1 0.3,-0.5 m 0,0 10.6,6.1 m -0.3,0.5 -10.6,-6.1 m 13.6,-5.1 v 0.6 m -12.2,-0.6 h 12.2 m -12.2,0.6 v -0.6 m 12.2,0.6 H 9.1 m -30.4,0 v -0.6 m 0,0 h 12.2 m 0,0.6 h -12.2 m 12.2,-0.6 v 0.6 m 27.4,-11.1 0.3,0.4 m -10.9,5.7 10.6,-6.1 m -10.3,6.5 -0.3,-0.4 m 10.9,-5.7 -10.6,6.1 m -26.6,-6.1 0.3,-0.4 m 0,0 10.6,6.1 m -0.3,0.4 -10.6,-6.1 m 10.9,5.7 -0.3,0.4 m 19,-15.5 0.7,0.4 m -7.5,11.4 6.8,-11.8 m -6.1,12.2 -0.7,-0.4 m 7.5,-11.4 -6.8,11.8 m -16.6,-11.8 0.7,-0.4 m 6.8,11.8 -0.7,0.4 m 0,0 -6.8,-11.8 m 0.7,-0.4 6.8,11.8 m -17.6,-94.2 0.3,-0.1 0.2,-0.1 m 0,0 0.3,-0.1 h 0.2 m 0,0 h 0.1 v 0.1 h 0.1 m 0,0 -0.1,0.3 -0.1,0.2 m 0,0 v 0.3 l -0.1,0.3 m 0,0 0.1,0.4 h 0.1 l 0.1,0.1 h 0.2 m 0,0 h 0.1 v -0.1 l 0.1,-0.2 m 0,0 v -0.1 l -0.1,-0.1 m 0,0 v -0.1 l -0.1,-0.1 m 0,0 0.1,-0.3 v -0.2 m 0,0 0.1,-0.4 v -0.3 m 0,0 h 0.1 l 0.1,-0.1 m 0,0 0.3,-0.1 h 0.3 m 0,0 h 0.2 m 0,0 h 0.1 l 0.1,-0.1 0.1,-0.1 v -0.1 m 0,0 v -0.1 H -19 l -0.2,-0.1 m 0,0 h -0.3 l -0.3,0.1 m 0,0 H -20 l -0.1,0.1 m 0,0 v -0.4 l 0.1,-0.3 m 0,0 0.1,-0.5 m 0,0 0.6,-0.2 0.3,-0.1 0.1,-0.1 0.1,-0.1 m 0,0 v -0.1 -0.1 h -0.1 -0.1 m 0,0 -0.5,0.1 -0.4,0.2 m 0,0 v -0.8 -0.4 l -0.1,-0.2 -0.1,-0.1 m 0,0 -0.2,0.1 -0.1,0.2 -0.1,0.2 m 0,0 v 0.3 l 0.1,0.3 m 0,0 v 0.2 0.2 m 0,0 -0.2,0.1 -0.2,0.1 m 0,0 -0.4,0.1 -0.3,0.1 m 0,0 v -0.4 l 0.1,-0.3 m 0,0 v -0.3 -0.3 m 0,0 v -0.3 -0.1 l -0.1,-0.1 h -0.1 m 0,0 v 0 h -0.1 v 0.1 l -0.1,0.3 -0.1,0.4 m 0,0 v 0.2 0.1 m 0,0 -0.1,0.4 v 0.3 m 0,0 -0.4,0.3 -0.4,0.2 m 0,0 -0.4,0.2 -0.1,0.1 v 0.2 m 0,0 v 0 0.1 h 0.1 0.1 m 0,0 0.3,-0.1 0.2,-0.1 m 0,0 0.3,-0.2 0.2,-0.1 m 0,0 -0.1,1.3 m 0,0 -0.4,0.1 -0.3,0.1 m 0,0 -0.6,0.1 -0.4,0.1 m 0,0 -0.1,0.1 v 0.1 m 0,0 v 0.1 0.1 h 0.1 0.1 m 0,0 h 0.3 l 0.1,-0.1 m 0,0 0.4,-0.1 0.3,-0.1 m 0,0 h 0.3 l 0.1,-0.1 m 0,0 v 0.4 0.3 m 0,0 -0.1,0.3 v 0.3 m 0,0 0.1,0.2 v 0.1 l 0.2,0.1 m 0,0 0.1,-0.1 0.1,-0.1 m 0,0 v -0.9 l 0.1,-0.7 m 0.1,-0.5 v -0.7 l 0.1,-0.5 m 0,0 0.6,-0.3 0.5,-0.1 m 0,0 v 0.4 0.3 m 0,0 -0.1,0.4 -0.1,0.2 m 0,0 -0.1,0.1 H -21 m 0,0 -0.1,0.1 h -0.2 m 0,0 -0.2,0.1 h -0.2 m 21,76.4 1.1,1.7 0.5,0.5 0.7,0.4 m 0,0 0.3,-0.1 0.1,-0.2 0.2,-0.4 0.1,-0.8 m 0,0 0.1,-0.9 0.3,-0.6 m 0,0 0.1,-0.2 0.1,-0.2 m 0,0 -0.1,-0.1 -0.1,-0.1 H 2.5 m 0,0 H 2.3 l -0.2,0.2 -0.2,0.4 -0.2,0.9 m 0,0 v 0.7 l -0.1,0.3 -0.1,0.2 -0.1,0.1 H 1.3 m 0,0 -0.4,-0.3 -0.3,-0.4 -0.2,-0.4 -0.7,-1 m 0,0 -0.4,-0.6 -0.1,-0.3 -0.3,-0.1 m 0,0 h -0.2 l -0.1,0.1 -0.1,0.1 v 0.1 m 0,0 v 0.3 l 0.1,0.1 m 0,0 0.4,2.7 0.3,2.1 m 0,0 0.1,0.5 0.1,0.2 0.1,0.1 0.1,0.1 m 0,0 0.2,-0.1 0.2,-0.1 v -0.2 -0.1 m 0,0 -0.1,-1.1 -0.2,-0.8 m 0,0 -0.3,-1.5 -0.2,-1.2 m 0,0 v 0 m 0,0 v 0 m -9.2,3.9 -0.1,0.1 v 0.1 m 0,0 -0.1,0.1 m 0,0 -0.1,0.3 v 0.2 m 0,0 0.1,0.2 0.1,0.1 0.2,0.1 h 0.2 m 0.3,-0.2 v -0.4 l -0.2,-0.3 -0.2,-0.2 -0.2,-0.1 m 0.3,1.2 h 0.1 0.1 l 0.1,-0.1 v -0.1 m 2,-2.3 0.4,0.1 h 0.3 m 0,0 0.3,0.1 H -6 m 0,0 h 0.3 v -0.1 h 0.1 v -0.2 m 0,0 v -0.1 l -0.1,-0.1 H -5.8 L -6,-149 m 0,0 -0.9,-0.1 h -0.5 l -0.1,-0.1 h -0.1 v -0.3 l -0.2,-0.8 -0.2,-0.9 m 0,0 0.1,-0.5 0.1,-0.1 0.1,-0.1 h 0.2 m 0,0 h 0.3 l 0.2,0.2 0.4,0.3 m 0,0 0.2,0.1 0.1,0.1 m 0,0 h 0.1 l 0.1,-0.1 v -0.1 m 0,0 -0.3,-0.5 -0.4,-0.4 -0.4,-0.2 -0.5,-0.1 m 0,0 -0.3,0.1 -0.3,0.1 -0.2,0.2 -0.1,0.7 m 0,0 0.1,0.7 0.1,0.6 m 0,0 0.1,0.5 0.1,0.5 m 0,0 h -0.1 m 0,0 h -0.4 m 0,0 h -0.2 l -0.2,0.1 -0.1,0.1 v 0.2 m 0,0 v 0.1 h 0.1 l 0.1,0.1 m 0,0 h 0.8 m 0,0 h 0.1 l 0.1,0.1 v 0.1 l 0.2,0.4 0.1,0.8 m 0,0 0.2,0.3 h 0.1 l 0.1,0.1 m 0,0 0.1,-0.1 0.2,-0.1 v -0.1 -0.1 m -0.1,-0.5 -0.2,-0.9 m 0.3,1.4 v -0.3 l -0.1,-0.2 m -8.8,-0.2 -0.1,0.1 -0.1,0.1 v 0.2 m 0,0 0.1,0.2 0.1,0.1 0.3,0.1 0.8,0.2 1.4,0.1 m 0,0 1.2,-0.2 0.4,-0.4 0.1,-0.3 0.1,-0.3 m 0,0 -0.3,-0.8 -0.5,-0.6 -0.7,-0.5 -1.9,-0.6 m 0,0 h -0.3 l -0.1,-0.1 h -0.1 v -0.2 -0.1 -0.2 l -0.1,-1 m 0,0 v -0.2 l -0.1,-0.2 -0.1,-0.1 h -0.1 m 0,0 h -0.2 l -0.1,0.1 v 0.1 l -0.1,0.3 m 0,0 0.1,0.7 0.1,0.6 m 0,0 0.2,2.3 m 0,0 v 0.3 0.3 m 0.8,0.2 -0.1,-0.2 v -0.2 m 0,0 -0.1,-0.6 v -0.5 m 0,0 -0.1,-0.4 v -0.3 m 0,0 1.8,0.5 0.9,0.5 0.3,0.3 0.1,0.5 m 0,0 v 0.2 l -0.1,0.2 -0.1,0.1 -0.2,0.1 -0.7,0.2 m 0,0 -1,-0.2 -0.7,-0.2 m 25.5,-1.3 -0.1,-0.3 -0.1,-0.2 m 0,0 -0.1,-0.3 v -0.2 m 0,0 v -0.1 h 0.1 m 0,0 h 0.3 l 0.2,0.1 m 0,0 H 11 l 0.3,0.1 m 0,0 h 0.2 l 0.1,-0.1 h 0.1 l 0.1,-0.2 v -0.1 m 0,0 -0.1,-0.2 h -0.1 l -0.1,-0.1 m 0,0 -0.1,0.1 h -0.1 m 0,0 -0.1,0.1 h -0.1 m 0,0 -0.3,-0.1 h -0.3 m 0,0 -0.3,-0.1 H 9.9 m 0,0 v -0.1 l -0.1,-0.1 m 0,0 -0.1,-0.3 v -0.2 m 0,0 v -0.3 m 0,0 v -0.1 l -0.1,-0.1 -0.1,-0.1 H 9.4 m 0,0 H 9.3 l -0.1,0.1 v 0.2 m 0,0 v 0.4 l 0.1,0.2 m 0,0 v 0.2 0.1 m 0,0 H 9 l -0.3,-0.1 m 0,0 -0.5,-0.1 m 0,0 -0.2,-0.6 -0.2,-0.3 v -0.1 L 7.6,-152 m 0,0 v 0 l -0.1,0.1 v 0.1 m 0,0 0.1,0.5 0.2,0.4 m 0,0 H 7 6.6 l -0.2,0.1 -0.1,0.1 m 0,0 0.1,0.2 0.2,0.1 0.2,0.1 m 0,0 h 0.3 l 0.2,-0.1 m 0,0 h 0.3 0.2 m 0,0 0.1,0.2 0.1,0.2 m 0,0 0.1,0.4 0.1,0.3 m 0,0 H 7.8 7.5 m 0,0 -0.4,-0.1 H 6.9 m 0,0 H 6.6 l -0.1,0.1 H 6.4 v 0.1 m 0,0 v 0 0.1 h 0.1 l 0.2,0.1 0.5,0.1 m 0,0 h 0.2 0.1 m 0,0 0.4,0.1 h 0.3 m 0,0 0.3,0.4 0.2,0.4 m 0,0 0.2,0.4 0.1,0.1 h 0.2 m 0,0 v 0 l 0.1,-0.2 m 0,0 -0.1,-0.3 -0.1,-0.2 m 0,0 -0.2,-0.3 -0.1,-0.2 m 0,0 1.3,0.1 m 0,0 0.1,0.4 0.1,0.3 m 0.4,1.1 h 0.1 l 0.1,-0.1 v -0.1 m -0.1,-0.4 -0.1,-0.4 -0.1,-0.3 m 0,0 -0.1,-0.2 v -0.2 m 0,0 h 0.4 l 0.2,0.1 m 0,0 h 0.4 0.3 m 0,0 H 12 l 0.1,-0.1 v -0.2 m 0,0 v -0.1 H 12 m 0,0 -0.9,-0.1 -0.7,-0.1 m -0.5,-0.1 H 9.2 l -0.6,-0.1 m 0,0 -0.2,-0.6 -0.1,-0.5 m 0,0 H 8.7 9 m 0,0 0.3,0.1 0.3,0.1 m 0,0 v 0.1 l 0.1,0.2 m 0,0 0.1,0.1 v 0.2 m 0,0 0.1,0.2 v 0.2 m 0.4,1.2 0.1,0.6 0.1,0.4 m 0,0 0.1,0.1 h 0.1 m 0.2,-0.2 v -0.2 l -0.1,-0.2 m 3.6,-4 h 0.4 0.2 m 0,0 h 1.6 m 0,0 h 0.4 0.3 m 0,0 h 0.1 0.1 m 0,0 h 0.1 l 0.1,-0.1 v -0.1 m 0,0 v -0.2 l -0.1,-0.1 -0.2,-0.1 -0.4,-0.2 m 0,0 h -0.1 m 0,0 -0.3,0.1 h -0.2 m 0,0 -0.8,0.1 h -0.5 m 0,0 -1.1,-0.1 -0.4,-0.2 -0.3,-0.2 m 0,0 -0.3,-0.2 -0.1,-0.1 h -0.1 m 0,0 h -0.1 l -0.1,0.1 -0.1,0.1 v 0.1 m 0,0 0.2,0.5 0.4,0.4 0.8,0.5 m 0,0 1.5,1.1 0.4,0.6 0.3,0.7 m 0,0 -0.1,0.3 -0.3,0.3 -0.2,0.1 -0.3,0.1 m 0,0 -0.4,-0.2 -0.4,-0.2 -0.6,-0.5 m 0,0 -0.2,-0.1 h -0.2 m 0,0 -0.1,0.1 -0.1,0.1 -0.1,0.2 m 0,0 0.4,0.4 0.4,0.3 0.4,0.2 1.2,0.3 m 1.4,-1.3 -0.4,-1 -0.7,-0.8 -1.4,-1 m 1.1,4.1 0.5,-0.1 0.4,-0.4 0.3,-0.4 0.2,-0.4 m -21.1,-3.9 -0.5,0.1 -0.5,0.3 -0.1,0.4 -0.1,0.4 m 0,0 0.3,1.1 0.5,1 0.6,0.7 0.8,0.4 m 0,0 0.4,-0.2 0.2,-0.3 0.2,-0.6 m 0,0 -0.1,-0.3 -0.1,-0.1 -0.1,-0.1 m 0,0 h -0.1 -0.1 v 0.2 l -0.1,0.2 m 0,0 -0.1,0.3 -0.1,0.2 h -0.1 m 0,0 -0.5,-0.3 -0.3,-0.4 -0.3,-0.5 -0.3,-1.3 m 0,0 v -0.3 l 0.2,-0.2 0.2,-0.1 H -4 m 0,0 0.7,0.2 0.6,0.3 m 0,0 0.2,0.1 0.2,0.1 m 0,0 v 0 l 0.1,-0.1 v -0.1 m 0,0 -0.2,-0.3 -0.4,-0.3 -0.4,-0.2 -1,-0.3 m -6.2,1 v -0.3 l 0.1,-0.3 m 0,0 v -0.1 m 0,0 v -0.2 h -0.1 l -0.3,-0.1 m 0,0 h -0.1 l -0.1,0.1 -0.1,0.1 v 0.5 m 0,0 0.1,1.2 0.1,1 m 0,0 0.1,0.3 v 0.3 m 0,0 0.1,0.4 0.1,0.1 0.1,0.1 h 0.1 m 0,0 h 0.1 l 0.2,-0.1 0.1,-0.1 v -0.1 m 0,0 v -0.2 L -10,-149 m 0,0 -0.3,-1.4 -0.1,-1.1 m -8.5,-70.4 h 0.3 m 0,0 v 0 l 0.1,-0.1 0.1,-0.1 v -0.3 m 0,0 v 0 l -0.1,-0.1 h -0.1 m 0,0 v -0.1 h -0.1 v -0.1 m 0,0 0.1,-0.3 0.1,-0.2 v -0.2 l 0.1,-0.1 m 0,0 0.1,-0.4 v -0.3 m 0,0 v -0.1 l -0.1,-0.2 h -0.1 l -0.1,-0.1 m 0,0 -0.2,0.1 v 0.1 l -0.1,0.2 -0.2,0.6 m 0,0 -0.1,0.5 -0.1,0.4 m 0,0 -1,0.1 -0.7,0.1 m 0,0 -1.6,0.3 m 0,0 0.1,-0.4 0.1,-0.3 m 0,0 0.4,-0.6 0.1,-0.6 m 0,0 v -0.1 l -0.2,-0.1 m 0,0 h -0.1 l -0.1,0.1 h -0.1 v 0.1 l -0.2,0.4 -0.3,0.7 -0.4,0.6 -0.4,0.7 m 0,0 0.1,0.1 0.1,0.1 0.3,0.1 m 0,0 h 0.1 l 0.1,-0.1 m 0,0 2,-0.5 h 0.8 0.8 m 0,0 -0.1,0.4 -0.1,0.4 m 0,0 -0.1,0.7 -0.1,0.5 m 0,0 0.2,0.1 h 0.1 m 0,0 h 0.2 v -0.1 l 0.1,-0.3 0.1,-0.6 m 0,0 0.1,-0.6 0.1,-0.4 m -4.4,-17.6 -0.4,0.2 -0.1,0.1 -0.1,0.1 m 0,0 0.1,0.1 v 0.1 l 0.2,0.1 0.5,0.2 m 0,0 1.1,0.3 1,0.4 1.6,0.7 m 0,0 -0.2,0.2 -0.3,0.1 m 0,0 -1,0.6 -0.8,0.5 m 0,0 -1.4,0.8 -0.4,0.3 -0.3,0.2 -0.3,0.4 m 0,0 v 0.1 l 0.1,0.1 0.2,0.1 m 0.5,-0.3 1.2,-0.8 1,-0.6 m 0,0 0.8,-0.5 0.7,-0.4 m 0,0 0.4,-0.3 0.4,-0.2 m 0,0 0.2,-0.1 0.1,-0.2 0.1,-0.3 m 0,0 -0.3,-0.2 -0.2,-0.1 -0.5,-0.1 m 0,0 -0.9,-0.4 -0.6,-0.2 -0.6,-0.3 -0.6,-0.2 m 0,0 -0.4,-0.2 -0.3,-0.1 -0.3,-0.1 -0.2,-0.1 m -0.5,5.7 0.2,-0.1 0.1,-0.1 0.2,-0.1 m 3.7,-6.8 v 0.1 0.1 h 0.1 m 0,0 0.4,-0.2 0.2,-0.2 0.4,-0.7 0.4,-1.3 m 0,0 -0.2,-0.8 -0.4,-0.6 -0.5,-0.4 h -0.6 m 0,0 -1.8,0.4 -1.4,1.1 -0.8,1.1 -0.4,1.3 m 0,0 v 0.4 l 0.3,0.4 0.3,0.1 0.3,0.1 m 0,0 h 0.4 l 0.3,-0.1 0.2,-0.2 0.1,-0.3 m 0,0 v -0.1 l -0.1,-0.1 h -0.2 m 0,0 h -0.2 -0.1 m 0,0 -0.3,0.1 h -0.1 m 0,0 h -0.2 l -0.2,-0.1 v -0.1 -0.1 m 0,0 0.3,-1 0.6,-0.7 0.7,-0.7 1.1,-0.6 1.1,-0.2 m 0,0 0.5,0.1 0.4,0.3 0.2,0.4 0.1,0.4 m 0,0 -0.3,1 -0.3,0.7 m 0,0 -0.2,0.2 -0.1,0.2 m 0.3,-16.2 -0.1,0.4 v 0.2 m 0,0 v 1.6 m 0,0 0.1,0.4 -0.1,0.3 m 0,0 v 0.1 0.1 m 0,0 v 0.1 l 0.1,0.1 h 0.1 m 0,0 h 0.2 l 0.2,-0.1 v -0.2 l 0.2,-0.4 m 0,0 v -0.1 m 0,0 v -0.3 l -0.1,-0.2 m 0,0 -0.1,-0.7 v -0.6 m 0,0 0.1,-1.1 0.2,-0.4 0.2,-0.3 m 0,0 0.2,-0.3 0.1,-0.1 v -0.1 m 0,0 v -0.1 l -0.1,-0.1 -0.1,-0.1 h -0.1 m 0,0 -0.5,0.2 -0.4,0.4 -0.4,0.8 m 0,0 -1.2,1.5 -0.6,0.4 -0.7,0.3 m 0,0 -0.3,-0.1 -0.3,-0.3 -0.1,-0.2 -0.1,-0.3 m 0,0 0.2,-0.4 0.2,-0.4 0.5,-0.6 m 0,0 0.1,-0.2 v -0.2 m 0,0 -0.1,-0.1 -0.1,-0.1 -0.2,-0.1 m 0,0 -0.3,0.4 -0.3,0.4 -0.3,0.4 -0.3,1.2 m 0,0 0.2,0.5 0.3,0.4 0.4,0.3 0.4,0.2 m 0,0 1,-0.4 0.8,-0.7 1.1,-1.4 m -2.5,-4 0.3,-0.1 0.2,-0.1 m 0,0 0.3,-0.1 h 0.2 m 0,0 h 0.1 v 0.1 h 0.1 m 0,0 -0.1,0.3 -0.1,0.2 m 0,0 v 0.3 l -0.1,0.3 m 0,0 0.1,0.3 0.1,0.1 0.1,0.1 h 0.2 m 0,0 0.1,-0.1 0.1,-0.2 m 0,0 v -0.1 l -0.1,-0.1 m 0,0 v -0.1 l -0.1,-0.1 m 0,0 0.1,-0.3 v -0.3 m 0,0 0.1,-0.3 v -0.3 m 0,0 h 0.1 l 0.1,-0.1 m 0,0 0.3,-0.1 h 0.3 m 0,0 h 0.2 m 0,0 h 0.1 l 0.1,-0.1 0.1,-0.1 v -0.1 m 0,0 v -0.1 l -0.1,-0.1 h -0.2 m 0,0 h -0.3 l -0.3,0.1 m 0,0 h -0.2 -0.1 m 0,0 v -0.3 l 0.1,-0.3 m 0,0 0.1,-0.5 m 0,0 0.6,-0.2 0.3,-0.1 0.1,-0.1 0.1,-0.2 m 0,0 v 0 -0.1 h -0.1 -0.1 m 0,0 -0.5,0.1 -0.4,0.2 m 0,0 v -0.8 -0.4 l -0.1,-0.2 v -0.1 h -0.1 m 0,0 -0.2,0.1 -0.1,0.2 -0.1,0.2 m 0,0 v 0.3 l 0.1,0.2 m 0,0 v 0.3 0.2 m 0,0 -0.2,0.1 -0.2,0.1 m 0,0 -0.4,0.1 -0.3,0.1 m 0,0 v -0.4 l 0.1,-0.3 m 0,0 v -0.4 -0.2 m 0,0 v -0.3 -0.1 l -0.1,-0.1 h -0.1 m 0,0 v 0 h -0.1 v 0.1 l -0.1,0.3 -0.1,0.4 m 0,0 v 0.2 0.1 m 0,0 -0.1,0.4 v 0.3 m 0,0 -0.4,0.3 -0.4,0.2 m 0,0 -0.4,0.2 -0.1,0.1 v 0.2 m 0,0 v 0 h 0.1 l 0.1,0.1 m 0,0 0.3,-0.1 0.2,-0.1 m 0,0 0.3,-0.2 0.2,-0.1 m 0,0 -0.1,1.3 m 0,0 -0.4,0.1 -0.3,0.1 m 0,0 -0.6,0.1 -0.4,0.1 m 0,0 -0.1,0.1 v 0.1 m 0,0 v 0.1 l 0.1,0.1 h 0.1 m 0,0 h 0.3 l 0.1,-0.1 m 0,0 0.4,-0.1 0.3,-0.1 m 0,0 0.3,-0.1 h 0.1 m 0,0 v 0.4 0.2 m 0,0 -0.1,0.4 v 0.3 m 0,0 0.1,0.2 v 0.1 h 0.2 m 0,0 h 0.1 l 0.1,-0.1 m 0,0 v -0.9 l 0.1,-0.7 m 0.1,-0.5 v -0.7 l 0.1,-0.6 m 0,0 0.6,-0.2 0.5,-0.1 m 0,0 v 0.4 0.3 m 0,0 -0.1,0.3 -0.1,0.3 m 0,0 -0.1,0.1 H -21 m 0,0 -0.1,0.1 h -0.2 m 0,0 -0.2,0.1 h -0.2 m -1.6,-11.9 -0.4,0.1 -0.1,0.2 -0.1,0.1 m 0,0 0.1,0.1 v 0.1 l 0.2,0.1 0.5,0.1 m 0,0 1.1,0.4 1,0.4 1.6,0.7 m 0,0 -0.2,0.1 -0.3,0.2 m 0,0 -1,0.6 -0.8,0.5 m 0,0 -1.4,0.8 -0.4,0.3 -0.3,0.2 -0.3,0.4 m 0,0 v 0.1 l 0.1,0.1 0.2,0.1 m 0,0 0.2,-0.1 0.1,-0.1 0.2,-0.1 m 0,0 1.2,-0.8 1,-0.6 m 0,0 0.8,-0.5 0.7,-0.4 m 0,0 0.4,-0.3 0.4,-0.2 m 0,0 0.2,-0.1 0.1,-0.2 0.1,-0.3 m 0,0 -0.3,-0.2 -0.2,-0.1 -0.5,-0.2 m 0,0 -0.9,-0.3 -0.6,-0.3 -0.6,-0.2 -0.6,-0.2 m 0,0 -0.4,-0.2 -0.3,-0.1 -0.3,-0.1 -0.2,-0.1 m 3.7,-1.4 v 0.1 0.1 h 0.1 m 0,0 0.4,-0.2 0.2,-0.3 0.4,-0.6 0.4,-1.4 m 0,0 -0.2,-0.7 -0.4,-0.7 -0.5,-0.3 -0.6,-0.1 m 0,0 -1.8,0.5 -1.4,1.1 -0.8,1 -0.4,1.4 m 0,0 v 0.4 l 0.3,0.3 0.3,0.2 0.3,0.1 m 1,-0.6 v -0.1 l -0.1,-0.1 -0.2,-0.1 m 0,0 -0.2,0.1 h -0.1 m 0,0 -0.3,0.1 h -0.1 m 0,0 h -0.2 l -0.2,-0.1 v -0.1 -0.2 m 0,0 0.3,-0.9 0.6,-0.8 0.7,-0.6 1.1,-0.6 1.1,-0.2 m 0,0 0.5,0.1 0.4,0.3 0.2,0.3 0.1,0.5 m 0,0 -0.3,1 -0.3,0.7 m 0,0 -0.2,0.2 -0.1,0.2 m -3.7,0.9 h 0.4 l 0.3,-0.1 0.2,-0.3 0.1,-0.2 m 52.1,-11.7 h -56.7 m 0,-28.3 h 56.7 m -28.4,22.9 -1.5,-0.1 -1.5,-0.4 -1.4,-0.6 -1.2,-0.9 -1.1,-1.1 -0.9,-1.3 -0.6,-1.3 -0.4,-1.5 -0.2,-1.5 0.2,-1.6 0.4,-1.5 0.6,-1.3 0.9,-1.3 1.1,-1.1 1.2,-0.9 1.4,-0.6 1.5,-0.4 1.5,-0.1 m 0,0 1.5,0.1 1.5,0.4 1.4,0.6 1.3,0.9 1.1,1.1 0.8,1.3 0.7,1.3 0.4,1.5 0.1,1.6 -0.1,1.5 -0.4,1.5 -0.7,1.3 -0.8,1.3 -1.1,1.1 -1.3,0.9 -1.4,0.6 -1.5,0.4 -1.5,0.1 m -21.4,-15.6 -1.5,0.3 -1.3,0.8 -0.8,1 -0.3,1.1 m 5.8,-1.7 -0.3,-0.7 -0.5,-0.5 -0.5,-0.2 -0.6,-0.1 m -1.9,5.6 1.1,-0.3 0.9,-0.6 0.8,-0.8 0.8,-1.1 0.2,-1.3 m -5.8,1.7 0.1,1 0.5,0.8 0.6,0.5 0.8,0.1 m 3.6,4 -0.1,-0.2 -0.1,-0.2 -0.4,-0.1 -0.9,-0.1 m 1.2,1 h 0.2 l 0.1,-0.2 v -0.2 m -0.5,0.3 0.1,0.1 h 0.1 m -1.3,-0.4 h 0.6 l 0.3,0.1 0.2,0.2 m -2.7,-0.1 0.9,-0.2 h 0.7 m -1.8,0.3 0.1,-0.1 h 0.1 m -0.6,-0.2 v 0.1 l 0.1,0.1 0.3,0.1 m 0.3,-0.8 -0.4,0.2 -0.2,0.1 -0.1,0.1 v 0.1 m 3.1,-2.5 -0.2,0.6 -0.4,0.4 -0.5,0.4 -1.3,0.6 m 1.8,-2.2 h 0.4 l 0.1,0.1 0.1,0.1 m -2.3,0.1 0.9,-0.3 h 0.8 m -2.4,0.5 0.4,-0.1 0.3,-0.1 m -1.1,-0.1 0.1,0.1 0.1,0.1 0.1,0.1 h 0.1 m -0.1,-0.7 -0.1,0.1 -0.1,0.1 -0.1,0.2 m 1.4,-0.6 -0.6,0.1 -0.5,0.1 m 2.6,-0.4 -0.9,0.1 -0.6,0.1 m 2.6,0.6 v -0.2 l -0.1,-0.2 -0.3,-0.3 -0.7,-0.1 m -0.6,2.7 1.2,-0.9 0.4,-0.5 0.1,-0.5 m -1.6,1.9 v 0 h -0.1 m 0.3,0 H -20 m -3.9,3.6 v 0.2 l 0.1,0.1 h 0.1 l 0.1,0.1 m 0.1,-0.7 -0.3,0.1 -0.1,0.1 v 0.1 m 1.7,-0.9 v 0.1 l -0.1,0.1 -0.1,0.1 -0.4,0.1 -0.7,0.2 m 1.3,-1.4 v 0.8 m 0.3,-1 H -22 l -0.1,0.1 v 0.1 h -0.1 m 0.6,0.3 v -0.2 l -0.1,-0.2 h -0.1 l -0.1,-0.1 m 0.3,0.9 v -0.4 m 0,0.5 v 0 -0.1 m 1,-0.1 -0.5,0.1 -0.5,0.1 m 2.3,-0.4 -0.7,0.1 -0.6,0.1 m 2.4,0.7 v -0.3 l -0.2,-0.3 -0.2,-0.2 -0.7,-0.1 m -0.1,2.5 0.5,-0.3 0.4,-0.4 0.2,-0.4 0.1,-0.5 m -1.4,1.4 v 0.1 l 0.1,0.1 h 0.1 m 0,-0.5 -0.1,0.2 -0.1,0.1 m 0.7,-1.2 v 0.3 l -0.2,0.2 -0.3,0.4 m -0.2,-1.4 0.5,0.1 0.1,0.1 0.1,0.1 v 0.2 m -2.9,1.5 0.1,-0.9 0.1,-0.5 v -0.1 h 0.1 l 0.2,-0.1 0.9,-0.2 0.8,-0.2 m -2.5,2.4 h 0.1 l 0.1,-0.1 v -0.1 l 0.1,-0.2 m -0.6,0 0.1,0.3 v 0.1 h 0.2 m -0.2,-1 -0.1,0.3 v 0.3 m 0.2,-1.3 -0.1,0.4 v 0.3 m -0.7,-0.5 0.8,-0.2 m -1.4,0.4 0.3,-0.1 0.3,-0.1 m -3.9,8.2 v -28.3 m 56.7,0 v 28.3 m -49.8,-20.3 0.5,0.1 0.4,0.3 0.2,0.3 0.1,0.4 m -4.6,1.4 0.3,-0.8 0.5,-0.6 0.7,-0.5 0.9,-0.4 1,-0.2 m -2,4.1 -0.7,-0.1 -0.4,-0.5 -0.3,-1 m 4.6,-1.4 -0.4,1.3 -0.9,1 -0.9,0.5 -1,0.2 m 10.7,-43.3 h -15.6 m 0,-1.4 h 15.6 m 0,0 v 1.4 m -15.6,0 v -1.4 m 26.9,0 h 29.8 m 0,1.4 H 0 m 0,0 v -1.4 m 29.8,0 v 1.4 m -23.9,169.7 1,-2.8 1.6,-2.8 2,-2.7 2.4,-2.3 2.9,-1.9 3.3,-1.3 3.4,-0.5 m -17.9,32.8 v -0.7 -1.1 L 4.5,-161 v -2.4 l 0.1,-2.7 0.2,-3.4 0.4,-3.4 0.7,-3.2 m 4.7,-0.7 -1.3,2.5 -0.9,3 -0.6,3.2 -0.4,3.2 -0.1,2.3 -0.1,2.1 v 1.7 1.2 m 15.3,-28 -1.3,0.3 -1.8,0.7 -1.6,0.9 -1.7,1.1 -2.9,2.6 -2.6,3.2 m 11.9,-13.6 v 4.8 m -15.3,28 H 4.6 m -8.6,0 h 2.6 m -1.2,-18.5 -1.1,-2.8 -1.5,-2.8 -2.1,-2.7 -2.4,-2.3 -2.9,-1.9 -3.2,-1.3 -3.5,-0.5 m 0,0 v 4.8 m 0,0 1.4,0.3 1.7,0.7 1.6,0.9 1.7,1.1 2.9,2.6 2.7,3.2 m 0,0 1.2,2.5 0.9,3 0.6,3.2 0.4,3.2 0.1,2.3 0.1,2.1 v 1.7 1.2 m 2.6,0 v -0.7 l 0.1,-1.1 v -1.6 -2.4 l -0.1,-2.7 -0.2,-3.4 -0.4,-3.4 -0.6,-3.2 m 6.5,18.5 v -32.8 m 0,0 h -4.6 m 0,32.8 h 4.6 m -4.6,-32.8 v 32.8 m -8.1,-50 -4.1,13.2 m 1.7,-13.2 h 2.4 m -3.4,3.6 1,-3.6 m -5.4,3.6 h 4.4 m -5.3,-3.6 0.9,3.6 m -3.3,-3.6 h 2.4 m 1.6,13.2 -4,-13.2 m 4,13.2 v 0 m 1.5,1 -0.6,-0.1 -0.4,-0.2 -0.3,-0.4 -0.2,-0.3 m 3,0 -0.3,0.4 -0.4,0.4 -0.4,0.2 h -0.4 m 1.5,-1 v 0 m -1.5,-2.6 1.5,-5.8 m -3,0 1.5,5.8 m 1.5,-5.8 h -3 m 36.4,9.1 h 2.2 m 0,0 v -13.9 m 0,0 h -2.2 m 0,0 v 13.9 M 9,-207.6 5,-194.4 m 1.6,-13.2 H 9 m -3.4,3.6 1,-3.6 m -5.3,3.6 h 4.3 m -5.3,-3.6 1,3.6 m -3.3,-3.6 h 2.3 m 1.6,13.2 -3.9,-13.2 m 3.9,13.2 v 0 m 1.5,1 -0.5,-0.1 -0.5,-0.2 -0.3,-0.4 -0.2,-0.3 m 3.1,0 -0.3,0.4 -0.4,0.4 -0.4,0.2 H 3.4 m 1.6,-1 v 0 m -1.6,-2.6 1.5,-5.8 m -3,0 1.5,5.8 m 1.5,-5.8 h -3 m -6.4,7.3 H -1 m -3.5,-12.1 v 12.1 m -2.2,-12.1 h 2.2 m -2.2,12.1 v -12.1 m -3.4,12.1 h 3.4 m 5.7,1.8 h -9.1 m 9.1,-1.8 v 1.8 m -9.1,0 v -1.8 m 25,-4.2 -0.8,-0.4 -0.3,-0.4 m 1.3,0.9 -0.1,-0.1 h -0.1 m 0.5,0.3 -0.2,-0.1 -0.1,-0.1 m 1,1.9 v -0.6 l -0.2,-0.5 -0.5,-0.6 m 0.7,1.9 v -0.1 -0.1 m 0,0.4 v -0.1 -0.1 m 0,0.2 v 0 m 0,0.1 v -0.1 m -1.3,1.6 0.5,-0.2 0.4,-0.4 0.2,-0.4 0.2,-0.5 m -1.3,1.5 v 0 m -0.6,0 h 0.3 0.3 m -2.1,0 h 1.5 m -1.9,-0.6 v 0.2 l 0.1,0.2 0.2,0.2 h 0.1 m -0.4,-0.6 v 0 m 0,-11.3 v 11.3 m -2.2,-11.3 h 2.2 m -2.2,12.1 v -12.1 m 0,12.1 v 0 m 1.6,2.1 -0.5,-0.1 -0.4,-0.2 -0.3,-0.4 -0.3,-0.7 -0.1,-0.7 m 6.1,-6.1 0.8,0.8 0.7,1 0.4,2.1 m -2.3,-4.1 0.2,0.1 0.2,0.1 m -0.4,-0.6 v 0.2 0.2 m 0.1,-0.8 -0.1,0.2 v 0.2 m 3.2,-5.4 -3.1,5 m 0.5,-5 H 19 m -5.3,4.3 2.7,-4.3 m -3.1,5.7 0.2,-0.9 0.2,-0.5 m 0.1,2.8 -0.4,-0.7 -0.1,-0.7 m 0.9,8.5 h -2.5 m 6.4,-4.3 -0.3,1.8 -0.8,1.4 -1,0.8 -1.1,0.3 m 0,0 H 14.6 14.2 M 29.8,9.2 h -56.7 m 28.3,-266.8 -1.5,-0.2 -1.5,-0.4 -1.4,-0.6 -1.2,-0.9 -1.1,-1.1 -0.9,-1.2 -0.6,-1.4 -0.4,-1.5 -0.2,-1.5 0.2,-1.6 0.4,-1.4 0.6,-1.4 0.9,-1.3 1.1,-1.1 1.2,-0.8 1.4,-0.7 1.5,-0.4 1.5,-0.1 m 0,0 1.5,0.1 1.5,0.4 1.4,0.7 1.3,0.8 1.1,1.1 0.8,1.3 0.7,1.4 0.4,1.4 0.1,1.6 -0.1,1.5 -0.4,1.5 -0.7,1.4 -0.8,1.2 -1.1,1.1 -1.3,0.9 -1.4,0.6 -1.5,0.4 -1.5,0.2 M -5.7,5.3 -6.8,5.1 -7.8,4.7 -8.7,4.1 -9.4,3.3 l -0.5,-1 -0.3,-1 V 0.2 l 0.3,-1.1 0.5,-0.9 0.7,-0.9 0.9,-0.6 1,-0.4 1.1,-0.1 m 0,0 1.1,0.1 1,0.4 0.9,0.6 0.8,0.9 0.5,0.9 0.2,1.1 v 1.1 l -0.2,1 -0.5,1 -0.8,0.8 -0.9,0.6 -1,0.4 -1.1,0.2 m 7.1,-228.9 -1.5,-0.2 -1.5,-0.4 -1.4,-0.6 -1.2,-0.9 -1.1,-1.1 -0.9,-1.2 -0.6,-1.4 -0.4,-1.5 -0.2,-1.5 0.2,-1.5 0.4,-1.5 0.6,-1.4 0.9,-1.3 1.1,-1 1.2,-0.9 1.4,-0.7 1.5,-0.4 1.5,-0.1 m 0,0 1.5,0.1 1.5,0.4 1.4,0.7 1.3,0.9 1.1,1 0.8,1.3 0.7,1.4 0.4,1.5 0.1,1.5 -0.1,1.5 -0.4,1.5 -0.7,1.4 -0.8,1.2 -1.1,1.1 -1.3,0.9 -1.4,0.6 -1.5,0.4 -1.5,0.2 m -5.7,90.7 0.5,-0.2 0.5,-0.2 0.6,-0.2 0.5,-0.2 0.5,-0.1 0.6,-0.1 H -0.6 0 m -7.7,4.3 0.3,-0.5 0.3,-0.4 0.3,-0.4 0.4,-0.4 0.4,-0.3 0.4,-0.4 0.4,-0.3 0.4,-0.3 m -4.3,7.4 0.1,-0.5 v -0.5 l 0.1,-0.5 0.1,-0.5 0.2,-0.5 0.2,-0.5 0.2,-0.5 0.2,-0.5 m 0,8.6 -0.2,-0.5 -0.2,-0.4 -0.2,-0.5 -0.2,-0.5 -0.1,-0.5 -0.1,-0.5 v -0.6 l -0.1,-0.5 m 4.3,7.4 -0.4,-0.2 -0.4,-0.4 -0.4,-0.3 -0.4,-0.4 -0.4,-0.3 -0.3,-0.4 -0.3,-0.5 -0.3,-0.4 m 7.3,4.3 h -0.5 l -0.5,-0.1 -0.5,-0.1 -0.5,-0.1 -0.5,-0.2 -0.5,-0.1 -0.4,-0.2 -0.5,-0.3 m 0,42.3 0.5,-0.2 0.5,-0.2 0.6,-0.2 0.5,-0.2 0.5,-0.1 0.6,-0.1 h 0.5 L 0,-75.7 m -7.7,4.3 0.3,-0.4 0.3,-0.4 0.3,-0.4 0.4,-0.4 0.4,-0.4 0.4,-0.3 0.4,-0.3 0.4,-0.3 m -4.3,7.4 0.1,-0.5 v -0.5 l 0.1,-0.5 0.1,-0.5 0.2,-0.5 0.2,-0.5 0.2,-0.5 0.2,-0.5 m 0,8.6 -0.2,-0.5 -0.2,-0.5 -0.2,-0.4 -0.2,-0.5 -0.1,-0.6 -0.1,-0.5 v -0.5 l -0.1,-0.5 m 4.3,7.4 -0.4,-0.3 -0.4,-0.3 -0.4,-0.3 -0.4,-0.4 -0.4,-0.4 -0.3,-0.4 -0.3,-0.4 -0.3,-0.4 m 7.3,4.3 -0.5,-0.1 h -0.5 l -0.5,-0.1 -0.5,-0.1 -0.5,-0.2 -0.5,-0.2 -0.4,-0.2 -0.5,-0.2 m 8.6,-58.3 -0.5,0.3 -0.4,0.2 -0.5,0.1 -0.5,0.2 -0.5,0.1 -0.5,0.1 -0.5,0.1 H 0.4 m 7.3,-4.3 -0.3,0.4 -0.3,0.5 -0.3,0.4 -0.4,0.3 -0.4,0.4 -0.4,0.3 -0.4,0.4 -0.4,0.2 m 4.3,-7.4 -0.1,0.5 v 0.6 l -0.1,0.5 -0.1,0.5 -0.2,0.5 -0.2,0.5 -0.2,0.4 -0.2,0.5 m 0,-8.6 0.2,0.5 0.2,0.5 0.2,0.5 0.2,0.5 0.1,0.5 0.1,0.5 v 0.5 l 0.1,0.5 m -4.2,-7.3 0.4,0.3 0.4,0.3 0.4,0.3 0.4,0.4 0.3,0.3 0.3,0.4 0.3,0.4 0.3,0.5 M 0,-133.9 h 0.5 0.6 l 0.5,0.1 0.5,0.1 0.6,0.2 0.5,0.1 0.5,0.2 0.5,0.3 m 0.1,74.3 -0.5,0.2 -0.4,0.2 -0.5,0.2 -0.5,0.2 -0.5,0.1 -0.5,0.1 H 0.9 l -0.5,0.1 m 7.3,-4.3 -0.3,0.4 -0.3,0.4 -0.3,0.4 -0.4,0.4 -0.4,0.4 -0.4,0.3 -0.4,0.3 -0.4,0.3 m 4.3,-7.4 -0.1,0.5 v 0.5 l -0.1,0.5 -0.1,0.6 -0.2,0.5 -0.2,0.4 -0.2,0.5 -0.2,0.5 m 0,-8.6 0.2,0.5 0.2,0.5 0.2,0.5 0.2,0.5 0.1,0.5 0.1,0.5 v 0.5 l 0.1,0.5 m -4.2,-7.3 0.4,0.3 0.4,0.3 0.4,0.3 0.4,0.3 0.3,0.4 0.3,0.4 0.3,0.4 0.3,0.4 m -7.7,-4.3 0.5,0.1 h 0.6 l 0.5,0.1 0.5,0.1 0.6,0.1 0.5,0.2 0.5,0.2 0.5,0.3 M -26.9,9.2 V 1.4 m 0,-1.4 v -286.3 m 56.7,0 V 0 m 0,1.4 V 9.2 M -26.9,-355 h 56.7 m -35.5,13 -1.1,-0.1 -1,-0.4 -0.9,-0.6 -0.7,-0.8 -0.5,-1 -0.3,-1.1 v -1.1 l 0.3,-1 0.5,-1 0.7,-0.8 0.9,-0.6 1,-0.4 1.1,-0.1 m 0,0 1.1,0.1 1,0.4 0.9,0.6 0.8,0.8 0.5,1 0.2,1 v 1.1 l -0.2,1.1 -0.5,1 -0.8,0.8 -0.9,0.6 -1,0.4 -1.1,0.1 m -21.2,27.4 v -31.2 m 0,-1.4 v -7.8 m 56.7,0 v 7.8 m 0,1.4 v 31.2"
         style="fill:none;stroke:#000000;stroke-width:0.75000002;stroke-linecap:round;stroke-linejoin:round;stroke-miterlimit:4;stroke-dasharray:none;stroke-opacity:1"
         id="path12" /></g></g></svg>
